<svg xmlns="http://www.w3.org/2000/svg" viewBox="-5.22 -4.60 10.70 9.20" preserveAspectRatio="xMidYMid meet" style="width:100%;height:100%"><rect x="-5.22" y="-4.60" width="10.70" height="9.20" fill="#12151c"/><line x1="-1.500" y1="-3.250" x2="1.500" y2="-3.250" stroke="#e6e9ef" stroke-width="0.200" stroke-linecap="round" opacity="1"/><line x1="-1.500" y1="-3.050" x2="-1.300" y2="-3.250" stroke="#e6e9ef" stroke-width="0.200" stroke-linecap="round" opacity="1"/><line x1="-1.500" y1="-2.850" x2="-1.100" y2="-3.250" stroke="#e6e9ef" stroke-width="0.200" stroke-linecap="round" opacity="1"/><line x1="-1.500" y1="-2.650" x2="-0.900" y2="-3.250" stroke="#e6e9ef" stroke-width="0.200" stroke-linecap="round" opacity="1"/><line x1="-1.500" y1="-2.450" x2="-0.700" y2="-3.250" stroke="#e6e9ef" stroke-width="0.200" stroke-linecap="round" opacity="1"/><line x1="-1.500" y1="-2.250" x2="-0.500" y2="-3.250" stroke="#e6e9ef" stroke-width="0.200" stroke-linecap="round" opacity="1"/><line x1="-1.500" y1="3.250" x2="-1.500" y2="-3.250" stroke="#e6e9ef" stroke-width="0.200" stroke-linecap="round" opacity="1"/><line x1="-1.500" y1="3.250" x2="1.500" y2="3.250" stroke="#e6e9ef" stroke-width="0.200" stroke-linecap="round" opacity="1"/><line x1="1.500" y1="3.250" x2="1.500" y2="-3.250" stroke="#e6e9ef" stroke-width="0.200" stroke-linecap="round" opacity="1"/><line x1="-4.225" y1="-3.600" x2="4.225" y2="-3.600" stroke="#d24d4d" stroke-width="0.080" stroke-linecap="round" opacity="0.7"/><line x1="-4.225" y1="3.600" x2="-4.225" y2="-3.600" stroke="#d24d4d" stroke-width="0.080" stroke-linecap="round" opacity="0.7"/><line x1="-4.225" y1="3.600" x2="4.225" y2="3.600" stroke="#d24d4d" stroke-width="0.080" stroke-linecap="round" opacity="0.7"/><line x1="4.225" y1="3.600" x2="4.225" y2="-3.600" stroke="#d24d4d" stroke-width="0.080" stroke-linecap="round" opacity="0.7"/><line x1="-1.780" y1="-3.250" x2="1.780" y2="-3.250" stroke="#6b7280" stroke-width="0.100" stroke-linecap="round" opacity="0.8"/><line x1="-1.780" y1="3.250" x2="-1.780" y2="-3.250" stroke="#6b7280" stroke-width="0.100" stroke-linecap="round" opacity="0.8"/><line x1="-1.780" y1="3.250" x2="1.780" y2="3.250" stroke="#6b7280" stroke-width="0.100" stroke-linecap="round" opacity="0.8"/><line x1="1.780" y1="3.250" x2="1.780" y2="-3.250" stroke="#6b7280" stroke-width="0.100" stroke-linecap="round" opacity="0.8"/><circle cx="-3.700" cy="-3.250" r="0.150" fill="#e6e9ef" opacity="1"/><circle cx="-0.780" cy="-2.250" r="0.500" fill="none" stroke="#6b7280" stroke-width="0.12" opacity="0.8"/><rect x="-3.975" y="-2.725" width="2.150" height="0.950" rx="0.000" fill="#c79b5c"/><rect x="-3.975" y="-1.225" width="2.150" height="0.950" rx="0.000" fill="#c79b5c"/><rect x="-3.975" y="0.275" width="2.150" height="0.950" rx="0.000" fill="#c79b5c"/><rect x="-3.975" y="1.775" width="2.150" height="0.950" rx="0.000" fill="#c79b5c"/><rect x="1.325" y="-1.075" width="3.150" height="2.150" rx="0.000" fill="#c79b5c"/></svg>