<svg xmlns="http://www.w3.org/2000/svg" viewBox="-14.37 -5.01 27.82 10.02" preserveAspectRatio="xMidYMid meet" style="width:100%;height:100%"><rect x="-14.37" y="-5.01" width="27.82" height="10.02" fill="#12151c"/><circle cx="-13.125" cy="3.700" r="0.125" fill="none" stroke="#e6e9ef" stroke-width="0.12" opacity="1"/><circle cx="-13.123" cy="3.700" r="0.250" fill="none" stroke="#6b7280" stroke-width="0.12" opacity="0.8"/><rect x="-12.445" y="1.220" width="0.760" height="2.790" rx="0.000" fill="#c79b5c"/><rect x="-12.445" y="-4.010" width="0.760" height="2.790" rx="0.000" fill="#c79b5c"/><rect x="-11.175" y="1.220" width="0.760" height="2.790" rx="0.000" fill="#c79b5c"/><rect x="-11.175" y="-4.010" width="0.760" height="2.790" rx="0.000" fill="#c79b5c"/><rect x="-9.905" y="1.220" width="0.760" height="2.790" rx="0.000" fill="#c79b5c"/><rect x="-9.905" y="-4.010" width="0.760" height="2.790" rx="0.000" fill="#c79b5c"/><rect x="-8.635" y="1.220" width="0.760" height="2.790" rx="0.000" fill="#c79b5c"/><rect x="-8.635" y="-4.010" width="0.760" height="2.790" rx="0.000" fill="#c79b5c"/><rect x="-7.365" y="1.220" width="0.760" height="2.790" rx="0.000" fill="#c79b5c"/><rect x="-7.365" y="-4.010" width="0.760" height="2.790" rx="0.000" fill="#c79b5c"/><rect x="-6.095" y="1.220" width="0.760" height="2.790" rx="0.000" fill="#c79b5c"/><rect x="-6.095" y="-4.010" width="0.760" height="2.790" rx="0.000" fill="#c79b5c"/><rect x="-4.825" y="1.220" width="0.760" height="2.790" rx="0.000" fill="#c79b5c"/><rect x="-4.825" y="-4.010" width="0.760" height="2.790" rx="0.000" fill="#c79b5c"/><rect x="-3.555" y="1.220" width="0.760" height="2.790" rx="0.000" fill="#c79b5c"/><rect x="-3.555" y="-4.010" width="0.760" height="2.790" rx="0.000" fill="#c79b5c"/><rect x="-2.285" y="1.220" width="0.760" height="2.790" rx="0.000" fill="#c79b5c"/><rect x="-2.285" y="-4.010" width="0.760" height="2.790" rx="0.000" fill="#c79b5c"/><rect x="-1.015" y="1.220" width="0.760" height="2.790" rx="0.000" fill="#c79b5c"/><rect x="-1.015" y="-4.010" width="0.760" height="2.790" rx="0.000" fill="#c79b5c"/><rect x="0.255" y="1.220" width="0.760" height="2.790" rx="0.000" fill="#c79b5c"/><rect x="0.255" y="-4.010" width="0.760" height="2.790" rx="0.000" fill="#c79b5c"/><rect x="1.525" y="1.220" width="0.760" height="2.790" rx="0.000" fill="#c79b5c"/><rect x="1.525" y="-4.010" width="0.760" height="2.790" rx="0.000" fill="#c79b5c"/><rect x="2.795" y="1.220" width="0.760" height="2.790" rx="0.000" fill="#c79b5c"/><rect x="2.795" y="-4.010" width="0.760" height="2.790" rx="0.000" fill="#c79b5c"/><rect x="4.065" y="1.220" width="0.760" height="2.790" rx="0.000" fill="#c79b5c"/><rect x="4.065" y="-4.010" width="0.760" height="2.790" rx="0.000" fill="#c79b5c"/><rect x="5.335" y="1.220" width="0.760" height="2.790" rx="0.000" fill="#c79b5c"/><rect x="5.335" y="-4.010" width="0.760" height="2.790" rx="0.000" fill="#c79b5c"/><rect x="6.605" y="1.220" width="0.760" height="2.790" rx="0.000" fill="#c79b5c"/><rect x="6.605" y="-4.010" width="0.760" height="2.790" rx="0.000" fill="#c79b5c"/><rect x="7.875" y="1.220" width="0.760" height="2.790" rx="0.000" fill="#c79b5c"/><rect x="7.875" y="-4.010" width="0.760" height="2.790" rx="0.000" fill="#c79b5c"/><rect x="9.145" y="1.220" width="0.760" height="2.790" rx="0.000" fill="#c79b5c"/><rect x="9.145" y="-4.010" width="0.760" height="2.790" rx="0.000" fill="#c79b5c"/><rect x="10.415" y="1.220" width="0.760" height="2.790" rx="0.000" fill="#c79b5c"/><rect x="10.415" y="-4.010" width="0.760" height="2.790" rx="0.000" fill="#c79b5c"/><rect x="11.685" y="1.220" width="0.760" height="2.790" rx="0.000" fill="#c79b5c"/><rect x="11.685" y="-4.010" width="0.760" height="2.790" rx="0.000" fill="#c79b5c"/></svg>