<svg xmlns="http://www.w3.org/2000/svg" viewBox="-16.90 -5.50 33.80 9.75" preserveAspectRatio="xMidYMid meet" style="width:100%;height:100%"><rect x="-16.90" y="-5.50" width="33.80" height="9.75" fill="#12151c"/><line x1="-15.900" y1="-4.500" x2="15.900" y2="-4.500" stroke="#d24d4d" stroke-width="0.080" stroke-linecap="round" opacity="0.7"/><line x1="15.900" y1="-4.500" x2="15.900" y2="3.250" stroke="#d24d4d" stroke-width="0.080" stroke-linecap="round" opacity="0.7"/><line x1="15.900" y1="3.250" x2="-15.900" y2="3.250" stroke="#d24d4d" stroke-width="0.080" stroke-linecap="round" opacity="0.7"/><line x1="-15.900" y1="3.250" x2="-15.900" y2="-4.500" stroke="#d24d4d" stroke-width="0.080" stroke-linecap="round" opacity="0.7"/><path d="M -15.150 3.000 A 0.500 0.500 0 0 1 -15.650 2.500" fill="none" stroke="#e6e9ef" stroke-width="0.12" opacity="1"/><path d="M -9.650 2.300 A 1.500 1.500 0 0 1 -7.850 2.300" fill="none" stroke="#e6e9ef" stroke-width="0.12" opacity="1"/><path d="M -9.604 2.434 A 1.366 1.366 0 0 1 -7.896 2.434" fill="none" stroke="#e6e9ef" stroke-width="0.12" opacity="1"/><path d="M -9.350 -2.670 A 0.200 0.200 0 0 1 -9.150 -2.470" fill="none" stroke="#e6e9ef" stroke-width="0.12" opacity="1"/><path d="M -8.350 -2.470 A 0.200 0.200 0 0 1 -8.150 -2.670" fill="none" stroke="#e6e9ef" stroke-width="0.12" opacity="1"/><path d="M -6.150 2.300 A 1.500 1.500 0 0 1 -4.350 2.300" fill="none" stroke="#e6e9ef" stroke-width="0.12" opacity="1"/><path d="M -6.104 2.434 A 1.366 1.366 0 0 1 -4.396 2.434" fill="none" stroke="#e6e9ef" stroke-width="0.12" opacity="1"/><path d="M -5.850 -2.670 A 0.200 0.200 0 0 1 -5.650 -2.470" fill="none" stroke="#e6e9ef" stroke-width="0.12" opacity="1"/><path d="M -4.850 -2.470 A 0.200 0.200 0 0 1 -4.650 -2.670" fill="none" stroke="#e6e9ef" stroke-width="0.12" opacity="1"/><path d="M -2.650 2.300 A 1.500 1.500 0 0 1 -0.850 2.300" fill="none" stroke="#e6e9ef" stroke-width="0.12" opacity="1"/><path d="M -2.604 2.434 A 1.366 1.366 0 0 1 -0.896 2.434" fill="none" stroke="#e6e9ef" stroke-width="0.12" opacity="1"/><path d="M -2.350 -2.670 A 0.200 0.200 0 0 1 -2.150 -2.470" fill="none" stroke="#e6e9ef" stroke-width="0.12" opacity="1"/><path d="M -1.350 -2.470 A 0.200 0.200 0 0 1 -1.150 -2.670" fill="none" stroke="#e6e9ef" stroke-width="0.12" opacity="1"/><path d="M 0.850 2.300 A 1.500 1.500 0 0 1 2.650 2.300" fill="none" stroke="#e6e9ef" stroke-width="0.12" opacity="1"/><path d="M 0.896 2.434 A 1.366 1.366 0 0 1 2.604 2.434" fill="none" stroke="#e6e9ef" stroke-width="0.12" opacity="1"/><path d="M 1.150 -2.670 A 0.200 0.200 0 0 1 1.350 -2.470" fill="none" stroke="#e6e9ef" stroke-width="0.12" opacity="1"/><path d="M 2.150 -2.470 A 0.200 0.200 0 0 1 2.350 -2.670" fill="none" stroke="#e6e9ef" stroke-width="0.12" opacity="1"/><path d="M 4.350 2.300 A 1.500 1.500 0 0 1 6.150 2.300" fill="none" stroke="#e6e9ef" stroke-width="0.12" opacity="1"/><path d="M 4.396 2.434 A 1.366 1.366 0 0 1 6.104 2.434" fill="none" stroke="#e6e9ef" stroke-width="0.12" opacity="1"/><path d="M 4.650 -2.670 A 0.200 0.200 0 0 1 4.850 -2.470" fill="none" stroke="#e6e9ef" stroke-width="0.12" opacity="1"/><path d="M 5.650 -2.470 A 0.200 0.200 0 0 1 5.850 -2.670" fill="none" stroke="#e6e9ef" stroke-width="0.12" opacity="1"/><path d="M 7.850 2.300 A 1.500 1.500 0 0 1 9.650 2.300" fill="none" stroke="#e6e9ef" stroke-width="0.12" opacity="1"/><path d="M 7.896 2.434 A 1.366 1.366 0 0 1 9.604 2.434" fill="none" stroke="#e6e9ef" stroke-width="0.12" opacity="1"/><path d="M 8.150 -2.670 A 0.200 0.200 0 0 1 8.350 -2.470" fill="none" stroke="#e6e9ef" stroke-width="0.12" opacity="1"/><path d="M 9.150 -2.470 A 0.200 0.200 0 0 1 9.350 -2.670" fill="none" stroke="#e6e9ef" stroke-width="0.12" opacity="1"/><path d="M 15.650 2.500 A 0.500 0.500 0 0 1 15.150 3.000" fill="none" stroke="#e6e9ef" stroke-width="0.12" opacity="1"/><path d="M -15.150 3.000 A 0.500 0.500 0 0 1 -15.650 2.500" fill="none" stroke="#6b7280" stroke-width="0.12" opacity="0.8"/><path d="M -9.650 2.300 A 1.500 1.500 0 0 1 -7.850 2.300" fill="none" stroke="#6b7280" stroke-width="0.12" opacity="0.8"/><path d="M -9.604 2.434 A 1.366 1.366 0 0 1 -7.896 2.434" fill="none" stroke="#6b7280" stroke-width="0.12" opacity="0.8"/><path d="M -9.350 -2.670 A 0.200 0.200 0 0 1 -9.150 -2.470" fill="none" stroke="#6b7280" stroke-width="0.12" opacity="0.8"/><path d="M -9.250 -0.625 A 0.800 0.800 0 1 1 -9.250 0.625" fill="none" stroke="#6b7280" stroke-width="0.12" opacity="0.8"/><path d="M -8.350 -2.470 A 0.200 0.200 0 0 1 -8.150 -2.670" fill="none" stroke="#6b7280" stroke-width="0.12" opacity="0.8"/><path d="M -6.150 2.300 A 1.500 1.500 0 0 1 -4.350 2.300" fill="none" stroke="#6b7280" stroke-width="0.12" opacity="0.8"/><path d="M -6.104 2.434 A 1.366 1.366 0 0 1 -4.396 2.434" fill="none" stroke="#6b7280" stroke-width="0.12" opacity="0.8"/><path d="M -5.850 -2.670 A 0.200 0.200 0 0 1 -5.650 -2.470" fill="none" stroke="#6b7280" stroke-width="0.12" opacity="0.8"/><path d="M -4.850 -2.470 A 0.200 0.200 0 0 1 -4.650 -2.670" fill="none" stroke="#6b7280" stroke-width="0.12" opacity="0.8"/><path d="M -2.650 2.300 A 1.500 1.500 0 0 1 -0.850 2.300" fill="none" stroke="#6b7280" stroke-width="0.12" opacity="0.8"/><path d="M -2.604 2.434 A 1.366 1.366 0 0 1 -0.896 2.434" fill="none" stroke="#6b7280" stroke-width="0.12" opacity="0.8"/><path d="M -2.350 -2.670 A 0.200 0.200 0 0 1 -2.150 -2.470" fill="none" stroke="#6b7280" stroke-width="0.12" opacity="0.8"/><path d="M -1.350 -2.470 A 0.200 0.200 0 0 1 -1.150 -2.670" fill="none" stroke="#6b7280" stroke-width="0.12" opacity="0.8"/><path d="M 0.850 2.300 A 1.500 1.500 0 0 1 2.650 2.300" fill="none" stroke="#6b7280" stroke-width="0.12" opacity="0.8"/><path d="M 0.896 2.434 A 1.366 1.366 0 0 1 2.604 2.434" fill="none" stroke="#6b7280" stroke-width="0.12" opacity="0.8"/><path d="M 1.150 -2.670 A 0.200 0.200 0 0 1 1.350 -2.470" fill="none" stroke="#6b7280" stroke-width="0.12" opacity="0.8"/><path d="M 2.150 -2.470 A 0.200 0.200 0 0 1 2.350 -2.670" fill="none" stroke="#6b7280" stroke-width="0.12" opacity="0.8"/><path d="M 4.350 2.300 A 1.500 1.500 0 0 1 6.150 2.300" fill="none" stroke="#6b7280" stroke-width="0.12" opacity="0.8"/><path d="M 4.396 2.434 A 1.366 1.366 0 0 1 6.104 2.434" fill="none" stroke="#6b7280" stroke-width="0.12" opacity="0.8"/><path d="M 4.650 -2.670 A 0.200 0.200 0 0 1 4.850 -2.470" fill="none" stroke="#6b7280" stroke-width="0.12" opacity="0.8"/><path d="M 5.650 -2.470 A 0.200 0.200 0 0 1 5.850 -2.670" fill="none" stroke="#6b7280" stroke-width="0.12" opacity="0.8"/><path d="M 7.850 2.300 A 1.500 1.500 0 0 1 9.650 2.300" fill="none" stroke="#6b7280" stroke-width="0.12" opacity="0.8"/><path d="M 7.896 2.434 A 1.366 1.366 0 0 1 9.604 2.434" fill="none" stroke="#6b7280" stroke-width="0.12" opacity="0.8"/><path d="M 8.150 -2.670 A 0.200 0.200 0 0 1 8.350 -2.470" fill="none" stroke="#6b7280" stroke-width="0.12" opacity="0.8"/><path d="M 9.150 -2.470 A 0.200 0.200 0 0 1 9.350 -2.670" fill="none" stroke="#6b7280" stroke-width="0.12" opacity="0.8"/><path d="M 15.650 2.500 A 0.500 0.500 0 0 1 15.150 3.000" fill="none" stroke="#6b7280" stroke-width="0.12" opacity="0.8"/><circle cx="-13.050" cy="0.000" r="1.200" fill="none" stroke="#6b7280" stroke-width="0.12" opacity="0.8"/><circle cx="-5.250" cy="0.000" r="0.800" fill="none" stroke="#6b7280" stroke-width="0.12" opacity="0.8"/><circle cx="-1.750" cy="0.000" r="0.800" fill="none" stroke="#6b7280" stroke-width="0.12" opacity="0.8"/><circle cx="1.750" cy="0.000" r="0.800" fill="none" stroke="#6b7280" stroke-width="0.12" opacity="0.8"/><circle cx="5.250" cy="0.000" r="0.800" fill="none" stroke="#6b7280" stroke-width="0.12" opacity="0.8"/><circle cx="8.750" cy="0.000" r="0.800" fill="none" stroke="#6b7280" stroke-width="0.12" opacity="0.8"/><circle cx="13.050" cy="0.000" r="1.200" fill="none" stroke="#6b7280" stroke-width="0.12" opacity="0.8"/><rect x="-9.700" y="-0.950" width="1.900" height="1.900" rx="0.950" fill="#c79b5c"/><circle cx="-8.750" cy="0.000" r="0.600" fill="#12151c"/><rect x="-6.200" y="-0.950" width="1.900" height="1.900" rx="0.950" fill="#c79b5c"/><circle cx="-5.250" cy="0.000" r="0.600" fill="#12151c"/><rect x="-2.700" y="-0.950" width="1.900" height="1.900" rx="0.950" fill="#c79b5c"/><circle cx="-1.750" cy="0.000" r="0.600" fill="#12151c"/><rect x="0.800" y="-0.950" width="1.900" height="1.900" rx="0.950" fill="#c79b5c"/><circle cx="1.750" cy="0.000" r="0.600" fill="#12151c"/><rect x="4.300" y="-0.950" width="1.900" height="1.900" rx="0.950" fill="#c79b5c"/><circle cx="5.250" cy="0.000" r="0.600" fill="#12151c"/><rect x="7.800" y="-0.950" width="1.900" height="1.900" rx="0.950" fill="#c79b5c"/><circle cx="8.750" cy="0.000" r="0.600" fill="#12151c"/><rect x="-15.300" y="-2.250" width="4.500" height="4.500" rx="2.250" fill="#c79b5c"/><circle cx="-13.050" cy="0.000" r="1.200" fill="#12151c"/><rect x="10.800" y="-2.250" width="4.500" height="4.500" rx="2.250" fill="#c79b5c"/><circle cx="13.050" cy="0.000" r="1.200" fill="#12151c"/><polygon points="-9.20,2.00 -8.30,2.00 -8.75,1.40" fill="#ffffff"/></svg>