<svg xmlns="http://www.w3.org/2000/svg" viewBox="-3.90 -3.64 7.80 7.28" preserveAspectRatio="xMidYMid meet" style="width:100%;height:100%"><rect x="-3.90" y="-3.64" width="7.80" height="7.28" fill="#12151c"/><rect x="-2.900" y="-1.892" width="0.800" height="0.285" rx="0.000" fill="#c79b5c"/><rect x="-2.900" y="-1.392" width="0.800" height="0.285" rx="0.000" fill="#c79b5c"/><rect x="-2.900" y="-0.892" width="0.800" height="0.285" rx="0.000" fill="#c79b5c"/><rect x="-2.900" y="-0.392" width="0.800" height="0.285" rx="0.000" fill="#c79b5c"/><rect x="-2.900" y="0.108" width="0.800" height="0.285" rx="0.000" fill="#c79b5c"/><rect x="-2.900" y="0.608" width="0.800" height="0.285" rx="0.000" fill="#c79b5c"/><rect x="-2.900" y="1.108" width="0.800" height="0.285" rx="0.000" fill="#c79b5c"/><rect x="-2.900" y="1.608" width="0.800" height="0.285" rx="0.000" fill="#c79b5c"/><rect x="-2.150" y="2.358" width="0.800" height="0.285" rx="0.000" fill="#c79b5c"/><rect x="-1.650" y="2.358" width="0.800" height="0.285" rx="0.000" fill="#c79b5c"/><rect x="-1.150" y="2.358" width="0.800" height="0.285" rx="0.000" fill="#c79b5c"/><rect x="-0.650" y="2.358" width="0.800" height="0.285" rx="0.000" fill="#c79b5c"/><rect x="-0.150" y="2.358" width="0.800" height="0.285" rx="0.000" fill="#c79b5c"/><rect x="0.350" y="2.358" width="0.800" height="0.285" rx="0.000" fill="#c79b5c"/><rect x="0.850" y="2.358" width="0.800" height="0.285" rx="0.000" fill="#c79b5c"/><rect x="1.350" y="2.358" width="0.800" height="0.285" rx="0.000" fill="#c79b5c"/><rect x="2.100" y="1.608" width="0.800" height="0.285" rx="0.000" fill="#c79b5c"/><rect x="2.100" y="1.108" width="0.800" height="0.285" rx="0.000" fill="#c79b5c"/><rect x="2.100" y="0.608" width="0.800" height="0.285" rx="0.000" fill="#c79b5c"/><rect x="2.100" y="0.108" width="0.800" height="0.285" rx="0.000" fill="#c79b5c"/><rect x="2.100" y="-0.392" width="0.800" height="0.285" rx="0.000" fill="#c79b5c"/><rect x="2.100" y="-0.892" width="0.800" height="0.285" rx="0.000" fill="#c79b5c"/><rect x="2.100" y="-1.392" width="0.800" height="0.285" rx="0.000" fill="#c79b5c"/><rect x="2.100" y="-1.892" width="0.800" height="0.285" rx="0.000" fill="#c79b5c"/><rect x="1.350" y="-2.642" width="0.800" height="0.285" rx="0.000" fill="#c79b5c"/><rect x="0.850" y="-2.642" width="0.800" height="0.285" rx="0.000" fill="#c79b5c"/><rect x="0.350" y="-2.642" width="0.800" height="0.285" rx="0.000" fill="#c79b5c"/><rect x="-0.150" y="-2.642" width="0.800" height="0.285" rx="0.000" fill="#c79b5c"/><rect x="-0.650" y="-2.642" width="0.800" height="0.285" rx="0.000" fill="#c79b5c"/><rect x="-1.150" y="-2.642" width="0.800" height="0.285" rx="0.000" fill="#c79b5c"/><rect x="-1.650" y="-2.642" width="0.800" height="0.285" rx="0.000" fill="#c79b5c"/><rect x="-2.150" y="-2.642" width="0.800" height="0.285" rx="0.000" fill="#c79b5c"/><rect x="-1.575" y="-1.575" width="3.150" height="3.150" rx="0.000" fill="#c79b5c"/></svg>