<svg xmlns="http://www.w3.org/2000/svg" viewBox="-6.30 -6.30 12.60 12.60" preserveAspectRatio="xMidYMid meet" style="width:100%;height:100%"><rect x="-6.30" y="-6.30" width="12.60" height="12.60" fill="#12151c"/><line x1="-3.100" y1="-3.100" x2="3.100" y2="-3.100" stroke="#e6e9ef" stroke-width="0.200" stroke-linecap="round" opacity="1"/><line x1="-3.100" y1="3.100" x2="-3.100" y2="-3.100" stroke="#e6e9ef" stroke-width="0.200" stroke-linecap="round" opacity="1"/><line x1="-3.100" y1="3.100" x2="3.100" y2="3.100" stroke="#e6e9ef" stroke-width="0.200" stroke-linecap="round" opacity="1"/><line x1="3.100" y1="3.100" x2="3.100" y2="-3.100" stroke="#e6e9ef" stroke-width="0.200" stroke-linecap="round" opacity="1"/><line x1="-5.300" y1="-5.300" x2="5.300" y2="-5.300" stroke="#d24d4d" stroke-width="0.080" stroke-linecap="round" opacity="0.7"/><line x1="-5.300" y1="5.300" x2="-5.300" y2="-5.300" stroke="#d24d4d" stroke-width="0.080" stroke-linecap="round" opacity="0.7"/><line x1="-5.300" y1="5.300" x2="5.300" y2="5.300" stroke="#d24d4d" stroke-width="0.080" stroke-linecap="round" opacity="0.7"/><line x1="5.300" y1="5.300" x2="5.300" y2="-5.300" stroke="#d24d4d" stroke-width="0.080" stroke-linecap="round" opacity="0.7"/><line x1="-3.500" y1="-3.500" x2="3.500" y2="-3.500" stroke="#6b7280" stroke-width="0.100" stroke-linecap="round" opacity="0.8"/><line x1="-3.500" y1="3.500" x2="-3.500" y2="-3.500" stroke="#6b7280" stroke-width="0.100" stroke-linecap="round" opacity="0.8"/><line x1="-3.500" y1="3.500" x2="3.500" y2="3.500" stroke="#6b7280" stroke-width="0.100" stroke-linecap="round" opacity="0.8"/><line x1="3.500" y1="3.500" x2="3.500" y2="-3.500" stroke="#6b7280" stroke-width="0.100" stroke-linecap="round" opacity="0.8"/><circle cx="-4.800" cy="-3.400" r="0.150" fill="#e6e9ef" opacity="1"/><circle cx="-2.200" cy="-2.200" r="0.250" fill="#e6e9ef" opacity="1"/><circle cx="-2.450" cy="-2.450" r="0.500" fill="none" stroke="#6b7280" stroke-width="0.12" opacity="0.8"/><rect x="-5.050" y="-2.900" width="1.600" height="0.300" rx="0.000" fill="#c79b5c"/><rect x="-5.050" y="-2.400" width="1.600" height="0.300" rx="0.000" fill="#c79b5c"/><rect x="-5.050" y="-1.900" width="1.600" height="0.300" rx="0.000" fill="#c79b5c"/><rect x="-5.050" y="-1.400" width="1.600" height="0.300" rx="0.000" fill="#c79b5c"/><rect x="-5.050" y="-0.900" width="1.600" height="0.300" rx="0.000" fill="#c79b5c"/><rect x="-5.050" y="-0.400" width="1.600" height="0.300" rx="0.000" fill="#c79b5c"/><rect x="-5.050" y="0.100" width="1.600" height="0.300" rx="0.000" fill="#c79b5c"/><rect x="-5.050" y="0.600" width="1.600" height="0.300" rx="0.000" fill="#c79b5c"/><rect x="-5.050" y="1.100" width="1.600" height="0.300" rx="0.000" fill="#c79b5c"/><rect x="-5.050" y="1.600" width="1.600" height="0.300" rx="0.000" fill="#c79b5c"/><rect x="-5.050" y="2.100" width="1.600" height="0.300" rx="0.000" fill="#c79b5c"/><rect x="-5.050" y="2.600" width="1.600" height="0.300" rx="0.000" fill="#c79b5c"/><rect x="-3.550" y="4.100" width="1.600" height="0.300" rx="0.000" fill="#c79b5c"/><rect x="-3.050" y="4.100" width="1.600" height="0.300" rx="0.000" fill="#c79b5c"/><rect x="-2.550" y="4.100" width="1.600" height="0.300" rx="0.000" fill="#c79b5c"/><rect x="-2.050" y="4.100" width="1.600" height="0.300" rx="0.000" fill="#c79b5c"/><rect x="-1.550" y="4.100" width="1.600" height="0.300" rx="0.000" fill="#c79b5c"/><rect x="-1.050" y="4.100" width="1.600" height="0.300" rx="0.000" fill="#c79b5c"/><rect x="-0.550" y="4.100" width="1.600" height="0.300" rx="0.000" fill="#c79b5c"/><rect x="-0.050" y="4.100" width="1.600" height="0.300" rx="0.000" fill="#c79b5c"/><rect x="0.450" y="4.100" width="1.600" height="0.300" rx="0.000" fill="#c79b5c"/><rect x="0.950" y="4.100" width="1.600" height="0.300" rx="0.000" fill="#c79b5c"/><rect x="1.450" y="4.100" width="1.600" height="0.300" rx="0.000" fill="#c79b5c"/><rect x="1.950" y="4.100" width="1.600" height="0.300" rx="0.000" fill="#c79b5c"/><rect x="3.450" y="2.600" width="1.600" height="0.300" rx="0.000" fill="#c79b5c"/><rect x="3.450" y="2.100" width="1.600" height="0.300" rx="0.000" fill="#c79b5c"/><rect x="3.450" y="1.600" width="1.600" height="0.300" rx="0.000" fill="#c79b5c"/><rect x="3.450" y="1.100" width="1.600" height="0.300" rx="0.000" fill="#c79b5c"/><rect x="3.450" y="0.600" width="1.600" height="0.300" rx="0.000" fill="#c79b5c"/><rect x="3.450" y="0.100" width="1.600" height="0.300" rx="0.000" fill="#c79b5c"/><rect x="3.450" y="-0.400" width="1.600" height="0.300" rx="0.000" fill="#c79b5c"/><rect x="3.450" y="-0.900" width="1.600" height="0.300" rx="0.000" fill="#c79b5c"/><rect x="3.450" y="-1.400" width="1.600" height="0.300" rx="0.000" fill="#c79b5c"/><rect x="3.450" y="-1.900" width="1.600" height="0.300" rx="0.000" fill="#c79b5c"/><rect x="3.450" y="-2.400" width="1.600" height="0.300" rx="0.000" fill="#c79b5c"/><rect x="3.450" y="-2.900" width="1.600" height="0.300" rx="0.000" fill="#c79b5c"/><rect x="1.950" y="-4.400" width="1.600" height="0.300" rx="0.000" fill="#c79b5c"/><rect x="1.450" y="-4.400" width="1.600" height="0.300" rx="0.000" fill="#c79b5c"/><rect x="0.950" y="-4.400" width="1.600" height="0.300" rx="0.000" fill="#c79b5c"/><rect x="0.450" y="-4.400" width="1.600" height="0.300" rx="0.000" fill="#c79b5c"/><rect x="-0.050" y="-4.400" width="1.600" height="0.300" rx="0.000" fill="#c79b5c"/><rect x="-0.550" y="-4.400" width="1.600" height="0.300" rx="0.000" fill="#c79b5c"/><rect x="-1.050" y="-4.400" width="1.600" height="0.300" rx="0.000" fill="#c79b5c"/><rect x="-1.550" y="-4.400" width="1.600" height="0.300" rx="0.000" fill="#c79b5c"/><rect x="-2.050" y="-4.400" width="1.600" height="0.300" rx="0.000" fill="#c79b5c"/><rect x="-2.550" y="-4.400" width="1.600" height="0.300" rx="0.000" fill="#c79b5c"/><rect x="-3.050" y="-4.400" width="1.600" height="0.300" rx="0.000" fill="#c79b5c"/><rect x="-3.550" y="-4.400" width="1.600" height="0.300" rx="0.000" fill="#c79b5c"/></svg>