<svg xmlns="http://www.w3.org/2000/svg" viewBox="-1.80 -56.20 28.50 58.00" preserveAspectRatio="xMidYMid meet" style="width:100%;height:100%"><rect x="-1.80" y="-56.20" width="28.50" height="58.00" fill="#12151c"/><path d="M 1.965 -51.149 A 0.824 0.824 0 0 1 2.640 -51.500" fill="none" stroke="#e6e9ef" stroke-width="0.12" opacity="1"/><path d="M 2.252 -50.948 A 0.474 0.474 0 0 1 2.640 -51.150" fill="none" stroke="#e6e9ef" stroke-width="0.12" opacity="1"/><path d="M 7.023 -51.502 A 0.150 0.150 0 0 1 7.000 -51.500" fill="none" stroke="#e6e9ef" stroke-width="0.12" opacity="1"/><path d="M 7.078 -51.156 A 0.500 0.500 0 0 1 7.000 -51.150" fill="none" stroke="#e6e9ef" stroke-width="0.12" opacity="1"/><path d="M 7.922 -51.644 A 0.500 0.500 0 0 1 8.000 -51.650" fill="none" stroke="#e6e9ef" stroke-width="0.12" opacity="1"/><path d="M 7.977 -51.298 A 0.150 0.150 0 0 1 8.000 -51.300" fill="none" stroke="#e6e9ef" stroke-width="0.12" opacity="1"/><path d="M 17.000 -51.650 A 0.500 0.500 0 0 1 17.078 -51.644" fill="none" stroke="#e6e9ef" stroke-width="0.12" opacity="1"/><path d="M 17.000 -51.300 A 0.150 0.150 0 0 1 17.023 -51.298" fill="none" stroke="#e6e9ef" stroke-width="0.12" opacity="1"/><path d="M 18.000 -51.500 A 0.150 0.150 0 0 1 17.977 -51.502" fill="none" stroke="#e6e9ef" stroke-width="0.12" opacity="1"/><path d="M 18.000 -51.150 A 0.500 0.500 0 0 1 17.922 -51.156" fill="none" stroke="#e6e9ef" stroke-width="0.12" opacity="1"/><path d="M 22.360 -51.500 A 0.824 0.824 0 0 1 23.035 -51.149" fill="none" stroke="#e6e9ef" stroke-width="0.12" opacity="1"/><path d="M 22.360 -51.150 A 0.474 0.474 0 0 1 22.748 -50.948" fill="none" stroke="#e6e9ef" stroke-width="0.12" opacity="1"/><path d="M 0.699 -47.514 A 0.350 0.350 0 0 1 0.153 -47.951" fill="none" stroke="#6b7280" stroke-width="0.12" opacity="0.8"/><path d="M 0.920 -47.312 A 0.650 0.650 0 0 1 -0.092 -48.123" fill="none" stroke="#6b7280" stroke-width="0.12" opacity="0.8"/><path d="M 0.957 -47.278 A 0.700 0.700 0 0 1 -0.133 -48.152" fill="none" stroke="#6b7280" stroke-width="0.12" opacity="0.8"/><path d="M 1.965 -51.149 A 0.824 0.824 0 0 1 2.640 -51.500" fill="none" stroke="#6b7280" stroke-width="0.12" opacity="0.8"/><path d="M 2.252 -50.948 A 0.474 0.474 0 0 1 2.640 -51.150" fill="none" stroke="#6b7280" stroke-width="0.12" opacity="0.8"/><path d="M 2.950 -47.100 A 0.150 0.150 0 0 1 3.100 -46.950" fill="none" stroke="#6b7280" stroke-width="0.12" opacity="0.8"/><path d="M 3.100 -45.500 A 0.150 0.150 0 0 1 2.950 -45.350" fill="none" stroke="#6b7280" stroke-width="0.12" opacity="0.8"/><path d="M 7.023 -51.502 A 0.150 0.150 0 0 1 7.000 -51.500" fill="none" stroke="#6b7280" stroke-width="0.12" opacity="0.8"/><path d="M 7.078 -51.156 A 0.500 0.500 0 0 1 7.000 -51.150" fill="none" stroke="#6b7280" stroke-width="0.12" opacity="0.8"/><path d="M 7.922 -51.644 A 0.500 0.500 0 0 1 8.000 -51.650" fill="none" stroke="#6b7280" stroke-width="0.12" opacity="0.8"/><path d="M 7.977 -51.298 A 0.150 0.150 0 0 1 8.000 -51.300" fill="none" stroke="#6b7280" stroke-width="0.12" opacity="0.8"/><path d="M 11.250 -54.550 A 0.150 0.150 0 0 1 11.400 -54.700" fill="none" stroke="#6b7280" stroke-width="0.12" opacity="0.8"/><path d="M 13.600 -54.700 A 0.150 0.150 0 0 1 13.750 -54.550" fill="none" stroke="#6b7280" stroke-width="0.12" opacity="0.8"/><path d="M 17.000 -51.650 A 0.500 0.500 0 0 1 17.078 -51.644" fill="none" stroke="#6b7280" stroke-width="0.12" opacity="0.8"/><path d="M 17.000 -51.300 A 0.150 0.150 0 0 1 17.023 -51.298" fill="none" stroke="#6b7280" stroke-width="0.12" opacity="0.8"/><path d="M 18.000 -51.500 A 0.150 0.150 0 0 1 17.977 -51.502" fill="none" stroke="#6b7280" stroke-width="0.12" opacity="0.8"/><path d="M 18.000 -51.150 A 0.500 0.500 0 0 1 17.922 -51.156" fill="none" stroke="#6b7280" stroke-width="0.12" opacity="0.8"/><path d="M 21.900 -46.950 A 0.150 0.150 0 0 1 22.050 -47.100" fill="none" stroke="#6b7280" stroke-width="0.12" opacity="0.8"/><path d="M 22.050 -45.350 A 0.150 0.150 0 0 1 21.900 -45.500" fill="none" stroke="#6b7280" stroke-width="0.12" opacity="0.8"/><path d="M 22.360 -51.500 A 0.824 0.824 0 0 1 23.035 -51.149" fill="none" stroke="#6b7280" stroke-width="0.12" opacity="0.8"/><path d="M 22.360 -51.150 A 0.474 0.474 0 0 1 22.748 -50.948" fill="none" stroke="#6b7280" stroke-width="0.12" opacity="0.8"/><path d="M 24.847 -47.951 A 0.350 0.350 0 0 1 24.301 -47.514" fill="none" stroke="#6b7280" stroke-width="0.12" opacity="0.8"/><path d="M 25.092 -48.123 A 0.650 0.650 0 0 1 24.080 -47.312" fill="none" stroke="#6b7280" stroke-width="0.12" opacity="0.8"/><path d="M 25.133 -48.152 A 0.700 0.700 0 0 1 24.043 -47.278" fill="none" stroke="#6b7280" stroke-width="0.12" opacity="0.8"/><rect x="-0.700" y="-49.700" width="2.200" height="2.200" rx="1.100" fill="#c79b5c"/><circle cx="0.400" cy="-48.600" r="0.750" fill="#12151c"/><rect x="-0.350" y="-48.600" width="3.650" height="1.300" rx="0.000" fill="#c79b5c"/><rect x="-0.350" y="-47.300" width="3.650" height="2.150" rx="0.000" fill="#c79b5c"/><rect x="10.750" y="-55.200" width="3.500" height="4.200" rx="0.000" fill="#c79b5c"/><rect x="21.700" y="-48.600" width="3.650" height="1.300" rx="0.000" fill="#c79b5c"/><rect x="21.700" y="-47.300" width="3.650" height="2.150" rx="0.000" fill="#c79b5c"/><rect x="23.500" y="-49.700" width="2.200" height="2.200" rx="1.100" fill="#c79b5c"/><circle cx="24.600" cy="-48.600" r="0.750" fill="#12151c"/></svg>