<svg xmlns="http://www.w3.org/2000/svg" viewBox="-27.79 -8.67 55.56 16.05" preserveAspectRatio="xMidYMid meet" style="width:100%;height:100%"><rect x="-27.79" y="-8.67" width="55.56" height="16.05" fill="#12151c"/><line x1="-26.535" y1="-1.383" x2="-26.535" y2="-5.120" stroke="#e6e9ef" stroke-width="0.200" stroke-linecap="round" opacity="1"/><line x1="-26.535" y1="4.830" x2="-26.535" y2="1.093" stroke="#e6e9ef" stroke-width="0.200" stroke-linecap="round" opacity="1"/><line x1="-25.235" y1="-6.420" x2="25.220" y2="-6.420" stroke="#e6e9ef" stroke-width="0.200" stroke-linecap="round" opacity="1"/><line x1="-25.235" y1="6.130" x2="25.220" y2="6.130" stroke="#e6e9ef" stroke-width="0.200" stroke-linecap="round" opacity="1"/><line x1="-19.827" y1="-1.833" x2="-19.450" y2="-1.833" stroke="#e6e9ef" stroke-width="0.200" stroke-linecap="round" opacity="1"/><line x1="-19.827" y1="-1.833" x2="-19.075" y2="2.597" stroke="#e6e9ef" stroke-width="0.200" stroke-linecap="round" opacity="1"/><line x1="-19.450" y1="-1.833" x2="-18.681" y2="2.527" stroke="#e6e9ef" stroke-width="0.200" stroke-linecap="round" opacity="1"/><line x1="-19.075" y1="2.597" x2="-18.681" y2="2.527" stroke="#e6e9ef" stroke-width="0.200" stroke-linecap="round" opacity="1"/><line x1="-17.480" y1="-4.580" x2="17.480" y2="-4.580" stroke="#e6e9ef" stroke-width="0.200" stroke-linecap="round" opacity="1"/><line x1="-17.480" y1="-4.180" x2="-17.480" y2="-4.580" stroke="#e6e9ef" stroke-width="0.200" stroke-linecap="round" opacity="1"/><line x1="-17.480" y1="-4.180" x2="17.480" y2="-4.180" stroke="#e6e9ef" stroke-width="0.200" stroke-linecap="round" opacity="1"/><line x1="-16.711" y1="4.180" x2="16.711" y2="4.180" stroke="#e6e9ef" stroke-width="0.200" stroke-linecap="round" opacity="1"/><line x1="-16.711" y1="4.580" x2="-16.711" y2="4.220" stroke="#e6e9ef" stroke-width="0.200" stroke-linecap="round" opacity="1"/><line x1="-16.711" y1="4.580" x2="16.711" y2="4.580" stroke="#e6e9ef" stroke-width="0.200" stroke-linecap="round" opacity="1"/><line x1="16.711" y1="4.180" x2="16.711" y2="4.580" stroke="#e6e9ef" stroke-width="0.200" stroke-linecap="round" opacity="1"/><line x1="17.480" y1="-4.180" x2="17.480" y2="-4.580" stroke="#e6e9ef" stroke-width="0.200" stroke-linecap="round" opacity="1"/><line x1="18.681" y1="2.527" x2="19.075" y2="2.597" stroke="#e6e9ef" stroke-width="0.200" stroke-linecap="round" opacity="1"/><line x1="18.681" y1="2.527" x2="19.450" y2="-1.833" stroke="#e6e9ef" stroke-width="0.200" stroke-linecap="round" opacity="1"/><line x1="19.075" y1="2.597" x2="19.844" y2="-1.763" stroke="#e6e9ef" stroke-width="0.200" stroke-linecap="round" opacity="1"/><line x1="19.450" y1="-1.833" x2="19.844" y2="-1.763" stroke="#e6e9ef" stroke-width="0.200" stroke-linecap="round" opacity="1"/><line x1="26.520" y1="-1.383" x2="26.520" y2="-5.120" stroke="#e6e9ef" stroke-width="0.200" stroke-linecap="round" opacity="1"/><line x1="26.520" y1="4.830" x2="26.520" y2="1.093" stroke="#e6e9ef" stroke-width="0.200" stroke-linecap="round" opacity="1"/><line x1="-24.030" y1="-0.145" x2="-23.530" y2="-0.145" stroke="#4a5160" stroke-width="0.080" stroke-linecap="round" opacity="0.7"/><line x1="-23.530" y1="-0.145" x2="-23.530" y2="-0.645" stroke="#4a5160" stroke-width="0.080" stroke-linecap="round" opacity="0.7"/><line x1="-23.530" y1="-0.145" x2="-23.030" y2="-0.145" stroke="#4a5160" stroke-width="0.080" stroke-linecap="round" opacity="0.7"/><line x1="-23.530" y1="0.355" x2="-23.530" y2="-0.145" stroke="#4a5160" stroke-width="0.080" stroke-linecap="round" opacity="0.7"/><line x1="-17.120" y1="-1.420" x2="-16.620" y2="-1.420" stroke="#4a5160" stroke-width="0.080" stroke-linecap="round" opacity="0.7"/><line x1="-16.620" y1="-1.420" x2="-16.620" y2="-1.920" stroke="#4a5160" stroke-width="0.080" stroke-linecap="round" opacity="0.7"/><line x1="-16.620" y1="-1.420" x2="-16.120" y2="-1.420" stroke="#4a5160" stroke-width="0.080" stroke-linecap="round" opacity="0.7"/><line x1="-16.620" y1="-0.920" x2="-16.620" y2="-1.420" stroke="#4a5160" stroke-width="0.080" stroke-linecap="round" opacity="0.7"/><line x1="-15.735" y1="1.420" x2="-15.235" y2="1.420" stroke="#4a5160" stroke-width="0.080" stroke-linecap="round" opacity="0.7"/><line x1="-15.235" y1="1.420" x2="-15.235" y2="0.920" stroke="#4a5160" stroke-width="0.080" stroke-linecap="round" opacity="0.7"/><line x1="-15.235" y1="1.420" x2="-14.735" y2="1.420" stroke="#4a5160" stroke-width="0.080" stroke-linecap="round" opacity="0.7"/><line x1="-15.235" y1="1.920" x2="-15.235" y2="1.420" stroke="#4a5160" stroke-width="0.080" stroke-linecap="round" opacity="0.7"/><line x1="-14.350" y1="-1.420" x2="-13.850" y2="-1.420" stroke="#4a5160" stroke-width="0.080" stroke-linecap="round" opacity="0.7"/><line x1="-13.850" y1="-1.420" x2="-13.850" y2="-1.920" stroke="#4a5160" stroke-width="0.080" stroke-linecap="round" opacity="0.7"/><line x1="-13.850" y1="-1.420" x2="-13.350" y2="-1.420" stroke="#4a5160" stroke-width="0.080" stroke-linecap="round" opacity="0.7"/><line x1="-13.850" y1="-0.920" x2="-13.850" y2="-1.420" stroke="#4a5160" stroke-width="0.080" stroke-linecap="round" opacity="0.7"/><line x1="-12.965" y1="1.420" x2="-12.465" y2="1.420" stroke="#4a5160" stroke-width="0.080" stroke-linecap="round" opacity="0.7"/><line x1="-12.465" y1="1.420" x2="-12.465" y2="0.920" stroke="#4a5160" stroke-width="0.080" stroke-linecap="round" opacity="0.7"/><line x1="-12.465" y1="1.420" x2="-11.965" y2="1.420" stroke="#4a5160" stroke-width="0.080" stroke-linecap="round" opacity="0.7"/><line x1="-12.465" y1="1.920" x2="-12.465" y2="1.420" stroke="#4a5160" stroke-width="0.080" stroke-linecap="round" opacity="0.7"/><line x1="-11.580" y1="-1.420" x2="-11.080" y2="-1.420" stroke="#4a5160" stroke-width="0.080" stroke-linecap="round" opacity="0.7"/><line x1="-11.080" y1="-1.420" x2="-11.080" y2="-1.920" stroke="#4a5160" stroke-width="0.080" stroke-linecap="round" opacity="0.7"/><line x1="-11.080" y1="-1.420" x2="-10.580" y2="-1.420" stroke="#4a5160" stroke-width="0.080" stroke-linecap="round" opacity="0.7"/><line x1="-11.080" y1="-0.920" x2="-11.080" y2="-1.420" stroke="#4a5160" stroke-width="0.080" stroke-linecap="round" opacity="0.7"/><line x1="-10.195" y1="1.420" x2="-9.695" y2="1.420" stroke="#4a5160" stroke-width="0.080" stroke-linecap="round" opacity="0.7"/><line x1="-9.695" y1="1.420" x2="-9.695" y2="0.920" stroke="#4a5160" stroke-width="0.080" stroke-linecap="round" opacity="0.7"/><line x1="-9.695" y1="1.420" x2="-9.195" y2="1.420" stroke="#4a5160" stroke-width="0.080" stroke-linecap="round" opacity="0.7"/><line x1="-9.695" y1="1.920" x2="-9.695" y2="1.420" stroke="#4a5160" stroke-width="0.080" stroke-linecap="round" opacity="0.7"/><line x1="-8.810" y1="-1.420" x2="-8.310" y2="-1.420" stroke="#4a5160" stroke-width="0.080" stroke-linecap="round" opacity="0.7"/><line x1="-8.310" y1="-1.420" x2="-8.310" y2="-1.920" stroke="#4a5160" stroke-width="0.080" stroke-linecap="round" opacity="0.7"/><line x1="-8.310" y1="-1.420" x2="-7.810" y2="-1.420" stroke="#4a5160" stroke-width="0.080" stroke-linecap="round" opacity="0.7"/><line x1="-8.310" y1="-0.920" x2="-8.310" y2="-1.420" stroke="#4a5160" stroke-width="0.080" stroke-linecap="round" opacity="0.7"/><line x1="-7.425" y1="1.420" x2="-6.925" y2="1.420" stroke="#4a5160" stroke-width="0.080" stroke-linecap="round" opacity="0.7"/><line x1="-6.925" y1="1.420" x2="-6.925" y2="0.920" stroke="#4a5160" stroke-width="0.080" stroke-linecap="round" opacity="0.7"/><line x1="-6.925" y1="1.420" x2="-6.425" y2="1.420" stroke="#4a5160" stroke-width="0.080" stroke-linecap="round" opacity="0.7"/><line x1="-6.925" y1="1.920" x2="-6.925" y2="1.420" stroke="#4a5160" stroke-width="0.080" stroke-linecap="round" opacity="0.7"/><line x1="-6.040" y1="-1.420" x2="-5.540" y2="-1.420" stroke="#4a5160" stroke-width="0.080" stroke-linecap="round" opacity="0.7"/><line x1="-5.540" y1="-1.420" x2="-5.540" y2="-1.920" stroke="#4a5160" stroke-width="0.080" stroke-linecap="round" opacity="0.7"/><line x1="-5.540" y1="-1.420" x2="-5.040" y2="-1.420" stroke="#4a5160" stroke-width="0.080" stroke-linecap="round" opacity="0.7"/><line x1="-5.540" y1="-0.920" x2="-5.540" y2="-1.420" stroke="#4a5160" stroke-width="0.080" stroke-linecap="round" opacity="0.7"/><line x1="-4.655" y1="1.420" x2="-4.155" y2="1.420" stroke="#4a5160" stroke-width="0.080" stroke-linecap="round" opacity="0.7"/><line x1="-4.155" y1="1.420" x2="-4.155" y2="0.920" stroke="#4a5160" stroke-width="0.080" stroke-linecap="round" opacity="0.7"/><line x1="-4.155" y1="1.420" x2="-3.655" y2="1.420" stroke="#4a5160" stroke-width="0.080" stroke-linecap="round" opacity="0.7"/><line x1="-4.155" y1="1.920" x2="-4.155" y2="1.420" stroke="#4a5160" stroke-width="0.080" stroke-linecap="round" opacity="0.7"/><line x1="-3.270" y1="-1.420" x2="-2.770" y2="-1.420" stroke="#4a5160" stroke-width="0.080" stroke-linecap="round" opacity="0.7"/><line x1="-2.770" y1="-1.420" x2="-2.770" y2="-1.920" stroke="#4a5160" stroke-width="0.080" stroke-linecap="round" opacity="0.7"/><line x1="-2.770" y1="-1.420" x2="-2.270" y2="-1.420" stroke="#4a5160" stroke-width="0.080" stroke-linecap="round" opacity="0.7"/><line x1="-2.770" y1="-0.920" x2="-2.770" y2="-1.420" stroke="#4a5160" stroke-width="0.080" stroke-linecap="round" opacity="0.7"/><line x1="-1.885" y1="1.420" x2="-1.385" y2="1.420" stroke="#4a5160" stroke-width="0.080" stroke-linecap="round" opacity="0.7"/><line x1="-1.385" y1="1.420" x2="-1.385" y2="0.920" stroke="#4a5160" stroke-width="0.080" stroke-linecap="round" opacity="0.7"/><line x1="-1.385" y1="1.420" x2="-0.885" y2="1.420" stroke="#4a5160" stroke-width="0.080" stroke-linecap="round" opacity="0.7"/><line x1="-1.385" y1="1.920" x2="-1.385" y2="1.420" stroke="#4a5160" stroke-width="0.080" stroke-linecap="round" opacity="0.7"/><line x1="-0.500" y1="-1.420" x2="0.000" y2="-1.420" stroke="#4a5160" stroke-width="0.080" stroke-linecap="round" opacity="0.7"/><line x1="-0.500" y1="0.000" x2="0.000" y2="0.000" stroke="#4a5160" stroke-width="0.080" stroke-linecap="round" opacity="0.7"/><line x1="0.000" y1="-1.420" x2="0.000" y2="-1.920" stroke="#4a5160" stroke-width="0.080" stroke-linecap="round" opacity="0.7"/><line x1="0.000" y1="-1.420" x2="0.500" y2="-1.420" stroke="#4a5160" stroke-width="0.080" stroke-linecap="round" opacity="0.7"/><line x1="0.000" y1="-0.920" x2="0.000" y2="-1.420" stroke="#4a5160" stroke-width="0.080" stroke-linecap="round" opacity="0.7"/><line x1="0.000" y1="0.000" x2="0.000" y2="-0.500" stroke="#4a5160" stroke-width="0.080" stroke-linecap="round" opacity="0.7"/><line x1="0.000" y1="0.000" x2="0.500" y2="0.000" stroke="#4a5160" stroke-width="0.080" stroke-linecap="round" opacity="0.7"/><line x1="0.000" y1="0.500" x2="0.000" y2="0.000" stroke="#4a5160" stroke-width="0.080" stroke-linecap="round" opacity="0.7"/><line x1="0.885" y1="1.420" x2="1.385" y2="1.420" stroke="#4a5160" stroke-width="0.080" stroke-linecap="round" opacity="0.7"/><line x1="1.385" y1="1.420" x2="1.385" y2="0.920" stroke="#4a5160" stroke-width="0.080" stroke-linecap="round" opacity="0.7"/><line x1="1.385" y1="1.420" x2="1.885" y2="1.420" stroke="#4a5160" stroke-width="0.080" stroke-linecap="round" opacity="0.7"/><line x1="1.385" y1="1.920" x2="1.385" y2="1.420" stroke="#4a5160" stroke-width="0.080" stroke-linecap="round" opacity="0.7"/><line x1="2.270" y1="-1.420" x2="2.770" y2="-1.420" stroke="#4a5160" stroke-width="0.080" stroke-linecap="round" opacity="0.7"/><line x1="2.770" y1="-1.420" x2="2.770" y2="-1.920" stroke="#4a5160" stroke-width="0.080" stroke-linecap="round" opacity="0.7"/><line x1="2.770" y1="-1.420" x2="3.270" y2="-1.420" stroke="#4a5160" stroke-width="0.080" stroke-linecap="round" opacity="0.7"/><line x1="2.770" y1="-0.920" x2="2.770" y2="-1.420" stroke="#4a5160" stroke-width="0.080" stroke-linecap="round" opacity="0.7"/><line x1="3.655" y1="1.420" x2="4.155" y2="1.420" stroke="#4a5160" stroke-width="0.080" stroke-linecap="round" opacity="0.7"/><line x1="4.155" y1="1.420" x2="4.155" y2="0.920" stroke="#4a5160" stroke-width="0.080" stroke-linecap="round" opacity="0.7"/><line x1="4.155" y1="1.420" x2="4.655" y2="1.420" stroke="#4a5160" stroke-width="0.080" stroke-linecap="round" opacity="0.7"/><line x1="4.155" y1="1.920" x2="4.155" y2="1.420" stroke="#4a5160" stroke-width="0.080" stroke-linecap="round" opacity="0.7"/><line x1="5.040" y1="-1.420" x2="5.540" y2="-1.420" stroke="#4a5160" stroke-width="0.080" stroke-linecap="round" opacity="0.7"/><line x1="5.540" y1="-1.420" x2="5.540" y2="-1.920" stroke="#4a5160" stroke-width="0.080" stroke-linecap="round" opacity="0.7"/><line x1="5.540" y1="-1.420" x2="6.040" y2="-1.420" stroke="#4a5160" stroke-width="0.080" stroke-linecap="round" opacity="0.7"/><line x1="5.540" y1="-0.920" x2="5.540" y2="-1.420" stroke="#4a5160" stroke-width="0.080" stroke-linecap="round" opacity="0.7"/><line x1="6.425" y1="1.420" x2="6.925" y2="1.420" stroke="#4a5160" stroke-width="0.080" stroke-linecap="round" opacity="0.7"/><line x1="6.925" y1="1.420" x2="6.925" y2="0.920" stroke="#4a5160" stroke-width="0.080" stroke-linecap="round" opacity="0.7"/><line x1="6.925" y1="1.420" x2="7.425" y2="1.420" stroke="#4a5160" stroke-width="0.080" stroke-linecap="round" opacity="0.7"/><line x1="6.925" y1="1.920" x2="6.925" y2="1.420" stroke="#4a5160" stroke-width="0.080" stroke-linecap="round" opacity="0.7"/><line x1="7.810" y1="-1.420" x2="8.310" y2="-1.420" stroke="#4a5160" stroke-width="0.080" stroke-linecap="round" opacity="0.7"/><line x1="8.310" y1="-1.420" x2="8.310" y2="-1.920" stroke="#4a5160" stroke-width="0.080" stroke-linecap="round" opacity="0.7"/><line x1="8.310" y1="-1.420" x2="8.810" y2="-1.420" stroke="#4a5160" stroke-width="0.080" stroke-linecap="round" opacity="0.7"/><line x1="8.310" y1="-0.920" x2="8.310" y2="-1.420" stroke="#4a5160" stroke-width="0.080" stroke-linecap="round" opacity="0.7"/><line x1="9.195" y1="1.420" x2="9.695" y2="1.420" stroke="#4a5160" stroke-width="0.080" stroke-linecap="round" opacity="0.7"/><line x1="9.695" y1="1.420" x2="9.695" y2="0.920" stroke="#4a5160" stroke-width="0.080" stroke-linecap="round" opacity="0.7"/><line x1="9.695" y1="1.420" x2="10.195" y2="1.420" stroke="#4a5160" stroke-width="0.080" stroke-linecap="round" opacity="0.7"/><line x1="9.695" y1="1.920" x2="9.695" y2="1.420" stroke="#4a5160" stroke-width="0.080" stroke-linecap="round" opacity="0.7"/><line x1="10.580" y1="-1.420" x2="11.080" y2="-1.420" stroke="#4a5160" stroke-width="0.080" stroke-linecap="round" opacity="0.7"/><line x1="11.080" y1="-1.420" x2="11.080" y2="-1.920" stroke="#4a5160" stroke-width="0.080" stroke-linecap="round" opacity="0.7"/><line x1="11.080" y1="-1.420" x2="11.580" y2="-1.420" stroke="#4a5160" stroke-width="0.080" stroke-linecap="round" opacity="0.7"/><line x1="11.080" y1="-0.920" x2="11.080" y2="-1.420" stroke="#4a5160" stroke-width="0.080" stroke-linecap="round" opacity="0.7"/><line x1="11.965" y1="1.420" x2="12.465" y2="1.420" stroke="#4a5160" stroke-width="0.080" stroke-linecap="round" opacity="0.7"/><line x1="12.465" y1="1.420" x2="12.465" y2="0.920" stroke="#4a5160" stroke-width="0.080" stroke-linecap="round" opacity="0.7"/><line x1="12.465" y1="1.420" x2="12.965" y2="1.420" stroke="#4a5160" stroke-width="0.080" stroke-linecap="round" opacity="0.7"/><line x1="12.465" y1="1.920" x2="12.465" y2="1.420" stroke="#4a5160" stroke-width="0.080" stroke-linecap="round" opacity="0.7"/><line x1="13.350" y1="-1.420" x2="13.850" y2="-1.420" stroke="#4a5160" stroke-width="0.080" stroke-linecap="round" opacity="0.7"/><line x1="13.850" y1="-1.420" x2="13.850" y2="-1.920" stroke="#4a5160" stroke-width="0.080" stroke-linecap="round" opacity="0.7"/><line x1="13.850" y1="-1.420" x2="14.350" y2="-1.420" stroke="#4a5160" stroke-width="0.080" stroke-linecap="round" opacity="0.7"/><line x1="13.850" y1="-0.920" x2="13.850" y2="-1.420" stroke="#4a5160" stroke-width="0.080" stroke-linecap="round" opacity="0.7"/><line x1="14.735" y1="1.420" x2="15.235" y2="1.420" stroke="#4a5160" stroke-width="0.080" stroke-linecap="round" opacity="0.7"/><line x1="15.235" y1="1.420" x2="15.235" y2="0.920" stroke="#4a5160" stroke-width="0.080" stroke-linecap="round" opacity="0.7"/><line x1="15.235" y1="1.420" x2="15.735" y2="1.420" stroke="#4a5160" stroke-width="0.080" stroke-linecap="round" opacity="0.7"/><line x1="15.235" y1="1.920" x2="15.235" y2="1.420" stroke="#4a5160" stroke-width="0.080" stroke-linecap="round" opacity="0.7"/><line x1="16.120" y1="-1.420" x2="16.620" y2="-1.420" stroke="#4a5160" stroke-width="0.080" stroke-linecap="round" opacity="0.7"/><line x1="16.620" y1="-1.420" x2="16.620" y2="-1.920" stroke="#4a5160" stroke-width="0.080" stroke-linecap="round" opacity="0.7"/><line x1="16.620" y1="-1.420" x2="17.120" y2="-1.420" stroke="#4a5160" stroke-width="0.080" stroke-linecap="round" opacity="0.7"/><line x1="16.620" y1="-0.920" x2="16.620" y2="-1.420" stroke="#4a5160" stroke-width="0.080" stroke-linecap="round" opacity="0.7"/><line x1="23.010" y1="-0.145" x2="23.510" y2="-0.145" stroke="#4a5160" stroke-width="0.080" stroke-linecap="round" opacity="0.7"/><line x1="23.510" y1="-0.145" x2="23.510" y2="-0.645" stroke="#4a5160" stroke-width="0.080" stroke-linecap="round" opacity="0.7"/><line x1="23.510" y1="-0.145" x2="24.010" y2="-0.145" stroke="#4a5160" stroke-width="0.080" stroke-linecap="round" opacity="0.7"/><line x1="23.510" y1="0.355" x2="23.510" y2="-0.145" stroke="#4a5160" stroke-width="0.080" stroke-linecap="round" opacity="0.7"/><line x1="-26.535" y1="4.830" x2="-26.535" y2="-5.120" stroke="#6b7280" stroke-width="0.100" stroke-linecap="round" opacity="0.8"/><line x1="-26.272" y1="-0.145" x2="-24.901" y2="-2.520" stroke="#6b7280" stroke-width="0.100" stroke-linecap="round" opacity="0.8"/><line x1="-26.272" y1="-0.145" x2="-24.901" y2="2.230" stroke="#6b7280" stroke-width="0.100" stroke-linecap="round" opacity="0.8"/><line x1="-25.235" y1="-6.420" x2="25.220" y2="-6.420" stroke="#6b7280" stroke-width="0.100" stroke-linecap="round" opacity="0.8"/><line x1="-25.235" y1="6.130" x2="25.220" y2="6.130" stroke="#6b7280" stroke-width="0.100" stroke-linecap="round" opacity="0.8"/><line x1="-24.901" y1="-2.520" x2="-22.159" y2="-2.520" stroke="#6b7280" stroke-width="0.100" stroke-linecap="round" opacity="0.8"/><line x1="-24.901" y1="2.230" x2="-22.159" y2="2.230" stroke="#6b7280" stroke-width="0.100" stroke-linecap="round" opacity="0.8"/><line x1="-22.159" y1="-2.520" x2="-20.788" y2="-0.145" stroke="#6b7280" stroke-width="0.100" stroke-linecap="round" opacity="0.8"/><line x1="-22.159" y1="2.230" x2="-20.788" y2="-0.145" stroke="#6b7280" stroke-width="0.100" stroke-linecap="round" opacity="0.8"/><line x1="-19.827" y1="-1.833" x2="-19.450" y2="-1.833" stroke="#6b7280" stroke-width="0.100" stroke-linecap="round" opacity="0.8"/><line x1="-19.827" y1="-1.833" x2="-19.075" y2="2.597" stroke="#6b7280" stroke-width="0.100" stroke-linecap="round" opacity="0.8"/><line x1="-19.450" y1="-1.833" x2="-18.681" y2="2.527" stroke="#6b7280" stroke-width="0.100" stroke-linecap="round" opacity="0.8"/><line x1="-19.075" y1="2.597" x2="-18.681" y2="2.527" stroke="#6b7280" stroke-width="0.100" stroke-linecap="round" opacity="0.8"/><line x1="-17.480" y1="-4.580" x2="17.480" y2="-4.580" stroke="#6b7280" stroke-width="0.100" stroke-linecap="round" opacity="0.8"/><line x1="-17.480" y1="-4.180" x2="-17.480" y2="-4.580" stroke="#6b7280" stroke-width="0.100" stroke-linecap="round" opacity="0.8"/><line x1="-17.480" y1="-4.180" x2="17.480" y2="-4.180" stroke="#6b7280" stroke-width="0.100" stroke-linecap="round" opacity="0.8"/><line x1="-16.711" y1="4.180" x2="16.711" y2="4.180" stroke="#6b7280" stroke-width="0.100" stroke-linecap="round" opacity="0.8"/><line x1="-16.711" y1="4.580" x2="-16.711" y2="4.220" stroke="#6b7280" stroke-width="0.100" stroke-linecap="round" opacity="0.8"/><line x1="-16.711" y1="4.580" x2="16.711" y2="4.580" stroke="#6b7280" stroke-width="0.100" stroke-linecap="round" opacity="0.8"/><line x1="16.711" y1="4.180" x2="16.711" y2="4.580" stroke="#6b7280" stroke-width="0.100" stroke-linecap="round" opacity="0.8"/><line x1="17.480" y1="-4.180" x2="17.480" y2="-4.580" stroke="#6b7280" stroke-width="0.100" stroke-linecap="round" opacity="0.8"/><line x1="18.681" y1="2.527" x2="19.075" y2="2.597" stroke="#6b7280" stroke-width="0.100" stroke-linecap="round" opacity="0.8"/><line x1="18.681" y1="2.527" x2="19.450" y2="-1.833" stroke="#6b7280" stroke-width="0.100" stroke-linecap="round" opacity="0.8"/><line x1="19.075" y1="2.597" x2="19.844" y2="-1.763" stroke="#6b7280" stroke-width="0.100" stroke-linecap="round" opacity="0.8"/><line x1="19.450" y1="-1.833" x2="19.844" y2="-1.763" stroke="#6b7280" stroke-width="0.100" stroke-linecap="round" opacity="0.8"/><line x1="20.768" y1="-0.145" x2="22.139" y2="-2.520" stroke="#6b7280" stroke-width="0.100" stroke-linecap="round" opacity="0.8"/><line x1="20.768" y1="-0.145" x2="22.139" y2="2.230" stroke="#6b7280" stroke-width="0.100" stroke-linecap="round" opacity="0.8"/><line x1="22.139" y1="-2.520" x2="24.881" y2="-2.520" stroke="#6b7280" stroke-width="0.100" stroke-linecap="round" opacity="0.8"/><line x1="22.139" y1="2.230" x2="24.881" y2="2.230" stroke="#6b7280" stroke-width="0.100" stroke-linecap="round" opacity="0.8"/><line x1="24.881" y1="-2.520" x2="26.252" y2="-0.145" stroke="#6b7280" stroke-width="0.100" stroke-linecap="round" opacity="0.8"/><line x1="24.881" y1="2.230" x2="26.252" y2="-0.145" stroke="#6b7280" stroke-width="0.100" stroke-linecap="round" opacity="0.8"/><line x1="26.520" y1="4.830" x2="26.520" y2="-5.120" stroke="#6b7280" stroke-width="0.100" stroke-linecap="round" opacity="0.8"/><line x1="-26.790" y1="-6.670" x2="26.770" y2="-6.670" stroke="#d24d4d" stroke-width="0.080" stroke-linecap="round" opacity="0.7"/><line x1="26.770" y1="-6.670" x2="26.770" y2="6.380" stroke="#d24d4d" stroke-width="0.080" stroke-linecap="round" opacity="0.7"/><line x1="26.770" y1="6.380" x2="-26.790" y2="6.380" stroke="#d24d4d" stroke-width="0.080" stroke-linecap="round" opacity="0.7"/><line x1="-26.790" y1="6.380" x2="-26.790" y2="-6.670" stroke="#d24d4d" stroke-width="0.080" stroke-linecap="round" opacity="0.7"/><path d="M -26.535 -5.120 A 1.300 1.300 0 0 1 -25.235 -6.420" fill="none" stroke="#e6e9ef" stroke-width="0.12" opacity="1"/><path d="M -25.235 6.130 A 1.300 1.300 0 0 1 -26.535 4.830" fill="none" stroke="#e6e9ef" stroke-width="0.12" opacity="1"/><path d="M -19.844 -1.763 A 2.407 2.407 0 0 1 -17.480 -4.580" fill="none" stroke="#e6e9ef" stroke-width="0.12" opacity="1"/><path d="M -19.450 -1.833 A 2.000 2.000 0 0 1 -17.480 -4.180" fill="none" stroke="#e6e9ef" stroke-width="0.12" opacity="1"/><path d="M -16.711 4.180 A 2.000 2.000 0 0 1 -18.681 2.527" fill="none" stroke="#e6e9ef" stroke-width="0.12" opacity="1"/><path d="M -16.711 4.580 A 2.400 2.400 0 0 1 -19.075 2.597" fill="none" stroke="#e6e9ef" stroke-width="0.12" opacity="1"/><path d="M 17.480 -4.580 A 2.400 2.400 0 0 1 19.844 -1.763" fill="none" stroke="#e6e9ef" stroke-width="0.12" opacity="1"/><path d="M 17.480 -4.180 A 2.000 2.000 0 0 1 19.450 -1.833" fill="none" stroke="#e6e9ef" stroke-width="0.12" opacity="1"/><path d="M 18.681 2.527 A 2.003 2.003 0 0 1 16.711 4.181" fill="none" stroke="#e6e9ef" stroke-width="0.12" opacity="1"/><path d="M 19.075 2.597 A 2.400 2.400 0 0 1 16.711 4.580" fill="none" stroke="#e6e9ef" stroke-width="0.12" opacity="1"/><path d="M 25.220 -6.420 A 1.300 1.300 0 0 1 26.520 -5.120" fill="none" stroke="#e6e9ef" stroke-width="0.12" opacity="1"/><path d="M 26.520 4.830 A 1.300 1.300 0 0 1 25.220 6.130" fill="none" stroke="#e6e9ef" stroke-width="0.12" opacity="1"/><path d="M -26.535 -5.120 A 1.300 1.300 0 0 1 -25.235 -6.420" fill="none" stroke="#6b7280" stroke-width="0.12" opacity="0.8"/><path d="M -25.235 6.130 A 1.300 1.300 0 0 1 -26.535 4.830" fill="none" stroke="#6b7280" stroke-width="0.12" opacity="0.8"/><path d="M -19.844 -1.763 A 2.407 2.407 0 0 1 -17.480 -4.580" fill="none" stroke="#6b7280" stroke-width="0.12" opacity="0.8"/><path d="M -19.450 -1.833 A 2.000 2.000 0 0 1 -17.480 -4.180" fill="none" stroke="#6b7280" stroke-width="0.12" opacity="0.8"/><path d="M -16.711 4.180 A 2.000 2.000 0 0 1 -18.681 2.527" fill="none" stroke="#6b7280" stroke-width="0.12" opacity="0.8"/><path d="M -16.711 4.580 A 2.400 2.400 0 0 1 -19.075 2.597" fill="none" stroke="#6b7280" stroke-width="0.12" opacity="0.8"/><path d="M 17.480 -4.580 A 2.400 2.400 0 0 1 19.844 -1.763" fill="none" stroke="#6b7280" stroke-width="0.12" opacity="0.8"/><path d="M 17.480 -4.180 A 2.000 2.000 0 0 1 19.450 -1.833" fill="none" stroke="#6b7280" stroke-width="0.12" opacity="0.8"/><path d="M 18.681 2.527 A 2.003 2.003 0 0 1 16.711 4.181" fill="none" stroke="#6b7280" stroke-width="0.12" opacity="0.8"/><path d="M 19.075 2.597 A 2.400 2.400 0 0 1 16.711 4.580" fill="none" stroke="#6b7280" stroke-width="0.12" opacity="0.8"/><path d="M 25.220 -6.420 A 1.300 1.300 0 0 1 26.520 -5.120" fill="none" stroke="#6b7280" stroke-width="0.12" opacity="0.8"/><path d="M 26.520 4.830 A 1.300 1.300 0 0 1 25.220 6.130" fill="none" stroke="#6b7280" stroke-width="0.12" opacity="0.8"/><circle cx="-16.620" cy="-7.420" r="0.250" fill="none" stroke="#e6e9ef" stroke-width="0.12" opacity="1"/><circle cx="-23.530" cy="-0.145" r="2.900" fill="none" stroke="#4a5160" stroke-width="0.12" opacity="0.7"/><circle cx="-23.530" cy="-0.145" r="1.550" fill="none" stroke="#4a5160" stroke-width="0.12" opacity="0.7"/><circle cx="-16.620" cy="-1.420" r="0.900" fill="none" stroke="#4a5160" stroke-width="0.12" opacity="0.7"/><circle cx="-16.620" cy="-1.420" r="0.550" fill="none" stroke="#4a5160" stroke-width="0.12" opacity="0.7"/><circle cx="-15.235" cy="1.420" r="0.900" fill="none" stroke="#4a5160" stroke-width="0.12" opacity="0.7"/><circle cx="-15.235" cy="1.420" r="0.550" fill="none" stroke="#4a5160" stroke-width="0.12" opacity="0.7"/><circle cx="-13.850" cy="-1.420" r="0.900" fill="none" stroke="#4a5160" stroke-width="0.12" opacity="0.7"/><circle cx="-13.850" cy="-1.420" r="0.550" fill="none" stroke="#4a5160" stroke-width="0.12" opacity="0.7"/><circle cx="-12.465" cy="1.420" r="0.900" fill="none" stroke="#4a5160" stroke-width="0.12" opacity="0.7"/><circle cx="-12.465" cy="1.420" r="0.550" fill="none" stroke="#4a5160" stroke-width="0.12" opacity="0.7"/><circle cx="-11.080" cy="-1.420" r="0.900" fill="none" stroke="#4a5160" stroke-width="0.12" opacity="0.7"/><circle cx="-11.080" cy="-1.420" r="0.550" fill="none" stroke="#4a5160" stroke-width="0.12" opacity="0.7"/><circle cx="-9.695" cy="1.420" r="0.900" fill="none" stroke="#4a5160" stroke-width="0.12" opacity="0.7"/><circle cx="-9.695" cy="1.420" r="0.550" fill="none" stroke="#4a5160" stroke-width="0.12" opacity="0.7"/><circle cx="-8.310" cy="-1.420" r="0.900" fill="none" stroke="#4a5160" stroke-width="0.12" opacity="0.7"/><circle cx="-8.310" cy="-1.420" r="0.550" fill="none" stroke="#4a5160" stroke-width="0.12" opacity="0.7"/><circle cx="-6.925" cy="1.420" r="0.900" fill="none" stroke="#4a5160" stroke-width="0.12" opacity="0.7"/><circle cx="-6.925" cy="1.420" r="0.550" fill="none" stroke="#4a5160" stroke-width="0.12" opacity="0.7"/><circle cx="-5.540" cy="-1.420" r="0.900" fill="none" stroke="#4a5160" stroke-width="0.12" opacity="0.7"/><circle cx="-5.540" cy="-1.420" r="0.550" fill="none" stroke="#4a5160" stroke-width="0.12" opacity="0.7"/><circle cx="-4.155" cy="1.420" r="0.900" fill="none" stroke="#4a5160" stroke-width="0.12" opacity="0.7"/><circle cx="-4.155" cy="1.420" r="0.550" fill="none" stroke="#4a5160" stroke-width="0.12" opacity="0.7"/><circle cx="-2.770" cy="-1.420" r="0.900" fill="none" stroke="#4a5160" stroke-width="0.12" opacity="0.7"/><circle cx="-2.770" cy="-1.420" r="0.550" fill="none" stroke="#4a5160" stroke-width="0.12" opacity="0.7"/><circle cx="-1.385" cy="1.420" r="0.900" fill="none" stroke="#4a5160" stroke-width="0.12" opacity="0.7"/><circle cx="-1.385" cy="1.420" r="0.550" fill="none" stroke="#4a5160" stroke-width="0.12" opacity="0.7"/><circle cx="0.000" cy="-1.420" r="0.900" fill="none" stroke="#4a5160" stroke-width="0.12" opacity="0.7"/><circle cx="0.000" cy="-1.420" r="0.550" fill="none" stroke="#4a5160" stroke-width="0.12" opacity="0.7"/><circle cx="1.385" cy="1.420" r="0.900" fill="none" stroke="#4a5160" stroke-width="0.12" opacity="0.7"/><circle cx="1.385" cy="1.420" r="0.550" fill="none" stroke="#4a5160" stroke-width="0.12" opacity="0.7"/><circle cx="2.770" cy="-1.420" r="0.900" fill="none" stroke="#4a5160" stroke-width="0.12" opacity="0.7"/><circle cx="2.770" cy="-1.420" r="0.550" fill="none" stroke="#4a5160" stroke-width="0.12" opacity="0.7"/><circle cx="4.155" cy="1.420" r="0.900" fill="none" stroke="#4a5160" stroke-width="0.12" opacity="0.7"/><circle cx="4.155" cy="1.420" r="0.550" fill="none" stroke="#4a5160" stroke-width="0.12" opacity="0.7"/><circle cx="5.540" cy="-1.420" r="0.900" fill="none" stroke="#4a5160" stroke-width="0.12" opacity="0.7"/><circle cx="5.540" cy="-1.420" r="0.550" fill="none" stroke="#4a5160" stroke-width="0.12" opacity="0.7"/><circle cx="6.925" cy="1.420" r="0.900" fill="none" stroke="#4a5160" stroke-width="0.12" opacity="0.7"/><circle cx="6.925" cy="1.420" r="0.550" fill="none" stroke="#4a5160" stroke-width="0.12" opacity="0.7"/><circle cx="8.310" cy="-1.420" r="0.900" fill="none" stroke="#4a5160" stroke-width="0.12" opacity="0.7"/><circle cx="8.310" cy="-1.420" r="0.550" fill="none" stroke="#4a5160" stroke-width="0.12" opacity="0.7"/><circle cx="9.695" cy="1.420" r="0.900" fill="none" stroke="#4a5160" stroke-width="0.12" opacity="0.7"/><circle cx="9.695" cy="1.420" r="0.550" fill="none" stroke="#4a5160" stroke-width="0.12" opacity="0.7"/><circle cx="11.080" cy="-1.420" r="0.900" fill="none" stroke="#4a5160" stroke-width="0.12" opacity="0.7"/><circle cx="11.080" cy="-1.420" r="0.550" fill="none" stroke="#4a5160" stroke-width="0.12" opacity="0.7"/><circle cx="12.465" cy="1.420" r="0.900" fill="none" stroke="#4a5160" stroke-width="0.12" opacity="0.7"/><circle cx="12.465" cy="1.420" r="0.550" fill="none" stroke="#4a5160" stroke-width="0.12" opacity="0.7"/><circle cx="13.850" cy="-1.420" r="0.900" fill="none" stroke="#4a5160" stroke-width="0.12" opacity="0.7"/><circle cx="13.850" cy="-1.420" r="0.550" fill="none" stroke="#4a5160" stroke-width="0.12" opacity="0.7"/><circle cx="15.235" cy="1.420" r="0.900" fill="none" stroke="#4a5160" stroke-width="0.12" opacity="0.7"/><circle cx="15.235" cy="1.420" r="0.550" fill="none" stroke="#4a5160" stroke-width="0.12" opacity="0.7"/><circle cx="16.620" cy="-1.420" r="0.900" fill="none" stroke="#4a5160" stroke-width="0.12" opacity="0.7"/><circle cx="16.620" cy="-1.420" r="0.550" fill="none" stroke="#4a5160" stroke-width="0.12" opacity="0.7"/><circle cx="23.510" cy="-0.145" r="2.900" fill="none" stroke="#4a5160" stroke-width="0.12" opacity="0.7"/><circle cx="23.510" cy="-0.145" r="1.550" fill="none" stroke="#4a5160" stroke-width="0.12" opacity="0.7"/><circle cx="-23.530" cy="-0.145" r="1.750" fill="none" stroke="#6b7280" stroke-width="0.12" opacity="0.8"/><circle cx="-16.620" cy="-1.420" r="0.500" fill="none" stroke="#6b7280" stroke-width="0.12" opacity="0.8"/><circle cx="-15.235" cy="1.420" r="0.500" fill="none" stroke="#6b7280" stroke-width="0.12" opacity="0.8"/><circle cx="-13.850" cy="-1.420" r="0.500" fill="none" stroke="#6b7280" stroke-width="0.12" opacity="0.8"/><circle cx="-12.465" cy="1.420" r="0.500" fill="none" stroke="#6b7280" stroke-width="0.12" opacity="0.8"/><circle cx="-11.080" cy="-1.420" r="0.500" fill="none" stroke="#6b7280" stroke-width="0.12" opacity="0.8"/><circle cx="-9.695" cy="1.420" r="0.500" fill="none" stroke="#6b7280" stroke-width="0.12" opacity="0.8"/><circle cx="-8.310" cy="-1.420" r="0.500" fill="none" stroke="#6b7280" stroke-width="0.12" opacity="0.8"/><circle cx="-6.925" cy="1.420" r="0.500" fill="none" stroke="#6b7280" stroke-width="0.12" opacity="0.8"/><circle cx="-5.540" cy="-1.420" r="0.500" fill="none" stroke="#6b7280" stroke-width="0.12" opacity="0.8"/><circle cx="-4.155" cy="1.420" r="0.500" fill="none" stroke="#6b7280" stroke-width="0.12" opacity="0.8"/><circle cx="-2.770" cy="-1.420" r="0.500" fill="none" stroke="#6b7280" stroke-width="0.12" opacity="0.8"/><circle cx="-1.385" cy="1.420" r="0.500" fill="none" stroke="#6b7280" stroke-width="0.12" opacity="0.8"/><circle cx="0.000" cy="-1.420" r="0.500" fill="none" stroke="#6b7280" stroke-width="0.12" opacity="0.8"/><circle cx="1.385" cy="1.420" r="0.500" fill="none" stroke="#6b7280" stroke-width="0.12" opacity="0.8"/><circle cx="2.770" cy="-1.420" r="0.500" fill="none" stroke="#6b7280" stroke-width="0.12" opacity="0.8"/><circle cx="4.155" cy="1.420" r="0.500" fill="none" stroke="#6b7280" stroke-width="0.12" opacity="0.8"/><circle cx="5.540" cy="-1.420" r="0.500" fill="none" stroke="#6b7280" stroke-width="0.12" opacity="0.8"/><circle cx="6.925" cy="1.420" r="0.500" fill="none" stroke="#6b7280" stroke-width="0.12" opacity="0.8"/><circle cx="8.310" cy="-1.420" r="0.500" fill="none" stroke="#6b7280" stroke-width="0.12" opacity="0.8"/><circle cx="9.695" cy="1.420" r="0.500" fill="none" stroke="#6b7280" stroke-width="0.12" opacity="0.8"/><circle cx="11.080" cy="-1.420" r="0.500" fill="none" stroke="#6b7280" stroke-width="0.12" opacity="0.8"/><circle cx="12.465" cy="1.420" r="0.500" fill="none" stroke="#6b7280" stroke-width="0.12" opacity="0.8"/><circle cx="13.850" cy="-1.420" r="0.500" fill="none" stroke="#6b7280" stroke-width="0.12" opacity="0.8"/><circle cx="15.235" cy="1.420" r="0.500" fill="none" stroke="#6b7280" stroke-width="0.12" opacity="0.8"/><circle cx="16.620" cy="-1.420" r="0.500" fill="none" stroke="#6b7280" stroke-width="0.12" opacity="0.8"/><circle cx="23.510" cy="-0.145" r="1.750" fill="none" stroke="#6b7280" stroke-width="0.12" opacity="0.8"/><rect x="-17.520" y="-2.320" width="1.800" height="1.800" rx="0.900" fill="#c79b5c"/><circle cx="-16.620" cy="-1.420" r="0.550" fill="#12151c"/><rect x="-14.750" y="-2.320" width="1.800" height="1.800" rx="0.900" fill="#c79b5c"/><circle cx="-13.850" cy="-1.420" r="0.550" fill="#12151c"/><rect x="-11.980" y="-2.320" width="1.800" height="1.800" rx="0.900" fill="#c79b5c"/><circle cx="-11.080" cy="-1.420" r="0.550" fill="#12151c"/><rect x="-9.210" y="-2.320" width="1.800" height="1.800" rx="0.900" fill="#c79b5c"/><circle cx="-8.310" cy="-1.420" r="0.550" fill="#12151c"/><rect x="-6.440" y="-2.320" width="1.800" height="1.800" rx="0.900" fill="#c79b5c"/><circle cx="-5.540" cy="-1.420" r="0.550" fill="#12151c"/><rect x="-3.670" y="-2.320" width="1.800" height="1.800" rx="0.900" fill="#c79b5c"/><circle cx="-2.770" cy="-1.420" r="0.550" fill="#12151c"/><rect x="-0.900" y="-2.320" width="1.800" height="1.800" rx="0.900" fill="#c79b5c"/><circle cx="0.000" cy="-1.420" r="0.550" fill="#12151c"/><rect x="1.870" y="-2.320" width="1.800" height="1.800" rx="0.900" fill="#c79b5c"/><circle cx="2.770" cy="-1.420" r="0.550" fill="#12151c"/><rect x="4.640" y="-2.320" width="1.800" height="1.800" rx="0.900" fill="#c79b5c"/><circle cx="5.540" cy="-1.420" r="0.550" fill="#12151c"/><rect x="7.410" y="-2.320" width="1.800" height="1.800" rx="0.900" fill="#c79b5c"/><circle cx="8.310" cy="-1.420" r="0.550" fill="#12151c"/><rect x="10.180" y="-2.320" width="1.800" height="1.800" rx="0.900" fill="#c79b5c"/><circle cx="11.080" cy="-1.420" r="0.550" fill="#12151c"/><rect x="12.950" y="-2.320" width="1.800" height="1.800" rx="0.900" fill="#c79b5c"/><circle cx="13.850" cy="-1.420" r="0.550" fill="#12151c"/><rect x="15.720" y="-2.320" width="1.800" height="1.800" rx="0.900" fill="#c79b5c"/><circle cx="16.620" cy="-1.420" r="0.550" fill="#12151c"/><rect x="-16.135" y="0.520" width="1.800" height="1.800" rx="0.900" fill="#c79b5c"/><circle cx="-15.235" cy="1.420" r="0.550" fill="#12151c"/><rect x="-13.365" y="0.520" width="1.800" height="1.800" rx="0.900" fill="#c79b5c"/><circle cx="-12.465" cy="1.420" r="0.550" fill="#12151c"/><rect x="-10.595" y="0.520" width="1.800" height="1.800" rx="0.900" fill="#c79b5c"/><circle cx="-9.695" cy="1.420" r="0.550" fill="#12151c"/><rect x="-7.825" y="0.520" width="1.800" height="1.800" rx="0.900" fill="#c79b5c"/><circle cx="-6.925" cy="1.420" r="0.550" fill="#12151c"/><rect x="-5.055" y="0.520" width="1.800" height="1.800" rx="0.900" fill="#c79b5c"/><circle cx="-4.155" cy="1.420" r="0.550" fill="#12151c"/><rect x="-2.285" y="0.520" width="1.800" height="1.800" rx="0.900" fill="#c79b5c"/><circle cx="-1.385" cy="1.420" r="0.550" fill="#12151c"/><rect x="0.485" y="0.520" width="1.800" height="1.800" rx="0.900" fill="#c79b5c"/><circle cx="1.385" cy="1.420" r="0.550" fill="#12151c"/><rect x="3.255" y="0.520" width="1.800" height="1.800" rx="0.900" fill="#c79b5c"/><circle cx="4.155" cy="1.420" r="0.550" fill="#12151c"/><rect x="6.025" y="0.520" width="1.800" height="1.800" rx="0.900" fill="#c79b5c"/><circle cx="6.925" cy="1.420" r="0.550" fill="#12151c"/><rect x="8.795" y="0.520" width="1.800" height="1.800" rx="0.900" fill="#c79b5c"/><circle cx="9.695" cy="1.420" r="0.550" fill="#12151c"/><rect x="11.565" y="0.520" width="1.800" height="1.800" rx="0.900" fill="#c79b5c"/><circle cx="12.465" cy="1.420" r="0.550" fill="#12151c"/><rect x="14.335" y="0.520" width="1.800" height="1.800" rx="0.900" fill="#c79b5c"/><circle cx="15.235" cy="1.420" r="0.550" fill="#12151c"/><rect x="-26.430" y="-3.045" width="5.800" height="5.800" rx="2.900" fill="#c79b5c"/><circle cx="-23.530" cy="-0.145" r="1.550" fill="#12151c"/><rect x="20.610" y="-3.045" width="5.800" height="5.800" rx="2.900" fill="#c79b5c"/><circle cx="23.510" cy="-0.145" r="1.550" fill="#12151c"/></svg>