<svg xmlns="http://www.w3.org/2000/svg" viewBox="-4.35 -5.17 8.70 10.02" preserveAspectRatio="xMidYMid meet" style="width:100%;height:100%"><rect x="-4.35" y="-5.17" width="8.70" height="10.02" fill="#12151c"/><line x1="-0.750" y1="-3.500" x2="0.750" y2="-3.500" stroke="#e6e9ef" stroke-width="0.200" stroke-linecap="round" opacity="1"/><line x1="-0.750" y1="3.500" x2="0.750" y2="3.500" stroke="#e6e9ef" stroke-width="0.200" stroke-linecap="round" opacity="1"/><line x1="-3.350" y1="-3.850" x2="3.350" y2="-3.850" stroke="#d24d4d" stroke-width="0.080" stroke-linecap="round" opacity="0.7"/><line x1="-3.350" y1="3.850" x2="-3.350" y2="-3.850" stroke="#d24d4d" stroke-width="0.080" stroke-linecap="round" opacity="0.7"/><line x1="-3.350" y1="3.850" x2="3.350" y2="3.850" stroke="#d24d4d" stroke-width="0.080" stroke-linecap="round" opacity="0.7"/><line x1="3.350" y1="3.850" x2="3.350" y2="-3.850" stroke="#d24d4d" stroke-width="0.080" stroke-linecap="round" opacity="0.7"/><line x1="-2.500" y1="-3.500" x2="2.500" y2="-3.500" stroke="#6b7280" stroke-width="0.100" stroke-linecap="round" opacity="0.8"/><line x1="-2.500" y1="3.500" x2="-2.500" y2="-3.500" stroke="#6b7280" stroke-width="0.100" stroke-linecap="round" opacity="0.8"/><line x1="-2.500" y1="3.500" x2="2.500" y2="3.500" stroke="#6b7280" stroke-width="0.100" stroke-linecap="round" opacity="0.8"/><line x1="2.500" y1="3.500" x2="2.500" y2="-3.500" stroke="#6b7280" stroke-width="0.100" stroke-linecap="round" opacity="0.8"/><circle cx="-3.100" cy="-4.040" r="0.150" fill="#e6e9ef" opacity="1"/><circle cx="-1.500" cy="-2.500" r="0.500" fill="none" stroke="#6b7280" stroke-width="0.12" opacity="0.8"/><rect x="-3.100" y="-3.440" width="2.000" height="1.800" rx="0.000" fill="#c79b5c"/><rect x="-3.100" y="-0.900" width="2.000" height="1.800" rx="0.000" fill="#c79b5c"/><rect x="-3.100" y="1.640" width="2.000" height="1.800" rx="0.000" fill="#c79b5c"/><rect x="1.100" y="1.640" width="2.000" height="1.800" rx="0.000" fill="#c79b5c"/><rect x="1.100" y="-0.900" width="2.000" height="1.800" rx="0.000" fill="#c79b5c"/><rect x="1.100" y="-3.440" width="2.000" height="1.800" rx="0.000" fill="#c79b5c"/></svg>