<svg xmlns="http://www.w3.org/2000/svg" viewBox="-2.75 -2.52 5.50 4.90" preserveAspectRatio="xMidYMid meet" style="width:100%;height:100%"><rect x="-2.75" y="-2.52" width="5.50" height="4.90" fill="#12151c"/><line x1="-0.261" y1="-1.125" x2="0.261" y2="-1.125" stroke="#e6e9ef" stroke-width="0.200" stroke-linecap="round" opacity="1"/><line x1="-0.261" y1="1.125" x2="0.261" y2="1.125" stroke="#e6e9ef" stroke-width="0.200" stroke-linecap="round" opacity="1"/><line x1="-1.500" y1="-0.853" x2="-1.056" y2="-0.650" stroke="#4a5160" stroke-width="0.080" stroke-linecap="round" opacity="0.7"/><line x1="-1.500" y1="-0.853" x2="-0.611" y2="-0.853" stroke="#4a5160" stroke-width="0.080" stroke-linecap="round" opacity="0.7"/><line x1="-1.500" y1="-0.447" x2="-1.500" y2="-0.853" stroke="#4a5160" stroke-width="0.080" stroke-linecap="round" opacity="0.7"/><line x1="-1.500" y1="-0.447" x2="-1.056" y2="-0.650" stroke="#4a5160" stroke-width="0.080" stroke-linecap="round" opacity="0.7"/><line x1="-1.500" y1="-0.447" x2="-0.611" y2="-0.447" stroke="#4a5160" stroke-width="0.080" stroke-linecap="round" opacity="0.7"/><line x1="-1.500" y1="-0.203" x2="-1.056" y2="0.000" stroke="#4a5160" stroke-width="0.080" stroke-linecap="round" opacity="0.7"/><line x1="-1.500" y1="-0.203" x2="-0.611" y2="-0.203" stroke="#4a5160" stroke-width="0.080" stroke-linecap="round" opacity="0.7"/><line x1="-1.500" y1="0.203" x2="-1.500" y2="-0.203" stroke="#4a5160" stroke-width="0.080" stroke-linecap="round" opacity="0.7"/><line x1="-1.500" y1="0.203" x2="-1.056" y2="0.000" stroke="#4a5160" stroke-width="0.080" stroke-linecap="round" opacity="0.7"/><line x1="-1.500" y1="0.203" x2="-0.611" y2="0.203" stroke="#4a5160" stroke-width="0.080" stroke-linecap="round" opacity="0.7"/><line x1="-1.500" y1="0.447" x2="-1.056" y2="0.650" stroke="#4a5160" stroke-width="0.080" stroke-linecap="round" opacity="0.7"/><line x1="-1.500" y1="0.447" x2="-0.611" y2="0.447" stroke="#4a5160" stroke-width="0.080" stroke-linecap="round" opacity="0.7"/><line x1="-1.500" y1="0.853" x2="-1.500" y2="0.447" stroke="#4a5160" stroke-width="0.080" stroke-linecap="round" opacity="0.7"/><line x1="-1.500" y1="0.853" x2="-1.056" y2="0.650" stroke="#4a5160" stroke-width="0.080" stroke-linecap="round" opacity="0.7"/><line x1="-1.500" y1="0.853" x2="-0.611" y2="0.853" stroke="#4a5160" stroke-width="0.080" stroke-linecap="round" opacity="0.7"/><line x1="-0.611" y1="-0.447" x2="-0.611" y2="-0.853" stroke="#4a5160" stroke-width="0.080" stroke-linecap="round" opacity="0.7"/><line x1="-0.611" y1="0.203" x2="-0.611" y2="-0.203" stroke="#4a5160" stroke-width="0.080" stroke-linecap="round" opacity="0.7"/><line x1="-0.611" y1="0.853" x2="-0.611" y2="0.447" stroke="#4a5160" stroke-width="0.080" stroke-linecap="round" opacity="0.7"/><line x1="-0.500" y1="0.000" x2="0.000" y2="0.000" stroke="#4a5160" stroke-width="0.080" stroke-linecap="round" opacity="0.7"/><line x1="0.000" y1="0.000" x2="0.000" y2="-0.500" stroke="#4a5160" stroke-width="0.080" stroke-linecap="round" opacity="0.7"/><line x1="0.000" y1="0.000" x2="0.500" y2="0.000" stroke="#4a5160" stroke-width="0.080" stroke-linecap="round" opacity="0.7"/><line x1="0.000" y1="0.500" x2="0.000" y2="0.000" stroke="#4a5160" stroke-width="0.080" stroke-linecap="round" opacity="0.7"/><line x1="0.611" y1="-0.853" x2="1.500" y2="-0.853" stroke="#4a5160" stroke-width="0.080" stroke-linecap="round" opacity="0.7"/><line x1="0.611" y1="-0.447" x2="0.611" y2="-0.853" stroke="#4a5160" stroke-width="0.080" stroke-linecap="round" opacity="0.7"/><line x1="0.611" y1="-0.447" x2="1.500" y2="-0.447" stroke="#4a5160" stroke-width="0.080" stroke-linecap="round" opacity="0.7"/><line x1="0.611" y1="-0.203" x2="1.500" y2="-0.203" stroke="#4a5160" stroke-width="0.080" stroke-linecap="round" opacity="0.7"/><line x1="0.611" y1="0.203" x2="0.611" y2="-0.203" stroke="#4a5160" stroke-width="0.080" stroke-linecap="round" opacity="0.7"/><line x1="0.611" y1="0.203" x2="1.500" y2="0.203" stroke="#4a5160" stroke-width="0.080" stroke-linecap="round" opacity="0.7"/><line x1="0.611" y1="0.447" x2="1.500" y2="0.447" stroke="#4a5160" stroke-width="0.080" stroke-linecap="round" opacity="0.7"/><line x1="0.611" y1="0.853" x2="0.611" y2="0.447" stroke="#4a5160" stroke-width="0.080" stroke-linecap="round" opacity="0.7"/><line x1="0.611" y1="0.853" x2="1.500" y2="0.853" stroke="#4a5160" stroke-width="0.080" stroke-linecap="round" opacity="0.7"/><line x1="1.056" y1="-0.650" x2="1.500" y2="-0.853" stroke="#4a5160" stroke-width="0.080" stroke-linecap="round" opacity="0.7"/><line x1="1.056" y1="-0.650" x2="1.500" y2="-0.447" stroke="#4a5160" stroke-width="0.080" stroke-linecap="round" opacity="0.7"/><line x1="1.056" y1="0.000" x2="1.500" y2="-0.203" stroke="#4a5160" stroke-width="0.080" stroke-linecap="round" opacity="0.7"/><line x1="1.056" y1="0.000" x2="1.500" y2="0.203" stroke="#4a5160" stroke-width="0.080" stroke-linecap="round" opacity="0.7"/><line x1="1.056" y1="0.650" x2="1.500" y2="0.447" stroke="#4a5160" stroke-width="0.080" stroke-linecap="round" opacity="0.7"/><line x1="1.056" y1="0.650" x2="1.500" y2="0.853" stroke="#4a5160" stroke-width="0.080" stroke-linecap="round" opacity="0.7"/><line x1="1.500" y1="-0.447" x2="1.500" y2="-0.853" stroke="#4a5160" stroke-width="0.080" stroke-linecap="round" opacity="0.7"/><line x1="1.500" y1="0.203" x2="1.500" y2="-0.203" stroke="#4a5160" stroke-width="0.080" stroke-linecap="round" opacity="0.7"/><line x1="1.500" y1="0.853" x2="1.500" y2="0.447" stroke="#4a5160" stroke-width="0.080" stroke-linecap="round" opacity="0.7"/><line x1="-1.750" y1="-1.375" x2="1.750" y2="-1.375" stroke="#d24d4d" stroke-width="0.080" stroke-linecap="round" opacity="0.7"/><line x1="-1.750" y1="1.375" x2="-1.750" y2="-1.375" stroke="#d24d4d" stroke-width="0.080" stroke-linecap="round" opacity="0.7"/><line x1="-1.750" y1="1.375" x2="1.750" y2="1.375" stroke="#d24d4d" stroke-width="0.080" stroke-linecap="round" opacity="0.7"/><line x1="1.750" y1="1.375" x2="1.750" y2="-1.375" stroke="#d24d4d" stroke-width="0.080" stroke-linecap="round" opacity="0.7"/><line x1="-0.700" y1="-1.125" x2="0.700" y2="-1.125" stroke="#6b7280" stroke-width="0.100" stroke-linecap="round" opacity="0.8"/><line x1="-0.700" y1="1.125" x2="-0.700" y2="-1.125" stroke="#6b7280" stroke-width="0.100" stroke-linecap="round" opacity="0.8"/><line x1="-0.700" y1="1.125" x2="0.700" y2="1.125" stroke="#6b7280" stroke-width="0.100" stroke-linecap="round" opacity="0.8"/><line x1="0.700" y1="1.125" x2="0.700" y2="-1.125" stroke="#6b7280" stroke-width="0.100" stroke-linecap="round" opacity="0.8"/><circle cx="-1.300" cy="-1.400" r="0.150" fill="#e6e9ef" opacity="1"/><circle cx="-1.300" cy="-1.400" r="0.150" fill="#6b7280" opacity="0.8"/><rect x="-1.500" y="-0.853" width="0.889" height="0.406" rx="0.000" fill="#c79b5c"/><rect x="-1.500" y="-0.203" width="0.889" height="0.406" rx="0.000" fill="#c79b5c"/><rect x="-1.500" y="0.447" width="0.889" height="0.406" rx="0.000" fill="#c79b5c"/><rect x="0.611" y="0.447" width="0.889" height="0.406" rx="0.000" fill="#c79b5c"/><rect x="0.611" y="-0.203" width="0.889" height="0.406" rx="0.000" fill="#c79b5c"/><rect x="0.611" y="-0.853" width="0.889" height="0.406" rx="0.000" fill="#c79b5c"/></svg>