<svg xmlns="http://www.w3.org/2000/svg" viewBox="-2.90 -2.60 4.90 5.20" preserveAspectRatio="xMidYMid meet" style="width:100%;height:100%"><rect x="-2.90" y="-2.60" width="4.90" height="5.20" fill="#12151c"/><path d="M -0.750 1.550 A 0.050 0.050 0 0 1 -0.700 1.600" fill="none" stroke="#6b7280" stroke-width="0.12" opacity="0.8"/><path d="M -0.700 -1.600 A 0.050 0.050 0 0 1 -0.750 -1.550" fill="none" stroke="#6b7280" stroke-width="0.12" opacity="0.8"/><path d="M 0.700 1.600 A 0.050 0.050 0 0 1 0.750 1.550" fill="none" stroke="#6b7280" stroke-width="0.12" opacity="0.8"/><path d="M 0.750 -1.550 A 0.050 0.050 0 0 1 0.700 -1.600" fill="none" stroke="#6b7280" stroke-width="0.12" opacity="0.8"/><circle cx="-1.775" cy="-1.350" r="0.125" fill="none" stroke="#e6e9ef" stroke-width="0.12" opacity="1"/><rect x="-1.000" y="-1.600" width="0.800" height="0.500" rx="0.000" fill="#c79b5c"/><rect x="-1.000" y="-0.700" width="0.800" height="0.500" rx="0.000" fill="#c79b5c"/><rect x="-1.000" y="0.200" width="0.800" height="0.500" rx="0.000" fill="#c79b5c"/><rect x="-1.000" y="1.100" width="0.800" height="0.500" rx="0.000" fill="#c79b5c"/><rect x="0.200" y="1.100" width="0.800" height="0.500" rx="0.000" fill="#c79b5c"/><rect x="0.200" y="0.200" width="0.800" height="0.500" rx="0.000" fill="#c79b5c"/><rect x="0.200" y="-0.700" width="0.800" height="0.500" rx="0.000" fill="#c79b5c"/><rect x="0.200" y="-1.600" width="0.800" height="0.500" rx="0.000" fill="#c79b5c"/></svg>