<svg xmlns="http://www.w3.org/2000/svg" viewBox="-6.58 -1.50 48.72 145.24" preserveAspectRatio="xMidYMid meet" style="width:100%;height:100%"><rect x="-6.58" y="-1.50" width="48.72" height="145.24" fill="#12151c"/><rect x="0.000" y="-0.000" width="35.560" height="142.240" fill="#1e222b" stroke="#4ea1ff" stroke-width="0.25"/><rect x="35.052" y="138.430" width="0.508" height="2.540" fill="#1e222b" stroke="#4ea1ff" stroke-width="0.25"/><line x1="-5.080" y1="2.540" x2="0.000" y2="2.540" stroke="#e6e9ef" stroke-width="0.2"/><circle cx="-5.080" cy="2.540" r="0.4" fill="#4ea1ff"/><text x="0.500" y="2.890" fill="#e6e9ef" font-size="1.1" text-anchor="start" font-family="sans-serif">VIN_A</text><text x="-0.300" y="2.190" fill="#9aa3b2" font-size="0.9" text-anchor="end" font-family="sans-serif">39</text><line x1="-5.080" y1="7.620" x2="0.000" y2="7.620" stroke="#e6e9ef" stroke-width="0.2"/><circle cx="-5.080" cy="7.620" r="0.4" fill="#4ea1ff"/><text x="0.500" y="7.970" fill="#e6e9ef" font-size="1.1" text-anchor="start" font-family="sans-serif">VIN_B</text><text x="-0.300" y="7.270" fill="#9aa3b2" font-size="0.9" text-anchor="end" font-family="sans-serif">32</text><line x1="-5.080" y1="12.700" x2="0.000" y2="12.700" stroke="#e6e9ef" stroke-width="0.2"/><circle cx="-5.080" cy="12.700" r="0.4" fill="#4ea1ff"/><text x="0.500" y="13.050" fill="#e6e9ef" font-size="1.1" text-anchor="start" font-family="sans-serif">VIN_C</text><text x="-0.300" y="12.350" fill="#9aa3b2" font-size="0.9" text-anchor="end" font-family="sans-serif">12</text><line x1="-5.080" y1="15.240" x2="0.000" y2="15.240" stroke="#e6e9ef" stroke-width="0.2"/><circle cx="-5.080" cy="15.240" r="0.4" fill="#4ea1ff"/><text x="0.500" y="15.590" fill="#e6e9ef" font-size="1.1" text-anchor="start" font-family="sans-serif">VIN_C</text><text x="-0.300" y="14.890" fill="#9aa3b2" font-size="0.9" text-anchor="end" font-family="sans-serif">13</text><line x1="-5.080" y1="17.780" x2="0.000" y2="17.780" stroke="#e6e9ef" stroke-width="0.2"/><circle cx="-5.080" cy="17.780" r="0.4" fill="#4ea1ff"/><text x="0.500" y="18.130" fill="#e6e9ef" font-size="1.1" text-anchor="start" font-family="sans-serif">VIN_C</text><text x="-0.300" y="17.430" fill="#9aa3b2" font-size="0.9" text-anchor="end" font-family="sans-serif">14</text><line x1="-5.080" y1="22.860" x2="0.000" y2="22.860" stroke="#e6e9ef" stroke-width="0.2"/><circle cx="-5.080" cy="22.860" r="0.4" fill="#4ea1ff"/><text x="0.500" y="23.210" fill="#e6e9ef" font-size="1.1" text-anchor="start" font-family="sans-serif">VIN_D</text><text x="-0.300" y="22.510" fill="#9aa3b2" font-size="0.9" text-anchor="end" font-family="sans-serif">1</text><line x1="-5.080" y1="25.400" x2="0.000" y2="25.400" stroke="#e6e9ef" stroke-width="0.2"/><circle cx="-5.080" cy="25.400" r="0.4" fill="#4ea1ff"/><text x="0.500" y="25.750" fill="#e6e9ef" font-size="1.1" text-anchor="start" font-family="sans-serif">VIN_D</text><text x="-0.300" y="25.050" fill="#9aa3b2" font-size="0.9" text-anchor="end" font-family="sans-serif">2</text><line x1="-5.080" y1="27.940" x2="0.000" y2="27.940" stroke="#e6e9ef" stroke-width="0.2"/><circle cx="-5.080" cy="27.940" r="0.4" fill="#4ea1ff"/><text x="0.500" y="28.290" fill="#e6e9ef" font-size="1.1" text-anchor="start" font-family="sans-serif">VIN_D</text><text x="-0.300" y="27.590" fill="#9aa3b2" font-size="0.9" text-anchor="end" font-family="sans-serif">3</text><line x1="-5.080" y1="33.020" x2="0.000" y2="33.020" stroke="#e6e9ef" stroke-width="0.2"/><circle cx="-5.080" cy="33.020" r="0.4" fill="#4ea1ff"/><text x="0.500" y="33.370" fill="#e6e9ef" font-size="1.1" text-anchor="start" font-family="sans-serif">VDRV</text><text x="-0.300" y="32.670" fill="#9aa3b2" font-size="0.9" text-anchor="end" font-family="sans-serif">47</text><line x1="-5.080" y1="38.100" x2="0.000" y2="38.100" stroke="#e6e9ef" stroke-width="0.2"/><circle cx="-5.080" cy="38.100" r="0.4" fill="#4ea1ff"/><text x="0.500" y="38.450" fill="#e6e9ef" font-size="1.1" text-anchor="start" font-family="sans-serif">VCC</text><text x="-0.300" y="37.750" fill="#9aa3b2" font-size="0.9" text-anchor="end" font-family="sans-serif">48</text><line x1="-5.080" y1="43.180" x2="0.000" y2="43.180" stroke="#e6e9ef" stroke-width="0.2"/><circle cx="-5.080" cy="43.180" r="0.4" fill="#4ea1ff"/><text x="0.500" y="43.530" fill="#e6e9ef" font-size="1.1" text-anchor="start" font-family="sans-serif">1V8</text><text x="-0.300" y="42.830" fill="#9aa3b2" font-size="0.9" text-anchor="end" font-family="sans-serif">21</text><line x1="-5.080" y1="48.260" x2="0.000" y2="48.260" stroke="#e6e9ef" stroke-width="0.2"/><circle cx="-5.080" cy="48.260" r="0.4" fill="#4ea1ff"/><text x="0.500" y="48.610" fill="#e6e9ef" font-size="1.1" text-anchor="start" font-family="sans-serif">VSUPPLY</text><text x="-0.300" y="47.910" fill="#9aa3b2" font-size="0.9" text-anchor="end" font-family="sans-serif">49</text><line x1="-5.080" y1="53.340" x2="0.000" y2="53.340" stroke="#e6e9ef" stroke-width="0.2"/><circle cx="-5.080" cy="53.340" r="0.4" fill="#4ea1ff"/><text x="0.500" y="53.690" fill="#e6e9ef" font-size="1.1" text-anchor="start" font-family="sans-serif">VIN_LDO</text><text x="-0.300" y="52.990" fill="#9aa3b2" font-size="0.9" text-anchor="end" font-family="sans-serif">22</text><line x1="-5.080" y1="58.420" x2="0.000" y2="58.420" stroke="#e6e9ef" stroke-width="0.2"/><circle cx="-5.080" cy="58.420" r="0.4" fill="#4ea1ff"/><text x="0.500" y="58.770" fill="#e6e9ef" font-size="1.1" text-anchor="start" font-family="sans-serif">VO_LDO</text><text x="-0.300" y="58.070" fill="#9aa3b2" font-size="0.9" text-anchor="end" font-family="sans-serif">23</text><line x1="-5.080" y1="68.580" x2="0.000" y2="68.580" stroke="#e6e9ef" stroke-width="0.2"/><circle cx="-5.080" cy="68.580" r="0.4" fill="#4ea1ff"/><text x="0.500" y="68.930" fill="#e6e9ef" font-size="1.1" text-anchor="start" font-family="sans-serif">FB__L</text><text x="-0.300" y="68.230" fill="#9aa3b2" font-size="0.9" text-anchor="end" font-family="sans-serif">24</text><line x1="-5.080" y1="73.660" x2="0.000" y2="73.660" stroke="#e6e9ef" stroke-width="0.2"/><circle cx="-5.080" cy="73.660" r="0.4" fill="#4ea1ff"/><text x="0.500" y="74.010" fill="#e6e9ef" font-size="1.1" text-anchor="start" font-family="sans-serif">PG_L</text><text x="-0.300" y="73.310" fill="#9aa3b2" font-size="0.9" text-anchor="end" font-family="sans-serif">25</text><line x1="-5.080" y1="76.200" x2="0.000" y2="76.200" stroke="#e6e9ef" stroke-width="0.2"/><circle cx="-5.080" cy="76.200" r="0.4" fill="#4ea1ff"/><text x="0.500" y="76.550" fill="#e6e9ef" font-size="1.1" text-anchor="start" font-family="sans-serif">EN_L</text><text x="-0.300" y="75.850" fill="#9aa3b2" font-size="0.9" text-anchor="end" font-family="sans-serif">28</text><line x1="-5.080" y1="81.280" x2="0.000" y2="81.280" stroke="#e6e9ef" stroke-width="0.2"/><circle cx="-5.080" cy="81.280" r="0.4" fill="#4ea1ff"/><text x="0.500" y="81.630" fill="#e6e9ef" font-size="1.1" text-anchor="start" font-family="sans-serif">PG_A</text><text x="-0.300" y="80.930" fill="#9aa3b2" font-size="0.9" text-anchor="end" font-family="sans-serif">26</text><line x1="-5.080" y1="83.820" x2="0.000" y2="83.820" stroke="#e6e9ef" stroke-width="0.2"/><circle cx="-5.080" cy="83.820" r="0.4" fill="#4ea1ff"/><text x="0.500" y="84.170" fill="#e6e9ef" font-size="1.1" text-anchor="start" font-family="sans-serif">EN_A</text><text x="-0.300" y="83.470" fill="#9aa3b2" font-size="0.9" text-anchor="end" font-family="sans-serif">42</text><line x1="-5.080" y1="88.900" x2="0.000" y2="88.900" stroke="#e6e9ef" stroke-width="0.2"/><circle cx="-5.080" cy="88.900" r="0.4" fill="#4ea1ff"/><text x="0.500" y="89.250" fill="#e6e9ef" font-size="1.1" text-anchor="start" font-family="sans-serif">PG_B</text><text x="-0.300" y="88.550" fill="#9aa3b2" font-size="0.9" text-anchor="end" font-family="sans-serif">30</text><line x1="-5.080" y1="91.440" x2="0.000" y2="91.440" stroke="#e6e9ef" stroke-width="0.2"/><circle cx="-5.080" cy="91.440" r="0.4" fill="#4ea1ff"/><text x="0.500" y="91.790" fill="#e6e9ef" font-size="1.1" text-anchor="start" font-family="sans-serif">EN_B</text><text x="-0.300" y="91.090" fill="#9aa3b2" font-size="0.9" text-anchor="end" font-family="sans-serif">44</text><line x1="-5.080" y1="96.520" x2="0.000" y2="96.520" stroke="#e6e9ef" stroke-width="0.2"/><circle cx="-5.080" cy="96.520" r="0.4" fill="#4ea1ff"/><text x="0.500" y="96.870" fill="#e6e9ef" font-size="1.1" text-anchor="start" font-family="sans-serif">PG_C</text><text x="-0.300" y="96.170" fill="#9aa3b2" font-size="0.9" text-anchor="end" font-family="sans-serif">27</text><line x1="-5.080" y1="99.060" x2="0.000" y2="99.060" stroke="#e6e9ef" stroke-width="0.2"/><circle cx="-5.080" cy="99.060" r="0.4" fill="#4ea1ff"/><text x="0.500" y="99.410" fill="#e6e9ef" font-size="1.1" text-anchor="start" font-family="sans-serif">EN_C</text><text x="-0.300" y="98.710" fill="#9aa3b2" font-size="0.9" text-anchor="end" font-family="sans-serif">51</text><line x1="-5.080" y1="104.140" x2="0.000" y2="104.140" stroke="#e6e9ef" stroke-width="0.2"/><circle cx="-5.080" cy="104.140" r="0.4" fill="#4ea1ff"/><text x="0.500" y="104.490" fill="#e6e9ef" font-size="1.1" text-anchor="start" font-family="sans-serif">PG_D</text><text x="-0.300" y="103.790" fill="#9aa3b2" font-size="0.9" text-anchor="end" font-family="sans-serif">16</text><line x1="-5.080" y1="106.680" x2="0.000" y2="106.680" stroke="#e6e9ef" stroke-width="0.2"/><circle cx="-5.080" cy="106.680" r="0.4" fill="#4ea1ff"/><text x="0.500" y="107.030" fill="#e6e9ef" font-size="1.1" text-anchor="start" font-family="sans-serif">EN_D</text><text x="-0.300" y="106.330" fill="#9aa3b2" font-size="0.9" text-anchor="end" font-family="sans-serif">53</text><line x1="-5.080" y1="111.760" x2="0.000" y2="111.760" stroke="#e6e9ef" stroke-width="0.2"/><circle cx="-5.080" cy="111.760" r="0.4" fill="#4ea1ff"/><text x="0.500" y="112.110" fill="#e6e9ef" font-size="1.1" text-anchor="start" font-family="sans-serif">VDDIO</text><text x="-0.300" y="111.410" fill="#9aa3b2" font-size="0.9" text-anchor="end" font-family="sans-serif">20</text><line x1="-5.080" y1="116.840" x2="0.000" y2="116.840" stroke="#e6e9ef" stroke-width="0.2"/><circle cx="-5.080" cy="116.840" r="0.4" fill="#4ea1ff"/><text x="0.500" y="117.190" fill="#e6e9ef" font-size="1.1" text-anchor="start" font-family="sans-serif">~{ALERT}</text><text x="-0.300" y="116.490" fill="#9aa3b2" font-size="0.9" text-anchor="end" font-family="sans-serif">17</text><line x1="-5.080" y1="119.380" x2="0.000" y2="119.380" stroke="#e6e9ef" stroke-width="0.2"/><circle cx="-5.080" cy="119.380" r="0.4" fill="#4ea1ff"/><text x="0.500" y="119.730" fill="#e6e9ef" font-size="1.1" text-anchor="start" font-family="sans-serif">CLK</text><text x="-0.300" y="119.030" fill="#9aa3b2" font-size="0.9" text-anchor="end" font-family="sans-serif">18</text><line x1="-5.080" y1="121.920" x2="0.000" y2="121.920" stroke="#e6e9ef" stroke-width="0.2"/><circle cx="-5.080" cy="121.920" r="0.4" fill="#4ea1ff"/><text x="0.500" y="122.270" fill="#e6e9ef" font-size="1.1" text-anchor="start" font-family="sans-serif">DATA</text><text x="-0.300" y="121.570" fill="#9aa3b2" font-size="0.9" text-anchor="end" font-family="sans-serif">19</text><line x1="-5.080" y1="124.460" x2="0.000" y2="124.460" stroke="#e6e9ef" stroke-width="0.2"/><circle cx="-5.080" cy="124.460" r="0.4" fill="#4ea1ff"/><text x="0.500" y="124.810" fill="#e6e9ef" font-size="1.1" text-anchor="start" font-family="sans-serif">ADDR_PROT</text><text x="-0.300" y="124.110" fill="#9aa3b2" font-size="0.9" text-anchor="end" font-family="sans-serif">55</text><line x1="-5.080" y1="129.540" x2="0.000" y2="129.540" stroke="#e6e9ef" stroke-width="0.2"/><circle cx="-5.080" cy="129.540" r="0.4" fill="#4ea1ff"/><text x="0.500" y="129.890" fill="#e6e9ef" font-size="1.1" text-anchor="start" font-family="sans-serif">SYNC_CLK</text><text x="-0.300" y="129.190" fill="#9aa3b2" font-size="0.9" text-anchor="end" font-family="sans-serif">52</text><line x1="-5.080" y1="134.620" x2="0.000" y2="134.620" stroke="#e6e9ef" stroke-width="0.2"/><circle cx="-5.080" cy="134.620" r="0.4" fill="#4ea1ff"/><text x="0.500" y="134.970" fill="#e6e9ef" font-size="1.1" text-anchor="start" font-family="sans-serif">~{SLEEP}</text><text x="-0.300" y="134.270" fill="#9aa3b2" font-size="0.9" text-anchor="end" font-family="sans-serif">29</text><line x1="-5.080" y1="139.700" x2="0.000" y2="139.700" stroke="#e6e9ef" stroke-width="0.2"/><circle cx="-5.080" cy="139.700" r="0.4" fill="#4ea1ff"/><text x="0.500" y="140.050" fill="#e6e9ef" font-size="1.1" text-anchor="start" font-family="sans-serif">MTP</text><text x="-0.300" y="139.350" fill="#9aa3b2" font-size="0.9" text-anchor="end" font-family="sans-serif">54</text><line x1="40.640" y1="2.540" x2="35.560" y2="2.540" stroke="#e6e9ef" stroke-width="0.2"/><circle cx="40.640" cy="2.540" r="0.4" fill="#4ea1ff"/><text x="35.060" y="2.890" fill="#e6e9ef" font-size="1.1" text-anchor="end" font-family="sans-serif">BOOT_A</text><text x="35.860" y="2.190" fill="#9aa3b2" font-size="0.9" text-anchor="start" font-family="sans-serif">38</text><line x1="40.640" y1="10.160" x2="35.560" y2="10.160" stroke="#e6e9ef" stroke-width="0.2"/><circle cx="40.640" cy="10.160" r="0.4" fill="#4ea1ff"/><text x="35.060" y="10.510" fill="#e6e9ef" font-size="1.1" text-anchor="end" font-family="sans-serif">PHASE_A</text><text x="35.860" y="9.810" fill="#9aa3b2" font-size="0.9" text-anchor="start" font-family="sans-serif">36</text><line x1="40.640" y1="12.700" x2="35.560" y2="12.700" stroke="#e6e9ef" stroke-width="0.2"/><circle cx="40.640" cy="12.700" r="0.4" fill="#4ea1ff"/><text x="35.060" y="13.050" fill="#e6e9ef" font-size="1.1" text-anchor="end" font-family="sans-serif">PHASE_A</text><text x="35.860" y="12.350" fill="#9aa3b2" font-size="0.9" text-anchor="start" font-family="sans-serif">37</text><line x1="40.640" y1="22.860" x2="35.560" y2="22.860" stroke="#e6e9ef" stroke-width="0.2"/><circle cx="40.640" cy="22.860" r="0.4" fill="#4ea1ff"/><text x="35.060" y="23.210" fill="#e6e9ef" font-size="1.1" text-anchor="end" font-family="sans-serif">RTN_A</text><text x="35.860" y="22.510" fill="#9aa3b2" font-size="0.9" text-anchor="start" font-family="sans-serif">40</text><line x1="40.640" y1="27.940" x2="35.560" y2="27.940" stroke="#e6e9ef" stroke-width="0.2"/><circle cx="40.640" cy="27.940" r="0.4" fill="#4ea1ff"/><text x="35.060" y="28.290" fill="#e6e9ef" font-size="1.1" text-anchor="end" font-family="sans-serif">FB_A</text><text x="35.860" y="27.590" fill="#9aa3b2" font-size="0.9" text-anchor="start" font-family="sans-serif">41</text><line x1="40.640" y1="33.020" x2="35.560" y2="33.020" stroke="#e6e9ef" stroke-width="0.2"/><circle cx="40.640" cy="33.020" r="0.4" fill="#4ea1ff"/><text x="35.060" y="33.370" fill="#e6e9ef" font-size="1.1" text-anchor="end" font-family="sans-serif">PWM_A</text><text x="35.860" y="32.670" fill="#9aa3b2" font-size="0.9" text-anchor="start" font-family="sans-serif">43</text><line x1="40.640" y1="38.100" x2="35.560" y2="38.100" stroke="#e6e9ef" stroke-width="0.2"/><circle cx="40.640" cy="38.100" r="0.4" fill="#4ea1ff"/><text x="35.060" y="38.450" fill="#e6e9ef" font-size="1.1" text-anchor="end" font-family="sans-serif">ISEN_A-</text><text x="35.860" y="37.750" fill="#9aa3b2" font-size="0.9" text-anchor="start" font-family="sans-serif">45</text><line x1="40.640" y1="40.640" x2="35.560" y2="40.640" stroke="#e6e9ef" stroke-width="0.2"/><circle cx="40.640" cy="40.640" r="0.4" fill="#4ea1ff"/><text x="35.060" y="40.990" fill="#e6e9ef" font-size="1.1" text-anchor="end" font-family="sans-serif">ISEN_A+</text><text x="35.860" y="40.290" fill="#9aa3b2" font-size="0.9" text-anchor="start" font-family="sans-serif">46</text><line x1="40.640" y1="50.800" x2="35.560" y2="50.800" stroke="#e6e9ef" stroke-width="0.2"/><circle cx="40.640" cy="50.800" r="0.4" fill="#4ea1ff"/><text x="35.060" y="51.150" fill="#e6e9ef" font-size="1.1" text-anchor="end" font-family="sans-serif">BOOT_B</text><text x="35.860" y="50.450" fill="#9aa3b2" font-size="0.9" text-anchor="start" font-family="sans-serif">33</text><line x1="40.640" y1="58.420" x2="35.560" y2="58.420" stroke="#e6e9ef" stroke-width="0.2"/><circle cx="40.640" cy="58.420" r="0.4" fill="#4ea1ff"/><text x="35.060" y="58.770" fill="#e6e9ef" font-size="1.1" text-anchor="end" font-family="sans-serif">PHASE_B</text><text x="35.860" y="58.070" fill="#9aa3b2" font-size="0.9" text-anchor="start" font-family="sans-serif">34</text><line x1="40.640" y1="60.960" x2="35.560" y2="60.960" stroke="#e6e9ef" stroke-width="0.2"/><circle cx="40.640" cy="60.960" r="0.4" fill="#4ea1ff"/><text x="35.060" y="61.310" fill="#e6e9ef" font-size="1.1" text-anchor="end" font-family="sans-serif">PHASE_B</text><text x="35.860" y="60.610" fill="#9aa3b2" font-size="0.9" text-anchor="start" font-family="sans-serif">35</text><line x1="40.640" y1="71.120" x2="35.560" y2="71.120" stroke="#e6e9ef" stroke-width="0.2"/><circle cx="40.640" cy="71.120" r="0.4" fill="#4ea1ff"/><text x="35.060" y="71.470" fill="#e6e9ef" font-size="1.1" text-anchor="end" font-family="sans-serif">FB_B</text><text x="35.860" y="70.770" fill="#9aa3b2" font-size="0.9" text-anchor="start" font-family="sans-serif">31</text><line x1="40.640" y1="81.280" x2="35.560" y2="81.280" stroke="#e6e9ef" stroke-width="0.2"/><circle cx="40.640" cy="81.280" r="0.4" fill="#4ea1ff"/><text x="35.060" y="81.630" fill="#e6e9ef" font-size="1.1" text-anchor="end" font-family="sans-serif">BOOT_C</text><text x="35.860" y="80.930" fill="#9aa3b2" font-size="0.9" text-anchor="start" font-family="sans-serif">11</text><line x1="40.640" y1="86.360" x2="35.560" y2="86.360" stroke="#e6e9ef" stroke-width="0.2"/><circle cx="40.640" cy="86.360" r="0.4" fill="#4ea1ff"/><text x="35.060" y="86.710" fill="#e6e9ef" font-size="1.1" text-anchor="end" font-family="sans-serif">PHASE_C</text><text x="35.860" y="86.010" fill="#9aa3b2" font-size="0.9" text-anchor="start" font-family="sans-serif">8</text><line x1="40.640" y1="88.900" x2="35.560" y2="88.900" stroke="#e6e9ef" stroke-width="0.2"/><circle cx="40.640" cy="88.900" r="0.4" fill="#4ea1ff"/><text x="35.060" y="89.250" fill="#e6e9ef" font-size="1.1" text-anchor="end" font-family="sans-serif">PHASE_C</text><text x="35.860" y="88.550" fill="#9aa3b2" font-size="0.9" text-anchor="start" font-family="sans-serif">9</text><line x1="40.640" y1="91.440" x2="35.560" y2="91.440" stroke="#e6e9ef" stroke-width="0.2"/><circle cx="40.640" cy="91.440" r="0.4" fill="#4ea1ff"/><text x="35.060" y="91.790" fill="#e6e9ef" font-size="1.1" text-anchor="end" font-family="sans-serif">PHASE_C</text><text x="35.860" y="91.090" fill="#9aa3b2" font-size="0.9" text-anchor="start" font-family="sans-serif">10</text><line x1="40.640" y1="101.600" x2="35.560" y2="101.600" stroke="#e6e9ef" stroke-width="0.2"/><circle cx="40.640" cy="101.600" r="0.4" fill="#4ea1ff"/><text x="35.060" y="101.950" fill="#e6e9ef" font-size="1.1" text-anchor="end" font-family="sans-serif">FB_C</text><text x="35.860" y="101.250" fill="#9aa3b2" font-size="0.9" text-anchor="start" font-family="sans-serif">15</text><line x1="40.640" y1="111.760" x2="35.560" y2="111.760" stroke="#e6e9ef" stroke-width="0.2"/><circle cx="40.640" cy="111.760" r="0.4" fill="#4ea1ff"/><text x="35.060" y="112.110" fill="#e6e9ef" font-size="1.1" text-anchor="end" font-family="sans-serif">BOOT_D</text><text x="35.860" y="111.410" fill="#9aa3b2" font-size="0.9" text-anchor="start" font-family="sans-serif">4</text><line x1="40.640" y1="116.840" x2="35.560" y2="116.840" stroke="#e6e9ef" stroke-width="0.2"/><circle cx="40.640" cy="116.840" r="0.4" fill="#4ea1ff"/><text x="35.060" y="117.190" fill="#e6e9ef" font-size="1.1" text-anchor="end" font-family="sans-serif">PHASE_D</text><text x="35.860" y="116.490" fill="#9aa3b2" font-size="0.9" text-anchor="start" font-family="sans-serif">5</text><line x1="40.640" y1="119.380" x2="35.560" y2="119.380" stroke="#e6e9ef" stroke-width="0.2"/><circle cx="40.640" cy="119.380" r="0.4" fill="#4ea1ff"/><text x="35.060" y="119.730" fill="#e6e9ef" font-size="1.1" text-anchor="end" font-family="sans-serif">PHASE_D</text><text x="35.860" y="119.030" fill="#9aa3b2" font-size="0.9" text-anchor="start" font-family="sans-serif">6</text><line x1="40.640" y1="121.920" x2="35.560" y2="121.920" stroke="#e6e9ef" stroke-width="0.2"/><circle cx="40.640" cy="121.920" r="0.4" fill="#4ea1ff"/><text x="35.060" y="122.270" fill="#e6e9ef" font-size="1.1" text-anchor="end" font-family="sans-serif">PHASE_D</text><text x="35.860" y="121.570" fill="#9aa3b2" font-size="0.9" text-anchor="start" font-family="sans-serif">7</text><line x1="40.640" y1="132.080" x2="35.560" y2="132.080" stroke="#e6e9ef" stroke-width="0.2"/><circle cx="40.640" cy="132.080" r="0.4" fill="#4ea1ff"/><text x="35.060" y="132.430" fill="#e6e9ef" font-size="1.1" text-anchor="end" font-family="sans-serif">FB_D</text><text x="35.860" y="131.730" fill="#9aa3b2" font-size="0.9" text-anchor="start" font-family="sans-serif">56</text><line x1="40.640" y1="137.160" x2="35.560" y2="137.160" stroke="#e6e9ef" stroke-width="0.2"/><circle cx="40.640" cy="137.160" r="0.4" fill="#4ea1ff"/><text x="35.060" y="137.510" fill="#e6e9ef" font-size="1.1" text-anchor="end" font-family="sans-serif">AGND</text><text x="35.860" y="136.810" fill="#9aa3b2" font-size="0.9" text-anchor="start" font-family="sans-serif">50</text><line x1="40.640" y1="139.700" x2="35.560" y2="139.700" stroke="#e6e9ef" stroke-width="0.2"/><circle cx="40.640" cy="139.700" r="0.4" fill="#4ea1ff"/><text x="35.060" y="140.050" fill="#e6e9ef" font-size="1.1" text-anchor="end" font-family="sans-serif">GND</text><text x="35.860" y="139.350" fill="#9aa3b2" font-size="0.9" text-anchor="start" font-family="sans-serif">57</text></svg>