<svg xmlns="http://www.w3.org/2000/svg" viewBox="-1.50 -5.50 121.68 34.94" preserveAspectRatio="xMidYMid meet" style="width:100%;height:100%"><rect x="-1.50" y="-5.50" width="121.68" height="34.94" fill="#12151c"/><g transform="translate(5.08 0)"><rect x="0.000" y="-0.000" width="25.400" height="20.320" fill="#1e222b" stroke="#4ea1ff" stroke-width="0.25"/><line x1="-5.080" y1="2.540" x2="0.000" y2="2.540" stroke="#e6e9ef" stroke-width="0.2"/><circle cx="-5.080" cy="2.540" r="0.4" fill="#4ea1ff"/><text x="0.500" y="2.890" fill="#e6e9ef" font-size="1.1" text-anchor="start" font-family="sans-serif">RUN0</text><text x="-0.300" y="2.190" fill="#9aa3b2" font-size="0.9" text-anchor="end" font-family="sans-serif">4</text><line x1="-5.080" y1="17.780" x2="0.000" y2="17.780" stroke="#e6e9ef" stroke-width="0.2"/><circle cx="-5.080" cy="17.780" r="0.4" fill="#4ea1ff"/><text x="0.500" y="18.130" fill="#e6e9ef" font-size="1.1" text-anchor="start" font-family="sans-serif">ITH0</text><text x="-0.300" y="17.430" fill="#9aa3b2" font-size="0.9" text-anchor="end" font-family="sans-serif">28</text><line x1="30.480" y1="2.540" x2="25.400" y2="2.540" stroke="#e6e9ef" stroke-width="0.2"/><circle cx="30.480" cy="2.540" r="0.4" fill="#4ea1ff"/><text x="24.900" y="2.890" fill="#e6e9ef" font-size="1.1" text-anchor="end" font-family="sans-serif">TG0</text><text x="25.700" y="2.190" fill="#9aa3b2" font-size="0.9" text-anchor="start" font-family="sans-serif">24</text><line x1="30.480" y1="5.080" x2="25.400" y2="5.080" stroke="#e6e9ef" stroke-width="0.2"/><circle cx="30.480" cy="5.080" r="0.4" fill="#4ea1ff"/><text x="24.900" y="5.430" fill="#e6e9ef" font-size="1.1" text-anchor="end" font-family="sans-serif">BOOST0</text><text x="25.700" y="4.730" fill="#9aa3b2" font-size="0.9" text-anchor="start" font-family="sans-serif">22</text><line x1="30.480" y1="7.620" x2="25.400" y2="7.620" stroke="#e6e9ef" stroke-width="0.2"/><circle cx="30.480" cy="7.620" r="0.4" fill="#4ea1ff"/><text x="24.900" y="7.970" fill="#e6e9ef" font-size="1.1" text-anchor="end" font-family="sans-serif">SW0</text><text x="25.700" y="7.270" fill="#9aa3b2" font-size="0.9" text-anchor="start" font-family="sans-serif">23</text><line x1="30.480" y1="10.160" x2="25.400" y2="10.160" stroke="#e6e9ef" stroke-width="0.2"/><circle cx="30.480" cy="10.160" r="0.4" fill="#4ea1ff"/><text x="24.900" y="10.510" fill="#e6e9ef" font-size="1.1" text-anchor="end" font-family="sans-serif">BG0</text><text x="25.700" y="9.810" fill="#9aa3b2" font-size="0.9" text-anchor="start" font-family="sans-serif">21</text><line x1="30.480" y1="15.240" x2="25.400" y2="15.240" stroke="#e6e9ef" stroke-width="0.2"/><circle cx="30.480" cy="15.240" r="0.4" fill="#4ea1ff"/><text x="24.900" y="15.590" fill="#e6e9ef" font-size="1.1" text-anchor="end" font-family="sans-serif">ISENSE0+</text><text x="25.700" y="14.890" fill="#9aa3b2" font-size="0.9" text-anchor="start" font-family="sans-serif">2</text><line x1="30.480" y1="17.780" x2="25.400" y2="17.780" stroke="#e6e9ef" stroke-width="0.2"/><circle cx="30.480" cy="17.780" r="0.4" fill="#4ea1ff"/><text x="24.900" y="18.130" fill="#e6e9ef" font-size="1.1" text-anchor="end" font-family="sans-serif">ISENSE0-</text><text x="25.700" y="17.430" fill="#9aa3b2" font-size="0.9" text-anchor="start" font-family="sans-serif">3</text><text x="12.70" y="-2.00" fill="#9aa3b2" font-size="1.6" text-anchor="middle" font-family="sans-serif">A</text></g><g transform="translate(46.64 0)"><rect x="0.000" y="-0.000" width="25.400" height="20.320" fill="#1e222b" stroke="#4ea1ff" stroke-width="0.25"/><line x1="-5.080" y1="2.540" x2="0.000" y2="2.540" stroke="#e6e9ef" stroke-width="0.2"/><circle cx="-5.080" cy="2.540" r="0.4" fill="#4ea1ff"/><text x="0.500" y="2.890" fill="#e6e9ef" font-size="1.1" text-anchor="start" font-family="sans-serif">RUN1</text><text x="-0.300" y="2.190" fill="#9aa3b2" font-size="0.9" text-anchor="end" font-family="sans-serif">5</text><line x1="-5.080" y1="17.780" x2="0.000" y2="17.780" stroke="#e6e9ef" stroke-width="0.2"/><circle cx="-5.080" cy="17.780" r="0.4" fill="#4ea1ff"/><text x="0.500" y="18.130" fill="#e6e9ef" font-size="1.1" text-anchor="start" font-family="sans-serif">ITH1</text><text x="-0.300" y="17.430" fill="#9aa3b2" font-size="0.9" text-anchor="end" font-family="sans-serif">9</text><line x1="30.480" y1="2.540" x2="25.400" y2="2.540" stroke="#e6e9ef" stroke-width="0.2"/><circle cx="30.480" cy="2.540" r="0.4" fill="#4ea1ff"/><text x="24.900" y="2.890" fill="#e6e9ef" font-size="1.1" text-anchor="end" font-family="sans-serif">TG1</text><text x="25.700" y="2.190" fill="#9aa3b2" font-size="0.9" text-anchor="start" font-family="sans-serif">13</text><line x1="30.480" y1="5.080" x2="25.400" y2="5.080" stroke="#e6e9ef" stroke-width="0.2"/><circle cx="30.480" cy="5.080" r="0.4" fill="#4ea1ff"/><text x="24.900" y="5.430" fill="#e6e9ef" font-size="1.1" text-anchor="end" font-family="sans-serif">BOOST1</text><text x="25.700" y="4.730" fill="#9aa3b2" font-size="0.9" text-anchor="start" font-family="sans-serif">15</text><line x1="30.480" y1="7.620" x2="25.400" y2="7.620" stroke="#e6e9ef" stroke-width="0.2"/><circle cx="30.480" cy="7.620" r="0.4" fill="#4ea1ff"/><text x="24.900" y="7.970" fill="#e6e9ef" font-size="1.1" text-anchor="end" font-family="sans-serif">SW1</text><text x="25.700" y="7.270" fill="#9aa3b2" font-size="0.9" text-anchor="start" font-family="sans-serif">14</text><line x1="30.480" y1="10.160" x2="25.400" y2="10.160" stroke="#e6e9ef" stroke-width="0.2"/><circle cx="30.480" cy="10.160" r="0.4" fill="#4ea1ff"/><text x="24.900" y="10.510" fill="#e6e9ef" font-size="1.1" text-anchor="end" font-family="sans-serif">BG1</text><text x="25.700" y="9.810" fill="#9aa3b2" font-size="0.9" text-anchor="start" font-family="sans-serif">16</text><line x1="30.480" y1="15.240" x2="25.400" y2="15.240" stroke="#e6e9ef" stroke-width="0.2"/><circle cx="30.480" cy="15.240" r="0.4" fill="#4ea1ff"/><text x="24.900" y="15.590" fill="#e6e9ef" font-size="1.1" text-anchor="end" font-family="sans-serif">ISENSE1+</text><text x="25.700" y="14.890" fill="#9aa3b2" font-size="0.9" text-anchor="start" font-family="sans-serif">7</text><line x1="30.480" y1="17.780" x2="25.400" y2="17.780" stroke="#e6e9ef" stroke-width="0.2"/><circle cx="30.480" cy="17.780" r="0.4" fill="#4ea1ff"/><text x="24.900" y="18.130" fill="#e6e9ef" font-size="1.1" text-anchor="end" font-family="sans-serif">ISENSE1-</text><text x="25.700" y="17.430" fill="#9aa3b2" font-size="0.9" text-anchor="start" font-family="sans-serif">6</text><text x="12.70" y="-2.00" fill="#9aa3b2" font-size="1.6" text-anchor="middle" font-family="sans-serif">B</text></g><g transform="translate(88.20 0)"><rect x="0.000" y="-0.000" width="25.400" height="27.940" fill="#1e222b" stroke="#4ea1ff" stroke-width="0.25"/><rect x="24.892" y="24.130" width="0.508" height="2.540" fill="#1e222b" stroke="#4ea1ff" stroke-width="0.25"/><line x1="-5.080" y1="2.540" x2="0.000" y2="2.540" stroke="#e6e9ef" stroke-width="0.2"/><circle cx="-5.080" cy="2.540" r="0.4" fill="#4ea1ff"/><text x="0.500" y="2.890" fill="#e6e9ef" font-size="1.1" text-anchor="start" font-family="sans-serif">~{FAULT0}</text><text x="-0.300" y="2.190" fill="#9aa3b2" font-size="0.9" text-anchor="end" font-family="sans-serif">26</text><line x1="-5.080" y1="5.080" x2="0.000" y2="5.080" stroke="#e6e9ef" stroke-width="0.2"/><circle cx="-5.080" cy="5.080" r="0.4" fill="#4ea1ff"/><text x="0.500" y="5.430" fill="#e6e9ef" font-size="1.1" text-anchor="start" font-family="sans-serif">~{FAULT1}</text><text x="-0.300" y="4.730" fill="#9aa3b2" font-size="0.9" text-anchor="end" font-family="sans-serif">25</text><line x1="-5.080" y1="10.160" x2="0.000" y2="10.160" stroke="#e6e9ef" stroke-width="0.2"/><circle cx="-5.080" cy="10.160" r="0.4" fill="#4ea1ff"/><text x="0.500" y="10.510" fill="#e6e9ef" font-size="1.1" text-anchor="start" font-family="sans-serif">MODE0</text><text x="-0.300" y="9.810" fill="#9aa3b2" font-size="0.9" text-anchor="end" font-family="sans-serif">1</text><line x1="-5.080" y1="12.700" x2="0.000" y2="12.700" stroke="#e6e9ef" stroke-width="0.2"/><circle cx="-5.080" cy="12.700" r="0.4" fill="#4ea1ff"/><text x="0.500" y="13.050" fill="#e6e9ef" font-size="1.1" text-anchor="start" font-family="sans-serif">MODE1</text><text x="-0.300" y="12.350" fill="#9aa3b2" font-size="0.9" text-anchor="end" font-family="sans-serif">8</text><line x1="-5.080" y1="17.780" x2="0.000" y2="17.780" stroke="#e6e9ef" stroke-width="0.2"/><circle cx="-5.080" cy="17.780" r="0.4" fill="#4ea1ff"/><text x="0.500" y="18.130" fill="#e6e9ef" font-size="1.1" text-anchor="start" font-family="sans-serif">SYNC</text><text x="-0.300" y="17.430" fill="#9aa3b2" font-size="0.9" text-anchor="end" font-family="sans-serif">11</text><line x1="-5.080" y1="22.860" x2="0.000" y2="22.860" stroke="#e6e9ef" stroke-width="0.2"/><circle cx="-5.080" cy="22.860" r="0.4" fill="#4ea1ff"/><text x="0.500" y="23.210" fill="#e6e9ef" font-size="1.1" text-anchor="start" font-family="sans-serif">EXTVCC</text><text x="-0.300" y="22.510" fill="#9aa3b2" font-size="0.9" text-anchor="end" font-family="sans-serif">18</text><line x1="-5.080" y1="25.400" x2="0.000" y2="25.400" stroke="#e6e9ef" stroke-width="0.2"/><circle cx="-5.080" cy="25.400" r="0.4" fill="#4ea1ff"/><text x="0.500" y="25.750" fill="#e6e9ef" font-size="1.1" text-anchor="start" font-family="sans-serif">VIN</text><text x="-0.300" y="25.050" fill="#9aa3b2" font-size="0.9" text-anchor="end" font-family="sans-serif">20</text><line x1="30.480" y1="2.540" x2="25.400" y2="2.540" stroke="#e6e9ef" stroke-width="0.2"/><circle cx="30.480" cy="2.540" r="0.4" fill="#4ea1ff"/><text x="24.900" y="2.890" fill="#e6e9ef" font-size="1.1" text-anchor="end" font-family="sans-serif">FREQ</text><text x="25.700" y="2.190" fill="#9aa3b2" font-size="0.9" text-anchor="start" font-family="sans-serif">27</text><line x1="30.480" y1="7.620" x2="25.400" y2="7.620" stroke="#e6e9ef" stroke-width="0.2"/><circle cx="30.480" cy="7.620" r="0.4" fill="#4ea1ff"/><text x="24.900" y="7.970" fill="#e6e9ef" font-size="1.1" text-anchor="end" font-family="sans-serif">PHASMD</text><text x="25.700" y="7.270" fill="#9aa3b2" font-size="0.9" text-anchor="start" font-family="sans-serif">12</text><line x1="30.480" y1="12.700" x2="25.400" y2="12.700" stroke="#e6e9ef" stroke-width="0.2"/><circle cx="30.480" cy="12.700" r="0.4" fill="#4ea1ff"/><text x="24.900" y="13.050" fill="#e6e9ef" font-size="1.1" text-anchor="end" font-family="sans-serif">ILIM</text><text x="25.700" y="12.350" fill="#9aa3b2" font-size="0.9" text-anchor="start" font-family="sans-serif">10</text><line x1="30.480" y1="20.320" x2="25.400" y2="20.320" stroke="#e6e9ef" stroke-width="0.2"/><circle cx="30.480" cy="20.320" r="0.4" fill="#4ea1ff"/><text x="24.900" y="20.670" fill="#e6e9ef" font-size="1.1" text-anchor="end" font-family="sans-serif">INTVCC</text><text x="25.700" y="19.970" fill="#9aa3b2" font-size="0.9" text-anchor="start" font-family="sans-serif">17</text><line x1="30.480" y1="22.860" x2="25.400" y2="22.860" stroke="#e6e9ef" stroke-width="0.2"/><circle cx="30.480" cy="22.860" r="0.4" fill="#4ea1ff"/><text x="24.900" y="23.210" fill="#e6e9ef" font-size="1.1" text-anchor="end" font-family="sans-serif">PGND</text><text x="25.700" y="22.510" fill="#9aa3b2" font-size="0.9" text-anchor="start" font-family="sans-serif">19</text><line x1="30.480" y1="25.400" x2="25.400" y2="25.400" stroke="#e6e9ef" stroke-width="0.2"/><circle cx="30.480" cy="25.400" r="0.4" fill="#4ea1ff"/><text x="24.900" y="25.750" fill="#e6e9ef" font-size="1.1" text-anchor="end" font-family="sans-serif">SGND</text><text x="25.700" y="25.050" fill="#9aa3b2" font-size="0.9" text-anchor="start" font-family="sans-serif">29</text><text x="12.70" y="-2.00" fill="#9aa3b2" font-size="1.6" text-anchor="middle" font-family="sans-serif">C</text></g></svg>