<svg xmlns="http://www.w3.org/2000/svg" viewBox="-12.51 -4.73 25.02 10.31" preserveAspectRatio="xMidYMid meet" style="width:100%;height:100%"><rect x="-12.51" y="-4.73" width="25.02" height="10.31" fill="#12151c"/><circle cx="11.002" cy="4.327" r="0.125" fill="none" stroke="#e6e9ef" stroke-width="0.12" opacity="1"/><circle cx="11.000" cy="4.327" r="0.250" fill="none" stroke="#6b7280" stroke-width="0.12" opacity="0.8"/><circle cx="-11.000" cy="-1.000" r="0.250" fill="none" stroke="#6b7280" stroke-width="0.1"/><circle cx="-11.000" cy="1.000" r="0.250" fill="none" stroke="#6b7280" stroke-width="0.1"/><circle cx="-9.000" cy="-1.000" r="0.250" fill="none" stroke="#6b7280" stroke-width="0.1"/><circle cx="-9.000" cy="1.000" r="0.250" fill="none" stroke="#6b7280" stroke-width="0.1"/><circle cx="-7.000" cy="-1.000" r="0.250" fill="none" stroke="#6b7280" stroke-width="0.1"/><circle cx="-7.000" cy="1.000" r="0.250" fill="none" stroke="#6b7280" stroke-width="0.1"/><circle cx="-5.000" cy="-1.000" r="0.250" fill="none" stroke="#6b7280" stroke-width="0.1"/><circle cx="-5.000" cy="1.000" r="0.250" fill="none" stroke="#6b7280" stroke-width="0.1"/><circle cx="-3.000" cy="-1.000" r="0.250" fill="none" stroke="#6b7280" stroke-width="0.1"/><circle cx="-3.000" cy="1.000" r="0.250" fill="none" stroke="#6b7280" stroke-width="0.1"/><circle cx="-1.000" cy="-1.000" r="0.250" fill="none" stroke="#6b7280" stroke-width="0.1"/><circle cx="-1.000" cy="1.000" r="0.250" fill="none" stroke="#6b7280" stroke-width="0.1"/><circle cx="1.000" cy="-1.000" r="0.250" fill="none" stroke="#6b7280" stroke-width="0.1"/><circle cx="1.000" cy="1.000" r="0.250" fill="none" stroke="#6b7280" stroke-width="0.1"/><circle cx="3.000" cy="-1.000" r="0.250" fill="none" stroke="#6b7280" stroke-width="0.1"/><circle cx="3.000" cy="1.000" r="0.250" fill="none" stroke="#6b7280" stroke-width="0.1"/><circle cx="5.000" cy="-1.000" r="0.250" fill="none" stroke="#6b7280" stroke-width="0.1"/><circle cx="5.000" cy="1.000" r="0.250" fill="none" stroke="#6b7280" stroke-width="0.1"/><circle cx="7.000" cy="-1.000" r="0.250" fill="none" stroke="#6b7280" stroke-width="0.1"/><circle cx="7.000" cy="1.000" r="0.250" fill="none" stroke="#6b7280" stroke-width="0.1"/><circle cx="9.000" cy="-1.000" r="0.250" fill="none" stroke="#6b7280" stroke-width="0.1"/><circle cx="9.000" cy="1.000" r="0.250" fill="none" stroke="#6b7280" stroke-width="0.1"/><circle cx="11.000" cy="-1.000" r="0.250" fill="none" stroke="#6b7280" stroke-width="0.1"/><circle cx="11.000" cy="1.000" r="0.250" fill="none" stroke="#6b7280" stroke-width="0.1"/><rect x="10.490" y="1.575" width="1.020" height="2.160" rx="0.000" fill="#c79b5c"/><rect x="10.490" y="-3.735" width="1.020" height="2.160" rx="0.000" fill="#c79b5c"/><rect x="8.490" y="1.575" width="1.020" height="2.160" rx="0.000" fill="#c79b5c"/><rect x="8.490" y="-3.735" width="1.020" height="2.160" rx="0.000" fill="#c79b5c"/><rect x="6.490" y="1.575" width="1.020" height="2.160" rx="0.000" fill="#c79b5c"/><rect x="6.490" y="-3.735" width="1.020" height="2.160" rx="0.000" fill="#c79b5c"/><rect x="4.490" y="1.575" width="1.020" height="2.160" rx="0.000" fill="#c79b5c"/><rect x="4.490" y="-3.735" width="1.020" height="2.160" rx="0.000" fill="#c79b5c"/><rect x="2.490" y="1.575" width="1.020" height="2.160" rx="0.000" fill="#c79b5c"/><rect x="2.490" y="-3.735" width="1.020" height="2.160" rx="0.000" fill="#c79b5c"/><rect x="0.490" y="1.575" width="1.020" height="2.160" rx="0.000" fill="#c79b5c"/><rect x="0.490" y="-3.735" width="1.020" height="2.160" rx="0.000" fill="#c79b5c"/><rect x="-1.510" y="1.575" width="1.020" height="2.160" rx="0.000" fill="#c79b5c"/><rect x="-1.510" y="-3.735" width="1.020" height="2.160" rx="0.000" fill="#c79b5c"/><rect x="-3.510" y="1.575" width="1.020" height="2.160" rx="0.000" fill="#c79b5c"/><rect x="-3.510" y="-3.735" width="1.020" height="2.160" rx="0.000" fill="#c79b5c"/><rect x="-5.510" y="1.575" width="1.020" height="2.160" rx="0.000" fill="#c79b5c"/><rect x="-5.510" y="-3.735" width="1.020" height="2.160" rx="0.000" fill="#c79b5c"/><rect x="-7.510" y="1.575" width="1.020" height="2.160" rx="0.000" fill="#c79b5c"/><rect x="-7.510" y="-3.735" width="1.020" height="2.160" rx="0.000" fill="#c79b5c"/><rect x="-9.510" y="1.575" width="1.020" height="2.160" rx="0.000" fill="#c79b5c"/><rect x="-9.510" y="-3.735" width="1.020" height="2.160" rx="0.000" fill="#c79b5c"/><rect x="-11.510" y="1.575" width="1.020" height="2.160" rx="0.000" fill="#c79b5c"/><rect x="-11.510" y="-3.735" width="1.020" height="2.160" rx="0.000" fill="#c79b5c"/></svg>