<svg xmlns="http://www.w3.org/2000/svg" viewBox="-2.35 -1.85 4.70 3.70" preserveAspectRatio="xMidYMid meet" style="width:100%;height:100%"><rect x="-2.35" y="-1.85" width="4.70" height="3.70" fill="#12151c"/><line x1="-1.100" y1="-0.300" x2="-0.800" y2="0.000" stroke="#4a5160" stroke-width="0.080" stroke-linecap="round" opacity="0.7"/><line x1="-1.100" y1="-0.300" x2="-0.500" y2="-0.300" stroke="#4a5160" stroke-width="0.080" stroke-linecap="round" opacity="0.7"/><line x1="-1.100" y1="0.300" x2="-1.100" y2="-0.300" stroke="#4a5160" stroke-width="0.080" stroke-linecap="round" opacity="0.7"/><line x1="-1.100" y1="0.300" x2="-0.800" y2="0.000" stroke="#4a5160" stroke-width="0.080" stroke-linecap="round" opacity="0.7"/><line x1="-1.100" y1="0.300" x2="-0.500" y2="0.300" stroke="#4a5160" stroke-width="0.080" stroke-linecap="round" opacity="0.7"/><line x1="-0.500" y1="0.000" x2="0.000" y2="0.000" stroke="#4a5160" stroke-width="0.080" stroke-linecap="round" opacity="0.7"/><line x1="-0.500" y1="0.300" x2="-0.500" y2="-0.300" stroke="#4a5160" stroke-width="0.080" stroke-linecap="round" opacity="0.7"/><line x1="-0.200" y1="-0.600" x2="0.000" y2="-0.400" stroke="#4a5160" stroke-width="0.080" stroke-linecap="round" opacity="0.7"/><line x1="-0.200" y1="-0.600" x2="0.200" y2="-0.600" stroke="#4a5160" stroke-width="0.080" stroke-linecap="round" opacity="0.7"/><line x1="-0.200" y1="-0.200" x2="-0.200" y2="-0.600" stroke="#4a5160" stroke-width="0.080" stroke-linecap="round" opacity="0.7"/><line x1="-0.200" y1="-0.200" x2="0.200" y2="-0.200" stroke="#4a5160" stroke-width="0.080" stroke-linecap="round" opacity="0.7"/><line x1="-0.200" y1="0.200" x2="0.200" y2="0.200" stroke="#4a5160" stroke-width="0.080" stroke-linecap="round" opacity="0.7"/><line x1="-0.200" y1="0.600" x2="-0.200" y2="0.200" stroke="#4a5160" stroke-width="0.080" stroke-linecap="round" opacity="0.7"/><line x1="-0.200" y1="0.600" x2="0.000" y2="0.400" stroke="#4a5160" stroke-width="0.080" stroke-linecap="round" opacity="0.7"/><line x1="-0.200" y1="0.600" x2="0.200" y2="0.600" stroke="#4a5160" stroke-width="0.080" stroke-linecap="round" opacity="0.7"/><line x1="0.000" y1="-0.400" x2="0.200" y2="-0.600" stroke="#4a5160" stroke-width="0.080" stroke-linecap="round" opacity="0.7"/><line x1="0.000" y1="0.000" x2="0.000" y2="-0.500" stroke="#4a5160" stroke-width="0.080" stroke-linecap="round" opacity="0.7"/><line x1="0.000" y1="0.000" x2="0.500" y2="0.000" stroke="#4a5160" stroke-width="0.080" stroke-linecap="round" opacity="0.7"/><line x1="0.000" y1="0.400" x2="0.200" y2="0.600" stroke="#4a5160" stroke-width="0.080" stroke-linecap="round" opacity="0.7"/><line x1="0.000" y1="0.500" x2="0.000" y2="0.000" stroke="#4a5160" stroke-width="0.080" stroke-linecap="round" opacity="0.7"/><line x1="0.200" y1="-0.200" x2="0.200" y2="-0.600" stroke="#4a5160" stroke-width="0.080" stroke-linecap="round" opacity="0.7"/><line x1="0.200" y1="0.600" x2="0.200" y2="0.200" stroke="#4a5160" stroke-width="0.080" stroke-linecap="round" opacity="0.7"/><line x1="0.500" y1="-0.300" x2="1.100" y2="-0.300" stroke="#4a5160" stroke-width="0.080" stroke-linecap="round" opacity="0.7"/><line x1="0.500" y1="0.300" x2="0.500" y2="-0.300" stroke="#4a5160" stroke-width="0.080" stroke-linecap="round" opacity="0.7"/><line x1="0.500" y1="0.300" x2="1.100" y2="0.300" stroke="#4a5160" stroke-width="0.080" stroke-linecap="round" opacity="0.7"/><line x1="0.800" y1="0.000" x2="1.100" y2="-0.300" stroke="#4a5160" stroke-width="0.080" stroke-linecap="round" opacity="0.7"/><line x1="0.800" y1="0.000" x2="1.100" y2="0.300" stroke="#4a5160" stroke-width="0.080" stroke-linecap="round" opacity="0.7"/><line x1="1.100" y1="0.300" x2="1.100" y2="-0.300" stroke="#4a5160" stroke-width="0.080" stroke-linecap="round" opacity="0.7"/><line x1="-1.350" y1="-0.850" x2="1.350" y2="-0.850" stroke="#d24d4d" stroke-width="0.080" stroke-linecap="round" opacity="0.7"/><line x1="-1.350" y1="0.850" x2="-1.350" y2="-0.850" stroke="#d24d4d" stroke-width="0.080" stroke-linecap="round" opacity="0.7"/><line x1="-1.350" y1="0.850" x2="1.350" y2="0.850" stroke="#d24d4d" stroke-width="0.080" stroke-linecap="round" opacity="0.7"/><line x1="1.350" y1="0.850" x2="1.350" y2="-0.850" stroke="#d24d4d" stroke-width="0.080" stroke-linecap="round" opacity="0.7"/><line x1="-0.800" y1="-0.400" x2="0.800" y2="-0.400" stroke="#6b7280" stroke-width="0.100" stroke-linecap="round" opacity="0.8"/><line x1="-0.800" y1="0.400" x2="-0.800" y2="-0.400" stroke="#6b7280" stroke-width="0.100" stroke-linecap="round" opacity="0.8"/><line x1="-0.800" y1="0.400" x2="0.800" y2="0.400" stroke="#6b7280" stroke-width="0.100" stroke-linecap="round" opacity="0.8"/><line x1="-0.550" y1="0.400" x2="-0.550" y2="-0.400" stroke="#6b7280" stroke-width="0.100" stroke-linecap="round" opacity="0.8"/><line x1="0.550" y1="0.400" x2="0.550" y2="-0.400" stroke="#6b7280" stroke-width="0.100" stroke-linecap="round" opacity="0.8"/><line x1="0.800" y1="0.400" x2="0.800" y2="-0.400" stroke="#6b7280" stroke-width="0.100" stroke-linecap="round" opacity="0.8"/><path d="M -0.200 0.400 A 0.200 0.200 0 0 1 0.200 0.400" fill="none" stroke="#6b7280" stroke-width="0.12" opacity="0.8"/><path d="M 0.200 -0.400 A 0.200 0.200 0 0 1 -0.200 -0.400" fill="none" stroke="#6b7280" stroke-width="0.12" opacity="0.8"/><rect x="-1.100" y="-0.300" width="0.600" height="0.600" rx="0.000" fill="#c79b5c"/><rect x="-0.200" y="-0.600" width="0.000" height="0.000" rx="0.000" fill="#c79b5c"/><rect x="-0.200" y="-0.600" width="0.400" height="0.400" rx="0.000" fill="#c79b5c"/><rect x="-0.200" y="0.200" width="0.400" height="0.400" rx="0.000" fill="#c79b5c"/><rect x="0.500" y="-0.300" width="0.600" height="0.600" rx="0.000" fill="#c79b5c"/></svg>