<svg xmlns="http://www.w3.org/2000/svg" viewBox="-4.80 -3.48 9.61 6.95" preserveAspectRatio="xMidYMid meet" style="width:100%;height:100%"><rect x="-4.80" y="-3.48" width="9.61" height="6.95" fill="#12151c"/><line x1="-1.425" y1="0.127" x2="-0.996" y2="1.662" stroke="#e6e9ef" stroke-width="0.200" stroke-linecap="round" opacity="1"/><line x1="-1.340" y1="-1.659" x2="-0.412" y2="1.662" stroke="#e6e9ef" stroke-width="0.200" stroke-linecap="round" opacity="1"/><line x1="-0.756" y1="-1.659" x2="0.172" y2="1.662" stroke="#e6e9ef" stroke-width="0.200" stroke-linecap="round" opacity="1"/><line x1="-0.172" y1="-1.659" x2="0.757" y2="1.662" stroke="#e6e9ef" stroke-width="0.200" stroke-linecap="round" opacity="1"/><line x1="0.412" y1="-1.659" x2="1.340" y2="1.660" stroke="#e6e9ef" stroke-width="0.200" stroke-linecap="round" opacity="1"/><line x1="0.997" y1="-1.659" x2="1.425" y2="-0.127" stroke="#e6e9ef" stroke-width="0.200" stroke-linecap="round" opacity="1"/><line x1="-3.555" y1="-2.225" x2="-1.775" y2="-2.225" stroke="#4a5160" stroke-width="0.080" stroke-linecap="round" opacity="0.7"/><line x1="-3.555" y1="2.225" x2="-3.555" y2="-2.225" stroke="#4a5160" stroke-width="0.080" stroke-linecap="round" opacity="0.7"/><line x1="-3.555" y1="2.225" x2="-1.775" y2="2.225" stroke="#4a5160" stroke-width="0.080" stroke-linecap="round" opacity="0.7"/><line x1="-3.165" y1="0.000" x2="-2.665" y2="0.000" stroke="#4a5160" stroke-width="0.080" stroke-linecap="round" opacity="0.7"/><line x1="-2.665" y1="0.000" x2="-2.665" y2="-0.500" stroke="#4a5160" stroke-width="0.080" stroke-linecap="round" opacity="0.7"/><line x1="-2.665" y1="0.000" x2="-2.165" y2="0.000" stroke="#4a5160" stroke-width="0.080" stroke-linecap="round" opacity="0.7"/><line x1="-2.665" y1="0.500" x2="-2.665" y2="0.000" stroke="#4a5160" stroke-width="0.080" stroke-linecap="round" opacity="0.7"/><line x1="-1.775" y1="2.225" x2="-1.775" y2="-2.225" stroke="#4a5160" stroke-width="0.080" stroke-linecap="round" opacity="0.7"/><line x1="-0.500" y1="0.000" x2="0.000" y2="0.000" stroke="#4a5160" stroke-width="0.080" stroke-linecap="round" opacity="0.7"/><line x1="0.000" y1="0.000" x2="0.000" y2="-0.500" stroke="#4a5160" stroke-width="0.080" stroke-linecap="round" opacity="0.7"/><line x1="0.000" y1="0.000" x2="0.500" y2="0.000" stroke="#4a5160" stroke-width="0.080" stroke-linecap="round" opacity="0.7"/><line x1="0.000" y1="0.500" x2="0.000" y2="0.000" stroke="#4a5160" stroke-width="0.080" stroke-linecap="round" opacity="0.7"/><line x1="1.775" y1="-2.225" x2="3.555" y2="-2.225" stroke="#4a5160" stroke-width="0.080" stroke-linecap="round" opacity="0.7"/><line x1="1.775" y1="2.225" x2="1.775" y2="-2.225" stroke="#4a5160" stroke-width="0.080" stroke-linecap="round" opacity="0.7"/><line x1="1.775" y1="2.225" x2="3.555" y2="2.225" stroke="#4a5160" stroke-width="0.080" stroke-linecap="round" opacity="0.7"/><line x1="2.165" y1="0.000" x2="2.665" y2="0.000" stroke="#4a5160" stroke-width="0.080" stroke-linecap="round" opacity="0.7"/><line x1="2.665" y1="0.000" x2="2.665" y2="-0.500" stroke="#4a5160" stroke-width="0.080" stroke-linecap="round" opacity="0.7"/><line x1="2.665" y1="0.000" x2="3.165" y2="0.000" stroke="#4a5160" stroke-width="0.080" stroke-linecap="round" opacity="0.7"/><line x1="2.665" y1="0.500" x2="2.665" y2="0.000" stroke="#4a5160" stroke-width="0.080" stroke-linecap="round" opacity="0.7"/><line x1="3.555" y1="2.225" x2="3.555" y2="-2.225" stroke="#4a5160" stroke-width="0.080" stroke-linecap="round" opacity="0.7"/><line x1="-3.805" y1="-2.475" x2="3.805" y2="-2.475" stroke="#d24d4d" stroke-width="0.080" stroke-linecap="round" opacity="0.7"/><line x1="-3.805" y1="2.475" x2="-3.805" y2="-2.475" stroke="#d24d4d" stroke-width="0.080" stroke-linecap="round" opacity="0.7"/><line x1="-3.805" y1="2.475" x2="3.805" y2="2.475" stroke="#d24d4d" stroke-width="0.080" stroke-linecap="round" opacity="0.7"/><line x1="3.805" y1="2.475" x2="3.805" y2="-2.475" stroke="#d24d4d" stroke-width="0.080" stroke-linecap="round" opacity="0.7"/><line x1="-3.052" y1="1.861" x2="-3.051" y2="-1.613" stroke="#6b7280" stroke-width="0.100" stroke-linecap="round" opacity="0.8"/><line x1="-3.052" y1="1.861" x2="-2.498" y2="1.861" stroke="#6b7280" stroke-width="0.100" stroke-linecap="round" opacity="0.8"/><line x1="-3.042" y1="-1.511" x2="-2.164" y2="1.663" stroke="#6b7280" stroke-width="0.100" stroke-linecap="round" opacity="0.8"/><line x1="-2.508" y1="-1.657" x2="-1.581" y2="1.660" stroke="#6b7280" stroke-width="0.100" stroke-linecap="round" opacity="0.8"/><line x1="-2.498" y1="1.861" x2="-2.498" y2="0.455" stroke="#6b7280" stroke-width="0.100" stroke-linecap="round" opacity="0.8"/><line x1="-1.924" y1="-1.659" x2="-0.996" y2="1.662" stroke="#6b7280" stroke-width="0.100" stroke-linecap="round" opacity="0.8"/><line x1="-1.340" y1="-1.659" x2="-0.412" y2="1.662" stroke="#6b7280" stroke-width="0.100" stroke-linecap="round" opacity="0.8"/><line x1="-0.756" y1="-1.659" x2="0.172" y2="1.662" stroke="#6b7280" stroke-width="0.100" stroke-linecap="round" opacity="0.8"/><line x1="-0.172" y1="-1.659" x2="0.757" y2="1.662" stroke="#6b7280" stroke-width="0.100" stroke-linecap="round" opacity="0.8"/><line x1="0.412" y1="-1.659" x2="1.340" y2="1.660" stroke="#6b7280" stroke-width="0.100" stroke-linecap="round" opacity="0.8"/><line x1="0.997" y1="-1.659" x2="1.924" y2="1.658" stroke="#6b7280" stroke-width="0.100" stroke-linecap="round" opacity="0.8"/><line x1="1.581" y1="-1.659" x2="2.508" y2="1.657" stroke="#6b7280" stroke-width="0.100" stroke-linecap="round" opacity="0.8"/><line x1="2.165" y1="-1.659" x2="3.050" y2="1.557" stroke="#6b7280" stroke-width="0.100" stroke-linecap="round" opacity="0.8"/><line x1="2.498" y1="-1.861" x2="3.052" y2="-1.861" stroke="#6b7280" stroke-width="0.100" stroke-linecap="round" opacity="0.8"/><line x1="2.498" y1="-0.449" x2="2.498" y2="-1.861" stroke="#6b7280" stroke-width="0.100" stroke-linecap="round" opacity="0.8"/><line x1="3.052" y1="1.616" x2="3.052" y2="-1.861" stroke="#6b7280" stroke-width="0.100" stroke-linecap="round" opacity="0.8"/><path d="M -1.425 -1.794 A 0.277 0.277 0 0 1 -1.340 -1.657" fill="none" stroke="#e6e9ef" stroke-width="0.12" opacity="1"/><path d="M -1.298 -1.558 A 0.277 0.277 0 0 1 -0.755 -1.657" fill="none" stroke="#e6e9ef" stroke-width="0.12" opacity="1"/><path d="M -1.038 1.560 A 0.277 0.277 0 0 1 -1.425 1.841" fill="none" stroke="#e6e9ef" stroke-width="0.12" opacity="1"/><path d="M -0.714 -1.558 A 0.277 0.277 0 0 1 -0.171 -1.657" fill="none" stroke="#e6e9ef" stroke-width="0.12" opacity="1"/><path d="M -0.454 1.560 A 0.277 0.277 0 0 1 -0.997 1.660" fill="none" stroke="#e6e9ef" stroke-width="0.12" opacity="1"/><path d="M -0.129 -1.558 A 0.277 0.277 0 0 1 0.413 -1.657" fill="none" stroke="#e6e9ef" stroke-width="0.12" opacity="1"/><path d="M 0.130 1.560 A 0.277 0.277 0 0 1 -0.412 1.660" fill="none" stroke="#e6e9ef" stroke-width="0.12" opacity="1"/><path d="M 0.455 -1.558 A 0.277 0.277 0 0 1 0.997 -1.657" fill="none" stroke="#e6e9ef" stroke-width="0.12" opacity="1"/><path d="M 0.714 1.560 A 0.277 0.277 0 0 1 0.172 1.660" fill="none" stroke="#e6e9ef" stroke-width="0.12" opacity="1"/><path d="M 1.039 -1.558 A 0.277 0.277 0 0 1 1.425 -1.839" fill="none" stroke="#e6e9ef" stroke-width="0.12" opacity="1"/><path d="M 1.298 1.560 A 0.277 0.277 0 0 1 0.756 1.660" fill="none" stroke="#e6e9ef" stroke-width="0.12" opacity="1"/><path d="M 1.425 1.795 A 0.277 0.277 0 0 1 1.340 1.660" fill="none" stroke="#e6e9ef" stroke-width="0.12" opacity="1"/><path d="M -3.051 -1.613 A 0.278 0.278 0 0 1 -2.507 -1.654" fill="none" stroke="#6b7280" stroke-width="0.12" opacity="0.8"/><path d="M -2.465 -1.554 A 0.277 0.277 0 0 1 -1.923 -1.654" fill="none" stroke="#6b7280" stroke-width="0.12" opacity="0.8"/><path d="M -1.882 -1.558 A 0.277 0.277 0 0 1 -1.340 -1.657" fill="none" stroke="#6b7280" stroke-width="0.12" opacity="0.8"/><path d="M -1.622 1.562 A 0.277 0.277 0 0 1 -2.164 1.661" fill="none" stroke="#6b7280" stroke-width="0.12" opacity="0.8"/><path d="M -1.298 -1.558 A 0.277 0.277 0 0 1 -0.755 -1.657" fill="none" stroke="#6b7280" stroke-width="0.12" opacity="0.8"/><path d="M -1.038 1.560 A 0.277 0.277 0 0 1 -1.581 1.660" fill="none" stroke="#6b7280" stroke-width="0.12" opacity="0.8"/><path d="M -0.714 -1.558 A 0.277 0.277 0 0 1 -0.171 -1.657" fill="none" stroke="#6b7280" stroke-width="0.12" opacity="0.8"/><path d="M -0.454 1.560 A 0.277 0.277 0 0 1 -0.997 1.660" fill="none" stroke="#6b7280" stroke-width="0.12" opacity="0.8"/><path d="M -0.129 -1.558 A 0.277 0.277 0 0 1 0.413 -1.657" fill="none" stroke="#6b7280" stroke-width="0.12" opacity="0.8"/><path d="M 0.130 1.560 A 0.277 0.277 0 0 1 -0.412 1.660" fill="none" stroke="#6b7280" stroke-width="0.12" opacity="0.8"/><path d="M 0.455 -1.558 A 0.277 0.277 0 0 1 0.997 -1.657" fill="none" stroke="#6b7280" stroke-width="0.12" opacity="0.8"/><path d="M 0.714 1.560 A 0.277 0.277 0 0 1 0.172 1.660" fill="none" stroke="#6b7280" stroke-width="0.12" opacity="0.8"/><path d="M 1.039 -1.558 A 0.277 0.277 0 0 1 1.581 -1.657" fill="none" stroke="#6b7280" stroke-width="0.12" opacity="0.8"/><path d="M 1.298 1.560 A 0.277 0.277 0 0 1 0.756 1.660" fill="none" stroke="#6b7280" stroke-width="0.12" opacity="0.8"/><path d="M 1.623 -1.559 A 0.277 0.277 0 0 1 2.165 -1.659" fill="none" stroke="#6b7280" stroke-width="0.12" opacity="0.8"/><path d="M 1.883 1.560 A 0.277 0.277 0 0 1 1.340 1.660" fill="none" stroke="#6b7280" stroke-width="0.12" opacity="0.8"/><path d="M 2.466 1.557 A 0.277 0.277 0 0 1 1.924 1.656" fill="none" stroke="#6b7280" stroke-width="0.12" opacity="0.8"/><path d="M 3.052 1.616 A 0.278 0.278 0 0 1 2.508 1.656" fill="none" stroke="#6b7280" stroke-width="0.12" opacity="0.8"/><rect x="-3.555" y="-2.225" width="1.780" height="4.450" rx="0.000" fill="#c79b5c"/><rect x="1.775" y="-2.225" width="1.780" height="4.450" rx="0.000" fill="#c79b5c"/><polygon points="-3.12,3.28 -2.21,3.28 -2.67,2.68" fill="#ffffff"/></svg>