<svg xmlns="http://www.w3.org/2000/svg" viewBox="-16.49 -5.55 32.98 12.51" preserveAspectRatio="xMidYMid meet" style="width:100%;height:100%"><rect x="-16.49" y="-5.55" width="32.98" height="12.51" fill="#12151c"/><line x1="-15.490" y1="-4.550" x2="15.490" y2="-4.550" stroke="#d24d4d" stroke-width="0.080" stroke-linecap="round" opacity="0.7"/><line x1="15.490" y1="-4.550" x2="15.490" y2="5.960" stroke="#d24d4d" stroke-width="0.080" stroke-linecap="round" opacity="0.7"/><line x1="15.490" y1="5.960" x2="-15.490" y2="5.960" stroke="#d24d4d" stroke-width="0.080" stroke-linecap="round" opacity="0.7"/><line x1="-15.490" y1="5.960" x2="-15.490" y2="-4.550" stroke="#d24d4d" stroke-width="0.080" stroke-linecap="round" opacity="0.7"/><path d="M -14.835 5.326 A 0.468 0.468 0 0 1 -14.689 4.995" fill="none" stroke="#e6e9ef" stroke-width="0.12" opacity="1"/><path d="M -14.716 -2.802 A 0.432 0.432 0 0 1 -14.619 -2.991" fill="none" stroke="#e6e9ef" stroke-width="0.12" opacity="1"/><path d="M -14.648 -3.401 A 0.875 0.875 0 0 1 -14.389 -3.627" fill="none" stroke="#e6e9ef" stroke-width="0.12" opacity="1"/><path d="M -14.648 -2.710 A 0.505 0.505 0 0 1 -14.648 -3.401" fill="none" stroke="#e6e9ef" stroke-width="0.12" opacity="1"/><path d="M -14.619 -2.991 A 1.258 1.258 0 0 1 -14.048 -3.361" fill="none" stroke="#e6e9ef" stroke-width="0.12" opacity="1"/><path d="M -14.489 -2.552 A 1.083 1.083 0 0 1 -14.716 -2.802" fill="none" stroke="#e6e9ef" stroke-width="0.12" opacity="1"/><path d="M -14.389 -3.627 A 2.262 2.262 0 0 1 -12.281 -3.627" fill="none" stroke="#e6e9ef" stroke-width="0.12" opacity="1"/><path d="M -14.048 -3.361 A 2.326 2.326 0 0 1 -12.624 -3.362" fill="none" stroke="#e6e9ef" stroke-width="0.12" opacity="1"/><path d="M -12.936 2.201 A 0.500 0.500 0 0 1 -13.734 2.201" fill="none" stroke="#e6e9ef" stroke-width="0.12" opacity="1"/><path d="M -12.281 -3.627 A 0.875 0.875 0 0 1 -12.022 -3.401" fill="none" stroke="#e6e9ef" stroke-width="0.12" opacity="1"/><path d="M -12.180 -2.552 A 2.193 2.193 0 0 1 -14.490 -2.552" fill="none" stroke="#e6e9ef" stroke-width="0.12" opacity="1"/><path d="M -12.129 -3.078 A 0.620 0.620 0 0 1 -11.954 -2.801" fill="none" stroke="#e6e9ef" stroke-width="0.12" opacity="1"/><path d="M -12.022 -3.401 A 0.505 0.505 0 0 1 -12.022 -2.710" fill="none" stroke="#e6e9ef" stroke-width="0.12" opacity="1"/><path d="M -11.981 4.995 A 0.468 0.468 0 0 1 -11.835 5.326" fill="none" stroke="#e6e9ef" stroke-width="0.12" opacity="1"/><path d="M -11.954 -2.802 A 1.083 1.083 0 0 1 -12.181 -2.552" fill="none" stroke="#e6e9ef" stroke-width="0.12" opacity="1"/><path d="M -11.025 5.326 A 0.468 0.468 0 0 1 -10.879 4.995" fill="none" stroke="#e6e9ef" stroke-width="0.12" opacity="1"/><path d="M -10.906 -2.802 A 0.432 0.432 0 0 1 -10.809 -2.991" fill="none" stroke="#e6e9ef" stroke-width="0.12" opacity="1"/><path d="M -10.838 -3.401 A 0.875 0.875 0 0 1 -10.579 -3.627" fill="none" stroke="#e6e9ef" stroke-width="0.12" opacity="1"/><path d="M -10.838 -2.710 A 0.505 0.505 0 0 1 -10.838 -3.401" fill="none" stroke="#e6e9ef" stroke-width="0.12" opacity="1"/><path d="M -10.809 -2.991 A 1.258 1.258 0 0 1 -10.238 -3.361" fill="none" stroke="#e6e9ef" stroke-width="0.12" opacity="1"/><path d="M -10.679 -2.552 A 1.083 1.083 0 0 1 -10.906 -2.802" fill="none" stroke="#e6e9ef" stroke-width="0.12" opacity="1"/><path d="M -10.579 -3.627 A 2.262 2.262 0 0 1 -8.471 -3.627" fill="none" stroke="#e6e9ef" stroke-width="0.12" opacity="1"/><path d="M -10.238 -3.361 A 2.326 2.326 0 0 1 -8.814 -3.362" fill="none" stroke="#e6e9ef" stroke-width="0.12" opacity="1"/><path d="M -9.126 2.201 A 0.500 0.500 0 0 1 -9.924 2.201" fill="none" stroke="#e6e9ef" stroke-width="0.12" opacity="1"/><path d="M -8.471 -3.627 A 0.875 0.875 0 0 1 -8.212 -3.401" fill="none" stroke="#e6e9ef" stroke-width="0.12" opacity="1"/><path d="M -8.370 -2.552 A 2.193 2.193 0 0 1 -10.680 -2.552" fill="none" stroke="#e6e9ef" stroke-width="0.12" opacity="1"/><path d="M -8.319 -3.078 A 0.620 0.620 0 0 1 -8.144 -2.801" fill="none" stroke="#e6e9ef" stroke-width="0.12" opacity="1"/><path d="M -8.212 -3.401 A 0.505 0.505 0 0 1 -8.212 -2.710" fill="none" stroke="#e6e9ef" stroke-width="0.12" opacity="1"/><path d="M -8.171 4.996 A 0.468 0.468 0 0 1 -8.025 5.327" fill="none" stroke="#e6e9ef" stroke-width="0.12" opacity="1"/><path d="M -8.144 -2.802 A 1.083 1.083 0 0 1 -8.371 -2.552" fill="none" stroke="#e6e9ef" stroke-width="0.12" opacity="1"/><path d="M -7.200 5.326 A 0.468 0.468 0 0 1 -7.054 4.995" fill="none" stroke="#e6e9ef" stroke-width="0.12" opacity="1"/><path d="M -7.096 -2.802 A 0.432 0.432 0 0 1 -6.999 -2.991" fill="none" stroke="#e6e9ef" stroke-width="0.12" opacity="1"/><path d="M -7.028 -3.401 A 0.875 0.875 0 0 1 -6.769 -3.627" fill="none" stroke="#e6e9ef" stroke-width="0.12" opacity="1"/><path d="M -7.028 -2.710 A 0.505 0.505 0 0 1 -7.028 -3.401" fill="none" stroke="#e6e9ef" stroke-width="0.12" opacity="1"/><path d="M -6.999 -2.991 A 1.258 1.258 0 0 1 -6.428 -3.361" fill="none" stroke="#e6e9ef" stroke-width="0.12" opacity="1"/><path d="M -6.869 -2.552 A 1.083 1.083 0 0 1 -7.096 -2.802" fill="none" stroke="#e6e9ef" stroke-width="0.12" opacity="1"/><path d="M -6.769 -3.627 A 2.262 2.262 0 0 1 -4.661 -3.627" fill="none" stroke="#e6e9ef" stroke-width="0.12" opacity="1"/><path d="M -6.428 -3.361 A 2.326 2.326 0 0 1 -5.004 -3.362" fill="none" stroke="#e6e9ef" stroke-width="0.12" opacity="1"/><path d="M -5.316 2.201 A 0.500 0.500 0 0 1 -6.114 2.201" fill="none" stroke="#e6e9ef" stroke-width="0.12" opacity="1"/><path d="M -4.661 -3.627 A 0.875 0.875 0 0 1 -4.402 -3.401" fill="none" stroke="#e6e9ef" stroke-width="0.12" opacity="1"/><path d="M -4.560 -2.552 A 2.193 2.193 0 0 1 -6.870 -2.552" fill="none" stroke="#e6e9ef" stroke-width="0.12" opacity="1"/><path d="M -4.509 -3.078 A 0.620 0.620 0 0 1 -4.334 -2.801" fill="none" stroke="#e6e9ef" stroke-width="0.12" opacity="1"/><path d="M -4.402 -3.401 A 0.505 0.505 0 0 1 -4.402 -2.710" fill="none" stroke="#e6e9ef" stroke-width="0.12" opacity="1"/><path d="M -4.346 4.995 A 0.468 0.468 0 0 1 -4.200 5.326" fill="none" stroke="#e6e9ef" stroke-width="0.12" opacity="1"/><path d="M -4.334 -2.802 A 1.083 1.083 0 0 1 -4.561 -2.552" fill="none" stroke="#e6e9ef" stroke-width="0.12" opacity="1"/><path d="M -3.405 5.326 A 0.468 0.468 0 0 1 -3.259 4.995" fill="none" stroke="#e6e9ef" stroke-width="0.12" opacity="1"/><path d="M -3.286 -2.802 A 0.432 0.432 0 0 1 -3.189 -2.991" fill="none" stroke="#e6e9ef" stroke-width="0.12" opacity="1"/><path d="M -3.218 -3.401 A 0.875 0.875 0 0 1 -2.959 -3.627" fill="none" stroke="#e6e9ef" stroke-width="0.12" opacity="1"/><path d="M -3.218 -2.710 A 0.505 0.505 0 0 1 -3.218 -3.401" fill="none" stroke="#e6e9ef" stroke-width="0.12" opacity="1"/><path d="M -3.189 -2.991 A 1.258 1.258 0 0 1 -2.618 -3.361" fill="none" stroke="#e6e9ef" stroke-width="0.12" opacity="1"/><path d="M -3.059 -2.552 A 1.083 1.083 0 0 1 -3.286 -2.802" fill="none" stroke="#e6e9ef" stroke-width="0.12" opacity="1"/><path d="M -2.959 -3.627 A 2.262 2.262 0 0 1 -0.851 -3.627" fill="none" stroke="#e6e9ef" stroke-width="0.12" opacity="1"/><path d="M -2.618 -3.361 A 2.326 2.326 0 0 1 -1.194 -3.362" fill="none" stroke="#e6e9ef" stroke-width="0.12" opacity="1"/><path d="M -1.506 2.201 A 0.500 0.500 0 0 1 -2.304 2.201" fill="none" stroke="#e6e9ef" stroke-width="0.12" opacity="1"/><path d="M -0.851 -3.627 A 0.875 0.875 0 0 1 -0.592 -3.401" fill="none" stroke="#e6e9ef" stroke-width="0.12" opacity="1"/><path d="M -0.750 -2.552 A 2.193 2.193 0 0 1 -3.060 -2.552" fill="none" stroke="#e6e9ef" stroke-width="0.12" opacity="1"/><path d="M -0.699 -3.078 A 0.620 0.620 0 0 1 -0.524 -2.801" fill="none" stroke="#e6e9ef" stroke-width="0.12" opacity="1"/><path d="M -0.592 -3.401 A 0.505 0.505 0 0 1 -0.592 -2.710" fill="none" stroke="#e6e9ef" stroke-width="0.12" opacity="1"/><path d="M -0.551 4.995 A 0.468 0.468 0 0 1 -0.405 5.326" fill="none" stroke="#e6e9ef" stroke-width="0.12" opacity="1"/><path d="M -0.524 -2.802 A 1.083 1.083 0 0 1 -0.751 -2.552" fill="none" stroke="#e6e9ef" stroke-width="0.12" opacity="1"/><path d="M 0.400 5.326 A 0.468 0.468 0 0 1 0.546 4.995" fill="none" stroke="#e6e9ef" stroke-width="0.12" opacity="1"/><path d="M 0.524 -2.802 A 0.432 0.432 0 0 1 0.621 -2.991" fill="none" stroke="#e6e9ef" stroke-width="0.12" opacity="1"/><path d="M 0.592 -3.401 A 0.875 0.875 0 0 1 0.851 -3.627" fill="none" stroke="#e6e9ef" stroke-width="0.12" opacity="1"/><path d="M 0.592 -2.710 A 0.505 0.505 0 0 1 0.592 -3.401" fill="none" stroke="#e6e9ef" stroke-width="0.12" opacity="1"/><path d="M 0.621 -2.991 A 1.258 1.258 0 0 1 1.192 -3.361" fill="none" stroke="#e6e9ef" stroke-width="0.12" opacity="1"/><path d="M 0.751 -2.552 A 1.083 1.083 0 0 1 0.524 -2.802" fill="none" stroke="#e6e9ef" stroke-width="0.12" opacity="1"/><path d="M 0.851 -3.627 A 2.262 2.262 0 0 1 2.959 -3.627" fill="none" stroke="#e6e9ef" stroke-width="0.12" opacity="1"/><path d="M 1.192 -3.361 A 2.326 2.326 0 0 1 2.616 -3.362" fill="none" stroke="#e6e9ef" stroke-width="0.12" opacity="1"/><path d="M 2.304 2.201 A 0.500 0.500 0 0 1 1.506 2.201" fill="none" stroke="#e6e9ef" stroke-width="0.12" opacity="1"/><path d="M 2.959 -3.627 A 0.875 0.875 0 0 1 3.218 -3.401" fill="none" stroke="#e6e9ef" stroke-width="0.12" opacity="1"/><path d="M 3.060 -2.552 A 2.193 2.193 0 0 1 0.750 -2.552" fill="none" stroke="#e6e9ef" stroke-width="0.12" opacity="1"/><path d="M 3.111 -3.078 A 0.620 0.620 0 0 1 3.286 -2.801" fill="none" stroke="#e6e9ef" stroke-width="0.12" opacity="1"/><path d="M 3.218 -3.401 A 0.505 0.505 0 0 1 3.218 -2.710" fill="none" stroke="#e6e9ef" stroke-width="0.12" opacity="1"/><path d="M 3.254 4.995 A 0.468 0.468 0 0 1 3.400 5.326" fill="none" stroke="#e6e9ef" stroke-width="0.12" opacity="1"/><path d="M 3.286 -2.802 A 1.083 1.083 0 0 1 3.059 -2.552" fill="none" stroke="#e6e9ef" stroke-width="0.12" opacity="1"/><path d="M 4.215 5.326 A 0.458 0.458 0 0 1 4.220 5.265" fill="none" stroke="#e6e9ef" stroke-width="0.12" opacity="1"/><path d="M 4.220 5.326 A 0.468 0.468 0 0 1 4.366 4.995" fill="none" stroke="#e6e9ef" stroke-width="0.12" opacity="1"/><path d="M 4.334 -2.802 A 0.432 0.432 0 0 1 4.431 -2.991" fill="none" stroke="#e6e9ef" stroke-width="0.12" opacity="1"/><path d="M 4.402 -3.401 A 0.875 0.875 0 0 1 4.661 -3.627" fill="none" stroke="#e6e9ef" stroke-width="0.12" opacity="1"/><path d="M 4.402 -2.710 A 0.505 0.505 0 0 1 4.402 -3.401" fill="none" stroke="#e6e9ef" stroke-width="0.12" opacity="1"/><path d="M 4.431 -2.991 A 1.258 1.258 0 0 1 5.002 -3.361" fill="none" stroke="#e6e9ef" stroke-width="0.12" opacity="1"/><path d="M 4.561 -2.552 A 1.083 1.083 0 0 1 4.334 -2.802" fill="none" stroke="#e6e9ef" stroke-width="0.12" opacity="1"/><path d="M 4.661 -3.627 A 2.262 2.262 0 0 1 6.769 -3.627" fill="none" stroke="#e6e9ef" stroke-width="0.12" opacity="1"/><path d="M 5.002 -3.361 A 2.326 2.326 0 0 1 6.426 -3.362" fill="none" stroke="#e6e9ef" stroke-width="0.12" opacity="1"/><path d="M 6.114 2.201 A 0.500 0.500 0 0 1 5.316 2.201" fill="none" stroke="#e6e9ef" stroke-width="0.12" opacity="1"/><path d="M 6.769 -3.627 A 0.875 0.875 0 0 1 7.028 -3.401" fill="none" stroke="#e6e9ef" stroke-width="0.12" opacity="1"/><path d="M 6.870 -2.552 A 2.193 2.193 0 0 1 4.560 -2.552" fill="none" stroke="#e6e9ef" stroke-width="0.12" opacity="1"/><path d="M 6.921 -3.078 A 0.620 0.620 0 0 1 7.096 -2.801" fill="none" stroke="#e6e9ef" stroke-width="0.12" opacity="1"/><path d="M 7.028 -3.401 A 0.505 0.505 0 0 1 7.028 -2.710" fill="none" stroke="#e6e9ef" stroke-width="0.12" opacity="1"/><path d="M 7.074 4.995 A 0.468 0.468 0 0 1 7.220 5.326" fill="none" stroke="#e6e9ef" stroke-width="0.12" opacity="1"/><path d="M 7.096 -2.802 A 1.083 1.083 0 0 1 6.869 -2.552" fill="none" stroke="#e6e9ef" stroke-width="0.12" opacity="1"/><path d="M 8.025 5.326 A 0.468 0.468 0 0 1 8.171 4.995" fill="none" stroke="#e6e9ef" stroke-width="0.12" opacity="1"/><path d="M 8.144 -2.802 A 0.432 0.432 0 0 1 8.241 -2.991" fill="none" stroke="#e6e9ef" stroke-width="0.12" opacity="1"/><path d="M 8.212 -3.401 A 0.875 0.875 0 0 1 8.471 -3.627" fill="none" stroke="#e6e9ef" stroke-width="0.12" opacity="1"/><path d="M 8.212 -2.710 A 0.505 0.505 0 0 1 8.212 -3.401" fill="none" stroke="#e6e9ef" stroke-width="0.12" opacity="1"/><path d="M 8.241 -2.991 A 1.258 1.258 0 0 1 8.812 -3.361" fill="none" stroke="#e6e9ef" stroke-width="0.12" opacity="1"/><path d="M 8.371 -2.552 A 1.083 1.083 0 0 1 8.144 -2.802" fill="none" stroke="#e6e9ef" stroke-width="0.12" opacity="1"/><path d="M 8.471 -3.627 A 2.262 2.262 0 0 1 10.579 -3.627" fill="none" stroke="#e6e9ef" stroke-width="0.12" opacity="1"/><path d="M 8.812 -3.361 A 2.326 2.326 0 0 1 10.236 -3.362" fill="none" stroke="#e6e9ef" stroke-width="0.12" opacity="1"/><path d="M 9.924 2.201 A 0.500 0.500 0 0 1 9.126 2.201" fill="none" stroke="#e6e9ef" stroke-width="0.12" opacity="1"/><path d="M 10.579 -3.627 A 0.875 0.875 0 0 1 10.838 -3.401" fill="none" stroke="#e6e9ef" stroke-width="0.12" opacity="1"/><path d="M 10.680 -2.552 A 2.193 2.193 0 0 1 8.370 -2.552" fill="none" stroke="#e6e9ef" stroke-width="0.12" opacity="1"/><path d="M 10.731 -3.078 A 0.620 0.620 0 0 1 10.906 -2.801" fill="none" stroke="#e6e9ef" stroke-width="0.12" opacity="1"/><path d="M 10.838 -3.401 A 0.505 0.505 0 0 1 10.838 -2.710" fill="none" stroke="#e6e9ef" stroke-width="0.12" opacity="1"/><path d="M 10.879 4.995 A 0.468 0.468 0 0 1 11.025 5.326" fill="none" stroke="#e6e9ef" stroke-width="0.12" opacity="1"/><path d="M 10.906 -2.802 A 1.083 1.083 0 0 1 10.679 -2.552" fill="none" stroke="#e6e9ef" stroke-width="0.12" opacity="1"/><path d="M 11.835 5.326 A 0.468 0.468 0 0 1 11.981 4.995" fill="none" stroke="#e6e9ef" stroke-width="0.12" opacity="1"/><path d="M 11.954 -2.802 A 0.432 0.432 0 0 1 12.051 -2.991" fill="none" stroke="#e6e9ef" stroke-width="0.12" opacity="1"/><path d="M 12.022 -3.401 A 0.875 0.875 0 0 1 12.281 -3.627" fill="none" stroke="#e6e9ef" stroke-width="0.12" opacity="1"/><path d="M 12.022 -2.710 A 0.505 0.505 0 0 1 12.022 -3.401" fill="none" stroke="#e6e9ef" stroke-width="0.12" opacity="1"/><path d="M 12.051 -2.991 A 1.258 1.258 0 0 1 12.622 -3.361" fill="none" stroke="#e6e9ef" stroke-width="0.12" opacity="1"/><path d="M 12.181 -2.552 A 1.083 1.083 0 0 1 11.954 -2.802" fill="none" stroke="#e6e9ef" stroke-width="0.12" opacity="1"/><path d="M 12.281 -3.627 A 2.262 2.262 0 0 1 14.389 -3.627" fill="none" stroke="#e6e9ef" stroke-width="0.12" opacity="1"/><path d="M 12.622 -3.361 A 2.326 2.326 0 0 1 14.046 -3.362" fill="none" stroke="#e6e9ef" stroke-width="0.12" opacity="1"/><path d="M 13.734 2.201 A 0.500 0.500 0 0 1 12.936 2.201" fill="none" stroke="#e6e9ef" stroke-width="0.12" opacity="1"/><path d="M 14.389 -3.627 A 0.875 0.875 0 0 1 14.648 -3.401" fill="none" stroke="#e6e9ef" stroke-width="0.12" opacity="1"/><path d="M 14.490 -2.552 A 2.193 2.193 0 0 1 12.180 -2.552" fill="none" stroke="#e6e9ef" stroke-width="0.12" opacity="1"/><path d="M 14.541 -3.078 A 0.620 0.620 0 0 1 14.716 -2.801" fill="none" stroke="#e6e9ef" stroke-width="0.12" opacity="1"/><path d="M 14.648 -3.401 A 0.505 0.505 0 0 1 14.648 -2.710" fill="none" stroke="#e6e9ef" stroke-width="0.12" opacity="1"/><path d="M 14.689 4.995 A 0.468 0.468 0 0 1 14.835 5.326" fill="none" stroke="#e6e9ef" stroke-width="0.12" opacity="1"/><path d="M 14.716 -2.802 A 1.083 1.083 0 0 1 14.489 -2.552" fill="none" stroke="#e6e9ef" stroke-width="0.12" opacity="1"/><path d="M -14.835 5.326 A 0.468 0.468 0 0 1 -14.689 4.995" fill="none" stroke="#6b7280" stroke-width="0.12" opacity="0.8"/><path d="M -14.716 -2.802 A 0.432 0.432 0 0 1 -14.619 -2.991" fill="none" stroke="#6b7280" stroke-width="0.12" opacity="0.8"/><path d="M -14.648 -3.401 A 0.875 0.875 0 0 1 -14.389 -3.627" fill="none" stroke="#6b7280" stroke-width="0.12" opacity="0.8"/><path d="M -14.648 -2.710 A 0.505 0.505 0 0 1 -14.648 -3.401" fill="none" stroke="#6b7280" stroke-width="0.12" opacity="0.8"/><path d="M -14.619 -2.991 A 1.258 1.258 0 0 1 -14.048 -3.361" fill="none" stroke="#6b7280" stroke-width="0.12" opacity="0.8"/><path d="M -14.489 -2.552 A 1.083 1.083 0 0 1 -14.716 -2.802" fill="none" stroke="#6b7280" stroke-width="0.12" opacity="0.8"/><path d="M -14.389 -3.627 A 2.262 2.262 0 0 1 -12.281 -3.627" fill="none" stroke="#6b7280" stroke-width="0.12" opacity="0.8"/><path d="M -14.048 -3.361 A 2.326 2.326 0 0 1 -12.624 -3.362" fill="none" stroke="#6b7280" stroke-width="0.12" opacity="0.8"/><path d="M -12.936 2.201 A 0.500 0.500 0 0 1 -13.734 2.201" fill="none" stroke="#6b7280" stroke-width="0.12" opacity="0.8"/><path d="M -12.281 -3.627 A 0.875 0.875 0 0 1 -12.022 -3.401" fill="none" stroke="#6b7280" stroke-width="0.12" opacity="0.8"/><path d="M -12.180 -2.552 A 2.193 2.193 0 0 1 -14.490 -2.552" fill="none" stroke="#6b7280" stroke-width="0.12" opacity="0.8"/><path d="M -12.129 -3.078 A 0.620 0.620 0 0 1 -11.954 -2.801" fill="none" stroke="#6b7280" stroke-width="0.12" opacity="0.8"/><path d="M -12.022 -3.401 A 0.505 0.505 0 0 1 -12.022 -2.710" fill="none" stroke="#6b7280" stroke-width="0.12" opacity="0.8"/><path d="M -11.981 4.995 A 0.468 0.468 0 0 1 -11.835 5.326" fill="none" stroke="#6b7280" stroke-width="0.12" opacity="0.8"/><path d="M -11.954 -2.802 A 1.083 1.083 0 0 1 -12.181 -2.552" fill="none" stroke="#6b7280" stroke-width="0.12" opacity="0.8"/><path d="M -11.025 5.326 A 0.468 0.468 0 0 1 -10.879 4.995" fill="none" stroke="#6b7280" stroke-width="0.12" opacity="0.8"/><path d="M -10.906 -2.802 A 0.432 0.432 0 0 1 -10.809 -2.991" fill="none" stroke="#6b7280" stroke-width="0.12" opacity="0.8"/><path d="M -10.838 -3.401 A 0.875 0.875 0 0 1 -10.579 -3.627" fill="none" stroke="#6b7280" stroke-width="0.12" opacity="0.8"/><path d="M -10.838 -2.710 A 0.505 0.505 0 0 1 -10.838 -3.401" fill="none" stroke="#6b7280" stroke-width="0.12" opacity="0.8"/><path d="M -10.809 -2.991 A 1.258 1.258 0 0 1 -10.238 -3.361" fill="none" stroke="#6b7280" stroke-width="0.12" opacity="0.8"/><path d="M -10.679 -2.552 A 1.083 1.083 0 0 1 -10.906 -2.802" fill="none" stroke="#6b7280" stroke-width="0.12" opacity="0.8"/><path d="M -10.579 -3.627 A 2.262 2.262 0 0 1 -8.471 -3.627" fill="none" stroke="#6b7280" stroke-width="0.12" opacity="0.8"/><path d="M -10.238 -3.361 A 2.326 2.326 0 0 1 -8.814 -3.362" fill="none" stroke="#6b7280" stroke-width="0.12" opacity="0.8"/><path d="M -9.126 2.201 A 0.500 0.500 0 0 1 -9.924 2.201" fill="none" stroke="#6b7280" stroke-width="0.12" opacity="0.8"/><path d="M -8.471 -3.627 A 0.875 0.875 0 0 1 -8.212 -3.401" fill="none" stroke="#6b7280" stroke-width="0.12" opacity="0.8"/><path d="M -8.370 -2.552 A 2.193 2.193 0 0 1 -10.680 -2.552" fill="none" stroke="#6b7280" stroke-width="0.12" opacity="0.8"/><path d="M -8.319 -3.078 A 0.620 0.620 0 0 1 -8.144 -2.801" fill="none" stroke="#6b7280" stroke-width="0.12" opacity="0.8"/><path d="M -8.212 -3.401 A 0.505 0.505 0 0 1 -8.212 -2.710" fill="none" stroke="#6b7280" stroke-width="0.12" opacity="0.8"/><path d="M -8.171 4.996 A 0.468 0.468 0 0 1 -8.025 5.327" fill="none" stroke="#6b7280" stroke-width="0.12" opacity="0.8"/><path d="M -8.144 -2.802 A 1.083 1.083 0 0 1 -8.371 -2.552" fill="none" stroke="#6b7280" stroke-width="0.12" opacity="0.8"/><path d="M -7.200 5.327 A 0.468 0.468 0 0 1 -7.054 4.996" fill="none" stroke="#6b7280" stroke-width="0.12" opacity="0.8"/><path d="M -7.096 -2.802 A 0.432 0.432 0 0 1 -6.999 -2.991" fill="none" stroke="#6b7280" stroke-width="0.12" opacity="0.8"/><path d="M -7.028 -3.401 A 0.875 0.875 0 0 1 -6.769 -3.627" fill="none" stroke="#6b7280" stroke-width="0.12" opacity="0.8"/><path d="M -7.028 -2.710 A 0.505 0.505 0 0 1 -7.028 -3.401" fill="none" stroke="#6b7280" stroke-width="0.12" opacity="0.8"/><path d="M -6.999 -2.991 A 1.258 1.258 0 0 1 -6.428 -3.361" fill="none" stroke="#6b7280" stroke-width="0.12" opacity="0.8"/><path d="M -6.869 -2.552 A 1.083 1.083 0 0 1 -7.096 -2.802" fill="none" stroke="#6b7280" stroke-width="0.12" opacity="0.8"/><path d="M -6.769 -3.627 A 2.262 2.262 0 0 1 -4.661 -3.627" fill="none" stroke="#6b7280" stroke-width="0.12" opacity="0.8"/><path d="M -6.428 -3.361 A 2.326 2.326 0 0 1 -5.004 -3.362" fill="none" stroke="#6b7280" stroke-width="0.12" opacity="0.8"/><path d="M -5.316 2.201 A 0.500 0.500 0 0 1 -6.114 2.201" fill="none" stroke="#6b7280" stroke-width="0.12" opacity="0.8"/><path d="M -4.661 -3.627 A 0.875 0.875 0 0 1 -4.402 -3.401" fill="none" stroke="#6b7280" stroke-width="0.12" opacity="0.8"/><path d="M -4.560 -2.552 A 2.193 2.193 0 0 1 -6.870 -2.552" fill="none" stroke="#6b7280" stroke-width="0.12" opacity="0.8"/><path d="M -4.509 -3.078 A 0.620 0.620 0 0 1 -4.334 -2.801" fill="none" stroke="#6b7280" stroke-width="0.12" opacity="0.8"/><path d="M -4.402 -3.401 A 0.505 0.505 0 0 1 -4.402 -2.710" fill="none" stroke="#6b7280" stroke-width="0.12" opacity="0.8"/><path d="M -4.347 4.996 A 0.468 0.468 0 0 1 -4.200 5.327" fill="none" stroke="#6b7280" stroke-width="0.12" opacity="0.8"/><path d="M -4.334 -2.802 A 1.083 1.083 0 0 1 -4.561 -2.552" fill="none" stroke="#6b7280" stroke-width="0.12" opacity="0.8"/><path d="M -3.405 5.326 A 0.468 0.468 0 0 1 -3.259 4.995" fill="none" stroke="#6b7280" stroke-width="0.12" opacity="0.8"/><path d="M -3.286 -2.802 A 0.432 0.432 0 0 1 -3.189 -2.991" fill="none" stroke="#6b7280" stroke-width="0.12" opacity="0.8"/><path d="M -3.218 -3.401 A 0.875 0.875 0 0 1 -2.959 -3.627" fill="none" stroke="#6b7280" stroke-width="0.12" opacity="0.8"/><path d="M -3.218 -2.710 A 0.505 0.505 0 0 1 -3.218 -3.401" fill="none" stroke="#6b7280" stroke-width="0.12" opacity="0.8"/><path d="M -3.189 -2.991 A 1.258 1.258 0 0 1 -2.618 -3.361" fill="none" stroke="#6b7280" stroke-width="0.12" opacity="0.8"/><path d="M -3.059 -2.552 A 1.083 1.083 0 0 1 -3.286 -2.802" fill="none" stroke="#6b7280" stroke-width="0.12" opacity="0.8"/><path d="M -2.959 -3.627 A 2.262 2.262 0 0 1 -0.851 -3.627" fill="none" stroke="#6b7280" stroke-width="0.12" opacity="0.8"/><path d="M -2.618 -3.361 A 2.326 2.326 0 0 1 -1.194 -3.362" fill="none" stroke="#6b7280" stroke-width="0.12" opacity="0.8"/><path d="M -1.506 2.201 A 0.500 0.500 0 0 1 -2.304 2.201" fill="none" stroke="#6b7280" stroke-width="0.12" opacity="0.8"/><path d="M -0.851 -3.627 A 0.875 0.875 0 0 1 -0.592 -3.401" fill="none" stroke="#6b7280" stroke-width="0.12" opacity="0.8"/><path d="M -0.750 -2.552 A 2.193 2.193 0 0 1 -3.060 -2.552" fill="none" stroke="#6b7280" stroke-width="0.12" opacity="0.8"/><path d="M -0.699 -3.078 A 0.620 0.620 0 0 1 -0.524 -2.801" fill="none" stroke="#6b7280" stroke-width="0.12" opacity="0.8"/><path d="M -0.592 -3.401 A 0.505 0.505 0 0 1 -0.592 -2.710" fill="none" stroke="#6b7280" stroke-width="0.12" opacity="0.8"/><path d="M -0.551 4.996 A 0.468 0.468 0 0 1 -0.405 5.327" fill="none" stroke="#6b7280" stroke-width="0.12" opacity="0.8"/><path d="M -0.524 -2.802 A 1.083 1.083 0 0 1 -0.751 -2.552" fill="none" stroke="#6b7280" stroke-width="0.12" opacity="0.8"/><path d="M 0.405 5.326 A 0.468 0.468 0 0 1 0.551 4.995" fill="none" stroke="#6b7280" stroke-width="0.12" opacity="0.8"/><path d="M 0.524 -2.802 A 0.432 0.432 0 0 1 0.621 -2.991" fill="none" stroke="#6b7280" stroke-width="0.12" opacity="0.8"/><path d="M 0.592 -3.401 A 0.875 0.875 0 0 1 0.851 -3.627" fill="none" stroke="#6b7280" stroke-width="0.12" opacity="0.8"/><path d="M 0.592 -2.710 A 0.505 0.505 0 0 1 0.592 -3.401" fill="none" stroke="#6b7280" stroke-width="0.12" opacity="0.8"/><path d="M 0.621 -2.991 A 1.258 1.258 0 0 1 1.192 -3.361" fill="none" stroke="#6b7280" stroke-width="0.12" opacity="0.8"/><path d="M 0.751 -2.552 A 1.083 1.083 0 0 1 0.524 -2.802" fill="none" stroke="#6b7280" stroke-width="0.12" opacity="0.8"/><path d="M 0.851 -3.627 A 2.262 2.262 0 0 1 2.959 -3.627" fill="none" stroke="#6b7280" stroke-width="0.12" opacity="0.8"/><path d="M 1.192 -3.361 A 2.326 2.326 0 0 1 2.616 -3.362" fill="none" stroke="#6b7280" stroke-width="0.12" opacity="0.8"/><path d="M 2.304 2.201 A 0.500 0.500 0 0 1 1.506 2.201" fill="none" stroke="#6b7280" stroke-width="0.12" opacity="0.8"/><path d="M 2.959 -3.627 A 0.875 0.875 0 0 1 3.218 -3.401" fill="none" stroke="#6b7280" stroke-width="0.12" opacity="0.8"/><path d="M 3.060 -2.552 A 2.193 2.193 0 0 1 0.750 -2.552" fill="none" stroke="#6b7280" stroke-width="0.12" opacity="0.8"/><path d="M 3.111 -3.078 A 0.620 0.620 0 0 1 3.286 -2.801" fill="none" stroke="#6b7280" stroke-width="0.12" opacity="0.8"/><path d="M 3.218 -3.401 A 0.505 0.505 0 0 1 3.218 -2.710" fill="none" stroke="#6b7280" stroke-width="0.12" opacity="0.8"/><path d="M 3.259 4.996 A 0.468 0.468 0 0 1 3.405 5.327" fill="none" stroke="#6b7280" stroke-width="0.12" opacity="0.8"/><path d="M 3.286 -2.802 A 1.083 1.083 0 0 1 3.059 -2.552" fill="none" stroke="#6b7280" stroke-width="0.12" opacity="0.8"/><path d="M 4.215 5.326 A 0.468 0.468 0 0 1 4.361 4.995" fill="none" stroke="#6b7280" stroke-width="0.12" opacity="0.8"/><path d="M 4.334 -2.802 A 0.432 0.432 0 0 1 4.431 -2.991" fill="none" stroke="#6b7280" stroke-width="0.12" opacity="0.8"/><path d="M 4.402 -3.401 A 0.875 0.875 0 0 1 4.661 -3.627" fill="none" stroke="#6b7280" stroke-width="0.12" opacity="0.8"/><path d="M 4.402 -2.710 A 0.505 0.505 0 0 1 4.402 -3.401" fill="none" stroke="#6b7280" stroke-width="0.12" opacity="0.8"/><path d="M 4.431 -2.991 A 1.258 1.258 0 0 1 5.002 -3.361" fill="none" stroke="#6b7280" stroke-width="0.12" opacity="0.8"/><path d="M 4.561 -2.552 A 1.083 1.083 0 0 1 4.334 -2.802" fill="none" stroke="#6b7280" stroke-width="0.12" opacity="0.8"/><path d="M 4.661 -3.627 A 2.262 2.262 0 0 1 6.769 -3.627" fill="none" stroke="#6b7280" stroke-width="0.12" opacity="0.8"/><path d="M 5.002 -3.361 A 2.326 2.326 0 0 1 6.426 -3.362" fill="none" stroke="#6b7280" stroke-width="0.12" opacity="0.8"/><path d="M 6.114 2.201 A 0.500 0.500 0 0 1 5.316 2.201" fill="none" stroke="#6b7280" stroke-width="0.12" opacity="0.8"/><path d="M 6.769 -3.627 A 0.875 0.875 0 0 1 7.028 -3.401" fill="none" stroke="#6b7280" stroke-width="0.12" opacity="0.8"/><path d="M 6.870 -2.552 A 2.193 2.193 0 0 1 4.560 -2.552" fill="none" stroke="#6b7280" stroke-width="0.12" opacity="0.8"/><path d="M 6.921 -3.078 A 0.620 0.620 0 0 1 7.096 -2.801" fill="none" stroke="#6b7280" stroke-width="0.12" opacity="0.8"/><path d="M 7.028 -3.401 A 0.505 0.505 0 0 1 7.028 -2.710" fill="none" stroke="#6b7280" stroke-width="0.12" opacity="0.8"/><path d="M 7.069 4.996 A 0.468 0.468 0 0 1 7.215 5.327" fill="none" stroke="#6b7280" stroke-width="0.12" opacity="0.8"/><path d="M 7.096 -2.802 A 1.083 1.083 0 0 1 6.869 -2.552" fill="none" stroke="#6b7280" stroke-width="0.12" opacity="0.8"/><path d="M 8.025 5.326 A 0.468 0.468 0 0 1 8.171 4.995" fill="none" stroke="#6b7280" stroke-width="0.12" opacity="0.8"/><path d="M 8.144 -2.802 A 0.432 0.432 0 0 1 8.241 -2.991" fill="none" stroke="#6b7280" stroke-width="0.12" opacity="0.8"/><path d="M 8.212 -3.401 A 0.875 0.875 0 0 1 8.471 -3.627" fill="none" stroke="#6b7280" stroke-width="0.12" opacity="0.8"/><path d="M 8.212 -2.710 A 0.505 0.505 0 0 1 8.212 -3.401" fill="none" stroke="#6b7280" stroke-width="0.12" opacity="0.8"/><path d="M 8.241 -2.991 A 1.258 1.258 0 0 1 8.812 -3.361" fill="none" stroke="#6b7280" stroke-width="0.12" opacity="0.8"/><path d="M 8.371 -2.552 A 1.083 1.083 0 0 1 8.144 -2.802" fill="none" stroke="#6b7280" stroke-width="0.12" opacity="0.8"/><path d="M 8.471 -3.627 A 2.262 2.262 0 0 1 10.579 -3.627" fill="none" stroke="#6b7280" stroke-width="0.12" opacity="0.8"/><path d="M 8.812 -3.361 A 2.326 2.326 0 0 1 10.236 -3.362" fill="none" stroke="#6b7280" stroke-width="0.12" opacity="0.8"/><path d="M 9.924 2.201 A 0.500 0.500 0 0 1 9.126 2.201" fill="none" stroke="#6b7280" stroke-width="0.12" opacity="0.8"/><path d="M 10.579 -3.627 A 0.875 0.875 0 0 1 10.838 -3.401" fill="none" stroke="#6b7280" stroke-width="0.12" opacity="0.8"/><path d="M 10.680 -2.552 A 2.193 2.193 0 0 1 8.370 -2.552" fill="none" stroke="#6b7280" stroke-width="0.12" opacity="0.8"/><path d="M 10.731 -3.078 A 0.620 0.620 0 0 1 10.906 -2.801" fill="none" stroke="#6b7280" stroke-width="0.12" opacity="0.8"/><path d="M 10.838 -3.401 A 0.505 0.505 0 0 1 10.838 -2.710" fill="none" stroke="#6b7280" stroke-width="0.12" opacity="0.8"/><path d="M 10.879 4.996 A 0.468 0.468 0 0 1 11.025 5.327" fill="none" stroke="#6b7280" stroke-width="0.12" opacity="0.8"/><path d="M 10.906 -2.802 A 1.083 1.083 0 0 1 10.679 -2.552" fill="none" stroke="#6b7280" stroke-width="0.12" opacity="0.8"/><path d="M 11.835 5.326 A 0.468 0.468 0 0 1 11.981 4.995" fill="none" stroke="#6b7280" stroke-width="0.12" opacity="0.8"/><path d="M 11.954 -2.802 A 0.432 0.432 0 0 1 12.051 -2.991" fill="none" stroke="#6b7280" stroke-width="0.12" opacity="0.8"/><path d="M 12.022 -3.401 A 0.875 0.875 0 0 1 12.281 -3.627" fill="none" stroke="#6b7280" stroke-width="0.12" opacity="0.8"/><path d="M 12.022 -2.710 A 0.505 0.505 0 0 1 12.022 -3.401" fill="none" stroke="#6b7280" stroke-width="0.12" opacity="0.8"/><path d="M 12.051 -2.991 A 1.258 1.258 0 0 1 12.622 -3.361" fill="none" stroke="#6b7280" stroke-width="0.12" opacity="0.8"/><path d="M 12.181 -2.552 A 1.083 1.083 0 0 1 11.954 -2.802" fill="none" stroke="#6b7280" stroke-width="0.12" opacity="0.8"/><path d="M 12.281 -3.627 A 2.262 2.262 0 0 1 14.389 -3.627" fill="none" stroke="#6b7280" stroke-width="0.12" opacity="0.8"/><path d="M 12.622 -3.361 A 2.326 2.326 0 0 1 14.046 -3.362" fill="none" stroke="#6b7280" stroke-width="0.12" opacity="0.8"/><path d="M 13.734 2.201 A 0.500 0.500 0 0 1 12.936 2.201" fill="none" stroke="#6b7280" stroke-width="0.12" opacity="0.8"/><path d="M 14.389 -3.627 A 0.875 0.875 0 0 1 14.648 -3.401" fill="none" stroke="#6b7280" stroke-width="0.12" opacity="0.8"/><path d="M 14.490 -2.552 A 2.193 2.193 0 0 1 12.180 -2.552" fill="none" stroke="#6b7280" stroke-width="0.12" opacity="0.8"/><path d="M 14.541 -3.078 A 0.620 0.620 0 0 1 14.716 -2.801" fill="none" stroke="#6b7280" stroke-width="0.12" opacity="0.8"/><path d="M 14.648 -3.401 A 0.505 0.505 0 0 1 14.648 -2.710" fill="none" stroke="#6b7280" stroke-width="0.12" opacity="0.8"/><path d="M 14.689 4.996 A 0.468 0.468 0 0 1 14.835 5.327" fill="none" stroke="#6b7280" stroke-width="0.12" opacity="0.8"/><path d="M 14.716 -2.802 A 1.083 1.083 0 0 1 14.489 -2.552" fill="none" stroke="#6b7280" stroke-width="0.12" opacity="0.8"/><rect x="-14.235" y="-0.900" width="1.800" height="1.800" rx="0.900" fill="#c79b5c"/><circle cx="-13.335" cy="0.000" r="0.550" fill="#12151c"/><rect x="-10.425" y="-0.900" width="1.800" height="1.800" rx="0.900" fill="#c79b5c"/><circle cx="-9.525" cy="0.000" r="0.550" fill="#12151c"/><rect x="-6.615" y="-0.900" width="1.800" height="1.800" rx="0.900" fill="#c79b5c"/><circle cx="-5.715" cy="0.000" r="0.550" fill="#12151c"/><rect x="-2.805" y="-0.900" width="1.800" height="1.800" rx="0.900" fill="#c79b5c"/><circle cx="-1.905" cy="0.000" r="0.550" fill="#12151c"/><rect x="1.005" y="-0.900" width="1.800" height="1.800" rx="0.900" fill="#c79b5c"/><circle cx="1.905" cy="0.000" r="0.550" fill="#12151c"/><rect x="4.815" y="-0.900" width="1.800" height="1.800" rx="0.900" fill="#c79b5c"/><circle cx="5.715" cy="0.000" r="0.550" fill="#12151c"/><rect x="8.625" y="-0.900" width="1.800" height="1.800" rx="0.900" fill="#c79b5c"/><circle cx="9.525" cy="0.000" r="0.550" fill="#12151c"/><rect x="12.435" y="-0.900" width="1.800" height="1.800" rx="0.900" fill="#c79b5c"/><circle cx="13.335" cy="0.000" r="0.550" fill="#12151c"/><polygon points="-13.79,1.95 -12.89,1.95 -13.34,1.35" fill="#ffffff"/></svg>