<svg xmlns="http://www.w3.org/2000/svg" viewBox="-8.25 -6.50 16.50 13.00" preserveAspectRatio="xMidYMid meet" style="width:100%;height:100%"><rect x="-8.25" y="-6.50" width="16.50" height="13.00" fill="#12151c"/><line x1="-7.000" y1="-5.250" x2="7.000" y2="-5.250" stroke="#e6e9ef" stroke-width="0.200" stroke-linecap="round" opacity="1"/><line x1="-7.000" y1="5.250" x2="-7.000" y2="-5.250" stroke="#e6e9ef" stroke-width="0.200" stroke-linecap="round" opacity="1"/><line x1="-7.000" y1="5.250" x2="7.000" y2="5.250" stroke="#e6e9ef" stroke-width="0.200" stroke-linecap="round" opacity="1"/><line x1="7.000" y1="5.250" x2="7.000" y2="-5.250" stroke="#e6e9ef" stroke-width="0.200" stroke-linecap="round" opacity="1"/><line x1="-3.000" y1="0.000" x2="-2.500" y2="0.000" stroke="#4a5160" stroke-width="0.080" stroke-linecap="round" opacity="0.7"/><line x1="-2.500" y1="0.000" x2="-2.500" y2="-0.500" stroke="#4a5160" stroke-width="0.080" stroke-linecap="round" opacity="0.7"/><line x1="-2.500" y1="0.000" x2="-2.000" y2="0.000" stroke="#4a5160" stroke-width="0.080" stroke-linecap="round" opacity="0.7"/><line x1="-2.500" y1="0.500" x2="-2.500" y2="0.000" stroke="#4a5160" stroke-width="0.080" stroke-linecap="round" opacity="0.7"/><line x1="-0.500" y1="0.000" x2="0.000" y2="0.000" stroke="#4a5160" stroke-width="0.080" stroke-linecap="round" opacity="0.7"/><line x1="0.000" y1="0.000" x2="0.000" y2="-0.500" stroke="#4a5160" stroke-width="0.080" stroke-linecap="round" opacity="0.7"/><line x1="0.000" y1="0.000" x2="0.500" y2="0.000" stroke="#4a5160" stroke-width="0.080" stroke-linecap="round" opacity="0.7"/><line x1="0.000" y1="0.500" x2="0.000" y2="0.000" stroke="#4a5160" stroke-width="0.080" stroke-linecap="round" opacity="0.7"/><line x1="2.000" y1="0.000" x2="2.500" y2="0.000" stroke="#4a5160" stroke-width="0.080" stroke-linecap="round" opacity="0.7"/><line x1="2.500" y1="0.000" x2="2.500" y2="-0.500" stroke="#4a5160" stroke-width="0.080" stroke-linecap="round" opacity="0.7"/><line x1="2.500" y1="0.000" x2="3.000" y2="0.000" stroke="#4a5160" stroke-width="0.080" stroke-linecap="round" opacity="0.7"/><line x1="2.500" y1="0.500" x2="2.500" y2="0.000" stroke="#4a5160" stroke-width="0.080" stroke-linecap="round" opacity="0.7"/><line x1="-7.250" y1="5.500" x2="7.250" y2="5.500" stroke="#d24d4d" stroke-width="0.080" stroke-linecap="round" opacity="0.7"/><line x1="-7.250" y1="-5.500" x2="7.250" y2="-5.500" stroke="#d24d4d" stroke-width="0.080" stroke-linecap="round" opacity="0.7"/><line x1="-7.250" y1="5.500" x2="-7.250" y2="-5.500" stroke="#d24d4d" stroke-width="0.080" stroke-linecap="round" opacity="0.7"/><line x1="7.250" y1="5.500" x2="7.250" y2="-5.500" stroke="#d24d4d" stroke-width="0.080" stroke-linecap="round" opacity="0.7"/><line x1="-7.000" y1="-5.250" x2="7.000" y2="-5.250" stroke="#6b7280" stroke-width="0.100" stroke-linecap="round" opacity="0.8"/><line x1="-7.000" y1="5.250" x2="-7.000" y2="-5.250" stroke="#6b7280" stroke-width="0.100" stroke-linecap="round" opacity="0.8"/><line x1="-7.000" y1="5.250" x2="7.000" y2="5.250" stroke="#6b7280" stroke-width="0.100" stroke-linecap="round" opacity="0.8"/><line x1="7.000" y1="5.250" x2="7.000" y2="-5.250" stroke="#6b7280" stroke-width="0.100" stroke-linecap="round" opacity="0.8"/><rect x="-3.400" y="-0.900" width="1.800" height="1.800" rx="0.900" fill="#c79b5c"/><circle cx="-2.500" cy="0.000" r="0.550" fill="#12151c"/><rect x="1.600" y="-0.900" width="1.800" height="1.800" rx="0.900" fill="#c79b5c"/><circle cx="2.500" cy="0.000" r="0.550" fill="#12151c"/><polygon points="-2.95,1.95 -2.05,1.95 -2.50,1.35" fill="#ffffff"/></svg>