<svg xmlns="http://www.w3.org/2000/svg" viewBox="-40.05 -2.45 80.10 11.70" preserveAspectRatio="xMidYMid meet" style="width:100%;height:100%"><rect x="-40.05" y="-2.45" width="80.10" height="11.70" fill="#12151c"/><line x1="-39.050" y1="-1.450" x2="39.050" y2="-1.450" stroke="#d24d4d" stroke-width="0.080" stroke-linecap="round" opacity="0.7"/><line x1="39.050" y1="-1.450" x2="39.050" y2="8.250" stroke="#d24d4d" stroke-width="0.080" stroke-linecap="round" opacity="0.7"/><line x1="39.050" y1="8.250" x2="-39.050" y2="8.250" stroke="#d24d4d" stroke-width="0.080" stroke-linecap="round" opacity="0.7"/><line x1="-39.050" y1="8.250" x2="-39.050" y2="-1.450" stroke="#d24d4d" stroke-width="0.080" stroke-linecap="round" opacity="0.7"/><rect x="-37.150" y="-0.950" width="1.900" height="1.900" rx="0.950" fill="#c79b5c"/><circle cx="-36.200" cy="0.000" r="0.600" fill="#12151c"/><rect x="-33.335" y="-0.950" width="1.900" height="1.900" rx="0.950" fill="#c79b5c"/><circle cx="-32.385" cy="0.000" r="0.600" fill="#12151c"/><rect x="-29.525" y="-0.950" width="1.900" height="1.900" rx="0.950" fill="#c79b5c"/><circle cx="-28.575" cy="0.000" r="0.600" fill="#12151c"/><rect x="-25.720" y="-0.950" width="1.900" height="1.900" rx="0.950" fill="#c79b5c"/><circle cx="-24.770" cy="0.000" r="0.600" fill="#12151c"/><rect x="-21.905" y="-0.950" width="1.900" height="1.900" rx="0.950" fill="#c79b5c"/><circle cx="-20.955" cy="0.000" r="0.600" fill="#12151c"/><rect x="-18.095" y="-0.950" width="1.900" height="1.900" rx="0.950" fill="#c79b5c"/><circle cx="-17.145" cy="0.000" r="0.600" fill="#12151c"/><rect x="-14.290" y="-0.950" width="1.900" height="1.900" rx="0.950" fill="#c79b5c"/><circle cx="-13.340" cy="0.000" r="0.600" fill="#12151c"/><rect x="-10.475" y="-0.950" width="1.900" height="1.900" rx="0.950" fill="#c79b5c"/><circle cx="-9.525" cy="0.000" r="0.600" fill="#12151c"/><rect x="-6.665" y="-0.950" width="1.900" height="1.900" rx="0.950" fill="#c79b5c"/><circle cx="-5.715" cy="0.000" r="0.600" fill="#12151c"/><rect x="-2.850" y="-0.950" width="1.900" height="1.900" rx="0.950" fill="#c79b5c"/><circle cx="-1.900" cy="0.000" r="0.600" fill="#12151c"/><rect x="0.950" y="-0.950" width="1.900" height="1.900" rx="0.950" fill="#c79b5c"/><circle cx="1.900" cy="0.000" r="0.600" fill="#12151c"/><rect x="4.765" y="-0.950" width="1.900" height="1.900" rx="0.950" fill="#c79b5c"/><circle cx="5.715" cy="0.000" r="0.600" fill="#12151c"/><rect x="8.575" y="-0.950" width="1.900" height="1.900" rx="0.950" fill="#c79b5c"/><circle cx="9.525" cy="0.000" r="0.600" fill="#12151c"/><rect x="12.380" y="-0.950" width="1.900" height="1.900" rx="0.950" fill="#c79b5c"/><circle cx="13.330" cy="0.000" r="0.600" fill="#12151c"/><rect x="16.195" y="-0.950" width="1.900" height="1.900" rx="0.950" fill="#c79b5c"/><circle cx="17.145" cy="0.000" r="0.600" fill="#12151c"/><rect x="20.005" y="-0.950" width="1.900" height="1.900" rx="0.950" fill="#c79b5c"/><circle cx="20.955" cy="0.000" r="0.600" fill="#12151c"/><rect x="23.810" y="-0.950" width="1.900" height="1.900" rx="0.950" fill="#c79b5c"/><circle cx="24.760" cy="0.000" r="0.600" fill="#12151c"/><rect x="27.625" y="-0.950" width="1.900" height="1.900" rx="0.950" fill="#c79b5c"/><circle cx="28.575" cy="0.000" r="0.600" fill="#12151c"/><rect x="31.435" y="-0.950" width="1.900" height="1.900" rx="0.950" fill="#c79b5c"/><circle cx="32.385" cy="0.000" r="0.600" fill="#12151c"/><rect x="35.245" y="-0.950" width="1.900" height="1.900" rx="0.950" fill="#c79b5c"/><circle cx="36.195" cy="0.000" r="0.600" fill="#12151c"/><polygon points="-36.65,2.00 -35.75,2.00 -36.20,1.40" fill="#ffffff"/></svg>