<svg xmlns="http://www.w3.org/2000/svg" viewBox="-6.58 -1.50 28.40 15.70" preserveAspectRatio="xMidYMid meet" style="width:100%;height:100%"><rect x="-6.58" y="-1.50" width="28.40" height="15.70" fill="#12151c"/><rect x="0.000" y="-0.000" width="15.240" height="12.700" fill="#1e222b" stroke="#4ea1ff" stroke-width="0.25"/><polyline points="0.000,2.540 2.540,2.540" fill="none" stroke="#4ea1ff" stroke-width="0.25" stroke-linejoin="round"/><polyline points="0.000,7.620 2.540,7.620" fill="none" stroke="#4ea1ff" stroke-width="0.25" stroke-linejoin="round"/><polyline points="1.524,4.318 2.540,5.842 3.556,4.318 1.524,4.318" fill="#1e222b" stroke="#4ea1ff" stroke-width="0.25" stroke-linejoin="round"/><polyline points="2.540,2.540 2.540,7.620" fill="none" stroke="#4ea1ff" stroke-width="0.25" stroke-linejoin="round"/><polyline points="3.556,5.842 1.524,5.842" fill="none" stroke="#4ea1ff" stroke-width="0.25" stroke-linejoin="round"/><polyline points="4.572,5.334 5.334,4.572" fill="none" stroke="#4ea1ff" stroke-width="0.25" stroke-linejoin="round"/><polyline points="5.588,4.318 4.826,4.572 5.334,5.080 5.588,4.318" fill="#1e222b" stroke="#4ea1ff" stroke-width="0.25" stroke-linejoin="round"/><polyline points="5.588,5.334 6.350,4.572" fill="none" stroke="#4ea1ff" stroke-width="0.25" stroke-linejoin="round"/><polyline points="6.604,4.318 5.842,4.572 6.350,5.080 6.604,4.318" fill="#1e222b" stroke="#4ea1ff" stroke-width="0.25" stroke-linejoin="round"/><polyline points="7.112,6.350 7.620,6.350 7.620,3.810 7.112,3.810 7.112,6.350" fill="#1e222b" stroke="#4ea1ff" stroke-width="0.25" stroke-linejoin="round"/><polyline points="7.366,5.080 8.636,3.810" fill="none" stroke="#4ea1ff" stroke-width="0.25" stroke-linejoin="round"/><polyline points="7.366,5.080 8.636,6.350" fill="none" stroke="#4ea1ff" stroke-width="0.25" stroke-linejoin="round"/><polyline points="8.382,5.588 7.874,6.096 8.636,6.350 8.382,5.588" fill="#1e222b" stroke="#4ea1ff" stroke-width="0.25" stroke-linejoin="round"/><polyline points="8.636,3.810 8.636,2.540 15.240,2.540" fill="none" stroke="#4ea1ff" stroke-width="0.25" stroke-linejoin="round"/><polyline points="9.398,10.160 9.398,6.350" fill="none" stroke="#4ea1ff" stroke-width="0.25" stroke-linejoin="round"/><polyline points="9.398,10.160 9.906,10.160" fill="none" stroke="#4ea1ff" stroke-width="0.25" stroke-linejoin="round"/><polyline points="9.906,9.652 9.906,10.668" fill="none" stroke="#4ea1ff" stroke-width="0.25" stroke-linejoin="round"/><polyline points="10.922,7.620 11.430,7.620 11.430,5.080 10.922,5.080 10.922,7.620" fill="#1e222b" stroke="#4ea1ff" stroke-width="0.25" stroke-linejoin="round"/><polyline points="11.176,6.350 8.636,6.350" fill="none" stroke="#4ea1ff" stroke-width="0.25" stroke-linejoin="round"/><polyline points="11.176,6.350 12.446,5.080" fill="none" stroke="#4ea1ff" stroke-width="0.25" stroke-linejoin="round"/><polyline points="11.176,6.350 12.446,7.620" fill="none" stroke="#4ea1ff" stroke-width="0.25" stroke-linejoin="round"/><polyline points="11.938,9.652 9.906,9.652" fill="none" stroke="#4ea1ff" stroke-width="0.25" stroke-linejoin="round"/><polyline points="11.938,9.652 11.938,10.668" fill="none" stroke="#4ea1ff" stroke-width="0.25" stroke-linejoin="round"/><polyline points="11.938,10.668 9.906,10.668" fill="none" stroke="#4ea1ff" stroke-width="0.25" stroke-linejoin="round"/><polyline points="12.192,6.858 11.684,7.366 12.446,7.620 12.192,6.858" fill="#1e222b" stroke="#4ea1ff" stroke-width="0.25" stroke-linejoin="round"/><polyline points="12.446,2.540 12.446,5.080" fill="none" stroke="#4ea1ff" stroke-width="0.25" stroke-linejoin="round"/><polyline points="12.446,7.620 12.446,10.160" fill="none" stroke="#4ea1ff" stroke-width="0.25" stroke-linejoin="round"/><polyline points="13.208,5.334 14.732,5.334 14.732,5.588 13.208,5.588 13.208,5.334" fill="#1e222b" stroke="#4ea1ff" stroke-width="0.25" stroke-linejoin="round"/><polyline points="13.970,2.540 13.970,5.334" fill="none" stroke="#4ea1ff" stroke-width="0.25" stroke-linejoin="round"/><polyline points="13.970,5.334 13.208,6.604 14.732,6.604 13.970,5.334" fill="#1e222b" stroke="#4ea1ff" stroke-width="0.25" stroke-linejoin="round"/><polyline points="13.970,6.604 13.970,10.160" fill="none" stroke="#4ea1ff" stroke-width="0.25" stroke-linejoin="round"/><polyline points="15.240,10.160 11.938,10.160" fill="none" stroke="#4ea1ff" stroke-width="0.25" stroke-linejoin="round"/><circle cx="9.398" cy="6.350" r="0.254" fill="none" stroke="#4ea1ff" stroke-width="0.25"/><circle cx="12.446" cy="2.540" r="0.254" fill="none" stroke="#4ea1ff" stroke-width="0.25"/><circle cx="12.446" cy="10.160" r="0.254" fill="none" stroke="#4ea1ff" stroke-width="0.25"/><circle cx="13.970" cy="2.540" r="0.254" fill="none" stroke="#4ea1ff" stroke-width="0.25"/><circle cx="13.970" cy="10.160" r="0.254" fill="none" stroke="#4ea1ff" stroke-width="0.25"/><line x1="-5.080" y1="2.540" x2="0.000" y2="2.540" stroke="#e6e9ef" stroke-width="0.2"/><circle cx="-5.080" cy="2.540" r="0.4" fill="#4ea1ff"/><text x="-0.300" y="2.190" fill="#9aa3b2" font-size="0.9" text-anchor="end" font-family="sans-serif">1</text><line x1="-5.080" y1="7.620" x2="0.000" y2="7.620" stroke="#e6e9ef" stroke-width="0.2"/><circle cx="-5.080" cy="7.620" r="0.4" fill="#4ea1ff"/><text x="-0.300" y="7.270" fill="#9aa3b2" font-size="0.9" text-anchor="end" font-family="sans-serif">2</text><line x1="20.320" y1="2.540" x2="15.240" y2="2.540" stroke="#e6e9ef" stroke-width="0.2"/><circle cx="20.320" cy="2.540" r="0.4" fill="#4ea1ff"/><text x="15.540" y="2.190" fill="#9aa3b2" font-size="0.9" text-anchor="start" font-family="sans-serif">5</text><line x1="20.320" y1="10.160" x2="15.240" y2="10.160" stroke="#e6e9ef" stroke-width="0.2"/><circle cx="20.320" cy="10.160" r="0.4" fill="#4ea1ff"/><text x="15.540" y="9.810" fill="#9aa3b2" font-size="0.9" text-anchor="start" font-family="sans-serif">4</text></svg>