<svg xmlns="http://www.w3.org/2000/svg" viewBox="-20.30 -6.08 40.60 25.14" preserveAspectRatio="xMidYMid meet" style="width:100%;height:100%"><rect x="-20.30" y="-6.08" width="40.60" height="25.14" fill="#12151c"/><line x1="-19.300" y1="-5.080" x2="19.300" y2="-5.080" stroke="#d24d4d" stroke-width="0.080" stroke-linecap="round" opacity="0.7"/><line x1="19.300" y1="-5.080" x2="19.300" y2="18.060" stroke="#d24d4d" stroke-width="0.080" stroke-linecap="round" opacity="0.7"/><line x1="19.300" y1="18.060" x2="-19.300" y2="18.060" stroke="#d24d4d" stroke-width="0.080" stroke-linecap="round" opacity="0.7"/><line x1="-19.300" y1="18.060" x2="-19.300" y2="-5.080" stroke="#d24d4d" stroke-width="0.080" stroke-linecap="round" opacity="0.7"/><path d="M -16.229 9.989 A 0.641 0.641 0 0 1 -16.175 9.736" fill="none" stroke="#e6e9ef" stroke-width="0.12" opacity="1"/><path d="M -16.229 10.977 A 0.641 0.641 0 0 1 -16.175 10.724" fill="none" stroke="#e6e9ef" stroke-width="0.12" opacity="1"/><path d="M -16.175 9.736 A 0.500 0.500 0 0 1 -16.043 9.558" fill="none" stroke="#e6e9ef" stroke-width="0.12" opacity="1"/><path d="M -16.175 10.724 A 0.500 0.500 0 0 1 -16.043 10.546" fill="none" stroke="#e6e9ef" stroke-width="0.12" opacity="1"/><path d="M -16.043 9.558 A 1.123 1.123 0 0 1 -15.342 9.289" fill="none" stroke="#e6e9ef" stroke-width="0.12" opacity="1"/><path d="M -16.043 10.546 A 1.123 1.123 0 0 1 -15.342 10.277" fill="none" stroke="#e6e9ef" stroke-width="0.12" opacity="1"/><path d="M 15.342 9.289 A 1.123 1.123 0 0 1 16.043 9.558" fill="none" stroke="#e6e9ef" stroke-width="0.12" opacity="1"/><path d="M 15.342 10.277 A 1.123 1.123 0 0 1 16.043 10.546" fill="none" stroke="#e6e9ef" stroke-width="0.12" opacity="1"/><path d="M 16.043 9.558 A 0.500 0.500 0 0 1 16.175 9.736" fill="none" stroke="#e6e9ef" stroke-width="0.12" opacity="1"/><path d="M 16.043 10.546 A 0.500 0.500 0 0 1 16.175 10.724" fill="none" stroke="#e6e9ef" stroke-width="0.12" opacity="1"/><path d="M 16.175 9.736 A 0.661 0.661 0 0 1 16.230 9.989" fill="none" stroke="#e6e9ef" stroke-width="0.12" opacity="1"/><path d="M 16.175 10.724 A 0.661 0.661 0 0 1 16.230 10.976" fill="none" stroke="#e6e9ef" stroke-width="0.12" opacity="1"/><path d="M -16.229 10.977 A 0.641 0.641 0 0 1 -16.175 10.724" fill="none" stroke="#6b7280" stroke-width="0.12" opacity="0.8"/><path d="M -16.175 9.736 A 0.500 0.500 0 0 1 -16.043 9.558" fill="none" stroke="#6b7280" stroke-width="0.12" opacity="0.8"/><path d="M -16.175 10.724 A 0.500 0.500 0 0 1 -16.043 10.546" fill="none" stroke="#6b7280" stroke-width="0.12" opacity="0.8"/><path d="M -16.043 9.558 A 1.123 1.123 0 0 1 -15.342 9.289" fill="none" stroke="#6b7280" stroke-width="0.12" opacity="0.8"/><path d="M -16.043 10.546 A 1.123 1.123 0 0 1 -15.342 10.277" fill="none" stroke="#6b7280" stroke-width="0.12" opacity="0.8"/><path d="M 15.342 9.289 A 1.123 1.123 0 0 1 16.043 9.558" fill="none" stroke="#6b7280" stroke-width="0.12" opacity="0.8"/><path d="M 15.342 10.277 A 1.123 1.123 0 0 1 16.043 10.546" fill="none" stroke="#6b7280" stroke-width="0.12" opacity="0.8"/><path d="M 16.043 9.558 A 0.500 0.500 0 0 1 16.175 9.736" fill="none" stroke="#6b7280" stroke-width="0.12" opacity="0.8"/><path d="M 16.043 10.546 A 0.500 0.500 0 0 1 16.175 10.724" fill="none" stroke="#6b7280" stroke-width="0.12" opacity="0.8"/><path d="M 16.175 9.736 A 0.661 0.661 0 0 1 16.230 9.989" fill="none" stroke="#6b7280" stroke-width="0.12" opacity="0.8"/><path d="M 16.175 10.724 A 0.661 0.661 0 0 1 16.230 10.976" fill="none" stroke="#6b7280" stroke-width="0.12" opacity="0.8"/><circle cx="-13.970" cy="5.080" r="0.150" fill="none" stroke="#e6e9ef" stroke-width="0.12" opacity="1"/><rect x="-14.770" y="0.470" width="1.600" height="1.600" rx="0.800" fill="#c79b5c"/><circle cx="-13.970" cy="1.270" r="0.450" fill="#12151c"/><rect x="-14.770" y="-2.070" width="1.600" height="1.600" rx="0.800" fill="#c79b5c"/><circle cx="-13.970" cy="-1.270" r="0.450" fill="#12151c"/><rect x="-12.230" y="0.470" width="1.600" height="1.600" rx="0.800" fill="#c79b5c"/><circle cx="-11.430" cy="1.270" r="0.450" fill="#12151c"/><rect x="-12.230" y="-2.070" width="1.600" height="1.600" rx="0.800" fill="#c79b5c"/><circle cx="-11.430" cy="-1.270" r="0.450" fill="#12151c"/><rect x="-9.690" y="0.470" width="1.600" height="1.600" rx="0.800" fill="#c79b5c"/><circle cx="-8.890" cy="1.270" r="0.450" fill="#12151c"/><rect x="-9.690" y="-2.070" width="1.600" height="1.600" rx="0.800" fill="#c79b5c"/><circle cx="-8.890" cy="-1.270" r="0.450" fill="#12151c"/><rect x="-7.150" y="0.470" width="1.600" height="1.600" rx="0.800" fill="#c79b5c"/><circle cx="-6.350" cy="1.270" r="0.450" fill="#12151c"/><rect x="-7.150" y="-2.070" width="1.600" height="1.600" rx="0.800" fill="#c79b5c"/><circle cx="-6.350" cy="-1.270" r="0.450" fill="#12151c"/><rect x="-4.610" y="0.470" width="1.600" height="1.600" rx="0.800" fill="#c79b5c"/><circle cx="-3.810" cy="1.270" r="0.450" fill="#12151c"/><rect x="-4.610" y="-2.070" width="1.600" height="1.600" rx="0.800" fill="#c79b5c"/><circle cx="-3.810" cy="-1.270" r="0.450" fill="#12151c"/><rect x="-2.070" y="0.470" width="1.600" height="1.600" rx="0.800" fill="#c79b5c"/><circle cx="-1.270" cy="1.270" r="0.450" fill="#12151c"/><rect x="-2.070" y="-2.070" width="1.600" height="1.600" rx="0.800" fill="#c79b5c"/><circle cx="-1.270" cy="-1.270" r="0.450" fill="#12151c"/><rect x="0.470" y="0.470" width="1.600" height="1.600" rx="0.800" fill="#c79b5c"/><circle cx="1.270" cy="1.270" r="0.450" fill="#12151c"/><rect x="0.470" y="-2.070" width="1.600" height="1.600" rx="0.800" fill="#c79b5c"/><circle cx="1.270" cy="-1.270" r="0.450" fill="#12151c"/><rect x="3.010" y="0.470" width="1.600" height="1.600" rx="0.800" fill="#c79b5c"/><circle cx="3.810" cy="1.270" r="0.450" fill="#12151c"/><rect x="3.010" y="-2.070" width="1.600" height="1.600" rx="0.800" fill="#c79b5c"/><circle cx="3.810" cy="-1.270" r="0.450" fill="#12151c"/><rect x="5.550" y="0.470" width="1.600" height="1.600" rx="0.800" fill="#c79b5c"/><circle cx="6.350" cy="1.270" r="0.450" fill="#12151c"/><rect x="5.550" y="-2.070" width="1.600" height="1.600" rx="0.800" fill="#c79b5c"/><circle cx="6.350" cy="-1.270" r="0.450" fill="#12151c"/><rect x="8.090" y="0.470" width="1.600" height="1.600" rx="0.800" fill="#c79b5c"/><circle cx="8.890" cy="1.270" r="0.450" fill="#12151c"/><rect x="8.090" y="-2.070" width="1.600" height="1.600" rx="0.800" fill="#c79b5c"/><circle cx="8.890" cy="-1.270" r="0.450" fill="#12151c"/><rect x="10.630" y="0.470" width="1.600" height="1.600" rx="0.800" fill="#c79b5c"/><circle cx="11.430" cy="1.270" r="0.450" fill="#12151c"/><rect x="10.630" y="-2.070" width="1.600" height="1.600" rx="0.800" fill="#c79b5c"/><circle cx="11.430" cy="-1.270" r="0.450" fill="#12151c"/><rect x="13.170" y="0.470" width="1.600" height="1.600" rx="0.800" fill="#c79b5c"/><circle cx="13.970" cy="1.270" r="0.450" fill="#12151c"/><rect x="13.170" y="-2.070" width="1.600" height="1.600" rx="0.800" fill="#c79b5c"/><circle cx="13.970" cy="-1.270" r="0.450" fill="#12151c"/></svg>