<svg xmlns="http://www.w3.org/2000/svg" viewBox="-6.46 -5.19 12.92 10.38" preserveAspectRatio="xMidYMid meet" style="width:100%;height:100%"><rect x="-6.46" y="-5.19" width="12.92" height="10.38" fill="#12151c"/><line x1="-5.205" y1="-3.935" x2="5.205" y2="-3.935" stroke="#e6e9ef" stroke-width="0.200" stroke-linecap="round" opacity="1"/><line x1="-5.205" y1="-3.500" x2="-4.750" y2="-3.935" stroke="#e6e9ef" stroke-width="0.200" stroke-linecap="round" opacity="1"/><line x1="-5.205" y1="-3.250" x2="-4.500" y2="-3.935" stroke="#e6e9ef" stroke-width="0.200" stroke-linecap="round" opacity="1"/><line x1="-5.205" y1="-3.000" x2="-4.250" y2="-3.935" stroke="#e6e9ef" stroke-width="0.200" stroke-linecap="round" opacity="1"/><line x1="-5.205" y1="-2.750" x2="-4.022" y2="-3.933" stroke="#e6e9ef" stroke-width="0.200" stroke-linecap="round" opacity="1"/><line x1="-5.205" y1="3.935" x2="-5.205" y2="-3.935" stroke="#e6e9ef" stroke-width="0.200" stroke-linecap="round" opacity="1"/><line x1="-5.205" y1="3.935" x2="5.205" y2="3.935" stroke="#e6e9ef" stroke-width="0.200" stroke-linecap="round" opacity="1"/><line x1="-5.200" y1="-3.750" x2="-5.015" y2="-3.935" stroke="#e6e9ef" stroke-width="0.200" stroke-linecap="round" opacity="1"/><line x1="5.205" y1="3.935" x2="5.205" y2="-3.935" stroke="#e6e9ef" stroke-width="0.200" stroke-linecap="round" opacity="1"/><line x1="-4.310" y1="-2.540" x2="-3.810" y2="-2.540" stroke="#4a5160" stroke-width="0.100" stroke-linecap="round" opacity="0.7"/><line x1="-4.310" y1="0.000" x2="-3.810" y2="0.000" stroke="#4a5160" stroke-width="0.100" stroke-linecap="round" opacity="0.7"/><line x1="-4.310" y1="2.540" x2="-3.810" y2="2.540" stroke="#4a5160" stroke-width="0.100" stroke-linecap="round" opacity="0.7"/><line x1="-3.810" y1="-2.540" x2="-3.810" y2="-3.040" stroke="#4a5160" stroke-width="0.100" stroke-linecap="round" opacity="0.7"/><line x1="-3.810" y1="-2.540" x2="-3.310" y2="-2.540" stroke="#4a5160" stroke-width="0.100" stroke-linecap="round" opacity="0.7"/><line x1="-3.810" y1="-2.040" x2="-3.810" y2="-2.540" stroke="#4a5160" stroke-width="0.100" stroke-linecap="round" opacity="0.7"/><line x1="-3.810" y1="0.000" x2="-3.810" y2="-0.500" stroke="#4a5160" stroke-width="0.100" stroke-linecap="round" opacity="0.7"/><line x1="-3.810" y1="0.000" x2="-3.310" y2="0.000" stroke="#4a5160" stroke-width="0.100" stroke-linecap="round" opacity="0.7"/><line x1="-3.810" y1="0.500" x2="-3.810" y2="0.000" stroke="#4a5160" stroke-width="0.100" stroke-linecap="round" opacity="0.7"/><line x1="-3.810" y1="2.540" x2="-3.810" y2="2.040" stroke="#4a5160" stroke-width="0.100" stroke-linecap="round" opacity="0.7"/><line x1="-3.810" y1="2.540" x2="-3.310" y2="2.540" stroke="#4a5160" stroke-width="0.100" stroke-linecap="round" opacity="0.7"/><line x1="-3.810" y1="3.040" x2="-3.810" y2="2.540" stroke="#4a5160" stroke-width="0.100" stroke-linecap="round" opacity="0.7"/><line x1="-0.500" y1="0.000" x2="0.000" y2="0.000" stroke="#4a5160" stroke-width="0.100" stroke-linecap="round" opacity="0.7"/><line x1="0.000" y1="0.000" x2="0.000" y2="-0.500" stroke="#4a5160" stroke-width="0.100" stroke-linecap="round" opacity="0.7"/><line x1="0.000" y1="0.000" x2="0.500" y2="0.000" stroke="#4a5160" stroke-width="0.100" stroke-linecap="round" opacity="0.7"/><line x1="0.000" y1="0.500" x2="0.000" y2="0.000" stroke="#4a5160" stroke-width="0.100" stroke-linecap="round" opacity="0.7"/><line x1="3.310" y1="-2.540" x2="3.810" y2="-2.540" stroke="#4a5160" stroke-width="0.100" stroke-linecap="round" opacity="0.7"/><line x1="3.310" y1="0.000" x2="3.810" y2="0.000" stroke="#4a5160" stroke-width="0.100" stroke-linecap="round" opacity="0.7"/><line x1="3.310" y1="2.540" x2="3.810" y2="2.540" stroke="#4a5160" stroke-width="0.100" stroke-linecap="round" opacity="0.7"/><line x1="3.810" y1="-2.540" x2="3.810" y2="-3.040" stroke="#4a5160" stroke-width="0.100" stroke-linecap="round" opacity="0.7"/><line x1="3.810" y1="-2.540" x2="4.310" y2="-2.540" stroke="#4a5160" stroke-width="0.100" stroke-linecap="round" opacity="0.7"/><line x1="3.810" y1="-2.040" x2="3.810" y2="-2.540" stroke="#4a5160" stroke-width="0.100" stroke-linecap="round" opacity="0.7"/><line x1="3.810" y1="0.000" x2="3.810" y2="-0.500" stroke="#4a5160" stroke-width="0.100" stroke-linecap="round" opacity="0.7"/><line x1="3.810" y1="0.000" x2="4.310" y2="0.000" stroke="#4a5160" stroke-width="0.100" stroke-linecap="round" opacity="0.7"/><line x1="3.810" y1="0.500" x2="3.810" y2="0.000" stroke="#4a5160" stroke-width="0.100" stroke-linecap="round" opacity="0.7"/><line x1="3.810" y1="2.540" x2="3.810" y2="2.040" stroke="#4a5160" stroke-width="0.100" stroke-linecap="round" opacity="0.7"/><line x1="3.810" y1="2.540" x2="4.310" y2="2.540" stroke="#4a5160" stroke-width="0.100" stroke-linecap="round" opacity="0.7"/><line x1="3.810" y1="3.040" x2="3.810" y2="2.540" stroke="#4a5160" stroke-width="0.100" stroke-linecap="round" opacity="0.7"/><line x1="-5.205" y1="-3.935" x2="5.205" y2="-3.935" stroke="#6b7280" stroke-width="0.100" stroke-linecap="round" opacity="0.8"/><line x1="-5.205" y1="3.935" x2="-5.205" y2="-3.935" stroke="#6b7280" stroke-width="0.100" stroke-linecap="round" opacity="0.8"/><line x1="-5.205" y1="3.935" x2="5.205" y2="3.935" stroke="#6b7280" stroke-width="0.100" stroke-linecap="round" opacity="0.8"/><line x1="5.205" y1="3.935" x2="5.205" y2="-3.935" stroke="#6b7280" stroke-width="0.100" stroke-linecap="round" opacity="0.8"/><line x1="-5.460" y1="-4.190" x2="5.460" y2="-4.190" stroke="#d24d4d" stroke-width="0.080" stroke-linecap="round" opacity="0.7"/><line x1="5.460" y1="-4.190" x2="5.460" y2="4.190" stroke="#d24d4d" stroke-width="0.080" stroke-linecap="round" opacity="0.7"/><line x1="5.460" y1="4.190" x2="-5.460" y2="4.190" stroke="#d24d4d" stroke-width="0.080" stroke-linecap="round" opacity="0.7"/><line x1="-5.460" y1="4.190" x2="-5.460" y2="-4.190" stroke="#d24d4d" stroke-width="0.080" stroke-linecap="round" opacity="0.7"/><rect x="-4.560" y="-3.290" width="1.500" height="1.500" rx="0.750" fill="#c79b5c"/><circle cx="-3.810" cy="-2.540" r="0.400" fill="#12151c"/><rect x="-4.560" y="-0.750" width="1.500" height="1.500" rx="0.750" fill="#c79b5c"/><circle cx="-3.810" cy="0.000" r="0.400" fill="#12151c"/><rect x="-4.560" y="1.790" width="1.500" height="1.500" rx="0.750" fill="#c79b5c"/><circle cx="-3.810" cy="2.540" r="0.400" fill="#12151c"/><rect x="3.060" y="1.790" width="1.500" height="1.500" rx="0.750" fill="#c79b5c"/><circle cx="3.810" cy="2.540" r="0.400" fill="#12151c"/><rect x="3.060" y="-0.750" width="1.500" height="1.500" rx="0.750" fill="#c79b5c"/><circle cx="3.810" cy="0.000" r="0.400" fill="#12151c"/><rect x="3.060" y="-3.290" width="1.500" height="1.500" rx="0.750" fill="#c79b5c"/><circle cx="3.810" cy="-2.540" r="0.400" fill="#12151c"/></svg>