<svg xmlns="http://www.w3.org/2000/svg" viewBox="-9.77 -3.75 18.69 7.06" preserveAspectRatio="xMidYMid meet" style="width:100%;height:100%"><rect x="-9.77" y="-3.75" width="18.69" height="7.06" fill="#12151c"/><circle cx="-8.525" cy="-2.500" r="0.125" fill="none" stroke="#e6e9ef" stroke-width="0.12" opacity="1"/><circle cx="-8.523" cy="-2.500" r="0.250" fill="none" stroke="#6b7280" stroke-width="0.12" opacity="0.8"/><rect x="-7.915" y="-2.310" width="0.230" height="1.200" rx="0.000" fill="#c79b5c"/><rect x="-7.915" y="1.110" width="0.230" height="1.200" rx="0.000" fill="#c79b5c"/><rect x="-7.515" y="-2.310" width="0.230" height="1.200" rx="0.000" fill="#c79b5c"/><rect x="-7.515" y="1.110" width="0.230" height="1.200" rx="0.000" fill="#c79b5c"/><rect x="-7.115" y="-2.310" width="0.230" height="1.200" rx="0.000" fill="#c79b5c"/><rect x="-7.115" y="1.110" width="0.230" height="1.200" rx="0.000" fill="#c79b5c"/><rect x="-6.715" y="-2.310" width="0.230" height="1.200" rx="0.000" fill="#c79b5c"/><rect x="-6.715" y="1.110" width="0.230" height="1.200" rx="0.000" fill="#c79b5c"/><rect x="-6.315" y="-2.310" width="0.230" height="1.200" rx="0.000" fill="#c79b5c"/><rect x="-6.315" y="1.110" width="0.230" height="1.200" rx="0.000" fill="#c79b5c"/><rect x="-5.915" y="-2.310" width="0.230" height="1.200" rx="0.000" fill="#c79b5c"/><rect x="-5.915" y="1.110" width="0.230" height="1.200" rx="0.000" fill="#c79b5c"/><rect x="-5.515" y="-2.310" width="0.230" height="1.200" rx="0.000" fill="#c79b5c"/><rect x="-5.515" y="1.110" width="0.230" height="1.200" rx="0.000" fill="#c79b5c"/><rect x="-5.115" y="-2.310" width="0.230" height="1.200" rx="0.000" fill="#c79b5c"/><rect x="-5.115" y="1.110" width="0.230" height="1.200" rx="0.000" fill="#c79b5c"/><rect x="-4.715" y="-2.310" width="0.230" height="1.200" rx="0.000" fill="#c79b5c"/><rect x="-4.715" y="1.110" width="0.230" height="1.200" rx="0.000" fill="#c79b5c"/><rect x="-4.315" y="-2.310" width="0.230" height="1.200" rx="0.000" fill="#c79b5c"/><rect x="-4.315" y="1.110" width="0.230" height="1.200" rx="0.000" fill="#c79b5c"/><rect x="-3.915" y="-2.310" width="0.230" height="1.200" rx="0.000" fill="#c79b5c"/><rect x="-3.915" y="1.110" width="0.230" height="1.200" rx="0.000" fill="#c79b5c"/><rect x="-3.515" y="-2.310" width="0.230" height="1.200" rx="0.000" fill="#c79b5c"/><rect x="-3.515" y="1.110" width="0.230" height="1.200" rx="0.000" fill="#c79b5c"/><rect x="-3.115" y="-2.310" width="0.230" height="1.200" rx="0.000" fill="#c79b5c"/><rect x="-3.115" y="1.110" width="0.230" height="1.200" rx="0.000" fill="#c79b5c"/><rect x="-2.715" y="-2.310" width="0.230" height="1.200" rx="0.000" fill="#c79b5c"/><rect x="-2.715" y="1.110" width="0.230" height="1.200" rx="0.000" fill="#c79b5c"/><rect x="-2.315" y="-2.310" width="0.230" height="1.200" rx="0.000" fill="#c79b5c"/><rect x="-2.315" y="1.110" width="0.230" height="1.200" rx="0.000" fill="#c79b5c"/><rect x="-1.915" y="-2.310" width="0.230" height="1.200" rx="0.000" fill="#c79b5c"/><rect x="-1.915" y="1.110" width="0.230" height="1.200" rx="0.000" fill="#c79b5c"/><rect x="-1.515" y="-2.310" width="0.230" height="1.200" rx="0.000" fill="#c79b5c"/><rect x="-1.515" y="1.110" width="0.230" height="1.200" rx="0.000" fill="#c79b5c"/><rect x="-1.115" y="-2.310" width="0.230" height="1.200" rx="0.000" fill="#c79b5c"/><rect x="-1.115" y="1.110" width="0.230" height="1.200" rx="0.000" fill="#c79b5c"/><rect x="-0.715" y="-2.310" width="0.230" height="1.200" rx="0.000" fill="#c79b5c"/><rect x="-0.715" y="1.110" width="0.230" height="1.200" rx="0.000" fill="#c79b5c"/><rect x="-0.315" y="-2.310" width="0.230" height="1.200" rx="0.000" fill="#c79b5c"/><rect x="-0.315" y="1.110" width="0.230" height="1.200" rx="0.000" fill="#c79b5c"/><rect x="0.085" y="-2.310" width="0.230" height="1.200" rx="0.000" fill="#c79b5c"/><rect x="0.085" y="1.110" width="0.230" height="1.200" rx="0.000" fill="#c79b5c"/><rect x="0.485" y="-2.310" width="0.230" height="1.200" rx="0.000" fill="#c79b5c"/><rect x="0.485" y="1.110" width="0.230" height="1.200" rx="0.000" fill="#c79b5c"/><rect x="0.885" y="-2.310" width="0.230" height="1.200" rx="0.000" fill="#c79b5c"/><rect x="0.885" y="1.110" width="0.230" height="1.200" rx="0.000" fill="#c79b5c"/><rect x="1.285" y="-2.310" width="0.230" height="1.200" rx="0.000" fill="#c79b5c"/><rect x="1.285" y="1.110" width="0.230" height="1.200" rx="0.000" fill="#c79b5c"/><rect x="1.685" y="-2.310" width="0.230" height="1.200" rx="0.000" fill="#c79b5c"/><rect x="1.685" y="1.110" width="0.230" height="1.200" rx="0.000" fill="#c79b5c"/><rect x="2.085" y="-2.310" width="0.230" height="1.200" rx="0.000" fill="#c79b5c"/><rect x="2.085" y="1.110" width="0.230" height="1.200" rx="0.000" fill="#c79b5c"/><rect x="2.485" y="-2.310" width="0.230" height="1.200" rx="0.000" fill="#c79b5c"/><rect x="2.485" y="1.110" width="0.230" height="1.200" rx="0.000" fill="#c79b5c"/><rect x="2.885" y="-2.310" width="0.230" height="1.200" rx="0.000" fill="#c79b5c"/><rect x="2.885" y="1.110" width="0.230" height="1.200" rx="0.000" fill="#c79b5c"/><rect x="3.285" y="-2.310" width="0.230" height="1.200" rx="0.000" fill="#c79b5c"/><rect x="3.285" y="1.110" width="0.230" height="1.200" rx="0.000" fill="#c79b5c"/><rect x="3.685" y="-2.310" width="0.230" height="1.200" rx="0.000" fill="#c79b5c"/><rect x="3.685" y="1.110" width="0.230" height="1.200" rx="0.000" fill="#c79b5c"/><rect x="4.085" y="-2.310" width="0.230" height="1.200" rx="0.000" fill="#c79b5c"/><rect x="4.085" y="1.110" width="0.230" height="1.200" rx="0.000" fill="#c79b5c"/><rect x="4.485" y="-2.310" width="0.230" height="1.200" rx="0.000" fill="#c79b5c"/><rect x="4.485" y="1.110" width="0.230" height="1.200" rx="0.000" fill="#c79b5c"/><rect x="4.885" y="-2.310" width="0.230" height="1.200" rx="0.000" fill="#c79b5c"/><rect x="4.885" y="1.110" width="0.230" height="1.200" rx="0.000" fill="#c79b5c"/><rect x="5.285" y="-2.310" width="0.230" height="1.200" rx="0.000" fill="#c79b5c"/><rect x="5.285" y="1.110" width="0.230" height="1.200" rx="0.000" fill="#c79b5c"/><rect x="5.685" y="-2.310" width="0.230" height="1.200" rx="0.000" fill="#c79b5c"/><rect x="5.685" y="1.110" width="0.230" height="1.200" rx="0.000" fill="#c79b5c"/><rect x="6.085" y="-2.310" width="0.230" height="1.200" rx="0.000" fill="#c79b5c"/><rect x="6.085" y="1.110" width="0.230" height="1.200" rx="0.000" fill="#c79b5c"/><rect x="6.485" y="-2.310" width="0.230" height="1.200" rx="0.000" fill="#c79b5c"/><rect x="6.485" y="1.110" width="0.230" height="1.200" rx="0.000" fill="#c79b5c"/><rect x="6.885" y="-2.310" width="0.230" height="1.200" rx="0.000" fill="#c79b5c"/><rect x="6.885" y="1.110" width="0.230" height="1.200" rx="0.000" fill="#c79b5c"/><rect x="7.285" y="-2.310" width="0.230" height="1.200" rx="0.000" fill="#c79b5c"/><rect x="7.285" y="1.110" width="0.230" height="1.200" rx="0.000" fill="#c79b5c"/><rect x="7.685" y="-2.310" width="0.230" height="1.200" rx="0.000" fill="#c79b5c"/><rect x="7.685" y="1.110" width="0.230" height="1.200" rx="0.000" fill="#c79b5c"/></svg>