<svg xmlns="http://www.w3.org/2000/svg" viewBox="-8.45 -7.80 16.90 15.60" preserveAspectRatio="xMidYMid meet" style="width:100%;height:100%"><rect x="-8.45" y="-7.80" width="16.90" height="15.60" fill="#12151c"/><circle cx="-6.900" cy="-5.400" r="0.125" fill="none" stroke="#e6e9ef" stroke-width="0.12" opacity="1"/><circle cx="-5.300" cy="-5.300" r="0.250" fill="none" stroke="#6b7280" stroke-width="0.12" opacity="0.8"/><rect x="-7.450" y="-4.900" width="1.500" height="0.200" rx="0.000" fill="#c79b5c"/><rect x="-7.450" y="-4.500" width="1.500" height="0.200" rx="0.000" fill="#c79b5c"/><rect x="-7.450" y="-4.100" width="1.500" height="0.200" rx="0.000" fill="#c79b5c"/><rect x="-7.450" y="-3.700" width="1.500" height="0.200" rx="0.000" fill="#c79b5c"/><rect x="-7.450" y="-3.300" width="1.500" height="0.200" rx="0.000" fill="#c79b5c"/><rect x="-7.450" y="-2.900" width="1.500" height="0.200" rx="0.000" fill="#c79b5c"/><rect x="-7.450" y="-2.500" width="1.500" height="0.200" rx="0.000" fill="#c79b5c"/><rect x="-7.450" y="-2.100" width="1.500" height="0.200" rx="0.000" fill="#c79b5c"/><rect x="-7.450" y="-1.700" width="1.500" height="0.200" rx="0.000" fill="#c79b5c"/><rect x="-7.450" y="-1.300" width="1.500" height="0.200" rx="0.000" fill="#c79b5c"/><rect x="-7.450" y="-0.900" width="1.500" height="0.200" rx="0.000" fill="#c79b5c"/><rect x="-7.450" y="-0.500" width="1.500" height="0.200" rx="0.000" fill="#c79b5c"/><rect x="-7.450" y="-0.100" width="1.500" height="0.200" rx="0.000" fill="#c79b5c"/><rect x="-7.450" y="0.300" width="1.500" height="0.200" rx="0.000" fill="#c79b5c"/><rect x="-7.450" y="0.700" width="1.500" height="0.200" rx="0.000" fill="#c79b5c"/><rect x="-7.450" y="1.100" width="1.500" height="0.200" rx="0.000" fill="#c79b5c"/><rect x="-7.450" y="1.500" width="1.500" height="0.200" rx="0.000" fill="#c79b5c"/><rect x="-7.450" y="1.900" width="1.500" height="0.200" rx="0.000" fill="#c79b5c"/><rect x="-7.450" y="2.300" width="1.500" height="0.200" rx="0.000" fill="#c79b5c"/><rect x="-7.450" y="2.700" width="1.500" height="0.200" rx="0.000" fill="#c79b5c"/><rect x="-7.450" y="3.100" width="1.500" height="0.200" rx="0.000" fill="#c79b5c"/><rect x="-7.450" y="3.500" width="1.500" height="0.200" rx="0.000" fill="#c79b5c"/><rect x="-7.450" y="3.900" width="1.500" height="0.200" rx="0.000" fill="#c79b5c"/><rect x="-7.450" y="4.300" width="1.500" height="0.200" rx="0.000" fill="#c79b5c"/><rect x="-7.450" y="4.700" width="1.500" height="0.200" rx="0.000" fill="#c79b5c"/><rect x="-5.550" y="6.600" width="1.500" height="0.200" rx="0.000" fill="#c79b5c"/><rect x="-5.150" y="6.600" width="1.500" height="0.200" rx="0.000" fill="#c79b5c"/><rect x="-4.750" y="6.600" width="1.500" height="0.200" rx="0.000" fill="#c79b5c"/><rect x="-4.350" y="6.600" width="1.500" height="0.200" rx="0.000" fill="#c79b5c"/><rect x="-3.950" y="6.600" width="1.500" height="0.200" rx="0.000" fill="#c79b5c"/><rect x="-3.550" y="6.600" width="1.500" height="0.200" rx="0.000" fill="#c79b5c"/><rect x="-3.150" y="6.600" width="1.500" height="0.200" rx="0.000" fill="#c79b5c"/><rect x="-2.750" y="6.600" width="1.500" height="0.200" rx="0.000" fill="#c79b5c"/><rect x="-2.350" y="6.600" width="1.500" height="0.200" rx="0.000" fill="#c79b5c"/><rect x="-1.950" y="6.600" width="1.500" height="0.200" rx="0.000" fill="#c79b5c"/><rect x="-1.550" y="6.600" width="1.500" height="0.200" rx="0.000" fill="#c79b5c"/><rect x="-1.150" y="6.600" width="1.500" height="0.200" rx="0.000" fill="#c79b5c"/><rect x="-0.750" y="6.600" width="1.500" height="0.200" rx="0.000" fill="#c79b5c"/><rect x="-0.350" y="6.600" width="1.500" height="0.200" rx="0.000" fill="#c79b5c"/><rect x="0.050" y="6.600" width="1.500" height="0.200" rx="0.000" fill="#c79b5c"/><rect x="0.450" y="6.600" width="1.500" height="0.200" rx="0.000" fill="#c79b5c"/><rect x="0.850" y="6.600" width="1.500" height="0.200" rx="0.000" fill="#c79b5c"/><rect x="1.250" y="6.600" width="1.500" height="0.200" rx="0.000" fill="#c79b5c"/><rect x="1.650" y="6.600" width="1.500" height="0.200" rx="0.000" fill="#c79b5c"/><rect x="2.050" y="6.600" width="1.500" height="0.200" rx="0.000" fill="#c79b5c"/><rect x="2.450" y="6.600" width="1.500" height="0.200" rx="0.000" fill="#c79b5c"/><rect x="2.850" y="6.600" width="1.500" height="0.200" rx="0.000" fill="#c79b5c"/><rect x="3.250" y="6.600" width="1.500" height="0.200" rx="0.000" fill="#c79b5c"/><rect x="3.650" y="6.600" width="1.500" height="0.200" rx="0.000" fill="#c79b5c"/><rect x="4.050" y="6.600" width="1.500" height="0.200" rx="0.000" fill="#c79b5c"/><rect x="5.950" y="4.700" width="1.500" height="0.200" rx="0.000" fill="#c79b5c"/><rect x="5.950" y="4.300" width="1.500" height="0.200" rx="0.000" fill="#c79b5c"/><rect x="5.950" y="3.900" width="1.500" height="0.200" rx="0.000" fill="#c79b5c"/><rect x="5.950" y="3.500" width="1.500" height="0.200" rx="0.000" fill="#c79b5c"/><rect x="5.950" y="3.100" width="1.500" height="0.200" rx="0.000" fill="#c79b5c"/><rect x="5.950" y="2.700" width="1.500" height="0.200" rx="0.000" fill="#c79b5c"/><rect x="5.950" y="2.300" width="1.500" height="0.200" rx="0.000" fill="#c79b5c"/><rect x="5.950" y="1.900" width="1.500" height="0.200" rx="0.000" fill="#c79b5c"/><rect x="5.950" y="1.500" width="1.500" height="0.200" rx="0.000" fill="#c79b5c"/><rect x="5.950" y="1.100" width="1.500" height="0.200" rx="0.000" fill="#c79b5c"/><rect x="5.950" y="0.700" width="1.500" height="0.200" rx="0.000" fill="#c79b5c"/><rect x="5.950" y="0.300" width="1.500" height="0.200" rx="0.000" fill="#c79b5c"/><rect x="5.950" y="-0.100" width="1.500" height="0.200" rx="0.000" fill="#c79b5c"/><rect x="5.950" y="-0.500" width="1.500" height="0.200" rx="0.000" fill="#c79b5c"/><rect x="5.950" y="-0.900" width="1.500" height="0.200" rx="0.000" fill="#c79b5c"/><rect x="5.950" y="-1.300" width="1.500" height="0.200" rx="0.000" fill="#c79b5c"/><rect x="5.950" y="-1.700" width="1.500" height="0.200" rx="0.000" fill="#c79b5c"/><rect x="5.950" y="-2.100" width="1.500" height="0.200" rx="0.000" fill="#c79b5c"/><rect x="5.950" y="-2.500" width="1.500" height="0.200" rx="0.000" fill="#c79b5c"/><rect x="5.950" y="-2.900" width="1.500" height="0.200" rx="0.000" fill="#c79b5c"/><rect x="5.950" y="-3.300" width="1.500" height="0.200" rx="0.000" fill="#c79b5c"/><rect x="5.950" y="-3.700" width="1.500" height="0.200" rx="0.000" fill="#c79b5c"/><rect x="5.950" y="-4.100" width="1.500" height="0.200" rx="0.000" fill="#c79b5c"/><rect x="5.950" y="-4.500" width="1.500" height="0.200" rx="0.000" fill="#c79b5c"/><rect x="5.950" y="-4.900" width="1.500" height="0.200" rx="0.000" fill="#c79b5c"/><rect x="4.050" y="-6.800" width="1.500" height="0.200" rx="0.000" fill="#c79b5c"/><rect x="3.650" y="-6.800" width="1.500" height="0.200" rx="0.000" fill="#c79b5c"/><rect x="3.250" y="-6.800" width="1.500" height="0.200" rx="0.000" fill="#c79b5c"/><rect x="2.850" y="-6.800" width="1.500" height="0.200" rx="0.000" fill="#c79b5c"/><rect x="2.450" y="-6.800" width="1.500" height="0.200" rx="0.000" fill="#c79b5c"/><rect x="2.050" y="-6.800" width="1.500" height="0.200" rx="0.000" fill="#c79b5c"/><rect x="1.650" y="-6.800" width="1.500" height="0.200" rx="0.000" fill="#c79b5c"/><rect x="1.250" y="-6.800" width="1.500" height="0.200" rx="0.000" fill="#c79b5c"/><rect x="0.850" y="-6.800" width="1.500" height="0.200" rx="0.000" fill="#c79b5c"/><rect x="0.450" y="-6.800" width="1.500" height="0.200" rx="0.000" fill="#c79b5c"/><rect x="0.050" y="-6.800" width="1.500" height="0.200" rx="0.000" fill="#c79b5c"/><rect x="-0.350" y="-6.800" width="1.500" height="0.200" rx="0.000" fill="#c79b5c"/><rect x="-0.750" y="-6.800" width="1.500" height="0.200" rx="0.000" fill="#c79b5c"/><rect x="-1.150" y="-6.800" width="1.500" height="0.200" rx="0.000" fill="#c79b5c"/><rect x="-1.550" y="-6.800" width="1.500" height="0.200" rx="0.000" fill="#c79b5c"/><rect x="-1.950" y="-6.800" width="1.500" height="0.200" rx="0.000" fill="#c79b5c"/><rect x="-2.350" y="-6.800" width="1.500" height="0.200" rx="0.000" fill="#c79b5c"/><rect x="-2.750" y="-6.800" width="1.500" height="0.200" rx="0.000" fill="#c79b5c"/><rect x="-3.150" y="-6.800" width="1.500" height="0.200" rx="0.000" fill="#c79b5c"/><rect x="-3.550" y="-6.800" width="1.500" height="0.200" rx="0.000" fill="#c79b5c"/><rect x="-3.950" y="-6.800" width="1.500" height="0.200" rx="0.000" fill="#c79b5c"/><rect x="-4.350" y="-6.800" width="1.500" height="0.200" rx="0.000" fill="#c79b5c"/><rect x="-4.750" y="-6.800" width="1.500" height="0.200" rx="0.000" fill="#c79b5c"/><rect x="-5.150" y="-6.800" width="1.500" height="0.200" rx="0.000" fill="#c79b5c"/><rect x="-5.550" y="-6.800" width="1.500" height="0.200" rx="0.000" fill="#c79b5c"/></svg>