<svg xmlns="http://www.w3.org/2000/svg" viewBox="-34.75 -9.95 69.50 18.99" preserveAspectRatio="xMidYMid meet" style="width:100%;height:100%"><rect x="-34.75" y="-9.95" width="69.50" height="18.99" fill="#12151c"/><line x1="-33.500" y1="-0.953" x2="-33.500" y2="-6.290" stroke="#e6e9ef" stroke-width="0.200" stroke-linecap="round" opacity="1"/><line x1="-33.500" y1="6.290" x2="-33.500" y2="0.953" stroke="#e6e9ef" stroke-width="0.200" stroke-linecap="round" opacity="1"/><line x1="-32.000" y1="-7.790" x2="32.000" y2="-7.790" stroke="#e6e9ef" stroke-width="0.200" stroke-linecap="round" opacity="1"/><line x1="-32.000" y1="7.790" x2="32.000" y2="7.790" stroke="#e6e9ef" stroke-width="0.200" stroke-linecap="round" opacity="1"/><line x1="-26.858" y1="-2.397" x2="-25.823" y2="3.473" stroke="#e6e9ef" stroke-width="0.200" stroke-linecap="round" opacity="1"/><line x1="-23.805" y1="-6.035" x2="23.805" y2="-6.035" stroke="#e6e9ef" stroke-width="0.200" stroke-linecap="round" opacity="1"/><line x1="-22.770" y1="6.035" x2="22.770" y2="6.035" stroke="#e6e9ef" stroke-width="0.200" stroke-linecap="round" opacity="1"/><line x1="25.823" y1="3.473" x2="26.858" y2="-2.397" stroke="#e6e9ef" stroke-width="0.200" stroke-linecap="round" opacity="1"/><line x1="33.500" y1="-0.953" x2="33.500" y2="-6.290" stroke="#e6e9ef" stroke-width="0.200" stroke-linecap="round" opacity="1"/><line x1="33.500" y1="6.290" x2="33.500" y2="0.953" stroke="#e6e9ef" stroke-width="0.200" stroke-linecap="round" opacity="1"/><line x1="-31.550" y1="0.000" x2="-30.550" y2="0.000" stroke="#4a5160" stroke-width="0.080" stroke-linecap="round" opacity="0.7"/><line x1="-30.550" y1="0.000" x2="-30.550" y2="-1.000" stroke="#4a5160" stroke-width="0.080" stroke-linecap="round" opacity="0.7"/><line x1="-30.550" y1="0.000" x2="-29.550" y2="0.000" stroke="#4a5160" stroke-width="0.080" stroke-linecap="round" opacity="0.7"/><line x1="-30.550" y1="1.000" x2="-30.550" y2="0.000" stroke="#4a5160" stroke-width="0.080" stroke-linecap="round" opacity="0.7"/><line x1="-23.080" y1="-2.840" x2="-22.080" y2="-2.840" stroke="#4a5160" stroke-width="0.080" stroke-linecap="round" opacity="0.7"/><line x1="-23.080" y1="2.840" x2="-22.080" y2="2.840" stroke="#4a5160" stroke-width="0.080" stroke-linecap="round" opacity="0.7"/><line x1="-22.080" y1="-2.840" x2="-22.080" y2="-3.840" stroke="#4a5160" stroke-width="0.080" stroke-linecap="round" opacity="0.7"/><line x1="-22.080" y1="-2.840" x2="-21.080" y2="-2.840" stroke="#4a5160" stroke-width="0.080" stroke-linecap="round" opacity="0.7"/><line x1="-22.080" y1="-1.840" x2="-22.080" y2="-2.840" stroke="#4a5160" stroke-width="0.080" stroke-linecap="round" opacity="0.7"/><line x1="-22.080" y1="2.840" x2="-22.080" y2="1.840" stroke="#4a5160" stroke-width="0.080" stroke-linecap="round" opacity="0.7"/><line x1="-22.080" y1="2.840" x2="-21.080" y2="2.840" stroke="#4a5160" stroke-width="0.080" stroke-linecap="round" opacity="0.7"/><line x1="-22.080" y1="3.840" x2="-22.080" y2="2.840" stroke="#4a5160" stroke-width="0.080" stroke-linecap="round" opacity="0.7"/><line x1="-21.700" y1="0.000" x2="-20.700" y2="0.000" stroke="#4a5160" stroke-width="0.080" stroke-linecap="round" opacity="0.7"/><line x1="-20.700" y1="0.000" x2="-20.700" y2="-1.000" stroke="#4a5160" stroke-width="0.080" stroke-linecap="round" opacity="0.7"/><line x1="-20.700" y1="0.000" x2="-19.700" y2="0.000" stroke="#4a5160" stroke-width="0.080" stroke-linecap="round" opacity="0.7"/><line x1="-20.700" y1="1.000" x2="-20.700" y2="0.000" stroke="#4a5160" stroke-width="0.080" stroke-linecap="round" opacity="0.7"/><line x1="-20.320" y1="-2.840" x2="-19.320" y2="-2.840" stroke="#4a5160" stroke-width="0.080" stroke-linecap="round" opacity="0.7"/><line x1="-20.320" y1="2.840" x2="-19.320" y2="2.840" stroke="#4a5160" stroke-width="0.080" stroke-linecap="round" opacity="0.7"/><line x1="-19.320" y1="-2.840" x2="-19.320" y2="-3.840" stroke="#4a5160" stroke-width="0.080" stroke-linecap="round" opacity="0.7"/><line x1="-19.320" y1="-2.840" x2="-18.320" y2="-2.840" stroke="#4a5160" stroke-width="0.080" stroke-linecap="round" opacity="0.7"/><line x1="-19.320" y1="-1.840" x2="-19.320" y2="-2.840" stroke="#4a5160" stroke-width="0.080" stroke-linecap="round" opacity="0.7"/><line x1="-19.320" y1="2.840" x2="-19.320" y2="1.840" stroke="#4a5160" stroke-width="0.080" stroke-linecap="round" opacity="0.7"/><line x1="-19.320" y1="2.840" x2="-18.320" y2="2.840" stroke="#4a5160" stroke-width="0.080" stroke-linecap="round" opacity="0.7"/><line x1="-19.320" y1="3.840" x2="-19.320" y2="2.840" stroke="#4a5160" stroke-width="0.080" stroke-linecap="round" opacity="0.7"/><line x1="-18.940" y1="0.000" x2="-17.940" y2="0.000" stroke="#4a5160" stroke-width="0.080" stroke-linecap="round" opacity="0.7"/><line x1="-17.940" y1="0.000" x2="-17.940" y2="-1.000" stroke="#4a5160" stroke-width="0.080" stroke-linecap="round" opacity="0.7"/><line x1="-17.940" y1="0.000" x2="-16.940" y2="0.000" stroke="#4a5160" stroke-width="0.080" stroke-linecap="round" opacity="0.7"/><line x1="-17.940" y1="1.000" x2="-17.940" y2="0.000" stroke="#4a5160" stroke-width="0.080" stroke-linecap="round" opacity="0.7"/><line x1="-17.560" y1="-2.840" x2="-16.560" y2="-2.840" stroke="#4a5160" stroke-width="0.080" stroke-linecap="round" opacity="0.7"/><line x1="-17.560" y1="2.840" x2="-16.560" y2="2.840" stroke="#4a5160" stroke-width="0.080" stroke-linecap="round" opacity="0.7"/><line x1="-16.560" y1="-2.840" x2="-16.560" y2="-3.840" stroke="#4a5160" stroke-width="0.080" stroke-linecap="round" opacity="0.7"/><line x1="-16.560" y1="-2.840" x2="-15.560" y2="-2.840" stroke="#4a5160" stroke-width="0.080" stroke-linecap="round" opacity="0.7"/><line x1="-16.560" y1="-1.840" x2="-16.560" y2="-2.840" stroke="#4a5160" stroke-width="0.080" stroke-linecap="round" opacity="0.7"/><line x1="-16.560" y1="2.840" x2="-16.560" y2="1.840" stroke="#4a5160" stroke-width="0.080" stroke-linecap="round" opacity="0.7"/><line x1="-16.560" y1="2.840" x2="-15.560" y2="2.840" stroke="#4a5160" stroke-width="0.080" stroke-linecap="round" opacity="0.7"/><line x1="-16.560" y1="3.840" x2="-16.560" y2="2.840" stroke="#4a5160" stroke-width="0.080" stroke-linecap="round" opacity="0.7"/><line x1="-16.180" y1="0.000" x2="-15.180" y2="0.000" stroke="#4a5160" stroke-width="0.080" stroke-linecap="round" opacity="0.7"/><line x1="-15.180" y1="0.000" x2="-15.180" y2="-1.000" stroke="#4a5160" stroke-width="0.080" stroke-linecap="round" opacity="0.7"/><line x1="-15.180" y1="0.000" x2="-14.180" y2="0.000" stroke="#4a5160" stroke-width="0.080" stroke-linecap="round" opacity="0.7"/><line x1="-15.180" y1="1.000" x2="-15.180" y2="0.000" stroke="#4a5160" stroke-width="0.080" stroke-linecap="round" opacity="0.7"/><line x1="-14.800" y1="-2.840" x2="-13.800" y2="-2.840" stroke="#4a5160" stroke-width="0.080" stroke-linecap="round" opacity="0.7"/><line x1="-14.800" y1="2.840" x2="-13.800" y2="2.840" stroke="#4a5160" stroke-width="0.080" stroke-linecap="round" opacity="0.7"/><line x1="-13.800" y1="-2.840" x2="-13.800" y2="-3.840" stroke="#4a5160" stroke-width="0.080" stroke-linecap="round" opacity="0.7"/><line x1="-13.800" y1="-2.840" x2="-12.800" y2="-2.840" stroke="#4a5160" stroke-width="0.080" stroke-linecap="round" opacity="0.7"/><line x1="-13.800" y1="-1.840" x2="-13.800" y2="-2.840" stroke="#4a5160" stroke-width="0.080" stroke-linecap="round" opacity="0.7"/><line x1="-13.800" y1="2.840" x2="-13.800" y2="1.840" stroke="#4a5160" stroke-width="0.080" stroke-linecap="round" opacity="0.7"/><line x1="-13.800" y1="2.840" x2="-12.800" y2="2.840" stroke="#4a5160" stroke-width="0.080" stroke-linecap="round" opacity="0.7"/><line x1="-13.800" y1="3.840" x2="-13.800" y2="2.840" stroke="#4a5160" stroke-width="0.080" stroke-linecap="round" opacity="0.7"/><line x1="-13.420" y1="0.000" x2="-12.420" y2="0.000" stroke="#4a5160" stroke-width="0.080" stroke-linecap="round" opacity="0.7"/><line x1="-12.420" y1="0.000" x2="-12.420" y2="-1.000" stroke="#4a5160" stroke-width="0.080" stroke-linecap="round" opacity="0.7"/><line x1="-12.420" y1="0.000" x2="-11.420" y2="0.000" stroke="#4a5160" stroke-width="0.080" stroke-linecap="round" opacity="0.7"/><line x1="-12.420" y1="1.000" x2="-12.420" y2="0.000" stroke="#4a5160" stroke-width="0.080" stroke-linecap="round" opacity="0.7"/><line x1="-12.040" y1="-2.840" x2="-11.040" y2="-2.840" stroke="#4a5160" stroke-width="0.080" stroke-linecap="round" opacity="0.7"/><line x1="-12.040" y1="2.840" x2="-11.040" y2="2.840" stroke="#4a5160" stroke-width="0.080" stroke-linecap="round" opacity="0.7"/><line x1="-11.040" y1="-2.840" x2="-11.040" y2="-3.840" stroke="#4a5160" stroke-width="0.080" stroke-linecap="round" opacity="0.7"/><line x1="-11.040" y1="-2.840" x2="-10.040" y2="-2.840" stroke="#4a5160" stroke-width="0.080" stroke-linecap="round" opacity="0.7"/><line x1="-11.040" y1="-1.840" x2="-11.040" y2="-2.840" stroke="#4a5160" stroke-width="0.080" stroke-linecap="round" opacity="0.7"/><line x1="-11.040" y1="2.840" x2="-11.040" y2="1.840" stroke="#4a5160" stroke-width="0.080" stroke-linecap="round" opacity="0.7"/><line x1="-11.040" y1="2.840" x2="-10.040" y2="2.840" stroke="#4a5160" stroke-width="0.080" stroke-linecap="round" opacity="0.7"/><line x1="-11.040" y1="3.840" x2="-11.040" y2="2.840" stroke="#4a5160" stroke-width="0.080" stroke-linecap="round" opacity="0.7"/><line x1="-10.660" y1="0.000" x2="-9.660" y2="0.000" stroke="#4a5160" stroke-width="0.080" stroke-linecap="round" opacity="0.7"/><line x1="-9.660" y1="0.000" x2="-9.660" y2="-1.000" stroke="#4a5160" stroke-width="0.080" stroke-linecap="round" opacity="0.7"/><line x1="-9.660" y1="0.000" x2="-8.660" y2="0.000" stroke="#4a5160" stroke-width="0.080" stroke-linecap="round" opacity="0.7"/><line x1="-9.660" y1="1.000" x2="-9.660" y2="0.000" stroke="#4a5160" stroke-width="0.080" stroke-linecap="round" opacity="0.7"/><line x1="-9.280" y1="-2.840" x2="-8.280" y2="-2.840" stroke="#4a5160" stroke-width="0.080" stroke-linecap="round" opacity="0.7"/><line x1="-9.280" y1="2.840" x2="-8.280" y2="2.840" stroke="#4a5160" stroke-width="0.080" stroke-linecap="round" opacity="0.7"/><line x1="-8.280" y1="-2.840" x2="-8.280" y2="-3.840" stroke="#4a5160" stroke-width="0.080" stroke-linecap="round" opacity="0.7"/><line x1="-8.280" y1="-2.840" x2="-7.280" y2="-2.840" stroke="#4a5160" stroke-width="0.080" stroke-linecap="round" opacity="0.7"/><line x1="-8.280" y1="-1.840" x2="-8.280" y2="-2.840" stroke="#4a5160" stroke-width="0.080" stroke-linecap="round" opacity="0.7"/><line x1="-8.280" y1="2.840" x2="-8.280" y2="1.840" stroke="#4a5160" stroke-width="0.080" stroke-linecap="round" opacity="0.7"/><line x1="-8.280" y1="2.840" x2="-7.280" y2="2.840" stroke="#4a5160" stroke-width="0.080" stroke-linecap="round" opacity="0.7"/><line x1="-8.280" y1="3.840" x2="-8.280" y2="2.840" stroke="#4a5160" stroke-width="0.080" stroke-linecap="round" opacity="0.7"/><line x1="-7.900" y1="0.000" x2="-6.900" y2="0.000" stroke="#4a5160" stroke-width="0.080" stroke-linecap="round" opacity="0.7"/><line x1="-6.900" y1="0.000" x2="-6.900" y2="-1.000" stroke="#4a5160" stroke-width="0.080" stroke-linecap="round" opacity="0.7"/><line x1="-6.900" y1="0.000" x2="-5.900" y2="0.000" stroke="#4a5160" stroke-width="0.080" stroke-linecap="round" opacity="0.7"/><line x1="-6.900" y1="1.000" x2="-6.900" y2="0.000" stroke="#4a5160" stroke-width="0.080" stroke-linecap="round" opacity="0.7"/><line x1="-6.520" y1="-2.840" x2="-5.520" y2="-2.840" stroke="#4a5160" stroke-width="0.080" stroke-linecap="round" opacity="0.7"/><line x1="-6.520" y1="2.840" x2="-5.520" y2="2.840" stroke="#4a5160" stroke-width="0.080" stroke-linecap="round" opacity="0.7"/><line x1="-5.520" y1="-2.840" x2="-5.520" y2="-3.840" stroke="#4a5160" stroke-width="0.080" stroke-linecap="round" opacity="0.7"/><line x1="-5.520" y1="-2.840" x2="-4.520" y2="-2.840" stroke="#4a5160" stroke-width="0.080" stroke-linecap="round" opacity="0.7"/><line x1="-5.520" y1="-1.840" x2="-5.520" y2="-2.840" stroke="#4a5160" stroke-width="0.080" stroke-linecap="round" opacity="0.7"/><line x1="-5.520" y1="2.840" x2="-5.520" y2="1.840" stroke="#4a5160" stroke-width="0.080" stroke-linecap="round" opacity="0.7"/><line x1="-5.520" y1="2.840" x2="-4.520" y2="2.840" stroke="#4a5160" stroke-width="0.080" stroke-linecap="round" opacity="0.7"/><line x1="-5.520" y1="3.840" x2="-5.520" y2="2.840" stroke="#4a5160" stroke-width="0.080" stroke-linecap="round" opacity="0.7"/><line x1="-5.140" y1="0.000" x2="-4.140" y2="0.000" stroke="#4a5160" stroke-width="0.080" stroke-linecap="round" opacity="0.7"/><line x1="-4.140" y1="0.000" x2="-4.140" y2="-1.000" stroke="#4a5160" stroke-width="0.080" stroke-linecap="round" opacity="0.7"/><line x1="-4.140" y1="0.000" x2="-3.140" y2="0.000" stroke="#4a5160" stroke-width="0.080" stroke-linecap="round" opacity="0.7"/><line x1="-4.140" y1="1.000" x2="-4.140" y2="0.000" stroke="#4a5160" stroke-width="0.080" stroke-linecap="round" opacity="0.7"/><line x1="-3.760" y1="-2.840" x2="-2.760" y2="-2.840" stroke="#4a5160" stroke-width="0.080" stroke-linecap="round" opacity="0.7"/><line x1="-3.760" y1="2.840" x2="-2.760" y2="2.840" stroke="#4a5160" stroke-width="0.080" stroke-linecap="round" opacity="0.7"/><line x1="-2.760" y1="-2.840" x2="-2.760" y2="-3.840" stroke="#4a5160" stroke-width="0.080" stroke-linecap="round" opacity="0.7"/><line x1="-2.760" y1="-2.840" x2="-1.760" y2="-2.840" stroke="#4a5160" stroke-width="0.080" stroke-linecap="round" opacity="0.7"/><line x1="-2.760" y1="-1.840" x2="-2.760" y2="-2.840" stroke="#4a5160" stroke-width="0.080" stroke-linecap="round" opacity="0.7"/><line x1="-2.760" y1="2.840" x2="-2.760" y2="1.840" stroke="#4a5160" stroke-width="0.080" stroke-linecap="round" opacity="0.7"/><line x1="-2.760" y1="2.840" x2="-1.760" y2="2.840" stroke="#4a5160" stroke-width="0.080" stroke-linecap="round" opacity="0.7"/><line x1="-2.760" y1="3.840" x2="-2.760" y2="2.840" stroke="#4a5160" stroke-width="0.080" stroke-linecap="round" opacity="0.7"/><line x1="-2.380" y1="0.000" x2="-1.380" y2="0.000" stroke="#4a5160" stroke-width="0.080" stroke-linecap="round" opacity="0.7"/><line x1="-1.380" y1="0.000" x2="-1.380" y2="-1.000" stroke="#4a5160" stroke-width="0.080" stroke-linecap="round" opacity="0.7"/><line x1="-1.380" y1="0.000" x2="-0.380" y2="0.000" stroke="#4a5160" stroke-width="0.080" stroke-linecap="round" opacity="0.7"/><line x1="-1.380" y1="1.000" x2="-1.380" y2="0.000" stroke="#4a5160" stroke-width="0.080" stroke-linecap="round" opacity="0.7"/><line x1="-1.000" y1="-2.840" x2="0.000" y2="-2.840" stroke="#4a5160" stroke-width="0.080" stroke-linecap="round" opacity="0.7"/><line x1="-1.000" y1="2.840" x2="0.000" y2="2.840" stroke="#4a5160" stroke-width="0.080" stroke-linecap="round" opacity="0.7"/><line x1="-0.707" y1="-0.707" x2="0.000" y2="0.000" stroke="#4a5160" stroke-width="0.080" stroke-linecap="round" opacity="0.7"/><line x1="-0.707" y1="0.707" x2="0.000" y2="0.000" stroke="#4a5160" stroke-width="0.080" stroke-linecap="round" opacity="0.7"/><line x1="0.000" y1="-2.840" x2="0.000" y2="-3.840" stroke="#4a5160" stroke-width="0.080" stroke-linecap="round" opacity="0.7"/><line x1="0.000" y1="-2.840" x2="1.000" y2="-2.840" stroke="#4a5160" stroke-width="0.080" stroke-linecap="round" opacity="0.7"/><line x1="0.000" y1="-1.840" x2="0.000" y2="-2.840" stroke="#4a5160" stroke-width="0.080" stroke-linecap="round" opacity="0.7"/><line x1="0.000" y1="0.000" x2="0.707" y2="-0.707" stroke="#4a5160" stroke-width="0.080" stroke-linecap="round" opacity="0.7"/><line x1="0.000" y1="0.000" x2="0.707" y2="0.707" stroke="#4a5160" stroke-width="0.080" stroke-linecap="round" opacity="0.7"/><line x1="0.000" y1="2.840" x2="0.000" y2="1.840" stroke="#4a5160" stroke-width="0.080" stroke-linecap="round" opacity="0.7"/><line x1="0.000" y1="2.840" x2="1.000" y2="2.840" stroke="#4a5160" stroke-width="0.080" stroke-linecap="round" opacity="0.7"/><line x1="0.000" y1="3.840" x2="0.000" y2="2.840" stroke="#4a5160" stroke-width="0.080" stroke-linecap="round" opacity="0.7"/><line x1="0.380" y1="0.000" x2="1.380" y2="0.000" stroke="#4a5160" stroke-width="0.080" stroke-linecap="round" opacity="0.7"/><line x1="1.380" y1="0.000" x2="1.380" y2="-1.000" stroke="#4a5160" stroke-width="0.080" stroke-linecap="round" opacity="0.7"/><line x1="1.380" y1="0.000" x2="2.380" y2="0.000" stroke="#4a5160" stroke-width="0.080" stroke-linecap="round" opacity="0.7"/><line x1="1.380" y1="1.000" x2="1.380" y2="0.000" stroke="#4a5160" stroke-width="0.080" stroke-linecap="round" opacity="0.7"/><line x1="1.760" y1="-2.840" x2="2.760" y2="-2.840" stroke="#4a5160" stroke-width="0.080" stroke-linecap="round" opacity="0.7"/><line x1="1.760" y1="2.840" x2="2.760" y2="2.840" stroke="#4a5160" stroke-width="0.080" stroke-linecap="round" opacity="0.7"/><line x1="2.760" y1="-2.840" x2="2.760" y2="-3.840" stroke="#4a5160" stroke-width="0.080" stroke-linecap="round" opacity="0.7"/><line x1="2.760" y1="-2.840" x2="3.760" y2="-2.840" stroke="#4a5160" stroke-width="0.080" stroke-linecap="round" opacity="0.7"/><line x1="2.760" y1="-1.840" x2="2.760" y2="-2.840" stroke="#4a5160" stroke-width="0.080" stroke-linecap="round" opacity="0.7"/><line x1="2.760" y1="2.840" x2="2.760" y2="1.840" stroke="#4a5160" stroke-width="0.080" stroke-linecap="round" opacity="0.7"/><line x1="2.760" y1="2.840" x2="3.760" y2="2.840" stroke="#4a5160" stroke-width="0.080" stroke-linecap="round" opacity="0.7"/><line x1="2.760" y1="3.840" x2="2.760" y2="2.840" stroke="#4a5160" stroke-width="0.080" stroke-linecap="round" opacity="0.7"/><line x1="3.140" y1="0.000" x2="4.140" y2="0.000" stroke="#4a5160" stroke-width="0.080" stroke-linecap="round" opacity="0.7"/><line x1="4.140" y1="0.000" x2="4.140" y2="-1.000" stroke="#4a5160" stroke-width="0.080" stroke-linecap="round" opacity="0.7"/><line x1="4.140" y1="0.000" x2="5.140" y2="0.000" stroke="#4a5160" stroke-width="0.080" stroke-linecap="round" opacity="0.7"/><line x1="4.140" y1="1.000" x2="4.140" y2="0.000" stroke="#4a5160" stroke-width="0.080" stroke-linecap="round" opacity="0.7"/><line x1="4.520" y1="-2.840" x2="5.520" y2="-2.840" stroke="#4a5160" stroke-width="0.080" stroke-linecap="round" opacity="0.7"/><line x1="4.520" y1="2.840" x2="5.520" y2="2.840" stroke="#4a5160" stroke-width="0.080" stroke-linecap="round" opacity="0.7"/><line x1="5.520" y1="-2.840" x2="5.520" y2="-3.840" stroke="#4a5160" stroke-width="0.080" stroke-linecap="round" opacity="0.7"/><line x1="5.520" y1="-2.840" x2="6.520" y2="-2.840" stroke="#4a5160" stroke-width="0.080" stroke-linecap="round" opacity="0.7"/><line x1="5.520" y1="-1.840" x2="5.520" y2="-2.840" stroke="#4a5160" stroke-width="0.080" stroke-linecap="round" opacity="0.7"/><line x1="5.520" y1="2.840" x2="5.520" y2="1.840" stroke="#4a5160" stroke-width="0.080" stroke-linecap="round" opacity="0.7"/><line x1="5.520" y1="2.840" x2="6.520" y2="2.840" stroke="#4a5160" stroke-width="0.080" stroke-linecap="round" opacity="0.7"/><line x1="5.520" y1="3.840" x2="5.520" y2="2.840" stroke="#4a5160" stroke-width="0.080" stroke-linecap="round" opacity="0.7"/><line x1="5.900" y1="0.000" x2="6.900" y2="0.000" stroke="#4a5160" stroke-width="0.080" stroke-linecap="round" opacity="0.7"/><line x1="6.900" y1="0.000" x2="6.900" y2="-1.000" stroke="#4a5160" stroke-width="0.080" stroke-linecap="round" opacity="0.7"/><line x1="6.900" y1="0.000" x2="7.900" y2="0.000" stroke="#4a5160" stroke-width="0.080" stroke-linecap="round" opacity="0.7"/><line x1="6.900" y1="1.000" x2="6.900" y2="0.000" stroke="#4a5160" stroke-width="0.080" stroke-linecap="round" opacity="0.7"/><line x1="7.280" y1="-2.840" x2="8.280" y2="-2.840" stroke="#4a5160" stroke-width="0.080" stroke-linecap="round" opacity="0.7"/><line x1="7.280" y1="2.840" x2="8.280" y2="2.840" stroke="#4a5160" stroke-width="0.080" stroke-linecap="round" opacity="0.7"/><line x1="8.280" y1="-2.840" x2="8.280" y2="-3.840" stroke="#4a5160" stroke-width="0.080" stroke-linecap="round" opacity="0.7"/><line x1="8.280" y1="-2.840" x2="9.280" y2="-2.840" stroke="#4a5160" stroke-width="0.080" stroke-linecap="round" opacity="0.7"/><line x1="8.280" y1="-1.840" x2="8.280" y2="-2.840" stroke="#4a5160" stroke-width="0.080" stroke-linecap="round" opacity="0.7"/><line x1="8.280" y1="2.840" x2="8.280" y2="1.840" stroke="#4a5160" stroke-width="0.080" stroke-linecap="round" opacity="0.7"/><line x1="8.280" y1="2.840" x2="9.280" y2="2.840" stroke="#4a5160" stroke-width="0.080" stroke-linecap="round" opacity="0.7"/><line x1="8.280" y1="3.840" x2="8.280" y2="2.840" stroke="#4a5160" stroke-width="0.080" stroke-linecap="round" opacity="0.7"/><line x1="8.660" y1="0.000" x2="9.660" y2="0.000" stroke="#4a5160" stroke-width="0.080" stroke-linecap="round" opacity="0.7"/><line x1="9.660" y1="0.000" x2="9.660" y2="-1.000" stroke="#4a5160" stroke-width="0.080" stroke-linecap="round" opacity="0.7"/><line x1="9.660" y1="0.000" x2="10.660" y2="0.000" stroke="#4a5160" stroke-width="0.080" stroke-linecap="round" opacity="0.7"/><line x1="9.660" y1="1.000" x2="9.660" y2="0.000" stroke="#4a5160" stroke-width="0.080" stroke-linecap="round" opacity="0.7"/><line x1="10.040" y1="-2.840" x2="11.040" y2="-2.840" stroke="#4a5160" stroke-width="0.080" stroke-linecap="round" opacity="0.7"/><line x1="10.040" y1="2.840" x2="11.040" y2="2.840" stroke="#4a5160" stroke-width="0.080" stroke-linecap="round" opacity="0.7"/><line x1="11.040" y1="-2.840" x2="11.040" y2="-3.840" stroke="#4a5160" stroke-width="0.080" stroke-linecap="round" opacity="0.7"/><line x1="11.040" y1="-2.840" x2="12.040" y2="-2.840" stroke="#4a5160" stroke-width="0.080" stroke-linecap="round" opacity="0.7"/><line x1="11.040" y1="-1.840" x2="11.040" y2="-2.840" stroke="#4a5160" stroke-width="0.080" stroke-linecap="round" opacity="0.7"/><line x1="11.040" y1="2.840" x2="11.040" y2="1.840" stroke="#4a5160" stroke-width="0.080" stroke-linecap="round" opacity="0.7"/><line x1="11.040" y1="2.840" x2="12.040" y2="2.840" stroke="#4a5160" stroke-width="0.080" stroke-linecap="round" opacity="0.7"/><line x1="11.040" y1="3.840" x2="11.040" y2="2.840" stroke="#4a5160" stroke-width="0.080" stroke-linecap="round" opacity="0.7"/><line x1="11.420" y1="0.000" x2="12.420" y2="0.000" stroke="#4a5160" stroke-width="0.080" stroke-linecap="round" opacity="0.7"/><line x1="12.420" y1="0.000" x2="12.420" y2="-1.000" stroke="#4a5160" stroke-width="0.080" stroke-linecap="round" opacity="0.7"/><line x1="12.420" y1="0.000" x2="13.420" y2="0.000" stroke="#4a5160" stroke-width="0.080" stroke-linecap="round" opacity="0.7"/><line x1="12.420" y1="1.000" x2="12.420" y2="0.000" stroke="#4a5160" stroke-width="0.080" stroke-linecap="round" opacity="0.7"/><line x1="12.800" y1="-2.840" x2="13.800" y2="-2.840" stroke="#4a5160" stroke-width="0.080" stroke-linecap="round" opacity="0.7"/><line x1="12.800" y1="2.840" x2="13.800" y2="2.840" stroke="#4a5160" stroke-width="0.080" stroke-linecap="round" opacity="0.7"/><line x1="13.800" y1="-2.840" x2="13.800" y2="-3.840" stroke="#4a5160" stroke-width="0.080" stroke-linecap="round" opacity="0.7"/><line x1="13.800" y1="-2.840" x2="14.800" y2="-2.840" stroke="#4a5160" stroke-width="0.080" stroke-linecap="round" opacity="0.7"/><line x1="13.800" y1="-1.840" x2="13.800" y2="-2.840" stroke="#4a5160" stroke-width="0.080" stroke-linecap="round" opacity="0.7"/><line x1="13.800" y1="2.840" x2="13.800" y2="1.840" stroke="#4a5160" stroke-width="0.080" stroke-linecap="round" opacity="0.7"/><line x1="13.800" y1="2.840" x2="14.800" y2="2.840" stroke="#4a5160" stroke-width="0.080" stroke-linecap="round" opacity="0.7"/><line x1="13.800" y1="3.840" x2="13.800" y2="2.840" stroke="#4a5160" stroke-width="0.080" stroke-linecap="round" opacity="0.7"/><line x1="14.180" y1="0.000" x2="15.180" y2="0.000" stroke="#4a5160" stroke-width="0.080" stroke-linecap="round" opacity="0.7"/><line x1="15.180" y1="0.000" x2="15.180" y2="-1.000" stroke="#4a5160" stroke-width="0.080" stroke-linecap="round" opacity="0.7"/><line x1="15.180" y1="0.000" x2="16.180" y2="0.000" stroke="#4a5160" stroke-width="0.080" stroke-linecap="round" opacity="0.7"/><line x1="15.180" y1="1.000" x2="15.180" y2="0.000" stroke="#4a5160" stroke-width="0.080" stroke-linecap="round" opacity="0.7"/><line x1="15.560" y1="-2.840" x2="16.560" y2="-2.840" stroke="#4a5160" stroke-width="0.080" stroke-linecap="round" opacity="0.7"/><line x1="15.560" y1="2.840" x2="16.560" y2="2.840" stroke="#4a5160" stroke-width="0.080" stroke-linecap="round" opacity="0.7"/><line x1="16.560" y1="-2.840" x2="16.560" y2="-3.840" stroke="#4a5160" stroke-width="0.080" stroke-linecap="round" opacity="0.7"/><line x1="16.560" y1="-2.840" x2="17.560" y2="-2.840" stroke="#4a5160" stroke-width="0.080" stroke-linecap="round" opacity="0.7"/><line x1="16.560" y1="-1.840" x2="16.560" y2="-2.840" stroke="#4a5160" stroke-width="0.080" stroke-linecap="round" opacity="0.7"/><line x1="16.560" y1="2.840" x2="16.560" y2="1.840" stroke="#4a5160" stroke-width="0.080" stroke-linecap="round" opacity="0.7"/><line x1="16.560" y1="2.840" x2="17.560" y2="2.840" stroke="#4a5160" stroke-width="0.080" stroke-linecap="round" opacity="0.7"/><line x1="16.560" y1="3.840" x2="16.560" y2="2.840" stroke="#4a5160" stroke-width="0.080" stroke-linecap="round" opacity="0.7"/><line x1="16.940" y1="0.000" x2="17.940" y2="0.000" stroke="#4a5160" stroke-width="0.080" stroke-linecap="round" opacity="0.7"/><line x1="17.940" y1="0.000" x2="17.940" y2="-1.000" stroke="#4a5160" stroke-width="0.080" stroke-linecap="round" opacity="0.7"/><line x1="17.940" y1="0.000" x2="18.940" y2="0.000" stroke="#4a5160" stroke-width="0.080" stroke-linecap="round" opacity="0.7"/><line x1="17.940" y1="1.000" x2="17.940" y2="0.000" stroke="#4a5160" stroke-width="0.080" stroke-linecap="round" opacity="0.7"/><line x1="18.320" y1="-2.840" x2="19.320" y2="-2.840" stroke="#4a5160" stroke-width="0.080" stroke-linecap="round" opacity="0.7"/><line x1="18.320" y1="2.840" x2="19.320" y2="2.840" stroke="#4a5160" stroke-width="0.080" stroke-linecap="round" opacity="0.7"/><line x1="19.320" y1="-2.840" x2="19.320" y2="-3.840" stroke="#4a5160" stroke-width="0.080" stroke-linecap="round" opacity="0.7"/><line x1="19.320" y1="-2.840" x2="20.320" y2="-2.840" stroke="#4a5160" stroke-width="0.080" stroke-linecap="round" opacity="0.7"/><line x1="19.320" y1="-1.840" x2="19.320" y2="-2.840" stroke="#4a5160" stroke-width="0.080" stroke-linecap="round" opacity="0.7"/><line x1="19.320" y1="2.840" x2="19.320" y2="1.840" stroke="#4a5160" stroke-width="0.080" stroke-linecap="round" opacity="0.7"/><line x1="19.320" y1="2.840" x2="20.320" y2="2.840" stroke="#4a5160" stroke-width="0.080" stroke-linecap="round" opacity="0.7"/><line x1="19.320" y1="3.840" x2="19.320" y2="2.840" stroke="#4a5160" stroke-width="0.080" stroke-linecap="round" opacity="0.7"/><line x1="19.700" y1="0.000" x2="20.700" y2="0.000" stroke="#4a5160" stroke-width="0.080" stroke-linecap="round" opacity="0.7"/><line x1="20.700" y1="0.000" x2="20.700" y2="-1.000" stroke="#4a5160" stroke-width="0.080" stroke-linecap="round" opacity="0.7"/><line x1="20.700" y1="0.000" x2="21.700" y2="0.000" stroke="#4a5160" stroke-width="0.080" stroke-linecap="round" opacity="0.7"/><line x1="20.700" y1="1.000" x2="20.700" y2="0.000" stroke="#4a5160" stroke-width="0.080" stroke-linecap="round" opacity="0.7"/><line x1="21.080" y1="-2.840" x2="22.080" y2="-2.840" stroke="#4a5160" stroke-width="0.080" stroke-linecap="round" opacity="0.7"/><line x1="21.080" y1="2.840" x2="22.080" y2="2.840" stroke="#4a5160" stroke-width="0.080" stroke-linecap="round" opacity="0.7"/><line x1="22.080" y1="-2.840" x2="22.080" y2="-3.840" stroke="#4a5160" stroke-width="0.080" stroke-linecap="round" opacity="0.7"/><line x1="22.080" y1="-2.840" x2="23.080" y2="-2.840" stroke="#4a5160" stroke-width="0.080" stroke-linecap="round" opacity="0.7"/><line x1="22.080" y1="-1.840" x2="22.080" y2="-2.840" stroke="#4a5160" stroke-width="0.080" stroke-linecap="round" opacity="0.7"/><line x1="22.080" y1="2.840" x2="22.080" y2="1.840" stroke="#4a5160" stroke-width="0.080" stroke-linecap="round" opacity="0.7"/><line x1="22.080" y1="2.840" x2="23.080" y2="2.840" stroke="#4a5160" stroke-width="0.080" stroke-linecap="round" opacity="0.7"/><line x1="22.080" y1="3.840" x2="22.080" y2="2.840" stroke="#4a5160" stroke-width="0.080" stroke-linecap="round" opacity="0.7"/><line x1="29.550" y1="0.000" x2="30.550" y2="0.000" stroke="#4a5160" stroke-width="0.080" stroke-linecap="round" opacity="0.7"/><line x1="30.550" y1="0.000" x2="30.550" y2="-1.000" stroke="#4a5160" stroke-width="0.080" stroke-linecap="round" opacity="0.7"/><line x1="30.550" y1="0.000" x2="31.550" y2="0.000" stroke="#4a5160" stroke-width="0.080" stroke-linecap="round" opacity="0.7"/><line x1="30.550" y1="1.000" x2="30.550" y2="0.000" stroke="#4a5160" stroke-width="0.080" stroke-linecap="round" opacity="0.7"/><line x1="-33.500" y1="6.290" x2="-33.500" y2="-6.290" stroke="#6b7280" stroke-width="0.100" stroke-linecap="round" opacity="0.8"/><line x1="-32.000" y1="-7.790" x2="32.000" y2="-7.790" stroke="#6b7280" stroke-width="0.100" stroke-linecap="round" opacity="0.8"/><line x1="-32.000" y1="7.790" x2="32.000" y2="7.790" stroke="#6b7280" stroke-width="0.100" stroke-linecap="round" opacity="0.8"/><line x1="-26.858" y1="-2.397" x2="-25.823" y2="3.473" stroke="#6b7280" stroke-width="0.100" stroke-linecap="round" opacity="0.8"/><line x1="-26.366" y1="-2.484" x2="-25.330" y2="3.386" stroke="#6b7280" stroke-width="0.100" stroke-linecap="round" opacity="0.8"/><line x1="-23.805" y1="-6.035" x2="23.805" y2="-6.035" stroke="#6b7280" stroke-width="0.100" stroke-linecap="round" opacity="0.8"/><line x1="-23.805" y1="-5.535" x2="23.805" y2="-5.535" stroke="#6b7280" stroke-width="0.100" stroke-linecap="round" opacity="0.8"/><line x1="-22.770" y1="5.535" x2="22.770" y2="5.535" stroke="#6b7280" stroke-width="0.100" stroke-linecap="round" opacity="0.8"/><line x1="-22.770" y1="6.035" x2="22.770" y2="6.035" stroke="#6b7280" stroke-width="0.100" stroke-linecap="round" opacity="0.8"/><line x1="25.330" y1="3.386" x2="26.366" y2="-2.484" stroke="#6b7280" stroke-width="0.100" stroke-linecap="round" opacity="0.8"/><line x1="25.823" y1="3.473" x2="26.858" y2="-2.397" stroke="#6b7280" stroke-width="0.100" stroke-linecap="round" opacity="0.8"/><line x1="33.500" y1="6.290" x2="33.500" y2="-6.290" stroke="#6b7280" stroke-width="0.100" stroke-linecap="round" opacity="0.8"/><line x1="-33.750" y1="-8.040" x2="33.750" y2="-8.040" stroke="#d24d4d" stroke-width="0.080" stroke-linecap="round" opacity="0.7"/><line x1="33.750" y1="-8.040" x2="33.750" y2="8.040" stroke="#d24d4d" stroke-width="0.080" stroke-linecap="round" opacity="0.7"/><line x1="33.750" y1="8.040" x2="-33.750" y2="8.040" stroke="#d24d4d" stroke-width="0.080" stroke-linecap="round" opacity="0.7"/><line x1="-33.750" y1="8.040" x2="-33.750" y2="-8.040" stroke="#d24d4d" stroke-width="0.080" stroke-linecap="round" opacity="0.7"/><path d="M -33.500 -6.290 A 1.500 1.500 0 0 1 -32.000 -7.790" fill="none" stroke="#e6e9ef" stroke-width="0.12" opacity="1"/><path d="M -32.000 7.790 A 1.500 1.500 0 0 1 -33.500 6.290" fill="none" stroke="#e6e9ef" stroke-width="0.12" opacity="1"/><path d="M -26.858 -2.397 A 3.100 3.100 0 0 1 -23.805 -6.035" fill="none" stroke="#e6e9ef" stroke-width="0.12" opacity="1"/><path d="M -22.770 6.035 A 3.100 3.100 0 0 1 -25.823 3.473" fill="none" stroke="#e6e9ef" stroke-width="0.12" opacity="1"/><path d="M 23.805 -6.035 A 3.100 3.100 0 0 1 26.858 -2.397" fill="none" stroke="#e6e9ef" stroke-width="0.12" opacity="1"/><path d="M 25.823 3.473 A 3.100 3.100 0 0 1 22.770 6.035" fill="none" stroke="#e6e9ef" stroke-width="0.12" opacity="1"/><path d="M 32.000 -7.790 A 1.500 1.500 0 0 1 33.500 -6.290" fill="none" stroke="#e6e9ef" stroke-width="0.12" opacity="1"/><path d="M 33.500 6.290 A 1.500 1.500 0 0 1 32.000 7.790" fill="none" stroke="#e6e9ef" stroke-width="0.12" opacity="1"/><path d="M -33.500 -6.290 A 1.500 1.500 0 0 1 -32.000 -7.790" fill="none" stroke="#6b7280" stroke-width="0.12" opacity="0.8"/><path d="M -32.000 7.790 A 1.500 1.500 0 0 1 -33.500 6.290" fill="none" stroke="#6b7280" stroke-width="0.12" opacity="0.8"/><path d="M -26.858 -2.397 A 3.100 3.100 0 0 1 -23.805 -6.035" fill="none" stroke="#6b7280" stroke-width="0.12" opacity="0.8"/><path d="M -26.366 -2.484 A 2.600 2.600 0 0 1 -23.805 -5.535" fill="none" stroke="#6b7280" stroke-width="0.12" opacity="0.8"/><path d="M -22.770 5.535 A 2.600 2.600 0 0 1 -25.330 3.386" fill="none" stroke="#6b7280" stroke-width="0.12" opacity="0.8"/><path d="M -22.770 6.035 A 3.100 3.100 0 0 1 -25.823 3.473" fill="none" stroke="#6b7280" stroke-width="0.12" opacity="0.8"/><path d="M 23.805 -6.035 A 3.100 3.100 0 0 1 26.858 -2.397" fill="none" stroke="#6b7280" stroke-width="0.12" opacity="0.8"/><path d="M 23.805 -5.535 A 2.600 2.600 0 0 1 26.366 -2.484" fill="none" stroke="#6b7280" stroke-width="0.12" opacity="0.8"/><path d="M 25.330 3.386 A 2.600 2.600 0 0 1 22.770 5.535" fill="none" stroke="#6b7280" stroke-width="0.12" opacity="0.8"/><path d="M 25.823 3.473 A 3.100 3.100 0 0 1 22.770 6.035" fill="none" stroke="#6b7280" stroke-width="0.12" opacity="0.8"/><path d="M 32.000 -7.790 A 1.500 1.500 0 0 1 33.500 -6.290" fill="none" stroke="#6b7280" stroke-width="0.12" opacity="0.8"/><path d="M 33.500 6.290 A 1.500 1.500 0 0 1 32.000 7.790" fill="none" stroke="#6b7280" stroke-width="0.12" opacity="0.8"/><circle cx="-30.550" cy="-5.800" r="0.825" fill="none" stroke="#e6e9ef" stroke-width="0.12" opacity="1"/><circle cx="-22.100" cy="-8.700" r="0.250" fill="#e6e9ef" opacity="1"/><circle cx="30.550" cy="-5.800" r="0.825" fill="none" stroke="#e6e9ef" stroke-width="0.12" opacity="1"/><circle cx="-30.550" cy="-5.800" r="0.825" fill="none" stroke="#6b7280" stroke-width="0.12" opacity="0.8"/><circle cx="-30.550" cy="0.000" r="1.560" fill="none" stroke="#6b7280" stroke-width="0.12" opacity="0.8"/><circle cx="30.550" cy="-5.800" r="0.825" fill="none" stroke="#6b7280" stroke-width="0.12" opacity="0.8"/><circle cx="30.550" cy="0.000" r="1.560" fill="none" stroke="#6b7280" stroke-width="0.12" opacity="0.8"/><rect x="-22.930" y="-3.690" width="1.700" height="1.700" rx="0.850" fill="#c79b5c"/><circle cx="-22.080" cy="-2.840" r="0.500" fill="#12151c"/><rect x="-20.170" y="-3.690" width="1.700" height="1.700" rx="0.850" fill="#c79b5c"/><circle cx="-19.320" cy="-2.840" r="0.500" fill="#12151c"/><rect x="-17.410" y="-3.690" width="1.700" height="1.700" rx="0.850" fill="#c79b5c"/><circle cx="-16.560" cy="-2.840" r="0.500" fill="#12151c"/><rect x="-14.650" y="-3.690" width="1.700" height="1.700" rx="0.850" fill="#c79b5c"/><circle cx="-13.800" cy="-2.840" r="0.500" fill="#12151c"/><rect x="-11.890" y="-3.690" width="1.700" height="1.700" rx="0.850" fill="#c79b5c"/><circle cx="-11.040" cy="-2.840" r="0.500" fill="#12151c"/><rect x="-9.130" y="-3.690" width="1.700" height="1.700" rx="0.850" fill="#c79b5c"/><circle cx="-8.280" cy="-2.840" r="0.500" fill="#12151c"/><rect x="-6.370" y="-3.690" width="1.700" height="1.700" rx="0.850" fill="#c79b5c"/><circle cx="-5.520" cy="-2.840" r="0.500" fill="#12151c"/><rect x="-3.610" y="-3.690" width="1.700" height="1.700" rx="0.850" fill="#c79b5c"/><circle cx="-2.760" cy="-2.840" r="0.500" fill="#12151c"/><rect x="-0.850" y="-3.690" width="1.700" height="1.700" rx="0.850" fill="#c79b5c"/><circle cx="0.000" cy="-2.840" r="0.500" fill="#12151c"/><rect x="1.910" y="-3.690" width="1.700" height="1.700" rx="0.850" fill="#c79b5c"/><circle cx="2.760" cy="-2.840" r="0.500" fill="#12151c"/><rect x="4.670" y="-3.690" width="1.700" height="1.700" rx="0.850" fill="#c79b5c"/><circle cx="5.520" cy="-2.840" r="0.500" fill="#12151c"/><rect x="7.430" y="-3.690" width="1.700" height="1.700" rx="0.850" fill="#c79b5c"/><circle cx="8.280" cy="-2.840" r="0.500" fill="#12151c"/><rect x="10.190" y="-3.690" width="1.700" height="1.700" rx="0.850" fill="#c79b5c"/><circle cx="11.040" cy="-2.840" r="0.500" fill="#12151c"/><rect x="12.950" y="-3.690" width="1.700" height="1.700" rx="0.850" fill="#c79b5c"/><circle cx="13.800" cy="-2.840" r="0.500" fill="#12151c"/><rect x="15.710" y="-3.690" width="1.700" height="1.700" rx="0.850" fill="#c79b5c"/><circle cx="16.560" cy="-2.840" r="0.500" fill="#12151c"/><rect x="18.470" y="-3.690" width="1.700" height="1.700" rx="0.850" fill="#c79b5c"/><circle cx="19.320" cy="-2.840" r="0.500" fill="#12151c"/><rect x="21.230" y="-3.690" width="1.700" height="1.700" rx="0.850" fill="#c79b5c"/><circle cx="22.080" cy="-2.840" r="0.500" fill="#12151c"/><rect x="-21.550" y="-0.850" width="1.700" height="1.700" rx="0.850" fill="#c79b5c"/><circle cx="-20.700" cy="0.000" r="0.500" fill="#12151c"/><rect x="-18.790" y="-0.850" width="1.700" height="1.700" rx="0.850" fill="#c79b5c"/><circle cx="-17.940" cy="0.000" r="0.500" fill="#12151c"/><rect x="-16.030" y="-0.850" width="1.700" height="1.700" rx="0.850" fill="#c79b5c"/><circle cx="-15.180" cy="0.000" r="0.500" fill="#12151c"/><rect x="-13.270" y="-0.850" width="1.700" height="1.700" rx="0.850" fill="#c79b5c"/><circle cx="-12.420" cy="0.000" r="0.500" fill="#12151c"/><rect x="-10.510" y="-0.850" width="1.700" height="1.700" rx="0.850" fill="#c79b5c"/><circle cx="-9.660" cy="0.000" r="0.500" fill="#12151c"/><rect x="-7.750" y="-0.850" width="1.700" height="1.700" rx="0.850" fill="#c79b5c"/><circle cx="-6.900" cy="0.000" r="0.500" fill="#12151c"/><rect x="-4.990" y="-0.850" width="1.700" height="1.700" rx="0.850" fill="#c79b5c"/><circle cx="-4.140" cy="0.000" r="0.500" fill="#12151c"/><rect x="-2.230" y="-0.850" width="1.700" height="1.700" rx="0.850" fill="#c79b5c"/><circle cx="-1.380" cy="0.000" r="0.500" fill="#12151c"/><rect x="0.530" y="-0.850" width="1.700" height="1.700" rx="0.850" fill="#c79b5c"/><circle cx="1.380" cy="0.000" r="0.500" fill="#12151c"/><rect x="3.290" y="-0.850" width="1.700" height="1.700" rx="0.850" fill="#c79b5c"/><circle cx="4.140" cy="0.000" r="0.500" fill="#12151c"/><rect x="6.050" y="-0.850" width="1.700" height="1.700" rx="0.850" fill="#c79b5c"/><circle cx="6.900" cy="0.000" r="0.500" fill="#12151c"/><rect x="8.810" y="-0.850" width="1.700" height="1.700" rx="0.850" fill="#c79b5c"/><circle cx="9.660" cy="0.000" r="0.500" fill="#12151c"/><rect x="11.570" y="-0.850" width="1.700" height="1.700" rx="0.850" fill="#c79b5c"/><circle cx="12.420" cy="0.000" r="0.500" fill="#12151c"/><rect x="14.330" y="-0.850" width="1.700" height="1.700" rx="0.850" fill="#c79b5c"/><circle cx="15.180" cy="0.000" r="0.500" fill="#12151c"/><rect x="17.090" y="-0.850" width="1.700" height="1.700" rx="0.850" fill="#c79b5c"/><circle cx="17.940" cy="0.000" r="0.500" fill="#12151c"/><rect x="19.850" y="-0.850" width="1.700" height="1.700" rx="0.850" fill="#c79b5c"/><circle cx="20.700" cy="0.000" r="0.500" fill="#12151c"/><rect x="-22.930" y="1.990" width="1.700" height="1.700" rx="0.850" fill="#c79b5c"/><circle cx="-22.080" cy="2.840" r="0.500" fill="#12151c"/><rect x="-20.170" y="1.990" width="1.700" height="1.700" rx="0.850" fill="#c79b5c"/><circle cx="-19.320" cy="2.840" r="0.500" fill="#12151c"/><rect x="-17.410" y="1.990" width="1.700" height="1.700" rx="0.850" fill="#c79b5c"/><circle cx="-16.560" cy="2.840" r="0.500" fill="#12151c"/><rect x="-14.650" y="1.990" width="1.700" height="1.700" rx="0.850" fill="#c79b5c"/><circle cx="-13.800" cy="2.840" r="0.500" fill="#12151c"/><rect x="-11.890" y="1.990" width="1.700" height="1.700" rx="0.850" fill="#c79b5c"/><circle cx="-11.040" cy="2.840" r="0.500" fill="#12151c"/><rect x="-9.130" y="1.990" width="1.700" height="1.700" rx="0.850" fill="#c79b5c"/><circle cx="-8.280" cy="2.840" r="0.500" fill="#12151c"/><rect x="-6.370" y="1.990" width="1.700" height="1.700" rx="0.850" fill="#c79b5c"/><circle cx="-5.520" cy="2.840" r="0.500" fill="#12151c"/><rect x="-3.610" y="1.990" width="1.700" height="1.700" rx="0.850" fill="#c79b5c"/><circle cx="-2.760" cy="2.840" r="0.500" fill="#12151c"/><rect x="-0.850" y="1.990" width="1.700" height="1.700" rx="0.850" fill="#c79b5c"/><circle cx="0.000" cy="2.840" r="0.500" fill="#12151c"/><rect x="1.910" y="1.990" width="1.700" height="1.700" rx="0.850" fill="#c79b5c"/><circle cx="2.760" cy="2.840" r="0.500" fill="#12151c"/><rect x="4.670" y="1.990" width="1.700" height="1.700" rx="0.850" fill="#c79b5c"/><circle cx="5.520" cy="2.840" r="0.500" fill="#12151c"/><rect x="7.430" y="1.990" width="1.700" height="1.700" rx="0.850" fill="#c79b5c"/><circle cx="8.280" cy="2.840" r="0.500" fill="#12151c"/><rect x="10.190" y="1.990" width="1.700" height="1.700" rx="0.850" fill="#c79b5c"/><circle cx="11.040" cy="2.840" r="0.500" fill="#12151c"/><rect x="12.950" y="1.990" width="1.700" height="1.700" rx="0.850" fill="#c79b5c"/><circle cx="13.800" cy="2.840" r="0.500" fill="#12151c"/><rect x="15.710" y="1.990" width="1.700" height="1.700" rx="0.850" fill="#c79b5c"/><circle cx="16.560" cy="2.840" r="0.500" fill="#12151c"/><rect x="18.470" y="1.990" width="1.700" height="1.700" rx="0.850" fill="#c79b5c"/><circle cx="19.320" cy="2.840" r="0.500" fill="#12151c"/><rect x="21.230" y="1.990" width="1.700" height="1.700" rx="0.850" fill="#c79b5c"/><circle cx="22.080" cy="2.840" r="0.500" fill="#12151c"/><rect x="-33.300" y="-2.750" width="5.500" height="5.500" rx="2.750" fill="#c79b5c"/><circle cx="-30.550" cy="0.000" r="1.550" fill="#12151c"/><rect x="27.800" y="-2.750" width="5.500" height="5.500" rx="2.750" fill="#c79b5c"/><circle cx="30.550" cy="0.000" r="1.550" fill="#12151c"/></svg>