<svg xmlns="http://www.w3.org/2000/svg" viewBox="-1.50 -4.29 10.62 7.83" preserveAspectRatio="xMidYMid meet" style="width:100%;height:100%"><rect x="-1.50" y="-4.29" width="10.62" height="7.83" fill="#12151c"/><polyline points="0.762,-2.032 1.524,-1.270" fill="none" stroke="#4ea1ff" stroke-width="0.25" stroke-linejoin="round"/><polyline points="1.524,-2.794 2.286,-2.032" fill="none" stroke="#4ea1ff" stroke-width="0.25" stroke-linejoin="round"/><polyline points="1.778,-1.016 1.016,-1.270 1.524,-1.778 1.778,-1.016" fill="#1e222b" stroke="#4ea1ff" stroke-width="0.25" stroke-linejoin="round"/><polyline points="1.778,-0.000 2.286,-0.000" fill="none" stroke="#4ea1ff" stroke-width="0.25" stroke-linejoin="round"/><polyline points="2.286,-0.508 5.334,-0.508" fill="none" stroke="#4ea1ff" stroke-width="0.25" stroke-linejoin="round"/><polyline points="2.286,0.508 2.286,-0.508" fill="none" stroke="#4ea1ff" stroke-width="0.25" stroke-linejoin="round"/><polyline points="2.540,-1.778 1.778,-2.032 2.286,-2.540 2.540,-1.778" fill="#1e222b" stroke="#4ea1ff" stroke-width="0.25" stroke-linejoin="round"/><polyline points="5.334,-0.508 5.334,0.508" fill="none" stroke="#4ea1ff" stroke-width="0.25" stroke-linejoin="round"/><polyline points="5.334,-0.000 5.842,-0.000" fill="none" stroke="#4ea1ff" stroke-width="0.25" stroke-linejoin="round"/><polyline points="5.334,0.508 2.286,0.508" fill="none" stroke="#4ea1ff" stroke-width="0.25" stroke-linejoin="round"/><circle cx="3.810" cy="-0.000" r="2.032" fill="none" stroke="#4ea1ff" stroke-width="0.25"/><line x1="0.000" y1="-0.000" x2="1.778" y2="-0.000" stroke="#e6e9ef" stroke-width="0.2"/><circle cx="0.000" cy="-0.000" r="0.4" fill="#4ea1ff"/><line x1="7.620" y1="-0.000" x2="5.842" y2="-0.000" stroke="#e6e9ef" stroke-width="0.2"/><circle cx="7.620" cy="-0.000" r="0.4" fill="#4ea1ff"/></svg>