<svg xmlns="http://www.w3.org/2000/svg" viewBox="-10.41 -10.00 19.91 20.00" preserveAspectRatio="xMidYMid meet" style="width:100%;height:100%"><rect x="-10.41" y="-10.00" width="19.91" height="20.00" fill="#12151c"/><line x1="-7.100" y1="-8.750" x2="6.325" y2="-8.750" stroke="#e6e9ef" stroke-width="0.200" stroke-linecap="round" opacity="1"/><line x1="-7.100" y1="-7.715" x2="-7.100" y2="-8.750" stroke="#e6e9ef" stroke-width="0.200" stroke-linecap="round" opacity="1"/><line x1="-7.100" y1="8.750" x2="-7.100" y2="7.715" stroke="#e6e9ef" stroke-width="0.200" stroke-linecap="round" opacity="1"/><line x1="-7.100" y1="8.750" x2="7.100" y2="8.750" stroke="#e6e9ef" stroke-width="0.200" stroke-linecap="round" opacity="1"/><line x1="-6.325" y1="-7.715" x2="-6.325" y2="-8.750" stroke="#e6e9ef" stroke-width="0.200" stroke-linecap="round" opacity="1"/><line x1="-6.325" y1="8.750" x2="-6.325" y2="7.715" stroke="#e6e9ef" stroke-width="0.200" stroke-linecap="round" opacity="1"/><line x1="6.325" y1="-8.750" x2="7.100" y2="-8.750" stroke="#e6e9ef" stroke-width="0.200" stroke-linecap="round" opacity="1"/><line x1="6.325" y1="-7.715" x2="6.325" y2="-8.750" stroke="#e6e9ef" stroke-width="0.200" stroke-linecap="round" opacity="1"/><line x1="6.325" y1="8.750" x2="6.325" y2="7.715" stroke="#e6e9ef" stroke-width="0.200" stroke-linecap="round" opacity="1"/><line x1="7.100" y1="-7.715" x2="7.100" y2="-8.750" stroke="#e6e9ef" stroke-width="0.200" stroke-linecap="round" opacity="1"/><line x1="7.100" y1="8.750" x2="7.100" y2="7.715" stroke="#e6e9ef" stroke-width="0.200" stroke-linecap="round" opacity="1"/><line x1="-8.255" y1="-7.365" x2="-6.350" y2="-7.365" stroke="#4a5160" stroke-width="0.080" stroke-linecap="round" opacity="0.7"/><line x1="-8.255" y1="-6.605" x2="-8.255" y2="-7.365" stroke="#4a5160" stroke-width="0.080" stroke-linecap="round" opacity="0.7"/><line x1="-8.255" y1="-6.605" x2="-6.350" y2="-6.605" stroke="#4a5160" stroke-width="0.080" stroke-linecap="round" opacity="0.7"/><line x1="-8.255" y1="-6.095" x2="-6.350" y2="-6.095" stroke="#4a5160" stroke-width="0.080" stroke-linecap="round" opacity="0.7"/><line x1="-8.255" y1="-5.335" x2="-8.255" y2="-6.095" stroke="#4a5160" stroke-width="0.080" stroke-linecap="round" opacity="0.7"/><line x1="-8.255" y1="-5.335" x2="-6.350" y2="-5.335" stroke="#4a5160" stroke-width="0.080" stroke-linecap="round" opacity="0.7"/><line x1="-8.255" y1="-4.825" x2="-6.350" y2="-4.825" stroke="#4a5160" stroke-width="0.080" stroke-linecap="round" opacity="0.7"/><line x1="-8.255" y1="-4.065" x2="-8.255" y2="-4.825" stroke="#4a5160" stroke-width="0.080" stroke-linecap="round" opacity="0.7"/><line x1="-8.255" y1="-4.065" x2="-6.350" y2="-4.065" stroke="#4a5160" stroke-width="0.080" stroke-linecap="round" opacity="0.7"/><line x1="-8.255" y1="-3.555" x2="-6.350" y2="-3.555" stroke="#4a5160" stroke-width="0.080" stroke-linecap="round" opacity="0.7"/><line x1="-8.255" y1="-2.795" x2="-8.255" y2="-3.555" stroke="#4a5160" stroke-width="0.080" stroke-linecap="round" opacity="0.7"/><line x1="-8.255" y1="-2.795" x2="-6.350" y2="-2.795" stroke="#4a5160" stroke-width="0.080" stroke-linecap="round" opacity="0.7"/><line x1="-8.255" y1="-2.285" x2="-6.350" y2="-2.285" stroke="#4a5160" stroke-width="0.080" stroke-linecap="round" opacity="0.7"/><line x1="-8.255" y1="-1.525" x2="-8.255" y2="-2.285" stroke="#4a5160" stroke-width="0.080" stroke-linecap="round" opacity="0.7"/><line x1="-8.255" y1="-1.525" x2="-6.350" y2="-1.525" stroke="#4a5160" stroke-width="0.080" stroke-linecap="round" opacity="0.7"/><line x1="-8.255" y1="-1.015" x2="-6.350" y2="-1.015" stroke="#4a5160" stroke-width="0.080" stroke-linecap="round" opacity="0.7"/><line x1="-8.255" y1="-0.255" x2="-8.255" y2="-1.015" stroke="#4a5160" stroke-width="0.080" stroke-linecap="round" opacity="0.7"/><line x1="-8.255" y1="-0.255" x2="-6.350" y2="-0.255" stroke="#4a5160" stroke-width="0.080" stroke-linecap="round" opacity="0.7"/><line x1="-8.255" y1="0.255" x2="-6.350" y2="0.255" stroke="#4a5160" stroke-width="0.080" stroke-linecap="round" opacity="0.7"/><line x1="-8.255" y1="1.015" x2="-8.255" y2="0.255" stroke="#4a5160" stroke-width="0.080" stroke-linecap="round" opacity="0.7"/><line x1="-8.255" y1="1.015" x2="-6.350" y2="1.015" stroke="#4a5160" stroke-width="0.080" stroke-linecap="round" opacity="0.7"/><line x1="-8.255" y1="1.525" x2="-6.350" y2="1.525" stroke="#4a5160" stroke-width="0.080" stroke-linecap="round" opacity="0.7"/><line x1="-8.255" y1="2.285" x2="-8.255" y2="1.525" stroke="#4a5160" stroke-width="0.080" stroke-linecap="round" opacity="0.7"/><line x1="-8.255" y1="2.285" x2="-6.350" y2="2.285" stroke="#4a5160" stroke-width="0.080" stroke-linecap="round" opacity="0.7"/><line x1="-8.255" y1="2.795" x2="-6.350" y2="2.795" stroke="#4a5160" stroke-width="0.080" stroke-linecap="round" opacity="0.7"/><line x1="-8.255" y1="3.555" x2="-8.255" y2="2.795" stroke="#4a5160" stroke-width="0.080" stroke-linecap="round" opacity="0.7"/><line x1="-8.255" y1="3.555" x2="-6.350" y2="3.555" stroke="#4a5160" stroke-width="0.080" stroke-linecap="round" opacity="0.7"/><line x1="-8.255" y1="4.065" x2="-6.350" y2="4.065" stroke="#4a5160" stroke-width="0.080" stroke-linecap="round" opacity="0.7"/><line x1="-8.255" y1="4.825" x2="-8.255" y2="4.065" stroke="#4a5160" stroke-width="0.080" stroke-linecap="round" opacity="0.7"/><line x1="-8.255" y1="4.825" x2="-6.350" y2="4.825" stroke="#4a5160" stroke-width="0.080" stroke-linecap="round" opacity="0.7"/><line x1="-8.255" y1="5.335" x2="-6.350" y2="5.335" stroke="#4a5160" stroke-width="0.080" stroke-linecap="round" opacity="0.7"/><line x1="-8.255" y1="6.095" x2="-8.255" y2="5.335" stroke="#4a5160" stroke-width="0.080" stroke-linecap="round" opacity="0.7"/><line x1="-8.255" y1="6.095" x2="-6.350" y2="6.095" stroke="#4a5160" stroke-width="0.080" stroke-linecap="round" opacity="0.7"/><line x1="-8.255" y1="6.605" x2="-6.350" y2="6.605" stroke="#4a5160" stroke-width="0.080" stroke-linecap="round" opacity="0.7"/><line x1="-8.255" y1="7.365" x2="-8.255" y2="6.605" stroke="#4a5160" stroke-width="0.080" stroke-linecap="round" opacity="0.7"/><line x1="-8.255" y1="7.365" x2="-6.350" y2="7.365" stroke="#4a5160" stroke-width="0.080" stroke-linecap="round" opacity="0.7"/><line x1="-7.803" y1="-6.985" x2="-7.303" y2="-6.985" stroke="#4a5160" stroke-width="0.080" stroke-linecap="round" opacity="0.7"/><line x1="-7.803" y1="-5.715" x2="-7.303" y2="-5.715" stroke="#4a5160" stroke-width="0.080" stroke-linecap="round" opacity="0.7"/><line x1="-7.803" y1="-4.445" x2="-7.303" y2="-4.445" stroke="#4a5160" stroke-width="0.080" stroke-linecap="round" opacity="0.7"/><line x1="-7.803" y1="-3.175" x2="-7.303" y2="-3.175" stroke="#4a5160" stroke-width="0.080" stroke-linecap="round" opacity="0.7"/><line x1="-7.803" y1="-1.905" x2="-7.303" y2="-1.905" stroke="#4a5160" stroke-width="0.080" stroke-linecap="round" opacity="0.7"/><line x1="-7.803" y1="-0.635" x2="-7.303" y2="-0.635" stroke="#4a5160" stroke-width="0.080" stroke-linecap="round" opacity="0.7"/><line x1="-7.803" y1="0.635" x2="-7.303" y2="0.635" stroke="#4a5160" stroke-width="0.080" stroke-linecap="round" opacity="0.7"/><line x1="-7.803" y1="1.905" x2="-7.303" y2="1.905" stroke="#4a5160" stroke-width="0.080" stroke-linecap="round" opacity="0.7"/><line x1="-7.803" y1="3.175" x2="-7.303" y2="3.175" stroke="#4a5160" stroke-width="0.080" stroke-linecap="round" opacity="0.7"/><line x1="-7.803" y1="4.445" x2="-7.303" y2="4.445" stroke="#4a5160" stroke-width="0.080" stroke-linecap="round" opacity="0.7"/><line x1="-7.803" y1="5.715" x2="-7.303" y2="5.715" stroke="#4a5160" stroke-width="0.080" stroke-linecap="round" opacity="0.7"/><line x1="-7.803" y1="6.985" x2="-7.303" y2="6.985" stroke="#4a5160" stroke-width="0.080" stroke-linecap="round" opacity="0.7"/><line x1="-7.303" y1="-6.985" x2="-7.303" y2="-7.485" stroke="#4a5160" stroke-width="0.080" stroke-linecap="round" opacity="0.7"/><line x1="-7.303" y1="-6.985" x2="-6.803" y2="-6.985" stroke="#4a5160" stroke-width="0.080" stroke-linecap="round" opacity="0.7"/><line x1="-7.303" y1="-6.485" x2="-7.303" y2="-6.985" stroke="#4a5160" stroke-width="0.080" stroke-linecap="round" opacity="0.7"/><line x1="-7.303" y1="-5.715" x2="-7.303" y2="-6.215" stroke="#4a5160" stroke-width="0.080" stroke-linecap="round" opacity="0.7"/><line x1="-7.303" y1="-5.715" x2="-6.803" y2="-5.715" stroke="#4a5160" stroke-width="0.080" stroke-linecap="round" opacity="0.7"/><line x1="-7.303" y1="-5.215" x2="-7.303" y2="-5.715" stroke="#4a5160" stroke-width="0.080" stroke-linecap="round" opacity="0.7"/><line x1="-7.303" y1="-4.445" x2="-7.303" y2="-4.945" stroke="#4a5160" stroke-width="0.080" stroke-linecap="round" opacity="0.7"/><line x1="-7.303" y1="-4.445" x2="-6.803" y2="-4.445" stroke="#4a5160" stroke-width="0.080" stroke-linecap="round" opacity="0.7"/><line x1="-7.303" y1="-3.945" x2="-7.303" y2="-4.445" stroke="#4a5160" stroke-width="0.080" stroke-linecap="round" opacity="0.7"/><line x1="-7.303" y1="-3.175" x2="-7.303" y2="-3.675" stroke="#4a5160" stroke-width="0.080" stroke-linecap="round" opacity="0.7"/><line x1="-7.303" y1="-3.175" x2="-6.803" y2="-3.175" stroke="#4a5160" stroke-width="0.080" stroke-linecap="round" opacity="0.7"/><line x1="-7.303" y1="-2.675" x2="-7.303" y2="-3.175" stroke="#4a5160" stroke-width="0.080" stroke-linecap="round" opacity="0.7"/><line x1="-7.303" y1="-1.905" x2="-7.303" y2="-2.405" stroke="#4a5160" stroke-width="0.080" stroke-linecap="round" opacity="0.7"/><line x1="-7.303" y1="-1.905" x2="-6.803" y2="-1.905" stroke="#4a5160" stroke-width="0.080" stroke-linecap="round" opacity="0.7"/><line x1="-7.303" y1="-1.405" x2="-7.303" y2="-1.905" stroke="#4a5160" stroke-width="0.080" stroke-linecap="round" opacity="0.7"/><line x1="-7.303" y1="-0.635" x2="-7.303" y2="-1.135" stroke="#4a5160" stroke-width="0.080" stroke-linecap="round" opacity="0.7"/><line x1="-7.303" y1="-0.635" x2="-6.803" y2="-0.635" stroke="#4a5160" stroke-width="0.080" stroke-linecap="round" opacity="0.7"/><line x1="-7.303" y1="-0.135" x2="-7.303" y2="-0.635" stroke="#4a5160" stroke-width="0.080" stroke-linecap="round" opacity="0.7"/><line x1="-7.303" y1="0.635" x2="-7.303" y2="0.135" stroke="#4a5160" stroke-width="0.080" stroke-linecap="round" opacity="0.7"/><line x1="-7.303" y1="0.635" x2="-6.803" y2="0.635" stroke="#4a5160" stroke-width="0.080" stroke-linecap="round" opacity="0.7"/><line x1="-7.303" y1="1.135" x2="-7.303" y2="0.635" stroke="#4a5160" stroke-width="0.080" stroke-linecap="round" opacity="0.7"/><line x1="-7.303" y1="1.905" x2="-7.303" y2="1.405" stroke="#4a5160" stroke-width="0.080" stroke-linecap="round" opacity="0.7"/><line x1="-7.303" y1="1.905" x2="-6.803" y2="1.905" stroke="#4a5160" stroke-width="0.080" stroke-linecap="round" opacity="0.7"/><line x1="-7.303" y1="2.405" x2="-7.303" y2="1.905" stroke="#4a5160" stroke-width="0.080" stroke-linecap="round" opacity="0.7"/><line x1="-7.303" y1="3.175" x2="-7.303" y2="2.675" stroke="#4a5160" stroke-width="0.080" stroke-linecap="round" opacity="0.7"/><line x1="-7.303" y1="3.175" x2="-6.803" y2="3.175" stroke="#4a5160" stroke-width="0.080" stroke-linecap="round" opacity="0.7"/><line x1="-7.303" y1="3.675" x2="-7.303" y2="3.175" stroke="#4a5160" stroke-width="0.080" stroke-linecap="round" opacity="0.7"/><line x1="-7.303" y1="4.445" x2="-7.303" y2="3.945" stroke="#4a5160" stroke-width="0.080" stroke-linecap="round" opacity="0.7"/><line x1="-7.303" y1="4.445" x2="-6.803" y2="4.445" stroke="#4a5160" stroke-width="0.080" stroke-linecap="round" opacity="0.7"/><line x1="-7.303" y1="4.945" x2="-7.303" y2="4.445" stroke="#4a5160" stroke-width="0.080" stroke-linecap="round" opacity="0.7"/><line x1="-7.303" y1="5.715" x2="-7.303" y2="5.215" stroke="#4a5160" stroke-width="0.080" stroke-linecap="round" opacity="0.7"/><line x1="-7.303" y1="5.715" x2="-6.803" y2="5.715" stroke="#4a5160" stroke-width="0.080" stroke-linecap="round" opacity="0.7"/><line x1="-7.303" y1="6.215" x2="-7.303" y2="5.715" stroke="#4a5160" stroke-width="0.080" stroke-linecap="round" opacity="0.7"/><line x1="-7.303" y1="6.985" x2="-7.303" y2="6.485" stroke="#4a5160" stroke-width="0.080" stroke-linecap="round" opacity="0.7"/><line x1="-7.303" y1="6.985" x2="-6.803" y2="6.985" stroke="#4a5160" stroke-width="0.080" stroke-linecap="round" opacity="0.7"/><line x1="-7.303" y1="7.485" x2="-7.303" y2="6.985" stroke="#4a5160" stroke-width="0.080" stroke-linecap="round" opacity="0.7"/><line x1="-6.350" y1="-6.605" x2="-6.350" y2="-7.365" stroke="#4a5160" stroke-width="0.080" stroke-linecap="round" opacity="0.7"/><line x1="-6.350" y1="-5.335" x2="-6.350" y2="-6.095" stroke="#4a5160" stroke-width="0.080" stroke-linecap="round" opacity="0.7"/><line x1="-6.350" y1="-4.065" x2="-6.350" y2="-4.825" stroke="#4a5160" stroke-width="0.080" stroke-linecap="round" opacity="0.7"/><line x1="-6.350" y1="-2.795" x2="-6.350" y2="-3.555" stroke="#4a5160" stroke-width="0.080" stroke-linecap="round" opacity="0.7"/><line x1="-6.350" y1="-1.525" x2="-6.350" y2="-2.285" stroke="#4a5160" stroke-width="0.080" stroke-linecap="round" opacity="0.7"/><line x1="-6.350" y1="-0.255" x2="-6.350" y2="-1.015" stroke="#4a5160" stroke-width="0.080" stroke-linecap="round" opacity="0.7"/><line x1="-6.350" y1="1.015" x2="-6.350" y2="0.255" stroke="#4a5160" stroke-width="0.080" stroke-linecap="round" opacity="0.7"/><line x1="-6.350" y1="2.285" x2="-6.350" y2="1.525" stroke="#4a5160" stroke-width="0.080" stroke-linecap="round" opacity="0.7"/><line x1="-6.350" y1="3.555" x2="-6.350" y2="2.795" stroke="#4a5160" stroke-width="0.080" stroke-linecap="round" opacity="0.7"/><line x1="-6.350" y1="4.825" x2="-6.350" y2="4.065" stroke="#4a5160" stroke-width="0.080" stroke-linecap="round" opacity="0.7"/><line x1="-6.350" y1="6.095" x2="-6.350" y2="5.335" stroke="#4a5160" stroke-width="0.080" stroke-linecap="round" opacity="0.7"/><line x1="-6.350" y1="7.365" x2="-6.350" y2="6.605" stroke="#4a5160" stroke-width="0.080" stroke-linecap="round" opacity="0.7"/><line x1="-0.500" y1="0.000" x2="-0.000" y2="0.000" stroke="#4a5160" stroke-width="0.080" stroke-linecap="round" opacity="0.7"/><line x1="-0.000" y1="0.000" x2="-0.000" y2="-0.500" stroke="#4a5160" stroke-width="0.080" stroke-linecap="round" opacity="0.7"/><line x1="-0.000" y1="0.000" x2="0.500" y2="0.000" stroke="#4a5160" stroke-width="0.080" stroke-linecap="round" opacity="0.7"/><line x1="-0.000" y1="0.500" x2="-0.000" y2="0.000" stroke="#4a5160" stroke-width="0.080" stroke-linecap="round" opacity="0.7"/><line x1="6.350" y1="-7.365" x2="8.255" y2="-7.365" stroke="#4a5160" stroke-width="0.080" stroke-linecap="round" opacity="0.7"/><line x1="6.350" y1="-6.605" x2="6.350" y2="-7.365" stroke="#4a5160" stroke-width="0.080" stroke-linecap="round" opacity="0.7"/><line x1="6.350" y1="-6.605" x2="8.255" y2="-6.605" stroke="#4a5160" stroke-width="0.080" stroke-linecap="round" opacity="0.7"/><line x1="6.350" y1="-6.095" x2="8.255" y2="-6.095" stroke="#4a5160" stroke-width="0.080" stroke-linecap="round" opacity="0.7"/><line x1="6.350" y1="-5.335" x2="6.350" y2="-6.095" stroke="#4a5160" stroke-width="0.080" stroke-linecap="round" opacity="0.7"/><line x1="6.350" y1="-5.335" x2="8.255" y2="-5.335" stroke="#4a5160" stroke-width="0.080" stroke-linecap="round" opacity="0.7"/><line x1="6.350" y1="-4.825" x2="8.255" y2="-4.825" stroke="#4a5160" stroke-width="0.080" stroke-linecap="round" opacity="0.7"/><line x1="6.350" y1="-4.065" x2="6.350" y2="-4.825" stroke="#4a5160" stroke-width="0.080" stroke-linecap="round" opacity="0.7"/><line x1="6.350" y1="-4.065" x2="8.255" y2="-4.065" stroke="#4a5160" stroke-width="0.080" stroke-linecap="round" opacity="0.7"/><line x1="6.350" y1="-3.555" x2="8.255" y2="-3.555" stroke="#4a5160" stroke-width="0.080" stroke-linecap="round" opacity="0.7"/><line x1="6.350" y1="-2.795" x2="6.350" y2="-3.555" stroke="#4a5160" stroke-width="0.080" stroke-linecap="round" opacity="0.7"/><line x1="6.350" y1="-2.795" x2="8.255" y2="-2.795" stroke="#4a5160" stroke-width="0.080" stroke-linecap="round" opacity="0.7"/><line x1="6.350" y1="-2.285" x2="8.255" y2="-2.285" stroke="#4a5160" stroke-width="0.080" stroke-linecap="round" opacity="0.7"/><line x1="6.350" y1="-1.525" x2="6.350" y2="-2.285" stroke="#4a5160" stroke-width="0.080" stroke-linecap="round" opacity="0.7"/><line x1="6.350" y1="-1.525" x2="8.255" y2="-1.525" stroke="#4a5160" stroke-width="0.080" stroke-linecap="round" opacity="0.7"/><line x1="6.350" y1="-1.015" x2="8.255" y2="-1.015" stroke="#4a5160" stroke-width="0.080" stroke-linecap="round" opacity="0.7"/><line x1="6.350" y1="-0.255" x2="6.350" y2="-1.015" stroke="#4a5160" stroke-width="0.080" stroke-linecap="round" opacity="0.7"/><line x1="6.350" y1="-0.255" x2="8.255" y2="-0.255" stroke="#4a5160" stroke-width="0.080" stroke-linecap="round" opacity="0.7"/><line x1="6.350" y1="0.255" x2="8.255" y2="0.255" stroke="#4a5160" stroke-width="0.080" stroke-linecap="round" opacity="0.7"/><line x1="6.350" y1="1.015" x2="6.350" y2="0.255" stroke="#4a5160" stroke-width="0.080" stroke-linecap="round" opacity="0.7"/><line x1="6.350" y1="1.015" x2="8.255" y2="1.015" stroke="#4a5160" stroke-width="0.080" stroke-linecap="round" opacity="0.7"/><line x1="6.350" y1="1.525" x2="8.255" y2="1.525" stroke="#4a5160" stroke-width="0.080" stroke-linecap="round" opacity="0.7"/><line x1="6.350" y1="2.285" x2="6.350" y2="1.525" stroke="#4a5160" stroke-width="0.080" stroke-linecap="round" opacity="0.7"/><line x1="6.350" y1="2.285" x2="8.255" y2="2.285" stroke="#4a5160" stroke-width="0.080" stroke-linecap="round" opacity="0.7"/><line x1="6.350" y1="2.795" x2="8.255" y2="2.795" stroke="#4a5160" stroke-width="0.080" stroke-linecap="round" opacity="0.7"/><line x1="6.350" y1="3.555" x2="6.350" y2="2.795" stroke="#4a5160" stroke-width="0.080" stroke-linecap="round" opacity="0.7"/><line x1="6.350" y1="3.555" x2="8.255" y2="3.555" stroke="#4a5160" stroke-width="0.080" stroke-linecap="round" opacity="0.7"/><line x1="6.350" y1="4.065" x2="8.255" y2="4.065" stroke="#4a5160" stroke-width="0.080" stroke-linecap="round" opacity="0.7"/><line x1="6.350" y1="4.825" x2="6.350" y2="4.065" stroke="#4a5160" stroke-width="0.080" stroke-linecap="round" opacity="0.7"/><line x1="6.350" y1="4.825" x2="8.255" y2="4.825" stroke="#4a5160" stroke-width="0.080" stroke-linecap="round" opacity="0.7"/><line x1="6.350" y1="5.335" x2="8.255" y2="5.335" stroke="#4a5160" stroke-width="0.080" stroke-linecap="round" opacity="0.7"/><line x1="6.350" y1="6.095" x2="6.350" y2="5.335" stroke="#4a5160" stroke-width="0.080" stroke-linecap="round" opacity="0.7"/><line x1="6.350" y1="6.095" x2="8.255" y2="6.095" stroke="#4a5160" stroke-width="0.080" stroke-linecap="round" opacity="0.7"/><line x1="6.350" y1="6.605" x2="8.255" y2="6.605" stroke="#4a5160" stroke-width="0.080" stroke-linecap="round" opacity="0.7"/><line x1="6.350" y1="7.365" x2="6.350" y2="6.605" stroke="#4a5160" stroke-width="0.080" stroke-linecap="round" opacity="0.7"/><line x1="6.350" y1="7.365" x2="8.255" y2="7.365" stroke="#4a5160" stroke-width="0.080" stroke-linecap="round" opacity="0.7"/><line x1="6.802" y1="-6.985" x2="7.302" y2="-6.985" stroke="#4a5160" stroke-width="0.080" stroke-linecap="round" opacity="0.7"/><line x1="6.802" y1="-5.715" x2="7.302" y2="-5.715" stroke="#4a5160" stroke-width="0.080" stroke-linecap="round" opacity="0.7"/><line x1="6.802" y1="-4.445" x2="7.302" y2="-4.445" stroke="#4a5160" stroke-width="0.080" stroke-linecap="round" opacity="0.7"/><line x1="6.802" y1="-3.175" x2="7.302" y2="-3.175" stroke="#4a5160" stroke-width="0.080" stroke-linecap="round" opacity="0.7"/><line x1="6.802" y1="-1.905" x2="7.302" y2="-1.905" stroke="#4a5160" stroke-width="0.080" stroke-linecap="round" opacity="0.7"/><line x1="6.802" y1="-0.635" x2="7.302" y2="-0.635" stroke="#4a5160" stroke-width="0.080" stroke-linecap="round" opacity="0.7"/><line x1="6.802" y1="0.635" x2="7.302" y2="0.635" stroke="#4a5160" stroke-width="0.080" stroke-linecap="round" opacity="0.7"/><line x1="6.802" y1="1.905" x2="7.302" y2="1.905" stroke="#4a5160" stroke-width="0.080" stroke-linecap="round" opacity="0.7"/><line x1="6.802" y1="3.175" x2="7.302" y2="3.175" stroke="#4a5160" stroke-width="0.080" stroke-linecap="round" opacity="0.7"/><line x1="6.802" y1="4.445" x2="7.302" y2="4.445" stroke="#4a5160" stroke-width="0.080" stroke-linecap="round" opacity="0.7"/><line x1="6.802" y1="5.715" x2="7.302" y2="5.715" stroke="#4a5160" stroke-width="0.080" stroke-linecap="round" opacity="0.7"/><line x1="6.802" y1="6.985" x2="7.302" y2="6.985" stroke="#4a5160" stroke-width="0.080" stroke-linecap="round" opacity="0.7"/><line x1="7.302" y1="-6.985" x2="7.302" y2="-7.485" stroke="#4a5160" stroke-width="0.080" stroke-linecap="round" opacity="0.7"/><line x1="7.302" y1="-6.985" x2="7.802" y2="-6.985" stroke="#4a5160" stroke-width="0.080" stroke-linecap="round" opacity="0.7"/><line x1="7.302" y1="-6.485" x2="7.302" y2="-6.985" stroke="#4a5160" stroke-width="0.080" stroke-linecap="round" opacity="0.7"/><line x1="7.302" y1="-5.715" x2="7.302" y2="-6.215" stroke="#4a5160" stroke-width="0.080" stroke-linecap="round" opacity="0.7"/><line x1="7.302" y1="-5.715" x2="7.802" y2="-5.715" stroke="#4a5160" stroke-width="0.080" stroke-linecap="round" opacity="0.7"/><line x1="7.302" y1="-5.215" x2="7.302" y2="-5.715" stroke="#4a5160" stroke-width="0.080" stroke-linecap="round" opacity="0.7"/><line x1="7.302" y1="-4.445" x2="7.302" y2="-4.945" stroke="#4a5160" stroke-width="0.080" stroke-linecap="round" opacity="0.7"/><line x1="7.302" y1="-4.445" x2="7.802" y2="-4.445" stroke="#4a5160" stroke-width="0.080" stroke-linecap="round" opacity="0.7"/><line x1="7.302" y1="-3.945" x2="7.302" y2="-4.445" stroke="#4a5160" stroke-width="0.080" stroke-linecap="round" opacity="0.7"/><line x1="7.302" y1="-3.175" x2="7.302" y2="-3.675" stroke="#4a5160" stroke-width="0.080" stroke-linecap="round" opacity="0.7"/><line x1="7.302" y1="-3.175" x2="7.802" y2="-3.175" stroke="#4a5160" stroke-width="0.080" stroke-linecap="round" opacity="0.7"/><line x1="7.302" y1="-2.675" x2="7.302" y2="-3.175" stroke="#4a5160" stroke-width="0.080" stroke-linecap="round" opacity="0.7"/><line x1="7.302" y1="-1.905" x2="7.302" y2="-2.405" stroke="#4a5160" stroke-width="0.080" stroke-linecap="round" opacity="0.7"/><line x1="7.302" y1="-1.905" x2="7.802" y2="-1.905" stroke="#4a5160" stroke-width="0.080" stroke-linecap="round" opacity="0.7"/><line x1="7.302" y1="-1.405" x2="7.302" y2="-1.905" stroke="#4a5160" stroke-width="0.080" stroke-linecap="round" opacity="0.7"/><line x1="7.302" y1="-0.635" x2="7.302" y2="-1.135" stroke="#4a5160" stroke-width="0.080" stroke-linecap="round" opacity="0.7"/><line x1="7.302" y1="-0.635" x2="7.802" y2="-0.635" stroke="#4a5160" stroke-width="0.080" stroke-linecap="round" opacity="0.7"/><line x1="7.302" y1="-0.135" x2="7.302" y2="-0.635" stroke="#4a5160" stroke-width="0.080" stroke-linecap="round" opacity="0.7"/><line x1="7.302" y1="0.635" x2="7.302" y2="0.135" stroke="#4a5160" stroke-width="0.080" stroke-linecap="round" opacity="0.7"/><line x1="7.302" y1="0.635" x2="7.802" y2="0.635" stroke="#4a5160" stroke-width="0.080" stroke-linecap="round" opacity="0.7"/><line x1="7.302" y1="1.135" x2="7.302" y2="0.635" stroke="#4a5160" stroke-width="0.080" stroke-linecap="round" opacity="0.7"/><line x1="7.302" y1="1.905" x2="7.302" y2="1.405" stroke="#4a5160" stroke-width="0.080" stroke-linecap="round" opacity="0.7"/><line x1="7.302" y1="1.905" x2="7.802" y2="1.905" stroke="#4a5160" stroke-width="0.080" stroke-linecap="round" opacity="0.7"/><line x1="7.302" y1="2.405" x2="7.302" y2="1.905" stroke="#4a5160" stroke-width="0.080" stroke-linecap="round" opacity="0.7"/><line x1="7.302" y1="3.175" x2="7.302" y2="2.675" stroke="#4a5160" stroke-width="0.080" stroke-linecap="round" opacity="0.7"/><line x1="7.302" y1="3.175" x2="7.802" y2="3.175" stroke="#4a5160" stroke-width="0.080" stroke-linecap="round" opacity="0.7"/><line x1="7.302" y1="3.675" x2="7.302" y2="3.175" stroke="#4a5160" stroke-width="0.080" stroke-linecap="round" opacity="0.7"/><line x1="7.302" y1="4.445" x2="7.302" y2="3.945" stroke="#4a5160" stroke-width="0.080" stroke-linecap="round" opacity="0.7"/><line x1="7.302" y1="4.445" x2="7.802" y2="4.445" stroke="#4a5160" stroke-width="0.080" stroke-linecap="round" opacity="0.7"/><line x1="7.302" y1="4.945" x2="7.302" y2="4.445" stroke="#4a5160" stroke-width="0.080" stroke-linecap="round" opacity="0.7"/><line x1="7.302" y1="5.715" x2="7.302" y2="5.215" stroke="#4a5160" stroke-width="0.080" stroke-linecap="round" opacity="0.7"/><line x1="7.302" y1="5.715" x2="7.802" y2="5.715" stroke="#4a5160" stroke-width="0.080" stroke-linecap="round" opacity="0.7"/><line x1="7.302" y1="6.215" x2="7.302" y2="5.715" stroke="#4a5160" stroke-width="0.080" stroke-linecap="round" opacity="0.7"/><line x1="7.302" y1="6.985" x2="7.302" y2="6.485" stroke="#4a5160" stroke-width="0.080" stroke-linecap="round" opacity="0.7"/><line x1="7.302" y1="6.985" x2="7.802" y2="6.985" stroke="#4a5160" stroke-width="0.080" stroke-linecap="round" opacity="0.7"/><line x1="7.302" y1="7.485" x2="7.302" y2="6.985" stroke="#4a5160" stroke-width="0.080" stroke-linecap="round" opacity="0.7"/><line x1="8.255" y1="-6.605" x2="8.255" y2="-7.365" stroke="#4a5160" stroke-width="0.080" stroke-linecap="round" opacity="0.7"/><line x1="8.255" y1="-5.335" x2="8.255" y2="-6.095" stroke="#4a5160" stroke-width="0.080" stroke-linecap="round" opacity="0.7"/><line x1="8.255" y1="-4.065" x2="8.255" y2="-4.825" stroke="#4a5160" stroke-width="0.080" stroke-linecap="round" opacity="0.7"/><line x1="8.255" y1="-2.795" x2="8.255" y2="-3.555" stroke="#4a5160" stroke-width="0.080" stroke-linecap="round" opacity="0.7"/><line x1="8.255" y1="-1.525" x2="8.255" y2="-2.285" stroke="#4a5160" stroke-width="0.080" stroke-linecap="round" opacity="0.7"/><line x1="8.255" y1="-0.255" x2="8.255" y2="-1.015" stroke="#4a5160" stroke-width="0.080" stroke-linecap="round" opacity="0.7"/><line x1="8.255" y1="1.015" x2="8.255" y2="0.255" stroke="#4a5160" stroke-width="0.080" stroke-linecap="round" opacity="0.7"/><line x1="8.255" y1="2.285" x2="8.255" y2="1.525" stroke="#4a5160" stroke-width="0.080" stroke-linecap="round" opacity="0.7"/><line x1="8.255" y1="3.555" x2="8.255" y2="2.795" stroke="#4a5160" stroke-width="0.080" stroke-linecap="round" opacity="0.7"/><line x1="8.255" y1="4.825" x2="8.255" y2="4.065" stroke="#4a5160" stroke-width="0.080" stroke-linecap="round" opacity="0.7"/><line x1="8.255" y1="6.095" x2="8.255" y2="5.335" stroke="#4a5160" stroke-width="0.080" stroke-linecap="round" opacity="0.7"/><line x1="8.255" y1="7.365" x2="8.255" y2="6.605" stroke="#4a5160" stroke-width="0.080" stroke-linecap="round" opacity="0.7"/><line x1="-8.505" y1="-9.000" x2="8.505" y2="-9.000" stroke="#d24d4d" stroke-width="0.080" stroke-linecap="round" opacity="0.7"/><line x1="-8.505" y1="9.000" x2="-8.505" y2="-9.000" stroke="#d24d4d" stroke-width="0.080" stroke-linecap="round" opacity="0.7"/><line x1="-8.505" y1="9.000" x2="8.505" y2="9.000" stroke="#d24d4d" stroke-width="0.080" stroke-linecap="round" opacity="0.7"/><line x1="8.505" y1="9.000" x2="8.505" y2="-9.000" stroke="#d24d4d" stroke-width="0.080" stroke-linecap="round" opacity="0.7"/><line x1="-7.620" y1="-7.135" x2="-7.100" y2="-7.135" stroke="#6b7280" stroke-width="0.100" stroke-linecap="round" opacity="0.8"/><line x1="-7.620" y1="-6.835" x2="-7.620" y2="-7.135" stroke="#6b7280" stroke-width="0.100" stroke-linecap="round" opacity="0.8"/><line x1="-7.620" y1="-6.835" x2="-7.100" y2="-6.835" stroke="#6b7280" stroke-width="0.100" stroke-linecap="round" opacity="0.8"/><line x1="-7.620" y1="-5.865" x2="-7.100" y2="-5.865" stroke="#6b7280" stroke-width="0.100" stroke-linecap="round" opacity="0.8"/><line x1="-7.620" y1="-5.565" x2="-7.620" y2="-5.865" stroke="#6b7280" stroke-width="0.100" stroke-linecap="round" opacity="0.8"/><line x1="-7.620" y1="-5.565" x2="-7.100" y2="-5.565" stroke="#6b7280" stroke-width="0.100" stroke-linecap="round" opacity="0.8"/><line x1="-7.620" y1="-4.595" x2="-7.100" y2="-4.595" stroke="#6b7280" stroke-width="0.100" stroke-linecap="round" opacity="0.8"/><line x1="-7.620" y1="-4.295" x2="-7.620" y2="-4.595" stroke="#6b7280" stroke-width="0.100" stroke-linecap="round" opacity="0.8"/><line x1="-7.620" y1="-4.295" x2="-7.100" y2="-4.295" stroke="#6b7280" stroke-width="0.100" stroke-linecap="round" opacity="0.8"/><line x1="-7.620" y1="-3.325" x2="-7.100" y2="-3.325" stroke="#6b7280" stroke-width="0.100" stroke-linecap="round" opacity="0.8"/><line x1="-7.620" y1="-3.025" x2="-7.620" y2="-3.325" stroke="#6b7280" stroke-width="0.100" stroke-linecap="round" opacity="0.8"/><line x1="-7.620" y1="-3.025" x2="-7.100" y2="-3.025" stroke="#6b7280" stroke-width="0.100" stroke-linecap="round" opacity="0.8"/><line x1="-7.620" y1="-2.055" x2="-7.100" y2="-2.055" stroke="#6b7280" stroke-width="0.100" stroke-linecap="round" opacity="0.8"/><line x1="-7.620" y1="-1.755" x2="-7.620" y2="-2.055" stroke="#6b7280" stroke-width="0.100" stroke-linecap="round" opacity="0.8"/><line x1="-7.620" y1="-1.755" x2="-7.100" y2="-1.755" stroke="#6b7280" stroke-width="0.100" stroke-linecap="round" opacity="0.8"/><line x1="-7.620" y1="-0.785" x2="-7.100" y2="-0.785" stroke="#6b7280" stroke-width="0.100" stroke-linecap="round" opacity="0.8"/><line x1="-7.620" y1="-0.485" x2="-7.620" y2="-0.785" stroke="#6b7280" stroke-width="0.100" stroke-linecap="round" opacity="0.8"/><line x1="-7.620" y1="-0.485" x2="-7.100" y2="-0.485" stroke="#6b7280" stroke-width="0.100" stroke-linecap="round" opacity="0.8"/><line x1="-7.620" y1="0.485" x2="-7.100" y2="0.485" stroke="#6b7280" stroke-width="0.100" stroke-linecap="round" opacity="0.8"/><line x1="-7.620" y1="0.785" x2="-7.620" y2="0.485" stroke="#6b7280" stroke-width="0.100" stroke-linecap="round" opacity="0.8"/><line x1="-7.620" y1="0.785" x2="-7.100" y2="0.785" stroke="#6b7280" stroke-width="0.100" stroke-linecap="round" opacity="0.8"/><line x1="-7.620" y1="1.755" x2="-7.100" y2="1.755" stroke="#6b7280" stroke-width="0.100" stroke-linecap="round" opacity="0.8"/><line x1="-7.620" y1="2.055" x2="-7.620" y2="1.755" stroke="#6b7280" stroke-width="0.100" stroke-linecap="round" opacity="0.8"/><line x1="-7.620" y1="2.055" x2="-7.100" y2="2.055" stroke="#6b7280" stroke-width="0.100" stroke-linecap="round" opacity="0.8"/><line x1="-7.620" y1="3.025" x2="-7.100" y2="3.025" stroke="#6b7280" stroke-width="0.100" stroke-linecap="round" opacity="0.8"/><line x1="-7.620" y1="3.325" x2="-7.620" y2="3.025" stroke="#6b7280" stroke-width="0.100" stroke-linecap="round" opacity="0.8"/><line x1="-7.620" y1="3.325" x2="-7.100" y2="3.325" stroke="#6b7280" stroke-width="0.100" stroke-linecap="round" opacity="0.8"/><line x1="-7.620" y1="4.295" x2="-7.100" y2="4.295" stroke="#6b7280" stroke-width="0.100" stroke-linecap="round" opacity="0.8"/><line x1="-7.620" y1="4.595" x2="-7.620" y2="4.295" stroke="#6b7280" stroke-width="0.100" stroke-linecap="round" opacity="0.8"/><line x1="-7.620" y1="4.595" x2="-7.100" y2="4.595" stroke="#6b7280" stroke-width="0.100" stroke-linecap="round" opacity="0.8"/><line x1="-7.620" y1="5.565" x2="-7.100" y2="5.565" stroke="#6b7280" stroke-width="0.100" stroke-linecap="round" opacity="0.8"/><line x1="-7.620" y1="5.865" x2="-7.620" y2="5.565" stroke="#6b7280" stroke-width="0.100" stroke-linecap="round" opacity="0.8"/><line x1="-7.620" y1="5.865" x2="-7.100" y2="5.865" stroke="#6b7280" stroke-width="0.100" stroke-linecap="round" opacity="0.8"/><line x1="-7.620" y1="6.835" x2="-7.100" y2="6.835" stroke="#6b7280" stroke-width="0.100" stroke-linecap="round" opacity="0.8"/><line x1="-7.620" y1="7.135" x2="-7.620" y2="6.835" stroke="#6b7280" stroke-width="0.100" stroke-linecap="round" opacity="0.8"/><line x1="-7.620" y1="7.135" x2="-7.100" y2="7.135" stroke="#6b7280" stroke-width="0.100" stroke-linecap="round" opacity="0.8"/><line x1="-7.100" y1="-8.750" x2="6.325" y2="-8.750" stroke="#6b7280" stroke-width="0.100" stroke-linecap="round" opacity="0.8"/><line x1="-7.100" y1="8.750" x2="-7.100" y2="-8.750" stroke="#6b7280" stroke-width="0.100" stroke-linecap="round" opacity="0.8"/><line x1="-7.100" y1="8.750" x2="7.100" y2="8.750" stroke="#6b7280" stroke-width="0.100" stroke-linecap="round" opacity="0.8"/><line x1="-6.325" y1="8.750" x2="-6.325" y2="-8.750" stroke="#6b7280" stroke-width="0.100" stroke-linecap="round" opacity="0.8"/><line x1="6.325" y1="-8.750" x2="7.100" y2="-8.750" stroke="#6b7280" stroke-width="0.100" stroke-linecap="round" opacity="0.8"/><line x1="6.325" y1="8.750" x2="6.325" y2="-8.750" stroke="#6b7280" stroke-width="0.100" stroke-linecap="round" opacity="0.8"/><line x1="7.100" y1="-7.135" x2="7.620" y2="-7.135" stroke="#6b7280" stroke-width="0.100" stroke-linecap="round" opacity="0.8"/><line x1="7.100" y1="-6.835" x2="7.620" y2="-6.835" stroke="#6b7280" stroke-width="0.100" stroke-linecap="round" opacity="0.8"/><line x1="7.100" y1="-5.865" x2="7.620" y2="-5.865" stroke="#6b7280" stroke-width="0.100" stroke-linecap="round" opacity="0.8"/><line x1="7.100" y1="-5.565" x2="7.620" y2="-5.565" stroke="#6b7280" stroke-width="0.100" stroke-linecap="round" opacity="0.8"/><line x1="7.100" y1="-4.595" x2="7.620" y2="-4.595" stroke="#6b7280" stroke-width="0.100" stroke-linecap="round" opacity="0.8"/><line x1="7.100" y1="-4.295" x2="7.620" y2="-4.295" stroke="#6b7280" stroke-width="0.100" stroke-linecap="round" opacity="0.8"/><line x1="7.100" y1="-3.325" x2="7.620" y2="-3.325" stroke="#6b7280" stroke-width="0.100" stroke-linecap="round" opacity="0.8"/><line x1="7.100" y1="-3.025" x2="7.620" y2="-3.025" stroke="#6b7280" stroke-width="0.100" stroke-linecap="round" opacity="0.8"/><line x1="7.100" y1="-2.055" x2="7.620" y2="-2.055" stroke="#6b7280" stroke-width="0.100" stroke-linecap="round" opacity="0.8"/><line x1="7.100" y1="-1.755" x2="7.620" y2="-1.755" stroke="#6b7280" stroke-width="0.100" stroke-linecap="round" opacity="0.8"/><line x1="7.100" y1="-0.785" x2="7.620" y2="-0.785" stroke="#6b7280" stroke-width="0.100" stroke-linecap="round" opacity="0.8"/><line x1="7.100" y1="-0.485" x2="7.620" y2="-0.485" stroke="#6b7280" stroke-width="0.100" stroke-linecap="round" opacity="0.8"/><line x1="7.100" y1="0.485" x2="7.620" y2="0.485" stroke="#6b7280" stroke-width="0.100" stroke-linecap="round" opacity="0.8"/><line x1="7.100" y1="0.785" x2="7.620" y2="0.785" stroke="#6b7280" stroke-width="0.100" stroke-linecap="round" opacity="0.8"/><line x1="7.100" y1="1.755" x2="7.620" y2="1.755" stroke="#6b7280" stroke-width="0.100" stroke-linecap="round" opacity="0.8"/><line x1="7.100" y1="2.055" x2="7.620" y2="2.055" stroke="#6b7280" stroke-width="0.100" stroke-linecap="round" opacity="0.8"/><line x1="7.100" y1="3.025" x2="7.620" y2="3.025" stroke="#6b7280" stroke-width="0.100" stroke-linecap="round" opacity="0.8"/><line x1="7.100" y1="3.325" x2="7.620" y2="3.325" stroke="#6b7280" stroke-width="0.100" stroke-linecap="round" opacity="0.8"/><line x1="7.100" y1="4.295" x2="7.620" y2="4.295" stroke="#6b7280" stroke-width="0.100" stroke-linecap="round" opacity="0.8"/><line x1="7.100" y1="4.595" x2="7.620" y2="4.595" stroke="#6b7280" stroke-width="0.100" stroke-linecap="round" opacity="0.8"/><line x1="7.100" y1="5.565" x2="7.620" y2="5.565" stroke="#6b7280" stroke-width="0.100" stroke-linecap="round" opacity="0.8"/><line x1="7.100" y1="5.865" x2="7.620" y2="5.865" stroke="#6b7280" stroke-width="0.100" stroke-linecap="round" opacity="0.8"/><line x1="7.100" y1="6.835" x2="7.620" y2="6.835" stroke="#6b7280" stroke-width="0.100" stroke-linecap="round" opacity="0.8"/><line x1="7.100" y1="7.135" x2="7.620" y2="7.135" stroke="#6b7280" stroke-width="0.100" stroke-linecap="round" opacity="0.8"/><line x1="7.100" y1="8.750" x2="7.100" y2="-8.750" stroke="#6b7280" stroke-width="0.100" stroke-linecap="round" opacity="0.8"/><line x1="7.620" y1="-6.835" x2="7.620" y2="-7.135" stroke="#6b7280" stroke-width="0.100" stroke-linecap="round" opacity="0.8"/><line x1="7.620" y1="-5.565" x2="7.620" y2="-5.865" stroke="#6b7280" stroke-width="0.100" stroke-linecap="round" opacity="0.8"/><line x1="7.620" y1="-4.295" x2="7.620" y2="-4.595" stroke="#6b7280" stroke-width="0.100" stroke-linecap="round" opacity="0.8"/><line x1="7.620" y1="-3.025" x2="7.620" y2="-3.325" stroke="#6b7280" stroke-width="0.100" stroke-linecap="round" opacity="0.8"/><line x1="7.620" y1="-1.755" x2="7.620" y2="-2.055" stroke="#6b7280" stroke-width="0.100" stroke-linecap="round" opacity="0.8"/><line x1="7.620" y1="-0.485" x2="7.620" y2="-0.785" stroke="#6b7280" stroke-width="0.100" stroke-linecap="round" opacity="0.8"/><line x1="7.620" y1="0.785" x2="7.620" y2="0.485" stroke="#6b7280" stroke-width="0.100" stroke-linecap="round" opacity="0.8"/><line x1="7.620" y1="2.055" x2="7.620" y2="1.755" stroke="#6b7280" stroke-width="0.100" stroke-linecap="round" opacity="0.8"/><line x1="7.620" y1="3.325" x2="7.620" y2="3.025" stroke="#6b7280" stroke-width="0.100" stroke-linecap="round" opacity="0.8"/><line x1="7.620" y1="4.595" x2="7.620" y2="4.295" stroke="#6b7280" stroke-width="0.100" stroke-linecap="round" opacity="0.8"/><line x1="7.620" y1="5.865" x2="7.620" y2="5.565" stroke="#6b7280" stroke-width="0.100" stroke-linecap="round" opacity="0.8"/><line x1="7.620" y1="7.135" x2="7.620" y2="6.835" stroke="#6b7280" stroke-width="0.100" stroke-linecap="round" opacity="0.8"/><circle cx="-9.207" cy="-6.985" r="0.200" fill="#e6e9ef" opacity="1"/><circle cx="-5.325" cy="-7.250" r="0.500" fill="none" stroke="#e6e9ef" stroke-width="0.12" opacity="1"/><circle cx="-5.325" cy="-7.250" r="0.500" fill="none" stroke="#6b7280" stroke-width="0.12" opacity="0.8"/><rect x="-8.258" y="-7.365" width="1.910" height="0.760" rx="0.000" fill="#c79b5c"/><rect x="-8.258" y="-6.095" width="1.910" height="0.760" rx="0.000" fill="#c79b5c"/><rect x="-8.258" y="-4.825" width="1.910" height="0.760" rx="0.000" fill="#c79b5c"/><rect x="-8.258" y="-3.555" width="1.910" height="0.760" rx="0.000" fill="#c79b5c"/><rect x="-8.258" y="-2.285" width="1.910" height="0.760" rx="0.000" fill="#c79b5c"/><rect x="-8.258" y="-1.015" width="1.910" height="0.760" rx="0.000" fill="#c79b5c"/><rect x="-8.258" y="0.255" width="1.910" height="0.760" rx="0.000" fill="#c79b5c"/><rect x="-8.258" y="1.525" width="1.910" height="0.760" rx="0.000" fill="#c79b5c"/><rect x="-8.258" y="2.795" width="1.910" height="0.760" rx="0.000" fill="#c79b5c"/><rect x="-8.258" y="4.065" width="1.910" height="0.760" rx="0.000" fill="#c79b5c"/><rect x="-8.258" y="5.335" width="1.910" height="0.760" rx="0.000" fill="#c79b5c"/><rect x="-8.258" y="6.605" width="1.910" height="0.760" rx="0.000" fill="#c79b5c"/><rect x="6.347" y="6.605" width="1.910" height="0.760" rx="0.000" fill="#c79b5c"/><rect x="6.347" y="5.335" width="1.910" height="0.760" rx="0.000" fill="#c79b5c"/><rect x="6.347" y="4.065" width="1.910" height="0.760" rx="0.000" fill="#c79b5c"/><rect x="6.347" y="2.795" width="1.910" height="0.760" rx="0.000" fill="#c79b5c"/><rect x="6.347" y="1.525" width="1.910" height="0.760" rx="0.000" fill="#c79b5c"/><rect x="6.347" y="0.255" width="1.910" height="0.760" rx="0.000" fill="#c79b5c"/><rect x="6.347" y="-1.015" width="1.910" height="0.760" rx="0.000" fill="#c79b5c"/><rect x="6.347" y="-2.285" width="1.910" height="0.760" rx="0.000" fill="#c79b5c"/><rect x="6.347" y="-3.555" width="1.910" height="0.760" rx="0.000" fill="#c79b5c"/><rect x="6.347" y="-4.825" width="1.910" height="0.760" rx="0.000" fill="#c79b5c"/><rect x="6.347" y="-6.095" width="1.910" height="0.760" rx="0.000" fill="#c79b5c"/><rect x="6.347" y="-7.365" width="1.910" height="0.760" rx="0.000" fill="#c79b5c"/></svg>