<svg xmlns="http://www.w3.org/2000/svg" viewBox="-19.60 -6.00 39.19 12.00" preserveAspectRatio="xMidYMid meet" style="width:100%;height:100%"><rect x="-19.60" y="-6.00" width="39.19" height="12.00" fill="#12151c"/><circle cx="-18.345" cy="0.000" r="0.250" fill="none" stroke="#6b7280" stroke-width="0.1"/><circle cx="18.345" cy="0.000" r="0.250" fill="none" stroke="#6b7280" stroke-width="0.1"/><rect x="-17.345" y="3.000" width="0.400" height="2.000" rx="0.000" fill="#c79b5c"/><rect x="-17.345" y="-5.000" width="0.400" height="2.000" rx="0.000" fill="#c79b5c"/><rect x="-16.710" y="3.000" width="0.400" height="2.000" rx="0.000" fill="#c79b5c"/><rect x="-16.710" y="-5.000" width="0.400" height="2.000" rx="0.000" fill="#c79b5c"/><rect x="-16.075" y="3.000" width="0.400" height="2.000" rx="0.000" fill="#c79b5c"/><rect x="-16.075" y="-5.000" width="0.400" height="2.000" rx="0.000" fill="#c79b5c"/><rect x="-15.440" y="3.000" width="0.400" height="2.000" rx="0.000" fill="#c79b5c"/><rect x="-15.440" y="-5.000" width="0.400" height="2.000" rx="0.000" fill="#c79b5c"/><rect x="-14.805" y="3.000" width="0.400" height="2.000" rx="0.000" fill="#c79b5c"/><rect x="-14.805" y="-5.000" width="0.400" height="2.000" rx="0.000" fill="#c79b5c"/><rect x="-14.170" y="3.000" width="0.400" height="2.000" rx="0.000" fill="#c79b5c"/><rect x="-14.170" y="-5.000" width="0.400" height="2.000" rx="0.000" fill="#c79b5c"/><rect x="-13.535" y="3.000" width="0.400" height="2.000" rx="0.000" fill="#c79b5c"/><rect x="-13.535" y="-5.000" width="0.400" height="2.000" rx="0.000" fill="#c79b5c"/><rect x="-12.900" y="3.000" width="0.400" height="2.000" rx="0.000" fill="#c79b5c"/><rect x="-12.900" y="-5.000" width="0.400" height="2.000" rx="0.000" fill="#c79b5c"/><rect x="-12.265" y="3.000" width="0.400" height="2.000" rx="0.000" fill="#c79b5c"/><rect x="-12.265" y="-5.000" width="0.400" height="2.000" rx="0.000" fill="#c79b5c"/><rect x="-11.630" y="3.000" width="0.400" height="2.000" rx="0.000" fill="#c79b5c"/><rect x="-11.630" y="-5.000" width="0.400" height="2.000" rx="0.000" fill="#c79b5c"/><rect x="-10.995" y="3.000" width="0.400" height="2.000" rx="0.000" fill="#c79b5c"/><rect x="-10.995" y="-5.000" width="0.400" height="2.000" rx="0.000" fill="#c79b5c"/><rect x="-10.360" y="3.000" width="0.400" height="2.000" rx="0.000" fill="#c79b5c"/><rect x="-10.360" y="-5.000" width="0.400" height="2.000" rx="0.000" fill="#c79b5c"/><rect x="-9.725" y="3.000" width="0.400" height="2.000" rx="0.000" fill="#c79b5c"/><rect x="-9.725" y="-5.000" width="0.400" height="2.000" rx="0.000" fill="#c79b5c"/><rect x="-9.090" y="3.000" width="0.400" height="2.000" rx="0.000" fill="#c79b5c"/><rect x="-9.090" y="-5.000" width="0.400" height="2.000" rx="0.000" fill="#c79b5c"/><rect x="-8.455" y="3.000" width="0.400" height="2.000" rx="0.000" fill="#c79b5c"/><rect x="-8.455" y="-5.000" width="0.400" height="2.000" rx="0.000" fill="#c79b5c"/><rect x="-7.820" y="3.000" width="0.400" height="2.000" rx="0.000" fill="#c79b5c"/><rect x="-7.820" y="-5.000" width="0.400" height="2.000" rx="0.000" fill="#c79b5c"/><rect x="-7.185" y="3.000" width="0.400" height="2.000" rx="0.000" fill="#c79b5c"/><rect x="-7.185" y="-5.000" width="0.400" height="2.000" rx="0.000" fill="#c79b5c"/><rect x="-6.550" y="3.000" width="0.400" height="2.000" rx="0.000" fill="#c79b5c"/><rect x="-6.550" y="-5.000" width="0.400" height="2.000" rx="0.000" fill="#c79b5c"/><rect x="-5.915" y="3.000" width="0.400" height="2.000" rx="0.000" fill="#c79b5c"/><rect x="-5.915" y="-5.000" width="0.400" height="2.000" rx="0.000" fill="#c79b5c"/><rect x="-5.280" y="3.000" width="0.400" height="2.000" rx="0.000" fill="#c79b5c"/><rect x="-5.280" y="-5.000" width="0.400" height="2.000" rx="0.000" fill="#c79b5c"/><rect x="-4.645" y="3.000" width="0.400" height="2.000" rx="0.000" fill="#c79b5c"/><rect x="-4.645" y="-5.000" width="0.400" height="2.000" rx="0.000" fill="#c79b5c"/><rect x="-4.010" y="3.000" width="0.400" height="2.000" rx="0.000" fill="#c79b5c"/><rect x="-4.010" y="-5.000" width="0.400" height="2.000" rx="0.000" fill="#c79b5c"/><rect x="-3.375" y="3.000" width="0.400" height="2.000" rx="0.000" fill="#c79b5c"/><rect x="-3.375" y="-5.000" width="0.400" height="2.000" rx="0.000" fill="#c79b5c"/><rect x="-2.740" y="3.000" width="0.400" height="2.000" rx="0.000" fill="#c79b5c"/><rect x="-2.740" y="-5.000" width="0.400" height="2.000" rx="0.000" fill="#c79b5c"/><rect x="-2.105" y="3.000" width="0.400" height="2.000" rx="0.000" fill="#c79b5c"/><rect x="-2.105" y="-5.000" width="0.400" height="2.000" rx="0.000" fill="#c79b5c"/><rect x="-1.470" y="3.000" width="0.400" height="2.000" rx="0.000" fill="#c79b5c"/><rect x="-1.470" y="-5.000" width="0.400" height="2.000" rx="0.000" fill="#c79b5c"/><rect x="-0.835" y="3.000" width="0.400" height="2.000" rx="0.000" fill="#c79b5c"/><rect x="-0.835" y="-5.000" width="0.400" height="2.000" rx="0.000" fill="#c79b5c"/><rect x="-0.200" y="3.000" width="0.400" height="2.000" rx="0.000" fill="#c79b5c"/><rect x="-0.200" y="-5.000" width="0.400" height="2.000" rx="0.000" fill="#c79b5c"/><rect x="0.435" y="3.000" width="0.400" height="2.000" rx="0.000" fill="#c79b5c"/><rect x="0.435" y="-5.000" width="0.400" height="2.000" rx="0.000" fill="#c79b5c"/><rect x="1.070" y="3.000" width="0.400" height="2.000" rx="0.000" fill="#c79b5c"/><rect x="1.070" y="-5.000" width="0.400" height="2.000" rx="0.000" fill="#c79b5c"/><rect x="1.705" y="3.000" width="0.400" height="2.000" rx="0.000" fill="#c79b5c"/><rect x="1.705" y="-5.000" width="0.400" height="2.000" rx="0.000" fill="#c79b5c"/><rect x="5.515" y="3.000" width="0.400" height="2.000" rx="0.000" fill="#c79b5c"/><rect x="5.515" y="-5.000" width="0.400" height="2.000" rx="0.000" fill="#c79b5c"/><rect x="6.150" y="3.000" width="0.400" height="2.000" rx="0.000" fill="#c79b5c"/><rect x="6.150" y="-5.000" width="0.400" height="2.000" rx="0.000" fill="#c79b5c"/><rect x="6.785" y="3.000" width="0.400" height="2.000" rx="0.000" fill="#c79b5c"/><rect x="6.785" y="-5.000" width="0.400" height="2.000" rx="0.000" fill="#c79b5c"/><rect x="7.420" y="3.000" width="0.400" height="2.000" rx="0.000" fill="#c79b5c"/><rect x="7.420" y="-5.000" width="0.400" height="2.000" rx="0.000" fill="#c79b5c"/><rect x="8.055" y="3.000" width="0.400" height="2.000" rx="0.000" fill="#c79b5c"/><rect x="8.055" y="-5.000" width="0.400" height="2.000" rx="0.000" fill="#c79b5c"/><rect x="8.690" y="3.000" width="0.400" height="2.000" rx="0.000" fill="#c79b5c"/><rect x="8.690" y="-5.000" width="0.400" height="2.000" rx="0.000" fill="#c79b5c"/><rect x="9.325" y="3.000" width="0.400" height="2.000" rx="0.000" fill="#c79b5c"/><rect x="9.325" y="-5.000" width="0.400" height="2.000" rx="0.000" fill="#c79b5c"/><rect x="9.960" y="3.000" width="0.400" height="2.000" rx="0.000" fill="#c79b5c"/><rect x="9.960" y="-5.000" width="0.400" height="2.000" rx="0.000" fill="#c79b5c"/><rect x="10.595" y="3.000" width="0.400" height="2.000" rx="0.000" fill="#c79b5c"/><rect x="10.595" y="-5.000" width="0.400" height="2.000" rx="0.000" fill="#c79b5c"/><rect x="11.230" y="3.000" width="0.400" height="2.000" rx="0.000" fill="#c79b5c"/><rect x="11.230" y="-5.000" width="0.400" height="2.000" rx="0.000" fill="#c79b5c"/><rect x="11.865" y="3.000" width="0.400" height="2.000" rx="0.000" fill="#c79b5c"/><rect x="11.865" y="-5.000" width="0.400" height="2.000" rx="0.000" fill="#c79b5c"/><rect x="12.500" y="3.000" width="0.400" height="2.000" rx="0.000" fill="#c79b5c"/><rect x="12.500" y="-5.000" width="0.400" height="2.000" rx="0.000" fill="#c79b5c"/><rect x="13.135" y="3.000" width="0.400" height="2.000" rx="0.000" fill="#c79b5c"/><rect x="13.135" y="-5.000" width="0.400" height="2.000" rx="0.000" fill="#c79b5c"/><rect x="13.770" y="3.000" width="0.400" height="2.000" rx="0.000" fill="#c79b5c"/><rect x="13.770" y="-5.000" width="0.400" height="2.000" rx="0.000" fill="#c79b5c"/><rect x="14.405" y="3.000" width="0.400" height="2.000" rx="0.000" fill="#c79b5c"/><rect x="14.405" y="-5.000" width="0.400" height="2.000" rx="0.000" fill="#c79b5c"/><rect x="15.040" y="3.000" width="0.400" height="2.000" rx="0.000" fill="#c79b5c"/><rect x="15.040" y="-5.000" width="0.400" height="2.000" rx="0.000" fill="#c79b5c"/><rect x="15.675" y="3.000" width="0.400" height="2.000" rx="0.000" fill="#c79b5c"/><rect x="15.675" y="-5.000" width="0.400" height="2.000" rx="0.000" fill="#c79b5c"/><rect x="16.310" y="3.000" width="0.400" height="2.000" rx="0.000" fill="#c79b5c"/><rect x="16.310" y="-5.000" width="0.400" height="2.000" rx="0.000" fill="#c79b5c"/><rect x="16.945" y="3.000" width="0.400" height="2.000" rx="0.000" fill="#c79b5c"/><rect x="16.945" y="-5.000" width="0.400" height="2.000" rx="0.000" fill="#c79b5c"/></svg>