<svg xmlns="http://www.w3.org/2000/svg" viewBox="-21.10 -7.25 42.53 13.58" preserveAspectRatio="xMidYMid meet" style="width:100%;height:100%"><rect x="-21.10" y="-7.25" width="42.53" height="13.58" fill="#12151c"/><circle cx="20.175" cy="-6.000" r="0.125" fill="none" stroke="#e6e9ef" stroke-width="0.12" opacity="1"/><circle cx="20.175" cy="-6.000" r="0.250" fill="none" stroke="#6b7280" stroke-width="0.12" opacity="0.8"/><circle cx="-19.500" cy="0.000" r="0.250" fill="none" stroke="#6b7280" stroke-width="0.1"/><circle cx="19.500" cy="0.000" r="0.250" fill="none" stroke="#6b7280" stroke-width="0.1"/><rect x="19.195" y="-5.330" width="0.610" height="3.550" rx="0.000" fill="#c79b5c"/><rect x="19.195" y="1.780" width="0.610" height="3.550" rx="0.000" fill="#c79b5c"/><rect x="18.195" y="-5.330" width="0.610" height="3.550" rx="0.000" fill="#c79b5c"/><rect x="18.195" y="1.780" width="0.610" height="3.550" rx="0.000" fill="#c79b5c"/><rect x="17.195" y="-5.330" width="0.610" height="3.550" rx="0.000" fill="#c79b5c"/><rect x="17.195" y="1.780" width="0.610" height="3.550" rx="0.000" fill="#c79b5c"/><rect x="16.195" y="-5.330" width="0.610" height="3.550" rx="0.000" fill="#c79b5c"/><rect x="16.195" y="1.780" width="0.610" height="3.550" rx="0.000" fill="#c79b5c"/><rect x="15.195" y="-5.330" width="0.610" height="3.550" rx="0.000" fill="#c79b5c"/><rect x="15.195" y="1.780" width="0.610" height="3.550" rx="0.000" fill="#c79b5c"/><rect x="14.195" y="-5.330" width="0.610" height="3.550" rx="0.000" fill="#c79b5c"/><rect x="14.195" y="1.780" width="0.610" height="3.550" rx="0.000" fill="#c79b5c"/><rect x="13.195" y="-5.330" width="0.610" height="3.550" rx="0.000" fill="#c79b5c"/><rect x="13.195" y="1.780" width="0.610" height="3.550" rx="0.000" fill="#c79b5c"/><rect x="12.195" y="-5.330" width="0.610" height="3.550" rx="0.000" fill="#c79b5c"/><rect x="12.195" y="1.780" width="0.610" height="3.550" rx="0.000" fill="#c79b5c"/><rect x="11.195" y="-5.330" width="0.610" height="3.550" rx="0.000" fill="#c79b5c"/><rect x="11.195" y="1.780" width="0.610" height="3.550" rx="0.000" fill="#c79b5c"/><rect x="10.195" y="-5.330" width="0.610" height="3.550" rx="0.000" fill="#c79b5c"/><rect x="10.195" y="1.780" width="0.610" height="3.550" rx="0.000" fill="#c79b5c"/><rect x="9.195" y="-5.330" width="0.610" height="3.550" rx="0.000" fill="#c79b5c"/><rect x="9.195" y="1.780" width="0.610" height="3.550" rx="0.000" fill="#c79b5c"/><rect x="8.195" y="-5.330" width="0.610" height="3.550" rx="0.000" fill="#c79b5c"/><rect x="8.195" y="1.780" width="0.610" height="3.550" rx="0.000" fill="#c79b5c"/><rect x="7.195" y="-5.330" width="0.610" height="3.550" rx="0.000" fill="#c79b5c"/><rect x="7.195" y="1.780" width="0.610" height="3.550" rx="0.000" fill="#c79b5c"/><rect x="6.195" y="-5.330" width="0.610" height="3.550" rx="0.000" fill="#c79b5c"/><rect x="6.195" y="1.780" width="0.610" height="3.550" rx="0.000" fill="#c79b5c"/><rect x="5.195" y="-5.330" width="0.610" height="3.550" rx="0.000" fill="#c79b5c"/><rect x="5.195" y="1.780" width="0.610" height="3.550" rx="0.000" fill="#c79b5c"/><rect x="4.195" y="-5.330" width="0.610" height="3.550" rx="0.000" fill="#c79b5c"/><rect x="4.195" y="1.780" width="0.610" height="3.550" rx="0.000" fill="#c79b5c"/><rect x="3.195" y="-5.330" width="0.610" height="3.550" rx="0.000" fill="#c79b5c"/><rect x="3.195" y="1.780" width="0.610" height="3.550" rx="0.000" fill="#c79b5c"/><rect x="2.195" y="-5.330" width="0.610" height="3.550" rx="0.000" fill="#c79b5c"/><rect x="2.195" y="1.780" width="0.610" height="3.550" rx="0.000" fill="#c79b5c"/><rect x="1.195" y="-5.330" width="0.610" height="3.550" rx="0.000" fill="#c79b5c"/><rect x="1.195" y="1.780" width="0.610" height="3.550" rx="0.000" fill="#c79b5c"/><rect x="0.195" y="-5.330" width="0.610" height="3.550" rx="0.000" fill="#c79b5c"/><rect x="0.195" y="1.780" width="0.610" height="3.550" rx="0.000" fill="#c79b5c"/><rect x="-0.805" y="-5.330" width="0.610" height="3.550" rx="0.000" fill="#c79b5c"/><rect x="-0.805" y="1.780" width="0.610" height="3.550" rx="0.000" fill="#c79b5c"/><rect x="-1.805" y="-5.330" width="0.610" height="3.550" rx="0.000" fill="#c79b5c"/><rect x="-1.805" y="1.780" width="0.610" height="3.550" rx="0.000" fill="#c79b5c"/><rect x="-2.805" y="-5.330" width="0.610" height="3.550" rx="0.000" fill="#c79b5c"/><rect x="-2.805" y="1.780" width="0.610" height="3.550" rx="0.000" fill="#c79b5c"/><rect x="-3.805" y="-5.330" width="0.610" height="3.550" rx="0.000" fill="#c79b5c"/><rect x="-3.805" y="1.780" width="0.610" height="3.550" rx="0.000" fill="#c79b5c"/><rect x="-4.805" y="-5.330" width="0.610" height="3.550" rx="0.000" fill="#c79b5c"/><rect x="-4.805" y="1.780" width="0.610" height="3.550" rx="0.000" fill="#c79b5c"/><rect x="-5.805" y="-5.330" width="0.610" height="3.550" rx="0.000" fill="#c79b5c"/><rect x="-5.805" y="1.780" width="0.610" height="3.550" rx="0.000" fill="#c79b5c"/><rect x="-6.805" y="-5.330" width="0.610" height="3.550" rx="0.000" fill="#c79b5c"/><rect x="-6.805" y="1.780" width="0.610" height="3.550" rx="0.000" fill="#c79b5c"/><rect x="-7.805" y="-5.330" width="0.610" height="3.550" rx="0.000" fill="#c79b5c"/><rect x="-7.805" y="1.780" width="0.610" height="3.550" rx="0.000" fill="#c79b5c"/><rect x="-8.805" y="-5.330" width="0.610" height="3.550" rx="0.000" fill="#c79b5c"/><rect x="-8.805" y="1.780" width="0.610" height="3.550" rx="0.000" fill="#c79b5c"/><rect x="-9.805" y="-5.330" width="0.610" height="3.550" rx="0.000" fill="#c79b5c"/><rect x="-9.805" y="1.780" width="0.610" height="3.550" rx="0.000" fill="#c79b5c"/><rect x="-10.805" y="-5.330" width="0.610" height="3.550" rx="0.000" fill="#c79b5c"/><rect x="-10.805" y="1.780" width="0.610" height="3.550" rx="0.000" fill="#c79b5c"/><rect x="-11.805" y="-5.330" width="0.610" height="3.550" rx="0.000" fill="#c79b5c"/><rect x="-11.805" y="1.780" width="0.610" height="3.550" rx="0.000" fill="#c79b5c"/><rect x="-12.805" y="-5.330" width="0.610" height="3.550" rx="0.000" fill="#c79b5c"/><rect x="-12.805" y="1.780" width="0.610" height="3.550" rx="0.000" fill="#c79b5c"/><rect x="-13.805" y="-5.330" width="0.610" height="3.550" rx="0.000" fill="#c79b5c"/><rect x="-13.805" y="1.780" width="0.610" height="3.550" rx="0.000" fill="#c79b5c"/><rect x="-14.805" y="-5.330" width="0.610" height="3.550" rx="0.000" fill="#c79b5c"/><rect x="-14.805" y="1.780" width="0.610" height="3.550" rx="0.000" fill="#c79b5c"/><rect x="-15.805" y="-5.330" width="0.610" height="3.550" rx="0.000" fill="#c79b5c"/><rect x="-15.805" y="1.780" width="0.610" height="3.550" rx="0.000" fill="#c79b5c"/><rect x="-16.805" y="-5.330" width="0.610" height="3.550" rx="0.000" fill="#c79b5c"/><rect x="-16.805" y="1.780" width="0.610" height="3.550" rx="0.000" fill="#c79b5c"/><rect x="-17.805" y="-5.330" width="0.610" height="3.550" rx="0.000" fill="#c79b5c"/><rect x="-17.805" y="1.780" width="0.610" height="3.550" rx="0.000" fill="#c79b5c"/><rect x="-18.805" y="-5.330" width="0.610" height="3.550" rx="0.000" fill="#c79b5c"/><rect x="-18.805" y="1.780" width="0.610" height="3.550" rx="0.000" fill="#c79b5c"/><rect x="-19.805" y="-5.330" width="0.610" height="3.550" rx="0.000" fill="#c79b5c"/><rect x="-19.805" y="1.780" width="0.610" height="3.550" rx="0.000" fill="#c79b5c"/></svg>