<svg xmlns="http://www.w3.org/2000/svg" viewBox="-29.39 -13.84 58.78 17.75" preserveAspectRatio="xMidYMid meet" style="width:100%;height:100%"><rect x="-29.39" y="-13.84" width="58.78" height="17.75" fill="#12151c"/><line x1="-28.390" y1="-12.840" x2="28.390" y2="-12.840" stroke="#d24d4d" stroke-width="0.080" stroke-linecap="round" opacity="0.7"/><line x1="28.390" y1="-12.840" x2="28.390" y2="2.320" stroke="#d24d4d" stroke-width="0.080" stroke-linecap="round" opacity="0.7"/><line x1="28.390" y1="2.320" x2="-28.390" y2="2.320" stroke="#d24d4d" stroke-width="0.080" stroke-linecap="round" opacity="0.7"/><line x1="-28.390" y1="2.320" x2="-28.390" y2="-12.840" stroke="#d24d4d" stroke-width="0.080" stroke-linecap="round" opacity="0.7"/><path d="M -24.130 -4.462 A 1.270 1.270 0 0 1 -22.860 -3.192" fill="none" stroke="#e6e9ef" stroke-width="0.12" opacity="1"/><path d="M -23.095 -5.351 A 2.500 2.500 0 0 1 -23.876 -6.875" fill="none" stroke="#e6e9ef" stroke-width="0.12" opacity="1"/><path d="M 22.860 -3.192 A 1.270 1.270 0 0 1 24.130 -4.462" fill="none" stroke="#e6e9ef" stroke-width="0.12" opacity="1"/><path d="M 23.876 -6.875 A 2.500 2.500 0 0 1 23.095 -5.351" fill="none" stroke="#e6e9ef" stroke-width="0.12" opacity="1"/><path d="M -24.130 -4.462 A 1.270 1.270 0 0 1 -22.860 -3.192" fill="none" stroke="#6b7280" stroke-width="0.12" opacity="0.8"/><path d="M -23.095 -5.351 A 2.500 2.500 0 0 1 -23.876 -6.875" fill="none" stroke="#6b7280" stroke-width="0.12" opacity="0.8"/><path d="M 22.860 -3.192 A 1.270 1.270 0 0 1 24.130 -4.462" fill="none" stroke="#6b7280" stroke-width="0.12" opacity="0.8"/><path d="M 23.876 -6.875 A 2.500 2.500 0 0 1 23.095 -5.351" fill="none" stroke="#6b7280" stroke-width="0.12" opacity="0.8"/><circle cx="20.320" cy="2.756" r="0.150" fill="none" stroke="#e6e9ef" stroke-width="0.12" opacity="1"/><circle cx="-25.390" cy="-1.270" r="1.270" fill="none" stroke="#6b7280" stroke-width="0.12" opacity="0.8"/><circle cx="20.320" cy="2.756" r="0.150" fill="none" stroke="#6b7280" stroke-width="0.12" opacity="0.8"/><circle cx="25.390" cy="-1.270" r="1.270" fill="none" stroke="#6b7280" stroke-width="0.12" opacity="0.8"/><rect x="19.520" y="0.470" width="1.600" height="1.600" rx="0.800" fill="#c79b5c"/><circle cx="20.320" cy="1.270" r="0.450" fill="#12151c"/><rect x="19.520" y="-2.070" width="1.600" height="1.600" rx="0.800" fill="#c79b5c"/><circle cx="20.320" cy="-1.270" r="0.450" fill="#12151c"/><rect x="16.980" y="0.470" width="1.600" height="1.600" rx="0.800" fill="#c79b5c"/><circle cx="17.780" cy="1.270" r="0.450" fill="#12151c"/><rect x="16.980" y="-2.070" width="1.600" height="1.600" rx="0.800" fill="#c79b5c"/><circle cx="17.780" cy="-1.270" r="0.450" fill="#12151c"/><rect x="14.440" y="0.470" width="1.600" height="1.600" rx="0.800" fill="#c79b5c"/><circle cx="15.240" cy="1.270" r="0.450" fill="#12151c"/><rect x="14.440" y="-2.070" width="1.600" height="1.600" rx="0.800" fill="#c79b5c"/><circle cx="15.240" cy="-1.270" r="0.450" fill="#12151c"/><rect x="11.900" y="0.470" width="1.600" height="1.600" rx="0.800" fill="#c79b5c"/><circle cx="12.700" cy="1.270" r="0.450" fill="#12151c"/><rect x="11.900" y="-2.070" width="1.600" height="1.600" rx="0.800" fill="#c79b5c"/><circle cx="12.700" cy="-1.270" r="0.450" fill="#12151c"/><rect x="9.360" y="0.470" width="1.600" height="1.600" rx="0.800" fill="#c79b5c"/><circle cx="10.160" cy="1.270" r="0.450" fill="#12151c"/><rect x="9.360" y="-2.070" width="1.600" height="1.600" rx="0.800" fill="#c79b5c"/><circle cx="10.160" cy="-1.270" r="0.450" fill="#12151c"/><rect x="6.820" y="0.470" width="1.600" height="1.600" rx="0.800" fill="#c79b5c"/><circle cx="7.620" cy="1.270" r="0.450" fill="#12151c"/><rect x="6.820" y="-2.070" width="1.600" height="1.600" rx="0.800" fill="#c79b5c"/><circle cx="7.620" cy="-1.270" r="0.450" fill="#12151c"/><rect x="4.280" y="0.470" width="1.600" height="1.600" rx="0.800" fill="#c79b5c"/><circle cx="5.080" cy="1.270" r="0.450" fill="#12151c"/><rect x="4.280" y="-2.070" width="1.600" height="1.600" rx="0.800" fill="#c79b5c"/><circle cx="5.080" cy="-1.270" r="0.450" fill="#12151c"/><rect x="1.740" y="0.470" width="1.600" height="1.600" rx="0.800" fill="#c79b5c"/><circle cx="2.540" cy="1.270" r="0.450" fill="#12151c"/><rect x="1.740" y="-2.070" width="1.600" height="1.600" rx="0.800" fill="#c79b5c"/><circle cx="2.540" cy="-1.270" r="0.450" fill="#12151c"/><rect x="-0.800" y="0.470" width="1.600" height="1.600" rx="0.800" fill="#c79b5c"/><circle cx="0.000" cy="1.270" r="0.450" fill="#12151c"/><rect x="-0.800" y="-2.070" width="1.600" height="1.600" rx="0.800" fill="#c79b5c"/><circle cx="0.000" cy="-1.270" r="0.450" fill="#12151c"/><rect x="-3.340" y="0.470" width="1.600" height="1.600" rx="0.800" fill="#c79b5c"/><circle cx="-2.540" cy="1.270" r="0.450" fill="#12151c"/><rect x="-3.340" y="-2.070" width="1.600" height="1.600" rx="0.800" fill="#c79b5c"/><circle cx="-2.540" cy="-1.270" r="0.450" fill="#12151c"/><rect x="-5.880" y="0.470" width="1.600" height="1.600" rx="0.800" fill="#c79b5c"/><circle cx="-5.080" cy="1.270" r="0.450" fill="#12151c"/><rect x="-5.880" y="-2.070" width="1.600" height="1.600" rx="0.800" fill="#c79b5c"/><circle cx="-5.080" cy="-1.270" r="0.450" fill="#12151c"/><rect x="-8.420" y="0.470" width="1.600" height="1.600" rx="0.800" fill="#c79b5c"/><circle cx="-7.620" cy="1.270" r="0.450" fill="#12151c"/><rect x="-8.420" y="-2.070" width="1.600" height="1.600" rx="0.800" fill="#c79b5c"/><circle cx="-7.620" cy="-1.270" r="0.450" fill="#12151c"/><rect x="-10.960" y="0.470" width="1.600" height="1.600" rx="0.800" fill="#c79b5c"/><circle cx="-10.160" cy="1.270" r="0.450" fill="#12151c"/><rect x="-10.960" y="-2.070" width="1.600" height="1.600" rx="0.800" fill="#c79b5c"/><circle cx="-10.160" cy="-1.270" r="0.450" fill="#12151c"/><rect x="-13.500" y="0.470" width="1.600" height="1.600" rx="0.800" fill="#c79b5c"/><circle cx="-12.700" cy="1.270" r="0.450" fill="#12151c"/><rect x="-13.500" y="-2.070" width="1.600" height="1.600" rx="0.800" fill="#c79b5c"/><circle cx="-12.700" cy="-1.270" r="0.450" fill="#12151c"/><rect x="-16.040" y="0.470" width="1.600" height="1.600" rx="0.800" fill="#c79b5c"/><circle cx="-15.240" cy="1.270" r="0.450" fill="#12151c"/><rect x="-16.040" y="-2.070" width="1.600" height="1.600" rx="0.800" fill="#c79b5c"/><circle cx="-15.240" cy="-1.270" r="0.450" fill="#12151c"/><rect x="-18.580" y="0.470" width="1.600" height="1.600" rx="0.800" fill="#c79b5c"/><circle cx="-17.780" cy="1.270" r="0.450" fill="#12151c"/><rect x="-18.580" y="-2.070" width="1.600" height="1.600" rx="0.800" fill="#c79b5c"/><circle cx="-17.780" cy="-1.270" r="0.450" fill="#12151c"/><rect x="-21.120" y="0.470" width="1.600" height="1.600" rx="0.800" fill="#c79b5c"/><circle cx="-20.320" cy="1.270" r="0.450" fill="#12151c"/><rect x="-21.120" y="-2.070" width="1.600" height="1.600" rx="0.800" fill="#c79b5c"/><circle cx="-20.320" cy="-1.270" r="0.450" fill="#12151c"/><rect x="-28.140" y="-4.020" width="5.500" height="5.500" rx="2.750" fill="#c79b5c"/><circle cx="-25.390" cy="-1.270" r="1.300" fill="#12151c"/><rect x="22.640" y="-4.020" width="5.500" height="5.500" rx="2.750" fill="#c79b5c"/><circle cx="25.390" cy="-1.270" r="1.300" fill="#12151c"/></svg>