<svg xmlns="http://www.w3.org/2000/svg" viewBox="-10.35 -6.45 20.70 12.90" preserveAspectRatio="xMidYMid meet" style="width:100%;height:100%"><rect x="-10.35" y="-6.45" width="20.70" height="12.90" fill="#12151c"/><line x1="-6.900" y1="-5.150" x2="6.900" y2="-5.150" stroke="#e6e9ef" stroke-width="0.200" stroke-linecap="round" opacity="1"/><line x1="-6.900" y1="5.150" x2="-6.900" y2="-5.150" stroke="#e6e9ef" stroke-width="0.200" stroke-linecap="round" opacity="1"/><line x1="-6.900" y1="5.150" x2="6.900" y2="5.150" stroke="#e6e9ef" stroke-width="0.200" stroke-linecap="round" opacity="1"/><line x1="6.900" y1="5.150" x2="6.900" y2="-5.150" stroke="#e6e9ef" stroke-width="0.200" stroke-linecap="round" opacity="1"/><line x1="-9.350" y1="-5.450" x2="9.350" y2="-5.450" stroke="#d24d4d" stroke-width="0.080" stroke-linecap="round" opacity="0.7"/><line x1="-9.350" y1="5.450" x2="-9.350" y2="-5.450" stroke="#d24d4d" stroke-width="0.080" stroke-linecap="round" opacity="0.7"/><line x1="-9.350" y1="5.450" x2="9.350" y2="5.450" stroke="#d24d4d" stroke-width="0.080" stroke-linecap="round" opacity="0.7"/><line x1="9.350" y1="5.450" x2="9.350" y2="-5.450" stroke="#d24d4d" stroke-width="0.080" stroke-linecap="round" opacity="0.7"/><line x1="-7.000" y1="-5.150" x2="7.000" y2="-5.150" stroke="#6b7280" stroke-width="0.100" stroke-linecap="round" opacity="0.8"/><line x1="-7.000" y1="5.150" x2="-7.000" y2="-5.150" stroke="#6b7280" stroke-width="0.100" stroke-linecap="round" opacity="0.8"/><line x1="-7.000" y1="5.150" x2="7.000" y2="5.150" stroke="#6b7280" stroke-width="0.100" stroke-linecap="round" opacity="0.8"/><line x1="7.000" y1="5.150" x2="7.000" y2="-5.150" stroke="#6b7280" stroke-width="0.100" stroke-linecap="round" opacity="0.8"/><circle cx="-8.800" cy="-5.250" r="0.125" fill="none" stroke="#e6e9ef" stroke-width="0.12" opacity="1"/><circle cx="-5.900" cy="-4.150" r="0.250" fill="none" stroke="#e6e9ef" stroke-width="0.12" opacity="1"/><circle cx="-6.000" cy="-4.150" r="0.500" fill="none" stroke="#6b7280" stroke-width="0.12" opacity="0.8"/><rect x="-9.075" y="-4.745" width="1.850" height="0.600" rx="0.000" fill="#c79b5c"/><rect x="-9.075" y="-3.475" width="1.850" height="0.600" rx="0.000" fill="#c79b5c"/><rect x="-9.075" y="-2.205" width="1.850" height="0.600" rx="0.000" fill="#c79b5c"/><rect x="-9.075" y="-0.935" width="1.850" height="0.600" rx="0.000" fill="#c79b5c"/><rect x="-9.075" y="0.335" width="1.850" height="0.600" rx="0.000" fill="#c79b5c"/><rect x="-9.075" y="1.605" width="1.850" height="0.600" rx="0.000" fill="#c79b5c"/><rect x="-9.075" y="2.875" width="1.850" height="0.600" rx="0.000" fill="#c79b5c"/><rect x="-9.075" y="4.145" width="1.850" height="0.600" rx="0.000" fill="#c79b5c"/><rect x="7.225" y="4.145" width="1.850" height="0.600" rx="0.000" fill="#c79b5c"/><rect x="7.225" y="2.875" width="1.850" height="0.600" rx="0.000" fill="#c79b5c"/><rect x="7.225" y="1.605" width="1.850" height="0.600" rx="0.000" fill="#c79b5c"/><rect x="7.225" y="0.335" width="1.850" height="0.600" rx="0.000" fill="#c79b5c"/><rect x="7.225" y="-0.935" width="1.850" height="0.600" rx="0.000" fill="#c79b5c"/><rect x="7.225" y="-2.205" width="1.850" height="0.600" rx="0.000" fill="#c79b5c"/><rect x="7.225" y="-3.475" width="1.850" height="0.600" rx="0.000" fill="#c79b5c"/><rect x="7.225" y="-4.745" width="1.850" height="0.600" rx="0.000" fill="#c79b5c"/></svg>