<svg xmlns="http://www.w3.org/2000/svg" viewBox="-12.49 -5.75 24.45 11.50" preserveAspectRatio="xMidYMid meet" style="width:100%;height:100%"><rect x="-12.49" y="-5.75" width="24.45" height="11.50" fill="#12151c"/><circle cx="-10.100" cy="4.500" r="0.125" fill="none" stroke="#e6e9ef" stroke-width="0.12" opacity="1"/><circle cx="-10.710" cy="1.500" r="0.250" fill="none" stroke="#6b7280" stroke-width="0.1"/><circle cx="10.710" cy="0.000" r="0.250" fill="none" stroke="#6b7280" stroke-width="0.1"/><rect x="-9.407" y="2.950" width="0.400" height="1.800" rx="0.000" fill="#c79b5c"/><rect x="-9.407" y="-4.750" width="0.400" height="1.800" rx="0.000" fill="#c79b5c"/><rect x="-8.772" y="2.950" width="0.400" height="1.800" rx="0.000" fill="#c79b5c"/><rect x="-8.772" y="-4.750" width="0.400" height="1.800" rx="0.000" fill="#c79b5c"/><rect x="-8.137" y="2.950" width="0.400" height="1.800" rx="0.000" fill="#c79b5c"/><rect x="-8.137" y="-4.750" width="0.400" height="1.800" rx="0.000" fill="#c79b5c"/><rect x="-7.503" y="2.950" width="0.400" height="1.800" rx="0.000" fill="#c79b5c"/><rect x="-7.503" y="-4.750" width="0.400" height="1.800" rx="0.000" fill="#c79b5c"/><rect x="-6.868" y="2.950" width="0.400" height="1.800" rx="0.000" fill="#c79b5c"/><rect x="-6.868" y="-4.750" width="0.400" height="1.800" rx="0.000" fill="#c79b5c"/><rect x="-6.232" y="2.950" width="0.400" height="1.800" rx="0.000" fill="#c79b5c"/><rect x="-6.232" y="-4.750" width="0.400" height="1.800" rx="0.000" fill="#c79b5c"/><rect x="-5.598" y="2.950" width="0.400" height="1.800" rx="0.000" fill="#c79b5c"/><rect x="-5.598" y="-4.750" width="0.400" height="1.800" rx="0.000" fill="#c79b5c"/><rect x="-4.963" y="2.950" width="0.400" height="1.800" rx="0.000" fill="#c79b5c"/><rect x="-4.963" y="-4.750" width="0.400" height="1.800" rx="0.000" fill="#c79b5c"/><rect x="-4.328" y="2.950" width="0.400" height="1.800" rx="0.000" fill="#c79b5c"/><rect x="-4.328" y="-4.750" width="0.400" height="1.800" rx="0.000" fill="#c79b5c"/><rect x="-3.693" y="2.950" width="0.400" height="1.800" rx="0.000" fill="#c79b5c"/><rect x="-3.693" y="-4.750" width="0.400" height="1.800" rx="0.000" fill="#c79b5c"/><rect x="-3.058" y="2.950" width="0.400" height="1.800" rx="0.000" fill="#c79b5c"/><rect x="-3.058" y="-4.750" width="0.400" height="1.800" rx="0.000" fill="#c79b5c"/><rect x="-2.423" y="2.950" width="0.400" height="1.800" rx="0.000" fill="#c79b5c"/><rect x="-2.423" y="-4.750" width="0.400" height="1.800" rx="0.000" fill="#c79b5c"/><rect x="-1.787" y="2.950" width="0.400" height="1.800" rx="0.000" fill="#c79b5c"/><rect x="-1.787" y="-4.750" width="0.400" height="1.800" rx="0.000" fill="#c79b5c"/><rect x="-1.153" y="2.950" width="0.400" height="1.800" rx="0.000" fill="#c79b5c"/><rect x="-1.153" y="-4.750" width="0.400" height="1.800" rx="0.000" fill="#c79b5c"/><rect x="-0.518" y="2.950" width="0.400" height="1.800" rx="0.000" fill="#c79b5c"/><rect x="-0.518" y="-4.750" width="0.400" height="1.800" rx="0.000" fill="#c79b5c"/><rect x="0.117" y="2.950" width="0.400" height="1.800" rx="0.000" fill="#c79b5c"/><rect x="0.117" y="-4.750" width="0.400" height="1.800" rx="0.000" fill="#c79b5c"/><rect x="0.752" y="2.950" width="0.400" height="1.800" rx="0.000" fill="#c79b5c"/><rect x="0.752" y="-4.750" width="0.400" height="1.800" rx="0.000" fill="#c79b5c"/><rect x="1.387" y="2.950" width="0.400" height="1.800" rx="0.000" fill="#c79b5c"/><rect x="1.387" y="-4.750" width="0.400" height="1.800" rx="0.000" fill="#c79b5c"/><rect x="2.022" y="2.950" width="0.400" height="1.800" rx="0.000" fill="#c79b5c"/><rect x="2.022" y="-4.750" width="0.400" height="1.800" rx="0.000" fill="#c79b5c"/><rect x="2.657" y="2.950" width="0.400" height="1.800" rx="0.000" fill="#c79b5c"/><rect x="2.657" y="-4.750" width="0.400" height="1.800" rx="0.000" fill="#c79b5c"/><rect x="3.292" y="2.950" width="0.400" height="1.800" rx="0.000" fill="#c79b5c"/><rect x="3.292" y="-4.750" width="0.400" height="1.800" rx="0.000" fill="#c79b5c"/><rect x="3.928" y="2.950" width="0.400" height="1.800" rx="0.000" fill="#c79b5c"/><rect x="3.928" y="-4.750" width="0.400" height="1.800" rx="0.000" fill="#c79b5c"/><rect x="4.562" y="2.950" width="0.400" height="1.800" rx="0.000" fill="#c79b5c"/><rect x="4.562" y="-4.750" width="0.400" height="1.800" rx="0.000" fill="#c79b5c"/><rect x="5.197" y="2.950" width="0.400" height="1.800" rx="0.000" fill="#c79b5c"/><rect x="5.197" y="-4.750" width="0.400" height="1.800" rx="0.000" fill="#c79b5c"/><rect x="5.832" y="2.950" width="0.400" height="1.800" rx="0.000" fill="#c79b5c"/><rect x="5.832" y="-4.750" width="0.400" height="1.800" rx="0.000" fill="#c79b5c"/><rect x="6.468" y="2.950" width="0.400" height="1.800" rx="0.000" fill="#c79b5c"/><rect x="6.468" y="-4.750" width="0.400" height="1.800" rx="0.000" fill="#c79b5c"/><rect x="7.103" y="2.950" width="0.400" height="1.800" rx="0.000" fill="#c79b5c"/><rect x="7.103" y="-4.750" width="0.400" height="1.800" rx="0.000" fill="#c79b5c"/><rect x="7.737" y="2.950" width="0.400" height="1.800" rx="0.000" fill="#c79b5c"/><rect x="7.737" y="-4.750" width="0.400" height="1.800" rx="0.000" fill="#c79b5c"/><rect x="8.373" y="2.950" width="0.400" height="1.800" rx="0.000" fill="#c79b5c"/><rect x="8.373" y="-4.750" width="0.400" height="1.800" rx="0.000" fill="#c79b5c"/><rect x="9.008" y="2.950" width="0.400" height="1.800" rx="0.000" fill="#c79b5c"/><rect x="9.008" y="-4.750" width="0.400" height="1.800" rx="0.000" fill="#c79b5c"/></svg>