<svg xmlns="http://www.w3.org/2000/svg" viewBox="-10.39 -14.20 18.24 33.48" preserveAspectRatio="xMidYMid meet" style="width:100%;height:100%"><rect x="-10.39" y="-14.20" width="18.24" height="33.48" fill="#12151c"/><rect x="-6.350" y="-12.700" width="12.700" height="27.940" fill="#1e222b" stroke="#4ea1ff" stroke-width="0.25"/><line x1="-8.890" y1="-10.160" x2="-6.350" y2="-10.160" stroke="#e6e9ef" stroke-width="0.2"/><circle cx="-8.890" cy="-10.160" r="0.4" fill="#4ea1ff"/><text x="-5.850" y="-9.810" fill="#e6e9ef" font-size="1.1" text-anchor="start" font-family="sans-serif">DAT2</text><text x="-6.650" y="-10.510" fill="#9aa3b2" font-size="0.9" text-anchor="end" font-family="sans-serif">1</text><line x1="-8.890" y1="-7.620" x2="-6.350" y2="-7.620" stroke="#e6e9ef" stroke-width="0.2"/><circle cx="-8.890" cy="-7.620" r="0.4" fill="#4ea1ff"/><text x="-5.850" y="-7.270" fill="#e6e9ef" font-size="1.1" text-anchor="start" font-family="sans-serif">CD/DAT3</text><text x="-6.650" y="-7.970" fill="#9aa3b2" font-size="0.9" text-anchor="end" font-family="sans-serif">2</text><line x1="-8.890" y1="-5.080" x2="-6.350" y2="-5.080" stroke="#e6e9ef" stroke-width="0.2"/><circle cx="-8.890" cy="-5.080" r="0.4" fill="#4ea1ff"/><text x="-5.850" y="-4.730" fill="#e6e9ef" font-size="1.1" text-anchor="start" font-family="sans-serif">CMD</text><text x="-6.650" y="-5.430" fill="#9aa3b2" font-size="0.9" text-anchor="end" font-family="sans-serif">3</text><line x1="-8.890" y1="-2.540" x2="-6.350" y2="-2.540" stroke="#e6e9ef" stroke-width="0.2"/><circle cx="-8.890" cy="-2.540" r="0.4" fill="#4ea1ff"/><text x="-5.850" y="-2.190" fill="#e6e9ef" font-size="1.1" text-anchor="start" font-family="sans-serif">VDD</text><text x="-6.650" y="-2.890" fill="#9aa3b2" font-size="0.9" text-anchor="end" font-family="sans-serif">4</text><line x1="-8.890" y1="-0.000" x2="-6.350" y2="-0.000" stroke="#e6e9ef" stroke-width="0.2"/><circle cx="-8.890" cy="-0.000" r="0.4" fill="#4ea1ff"/><text x="-5.850" y="0.350" fill="#e6e9ef" font-size="1.1" text-anchor="start" font-family="sans-serif">CLK</text><text x="-6.650" y="-0.350" fill="#9aa3b2" font-size="0.9" text-anchor="end" font-family="sans-serif">5</text><line x1="-8.890" y1="2.540" x2="-6.350" y2="2.540" stroke="#e6e9ef" stroke-width="0.2"/><circle cx="-8.890" cy="2.540" r="0.4" fill="#4ea1ff"/><text x="-5.850" y="2.890" fill="#e6e9ef" font-size="1.1" text-anchor="start" font-family="sans-serif">VSS</text><text x="-6.650" y="2.190" fill="#9aa3b2" font-size="0.9" text-anchor="end" font-family="sans-serif">6</text><line x1="-8.890" y1="5.080" x2="-6.350" y2="5.080" stroke="#e6e9ef" stroke-width="0.2"/><circle cx="-8.890" cy="5.080" r="0.4" fill="#4ea1ff"/><text x="-5.850" y="5.430" fill="#e6e9ef" font-size="1.1" text-anchor="start" font-family="sans-serif">DAT0</text><text x="-6.650" y="4.730" fill="#9aa3b2" font-size="0.9" text-anchor="end" font-family="sans-serif">7</text><line x1="-8.890" y1="7.620" x2="-6.350" y2="7.620" stroke="#e6e9ef" stroke-width="0.2"/><circle cx="-8.890" cy="7.620" r="0.4" fill="#4ea1ff"/><text x="-5.850" y="7.970" fill="#e6e9ef" font-size="1.1" text-anchor="start" font-family="sans-serif">DAT1</text><text x="-6.650" y="7.270" fill="#9aa3b2" font-size="0.9" text-anchor="end" font-family="sans-serif">8</text><line x1="-8.890" y1="10.160" x2="-6.350" y2="10.160" stroke="#e6e9ef" stroke-width="0.2"/><circle cx="-8.890" cy="10.160" r="0.4" fill="#4ea1ff"/><text x="-5.850" y="10.510" fill="#e6e9ef" font-size="1.1" text-anchor="start" font-family="sans-serif">DET</text><text x="-6.650" y="9.810" fill="#9aa3b2" font-size="0.9" text-anchor="end" font-family="sans-serif">9</text><line x1="0.000" y1="17.780" x2="0.000" y2="15.240" stroke="#e6e9ef" stroke-width="0.2"/><circle cx="0.000" cy="17.780" r="0.4" fill="#4ea1ff"/><text x="0.000" y="14.640" fill="#e6e9ef" font-size="1.1" text-anchor="middle" font-family="sans-serif">Shield</text><text x="0.600" y="16.240" fill="#9aa3b2" font-size="0.9" text-anchor="start" font-family="sans-serif">SH</text></svg>