<svg xmlns="http://www.w3.org/2000/svg" viewBox="-2.03 -5.78 4.91 11.55" preserveAspectRatio="xMidYMid meet" style="width:100%;height:100%"><rect x="-2.03" y="-5.78" width="4.91" height="11.55" fill="#12151c"/><path d="M -1.000 -4.525 A 0.200 0.200 0 0 1 -0.800 -4.725" fill="none" stroke="#6b7280" stroke-width="0.12" opacity="0.8"/><path d="M -0.970 -4.445 A 0.120 0.120 0 0 1 -0.850 -4.565" fill="none" stroke="#6b7280" stroke-width="0.12" opacity="0.8"/><path d="M -0.880 -4.445 A 0.030 0.030 0 0 1 -0.850 -4.475" fill="none" stroke="#6b7280" stroke-width="0.12" opacity="0.8"/><path d="M -0.850 4.475 A 0.030 0.030 0 0 1 -0.880 4.445" fill="none" stroke="#6b7280" stroke-width="0.12" opacity="0.8"/><path d="M -0.850 4.565 A 0.120 0.120 0 0 1 -0.970 4.445" fill="none" stroke="#6b7280" stroke-width="0.12" opacity="0.8"/><path d="M -0.800 4.725 A 0.200 0.200 0 0 1 -1.000 4.525" fill="none" stroke="#6b7280" stroke-width="0.12" opacity="0.8"/><path d="M 0.800 -4.725 A 0.200 0.200 0 0 1 1.000 -4.525" fill="none" stroke="#6b7280" stroke-width="0.12" opacity="0.8"/><path d="M 0.850 -4.565 A 0.120 0.120 0 0 1 0.970 -4.445" fill="none" stroke="#6b7280" stroke-width="0.12" opacity="0.8"/><path d="M 0.850 -4.475 A 0.030 0.030 0 0 1 0.880 -4.445" fill="none" stroke="#6b7280" stroke-width="0.12" opacity="0.8"/><path d="M 0.880 4.445 A 0.030 0.030 0 0 1 0.850 4.475" fill="none" stroke="#6b7280" stroke-width="0.12" opacity="0.8"/><path d="M 0.970 4.445 A 0.120 0.120 0 0 1 0.850 4.565" fill="none" stroke="#6b7280" stroke-width="0.12" opacity="0.8"/><path d="M 1.000 4.525 A 0.200 0.200 0 0 1 0.800 4.725" fill="none" stroke="#6b7280" stroke-width="0.12" opacity="0.8"/><circle cx="1.754" cy="-3.325" r="0.125" fill="none" stroke="#e6e9ef" stroke-width="0.12" opacity="1"/><rect x="0.870" y="-3.505" width="0.160" height="0.360" rx="0.000" fill="#c79b5c"/><rect x="-1.030" y="-3.505" width="0.160" height="0.360" rx="0.000" fill="#c79b5c"/><rect x="0.870" y="-3.155" width="0.160" height="0.360" rx="0.000" fill="#c79b5c"/><rect x="-1.030" y="-3.155" width="0.160" height="0.360" rx="0.000" fill="#c79b5c"/><rect x="0.870" y="-2.805" width="0.160" height="0.360" rx="0.000" fill="#c79b5c"/><rect x="-1.030" y="-2.805" width="0.160" height="0.360" rx="0.000" fill="#c79b5c"/><rect x="0.870" y="-2.455" width="0.160" height="0.360" rx="0.000" fill="#c79b5c"/><rect x="-1.030" y="-2.455" width="0.160" height="0.360" rx="0.000" fill="#c79b5c"/><rect x="0.870" y="-2.105" width="0.160" height="0.360" rx="0.000" fill="#c79b5c"/><rect x="-1.030" y="-2.105" width="0.160" height="0.360" rx="0.000" fill="#c79b5c"/><rect x="0.870" y="-1.755" width="0.160" height="0.360" rx="0.000" fill="#c79b5c"/><rect x="-1.030" y="-1.755" width="0.160" height="0.360" rx="0.000" fill="#c79b5c"/><rect x="0.870" y="-1.405" width="0.160" height="0.360" rx="0.000" fill="#c79b5c"/><rect x="-1.030" y="-1.405" width="0.160" height="0.360" rx="0.000" fill="#c79b5c"/><rect x="0.870" y="-1.055" width="0.160" height="0.360" rx="0.000" fill="#c79b5c"/><rect x="-1.030" y="-1.055" width="0.160" height="0.360" rx="0.000" fill="#c79b5c"/><rect x="0.870" y="-0.705" width="0.160" height="0.360" rx="0.000" fill="#c79b5c"/><rect x="-1.030" y="-0.705" width="0.160" height="0.360" rx="0.000" fill="#c79b5c"/><rect x="0.870" y="-0.355" width="0.160" height="0.360" rx="0.000" fill="#c79b5c"/><rect x="-1.030" y="-0.355" width="0.160" height="0.360" rx="0.000" fill="#c79b5c"/><rect x="0.870" y="-0.005" width="0.160" height="0.360" rx="0.000" fill="#c79b5c"/><rect x="-1.030" y="-0.005" width="0.160" height="0.360" rx="0.000" fill="#c79b5c"/><rect x="0.870" y="0.345" width="0.160" height="0.360" rx="0.000" fill="#c79b5c"/><rect x="-1.030" y="0.345" width="0.160" height="0.360" rx="0.000" fill="#c79b5c"/><rect x="0.870" y="0.695" width="0.160" height="0.360" rx="0.000" fill="#c79b5c"/><rect x="-1.030" y="0.695" width="0.160" height="0.360" rx="0.000" fill="#c79b5c"/><rect x="0.870" y="1.045" width="0.160" height="0.360" rx="0.000" fill="#c79b5c"/><rect x="-1.030" y="1.045" width="0.160" height="0.360" rx="0.000" fill="#c79b5c"/><rect x="0.870" y="1.395" width="0.160" height="0.360" rx="0.000" fill="#c79b5c"/><rect x="-1.030" y="1.395" width="0.160" height="0.360" rx="0.000" fill="#c79b5c"/><rect x="0.870" y="1.745" width="0.160" height="0.360" rx="0.000" fill="#c79b5c"/><rect x="-1.030" y="1.745" width="0.160" height="0.360" rx="0.000" fill="#c79b5c"/><rect x="0.870" y="2.095" width="0.160" height="0.360" rx="0.000" fill="#c79b5c"/><rect x="-1.030" y="2.095" width="0.160" height="0.360" rx="0.000" fill="#c79b5c"/><rect x="0.870" y="2.445" width="0.160" height="0.360" rx="0.000" fill="#c79b5c"/><rect x="-1.030" y="2.445" width="0.160" height="0.360" rx="0.000" fill="#c79b5c"/><rect x="0.870" y="2.795" width="0.160" height="0.360" rx="0.000" fill="#c79b5c"/><rect x="-1.030" y="2.795" width="0.160" height="0.360" rx="0.000" fill="#c79b5c"/><rect x="0.870" y="3.145" width="0.160" height="0.360" rx="0.000" fill="#c79b5c"/><rect x="-1.030" y="3.145" width="0.160" height="0.360" rx="0.000" fill="#c79b5c"/><rect x="-0.660" y="-4.775" width="0.360" height="0.340" rx="0.000" fill="#c79b5c"/><rect x="0.300" y="-4.775" width="0.360" height="0.340" rx="0.000" fill="#c79b5c"/><rect x="-0.660" y="4.435" width="0.360" height="0.340" rx="0.000" fill="#c79b5c"/><rect x="0.300" y="4.435" width="0.360" height="0.340" rx="0.000" fill="#c79b5c"/></svg>