<svg xmlns="http://www.w3.org/2000/svg" viewBox="-17.50 -11.65 35.00 23.83" preserveAspectRatio="xMidYMid meet" style="width:100%;height:100%"><rect x="-17.50" y="-11.65" width="35.00" height="23.83" fill="#12151c"/><line x1="-16.250" y1="-10.400" x2="16.250" y2="-10.400" stroke="#e6e9ef" stroke-width="0.200" stroke-linecap="round" opacity="1"/><line x1="-16.250" y1="10.400" x2="-16.250" y2="-10.400" stroke="#e6e9ef" stroke-width="0.200" stroke-linecap="round" opacity="1"/><line x1="-16.250" y1="10.400" x2="16.250" y2="10.400" stroke="#e6e9ef" stroke-width="0.200" stroke-linecap="round" opacity="1"/><line x1="16.250" y1="10.400" x2="16.250" y2="-10.400" stroke="#e6e9ef" stroke-width="0.200" stroke-linecap="round" opacity="1"/><line x1="-11.930" y1="-7.620" x2="-11.430" y2="-7.620" stroke="#4a5160" stroke-width="0.100" stroke-linecap="round" opacity="0.7"/><line x1="-11.930" y1="7.620" x2="-11.430" y2="7.620" stroke="#4a5160" stroke-width="0.100" stroke-linecap="round" opacity="0.7"/><line x1="-11.430" y1="-7.620" x2="-11.430" y2="-8.120" stroke="#4a5160" stroke-width="0.100" stroke-linecap="round" opacity="0.7"/><line x1="-11.430" y1="-7.620" x2="-10.930" y2="-7.620" stroke="#4a5160" stroke-width="0.100" stroke-linecap="round" opacity="0.7"/><line x1="-11.430" y1="-7.120" x2="-11.430" y2="-7.620" stroke="#4a5160" stroke-width="0.100" stroke-linecap="round" opacity="0.7"/><line x1="-11.430" y1="7.620" x2="-11.430" y2="7.120" stroke="#4a5160" stroke-width="0.100" stroke-linecap="round" opacity="0.7"/><line x1="-11.430" y1="7.620" x2="-10.930" y2="7.620" stroke="#4a5160" stroke-width="0.100" stroke-linecap="round" opacity="0.7"/><line x1="-11.430" y1="8.120" x2="-11.430" y2="7.620" stroke="#4a5160" stroke-width="0.100" stroke-linecap="round" opacity="0.7"/><line x1="-9.390" y1="-7.620" x2="-8.890" y2="-7.620" stroke="#4a5160" stroke-width="0.100" stroke-linecap="round" opacity="0.7"/><line x1="-9.390" y1="7.620" x2="-8.890" y2="7.620" stroke="#4a5160" stroke-width="0.100" stroke-linecap="round" opacity="0.7"/><line x1="-8.890" y1="-7.620" x2="-8.890" y2="-8.120" stroke="#4a5160" stroke-width="0.100" stroke-linecap="round" opacity="0.7"/><line x1="-8.890" y1="-7.620" x2="-8.390" y2="-7.620" stroke="#4a5160" stroke-width="0.100" stroke-linecap="round" opacity="0.7"/><line x1="-8.890" y1="-7.120" x2="-8.890" y2="-7.620" stroke="#4a5160" stroke-width="0.100" stroke-linecap="round" opacity="0.7"/><line x1="-8.890" y1="7.620" x2="-8.890" y2="7.120" stroke="#4a5160" stroke-width="0.100" stroke-linecap="round" opacity="0.7"/><line x1="-8.890" y1="7.620" x2="-8.390" y2="7.620" stroke="#4a5160" stroke-width="0.100" stroke-linecap="round" opacity="0.7"/><line x1="-8.890" y1="8.120" x2="-8.890" y2="7.620" stroke="#4a5160" stroke-width="0.100" stroke-linecap="round" opacity="0.7"/><line x1="-0.500" y1="0.000" x2="0.000" y2="0.000" stroke="#4a5160" stroke-width="0.100" stroke-linecap="round" opacity="0.7"/><line x1="0.000" y1="0.000" x2="0.000" y2="-0.500" stroke="#4a5160" stroke-width="0.100" stroke-linecap="round" opacity="0.7"/><line x1="0.000" y1="0.000" x2="0.500" y2="0.000" stroke="#4a5160" stroke-width="0.100" stroke-linecap="round" opacity="0.7"/><line x1="0.000" y1="0.500" x2="0.000" y2="0.000" stroke="#4a5160" stroke-width="0.100" stroke-linecap="round" opacity="0.7"/><line x1="5.850" y1="-7.620" x2="6.350" y2="-7.620" stroke="#4a5160" stroke-width="0.100" stroke-linecap="round" opacity="0.7"/><line x1="5.850" y1="7.620" x2="6.350" y2="7.620" stroke="#4a5160" stroke-width="0.100" stroke-linecap="round" opacity="0.7"/><line x1="6.350" y1="-7.620" x2="6.350" y2="-8.120" stroke="#4a5160" stroke-width="0.100" stroke-linecap="round" opacity="0.7"/><line x1="6.350" y1="-7.620" x2="6.850" y2="-7.620" stroke="#4a5160" stroke-width="0.100" stroke-linecap="round" opacity="0.7"/><line x1="6.350" y1="-7.120" x2="6.350" y2="-7.620" stroke="#4a5160" stroke-width="0.100" stroke-linecap="round" opacity="0.7"/><line x1="6.350" y1="7.620" x2="6.350" y2="7.120" stroke="#4a5160" stroke-width="0.100" stroke-linecap="round" opacity="0.7"/><line x1="6.350" y1="7.620" x2="6.850" y2="7.620" stroke="#4a5160" stroke-width="0.100" stroke-linecap="round" opacity="0.7"/><line x1="6.350" y1="8.120" x2="6.350" y2="7.620" stroke="#4a5160" stroke-width="0.100" stroke-linecap="round" opacity="0.7"/><line x1="10.930" y1="-7.620" x2="11.430" y2="-7.620" stroke="#4a5160" stroke-width="0.100" stroke-linecap="round" opacity="0.7"/><line x1="10.930" y1="7.620" x2="11.430" y2="7.620" stroke="#4a5160" stroke-width="0.100" stroke-linecap="round" opacity="0.7"/><line x1="11.430" y1="-7.620" x2="11.430" y2="-8.120" stroke="#4a5160" stroke-width="0.100" stroke-linecap="round" opacity="0.7"/><line x1="11.430" y1="-7.620" x2="11.930" y2="-7.620" stroke="#4a5160" stroke-width="0.100" stroke-linecap="round" opacity="0.7"/><line x1="11.430" y1="-7.120" x2="11.430" y2="-7.620" stroke="#4a5160" stroke-width="0.100" stroke-linecap="round" opacity="0.7"/><line x1="11.430" y1="7.620" x2="11.430" y2="7.120" stroke="#4a5160" stroke-width="0.100" stroke-linecap="round" opacity="0.7"/><line x1="11.430" y1="7.620" x2="11.930" y2="7.620" stroke="#4a5160" stroke-width="0.100" stroke-linecap="round" opacity="0.7"/><line x1="11.430" y1="8.120" x2="11.430" y2="7.620" stroke="#4a5160" stroke-width="0.100" stroke-linecap="round" opacity="0.7"/><line x1="-16.250" y1="-10.400" x2="16.250" y2="-10.400" stroke="#6b7280" stroke-width="0.100" stroke-linecap="round" opacity="0.8"/><line x1="-16.250" y1="10.400" x2="-16.250" y2="-10.400" stroke="#6b7280" stroke-width="0.100" stroke-linecap="round" opacity="0.8"/><line x1="-16.250" y1="10.400" x2="16.250" y2="10.400" stroke="#6b7280" stroke-width="0.100" stroke-linecap="round" opacity="0.8"/><line x1="16.250" y1="10.400" x2="16.250" y2="-10.400" stroke="#6b7280" stroke-width="0.100" stroke-linecap="round" opacity="0.8"/><line x1="-16.500" y1="-10.650" x2="16.500" y2="-10.650" stroke="#d24d4d" stroke-width="0.080" stroke-linecap="round" opacity="0.7"/><line x1="16.500" y1="-10.650" x2="16.500" y2="10.650" stroke="#d24d4d" stroke-width="0.080" stroke-linecap="round" opacity="0.7"/><line x1="16.500" y1="10.650" x2="-16.500" y2="10.650" stroke="#d24d4d" stroke-width="0.080" stroke-linecap="round" opacity="0.7"/><line x1="-16.500" y1="10.650" x2="-16.500" y2="-10.650" stroke="#d24d4d" stroke-width="0.080" stroke-linecap="round" opacity="0.7"/><circle cx="-13.900" cy="11.025" r="0.150" fill="none" stroke="#e6e9ef" stroke-width="0.12" opacity="1"/><circle cx="-13.825" cy="9.275" r="0.500" fill="none" stroke="#6b7280" stroke-width="0.12" opacity="0.8"/><rect x="-12.180" y="6.870" width="1.500" height="1.500" rx="0.750" fill="#c79b5c"/><circle cx="-11.430" cy="7.620" r="0.400" fill="#12151c"/><rect x="-9.640" y="6.870" width="1.500" height="1.500" rx="0.750" fill="#c79b5c"/><circle cx="-8.890" cy="7.620" r="0.400" fill="#12151c"/><rect x="5.600" y="6.870" width="1.500" height="1.500" rx="0.750" fill="#c79b5c"/><circle cx="6.350" cy="7.620" r="0.400" fill="#12151c"/><rect x="10.680" y="6.870" width="1.500" height="1.500" rx="0.750" fill="#c79b5c"/><circle cx="11.430" cy="7.620" r="0.400" fill="#12151c"/><rect x="10.680" y="-8.370" width="1.500" height="1.500" rx="0.750" fill="#c79b5c"/><circle cx="11.430" cy="-7.620" r="0.400" fill="#12151c"/><rect x="5.600" y="-8.370" width="1.500" height="1.500" rx="0.750" fill="#c79b5c"/><circle cx="6.350" cy="-7.620" r="0.400" fill="#12151c"/><rect x="-9.640" y="-8.370" width="1.500" height="1.500" rx="0.750" fill="#c79b5c"/><circle cx="-8.890" cy="-7.620" r="0.400" fill="#12151c"/><rect x="-12.180" y="-8.370" width="1.500" height="1.500" rx="0.750" fill="#c79b5c"/><circle cx="-11.430" cy="-7.620" r="0.400" fill="#12151c"/></svg>