<svg xmlns="http://www.w3.org/2000/svg" viewBox="-3.60 -3.60 7.20 7.20" preserveAspectRatio="xMidYMid meet" style="width:100%;height:100%"><rect x="-3.60" y="-3.60" width="7.20" height="7.20" fill="#12151c"/><line x1="-1.600" y1="-1.600" x2="1.600" y2="-1.600" stroke="#e6e9ef" stroke-width="0.200" stroke-linecap="round" opacity="1"/><line x1="-1.600" y1="1.600" x2="-1.600" y2="-1.600" stroke="#e6e9ef" stroke-width="0.200" stroke-linecap="round" opacity="1"/><line x1="-1.600" y1="1.600" x2="1.600" y2="1.600" stroke="#e6e9ef" stroke-width="0.200" stroke-linecap="round" opacity="1"/><line x1="1.600" y1="1.600" x2="1.600" y2="-1.600" stroke="#e6e9ef" stroke-width="0.200" stroke-linecap="round" opacity="1"/><line x1="-1.570" y1="-1.570" x2="1.570" y2="-1.570" stroke="#4a5160" stroke-width="0.080" stroke-linecap="round" opacity="0.7"/><line x1="-1.570" y1="1.570" x2="-1.570" y2="-1.570" stroke="#4a5160" stroke-width="0.080" stroke-linecap="round" opacity="0.7"/><line x1="-1.570" y1="1.570" x2="1.570" y2="1.570" stroke="#4a5160" stroke-width="0.080" stroke-linecap="round" opacity="0.7"/><line x1="1.570" y1="1.570" x2="1.570" y2="-1.570" stroke="#4a5160" stroke-width="0.080" stroke-linecap="round" opacity="0.7"/><line x1="-2.600" y1="-2.600" x2="2.600" y2="-2.600" stroke="#d24d4d" stroke-width="0.080" stroke-linecap="round" opacity="0.7"/><line x1="-2.600" y1="2.600" x2="-2.600" y2="-2.600" stroke="#d24d4d" stroke-width="0.080" stroke-linecap="round" opacity="0.7"/><line x1="-2.600" y1="2.600" x2="2.600" y2="2.600" stroke="#d24d4d" stroke-width="0.080" stroke-linecap="round" opacity="0.7"/><line x1="2.600" y1="2.600" x2="2.600" y2="-2.600" stroke="#d24d4d" stroke-width="0.080" stroke-linecap="round" opacity="0.7"/><line x1="-1.570" y1="-1.570" x2="1.570" y2="-1.570" stroke="#6b7280" stroke-width="0.100" stroke-linecap="round" opacity="0.8"/><line x1="-1.570" y1="1.570" x2="-1.570" y2="-1.570" stroke="#6b7280" stroke-width="0.100" stroke-linecap="round" opacity="0.8"/><line x1="-1.570" y1="1.570" x2="1.570" y2="1.570" stroke="#6b7280" stroke-width="0.100" stroke-linecap="round" opacity="0.8"/><line x1="-1.550" y1="-1.450" x2="-1.450" y2="-1.550" stroke="#6b7280" stroke-width="0.100" stroke-linecap="round" opacity="0.8"/><line x1="-1.550" y1="-1.350" x2="-1.350" y2="-1.550" stroke="#6b7280" stroke-width="0.100" stroke-linecap="round" opacity="0.8"/><line x1="-1.550" y1="-1.250" x2="-1.250" y2="-1.550" stroke="#6b7280" stroke-width="0.100" stroke-linecap="round" opacity="0.8"/><line x1="-1.550" y1="-1.150" x2="-1.150" y2="-1.550" stroke="#6b7280" stroke-width="0.100" stroke-linecap="round" opacity="0.8"/><line x1="-1.550" y1="-1.050" x2="-1.050" y2="-1.550" stroke="#6b7280" stroke-width="0.100" stroke-linecap="round" opacity="0.8"/><line x1="-1.550" y1="-0.950" x2="-0.950" y2="-1.550" stroke="#6b7280" stroke-width="0.100" stroke-linecap="round" opacity="0.8"/><line x1="-1.550" y1="-0.850" x2="-0.850" y2="-1.550" stroke="#6b7280" stroke-width="0.100" stroke-linecap="round" opacity="0.8"/><line x1="-1.550" y1="-0.750" x2="-0.750" y2="-1.550" stroke="#6b7280" stroke-width="0.100" stroke-linecap="round" opacity="0.8"/><line x1="-1.550" y1="-0.650" x2="-0.650" y2="-1.550" stroke="#6b7280" stroke-width="0.100" stroke-linecap="round" opacity="0.8"/><line x1="-1.550" y1="-0.550" x2="-0.550" y2="-1.550" stroke="#6b7280" stroke-width="0.100" stroke-linecap="round" opacity="0.8"/><line x1="1.570" y1="1.570" x2="1.570" y2="-1.570" stroke="#6b7280" stroke-width="0.100" stroke-linecap="round" opacity="0.8"/><circle cx="-2.200" cy="-1.000" r="0.150" fill="#e6e9ef" opacity="1"/><rect x="-1.175" y="-1.175" width="0.350" height="0.350" rx="0.175" fill="#c79b5c"/><rect x="-0.175" y="-1.175" width="0.350" height="0.350" rx="0.175" fill="#c79b5c"/><rect x="0.825" y="-1.175" width="0.350" height="0.350" rx="0.175" fill="#c79b5c"/><rect x="-1.175" y="-0.175" width="0.350" height="0.350" rx="0.175" fill="#c79b5c"/><rect x="-0.175" y="-0.175" width="0.350" height="0.350" rx="0.175" fill="#c79b5c"/><rect x="0.825" y="-0.175" width="0.350" height="0.350" rx="0.175" fill="#c79b5c"/><rect x="-1.175" y="0.825" width="0.350" height="0.350" rx="0.175" fill="#c79b5c"/><rect x="-0.175" y="0.825" width="0.350" height="0.350" rx="0.175" fill="#c79b5c"/><rect x="0.825" y="0.825" width="0.350" height="0.350" rx="0.175" fill="#c79b5c"/></svg>