<svg xmlns="http://www.w3.org/2000/svg" viewBox="-6.58 -1.50 28.40 38.56" preserveAspectRatio="xMidYMid meet" style="width:100%;height:100%"><rect x="-6.58" y="-1.50" width="28.40" height="38.56" fill="#12151c"/><rect x="0.000" y="-0.000" width="15.240" height="35.560" fill="#1e222b" stroke="#4ea1ff" stroke-width="0.25"/><polyline points="0.000,30.480 2.540,30.480" fill="none" stroke="#4ea1ff" stroke-width="0.25" stroke-linejoin="round"/><polyline points="0.000,33.020 2.540,33.020" fill="none" stroke="#4ea1ff" stroke-width="0.25" stroke-linejoin="round"/><polyline points="1.270,30.480 1.270,33.020" fill="none" stroke="#4ea1ff" stroke-width="0.25" stroke-linejoin="round"/><polyline points="12.700,30.480 15.240,30.480" fill="none" stroke="#4ea1ff" stroke-width="0.25" stroke-linejoin="round"/><polyline points="12.700,33.020 15.240,33.020" fill="none" stroke="#4ea1ff" stroke-width="0.25" stroke-linejoin="round"/><polyline points="13.970,30.480 13.970,33.020" fill="none" stroke="#4ea1ff" stroke-width="0.25" stroke-linejoin="round"/><line x1="-5.080" y1="2.540" x2="0.000" y2="2.540" stroke="#e6e9ef" stroke-width="0.2"/><circle cx="-5.080" cy="2.540" r="0.4" fill="#4ea1ff"/><text x="0.500" y="2.890" fill="#e6e9ef" font-size="1.1" text-anchor="start" font-family="sans-serif">G</text><text x="-0.300" y="2.190" fill="#9aa3b2" font-size="0.9" text-anchor="end" font-family="sans-serif">14</text><line x1="-5.080" y1="7.620" x2="0.000" y2="7.620" stroke="#e6e9ef" stroke-width="0.2"/><circle cx="-5.080" cy="7.620" r="0.4" fill="#4ea1ff"/><text x="0.500" y="7.970" fill="#e6e9ef" font-size="1.1" text-anchor="start" font-family="sans-serif">1A</text><text x="-0.300" y="7.270" fill="#9aa3b2" font-size="0.9" text-anchor="end" font-family="sans-serif">16</text><line x1="-5.080" y1="10.160" x2="0.000" y2="10.160" stroke="#e6e9ef" stroke-width="0.2"/><circle cx="-5.080" cy="10.160" r="0.4" fill="#4ea1ff"/><text x="0.500" y="10.510" fill="#e6e9ef" font-size="1.1" text-anchor="start" font-family="sans-serif">2A</text><text x="-0.300" y="9.810" fill="#9aa3b2" font-size="0.9" text-anchor="end" font-family="sans-serif">15</text><line x1="-5.080" y1="17.780" x2="0.000" y2="17.780" stroke="#e6e9ef" stroke-width="0.2"/><circle cx="-5.080" cy="17.780" r="0.4" fill="#4ea1ff"/><text x="0.500" y="18.130" fill="#e6e9ef" font-size="1.1" text-anchor="start" font-family="sans-serif">3A</text><text x="-0.300" y="17.430" fill="#9aa3b2" font-size="0.9" text-anchor="end" font-family="sans-serif">10</text><line x1="-5.080" y1="20.320" x2="0.000" y2="20.320" stroke="#e6e9ef" stroke-width="0.2"/><circle cx="-5.080" cy="20.320" r="0.4" fill="#4ea1ff"/><text x="0.500" y="20.670" fill="#e6e9ef" font-size="1.1" text-anchor="start" font-family="sans-serif">4A</text><text x="-0.300" y="19.970" fill="#9aa3b2" font-size="0.9" text-anchor="end" font-family="sans-serif">9</text><line x1="-5.080" y1="27.940" x2="0.000" y2="27.940" stroke="#e6e9ef" stroke-width="0.2"/><circle cx="-5.080" cy="27.940" r="0.4" fill="#4ea1ff"/><text x="0.500" y="28.290" fill="#e6e9ef" font-size="1.1" text-anchor="start" font-family="sans-serif">VCC</text><text x="-0.300" y="27.590" fill="#9aa3b2" font-size="0.9" text-anchor="end" font-family="sans-serif">11</text><line x1="-5.080" y1="30.480" x2="0.000" y2="30.480" stroke="#e6e9ef" stroke-width="0.2"/><circle cx="-5.080" cy="30.480" r="0.4" fill="#4ea1ff"/><text x="0.500" y="30.830" fill="#e6e9ef" font-size="1.1" text-anchor="start" font-family="sans-serif">GND</text><text x="-0.300" y="30.130" fill="#9aa3b2" font-size="0.9" text-anchor="end" font-family="sans-serif">4</text><line x1="-5.080" y1="33.020" x2="0.000" y2="33.020" stroke="#e6e9ef" stroke-width="0.2"/><circle cx="-5.080" cy="33.020" r="0.4" fill="#4ea1ff"/><text x="0.500" y="33.370" fill="#e6e9ef" font-size="1.1" text-anchor="start" font-family="sans-serif">GND</text><text x="-0.300" y="32.670" fill="#9aa3b2" font-size="0.9" text-anchor="end" font-family="sans-serif">5</text><line x1="20.320" y1="7.620" x2="15.240" y2="7.620" stroke="#e6e9ef" stroke-width="0.2"/><circle cx="20.320" cy="7.620" r="0.4" fill="#4ea1ff"/><text x="14.740" y="7.970" fill="#e6e9ef" font-size="1.1" text-anchor="end" font-family="sans-serif">1~{Y}</text><text x="15.540" y="7.270" fill="#9aa3b2" font-size="0.9" text-anchor="start" font-family="sans-serif">1</text><line x1="20.320" y1="10.160" x2="15.240" y2="10.160" stroke="#e6e9ef" stroke-width="0.2"/><circle cx="20.320" cy="10.160" r="0.4" fill="#4ea1ff"/><text x="14.740" y="10.510" fill="#e6e9ef" font-size="1.1" text-anchor="end" font-family="sans-serif">2~{Y}</text><text x="15.540" y="9.810" fill="#9aa3b2" font-size="0.9" text-anchor="start" font-family="sans-serif">3</text><line x1="20.320" y1="12.700" x2="15.240" y2="12.700" stroke="#e6e9ef" stroke-width="0.2"/><circle cx="20.320" cy="12.700" r="0.4" fill="#4ea1ff"/><text x="14.740" y="13.050" fill="#e6e9ef" font-size="1.1" text-anchor="end" font-family="sans-serif">1,2D</text><text x="15.540" y="12.350" fill="#9aa3b2" font-size="0.9" text-anchor="start" font-family="sans-serif">2</text><line x1="20.320" y1="17.780" x2="15.240" y2="17.780" stroke="#e6e9ef" stroke-width="0.2"/><circle cx="20.320" cy="17.780" r="0.4" fill="#4ea1ff"/><text x="14.740" y="18.130" fill="#e6e9ef" font-size="1.1" text-anchor="end" font-family="sans-serif">3~{Y}</text><text x="15.540" y="17.430" fill="#9aa3b2" font-size="0.9" text-anchor="start" font-family="sans-serif">6</text><line x1="20.320" y1="20.320" x2="15.240" y2="20.320" stroke="#e6e9ef" stroke-width="0.2"/><circle cx="20.320" cy="20.320" r="0.4" fill="#4ea1ff"/><text x="14.740" y="20.670" fill="#e6e9ef" font-size="1.1" text-anchor="end" font-family="sans-serif">4~{Y}</text><text x="15.540" y="19.970" fill="#9aa3b2" font-size="0.9" text-anchor="start" font-family="sans-serif">8</text><line x1="20.320" y1="22.860" x2="15.240" y2="22.860" stroke="#e6e9ef" stroke-width="0.2"/><circle cx="20.320" cy="22.860" r="0.4" fill="#4ea1ff"/><text x="14.740" y="23.210" fill="#e6e9ef" font-size="1.1" text-anchor="end" font-family="sans-serif">3,4D</text><text x="15.540" y="22.510" fill="#9aa3b2" font-size="0.9" text-anchor="start" font-family="sans-serif">7</text><line x1="20.320" y1="30.480" x2="15.240" y2="30.480" stroke="#e6e9ef" stroke-width="0.2"/><circle cx="20.320" cy="30.480" r="0.4" fill="#4ea1ff"/><text x="14.740" y="30.830" fill="#e6e9ef" font-size="1.1" text-anchor="end" font-family="sans-serif">GND</text><text x="15.540" y="30.130" fill="#9aa3b2" font-size="0.9" text-anchor="start" font-family="sans-serif">12</text><line x1="20.320" y1="33.020" x2="15.240" y2="33.020" stroke="#e6e9ef" stroke-width="0.2"/><circle cx="20.320" cy="33.020" r="0.4" fill="#4ea1ff"/><text x="14.740" y="33.370" fill="#e6e9ef" font-size="1.1" text-anchor="end" font-family="sans-serif">GND</text><text x="15.540" y="32.670" fill="#9aa3b2" font-size="0.9" text-anchor="start" font-family="sans-serif">13</text></svg>