<svg xmlns="http://www.w3.org/2000/svg" viewBox="-6.58 -1.50 36.02 56.34" preserveAspectRatio="xMidYMid meet" style="width:100%;height:100%"><rect x="-6.58" y="-1.50" width="36.02" height="56.34" fill="#12151c"/><rect x="0.000" y="-0.000" width="22.860" height="53.340" fill="#1e222b" stroke="#4ea1ff" stroke-width="0.25"/><polyline points="0.000,5.080 1.270,5.080" fill="none" stroke="#4ea1ff" stroke-width="0.25" stroke-linejoin="round"/><polyline points="0.000,12.700 1.270,12.700" fill="none" stroke="#4ea1ff" stroke-width="0.25" stroke-linejoin="round"/><polyline points="0.000,20.320 1.270,20.320" fill="none" stroke="#4ea1ff" stroke-width="0.25" stroke-linejoin="round"/><polyline points="0.000,27.940 1.270,27.940" fill="none" stroke="#4ea1ff" stroke-width="0.25" stroke-linejoin="round"/><polyline points="0.000,35.560 1.270,35.560" fill="none" stroke="#4ea1ff" stroke-width="0.25" stroke-linejoin="round"/><polyline points="0.000,43.180 1.270,43.180" fill="none" stroke="#4ea1ff" stroke-width="0.25" stroke-linejoin="round"/><polyline points="1.270,2.540 1.270,7.620 3.175,5.080 1.270,2.540" fill="#1e222b" stroke="#4ea1ff" stroke-width="0.25" stroke-linejoin="round"/><polyline points="1.270,10.160 1.270,15.240 3.175,12.700 1.270,10.160" fill="#1e222b" stroke="#4ea1ff" stroke-width="0.25" stroke-linejoin="round"/><polyline points="1.270,17.780 1.270,22.860 3.175,20.320 1.270,17.780" fill="#1e222b" stroke="#4ea1ff" stroke-width="0.25" stroke-linejoin="round"/><polyline points="1.270,25.400 1.270,30.480 3.175,27.940 1.270,25.400" fill="#1e222b" stroke="#4ea1ff" stroke-width="0.25" stroke-linejoin="round"/><polyline points="1.270,33.020 1.270,38.100 3.175,35.560 1.270,33.020" fill="#1e222b" stroke="#4ea1ff" stroke-width="0.25" stroke-linejoin="round"/><polyline points="1.270,40.640 1.270,45.720 3.175,43.180 1.270,40.640" fill="#1e222b" stroke="#4ea1ff" stroke-width="0.25" stroke-linejoin="round"/><polyline points="3.175,5.080 4.445,5.080" fill="none" stroke="#4ea1ff" stroke-width="0.25" stroke-linejoin="round"/><polyline points="3.175,12.700 4.445,12.700" fill="none" stroke="#4ea1ff" stroke-width="0.25" stroke-linejoin="round"/><polyline points="3.175,20.320 4.445,20.320" fill="none" stroke="#4ea1ff" stroke-width="0.25" stroke-linejoin="round"/><polyline points="3.175,27.940 4.445,27.940" fill="none" stroke="#4ea1ff" stroke-width="0.25" stroke-linejoin="round"/><polyline points="3.175,35.560 4.445,35.560" fill="none" stroke="#4ea1ff" stroke-width="0.25" stroke-linejoin="round"/><polyline points="3.175,43.180 4.445,43.180" fill="none" stroke="#4ea1ff" stroke-width="0.25" stroke-linejoin="round"/><polyline points="4.445,3.810 4.445,6.350 8.890,6.350 8.890,3.810 4.445,3.810" fill="#1e222b" stroke="#4ea1ff" stroke-width="0.25" stroke-linejoin="round"/><polyline points="4.445,11.430 4.445,13.970 8.890,13.970 8.890,11.430 4.445,11.430" fill="#1e222b" stroke="#4ea1ff" stroke-width="0.25" stroke-linejoin="round"/><polyline points="4.445,19.050 4.445,21.590 8.890,21.590 8.890,19.050 4.445,19.050" fill="#1e222b" stroke="#4ea1ff" stroke-width="0.25" stroke-linejoin="round"/><polyline points="4.445,26.670 4.445,29.210 8.890,29.210 8.890,26.670 4.445,26.670" fill="#1e222b" stroke="#4ea1ff" stroke-width="0.25" stroke-linejoin="round"/><polyline points="4.445,34.290 4.445,36.830 8.890,36.830 8.890,34.290 4.445,34.290" fill="#1e222b" stroke="#4ea1ff" stroke-width="0.25" stroke-linejoin="round"/><polyline points="4.445,41.910 4.445,44.450 8.890,44.450 8.890,41.910 4.445,41.910" fill="#1e222b" stroke="#4ea1ff" stroke-width="0.25" stroke-linejoin="round"/><polyline points="8.890,5.080 9.525,5.080" fill="none" stroke="#4ea1ff" stroke-width="0.25" stroke-linejoin="round"/><polyline points="8.890,12.700 9.525,12.700" fill="none" stroke="#4ea1ff" stroke-width="0.25" stroke-linejoin="round"/><polyline points="8.890,20.320 9.525,20.320" fill="none" stroke="#4ea1ff" stroke-width="0.25" stroke-linejoin="round"/><polyline points="8.890,27.940 9.525,27.940" fill="none" stroke="#4ea1ff" stroke-width="0.25" stroke-linejoin="round"/><polyline points="8.890,35.560 9.525,35.560" fill="none" stroke="#4ea1ff" stroke-width="0.25" stroke-linejoin="round"/><polyline points="8.890,43.180 9.525,43.180" fill="none" stroke="#4ea1ff" stroke-width="0.25" stroke-linejoin="round"/><polyline points="9.525,2.540 13.335,2.540 13.335,7.620 9.525,7.620 9.525,2.540" fill="#1e222b" stroke="#4ea1ff" stroke-width="0.25" stroke-linejoin="round"/><polyline points="9.525,10.160 13.335,10.160 13.335,15.240 9.525,15.240 9.525,10.160" fill="#1e222b" stroke="#4ea1ff" stroke-width="0.25" stroke-linejoin="round"/><polyline points="9.525,17.780 13.335,17.780 13.335,22.860 9.525,22.860 9.525,17.780" fill="#1e222b" stroke="#4ea1ff" stroke-width="0.25" stroke-linejoin="round"/><polyline points="9.525,25.400 13.335,25.400 13.335,30.480 9.525,30.480 9.525,25.400" fill="#1e222b" stroke="#4ea1ff" stroke-width="0.25" stroke-linejoin="round"/><polyline points="9.525,33.020 13.335,33.020 13.335,38.100 9.525,38.100 9.525,33.020" fill="#1e222b" stroke="#4ea1ff" stroke-width="0.25" stroke-linejoin="round"/><polyline points="9.525,40.640 13.335,40.640 13.335,45.720 9.525,45.720 9.525,40.640" fill="#1e222b" stroke="#4ea1ff" stroke-width="0.25" stroke-linejoin="round"/><polyline points="13.335,5.080 13.970,5.080" fill="none" stroke="#4ea1ff" stroke-width="0.25" stroke-linejoin="round"/><polyline points="13.335,12.700 13.970,12.700" fill="none" stroke="#4ea1ff" stroke-width="0.25" stroke-linejoin="round"/><polyline points="13.335,20.320 13.970,20.320" fill="none" stroke="#4ea1ff" stroke-width="0.25" stroke-linejoin="round"/><polyline points="13.335,27.940 13.970,27.940" fill="none" stroke="#4ea1ff" stroke-width="0.25" stroke-linejoin="round"/><polyline points="13.335,35.560 13.970,35.560" fill="none" stroke="#4ea1ff" stroke-width="0.25" stroke-linejoin="round"/><polyline points="13.335,43.180 13.970,43.180" fill="none" stroke="#4ea1ff" stroke-width="0.25" stroke-linejoin="round"/><polyline points="13.970,3.810 13.970,6.350 18.415,6.350 18.415,3.810 13.970,3.810" fill="#1e222b" stroke="#4ea1ff" stroke-width="0.25" stroke-linejoin="round"/><polyline points="13.970,11.430 13.970,13.970 18.415,13.970 18.415,11.430 13.970,11.430" fill="#1e222b" stroke="#4ea1ff" stroke-width="0.25" stroke-linejoin="round"/><polyline points="13.970,19.050 13.970,21.590 18.415,21.590 18.415,19.050 13.970,19.050" fill="#1e222b" stroke="#4ea1ff" stroke-width="0.25" stroke-linejoin="round"/><polyline points="13.970,26.670 13.970,29.210 18.415,29.210 18.415,26.670 13.970,26.670" fill="#1e222b" stroke="#4ea1ff" stroke-width="0.25" stroke-linejoin="round"/><polyline points="13.970,34.290 13.970,36.830 18.415,36.830 18.415,34.290 13.970,34.290" fill="#1e222b" stroke="#4ea1ff" stroke-width="0.25" stroke-linejoin="round"/><polyline points="13.970,41.910 13.970,44.450 18.415,44.450 18.415,41.910 13.970,41.910" fill="#1e222b" stroke="#4ea1ff" stroke-width="0.25" stroke-linejoin="round"/><polyline points="18.415,5.080 19.685,5.080" fill="none" stroke="#4ea1ff" stroke-width="0.25" stroke-linejoin="round"/><polyline points="18.415,12.700 19.685,12.700" fill="none" stroke="#4ea1ff" stroke-width="0.25" stroke-linejoin="round"/><polyline points="18.415,20.320 19.685,20.320" fill="none" stroke="#4ea1ff" stroke-width="0.25" stroke-linejoin="round"/><polyline points="18.415,27.940 19.685,27.940" fill="none" stroke="#4ea1ff" stroke-width="0.25" stroke-linejoin="round"/><polyline points="18.415,35.560 19.685,35.560" fill="none" stroke="#4ea1ff" stroke-width="0.25" stroke-linejoin="round"/><polyline points="18.415,43.180 19.685,43.180" fill="none" stroke="#4ea1ff" stroke-width="0.25" stroke-linejoin="round"/><polyline points="19.685,2.540 19.685,7.620 21.590,5.080 19.685,2.540" fill="#1e222b" stroke="#4ea1ff" stroke-width="0.25" stroke-linejoin="round"/><polyline points="19.685,10.160 19.685,15.240 21.590,12.700 19.685,10.160" fill="#1e222b" stroke="#4ea1ff" stroke-width="0.25" stroke-linejoin="round"/><polyline points="19.685,17.780 19.685,22.860 21.590,20.320 19.685,17.780" fill="#1e222b" stroke="#4ea1ff" stroke-width="0.25" stroke-linejoin="round"/><polyline points="19.685,25.400 19.685,30.480 21.590,27.940 19.685,25.400" fill="#1e222b" stroke="#4ea1ff" stroke-width="0.25" stroke-linejoin="round"/><polyline points="19.685,33.020 19.685,38.100 21.590,35.560 19.685,33.020" fill="#1e222b" stroke="#4ea1ff" stroke-width="0.25" stroke-linejoin="round"/><polyline points="19.685,40.640 19.685,45.720 21.590,43.180 19.685,40.640" fill="#1e222b" stroke="#4ea1ff" stroke-width="0.25" stroke-linejoin="round"/><polyline points="21.590,5.080 22.860,5.080" fill="none" stroke="#4ea1ff" stroke-width="0.25" stroke-linejoin="round"/><polyline points="21.590,12.700 22.860,12.700" fill="none" stroke="#4ea1ff" stroke-width="0.25" stroke-linejoin="round"/><polyline points="21.590,20.320 22.860,20.320" fill="none" stroke="#4ea1ff" stroke-width="0.25" stroke-linejoin="round"/><polyline points="21.590,27.940 22.860,27.940" fill="none" stroke="#4ea1ff" stroke-width="0.25" stroke-linejoin="round"/><polyline points="21.590,35.560 22.860,35.560" fill="none" stroke="#4ea1ff" stroke-width="0.25" stroke-linejoin="round"/><polyline points="21.590,43.180 22.860,43.180" fill="none" stroke="#4ea1ff" stroke-width="0.25" stroke-linejoin="round"/><path d="M 10.414 4.445 C 10.765 4.445 11.049 4.161 11.049 3.810" fill="none" stroke="#4ea1ff" stroke-width="0.25"/><path d="M 10.414 5.715 C 10.765 5.715 11.049 5.431 11.049 5.080" fill="none" stroke="#4ea1ff" stroke-width="0.25"/><path d="M 10.414 6.985 C 10.765 6.985 11.049 6.701 11.049 6.350" fill="none" stroke="#4ea1ff" stroke-width="0.25"/><path d="M 10.414 12.065 C 10.765 12.065 11.049 11.781 11.049 11.430" fill="none" stroke="#4ea1ff" stroke-width="0.25"/><path d="M 10.414 13.335 C 10.765 13.335 11.049 13.051 11.049 12.700" fill="none" stroke="#4ea1ff" stroke-width="0.25"/><path d="M 10.414 14.605 C 10.765 14.605 11.049 14.321 11.049 13.970" fill="none" stroke="#4ea1ff" stroke-width="0.25"/><path d="M 10.414 19.685 C 10.765 19.685 11.049 19.401 11.049 19.050" fill="none" stroke="#4ea1ff" stroke-width="0.25"/><path d="M 10.414 20.955 C 10.765 20.955 11.049 20.671 11.049 20.320" fill="none" stroke="#4ea1ff" stroke-width="0.25"/><path d="M 10.414 22.225 C 10.765 22.225 11.049 21.941 11.049 21.590" fill="none" stroke="#4ea1ff" stroke-width="0.25"/><path d="M 10.414 27.305 C 10.765 27.305 11.049 27.021 11.049 26.670" fill="none" stroke="#4ea1ff" stroke-width="0.25"/><path d="M 10.414 28.575 C 10.765 28.575 11.049 28.291 11.049 27.940" fill="none" stroke="#4ea1ff" stroke-width="0.25"/><path d="M 10.414 29.845 C 10.765 29.845 11.049 29.561 11.049 29.210" fill="none" stroke="#4ea1ff" stroke-width="0.25"/><path d="M 10.414 34.925 C 10.765 34.925 11.049 34.641 11.049 34.290" fill="none" stroke="#4ea1ff" stroke-width="0.25"/><path d="M 10.414 36.195 C 10.765 36.195 11.049 35.911 11.049 35.560" fill="none" stroke="#4ea1ff" stroke-width="0.25"/><path d="M 10.414 37.465 C 10.765 37.465 11.049 37.181 11.049 36.830" fill="none" stroke="#4ea1ff" stroke-width="0.25"/><path d="M 10.414 42.545 C 10.765 42.545 11.049 42.261 11.049 41.910" fill="none" stroke="#4ea1ff" stroke-width="0.25"/><path d="M 10.414 43.815 C 10.765 43.815 11.049 43.531 11.049 43.180" fill="none" stroke="#4ea1ff" stroke-width="0.25"/><path d="M 10.414 45.085 C 10.765 45.085 11.049 44.801 11.049 44.450" fill="none" stroke="#4ea1ff" stroke-width="0.25"/><path d="M 11.049 3.810 C 11.049 3.459 10.765 3.175 10.414 3.175" fill="none" stroke="#4ea1ff" stroke-width="0.25"/><path d="M 11.049 5.080 C 11.049 4.729 10.765 4.445 10.414 4.445" fill="none" stroke="#4ea1ff" stroke-width="0.25"/><path d="M 11.049 6.350 C 11.049 5.999 10.765 5.715 10.414 5.715" fill="none" stroke="#4ea1ff" stroke-width="0.25"/><path d="M 11.049 11.430 C 11.049 11.079 10.765 10.795 10.414 10.795" fill="none" stroke="#4ea1ff" stroke-width="0.25"/><path d="M 11.049 12.700 C 11.049 12.349 10.765 12.065 10.414 12.065" fill="none" stroke="#4ea1ff" stroke-width="0.25"/><path d="M 11.049 13.970 C 11.049 13.619 10.765 13.335 10.414 13.335" fill="none" stroke="#4ea1ff" stroke-width="0.25"/><path d="M 11.049 19.050 C 11.049 18.699 10.765 18.415 10.414 18.415" fill="none" stroke="#4ea1ff" stroke-width="0.25"/><path d="M 11.049 20.320 C 11.049 19.969 10.765 19.685 10.414 19.685" fill="none" stroke="#4ea1ff" stroke-width="0.25"/><path d="M 11.049 21.590 C 11.049 21.239 10.765 20.955 10.414 20.955" fill="none" stroke="#4ea1ff" stroke-width="0.25"/><path d="M 11.049 26.670 C 11.049 26.319 10.765 26.035 10.414 26.035" fill="none" stroke="#4ea1ff" stroke-width="0.25"/><path d="M 11.049 27.940 C 11.049 27.589 10.765 27.305 10.414 27.305" fill="none" stroke="#4ea1ff" stroke-width="0.25"/><path d="M 11.049 29.210 C 11.049 28.859 10.765 28.575 10.414 28.575" fill="none" stroke="#4ea1ff" stroke-width="0.25"/><path d="M 11.049 34.290 C 11.049 33.939 10.765 33.655 10.414 33.655" fill="none" stroke="#4ea1ff" stroke-width="0.25"/><path d="M 11.049 35.560 C 11.049 35.209 10.765 34.925 10.414 34.925" fill="none" stroke="#4ea1ff" stroke-width="0.25"/><path d="M 11.049 36.830 C 11.049 36.479 10.765 36.195 10.414 36.195" fill="none" stroke="#4ea1ff" stroke-width="0.25"/><path d="M 11.049 41.910 C 11.049 41.559 10.765 41.275 10.414 41.275" fill="none" stroke="#4ea1ff" stroke-width="0.25"/><path d="M 11.049 43.180 C 11.049 42.829 10.765 42.545 10.414 42.545" fill="none" stroke="#4ea1ff" stroke-width="0.25"/><path d="M 11.049 44.450 C 11.049 44.099 10.765 43.815 10.414 43.815" fill="none" stroke="#4ea1ff" stroke-width="0.25"/><path d="M 11.811 3.810 C 11.811 4.161 12.095 4.445 12.446 4.445" fill="none" stroke="#4ea1ff" stroke-width="0.25"/><path d="M 11.811 5.080 C 11.811 5.431 12.095 5.715 12.446 5.715" fill="none" stroke="#4ea1ff" stroke-width="0.25"/><path d="M 11.811 6.350 C 11.811 6.701 12.095 6.985 12.446 6.985" fill="none" stroke="#4ea1ff" stroke-width="0.25"/><path d="M 11.811 11.430 C 11.811 11.781 12.095 12.065 12.446 12.065" fill="none" stroke="#4ea1ff" stroke-width="0.25"/><path d="M 11.811 12.700 C 11.811 13.051 12.095 13.335 12.446 13.335" fill="none" stroke="#4ea1ff" stroke-width="0.25"/><path d="M 11.811 13.970 C 11.811 14.321 12.095 14.605 12.446 14.605" fill="none" stroke="#4ea1ff" stroke-width="0.25"/><path d="M 11.811 19.050 C 11.811 19.401 12.095 19.685 12.446 19.685" fill="none" stroke="#4ea1ff" stroke-width="0.25"/><path d="M 11.811 20.320 C 11.811 20.671 12.095 20.955 12.446 20.955" fill="none" stroke="#4ea1ff" stroke-width="0.25"/><path d="M 11.811 21.590 C 11.811 21.941 12.095 22.225 12.446 22.225" fill="none" stroke="#4ea1ff" stroke-width="0.25"/><path d="M 11.811 26.670 C 11.811 27.021 12.095 27.305 12.446 27.305" fill="none" stroke="#4ea1ff" stroke-width="0.25"/><path d="M 11.811 27.940 C 11.811 28.291 12.095 28.575 12.446 28.575" fill="none" stroke="#4ea1ff" stroke-width="0.25"/><path d="M 11.811 29.210 C 11.811 29.561 12.095 29.845 12.446 29.845" fill="none" stroke="#4ea1ff" stroke-width="0.25"/><path d="M 11.811 34.290 C 11.811 34.641 12.095 34.925 12.446 34.925" fill="none" stroke="#4ea1ff" stroke-width="0.25"/><path d="M 11.811 35.560 C 11.811 35.911 12.095 36.195 12.446 36.195" fill="none" stroke="#4ea1ff" stroke-width="0.25"/><path d="M 11.811 36.830 C 11.811 37.181 12.095 37.465 12.446 37.465" fill="none" stroke="#4ea1ff" stroke-width="0.25"/><path d="M 11.811 41.910 C 11.811 42.261 12.095 42.545 12.446 42.545" fill="none" stroke="#4ea1ff" stroke-width="0.25"/><path d="M 11.811 43.180 C 11.811 43.531 12.095 43.815 12.446 43.815" fill="none" stroke="#4ea1ff" stroke-width="0.25"/><path d="M 11.811 44.450 C 11.811 44.801 12.095 45.085 12.446 45.085" fill="none" stroke="#4ea1ff" stroke-width="0.25"/><path d="M 12.446 3.175 C 12.095 3.175 11.811 3.459 11.811 3.810" fill="none" stroke="#4ea1ff" stroke-width="0.25"/><path d="M 12.446 4.445 C 12.095 4.445 11.811 4.729 11.811 5.080" fill="none" stroke="#4ea1ff" stroke-width="0.25"/><path d="M 12.446 5.715 C 12.095 5.715 11.811 5.999 11.811 6.350" fill="none" stroke="#4ea1ff" stroke-width="0.25"/><path d="M 12.446 10.795 C 12.095 10.795 11.811 11.079 11.811 11.430" fill="none" stroke="#4ea1ff" stroke-width="0.25"/><path d="M 12.446 12.065 C 12.095 12.065 11.811 12.349 11.811 12.700" fill="none" stroke="#4ea1ff" stroke-width="0.25"/><path d="M 12.446 13.335 C 12.095 13.335 11.811 13.619 11.811 13.970" fill="none" stroke="#4ea1ff" stroke-width="0.25"/><path d="M 12.446 18.415 C 12.095 18.415 11.811 18.699 11.811 19.050" fill="none" stroke="#4ea1ff" stroke-width="0.25"/><path d="M 12.446 19.685 C 12.095 19.685 11.811 19.969 11.811 20.320" fill="none" stroke="#4ea1ff" stroke-width="0.25"/><path d="M 12.446 20.955 C 12.095 20.955 11.811 21.239 11.811 21.590" fill="none" stroke="#4ea1ff" stroke-width="0.25"/><path d="M 12.446 26.035 C 12.095 26.035 11.811 26.319 11.811 26.670" fill="none" stroke="#4ea1ff" stroke-width="0.25"/><path d="M 12.446 27.305 C 12.095 27.305 11.811 27.589 11.811 27.940" fill="none" stroke="#4ea1ff" stroke-width="0.25"/><path d="M 12.446 28.575 C 12.095 28.575 11.811 28.859 11.811 29.210" fill="none" stroke="#4ea1ff" stroke-width="0.25"/><path d="M 12.446 33.655 C 12.095 33.655 11.811 33.939 11.811 34.290" fill="none" stroke="#4ea1ff" stroke-width="0.25"/><path d="M 12.446 34.925 C 12.095 34.925 11.811 35.209 11.811 35.560" fill="none" stroke="#4ea1ff" stroke-width="0.25"/><path d="M 12.446 36.195 C 12.095 36.195 11.811 36.479 11.811 36.830" fill="none" stroke="#4ea1ff" stroke-width="0.25"/><path d="M 12.446 41.275 C 12.095 41.275 11.811 41.559 11.811 41.910" fill="none" stroke="#4ea1ff" stroke-width="0.25"/><path d="M 12.446 42.545 C 12.095 42.545 11.811 42.829 11.811 43.180" fill="none" stroke="#4ea1ff" stroke-width="0.25"/><path d="M 12.446 43.815 C 12.095 43.815 11.811 44.099 11.811 44.450" fill="none" stroke="#4ea1ff" stroke-width="0.25"/><line x1="-5.080" y1="5.080" x2="0.000" y2="5.080" stroke="#e6e9ef" stroke-width="0.2"/><circle cx="-5.080" cy="5.080" r="0.4" fill="#4ea1ff"/><text x="0.500" y="5.430" fill="#e6e9ef" font-size="1.1" text-anchor="start" font-family="sans-serif">VIA</text><text x="-0.300" y="4.730" fill="#9aa3b2" font-size="0.9" text-anchor="end" font-family="sans-serif">2</text><line x1="-5.080" y1="12.700" x2="0.000" y2="12.700" stroke="#e6e9ef" stroke-width="0.2"/><circle cx="-5.080" cy="12.700" r="0.4" fill="#4ea1ff"/><text x="0.500" y="13.050" fill="#e6e9ef" font-size="1.1" text-anchor="start" font-family="sans-serif">VIB</text><text x="-0.300" y="12.350" fill="#9aa3b2" font-size="0.9" text-anchor="end" font-family="sans-serif">3</text><line x1="-5.080" y1="20.320" x2="0.000" y2="20.320" stroke="#e6e9ef" stroke-width="0.2"/><circle cx="-5.080" cy="20.320" r="0.4" fill="#4ea1ff"/><text x="0.500" y="20.670" fill="#e6e9ef" font-size="1.1" text-anchor="start" font-family="sans-serif">VIC</text><text x="-0.300" y="19.970" fill="#9aa3b2" font-size="0.9" text-anchor="end" font-family="sans-serif">4</text><line x1="-5.080" y1="27.940" x2="0.000" y2="27.940" stroke="#e6e9ef" stroke-width="0.2"/><circle cx="-5.080" cy="27.940" r="0.4" fill="#4ea1ff"/><text x="0.500" y="28.290" fill="#e6e9ef" font-size="1.1" text-anchor="start" font-family="sans-serif">VOD</text><text x="-0.300" y="27.590" fill="#9aa3b2" font-size="0.9" text-anchor="end" font-family="sans-serif">5</text><line x1="-5.080" y1="35.560" x2="0.000" y2="35.560" stroke="#e6e9ef" stroke-width="0.2"/><circle cx="-5.080" cy="35.560" r="0.4" fill="#4ea1ff"/><text x="0.500" y="35.910" fill="#e6e9ef" font-size="1.1" text-anchor="start" font-family="sans-serif">VOE</text><text x="-0.300" y="35.210" fill="#9aa3b2" font-size="0.9" text-anchor="end" font-family="sans-serif">6</text><line x1="-5.080" y1="43.180" x2="0.000" y2="43.180" stroke="#e6e9ef" stroke-width="0.2"/><circle cx="-5.080" cy="43.180" r="0.4" fill="#4ea1ff"/><text x="0.500" y="43.530" fill="#e6e9ef" font-size="1.1" text-anchor="start" font-family="sans-serif">VOF</text><text x="-0.300" y="42.830" fill="#9aa3b2" font-size="0.9" text-anchor="end" font-family="sans-serif">7</text><line x1="-5.080" y1="48.260" x2="0.000" y2="48.260" stroke="#e6e9ef" stroke-width="0.2"/><circle cx="-5.080" cy="48.260" r="0.4" fill="#4ea1ff"/><text x="0.500" y="48.610" fill="#e6e9ef" font-size="1.1" text-anchor="start" font-family="sans-serif">VDD1</text><text x="-0.300" y="47.910" fill="#9aa3b2" font-size="0.9" text-anchor="end" font-family="sans-serif">1</text><line x1="-5.080" y1="50.800" x2="0.000" y2="50.800" stroke="#e6e9ef" stroke-width="0.2"/><circle cx="-5.080" cy="50.800" r="0.4" fill="#4ea1ff"/><text x="0.500" y="51.150" fill="#e6e9ef" font-size="1.1" text-anchor="start" font-family="sans-serif">GND1</text><text x="-0.300" y="50.450" fill="#9aa3b2" font-size="0.9" text-anchor="end" font-family="sans-serif">8</text><line x1="27.940" y1="5.080" x2="22.860" y2="5.080" stroke="#e6e9ef" stroke-width="0.2"/><circle cx="27.940" cy="5.080" r="0.4" fill="#4ea1ff"/><text x="22.360" y="5.430" fill="#e6e9ef" font-size="1.1" text-anchor="end" font-family="sans-serif">VOA</text><text x="23.160" y="4.730" fill="#9aa3b2" font-size="0.9" text-anchor="start" font-family="sans-serif">15</text><line x1="27.940" y1="12.700" x2="22.860" y2="12.700" stroke="#e6e9ef" stroke-width="0.2"/><circle cx="27.940" cy="12.700" r="0.4" fill="#4ea1ff"/><text x="22.360" y="13.050" fill="#e6e9ef" font-size="1.1" text-anchor="end" font-family="sans-serif">VOB</text><text x="23.160" y="12.350" fill="#9aa3b2" font-size="0.9" text-anchor="start" font-family="sans-serif">14</text><line x1="27.940" y1="20.320" x2="22.860" y2="20.320" stroke="#e6e9ef" stroke-width="0.2"/><circle cx="27.940" cy="20.320" r="0.4" fill="#4ea1ff"/><text x="22.360" y="20.670" fill="#e6e9ef" font-size="1.1" text-anchor="end" font-family="sans-serif">VOC</text><text x="23.160" y="19.970" fill="#9aa3b2" font-size="0.9" text-anchor="start" font-family="sans-serif">13</text><line x1="27.940" y1="27.940" x2="22.860" y2="27.940" stroke="#e6e9ef" stroke-width="0.2"/><circle cx="27.940" cy="27.940" r="0.4" fill="#4ea1ff"/><text x="22.360" y="28.290" fill="#e6e9ef" font-size="1.1" text-anchor="end" font-family="sans-serif">VID</text><text x="23.160" y="27.590" fill="#9aa3b2" font-size="0.9" text-anchor="start" font-family="sans-serif">12</text><line x1="27.940" y1="35.560" x2="22.860" y2="35.560" stroke="#e6e9ef" stroke-width="0.2"/><circle cx="27.940" cy="35.560" r="0.4" fill="#4ea1ff"/><text x="22.360" y="35.910" fill="#e6e9ef" font-size="1.1" text-anchor="end" font-family="sans-serif">VIE</text><text x="23.160" y="35.210" fill="#9aa3b2" font-size="0.9" text-anchor="start" font-family="sans-serif">11</text><line x1="27.940" y1="43.180" x2="22.860" y2="43.180" stroke="#e6e9ef" stroke-width="0.2"/><circle cx="27.940" cy="43.180" r="0.4" fill="#4ea1ff"/><text x="22.360" y="43.530" fill="#e6e9ef" font-size="1.1" text-anchor="end" font-family="sans-serif">VIF</text><text x="23.160" y="42.830" fill="#9aa3b2" font-size="0.9" text-anchor="start" font-family="sans-serif">10</text><line x1="27.940" y1="48.260" x2="22.860" y2="48.260" stroke="#e6e9ef" stroke-width="0.2"/><circle cx="27.940" cy="48.260" r="0.4" fill="#4ea1ff"/><text x="22.360" y="48.610" fill="#e6e9ef" font-size="1.1" text-anchor="end" font-family="sans-serif">VDD2</text><text x="23.160" y="47.910" fill="#9aa3b2" font-size="0.9" text-anchor="start" font-family="sans-serif">16</text><line x1="27.940" y1="50.800" x2="22.860" y2="50.800" stroke="#e6e9ef" stroke-width="0.2"/><circle cx="27.940" cy="50.800" r="0.4" fill="#4ea1ff"/><text x="22.360" y="51.150" fill="#e6e9ef" font-size="1.1" text-anchor="end" font-family="sans-serif">GND2</text><text x="23.160" y="50.450" fill="#9aa3b2" font-size="0.9" text-anchor="start" font-family="sans-serif">9</text></svg>