<svg xmlns="http://www.w3.org/2000/svg" viewBox="-5.15 -4.45 9.60 8.90" preserveAspectRatio="xMidYMid meet" style="width:100%;height:100%"><rect x="-5.15" y="-4.45" width="9.60" height="8.90" fill="#12151c"/><circle cx="-4.025" cy="-2.300" r="0.125" fill="none" stroke="#e6e9ef" stroke-width="0.12" opacity="1"/><rect x="-3.450" y="-1.808" width="0.975" height="0.350" rx="0.000" fill="#c79b5c"/><rect x="-3.450" y="-1.158" width="0.975" height="0.350" rx="0.000" fill="#c79b5c"/><rect x="-3.450" y="-0.500" width="0.975" height="0.350" rx="0.000" fill="#c79b5c"/><rect x="-3.450" y="0.138" width="0.975" height="0.350" rx="0.000" fill="#c79b5c"/><rect x="-3.450" y="0.808" width="0.975" height="0.350" rx="0.000" fill="#c79b5c"/><rect x="-3.450" y="1.458" width="0.975" height="0.350" rx="0.000" fill="#c79b5c"/><rect x="-3.100" y="2.475" width="0.350" height="0.975" rx="0.000" fill="#c79b5c"/><rect x="-2.450" y="2.475" width="0.350" height="0.975" rx="0.000" fill="#c79b5c"/><rect x="-1.800" y="2.475" width="0.350" height="0.975" rx="0.000" fill="#c79b5c"/><rect x="-1.150" y="2.475" width="0.350" height="0.975" rx="0.000" fill="#c79b5c"/><rect x="-0.500" y="2.475" width="0.350" height="0.975" rx="0.000" fill="#c79b5c"/><rect x="0.150" y="2.475" width="0.350" height="0.975" rx="0.000" fill="#c79b5c"/><rect x="0.800" y="2.475" width="0.350" height="0.975" rx="0.000" fill="#c79b5c"/><rect x="1.450" y="2.475" width="0.350" height="0.975" rx="0.000" fill="#c79b5c"/><rect x="2.100" y="2.475" width="0.350" height="0.975" rx="0.000" fill="#c79b5c"/><rect x="2.750" y="2.475" width="0.350" height="0.975" rx="0.000" fill="#c79b5c"/><rect x="2.475" y="1.458" width="0.975" height="0.350" rx="0.000" fill="#c79b5c"/><rect x="2.475" y="0.800" width="0.975" height="0.350" rx="0.000" fill="#c79b5c"/><rect x="2.475" y="0.150" width="0.975" height="0.350" rx="0.000" fill="#c79b5c"/><rect x="2.475" y="-0.500" width="0.975" height="0.350" rx="0.000" fill="#c79b5c"/><rect x="2.475" y="-1.158" width="0.975" height="0.350" rx="0.000" fill="#c79b5c"/><rect x="2.475" y="-1.808" width="0.975" height="0.350" rx="0.000" fill="#c79b5c"/><rect x="2.750" y="-3.450" width="0.350" height="0.975" rx="0.000" fill="#c79b5c"/><rect x="2.100" y="-3.450" width="0.350" height="0.975" rx="0.000" fill="#c79b5c"/><rect x="1.450" y="-3.450" width="0.350" height="0.975" rx="0.000" fill="#c79b5c"/><rect x="0.800" y="-3.450" width="0.350" height="0.975" rx="0.000" fill="#c79b5c"/><rect x="0.150" y="-3.450" width="0.350" height="0.975" rx="0.000" fill="#c79b5c"/><rect x="-0.500" y="-3.450" width="0.350" height="0.975" rx="0.000" fill="#c79b5c"/><rect x="-1.150" y="-3.450" width="0.350" height="0.975" rx="0.000" fill="#c79b5c"/><rect x="-1.800" y="-3.450" width="0.350" height="0.975" rx="0.000" fill="#c79b5c"/><rect x="-2.450" y="-3.450" width="0.350" height="0.975" rx="0.000" fill="#c79b5c"/><rect x="-3.100" y="-3.450" width="0.350" height="0.975" rx="0.000" fill="#c79b5c"/><rect x="-1.800" y="-1.800" width="3.600" height="3.600" rx="0.000" fill="#c79b5c"/></svg>