<svg xmlns="http://www.w3.org/2000/svg" viewBox="-1.50 -8.04 34.40 12.08" preserveAspectRatio="xMidYMid meet" style="width:100%;height:100%"><rect x="-1.50" y="-8.04" width="34.40" height="12.08" fill="#12151c"/><g transform="translate(0.00 0)"><polyline points="6.350,-2.540 3.810,-2.540 3.810,2.540 6.350,2.540 6.350,-2.540" fill="#1e222b" stroke="#4ea1ff" stroke-width="0.25" stroke-linejoin="round"/><polyline points="6.350,-1.270 3.810,1.270" fill="none" stroke="#4ea1ff" stroke-width="0.25" stroke-linejoin="round"/><line x1="0.000" y1="-0.000" x2="3.810" y2="-0.000" stroke="#e6e9ef" stroke-width="0.2"/><circle cx="0.000" cy="-0.000" r="0.4" fill="#4ea1ff"/><text x="3.510" y="-0.350" fill="#9aa3b2" font-size="0.9" text-anchor="end" font-family="sans-serif">1</text><line x1="10.160" y1="-0.000" x2="6.350" y2="-0.000" stroke="#e6e9ef" stroke-width="0.2"/><circle cx="10.160" cy="-0.000" r="0.4" fill="#4ea1ff"/><text x="6.650" y="-0.350" fill="#9aa3b2" font-size="0.9" text-anchor="start" font-family="sans-serif">2</text><text x="5.08" y="-4.54" fill="#9aa3b2" font-size="1.6" text-anchor="middle" font-family="sans-serif">A</text></g><g transform="translate(16.16 0)"><polyline points="9.906,-2.286 5.588,-0.254" fill="none" stroke="#4ea1ff" stroke-width="0.25" stroke-linejoin="round"/><circle cx="5.080" cy="-0.000" r="0.635" fill="none" stroke="#4ea1ff" stroke-width="0.25"/><circle cx="10.160" cy="-0.000" r="0.635" fill="none" stroke="#4ea1ff" stroke-width="0.25"/><line x1="0.000" y1="-0.000" x2="4.445" y2="-0.000" stroke="#e6e9ef" stroke-width="0.2"/><circle cx="0.000" cy="-0.000" r="0.4" fill="#4ea1ff"/><text x="4.145" y="-0.350" fill="#9aa3b2" font-size="0.9" text-anchor="end" font-family="sans-serif">5</text><line x1="15.240" y1="-0.000" x2="10.795" y2="-0.000" stroke="#e6e9ef" stroke-width="0.2"/><circle cx="15.240" cy="-0.000" r="0.4" fill="#4ea1ff"/><text x="11.095" y="-0.350" fill="#9aa3b2" font-size="0.9" text-anchor="start" font-family="sans-serif">6</text><text x="7.62" y="-4.29" fill="#9aa3b2" font-size="1.6" text-anchor="middle" font-family="sans-serif">B</text></g></svg>