<svg xmlns="http://www.w3.org/2000/svg" viewBox="-5.42 -19.90 10.85 25.15" preserveAspectRatio="xMidYMid meet" style="width:100%;height:100%"><rect x="-5.42" y="-19.90" width="10.85" height="25.15" fill="#12151c"/><line x1="-4.172" y1="-18.650" x2="4.177" y2="-18.650" stroke="#e6e9ef" stroke-width="0.200" stroke-linecap="round" opacity="1"/><line x1="-4.172" y1="-3.850" x2="-4.172" y2="-18.650" stroke="#e6e9ef" stroke-width="0.200" stroke-linecap="round" opacity="1"/><line x1="-4.172" y1="-3.850" x2="-1.600" y2="-3.850" stroke="#e6e9ef" stroke-width="0.200" stroke-linecap="round" opacity="1"/><line x1="-1.147" y1="-16.048" x2="1.153" y2="-16.048" stroke="#e6e9ef" stroke-width="0.200" stroke-linecap="round" opacity="1"/><line x1="-1.147" y1="-15.448" x2="-1.147" y2="-18.650" stroke="#e6e9ef" stroke-width="0.200" stroke-linecap="round" opacity="1"/><line x1="-1.147" y1="-15.448" x2="1.153" y2="-15.448" stroke="#e6e9ef" stroke-width="0.200" stroke-linecap="round" opacity="1"/><line x1="-0.565" y1="1.253" x2="-0.565" y2="-1.150" stroke="#e6e9ef" stroke-width="0.200" stroke-linecap="round" opacity="1"/><line x1="0.562" y1="1.252" x2="0.562" y2="-1.150" stroke="#e6e9ef" stroke-width="0.200" stroke-linecap="round" opacity="1"/><line x1="1.153" y1="-15.448" x2="1.153" y2="-18.650" stroke="#e6e9ef" stroke-width="0.200" stroke-linecap="round" opacity="1"/><line x1="1.600" y1="-3.850" x2="4.177" y2="-3.850" stroke="#e6e9ef" stroke-width="0.200" stroke-linecap="round" opacity="1"/><line x1="4.177" y1="-3.850" x2="4.177" y2="-18.650" stroke="#e6e9ef" stroke-width="0.200" stroke-linecap="round" opacity="1"/><line x1="-0.500" y1="-10.050" x2="0.000" y2="-10.050" stroke="#4a5160" stroke-width="0.100" stroke-linecap="round" opacity="0.7"/><line x1="-0.500" y1="-2.750" x2="0.000" y2="-2.750" stroke="#4a5160" stroke-width="0.100" stroke-linecap="round" opacity="0.7"/><line x1="-0.500" y1="0.000" x2="0.000" y2="0.000" stroke="#4a5160" stroke-width="0.100" stroke-linecap="round" opacity="0.7"/><line x1="-0.500" y1="2.750" x2="0.000" y2="2.750" stroke="#4a5160" stroke-width="0.100" stroke-linecap="round" opacity="0.7"/><line x1="0.000" y1="-10.050" x2="0.000" y2="-10.550" stroke="#4a5160" stroke-width="0.100" stroke-linecap="round" opacity="0.7"/><line x1="0.000" y1="-10.050" x2="0.500" y2="-10.050" stroke="#4a5160" stroke-width="0.100" stroke-linecap="round" opacity="0.7"/><line x1="0.000" y1="-9.550" x2="0.000" y2="-10.050" stroke="#4a5160" stroke-width="0.100" stroke-linecap="round" opacity="0.7"/><line x1="0.000" y1="-2.750" x2="0.000" y2="-3.250" stroke="#4a5160" stroke-width="0.100" stroke-linecap="round" opacity="0.7"/><line x1="0.000" y1="-2.750" x2="0.500" y2="-2.750" stroke="#4a5160" stroke-width="0.100" stroke-linecap="round" opacity="0.7"/><line x1="0.000" y1="-2.250" x2="0.000" y2="-2.750" stroke="#4a5160" stroke-width="0.100" stroke-linecap="round" opacity="0.7"/><line x1="0.000" y1="0.000" x2="0.000" y2="-0.500" stroke="#4a5160" stroke-width="0.100" stroke-linecap="round" opacity="0.7"/><line x1="0.000" y1="0.000" x2="0.500" y2="0.000" stroke="#4a5160" stroke-width="0.100" stroke-linecap="round" opacity="0.7"/><line x1="0.000" y1="0.500" x2="0.000" y2="0.000" stroke="#4a5160" stroke-width="0.100" stroke-linecap="round" opacity="0.7"/><line x1="0.000" y1="2.750" x2="0.000" y2="2.250" stroke="#4a5160" stroke-width="0.100" stroke-linecap="round" opacity="0.7"/><line x1="0.000" y1="2.750" x2="0.500" y2="2.750" stroke="#4a5160" stroke-width="0.100" stroke-linecap="round" opacity="0.7"/><line x1="0.000" y1="3.250" x2="0.000" y2="2.750" stroke="#4a5160" stroke-width="0.100" stroke-linecap="round" opacity="0.7"/><line x1="-4.172" y1="-18.650" x2="4.177" y2="-18.650" stroke="#6b7280" stroke-width="0.100" stroke-linecap="round" opacity="0.8"/><line x1="-4.172" y1="-3.850" x2="-4.172" y2="-18.650" stroke="#6b7280" stroke-width="0.100" stroke-linecap="round" opacity="0.8"/><line x1="-4.172" y1="-3.850" x2="4.177" y2="-3.850" stroke="#6b7280" stroke-width="0.100" stroke-linecap="round" opacity="0.8"/><line x1="-1.147" y1="-16.048" x2="1.153" y2="-16.048" stroke="#6b7280" stroke-width="0.100" stroke-linecap="round" opacity="0.8"/><line x1="-1.147" y1="-15.448" x2="-1.147" y2="-18.650" stroke="#6b7280" stroke-width="0.100" stroke-linecap="round" opacity="0.8"/><line x1="-1.147" y1="-15.448" x2="1.153" y2="-15.448" stroke="#6b7280" stroke-width="0.100" stroke-linecap="round" opacity="0.8"/><line x1="-0.565" y1="3.312" x2="-0.565" y2="-3.850" stroke="#6b7280" stroke-width="0.100" stroke-linecap="round" opacity="0.8"/><line x1="-0.565" y1="3.312" x2="0.562" y2="3.312" stroke="#6b7280" stroke-width="0.100" stroke-linecap="round" opacity="0.8"/><line x1="0.562" y1="3.312" x2="0.562" y2="-3.850" stroke="#6b7280" stroke-width="0.100" stroke-linecap="round" opacity="0.8"/><line x1="1.153" y1="-15.448" x2="1.153" y2="-18.650" stroke="#6b7280" stroke-width="0.100" stroke-linecap="round" opacity="0.8"/><line x1="4.177" y1="-3.850" x2="4.177" y2="-18.650" stroke="#6b7280" stroke-width="0.100" stroke-linecap="round" opacity="0.8"/><line x1="-4.420" y1="-18.900" x2="4.430" y2="-18.900" stroke="#d24d4d" stroke-width="0.080" stroke-linecap="round" opacity="0.7"/><line x1="4.430" y1="-18.900" x2="4.430" y2="4.250" stroke="#d24d4d" stroke-width="0.080" stroke-linecap="round" opacity="0.7"/><line x1="4.430" y1="4.250" x2="-4.420" y2="4.250" stroke="#d24d4d" stroke-width="0.080" stroke-linecap="round" opacity="0.7"/><line x1="-4.420" y1="4.250" x2="-4.420" y2="-18.900" stroke="#d24d4d" stroke-width="0.080" stroke-linecap="round" opacity="0.7"/><circle cx="-2.250" cy="-2.750" r="0.150" fill="none" stroke="#e6e9ef" stroke-width="0.12" opacity="1"/><circle cx="0.000" cy="-10.050" r="0.500" fill="none" stroke="#6b7280" stroke-width="0.1"/><rect x="-1.250" y="-4.000" width="2.500" height="2.500" rx="0.000" fill="#c79b5c"/><circle cx="0.000" cy="-2.750" r="0.900" fill="#12151c"/><rect x="-1.250" y="1.500" width="2.500" height="2.500" rx="1.250" fill="#c79b5c"/><circle cx="0.000" cy="2.750" r="0.900" fill="#12151c"/></svg>