<svg xmlns="http://www.w3.org/2000/svg" viewBox="-20.82 -19.10 41.64 24.55" preserveAspectRatio="xMidYMid meet" style="width:100%;height:100%"><rect x="-20.82" y="-19.10" width="41.64" height="24.55" fill="#12151c"/><line x1="-19.820" y1="-18.100" x2="19.820" y2="-18.100" stroke="#d24d4d" stroke-width="0.080" stroke-linecap="round" opacity="0.7"/><line x1="19.820" y1="-18.100" x2="19.820" y2="3.300" stroke="#d24d4d" stroke-width="0.080" stroke-linecap="round" opacity="0.7"/><line x1="19.820" y1="3.300" x2="-19.820" y2="3.300" stroke="#d24d4d" stroke-width="0.080" stroke-linecap="round" opacity="0.7"/><line x1="-19.820" y1="3.300" x2="-19.820" y2="-18.100" stroke="#d24d4d" stroke-width="0.080" stroke-linecap="round" opacity="0.7"/><path d="M -17.270 -5.550 A 0.197 0.197 0 0 1 -17.468 -5.750" fill="none" stroke="#e6e9ef" stroke-width="0.12" opacity="1"/><path d="M -17.060 2.700 A 2.500 2.500 0 0 1 -19.560 0.200" fill="none" stroke="#e6e9ef" stroke-width="0.12" opacity="1"/><path d="M -15.870 -5.750 A 0.200 0.200 0 0 1 -16.070 -5.550" fill="none" stroke="#e6e9ef" stroke-width="0.12" opacity="1"/><path d="M -13.760 0.200 A 2.500 2.500 0 0 1 -16.260 2.700" fill="none" stroke="#e6e9ef" stroke-width="0.12" opacity="1"/><path d="M -13.088 -12.400 A 0.695 0.695 0 0 1 -13.777 -11.700" fill="none" stroke="#e6e9ef" stroke-width="0.12" opacity="1"/><path d="M -13.088 -16.421 A 1.652 1.652 0 0 1 -12.595 -17.600" fill="none" stroke="#e6e9ef" stroke-width="0.12" opacity="1"/><path d="M 12.595 -17.600 A 1.652 1.652 0 0 1 13.088 -16.421" fill="none" stroke="#e6e9ef" stroke-width="0.12" opacity="1"/><path d="M 13.835 -11.700 A 0.698 0.698 0 0 1 13.088 -12.400" fill="none" stroke="#e6e9ef" stroke-width="0.12" opacity="1"/><path d="M 16.060 -5.550 A 0.197 0.197 0 0 1 15.862 -5.750" fill="none" stroke="#e6e9ef" stroke-width="0.12" opacity="1"/><path d="M 16.260 2.700 A 2.500 2.500 0 0 1 13.760 0.200" fill="none" stroke="#e6e9ef" stroke-width="0.12" opacity="1"/><path d="M 17.460 -5.750 A 0.200 0.200 0 0 1 17.260 -5.550" fill="none" stroke="#e6e9ef" stroke-width="0.12" opacity="1"/><path d="M 19.560 0.203 A 2.500 2.500 0 0 1 17.060 2.700" fill="none" stroke="#e6e9ef" stroke-width="0.12" opacity="1"/><path d="M -17.270 -5.550 A 0.197 0.197 0 0 1 -17.468 -5.750" fill="none" stroke="#6b7280" stroke-width="0.12" opacity="0.8"/><path d="M -17.060 2.700 A 2.500 2.500 0 0 1 -19.560 0.200" fill="none" stroke="#6b7280" stroke-width="0.12" opacity="0.8"/><path d="M -15.870 -5.750 A 0.200 0.200 0 0 1 -16.070 -5.550" fill="none" stroke="#6b7280" stroke-width="0.12" opacity="0.8"/><path d="M -13.760 0.200 A 2.500 2.500 0 0 1 -16.260 2.700" fill="none" stroke="#6b7280" stroke-width="0.12" opacity="0.8"/><path d="M -13.088 -12.400 A 0.695 0.695 0 0 1 -13.777 -11.700" fill="none" stroke="#6b7280" stroke-width="0.12" opacity="0.8"/><path d="M -13.088 -16.421 A 1.652 1.652 0 0 1 -12.595 -17.600" fill="none" stroke="#6b7280" stroke-width="0.12" opacity="0.8"/><path d="M 12.595 -17.600 A 1.652 1.652 0 0 1 13.088 -16.421" fill="none" stroke="#6b7280" stroke-width="0.12" opacity="0.8"/><path d="M 13.835 -11.700 A 0.698 0.698 0 0 1 13.088 -12.400" fill="none" stroke="#6b7280" stroke-width="0.12" opacity="0.8"/><path d="M 16.060 -5.550 A 0.197 0.197 0 0 1 15.862 -5.750" fill="none" stroke="#6b7280" stroke-width="0.12" opacity="0.8"/><path d="M 16.260 2.700 A 2.500 2.500 0 0 1 13.760 0.200" fill="none" stroke="#6b7280" stroke-width="0.12" opacity="0.8"/><path d="M 17.460 -5.750 A 0.200 0.200 0 0 1 17.260 -5.550" fill="none" stroke="#6b7280" stroke-width="0.12" opacity="0.8"/><path d="M 19.560 0.203 A 2.500 2.500 0 0 1 17.060 2.700" fill="none" stroke="#6b7280" stroke-width="0.12" opacity="0.8"/><circle cx="9.610" cy="4.200" r="0.250" fill="none" stroke="#e6e9ef" stroke-width="0.12" opacity="1"/><rect x="8.740" y="0.420" width="1.700" height="1.700" rx="0.850" fill="#c79b5c"/><circle cx="9.590" cy="1.270" r="0.500" fill="#12151c"/><rect x="6.000" y="0.420" width="1.700" height="1.700" rx="0.850" fill="#c79b5c"/><circle cx="6.850" cy="1.270" r="0.500" fill="#12151c"/><rect x="3.260" y="0.420" width="1.700" height="1.700" rx="0.850" fill="#c79b5c"/><circle cx="4.110" cy="1.270" r="0.500" fill="#12151c"/><rect x="0.520" y="0.420" width="1.700" height="1.700" rx="0.850" fill="#c79b5c"/><circle cx="1.370" cy="1.270" r="0.500" fill="#12151c"/><rect x="-2.220" y="0.420" width="1.700" height="1.700" rx="0.850" fill="#c79b5c"/><circle cx="-1.370" cy="1.270" r="0.500" fill="#12151c"/><rect x="-4.960" y="0.420" width="1.700" height="1.700" rx="0.850" fill="#c79b5c"/><circle cx="-4.110" cy="1.270" r="0.500" fill="#12151c"/><rect x="-7.700" y="0.420" width="1.700" height="1.700" rx="0.850" fill="#c79b5c"/><circle cx="-6.850" cy="1.270" r="0.500" fill="#12151c"/><rect x="-10.440" y="0.420" width="1.700" height="1.700" rx="0.850" fill="#c79b5c"/><circle cx="-9.590" cy="1.270" r="0.500" fill="#12151c"/><rect x="7.370" y="-2.120" width="1.700" height="1.700" rx="0.850" fill="#c79b5c"/><circle cx="8.220" cy="-1.270" r="0.500" fill="#12151c"/><rect x="4.630" y="-2.120" width="1.700" height="1.700" rx="0.850" fill="#c79b5c"/><circle cx="5.480" cy="-1.270" r="0.500" fill="#12151c"/><rect x="1.890" y="-2.120" width="1.700" height="1.700" rx="0.850" fill="#c79b5c"/><circle cx="2.740" cy="-1.270" r="0.500" fill="#12151c"/><rect x="-0.850" y="-2.120" width="1.700" height="1.700" rx="0.850" fill="#c79b5c"/><circle cx="0.000" cy="-1.270" r="0.500" fill="#12151c"/><rect x="-3.590" y="-2.120" width="1.700" height="1.700" rx="0.850" fill="#c79b5c"/><circle cx="-2.740" cy="-1.270" r="0.500" fill="#12151c"/><rect x="-6.330" y="-2.120" width="1.700" height="1.700" rx="0.850" fill="#c79b5c"/><circle cx="-5.480" cy="-1.270" r="0.500" fill="#12151c"/><rect x="-9.070" y="-2.120" width="1.700" height="1.700" rx="0.850" fill="#c79b5c"/><circle cx="-8.220" cy="-1.270" r="0.500" fill="#12151c"/><rect x="-18.610" y="-1.950" width="3.900" height="3.900" rx="1.950" fill="#c79b5c"/><circle cx="-16.660" cy="0.000" r="1.600" fill="#12151c"/><rect x="14.710" y="-1.950" width="3.900" height="3.900" rx="1.950" fill="#c79b5c"/><circle cx="16.660" cy="0.000" r="1.600" fill="#12151c"/></svg>