<svg xmlns="http://www.w3.org/2000/svg" viewBox="-3.77 -3.60 7.38 7.20" preserveAspectRatio="xMidYMid meet" style="width:100%;height:100%"><rect x="-3.77" y="-3.60" width="7.38" height="7.20" fill="#12151c"/><line x1="-1.950" y1="-1.950" x2="1.950" y2="-1.950" stroke="#e6e9ef" stroke-width="0.200" stroke-linecap="round" opacity="1"/><line x1="-1.950" y1="1.950" x2="-1.950" y2="-1.950" stroke="#e6e9ef" stroke-width="0.200" stroke-linecap="round" opacity="1"/><line x1="-1.950" y1="1.950" x2="1.950" y2="1.950" stroke="#e6e9ef" stroke-width="0.200" stroke-linecap="round" opacity="1"/><line x1="-1.900" y1="-1.700" x2="-1.700" y2="-1.900" stroke="#e6e9ef" stroke-width="0.200" stroke-linecap="round" opacity="1"/><line x1="-1.900" y1="-1.500" x2="-1.500" y2="-1.900" stroke="#e6e9ef" stroke-width="0.200" stroke-linecap="round" opacity="1"/><line x1="1.950" y1="1.950" x2="1.950" y2="-1.950" stroke="#e6e9ef" stroke-width="0.200" stroke-linecap="round" opacity="1"/><line x1="-2.700" y1="-2.600" x2="2.600" y2="-2.600" stroke="#d24d4d" stroke-width="0.080" stroke-linecap="round" opacity="0.7"/><line x1="-2.700" y1="2.600" x2="-2.700" y2="-2.600" stroke="#d24d4d" stroke-width="0.080" stroke-linecap="round" opacity="0.7"/><line x1="-2.700" y1="2.600" x2="2.600" y2="2.600" stroke="#d24d4d" stroke-width="0.080" stroke-linecap="round" opacity="0.7"/><line x1="2.600" y1="2.600" x2="2.600" y2="-2.600" stroke="#d24d4d" stroke-width="0.080" stroke-linecap="round" opacity="0.7"/><line x1="-1.700" y1="-1.620" x2="-1.600" y2="-1.720" stroke="#6b7280" stroke-width="0.100" stroke-linecap="round" opacity="0.8"/><line x1="-1.700" y1="-1.520" x2="-1.500" y2="-1.720" stroke="#6b7280" stroke-width="0.100" stroke-linecap="round" opacity="0.8"/><line x1="-1.700" y1="-1.420" x2="-1.400" y2="-1.720" stroke="#6b7280" stroke-width="0.100" stroke-linecap="round" opacity="0.8"/><line x1="-1.700" y1="-1.320" x2="-1.300" y2="-1.720" stroke="#6b7280" stroke-width="0.100" stroke-linecap="round" opacity="0.8"/><line x1="-1.700" y1="-1.220" x2="-1.200" y2="-1.720" stroke="#6b7280" stroke-width="0.100" stroke-linecap="round" opacity="0.8"/><line x1="-1.700" y1="-1.120" x2="-1.100" y2="-1.720" stroke="#6b7280" stroke-width="0.100" stroke-linecap="round" opacity="0.8"/><line x1="-1.700" y1="-1.020" x2="-1.000" y2="-1.720" stroke="#6b7280" stroke-width="0.100" stroke-linecap="round" opacity="0.8"/><line x1="-1.700" y1="-0.920" x2="-0.900" y2="-1.720" stroke="#6b7280" stroke-width="0.100" stroke-linecap="round" opacity="0.8"/><line x1="-1.700" y1="-0.820" x2="-0.800" y2="-1.720" stroke="#6b7280" stroke-width="0.100" stroke-linecap="round" opacity="0.8"/><line x1="-1.700" y1="-0.720" x2="-0.700" y2="-1.720" stroke="#6b7280" stroke-width="0.100" stroke-linecap="round" opacity="0.8"/><line x1="-1.696" y1="-1.716" x2="1.696" y2="-1.716" stroke="#6b7280" stroke-width="0.100" stroke-linecap="round" opacity="0.8"/><line x1="-1.696" y1="1.716" x2="-1.696" y2="-1.716" stroke="#6b7280" stroke-width="0.100" stroke-linecap="round" opacity="0.8"/><line x1="-1.696" y1="1.716" x2="1.696" y2="1.716" stroke="#6b7280" stroke-width="0.100" stroke-linecap="round" opacity="0.8"/><line x1="1.696" y1="1.716" x2="1.696" y2="-1.716" stroke="#6b7280" stroke-width="0.100" stroke-linecap="round" opacity="0.8"/><circle cx="-2.650" cy="-1.400" r="0.125" fill="none" stroke="#e6e9ef" stroke-width="0.12" opacity="1"/><rect x="-1.500" y="-1.500" width="0.200" height="0.200" rx="0.100" fill="#c79b5c"/><rect x="-1.100" y="-1.500" width="0.200" height="0.200" rx="0.100" fill="#c79b5c"/><rect x="-0.700" y="-1.500" width="0.200" height="0.200" rx="0.100" fill="#c79b5c"/><rect x="-0.300" y="-1.500" width="0.200" height="0.200" rx="0.100" fill="#c79b5c"/><rect x="0.100" y="-1.500" width="0.200" height="0.200" rx="0.100" fill="#c79b5c"/><rect x="0.500" y="-1.500" width="0.200" height="0.200" rx="0.100" fill="#c79b5c"/><rect x="0.900" y="-1.500" width="0.200" height="0.200" rx="0.100" fill="#c79b5c"/><rect x="1.300" y="-1.500" width="0.200" height="0.200" rx="0.100" fill="#c79b5c"/><rect x="-1.500" y="-1.100" width="0.200" height="0.200" rx="0.100" fill="#c79b5c"/><rect x="-1.100" y="-1.100" width="0.200" height="0.200" rx="0.100" fill="#c79b5c"/><rect x="-0.700" y="-1.100" width="0.200" height="0.200" rx="0.100" fill="#c79b5c"/><rect x="-0.300" y="-1.100" width="0.200" height="0.200" rx="0.100" fill="#c79b5c"/><rect x="0.100" y="-1.100" width="0.200" height="0.200" rx="0.100" fill="#c79b5c"/><rect x="0.500" y="-1.100" width="0.200" height="0.200" rx="0.100" fill="#c79b5c"/><rect x="0.900" y="-1.100" width="0.200" height="0.200" rx="0.100" fill="#c79b5c"/><rect x="1.300" y="-1.100" width="0.200" height="0.200" rx="0.100" fill="#c79b5c"/><rect x="-1.500" y="-0.700" width="0.200" height="0.200" rx="0.100" fill="#c79b5c"/><rect x="-1.100" y="-0.700" width="0.200" height="0.200" rx="0.100" fill="#c79b5c"/><rect x="-0.700" y="-0.700" width="0.200" height="0.200" rx="0.100" fill="#c79b5c"/><rect x="-0.300" y="-0.700" width="0.200" height="0.200" rx="0.100" fill="#c79b5c"/><rect x="0.100" y="-0.700" width="0.200" height="0.200" rx="0.100" fill="#c79b5c"/><rect x="0.500" y="-0.700" width="0.200" height="0.200" rx="0.100" fill="#c79b5c"/><rect x="0.900" y="-0.700" width="0.200" height="0.200" rx="0.100" fill="#c79b5c"/><rect x="1.300" y="-0.700" width="0.200" height="0.200" rx="0.100" fill="#c79b5c"/><rect x="-1.500" y="-0.300" width="0.200" height="0.200" rx="0.100" fill="#c79b5c"/><rect x="-1.100" y="-0.300" width="0.200" height="0.200" rx="0.100" fill="#c79b5c"/><rect x="-0.700" y="-0.300" width="0.200" height="0.200" rx="0.100" fill="#c79b5c"/><rect x="-0.300" y="-0.300" width="0.200" height="0.200" rx="0.100" fill="#c79b5c"/><rect x="0.100" y="-0.300" width="0.200" height="0.200" rx="0.100" fill="#c79b5c"/><rect x="0.500" y="-0.300" width="0.200" height="0.200" rx="0.100" fill="#c79b5c"/><rect x="0.900" y="-0.300" width="0.200" height="0.200" rx="0.100" fill="#c79b5c"/><rect x="1.300" y="-0.300" width="0.200" height="0.200" rx="0.100" fill="#c79b5c"/><rect x="-1.500" y="0.100" width="0.200" height="0.200" rx="0.100" fill="#c79b5c"/><rect x="-1.100" y="0.100" width="0.200" height="0.200" rx="0.100" fill="#c79b5c"/><rect x="-0.700" y="0.100" width="0.200" height="0.200" rx="0.100" fill="#c79b5c"/><rect x="-0.300" y="0.100" width="0.200" height="0.200" rx="0.100" fill="#c79b5c"/><rect x="0.100" y="0.100" width="0.200" height="0.200" rx="0.100" fill="#c79b5c"/><rect x="0.500" y="0.100" width="0.200" height="0.200" rx="0.100" fill="#c79b5c"/><rect x="0.900" y="0.100" width="0.200" height="0.200" rx="0.100" fill="#c79b5c"/><rect x="1.300" y="0.100" width="0.200" height="0.200" rx="0.100" fill="#c79b5c"/><rect x="-1.500" y="0.500" width="0.200" height="0.200" rx="0.100" fill="#c79b5c"/><rect x="-1.100" y="0.500" width="0.200" height="0.200" rx="0.100" fill="#c79b5c"/><rect x="-0.700" y="0.500" width="0.200" height="0.200" rx="0.100" fill="#c79b5c"/><rect x="-0.300" y="0.500" width="0.200" height="0.200" rx="0.100" fill="#c79b5c"/><rect x="0.100" y="0.500" width="0.200" height="0.200" rx="0.100" fill="#c79b5c"/><rect x="0.500" y="0.500" width="0.200" height="0.200" rx="0.100" fill="#c79b5c"/><rect x="0.900" y="0.500" width="0.200" height="0.200" rx="0.100" fill="#c79b5c"/><rect x="1.300" y="0.500" width="0.200" height="0.200" rx="0.100" fill="#c79b5c"/><rect x="-1.500" y="0.900" width="0.200" height="0.200" rx="0.100" fill="#c79b5c"/><rect x="-1.100" y="0.900" width="0.200" height="0.200" rx="0.100" fill="#c79b5c"/><rect x="-0.700" y="0.900" width="0.200" height="0.200" rx="0.100" fill="#c79b5c"/><rect x="-0.300" y="0.900" width="0.200" height="0.200" rx="0.100" fill="#c79b5c"/><rect x="0.100" y="0.900" width="0.200" height="0.200" rx="0.100" fill="#c79b5c"/><rect x="0.500" y="0.900" width="0.200" height="0.200" rx="0.100" fill="#c79b5c"/><rect x="0.900" y="0.900" width="0.200" height="0.200" rx="0.100" fill="#c79b5c"/><rect x="1.300" y="0.900" width="0.200" height="0.200" rx="0.100" fill="#c79b5c"/><rect x="-1.500" y="1.300" width="0.200" height="0.200" rx="0.100" fill="#c79b5c"/><rect x="-1.100" y="1.300" width="0.200" height="0.200" rx="0.100" fill="#c79b5c"/><rect x="-0.700" y="1.300" width="0.200" height="0.200" rx="0.100" fill="#c79b5c"/><rect x="-0.300" y="1.300" width="0.200" height="0.200" rx="0.100" fill="#c79b5c"/><rect x="0.100" y="1.300" width="0.200" height="0.200" rx="0.100" fill="#c79b5c"/><rect x="0.500" y="1.300" width="0.200" height="0.200" rx="0.100" fill="#c79b5c"/><rect x="0.900" y="1.300" width="0.200" height="0.200" rx="0.100" fill="#c79b5c"/><rect x="1.300" y="1.300" width="0.200" height="0.200" rx="0.100" fill="#c79b5c"/></svg>