<svg xmlns="http://www.w3.org/2000/svg" viewBox="-1.50 -6.77 24.24 17.16" preserveAspectRatio="xMidYMid meet" style="width:100%;height:100%"><rect x="-1.50" y="-6.77" width="24.24" height="17.16" fill="#12151c"/><g transform="translate(2.54 0)"><rect x="0.000" y="-0.000" width="5.080" height="7.620" fill="#1e222b" stroke="#4ea1ff" stroke-width="0.25"/><polyline points="0.000,3.810 2.540,3.810" fill="none" stroke="#4ea1ff" stroke-width="0.25" stroke-linejoin="round"/><polyline points="1.270,1.143 3.810,1.143" fill="none" stroke="#4ea1ff" stroke-width="0.25" stroke-linejoin="round"/><polyline points="1.270,5.207 3.810,5.207" fill="none" stroke="#4ea1ff" stroke-width="0.25" stroke-linejoin="round"/><polyline points="2.540,7.620 2.540,-0.000" fill="none" stroke="#4ea1ff" stroke-width="0.25" stroke-linejoin="round"/><polyline points="3.810,2.413 2.540,1.143 1.270,2.413 3.810,2.413" fill="#1e222b" stroke="#4ea1ff" stroke-width="0.25" stroke-linejoin="round"/><polyline points="3.810,6.477 2.540,5.207 1.270,6.477 3.810,6.477" fill="#1e222b" stroke="#4ea1ff" stroke-width="0.25" stroke-linejoin="round"/><circle cx="2.540" cy="3.810" r="0.381" fill="none" stroke="#4ea1ff" stroke-width="0.25"/><line x1="-2.540" y1="3.810" x2="0.000" y2="3.810" stroke="#e6e9ef" stroke-width="0.2"/><circle cx="-2.540" cy="3.810" r="0.4" fill="#4ea1ff"/><line x1="2.540" y1="-1.270" x2="2.540" y2="-0.000" stroke="#e6e9ef" stroke-width="0.2"/><circle cx="2.540" cy="-1.270" r="0.4" fill="#4ea1ff"/><line x1="2.540" y1="8.890" x2="2.540" y2="7.620" stroke="#e6e9ef" stroke-width="0.2"/><circle cx="2.540" cy="8.890" r="0.4" fill="#4ea1ff"/><text x="1.27" y="-3.27" fill="#9aa3b2" font-size="1.6" text-anchor="middle" font-family="sans-serif">A</text></g><g transform="translate(16.16 0)"><rect x="0.000" y="-0.000" width="5.080" height="7.620" fill="#1e222b" stroke="#4ea1ff" stroke-width="0.25"/><polyline points="0.000,3.810 2.540,3.810" fill="none" stroke="#4ea1ff" stroke-width="0.25" stroke-linejoin="round"/><polyline points="1.270,1.143 3.810,1.143" fill="none" stroke="#4ea1ff" stroke-width="0.25" stroke-linejoin="round"/><polyline points="1.270,5.207 3.810,5.207" fill="none" stroke="#4ea1ff" stroke-width="0.25" stroke-linejoin="round"/><polyline points="2.540,7.620 2.540,-0.000" fill="none" stroke="#4ea1ff" stroke-width="0.25" stroke-linejoin="round"/><polyline points="3.810,2.413 2.540,1.143 1.270,2.413 3.810,2.413" fill="#1e222b" stroke="#4ea1ff" stroke-width="0.25" stroke-linejoin="round"/><polyline points="3.810,6.477 2.540,5.207 1.270,6.477 3.810,6.477" fill="#1e222b" stroke="#4ea1ff" stroke-width="0.25" stroke-linejoin="round"/><circle cx="2.540" cy="3.810" r="0.381" fill="none" stroke="#4ea1ff" stroke-width="0.25"/><line x1="-2.540" y1="3.810" x2="0.000" y2="3.810" stroke="#e6e9ef" stroke-width="0.2"/><circle cx="-2.540" cy="3.810" r="0.4" fill="#4ea1ff"/><line x1="2.540" y1="-1.270" x2="2.540" y2="-0.000" stroke="#e6e9ef" stroke-width="0.2"/><circle cx="2.540" cy="-1.270" r="0.4" fill="#4ea1ff"/><line x1="2.540" y1="8.890" x2="2.540" y2="7.620" stroke="#e6e9ef" stroke-width="0.2"/><circle cx="2.540" cy="8.890" r="0.4" fill="#4ea1ff"/><text x="1.27" y="-3.27" fill="#9aa3b2" font-size="1.6" text-anchor="middle" font-family="sans-serif">B</text></g></svg>