<svg xmlns="http://www.w3.org/2000/svg" viewBox="-3.65 -2.85 7.30 5.70" preserveAspectRatio="xMidYMid meet" style="width:100%;height:100%"><rect x="-3.65" y="-2.85" width="7.30" height="5.70" fill="#12151c"/><line x1="-2.100" y1="-1.050" x2="-1.550" y2="-1.600" stroke="#e6e9ef" stroke-width="0.200" stroke-linecap="round" opacity="1"/><line x1="-2.100" y1="1.050" x2="-1.550" y2="1.600" stroke="#e6e9ef" stroke-width="0.200" stroke-linecap="round" opacity="1"/><line x1="-1.550" y1="-1.600" x2="2.250" y2="-1.600" stroke="#e6e9ef" stroke-width="0.200" stroke-linecap="round" opacity="1"/><line x1="-1.550" y1="1.600" x2="2.250" y2="1.600" stroke="#e6e9ef" stroke-width="0.200" stroke-linecap="round" opacity="1"/><line x1="-0.825" y1="0.000" x2="-0.225" y2="-0.300" stroke="#e6e9ef" stroke-width="0.200" stroke-linecap="round" opacity="1"/><line x1="-0.825" y1="0.000" x2="-0.225" y2="0.292" stroke="#e6e9ef" stroke-width="0.200" stroke-linecap="round" opacity="1"/><line x1="-0.225" y1="0.974" x2="-0.225" y2="-0.974" stroke="#e6e9ef" stroke-width="0.200" stroke-linecap="round" opacity="1"/><line x1="0.225" y1="0.974" x2="0.225" y2="-0.974" stroke="#e6e9ef" stroke-width="0.200" stroke-linecap="round" opacity="1"/><line x1="2.250" y1="-1.050" x2="2.250" y2="-1.600" stroke="#e6e9ef" stroke-width="0.200" stroke-linecap="round" opacity="1"/><line x1="2.250" y1="1.600" x2="2.250" y2="1.050" stroke="#e6e9ef" stroke-width="0.200" stroke-linecap="round" opacity="1"/><line x1="-2.400" y1="-0.700" x2="-1.950" y2="0.000" stroke="#4a5160" stroke-width="0.080" stroke-linecap="round" opacity="0.7"/><line x1="-2.400" y1="-0.700" x2="-1.500" y2="-0.700" stroke="#4a5160" stroke-width="0.080" stroke-linecap="round" opacity="0.7"/><line x1="-2.400" y1="0.700" x2="-2.400" y2="-0.700" stroke="#4a5160" stroke-width="0.080" stroke-linecap="round" opacity="0.7"/><line x1="-2.400" y1="0.700" x2="-1.950" y2="0.000" stroke="#4a5160" stroke-width="0.080" stroke-linecap="round" opacity="0.7"/><line x1="-2.400" y1="0.700" x2="-1.500" y2="0.700" stroke="#4a5160" stroke-width="0.080" stroke-linecap="round" opacity="0.7"/><line x1="-1.500" y1="0.700" x2="-1.500" y2="-0.700" stroke="#4a5160" stroke-width="0.080" stroke-linecap="round" opacity="0.7"/><line x1="-0.500" y1="0.000" x2="0.000" y2="0.000" stroke="#4a5160" stroke-width="0.080" stroke-linecap="round" opacity="0.7"/><line x1="0.000" y1="0.000" x2="0.000" y2="-0.500" stroke="#4a5160" stroke-width="0.080" stroke-linecap="round" opacity="0.7"/><line x1="0.000" y1="0.000" x2="0.500" y2="0.000" stroke="#4a5160" stroke-width="0.080" stroke-linecap="round" opacity="0.7"/><line x1="0.000" y1="0.500" x2="0.000" y2="0.000" stroke="#4a5160" stroke-width="0.080" stroke-linecap="round" opacity="0.7"/><line x1="1.500" y1="-0.700" x2="2.400" y2="-0.700" stroke="#4a5160" stroke-width="0.080" stroke-linecap="round" opacity="0.7"/><line x1="1.500" y1="0.700" x2="1.500" y2="-0.700" stroke="#4a5160" stroke-width="0.080" stroke-linecap="round" opacity="0.7"/><line x1="1.500" y1="0.700" x2="2.400" y2="0.700" stroke="#4a5160" stroke-width="0.080" stroke-linecap="round" opacity="0.7"/><line x1="1.950" y1="0.000" x2="2.400" y2="-0.700" stroke="#4a5160" stroke-width="0.080" stroke-linecap="round" opacity="0.7"/><line x1="1.950" y1="0.000" x2="2.400" y2="0.700" stroke="#4a5160" stroke-width="0.080" stroke-linecap="round" opacity="0.7"/><line x1="2.400" y1="0.700" x2="2.400" y2="-0.700" stroke="#4a5160" stroke-width="0.080" stroke-linecap="round" opacity="0.7"/><line x1="-2.650" y1="-1.850" x2="2.650" y2="-1.850" stroke="#d24d4d" stroke-width="0.080" stroke-linecap="round" opacity="0.7"/><line x1="-2.650" y1="1.850" x2="-2.650" y2="-1.850" stroke="#d24d4d" stroke-width="0.080" stroke-linecap="round" opacity="0.7"/><line x1="-2.650" y1="1.850" x2="2.650" y2="1.850" stroke="#d24d4d" stroke-width="0.080" stroke-linecap="round" opacity="0.7"/><line x1="2.650" y1="1.850" x2="2.650" y2="-1.850" stroke="#d24d4d" stroke-width="0.080" stroke-linecap="round" opacity="0.7"/><line x1="-2.250" y1="-0.900" x2="-1.550" y2="-1.600" stroke="#6b7280" stroke-width="0.100" stroke-linecap="round" opacity="0.8"/><line x1="-2.250" y1="-0.500" x2="-1.520" y2="-0.500" stroke="#6b7280" stroke-width="0.100" stroke-linecap="round" opacity="0.8"/><line x1="-2.250" y1="0.500" x2="-1.520" y2="0.500" stroke="#6b7280" stroke-width="0.100" stroke-linecap="round" opacity="0.8"/><line x1="-2.250" y1="0.900" x2="-2.250" y2="-0.900" stroke="#6b7280" stroke-width="0.100" stroke-linecap="round" opacity="0.8"/><line x1="-2.250" y1="0.900" x2="-1.550" y2="1.600" stroke="#6b7280" stroke-width="0.100" stroke-linecap="round" opacity="0.8"/><line x1="-1.550" y1="-1.600" x2="2.250" y2="-1.600" stroke="#6b7280" stroke-width="0.100" stroke-linecap="round" opacity="0.8"/><line x1="-1.550" y1="1.600" x2="2.250" y2="1.600" stroke="#6b7280" stroke-width="0.100" stroke-linecap="round" opacity="0.8"/><line x1="-0.825" y1="0.000" x2="-0.225" y2="-0.300" stroke="#6b7280" stroke-width="0.100" stroke-linecap="round" opacity="0.8"/><line x1="-0.825" y1="0.000" x2="-0.225" y2="0.292" stroke="#6b7280" stroke-width="0.100" stroke-linecap="round" opacity="0.8"/><line x1="-0.225" y1="0.974" x2="-0.225" y2="-0.974" stroke="#6b7280" stroke-width="0.100" stroke-linecap="round" opacity="0.8"/><line x1="0.225" y1="0.974" x2="0.225" y2="-0.974" stroke="#6b7280" stroke-width="0.100" stroke-linecap="round" opacity="0.8"/><line x1="1.099" y1="-0.050" x2="1.700" y2="-0.050" stroke="#6b7280" stroke-width="0.100" stroke-linecap="round" opacity="0.8"/><line x1="1.099" y1="0.050" x2="1.700" y2="0.050" stroke="#6b7280" stroke-width="0.100" stroke-linecap="round" opacity="0.8"/><line x1="1.386" y1="-0.800" x2="1.700" y2="-0.800" stroke="#6b7280" stroke-width="0.100" stroke-linecap="round" opacity="0.8"/><line x1="1.386" y1="0.800" x2="1.700" y2="0.800" stroke="#6b7280" stroke-width="0.100" stroke-linecap="round" opacity="0.8"/><line x1="1.450" y1="0.050" x2="1.450" y2="-0.050" stroke="#6b7280" stroke-width="0.100" stroke-linecap="round" opacity="0.8"/><line x1="1.700" y1="-0.500" x2="2.250" y2="-0.500" stroke="#6b7280" stroke-width="0.100" stroke-linecap="round" opacity="0.8"/><line x1="1.700" y1="-0.050" x2="1.700" y2="-0.800" stroke="#6b7280" stroke-width="0.100" stroke-linecap="round" opacity="0.8"/><line x1="1.700" y1="0.500" x2="2.250" y2="0.500" stroke="#6b7280" stroke-width="0.100" stroke-linecap="round" opacity="0.8"/><line x1="1.700" y1="0.800" x2="1.700" y2="0.050" stroke="#6b7280" stroke-width="0.100" stroke-linecap="round" opacity="0.8"/><line x1="2.250" y1="1.600" x2="2.250" y2="-1.600" stroke="#6b7280" stroke-width="0.100" stroke-linecap="round" opacity="0.8"/><path d="M -1.207 -1.050 A 1.600 1.600 0 0 1 1.207 -1.050" fill="none" stroke="#e6e9ef" stroke-width="0.12" opacity="1"/><path d="M 1.207 1.050 A 1.600 1.600 0 0 1 -1.207 1.050" fill="none" stroke="#e6e9ef" stroke-width="0.12" opacity="1"/><path d="M 1.386 0.800 A 1.600 1.600 0 1 1 1.386 -0.800" fill="none" stroke="#6b7280" stroke-width="0.12" opacity="0.8"/><circle cx="0.000" cy="0.000" r="1.100" fill="none" stroke="#e6e9ef" stroke-width="0.12" opacity="1"/><circle cx="0.000" cy="0.000" r="1.000" fill="none" stroke="#e6e9ef" stroke-width="0.12" opacity="1"/><circle cx="0.000" cy="0.000" r="1.100" fill="none" stroke="#6b7280" stroke-width="0.12" opacity="0.8"/><circle cx="0.000" cy="0.000" r="1.000" fill="none" stroke="#6b7280" stroke-width="0.12" opacity="0.8"/><circle cx="2.000" cy="-1.350" r="0.200" fill="#6b7280" opacity="0.8"/><circle cx="2.000" cy="1.350" r="0.200" fill="#6b7280" opacity="0.8"/><rect x="-2.400" y="-0.700" width="0.900" height="1.400" rx="0.000" fill="#c79b5c"/><rect x="1.500" y="-0.700" width="0.900" height="1.400" rx="0.000" fill="#c79b5c"/><polygon points="-2.40,1.75 -1.50,1.75 -1.95,1.15" fill="#ffffff"/></svg>