<svg xmlns="http://www.w3.org/2000/svg" viewBox="-5.42 -4.62 9.54 9.24" preserveAspectRatio="xMidYMid meet" style="width:100%;height:100%"><rect x="-5.42" y="-4.62" width="9.54" height="9.24" fill="#12151c"/><circle cx="-4.300" cy="-2.540" r="0.125" fill="none" stroke="#e6e9ef" stroke-width="0.12" opacity="1"/><circle cx="-1.805" cy="-2.440" r="0.400" fill="none" stroke="#6b7280" stroke-width="0.12" opacity="0.8"/><rect x="-3.110" y="-3.620" width="0.760" height="2.160" rx="0.000" fill="#c79b5c"/><rect x="-3.110" y="-2.350" width="0.760" height="2.160" rx="0.000" fill="#c79b5c"/><rect x="-3.110" y="-1.080" width="0.760" height="2.160" rx="0.000" fill="#c79b5c"/><rect x="-3.110" y="0.190" width="0.760" height="2.160" rx="0.000" fill="#c79b5c"/><rect x="-3.110" y="1.460" width="0.760" height="2.160" rx="0.000" fill="#c79b5c"/><rect x="2.350" y="1.460" width="0.760" height="2.160" rx="0.000" fill="#c79b5c"/><rect x="2.350" y="0.190" width="0.760" height="2.160" rx="0.000" fill="#c79b5c"/><rect x="2.350" y="-1.080" width="0.760" height="2.160" rx="0.000" fill="#c79b5c"/><rect x="2.350" y="-2.350" width="0.760" height="2.160" rx="0.000" fill="#c79b5c"/><rect x="2.350" y="-3.620" width="0.760" height="2.160" rx="0.000" fill="#c79b5c"/></svg>