<svg xmlns="http://www.w3.org/2000/svg" viewBox="-40.35 -3.25 80.70 14.50" preserveAspectRatio="xMidYMid meet" style="width:100%;height:100%"><rect x="-40.35" y="-3.25" width="80.70" height="14.50" fill="#12151c"/><line x1="-39.100" y1="-2.000" x2="39.100" y2="-2.000" stroke="#e6e9ef" stroke-width="0.200" stroke-linecap="round" opacity="1"/><line x1="-39.100" y1="7.000" x2="39.100" y2="7.000" stroke="#e6e9ef" stroke-width="0.200" stroke-linecap="round" opacity="1"/><line x1="-39.100" y1="8.626" x2="39.100" y2="8.626" stroke="#e6e9ef" stroke-width="0.200" stroke-linecap="round" opacity="1"/><line x1="-39.100" y1="10.000" x2="-39.100" y2="-2.000" stroke="#e6e9ef" stroke-width="0.200" stroke-linecap="round" opacity="1"/><line x1="-39.100" y1="10.000" x2="39.100" y2="10.000" stroke="#e6e9ef" stroke-width="0.200" stroke-linecap="round" opacity="1"/><line x1="-36.535" y1="10.000" x2="-36.165" y2="8.700" stroke="#e6e9ef" stroke-width="0.200" stroke-linecap="round" opacity="1"/><line x1="-36.216" y1="8.880" x2="-34.904" y2="8.880" stroke="#e6e9ef" stroke-width="0.200" stroke-linecap="round" opacity="1"/><line x1="-36.165" y1="8.700" x2="-34.955" y2="8.700" stroke="#e6e9ef" stroke-width="0.200" stroke-linecap="round" opacity="1"/><line x1="-34.955" y1="8.700" x2="-34.585" y2="10.000" stroke="#e6e9ef" stroke-width="0.200" stroke-linecap="round" opacity="1"/><line x1="-33.221" y1="1.050" x2="-33.020" y2="1.800" stroke="#e6e9ef" stroke-width="0.200" stroke-linecap="round" opacity="1"/><line x1="-33.221" y1="1.050" x2="-32.819" y2="1.050" stroke="#e6e9ef" stroke-width="0.200" stroke-linecap="round" opacity="1"/><line x1="-33.020" y1="1.800" x2="-32.819" y2="1.050" stroke="#e6e9ef" stroke-width="0.200" stroke-linecap="round" opacity="1"/><line x1="-31.455" y1="10.000" x2="-31.085" y2="8.700" stroke="#e6e9ef" stroke-width="0.200" stroke-linecap="round" opacity="1"/><line x1="-31.136" y1="8.880" x2="-29.824" y2="8.880" stroke="#e6e9ef" stroke-width="0.200" stroke-linecap="round" opacity="1"/><line x1="-31.085" y1="8.700" x2="-29.875" y2="8.700" stroke="#e6e9ef" stroke-width="0.200" stroke-linecap="round" opacity="1"/><line x1="-29.875" y1="8.700" x2="-29.505" y2="10.000" stroke="#e6e9ef" stroke-width="0.200" stroke-linecap="round" opacity="1"/><line x1="-28.141" y1="1.050" x2="-27.940" y2="1.800" stroke="#e6e9ef" stroke-width="0.200" stroke-linecap="round" opacity="1"/><line x1="-28.141" y1="1.050" x2="-27.739" y2="1.050" stroke="#e6e9ef" stroke-width="0.200" stroke-linecap="round" opacity="1"/><line x1="-27.940" y1="1.800" x2="-27.739" y2="1.050" stroke="#e6e9ef" stroke-width="0.200" stroke-linecap="round" opacity="1"/><line x1="-26.375" y1="10.000" x2="-26.005" y2="8.700" stroke="#e6e9ef" stroke-width="0.200" stroke-linecap="round" opacity="1"/><line x1="-26.056" y1="8.880" x2="-24.744" y2="8.880" stroke="#e6e9ef" stroke-width="0.200" stroke-linecap="round" opacity="1"/><line x1="-26.005" y1="8.700" x2="-24.795" y2="8.700" stroke="#e6e9ef" stroke-width="0.200" stroke-linecap="round" opacity="1"/><line x1="-24.795" y1="8.700" x2="-24.425" y2="10.000" stroke="#e6e9ef" stroke-width="0.200" stroke-linecap="round" opacity="1"/><line x1="-23.061" y1="1.050" x2="-22.860" y2="1.800" stroke="#e6e9ef" stroke-width="0.200" stroke-linecap="round" opacity="1"/><line x1="-23.061" y1="1.050" x2="-22.659" y2="1.050" stroke="#e6e9ef" stroke-width="0.200" stroke-linecap="round" opacity="1"/><line x1="-22.860" y1="1.800" x2="-22.659" y2="1.050" stroke="#e6e9ef" stroke-width="0.200" stroke-linecap="round" opacity="1"/><line x1="-21.295" y1="10.000" x2="-20.925" y2="8.700" stroke="#e6e9ef" stroke-width="0.200" stroke-linecap="round" opacity="1"/><line x1="-20.976" y1="8.880" x2="-19.664" y2="8.880" stroke="#e6e9ef" stroke-width="0.200" stroke-linecap="round" opacity="1"/><line x1="-20.925" y1="8.700" x2="-19.715" y2="8.700" stroke="#e6e9ef" stroke-width="0.200" stroke-linecap="round" opacity="1"/><line x1="-19.715" y1="8.700" x2="-19.345" y2="10.000" stroke="#e6e9ef" stroke-width="0.200" stroke-linecap="round" opacity="1"/><line x1="-17.981" y1="1.050" x2="-17.780" y2="1.800" stroke="#e6e9ef" stroke-width="0.200" stroke-linecap="round" opacity="1"/><line x1="-17.981" y1="1.050" x2="-17.579" y2="1.050" stroke="#e6e9ef" stroke-width="0.200" stroke-linecap="round" opacity="1"/><line x1="-17.780" y1="1.800" x2="-17.579" y2="1.050" stroke="#e6e9ef" stroke-width="0.200" stroke-linecap="round" opacity="1"/><line x1="-16.215" y1="10.000" x2="-15.845" y2="8.700" stroke="#e6e9ef" stroke-width="0.200" stroke-linecap="round" opacity="1"/><line x1="-15.896" y1="8.880" x2="-14.584" y2="8.880" stroke="#e6e9ef" stroke-width="0.200" stroke-linecap="round" opacity="1"/><line x1="-15.845" y1="8.700" x2="-14.635" y2="8.700" stroke="#e6e9ef" stroke-width="0.200" stroke-linecap="round" opacity="1"/><line x1="-14.635" y1="8.700" x2="-14.265" y2="10.000" stroke="#e6e9ef" stroke-width="0.200" stroke-linecap="round" opacity="1"/><line x1="-12.901" y1="1.050" x2="-12.700" y2="1.800" stroke="#e6e9ef" stroke-width="0.200" stroke-linecap="round" opacity="1"/><line x1="-12.901" y1="1.050" x2="-12.499" y2="1.050" stroke="#e6e9ef" stroke-width="0.200" stroke-linecap="round" opacity="1"/><line x1="-12.700" y1="1.800" x2="-12.499" y2="1.050" stroke="#e6e9ef" stroke-width="0.200" stroke-linecap="round" opacity="1"/><line x1="-11.135" y1="10.000" x2="-10.765" y2="8.700" stroke="#e6e9ef" stroke-width="0.200" stroke-linecap="round" opacity="1"/><line x1="-10.816" y1="8.880" x2="-9.504" y2="8.880" stroke="#e6e9ef" stroke-width="0.200" stroke-linecap="round" opacity="1"/><line x1="-10.765" y1="8.700" x2="-9.555" y2="8.700" stroke="#e6e9ef" stroke-width="0.200" stroke-linecap="round" opacity="1"/><line x1="-9.555" y1="8.700" x2="-9.185" y2="10.000" stroke="#e6e9ef" stroke-width="0.200" stroke-linecap="round" opacity="1"/><line x1="-7.821" y1="1.050" x2="-7.620" y2="1.800" stroke="#e6e9ef" stroke-width="0.200" stroke-linecap="round" opacity="1"/><line x1="-7.821" y1="1.050" x2="-7.419" y2="1.050" stroke="#e6e9ef" stroke-width="0.200" stroke-linecap="round" opacity="1"/><line x1="-7.620" y1="1.800" x2="-7.419" y2="1.050" stroke="#e6e9ef" stroke-width="0.200" stroke-linecap="round" opacity="1"/><line x1="-6.055" y1="10.000" x2="-5.685" y2="8.700" stroke="#e6e9ef" stroke-width="0.200" stroke-linecap="round" opacity="1"/><line x1="-5.736" y1="8.880" x2="-4.424" y2="8.880" stroke="#e6e9ef" stroke-width="0.200" stroke-linecap="round" opacity="1"/><line x1="-5.685" y1="8.700" x2="-4.475" y2="8.700" stroke="#e6e9ef" stroke-width="0.200" stroke-linecap="round" opacity="1"/><line x1="-4.475" y1="8.700" x2="-4.105" y2="10.000" stroke="#e6e9ef" stroke-width="0.200" stroke-linecap="round" opacity="1"/><line x1="-2.741" y1="1.050" x2="-2.540" y2="1.800" stroke="#e6e9ef" stroke-width="0.200" stroke-linecap="round" opacity="1"/><line x1="-2.741" y1="1.050" x2="-2.339" y2="1.050" stroke="#e6e9ef" stroke-width="0.200" stroke-linecap="round" opacity="1"/><line x1="-2.540" y1="1.800" x2="-2.339" y2="1.050" stroke="#e6e9ef" stroke-width="0.200" stroke-linecap="round" opacity="1"/><line x1="-0.975" y1="10.000" x2="-0.605" y2="8.700" stroke="#e6e9ef" stroke-width="0.200" stroke-linecap="round" opacity="1"/><line x1="-0.656" y1="8.880" x2="0.656" y2="8.880" stroke="#e6e9ef" stroke-width="0.200" stroke-linecap="round" opacity="1"/><line x1="-0.605" y1="8.700" x2="0.605" y2="8.700" stroke="#e6e9ef" stroke-width="0.200" stroke-linecap="round" opacity="1"/><line x1="0.605" y1="8.700" x2="0.975" y2="10.000" stroke="#e6e9ef" stroke-width="0.200" stroke-linecap="round" opacity="1"/><line x1="2.339" y1="1.050" x2="2.540" y2="1.800" stroke="#e6e9ef" stroke-width="0.200" stroke-linecap="round" opacity="1"/><line x1="2.339" y1="1.050" x2="2.741" y2="1.050" stroke="#e6e9ef" stroke-width="0.200" stroke-linecap="round" opacity="1"/><line x1="2.540" y1="1.800" x2="2.741" y2="1.050" stroke="#e6e9ef" stroke-width="0.200" stroke-linecap="round" opacity="1"/><line x1="4.105" y1="10.000" x2="4.475" y2="8.700" stroke="#e6e9ef" stroke-width="0.200" stroke-linecap="round" opacity="1"/><line x1="4.424" y1="8.880" x2="5.736" y2="8.880" stroke="#e6e9ef" stroke-width="0.200" stroke-linecap="round" opacity="1"/><line x1="4.475" y1="8.700" x2="5.685" y2="8.700" stroke="#e6e9ef" stroke-width="0.200" stroke-linecap="round" opacity="1"/><line x1="5.685" y1="8.700" x2="6.055" y2="10.000" stroke="#e6e9ef" stroke-width="0.200" stroke-linecap="round" opacity="1"/><line x1="7.419" y1="1.050" x2="7.620" y2="1.800" stroke="#e6e9ef" stroke-width="0.200" stroke-linecap="round" opacity="1"/><line x1="7.419" y1="1.050" x2="7.821" y2="1.050" stroke="#e6e9ef" stroke-width="0.200" stroke-linecap="round" opacity="1"/><line x1="7.620" y1="1.800" x2="7.821" y2="1.050" stroke="#e6e9ef" stroke-width="0.200" stroke-linecap="round" opacity="1"/><line x1="9.185" y1="10.000" x2="9.555" y2="8.700" stroke="#e6e9ef" stroke-width="0.200" stroke-linecap="round" opacity="1"/><line x1="9.504" y1="8.880" x2="10.816" y2="8.880" stroke="#e6e9ef" stroke-width="0.200" stroke-linecap="round" opacity="1"/><line x1="9.555" y1="8.700" x2="10.765" y2="8.700" stroke="#e6e9ef" stroke-width="0.200" stroke-linecap="round" opacity="1"/><line x1="10.765" y1="8.700" x2="11.135" y2="10.000" stroke="#e6e9ef" stroke-width="0.200" stroke-linecap="round" opacity="1"/><line x1="12.499" y1="1.050" x2="12.700" y2="1.800" stroke="#e6e9ef" stroke-width="0.200" stroke-linecap="round" opacity="1"/><line x1="12.499" y1="1.050" x2="12.901" y2="1.050" stroke="#e6e9ef" stroke-width="0.200" stroke-linecap="round" opacity="1"/><line x1="12.700" y1="1.800" x2="12.901" y2="1.050" stroke="#e6e9ef" stroke-width="0.200" stroke-linecap="round" opacity="1"/><line x1="14.265" y1="10.000" x2="14.635" y2="8.700" stroke="#e6e9ef" stroke-width="0.200" stroke-linecap="round" opacity="1"/><line x1="14.584" y1="8.880" x2="15.896" y2="8.880" stroke="#e6e9ef" stroke-width="0.200" stroke-linecap="round" opacity="1"/><line x1="14.635" y1="8.700" x2="15.845" y2="8.700" stroke="#e6e9ef" stroke-width="0.200" stroke-linecap="round" opacity="1"/><line x1="15.845" y1="8.700" x2="16.215" y2="10.000" stroke="#e6e9ef" stroke-width="0.200" stroke-linecap="round" opacity="1"/><line x1="17.579" y1="1.050" x2="17.780" y2="1.800" stroke="#e6e9ef" stroke-width="0.200" stroke-linecap="round" opacity="1"/><line x1="17.579" y1="1.050" x2="17.981" y2="1.050" stroke="#e6e9ef" stroke-width="0.200" stroke-linecap="round" opacity="1"/><line x1="17.780" y1="1.800" x2="17.981" y2="1.050" stroke="#e6e9ef" stroke-width="0.200" stroke-linecap="round" opacity="1"/><line x1="19.345" y1="10.000" x2="19.715" y2="8.700" stroke="#e6e9ef" stroke-width="0.200" stroke-linecap="round" opacity="1"/><line x1="19.664" y1="8.880" x2="20.976" y2="8.880" stroke="#e6e9ef" stroke-width="0.200" stroke-linecap="round" opacity="1"/><line x1="19.715" y1="8.700" x2="20.925" y2="8.700" stroke="#e6e9ef" stroke-width="0.200" stroke-linecap="round" opacity="1"/><line x1="20.925" y1="8.700" x2="21.295" y2="10.000" stroke="#e6e9ef" stroke-width="0.200" stroke-linecap="round" opacity="1"/><line x1="22.659" y1="1.050" x2="22.860" y2="1.800" stroke="#e6e9ef" stroke-width="0.200" stroke-linecap="round" opacity="1"/><line x1="22.659" y1="1.050" x2="23.061" y2="1.050" stroke="#e6e9ef" stroke-width="0.200" stroke-linecap="round" opacity="1"/><line x1="22.860" y1="1.800" x2="23.061" y2="1.050" stroke="#e6e9ef" stroke-width="0.200" stroke-linecap="round" opacity="1"/><line x1="24.425" y1="10.000" x2="24.795" y2="8.700" stroke="#e6e9ef" stroke-width="0.200" stroke-linecap="round" opacity="1"/><line x1="24.744" y1="8.880" x2="26.056" y2="8.880" stroke="#e6e9ef" stroke-width="0.200" stroke-linecap="round" opacity="1"/><line x1="24.795" y1="8.700" x2="26.005" y2="8.700" stroke="#e6e9ef" stroke-width="0.200" stroke-linecap="round" opacity="1"/><line x1="26.005" y1="8.700" x2="26.375" y2="10.000" stroke="#e6e9ef" stroke-width="0.200" stroke-linecap="round" opacity="1"/><line x1="27.739" y1="1.050" x2="27.940" y2="1.800" stroke="#e6e9ef" stroke-width="0.200" stroke-linecap="round" opacity="1"/><line x1="27.739" y1="1.050" x2="28.141" y2="1.050" stroke="#e6e9ef" stroke-width="0.200" stroke-linecap="round" opacity="1"/><line x1="27.940" y1="1.800" x2="28.141" y2="1.050" stroke="#e6e9ef" stroke-width="0.200" stroke-linecap="round" opacity="1"/><line x1="29.505" y1="10.000" x2="29.875" y2="8.700" stroke="#e6e9ef" stroke-width="0.200" stroke-linecap="round" opacity="1"/><line x1="29.824" y1="8.880" x2="31.136" y2="8.880" stroke="#e6e9ef" stroke-width="0.200" stroke-linecap="round" opacity="1"/><line x1="29.875" y1="8.700" x2="31.085" y2="8.700" stroke="#e6e9ef" stroke-width="0.200" stroke-linecap="round" opacity="1"/><line x1="31.085" y1="8.700" x2="31.455" y2="10.000" stroke="#e6e9ef" stroke-width="0.200" stroke-linecap="round" opacity="1"/><line x1="32.819" y1="1.050" x2="33.020" y2="1.800" stroke="#e6e9ef" stroke-width="0.200" stroke-linecap="round" opacity="1"/><line x1="32.819" y1="1.050" x2="33.221" y2="1.050" stroke="#e6e9ef" stroke-width="0.200" stroke-linecap="round" opacity="1"/><line x1="33.020" y1="1.800" x2="33.221" y2="1.050" stroke="#e6e9ef" stroke-width="0.200" stroke-linecap="round" opacity="1"/><line x1="34.585" y1="10.000" x2="34.955" y2="8.700" stroke="#e6e9ef" stroke-width="0.200" stroke-linecap="round" opacity="1"/><line x1="34.904" y1="8.880" x2="36.216" y2="8.880" stroke="#e6e9ef" stroke-width="0.200" stroke-linecap="round" opacity="1"/><line x1="34.955" y1="8.700" x2="36.165" y2="8.700" stroke="#e6e9ef" stroke-width="0.200" stroke-linecap="round" opacity="1"/><line x1="36.165" y1="8.700" x2="36.535" y2="10.000" stroke="#e6e9ef" stroke-width="0.200" stroke-linecap="round" opacity="1"/><line x1="39.100" y1="10.000" x2="39.100" y2="-2.000" stroke="#e6e9ef" stroke-width="0.200" stroke-linecap="round" opacity="1"/><line x1="-35.760" y1="0.000" x2="-35.560" y2="0.000" stroke="#4a5160" stroke-width="0.080" stroke-linecap="round" opacity="0.7"/><line x1="-35.560" y1="0.000" x2="-35.560" y2="-0.200" stroke="#4a5160" stroke-width="0.080" stroke-linecap="round" opacity="0.7"/><line x1="-35.560" y1="0.000" x2="-35.360" y2="0.000" stroke="#4a5160" stroke-width="0.080" stroke-linecap="round" opacity="0.7"/><line x1="-35.560" y1="0.200" x2="-35.560" y2="0.000" stroke="#4a5160" stroke-width="0.080" stroke-linecap="round" opacity="0.7"/><line x1="-30.680" y1="0.000" x2="-30.480" y2="0.000" stroke="#4a5160" stroke-width="0.080" stroke-linecap="round" opacity="0.7"/><line x1="-30.480" y1="0.000" x2="-30.480" y2="-0.200" stroke="#4a5160" stroke-width="0.080" stroke-linecap="round" opacity="0.7"/><line x1="-30.480" y1="0.000" x2="-30.280" y2="0.000" stroke="#4a5160" stroke-width="0.080" stroke-linecap="round" opacity="0.7"/><line x1="-30.480" y1="0.200" x2="-30.480" y2="0.000" stroke="#4a5160" stroke-width="0.080" stroke-linecap="round" opacity="0.7"/><line x1="-25.600" y1="0.000" x2="-25.400" y2="0.000" stroke="#4a5160" stroke-width="0.080" stroke-linecap="round" opacity="0.7"/><line x1="-25.400" y1="0.000" x2="-25.400" y2="-0.200" stroke="#4a5160" stroke-width="0.080" stroke-linecap="round" opacity="0.7"/><line x1="-25.400" y1="0.000" x2="-25.200" y2="0.000" stroke="#4a5160" stroke-width="0.080" stroke-linecap="round" opacity="0.7"/><line x1="-25.400" y1="0.200" x2="-25.400" y2="0.000" stroke="#4a5160" stroke-width="0.080" stroke-linecap="round" opacity="0.7"/><line x1="-20.520" y1="0.000" x2="-20.320" y2="0.000" stroke="#4a5160" stroke-width="0.080" stroke-linecap="round" opacity="0.7"/><line x1="-20.320" y1="0.000" x2="-20.320" y2="-0.200" stroke="#4a5160" stroke-width="0.080" stroke-linecap="round" opacity="0.7"/><line x1="-20.320" y1="0.000" x2="-20.120" y2="0.000" stroke="#4a5160" stroke-width="0.080" stroke-linecap="round" opacity="0.7"/><line x1="-20.320" y1="0.200" x2="-20.320" y2="0.000" stroke="#4a5160" stroke-width="0.080" stroke-linecap="round" opacity="0.7"/><line x1="-15.440" y1="0.000" x2="-15.240" y2="0.000" stroke="#4a5160" stroke-width="0.080" stroke-linecap="round" opacity="0.7"/><line x1="-15.240" y1="0.000" x2="-15.240" y2="-0.200" stroke="#4a5160" stroke-width="0.080" stroke-linecap="round" opacity="0.7"/><line x1="-15.240" y1="0.000" x2="-15.040" y2="0.000" stroke="#4a5160" stroke-width="0.080" stroke-linecap="round" opacity="0.7"/><line x1="-15.240" y1="0.200" x2="-15.240" y2="0.000" stroke="#4a5160" stroke-width="0.080" stroke-linecap="round" opacity="0.7"/><line x1="-10.360" y1="0.000" x2="-10.160" y2="0.000" stroke="#4a5160" stroke-width="0.080" stroke-linecap="round" opacity="0.7"/><line x1="-10.160" y1="0.000" x2="-10.160" y2="-0.200" stroke="#4a5160" stroke-width="0.080" stroke-linecap="round" opacity="0.7"/><line x1="-10.160" y1="0.000" x2="-9.960" y2="0.000" stroke="#4a5160" stroke-width="0.080" stroke-linecap="round" opacity="0.7"/><line x1="-10.160" y1="0.200" x2="-10.160" y2="0.000" stroke="#4a5160" stroke-width="0.080" stroke-linecap="round" opacity="0.7"/><line x1="-5.280" y1="0.000" x2="-5.080" y2="0.000" stroke="#4a5160" stroke-width="0.080" stroke-linecap="round" opacity="0.7"/><line x1="-5.080" y1="0.000" x2="-5.080" y2="-0.200" stroke="#4a5160" stroke-width="0.080" stroke-linecap="round" opacity="0.7"/><line x1="-5.080" y1="0.000" x2="-4.880" y2="0.000" stroke="#4a5160" stroke-width="0.080" stroke-linecap="round" opacity="0.7"/><line x1="-5.080" y1="0.200" x2="-5.080" y2="0.000" stroke="#4a5160" stroke-width="0.080" stroke-linecap="round" opacity="0.7"/><line x1="-0.500" y1="0.000" x2="0.000" y2="0.000" stroke="#4a5160" stroke-width="0.080" stroke-linecap="round" opacity="0.7"/><line x1="0.000" y1="0.000" x2="0.000" y2="-0.500" stroke="#4a5160" stroke-width="0.080" stroke-linecap="round" opacity="0.7"/><line x1="0.000" y1="0.000" x2="0.500" y2="0.000" stroke="#4a5160" stroke-width="0.080" stroke-linecap="round" opacity="0.7"/><line x1="0.000" y1="0.500" x2="0.000" y2="0.000" stroke="#4a5160" stroke-width="0.080" stroke-linecap="round" opacity="0.7"/><line x1="4.880" y1="0.000" x2="5.080" y2="0.000" stroke="#4a5160" stroke-width="0.080" stroke-linecap="round" opacity="0.7"/><line x1="5.080" y1="0.000" x2="5.080" y2="-0.200" stroke="#4a5160" stroke-width="0.080" stroke-linecap="round" opacity="0.7"/><line x1="5.080" y1="0.000" x2="5.280" y2="0.000" stroke="#4a5160" stroke-width="0.080" stroke-linecap="round" opacity="0.7"/><line x1="5.080" y1="0.200" x2="5.080" y2="0.000" stroke="#4a5160" stroke-width="0.080" stroke-linecap="round" opacity="0.7"/><line x1="9.960" y1="0.000" x2="10.160" y2="0.000" stroke="#4a5160" stroke-width="0.080" stroke-linecap="round" opacity="0.7"/><line x1="10.160" y1="0.000" x2="10.160" y2="-0.200" stroke="#4a5160" stroke-width="0.080" stroke-linecap="round" opacity="0.7"/><line x1="10.160" y1="0.000" x2="10.360" y2="0.000" stroke="#4a5160" stroke-width="0.080" stroke-linecap="round" opacity="0.7"/><line x1="10.160" y1="0.200" x2="10.160" y2="0.000" stroke="#4a5160" stroke-width="0.080" stroke-linecap="round" opacity="0.7"/><line x1="15.040" y1="0.000" x2="15.240" y2="0.000" stroke="#4a5160" stroke-width="0.080" stroke-linecap="round" opacity="0.7"/><line x1="15.240" y1="0.000" x2="15.240" y2="-0.200" stroke="#4a5160" stroke-width="0.080" stroke-linecap="round" opacity="0.7"/><line x1="15.240" y1="0.000" x2="15.440" y2="0.000" stroke="#4a5160" stroke-width="0.080" stroke-linecap="round" opacity="0.7"/><line x1="15.240" y1="0.200" x2="15.240" y2="0.000" stroke="#4a5160" stroke-width="0.080" stroke-linecap="round" opacity="0.7"/><line x1="20.120" y1="0.000" x2="20.320" y2="0.000" stroke="#4a5160" stroke-width="0.080" stroke-linecap="round" opacity="0.7"/><line x1="20.320" y1="0.000" x2="20.320" y2="-0.200" stroke="#4a5160" stroke-width="0.080" stroke-linecap="round" opacity="0.7"/><line x1="20.320" y1="0.000" x2="20.520" y2="0.000" stroke="#4a5160" stroke-width="0.080" stroke-linecap="round" opacity="0.7"/><line x1="20.320" y1="0.200" x2="20.320" y2="0.000" stroke="#4a5160" stroke-width="0.080" stroke-linecap="round" opacity="0.7"/><line x1="25.200" y1="0.000" x2="25.400" y2="0.000" stroke="#4a5160" stroke-width="0.080" stroke-linecap="round" opacity="0.7"/><line x1="25.400" y1="0.000" x2="25.400" y2="-0.200" stroke="#4a5160" stroke-width="0.080" stroke-linecap="round" opacity="0.7"/><line x1="25.400" y1="0.000" x2="25.600" y2="0.000" stroke="#4a5160" stroke-width="0.080" stroke-linecap="round" opacity="0.7"/><line x1="25.400" y1="0.200" x2="25.400" y2="0.000" stroke="#4a5160" stroke-width="0.080" stroke-linecap="round" opacity="0.7"/><line x1="30.280" y1="0.000" x2="30.480" y2="0.000" stroke="#4a5160" stroke-width="0.080" stroke-linecap="round" opacity="0.7"/><line x1="30.480" y1="0.000" x2="30.480" y2="-0.200" stroke="#4a5160" stroke-width="0.080" stroke-linecap="round" opacity="0.7"/><line x1="30.480" y1="0.000" x2="30.680" y2="0.000" stroke="#4a5160" stroke-width="0.080" stroke-linecap="round" opacity="0.7"/><line x1="30.480" y1="0.200" x2="30.480" y2="0.000" stroke="#4a5160" stroke-width="0.080" stroke-linecap="round" opacity="0.7"/><line x1="35.360" y1="0.000" x2="35.560" y2="0.000" stroke="#4a5160" stroke-width="0.080" stroke-linecap="round" opacity="0.7"/><line x1="35.560" y1="0.000" x2="35.560" y2="-0.200" stroke="#4a5160" stroke-width="0.080" stroke-linecap="round" opacity="0.7"/><line x1="35.560" y1="0.000" x2="35.760" y2="0.000" stroke="#4a5160" stroke-width="0.080" stroke-linecap="round" opacity="0.7"/><line x1="35.560" y1="0.200" x2="35.560" y2="0.000" stroke="#4a5160" stroke-width="0.080" stroke-linecap="round" opacity="0.7"/><line x1="-39.100" y1="-2.000" x2="39.100" y2="-2.000" stroke="#6b7280" stroke-width="0.100" stroke-linecap="round" opacity="0.8"/><line x1="-39.100" y1="7.000" x2="39.100" y2="7.000" stroke="#6b7280" stroke-width="0.100" stroke-linecap="round" opacity="0.8"/><line x1="-39.100" y1="8.626" x2="39.100" y2="8.626" stroke="#6b7280" stroke-width="0.100" stroke-linecap="round" opacity="0.8"/><line x1="-39.100" y1="10.000" x2="-39.100" y2="-2.000" stroke="#6b7280" stroke-width="0.100" stroke-linecap="round" opacity="0.8"/><line x1="-39.100" y1="10.000" x2="39.100" y2="10.000" stroke="#6b7280" stroke-width="0.100" stroke-linecap="round" opacity="0.8"/><line x1="-36.535" y1="10.000" x2="-36.165" y2="8.700" stroke="#6b7280" stroke-width="0.100" stroke-linecap="round" opacity="0.8"/><line x1="-36.216" y1="8.880" x2="-34.904" y2="8.880" stroke="#6b7280" stroke-width="0.100" stroke-linecap="round" opacity="0.8"/><line x1="-36.165" y1="8.700" x2="-34.955" y2="8.700" stroke="#6b7280" stroke-width="0.100" stroke-linecap="round" opacity="0.8"/><line x1="-34.955" y1="8.700" x2="-34.585" y2="10.000" stroke="#6b7280" stroke-width="0.100" stroke-linecap="round" opacity="0.8"/><line x1="-33.221" y1="1.050" x2="-33.020" y2="1.800" stroke="#6b7280" stroke-width="0.100" stroke-linecap="round" opacity="0.8"/><line x1="-33.221" y1="1.050" x2="-32.819" y2="1.050" stroke="#6b7280" stroke-width="0.100" stroke-linecap="round" opacity="0.8"/><line x1="-33.020" y1="1.800" x2="-32.819" y2="1.050" stroke="#6b7280" stroke-width="0.100" stroke-linecap="round" opacity="0.8"/><line x1="-31.455" y1="10.000" x2="-31.085" y2="8.700" stroke="#6b7280" stroke-width="0.100" stroke-linecap="round" opacity="0.8"/><line x1="-31.136" y1="8.880" x2="-29.824" y2="8.880" stroke="#6b7280" stroke-width="0.100" stroke-linecap="round" opacity="0.8"/><line x1="-31.085" y1="8.700" x2="-29.875" y2="8.700" stroke="#6b7280" stroke-width="0.100" stroke-linecap="round" opacity="0.8"/><line x1="-29.875" y1="8.700" x2="-29.505" y2="10.000" stroke="#6b7280" stroke-width="0.100" stroke-linecap="round" opacity="0.8"/><line x1="-28.141" y1="1.050" x2="-27.940" y2="1.800" stroke="#6b7280" stroke-width="0.100" stroke-linecap="round" opacity="0.8"/><line x1="-28.141" y1="1.050" x2="-27.739" y2="1.050" stroke="#6b7280" stroke-width="0.100" stroke-linecap="round" opacity="0.8"/><line x1="-27.940" y1="1.800" x2="-27.739" y2="1.050" stroke="#6b7280" stroke-width="0.100" stroke-linecap="round" opacity="0.8"/><line x1="-26.375" y1="10.000" x2="-26.005" y2="8.700" stroke="#6b7280" stroke-width="0.100" stroke-linecap="round" opacity="0.8"/><line x1="-26.056" y1="8.880" x2="-24.744" y2="8.880" stroke="#6b7280" stroke-width="0.100" stroke-linecap="round" opacity="0.8"/><line x1="-26.005" y1="8.700" x2="-24.795" y2="8.700" stroke="#6b7280" stroke-width="0.100" stroke-linecap="round" opacity="0.8"/><line x1="-24.795" y1="8.700" x2="-24.425" y2="10.000" stroke="#6b7280" stroke-width="0.100" stroke-linecap="round" opacity="0.8"/><line x1="-23.061" y1="1.050" x2="-22.860" y2="1.800" stroke="#6b7280" stroke-width="0.100" stroke-linecap="round" opacity="0.8"/><line x1="-23.061" y1="1.050" x2="-22.659" y2="1.050" stroke="#6b7280" stroke-width="0.100" stroke-linecap="round" opacity="0.8"/><line x1="-22.860" y1="1.800" x2="-22.659" y2="1.050" stroke="#6b7280" stroke-width="0.100" stroke-linecap="round" opacity="0.8"/><line x1="-21.295" y1="10.000" x2="-20.925" y2="8.700" stroke="#6b7280" stroke-width="0.100" stroke-linecap="round" opacity="0.8"/><line x1="-20.976" y1="8.880" x2="-19.664" y2="8.880" stroke="#6b7280" stroke-width="0.100" stroke-linecap="round" opacity="0.8"/><line x1="-20.925" y1="8.700" x2="-19.715" y2="8.700" stroke="#6b7280" stroke-width="0.100" stroke-linecap="round" opacity="0.8"/><line x1="-19.715" y1="8.700" x2="-19.345" y2="10.000" stroke="#6b7280" stroke-width="0.100" stroke-linecap="round" opacity="0.8"/><line x1="-17.981" y1="1.050" x2="-17.780" y2="1.800" stroke="#6b7280" stroke-width="0.100" stroke-linecap="round" opacity="0.8"/><line x1="-17.981" y1="1.050" x2="-17.579" y2="1.050" stroke="#6b7280" stroke-width="0.100" stroke-linecap="round" opacity="0.8"/><line x1="-17.780" y1="1.800" x2="-17.579" y2="1.050" stroke="#6b7280" stroke-width="0.100" stroke-linecap="round" opacity="0.8"/><line x1="-16.215" y1="10.000" x2="-15.845" y2="8.700" stroke="#6b7280" stroke-width="0.100" stroke-linecap="round" opacity="0.8"/><line x1="-15.896" y1="8.880" x2="-14.584" y2="8.880" stroke="#6b7280" stroke-width="0.100" stroke-linecap="round" opacity="0.8"/><line x1="-15.845" y1="8.700" x2="-14.635" y2="8.700" stroke="#6b7280" stroke-width="0.100" stroke-linecap="round" opacity="0.8"/><line x1="-14.635" y1="8.700" x2="-14.265" y2="10.000" stroke="#6b7280" stroke-width="0.100" stroke-linecap="round" opacity="0.8"/><line x1="-12.901" y1="1.050" x2="-12.700" y2="1.800" stroke="#6b7280" stroke-width="0.100" stroke-linecap="round" opacity="0.8"/><line x1="-12.901" y1="1.050" x2="-12.499" y2="1.050" stroke="#6b7280" stroke-width="0.100" stroke-linecap="round" opacity="0.8"/><line x1="-12.700" y1="1.800" x2="-12.499" y2="1.050" stroke="#6b7280" stroke-width="0.100" stroke-linecap="round" opacity="0.8"/><line x1="-11.135" y1="10.000" x2="-10.765" y2="8.700" stroke="#6b7280" stroke-width="0.100" stroke-linecap="round" opacity="0.8"/><line x1="-10.816" y1="8.880" x2="-9.504" y2="8.880" stroke="#6b7280" stroke-width="0.100" stroke-linecap="round" opacity="0.8"/><line x1="-10.765" y1="8.700" x2="-9.555" y2="8.700" stroke="#6b7280" stroke-width="0.100" stroke-linecap="round" opacity="0.8"/><line x1="-9.555" y1="8.700" x2="-9.185" y2="10.000" stroke="#6b7280" stroke-width="0.100" stroke-linecap="round" opacity="0.8"/><line x1="-7.821" y1="1.050" x2="-7.620" y2="1.800" stroke="#6b7280" stroke-width="0.100" stroke-linecap="round" opacity="0.8"/><line x1="-7.821" y1="1.050" x2="-7.419" y2="1.050" stroke="#6b7280" stroke-width="0.100" stroke-linecap="round" opacity="0.8"/><line x1="-7.620" y1="1.800" x2="-7.419" y2="1.050" stroke="#6b7280" stroke-width="0.100" stroke-linecap="round" opacity="0.8"/><line x1="-6.055" y1="10.000" x2="-5.685" y2="8.700" stroke="#6b7280" stroke-width="0.100" stroke-linecap="round" opacity="0.8"/><line x1="-5.736" y1="8.880" x2="-4.424" y2="8.880" stroke="#6b7280" stroke-width="0.100" stroke-linecap="round" opacity="0.8"/><line x1="-5.685" y1="8.700" x2="-4.475" y2="8.700" stroke="#6b7280" stroke-width="0.100" stroke-linecap="round" opacity="0.8"/><line x1="-4.475" y1="8.700" x2="-4.105" y2="10.000" stroke="#6b7280" stroke-width="0.100" stroke-linecap="round" opacity="0.8"/><line x1="-2.741" y1="1.050" x2="-2.540" y2="1.800" stroke="#6b7280" stroke-width="0.100" stroke-linecap="round" opacity="0.8"/><line x1="-2.741" y1="1.050" x2="-2.339" y2="1.050" stroke="#6b7280" stroke-width="0.100" stroke-linecap="round" opacity="0.8"/><line x1="-2.540" y1="1.800" x2="-2.339" y2="1.050" stroke="#6b7280" stroke-width="0.100" stroke-linecap="round" opacity="0.8"/><line x1="-0.975" y1="10.000" x2="-0.605" y2="8.700" stroke="#6b7280" stroke-width="0.100" stroke-linecap="round" opacity="0.8"/><line x1="-0.656" y1="8.880" x2="0.656" y2="8.880" stroke="#6b7280" stroke-width="0.100" stroke-linecap="round" opacity="0.8"/><line x1="-0.605" y1="8.700" x2="0.605" y2="8.700" stroke="#6b7280" stroke-width="0.100" stroke-linecap="round" opacity="0.8"/><line x1="0.605" y1="8.700" x2="0.975" y2="10.000" stroke="#6b7280" stroke-width="0.100" stroke-linecap="round" opacity="0.8"/><line x1="2.339" y1="1.050" x2="2.540" y2="1.800" stroke="#6b7280" stroke-width="0.100" stroke-linecap="round" opacity="0.8"/><line x1="2.339" y1="1.050" x2="2.741" y2="1.050" stroke="#6b7280" stroke-width="0.100" stroke-linecap="round" opacity="0.8"/><line x1="2.540" y1="1.800" x2="2.741" y2="1.050" stroke="#6b7280" stroke-width="0.100" stroke-linecap="round" opacity="0.8"/><line x1="4.105" y1="10.000" x2="4.475" y2="8.700" stroke="#6b7280" stroke-width="0.100" stroke-linecap="round" opacity="0.8"/><line x1="4.424" y1="8.880" x2="5.736" y2="8.880" stroke="#6b7280" stroke-width="0.100" stroke-linecap="round" opacity="0.8"/><line x1="4.475" y1="8.700" x2="5.685" y2="8.700" stroke="#6b7280" stroke-width="0.100" stroke-linecap="round" opacity="0.8"/><line x1="5.685" y1="8.700" x2="6.055" y2="10.000" stroke="#6b7280" stroke-width="0.100" stroke-linecap="round" opacity="0.8"/><line x1="7.419" y1="1.050" x2="7.620" y2="1.800" stroke="#6b7280" stroke-width="0.100" stroke-linecap="round" opacity="0.8"/><line x1="7.419" y1="1.050" x2="7.821" y2="1.050" stroke="#6b7280" stroke-width="0.100" stroke-linecap="round" opacity="0.8"/><line x1="7.620" y1="1.800" x2="7.821" y2="1.050" stroke="#6b7280" stroke-width="0.100" stroke-linecap="round" opacity="0.8"/><line x1="9.185" y1="10.000" x2="9.555" y2="8.700" stroke="#6b7280" stroke-width="0.100" stroke-linecap="round" opacity="0.8"/><line x1="9.504" y1="8.880" x2="10.816" y2="8.880" stroke="#6b7280" stroke-width="0.100" stroke-linecap="round" opacity="0.8"/><line x1="9.555" y1="8.700" x2="10.765" y2="8.700" stroke="#6b7280" stroke-width="0.100" stroke-linecap="round" opacity="0.8"/><line x1="10.765" y1="8.700" x2="11.135" y2="10.000" stroke="#6b7280" stroke-width="0.100" stroke-linecap="round" opacity="0.8"/><line x1="12.499" y1="1.050" x2="12.700" y2="1.800" stroke="#6b7280" stroke-width="0.100" stroke-linecap="round" opacity="0.8"/><line x1="12.499" y1="1.050" x2="12.901" y2="1.050" stroke="#6b7280" stroke-width="0.100" stroke-linecap="round" opacity="0.8"/><line x1="12.700" y1="1.800" x2="12.901" y2="1.050" stroke="#6b7280" stroke-width="0.100" stroke-linecap="round" opacity="0.8"/><line x1="14.265" y1="10.000" x2="14.635" y2="8.700" stroke="#6b7280" stroke-width="0.100" stroke-linecap="round" opacity="0.8"/><line x1="14.584" y1="8.880" x2="15.896" y2="8.880" stroke="#6b7280" stroke-width="0.100" stroke-linecap="round" opacity="0.8"/><line x1="14.635" y1="8.700" x2="15.845" y2="8.700" stroke="#6b7280" stroke-width="0.100" stroke-linecap="round" opacity="0.8"/><line x1="15.845" y1="8.700" x2="16.215" y2="10.000" stroke="#6b7280" stroke-width="0.100" stroke-linecap="round" opacity="0.8"/><line x1="17.579" y1="1.050" x2="17.780" y2="1.800" stroke="#6b7280" stroke-width="0.100" stroke-linecap="round" opacity="0.8"/><line x1="17.579" y1="1.050" x2="17.981" y2="1.050" stroke="#6b7280" stroke-width="0.100" stroke-linecap="round" opacity="0.8"/><line x1="17.780" y1="1.800" x2="17.981" y2="1.050" stroke="#6b7280" stroke-width="0.100" stroke-linecap="round" opacity="0.8"/><line x1="19.345" y1="10.000" x2="19.715" y2="8.700" stroke="#6b7280" stroke-width="0.100" stroke-linecap="round" opacity="0.8"/><line x1="19.664" y1="8.880" x2="20.976" y2="8.880" stroke="#6b7280" stroke-width="0.100" stroke-linecap="round" opacity="0.8"/><line x1="19.715" y1="8.700" x2="20.925" y2="8.700" stroke="#6b7280" stroke-width="0.100" stroke-linecap="round" opacity="0.8"/><line x1="20.925" y1="8.700" x2="21.295" y2="10.000" stroke="#6b7280" stroke-width="0.100" stroke-linecap="round" opacity="0.8"/><line x1="22.659" y1="1.050" x2="22.860" y2="1.800" stroke="#6b7280" stroke-width="0.100" stroke-linecap="round" opacity="0.8"/><line x1="22.659" y1="1.050" x2="23.061" y2="1.050" stroke="#6b7280" stroke-width="0.100" stroke-linecap="round" opacity="0.8"/><line x1="22.860" y1="1.800" x2="23.061" y2="1.050" stroke="#6b7280" stroke-width="0.100" stroke-linecap="round" opacity="0.8"/><line x1="24.425" y1="10.000" x2="24.795" y2="8.700" stroke="#6b7280" stroke-width="0.100" stroke-linecap="round" opacity="0.8"/><line x1="24.744" y1="8.880" x2="26.056" y2="8.880" stroke="#6b7280" stroke-width="0.100" stroke-linecap="round" opacity="0.8"/><line x1="24.795" y1="8.700" x2="26.005" y2="8.700" stroke="#6b7280" stroke-width="0.100" stroke-linecap="round" opacity="0.8"/><line x1="26.005" y1="8.700" x2="26.375" y2="10.000" stroke="#6b7280" stroke-width="0.100" stroke-linecap="round" opacity="0.8"/><line x1="27.739" y1="1.050" x2="27.940" y2="1.800" stroke="#6b7280" stroke-width="0.100" stroke-linecap="round" opacity="0.8"/><line x1="27.739" y1="1.050" x2="28.141" y2="1.050" stroke="#6b7280" stroke-width="0.100" stroke-linecap="round" opacity="0.8"/><line x1="27.940" y1="1.800" x2="28.141" y2="1.050" stroke="#6b7280" stroke-width="0.100" stroke-linecap="round" opacity="0.8"/><line x1="29.505" y1="10.000" x2="29.875" y2="8.700" stroke="#6b7280" stroke-width="0.100" stroke-linecap="round" opacity="0.8"/><line x1="29.824" y1="8.880" x2="31.136" y2="8.880" stroke="#6b7280" stroke-width="0.100" stroke-linecap="round" opacity="0.8"/><line x1="29.875" y1="8.700" x2="31.085" y2="8.700" stroke="#6b7280" stroke-width="0.100" stroke-linecap="round" opacity="0.8"/><line x1="31.085" y1="8.700" x2="31.455" y2="10.000" stroke="#6b7280" stroke-width="0.100" stroke-linecap="round" opacity="0.8"/><line x1="32.819" y1="1.050" x2="33.020" y2="1.800" stroke="#6b7280" stroke-width="0.100" stroke-linecap="round" opacity="0.8"/><line x1="32.819" y1="1.050" x2="33.221" y2="1.050" stroke="#6b7280" stroke-width="0.100" stroke-linecap="round" opacity="0.8"/><line x1="33.020" y1="1.800" x2="33.221" y2="1.050" stroke="#6b7280" stroke-width="0.100" stroke-linecap="round" opacity="0.8"/><line x1="34.585" y1="10.000" x2="34.955" y2="8.700" stroke="#6b7280" stroke-width="0.100" stroke-linecap="round" opacity="0.8"/><line x1="34.904" y1="8.880" x2="36.216" y2="8.880" stroke="#6b7280" stroke-width="0.100" stroke-linecap="round" opacity="0.8"/><line x1="34.955" y1="8.700" x2="36.165" y2="8.700" stroke="#6b7280" stroke-width="0.100" stroke-linecap="round" opacity="0.8"/><line x1="36.165" y1="8.700" x2="36.535" y2="10.000" stroke="#6b7280" stroke-width="0.100" stroke-linecap="round" opacity="0.8"/><line x1="39.100" y1="10.000" x2="39.100" y2="-2.000" stroke="#6b7280" stroke-width="0.100" stroke-linecap="round" opacity="0.8"/><line x1="-39.350" y1="-2.250" x2="39.350" y2="-2.250" stroke="#d24d4d" stroke-width="0.080" stroke-linecap="round" opacity="0.7"/><line x1="39.350" y1="-2.250" x2="39.350" y2="10.250" stroke="#d24d4d" stroke-width="0.080" stroke-linecap="round" opacity="0.7"/><line x1="39.350" y1="10.250" x2="-39.350" y2="10.250" stroke="#d24d4d" stroke-width="0.080" stroke-linecap="round" opacity="0.7"/><line x1="-39.350" y1="10.250" x2="-39.350" y2="-2.250" stroke="#d24d4d" stroke-width="0.080" stroke-linecap="round" opacity="0.7"/><circle cx="-35.560" cy="0.000" r="1.050" fill="none" stroke="#4a5160" stroke-width="0.12" opacity="0.7"/><circle cx="-35.560" cy="0.000" r="0.700" fill="none" stroke="#4a5160" stroke-width="0.12" opacity="0.7"/><circle cx="-30.480" cy="0.000" r="1.050" fill="none" stroke="#4a5160" stroke-width="0.12" opacity="0.7"/><circle cx="-30.480" cy="0.000" r="0.700" fill="none" stroke="#4a5160" stroke-width="0.12" opacity="0.7"/><circle cx="-25.400" cy="0.000" r="1.050" fill="none" stroke="#4a5160" stroke-width="0.12" opacity="0.7"/><circle cx="-25.400" cy="0.000" r="0.700" fill="none" stroke="#4a5160" stroke-width="0.12" opacity="0.7"/><circle cx="-20.320" cy="0.000" r="1.050" fill="none" stroke="#4a5160" stroke-width="0.12" opacity="0.7"/><circle cx="-20.320" cy="0.000" r="0.700" fill="none" stroke="#4a5160" stroke-width="0.12" opacity="0.7"/><circle cx="-15.240" cy="0.000" r="1.050" fill="none" stroke="#4a5160" stroke-width="0.12" opacity="0.7"/><circle cx="-15.240" cy="0.000" r="0.700" fill="none" stroke="#4a5160" stroke-width="0.12" opacity="0.7"/><circle cx="-10.160" cy="0.000" r="1.050" fill="none" stroke="#4a5160" stroke-width="0.12" opacity="0.7"/><circle cx="-10.160" cy="0.000" r="0.700" fill="none" stroke="#4a5160" stroke-width="0.12" opacity="0.7"/><circle cx="-5.080" cy="0.000" r="1.050" fill="none" stroke="#4a5160" stroke-width="0.12" opacity="0.7"/><circle cx="-5.080" cy="0.000" r="0.700" fill="none" stroke="#4a5160" stroke-width="0.12" opacity="0.7"/><circle cx="0.000" cy="0.000" r="1.050" fill="none" stroke="#4a5160" stroke-width="0.12" opacity="0.7"/><circle cx="0.000" cy="0.000" r="0.700" fill="none" stroke="#4a5160" stroke-width="0.12" opacity="0.7"/><circle cx="5.080" cy="0.000" r="1.050" fill="none" stroke="#4a5160" stroke-width="0.12" opacity="0.7"/><circle cx="5.080" cy="0.000" r="0.700" fill="none" stroke="#4a5160" stroke-width="0.12" opacity="0.7"/><circle cx="10.160" cy="0.000" r="1.050" fill="none" stroke="#4a5160" stroke-width="0.12" opacity="0.7"/><circle cx="10.160" cy="0.000" r="0.700" fill="none" stroke="#4a5160" stroke-width="0.12" opacity="0.7"/><circle cx="15.240" cy="0.000" r="1.050" fill="none" stroke="#4a5160" stroke-width="0.12" opacity="0.7"/><circle cx="15.240" cy="0.000" r="0.700" fill="none" stroke="#4a5160" stroke-width="0.12" opacity="0.7"/><circle cx="20.320" cy="0.000" r="1.050" fill="none" stroke="#4a5160" stroke-width="0.12" opacity="0.7"/><circle cx="20.320" cy="0.000" r="0.700" fill="none" stroke="#4a5160" stroke-width="0.12" opacity="0.7"/><circle cx="25.400" cy="0.000" r="1.050" fill="none" stroke="#4a5160" stroke-width="0.12" opacity="0.7"/><circle cx="25.400" cy="0.000" r="0.700" fill="none" stroke="#4a5160" stroke-width="0.12" opacity="0.7"/><circle cx="30.480" cy="0.000" r="1.050" fill="none" stroke="#4a5160" stroke-width="0.12" opacity="0.7"/><circle cx="30.480" cy="0.000" r="0.700" fill="none" stroke="#4a5160" stroke-width="0.12" opacity="0.7"/><circle cx="35.560" cy="0.000" r="1.050" fill="none" stroke="#4a5160" stroke-width="0.12" opacity="0.7"/><circle cx="35.560" cy="0.000" r="0.700" fill="none" stroke="#4a5160" stroke-width="0.12" opacity="0.7"/><rect x="-36.610" y="-1.050" width="2.100" height="2.100" rx="1.050" fill="#c79b5c"/><circle cx="-35.560" cy="0.000" r="0.700" fill="#12151c"/><rect x="-31.530" y="-1.050" width="2.100" height="2.100" rx="1.050" fill="#c79b5c"/><circle cx="-30.480" cy="0.000" r="0.700" fill="#12151c"/><rect x="-26.450" y="-1.050" width="2.100" height="2.100" rx="1.050" fill="#c79b5c"/><circle cx="-25.400" cy="0.000" r="0.700" fill="#12151c"/><rect x="-21.370" y="-1.050" width="2.100" height="2.100" rx="1.050" fill="#c79b5c"/><circle cx="-20.320" cy="0.000" r="0.700" fill="#12151c"/><rect x="-16.290" y="-1.050" width="2.100" height="2.100" rx="1.050" fill="#c79b5c"/><circle cx="-15.240" cy="0.000" r="0.700" fill="#12151c"/><rect x="-11.210" y="-1.050" width="2.100" height="2.100" rx="1.050" fill="#c79b5c"/><circle cx="-10.160" cy="0.000" r="0.700" fill="#12151c"/><rect x="-6.130" y="-1.050" width="2.100" height="2.100" rx="1.050" fill="#c79b5c"/><circle cx="-5.080" cy="0.000" r="0.700" fill="#12151c"/><rect x="-1.050" y="-1.050" width="2.100" height="2.100" rx="1.050" fill="#c79b5c"/><circle cx="0.000" cy="0.000" r="0.700" fill="#12151c"/><rect x="4.030" y="-1.050" width="2.100" height="2.100" rx="1.050" fill="#c79b5c"/><circle cx="5.080" cy="0.000" r="0.700" fill="#12151c"/><rect x="9.110" y="-1.050" width="2.100" height="2.100" rx="1.050" fill="#c79b5c"/><circle cx="10.160" cy="0.000" r="0.700" fill="#12151c"/><rect x="14.190" y="-1.050" width="2.100" height="2.100" rx="1.050" fill="#c79b5c"/><circle cx="15.240" cy="0.000" r="0.700" fill="#12151c"/><rect x="19.270" y="-1.050" width="2.100" height="2.100" rx="1.050" fill="#c79b5c"/><circle cx="20.320" cy="0.000" r="0.700" fill="#12151c"/><rect x="24.350" y="-1.050" width="2.100" height="2.100" rx="1.050" fill="#c79b5c"/><circle cx="25.400" cy="0.000" r="0.700" fill="#12151c"/><rect x="29.430" y="-1.050" width="2.100" height="2.100" rx="1.050" fill="#c79b5c"/><circle cx="30.480" cy="0.000" r="0.700" fill="#12151c"/><rect x="34.510" y="-1.050" width="2.100" height="2.100" rx="1.050" fill="#c79b5c"/><circle cx="35.560" cy="0.000" r="0.700" fill="#12151c"/><polygon points="-36.01,2.10 -35.11,2.10 -35.56,1.50" fill="#ffffff"/></svg>