<svg xmlns="http://www.w3.org/2000/svg" viewBox="-6.19 -8.34 12.36 16.55" preserveAspectRatio="xMidYMid meet" style="width:100%;height:100%"><rect x="-6.19" y="-8.34" width="12.36" height="16.55" fill="#12151c"/><line x1="-4.885" y1="7.106" x2="-4.885" y2="6.606" stroke="#e6e9ef" stroke-width="0.150" stroke-linecap="round" opacity="1"/><line x1="-4.885" y1="7.106" x2="-4.385" y2="7.106" stroke="#e6e9ef" stroke-width="0.150" stroke-linecap="round" opacity="1"/><line x1="-4.435" y1="-7.094" x2="-4.885" y2="-6.644" stroke="#e6e9ef" stroke-width="0.150" stroke-linecap="round" opacity="1"/><line x1="-4.135" y1="-7.094" x2="-4.435" y2="-7.094" stroke="#e6e9ef" stroke-width="0.150" stroke-linecap="round" opacity="1"/><line x1="0.015" y1="7.206" x2="-0.485" y2="7.206" stroke="#e6e9ef" stroke-width="0.150" stroke-linecap="round" opacity="1"/><line x1="0.015" y1="7.206" x2="0.515" y2="7.206" stroke="#e6e9ef" stroke-width="0.150" stroke-linecap="round" opacity="1"/><line x1="4.915" y1="-7.094" x2="4.415" y2="-7.094" stroke="#e6e9ef" stroke-width="0.150" stroke-linecap="round" opacity="1"/><line x1="4.915" y1="-7.094" x2="4.915" y2="-6.594" stroke="#e6e9ef" stroke-width="0.150" stroke-linecap="round" opacity="1"/><line x1="4.915" y1="7.106" x2="4.415" y2="7.106" stroke="#e6e9ef" stroke-width="0.150" stroke-linecap="round" opacity="1"/><line x1="4.915" y1="7.106" x2="4.915" y2="6.606" stroke="#e6e9ef" stroke-width="0.150" stroke-linecap="round" opacity="1"/><line x1="-4.785" y1="-6.594" x2="-4.785" y2="7.006" stroke="#6b7280" stroke-width="0.150" stroke-linecap="round" opacity="0.8"/><line x1="-4.785" y1="-6.594" x2="-4.385" y2="-6.994" stroke="#6b7280" stroke-width="0.150" stroke-linecap="round" opacity="0.8"/><line x1="-4.785" y1="7.006" x2="4.815" y2="7.006" stroke="#6b7280" stroke-width="0.150" stroke-linecap="round" opacity="0.8"/><line x1="-4.385" y1="-6.994" x2="4.815" y2="-6.994" stroke="#6b7280" stroke-width="0.150" stroke-linecap="round" opacity="0.8"/><line x1="4.815" y1="-6.994" x2="4.815" y2="7.006" stroke="#6b7280" stroke-width="0.150" stroke-linecap="round" opacity="0.8"/><circle cx="-5.140" cy="-6.695" r="0.150" fill="#e6e9ef" opacity="1"/><rect x="-5.135" y="-6.545" width="1.500" height="0.700" rx="0.000" fill="#c79b5c"/><rect x="-5.135" y="-5.545" width="1.500" height="0.700" rx="0.000" fill="#c79b5c"/><rect x="-5.135" y="-4.545" width="1.500" height="0.700" rx="0.000" fill="#c79b5c"/><rect x="-5.135" y="-3.545" width="1.500" height="0.700" rx="0.000" fill="#c79b5c"/><rect x="-5.135" y="-2.545" width="1.500" height="0.700" rx="0.000" fill="#c79b5c"/><rect x="-5.135" y="-1.545" width="1.500" height="0.700" rx="0.000" fill="#c79b5c"/><rect x="-5.135" y="-0.545" width="1.500" height="0.700" rx="0.000" fill="#c79b5c"/><rect x="-5.135" y="0.455" width="1.500" height="0.700" rx="0.000" fill="#c79b5c"/><rect x="-5.135" y="1.455" width="1.500" height="0.700" rx="0.000" fill="#c79b5c"/><rect x="-5.135" y="2.455" width="1.500" height="0.700" rx="0.000" fill="#c79b5c"/><rect x="-5.135" y="3.455" width="1.500" height="0.700" rx="0.000" fill="#c79b5c"/><rect x="-5.135" y="4.455" width="1.500" height="0.700" rx="0.000" fill="#c79b5c"/><rect x="-5.135" y="5.455" width="1.500" height="1.000" rx="0.000" fill="#c79b5c"/><rect x="3.665" y="5.455" width="1.500" height="1.000" rx="0.000" fill="#c79b5c"/><rect x="3.665" y="4.455" width="1.500" height="0.700" rx="0.000" fill="#c79b5c"/><rect x="3.665" y="3.455" width="1.500" height="0.700" rx="0.000" fill="#c79b5c"/><rect x="3.665" y="2.455" width="1.500" height="0.700" rx="0.000" fill="#c79b5c"/><rect x="3.665" y="1.455" width="1.500" height="0.700" rx="0.000" fill="#c79b5c"/><rect x="3.665" y="0.455" width="1.500" height="0.700" rx="0.000" fill="#c79b5c"/><rect x="3.665" y="-0.545" width="1.500" height="0.700" rx="0.000" fill="#c79b5c"/><rect x="3.665" y="-1.545" width="1.500" height="0.700" rx="0.000" fill="#c79b5c"/><rect x="3.665" y="-2.545" width="1.500" height="0.700" rx="0.000" fill="#c79b5c"/><rect x="3.665" y="-3.545" width="1.500" height="0.700" rx="0.000" fill="#c79b5c"/><rect x="3.665" y="-4.545" width="1.500" height="0.700" rx="0.000" fill="#c79b5c"/><rect x="3.665" y="-5.545" width="1.500" height="0.700" rx="0.000" fill="#c79b5c"/><rect x="3.665" y="-6.545" width="1.500" height="0.700" rx="0.000" fill="#c79b5c"/><rect x="1.665" y="-7.345" width="0.700" height="1.500" rx="0.000" fill="#c79b5c"/><rect x="0.665" y="-7.345" width="0.700" height="1.500" rx="0.000" fill="#c79b5c"/><rect x="-0.335" y="-7.345" width="0.700" height="1.500" rx="0.000" fill="#c79b5c"/><rect x="-1.335" y="-7.345" width="0.700" height="1.500" rx="0.000" fill="#c79b5c"/><rect x="-2.335" y="-7.345" width="0.700" height="1.500" rx="0.000" fill="#c79b5c"/></svg>