<svg xmlns="http://www.w3.org/2000/svg" viewBox="-3.73 -2.35 7.45 4.70" preserveAspectRatio="xMidYMid meet" style="width:100%;height:100%"><rect x="-3.73" y="-2.35" width="7.45" height="4.70" fill="#12151c"/><line x1="-0.975" y1="-1.100" x2="0.975" y2="-1.100" stroke="#e6e9ef" stroke-width="0.200" stroke-linecap="round" opacity="1"/><line x1="-0.975" y1="1.100" x2="0.975" y2="1.100" stroke="#e6e9ef" stroke-width="0.200" stroke-linecap="round" opacity="1"/><line x1="-2.475" y1="-1.100" x2="-1.325" y2="-1.100" stroke="#4a5160" stroke-width="0.080" stroke-linecap="round" opacity="0.7"/><line x1="-2.475" y1="1.100" x2="-2.475" y2="-1.100" stroke="#4a5160" stroke-width="0.080" stroke-linecap="round" opacity="0.7"/><line x1="-2.475" y1="1.100" x2="-1.325" y2="1.100" stroke="#4a5160" stroke-width="0.080" stroke-linecap="round" opacity="0.7"/><line x1="-2.400" y1="0.000" x2="-1.900" y2="0.000" stroke="#4a5160" stroke-width="0.080" stroke-linecap="round" opacity="0.7"/><line x1="-1.900" y1="0.000" x2="-1.900" y2="-0.500" stroke="#4a5160" stroke-width="0.080" stroke-linecap="round" opacity="0.7"/><line x1="-1.900" y1="0.000" x2="-1.400" y2="0.000" stroke="#4a5160" stroke-width="0.080" stroke-linecap="round" opacity="0.7"/><line x1="-1.900" y1="0.500" x2="-1.900" y2="0.000" stroke="#4a5160" stroke-width="0.080" stroke-linecap="round" opacity="0.7"/><line x1="-1.325" y1="1.100" x2="-1.325" y2="-1.100" stroke="#4a5160" stroke-width="0.080" stroke-linecap="round" opacity="0.7"/><line x1="-0.500" y1="0.000" x2="0.000" y2="0.000" stroke="#4a5160" stroke-width="0.080" stroke-linecap="round" opacity="0.7"/><line x1="0.000" y1="0.000" x2="0.000" y2="-0.500" stroke="#4a5160" stroke-width="0.080" stroke-linecap="round" opacity="0.7"/><line x1="0.000" y1="0.000" x2="0.500" y2="0.000" stroke="#4a5160" stroke-width="0.080" stroke-linecap="round" opacity="0.7"/><line x1="0.000" y1="0.500" x2="0.000" y2="0.000" stroke="#4a5160" stroke-width="0.080" stroke-linecap="round" opacity="0.7"/><line x1="1.325" y1="-1.100" x2="2.475" y2="-1.100" stroke="#4a5160" stroke-width="0.080" stroke-linecap="round" opacity="0.7"/><line x1="1.325" y1="1.100" x2="1.325" y2="-1.100" stroke="#4a5160" stroke-width="0.080" stroke-linecap="round" opacity="0.7"/><line x1="1.325" y1="1.100" x2="2.475" y2="1.100" stroke="#4a5160" stroke-width="0.080" stroke-linecap="round" opacity="0.7"/><line x1="1.400" y1="0.000" x2="1.900" y2="0.000" stroke="#4a5160" stroke-width="0.080" stroke-linecap="round" opacity="0.7"/><line x1="1.900" y1="0.000" x2="1.900" y2="-0.500" stroke="#4a5160" stroke-width="0.080" stroke-linecap="round" opacity="0.7"/><line x1="1.900" y1="0.000" x2="2.400" y2="0.000" stroke="#4a5160" stroke-width="0.080" stroke-linecap="round" opacity="0.7"/><line x1="1.900" y1="0.500" x2="1.900" y2="0.000" stroke="#4a5160" stroke-width="0.080" stroke-linecap="round" opacity="0.7"/><line x1="2.475" y1="1.100" x2="2.475" y2="-1.100" stroke="#4a5160" stroke-width="0.080" stroke-linecap="round" opacity="0.7"/><line x1="-2.725" y1="-1.350" x2="2.725" y2="-1.350" stroke="#d24d4d" stroke-width="0.080" stroke-linecap="round" opacity="0.7"/><line x1="-2.725" y1="1.350" x2="-2.725" y2="-1.350" stroke="#d24d4d" stroke-width="0.080" stroke-linecap="round" opacity="0.7"/><line x1="-2.725" y1="1.350" x2="2.725" y2="1.350" stroke="#d24d4d" stroke-width="0.080" stroke-linecap="round" opacity="0.7"/><line x1="2.725" y1="1.350" x2="2.725" y2="-1.350" stroke="#d24d4d" stroke-width="0.080" stroke-linecap="round" opacity="0.7"/><line x1="-2.100" y1="-1.100" x2="2.100" y2="-1.100" stroke="#6b7280" stroke-width="0.100" stroke-linecap="round" opacity="0.8"/><line x1="-2.100" y1="1.100" x2="-2.100" y2="-1.100" stroke="#6b7280" stroke-width="0.100" stroke-linecap="round" opacity="0.8"/><line x1="-2.100" y1="1.100" x2="2.100" y2="1.100" stroke="#6b7280" stroke-width="0.100" stroke-linecap="round" opacity="0.8"/><line x1="2.100" y1="1.100" x2="2.100" y2="-1.100" stroke="#6b7280" stroke-width="0.100" stroke-linecap="round" opacity="0.8"/><rect x="-2.475" y="-1.100" width="1.150" height="2.200" rx="0.000" fill="#c79b5c"/><rect x="1.325" y="-1.100" width="1.150" height="2.200" rx="0.000" fill="#c79b5c"/><polygon points="-2.35,2.15 -1.45,2.15 -1.90,1.55" fill="#ffffff"/></svg>