<svg xmlns="http://www.w3.org/2000/svg" viewBox="-1.50 -5.50 29.32 27.32" preserveAspectRatio="xMidYMid meet" style="width:100%;height:100%"><rect x="-1.50" y="-5.50" width="29.32" height="27.32" fill="#12151c"/><g transform="translate(5.08 0)"><rect x="0.000" y="-0.000" width="5.080" height="20.320" fill="#1e222b" stroke="#4ea1ff" stroke-width="0.25"/><polyline points="0.000,2.540 1.270,2.540" fill="none" stroke="#4ea1ff" stroke-width="0.25" stroke-linejoin="round"/><polyline points="0.000,5.080 1.270,5.080" fill="none" stroke="#4ea1ff" stroke-width="0.25" stroke-linejoin="round"/><polyline points="0.000,7.620 1.270,7.620" fill="none" stroke="#4ea1ff" stroke-width="0.25" stroke-linejoin="round"/><polyline points="0.000,10.160 1.270,10.160" fill="none" stroke="#4ea1ff" stroke-width="0.25" stroke-linejoin="round"/><polyline points="0.000,12.700 1.270,12.700" fill="none" stroke="#4ea1ff" stroke-width="0.25" stroke-linejoin="round"/><polyline points="0.000,15.240 1.270,15.240" fill="none" stroke="#4ea1ff" stroke-width="0.25" stroke-linejoin="round"/><polyline points="0.000,17.780 1.270,17.780" fill="none" stroke="#4ea1ff" stroke-width="0.25" stroke-linejoin="round"/><polyline points="5.080,-0.000 0.000,-0.000 0.000,20.320 5.080,20.320" fill="none" stroke="#4ea1ff" stroke-width="0.25" stroke-linejoin="round"/><path d="M 1.270 2.540 C 1.270 2.961 1.839 3.302 2.540 3.302" fill="none" stroke="#4ea1ff" stroke-width="0.25"/><path d="M 1.270 5.080 C 1.270 5.501 1.839 5.842 2.540 5.842" fill="none" stroke="#4ea1ff" stroke-width="0.25"/><path d="M 1.270 7.620 C 1.270 8.041 1.839 8.382 2.540 8.382" fill="none" stroke="#4ea1ff" stroke-width="0.25"/><path d="M 1.270 10.160 C 1.270 10.581 1.839 10.922 2.540 10.922" fill="none" stroke="#4ea1ff" stroke-width="0.25"/><path d="M 1.270 12.700 C 1.270 13.121 1.839 13.462 2.540 13.462" fill="none" stroke="#4ea1ff" stroke-width="0.25"/><path d="M 1.270 15.240 C 1.270 15.661 1.839 16.002 2.540 16.002" fill="none" stroke="#4ea1ff" stroke-width="0.25"/><path d="M 1.270 17.780 C 1.270 18.201 1.839 18.542 2.540 18.542" fill="none" stroke="#4ea1ff" stroke-width="0.25"/><path d="M 2.540 1.778 C 1.839 1.778 1.270 2.119 1.270 2.540" fill="none" stroke="#4ea1ff" stroke-width="0.25"/><path d="M 2.540 4.318 C 1.839 4.318 1.270 4.659 1.270 5.080" fill="none" stroke="#4ea1ff" stroke-width="0.25"/><path d="M 2.540 6.858 C 1.839 6.858 1.270 7.199 1.270 7.620" fill="none" stroke="#4ea1ff" stroke-width="0.25"/><path d="M 2.540 9.398 C 1.839 9.398 1.270 9.739 1.270 10.160" fill="none" stroke="#4ea1ff" stroke-width="0.25"/><path d="M 2.540 11.938 C 1.839 11.938 1.270 12.279 1.270 12.700" fill="none" stroke="#4ea1ff" stroke-width="0.25"/><path d="M 2.540 14.478 C 1.839 14.478 1.270 14.819 1.270 15.240" fill="none" stroke="#4ea1ff" stroke-width="0.25"/><path d="M 2.540 17.018 C 1.839 17.018 1.270 17.359 1.270 17.780" fill="none" stroke="#4ea1ff" stroke-width="0.25"/><line x1="-5.080" y1="2.540" x2="0.000" y2="2.540" stroke="#e6e9ef" stroke-width="0.2"/><circle cx="-5.080" cy="2.540" r="0.4" fill="#4ea1ff"/><text x="-0.300" y="2.190" fill="#9aa3b2" font-size="0.9" text-anchor="end" font-family="sans-serif">1</text><line x1="-5.080" y1="5.080" x2="0.000" y2="5.080" stroke="#e6e9ef" stroke-width="0.2"/><circle cx="-5.080" cy="5.080" r="0.4" fill="#4ea1ff"/><text x="-0.300" y="4.730" fill="#9aa3b2" font-size="0.9" text-anchor="end" font-family="sans-serif">2</text><line x1="-5.080" y1="7.620" x2="0.000" y2="7.620" stroke="#e6e9ef" stroke-width="0.2"/><circle cx="-5.080" cy="7.620" r="0.4" fill="#4ea1ff"/><text x="-0.300" y="7.270" fill="#9aa3b2" font-size="0.9" text-anchor="end" font-family="sans-serif">3</text><line x1="-5.080" y1="10.160" x2="0.000" y2="10.160" stroke="#e6e9ef" stroke-width="0.2"/><circle cx="-5.080" cy="10.160" r="0.4" fill="#4ea1ff"/><text x="-0.300" y="9.810" fill="#9aa3b2" font-size="0.9" text-anchor="end" font-family="sans-serif">4</text><line x1="-5.080" y1="12.700" x2="0.000" y2="12.700" stroke="#e6e9ef" stroke-width="0.2"/><circle cx="-5.080" cy="12.700" r="0.4" fill="#4ea1ff"/><text x="-0.300" y="12.350" fill="#9aa3b2" font-size="0.9" text-anchor="end" font-family="sans-serif">5</text><line x1="-5.080" y1="15.240" x2="0.000" y2="15.240" stroke="#e6e9ef" stroke-width="0.2"/><circle cx="-5.080" cy="15.240" r="0.4" fill="#4ea1ff"/><text x="-0.300" y="14.890" fill="#9aa3b2" font-size="0.9" text-anchor="end" font-family="sans-serif">6</text><line x1="-5.080" y1="17.780" x2="0.000" y2="17.780" stroke="#e6e9ef" stroke-width="0.2"/><circle cx="-5.080" cy="17.780" r="0.4" fill="#4ea1ff"/><text x="-0.300" y="17.430" fill="#9aa3b2" font-size="0.9" text-anchor="end" font-family="sans-serif">7</text><text x="0.00" y="-2.00" fill="#9aa3b2" font-size="1.6" text-anchor="middle" font-family="sans-serif">A</text></g><g transform="translate(21.24 0)"><rect x="0.000" y="-0.000" width="5.080" height="20.320" fill="#1e222b" stroke="#4ea1ff" stroke-width="0.25"/><polyline points="0.000,2.540 1.270,2.540" fill="none" stroke="#4ea1ff" stroke-width="0.25" stroke-linejoin="round"/><polyline points="0.000,5.080 1.270,5.080" fill="none" stroke="#4ea1ff" stroke-width="0.25" stroke-linejoin="round"/><polyline points="0.000,7.620 1.270,7.620" fill="none" stroke="#4ea1ff" stroke-width="0.25" stroke-linejoin="round"/><polyline points="0.000,10.160 1.270,10.160" fill="none" stroke="#4ea1ff" stroke-width="0.25" stroke-linejoin="round"/><polyline points="0.000,12.700 1.270,12.700" fill="none" stroke="#4ea1ff" stroke-width="0.25" stroke-linejoin="round"/><polyline points="0.000,15.240 1.270,15.240" fill="none" stroke="#4ea1ff" stroke-width="0.25" stroke-linejoin="round"/><polyline points="0.000,17.780 1.270,17.780" fill="none" stroke="#4ea1ff" stroke-width="0.25" stroke-linejoin="round"/><polyline points="5.080,-0.000 0.000,-0.000 0.000,20.320 5.080,20.320" fill="none" stroke="#4ea1ff" stroke-width="0.25" stroke-linejoin="round"/><path d="M 1.270 2.540 C 1.270 2.961 1.839 3.302 2.540 3.302" fill="none" stroke="#4ea1ff" stroke-width="0.25"/><path d="M 1.270 5.080 C 1.270 5.501 1.839 5.842 2.540 5.842" fill="none" stroke="#4ea1ff" stroke-width="0.25"/><path d="M 1.270 7.620 C 1.270 8.041 1.839 8.382 2.540 8.382" fill="none" stroke="#4ea1ff" stroke-width="0.25"/><path d="M 1.270 10.160 C 1.270 10.581 1.839 10.922 2.540 10.922" fill="none" stroke="#4ea1ff" stroke-width="0.25"/><path d="M 1.270 12.700 C 1.270 13.121 1.839 13.462 2.540 13.462" fill="none" stroke="#4ea1ff" stroke-width="0.25"/><path d="M 1.270 15.240 C 1.270 15.661 1.839 16.002 2.540 16.002" fill="none" stroke="#4ea1ff" stroke-width="0.25"/><path d="M 1.270 17.780 C 1.270 18.201 1.839 18.542 2.540 18.542" fill="none" stroke="#4ea1ff" stroke-width="0.25"/><path d="M 2.540 1.778 C 1.839 1.778 1.270 2.119 1.270 2.540" fill="none" stroke="#4ea1ff" stroke-width="0.25"/><path d="M 2.540 4.318 C 1.839 4.318 1.270 4.659 1.270 5.080" fill="none" stroke="#4ea1ff" stroke-width="0.25"/><path d="M 2.540 6.858 C 1.839 6.858 1.270 7.199 1.270 7.620" fill="none" stroke="#4ea1ff" stroke-width="0.25"/><path d="M 2.540 9.398 C 1.839 9.398 1.270 9.739 1.270 10.160" fill="none" stroke="#4ea1ff" stroke-width="0.25"/><path d="M 2.540 11.938 C 1.839 11.938 1.270 12.279 1.270 12.700" fill="none" stroke="#4ea1ff" stroke-width="0.25"/><path d="M 2.540 14.478 C 1.839 14.478 1.270 14.819 1.270 15.240" fill="none" stroke="#4ea1ff" stroke-width="0.25"/><path d="M 2.540 17.018 C 1.839 17.018 1.270 17.359 1.270 17.780" fill="none" stroke="#4ea1ff" stroke-width="0.25"/><line x1="-5.080" y1="2.540" x2="0.000" y2="2.540" stroke="#e6e9ef" stroke-width="0.2"/><circle cx="-5.080" cy="2.540" r="0.4" fill="#4ea1ff"/><text x="-0.300" y="2.190" fill="#9aa3b2" font-size="0.9" text-anchor="end" font-family="sans-serif">14</text><line x1="-5.080" y1="5.080" x2="0.000" y2="5.080" stroke="#e6e9ef" stroke-width="0.2"/><circle cx="-5.080" cy="5.080" r="0.4" fill="#4ea1ff"/><text x="-0.300" y="4.730" fill="#9aa3b2" font-size="0.9" text-anchor="end" font-family="sans-serif">13</text><line x1="-5.080" y1="7.620" x2="0.000" y2="7.620" stroke="#e6e9ef" stroke-width="0.2"/><circle cx="-5.080" cy="7.620" r="0.4" fill="#4ea1ff"/><text x="-0.300" y="7.270" fill="#9aa3b2" font-size="0.9" text-anchor="end" font-family="sans-serif">12</text><line x1="-5.080" y1="10.160" x2="0.000" y2="10.160" stroke="#e6e9ef" stroke-width="0.2"/><circle cx="-5.080" cy="10.160" r="0.4" fill="#4ea1ff"/><text x="-0.300" y="9.810" fill="#9aa3b2" font-size="0.9" text-anchor="end" font-family="sans-serif">11</text><line x1="-5.080" y1="12.700" x2="0.000" y2="12.700" stroke="#e6e9ef" stroke-width="0.2"/><circle cx="-5.080" cy="12.700" r="0.4" fill="#4ea1ff"/><text x="-0.300" y="12.350" fill="#9aa3b2" font-size="0.9" text-anchor="end" font-family="sans-serif">10</text><line x1="-5.080" y1="15.240" x2="0.000" y2="15.240" stroke="#e6e9ef" stroke-width="0.2"/><circle cx="-5.080" cy="15.240" r="0.4" fill="#4ea1ff"/><text x="-0.300" y="14.890" fill="#9aa3b2" font-size="0.9" text-anchor="end" font-family="sans-serif">9</text><line x1="-5.080" y1="17.780" x2="0.000" y2="17.780" stroke="#e6e9ef" stroke-width="0.2"/><circle cx="-5.080" cy="17.780" r="0.4" fill="#4ea1ff"/><text x="-0.300" y="17.430" fill="#9aa3b2" font-size="0.9" text-anchor="end" font-family="sans-serif">8</text><text x="0.00" y="-2.00" fill="#9aa3b2" font-size="1.6" text-anchor="middle" font-family="sans-serif">B</text></g></svg>