<svg xmlns="http://www.w3.org/2000/svg" viewBox="-1.55 -2.16 3.10 3.94" preserveAspectRatio="xMidYMid meet" style="width:100%;height:100%"><rect x="-1.55" y="-2.16" width="3.10" height="3.94" fill="#12151c"/><line x1="-0.500" y1="0.000" x2="0.000" y2="0.000" stroke="#4a5160" stroke-width="0.100" stroke-linecap="round" opacity="0.7"/><line x1="-0.300" y1="-0.535" x2="-0.195" y2="-0.360" stroke="#4a5160" stroke-width="0.100" stroke-linecap="round" opacity="0.7"/><line x1="-0.300" y1="-0.535" x2="-0.090" y2="-0.535" stroke="#4a5160" stroke-width="0.100" stroke-linecap="round" opacity="0.7"/><line x1="-0.300" y1="-0.185" x2="-0.300" y2="-0.535" stroke="#4a5160" stroke-width="0.100" stroke-linecap="round" opacity="0.7"/><line x1="-0.300" y1="-0.185" x2="-0.090" y2="-0.185" stroke="#4a5160" stroke-width="0.100" stroke-linecap="round" opacity="0.7"/><line x1="-0.300" y1="0.185" x2="-0.195" y2="0.360" stroke="#4a5160" stroke-width="0.100" stroke-linecap="round" opacity="0.7"/><line x1="-0.300" y1="0.185" x2="-0.090" y2="0.185" stroke="#4a5160" stroke-width="0.100" stroke-linecap="round" opacity="0.7"/><line x1="-0.300" y1="0.185" x2="0.300" y2="0.185" stroke="#4a5160" stroke-width="0.100" stroke-linecap="round" opacity="0.7"/><line x1="-0.300" y1="0.535" x2="-0.300" y2="0.185" stroke="#4a5160" stroke-width="0.100" stroke-linecap="round" opacity="0.7"/><line x1="-0.300" y1="0.535" x2="-0.090" y2="0.535" stroke="#4a5160" stroke-width="0.100" stroke-linecap="round" opacity="0.7"/><line x1="-0.300" y1="0.535" x2="0.000" y2="0.360" stroke="#4a5160" stroke-width="0.100" stroke-linecap="round" opacity="0.7"/><line x1="-0.300" y1="0.535" x2="0.300" y2="0.535" stroke="#4a5160" stroke-width="0.100" stroke-linecap="round" opacity="0.7"/><line x1="-0.195" y1="-0.360" x2="-0.090" y2="-0.535" stroke="#4a5160" stroke-width="0.100" stroke-linecap="round" opacity="0.7"/><line x1="-0.195" y1="0.360" x2="-0.090" y2="0.185" stroke="#4a5160" stroke-width="0.100" stroke-linecap="round" opacity="0.7"/><line x1="-0.090" y1="-0.185" x2="-0.090" y2="-0.535" stroke="#4a5160" stroke-width="0.100" stroke-linecap="round" opacity="0.7"/><line x1="-0.090" y1="0.535" x2="-0.090" y2="0.185" stroke="#4a5160" stroke-width="0.100" stroke-linecap="round" opacity="0.7"/><line x1="0.000" y1="0.000" x2="0.000" y2="-0.500" stroke="#4a5160" stroke-width="0.100" stroke-linecap="round" opacity="0.7"/><line x1="0.000" y1="0.000" x2="0.500" y2="0.000" stroke="#4a5160" stroke-width="0.100" stroke-linecap="round" opacity="0.7"/><line x1="0.000" y1="0.360" x2="0.300" y2="0.535" stroke="#4a5160" stroke-width="0.100" stroke-linecap="round" opacity="0.7"/><line x1="0.000" y1="0.500" x2="0.000" y2="0.000" stroke="#4a5160" stroke-width="0.100" stroke-linecap="round" opacity="0.7"/><line x1="0.090" y1="-0.535" x2="0.195" y2="-0.360" stroke="#4a5160" stroke-width="0.100" stroke-linecap="round" opacity="0.7"/><line x1="0.090" y1="-0.535" x2="0.300" y2="-0.535" stroke="#4a5160" stroke-width="0.100" stroke-linecap="round" opacity="0.7"/><line x1="0.090" y1="-0.185" x2="0.090" y2="-0.535" stroke="#4a5160" stroke-width="0.100" stroke-linecap="round" opacity="0.7"/><line x1="0.090" y1="-0.185" x2="0.300" y2="-0.185" stroke="#4a5160" stroke-width="0.100" stroke-linecap="round" opacity="0.7"/><line x1="0.090" y1="0.185" x2="0.195" y2="0.360" stroke="#4a5160" stroke-width="0.100" stroke-linecap="round" opacity="0.7"/><line x1="0.090" y1="0.185" x2="0.300" y2="0.185" stroke="#4a5160" stroke-width="0.100" stroke-linecap="round" opacity="0.7"/><line x1="0.090" y1="0.535" x2="0.090" y2="0.185" stroke="#4a5160" stroke-width="0.100" stroke-linecap="round" opacity="0.7"/><line x1="0.090" y1="0.535" x2="0.300" y2="0.535" stroke="#4a5160" stroke-width="0.100" stroke-linecap="round" opacity="0.7"/><line x1="0.195" y1="-0.360" x2="0.300" y2="-0.535" stroke="#4a5160" stroke-width="0.100" stroke-linecap="round" opacity="0.7"/><line x1="0.195" y1="0.360" x2="0.300" y2="0.185" stroke="#4a5160" stroke-width="0.100" stroke-linecap="round" opacity="0.7"/><line x1="0.300" y1="-0.185" x2="0.300" y2="-0.535" stroke="#4a5160" stroke-width="0.100" stroke-linecap="round" opacity="0.7"/><line x1="0.300" y1="0.535" x2="0.300" y2="0.185" stroke="#4a5160" stroke-width="0.100" stroke-linecap="round" opacity="0.7"/><line x1="-0.550" y1="-0.785" x2="0.550" y2="-0.785" stroke="#d24d4d" stroke-width="0.080" stroke-linecap="round" opacity="0.7"/><line x1="-0.550" y1="0.785" x2="-0.550" y2="-0.785" stroke="#d24d4d" stroke-width="0.080" stroke-linecap="round" opacity="0.7"/><line x1="-0.550" y1="0.785" x2="0.550" y2="0.785" stroke="#d24d4d" stroke-width="0.080" stroke-linecap="round" opacity="0.7"/><line x1="0.550" y1="0.785" x2="0.550" y2="-0.785" stroke="#d24d4d" stroke-width="0.080" stroke-linecap="round" opacity="0.7"/><line x1="-0.275" y1="-0.525" x2="0.275" y2="-0.525" stroke="#6b7280" stroke-width="0.100" stroke-linecap="round" opacity="0.8"/><line x1="-0.275" y1="0.525" x2="-0.275" y2="-0.525" stroke="#6b7280" stroke-width="0.100" stroke-linecap="round" opacity="0.8"/><line x1="-0.275" y1="0.525" x2="0.275" y2="0.525" stroke="#6b7280" stroke-width="0.100" stroke-linecap="round" opacity="0.8"/><line x1="0.275" y1="0.525" x2="0.275" y2="-0.525" stroke="#6b7280" stroke-width="0.100" stroke-linecap="round" opacity="0.8"/><circle cx="0.000" cy="-1.030" r="0.150" fill="#e6e9ef" opacity="1"/><circle cx="0.000" cy="-0.325" r="0.150" fill="#6b7280" opacity="0.8"/><rect x="-0.300" y="-0.535" width="0.210" height="0.350" rx="0.000" fill="#c79b5c"/><rect x="0.090" y="-0.535" width="0.210" height="0.350" rx="0.000" fill="#c79b5c"/><rect x="-0.300" y="0.185" width="0.210" height="0.350" rx="0.000" fill="#c79b5c"/><rect x="-0.300" y="0.185" width="0.600" height="0.350" rx="0.000" fill="#c79b5c"/><rect x="0.090" y="0.185" width="0.210" height="0.350" rx="0.000" fill="#c79b5c"/></svg>