<svg xmlns="http://www.w3.org/2000/svg" viewBox="-14.20 -11.65 28.40 24.09" preserveAspectRatio="xMidYMid meet" style="width:100%;height:100%"><rect x="-14.20" y="-11.65" width="28.40" height="24.09" fill="#12151c"/><line x1="-13.200" y1="-10.650" x2="13.200" y2="-10.650" stroke="#d24d4d" stroke-width="0.080" stroke-linecap="round" opacity="0.7"/><line x1="13.200" y1="-10.650" x2="13.200" y2="10.650" stroke="#d24d4d" stroke-width="0.080" stroke-linecap="round" opacity="0.7"/><line x1="13.200" y1="10.650" x2="-13.200" y2="10.650" stroke="#d24d4d" stroke-width="0.080" stroke-linecap="round" opacity="0.7"/><line x1="-13.200" y1="10.650" x2="-13.200" y2="-10.650" stroke="#d24d4d" stroke-width="0.080" stroke-linecap="round" opacity="0.7"/><circle cx="-11.558" cy="11.290" r="0.150" fill="none" stroke="#e6e9ef" stroke-width="0.12" opacity="1"/><rect x="-12.180" y="6.870" width="1.500" height="1.500" rx="0.750" fill="#c79b5c"/><circle cx="-11.430" cy="7.620" r="0.400" fill="#12151c"/><rect x="-9.640" y="6.870" width="1.500" height="1.500" rx="0.750" fill="#c79b5c"/><circle cx="-8.890" cy="7.620" r="0.400" fill="#12151c"/><rect x="5.600" y="6.870" width="1.500" height="1.500" rx="0.750" fill="#c79b5c"/><circle cx="6.350" cy="7.620" r="0.400" fill="#12151c"/><rect x="10.680" y="6.870" width="1.500" height="1.500" rx="0.750" fill="#c79b5c"/><circle cx="11.430" cy="7.620" r="0.400" fill="#12151c"/><rect x="10.680" y="-8.370" width="1.500" height="1.500" rx="0.750" fill="#c79b5c"/><circle cx="11.430" cy="-7.620" r="0.400" fill="#12151c"/><rect x="5.600" y="-8.370" width="1.500" height="1.500" rx="0.750" fill="#c79b5c"/><circle cx="6.350" cy="-7.620" r="0.400" fill="#12151c"/><rect x="-9.640" y="-8.370" width="1.500" height="1.500" rx="0.750" fill="#c79b5c"/><circle cx="-8.890" cy="-7.620" r="0.400" fill="#12151c"/><rect x="-12.180" y="-8.370" width="1.500" height="1.500" rx="0.750" fill="#c79b5c"/><circle cx="-11.430" cy="-7.620" r="0.400" fill="#12151c"/></svg>