<svg xmlns="http://www.w3.org/2000/svg" viewBox="-28.11 -18.43 56.16 24.83" preserveAspectRatio="xMidYMid meet" style="width:100%;height:100%"><rect x="-28.11" y="-18.43" width="56.16" height="24.83" fill="#12151c"/><line x1="-26.860" y1="-11.480" x2="26.800" y2="-11.480" stroke="#e6e9ef" stroke-width="0.200" stroke-linecap="round" opacity="1"/><line x1="-26.860" y1="-11.080" x2="-26.860" y2="-11.480" stroke="#e6e9ef" stroke-width="0.200" stroke-linecap="round" opacity="1"/><line x1="-26.860" y1="-11.080" x2="26.800" y2="-11.080" stroke="#e6e9ef" stroke-width="0.200" stroke-linecap="round" opacity="1"/><line x1="-26.500" y1="-8.580" x2="26.500" y2="-8.580" stroke="#e6e9ef" stroke-width="0.200" stroke-linecap="round" opacity="1"/><line x1="-26.500" y1="-7.580" x2="-19.500" y2="-7.580" stroke="#e6e9ef" stroke-width="0.200" stroke-linecap="round" opacity="1"/><line x1="-26.500" y1="-0.900" x2="-26.500" y2="-11.080" stroke="#e6e9ef" stroke-width="0.200" stroke-linecap="round" opacity="1"/><line x1="-26.500" y1="4.520" x2="-26.500" y2="0.800" stroke="#e6e9ef" stroke-width="0.200" stroke-linecap="round" opacity="1"/><line x1="-26.500" y1="4.520" x2="26.500" y2="4.520" stroke="#e6e9ef" stroke-width="0.200" stroke-linecap="round" opacity="1"/><line x1="-26.400" y1="-5.350" x2="-26.400" y2="-7.580" stroke="#e6e9ef" stroke-width="0.200" stroke-linecap="round" opacity="1"/><line x1="-25.600" y1="-4.550" x2="-25.350" y2="-4.550" stroke="#e6e9ef" stroke-width="0.200" stroke-linecap="round" opacity="1"/><line x1="-25.480" y1="-11.980" x2="-21.640" y2="-11.980" stroke="#e6e9ef" stroke-width="0.200" stroke-linecap="round" opacity="1"/><line x1="-25.480" y1="-11.480" x2="-25.480" y2="-11.980" stroke="#e6e9ef" stroke-width="0.200" stroke-linecap="round" opacity="1"/><line x1="-25.350" y1="-2.500" x2="-25.350" y2="-4.550" stroke="#e6e9ef" stroke-width="0.200" stroke-linecap="round" opacity="1"/><line x1="-24.500" y1="-8.580" x2="-24.500" y2="-11.080" stroke="#e6e9ef" stroke-width="0.200" stroke-linecap="round" opacity="1"/><line x1="-24.225" y1="-3.050" x2="-24.225" y2="-4.250" stroke="#e6e9ef" stroke-width="0.200" stroke-linecap="round" opacity="1"/><line x1="-22.925" y1="-3.050" x2="-22.925" y2="-4.250" stroke="#e6e9ef" stroke-width="0.200" stroke-linecap="round" opacity="1"/><line x1="-21.800" y1="-4.550" x2="-21.550" y2="-4.550" stroke="#e6e9ef" stroke-width="0.200" stroke-linecap="round" opacity="1"/><line x1="-21.800" y1="-2.600" x2="-21.800" y2="-4.550" stroke="#e6e9ef" stroke-width="0.200" stroke-linecap="round" opacity="1"/><line x1="-21.640" y1="-11.480" x2="-21.640" y2="-11.980" stroke="#e6e9ef" stroke-width="0.200" stroke-linecap="round" opacity="1"/><line x1="-20.750" y1="-5.350" x2="-20.750" y2="-7.604" stroke="#e6e9ef" stroke-width="0.200" stroke-linecap="round" opacity="1"/><line x1="-20.500" y1="-0.800" x2="-20.500" y2="-7.580" stroke="#e6e9ef" stroke-width="0.200" stroke-linecap="round" opacity="1"/><line x1="-20.500" y1="4.520" x2="-20.500" y2="0.800" stroke="#e6e9ef" stroke-width="0.200" stroke-linecap="round" opacity="1"/><line x1="-20.310" y1="-16.281" x2="20.250" y2="-16.281" stroke="#e6e9ef" stroke-width="0.200" stroke-linecap="round" opacity="1"/><line x1="-20.310" y1="-11.980" x2="-20.310" y2="-16.280" stroke="#e6e9ef" stroke-width="0.200" stroke-linecap="round" opacity="1"/><line x1="-20.310" y1="-11.980" x2="20.250" y2="-11.980" stroke="#e6e9ef" stroke-width="0.200" stroke-linecap="round" opacity="1"/><line x1="-19.500" y1="1.500" x2="-19.500" y2="-7.580" stroke="#e6e9ef" stroke-width="0.200" stroke-linecap="round" opacity="1"/><line x1="-19.500" y1="4.520" x2="-19.500" y2="3.700" stroke="#e6e9ef" stroke-width="0.200" stroke-linecap="round" opacity="1"/><line x1="-19.375" y1="-17.180" x2="19.315" y2="-17.180" stroke="#e6e9ef" stroke-width="0.200" stroke-linecap="round" opacity="1"/><line x1="-17.480" y1="-11.480" x2="-17.480" y2="-17.180" stroke="#e6e9ef" stroke-width="0.200" stroke-linecap="round" opacity="1"/><line x1="17.420" y1="-11.480" x2="17.468" y2="-17.180" stroke="#e6e9ef" stroke-width="0.200" stroke-linecap="round" opacity="1"/><line x1="19.500" y1="-7.580" x2="26.500" y2="-7.580" stroke="#e6e9ef" stroke-width="0.200" stroke-linecap="round" opacity="1"/><line x1="19.500" y1="4.520" x2="19.500" y2="-7.580" stroke="#e6e9ef" stroke-width="0.200" stroke-linecap="round" opacity="1"/><line x1="20.250" y1="-11.980" x2="20.250" y2="-16.280" stroke="#e6e9ef" stroke-width="0.200" stroke-linecap="round" opacity="1"/><line x1="20.500" y1="-0.700" x2="20.500" y2="-7.580" stroke="#e6e9ef" stroke-width="0.200" stroke-linecap="round" opacity="1"/><line x1="20.500" y1="4.520" x2="20.500" y2="0.600" stroke="#e6e9ef" stroke-width="0.200" stroke-linecap="round" opacity="1"/><line x1="20.750" y1="-5.350" x2="20.750" y2="-7.604" stroke="#e6e9ef" stroke-width="0.200" stroke-linecap="round" opacity="1"/><line x1="21.550" y1="-4.550" x2="21.800" y2="-4.550" stroke="#e6e9ef" stroke-width="0.200" stroke-linecap="round" opacity="1"/><line x1="21.640" y1="-11.980" x2="25.480" y2="-11.980" stroke="#e6e9ef" stroke-width="0.200" stroke-linecap="round" opacity="1"/><line x1="21.640" y1="-11.480" x2="21.640" y2="-11.980" stroke="#e6e9ef" stroke-width="0.200" stroke-linecap="round" opacity="1"/><line x1="21.800" y1="-2.600" x2="21.800" y2="-4.550" stroke="#e6e9ef" stroke-width="0.200" stroke-linecap="round" opacity="1"/><line x1="22.925" y1="-3.050" x2="22.925" y2="-4.250" stroke="#e6e9ef" stroke-width="0.200" stroke-linecap="round" opacity="1"/><line x1="24.225" y1="-3.050" x2="24.225" y2="-4.250" stroke="#e6e9ef" stroke-width="0.200" stroke-linecap="round" opacity="1"/><line x1="24.500" y1="-8.580" x2="24.500" y2="-11.080" stroke="#e6e9ef" stroke-width="0.200" stroke-linecap="round" opacity="1"/><line x1="25.350" y1="-4.550" x2="25.600" y2="-4.550" stroke="#e6e9ef" stroke-width="0.200" stroke-linecap="round" opacity="1"/><line x1="25.350" y1="-2.500" x2="25.350" y2="-4.550" stroke="#e6e9ef" stroke-width="0.200" stroke-linecap="round" opacity="1"/><line x1="25.480" y1="-11.480" x2="25.480" y2="-11.980" stroke="#e6e9ef" stroke-width="0.200" stroke-linecap="round" opacity="1"/><line x1="26.400" y1="-5.350" x2="26.400" y2="-7.580" stroke="#e6e9ef" stroke-width="0.200" stroke-linecap="round" opacity="1"/><line x1="26.500" y1="-0.900" x2="26.500" y2="-11.080" stroke="#e6e9ef" stroke-width="0.200" stroke-linecap="round" opacity="1"/><line x1="26.500" y1="4.520" x2="26.500" y2="0.900" stroke="#e6e9ef" stroke-width="0.200" stroke-linecap="round" opacity="1"/><line x1="26.800" y1="-11.080" x2="26.800" y2="-11.480" stroke="#e6e9ef" stroke-width="0.200" stroke-linecap="round" opacity="1"/><line x1="-26.860" y1="-11.430" x2="26.800" y2="-11.430" stroke="#4a5160" stroke-width="0.080" stroke-linecap="round" opacity="0.7"/><line x1="-24.020" y1="0.000" x2="-23.020" y2="0.000" stroke="#4a5160" stroke-width="0.080" stroke-linecap="round" opacity="0.7"/><line x1="-23.520" y1="0.500" x2="-23.520" y2="-0.500" stroke="#4a5160" stroke-width="0.080" stroke-linecap="round" opacity="0.7"/><line x1="-17.040" y1="2.540" x2="-16.540" y2="2.540" stroke="#4a5160" stroke-width="0.080" stroke-linecap="round" opacity="0.7"/><line x1="-16.540" y1="2.540" x2="-16.540" y2="2.040" stroke="#4a5160" stroke-width="0.080" stroke-linecap="round" opacity="0.7"/><line x1="-16.540" y1="2.540" x2="-16.040" y2="2.540" stroke="#4a5160" stroke-width="0.080" stroke-linecap="round" opacity="0.7"/><line x1="-16.540" y1="3.040" x2="-16.540" y2="2.540" stroke="#4a5160" stroke-width="0.080" stroke-linecap="round" opacity="0.7"/><line x1="-15.895" y1="0.000" x2="-15.395" y2="0.000" stroke="#4a5160" stroke-width="0.080" stroke-linecap="round" opacity="0.7"/><line x1="-15.395" y1="0.000" x2="-15.395" y2="-0.500" stroke="#4a5160" stroke-width="0.080" stroke-linecap="round" opacity="0.7"/><line x1="-15.395" y1="0.000" x2="-14.895" y2="0.000" stroke="#4a5160" stroke-width="0.080" stroke-linecap="round" opacity="0.7"/><line x1="-15.395" y1="0.500" x2="-15.395" y2="0.000" stroke="#4a5160" stroke-width="0.080" stroke-linecap="round" opacity="0.7"/><line x1="-14.750" y1="-2.540" x2="-14.250" y2="-2.540" stroke="#4a5160" stroke-width="0.080" stroke-linecap="round" opacity="0.7"/><line x1="-14.750" y1="2.540" x2="-14.250" y2="2.540" stroke="#4a5160" stroke-width="0.080" stroke-linecap="round" opacity="0.7"/><line x1="-14.250" y1="-2.540" x2="-14.250" y2="-3.040" stroke="#4a5160" stroke-width="0.080" stroke-linecap="round" opacity="0.7"/><line x1="-14.250" y1="-2.540" x2="-13.750" y2="-2.540" stroke="#4a5160" stroke-width="0.080" stroke-linecap="round" opacity="0.7"/><line x1="-14.250" y1="-2.040" x2="-14.250" y2="-2.540" stroke="#4a5160" stroke-width="0.080" stroke-linecap="round" opacity="0.7"/><line x1="-14.250" y1="2.540" x2="-14.250" y2="2.040" stroke="#4a5160" stroke-width="0.080" stroke-linecap="round" opacity="0.7"/><line x1="-14.250" y1="2.540" x2="-13.750" y2="2.540" stroke="#4a5160" stroke-width="0.080" stroke-linecap="round" opacity="0.7"/><line x1="-14.250" y1="3.040" x2="-14.250" y2="2.540" stroke="#4a5160" stroke-width="0.080" stroke-linecap="round" opacity="0.7"/><line x1="-13.605" y1="0.000" x2="-13.105" y2="0.000" stroke="#4a5160" stroke-width="0.080" stroke-linecap="round" opacity="0.7"/><line x1="-13.105" y1="0.000" x2="-13.105" y2="-0.500" stroke="#4a5160" stroke-width="0.080" stroke-linecap="round" opacity="0.7"/><line x1="-13.105" y1="0.000" x2="-12.605" y2="0.000" stroke="#4a5160" stroke-width="0.080" stroke-linecap="round" opacity="0.7"/><line x1="-13.105" y1="0.500" x2="-13.105" y2="0.000" stroke="#4a5160" stroke-width="0.080" stroke-linecap="round" opacity="0.7"/><line x1="-12.460" y1="-2.540" x2="-11.960" y2="-2.540" stroke="#4a5160" stroke-width="0.080" stroke-linecap="round" opacity="0.7"/><line x1="-12.460" y1="2.540" x2="-11.960" y2="2.540" stroke="#4a5160" stroke-width="0.080" stroke-linecap="round" opacity="0.7"/><line x1="-11.960" y1="-2.540" x2="-11.960" y2="-3.040" stroke="#4a5160" stroke-width="0.080" stroke-linecap="round" opacity="0.7"/><line x1="-11.960" y1="-2.540" x2="-11.460" y2="-2.540" stroke="#4a5160" stroke-width="0.080" stroke-linecap="round" opacity="0.7"/><line x1="-11.960" y1="-2.040" x2="-11.960" y2="-2.540" stroke="#4a5160" stroke-width="0.080" stroke-linecap="round" opacity="0.7"/><line x1="-11.960" y1="2.540" x2="-11.960" y2="2.040" stroke="#4a5160" stroke-width="0.080" stroke-linecap="round" opacity="0.7"/><line x1="-11.960" y1="2.540" x2="-11.460" y2="2.540" stroke="#4a5160" stroke-width="0.080" stroke-linecap="round" opacity="0.7"/><line x1="-11.960" y1="3.040" x2="-11.960" y2="2.540" stroke="#4a5160" stroke-width="0.080" stroke-linecap="round" opacity="0.7"/><line x1="-11.315" y1="0.000" x2="-10.815" y2="0.000" stroke="#4a5160" stroke-width="0.080" stroke-linecap="round" opacity="0.7"/><line x1="-10.815" y1="0.000" x2="-10.815" y2="-0.500" stroke="#4a5160" stroke-width="0.080" stroke-linecap="round" opacity="0.7"/><line x1="-10.815" y1="0.000" x2="-10.315" y2="0.000" stroke="#4a5160" stroke-width="0.080" stroke-linecap="round" opacity="0.7"/><line x1="-10.815" y1="0.500" x2="-10.815" y2="0.000" stroke="#4a5160" stroke-width="0.080" stroke-linecap="round" opacity="0.7"/><line x1="-10.170" y1="-2.540" x2="-9.670" y2="-2.540" stroke="#4a5160" stroke-width="0.080" stroke-linecap="round" opacity="0.7"/><line x1="-10.170" y1="2.540" x2="-9.670" y2="2.540" stroke="#4a5160" stroke-width="0.080" stroke-linecap="round" opacity="0.7"/><line x1="-9.670" y1="-2.540" x2="-9.670" y2="-3.040" stroke="#4a5160" stroke-width="0.080" stroke-linecap="round" opacity="0.7"/><line x1="-9.670" y1="-2.540" x2="-9.170" y2="-2.540" stroke="#4a5160" stroke-width="0.080" stroke-linecap="round" opacity="0.7"/><line x1="-9.670" y1="-2.040" x2="-9.670" y2="-2.540" stroke="#4a5160" stroke-width="0.080" stroke-linecap="round" opacity="0.7"/><line x1="-9.670" y1="2.540" x2="-9.670" y2="2.040" stroke="#4a5160" stroke-width="0.080" stroke-linecap="round" opacity="0.7"/><line x1="-9.670" y1="2.540" x2="-9.170" y2="2.540" stroke="#4a5160" stroke-width="0.080" stroke-linecap="round" opacity="0.7"/><line x1="-9.670" y1="3.040" x2="-9.670" y2="2.540" stroke="#4a5160" stroke-width="0.080" stroke-linecap="round" opacity="0.7"/><line x1="-9.025" y1="0.000" x2="-8.525" y2="0.000" stroke="#4a5160" stroke-width="0.080" stroke-linecap="round" opacity="0.7"/><line x1="-8.525" y1="0.000" x2="-8.525" y2="-0.500" stroke="#4a5160" stroke-width="0.080" stroke-linecap="round" opacity="0.7"/><line x1="-8.525" y1="0.000" x2="-8.025" y2="0.000" stroke="#4a5160" stroke-width="0.080" stroke-linecap="round" opacity="0.7"/><line x1="-8.525" y1="0.500" x2="-8.525" y2="0.000" stroke="#4a5160" stroke-width="0.080" stroke-linecap="round" opacity="0.7"/><line x1="-7.880" y1="-2.540" x2="-7.380" y2="-2.540" stroke="#4a5160" stroke-width="0.080" stroke-linecap="round" opacity="0.7"/><line x1="-7.880" y1="2.540" x2="-7.380" y2="2.540" stroke="#4a5160" stroke-width="0.080" stroke-linecap="round" opacity="0.7"/><line x1="-7.380" y1="-2.540" x2="-7.380" y2="-3.040" stroke="#4a5160" stroke-width="0.080" stroke-linecap="round" opacity="0.7"/><line x1="-7.380" y1="-2.540" x2="-6.880" y2="-2.540" stroke="#4a5160" stroke-width="0.080" stroke-linecap="round" opacity="0.7"/><line x1="-7.380" y1="-2.040" x2="-7.380" y2="-2.540" stroke="#4a5160" stroke-width="0.080" stroke-linecap="round" opacity="0.7"/><line x1="-7.380" y1="2.540" x2="-7.380" y2="2.040" stroke="#4a5160" stroke-width="0.080" stroke-linecap="round" opacity="0.7"/><line x1="-7.380" y1="2.540" x2="-6.880" y2="2.540" stroke="#4a5160" stroke-width="0.080" stroke-linecap="round" opacity="0.7"/><line x1="-7.380" y1="3.040" x2="-7.380" y2="2.540" stroke="#4a5160" stroke-width="0.080" stroke-linecap="round" opacity="0.7"/><line x1="-6.735" y1="0.000" x2="-6.235" y2="0.000" stroke="#4a5160" stroke-width="0.080" stroke-linecap="round" opacity="0.7"/><line x1="-6.235" y1="0.000" x2="-6.235" y2="-0.500" stroke="#4a5160" stroke-width="0.080" stroke-linecap="round" opacity="0.7"/><line x1="-6.235" y1="0.000" x2="-5.735" y2="0.000" stroke="#4a5160" stroke-width="0.080" stroke-linecap="round" opacity="0.7"/><line x1="-6.235" y1="0.500" x2="-6.235" y2="0.000" stroke="#4a5160" stroke-width="0.080" stroke-linecap="round" opacity="0.7"/><line x1="-5.590" y1="-2.540" x2="-5.090" y2="-2.540" stroke="#4a5160" stroke-width="0.080" stroke-linecap="round" opacity="0.7"/><line x1="-5.590" y1="2.540" x2="-5.090" y2="2.540" stroke="#4a5160" stroke-width="0.080" stroke-linecap="round" opacity="0.7"/><line x1="-5.090" y1="-2.540" x2="-5.090" y2="-3.040" stroke="#4a5160" stroke-width="0.080" stroke-linecap="round" opacity="0.7"/><line x1="-5.090" y1="-2.540" x2="-4.590" y2="-2.540" stroke="#4a5160" stroke-width="0.080" stroke-linecap="round" opacity="0.7"/><line x1="-5.090" y1="-2.040" x2="-5.090" y2="-2.540" stroke="#4a5160" stroke-width="0.080" stroke-linecap="round" opacity="0.7"/><line x1="-5.090" y1="2.540" x2="-5.090" y2="2.040" stroke="#4a5160" stroke-width="0.080" stroke-linecap="round" opacity="0.7"/><line x1="-5.090" y1="2.540" x2="-4.590" y2="2.540" stroke="#4a5160" stroke-width="0.080" stroke-linecap="round" opacity="0.7"/><line x1="-5.090" y1="3.040" x2="-5.090" y2="2.540" stroke="#4a5160" stroke-width="0.080" stroke-linecap="round" opacity="0.7"/><line x1="-4.445" y1="0.000" x2="-3.945" y2="0.000" stroke="#4a5160" stroke-width="0.080" stroke-linecap="round" opacity="0.7"/><line x1="-3.945" y1="0.000" x2="-3.945" y2="-0.500" stroke="#4a5160" stroke-width="0.080" stroke-linecap="round" opacity="0.7"/><line x1="-3.945" y1="0.000" x2="-3.445" y2="0.000" stroke="#4a5160" stroke-width="0.080" stroke-linecap="round" opacity="0.7"/><line x1="-3.945" y1="0.500" x2="-3.945" y2="0.000" stroke="#4a5160" stroke-width="0.080" stroke-linecap="round" opacity="0.7"/><line x1="-3.300" y1="-2.540" x2="-2.800" y2="-2.540" stroke="#4a5160" stroke-width="0.080" stroke-linecap="round" opacity="0.7"/><line x1="-3.300" y1="2.540" x2="-2.800" y2="2.540" stroke="#4a5160" stroke-width="0.080" stroke-linecap="round" opacity="0.7"/><line x1="-2.800" y1="-2.540" x2="-2.800" y2="-3.040" stroke="#4a5160" stroke-width="0.080" stroke-linecap="round" opacity="0.7"/><line x1="-2.800" y1="-2.540" x2="-2.300" y2="-2.540" stroke="#4a5160" stroke-width="0.080" stroke-linecap="round" opacity="0.7"/><line x1="-2.800" y1="-2.040" x2="-2.800" y2="-2.540" stroke="#4a5160" stroke-width="0.080" stroke-linecap="round" opacity="0.7"/><line x1="-2.800" y1="2.540" x2="-2.800" y2="2.040" stroke="#4a5160" stroke-width="0.080" stroke-linecap="round" opacity="0.7"/><line x1="-2.800" y1="2.540" x2="-2.300" y2="2.540" stroke="#4a5160" stroke-width="0.080" stroke-linecap="round" opacity="0.7"/><line x1="-2.800" y1="3.040" x2="-2.800" y2="2.540" stroke="#4a5160" stroke-width="0.080" stroke-linecap="round" opacity="0.7"/><line x1="-2.155" y1="0.000" x2="-1.655" y2="0.000" stroke="#4a5160" stroke-width="0.080" stroke-linecap="round" opacity="0.7"/><line x1="-1.655" y1="0.000" x2="-1.655" y2="-0.500" stroke="#4a5160" stroke-width="0.080" stroke-linecap="round" opacity="0.7"/><line x1="-1.655" y1="0.000" x2="-1.155" y2="0.000" stroke="#4a5160" stroke-width="0.080" stroke-linecap="round" opacity="0.7"/><line x1="-1.655" y1="0.500" x2="-1.655" y2="0.000" stroke="#4a5160" stroke-width="0.080" stroke-linecap="round" opacity="0.7"/><line x1="-1.145" y1="0.000" x2="0.500" y2="0.000" stroke="#4a5160" stroke-width="0.080" stroke-linecap="round" opacity="0.7"/><line x1="-1.010" y1="-2.540" x2="-0.510" y2="-2.540" stroke="#4a5160" stroke-width="0.080" stroke-linecap="round" opacity="0.7"/><line x1="-1.010" y1="2.540" x2="-0.510" y2="2.540" stroke="#4a5160" stroke-width="0.080" stroke-linecap="round" opacity="0.7"/><line x1="-0.510" y1="-2.540" x2="-0.510" y2="-3.040" stroke="#4a5160" stroke-width="0.080" stroke-linecap="round" opacity="0.7"/><line x1="-0.510" y1="-2.540" x2="-0.010" y2="-2.540" stroke="#4a5160" stroke-width="0.080" stroke-linecap="round" opacity="0.7"/><line x1="-0.510" y1="-2.040" x2="-0.510" y2="-2.540" stroke="#4a5160" stroke-width="0.080" stroke-linecap="round" opacity="0.7"/><line x1="-0.510" y1="2.540" x2="-0.510" y2="2.040" stroke="#4a5160" stroke-width="0.080" stroke-linecap="round" opacity="0.7"/><line x1="-0.510" y1="2.540" x2="-0.010" y2="2.540" stroke="#4a5160" stroke-width="0.080" stroke-linecap="round" opacity="0.7"/><line x1="-0.510" y1="3.040" x2="-0.510" y2="2.540" stroke="#4a5160" stroke-width="0.080" stroke-linecap="round" opacity="0.7"/><line x1="0.000" y1="0.500" x2="0.000" y2="-0.500" stroke="#4a5160" stroke-width="0.080" stroke-linecap="round" opacity="0.7"/><line x1="0.135" y1="0.000" x2="0.635" y2="0.000" stroke="#4a5160" stroke-width="0.080" stroke-linecap="round" opacity="0.7"/><line x1="0.635" y1="0.000" x2="0.635" y2="-0.500" stroke="#4a5160" stroke-width="0.080" stroke-linecap="round" opacity="0.7"/><line x1="0.635" y1="0.000" x2="1.135" y2="0.000" stroke="#4a5160" stroke-width="0.080" stroke-linecap="round" opacity="0.7"/><line x1="0.635" y1="0.500" x2="0.635" y2="0.000" stroke="#4a5160" stroke-width="0.080" stroke-linecap="round" opacity="0.7"/><line x1="1.280" y1="-2.540" x2="1.780" y2="-2.540" stroke="#4a5160" stroke-width="0.080" stroke-linecap="round" opacity="0.7"/><line x1="1.280" y1="2.540" x2="1.780" y2="2.540" stroke="#4a5160" stroke-width="0.080" stroke-linecap="round" opacity="0.7"/><line x1="1.780" y1="-2.540" x2="1.780" y2="-3.040" stroke="#4a5160" stroke-width="0.080" stroke-linecap="round" opacity="0.7"/><line x1="1.780" y1="-2.540" x2="2.280" y2="-2.540" stroke="#4a5160" stroke-width="0.080" stroke-linecap="round" opacity="0.7"/><line x1="1.780" y1="-2.040" x2="1.780" y2="-2.540" stroke="#4a5160" stroke-width="0.080" stroke-linecap="round" opacity="0.7"/><line x1="1.780" y1="2.540" x2="1.780" y2="2.040" stroke="#4a5160" stroke-width="0.080" stroke-linecap="round" opacity="0.7"/><line x1="1.780" y1="2.540" x2="2.280" y2="2.540" stroke="#4a5160" stroke-width="0.080" stroke-linecap="round" opacity="0.7"/><line x1="1.780" y1="3.040" x2="1.780" y2="2.540" stroke="#4a5160" stroke-width="0.080" stroke-linecap="round" opacity="0.7"/><line x1="2.425" y1="0.000" x2="2.925" y2="0.000" stroke="#4a5160" stroke-width="0.080" stroke-linecap="round" opacity="0.7"/><line x1="2.925" y1="0.000" x2="2.925" y2="-0.500" stroke="#4a5160" stroke-width="0.080" stroke-linecap="round" opacity="0.7"/><line x1="2.925" y1="0.000" x2="3.425" y2="0.000" stroke="#4a5160" stroke-width="0.080" stroke-linecap="round" opacity="0.7"/><line x1="2.925" y1="0.500" x2="2.925" y2="0.000" stroke="#4a5160" stroke-width="0.080" stroke-linecap="round" opacity="0.7"/><line x1="3.570" y1="-2.540" x2="4.070" y2="-2.540" stroke="#4a5160" stroke-width="0.080" stroke-linecap="round" opacity="0.7"/><line x1="3.570" y1="2.540" x2="4.070" y2="2.540" stroke="#4a5160" stroke-width="0.080" stroke-linecap="round" opacity="0.7"/><line x1="4.070" y1="-2.540" x2="4.070" y2="-3.040" stroke="#4a5160" stroke-width="0.080" stroke-linecap="round" opacity="0.7"/><line x1="4.070" y1="-2.540" x2="4.570" y2="-2.540" stroke="#4a5160" stroke-width="0.080" stroke-linecap="round" opacity="0.7"/><line x1="4.070" y1="-2.040" x2="4.070" y2="-2.540" stroke="#4a5160" stroke-width="0.080" stroke-linecap="round" opacity="0.7"/><line x1="4.070" y1="2.540" x2="4.070" y2="2.040" stroke="#4a5160" stroke-width="0.080" stroke-linecap="round" opacity="0.7"/><line x1="4.070" y1="2.540" x2="4.570" y2="2.540" stroke="#4a5160" stroke-width="0.080" stroke-linecap="round" opacity="0.7"/><line x1="4.070" y1="3.040" x2="4.070" y2="2.540" stroke="#4a5160" stroke-width="0.080" stroke-linecap="round" opacity="0.7"/><line x1="4.715" y1="0.000" x2="5.215" y2="0.000" stroke="#4a5160" stroke-width="0.080" stroke-linecap="round" opacity="0.7"/><line x1="5.215" y1="0.000" x2="5.215" y2="-0.500" stroke="#4a5160" stroke-width="0.080" stroke-linecap="round" opacity="0.7"/><line x1="5.215" y1="0.000" x2="5.715" y2="0.000" stroke="#4a5160" stroke-width="0.080" stroke-linecap="round" opacity="0.7"/><line x1="5.215" y1="0.500" x2="5.215" y2="0.000" stroke="#4a5160" stroke-width="0.080" stroke-linecap="round" opacity="0.7"/><line x1="5.860" y1="-2.540" x2="6.360" y2="-2.540" stroke="#4a5160" stroke-width="0.080" stroke-linecap="round" opacity="0.7"/><line x1="5.860" y1="2.540" x2="6.360" y2="2.540" stroke="#4a5160" stroke-width="0.080" stroke-linecap="round" opacity="0.7"/><line x1="6.360" y1="-2.540" x2="6.360" y2="-3.040" stroke="#4a5160" stroke-width="0.080" stroke-linecap="round" opacity="0.7"/><line x1="6.360" y1="-2.540" x2="6.860" y2="-2.540" stroke="#4a5160" stroke-width="0.080" stroke-linecap="round" opacity="0.7"/><line x1="6.360" y1="-2.040" x2="6.360" y2="-2.540" stroke="#4a5160" stroke-width="0.080" stroke-linecap="round" opacity="0.7"/><line x1="6.360" y1="2.540" x2="6.360" y2="2.040" stroke="#4a5160" stroke-width="0.080" stroke-linecap="round" opacity="0.7"/><line x1="6.360" y1="2.540" x2="6.860" y2="2.540" stroke="#4a5160" stroke-width="0.080" stroke-linecap="round" opacity="0.7"/><line x1="6.360" y1="3.040" x2="6.360" y2="2.540" stroke="#4a5160" stroke-width="0.080" stroke-linecap="round" opacity="0.7"/><line x1="7.005" y1="0.000" x2="7.505" y2="0.000" stroke="#4a5160" stroke-width="0.080" stroke-linecap="round" opacity="0.7"/><line x1="7.505" y1="0.000" x2="7.505" y2="-0.500" stroke="#4a5160" stroke-width="0.080" stroke-linecap="round" opacity="0.7"/><line x1="7.505" y1="0.000" x2="8.005" y2="0.000" stroke="#4a5160" stroke-width="0.080" stroke-linecap="round" opacity="0.7"/><line x1="7.505" y1="0.500" x2="7.505" y2="0.000" stroke="#4a5160" stroke-width="0.080" stroke-linecap="round" opacity="0.7"/><line x1="8.150" y1="-2.540" x2="8.650" y2="-2.540" stroke="#4a5160" stroke-width="0.080" stroke-linecap="round" opacity="0.7"/><line x1="8.150" y1="2.540" x2="8.650" y2="2.540" stroke="#4a5160" stroke-width="0.080" stroke-linecap="round" opacity="0.7"/><line x1="8.650" y1="-2.540" x2="8.650" y2="-3.040" stroke="#4a5160" stroke-width="0.080" stroke-linecap="round" opacity="0.7"/><line x1="8.650" y1="-2.540" x2="9.150" y2="-2.540" stroke="#4a5160" stroke-width="0.080" stroke-linecap="round" opacity="0.7"/><line x1="8.650" y1="-2.040" x2="8.650" y2="-2.540" stroke="#4a5160" stroke-width="0.080" stroke-linecap="round" opacity="0.7"/><line x1="8.650" y1="2.540" x2="8.650" y2="2.040" stroke="#4a5160" stroke-width="0.080" stroke-linecap="round" opacity="0.7"/><line x1="8.650" y1="2.540" x2="9.150" y2="2.540" stroke="#4a5160" stroke-width="0.080" stroke-linecap="round" opacity="0.7"/><line x1="8.650" y1="3.040" x2="8.650" y2="2.540" stroke="#4a5160" stroke-width="0.080" stroke-linecap="round" opacity="0.7"/><line x1="9.295" y1="0.000" x2="9.795" y2="0.000" stroke="#4a5160" stroke-width="0.080" stroke-linecap="round" opacity="0.7"/><line x1="9.795" y1="0.000" x2="9.795" y2="-0.500" stroke="#4a5160" stroke-width="0.080" stroke-linecap="round" opacity="0.7"/><line x1="9.795" y1="0.000" x2="10.295" y2="0.000" stroke="#4a5160" stroke-width="0.080" stroke-linecap="round" opacity="0.7"/><line x1="9.795" y1="0.500" x2="9.795" y2="0.000" stroke="#4a5160" stroke-width="0.080" stroke-linecap="round" opacity="0.7"/><line x1="10.440" y1="-2.540" x2="10.940" y2="-2.540" stroke="#4a5160" stroke-width="0.080" stroke-linecap="round" opacity="0.7"/><line x1="10.440" y1="2.540" x2="10.940" y2="2.540" stroke="#4a5160" stroke-width="0.080" stroke-linecap="round" opacity="0.7"/><line x1="10.940" y1="-2.540" x2="10.940" y2="-3.040" stroke="#4a5160" stroke-width="0.080" stroke-linecap="round" opacity="0.7"/><line x1="10.940" y1="-2.540" x2="11.440" y2="-2.540" stroke="#4a5160" stroke-width="0.080" stroke-linecap="round" opacity="0.7"/><line x1="10.940" y1="-2.040" x2="10.940" y2="-2.540" stroke="#4a5160" stroke-width="0.080" stroke-linecap="round" opacity="0.7"/><line x1="10.940" y1="2.540" x2="10.940" y2="2.040" stroke="#4a5160" stroke-width="0.080" stroke-linecap="round" opacity="0.7"/><line x1="10.940" y1="2.540" x2="11.440" y2="2.540" stroke="#4a5160" stroke-width="0.080" stroke-linecap="round" opacity="0.7"/><line x1="10.940" y1="3.040" x2="10.940" y2="2.540" stroke="#4a5160" stroke-width="0.080" stroke-linecap="round" opacity="0.7"/><line x1="11.585" y1="0.000" x2="12.085" y2="0.000" stroke="#4a5160" stroke-width="0.080" stroke-linecap="round" opacity="0.7"/><line x1="12.085" y1="0.000" x2="12.085" y2="-0.500" stroke="#4a5160" stroke-width="0.080" stroke-linecap="round" opacity="0.7"/><line x1="12.085" y1="0.000" x2="12.585" y2="0.000" stroke="#4a5160" stroke-width="0.080" stroke-linecap="round" opacity="0.7"/><line x1="12.085" y1="0.500" x2="12.085" y2="0.000" stroke="#4a5160" stroke-width="0.080" stroke-linecap="round" opacity="0.7"/><line x1="12.730" y1="-2.540" x2="13.230" y2="-2.540" stroke="#4a5160" stroke-width="0.080" stroke-linecap="round" opacity="0.7"/><line x1="12.730" y1="2.540" x2="13.230" y2="2.540" stroke="#4a5160" stroke-width="0.080" stroke-linecap="round" opacity="0.7"/><line x1="13.230" y1="-2.540" x2="13.230" y2="-3.040" stroke="#4a5160" stroke-width="0.080" stroke-linecap="round" opacity="0.7"/><line x1="13.230" y1="-2.540" x2="13.730" y2="-2.540" stroke="#4a5160" stroke-width="0.080" stroke-linecap="round" opacity="0.7"/><line x1="13.230" y1="-2.040" x2="13.230" y2="-2.540" stroke="#4a5160" stroke-width="0.080" stroke-linecap="round" opacity="0.7"/><line x1="13.230" y1="2.540" x2="13.230" y2="2.040" stroke="#4a5160" stroke-width="0.080" stroke-linecap="round" opacity="0.7"/><line x1="13.230" y1="2.540" x2="13.730" y2="2.540" stroke="#4a5160" stroke-width="0.080" stroke-linecap="round" opacity="0.7"/><line x1="13.230" y1="3.040" x2="13.230" y2="2.540" stroke="#4a5160" stroke-width="0.080" stroke-linecap="round" opacity="0.7"/><line x1="13.875" y1="0.000" x2="14.375" y2="0.000" stroke="#4a5160" stroke-width="0.080" stroke-linecap="round" opacity="0.7"/><line x1="14.375" y1="0.000" x2="14.375" y2="-0.500" stroke="#4a5160" stroke-width="0.080" stroke-linecap="round" opacity="0.7"/><line x1="14.375" y1="0.000" x2="14.875" y2="0.000" stroke="#4a5160" stroke-width="0.080" stroke-linecap="round" opacity="0.7"/><line x1="14.375" y1="0.500" x2="14.375" y2="0.000" stroke="#4a5160" stroke-width="0.080" stroke-linecap="round" opacity="0.7"/><line x1="15.020" y1="-2.540" x2="15.520" y2="-2.540" stroke="#4a5160" stroke-width="0.080" stroke-linecap="round" opacity="0.7"/><line x1="15.020" y1="2.540" x2="15.520" y2="2.540" stroke="#4a5160" stroke-width="0.080" stroke-linecap="round" opacity="0.7"/><line x1="15.520" y1="-2.540" x2="15.520" y2="-3.040" stroke="#4a5160" stroke-width="0.080" stroke-linecap="round" opacity="0.7"/><line x1="15.520" y1="-2.540" x2="16.020" y2="-2.540" stroke="#4a5160" stroke-width="0.080" stroke-linecap="round" opacity="0.7"/><line x1="15.520" y1="-2.040" x2="15.520" y2="-2.540" stroke="#4a5160" stroke-width="0.080" stroke-linecap="round" opacity="0.7"/><line x1="15.520" y1="2.540" x2="15.520" y2="2.040" stroke="#4a5160" stroke-width="0.080" stroke-linecap="round" opacity="0.7"/><line x1="15.520" y1="2.540" x2="16.020" y2="2.540" stroke="#4a5160" stroke-width="0.080" stroke-linecap="round" opacity="0.7"/><line x1="15.520" y1="3.040" x2="15.520" y2="2.540" stroke="#4a5160" stroke-width="0.080" stroke-linecap="round" opacity="0.7"/><line x1="16.165" y1="0.000" x2="16.665" y2="0.000" stroke="#4a5160" stroke-width="0.080" stroke-linecap="round" opacity="0.7"/><line x1="16.665" y1="0.000" x2="16.665" y2="-0.500" stroke="#4a5160" stroke-width="0.080" stroke-linecap="round" opacity="0.7"/><line x1="16.665" y1="0.000" x2="17.165" y2="0.000" stroke="#4a5160" stroke-width="0.080" stroke-linecap="round" opacity="0.7"/><line x1="16.665" y1="0.500" x2="16.665" y2="0.000" stroke="#4a5160" stroke-width="0.080" stroke-linecap="round" opacity="0.7"/><line x1="23.020" y1="0.000" x2="24.020" y2="0.000" stroke="#4a5160" stroke-width="0.080" stroke-linecap="round" opacity="0.7"/><line x1="23.520" y1="0.500" x2="23.520" y2="-0.500" stroke="#4a5160" stroke-width="0.080" stroke-linecap="round" opacity="0.7"/><line x1="-26.860" y1="-11.480" x2="26.800" y2="-11.480" stroke="#6b7280" stroke-width="0.100" stroke-linecap="round" opacity="0.8"/><line x1="-26.860" y1="-11.080" x2="-26.860" y2="-11.480" stroke="#6b7280" stroke-width="0.100" stroke-linecap="round" opacity="0.8"/><line x1="-26.860" y1="-11.080" x2="26.800" y2="-11.080" stroke="#6b7280" stroke-width="0.100" stroke-linecap="round" opacity="0.8"/><line x1="-26.500" y1="-8.580" x2="26.500" y2="-8.580" stroke="#6b7280" stroke-width="0.100" stroke-linecap="round" opacity="0.8"/><line x1="-26.500" y1="-7.580" x2="-19.500" y2="-7.580" stroke="#6b7280" stroke-width="0.100" stroke-linecap="round" opacity="0.8"/><line x1="-26.500" y1="4.520" x2="-26.500" y2="-11.080" stroke="#6b7280" stroke-width="0.100" stroke-linecap="round" opacity="0.8"/><line x1="-26.500" y1="4.520" x2="26.500" y2="4.520" stroke="#6b7280" stroke-width="0.100" stroke-linecap="round" opacity="0.8"/><line x1="-26.400" y1="-5.350" x2="-26.400" y2="-7.580" stroke="#6b7280" stroke-width="0.100" stroke-linecap="round" opacity="0.8"/><line x1="-25.600" y1="-4.550" x2="-25.350" y2="-4.550" stroke="#6b7280" stroke-width="0.100" stroke-linecap="round" opacity="0.8"/><line x1="-25.480" y1="-11.980" x2="-21.640" y2="-11.980" stroke="#6b7280" stroke-width="0.100" stroke-linecap="round" opacity="0.8"/><line x1="-25.480" y1="-11.480" x2="-25.480" y2="-11.980" stroke="#6b7280" stroke-width="0.100" stroke-linecap="round" opacity="0.8"/><line x1="-25.350" y1="0.250" x2="-25.350" y2="-4.550" stroke="#6b7280" stroke-width="0.100" stroke-linecap="round" opacity="0.8"/><line x1="-25.350" y1="0.250" x2="-24.225" y2="0.250" stroke="#6b7280" stroke-width="0.100" stroke-linecap="round" opacity="0.8"/><line x1="-24.500" y1="-8.580" x2="-24.500" y2="-11.080" stroke="#6b7280" stroke-width="0.100" stroke-linecap="round" opacity="0.8"/><line x1="-24.225" y1="0.250" x2="-24.225" y2="-4.250" stroke="#6b7280" stroke-width="0.100" stroke-linecap="round" opacity="0.8"/><line x1="-22.925" y1="0.250" x2="-22.925" y2="-4.250" stroke="#6b7280" stroke-width="0.100" stroke-linecap="round" opacity="0.8"/><line x1="-22.925" y1="0.250" x2="-21.800" y2="0.250" stroke="#6b7280" stroke-width="0.100" stroke-linecap="round" opacity="0.8"/><line x1="-21.800" y1="-4.550" x2="-21.550" y2="-4.550" stroke="#6b7280" stroke-width="0.100" stroke-linecap="round" opacity="0.8"/><line x1="-21.800" y1="0.250" x2="-21.800" y2="-4.550" stroke="#6b7280" stroke-width="0.100" stroke-linecap="round" opacity="0.8"/><line x1="-21.640" y1="-11.480" x2="-21.640" y2="-11.980" stroke="#6b7280" stroke-width="0.100" stroke-linecap="round" opacity="0.8"/><line x1="-20.750" y1="-5.350" x2="-20.750" y2="-7.604" stroke="#6b7280" stroke-width="0.100" stroke-linecap="round" opacity="0.8"/><line x1="-20.500" y1="4.520" x2="-20.500" y2="-7.580" stroke="#6b7280" stroke-width="0.100" stroke-linecap="round" opacity="0.8"/><line x1="-20.310" y1="-16.281" x2="20.250" y2="-16.281" stroke="#6b7280" stroke-width="0.100" stroke-linecap="round" opacity="0.8"/><line x1="-20.310" y1="-11.980" x2="-20.310" y2="-16.280" stroke="#6b7280" stroke-width="0.100" stroke-linecap="round" opacity="0.8"/><line x1="-20.310" y1="-11.980" x2="20.250" y2="-11.980" stroke="#6b7280" stroke-width="0.100" stroke-linecap="round" opacity="0.8"/><line x1="-19.500" y1="1.500" x2="-19.500" y2="-7.580" stroke="#6b7280" stroke-width="0.100" stroke-linecap="round" opacity="0.8"/><line x1="-19.500" y1="4.520" x2="-19.500" y2="3.700" stroke="#6b7280" stroke-width="0.100" stroke-linecap="round" opacity="0.8"/><line x1="-19.375" y1="-17.180" x2="19.315" y2="-17.180" stroke="#6b7280" stroke-width="0.100" stroke-linecap="round" opacity="0.8"/><line x1="-17.480" y1="-11.480" x2="-17.480" y2="-17.180" stroke="#6b7280" stroke-width="0.100" stroke-linecap="round" opacity="0.8"/><line x1="17.420" y1="-11.480" x2="17.468" y2="-17.180" stroke="#6b7280" stroke-width="0.100" stroke-linecap="round" opacity="0.8"/><line x1="19.500" y1="-7.580" x2="26.500" y2="-7.580" stroke="#6b7280" stroke-width="0.100" stroke-linecap="round" opacity="0.8"/><line x1="19.500" y1="4.520" x2="19.500" y2="-7.580" stroke="#6b7280" stroke-width="0.100" stroke-linecap="round" opacity="0.8"/><line x1="20.250" y1="-11.980" x2="20.250" y2="-16.280" stroke="#6b7280" stroke-width="0.100" stroke-linecap="round" opacity="0.8"/><line x1="20.500" y1="4.520" x2="20.500" y2="-7.580" stroke="#6b7280" stroke-width="0.100" stroke-linecap="round" opacity="0.8"/><line x1="20.750" y1="-5.350" x2="20.750" y2="-7.604" stroke="#6b7280" stroke-width="0.100" stroke-linecap="round" opacity="0.8"/><line x1="21.550" y1="-4.550" x2="21.800" y2="-4.550" stroke="#6b7280" stroke-width="0.100" stroke-linecap="round" opacity="0.8"/><line x1="21.640" y1="-11.980" x2="25.480" y2="-11.980" stroke="#6b7280" stroke-width="0.100" stroke-linecap="round" opacity="0.8"/><line x1="21.640" y1="-11.480" x2="21.640" y2="-11.980" stroke="#6b7280" stroke-width="0.100" stroke-linecap="round" opacity="0.8"/><line x1="21.800" y1="0.250" x2="21.800" y2="-4.550" stroke="#6b7280" stroke-width="0.100" stroke-linecap="round" opacity="0.8"/><line x1="21.800" y1="0.250" x2="22.925" y2="0.250" stroke="#6b7280" stroke-width="0.100" stroke-linecap="round" opacity="0.8"/><line x1="22.925" y1="0.250" x2="22.925" y2="-4.250" stroke="#6b7280" stroke-width="0.100" stroke-linecap="round" opacity="0.8"/><line x1="24.225" y1="0.250" x2="24.225" y2="-4.250" stroke="#6b7280" stroke-width="0.100" stroke-linecap="round" opacity="0.8"/><line x1="24.225" y1="0.250" x2="25.350" y2="0.250" stroke="#6b7280" stroke-width="0.100" stroke-linecap="round" opacity="0.8"/><line x1="24.500" y1="-8.580" x2="24.500" y2="-11.080" stroke="#6b7280" stroke-width="0.100" stroke-linecap="round" opacity="0.8"/><line x1="25.350" y1="-4.550" x2="25.600" y2="-4.550" stroke="#6b7280" stroke-width="0.100" stroke-linecap="round" opacity="0.8"/><line x1="25.350" y1="0.250" x2="25.350" y2="-4.550" stroke="#6b7280" stroke-width="0.100" stroke-linecap="round" opacity="0.8"/><line x1="25.480" y1="-11.480" x2="25.480" y2="-11.980" stroke="#6b7280" stroke-width="0.100" stroke-linecap="round" opacity="0.8"/><line x1="26.400" y1="-5.350" x2="26.400" y2="-7.580" stroke="#6b7280" stroke-width="0.100" stroke-linecap="round" opacity="0.8"/><line x1="26.500" y1="4.520" x2="26.500" y2="-11.080" stroke="#6b7280" stroke-width="0.100" stroke-linecap="round" opacity="0.8"/><line x1="26.800" y1="-11.080" x2="26.800" y2="-11.480" stroke="#6b7280" stroke-width="0.100" stroke-linecap="round" opacity="0.8"/><line x1="-27.110" y1="-17.430" x2="27.050" y2="-17.430" stroke="#d24d4d" stroke-width="0.080" stroke-linecap="round" opacity="0.7"/><line x1="27.050" y1="-17.430" x2="27.050" y2="4.770" stroke="#d24d4d" stroke-width="0.080" stroke-linecap="round" opacity="0.7"/><line x1="27.050" y1="4.770" x2="-27.110" y2="4.770" stroke="#d24d4d" stroke-width="0.080" stroke-linecap="round" opacity="0.7"/><line x1="-27.110" y1="4.770" x2="-27.110" y2="-17.430" stroke="#d24d4d" stroke-width="0.080" stroke-linecap="round" opacity="0.7"/><path d="M -25.600 -4.550 A 0.800 0.800 0 0 1 -26.400 -5.350" fill="none" stroke="#e6e9ef" stroke-width="0.12" opacity="1"/><path d="M -24.225 -4.250 A 0.650 0.650 0 0 1 -22.925 -4.250" fill="none" stroke="#e6e9ef" stroke-width="0.12" opacity="1"/><path d="M -20.750 -5.350 A 0.800 0.800 0 0 1 -21.550 -4.550" fill="none" stroke="#e6e9ef" stroke-width="0.12" opacity="1"/><path d="M -20.310 -16.280 A 0.904 0.904 0 0 1 -19.375 -17.180" fill="none" stroke="#e6e9ef" stroke-width="0.12" opacity="1"/><path d="M -20.310 -11.980 A 0.510 0.510 0 0 1 -20.749 -11.480" fill="none" stroke="#e6e9ef" stroke-width="0.12" opacity="1"/><path d="M 19.315 -17.180 A 0.900 0.900 0 0 1 20.250 -16.280" fill="none" stroke="#e6e9ef" stroke-width="0.12" opacity="1"/><path d="M 20.689 -11.480 A 0.507 0.507 0 0 1 20.250 -11.980" fill="none" stroke="#e6e9ef" stroke-width="0.12" opacity="1"/><path d="M 21.550 -4.550 A 0.800 0.800 0 0 1 20.750 -5.350" fill="none" stroke="#e6e9ef" stroke-width="0.12" opacity="1"/><path d="M 22.925 -4.250 A 0.650 0.650 0 0 1 24.225 -4.250" fill="none" stroke="#e6e9ef" stroke-width="0.12" opacity="1"/><path d="M 26.400 -5.350 A 0.800 0.800 0 0 1 25.600 -4.550" fill="none" stroke="#e6e9ef" stroke-width="0.12" opacity="1"/><path d="M -25.600 -4.550 A 0.800 0.800 0 0 1 -26.400 -5.350" fill="none" stroke="#6b7280" stroke-width="0.12" opacity="0.8"/><path d="M -24.225 -4.250 A 0.650 0.650 0 0 1 -22.925 -4.250" fill="none" stroke="#6b7280" stroke-width="0.12" opacity="0.8"/><path d="M -22.248 0.250 A 1.850 1.850 0 0 1 -25.012 0.250" fill="none" stroke="#6b7280" stroke-width="0.12" opacity="0.8"/><path d="M -20.750 -5.350 A 0.800 0.800 0 0 1 -21.550 -4.550" fill="none" stroke="#6b7280" stroke-width="0.12" opacity="0.8"/><path d="M -20.310 -16.280 A 0.904 0.904 0 0 1 -19.375 -17.180" fill="none" stroke="#6b7280" stroke-width="0.12" opacity="0.8"/><path d="M -20.310 -11.980 A 0.510 0.510 0 0 1 -20.749 -11.480" fill="none" stroke="#6b7280" stroke-width="0.12" opacity="0.8"/><path d="M 19.315 -17.180 A 0.900 0.900 0 0 1 20.250 -16.280" fill="none" stroke="#6b7280" stroke-width="0.12" opacity="0.8"/><path d="M 20.689 -11.480 A 0.507 0.507 0 0 1 20.250 -11.980" fill="none" stroke="#6b7280" stroke-width="0.12" opacity="0.8"/><path d="M 21.550 -4.550 A 0.800 0.800 0 0 1 20.750 -5.350" fill="none" stroke="#6b7280" stroke-width="0.12" opacity="0.8"/><path d="M 22.925 -4.250 A 0.650 0.650 0 0 1 24.225 -4.250" fill="none" stroke="#6b7280" stroke-width="0.12" opacity="0.8"/><path d="M 25.012 0.250 A 1.850 1.850 0 0 1 22.248 0.250" fill="none" stroke="#6b7280" stroke-width="0.12" opacity="0.8"/><path d="M 26.400 -5.350 A 0.800 0.800 0 0 1 25.600 -4.550" fill="none" stroke="#6b7280" stroke-width="0.12" opacity="0.8"/><circle cx="15.578" cy="5.275" r="0.150" fill="#e6e9ef" opacity="1"/><circle cx="15.578" cy="5.275" r="0.150" fill="#6b7280" opacity="0.8"/><rect x="14.570" y="1.590" width="1.900" height="1.900" rx="0.950" fill="#c79b5c"/><circle cx="15.520" cy="2.540" r="0.600" fill="#12151c"/><rect x="12.280" y="1.590" width="1.900" height="1.900" rx="0.950" fill="#c79b5c"/><circle cx="13.230" cy="2.540" r="0.600" fill="#12151c"/><rect x="9.990" y="1.590" width="1.900" height="1.900" rx="0.950" fill="#c79b5c"/><circle cx="10.940" cy="2.540" r="0.600" fill="#12151c"/><rect x="7.700" y="1.590" width="1.900" height="1.900" rx="0.950" fill="#c79b5c"/><circle cx="8.650" cy="2.540" r="0.600" fill="#12151c"/><rect x="5.410" y="1.590" width="1.900" height="1.900" rx="0.950" fill="#c79b5c"/><circle cx="6.360" cy="2.540" r="0.600" fill="#12151c"/><rect x="3.120" y="1.590" width="1.900" height="1.900" rx="0.950" fill="#c79b5c"/><circle cx="4.070" cy="2.540" r="0.600" fill="#12151c"/><rect x="0.830" y="1.590" width="1.900" height="1.900" rx="0.950" fill="#c79b5c"/><circle cx="1.780" cy="2.540" r="0.600" fill="#12151c"/><rect x="-1.460" y="1.590" width="1.900" height="1.900" rx="0.950" fill="#c79b5c"/><circle cx="-0.510" cy="2.540" r="0.600" fill="#12151c"/><rect x="-3.750" y="1.590" width="1.900" height="1.900" rx="0.950" fill="#c79b5c"/><circle cx="-2.800" cy="2.540" r="0.600" fill="#12151c"/><rect x="-6.040" y="1.590" width="1.900" height="1.900" rx="0.950" fill="#c79b5c"/><circle cx="-5.090" cy="2.540" r="0.600" fill="#12151c"/><rect x="-8.330" y="1.590" width="1.900" height="1.900" rx="0.950" fill="#c79b5c"/><circle cx="-7.380" cy="2.540" r="0.600" fill="#12151c"/><rect x="-10.620" y="1.590" width="1.900" height="1.900" rx="0.950" fill="#c79b5c"/><circle cx="-9.670" cy="2.540" r="0.600" fill="#12151c"/><rect x="-12.910" y="1.590" width="1.900" height="1.900" rx="0.950" fill="#c79b5c"/><circle cx="-11.960" cy="2.540" r="0.600" fill="#12151c"/><rect x="-15.200" y="1.590" width="1.900" height="1.900" rx="0.950" fill="#c79b5c"/><circle cx="-14.250" cy="2.540" r="0.600" fill="#12151c"/><rect x="-17.490" y="1.590" width="1.900" height="1.900" rx="0.950" fill="#c79b5c"/><circle cx="-16.540" cy="2.540" r="0.600" fill="#12151c"/><rect x="15.732" y="-0.950" width="1.900" height="1.900" rx="0.950" fill="#c79b5c"/><circle cx="16.682" cy="0.000" r="0.600" fill="#12151c"/><rect x="13.442" y="-0.950" width="1.900" height="1.900" rx="0.950" fill="#c79b5c"/><circle cx="14.392" cy="0.000" r="0.600" fill="#12151c"/><rect x="11.152" y="-0.950" width="1.900" height="1.900" rx="0.950" fill="#c79b5c"/><circle cx="12.102" cy="0.000" r="0.600" fill="#12151c"/><rect x="8.862" y="-0.950" width="1.900" height="1.900" rx="0.950" fill="#c79b5c"/><circle cx="9.812" cy="0.000" r="0.600" fill="#12151c"/><rect x="6.572" y="-0.950" width="1.900" height="1.900" rx="0.950" fill="#c79b5c"/><circle cx="7.522" cy="0.000" r="0.600" fill="#12151c"/><rect x="4.282" y="-0.950" width="1.900" height="1.900" rx="0.950" fill="#c79b5c"/><circle cx="5.232" cy="0.000" r="0.600" fill="#12151c"/><rect x="1.992" y="-0.950" width="1.900" height="1.900" rx="0.950" fill="#c79b5c"/><circle cx="2.942" cy="0.000" r="0.600" fill="#12151c"/><rect x="-0.298" y="-0.950" width="1.900" height="1.900" rx="0.950" fill="#c79b5c"/><circle cx="0.652" cy="0.000" r="0.600" fill="#12151c"/><rect x="-2.588" y="-0.950" width="1.900" height="1.900" rx="0.950" fill="#c79b5c"/><circle cx="-1.638" cy="0.000" r="0.600" fill="#12151c"/><rect x="-4.878" y="-0.950" width="1.900" height="1.900" rx="0.950" fill="#c79b5c"/><circle cx="-3.928" cy="0.000" r="0.600" fill="#12151c"/><rect x="-7.168" y="-0.950" width="1.900" height="1.900" rx="0.950" fill="#c79b5c"/><circle cx="-6.218" cy="0.000" r="0.600" fill="#12151c"/><rect x="-9.458" y="-0.950" width="1.900" height="1.900" rx="0.950" fill="#c79b5c"/><circle cx="-8.508" cy="0.000" r="0.600" fill="#12151c"/><rect x="-11.748" y="-0.950" width="1.900" height="1.900" rx="0.950" fill="#c79b5c"/><circle cx="-10.798" cy="0.000" r="0.600" fill="#12151c"/><rect x="-14.038" y="-0.950" width="1.900" height="1.900" rx="0.950" fill="#c79b5c"/><circle cx="-13.088" cy="0.000" r="0.600" fill="#12151c"/><rect x="-16.328" y="-0.950" width="1.900" height="1.900" rx="0.950" fill="#c79b5c"/><circle cx="-15.378" cy="0.000" r="0.600" fill="#12151c"/><rect x="14.570" y="-3.490" width="1.900" height="1.900" rx="0.950" fill="#c79b5c"/><circle cx="15.520" cy="-2.540" r="0.600" fill="#12151c"/><rect x="12.280" y="-3.490" width="1.900" height="1.900" rx="0.950" fill="#c79b5c"/><circle cx="13.230" cy="-2.540" r="0.600" fill="#12151c"/><rect x="9.990" y="-3.490" width="1.900" height="1.900" rx="0.950" fill="#c79b5c"/><circle cx="10.940" cy="-2.540" r="0.600" fill="#12151c"/><rect x="7.700" y="-3.490" width="1.900" height="1.900" rx="0.950" fill="#c79b5c"/><circle cx="8.650" cy="-2.540" r="0.600" fill="#12151c"/><rect x="5.410" y="-3.490" width="1.900" height="1.900" rx="0.950" fill="#c79b5c"/><circle cx="6.360" cy="-2.540" r="0.600" fill="#12151c"/><rect x="3.120" y="-3.490" width="1.900" height="1.900" rx="0.950" fill="#c79b5c"/><circle cx="4.070" cy="-2.540" r="0.600" fill="#12151c"/><rect x="0.830" y="-3.490" width="1.900" height="1.900" rx="0.950" fill="#c79b5c"/><circle cx="1.780" cy="-2.540" r="0.600" fill="#12151c"/><rect x="-1.460" y="-3.490" width="1.900" height="1.900" rx="0.950" fill="#c79b5c"/><circle cx="-0.510" cy="-2.540" r="0.600" fill="#12151c"/><rect x="-3.750" y="-3.490" width="1.900" height="1.900" rx="0.950" fill="#c79b5c"/><circle cx="-2.800" cy="-2.540" r="0.600" fill="#12151c"/><rect x="-6.040" y="-3.490" width="1.900" height="1.900" rx="0.950" fill="#c79b5c"/><circle cx="-5.090" cy="-2.540" r="0.600" fill="#12151c"/><rect x="-8.330" y="-3.490" width="1.900" height="1.900" rx="0.950" fill="#c79b5c"/><circle cx="-7.380" cy="-2.540" r="0.600" fill="#12151c"/><rect x="-10.620" y="-3.490" width="1.900" height="1.900" rx="0.950" fill="#c79b5c"/><circle cx="-9.670" cy="-2.540" r="0.600" fill="#12151c"/><rect x="-12.910" y="-3.490" width="1.900" height="1.900" rx="0.950" fill="#c79b5c"/><circle cx="-11.960" cy="-2.540" r="0.600" fill="#12151c"/><rect x="-15.200" y="-3.490" width="1.900" height="1.900" rx="0.950" fill="#c79b5c"/><circle cx="-14.250" cy="-2.540" r="0.600" fill="#12151c"/><rect x="-26.263" y="-2.750" width="5.500" height="5.500" rx="2.750" fill="#c79b5c"/><circle cx="-23.513" cy="0.000" r="1.550" fill="#12151c"/><rect x="20.777" y="-2.750" width="5.500" height="5.500" rx="2.750" fill="#c79b5c"/><circle cx="23.527" cy="0.000" r="1.550" fill="#12151c"/></svg>