<svg xmlns="http://www.w3.org/2000/svg" viewBox="-9.72 -8.38 18.10 16.75" preserveAspectRatio="xMidYMid meet" style="width:100%;height:100%"><rect x="-9.72" y="-8.38" width="18.10" height="16.75" fill="#12151c"/><circle cx="-8.600" cy="-7.200" r="0.125" fill="none" stroke="#e6e9ef" stroke-width="0.12" opacity="1"/><rect x="-7.375" y="-7.375" width="0.350" height="0.350" rx="0.175" fill="#c79b5c"/><rect x="-6.575" y="-7.375" width="0.350" height="0.350" rx="0.175" fill="#c79b5c"/><rect x="-5.775" y="-7.375" width="0.350" height="0.350" rx="0.175" fill="#c79b5c"/><rect x="-4.975" y="-7.375" width="0.350" height="0.350" rx="0.175" fill="#c79b5c"/><rect x="-4.175" y="-7.375" width="0.350" height="0.350" rx="0.175" fill="#c79b5c"/><rect x="-3.375" y="-7.375" width="0.350" height="0.350" rx="0.175" fill="#c79b5c"/><rect x="-2.575" y="-7.375" width="0.350" height="0.350" rx="0.175" fill="#c79b5c"/><rect x="-1.775" y="-7.375" width="0.350" height="0.350" rx="0.175" fill="#c79b5c"/><rect x="-0.975" y="-7.375" width="0.350" height="0.350" rx="0.175" fill="#c79b5c"/><rect x="-0.175" y="-7.375" width="0.350" height="0.350" rx="0.175" fill="#c79b5c"/><rect x="0.625" y="-7.375" width="0.350" height="0.350" rx="0.175" fill="#c79b5c"/><rect x="1.425" y="-7.375" width="0.350" height="0.350" rx="0.175" fill="#c79b5c"/><rect x="2.225" y="-7.375" width="0.350" height="0.350" rx="0.175" fill="#c79b5c"/><rect x="3.025" y="-7.375" width="0.350" height="0.350" rx="0.175" fill="#c79b5c"/><rect x="3.825" y="-7.375" width="0.350" height="0.350" rx="0.175" fill="#c79b5c"/><rect x="4.625" y="-7.375" width="0.350" height="0.350" rx="0.175" fill="#c79b5c"/><rect x="5.425" y="-7.375" width="0.350" height="0.350" rx="0.175" fill="#c79b5c"/><rect x="6.225" y="-7.375" width="0.350" height="0.350" rx="0.175" fill="#c79b5c"/><rect x="7.025" y="-7.375" width="0.350" height="0.350" rx="0.175" fill="#c79b5c"/><rect x="-7.375" y="-6.575" width="0.350" height="0.350" rx="0.175" fill="#c79b5c"/><rect x="-6.575" y="-6.575" width="0.350" height="0.350" rx="0.175" fill="#c79b5c"/><rect x="-5.775" y="-6.575" width="0.350" height="0.350" rx="0.175" fill="#c79b5c"/><rect x="-4.975" y="-6.575" width="0.350" height="0.350" rx="0.175" fill="#c79b5c"/><rect x="-4.175" y="-6.575" width="0.350" height="0.350" rx="0.175" fill="#c79b5c"/><rect x="-3.375" y="-6.575" width="0.350" height="0.350" rx="0.175" fill="#c79b5c"/><rect x="-2.575" y="-6.575" width="0.350" height="0.350" rx="0.175" fill="#c79b5c"/><rect x="-1.775" y="-6.575" width="0.350" height="0.350" rx="0.175" fill="#c79b5c"/><rect x="-0.975" y="-6.575" width="0.350" height="0.350" rx="0.175" fill="#c79b5c"/><rect x="-0.175" y="-6.575" width="0.350" height="0.350" rx="0.175" fill="#c79b5c"/><rect x="0.625" y="-6.575" width="0.350" height="0.350" rx="0.175" fill="#c79b5c"/><rect x="1.425" y="-6.575" width="0.350" height="0.350" rx="0.175" fill="#c79b5c"/><rect x="2.225" y="-6.575" width="0.350" height="0.350" rx="0.175" fill="#c79b5c"/><rect x="3.025" y="-6.575" width="0.350" height="0.350" rx="0.175" fill="#c79b5c"/><rect x="3.825" y="-6.575" width="0.350" height="0.350" rx="0.175" fill="#c79b5c"/><rect x="4.625" y="-6.575" width="0.350" height="0.350" rx="0.175" fill="#c79b5c"/><rect x="5.425" y="-6.575" width="0.350" height="0.350" rx="0.175" fill="#c79b5c"/><rect x="6.225" y="-6.575" width="0.350" height="0.350" rx="0.175" fill="#c79b5c"/><rect x="7.025" y="-6.575" width="0.350" height="0.350" rx="0.175" fill="#c79b5c"/><rect x="-7.375" y="-5.775" width="0.350" height="0.350" rx="0.175" fill="#c79b5c"/><rect x="-6.575" y="-5.775" width="0.350" height="0.350" rx="0.175" fill="#c79b5c"/><rect x="-5.775" y="-5.775" width="0.350" height="0.350" rx="0.175" fill="#c79b5c"/><rect x="-4.975" y="-5.775" width="0.350" height="0.350" rx="0.175" fill="#c79b5c"/><rect x="-4.175" y="-5.775" width="0.350" height="0.350" rx="0.175" fill="#c79b5c"/><rect x="-3.375" y="-5.775" width="0.350" height="0.350" rx="0.175" fill="#c79b5c"/><rect x="-2.575" y="-5.775" width="0.350" height="0.350" rx="0.175" fill="#c79b5c"/><rect x="-1.775" y="-5.775" width="0.350" height="0.350" rx="0.175" fill="#c79b5c"/><rect x="-0.975" y="-5.775" width="0.350" height="0.350" rx="0.175" fill="#c79b5c"/><rect x="-0.175" y="-5.775" width="0.350" height="0.350" rx="0.175" fill="#c79b5c"/><rect x="0.625" y="-5.775" width="0.350" height="0.350" rx="0.175" fill="#c79b5c"/><rect x="1.425" y="-5.775" width="0.350" height="0.350" rx="0.175" fill="#c79b5c"/><rect x="2.225" y="-5.775" width="0.350" height="0.350" rx="0.175" fill="#c79b5c"/><rect x="3.025" y="-5.775" width="0.350" height="0.350" rx="0.175" fill="#c79b5c"/><rect x="3.825" y="-5.775" width="0.350" height="0.350" rx="0.175" fill="#c79b5c"/><rect x="4.625" y="-5.775" width="0.350" height="0.350" rx="0.175" fill="#c79b5c"/><rect x="5.425" y="-5.775" width="0.350" height="0.350" rx="0.175" fill="#c79b5c"/><rect x="6.225" y="-5.775" width="0.350" height="0.350" rx="0.175" fill="#c79b5c"/><rect x="7.025" y="-5.775" width="0.350" height="0.350" rx="0.175" fill="#c79b5c"/><rect x="-7.375" y="-4.975" width="0.350" height="0.350" rx="0.175" fill="#c79b5c"/><rect x="-6.575" y="-4.975" width="0.350" height="0.350" rx="0.175" fill="#c79b5c"/><rect x="-5.775" y="-4.975" width="0.350" height="0.350" rx="0.175" fill="#c79b5c"/><rect x="-4.975" y="-4.975" width="0.350" height="0.350" rx="0.175" fill="#c79b5c"/><rect x="-4.175" y="-4.975" width="0.350" height="0.350" rx="0.175" fill="#c79b5c"/><rect x="-3.375" y="-4.975" width="0.350" height="0.350" rx="0.175" fill="#c79b5c"/><rect x="-2.575" y="-4.975" width="0.350" height="0.350" rx="0.175" fill="#c79b5c"/><rect x="-1.775" y="-4.975" width="0.350" height="0.350" rx="0.175" fill="#c79b5c"/><rect x="-0.975" y="-4.975" width="0.350" height="0.350" rx="0.175" fill="#c79b5c"/><rect x="-0.175" y="-4.975" width="0.350" height="0.350" rx="0.175" fill="#c79b5c"/><rect x="0.625" y="-4.975" width="0.350" height="0.350" rx="0.175" fill="#c79b5c"/><rect x="1.425" y="-4.975" width="0.350" height="0.350" rx="0.175" fill="#c79b5c"/><rect x="2.225" y="-4.975" width="0.350" height="0.350" rx="0.175" fill="#c79b5c"/><rect x="3.025" y="-4.975" width="0.350" height="0.350" rx="0.175" fill="#c79b5c"/><rect x="3.825" y="-4.975" width="0.350" height="0.350" rx="0.175" fill="#c79b5c"/><rect x="4.625" y="-4.975" width="0.350" height="0.350" rx="0.175" fill="#c79b5c"/><rect x="5.425" y="-4.975" width="0.350" height="0.350" rx="0.175" fill="#c79b5c"/><rect x="6.225" y="-4.975" width="0.350" height="0.350" rx="0.175" fill="#c79b5c"/><rect x="7.025" y="-4.975" width="0.350" height="0.350" rx="0.175" fill="#c79b5c"/><rect x="-7.375" y="-4.175" width="0.350" height="0.350" rx="0.175" fill="#c79b5c"/><rect x="-6.575" y="-4.175" width="0.350" height="0.350" rx="0.175" fill="#c79b5c"/><rect x="-5.775" y="-4.175" width="0.350" height="0.350" rx="0.175" fill="#c79b5c"/><rect x="-4.975" y="-4.175" width="0.350" height="0.350" rx="0.175" fill="#c79b5c"/><rect x="-4.175" y="-4.175" width="0.350" height="0.350" rx="0.175" fill="#c79b5c"/><rect x="-3.375" y="-4.175" width="0.350" height="0.350" rx="0.175" fill="#c79b5c"/><rect x="-2.575" y="-4.175" width="0.350" height="0.350" rx="0.175" fill="#c79b5c"/><rect x="-1.775" y="-4.175" width="0.350" height="0.350" rx="0.175" fill="#c79b5c"/><rect x="-0.975" y="-4.175" width="0.350" height="0.350" rx="0.175" fill="#c79b5c"/><rect x="-0.175" y="-4.175" width="0.350" height="0.350" rx="0.175" fill="#c79b5c"/><rect x="0.625" y="-4.175" width="0.350" height="0.350" rx="0.175" fill="#c79b5c"/><rect x="1.425" y="-4.175" width="0.350" height="0.350" rx="0.175" fill="#c79b5c"/><rect x="2.225" y="-4.175" width="0.350" height="0.350" rx="0.175" fill="#c79b5c"/><rect x="3.025" y="-4.175" width="0.350" height="0.350" rx="0.175" fill="#c79b5c"/><rect x="3.825" y="-4.175" width="0.350" height="0.350" rx="0.175" fill="#c79b5c"/><rect x="4.625" y="-4.175" width="0.350" height="0.350" rx="0.175" fill="#c79b5c"/><rect x="5.425" y="-4.175" width="0.350" height="0.350" rx="0.175" fill="#c79b5c"/><rect x="6.225" y="-4.175" width="0.350" height="0.350" rx="0.175" fill="#c79b5c"/><rect x="7.025" y="-4.175" width="0.350" height="0.350" rx="0.175" fill="#c79b5c"/><rect x="-7.375" y="-3.375" width="0.350" height="0.350" rx="0.175" fill="#c79b5c"/><rect x="-6.575" y="-3.375" width="0.350" height="0.350" rx="0.175" fill="#c79b5c"/><rect x="-5.775" y="-3.375" width="0.350" height="0.350" rx="0.175" fill="#c79b5c"/><rect x="-4.975" y="-3.375" width="0.350" height="0.350" rx="0.175" fill="#c79b5c"/><rect x="-4.175" y="-3.375" width="0.350" height="0.350" rx="0.175" fill="#c79b5c"/><rect x="-3.375" y="-3.375" width="0.350" height="0.350" rx="0.175" fill="#c79b5c"/><rect x="-2.575" y="-3.375" width="0.350" height="0.350" rx="0.175" fill="#c79b5c"/><rect x="-1.775" y="-3.375" width="0.350" height="0.350" rx="0.175" fill="#c79b5c"/><rect x="-0.975" y="-3.375" width="0.350" height="0.350" rx="0.175" fill="#c79b5c"/><rect x="-0.175" y="-3.375" width="0.350" height="0.350" rx="0.175" fill="#c79b5c"/><rect x="0.625" y="-3.375" width="0.350" height="0.350" rx="0.175" fill="#c79b5c"/><rect x="1.425" y="-3.375" width="0.350" height="0.350" rx="0.175" fill="#c79b5c"/><rect x="2.225" y="-3.375" width="0.350" height="0.350" rx="0.175" fill="#c79b5c"/><rect x="3.025" y="-3.375" width="0.350" height="0.350" rx="0.175" fill="#c79b5c"/><rect x="3.825" y="-3.375" width="0.350" height="0.350" rx="0.175" fill="#c79b5c"/><rect x="4.625" y="-3.375" width="0.350" height="0.350" rx="0.175" fill="#c79b5c"/><rect x="5.425" y="-3.375" width="0.350" height="0.350" rx="0.175" fill="#c79b5c"/><rect x="6.225" y="-3.375" width="0.350" height="0.350" rx="0.175" fill="#c79b5c"/><rect x="7.025" y="-3.375" width="0.350" height="0.350" rx="0.175" fill="#c79b5c"/><rect x="-7.375" y="-2.575" width="0.350" height="0.350" rx="0.175" fill="#c79b5c"/><rect x="-6.575" y="-2.575" width="0.350" height="0.350" rx="0.175" fill="#c79b5c"/><rect x="-5.775" y="-2.575" width="0.350" height="0.350" rx="0.175" fill="#c79b5c"/><rect x="-4.975" y="-2.575" width="0.350" height="0.350" rx="0.175" fill="#c79b5c"/><rect x="-4.175" y="-2.575" width="0.350" height="0.350" rx="0.175" fill="#c79b5c"/><rect x="-3.375" y="-2.575" width="0.350" height="0.350" rx="0.175" fill="#c79b5c"/><rect x="3.025" y="-2.575" width="0.350" height="0.350" rx="0.175" fill="#c79b5c"/><rect x="3.825" y="-2.575" width="0.350" height="0.350" rx="0.175" fill="#c79b5c"/><rect x="4.625" y="-2.575" width="0.350" height="0.350" rx="0.175" fill="#c79b5c"/><rect x="5.425" y="-2.575" width="0.350" height="0.350" rx="0.175" fill="#c79b5c"/><rect x="6.225" y="-2.575" width="0.350" height="0.350" rx="0.175" fill="#c79b5c"/><rect x="7.025" y="-2.575" width="0.350" height="0.350" rx="0.175" fill="#c79b5c"/><rect x="-7.375" y="-1.775" width="0.350" height="0.350" rx="0.175" fill="#c79b5c"/><rect x="-6.575" y="-1.775" width="0.350" height="0.350" rx="0.175" fill="#c79b5c"/><rect x="-5.775" y="-1.775" width="0.350" height="0.350" rx="0.175" fill="#c79b5c"/><rect x="-4.975" y="-1.775" width="0.350" height="0.350" rx="0.175" fill="#c79b5c"/><rect x="-4.175" y="-1.775" width="0.350" height="0.350" rx="0.175" fill="#c79b5c"/><rect x="-3.375" y="-1.775" width="0.350" height="0.350" rx="0.175" fill="#c79b5c"/><rect x="-1.775" y="-1.775" width="0.350" height="0.350" rx="0.175" fill="#c79b5c"/><rect x="-0.975" y="-1.775" width="0.350" height="0.350" rx="0.175" fill="#c79b5c"/><rect x="-0.175" y="-1.775" width="0.350" height="0.350" rx="0.175" fill="#c79b5c"/><rect x="0.625" y="-1.775" width="0.350" height="0.350" rx="0.175" fill="#c79b5c"/><rect x="1.425" y="-1.775" width="0.350" height="0.350" rx="0.175" fill="#c79b5c"/><rect x="3.025" y="-1.775" width="0.350" height="0.350" rx="0.175" fill="#c79b5c"/><rect x="3.825" y="-1.775" width="0.350" height="0.350" rx="0.175" fill="#c79b5c"/><rect x="4.625" y="-1.775" width="0.350" height="0.350" rx="0.175" fill="#c79b5c"/><rect x="5.425" y="-1.775" width="0.350" height="0.350" rx="0.175" fill="#c79b5c"/><rect x="6.225" y="-1.775" width="0.350" height="0.350" rx="0.175" fill="#c79b5c"/><rect x="7.025" y="-1.775" width="0.350" height="0.350" rx="0.175" fill="#c79b5c"/><rect x="-7.375" y="-0.975" width="0.350" height="0.350" rx="0.175" fill="#c79b5c"/><rect x="-6.575" y="-0.975" width="0.350" height="0.350" rx="0.175" fill="#c79b5c"/><rect x="-5.775" y="-0.975" width="0.350" height="0.350" rx="0.175" fill="#c79b5c"/><rect x="-4.975" y="-0.975" width="0.350" height="0.350" rx="0.175" fill="#c79b5c"/><rect x="-4.175" y="-0.975" width="0.350" height="0.350" rx="0.175" fill="#c79b5c"/><rect x="-3.375" y="-0.975" width="0.350" height="0.350" rx="0.175" fill="#c79b5c"/><rect x="-1.775" y="-0.975" width="0.350" height="0.350" rx="0.175" fill="#c79b5c"/><rect x="-0.975" y="-0.975" width="0.350" height="0.350" rx="0.175" fill="#c79b5c"/><rect x="-0.175" y="-0.975" width="0.350" height="0.350" rx="0.175" fill="#c79b5c"/><rect x="0.625" y="-0.975" width="0.350" height="0.350" rx="0.175" fill="#c79b5c"/><rect x="1.425" y="-0.975" width="0.350" height="0.350" rx="0.175" fill="#c79b5c"/><rect x="3.025" y="-0.975" width="0.350" height="0.350" rx="0.175" fill="#c79b5c"/><rect x="3.825" y="-0.975" width="0.350" height="0.350" rx="0.175" fill="#c79b5c"/><rect x="4.625" y="-0.975" width="0.350" height="0.350" rx="0.175" fill="#c79b5c"/><rect x="5.425" y="-0.975" width="0.350" height="0.350" rx="0.175" fill="#c79b5c"/><rect x="6.225" y="-0.975" width="0.350" height="0.350" rx="0.175" fill="#c79b5c"/><rect x="7.025" y="-0.975" width="0.350" height="0.350" rx="0.175" fill="#c79b5c"/><rect x="-7.375" y="-0.175" width="0.350" height="0.350" rx="0.175" fill="#c79b5c"/><rect x="-6.575" y="-0.175" width="0.350" height="0.350" rx="0.175" fill="#c79b5c"/><rect x="-5.775" y="-0.175" width="0.350" height="0.350" rx="0.175" fill="#c79b5c"/><rect x="-4.975" y="-0.175" width="0.350" height="0.350" rx="0.175" fill="#c79b5c"/><rect x="-4.175" y="-0.175" width="0.350" height="0.350" rx="0.175" fill="#c79b5c"/><rect x="-3.375" y="-0.175" width="0.350" height="0.350" rx="0.175" fill="#c79b5c"/><rect x="-1.775" y="-0.175" width="0.350" height="0.350" rx="0.175" fill="#c79b5c"/><rect x="-0.975" y="-0.175" width="0.350" height="0.350" rx="0.175" fill="#c79b5c"/><rect x="-0.175" y="-0.175" width="0.350" height="0.350" rx="0.175" fill="#c79b5c"/><rect x="0.625" y="-0.175" width="0.350" height="0.350" rx="0.175" fill="#c79b5c"/><rect x="1.425" y="-0.175" width="0.350" height="0.350" rx="0.175" fill="#c79b5c"/><rect x="3.025" y="-0.175" width="0.350" height="0.350" rx="0.175" fill="#c79b5c"/><rect x="3.825" y="-0.175" width="0.350" height="0.350" rx="0.175" fill="#c79b5c"/><rect x="4.625" y="-0.175" width="0.350" height="0.350" rx="0.175" fill="#c79b5c"/><rect x="5.425" y="-0.175" width="0.350" height="0.350" rx="0.175" fill="#c79b5c"/><rect x="6.225" y="-0.175" width="0.350" height="0.350" rx="0.175" fill="#c79b5c"/><rect x="7.025" y="-0.175" width="0.350" height="0.350" rx="0.175" fill="#c79b5c"/><rect x="-7.375" y="0.625" width="0.350" height="0.350" rx="0.175" fill="#c79b5c"/><rect x="-6.575" y="0.625" width="0.350" height="0.350" rx="0.175" fill="#c79b5c"/><rect x="-5.775" y="0.625" width="0.350" height="0.350" rx="0.175" fill="#c79b5c"/><rect x="-4.975" y="0.625" width="0.350" height="0.350" rx="0.175" fill="#c79b5c"/><rect x="-4.175" y="0.625" width="0.350" height="0.350" rx="0.175" fill="#c79b5c"/><rect x="-3.375" y="0.625" width="0.350" height="0.350" rx="0.175" fill="#c79b5c"/><rect x="-1.775" y="0.625" width="0.350" height="0.350" rx="0.175" fill="#c79b5c"/><rect x="-0.975" y="0.625" width="0.350" height="0.350" rx="0.175" fill="#c79b5c"/><rect x="-0.175" y="0.625" width="0.350" height="0.350" rx="0.175" fill="#c79b5c"/><rect x="0.625" y="0.625" width="0.350" height="0.350" rx="0.175" fill="#c79b5c"/><rect x="1.425" y="0.625" width="0.350" height="0.350" rx="0.175" fill="#c79b5c"/><rect x="3.025" y="0.625" width="0.350" height="0.350" rx="0.175" fill="#c79b5c"/><rect x="3.825" y="0.625" width="0.350" height="0.350" rx="0.175" fill="#c79b5c"/><rect x="4.625" y="0.625" width="0.350" height="0.350" rx="0.175" fill="#c79b5c"/><rect x="5.425" y="0.625" width="0.350" height="0.350" rx="0.175" fill="#c79b5c"/><rect x="6.225" y="0.625" width="0.350" height="0.350" rx="0.175" fill="#c79b5c"/><rect x="7.025" y="0.625" width="0.350" height="0.350" rx="0.175" fill="#c79b5c"/><rect x="-7.375" y="1.425" width="0.350" height="0.350" rx="0.175" fill="#c79b5c"/><rect x="-6.575" y="1.425" width="0.350" height="0.350" rx="0.175" fill="#c79b5c"/><rect x="-5.775" y="1.425" width="0.350" height="0.350" rx="0.175" fill="#c79b5c"/><rect x="-4.975" y="1.425" width="0.350" height="0.350" rx="0.175" fill="#c79b5c"/><rect x="-4.175" y="1.425" width="0.350" height="0.350" rx="0.175" fill="#c79b5c"/><rect x="-3.375" y="1.425" width="0.350" height="0.350" rx="0.175" fill="#c79b5c"/><rect x="-1.775" y="1.425" width="0.350" height="0.350" rx="0.175" fill="#c79b5c"/><rect x="-0.975" y="1.425" width="0.350" height="0.350" rx="0.175" fill="#c79b5c"/><rect x="-0.175" y="1.425" width="0.350" height="0.350" rx="0.175" fill="#c79b5c"/><rect x="0.625" y="1.425" width="0.350" height="0.350" rx="0.175" fill="#c79b5c"/><rect x="1.425" y="1.425" width="0.350" height="0.350" rx="0.175" fill="#c79b5c"/><rect x="3.025" y="1.425" width="0.350" height="0.350" rx="0.175" fill="#c79b5c"/><rect x="3.825" y="1.425" width="0.350" height="0.350" rx="0.175" fill="#c79b5c"/><rect x="4.625" y="1.425" width="0.350" height="0.350" rx="0.175" fill="#c79b5c"/><rect x="5.425" y="1.425" width="0.350" height="0.350" rx="0.175" fill="#c79b5c"/><rect x="6.225" y="1.425" width="0.350" height="0.350" rx="0.175" fill="#c79b5c"/><rect x="7.025" y="1.425" width="0.350" height="0.350" rx="0.175" fill="#c79b5c"/><rect x="-7.375" y="2.225" width="0.350" height="0.350" rx="0.175" fill="#c79b5c"/><rect x="-6.575" y="2.225" width="0.350" height="0.350" rx="0.175" fill="#c79b5c"/><rect x="-5.775" y="2.225" width="0.350" height="0.350" rx="0.175" fill="#c79b5c"/><rect x="-4.975" y="2.225" width="0.350" height="0.350" rx="0.175" fill="#c79b5c"/><rect x="-4.175" y="2.225" width="0.350" height="0.350" rx="0.175" fill="#c79b5c"/><rect x="-3.375" y="2.225" width="0.350" height="0.350" rx="0.175" fill="#c79b5c"/><rect x="3.025" y="2.225" width="0.350" height="0.350" rx="0.175" fill="#c79b5c"/><rect x="3.825" y="2.225" width="0.350" height="0.350" rx="0.175" fill="#c79b5c"/><rect x="4.625" y="2.225" width="0.350" height="0.350" rx="0.175" fill="#c79b5c"/><rect x="5.425" y="2.225" width="0.350" height="0.350" rx="0.175" fill="#c79b5c"/><rect x="6.225" y="2.225" width="0.350" height="0.350" rx="0.175" fill="#c79b5c"/><rect x="7.025" y="2.225" width="0.350" height="0.350" rx="0.175" fill="#c79b5c"/><rect x="-7.375" y="3.025" width="0.350" height="0.350" rx="0.175" fill="#c79b5c"/><rect x="-6.575" y="3.025" width="0.350" height="0.350" rx="0.175" fill="#c79b5c"/><rect x="-5.775" y="3.025" width="0.350" height="0.350" rx="0.175" fill="#c79b5c"/><rect x="-4.975" y="3.025" width="0.350" height="0.350" rx="0.175" fill="#c79b5c"/><rect x="-4.175" y="3.025" width="0.350" height="0.350" rx="0.175" fill="#c79b5c"/><rect x="-3.375" y="3.025" width="0.350" height="0.350" rx="0.175" fill="#c79b5c"/><rect x="-2.575" y="3.025" width="0.350" height="0.350" rx="0.175" fill="#c79b5c"/><rect x="-1.775" y="3.025" width="0.350" height="0.350" rx="0.175" fill="#c79b5c"/><rect x="-0.975" y="3.025" width="0.350" height="0.350" rx="0.175" fill="#c79b5c"/><rect x="-0.175" y="3.025" width="0.350" height="0.350" rx="0.175" fill="#c79b5c"/><rect x="0.625" y="3.025" width="0.350" height="0.350" rx="0.175" fill="#c79b5c"/><rect x="1.425" y="3.025" width="0.350" height="0.350" rx="0.175" fill="#c79b5c"/><rect x="2.225" y="3.025" width="0.350" height="0.350" rx="0.175" fill="#c79b5c"/><rect x="3.025" y="3.025" width="0.350" height="0.350" rx="0.175" fill="#c79b5c"/><rect x="3.825" y="3.025" width="0.350" height="0.350" rx="0.175" fill="#c79b5c"/><rect x="4.625" y="3.025" width="0.350" height="0.350" rx="0.175" fill="#c79b5c"/><rect x="5.425" y="3.025" width="0.350" height="0.350" rx="0.175" fill="#c79b5c"/><rect x="6.225" y="3.025" width="0.350" height="0.350" rx="0.175" fill="#c79b5c"/><rect x="7.025" y="3.025" width="0.350" height="0.350" rx="0.175" fill="#c79b5c"/><rect x="-7.375" y="3.825" width="0.350" height="0.350" rx="0.175" fill="#c79b5c"/><rect x="-6.575" y="3.825" width="0.350" height="0.350" rx="0.175" fill="#c79b5c"/><rect x="-5.775" y="3.825" width="0.350" height="0.350" rx="0.175" fill="#c79b5c"/><rect x="-4.975" y="3.825" width="0.350" height="0.350" rx="0.175" fill="#c79b5c"/><rect x="-4.175" y="3.825" width="0.350" height="0.350" rx="0.175" fill="#c79b5c"/><rect x="-3.375" y="3.825" width="0.350" height="0.350" rx="0.175" fill="#c79b5c"/><rect x="-2.575" y="3.825" width="0.350" height="0.350" rx="0.175" fill="#c79b5c"/><rect x="-1.775" y="3.825" width="0.350" height="0.350" rx="0.175" fill="#c79b5c"/><rect x="-0.975" y="3.825" width="0.350" height="0.350" rx="0.175" fill="#c79b5c"/><rect x="-0.175" y="3.825" width="0.350" height="0.350" rx="0.175" fill="#c79b5c"/><rect x="0.625" y="3.825" width="0.350" height="0.350" rx="0.175" fill="#c79b5c"/><rect x="1.425" y="3.825" width="0.350" height="0.350" rx="0.175" fill="#c79b5c"/><rect x="2.225" y="3.825" width="0.350" height="0.350" rx="0.175" fill="#c79b5c"/><rect x="3.025" y="3.825" width="0.350" height="0.350" rx="0.175" fill="#c79b5c"/><rect x="3.825" y="3.825" width="0.350" height="0.350" rx="0.175" fill="#c79b5c"/><rect x="4.625" y="3.825" width="0.350" height="0.350" rx="0.175" fill="#c79b5c"/><rect x="5.425" y="3.825" width="0.350" height="0.350" rx="0.175" fill="#c79b5c"/><rect x="6.225" y="3.825" width="0.350" height="0.350" rx="0.175" fill="#c79b5c"/><rect x="7.025" y="3.825" width="0.350" height="0.350" rx="0.175" fill="#c79b5c"/><rect x="-7.375" y="4.625" width="0.350" height="0.350" rx="0.175" fill="#c79b5c"/><rect x="-6.575" y="4.625" width="0.350" height="0.350" rx="0.175" fill="#c79b5c"/><rect x="-5.775" y="4.625" width="0.350" height="0.350" rx="0.175" fill="#c79b5c"/><rect x="-4.975" y="4.625" width="0.350" height="0.350" rx="0.175" fill="#c79b5c"/><rect x="-4.175" y="4.625" width="0.350" height="0.350" rx="0.175" fill="#c79b5c"/><rect x="-3.375" y="4.625" width="0.350" height="0.350" rx="0.175" fill="#c79b5c"/><rect x="-2.575" y="4.625" width="0.350" height="0.350" rx="0.175" fill="#c79b5c"/><rect x="-1.775" y="4.625" width="0.350" height="0.350" rx="0.175" fill="#c79b5c"/><rect x="-0.975" y="4.625" width="0.350" height="0.350" rx="0.175" fill="#c79b5c"/><rect x="-0.175" y="4.625" width="0.350" height="0.350" rx="0.175" fill="#c79b5c"/><rect x="0.625" y="4.625" width="0.350" height="0.350" rx="0.175" fill="#c79b5c"/><rect x="1.425" y="4.625" width="0.350" height="0.350" rx="0.175" fill="#c79b5c"/><rect x="2.225" y="4.625" width="0.350" height="0.350" rx="0.175" fill="#c79b5c"/><rect x="3.025" y="4.625" width="0.350" height="0.350" rx="0.175" fill="#c79b5c"/><rect x="3.825" y="4.625" width="0.350" height="0.350" rx="0.175" fill="#c79b5c"/><rect x="4.625" y="4.625" width="0.350" height="0.350" rx="0.175" fill="#c79b5c"/><rect x="5.425" y="4.625" width="0.350" height="0.350" rx="0.175" fill="#c79b5c"/><rect x="6.225" y="4.625" width="0.350" height="0.350" rx="0.175" fill="#c79b5c"/><rect x="7.025" y="4.625" width="0.350" height="0.350" rx="0.175" fill="#c79b5c"/><rect x="-7.375" y="5.425" width="0.350" height="0.350" rx="0.175" fill="#c79b5c"/><rect x="-6.575" y="5.425" width="0.350" height="0.350" rx="0.175" fill="#c79b5c"/><rect x="-5.775" y="5.425" width="0.350" height="0.350" rx="0.175" fill="#c79b5c"/><rect x="-4.975" y="5.425" width="0.350" height="0.350" rx="0.175" fill="#c79b5c"/><rect x="-4.175" y="5.425" width="0.350" height="0.350" rx="0.175" fill="#c79b5c"/><rect x="-3.375" y="5.425" width="0.350" height="0.350" rx="0.175" fill="#c79b5c"/><rect x="-2.575" y="5.425" width="0.350" height="0.350" rx="0.175" fill="#c79b5c"/><rect x="-1.775" y="5.425" width="0.350" height="0.350" rx="0.175" fill="#c79b5c"/><rect x="-0.975" y="5.425" width="0.350" height="0.350" rx="0.175" fill="#c79b5c"/><rect x="-0.175" y="5.425" width="0.350" height="0.350" rx="0.175" fill="#c79b5c"/><rect x="0.625" y="5.425" width="0.350" height="0.350" rx="0.175" fill="#c79b5c"/><rect x="1.425" y="5.425" width="0.350" height="0.350" rx="0.175" fill="#c79b5c"/><rect x="2.225" y="5.425" width="0.350" height="0.350" rx="0.175" fill="#c79b5c"/><rect x="3.025" y="5.425" width="0.350" height="0.350" rx="0.175" fill="#c79b5c"/><rect x="3.825" y="5.425" width="0.350" height="0.350" rx="0.175" fill="#c79b5c"/><rect x="4.625" y="5.425" width="0.350" height="0.350" rx="0.175" fill="#c79b5c"/><rect x="5.425" y="5.425" width="0.350" height="0.350" rx="0.175" fill="#c79b5c"/><rect x="6.225" y="5.425" width="0.350" height="0.350" rx="0.175" fill="#c79b5c"/><rect x="7.025" y="5.425" width="0.350" height="0.350" rx="0.175" fill="#c79b5c"/><rect x="-7.375" y="6.225" width="0.350" height="0.350" rx="0.175" fill="#c79b5c"/><rect x="-6.575" y="6.225" width="0.350" height="0.350" rx="0.175" fill="#c79b5c"/><rect x="-5.775" y="6.225" width="0.350" height="0.350" rx="0.175" fill="#c79b5c"/><rect x="-4.975" y="6.225" width="0.350" height="0.350" rx="0.175" fill="#c79b5c"/><rect x="-4.175" y="6.225" width="0.350" height="0.350" rx="0.175" fill="#c79b5c"/><rect x="-3.375" y="6.225" width="0.350" height="0.350" rx="0.175" fill="#c79b5c"/><rect x="-2.575" y="6.225" width="0.350" height="0.350" rx="0.175" fill="#c79b5c"/><rect x="-1.775" y="6.225" width="0.350" height="0.350" rx="0.175" fill="#c79b5c"/><rect x="-0.975" y="6.225" width="0.350" height="0.350" rx="0.175" fill="#c79b5c"/><rect x="-0.175" y="6.225" width="0.350" height="0.350" rx="0.175" fill="#c79b5c"/><rect x="0.625" y="6.225" width="0.350" height="0.350" rx="0.175" fill="#c79b5c"/><rect x="1.425" y="6.225" width="0.350" height="0.350" rx="0.175" fill="#c79b5c"/><rect x="2.225" y="6.225" width="0.350" height="0.350" rx="0.175" fill="#c79b5c"/><rect x="3.025" y="6.225" width="0.350" height="0.350" rx="0.175" fill="#c79b5c"/><rect x="3.825" y="6.225" width="0.350" height="0.350" rx="0.175" fill="#c79b5c"/><rect x="4.625" y="6.225" width="0.350" height="0.350" rx="0.175" fill="#c79b5c"/><rect x="5.425" y="6.225" width="0.350" height="0.350" rx="0.175" fill="#c79b5c"/><rect x="6.225" y="6.225" width="0.350" height="0.350" rx="0.175" fill="#c79b5c"/><rect x="7.025" y="6.225" width="0.350" height="0.350" rx="0.175" fill="#c79b5c"/><rect x="-7.375" y="7.025" width="0.350" height="0.350" rx="0.175" fill="#c79b5c"/><rect x="-6.575" y="7.025" width="0.350" height="0.350" rx="0.175" fill="#c79b5c"/><rect x="-5.775" y="7.025" width="0.350" height="0.350" rx="0.175" fill="#c79b5c"/><rect x="-4.975" y="7.025" width="0.350" height="0.350" rx="0.175" fill="#c79b5c"/><rect x="-4.175" y="7.025" width="0.350" height="0.350" rx="0.175" fill="#c79b5c"/><rect x="-3.375" y="7.025" width="0.350" height="0.350" rx="0.175" fill="#c79b5c"/><rect x="-2.575" y="7.025" width="0.350" height="0.350" rx="0.175" fill="#c79b5c"/><rect x="-1.775" y="7.025" width="0.350" height="0.350" rx="0.175" fill="#c79b5c"/><rect x="-0.975" y="7.025" width="0.350" height="0.350" rx="0.175" fill="#c79b5c"/><rect x="-0.175" y="7.025" width="0.350" height="0.350" rx="0.175" fill="#c79b5c"/><rect x="0.625" y="7.025" width="0.350" height="0.350" rx="0.175" fill="#c79b5c"/><rect x="1.425" y="7.025" width="0.350" height="0.350" rx="0.175" fill="#c79b5c"/><rect x="2.225" y="7.025" width="0.350" height="0.350" rx="0.175" fill="#c79b5c"/><rect x="3.025" y="7.025" width="0.350" height="0.350" rx="0.175" fill="#c79b5c"/><rect x="3.825" y="7.025" width="0.350" height="0.350" rx="0.175" fill="#c79b5c"/><rect x="4.625" y="7.025" width="0.350" height="0.350" rx="0.175" fill="#c79b5c"/><rect x="5.425" y="7.025" width="0.350" height="0.350" rx="0.175" fill="#c79b5c"/><rect x="6.225" y="7.025" width="0.350" height="0.350" rx="0.175" fill="#c79b5c"/><rect x="7.025" y="7.025" width="0.350" height="0.350" rx="0.175" fill="#c79b5c"/></svg>