<svg xmlns="http://www.w3.org/2000/svg" viewBox="-20.85 -7.53 41.70 15.06" preserveAspectRatio="xMidYMid meet" style="width:100%;height:100%"><rect x="-20.85" y="-7.53" width="41.70" height="15.06" fill="#12151c"/><line x1="-19.600" y1="4.975" x2="-19.600" y2="-4.975" stroke="#e6e9ef" stroke-width="0.200" stroke-linecap="round" opacity="1"/><line x1="-18.300" y1="-6.275" x2="18.300" y2="-6.275" stroke="#e6e9ef" stroke-width="0.200" stroke-linecap="round" opacity="1"/><line x1="-18.300" y1="6.275" x2="18.300" y2="6.275" stroke="#e6e9ef" stroke-width="0.200" stroke-linecap="round" opacity="1"/><line x1="-12.320" y1="-1.603" x2="-11.632" y2="2.297" stroke="#e6e9ef" stroke-width="0.200" stroke-linecap="round" opacity="1"/><line x1="-10.350" y1="-3.950" x2="10.350" y2="-3.950" stroke="#e6e9ef" stroke-width="0.200" stroke-linecap="round" opacity="1"/><line x1="-9.662" y1="3.950" x2="9.662" y2="3.950" stroke="#e6e9ef" stroke-width="0.200" stroke-linecap="round" opacity="1"/><line x1="11.632" y1="2.297" x2="12.320" y2="-1.603" stroke="#e6e9ef" stroke-width="0.200" stroke-linecap="round" opacity="1"/><line x1="19.600" y1="4.975" x2="19.600" y2="-4.975" stroke="#e6e9ef" stroke-width="0.200" stroke-linecap="round" opacity="1"/><line x1="-16.850" y1="0.000" x2="-16.650" y2="0.000" stroke="#4a5160" stroke-width="0.080" stroke-linecap="round" opacity="0.7"/><line x1="-16.650" y1="0.000" x2="-16.650" y2="-0.200" stroke="#4a5160" stroke-width="0.080" stroke-linecap="round" opacity="0.7"/><line x1="-16.650" y1="0.000" x2="-16.450" y2="0.000" stroke="#4a5160" stroke-width="0.080" stroke-linecap="round" opacity="0.7"/><line x1="-16.650" y1="0.200" x2="-16.650" y2="0.000" stroke="#4a5160" stroke-width="0.080" stroke-linecap="round" opacity="0.7"/><line x1="-9.870" y1="-1.980" x2="-9.670" y2="-1.980" stroke="#4a5160" stroke-width="0.080" stroke-linecap="round" opacity="0.7"/><line x1="-9.670" y1="-1.980" x2="-9.670" y2="-2.180" stroke="#4a5160" stroke-width="0.080" stroke-linecap="round" opacity="0.7"/><line x1="-9.670" y1="-1.980" x2="-9.470" y2="-1.980" stroke="#4a5160" stroke-width="0.080" stroke-linecap="round" opacity="0.7"/><line x1="-9.670" y1="-1.780" x2="-9.670" y2="-1.980" stroke="#4a5160" stroke-width="0.080" stroke-linecap="round" opacity="0.7"/><line x1="-8.720" y1="0.000" x2="-8.520" y2="0.000" stroke="#4a5160" stroke-width="0.080" stroke-linecap="round" opacity="0.7"/><line x1="-8.520" y1="0.000" x2="-8.520" y2="-0.200" stroke="#4a5160" stroke-width="0.080" stroke-linecap="round" opacity="0.7"/><line x1="-8.520" y1="0.000" x2="-8.320" y2="0.000" stroke="#4a5160" stroke-width="0.080" stroke-linecap="round" opacity="0.7"/><line x1="-8.520" y1="0.200" x2="-8.520" y2="0.000" stroke="#4a5160" stroke-width="0.080" stroke-linecap="round" opacity="0.7"/><line x1="-7.580" y1="-1.980" x2="-7.380" y2="-1.980" stroke="#4a5160" stroke-width="0.080" stroke-linecap="round" opacity="0.7"/><line x1="-7.580" y1="1.980" x2="-7.380" y2="1.980" stroke="#4a5160" stroke-width="0.080" stroke-linecap="round" opacity="0.7"/><line x1="-7.380" y1="-1.980" x2="-7.380" y2="-2.180" stroke="#4a5160" stroke-width="0.080" stroke-linecap="round" opacity="0.7"/><line x1="-7.380" y1="-1.980" x2="-7.180" y2="-1.980" stroke="#4a5160" stroke-width="0.080" stroke-linecap="round" opacity="0.7"/><line x1="-7.380" y1="-1.780" x2="-7.380" y2="-1.980" stroke="#4a5160" stroke-width="0.080" stroke-linecap="round" opacity="0.7"/><line x1="-7.380" y1="1.980" x2="-7.380" y2="1.780" stroke="#4a5160" stroke-width="0.080" stroke-linecap="round" opacity="0.7"/><line x1="-7.380" y1="1.980" x2="-7.180" y2="1.980" stroke="#4a5160" stroke-width="0.080" stroke-linecap="round" opacity="0.7"/><line x1="-7.380" y1="2.180" x2="-7.380" y2="1.980" stroke="#4a5160" stroke-width="0.080" stroke-linecap="round" opacity="0.7"/><line x1="-6.430" y1="0.000" x2="-6.230" y2="0.000" stroke="#4a5160" stroke-width="0.080" stroke-linecap="round" opacity="0.7"/><line x1="-6.230" y1="0.000" x2="-6.230" y2="-0.200" stroke="#4a5160" stroke-width="0.080" stroke-linecap="round" opacity="0.7"/><line x1="-6.230" y1="0.000" x2="-6.030" y2="0.000" stroke="#4a5160" stroke-width="0.080" stroke-linecap="round" opacity="0.7"/><line x1="-6.230" y1="0.200" x2="-6.230" y2="0.000" stroke="#4a5160" stroke-width="0.080" stroke-linecap="round" opacity="0.7"/><line x1="-5.290" y1="-1.980" x2="-5.090" y2="-1.980" stroke="#4a5160" stroke-width="0.080" stroke-linecap="round" opacity="0.7"/><line x1="-5.290" y1="1.980" x2="-5.090" y2="1.980" stroke="#4a5160" stroke-width="0.080" stroke-linecap="round" opacity="0.7"/><line x1="-5.090" y1="-1.980" x2="-5.090" y2="-2.180" stroke="#4a5160" stroke-width="0.080" stroke-linecap="round" opacity="0.7"/><line x1="-5.090" y1="-1.980" x2="-4.890" y2="-1.980" stroke="#4a5160" stroke-width="0.080" stroke-linecap="round" opacity="0.7"/><line x1="-5.090" y1="-1.780" x2="-5.090" y2="-1.980" stroke="#4a5160" stroke-width="0.080" stroke-linecap="round" opacity="0.7"/><line x1="-5.090" y1="1.980" x2="-5.090" y2="1.780" stroke="#4a5160" stroke-width="0.080" stroke-linecap="round" opacity="0.7"/><line x1="-5.090" y1="1.980" x2="-4.890" y2="1.980" stroke="#4a5160" stroke-width="0.080" stroke-linecap="round" opacity="0.7"/><line x1="-5.090" y1="2.180" x2="-5.090" y2="1.980" stroke="#4a5160" stroke-width="0.080" stroke-linecap="round" opacity="0.7"/><line x1="-4.140" y1="0.000" x2="-3.940" y2="0.000" stroke="#4a5160" stroke-width="0.080" stroke-linecap="round" opacity="0.7"/><line x1="-3.940" y1="0.000" x2="-3.940" y2="-0.200" stroke="#4a5160" stroke-width="0.080" stroke-linecap="round" opacity="0.7"/><line x1="-3.940" y1="0.000" x2="-3.740" y2="0.000" stroke="#4a5160" stroke-width="0.080" stroke-linecap="round" opacity="0.7"/><line x1="-3.940" y1="0.200" x2="-3.940" y2="0.000" stroke="#4a5160" stroke-width="0.080" stroke-linecap="round" opacity="0.7"/><line x1="-3.000" y1="-1.980" x2="-2.800" y2="-1.980" stroke="#4a5160" stroke-width="0.080" stroke-linecap="round" opacity="0.7"/><line x1="-3.000" y1="1.980" x2="-2.800" y2="1.980" stroke="#4a5160" stroke-width="0.080" stroke-linecap="round" opacity="0.7"/><line x1="-2.800" y1="-1.980" x2="-2.800" y2="-2.180" stroke="#4a5160" stroke-width="0.080" stroke-linecap="round" opacity="0.7"/><line x1="-2.800" y1="-1.980" x2="-2.600" y2="-1.980" stroke="#4a5160" stroke-width="0.080" stroke-linecap="round" opacity="0.7"/><line x1="-2.800" y1="-1.780" x2="-2.800" y2="-1.980" stroke="#4a5160" stroke-width="0.080" stroke-linecap="round" opacity="0.7"/><line x1="-2.800" y1="1.980" x2="-2.800" y2="1.780" stroke="#4a5160" stroke-width="0.080" stroke-linecap="round" opacity="0.7"/><line x1="-2.800" y1="1.980" x2="-2.600" y2="1.980" stroke="#4a5160" stroke-width="0.080" stroke-linecap="round" opacity="0.7"/><line x1="-2.800" y1="2.180" x2="-2.800" y2="1.980" stroke="#4a5160" stroke-width="0.080" stroke-linecap="round" opacity="0.7"/><line x1="-1.850" y1="0.000" x2="-1.650" y2="0.000" stroke="#4a5160" stroke-width="0.080" stroke-linecap="round" opacity="0.7"/><line x1="-1.650" y1="0.000" x2="-1.650" y2="-0.200" stroke="#4a5160" stroke-width="0.080" stroke-linecap="round" opacity="0.7"/><line x1="-1.650" y1="0.000" x2="-1.450" y2="0.000" stroke="#4a5160" stroke-width="0.080" stroke-linecap="round" opacity="0.7"/><line x1="-1.650" y1="0.200" x2="-1.650" y2="0.000" stroke="#4a5160" stroke-width="0.080" stroke-linecap="round" opacity="0.7"/><line x1="-0.710" y1="-1.980" x2="-0.510" y2="-1.980" stroke="#4a5160" stroke-width="0.080" stroke-linecap="round" opacity="0.7"/><line x1="-0.710" y1="1.980" x2="-0.510" y2="1.980" stroke="#4a5160" stroke-width="0.080" stroke-linecap="round" opacity="0.7"/><line x1="-0.510" y1="-1.980" x2="-0.510" y2="-2.180" stroke="#4a5160" stroke-width="0.080" stroke-linecap="round" opacity="0.7"/><line x1="-0.510" y1="-1.980" x2="-0.310" y2="-1.980" stroke="#4a5160" stroke-width="0.080" stroke-linecap="round" opacity="0.7"/><line x1="-0.510" y1="-1.780" x2="-0.510" y2="-1.980" stroke="#4a5160" stroke-width="0.080" stroke-linecap="round" opacity="0.7"/><line x1="-0.510" y1="1.980" x2="-0.510" y2="1.780" stroke="#4a5160" stroke-width="0.080" stroke-linecap="round" opacity="0.7"/><line x1="-0.510" y1="1.980" x2="-0.310" y2="1.980" stroke="#4a5160" stroke-width="0.080" stroke-linecap="round" opacity="0.7"/><line x1="-0.510" y1="2.180" x2="-0.510" y2="1.980" stroke="#4a5160" stroke-width="0.080" stroke-linecap="round" opacity="0.7"/><line x1="-0.500" y1="0.000" x2="0.000" y2="0.000" stroke="#4a5160" stroke-width="0.080" stroke-linecap="round" opacity="0.7"/><line x1="0.000" y1="0.000" x2="0.000" y2="-0.500" stroke="#4a5160" stroke-width="0.080" stroke-linecap="round" opacity="0.7"/><line x1="0.000" y1="0.000" x2="0.500" y2="0.000" stroke="#4a5160" stroke-width="0.080" stroke-linecap="round" opacity="0.7"/><line x1="0.000" y1="0.500" x2="0.000" y2="0.000" stroke="#4a5160" stroke-width="0.080" stroke-linecap="round" opacity="0.7"/><line x1="0.440" y1="0.000" x2="0.640" y2="0.000" stroke="#4a5160" stroke-width="0.080" stroke-linecap="round" opacity="0.7"/><line x1="0.640" y1="0.000" x2="0.640" y2="-0.200" stroke="#4a5160" stroke-width="0.080" stroke-linecap="round" opacity="0.7"/><line x1="0.640" y1="0.000" x2="0.840" y2="0.000" stroke="#4a5160" stroke-width="0.080" stroke-linecap="round" opacity="0.7"/><line x1="0.640" y1="0.200" x2="0.640" y2="0.000" stroke="#4a5160" stroke-width="0.080" stroke-linecap="round" opacity="0.7"/><line x1="1.580" y1="-1.980" x2="1.780" y2="-1.980" stroke="#4a5160" stroke-width="0.080" stroke-linecap="round" opacity="0.7"/><line x1="1.580" y1="1.980" x2="1.780" y2="1.980" stroke="#4a5160" stroke-width="0.080" stroke-linecap="round" opacity="0.7"/><line x1="1.780" y1="-1.980" x2="1.780" y2="-2.180" stroke="#4a5160" stroke-width="0.080" stroke-linecap="round" opacity="0.7"/><line x1="1.780" y1="-1.980" x2="1.980" y2="-1.980" stroke="#4a5160" stroke-width="0.080" stroke-linecap="round" opacity="0.7"/><line x1="1.780" y1="-1.780" x2="1.780" y2="-1.980" stroke="#4a5160" stroke-width="0.080" stroke-linecap="round" opacity="0.7"/><line x1="1.780" y1="1.980" x2="1.780" y2="1.780" stroke="#4a5160" stroke-width="0.080" stroke-linecap="round" opacity="0.7"/><line x1="1.780" y1="1.980" x2="1.980" y2="1.980" stroke="#4a5160" stroke-width="0.080" stroke-linecap="round" opacity="0.7"/><line x1="1.780" y1="2.180" x2="1.780" y2="1.980" stroke="#4a5160" stroke-width="0.080" stroke-linecap="round" opacity="0.7"/><line x1="2.730" y1="0.000" x2="2.930" y2="0.000" stroke="#4a5160" stroke-width="0.080" stroke-linecap="round" opacity="0.7"/><line x1="2.930" y1="0.000" x2="2.930" y2="-0.200" stroke="#4a5160" stroke-width="0.080" stroke-linecap="round" opacity="0.7"/><line x1="2.930" y1="0.000" x2="3.130" y2="0.000" stroke="#4a5160" stroke-width="0.080" stroke-linecap="round" opacity="0.7"/><line x1="2.930" y1="0.200" x2="2.930" y2="0.000" stroke="#4a5160" stroke-width="0.080" stroke-linecap="round" opacity="0.7"/><line x1="3.870" y1="-1.980" x2="4.070" y2="-1.980" stroke="#4a5160" stroke-width="0.080" stroke-linecap="round" opacity="0.7"/><line x1="3.870" y1="1.980" x2="4.070" y2="1.980" stroke="#4a5160" stroke-width="0.080" stroke-linecap="round" opacity="0.7"/><line x1="4.070" y1="-1.980" x2="4.070" y2="-2.180" stroke="#4a5160" stroke-width="0.080" stroke-linecap="round" opacity="0.7"/><line x1="4.070" y1="-1.980" x2="4.270" y2="-1.980" stroke="#4a5160" stroke-width="0.080" stroke-linecap="round" opacity="0.7"/><line x1="4.070" y1="-1.780" x2="4.070" y2="-1.980" stroke="#4a5160" stroke-width="0.080" stroke-linecap="round" opacity="0.7"/><line x1="4.070" y1="1.980" x2="4.070" y2="1.780" stroke="#4a5160" stroke-width="0.080" stroke-linecap="round" opacity="0.7"/><line x1="4.070" y1="1.980" x2="4.270" y2="1.980" stroke="#4a5160" stroke-width="0.080" stroke-linecap="round" opacity="0.7"/><line x1="4.070" y1="2.180" x2="4.070" y2="1.980" stroke="#4a5160" stroke-width="0.080" stroke-linecap="round" opacity="0.7"/><line x1="5.020" y1="0.000" x2="5.220" y2="0.000" stroke="#4a5160" stroke-width="0.080" stroke-linecap="round" opacity="0.7"/><line x1="5.220" y1="0.000" x2="5.220" y2="-0.200" stroke="#4a5160" stroke-width="0.080" stroke-linecap="round" opacity="0.7"/><line x1="5.220" y1="0.000" x2="5.420" y2="0.000" stroke="#4a5160" stroke-width="0.080" stroke-linecap="round" opacity="0.7"/><line x1="5.220" y1="0.200" x2="5.220" y2="0.000" stroke="#4a5160" stroke-width="0.080" stroke-linecap="round" opacity="0.7"/><line x1="6.160" y1="-1.980" x2="6.360" y2="-1.980" stroke="#4a5160" stroke-width="0.080" stroke-linecap="round" opacity="0.7"/><line x1="6.160" y1="1.980" x2="6.360" y2="1.980" stroke="#4a5160" stroke-width="0.080" stroke-linecap="round" opacity="0.7"/><line x1="6.360" y1="-1.980" x2="6.360" y2="-2.180" stroke="#4a5160" stroke-width="0.080" stroke-linecap="round" opacity="0.7"/><line x1="6.360" y1="-1.980" x2="6.560" y2="-1.980" stroke="#4a5160" stroke-width="0.080" stroke-linecap="round" opacity="0.7"/><line x1="6.360" y1="-1.780" x2="6.360" y2="-1.980" stroke="#4a5160" stroke-width="0.080" stroke-linecap="round" opacity="0.7"/><line x1="6.360" y1="1.980" x2="6.360" y2="1.780" stroke="#4a5160" stroke-width="0.080" stroke-linecap="round" opacity="0.7"/><line x1="6.360" y1="1.980" x2="6.560" y2="1.980" stroke="#4a5160" stroke-width="0.080" stroke-linecap="round" opacity="0.7"/><line x1="6.360" y1="2.180" x2="6.360" y2="1.980" stroke="#4a5160" stroke-width="0.080" stroke-linecap="round" opacity="0.7"/><line x1="7.310" y1="0.000" x2="7.510" y2="0.000" stroke="#4a5160" stroke-width="0.080" stroke-linecap="round" opacity="0.7"/><line x1="7.510" y1="0.000" x2="7.510" y2="-0.200" stroke="#4a5160" stroke-width="0.080" stroke-linecap="round" opacity="0.7"/><line x1="7.510" y1="0.000" x2="7.710" y2="0.000" stroke="#4a5160" stroke-width="0.080" stroke-linecap="round" opacity="0.7"/><line x1="7.510" y1="0.200" x2="7.510" y2="0.000" stroke="#4a5160" stroke-width="0.080" stroke-linecap="round" opacity="0.7"/><line x1="8.450" y1="-1.980" x2="8.650" y2="-1.980" stroke="#4a5160" stroke-width="0.080" stroke-linecap="round" opacity="0.7"/><line x1="8.450" y1="1.980" x2="8.650" y2="1.980" stroke="#4a5160" stroke-width="0.080" stroke-linecap="round" opacity="0.7"/><line x1="8.650" y1="-1.980" x2="8.650" y2="-2.180" stroke="#4a5160" stroke-width="0.080" stroke-linecap="round" opacity="0.7"/><line x1="8.650" y1="-1.980" x2="8.850" y2="-1.980" stroke="#4a5160" stroke-width="0.080" stroke-linecap="round" opacity="0.7"/><line x1="8.650" y1="-1.780" x2="8.650" y2="-1.980" stroke="#4a5160" stroke-width="0.080" stroke-linecap="round" opacity="0.7"/><line x1="8.650" y1="1.980" x2="8.650" y2="1.780" stroke="#4a5160" stroke-width="0.080" stroke-linecap="round" opacity="0.7"/><line x1="8.650" y1="1.980" x2="8.850" y2="1.980" stroke="#4a5160" stroke-width="0.080" stroke-linecap="round" opacity="0.7"/><line x1="8.650" y1="2.180" x2="8.650" y2="1.980" stroke="#4a5160" stroke-width="0.080" stroke-linecap="round" opacity="0.7"/><line x1="9.600" y1="0.000" x2="9.800" y2="0.000" stroke="#4a5160" stroke-width="0.080" stroke-linecap="round" opacity="0.7"/><line x1="9.800" y1="0.000" x2="9.800" y2="-0.200" stroke="#4a5160" stroke-width="0.080" stroke-linecap="round" opacity="0.7"/><line x1="9.800" y1="0.000" x2="10.000" y2="0.000" stroke="#4a5160" stroke-width="0.080" stroke-linecap="round" opacity="0.7"/><line x1="9.800" y1="0.200" x2="9.800" y2="0.000" stroke="#4a5160" stroke-width="0.080" stroke-linecap="round" opacity="0.7"/><line x1="16.450" y1="0.000" x2="16.650" y2="0.000" stroke="#4a5160" stroke-width="0.080" stroke-linecap="round" opacity="0.7"/><line x1="16.650" y1="0.000" x2="16.650" y2="-0.200" stroke="#4a5160" stroke-width="0.080" stroke-linecap="round" opacity="0.7"/><line x1="16.650" y1="0.000" x2="16.850" y2="0.000" stroke="#4a5160" stroke-width="0.080" stroke-linecap="round" opacity="0.7"/><line x1="16.650" y1="0.200" x2="16.650" y2="0.000" stroke="#4a5160" stroke-width="0.080" stroke-linecap="round" opacity="0.7"/><line x1="-19.600" y1="4.975" x2="-19.600" y2="-4.975" stroke="#6b7280" stroke-width="0.100" stroke-linecap="round" opacity="0.8"/><line x1="-18.300" y1="-6.275" x2="18.300" y2="-6.275" stroke="#6b7280" stroke-width="0.100" stroke-linecap="round" opacity="0.8"/><line x1="-18.300" y1="6.275" x2="18.300" y2="6.275" stroke="#6b7280" stroke-width="0.100" stroke-linecap="round" opacity="0.8"/><line x1="-17.912" y1="-0.900" x2="-15.388" y2="-0.900" stroke="#6b7280" stroke-width="0.100" stroke-linecap="round" opacity="0.8"/><line x1="-17.912" y1="0.900" x2="-15.388" y2="0.900" stroke="#6b7280" stroke-width="0.100" stroke-linecap="round" opacity="0.8"/><line x1="-12.320" y1="-1.603" x2="-11.632" y2="2.297" stroke="#6b7280" stroke-width="0.100" stroke-linecap="round" opacity="0.8"/><line x1="-10.350" y1="-3.950" x2="10.350" y2="-3.950" stroke="#6b7280" stroke-width="0.100" stroke-linecap="round" opacity="0.8"/><line x1="-9.662" y1="3.950" x2="9.662" y2="3.950" stroke="#6b7280" stroke-width="0.100" stroke-linecap="round" opacity="0.8"/><line x1="11.632" y1="2.297" x2="12.320" y2="-1.603" stroke="#6b7280" stroke-width="0.100" stroke-linecap="round" opacity="0.8"/><line x1="15.388" y1="-0.900" x2="17.912" y2="-0.900" stroke="#6b7280" stroke-width="0.100" stroke-linecap="round" opacity="0.8"/><line x1="15.388" y1="0.900" x2="17.912" y2="0.900" stroke="#6b7280" stroke-width="0.100" stroke-linecap="round" opacity="0.8"/><line x1="19.600" y1="4.975" x2="19.600" y2="-4.975" stroke="#6b7280" stroke-width="0.100" stroke-linecap="round" opacity="0.8"/><line x1="-19.850" y1="-6.530" x2="19.850" y2="-6.530" stroke="#d24d4d" stroke-width="0.080" stroke-linecap="round" opacity="0.7"/><line x1="19.850" y1="-6.530" x2="19.850" y2="6.530" stroke="#d24d4d" stroke-width="0.080" stroke-linecap="round" opacity="0.7"/><line x1="19.850" y1="6.530" x2="-19.850" y2="6.530" stroke="#d24d4d" stroke-width="0.080" stroke-linecap="round" opacity="0.7"/><line x1="-19.850" y1="6.530" x2="-19.850" y2="-6.530" stroke="#d24d4d" stroke-width="0.080" stroke-linecap="round" opacity="0.7"/><path d="M -19.600 -4.975 A 1.300 1.300 0 0 1 -18.300 -6.275" fill="none" stroke="#e6e9ef" stroke-width="0.12" opacity="1"/><path d="M -18.300 6.275 A 1.300 1.300 0 0 1 -19.600 4.975" fill="none" stroke="#e6e9ef" stroke-width="0.12" opacity="1"/><path d="M -12.320 -1.603 A 2.000 2.000 0 0 1 -10.350 -3.950" fill="none" stroke="#e6e9ef" stroke-width="0.12" opacity="1"/><path d="M -9.662 3.950 A 2.000 2.000 0 0 1 -11.632 2.297" fill="none" stroke="#e6e9ef" stroke-width="0.12" opacity="1"/><path d="M 10.350 -3.950 A 2.000 2.000 0 0 1 12.320 -1.603" fill="none" stroke="#e6e9ef" stroke-width="0.12" opacity="1"/><path d="M 11.632 2.297 A 2.000 2.000 0 0 1 9.662 3.950" fill="none" stroke="#e6e9ef" stroke-width="0.12" opacity="1"/><path d="M 18.300 -6.275 A 1.300 1.300 0 0 1 19.600 -4.975" fill="none" stroke="#e6e9ef" stroke-width="0.12" opacity="1"/><path d="M 19.600 4.975 A 1.300 1.300 0 0 1 18.300 6.275" fill="none" stroke="#e6e9ef" stroke-width="0.12" opacity="1"/><path d="M -19.600 -4.975 A 1.300 1.300 0 0 1 -18.300 -6.275" fill="none" stroke="#6b7280" stroke-width="0.12" opacity="0.8"/><path d="M -18.300 6.275 A 1.300 1.300 0 0 1 -19.600 4.975" fill="none" stroke="#6b7280" stroke-width="0.12" opacity="0.8"/><path d="M -12.320 -1.603 A 2.000 2.000 0 0 1 -10.350 -3.950" fill="none" stroke="#6b7280" stroke-width="0.12" opacity="0.8"/><path d="M -9.662 3.950 A 2.000 2.000 0 0 1 -11.632 2.297" fill="none" stroke="#6b7280" stroke-width="0.12" opacity="0.8"/><path d="M 10.350 -3.950 A 2.000 2.000 0 0 1 12.320 -1.603" fill="none" stroke="#6b7280" stroke-width="0.12" opacity="0.8"/><path d="M 11.632 2.297 A 2.000 2.000 0 0 1 9.662 3.950" fill="none" stroke="#6b7280" stroke-width="0.12" opacity="0.8"/><path d="M 18.300 -6.275 A 1.300 1.300 0 0 1 19.600 -4.975" fill="none" stroke="#6b7280" stroke-width="0.12" opacity="0.8"/><path d="M 19.600 4.975 A 1.300 1.300 0 0 1 18.300 6.275" fill="none" stroke="#6b7280" stroke-width="0.12" opacity="0.8"/><circle cx="-16.650" cy="0.000" r="2.100" fill="none" stroke="#4a5160" stroke-width="0.12" opacity="0.7"/><circle cx="-16.650" cy="0.000" r="1.550" fill="none" stroke="#4a5160" stroke-width="0.12" opacity="0.7"/><circle cx="-9.670" cy="-1.980" r="0.850" fill="none" stroke="#4a5160" stroke-width="0.12" opacity="0.7"/><circle cx="-9.670" cy="-1.980" r="0.500" fill="none" stroke="#4a5160" stroke-width="0.12" opacity="0.7"/><circle cx="-8.520" cy="0.000" r="0.850" fill="none" stroke="#4a5160" stroke-width="0.12" opacity="0.7"/><circle cx="-8.520" cy="0.000" r="0.500" fill="none" stroke="#4a5160" stroke-width="0.12" opacity="0.7"/><circle cx="-7.380" cy="-1.980" r="0.850" fill="none" stroke="#4a5160" stroke-width="0.12" opacity="0.7"/><circle cx="-7.380" cy="-1.980" r="0.500" fill="none" stroke="#4a5160" stroke-width="0.12" opacity="0.7"/><circle cx="-7.380" cy="1.980" r="0.850" fill="none" stroke="#4a5160" stroke-width="0.12" opacity="0.7"/><circle cx="-7.380" cy="1.980" r="0.500" fill="none" stroke="#4a5160" stroke-width="0.12" opacity="0.7"/><circle cx="-6.230" cy="0.000" r="0.850" fill="none" stroke="#4a5160" stroke-width="0.12" opacity="0.7"/><circle cx="-6.230" cy="0.000" r="0.500" fill="none" stroke="#4a5160" stroke-width="0.12" opacity="0.7"/><circle cx="-5.090" cy="-1.980" r="0.850" fill="none" stroke="#4a5160" stroke-width="0.12" opacity="0.7"/><circle cx="-5.090" cy="-1.980" r="0.500" fill="none" stroke="#4a5160" stroke-width="0.12" opacity="0.7"/><circle cx="-5.090" cy="1.980" r="0.850" fill="none" stroke="#4a5160" stroke-width="0.12" opacity="0.7"/><circle cx="-5.090" cy="1.980" r="0.500" fill="none" stroke="#4a5160" stroke-width="0.12" opacity="0.7"/><circle cx="-3.940" cy="0.000" r="0.850" fill="none" stroke="#4a5160" stroke-width="0.12" opacity="0.7"/><circle cx="-3.940" cy="0.000" r="0.500" fill="none" stroke="#4a5160" stroke-width="0.12" opacity="0.7"/><circle cx="-2.800" cy="-1.980" r="0.850" fill="none" stroke="#4a5160" stroke-width="0.12" opacity="0.7"/><circle cx="-2.800" cy="-1.980" r="0.500" fill="none" stroke="#4a5160" stroke-width="0.12" opacity="0.7"/><circle cx="-2.800" cy="1.980" r="0.850" fill="none" stroke="#4a5160" stroke-width="0.12" opacity="0.7"/><circle cx="-2.800" cy="1.980" r="0.500" fill="none" stroke="#4a5160" stroke-width="0.12" opacity="0.7"/><circle cx="-1.650" cy="0.000" r="0.850" fill="none" stroke="#4a5160" stroke-width="0.12" opacity="0.7"/><circle cx="-1.650" cy="0.000" r="0.500" fill="none" stroke="#4a5160" stroke-width="0.12" opacity="0.7"/><circle cx="-0.510" cy="-1.980" r="0.850" fill="none" stroke="#4a5160" stroke-width="0.12" opacity="0.7"/><circle cx="-0.510" cy="-1.980" r="0.500" fill="none" stroke="#4a5160" stroke-width="0.12" opacity="0.7"/><circle cx="-0.510" cy="1.980" r="0.850" fill="none" stroke="#4a5160" stroke-width="0.12" opacity="0.7"/><circle cx="-0.510" cy="1.980" r="0.500" fill="none" stroke="#4a5160" stroke-width="0.12" opacity="0.7"/><circle cx="0.640" cy="0.000" r="0.850" fill="none" stroke="#4a5160" stroke-width="0.12" opacity="0.7"/><circle cx="0.640" cy="0.000" r="0.500" fill="none" stroke="#4a5160" stroke-width="0.12" opacity="0.7"/><circle cx="1.780" cy="-1.980" r="0.850" fill="none" stroke="#4a5160" stroke-width="0.12" opacity="0.7"/><circle cx="1.780" cy="-1.980" r="0.500" fill="none" stroke="#4a5160" stroke-width="0.12" opacity="0.7"/><circle cx="1.780" cy="1.980" r="0.850" fill="none" stroke="#4a5160" stroke-width="0.12" opacity="0.7"/><circle cx="1.780" cy="1.980" r="0.500" fill="none" stroke="#4a5160" stroke-width="0.12" opacity="0.7"/><circle cx="2.930" cy="0.000" r="0.850" fill="none" stroke="#4a5160" stroke-width="0.12" opacity="0.7"/><circle cx="2.930" cy="0.000" r="0.500" fill="none" stroke="#4a5160" stroke-width="0.12" opacity="0.7"/><circle cx="4.070" cy="-1.980" r="0.850" fill="none" stroke="#4a5160" stroke-width="0.12" opacity="0.7"/><circle cx="4.070" cy="-1.980" r="0.500" fill="none" stroke="#4a5160" stroke-width="0.12" opacity="0.7"/><circle cx="4.070" cy="1.980" r="0.850" fill="none" stroke="#4a5160" stroke-width="0.12" opacity="0.7"/><circle cx="4.070" cy="1.980" r="0.500" fill="none" stroke="#4a5160" stroke-width="0.12" opacity="0.7"/><circle cx="5.220" cy="0.000" r="0.850" fill="none" stroke="#4a5160" stroke-width="0.12" opacity="0.7"/><circle cx="5.220" cy="0.000" r="0.500" fill="none" stroke="#4a5160" stroke-width="0.12" opacity="0.7"/><circle cx="6.360" cy="-1.980" r="0.850" fill="none" stroke="#4a5160" stroke-width="0.12" opacity="0.7"/><circle cx="6.360" cy="-1.980" r="0.500" fill="none" stroke="#4a5160" stroke-width="0.12" opacity="0.7"/><circle cx="6.360" cy="1.980" r="0.850" fill="none" stroke="#4a5160" stroke-width="0.12" opacity="0.7"/><circle cx="6.360" cy="1.980" r="0.500" fill="none" stroke="#4a5160" stroke-width="0.12" opacity="0.7"/><circle cx="7.510" cy="0.000" r="0.850" fill="none" stroke="#4a5160" stroke-width="0.12" opacity="0.7"/><circle cx="7.510" cy="0.000" r="0.500" fill="none" stroke="#4a5160" stroke-width="0.12" opacity="0.7"/><circle cx="8.650" cy="-1.980" r="0.850" fill="none" stroke="#4a5160" stroke-width="0.12" opacity="0.7"/><circle cx="8.650" cy="-1.980" r="0.500" fill="none" stroke="#4a5160" stroke-width="0.12" opacity="0.7"/><circle cx="8.650" cy="1.980" r="0.850" fill="none" stroke="#4a5160" stroke-width="0.12" opacity="0.7"/><circle cx="8.650" cy="1.980" r="0.500" fill="none" stroke="#4a5160" stroke-width="0.12" opacity="0.7"/><circle cx="9.800" cy="0.000" r="0.850" fill="none" stroke="#4a5160" stroke-width="0.12" opacity="0.7"/><circle cx="9.800" cy="0.000" r="0.500" fill="none" stroke="#4a5160" stroke-width="0.12" opacity="0.7"/><circle cx="16.650" cy="0.000" r="2.100" fill="none" stroke="#4a5160" stroke-width="0.12" opacity="0.7"/><circle cx="16.650" cy="0.000" r="1.550" fill="none" stroke="#4a5160" stroke-width="0.12" opacity="0.7"/><circle cx="-16.650" cy="0.000" r="1.950" fill="none" stroke="#6b7280" stroke-width="0.12" opacity="0.8"/><circle cx="-16.650" cy="0.000" r="1.550" fill="none" stroke="#6b7280" stroke-width="0.12" opacity="0.8"/><circle cx="-9.700" cy="-1.980" r="0.330" fill="none" stroke="#6b7280" stroke-width="0.12" opacity="0.8"/><circle cx="-8.550" cy="0.000" r="0.330" fill="none" stroke="#6b7280" stroke-width="0.12" opacity="0.8"/><circle cx="-7.410" cy="-1.980" r="0.330" fill="none" stroke="#6b7280" stroke-width="0.12" opacity="0.8"/><circle cx="-7.410" cy="1.980" r="0.330" fill="none" stroke="#6b7280" stroke-width="0.12" opacity="0.8"/><circle cx="-6.260" cy="0.000" r="0.330" fill="none" stroke="#6b7280" stroke-width="0.12" opacity="0.8"/><circle cx="-5.120" cy="-1.980" r="0.330" fill="none" stroke="#6b7280" stroke-width="0.12" opacity="0.8"/><circle cx="-5.120" cy="1.980" r="0.330" fill="none" stroke="#6b7280" stroke-width="0.12" opacity="0.8"/><circle cx="-3.970" cy="0.000" r="0.330" fill="none" stroke="#6b7280" stroke-width="0.12" opacity="0.8"/><circle cx="-2.830" cy="-1.980" r="0.330" fill="none" stroke="#6b7280" stroke-width="0.12" opacity="0.8"/><circle cx="-2.830" cy="1.980" r="0.330" fill="none" stroke="#6b7280" stroke-width="0.12" opacity="0.8"/><circle cx="-1.680" cy="0.000" r="0.330" fill="none" stroke="#6b7280" stroke-width="0.12" opacity="0.8"/><circle cx="-0.540" cy="-1.980" r="0.330" fill="none" stroke="#6b7280" stroke-width="0.12" opacity="0.8"/><circle cx="-0.540" cy="1.980" r="0.330" fill="none" stroke="#6b7280" stroke-width="0.12" opacity="0.8"/><circle cx="0.610" cy="0.000" r="0.330" fill="none" stroke="#6b7280" stroke-width="0.12" opacity="0.8"/><circle cx="1.750" cy="-1.980" r="0.330" fill="none" stroke="#6b7280" stroke-width="0.12" opacity="0.8"/><circle cx="1.750" cy="1.980" r="0.330" fill="none" stroke="#6b7280" stroke-width="0.12" opacity="0.8"/><circle cx="2.900" cy="0.000" r="0.330" fill="none" stroke="#6b7280" stroke-width="0.12" opacity="0.8"/><circle cx="4.040" cy="-1.980" r="0.330" fill="none" stroke="#6b7280" stroke-width="0.12" opacity="0.8"/><circle cx="4.040" cy="1.980" r="0.330" fill="none" stroke="#6b7280" stroke-width="0.12" opacity="0.8"/><circle cx="5.190" cy="0.000" r="0.330" fill="none" stroke="#6b7280" stroke-width="0.12" opacity="0.8"/><circle cx="6.330" cy="-1.980" r="0.330" fill="none" stroke="#6b7280" stroke-width="0.12" opacity="0.8"/><circle cx="6.330" cy="1.980" r="0.330" fill="none" stroke="#6b7280" stroke-width="0.12" opacity="0.8"/><circle cx="7.480" cy="0.000" r="0.330" fill="none" stroke="#6b7280" stroke-width="0.12" opacity="0.8"/><circle cx="8.620" cy="-1.980" r="0.330" fill="none" stroke="#6b7280" stroke-width="0.12" opacity="0.8"/><circle cx="8.620" cy="1.980" r="0.330" fill="none" stroke="#6b7280" stroke-width="0.12" opacity="0.8"/><circle cx="9.770" cy="0.000" r="0.330" fill="none" stroke="#6b7280" stroke-width="0.12" opacity="0.8"/><circle cx="16.650" cy="0.000" r="1.950" fill="none" stroke="#6b7280" stroke-width="0.12" opacity="0.8"/><circle cx="16.650" cy="0.000" r="1.550" fill="none" stroke="#6b7280" stroke-width="0.12" opacity="0.8"/><rect x="7.800" y="-2.830" width="1.700" height="1.700" rx="0.850" fill="#c79b5c"/><circle cx="8.650" cy="-1.980" r="0.500" fill="#12151c"/><rect x="5.510" y="-2.830" width="1.700" height="1.700" rx="0.850" fill="#c79b5c"/><circle cx="6.360" cy="-1.980" r="0.500" fill="#12151c"/><rect x="3.220" y="-2.830" width="1.700" height="1.700" rx="0.850" fill="#c79b5c"/><circle cx="4.070" cy="-1.980" r="0.500" fill="#12151c"/><rect x="0.930" y="-2.830" width="1.700" height="1.700" rx="0.850" fill="#c79b5c"/><circle cx="1.780" cy="-1.980" r="0.500" fill="#12151c"/><rect x="-1.360" y="-2.830" width="1.700" height="1.700" rx="0.850" fill="#c79b5c"/><circle cx="-0.510" cy="-1.980" r="0.500" fill="#12151c"/><rect x="-3.650" y="-2.830" width="1.700" height="1.700" rx="0.850" fill="#c79b5c"/><circle cx="-2.800" cy="-1.980" r="0.500" fill="#12151c"/><rect x="-5.940" y="-2.830" width="1.700" height="1.700" rx="0.850" fill="#c79b5c"/><circle cx="-5.090" cy="-1.980" r="0.500" fill="#12151c"/><rect x="-8.230" y="-2.830" width="1.700" height="1.700" rx="0.850" fill="#c79b5c"/><circle cx="-7.380" cy="-1.980" r="0.500" fill="#12151c"/><rect x="-10.520" y="-2.830" width="1.700" height="1.700" rx="0.850" fill="#c79b5c"/><circle cx="-9.670" cy="-1.980" r="0.500" fill="#12151c"/><rect x="8.950" y="-0.850" width="1.700" height="1.700" rx="0.850" fill="#c79b5c"/><circle cx="9.800" cy="0.000" r="0.500" fill="#12151c"/><rect x="6.660" y="-0.850" width="1.700" height="1.700" rx="0.850" fill="#c79b5c"/><circle cx="7.510" cy="0.000" r="0.500" fill="#12151c"/><rect x="4.370" y="-0.850" width="1.700" height="1.700" rx="0.850" fill="#c79b5c"/><circle cx="5.220" cy="0.000" r="0.500" fill="#12151c"/><rect x="2.080" y="-0.850" width="1.700" height="1.700" rx="0.850" fill="#c79b5c"/><circle cx="2.930" cy="0.000" r="0.500" fill="#12151c"/><rect x="-0.210" y="-0.850" width="1.700" height="1.700" rx="0.850" fill="#c79b5c"/><circle cx="0.640" cy="0.000" r="0.500" fill="#12151c"/><rect x="-2.500" y="-0.850" width="1.700" height="1.700" rx="0.850" fill="#c79b5c"/><circle cx="-1.650" cy="0.000" r="0.500" fill="#12151c"/><rect x="-4.790" y="-0.850" width="1.700" height="1.700" rx="0.850" fill="#c79b5c"/><circle cx="-3.940" cy="0.000" r="0.500" fill="#12151c"/><rect x="-7.080" y="-0.850" width="1.700" height="1.700" rx="0.850" fill="#c79b5c"/><circle cx="-6.230" cy="0.000" r="0.500" fill="#12151c"/><rect x="-9.370" y="-0.850" width="1.700" height="1.700" rx="0.850" fill="#c79b5c"/><circle cx="-8.520" cy="0.000" r="0.500" fill="#12151c"/><rect x="7.800" y="1.130" width="1.700" height="1.700" rx="0.850" fill="#c79b5c"/><circle cx="8.650" cy="1.980" r="0.500" fill="#12151c"/><rect x="5.510" y="1.130" width="1.700" height="1.700" rx="0.850" fill="#c79b5c"/><circle cx="6.360" cy="1.980" r="0.500" fill="#12151c"/><rect x="3.220" y="1.130" width="1.700" height="1.700" rx="0.850" fill="#c79b5c"/><circle cx="4.070" cy="1.980" r="0.500" fill="#12151c"/><rect x="0.930" y="1.130" width="1.700" height="1.700" rx="0.850" fill="#c79b5c"/><circle cx="1.780" cy="1.980" r="0.500" fill="#12151c"/><rect x="-1.360" y="1.130" width="1.700" height="1.700" rx="0.850" fill="#c79b5c"/><circle cx="-0.510" cy="1.980" r="0.500" fill="#12151c"/><rect x="-3.650" y="1.130" width="1.700" height="1.700" rx="0.850" fill="#c79b5c"/><circle cx="-2.800" cy="1.980" r="0.500" fill="#12151c"/><rect x="-5.940" y="1.130" width="1.700" height="1.700" rx="0.850" fill="#c79b5c"/><circle cx="-5.090" cy="1.980" r="0.500" fill="#12151c"/><rect x="-8.230" y="1.130" width="1.700" height="1.700" rx="0.850" fill="#c79b5c"/><circle cx="-7.380" cy="1.980" r="0.500" fill="#12151c"/><rect x="14.550" y="-2.100" width="4.200" height="4.200" rx="2.100" fill="#c79b5c"/><circle cx="16.650" cy="0.000" r="1.550" fill="#12151c"/><rect x="-18.750" y="-2.100" width="4.200" height="4.200" rx="2.100" fill="#c79b5c"/><circle cx="-16.650" cy="0.000" r="1.550" fill="#12151c"/></svg>