<svg xmlns="http://www.w3.org/2000/svg" viewBox="-2.38 -1.96 4.33 3.92" preserveAspectRatio="xMidYMid meet" style="width:100%;height:100%"><rect x="-2.38" y="-1.96" width="4.33" height="3.92" fill="#12151c"/><line x1="-0.650" y1="-0.650" x2="0.650" y2="-0.650" stroke="#e6e9ef" stroke-width="0.200" stroke-linecap="round" opacity="1"/><line x1="-0.650" y1="0.650" x2="-0.650" y2="-0.650" stroke="#e6e9ef" stroke-width="0.200" stroke-linecap="round" opacity="1"/><line x1="-0.650" y1="0.650" x2="0.650" y2="0.650" stroke="#e6e9ef" stroke-width="0.200" stroke-linecap="round" opacity="1"/><line x1="0.650" y1="0.650" x2="0.650" y2="-0.650" stroke="#e6e9ef" stroke-width="0.200" stroke-linecap="round" opacity="1"/><line x1="-0.960" y1="-0.960" x2="0.960" y2="-0.960" stroke="#d24d4d" stroke-width="0.080" stroke-linecap="round" opacity="0.7"/><line x1="-0.960" y1="0.960" x2="-0.960" y2="-0.960" stroke="#d24d4d" stroke-width="0.080" stroke-linecap="round" opacity="0.7"/><line x1="-0.960" y1="0.960" x2="0.960" y2="0.960" stroke="#d24d4d" stroke-width="0.080" stroke-linecap="round" opacity="0.7"/><line x1="0.960" y1="0.960" x2="0.960" y2="-0.960" stroke="#d24d4d" stroke-width="0.080" stroke-linecap="round" opacity="0.7"/><line x1="-0.442" y1="-0.442" x2="0.442" y2="-0.442" stroke="#6b7280" stroke-width="0.100" stroke-linecap="round" opacity="0.8"/><line x1="-0.442" y1="0.442" x2="0.442" y2="0.442" stroke="#6b7280" stroke-width="0.100" stroke-linecap="round" opacity="0.8"/><line x1="-0.442" y1="0.462" x2="-0.442" y2="-0.442" stroke="#6b7280" stroke-width="0.100" stroke-linecap="round" opacity="0.8"/><line x1="-0.442" y1="0.462" x2="0.460" y2="-0.440" stroke="#6b7280" stroke-width="0.100" stroke-linecap="round" opacity="0.8"/><line x1="-0.440" y1="-0.340" x2="-0.340" y2="-0.440" stroke="#6b7280" stroke-width="0.100" stroke-linecap="round" opacity="0.8"/><line x1="-0.440" y1="-0.240" x2="-0.240" y2="-0.440" stroke="#6b7280" stroke-width="0.100" stroke-linecap="round" opacity="0.8"/><line x1="-0.440" y1="-0.140" x2="-0.140" y2="-0.440" stroke="#6b7280" stroke-width="0.100" stroke-linecap="round" opacity="0.8"/><line x1="-0.440" y1="-0.040" x2="-0.040" y2="-0.440" stroke="#6b7280" stroke-width="0.100" stroke-linecap="round" opacity="0.8"/><line x1="-0.440" y1="0.060" x2="0.060" y2="-0.440" stroke="#6b7280" stroke-width="0.100" stroke-linecap="round" opacity="0.8"/><line x1="-0.440" y1="0.160" x2="0.160" y2="-0.440" stroke="#6b7280" stroke-width="0.100" stroke-linecap="round" opacity="0.8"/><line x1="-0.440" y1="0.260" x2="0.260" y2="-0.440" stroke="#6b7280" stroke-width="0.100" stroke-linecap="round" opacity="0.8"/><line x1="-0.440" y1="0.360" x2="0.360" y2="-0.440" stroke="#6b7280" stroke-width="0.100" stroke-linecap="round" opacity="0.8"/><line x1="0.442" y1="0.442" x2="0.442" y2="-0.442" stroke="#6b7280" stroke-width="0.100" stroke-linecap="round" opacity="0.8"/><circle cx="-1.250" cy="-0.200" r="0.150" fill="#e6e9ef" opacity="1"/><rect x="-0.300" y="-0.300" width="0.200" height="0.200" rx="0.100" fill="#c79b5c"/><rect x="0.100" y="-0.300" width="0.200" height="0.200" rx="0.100" fill="#c79b5c"/><rect x="-0.300" y="0.100" width="0.200" height="0.200" rx="0.100" fill="#c79b5c"/><rect x="0.100" y="0.100" width="0.200" height="0.200" rx="0.100" fill="#c79b5c"/></svg>