<svg xmlns="http://www.w3.org/2000/svg" viewBox="-18.69 -5.20 37.38 11.05" preserveAspectRatio="xMidYMid meet" style="width:100%;height:100%"><rect x="-18.69" y="-5.20" width="37.38" height="11.05" fill="#12151c"/><path d="M -16.422 4.769 A 0.150 0.150 0 0 1 -16.400 4.847" fill="none" stroke="#e6e9ef" stroke-width="0.12" opacity="1"/><path d="M 16.400 4.847 A 0.150 0.150 0 0 1 16.422 4.769" fill="none" stroke="#e6e9ef" stroke-width="0.12" opacity="1"/><path d="M -17.690 2.457 A 0.500 0.500 0 0 1 -17.511 2.074" fill="none" stroke="#6b7280" stroke-width="0.12" opacity="0.8"/><path d="M -17.490 2.457 A 0.300 0.300 0 0 1 -17.383 2.227" fill="none" stroke="#6b7280" stroke-width="0.12" opacity="0.8"/><path d="M -17.228 3.185 A 0.500 0.500 0 0 1 -17.690 2.687" fill="none" stroke="#6b7280" stroke-width="0.12" opacity="0.8"/><path d="M -17.213 2.986 A 0.300 0.300 0 0 1 -17.490 2.687" fill="none" stroke="#6b7280" stroke-width="0.12" opacity="0.8"/><path d="M -16.700 3.225 A 0.300 0.300 0 0 1 -16.400 3.525" fill="none" stroke="#6b7280" stroke-width="0.12" opacity="0.8"/><path d="M -16.422 4.769 A 0.150 0.150 0 0 1 -16.400 4.847" fill="none" stroke="#6b7280" stroke-width="0.12" opacity="0.8"/><path d="M -16.301 3.225 A 0.500 0.500 0 0 1 -16.200 3.527" fill="none" stroke="#6b7280" stroke-width="0.12" opacity="0.8"/><path d="M -16.028 -0.945 A 0.130 0.130 0 0 1 -15.898 -1.075" fill="none" stroke="#6b7280" stroke-width="0.12" opacity="0.8"/><path d="M -15.998 -0.253 A 0.350 0.350 0 0 1 -16.028 -0.395" fill="none" stroke="#6b7280" stroke-width="0.12" opacity="0.8"/><path d="M -15.200 -2.725 A 0.200 0.200 0 0 1 -14.800 -2.725" fill="none" stroke="#6b7280" stroke-width="0.12" opacity="0.8"/><path d="M -15.129 1.703 A 0.350 0.350 0 0 1 -15.098 1.845" fill="none" stroke="#6b7280" stroke-width="0.12" opacity="0.8"/><path d="M -15.098 2.595 A 0.350 0.350 0 0 1 -15.448 2.945" fill="none" stroke="#6b7280" stroke-width="0.12" opacity="0.8"/><path d="M -13.950 -2.725 A 0.200 0.200 0 1 1 -13.550 -2.725" fill="none" stroke="#6b7280" stroke-width="0.12" opacity="0.8"/><path d="M -12.700 -2.725 A 0.200 0.200 0 0 1 -12.300 -2.725" fill="none" stroke="#6b7280" stroke-width="0.12" opacity="0.8"/><path d="M -11.450 -2.725 A 0.200 0.200 0 0 1 -11.050 -2.725" fill="none" stroke="#6b7280" stroke-width="0.12" opacity="0.8"/><path d="M -10.200 -2.725 A 0.200 0.200 0 0 1 -9.800 -2.725" fill="none" stroke="#6b7280" stroke-width="0.12" opacity="0.8"/><path d="M -8.950 -2.725 A 0.200 0.200 0 1 1 -8.550 -2.725" fill="none" stroke="#6b7280" stroke-width="0.12" opacity="0.8"/><path d="M -7.700 -2.725 A 0.200 0.200 0 0 1 -7.300 -2.725" fill="none" stroke="#6b7280" stroke-width="0.12" opacity="0.8"/><path d="M -6.450 -2.725 A 0.200 0.200 0 0 1 -6.050 -2.725" fill="none" stroke="#6b7280" stroke-width="0.12" opacity="0.8"/><path d="M -5.200 -2.725 A 0.200 0.200 0 1 1 -4.800 -2.725" fill="none" stroke="#6b7280" stroke-width="0.12" opacity="0.8"/><path d="M -3.950 -2.725 A 0.200 0.200 0 0 1 -3.550 -2.725" fill="none" stroke="#6b7280" stroke-width="0.12" opacity="0.8"/><path d="M -2.700 -2.725 A 0.200 0.200 0 1 1 -2.300 -2.725" fill="none" stroke="#6b7280" stroke-width="0.12" opacity="0.8"/><path d="M -1.450 -2.725 A 0.200 0.200 0 1 1 -1.050 -2.725" fill="none" stroke="#6b7280" stroke-width="0.12" opacity="0.8"/><path d="M -0.200 -2.725 A 0.200 0.200 0 1 1 0.200 -2.725" fill="none" stroke="#6b7280" stroke-width="0.12" opacity="0.8"/><path d="M 1.050 -2.725 A 0.200 0.200 0 1 1 1.450 -2.725" fill="none" stroke="#6b7280" stroke-width="0.12" opacity="0.8"/><path d="M 2.300 -2.725 A 0.200 0.200 0 1 1 2.700 -2.725" fill="none" stroke="#6b7280" stroke-width="0.12" opacity="0.8"/><path d="M 3.550 -2.725 A 0.200 0.200 0 0 1 3.950 -2.725" fill="none" stroke="#6b7280" stroke-width="0.12" opacity="0.8"/><path d="M 4.800 -2.725 A 0.200 0.200 0 1 1 5.200 -2.725" fill="none" stroke="#6b7280" stroke-width="0.12" opacity="0.8"/><path d="M 6.050 -2.725 A 0.200 0.200 0 0 1 6.450 -2.725" fill="none" stroke="#6b7280" stroke-width="0.12" opacity="0.8"/><path d="M 7.300 -2.725 A 0.200 0.200 0 0 1 7.700 -2.725" fill="none" stroke="#6b7280" stroke-width="0.12" opacity="0.8"/><path d="M 8.550 -2.725 A 0.200 0.200 0 1 1 8.950 -2.725" fill="none" stroke="#6b7280" stroke-width="0.12" opacity="0.8"/><path d="M 9.800 -2.725 A 0.200 0.200 0 0 1 10.200 -2.725" fill="none" stroke="#6b7280" stroke-width="0.12" opacity="0.8"/><path d="M 11.050 -2.725 A 0.200 0.200 0 0 1 11.450 -2.725" fill="none" stroke="#6b7280" stroke-width="0.12" opacity="0.8"/><path d="M 12.300 -2.725 A 0.200 0.200 0 0 1 12.700 -2.725" fill="none" stroke="#6b7280" stroke-width="0.12" opacity="0.8"/><path d="M 13.550 -2.725 A 0.200 0.200 0 1 1 13.950 -2.725" fill="none" stroke="#6b7280" stroke-width="0.12" opacity="0.8"/><path d="M 14.800 -2.725 A 0.200 0.200 0 0 1 15.200 -2.725" fill="none" stroke="#6b7280" stroke-width="0.12" opacity="0.8"/><path d="M 15.098 1.845 A 0.350 0.350 0 0 1 15.129 1.703" fill="none" stroke="#6b7280" stroke-width="0.12" opacity="0.8"/><path d="M 15.448 2.945 A 0.350 0.350 0 0 1 15.098 2.595" fill="none" stroke="#6b7280" stroke-width="0.12" opacity="0.8"/><path d="M 15.898 -1.075 A 0.130 0.130 0 0 1 16.028 -0.945" fill="none" stroke="#6b7280" stroke-width="0.12" opacity="0.8"/><path d="M 16.028 -0.395 A 0.350 0.350 0 0 1 15.998 -0.253" fill="none" stroke="#6b7280" stroke-width="0.12" opacity="0.8"/><path d="M 16.200 3.527 A 0.500 0.500 0 0 1 16.301 3.225" fill="none" stroke="#6b7280" stroke-width="0.12" opacity="0.8"/><path d="M 16.400 3.525 A 0.300 0.300 0 0 1 16.700 3.225" fill="none" stroke="#6b7280" stroke-width="0.12" opacity="0.8"/><path d="M 16.400 4.847 A 0.150 0.150 0 0 1 16.422 4.769" fill="none" stroke="#6b7280" stroke-width="0.12" opacity="0.8"/><path d="M 17.383 2.227 A 0.300 0.300 0 0 1 17.490 2.457" fill="none" stroke="#6b7280" stroke-width="0.12" opacity="0.8"/><path d="M 17.490 2.687 A 0.300 0.300 0 0 1 17.213 2.986" fill="none" stroke="#6b7280" stroke-width="0.12" opacity="0.8"/><path d="M 17.511 2.074 A 0.500 0.500 0 0 1 17.690 2.457" fill="none" stroke="#6b7280" stroke-width="0.12" opacity="0.8"/><path d="M 17.690 2.687 A 0.500 0.500 0 0 1 17.228 3.185" fill="none" stroke="#6b7280" stroke-width="0.12" opacity="0.8"/><circle cx="15.000" cy="-4.050" r="0.150" fill="none" stroke="#e6e9ef" stroke-width="0.12" opacity="1"/><circle cx="15.000" cy="-4.050" r="0.150" fill="none" stroke="#6b7280" stroke-width="0.12" opacity="0.8"/><rect x="14.475" y="-3.375" width="1.050" height="1.300" rx="0.525" fill="#c79b5c"/><circle cx="15.000" cy="-2.725" r="0.275" fill="#12151c"/><rect x="14.475" y="-2.125" width="1.050" height="1.300" rx="0.525" fill="#c79b5c"/><circle cx="15.000" cy="-1.475" r="0.275" fill="#12151c"/><rect x="13.225" y="-3.375" width="1.050" height="1.300" rx="0.525" fill="#c79b5c"/><circle cx="13.750" cy="-2.725" r="0.275" fill="#12151c"/><rect x="13.225" y="-2.125" width="1.050" height="1.300" rx="0.525" fill="#c79b5c"/><circle cx="13.750" cy="-1.475" r="0.275" fill="#12151c"/><rect x="11.975" y="-3.375" width="1.050" height="1.300" rx="0.525" fill="#c79b5c"/><circle cx="12.500" cy="-2.725" r="0.275" fill="#12151c"/><rect x="11.975" y="-2.125" width="1.050" height="1.300" rx="0.525" fill="#c79b5c"/><circle cx="12.500" cy="-1.475" r="0.275" fill="#12151c"/><rect x="10.725" y="-3.375" width="1.050" height="1.300" rx="0.525" fill="#c79b5c"/><circle cx="11.250" cy="-2.725" r="0.275" fill="#12151c"/><rect x="10.725" y="-2.125" width="1.050" height="1.300" rx="0.525" fill="#c79b5c"/><circle cx="11.250" cy="-1.475" r="0.275" fill="#12151c"/><rect x="9.475" y="-3.375" width="1.050" height="1.300" rx="0.525" fill="#c79b5c"/><circle cx="10.000" cy="-2.725" r="0.275" fill="#12151c"/><rect x="9.475" y="-2.125" width="1.050" height="1.300" rx="0.525" fill="#c79b5c"/><circle cx="10.000" cy="-1.475" r="0.275" fill="#12151c"/><rect x="8.225" y="-3.375" width="1.050" height="1.300" rx="0.525" fill="#c79b5c"/><circle cx="8.750" cy="-2.725" r="0.275" fill="#12151c"/><rect x="8.225" y="-2.125" width="1.050" height="1.300" rx="0.525" fill="#c79b5c"/><circle cx="8.750" cy="-1.475" r="0.275" fill="#12151c"/><rect x="6.975" y="-3.375" width="1.050" height="1.300" rx="0.525" fill="#c79b5c"/><circle cx="7.500" cy="-2.725" r="0.275" fill="#12151c"/><rect x="6.975" y="-2.125" width="1.050" height="1.300" rx="0.525" fill="#c79b5c"/><circle cx="7.500" cy="-1.475" r="0.275" fill="#12151c"/><rect x="5.725" y="-3.375" width="1.050" height="1.300" rx="0.525" fill="#c79b5c"/><circle cx="6.250" cy="-2.725" r="0.275" fill="#12151c"/><rect x="5.725" y="-2.125" width="1.050" height="1.300" rx="0.525" fill="#c79b5c"/><circle cx="6.250" cy="-1.475" r="0.275" fill="#12151c"/><rect x="4.475" y="-3.375" width="1.050" height="1.300" rx="0.525" fill="#c79b5c"/><circle cx="5.000" cy="-2.725" r="0.275" fill="#12151c"/><rect x="4.475" y="-2.125" width="1.050" height="1.300" rx="0.525" fill="#c79b5c"/><circle cx="5.000" cy="-1.475" r="0.275" fill="#12151c"/><rect x="3.225" y="-3.375" width="1.050" height="1.300" rx="0.525" fill="#c79b5c"/><circle cx="3.750" cy="-2.725" r="0.275" fill="#12151c"/><rect x="3.225" y="-2.125" width="1.050" height="1.300" rx="0.525" fill="#c79b5c"/><circle cx="3.750" cy="-1.475" r="0.275" fill="#12151c"/><rect x="1.975" y="-3.375" width="1.050" height="1.300" rx="0.525" fill="#c79b5c"/><circle cx="2.500" cy="-2.725" r="0.275" fill="#12151c"/><rect x="1.975" y="-2.125" width="1.050" height="1.300" rx="0.525" fill="#c79b5c"/><circle cx="2.500" cy="-1.475" r="0.275" fill="#12151c"/><rect x="0.725" y="-3.375" width="1.050" height="1.300" rx="0.525" fill="#c79b5c"/><circle cx="1.250" cy="-2.725" r="0.275" fill="#12151c"/><rect x="0.725" y="-2.125" width="1.050" height="1.300" rx="0.525" fill="#c79b5c"/><circle cx="1.250" cy="-1.475" r="0.275" fill="#12151c"/><rect x="-0.525" y="-3.375" width="1.050" height="1.300" rx="0.525" fill="#c79b5c"/><circle cx="0.000" cy="-2.725" r="0.275" fill="#12151c"/><rect x="-0.525" y="-2.125" width="1.050" height="1.300" rx="0.525" fill="#c79b5c"/><circle cx="0.000" cy="-1.475" r="0.275" fill="#12151c"/><rect x="-1.775" y="-3.375" width="1.050" height="1.300" rx="0.525" fill="#c79b5c"/><circle cx="-1.250" cy="-2.725" r="0.275" fill="#12151c"/><rect x="-1.775" y="-2.125" width="1.050" height="1.300" rx="0.525" fill="#c79b5c"/><circle cx="-1.250" cy="-1.475" r="0.275" fill="#12151c"/><rect x="-3.025" y="-3.375" width="1.050" height="1.300" rx="0.525" fill="#c79b5c"/><circle cx="-2.500" cy="-2.725" r="0.275" fill="#12151c"/><rect x="-3.025" y="-2.125" width="1.050" height="1.300" rx="0.525" fill="#c79b5c"/><circle cx="-2.500" cy="-1.475" r="0.275" fill="#12151c"/><rect x="-4.275" y="-3.375" width="1.050" height="1.300" rx="0.525" fill="#c79b5c"/><circle cx="-3.750" cy="-2.725" r="0.275" fill="#12151c"/><rect x="-4.275" y="-2.125" width="1.050" height="1.300" rx="0.525" fill="#c79b5c"/><circle cx="-3.750" cy="-1.475" r="0.275" fill="#12151c"/><rect x="-5.525" y="-3.375" width="1.050" height="1.300" rx="0.525" fill="#c79b5c"/><circle cx="-5.000" cy="-2.725" r="0.275" fill="#12151c"/><rect x="-5.525" y="-2.125" width="1.050" height="1.300" rx="0.525" fill="#c79b5c"/><circle cx="-5.000" cy="-1.475" r="0.275" fill="#12151c"/><rect x="-6.775" y="-3.375" width="1.050" height="1.300" rx="0.525" fill="#c79b5c"/><circle cx="-6.250" cy="-2.725" r="0.275" fill="#12151c"/><rect x="-6.775" y="-2.125" width="1.050" height="1.300" rx="0.525" fill="#c79b5c"/><circle cx="-6.250" cy="-1.475" r="0.275" fill="#12151c"/><rect x="-8.025" y="-3.375" width="1.050" height="1.300" rx="0.525" fill="#c79b5c"/><circle cx="-7.500" cy="-2.725" r="0.275" fill="#12151c"/><rect x="-8.025" y="-2.125" width="1.050" height="1.300" rx="0.525" fill="#c79b5c"/><circle cx="-7.500" cy="-1.475" r="0.275" fill="#12151c"/><rect x="-9.275" y="-3.375" width="1.050" height="1.300" rx="0.525" fill="#c79b5c"/><circle cx="-8.750" cy="-2.725" r="0.275" fill="#12151c"/><rect x="-9.275" y="-2.125" width="1.050" height="1.300" rx="0.525" fill="#c79b5c"/><circle cx="-8.750" cy="-1.475" r="0.275" fill="#12151c"/><rect x="-10.525" y="-3.375" width="1.050" height="1.300" rx="0.525" fill="#c79b5c"/><circle cx="-10.000" cy="-2.725" r="0.275" fill="#12151c"/><rect x="-10.525" y="-2.125" width="1.050" height="1.300" rx="0.525" fill="#c79b5c"/><circle cx="-10.000" cy="-1.475" r="0.275" fill="#12151c"/><rect x="-11.775" y="-3.375" width="1.050" height="1.300" rx="0.525" fill="#c79b5c"/><circle cx="-11.250" cy="-2.725" r="0.275" fill="#12151c"/><rect x="-11.775" y="-2.125" width="1.050" height="1.300" rx="0.525" fill="#c79b5c"/><circle cx="-11.250" cy="-1.475" r="0.275" fill="#12151c"/><rect x="-13.025" y="-3.375" width="1.050" height="1.300" rx="0.525" fill="#c79b5c"/><circle cx="-12.500" cy="-2.725" r="0.275" fill="#12151c"/><rect x="-13.025" y="-2.125" width="1.050" height="1.300" rx="0.525" fill="#c79b5c"/><circle cx="-12.500" cy="-1.475" r="0.275" fill="#12151c"/><rect x="-14.275" y="-3.375" width="1.050" height="1.300" rx="0.525" fill="#c79b5c"/><circle cx="-13.750" cy="-2.725" r="0.275" fill="#12151c"/><rect x="-14.275" y="-2.125" width="1.050" height="1.300" rx="0.525" fill="#c79b5c"/><circle cx="-13.750" cy="-1.475" r="0.275" fill="#12151c"/><rect x="-15.525" y="-3.375" width="1.050" height="1.300" rx="0.525" fill="#c79b5c"/><circle cx="-15.000" cy="-2.725" r="0.275" fill="#12151c"/><rect x="-15.525" y="-2.125" width="1.050" height="1.300" rx="0.525" fill="#c79b5c"/><circle cx="-15.000" cy="-1.475" r="0.275" fill="#12151c"/><rect x="15.250" y="-0.125" width="2.000" height="3.200" rx="0.000" fill="#c79b5c"/><rect x="-17.250" y="-0.125" width="2.000" height="3.200" rx="0.000" fill="#c79b5c"/></svg>