<svg xmlns="http://www.w3.org/2000/svg" viewBox="-3.30 -3.58 6.07 7.15" preserveAspectRatio="xMidYMid meet" style="width:100%;height:100%"><rect x="-3.30" y="-3.58" width="6.07" height="7.15" fill="#12151c"/><path d="M -1.675 -2.375 A 0.200 0.200 0 0 1 -1.475 -2.575" fill="none" stroke="#e6e9ef" stroke-width="0.12" opacity="1"/><path d="M -1.615 -0.165 A 0.105 0.105 0 0 1 -1.515 -0.092" fill="none" stroke="#e6e9ef" stroke-width="0.12" opacity="1"/><path d="M -1.515 0.092 A 0.105 0.105 0 0 1 -1.615 0.165" fill="none" stroke="#e6e9ef" stroke-width="0.12" opacity="1"/><path d="M -1.475 2.575 A 0.200 0.200 0 0 1 -1.675 2.375" fill="none" stroke="#e6e9ef" stroke-width="0.12" opacity="1"/><path d="M 1.475 -2.575 A 0.200 0.200 0 0 1 1.675 -2.375" fill="none" stroke="#e6e9ef" stroke-width="0.12" opacity="1"/><path d="M 1.515 -0.092 A 0.105 0.105 0 0 1 1.615 -0.165" fill="none" stroke="#e6e9ef" stroke-width="0.12" opacity="1"/><path d="M 1.615 0.165 A 0.105 0.105 0 0 1 1.515 0.092" fill="none" stroke="#e6e9ef" stroke-width="0.12" opacity="1"/><path d="M 1.675 2.375 A 0.200 0.200 0 0 1 1.475 2.575" fill="none" stroke="#e6e9ef" stroke-width="0.12" opacity="1"/><path d="M -1.675 -2.375 A 0.200 0.200 0 0 1 -1.475 -2.575" fill="none" stroke="#6b7280" stroke-width="0.12" opacity="0.8"/><path d="M -1.615 -1.435 A 0.105 0.105 0 0 1 -1.515 -1.362" fill="none" stroke="#6b7280" stroke-width="0.12" opacity="0.8"/><path d="M -1.615 -0.165 A 0.105 0.105 0 0 1 -1.515 -0.092" fill="none" stroke="#6b7280" stroke-width="0.12" opacity="0.8"/><path d="M -1.615 1.105 A 0.105 0.105 0 0 1 -1.515 1.178" fill="none" stroke="#6b7280" stroke-width="0.12" opacity="0.8"/><path d="M -1.515 -1.178 A 0.105 0.105 0 0 1 -1.615 -1.105" fill="none" stroke="#6b7280" stroke-width="0.12" opacity="0.8"/><path d="M -1.515 0.092 A 0.105 0.105 0 0 1 -1.615 0.165" fill="none" stroke="#6b7280" stroke-width="0.12" opacity="0.8"/><path d="M -1.515 1.362 A 0.105 0.105 0 0 1 -1.615 1.435" fill="none" stroke="#6b7280" stroke-width="0.12" opacity="0.8"/><path d="M -1.475 -2.175 A 0.200 0.200 0 0 1 -1.275 -2.375" fill="none" stroke="#6b7280" stroke-width="0.12" opacity="0.8"/><path d="M -1.475 2.575 A 0.200 0.200 0 0 1 -1.675 2.375" fill="none" stroke="#6b7280" stroke-width="0.12" opacity="0.8"/><path d="M -1.275 2.375 A 0.200 0.200 0 0 1 -1.475 2.175" fill="none" stroke="#6b7280" stroke-width="0.12" opacity="0.8"/><path d="M 1.275 -2.375 A 0.200 0.200 0 0 1 1.475 -2.175" fill="none" stroke="#6b7280" stroke-width="0.12" opacity="0.8"/><path d="M 1.475 -2.575 A 0.200 0.200 0 0 1 1.675 -2.375" fill="none" stroke="#6b7280" stroke-width="0.12" opacity="0.8"/><path d="M 1.475 2.175 A 0.200 0.200 0 0 1 1.275 2.375" fill="none" stroke="#6b7280" stroke-width="0.12" opacity="0.8"/><path d="M 1.515 -1.362 A 0.105 0.105 0 0 1 1.615 -1.435" fill="none" stroke="#6b7280" stroke-width="0.12" opacity="0.8"/><path d="M 1.515 -0.092 A 0.105 0.105 0 0 1 1.615 -0.165" fill="none" stroke="#6b7280" stroke-width="0.12" opacity="0.8"/><path d="M 1.515 1.178 A 0.105 0.105 0 0 1 1.615 1.105" fill="none" stroke="#6b7280" stroke-width="0.12" opacity="0.8"/><path d="M 1.615 -1.105 A 0.105 0.105 0 0 1 1.515 -1.178" fill="none" stroke="#6b7280" stroke-width="0.12" opacity="0.8"/><path d="M 1.615 0.165 A 0.105 0.105 0 0 1 1.515 0.092" fill="none" stroke="#6b7280" stroke-width="0.12" opacity="0.8"/><path d="M 1.615 1.435 A 0.105 0.105 0 0 1 1.515 1.362" fill="none" stroke="#6b7280" stroke-width="0.12" opacity="0.8"/><path d="M 1.675 2.375 A 0.200 0.200 0 0 1 1.475 2.575" fill="none" stroke="#6b7280" stroke-width="0.12" opacity="0.8"/><circle cx="-2.175" cy="-2.315" r="0.125" fill="none" stroke="#e6e9ef" stroke-width="0.12" opacity="1"/><circle cx="-0.700" cy="-1.360" r="0.500" fill="none" stroke="#6b7280" stroke-width="0.12" opacity="0.8"/><rect x="-1.770" y="-1.890" width="1.290" height="1.240" rx="0.000" fill="#c79b5c"/><rect x="-1.770" y="0.650" width="1.290" height="1.240" rx="0.000" fill="#c79b5c"/><rect x="0.480" y="0.650" width="1.290" height="1.240" rx="0.000" fill="#c79b5c"/><rect x="0.480" y="-1.890" width="1.290" height="1.240" rx="0.000" fill="#c79b5c"/></svg>