<svg xmlns="http://www.w3.org/2000/svg" viewBox="-6.58 -1.50 36.02 13.16" preserveAspectRatio="xMidYMid meet" style="width:100%;height:100%"><rect x="-6.58" y="-1.50" width="36.02" height="13.16" fill="#12151c"/><rect x="5.461" y="4.572" width="2.032" height="0.254" fill="#1e222b" stroke="#4ea1ff" stroke-width="0.25"/><rect x="5.461" y="5.080" width="2.032" height="0.254" fill="#1e222b" stroke="#4ea1ff" stroke-width="0.25"/><rect x="8.382" y="1.524" width="0.254" height="2.032" fill="#1e222b" stroke="#4ea1ff" stroke-width="0.25"/><rect x="8.890" y="1.524" width="0.254" height="2.032" fill="#1e222b" stroke="#4ea1ff" stroke-width="0.25"/><rect x="14.097" y="1.524" width="0.254" height="2.032" fill="#1e222b" stroke="#4ea1ff" stroke-width="0.25"/><rect x="14.605" y="1.524" width="0.254" height="2.032" fill="#1e222b" stroke="#4ea1ff" stroke-width="0.25"/><rect x="17.018" y="4.572" width="2.032" height="0.254" fill="#1e222b" stroke="#4ea1ff" stroke-width="0.25"/><rect x="17.018" y="5.080" width="2.032" height="0.254" fill="#1e222b" stroke="#4ea1ff" stroke-width="0.25"/><rect x="0.000" y="-0.000" width="22.860" height="10.160" fill="#1e222b" stroke="#4ea1ff" stroke-width="0.25"/><polyline points="4.699,3.429 4.699,2.540" fill="none" stroke="#4ea1ff" stroke-width="0.25" stroke-linejoin="round"/><polyline points="4.699,7.620 4.699,6.477" fill="none" stroke="#4ea1ff" stroke-width="0.25" stroke-linejoin="round"/><polyline points="6.477,4.699 6.477,2.540" fill="none" stroke="#4ea1ff" stroke-width="0.25" stroke-linejoin="round"/><polyline points="6.477,7.620 6.477,5.207" fill="none" stroke="#4ea1ff" stroke-width="0.25" stroke-linejoin="round"/><polyline points="8.382,2.540 0.000,2.540" fill="none" stroke="#4ea1ff" stroke-width="0.25" stroke-linejoin="round"/><polyline points="9.144,2.540 9.779,2.540" fill="none" stroke="#4ea1ff" stroke-width="0.25" stroke-linejoin="round"/><polyline points="10.795,2.540 10.287,2.540" fill="none" stroke="#4ea1ff" stroke-width="0.25" stroke-linejoin="round"/><polyline points="11.811,2.540 11.303,2.540" fill="none" stroke="#4ea1ff" stroke-width="0.25" stroke-linejoin="round"/><polyline points="12.827,2.540 12.319,2.540" fill="none" stroke="#4ea1ff" stroke-width="0.25" stroke-linejoin="round"/><polyline points="13.335,2.540 14.224,2.540" fill="none" stroke="#4ea1ff" stroke-width="0.25" stroke-linejoin="round"/><polyline points="16.256,3.429 16.256,2.540" fill="none" stroke="#4ea1ff" stroke-width="0.25" stroke-linejoin="round"/><polyline points="16.256,7.620 16.256,6.477" fill="none" stroke="#4ea1ff" stroke-width="0.25" stroke-linejoin="round"/><polyline points="18.034,4.572 18.034,2.540" fill="none" stroke="#4ea1ff" stroke-width="0.25" stroke-linejoin="round"/><polyline points="18.034,7.620 18.034,5.207" fill="none" stroke="#4ea1ff" stroke-width="0.25" stroke-linejoin="round"/><polyline points="22.733,7.620 0.000,7.620" fill="none" stroke="#4ea1ff" stroke-width="0.25" stroke-linejoin="round"/><polyline points="22.860,2.540 14.732,2.540" fill="none" stroke="#4ea1ff" stroke-width="0.25" stroke-linejoin="round"/><circle cx="4.699" cy="2.540" r="0.254" fill="none" stroke="#4ea1ff" stroke-width="0.25"/><circle cx="4.699" cy="7.620" r="0.254" fill="none" stroke="#4ea1ff" stroke-width="0.25"/><circle cx="6.477" cy="2.540" r="0.254" fill="none" stroke="#4ea1ff" stroke-width="0.25"/><circle cx="6.477" cy="7.620" r="0.254" fill="none" stroke="#4ea1ff" stroke-width="0.25"/><circle cx="16.256" cy="2.540" r="0.254" fill="none" stroke="#4ea1ff" stroke-width="0.25"/><circle cx="16.256" cy="7.620" r="0.254" fill="none" stroke="#4ea1ff" stroke-width="0.25"/><circle cx="18.034" cy="2.540" r="0.254" fill="none" stroke="#4ea1ff" stroke-width="0.25"/><circle cx="18.034" cy="7.620" r="0.254" fill="none" stroke="#4ea1ff" stroke-width="0.25"/><path d="M 4.191 3.937 C 4.191 4.218 4.418 4.445 4.699 4.445" fill="none" stroke="#4ea1ff" stroke-width="0.25"/><path d="M 4.191 4.953 C 4.191 5.234 4.418 5.461 4.699 5.461" fill="none" stroke="#4ea1ff" stroke-width="0.25"/><path d="M 4.191 5.969 C 4.191 6.250 4.418 6.477 4.699 6.477" fill="none" stroke="#4ea1ff" stroke-width="0.25"/><path d="M 4.699 3.429 C 4.418 3.429 4.191 3.656 4.191 3.937" fill="none" stroke="#4ea1ff" stroke-width="0.25"/><path d="M 4.699 4.445 C 4.418 4.445 4.191 4.672 4.191 4.953" fill="none" stroke="#4ea1ff" stroke-width="0.25"/><path d="M 4.699 5.461 C 4.418 5.461 4.191 5.688 4.191 5.969" fill="none" stroke="#4ea1ff" stroke-width="0.25"/><path d="M 15.748 3.937 C 15.748 4.218 15.975 4.445 16.256 4.445" fill="none" stroke="#4ea1ff" stroke-width="0.25"/><path d="M 15.748 4.953 C 15.748 5.234 15.975 5.461 16.256 5.461" fill="none" stroke="#4ea1ff" stroke-width="0.25"/><path d="M 15.748 5.969 C 15.748 6.250 15.975 6.477 16.256 6.477" fill="none" stroke="#4ea1ff" stroke-width="0.25"/><path d="M 16.256 3.429 C 15.975 3.429 15.748 3.656 15.748 3.937" fill="none" stroke="#4ea1ff" stroke-width="0.25"/><path d="M 16.256 4.445 C 15.975 4.445 15.748 4.672 15.748 4.953" fill="none" stroke="#4ea1ff" stroke-width="0.25"/><path d="M 16.256 5.461 C 15.975 5.461 15.748 5.688 15.748 5.969" fill="none" stroke="#4ea1ff" stroke-width="0.25"/><line x1="-5.080" y1="2.540" x2="0.000" y2="2.540" stroke="#e6e9ef" stroke-width="0.2"/><circle cx="-5.080" cy="2.540" r="0.4" fill="#4ea1ff"/><text x="-0.300" y="2.190" fill="#9aa3b2" font-size="0.9" text-anchor="end" font-family="sans-serif">1</text><line x1="-5.080" y1="7.620" x2="0.000" y2="7.620" stroke="#e6e9ef" stroke-width="0.2"/><circle cx="-5.080" cy="7.620" r="0.4" fill="#4ea1ff"/><text x="-0.300" y="7.270" fill="#9aa3b2" font-size="0.9" text-anchor="end" font-family="sans-serif">2</text><line x1="27.940" y1="2.540" x2="22.860" y2="2.540" stroke="#e6e9ef" stroke-width="0.2"/><circle cx="27.940" cy="2.540" r="0.4" fill="#4ea1ff"/><text x="23.160" y="2.190" fill="#9aa3b2" font-size="0.9" text-anchor="start" font-family="sans-serif">3</text><line x1="27.940" y1="7.620" x2="22.860" y2="7.620" stroke="#e6e9ef" stroke-width="0.2"/><circle cx="27.940" cy="7.620" r="0.4" fill="#4ea1ff"/><text x="23.160" y="7.270" fill="#9aa3b2" font-size="0.9" text-anchor="start" font-family="sans-serif">4</text></svg>