<svg xmlns="http://www.w3.org/2000/svg" viewBox="-2.85 -2.35 4.95 4.70" preserveAspectRatio="xMidYMid meet" style="width:100%;height:100%"><rect x="-2.85" y="-2.35" width="4.95" height="4.70" fill="#12151c"/><path d="M -1.075 -0.150 A 0.050 0.050 0 0 1 -1.025 -0.100" fill="none" stroke="#6b7280" stroke-width="0.12" opacity="0.8"/><path d="M -1.075 1.225 A 0.100 0.100 0 0 1 -0.975 1.325" fill="none" stroke="#6b7280" stroke-width="0.12" opacity="0.8"/><path d="M -1.025 0.100 A 0.050 0.050 0 0 1 -1.075 0.150" fill="none" stroke="#6b7280" stroke-width="0.12" opacity="0.8"/><path d="M -0.975 -1.325 A 0.100 0.100 0 0 1 -1.075 -1.225" fill="none" stroke="#6b7280" stroke-width="0.12" opacity="0.8"/><path d="M -0.925 -0.925 A 0.250 0.250 0 0 1 -0.675 -1.175" fill="none" stroke="#6b7280" stroke-width="0.12" opacity="0.8"/><path d="M -0.675 1.175 A 0.250 0.250 0 0 1 -0.925 0.925" fill="none" stroke="#6b7280" stroke-width="0.12" opacity="0.8"/><path d="M 0.675 -1.175 A 0.250 0.250 0 0 1 0.925 -0.925" fill="none" stroke="#6b7280" stroke-width="0.12" opacity="0.8"/><path d="M 0.925 0.925 A 0.250 0.250 0 0 1 0.675 1.175" fill="none" stroke="#6b7280" stroke-width="0.12" opacity="0.8"/><path d="M 0.975 1.325 A 0.100 0.100 0 0 1 1.075 1.225" fill="none" stroke="#6b7280" stroke-width="0.12" opacity="0.8"/><path d="M 1.025 -0.100 A 0.050 0.050 0 0 1 1.075 -0.150" fill="none" stroke="#6b7280" stroke-width="0.12" opacity="0.8"/><path d="M 1.075 -1.225 A 0.100 0.100 0 0 1 0.975 -1.325" fill="none" stroke="#6b7280" stroke-width="0.12" opacity="0.8"/><path d="M 1.075 0.150 A 0.050 0.050 0 0 1 1.025 0.100" fill="none" stroke="#6b7280" stroke-width="0.12" opacity="0.8"/><circle cx="-1.725" cy="-0.875" r="0.125" fill="none" stroke="#e6e9ef" stroke-width="0.12" opacity="1"/><circle cx="-0.575" cy="-0.825" r="0.150" fill="none" stroke="#6b7280" stroke-width="0.12" opacity="0.8"/><rect x="-1.100" y="-1.350" width="0.850" height="1.000" rx="0.000" fill="#c79b5c"/><rect x="-1.100" y="0.350" width="0.850" height="1.000" rx="0.000" fill="#c79b5c"/><rect x="0.250" y="0.350" width="0.850" height="1.000" rx="0.000" fill="#c79b5c"/><rect x="0.250" y="-1.350" width="0.850" height="1.000" rx="0.000" fill="#c79b5c"/></svg>