<svg xmlns="http://www.w3.org/2000/svg" viewBox="-16.20 -4.28 26.61 8.01" preserveAspectRatio="xMidYMid meet" style="width:100%;height:100%"><rect x="-16.20" y="-4.28" width="26.61" height="8.01" fill="#12151c"/><line x1="-14.950" y1="-1.025" x2="-8.600" y2="-1.025" stroke="#e6e9ef" stroke-width="0.200" stroke-linecap="round" opacity="1"/><line x1="-14.950" y1="-0.021" x2="-14.950" y2="-1.021" stroke="#e6e9ef" stroke-width="0.200" stroke-linecap="round" opacity="1"/><line x1="-14.950" y1="0.975" x2="-8.600" y2="0.975" stroke="#e6e9ef" stroke-width="0.200" stroke-linecap="round" opacity="1"/><line x1="-14.950" y1="0.979" x2="-14.950" y2="-0.021" stroke="#e6e9ef" stroke-width="0.200" stroke-linecap="round" opacity="1"/><line x1="-12.150" y1="0.975" x2="-12.150" y2="-1.025" stroke="#e6e9ef" stroke-width="0.200" stroke-linecap="round" opacity="1"/><line x1="-8.600" y1="-1.525" x2="-8.200" y2="-1.925" stroke="#e6e9ef" stroke-width="0.200" stroke-linecap="round" opacity="1"/><line x1="-8.600" y1="1.475" x2="-8.600" y2="-1.525" stroke="#e6e9ef" stroke-width="0.200" stroke-linecap="round" opacity="1"/><line x1="-8.600" y1="1.475" x2="-8.200" y2="1.875" stroke="#e6e9ef" stroke-width="0.200" stroke-linecap="round" opacity="1"/><line x1="-8.200" y1="-1.925" x2="-6.840" y2="-1.925" stroke="#e6e9ef" stroke-width="0.200" stroke-linecap="round" opacity="1"/><line x1="-8.200" y1="1.875" x2="-8.200" y2="-1.925" stroke="#e6e9ef" stroke-width="0.200" stroke-linecap="round" opacity="1"/><line x1="-8.200" y1="1.875" x2="-6.840" y2="1.875" stroke="#e6e9ef" stroke-width="0.200" stroke-linecap="round" opacity="1"/><line x1="-6.840" y1="-2.525" x2="-0.500" y2="-2.525" stroke="#e6e9ef" stroke-width="0.200" stroke-linecap="round" opacity="1"/><line x1="-6.840" y1="2.475" x2="-6.840" y2="-2.525" stroke="#e6e9ef" stroke-width="0.200" stroke-linecap="round" opacity="1"/><line x1="-6.840" y1="2.475" x2="-0.500" y2="2.475" stroke="#e6e9ef" stroke-width="0.200" stroke-linecap="round" opacity="1"/><line x1="-0.500" y1="-3.025" x2="0.500" y2="-3.025" stroke="#e6e9ef" stroke-width="0.200" stroke-linecap="round" opacity="1"/><line x1="-0.500" y1="-2.525" x2="-0.500" y2="-3.025" stroke="#e6e9ef" stroke-width="0.200" stroke-linecap="round" opacity="1"/><line x1="-0.500" y1="1.975" x2="0.350" y2="1.975" stroke="#e6e9ef" stroke-width="0.200" stroke-linecap="round" opacity="1"/><line x1="-0.500" y1="2.475" x2="-0.500" y2="1.975" stroke="#e6e9ef" stroke-width="0.200" stroke-linecap="round" opacity="1"/><line x1="0.500" y1="-2.525" x2="0.500" y2="-3.025" stroke="#e6e9ef" stroke-width="0.200" stroke-linecap="round" opacity="1"/><line x1="0.500" y1="-2.525" x2="9.160" y2="-2.525" stroke="#e6e9ef" stroke-width="0.200" stroke-linecap="round" opacity="1"/><line x1="0.500" y1="2.475" x2="0.500" y2="2.100" stroke="#e6e9ef" stroke-width="0.200" stroke-linecap="round" opacity="1"/><line x1="0.500" y1="2.475" x2="9.160" y2="2.475" stroke="#e6e9ef" stroke-width="0.200" stroke-linecap="round" opacity="1"/><line x1="9.160" y1="2.475" x2="9.160" y2="-2.525" stroke="#e6e9ef" stroke-width="0.200" stroke-linecap="round" opacity="1"/><line x1="-14.951" y1="-1.026" x2="-8.601" y2="-1.026" stroke="#6b7280" stroke-width="0.100" stroke-linecap="round" opacity="0.8"/><line x1="-14.951" y1="-0.026" x2="-14.951" y2="-1.026" stroke="#6b7280" stroke-width="0.100" stroke-linecap="round" opacity="0.8"/><line x1="-14.951" y1="0.974" x2="-14.951" y2="-0.026" stroke="#6b7280" stroke-width="0.100" stroke-linecap="round" opacity="0.8"/><line x1="-14.951" y1="0.974" x2="-8.601" y2="0.974" stroke="#6b7280" stroke-width="0.100" stroke-linecap="round" opacity="0.8"/><line x1="-12.151" y1="0.974" x2="-12.151" y2="-1.026" stroke="#6b7280" stroke-width="0.100" stroke-linecap="round" opacity="0.8"/><line x1="-8.601" y1="-1.526" x2="-8.201" y2="-1.926" stroke="#6b7280" stroke-width="0.100" stroke-linecap="round" opacity="0.8"/><line x1="-8.601" y1="1.474" x2="-8.601" y2="-1.526" stroke="#6b7280" stroke-width="0.100" stroke-linecap="round" opacity="0.8"/><line x1="-8.601" y1="1.474" x2="-8.201" y2="1.874" stroke="#6b7280" stroke-width="0.100" stroke-linecap="round" opacity="0.8"/><line x1="-8.201" y1="-1.926" x2="-6.841" y2="-1.926" stroke="#6b7280" stroke-width="0.100" stroke-linecap="round" opacity="0.8"/><line x1="-8.201" y1="1.874" x2="-8.201" y2="-1.926" stroke="#6b7280" stroke-width="0.100" stroke-linecap="round" opacity="0.8"/><line x1="-8.201" y1="1.874" x2="-6.841" y2="1.874" stroke="#6b7280" stroke-width="0.100" stroke-linecap="round" opacity="0.8"/><line x1="-6.841" y1="-2.526" x2="-0.501" y2="-2.526" stroke="#6b7280" stroke-width="0.100" stroke-linecap="round" opacity="0.8"/><line x1="-6.841" y1="2.474" x2="-6.841" y2="-2.526" stroke="#6b7280" stroke-width="0.100" stroke-linecap="round" opacity="0.8"/><line x1="-6.841" y1="2.474" x2="-0.501" y2="2.474" stroke="#6b7280" stroke-width="0.100" stroke-linecap="round" opacity="0.8"/><line x1="-0.501" y1="-3.026" x2="0.499" y2="-3.026" stroke="#6b7280" stroke-width="0.100" stroke-linecap="round" opacity="0.8"/><line x1="-0.501" y1="-2.526" x2="-0.501" y2="-3.026" stroke="#6b7280" stroke-width="0.100" stroke-linecap="round" opacity="0.8"/><line x1="-0.501" y1="1.974" x2="0.499" y2="1.974" stroke="#6b7280" stroke-width="0.100" stroke-linecap="round" opacity="0.8"/><line x1="-0.501" y1="2.474" x2="-0.501" y2="1.974" stroke="#6b7280" stroke-width="0.100" stroke-linecap="round" opacity="0.8"/><line x1="0.499" y1="-2.526" x2="0.499" y2="-3.026" stroke="#6b7280" stroke-width="0.100" stroke-linecap="round" opacity="0.8"/><line x1="0.499" y1="-2.526" x2="9.159" y2="-2.526" stroke="#6b7280" stroke-width="0.100" stroke-linecap="round" opacity="0.8"/><line x1="0.499" y1="2.474" x2="0.499" y2="1.974" stroke="#6b7280" stroke-width="0.100" stroke-linecap="round" opacity="0.8"/><line x1="0.499" y1="2.474" x2="9.159" y2="2.474" stroke="#6b7280" stroke-width="0.100" stroke-linecap="round" opacity="0.8"/><line x1="9.159" y1="2.474" x2="9.159" y2="-2.526" stroke="#6b7280" stroke-width="0.100" stroke-linecap="round" opacity="0.8"/><line x1="-15.200" y1="-3.280" x2="9.410" y2="-3.280" stroke="#d24d4d" stroke-width="0.080" stroke-linecap="round" opacity="0.7"/><line x1="9.410" y1="-3.280" x2="9.410" y2="2.730" stroke="#d24d4d" stroke-width="0.080" stroke-linecap="round" opacity="0.7"/><line x1="9.410" y1="2.730" x2="-15.200" y2="2.730" stroke="#d24d4d" stroke-width="0.080" stroke-linecap="round" opacity="0.7"/><line x1="-15.200" y1="2.730" x2="-15.200" y2="-3.280" stroke="#d24d4d" stroke-width="0.080" stroke-linecap="round" opacity="0.7"/><circle cx="0.000" cy="0.000" r="0.250" fill="none" stroke="#6b7280" stroke-width="0.1"/><rect x="0.520" y="0.520" width="1.500" height="1.500" rx="0.750" fill="#c79b5c"/><circle cx="1.270" cy="1.270" r="0.400" fill="#12151c"/><rect x="3.060" y="0.520" width="1.500" height="1.500" rx="0.750" fill="#c79b5c"/><circle cx="3.810" cy="1.270" r="0.400" fill="#12151c"/><rect x="5.600" y="0.520" width="1.500" height="1.500" rx="0.750" fill="#c79b5c"/><circle cx="6.350" cy="1.270" r="0.400" fill="#12151c"/></svg>