<svg xmlns="http://www.w3.org/2000/svg" viewBox="-6.70 -4.00 14.30 20.40" preserveAspectRatio="xMidYMid meet" style="width:100%;height:100%"><rect x="-6.70" y="-4.00" width="14.30" height="20.40" fill="#12151c"/><line x1="-5.650" y1="-1.300" x2="-5.650" y2="1.300" stroke="#e6e9ef" stroke-width="0.178" stroke-linecap="round" opacity="1"/><line x1="-5.650" y1="3.300" x2="-5.650" y2="3.100" stroke="#e6e9ef" stroke-width="0.178" stroke-linecap="round" opacity="1"/><line x1="-5.650" y1="3.300" x2="-4.350" y2="3.300" stroke="#e6e9ef" stroke-width="0.178" stroke-linecap="round" opacity="1"/><line x1="-4.200" y1="-2.900" x2="4.200" y2="-2.900" stroke="#e6e9ef" stroke-width="0.178" stroke-linecap="round" opacity="1"/><line x1="4.350" y1="3.300" x2="5.650" y2="3.300" stroke="#e6e9ef" stroke-width="0.178" stroke-linecap="round" opacity="1"/><line x1="5.650" y1="-1.300" x2="5.650" y2="1.300" stroke="#e6e9ef" stroke-width="0.178" stroke-linecap="round" opacity="1"/><line x1="5.650" y1="3.100" x2="5.650" y2="3.300" stroke="#e6e9ef" stroke-width="0.178" stroke-linecap="round" opacity="1"/><line x1="-5.700" y1="-3.000" x2="5.700" y2="-3.000" stroke="#d24d4d" stroke-width="0.080" stroke-linecap="round" opacity="0.7"/><line x1="-5.700" y1="3.400" x2="-5.700" y2="-3.000" stroke="#d24d4d" stroke-width="0.080" stroke-linecap="round" opacity="0.7"/><line x1="-5.000" y1="3.400" x2="-5.700" y2="3.400" stroke="#d24d4d" stroke-width="0.080" stroke-linecap="round" opacity="0.7"/><line x1="-5.000" y1="15.400" x2="-5.000" y2="3.400" stroke="#d24d4d" stroke-width="0.080" stroke-linecap="round" opacity="0.7"/><line x1="5.700" y1="-3.000" x2="5.700" y2="3.400" stroke="#d24d4d" stroke-width="0.080" stroke-linecap="round" opacity="0.7"/><line x1="5.700" y1="3.400" x2="6.300" y2="3.400" stroke="#d24d4d" stroke-width="0.080" stroke-linecap="round" opacity="0.7"/><line x1="6.300" y1="3.400" x2="6.300" y2="15.400" stroke="#d24d4d" stroke-width="0.080" stroke-linecap="round" opacity="0.7"/><line x1="6.300" y1="15.400" x2="-5.000" y2="15.400" stroke="#d24d4d" stroke-width="0.080" stroke-linecap="round" opacity="0.7"/><line x1="-4.846" y1="-1.615" x2="-4.846" y2="10.845" stroke="#6b7280" stroke-width="0.080" stroke-linecap="round" opacity="0.8"/><line x1="-4.846" y1="10.845" x2="-4.846" y2="11.245" stroke="#6b7280" stroke-width="0.080" stroke-linecap="round" opacity="0.8"/><line x1="-4.846" y1="11.245" x2="-4.846" y2="11.345" stroke="#6b7280" stroke-width="0.080" stroke-linecap="round" opacity="0.8"/><line x1="-3.806" y1="12.345" x2="5.154" y2="12.345" stroke="#6b7280" stroke-width="0.080" stroke-linecap="round" opacity="0.8"/><line x1="0.404" y1="0.000" x2="0.904" y2="0.000" stroke="#6b7280" stroke-width="0.080" stroke-linecap="round" opacity="0.8"/><line x1="0.654" y1="12.345" x2="0.654" y2="-0.100" stroke="#6b7280" stroke-width="0.080" stroke-linecap="round" opacity="0.8"/><line x1="3.814" y1="-2.655" x2="-3.846" y2="-2.655" stroke="#6b7280" stroke-width="0.080" stroke-linecap="round" opacity="0.8"/><line x1="4.854" y1="3.300" x2="4.854" y2="-1.655" stroke="#6b7280" stroke-width="0.080" stroke-linecap="round" opacity="0.8"/><line x1="5.554" y1="6.150" x2="5.554" y2="7.250" stroke="#6b7280" stroke-width="0.080" stroke-linecap="round" opacity="0.8"/><line x1="5.554" y1="7.250" x2="6.154" y2="7.850" stroke="#6b7280" stroke-width="0.080" stroke-linecap="round" opacity="0.8"/><line x1="6.154" y1="4.800" x2="4.854" y2="3.300" stroke="#6b7280" stroke-width="0.080" stroke-linecap="round" opacity="0.8"/><line x1="6.154" y1="6.150" x2="5.554" y2="6.150" stroke="#6b7280" stroke-width="0.080" stroke-linecap="round" opacity="0.8"/><line x1="6.154" y1="6.150" x2="6.154" y2="4.800" stroke="#6b7280" stroke-width="0.080" stroke-linecap="round" opacity="0.8"/><line x1="6.154" y1="10.845" x2="6.154" y2="7.850" stroke="#6b7280" stroke-width="0.080" stroke-linecap="round" opacity="0.8"/><line x1="6.154" y1="11.245" x2="6.154" y2="10.845" stroke="#6b7280" stroke-width="0.080" stroke-linecap="round" opacity="0.8"/><line x1="6.154" y1="11.305" x2="6.154" y2="11.245" stroke="#6b7280" stroke-width="0.080" stroke-linecap="round" opacity="0.8"/><line x1="6.604" y1="11.345" x2="-5.396" y2="11.345" stroke="#6b7280" stroke-width="0.080" stroke-linecap="round" opacity="0.8"/><line x1="6.604" y1="12.345" x2="-5.396" y2="12.345" stroke="#6b7280" stroke-width="0.080" stroke-linecap="round" opacity="0.8"/><line x1="6.604" y1="15.345" x2="-5.396" y2="15.345" stroke="#6b7280" stroke-width="0.080" stroke-linecap="round" opacity="0.8"/><path d="M -4.846 -1.615 A 0.996 0.996 0 0 1 -3.846 -2.655" fill="none" stroke="#6b7280" stroke-width="0.12" opacity="0.8"/><path d="M -4.846 10.845 A 38.000 38.000 0 0 1 6.154 10.845" fill="none" stroke="#6b7280" stroke-width="0.12" opacity="0.8"/><path d="M -4.846 11.245 A 38.000 38.000 0 0 1 6.154 11.245" fill="none" stroke="#6b7280" stroke-width="0.12" opacity="0.8"/><path d="M -3.806 12.345 A 0.996 0.996 0 0 1 -4.846 11.345" fill="none" stroke="#6b7280" stroke-width="0.12" opacity="0.8"/><path d="M 3.814 -2.655 A 0.996 0.996 0 0 1 4.854 -1.655" fill="none" stroke="#6b7280" stroke-width="0.12" opacity="0.8"/><path d="M 6.154 11.305 A 0.996 0.996 0 0 1 5.154 12.345" fill="none" stroke="#6b7280" stroke-width="0.12" opacity="0.8"/><rect x="3.600" y="3.475" width="0.500" height="1.000" rx="0.000" fill="#c79b5c"/><rect x="2.500" y="3.475" width="0.500" height="1.000" rx="0.000" fill="#c79b5c"/><rect x="1.400" y="3.475" width="0.500" height="1.000" rx="0.000" fill="#c79b5c"/><rect x="0.650" y="3.475" width="0.500" height="1.000" rx="0.000" fill="#c79b5c"/><rect x="-0.800" y="3.475" width="0.500" height="1.000" rx="0.000" fill="#c79b5c"/><rect x="-1.900" y="3.475" width="0.500" height="1.000" rx="0.000" fill="#c79b5c"/><rect x="-3.000" y="3.475" width="0.500" height="1.000" rx="0.000" fill="#c79b5c"/><rect x="-4.100" y="3.475" width="0.500" height="1.000" rx="0.000" fill="#c79b5c"/><rect x="-0.050" y="3.475" width="0.500" height="1.000" rx="0.000" fill="#c79b5c"/><rect x="-5.575" y="-2.825" width="0.950" height="1.200" rx="0.000" fill="#c79b5c"/><rect x="-5.575" y="1.625" width="0.950" height="1.200" rx="0.000" fill="#c79b5c"/><rect x="4.625" y="-2.825" width="0.950" height="1.200" rx="0.000" fill="#c79b5c"/><rect x="4.625" y="1.625" width="0.950" height="1.200" rx="0.000" fill="#c79b5c"/></svg>