<svg xmlns="http://www.w3.org/2000/svg" viewBox="-36.25 -5.00 72.50 10.43" preserveAspectRatio="xMidYMid meet" style="width:100%;height:100%"><rect x="-36.25" y="-5.00" width="72.50" height="10.43" fill="#12151c"/><line x1="-35.000" y1="-3.750" x2="35.000" y2="-3.750" stroke="#e6e9ef" stroke-width="0.200" stroke-linecap="round" opacity="1"/><line x1="-35.000" y1="-3.150" x2="-35.000" y2="-3.750" stroke="#e6e9ef" stroke-width="0.200" stroke-linecap="round" opacity="1"/><line x1="-35.000" y1="3.750" x2="-35.000" y2="3.150" stroke="#e6e9ef" stroke-width="0.200" stroke-linecap="round" opacity="1"/><line x1="-35.000" y1="3.750" x2="35.000" y2="3.750" stroke="#e6e9ef" stroke-width="0.200" stroke-linecap="round" opacity="1"/><line x1="-34.750" y1="-3.350" x2="-34.550" y2="-3.150" stroke="#e6e9ef" stroke-width="0.200" stroke-linecap="round" opacity="1"/><line x1="-34.750" y1="-3.350" x2="-34.000" y2="-3.350" stroke="#e6e9ef" stroke-width="0.200" stroke-linecap="round" opacity="1"/><line x1="-34.750" y1="-3.150" x2="-34.750" y2="-3.350" stroke="#e6e9ef" stroke-width="0.200" stroke-linecap="round" opacity="1"/><line x1="-34.750" y1="3.350" x2="-34.750" y2="3.150" stroke="#e6e9ef" stroke-width="0.200" stroke-linecap="round" opacity="1"/><line x1="-34.750" y1="3.350" x2="-34.550" y2="3.150" stroke="#e6e9ef" stroke-width="0.200" stroke-linecap="round" opacity="1"/><line x1="-34.750" y1="3.350" x2="-34.000" y2="3.350" stroke="#e6e9ef" stroke-width="0.200" stroke-linecap="round" opacity="1"/><line x1="-34.550" y1="3.150" x2="-34.200" y2="3.150" stroke="#e6e9ef" stroke-width="0.200" stroke-linecap="round" opacity="1"/><line x1="-34.200" y1="-3.150" x2="-34.000" y2="-3.350" stroke="#e6e9ef" stroke-width="0.200" stroke-linecap="round" opacity="1"/><line x1="-34.200" y1="3.150" x2="-34.000" y2="3.350" stroke="#e6e9ef" stroke-width="0.200" stroke-linecap="round" opacity="1"/><line x1="-34.000" y1="-3.150" x2="-34.000" y2="-3.350" stroke="#e6e9ef" stroke-width="0.200" stroke-linecap="round" opacity="1"/><line x1="-34.000" y1="3.350" x2="-34.000" y2="3.150" stroke="#e6e9ef" stroke-width="0.200" stroke-linecap="round" opacity="1"/><line x1="34.000" y1="-3.350" x2="34.200" y2="-3.150" stroke="#e6e9ef" stroke-width="0.200" stroke-linecap="round" opacity="1"/><line x1="34.000" y1="-3.350" x2="34.750" y2="-3.350" stroke="#e6e9ef" stroke-width="0.200" stroke-linecap="round" opacity="1"/><line x1="34.000" y1="-3.150" x2="34.000" y2="-3.350" stroke="#e6e9ef" stroke-width="0.200" stroke-linecap="round" opacity="1"/><line x1="34.000" y1="3.350" x2="34.000" y2="3.150" stroke="#e6e9ef" stroke-width="0.200" stroke-linecap="round" opacity="1"/><line x1="34.000" y1="3.350" x2="34.200" y2="3.150" stroke="#e6e9ef" stroke-width="0.200" stroke-linecap="round" opacity="1"/><line x1="34.000" y1="3.350" x2="34.750" y2="3.350" stroke="#e6e9ef" stroke-width="0.200" stroke-linecap="round" opacity="1"/><line x1="34.200" y1="3.150" x2="34.550" y2="3.150" stroke="#e6e9ef" stroke-width="0.200" stroke-linecap="round" opacity="1"/><line x1="34.550" y1="-3.150" x2="34.750" y2="-3.350" stroke="#e6e9ef" stroke-width="0.200" stroke-linecap="round" opacity="1"/><line x1="34.550" y1="3.150" x2="34.750" y2="3.350" stroke="#e6e9ef" stroke-width="0.200" stroke-linecap="round" opacity="1"/><line x1="34.750" y1="-3.150" x2="34.750" y2="-3.350" stroke="#e6e9ef" stroke-width="0.200" stroke-linecap="round" opacity="1"/><line x1="34.750" y1="3.350" x2="34.750" y2="3.150" stroke="#e6e9ef" stroke-width="0.200" stroke-linecap="round" opacity="1"/><line x1="35.000" y1="-3.150" x2="35.000" y2="-3.750" stroke="#e6e9ef" stroke-width="0.200" stroke-linecap="round" opacity="1"/><line x1="35.000" y1="3.750" x2="35.000" y2="3.150" stroke="#e6e9ef" stroke-width="0.200" stroke-linecap="round" opacity="1"/><line x1="-34.900" y1="-2.750" x2="-32.850" y2="-2.750" stroke="#4a5160" stroke-width="0.100" stroke-linecap="round" opacity="0.7"/><line x1="-34.900" y1="-1.100" x2="-34.900" y2="-2.750" stroke="#4a5160" stroke-width="0.100" stroke-linecap="round" opacity="0.7"/><line x1="-34.900" y1="-1.100" x2="-34.250" y2="-1.100" stroke="#4a5160" stroke-width="0.100" stroke-linecap="round" opacity="0.7"/><line x1="-34.900" y1="1.100" x2="-34.250" y2="1.100" stroke="#4a5160" stroke-width="0.100" stroke-linecap="round" opacity="0.7"/><line x1="-34.900" y1="2.750" x2="-34.900" y2="1.100" stroke="#4a5160" stroke-width="0.100" stroke-linecap="round" opacity="0.7"/><line x1="-34.900" y1="2.750" x2="-32.850" y2="2.750" stroke="#4a5160" stroke-width="0.100" stroke-linecap="round" opacity="0.7"/><line x1="-34.750" y1="0.000" x2="-34.250" y2="0.000" stroke="#4a5160" stroke-width="0.100" stroke-linecap="round" opacity="0.7"/><line x1="-34.250" y1="0.000" x2="-34.250" y2="-0.500" stroke="#4a5160" stroke-width="0.100" stroke-linecap="round" opacity="0.7"/><line x1="-34.250" y1="0.000" x2="-33.750" y2="0.000" stroke="#4a5160" stroke-width="0.100" stroke-linecap="round" opacity="0.7"/><line x1="-34.250" y1="0.500" x2="-34.250" y2="0.000" stroke="#4a5160" stroke-width="0.100" stroke-linecap="round" opacity="0.7"/><line x1="-32.850" y1="2.750" x2="-32.850" y2="-2.750" stroke="#4a5160" stroke-width="0.100" stroke-linecap="round" opacity="0.7"/><line x1="-32.100" y1="3.075" x2="-32.100" y2="-3.075" stroke="#4a5160" stroke-width="0.100" stroke-linecap="round" opacity="0.7"/><line x1="-31.700" y1="-3.075" x2="-31.500" y2="-2.500" stroke="#4a5160" stroke-width="0.100" stroke-linecap="round" opacity="0.7"/><line x1="-31.700" y1="-3.075" x2="-31.300" y2="-3.075" stroke="#4a5160" stroke-width="0.100" stroke-linecap="round" opacity="0.7"/><line x1="-31.700" y1="-1.925" x2="-31.700" y2="-3.075" stroke="#4a5160" stroke-width="0.100" stroke-linecap="round" opacity="0.7"/><line x1="-31.700" y1="-1.925" x2="-31.300" y2="-1.925" stroke="#4a5160" stroke-width="0.100" stroke-linecap="round" opacity="0.7"/><line x1="-31.700" y1="1.925" x2="-31.300" y2="1.925" stroke="#4a5160" stroke-width="0.100" stroke-linecap="round" opacity="0.7"/><line x1="-31.700" y1="3.075" x2="-31.700" y2="-3.075" stroke="#4a5160" stroke-width="0.100" stroke-linecap="round" opacity="0.7"/><line x1="-31.700" y1="3.075" x2="-31.700" y2="1.925" stroke="#4a5160" stroke-width="0.100" stroke-linecap="round" opacity="0.7"/><line x1="-31.700" y1="3.075" x2="-31.500" y2="2.500" stroke="#4a5160" stroke-width="0.100" stroke-linecap="round" opacity="0.7"/><line x1="-31.700" y1="3.075" x2="-31.300" y2="3.075" stroke="#4a5160" stroke-width="0.100" stroke-linecap="round" opacity="0.7"/><line x1="-31.500" y1="-2.500" x2="-31.300" y2="-3.075" stroke="#4a5160" stroke-width="0.100" stroke-linecap="round" opacity="0.7"/><line x1="-31.500" y1="2.500" x2="-31.300" y2="3.075" stroke="#4a5160" stroke-width="0.100" stroke-linecap="round" opacity="0.7"/><line x1="-31.300" y1="-1.925" x2="-31.300" y2="-3.075" stroke="#4a5160" stroke-width="0.100" stroke-linecap="round" opacity="0.7"/><line x1="-31.300" y1="3.075" x2="-31.300" y2="1.925" stroke="#4a5160" stroke-width="0.100" stroke-linecap="round" opacity="0.7"/><line x1="-30.950" y1="-3.075" x2="-30.750" y2="-2.500" stroke="#4a5160" stroke-width="0.100" stroke-linecap="round" opacity="0.7"/><line x1="-30.950" y1="-3.075" x2="-30.550" y2="-3.075" stroke="#4a5160" stroke-width="0.100" stroke-linecap="round" opacity="0.7"/><line x1="-30.950" y1="-1.925" x2="-30.950" y2="-3.075" stroke="#4a5160" stroke-width="0.100" stroke-linecap="round" opacity="0.7"/><line x1="-30.950" y1="-1.925" x2="-30.550" y2="-1.925" stroke="#4a5160" stroke-width="0.100" stroke-linecap="round" opacity="0.7"/><line x1="-30.950" y1="1.925" x2="-30.550" y2="1.925" stroke="#4a5160" stroke-width="0.100" stroke-linecap="round" opacity="0.7"/><line x1="-30.950" y1="3.075" x2="-30.950" y2="1.925" stroke="#4a5160" stroke-width="0.100" stroke-linecap="round" opacity="0.7"/><line x1="-30.950" y1="3.075" x2="-30.750" y2="2.500" stroke="#4a5160" stroke-width="0.100" stroke-linecap="round" opacity="0.7"/><line x1="-30.950" y1="3.075" x2="-30.550" y2="3.075" stroke="#4a5160" stroke-width="0.100" stroke-linecap="round" opacity="0.7"/><line x1="-30.750" y1="-2.500" x2="-30.550" y2="-3.075" stroke="#4a5160" stroke-width="0.100" stroke-linecap="round" opacity="0.7"/><line x1="-30.750" y1="2.500" x2="-30.550" y2="3.075" stroke="#4a5160" stroke-width="0.100" stroke-linecap="round" opacity="0.7"/><line x1="-30.550" y1="-1.925" x2="-30.550" y2="-3.075" stroke="#4a5160" stroke-width="0.100" stroke-linecap="round" opacity="0.7"/><line x1="-30.550" y1="3.075" x2="-30.550" y2="1.925" stroke="#4a5160" stroke-width="0.100" stroke-linecap="round" opacity="0.7"/><line x1="-0.500" y1="0.000" x2="0.000" y2="0.000" stroke="#4a5160" stroke-width="0.100" stroke-linecap="round" opacity="0.7"/><line x1="0.000" y1="0.000" x2="0.000" y2="-0.500" stroke="#4a5160" stroke-width="0.100" stroke-linecap="round" opacity="0.7"/><line x1="0.000" y1="0.000" x2="0.500" y2="0.000" stroke="#4a5160" stroke-width="0.100" stroke-linecap="round" opacity="0.7"/><line x1="0.000" y1="0.500" x2="0.000" y2="0.000" stroke="#4a5160" stroke-width="0.100" stroke-linecap="round" opacity="0.7"/><line x1="30.550" y1="-3.075" x2="30.750" y2="-2.500" stroke="#4a5160" stroke-width="0.100" stroke-linecap="round" opacity="0.7"/><line x1="30.550" y1="-3.075" x2="30.950" y2="-3.075" stroke="#4a5160" stroke-width="0.100" stroke-linecap="round" opacity="0.7"/><line x1="30.550" y1="-1.925" x2="30.550" y2="-3.075" stroke="#4a5160" stroke-width="0.100" stroke-linecap="round" opacity="0.7"/><line x1="30.550" y1="-1.925" x2="30.950" y2="-1.925" stroke="#4a5160" stroke-width="0.100" stroke-linecap="round" opacity="0.7"/><line x1="30.550" y1="1.925" x2="30.950" y2="1.925" stroke="#4a5160" stroke-width="0.100" stroke-linecap="round" opacity="0.7"/><line x1="30.550" y1="3.075" x2="30.550" y2="1.925" stroke="#4a5160" stroke-width="0.100" stroke-linecap="round" opacity="0.7"/><line x1="30.550" y1="3.075" x2="30.750" y2="2.500" stroke="#4a5160" stroke-width="0.100" stroke-linecap="round" opacity="0.7"/><line x1="30.550" y1="3.075" x2="30.950" y2="3.075" stroke="#4a5160" stroke-width="0.100" stroke-linecap="round" opacity="0.7"/><line x1="30.750" y1="-2.500" x2="30.950" y2="-3.075" stroke="#4a5160" stroke-width="0.100" stroke-linecap="round" opacity="0.7"/><line x1="30.750" y1="2.500" x2="30.950" y2="3.075" stroke="#4a5160" stroke-width="0.100" stroke-linecap="round" opacity="0.7"/><line x1="30.950" y1="-1.925" x2="30.950" y2="-3.075" stroke="#4a5160" stroke-width="0.100" stroke-linecap="round" opacity="0.7"/><line x1="30.950" y1="3.075" x2="30.950" y2="1.925" stroke="#4a5160" stroke-width="0.100" stroke-linecap="round" opacity="0.7"/><line x1="31.300" y1="-3.075" x2="31.500" y2="-2.500" stroke="#4a5160" stroke-width="0.100" stroke-linecap="round" opacity="0.7"/><line x1="31.300" y1="-3.075" x2="31.700" y2="-3.075" stroke="#4a5160" stroke-width="0.100" stroke-linecap="round" opacity="0.7"/><line x1="31.300" y1="-1.925" x2="31.300" y2="-3.075" stroke="#4a5160" stroke-width="0.100" stroke-linecap="round" opacity="0.7"/><line x1="31.300" y1="-1.925" x2="31.700" y2="-1.925" stroke="#4a5160" stroke-width="0.100" stroke-linecap="round" opacity="0.7"/><line x1="31.300" y1="1.925" x2="31.700" y2="1.925" stroke="#4a5160" stroke-width="0.100" stroke-linecap="round" opacity="0.7"/><line x1="31.300" y1="3.075" x2="31.300" y2="1.925" stroke="#4a5160" stroke-width="0.100" stroke-linecap="round" opacity="0.7"/><line x1="31.300" y1="3.075" x2="31.500" y2="2.500" stroke="#4a5160" stroke-width="0.100" stroke-linecap="round" opacity="0.7"/><line x1="31.300" y1="3.075" x2="31.700" y2="3.075" stroke="#4a5160" stroke-width="0.100" stroke-linecap="round" opacity="0.7"/><line x1="31.500" y1="-2.500" x2="31.700" y2="-3.075" stroke="#4a5160" stroke-width="0.100" stroke-linecap="round" opacity="0.7"/><line x1="31.500" y1="2.500" x2="31.700" y2="3.075" stroke="#4a5160" stroke-width="0.100" stroke-linecap="round" opacity="0.7"/><line x1="31.700" y1="-1.925" x2="31.700" y2="-3.075" stroke="#4a5160" stroke-width="0.100" stroke-linecap="round" opacity="0.7"/><line x1="31.700" y1="3.075" x2="31.700" y2="1.925" stroke="#4a5160" stroke-width="0.100" stroke-linecap="round" opacity="0.7"/><line x1="32.850" y1="-2.750" x2="34.900" y2="-2.750" stroke="#4a5160" stroke-width="0.100" stroke-linecap="round" opacity="0.7"/><line x1="32.850" y1="2.750" x2="32.850" y2="-2.750" stroke="#4a5160" stroke-width="0.100" stroke-linecap="round" opacity="0.7"/><line x1="32.850" y1="2.750" x2="34.900" y2="2.750" stroke="#4a5160" stroke-width="0.100" stroke-linecap="round" opacity="0.7"/><line x1="33.750" y1="0.000" x2="34.250" y2="0.000" stroke="#4a5160" stroke-width="0.100" stroke-linecap="round" opacity="0.7"/><line x1="34.250" y1="-1.100" x2="34.900" y2="-1.100" stroke="#4a5160" stroke-width="0.100" stroke-linecap="round" opacity="0.7"/><line x1="34.250" y1="0.000" x2="34.250" y2="-0.500" stroke="#4a5160" stroke-width="0.100" stroke-linecap="round" opacity="0.7"/><line x1="34.250" y1="0.000" x2="34.750" y2="0.000" stroke="#4a5160" stroke-width="0.100" stroke-linecap="round" opacity="0.7"/><line x1="34.250" y1="0.500" x2="34.250" y2="0.000" stroke="#4a5160" stroke-width="0.100" stroke-linecap="round" opacity="0.7"/><line x1="34.250" y1="1.100" x2="34.900" y2="1.100" stroke="#4a5160" stroke-width="0.100" stroke-linecap="round" opacity="0.7"/><line x1="34.900" y1="-1.100" x2="34.900" y2="-2.750" stroke="#4a5160" stroke-width="0.100" stroke-linecap="round" opacity="0.7"/><line x1="34.900" y1="2.750" x2="34.900" y2="1.100" stroke="#4a5160" stroke-width="0.100" stroke-linecap="round" opacity="0.7"/><line x1="-35.250" y1="-4.000" x2="35.250" y2="-4.000" stroke="#d24d4d" stroke-width="0.080" stroke-linecap="round" opacity="0.7"/><line x1="-35.250" y1="4.000" x2="-35.250" y2="-4.000" stroke="#d24d4d" stroke-width="0.080" stroke-linecap="round" opacity="0.7"/><line x1="-35.250" y1="4.000" x2="35.250" y2="4.000" stroke="#d24d4d" stroke-width="0.080" stroke-linecap="round" opacity="0.7"/><line x1="35.250" y1="4.000" x2="35.250" y2="-4.000" stroke="#d24d4d" stroke-width="0.080" stroke-linecap="round" opacity="0.7"/><line x1="-35.000" y1="-3.750" x2="35.000" y2="-3.750" stroke="#6b7280" stroke-width="0.100" stroke-linecap="round" opacity="0.8"/><line x1="-35.000" y1="-2.900" x2="-35.000" y2="-3.750" stroke="#6b7280" stroke-width="0.100" stroke-linecap="round" opacity="0.8"/><line x1="-35.000" y1="-2.900" x2="-34.800" y2="-2.700" stroke="#6b7280" stroke-width="0.100" stroke-linecap="round" opacity="0.8"/><line x1="-35.000" y1="-2.900" x2="-34.750" y2="-2.900" stroke="#6b7280" stroke-width="0.100" stroke-linecap="round" opacity="0.8"/><line x1="-35.000" y1="-0.800" x2="-34.800" y2="-1.000" stroke="#6b7280" stroke-width="0.100" stroke-linecap="round" opacity="0.8"/><line x1="-35.000" y1="-0.700" x2="-34.525" y2="-0.700" stroke="#6b7280" stroke-width="0.100" stroke-linecap="round" opacity="0.8"/><line x1="-35.000" y1="0.700" x2="-34.525" y2="0.700" stroke="#6b7280" stroke-width="0.100" stroke-linecap="round" opacity="0.8"/><line x1="-35.000" y1="0.800" x2="-35.000" y2="-0.800" stroke="#6b7280" stroke-width="0.100" stroke-linecap="round" opacity="0.8"/><line x1="-35.000" y1="0.800" x2="-34.800" y2="1.000" stroke="#6b7280" stroke-width="0.100" stroke-linecap="round" opacity="0.8"/><line x1="-35.000" y1="2.900" x2="-34.800" y2="2.700" stroke="#6b7280" stroke-width="0.100" stroke-linecap="round" opacity="0.8"/><line x1="-35.000" y1="2.900" x2="-34.750" y2="2.900" stroke="#6b7280" stroke-width="0.100" stroke-linecap="round" opacity="0.8"/><line x1="-35.000" y1="3.750" x2="-35.000" y2="2.900" stroke="#6b7280" stroke-width="0.100" stroke-linecap="round" opacity="0.8"/><line x1="-35.000" y1="3.750" x2="35.000" y2="3.750" stroke="#6b7280" stroke-width="0.100" stroke-linecap="round" opacity="0.8"/><line x1="-34.800" y1="-2.700" x2="-34.550" y2="-2.700" stroke="#6b7280" stroke-width="0.100" stroke-linecap="round" opacity="0.8"/><line x1="-34.800" y1="-1.000" x2="-34.525" y2="-1.000" stroke="#6b7280" stroke-width="0.100" stroke-linecap="round" opacity="0.8"/><line x1="-34.800" y1="1.000" x2="-34.525" y2="1.000" stroke="#6b7280" stroke-width="0.100" stroke-linecap="round" opacity="0.8"/><line x1="-34.800" y1="2.700" x2="-34.550" y2="2.700" stroke="#6b7280" stroke-width="0.100" stroke-linecap="round" opacity="0.8"/><line x1="-34.750" y1="-3.350" x2="-34.550" y2="-3.150" stroke="#6b7280" stroke-width="0.100" stroke-linecap="round" opacity="0.8"/><line x1="-34.750" y1="-3.350" x2="-34.000" y2="-3.350" stroke="#6b7280" stroke-width="0.100" stroke-linecap="round" opacity="0.8"/><line x1="-34.750" y1="-2.900" x2="-34.750" y2="-3.350" stroke="#6b7280" stroke-width="0.100" stroke-linecap="round" opacity="0.8"/><line x1="-34.750" y1="-2.900" x2="-34.550" y2="-2.700" stroke="#6b7280" stroke-width="0.100" stroke-linecap="round" opacity="0.8"/><line x1="-34.750" y1="2.900" x2="-34.550" y2="2.700" stroke="#6b7280" stroke-width="0.100" stroke-linecap="round" opacity="0.8"/><line x1="-34.750" y1="3.350" x2="-34.750" y2="2.900" stroke="#6b7280" stroke-width="0.100" stroke-linecap="round" opacity="0.8"/><line x1="-34.750" y1="3.350" x2="-34.550" y2="3.150" stroke="#6b7280" stroke-width="0.100" stroke-linecap="round" opacity="0.8"/><line x1="-34.750" y1="3.350" x2="-34.000" y2="3.350" stroke="#6b7280" stroke-width="0.100" stroke-linecap="round" opacity="0.8"/><line x1="-34.550" y1="-3.150" x2="-34.200" y2="-3.150" stroke="#6b7280" stroke-width="0.100" stroke-linecap="round" opacity="0.8"/><line x1="-34.550" y1="-2.700" x2="-34.550" y2="-3.150" stroke="#6b7280" stroke-width="0.100" stroke-linecap="round" opacity="0.8"/><line x1="-34.550" y1="3.150" x2="-34.550" y2="2.700" stroke="#6b7280" stroke-width="0.100" stroke-linecap="round" opacity="0.8"/><line x1="-34.550" y1="3.150" x2="-34.200" y2="3.150" stroke="#6b7280" stroke-width="0.100" stroke-linecap="round" opacity="0.8"/><line x1="-34.525" y1="3.150" x2="-34.525" y2="-3.150" stroke="#6b7280" stroke-width="0.100" stroke-linecap="round" opacity="0.8"/><line x1="-34.225" y1="3.150" x2="-34.225" y2="-3.150" stroke="#6b7280" stroke-width="0.100" stroke-linecap="round" opacity="0.8"/><line x1="-34.200" y1="-3.150" x2="-34.000" y2="-3.350" stroke="#6b7280" stroke-width="0.100" stroke-linecap="round" opacity="0.8"/><line x1="-34.200" y1="3.150" x2="-34.200" y2="-3.150" stroke="#6b7280" stroke-width="0.100" stroke-linecap="round" opacity="0.8"/><line x1="-34.200" y1="3.150" x2="-34.000" y2="3.350" stroke="#6b7280" stroke-width="0.100" stroke-linecap="round" opacity="0.8"/><line x1="-34.000" y1="3.350" x2="-34.000" y2="-3.350" stroke="#6b7280" stroke-width="0.100" stroke-linecap="round" opacity="0.8"/><line x1="-33.575" y1="-1.950" x2="-32.575" y2="-0.950" stroke="#6b7280" stroke-width="0.100" stroke-linecap="round" opacity="0.8"/><line x1="-33.575" y1="-1.950" x2="-31.700" y2="-1.950" stroke="#6b7280" stroke-width="0.100" stroke-linecap="round" opacity="0.8"/><line x1="-33.575" y1="1.950" x2="-33.575" y2="-1.950" stroke="#6b7280" stroke-width="0.100" stroke-linecap="round" opacity="0.8"/><line x1="-33.575" y1="1.950" x2="-32.575" y2="0.950" stroke="#6b7280" stroke-width="0.100" stroke-linecap="round" opacity="0.8"/><line x1="-33.575" y1="1.950" x2="-31.705" y2="1.950" stroke="#6b7280" stroke-width="0.100" stroke-linecap="round" opacity="0.8"/><line x1="-33.350" y1="-3.150" x2="-32.205" y2="-3.150" stroke="#6b7280" stroke-width="0.100" stroke-linecap="round" opacity="0.8"/><line x1="-33.350" y1="-2.950" x2="-32.205" y2="-2.950" stroke="#6b7280" stroke-width="0.100" stroke-linecap="round" opacity="0.8"/><line x1="-33.350" y1="-2.150" x2="-33.350" y2="-3.150" stroke="#6b7280" stroke-width="0.100" stroke-linecap="round" opacity="0.8"/><line x1="-33.350" y1="-2.150" x2="-32.205" y2="-2.150" stroke="#6b7280" stroke-width="0.100" stroke-linecap="round" opacity="0.8"/><line x1="-33.350" y1="2.150" x2="-32.205" y2="2.150" stroke="#6b7280" stroke-width="0.100" stroke-linecap="round" opacity="0.8"/><line x1="-33.350" y1="2.950" x2="-32.205" y2="2.950" stroke="#6b7280" stroke-width="0.100" stroke-linecap="round" opacity="0.8"/><line x1="-33.350" y1="3.150" x2="-33.350" y2="2.150" stroke="#6b7280" stroke-width="0.100" stroke-linecap="round" opacity="0.8"/><line x1="-33.350" y1="3.150" x2="-32.205" y2="3.150" stroke="#6b7280" stroke-width="0.100" stroke-linecap="round" opacity="0.8"/><line x1="-32.575" y1="-0.950" x2="32.575" y2="-0.950" stroke="#6b7280" stroke-width="0.100" stroke-linecap="round" opacity="0.8"/><line x1="-32.575" y1="0.950" x2="-32.575" y2="-0.950" stroke="#6b7280" stroke-width="0.100" stroke-linecap="round" opacity="0.8"/><line x1="-32.575" y1="0.950" x2="32.575" y2="0.950" stroke="#6b7280" stroke-width="0.100" stroke-linecap="round" opacity="0.8"/><line x1="-32.205" y1="-2.150" x2="-32.205" y2="-3.150" stroke="#6b7280" stroke-width="0.100" stroke-linecap="round" opacity="0.8"/><line x1="-32.205" y1="3.150" x2="-32.205" y2="2.150" stroke="#6b7280" stroke-width="0.100" stroke-linecap="round" opacity="0.8"/><line x1="-31.705" y1="-3.150" x2="-31.295" y2="-3.150" stroke="#6b7280" stroke-width="0.100" stroke-linecap="round" opacity="0.8"/><line x1="-31.705" y1="-1.250" x2="-31.705" y2="-3.150" stroke="#6b7280" stroke-width="0.100" stroke-linecap="round" opacity="0.8"/><line x1="-31.705" y1="1.250" x2="-31.295" y2="1.250" stroke="#6b7280" stroke-width="0.100" stroke-linecap="round" opacity="0.8"/><line x1="-31.705" y1="3.150" x2="-31.705" y2="1.250" stroke="#6b7280" stroke-width="0.100" stroke-linecap="round" opacity="0.8"/><line x1="-31.705" y1="3.150" x2="-31.295" y2="3.150" stroke="#6b7280" stroke-width="0.100" stroke-linecap="round" opacity="0.8"/><line x1="-31.700" y1="-1.250" x2="-31.290" y2="-1.250" stroke="#6b7280" stroke-width="0.100" stroke-linecap="round" opacity="0.8"/><line x1="-31.295" y1="-1.950" x2="-30.955" y2="-1.950" stroke="#6b7280" stroke-width="0.100" stroke-linecap="round" opacity="0.8"/><line x1="-31.295" y1="-1.250" x2="-31.295" y2="-3.150" stroke="#6b7280" stroke-width="0.100" stroke-linecap="round" opacity="0.8"/><line x1="-31.295" y1="1.950" x2="-30.955" y2="1.950" stroke="#6b7280" stroke-width="0.100" stroke-linecap="round" opacity="0.8"/><line x1="-31.295" y1="3.150" x2="-31.295" y2="1.250" stroke="#6b7280" stroke-width="0.100" stroke-linecap="round" opacity="0.8"/><line x1="-30.955" y1="-3.150" x2="-30.545" y2="-3.150" stroke="#6b7280" stroke-width="0.100" stroke-linecap="round" opacity="0.8"/><line x1="-30.955" y1="-1.250" x2="-30.955" y2="-3.150" stroke="#6b7280" stroke-width="0.100" stroke-linecap="round" opacity="0.8"/><line x1="-30.955" y1="-1.250" x2="-30.545" y2="-1.250" stroke="#6b7280" stroke-width="0.100" stroke-linecap="round" opacity="0.8"/><line x1="-30.955" y1="1.250" x2="-30.545" y2="1.250" stroke="#6b7280" stroke-width="0.100" stroke-linecap="round" opacity="0.8"/><line x1="-30.955" y1="3.150" x2="-30.955" y2="1.250" stroke="#6b7280" stroke-width="0.100" stroke-linecap="round" opacity="0.8"/><line x1="-30.955" y1="3.150" x2="-30.545" y2="3.150" stroke="#6b7280" stroke-width="0.100" stroke-linecap="round" opacity="0.8"/><line x1="-30.545" y1="-1.950" x2="30.550" y2="-1.950" stroke="#6b7280" stroke-width="0.100" stroke-linecap="round" opacity="0.8"/><line x1="-30.545" y1="-1.250" x2="-30.545" y2="-3.150" stroke="#6b7280" stroke-width="0.100" stroke-linecap="round" opacity="0.8"/><line x1="-30.545" y1="1.950" x2="30.545" y2="1.950" stroke="#6b7280" stroke-width="0.100" stroke-linecap="round" opacity="0.8"/><line x1="-30.545" y1="3.150" x2="-30.545" y2="1.250" stroke="#6b7280" stroke-width="0.100" stroke-linecap="round" opacity="0.8"/><line x1="30.545" y1="-3.150" x2="30.955" y2="-3.150" stroke="#6b7280" stroke-width="0.100" stroke-linecap="round" opacity="0.8"/><line x1="30.545" y1="-1.250" x2="30.545" y2="-3.150" stroke="#6b7280" stroke-width="0.100" stroke-linecap="round" opacity="0.8"/><line x1="30.545" y1="-1.250" x2="30.955" y2="-1.250" stroke="#6b7280" stroke-width="0.100" stroke-linecap="round" opacity="0.8"/><line x1="30.545" y1="1.250" x2="30.955" y2="1.250" stroke="#6b7280" stroke-width="0.100" stroke-linecap="round" opacity="0.8"/><line x1="30.545" y1="3.150" x2="30.545" y2="1.250" stroke="#6b7280" stroke-width="0.100" stroke-linecap="round" opacity="0.8"/><line x1="30.545" y1="3.150" x2="30.955" y2="3.150" stroke="#6b7280" stroke-width="0.100" stroke-linecap="round" opacity="0.8"/><line x1="30.955" y1="-1.950" x2="31.295" y2="-1.950" stroke="#6b7280" stroke-width="0.100" stroke-linecap="round" opacity="0.8"/><line x1="30.955" y1="-1.250" x2="30.955" y2="-3.150" stroke="#6b7280" stroke-width="0.100" stroke-linecap="round" opacity="0.8"/><line x1="30.955" y1="1.950" x2="31.295" y2="1.950" stroke="#6b7280" stroke-width="0.100" stroke-linecap="round" opacity="0.8"/><line x1="30.955" y1="3.150" x2="30.955" y2="1.250" stroke="#6b7280" stroke-width="0.100" stroke-linecap="round" opacity="0.8"/><line x1="31.295" y1="-3.150" x2="31.705" y2="-3.150" stroke="#6b7280" stroke-width="0.100" stroke-linecap="round" opacity="0.8"/><line x1="31.295" y1="-1.250" x2="31.295" y2="-3.150" stroke="#6b7280" stroke-width="0.100" stroke-linecap="round" opacity="0.8"/><line x1="31.295" y1="-1.250" x2="31.705" y2="-1.250" stroke="#6b7280" stroke-width="0.100" stroke-linecap="round" opacity="0.8"/><line x1="31.295" y1="1.250" x2="31.705" y2="1.250" stroke="#6b7280" stroke-width="0.100" stroke-linecap="round" opacity="0.8"/><line x1="31.295" y1="3.150" x2="31.295" y2="1.250" stroke="#6b7280" stroke-width="0.100" stroke-linecap="round" opacity="0.8"/><line x1="31.295" y1="3.150" x2="31.705" y2="3.150" stroke="#6b7280" stroke-width="0.100" stroke-linecap="round" opacity="0.8"/><line x1="31.705" y1="-1.950" x2="33.575" y2="-1.950" stroke="#6b7280" stroke-width="0.100" stroke-linecap="round" opacity="0.8"/><line x1="31.705" y1="-1.250" x2="31.705" y2="-3.150" stroke="#6b7280" stroke-width="0.100" stroke-linecap="round" opacity="0.8"/><line x1="31.705" y1="1.950" x2="33.575" y2="1.950" stroke="#6b7280" stroke-width="0.100" stroke-linecap="round" opacity="0.8"/><line x1="31.705" y1="3.150" x2="31.705" y2="1.250" stroke="#6b7280" stroke-width="0.100" stroke-linecap="round" opacity="0.8"/><line x1="32.205" y1="-3.150" x2="33.350" y2="-3.150" stroke="#6b7280" stroke-width="0.100" stroke-linecap="round" opacity="0.8"/><line x1="32.205" y1="-2.950" x2="33.350" y2="-2.950" stroke="#6b7280" stroke-width="0.100" stroke-linecap="round" opacity="0.8"/><line x1="32.205" y1="-2.150" x2="32.205" y2="-3.150" stroke="#6b7280" stroke-width="0.100" stroke-linecap="round" opacity="0.8"/><line x1="32.205" y1="-2.150" x2="33.350" y2="-2.150" stroke="#6b7280" stroke-width="0.100" stroke-linecap="round" opacity="0.8"/><line x1="32.205" y1="2.150" x2="33.350" y2="2.150" stroke="#6b7280" stroke-width="0.100" stroke-linecap="round" opacity="0.8"/><line x1="32.205" y1="2.950" x2="33.350" y2="2.950" stroke="#6b7280" stroke-width="0.100" stroke-linecap="round" opacity="0.8"/><line x1="32.205" y1="3.150" x2="32.205" y2="2.150" stroke="#6b7280" stroke-width="0.100" stroke-linecap="round" opacity="0.8"/><line x1="32.205" y1="3.150" x2="33.350" y2="3.150" stroke="#6b7280" stroke-width="0.100" stroke-linecap="round" opacity="0.8"/><line x1="32.575" y1="-0.950" x2="33.575" y2="-1.950" stroke="#6b7280" stroke-width="0.100" stroke-linecap="round" opacity="0.8"/><line x1="32.575" y1="0.950" x2="32.575" y2="-0.950" stroke="#6b7280" stroke-width="0.100" stroke-linecap="round" opacity="0.8"/><line x1="32.575" y1="0.950" x2="33.575" y2="1.950" stroke="#6b7280" stroke-width="0.100" stroke-linecap="round" opacity="0.8"/><line x1="33.350" y1="-2.150" x2="33.350" y2="-3.150" stroke="#6b7280" stroke-width="0.100" stroke-linecap="round" opacity="0.8"/><line x1="33.350" y1="3.150" x2="33.350" y2="2.150" stroke="#6b7280" stroke-width="0.100" stroke-linecap="round" opacity="0.8"/><line x1="33.575" y1="1.950" x2="33.575" y2="-1.950" stroke="#6b7280" stroke-width="0.100" stroke-linecap="round" opacity="0.8"/><line x1="34.000" y1="-3.350" x2="34.200" y2="-3.150" stroke="#6b7280" stroke-width="0.100" stroke-linecap="round" opacity="0.8"/><line x1="34.000" y1="-3.350" x2="34.750" y2="-3.350" stroke="#6b7280" stroke-width="0.100" stroke-linecap="round" opacity="0.8"/><line x1="34.000" y1="3.350" x2="34.000" y2="-3.350" stroke="#6b7280" stroke-width="0.100" stroke-linecap="round" opacity="0.8"/><line x1="34.000" y1="3.350" x2="34.200" y2="3.150" stroke="#6b7280" stroke-width="0.100" stroke-linecap="round" opacity="0.8"/><line x1="34.000" y1="3.350" x2="34.750" y2="3.350" stroke="#6b7280" stroke-width="0.100" stroke-linecap="round" opacity="0.8"/><line x1="34.200" y1="-3.150" x2="34.550" y2="-3.150" stroke="#6b7280" stroke-width="0.100" stroke-linecap="round" opacity="0.8"/><line x1="34.200" y1="3.150" x2="34.200" y2="-3.150" stroke="#6b7280" stroke-width="0.100" stroke-linecap="round" opacity="0.8"/><line x1="34.200" y1="3.150" x2="34.550" y2="3.150" stroke="#6b7280" stroke-width="0.100" stroke-linecap="round" opacity="0.8"/><line x1="34.225" y1="3.150" x2="34.225" y2="-3.150" stroke="#6b7280" stroke-width="0.100" stroke-linecap="round" opacity="0.8"/><line x1="34.525" y1="-1.000" x2="34.800" y2="-1.000" stroke="#6b7280" stroke-width="0.100" stroke-linecap="round" opacity="0.8"/><line x1="34.525" y1="-0.700" x2="35.000" y2="-0.700" stroke="#6b7280" stroke-width="0.100" stroke-linecap="round" opacity="0.8"/><line x1="34.525" y1="0.700" x2="35.000" y2="0.700" stroke="#6b7280" stroke-width="0.100" stroke-linecap="round" opacity="0.8"/><line x1="34.525" y1="1.000" x2="34.800" y2="1.000" stroke="#6b7280" stroke-width="0.100" stroke-linecap="round" opacity="0.8"/><line x1="34.525" y1="3.150" x2="34.525" y2="-3.150" stroke="#6b7280" stroke-width="0.100" stroke-linecap="round" opacity="0.8"/><line x1="34.550" y1="-3.150" x2="34.750" y2="-3.350" stroke="#6b7280" stroke-width="0.100" stroke-linecap="round" opacity="0.8"/><line x1="34.550" y1="-2.700" x2="34.550" y2="-3.150" stroke="#6b7280" stroke-width="0.100" stroke-linecap="round" opacity="0.8"/><line x1="34.550" y1="-2.700" x2="34.750" y2="-2.900" stroke="#6b7280" stroke-width="0.100" stroke-linecap="round" opacity="0.8"/><line x1="34.550" y1="-2.700" x2="34.800" y2="-2.700" stroke="#6b7280" stroke-width="0.100" stroke-linecap="round" opacity="0.8"/><line x1="34.550" y1="2.700" x2="34.750" y2="2.900" stroke="#6b7280" stroke-width="0.100" stroke-linecap="round" opacity="0.8"/><line x1="34.550" y1="2.700" x2="34.800" y2="2.700" stroke="#6b7280" stroke-width="0.100" stroke-linecap="round" opacity="0.8"/><line x1="34.550" y1="3.150" x2="34.550" y2="2.700" stroke="#6b7280" stroke-width="0.100" stroke-linecap="round" opacity="0.8"/><line x1="34.550" y1="3.150" x2="34.750" y2="3.350" stroke="#6b7280" stroke-width="0.100" stroke-linecap="round" opacity="0.8"/><line x1="34.750" y1="-2.900" x2="34.750" y2="-3.350" stroke="#6b7280" stroke-width="0.100" stroke-linecap="round" opacity="0.8"/><line x1="34.750" y1="-2.900" x2="35.000" y2="-2.900" stroke="#6b7280" stroke-width="0.100" stroke-linecap="round" opacity="0.8"/><line x1="34.750" y1="2.900" x2="35.000" y2="2.900" stroke="#6b7280" stroke-width="0.100" stroke-linecap="round" opacity="0.8"/><line x1="34.750" y1="3.350" x2="34.750" y2="2.900" stroke="#6b7280" stroke-width="0.100" stroke-linecap="round" opacity="0.8"/><line x1="34.800" y1="-2.700" x2="35.000" y2="-2.900" stroke="#6b7280" stroke-width="0.100" stroke-linecap="round" opacity="0.8"/><line x1="34.800" y1="-1.000" x2="35.000" y2="-0.800" stroke="#6b7280" stroke-width="0.100" stroke-linecap="round" opacity="0.8"/><line x1="34.800" y1="1.000" x2="35.000" y2="0.800" stroke="#6b7280" stroke-width="0.100" stroke-linecap="round" opacity="0.8"/><line x1="34.800" y1="2.700" x2="35.000" y2="2.900" stroke="#6b7280" stroke-width="0.100" stroke-linecap="round" opacity="0.8"/><line x1="35.000" y1="-2.900" x2="35.000" y2="-3.750" stroke="#6b7280" stroke-width="0.100" stroke-linecap="round" opacity="0.8"/><line x1="35.000" y1="0.800" x2="35.000" y2="-0.800" stroke="#6b7280" stroke-width="0.100" stroke-linecap="round" opacity="0.8"/><line x1="35.000" y1="3.750" x2="35.000" y2="2.900" stroke="#6b7280" stroke-width="0.100" stroke-linecap="round" opacity="0.8"/><path d="M -34.250 -1.100 A 1.100 1.100 0 1 1 -34.250 1.100" fill="none" stroke="#4a5160" stroke-width="0.12" opacity="0.7"/><path d="M 34.250 1.100 A 1.100 1.100 0 1 1 34.250 -1.100" fill="none" stroke="#4a5160" stroke-width="0.12" opacity="0.7"/><circle cx="31.525" cy="4.300" r="0.125" fill="none" stroke="#e6e9ef" stroke-width="0.12" opacity="1"/><circle cx="-34.250" cy="0.000" r="0.600" fill="none" stroke="#4a5160" stroke-width="0.12" opacity="0.7"/><rect x="-34.900" y="2.750" width="0.000" height="0.000" rx="0.000" fill="#c79b5c"/><circle cx="-34.250" cy="0.000" r="0.250" fill="none" stroke="#6b7280" stroke-width="0.1"/><circle cx="34.250" cy="0.000" r="0.250" fill="none" stroke="#6b7280" stroke-width="0.1"/><rect x="34.900" y="-2.750" width="0.000" height="0.000" rx="0.000" fill="#c79b5c"/><rect x="31.300" y="1.925" width="0.400" height="1.150" rx="0.000" fill="#c79b5c"/><rect x="30.550" y="1.925" width="0.400" height="1.150" rx="0.000" fill="#c79b5c"/><rect x="29.800" y="1.925" width="0.400" height="1.150" rx="0.000" fill="#c79b5c"/><rect x="29.050" y="1.925" width="0.400" height="1.150" rx="0.000" fill="#c79b5c"/><rect x="28.300" y="1.925" width="0.400" height="1.150" rx="0.000" fill="#c79b5c"/><rect x="27.550" y="1.925" width="0.400" height="1.150" rx="0.000" fill="#c79b5c"/><rect x="26.800" y="1.925" width="0.400" height="1.150" rx="0.000" fill="#c79b5c"/><rect x="26.050" y="1.925" width="0.400" height="1.150" rx="0.000" fill="#c79b5c"/><rect x="25.300" y="1.925" width="0.400" height="1.150" rx="0.000" fill="#c79b5c"/><rect x="24.550" y="1.925" width="0.400" height="1.150" rx="0.000" fill="#c79b5c"/><rect x="23.800" y="1.925" width="0.400" height="1.150" rx="0.000" fill="#c79b5c"/><rect x="23.050" y="1.925" width="0.400" height="1.150" rx="0.000" fill="#c79b5c"/><rect x="22.300" y="1.925" width="0.400" height="1.150" rx="0.000" fill="#c79b5c"/><rect x="21.550" y="1.925" width="0.400" height="1.150" rx="0.000" fill="#c79b5c"/><rect x="20.800" y="1.925" width="0.400" height="1.150" rx="0.000" fill="#c79b5c"/><rect x="20.050" y="1.925" width="0.400" height="1.150" rx="0.000" fill="#c79b5c"/><rect x="19.300" y="1.925" width="0.400" height="1.150" rx="0.000" fill="#c79b5c"/><rect x="18.550" y="1.925" width="0.400" height="1.150" rx="0.000" fill="#c79b5c"/><rect x="17.800" y="1.925" width="0.400" height="1.150" rx="0.000" fill="#c79b5c"/><rect x="17.050" y="1.925" width="0.400" height="1.150" rx="0.000" fill="#c79b5c"/><rect x="16.300" y="1.925" width="0.400" height="1.150" rx="0.000" fill="#c79b5c"/><rect x="15.550" y="1.925" width="0.400" height="1.150" rx="0.000" fill="#c79b5c"/><rect x="14.800" y="1.925" width="0.400" height="1.150" rx="0.000" fill="#c79b5c"/><rect x="14.050" y="1.925" width="0.400" height="1.150" rx="0.000" fill="#c79b5c"/><rect x="13.300" y="1.925" width="0.400" height="1.150" rx="0.000" fill="#c79b5c"/><rect x="12.550" y="1.925" width="0.400" height="1.150" rx="0.000" fill="#c79b5c"/><rect x="11.800" y="1.925" width="0.400" height="1.150" rx="0.000" fill="#c79b5c"/><rect x="11.050" y="1.925" width="0.400" height="1.150" rx="0.000" fill="#c79b5c"/><rect x="10.300" y="1.925" width="0.400" height="1.150" rx="0.000" fill="#c79b5c"/><rect x="9.550" y="1.925" width="0.400" height="1.150" rx="0.000" fill="#c79b5c"/><rect x="8.800" y="1.925" width="0.400" height="1.150" rx="0.000" fill="#c79b5c"/><rect x="8.050" y="1.925" width="0.400" height="1.150" rx="0.000" fill="#c79b5c"/><rect x="7.300" y="1.925" width="0.400" height="1.150" rx="0.000" fill="#c79b5c"/><rect x="6.550" y="1.925" width="0.400" height="1.150" rx="0.000" fill="#c79b5c"/><rect x="5.800" y="1.925" width="0.400" height="1.150" rx="0.000" fill="#c79b5c"/><rect x="5.050" y="1.925" width="0.400" height="1.150" rx="0.000" fill="#c79b5c"/><rect x="4.300" y="1.925" width="0.400" height="1.150" rx="0.000" fill="#c79b5c"/><rect x="3.550" y="1.925" width="0.400" height="1.150" rx="0.000" fill="#c79b5c"/><rect x="2.800" y="1.925" width="0.400" height="1.150" rx="0.000" fill="#c79b5c"/><rect x="2.050" y="1.925" width="0.400" height="1.150" rx="0.000" fill="#c79b5c"/><rect x="1.300" y="1.925" width="0.400" height="1.150" rx="0.000" fill="#c79b5c"/><rect x="0.550" y="1.925" width="0.400" height="1.150" rx="0.000" fill="#c79b5c"/><rect x="-0.200" y="1.925" width="0.400" height="1.150" rx="0.000" fill="#c79b5c"/><rect x="-0.950" y="1.925" width="0.400" height="1.150" rx="0.000" fill="#c79b5c"/><rect x="-1.700" y="1.925" width="0.400" height="1.150" rx="0.000" fill="#c79b5c"/><rect x="-2.450" y="1.925" width="0.400" height="1.150" rx="0.000" fill="#c79b5c"/><rect x="-3.200" y="1.925" width="0.400" height="1.150" rx="0.000" fill="#c79b5c"/><rect x="-3.950" y="1.925" width="0.400" height="1.150" rx="0.000" fill="#c79b5c"/><rect x="-4.700" y="1.925" width="0.400" height="1.150" rx="0.000" fill="#c79b5c"/><rect x="-5.450" y="1.925" width="0.400" height="1.150" rx="0.000" fill="#c79b5c"/><rect x="-6.200" y="1.925" width="0.400" height="1.150" rx="0.000" fill="#c79b5c"/><rect x="-6.950" y="1.925" width="0.400" height="1.150" rx="0.000" fill="#c79b5c"/><rect x="-7.700" y="1.925" width="0.400" height="1.150" rx="0.000" fill="#c79b5c"/><rect x="-8.450" y="1.925" width="0.400" height="1.150" rx="0.000" fill="#c79b5c"/><rect x="-9.200" y="1.925" width="0.400" height="1.150" rx="0.000" fill="#c79b5c"/><rect x="-9.950" y="1.925" width="0.400" height="1.150" rx="0.000" fill="#c79b5c"/><rect x="-10.700" y="1.925" width="0.400" height="1.150" rx="0.000" fill="#c79b5c"/><rect x="-11.450" y="1.925" width="0.400" height="1.150" rx="0.000" fill="#c79b5c"/><rect x="-12.200" y="1.925" width="0.400" height="1.150" rx="0.000" fill="#c79b5c"/><rect x="-12.950" y="1.925" width="0.400" height="1.150" rx="0.000" fill="#c79b5c"/><rect x="-13.700" y="1.925" width="0.400" height="1.150" rx="0.000" fill="#c79b5c"/><rect x="-14.450" y="1.925" width="0.400" height="1.150" rx="0.000" fill="#c79b5c"/><rect x="-15.200" y="1.925" width="0.400" height="1.150" rx="0.000" fill="#c79b5c"/><rect x="-15.950" y="1.925" width="0.400" height="1.150" rx="0.000" fill="#c79b5c"/><rect x="-16.700" y="1.925" width="0.400" height="1.150" rx="0.000" fill="#c79b5c"/><rect x="-17.450" y="1.925" width="0.400" height="1.150" rx="0.000" fill="#c79b5c"/><rect x="-18.200" y="1.925" width="0.400" height="1.150" rx="0.000" fill="#c79b5c"/><rect x="-18.950" y="1.925" width="0.400" height="1.150" rx="0.000" fill="#c79b5c"/><rect x="-19.700" y="1.925" width="0.400" height="1.150" rx="0.000" fill="#c79b5c"/><rect x="-20.450" y="1.925" width="0.400" height="1.150" rx="0.000" fill="#c79b5c"/><rect x="-21.200" y="1.925" width="0.400" height="1.150" rx="0.000" fill="#c79b5c"/><rect x="-21.950" y="1.925" width="0.400" height="1.150" rx="0.000" fill="#c79b5c"/><rect x="-22.700" y="1.925" width="0.400" height="1.150" rx="0.000" fill="#c79b5c"/><rect x="-23.450" y="1.925" width="0.400" height="1.150" rx="0.000" fill="#c79b5c"/><rect x="-24.200" y="1.925" width="0.400" height="1.150" rx="0.000" fill="#c79b5c"/><rect x="-24.950" y="1.925" width="0.400" height="1.150" rx="0.000" fill="#c79b5c"/><rect x="-25.700" y="1.925" width="0.400" height="1.150" rx="0.000" fill="#c79b5c"/><rect x="-26.450" y="1.925" width="0.400" height="1.150" rx="0.000" fill="#c79b5c"/><rect x="-27.200" y="1.925" width="0.400" height="1.150" rx="0.000" fill="#c79b5c"/><rect x="-27.950" y="1.925" width="0.400" height="1.150" rx="0.000" fill="#c79b5c"/><rect x="-28.700" y="1.925" width="0.400" height="1.150" rx="0.000" fill="#c79b5c"/><rect x="-29.450" y="1.925" width="0.400" height="1.150" rx="0.000" fill="#c79b5c"/><rect x="-30.200" y="1.925" width="0.400" height="1.150" rx="0.000" fill="#c79b5c"/><rect x="-30.950" y="1.925" width="0.400" height="1.150" rx="0.000" fill="#c79b5c"/><rect x="-31.700" y="1.925" width="0.400" height="1.150" rx="0.000" fill="#c79b5c"/><rect x="-31.700" y="-3.075" width="0.400" height="1.150" rx="0.000" fill="#c79b5c"/><rect x="-30.950" y="-3.075" width="0.400" height="1.150" rx="0.000" fill="#c79b5c"/><rect x="-30.200" y="-3.075" width="0.400" height="1.150" rx="0.000" fill="#c79b5c"/><rect x="-29.450" y="-3.075" width="0.400" height="1.150" rx="0.000" fill="#c79b5c"/><rect x="-28.700" y="-3.075" width="0.400" height="1.150" rx="0.000" fill="#c79b5c"/><rect x="-27.950" y="-3.075" width="0.400" height="1.150" rx="0.000" fill="#c79b5c"/><rect x="-27.200" y="-3.075" width="0.400" height="1.150" rx="0.000" fill="#c79b5c"/><rect x="-26.450" y="-3.075" width="0.400" height="1.150" rx="0.000" fill="#c79b5c"/><rect x="-25.700" y="-3.075" width="0.400" height="1.150" rx="0.000" fill="#c79b5c"/><rect x="-24.950" y="-3.075" width="0.400" height="1.150" rx="0.000" fill="#c79b5c"/><rect x="-24.200" y="-3.075" width="0.400" height="1.150" rx="0.000" fill="#c79b5c"/><rect x="-23.450" y="-3.075" width="0.400" height="1.150" rx="0.000" fill="#c79b5c"/><rect x="-22.700" y="-3.075" width="0.400" height="1.150" rx="0.000" fill="#c79b5c"/><rect x="-21.950" y="-3.075" width="0.400" height="1.150" rx="0.000" fill="#c79b5c"/><rect x="-21.200" y="-3.075" width="0.400" height="1.150" rx="0.000" fill="#c79b5c"/><rect x="-20.450" y="-3.075" width="0.400" height="1.150" rx="0.000" fill="#c79b5c"/><rect x="-19.700" y="-3.075" width="0.400" height="1.150" rx="0.000" fill="#c79b5c"/><rect x="-18.950" y="-3.075" width="0.400" height="1.150" rx="0.000" fill="#c79b5c"/><rect x="-18.200" y="-3.075" width="0.400" height="1.150" rx="0.000" fill="#c79b5c"/><rect x="-17.450" y="-3.075" width="0.400" height="1.150" rx="0.000" fill="#c79b5c"/><rect x="-16.700" y="-3.075" width="0.400" height="1.150" rx="0.000" fill="#c79b5c"/><rect x="-15.950" y="-3.075" width="0.400" height="1.150" rx="0.000" fill="#c79b5c"/><rect x="-15.200" y="-3.075" width="0.400" height="1.150" rx="0.000" fill="#c79b5c"/><rect x="-14.450" y="-3.075" width="0.400" height="1.150" rx="0.000" fill="#c79b5c"/><rect x="-13.700" y="-3.075" width="0.400" height="1.150" rx="0.000" fill="#c79b5c"/><rect x="-12.950" y="-3.075" width="0.400" height="1.150" rx="0.000" fill="#c79b5c"/><rect x="-12.200" y="-3.075" width="0.400" height="1.150" rx="0.000" fill="#c79b5c"/><rect x="-11.450" y="-3.075" width="0.400" height="1.150" rx="0.000" fill="#c79b5c"/><rect x="-10.700" y="-3.075" width="0.400" height="1.150" rx="0.000" fill="#c79b5c"/><rect x="-9.950" y="-3.075" width="0.400" height="1.150" rx="0.000" fill="#c79b5c"/><rect x="-9.200" y="-3.075" width="0.400" height="1.150" rx="0.000" fill="#c79b5c"/><rect x="-8.450" y="-3.075" width="0.400" height="1.150" rx="0.000" fill="#c79b5c"/><rect x="-7.700" y="-3.075" width="0.400" height="1.150" rx="0.000" fill="#c79b5c"/><rect x="-6.950" y="-3.075" width="0.400" height="1.150" rx="0.000" fill="#c79b5c"/><rect x="-6.200" y="-3.075" width="0.400" height="1.150" rx="0.000" fill="#c79b5c"/><rect x="-5.450" y="-3.075" width="0.400" height="1.150" rx="0.000" fill="#c79b5c"/><rect x="-4.700" y="-3.075" width="0.400" height="1.150" rx="0.000" fill="#c79b5c"/><rect x="-3.950" y="-3.075" width="0.400" height="1.150" rx="0.000" fill="#c79b5c"/><rect x="-3.200" y="-3.075" width="0.400" height="1.150" rx="0.000" fill="#c79b5c"/><rect x="-2.450" y="-3.075" width="0.400" height="1.150" rx="0.000" fill="#c79b5c"/><rect x="-1.700" y="-3.075" width="0.400" height="1.150" rx="0.000" fill="#c79b5c"/><rect x="-0.950" y="-3.075" width="0.400" height="1.150" rx="0.000" fill="#c79b5c"/><rect x="-0.200" y="-3.075" width="0.400" height="1.150" rx="0.000" fill="#c79b5c"/><rect x="0.550" y="-3.075" width="0.400" height="1.150" rx="0.000" fill="#c79b5c"/><rect x="1.300" y="-3.075" width="0.400" height="1.150" rx="0.000" fill="#c79b5c"/><rect x="2.050" y="-3.075" width="0.400" height="1.150" rx="0.000" fill="#c79b5c"/><rect x="2.800" y="-3.075" width="0.400" height="1.150" rx="0.000" fill="#c79b5c"/><rect x="3.550" y="-3.075" width="0.400" height="1.150" rx="0.000" fill="#c79b5c"/><rect x="4.300" y="-3.075" width="0.400" height="1.150" rx="0.000" fill="#c79b5c"/><rect x="5.050" y="-3.075" width="0.400" height="1.150" rx="0.000" fill="#c79b5c"/><rect x="5.800" y="-3.075" width="0.400" height="1.150" rx="0.000" fill="#c79b5c"/><rect x="6.550" y="-3.075" width="0.400" height="1.150" rx="0.000" fill="#c79b5c"/><rect x="7.300" y="-3.075" width="0.400" height="1.150" rx="0.000" fill="#c79b5c"/><rect x="8.050" y="-3.075" width="0.400" height="1.150" rx="0.000" fill="#c79b5c"/><rect x="8.800" y="-3.075" width="0.400" height="1.150" rx="0.000" fill="#c79b5c"/><rect x="9.550" y="-3.075" width="0.400" height="1.150" rx="0.000" fill="#c79b5c"/><rect x="10.300" y="-3.075" width="0.400" height="1.150" rx="0.000" fill="#c79b5c"/><rect x="11.050" y="-3.075" width="0.400" height="1.150" rx="0.000" fill="#c79b5c"/><rect x="11.800" y="-3.075" width="0.400" height="1.150" rx="0.000" fill="#c79b5c"/><rect x="12.550" y="-3.075" width="0.400" height="1.150" rx="0.000" fill="#c79b5c"/><rect x="13.300" y="-3.075" width="0.400" height="1.150" rx="0.000" fill="#c79b5c"/><rect x="14.050" y="-3.075" width="0.400" height="1.150" rx="0.000" fill="#c79b5c"/><rect x="14.800" y="-3.075" width="0.400" height="1.150" rx="0.000" fill="#c79b5c"/><rect x="15.550" y="-3.075" width="0.400" height="1.150" rx="0.000" fill="#c79b5c"/><rect x="16.300" y="-3.075" width="0.400" height="1.150" rx="0.000" fill="#c79b5c"/><rect x="17.050" y="-3.075" width="0.400" height="1.150" rx="0.000" fill="#c79b5c"/><rect x="17.800" y="-3.075" width="0.400" height="1.150" rx="0.000" fill="#c79b5c"/><rect x="18.550" y="-3.075" width="0.400" height="1.150" rx="0.000" fill="#c79b5c"/><rect x="19.300" y="-3.075" width="0.400" height="1.150" rx="0.000" fill="#c79b5c"/><rect x="20.050" y="-3.075" width="0.400" height="1.150" rx="0.000" fill="#c79b5c"/><rect x="20.800" y="-3.075" width="0.400" height="1.150" rx="0.000" fill="#c79b5c"/><rect x="21.550" y="-3.075" width="0.400" height="1.150" rx="0.000" fill="#c79b5c"/><rect x="22.300" y="-3.075" width="0.400" height="1.150" rx="0.000" fill="#c79b5c"/><rect x="23.050" y="-3.075" width="0.400" height="1.150" rx="0.000" fill="#c79b5c"/><rect x="23.800" y="-3.075" width="0.400" height="1.150" rx="0.000" fill="#c79b5c"/><rect x="24.550" y="-3.075" width="0.400" height="1.150" rx="0.000" fill="#c79b5c"/><rect x="25.300" y="-3.075" width="0.400" height="1.150" rx="0.000" fill="#c79b5c"/><rect x="26.050" y="-3.075" width="0.400" height="1.150" rx="0.000" fill="#c79b5c"/><rect x="26.800" y="-3.075" width="0.400" height="1.150" rx="0.000" fill="#c79b5c"/><rect x="27.550" y="-3.075" width="0.400" height="1.150" rx="0.000" fill="#c79b5c"/><rect x="28.300" y="-3.075" width="0.400" height="1.150" rx="0.000" fill="#c79b5c"/><rect x="29.050" y="-3.075" width="0.400" height="1.150" rx="0.000" fill="#c79b5c"/><rect x="29.800" y="-3.075" width="0.400" height="1.150" rx="0.000" fill="#c79b5c"/><rect x="30.550" y="-3.075" width="0.400" height="1.150" rx="0.000" fill="#c79b5c"/><rect x="31.300" y="-3.075" width="0.400" height="1.150" rx="0.000" fill="#c79b5c"/></svg>