<svg xmlns="http://www.w3.org/2000/svg" viewBox="-6.35 -3.79 12.70 8.38" preserveAspectRatio="xMidYMid meet" style="width:100%;height:100%"><rect x="-6.35" y="-3.79" width="12.70" height="8.38" fill="#12151c"/><line x1="-5.100" y1="-2.500" x2="0.356" y2="-2.500" stroke="#e6e9ef" stroke-width="0.200" stroke-linecap="round" opacity="1"/><line x1="-5.100" y1="1.890" x2="-3.810" y2="1.890" stroke="#e6e9ef" stroke-width="0.200" stroke-linecap="round" opacity="1"/><line x1="-5.100" y1="2.490" x2="-3.810" y2="2.490" stroke="#e6e9ef" stroke-width="0.200" stroke-linecap="round" opacity="1"/><line x1="-5.100" y1="3.340" x2="-5.100" y2="-2.500" stroke="#e6e9ef" stroke-width="0.200" stroke-linecap="round" opacity="1"/><line x1="-5.100" y1="3.340" x2="5.100" y2="3.340" stroke="#e6e9ef" stroke-width="0.200" stroke-linecap="round" opacity="1"/><line x1="-3.810" y1="1.440" x2="1.270" y2="1.440" stroke="#e6e9ef" stroke-width="0.200" stroke-linecap="round" opacity="1"/><line x1="-3.810" y1="2.140" x2="1.270" y2="2.140" stroke="#e6e9ef" stroke-width="0.200" stroke-linecap="round" opacity="1"/><line x1="-3.810" y1="3.340" x2="-3.810" y2="1.440" stroke="#e6e9ef" stroke-width="0.200" stroke-linecap="round" opacity="1"/><line x1="1.270" y1="1.890" x2="5.100" y2="1.890" stroke="#e6e9ef" stroke-width="0.200" stroke-linecap="round" opacity="1"/><line x1="1.270" y1="2.490" x2="5.100" y2="2.490" stroke="#e6e9ef" stroke-width="0.200" stroke-linecap="round" opacity="1"/><line x1="1.270" y1="3.340" x2="1.270" y2="1.440" stroke="#e6e9ef" stroke-width="0.200" stroke-linecap="round" opacity="1"/><line x1="2.184" y1="-2.500" x2="5.100" y2="-2.500" stroke="#e6e9ef" stroke-width="0.200" stroke-linecap="round" opacity="1"/><line x1="5.100" y1="3.340" x2="5.100" y2="-2.500" stroke="#e6e9ef" stroke-width="0.200" stroke-linecap="round" opacity="1"/><line x1="-4.010" y1="0.000" x2="-3.810" y2="0.000" stroke="#4a5160" stroke-width="0.080" stroke-linecap="round" opacity="0.7"/><line x1="-3.810" y1="0.000" x2="-3.810" y2="-0.200" stroke="#4a5160" stroke-width="0.080" stroke-linecap="round" opacity="0.7"/><line x1="-3.810" y1="0.000" x2="-3.610" y2="0.000" stroke="#4a5160" stroke-width="0.080" stroke-linecap="round" opacity="0.7"/><line x1="-3.810" y1="0.200" x2="-3.810" y2="0.000" stroke="#4a5160" stroke-width="0.080" stroke-linecap="round" opacity="0.7"/><line x1="-1.470" y1="0.000" x2="-1.270" y2="0.000" stroke="#4a5160" stroke-width="0.080" stroke-linecap="round" opacity="0.7"/><line x1="-1.270" y1="0.000" x2="-1.270" y2="-0.200" stroke="#4a5160" stroke-width="0.080" stroke-linecap="round" opacity="0.7"/><line x1="-1.270" y1="0.000" x2="-1.070" y2="0.000" stroke="#4a5160" stroke-width="0.080" stroke-linecap="round" opacity="0.7"/><line x1="-1.270" y1="0.200" x2="-1.270" y2="0.000" stroke="#4a5160" stroke-width="0.080" stroke-linecap="round" opacity="0.7"/><line x1="-0.500" y1="0.000" x2="0.000" y2="0.000" stroke="#4a5160" stroke-width="0.080" stroke-linecap="round" opacity="0.7"/><line x1="0.000" y1="0.000" x2="0.000" y2="-0.500" stroke="#4a5160" stroke-width="0.080" stroke-linecap="round" opacity="0.7"/><line x1="0.000" y1="0.000" x2="0.500" y2="0.000" stroke="#4a5160" stroke-width="0.080" stroke-linecap="round" opacity="0.7"/><line x1="0.000" y1="0.500" x2="0.000" y2="0.000" stroke="#4a5160" stroke-width="0.080" stroke-linecap="round" opacity="0.7"/><line x1="1.070" y1="-2.160" x2="1.270" y2="-2.160" stroke="#4a5160" stroke-width="0.080" stroke-linecap="round" opacity="0.7"/><line x1="1.070" y1="0.000" x2="1.270" y2="0.000" stroke="#4a5160" stroke-width="0.080" stroke-linecap="round" opacity="0.7"/><line x1="1.270" y1="-2.160" x2="1.270" y2="-2.360" stroke="#4a5160" stroke-width="0.080" stroke-linecap="round" opacity="0.7"/><line x1="1.270" y1="-2.160" x2="1.470" y2="-2.160" stroke="#4a5160" stroke-width="0.080" stroke-linecap="round" opacity="0.7"/><line x1="1.270" y1="-1.960" x2="1.270" y2="-2.160" stroke="#4a5160" stroke-width="0.080" stroke-linecap="round" opacity="0.7"/><line x1="1.270" y1="0.000" x2="1.270" y2="-0.200" stroke="#4a5160" stroke-width="0.080" stroke-linecap="round" opacity="0.7"/><line x1="1.270" y1="0.000" x2="1.470" y2="0.000" stroke="#4a5160" stroke-width="0.080" stroke-linecap="round" opacity="0.7"/><line x1="1.270" y1="0.200" x2="1.270" y2="0.000" stroke="#4a5160" stroke-width="0.080" stroke-linecap="round" opacity="0.7"/><line x1="3.610" y1="0.000" x2="3.810" y2="0.000" stroke="#4a5160" stroke-width="0.080" stroke-linecap="round" opacity="0.7"/><line x1="3.810" y1="0.000" x2="3.810" y2="-0.200" stroke="#4a5160" stroke-width="0.080" stroke-linecap="round" opacity="0.7"/><line x1="3.810" y1="0.000" x2="4.010" y2="0.000" stroke="#4a5160" stroke-width="0.080" stroke-linecap="round" opacity="0.7"/><line x1="3.810" y1="0.200" x2="3.810" y2="0.000" stroke="#4a5160" stroke-width="0.080" stroke-linecap="round" opacity="0.7"/><line x1="-5.100" y1="-2.500" x2="5.100" y2="-2.500" stroke="#6b7280" stroke-width="0.100" stroke-linecap="round" opacity="0.8"/><line x1="-5.100" y1="1.890" x2="-3.810" y2="1.890" stroke="#6b7280" stroke-width="0.100" stroke-linecap="round" opacity="0.8"/><line x1="-5.100" y1="2.490" x2="-3.810" y2="2.490" stroke="#6b7280" stroke-width="0.100" stroke-linecap="round" opacity="0.8"/><line x1="-5.100" y1="3.340" x2="-5.100" y2="-2.500" stroke="#6b7280" stroke-width="0.100" stroke-linecap="round" opacity="0.8"/><line x1="-5.100" y1="3.340" x2="5.100" y2="3.340" stroke="#6b7280" stroke-width="0.100" stroke-linecap="round" opacity="0.8"/><line x1="-4.135" y1="-0.285" x2="-3.485" y2="-0.285" stroke="#6b7280" stroke-width="0.080" stroke-linecap="round" opacity="0.8"/><line x1="-4.135" y1="0.365" x2="-4.135" y2="-0.285" stroke="#6b7280" stroke-width="0.080" stroke-linecap="round" opacity="0.8"/><line x1="-4.135" y1="0.365" x2="-3.485" y2="0.365" stroke="#6b7280" stroke-width="0.080" stroke-linecap="round" opacity="0.8"/><line x1="-3.810" y1="1.440" x2="1.270" y2="1.440" stroke="#6b7280" stroke-width="0.100" stroke-linecap="round" opacity="0.8"/><line x1="-3.810" y1="2.140" x2="1.270" y2="2.140" stroke="#6b7280" stroke-width="0.100" stroke-linecap="round" opacity="0.8"/><line x1="-3.810" y1="3.340" x2="-3.810" y2="1.440" stroke="#6b7280" stroke-width="0.100" stroke-linecap="round" opacity="0.8"/><line x1="-3.485" y1="0.365" x2="-3.485" y2="-0.285" stroke="#6b7280" stroke-width="0.080" stroke-linecap="round" opacity="0.8"/><line x1="-1.595" y1="-0.285" x2="-0.945" y2="-0.285" stroke="#6b7280" stroke-width="0.080" stroke-linecap="round" opacity="0.8"/><line x1="-1.595" y1="0.365" x2="-1.595" y2="-0.285" stroke="#6b7280" stroke-width="0.080" stroke-linecap="round" opacity="0.8"/><line x1="-1.595" y1="0.365" x2="-0.945" y2="0.365" stroke="#6b7280" stroke-width="0.080" stroke-linecap="round" opacity="0.8"/><line x1="-0.945" y1="0.365" x2="-0.945" y2="-0.285" stroke="#6b7280" stroke-width="0.080" stroke-linecap="round" opacity="0.8"/><line x1="0.945" y1="-0.285" x2="1.595" y2="-0.285" stroke="#6b7280" stroke-width="0.080" stroke-linecap="round" opacity="0.8"/><line x1="0.945" y1="0.365" x2="0.945" y2="-0.285" stroke="#6b7280" stroke-width="0.080" stroke-linecap="round" opacity="0.8"/><line x1="0.945" y1="0.365" x2="1.595" y2="0.365" stroke="#6b7280" stroke-width="0.080" stroke-linecap="round" opacity="0.8"/><line x1="1.270" y1="1.890" x2="5.100" y2="1.890" stroke="#6b7280" stroke-width="0.100" stroke-linecap="round" opacity="0.8"/><line x1="1.270" y1="2.490" x2="5.100" y2="2.490" stroke="#6b7280" stroke-width="0.100" stroke-linecap="round" opacity="0.8"/><line x1="1.270" y1="3.340" x2="1.270" y2="1.440" stroke="#6b7280" stroke-width="0.100" stroke-linecap="round" opacity="0.8"/><line x1="1.595" y1="0.365" x2="1.595" y2="-0.285" stroke="#6b7280" stroke-width="0.080" stroke-linecap="round" opacity="0.8"/><line x1="3.485" y1="-0.285" x2="4.135" y2="-0.285" stroke="#6b7280" stroke-width="0.080" stroke-linecap="round" opacity="0.8"/><line x1="3.485" y1="0.365" x2="3.485" y2="-0.285" stroke="#6b7280" stroke-width="0.080" stroke-linecap="round" opacity="0.8"/><line x1="3.485" y1="0.365" x2="4.135" y2="0.365" stroke="#6b7280" stroke-width="0.080" stroke-linecap="round" opacity="0.8"/><line x1="4.135" y1="0.365" x2="4.135" y2="-0.285" stroke="#6b7280" stroke-width="0.080" stroke-linecap="round" opacity="0.8"/><line x1="5.100" y1="3.340" x2="5.100" y2="-2.500" stroke="#6b7280" stroke-width="0.100" stroke-linecap="round" opacity="0.8"/><line x1="-5.350" y1="-2.750" x2="5.350" y2="-2.750" stroke="#d24d4d" stroke-width="0.080" stroke-linecap="round" opacity="0.7"/><line x1="5.350" y1="-2.750" x2="5.350" y2="3.590" stroke="#d24d4d" stroke-width="0.080" stroke-linecap="round" opacity="0.7"/><line x1="5.350" y1="3.590" x2="-5.350" y2="3.590" stroke="#d24d4d" stroke-width="0.080" stroke-linecap="round" opacity="0.7"/><line x1="-5.350" y1="3.590" x2="-5.350" y2="-2.750" stroke="#d24d4d" stroke-width="0.080" stroke-linecap="round" opacity="0.7"/><circle cx="-3.810" cy="0.000" r="0.900" fill="none" stroke="#4a5160" stroke-width="0.12" opacity="0.7"/><circle cx="-3.810" cy="0.000" r="0.550" fill="none" stroke="#4a5160" stroke-width="0.12" opacity="0.7"/><circle cx="-1.270" cy="0.000" r="0.900" fill="none" stroke="#4a5160" stroke-width="0.12" opacity="0.7"/><circle cx="-1.270" cy="0.000" r="0.550" fill="none" stroke="#4a5160" stroke-width="0.12" opacity="0.7"/><circle cx="1.270" cy="-2.160" r="0.625" fill="none" stroke="#4a5160" stroke-width="0.12" opacity="0.7"/><circle cx="1.270" cy="0.000" r="0.900" fill="none" stroke="#4a5160" stroke-width="0.12" opacity="0.7"/><circle cx="1.270" cy="0.000" r="0.550" fill="none" stroke="#4a5160" stroke-width="0.12" opacity="0.7"/><circle cx="3.810" cy="0.000" r="0.900" fill="none" stroke="#4a5160" stroke-width="0.12" opacity="0.7"/><circle cx="3.810" cy="0.000" r="0.550" fill="none" stroke="#4a5160" stroke-width="0.12" opacity="0.7"/><circle cx="1.270" cy="-2.160" r="0.125" fill="none" stroke="#6b7280" stroke-width="0.1"/><rect x="-4.710" y="-0.900" width="1.800" height="1.800" rx="0.900" fill="#c79b5c"/><circle cx="-3.810" cy="0.000" r="0.550" fill="#12151c"/><rect x="-2.170" y="-0.900" width="1.800" height="1.800" rx="0.900" fill="#c79b5c"/><circle cx="-1.270" cy="0.000" r="0.550" fill="#12151c"/><rect x="0.370" y="-0.900" width="1.800" height="1.800" rx="0.900" fill="#c79b5c"/><circle cx="1.270" cy="0.000" r="0.550" fill="#12151c"/><rect x="2.910" y="-0.900" width="1.800" height="1.800" rx="0.900" fill="#c79b5c"/><circle cx="3.810" cy="0.000" r="0.550" fill="#12151c"/></svg>