<svg xmlns="http://www.w3.org/2000/svg" viewBox="-10.10 -4.35 20.20 7.80" preserveAspectRatio="xMidYMid meet" style="width:100%;height:100%"><rect x="-10.10" y="-4.35" width="20.20" height="7.80" fill="#12151c"/><line x1="-8.852" y1="0.598" x2="-8.852" y2="2.202" stroke="#e6e9ef" stroke-width="0.203" stroke-linecap="round" opacity="1"/><line x1="-8.852" y1="2.202" x2="8.852" y2="2.202" stroke="#e6e9ef" stroke-width="0.203" stroke-linecap="round" opacity="1"/><line x1="-8.052" y1="-0.474" x2="-8.052" y2="0.598" stroke="#e6e9ef" stroke-width="0.203" stroke-linecap="round" opacity="1"/><line x1="-8.052" y1="0.598" x2="-8.852" y2="0.598" stroke="#e6e9ef" stroke-width="0.203" stroke-linecap="round" opacity="1"/><line x1="8.052" y1="-0.474" x2="8.052" y2="0.598" stroke="#e6e9ef" stroke-width="0.203" stroke-linecap="round" opacity="1"/><line x1="8.052" y1="0.598" x2="8.852" y2="0.598" stroke="#e6e9ef" stroke-width="0.203" stroke-linecap="round" opacity="1"/><line x1="8.852" y1="0.598" x2="8.852" y2="2.202" stroke="#e6e9ef" stroke-width="0.203" stroke-linecap="round" opacity="1"/><line x1="-8.750" y1="0.700" x2="-8.750" y2="2.100" stroke="#6b7280" stroke-width="0.080" stroke-linecap="round" opacity="0.8"/><line x1="-8.750" y1="2.100" x2="8.750" y2="2.100" stroke="#6b7280" stroke-width="0.080" stroke-linecap="round" opacity="0.8"/><line x1="-7.950" y1="-2.100" x2="-7.950" y2="0.700" stroke="#6b7280" stroke-width="0.080" stroke-linecap="round" opacity="0.8"/><line x1="-7.950" y1="0.700" x2="-8.750" y2="0.700" stroke="#6b7280" stroke-width="0.080" stroke-linecap="round" opacity="0.8"/><line x1="7.950" y1="-2.100" x2="-7.950" y2="-2.100" stroke="#6b7280" stroke-width="0.080" stroke-linecap="round" opacity="0.8"/><line x1="7.950" y1="0.700" x2="7.950" y2="-2.100" stroke="#6b7280" stroke-width="0.080" stroke-linecap="round" opacity="0.8"/><line x1="8.750" y1="0.700" x2="7.950" y2="0.700" stroke="#6b7280" stroke-width="0.080" stroke-linecap="round" opacity="0.8"/><line x1="8.750" y1="2.100" x2="8.750" y2="0.700" stroke="#6b7280" stroke-width="0.080" stroke-linecap="round" opacity="0.8"/><line x1="-9.100" y1="-3.350" x2="9.100" y2="-3.350" stroke="#d24d4d" stroke-width="0.080" stroke-linecap="round" opacity="0.7"/><line x1="9.100" y1="-3.350" x2="9.100" y2="2.450" stroke="#d24d4d" stroke-width="0.080" stroke-linecap="round" opacity="0.7"/><line x1="9.100" y1="2.450" x2="-9.100" y2="2.450" stroke="#d24d4d" stroke-width="0.080" stroke-linecap="round" opacity="0.7"/><line x1="-9.100" y1="2.450" x2="-9.100" y2="-3.350" stroke="#d24d4d" stroke-width="0.080" stroke-linecap="round" opacity="0.7"/><circle cx="6.250" cy="-2.750" r="0.100" fill="none" stroke="#e6e9ef" stroke-width="0.12" opacity="1"/><polygon points="-8.650,-0.910 -7.950,-0.910 -7.950,-1.590 -8.650,-1.590" fill="#6b7280" opacity="0.8" fill-opacity="0.35" stroke="#6b7280" stroke-width="0.08"/><polygon points="-5.840,-2.100 -5.660,-2.100 -5.660,-2.800 -5.840,-2.800" fill="#6b7280" opacity="0.8" fill-opacity="0.35" stroke="#6b7280" stroke-width="0.08"/><polygon points="-5.340,-2.100 -5.160,-2.100 -5.160,-2.800 -5.340,-2.800" fill="#6b7280" opacity="0.8" fill-opacity="0.35" stroke="#6b7280" stroke-width="0.08"/><polygon points="-4.840,-2.100 -4.660,-2.100 -4.660,-2.800 -4.840,-2.800" fill="#6b7280" opacity="0.8" fill-opacity="0.35" stroke="#6b7280" stroke-width="0.08"/><polygon points="-4.340,-2.100 -4.160,-2.100 -4.160,-2.800 -4.340,-2.800" fill="#6b7280" opacity="0.8" fill-opacity="0.35" stroke="#6b7280" stroke-width="0.08"/><polygon points="-3.840,-2.100 -3.660,-2.100 -3.660,-2.800 -3.840,-2.800" fill="#6b7280" opacity="0.8" fill-opacity="0.35" stroke="#6b7280" stroke-width="0.08"/><polygon points="-3.340,-2.100 -3.160,-2.100 -3.160,-2.800 -3.340,-2.800" fill="#6b7280" opacity="0.8" fill-opacity="0.35" stroke="#6b7280" stroke-width="0.08"/><polygon points="-2.840,-2.100 -2.660,-2.100 -2.660,-2.800 -2.840,-2.800" fill="#6b7280" opacity="0.8" fill-opacity="0.35" stroke="#6b7280" stroke-width="0.08"/><polygon points="-2.340,-2.100 -2.160,-2.100 -2.160,-2.800 -2.340,-2.800" fill="#6b7280" opacity="0.8" fill-opacity="0.35" stroke="#6b7280" stroke-width="0.08"/><polygon points="-1.840,-2.100 -1.660,-2.100 -1.660,-2.800 -1.840,-2.800" fill="#6b7280" opacity="0.8" fill-opacity="0.35" stroke="#6b7280" stroke-width="0.08"/><polygon points="-1.340,-2.100 -1.160,-2.100 -1.160,-2.800 -1.340,-2.800" fill="#6b7280" opacity="0.8" fill-opacity="0.35" stroke="#6b7280" stroke-width="0.08"/><polygon points="-0.840,-2.100 -0.660,-2.100 -0.660,-2.800 -0.840,-2.800" fill="#6b7280" opacity="0.8" fill-opacity="0.35" stroke="#6b7280" stroke-width="0.08"/><polygon points="-0.340,-2.100 -0.160,-2.100 -0.160,-2.800 -0.340,-2.800" fill="#6b7280" opacity="0.8" fill-opacity="0.35" stroke="#6b7280" stroke-width="0.08"/><polygon points="0.160,-2.100 0.340,-2.100 0.340,-2.800 0.160,-2.800" fill="#6b7280" opacity="0.8" fill-opacity="0.35" stroke="#6b7280" stroke-width="0.08"/><polygon points="0.660,-2.100 0.840,-2.100 0.840,-2.800 0.660,-2.800" fill="#6b7280" opacity="0.8" fill-opacity="0.35" stroke="#6b7280" stroke-width="0.08"/><polygon points="1.160,-2.100 1.340,-2.100 1.340,-2.800 1.160,-2.800" fill="#6b7280" opacity="0.8" fill-opacity="0.35" stroke="#6b7280" stroke-width="0.08"/><polygon points="1.660,-2.100 1.840,-2.100 1.840,-2.800 1.660,-2.800" fill="#6b7280" opacity="0.8" fill-opacity="0.35" stroke="#6b7280" stroke-width="0.08"/><polygon points="2.160,-2.100 2.340,-2.100 2.340,-2.800 2.160,-2.800" fill="#6b7280" opacity="0.8" fill-opacity="0.35" stroke="#6b7280" stroke-width="0.08"/><polygon points="2.660,-2.100 2.840,-2.100 2.840,-2.800 2.660,-2.800" fill="#6b7280" opacity="0.8" fill-opacity="0.35" stroke="#6b7280" stroke-width="0.08"/><polygon points="3.160,-2.100 3.340,-2.100 3.340,-2.800 3.160,-2.800" fill="#6b7280" opacity="0.8" fill-opacity="0.35" stroke="#6b7280" stroke-width="0.08"/><polygon points="3.660,-2.100 3.840,-2.100 3.840,-2.800 3.660,-2.800" fill="#6b7280" opacity="0.8" fill-opacity="0.35" stroke="#6b7280" stroke-width="0.08"/><polygon points="4.160,-2.100 4.340,-2.100 4.340,-2.800 4.160,-2.800" fill="#6b7280" opacity="0.8" fill-opacity="0.35" stroke="#6b7280" stroke-width="0.08"/><polygon points="4.660,-2.100 4.840,-2.100 4.840,-2.800 4.660,-2.800" fill="#6b7280" opacity="0.8" fill-opacity="0.35" stroke="#6b7280" stroke-width="0.08"/><polygon points="5.160,-2.100 5.340,-2.100 5.340,-2.800 5.160,-2.800" fill="#6b7280" opacity="0.8" fill-opacity="0.35" stroke="#6b7280" stroke-width="0.08"/><polygon points="5.660,-2.100 5.840,-2.100 5.840,-2.800 5.660,-2.800" fill="#6b7280" opacity="0.8" fill-opacity="0.35" stroke="#6b7280" stroke-width="0.08"/><polygon points="7.950,-0.910 8.650,-0.910 8.650,-1.590 7.950,-1.590" fill="#6b7280" opacity="0.8" fill-opacity="0.35" stroke="#6b7280" stroke-width="0.08"/><rect x="5.600" y="-3.100" width="0.300" height="1.400" rx="0.000" fill="#c79b5c"/><rect x="5.100" y="-3.100" width="0.300" height="1.400" rx="0.000" fill="#c79b5c"/><rect x="4.600" y="-3.100" width="0.300" height="1.400" rx="0.000" fill="#c79b5c"/><rect x="4.100" y="-3.100" width="0.300" height="1.400" rx="0.000" fill="#c79b5c"/><rect x="3.600" y="-3.100" width="0.300" height="1.400" rx="0.000" fill="#c79b5c"/><rect x="3.100" y="-3.100" width="0.300" height="1.400" rx="0.000" fill="#c79b5c"/><rect x="2.600" y="-3.100" width="0.300" height="1.400" rx="0.000" fill="#c79b5c"/><rect x="2.100" y="-3.100" width="0.300" height="1.400" rx="0.000" fill="#c79b5c"/><rect x="1.600" y="-3.100" width="0.300" height="1.400" rx="0.000" fill="#c79b5c"/><rect x="1.100" y="-3.100" width="0.300" height="1.400" rx="0.000" fill="#c79b5c"/><rect x="0.600" y="-3.100" width="0.300" height="1.400" rx="0.000" fill="#c79b5c"/><rect x="0.100" y="-3.100" width="0.300" height="1.400" rx="0.000" fill="#c79b5c"/><rect x="-0.400" y="-3.100" width="0.300" height="1.400" rx="0.000" fill="#c79b5c"/><rect x="-0.900" y="-3.100" width="0.300" height="1.400" rx="0.000" fill="#c79b5c"/><rect x="-1.400" y="-3.100" width="0.300" height="1.400" rx="0.000" fill="#c79b5c"/><rect x="-1.900" y="-3.100" width="0.300" height="1.400" rx="0.000" fill="#c79b5c"/><rect x="-2.400" y="-3.100" width="0.300" height="1.400" rx="0.000" fill="#c79b5c"/><rect x="-2.900" y="-3.100" width="0.300" height="1.400" rx="0.000" fill="#c79b5c"/><rect x="-3.400" y="-3.100" width="0.300" height="1.400" rx="0.000" fill="#c79b5c"/><rect x="-3.900" y="-3.100" width="0.300" height="1.400" rx="0.000" fill="#c79b5c"/><rect x="-4.400" y="-3.100" width="0.300" height="1.400" rx="0.000" fill="#c79b5c"/><rect x="-4.900" y="-3.100" width="0.300" height="1.400" rx="0.000" fill="#c79b5c"/><rect x="-5.400" y="-3.100" width="0.300" height="1.400" rx="0.000" fill="#c79b5c"/><rect x="-5.900" y="-3.100" width="0.300" height="1.400" rx="0.000" fill="#c79b5c"/><rect x="-7.450" y="-2.300" width="1.250" height="2.300" rx="0.000" fill="#c79b5c"/><rect x="6.200" y="-2.300" width="1.250" height="2.300" rx="0.000" fill="#c79b5c"/></svg>