<svg xmlns="http://www.w3.org/2000/svg" viewBox="-8.30 -6.25 16.85 13.50" preserveAspectRatio="xMidYMid meet" style="width:100%;height:100%"><rect x="-8.30" y="-6.25" width="16.85" height="13.50" fill="#12151c"/><line x1="-6.900" y1="-3.200" x2="-6.900" y2="-4.700" stroke="#e6e9ef" stroke-width="0.200" stroke-linecap="round" opacity="1"/><line x1="-6.900" y1="4.300" x2="-6.900" y2="-2.400" stroke="#e6e9ef" stroke-width="0.200" stroke-linecap="round" opacity="1"/><line x1="-6.600" y1="-5.000" x2="6.600" y2="-5.000" stroke="#e6e9ef" stroke-width="0.200" stroke-linecap="round" opacity="1"/><line x1="-6.600" y1="4.600" x2="6.600" y2="4.600" stroke="#e6e9ef" stroke-width="0.200" stroke-linecap="round" opacity="1"/><line x1="-5.950" y1="-3.850" x2="-5.066" y2="-3.850" stroke="#e6e9ef" stroke-width="0.200" stroke-linecap="round" opacity="1"/><line x1="-5.950" y1="-0.350" x2="-5.950" y2="-3.850" stroke="#e6e9ef" stroke-width="0.200" stroke-linecap="round" opacity="1"/><line x1="-5.950" y1="-0.350" x2="-2.450" y2="-0.350" stroke="#e6e9ef" stroke-width="0.200" stroke-linecap="round" opacity="1"/><line x1="-5.950" y1="1.150" x2="-5.150" y2="0.350" stroke="#e6e9ef" stroke-width="0.200" stroke-linecap="round" opacity="1"/><line x1="-5.950" y1="3.850" x2="-5.950" y2="1.150" stroke="#e6e9ef" stroke-width="0.200" stroke-linecap="round" opacity="1"/><line x1="-5.950" y1="3.850" x2="-5.066" y2="3.850" stroke="#e6e9ef" stroke-width="0.200" stroke-linecap="round" opacity="1"/><line x1="-5.150" y1="0.350" x2="-3.250" y2="0.350" stroke="#e6e9ef" stroke-width="0.200" stroke-linecap="round" opacity="1"/><line x1="-3.334" y1="-3.850" x2="-2.450" y2="-3.850" stroke="#e6e9ef" stroke-width="0.200" stroke-linecap="round" opacity="1"/><line x1="-3.334" y1="3.850" x2="-2.450" y2="3.850" stroke="#e6e9ef" stroke-width="0.200" stroke-linecap="round" opacity="1"/><line x1="-3.250" y1="0.350" x2="-2.450" y2="1.150" stroke="#e6e9ef" stroke-width="0.200" stroke-linecap="round" opacity="1"/><line x1="-2.450" y1="-0.350" x2="-2.450" y2="-3.850" stroke="#e6e9ef" stroke-width="0.200" stroke-linecap="round" opacity="1"/><line x1="-2.450" y1="3.850" x2="-2.450" y2="1.150" stroke="#e6e9ef" stroke-width="0.200" stroke-linecap="round" opacity="1"/><line x1="-1.750" y1="-3.050" x2="-0.950" y2="-3.850" stroke="#e6e9ef" stroke-width="0.200" stroke-linecap="round" opacity="1"/><line x1="-1.750" y1="-0.350" x2="-1.750" y2="-3.050" stroke="#e6e9ef" stroke-width="0.200" stroke-linecap="round" opacity="1"/><line x1="-1.750" y1="-0.350" x2="1.750" y2="-0.350" stroke="#e6e9ef" stroke-width="0.200" stroke-linecap="round" opacity="1"/><line x1="-1.750" y1="0.350" x2="1.750" y2="0.350" stroke="#e6e9ef" stroke-width="0.200" stroke-linecap="round" opacity="1"/><line x1="-1.750" y1="3.850" x2="-1.750" y2="0.350" stroke="#e6e9ef" stroke-width="0.200" stroke-linecap="round" opacity="1"/><line x1="-1.750" y1="3.850" x2="-0.866" y2="3.850" stroke="#e6e9ef" stroke-width="0.200" stroke-linecap="round" opacity="1"/><line x1="-1.700" y1="6.000" x2="-1.700" y2="4.600" stroke="#e6e9ef" stroke-width="0.200" stroke-linecap="round" opacity="1"/><line x1="-1.700" y1="6.000" x2="1.700" y2="6.000" stroke="#e6e9ef" stroke-width="0.200" stroke-linecap="round" opacity="1"/><line x1="-0.950" y1="-3.850" x2="-0.866" y2="-3.850" stroke="#e6e9ef" stroke-width="0.200" stroke-linecap="round" opacity="1"/><line x1="0.866" y1="-3.850" x2="0.950" y2="-3.850" stroke="#e6e9ef" stroke-width="0.200" stroke-linecap="round" opacity="1"/><line x1="0.866" y1="3.850" x2="1.750" y2="3.850" stroke="#e6e9ef" stroke-width="0.200" stroke-linecap="round" opacity="1"/><line x1="0.950" y1="-3.850" x2="1.750" y2="-3.050" stroke="#e6e9ef" stroke-width="0.200" stroke-linecap="round" opacity="1"/><line x1="1.700" y1="6.000" x2="1.700" y2="4.600" stroke="#e6e9ef" stroke-width="0.200" stroke-linecap="round" opacity="1"/><line x1="1.750" y1="-0.350" x2="1.750" y2="-3.050" stroke="#e6e9ef" stroke-width="0.200" stroke-linecap="round" opacity="1"/><line x1="1.750" y1="3.850" x2="1.750" y2="0.350" stroke="#e6e9ef" stroke-width="0.200" stroke-linecap="round" opacity="1"/><line x1="2.450" y1="-3.050" x2="3.250" y2="-3.850" stroke="#e6e9ef" stroke-width="0.200" stroke-linecap="round" opacity="1"/><line x1="2.450" y1="-0.350" x2="2.450" y2="-3.050" stroke="#e6e9ef" stroke-width="0.200" stroke-linecap="round" opacity="1"/><line x1="2.450" y1="-0.350" x2="5.950" y2="-0.350" stroke="#e6e9ef" stroke-width="0.200" stroke-linecap="round" opacity="1"/><line x1="2.450" y1="0.350" x2="5.950" y2="0.350" stroke="#e6e9ef" stroke-width="0.200" stroke-linecap="round" opacity="1"/><line x1="2.450" y1="3.850" x2="2.450" y2="0.350" stroke="#e6e9ef" stroke-width="0.200" stroke-linecap="round" opacity="1"/><line x1="2.450" y1="3.850" x2="3.334" y2="3.850" stroke="#e6e9ef" stroke-width="0.200" stroke-linecap="round" opacity="1"/><line x1="3.250" y1="-3.850" x2="3.334" y2="-3.850" stroke="#e6e9ef" stroke-width="0.200" stroke-linecap="round" opacity="1"/><line x1="5.066" y1="-3.850" x2="5.150" y2="-3.850" stroke="#e6e9ef" stroke-width="0.200" stroke-linecap="round" opacity="1"/><line x1="5.066" y1="3.850" x2="5.950" y2="3.850" stroke="#e6e9ef" stroke-width="0.200" stroke-linecap="round" opacity="1"/><line x1="5.150" y1="-3.850" x2="5.950" y2="-3.050" stroke="#e6e9ef" stroke-width="0.200" stroke-linecap="round" opacity="1"/><line x1="5.950" y1="-0.350" x2="5.950" y2="-3.050" stroke="#e6e9ef" stroke-width="0.200" stroke-linecap="round" opacity="1"/><line x1="5.950" y1="3.850" x2="5.950" y2="0.350" stroke="#e6e9ef" stroke-width="0.200" stroke-linecap="round" opacity="1"/><line x1="6.900" y1="1.600" x2="6.900" y2="-4.700" stroke="#e6e9ef" stroke-width="0.200" stroke-linecap="round" opacity="1"/><line x1="6.900" y1="1.600" x2="7.300" y2="1.936" stroke="#e6e9ef" stroke-width="0.200" stroke-linecap="round" opacity="1"/><line x1="6.900" y1="3.600" x2="7.300" y2="3.264" stroke="#e6e9ef" stroke-width="0.200" stroke-linecap="round" opacity="1"/><line x1="6.900" y1="4.300" x2="6.900" y2="3.600" stroke="#e6e9ef" stroke-width="0.200" stroke-linecap="round" opacity="1"/><line x1="7.300" y1="3.264" x2="7.300" y2="1.936" stroke="#e6e9ef" stroke-width="0.200" stroke-linecap="round" opacity="1"/><line x1="-5.200" y1="-2.750" x2="-4.200" y2="-2.750" stroke="#4a5160" stroke-width="0.100" stroke-linecap="round" opacity="0.7"/><line x1="-5.200" y1="2.750" x2="-4.200" y2="2.750" stroke="#4a5160" stroke-width="0.100" stroke-linecap="round" opacity="0.7"/><line x1="-4.200" y1="-2.750" x2="-4.200" y2="-3.750" stroke="#4a5160" stroke-width="0.100" stroke-linecap="round" opacity="0.7"/><line x1="-4.200" y1="-2.750" x2="-3.200" y2="-2.750" stroke="#4a5160" stroke-width="0.100" stroke-linecap="round" opacity="0.7"/><line x1="-4.200" y1="-1.750" x2="-4.200" y2="-2.750" stroke="#4a5160" stroke-width="0.100" stroke-linecap="round" opacity="0.7"/><line x1="-4.200" y1="2.750" x2="-4.200" y2="1.750" stroke="#4a5160" stroke-width="0.100" stroke-linecap="round" opacity="0.7"/><line x1="-4.200" y1="2.750" x2="-3.200" y2="2.750" stroke="#4a5160" stroke-width="0.100" stroke-linecap="round" opacity="0.7"/><line x1="-4.200" y1="3.750" x2="-4.200" y2="2.750" stroke="#4a5160" stroke-width="0.100" stroke-linecap="round" opacity="0.7"/><line x1="-1.000" y1="-2.750" x2="0.000" y2="-2.750" stroke="#4a5160" stroke-width="0.100" stroke-linecap="round" opacity="0.7"/><line x1="-1.000" y1="0.000" x2="0.000" y2="0.000" stroke="#4a5160" stroke-width="0.100" stroke-linecap="round" opacity="0.7"/><line x1="-1.000" y1="2.750" x2="0.000" y2="2.750" stroke="#4a5160" stroke-width="0.100" stroke-linecap="round" opacity="0.7"/><line x1="0.000" y1="-2.750" x2="0.000" y2="-3.750" stroke="#4a5160" stroke-width="0.100" stroke-linecap="round" opacity="0.7"/><line x1="0.000" y1="-2.750" x2="1.000" y2="-2.750" stroke="#4a5160" stroke-width="0.100" stroke-linecap="round" opacity="0.7"/><line x1="0.000" y1="-1.750" x2="0.000" y2="-2.750" stroke="#4a5160" stroke-width="0.100" stroke-linecap="round" opacity="0.7"/><line x1="0.000" y1="0.000" x2="0.000" y2="-1.000" stroke="#4a5160" stroke-width="0.100" stroke-linecap="round" opacity="0.7"/><line x1="0.000" y1="0.000" x2="1.000" y2="0.000" stroke="#4a5160" stroke-width="0.100" stroke-linecap="round" opacity="0.7"/><line x1="0.000" y1="1.000" x2="0.000" y2="0.000" stroke="#4a5160" stroke-width="0.100" stroke-linecap="round" opacity="0.7"/><line x1="0.000" y1="2.750" x2="0.000" y2="1.750" stroke="#4a5160" stroke-width="0.100" stroke-linecap="round" opacity="0.7"/><line x1="0.000" y1="2.750" x2="1.000" y2="2.750" stroke="#4a5160" stroke-width="0.100" stroke-linecap="round" opacity="0.7"/><line x1="0.000" y1="3.750" x2="0.000" y2="2.750" stroke="#4a5160" stroke-width="0.100" stroke-linecap="round" opacity="0.7"/><line x1="3.200" y1="-2.750" x2="4.200" y2="-2.750" stroke="#4a5160" stroke-width="0.100" stroke-linecap="round" opacity="0.7"/><line x1="3.200" y1="2.750" x2="4.200" y2="2.750" stroke="#4a5160" stroke-width="0.100" stroke-linecap="round" opacity="0.7"/><line x1="4.200" y1="-2.750" x2="4.200" y2="-3.750" stroke="#4a5160" stroke-width="0.100" stroke-linecap="round" opacity="0.7"/><line x1="4.200" y1="-2.750" x2="5.200" y2="-2.750" stroke="#4a5160" stroke-width="0.100" stroke-linecap="round" opacity="0.7"/><line x1="4.200" y1="-1.750" x2="4.200" y2="-2.750" stroke="#4a5160" stroke-width="0.100" stroke-linecap="round" opacity="0.7"/><line x1="4.200" y1="2.750" x2="4.200" y2="1.750" stroke="#4a5160" stroke-width="0.100" stroke-linecap="round" opacity="0.7"/><line x1="4.200" y1="2.750" x2="5.200" y2="2.750" stroke="#4a5160" stroke-width="0.100" stroke-linecap="round" opacity="0.7"/><line x1="4.200" y1="3.750" x2="4.200" y2="2.750" stroke="#4a5160" stroke-width="0.100" stroke-linecap="round" opacity="0.7"/><line x1="-6.900" y1="-3.200" x2="-6.900" y2="-4.700" stroke="#6b7280" stroke-width="0.100" stroke-linecap="round" opacity="0.8"/><line x1="-6.900" y1="4.300" x2="-6.900" y2="-2.400" stroke="#6b7280" stroke-width="0.100" stroke-linecap="round" opacity="0.8"/><line x1="-6.600" y1="-5.000" x2="6.600" y2="-5.000" stroke="#6b7280" stroke-width="0.100" stroke-linecap="round" opacity="0.8"/><line x1="-6.600" y1="4.600" x2="6.600" y2="4.600" stroke="#6b7280" stroke-width="0.100" stroke-linecap="round" opacity="0.8"/><line x1="-5.950" y1="-3.850" x2="-2.450" y2="-3.850" stroke="#6b7280" stroke-width="0.100" stroke-linecap="round" opacity="0.8"/><line x1="-5.950" y1="-0.350" x2="-5.950" y2="-3.850" stroke="#6b7280" stroke-width="0.100" stroke-linecap="round" opacity="0.8"/><line x1="-5.950" y1="-0.350" x2="-2.450" y2="-0.350" stroke="#6b7280" stroke-width="0.100" stroke-linecap="round" opacity="0.8"/><line x1="-5.950" y1="1.150" x2="-5.150" y2="0.350" stroke="#6b7280" stroke-width="0.100" stroke-linecap="round" opacity="0.8"/><line x1="-5.950" y1="3.850" x2="-5.950" y2="1.150" stroke="#6b7280" stroke-width="0.100" stroke-linecap="round" opacity="0.8"/><line x1="-5.950" y1="3.850" x2="-2.450" y2="3.850" stroke="#6b7280" stroke-width="0.100" stroke-linecap="round" opacity="0.8"/><line x1="-5.150" y1="0.350" x2="-3.250" y2="0.350" stroke="#6b7280" stroke-width="0.100" stroke-linecap="round" opacity="0.8"/><line x1="-3.250" y1="0.350" x2="-2.450" y2="1.150" stroke="#6b7280" stroke-width="0.100" stroke-linecap="round" opacity="0.8"/><line x1="-2.450" y1="-0.350" x2="-2.450" y2="-3.850" stroke="#6b7280" stroke-width="0.100" stroke-linecap="round" opacity="0.8"/><line x1="-2.450" y1="3.850" x2="-2.450" y2="1.150" stroke="#6b7280" stroke-width="0.100" stroke-linecap="round" opacity="0.8"/><line x1="-1.750" y1="-3.050" x2="-0.950" y2="-3.850" stroke="#6b7280" stroke-width="0.100" stroke-linecap="round" opacity="0.8"/><line x1="-1.750" y1="-0.350" x2="-1.750" y2="-3.050" stroke="#6b7280" stroke-width="0.100" stroke-linecap="round" opacity="0.8"/><line x1="-1.750" y1="-0.350" x2="1.750" y2="-0.350" stroke="#6b7280" stroke-width="0.100" stroke-linecap="round" opacity="0.8"/><line x1="-1.750" y1="0.350" x2="1.750" y2="0.350" stroke="#6b7280" stroke-width="0.100" stroke-linecap="round" opacity="0.8"/><line x1="-1.750" y1="3.850" x2="-1.750" y2="0.350" stroke="#6b7280" stroke-width="0.100" stroke-linecap="round" opacity="0.8"/><line x1="-1.750" y1="3.850" x2="1.750" y2="3.850" stroke="#6b7280" stroke-width="0.100" stroke-linecap="round" opacity="0.8"/><line x1="-1.700" y1="6.000" x2="-1.700" y2="4.600" stroke="#6b7280" stroke-width="0.100" stroke-linecap="round" opacity="0.8"/><line x1="-1.700" y1="6.000" x2="1.700" y2="6.000" stroke="#6b7280" stroke-width="0.100" stroke-linecap="round" opacity="0.8"/><line x1="-0.950" y1="-3.850" x2="0.950" y2="-3.850" stroke="#6b7280" stroke-width="0.100" stroke-linecap="round" opacity="0.8"/><line x1="0.950" y1="-3.850" x2="1.750" y2="-3.050" stroke="#6b7280" stroke-width="0.100" stroke-linecap="round" opacity="0.8"/><line x1="1.700" y1="6.000" x2="1.700" y2="4.600" stroke="#6b7280" stroke-width="0.100" stroke-linecap="round" opacity="0.8"/><line x1="1.750" y1="-0.350" x2="1.750" y2="-3.050" stroke="#6b7280" stroke-width="0.100" stroke-linecap="round" opacity="0.8"/><line x1="1.750" y1="3.850" x2="1.750" y2="0.350" stroke="#6b7280" stroke-width="0.100" stroke-linecap="round" opacity="0.8"/><line x1="2.450" y1="-3.050" x2="3.250" y2="-3.850" stroke="#6b7280" stroke-width="0.100" stroke-linecap="round" opacity="0.8"/><line x1="2.450" y1="-0.350" x2="2.450" y2="-3.050" stroke="#6b7280" stroke-width="0.100" stroke-linecap="round" opacity="0.8"/><line x1="2.450" y1="-0.350" x2="5.950" y2="-0.350" stroke="#6b7280" stroke-width="0.100" stroke-linecap="round" opacity="0.8"/><line x1="2.450" y1="0.350" x2="5.950" y2="0.350" stroke="#6b7280" stroke-width="0.100" stroke-linecap="round" opacity="0.8"/><line x1="2.450" y1="3.850" x2="2.450" y2="0.350" stroke="#6b7280" stroke-width="0.100" stroke-linecap="round" opacity="0.8"/><line x1="2.450" y1="3.850" x2="5.950" y2="3.850" stroke="#6b7280" stroke-width="0.100" stroke-linecap="round" opacity="0.8"/><line x1="3.250" y1="-3.850" x2="5.150" y2="-3.850" stroke="#6b7280" stroke-width="0.100" stroke-linecap="round" opacity="0.8"/><line x1="5.150" y1="-3.850" x2="5.950" y2="-3.050" stroke="#6b7280" stroke-width="0.100" stroke-linecap="round" opacity="0.8"/><line x1="5.950" y1="-0.350" x2="5.950" y2="-3.050" stroke="#6b7280" stroke-width="0.100" stroke-linecap="round" opacity="0.8"/><line x1="5.950" y1="3.850" x2="5.950" y2="0.350" stroke="#6b7280" stroke-width="0.100" stroke-linecap="round" opacity="0.8"/><line x1="6.900" y1="1.600" x2="6.900" y2="-4.700" stroke="#6b7280" stroke-width="0.100" stroke-linecap="round" opacity="0.8"/><line x1="6.900" y1="1.600" x2="7.300" y2="1.936" stroke="#6b7280" stroke-width="0.100" stroke-linecap="round" opacity="0.8"/><line x1="6.900" y1="3.600" x2="7.300" y2="3.264" stroke="#6b7280" stroke-width="0.100" stroke-linecap="round" opacity="0.8"/><line x1="6.900" y1="4.300" x2="6.900" y2="3.600" stroke="#6b7280" stroke-width="0.100" stroke-linecap="round" opacity="0.8"/><line x1="7.300" y1="3.264" x2="7.300" y2="1.936" stroke="#6b7280" stroke-width="0.100" stroke-linecap="round" opacity="0.8"/><line x1="-7.150" y1="-5.250" x2="7.550" y2="-5.250" stroke="#d24d4d" stroke-width="0.080" stroke-linecap="round" opacity="0.7"/><line x1="7.550" y1="-5.250" x2="7.550" y2="6.250" stroke="#d24d4d" stroke-width="0.080" stroke-linecap="round" opacity="0.7"/><line x1="7.550" y1="6.250" x2="-7.150" y2="6.250" stroke="#d24d4d" stroke-width="0.080" stroke-linecap="round" opacity="0.7"/><line x1="-7.150" y1="6.250" x2="-7.150" y2="-5.250" stroke="#d24d4d" stroke-width="0.080" stroke-linecap="round" opacity="0.7"/><path d="M -6.900 -4.700 A 0.300 0.300 0 0 1 -6.600 -5.000" fill="none" stroke="#e6e9ef" stroke-width="0.12" opacity="1"/><path d="M -6.900 -2.400 A 0.400 0.400 0 0 1 -6.900 -3.200" fill="none" stroke="#e6e9ef" stroke-width="0.12" opacity="1"/><path d="M -6.600 4.600 A 0.300 0.300 0 0 1 -6.900 4.300" fill="none" stroke="#e6e9ef" stroke-width="0.12" opacity="1"/><path d="M 6.600 -5.000 A 0.300 0.300 0 0 1 6.900 -4.700" fill="none" stroke="#e6e9ef" stroke-width="0.12" opacity="1"/><path d="M 6.900 4.300 A 0.300 0.300 0 0 1 6.600 4.600" fill="none" stroke="#e6e9ef" stroke-width="0.12" opacity="1"/><path d="M -6.900 -4.700 A 0.300 0.300 0 0 1 -6.600 -5.000" fill="none" stroke="#6b7280" stroke-width="0.12" opacity="0.8"/><path d="M -6.900 -2.400 A 0.400 0.400 0 0 1 -6.900 -3.200" fill="none" stroke="#6b7280" stroke-width="0.12" opacity="0.8"/><path d="M -6.600 4.600 A 0.300 0.300 0 0 1 -6.900 4.300" fill="none" stroke="#6b7280" stroke-width="0.12" opacity="0.8"/><path d="M 6.600 -5.000 A 0.300 0.300 0 0 1 6.900 -4.700" fill="none" stroke="#6b7280" stroke-width="0.12" opacity="0.8"/><path d="M 6.900 4.300 A 0.300 0.300 0 0 1 6.600 4.600" fill="none" stroke="#6b7280" stroke-width="0.12" opacity="0.8"/><rect x="-5.250" y="-3.800" width="2.100" height="2.100" rx="1.050" fill="#c79b5c"/><circle cx="-4.200" cy="-2.750" r="0.700" fill="#12151c"/><rect x="-1.050" y="-3.800" width="2.100" height="2.100" rx="1.050" fill="#c79b5c"/><circle cx="0.000" cy="-2.750" r="0.700" fill="#12151c"/><rect x="3.150" y="-3.800" width="2.100" height="2.100" rx="1.050" fill="#c79b5c"/><circle cx="4.200" cy="-2.750" r="0.700" fill="#12151c"/><rect x="-5.250" y="1.700" width="2.100" height="2.100" rx="1.050" fill="#c79b5c"/><circle cx="-4.200" cy="2.750" r="0.700" fill="#12151c"/><rect x="-1.050" y="1.700" width="2.100" height="2.100" rx="1.050" fill="#c79b5c"/><circle cx="0.000" cy="2.750" r="0.700" fill="#12151c"/><rect x="3.150" y="1.700" width="2.100" height="2.100" rx="1.050" fill="#c79b5c"/><circle cx="4.200" cy="2.750" r="0.700" fill="#12151c"/></svg>