<svg xmlns="http://www.w3.org/2000/svg" viewBox="-1.50 -10.58 102.28 27.32" preserveAspectRatio="xMidYMid meet" style="width:100%;height:100%"><rect x="-1.50" y="-10.58" width="102.28" height="27.32" fill="#12151c"/><g transform="translate(5.08 0)"><polyline points="0.000,-0.000 0.000,10.160" fill="none" stroke="#4ea1ff" stroke-width="0.25" stroke-linejoin="round"/><polyline points="0.000,-0.000 10.160,5.080" fill="none" stroke="#4ea1ff" stroke-width="0.25" stroke-linejoin="round"/><polyline points="0.000,10.160 10.160,5.080" fill="none" stroke="#4ea1ff" stroke-width="0.25" stroke-linejoin="round"/><polyline points="1.016,2.540 2.540,2.540" fill="none" stroke="#4ea1ff" stroke-width="0.25" stroke-linejoin="round"/><polyline points="1.016,7.620 2.540,7.620" fill="none" stroke="#4ea1ff" stroke-width="0.25" stroke-linejoin="round"/><polyline points="1.778,1.778 1.778,3.302" fill="none" stroke="#4ea1ff" stroke-width="0.25" stroke-linejoin="round"/><polyline points="2.540,-1.270 2.540,1.270" fill="none" stroke="#4ea1ff" stroke-width="0.25" stroke-linejoin="round"/><polyline points="2.540,11.430 2.540,8.890" fill="none" stroke="#4ea1ff" stroke-width="0.25" stroke-linejoin="round"/><polyline points="5.080,-1.270 5.080,2.540" fill="none" stroke="#4ea1ff" stroke-width="0.25" stroke-linejoin="round"/><polyline points="5.080,7.620 5.080,11.430" fill="none" stroke="#4ea1ff" stroke-width="0.25" stroke-linejoin="round"/><polyline points="6.858,6.858 8.382,6.096" fill="none" stroke="#4ea1ff" stroke-width="0.25" stroke-linejoin="round"/><polyline points="7.620,6.350 7.620,11.430" fill="none" stroke="#4ea1ff" stroke-width="0.25" stroke-linejoin="round"/><polyline points="8.890,1.270 9.906,1.270" fill="none" stroke="#4ea1ff" stroke-width="0.25" stroke-linejoin="round"/><polyline points="8.890,8.890 9.906,8.890" fill="none" stroke="#4ea1ff" stroke-width="0.25" stroke-linejoin="round"/><polyline points="9.398,8.382 9.398,9.398" fill="none" stroke="#4ea1ff" stroke-width="0.25" stroke-linejoin="round"/><polyline points="10.160,2.540 9.271,3.429" fill="none" stroke="#4ea1ff" stroke-width="0.25" stroke-linejoin="round"/><polyline points="10.160,7.620 8.509,5.969" fill="none" stroke="#4ea1ff" stroke-width="0.25" stroke-linejoin="round"/><circle cx="8.890" cy="3.810" r="0.508" fill="none" stroke="#4ea1ff" stroke-width="0.25"/><line x1="-5.080" y1="2.540" x2="0.000" y2="2.540" stroke="#e6e9ef" stroke-width="0.2"/><circle cx="-5.080" cy="2.540" r="0.4" fill="#4ea1ff"/><text x="-0.300" y="2.190" fill="#9aa3b2" font-size="0.9" text-anchor="end" font-family="sans-serif">30</text><line x1="-5.080" y1="7.620" x2="0.000" y2="7.620" stroke="#e6e9ef" stroke-width="0.2"/><circle cx="-5.080" cy="7.620" r="0.4" fill="#4ea1ff"/><text x="-0.300" y="7.270" fill="#9aa3b2" font-size="0.9" text-anchor="end" font-family="sans-serif">31</text><line x1="2.540" y1="-5.080" x2="2.540" y2="-1.270" stroke="#e6e9ef" stroke-width="0.2"/><circle cx="2.540" cy="-5.080" r="0.4" fill="#4ea1ff"/><text x="3.140" y="-0.270" fill="#9aa3b2" font-size="0.9" text-anchor="start" font-family="sans-serif">32</text><line x1="2.540" y1="15.240" x2="2.540" y2="11.430" stroke="#e6e9ef" stroke-width="0.2"/><circle cx="2.540" cy="15.240" r="0.4" fill="#4ea1ff"/><text x="3.140" y="12.430" fill="#9aa3b2" font-size="0.9" text-anchor="start" font-family="sans-serif">29</text><line x1="5.080" y1="-5.080" x2="5.080" y2="-1.270" stroke="#e6e9ef" stroke-width="0.2"/><circle cx="5.080" cy="-5.080" r="0.4" fill="#4ea1ff"/><text x="5.680" y="-0.270" fill="#9aa3b2" font-size="0.9" text-anchor="start" font-family="sans-serif">1</text><line x1="5.080" y1="15.240" x2="5.080" y2="11.430" stroke="#e6e9ef" stroke-width="0.2"/><circle cx="5.080" cy="15.240" r="0.4" fill="#4ea1ff"/><text x="5.680" y="12.430" fill="#9aa3b2" font-size="0.9" text-anchor="start" font-family="sans-serif">4</text><line x1="7.620" y1="15.240" x2="7.620" y2="11.430" stroke="#e6e9ef" stroke-width="0.2"/><circle cx="7.620" cy="15.240" r="0.4" fill="#4ea1ff"/><text x="8.220" y="12.430" fill="#9aa3b2" font-size="0.9" text-anchor="start" font-family="sans-serif">33</text><line x1="15.240" y1="2.540" x2="10.160" y2="2.540" stroke="#e6e9ef" stroke-width="0.2"/><circle cx="15.240" cy="2.540" r="0.4" fill="#4ea1ff"/><text x="10.460" y="2.190" fill="#9aa3b2" font-size="0.9" text-anchor="start" font-family="sans-serif">2</text><line x1="15.240" y1="7.620" x2="10.160" y2="7.620" stroke="#e6e9ef" stroke-width="0.2"/><circle cx="15.240" cy="7.620" r="0.4" fill="#4ea1ff"/><text x="10.460" y="7.270" fill="#9aa3b2" font-size="0.9" text-anchor="start" font-family="sans-serif">3</text><text x="5.08" y="-7.08" fill="#9aa3b2" font-size="1.6" text-anchor="middle" font-family="sans-serif">A</text></g><g transform="translate(31.40 0)"><polyline points="0.000,-0.000 0.000,10.160" fill="none" stroke="#4ea1ff" stroke-width="0.25" stroke-linejoin="round"/><polyline points="0.000,-0.000 0.000,10.160" fill="none" stroke="#4ea1ff" stroke-width="0.25" stroke-linejoin="round"/><polyline points="0.000,-0.000 10.160,5.080" fill="none" stroke="#4ea1ff" stroke-width="0.25" stroke-linejoin="round"/><polyline points="0.000,10.160 10.160,5.080" fill="none" stroke="#4ea1ff" stroke-width="0.25" stroke-linejoin="round"/><polyline points="1.016,2.540 2.540,2.540" fill="none" stroke="#4ea1ff" stroke-width="0.25" stroke-linejoin="round"/><polyline points="1.016,7.620 2.540,7.620" fill="none" stroke="#4ea1ff" stroke-width="0.25" stroke-linejoin="round"/><polyline points="1.778,1.778 1.778,3.302" fill="none" stroke="#4ea1ff" stroke-width="0.25" stroke-linejoin="round"/><polyline points="2.540,-1.270 2.540,1.270" fill="none" stroke="#4ea1ff" stroke-width="0.25" stroke-linejoin="round"/><polyline points="2.540,11.430 2.540,8.890" fill="none" stroke="#4ea1ff" stroke-width="0.25" stroke-linejoin="round"/><polyline points="5.080,-1.270 5.080,2.540" fill="none" stroke="#4ea1ff" stroke-width="0.25" stroke-linejoin="round"/><polyline points="5.080,7.620 5.080,11.430" fill="none" stroke="#4ea1ff" stroke-width="0.25" stroke-linejoin="round"/><polyline points="6.858,6.858 8.382,6.096" fill="none" stroke="#4ea1ff" stroke-width="0.25" stroke-linejoin="round"/><polyline points="7.620,6.350 7.620,11.430" fill="none" stroke="#4ea1ff" stroke-width="0.25" stroke-linejoin="round"/><polyline points="8.890,1.270 9.906,1.270" fill="none" stroke="#4ea1ff" stroke-width="0.25" stroke-linejoin="round"/><polyline points="8.890,8.890 9.906,8.890" fill="none" stroke="#4ea1ff" stroke-width="0.25" stroke-linejoin="round"/><polyline points="9.398,8.382 9.398,9.398" fill="none" stroke="#4ea1ff" stroke-width="0.25" stroke-linejoin="round"/><polyline points="10.160,2.540 9.271,3.429" fill="none" stroke="#4ea1ff" stroke-width="0.25" stroke-linejoin="round"/><polyline points="10.160,7.620 8.509,5.969" fill="none" stroke="#4ea1ff" stroke-width="0.25" stroke-linejoin="round"/><circle cx="8.890" cy="3.810" r="0.508" fill="none" stroke="#4ea1ff" stroke-width="0.25"/><line x1="-5.080" y1="2.540" x2="0.000" y2="2.540" stroke="#e6e9ef" stroke-width="0.2"/><circle cx="-5.080" cy="2.540" r="0.4" fill="#4ea1ff"/><text x="-0.300" y="2.190" fill="#9aa3b2" font-size="0.9" text-anchor="end" font-family="sans-serif">11</text><line x1="-5.080" y1="7.620" x2="0.000" y2="7.620" stroke="#e6e9ef" stroke-width="0.2"/><circle cx="-5.080" cy="7.620" r="0.4" fill="#4ea1ff"/><text x="-0.300" y="7.270" fill="#9aa3b2" font-size="0.9" text-anchor="end" font-family="sans-serif">10</text><line x1="2.540" y1="-5.080" x2="2.540" y2="-1.270" stroke="#e6e9ef" stroke-width="0.2"/><circle cx="2.540" cy="-5.080" r="0.4" fill="#4ea1ff"/><text x="3.140" y="-0.270" fill="#9aa3b2" font-size="0.9" text-anchor="start" font-family="sans-serif">9</text><line x1="2.540" y1="15.240" x2="2.540" y2="11.430" stroke="#e6e9ef" stroke-width="0.2"/><circle cx="2.540" cy="15.240" r="0.4" fill="#4ea1ff"/><text x="3.140" y="12.430" fill="#9aa3b2" font-size="0.9" text-anchor="start" font-family="sans-serif">12</text><line x1="5.080" y1="-5.080" x2="5.080" y2="-1.270" stroke="#e6e9ef" stroke-width="0.2"/><circle cx="5.080" cy="-5.080" r="0.4" fill="#4ea1ff"/><text x="5.680" y="-0.270" fill="#9aa3b2" font-size="0.9" text-anchor="start" font-family="sans-serif">8</text><line x1="5.080" y1="15.240" x2="5.080" y2="11.430" stroke="#e6e9ef" stroke-width="0.2"/><circle cx="5.080" cy="15.240" r="0.4" fill="#4ea1ff"/><text x="5.680" y="12.430" fill="#9aa3b2" font-size="0.9" text-anchor="start" font-family="sans-serif">5</text><line x1="7.620" y1="15.240" x2="7.620" y2="11.430" stroke="#e6e9ef" stroke-width="0.2"/><circle cx="7.620" cy="15.240" r="0.4" fill="#4ea1ff"/><text x="8.220" y="12.430" fill="#9aa3b2" font-size="0.9" text-anchor="start" font-family="sans-serif">33</text><line x1="15.240" y1="2.540" x2="10.160" y2="2.540" stroke="#e6e9ef" stroke-width="0.2"/><circle cx="15.240" cy="2.540" r="0.4" fill="#4ea1ff"/><text x="10.460" y="2.190" fill="#9aa3b2" font-size="0.9" text-anchor="start" font-family="sans-serif">7</text><line x1="15.240" y1="7.620" x2="10.160" y2="7.620" stroke="#e6e9ef" stroke-width="0.2"/><circle cx="15.240" cy="7.620" r="0.4" fill="#4ea1ff"/><text x="10.460" y="7.270" fill="#9aa3b2" font-size="0.9" text-anchor="start" font-family="sans-serif">6</text><text x="5.08" y="-7.08" fill="#9aa3b2" font-size="1.6" text-anchor="middle" font-family="sans-serif">B</text></g><g transform="translate(57.72 0)"><polyline points="0.000,-0.000 0.000,10.160" fill="none" stroke="#4ea1ff" stroke-width="0.25" stroke-linejoin="round"/><polyline points="0.000,-0.000 10.160,5.080" fill="none" stroke="#4ea1ff" stroke-width="0.25" stroke-linejoin="round"/><polyline points="0.000,10.160 10.160,5.080" fill="none" stroke="#4ea1ff" stroke-width="0.25" stroke-linejoin="round"/><polyline points="1.016,2.540 2.540,2.540" fill="none" stroke="#4ea1ff" stroke-width="0.25" stroke-linejoin="round"/><polyline points="1.016,7.620 2.540,7.620" fill="none" stroke="#4ea1ff" stroke-width="0.25" stroke-linejoin="round"/><polyline points="1.778,1.778 1.778,3.302" fill="none" stroke="#4ea1ff" stroke-width="0.25" stroke-linejoin="round"/><polyline points="2.540,-1.270 2.540,1.270" fill="none" stroke="#4ea1ff" stroke-width="0.25" stroke-linejoin="round"/><polyline points="2.540,11.430 2.540,8.890" fill="none" stroke="#4ea1ff" stroke-width="0.25" stroke-linejoin="round"/><polyline points="5.080,-1.270 5.080,2.540" fill="none" stroke="#4ea1ff" stroke-width="0.25" stroke-linejoin="round"/><polyline points="5.080,7.620 5.080,11.430" fill="none" stroke="#4ea1ff" stroke-width="0.25" stroke-linejoin="round"/><polyline points="6.858,6.858 8.382,6.096" fill="none" stroke="#4ea1ff" stroke-width="0.25" stroke-linejoin="round"/><polyline points="7.620,6.350 7.620,11.430" fill="none" stroke="#4ea1ff" stroke-width="0.25" stroke-linejoin="round"/><polyline points="8.890,1.270 9.906,1.270" fill="none" stroke="#4ea1ff" stroke-width="0.25" stroke-linejoin="round"/><polyline points="8.890,8.890 9.906,8.890" fill="none" stroke="#4ea1ff" stroke-width="0.25" stroke-linejoin="round"/><polyline points="9.398,8.382 9.398,9.398" fill="none" stroke="#4ea1ff" stroke-width="0.25" stroke-linejoin="round"/><polyline points="10.160,2.540 9.271,3.429" fill="none" stroke="#4ea1ff" stroke-width="0.25" stroke-linejoin="round"/><polyline points="10.160,7.620 8.509,5.969" fill="none" stroke="#4ea1ff" stroke-width="0.25" stroke-linejoin="round"/><circle cx="8.890" cy="3.810" r="0.508" fill="none" stroke="#4ea1ff" stroke-width="0.25"/><line x1="-5.080" y1="2.540" x2="0.000" y2="2.540" stroke="#e6e9ef" stroke-width="0.2"/><circle cx="-5.080" cy="2.540" r="0.4" fill="#4ea1ff"/><text x="-0.300" y="2.190" fill="#9aa3b2" font-size="0.9" text-anchor="end" font-family="sans-serif">14</text><line x1="-5.080" y1="7.620" x2="0.000" y2="7.620" stroke="#e6e9ef" stroke-width="0.2"/><circle cx="-5.080" cy="7.620" r="0.4" fill="#4ea1ff"/><text x="-0.300" y="7.270" fill="#9aa3b2" font-size="0.9" text-anchor="end" font-family="sans-serif">15</text><line x1="2.540" y1="-5.080" x2="2.540" y2="-1.270" stroke="#e6e9ef" stroke-width="0.2"/><circle cx="2.540" cy="-5.080" r="0.4" fill="#4ea1ff"/><text x="3.140" y="-0.270" fill="#9aa3b2" font-size="0.9" text-anchor="start" font-family="sans-serif">16</text><line x1="2.540" y1="15.240" x2="2.540" y2="11.430" stroke="#e6e9ef" stroke-width="0.2"/><circle cx="2.540" cy="15.240" r="0.4" fill="#4ea1ff"/><text x="3.140" y="12.430" fill="#9aa3b2" font-size="0.9" text-anchor="start" font-family="sans-serif">13</text><line x1="5.080" y1="-5.080" x2="5.080" y2="-1.270" stroke="#e6e9ef" stroke-width="0.2"/><circle cx="5.080" cy="-5.080" r="0.4" fill="#4ea1ff"/><text x="5.680" y="-0.270" fill="#9aa3b2" font-size="0.9" text-anchor="start" font-family="sans-serif">17</text><line x1="5.080" y1="15.240" x2="5.080" y2="11.430" stroke="#e6e9ef" stroke-width="0.2"/><circle cx="5.080" cy="15.240" r="0.4" fill="#4ea1ff"/><text x="5.680" y="12.430" fill="#9aa3b2" font-size="0.9" text-anchor="start" font-family="sans-serif">20</text><line x1="7.620" y1="15.240" x2="7.620" y2="11.430" stroke="#e6e9ef" stroke-width="0.2"/><circle cx="7.620" cy="15.240" r="0.4" fill="#4ea1ff"/><text x="8.220" y="12.430" fill="#9aa3b2" font-size="0.9" text-anchor="start" font-family="sans-serif">33</text><line x1="15.240" y1="2.540" x2="10.160" y2="2.540" stroke="#e6e9ef" stroke-width="0.2"/><circle cx="15.240" cy="2.540" r="0.4" fill="#4ea1ff"/><text x="10.460" y="2.190" fill="#9aa3b2" font-size="0.9" text-anchor="start" font-family="sans-serif">18</text><line x1="15.240" y1="7.620" x2="10.160" y2="7.620" stroke="#e6e9ef" stroke-width="0.2"/><circle cx="15.240" cy="7.620" r="0.4" fill="#4ea1ff"/><text x="10.460" y="7.270" fill="#9aa3b2" font-size="0.9" text-anchor="start" font-family="sans-serif">19</text><text x="5.08" y="-7.08" fill="#9aa3b2" font-size="1.6" text-anchor="middle" font-family="sans-serif">C</text></g><g transform="translate(84.04 0)"><polyline points="0.000,-0.000 0.000,10.160" fill="none" stroke="#4ea1ff" stroke-width="0.25" stroke-linejoin="round"/><polyline points="0.000,-0.000 10.160,5.080" fill="none" stroke="#4ea1ff" stroke-width="0.25" stroke-linejoin="round"/><polyline points="0.000,10.160 10.160,5.080" fill="none" stroke="#4ea1ff" stroke-width="0.25" stroke-linejoin="round"/><polyline points="1.016,2.540 2.540,2.540" fill="none" stroke="#4ea1ff" stroke-width="0.25" stroke-linejoin="round"/><polyline points="1.016,7.620 2.540,7.620" fill="none" stroke="#4ea1ff" stroke-width="0.25" stroke-linejoin="round"/><polyline points="1.778,1.778 1.778,3.302" fill="none" stroke="#4ea1ff" stroke-width="0.25" stroke-linejoin="round"/><polyline points="2.540,-1.270 2.540,1.270" fill="none" stroke="#4ea1ff" stroke-width="0.25" stroke-linejoin="round"/><polyline points="2.540,11.430 2.540,8.890" fill="none" stroke="#4ea1ff" stroke-width="0.25" stroke-linejoin="round"/><polyline points="5.080,-1.270 5.080,2.540" fill="none" stroke="#4ea1ff" stroke-width="0.25" stroke-linejoin="round"/><polyline points="5.080,7.620 5.080,11.430" fill="none" stroke="#4ea1ff" stroke-width="0.25" stroke-linejoin="round"/><polyline points="6.858,6.858 8.382,6.096" fill="none" stroke="#4ea1ff" stroke-width="0.25" stroke-linejoin="round"/><polyline points="7.620,6.350 7.620,11.430" fill="none" stroke="#4ea1ff" stroke-width="0.25" stroke-linejoin="round"/><polyline points="8.890,1.270 9.906,1.270" fill="none" stroke="#4ea1ff" stroke-width="0.25" stroke-linejoin="round"/><polyline points="8.890,8.890 9.906,8.890" fill="none" stroke="#4ea1ff" stroke-width="0.25" stroke-linejoin="round"/><polyline points="9.398,8.382 9.398,9.398" fill="none" stroke="#4ea1ff" stroke-width="0.25" stroke-linejoin="round"/><polyline points="10.160,2.540 9.271,3.429" fill="none" stroke="#4ea1ff" stroke-width="0.25" stroke-linejoin="round"/><polyline points="10.160,7.620 8.509,5.969" fill="none" stroke="#4ea1ff" stroke-width="0.25" stroke-linejoin="round"/><circle cx="8.890" cy="3.810" r="0.508" fill="none" stroke="#4ea1ff" stroke-width="0.25"/><line x1="-5.080" y1="2.540" x2="0.000" y2="2.540" stroke="#e6e9ef" stroke-width="0.2"/><circle cx="-5.080" cy="2.540" r="0.4" fill="#4ea1ff"/><text x="-0.300" y="2.190" fill="#9aa3b2" font-size="0.9" text-anchor="end" font-family="sans-serif">27</text><line x1="-5.080" y1="7.620" x2="0.000" y2="7.620" stroke="#e6e9ef" stroke-width="0.2"/><circle cx="-5.080" cy="7.620" r="0.4" fill="#4ea1ff"/><text x="-0.300" y="7.270" fill="#9aa3b2" font-size="0.9" text-anchor="end" font-family="sans-serif">26</text><line x1="2.540" y1="-5.080" x2="2.540" y2="-1.270" stroke="#e6e9ef" stroke-width="0.2"/><circle cx="2.540" cy="-5.080" r="0.4" fill="#4ea1ff"/><text x="3.140" y="-0.270" fill="#9aa3b2" font-size="0.9" text-anchor="start" font-family="sans-serif">25</text><line x1="2.540" y1="15.240" x2="2.540" y2="11.430" stroke="#e6e9ef" stroke-width="0.2"/><circle cx="2.540" cy="15.240" r="0.4" fill="#4ea1ff"/><text x="3.140" y="12.430" fill="#9aa3b2" font-size="0.9" text-anchor="start" font-family="sans-serif">28</text><line x1="5.080" y1="-5.080" x2="5.080" y2="-1.270" stroke="#e6e9ef" stroke-width="0.2"/><circle cx="5.080" cy="-5.080" r="0.4" fill="#4ea1ff"/><text x="5.680" y="-0.270" fill="#9aa3b2" font-size="0.9" text-anchor="start" font-family="sans-serif">24</text><line x1="5.080" y1="15.240" x2="5.080" y2="11.430" stroke="#e6e9ef" stroke-width="0.2"/><circle cx="5.080" cy="15.240" r="0.4" fill="#4ea1ff"/><text x="5.680" y="12.430" fill="#9aa3b2" font-size="0.9" text-anchor="start" font-family="sans-serif">21</text><line x1="7.620" y1="15.240" x2="7.620" y2="11.430" stroke="#e6e9ef" stroke-width="0.2"/><circle cx="7.620" cy="15.240" r="0.4" fill="#4ea1ff"/><text x="8.220" y="12.430" fill="#9aa3b2" font-size="0.9" text-anchor="start" font-family="sans-serif">33</text><line x1="15.240" y1="2.540" x2="10.160" y2="2.540" stroke="#e6e9ef" stroke-width="0.2"/><circle cx="15.240" cy="2.540" r="0.4" fill="#4ea1ff"/><text x="10.460" y="2.190" fill="#9aa3b2" font-size="0.9" text-anchor="start" font-family="sans-serif">23</text><line x1="15.240" y1="7.620" x2="10.160" y2="7.620" stroke="#e6e9ef" stroke-width="0.2"/><circle cx="15.240" cy="7.620" r="0.4" fill="#4ea1ff"/><text x="10.460" y="7.270" fill="#9aa3b2" font-size="0.9" text-anchor="start" font-family="sans-serif">22</text><text x="5.08" y="-7.08" fill="#9aa3b2" font-size="1.6" text-anchor="middle" font-family="sans-serif">D</text></g></svg>