<svg xmlns="http://www.w3.org/2000/svg" viewBox="-2.10 -8.83 24.67 96.40" preserveAspectRatio="xMidYMid meet" style="width:100%;height:100%"><rect x="-2.10" y="-8.83" width="24.67" height="96.40" fill="#12151c"/><line x1="-0.680" y1="-2.250" x2="10.800" y2="-2.250" stroke="#e6e9ef" stroke-width="0.200" stroke-linecap="round" opacity="1"/><line x1="-0.680" y1="-1.080" x2="10.800" y2="-1.080" stroke="#e6e9ef" stroke-width="0.200" stroke-linecap="round" opacity="1"/><line x1="-0.680" y1="1.551" x2="-0.680" y2="-2.250" stroke="#e6e9ef" stroke-width="0.200" stroke-linecap="round" opacity="1"/><line x1="-0.680" y1="79.820" x2="-0.523" y2="79.820" stroke="#e6e9ef" stroke-width="0.200" stroke-linecap="round" opacity="1"/><line x1="-0.680" y1="80.990" x2="10.800" y2="80.990" stroke="#e6e9ef" stroke-width="0.200" stroke-linecap="round" opacity="1"/><line x1="-0.680" y1="81.670" x2="-0.680" y2="79.729" stroke="#e6e9ef" stroke-width="0.200" stroke-linecap="round" opacity="1"/><line x1="-0.680" y1="81.670" x2="4.670" y2="81.670" stroke="#e6e9ef" stroke-width="0.200" stroke-linecap="round" opacity="1"/><line x1="0.523" y1="79.820" x2="4.557" y2="79.820" stroke="#e6e9ef" stroke-width="0.200" stroke-linecap="round" opacity="1"/><line x1="4.670" y1="-7.580" x2="12.770" y2="-7.580" stroke="#e6e9ef" stroke-width="0.200" stroke-linecap="round" opacity="1"/><line x1="4.670" y1="-2.250" x2="4.670" y2="-7.580" stroke="#e6e9ef" stroke-width="0.200" stroke-linecap="round" opacity="1"/><line x1="4.670" y1="86.320" x2="4.670" y2="81.670" stroke="#e6e9ef" stroke-width="0.200" stroke-linecap="round" opacity="1"/><line x1="4.670" y1="86.320" x2="12.770" y2="86.320" stroke="#e6e9ef" stroke-width="0.200" stroke-linecap="round" opacity="1"/><line x1="5.603" y1="79.820" x2="10.800" y2="79.820" stroke="#e6e9ef" stroke-width="0.200" stroke-linecap="round" opacity="1"/><line x1="10.800" y1="-4.330" x2="21.320" y2="-4.330" stroke="#e6e9ef" stroke-width="0.200" stroke-linecap="round" opacity="1"/><line x1="10.800" y1="-1.080" x2="10.800" y2="-4.330" stroke="#e6e9ef" stroke-width="0.200" stroke-linecap="round" opacity="1"/><line x1="10.800" y1="83.070" x2="10.800" y2="79.820" stroke="#e6e9ef" stroke-width="0.200" stroke-linecap="round" opacity="1"/><line x1="10.800" y1="83.070" x2="21.320" y2="83.070" stroke="#e6e9ef" stroke-width="0.200" stroke-linecap="round" opacity="1"/><line x1="12.770" y1="-4.330" x2="12.770" y2="-7.580" stroke="#e6e9ef" stroke-width="0.200" stroke-linecap="round" opacity="1"/><line x1="12.770" y1="86.320" x2="12.770" y2="83.070" stroke="#e6e9ef" stroke-width="0.200" stroke-linecap="round" opacity="1"/><line x1="12.970" y1="3.410" x2="19.820" y2="3.410" stroke="#e6e9ef" stroke-width="0.200" stroke-linecap="round" opacity="1"/><line x1="12.970" y1="11.830" x2="12.970" y2="3.410" stroke="#e6e9ef" stroke-width="0.200" stroke-linecap="round" opacity="1"/><line x1="12.970" y1="11.830" x2="19.820" y2="11.830" stroke="#e6e9ef" stroke-width="0.200" stroke-linecap="round" opacity="1"/><line x1="12.970" y1="23.730" x2="19.820" y2="23.730" stroke="#e6e9ef" stroke-width="0.200" stroke-linecap="round" opacity="1"/><line x1="12.970" y1="32.150" x2="12.970" y2="23.730" stroke="#e6e9ef" stroke-width="0.200" stroke-linecap="round" opacity="1"/><line x1="12.970" y1="32.150" x2="19.820" y2="32.150" stroke="#e6e9ef" stroke-width="0.200" stroke-linecap="round" opacity="1"/><line x1="12.970" y1="49.130" x2="19.820" y2="49.130" stroke="#e6e9ef" stroke-width="0.200" stroke-linecap="round" opacity="1"/><line x1="12.970" y1="57.550" x2="12.970" y2="49.130" stroke="#e6e9ef" stroke-width="0.200" stroke-linecap="round" opacity="1"/><line x1="12.970" y1="57.550" x2="19.820" y2="57.550" stroke="#e6e9ef" stroke-width="0.200" stroke-linecap="round" opacity="1"/><line x1="12.970" y1="69.450" x2="19.820" y2="69.450" stroke="#e6e9ef" stroke-width="0.200" stroke-linecap="round" opacity="1"/><line x1="12.970" y1="77.870" x2="12.970" y2="69.450" stroke="#e6e9ef" stroke-width="0.200" stroke-linecap="round" opacity="1"/><line x1="12.970" y1="77.870" x2="19.820" y2="77.870" stroke="#e6e9ef" stroke-width="0.200" stroke-linecap="round" opacity="1"/><line x1="19.820" y1="-1.430" x2="21.320" y2="-1.430" stroke="#e6e9ef" stroke-width="0.200" stroke-linecap="round" opacity="1"/><line x1="19.820" y1="80.170" x2="19.820" y2="-1.430" stroke="#e6e9ef" stroke-width="0.200" stroke-linecap="round" opacity="1"/><line x1="19.820" y1="80.170" x2="21.320" y2="80.170" stroke="#e6e9ef" stroke-width="0.200" stroke-linecap="round" opacity="1"/><line x1="21.320" y1="-1.430" x2="21.320" y2="-4.330" stroke="#e6e9ef" stroke-width="0.200" stroke-linecap="round" opacity="1"/><line x1="21.320" y1="83.070" x2="21.320" y2="80.170" stroke="#e6e9ef" stroke-width="0.200" stroke-linecap="round" opacity="1"/><line x1="-0.500" y1="2.540" x2="0.000" y2="2.540" stroke="#4a5160" stroke-width="0.100" stroke-linecap="round" opacity="0.7"/><line x1="-0.500" y1="7.620" x2="0.000" y2="7.620" stroke="#4a5160" stroke-width="0.100" stroke-linecap="round" opacity="0.7"/><line x1="-0.500" y1="12.700" x2="0.000" y2="12.700" stroke="#4a5160" stroke-width="0.100" stroke-linecap="round" opacity="0.7"/><line x1="-0.500" y1="17.780" x2="0.000" y2="17.780" stroke="#4a5160" stroke-width="0.100" stroke-linecap="round" opacity="0.7"/><line x1="-0.500" y1="22.860" x2="0.000" y2="22.860" stroke="#4a5160" stroke-width="0.100" stroke-linecap="round" opacity="0.7"/><line x1="-0.500" y1="27.940" x2="0.000" y2="27.940" stroke="#4a5160" stroke-width="0.100" stroke-linecap="round" opacity="0.7"/><line x1="-0.500" y1="33.020" x2="0.000" y2="33.020" stroke="#4a5160" stroke-width="0.100" stroke-linecap="round" opacity="0.7"/><line x1="-0.500" y1="38.100" x2="0.000" y2="38.100" stroke="#4a5160" stroke-width="0.100" stroke-linecap="round" opacity="0.7"/><line x1="-0.500" y1="43.180" x2="0.000" y2="43.180" stroke="#4a5160" stroke-width="0.100" stroke-linecap="round" opacity="0.7"/><line x1="-0.500" y1="48.260" x2="0.000" y2="48.260" stroke="#4a5160" stroke-width="0.100" stroke-linecap="round" opacity="0.7"/><line x1="-0.500" y1="53.340" x2="0.000" y2="53.340" stroke="#4a5160" stroke-width="0.100" stroke-linecap="round" opacity="0.7"/><line x1="-0.500" y1="58.420" x2="0.000" y2="58.420" stroke="#4a5160" stroke-width="0.100" stroke-linecap="round" opacity="0.7"/><line x1="-0.500" y1="68.580" x2="0.000" y2="68.580" stroke="#4a5160" stroke-width="0.100" stroke-linecap="round" opacity="0.7"/><line x1="-0.500" y1="73.660" x2="0.000" y2="73.660" stroke="#4a5160" stroke-width="0.100" stroke-linecap="round" opacity="0.7"/><line x1="-0.500" y1="78.740" x2="0.000" y2="78.740" stroke="#4a5160" stroke-width="0.100" stroke-linecap="round" opacity="0.7"/><line x1="-0.354" y1="-0.354" x2="0.000" y2="0.000" stroke="#4a5160" stroke-width="0.100" stroke-linecap="round" opacity="0.7"/><line x1="-0.354" y1="0.354" x2="0.000" y2="0.000" stroke="#4a5160" stroke-width="0.100" stroke-linecap="round" opacity="0.7"/><line x1="0.000" y1="0.000" x2="0.354" y2="-0.354" stroke="#4a5160" stroke-width="0.100" stroke-linecap="round" opacity="0.7"/><line x1="0.000" y1="0.000" x2="0.354" y2="0.354" stroke="#4a5160" stroke-width="0.100" stroke-linecap="round" opacity="0.7"/><line x1="0.000" y1="2.540" x2="0.000" y2="2.040" stroke="#4a5160" stroke-width="0.100" stroke-linecap="round" opacity="0.7"/><line x1="0.000" y1="2.540" x2="0.500" y2="2.540" stroke="#4a5160" stroke-width="0.100" stroke-linecap="round" opacity="0.7"/><line x1="0.000" y1="3.040" x2="0.000" y2="2.540" stroke="#4a5160" stroke-width="0.100" stroke-linecap="round" opacity="0.7"/><line x1="0.000" y1="7.620" x2="0.000" y2="7.120" stroke="#4a5160" stroke-width="0.100" stroke-linecap="round" opacity="0.7"/><line x1="0.000" y1="7.620" x2="0.500" y2="7.620" stroke="#4a5160" stroke-width="0.100" stroke-linecap="round" opacity="0.7"/><line x1="0.000" y1="8.120" x2="0.000" y2="7.620" stroke="#4a5160" stroke-width="0.100" stroke-linecap="round" opacity="0.7"/><line x1="0.000" y1="12.700" x2="0.000" y2="12.200" stroke="#4a5160" stroke-width="0.100" stroke-linecap="round" opacity="0.7"/><line x1="0.000" y1="12.700" x2="0.500" y2="12.700" stroke="#4a5160" stroke-width="0.100" stroke-linecap="round" opacity="0.7"/><line x1="0.000" y1="13.200" x2="0.000" y2="12.700" stroke="#4a5160" stroke-width="0.100" stroke-linecap="round" opacity="0.7"/><line x1="0.000" y1="17.780" x2="0.000" y2="17.280" stroke="#4a5160" stroke-width="0.100" stroke-linecap="round" opacity="0.7"/><line x1="0.000" y1="17.780" x2="0.500" y2="17.780" stroke="#4a5160" stroke-width="0.100" stroke-linecap="round" opacity="0.7"/><line x1="0.000" y1="18.280" x2="0.000" y2="17.780" stroke="#4a5160" stroke-width="0.100" stroke-linecap="round" opacity="0.7"/><line x1="0.000" y1="22.860" x2="0.000" y2="22.360" stroke="#4a5160" stroke-width="0.100" stroke-linecap="round" opacity="0.7"/><line x1="0.000" y1="22.860" x2="0.500" y2="22.860" stroke="#4a5160" stroke-width="0.100" stroke-linecap="round" opacity="0.7"/><line x1="0.000" y1="23.360" x2="0.000" y2="22.860" stroke="#4a5160" stroke-width="0.100" stroke-linecap="round" opacity="0.7"/><line x1="0.000" y1="27.940" x2="0.000" y2="27.440" stroke="#4a5160" stroke-width="0.100" stroke-linecap="round" opacity="0.7"/><line x1="0.000" y1="27.940" x2="0.500" y2="27.940" stroke="#4a5160" stroke-width="0.100" stroke-linecap="round" opacity="0.7"/><line x1="0.000" y1="28.440" x2="0.000" y2="27.940" stroke="#4a5160" stroke-width="0.100" stroke-linecap="round" opacity="0.7"/><line x1="0.000" y1="33.020" x2="0.000" y2="32.520" stroke="#4a5160" stroke-width="0.100" stroke-linecap="round" opacity="0.7"/><line x1="0.000" y1="33.020" x2="0.500" y2="33.020" stroke="#4a5160" stroke-width="0.100" stroke-linecap="round" opacity="0.7"/><line x1="0.000" y1="33.520" x2="0.000" y2="33.020" stroke="#4a5160" stroke-width="0.100" stroke-linecap="round" opacity="0.7"/><line x1="0.000" y1="38.100" x2="0.000" y2="37.600" stroke="#4a5160" stroke-width="0.100" stroke-linecap="round" opacity="0.7"/><line x1="0.000" y1="38.100" x2="0.500" y2="38.100" stroke="#4a5160" stroke-width="0.100" stroke-linecap="round" opacity="0.7"/><line x1="0.000" y1="38.600" x2="0.000" y2="38.100" stroke="#4a5160" stroke-width="0.100" stroke-linecap="round" opacity="0.7"/><line x1="0.000" y1="43.180" x2="0.000" y2="42.680" stroke="#4a5160" stroke-width="0.100" stroke-linecap="round" opacity="0.7"/><line x1="0.000" y1="43.180" x2="0.500" y2="43.180" stroke="#4a5160" stroke-width="0.100" stroke-linecap="round" opacity="0.7"/><line x1="0.000" y1="43.680" x2="0.000" y2="43.180" stroke="#4a5160" stroke-width="0.100" stroke-linecap="round" opacity="0.7"/><line x1="0.000" y1="48.260" x2="0.000" y2="47.760" stroke="#4a5160" stroke-width="0.100" stroke-linecap="round" opacity="0.7"/><line x1="0.000" y1="48.260" x2="0.500" y2="48.260" stroke="#4a5160" stroke-width="0.100" stroke-linecap="round" opacity="0.7"/><line x1="0.000" y1="48.760" x2="0.000" y2="48.260" stroke="#4a5160" stroke-width="0.100" stroke-linecap="round" opacity="0.7"/><line x1="0.000" y1="53.340" x2="0.000" y2="52.840" stroke="#4a5160" stroke-width="0.100" stroke-linecap="round" opacity="0.7"/><line x1="0.000" y1="53.340" x2="0.500" y2="53.340" stroke="#4a5160" stroke-width="0.100" stroke-linecap="round" opacity="0.7"/><line x1="0.000" y1="53.840" x2="0.000" y2="53.340" stroke="#4a5160" stroke-width="0.100" stroke-linecap="round" opacity="0.7"/><line x1="0.000" y1="58.420" x2="0.000" y2="57.920" stroke="#4a5160" stroke-width="0.100" stroke-linecap="round" opacity="0.7"/><line x1="0.000" y1="58.420" x2="0.500" y2="58.420" stroke="#4a5160" stroke-width="0.100" stroke-linecap="round" opacity="0.7"/><line x1="0.000" y1="58.920" x2="0.000" y2="58.420" stroke="#4a5160" stroke-width="0.100" stroke-linecap="round" opacity="0.7"/><line x1="0.000" y1="63.500" x2="0.500" y2="63.500" stroke="#4a5160" stroke-width="0.100" stroke-linecap="round" opacity="0.7"/><line x1="0.000" y1="68.580" x2="0.000" y2="68.080" stroke="#4a5160" stroke-width="0.100" stroke-linecap="round" opacity="0.7"/><line x1="0.000" y1="68.580" x2="0.500" y2="68.580" stroke="#4a5160" stroke-width="0.100" stroke-linecap="round" opacity="0.7"/><line x1="0.000" y1="69.080" x2="0.000" y2="68.580" stroke="#4a5160" stroke-width="0.100" stroke-linecap="round" opacity="0.7"/><line x1="0.000" y1="73.660" x2="0.000" y2="73.160" stroke="#4a5160" stroke-width="0.100" stroke-linecap="round" opacity="0.7"/><line x1="0.000" y1="73.660" x2="0.500" y2="73.660" stroke="#4a5160" stroke-width="0.100" stroke-linecap="round" opacity="0.7"/><line x1="0.000" y1="74.160" x2="0.000" y2="73.660" stroke="#4a5160" stroke-width="0.100" stroke-linecap="round" opacity="0.7"/><line x1="0.000" y1="78.740" x2="0.000" y2="78.240" stroke="#4a5160" stroke-width="0.100" stroke-linecap="round" opacity="0.7"/><line x1="0.000" y1="78.740" x2="0.500" y2="78.740" stroke="#4a5160" stroke-width="0.100" stroke-linecap="round" opacity="0.7"/><line x1="0.000" y1="79.240" x2="0.000" y2="78.740" stroke="#4a5160" stroke-width="0.100" stroke-linecap="round" opacity="0.7"/><line x1="4.580" y1="2.540" x2="5.080" y2="2.540" stroke="#4a5160" stroke-width="0.100" stroke-linecap="round" opacity="0.7"/><line x1="4.580" y1="7.620" x2="5.080" y2="7.620" stroke="#4a5160" stroke-width="0.100" stroke-linecap="round" opacity="0.7"/><line x1="4.580" y1="12.700" x2="5.080" y2="12.700" stroke="#4a5160" stroke-width="0.100" stroke-linecap="round" opacity="0.7"/><line x1="4.580" y1="17.780" x2="5.080" y2="17.780" stroke="#4a5160" stroke-width="0.100" stroke-linecap="round" opacity="0.7"/><line x1="4.580" y1="22.860" x2="5.080" y2="22.860" stroke="#4a5160" stroke-width="0.100" stroke-linecap="round" opacity="0.7"/><line x1="4.580" y1="27.940" x2="5.080" y2="27.940" stroke="#4a5160" stroke-width="0.100" stroke-linecap="round" opacity="0.7"/><line x1="4.580" y1="33.020" x2="5.080" y2="33.020" stroke="#4a5160" stroke-width="0.100" stroke-linecap="round" opacity="0.7"/><line x1="4.580" y1="38.100" x2="5.080" y2="38.100" stroke="#4a5160" stroke-width="0.100" stroke-linecap="round" opacity="0.7"/><line x1="4.580" y1="43.180" x2="5.080" y2="43.180" stroke="#4a5160" stroke-width="0.100" stroke-linecap="round" opacity="0.7"/><line x1="4.580" y1="48.260" x2="5.080" y2="48.260" stroke="#4a5160" stroke-width="0.100" stroke-linecap="round" opacity="0.7"/><line x1="4.580" y1="53.340" x2="5.080" y2="53.340" stroke="#4a5160" stroke-width="0.100" stroke-linecap="round" opacity="0.7"/><line x1="4.580" y1="58.420" x2="5.080" y2="58.420" stroke="#4a5160" stroke-width="0.100" stroke-linecap="round" opacity="0.7"/><line x1="4.580" y1="63.500" x2="5.080" y2="63.500" stroke="#4a5160" stroke-width="0.100" stroke-linecap="round" opacity="0.7"/><line x1="4.580" y1="68.580" x2="5.080" y2="68.580" stroke="#4a5160" stroke-width="0.100" stroke-linecap="round" opacity="0.7"/><line x1="4.580" y1="73.660" x2="5.080" y2="73.660" stroke="#4a5160" stroke-width="0.100" stroke-linecap="round" opacity="0.7"/><line x1="4.580" y1="78.740" x2="5.080" y2="78.740" stroke="#4a5160" stroke-width="0.100" stroke-linecap="round" opacity="0.7"/><line x1="5.080" y1="2.540" x2="5.080" y2="2.040" stroke="#4a5160" stroke-width="0.100" stroke-linecap="round" opacity="0.7"/><line x1="5.080" y1="2.540" x2="5.580" y2="2.540" stroke="#4a5160" stroke-width="0.100" stroke-linecap="round" opacity="0.7"/><line x1="5.080" y1="3.040" x2="5.080" y2="2.540" stroke="#4a5160" stroke-width="0.100" stroke-linecap="round" opacity="0.7"/><line x1="5.080" y1="7.620" x2="5.080" y2="7.120" stroke="#4a5160" stroke-width="0.100" stroke-linecap="round" opacity="0.7"/><line x1="5.080" y1="7.620" x2="5.580" y2="7.620" stroke="#4a5160" stroke-width="0.100" stroke-linecap="round" opacity="0.7"/><line x1="5.080" y1="8.120" x2="5.080" y2="7.620" stroke="#4a5160" stroke-width="0.100" stroke-linecap="round" opacity="0.7"/><line x1="5.080" y1="12.700" x2="5.080" y2="12.200" stroke="#4a5160" stroke-width="0.100" stroke-linecap="round" opacity="0.7"/><line x1="5.080" y1="12.700" x2="5.580" y2="12.700" stroke="#4a5160" stroke-width="0.100" stroke-linecap="round" opacity="0.7"/><line x1="5.080" y1="13.200" x2="5.080" y2="12.700" stroke="#4a5160" stroke-width="0.100" stroke-linecap="round" opacity="0.7"/><line x1="5.080" y1="17.780" x2="5.080" y2="17.280" stroke="#4a5160" stroke-width="0.100" stroke-linecap="round" opacity="0.7"/><line x1="5.080" y1="17.780" x2="5.580" y2="17.780" stroke="#4a5160" stroke-width="0.100" stroke-linecap="round" opacity="0.7"/><line x1="5.080" y1="18.280" x2="5.080" y2="17.780" stroke="#4a5160" stroke-width="0.100" stroke-linecap="round" opacity="0.7"/><line x1="5.080" y1="22.860" x2="5.080" y2="22.360" stroke="#4a5160" stroke-width="0.100" stroke-linecap="round" opacity="0.7"/><line x1="5.080" y1="22.860" x2="5.580" y2="22.860" stroke="#4a5160" stroke-width="0.100" stroke-linecap="round" opacity="0.7"/><line x1="5.080" y1="23.360" x2="5.080" y2="22.860" stroke="#4a5160" stroke-width="0.100" stroke-linecap="round" opacity="0.7"/><line x1="5.080" y1="27.940" x2="5.080" y2="27.440" stroke="#4a5160" stroke-width="0.100" stroke-linecap="round" opacity="0.7"/><line x1="5.080" y1="27.940" x2="5.580" y2="27.940" stroke="#4a5160" stroke-width="0.100" stroke-linecap="round" opacity="0.7"/><line x1="5.080" y1="28.440" x2="5.080" y2="27.940" stroke="#4a5160" stroke-width="0.100" stroke-linecap="round" opacity="0.7"/><line x1="5.080" y1="33.020" x2="5.080" y2="32.520" stroke="#4a5160" stroke-width="0.100" stroke-linecap="round" opacity="0.7"/><line x1="5.080" y1="33.020" x2="5.580" y2="33.020" stroke="#4a5160" stroke-width="0.100" stroke-linecap="round" opacity="0.7"/><line x1="5.080" y1="33.520" x2="5.080" y2="33.020" stroke="#4a5160" stroke-width="0.100" stroke-linecap="round" opacity="0.7"/><line x1="5.080" y1="38.100" x2="5.080" y2="37.600" stroke="#4a5160" stroke-width="0.100" stroke-linecap="round" opacity="0.7"/><line x1="5.080" y1="38.100" x2="5.580" y2="38.100" stroke="#4a5160" stroke-width="0.100" stroke-linecap="round" opacity="0.7"/><line x1="5.080" y1="38.600" x2="5.080" y2="38.100" stroke="#4a5160" stroke-width="0.100" stroke-linecap="round" opacity="0.7"/><line x1="5.080" y1="43.180" x2="5.080" y2="42.680" stroke="#4a5160" stroke-width="0.100" stroke-linecap="round" opacity="0.7"/><line x1="5.080" y1="43.180" x2="5.580" y2="43.180" stroke="#4a5160" stroke-width="0.100" stroke-linecap="round" opacity="0.7"/><line x1="5.080" y1="43.680" x2="5.080" y2="43.180" stroke="#4a5160" stroke-width="0.100" stroke-linecap="round" opacity="0.7"/><line x1="5.080" y1="48.260" x2="5.080" y2="47.760" stroke="#4a5160" stroke-width="0.100" stroke-linecap="round" opacity="0.7"/><line x1="5.080" y1="48.260" x2="5.580" y2="48.260" stroke="#4a5160" stroke-width="0.100" stroke-linecap="round" opacity="0.7"/><line x1="5.080" y1="48.760" x2="5.080" y2="48.260" stroke="#4a5160" stroke-width="0.100" stroke-linecap="round" opacity="0.7"/><line x1="5.080" y1="53.340" x2="5.080" y2="52.840" stroke="#4a5160" stroke-width="0.100" stroke-linecap="round" opacity="0.7"/><line x1="5.080" y1="53.340" x2="5.580" y2="53.340" stroke="#4a5160" stroke-width="0.100" stroke-linecap="round" opacity="0.7"/><line x1="5.080" y1="53.840" x2="5.080" y2="53.340" stroke="#4a5160" stroke-width="0.100" stroke-linecap="round" opacity="0.7"/><line x1="5.080" y1="58.420" x2="5.080" y2="57.920" stroke="#4a5160" stroke-width="0.100" stroke-linecap="round" opacity="0.7"/><line x1="5.080" y1="58.420" x2="5.580" y2="58.420" stroke="#4a5160" stroke-width="0.100" stroke-linecap="round" opacity="0.7"/><line x1="5.080" y1="58.920" x2="5.080" y2="58.420" stroke="#4a5160" stroke-width="0.100" stroke-linecap="round" opacity="0.7"/><line x1="5.080" y1="63.500" x2="5.080" y2="63.000" stroke="#4a5160" stroke-width="0.100" stroke-linecap="round" opacity="0.7"/><line x1="5.080" y1="63.500" x2="5.580" y2="63.500" stroke="#4a5160" stroke-width="0.100" stroke-linecap="round" opacity="0.7"/><line x1="5.080" y1="64.000" x2="5.080" y2="63.500" stroke="#4a5160" stroke-width="0.100" stroke-linecap="round" opacity="0.7"/><line x1="5.080" y1="68.580" x2="5.080" y2="68.080" stroke="#4a5160" stroke-width="0.100" stroke-linecap="round" opacity="0.7"/><line x1="5.080" y1="68.580" x2="5.580" y2="68.580" stroke="#4a5160" stroke-width="0.100" stroke-linecap="round" opacity="0.7"/><line x1="5.080" y1="69.080" x2="5.080" y2="68.580" stroke="#4a5160" stroke-width="0.100" stroke-linecap="round" opacity="0.7"/><line x1="5.080" y1="73.660" x2="5.080" y2="73.160" stroke="#4a5160" stroke-width="0.100" stroke-linecap="round" opacity="0.7"/><line x1="5.080" y1="73.660" x2="5.580" y2="73.660" stroke="#4a5160" stroke-width="0.100" stroke-linecap="round" opacity="0.7"/><line x1="5.080" y1="74.160" x2="5.080" y2="73.660" stroke="#4a5160" stroke-width="0.100" stroke-linecap="round" opacity="0.7"/><line x1="5.080" y1="78.740" x2="5.080" y2="78.240" stroke="#4a5160" stroke-width="0.100" stroke-linecap="round" opacity="0.7"/><line x1="5.080" y1="78.740" x2="5.580" y2="78.740" stroke="#4a5160" stroke-width="0.100" stroke-linecap="round" opacity="0.7"/><line x1="5.080" y1="79.240" x2="5.080" y2="78.740" stroke="#4a5160" stroke-width="0.100" stroke-linecap="round" opacity="0.7"/><line x1="7.120" y1="-5.080" x2="7.620" y2="-5.080" stroke="#4a5160" stroke-width="0.100" stroke-linecap="round" opacity="0.7"/><line x1="7.120" y1="83.820" x2="7.620" y2="83.820" stroke="#4a5160" stroke-width="0.100" stroke-linecap="round" opacity="0.7"/><line x1="7.620" y1="-5.080" x2="7.620" y2="-5.580" stroke="#4a5160" stroke-width="0.100" stroke-linecap="round" opacity="0.7"/><line x1="7.620" y1="-5.080" x2="8.120" y2="-5.080" stroke="#4a5160" stroke-width="0.100" stroke-linecap="round" opacity="0.7"/><line x1="7.620" y1="-4.580" x2="7.620" y2="-5.080" stroke="#4a5160" stroke-width="0.100" stroke-linecap="round" opacity="0.7"/><line x1="7.620" y1="83.820" x2="7.620" y2="83.320" stroke="#4a5160" stroke-width="0.100" stroke-linecap="round" opacity="0.7"/><line x1="7.620" y1="83.820" x2="8.120" y2="83.820" stroke="#4a5160" stroke-width="0.100" stroke-linecap="round" opacity="0.7"/><line x1="7.620" y1="84.320" x2="7.620" y2="83.820" stroke="#4a5160" stroke-width="0.100" stroke-linecap="round" opacity="0.7"/><line x1="10.380" y1="39.370" x2="10.380" y2="-7.580" stroke="#4a5160" stroke-width="0.100" stroke-linecap="round" opacity="0.7"/><line x1="10.380" y1="86.320" x2="10.380" y2="39.370" stroke="#4a5160" stroke-width="0.100" stroke-linecap="round" opacity="0.7"/><line x1="-0.680" y1="-2.250" x2="10.800" y2="-2.250" stroke="#6b7280" stroke-width="0.100" stroke-linecap="round" opacity="0.8"/><line x1="-0.680" y1="-1.080" x2="10.800" y2="-1.080" stroke="#6b7280" stroke-width="0.100" stroke-linecap="round" opacity="0.8"/><line x1="-0.680" y1="79.820" x2="10.800" y2="79.820" stroke="#6b7280" stroke-width="0.100" stroke-linecap="round" opacity="0.8"/><line x1="-0.680" y1="80.990" x2="10.800" y2="80.990" stroke="#6b7280" stroke-width="0.100" stroke-linecap="round" opacity="0.8"/><line x1="-0.680" y1="81.670" x2="-0.680" y2="-2.250" stroke="#6b7280" stroke-width="0.100" stroke-linecap="round" opacity="0.8"/><line x1="-0.680" y1="81.670" x2="4.670" y2="81.670" stroke="#6b7280" stroke-width="0.100" stroke-linecap="round" opacity="0.8"/><line x1="4.670" y1="-7.580" x2="12.770" y2="-7.580" stroke="#6b7280" stroke-width="0.100" stroke-linecap="round" opacity="0.8"/><line x1="4.670" y1="-2.250" x2="4.670" y2="-7.580" stroke="#6b7280" stroke-width="0.100" stroke-linecap="round" opacity="0.8"/><line x1="4.670" y1="86.320" x2="4.670" y2="81.670" stroke="#6b7280" stroke-width="0.100" stroke-linecap="round" opacity="0.8"/><line x1="4.670" y1="86.320" x2="12.770" y2="86.320" stroke="#6b7280" stroke-width="0.100" stroke-linecap="round" opacity="0.8"/><line x1="10.800" y1="-4.330" x2="21.320" y2="-4.330" stroke="#6b7280" stroke-width="0.100" stroke-linecap="round" opacity="0.8"/><line x1="10.800" y1="-1.080" x2="10.800" y2="-4.330" stroke="#6b7280" stroke-width="0.100" stroke-linecap="round" opacity="0.8"/><line x1="10.800" y1="83.070" x2="10.800" y2="79.820" stroke="#6b7280" stroke-width="0.100" stroke-linecap="round" opacity="0.8"/><line x1="10.800" y1="83.070" x2="21.320" y2="83.070" stroke="#6b7280" stroke-width="0.100" stroke-linecap="round" opacity="0.8"/><line x1="12.770" y1="-4.330" x2="12.770" y2="-7.580" stroke="#6b7280" stroke-width="0.100" stroke-linecap="round" opacity="0.8"/><line x1="12.770" y1="86.320" x2="12.770" y2="83.070" stroke="#6b7280" stroke-width="0.100" stroke-linecap="round" opacity="0.8"/><line x1="12.970" y1="3.410" x2="19.820" y2="3.410" stroke="#6b7280" stroke-width="0.100" stroke-linecap="round" opacity="0.8"/><line x1="12.970" y1="11.830" x2="12.970" y2="3.410" stroke="#6b7280" stroke-width="0.100" stroke-linecap="round" opacity="0.8"/><line x1="12.970" y1="11.830" x2="19.820" y2="11.830" stroke="#6b7280" stroke-width="0.100" stroke-linecap="round" opacity="0.8"/><line x1="12.970" y1="23.730" x2="19.820" y2="23.730" stroke="#6b7280" stroke-width="0.100" stroke-linecap="round" opacity="0.8"/><line x1="12.970" y1="32.150" x2="12.970" y2="23.730" stroke="#6b7280" stroke-width="0.100" stroke-linecap="round" opacity="0.8"/><line x1="12.970" y1="32.150" x2="19.820" y2="32.150" stroke="#6b7280" stroke-width="0.100" stroke-linecap="round" opacity="0.8"/><line x1="12.970" y1="49.130" x2="19.820" y2="49.130" stroke="#6b7280" stroke-width="0.100" stroke-linecap="round" opacity="0.8"/><line x1="12.970" y1="57.550" x2="12.970" y2="49.130" stroke="#6b7280" stroke-width="0.100" stroke-linecap="round" opacity="0.8"/><line x1="12.970" y1="57.550" x2="19.820" y2="57.550" stroke="#6b7280" stroke-width="0.100" stroke-linecap="round" opacity="0.8"/><line x1="12.970" y1="69.450" x2="19.820" y2="69.450" stroke="#6b7280" stroke-width="0.100" stroke-linecap="round" opacity="0.8"/><line x1="12.970" y1="77.870" x2="12.970" y2="69.450" stroke="#6b7280" stroke-width="0.100" stroke-linecap="round" opacity="0.8"/><line x1="12.970" y1="77.870" x2="19.820" y2="77.870" stroke="#6b7280" stroke-width="0.100" stroke-linecap="round" opacity="0.8"/><line x1="19.820" y1="-1.430" x2="21.320" y2="-1.430" stroke="#6b7280" stroke-width="0.100" stroke-linecap="round" opacity="0.8"/><line x1="19.820" y1="80.170" x2="19.820" y2="-1.430" stroke="#6b7280" stroke-width="0.100" stroke-linecap="round" opacity="0.8"/><line x1="19.820" y1="80.170" x2="21.320" y2="80.170" stroke="#6b7280" stroke-width="0.100" stroke-linecap="round" opacity="0.8"/><line x1="21.320" y1="-1.430" x2="21.320" y2="-4.330" stroke="#6b7280" stroke-width="0.100" stroke-linecap="round" opacity="0.8"/><line x1="21.320" y1="83.070" x2="21.320" y2="80.170" stroke="#6b7280" stroke-width="0.100" stroke-linecap="round" opacity="0.8"/><line x1="-1.100" y1="-7.830" x2="21.570" y2="-7.830" stroke="#d24d4d" stroke-width="0.080" stroke-linecap="round" opacity="0.7"/><line x1="21.570" y1="-7.830" x2="21.570" y2="86.570" stroke="#d24d4d" stroke-width="0.080" stroke-linecap="round" opacity="0.7"/><line x1="21.570" y1="86.570" x2="-1.100" y2="86.570" stroke="#d24d4d" stroke-width="0.080" stroke-linecap="round" opacity="0.7"/><line x1="-1.100" y1="86.570" x2="-1.100" y2="-7.830" stroke="#d24d4d" stroke-width="0.080" stroke-linecap="round" opacity="0.7"/><circle cx="7.620" cy="-5.080" r="1.290" fill="none" stroke="#6b7280" stroke-width="0.12" opacity="0.8"/><circle cx="7.620" cy="83.820" r="1.290" fill="none" stroke="#6b7280" stroke-width="0.12" opacity="0.8"/><rect x="-0.850" y="1.690" width="1.700" height="1.700" rx="0.850" fill="#c79b5c"/><circle cx="0.000" cy="2.540" r="0.500" fill="#12151c"/><rect x="-0.850" y="6.770" width="1.700" height="1.700" rx="0.850" fill="#c79b5c"/><circle cx="0.000" cy="7.620" r="0.500" fill="#12151c"/><rect x="-0.850" y="11.850" width="1.700" height="1.700" rx="0.850" fill="#c79b5c"/><circle cx="0.000" cy="12.700" r="0.500" fill="#12151c"/><rect x="-0.850" y="16.930" width="1.700" height="1.700" rx="0.850" fill="#c79b5c"/><circle cx="0.000" cy="17.780" r="0.500" fill="#12151c"/><rect x="-0.850" y="22.010" width="1.700" height="1.700" rx="0.850" fill="#c79b5c"/><circle cx="0.000" cy="22.860" r="0.500" fill="#12151c"/><rect x="-0.850" y="27.090" width="1.700" height="1.700" rx="0.850" fill="#c79b5c"/><circle cx="0.000" cy="27.940" r="0.500" fill="#12151c"/><rect x="-0.850" y="32.170" width="1.700" height="1.700" rx="0.850" fill="#c79b5c"/><circle cx="0.000" cy="33.020" r="0.500" fill="#12151c"/><rect x="-0.850" y="37.250" width="1.700" height="1.700" rx="0.850" fill="#c79b5c"/><circle cx="0.000" cy="38.100" r="0.500" fill="#12151c"/><rect x="-0.850" y="42.330" width="1.700" height="1.700" rx="0.850" fill="#c79b5c"/><circle cx="0.000" cy="43.180" r="0.500" fill="#12151c"/><rect x="-0.850" y="47.410" width="1.700" height="1.700" rx="0.850" fill="#c79b5c"/><circle cx="0.000" cy="48.260" r="0.500" fill="#12151c"/><rect x="-0.850" y="52.490" width="1.700" height="1.700" rx="0.850" fill="#c79b5c"/><circle cx="0.000" cy="53.340" r="0.500" fill="#12151c"/><rect x="-0.850" y="57.570" width="1.700" height="1.700" rx="0.850" fill="#c79b5c"/><circle cx="0.000" cy="58.420" r="0.500" fill="#12151c"/><rect x="-0.850" y="62.650" width="1.700" height="1.700" rx="0.850" fill="#c79b5c"/><circle cx="0.000" cy="63.500" r="0.500" fill="#12151c"/><rect x="-0.850" y="67.730" width="1.700" height="1.700" rx="0.850" fill="#c79b5c"/><circle cx="0.000" cy="68.580" r="0.500" fill="#12151c"/><rect x="-0.850" y="72.810" width="1.700" height="1.700" rx="0.850" fill="#c79b5c"/><circle cx="0.000" cy="73.660" r="0.500" fill="#12151c"/><rect x="-0.850" y="77.890" width="1.700" height="1.700" rx="0.850" fill="#c79b5c"/><circle cx="0.000" cy="78.740" r="0.500" fill="#12151c"/><rect x="5.870" y="-6.830" width="3.500" height="3.500" rx="1.750" fill="#c79b5c"/><circle cx="7.620" cy="-5.080" r="1.400" fill="#12151c"/><rect x="5.870" y="82.070" width="3.500" height="3.500" rx="1.750" fill="#c79b5c"/><circle cx="7.620" cy="83.820" r="1.400" fill="#12151c"/><rect x="4.230" y="1.690" width="1.700" height="1.700" rx="0.850" fill="#c79b5c"/><circle cx="5.080" cy="2.540" r="0.500" fill="#12151c"/><rect x="4.230" y="6.770" width="1.700" height="1.700" rx="0.850" fill="#c79b5c"/><circle cx="5.080" cy="7.620" r="0.500" fill="#12151c"/><rect x="4.230" y="11.850" width="1.700" height="1.700" rx="0.850" fill="#c79b5c"/><circle cx="5.080" cy="12.700" r="0.500" fill="#12151c"/><rect x="4.230" y="16.930" width="1.700" height="1.700" rx="0.850" fill="#c79b5c"/><circle cx="5.080" cy="17.780" r="0.500" fill="#12151c"/><rect x="4.230" y="22.010" width="1.700" height="1.700" rx="0.850" fill="#c79b5c"/><circle cx="5.080" cy="22.860" r="0.500" fill="#12151c"/><rect x="4.230" y="27.090" width="1.700" height="1.700" rx="0.850" fill="#c79b5c"/><circle cx="5.080" cy="27.940" r="0.500" fill="#12151c"/><rect x="4.230" y="32.170" width="1.700" height="1.700" rx="0.850" fill="#c79b5c"/><circle cx="5.080" cy="33.020" r="0.500" fill="#12151c"/><rect x="4.230" y="37.250" width="1.700" height="1.700" rx="0.850" fill="#c79b5c"/><circle cx="5.080" cy="38.100" r="0.500" fill="#12151c"/><rect x="4.230" y="42.330" width="1.700" height="1.700" rx="0.850" fill="#c79b5c"/><circle cx="5.080" cy="43.180" r="0.500" fill="#12151c"/><rect x="4.230" y="47.410" width="1.700" height="1.700" rx="0.850" fill="#c79b5c"/><circle cx="5.080" cy="48.260" r="0.500" fill="#12151c"/><rect x="4.230" y="52.490" width="1.700" height="1.700" rx="0.850" fill="#c79b5c"/><circle cx="5.080" cy="53.340" r="0.500" fill="#12151c"/><rect x="4.230" y="57.570" width="1.700" height="1.700" rx="0.850" fill="#c79b5c"/><circle cx="5.080" cy="58.420" r="0.500" fill="#12151c"/><rect x="4.230" y="62.650" width="1.700" height="1.700" rx="0.850" fill="#c79b5c"/><circle cx="5.080" cy="63.500" r="0.500" fill="#12151c"/><rect x="4.230" y="67.730" width="1.700" height="1.700" rx="0.850" fill="#c79b5c"/><circle cx="5.080" cy="68.580" r="0.500" fill="#12151c"/><rect x="4.230" y="72.810" width="1.700" height="1.700" rx="0.850" fill="#c79b5c"/><circle cx="5.080" cy="73.660" r="0.500" fill="#12151c"/><rect x="4.230" y="77.890" width="1.700" height="1.700" rx="0.850" fill="#c79b5c"/><circle cx="5.080" cy="78.740" r="0.500" fill="#12151c"/></svg>