<svg xmlns="http://www.w3.org/2000/svg" viewBox="-5.25 -5.53 10.78 10.78" preserveAspectRatio="xMidYMid meet" style="width:100%;height:100%"><rect x="-5.25" y="-5.53" width="10.78" height="10.78" fill="#12151c"/><line x1="-3.540" y1="-4.530" x2="4.530" y2="-4.530" stroke="#d24d4d" stroke-width="0.080" stroke-linecap="round" opacity="0.7"/><line x1="4.530" y1="-4.530" x2="4.530" y2="3.540" stroke="#d24d4d" stroke-width="0.080" stroke-linecap="round" opacity="0.7"/><line x1="4.530" y1="3.540" x2="-3.540" y2="3.540" stroke="#d24d4d" stroke-width="0.080" stroke-linecap="round" opacity="0.7"/><line x1="-3.540" y1="3.540" x2="-3.540" y2="-4.530" stroke="#d24d4d" stroke-width="0.080" stroke-linecap="round" opacity="0.7"/><path d="M 3.626 -2.990 A 4.700 4.700 0 1 1 2.990 -3.626" fill="none" stroke="#e6e9ef" stroke-width="0.12" opacity="1"/><path d="M 3.626 -2.990 A 4.700 4.700 0 1 1 2.990 -3.626" fill="none" stroke="#6b7280" stroke-width="0.12" opacity="0.8"/><circle cx="0.000" cy="0.000" r="4.250" fill="none" stroke="#e6e9ef" stroke-width="0.12" opacity="1"/><circle cx="0.000" cy="0.000" r="4.250" fill="none" stroke="#6b7280" stroke-width="0.12" opacity="0.8"/><rect x="-0.750" y="-3.290" width="1.500" height="1.500" rx="0.750" fill="#c79b5c"/><circle cx="0.000" cy="-2.540" r="0.400" fill="#12151c"/><rect x="-3.290" y="-0.750" width="1.500" height="1.500" rx="0.750" fill="#c79b5c"/><circle cx="-2.540" cy="0.000" r="0.400" fill="#12151c"/><rect x="-0.750" y="1.790" width="1.500" height="1.500" rx="0.750" fill="#c79b5c"/><circle cx="0.000" cy="2.540" r="0.400" fill="#12151c"/><rect x="1.790" y="-0.750" width="1.500" height="1.500" rx="0.750" fill="#c79b5c"/><circle cx="2.540" cy="0.000" r="0.400" fill="#12151c"/></svg>