<svg xmlns="http://www.w3.org/2000/svg" viewBox="-6.65 -6.40 13.30 12.80" preserveAspectRatio="xMidYMid meet" style="width:100%;height:100%"><rect x="-6.65" y="-6.40" width="13.30" height="12.80" fill="#12151c"/><line x1="-5.150" y1="-5.150" x2="5.150" y2="-5.150" stroke="#e6e9ef" stroke-width="0.200" stroke-linecap="round" opacity="1"/><line x1="-5.150" y1="-2.625" x2="-5.150" y2="-5.150" stroke="#e6e9ef" stroke-width="0.200" stroke-linecap="round" opacity="1"/><line x1="-5.150" y1="5.150" x2="-5.150" y2="2.625" stroke="#e6e9ef" stroke-width="0.200" stroke-linecap="round" opacity="1"/><line x1="-5.150" y1="5.150" x2="5.150" y2="5.150" stroke="#e6e9ef" stroke-width="0.200" stroke-linecap="round" opacity="1"/><line x1="-4.658" y1="2.642" x2="-2.133" y2="5.150" stroke="#e6e9ef" stroke-width="0.200" stroke-linecap="round" opacity="1"/><line x1="-4.633" y1="-2.650" x2="-2.133" y2="-5.150" stroke="#e6e9ef" stroke-width="0.200" stroke-linecap="round" opacity="1"/><line x1="-2.250" y1="0.000" x2="-1.905" y2="0.000" stroke="#e6e9ef" stroke-width="0.200" stroke-linecap="round" opacity="1"/><line x1="1.905" y1="0.000" x2="2.250" y2="0.000" stroke="#e6e9ef" stroke-width="0.200" stroke-linecap="round" opacity="1"/><line x1="2.133" y1="-5.150" x2="4.629" y2="-2.646" stroke="#e6e9ef" stroke-width="0.200" stroke-linecap="round" opacity="1"/><line x1="2.133" y1="5.150" x2="4.625" y2="2.650" stroke="#e6e9ef" stroke-width="0.200" stroke-linecap="round" opacity="1"/><line x1="5.150" y1="-2.625" x2="5.150" y2="-5.150" stroke="#e6e9ef" stroke-width="0.200" stroke-linecap="round" opacity="1"/><line x1="5.150" y1="5.150" x2="5.150" y2="2.625" stroke="#e6e9ef" stroke-width="0.200" stroke-linecap="round" opacity="1"/><line x1="-5.400" y1="-2.300" x2="-3.600" y2="-2.300" stroke="#4a5160" stroke-width="0.100" stroke-linecap="round" opacity="0.7"/><line x1="-5.400" y1="2.300" x2="-5.400" y2="-2.300" stroke="#4a5160" stroke-width="0.100" stroke-linecap="round" opacity="0.7"/><line x1="-5.400" y1="2.300" x2="-3.600" y2="2.300" stroke="#4a5160" stroke-width="0.100" stroke-linecap="round" opacity="0.7"/><line x1="-3.600" y1="2.300" x2="-3.600" y2="-2.300" stroke="#4a5160" stroke-width="0.100" stroke-linecap="round" opacity="0.7"/><line x1="3.600" y1="-2.300" x2="5.400" y2="-2.300" stroke="#4a5160" stroke-width="0.100" stroke-linecap="round" opacity="0.7"/><line x1="3.600" y1="2.300" x2="3.600" y2="-2.300" stroke="#4a5160" stroke-width="0.100" stroke-linecap="round" opacity="0.7"/><line x1="3.600" y1="2.300" x2="5.400" y2="2.300" stroke="#4a5160" stroke-width="0.100" stroke-linecap="round" opacity="0.7"/><line x1="5.400" y1="2.300" x2="5.400" y2="-2.300" stroke="#4a5160" stroke-width="0.100" stroke-linecap="round" opacity="0.7"/><line x1="-5.650" y1="-5.400" x2="5.650" y2="-5.400" stroke="#d24d4d" stroke-width="0.080" stroke-linecap="round" opacity="0.7"/><line x1="-5.650" y1="5.400" x2="-5.650" y2="-5.400" stroke="#d24d4d" stroke-width="0.080" stroke-linecap="round" opacity="0.7"/><line x1="-5.650" y1="5.400" x2="5.650" y2="5.400" stroke="#d24d4d" stroke-width="0.080" stroke-linecap="round" opacity="0.7"/><line x1="5.650" y1="5.400" x2="5.650" y2="-5.400" stroke="#d24d4d" stroke-width="0.080" stroke-linecap="round" opacity="0.7"/><line x1="-5.150" y1="-5.150" x2="5.150" y2="-5.150" stroke="#6b7280" stroke-width="0.100" stroke-linecap="round" opacity="0.8"/><line x1="-5.150" y1="-2.133" x2="-2.133" y2="-5.150" stroke="#6b7280" stroke-width="0.100" stroke-linecap="round" opacity="0.8"/><line x1="-5.150" y1="2.133" x2="-2.133" y2="5.150" stroke="#6b7280" stroke-width="0.100" stroke-linecap="round" opacity="0.8"/><line x1="-5.150" y1="5.150" x2="-5.150" y2="-5.150" stroke="#6b7280" stroke-width="0.100" stroke-linecap="round" opacity="0.8"/><line x1="-5.150" y1="5.150" x2="5.150" y2="5.150" stroke="#6b7280" stroke-width="0.100" stroke-linecap="round" opacity="0.8"/><line x1="-2.250" y1="0.000" x2="-1.905" y2="0.000" stroke="#6b7280" stroke-width="0.100" stroke-linecap="round" opacity="0.8"/><line x1="1.905" y1="0.000" x2="2.250" y2="0.000" stroke="#6b7280" stroke-width="0.100" stroke-linecap="round" opacity="0.8"/><line x1="2.133" y1="-5.150" x2="5.150" y2="-2.133" stroke="#6b7280" stroke-width="0.100" stroke-linecap="round" opacity="0.8"/><line x1="2.133" y1="5.150" x2="5.150" y2="2.133" stroke="#6b7280" stroke-width="0.100" stroke-linecap="round" opacity="0.8"/><line x1="5.150" y1="5.150" x2="5.150" y2="-5.150" stroke="#6b7280" stroke-width="0.100" stroke-linecap="round" opacity="0.8"/><path d="M -1.905 0.000 A 0.635 0.635 0 0 1 -0.635 0.000" fill="none" stroke="#e6e9ef" stroke-width="0.12" opacity="1"/><path d="M -0.635 0.000 A 0.635 0.635 0 0 1 0.635 0.000" fill="none" stroke="#e6e9ef" stroke-width="0.12" opacity="1"/><path d="M 0.635 0.000 A 0.635 0.635 0 0 1 1.905 0.000" fill="none" stroke="#e6e9ef" stroke-width="0.12" opacity="1"/><path d="M -1.905 0.000 A 0.635 0.635 0 0 1 -0.635 0.000" fill="none" stroke="#6b7280" stroke-width="0.12" opacity="0.8"/><path d="M -0.635 0.000 A 0.635 0.635 0 0 1 0.635 0.000" fill="none" stroke="#6b7280" stroke-width="0.12" opacity="0.8"/><path d="M 0.635 0.000 A 0.635 0.635 0 0 1 1.905 0.000" fill="none" stroke="#6b7280" stroke-width="0.12" opacity="0.8"/><circle cx="0.000" cy="0.000" r="3.250" fill="none" stroke="#e6e9ef" stroke-width="0.12" opacity="1"/><circle cx="0.000" cy="0.000" r="3.000" fill="none" stroke="#e6e9ef" stroke-width="0.12" opacity="1"/><circle cx="0.000" cy="0.000" r="3.250" fill="none" stroke="#6b7280" stroke-width="0.12" opacity="0.8"/><circle cx="0.000" cy="0.000" r="3.000" fill="none" stroke="#6b7280" stroke-width="0.12" opacity="0.8"/><rect x="-5.400" y="-2.300" width="1.800" height="4.600" rx="0.000" fill="#c79b5c"/><rect x="3.600" y="-2.300" width="1.800" height="4.600" rx="0.000" fill="#c79b5c"/><polygon points="-4.95,3.35 -4.05,3.35 -4.50,2.75" fill="#ffffff"/></svg>