<svg xmlns="http://www.w3.org/2000/svg" viewBox="-30.60 -46.75 61.20 58.50" preserveAspectRatio="xMidYMid meet" style="width:100%;height:100%"><rect x="-30.60" y="-46.75" width="61.20" height="58.50" fill="#12151c"/><line x1="-29.350" y1="-11.000" x2="-29.350" y2="-44.500" stroke="#e6e9ef" stroke-width="0.200" stroke-linecap="round" opacity="1"/><line x1="-28.350" y1="-45.500" x2="28.350" y2="-45.500" stroke="#e6e9ef" stroke-width="0.200" stroke-linecap="round" opacity="1"/><line x1="-28.350" y1="-10.000" x2="-28.000" y2="-10.000" stroke="#e6e9ef" stroke-width="0.200" stroke-linecap="round" opacity="1"/><line x1="-8.750" y1="-10.000" x2="8.750" y2="-10.000" stroke="#e6e9ef" stroke-width="0.200" stroke-linecap="round" opacity="1"/><line x1="28.000" y1="-10.000" x2="28.350" y2="-10.000" stroke="#e6e9ef" stroke-width="0.200" stroke-linecap="round" opacity="1"/><line x1="29.350" y1="-11.000" x2="29.350" y2="-44.500" stroke="#e6e9ef" stroke-width="0.200" stroke-linecap="round" opacity="1"/><line x1="-27.650" y1="-13.000" x2="-9.100" y2="-13.000" stroke="#4a5160" stroke-width="0.080" stroke-linecap="round" opacity="0.7"/><line x1="-27.650" y1="8.000" x2="-27.650" y2="-13.000" stroke="#4a5160" stroke-width="0.080" stroke-linecap="round" opacity="0.7"/><line x1="-27.650" y1="8.000" x2="-9.100" y2="8.000" stroke="#4a5160" stroke-width="0.080" stroke-linecap="round" opacity="0.7"/><line x1="-18.700" y1="0.000" x2="-18.500" y2="0.000" stroke="#4a5160" stroke-width="0.080" stroke-linecap="round" opacity="0.7"/><line x1="-18.500" y1="0.000" x2="-18.500" y2="-0.200" stroke="#4a5160" stroke-width="0.080" stroke-linecap="round" opacity="0.7"/><line x1="-18.500" y1="0.000" x2="-18.300" y2="0.000" stroke="#4a5160" stroke-width="0.080" stroke-linecap="round" opacity="0.7"/><line x1="-18.500" y1="0.200" x2="-18.500" y2="0.000" stroke="#4a5160" stroke-width="0.080" stroke-linecap="round" opacity="0.7"/><line x1="-9.100" y1="8.000" x2="-9.100" y2="-13.000" stroke="#4a5160" stroke-width="0.080" stroke-linecap="round" opacity="0.7"/><line x1="-0.500" y1="0.000" x2="0.000" y2="0.000" stroke="#4a5160" stroke-width="0.080" stroke-linecap="round" opacity="0.7"/><line x1="0.000" y1="0.000" x2="0.000" y2="-0.500" stroke="#4a5160" stroke-width="0.080" stroke-linecap="round" opacity="0.7"/><line x1="0.000" y1="0.000" x2="0.500" y2="0.000" stroke="#4a5160" stroke-width="0.080" stroke-linecap="round" opacity="0.7"/><line x1="0.000" y1="0.500" x2="0.000" y2="0.000" stroke="#4a5160" stroke-width="0.080" stroke-linecap="round" opacity="0.7"/><line x1="9.100" y1="-13.000" x2="27.650" y2="-13.000" stroke="#4a5160" stroke-width="0.080" stroke-linecap="round" opacity="0.7"/><line x1="9.100" y1="8.000" x2="9.100" y2="-13.000" stroke="#4a5160" stroke-width="0.080" stroke-linecap="round" opacity="0.7"/><line x1="9.100" y1="8.000" x2="27.650" y2="8.000" stroke="#4a5160" stroke-width="0.080" stroke-linecap="round" opacity="0.7"/><line x1="18.300" y1="0.000" x2="18.500" y2="0.000" stroke="#4a5160" stroke-width="0.080" stroke-linecap="round" opacity="0.7"/><line x1="18.500" y1="0.000" x2="18.500" y2="-0.200" stroke="#4a5160" stroke-width="0.080" stroke-linecap="round" opacity="0.7"/><line x1="18.500" y1="0.000" x2="18.700" y2="0.000" stroke="#4a5160" stroke-width="0.080" stroke-linecap="round" opacity="0.7"/><line x1="18.500" y1="0.200" x2="18.500" y2="0.000" stroke="#4a5160" stroke-width="0.080" stroke-linecap="round" opacity="0.7"/><line x1="27.650" y1="8.000" x2="27.650" y2="-13.000" stroke="#4a5160" stroke-width="0.080" stroke-linecap="round" opacity="0.7"/><line x1="-29.350" y1="-11.000" x2="-29.350" y2="-44.500" stroke="#6b7280" stroke-width="0.100" stroke-linecap="round" opacity="0.8"/><line x1="-28.350" y1="-45.500" x2="28.350" y2="-45.500" stroke="#6b7280" stroke-width="0.100" stroke-linecap="round" opacity="0.8"/><line x1="-28.350" y1="-10.000" x2="28.350" y2="-10.000" stroke="#6b7280" stroke-width="0.100" stroke-linecap="round" opacity="0.8"/><line x1="-26.250" y1="7.000" x2="-26.250" y2="-10.000" stroke="#6b7280" stroke-width="0.100" stroke-linecap="round" opacity="0.8"/><line x1="-26.250" y1="7.000" x2="-10.500" y2="7.000" stroke="#6b7280" stroke-width="0.100" stroke-linecap="round" opacity="0.8"/><line x1="-24.169" y1="-3.100" x2="-12.831" y2="-3.100" stroke="#6b7280" stroke-width="0.100" stroke-linecap="round" opacity="0.8"/><line x1="-24.169" y1="3.100" x2="-12.831" y2="3.100" stroke="#6b7280" stroke-width="0.100" stroke-linecap="round" opacity="0.8"/><line x1="-13.500" y1="-9.000" x2="-13.500" y2="-10.000" stroke="#6b7280" stroke-width="0.100" stroke-linecap="round" opacity="0.8"/><line x1="-13.500" y1="-9.000" x2="-10.500" y2="-9.000" stroke="#6b7280" stroke-width="0.100" stroke-linecap="round" opacity="0.8"/><line x1="-10.500" y1="7.000" x2="-10.500" y2="-9.000" stroke="#6b7280" stroke-width="0.100" stroke-linecap="round" opacity="0.8"/><line x1="10.500" y1="-9.000" x2="13.500" y2="-9.000" stroke="#6b7280" stroke-width="0.100" stroke-linecap="round" opacity="0.8"/><line x1="10.500" y1="7.000" x2="10.500" y2="-9.000" stroke="#6b7280" stroke-width="0.100" stroke-linecap="round" opacity="0.8"/><line x1="10.500" y1="7.000" x2="26.250" y2="7.000" stroke="#6b7280" stroke-width="0.100" stroke-linecap="round" opacity="0.8"/><line x1="12.831" y1="-3.100" x2="24.169" y2="-3.100" stroke="#6b7280" stroke-width="0.100" stroke-linecap="round" opacity="0.8"/><line x1="12.831" y1="3.100" x2="24.169" y2="3.100" stroke="#6b7280" stroke-width="0.100" stroke-linecap="round" opacity="0.8"/><line x1="13.500" y1="-9.000" x2="13.500" y2="-10.000" stroke="#6b7280" stroke-width="0.100" stroke-linecap="round" opacity="0.8"/><line x1="26.250" y1="7.000" x2="26.250" y2="-10.000" stroke="#6b7280" stroke-width="0.100" stroke-linecap="round" opacity="0.8"/><line x1="29.350" y1="-11.000" x2="29.350" y2="-44.500" stroke="#6b7280" stroke-width="0.100" stroke-linecap="round" opacity="0.8"/><line x1="-29.600" y1="-45.750" x2="29.600" y2="-45.750" stroke="#d24d4d" stroke-width="0.080" stroke-linecap="round" opacity="0.7"/><line x1="29.600" y1="-45.750" x2="29.600" y2="10.750" stroke="#d24d4d" stroke-width="0.080" stroke-linecap="round" opacity="0.7"/><line x1="29.600" y1="10.750" x2="-29.600" y2="10.750" stroke="#d24d4d" stroke-width="0.080" stroke-linecap="round" opacity="0.7"/><line x1="-29.600" y1="10.750" x2="-29.600" y2="-45.750" stroke="#d24d4d" stroke-width="0.080" stroke-linecap="round" opacity="0.7"/><path d="M -29.350 -44.500 A 1.000 1.000 0 0 1 -28.350 -45.500" fill="none" stroke="#e6e9ef" stroke-width="0.12" opacity="1"/><path d="M -28.350 -10.000 A 1.000 1.000 0 0 1 -29.350 -11.000" fill="none" stroke="#e6e9ef" stroke-width="0.12" opacity="1"/><path d="M 28.350 -45.500 A 1.000 1.000 0 0 1 29.350 -44.500" fill="none" stroke="#e6e9ef" stroke-width="0.12" opacity="1"/><path d="M 29.350 -11.000 A 1.000 1.000 0 0 1 28.350 -10.000" fill="none" stroke="#e6e9ef" stroke-width="0.12" opacity="1"/><path d="M -29.350 -44.500 A 1.000 1.000 0 0 1 -28.350 -45.500" fill="none" stroke="#6b7280" stroke-width="0.12" opacity="0.8"/><path d="M -28.350 -10.000 A 1.000 1.000 0 0 1 -29.350 -11.000" fill="none" stroke="#6b7280" stroke-width="0.12" opacity="0.8"/><path d="M -24.169 3.100 A 6.200 6.200 0 0 1 -24.169 -3.100" fill="none" stroke="#6b7280" stroke-width="0.12" opacity="0.8"/><path d="M -12.831 -3.100 A 6.200 6.200 0 0 1 -12.831 3.100" fill="none" stroke="#6b7280" stroke-width="0.12" opacity="0.8"/><path d="M 12.831 3.100 A 6.200 6.200 0 0 1 12.831 -3.100" fill="none" stroke="#6b7280" stroke-width="0.12" opacity="0.8"/><path d="M 24.169 -3.100 A 6.200 6.200 0 0 1 24.169 3.100" fill="none" stroke="#6b7280" stroke-width="0.12" opacity="0.8"/><path d="M 28.350 -45.500 A 1.000 1.000 0 0 1 29.350 -44.500" fill="none" stroke="#6b7280" stroke-width="0.12" opacity="0.8"/><path d="M 29.350 -11.000 A 1.000 1.000 0 0 1 28.350 -10.000" fill="none" stroke="#6b7280" stroke-width="0.12" opacity="0.8"/><circle cx="-18.500" cy="0.000" r="3.100" fill="none" stroke="#4a5160" stroke-width="0.12" opacity="0.7"/><circle cx="18.500" cy="0.000" r="3.100" fill="none" stroke="#4a5160" stroke-width="0.12" opacity="0.7"/><rect x="-22.897" y="-2.750" width="1.000" height="1.000" rx="0.500" fill="#c79b5c"/><circle cx="-22.397" cy="-2.250" r="0.250" fill="#12151c"/><rect x="-22.897" y="1.750" width="1.000" height="1.000" rx="0.500" fill="#c79b5c"/><circle cx="-22.397" cy="2.250" r="0.250" fill="#12151c"/><rect x="-19.000" y="-5.000" width="1.000" height="1.000" rx="0.500" fill="#c79b5c"/><circle cx="-18.500" cy="-4.500" r="0.250" fill="#12151c"/><rect x="-27.775" y="-10.500" width="18.550" height="21.000" rx="0.000" fill="#c79b5c"/><circle cx="-18.500" cy="0.000" r="3.100" fill="#12151c"/><rect x="-19.000" y="4.000" width="1.000" height="1.000" rx="0.500" fill="#c79b5c"/><circle cx="-18.500" cy="4.500" r="0.250" fill="#12151c"/><rect x="-15.103" y="-2.750" width="1.000" height="1.000" rx="0.500" fill="#c79b5c"/><circle cx="-14.603" cy="-2.250" r="0.250" fill="#12151c"/><rect x="-15.103" y="1.750" width="1.000" height="1.000" rx="0.500" fill="#c79b5c"/><circle cx="-14.603" cy="2.250" r="0.250" fill="#12151c"/><rect x="14.103" y="-2.750" width="1.000" height="1.000" rx="0.500" fill="#c79b5c"/><circle cx="14.603" cy="-2.250" r="0.250" fill="#12151c"/><rect x="14.103" y="1.750" width="1.000" height="1.000" rx="0.500" fill="#c79b5c"/><circle cx="14.603" cy="2.250" r="0.250" fill="#12151c"/><rect x="18.000" y="-5.000" width="1.000" height="1.000" rx="0.500" fill="#c79b5c"/><circle cx="18.500" cy="-4.500" r="0.250" fill="#12151c"/><rect x="9.225" y="-10.500" width="18.550" height="21.000" rx="0.000" fill="#c79b5c"/><circle cx="18.500" cy="0.000" r="3.100" fill="#12151c"/><rect x="18.000" y="4.000" width="1.000" height="1.000" rx="0.500" fill="#c79b5c"/><circle cx="18.500" cy="4.500" r="0.250" fill="#12151c"/><rect x="21.897" y="-2.750" width="1.000" height="1.000" rx="0.500" fill="#c79b5c"/><circle cx="22.397" cy="-2.250" r="0.250" fill="#12151c"/><rect x="21.897" y="1.750" width="1.000" height="1.000" rx="0.500" fill="#c79b5c"/><circle cx="22.397" cy="2.250" r="0.250" fill="#12151c"/></svg>