<svg xmlns="http://www.w3.org/2000/svg" viewBox="-6.58 -1.50 28.40 23.32" preserveAspectRatio="xMidYMid meet" style="width:100%;height:100%"><rect x="-6.58" y="-1.50" width="28.40" height="23.32" fill="#12151c"/><rect x="0.000" y="-0.000" width="15.240" height="20.320" fill="#1e222b" stroke="#4ea1ff" stroke-width="0.25"/><rect x="14.732" y="14.224" width="0.508" height="2.286" fill="#1e222b" stroke="#4ea1ff" stroke-width="0.25"/><polyline points="2.540,6.350 2.540,8.890" fill="none" stroke="#4ea1ff" stroke-width="0.25" stroke-linejoin="round"/><polyline points="2.540,8.890 3.556,8.890" fill="none" stroke="#4ea1ff" stroke-width="0.25" stroke-linejoin="round"/><polyline points="3.048,6.350 3.048,5.080" fill="none" stroke="#4ea1ff" stroke-width="0.25" stroke-linejoin="round"/><polyline points="3.048,12.700 3.048,8.890" fill="none" stroke="#4ea1ff" stroke-width="0.25" stroke-linejoin="round"/><polyline points="3.556,6.350 2.540,6.350" fill="none" stroke="#4ea1ff" stroke-width="0.25" stroke-linejoin="round"/><polyline points="3.556,8.890 3.556,6.350" fill="none" stroke="#4ea1ff" stroke-width="0.25" stroke-linejoin="round"/><polyline points="5.842,6.350 5.842,8.890" fill="none" stroke="#4ea1ff" stroke-width="0.25" stroke-linejoin="round"/><polyline points="5.842,8.890 6.858,8.890" fill="none" stroke="#4ea1ff" stroke-width="0.25" stroke-linejoin="round"/><polyline points="6.350,5.080 0.000,5.080" fill="none" stroke="#4ea1ff" stroke-width="0.25" stroke-linejoin="round"/><polyline points="6.350,5.080 6.350,6.350" fill="none" stroke="#4ea1ff" stroke-width="0.25" stroke-linejoin="round"/><polyline points="6.350,8.890 6.350,10.160" fill="none" stroke="#4ea1ff" stroke-width="0.25" stroke-linejoin="round"/><polyline points="6.858,6.350 5.842,6.350" fill="none" stroke="#4ea1ff" stroke-width="0.25" stroke-linejoin="round"/><polyline points="6.858,8.890 6.858,6.350" fill="none" stroke="#4ea1ff" stroke-width="0.25" stroke-linejoin="round"/><polyline points="7.874,12.700 0.000,12.700" fill="none" stroke="#4ea1ff" stroke-width="0.25" stroke-linejoin="round"/><polyline points="8.890,10.160 0.000,10.160" fill="none" stroke="#4ea1ff" stroke-width="0.25" stroke-linejoin="round"/><polyline points="10.160,10.160 15.240,10.160" fill="none" stroke="#4ea1ff" stroke-width="0.25" stroke-linejoin="round"/><polyline points="11.430,11.430 8.890,8.890 8.890,13.970 11.430,11.430" fill="#1e222b" stroke="#4ea1ff" stroke-width="0.25" stroke-linejoin="round"/><polyline points="11.430,12.700 15.240,12.700" fill="none" stroke="#4ea1ff" stroke-width="0.25" stroke-linejoin="round"/><circle cx="3.048" cy="5.080" r="0.254" fill="none" stroke="#4ea1ff" stroke-width="0.25"/><circle cx="3.048" cy="12.700" r="0.254" fill="none" stroke="#4ea1ff" stroke-width="0.25"/><circle cx="6.350" cy="10.160" r="0.254" fill="none" stroke="#4ea1ff" stroke-width="0.25"/><circle cx="8.382" cy="12.700" r="0.508" fill="none" stroke="#4ea1ff" stroke-width="0.25"/><circle cx="10.922" cy="12.700" r="0.508" fill="none" stroke="#4ea1ff" stroke-width="0.25"/><line x1="-5.080" y1="2.540" x2="0.000" y2="2.540" stroke="#e6e9ef" stroke-width="0.2"/><circle cx="-5.080" cy="2.540" r="0.4" fill="#4ea1ff"/><text x="0.500" y="2.890" fill="#e6e9ef" font-size="1.1" text-anchor="start" font-family="sans-serif">VREF-AC</text><text x="-0.300" y="2.190" fill="#9aa3b2" font-size="0.9" text-anchor="end" font-family="sans-serif">3</text><line x1="-5.080" y1="5.080" x2="0.000" y2="5.080" stroke="#e6e9ef" stroke-width="0.2"/><circle cx="-5.080" cy="5.080" r="0.4" fill="#4ea1ff"/><text x="0.500" y="5.430" fill="#e6e9ef" font-size="1.1" text-anchor="start" font-family="sans-serif">VT</text><text x="-0.300" y="4.730" fill="#9aa3b2" font-size="0.9" text-anchor="end" font-family="sans-serif">2</text><line x1="-5.080" y1="10.160" x2="0.000" y2="10.160" stroke="#e6e9ef" stroke-width="0.2"/><circle cx="-5.080" cy="10.160" r="0.4" fill="#4ea1ff"/><text x="0.500" y="10.510" fill="#e6e9ef" font-size="1.1" text-anchor="start" font-family="sans-serif">IN</text><text x="-0.300" y="9.810" fill="#9aa3b2" font-size="0.9" text-anchor="end" font-family="sans-serif">1</text><line x1="-5.080" y1="12.700" x2="0.000" y2="12.700" stroke="#e6e9ef" stroke-width="0.2"/><circle cx="-5.080" cy="12.700" r="0.4" fill="#4ea1ff"/><text x="0.500" y="13.050" fill="#e6e9ef" font-size="1.1" text-anchor="start" font-family="sans-serif">~{IN}</text><text x="-0.300" y="12.350" fill="#9aa3b2" font-size="0.9" text-anchor="end" font-family="sans-serif">4</text><line x1="-5.080" y1="17.780" x2="0.000" y2="17.780" stroke="#e6e9ef" stroke-width="0.2"/><circle cx="-5.080" cy="17.780" r="0.4" fill="#4ea1ff"/><text x="0.500" y="18.130" fill="#e6e9ef" font-size="1.1" text-anchor="start" font-family="sans-serif">VCC</text><text x="-0.300" y="17.430" fill="#9aa3b2" font-size="0.9" text-anchor="end" font-family="sans-serif">8</text><line x1="20.320" y1="10.160" x2="15.240" y2="10.160" stroke="#e6e9ef" stroke-width="0.2"/><circle cx="20.320" cy="10.160" r="0.4" fill="#4ea1ff"/><text x="14.740" y="10.510" fill="#e6e9ef" font-size="1.1" text-anchor="end" font-family="sans-serif">Q</text><text x="15.540" y="9.810" fill="#9aa3b2" font-size="0.9" text-anchor="start" font-family="sans-serif">7</text><line x1="20.320" y1="12.700" x2="15.240" y2="12.700" stroke="#e6e9ef" stroke-width="0.2"/><circle cx="20.320" cy="12.700" r="0.4" fill="#4ea1ff"/><text x="14.740" y="13.050" fill="#e6e9ef" font-size="1.1" text-anchor="end" font-family="sans-serif">~{Q}</text><text x="15.540" y="12.350" fill="#9aa3b2" font-size="0.9" text-anchor="start" font-family="sans-serif">6</text><line x1="20.320" y1="15.240" x2="15.240" y2="15.240" stroke="#e6e9ef" stroke-width="0.2"/><circle cx="20.320" cy="15.240" r="0.4" fill="#4ea1ff"/><text x="14.740" y="15.590" fill="#e6e9ef" font-size="1.1" text-anchor="end" font-family="sans-serif">EP</text><text x="15.540" y="14.890" fill="#9aa3b2" font-size="0.9" text-anchor="start" font-family="sans-serif">9</text><line x1="20.320" y1="17.780" x2="15.240" y2="17.780" stroke="#e6e9ef" stroke-width="0.2"/><circle cx="20.320" cy="17.780" r="0.4" fill="#4ea1ff"/><text x="14.740" y="18.130" fill="#e6e9ef" font-size="1.1" text-anchor="end" font-family="sans-serif">GND</text><text x="15.540" y="17.430" fill="#9aa3b2" font-size="0.9" text-anchor="start" font-family="sans-serif">5</text></svg>