<svg xmlns="http://www.w3.org/2000/svg" viewBox="-48.29 -18.25 96.58 36.49" preserveAspectRatio="xMidYMid meet" style="width:100%;height:100%"><rect x="-48.29" y="-18.25" width="96.58" height="36.49" fill="#12151c"/><line x1="-47.290" y1="-17.250" x2="47.290" y2="-17.250" stroke="#d24d4d" stroke-width="0.080" stroke-linecap="round" opacity="0.7"/><line x1="47.290" y1="-17.250" x2="47.290" y2="17.240" stroke="#d24d4d" stroke-width="0.080" stroke-linecap="round" opacity="0.7"/><line x1="47.290" y1="17.240" x2="-47.290" y2="17.240" stroke="#d24d4d" stroke-width="0.080" stroke-linecap="round" opacity="0.7"/><line x1="-47.290" y1="17.240" x2="-47.290" y2="-17.250" stroke="#d24d4d" stroke-width="0.080" stroke-linecap="round" opacity="0.7"/><circle cx="-40.010" cy="-0.006" r="3.800" fill="none" stroke="#6b7280" stroke-width="0.12" opacity="0.8"/><circle cx="-40.010" cy="-0.006" r="3.204" fill="none" stroke="#6b7280" stroke-width="0.12" opacity="0.8"/><circle cx="40.010" cy="-0.006" r="3.800" fill="none" stroke="#6b7280" stroke-width="0.12" opacity="0.8"/><circle cx="40.010" cy="-0.006" r="3.204" fill="none" stroke="#6b7280" stroke-width="0.12" opacity="0.8"/><circle cx="-40.000" cy="0.000" r="0.500" fill="none" stroke="#6b7280" stroke-width="0.1"/><circle cx="40.000" cy="0.000" r="0.500" fill="none" stroke="#6b7280" stroke-width="0.1"/><rect x="16.800" y="-6.200" width="1.000" height="1.000" rx="0.500" fill="#c79b5c"/><rect x="16.800" y="5.200" width="1.000" height="1.000" rx="0.500" fill="#c79b5c"/><rect x="28.200" y="-6.200" width="1.000" height="1.000" rx="0.500" fill="#c79b5c"/><rect x="28.200" y="5.200" width="1.000" height="1.000" rx="0.500" fill="#c79b5c"/><rect x="-6.200" y="-6.200" width="1.000" height="1.000" rx="0.500" fill="#c79b5c"/><rect x="-6.200" y="5.200" width="1.000" height="1.000" rx="0.500" fill="#c79b5c"/><rect x="5.200" y="-6.200" width="1.000" height="1.000" rx="0.500" fill="#c79b5c"/><rect x="5.200" y="5.200" width="1.000" height="1.000" rx="0.500" fill="#c79b5c"/><rect x="-29.200" y="-6.200" width="1.000" height="1.000" rx="0.500" fill="#c79b5c"/><rect x="-29.200" y="5.200" width="1.000" height="1.000" rx="0.500" fill="#c79b5c"/><rect x="-17.800" y="-6.200" width="1.000" height="1.000" rx="0.500" fill="#c79b5c"/><rect x="-17.800" y="5.200" width="1.000" height="1.000" rx="0.500" fill="#c79b5c"/><rect x="-40.500" y="13.691" width="1.000" height="1.000" rx="0.500" fill="#c79b5c"/><rect x="-40.500" y="7.341" width="1.000" height="1.000" rx="0.500" fill="#c79b5c"/><rect x="-40.500" y="-14.703" width="1.000" height="1.000" rx="0.500" fill="#c79b5c"/><rect x="-40.500" y="-8.353" width="1.000" height="1.000" rx="0.500" fill="#c79b5c"/></svg>