<svg xmlns="http://www.w3.org/2000/svg" viewBox="-41.32 -5.00 82.64 10.51" preserveAspectRatio="xMidYMid meet" style="width:100%;height:100%"><rect x="-41.32" y="-5.00" width="82.64" height="10.51" fill="#12151c"/><circle cx="-37.996" cy="4.264" r="0.125" fill="none" stroke="#e6e9ef" stroke-width="0.12" opacity="1"/><circle cx="-37.994" cy="4.264" r="0.250" fill="none" stroke="#6b7280" stroke-width="0.12" opacity="0.8"/><circle cx="-40.070" cy="-2.670" r="0.250" fill="none" stroke="#6b7280" stroke-width="0.1"/><circle cx="40.070" cy="-2.670" r="0.250" fill="none" stroke="#6b7280" stroke-width="0.1"/><rect x="-37.393" y="1.730" width="0.279" height="2.270" rx="0.000" fill="#c79b5c"/><rect x="-37.393" y="-4.000" width="0.279" height="2.270" rx="0.000" fill="#c79b5c"/><rect x="-36.893" y="1.730" width="0.279" height="2.270" rx="0.000" fill="#c79b5c"/><rect x="-36.893" y="-4.000" width="0.279" height="2.270" rx="0.000" fill="#c79b5c"/><rect x="-36.393" y="1.730" width="0.279" height="2.270" rx="0.000" fill="#c79b5c"/><rect x="-36.393" y="-4.000" width="0.279" height="2.270" rx="0.000" fill="#c79b5c"/><rect x="-35.893" y="1.730" width="0.279" height="2.270" rx="0.000" fill="#c79b5c"/><rect x="-35.893" y="-4.000" width="0.279" height="2.270" rx="0.000" fill="#c79b5c"/><rect x="-35.393" y="1.730" width="0.279" height="2.270" rx="0.000" fill="#c79b5c"/><rect x="-35.393" y="-4.000" width="0.279" height="2.270" rx="0.000" fill="#c79b5c"/><rect x="-34.893" y="1.730" width="0.279" height="2.270" rx="0.000" fill="#c79b5c"/><rect x="-34.893" y="-4.000" width="0.279" height="2.270" rx="0.000" fill="#c79b5c"/><rect x="-34.393" y="1.730" width="0.279" height="2.270" rx="0.000" fill="#c79b5c"/><rect x="-34.393" y="-4.000" width="0.279" height="2.270" rx="0.000" fill="#c79b5c"/><rect x="-33.893" y="1.730" width="0.279" height="2.270" rx="0.000" fill="#c79b5c"/><rect x="-33.893" y="-4.000" width="0.279" height="2.270" rx="0.000" fill="#c79b5c"/><rect x="-33.393" y="1.730" width="0.279" height="2.270" rx="0.000" fill="#c79b5c"/><rect x="-33.393" y="-4.000" width="0.279" height="2.270" rx="0.000" fill="#c79b5c"/><rect x="-32.893" y="1.730" width="0.279" height="2.270" rx="0.000" fill="#c79b5c"/><rect x="-32.893" y="-4.000" width="0.279" height="2.270" rx="0.000" fill="#c79b5c"/><rect x="-32.393" y="1.730" width="0.279" height="2.270" rx="0.000" fill="#c79b5c"/><rect x="-32.393" y="-4.000" width="0.279" height="2.270" rx="0.000" fill="#c79b5c"/><rect x="-31.893" y="1.730" width="0.279" height="2.270" rx="0.000" fill="#c79b5c"/><rect x="-31.893" y="-4.000" width="0.279" height="2.270" rx="0.000" fill="#c79b5c"/><rect x="-31.393" y="1.730" width="0.279" height="2.270" rx="0.000" fill="#c79b5c"/><rect x="-31.393" y="-4.000" width="0.279" height="2.270" rx="0.000" fill="#c79b5c"/><rect x="-30.893" y="1.730" width="0.279" height="2.270" rx="0.000" fill="#c79b5c"/><rect x="-30.893" y="-4.000" width="0.279" height="2.270" rx="0.000" fill="#c79b5c"/><rect x="-30.393" y="1.730" width="0.279" height="2.270" rx="0.000" fill="#c79b5c"/><rect x="-30.393" y="-4.000" width="0.279" height="2.270" rx="0.000" fill="#c79b5c"/><rect x="-29.893" y="1.730" width="0.279" height="2.270" rx="0.000" fill="#c79b5c"/><rect x="-29.893" y="-4.000" width="0.279" height="2.270" rx="0.000" fill="#c79b5c"/><rect x="-29.393" y="1.730" width="0.279" height="2.270" rx="0.000" fill="#c79b5c"/><rect x="-29.393" y="-4.000" width="0.279" height="2.270" rx="0.000" fill="#c79b5c"/><rect x="-28.893" y="1.730" width="0.279" height="2.270" rx="0.000" fill="#c79b5c"/><rect x="-28.893" y="-4.000" width="0.279" height="2.270" rx="0.000" fill="#c79b5c"/><rect x="-28.393" y="1.730" width="0.279" height="2.270" rx="0.000" fill="#c79b5c"/><rect x="-28.393" y="-4.000" width="0.279" height="2.270" rx="0.000" fill="#c79b5c"/><rect x="-27.893" y="1.730" width="0.279" height="2.270" rx="0.000" fill="#c79b5c"/><rect x="-27.893" y="-4.000" width="0.279" height="2.270" rx="0.000" fill="#c79b5c"/><rect x="-27.393" y="1.730" width="0.279" height="2.270" rx="0.000" fill="#c79b5c"/><rect x="-27.393" y="-4.000" width="0.279" height="2.270" rx="0.000" fill="#c79b5c"/><rect x="-26.893" y="1.730" width="0.279" height="2.270" rx="0.000" fill="#c79b5c"/><rect x="-26.893" y="-4.000" width="0.279" height="2.270" rx="0.000" fill="#c79b5c"/><rect x="-26.393" y="1.730" width="0.279" height="2.270" rx="0.000" fill="#c79b5c"/><rect x="-26.393" y="-4.000" width="0.279" height="2.270" rx="0.000" fill="#c79b5c"/><rect x="-25.893" y="1.730" width="0.279" height="2.270" rx="0.000" fill="#c79b5c"/><rect x="-25.893" y="-4.000" width="0.279" height="2.270" rx="0.000" fill="#c79b5c"/><rect x="-25.393" y="1.730" width="0.279" height="2.270" rx="0.000" fill="#c79b5c"/><rect x="-25.393" y="-4.000" width="0.279" height="2.270" rx="0.000" fill="#c79b5c"/><rect x="-24.893" y="1.730" width="0.279" height="2.270" rx="0.000" fill="#c79b5c"/><rect x="-24.893" y="-4.000" width="0.279" height="2.270" rx="0.000" fill="#c79b5c"/><rect x="-24.393" y="1.730" width="0.279" height="2.270" rx="0.000" fill="#c79b5c"/><rect x="-24.393" y="-4.000" width="0.279" height="2.270" rx="0.000" fill="#c79b5c"/><rect x="-23.893" y="1.730" width="0.279" height="2.270" rx="0.000" fill="#c79b5c"/><rect x="-23.893" y="-4.000" width="0.279" height="2.270" rx="0.000" fill="#c79b5c"/><rect x="-23.393" y="1.730" width="0.279" height="2.270" rx="0.000" fill="#c79b5c"/><rect x="-23.393" y="-4.000" width="0.279" height="2.270" rx="0.000" fill="#c79b5c"/><rect x="-22.893" y="1.730" width="0.279" height="2.270" rx="0.000" fill="#c79b5c"/><rect x="-22.893" y="-4.000" width="0.279" height="2.270" rx="0.000" fill="#c79b5c"/><rect x="-17.391" y="1.730" width="0.279" height="2.270" rx="0.000" fill="#c79b5c"/><rect x="-17.391" y="-4.000" width="0.279" height="2.270" rx="0.000" fill="#c79b5c"/><rect x="-16.891" y="1.730" width="0.279" height="2.270" rx="0.000" fill="#c79b5c"/><rect x="-16.891" y="-4.000" width="0.279" height="2.270" rx="0.000" fill="#c79b5c"/><rect x="-16.391" y="1.730" width="0.279" height="2.270" rx="0.000" fill="#c79b5c"/><rect x="-16.391" y="-4.000" width="0.279" height="2.270" rx="0.000" fill="#c79b5c"/><rect x="-15.891" y="1.730" width="0.279" height="2.270" rx="0.000" fill="#c79b5c"/><rect x="-15.891" y="-4.000" width="0.279" height="2.270" rx="0.000" fill="#c79b5c"/><rect x="-15.391" y="1.730" width="0.279" height="2.270" rx="0.000" fill="#c79b5c"/><rect x="-15.391" y="-4.000" width="0.279" height="2.270" rx="0.000" fill="#c79b5c"/><rect x="-14.891" y="1.730" width="0.279" height="2.270" rx="0.000" fill="#c79b5c"/><rect x="-14.891" y="-4.000" width="0.279" height="2.270" rx="0.000" fill="#c79b5c"/><rect x="-14.391" y="1.730" width="0.279" height="2.270" rx="0.000" fill="#c79b5c"/><rect x="-14.391" y="-4.000" width="0.279" height="2.270" rx="0.000" fill="#c79b5c"/><rect x="-13.891" y="1.730" width="0.279" height="2.270" rx="0.000" fill="#c79b5c"/><rect x="-13.891" y="-4.000" width="0.279" height="2.270" rx="0.000" fill="#c79b5c"/><rect x="-13.391" y="1.730" width="0.279" height="2.270" rx="0.000" fill="#c79b5c"/><rect x="-13.391" y="-4.000" width="0.279" height="2.270" rx="0.000" fill="#c79b5c"/><rect x="-12.891" y="1.730" width="0.279" height="2.270" rx="0.000" fill="#c79b5c"/><rect x="-12.891" y="-4.000" width="0.279" height="2.270" rx="0.000" fill="#c79b5c"/><rect x="-12.391" y="1.730" width="0.279" height="2.270" rx="0.000" fill="#c79b5c"/><rect x="-12.391" y="-4.000" width="0.279" height="2.270" rx="0.000" fill="#c79b5c"/><rect x="-11.891" y="1.730" width="0.279" height="2.270" rx="0.000" fill="#c79b5c"/><rect x="-11.891" y="-4.000" width="0.279" height="2.270" rx="0.000" fill="#c79b5c"/><rect x="-11.391" y="1.730" width="0.279" height="2.270" rx="0.000" fill="#c79b5c"/><rect x="-11.391" y="-4.000" width="0.279" height="2.270" rx="0.000" fill="#c79b5c"/><rect x="-10.891" y="1.730" width="0.279" height="2.270" rx="0.000" fill="#c79b5c"/><rect x="-10.891" y="-4.000" width="0.279" height="2.270" rx="0.000" fill="#c79b5c"/><rect x="-10.391" y="1.730" width="0.279" height="2.270" rx="0.000" fill="#c79b5c"/><rect x="-10.391" y="-4.000" width="0.279" height="2.270" rx="0.000" fill="#c79b5c"/><rect x="-9.891" y="1.730" width="0.279" height="2.270" rx="0.000" fill="#c79b5c"/><rect x="-9.891" y="-4.000" width="0.279" height="2.270" rx="0.000" fill="#c79b5c"/><rect x="-9.391" y="1.730" width="0.279" height="2.270" rx="0.000" fill="#c79b5c"/><rect x="-9.391" y="-4.000" width="0.279" height="2.270" rx="0.000" fill="#c79b5c"/><rect x="-8.891" y="1.730" width="0.279" height="2.270" rx="0.000" fill="#c79b5c"/><rect x="-8.891" y="-4.000" width="0.279" height="2.270" rx="0.000" fill="#c79b5c"/><rect x="-8.391" y="1.730" width="0.279" height="2.270" rx="0.000" fill="#c79b5c"/><rect x="-8.391" y="-4.000" width="0.279" height="2.270" rx="0.000" fill="#c79b5c"/><rect x="-7.891" y="1.730" width="0.279" height="2.270" rx="0.000" fill="#c79b5c"/><rect x="-7.891" y="-4.000" width="0.279" height="2.270" rx="0.000" fill="#c79b5c"/><rect x="-7.391" y="1.730" width="0.279" height="2.270" rx="0.000" fill="#c79b5c"/><rect x="-7.391" y="-4.000" width="0.279" height="2.270" rx="0.000" fill="#c79b5c"/><rect x="-6.891" y="1.730" width="0.279" height="2.270" rx="0.000" fill="#c79b5c"/><rect x="-6.891" y="-4.000" width="0.279" height="2.270" rx="0.000" fill="#c79b5c"/><rect x="-6.391" y="1.730" width="0.279" height="2.270" rx="0.000" fill="#c79b5c"/><rect x="-6.391" y="-4.000" width="0.279" height="2.270" rx="0.000" fill="#c79b5c"/><rect x="-5.891" y="1.730" width="0.279" height="2.270" rx="0.000" fill="#c79b5c"/><rect x="-5.891" y="-4.000" width="0.279" height="2.270" rx="0.000" fill="#c79b5c"/><rect x="-5.391" y="1.730" width="0.279" height="2.270" rx="0.000" fill="#c79b5c"/><rect x="-5.391" y="-4.000" width="0.279" height="2.270" rx="0.000" fill="#c79b5c"/><rect x="-4.891" y="1.730" width="0.279" height="2.270" rx="0.000" fill="#c79b5c"/><rect x="-4.891" y="-4.000" width="0.279" height="2.270" rx="0.000" fill="#c79b5c"/><rect x="-4.391" y="1.730" width="0.279" height="2.270" rx="0.000" fill="#c79b5c"/><rect x="-4.391" y="-4.000" width="0.279" height="2.270" rx="0.000" fill="#c79b5c"/><rect x="-3.891" y="1.730" width="0.279" height="2.270" rx="0.000" fill="#c79b5c"/><rect x="-3.891" y="-4.000" width="0.279" height="2.270" rx="0.000" fill="#c79b5c"/><rect x="-3.391" y="1.730" width="0.279" height="2.270" rx="0.000" fill="#c79b5c"/><rect x="-3.391" y="-4.000" width="0.279" height="2.270" rx="0.000" fill="#c79b5c"/><rect x="-2.891" y="1.730" width="0.279" height="2.270" rx="0.000" fill="#c79b5c"/><rect x="-2.891" y="-4.000" width="0.279" height="2.270" rx="0.000" fill="#c79b5c"/><rect x="2.612" y="1.730" width="0.279" height="2.270" rx="0.000" fill="#c79b5c"/><rect x="2.612" y="-4.000" width="0.279" height="2.270" rx="0.000" fill="#c79b5c"/><rect x="3.112" y="1.730" width="0.279" height="2.270" rx="0.000" fill="#c79b5c"/><rect x="3.112" y="-4.000" width="0.279" height="2.270" rx="0.000" fill="#c79b5c"/><rect x="3.612" y="1.730" width="0.279" height="2.270" rx="0.000" fill="#c79b5c"/><rect x="3.612" y="-4.000" width="0.279" height="2.270" rx="0.000" fill="#c79b5c"/><rect x="4.112" y="1.730" width="0.279" height="2.270" rx="0.000" fill="#c79b5c"/><rect x="4.112" y="-4.000" width="0.279" height="2.270" rx="0.000" fill="#c79b5c"/><rect x="4.612" y="1.730" width="0.279" height="2.270" rx="0.000" fill="#c79b5c"/><rect x="4.612" y="-4.000" width="0.279" height="2.270" rx="0.000" fill="#c79b5c"/><rect x="5.112" y="1.730" width="0.279" height="2.270" rx="0.000" fill="#c79b5c"/><rect x="5.112" y="-4.000" width="0.279" height="2.270" rx="0.000" fill="#c79b5c"/><rect x="5.612" y="1.730" width="0.279" height="2.270" rx="0.000" fill="#c79b5c"/><rect x="5.612" y="-4.000" width="0.279" height="2.270" rx="0.000" fill="#c79b5c"/><rect x="6.112" y="1.730" width="0.279" height="2.270" rx="0.000" fill="#c79b5c"/><rect x="6.112" y="-4.000" width="0.279" height="2.270" rx="0.000" fill="#c79b5c"/><rect x="6.612" y="1.730" width="0.279" height="2.270" rx="0.000" fill="#c79b5c"/><rect x="6.612" y="-4.000" width="0.279" height="2.270" rx="0.000" fill="#c79b5c"/><rect x="7.112" y="1.730" width="0.279" height="2.270" rx="0.000" fill="#c79b5c"/><rect x="7.112" y="-4.000" width="0.279" height="2.270" rx="0.000" fill="#c79b5c"/><rect x="7.612" y="1.730" width="0.279" height="2.270" rx="0.000" fill="#c79b5c"/><rect x="7.612" y="-4.000" width="0.279" height="2.270" rx="0.000" fill="#c79b5c"/><rect x="8.112" y="1.730" width="0.279" height="2.270" rx="0.000" fill="#c79b5c"/><rect x="8.112" y="-4.000" width="0.279" height="2.270" rx="0.000" fill="#c79b5c"/><rect x="8.612" y="1.730" width="0.279" height="2.270" rx="0.000" fill="#c79b5c"/><rect x="8.612" y="-4.000" width="0.279" height="2.270" rx="0.000" fill="#c79b5c"/><rect x="9.112" y="1.730" width="0.279" height="2.270" rx="0.000" fill="#c79b5c"/><rect x="9.112" y="-4.000" width="0.279" height="2.270" rx="0.000" fill="#c79b5c"/><rect x="9.612" y="1.730" width="0.279" height="2.270" rx="0.000" fill="#c79b5c"/><rect x="9.612" y="-4.000" width="0.279" height="2.270" rx="0.000" fill="#c79b5c"/><rect x="10.112" y="1.730" width="0.279" height="2.270" rx="0.000" fill="#c79b5c"/><rect x="10.112" y="-4.000" width="0.279" height="2.270" rx="0.000" fill="#c79b5c"/><rect x="10.612" y="1.730" width="0.279" height="2.270" rx="0.000" fill="#c79b5c"/><rect x="10.612" y="-4.000" width="0.279" height="2.270" rx="0.000" fill="#c79b5c"/><rect x="11.112" y="1.730" width="0.279" height="2.270" rx="0.000" fill="#c79b5c"/><rect x="11.112" y="-4.000" width="0.279" height="2.270" rx="0.000" fill="#c79b5c"/><rect x="11.612" y="1.730" width="0.279" height="2.270" rx="0.000" fill="#c79b5c"/><rect x="11.612" y="-4.000" width="0.279" height="2.270" rx="0.000" fill="#c79b5c"/><rect x="12.112" y="1.730" width="0.279" height="2.270" rx="0.000" fill="#c79b5c"/><rect x="12.112" y="-4.000" width="0.279" height="2.270" rx="0.000" fill="#c79b5c"/><rect x="12.612" y="1.730" width="0.279" height="2.270" rx="0.000" fill="#c79b5c"/><rect x="12.612" y="-4.000" width="0.279" height="2.270" rx="0.000" fill="#c79b5c"/><rect x="13.112" y="1.730" width="0.279" height="2.270" rx="0.000" fill="#c79b5c"/><rect x="13.112" y="-4.000" width="0.279" height="2.270" rx="0.000" fill="#c79b5c"/><rect x="13.612" y="1.730" width="0.279" height="2.270" rx="0.000" fill="#c79b5c"/><rect x="13.612" y="-4.000" width="0.279" height="2.270" rx="0.000" fill="#c79b5c"/><rect x="14.112" y="1.730" width="0.279" height="2.270" rx="0.000" fill="#c79b5c"/><rect x="14.112" y="-4.000" width="0.279" height="2.270" rx="0.000" fill="#c79b5c"/><rect x="14.612" y="1.730" width="0.279" height="2.270" rx="0.000" fill="#c79b5c"/><rect x="14.612" y="-4.000" width="0.279" height="2.270" rx="0.000" fill="#c79b5c"/><rect x="15.112" y="1.730" width="0.279" height="2.270" rx="0.000" fill="#c79b5c"/><rect x="15.112" y="-4.000" width="0.279" height="2.270" rx="0.000" fill="#c79b5c"/><rect x="15.612" y="1.730" width="0.279" height="2.270" rx="0.000" fill="#c79b5c"/><rect x="15.612" y="-4.000" width="0.279" height="2.270" rx="0.000" fill="#c79b5c"/><rect x="16.112" y="1.730" width="0.279" height="2.270" rx="0.000" fill="#c79b5c"/><rect x="16.112" y="-4.000" width="0.279" height="2.270" rx="0.000" fill="#c79b5c"/><rect x="16.612" y="1.730" width="0.279" height="2.270" rx="0.000" fill="#c79b5c"/><rect x="16.612" y="-4.000" width="0.279" height="2.270" rx="0.000" fill="#c79b5c"/><rect x="17.112" y="1.730" width="0.279" height="2.270" rx="0.000" fill="#c79b5c"/><rect x="17.112" y="-4.000" width="0.279" height="2.270" rx="0.000" fill="#c79b5c"/><rect x="22.614" y="1.730" width="0.279" height="2.270" rx="0.000" fill="#c79b5c"/><rect x="22.614" y="-4.000" width="0.279" height="2.270" rx="0.000" fill="#c79b5c"/><rect x="23.114" y="1.730" width="0.279" height="2.270" rx="0.000" fill="#c79b5c"/><rect x="23.114" y="-4.000" width="0.279" height="2.270" rx="0.000" fill="#c79b5c"/><rect x="23.614" y="1.730" width="0.279" height="2.270" rx="0.000" fill="#c79b5c"/><rect x="23.614" y="-4.000" width="0.279" height="2.270" rx="0.000" fill="#c79b5c"/><rect x="24.114" y="1.730" width="0.279" height="2.270" rx="0.000" fill="#c79b5c"/><rect x="24.114" y="-4.000" width="0.279" height="2.270" rx="0.000" fill="#c79b5c"/><rect x="24.614" y="1.730" width="0.279" height="2.270" rx="0.000" fill="#c79b5c"/><rect x="24.614" y="-4.000" width="0.279" height="2.270" rx="0.000" fill="#c79b5c"/><rect x="25.114" y="1.730" width="0.279" height="2.270" rx="0.000" fill="#c79b5c"/><rect x="25.114" y="-4.000" width="0.279" height="2.270" rx="0.000" fill="#c79b5c"/><rect x="25.614" y="1.730" width="0.279" height="2.270" rx="0.000" fill="#c79b5c"/><rect x="25.614" y="-4.000" width="0.279" height="2.270" rx="0.000" fill="#c79b5c"/><rect x="26.114" y="1.730" width="0.279" height="2.270" rx="0.000" fill="#c79b5c"/><rect x="26.114" y="-4.000" width="0.279" height="2.270" rx="0.000" fill="#c79b5c"/><rect x="26.614" y="1.730" width="0.279" height="2.270" rx="0.000" fill="#c79b5c"/><rect x="26.614" y="-4.000" width="0.279" height="2.270" rx="0.000" fill="#c79b5c"/><rect x="27.114" y="1.730" width="0.279" height="2.270" rx="0.000" fill="#c79b5c"/><rect x="27.114" y="-4.000" width="0.279" height="2.270" rx="0.000" fill="#c79b5c"/><rect x="27.614" y="1.730" width="0.279" height="2.270" rx="0.000" fill="#c79b5c"/><rect x="27.614" y="-4.000" width="0.279" height="2.270" rx="0.000" fill="#c79b5c"/><rect x="28.114" y="1.730" width="0.279" height="2.270" rx="0.000" fill="#c79b5c"/><rect x="28.114" y="-4.000" width="0.279" height="2.270" rx="0.000" fill="#c79b5c"/><rect x="28.614" y="1.730" width="0.279" height="2.270" rx="0.000" fill="#c79b5c"/><rect x="28.614" y="-4.000" width="0.279" height="2.270" rx="0.000" fill="#c79b5c"/><rect x="29.114" y="1.730" width="0.279" height="2.270" rx="0.000" fill="#c79b5c"/><rect x="29.114" y="-4.000" width="0.279" height="2.270" rx="0.000" fill="#c79b5c"/><rect x="29.614" y="1.730" width="0.279" height="2.270" rx="0.000" fill="#c79b5c"/><rect x="29.614" y="-4.000" width="0.279" height="2.270" rx="0.000" fill="#c79b5c"/><rect x="30.114" y="1.730" width="0.279" height="2.270" rx="0.000" fill="#c79b5c"/><rect x="30.114" y="-4.000" width="0.279" height="2.270" rx="0.000" fill="#c79b5c"/><rect x="30.614" y="1.730" width="0.279" height="2.270" rx="0.000" fill="#c79b5c"/><rect x="30.614" y="-4.000" width="0.279" height="2.270" rx="0.000" fill="#c79b5c"/><rect x="31.114" y="1.730" width="0.279" height="2.270" rx="0.000" fill="#c79b5c"/><rect x="31.114" y="-4.000" width="0.279" height="2.270" rx="0.000" fill="#c79b5c"/><rect x="31.614" y="1.730" width="0.279" height="2.270" rx="0.000" fill="#c79b5c"/><rect x="31.614" y="-4.000" width="0.279" height="2.270" rx="0.000" fill="#c79b5c"/><rect x="32.114" y="1.730" width="0.279" height="2.270" rx="0.000" fill="#c79b5c"/><rect x="32.114" y="-4.000" width="0.279" height="2.270" rx="0.000" fill="#c79b5c"/><rect x="32.614" y="1.730" width="0.279" height="2.270" rx="0.000" fill="#c79b5c"/><rect x="32.614" y="-4.000" width="0.279" height="2.270" rx="0.000" fill="#c79b5c"/><rect x="33.114" y="1.730" width="0.279" height="2.270" rx="0.000" fill="#c79b5c"/><rect x="33.114" y="-4.000" width="0.279" height="2.270" rx="0.000" fill="#c79b5c"/><rect x="33.614" y="1.730" width="0.279" height="2.270" rx="0.000" fill="#c79b5c"/><rect x="33.614" y="-4.000" width="0.279" height="2.270" rx="0.000" fill="#c79b5c"/><rect x="34.114" y="1.730" width="0.279" height="2.270" rx="0.000" fill="#c79b5c"/><rect x="34.114" y="-4.000" width="0.279" height="2.270" rx="0.000" fill="#c79b5c"/><rect x="34.614" y="1.730" width="0.279" height="2.270" rx="0.000" fill="#c79b5c"/><rect x="34.614" y="-4.000" width="0.279" height="2.270" rx="0.000" fill="#c79b5c"/><rect x="35.114" y="1.730" width="0.279" height="2.270" rx="0.000" fill="#c79b5c"/><rect x="35.114" y="-4.000" width="0.279" height="2.270" rx="0.000" fill="#c79b5c"/><rect x="35.614" y="1.730" width="0.279" height="2.270" rx="0.000" fill="#c79b5c"/><rect x="35.614" y="-4.000" width="0.279" height="2.270" rx="0.000" fill="#c79b5c"/><rect x="36.114" y="1.730" width="0.279" height="2.270" rx="0.000" fill="#c79b5c"/><rect x="36.114" y="-4.000" width="0.279" height="2.270" rx="0.000" fill="#c79b5c"/><rect x="36.614" y="1.730" width="0.279" height="2.270" rx="0.000" fill="#c79b5c"/><rect x="36.614" y="-4.000" width="0.279" height="2.270" rx="0.000" fill="#c79b5c"/><rect x="37.114" y="1.730" width="0.279" height="2.270" rx="0.000" fill="#c79b5c"/><rect x="37.114" y="-4.000" width="0.279" height="2.270" rx="0.000" fill="#c79b5c"/><rect x="-39.339" y="-0.215" width="2.540" height="0.430" rx="0.000" fill="#c79b5c"/><rect x="-35.529" y="-0.215" width="4.700" height="0.430" rx="0.000" fill="#c79b5c"/><rect x="-29.179" y="-0.215" width="4.700" height="0.430" rx="0.000" fill="#c79b5c"/><rect x="-23.209" y="-0.215" width="2.540" height="0.430" rx="0.000" fill="#c79b5c"/><rect x="-19.336" y="-0.215" width="2.540" height="0.430" rx="0.000" fill="#c79b5c"/><rect x="-15.526" y="-0.215" width="4.700" height="0.430" rx="0.000" fill="#c79b5c"/><rect x="-9.176" y="-0.215" width="4.700" height="0.430" rx="0.000" fill="#c79b5c"/><rect x="-3.206" y="-0.215" width="2.540" height="0.430" rx="0.000" fill="#c79b5c"/><rect x="0.666" y="-0.215" width="2.540" height="0.430" rx="0.000" fill="#c79b5c"/><rect x="4.476" y="-0.215" width="4.700" height="0.430" rx="0.000" fill="#c79b5c"/><rect x="10.826" y="-0.215" width="4.700" height="0.430" rx="0.000" fill="#c79b5c"/><rect x="16.796" y="-0.215" width="2.540" height="0.430" rx="0.000" fill="#c79b5c"/><rect x="20.669" y="-0.215" width="2.540" height="0.430" rx="0.000" fill="#c79b5c"/><rect x="24.479" y="-0.215" width="4.700" height="0.430" rx="0.000" fill="#c79b5c"/><rect x="30.829" y="-0.215" width="4.700" height="0.430" rx="0.000" fill="#c79b5c"/><rect x="36.799" y="-0.215" width="2.540" height="0.430" rx="0.000" fill="#c79b5c"/></svg>