<svg xmlns="http://www.w3.org/2000/svg" viewBox="-3.88 -2.90 7.05 5.80" preserveAspectRatio="xMidYMid meet" style="width:100%;height:100%"><rect x="-3.88" y="-2.90" width="7.05" height="5.80" fill="#12151c"/><circle cx="-2.750" cy="-1.000" r="0.125" fill="none" stroke="#e6e9ef" stroke-width="0.12" opacity="1"/><rect x="-2.175" y="-1.150" width="0.850" height="0.300" rx="0.150" fill="#c79b5c"/><rect x="-2.175" y="-0.650" width="0.850" height="0.300" rx="0.150" fill="#c79b5c"/><rect x="-2.175" y="-0.150" width="0.850" height="0.300" rx="0.150" fill="#c79b5c"/><rect x="-2.175" y="0.350" width="0.850" height="0.300" rx="0.150" fill="#c79b5c"/><rect x="-2.175" y="0.850" width="0.850" height="0.300" rx="0.150" fill="#c79b5c"/><rect x="-1.425" y="1.600" width="0.850" height="0.300" rx="0.150" fill="#c79b5c"/><rect x="-0.925" y="1.600" width="0.850" height="0.300" rx="0.150" fill="#c79b5c"/><rect x="-0.425" y="1.600" width="0.850" height="0.300" rx="0.150" fill="#c79b5c"/><rect x="0.075" y="1.600" width="0.850" height="0.300" rx="0.150" fill="#c79b5c"/><rect x="0.575" y="1.600" width="0.850" height="0.300" rx="0.150" fill="#c79b5c"/><rect x="1.325" y="0.850" width="0.850" height="0.300" rx="0.150" fill="#c79b5c"/><rect x="1.325" y="0.350" width="0.850" height="0.300" rx="0.150" fill="#c79b5c"/><rect x="1.325" y="-0.150" width="0.850" height="0.300" rx="0.150" fill="#c79b5c"/><rect x="1.325" y="-0.650" width="0.850" height="0.300" rx="0.150" fill="#c79b5c"/><rect x="1.325" y="-1.150" width="0.850" height="0.300" rx="0.150" fill="#c79b5c"/><rect x="0.575" y="-1.900" width="0.850" height="0.300" rx="0.150" fill="#c79b5c"/><rect x="0.075" y="-1.900" width="0.850" height="0.300" rx="0.150" fill="#c79b5c"/><rect x="-0.425" y="-1.900" width="0.850" height="0.300" rx="0.150" fill="#c79b5c"/><rect x="-0.925" y="-1.900" width="0.850" height="0.300" rx="0.150" fill="#c79b5c"/><rect x="-1.425" y="-1.900" width="0.850" height="0.300" rx="0.150" fill="#c79b5c"/><rect x="-1.075" y="-1.075" width="2.150" height="2.150" rx="0.000" fill="#c79b5c"/></svg>