<svg xmlns="http://www.w3.org/2000/svg" viewBox="-27.44 -10.78 54.88 21.56" preserveAspectRatio="xMidYMid meet" style="width:100%;height:100%"><rect x="-27.44" y="-10.78" width="54.88" height="21.56" fill="#12151c"/><line x1="-7.000" y1="-7.000" x2="-7.000" y2="-5.000" stroke="#6b7280" stroke-width="0.150" stroke-linecap="round" opacity="0.8"/><line x1="-7.000" y1="5.000" x2="-7.000" y2="7.000" stroke="#6b7280" stroke-width="0.150" stroke-linecap="round" opacity="0.8"/><line x1="-7.000" y1="7.000" x2="-5.000" y2="7.000" stroke="#6b7280" stroke-width="0.150" stroke-linecap="round" opacity="0.8"/><line x1="-5.000" y1="-7.000" x2="-7.000" y2="-7.000" stroke="#6b7280" stroke-width="0.150" stroke-linecap="round" opacity="0.8"/><line x1="5.000" y1="-7.000" x2="7.000" y2="-7.000" stroke="#6b7280" stroke-width="0.150" stroke-linecap="round" opacity="0.8"/><line x1="5.000" y1="7.000" x2="7.000" y2="7.000" stroke="#6b7280" stroke-width="0.150" stroke-linecap="round" opacity="0.8"/><line x1="7.000" y1="-7.000" x2="7.000" y2="-5.000" stroke="#6b7280" stroke-width="0.150" stroke-linecap="round" opacity="0.8"/><line x1="7.000" y1="7.000" x2="7.000" y2="5.000" stroke="#6b7280" stroke-width="0.150" stroke-linecap="round" opacity="0.8"/><line x1="26.194" y1="9.525" x2="-26.194" y2="9.525" stroke="#6b7280" stroke-width="0.150" stroke-linecap="round" opacity="0.8"/><line x1="26.194" y1="-9.525" x2="-26.194" y2="-9.525" stroke="#6b7280" stroke-width="0.150" stroke-linecap="round" opacity="0.8"/><line x1="26.194" y1="9.525" x2="26.194" y2="-9.525" stroke="#6b7280" stroke-width="0.150" stroke-linecap="round" opacity="0.8"/><line x1="-26.194" y1="9.525" x2="-26.194" y2="-9.525" stroke="#6b7280" stroke-width="0.150" stroke-linecap="round" opacity="0.8"/><line x1="-26.440" y1="-9.780" x2="26.440" y2="-9.780" stroke="#d24d4d" stroke-width="0.080" stroke-linecap="round" opacity="0.7"/><line x1="26.440" y1="-9.780" x2="26.440" y2="9.780" stroke="#d24d4d" stroke-width="0.080" stroke-linecap="round" opacity="0.7"/><line x1="26.440" y1="9.780" x2="-26.440" y2="9.780" stroke="#d24d4d" stroke-width="0.080" stroke-linecap="round" opacity="0.7"/><line x1="-26.440" y1="9.780" x2="-26.440" y2="-9.780" stroke="#d24d4d" stroke-width="0.080" stroke-linecap="round" opacity="0.7"/><circle cx="-5.000" cy="5.150" r="0.750" fill="none" stroke="#6b7280" stroke-width="0.1"/><circle cx="0.000" cy="0.000" r="2.500" fill="none" stroke="#6b7280" stroke-width="0.1"/><rect x="3.850" y="-4.950" width="2.300" height="2.300" rx="1.150" fill="#c79b5c"/><circle cx="5.000" cy="-3.800" r="0.725" fill="#12151c"/><rect x="-1.150" y="-7.150" width="2.300" height="2.300" rx="1.150" fill="#c79b5c"/><circle cx="0.000" cy="-6.000" r="0.725" fill="#12151c"/></svg>