<svg xmlns="http://www.w3.org/2000/svg" viewBox="-34.25 -26.75 68.50 53.50" preserveAspectRatio="xMidYMid meet" style="width:100%;height:100%"><rect x="-34.25" y="-26.75" width="68.50" height="53.50" fill="#12151c"/><line x1="-32.750" y1="18.470" x2="-32.750" y2="-18.590" stroke="#e6e9ef" stroke-width="0.200" stroke-linecap="round" opacity="1"/><line x1="-26.090" y1="25.250" x2="25.970" y2="25.250" stroke="#e6e9ef" stroke-width="0.200" stroke-linecap="round" opacity="1"/><line x1="-25.970" y1="-25.250" x2="26.090" y2="-25.250" stroke="#e6e9ef" stroke-width="0.200" stroke-linecap="round" opacity="1"/><line x1="32.750" y1="18.590" x2="32.750" y2="-18.470" stroke="#e6e9ef" stroke-width="0.200" stroke-linecap="round" opacity="1"/><line x1="-33.000" y1="-25.500" x2="-31.200" y2="-25.500" stroke="#4a5160" stroke-width="0.100" stroke-linecap="round" opacity="0.7"/><line x1="-33.000" y1="-18.940" x2="-33.000" y2="-25.500" stroke="#4a5160" stroke-width="0.100" stroke-linecap="round" opacity="0.7"/><line x1="-33.000" y1="-18.940" x2="-31.200" y2="-18.940" stroke="#4a5160" stroke-width="0.100" stroke-linecap="round" opacity="0.7"/><line x1="-33.000" y1="18.820" x2="-31.200" y2="18.820" stroke="#4a5160" stroke-width="0.100" stroke-linecap="round" opacity="0.7"/><line x1="-33.000" y1="23.700" x2="-33.000" y2="18.820" stroke="#4a5160" stroke-width="0.100" stroke-linecap="round" opacity="0.7"/><line x1="-33.000" y1="23.700" x2="-31.200" y2="23.700" stroke="#4a5160" stroke-width="0.100" stroke-linecap="round" opacity="0.7"/><line x1="-33.000" y1="23.700" x2="-26.440" y2="23.700" stroke="#4a5160" stroke-width="0.100" stroke-linecap="round" opacity="0.7"/><line x1="-33.000" y1="25.500" x2="-33.000" y2="23.700" stroke="#4a5160" stroke-width="0.100" stroke-linecap="round" opacity="0.7"/><line x1="-33.000" y1="25.500" x2="-26.440" y2="25.500" stroke="#4a5160" stroke-width="0.100" stroke-linecap="round" opacity="0.7"/><line x1="-32.600" y1="-22.220" x2="-32.100" y2="-22.220" stroke="#4a5160" stroke-width="0.100" stroke-linecap="round" opacity="0.7"/><line x1="-32.600" y1="21.260" x2="-32.100" y2="21.260" stroke="#4a5160" stroke-width="0.100" stroke-linecap="round" opacity="0.7"/><line x1="-32.100" y1="-22.220" x2="-32.100" y2="-22.720" stroke="#4a5160" stroke-width="0.100" stroke-linecap="round" opacity="0.7"/><line x1="-32.100" y1="-22.220" x2="-31.600" y2="-22.220" stroke="#4a5160" stroke-width="0.100" stroke-linecap="round" opacity="0.7"/><line x1="-32.100" y1="-21.720" x2="-32.100" y2="-22.220" stroke="#4a5160" stroke-width="0.100" stroke-linecap="round" opacity="0.7"/><line x1="-32.100" y1="21.260" x2="-32.100" y2="20.760" stroke="#4a5160" stroke-width="0.100" stroke-linecap="round" opacity="0.7"/><line x1="-32.100" y1="21.260" x2="-31.600" y2="21.260" stroke="#4a5160" stroke-width="0.100" stroke-linecap="round" opacity="0.7"/><line x1="-32.100" y1="21.760" x2="-32.100" y2="21.260" stroke="#4a5160" stroke-width="0.100" stroke-linecap="round" opacity="0.7"/><line x1="-31.200" y1="-25.500" x2="-26.320" y2="-25.500" stroke="#4a5160" stroke-width="0.100" stroke-linecap="round" opacity="0.7"/><line x1="-31.200" y1="-23.700" x2="-31.200" y2="-25.500" stroke="#4a5160" stroke-width="0.100" stroke-linecap="round" opacity="0.7"/><line x1="-31.200" y1="-23.700" x2="-26.320" y2="-23.700" stroke="#4a5160" stroke-width="0.100" stroke-linecap="round" opacity="0.7"/><line x1="-31.200" y1="-18.940" x2="-31.200" y2="-25.500" stroke="#4a5160" stroke-width="0.100" stroke-linecap="round" opacity="0.7"/><line x1="-31.200" y1="23.700" x2="-31.200" y2="18.820" stroke="#4a5160" stroke-width="0.100" stroke-linecap="round" opacity="0.7"/><line x1="-30.220" y1="24.600" x2="-29.720" y2="24.600" stroke="#4a5160" stroke-width="0.100" stroke-linecap="round" opacity="0.7"/><line x1="-29.720" y1="24.600" x2="-29.720" y2="24.100" stroke="#4a5160" stroke-width="0.100" stroke-linecap="round" opacity="0.7"/><line x1="-29.720" y1="24.600" x2="-29.220" y2="24.600" stroke="#4a5160" stroke-width="0.100" stroke-linecap="round" opacity="0.7"/><line x1="-29.720" y1="25.100" x2="-29.720" y2="24.600" stroke="#4a5160" stroke-width="0.100" stroke-linecap="round" opacity="0.7"/><line x1="-29.260" y1="-24.600" x2="-28.760" y2="-24.600" stroke="#4a5160" stroke-width="0.100" stroke-linecap="round" opacity="0.7"/><line x1="-28.760" y1="-24.600" x2="-28.760" y2="-25.100" stroke="#4a5160" stroke-width="0.100" stroke-linecap="round" opacity="0.7"/><line x1="-28.760" y1="-24.600" x2="-28.260" y2="-24.600" stroke="#4a5160" stroke-width="0.100" stroke-linecap="round" opacity="0.7"/><line x1="-28.760" y1="-24.100" x2="-28.760" y2="-24.600" stroke="#4a5160" stroke-width="0.100" stroke-linecap="round" opacity="0.7"/><line x1="-28.440" y1="-5.080" x2="-27.940" y2="-5.080" stroke="#4a5160" stroke-width="0.100" stroke-linecap="round" opacity="0.7"/><line x1="-28.440" y1="15.240" x2="-27.940" y2="15.240" stroke="#4a5160" stroke-width="0.100" stroke-linecap="round" opacity="0.7"/><line x1="-28.440" y1="20.320" x2="-27.940" y2="20.320" stroke="#4a5160" stroke-width="0.100" stroke-linecap="round" opacity="0.7"/><line x1="-27.940" y1="-5.080" x2="-27.940" y2="-5.580" stroke="#4a5160" stroke-width="0.100" stroke-linecap="round" opacity="0.7"/><line x1="-27.940" y1="-5.080" x2="-27.440" y2="-5.080" stroke="#4a5160" stroke-width="0.100" stroke-linecap="round" opacity="0.7"/><line x1="-27.940" y1="-4.580" x2="-27.940" y2="-5.080" stroke="#4a5160" stroke-width="0.100" stroke-linecap="round" opacity="0.7"/><line x1="-27.940" y1="15.240" x2="-27.940" y2="14.740" stroke="#4a5160" stroke-width="0.100" stroke-linecap="round" opacity="0.7"/><line x1="-27.940" y1="15.240" x2="-27.440" y2="15.240" stroke="#4a5160" stroke-width="0.100" stroke-linecap="round" opacity="0.7"/><line x1="-27.940" y1="15.740" x2="-27.940" y2="15.240" stroke="#4a5160" stroke-width="0.100" stroke-linecap="round" opacity="0.7"/><line x1="-27.940" y1="20.320" x2="-27.940" y2="19.820" stroke="#4a5160" stroke-width="0.100" stroke-linecap="round" opacity="0.7"/><line x1="-27.940" y1="20.320" x2="-27.440" y2="20.320" stroke="#4a5160" stroke-width="0.100" stroke-linecap="round" opacity="0.7"/><line x1="-27.940" y1="20.820" x2="-27.940" y2="20.320" stroke="#4a5160" stroke-width="0.100" stroke-linecap="round" opacity="0.7"/><line x1="-26.440" y1="25.500" x2="-26.440" y2="23.700" stroke="#4a5160" stroke-width="0.100" stroke-linecap="round" opacity="0.7"/><line x1="-26.320" y1="-23.700" x2="-26.320" y2="-25.500" stroke="#4a5160" stroke-width="0.100" stroke-linecap="round" opacity="0.7"/><line x1="-0.500" y1="0.000" x2="0.000" y2="0.000" stroke="#4a5160" stroke-width="0.100" stroke-linecap="round" opacity="0.7"/><line x1="0.000" y1="0.000" x2="0.000" y2="-0.500" stroke="#4a5160" stroke-width="0.100" stroke-linecap="round" opacity="0.7"/><line x1="0.000" y1="0.000" x2="0.500" y2="0.000" stroke="#4a5160" stroke-width="0.100" stroke-linecap="round" opacity="0.7"/><line x1="0.000" y1="0.500" x2="0.000" y2="0.000" stroke="#4a5160" stroke-width="0.100" stroke-linecap="round" opacity="0.7"/><line x1="26.320" y1="23.700" x2="31.200" y2="23.700" stroke="#4a5160" stroke-width="0.100" stroke-linecap="round" opacity="0.7"/><line x1="26.320" y1="25.500" x2="26.320" y2="23.700" stroke="#4a5160" stroke-width="0.100" stroke-linecap="round" opacity="0.7"/><line x1="26.320" y1="25.500" x2="31.200" y2="25.500" stroke="#4a5160" stroke-width="0.100" stroke-linecap="round" opacity="0.7"/><line x1="26.440" y1="-25.500" x2="33.000" y2="-25.500" stroke="#4a5160" stroke-width="0.100" stroke-linecap="round" opacity="0.7"/><line x1="26.440" y1="-23.700" x2="26.440" y2="-25.500" stroke="#4a5160" stroke-width="0.100" stroke-linecap="round" opacity="0.7"/><line x1="26.440" y1="-23.700" x2="33.000" y2="-23.700" stroke="#4a5160" stroke-width="0.100" stroke-linecap="round" opacity="0.7"/><line x1="27.440" y1="0.000" x2="27.940" y2="0.000" stroke="#4a5160" stroke-width="0.100" stroke-linecap="round" opacity="0.7"/><line x1="27.440" y1="15.240" x2="27.940" y2="15.240" stroke="#4a5160" stroke-width="0.100" stroke-linecap="round" opacity="0.7"/><line x1="27.440" y1="20.320" x2="27.940" y2="20.320" stroke="#4a5160" stroke-width="0.100" stroke-linecap="round" opacity="0.7"/><line x1="27.940" y1="0.000" x2="27.940" y2="-0.500" stroke="#4a5160" stroke-width="0.100" stroke-linecap="round" opacity="0.7"/><line x1="27.940" y1="0.000" x2="28.440" y2="0.000" stroke="#4a5160" stroke-width="0.100" stroke-linecap="round" opacity="0.7"/><line x1="27.940" y1="0.500" x2="27.940" y2="0.000" stroke="#4a5160" stroke-width="0.100" stroke-linecap="round" opacity="0.7"/><line x1="27.940" y1="15.240" x2="27.940" y2="14.740" stroke="#4a5160" stroke-width="0.100" stroke-linecap="round" opacity="0.7"/><line x1="27.940" y1="15.240" x2="28.440" y2="15.240" stroke="#4a5160" stroke-width="0.100" stroke-linecap="round" opacity="0.7"/><line x1="27.940" y1="15.740" x2="27.940" y2="15.240" stroke="#4a5160" stroke-width="0.100" stroke-linecap="round" opacity="0.7"/><line x1="27.940" y1="20.320" x2="27.940" y2="19.820" stroke="#4a5160" stroke-width="0.100" stroke-linecap="round" opacity="0.7"/><line x1="27.940" y1="20.320" x2="28.440" y2="20.320" stroke="#4a5160" stroke-width="0.100" stroke-linecap="round" opacity="0.7"/><line x1="27.940" y1="20.820" x2="27.940" y2="20.320" stroke="#4a5160" stroke-width="0.100" stroke-linecap="round" opacity="0.7"/><line x1="28.260" y1="24.600" x2="28.760" y2="24.600" stroke="#4a5160" stroke-width="0.100" stroke-linecap="round" opacity="0.7"/><line x1="28.760" y1="24.600" x2="28.760" y2="24.100" stroke="#4a5160" stroke-width="0.100" stroke-linecap="round" opacity="0.7"/><line x1="28.760" y1="24.600" x2="29.260" y2="24.600" stroke="#4a5160" stroke-width="0.100" stroke-linecap="round" opacity="0.7"/><line x1="28.760" y1="25.100" x2="28.760" y2="24.600" stroke="#4a5160" stroke-width="0.100" stroke-linecap="round" opacity="0.7"/><line x1="29.220" y1="-24.600" x2="29.720" y2="-24.600" stroke="#4a5160" stroke-width="0.100" stroke-linecap="round" opacity="0.7"/><line x1="29.720" y1="-24.600" x2="29.720" y2="-25.100" stroke="#4a5160" stroke-width="0.100" stroke-linecap="round" opacity="0.7"/><line x1="29.720" y1="-24.600" x2="30.220" y2="-24.600" stroke="#4a5160" stroke-width="0.100" stroke-linecap="round" opacity="0.7"/><line x1="29.720" y1="-24.100" x2="29.720" y2="-24.600" stroke="#4a5160" stroke-width="0.100" stroke-linecap="round" opacity="0.7"/><line x1="31.200" y1="-23.700" x2="33.000" y2="-23.700" stroke="#4a5160" stroke-width="0.100" stroke-linecap="round" opacity="0.7"/><line x1="31.200" y1="-18.820" x2="31.200" y2="-23.700" stroke="#4a5160" stroke-width="0.100" stroke-linecap="round" opacity="0.7"/><line x1="31.200" y1="-18.820" x2="33.000" y2="-18.820" stroke="#4a5160" stroke-width="0.100" stroke-linecap="round" opacity="0.7"/><line x1="31.200" y1="18.940" x2="33.000" y2="18.940" stroke="#4a5160" stroke-width="0.100" stroke-linecap="round" opacity="0.7"/><line x1="31.200" y1="25.500" x2="31.200" y2="18.940" stroke="#4a5160" stroke-width="0.100" stroke-linecap="round" opacity="0.7"/><line x1="31.200" y1="25.500" x2="31.200" y2="23.700" stroke="#4a5160" stroke-width="0.100" stroke-linecap="round" opacity="0.7"/><line x1="31.200" y1="25.500" x2="33.000" y2="25.500" stroke="#4a5160" stroke-width="0.100" stroke-linecap="round" opacity="0.7"/><line x1="31.600" y1="-21.260" x2="32.100" y2="-21.260" stroke="#4a5160" stroke-width="0.100" stroke-linecap="round" opacity="0.7"/><line x1="31.600" y1="22.220" x2="32.100" y2="22.220" stroke="#4a5160" stroke-width="0.100" stroke-linecap="round" opacity="0.7"/><line x1="32.100" y1="-21.260" x2="32.100" y2="-21.760" stroke="#4a5160" stroke-width="0.100" stroke-linecap="round" opacity="0.7"/><line x1="32.100" y1="-21.260" x2="32.600" y2="-21.260" stroke="#4a5160" stroke-width="0.100" stroke-linecap="round" opacity="0.7"/><line x1="32.100" y1="-20.760" x2="32.100" y2="-21.260" stroke="#4a5160" stroke-width="0.100" stroke-linecap="round" opacity="0.7"/><line x1="32.100" y1="22.220" x2="32.100" y2="21.720" stroke="#4a5160" stroke-width="0.100" stroke-linecap="round" opacity="0.7"/><line x1="32.100" y1="22.220" x2="32.600" y2="22.220" stroke="#4a5160" stroke-width="0.100" stroke-linecap="round" opacity="0.7"/><line x1="32.100" y1="22.720" x2="32.100" y2="22.220" stroke="#4a5160" stroke-width="0.100" stroke-linecap="round" opacity="0.7"/><line x1="33.000" y1="-23.700" x2="33.000" y2="-25.500" stroke="#4a5160" stroke-width="0.100" stroke-linecap="round" opacity="0.7"/><line x1="33.000" y1="-18.820" x2="33.000" y2="-23.700" stroke="#4a5160" stroke-width="0.100" stroke-linecap="round" opacity="0.7"/><line x1="33.000" y1="25.500" x2="33.000" y2="18.940" stroke="#4a5160" stroke-width="0.100" stroke-linecap="round" opacity="0.7"/><line x1="-32.750" y1="-25.250" x2="32.750" y2="-25.250" stroke="#6b7280" stroke-width="0.100" stroke-linecap="round" opacity="0.8"/><line x1="-32.750" y1="25.250" x2="-32.750" y2="-25.250" stroke="#6b7280" stroke-width="0.100" stroke-linecap="round" opacity="0.8"/><line x1="-32.750" y1="25.250" x2="32.750" y2="25.250" stroke="#6b7280" stroke-width="0.100" stroke-linecap="round" opacity="0.8"/><line x1="32.750" y1="25.250" x2="32.750" y2="-25.250" stroke="#6b7280" stroke-width="0.100" stroke-linecap="round" opacity="0.8"/><line x1="-33.250" y1="-25.750" x2="33.250" y2="-25.750" stroke="#d24d4d" stroke-width="0.080" stroke-linecap="round" opacity="0.7"/><line x1="33.250" y1="-25.750" x2="33.250" y2="25.750" stroke="#d24d4d" stroke-width="0.080" stroke-linecap="round" opacity="0.7"/><line x1="33.250" y1="25.750" x2="-33.250" y2="25.750" stroke="#d24d4d" stroke-width="0.080" stroke-linecap="round" opacity="0.7"/><line x1="-33.250" y1="25.750" x2="-33.250" y2="-25.750" stroke="#d24d4d" stroke-width="0.080" stroke-linecap="round" opacity="0.7"/><rect x="-33.000" y="-18.940" width="0.000" height="0.000" rx="0.000" fill="#c79b5c"/><rect x="-26.440" y="25.500" width="0.000" height="0.000" rx="0.000" fill="#c79b5c"/><rect x="26.440" y="-25.500" width="0.000" height="0.000" rx="0.000" fill="#c79b5c"/><rect x="33.000" y="18.940" width="0.000" height="0.000" rx="0.000" fill="#c79b5c"/><rect x="-29.040" y="-6.180" width="2.200" height="2.200" rx="1.100" fill="#c79b5c"/><circle cx="-27.940" cy="-5.080" r="0.750" fill="#12151c"/><rect x="-29.040" y="14.140" width="2.200" height="2.200" rx="1.100" fill="#c79b5c"/><circle cx="-27.940" cy="15.240" r="0.750" fill="#12151c"/><rect x="-29.040" y="19.220" width="2.200" height="2.200" rx="1.100" fill="#c79b5c"/><circle cx="-27.940" cy="20.320" r="0.750" fill="#12151c"/><rect x="26.840" y="19.220" width="2.200" height="2.200" rx="1.100" fill="#c79b5c"/><circle cx="27.940" cy="20.320" r="0.750" fill="#12151c"/><rect x="26.840" y="14.140" width="2.200" height="2.200" rx="1.100" fill="#c79b5c"/><circle cx="27.940" cy="15.240" r="0.750" fill="#12151c"/><rect x="26.840" y="-1.100" width="2.200" height="2.200" rx="1.100" fill="#c79b5c"/><circle cx="27.940" cy="0.000" r="0.750" fill="#12151c"/></svg>