<svg xmlns="http://www.w3.org/2000/svg" viewBox="-14.89 -9.45 29.78 15.40" preserveAspectRatio="xMidYMid meet" style="width:100%;height:100%"><rect x="-14.89" y="-9.45" width="29.78" height="15.40" fill="#12151c"/><line x1="-12.790" y1="-4.200" x2="-9.740" y2="-4.200" stroke="#e6e9ef" stroke-width="0.200" stroke-linecap="round" opacity="1"/><line x1="-12.540" y1="4.700" x2="-12.540" y2="4.150" stroke="#e6e9ef" stroke-width="0.200" stroke-linecap="round" opacity="1"/><line x1="-12.540" y1="4.700" x2="12.540" y2="4.700" stroke="#e6e9ef" stroke-width="0.200" stroke-linecap="round" opacity="1"/><line x1="9.740" y1="-4.200" x2="12.790" y2="-4.200" stroke="#e6e9ef" stroke-width="0.200" stroke-linecap="round" opacity="1"/><line x1="12.540" y1="4.700" x2="12.540" y2="4.150" stroke="#e6e9ef" stroke-width="0.200" stroke-linecap="round" opacity="1"/><line x1="-13.640" y1="-3.800" x2="-12.640" y2="-2.450" stroke="#4a5160" stroke-width="0.080" stroke-linecap="round" opacity="0.7"/><line x1="-13.640" y1="-3.800" x2="-11.640" y2="-3.800" stroke="#4a5160" stroke-width="0.080" stroke-linecap="round" opacity="0.7"/><line x1="-13.640" y1="-1.100" x2="-13.640" y2="-3.800" stroke="#4a5160" stroke-width="0.080" stroke-linecap="round" opacity="0.7"/><line x1="-13.640" y1="-1.100" x2="-12.640" y2="-2.450" stroke="#4a5160" stroke-width="0.080" stroke-linecap="round" opacity="0.7"/><line x1="-13.640" y1="-1.100" x2="-11.640" y2="-1.100" stroke="#4a5160" stroke-width="0.080" stroke-linecap="round" opacity="0.7"/><line x1="-13.640" y1="1.100" x2="-12.640" y2="2.450" stroke="#4a5160" stroke-width="0.080" stroke-linecap="round" opacity="0.7"/><line x1="-13.640" y1="1.100" x2="-11.640" y2="1.100" stroke="#4a5160" stroke-width="0.080" stroke-linecap="round" opacity="0.7"/><line x1="-13.640" y1="3.800" x2="-13.640" y2="1.100" stroke="#4a5160" stroke-width="0.080" stroke-linecap="round" opacity="0.7"/><line x1="-13.640" y1="3.800" x2="-12.640" y2="2.450" stroke="#4a5160" stroke-width="0.080" stroke-linecap="round" opacity="0.7"/><line x1="-13.640" y1="3.800" x2="-11.640" y2="3.800" stroke="#4a5160" stroke-width="0.080" stroke-linecap="round" opacity="0.7"/><line x1="-12.240" y1="0.000" x2="-12.040" y2="0.000" stroke="#4a5160" stroke-width="0.080" stroke-linecap="round" opacity="0.7"/><line x1="-12.040" y1="0.000" x2="-12.040" y2="-0.200" stroke="#4a5160" stroke-width="0.080" stroke-linecap="round" opacity="0.7"/><line x1="-12.040" y1="0.000" x2="-11.840" y2="0.000" stroke="#4a5160" stroke-width="0.080" stroke-linecap="round" opacity="0.7"/><line x1="-12.040" y1="0.200" x2="-12.040" y2="0.000" stroke="#4a5160" stroke-width="0.080" stroke-linecap="round" opacity="0.7"/><line x1="-11.640" y1="-1.100" x2="-11.640" y2="-3.800" stroke="#4a5160" stroke-width="0.080" stroke-linecap="round" opacity="0.7"/><line x1="-11.640" y1="3.800" x2="-11.640" y2="1.100" stroke="#4a5160" stroke-width="0.080" stroke-linecap="round" opacity="0.7"/><line x1="-9.390" y1="-7.500" x2="-8.890" y2="-5.900" stroke="#4a5160" stroke-width="0.080" stroke-linecap="round" opacity="0.7"/><line x1="-9.390" y1="-7.500" x2="-8.390" y2="-7.500" stroke="#4a5160" stroke-width="0.080" stroke-linecap="round" opacity="0.7"/><line x1="-9.390" y1="-4.300" x2="-9.390" y2="-7.500" stroke="#4a5160" stroke-width="0.080" stroke-linecap="round" opacity="0.7"/><line x1="-9.390" y1="-4.300" x2="-8.390" y2="-4.300" stroke="#4a5160" stroke-width="0.080" stroke-linecap="round" opacity="0.7"/><line x1="-8.890" y1="-5.900" x2="-8.390" y2="-7.500" stroke="#4a5160" stroke-width="0.080" stroke-linecap="round" opacity="0.7"/><line x1="-8.390" y1="-4.300" x2="-8.390" y2="-7.500" stroke="#4a5160" stroke-width="0.080" stroke-linecap="round" opacity="0.7"/><line x1="-6.850" y1="-7.500" x2="-6.350" y2="-5.900" stroke="#4a5160" stroke-width="0.080" stroke-linecap="round" opacity="0.7"/><line x1="-6.850" y1="-7.500" x2="-5.850" y2="-7.500" stroke="#4a5160" stroke-width="0.080" stroke-linecap="round" opacity="0.7"/><line x1="-6.850" y1="-4.300" x2="-6.850" y2="-7.500" stroke="#4a5160" stroke-width="0.080" stroke-linecap="round" opacity="0.7"/><line x1="-6.850" y1="-4.300" x2="-5.850" y2="-4.300" stroke="#4a5160" stroke-width="0.080" stroke-linecap="round" opacity="0.7"/><line x1="-6.350" y1="-5.900" x2="-5.850" y2="-7.500" stroke="#4a5160" stroke-width="0.080" stroke-linecap="round" opacity="0.7"/><line x1="-5.850" y1="-4.300" x2="-5.850" y2="-7.500" stroke="#4a5160" stroke-width="0.080" stroke-linecap="round" opacity="0.7"/><line x1="-4.310" y1="-7.500" x2="-3.810" y2="-5.900" stroke="#4a5160" stroke-width="0.080" stroke-linecap="round" opacity="0.7"/><line x1="-4.310" y1="-7.500" x2="-3.310" y2="-7.500" stroke="#4a5160" stroke-width="0.080" stroke-linecap="round" opacity="0.7"/><line x1="-4.310" y1="-4.300" x2="-4.310" y2="-7.500" stroke="#4a5160" stroke-width="0.080" stroke-linecap="round" opacity="0.7"/><line x1="-4.310" y1="-4.300" x2="-3.310" y2="-4.300" stroke="#4a5160" stroke-width="0.080" stroke-linecap="round" opacity="0.7"/><line x1="-3.810" y1="-5.900" x2="-3.310" y2="-7.500" stroke="#4a5160" stroke-width="0.080" stroke-linecap="round" opacity="0.7"/><line x1="-3.310" y1="-4.300" x2="-3.310" y2="-7.500" stroke="#4a5160" stroke-width="0.080" stroke-linecap="round" opacity="0.7"/><line x1="-1.770" y1="-7.500" x2="-1.270" y2="-5.900" stroke="#4a5160" stroke-width="0.080" stroke-linecap="round" opacity="0.7"/><line x1="-1.770" y1="-7.500" x2="-0.770" y2="-7.500" stroke="#4a5160" stroke-width="0.080" stroke-linecap="round" opacity="0.7"/><line x1="-1.770" y1="-4.300" x2="-1.770" y2="-7.500" stroke="#4a5160" stroke-width="0.080" stroke-linecap="round" opacity="0.7"/><line x1="-1.770" y1="-4.300" x2="-0.770" y2="-4.300" stroke="#4a5160" stroke-width="0.080" stroke-linecap="round" opacity="0.7"/><line x1="-1.270" y1="-5.900" x2="-0.770" y2="-7.500" stroke="#4a5160" stroke-width="0.080" stroke-linecap="round" opacity="0.7"/><line x1="-0.770" y1="-4.300" x2="-0.770" y2="-7.500" stroke="#4a5160" stroke-width="0.080" stroke-linecap="round" opacity="0.7"/><line x1="-0.500" y1="0.000" x2="0.000" y2="0.000" stroke="#4a5160" stroke-width="0.080" stroke-linecap="round" opacity="0.7"/><line x1="0.000" y1="0.000" x2="0.000" y2="-0.500" stroke="#4a5160" stroke-width="0.080" stroke-linecap="round" opacity="0.7"/><line x1="0.000" y1="0.000" x2="0.500" y2="0.000" stroke="#4a5160" stroke-width="0.080" stroke-linecap="round" opacity="0.7"/><line x1="0.000" y1="0.500" x2="0.000" y2="0.000" stroke="#4a5160" stroke-width="0.080" stroke-linecap="round" opacity="0.7"/><line x1="0.770" y1="-7.500" x2="1.270" y2="-5.900" stroke="#4a5160" stroke-width="0.080" stroke-linecap="round" opacity="0.7"/><line x1="0.770" y1="-7.500" x2="1.770" y2="-7.500" stroke="#4a5160" stroke-width="0.080" stroke-linecap="round" opacity="0.7"/><line x1="0.770" y1="-4.300" x2="0.770" y2="-7.500" stroke="#4a5160" stroke-width="0.080" stroke-linecap="round" opacity="0.7"/><line x1="0.770" y1="-4.300" x2="1.770" y2="-4.300" stroke="#4a5160" stroke-width="0.080" stroke-linecap="round" opacity="0.7"/><line x1="1.270" y1="-5.900" x2="1.770" y2="-7.500" stroke="#4a5160" stroke-width="0.080" stroke-linecap="round" opacity="0.7"/><line x1="1.770" y1="-4.300" x2="1.770" y2="-7.500" stroke="#4a5160" stroke-width="0.080" stroke-linecap="round" opacity="0.7"/><line x1="3.310" y1="-7.500" x2="3.810" y2="-5.900" stroke="#4a5160" stroke-width="0.080" stroke-linecap="round" opacity="0.7"/><line x1="3.310" y1="-7.500" x2="4.310" y2="-7.500" stroke="#4a5160" stroke-width="0.080" stroke-linecap="round" opacity="0.7"/><line x1="3.310" y1="-4.300" x2="3.310" y2="-7.500" stroke="#4a5160" stroke-width="0.080" stroke-linecap="round" opacity="0.7"/><line x1="3.310" y1="-4.300" x2="4.310" y2="-4.300" stroke="#4a5160" stroke-width="0.080" stroke-linecap="round" opacity="0.7"/><line x1="3.810" y1="-5.900" x2="4.310" y2="-7.500" stroke="#4a5160" stroke-width="0.080" stroke-linecap="round" opacity="0.7"/><line x1="4.310" y1="-4.300" x2="4.310" y2="-7.500" stroke="#4a5160" stroke-width="0.080" stroke-linecap="round" opacity="0.7"/><line x1="5.850" y1="-7.500" x2="6.350" y2="-5.900" stroke="#4a5160" stroke-width="0.080" stroke-linecap="round" opacity="0.7"/><line x1="5.850" y1="-7.500" x2="6.850" y2="-7.500" stroke="#4a5160" stroke-width="0.080" stroke-linecap="round" opacity="0.7"/><line x1="5.850" y1="-4.300" x2="5.850" y2="-7.500" stroke="#4a5160" stroke-width="0.080" stroke-linecap="round" opacity="0.7"/><line x1="5.850" y1="-4.300" x2="6.850" y2="-4.300" stroke="#4a5160" stroke-width="0.080" stroke-linecap="round" opacity="0.7"/><line x1="6.350" y1="-5.900" x2="6.850" y2="-7.500" stroke="#4a5160" stroke-width="0.080" stroke-linecap="round" opacity="0.7"/><line x1="6.850" y1="-4.300" x2="6.850" y2="-7.500" stroke="#4a5160" stroke-width="0.080" stroke-linecap="round" opacity="0.7"/><line x1="8.390" y1="-7.500" x2="8.890" y2="-5.900" stroke="#4a5160" stroke-width="0.080" stroke-linecap="round" opacity="0.7"/><line x1="8.390" y1="-7.500" x2="9.390" y2="-7.500" stroke="#4a5160" stroke-width="0.080" stroke-linecap="round" opacity="0.7"/><line x1="8.390" y1="-4.300" x2="8.390" y2="-7.500" stroke="#4a5160" stroke-width="0.080" stroke-linecap="round" opacity="0.7"/><line x1="8.390" y1="-4.300" x2="9.390" y2="-4.300" stroke="#4a5160" stroke-width="0.080" stroke-linecap="round" opacity="0.7"/><line x1="8.890" y1="-5.900" x2="9.390" y2="-7.500" stroke="#4a5160" stroke-width="0.080" stroke-linecap="round" opacity="0.7"/><line x1="9.390" y1="-4.300" x2="9.390" y2="-7.500" stroke="#4a5160" stroke-width="0.080" stroke-linecap="round" opacity="0.7"/><line x1="11.640" y1="-3.800" x2="13.640" y2="-3.800" stroke="#4a5160" stroke-width="0.080" stroke-linecap="round" opacity="0.7"/><line x1="11.640" y1="-1.100" x2="11.640" y2="-3.800" stroke="#4a5160" stroke-width="0.080" stroke-linecap="round" opacity="0.7"/><line x1="11.640" y1="-1.100" x2="13.640" y2="-1.100" stroke="#4a5160" stroke-width="0.080" stroke-linecap="round" opacity="0.7"/><line x1="11.640" y1="1.100" x2="13.640" y2="1.100" stroke="#4a5160" stroke-width="0.080" stroke-linecap="round" opacity="0.7"/><line x1="11.640" y1="3.800" x2="11.640" y2="1.100" stroke="#4a5160" stroke-width="0.080" stroke-linecap="round" opacity="0.7"/><line x1="11.640" y1="3.800" x2="13.640" y2="3.800" stroke="#4a5160" stroke-width="0.080" stroke-linecap="round" opacity="0.7"/><line x1="11.840" y1="0.000" x2="12.040" y2="0.000" stroke="#4a5160" stroke-width="0.080" stroke-linecap="round" opacity="0.7"/><line x1="12.040" y1="0.000" x2="12.040" y2="-0.200" stroke="#4a5160" stroke-width="0.080" stroke-linecap="round" opacity="0.7"/><line x1="12.040" y1="0.000" x2="12.240" y2="0.000" stroke="#4a5160" stroke-width="0.080" stroke-linecap="round" opacity="0.7"/><line x1="12.040" y1="0.200" x2="12.040" y2="0.000" stroke="#4a5160" stroke-width="0.080" stroke-linecap="round" opacity="0.7"/><line x1="12.640" y1="-2.450" x2="13.640" y2="-3.800" stroke="#4a5160" stroke-width="0.080" stroke-linecap="round" opacity="0.7"/><line x1="12.640" y1="-2.450" x2="13.640" y2="-1.100" stroke="#4a5160" stroke-width="0.080" stroke-linecap="round" opacity="0.7"/><line x1="12.640" y1="2.450" x2="13.640" y2="1.100" stroke="#4a5160" stroke-width="0.080" stroke-linecap="round" opacity="0.7"/><line x1="12.640" y1="2.450" x2="13.640" y2="3.800" stroke="#4a5160" stroke-width="0.080" stroke-linecap="round" opacity="0.7"/><line x1="13.640" y1="-1.100" x2="13.640" y2="-3.800" stroke="#4a5160" stroke-width="0.080" stroke-linecap="round" opacity="0.7"/><line x1="13.640" y1="3.800" x2="13.640" y2="1.100" stroke="#4a5160" stroke-width="0.080" stroke-linecap="round" opacity="0.7"/><line x1="-13.890" y1="-7.750" x2="13.890" y2="-7.750" stroke="#d24d4d" stroke-width="0.080" stroke-linecap="round" opacity="0.7"/><line x1="-13.890" y1="4.950" x2="-13.890" y2="-7.750" stroke="#d24d4d" stroke-width="0.080" stroke-linecap="round" opacity="0.7"/><line x1="-13.890" y1="4.950" x2="13.890" y2="4.950" stroke="#d24d4d" stroke-width="0.080" stroke-linecap="round" opacity="0.7"/><line x1="13.890" y1="4.950" x2="13.890" y2="-7.750" stroke="#d24d4d" stroke-width="0.080" stroke-linecap="round" opacity="0.7"/><line x1="-13.390" y1="-2.500" x2="-13.390" y2="-3.500" stroke="#6b7280" stroke-width="0.100" stroke-linecap="round" opacity="0.8"/><line x1="-13.390" y1="-1.485" x2="-13.190" y2="-1.600" stroke="#6b7280" stroke-width="0.100" stroke-linecap="round" opacity="0.8"/><line x1="-13.390" y1="1.485" x2="-13.390" y2="-1.485" stroke="#6b7280" stroke-width="0.100" stroke-linecap="round" opacity="0.8"/><line x1="-13.390" y1="1.485" x2="-13.190" y2="1.600" stroke="#6b7280" stroke-width="0.100" stroke-linecap="round" opacity="0.8"/><line x1="-13.390" y1="3.500" x2="-13.390" y2="2.500" stroke="#6b7280" stroke-width="0.100" stroke-linecap="round" opacity="0.8"/><line x1="-13.290" y1="-3.600" x2="-12.790" y2="-3.600" stroke="#6b7280" stroke-width="0.100" stroke-linecap="round" opacity="0.8"/><line x1="-13.290" y1="-2.400" x2="-12.840" y2="-2.400" stroke="#6b7280" stroke-width="0.100" stroke-linecap="round" opacity="0.8"/><line x1="-13.290" y1="2.400" x2="-12.840" y2="2.400" stroke="#6b7280" stroke-width="0.100" stroke-linecap="round" opacity="0.8"/><line x1="-13.290" y1="3.600" x2="-12.540" y2="3.600" stroke="#6b7280" stroke-width="0.100" stroke-linecap="round" opacity="0.8"/><line x1="-13.190" y1="-2.100" x2="-12.790" y2="-2.100" stroke="#6b7280" stroke-width="0.100" stroke-linecap="round" opacity="0.8"/><line x1="-13.190" y1="2.100" x2="-13.190" y2="-2.100" stroke="#6b7280" stroke-width="0.100" stroke-linecap="round" opacity="0.8"/><line x1="-13.190" y1="2.100" x2="-12.790" y2="2.100" stroke="#6b7280" stroke-width="0.100" stroke-linecap="round" opacity="0.8"/><line x1="-12.790" y1="-4.200" x2="12.790" y2="-4.200" stroke="#6b7280" stroke-width="0.100" stroke-linecap="round" opacity="0.8"/><line x1="-12.790" y1="2.200" x2="-12.790" y2="-4.200" stroke="#6b7280" stroke-width="0.100" stroke-linecap="round" opacity="0.8"/><line x1="-12.790" y1="2.200" x2="-12.540" y2="2.200" stroke="#6b7280" stroke-width="0.100" stroke-linecap="round" opacity="0.8"/><line x1="-12.690" y1="2.250" x2="-12.690" y2="2.200" stroke="#6b7280" stroke-width="0.100" stroke-linecap="round" opacity="0.8"/><line x1="-12.540" y1="4.700" x2="-12.540" y2="2.200" stroke="#6b7280" stroke-width="0.100" stroke-linecap="round" opacity="0.8"/><line x1="-12.540" y1="4.700" x2="12.540" y2="4.700" stroke="#6b7280" stroke-width="0.100" stroke-linecap="round" opacity="0.8"/><line x1="-9.200" y1="-7.500" x2="-8.580" y2="-7.500" stroke="#6b7280" stroke-width="0.100" stroke-linecap="round" opacity="0.8"/><line x1="-9.200" y1="-4.200" x2="-9.200" y2="-7.500" stroke="#6b7280" stroke-width="0.100" stroke-linecap="round" opacity="0.8"/><line x1="-8.580" y1="-4.200" x2="-8.580" y2="-7.500" stroke="#6b7280" stroke-width="0.100" stroke-linecap="round" opacity="0.8"/><line x1="-6.660" y1="-7.500" x2="-6.040" y2="-7.500" stroke="#6b7280" stroke-width="0.100" stroke-linecap="round" opacity="0.8"/><line x1="-6.660" y1="-4.200" x2="-6.660" y2="-7.500" stroke="#6b7280" stroke-width="0.100" stroke-linecap="round" opacity="0.8"/><line x1="-6.040" y1="-4.200" x2="-6.040" y2="-7.500" stroke="#6b7280" stroke-width="0.100" stroke-linecap="round" opacity="0.8"/><line x1="-4.120" y1="-7.500" x2="-3.500" y2="-7.500" stroke="#6b7280" stroke-width="0.100" stroke-linecap="round" opacity="0.8"/><line x1="-4.120" y1="-4.200" x2="-4.120" y2="-7.500" stroke="#6b7280" stroke-width="0.100" stroke-linecap="round" opacity="0.8"/><line x1="-3.500" y1="-4.200" x2="-3.500" y2="-7.500" stroke="#6b7280" stroke-width="0.100" stroke-linecap="round" opacity="0.8"/><line x1="-1.580" y1="-7.500" x2="-0.960" y2="-7.500" stroke="#6b7280" stroke-width="0.100" stroke-linecap="round" opacity="0.8"/><line x1="-1.580" y1="-4.200" x2="-1.580" y2="-7.500" stroke="#6b7280" stroke-width="0.100" stroke-linecap="round" opacity="0.8"/><line x1="-0.960" y1="-4.200" x2="-0.960" y2="-7.500" stroke="#6b7280" stroke-width="0.100" stroke-linecap="round" opacity="0.8"/><line x1="0.960" y1="-7.500" x2="1.580" y2="-7.500" stroke="#6b7280" stroke-width="0.100" stroke-linecap="round" opacity="0.8"/><line x1="0.960" y1="-4.200" x2="0.960" y2="-7.500" stroke="#6b7280" stroke-width="0.100" stroke-linecap="round" opacity="0.8"/><line x1="1.580" y1="-4.200" x2="1.580" y2="-7.500" stroke="#6b7280" stroke-width="0.100" stroke-linecap="round" opacity="0.8"/><line x1="3.500" y1="-7.500" x2="4.120" y2="-7.500" stroke="#6b7280" stroke-width="0.100" stroke-linecap="round" opacity="0.8"/><line x1="3.500" y1="-4.200" x2="3.500" y2="-7.500" stroke="#6b7280" stroke-width="0.100" stroke-linecap="round" opacity="0.8"/><line x1="4.120" y1="-4.200" x2="4.120" y2="-7.500" stroke="#6b7280" stroke-width="0.100" stroke-linecap="round" opacity="0.8"/><line x1="6.040" y1="-7.500" x2="6.660" y2="-7.500" stroke="#6b7280" stroke-width="0.100" stroke-linecap="round" opacity="0.8"/><line x1="6.040" y1="-4.200" x2="6.040" y2="-7.500" stroke="#6b7280" stroke-width="0.100" stroke-linecap="round" opacity="0.8"/><line x1="6.660" y1="-4.200" x2="6.660" y2="-7.500" stroke="#6b7280" stroke-width="0.100" stroke-linecap="round" opacity="0.8"/><line x1="8.580" y1="-7.500" x2="9.200" y2="-7.500" stroke="#6b7280" stroke-width="0.100" stroke-linecap="round" opacity="0.8"/><line x1="8.580" y1="-4.200" x2="8.580" y2="-7.500" stroke="#6b7280" stroke-width="0.100" stroke-linecap="round" opacity="0.8"/><line x1="9.200" y1="-4.200" x2="9.200" y2="-7.500" stroke="#6b7280" stroke-width="0.100" stroke-linecap="round" opacity="0.8"/><line x1="12.540" y1="2.200" x2="12.790" y2="2.200" stroke="#6b7280" stroke-width="0.100" stroke-linecap="round" opacity="0.8"/><line x1="12.540" y1="3.600" x2="13.290" y2="3.600" stroke="#6b7280" stroke-width="0.100" stroke-linecap="round" opacity="0.8"/><line x1="12.540" y1="4.700" x2="12.540" y2="2.200" stroke="#6b7280" stroke-width="0.100" stroke-linecap="round" opacity="0.8"/><line x1="12.690" y1="2.250" x2="12.690" y2="2.200" stroke="#6b7280" stroke-width="0.100" stroke-linecap="round" opacity="0.8"/><line x1="12.790" y1="-3.600" x2="13.290" y2="-3.600" stroke="#6b7280" stroke-width="0.100" stroke-linecap="round" opacity="0.8"/><line x1="12.790" y1="-2.400" x2="13.290" y2="-2.400" stroke="#6b7280" stroke-width="0.100" stroke-linecap="round" opacity="0.8"/><line x1="12.790" y1="-2.100" x2="13.190" y2="-2.100" stroke="#6b7280" stroke-width="0.100" stroke-linecap="round" opacity="0.8"/><line x1="12.790" y1="2.100" x2="13.190" y2="2.100" stroke="#6b7280" stroke-width="0.100" stroke-linecap="round" opacity="0.8"/><line x1="12.790" y1="2.200" x2="12.790" y2="-4.200" stroke="#6b7280" stroke-width="0.100" stroke-linecap="round" opacity="0.8"/><line x1="12.840" y1="2.400" x2="13.290" y2="2.400" stroke="#6b7280" stroke-width="0.100" stroke-linecap="round" opacity="0.8"/><line x1="13.190" y1="-1.600" x2="13.390" y2="-1.485" stroke="#6b7280" stroke-width="0.100" stroke-linecap="round" opacity="0.8"/><line x1="13.190" y1="1.600" x2="13.390" y2="1.485" stroke="#6b7280" stroke-width="0.100" stroke-linecap="round" opacity="0.8"/><line x1="13.190" y1="2.100" x2="13.190" y2="-2.100" stroke="#6b7280" stroke-width="0.100" stroke-linecap="round" opacity="0.8"/><line x1="13.390" y1="-2.500" x2="13.390" y2="-3.500" stroke="#6b7280" stroke-width="0.100" stroke-linecap="round" opacity="0.8"/><line x1="13.390" y1="1.485" x2="13.390" y2="-1.485" stroke="#6b7280" stroke-width="0.100" stroke-linecap="round" opacity="0.8"/><line x1="13.390" y1="3.500" x2="13.390" y2="2.500" stroke="#6b7280" stroke-width="0.100" stroke-linecap="round" opacity="0.8"/><path d="M -13.390 -3.500 A 0.100 0.100 0 0 1 -13.290 -3.600" fill="none" stroke="#6b7280" stroke-width="0.12" opacity="0.8"/><path d="M -13.390 2.500 A 0.100 0.100 0 0 1 -13.290 2.400" fill="none" stroke="#6b7280" stroke-width="0.12" opacity="0.8"/><path d="M -13.290 -2.400 A 0.100 0.100 0 0 1 -13.390 -2.500" fill="none" stroke="#6b7280" stroke-width="0.12" opacity="0.8"/><path d="M -13.290 3.600 A 0.100 0.100 0 0 1 -13.390 3.500" fill="none" stroke="#6b7280" stroke-width="0.12" opacity="0.8"/><path d="M -12.690 2.250 A 0.150 0.150 0 0 1 -12.840 2.400" fill="none" stroke="#6b7280" stroke-width="0.12" opacity="0.8"/><path d="M 12.840 2.400 A 0.150 0.150 0 0 1 12.690 2.250" fill="none" stroke="#6b7280" stroke-width="0.12" opacity="0.8"/><path d="M 13.290 -3.600 A 0.100 0.100 0 0 1 13.390 -3.500" fill="none" stroke="#6b7280" stroke-width="0.12" opacity="0.8"/><path d="M 13.290 2.400 A 0.100 0.100 0 0 1 13.390 2.500" fill="none" stroke="#6b7280" stroke-width="0.12" opacity="0.8"/><path d="M 13.390 -2.500 A 0.100 0.100 0 0 1 13.290 -2.400" fill="none" stroke="#6b7280" stroke-width="0.12" opacity="0.8"/><path d="M 13.390 3.500 A 0.100 0.100 0 0 1 13.290 3.600" fill="none" stroke="#6b7280" stroke-width="0.12" opacity="0.8"/><circle cx="-8.890" cy="-8.200" r="0.150" fill="#e6e9ef" opacity="1"/><circle cx="-12.040" cy="0.000" r="0.800" fill="none" stroke="#4a5160" stroke-width="0.12" opacity="0.7"/><circle cx="12.040" cy="0.000" r="0.800" fill="none" stroke="#4a5160" stroke-width="0.12" opacity="0.7"/><circle cx="-8.890" cy="-8.200" r="0.250" fill="#6b7280" opacity="0.8"/><circle cx="-12.040" cy="0.000" r="0.300" fill="none" stroke="#6b7280" stroke-width="0.1"/><circle cx="12.040" cy="0.000" r="0.300" fill="none" stroke="#6b7280" stroke-width="0.1"/><rect x="-9.390" y="-7.500" width="1.000" height="3.200" rx="0.000" fill="#c79b5c"/><rect x="-6.850" y="-7.500" width="1.000" height="3.200" rx="0.000" fill="#c79b5c"/><rect x="-4.310" y="-7.500" width="1.000" height="3.200" rx="0.000" fill="#c79b5c"/><rect x="-1.770" y="-7.500" width="1.000" height="3.200" rx="0.000" fill="#c79b5c"/><rect x="0.770" y="-7.500" width="1.000" height="3.200" rx="0.000" fill="#c79b5c"/><rect x="3.310" y="-7.500" width="1.000" height="3.200" rx="0.000" fill="#c79b5c"/><rect x="5.850" y="-7.500" width="1.000" height="3.200" rx="0.000" fill="#c79b5c"/><rect x="8.390" y="-7.500" width="1.000" height="3.200" rx="0.000" fill="#c79b5c"/><rect x="-13.640" y="-3.800" width="2.000" height="2.700" rx="0.000" fill="#c79b5c"/><rect x="-13.640" y="1.100" width="2.000" height="2.700" rx="0.000" fill="#c79b5c"/><rect x="11.640" y="-3.800" width="2.000" height="2.700" rx="0.000" fill="#c79b5c"/><rect x="11.640" y="1.100" width="2.000" height="2.700" rx="0.000" fill="#c79b5c"/></svg>