<svg xmlns="http://www.w3.org/2000/svg" viewBox="-6.35 -22.55 12.70 24.75" preserveAspectRatio="xMidYMid meet" style="width:100%;height:100%"><rect x="-6.35" y="-22.55" width="12.70" height="24.75" fill="#12151c"/><line x1="-5.100" y1="-21.300" x2="5.100" y2="-21.300" stroke="#e6e9ef" stroke-width="0.200" stroke-linecap="round" opacity="1"/><line x1="-5.100" y1="-4.900" x2="-5.100" y2="-21.300" stroke="#e6e9ef" stroke-width="0.200" stroke-linecap="round" opacity="1"/><line x1="-5.100" y1="-4.900" x2="5.100" y2="-4.900" stroke="#e6e9ef" stroke-width="0.200" stroke-linecap="round" opacity="1"/><line x1="-3.540" y1="-1.300" x2="-3.540" y2="-4.900" stroke="#e6e9ef" stroke-width="0.200" stroke-linecap="round" opacity="1"/><line x1="-2.090" y1="-1.300" x2="-2.090" y2="-4.900" stroke="#e6e9ef" stroke-width="0.200" stroke-linecap="round" opacity="1"/><line x1="-0.725" y1="-1.300" x2="-0.725" y2="-4.900" stroke="#e6e9ef" stroke-width="0.200" stroke-linecap="round" opacity="1"/><line x1="0.725" y1="-1.300" x2="0.725" y2="-4.900" stroke="#e6e9ef" stroke-width="0.200" stroke-linecap="round" opacity="1"/><line x1="2.090" y1="-1.300" x2="2.090" y2="-4.900" stroke="#e6e9ef" stroke-width="0.200" stroke-linecap="round" opacity="1"/><line x1="3.540" y1="-1.300" x2="3.540" y2="-4.900" stroke="#e6e9ef" stroke-width="0.200" stroke-linecap="round" opacity="1"/><line x1="5.100" y1="-4.900" x2="5.100" y2="-21.300" stroke="#e6e9ef" stroke-width="0.200" stroke-linecap="round" opacity="1"/><line x1="-2.740" y1="0.000" x2="-2.540" y2="0.000" stroke="#4a5160" stroke-width="0.080" stroke-linecap="round" opacity="0.7"/><line x1="-2.540" y1="0.000" x2="-2.540" y2="-0.200" stroke="#4a5160" stroke-width="0.080" stroke-linecap="round" opacity="0.7"/><line x1="-2.540" y1="0.000" x2="-2.340" y2="0.000" stroke="#4a5160" stroke-width="0.080" stroke-linecap="round" opacity="0.7"/><line x1="-2.540" y1="0.200" x2="-2.540" y2="0.000" stroke="#4a5160" stroke-width="0.080" stroke-linecap="round" opacity="0.7"/><line x1="-0.200" y1="0.000" x2="0.000" y2="0.000" stroke="#4a5160" stroke-width="0.080" stroke-linecap="round" opacity="0.7"/><line x1="0.000" y1="0.000" x2="0.000" y2="-0.200" stroke="#4a5160" stroke-width="0.080" stroke-linecap="round" opacity="0.7"/><line x1="0.000" y1="0.000" x2="0.200" y2="0.000" stroke="#4a5160" stroke-width="0.080" stroke-linecap="round" opacity="0.7"/><line x1="0.000" y1="0.200" x2="0.000" y2="0.000" stroke="#4a5160" stroke-width="0.080" stroke-linecap="round" opacity="0.7"/><line x1="2.340" y1="0.000" x2="2.540" y2="0.000" stroke="#4a5160" stroke-width="0.080" stroke-linecap="round" opacity="0.7"/><line x1="2.540" y1="0.000" x2="2.540" y2="-0.200" stroke="#4a5160" stroke-width="0.080" stroke-linecap="round" opacity="0.7"/><line x1="2.540" y1="0.000" x2="2.740" y2="0.000" stroke="#4a5160" stroke-width="0.080" stroke-linecap="round" opacity="0.7"/><line x1="2.540" y1="0.200" x2="2.540" y2="0.000" stroke="#4a5160" stroke-width="0.080" stroke-linecap="round" opacity="0.7"/><line x1="-5.350" y1="-21.550" x2="5.350" y2="-21.550" stroke="#d24d4d" stroke-width="0.080" stroke-linecap="round" opacity="0.7"/><line x1="-5.350" y1="-4.650" x2="-5.350" y2="-21.550" stroke="#d24d4d" stroke-width="0.080" stroke-linecap="round" opacity="0.7"/><line x1="-5.350" y1="-4.650" x2="-3.790" y2="-4.650" stroke="#d24d4d" stroke-width="0.080" stroke-linecap="round" opacity="0.7"/><line x1="-3.790" y1="1.200" x2="-3.790" y2="-4.650" stroke="#d24d4d" stroke-width="0.080" stroke-linecap="round" opacity="0.7"/><line x1="-3.790" y1="1.200" x2="3.790" y2="1.200" stroke="#d24d4d" stroke-width="0.080" stroke-linecap="round" opacity="0.7"/><line x1="3.790" y1="-4.650" x2="5.350" y2="-4.650" stroke="#d24d4d" stroke-width="0.080" stroke-linecap="round" opacity="0.7"/><line x1="3.790" y1="1.200" x2="3.790" y2="-4.650" stroke="#d24d4d" stroke-width="0.080" stroke-linecap="round" opacity="0.7"/><line x1="5.350" y1="-4.650" x2="5.350" y2="-21.550" stroke="#d24d4d" stroke-width="0.080" stroke-linecap="round" opacity="0.7"/><line x1="-5.100" y1="-21.300" x2="5.100" y2="-21.300" stroke="#6b7280" stroke-width="0.100" stroke-linecap="round" opacity="0.8"/><line x1="-5.100" y1="-4.900" x2="-5.100" y2="-21.300" stroke="#6b7280" stroke-width="0.100" stroke-linecap="round" opacity="0.8"/><line x1="-5.100" y1="-4.900" x2="5.100" y2="-4.900" stroke="#6b7280" stroke-width="0.100" stroke-linecap="round" opacity="0.8"/><line x1="-3.540" y1="-1.300" x2="-3.540" y2="-4.900" stroke="#6b7280" stroke-width="0.100" stroke-linecap="round" opacity="0.8"/><line x1="-3.540" y1="-1.300" x2="-2.990" y2="-1.300" stroke="#6b7280" stroke-width="0.100" stroke-linecap="round" opacity="0.8"/><line x1="-2.990" y1="0.300" x2="-2.990" y2="-1.300" stroke="#6b7280" stroke-width="0.100" stroke-linecap="round" opacity="0.8"/><line x1="-2.990" y1="0.300" x2="-2.090" y2="0.300" stroke="#6b7280" stroke-width="0.100" stroke-linecap="round" opacity="0.8"/><line x1="-2.090" y1="0.300" x2="-2.090" y2="-4.900" stroke="#6b7280" stroke-width="0.100" stroke-linecap="round" opacity="0.8"/><line x1="-0.725" y1="-1.300" x2="-0.725" y2="-4.900" stroke="#6b7280" stroke-width="0.100" stroke-linecap="round" opacity="0.8"/><line x1="-0.725" y1="-1.300" x2="-0.450" y2="-1.300" stroke="#6b7280" stroke-width="0.100" stroke-linecap="round" opacity="0.8"/><line x1="-0.450" y1="0.300" x2="-0.450" y2="-1.300" stroke="#6b7280" stroke-width="0.100" stroke-linecap="round" opacity="0.8"/><line x1="-0.450" y1="0.300" x2="0.450" y2="0.300" stroke="#6b7280" stroke-width="0.100" stroke-linecap="round" opacity="0.8"/><line x1="0.450" y1="-1.300" x2="0.725" y2="-1.300" stroke="#6b7280" stroke-width="0.100" stroke-linecap="round" opacity="0.8"/><line x1="0.450" y1="0.300" x2="0.450" y2="-1.300" stroke="#6b7280" stroke-width="0.100" stroke-linecap="round" opacity="0.8"/><line x1="0.725" y1="-1.300" x2="0.725" y2="-4.900" stroke="#6b7280" stroke-width="0.100" stroke-linecap="round" opacity="0.8"/><line x1="2.090" y1="0.300" x2="2.090" y2="-4.900" stroke="#6b7280" stroke-width="0.100" stroke-linecap="round" opacity="0.8"/><line x1="2.090" y1="0.300" x2="2.990" y2="0.300" stroke="#6b7280" stroke-width="0.100" stroke-linecap="round" opacity="0.8"/><line x1="2.990" y1="-1.300" x2="3.540" y2="-1.300" stroke="#6b7280" stroke-width="0.100" stroke-linecap="round" opacity="0.8"/><line x1="2.990" y1="0.300" x2="2.990" y2="-1.300" stroke="#6b7280" stroke-width="0.100" stroke-linecap="round" opacity="0.8"/><line x1="3.540" y1="-1.300" x2="3.540" y2="-4.900" stroke="#6b7280" stroke-width="0.100" stroke-linecap="round" opacity="0.8"/><line x1="5.100" y1="-4.900" x2="5.100" y2="-21.300" stroke="#6b7280" stroke-width="0.100" stroke-linecap="round" opacity="0.8"/><circle cx="-2.540" cy="0.000" r="0.950" fill="none" stroke="#4a5160" stroke-width="0.12" opacity="0.7"/><circle cx="-2.540" cy="0.000" r="0.600" fill="none" stroke="#4a5160" stroke-width="0.12" opacity="0.7"/><circle cx="0.000" cy="0.000" r="0.950" fill="none" stroke="#4a5160" stroke-width="0.12" opacity="0.7"/><circle cx="0.000" cy="0.000" r="0.600" fill="none" stroke="#4a5160" stroke-width="0.12" opacity="0.7"/><circle cx="2.540" cy="0.000" r="0.950" fill="none" stroke="#4a5160" stroke-width="0.12" opacity="0.7"/><circle cx="2.540" cy="0.000" r="0.600" fill="none" stroke="#4a5160" stroke-width="0.12" opacity="0.7"/><circle cx="0.000" cy="-17.300" r="0.750" fill="none" stroke="#6b7280" stroke-width="0.1"/><rect x="1.590" y="-0.950" width="1.900" height="1.900" rx="0.000" fill="#c79b5c"/><circle cx="2.540" cy="0.000" r="0.600" fill="#12151c"/><rect x="-0.950" y="-0.950" width="1.900" height="1.900" rx="0.950" fill="#c79b5c"/><circle cx="0.000" cy="0.000" r="0.600" fill="#12151c"/><rect x="-3.490" y="-0.950" width="1.900" height="1.900" rx="0.950" fill="#c79b5c"/><circle cx="-2.540" cy="0.000" r="0.600" fill="#12151c"/></svg>