<svg xmlns="http://www.w3.org/2000/svg" viewBox="-5.05 -6.38 10.10 12.12" preserveAspectRatio="xMidYMid meet" style="width:100%;height:100%"><rect x="-5.05" y="-6.38" width="10.10" height="12.12" fill="#12151c"/><circle cx="-3.800" cy="-5.250" r="0.125" fill="none" stroke="#e6e9ef" stroke-width="0.12" opacity="1"/><circle cx="-0.925" cy="-4.150" r="0.250" fill="none" stroke="#e6e9ef" stroke-width="0.12" opacity="1"/><circle cx="-1.200" cy="-4.150" r="0.500" fill="none" stroke="#6b7280" stroke-width="0.12" opacity="0.8"/><rect x="-4.050" y="-4.745" width="1.800" height="0.600" rx="0.000" fill="#c79b5c"/><rect x="-4.050" y="-3.475" width="1.800" height="0.600" rx="0.000" fill="#c79b5c"/><rect x="-4.050" y="-2.205" width="1.800" height="0.600" rx="0.000" fill="#c79b5c"/><rect x="-4.050" y="-0.935" width="1.800" height="0.600" rx="0.000" fill="#c79b5c"/><rect x="-4.050" y="0.335" width="1.800" height="0.600" rx="0.000" fill="#c79b5c"/><rect x="-4.050" y="1.605" width="1.800" height="0.600" rx="0.000" fill="#c79b5c"/><rect x="-4.050" y="2.875" width="1.800" height="0.600" rx="0.000" fill="#c79b5c"/><rect x="-4.050" y="4.145" width="1.800" height="0.600" rx="0.000" fill="#c79b5c"/><rect x="2.250" y="4.145" width="1.800" height="0.600" rx="0.000" fill="#c79b5c"/><rect x="2.250" y="2.875" width="1.800" height="0.600" rx="0.000" fill="#c79b5c"/><rect x="2.250" y="1.605" width="1.800" height="0.600" rx="0.000" fill="#c79b5c"/><rect x="2.250" y="0.335" width="1.800" height="0.600" rx="0.000" fill="#c79b5c"/><rect x="2.250" y="-0.935" width="1.800" height="0.600" rx="0.000" fill="#c79b5c"/><rect x="2.250" y="-2.205" width="1.800" height="0.600" rx="0.000" fill="#c79b5c"/><rect x="2.250" y="-3.475" width="1.800" height="0.600" rx="0.000" fill="#c79b5c"/><rect x="2.250" y="-4.745" width="1.800" height="0.600" rx="0.000" fill="#c79b5c"/></svg>