<svg xmlns="http://www.w3.org/2000/svg" viewBox="-3.45 -3.20 6.65 6.40" preserveAspectRatio="xMidYMid meet" style="width:100%;height:100%"><rect x="-3.45" y="-3.20" width="6.65" height="6.40" fill="#12151c"/><line x1="-1.750" y1="-1.750" x2="-1.725" y2="-1.750" stroke="#e6e9ef" stroke-width="0.200" stroke-linecap="round" opacity="1"/><line x1="-1.750" y1="-1.400" x2="-1.750" y2="-1.750" stroke="#e6e9ef" stroke-width="0.200" stroke-linecap="round" opacity="1"/><line x1="1.725" y1="-1.750" x2="1.750" y2="-1.750" stroke="#e6e9ef" stroke-width="0.200" stroke-linecap="round" opacity="1"/><line x1="1.750" y1="-1.400" x2="1.750" y2="-1.750" stroke="#e6e9ef" stroke-width="0.200" stroke-linecap="round" opacity="1"/><line x1="-1.950" y1="-1.050" x2="-1.650" y2="-0.925" stroke="#4a5160" stroke-width="0.080" stroke-linecap="round" opacity="0.7"/><line x1="-1.950" y1="-1.050" x2="-1.350" y2="-1.050" stroke="#4a5160" stroke-width="0.080" stroke-linecap="round" opacity="0.7"/><line x1="-1.950" y1="-0.800" x2="-1.950" y2="-1.050" stroke="#4a5160" stroke-width="0.080" stroke-linecap="round" opacity="0.7"/><line x1="-1.950" y1="-0.800" x2="-1.650" y2="-0.925" stroke="#4a5160" stroke-width="0.080" stroke-linecap="round" opacity="0.7"/><line x1="-1.950" y1="-0.800" x2="-1.350" y2="-0.800" stroke="#4a5160" stroke-width="0.080" stroke-linecap="round" opacity="0.7"/><line x1="-1.950" y1="-0.550" x2="-1.375" y2="-0.350" stroke="#4a5160" stroke-width="0.080" stroke-linecap="round" opacity="0.7"/><line x1="-1.950" y1="-0.550" x2="-0.800" y2="-0.550" stroke="#4a5160" stroke-width="0.080" stroke-linecap="round" opacity="0.7"/><line x1="-1.950" y1="-0.150" x2="-1.950" y2="-0.550" stroke="#4a5160" stroke-width="0.080" stroke-linecap="round" opacity="0.7"/><line x1="-1.950" y1="-0.150" x2="-1.375" y2="-0.350" stroke="#4a5160" stroke-width="0.080" stroke-linecap="round" opacity="0.7"/><line x1="-1.950" y1="-0.150" x2="-0.800" y2="-0.150" stroke="#4a5160" stroke-width="0.080" stroke-linecap="round" opacity="0.7"/><line x1="-1.950" y1="0.175" x2="-1.375" y2="0.300" stroke="#4a5160" stroke-width="0.080" stroke-linecap="round" opacity="0.7"/><line x1="-1.950" y1="0.175" x2="-0.800" y2="0.175" stroke="#4a5160" stroke-width="0.080" stroke-linecap="round" opacity="0.7"/><line x1="-1.950" y1="0.425" x2="-1.950" y2="0.175" stroke="#4a5160" stroke-width="0.080" stroke-linecap="round" opacity="0.7"/><line x1="-1.950" y1="0.425" x2="-1.375" y2="0.300" stroke="#4a5160" stroke-width="0.080" stroke-linecap="round" opacity="0.7"/><line x1="-1.950" y1="0.425" x2="-0.800" y2="0.425" stroke="#4a5160" stroke-width="0.080" stroke-linecap="round" opacity="0.7"/><line x1="-1.950" y1="0.725" x2="-1.375" y2="0.850" stroke="#4a5160" stroke-width="0.080" stroke-linecap="round" opacity="0.7"/><line x1="-1.950" y1="0.725" x2="-0.800" y2="0.725" stroke="#4a5160" stroke-width="0.080" stroke-linecap="round" opacity="0.7"/><line x1="-1.950" y1="0.975" x2="-1.950" y2="0.725" stroke="#4a5160" stroke-width="0.080" stroke-linecap="round" opacity="0.7"/><line x1="-1.950" y1="0.975" x2="-1.375" y2="0.850" stroke="#4a5160" stroke-width="0.080" stroke-linecap="round" opacity="0.7"/><line x1="-1.950" y1="0.975" x2="-0.800" y2="0.975" stroke="#4a5160" stroke-width="0.080" stroke-linecap="round" opacity="0.7"/><line x1="-1.950" y1="1.275" x2="-1.375" y2="1.400" stroke="#4a5160" stroke-width="0.080" stroke-linecap="round" opacity="0.7"/><line x1="-1.950" y1="1.275" x2="-0.800" y2="1.275" stroke="#4a5160" stroke-width="0.080" stroke-linecap="round" opacity="0.7"/><line x1="-1.950" y1="1.525" x2="-1.950" y2="1.275" stroke="#4a5160" stroke-width="0.080" stroke-linecap="round" opacity="0.7"/><line x1="-1.950" y1="1.525" x2="-1.375" y2="1.400" stroke="#4a5160" stroke-width="0.080" stroke-linecap="round" opacity="0.7"/><line x1="-1.950" y1="1.525" x2="-0.800" y2="1.525" stroke="#4a5160" stroke-width="0.080" stroke-linecap="round" opacity="0.7"/><line x1="-1.375" y1="-1.950" x2="-1.250" y2="-1.650" stroke="#4a5160" stroke-width="0.080" stroke-linecap="round" opacity="0.7"/><line x1="-1.375" y1="-1.950" x2="-1.125" y2="-1.950" stroke="#4a5160" stroke-width="0.080" stroke-linecap="round" opacity="0.7"/><line x1="-1.375" y1="-1.350" x2="-1.375" y2="-1.950" stroke="#4a5160" stroke-width="0.080" stroke-linecap="round" opacity="0.7"/><line x1="-1.375" y1="-1.350" x2="-1.125" y2="-1.350" stroke="#4a5160" stroke-width="0.080" stroke-linecap="round" opacity="0.7"/><line x1="-1.350" y1="-0.800" x2="-1.350" y2="-1.050" stroke="#4a5160" stroke-width="0.080" stroke-linecap="round" opacity="0.7"/><line x1="-1.250" y1="-1.650" x2="-1.125" y2="-1.950" stroke="#4a5160" stroke-width="0.080" stroke-linecap="round" opacity="0.7"/><line x1="-1.125" y1="-1.350" x2="-1.125" y2="-1.950" stroke="#4a5160" stroke-width="0.080" stroke-linecap="round" opacity="0.7"/><line x1="-0.875" y1="-1.950" x2="-0.750" y2="-1.650" stroke="#4a5160" stroke-width="0.080" stroke-linecap="round" opacity="0.7"/><line x1="-0.875" y1="-1.950" x2="-0.625" y2="-1.950" stroke="#4a5160" stroke-width="0.080" stroke-linecap="round" opacity="0.7"/><line x1="-0.875" y1="-1.350" x2="-0.875" y2="-1.950" stroke="#4a5160" stroke-width="0.080" stroke-linecap="round" opacity="0.7"/><line x1="-0.875" y1="-1.350" x2="-0.625" y2="-1.350" stroke="#4a5160" stroke-width="0.080" stroke-linecap="round" opacity="0.7"/><line x1="-0.800" y1="-0.150" x2="-0.800" y2="-0.550" stroke="#4a5160" stroke-width="0.080" stroke-linecap="round" opacity="0.7"/><line x1="-0.800" y1="0.425" x2="-0.800" y2="0.175" stroke="#4a5160" stroke-width="0.080" stroke-linecap="round" opacity="0.7"/><line x1="-0.800" y1="0.975" x2="-0.800" y2="0.725" stroke="#4a5160" stroke-width="0.080" stroke-linecap="round" opacity="0.7"/><line x1="-0.800" y1="1.525" x2="-0.800" y2="1.275" stroke="#4a5160" stroke-width="0.080" stroke-linecap="round" opacity="0.7"/><line x1="-0.750" y1="-1.650" x2="-0.625" y2="-1.950" stroke="#4a5160" stroke-width="0.080" stroke-linecap="round" opacity="0.7"/><line x1="-0.625" y1="-1.350" x2="-0.625" y2="-1.950" stroke="#4a5160" stroke-width="0.080" stroke-linecap="round" opacity="0.7"/><line x1="-0.500" y1="0.000" x2="0.000" y2="0.000" stroke="#4a5160" stroke-width="0.080" stroke-linecap="round" opacity="0.7"/><line x1="-0.450" y1="-0.650" x2="-0.150" y2="-0.650" stroke="#4a5160" stroke-width="0.080" stroke-linecap="round" opacity="0.7"/><line x1="-0.450" y1="1.950" x2="-0.450" y2="-0.650" stroke="#4a5160" stroke-width="0.080" stroke-linecap="round" opacity="0.7"/><line x1="-0.450" y1="1.950" x2="-0.300" y2="0.650" stroke="#4a5160" stroke-width="0.080" stroke-linecap="round" opacity="0.7"/><line x1="-0.450" y1="1.950" x2="-0.150" y2="1.950" stroke="#4a5160" stroke-width="0.080" stroke-linecap="round" opacity="0.7"/><line x1="-0.375" y1="-1.950" x2="-0.250" y2="-1.650" stroke="#4a5160" stroke-width="0.080" stroke-linecap="round" opacity="0.7"/><line x1="-0.375" y1="-1.950" x2="-0.125" y2="-1.950" stroke="#4a5160" stroke-width="0.080" stroke-linecap="round" opacity="0.7"/><line x1="-0.375" y1="-1.350" x2="-0.375" y2="-1.950" stroke="#4a5160" stroke-width="0.080" stroke-linecap="round" opacity="0.7"/><line x1="-0.375" y1="-1.350" x2="-0.125" y2="-1.350" stroke="#4a5160" stroke-width="0.080" stroke-linecap="round" opacity="0.7"/><line x1="-0.300" y1="0.650" x2="-0.150" y2="1.950" stroke="#4a5160" stroke-width="0.080" stroke-linecap="round" opacity="0.7"/><line x1="-0.250" y1="-1.650" x2="-0.125" y2="-1.950" stroke="#4a5160" stroke-width="0.080" stroke-linecap="round" opacity="0.7"/><line x1="-0.150" y1="1.950" x2="-0.150" y2="-0.650" stroke="#4a5160" stroke-width="0.080" stroke-linecap="round" opacity="0.7"/><line x1="-0.125" y1="-1.350" x2="-0.125" y2="-1.950" stroke="#4a5160" stroke-width="0.080" stroke-linecap="round" opacity="0.7"/><line x1="0.000" y1="0.000" x2="0.000" y2="-0.500" stroke="#4a5160" stroke-width="0.080" stroke-linecap="round" opacity="0.7"/><line x1="0.000" y1="0.000" x2="0.500" y2="0.000" stroke="#4a5160" stroke-width="0.080" stroke-linecap="round" opacity="0.7"/><line x1="0.000" y1="0.500" x2="0.000" y2="0.000" stroke="#4a5160" stroke-width="0.080" stroke-linecap="round" opacity="0.7"/><line x1="0.125" y1="-1.950" x2="0.250" y2="-1.650" stroke="#4a5160" stroke-width="0.080" stroke-linecap="round" opacity="0.7"/><line x1="0.125" y1="-1.950" x2="0.375" y2="-1.950" stroke="#4a5160" stroke-width="0.080" stroke-linecap="round" opacity="0.7"/><line x1="0.125" y1="-1.350" x2="0.125" y2="-1.950" stroke="#4a5160" stroke-width="0.080" stroke-linecap="round" opacity="0.7"/><line x1="0.125" y1="-1.350" x2="0.375" y2="-1.350" stroke="#4a5160" stroke-width="0.080" stroke-linecap="round" opacity="0.7"/><line x1="0.150" y1="-0.650" x2="0.450" y2="-0.650" stroke="#4a5160" stroke-width="0.080" stroke-linecap="round" opacity="0.7"/><line x1="0.150" y1="1.950" x2="0.150" y2="-0.650" stroke="#4a5160" stroke-width="0.080" stroke-linecap="round" opacity="0.7"/><line x1="0.150" y1="1.950" x2="0.300" y2="0.650" stroke="#4a5160" stroke-width="0.080" stroke-linecap="round" opacity="0.7"/><line x1="0.150" y1="1.950" x2="0.450" y2="1.950" stroke="#4a5160" stroke-width="0.080" stroke-linecap="round" opacity="0.7"/><line x1="0.250" y1="-1.650" x2="0.375" y2="-1.950" stroke="#4a5160" stroke-width="0.080" stroke-linecap="round" opacity="0.7"/><line x1="0.300" y1="0.650" x2="0.450" y2="1.950" stroke="#4a5160" stroke-width="0.080" stroke-linecap="round" opacity="0.7"/><line x1="0.375" y1="-1.350" x2="0.375" y2="-1.950" stroke="#4a5160" stroke-width="0.080" stroke-linecap="round" opacity="0.7"/><line x1="0.450" y1="1.950" x2="0.450" y2="-0.650" stroke="#4a5160" stroke-width="0.080" stroke-linecap="round" opacity="0.7"/><line x1="0.625" y1="-1.950" x2="0.750" y2="-1.650" stroke="#4a5160" stroke-width="0.080" stroke-linecap="round" opacity="0.7"/><line x1="0.625" y1="-1.950" x2="0.875" y2="-1.950" stroke="#4a5160" stroke-width="0.080" stroke-linecap="round" opacity="0.7"/><line x1="0.625" y1="-1.350" x2="0.625" y2="-1.950" stroke="#4a5160" stroke-width="0.080" stroke-linecap="round" opacity="0.7"/><line x1="0.625" y1="-1.350" x2="0.875" y2="-1.350" stroke="#4a5160" stroke-width="0.080" stroke-linecap="round" opacity="0.7"/><line x1="0.750" y1="-1.650" x2="0.875" y2="-1.950" stroke="#4a5160" stroke-width="0.080" stroke-linecap="round" opacity="0.7"/><line x1="0.800" y1="-0.550" x2="1.950" y2="-0.550" stroke="#4a5160" stroke-width="0.080" stroke-linecap="round" opacity="0.7"/><line x1="0.800" y1="-0.150" x2="0.800" y2="-0.550" stroke="#4a5160" stroke-width="0.080" stroke-linecap="round" opacity="0.7"/><line x1="0.800" y1="-0.150" x2="1.950" y2="-0.150" stroke="#4a5160" stroke-width="0.080" stroke-linecap="round" opacity="0.7"/><line x1="0.800" y1="0.175" x2="1.950" y2="0.175" stroke="#4a5160" stroke-width="0.080" stroke-linecap="round" opacity="0.7"/><line x1="0.800" y1="0.425" x2="0.800" y2="0.175" stroke="#4a5160" stroke-width="0.080" stroke-linecap="round" opacity="0.7"/><line x1="0.800" y1="0.425" x2="1.950" y2="0.425" stroke="#4a5160" stroke-width="0.080" stroke-linecap="round" opacity="0.7"/><line x1="0.800" y1="0.725" x2="1.950" y2="0.725" stroke="#4a5160" stroke-width="0.080" stroke-linecap="round" opacity="0.7"/><line x1="0.800" y1="0.975" x2="0.800" y2="0.725" stroke="#4a5160" stroke-width="0.080" stroke-linecap="round" opacity="0.7"/><line x1="0.800" y1="0.975" x2="1.950" y2="0.975" stroke="#4a5160" stroke-width="0.080" stroke-linecap="round" opacity="0.7"/><line x1="0.800" y1="1.275" x2="1.950" y2="1.275" stroke="#4a5160" stroke-width="0.080" stroke-linecap="round" opacity="0.7"/><line x1="0.800" y1="1.525" x2="0.800" y2="1.275" stroke="#4a5160" stroke-width="0.080" stroke-linecap="round" opacity="0.7"/><line x1="0.800" y1="1.525" x2="1.950" y2="1.525" stroke="#4a5160" stroke-width="0.080" stroke-linecap="round" opacity="0.7"/><line x1="0.875" y1="-1.350" x2="0.875" y2="-1.950" stroke="#4a5160" stroke-width="0.080" stroke-linecap="round" opacity="0.7"/><line x1="1.125" y1="-1.950" x2="1.250" y2="-1.650" stroke="#4a5160" stroke-width="0.080" stroke-linecap="round" opacity="0.7"/><line x1="1.125" y1="-1.950" x2="1.375" y2="-1.950" stroke="#4a5160" stroke-width="0.080" stroke-linecap="round" opacity="0.7"/><line x1="1.125" y1="-1.350" x2="1.125" y2="-1.950" stroke="#4a5160" stroke-width="0.080" stroke-linecap="round" opacity="0.7"/><line x1="1.125" y1="-1.350" x2="1.375" y2="-1.350" stroke="#4a5160" stroke-width="0.080" stroke-linecap="round" opacity="0.7"/><line x1="1.250" y1="-1.650" x2="1.375" y2="-1.950" stroke="#4a5160" stroke-width="0.080" stroke-linecap="round" opacity="0.7"/><line x1="1.350" y1="-1.050" x2="1.950" y2="-1.050" stroke="#4a5160" stroke-width="0.080" stroke-linecap="round" opacity="0.7"/><line x1="1.350" y1="-0.800" x2="1.350" y2="-1.050" stroke="#4a5160" stroke-width="0.080" stroke-linecap="round" opacity="0.7"/><line x1="1.350" y1="-0.800" x2="1.950" y2="-0.800" stroke="#4a5160" stroke-width="0.080" stroke-linecap="round" opacity="0.7"/><line x1="1.375" y1="-1.350" x2="1.375" y2="-1.950" stroke="#4a5160" stroke-width="0.080" stroke-linecap="round" opacity="0.7"/><line x1="1.375" y1="-0.350" x2="1.950" y2="-0.550" stroke="#4a5160" stroke-width="0.080" stroke-linecap="round" opacity="0.7"/><line x1="1.375" y1="-0.350" x2="1.950" y2="-0.150" stroke="#4a5160" stroke-width="0.080" stroke-linecap="round" opacity="0.7"/><line x1="1.375" y1="0.300" x2="1.950" y2="0.175" stroke="#4a5160" stroke-width="0.080" stroke-linecap="round" opacity="0.7"/><line x1="1.375" y1="0.300" x2="1.950" y2="0.425" stroke="#4a5160" stroke-width="0.080" stroke-linecap="round" opacity="0.7"/><line x1="1.375" y1="0.850" x2="1.950" y2="0.725" stroke="#4a5160" stroke-width="0.080" stroke-linecap="round" opacity="0.7"/><line x1="1.375" y1="0.850" x2="1.950" y2="0.975" stroke="#4a5160" stroke-width="0.080" stroke-linecap="round" opacity="0.7"/><line x1="1.375" y1="1.400" x2="1.950" y2="1.275" stroke="#4a5160" stroke-width="0.080" stroke-linecap="round" opacity="0.7"/><line x1="1.375" y1="1.400" x2="1.950" y2="1.525" stroke="#4a5160" stroke-width="0.080" stroke-linecap="round" opacity="0.7"/><line x1="1.650" y1="-0.925" x2="1.950" y2="-1.050" stroke="#4a5160" stroke-width="0.080" stroke-linecap="round" opacity="0.7"/><line x1="1.650" y1="-0.925" x2="1.950" y2="-0.800" stroke="#4a5160" stroke-width="0.080" stroke-linecap="round" opacity="0.7"/><line x1="1.950" y1="-0.800" x2="1.950" y2="-1.050" stroke="#4a5160" stroke-width="0.080" stroke-linecap="round" opacity="0.7"/><line x1="1.950" y1="-0.150" x2="1.950" y2="-0.550" stroke="#4a5160" stroke-width="0.080" stroke-linecap="round" opacity="0.7"/><line x1="1.950" y1="0.425" x2="1.950" y2="0.175" stroke="#4a5160" stroke-width="0.080" stroke-linecap="round" opacity="0.7"/><line x1="1.950" y1="0.975" x2="1.950" y2="0.725" stroke="#4a5160" stroke-width="0.080" stroke-linecap="round" opacity="0.7"/><line x1="1.950" y1="1.525" x2="1.950" y2="1.275" stroke="#4a5160" stroke-width="0.080" stroke-linecap="round" opacity="0.7"/><line x1="-2.200" y1="-2.200" x2="2.200" y2="-2.200" stroke="#d24d4d" stroke-width="0.080" stroke-linecap="round" opacity="0.7"/><line x1="-2.200" y1="2.200" x2="-2.200" y2="-2.200" stroke="#d24d4d" stroke-width="0.080" stroke-linecap="round" opacity="0.7"/><line x1="-2.200" y1="2.200" x2="2.200" y2="2.200" stroke="#d24d4d" stroke-width="0.080" stroke-linecap="round" opacity="0.7"/><line x1="2.200" y1="2.200" x2="2.200" y2="-2.200" stroke="#d24d4d" stroke-width="0.080" stroke-linecap="round" opacity="0.7"/><line x1="-1.750" y1="-1.750" x2="1.750" y2="-1.750" stroke="#6b7280" stroke-width="0.100" stroke-linecap="round" opacity="0.8"/><line x1="-1.750" y1="1.750" x2="-1.750" y2="-1.750" stroke="#6b7280" stroke-width="0.100" stroke-linecap="round" opacity="0.8"/><line x1="-1.750" y1="1.750" x2="1.750" y2="1.750" stroke="#6b7280" stroke-width="0.100" stroke-linecap="round" opacity="0.8"/><line x1="-1.702" y1="-1.625" x2="-1.603" y2="-1.725" stroke="#6b7280" stroke-width="0.100" stroke-linecap="round" opacity="0.8"/><line x1="-1.702" y1="-1.525" x2="-1.502" y2="-1.725" stroke="#6b7280" stroke-width="0.100" stroke-linecap="round" opacity="0.8"/><line x1="-1.702" y1="-1.425" x2="-1.403" y2="-1.725" stroke="#6b7280" stroke-width="0.100" stroke-linecap="round" opacity="0.8"/><line x1="-1.702" y1="-1.325" x2="-1.302" y2="-1.725" stroke="#6b7280" stroke-width="0.100" stroke-linecap="round" opacity="0.8"/><line x1="-1.702" y1="-1.225" x2="-1.202" y2="-1.725" stroke="#6b7280" stroke-width="0.100" stroke-linecap="round" opacity="0.8"/><line x1="-1.702" y1="-1.125" x2="-1.103" y2="-1.725" stroke="#6b7280" stroke-width="0.100" stroke-linecap="round" opacity="0.8"/><line x1="-1.702" y1="-1.025" x2="-1.002" y2="-1.725" stroke="#6b7280" stroke-width="0.100" stroke-linecap="round" opacity="0.8"/><line x1="-1.702" y1="-0.925" x2="-0.902" y2="-1.725" stroke="#6b7280" stroke-width="0.100" stroke-linecap="round" opacity="0.8"/><line x1="-1.702" y1="-0.825" x2="-0.802" y2="-1.725" stroke="#6b7280" stroke-width="0.100" stroke-linecap="round" opacity="0.8"/><line x1="-1.702" y1="-0.725" x2="-0.703" y2="-1.725" stroke="#6b7280" stroke-width="0.100" stroke-linecap="round" opacity="0.8"/><line x1="1.750" y1="1.750" x2="1.750" y2="-1.750" stroke="#6b7280" stroke-width="0.100" stroke-linecap="round" opacity="0.8"/><circle cx="-2.400" cy="-1.000" r="0.050" fill="none" stroke="#e6e9ef" stroke-width="0.12" opacity="1"/><rect x="-1.950" y="-1.050" width="0.600" height="0.250" rx="0.000" fill="#c79b5c"/><rect x="-1.950" y="-0.550" width="1.150" height="0.400" rx="0.000" fill="#c79b5c"/><rect x="-1.950" y="0.175" width="1.150" height="0.250" rx="0.000" fill="#c79b5c"/><rect x="-1.950" y="0.725" width="1.150" height="0.250" rx="0.000" fill="#c79b5c"/><rect x="-1.950" y="1.275" width="1.150" height="0.250" rx="0.000" fill="#c79b5c"/><rect x="-0.450" y="-0.650" width="0.300" height="2.600" rx="0.000" fill="#c79b5c"/><rect x="0.150" y="-0.650" width="0.300" height="2.600" rx="0.000" fill="#c79b5c"/><rect x="0.800" y="1.275" width="1.150" height="0.250" rx="0.000" fill="#c79b5c"/><rect x="0.800" y="0.725" width="1.150" height="0.250" rx="0.000" fill="#c79b5c"/><rect x="0.800" y="0.175" width="1.150" height="0.250" rx="0.000" fill="#c79b5c"/><rect x="0.800" y="-0.550" width="1.150" height="0.400" rx="0.000" fill="#c79b5c"/><rect x="1.350" y="-1.050" width="0.600" height="0.250" rx="0.000" fill="#c79b5c"/><rect x="1.125" y="-1.950" width="0.250" height="0.600" rx="0.000" fill="#c79b5c"/><rect x="0.625" y="-1.950" width="0.250" height="0.600" rx="0.000" fill="#c79b5c"/><rect x="0.125" y="-1.950" width="0.250" height="0.600" rx="0.000" fill="#c79b5c"/><rect x="-0.375" y="-1.950" width="0.250" height="0.600" rx="0.000" fill="#c79b5c"/><rect x="-0.875" y="-1.950" width="0.250" height="0.600" rx="0.000" fill="#c79b5c"/><rect x="-1.375" y="-1.950" width="0.250" height="0.600" rx="0.000" fill="#c79b5c"/></svg>