<svg xmlns="http://www.w3.org/2000/svg" viewBox="-2.60 -2.15 4.55 4.30" preserveAspectRatio="xMidYMid meet" style="width:100%;height:100%"><rect x="-2.60" y="-2.15" width="4.55" height="4.30" fill="#12151c"/><path d="M -0.850 0.950 A 0.100 0.100 0 0 1 -0.750 1.050" fill="none" stroke="#6b7280" stroke-width="0.12" opacity="0.8"/><path d="M -0.750 -1.050 A 0.100 0.100 0 0 1 -0.850 -0.950" fill="none" stroke="#6b7280" stroke-width="0.12" opacity="0.8"/><path d="M 0.750 1.050 A 0.100 0.100 0 0 1 0.850 0.950" fill="none" stroke="#6b7280" stroke-width="0.12" opacity="0.8"/><path d="M 0.850 -0.950 A 0.100 0.100 0 0 1 0.750 -1.050" fill="none" stroke="#6b7280" stroke-width="0.12" opacity="0.8"/><circle cx="-1.475" cy="-0.750" r="0.125" fill="none" stroke="#e6e9ef" stroke-width="0.12" opacity="1"/><circle cx="-0.375" cy="-0.575" r="0.300" fill="none" stroke="#6b7280" stroke-width="0.12" opacity="0.8"/><rect x="-0.950" y="-1.150" width="0.800" height="0.900" rx="0.000" fill="#c79b5c"/><rect x="-0.950" y="0.250" width="0.800" height="0.900" rx="0.000" fill="#c79b5c"/><rect x="0.150" y="0.250" width="0.800" height="0.900" rx="0.000" fill="#c79b5c"/><rect x="0.150" y="-1.150" width="0.800" height="0.900" rx="0.000" fill="#c79b5c"/></svg>