<svg xmlns="http://www.w3.org/2000/svg" viewBox="-7.72 -6.42 14.15 12.85" preserveAspectRatio="xMidYMid meet" style="width:100%;height:100%"><rect x="-7.72" y="-6.42" width="14.15" height="12.85" fill="#12151c"/><circle cx="-6.600" cy="-5.200" r="0.125" fill="none" stroke="#e6e9ef" stroke-width="0.12" opacity="1"/><rect x="-5.425" y="-5.425" width="0.450" height="0.450" rx="0.225" fill="#c79b5c"/><rect x="-4.625" y="-5.425" width="0.450" height="0.450" rx="0.225" fill="#c79b5c"/><rect x="-3.825" y="-5.425" width="0.450" height="0.450" rx="0.225" fill="#c79b5c"/><rect x="-3.025" y="-5.425" width="0.450" height="0.450" rx="0.225" fill="#c79b5c"/><rect x="-2.225" y="-5.425" width="0.450" height="0.450" rx="0.225" fill="#c79b5c"/><rect x="-1.425" y="-5.425" width="0.450" height="0.450" rx="0.225" fill="#c79b5c"/><rect x="-0.625" y="-5.425" width="0.450" height="0.450" rx="0.225" fill="#c79b5c"/><rect x="0.175" y="-5.425" width="0.450" height="0.450" rx="0.225" fill="#c79b5c"/><rect x="0.975" y="-5.425" width="0.450" height="0.450" rx="0.225" fill="#c79b5c"/><rect x="1.775" y="-5.425" width="0.450" height="0.450" rx="0.225" fill="#c79b5c"/><rect x="2.575" y="-5.425" width="0.450" height="0.450" rx="0.225" fill="#c79b5c"/><rect x="3.375" y="-5.425" width="0.450" height="0.450" rx="0.225" fill="#c79b5c"/><rect x="4.175" y="-5.425" width="0.450" height="0.450" rx="0.225" fill="#c79b5c"/><rect x="4.975" y="-5.425" width="0.450" height="0.450" rx="0.225" fill="#c79b5c"/><rect x="-5.425" y="-4.625" width="0.450" height="0.450" rx="0.225" fill="#c79b5c"/><rect x="-4.625" y="-4.625" width="0.450" height="0.450" rx="0.225" fill="#c79b5c"/><rect x="-3.825" y="-4.625" width="0.450" height="0.450" rx="0.225" fill="#c79b5c"/><rect x="-3.025" y="-4.625" width="0.450" height="0.450" rx="0.225" fill="#c79b5c"/><rect x="-2.225" y="-4.625" width="0.450" height="0.450" rx="0.225" fill="#c79b5c"/><rect x="-1.425" y="-4.625" width="0.450" height="0.450" rx="0.225" fill="#c79b5c"/><rect x="-0.625" y="-4.625" width="0.450" height="0.450" rx="0.225" fill="#c79b5c"/><rect x="0.175" y="-4.625" width="0.450" height="0.450" rx="0.225" fill="#c79b5c"/><rect x="0.975" y="-4.625" width="0.450" height="0.450" rx="0.225" fill="#c79b5c"/><rect x="1.775" y="-4.625" width="0.450" height="0.450" rx="0.225" fill="#c79b5c"/><rect x="2.575" y="-4.625" width="0.450" height="0.450" rx="0.225" fill="#c79b5c"/><rect x="3.375" y="-4.625" width="0.450" height="0.450" rx="0.225" fill="#c79b5c"/><rect x="4.175" y="-4.625" width="0.450" height="0.450" rx="0.225" fill="#c79b5c"/><rect x="4.975" y="-4.625" width="0.450" height="0.450" rx="0.225" fill="#c79b5c"/><rect x="-5.425" y="-3.825" width="0.450" height="0.450" rx="0.225" fill="#c79b5c"/><rect x="-4.625" y="-3.825" width="0.450" height="0.450" rx="0.225" fill="#c79b5c"/><rect x="-3.825" y="-3.825" width="0.450" height="0.450" rx="0.225" fill="#c79b5c"/><rect x="-3.025" y="-3.825" width="0.450" height="0.450" rx="0.225" fill="#c79b5c"/><rect x="-2.225" y="-3.825" width="0.450" height="0.450" rx="0.225" fill="#c79b5c"/><rect x="-1.425" y="-3.825" width="0.450" height="0.450" rx="0.225" fill="#c79b5c"/><rect x="-0.625" y="-3.825" width="0.450" height="0.450" rx="0.225" fill="#c79b5c"/><rect x="0.175" y="-3.825" width="0.450" height="0.450" rx="0.225" fill="#c79b5c"/><rect x="0.975" y="-3.825" width="0.450" height="0.450" rx="0.225" fill="#c79b5c"/><rect x="1.775" y="-3.825" width="0.450" height="0.450" rx="0.225" fill="#c79b5c"/><rect x="2.575" y="-3.825" width="0.450" height="0.450" rx="0.225" fill="#c79b5c"/><rect x="3.375" y="-3.825" width="0.450" height="0.450" rx="0.225" fill="#c79b5c"/><rect x="4.175" y="-3.825" width="0.450" height="0.450" rx="0.225" fill="#c79b5c"/><rect x="4.975" y="-3.825" width="0.450" height="0.450" rx="0.225" fill="#c79b5c"/><rect x="-5.425" y="-3.025" width="0.450" height="0.450" rx="0.225" fill="#c79b5c"/><rect x="-4.625" y="-3.025" width="0.450" height="0.450" rx="0.225" fill="#c79b5c"/><rect x="-3.825" y="-3.025" width="0.450" height="0.450" rx="0.225" fill="#c79b5c"/><rect x="-3.025" y="-3.025" width="0.450" height="0.450" rx="0.225" fill="#c79b5c"/><rect x="-2.225" y="-3.025" width="0.450" height="0.450" rx="0.225" fill="#c79b5c"/><rect x="-1.425" y="-3.025" width="0.450" height="0.450" rx="0.225" fill="#c79b5c"/><rect x="-0.625" y="-3.025" width="0.450" height="0.450" rx="0.225" fill="#c79b5c"/><rect x="0.175" y="-3.025" width="0.450" height="0.450" rx="0.225" fill="#c79b5c"/><rect x="0.975" y="-3.025" width="0.450" height="0.450" rx="0.225" fill="#c79b5c"/><rect x="1.775" y="-3.025" width="0.450" height="0.450" rx="0.225" fill="#c79b5c"/><rect x="2.575" y="-3.025" width="0.450" height="0.450" rx="0.225" fill="#c79b5c"/><rect x="3.375" y="-3.025" width="0.450" height="0.450" rx="0.225" fill="#c79b5c"/><rect x="4.175" y="-3.025" width="0.450" height="0.450" rx="0.225" fill="#c79b5c"/><rect x="4.975" y="-3.025" width="0.450" height="0.450" rx="0.225" fill="#c79b5c"/><rect x="-5.425" y="-2.225" width="0.450" height="0.450" rx="0.225" fill="#c79b5c"/><rect x="-4.625" y="-2.225" width="0.450" height="0.450" rx="0.225" fill="#c79b5c"/><rect x="-3.825" y="-2.225" width="0.450" height="0.450" rx="0.225" fill="#c79b5c"/><rect x="-3.025" y="-2.225" width="0.450" height="0.450" rx="0.225" fill="#c79b5c"/><rect x="-2.225" y="-2.225" width="0.450" height="0.450" rx="0.225" fill="#c79b5c"/><rect x="-1.425" y="-2.225" width="0.450" height="0.450" rx="0.225" fill="#c79b5c"/><rect x="-0.625" y="-2.225" width="0.450" height="0.450" rx="0.225" fill="#c79b5c"/><rect x="0.175" y="-2.225" width="0.450" height="0.450" rx="0.225" fill="#c79b5c"/><rect x="0.975" y="-2.225" width="0.450" height="0.450" rx="0.225" fill="#c79b5c"/><rect x="1.775" y="-2.225" width="0.450" height="0.450" rx="0.225" fill="#c79b5c"/><rect x="2.575" y="-2.225" width="0.450" height="0.450" rx="0.225" fill="#c79b5c"/><rect x="3.375" y="-2.225" width="0.450" height="0.450" rx="0.225" fill="#c79b5c"/><rect x="4.175" y="-2.225" width="0.450" height="0.450" rx="0.225" fill="#c79b5c"/><rect x="4.975" y="-2.225" width="0.450" height="0.450" rx="0.225" fill="#c79b5c"/><rect x="-5.425" y="-1.425" width="0.450" height="0.450" rx="0.225" fill="#c79b5c"/><rect x="-4.625" y="-1.425" width="0.450" height="0.450" rx="0.225" fill="#c79b5c"/><rect x="-3.825" y="-1.425" width="0.450" height="0.450" rx="0.225" fill="#c79b5c"/><rect x="-3.025" y="-1.425" width="0.450" height="0.450" rx="0.225" fill="#c79b5c"/><rect x="-2.225" y="-1.425" width="0.450" height="0.450" rx="0.225" fill="#c79b5c"/><rect x="-1.425" y="-1.425" width="0.450" height="0.450" rx="0.225" fill="#c79b5c"/><rect x="-0.625" y="-1.425" width="0.450" height="0.450" rx="0.225" fill="#c79b5c"/><rect x="0.175" y="-1.425" width="0.450" height="0.450" rx="0.225" fill="#c79b5c"/><rect x="0.975" y="-1.425" width="0.450" height="0.450" rx="0.225" fill="#c79b5c"/><rect x="1.775" y="-1.425" width="0.450" height="0.450" rx="0.225" fill="#c79b5c"/><rect x="2.575" y="-1.425" width="0.450" height="0.450" rx="0.225" fill="#c79b5c"/><rect x="3.375" y="-1.425" width="0.450" height="0.450" rx="0.225" fill="#c79b5c"/><rect x="4.175" y="-1.425" width="0.450" height="0.450" rx="0.225" fill="#c79b5c"/><rect x="4.975" y="-1.425" width="0.450" height="0.450" rx="0.225" fill="#c79b5c"/><rect x="-5.425" y="-0.625" width="0.450" height="0.450" rx="0.225" fill="#c79b5c"/><rect x="-4.625" y="-0.625" width="0.450" height="0.450" rx="0.225" fill="#c79b5c"/><rect x="-3.825" y="-0.625" width="0.450" height="0.450" rx="0.225" fill="#c79b5c"/><rect x="-3.025" y="-0.625" width="0.450" height="0.450" rx="0.225" fill="#c79b5c"/><rect x="-2.225" y="-0.625" width="0.450" height="0.450" rx="0.225" fill="#c79b5c"/><rect x="-1.425" y="-0.625" width="0.450" height="0.450" rx="0.225" fill="#c79b5c"/><rect x="-0.625" y="-0.625" width="0.450" height="0.450" rx="0.225" fill="#c79b5c"/><rect x="0.175" y="-0.625" width="0.450" height="0.450" rx="0.225" fill="#c79b5c"/><rect x="0.975" y="-0.625" width="0.450" height="0.450" rx="0.225" fill="#c79b5c"/><rect x="1.775" y="-0.625" width="0.450" height="0.450" rx="0.225" fill="#c79b5c"/><rect x="2.575" y="-0.625" width="0.450" height="0.450" rx="0.225" fill="#c79b5c"/><rect x="3.375" y="-0.625" width="0.450" height="0.450" rx="0.225" fill="#c79b5c"/><rect x="4.175" y="-0.625" width="0.450" height="0.450" rx="0.225" fill="#c79b5c"/><rect x="4.975" y="-0.625" width="0.450" height="0.450" rx="0.225" fill="#c79b5c"/><rect x="-5.425" y="0.175" width="0.450" height="0.450" rx="0.225" fill="#c79b5c"/><rect x="-4.625" y="0.175" width="0.450" height="0.450" rx="0.225" fill="#c79b5c"/><rect x="-3.825" y="0.175" width="0.450" height="0.450" rx="0.225" fill="#c79b5c"/><rect x="-3.025" y="0.175" width="0.450" height="0.450" rx="0.225" fill="#c79b5c"/><rect x="-2.225" y="0.175" width="0.450" height="0.450" rx="0.225" fill="#c79b5c"/><rect x="-1.425" y="0.175" width="0.450" height="0.450" rx="0.225" fill="#c79b5c"/><rect x="-0.625" y="0.175" width="0.450" height="0.450" rx="0.225" fill="#c79b5c"/><rect x="0.175" y="0.175" width="0.450" height="0.450" rx="0.225" fill="#c79b5c"/><rect x="0.975" y="0.175" width="0.450" height="0.450" rx="0.225" fill="#c79b5c"/><rect x="1.775" y="0.175" width="0.450" height="0.450" rx="0.225" fill="#c79b5c"/><rect x="2.575" y="0.175" width="0.450" height="0.450" rx="0.225" fill="#c79b5c"/><rect x="3.375" y="0.175" width="0.450" height="0.450" rx="0.225" fill="#c79b5c"/><rect x="4.175" y="0.175" width="0.450" height="0.450" rx="0.225" fill="#c79b5c"/><rect x="4.975" y="0.175" width="0.450" height="0.450" rx="0.225" fill="#c79b5c"/><rect x="-5.425" y="0.975" width="0.450" height="0.450" rx="0.225" fill="#c79b5c"/><rect x="-4.625" y="0.975" width="0.450" height="0.450" rx="0.225" fill="#c79b5c"/><rect x="-3.825" y="0.975" width="0.450" height="0.450" rx="0.225" fill="#c79b5c"/><rect x="-3.025" y="0.975" width="0.450" height="0.450" rx="0.225" fill="#c79b5c"/><rect x="-2.225" y="0.975" width="0.450" height="0.450" rx="0.225" fill="#c79b5c"/><rect x="-1.425" y="0.975" width="0.450" height="0.450" rx="0.225" fill="#c79b5c"/><rect x="-0.625" y="0.975" width="0.450" height="0.450" rx="0.225" fill="#c79b5c"/><rect x="0.175" y="0.975" width="0.450" height="0.450" rx="0.225" fill="#c79b5c"/><rect x="0.975" y="0.975" width="0.450" height="0.450" rx="0.225" fill="#c79b5c"/><rect x="1.775" y="0.975" width="0.450" height="0.450" rx="0.225" fill="#c79b5c"/><rect x="2.575" y="0.975" width="0.450" height="0.450" rx="0.225" fill="#c79b5c"/><rect x="3.375" y="0.975" width="0.450" height="0.450" rx="0.225" fill="#c79b5c"/><rect x="4.175" y="0.975" width="0.450" height="0.450" rx="0.225" fill="#c79b5c"/><rect x="4.975" y="0.975" width="0.450" height="0.450" rx="0.225" fill="#c79b5c"/><rect x="-5.425" y="1.775" width="0.450" height="0.450" rx="0.225" fill="#c79b5c"/><rect x="-4.625" y="1.775" width="0.450" height="0.450" rx="0.225" fill="#c79b5c"/><rect x="-3.825" y="1.775" width="0.450" height="0.450" rx="0.225" fill="#c79b5c"/><rect x="-3.025" y="1.775" width="0.450" height="0.450" rx="0.225" fill="#c79b5c"/><rect x="-2.225" y="1.775" width="0.450" height="0.450" rx="0.225" fill="#c79b5c"/><rect x="-1.425" y="1.775" width="0.450" height="0.450" rx="0.225" fill="#c79b5c"/><rect x="-0.625" y="1.775" width="0.450" height="0.450" rx="0.225" fill="#c79b5c"/><rect x="0.175" y="1.775" width="0.450" height="0.450" rx="0.225" fill="#c79b5c"/><rect x="0.975" y="1.775" width="0.450" height="0.450" rx="0.225" fill="#c79b5c"/><rect x="1.775" y="1.775" width="0.450" height="0.450" rx="0.225" fill="#c79b5c"/><rect x="2.575" y="1.775" width="0.450" height="0.450" rx="0.225" fill="#c79b5c"/><rect x="3.375" y="1.775" width="0.450" height="0.450" rx="0.225" fill="#c79b5c"/><rect x="4.175" y="1.775" width="0.450" height="0.450" rx="0.225" fill="#c79b5c"/><rect x="4.975" y="1.775" width="0.450" height="0.450" rx="0.225" fill="#c79b5c"/><rect x="-5.425" y="2.575" width="0.450" height="0.450" rx="0.225" fill="#c79b5c"/><rect x="-4.625" y="2.575" width="0.450" height="0.450" rx="0.225" fill="#c79b5c"/><rect x="-3.825" y="2.575" width="0.450" height="0.450" rx="0.225" fill="#c79b5c"/><rect x="-3.025" y="2.575" width="0.450" height="0.450" rx="0.225" fill="#c79b5c"/><rect x="-2.225" y="2.575" width="0.450" height="0.450" rx="0.225" fill="#c79b5c"/><rect x="-1.425" y="2.575" width="0.450" height="0.450" rx="0.225" fill="#c79b5c"/><rect x="-0.625" y="2.575" width="0.450" height="0.450" rx="0.225" fill="#c79b5c"/><rect x="0.175" y="2.575" width="0.450" height="0.450" rx="0.225" fill="#c79b5c"/><rect x="0.975" y="2.575" width="0.450" height="0.450" rx="0.225" fill="#c79b5c"/><rect x="1.775" y="2.575" width="0.450" height="0.450" rx="0.225" fill="#c79b5c"/><rect x="2.575" y="2.575" width="0.450" height="0.450" rx="0.225" fill="#c79b5c"/><rect x="3.375" y="2.575" width="0.450" height="0.450" rx="0.225" fill="#c79b5c"/><rect x="4.175" y="2.575" width="0.450" height="0.450" rx="0.225" fill="#c79b5c"/><rect x="4.975" y="2.575" width="0.450" height="0.450" rx="0.225" fill="#c79b5c"/><rect x="-5.425" y="3.375" width="0.450" height="0.450" rx="0.225" fill="#c79b5c"/><rect x="-4.625" y="3.375" width="0.450" height="0.450" rx="0.225" fill="#c79b5c"/><rect x="-3.825" y="3.375" width="0.450" height="0.450" rx="0.225" fill="#c79b5c"/><rect x="-3.025" y="3.375" width="0.450" height="0.450" rx="0.225" fill="#c79b5c"/><rect x="-2.225" y="3.375" width="0.450" height="0.450" rx="0.225" fill="#c79b5c"/><rect x="-1.425" y="3.375" width="0.450" height="0.450" rx="0.225" fill="#c79b5c"/><rect x="-0.625" y="3.375" width="0.450" height="0.450" rx="0.225" fill="#c79b5c"/><rect x="0.175" y="3.375" width="0.450" height="0.450" rx="0.225" fill="#c79b5c"/><rect x="0.975" y="3.375" width="0.450" height="0.450" rx="0.225" fill="#c79b5c"/><rect x="1.775" y="3.375" width="0.450" height="0.450" rx="0.225" fill="#c79b5c"/><rect x="2.575" y="3.375" width="0.450" height="0.450" rx="0.225" fill="#c79b5c"/><rect x="3.375" y="3.375" width="0.450" height="0.450" rx="0.225" fill="#c79b5c"/><rect x="4.175" y="3.375" width="0.450" height="0.450" rx="0.225" fill="#c79b5c"/><rect x="4.975" y="3.375" width="0.450" height="0.450" rx="0.225" fill="#c79b5c"/><rect x="-5.425" y="4.175" width="0.450" height="0.450" rx="0.225" fill="#c79b5c"/><rect x="-4.625" y="4.175" width="0.450" height="0.450" rx="0.225" fill="#c79b5c"/><rect x="-3.825" y="4.175" width="0.450" height="0.450" rx="0.225" fill="#c79b5c"/><rect x="-3.025" y="4.175" width="0.450" height="0.450" rx="0.225" fill="#c79b5c"/><rect x="-2.225" y="4.175" width="0.450" height="0.450" rx="0.225" fill="#c79b5c"/><rect x="-1.425" y="4.175" width="0.450" height="0.450" rx="0.225" fill="#c79b5c"/><rect x="-0.625" y="4.175" width="0.450" height="0.450" rx="0.225" fill="#c79b5c"/><rect x="0.175" y="4.175" width="0.450" height="0.450" rx="0.225" fill="#c79b5c"/><rect x="0.975" y="4.175" width="0.450" height="0.450" rx="0.225" fill="#c79b5c"/><rect x="1.775" y="4.175" width="0.450" height="0.450" rx="0.225" fill="#c79b5c"/><rect x="2.575" y="4.175" width="0.450" height="0.450" rx="0.225" fill="#c79b5c"/><rect x="3.375" y="4.175" width="0.450" height="0.450" rx="0.225" fill="#c79b5c"/><rect x="4.175" y="4.175" width="0.450" height="0.450" rx="0.225" fill="#c79b5c"/><rect x="4.975" y="4.175" width="0.450" height="0.450" rx="0.225" fill="#c79b5c"/><rect x="-5.425" y="4.975" width="0.450" height="0.450" rx="0.225" fill="#c79b5c"/><rect x="-4.625" y="4.975" width="0.450" height="0.450" rx="0.225" fill="#c79b5c"/><rect x="-3.825" y="4.975" width="0.450" height="0.450" rx="0.225" fill="#c79b5c"/><rect x="-3.025" y="4.975" width="0.450" height="0.450" rx="0.225" fill="#c79b5c"/><rect x="-2.225" y="4.975" width="0.450" height="0.450" rx="0.225" fill="#c79b5c"/><rect x="-1.425" y="4.975" width="0.450" height="0.450" rx="0.225" fill="#c79b5c"/><rect x="-0.625" y="4.975" width="0.450" height="0.450" rx="0.225" fill="#c79b5c"/><rect x="0.175" y="4.975" width="0.450" height="0.450" rx="0.225" fill="#c79b5c"/><rect x="0.975" y="4.975" width="0.450" height="0.450" rx="0.225" fill="#c79b5c"/><rect x="1.775" y="4.975" width="0.450" height="0.450" rx="0.225" fill="#c79b5c"/><rect x="2.575" y="4.975" width="0.450" height="0.450" rx="0.225" fill="#c79b5c"/><rect x="3.375" y="4.975" width="0.450" height="0.450" rx="0.225" fill="#c79b5c"/><rect x="4.175" y="4.975" width="0.450" height="0.450" rx="0.225" fill="#c79b5c"/><rect x="4.975" y="4.975" width="0.450" height="0.450" rx="0.225" fill="#c79b5c"/></svg>