<svg xmlns="http://www.w3.org/2000/svg" viewBox="-5.10 -5.25 10.20 10.50" preserveAspectRatio="xMidYMid meet" style="width:100%;height:100%"><rect x="-5.10" y="-5.25" width="10.20" height="10.50" fill="#12151c"/><line x1="-3.850" y1="-4.000" x2="3.850" y2="-4.000" stroke="#e6e9ef" stroke-width="0.200" stroke-linecap="round" opacity="1"/><line x1="-3.850" y1="4.000" x2="-3.850" y2="-4.000" stroke="#e6e9ef" stroke-width="0.200" stroke-linecap="round" opacity="1"/><line x1="-3.850" y1="4.000" x2="3.850" y2="4.000" stroke="#e6e9ef" stroke-width="0.200" stroke-linecap="round" opacity="1"/><line x1="3.850" y1="4.000" x2="3.850" y2="-4.000" stroke="#e6e9ef" stroke-width="0.200" stroke-linecap="round" opacity="1"/><line x1="-3.100" y1="-3.250" x2="-1.470" y2="-3.250" stroke="#4a5160" stroke-width="0.100" stroke-linecap="round" opacity="0.7"/><line x1="-3.100" y1="3.250" x2="-3.100" y2="-3.250" stroke="#4a5160" stroke-width="0.100" stroke-linecap="round" opacity="0.7"/><line x1="-3.100" y1="3.250" x2="-1.470" y2="3.250" stroke="#4a5160" stroke-width="0.100" stroke-linecap="round" opacity="0.7"/><line x1="-2.785" y1="0.000" x2="-2.285" y2="0.000" stroke="#4a5160" stroke-width="0.100" stroke-linecap="round" opacity="0.7"/><line x1="-2.285" y1="0.000" x2="-2.285" y2="-0.500" stroke="#4a5160" stroke-width="0.100" stroke-linecap="round" opacity="0.7"/><line x1="-2.285" y1="0.000" x2="-1.785" y2="0.000" stroke="#4a5160" stroke-width="0.100" stroke-linecap="round" opacity="0.7"/><line x1="-2.285" y1="0.500" x2="-2.285" y2="0.000" stroke="#4a5160" stroke-width="0.100" stroke-linecap="round" opacity="0.7"/><line x1="-1.470" y1="3.250" x2="-1.470" y2="-3.250" stroke="#4a5160" stroke-width="0.100" stroke-linecap="round" opacity="0.7"/><line x1="-0.500" y1="0.000" x2="0.000" y2="0.000" stroke="#4a5160" stroke-width="0.100" stroke-linecap="round" opacity="0.7"/><line x1="0.000" y1="0.000" x2="0.000" y2="-0.500" stroke="#4a5160" stroke-width="0.100" stroke-linecap="round" opacity="0.7"/><line x1="0.000" y1="0.000" x2="0.500" y2="0.000" stroke="#4a5160" stroke-width="0.100" stroke-linecap="round" opacity="0.7"/><line x1="0.000" y1="0.500" x2="0.000" y2="0.000" stroke="#4a5160" stroke-width="0.100" stroke-linecap="round" opacity="0.7"/><line x1="1.470" y1="-3.250" x2="3.100" y2="-3.250" stroke="#4a5160" stroke-width="0.100" stroke-linecap="round" opacity="0.7"/><line x1="1.470" y1="3.250" x2="1.470" y2="-3.250" stroke="#4a5160" stroke-width="0.100" stroke-linecap="round" opacity="0.7"/><line x1="1.470" y1="3.250" x2="3.100" y2="3.250" stroke="#4a5160" stroke-width="0.100" stroke-linecap="round" opacity="0.7"/><line x1="1.785" y1="0.000" x2="2.285" y2="0.000" stroke="#4a5160" stroke-width="0.100" stroke-linecap="round" opacity="0.7"/><line x1="2.285" y1="0.000" x2="2.285" y2="-0.500" stroke="#4a5160" stroke-width="0.100" stroke-linecap="round" opacity="0.7"/><line x1="2.285" y1="0.000" x2="2.785" y2="0.000" stroke="#4a5160" stroke-width="0.100" stroke-linecap="round" opacity="0.7"/><line x1="2.285" y1="0.500" x2="2.285" y2="0.000" stroke="#4a5160" stroke-width="0.100" stroke-linecap="round" opacity="0.7"/><line x1="3.100" y1="3.250" x2="3.100" y2="-3.250" stroke="#4a5160" stroke-width="0.100" stroke-linecap="round" opacity="0.7"/><line x1="-4.100" y1="-4.250" x2="4.100" y2="-4.250" stroke="#d24d4d" stroke-width="0.080" stroke-linecap="round" opacity="0.7"/><line x1="-4.100" y1="4.250" x2="-4.100" y2="-4.250" stroke="#d24d4d" stroke-width="0.080" stroke-linecap="round" opacity="0.7"/><line x1="-4.100" y1="4.250" x2="4.100" y2="4.250" stroke="#d24d4d" stroke-width="0.080" stroke-linecap="round" opacity="0.7"/><line x1="4.100" y1="4.250" x2="4.100" y2="-4.250" stroke="#d24d4d" stroke-width="0.080" stroke-linecap="round" opacity="0.7"/><line x1="-3.850" y1="-4.000" x2="3.850" y2="-4.000" stroke="#6b7280" stroke-width="0.100" stroke-linecap="round" opacity="0.8"/><line x1="-3.850" y1="4.000" x2="-3.850" y2="-4.000" stroke="#6b7280" stroke-width="0.100" stroke-linecap="round" opacity="0.8"/><line x1="-3.850" y1="4.000" x2="3.850" y2="4.000" stroke="#6b7280" stroke-width="0.100" stroke-linecap="round" opacity="0.8"/><line x1="3.850" y1="4.000" x2="3.850" y2="-4.000" stroke="#6b7280" stroke-width="0.100" stroke-linecap="round" opacity="0.8"/><rect x="-3.100" y="-3.250" width="1.630" height="6.500" rx="0.000" fill="#c79b5c"/><rect x="1.470" y="-3.250" width="1.630" height="6.500" rx="0.000" fill="#c79b5c"/><polygon points="-2.74,4.30 -1.84,4.30 -2.29,3.70" fill="#ffffff"/></svg>