<svg xmlns="http://www.w3.org/2000/svg" viewBox="-5.00 -9.19 30.79 18.31" preserveAspectRatio="xMidYMid meet" style="width:100%;height:100%"><rect x="-5.00" y="-9.19" width="30.79" height="18.31" fill="#12151c"/><line x1="-3.490" y1="-8.190" x2="24.790" y2="-8.190" stroke="#d24d4d" stroke-width="0.080" stroke-linecap="round" opacity="0.7"/><line x1="24.790" y1="-8.190" x2="24.790" y2="8.120" stroke="#d24d4d" stroke-width="0.080" stroke-linecap="round" opacity="0.7"/><line x1="24.790" y1="8.120" x2="-3.490" y2="8.120" stroke="#d24d4d" stroke-width="0.080" stroke-linecap="round" opacity="0.7"/><line x1="-3.490" y1="8.120" x2="-3.490" y2="-8.190" stroke="#d24d4d" stroke-width="0.080" stroke-linecap="round" opacity="0.7"/><path d="M 3.544 1.854 A 4.000 4.000 0 1 1 3.476 -1.979" fill="none" stroke="#e6e9ef" stroke-width="0.12" opacity="1"/><path d="M 7.540 -0.562 A 0.500 0.500 0 0 1 8.040 -1.062" fill="none" stroke="#e6e9ef" stroke-width="0.12" opacity="1"/><path d="M 8.040 0.938 A 0.500 0.500 0 0 1 7.540 0.438" fill="none" stroke="#e6e9ef" stroke-width="0.12" opacity="1"/><path d="M 21.390 1.197 A 0.231 0.231 0 0 1 21.620 0.966" fill="none" stroke="#e6e9ef" stroke-width="0.12" opacity="1"/><path d="M 21.620 -1.034 A 0.231 0.231 0 0 1 21.390 -1.265" fill="none" stroke="#e6e9ef" stroke-width="0.12" opacity="1"/><path d="M -2.540 0.300 A 0.300 0.300 0 0 1 -2.540 -0.300" fill="none" stroke="#6b7280" stroke-width="0.12" opacity="0.8"/><path d="M -0.300 1.566 A 0.311 0.311 0 0 1 0.011 1.254" fill="none" stroke="#6b7280" stroke-width="0.12" opacity="0.8"/><path d="M -0.300 -2.478 A 0.300 0.300 0 0 1 0.300 -2.478" fill="none" stroke="#6b7280" stroke-width="0.12" opacity="0.8"/><path d="M 0.011 -1.379 A 0.311 0.311 0 0 1 -0.300 -1.691" fill="none" stroke="#6b7280" stroke-width="0.12" opacity="0.8"/><path d="M 0.299 2.478 A 0.300 0.300 0 0 1 -0.300 2.478" fill="none" stroke="#6b7280" stroke-width="0.12" opacity="0.8"/><path d="M 2.240 0.948 A 0.311 0.311 0 0 1 2.551 0.637" fill="none" stroke="#6b7280" stroke-width="0.12" opacity="0.8"/><path d="M 2.551 -0.761 A 0.311 0.311 0 0 1 2.240 -1.073" fill="none" stroke="#6b7280" stroke-width="0.12" opacity="0.8"/><path d="M 3.544 1.854 A 4.000 4.000 0 1 1 3.476 -1.979" fill="none" stroke="#6b7280" stroke-width="0.12" opacity="0.8"/><path d="M 7.540 -0.562 A 0.500 0.500 0 0 1 8.040 -1.062" fill="none" stroke="#6b7280" stroke-width="0.12" opacity="0.8"/><path d="M 8.040 0.938 A 0.500 0.500 0 0 1 7.540 0.438" fill="none" stroke="#6b7280" stroke-width="0.12" opacity="0.8"/><path d="M 21.390 1.197 A 0.231 0.231 0 0 1 21.620 0.966" fill="none" stroke="#6b7280" stroke-width="0.12" opacity="0.8"/><path d="M 21.620 -1.034 A 0.231 0.231 0 0 1 21.390 -1.265" fill="none" stroke="#6b7280" stroke-width="0.12" opacity="0.8"/><rect x="-3.240" y="-0.700" width="1.400" height="1.400" rx="0.700" fill="#c79b5c"/><circle cx="-2.540" cy="0.000" r="0.350" fill="#12151c"/><rect x="-0.700" y="1.840" width="1.400" height="1.400" rx="0.700" fill="#c79b5c"/><circle cx="0.000" cy="2.540" r="0.350" fill="#12151c"/><rect x="1.840" y="0.570" width="1.400" height="1.400" rx="0.700" fill="#c79b5c"/><circle cx="2.540" cy="1.270" r="0.350" fill="#12151c"/><rect x="1.840" y="-1.970" width="1.400" height="1.400" rx="0.700" fill="#c79b5c"/><circle cx="2.540" cy="-1.270" r="0.350" fill="#12151c"/><rect x="-0.700" y="-3.240" width="1.400" height="1.400" rx="0.700" fill="#c79b5c"/><circle cx="0.000" cy="-2.540" r="0.350" fill="#12151c"/></svg>