<svg xmlns="http://www.w3.org/2000/svg" viewBox="-17.35 -17.35 34.70 34.70" preserveAspectRatio="xMidYMid meet" style="width:100%;height:100%"><rect x="-17.35" y="-17.35" width="34.70" height="34.70" fill="#12151c"/><line x1="-13.850" y1="-13.850" x2="13.850" y2="-13.850" stroke="#e6e9ef" stroke-width="0.200" stroke-linecap="round" opacity="1"/><line x1="-13.850" y1="13.850" x2="-13.850" y2="-13.850" stroke="#e6e9ef" stroke-width="0.200" stroke-linecap="round" opacity="1"/><line x1="-13.850" y1="13.850" x2="13.850" y2="13.850" stroke="#e6e9ef" stroke-width="0.200" stroke-linecap="round" opacity="1"/><line x1="13.850" y1="13.850" x2="13.850" y2="-13.850" stroke="#e6e9ef" stroke-width="0.200" stroke-linecap="round" opacity="1"/><line x1="-16.350" y1="-16.350" x2="16.350" y2="-16.350" stroke="#d24d4d" stroke-width="0.080" stroke-linecap="round" opacity="0.7"/><line x1="-16.350" y1="16.350" x2="-16.350" y2="-16.350" stroke="#d24d4d" stroke-width="0.080" stroke-linecap="round" opacity="0.7"/><line x1="-16.350" y1="16.350" x2="16.350" y2="16.350" stroke="#d24d4d" stroke-width="0.080" stroke-linecap="round" opacity="0.7"/><line x1="16.350" y1="16.350" x2="16.350" y2="-16.350" stroke="#d24d4d" stroke-width="0.080" stroke-linecap="round" opacity="0.7"/><line x1="-14.000" y1="-14.000" x2="14.000" y2="-14.000" stroke="#6b7280" stroke-width="0.100" stroke-linecap="round" opacity="0.8"/><line x1="-14.000" y1="14.000" x2="-14.000" y2="-14.000" stroke="#6b7280" stroke-width="0.100" stroke-linecap="round" opacity="0.8"/><line x1="-14.000" y1="14.000" x2="14.000" y2="14.000" stroke="#6b7280" stroke-width="0.100" stroke-linecap="round" opacity="0.8"/><line x1="14.000" y1="14.000" x2="14.000" y2="-14.000" stroke="#6b7280" stroke-width="0.100" stroke-linecap="round" opacity="0.8"/><circle cx="-15.850" cy="-13.400" r="0.125" fill="none" stroke="#e6e9ef" stroke-width="0.12" opacity="1"/><circle cx="-12.950" cy="-12.950" r="0.250" fill="none" stroke="#e6e9ef" stroke-width="0.12" opacity="1"/><circle cx="-13.000" cy="-13.000" r="0.500" fill="none" stroke="#6b7280" stroke-width="0.12" opacity="0.8"/><rect x="-16.100" y="-12.900" width="1.900" height="0.450" rx="0.000" fill="#c79b5c"/><rect x="-16.100" y="-12.250" width="1.900" height="0.450" rx="0.000" fill="#c79b5c"/><rect x="-16.100" y="-11.600" width="1.900" height="0.450" rx="0.000" fill="#c79b5c"/><rect x="-16.100" y="-10.950" width="1.900" height="0.450" rx="0.000" fill="#c79b5c"/><rect x="-16.100" y="-10.300" width="1.900" height="0.450" rx="0.000" fill="#c79b5c"/><rect x="-16.100" y="-9.650" width="1.900" height="0.450" rx="0.000" fill="#c79b5c"/><rect x="-16.100" y="-9.000" width="1.900" height="0.450" rx="0.000" fill="#c79b5c"/><rect x="-16.100" y="-8.350" width="1.900" height="0.450" rx="0.000" fill="#c79b5c"/><rect x="-16.100" y="-7.700" width="1.900" height="0.450" rx="0.000" fill="#c79b5c"/><rect x="-16.100" y="-7.050" width="1.900" height="0.450" rx="0.000" fill="#c79b5c"/><rect x="-16.100" y="-6.400" width="1.900" height="0.450" rx="0.000" fill="#c79b5c"/><rect x="-16.100" y="-5.750" width="1.900" height="0.450" rx="0.000" fill="#c79b5c"/><rect x="-16.100" y="-5.100" width="1.900" height="0.450" rx="0.000" fill="#c79b5c"/><rect x="-16.100" y="-4.450" width="1.900" height="0.450" rx="0.000" fill="#c79b5c"/><rect x="-16.100" y="-3.800" width="1.900" height="0.450" rx="0.000" fill="#c79b5c"/><rect x="-16.100" y="-3.150" width="1.900" height="0.450" rx="0.000" fill="#c79b5c"/><rect x="-16.100" y="-2.500" width="1.900" height="0.450" rx="0.000" fill="#c79b5c"/><rect x="-16.100" y="-1.850" width="1.900" height="0.450" rx="0.000" fill="#c79b5c"/><rect x="-16.100" y="-1.200" width="1.900" height="0.450" rx="0.000" fill="#c79b5c"/><rect x="-16.100" y="-0.550" width="1.900" height="0.450" rx="0.000" fill="#c79b5c"/><rect x="-16.100" y="0.100" width="1.900" height="0.450" rx="0.000" fill="#c79b5c"/><rect x="-16.100" y="0.750" width="1.900" height="0.450" rx="0.000" fill="#c79b5c"/><rect x="-16.100" y="1.400" width="1.900" height="0.450" rx="0.000" fill="#c79b5c"/><rect x="-16.100" y="2.050" width="1.900" height="0.450" rx="0.000" fill="#c79b5c"/><rect x="-16.100" y="2.700" width="1.900" height="0.450" rx="0.000" fill="#c79b5c"/><rect x="-16.100" y="3.350" width="1.900" height="0.450" rx="0.000" fill="#c79b5c"/><rect x="-16.100" y="4.000" width="1.900" height="0.450" rx="0.000" fill="#c79b5c"/><rect x="-16.100" y="4.650" width="1.900" height="0.450" rx="0.000" fill="#c79b5c"/><rect x="-16.100" y="5.300" width="1.900" height="0.450" rx="0.000" fill="#c79b5c"/><rect x="-16.100" y="5.950" width="1.900" height="0.450" rx="0.000" fill="#c79b5c"/><rect x="-16.100" y="6.600" width="1.900" height="0.450" rx="0.000" fill="#c79b5c"/><rect x="-16.100" y="7.250" width="1.900" height="0.450" rx="0.000" fill="#c79b5c"/><rect x="-16.100" y="7.900" width="1.900" height="0.450" rx="0.000" fill="#c79b5c"/><rect x="-16.100" y="8.550" width="1.900" height="0.450" rx="0.000" fill="#c79b5c"/><rect x="-16.100" y="9.200" width="1.900" height="0.450" rx="0.000" fill="#c79b5c"/><rect x="-16.100" y="9.850" width="1.900" height="0.450" rx="0.000" fill="#c79b5c"/><rect x="-16.100" y="10.500" width="1.900" height="0.450" rx="0.000" fill="#c79b5c"/><rect x="-16.100" y="11.150" width="1.900" height="0.450" rx="0.000" fill="#c79b5c"/><rect x="-16.100" y="11.800" width="1.900" height="0.450" rx="0.000" fill="#c79b5c"/><rect x="-16.100" y="12.450" width="1.900" height="0.450" rx="0.000" fill="#c79b5c"/><rect x="-13.625" y="14.925" width="1.900" height="0.450" rx="0.000" fill="#c79b5c"/><rect x="-12.975" y="14.925" width="1.900" height="0.450" rx="0.000" fill="#c79b5c"/><rect x="-12.325" y="14.925" width="1.900" height="0.450" rx="0.000" fill="#c79b5c"/><rect x="-11.675" y="14.925" width="1.900" height="0.450" rx="0.000" fill="#c79b5c"/><rect x="-11.025" y="14.925" width="1.900" height="0.450" rx="0.000" fill="#c79b5c"/><rect x="-10.375" y="14.925" width="1.900" height="0.450" rx="0.000" fill="#c79b5c"/><rect x="-9.725" y="14.925" width="1.900" height="0.450" rx="0.000" fill="#c79b5c"/><rect x="-9.075" y="14.925" width="1.900" height="0.450" rx="0.000" fill="#c79b5c"/><rect x="-8.425" y="14.925" width="1.900" height="0.450" rx="0.000" fill="#c79b5c"/><rect x="-7.775" y="14.925" width="1.900" height="0.450" rx="0.000" fill="#c79b5c"/><rect x="-7.125" y="14.925" width="1.900" height="0.450" rx="0.000" fill="#c79b5c"/><rect x="-6.475" y="14.925" width="1.900" height="0.450" rx="0.000" fill="#c79b5c"/><rect x="-5.825" y="14.925" width="1.900" height="0.450" rx="0.000" fill="#c79b5c"/><rect x="-5.175" y="14.925" width="1.900" height="0.450" rx="0.000" fill="#c79b5c"/><rect x="-4.525" y="14.925" width="1.900" height="0.450" rx="0.000" fill="#c79b5c"/><rect x="-3.875" y="14.925" width="1.900" height="0.450" rx="0.000" fill="#c79b5c"/><rect x="-3.225" y="14.925" width="1.900" height="0.450" rx="0.000" fill="#c79b5c"/><rect x="-2.575" y="14.925" width="1.900" height="0.450" rx="0.000" fill="#c79b5c"/><rect x="-1.925" y="14.925" width="1.900" height="0.450" rx="0.000" fill="#c79b5c"/><rect x="-1.275" y="14.925" width="1.900" height="0.450" rx="0.000" fill="#c79b5c"/><rect x="-0.625" y="14.925" width="1.900" height="0.450" rx="0.000" fill="#c79b5c"/><rect x="0.025" y="14.925" width="1.900" height="0.450" rx="0.000" fill="#c79b5c"/><rect x="0.675" y="14.925" width="1.900" height="0.450" rx="0.000" fill="#c79b5c"/><rect x="1.325" y="14.925" width="1.900" height="0.450" rx="0.000" fill="#c79b5c"/><rect x="1.975" y="14.925" width="1.900" height="0.450" rx="0.000" fill="#c79b5c"/><rect x="2.625" y="14.925" width="1.900" height="0.450" rx="0.000" fill="#c79b5c"/><rect x="3.275" y="14.925" width="1.900" height="0.450" rx="0.000" fill="#c79b5c"/><rect x="3.925" y="14.925" width="1.900" height="0.450" rx="0.000" fill="#c79b5c"/><rect x="4.575" y="14.925" width="1.900" height="0.450" rx="0.000" fill="#c79b5c"/><rect x="5.225" y="14.925" width="1.900" height="0.450" rx="0.000" fill="#c79b5c"/><rect x="5.875" y="14.925" width="1.900" height="0.450" rx="0.000" fill="#c79b5c"/><rect x="6.525" y="14.925" width="1.900" height="0.450" rx="0.000" fill="#c79b5c"/><rect x="7.175" y="14.925" width="1.900" height="0.450" rx="0.000" fill="#c79b5c"/><rect x="7.825" y="14.925" width="1.900" height="0.450" rx="0.000" fill="#c79b5c"/><rect x="8.475" y="14.925" width="1.900" height="0.450" rx="0.000" fill="#c79b5c"/><rect x="9.125" y="14.925" width="1.900" height="0.450" rx="0.000" fill="#c79b5c"/><rect x="9.775" y="14.925" width="1.900" height="0.450" rx="0.000" fill="#c79b5c"/><rect x="10.425" y="14.925" width="1.900" height="0.450" rx="0.000" fill="#c79b5c"/><rect x="11.075" y="14.925" width="1.900" height="0.450" rx="0.000" fill="#c79b5c"/><rect x="11.725" y="14.925" width="1.900" height="0.450" rx="0.000" fill="#c79b5c"/><rect x="14.200" y="12.450" width="1.900" height="0.450" rx="0.000" fill="#c79b5c"/><rect x="14.200" y="11.800" width="1.900" height="0.450" rx="0.000" fill="#c79b5c"/><rect x="14.200" y="11.150" width="1.900" height="0.450" rx="0.000" fill="#c79b5c"/><rect x="14.200" y="10.500" width="1.900" height="0.450" rx="0.000" fill="#c79b5c"/><rect x="14.200" y="9.850" width="1.900" height="0.450" rx="0.000" fill="#c79b5c"/><rect x="14.200" y="9.200" width="1.900" height="0.450" rx="0.000" fill="#c79b5c"/><rect x="14.200" y="8.550" width="1.900" height="0.450" rx="0.000" fill="#c79b5c"/><rect x="14.200" y="7.900" width="1.900" height="0.450" rx="0.000" fill="#c79b5c"/><rect x="14.200" y="7.250" width="1.900" height="0.450" rx="0.000" fill="#c79b5c"/><rect x="14.200" y="6.600" width="1.900" height="0.450" rx="0.000" fill="#c79b5c"/><rect x="14.200" y="5.950" width="1.900" height="0.450" rx="0.000" fill="#c79b5c"/><rect x="14.200" y="5.300" width="1.900" height="0.450" rx="0.000" fill="#c79b5c"/><rect x="14.200" y="4.650" width="1.900" height="0.450" rx="0.000" fill="#c79b5c"/><rect x="14.200" y="4.000" width="1.900" height="0.450" rx="0.000" fill="#c79b5c"/><rect x="14.200" y="3.350" width="1.900" height="0.450" rx="0.000" fill="#c79b5c"/><rect x="14.200" y="2.700" width="1.900" height="0.450" rx="0.000" fill="#c79b5c"/><rect x="14.200" y="2.050" width="1.900" height="0.450" rx="0.000" fill="#c79b5c"/><rect x="14.200" y="1.400" width="1.900" height="0.450" rx="0.000" fill="#c79b5c"/><rect x="14.200" y="0.750" width="1.900" height="0.450" rx="0.000" fill="#c79b5c"/><rect x="14.200" y="0.100" width="1.900" height="0.450" rx="0.000" fill="#c79b5c"/><rect x="14.200" y="-0.550" width="1.900" height="0.450" rx="0.000" fill="#c79b5c"/><rect x="14.200" y="-1.200" width="1.900" height="0.450" rx="0.000" fill="#c79b5c"/><rect x="14.200" y="-1.850" width="1.900" height="0.450" rx="0.000" fill="#c79b5c"/><rect x="14.200" y="-2.500" width="1.900" height="0.450" rx="0.000" fill="#c79b5c"/><rect x="14.200" y="-3.150" width="1.900" height="0.450" rx="0.000" fill="#c79b5c"/><rect x="14.200" y="-3.800" width="1.900" height="0.450" rx="0.000" fill="#c79b5c"/><rect x="14.200" y="-4.450" width="1.900" height="0.450" rx="0.000" fill="#c79b5c"/><rect x="14.200" y="-5.100" width="1.900" height="0.450" rx="0.000" fill="#c79b5c"/><rect x="14.200" y="-5.750" width="1.900" height="0.450" rx="0.000" fill="#c79b5c"/><rect x="14.200" y="-6.400" width="1.900" height="0.450" rx="0.000" fill="#c79b5c"/><rect x="14.200" y="-7.050" width="1.900" height="0.450" rx="0.000" fill="#c79b5c"/><rect x="14.200" y="-7.700" width="1.900" height="0.450" rx="0.000" fill="#c79b5c"/><rect x="14.200" y="-8.350" width="1.900" height="0.450" rx="0.000" fill="#c79b5c"/><rect x="14.200" y="-9.000" width="1.900" height="0.450" rx="0.000" fill="#c79b5c"/><rect x="14.200" y="-9.650" width="1.900" height="0.450" rx="0.000" fill="#c79b5c"/><rect x="14.200" y="-10.300" width="1.900" height="0.450" rx="0.000" fill="#c79b5c"/><rect x="14.200" y="-10.950" width="1.900" height="0.450" rx="0.000" fill="#c79b5c"/><rect x="14.200" y="-11.600" width="1.900" height="0.450" rx="0.000" fill="#c79b5c"/><rect x="14.200" y="-12.250" width="1.900" height="0.450" rx="0.000" fill="#c79b5c"/><rect x="14.200" y="-12.900" width="1.900" height="0.450" rx="0.000" fill="#c79b5c"/><rect x="11.725" y="-15.375" width="1.900" height="0.450" rx="0.000" fill="#c79b5c"/><rect x="11.075" y="-15.375" width="1.900" height="0.450" rx="0.000" fill="#c79b5c"/><rect x="10.425" y="-15.375" width="1.900" height="0.450" rx="0.000" fill="#c79b5c"/><rect x="9.775" y="-15.375" width="1.900" height="0.450" rx="0.000" fill="#c79b5c"/><rect x="9.125" y="-15.375" width="1.900" height="0.450" rx="0.000" fill="#c79b5c"/><rect x="8.475" y="-15.375" width="1.900" height="0.450" rx="0.000" fill="#c79b5c"/><rect x="7.825" y="-15.375" width="1.900" height="0.450" rx="0.000" fill="#c79b5c"/><rect x="7.175" y="-15.375" width="1.900" height="0.450" rx="0.000" fill="#c79b5c"/><rect x="6.525" y="-15.375" width="1.900" height="0.450" rx="0.000" fill="#c79b5c"/><rect x="5.875" y="-15.375" width="1.900" height="0.450" rx="0.000" fill="#c79b5c"/><rect x="5.225" y="-15.375" width="1.900" height="0.450" rx="0.000" fill="#c79b5c"/><rect x="4.575" y="-15.375" width="1.900" height="0.450" rx="0.000" fill="#c79b5c"/><rect x="3.925" y="-15.375" width="1.900" height="0.450" rx="0.000" fill="#c79b5c"/><rect x="3.275" y="-15.375" width="1.900" height="0.450" rx="0.000" fill="#c79b5c"/><rect x="2.625" y="-15.375" width="1.900" height="0.450" rx="0.000" fill="#c79b5c"/><rect x="1.975" y="-15.375" width="1.900" height="0.450" rx="0.000" fill="#c79b5c"/><rect x="1.325" y="-15.375" width="1.900" height="0.450" rx="0.000" fill="#c79b5c"/><rect x="0.675" y="-15.375" width="1.900" height="0.450" rx="0.000" fill="#c79b5c"/><rect x="0.025" y="-15.375" width="1.900" height="0.450" rx="0.000" fill="#c79b5c"/><rect x="-0.625" y="-15.375" width="1.900" height="0.450" rx="0.000" fill="#c79b5c"/><rect x="-1.275" y="-15.375" width="1.900" height="0.450" rx="0.000" fill="#c79b5c"/><rect x="-1.925" y="-15.375" width="1.900" height="0.450" rx="0.000" fill="#c79b5c"/><rect x="-2.575" y="-15.375" width="1.900" height="0.450" rx="0.000" fill="#c79b5c"/><rect x="-3.225" y="-15.375" width="1.900" height="0.450" rx="0.000" fill="#c79b5c"/><rect x="-3.875" y="-15.375" width="1.900" height="0.450" rx="0.000" fill="#c79b5c"/><rect x="-4.525" y="-15.375" width="1.900" height="0.450" rx="0.000" fill="#c79b5c"/><rect x="-5.175" y="-15.375" width="1.900" height="0.450" rx="0.000" fill="#c79b5c"/><rect x="-5.825" y="-15.375" width="1.900" height="0.450" rx="0.000" fill="#c79b5c"/><rect x="-6.475" y="-15.375" width="1.900" height="0.450" rx="0.000" fill="#c79b5c"/><rect x="-7.125" y="-15.375" width="1.900" height="0.450" rx="0.000" fill="#c79b5c"/><rect x="-7.775" y="-15.375" width="1.900" height="0.450" rx="0.000" fill="#c79b5c"/><rect x="-8.425" y="-15.375" width="1.900" height="0.450" rx="0.000" fill="#c79b5c"/><rect x="-9.075" y="-15.375" width="1.900" height="0.450" rx="0.000" fill="#c79b5c"/><rect x="-9.725" y="-15.375" width="1.900" height="0.450" rx="0.000" fill="#c79b5c"/><rect x="-10.375" y="-15.375" width="1.900" height="0.450" rx="0.000" fill="#c79b5c"/><rect x="-11.025" y="-15.375" width="1.900" height="0.450" rx="0.000" fill="#c79b5c"/><rect x="-11.675" y="-15.375" width="1.900" height="0.450" rx="0.000" fill="#c79b5c"/><rect x="-12.325" y="-15.375" width="1.900" height="0.450" rx="0.000" fill="#c79b5c"/><rect x="-12.975" y="-15.375" width="1.900" height="0.450" rx="0.000" fill="#c79b5c"/><rect x="-13.625" y="-15.375" width="1.900" height="0.450" rx="0.000" fill="#c79b5c"/></svg>