<svg xmlns="http://www.w3.org/2000/svg" viewBox="-4.08 -3.15 7.45 6.30" preserveAspectRatio="xMidYMid meet" style="width:100%;height:100%"><rect x="-4.08" y="-3.15" width="7.45" height="6.30" fill="#12151c"/><circle cx="-2.950" cy="-1.250" r="0.125" fill="none" stroke="#e6e9ef" stroke-width="0.12" opacity="1"/><rect x="-2.375" y="-1.400" width="0.750" height="0.300" rx="0.000" fill="#c79b5c"/><rect x="-2.375" y="-0.900" width="0.750" height="0.300" rx="0.000" fill="#c79b5c"/><rect x="-2.375" y="-0.400" width="0.750" height="0.300" rx="0.000" fill="#c79b5c"/><rect x="-2.375" y="0.100" width="0.750" height="0.300" rx="0.000" fill="#c79b5c"/><rect x="-2.375" y="0.600" width="0.750" height="0.300" rx="0.000" fill="#c79b5c"/><rect x="-2.375" y="1.100" width="0.750" height="0.300" rx="0.000" fill="#c79b5c"/><rect x="-1.625" y="1.850" width="0.750" height="0.300" rx="0.000" fill="#c79b5c"/><rect x="-1.125" y="1.850" width="0.750" height="0.300" rx="0.000" fill="#c79b5c"/><rect x="-0.625" y="1.850" width="0.750" height="0.300" rx="0.000" fill="#c79b5c"/><rect x="-0.125" y="1.850" width="0.750" height="0.300" rx="0.000" fill="#c79b5c"/><rect x="0.375" y="1.850" width="0.750" height="0.300" rx="0.000" fill="#c79b5c"/><rect x="0.875" y="1.850" width="0.750" height="0.300" rx="0.000" fill="#c79b5c"/><rect x="1.625" y="1.100" width="0.750" height="0.300" rx="0.000" fill="#c79b5c"/><rect x="1.625" y="0.600" width="0.750" height="0.300" rx="0.000" fill="#c79b5c"/><rect x="1.625" y="0.100" width="0.750" height="0.300" rx="0.000" fill="#c79b5c"/><rect x="1.625" y="-0.400" width="0.750" height="0.300" rx="0.000" fill="#c79b5c"/><rect x="1.625" y="-0.900" width="0.750" height="0.300" rx="0.000" fill="#c79b5c"/><rect x="1.625" y="-1.400" width="0.750" height="0.300" rx="0.000" fill="#c79b5c"/><rect x="0.875" y="-2.150" width="0.750" height="0.300" rx="0.000" fill="#c79b5c"/><rect x="0.375" y="-2.150" width="0.750" height="0.300" rx="0.000" fill="#c79b5c"/><rect x="-0.125" y="-2.150" width="0.750" height="0.300" rx="0.000" fill="#c79b5c"/><rect x="-0.625" y="-2.150" width="0.750" height="0.300" rx="0.000" fill="#c79b5c"/><rect x="-1.125" y="-2.150" width="0.750" height="0.300" rx="0.000" fill="#c79b5c"/><rect x="-1.625" y="-2.150" width="0.750" height="0.300" rx="0.000" fill="#c79b5c"/><rect x="-1.425" y="-1.425" width="2.850" height="2.850" rx="0.000" fill="#c79b5c"/></svg>