<svg xmlns="http://www.w3.org/2000/svg" viewBox="-1.50 -9.31 55.64 15.89" preserveAspectRatio="xMidYMid meet" style="width:100%;height:100%"><rect x="-1.50" y="-9.31" width="55.64" height="15.89" fill="#12151c"/><g transform="translate(0.00 0)"><rect x="2.540" y="-3.810" width="5.080" height="8.890" fill="#1e222b" stroke="#4ea1ff" stroke-width="0.25"/><polyline points="2.540,-0.000 3.810,-0.000" fill="none" stroke="#4ea1ff" stroke-width="0.25" stroke-linejoin="round"/><polyline points="3.048,0.762 3.048,3.810 7.112,3.810" fill="none" stroke="#4ea1ff" stroke-width="0.25" stroke-linejoin="round"/><polyline points="3.810,-0.000 3.048,0.762" fill="none" stroke="#4ea1ff" stroke-width="0.25" stroke-linejoin="round"/><polyline points="4.572,3.048 4.572,4.572" fill="none" stroke="#4ea1ff" stroke-width="0.25" stroke-linejoin="round"/><polyline points="5.334,4.572 4.572,3.810 5.334,3.048 5.334,4.572" fill="#1e222b" stroke="#4ea1ff" stroke-width="0.25" stroke-linejoin="round"/><polyline points="6.350,-2.540 3.810,-2.540 3.810,2.540 6.350,2.540 6.350,-2.540" fill="#1e222b" stroke="#4ea1ff" stroke-width="0.25" stroke-linejoin="round"/><polyline points="6.350,-1.270 3.810,1.270" fill="none" stroke="#4ea1ff" stroke-width="0.25" stroke-linejoin="round"/><polyline points="6.350,-0.000 7.112,0.762" fill="none" stroke="#4ea1ff" stroke-width="0.25" stroke-linejoin="round"/><polyline points="6.350,-0.000 7.620,-0.000" fill="none" stroke="#4ea1ff" stroke-width="0.25" stroke-linejoin="round"/><polyline points="7.112,3.810 7.112,0.762" fill="none" stroke="#4ea1ff" stroke-width="0.25" stroke-linejoin="round"/><line x1="0.000" y1="-0.000" x2="2.540" y2="-0.000" stroke="#e6e9ef" stroke-width="0.2"/><circle cx="0.000" cy="-0.000" r="0.4" fill="#4ea1ff"/><text x="2.240" y="-0.350" fill="#9aa3b2" font-size="0.9" text-anchor="end" font-family="sans-serif">3</text><line x1="10.160" y1="-0.000" x2="7.620" y2="-0.000" stroke="#e6e9ef" stroke-width="0.2"/><circle cx="10.160" cy="-0.000" r="0.4" fill="#4ea1ff"/><text x="7.920" y="-0.350" fill="#9aa3b2" font-size="0.9" text-anchor="start" font-family="sans-serif">5</text><text x="5.08" y="-5.81" fill="#9aa3b2" font-size="1.6" text-anchor="middle" font-family="sans-serif">A</text></g><g transform="translate(16.16 0)"><polyline points="9.906,-2.286 5.588,-0.254" fill="none" stroke="#4ea1ff" stroke-width="0.25" stroke-linejoin="round"/><circle cx="5.080" cy="-0.000" r="0.635" fill="none" stroke="#4ea1ff" stroke-width="0.25"/><circle cx="10.160" cy="-0.000" r="0.635" fill="none" stroke="#4ea1ff" stroke-width="0.25"/><line x1="0.000" y1="-0.000" x2="4.445" y2="-0.000" stroke="#e6e9ef" stroke-width="0.2"/><circle cx="0.000" cy="-0.000" r="0.4" fill="#4ea1ff"/><text x="4.145" y="-0.350" fill="#9aa3b2" font-size="0.9" text-anchor="end" font-family="sans-serif">6</text><line x1="15.240" y1="-0.000" x2="10.795" y2="-0.000" stroke="#e6e9ef" stroke-width="0.2"/><circle cx="15.240" cy="-0.000" r="0.4" fill="#4ea1ff"/><text x="11.095" y="-0.350" fill="#9aa3b2" font-size="0.9" text-anchor="start" font-family="sans-serif">2</text><text x="7.62" y="-4.29" fill="#9aa3b2" font-size="1.6" text-anchor="middle" font-family="sans-serif">B</text></g><g transform="translate(37.40 0)"><polyline points="9.906,-2.286 5.588,-0.254" fill="none" stroke="#4ea1ff" stroke-width="0.25" stroke-linejoin="round"/><circle cx="5.080" cy="-0.000" r="0.635" fill="none" stroke="#4ea1ff" stroke-width="0.25"/><circle cx="10.160" cy="-0.000" r="0.635" fill="none" stroke="#4ea1ff" stroke-width="0.25"/><line x1="0.000" y1="-0.000" x2="4.445" y2="-0.000" stroke="#e6e9ef" stroke-width="0.2"/><circle cx="0.000" cy="-0.000" r="0.4" fill="#4ea1ff"/><text x="4.145" y="-0.350" fill="#9aa3b2" font-size="0.9" text-anchor="end" font-family="sans-serif">7</text><line x1="15.240" y1="-0.000" x2="10.795" y2="-0.000" stroke="#e6e9ef" stroke-width="0.2"/><circle cx="15.240" cy="-0.000" r="0.4" fill="#4ea1ff"/><text x="11.095" y="-0.350" fill="#9aa3b2" font-size="0.9" text-anchor="start" font-family="sans-serif">1</text><text x="7.62" y="-4.29" fill="#9aa3b2" font-size="1.6" text-anchor="middle" font-family="sans-serif">C</text></g></svg>