<svg xmlns="http://www.w3.org/2000/svg" viewBox="-4.62 -4.20 8.82 8.40" preserveAspectRatio="xMidYMid meet" style="width:100%;height:100%"><rect x="-4.62" y="-4.20" width="8.82" height="8.40" fill="#12151c"/><line x1="-2.500" y1="-2.300" x2="-2.300" y2="-2.500" stroke="#e6e9ef" stroke-width="0.200" stroke-linecap="round" opacity="1"/><line x1="-2.500" y1="-2.250" x2="-2.500" y2="-2.300" stroke="#e6e9ef" stroke-width="0.200" stroke-linecap="round" opacity="1"/><line x1="-2.500" y1="2.500" x2="-2.500" y2="2.250" stroke="#e6e9ef" stroke-width="0.200" stroke-linecap="round" opacity="1"/><line x1="-2.500" y1="2.500" x2="-2.250" y2="2.500" stroke="#e6e9ef" stroke-width="0.200" stroke-linecap="round" opacity="1"/><line x1="-2.300" y1="-2.500" x2="-2.250" y2="-2.500" stroke="#e6e9ef" stroke-width="0.200" stroke-linecap="round" opacity="1"/><line x1="2.250" y1="-2.500" x2="2.500" y2="-2.500" stroke="#e6e9ef" stroke-width="0.200" stroke-linecap="round" opacity="1"/><line x1="2.250" y1="2.500" x2="2.500" y2="2.500" stroke="#e6e9ef" stroke-width="0.200" stroke-linecap="round" opacity="1"/><line x1="2.500" y1="-2.250" x2="2.500" y2="-2.500" stroke="#e6e9ef" stroke-width="0.200" stroke-linecap="round" opacity="1"/><line x1="2.500" y1="2.500" x2="2.500" y2="2.250" stroke="#e6e9ef" stroke-width="0.200" stroke-linecap="round" opacity="1"/><line x1="-3.200" y1="-3.200" x2="3.200" y2="-3.200" stroke="#d24d4d" stroke-width="0.080" stroke-linecap="round" opacity="0.7"/><line x1="-3.200" y1="3.200" x2="-3.200" y2="-3.200" stroke="#d24d4d" stroke-width="0.080" stroke-linecap="round" opacity="0.7"/><line x1="-3.200" y1="3.200" x2="3.200" y2="3.200" stroke="#d24d4d" stroke-width="0.080" stroke-linecap="round" opacity="0.7"/><line x1="3.200" y1="3.200" x2="3.200" y2="-3.200" stroke="#d24d4d" stroke-width="0.080" stroke-linecap="round" opacity="0.7"/><line x1="-2.500" y1="-2.500" x2="2.500" y2="-2.500" stroke="#6b7280" stroke-width="0.100" stroke-linecap="round" opacity="0.8"/><line x1="-2.500" y1="2.500" x2="-2.500" y2="-2.500" stroke="#6b7280" stroke-width="0.100" stroke-linecap="round" opacity="0.8"/><line x1="-2.500" y1="2.500" x2="2.500" y2="2.500" stroke="#6b7280" stroke-width="0.100" stroke-linecap="round" opacity="0.8"/><line x1="2.500" y1="2.500" x2="2.500" y2="-2.500" stroke="#6b7280" stroke-width="0.100" stroke-linecap="round" opacity="0.8"/><circle cx="-3.500" cy="-1.800" r="0.125" fill="none" stroke="#e6e9ef" stroke-width="0.12" opacity="1"/><circle cx="-1.500" cy="-1.500" r="0.500" fill="none" stroke="#6b7280" stroke-width="0.12" opacity="0.8"/><rect x="-2.925" y="-1.900" width="0.850" height="0.200" rx="0.100" fill="#c79b5c"/><rect x="-2.925" y="-1.500" width="0.850" height="0.200" rx="0.100" fill="#c79b5c"/><rect x="-2.925" y="-1.100" width="0.850" height="0.200" rx="0.100" fill="#c79b5c"/><rect x="-2.925" y="-0.700" width="0.850" height="0.200" rx="0.100" fill="#c79b5c"/><rect x="-2.925" y="-0.300" width="0.850" height="0.200" rx="0.100" fill="#c79b5c"/><rect x="-2.925" y="0.100" width="0.850" height="0.200" rx="0.100" fill="#c79b5c"/><rect x="-2.925" y="0.500" width="0.850" height="0.200" rx="0.100" fill="#c79b5c"/><rect x="-2.925" y="0.900" width="0.850" height="0.200" rx="0.100" fill="#c79b5c"/><rect x="-2.925" y="1.300" width="0.850" height="0.200" rx="0.100" fill="#c79b5c"/><rect x="-2.925" y="1.700" width="0.850" height="0.200" rx="0.100" fill="#c79b5c"/><rect x="-2.225" y="2.400" width="0.850" height="0.200" rx="0.100" fill="#c79b5c"/><rect x="-1.825" y="2.400" width="0.850" height="0.200" rx="0.100" fill="#c79b5c"/><rect x="-1.425" y="2.400" width="0.850" height="0.200" rx="0.100" fill="#c79b5c"/><rect x="-1.025" y="2.400" width="0.850" height="0.200" rx="0.100" fill="#c79b5c"/><rect x="-0.625" y="2.400" width="0.850" height="0.200" rx="0.100" fill="#c79b5c"/><rect x="-0.225" y="2.400" width="0.850" height="0.200" rx="0.100" fill="#c79b5c"/><rect x="0.175" y="2.400" width="0.850" height="0.200" rx="0.100" fill="#c79b5c"/><rect x="0.575" y="2.400" width="0.850" height="0.200" rx="0.100" fill="#c79b5c"/><rect x="0.975" y="2.400" width="0.850" height="0.200" rx="0.100" fill="#c79b5c"/><rect x="1.375" y="2.400" width="0.850" height="0.200" rx="0.100" fill="#c79b5c"/><rect x="2.075" y="1.700" width="0.850" height="0.200" rx="0.100" fill="#c79b5c"/><rect x="2.075" y="1.300" width="0.850" height="0.200" rx="0.100" fill="#c79b5c"/><rect x="2.075" y="0.900" width="0.850" height="0.200" rx="0.100" fill="#c79b5c"/><rect x="2.075" y="0.500" width="0.850" height="0.200" rx="0.100" fill="#c79b5c"/><rect x="2.075" y="0.100" width="0.850" height="0.200" rx="0.100" fill="#c79b5c"/><rect x="2.075" y="-0.300" width="0.850" height="0.200" rx="0.100" fill="#c79b5c"/><rect x="2.075" y="-0.700" width="0.850" height="0.200" rx="0.100" fill="#c79b5c"/><rect x="2.075" y="-1.100" width="0.850" height="0.200" rx="0.100" fill="#c79b5c"/><rect x="2.075" y="-1.500" width="0.850" height="0.200" rx="0.100" fill="#c79b5c"/><rect x="2.075" y="-1.900" width="0.850" height="0.200" rx="0.100" fill="#c79b5c"/><rect x="1.375" y="-2.600" width="0.850" height="0.200" rx="0.100" fill="#c79b5c"/><rect x="0.975" y="-2.600" width="0.850" height="0.200" rx="0.100" fill="#c79b5c"/><rect x="0.575" y="-2.600" width="0.850" height="0.200" rx="0.100" fill="#c79b5c"/><rect x="0.175" y="-2.600" width="0.850" height="0.200" rx="0.100" fill="#c79b5c"/><rect x="-0.225" y="-2.600" width="0.850" height="0.200" rx="0.100" fill="#c79b5c"/><rect x="-0.625" y="-2.600" width="0.850" height="0.200" rx="0.100" fill="#c79b5c"/><rect x="-1.025" y="-2.600" width="0.850" height="0.200" rx="0.100" fill="#c79b5c"/><rect x="-1.425" y="-2.600" width="0.850" height="0.200" rx="0.100" fill="#c79b5c"/><rect x="-1.825" y="-2.600" width="0.850" height="0.200" rx="0.100" fill="#c79b5c"/><rect x="-2.225" y="-2.600" width="0.850" height="0.200" rx="0.100" fill="#c79b5c"/><rect x="-1.800" y="-1.800" width="3.600" height="3.600" rx="0.000" fill="#c79b5c"/></svg>