<svg xmlns="http://www.w3.org/2000/svg" viewBox="-35.95 -8.67 71.90 16.20" preserveAspectRatio="xMidYMid meet" style="width:100%;height:100%"><rect x="-35.95" y="-8.67" width="71.90" height="16.20" fill="#12151c"/><line x1="-34.950" y1="-6.530" x2="34.950" y2="-6.530" stroke="#d24d4d" stroke-width="0.080" stroke-linecap="round" opacity="0.7"/><line x1="34.950" y1="-6.530" x2="34.950" y2="6.530" stroke="#d24d4d" stroke-width="0.080" stroke-linecap="round" opacity="0.7"/><line x1="34.950" y1="6.530" x2="-34.950" y2="6.530" stroke="#d24d4d" stroke-width="0.080" stroke-linecap="round" opacity="0.7"/><line x1="-34.950" y1="6.530" x2="-34.950" y2="-6.530" stroke="#d24d4d" stroke-width="0.080" stroke-linecap="round" opacity="0.7"/><path d="M -34.699 -4.250 A 2.024 2.024 0 0 1 -32.675 -6.275" fill="none" stroke="#e6e9ef" stroke-width="0.12" opacity="1"/><path d="M -32.675 6.275 A 2.025 2.025 0 0 1 -34.700 4.250" fill="none" stroke="#e6e9ef" stroke-width="0.12" opacity="1"/><path d="M -27.370 -1.603 A 2.000 2.000 0 0 1 -25.400 -3.950" fill="none" stroke="#e6e9ef" stroke-width="0.12" opacity="1"/><path d="M -26.976 -1.672 A 1.600 1.600 0 0 1 -25.400 -3.550" fill="none" stroke="#e6e9ef" stroke-width="0.12" opacity="1"/><path d="M -24.712 3.950 A 2.000 2.000 0 0 1 -26.682 2.298" fill="none" stroke="#e6e9ef" stroke-width="0.12" opacity="1"/><path d="M -24.712 3.551 A 1.600 1.600 0 0 1 -26.288 2.228" fill="none" stroke="#e6e9ef" stroke-width="0.12" opacity="1"/><path d="M 25.400 -3.550 A 1.600 1.600 0 0 1 26.976 -1.672" fill="none" stroke="#e6e9ef" stroke-width="0.12" opacity="1"/><path d="M 25.400 -3.950 A 2.000 2.000 0 0 1 27.370 -1.603" fill="none" stroke="#e6e9ef" stroke-width="0.12" opacity="1"/><path d="M 26.288 2.228 A 1.600 1.600 0 0 1 24.712 3.551" fill="none" stroke="#e6e9ef" stroke-width="0.12" opacity="1"/><path d="M 26.682 2.298 A 2.000 2.000 0 0 1 24.712 3.950" fill="none" stroke="#e6e9ef" stroke-width="0.12" opacity="1"/><path d="M 32.700 -6.275 A 2.000 2.000 0 0 1 34.700 -4.275" fill="none" stroke="#e6e9ef" stroke-width="0.12" opacity="1"/><path d="M 34.700 4.975 A 1.291 1.291 0 0 1 33.400 6.275" fill="none" stroke="#e6e9ef" stroke-width="0.12" opacity="1"/><path d="M -34.699 -4.250 A 2.024 2.024 0 0 1 -32.675 -6.275" fill="none" stroke="#6b7280" stroke-width="0.12" opacity="0.8"/><path d="M -32.675 6.275 A 2.025 2.025 0 0 1 -34.700 4.250" fill="none" stroke="#6b7280" stroke-width="0.12" opacity="0.8"/><path d="M -27.370 -1.603 A 2.000 2.000 0 0 1 -25.400 -3.950" fill="none" stroke="#6b7280" stroke-width="0.12" opacity="0.8"/><path d="M -26.976 -1.672 A 1.600 1.600 0 0 1 -25.400 -3.550" fill="none" stroke="#6b7280" stroke-width="0.12" opacity="0.8"/><path d="M -24.712 3.950 A 2.000 2.000 0 0 1 -26.682 2.298" fill="none" stroke="#6b7280" stroke-width="0.12" opacity="0.8"/><path d="M -24.712 3.551 A 1.600 1.600 0 0 1 -26.288 2.228" fill="none" stroke="#6b7280" stroke-width="0.12" opacity="0.8"/><path d="M 25.400 -3.550 A 1.600 1.600 0 0 1 26.976 -1.672" fill="none" stroke="#6b7280" stroke-width="0.12" opacity="0.8"/><path d="M 25.400 -3.950 A 2.000 2.000 0 0 1 27.370 -1.603" fill="none" stroke="#6b7280" stroke-width="0.12" opacity="0.8"/><path d="M 26.288 2.228 A 1.600 1.600 0 0 1 24.712 3.551" fill="none" stroke="#6b7280" stroke-width="0.12" opacity="0.8"/><path d="M 26.682 2.298 A 2.000 2.000 0 0 1 24.712 3.950" fill="none" stroke="#6b7280" stroke-width="0.12" opacity="0.8"/><path d="M 32.700 -6.275 A 2.000 2.000 0 0 1 34.700 -4.275" fill="none" stroke="#6b7280" stroke-width="0.12" opacity="0.8"/><path d="M 34.700 4.975 A 1.291 1.291 0 0 1 33.400 6.275" fill="none" stroke="#6b7280" stroke-width="0.12" opacity="0.8"/><circle cx="24.930" cy="-7.420" r="0.250" fill="none" stroke="#e6e9ef" stroke-width="0.12" opacity="1"/><circle cx="-31.750" cy="0.000" r="1.750" fill="none" stroke="#6b7280" stroke-width="0.12" opacity="0.8"/><circle cx="-24.930" cy="-1.420" r="0.575" fill="none" stroke="#6b7280" stroke-width="0.12" opacity="0.8"/><circle cx="-23.550" cy="1.420" r="0.575" fill="none" stroke="#6b7280" stroke-width="0.12" opacity="0.8"/><circle cx="-22.160" cy="-1.420" r="0.575" fill="none" stroke="#6b7280" stroke-width="0.12" opacity="0.8"/><circle cx="-20.780" cy="1.420" r="0.575" fill="none" stroke="#6b7280" stroke-width="0.12" opacity="0.8"/><circle cx="-19.390" cy="-1.420" r="0.575" fill="none" stroke="#6b7280" stroke-width="0.12" opacity="0.8"/><circle cx="-18.010" cy="1.420" r="0.575" fill="none" stroke="#6b7280" stroke-width="0.12" opacity="0.8"/><circle cx="-16.620" cy="-1.420" r="0.575" fill="none" stroke="#6b7280" stroke-width="0.12" opacity="0.8"/><circle cx="-15.240" cy="1.420" r="0.575" fill="none" stroke="#6b7280" stroke-width="0.12" opacity="0.8"/><circle cx="-13.850" cy="-1.420" r="0.575" fill="none" stroke="#6b7280" stroke-width="0.12" opacity="0.8"/><circle cx="-12.470" cy="1.420" r="0.575" fill="none" stroke="#6b7280" stroke-width="0.12" opacity="0.8"/><circle cx="-11.080" cy="-1.420" r="0.575" fill="none" stroke="#6b7280" stroke-width="0.12" opacity="0.8"/><circle cx="-9.700" cy="1.420" r="0.575" fill="none" stroke="#6b7280" stroke-width="0.12" opacity="0.8"/><circle cx="-8.310" cy="-1.420" r="0.575" fill="none" stroke="#6b7280" stroke-width="0.12" opacity="0.8"/><circle cx="-6.930" cy="1.420" r="0.575" fill="none" stroke="#6b7280" stroke-width="0.12" opacity="0.8"/><circle cx="-5.540" cy="-1.420" r="0.575" fill="none" stroke="#6b7280" stroke-width="0.12" opacity="0.8"/><circle cx="-4.160" cy="1.420" r="0.575" fill="none" stroke="#6b7280" stroke-width="0.12" opacity="0.8"/><circle cx="-2.770" cy="-1.420" r="0.575" fill="none" stroke="#6b7280" stroke-width="0.12" opacity="0.8"/><circle cx="-1.390" cy="1.420" r="0.575" fill="none" stroke="#6b7280" stroke-width="0.12" opacity="0.8"/><circle cx="0.000" cy="-1.420" r="0.575" fill="none" stroke="#6b7280" stroke-width="0.12" opacity="0.8"/><circle cx="1.380" cy="1.420" r="0.575" fill="none" stroke="#6b7280" stroke-width="0.12" opacity="0.8"/><circle cx="2.770" cy="-1.420" r="0.575" fill="none" stroke="#6b7280" stroke-width="0.12" opacity="0.8"/><circle cx="4.150" cy="1.420" r="0.575" fill="none" stroke="#6b7280" stroke-width="0.12" opacity="0.8"/><circle cx="5.540" cy="-1.420" r="0.575" fill="none" stroke="#6b7280" stroke-width="0.12" opacity="0.8"/><circle cx="6.920" cy="1.420" r="0.575" fill="none" stroke="#6b7280" stroke-width="0.12" opacity="0.8"/><circle cx="8.310" cy="-1.420" r="0.575" fill="none" stroke="#6b7280" stroke-width="0.12" opacity="0.8"/><circle cx="9.690" cy="1.420" r="0.575" fill="none" stroke="#6b7280" stroke-width="0.12" opacity="0.8"/><circle cx="11.080" cy="-1.420" r="0.575" fill="none" stroke="#6b7280" stroke-width="0.12" opacity="0.8"/><circle cx="12.460" cy="1.420" r="0.575" fill="none" stroke="#6b7280" stroke-width="0.12" opacity="0.8"/><circle cx="13.850" cy="-1.420" r="0.575" fill="none" stroke="#6b7280" stroke-width="0.12" opacity="0.8"/><circle cx="15.230" cy="1.420" r="0.575" fill="none" stroke="#6b7280" stroke-width="0.12" opacity="0.8"/><circle cx="16.620" cy="-1.420" r="0.575" fill="none" stroke="#6b7280" stroke-width="0.12" opacity="0.8"/><circle cx="18.000" cy="1.420" r="0.575" fill="none" stroke="#6b7280" stroke-width="0.12" opacity="0.8"/><circle cx="19.390" cy="-1.420" r="0.575" fill="none" stroke="#6b7280" stroke-width="0.12" opacity="0.8"/><circle cx="20.770" cy="1.420" r="0.575" fill="none" stroke="#6b7280" stroke-width="0.12" opacity="0.8"/><circle cx="22.160" cy="-1.420" r="0.575" fill="none" stroke="#6b7280" stroke-width="0.12" opacity="0.8"/><circle cx="23.540" cy="1.420" r="0.575" fill="none" stroke="#6b7280" stroke-width="0.12" opacity="0.8"/><circle cx="24.930" cy="-1.420" r="0.575" fill="none" stroke="#6b7280" stroke-width="0.12" opacity="0.8"/><circle cx="31.750" cy="0.000" r="1.750" fill="none" stroke="#6b7280" stroke-width="0.12" opacity="0.8"/><rect x="24.030" y="-2.320" width="1.800" height="1.800" rx="0.900" fill="#c79b5c"/><circle cx="24.930" cy="-1.420" r="0.550" fill="#12151c"/><rect x="21.260" y="-2.320" width="1.800" height="1.800" rx="0.900" fill="#c79b5c"/><circle cx="22.160" cy="-1.420" r="0.550" fill="#12151c"/><rect x="18.490" y="-2.320" width="1.800" height="1.800" rx="0.900" fill="#c79b5c"/><circle cx="19.390" cy="-1.420" r="0.550" fill="#12151c"/><rect x="15.720" y="-2.320" width="1.800" height="1.800" rx="0.900" fill="#c79b5c"/><circle cx="16.620" cy="-1.420" r="0.550" fill="#12151c"/><rect x="12.950" y="-2.320" width="1.800" height="1.800" rx="0.900" fill="#c79b5c"/><circle cx="13.850" cy="-1.420" r="0.550" fill="#12151c"/><rect x="10.180" y="-2.320" width="1.800" height="1.800" rx="0.900" fill="#c79b5c"/><circle cx="11.080" cy="-1.420" r="0.550" fill="#12151c"/><rect x="7.410" y="-2.320" width="1.800" height="1.800" rx="0.900" fill="#c79b5c"/><circle cx="8.310" cy="-1.420" r="0.550" fill="#12151c"/><rect x="4.640" y="-2.320" width="1.800" height="1.800" rx="0.900" fill="#c79b5c"/><circle cx="5.540" cy="-1.420" r="0.550" fill="#12151c"/><rect x="1.870" y="-2.320" width="1.800" height="1.800" rx="0.900" fill="#c79b5c"/><circle cx="2.770" cy="-1.420" r="0.550" fill="#12151c"/><rect x="-0.900" y="-2.320" width="1.800" height="1.800" rx="0.900" fill="#c79b5c"/><circle cx="0.000" cy="-1.420" r="0.550" fill="#12151c"/><rect x="-3.670" y="-2.320" width="1.800" height="1.800" rx="0.900" fill="#c79b5c"/><circle cx="-2.770" cy="-1.420" r="0.550" fill="#12151c"/><rect x="-6.440" y="-2.320" width="1.800" height="1.800" rx="0.900" fill="#c79b5c"/><circle cx="-5.540" cy="-1.420" r="0.550" fill="#12151c"/><rect x="-9.210" y="-2.320" width="1.800" height="1.800" rx="0.900" fill="#c79b5c"/><circle cx="-8.310" cy="-1.420" r="0.550" fill="#12151c"/><rect x="-11.980" y="-2.320" width="1.800" height="1.800" rx="0.900" fill="#c79b5c"/><circle cx="-11.080" cy="-1.420" r="0.550" fill="#12151c"/><rect x="-14.750" y="-2.320" width="1.800" height="1.800" rx="0.900" fill="#c79b5c"/><circle cx="-13.850" cy="-1.420" r="0.550" fill="#12151c"/><rect x="-17.520" y="-2.320" width="1.800" height="1.800" rx="0.900" fill="#c79b5c"/><circle cx="-16.620" cy="-1.420" r="0.550" fill="#12151c"/><rect x="-20.290" y="-2.320" width="1.800" height="1.800" rx="0.900" fill="#c79b5c"/><circle cx="-19.390" cy="-1.420" r="0.550" fill="#12151c"/><rect x="-23.060" y="-2.320" width="1.800" height="1.800" rx="0.900" fill="#c79b5c"/><circle cx="-22.160" cy="-1.420" r="0.550" fill="#12151c"/><rect x="-25.830" y="-2.320" width="1.800" height="1.800" rx="0.900" fill="#c79b5c"/><circle cx="-24.930" cy="-1.420" r="0.550" fill="#12151c"/><rect x="22.640" y="0.520" width="1.800" height="1.800" rx="0.900" fill="#c79b5c"/><circle cx="23.540" cy="1.420" r="0.550" fill="#12151c"/><rect x="19.870" y="0.520" width="1.800" height="1.800" rx="0.900" fill="#c79b5c"/><circle cx="20.770" cy="1.420" r="0.550" fill="#12151c"/><rect x="17.100" y="0.520" width="1.800" height="1.800" rx="0.900" fill="#c79b5c"/><circle cx="18.000" cy="1.420" r="0.550" fill="#12151c"/><rect x="14.330" y="0.520" width="1.800" height="1.800" rx="0.900" fill="#c79b5c"/><circle cx="15.230" cy="1.420" r="0.550" fill="#12151c"/><rect x="11.560" y="0.520" width="1.800" height="1.800" rx="0.900" fill="#c79b5c"/><circle cx="12.460" cy="1.420" r="0.550" fill="#12151c"/><rect x="8.790" y="0.520" width="1.800" height="1.800" rx="0.900" fill="#c79b5c"/><circle cx="9.690" cy="1.420" r="0.550" fill="#12151c"/><rect x="6.020" y="0.520" width="1.800" height="1.800" rx="0.900" fill="#c79b5c"/><circle cx="6.920" cy="1.420" r="0.550" fill="#12151c"/><rect x="3.250" y="0.520" width="1.800" height="1.800" rx="0.900" fill="#c79b5c"/><circle cx="4.150" cy="1.420" r="0.550" fill="#12151c"/><rect x="0.485" y="0.520" width="1.800" height="1.800" rx="0.900" fill="#c79b5c"/><circle cx="1.385" cy="1.420" r="0.550" fill="#12151c"/><rect x="-2.290" y="0.520" width="1.800" height="1.800" rx="0.900" fill="#c79b5c"/><circle cx="-1.390" cy="1.420" r="0.550" fill="#12151c"/><rect x="-5.060" y="0.520" width="1.800" height="1.800" rx="0.900" fill="#c79b5c"/><circle cx="-4.160" cy="1.420" r="0.550" fill="#12151c"/><rect x="-7.830" y="0.520" width="1.800" height="1.800" rx="0.900" fill="#c79b5c"/><circle cx="-6.930" cy="1.420" r="0.550" fill="#12151c"/><rect x="-10.600" y="0.520" width="1.800" height="1.800" rx="0.900" fill="#c79b5c"/><circle cx="-9.700" cy="1.420" r="0.550" fill="#12151c"/><rect x="-13.370" y="0.520" width="1.800" height="1.800" rx="0.900" fill="#c79b5c"/><circle cx="-12.470" cy="1.420" r="0.550" fill="#12151c"/><rect x="-16.140" y="0.520" width="1.800" height="1.800" rx="0.900" fill="#c79b5c"/><circle cx="-15.240" cy="1.420" r="0.550" fill="#12151c"/><rect x="-18.910" y="0.520" width="1.800" height="1.800" rx="0.900" fill="#c79b5c"/><circle cx="-18.010" cy="1.420" r="0.550" fill="#12151c"/><rect x="-21.680" y="0.520" width="1.800" height="1.800" rx="0.900" fill="#c79b5c"/><circle cx="-20.780" cy="1.420" r="0.550" fill="#12151c"/><rect x="-24.450" y="0.520" width="1.800" height="1.800" rx="0.900" fill="#c79b5c"/><circle cx="-23.550" cy="1.420" r="0.550" fill="#12151c"/><rect x="-34.650" y="-2.900" width="5.800" height="5.800" rx="2.900" fill="#c79b5c"/><circle cx="-31.750" cy="0.000" r="1.550" fill="#12151c"/><rect x="28.850" y="-2.900" width="5.800" height="5.800" rx="2.900" fill="#c79b5c"/><circle cx="31.750" cy="0.000" r="1.550" fill="#12151c"/></svg>