<svg xmlns="http://www.w3.org/2000/svg" viewBox="-7.65 -4.45 15.30 8.90" preserveAspectRatio="xMidYMid meet" style="width:100%;height:100%"><rect x="-7.65" y="-4.45" width="15.30" height="8.90" fill="#12151c"/><line x1="-2.450" y1="-3.050" x2="2.450" y2="-3.050" stroke="#e6e9ef" stroke-width="0.200" stroke-linecap="round" opacity="1"/><line x1="-2.450" y1="3.050" x2="2.450" y2="3.050" stroke="#e6e9ef" stroke-width="0.200" stroke-linecap="round" opacity="1"/><line x1="-4.350" y1="-3.450" x2="4.350" y2="-3.450" stroke="#d24d4d" stroke-width="0.080" stroke-linecap="round" opacity="0.7"/><line x1="-4.350" y1="3.450" x2="-4.350" y2="-3.450" stroke="#d24d4d" stroke-width="0.080" stroke-linecap="round" opacity="0.7"/><line x1="-4.350" y1="3.450" x2="4.350" y2="3.450" stroke="#d24d4d" stroke-width="0.080" stroke-linecap="round" opacity="0.7"/><line x1="4.350" y1="3.450" x2="4.350" y2="-3.450" stroke="#d24d4d" stroke-width="0.080" stroke-linecap="round" opacity="0.7"/><line x1="-3.600" y1="-3.050" x2="3.600" y2="-3.050" stroke="#6b7280" stroke-width="0.100" stroke-linecap="round" opacity="0.8"/><line x1="-3.600" y1="3.050" x2="-3.600" y2="-3.050" stroke="#6b7280" stroke-width="0.100" stroke-linecap="round" opacity="0.8"/><line x1="-3.600" y1="3.050" x2="3.600" y2="3.050" stroke="#6b7280" stroke-width="0.100" stroke-linecap="round" opacity="0.8"/><line x1="3.600" y1="3.050" x2="3.600" y2="-3.050" stroke="#6b7280" stroke-width="0.100" stroke-linecap="round" opacity="0.8"/><rect x="-6.650" y="-0.625" width="6.400" height="1.250" rx="0.000" fill="#c79b5c"/><rect x="0.250" y="-0.625" width="6.400" height="1.250" rx="0.000" fill="#c79b5c"/><polygon points="-3.90,1.68 -3.00,1.68 -3.45,1.07" fill="#ffffff"/></svg>