<svg xmlns="http://www.w3.org/2000/svg" viewBox="-9.25 -6.55 18.80 13.10" preserveAspectRatio="xMidYMid meet" style="width:100%;height:100%"><rect x="-9.25" y="-6.55" width="18.80" height="13.10" fill="#12151c"/><line x1="-4.350" y1="-4.195" x2="-3.303" y2="-4.195" stroke="#e6e9ef" stroke-width="0.200" stroke-linecap="round" opacity="1"/><line x1="-4.350" y1="-3.425" x2="-3.303" y2="-3.425" stroke="#e6e9ef" stroke-width="0.200" stroke-linecap="round" opacity="1"/><line x1="-4.350" y1="-2.925" x2="-3.303" y2="-2.925" stroke="#e6e9ef" stroke-width="0.200" stroke-linecap="round" opacity="1"/><line x1="-4.350" y1="-2.155" x2="-3.303" y2="-2.155" stroke="#e6e9ef" stroke-width="0.200" stroke-linecap="round" opacity="1"/><line x1="-4.350" y1="-1.655" x2="-3.303" y2="-1.655" stroke="#e6e9ef" stroke-width="0.200" stroke-linecap="round" opacity="1"/><line x1="-4.350" y1="-0.885" x2="-3.303" y2="-0.885" stroke="#e6e9ef" stroke-width="0.200" stroke-linecap="round" opacity="1"/><line x1="-4.350" y1="-0.385" x2="-3.303" y2="-0.385" stroke="#e6e9ef" stroke-width="0.200" stroke-linecap="round" opacity="1"/><line x1="-4.350" y1="0.385" x2="-3.303" y2="0.385" stroke="#e6e9ef" stroke-width="0.200" stroke-linecap="round" opacity="1"/><line x1="-4.350" y1="0.885" x2="-3.303" y2="0.885" stroke="#e6e9ef" stroke-width="0.200" stroke-linecap="round" opacity="1"/><line x1="-4.350" y1="1.655" x2="-3.303" y2="1.655" stroke="#e6e9ef" stroke-width="0.200" stroke-linecap="round" opacity="1"/><line x1="-4.350" y1="2.155" x2="-3.303" y2="2.155" stroke="#e6e9ef" stroke-width="0.200" stroke-linecap="round" opacity="1"/><line x1="-4.350" y1="2.925" x2="-3.303" y2="2.925" stroke="#e6e9ef" stroke-width="0.200" stroke-linecap="round" opacity="1"/><line x1="-4.350" y1="3.425" x2="-3.303" y2="3.425" stroke="#e6e9ef" stroke-width="0.200" stroke-linecap="round" opacity="1"/><line x1="-4.350" y1="4.195" x2="-3.303" y2="4.195" stroke="#e6e9ef" stroke-width="0.200" stroke-linecap="round" opacity="1"/><line x1="-3.303" y1="-5.270" x2="-1.800" y2="-5.270" stroke="#e6e9ef" stroke-width="0.200" stroke-linecap="round" opacity="1"/><line x1="-3.303" y1="5.270" x2="-3.303" y2="-5.270" stroke="#e6e9ef" stroke-width="0.200" stroke-linecap="round" opacity="1"/><line x1="-3.303" y1="5.270" x2="-1.800" y2="5.270" stroke="#e6e9ef" stroke-width="0.200" stroke-linecap="round" opacity="1"/><line x1="-8.000" y1="-4.310" x2="-6.350" y2="-3.810" stroke="#4a5160" stroke-width="0.080" stroke-linecap="round" opacity="0.7"/><line x1="-8.000" y1="-4.310" x2="-4.700" y2="-4.310" stroke="#4a5160" stroke-width="0.080" stroke-linecap="round" opacity="0.7"/><line x1="-8.000" y1="-3.310" x2="-8.000" y2="-4.310" stroke="#4a5160" stroke-width="0.080" stroke-linecap="round" opacity="0.7"/><line x1="-8.000" y1="-3.310" x2="-6.350" y2="-3.810" stroke="#4a5160" stroke-width="0.080" stroke-linecap="round" opacity="0.7"/><line x1="-8.000" y1="-3.310" x2="-4.700" y2="-3.310" stroke="#4a5160" stroke-width="0.080" stroke-linecap="round" opacity="0.7"/><line x1="-8.000" y1="-3.040" x2="-6.350" y2="-2.540" stroke="#4a5160" stroke-width="0.080" stroke-linecap="round" opacity="0.7"/><line x1="-8.000" y1="-3.040" x2="-4.700" y2="-3.040" stroke="#4a5160" stroke-width="0.080" stroke-linecap="round" opacity="0.7"/><line x1="-8.000" y1="-2.040" x2="-8.000" y2="-3.040" stroke="#4a5160" stroke-width="0.080" stroke-linecap="round" opacity="0.7"/><line x1="-8.000" y1="-2.040" x2="-6.350" y2="-2.540" stroke="#4a5160" stroke-width="0.080" stroke-linecap="round" opacity="0.7"/><line x1="-8.000" y1="-2.040" x2="-4.700" y2="-2.040" stroke="#4a5160" stroke-width="0.080" stroke-linecap="round" opacity="0.7"/><line x1="-8.000" y1="-1.770" x2="-6.350" y2="-1.270" stroke="#4a5160" stroke-width="0.080" stroke-linecap="round" opacity="0.7"/><line x1="-8.000" y1="-1.770" x2="-4.700" y2="-1.770" stroke="#4a5160" stroke-width="0.080" stroke-linecap="round" opacity="0.7"/><line x1="-8.000" y1="-0.770" x2="-8.000" y2="-1.770" stroke="#4a5160" stroke-width="0.080" stroke-linecap="round" opacity="0.7"/><line x1="-8.000" y1="-0.770" x2="-6.350" y2="-1.270" stroke="#4a5160" stroke-width="0.080" stroke-linecap="round" opacity="0.7"/><line x1="-8.000" y1="-0.770" x2="-4.700" y2="-0.770" stroke="#4a5160" stroke-width="0.080" stroke-linecap="round" opacity="0.7"/><line x1="-8.000" y1="-0.500" x2="-6.350" y2="0.000" stroke="#4a5160" stroke-width="0.080" stroke-linecap="round" opacity="0.7"/><line x1="-8.000" y1="-0.500" x2="-4.700" y2="-0.500" stroke="#4a5160" stroke-width="0.080" stroke-linecap="round" opacity="0.7"/><line x1="-8.000" y1="0.500" x2="-8.000" y2="-0.500" stroke="#4a5160" stroke-width="0.080" stroke-linecap="round" opacity="0.7"/><line x1="-8.000" y1="0.500" x2="-6.350" y2="0.000" stroke="#4a5160" stroke-width="0.080" stroke-linecap="round" opacity="0.7"/><line x1="-8.000" y1="0.500" x2="-4.700" y2="0.500" stroke="#4a5160" stroke-width="0.080" stroke-linecap="round" opacity="0.7"/><line x1="-8.000" y1="0.770" x2="-6.350" y2="1.270" stroke="#4a5160" stroke-width="0.080" stroke-linecap="round" opacity="0.7"/><line x1="-8.000" y1="0.770" x2="-4.700" y2="0.770" stroke="#4a5160" stroke-width="0.080" stroke-linecap="round" opacity="0.7"/><line x1="-8.000" y1="1.770" x2="-8.000" y2="0.770" stroke="#4a5160" stroke-width="0.080" stroke-linecap="round" opacity="0.7"/><line x1="-8.000" y1="1.770" x2="-6.350" y2="1.270" stroke="#4a5160" stroke-width="0.080" stroke-linecap="round" opacity="0.7"/><line x1="-8.000" y1="1.770" x2="-4.700" y2="1.770" stroke="#4a5160" stroke-width="0.080" stroke-linecap="round" opacity="0.7"/><line x1="-8.000" y1="2.040" x2="-6.350" y2="2.540" stroke="#4a5160" stroke-width="0.080" stroke-linecap="round" opacity="0.7"/><line x1="-8.000" y1="2.040" x2="-4.700" y2="2.040" stroke="#4a5160" stroke-width="0.080" stroke-linecap="round" opacity="0.7"/><line x1="-8.000" y1="3.040" x2="-8.000" y2="2.040" stroke="#4a5160" stroke-width="0.080" stroke-linecap="round" opacity="0.7"/><line x1="-8.000" y1="3.040" x2="-6.350" y2="2.540" stroke="#4a5160" stroke-width="0.080" stroke-linecap="round" opacity="0.7"/><line x1="-8.000" y1="3.040" x2="-4.700" y2="3.040" stroke="#4a5160" stroke-width="0.080" stroke-linecap="round" opacity="0.7"/><line x1="-8.000" y1="3.310" x2="-6.350" y2="3.810" stroke="#4a5160" stroke-width="0.080" stroke-linecap="round" opacity="0.7"/><line x1="-8.000" y1="3.310" x2="-4.700" y2="3.310" stroke="#4a5160" stroke-width="0.080" stroke-linecap="round" opacity="0.7"/><line x1="-8.000" y1="4.310" x2="-8.000" y2="3.310" stroke="#4a5160" stroke-width="0.080" stroke-linecap="round" opacity="0.7"/><line x1="-8.000" y1="4.310" x2="-6.350" y2="3.810" stroke="#4a5160" stroke-width="0.080" stroke-linecap="round" opacity="0.7"/><line x1="-8.000" y1="4.310" x2="-4.700" y2="4.310" stroke="#4a5160" stroke-width="0.080" stroke-linecap="round" opacity="0.7"/><line x1="-4.700" y1="-3.310" x2="-4.700" y2="-4.310" stroke="#4a5160" stroke-width="0.080" stroke-linecap="round" opacity="0.7"/><line x1="-4.700" y1="-2.040" x2="-4.700" y2="-3.040" stroke="#4a5160" stroke-width="0.080" stroke-linecap="round" opacity="0.7"/><line x1="-4.700" y1="-0.770" x2="-4.700" y2="-1.770" stroke="#4a5160" stroke-width="0.080" stroke-linecap="round" opacity="0.7"/><line x1="-4.700" y1="0.500" x2="-4.700" y2="-0.500" stroke="#4a5160" stroke-width="0.080" stroke-linecap="round" opacity="0.7"/><line x1="-4.700" y1="1.770" x2="-4.700" y2="0.770" stroke="#4a5160" stroke-width="0.080" stroke-linecap="round" opacity="0.7"/><line x1="-4.700" y1="3.040" x2="-4.700" y2="2.040" stroke="#4a5160" stroke-width="0.080" stroke-linecap="round" opacity="0.7"/><line x1="-4.700" y1="4.310" x2="-4.700" y2="3.310" stroke="#4a5160" stroke-width="0.080" stroke-linecap="round" opacity="0.7"/><line x1="-1.450" y1="-5.300" x2="7.950" y2="-5.300" stroke="#4a5160" stroke-width="0.080" stroke-linecap="round" opacity="0.7"/><line x1="-1.450" y1="5.300" x2="-1.450" y2="-5.300" stroke="#4a5160" stroke-width="0.080" stroke-linecap="round" opacity="0.7"/><line x1="-1.450" y1="5.300" x2="7.950" y2="5.300" stroke="#4a5160" stroke-width="0.080" stroke-linecap="round" opacity="0.7"/><line x1="-0.500" y1="0.000" x2="0.000" y2="0.000" stroke="#4a5160" stroke-width="0.080" stroke-linecap="round" opacity="0.7"/><line x1="0.000" y1="0.000" x2="0.000" y2="-0.500" stroke="#4a5160" stroke-width="0.080" stroke-linecap="round" opacity="0.7"/><line x1="0.000" y1="0.000" x2="0.500" y2="0.000" stroke="#4a5160" stroke-width="0.080" stroke-linecap="round" opacity="0.7"/><line x1="0.000" y1="0.500" x2="0.000" y2="0.000" stroke="#4a5160" stroke-width="0.080" stroke-linecap="round" opacity="0.7"/><line x1="3.250" y1="0.000" x2="7.950" y2="-5.300" stroke="#4a5160" stroke-width="0.080" stroke-linecap="round" opacity="0.7"/><line x1="3.250" y1="0.000" x2="7.950" y2="5.300" stroke="#4a5160" stroke-width="0.080" stroke-linecap="round" opacity="0.7"/><line x1="7.950" y1="5.300" x2="7.950" y2="-5.300" stroke="#4a5160" stroke-width="0.080" stroke-linecap="round" opacity="0.7"/><line x1="-8.250" y1="-5.550" x2="8.200" y2="-5.550" stroke="#d24d4d" stroke-width="0.080" stroke-linecap="round" opacity="0.7"/><line x1="-8.250" y1="5.550" x2="-8.250" y2="-5.550" stroke="#d24d4d" stroke-width="0.080" stroke-linecap="round" opacity="0.7"/><line x1="-8.250" y1="5.550" x2="8.200" y2="5.550" stroke="#d24d4d" stroke-width="0.080" stroke-linecap="round" opacity="0.7"/><line x1="8.200" y1="5.550" x2="8.200" y2="-5.550" stroke="#d24d4d" stroke-width="0.080" stroke-linecap="round" opacity="0.7"/><line x1="-6.935" y1="-4.195" x2="-3.303" y2="-4.195" stroke="#6b7280" stroke-width="0.100" stroke-linecap="round" opacity="0.8"/><line x1="-6.935" y1="-3.425" x2="-6.935" y2="-4.195" stroke="#6b7280" stroke-width="0.100" stroke-linecap="round" opacity="0.8"/><line x1="-6.935" y1="-3.425" x2="-3.303" y2="-3.425" stroke="#6b7280" stroke-width="0.100" stroke-linecap="round" opacity="0.8"/><line x1="-6.935" y1="-2.925" x2="-3.303" y2="-2.925" stroke="#6b7280" stroke-width="0.100" stroke-linecap="round" opacity="0.8"/><line x1="-6.935" y1="-2.155" x2="-6.935" y2="-2.925" stroke="#6b7280" stroke-width="0.100" stroke-linecap="round" opacity="0.8"/><line x1="-6.935" y1="-2.155" x2="-3.303" y2="-2.155" stroke="#6b7280" stroke-width="0.100" stroke-linecap="round" opacity="0.8"/><line x1="-6.935" y1="-1.655" x2="-3.303" y2="-1.655" stroke="#6b7280" stroke-width="0.100" stroke-linecap="round" opacity="0.8"/><line x1="-6.935" y1="-0.885" x2="-6.935" y2="-1.655" stroke="#6b7280" stroke-width="0.100" stroke-linecap="round" opacity="0.8"/><line x1="-6.935" y1="-0.885" x2="-3.303" y2="-0.885" stroke="#6b7280" stroke-width="0.100" stroke-linecap="round" opacity="0.8"/><line x1="-6.935" y1="-0.385" x2="-3.303" y2="-0.385" stroke="#6b7280" stroke-width="0.100" stroke-linecap="round" opacity="0.8"/><line x1="-6.935" y1="0.385" x2="-6.935" y2="-0.385" stroke="#6b7280" stroke-width="0.100" stroke-linecap="round" opacity="0.8"/><line x1="-6.935" y1="0.385" x2="-3.303" y2="0.385" stroke="#6b7280" stroke-width="0.100" stroke-linecap="round" opacity="0.8"/><line x1="-6.935" y1="0.885" x2="-3.303" y2="0.885" stroke="#6b7280" stroke-width="0.100" stroke-linecap="round" opacity="0.8"/><line x1="-6.935" y1="1.655" x2="-6.935" y2="0.885" stroke="#6b7280" stroke-width="0.100" stroke-linecap="round" opacity="0.8"/><line x1="-6.935" y1="1.655" x2="-3.303" y2="1.655" stroke="#6b7280" stroke-width="0.100" stroke-linecap="round" opacity="0.8"/><line x1="-6.935" y1="2.155" x2="-3.303" y2="2.155" stroke="#6b7280" stroke-width="0.100" stroke-linecap="round" opacity="0.8"/><line x1="-6.935" y1="2.925" x2="-6.935" y2="2.155" stroke="#6b7280" stroke-width="0.100" stroke-linecap="round" opacity="0.8"/><line x1="-6.935" y1="2.925" x2="-3.303" y2="2.925" stroke="#6b7280" stroke-width="0.100" stroke-linecap="round" opacity="0.8"/><line x1="-6.935" y1="3.425" x2="-3.303" y2="3.425" stroke="#6b7280" stroke-width="0.100" stroke-linecap="round" opacity="0.8"/><line x1="-6.935" y1="4.195" x2="-6.935" y2="3.425" stroke="#6b7280" stroke-width="0.100" stroke-linecap="round" opacity="0.8"/><line x1="-6.935" y1="4.195" x2="-3.303" y2="4.195" stroke="#6b7280" stroke-width="0.100" stroke-linecap="round" opacity="0.8"/><line x1="-3.303" y1="-5.270" x2="5.587" y2="-5.270" stroke="#6b7280" stroke-width="0.100" stroke-linecap="round" opacity="0.8"/><line x1="-3.303" y1="5.270" x2="-3.303" y2="-5.270" stroke="#6b7280" stroke-width="0.100" stroke-linecap="round" opacity="0.8"/><line x1="-3.303" y1="5.270" x2="5.587" y2="5.270" stroke="#6b7280" stroke-width="0.100" stroke-linecap="round" opacity="0.8"/><line x1="5.587" y1="-5.270" x2="7.111" y2="-5.083" stroke="#6b7280" stroke-width="0.100" stroke-linecap="round" opacity="0.8"/><line x1="5.587" y1="5.270" x2="5.587" y2="-5.270" stroke="#6b7280" stroke-width="0.100" stroke-linecap="round" opacity="0.8"/><line x1="5.587" y1="5.270" x2="7.111" y2="5.083" stroke="#6b7280" stroke-width="0.100" stroke-linecap="round" opacity="0.8"/><line x1="7.111" y1="5.083" x2="7.111" y2="-5.083" stroke="#6b7280" stroke-width="0.100" stroke-linecap="round" opacity="0.8"/><circle cx="-7.500" cy="-4.850" r="0.125" fill="none" stroke="#e6e9ef" stroke-width="0.12" opacity="1"/><rect x="-8.000" y="-4.310" width="3.300" height="1.000" rx="0.000" fill="#c79b5c"/><rect x="-8.000" y="-3.040" width="3.300" height="1.000" rx="0.000" fill="#c79b5c"/><rect x="-8.000" y="-1.770" width="3.300" height="1.000" rx="0.000" fill="#c79b5c"/><rect x="-8.000" y="-0.500" width="3.300" height="1.000" rx="0.000" fill="#c79b5c"/><rect x="-8.000" y="0.770" width="3.300" height="1.000" rx="0.000" fill="#c79b5c"/><rect x="-8.000" y="2.040" width="3.300" height="1.000" rx="0.000" fill="#c79b5c"/><rect x="-8.000" y="3.310" width="3.300" height="1.000" rx="0.000" fill="#c79b5c"/><rect x="-2.050" y="-4.700" width="10.600" height="9.400" rx="0.000" fill="#c79b5c"/></svg>