<svg xmlns="http://www.w3.org/2000/svg" viewBox="-4.75 -3.75 10.20 7.50" preserveAspectRatio="xMidYMid meet" style="width:100%;height:100%"><rect x="-4.75" y="-3.75" width="10.20" height="7.50" fill="#12151c"/><line x1="-3.500" y1="-2.500" x2="-3.500" y2="0.705" stroke="#e6e9ef" stroke-width="0.200" stroke-linecap="round" opacity="1"/><line x1="-3.500" y1="-2.500" x2="3.500" y2="-2.500" stroke="#e6e9ef" stroke-width="0.200" stroke-linecap="round" opacity="1"/><line x1="-3.500" y1="2.500" x2="3.500" y2="2.500" stroke="#e6e9ef" stroke-width="0.200" stroke-linecap="round" opacity="1"/><line x1="-3.500" y1="2.500" x2="-3.500" y2="1.835" stroke="#e6e9ef" stroke-width="0.200" stroke-linecap="round" opacity="1"/><line x1="3.500" y1="-2.500" x2="3.500" y2="0.705" stroke="#e6e9ef" stroke-width="0.200" stroke-linecap="round" opacity="1"/><line x1="3.500" y1="-2.400" x2="4.200" y2="-2.400" stroke="#e6e9ef" stroke-width="0.200" stroke-linecap="round" opacity="1"/><line x1="3.500" y1="-0.600" x2="4.200" y2="-0.600" stroke="#e6e9ef" stroke-width="0.200" stroke-linecap="round" opacity="1"/><line x1="3.500" y1="2.500" x2="3.500" y2="1.835" stroke="#e6e9ef" stroke-width="0.200" stroke-linecap="round" opacity="1"/><line x1="3.700" y1="-1.750" x2="4.200" y2="-1.750" stroke="#e6e9ef" stroke-width="0.200" stroke-linecap="round" opacity="1"/><line x1="3.700" y1="-1.250" x2="3.700" y2="-1.750" stroke="#e6e9ef" stroke-width="0.200" stroke-linecap="round" opacity="1"/><line x1="3.700" y1="-1.250" x2="4.200" y2="-1.250" stroke="#e6e9ef" stroke-width="0.200" stroke-linecap="round" opacity="1"/><line x1="4.200" y1="-1.750" x2="4.200" y2="-2.400" stroke="#e6e9ef" stroke-width="0.200" stroke-linecap="round" opacity="1"/><line x1="4.200" y1="-0.600" x2="4.200" y2="-1.250" stroke="#e6e9ef" stroke-width="0.200" stroke-linecap="round" opacity="1"/><line x1="-3.040" y1="1.270" x2="-2.540" y2="1.270" stroke="#4a5160" stroke-width="0.100" stroke-linecap="round" opacity="0.7"/><line x1="-2.540" y1="1.270" x2="-2.540" y2="0.770" stroke="#4a5160" stroke-width="0.100" stroke-linecap="round" opacity="0.7"/><line x1="-2.540" y1="1.270" x2="-2.040" y2="1.270" stroke="#4a5160" stroke-width="0.100" stroke-linecap="round" opacity="0.7"/><line x1="-2.540" y1="1.770" x2="-2.540" y2="1.270" stroke="#4a5160" stroke-width="0.100" stroke-linecap="round" opacity="0.7"/><line x1="-0.500" y1="-1.270" x2="0.000" y2="-1.270" stroke="#4a5160" stroke-width="0.100" stroke-linecap="round" opacity="0.7"/><line x1="-0.500" y1="0.000" x2="0.000" y2="0.000" stroke="#4a5160" stroke-width="0.100" stroke-linecap="round" opacity="0.7"/><line x1="0.000" y1="-1.270" x2="0.000" y2="-1.770" stroke="#4a5160" stroke-width="0.100" stroke-linecap="round" opacity="0.7"/><line x1="0.000" y1="-1.270" x2="0.500" y2="-1.270" stroke="#4a5160" stroke-width="0.100" stroke-linecap="round" opacity="0.7"/><line x1="0.000" y1="-0.770" x2="0.000" y2="-1.270" stroke="#4a5160" stroke-width="0.100" stroke-linecap="round" opacity="0.7"/><line x1="0.000" y1="0.000" x2="0.000" y2="-0.500" stroke="#4a5160" stroke-width="0.100" stroke-linecap="round" opacity="0.7"/><line x1="0.000" y1="0.000" x2="0.500" y2="0.000" stroke="#4a5160" stroke-width="0.100" stroke-linecap="round" opacity="0.7"/><line x1="0.000" y1="0.500" x2="0.000" y2="0.000" stroke="#4a5160" stroke-width="0.100" stroke-linecap="round" opacity="0.7"/><line x1="2.040" y1="1.270" x2="2.540" y2="1.270" stroke="#4a5160" stroke-width="0.100" stroke-linecap="round" opacity="0.7"/><line x1="2.540" y1="1.270" x2="2.540" y2="0.770" stroke="#4a5160" stroke-width="0.100" stroke-linecap="round" opacity="0.7"/><line x1="2.540" y1="1.270" x2="3.040" y2="1.270" stroke="#4a5160" stroke-width="0.100" stroke-linecap="round" opacity="0.7"/><line x1="2.540" y1="1.770" x2="2.540" y2="1.270" stroke="#4a5160" stroke-width="0.100" stroke-linecap="round" opacity="0.7"/><line x1="-3.500" y1="-2.500" x2="3.500" y2="-2.500" stroke="#6b7280" stroke-width="0.100" stroke-linecap="round" opacity="0.8"/><line x1="-3.500" y1="2.500" x2="-3.500" y2="-2.500" stroke="#6b7280" stroke-width="0.100" stroke-linecap="round" opacity="0.8"/><line x1="-3.500" y1="2.500" x2="3.500" y2="2.500" stroke="#6b7280" stroke-width="0.100" stroke-linecap="round" opacity="0.8"/><line x1="3.500" y1="-2.400" x2="4.200" y2="-2.400" stroke="#6b7280" stroke-width="0.100" stroke-linecap="round" opacity="0.8"/><line x1="3.500" y1="-0.600" x2="4.200" y2="-0.600" stroke="#6b7280" stroke-width="0.100" stroke-linecap="round" opacity="0.8"/><line x1="3.500" y1="2.500" x2="3.500" y2="-2.500" stroke="#6b7280" stroke-width="0.100" stroke-linecap="round" opacity="0.8"/><line x1="3.700" y1="-1.750" x2="4.200" y2="-1.750" stroke="#6b7280" stroke-width="0.100" stroke-linecap="round" opacity="0.8"/><line x1="3.700" y1="-1.250" x2="3.700" y2="-1.750" stroke="#6b7280" stroke-width="0.100" stroke-linecap="round" opacity="0.8"/><line x1="3.700" y1="-1.250" x2="4.200" y2="-1.250" stroke="#6b7280" stroke-width="0.100" stroke-linecap="round" opacity="0.8"/><line x1="4.200" y1="-1.750" x2="4.200" y2="-2.400" stroke="#6b7280" stroke-width="0.100" stroke-linecap="round" opacity="0.8"/><line x1="4.200" y1="-0.600" x2="4.200" y2="-1.250" stroke="#6b7280" stroke-width="0.100" stroke-linecap="round" opacity="0.8"/><line x1="-3.750" y1="-2.750" x2="4.450" y2="-2.750" stroke="#d24d4d" stroke-width="0.080" stroke-linecap="round" opacity="0.7"/><line x1="4.450" y1="-2.750" x2="4.450" y2="2.750" stroke="#d24d4d" stroke-width="0.080" stroke-linecap="round" opacity="0.7"/><line x1="4.450" y1="2.750" x2="-3.750" y2="2.750" stroke="#d24d4d" stroke-width="0.080" stroke-linecap="round" opacity="0.7"/><line x1="-3.750" y1="2.750" x2="-3.750" y2="-2.750" stroke="#d24d4d" stroke-width="0.080" stroke-linecap="round" opacity="0.7"/><rect x="-3.240" y="0.570" width="1.400" height="1.400" rx="0.700" fill="#c79b5c"/><circle cx="-2.540" cy="1.270" r="0.350" fill="#12151c"/><rect x="-0.700" y="-1.970" width="1.400" height="1.400" rx="0.700" fill="#c79b5c"/><circle cx="0.000" cy="-1.270" r="0.350" fill="#12151c"/><rect x="1.840" y="0.570" width="1.400" height="1.400" rx="0.700" fill="#c79b5c"/><circle cx="2.540" cy="1.270" r="0.350" fill="#12151c"/></svg>