<svg xmlns="http://www.w3.org/2000/svg" viewBox="-7.50 -8.65 15.00 17.30" preserveAspectRatio="xMidYMid meet" style="width:100%;height:100%"><rect x="-7.50" y="-8.65" width="15.00" height="17.30" fill="#12151c"/><line x1="-4.500" y1="-5.650" x2="4.500" y2="-5.650" stroke="#e6e9ef" stroke-width="0.200" stroke-linecap="round" opacity="1"/><line x1="-4.500" y1="-5.450" x2="-4.300" y2="-5.650" stroke="#e6e9ef" stroke-width="0.200" stroke-linecap="round" opacity="1"/><line x1="-4.500" y1="-5.250" x2="-4.100" y2="-5.650" stroke="#e6e9ef" stroke-width="0.200" stroke-linecap="round" opacity="1"/><line x1="-4.500" y1="-5.050" x2="-3.900" y2="-5.650" stroke="#e6e9ef" stroke-width="0.200" stroke-linecap="round" opacity="1"/><line x1="-4.500" y1="-4.850" x2="-3.700" y2="-5.650" stroke="#e6e9ef" stroke-width="0.200" stroke-linecap="round" opacity="1"/><line x1="-4.500" y1="5.650" x2="-4.500" y2="-5.650" stroke="#e6e9ef" stroke-width="0.200" stroke-linecap="round" opacity="1"/><line x1="-4.500" y1="5.650" x2="4.500" y2="5.650" stroke="#e6e9ef" stroke-width="0.200" stroke-linecap="round" opacity="1"/><line x1="4.500" y1="5.650" x2="4.500" y2="-5.650" stroke="#e6e9ef" stroke-width="0.200" stroke-linecap="round" opacity="1"/><line x1="-4.500" y1="-5.625" x2="4.500" y2="-5.625" stroke="#4a5160" stroke-width="0.080" stroke-linecap="round" opacity="0.7"/><line x1="-4.500" y1="5.625" x2="-4.500" y2="-5.625" stroke="#4a5160" stroke-width="0.080" stroke-linecap="round" opacity="0.7"/><line x1="-4.500" y1="5.625" x2="4.500" y2="5.625" stroke="#4a5160" stroke-width="0.080" stroke-linecap="round" opacity="0.7"/><line x1="4.500" y1="5.625" x2="4.500" y2="-5.625" stroke="#4a5160" stroke-width="0.080" stroke-linecap="round" opacity="0.7"/><line x1="-6.500" y1="-7.650" x2="6.500" y2="-7.650" stroke="#d24d4d" stroke-width="0.080" stroke-linecap="round" opacity="0.7"/><line x1="-6.500" y1="7.650" x2="-6.500" y2="-7.650" stroke="#d24d4d" stroke-width="0.080" stroke-linecap="round" opacity="0.7"/><line x1="-6.500" y1="7.650" x2="6.500" y2="7.650" stroke="#d24d4d" stroke-width="0.080" stroke-linecap="round" opacity="0.7"/><line x1="6.500" y1="7.650" x2="6.500" y2="-7.650" stroke="#d24d4d" stroke-width="0.080" stroke-linecap="round" opacity="0.7"/><line x1="-4.500" y1="-5.625" x2="4.500" y2="-5.625" stroke="#6b7280" stroke-width="0.100" stroke-linecap="round" opacity="0.8"/><line x1="-4.500" y1="-5.550" x2="-4.400" y2="-5.650" stroke="#6b7280" stroke-width="0.100" stroke-linecap="round" opacity="0.8"/><line x1="-4.500" y1="-5.450" x2="-4.300" y2="-5.650" stroke="#6b7280" stroke-width="0.100" stroke-linecap="round" opacity="0.8"/><line x1="-4.500" y1="-5.350" x2="-4.200" y2="-5.650" stroke="#6b7280" stroke-width="0.100" stroke-linecap="round" opacity="0.8"/><line x1="-4.500" y1="-5.250" x2="-4.100" y2="-5.650" stroke="#6b7280" stroke-width="0.100" stroke-linecap="round" opacity="0.8"/><line x1="-4.500" y1="-5.150" x2="-4.000" y2="-5.650" stroke="#6b7280" stroke-width="0.100" stroke-linecap="round" opacity="0.8"/><line x1="-4.500" y1="-5.050" x2="-3.900" y2="-5.650" stroke="#6b7280" stroke-width="0.100" stroke-linecap="round" opacity="0.8"/><line x1="-4.500" y1="-4.950" x2="-3.800" y2="-5.650" stroke="#6b7280" stroke-width="0.100" stroke-linecap="round" opacity="0.8"/><line x1="-4.500" y1="-4.850" x2="-3.700" y2="-5.650" stroke="#6b7280" stroke-width="0.100" stroke-linecap="round" opacity="0.8"/><line x1="-4.500" y1="-4.750" x2="-3.600" y2="-5.650" stroke="#6b7280" stroke-width="0.100" stroke-linecap="round" opacity="0.8"/><line x1="-4.500" y1="5.625" x2="-4.500" y2="-5.625" stroke="#6b7280" stroke-width="0.100" stroke-linecap="round" opacity="0.8"/><line x1="-4.500" y1="5.625" x2="4.500" y2="5.625" stroke="#6b7280" stroke-width="0.100" stroke-linecap="round" opacity="0.8"/><line x1="4.500" y1="5.625" x2="4.500" y2="-5.625" stroke="#6b7280" stroke-width="0.100" stroke-linecap="round" opacity="0.8"/><circle cx="-5.100" cy="-4.450" r="0.150" fill="#e6e9ef" opacity="1"/><rect x="-4.125" y="-4.760" width="0.630" height="0.630" rx="0.315" fill="#c79b5c"/><rect x="-2.855" y="-4.760" width="0.630" height="0.630" rx="0.315" fill="#c79b5c"/><rect x="-1.585" y="-4.760" width="0.630" height="0.630" rx="0.315" fill="#c79b5c"/><rect x="-0.315" y="-4.760" width="0.630" height="0.630" rx="0.315" fill="#c79b5c"/><rect x="0.955" y="-4.760" width="0.630" height="0.630" rx="0.315" fill="#c79b5c"/><rect x="2.225" y="-4.760" width="0.630" height="0.630" rx="0.315" fill="#c79b5c"/><rect x="3.495" y="-4.760" width="0.630" height="0.630" rx="0.315" fill="#c79b5c"/><rect x="-4.125" y="-3.490" width="0.630" height="0.630" rx="0.315" fill="#c79b5c"/><rect x="-2.855" y="-3.490" width="0.630" height="0.630" rx="0.315" fill="#c79b5c"/><rect x="-1.585" y="-3.490" width="0.630" height="0.630" rx="0.315" fill="#c79b5c"/><rect x="-0.315" y="-3.490" width="0.630" height="0.630" rx="0.315" fill="#c79b5c"/><rect x="0.955" y="-3.490" width="0.630" height="0.630" rx="0.315" fill="#c79b5c"/><rect x="2.225" y="-3.490" width="0.630" height="0.630" rx="0.315" fill="#c79b5c"/><rect x="3.495" y="-3.490" width="0.630" height="0.630" rx="0.315" fill="#c79b5c"/><rect x="-4.125" y="-2.220" width="0.630" height="0.630" rx="0.315" fill="#c79b5c"/><rect x="-2.855" y="-2.220" width="0.630" height="0.630" rx="0.315" fill="#c79b5c"/><rect x="-1.585" y="-2.220" width="0.630" height="0.630" rx="0.315" fill="#c79b5c"/><rect x="-0.315" y="-2.220" width="0.630" height="0.630" rx="0.315" fill="#c79b5c"/><rect x="0.955" y="-2.220" width="0.630" height="0.630" rx="0.315" fill="#c79b5c"/><rect x="2.225" y="-2.220" width="0.630" height="0.630" rx="0.315" fill="#c79b5c"/><rect x="3.495" y="-2.220" width="0.630" height="0.630" rx="0.315" fill="#c79b5c"/><rect x="-4.125" y="-0.950" width="0.630" height="0.630" rx="0.315" fill="#c79b5c"/><rect x="-2.855" y="-0.950" width="0.630" height="0.630" rx="0.315" fill="#c79b5c"/><rect x="-1.585" y="-0.950" width="0.630" height="0.630" rx="0.315" fill="#c79b5c"/><rect x="-0.315" y="-0.950" width="0.630" height="0.630" rx="0.315" fill="#c79b5c"/><rect x="0.955" y="-0.950" width="0.630" height="0.630" rx="0.315" fill="#c79b5c"/><rect x="2.225" y="-0.950" width="0.630" height="0.630" rx="0.315" fill="#c79b5c"/><rect x="3.495" y="-0.950" width="0.630" height="0.630" rx="0.315" fill="#c79b5c"/><rect x="-4.125" y="0.320" width="0.630" height="0.630" rx="0.315" fill="#c79b5c"/><rect x="-2.855" y="0.320" width="0.630" height="0.630" rx="0.315" fill="#c79b5c"/><rect x="-1.585" y="0.320" width="0.630" height="0.630" rx="0.315" fill="#c79b5c"/><rect x="-0.315" y="0.320" width="0.630" height="0.630" rx="0.315" fill="#c79b5c"/><rect x="0.955" y="0.320" width="0.630" height="0.630" rx="0.315" fill="#c79b5c"/><rect x="2.225" y="0.320" width="0.630" height="0.630" rx="0.315" fill="#c79b5c"/><rect x="3.495" y="0.320" width="0.630" height="0.630" rx="0.315" fill="#c79b5c"/><rect x="0.955" y="1.590" width="0.630" height="0.630" rx="0.315" fill="#c79b5c"/><rect x="2.225" y="1.590" width="0.630" height="0.630" rx="0.315" fill="#c79b5c"/><rect x="3.495" y="1.590" width="0.630" height="0.630" rx="0.315" fill="#c79b5c"/><rect x="-4.125" y="2.860" width="0.630" height="0.630" rx="0.315" fill="#c79b5c"/><rect x="-2.855" y="2.860" width="0.630" height="0.630" rx="0.315" fill="#c79b5c"/><rect x="-1.585" y="2.860" width="0.630" height="0.630" rx="0.315" fill="#c79b5c"/><rect x="0.955" y="2.860" width="0.630" height="0.630" rx="0.315" fill="#c79b5c"/><rect x="2.225" y="2.860" width="0.630" height="0.630" rx="0.315" fill="#c79b5c"/><rect x="3.495" y="2.860" width="0.630" height="0.630" rx="0.315" fill="#c79b5c"/><rect x="-4.125" y="4.130" width="0.630" height="0.630" rx="0.315" fill="#c79b5c"/><rect x="-2.855" y="4.130" width="0.630" height="0.630" rx="0.315" fill="#c79b5c"/><rect x="-1.585" y="4.130" width="0.630" height="0.630" rx="0.315" fill="#c79b5c"/><rect x="0.955" y="4.130" width="0.630" height="0.630" rx="0.315" fill="#c79b5c"/><rect x="2.225" y="4.130" width="0.630" height="0.630" rx="0.315" fill="#c79b5c"/><rect x="3.495" y="4.130" width="0.630" height="0.630" rx="0.315" fill="#c79b5c"/></svg>