<svg xmlns="http://www.w3.org/2000/svg" viewBox="-6.58 -1.50 33.48 25.86" preserveAspectRatio="xMidYMid meet" style="width:100%;height:100%"><rect x="-6.58" y="-1.50" width="33.48" height="25.86" fill="#12151c"/><rect x="0.000" y="-0.000" width="20.320" height="22.860" fill="#1e222b" stroke="#4ea1ff" stroke-width="0.25"/><polyline points="6.350,3.810 7.620,3.810" fill="none" stroke="#4ea1ff" stroke-width="0.25" stroke-linejoin="round"/><polyline points="6.350,11.430 7.620,11.430" fill="none" stroke="#4ea1ff" stroke-width="0.25" stroke-linejoin="round"/><polyline points="7.620,6.350 6.350,6.350" fill="none" stroke="#4ea1ff" stroke-width="0.25" stroke-linejoin="round"/><polyline points="7.620,13.970 6.350,13.970" fill="none" stroke="#4ea1ff" stroke-width="0.25" stroke-linejoin="round"/><polyline points="11.684,5.080 12.700,5.080" fill="none" stroke="#4ea1ff" stroke-width="0.25" stroke-linejoin="round"/><polyline points="11.684,5.080 7.620,7.620 7.620,2.540 11.684,5.080" fill="#1e222b" stroke="#4ea1ff" stroke-width="0.25" stroke-linejoin="round"/><polyline points="11.684,12.700 12.700,12.700" fill="none" stroke="#4ea1ff" stroke-width="0.25" stroke-linejoin="round"/><polyline points="11.684,12.700 7.620,15.240 7.620,10.160 11.684,12.700" fill="#1e222b" stroke="#4ea1ff" stroke-width="0.25" stroke-linejoin="round"/><line x1="-5.080" y1="3.810" x2="0.000" y2="3.810" stroke="#e6e9ef" stroke-width="0.2"/><circle cx="-5.080" cy="3.810" r="0.4" fill="#4ea1ff"/><text x="0.500" y="4.160" fill="#e6e9ef" font-size="1.1" text-anchor="start" font-family="sans-serif">+RIN1</text><text x="-0.300" y="3.460" fill="#9aa3b2" font-size="0.9" text-anchor="end" font-family="sans-serif">2</text><line x1="-5.080" y1="6.350" x2="0.000" y2="6.350" stroke="#e6e9ef" stroke-width="0.2"/><circle cx="-5.080" cy="6.350" r="0.4" fill="#4ea1ff"/><text x="0.500" y="6.700" fill="#e6e9ef" font-size="1.1" text-anchor="start" font-family="sans-serif">-RIN1</text><text x="-0.300" y="6.000" fill="#9aa3b2" font-size="0.9" text-anchor="end" font-family="sans-serif">1</text><line x1="-5.080" y1="11.430" x2="0.000" y2="11.430" stroke="#e6e9ef" stroke-width="0.2"/><circle cx="-5.080" cy="11.430" r="0.4" fill="#4ea1ff"/><text x="0.500" y="11.780" fill="#e6e9ef" font-size="1.1" text-anchor="start" font-family="sans-serif">+RIN2</text><text x="-0.300" y="11.080" fill="#9aa3b2" font-size="0.9" text-anchor="end" font-family="sans-serif">3</text><line x1="-5.080" y1="13.970" x2="0.000" y2="13.970" stroke="#e6e9ef" stroke-width="0.2"/><circle cx="-5.080" cy="13.970" r="0.4" fill="#4ea1ff"/><text x="0.500" y="14.320" fill="#e6e9ef" font-size="1.1" text-anchor="start" font-family="sans-serif">-RIN2</text><text x="-0.300" y="13.620" fill="#9aa3b2" font-size="0.9" text-anchor="end" font-family="sans-serif">4</text><line x1="-5.080" y1="20.320" x2="0.000" y2="20.320" stroke="#e6e9ef" stroke-width="0.2"/><circle cx="-5.080" cy="20.320" r="0.4" fill="#4ea1ff"/><text x="0.500" y="20.670" fill="#e6e9ef" font-size="1.1" text-anchor="start" font-family="sans-serif">VCC</text><text x="-0.300" y="19.970" fill="#9aa3b2" font-size="0.9" text-anchor="end" font-family="sans-serif">8</text><line x1="25.400" y1="5.080" x2="20.320" y2="5.080" stroke="#e6e9ef" stroke-width="0.2"/><circle cx="25.400" cy="5.080" r="0.4" fill="#4ea1ff"/><text x="19.820" y="5.430" fill="#e6e9ef" font-size="1.1" text-anchor="end" font-family="sans-serif">ROUT1</text><text x="20.620" y="4.730" fill="#9aa3b2" font-size="0.9" text-anchor="start" font-family="sans-serif">7</text><line x1="25.400" y1="12.700" x2="20.320" y2="12.700" stroke="#e6e9ef" stroke-width="0.2"/><circle cx="25.400" cy="12.700" r="0.4" fill="#4ea1ff"/><text x="19.820" y="13.050" fill="#e6e9ef" font-size="1.1" text-anchor="end" font-family="sans-serif">ROUT2</text><text x="20.620" y="12.350" fill="#9aa3b2" font-size="0.9" text-anchor="start" font-family="sans-serif">6</text><line x1="25.400" y1="20.320" x2="20.320" y2="20.320" stroke="#e6e9ef" stroke-width="0.2"/><circle cx="25.400" cy="20.320" r="0.4" fill="#4ea1ff"/><text x="19.820" y="20.670" fill="#e6e9ef" font-size="1.1" text-anchor="end" font-family="sans-serif">GND</text><text x="20.620" y="19.970" fill="#9aa3b2" font-size="0.9" text-anchor="start" font-family="sans-serif">5</text></svg>