<svg xmlns="http://www.w3.org/2000/svg" viewBox="-1.91 -1.46 3.82 2.92" preserveAspectRatio="xMidYMid meet" style="width:100%;height:100%"><rect x="-1.91" y="-1.46" width="3.82" height="2.92" fill="#12151c"/><line x1="-0.500" y1="0.000" x2="0.500" y2="0.000" stroke="#4a5160" stroke-width="0.080" stroke-linecap="round" opacity="0.7"/><line x1="0.000" y1="0.460" x2="0.000" y2="-0.460" stroke="#4a5160" stroke-width="0.080" stroke-linecap="round" opacity="0.7"/><line x1="-0.910" y1="-0.460" x2="0.910" y2="-0.460" stroke="#d24d4d" stroke-width="0.080" stroke-linecap="round" opacity="0.7"/><line x1="-0.910" y1="0.460" x2="-0.910" y2="-0.460" stroke="#d24d4d" stroke-width="0.080" stroke-linecap="round" opacity="0.7"/><line x1="-0.910" y1="0.460" x2="0.910" y2="0.460" stroke="#d24d4d" stroke-width="0.080" stroke-linecap="round" opacity="0.7"/><line x1="0.910" y1="0.460" x2="0.910" y2="-0.460" stroke="#d24d4d" stroke-width="0.080" stroke-linecap="round" opacity="0.7"/><line x1="-0.500" y1="-0.250" x2="0.500" y2="-0.250" stroke="#6b7280" stroke-width="0.100" stroke-linecap="round" opacity="0.8"/><line x1="-0.500" y1="0.250" x2="-0.500" y2="-0.250" stroke="#6b7280" stroke-width="0.100" stroke-linecap="round" opacity="0.8"/><line x1="-0.500" y1="0.250" x2="0.500" y2="0.250" stroke="#6b7280" stroke-width="0.100" stroke-linecap="round" opacity="0.8"/><line x1="0.500" y1="0.250" x2="0.500" y2="-0.250" stroke="#6b7280" stroke-width="0.100" stroke-linecap="round" opacity="0.8"/><rect x="-0.780" y="-0.290" width="0.620" height="0.580" rx="0.000" fill="#c79b5c"/><rect x="0.160" y="-0.290" width="0.620" height="0.580" rx="0.000" fill="#c79b5c"/><polygon points="-0.92,1.34 -0.02,1.34 -0.47,0.74" fill="#ffffff"/></svg>