<svg xmlns="http://www.w3.org/2000/svg" viewBox="-10.46 -4.62 20.91 9.97" preserveAspectRatio="xMidYMid meet" style="width:100%;height:100%"><rect x="-10.46" y="-4.62" width="20.91" height="9.97" fill="#12151c"/><circle cx="-8.325" cy="4.100" r="0.125" fill="none" stroke="#e6e9ef" stroke-width="0.12" opacity="1"/><circle cx="-8.323" cy="4.100" r="0.250" fill="none" stroke="#6b7280" stroke-width="0.12" opacity="0.8"/><circle cx="-8.955" cy="0.000" r="0.250" fill="none" stroke="#6b7280" stroke-width="0.1"/><circle cx="8.955" cy="0.000" r="0.250" fill="none" stroke="#6b7280" stroke-width="0.1"/><rect x="-7.895" y="0.503" width="0.300" height="3.120" rx="0.000" fill="#c79b5c"/><rect x="-7.895" y="-3.623" width="0.300" height="3.120" rx="0.000" fill="#c79b5c"/><rect x="-7.395" y="0.503" width="0.300" height="3.120" rx="0.000" fill="#c79b5c"/><rect x="-7.395" y="-3.623" width="0.300" height="3.120" rx="0.000" fill="#c79b5c"/><rect x="-6.895" y="0.503" width="0.300" height="3.120" rx="0.000" fill="#c79b5c"/><rect x="-6.895" y="-3.623" width="0.300" height="3.120" rx="0.000" fill="#c79b5c"/><rect x="-6.395" y="0.503" width="0.300" height="3.120" rx="0.000" fill="#c79b5c"/><rect x="-6.395" y="-3.623" width="0.300" height="3.120" rx="0.000" fill="#c79b5c"/><rect x="-5.895" y="0.503" width="0.300" height="3.120" rx="0.000" fill="#c79b5c"/><rect x="-5.895" y="-3.623" width="0.300" height="3.120" rx="0.000" fill="#c79b5c"/><rect x="-5.395" y="0.503" width="0.300" height="3.120" rx="0.000" fill="#c79b5c"/><rect x="-5.395" y="-3.623" width="0.300" height="3.120" rx="0.000" fill="#c79b5c"/><rect x="-4.895" y="0.503" width="0.300" height="3.120" rx="0.000" fill="#c79b5c"/><rect x="-4.895" y="-3.623" width="0.300" height="3.120" rx="0.000" fill="#c79b5c"/><rect x="-4.395" y="0.503" width="0.300" height="3.120" rx="0.000" fill="#c79b5c"/><rect x="-4.395" y="-3.623" width="0.300" height="3.120" rx="0.000" fill="#c79b5c"/><rect x="-3.895" y="0.503" width="0.300" height="3.120" rx="0.000" fill="#c79b5c"/><rect x="-3.895" y="-3.623" width="0.300" height="3.120" rx="0.000" fill="#c79b5c"/><rect x="-3.395" y="0.503" width="0.300" height="3.120" rx="0.000" fill="#c79b5c"/><rect x="-3.395" y="-3.623" width="0.300" height="3.120" rx="0.000" fill="#c79b5c"/><rect x="-2.895" y="0.503" width="0.300" height="3.120" rx="0.000" fill="#c79b5c"/><rect x="-2.895" y="-3.623" width="0.300" height="3.120" rx="0.000" fill="#c79b5c"/><rect x="-2.395" y="0.503" width="0.300" height="3.120" rx="0.000" fill="#c79b5c"/><rect x="-2.395" y="-3.623" width="0.300" height="3.120" rx="0.000" fill="#c79b5c"/><rect x="-1.895" y="0.503" width="0.300" height="3.120" rx="0.000" fill="#c79b5c"/><rect x="-1.895" y="-3.623" width="0.300" height="3.120" rx="0.000" fill="#c79b5c"/><rect x="-1.395" y="0.503" width="0.300" height="3.120" rx="0.000" fill="#c79b5c"/><rect x="-1.395" y="-3.623" width="0.300" height="3.120" rx="0.000" fill="#c79b5c"/><rect x="-0.895" y="0.503" width="0.300" height="3.120" rx="0.000" fill="#c79b5c"/><rect x="-0.895" y="-3.623" width="0.300" height="3.120" rx="0.000" fill="#c79b5c"/><rect x="0.605" y="0.503" width="0.300" height="3.120" rx="0.000" fill="#c79b5c"/><rect x="0.605" y="-3.623" width="0.300" height="3.120" rx="0.000" fill="#c79b5c"/><rect x="1.105" y="0.503" width="0.300" height="3.120" rx="0.000" fill="#c79b5c"/><rect x="1.105" y="-3.623" width="0.300" height="3.120" rx="0.000" fill="#c79b5c"/><rect x="1.605" y="0.503" width="0.300" height="3.120" rx="0.000" fill="#c79b5c"/><rect x="1.605" y="-3.623" width="0.300" height="3.120" rx="0.000" fill="#c79b5c"/><rect x="2.105" y="0.503" width="0.300" height="3.120" rx="0.000" fill="#c79b5c"/><rect x="2.105" y="-3.623" width="0.300" height="3.120" rx="0.000" fill="#c79b5c"/><rect x="2.605" y="0.503" width="0.300" height="3.120" rx="0.000" fill="#c79b5c"/><rect x="2.605" y="-3.623" width="0.300" height="3.120" rx="0.000" fill="#c79b5c"/><rect x="3.105" y="0.503" width="0.300" height="3.120" rx="0.000" fill="#c79b5c"/><rect x="3.105" y="-3.623" width="0.300" height="3.120" rx="0.000" fill="#c79b5c"/><rect x="3.605" y="0.503" width="0.300" height="3.120" rx="0.000" fill="#c79b5c"/><rect x="3.605" y="-3.623" width="0.300" height="3.120" rx="0.000" fill="#c79b5c"/><rect x="4.105" y="0.503" width="0.300" height="3.120" rx="0.000" fill="#c79b5c"/><rect x="4.105" y="-3.623" width="0.300" height="3.120" rx="0.000" fill="#c79b5c"/><rect x="4.605" y="0.503" width="0.300" height="3.120" rx="0.000" fill="#c79b5c"/><rect x="4.605" y="-3.623" width="0.300" height="3.120" rx="0.000" fill="#c79b5c"/><rect x="5.105" y="0.503" width="0.300" height="3.120" rx="0.000" fill="#c79b5c"/><rect x="5.105" y="-3.623" width="0.300" height="3.120" rx="0.000" fill="#c79b5c"/><rect x="5.605" y="0.503" width="0.300" height="3.120" rx="0.000" fill="#c79b5c"/><rect x="5.605" y="-3.623" width="0.300" height="3.120" rx="0.000" fill="#c79b5c"/><rect x="6.105" y="0.503" width="0.300" height="3.120" rx="0.000" fill="#c79b5c"/><rect x="6.105" y="-3.623" width="0.300" height="3.120" rx="0.000" fill="#c79b5c"/><rect x="6.605" y="0.503" width="0.300" height="3.120" rx="0.000" fill="#c79b5c"/><rect x="6.605" y="-3.623" width="0.300" height="3.120" rx="0.000" fill="#c79b5c"/><rect x="7.105" y="0.503" width="0.300" height="3.120" rx="0.000" fill="#c79b5c"/><rect x="7.105" y="-3.623" width="0.300" height="3.120" rx="0.000" fill="#c79b5c"/><rect x="7.605" y="0.503" width="0.300" height="3.120" rx="0.000" fill="#c79b5c"/><rect x="7.605" y="-3.623" width="0.300" height="3.120" rx="0.000" fill="#c79b5c"/></svg>