<svg xmlns="http://www.w3.org/2000/svg" viewBox="-1.50 -7.05 55.86 9.82" preserveAspectRatio="xMidYMid meet" style="width:100%;height:100%"><rect x="-1.50" y="-7.05" width="55.86" height="9.82" fill="#12151c"/><g transform="translate(0.00 0)"><circle cx="2.540" cy="-1.016" r="0.254" fill="none" stroke="#4ea1ff" stroke-width="0.25"/><path d="M 2.540 -0.000 C 2.540 0.421 3.108 0.762 3.810 0.762" fill="none" stroke="#4ea1ff" stroke-width="0.25"/><path d="M 3.810 -0.762 C 3.108 -0.762 2.540 -0.421 2.540 -0.000" fill="none" stroke="#4ea1ff" stroke-width="0.25"/><line x1="0.000" y1="-0.000" x2="2.540" y2="-0.000" stroke="#e6e9ef" stroke-width="0.2"/><circle cx="0.000" cy="-0.000" r="0.4" fill="#4ea1ff"/><text x="2.240" y="-0.350" fill="#9aa3b2" font-size="0.9" text-anchor="end" font-family="sans-serif">1</text><text x="1.91" y="-3.55" fill="#9aa3b2" font-size="1.6" text-anchor="middle" font-family="sans-serif">A</text></g><g transform="translate(9.81 0)"><rect x="2.540" y="-1.270" width="0.000" height="2.540" fill="#1e222b" stroke="#4ea1ff" stroke-width="0.25"/><path d="M 2.540 -0.000 C 2.540 0.421 3.108 0.762 3.810 0.762" fill="none" stroke="#4ea1ff" stroke-width="0.25"/><path d="M 3.810 -0.762 C 3.108 -0.762 2.540 -0.421 2.540 -0.000" fill="none" stroke="#4ea1ff" stroke-width="0.25"/><line x1="0.000" y1="-0.000" x2="2.540" y2="-0.000" stroke="#e6e9ef" stroke-width="0.2"/><circle cx="0.000" cy="-0.000" r="0.4" fill="#4ea1ff"/><text x="2.240" y="-0.350" fill="#9aa3b2" font-size="0.9" text-anchor="end" font-family="sans-serif">2</text><text x="1.91" y="-3.55" fill="#9aa3b2" font-size="1.6" text-anchor="middle" font-family="sans-serif">B</text></g><g transform="translate(19.62 0)"><rect x="2.540" y="-1.270" width="0.000" height="2.540" fill="#1e222b" stroke="#4ea1ff" stroke-width="0.25"/><path d="M 2.540 -0.000 C 2.540 0.421 3.108 0.762 3.810 0.762" fill="none" stroke="#4ea1ff" stroke-width="0.25"/><path d="M 3.810 -0.762 C 3.108 -0.762 2.540 -0.421 2.540 -0.000" fill="none" stroke="#4ea1ff" stroke-width="0.25"/><line x1="0.000" y1="-0.000" x2="2.540" y2="-0.000" stroke="#e6e9ef" stroke-width="0.2"/><circle cx="0.000" cy="-0.000" r="0.4" fill="#4ea1ff"/><text x="2.240" y="-0.350" fill="#9aa3b2" font-size="0.9" text-anchor="end" font-family="sans-serif">3</text><text x="1.91" y="-3.55" fill="#9aa3b2" font-size="1.6" text-anchor="middle" font-family="sans-serif">C</text></g><g transform="translate(29.43 0)"><rect x="2.540" y="-1.270" width="0.000" height="2.540" fill="#1e222b" stroke="#4ea1ff" stroke-width="0.25"/><path d="M 2.540 -0.000 C 2.540 0.421 3.108 0.762 3.810 0.762" fill="none" stroke="#4ea1ff" stroke-width="0.25"/><path d="M 3.810 -0.762 C 3.108 -0.762 2.540 -0.421 2.540 -0.000" fill="none" stroke="#4ea1ff" stroke-width="0.25"/><line x1="0.000" y1="-0.000" x2="2.540" y2="-0.000" stroke="#e6e9ef" stroke-width="0.2"/><circle cx="0.000" cy="-0.000" r="0.4" fill="#4ea1ff"/><text x="2.240" y="-0.350" fill="#9aa3b2" font-size="0.9" text-anchor="end" font-family="sans-serif">4</text><text x="1.91" y="-3.55" fill="#9aa3b2" font-size="1.6" text-anchor="middle" font-family="sans-serif">D</text></g><g transform="translate(39.24 0)"><rect x="2.540" y="-1.270" width="0.000" height="2.540" fill="#1e222b" stroke="#4ea1ff" stroke-width="0.25"/><path d="M 2.540 -0.000 C 2.540 0.421 3.108 0.762 3.810 0.762" fill="none" stroke="#4ea1ff" stroke-width="0.25"/><path d="M 3.810 -0.762 C 3.108 -0.762 2.540 -0.421 2.540 -0.000" fill="none" stroke="#4ea1ff" stroke-width="0.25"/><line x1="0.000" y1="-0.000" x2="2.540" y2="-0.000" stroke="#e6e9ef" stroke-width="0.2"/><circle cx="0.000" cy="-0.000" r="0.4" fill="#4ea1ff"/><text x="2.240" y="-0.350" fill="#9aa3b2" font-size="0.9" text-anchor="end" font-family="sans-serif">5</text><text x="1.91" y="-3.55" fill="#9aa3b2" font-size="1.6" text-anchor="middle" font-family="sans-serif">E</text></g><g transform="translate(49.05 0)"><rect x="2.540" y="-1.270" width="0.000" height="2.540" fill="#1e222b" stroke="#4ea1ff" stroke-width="0.25"/><path d="M 2.540 -0.000 C 2.540 0.421 3.108 0.762 3.810 0.762" fill="none" stroke="#4ea1ff" stroke-width="0.25"/><path d="M 3.810 -0.762 C 3.108 -0.762 2.540 -0.421 2.540 -0.000" fill="none" stroke="#4ea1ff" stroke-width="0.25"/><line x1="0.000" y1="-0.000" x2="2.540" y2="-0.000" stroke="#e6e9ef" stroke-width="0.2"/><circle cx="0.000" cy="-0.000" r="0.4" fill="#4ea1ff"/><text x="2.240" y="-0.350" fill="#9aa3b2" font-size="0.9" text-anchor="end" font-family="sans-serif">6</text><text x="1.91" y="-3.55" fill="#9aa3b2" font-size="1.6" text-anchor="middle" font-family="sans-serif">F</text></g></svg>