<svg xmlns="http://www.w3.org/2000/svg" viewBox="-5.86 -13.25 41.12 26.50" preserveAspectRatio="xMidYMid meet" style="width:100%;height:100%"><rect x="-5.86" y="-13.25" width="41.12" height="26.50" fill="#12151c"/><line x1="-4.860" y1="-12.250" x2="34.260" y2="-12.250" stroke="#d24d4d" stroke-width="0.080" stroke-linecap="round" opacity="0.7"/><line x1="34.260" y1="-12.250" x2="34.260" y2="12.250" stroke="#d24d4d" stroke-width="0.080" stroke-linecap="round" opacity="0.7"/><line x1="34.260" y1="12.250" x2="-4.860" y2="12.250" stroke="#d24d4d" stroke-width="0.080" stroke-linecap="round" opacity="0.7"/><line x1="-4.860" y1="12.250" x2="-4.860" y2="-12.250" stroke="#d24d4d" stroke-width="0.080" stroke-linecap="round" opacity="0.7"/><rect x="-4.610" y="0.470" width="1.600" height="1.600" rx="0.800" fill="#c79b5c"/><circle cx="-3.810" cy="1.270" r="0.450" fill="#12151c"/><rect x="-2.070" y="1.740" width="1.600" height="1.600" rx="0.800" fill="#c79b5c"/><circle cx="-1.270" cy="2.540" r="0.450" fill="#12151c"/><rect x="0.470" y="1.740" width="1.600" height="1.600" rx="0.800" fill="#c79b5c"/><circle cx="1.270" cy="2.540" r="0.450" fill="#12151c"/><rect x="3.010" y="0.470" width="1.600" height="1.600" rx="0.800" fill="#c79b5c"/><circle cx="3.810" cy="1.270" r="0.450" fill="#12151c"/><rect x="3.010" y="-2.070" width="1.600" height="1.600" rx="0.800" fill="#c79b5c"/><circle cx="3.810" cy="-1.270" r="0.450" fill="#12151c"/><rect x="0.470" y="-3.340" width="1.600" height="1.600" rx="0.800" fill="#c79b5c"/><circle cx="1.270" cy="-2.540" r="0.450" fill="#12151c"/><rect x="-2.070" y="-3.340" width="1.600" height="1.600" rx="0.800" fill="#c79b5c"/><circle cx="-1.270" cy="-2.540" r="0.450" fill="#12151c"/><rect x="-4.610" y="-2.070" width="1.600" height="1.600" rx="0.800" fill="#c79b5c"/><circle cx="-3.810" cy="-1.270" r="0.450" fill="#12151c"/><rect x="-2.070" y="-0.800" width="1.600" height="1.600" rx="0.800" fill="#c79b5c"/><circle cx="-1.270" cy="0.000" r="0.450" fill="#12151c"/><rect x="0.470" y="-0.800" width="1.600" height="1.600" rx="0.800" fill="#c79b5c"/><circle cx="1.270" cy="0.000" r="0.450" fill="#12151c"/></svg>