<svg xmlns="http://www.w3.org/2000/svg" viewBox="-17.75 -11.75 35.50 23.60" preserveAspectRatio="xMidYMid meet" style="width:100%;height:100%"><rect x="-17.75" y="-11.75" width="35.50" height="23.60" fill="#12151c"/><line x1="-16.000" y1="8.000" x2="-16.000" y2="-8.000" stroke="#e6e9ef" stroke-width="0.200" stroke-linecap="round" opacity="1"/><line x1="-14.000" y1="-10.000" x2="14.000" y2="-10.000" stroke="#e6e9ef" stroke-width="0.200" stroke-linecap="round" opacity="1"/><line x1="-14.000" y1="10.000" x2="14.000" y2="10.000" stroke="#e6e9ef" stroke-width="0.200" stroke-linecap="round" opacity="1"/><line x1="16.000" y1="8.000" x2="16.000" y2="-8.000" stroke="#e6e9ef" stroke-width="0.200" stroke-linecap="round" opacity="1"/><line x1="-16.750" y1="-10.750" x2="16.750" y2="-10.750" stroke="#d24d4d" stroke-width="0.080" stroke-linecap="round" opacity="0.7"/><line x1="-16.750" y1="10.750" x2="-16.750" y2="-10.750" stroke="#d24d4d" stroke-width="0.080" stroke-linecap="round" opacity="0.7"/><line x1="-16.750" y1="10.750" x2="16.750" y2="10.750" stroke="#d24d4d" stroke-width="0.080" stroke-linecap="round" opacity="0.7"/><line x1="16.750" y1="10.750" x2="16.750" y2="-10.750" stroke="#d24d4d" stroke-width="0.080" stroke-linecap="round" opacity="0.7"/><line x1="-16.000" y1="8.000" x2="-16.000" y2="-8.000" stroke="#6b7280" stroke-width="0.100" stroke-linecap="round" opacity="0.8"/><line x1="-14.000" y1="-10.000" x2="14.000" y2="-10.000" stroke="#6b7280" stroke-width="0.100" stroke-linecap="round" opacity="0.8"/><line x1="-14.000" y1="10.000" x2="14.000" y2="10.000" stroke="#6b7280" stroke-width="0.100" stroke-linecap="round" opacity="0.8"/><line x1="16.000" y1="8.000" x2="16.000" y2="-8.000" stroke="#6b7280" stroke-width="0.100" stroke-linecap="round" opacity="0.8"/><path d="M -16.000 -8.000 A 2.000 2.000 0 0 1 -14.000 -10.000" fill="none" stroke="#e6e9ef" stroke-width="0.12" opacity="1"/><path d="M -14.000 10.000 A 2.000 2.000 0 0 1 -16.000 8.000" fill="none" stroke="#e6e9ef" stroke-width="0.12" opacity="1"/><path d="M 14.000 -10.000 A 2.000 2.000 0 0 1 16.000 -8.000" fill="none" stroke="#e6e9ef" stroke-width="0.12" opacity="1"/><path d="M 16.000 8.000 A 2.000 2.000 0 0 1 14.000 10.000" fill="none" stroke="#e6e9ef" stroke-width="0.12" opacity="1"/><path d="M -16.000 -8.000 A 2.000 2.000 0 0 1 -14.000 -10.000" fill="none" stroke="#6b7280" stroke-width="0.12" opacity="0.8"/><path d="M -14.000 10.000 A 2.000 2.000 0 0 1 -16.000 8.000" fill="none" stroke="#6b7280" stroke-width="0.12" opacity="0.8"/><path d="M 14.000 -10.000 A 2.000 2.000 0 0 1 16.000 -8.000" fill="none" stroke="#6b7280" stroke-width="0.12" opacity="0.8"/><path d="M 16.000 8.000 A 2.000 2.000 0 0 1 14.000 10.000" fill="none" stroke="#6b7280" stroke-width="0.12" opacity="0.8"/><circle cx="-14.000" cy="10.700" r="0.150" fill="#e6e9ef" opacity="1"/><rect x="-14.770" y="6.820" width="1.600" height="1.600" rx="0.800" fill="#c79b5c"/><circle cx="-13.970" cy="7.620" r="0.450" fill="#12151c"/><rect x="-12.230" y="6.820" width="1.600" height="1.600" rx="0.800" fill="#c79b5c"/><circle cx="-11.430" cy="7.620" r="0.450" fill="#12151c"/><rect x="-9.690" y="6.820" width="1.600" height="1.600" rx="0.800" fill="#c79b5c"/><circle cx="-8.890" cy="7.620" r="0.450" fill="#12151c"/><rect x="8.090" y="6.820" width="1.600" height="1.600" rx="0.800" fill="#c79b5c"/><circle cx="8.890" cy="7.620" r="0.450" fill="#12151c"/><rect x="10.630" y="6.820" width="1.600" height="1.600" rx="0.800" fill="#c79b5c"/><circle cx="11.430" cy="7.620" r="0.450" fill="#12151c"/><rect x="13.170" y="6.820" width="1.600" height="1.600" rx="0.800" fill="#c79b5c"/><circle cx="13.970" cy="7.620" r="0.450" fill="#12151c"/><rect x="13.170" y="-8.420" width="1.600" height="1.600" rx="0.800" fill="#c79b5c"/><circle cx="13.970" cy="-7.620" r="0.450" fill="#12151c"/><rect x="10.630" y="-8.420" width="1.600" height="1.600" rx="0.800" fill="#c79b5c"/><circle cx="11.430" cy="-7.620" r="0.450" fill="#12151c"/><rect x="8.090" y="-8.420" width="1.600" height="1.600" rx="0.800" fill="#c79b5c"/><circle cx="8.890" cy="-7.620" r="0.450" fill="#12151c"/><rect x="-9.690" y="-8.420" width="1.600" height="1.600" rx="0.800" fill="#c79b5c"/><circle cx="-8.890" cy="-7.620" r="0.450" fill="#12151c"/><rect x="-12.230" y="-8.420" width="1.600" height="1.600" rx="0.800" fill="#c79b5c"/><circle cx="-11.430" cy="-7.620" r="0.450" fill="#12151c"/><rect x="-14.770" y="-8.420" width="1.600" height="1.600" rx="0.800" fill="#c79b5c"/><circle cx="-13.970" cy="-7.620" r="0.450" fill="#12151c"/></svg>