<svg xmlns="http://www.w3.org/2000/svg" viewBox="-8.92 -4.38 17.85 8.75" preserveAspectRatio="xMidYMid meet" style="width:100%;height:100%"><rect x="-8.92" y="-4.38" width="17.85" height="8.75" fill="#12151c"/><line x1="-7.675" y1="-2.500" x2="-6.200" y2="-2.500" stroke="#e6e9ef" stroke-width="0.200" stroke-linecap="round" opacity="1"/><line x1="-7.675" y1="1.500" x2="-7.675" y2="-2.500" stroke="#e6e9ef" stroke-width="0.200" stroke-linecap="round" opacity="1"/><line x1="-7.675" y1="1.500" x2="-6.675" y2="2.500" stroke="#e6e9ef" stroke-width="0.200" stroke-linecap="round" opacity="1"/><line x1="-7.179" y1="-2.004" x2="-6.925" y2="-1.750" stroke="#e6e9ef" stroke-width="0.200" stroke-linecap="round" opacity="1"/><line x1="-7.179" y1="-2.004" x2="-6.200" y2="-2.004" stroke="#e6e9ef" stroke-width="0.200" stroke-linecap="round" opacity="1"/><line x1="-7.179" y1="1.125" x2="-7.179" y2="-2.004" stroke="#e6e9ef" stroke-width="0.200" stroke-linecap="round" opacity="1"/><line x1="-7.179" y1="1.125" x2="-6.925" y2="1.020" stroke="#e6e9ef" stroke-width="0.200" stroke-linecap="round" opacity="1"/><line x1="-7.179" y1="1.125" x2="-6.300" y2="2.004" stroke="#e6e9ef" stroke-width="0.200" stroke-linecap="round" opacity="1"/><line x1="-6.925" y1="-1.750" x2="-6.200" y2="-1.750" stroke="#e6e9ef" stroke-width="0.200" stroke-linecap="round" opacity="1"/><line x1="-6.925" y1="1.020" x2="-6.925" y2="-1.750" stroke="#e6e9ef" stroke-width="0.200" stroke-linecap="round" opacity="1"/><line x1="-6.925" y1="1.020" x2="-6.195" y2="1.750" stroke="#e6e9ef" stroke-width="0.200" stroke-linecap="round" opacity="1"/><line x1="-6.675" y1="2.500" x2="-6.200" y2="2.500" stroke="#e6e9ef" stroke-width="0.200" stroke-linecap="round" opacity="1"/><line x1="-6.300" y1="2.004" x2="-6.200" y2="2.004" stroke="#e6e9ef" stroke-width="0.200" stroke-linecap="round" opacity="1"/><line x1="-6.300" y1="2.004" x2="-6.195" y2="1.750" stroke="#e6e9ef" stroke-width="0.200" stroke-linecap="round" opacity="1"/><line x1="6.200" y1="-2.500" x2="7.675" y2="-2.500" stroke="#e6e9ef" stroke-width="0.200" stroke-linecap="round" opacity="1"/><line x1="6.200" y1="-2.004" x2="7.179" y2="-2.004" stroke="#e6e9ef" stroke-width="0.200" stroke-linecap="round" opacity="1"/><line x1="6.200" y1="-1.750" x2="6.925" y2="-1.750" stroke="#e6e9ef" stroke-width="0.200" stroke-linecap="round" opacity="1"/><line x1="6.200" y1="1.750" x2="6.925" y2="1.750" stroke="#e6e9ef" stroke-width="0.200" stroke-linecap="round" opacity="1"/><line x1="6.200" y1="2.004" x2="7.179" y2="2.004" stroke="#e6e9ef" stroke-width="0.200" stroke-linecap="round" opacity="1"/><line x1="6.200" y1="2.500" x2="7.675" y2="2.500" stroke="#e6e9ef" stroke-width="0.200" stroke-linecap="round" opacity="1"/><line x1="6.925" y1="-1.750" x2="7.179" y2="-2.004" stroke="#e6e9ef" stroke-width="0.200" stroke-linecap="round" opacity="1"/><line x1="6.925" y1="1.750" x2="6.925" y2="-1.750" stroke="#e6e9ef" stroke-width="0.200" stroke-linecap="round" opacity="1"/><line x1="6.925" y1="1.750" x2="7.179" y2="2.004" stroke="#e6e9ef" stroke-width="0.200" stroke-linecap="round" opacity="1"/><line x1="7.179" y1="2.004" x2="7.179" y2="-2.004" stroke="#e6e9ef" stroke-width="0.200" stroke-linecap="round" opacity="1"/><line x1="7.675" y1="2.500" x2="7.675" y2="-2.500" stroke="#e6e9ef" stroke-width="0.200" stroke-linecap="round" opacity="1"/><line x1="-5.850" y1="-3.125" x2="-5.600" y2="-2.280" stroke="#4a5160" stroke-width="0.080" stroke-linecap="round" opacity="0.7"/><line x1="-5.850" y1="-3.125" x2="-5.350" y2="-3.125" stroke="#4a5160" stroke-width="0.080" stroke-linecap="round" opacity="0.7"/><line x1="-5.850" y1="-1.435" x2="-5.850" y2="-3.125" stroke="#4a5160" stroke-width="0.080" stroke-linecap="round" opacity="0.7"/><line x1="-5.850" y1="-1.435" x2="-5.350" y2="-1.435" stroke="#4a5160" stroke-width="0.080" stroke-linecap="round" opacity="0.7"/><line x1="-5.850" y1="1.435" x2="-5.350" y2="1.435" stroke="#4a5160" stroke-width="0.080" stroke-linecap="round" opacity="0.7"/><line x1="-5.850" y1="3.125" x2="-5.850" y2="1.435" stroke="#4a5160" stroke-width="0.080" stroke-linecap="round" opacity="0.7"/><line x1="-5.850" y1="3.125" x2="-5.600" y2="2.280" stroke="#4a5160" stroke-width="0.080" stroke-linecap="round" opacity="0.7"/><line x1="-5.850" y1="3.125" x2="-5.350" y2="3.125" stroke="#4a5160" stroke-width="0.080" stroke-linecap="round" opacity="0.7"/><line x1="-5.600" y1="-2.280" x2="-5.350" y2="-3.125" stroke="#4a5160" stroke-width="0.080" stroke-linecap="round" opacity="0.7"/><line x1="-5.600" y1="2.280" x2="-5.350" y2="3.125" stroke="#4a5160" stroke-width="0.080" stroke-linecap="round" opacity="0.7"/><line x1="-5.350" y1="-1.435" x2="-5.350" y2="-3.125" stroke="#4a5160" stroke-width="0.080" stroke-linecap="round" opacity="0.7"/><line x1="-5.350" y1="3.125" x2="-5.350" y2="1.435" stroke="#4a5160" stroke-width="0.080" stroke-linecap="round" opacity="0.7"/><line x1="-5.050" y1="-3.125" x2="-4.800" y2="-2.280" stroke="#4a5160" stroke-width="0.080" stroke-linecap="round" opacity="0.7"/><line x1="-5.050" y1="-3.125" x2="-4.550" y2="-3.125" stroke="#4a5160" stroke-width="0.080" stroke-linecap="round" opacity="0.7"/><line x1="-5.050" y1="-1.435" x2="-5.050" y2="-3.125" stroke="#4a5160" stroke-width="0.080" stroke-linecap="round" opacity="0.7"/><line x1="-5.050" y1="-1.435" x2="-4.550" y2="-1.435" stroke="#4a5160" stroke-width="0.080" stroke-linecap="round" opacity="0.7"/><line x1="-5.050" y1="1.435" x2="-4.550" y2="1.435" stroke="#4a5160" stroke-width="0.080" stroke-linecap="round" opacity="0.7"/><line x1="-5.050" y1="3.125" x2="-5.050" y2="1.435" stroke="#4a5160" stroke-width="0.080" stroke-linecap="round" opacity="0.7"/><line x1="-5.050" y1="3.125" x2="-4.800" y2="2.280" stroke="#4a5160" stroke-width="0.080" stroke-linecap="round" opacity="0.7"/><line x1="-5.050" y1="3.125" x2="-4.550" y2="3.125" stroke="#4a5160" stroke-width="0.080" stroke-linecap="round" opacity="0.7"/><line x1="-4.800" y1="-2.280" x2="-4.550" y2="-3.125" stroke="#4a5160" stroke-width="0.080" stroke-linecap="round" opacity="0.7"/><line x1="-4.800" y1="2.280" x2="-4.550" y2="3.125" stroke="#4a5160" stroke-width="0.080" stroke-linecap="round" opacity="0.7"/><line x1="-4.550" y1="-1.435" x2="-4.550" y2="-3.125" stroke="#4a5160" stroke-width="0.080" stroke-linecap="round" opacity="0.7"/><line x1="-4.550" y1="3.125" x2="-4.550" y2="1.435" stroke="#4a5160" stroke-width="0.080" stroke-linecap="round" opacity="0.7"/><line x1="-4.250" y1="-3.125" x2="-4.000" y2="-2.280" stroke="#4a5160" stroke-width="0.080" stroke-linecap="round" opacity="0.7"/><line x1="-4.250" y1="-3.125" x2="-3.750" y2="-3.125" stroke="#4a5160" stroke-width="0.080" stroke-linecap="round" opacity="0.7"/><line x1="-4.250" y1="-1.435" x2="-4.250" y2="-3.125" stroke="#4a5160" stroke-width="0.080" stroke-linecap="round" opacity="0.7"/><line x1="-4.250" y1="-1.435" x2="-3.750" y2="-1.435" stroke="#4a5160" stroke-width="0.080" stroke-linecap="round" opacity="0.7"/><line x1="-4.250" y1="1.435" x2="-3.750" y2="1.435" stroke="#4a5160" stroke-width="0.080" stroke-linecap="round" opacity="0.7"/><line x1="-4.250" y1="3.125" x2="-4.250" y2="1.435" stroke="#4a5160" stroke-width="0.080" stroke-linecap="round" opacity="0.7"/><line x1="-4.250" y1="3.125" x2="-4.000" y2="2.280" stroke="#4a5160" stroke-width="0.080" stroke-linecap="round" opacity="0.7"/><line x1="-4.250" y1="3.125" x2="-3.750" y2="3.125" stroke="#4a5160" stroke-width="0.080" stroke-linecap="round" opacity="0.7"/><line x1="-4.000" y1="-2.280" x2="-3.750" y2="-3.125" stroke="#4a5160" stroke-width="0.080" stroke-linecap="round" opacity="0.7"/><line x1="-4.000" y1="2.280" x2="-3.750" y2="3.125" stroke="#4a5160" stroke-width="0.080" stroke-linecap="round" opacity="0.7"/><line x1="-3.750" y1="-1.435" x2="-3.750" y2="-3.125" stroke="#4a5160" stroke-width="0.080" stroke-linecap="round" opacity="0.7"/><line x1="-3.750" y1="3.125" x2="-3.750" y2="1.435" stroke="#4a5160" stroke-width="0.080" stroke-linecap="round" opacity="0.7"/><line x1="-3.450" y1="-3.125" x2="-3.200" y2="-2.280" stroke="#4a5160" stroke-width="0.080" stroke-linecap="round" opacity="0.7"/><line x1="-3.450" y1="-3.125" x2="-2.950" y2="-3.125" stroke="#4a5160" stroke-width="0.080" stroke-linecap="round" opacity="0.7"/><line x1="-3.450" y1="-1.435" x2="-3.450" y2="-3.125" stroke="#4a5160" stroke-width="0.080" stroke-linecap="round" opacity="0.7"/><line x1="-3.450" y1="-1.435" x2="-2.950" y2="-1.435" stroke="#4a5160" stroke-width="0.080" stroke-linecap="round" opacity="0.7"/><line x1="-3.450" y1="1.435" x2="-2.950" y2="1.435" stroke="#4a5160" stroke-width="0.080" stroke-linecap="round" opacity="0.7"/><line x1="-3.450" y1="3.125" x2="-3.450" y2="1.435" stroke="#4a5160" stroke-width="0.080" stroke-linecap="round" opacity="0.7"/><line x1="-3.450" y1="3.125" x2="-3.200" y2="2.280" stroke="#4a5160" stroke-width="0.080" stroke-linecap="round" opacity="0.7"/><line x1="-3.450" y1="3.125" x2="-2.950" y2="3.125" stroke="#4a5160" stroke-width="0.080" stroke-linecap="round" opacity="0.7"/><line x1="-3.200" y1="-2.280" x2="-2.950" y2="-3.125" stroke="#4a5160" stroke-width="0.080" stroke-linecap="round" opacity="0.7"/><line x1="-3.200" y1="2.280" x2="-2.950" y2="3.125" stroke="#4a5160" stroke-width="0.080" stroke-linecap="round" opacity="0.7"/><line x1="-2.950" y1="-1.435" x2="-2.950" y2="-3.125" stroke="#4a5160" stroke-width="0.080" stroke-linecap="round" opacity="0.7"/><line x1="-2.950" y1="3.125" x2="-2.950" y2="1.435" stroke="#4a5160" stroke-width="0.080" stroke-linecap="round" opacity="0.7"/><line x1="-2.650" y1="-3.125" x2="-2.400" y2="-2.280" stroke="#4a5160" stroke-width="0.080" stroke-linecap="round" opacity="0.7"/><line x1="-2.650" y1="-3.125" x2="-2.150" y2="-3.125" stroke="#4a5160" stroke-width="0.080" stroke-linecap="round" opacity="0.7"/><line x1="-2.650" y1="-1.435" x2="-2.650" y2="-3.125" stroke="#4a5160" stroke-width="0.080" stroke-linecap="round" opacity="0.7"/><line x1="-2.650" y1="-1.435" x2="-2.150" y2="-1.435" stroke="#4a5160" stroke-width="0.080" stroke-linecap="round" opacity="0.7"/><line x1="-2.650" y1="1.435" x2="-2.150" y2="1.435" stroke="#4a5160" stroke-width="0.080" stroke-linecap="round" opacity="0.7"/><line x1="-2.650" y1="3.125" x2="-2.650" y2="1.435" stroke="#4a5160" stroke-width="0.080" stroke-linecap="round" opacity="0.7"/><line x1="-2.650" y1="3.125" x2="-2.400" y2="2.280" stroke="#4a5160" stroke-width="0.080" stroke-linecap="round" opacity="0.7"/><line x1="-2.650" y1="3.125" x2="-2.150" y2="3.125" stroke="#4a5160" stroke-width="0.080" stroke-linecap="round" opacity="0.7"/><line x1="-2.400" y1="-2.280" x2="-2.150" y2="-3.125" stroke="#4a5160" stroke-width="0.080" stroke-linecap="round" opacity="0.7"/><line x1="-2.400" y1="2.280" x2="-2.150" y2="3.125" stroke="#4a5160" stroke-width="0.080" stroke-linecap="round" opacity="0.7"/><line x1="-2.150" y1="-1.435" x2="-2.150" y2="-3.125" stroke="#4a5160" stroke-width="0.080" stroke-linecap="round" opacity="0.7"/><line x1="-2.150" y1="3.125" x2="-2.150" y2="1.435" stroke="#4a5160" stroke-width="0.080" stroke-linecap="round" opacity="0.7"/><line x1="-1.850" y1="-3.125" x2="-1.600" y2="-2.280" stroke="#4a5160" stroke-width="0.080" stroke-linecap="round" opacity="0.7"/><line x1="-1.850" y1="-3.125" x2="-1.350" y2="-3.125" stroke="#4a5160" stroke-width="0.080" stroke-linecap="round" opacity="0.7"/><line x1="-1.850" y1="-1.435" x2="-1.850" y2="-3.125" stroke="#4a5160" stroke-width="0.080" stroke-linecap="round" opacity="0.7"/><line x1="-1.850" y1="-1.435" x2="-1.350" y2="-1.435" stroke="#4a5160" stroke-width="0.080" stroke-linecap="round" opacity="0.7"/><line x1="-1.850" y1="1.435" x2="-1.350" y2="1.435" stroke="#4a5160" stroke-width="0.080" stroke-linecap="round" opacity="0.7"/><line x1="-1.850" y1="3.125" x2="-1.850" y2="1.435" stroke="#4a5160" stroke-width="0.080" stroke-linecap="round" opacity="0.7"/><line x1="-1.850" y1="3.125" x2="-1.600" y2="2.280" stroke="#4a5160" stroke-width="0.080" stroke-linecap="round" opacity="0.7"/><line x1="-1.850" y1="3.125" x2="-1.350" y2="3.125" stroke="#4a5160" stroke-width="0.080" stroke-linecap="round" opacity="0.7"/><line x1="-1.600" y1="-2.280" x2="-1.350" y2="-3.125" stroke="#4a5160" stroke-width="0.080" stroke-linecap="round" opacity="0.7"/><line x1="-1.600" y1="2.280" x2="-1.350" y2="3.125" stroke="#4a5160" stroke-width="0.080" stroke-linecap="round" opacity="0.7"/><line x1="-1.350" y1="-1.435" x2="-1.350" y2="-3.125" stroke="#4a5160" stroke-width="0.080" stroke-linecap="round" opacity="0.7"/><line x1="-1.350" y1="3.125" x2="-1.350" y2="1.435" stroke="#4a5160" stroke-width="0.080" stroke-linecap="round" opacity="0.7"/><line x1="-1.050" y1="-3.125" x2="-0.800" y2="-2.280" stroke="#4a5160" stroke-width="0.080" stroke-linecap="round" opacity="0.7"/><line x1="-1.050" y1="-3.125" x2="-0.550" y2="-3.125" stroke="#4a5160" stroke-width="0.080" stroke-linecap="round" opacity="0.7"/><line x1="-1.050" y1="-1.435" x2="-1.050" y2="-3.125" stroke="#4a5160" stroke-width="0.080" stroke-linecap="round" opacity="0.7"/><line x1="-1.050" y1="-1.435" x2="-0.550" y2="-1.435" stroke="#4a5160" stroke-width="0.080" stroke-linecap="round" opacity="0.7"/><line x1="-1.050" y1="1.435" x2="-0.550" y2="1.435" stroke="#4a5160" stroke-width="0.080" stroke-linecap="round" opacity="0.7"/><line x1="-1.050" y1="3.125" x2="-1.050" y2="1.435" stroke="#4a5160" stroke-width="0.080" stroke-linecap="round" opacity="0.7"/><line x1="-1.050" y1="3.125" x2="-0.800" y2="2.280" stroke="#4a5160" stroke-width="0.080" stroke-linecap="round" opacity="0.7"/><line x1="-1.050" y1="3.125" x2="-0.550" y2="3.125" stroke="#4a5160" stroke-width="0.080" stroke-linecap="round" opacity="0.7"/><line x1="-0.800" y1="-2.280" x2="-0.550" y2="-3.125" stroke="#4a5160" stroke-width="0.080" stroke-linecap="round" opacity="0.7"/><line x1="-0.800" y1="2.280" x2="-0.550" y2="3.125" stroke="#4a5160" stroke-width="0.080" stroke-linecap="round" opacity="0.7"/><line x1="-0.550" y1="-1.435" x2="-0.550" y2="-3.125" stroke="#4a5160" stroke-width="0.080" stroke-linecap="round" opacity="0.7"/><line x1="-0.550" y1="3.125" x2="-0.550" y2="1.435" stroke="#4a5160" stroke-width="0.080" stroke-linecap="round" opacity="0.7"/><line x1="-0.500" y1="0.000" x2="0.000" y2="0.000" stroke="#4a5160" stroke-width="0.080" stroke-linecap="round" opacity="0.7"/><line x1="-0.250" y1="-3.125" x2="0.000" y2="-2.280" stroke="#4a5160" stroke-width="0.080" stroke-linecap="round" opacity="0.7"/><line x1="-0.250" y1="-3.125" x2="0.250" y2="-3.125" stroke="#4a5160" stroke-width="0.080" stroke-linecap="round" opacity="0.7"/><line x1="-0.250" y1="-1.435" x2="-0.250" y2="-3.125" stroke="#4a5160" stroke-width="0.080" stroke-linecap="round" opacity="0.7"/><line x1="-0.250" y1="-1.435" x2="0.250" y2="-1.435" stroke="#4a5160" stroke-width="0.080" stroke-linecap="round" opacity="0.7"/><line x1="-0.250" y1="1.435" x2="0.250" y2="1.435" stroke="#4a5160" stroke-width="0.080" stroke-linecap="round" opacity="0.7"/><line x1="-0.250" y1="3.125" x2="-0.250" y2="1.435" stroke="#4a5160" stroke-width="0.080" stroke-linecap="round" opacity="0.7"/><line x1="-0.250" y1="3.125" x2="0.000" y2="2.280" stroke="#4a5160" stroke-width="0.080" stroke-linecap="round" opacity="0.7"/><line x1="-0.250" y1="3.125" x2="0.250" y2="3.125" stroke="#4a5160" stroke-width="0.080" stroke-linecap="round" opacity="0.7"/><line x1="0.000" y1="-2.280" x2="0.250" y2="-3.125" stroke="#4a5160" stroke-width="0.080" stroke-linecap="round" opacity="0.7"/><line x1="0.000" y1="0.000" x2="0.000" y2="-0.500" stroke="#4a5160" stroke-width="0.080" stroke-linecap="round" opacity="0.7"/><line x1="0.000" y1="0.000" x2="0.500" y2="0.000" stroke="#4a5160" stroke-width="0.080" stroke-linecap="round" opacity="0.7"/><line x1="0.000" y1="0.500" x2="0.000" y2="0.000" stroke="#4a5160" stroke-width="0.080" stroke-linecap="round" opacity="0.7"/><line x1="0.000" y1="2.280" x2="0.250" y2="3.125" stroke="#4a5160" stroke-width="0.080" stroke-linecap="round" opacity="0.7"/><line x1="0.250" y1="-1.435" x2="0.250" y2="-3.125" stroke="#4a5160" stroke-width="0.080" stroke-linecap="round" opacity="0.7"/><line x1="0.250" y1="3.125" x2="0.250" y2="1.435" stroke="#4a5160" stroke-width="0.080" stroke-linecap="round" opacity="0.7"/><line x1="0.550" y1="-3.125" x2="0.800" y2="-2.280" stroke="#4a5160" stroke-width="0.080" stroke-linecap="round" opacity="0.7"/><line x1="0.550" y1="-3.125" x2="1.050" y2="-3.125" stroke="#4a5160" stroke-width="0.080" stroke-linecap="round" opacity="0.7"/><line x1="0.550" y1="-1.435" x2="0.550" y2="-3.125" stroke="#4a5160" stroke-width="0.080" stroke-linecap="round" opacity="0.7"/><line x1="0.550" y1="-1.435" x2="1.050" y2="-1.435" stroke="#4a5160" stroke-width="0.080" stroke-linecap="round" opacity="0.7"/><line x1="0.550" y1="1.435" x2="1.050" y2="1.435" stroke="#4a5160" stroke-width="0.080" stroke-linecap="round" opacity="0.7"/><line x1="0.550" y1="3.125" x2="0.550" y2="1.435" stroke="#4a5160" stroke-width="0.080" stroke-linecap="round" opacity="0.7"/><line x1="0.550" y1="3.125" x2="0.800" y2="2.280" stroke="#4a5160" stroke-width="0.080" stroke-linecap="round" opacity="0.7"/><line x1="0.550" y1="3.125" x2="1.050" y2="3.125" stroke="#4a5160" stroke-width="0.080" stroke-linecap="round" opacity="0.7"/><line x1="0.800" y1="-2.280" x2="1.050" y2="-3.125" stroke="#4a5160" stroke-width="0.080" stroke-linecap="round" opacity="0.7"/><line x1="0.800" y1="2.280" x2="1.050" y2="3.125" stroke="#4a5160" stroke-width="0.080" stroke-linecap="round" opacity="0.7"/><line x1="1.050" y1="-1.435" x2="1.050" y2="-3.125" stroke="#4a5160" stroke-width="0.080" stroke-linecap="round" opacity="0.7"/><line x1="1.050" y1="3.125" x2="1.050" y2="1.435" stroke="#4a5160" stroke-width="0.080" stroke-linecap="round" opacity="0.7"/><line x1="1.350" y1="-3.125" x2="1.600" y2="-2.280" stroke="#4a5160" stroke-width="0.080" stroke-linecap="round" opacity="0.7"/><line x1="1.350" y1="-3.125" x2="1.850" y2="-3.125" stroke="#4a5160" stroke-width="0.080" stroke-linecap="round" opacity="0.7"/><line x1="1.350" y1="-1.435" x2="1.350" y2="-3.125" stroke="#4a5160" stroke-width="0.080" stroke-linecap="round" opacity="0.7"/><line x1="1.350" y1="-1.435" x2="1.850" y2="-1.435" stroke="#4a5160" stroke-width="0.080" stroke-linecap="round" opacity="0.7"/><line x1="1.350" y1="1.435" x2="1.850" y2="1.435" stroke="#4a5160" stroke-width="0.080" stroke-linecap="round" opacity="0.7"/><line x1="1.350" y1="3.125" x2="1.350" y2="1.435" stroke="#4a5160" stroke-width="0.080" stroke-linecap="round" opacity="0.7"/><line x1="1.350" y1="3.125" x2="1.600" y2="2.280" stroke="#4a5160" stroke-width="0.080" stroke-linecap="round" opacity="0.7"/><line x1="1.350" y1="3.125" x2="1.850" y2="3.125" stroke="#4a5160" stroke-width="0.080" stroke-linecap="round" opacity="0.7"/><line x1="1.600" y1="-2.280" x2="1.850" y2="-3.125" stroke="#4a5160" stroke-width="0.080" stroke-linecap="round" opacity="0.7"/><line x1="1.600" y1="2.280" x2="1.850" y2="3.125" stroke="#4a5160" stroke-width="0.080" stroke-linecap="round" opacity="0.7"/><line x1="1.850" y1="-1.435" x2="1.850" y2="-3.125" stroke="#4a5160" stroke-width="0.080" stroke-linecap="round" opacity="0.7"/><line x1="1.850" y1="3.125" x2="1.850" y2="1.435" stroke="#4a5160" stroke-width="0.080" stroke-linecap="round" opacity="0.7"/><line x1="2.150" y1="-3.125" x2="2.400" y2="-2.280" stroke="#4a5160" stroke-width="0.080" stroke-linecap="round" opacity="0.7"/><line x1="2.150" y1="-3.125" x2="2.650" y2="-3.125" stroke="#4a5160" stroke-width="0.080" stroke-linecap="round" opacity="0.7"/><line x1="2.150" y1="-1.435" x2="2.150" y2="-3.125" stroke="#4a5160" stroke-width="0.080" stroke-linecap="round" opacity="0.7"/><line x1="2.150" y1="-1.435" x2="2.650" y2="-1.435" stroke="#4a5160" stroke-width="0.080" stroke-linecap="round" opacity="0.7"/><line x1="2.150" y1="1.435" x2="2.650" y2="1.435" stroke="#4a5160" stroke-width="0.080" stroke-linecap="round" opacity="0.7"/><line x1="2.150" y1="3.125" x2="2.150" y2="1.435" stroke="#4a5160" stroke-width="0.080" stroke-linecap="round" opacity="0.7"/><line x1="2.150" y1="3.125" x2="2.400" y2="2.280" stroke="#4a5160" stroke-width="0.080" stroke-linecap="round" opacity="0.7"/><line x1="2.150" y1="3.125" x2="2.650" y2="3.125" stroke="#4a5160" stroke-width="0.080" stroke-linecap="round" opacity="0.7"/><line x1="2.400" y1="-2.280" x2="2.650" y2="-3.125" stroke="#4a5160" stroke-width="0.080" stroke-linecap="round" opacity="0.7"/><line x1="2.400" y1="2.280" x2="2.650" y2="3.125" stroke="#4a5160" stroke-width="0.080" stroke-linecap="round" opacity="0.7"/><line x1="2.650" y1="-1.435" x2="2.650" y2="-3.125" stroke="#4a5160" stroke-width="0.080" stroke-linecap="round" opacity="0.7"/><line x1="2.650" y1="3.125" x2="2.650" y2="1.435" stroke="#4a5160" stroke-width="0.080" stroke-linecap="round" opacity="0.7"/><line x1="2.950" y1="-3.125" x2="3.200" y2="-2.280" stroke="#4a5160" stroke-width="0.080" stroke-linecap="round" opacity="0.7"/><line x1="2.950" y1="-3.125" x2="3.450" y2="-3.125" stroke="#4a5160" stroke-width="0.080" stroke-linecap="round" opacity="0.7"/><line x1="2.950" y1="-1.435" x2="2.950" y2="-3.125" stroke="#4a5160" stroke-width="0.080" stroke-linecap="round" opacity="0.7"/><line x1="2.950" y1="-1.435" x2="3.450" y2="-1.435" stroke="#4a5160" stroke-width="0.080" stroke-linecap="round" opacity="0.7"/><line x1="2.950" y1="1.435" x2="3.450" y2="1.435" stroke="#4a5160" stroke-width="0.080" stroke-linecap="round" opacity="0.7"/><line x1="2.950" y1="3.125" x2="2.950" y2="1.435" stroke="#4a5160" stroke-width="0.080" stroke-linecap="round" opacity="0.7"/><line x1="2.950" y1="3.125" x2="3.200" y2="2.280" stroke="#4a5160" stroke-width="0.080" stroke-linecap="round" opacity="0.7"/><line x1="2.950" y1="3.125" x2="3.450" y2="3.125" stroke="#4a5160" stroke-width="0.080" stroke-linecap="round" opacity="0.7"/><line x1="3.200" y1="-2.280" x2="3.450" y2="-3.125" stroke="#4a5160" stroke-width="0.080" stroke-linecap="round" opacity="0.7"/><line x1="3.200" y1="2.280" x2="3.450" y2="3.125" stroke="#4a5160" stroke-width="0.080" stroke-linecap="round" opacity="0.7"/><line x1="3.450" y1="-1.435" x2="3.450" y2="-3.125" stroke="#4a5160" stroke-width="0.080" stroke-linecap="round" opacity="0.7"/><line x1="3.450" y1="3.125" x2="3.450" y2="1.435" stroke="#4a5160" stroke-width="0.080" stroke-linecap="round" opacity="0.7"/><line x1="3.750" y1="-3.125" x2="4.000" y2="-2.280" stroke="#4a5160" stroke-width="0.080" stroke-linecap="round" opacity="0.7"/><line x1="3.750" y1="-3.125" x2="4.250" y2="-3.125" stroke="#4a5160" stroke-width="0.080" stroke-linecap="round" opacity="0.7"/><line x1="3.750" y1="-1.435" x2="3.750" y2="-3.125" stroke="#4a5160" stroke-width="0.080" stroke-linecap="round" opacity="0.7"/><line x1="3.750" y1="-1.435" x2="4.250" y2="-1.435" stroke="#4a5160" stroke-width="0.080" stroke-linecap="round" opacity="0.7"/><line x1="3.750" y1="1.435" x2="4.250" y2="1.435" stroke="#4a5160" stroke-width="0.080" stroke-linecap="round" opacity="0.7"/><line x1="3.750" y1="3.125" x2="3.750" y2="1.435" stroke="#4a5160" stroke-width="0.080" stroke-linecap="round" opacity="0.7"/><line x1="3.750" y1="3.125" x2="4.000" y2="2.280" stroke="#4a5160" stroke-width="0.080" stroke-linecap="round" opacity="0.7"/><line x1="3.750" y1="3.125" x2="4.250" y2="3.125" stroke="#4a5160" stroke-width="0.080" stroke-linecap="round" opacity="0.7"/><line x1="4.000" y1="-2.280" x2="4.250" y2="-3.125" stroke="#4a5160" stroke-width="0.080" stroke-linecap="round" opacity="0.7"/><line x1="4.000" y1="2.280" x2="4.250" y2="3.125" stroke="#4a5160" stroke-width="0.080" stroke-linecap="round" opacity="0.7"/><line x1="4.250" y1="-1.435" x2="4.250" y2="-3.125" stroke="#4a5160" stroke-width="0.080" stroke-linecap="round" opacity="0.7"/><line x1="4.250" y1="3.125" x2="4.250" y2="1.435" stroke="#4a5160" stroke-width="0.080" stroke-linecap="round" opacity="0.7"/><line x1="4.550" y1="-3.125" x2="4.800" y2="-2.280" stroke="#4a5160" stroke-width="0.080" stroke-linecap="round" opacity="0.7"/><line x1="4.550" y1="-3.125" x2="5.050" y2="-3.125" stroke="#4a5160" stroke-width="0.080" stroke-linecap="round" opacity="0.7"/><line x1="4.550" y1="-1.435" x2="4.550" y2="-3.125" stroke="#4a5160" stroke-width="0.080" stroke-linecap="round" opacity="0.7"/><line x1="4.550" y1="-1.435" x2="5.050" y2="-1.435" stroke="#4a5160" stroke-width="0.080" stroke-linecap="round" opacity="0.7"/><line x1="4.550" y1="1.435" x2="5.050" y2="1.435" stroke="#4a5160" stroke-width="0.080" stroke-linecap="round" opacity="0.7"/><line x1="4.550" y1="3.125" x2="4.550" y2="1.435" stroke="#4a5160" stroke-width="0.080" stroke-linecap="round" opacity="0.7"/><line x1="4.550" y1="3.125" x2="4.800" y2="2.280" stroke="#4a5160" stroke-width="0.080" stroke-linecap="round" opacity="0.7"/><line x1="4.550" y1="3.125" x2="5.050" y2="3.125" stroke="#4a5160" stroke-width="0.080" stroke-linecap="round" opacity="0.7"/><line x1="4.800" y1="-2.280" x2="5.050" y2="-3.125" stroke="#4a5160" stroke-width="0.080" stroke-linecap="round" opacity="0.7"/><line x1="4.800" y1="2.280" x2="5.050" y2="3.125" stroke="#4a5160" stroke-width="0.080" stroke-linecap="round" opacity="0.7"/><line x1="5.050" y1="-1.435" x2="5.050" y2="-3.125" stroke="#4a5160" stroke-width="0.080" stroke-linecap="round" opacity="0.7"/><line x1="5.050" y1="3.125" x2="5.050" y2="1.435" stroke="#4a5160" stroke-width="0.080" stroke-linecap="round" opacity="0.7"/><line x1="5.350" y1="-3.125" x2="5.600" y2="-2.280" stroke="#4a5160" stroke-width="0.080" stroke-linecap="round" opacity="0.7"/><line x1="5.350" y1="-3.125" x2="5.850" y2="-3.125" stroke="#4a5160" stroke-width="0.080" stroke-linecap="round" opacity="0.7"/><line x1="5.350" y1="-1.435" x2="5.350" y2="-3.125" stroke="#4a5160" stroke-width="0.080" stroke-linecap="round" opacity="0.7"/><line x1="5.350" y1="-1.435" x2="5.850" y2="-1.435" stroke="#4a5160" stroke-width="0.080" stroke-linecap="round" opacity="0.7"/><line x1="5.350" y1="1.435" x2="5.850" y2="1.435" stroke="#4a5160" stroke-width="0.080" stroke-linecap="round" opacity="0.7"/><line x1="5.350" y1="3.125" x2="5.350" y2="1.435" stroke="#4a5160" stroke-width="0.080" stroke-linecap="round" opacity="0.7"/><line x1="5.350" y1="3.125" x2="5.600" y2="2.280" stroke="#4a5160" stroke-width="0.080" stroke-linecap="round" opacity="0.7"/><line x1="5.350" y1="3.125" x2="5.850" y2="3.125" stroke="#4a5160" stroke-width="0.080" stroke-linecap="round" opacity="0.7"/><line x1="5.600" y1="-2.280" x2="5.850" y2="-3.125" stroke="#4a5160" stroke-width="0.080" stroke-linecap="round" opacity="0.7"/><line x1="5.600" y1="2.280" x2="5.850" y2="3.125" stroke="#4a5160" stroke-width="0.080" stroke-linecap="round" opacity="0.7"/><line x1="5.850" y1="-1.435" x2="5.850" y2="-3.125" stroke="#4a5160" stroke-width="0.080" stroke-linecap="round" opacity="0.7"/><line x1="5.850" y1="3.125" x2="5.850" y2="1.435" stroke="#4a5160" stroke-width="0.080" stroke-linecap="round" opacity="0.7"/><line x1="-7.925" y1="-3.375" x2="7.925" y2="-3.375" stroke="#d24d4d" stroke-width="0.080" stroke-linecap="round" opacity="0.7"/><line x1="-7.925" y1="3.375" x2="-7.925" y2="-3.375" stroke="#d24d4d" stroke-width="0.080" stroke-linecap="round" opacity="0.7"/><line x1="-7.925" y1="3.375" x2="7.925" y2="3.375" stroke="#d24d4d" stroke-width="0.080" stroke-linecap="round" opacity="0.7"/><line x1="7.925" y1="3.375" x2="7.925" y2="-3.375" stroke="#d24d4d" stroke-width="0.080" stroke-linecap="round" opacity="0.7"/><line x1="-7.675" y1="-2.500" x2="7.675" y2="-2.500" stroke="#6b7280" stroke-width="0.100" stroke-linecap="round" opacity="0.8"/><line x1="-7.675" y1="1.500" x2="-7.675" y2="-2.500" stroke="#6b7280" stroke-width="0.100" stroke-linecap="round" opacity="0.8"/><line x1="-7.675" y1="1.500" x2="-6.675" y2="2.500" stroke="#6b7280" stroke-width="0.100" stroke-linecap="round" opacity="0.8"/><line x1="-7.179" y1="-2.004" x2="-6.925" y2="-1.750" stroke="#6b7280" stroke-width="0.100" stroke-linecap="round" opacity="0.8"/><line x1="-7.179" y1="-2.004" x2="7.179" y2="-2.004" stroke="#6b7280" stroke-width="0.100" stroke-linecap="round" opacity="0.8"/><line x1="-7.179" y1="1.125" x2="-7.179" y2="-2.004" stroke="#6b7280" stroke-width="0.100" stroke-linecap="round" opacity="0.8"/><line x1="-7.179" y1="1.125" x2="-6.925" y2="1.020" stroke="#6b7280" stroke-width="0.100" stroke-linecap="round" opacity="0.8"/><line x1="-7.179" y1="1.125" x2="-6.300" y2="2.004" stroke="#6b7280" stroke-width="0.100" stroke-linecap="round" opacity="0.8"/><line x1="-6.925" y1="-1.750" x2="6.925" y2="-1.750" stroke="#6b7280" stroke-width="0.100" stroke-linecap="round" opacity="0.8"/><line x1="-6.925" y1="1.020" x2="-6.925" y2="-1.750" stroke="#6b7280" stroke-width="0.100" stroke-linecap="round" opacity="0.8"/><line x1="-6.925" y1="1.020" x2="-6.195" y2="1.750" stroke="#6b7280" stroke-width="0.100" stroke-linecap="round" opacity="0.8"/><line x1="-6.675" y1="2.500" x2="7.675" y2="2.500" stroke="#6b7280" stroke-width="0.100" stroke-linecap="round" opacity="0.8"/><line x1="-6.300" y1="2.004" x2="-6.195" y2="1.750" stroke="#6b7280" stroke-width="0.100" stroke-linecap="round" opacity="0.8"/><line x1="-6.300" y1="2.004" x2="7.179" y2="2.004" stroke="#6b7280" stroke-width="0.100" stroke-linecap="round" opacity="0.8"/><line x1="-6.195" y1="1.750" x2="6.925" y2="1.750" stroke="#6b7280" stroke-width="0.100" stroke-linecap="round" opacity="0.8"/><line x1="6.925" y1="-1.750" x2="7.179" y2="-2.004" stroke="#6b7280" stroke-width="0.100" stroke-linecap="round" opacity="0.8"/><line x1="6.925" y1="1.750" x2="6.925" y2="-1.750" stroke="#6b7280" stroke-width="0.100" stroke-linecap="round" opacity="0.8"/><line x1="6.925" y1="1.750" x2="7.179" y2="2.004" stroke="#6b7280" stroke-width="0.100" stroke-linecap="round" opacity="0.8"/><line x1="7.179" y1="2.004" x2="7.179" y2="-2.004" stroke="#6b7280" stroke-width="0.100" stroke-linecap="round" opacity="0.8"/><line x1="7.675" y1="2.500" x2="7.675" y2="-2.500" stroke="#6b7280" stroke-width="0.100" stroke-linecap="round" opacity="0.8"/><circle cx="-6.400" cy="3.200" r="0.150" fill="#e6e9ef" opacity="1"/><circle cx="-6.400" cy="3.200" r="0.150" fill="#6b7280" opacity="0.8"/><circle cx="-5.600" cy="-0.810" r="0.157" fill="#6b7280" opacity="0.8"/><circle cx="-5.600" cy="0.810" r="0.158" fill="#6b7280" opacity="0.8"/><circle cx="-4.800" cy="-0.810" r="0.157" fill="#6b7280" opacity="0.8"/><circle cx="-4.800" cy="0.810" r="0.158" fill="#6b7280" opacity="0.8"/><circle cx="-4.000" cy="-0.810" r="0.157" fill="#6b7280" opacity="0.8"/><circle cx="-4.000" cy="0.810" r="0.158" fill="#6b7280" opacity="0.8"/><circle cx="-3.200" cy="-0.810" r="0.157" fill="#6b7280" opacity="0.8"/><circle cx="-3.200" cy="0.810" r="0.158" fill="#6b7280" opacity="0.8"/><circle cx="-2.400" cy="-0.810" r="0.157" fill="#6b7280" opacity="0.8"/><circle cx="-2.400" cy="0.810" r="0.158" fill="#6b7280" opacity="0.8"/><circle cx="-1.600" cy="-0.810" r="0.157" fill="#6b7280" opacity="0.8"/><circle cx="-1.600" cy="0.810" r="0.158" fill="#6b7280" opacity="0.8"/><circle cx="-0.800" cy="-0.810" r="0.157" fill="#6b7280" opacity="0.8"/><circle cx="-0.800" cy="0.810" r="0.158" fill="#6b7280" opacity="0.8"/><circle cx="0.000" cy="-0.810" r="0.157" fill="#6b7280" opacity="0.8"/><circle cx="0.000" cy="0.810" r="0.158" fill="#6b7280" opacity="0.8"/><circle cx="0.800" cy="-0.810" r="0.157" fill="#6b7280" opacity="0.8"/><circle cx="0.800" cy="0.810" r="0.158" fill="#6b7280" opacity="0.8"/><circle cx="1.600" cy="-0.810" r="0.157" fill="#6b7280" opacity="0.8"/><circle cx="1.600" cy="0.810" r="0.158" fill="#6b7280" opacity="0.8"/><circle cx="2.400" cy="-0.810" r="0.157" fill="#6b7280" opacity="0.8"/><circle cx="2.400" cy="0.810" r="0.158" fill="#6b7280" opacity="0.8"/><circle cx="3.200" cy="-0.810" r="0.157" fill="#6b7280" opacity="0.8"/><circle cx="3.200" cy="0.810" r="0.158" fill="#6b7280" opacity="0.8"/><circle cx="4.000" cy="-0.810" r="0.157" fill="#6b7280" opacity="0.8"/><circle cx="4.000" cy="0.810" r="0.158" fill="#6b7280" opacity="0.8"/><circle cx="4.800" cy="-0.810" r="0.157" fill="#6b7280" opacity="0.8"/><circle cx="4.800" cy="0.810" r="0.158" fill="#6b7280" opacity="0.8"/><circle cx="5.600" cy="-0.810" r="0.157" fill="#6b7280" opacity="0.8"/><circle cx="5.600" cy="0.810" r="0.158" fill="#6b7280" opacity="0.8"/><rect x="-5.850" y="1.435" width="0.500" height="1.690" rx="0.000" fill="#c79b5c"/><rect x="-5.850" y="-3.125" width="0.500" height="1.690" rx="0.000" fill="#c79b5c"/><rect x="-5.050" y="1.435" width="0.500" height="1.690" rx="0.000" fill="#c79b5c"/><rect x="-5.050" y="-3.125" width="0.500" height="1.690" rx="0.000" fill="#c79b5c"/><rect x="-4.250" y="1.435" width="0.500" height="1.690" rx="0.000" fill="#c79b5c"/><rect x="-4.250" y="-3.125" width="0.500" height="1.690" rx="0.000" fill="#c79b5c"/><rect x="-3.450" y="1.435" width="0.500" height="1.690" rx="0.000" fill="#c79b5c"/><rect x="-3.450" y="-3.125" width="0.500" height="1.690" rx="0.000" fill="#c79b5c"/><rect x="-2.650" y="1.435" width="0.500" height="1.690" rx="0.000" fill="#c79b5c"/><rect x="-2.650" y="-3.125" width="0.500" height="1.690" rx="0.000" fill="#c79b5c"/><rect x="-1.850" y="1.435" width="0.500" height="1.690" rx="0.000" fill="#c79b5c"/><rect x="-1.850" y="-3.125" width="0.500" height="1.690" rx="0.000" fill="#c79b5c"/><rect x="-1.050" y="1.435" width="0.500" height="1.690" rx="0.000" fill="#c79b5c"/><rect x="-1.050" y="-3.125" width="0.500" height="1.690" rx="0.000" fill="#c79b5c"/><rect x="-0.250" y="1.435" width="0.500" height="1.690" rx="0.000" fill="#c79b5c"/><rect x="-0.250" y="-3.125" width="0.500" height="1.690" rx="0.000" fill="#c79b5c"/><rect x="0.550" y="1.435" width="0.500" height="1.690" rx="0.000" fill="#c79b5c"/><rect x="0.550" y="-3.125" width="0.500" height="1.690" rx="0.000" fill="#c79b5c"/><rect x="1.350" y="1.435" width="0.500" height="1.690" rx="0.000" fill="#c79b5c"/><rect x="1.350" y="-3.125" width="0.500" height="1.690" rx="0.000" fill="#c79b5c"/><rect x="2.150" y="1.435" width="0.500" height="1.690" rx="0.000" fill="#c79b5c"/><rect x="2.150" y="-3.125" width="0.500" height="1.690" rx="0.000" fill="#c79b5c"/><rect x="2.950" y="1.435" width="0.500" height="1.690" rx="0.000" fill="#c79b5c"/><rect x="2.950" y="-3.125" width="0.500" height="1.690" rx="0.000" fill="#c79b5c"/><rect x="3.750" y="1.435" width="0.500" height="1.690" rx="0.000" fill="#c79b5c"/><rect x="3.750" y="-3.125" width="0.500" height="1.690" rx="0.000" fill="#c79b5c"/><rect x="4.550" y="1.435" width="0.500" height="1.690" rx="0.000" fill="#c79b5c"/><rect x="4.550" y="-3.125" width="0.500" height="1.690" rx="0.000" fill="#c79b5c"/><rect x="5.350" y="1.435" width="0.500" height="1.690" rx="0.000" fill="#c79b5c"/><rect x="5.350" y="-3.125" width="0.500" height="1.690" rx="0.000" fill="#c79b5c"/></svg>