<svg xmlns="http://www.w3.org/2000/svg" viewBox="-10.04 -6.12 20.08 12.25" preserveAspectRatio="xMidYMid meet" style="width:100%;height:100%"><rect x="-10.04" y="-6.12" width="20.08" height="12.25" fill="#12151c"/><line x1="-8.790" y1="-4.100" x2="-3.053" y2="-4.100" stroke="#e6e9ef" stroke-width="0.200" stroke-linecap="round" opacity="1"/><line x1="-8.790" y1="4.875" x2="-8.790" y2="-4.100" stroke="#e6e9ef" stroke-width="0.200" stroke-linecap="round" opacity="1"/><line x1="-8.790" y1="4.875" x2="-7.690" y2="4.875" stroke="#e6e9ef" stroke-width="0.200" stroke-linecap="round" opacity="1"/><line x1="-8.170" y1="-3.475" x2="-7.870" y2="-3.175" stroke="#e6e9ef" stroke-width="0.200" stroke-linecap="round" opacity="1"/><line x1="-8.170" y1="-3.475" x2="-1.986" y2="-3.475" stroke="#e6e9ef" stroke-width="0.200" stroke-linecap="round" opacity="1"/><line x1="-8.170" y1="3.475" x2="-8.170" y2="-3.475" stroke="#e6e9ef" stroke-width="0.200" stroke-linecap="round" opacity="1"/><line x1="-8.170" y1="3.475" x2="-7.870" y2="3.175" stroke="#e6e9ef" stroke-width="0.200" stroke-linecap="round" opacity="1"/><line x1="-8.170" y1="3.475" x2="8.170" y2="3.475" stroke="#e6e9ef" stroke-width="0.200" stroke-linecap="round" opacity="1"/><line x1="-7.870" y1="-3.175" x2="-2.012" y2="-3.175" stroke="#e6e9ef" stroke-width="0.200" stroke-linecap="round" opacity="1"/><line x1="-7.870" y1="-2.540" x2="7.870" y2="-2.540" stroke="#e6e9ef" stroke-width="0.200" stroke-linecap="round" opacity="1"/><line x1="-7.870" y1="2.540" x2="7.870" y2="2.540" stroke="#e6e9ef" stroke-width="0.200" stroke-linecap="round" opacity="1"/><line x1="-7.870" y1="3.175" x2="-7.870" y2="-3.175" stroke="#e6e9ef" stroke-width="0.200" stroke-linecap="round" opacity="1"/><line x1="-7.870" y1="3.175" x2="7.870" y2="3.175" stroke="#e6e9ef" stroke-width="0.200" stroke-linecap="round" opacity="1"/><line x1="-7.690" y1="4.875" x2="-7.690" y2="4.250" stroke="#e6e9ef" stroke-width="0.200" stroke-linecap="round" opacity="1"/><line x1="-7.540" y1="4.100" x2="-1.000" y2="4.100" stroke="#e6e9ef" stroke-width="0.200" stroke-linecap="round" opacity="1"/><line x1="-3.053" y1="-4.100" x2="-2.845" y2="-4.875" stroke="#e6e9ef" stroke-width="0.200" stroke-linecap="round" opacity="1"/><line x1="-2.845" y1="-4.875" x2="2.845" y2="-4.875" stroke="#e6e9ef" stroke-width="0.200" stroke-linecap="round" opacity="1"/><line x1="-2.012" y1="-3.175" x2="-1.899" y2="-4.475" stroke="#e6e9ef" stroke-width="0.200" stroke-linecap="round" opacity="1"/><line x1="-1.925" y1="-4.175" x2="1.925" y2="-4.175" stroke="#e6e9ef" stroke-width="0.200" stroke-linecap="round" opacity="1"/><line x1="-1.899" y1="-4.475" x2="1.899" y2="-4.475" stroke="#e6e9ef" stroke-width="0.200" stroke-linecap="round" opacity="1"/><line x1="-0.900" y1="4.875" x2="-0.900" y2="4.200" stroke="#e6e9ef" stroke-width="0.200" stroke-linecap="round" opacity="1"/><line x1="-0.900" y1="4.875" x2="0.900" y2="4.875" stroke="#e6e9ef" stroke-width="0.200" stroke-linecap="round" opacity="1"/><line x1="0.900" y1="4.875" x2="0.900" y2="4.200" stroke="#e6e9ef" stroke-width="0.200" stroke-linecap="round" opacity="1"/><line x1="1.000" y1="4.100" x2="7.540" y2="4.100" stroke="#e6e9ef" stroke-width="0.200" stroke-linecap="round" opacity="1"/><line x1="1.899" y1="-4.475" x2="2.012" y2="-3.175" stroke="#e6e9ef" stroke-width="0.200" stroke-linecap="round" opacity="1"/><line x1="1.986" y1="-3.475" x2="8.170" y2="-3.475" stroke="#e6e9ef" stroke-width="0.200" stroke-linecap="round" opacity="1"/><line x1="2.012" y1="-3.175" x2="7.870" y2="-3.175" stroke="#e6e9ef" stroke-width="0.200" stroke-linecap="round" opacity="1"/><line x1="2.845" y1="-4.875" x2="3.053" y2="-4.100" stroke="#e6e9ef" stroke-width="0.200" stroke-linecap="round" opacity="1"/><line x1="3.053" y1="-4.100" x2="8.790" y2="-4.100" stroke="#e6e9ef" stroke-width="0.200" stroke-linecap="round" opacity="1"/><line x1="7.690" y1="4.875" x2="7.690" y2="4.250" stroke="#e6e9ef" stroke-width="0.200" stroke-linecap="round" opacity="1"/><line x1="7.690" y1="4.875" x2="8.790" y2="4.875" stroke="#e6e9ef" stroke-width="0.200" stroke-linecap="round" opacity="1"/><line x1="7.870" y1="-3.175" x2="8.170" y2="-3.475" stroke="#e6e9ef" stroke-width="0.200" stroke-linecap="round" opacity="1"/><line x1="7.870" y1="3.175" x2="7.870" y2="-3.175" stroke="#e6e9ef" stroke-width="0.200" stroke-linecap="round" opacity="1"/><line x1="7.870" y1="3.175" x2="8.170" y2="3.475" stroke="#e6e9ef" stroke-width="0.200" stroke-linecap="round" opacity="1"/><line x1="8.170" y1="3.475" x2="8.170" y2="-3.475" stroke="#e6e9ef" stroke-width="0.200" stroke-linecap="round" opacity="1"/><line x1="8.790" y1="4.875" x2="8.790" y2="-4.100" stroke="#e6e9ef" stroke-width="0.200" stroke-linecap="round" opacity="1"/><line x1="-6.550" y1="-1.270" x2="-6.350" y2="-1.270" stroke="#4a5160" stroke-width="0.080" stroke-linecap="round" opacity="0.7"/><line x1="-6.550" y1="1.270" x2="-6.350" y2="1.270" stroke="#4a5160" stroke-width="0.080" stroke-linecap="round" opacity="0.7"/><line x1="-6.350" y1="-1.270" x2="-6.350" y2="-1.470" stroke="#4a5160" stroke-width="0.080" stroke-linecap="round" opacity="0.7"/><line x1="-6.350" y1="-1.270" x2="-6.150" y2="-1.270" stroke="#4a5160" stroke-width="0.080" stroke-linecap="round" opacity="0.7"/><line x1="-6.350" y1="-1.070" x2="-6.350" y2="-1.270" stroke="#4a5160" stroke-width="0.080" stroke-linecap="round" opacity="0.7"/><line x1="-6.350" y1="1.270" x2="-6.350" y2="1.070" stroke="#4a5160" stroke-width="0.080" stroke-linecap="round" opacity="0.7"/><line x1="-6.350" y1="1.270" x2="-6.150" y2="1.270" stroke="#4a5160" stroke-width="0.080" stroke-linecap="round" opacity="0.7"/><line x1="-6.350" y1="1.470" x2="-6.350" y2="1.270" stroke="#4a5160" stroke-width="0.080" stroke-linecap="round" opacity="0.7"/><line x1="-4.010" y1="-1.270" x2="-3.810" y2="-1.270" stroke="#4a5160" stroke-width="0.080" stroke-linecap="round" opacity="0.7"/><line x1="-4.010" y1="1.270" x2="-3.810" y2="1.270" stroke="#4a5160" stroke-width="0.080" stroke-linecap="round" opacity="0.7"/><line x1="-3.810" y1="-1.270" x2="-3.810" y2="-1.470" stroke="#4a5160" stroke-width="0.080" stroke-linecap="round" opacity="0.7"/><line x1="-3.810" y1="-1.270" x2="-3.610" y2="-1.270" stroke="#4a5160" stroke-width="0.080" stroke-linecap="round" opacity="0.7"/><line x1="-3.810" y1="-1.070" x2="-3.810" y2="-1.270" stroke="#4a5160" stroke-width="0.080" stroke-linecap="round" opacity="0.7"/><line x1="-3.810" y1="1.270" x2="-3.810" y2="1.070" stroke="#4a5160" stroke-width="0.080" stroke-linecap="round" opacity="0.7"/><line x1="-3.810" y1="1.270" x2="-3.610" y2="1.270" stroke="#4a5160" stroke-width="0.080" stroke-linecap="round" opacity="0.7"/><line x1="-3.810" y1="1.470" x2="-3.810" y2="1.270" stroke="#4a5160" stroke-width="0.080" stroke-linecap="round" opacity="0.7"/><line x1="-1.470" y1="-1.270" x2="-1.270" y2="-1.270" stroke="#4a5160" stroke-width="0.080" stroke-linecap="round" opacity="0.7"/><line x1="-1.470" y1="1.270" x2="-1.270" y2="1.270" stroke="#4a5160" stroke-width="0.080" stroke-linecap="round" opacity="0.7"/><line x1="-1.270" y1="-1.270" x2="-1.270" y2="-1.470" stroke="#4a5160" stroke-width="0.080" stroke-linecap="round" opacity="0.7"/><line x1="-1.270" y1="-1.270" x2="-1.070" y2="-1.270" stroke="#4a5160" stroke-width="0.080" stroke-linecap="round" opacity="0.7"/><line x1="-1.270" y1="-1.070" x2="-1.270" y2="-1.270" stroke="#4a5160" stroke-width="0.080" stroke-linecap="round" opacity="0.7"/><line x1="-1.270" y1="1.270" x2="-1.270" y2="1.070" stroke="#4a5160" stroke-width="0.080" stroke-linecap="round" opacity="0.7"/><line x1="-1.270" y1="1.270" x2="-1.070" y2="1.270" stroke="#4a5160" stroke-width="0.080" stroke-linecap="round" opacity="0.7"/><line x1="-1.270" y1="1.470" x2="-1.270" y2="1.270" stroke="#4a5160" stroke-width="0.080" stroke-linecap="round" opacity="0.7"/><line x1="-0.500" y1="0.000" x2="0.000" y2="0.000" stroke="#4a5160" stroke-width="0.080" stroke-linecap="round" opacity="0.7"/><line x1="0.000" y1="0.000" x2="0.000" y2="-0.500" stroke="#4a5160" stroke-width="0.080" stroke-linecap="round" opacity="0.7"/><line x1="0.000" y1="0.000" x2="0.500" y2="0.000" stroke="#4a5160" stroke-width="0.080" stroke-linecap="round" opacity="0.7"/><line x1="0.000" y1="0.500" x2="0.000" y2="0.000" stroke="#4a5160" stroke-width="0.080" stroke-linecap="round" opacity="0.7"/><line x1="1.070" y1="-1.270" x2="1.270" y2="-1.270" stroke="#4a5160" stroke-width="0.080" stroke-linecap="round" opacity="0.7"/><line x1="1.070" y1="1.270" x2="1.270" y2="1.270" stroke="#4a5160" stroke-width="0.080" stroke-linecap="round" opacity="0.7"/><line x1="1.270" y1="-1.270" x2="1.270" y2="-1.470" stroke="#4a5160" stroke-width="0.080" stroke-linecap="round" opacity="0.7"/><line x1="1.270" y1="-1.270" x2="1.470" y2="-1.270" stroke="#4a5160" stroke-width="0.080" stroke-linecap="round" opacity="0.7"/><line x1="1.270" y1="-1.070" x2="1.270" y2="-1.270" stroke="#4a5160" stroke-width="0.080" stroke-linecap="round" opacity="0.7"/><line x1="1.270" y1="1.270" x2="1.270" y2="1.070" stroke="#4a5160" stroke-width="0.080" stroke-linecap="round" opacity="0.7"/><line x1="1.270" y1="1.270" x2="1.470" y2="1.270" stroke="#4a5160" stroke-width="0.080" stroke-linecap="round" opacity="0.7"/><line x1="1.270" y1="1.470" x2="1.270" y2="1.270" stroke="#4a5160" stroke-width="0.080" stroke-linecap="round" opacity="0.7"/><line x1="3.610" y1="-1.270" x2="3.810" y2="-1.270" stroke="#4a5160" stroke-width="0.080" stroke-linecap="round" opacity="0.7"/><line x1="3.610" y1="1.270" x2="3.810" y2="1.270" stroke="#4a5160" stroke-width="0.080" stroke-linecap="round" opacity="0.7"/><line x1="3.810" y1="-1.270" x2="3.810" y2="-1.470" stroke="#4a5160" stroke-width="0.080" stroke-linecap="round" opacity="0.7"/><line x1="3.810" y1="-1.270" x2="4.010" y2="-1.270" stroke="#4a5160" stroke-width="0.080" stroke-linecap="round" opacity="0.7"/><line x1="3.810" y1="-1.070" x2="3.810" y2="-1.270" stroke="#4a5160" stroke-width="0.080" stroke-linecap="round" opacity="0.7"/><line x1="3.810" y1="1.270" x2="3.810" y2="1.070" stroke="#4a5160" stroke-width="0.080" stroke-linecap="round" opacity="0.7"/><line x1="3.810" y1="1.270" x2="4.010" y2="1.270" stroke="#4a5160" stroke-width="0.080" stroke-linecap="round" opacity="0.7"/><line x1="3.810" y1="1.470" x2="3.810" y2="1.270" stroke="#4a5160" stroke-width="0.080" stroke-linecap="round" opacity="0.7"/><line x1="6.150" y1="-1.270" x2="6.350" y2="-1.270" stroke="#4a5160" stroke-width="0.080" stroke-linecap="round" opacity="0.7"/><line x1="6.150" y1="1.270" x2="6.350" y2="1.270" stroke="#4a5160" stroke-width="0.080" stroke-linecap="round" opacity="0.7"/><line x1="6.350" y1="-1.270" x2="6.350" y2="-1.470" stroke="#4a5160" stroke-width="0.080" stroke-linecap="round" opacity="0.7"/><line x1="6.350" y1="-1.270" x2="6.550" y2="-1.270" stroke="#4a5160" stroke-width="0.080" stroke-linecap="round" opacity="0.7"/><line x1="6.350" y1="-1.070" x2="6.350" y2="-1.270" stroke="#4a5160" stroke-width="0.080" stroke-linecap="round" opacity="0.7"/><line x1="6.350" y1="1.270" x2="6.350" y2="1.070" stroke="#4a5160" stroke-width="0.080" stroke-linecap="round" opacity="0.7"/><line x1="6.350" y1="1.270" x2="6.550" y2="1.270" stroke="#4a5160" stroke-width="0.080" stroke-linecap="round" opacity="0.7"/><line x1="6.350" y1="1.470" x2="6.350" y2="1.270" stroke="#4a5160" stroke-width="0.080" stroke-linecap="round" opacity="0.7"/><line x1="-9.040" y1="-4.350" x2="-3.303" y2="-4.350" stroke="#d24d4d" stroke-width="0.080" stroke-linecap="round" opacity="0.7"/><line x1="-9.040" y1="5.125" x2="-9.040" y2="-4.350" stroke="#d24d4d" stroke-width="0.080" stroke-linecap="round" opacity="0.7"/><line x1="-9.040" y1="5.125" x2="9.040" y2="5.125" stroke="#d24d4d" stroke-width="0.080" stroke-linecap="round" opacity="0.7"/><line x1="-3.303" y1="-5.125" x2="3.303" y2="-5.125" stroke="#d24d4d" stroke-width="0.080" stroke-linecap="round" opacity="0.7"/><line x1="-3.303" y1="-4.350" x2="-3.303" y2="-5.125" stroke="#d24d4d" stroke-width="0.080" stroke-linecap="round" opacity="0.7"/><line x1="3.303" y1="-4.350" x2="3.303" y2="-5.125" stroke="#d24d4d" stroke-width="0.080" stroke-linecap="round" opacity="0.7"/><line x1="3.303" y1="-4.350" x2="9.040" y2="-4.350" stroke="#d24d4d" stroke-width="0.080" stroke-linecap="round" opacity="0.7"/><line x1="9.040" y1="5.125" x2="9.040" y2="-4.350" stroke="#d24d4d" stroke-width="0.080" stroke-linecap="round" opacity="0.7"/><line x1="-8.790" y1="-4.100" x2="-3.053" y2="-4.100" stroke="#6b7280" stroke-width="0.100" stroke-linecap="round" opacity="0.8"/><line x1="-8.790" y1="4.875" x2="-8.790" y2="-4.100" stroke="#6b7280" stroke-width="0.100" stroke-linecap="round" opacity="0.8"/><line x1="-8.790" y1="4.875" x2="-7.690" y2="4.875" stroke="#6b7280" stroke-width="0.100" stroke-linecap="round" opacity="0.8"/><line x1="-8.170" y1="-3.475" x2="-7.870" y2="-3.175" stroke="#6b7280" stroke-width="0.100" stroke-linecap="round" opacity="0.8"/><line x1="-8.170" y1="-3.475" x2="-1.986" y2="-3.475" stroke="#6b7280" stroke-width="0.100" stroke-linecap="round" opacity="0.8"/><line x1="-8.170" y1="3.475" x2="-8.170" y2="-3.475" stroke="#6b7280" stroke-width="0.100" stroke-linecap="round" opacity="0.8"/><line x1="-8.170" y1="3.475" x2="-7.870" y2="3.175" stroke="#6b7280" stroke-width="0.100" stroke-linecap="round" opacity="0.8"/><line x1="-8.170" y1="3.475" x2="8.170" y2="3.475" stroke="#6b7280" stroke-width="0.100" stroke-linecap="round" opacity="0.8"/><line x1="-7.870" y1="-3.175" x2="-2.012" y2="-3.175" stroke="#6b7280" stroke-width="0.100" stroke-linecap="round" opacity="0.8"/><line x1="-7.870" y1="-2.540" x2="7.870" y2="-2.540" stroke="#6b7280" stroke-width="0.100" stroke-linecap="round" opacity="0.8"/><line x1="-7.870" y1="2.540" x2="7.870" y2="2.540" stroke="#6b7280" stroke-width="0.100" stroke-linecap="round" opacity="0.8"/><line x1="-7.870" y1="3.175" x2="-7.870" y2="-3.175" stroke="#6b7280" stroke-width="0.100" stroke-linecap="round" opacity="0.8"/><line x1="-7.870" y1="3.175" x2="7.870" y2="3.175" stroke="#6b7280" stroke-width="0.100" stroke-linecap="round" opacity="0.8"/><line x1="-7.690" y1="4.875" x2="-7.690" y2="4.250" stroke="#6b7280" stroke-width="0.100" stroke-linecap="round" opacity="0.8"/><line x1="-7.540" y1="4.100" x2="-1.000" y2="4.100" stroke="#6b7280" stroke-width="0.100" stroke-linecap="round" opacity="0.8"/><line x1="-6.675" y1="-1.595" x2="-6.025" y2="-1.595" stroke="#6b7280" stroke-width="0.100" stroke-linecap="round" opacity="0.8"/><line x1="-6.675" y1="-0.945" x2="-6.675" y2="-1.595" stroke="#6b7280" stroke-width="0.100" stroke-linecap="round" opacity="0.8"/><line x1="-6.675" y1="-0.945" x2="-6.025" y2="-0.945" stroke="#6b7280" stroke-width="0.100" stroke-linecap="round" opacity="0.8"/><line x1="-6.675" y1="0.945" x2="-6.025" y2="0.945" stroke="#6b7280" stroke-width="0.100" stroke-linecap="round" opacity="0.8"/><line x1="-6.675" y1="1.595" x2="-6.675" y2="0.945" stroke="#6b7280" stroke-width="0.100" stroke-linecap="round" opacity="0.8"/><line x1="-6.675" y1="1.595" x2="-6.025" y2="1.595" stroke="#6b7280" stroke-width="0.100" stroke-linecap="round" opacity="0.8"/><line x1="-6.025" y1="-0.945" x2="-6.025" y2="-1.595" stroke="#6b7280" stroke-width="0.100" stroke-linecap="round" opacity="0.8"/><line x1="-6.025" y1="1.595" x2="-6.025" y2="0.945" stroke="#6b7280" stroke-width="0.100" stroke-linecap="round" opacity="0.8"/><line x1="-4.135" y1="-1.595" x2="-3.485" y2="-1.595" stroke="#6b7280" stroke-width="0.100" stroke-linecap="round" opacity="0.8"/><line x1="-4.135" y1="-0.945" x2="-4.135" y2="-1.595" stroke="#6b7280" stroke-width="0.100" stroke-linecap="round" opacity="0.8"/><line x1="-4.135" y1="-0.945" x2="-3.485" y2="-0.945" stroke="#6b7280" stroke-width="0.100" stroke-linecap="round" opacity="0.8"/><line x1="-4.135" y1="0.945" x2="-3.485" y2="0.945" stroke="#6b7280" stroke-width="0.100" stroke-linecap="round" opacity="0.8"/><line x1="-4.135" y1="1.595" x2="-4.135" y2="0.945" stroke="#6b7280" stroke-width="0.100" stroke-linecap="round" opacity="0.8"/><line x1="-4.135" y1="1.595" x2="-3.485" y2="1.595" stroke="#6b7280" stroke-width="0.100" stroke-linecap="round" opacity="0.8"/><line x1="-3.485" y1="-0.945" x2="-3.485" y2="-1.595" stroke="#6b7280" stroke-width="0.100" stroke-linecap="round" opacity="0.8"/><line x1="-3.485" y1="1.595" x2="-3.485" y2="0.945" stroke="#6b7280" stroke-width="0.100" stroke-linecap="round" opacity="0.8"/><line x1="-3.053" y1="-4.100" x2="-2.845" y2="-4.875" stroke="#6b7280" stroke-width="0.100" stroke-linecap="round" opacity="0.8"/><line x1="-2.845" y1="-4.875" x2="2.845" y2="-4.875" stroke="#6b7280" stroke-width="0.100" stroke-linecap="round" opacity="0.8"/><line x1="-2.012" y1="-3.175" x2="-1.899" y2="-4.475" stroke="#6b7280" stroke-width="0.100" stroke-linecap="round" opacity="0.8"/><line x1="-1.925" y1="-4.175" x2="1.925" y2="-4.175" stroke="#6b7280" stroke-width="0.100" stroke-linecap="round" opacity="0.8"/><line x1="-1.899" y1="-4.475" x2="1.899" y2="-4.475" stroke="#6b7280" stroke-width="0.100" stroke-linecap="round" opacity="0.8"/><line x1="-1.595" y1="-1.595" x2="-0.945" y2="-1.595" stroke="#6b7280" stroke-width="0.100" stroke-linecap="round" opacity="0.8"/><line x1="-1.595" y1="-0.945" x2="-1.595" y2="-1.595" stroke="#6b7280" stroke-width="0.100" stroke-linecap="round" opacity="0.8"/><line x1="-1.595" y1="-0.945" x2="-0.945" y2="-0.945" stroke="#6b7280" stroke-width="0.100" stroke-linecap="round" opacity="0.8"/><line x1="-1.595" y1="0.945" x2="-0.945" y2="0.945" stroke="#6b7280" stroke-width="0.100" stroke-linecap="round" opacity="0.8"/><line x1="-1.595" y1="1.595" x2="-1.595" y2="0.945" stroke="#6b7280" stroke-width="0.100" stroke-linecap="round" opacity="0.8"/><line x1="-1.595" y1="1.595" x2="-0.945" y2="1.595" stroke="#6b7280" stroke-width="0.100" stroke-linecap="round" opacity="0.8"/><line x1="-0.945" y1="-0.945" x2="-0.945" y2="-1.595" stroke="#6b7280" stroke-width="0.100" stroke-linecap="round" opacity="0.8"/><line x1="-0.945" y1="1.595" x2="-0.945" y2="0.945" stroke="#6b7280" stroke-width="0.100" stroke-linecap="round" opacity="0.8"/><line x1="-0.900" y1="4.875" x2="-0.900" y2="4.200" stroke="#6b7280" stroke-width="0.100" stroke-linecap="round" opacity="0.8"/><line x1="-0.900" y1="4.875" x2="0.900" y2="4.875" stroke="#6b7280" stroke-width="0.100" stroke-linecap="round" opacity="0.8"/><line x1="0.900" y1="4.875" x2="0.900" y2="4.200" stroke="#6b7280" stroke-width="0.100" stroke-linecap="round" opacity="0.8"/><line x1="0.945" y1="-1.595" x2="1.595" y2="-1.595" stroke="#6b7280" stroke-width="0.100" stroke-linecap="round" opacity="0.8"/><line x1="0.945" y1="-0.945" x2="0.945" y2="-1.595" stroke="#6b7280" stroke-width="0.100" stroke-linecap="round" opacity="0.8"/><line x1="0.945" y1="-0.945" x2="1.595" y2="-0.945" stroke="#6b7280" stroke-width="0.100" stroke-linecap="round" opacity="0.8"/><line x1="0.945" y1="0.945" x2="1.595" y2="0.945" stroke="#6b7280" stroke-width="0.100" stroke-linecap="round" opacity="0.8"/><line x1="0.945" y1="1.595" x2="0.945" y2="0.945" stroke="#6b7280" stroke-width="0.100" stroke-linecap="round" opacity="0.8"/><line x1="0.945" y1="1.595" x2="1.595" y2="1.595" stroke="#6b7280" stroke-width="0.100" stroke-linecap="round" opacity="0.8"/><line x1="1.000" y1="4.100" x2="7.540" y2="4.100" stroke="#6b7280" stroke-width="0.100" stroke-linecap="round" opacity="0.8"/><line x1="1.595" y1="-0.945" x2="1.595" y2="-1.595" stroke="#6b7280" stroke-width="0.100" stroke-linecap="round" opacity="0.8"/><line x1="1.595" y1="1.595" x2="1.595" y2="0.945" stroke="#6b7280" stroke-width="0.100" stroke-linecap="round" opacity="0.8"/><line x1="1.899" y1="-4.475" x2="2.012" y2="-3.175" stroke="#6b7280" stroke-width="0.100" stroke-linecap="round" opacity="0.8"/><line x1="1.986" y1="-3.475" x2="8.170" y2="-3.475" stroke="#6b7280" stroke-width="0.100" stroke-linecap="round" opacity="0.8"/><line x1="2.012" y1="-3.175" x2="7.870" y2="-3.175" stroke="#6b7280" stroke-width="0.100" stroke-linecap="round" opacity="0.8"/><line x1="2.845" y1="-4.875" x2="3.053" y2="-4.100" stroke="#6b7280" stroke-width="0.100" stroke-linecap="round" opacity="0.8"/><line x1="3.053" y1="-4.100" x2="8.790" y2="-4.100" stroke="#6b7280" stroke-width="0.100" stroke-linecap="round" opacity="0.8"/><line x1="3.485" y1="-1.595" x2="4.135" y2="-1.595" stroke="#6b7280" stroke-width="0.100" stroke-linecap="round" opacity="0.8"/><line x1="3.485" y1="-0.945" x2="3.485" y2="-1.595" stroke="#6b7280" stroke-width="0.100" stroke-linecap="round" opacity="0.8"/><line x1="3.485" y1="-0.945" x2="4.135" y2="-0.945" stroke="#6b7280" stroke-width="0.100" stroke-linecap="round" opacity="0.8"/><line x1="3.485" y1="0.945" x2="4.135" y2="0.945" stroke="#6b7280" stroke-width="0.100" stroke-linecap="round" opacity="0.8"/><line x1="3.485" y1="1.595" x2="3.485" y2="0.945" stroke="#6b7280" stroke-width="0.100" stroke-linecap="round" opacity="0.8"/><line x1="3.485" y1="1.595" x2="4.135" y2="1.595" stroke="#6b7280" stroke-width="0.100" stroke-linecap="round" opacity="0.8"/><line x1="4.135" y1="-0.945" x2="4.135" y2="-1.595" stroke="#6b7280" stroke-width="0.100" stroke-linecap="round" opacity="0.8"/><line x1="4.135" y1="1.595" x2="4.135" y2="0.945" stroke="#6b7280" stroke-width="0.100" stroke-linecap="round" opacity="0.8"/><line x1="6.025" y1="-1.595" x2="6.675" y2="-1.595" stroke="#6b7280" stroke-width="0.100" stroke-linecap="round" opacity="0.8"/><line x1="6.025" y1="-0.945" x2="6.025" y2="-1.595" stroke="#6b7280" stroke-width="0.100" stroke-linecap="round" opacity="0.8"/><line x1="6.025" y1="-0.945" x2="6.675" y2="-0.945" stroke="#6b7280" stroke-width="0.100" stroke-linecap="round" opacity="0.8"/><line x1="6.025" y1="0.945" x2="6.675" y2="0.945" stroke="#6b7280" stroke-width="0.100" stroke-linecap="round" opacity="0.8"/><line x1="6.025" y1="1.595" x2="6.025" y2="0.945" stroke="#6b7280" stroke-width="0.100" stroke-linecap="round" opacity="0.8"/><line x1="6.025" y1="1.595" x2="6.675" y2="1.595" stroke="#6b7280" stroke-width="0.100" stroke-linecap="round" opacity="0.8"/><line x1="6.675" y1="-0.945" x2="6.675" y2="-1.595" stroke="#6b7280" stroke-width="0.100" stroke-linecap="round" opacity="0.8"/><line x1="6.675" y1="1.595" x2="6.675" y2="0.945" stroke="#6b7280" stroke-width="0.100" stroke-linecap="round" opacity="0.8"/><line x1="7.690" y1="4.875" x2="7.690" y2="4.250" stroke="#6b7280" stroke-width="0.100" stroke-linecap="round" opacity="0.8"/><line x1="7.690" y1="4.875" x2="8.790" y2="4.875" stroke="#6b7280" stroke-width="0.100" stroke-linecap="round" opacity="0.8"/><line x1="7.870" y1="-3.175" x2="8.170" y2="-3.475" stroke="#6b7280" stroke-width="0.100" stroke-linecap="round" opacity="0.8"/><line x1="7.870" y1="3.175" x2="7.870" y2="-3.175" stroke="#6b7280" stroke-width="0.100" stroke-linecap="round" opacity="0.8"/><line x1="7.870" y1="3.175" x2="8.170" y2="3.475" stroke="#6b7280" stroke-width="0.100" stroke-linecap="round" opacity="0.8"/><line x1="8.170" y1="3.475" x2="8.170" y2="-3.475" stroke="#6b7280" stroke-width="0.100" stroke-linecap="round" opacity="0.8"/><line x1="8.790" y1="4.875" x2="8.790" y2="-4.100" stroke="#6b7280" stroke-width="0.100" stroke-linecap="round" opacity="0.8"/><path d="M -7.690 4.250 A 0.150 0.150 0 0 1 -7.540 4.100" fill="none" stroke="#e6e9ef" stroke-width="0.12" opacity="1"/><path d="M -1.000 4.100 A 0.100 0.100 0 0 1 -0.900 4.200" fill="none" stroke="#e6e9ef" stroke-width="0.12" opacity="1"/><path d="M 0.900 4.200 A 0.100 0.100 0 0 1 1.000 4.100" fill="none" stroke="#e6e9ef" stroke-width="0.12" opacity="1"/><path d="M 7.540 4.100 A 0.150 0.150 0 0 1 7.690 4.250" fill="none" stroke="#e6e9ef" stroke-width="0.12" opacity="1"/><path d="M -7.690 4.250 A 0.150 0.150 0 0 1 -7.540 4.100" fill="none" stroke="#6b7280" stroke-width="0.12" opacity="0.8"/><path d="M -1.000 4.100 A 0.100 0.100 0 0 1 -0.900 4.200" fill="none" stroke="#6b7280" stroke-width="0.12" opacity="0.8"/><path d="M 0.900 4.200 A 0.100 0.100 0 0 1 1.000 4.100" fill="none" stroke="#6b7280" stroke-width="0.12" opacity="0.8"/><path d="M 7.540 4.100 A 0.150 0.150 0 0 1 7.690 4.250" fill="none" stroke="#6b7280" stroke-width="0.12" opacity="0.8"/><circle cx="-6.350" cy="-1.270" r="0.850" fill="none" stroke="#4a5160" stroke-width="0.12" opacity="0.7"/><circle cx="-6.350" cy="-1.270" r="0.500" fill="none" stroke="#4a5160" stroke-width="0.12" opacity="0.7"/><circle cx="-6.350" cy="1.270" r="0.850" fill="none" stroke="#4a5160" stroke-width="0.12" opacity="0.7"/><circle cx="-6.350" cy="1.270" r="0.500" fill="none" stroke="#4a5160" stroke-width="0.12" opacity="0.7"/><circle cx="-3.810" cy="-1.270" r="0.850" fill="none" stroke="#4a5160" stroke-width="0.12" opacity="0.7"/><circle cx="-3.810" cy="-1.270" r="0.500" fill="none" stroke="#4a5160" stroke-width="0.12" opacity="0.7"/><circle cx="-3.810" cy="1.270" r="0.850" fill="none" stroke="#4a5160" stroke-width="0.12" opacity="0.7"/><circle cx="-3.810" cy="1.270" r="0.500" fill="none" stroke="#4a5160" stroke-width="0.12" opacity="0.7"/><circle cx="-1.270" cy="-1.270" r="0.850" fill="none" stroke="#4a5160" stroke-width="0.12" opacity="0.7"/><circle cx="-1.270" cy="-1.270" r="0.500" fill="none" stroke="#4a5160" stroke-width="0.12" opacity="0.7"/><circle cx="-1.270" cy="1.270" r="0.850" fill="none" stroke="#4a5160" stroke-width="0.12" opacity="0.7"/><circle cx="-1.270" cy="1.270" r="0.500" fill="none" stroke="#4a5160" stroke-width="0.12" opacity="0.7"/><circle cx="1.270" cy="-1.270" r="0.850" fill="none" stroke="#4a5160" stroke-width="0.12" opacity="0.7"/><circle cx="1.270" cy="-1.270" r="0.500" fill="none" stroke="#4a5160" stroke-width="0.12" opacity="0.7"/><circle cx="1.270" cy="1.270" r="0.850" fill="none" stroke="#4a5160" stroke-width="0.12" opacity="0.7"/><circle cx="1.270" cy="1.270" r="0.500" fill="none" stroke="#4a5160" stroke-width="0.12" opacity="0.7"/><circle cx="3.810" cy="-1.270" r="0.850" fill="none" stroke="#4a5160" stroke-width="0.12" opacity="0.7"/><circle cx="3.810" cy="-1.270" r="0.500" fill="none" stroke="#4a5160" stroke-width="0.12" opacity="0.7"/><circle cx="3.810" cy="1.270" r="0.850" fill="none" stroke="#4a5160" stroke-width="0.12" opacity="0.7"/><circle cx="3.810" cy="1.270" r="0.500" fill="none" stroke="#4a5160" stroke-width="0.12" opacity="0.7"/><circle cx="6.350" cy="-1.270" r="0.850" fill="none" stroke="#4a5160" stroke-width="0.12" opacity="0.7"/><circle cx="6.350" cy="-1.270" r="0.500" fill="none" stroke="#4a5160" stroke-width="0.12" opacity="0.7"/><circle cx="6.350" cy="1.270" r="0.850" fill="none" stroke="#4a5160" stroke-width="0.12" opacity="0.7"/><circle cx="6.350" cy="1.270" r="0.500" fill="none" stroke="#4a5160" stroke-width="0.12" opacity="0.7"/><rect x="-7.200" y="0.420" width="1.700" height="1.700" rx="0.000" fill="#c79b5c"/><circle cx="-6.350" cy="1.270" r="0.500" fill="#12151c"/><rect x="-7.200" y="-2.120" width="1.700" height="1.700" rx="0.850" fill="#c79b5c"/><circle cx="-6.350" cy="-1.270" r="0.500" fill="#12151c"/><rect x="-4.660" y="0.420" width="1.700" height="1.700" rx="0.850" fill="#c79b5c"/><circle cx="-3.810" cy="1.270" r="0.500" fill="#12151c"/><rect x="-4.660" y="-2.120" width="1.700" height="1.700" rx="0.850" fill="#c79b5c"/><circle cx="-3.810" cy="-1.270" r="0.500" fill="#12151c"/><rect x="-2.120" y="0.420" width="1.700" height="1.700" rx="0.850" fill="#c79b5c"/><circle cx="-1.270" cy="1.270" r="0.500" fill="#12151c"/><rect x="-2.120" y="-2.120" width="1.700" height="1.700" rx="0.850" fill="#c79b5c"/><circle cx="-1.270" cy="-1.270" r="0.500" fill="#12151c"/><rect x="0.420" y="0.420" width="1.700" height="1.700" rx="0.850" fill="#c79b5c"/><circle cx="1.270" cy="1.270" r="0.500" fill="#12151c"/><rect x="0.420" y="-2.120" width="1.700" height="1.700" rx="0.850" fill="#c79b5c"/><circle cx="1.270" cy="-1.270" r="0.500" fill="#12151c"/><rect x="2.960" y="0.420" width="1.700" height="1.700" rx="0.850" fill="#c79b5c"/><circle cx="3.810" cy="1.270" r="0.500" fill="#12151c"/><rect x="2.960" y="-2.120" width="1.700" height="1.700" rx="0.850" fill="#c79b5c"/><circle cx="3.810" cy="-1.270" r="0.500" fill="#12151c"/><rect x="5.500" y="0.420" width="1.700" height="1.700" rx="0.850" fill="#c79b5c"/><circle cx="6.350" cy="1.270" r="0.500" fill="#12151c"/><rect x="5.500" y="-2.120" width="1.700" height="1.700" rx="0.850" fill="#c79b5c"/><circle cx="6.350" cy="-1.270" r="0.500" fill="#12151c"/></svg>