<svg xmlns="http://www.w3.org/2000/svg" viewBox="-18.20 -43.95 36.40 87.90" preserveAspectRatio="xMidYMid meet" style="width:100%;height:100%"><rect x="-18.20" y="-43.95" width="36.40" height="87.90" fill="#12151c"/><line x1="-17.200" y1="-42.950" x2="17.200" y2="-42.950" stroke="#d24d4d" stroke-width="0.080" stroke-linecap="round" opacity="0.7"/><line x1="17.200" y1="-42.950" x2="17.200" y2="42.950" stroke="#d24d4d" stroke-width="0.080" stroke-linecap="round" opacity="0.7"/><line x1="17.200" y1="42.950" x2="-17.200" y2="42.950" stroke="#d24d4d" stroke-width="0.080" stroke-linecap="round" opacity="0.7"/><line x1="-17.200" y1="42.950" x2="-17.200" y2="-42.950" stroke="#d24d4d" stroke-width="0.080" stroke-linecap="round" opacity="0.7"/><circle cx="-12.250" cy="-38.000" r="2.300" fill="none" stroke="#e6e9ef" stroke-width="0.12" opacity="1"/><circle cx="-12.250" cy="-28.500" r="2.300" fill="none" stroke="#e6e9ef" stroke-width="0.12" opacity="1"/><circle cx="-12.250" cy="-19.000" r="2.300" fill="none" stroke="#e6e9ef" stroke-width="0.12" opacity="1"/><circle cx="-12.250" cy="-9.500" r="2.300" fill="none" stroke="#e6e9ef" stroke-width="0.12" opacity="1"/><circle cx="-12.250" cy="0.000" r="2.300" fill="none" stroke="#e6e9ef" stroke-width="0.12" opacity="1"/><circle cx="-12.250" cy="9.500" r="2.300" fill="none" stroke="#e6e9ef" stroke-width="0.12" opacity="1"/><circle cx="-12.250" cy="19.000" r="2.300" fill="none" stroke="#e6e9ef" stroke-width="0.12" opacity="1"/><circle cx="-12.250" cy="28.500" r="2.300" fill="none" stroke="#e6e9ef" stroke-width="0.12" opacity="1"/><circle cx="-12.250" cy="38.000" r="2.300" fill="none" stroke="#e6e9ef" stroke-width="0.12" opacity="1"/><circle cx="-8.750" cy="-23.750" r="2.300" fill="none" stroke="#e6e9ef" stroke-width="0.12" opacity="1"/><circle cx="-8.750" cy="-14.250" r="2.300" fill="none" stroke="#e6e9ef" stroke-width="0.12" opacity="1"/><circle cx="-8.750" cy="-4.750" r="2.300" fill="none" stroke="#e6e9ef" stroke-width="0.12" opacity="1"/><circle cx="-8.750" cy="4.750" r="2.300" fill="none" stroke="#e6e9ef" stroke-width="0.12" opacity="1"/><circle cx="-8.750" cy="14.250" r="2.300" fill="none" stroke="#e6e9ef" stroke-width="0.12" opacity="1"/><circle cx="-8.750" cy="23.750" r="2.300" fill="none" stroke="#e6e9ef" stroke-width="0.12" opacity="1"/><circle cx="8.750" cy="-38.000" r="2.300" fill="none" stroke="#e6e9ef" stroke-width="0.12" opacity="1"/><circle cx="8.750" cy="-28.500" r="2.300" fill="none" stroke="#e6e9ef" stroke-width="0.12" opacity="1"/><circle cx="8.750" cy="-19.000" r="2.300" fill="none" stroke="#e6e9ef" stroke-width="0.12" opacity="1"/><circle cx="8.750" cy="-9.500" r="2.300" fill="none" stroke="#e6e9ef" stroke-width="0.12" opacity="1"/><circle cx="8.750" cy="0.000" r="2.300" fill="none" stroke="#e6e9ef" stroke-width="0.12" opacity="1"/><circle cx="8.750" cy="9.500" r="2.300" fill="none" stroke="#e6e9ef" stroke-width="0.12" opacity="1"/><circle cx="8.750" cy="19.000" r="2.300" fill="none" stroke="#e6e9ef" stroke-width="0.12" opacity="1"/><circle cx="8.750" cy="28.500" r="2.300" fill="none" stroke="#e6e9ef" stroke-width="0.12" opacity="1"/><circle cx="8.750" cy="38.000" r="2.300" fill="none" stroke="#e6e9ef" stroke-width="0.12" opacity="1"/><circle cx="12.250" cy="-33.250" r="2.300" fill="none" stroke="#e6e9ef" stroke-width="0.12" opacity="1"/><circle cx="12.250" cy="-23.750" r="2.300" fill="none" stroke="#e6e9ef" stroke-width="0.12" opacity="1"/><circle cx="12.250" cy="-14.250" r="2.300" fill="none" stroke="#e6e9ef" stroke-width="0.12" opacity="1"/><circle cx="12.250" cy="-4.750" r="2.300" fill="none" stroke="#e6e9ef" stroke-width="0.12" opacity="1"/><circle cx="12.250" cy="4.750" r="2.300" fill="none" stroke="#e6e9ef" stroke-width="0.12" opacity="1"/><circle cx="12.250" cy="14.250" r="2.300" fill="none" stroke="#e6e9ef" stroke-width="0.12" opacity="1"/><circle cx="12.250" cy="23.750" r="2.300" fill="none" stroke="#e6e9ef" stroke-width="0.12" opacity="1"/><circle cx="12.250" cy="33.250" r="2.300" fill="none" stroke="#e6e9ef" stroke-width="0.12" opacity="1"/><circle cx="-12.250" cy="-38.000" r="2.300" fill="none" stroke="#6b7280" stroke-width="0.12" opacity="0.8"/><circle cx="-12.250" cy="-28.500" r="2.300" fill="none" stroke="#6b7280" stroke-width="0.12" opacity="0.8"/><circle cx="-12.250" cy="-19.000" r="2.300" fill="none" stroke="#6b7280" stroke-width="0.12" opacity="0.8"/><circle cx="-12.250" cy="-9.500" r="2.300" fill="none" stroke="#6b7280" stroke-width="0.12" opacity="0.8"/><circle cx="-12.250" cy="0.000" r="2.300" fill="none" stroke="#6b7280" stroke-width="0.12" opacity="0.8"/><circle cx="-12.250" cy="9.500" r="2.300" fill="none" stroke="#6b7280" stroke-width="0.12" opacity="0.8"/><circle cx="-12.250" cy="19.000" r="2.300" fill="none" stroke="#6b7280" stroke-width="0.12" opacity="0.8"/><circle cx="-12.250" cy="28.500" r="2.300" fill="none" stroke="#6b7280" stroke-width="0.12" opacity="0.8"/><circle cx="-12.250" cy="38.000" r="2.300" fill="none" stroke="#6b7280" stroke-width="0.12" opacity="0.8"/><circle cx="-8.750" cy="-23.750" r="2.300" fill="none" stroke="#6b7280" stroke-width="0.12" opacity="0.8"/><circle cx="-8.750" cy="-14.250" r="2.300" fill="none" stroke="#6b7280" stroke-width="0.12" opacity="0.8"/><circle cx="-8.750" cy="-4.750" r="2.300" fill="none" stroke="#6b7280" stroke-width="0.12" opacity="0.8"/><circle cx="-8.750" cy="4.750" r="2.300" fill="none" stroke="#6b7280" stroke-width="0.12" opacity="0.8"/><circle cx="-8.750" cy="14.250" r="2.300" fill="none" stroke="#6b7280" stroke-width="0.12" opacity="0.8"/><circle cx="-8.750" cy="23.750" r="2.300" fill="none" stroke="#6b7280" stroke-width="0.12" opacity="0.8"/><circle cx="8.750" cy="-38.000" r="2.300" fill="none" stroke="#6b7280" stroke-width="0.12" opacity="0.8"/><circle cx="8.750" cy="-28.500" r="2.300" fill="none" stroke="#6b7280" stroke-width="0.12" opacity="0.8"/><circle cx="8.750" cy="-19.000" r="2.300" fill="none" stroke="#6b7280" stroke-width="0.12" opacity="0.8"/><circle cx="8.750" cy="-9.500" r="2.300" fill="none" stroke="#6b7280" stroke-width="0.12" opacity="0.8"/><circle cx="8.750" cy="0.000" r="2.300" fill="none" stroke="#6b7280" stroke-width="0.12" opacity="0.8"/><circle cx="8.750" cy="9.500" r="2.300" fill="none" stroke="#6b7280" stroke-width="0.12" opacity="0.8"/><circle cx="8.750" cy="19.000" r="2.300" fill="none" stroke="#6b7280" stroke-width="0.12" opacity="0.8"/><circle cx="8.750" cy="28.500" r="2.300" fill="none" stroke="#6b7280" stroke-width="0.12" opacity="0.8"/><circle cx="8.750" cy="38.000" r="2.300" fill="none" stroke="#6b7280" stroke-width="0.12" opacity="0.8"/><circle cx="12.250" cy="-33.250" r="2.300" fill="none" stroke="#6b7280" stroke-width="0.12" opacity="0.8"/><circle cx="12.250" cy="-23.750" r="2.300" fill="none" stroke="#6b7280" stroke-width="0.12" opacity="0.8"/><circle cx="12.250" cy="-14.250" r="2.300" fill="none" stroke="#6b7280" stroke-width="0.12" opacity="0.8"/><circle cx="12.250" cy="-4.750" r="2.300" fill="none" stroke="#6b7280" stroke-width="0.12" opacity="0.8"/><circle cx="12.250" cy="4.750" r="2.300" fill="none" stroke="#6b7280" stroke-width="0.12" opacity="0.8"/><circle cx="12.250" cy="14.250" r="2.300" fill="none" stroke="#6b7280" stroke-width="0.12" opacity="0.8"/><circle cx="12.250" cy="23.750" r="2.300" fill="none" stroke="#6b7280" stroke-width="0.12" opacity="0.8"/><circle cx="12.250" cy="33.250" r="2.300" fill="none" stroke="#6b7280" stroke-width="0.12" opacity="0.8"/><rect x="-13.450" y="-39.200" width="2.400" height="2.400" rx="1.200" fill="#c79b5c"/><circle cx="-12.250" cy="-38.000" r="0.850" fill="#12151c"/><rect x="-13.450" y="-29.700" width="2.400" height="2.400" rx="1.200" fill="#c79b5c"/><circle cx="-12.250" cy="-28.500" r="0.850" fill="#12151c"/><rect x="-13.450" y="-20.200" width="2.400" height="2.400" rx="1.200" fill="#c79b5c"/><circle cx="-12.250" cy="-19.000" r="0.850" fill="#12151c"/><rect x="-13.450" y="-10.700" width="2.400" height="2.400" rx="1.200" fill="#c79b5c"/><circle cx="-12.250" cy="-9.500" r="0.850" fill="#12151c"/><rect x="-13.450" y="-1.200" width="2.400" height="2.400" rx="1.200" fill="#c79b5c"/><circle cx="-12.250" cy="0.000" r="0.850" fill="#12151c"/><rect x="-13.450" y="8.300" width="2.400" height="2.400" rx="1.200" fill="#c79b5c"/><circle cx="-12.250" cy="9.500" r="0.850" fill="#12151c"/><rect x="-13.450" y="17.800" width="2.400" height="2.400" rx="1.200" fill="#c79b5c"/><circle cx="-12.250" cy="19.000" r="0.850" fill="#12151c"/><rect x="-13.450" y="27.300" width="2.400" height="2.400" rx="1.200" fill="#c79b5c"/><circle cx="-12.250" cy="28.500" r="0.850" fill="#12151c"/><rect x="-13.450" y="36.800" width="2.400" height="2.400" rx="1.200" fill="#c79b5c"/><circle cx="-12.250" cy="38.000" r="0.850" fill="#12151c"/><rect x="-9.950" y="-24.950" width="2.400" height="2.400" rx="1.200" fill="#c79b5c"/><circle cx="-8.750" cy="-23.750" r="0.850" fill="#12151c"/><rect x="-9.950" y="-15.450" width="2.400" height="2.400" rx="1.200" fill="#c79b5c"/><circle cx="-8.750" cy="-14.250" r="0.850" fill="#12151c"/><rect x="-9.950" y="-5.950" width="2.400" height="2.400" rx="1.200" fill="#c79b5c"/><circle cx="-8.750" cy="-4.750" r="0.850" fill="#12151c"/><rect x="-9.950" y="3.550" width="2.400" height="2.400" rx="1.200" fill="#c79b5c"/><circle cx="-8.750" cy="4.750" r="0.850" fill="#12151c"/><rect x="-9.950" y="13.050" width="2.400" height="2.400" rx="1.200" fill="#c79b5c"/><circle cx="-8.750" cy="14.250" r="0.850" fill="#12151c"/><rect x="-9.950" y="22.550" width="2.400" height="2.400" rx="1.200" fill="#c79b5c"/><circle cx="-8.750" cy="23.750" r="0.850" fill="#12151c"/><rect x="7.550" y="-39.200" width="2.400" height="2.400" rx="1.200" fill="#c79b5c"/><circle cx="8.750" cy="-38.000" r="0.850" fill="#12151c"/><rect x="7.550" y="-29.700" width="2.400" height="2.400" rx="1.200" fill="#c79b5c"/><circle cx="8.750" cy="-28.500" r="0.850" fill="#12151c"/><rect x="7.550" y="-20.200" width="2.400" height="2.400" rx="1.200" fill="#c79b5c"/><circle cx="8.750" cy="-19.000" r="0.850" fill="#12151c"/><rect x="7.550" y="-10.700" width="2.400" height="2.400" rx="1.200" fill="#c79b5c"/><circle cx="8.750" cy="-9.500" r="0.850" fill="#12151c"/><rect x="7.550" y="-1.200" width="2.400" height="2.400" rx="1.200" fill="#c79b5c"/><circle cx="8.750" cy="0.000" r="0.850" fill="#12151c"/><rect x="7.550" y="8.300" width="2.400" height="2.400" rx="1.200" fill="#c79b5c"/><circle cx="8.750" cy="9.500" r="0.850" fill="#12151c"/><rect x="7.550" y="17.800" width="2.400" height="2.400" rx="1.200" fill="#c79b5c"/><circle cx="8.750" cy="19.000" r="0.850" fill="#12151c"/><rect x="7.550" y="27.300" width="2.400" height="2.400" rx="1.200" fill="#c79b5c"/><circle cx="8.750" cy="28.500" r="0.850" fill="#12151c"/><rect x="7.550" y="36.800" width="2.400" height="2.400" rx="1.200" fill="#c79b5c"/><circle cx="8.750" cy="38.000" r="0.850" fill="#12151c"/><rect x="11.050" y="-34.450" width="2.400" height="2.400" rx="1.200" fill="#c79b5c"/><circle cx="12.250" cy="-33.250" r="0.850" fill="#12151c"/><rect x="11.050" y="-24.950" width="2.400" height="2.400" rx="1.200" fill="#c79b5c"/><circle cx="12.250" cy="-23.750" r="0.850" fill="#12151c"/><rect x="11.050" y="-15.450" width="2.400" height="2.400" rx="1.200" fill="#c79b5c"/><circle cx="12.250" cy="-14.250" r="0.850" fill="#12151c"/><rect x="11.050" y="-5.950" width="2.400" height="2.400" rx="1.200" fill="#c79b5c"/><circle cx="12.250" cy="-4.750" r="0.850" fill="#12151c"/><rect x="11.050" y="3.550" width="2.400" height="2.400" rx="1.200" fill="#c79b5c"/><circle cx="12.250" cy="4.750" r="0.850" fill="#12151c"/><rect x="11.050" y="13.050" width="2.400" height="2.400" rx="1.200" fill="#c79b5c"/><circle cx="12.250" cy="14.250" r="0.850" fill="#12151c"/><rect x="11.050" y="22.550" width="2.400" height="2.400" rx="1.200" fill="#c79b5c"/><circle cx="12.250" cy="23.750" r="0.850" fill="#12151c"/><rect x="11.050" y="32.050" width="2.400" height="2.400" rx="1.200" fill="#c79b5c"/><circle cx="12.250" cy="33.250" r="0.850" fill="#12151c"/></svg>