<svg xmlns="http://www.w3.org/2000/svg" viewBox="-7.67 -7.67 15.35 35.74" preserveAspectRatio="xMidYMid meet" style="width:100%;height:100%"><rect x="-7.67" y="-7.67" width="15.35" height="35.74" fill="#12151c"/><line x1="-6.232" y1="6.645" x2="-6.055" y2="6.822" stroke="#e6e9ef" stroke-width="0.200" stroke-linecap="round" opacity="1"/><line x1="-6.232" y1="6.645" x2="-5.863" y2="6.276" stroke="#e6e9ef" stroke-width="0.200" stroke-linecap="round" opacity="1"/><line x1="-6.230" y1="-0.437" x2="-5.775" y2="-0.437" stroke="#e6e9ef" stroke-width="0.200" stroke-linecap="round" opacity="1"/><line x1="-6.230" y1="-0.048" x2="-6.230" y2="-0.437" stroke="#e6e9ef" stroke-width="0.200" stroke-linecap="round" opacity="1"/><line x1="-6.230" y1="2.893" x2="-6.230" y2="1.635" stroke="#e6e9ef" stroke-width="0.200" stroke-linecap="round" opacity="1"/><line x1="-6.230" y1="2.893" x2="-5.773" y2="2.893" stroke="#e6e9ef" stroke-width="0.200" stroke-linecap="round" opacity="1"/><line x1="-6.110" y1="-5.424" x2="-5.775" y2="-5.424" stroke="#e6e9ef" stroke-width="0.200" stroke-linecap="round" opacity="1"/><line x1="-6.110" y1="-4.611" x2="-6.110" y2="-5.424" stroke="#e6e9ef" stroke-width="0.200" stroke-linecap="round" opacity="1"/><line x1="-6.110" y1="-4.611" x2="-5.775" y2="-4.611" stroke="#e6e9ef" stroke-width="0.200" stroke-linecap="round" opacity="1"/><line x1="-6.110" y1="-2.307" x2="-5.775" y2="-2.307" stroke="#e6e9ef" stroke-width="0.200" stroke-linecap="round" opacity="1"/><line x1="-6.110" y1="-1.357" x2="-6.110" y2="-2.307" stroke="#e6e9ef" stroke-width="0.200" stroke-linecap="round" opacity="1"/><line x1="-6.110" y1="-1.357" x2="-5.775" y2="-1.357" stroke="#e6e9ef" stroke-width="0.200" stroke-linecap="round" opacity="1"/><line x1="-6.055" y1="6.822" x2="-5.686" y2="6.452" stroke="#e6e9ef" stroke-width="0.200" stroke-linecap="round" opacity="1"/><line x1="-5.775" y1="-5.767" x2="-4.335" y2="-5.767" stroke="#e6e9ef" stroke-width="0.200" stroke-linecap="round" opacity="1"/><line x1="-5.775" y1="-0.323" x2="-5.775" y2="-5.767" stroke="#e6e9ef" stroke-width="0.200" stroke-linecap="round" opacity="1"/><line x1="-5.775" y1="3.355" x2="-5.775" y2="2.893" stroke="#e6e9ef" stroke-width="0.200" stroke-linecap="round" opacity="1"/><line x1="-5.775" y1="6.063" x2="-5.775" y2="5.591" stroke="#e6e9ef" stroke-width="0.200" stroke-linecap="round" opacity="1"/><line x1="-5.775" y1="6.063" x2="-4.955" y2="6.063" stroke="#e6e9ef" stroke-width="0.200" stroke-linecap="round" opacity="1"/><line x1="-5.773" y1="2.893" x2="-5.743" y2="2.743" stroke="#e6e9ef" stroke-width="0.200" stroke-linecap="round" opacity="1"/><line x1="-5.743" y1="2.743" x2="-5.743" y2="1.920" stroke="#e6e9ef" stroke-width="0.200" stroke-linecap="round" opacity="1"/><line x1="-4.710" y1="5.862" x2="-4.250" y2="3.563" stroke="#e6e9ef" stroke-width="0.200" stroke-linecap="round" opacity="1"/><line x1="-4.250" y1="2.893" x2="-2.201" y2="2.893" stroke="#e6e9ef" stroke-width="0.200" stroke-linecap="round" opacity="1"/><line x1="-4.250" y1="3.563" x2="-4.250" y2="2.363" stroke="#e6e9ef" stroke-width="0.200" stroke-linecap="round" opacity="1"/><line x1="-3.950" y1="2.063" x2="-2.718" y2="2.063" stroke="#e6e9ef" stroke-width="0.200" stroke-linecap="round" opacity="1"/><line x1="-3.175" y1="-6.417" x2="3.175" y2="-6.417" stroke="#e6e9ef" stroke-width="0.200" stroke-linecap="round" opacity="1"/><line x1="-3.175" y1="-6.247" x2="-3.175" y2="-6.417" stroke="#e6e9ef" stroke-width="0.200" stroke-linecap="round" opacity="1"/><line x1="-2.395" y1="2.293" x2="-1.817" y2="4.084" stroke="#e6e9ef" stroke-width="0.200" stroke-linecap="round" opacity="1"/><line x1="-1.610" y1="3.161" x2="-1.610" y2="2.754" stroke="#e6e9ef" stroke-width="0.200" stroke-linecap="round" opacity="1"/><line x1="-1.532" y1="4.242" x2="1.532" y2="4.242" stroke="#e6e9ef" stroke-width="0.200" stroke-linecap="round" opacity="1"/><line x1="-1.531" y1="2.645" x2="-1.410" y2="2.610" stroke="#e6e9ef" stroke-width="0.200" stroke-linecap="round" opacity="1"/><line x1="-1.410" y1="2.610" x2="-1.140" y2="2.610" stroke="#e6e9ef" stroke-width="0.200" stroke-linecap="round" opacity="1"/><line x1="-1.410" y1="3.361" x2="-1.140" y2="3.361" stroke="#e6e9ef" stroke-width="0.200" stroke-linecap="round" opacity="1"/><line x1="-1.140" y1="2.610" x2="-0.940" y2="2.730" stroke="#e6e9ef" stroke-width="0.200" stroke-linecap="round" opacity="1"/><line x1="-0.940" y1="3.161" x2="-0.940" y2="2.730" stroke="#e6e9ef" stroke-width="0.200" stroke-linecap="round" opacity="1"/><line x1="0.940" y1="2.730" x2="1.140" y2="2.610" stroke="#e6e9ef" stroke-width="0.200" stroke-linecap="round" opacity="1"/><line x1="0.940" y1="3.161" x2="0.940" y2="2.730" stroke="#e6e9ef" stroke-width="0.200" stroke-linecap="round" opacity="1"/><line x1="1.140" y1="2.610" x2="1.410" y2="2.610" stroke="#e6e9ef" stroke-width="0.200" stroke-linecap="round" opacity="1"/><line x1="1.140" y1="3.361" x2="1.410" y2="3.361" stroke="#e6e9ef" stroke-width="0.200" stroke-linecap="round" opacity="1"/><line x1="1.410" y1="2.610" x2="1.531" y2="2.645" stroke="#e6e9ef" stroke-width="0.200" stroke-linecap="round" opacity="1"/><line x1="1.610" y1="3.161" x2="1.610" y2="2.754" stroke="#e6e9ef" stroke-width="0.200" stroke-linecap="round" opacity="1"/><line x1="1.817" y1="4.084" x2="2.395" y2="2.293" stroke="#e6e9ef" stroke-width="0.200" stroke-linecap="round" opacity="1"/><line x1="2.201" y1="2.893" x2="4.250" y2="2.893" stroke="#e6e9ef" stroke-width="0.200" stroke-linecap="round" opacity="1"/><line x1="2.718" y1="2.063" x2="3.950" y2="2.063" stroke="#e6e9ef" stroke-width="0.200" stroke-linecap="round" opacity="1"/><line x1="3.175" y1="-6.247" x2="3.175" y2="-6.417" stroke="#e6e9ef" stroke-width="0.200" stroke-linecap="round" opacity="1"/><line x1="4.250" y1="3.563" x2="4.250" y2="2.363" stroke="#e6e9ef" stroke-width="0.200" stroke-linecap="round" opacity="1"/><line x1="4.250" y1="3.563" x2="4.710" y2="5.862" stroke="#e6e9ef" stroke-width="0.200" stroke-linecap="round" opacity="1"/><line x1="4.335" y1="-5.767" x2="5.775" y2="-5.767" stroke="#e6e9ef" stroke-width="0.200" stroke-linecap="round" opacity="1"/><line x1="4.955" y1="6.063" x2="5.775" y2="6.063" stroke="#e6e9ef" stroke-width="0.200" stroke-linecap="round" opacity="1"/><line x1="5.686" y1="6.452" x2="6.055" y2="6.822" stroke="#e6e9ef" stroke-width="0.200" stroke-linecap="round" opacity="1"/><line x1="5.743" y1="2.743" x2="5.743" y2="1.920" stroke="#e6e9ef" stroke-width="0.200" stroke-linecap="round" opacity="1"/><line x1="5.743" y1="2.743" x2="5.773" y2="2.893" stroke="#e6e9ef" stroke-width="0.200" stroke-linecap="round" opacity="1"/><line x1="5.773" y1="2.893" x2="6.230" y2="2.893" stroke="#e6e9ef" stroke-width="0.200" stroke-linecap="round" opacity="1"/><line x1="5.775" y1="-5.424" x2="6.110" y2="-5.424" stroke="#e6e9ef" stroke-width="0.200" stroke-linecap="round" opacity="1"/><line x1="5.775" y1="-4.611" x2="6.110" y2="-4.611" stroke="#e6e9ef" stroke-width="0.200" stroke-linecap="round" opacity="1"/><line x1="5.775" y1="-2.307" x2="6.110" y2="-2.307" stroke="#e6e9ef" stroke-width="0.200" stroke-linecap="round" opacity="1"/><line x1="5.775" y1="-1.357" x2="6.110" y2="-1.357" stroke="#e6e9ef" stroke-width="0.200" stroke-linecap="round" opacity="1"/><line x1="5.775" y1="-0.437" x2="6.230" y2="-0.437" stroke="#e6e9ef" stroke-width="0.200" stroke-linecap="round" opacity="1"/><line x1="5.775" y1="-0.323" x2="5.775" y2="-5.767" stroke="#e6e9ef" stroke-width="0.200" stroke-linecap="round" opacity="1"/><line x1="5.775" y1="3.355" x2="5.775" y2="2.893" stroke="#e6e9ef" stroke-width="0.200" stroke-linecap="round" opacity="1"/><line x1="5.775" y1="6.063" x2="5.775" y2="5.591" stroke="#e6e9ef" stroke-width="0.200" stroke-linecap="round" opacity="1"/><line x1="5.863" y1="6.276" x2="6.232" y2="6.645" stroke="#e6e9ef" stroke-width="0.200" stroke-linecap="round" opacity="1"/><line x1="6.055" y1="6.822" x2="6.232" y2="6.645" stroke="#e6e9ef" stroke-width="0.200" stroke-linecap="round" opacity="1"/><line x1="6.110" y1="-4.611" x2="6.110" y2="-5.424" stroke="#e6e9ef" stroke-width="0.200" stroke-linecap="round" opacity="1"/><line x1="6.110" y1="-1.357" x2="6.110" y2="-2.307" stroke="#e6e9ef" stroke-width="0.200" stroke-linecap="round" opacity="1"/><line x1="6.230" y1="-0.048" x2="6.230" y2="-0.437" stroke="#e6e9ef" stroke-width="0.200" stroke-linecap="round" opacity="1"/><line x1="6.230" y1="2.893" x2="6.230" y2="1.635" stroke="#e6e9ef" stroke-width="0.200" stroke-linecap="round" opacity="1"/><line x1="-6.450" y1="6.823" x2="6.450" y2="6.823" stroke="#4a5160" stroke-width="0.080" stroke-linecap="round" opacity="0.7"/><line x1="-6.450" y1="22.073" x2="-6.450" y2="6.823" stroke="#4a5160" stroke-width="0.080" stroke-linecap="round" opacity="0.7"/><line x1="-6.450" y1="22.073" x2="-3.000" y2="22.073" stroke="#4a5160" stroke-width="0.080" stroke-linecap="round" opacity="0.7"/><line x1="-5.850" y1="4.473" x2="-5.650" y2="4.473" stroke="#4a5160" stroke-width="0.080" stroke-linecap="round" opacity="0.7"/><line x1="-5.650" y1="4.473" x2="-5.650" y2="4.273" stroke="#4a5160" stroke-width="0.080" stroke-linecap="round" opacity="0.7"/><line x1="-5.650" y1="4.473" x2="-5.450" y2="4.473" stroke="#4a5160" stroke-width="0.080" stroke-linecap="round" opacity="0.7"/><line x1="-5.650" y1="4.673" x2="-5.650" y2="4.473" stroke="#4a5160" stroke-width="0.080" stroke-linecap="round" opacity="0.7"/><line x1="-5.610" y1="0.793" x2="-5.410" y2="0.793" stroke="#4a5160" stroke-width="0.080" stroke-linecap="round" opacity="0.7"/><line x1="-5.410" y1="0.793" x2="-5.410" y2="0.593" stroke="#4a5160" stroke-width="0.080" stroke-linecap="round" opacity="0.7"/><line x1="-5.410" y1="0.793" x2="-5.210" y2="0.793" stroke="#4a5160" stroke-width="0.080" stroke-linecap="round" opacity="0.7"/><line x1="-5.410" y1="0.993" x2="-5.410" y2="0.793" stroke="#4a5160" stroke-width="0.080" stroke-linecap="round" opacity="0.7"/><line x1="-3.985" y1="-5.897" x2="-3.810" y2="-5.397" stroke="#4a5160" stroke-width="0.080" stroke-linecap="round" opacity="0.7"/><line x1="-3.985" y1="-5.897" x2="-3.635" y2="-5.897" stroke="#4a5160" stroke-width="0.080" stroke-linecap="round" opacity="0.7"/><line x1="-3.985" y1="-4.897" x2="-3.985" y2="-5.897" stroke="#4a5160" stroke-width="0.080" stroke-linecap="round" opacity="0.7"/><line x1="-3.985" y1="-4.897" x2="-3.635" y2="-4.897" stroke="#4a5160" stroke-width="0.080" stroke-linecap="round" opacity="0.7"/><line x1="-3.985" y1="-3.297" x2="-3.635" y2="-3.297" stroke="#4a5160" stroke-width="0.080" stroke-linecap="round" opacity="0.7"/><line x1="-3.985" y1="-2.297" x2="-3.985" y2="-3.297" stroke="#4a5160" stroke-width="0.080" stroke-linecap="round" opacity="0.7"/><line x1="-3.985" y1="-2.297" x2="-3.810" y2="-2.797" stroke="#4a5160" stroke-width="0.080" stroke-linecap="round" opacity="0.7"/><line x1="-3.985" y1="-2.297" x2="-3.635" y2="-2.297" stroke="#4a5160" stroke-width="0.080" stroke-linecap="round" opacity="0.7"/><line x1="-3.810" y1="-5.397" x2="-3.635" y2="-5.897" stroke="#4a5160" stroke-width="0.080" stroke-linecap="round" opacity="0.7"/><line x1="-3.810" y1="-2.797" x2="-3.635" y2="-2.297" stroke="#4a5160" stroke-width="0.080" stroke-linecap="round" opacity="0.7"/><line x1="-3.635" y1="-4.897" x2="-3.635" y2="-5.897" stroke="#4a5160" stroke-width="0.080" stroke-linecap="round" opacity="0.7"/><line x1="-3.635" y1="-2.297" x2="-3.635" y2="-3.297" stroke="#4a5160" stroke-width="0.080" stroke-linecap="round" opacity="0.7"/><line x1="-3.350" y1="-5.897" x2="-3.175" y2="-5.397" stroke="#4a5160" stroke-width="0.080" stroke-linecap="round" opacity="0.7"/><line x1="-3.350" y1="-5.897" x2="-3.000" y2="-5.897" stroke="#4a5160" stroke-width="0.080" stroke-linecap="round" opacity="0.7"/><line x1="-3.350" y1="-4.897" x2="-3.350" y2="-5.897" stroke="#4a5160" stroke-width="0.080" stroke-linecap="round" opacity="0.7"/><line x1="-3.350" y1="-4.897" x2="-3.000" y2="-4.897" stroke="#4a5160" stroke-width="0.080" stroke-linecap="round" opacity="0.7"/><line x1="-3.350" y1="-3.297" x2="-3.000" y2="-3.297" stroke="#4a5160" stroke-width="0.080" stroke-linecap="round" opacity="0.7"/><line x1="-3.350" y1="-2.297" x2="-3.350" y2="-3.297" stroke="#4a5160" stroke-width="0.080" stroke-linecap="round" opacity="0.7"/><line x1="-3.350" y1="-2.297" x2="-3.175" y2="-2.797" stroke="#4a5160" stroke-width="0.080" stroke-linecap="round" opacity="0.7"/><line x1="-3.350" y1="-2.297" x2="-3.000" y2="-2.297" stroke="#4a5160" stroke-width="0.080" stroke-linecap="round" opacity="0.7"/><line x1="-3.175" y1="-5.397" x2="-3.000" y2="-5.897" stroke="#4a5160" stroke-width="0.080" stroke-linecap="round" opacity="0.7"/><line x1="-3.175" y1="-2.797" x2="-3.000" y2="-2.297" stroke="#4a5160" stroke-width="0.080" stroke-linecap="round" opacity="0.7"/><line x1="-3.000" y1="-4.897" x2="-3.000" y2="-5.897" stroke="#4a5160" stroke-width="0.080" stroke-linecap="round" opacity="0.7"/><line x1="-3.000" y1="-2.297" x2="-3.000" y2="-3.297" stroke="#4a5160" stroke-width="0.080" stroke-linecap="round" opacity="0.7"/><line x1="-3.000" y1="27.073" x2="-3.000" y2="22.073" stroke="#4a5160" stroke-width="0.080" stroke-linecap="round" opacity="0.7"/><line x1="-3.000" y1="27.073" x2="3.000" y2="27.073" stroke="#4a5160" stroke-width="0.080" stroke-linecap="round" opacity="0.7"/><line x1="-2.715" y1="-5.897" x2="-2.540" y2="-5.397" stroke="#4a5160" stroke-width="0.080" stroke-linecap="round" opacity="0.7"/><line x1="-2.715" y1="-5.897" x2="-2.365" y2="-5.897" stroke="#4a5160" stroke-width="0.080" stroke-linecap="round" opacity="0.7"/><line x1="-2.715" y1="-4.897" x2="-2.715" y2="-5.897" stroke="#4a5160" stroke-width="0.080" stroke-linecap="round" opacity="0.7"/><line x1="-2.715" y1="-4.897" x2="-2.365" y2="-4.897" stroke="#4a5160" stroke-width="0.080" stroke-linecap="round" opacity="0.7"/><line x1="-2.715" y1="-3.297" x2="-2.365" y2="-3.297" stroke="#4a5160" stroke-width="0.080" stroke-linecap="round" opacity="0.7"/><line x1="-2.715" y1="-2.297" x2="-2.715" y2="-3.297" stroke="#4a5160" stroke-width="0.080" stroke-linecap="round" opacity="0.7"/><line x1="-2.715" y1="-2.297" x2="-2.540" y2="-2.797" stroke="#4a5160" stroke-width="0.080" stroke-linecap="round" opacity="0.7"/><line x1="-2.715" y1="-2.297" x2="-2.365" y2="-2.297" stroke="#4a5160" stroke-width="0.080" stroke-linecap="round" opacity="0.7"/><line x1="-2.540" y1="-5.397" x2="-2.365" y2="-5.897" stroke="#4a5160" stroke-width="0.080" stroke-linecap="round" opacity="0.7"/><line x1="-2.540" y1="-2.797" x2="-2.365" y2="-2.297" stroke="#4a5160" stroke-width="0.080" stroke-linecap="round" opacity="0.7"/><line x1="-2.365" y1="-4.897" x2="-2.365" y2="-5.897" stroke="#4a5160" stroke-width="0.080" stroke-linecap="round" opacity="0.7"/><line x1="-2.365" y1="-2.297" x2="-2.365" y2="-3.297" stroke="#4a5160" stroke-width="0.080" stroke-linecap="round" opacity="0.7"/><line x1="-2.080" y1="-5.897" x2="-1.905" y2="-5.397" stroke="#4a5160" stroke-width="0.080" stroke-linecap="round" opacity="0.7"/><line x1="-2.080" y1="-5.897" x2="-1.730" y2="-5.897" stroke="#4a5160" stroke-width="0.080" stroke-linecap="round" opacity="0.7"/><line x1="-2.080" y1="-4.897" x2="-2.080" y2="-5.897" stroke="#4a5160" stroke-width="0.080" stroke-linecap="round" opacity="0.7"/><line x1="-2.080" y1="-4.897" x2="-1.730" y2="-4.897" stroke="#4a5160" stroke-width="0.080" stroke-linecap="round" opacity="0.7"/><line x1="-2.080" y1="-3.297" x2="-1.730" y2="-3.297" stroke="#4a5160" stroke-width="0.080" stroke-linecap="round" opacity="0.7"/><line x1="-2.080" y1="-2.297" x2="-2.080" y2="-3.297" stroke="#4a5160" stroke-width="0.080" stroke-linecap="round" opacity="0.7"/><line x1="-2.080" y1="-2.297" x2="-1.905" y2="-2.797" stroke="#4a5160" stroke-width="0.080" stroke-linecap="round" opacity="0.7"/><line x1="-2.080" y1="-2.297" x2="-1.730" y2="-2.297" stroke="#4a5160" stroke-width="0.080" stroke-linecap="round" opacity="0.7"/><line x1="-1.905" y1="-5.397" x2="-1.730" y2="-5.897" stroke="#4a5160" stroke-width="0.080" stroke-linecap="round" opacity="0.7"/><line x1="-1.905" y1="-2.797" x2="-1.730" y2="-2.297" stroke="#4a5160" stroke-width="0.080" stroke-linecap="round" opacity="0.7"/><line x1="-1.730" y1="-4.897" x2="-1.730" y2="-5.897" stroke="#4a5160" stroke-width="0.080" stroke-linecap="round" opacity="0.7"/><line x1="-1.730" y1="-2.297" x2="-1.730" y2="-3.297" stroke="#4a5160" stroke-width="0.080" stroke-linecap="round" opacity="0.7"/><line x1="-1.445" y1="-5.897" x2="-1.270" y2="-5.397" stroke="#4a5160" stroke-width="0.080" stroke-linecap="round" opacity="0.7"/><line x1="-1.445" y1="-5.897" x2="-1.095" y2="-5.897" stroke="#4a5160" stroke-width="0.080" stroke-linecap="round" opacity="0.7"/><line x1="-1.445" y1="-4.897" x2="-1.445" y2="-5.897" stroke="#4a5160" stroke-width="0.080" stroke-linecap="round" opacity="0.7"/><line x1="-1.445" y1="-4.897" x2="-1.095" y2="-4.897" stroke="#4a5160" stroke-width="0.080" stroke-linecap="round" opacity="0.7"/><line x1="-1.445" y1="-3.297" x2="-1.095" y2="-3.297" stroke="#4a5160" stroke-width="0.080" stroke-linecap="round" opacity="0.7"/><line x1="-1.445" y1="-2.297" x2="-1.445" y2="-3.297" stroke="#4a5160" stroke-width="0.080" stroke-linecap="round" opacity="0.7"/><line x1="-1.445" y1="-2.297" x2="-1.270" y2="-2.797" stroke="#4a5160" stroke-width="0.080" stroke-linecap="round" opacity="0.7"/><line x1="-1.445" y1="-2.297" x2="-1.095" y2="-2.297" stroke="#4a5160" stroke-width="0.080" stroke-linecap="round" opacity="0.7"/><line x1="-1.270" y1="-5.397" x2="-1.095" y2="-5.897" stroke="#4a5160" stroke-width="0.080" stroke-linecap="round" opacity="0.7"/><line x1="-1.270" y1="-2.797" x2="-1.095" y2="-2.297" stroke="#4a5160" stroke-width="0.080" stroke-linecap="round" opacity="0.7"/><line x1="-1.095" y1="-4.897" x2="-1.095" y2="-5.897" stroke="#4a5160" stroke-width="0.080" stroke-linecap="round" opacity="0.7"/><line x1="-1.095" y1="-2.297" x2="-1.095" y2="-3.297" stroke="#4a5160" stroke-width="0.080" stroke-linecap="round" opacity="0.7"/><line x1="-0.810" y1="-5.897" x2="-0.635" y2="-5.397" stroke="#4a5160" stroke-width="0.080" stroke-linecap="round" opacity="0.7"/><line x1="-0.810" y1="-5.897" x2="-0.460" y2="-5.897" stroke="#4a5160" stroke-width="0.080" stroke-linecap="round" opacity="0.7"/><line x1="-0.810" y1="-4.897" x2="-0.810" y2="-5.897" stroke="#4a5160" stroke-width="0.080" stroke-linecap="round" opacity="0.7"/><line x1="-0.810" y1="-4.897" x2="-0.460" y2="-4.897" stroke="#4a5160" stroke-width="0.080" stroke-linecap="round" opacity="0.7"/><line x1="-0.810" y1="-3.297" x2="-0.460" y2="-3.297" stroke="#4a5160" stroke-width="0.080" stroke-linecap="round" opacity="0.7"/><line x1="-0.810" y1="-2.297" x2="-0.810" y2="-3.297" stroke="#4a5160" stroke-width="0.080" stroke-linecap="round" opacity="0.7"/><line x1="-0.810" y1="-2.297" x2="-0.635" y2="-2.797" stroke="#4a5160" stroke-width="0.080" stroke-linecap="round" opacity="0.7"/><line x1="-0.810" y1="-2.297" x2="-0.460" y2="-2.297" stroke="#4a5160" stroke-width="0.080" stroke-linecap="round" opacity="0.7"/><line x1="-0.635" y1="-5.397" x2="-0.460" y2="-5.897" stroke="#4a5160" stroke-width="0.080" stroke-linecap="round" opacity="0.7"/><line x1="-0.635" y1="-2.797" x2="-0.460" y2="-2.297" stroke="#4a5160" stroke-width="0.080" stroke-linecap="round" opacity="0.7"/><line x1="-0.500" y1="0.000" x2="0.000" y2="0.000" stroke="#4a5160" stroke-width="0.080" stroke-linecap="round" opacity="0.7"/><line x1="-0.460" y1="-4.897" x2="-0.460" y2="-5.897" stroke="#4a5160" stroke-width="0.080" stroke-linecap="round" opacity="0.7"/><line x1="-0.460" y1="-2.297" x2="-0.460" y2="-3.297" stroke="#4a5160" stroke-width="0.080" stroke-linecap="round" opacity="0.7"/><line x1="-0.175" y1="-5.897" x2="0.000" y2="-5.397" stroke="#4a5160" stroke-width="0.080" stroke-linecap="round" opacity="0.7"/><line x1="-0.175" y1="-5.897" x2="0.175" y2="-5.897" stroke="#4a5160" stroke-width="0.080" stroke-linecap="round" opacity="0.7"/><line x1="-0.175" y1="-4.897" x2="-0.175" y2="-5.897" stroke="#4a5160" stroke-width="0.080" stroke-linecap="round" opacity="0.7"/><line x1="-0.175" y1="-4.897" x2="0.175" y2="-4.897" stroke="#4a5160" stroke-width="0.080" stroke-linecap="round" opacity="0.7"/><line x1="-0.175" y1="-3.297" x2="0.175" y2="-3.297" stroke="#4a5160" stroke-width="0.080" stroke-linecap="round" opacity="0.7"/><line x1="-0.175" y1="-2.297" x2="-0.175" y2="-3.297" stroke="#4a5160" stroke-width="0.080" stroke-linecap="round" opacity="0.7"/><line x1="-0.175" y1="-2.297" x2="0.000" y2="-2.797" stroke="#4a5160" stroke-width="0.080" stroke-linecap="round" opacity="0.7"/><line x1="-0.175" y1="-2.297" x2="0.175" y2="-2.297" stroke="#4a5160" stroke-width="0.080" stroke-linecap="round" opacity="0.7"/><line x1="0.000" y1="-5.397" x2="0.175" y2="-5.897" stroke="#4a5160" stroke-width="0.080" stroke-linecap="round" opacity="0.7"/><line x1="0.000" y1="-2.797" x2="0.175" y2="-2.297" stroke="#4a5160" stroke-width="0.080" stroke-linecap="round" opacity="0.7"/><line x1="0.000" y1="0.000" x2="0.000" y2="-0.500" stroke="#4a5160" stroke-width="0.080" stroke-linecap="round" opacity="0.7"/><line x1="0.000" y1="0.000" x2="0.500" y2="0.000" stroke="#4a5160" stroke-width="0.080" stroke-linecap="round" opacity="0.7"/><line x1="0.000" y1="0.500" x2="0.000" y2="0.000" stroke="#4a5160" stroke-width="0.080" stroke-linecap="round" opacity="0.7"/><line x1="0.175" y1="-4.897" x2="0.175" y2="-5.897" stroke="#4a5160" stroke-width="0.080" stroke-linecap="round" opacity="0.7"/><line x1="0.175" y1="-2.297" x2="0.175" y2="-3.297" stroke="#4a5160" stroke-width="0.080" stroke-linecap="round" opacity="0.7"/><line x1="0.460" y1="-5.897" x2="0.635" y2="-5.397" stroke="#4a5160" stroke-width="0.080" stroke-linecap="round" opacity="0.7"/><line x1="0.460" y1="-5.897" x2="0.810" y2="-5.897" stroke="#4a5160" stroke-width="0.080" stroke-linecap="round" opacity="0.7"/><line x1="0.460" y1="-4.897" x2="0.460" y2="-5.897" stroke="#4a5160" stroke-width="0.080" stroke-linecap="round" opacity="0.7"/><line x1="0.460" y1="-4.897" x2="0.810" y2="-4.897" stroke="#4a5160" stroke-width="0.080" stroke-linecap="round" opacity="0.7"/><line x1="0.460" y1="-3.297" x2="0.810" y2="-3.297" stroke="#4a5160" stroke-width="0.080" stroke-linecap="round" opacity="0.7"/><line x1="0.460" y1="-2.297" x2="0.460" y2="-3.297" stroke="#4a5160" stroke-width="0.080" stroke-linecap="round" opacity="0.7"/><line x1="0.460" y1="-2.297" x2="0.635" y2="-2.797" stroke="#4a5160" stroke-width="0.080" stroke-linecap="round" opacity="0.7"/><line x1="0.460" y1="-2.297" x2="0.810" y2="-2.297" stroke="#4a5160" stroke-width="0.080" stroke-linecap="round" opacity="0.7"/><line x1="0.635" y1="-5.397" x2="0.810" y2="-5.897" stroke="#4a5160" stroke-width="0.080" stroke-linecap="round" opacity="0.7"/><line x1="0.635" y1="-2.797" x2="0.810" y2="-2.297" stroke="#4a5160" stroke-width="0.080" stroke-linecap="round" opacity="0.7"/><line x1="0.810" y1="-4.897" x2="0.810" y2="-5.897" stroke="#4a5160" stroke-width="0.080" stroke-linecap="round" opacity="0.7"/><line x1="0.810" y1="-2.297" x2="0.810" y2="-3.297" stroke="#4a5160" stroke-width="0.080" stroke-linecap="round" opacity="0.7"/><line x1="1.095" y1="-5.897" x2="1.270" y2="-5.397" stroke="#4a5160" stroke-width="0.080" stroke-linecap="round" opacity="0.7"/><line x1="1.095" y1="-5.897" x2="1.445" y2="-5.897" stroke="#4a5160" stroke-width="0.080" stroke-linecap="round" opacity="0.7"/><line x1="1.095" y1="-4.897" x2="1.095" y2="-5.897" stroke="#4a5160" stroke-width="0.080" stroke-linecap="round" opacity="0.7"/><line x1="1.095" y1="-4.897" x2="1.445" y2="-4.897" stroke="#4a5160" stroke-width="0.080" stroke-linecap="round" opacity="0.7"/><line x1="1.095" y1="-3.297" x2="1.445" y2="-3.297" stroke="#4a5160" stroke-width="0.080" stroke-linecap="round" opacity="0.7"/><line x1="1.095" y1="-2.297" x2="1.095" y2="-3.297" stroke="#4a5160" stroke-width="0.080" stroke-linecap="round" opacity="0.7"/><line x1="1.095" y1="-2.297" x2="1.270" y2="-2.797" stroke="#4a5160" stroke-width="0.080" stroke-linecap="round" opacity="0.7"/><line x1="1.095" y1="-2.297" x2="1.445" y2="-2.297" stroke="#4a5160" stroke-width="0.080" stroke-linecap="round" opacity="0.7"/><line x1="1.270" y1="-5.397" x2="1.445" y2="-5.897" stroke="#4a5160" stroke-width="0.080" stroke-linecap="round" opacity="0.7"/><line x1="1.270" y1="-2.797" x2="1.445" y2="-2.297" stroke="#4a5160" stroke-width="0.080" stroke-linecap="round" opacity="0.7"/><line x1="1.445" y1="-4.897" x2="1.445" y2="-5.897" stroke="#4a5160" stroke-width="0.080" stroke-linecap="round" opacity="0.7"/><line x1="1.445" y1="-2.297" x2="1.445" y2="-3.297" stroke="#4a5160" stroke-width="0.080" stroke-linecap="round" opacity="0.7"/><line x1="1.730" y1="-5.897" x2="1.905" y2="-5.397" stroke="#4a5160" stroke-width="0.080" stroke-linecap="round" opacity="0.7"/><line x1="1.730" y1="-5.897" x2="2.080" y2="-5.897" stroke="#4a5160" stroke-width="0.080" stroke-linecap="round" opacity="0.7"/><line x1="1.730" y1="-4.897" x2="1.730" y2="-5.897" stroke="#4a5160" stroke-width="0.080" stroke-linecap="round" opacity="0.7"/><line x1="1.730" y1="-4.897" x2="2.080" y2="-4.897" stroke="#4a5160" stroke-width="0.080" stroke-linecap="round" opacity="0.7"/><line x1="1.730" y1="-3.297" x2="2.080" y2="-3.297" stroke="#4a5160" stroke-width="0.080" stroke-linecap="round" opacity="0.7"/><line x1="1.730" y1="-2.297" x2="1.730" y2="-3.297" stroke="#4a5160" stroke-width="0.080" stroke-linecap="round" opacity="0.7"/><line x1="1.730" y1="-2.297" x2="1.905" y2="-2.797" stroke="#4a5160" stroke-width="0.080" stroke-linecap="round" opacity="0.7"/><line x1="1.730" y1="-2.297" x2="2.080" y2="-2.297" stroke="#4a5160" stroke-width="0.080" stroke-linecap="round" opacity="0.7"/><line x1="1.905" y1="-5.397" x2="2.080" y2="-5.897" stroke="#4a5160" stroke-width="0.080" stroke-linecap="round" opacity="0.7"/><line x1="1.905" y1="-2.797" x2="2.080" y2="-2.297" stroke="#4a5160" stroke-width="0.080" stroke-linecap="round" opacity="0.7"/><line x1="2.080" y1="-4.897" x2="2.080" y2="-5.897" stroke="#4a5160" stroke-width="0.080" stroke-linecap="round" opacity="0.7"/><line x1="2.080" y1="-2.297" x2="2.080" y2="-3.297" stroke="#4a5160" stroke-width="0.080" stroke-linecap="round" opacity="0.7"/><line x1="2.365" y1="-5.897" x2="2.540" y2="-5.397" stroke="#4a5160" stroke-width="0.080" stroke-linecap="round" opacity="0.7"/><line x1="2.365" y1="-5.897" x2="2.715" y2="-5.897" stroke="#4a5160" stroke-width="0.080" stroke-linecap="round" opacity="0.7"/><line x1="2.365" y1="-4.897" x2="2.365" y2="-5.897" stroke="#4a5160" stroke-width="0.080" stroke-linecap="round" opacity="0.7"/><line x1="2.365" y1="-4.897" x2="2.715" y2="-4.897" stroke="#4a5160" stroke-width="0.080" stroke-linecap="round" opacity="0.7"/><line x1="2.365" y1="-3.297" x2="2.715" y2="-3.297" stroke="#4a5160" stroke-width="0.080" stroke-linecap="round" opacity="0.7"/><line x1="2.365" y1="-2.297" x2="2.365" y2="-3.297" stroke="#4a5160" stroke-width="0.080" stroke-linecap="round" opacity="0.7"/><line x1="2.365" y1="-2.297" x2="2.540" y2="-2.797" stroke="#4a5160" stroke-width="0.080" stroke-linecap="round" opacity="0.7"/><line x1="2.365" y1="-2.297" x2="2.715" y2="-2.297" stroke="#4a5160" stroke-width="0.080" stroke-linecap="round" opacity="0.7"/><line x1="2.540" y1="-5.397" x2="2.715" y2="-5.897" stroke="#4a5160" stroke-width="0.080" stroke-linecap="round" opacity="0.7"/><line x1="2.540" y1="-2.797" x2="2.715" y2="-2.297" stroke="#4a5160" stroke-width="0.080" stroke-linecap="round" opacity="0.7"/><line x1="2.715" y1="-4.897" x2="2.715" y2="-5.897" stroke="#4a5160" stroke-width="0.080" stroke-linecap="round" opacity="0.7"/><line x1="2.715" y1="-2.297" x2="2.715" y2="-3.297" stroke="#4a5160" stroke-width="0.080" stroke-linecap="round" opacity="0.7"/><line x1="3.000" y1="-5.897" x2="3.175" y2="-5.397" stroke="#4a5160" stroke-width="0.080" stroke-linecap="round" opacity="0.7"/><line x1="3.000" y1="-5.897" x2="3.350" y2="-5.897" stroke="#4a5160" stroke-width="0.080" stroke-linecap="round" opacity="0.7"/><line x1="3.000" y1="-4.897" x2="3.000" y2="-5.897" stroke="#4a5160" stroke-width="0.080" stroke-linecap="round" opacity="0.7"/><line x1="3.000" y1="-4.897" x2="3.350" y2="-4.897" stroke="#4a5160" stroke-width="0.080" stroke-linecap="round" opacity="0.7"/><line x1="3.000" y1="-3.297" x2="3.350" y2="-3.297" stroke="#4a5160" stroke-width="0.080" stroke-linecap="round" opacity="0.7"/><line x1="3.000" y1="-2.297" x2="3.000" y2="-3.297" stroke="#4a5160" stroke-width="0.080" stroke-linecap="round" opacity="0.7"/><line x1="3.000" y1="-2.297" x2="3.175" y2="-2.797" stroke="#4a5160" stroke-width="0.080" stroke-linecap="round" opacity="0.7"/><line x1="3.000" y1="-2.297" x2="3.350" y2="-2.297" stroke="#4a5160" stroke-width="0.080" stroke-linecap="round" opacity="0.7"/><line x1="3.000" y1="22.073" x2="6.450" y2="22.073" stroke="#4a5160" stroke-width="0.080" stroke-linecap="round" opacity="0.7"/><line x1="3.000" y1="27.073" x2="3.000" y2="22.073" stroke="#4a5160" stroke-width="0.080" stroke-linecap="round" opacity="0.7"/><line x1="3.175" y1="-5.397" x2="3.350" y2="-5.897" stroke="#4a5160" stroke-width="0.080" stroke-linecap="round" opacity="0.7"/><line x1="3.175" y1="-2.797" x2="3.350" y2="-2.297" stroke="#4a5160" stroke-width="0.080" stroke-linecap="round" opacity="0.7"/><line x1="3.350" y1="-4.897" x2="3.350" y2="-5.897" stroke="#4a5160" stroke-width="0.080" stroke-linecap="round" opacity="0.7"/><line x1="3.350" y1="-2.297" x2="3.350" y2="-3.297" stroke="#4a5160" stroke-width="0.080" stroke-linecap="round" opacity="0.7"/><line x1="3.635" y1="-5.897" x2="3.810" y2="-5.397" stroke="#4a5160" stroke-width="0.080" stroke-linecap="round" opacity="0.7"/><line x1="3.635" y1="-5.897" x2="3.985" y2="-5.897" stroke="#4a5160" stroke-width="0.080" stroke-linecap="round" opacity="0.7"/><line x1="3.635" y1="-4.897" x2="3.635" y2="-5.897" stroke="#4a5160" stroke-width="0.080" stroke-linecap="round" opacity="0.7"/><line x1="3.635" y1="-4.897" x2="3.985" y2="-4.897" stroke="#4a5160" stroke-width="0.080" stroke-linecap="round" opacity="0.7"/><line x1="3.635" y1="-3.297" x2="3.985" y2="-3.297" stroke="#4a5160" stroke-width="0.080" stroke-linecap="round" opacity="0.7"/><line x1="3.635" y1="-2.297" x2="3.635" y2="-3.297" stroke="#4a5160" stroke-width="0.080" stroke-linecap="round" opacity="0.7"/><line x1="3.635" y1="-2.297" x2="3.810" y2="-2.797" stroke="#4a5160" stroke-width="0.080" stroke-linecap="round" opacity="0.7"/><line x1="3.635" y1="-2.297" x2="3.985" y2="-2.297" stroke="#4a5160" stroke-width="0.080" stroke-linecap="round" opacity="0.7"/><line x1="3.810" y1="-5.397" x2="3.985" y2="-5.897" stroke="#4a5160" stroke-width="0.080" stroke-linecap="round" opacity="0.7"/><line x1="3.810" y1="-2.797" x2="3.985" y2="-2.297" stroke="#4a5160" stroke-width="0.080" stroke-linecap="round" opacity="0.7"/><line x1="3.985" y1="-4.897" x2="3.985" y2="-5.897" stroke="#4a5160" stroke-width="0.080" stroke-linecap="round" opacity="0.7"/><line x1="3.985" y1="-2.297" x2="3.985" y2="-3.297" stroke="#4a5160" stroke-width="0.080" stroke-linecap="round" opacity="0.7"/><line x1="5.210" y1="0.793" x2="5.410" y2="0.793" stroke="#4a5160" stroke-width="0.080" stroke-linecap="round" opacity="0.7"/><line x1="5.410" y1="0.793" x2="5.410" y2="0.593" stroke="#4a5160" stroke-width="0.080" stroke-linecap="round" opacity="0.7"/><line x1="5.410" y1="0.793" x2="5.610" y2="0.793" stroke="#4a5160" stroke-width="0.080" stroke-linecap="round" opacity="0.7"/><line x1="5.410" y1="0.993" x2="5.410" y2="0.793" stroke="#4a5160" stroke-width="0.080" stroke-linecap="round" opacity="0.7"/><line x1="5.450" y1="4.473" x2="5.650" y2="4.473" stroke="#4a5160" stroke-width="0.080" stroke-linecap="round" opacity="0.7"/><line x1="5.650" y1="4.473" x2="5.650" y2="4.273" stroke="#4a5160" stroke-width="0.080" stroke-linecap="round" opacity="0.7"/><line x1="5.650" y1="4.473" x2="5.850" y2="4.473" stroke="#4a5160" stroke-width="0.080" stroke-linecap="round" opacity="0.7"/><line x1="5.650" y1="4.673" x2="5.650" y2="4.473" stroke="#4a5160" stroke-width="0.080" stroke-linecap="round" opacity="0.7"/><line x1="6.450" y1="22.073" x2="6.450" y2="6.823" stroke="#4a5160" stroke-width="0.080" stroke-linecap="round" opacity="0.7"/><line x1="-6.675" y1="-6.667" x2="6.675" y2="-6.667" stroke="#d24d4d" stroke-width="0.080" stroke-linecap="round" opacity="0.7"/><line x1="-6.675" y1="7.072" x2="-6.675" y2="-6.667" stroke="#d24d4d" stroke-width="0.080" stroke-linecap="round" opacity="0.7"/><line x1="-6.675" y1="7.072" x2="6.675" y2="7.072" stroke="#d24d4d" stroke-width="0.080" stroke-linecap="round" opacity="0.7"/><line x1="6.675" y1="7.072" x2="6.675" y2="-6.667" stroke="#d24d4d" stroke-width="0.080" stroke-linecap="round" opacity="0.7"/><line x1="-6.232" y1="6.645" x2="-6.055" y2="6.822" stroke="#6b7280" stroke-width="0.100" stroke-linecap="round" opacity="0.8"/><line x1="-6.232" y1="6.645" x2="-5.863" y2="6.276" stroke="#6b7280" stroke-width="0.100" stroke-linecap="round" opacity="0.8"/><line x1="-6.230" y1="-0.437" x2="-5.775" y2="-0.437" stroke="#6b7280" stroke-width="0.100" stroke-linecap="round" opacity="0.8"/><line x1="-6.230" y1="2.893" x2="-6.230" y2="-0.437" stroke="#6b7280" stroke-width="0.100" stroke-linecap="round" opacity="0.8"/><line x1="-6.230" y1="2.893" x2="-5.773" y2="2.893" stroke="#6b7280" stroke-width="0.100" stroke-linecap="round" opacity="0.8"/><line x1="-6.110" y1="-5.424" x2="-5.775" y2="-5.424" stroke="#6b7280" stroke-width="0.100" stroke-linecap="round" opacity="0.8"/><line x1="-6.110" y1="-4.611" x2="-6.110" y2="-5.424" stroke="#6b7280" stroke-width="0.100" stroke-linecap="round" opacity="0.8"/><line x1="-6.110" y1="-4.611" x2="-5.775" y2="-4.611" stroke="#6b7280" stroke-width="0.100" stroke-linecap="round" opacity="0.8"/><line x1="-6.110" y1="-2.307" x2="-5.775" y2="-2.307" stroke="#6b7280" stroke-width="0.100" stroke-linecap="round" opacity="0.8"/><line x1="-6.110" y1="-1.357" x2="-6.110" y2="-2.307" stroke="#6b7280" stroke-width="0.100" stroke-linecap="round" opacity="0.8"/><line x1="-6.110" y1="-1.357" x2="-5.775" y2="-1.357" stroke="#6b7280" stroke-width="0.100" stroke-linecap="round" opacity="0.8"/><line x1="-6.055" y1="6.822" x2="-5.686" y2="6.452" stroke="#6b7280" stroke-width="0.100" stroke-linecap="round" opacity="0.8"/><line x1="-5.775" y1="-5.767" x2="-3.175" y2="-5.767" stroke="#6b7280" stroke-width="0.100" stroke-linecap="round" opacity="0.8"/><line x1="-5.775" y1="-0.237" x2="-5.775" y2="-5.767" stroke="#6b7280" stroke-width="0.100" stroke-linecap="round" opacity="0.8"/><line x1="-5.775" y1="-0.237" x2="-5.743" y2="-0.087" stroke="#6b7280" stroke-width="0.100" stroke-linecap="round" opacity="0.8"/><line x1="-5.775" y1="6.063" x2="-5.775" y2="2.893" stroke="#6b7280" stroke-width="0.100" stroke-linecap="round" opacity="0.8"/><line x1="-5.775" y1="6.063" x2="-4.955" y2="6.063" stroke="#6b7280" stroke-width="0.100" stroke-linecap="round" opacity="0.8"/><line x1="-5.773" y1="2.893" x2="-5.743" y2="2.743" stroke="#6b7280" stroke-width="0.100" stroke-linecap="round" opacity="0.8"/><line x1="-5.743" y1="2.743" x2="-5.743" y2="-0.087" stroke="#6b7280" stroke-width="0.100" stroke-linecap="round" opacity="0.8"/><line x1="-4.710" y1="5.862" x2="-4.250" y2="3.563" stroke="#6b7280" stroke-width="0.100" stroke-linecap="round" opacity="0.8"/><line x1="-4.250" y1="2.893" x2="-2.201" y2="2.893" stroke="#6b7280" stroke-width="0.100" stroke-linecap="round" opacity="0.8"/><line x1="-4.250" y1="3.563" x2="-4.250" y2="2.363" stroke="#6b7280" stroke-width="0.100" stroke-linecap="round" opacity="0.8"/><line x1="-3.950" y1="2.063" x2="-2.718" y2="2.063" stroke="#6b7280" stroke-width="0.100" stroke-linecap="round" opacity="0.8"/><line x1="-3.175" y1="-6.417" x2="3.175" y2="-6.417" stroke="#6b7280" stroke-width="0.100" stroke-linecap="round" opacity="0.8"/><line x1="-3.175" y1="-5.767" x2="-3.175" y2="-6.417" stroke="#6b7280" stroke-width="0.100" stroke-linecap="round" opacity="0.8"/><line x1="-2.395" y1="2.293" x2="-1.817" y2="4.084" stroke="#6b7280" stroke-width="0.100" stroke-linecap="round" opacity="0.8"/><line x1="-1.610" y1="3.161" x2="-1.610" y2="2.754" stroke="#6b7280" stroke-width="0.100" stroke-linecap="round" opacity="0.8"/><line x1="-1.532" y1="4.242" x2="1.532" y2="4.242" stroke="#6b7280" stroke-width="0.100" stroke-linecap="round" opacity="0.8"/><line x1="-1.531" y1="2.645" x2="-1.410" y2="2.610" stroke="#6b7280" stroke-width="0.100" stroke-linecap="round" opacity="0.8"/><line x1="-1.410" y1="2.610" x2="-1.140" y2="2.610" stroke="#6b7280" stroke-width="0.100" stroke-linecap="round" opacity="0.8"/><line x1="-1.410" y1="3.361" x2="-1.140" y2="3.361" stroke="#6b7280" stroke-width="0.100" stroke-linecap="round" opacity="0.8"/><line x1="-1.140" y1="2.610" x2="-0.940" y2="2.730" stroke="#6b7280" stroke-width="0.100" stroke-linecap="round" opacity="0.8"/><line x1="-0.940" y1="3.161" x2="-0.940" y2="2.730" stroke="#6b7280" stroke-width="0.100" stroke-linecap="round" opacity="0.8"/><line x1="0.940" y1="2.730" x2="1.140" y2="2.610" stroke="#6b7280" stroke-width="0.100" stroke-linecap="round" opacity="0.8"/><line x1="0.940" y1="3.161" x2="0.940" y2="2.730" stroke="#6b7280" stroke-width="0.100" stroke-linecap="round" opacity="0.8"/><line x1="1.140" y1="2.610" x2="1.410" y2="2.610" stroke="#6b7280" stroke-width="0.100" stroke-linecap="round" opacity="0.8"/><line x1="1.140" y1="3.361" x2="1.410" y2="3.361" stroke="#6b7280" stroke-width="0.100" stroke-linecap="round" opacity="0.8"/><line x1="1.410" y1="2.610" x2="1.531" y2="2.645" stroke="#6b7280" stroke-width="0.100" stroke-linecap="round" opacity="0.8"/><line x1="1.610" y1="3.161" x2="1.610" y2="2.754" stroke="#6b7280" stroke-width="0.100" stroke-linecap="round" opacity="0.8"/><line x1="1.817" y1="4.084" x2="2.395" y2="2.293" stroke="#6b7280" stroke-width="0.100" stroke-linecap="round" opacity="0.8"/><line x1="2.201" y1="2.893" x2="4.250" y2="2.893" stroke="#6b7280" stroke-width="0.100" stroke-linecap="round" opacity="0.8"/><line x1="2.718" y1="2.063" x2="3.950" y2="2.063" stroke="#6b7280" stroke-width="0.100" stroke-linecap="round" opacity="0.8"/><line x1="3.175" y1="-5.767" x2="3.175" y2="-6.417" stroke="#6b7280" stroke-width="0.100" stroke-linecap="round" opacity="0.8"/><line x1="3.175" y1="-5.767" x2="5.775" y2="-5.767" stroke="#6b7280" stroke-width="0.100" stroke-linecap="round" opacity="0.8"/><line x1="4.250" y1="3.563" x2="4.250" y2="2.363" stroke="#6b7280" stroke-width="0.100" stroke-linecap="round" opacity="0.8"/><line x1="4.250" y1="3.563" x2="4.710" y2="5.862" stroke="#6b7280" stroke-width="0.100" stroke-linecap="round" opacity="0.8"/><line x1="4.955" y1="6.063" x2="5.775" y2="6.063" stroke="#6b7280" stroke-width="0.100" stroke-linecap="round" opacity="0.8"/><line x1="5.686" y1="6.452" x2="6.055" y2="6.822" stroke="#6b7280" stroke-width="0.100" stroke-linecap="round" opacity="0.8"/><line x1="5.743" y1="-0.087" x2="5.775" y2="-0.237" stroke="#6b7280" stroke-width="0.100" stroke-linecap="round" opacity="0.8"/><line x1="5.743" y1="2.743" x2="5.743" y2="-0.087" stroke="#6b7280" stroke-width="0.100" stroke-linecap="round" opacity="0.8"/><line x1="5.743" y1="2.743" x2="5.773" y2="2.893" stroke="#6b7280" stroke-width="0.100" stroke-linecap="round" opacity="0.8"/><line x1="5.773" y1="2.893" x2="6.230" y2="2.893" stroke="#6b7280" stroke-width="0.100" stroke-linecap="round" opacity="0.8"/><line x1="5.775" y1="-5.424" x2="6.110" y2="-5.424" stroke="#6b7280" stroke-width="0.100" stroke-linecap="round" opacity="0.8"/><line x1="5.775" y1="-4.611" x2="6.110" y2="-4.611" stroke="#6b7280" stroke-width="0.100" stroke-linecap="round" opacity="0.8"/><line x1="5.775" y1="-2.307" x2="6.110" y2="-2.307" stroke="#6b7280" stroke-width="0.100" stroke-linecap="round" opacity="0.8"/><line x1="5.775" y1="-1.357" x2="6.110" y2="-1.357" stroke="#6b7280" stroke-width="0.100" stroke-linecap="round" opacity="0.8"/><line x1="5.775" y1="-0.437" x2="6.230" y2="-0.437" stroke="#6b7280" stroke-width="0.100" stroke-linecap="round" opacity="0.8"/><line x1="5.775" y1="-0.237" x2="5.775" y2="-5.767" stroke="#6b7280" stroke-width="0.100" stroke-linecap="round" opacity="0.8"/><line x1="5.775" y1="6.063" x2="5.775" y2="2.893" stroke="#6b7280" stroke-width="0.100" stroke-linecap="round" opacity="0.8"/><line x1="5.863" y1="6.276" x2="6.232" y2="6.645" stroke="#6b7280" stroke-width="0.100" stroke-linecap="round" opacity="0.8"/><line x1="6.055" y1="6.822" x2="6.232" y2="6.645" stroke="#6b7280" stroke-width="0.100" stroke-linecap="round" opacity="0.8"/><line x1="6.110" y1="-4.611" x2="6.110" y2="-5.424" stroke="#6b7280" stroke-width="0.100" stroke-linecap="round" opacity="0.8"/><line x1="6.110" y1="-1.357" x2="6.110" y2="-2.307" stroke="#6b7280" stroke-width="0.100" stroke-linecap="round" opacity="0.8"/><line x1="6.230" y1="2.893" x2="6.230" y2="-0.437" stroke="#6b7280" stroke-width="0.100" stroke-linecap="round" opacity="0.8"/><path d="M -5.775 6.063 A 0.300 0.300 0 0 1 -5.863 6.276" fill="none" stroke="#e6e9ef" stroke-width="0.12" opacity="1"/><path d="M -5.525 6.063 A 0.550 0.550 0 0 1 -5.686 6.452" fill="none" stroke="#e6e9ef" stroke-width="0.12" opacity="1"/><path d="M -4.710 5.862 A 0.250 0.250 0 0 1 -4.955 6.063" fill="none" stroke="#e6e9ef" stroke-width="0.12" opacity="1"/><path d="M -4.250 2.363 A 0.300 0.300 0 0 1 -3.950 2.063" fill="none" stroke="#e6e9ef" stroke-width="0.12" opacity="1"/><path d="M -2.718 2.063 A 0.358 0.358 0 0 1 -2.384 2.328" fill="none" stroke="#e6e9ef" stroke-width="0.12" opacity="1"/><path d="M -1.610 2.754 A 0.115 0.115 0 0 1 -1.523 2.643" fill="none" stroke="#e6e9ef" stroke-width="0.12" opacity="1"/><path d="M -1.532 4.242 A 0.326 0.326 0 0 1 -1.817 4.084" fill="none" stroke="#e6e9ef" stroke-width="0.12" opacity="1"/><path d="M -1.410 3.361 A 0.200 0.200 0 0 1 -1.610 3.161" fill="none" stroke="#e6e9ef" stroke-width="0.12" opacity="1"/><path d="M -0.940 3.161 A 0.200 0.200 0 0 1 -1.140 3.361" fill="none" stroke="#e6e9ef" stroke-width="0.12" opacity="1"/><path d="M 1.140 3.361 A 0.200 0.200 0 0 1 0.940 3.161" fill="none" stroke="#e6e9ef" stroke-width="0.12" opacity="1"/><path d="M 1.523 2.643 A 0.115 0.115 0 0 1 1.610 2.754" fill="none" stroke="#e6e9ef" stroke-width="0.12" opacity="1"/><path d="M 1.610 3.161 A 0.200 0.200 0 0 1 1.410 3.361" fill="none" stroke="#e6e9ef" stroke-width="0.12" opacity="1"/><path d="M 1.817 4.084 A 0.326 0.326 0 0 1 1.532 4.242" fill="none" stroke="#e6e9ef" stroke-width="0.12" opacity="1"/><path d="M 2.384 2.328 A 0.358 0.358 0 0 1 2.718 2.063" fill="none" stroke="#e6e9ef" stroke-width="0.12" opacity="1"/><path d="M 3.950 2.063 A 0.300 0.300 0 0 1 4.250 2.363" fill="none" stroke="#e6e9ef" stroke-width="0.12" opacity="1"/><path d="M 4.955 6.063 A 0.250 0.250 0 0 1 4.710 5.862" fill="none" stroke="#e6e9ef" stroke-width="0.12" opacity="1"/><path d="M 5.686 6.452 A 0.550 0.550 0 0 1 5.525 6.063" fill="none" stroke="#e6e9ef" stroke-width="0.12" opacity="1"/><path d="M 5.863 6.276 A 0.300 0.300 0 0 1 5.775 6.063" fill="none" stroke="#e6e9ef" stroke-width="0.12" opacity="1"/><path d="M -5.775 6.063 A 0.300 0.300 0 0 1 -5.863 6.276" fill="none" stroke="#6b7280" stroke-width="0.12" opacity="0.8"/><path d="M -5.525 6.063 A 0.550 0.550 0 0 1 -5.686 6.452" fill="none" stroke="#6b7280" stroke-width="0.12" opacity="0.8"/><path d="M -4.710 5.862 A 0.250 0.250 0 0 1 -4.955 6.063" fill="none" stroke="#6b7280" stroke-width="0.12" opacity="0.8"/><path d="M -4.250 2.363 A 0.300 0.300 0 0 1 -3.950 2.063" fill="none" stroke="#6b7280" stroke-width="0.12" opacity="0.8"/><path d="M -2.718 2.063 A 0.358 0.358 0 0 1 -2.384 2.328" fill="none" stroke="#6b7280" stroke-width="0.12" opacity="0.8"/><path d="M -1.610 2.754 A 0.115 0.115 0 0 1 -1.523 2.643" fill="none" stroke="#6b7280" stroke-width="0.12" opacity="0.8"/><path d="M -1.532 4.242 A 0.326 0.326 0 0 1 -1.817 4.084" fill="none" stroke="#6b7280" stroke-width="0.12" opacity="0.8"/><path d="M -1.410 3.361 A 0.200 0.200 0 0 1 -1.610 3.161" fill="none" stroke="#6b7280" stroke-width="0.12" opacity="0.8"/><path d="M -0.940 3.161 A 0.200 0.200 0 0 1 -1.140 3.361" fill="none" stroke="#6b7280" stroke-width="0.12" opacity="0.8"/><path d="M 1.140 3.361 A 0.200 0.200 0 0 1 0.940 3.161" fill="none" stroke="#6b7280" stroke-width="0.12" opacity="0.8"/><path d="M 1.523 2.643 A 0.115 0.115 0 0 1 1.610 2.754" fill="none" stroke="#6b7280" stroke-width="0.12" opacity="0.8"/><path d="M 1.610 3.161 A 0.200 0.200 0 0 1 1.410 3.361" fill="none" stroke="#6b7280" stroke-width="0.12" opacity="0.8"/><path d="M 1.817 4.084 A 0.326 0.326 0 0 1 1.532 4.242" fill="none" stroke="#6b7280" stroke-width="0.12" opacity="0.8"/><path d="M 2.384 2.328 A 0.358 0.358 0 0 1 2.718 2.063" fill="none" stroke="#6b7280" stroke-width="0.12" opacity="0.8"/><path d="M 3.950 2.063 A 0.300 0.300 0 0 1 4.250 2.363" fill="none" stroke="#6b7280" stroke-width="0.12" opacity="0.8"/><path d="M 4.955 6.063 A 0.250 0.250 0 0 1 4.710 5.862" fill="none" stroke="#6b7280" stroke-width="0.12" opacity="0.8"/><path d="M 5.686 6.452 A 0.550 0.550 0 0 1 5.525 6.063" fill="none" stroke="#6b7280" stroke-width="0.12" opacity="0.8"/><path d="M 5.863 6.276 A 0.300 0.300 0 0 1 5.775 6.063" fill="none" stroke="#6b7280" stroke-width="0.12" opacity="0.8"/><circle cx="-5.650" cy="4.473" r="0.775" fill="none" stroke="#4a5160" stroke-width="0.12" opacity="0.7"/><circle cx="-5.650" cy="4.473" r="0.425" fill="none" stroke="#4a5160" stroke-width="0.12" opacity="0.7"/><circle cx="-5.410" cy="0.793" r="0.475" fill="none" stroke="#4a5160" stroke-width="0.12" opacity="0.7"/><circle cx="5.410" cy="0.793" r="0.475" fill="none" stroke="#4a5160" stroke-width="0.12" opacity="0.7"/><circle cx="5.650" cy="4.473" r="0.775" fill="none" stroke="#4a5160" stroke-width="0.12" opacity="0.7"/><circle cx="5.650" cy="4.473" r="0.425" fill="none" stroke="#4a5160" stroke-width="0.12" opacity="0.7"/><circle cx="-5.410" cy="0.793" r="0.100" fill="none" stroke="#6b7280" stroke-width="0.1"/><circle cx="5.410" cy="0.793" r="0.100" fill="none" stroke="#6b7280" stroke-width="0.1"/><rect x="3.635" y="-3.297" width="0.350" height="1.000" rx="0.000" fill="#c79b5c"/><rect x="3.635" y="-5.897" width="0.350" height="1.000" rx="0.000" fill="#c79b5c"/><rect x="3.000" y="-3.297" width="0.350" height="1.000" rx="0.000" fill="#c79b5c"/><rect x="3.000" y="-5.897" width="0.350" height="1.000" rx="0.000" fill="#c79b5c"/><rect x="2.365" y="-3.297" width="0.350" height="1.000" rx="0.000" fill="#c79b5c"/><rect x="2.365" y="-5.897" width="0.350" height="1.000" rx="0.000" fill="#c79b5c"/><rect x="1.730" y="-3.297" width="0.350" height="1.000" rx="0.000" fill="#c79b5c"/><rect x="1.730" y="-5.897" width="0.350" height="1.000" rx="0.000" fill="#c79b5c"/><rect x="1.095" y="-3.297" width="0.350" height="1.000" rx="0.000" fill="#c79b5c"/><rect x="1.095" y="-5.897" width="0.350" height="1.000" rx="0.000" fill="#c79b5c"/><rect x="0.460" y="-3.297" width="0.350" height="1.000" rx="0.000" fill="#c79b5c"/><rect x="0.460" y="-5.897" width="0.350" height="1.000" rx="0.000" fill="#c79b5c"/><rect x="-0.175" y="-3.297" width="0.350" height="1.000" rx="0.000" fill="#c79b5c"/><rect x="-0.175" y="-5.897" width="0.350" height="1.000" rx="0.000" fill="#c79b5c"/><rect x="-0.810" y="-3.297" width="0.350" height="1.000" rx="0.000" fill="#c79b5c"/><rect x="-0.810" y="-5.897" width="0.350" height="1.000" rx="0.000" fill="#c79b5c"/><rect x="-1.445" y="-3.297" width="0.350" height="1.000" rx="0.000" fill="#c79b5c"/><rect x="-1.445" y="-5.897" width="0.350" height="1.000" rx="0.000" fill="#c79b5c"/><rect x="-2.080" y="-3.297" width="0.350" height="1.000" rx="0.000" fill="#c79b5c"/><rect x="-2.080" y="-5.897" width="0.350" height="1.000" rx="0.000" fill="#c79b5c"/><rect x="-2.715" y="-3.297" width="0.350" height="1.000" rx="0.000" fill="#c79b5c"/><rect x="-2.715" y="-5.897" width="0.350" height="1.000" rx="0.000" fill="#c79b5c"/><rect x="-3.350" y="-3.297" width="0.350" height="1.000" rx="0.000" fill="#c79b5c"/><rect x="-3.350" y="-5.897" width="0.350" height="1.000" rx="0.000" fill="#c79b5c"/><rect x="-3.985" y="-3.297" width="0.350" height="1.000" rx="0.000" fill="#c79b5c"/><rect x="-3.985" y="-5.897" width="0.350" height="1.000" rx="0.000" fill="#c79b5c"/><rect x="4.875" y="3.698" width="1.550" height="1.550" rx="0.775" fill="#c79b5c"/><circle cx="5.650" cy="4.473" r="0.425" fill="#12151c"/><rect x="-6.425" y="3.698" width="1.550" height="1.550" rx="0.775" fill="#c79b5c"/><circle cx="-5.650" cy="4.473" r="0.425" fill="#12151c"/></svg>