<svg xmlns="http://www.w3.org/2000/svg" viewBox="-4.75 -6.46 9.50 14.21" preserveAspectRatio="xMidYMid meet" style="width:100%;height:100%"><rect x="-4.75" y="-6.46" width="9.50" height="14.21" fill="#12151c"/><line x1="-3.500" y1="-3.750" x2="-2.380" y2="-3.750" stroke="#e6e9ef" stroke-width="0.200" stroke-linecap="round" opacity="1"/><line x1="-3.500" y1="4.400" x2="-3.500" y2="-3.750" stroke="#e6e9ef" stroke-width="0.200" stroke-linecap="round" opacity="1"/><line x1="-3.500" y1="4.400" x2="-2.380" y2="4.400" stroke="#e6e9ef" stroke-width="0.200" stroke-linecap="round" opacity="1"/><line x1="-1.970" y1="6.500" x2="-1.970" y2="5.555" stroke="#e6e9ef" stroke-width="0.200" stroke-linecap="round" opacity="1"/><line x1="-1.970" y1="6.500" x2="-0.570" y2="6.500" stroke="#e6e9ef" stroke-width="0.200" stroke-linecap="round" opacity="1"/><line x1="-0.570" y1="6.500" x2="-0.570" y2="5.555" stroke="#e6e9ef" stroke-width="0.200" stroke-linecap="round" opacity="1"/><line x1="0.570" y1="6.500" x2="0.570" y2="5.555" stroke="#e6e9ef" stroke-width="0.200" stroke-linecap="round" opacity="1"/><line x1="0.570" y1="6.500" x2="1.970" y2="6.500" stroke="#e6e9ef" stroke-width="0.200" stroke-linecap="round" opacity="1"/><line x1="1.970" y1="6.500" x2="1.970" y2="5.555" stroke="#e6e9ef" stroke-width="0.200" stroke-linecap="round" opacity="1"/><line x1="2.380" y1="-3.750" x2="3.500" y2="-3.750" stroke="#e6e9ef" stroke-width="0.200" stroke-linecap="round" opacity="1"/><line x1="2.380" y1="4.400" x2="3.500" y2="4.400" stroke="#e6e9ef" stroke-width="0.200" stroke-linecap="round" opacity="1"/><line x1="3.500" y1="4.400" x2="3.500" y2="-3.750" stroke="#e6e9ef" stroke-width="0.200" stroke-linecap="round" opacity="1"/><line x1="-2.030" y1="-5.205" x2="-1.270" y2="-4.130" stroke="#4a5160" stroke-width="0.080" stroke-linecap="round" opacity="0.7"/><line x1="-2.030" y1="-5.205" x2="-0.510" y2="-5.205" stroke="#4a5160" stroke-width="0.080" stroke-linecap="round" opacity="0.7"/><line x1="-2.030" y1="-3.055" x2="-2.030" y2="-5.205" stroke="#4a5160" stroke-width="0.080" stroke-linecap="round" opacity="0.7"/><line x1="-2.030" y1="-3.055" x2="-0.510" y2="-3.055" stroke="#4a5160" stroke-width="0.080" stroke-linecap="round" opacity="0.7"/><line x1="-2.030" y1="3.055" x2="-0.510" y2="3.055" stroke="#4a5160" stroke-width="0.080" stroke-linecap="round" opacity="0.7"/><line x1="-2.030" y1="5.205" x2="-2.030" y2="3.055" stroke="#4a5160" stroke-width="0.080" stroke-linecap="round" opacity="0.7"/><line x1="-2.030" y1="5.205" x2="-1.270" y2="4.130" stroke="#4a5160" stroke-width="0.080" stroke-linecap="round" opacity="0.7"/><line x1="-2.030" y1="5.205" x2="-0.510" y2="5.205" stroke="#4a5160" stroke-width="0.080" stroke-linecap="round" opacity="0.7"/><line x1="-1.270" y1="-4.130" x2="-0.510" y2="-5.205" stroke="#4a5160" stroke-width="0.080" stroke-linecap="round" opacity="0.7"/><line x1="-1.270" y1="4.130" x2="-0.510" y2="5.205" stroke="#4a5160" stroke-width="0.080" stroke-linecap="round" opacity="0.7"/><line x1="-0.510" y1="-3.055" x2="-0.510" y2="-5.205" stroke="#4a5160" stroke-width="0.080" stroke-linecap="round" opacity="0.7"/><line x1="-0.510" y1="5.205" x2="-0.510" y2="3.055" stroke="#4a5160" stroke-width="0.080" stroke-linecap="round" opacity="0.7"/><line x1="-0.500" y1="0.000" x2="0.000" y2="0.000" stroke="#4a5160" stroke-width="0.080" stroke-linecap="round" opacity="0.7"/><line x1="0.000" y1="0.000" x2="0.000" y2="-0.500" stroke="#4a5160" stroke-width="0.080" stroke-linecap="round" opacity="0.7"/><line x1="0.000" y1="0.000" x2="0.500" y2="0.000" stroke="#4a5160" stroke-width="0.080" stroke-linecap="round" opacity="0.7"/><line x1="0.000" y1="0.500" x2="0.000" y2="0.000" stroke="#4a5160" stroke-width="0.080" stroke-linecap="round" opacity="0.7"/><line x1="0.510" y1="-5.205" x2="1.270" y2="-4.130" stroke="#4a5160" stroke-width="0.080" stroke-linecap="round" opacity="0.7"/><line x1="0.510" y1="-5.205" x2="2.030" y2="-5.205" stroke="#4a5160" stroke-width="0.080" stroke-linecap="round" opacity="0.7"/><line x1="0.510" y1="-3.055" x2="0.510" y2="-5.205" stroke="#4a5160" stroke-width="0.080" stroke-linecap="round" opacity="0.7"/><line x1="0.510" y1="-3.055" x2="2.030" y2="-3.055" stroke="#4a5160" stroke-width="0.080" stroke-linecap="round" opacity="0.7"/><line x1="0.510" y1="3.055" x2="2.030" y2="3.055" stroke="#4a5160" stroke-width="0.080" stroke-linecap="round" opacity="0.7"/><line x1="0.510" y1="5.205" x2="0.510" y2="3.055" stroke="#4a5160" stroke-width="0.080" stroke-linecap="round" opacity="0.7"/><line x1="0.510" y1="5.205" x2="1.270" y2="4.130" stroke="#4a5160" stroke-width="0.080" stroke-linecap="round" opacity="0.7"/><line x1="0.510" y1="5.205" x2="2.030" y2="5.205" stroke="#4a5160" stroke-width="0.080" stroke-linecap="round" opacity="0.7"/><line x1="1.270" y1="-4.130" x2="2.030" y2="-5.205" stroke="#4a5160" stroke-width="0.080" stroke-linecap="round" opacity="0.7"/><line x1="1.270" y1="4.130" x2="2.030" y2="5.205" stroke="#4a5160" stroke-width="0.080" stroke-linecap="round" opacity="0.7"/><line x1="2.030" y1="-3.055" x2="2.030" y2="-5.205" stroke="#4a5160" stroke-width="0.080" stroke-linecap="round" opacity="0.7"/><line x1="2.030" y1="5.205" x2="2.030" y2="3.055" stroke="#4a5160" stroke-width="0.080" stroke-linecap="round" opacity="0.7"/><line x1="-3.750" y1="-5.455" x2="3.750" y2="-5.455" stroke="#d24d4d" stroke-width="0.080" stroke-linecap="round" opacity="0.7"/><line x1="-3.750" y1="6.750" x2="-3.750" y2="-5.455" stroke="#d24d4d" stroke-width="0.080" stroke-linecap="round" opacity="0.7"/><line x1="-3.750" y1="6.750" x2="3.750" y2="6.750" stroke="#d24d4d" stroke-width="0.080" stroke-linecap="round" opacity="0.7"/><line x1="3.750" y1="6.750" x2="3.750" y2="-5.455" stroke="#d24d4d" stroke-width="0.080" stroke-linecap="round" opacity="0.7"/><line x1="-3.500" y1="-3.750" x2="3.500" y2="-3.750" stroke="#6b7280" stroke-width="0.100" stroke-linecap="round" opacity="0.8"/><line x1="-3.500" y1="4.400" x2="-3.500" y2="-3.750" stroke="#6b7280" stroke-width="0.100" stroke-linecap="round" opacity="0.8"/><line x1="-3.500" y1="4.400" x2="3.500" y2="4.400" stroke="#6b7280" stroke-width="0.100" stroke-linecap="round" opacity="0.8"/><line x1="-2.070" y1="-4.100" x2="-1.570" y2="-4.440" stroke="#6b7280" stroke-width="0.100" stroke-linecap="round" opacity="0.8"/><line x1="-2.070" y1="-3.750" x2="-2.070" y2="-4.100" stroke="#6b7280" stroke-width="0.100" stroke-linecap="round" opacity="0.8"/><line x1="-1.970" y1="6.500" x2="-1.970" y2="4.400" stroke="#6b7280" stroke-width="0.100" stroke-linecap="round" opacity="0.8"/><line x1="-1.970" y1="6.500" x2="-0.570" y2="6.500" stroke="#6b7280" stroke-width="0.100" stroke-linecap="round" opacity="0.8"/><line x1="-1.570" y1="-4.650" x2="-0.970" y2="-4.650" stroke="#6b7280" stroke-width="0.100" stroke-linecap="round" opacity="0.8"/><line x1="-1.570" y1="-4.440" x2="-1.570" y2="-4.650" stroke="#6b7280" stroke-width="0.100" stroke-linecap="round" opacity="0.8"/><line x1="-0.970" y1="-4.440" x2="-0.970" y2="-4.650" stroke="#6b7280" stroke-width="0.100" stroke-linecap="round" opacity="0.8"/><line x1="-0.970" y1="-4.440" x2="-0.470" y2="-4.100" stroke="#6b7280" stroke-width="0.100" stroke-linecap="round" opacity="0.8"/><line x1="-0.570" y1="6.500" x2="-0.570" y2="4.400" stroke="#6b7280" stroke-width="0.100" stroke-linecap="round" opacity="0.8"/><line x1="-0.470" y1="-3.750" x2="-0.470" y2="-4.100" stroke="#6b7280" stroke-width="0.100" stroke-linecap="round" opacity="0.8"/><line x1="0.470" y1="-4.100" x2="0.970" y2="-4.440" stroke="#6b7280" stroke-width="0.100" stroke-linecap="round" opacity="0.8"/><line x1="0.470" y1="-3.750" x2="0.470" y2="-4.100" stroke="#6b7280" stroke-width="0.100" stroke-linecap="round" opacity="0.8"/><line x1="0.570" y1="6.500" x2="0.570" y2="4.400" stroke="#6b7280" stroke-width="0.100" stroke-linecap="round" opacity="0.8"/><line x1="0.570" y1="6.500" x2="1.970" y2="6.500" stroke="#6b7280" stroke-width="0.100" stroke-linecap="round" opacity="0.8"/><line x1="0.970" y1="-4.650" x2="1.570" y2="-4.650" stroke="#6b7280" stroke-width="0.100" stroke-linecap="round" opacity="0.8"/><line x1="0.970" y1="-4.440" x2="0.970" y2="-4.650" stroke="#6b7280" stroke-width="0.100" stroke-linecap="round" opacity="0.8"/><line x1="1.570" y1="-4.440" x2="1.570" y2="-4.650" stroke="#6b7280" stroke-width="0.100" stroke-linecap="round" opacity="0.8"/><line x1="1.570" y1="-4.440" x2="2.070" y2="-4.100" stroke="#6b7280" stroke-width="0.100" stroke-linecap="round" opacity="0.8"/><line x1="1.970" y1="6.500" x2="1.970" y2="4.400" stroke="#6b7280" stroke-width="0.100" stroke-linecap="round" opacity="0.8"/><line x1="2.070" y1="-3.750" x2="2.070" y2="-4.100" stroke="#6b7280" stroke-width="0.100" stroke-linecap="round" opacity="0.8"/><line x1="3.500" y1="4.400" x2="3.500" y2="-3.750" stroke="#6b7280" stroke-width="0.100" stroke-linecap="round" opacity="0.8"/><rect x="-2.030" y="3.055" width="1.520" height="2.150" rx="0.000" fill="#c79b5c"/><rect x="0.510" y="3.055" width="1.520" height="2.150" rx="0.000" fill="#c79b5c"/><rect x="0.510" y="-5.205" width="1.520" height="2.150" rx="0.000" fill="#c79b5c"/><rect x="-2.030" y="-5.205" width="1.520" height="2.150" rx="0.000" fill="#c79b5c"/></svg>