<svg xmlns="http://www.w3.org/2000/svg" viewBox="-5.30 -3.75 10.60 7.50" preserveAspectRatio="xMidYMid meet" style="width:100%;height:100%"><rect x="-5.30" y="-3.75" width="10.60" height="7.50" fill="#12151c"/><line x1="-4.050" y1="2.300" x2="-4.050" y2="-2.300" stroke="#e6e9ef" stroke-width="0.200" stroke-linecap="round" opacity="1"/><line x1="-3.850" y1="-2.500" x2="3.850" y2="-2.500" stroke="#e6e9ef" stroke-width="0.200" stroke-linecap="round" opacity="1"/><line x1="-3.850" y1="2.500" x2="3.850" y2="2.500" stroke="#e6e9ef" stroke-width="0.200" stroke-linecap="round" opacity="1"/><line x1="-1.356" y1="-2.100" x2="1.356" y2="-2.100" stroke="#e6e9ef" stroke-width="0.200" stroke-linecap="round" opacity="1"/><line x1="-1.356" y1="2.100" x2="1.356" y2="2.100" stroke="#e6e9ef" stroke-width="0.200" stroke-linecap="round" opacity="1"/><line x1="4.050" y1="2.300" x2="4.050" y2="-2.300" stroke="#e6e9ef" stroke-width="0.200" stroke-linecap="round" opacity="1"/><line x1="-3.040" y1="0.000" x2="-2.540" y2="0.000" stroke="#4a5160" stroke-width="0.100" stroke-linecap="round" opacity="0.7"/><line x1="-2.540" y1="0.000" x2="-2.540" y2="-0.500" stroke="#4a5160" stroke-width="0.100" stroke-linecap="round" opacity="0.7"/><line x1="-2.540" y1="0.000" x2="-2.040" y2="0.000" stroke="#4a5160" stroke-width="0.100" stroke-linecap="round" opacity="0.7"/><line x1="-2.540" y1="0.500" x2="-2.540" y2="0.000" stroke="#4a5160" stroke-width="0.100" stroke-linecap="round" opacity="0.7"/><line x1="-0.500" y1="0.000" x2="0.000" y2="0.000" stroke="#4a5160" stroke-width="0.100" stroke-linecap="round" opacity="0.7"/><line x1="0.000" y1="0.000" x2="0.000" y2="-0.500" stroke="#4a5160" stroke-width="0.100" stroke-linecap="round" opacity="0.7"/><line x1="0.000" y1="0.000" x2="0.500" y2="0.000" stroke="#4a5160" stroke-width="0.100" stroke-linecap="round" opacity="0.7"/><line x1="0.000" y1="0.500" x2="0.000" y2="0.000" stroke="#4a5160" stroke-width="0.100" stroke-linecap="round" opacity="0.7"/><line x1="2.040" y1="0.000" x2="2.540" y2="0.000" stroke="#4a5160" stroke-width="0.100" stroke-linecap="round" opacity="0.7"/><line x1="2.540" y1="0.000" x2="2.540" y2="-0.500" stroke="#4a5160" stroke-width="0.100" stroke-linecap="round" opacity="0.7"/><line x1="2.540" y1="0.000" x2="3.040" y2="0.000" stroke="#4a5160" stroke-width="0.100" stroke-linecap="round" opacity="0.7"/><line x1="2.540" y1="0.500" x2="2.540" y2="0.000" stroke="#4a5160" stroke-width="0.100" stroke-linecap="round" opacity="0.7"/><line x1="-4.050" y1="2.300" x2="-4.050" y2="-2.300" stroke="#6b7280" stroke-width="0.100" stroke-linecap="round" opacity="0.8"/><line x1="-3.850" y1="-2.500" x2="3.850" y2="-2.500" stroke="#6b7280" stroke-width="0.100" stroke-linecap="round" opacity="0.8"/><line x1="-3.850" y1="2.500" x2="3.850" y2="2.500" stroke="#6b7280" stroke-width="0.100" stroke-linecap="round" opacity="0.8"/><line x1="-1.432" y1="-1.800" x2="1.432" y2="-1.800" stroke="#6b7280" stroke-width="0.100" stroke-linecap="round" opacity="0.8"/><line x1="-1.432" y1="1.800" x2="1.432" y2="1.800" stroke="#6b7280" stroke-width="0.100" stroke-linecap="round" opacity="0.8"/><line x1="-1.356" y1="-2.100" x2="1.356" y2="-2.100" stroke="#6b7280" stroke-width="0.100" stroke-linecap="round" opacity="0.8"/><line x1="-1.356" y1="2.100" x2="1.356" y2="2.100" stroke="#6b7280" stroke-width="0.100" stroke-linecap="round" opacity="0.8"/><line x1="4.050" y1="2.300" x2="4.050" y2="-2.300" stroke="#6b7280" stroke-width="0.100" stroke-linecap="round" opacity="0.8"/><line x1="-4.300" y1="-2.750" x2="4.300" y2="-2.750" stroke="#d24d4d" stroke-width="0.080" stroke-linecap="round" opacity="0.7"/><line x1="4.300" y1="-2.750" x2="4.300" y2="2.750" stroke="#d24d4d" stroke-width="0.080" stroke-linecap="round" opacity="0.7"/><line x1="4.300" y1="2.750" x2="-4.300" y2="2.750" stroke="#d24d4d" stroke-width="0.080" stroke-linecap="round" opacity="0.7"/><line x1="-4.300" y1="2.750" x2="-4.300" y2="-2.750" stroke="#d24d4d" stroke-width="0.080" stroke-linecap="round" opacity="0.7"/><path d="M -4.050 -2.300 A 0.200 0.200 0 0 1 -3.850 -2.500" fill="none" stroke="#e6e9ef" stroke-width="0.12" opacity="1"/><path d="M -3.850 2.500 A 0.200 0.200 0 0 1 -4.050 2.300" fill="none" stroke="#e6e9ef" stroke-width="0.12" opacity="1"/><path d="M -2.168 -1.246 A 2.500 2.500 0 0 1 -1.356 -2.100" fill="none" stroke="#e6e9ef" stroke-width="0.12" opacity="1"/><path d="M -1.356 2.100 A 2.500 2.500 0 0 1 -2.168 1.246" fill="none" stroke="#e6e9ef" stroke-width="0.12" opacity="1"/><path d="M 1.356 -2.100 A 2.500 2.500 0 0 1 2.168 -1.246" fill="none" stroke="#e6e9ef" stroke-width="0.12" opacity="1"/><path d="M 2.168 1.246 A 2.500 2.500 0 0 1 1.356 2.100" fill="none" stroke="#e6e9ef" stroke-width="0.12" opacity="1"/><path d="M 3.850 -2.500 A 0.200 0.200 0 0 1 4.050 -2.300" fill="none" stroke="#e6e9ef" stroke-width="0.12" opacity="1"/><path d="M 4.050 2.300 A 0.200 0.200 0 0 1 3.850 2.500" fill="none" stroke="#e6e9ef" stroke-width="0.12" opacity="1"/><path d="M -4.050 -2.300 A 0.200 0.200 0 0 1 -3.850 -2.500" fill="none" stroke="#6b7280" stroke-width="0.12" opacity="0.8"/><path d="M -3.850 2.500 A 0.200 0.200 0 0 1 -4.050 2.300" fill="none" stroke="#6b7280" stroke-width="0.12" opacity="0.8"/><path d="M -1.432 1.800 A 2.300 2.300 0 0 1 -1.432 -1.800" fill="none" stroke="#6b7280" stroke-width="0.12" opacity="0.8"/><path d="M -1.356 2.100 A 2.500 2.500 0 0 1 -1.356 -2.100" fill="none" stroke="#6b7280" stroke-width="0.12" opacity="0.8"/><path d="M 1.356 -2.100 A 2.500 2.500 0 0 1 1.356 2.100" fill="none" stroke="#6b7280" stroke-width="0.12" opacity="0.8"/><path d="M 1.432 -1.800 A 2.300 2.300 0 0 1 1.432 1.800" fill="none" stroke="#6b7280" stroke-width="0.12" opacity="0.8"/><path d="M 3.850 -2.500 A 0.200 0.200 0 0 1 4.050 -2.300" fill="none" stroke="#6b7280" stroke-width="0.12" opacity="0.8"/><path d="M 4.050 2.300 A 0.200 0.200 0 0 1 3.850 2.500" fill="none" stroke="#6b7280" stroke-width="0.12" opacity="0.8"/><circle cx="0.000" cy="0.000" r="1.250" fill="none" stroke="#e6e9ef" stroke-width="0.12" opacity="1"/><circle cx="0.000" cy="0.000" r="1.250" fill="none" stroke="#6b7280" stroke-width="0.12" opacity="0.8"/><rect x="-3.440" y="-0.900" width="1.800" height="1.800" rx="0.900" fill="#c79b5c"/><circle cx="-2.540" cy="0.000" r="0.550" fill="#12151c"/><rect x="-0.900" y="-0.900" width="1.800" height="1.800" rx="0.900" fill="#c79b5c"/><circle cx="0.000" cy="0.000" r="0.550" fill="#12151c"/><rect x="1.640" y="-0.900" width="1.800" height="1.800" rx="0.900" fill="#c79b5c"/><circle cx="2.540" cy="0.000" r="0.550" fill="#12151c"/><polygon points="-2.99,1.95 -2.09,1.95 -2.54,1.35" fill="#ffffff"/></svg>