<svg xmlns="http://www.w3.org/2000/svg" viewBox="-8.76 -7.46 17.52 14.39" preserveAspectRatio="xMidYMid meet" style="width:100%;height:100%"><rect x="-8.76" y="-7.46" width="17.52" height="14.39" fill="#12151c"/><line x1="-7.506" y1="0.800" x2="-4.915" y2="0.800" stroke="#e6e9ef" stroke-width="0.200" stroke-linecap="round" opacity="1"/><line x1="-7.506" y1="3.340" x2="-7.506" y2="0.800" stroke="#e6e9ef" stroke-width="0.200" stroke-linecap="round" opacity="1"/><line x1="-7.506" y1="3.340" x2="-4.915" y2="3.340" stroke="#e6e9ef" stroke-width="0.200" stroke-linecap="round" opacity="1"/><line x1="-4.915" y1="-4.915" x2="4.915" y2="-4.915" stroke="#e6e9ef" stroke-width="0.200" stroke-linecap="round" opacity="1"/><line x1="-4.915" y1="4.915" x2="-4.915" y2="-4.915" stroke="#e6e9ef" stroke-width="0.200" stroke-linecap="round" opacity="1"/><line x1="-4.915" y1="4.915" x2="4.915" y2="4.915" stroke="#e6e9ef" stroke-width="0.200" stroke-linecap="round" opacity="1"/><line x1="-4.915" y1="5.677" x2="-4.915" y2="4.915" stroke="#e6e9ef" stroke-width="0.200" stroke-linecap="round" opacity="1"/><line x1="-4.915" y1="5.677" x2="-3.772" y2="5.677" stroke="#e6e9ef" stroke-width="0.200" stroke-linecap="round" opacity="1"/><line x1="-3.848" y1="-3.848" x2="-0.292" y2="-3.848" stroke="#e6e9ef" stroke-width="0.200" stroke-linecap="round" opacity="1"/><line x1="-3.848" y1="-0.292" x2="-3.848" y2="-3.848" stroke="#e6e9ef" stroke-width="0.200" stroke-linecap="round" opacity="1"/><line x1="-3.848" y1="-0.292" x2="-0.292" y2="-0.292" stroke="#e6e9ef" stroke-width="0.200" stroke-linecap="round" opacity="1"/><line x1="-3.848" y1="0.292" x2="-0.292" y2="0.292" stroke="#e6e9ef" stroke-width="0.200" stroke-linecap="round" opacity="1"/><line x1="-3.848" y1="3.848" x2="-3.848" y2="0.292" stroke="#e6e9ef" stroke-width="0.200" stroke-linecap="round" opacity="1"/><line x1="-3.848" y1="3.848" x2="-0.292" y2="3.848" stroke="#e6e9ef" stroke-width="0.200" stroke-linecap="round" opacity="1"/><line x1="-3.772" y1="5.677" x2="-3.772" y2="4.915" stroke="#e6e9ef" stroke-width="0.200" stroke-linecap="round" opacity="1"/><line x1="-1.499" y1="-6.210" x2="1.499" y2="-6.210" stroke="#e6e9ef" stroke-width="0.200" stroke-linecap="round" opacity="1"/><line x1="-1.499" y1="-4.915" x2="-1.499" y2="-6.210" stroke="#e6e9ef" stroke-width="0.200" stroke-linecap="round" opacity="1"/><line x1="-0.775" y1="5.677" x2="-0.775" y2="4.915" stroke="#e6e9ef" stroke-width="0.200" stroke-linecap="round" opacity="1"/><line x1="-0.775" y1="5.677" x2="0.368" y2="5.677" stroke="#e6e9ef" stroke-width="0.200" stroke-linecap="round" opacity="1"/><line x1="-0.292" y1="-0.292" x2="-0.292" y2="-3.848" stroke="#e6e9ef" stroke-width="0.200" stroke-linecap="round" opacity="1"/><line x1="-0.292" y1="3.848" x2="-0.292" y2="0.292" stroke="#e6e9ef" stroke-width="0.200" stroke-linecap="round" opacity="1"/><line x1="0.292" y1="-3.848" x2="3.848" y2="-3.848" stroke="#e6e9ef" stroke-width="0.200" stroke-linecap="round" opacity="1"/><line x1="0.292" y1="-0.292" x2="0.292" y2="-3.848" stroke="#e6e9ef" stroke-width="0.200" stroke-linecap="round" opacity="1"/><line x1="0.292" y1="-0.292" x2="3.848" y2="-0.292" stroke="#e6e9ef" stroke-width="0.200" stroke-linecap="round" opacity="1"/><line x1="0.292" y1="1.283" x2="1.283" y2="0.292" stroke="#e6e9ef" stroke-width="0.200" stroke-linecap="round" opacity="1"/><line x1="0.292" y1="2.857" x2="0.292" y2="1.283" stroke="#e6e9ef" stroke-width="0.200" stroke-linecap="round" opacity="1"/><line x1="0.292" y1="2.857" x2="1.283" y2="3.848" stroke="#e6e9ef" stroke-width="0.200" stroke-linecap="round" opacity="1"/><line x1="0.368" y1="5.677" x2="0.368" y2="4.915" stroke="#e6e9ef" stroke-width="0.200" stroke-linecap="round" opacity="1"/><line x1="1.283" y1="0.292" x2="3.848" y2="0.292" stroke="#e6e9ef" stroke-width="0.200" stroke-linecap="round" opacity="1"/><line x1="1.283" y1="3.848" x2="3.848" y2="3.848" stroke="#e6e9ef" stroke-width="0.200" stroke-linecap="round" opacity="1"/><line x1="1.499" y1="-4.915" x2="1.499" y2="-6.210" stroke="#e6e9ef" stroke-width="0.200" stroke-linecap="round" opacity="1"/><line x1="3.365" y1="5.677" x2="3.365" y2="4.915" stroke="#e6e9ef" stroke-width="0.200" stroke-linecap="round" opacity="1"/><line x1="3.365" y1="5.677" x2="4.508" y2="5.677" stroke="#e6e9ef" stroke-width="0.200" stroke-linecap="round" opacity="1"/><line x1="3.848" y1="-0.292" x2="3.848" y2="-3.848" stroke="#e6e9ef" stroke-width="0.200" stroke-linecap="round" opacity="1"/><line x1="3.848" y1="3.848" x2="3.848" y2="0.292" stroke="#e6e9ef" stroke-width="0.200" stroke-linecap="round" opacity="1"/><line x1="4.508" y1="5.677" x2="4.508" y2="4.915" stroke="#e6e9ef" stroke-width="0.200" stroke-linecap="round" opacity="1"/><line x1="4.915" y1="-3.000" x2="4.915" y2="-4.915" stroke="#e6e9ef" stroke-width="0.200" stroke-linecap="round" opacity="1"/><line x1="4.915" y1="4.915" x2="4.915" y2="-1.100" stroke="#e6e9ef" stroke-width="0.200" stroke-linecap="round" opacity="1"/><line x1="5.575" y1="-3.700" x2="5.575" y2="-3.896" stroke="#e6e9ef" stroke-width="0.200" stroke-linecap="round" opacity="1"/><line x1="5.575" y1="-0.245" x2="5.575" y2="-0.440" stroke="#e6e9ef" stroke-width="0.200" stroke-linecap="round" opacity="1"/><line x1="0.000" y1="0.000" x2="0.000" y2="-1.000" stroke="#4a5160" stroke-width="0.100" stroke-linecap="round" opacity="0.7"/><line x1="0.000" y1="0.000" x2="1.000" y2="0.000" stroke="#4a5160" stroke-width="0.100" stroke-linecap="round" opacity="0.7"/><line x1="-7.506" y1="0.800" x2="-4.915" y2="0.800" stroke="#6b7280" stroke-width="0.100" stroke-linecap="round" opacity="0.8"/><line x1="-7.506" y1="3.340" x2="-7.506" y2="0.800" stroke="#6b7280" stroke-width="0.100" stroke-linecap="round" opacity="0.8"/><line x1="-7.506" y1="3.340" x2="-4.915" y2="3.340" stroke="#6b7280" stroke-width="0.100" stroke-linecap="round" opacity="0.8"/><line x1="-4.915" y1="-4.915" x2="4.915" y2="-4.915" stroke="#6b7280" stroke-width="0.100" stroke-linecap="round" opacity="0.8"/><line x1="-4.915" y1="4.915" x2="-4.915" y2="-4.915" stroke="#6b7280" stroke-width="0.100" stroke-linecap="round" opacity="0.8"/><line x1="-4.915" y1="4.915" x2="4.915" y2="4.915" stroke="#6b7280" stroke-width="0.100" stroke-linecap="round" opacity="0.8"/><line x1="-4.915" y1="5.677" x2="-4.915" y2="4.915" stroke="#6b7280" stroke-width="0.100" stroke-linecap="round" opacity="0.8"/><line x1="-4.915" y1="5.677" x2="-3.772" y2="5.677" stroke="#6b7280" stroke-width="0.100" stroke-linecap="round" opacity="0.8"/><line x1="-3.848" y1="-3.848" x2="-0.292" y2="-3.848" stroke="#6b7280" stroke-width="0.100" stroke-linecap="round" opacity="0.8"/><line x1="-3.848" y1="-0.292" x2="-3.848" y2="-3.848" stroke="#6b7280" stroke-width="0.100" stroke-linecap="round" opacity="0.8"/><line x1="-3.848" y1="-0.292" x2="-0.292" y2="-0.292" stroke="#6b7280" stroke-width="0.100" stroke-linecap="round" opacity="0.8"/><line x1="-3.848" y1="0.292" x2="-0.292" y2="0.292" stroke="#6b7280" stroke-width="0.100" stroke-linecap="round" opacity="0.8"/><line x1="-3.848" y1="3.848" x2="-3.848" y2="0.292" stroke="#6b7280" stroke-width="0.100" stroke-linecap="round" opacity="0.8"/><line x1="-3.848" y1="3.848" x2="-0.292" y2="3.848" stroke="#6b7280" stroke-width="0.100" stroke-linecap="round" opacity="0.8"/><line x1="-3.772" y1="5.677" x2="-3.772" y2="4.915" stroke="#6b7280" stroke-width="0.100" stroke-linecap="round" opacity="0.8"/><line x1="-1.499" y1="-6.210" x2="1.499" y2="-6.210" stroke="#6b7280" stroke-width="0.100" stroke-linecap="round" opacity="0.8"/><line x1="-1.499" y1="-4.915" x2="-1.499" y2="-6.210" stroke="#6b7280" stroke-width="0.100" stroke-linecap="round" opacity="0.8"/><line x1="-0.775" y1="5.677" x2="-0.775" y2="4.915" stroke="#6b7280" stroke-width="0.100" stroke-linecap="round" opacity="0.8"/><line x1="-0.775" y1="5.677" x2="0.368" y2="5.677" stroke="#6b7280" stroke-width="0.100" stroke-linecap="round" opacity="0.8"/><line x1="-0.292" y1="-0.292" x2="-0.292" y2="-3.848" stroke="#6b7280" stroke-width="0.100" stroke-linecap="round" opacity="0.8"/><line x1="-0.292" y1="3.848" x2="-0.292" y2="0.292" stroke="#6b7280" stroke-width="0.100" stroke-linecap="round" opacity="0.8"/><line x1="0.292" y1="-3.848" x2="3.848" y2="-3.848" stroke="#6b7280" stroke-width="0.100" stroke-linecap="round" opacity="0.8"/><line x1="0.292" y1="-0.292" x2="0.292" y2="-3.848" stroke="#6b7280" stroke-width="0.100" stroke-linecap="round" opacity="0.8"/><line x1="0.292" y1="-0.292" x2="3.848" y2="-0.292" stroke="#6b7280" stroke-width="0.100" stroke-linecap="round" opacity="0.8"/><line x1="0.292" y1="1.283" x2="1.283" y2="0.292" stroke="#6b7280" stroke-width="0.100" stroke-linecap="round" opacity="0.8"/><line x1="0.292" y1="2.857" x2="0.292" y2="1.283" stroke="#6b7280" stroke-width="0.100" stroke-linecap="round" opacity="0.8"/><line x1="0.292" y1="2.857" x2="1.283" y2="3.848" stroke="#6b7280" stroke-width="0.100" stroke-linecap="round" opacity="0.8"/><line x1="0.368" y1="5.677" x2="0.368" y2="4.915" stroke="#6b7280" stroke-width="0.100" stroke-linecap="round" opacity="0.8"/><line x1="1.283" y1="0.292" x2="3.848" y2="0.292" stroke="#6b7280" stroke-width="0.100" stroke-linecap="round" opacity="0.8"/><line x1="1.283" y1="3.848" x2="3.848" y2="3.848" stroke="#6b7280" stroke-width="0.100" stroke-linecap="round" opacity="0.8"/><line x1="1.499" y1="-4.915" x2="1.499" y2="-6.210" stroke="#6b7280" stroke-width="0.100" stroke-linecap="round" opacity="0.8"/><line x1="3.365" y1="5.677" x2="3.365" y2="4.915" stroke="#6b7280" stroke-width="0.100" stroke-linecap="round" opacity="0.8"/><line x1="3.365" y1="5.677" x2="4.508" y2="5.677" stroke="#6b7280" stroke-width="0.100" stroke-linecap="round" opacity="0.8"/><line x1="3.848" y1="-0.292" x2="3.848" y2="-3.848" stroke="#6b7280" stroke-width="0.100" stroke-linecap="round" opacity="0.8"/><line x1="3.848" y1="3.848" x2="3.848" y2="0.292" stroke="#6b7280" stroke-width="0.100" stroke-linecap="round" opacity="0.8"/><line x1="4.508" y1="5.677" x2="4.508" y2="4.915" stroke="#6b7280" stroke-width="0.100" stroke-linecap="round" opacity="0.8"/><line x1="4.915" y1="-2.832" x2="5.575" y2="-2.832" stroke="#6b7280" stroke-width="0.100" stroke-linecap="round" opacity="0.8"/><line x1="4.915" y1="-1.308" x2="5.575" y2="-1.308" stroke="#6b7280" stroke-width="0.100" stroke-linecap="round" opacity="0.8"/><line x1="4.915" y1="4.915" x2="4.915" y2="-4.915" stroke="#6b7280" stroke-width="0.100" stroke-linecap="round" opacity="0.8"/><line x1="5.575" y1="-2.832" x2="5.575" y2="-3.896" stroke="#6b7280" stroke-width="0.100" stroke-linecap="round" opacity="0.8"/><line x1="5.575" y1="-0.245" x2="5.575" y2="-1.308" stroke="#6b7280" stroke-width="0.100" stroke-linecap="round" opacity="0.8"/><line x1="7.506" y1="-0.505" x2="7.506" y2="-3.635" stroke="#6b7280" stroke-width="0.100" stroke-linecap="round" opacity="0.8"/><line x1="-7.760" y1="-6.460" x2="7.760" y2="-6.460" stroke="#d24d4d" stroke-width="0.080" stroke-linecap="round" opacity="0.7"/><line x1="7.760" y1="-6.460" x2="7.760" y2="5.930" stroke="#d24d4d" stroke-width="0.080" stroke-linecap="round" opacity="0.7"/><line x1="7.760" y1="5.930" x2="-7.760" y2="5.930" stroke="#d24d4d" stroke-width="0.080" stroke-linecap="round" opacity="0.7"/><line x1="-7.760" y1="5.930" x2="-7.760" y2="-6.460" stroke="#d24d4d" stroke-width="0.080" stroke-linecap="round" opacity="0.7"/><path d="M 5.575 -3.896 A 1.968 1.968 0 0 1 6.753 -3.989" fill="none" stroke="#e6e9ef" stroke-width="0.12" opacity="1"/><path d="M 6.753 -0.152 A 1.968 1.968 0 0 1 5.575 -0.245" fill="none" stroke="#e6e9ef" stroke-width="0.12" opacity="1"/><path d="M 5.575 -3.896 A 1.969 1.969 0 0 1 7.506 -3.635" fill="none" stroke="#6b7280" stroke-width="0.12" opacity="0.8"/><path d="M 5.575 -2.896 A 1.270 1.270 0 0 1 7.506 -2.896" fill="none" stroke="#6b7280" stroke-width="0.12" opacity="0.8"/><path d="M 7.506 -1.245 A 1.270 1.270 0 0 1 5.575 -1.245" fill="none" stroke="#6b7280" stroke-width="0.12" opacity="0.8"/><path d="M 7.506 -0.505 A 1.968 1.968 0 0 1 5.575 -0.245" fill="none" stroke="#6b7280" stroke-width="0.12" opacity="0.8"/><circle cx="-2.070" cy="-2.070" r="0.500" fill="none" stroke="#6b7280" stroke-width="0.12" opacity="0.8"/><circle cx="-2.070" cy="2.070" r="0.500" fill="none" stroke="#6b7280" stroke-width="0.12" opacity="0.8"/><circle cx="2.070" cy="-2.070" r="0.500" fill="none" stroke="#6b7280" stroke-width="0.12" opacity="0.8"/><circle cx="2.070" cy="2.070" r="0.500" fill="none" stroke="#6b7280" stroke-width="0.12" opacity="0.8"/><circle cx="6.604" cy="-2.070" r="0.250" fill="none" stroke="#6b7280" stroke-width="0.1"/><rect x="1.020" y="-3.120" width="2.100" height="2.100" rx="1.050" fill="#c79b5c"/><circle cx="2.070" cy="-2.070" r="0.700" fill="#12151c"/><rect x="-3.120" y="-3.120" width="2.100" height="2.100" rx="1.050" fill="#c79b5c"/><circle cx="-2.070" cy="-2.070" r="0.700" fill="#12151c"/><rect x="1.020" y="1.020" width="2.100" height="2.100" rx="1.050" fill="#c79b5c"/><circle cx="2.070" cy="2.070" r="0.700" fill="#12151c"/><rect x="-3.120" y="1.020" width="2.100" height="2.100" rx="1.050" fill="#c79b5c"/><circle cx="-2.070" cy="2.070" r="0.700" fill="#12151c"/></svg>