<svg xmlns="http://www.w3.org/2000/svg" viewBox="-43.65 -45.00 51.93 90.00" preserveAspectRatio="xMidYMid meet" style="width:100%;height:100%"><rect x="-43.65" y="-45.00" width="51.93" height="90.00" fill="#12151c"/><line x1="-42.650" y1="-44.000" x2="7.280" y2="-44.000" stroke="#d24d4d" stroke-width="0.080" stroke-linecap="round" opacity="0.7"/><line x1="7.280" y1="-44.000" x2="7.280" y2="44.000" stroke="#d24d4d" stroke-width="0.080" stroke-linecap="round" opacity="0.7"/><line x1="7.280" y1="44.000" x2="-42.650" y2="44.000" stroke="#d24d4d" stroke-width="0.080" stroke-linecap="round" opacity="0.7"/><line x1="-42.650" y1="44.000" x2="-42.650" y2="-44.000" stroke="#d24d4d" stroke-width="0.080" stroke-linecap="round" opacity="0.7"/><path d="M -41.150 42.875 A 0.400 0.400 0 0 1 -40.917 42.950" fill="none" stroke="#e6e9ef" stroke-width="0.12" opacity="1"/><path d="M -41.150 42.953 A 0.322 0.322 0 0 1 -40.962 43.013" fill="none" stroke="#e6e9ef" stroke-width="0.12" opacity="1"/><path d="M -40.962 -43.013 A 4.054 4.054 0 0 1 -36.050 -42.875" fill="none" stroke="#e6e9ef" stroke-width="0.12" opacity="1"/><path d="M -40.962 -43.013 A 0.322 0.322 0 0 1 -41.150 -42.953" fill="none" stroke="#e6e9ef" stroke-width="0.12" opacity="1"/><path d="M -40.950 -39.975 A 0.400 0.400 0 0 1 -40.950 -40.775" fill="none" stroke="#e6e9ef" stroke-width="0.12" opacity="1"/><path d="M -40.950 -37.600 A 0.400 0.400 0 1 1 -40.950 -38.400" fill="none" stroke="#e6e9ef" stroke-width="0.12" opacity="1"/><path d="M -40.950 -35.225 A 0.400 0.400 0 0 1 -40.950 -36.025" fill="none" stroke="#e6e9ef" stroke-width="0.12" opacity="1"/><path d="M -40.950 -32.850 A 0.400 0.400 0 0 1 -40.950 -33.650" fill="none" stroke="#e6e9ef" stroke-width="0.12" opacity="1"/><path d="M -40.950 -30.475 A 0.400 0.400 0 1 1 -40.950 -31.275" fill="none" stroke="#e6e9ef" stroke-width="0.12" opacity="1"/><path d="M -40.950 -28.100 A 0.400 0.400 0 0 1 -40.950 -28.900" fill="none" stroke="#e6e9ef" stroke-width="0.12" opacity="1"/><path d="M -40.950 -25.725 A 0.400 0.400 0 0 1 -40.950 -26.525" fill="none" stroke="#e6e9ef" stroke-width="0.12" opacity="1"/><path d="M -40.950 -23.350 A 0.400 0.400 0 1 1 -40.950 -24.150" fill="none" stroke="#e6e9ef" stroke-width="0.12" opacity="1"/><path d="M -40.950 -20.975 A 0.400 0.400 0 1 1 -40.950 -21.775" fill="none" stroke="#e6e9ef" stroke-width="0.12" opacity="1"/><path d="M -40.950 -18.600 A 0.400 0.400 0 0 1 -40.950 -19.400" fill="none" stroke="#e6e9ef" stroke-width="0.12" opacity="1"/><path d="M -40.950 -16.225 A 0.400 0.400 0 0 1 -40.950 -17.025" fill="none" stroke="#e6e9ef" stroke-width="0.12" opacity="1"/><path d="M -40.950 -13.850 A 0.400 0.400 0 1 1 -40.950 -14.650" fill="none" stroke="#e6e9ef" stroke-width="0.12" opacity="1"/><path d="M -40.950 -11.475 A 0.400 0.400 0 0 1 -40.950 -12.275" fill="none" stroke="#e6e9ef" stroke-width="0.12" opacity="1"/><path d="M -40.950 -9.100 A 0.400 0.400 0 0 1 -40.950 -9.900" fill="none" stroke="#e6e9ef" stroke-width="0.12" opacity="1"/><path d="M -40.950 -6.725 A 0.400 0.400 0 1 1 -40.950 -7.525" fill="none" stroke="#e6e9ef" stroke-width="0.12" opacity="1"/><path d="M -40.950 -4.350 A 0.400 0.400 0 1 1 -40.950 -5.150" fill="none" stroke="#e6e9ef" stroke-width="0.12" opacity="1"/><path d="M -40.950 -1.975 A 0.400 0.400 0 1 1 -40.950 -2.775" fill="none" stroke="#e6e9ef" stroke-width="0.12" opacity="1"/><path d="M -40.950 0.400 A 0.400 0.400 0 0 1 -40.950 -0.400" fill="none" stroke="#e6e9ef" stroke-width="0.12" opacity="1"/><path d="M -40.950 2.775 A 0.400 0.400 0 1 1 -40.950 1.975" fill="none" stroke="#e6e9ef" stroke-width="0.12" opacity="1"/><path d="M -40.950 5.150 A 0.400 0.400 0 1 1 -40.950 4.350" fill="none" stroke="#e6e9ef" stroke-width="0.12" opacity="1"/><path d="M -40.950 7.525 A 0.400 0.400 0 1 1 -40.950 6.725" fill="none" stroke="#e6e9ef" stroke-width="0.12" opacity="1"/><path d="M -40.950 9.900 A 0.400 0.400 0 0 1 -40.950 9.100" fill="none" stroke="#e6e9ef" stroke-width="0.12" opacity="1"/><path d="M -40.950 12.275 A 0.400 0.400 0 0 1 -40.950 11.475" fill="none" stroke="#e6e9ef" stroke-width="0.12" opacity="1"/><path d="M -40.950 14.650 A 0.400 0.400 0 1 1 -40.950 13.850" fill="none" stroke="#e6e9ef" stroke-width="0.12" opacity="1"/><path d="M -40.950 17.025 A 0.400 0.400 0 0 1 -40.950 16.225" fill="none" stroke="#e6e9ef" stroke-width="0.12" opacity="1"/><path d="M -40.950 19.400 A 0.400 0.400 0 0 1 -40.950 18.600" fill="none" stroke="#e6e9ef" stroke-width="0.12" opacity="1"/><path d="M -40.950 21.775 A 0.400 0.400 0 1 1 -40.950 20.975" fill="none" stroke="#e6e9ef" stroke-width="0.12" opacity="1"/><path d="M -40.950 24.150 A 0.400 0.400 0 1 1 -40.950 23.350" fill="none" stroke="#e6e9ef" stroke-width="0.12" opacity="1"/><path d="M -40.950 26.525 A 0.400 0.400 0 0 1 -40.950 25.725" fill="none" stroke="#e6e9ef" stroke-width="0.12" opacity="1"/><path d="M -40.950 28.900 A 0.400 0.400 0 0 1 -40.950 28.100" fill="none" stroke="#e6e9ef" stroke-width="0.12" opacity="1"/><path d="M -40.950 31.275 A 0.400 0.400 0 1 1 -40.950 30.475" fill="none" stroke="#e6e9ef" stroke-width="0.12" opacity="1"/><path d="M -40.950 33.650 A 0.400 0.400 0 0 1 -40.950 32.850" fill="none" stroke="#e6e9ef" stroke-width="0.12" opacity="1"/><path d="M -40.950 36.025 A 0.400 0.400 0 0 1 -40.950 35.225" fill="none" stroke="#e6e9ef" stroke-width="0.12" opacity="1"/><path d="M -40.950 38.400 A 0.400 0.400 0 1 1 -40.950 37.600" fill="none" stroke="#e6e9ef" stroke-width="0.12" opacity="1"/><path d="M -40.950 40.775 A 0.400 0.400 0 0 1 -40.950 39.975" fill="none" stroke="#e6e9ef" stroke-width="0.12" opacity="1"/><path d="M -40.917 -42.950 A 0.400 0.400 0 0 1 -41.150 -42.875" fill="none" stroke="#e6e9ef" stroke-width="0.12" opacity="1"/><path d="M -40.917 -42.950 A 3.976 3.976 0 0 1 -36.176 -42.875" fill="none" stroke="#e6e9ef" stroke-width="0.12" opacity="1"/><path d="M -36.650 -40.775 A 0.400 0.400 0 0 1 -36.650 -39.975" fill="none" stroke="#e6e9ef" stroke-width="0.12" opacity="1"/><path d="M -36.650 -38.400 A 0.400 0.400 0 0 1 -36.650 -37.600" fill="none" stroke="#e6e9ef" stroke-width="0.12" opacity="1"/><path d="M -36.650 -36.025 A 0.400 0.400 0 1 1 -36.650 -35.225" fill="none" stroke="#e6e9ef" stroke-width="0.12" opacity="1"/><path d="M -36.650 -33.650 A 0.400 0.400 0 0 1 -36.650 -32.850" fill="none" stroke="#e6e9ef" stroke-width="0.12" opacity="1"/><path d="M -36.650 -31.275 A 0.400 0.400 0 1 1 -36.650 -30.475" fill="none" stroke="#e6e9ef" stroke-width="0.12" opacity="1"/><path d="M -36.650 -28.900 A 0.400 0.400 0 0 1 -36.650 -28.100" fill="none" stroke="#e6e9ef" stroke-width="0.12" opacity="1"/><path d="M -36.650 -26.525 A 0.400 0.400 0 0 1 -36.650 -25.725" fill="none" stroke="#e6e9ef" stroke-width="0.12" opacity="1"/><path d="M -36.650 -24.150 A 0.400 0.400 0 1 1 -36.650 -23.350" fill="none" stroke="#e6e9ef" stroke-width="0.12" opacity="1"/><path d="M -36.650 -21.775 A 0.400 0.400 0 0 1 -36.650 -20.975" fill="none" stroke="#e6e9ef" stroke-width="0.12" opacity="1"/><path d="M -36.650 -19.400 A 0.400 0.400 0 0 1 -36.650 -18.600" fill="none" stroke="#e6e9ef" stroke-width="0.12" opacity="1"/><path d="M -36.650 -17.025 A 0.400 0.400 0 0 1 -36.650 -16.225" fill="none" stroke="#e6e9ef" stroke-width="0.12" opacity="1"/><path d="M -36.650 -14.650 A 0.400 0.400 0 1 1 -36.650 -13.850" fill="none" stroke="#e6e9ef" stroke-width="0.12" opacity="1"/><path d="M -36.650 -12.275 A 0.400 0.400 0 1 1 -36.650 -11.475" fill="none" stroke="#e6e9ef" stroke-width="0.12" opacity="1"/><path d="M -36.650 -9.900 A 0.400 0.400 0 1 1 -36.650 -9.100" fill="none" stroke="#e6e9ef" stroke-width="0.12" opacity="1"/><path d="M -36.650 -7.525 A 0.400 0.400 0 1 1 -36.650 -6.725" fill="none" stroke="#e6e9ef" stroke-width="0.12" opacity="1"/><path d="M -36.650 -5.150 A 0.400 0.400 0 1 1 -36.650 -4.350" fill="none" stroke="#e6e9ef" stroke-width="0.12" opacity="1"/><path d="M -36.650 -2.775 A 0.400 0.400 0 1 1 -36.650 -1.975" fill="none" stroke="#e6e9ef" stroke-width="0.12" opacity="1"/><path d="M -36.650 -0.400 A 0.400 0.400 0 1 1 -36.650 0.400" fill="none" stroke="#e6e9ef" stroke-width="0.12" opacity="1"/><path d="M -36.650 1.975 A 0.400 0.400 0 1 1 -36.650 2.775" fill="none" stroke="#e6e9ef" stroke-width="0.12" opacity="1"/><path d="M -36.650 4.350 A 0.400 0.400 0 1 1 -36.650 5.150" fill="none" stroke="#e6e9ef" stroke-width="0.12" opacity="1"/><path d="M -36.650 6.725 A 0.400 0.400 0 1 1 -36.650 7.525" fill="none" stroke="#e6e9ef" stroke-width="0.12" opacity="1"/><path d="M -36.650 9.100 A 0.400 0.400 0 1 1 -36.650 9.900" fill="none" stroke="#e6e9ef" stroke-width="0.12" opacity="1"/><path d="M -36.650 11.475 A 0.400 0.400 0 1 1 -36.650 12.275" fill="none" stroke="#e6e9ef" stroke-width="0.12" opacity="1"/><path d="M -36.650 13.850 A 0.400 0.400 0 1 1 -36.650 14.650" fill="none" stroke="#e6e9ef" stroke-width="0.12" opacity="1"/><path d="M -36.650 16.225 A 0.400 0.400 0 0 1 -36.650 17.025" fill="none" stroke="#e6e9ef" stroke-width="0.12" opacity="1"/><path d="M -36.650 18.600 A 0.400 0.400 0 0 1 -36.650 19.400" fill="none" stroke="#e6e9ef" stroke-width="0.12" opacity="1"/><path d="M -36.650 20.975 A 0.400 0.400 0 0 1 -36.650 21.775" fill="none" stroke="#e6e9ef" stroke-width="0.12" opacity="1"/><path d="M -36.650 23.350 A 0.400 0.400 0 1 1 -36.650 24.150" fill="none" stroke="#e6e9ef" stroke-width="0.12" opacity="1"/><path d="M -36.650 25.725 A 0.400 0.400 0 0 1 -36.650 26.525" fill="none" stroke="#e6e9ef" stroke-width="0.12" opacity="1"/><path d="M -36.650 28.100 A 0.400 0.400 0 0 1 -36.650 28.900" fill="none" stroke="#e6e9ef" stroke-width="0.12" opacity="1"/><path d="M -36.650 30.475 A 0.400 0.400 0 1 1 -36.650 31.275" fill="none" stroke="#e6e9ef" stroke-width="0.12" opacity="1"/><path d="M -36.650 32.850 A 0.400 0.400 0 0 1 -36.650 33.650" fill="none" stroke="#e6e9ef" stroke-width="0.12" opacity="1"/><path d="M -36.650 35.225 A 0.400 0.400 0 1 1 -36.650 36.025" fill="none" stroke="#e6e9ef" stroke-width="0.12" opacity="1"/><path d="M -36.650 37.600 A 0.400 0.400 0 0 1 -36.650 38.400" fill="none" stroke="#e6e9ef" stroke-width="0.12" opacity="1"/><path d="M -36.650 39.975 A 0.400 0.400 0 0 1 -36.650 40.775" fill="none" stroke="#e6e9ef" stroke-width="0.12" opacity="1"/><path d="M -36.176 42.875 A 3.976 3.976 0 0 1 -40.917 42.950" fill="none" stroke="#e6e9ef" stroke-width="0.12" opacity="1"/><path d="M -36.050 42.875 A 4.054 4.054 0 0 1 -40.962 43.013" fill="none" stroke="#e6e9ef" stroke-width="0.12" opacity="1"/><path d="M -34.900 -42.925 A 0.200 0.200 0 0 1 -34.700 -43.125" fill="none" stroke="#e6e9ef" stroke-width="0.12" opacity="1"/><path d="M -34.700 43.125 A 0.200 0.200 0 0 1 -34.900 42.925" fill="none" stroke="#e6e9ef" stroke-width="0.12" opacity="1"/><path d="M -33.250 42.925 A 0.200 0.200 0 0 1 -33.450 43.125" fill="none" stroke="#e6e9ef" stroke-width="0.12" opacity="1"/><path d="M -33.007 -30.004 A 0.500 0.500 0 0 1 -32.524 -30.375" fill="none" stroke="#e6e9ef" stroke-width="0.12" opacity="1"/><path d="M -33.007 -1.504 A 0.500 0.500 0 0 1 -32.524 -1.875" fill="none" stroke="#e6e9ef" stroke-width="0.12" opacity="1"/><path d="M -33.007 12.746 A 0.500 0.500 0 0 1 -32.524 12.375" fill="none" stroke="#e6e9ef" stroke-width="0.12" opacity="1"/><path d="M -31.650 -30.375 A 0.500 0.500 0 0 1 -31.150 -29.875" fill="none" stroke="#e6e9ef" stroke-width="0.12" opacity="1"/><path d="M -31.650 -1.875 A 0.500 0.500 0 0 1 -31.150 -1.375" fill="none" stroke="#e6e9ef" stroke-width="0.12" opacity="1"/><path d="M -31.650 12.375 A 0.500 0.500 0 0 1 -31.150 12.875" fill="none" stroke="#e6e9ef" stroke-width="0.12" opacity="1"/><path d="M -30.650 -29.875 A 0.500 0.500 0 0 1 -30.150 -30.375" fill="none" stroke="#e6e9ef" stroke-width="0.12" opacity="1"/><path d="M -30.650 -1.375 A 0.500 0.500 0 0 1 -30.150 -1.875" fill="none" stroke="#e6e9ef" stroke-width="0.12" opacity="1"/><path d="M -30.650 12.875 A 0.500 0.500 0 0 1 -30.150 12.375" fill="none" stroke="#e6e9ef" stroke-width="0.12" opacity="1"/><path d="M -29.276 -30.375 A 0.500 0.500 0 0 1 -28.793 -30.004" fill="none" stroke="#e6e9ef" stroke-width="0.12" opacity="1"/><path d="M -29.276 -1.875 A 0.500 0.500 0 0 1 -28.793 -1.504" fill="none" stroke="#e6e9ef" stroke-width="0.12" opacity="1"/><path d="M -29.276 12.375 A 0.500 0.500 0 0 1 -28.793 12.746" fill="none" stroke="#e6e9ef" stroke-width="0.12" opacity="1"/><path d="M -28.450 -43.125 A 0.200 0.200 0 0 1 -28.250 -42.925" fill="none" stroke="#e6e9ef" stroke-width="0.12" opacity="1"/><path d="M -28.350 43.125 A 0.200 0.200 0 0 1 -28.550 42.925" fill="none" stroke="#e6e9ef" stroke-width="0.12" opacity="1"/><path d="M -23.550 -42.925 A 0.200 0.200 0 0 1 -23.350 -43.125" fill="none" stroke="#e6e9ef" stroke-width="0.12" opacity="1"/><path d="M -23.250 42.925 A 0.200 0.200 0 0 1 -23.450 43.125" fill="none" stroke="#e6e9ef" stroke-width="0.12" opacity="1"/><path d="M -18.450 -43.125 A 0.200 0.200 0 0 1 -18.250 -42.925" fill="none" stroke="#e6e9ef" stroke-width="0.12" opacity="1"/><path d="M -18.350 43.125 A 0.200 0.200 0 0 1 -18.550 42.925" fill="none" stroke="#e6e9ef" stroke-width="0.12" opacity="1"/><path d="M -13.550 -42.925 A 0.200 0.200 0 0 1 -13.350 -43.125" fill="none" stroke="#e6e9ef" stroke-width="0.12" opacity="1"/><path d="M -13.007 -30.004 A 0.500 0.500 0 0 1 -12.524 -30.375" fill="none" stroke="#e6e9ef" stroke-width="0.12" opacity="1"/><path d="M -13.007 -1.504 A 0.500 0.500 0 0 1 -12.524 -1.875" fill="none" stroke="#e6e9ef" stroke-width="0.12" opacity="1"/><path d="M -13.007 12.746 A 0.500 0.500 0 0 1 -12.524 12.375" fill="none" stroke="#e6e9ef" stroke-width="0.12" opacity="1"/><path d="M -11.650 -30.375 A 0.500 0.500 0 0 1 -11.150 -29.875" fill="none" stroke="#e6e9ef" stroke-width="0.12" opacity="1"/><path d="M -11.650 -1.875 A 0.500 0.500 0 0 1 -11.150 -1.375" fill="none" stroke="#e6e9ef" stroke-width="0.12" opacity="1"/><path d="M -11.650 12.375 A 0.500 0.500 0 0 1 -11.150 12.875" fill="none" stroke="#e6e9ef" stroke-width="0.12" opacity="1"/><path d="M -11.575 42.925 A 0.200 0.200 0 0 1 -11.775 43.125" fill="none" stroke="#e6e9ef" stroke-width="0.12" opacity="1"/><path d="M -41.150 42.875 A 0.400 0.400 0 0 1 -40.917 42.950" fill="none" stroke="#6b7280" stroke-width="0.12" opacity="0.8"/><path d="M -41.150 42.953 A 0.322 0.322 0 0 1 -40.962 43.013" fill="none" stroke="#6b7280" stroke-width="0.12" opacity="0.8"/><path d="M -40.962 -43.013 A 4.054 4.054 0 0 1 -36.050 -42.875" fill="none" stroke="#6b7280" stroke-width="0.12" opacity="0.8"/><path d="M -40.962 -43.013 A 0.322 0.322 0 0 1 -41.150 -42.953" fill="none" stroke="#6b7280" stroke-width="0.12" opacity="0.8"/><path d="M -40.950 -39.975 A 0.400 0.400 0 0 1 -40.950 -40.775" fill="none" stroke="#6b7280" stroke-width="0.12" opacity="0.8"/><path d="M -40.950 -37.600 A 0.400 0.400 0 1 1 -40.950 -38.400" fill="none" stroke="#6b7280" stroke-width="0.12" opacity="0.8"/><path d="M -40.950 -35.225 A 0.400 0.400 0 0 1 -40.950 -36.025" fill="none" stroke="#6b7280" stroke-width="0.12" opacity="0.8"/><path d="M -40.950 -32.850 A 0.400 0.400 0 0 1 -40.950 -33.650" fill="none" stroke="#6b7280" stroke-width="0.12" opacity="0.8"/><path d="M -40.950 -30.475 A 0.400 0.400 0 1 1 -40.950 -31.275" fill="none" stroke="#6b7280" stroke-width="0.12" opacity="0.8"/><path d="M -40.950 -28.100 A 0.400 0.400 0 0 1 -40.950 -28.900" fill="none" stroke="#6b7280" stroke-width="0.12" opacity="0.8"/><path d="M -40.950 -25.725 A 0.400 0.400 0 0 1 -40.950 -26.525" fill="none" stroke="#6b7280" stroke-width="0.12" opacity="0.8"/><path d="M -40.950 -23.350 A 0.400 0.400 0 1 1 -40.950 -24.150" fill="none" stroke="#6b7280" stroke-width="0.12" opacity="0.8"/><path d="M -40.950 -20.975 A 0.400 0.400 0 1 1 -40.950 -21.775" fill="none" stroke="#6b7280" stroke-width="0.12" opacity="0.8"/><path d="M -40.950 -18.600 A 0.400 0.400 0 0 1 -40.950 -19.400" fill="none" stroke="#6b7280" stroke-width="0.12" opacity="0.8"/><path d="M -40.950 -16.225 A 0.400 0.400 0 0 1 -40.950 -17.025" fill="none" stroke="#6b7280" stroke-width="0.12" opacity="0.8"/><path d="M -40.950 -13.850 A 0.400 0.400 0 1 1 -40.950 -14.650" fill="none" stroke="#6b7280" stroke-width="0.12" opacity="0.8"/><path d="M -40.950 -11.475 A 0.400 0.400 0 0 1 -40.950 -12.275" fill="none" stroke="#6b7280" stroke-width="0.12" opacity="0.8"/><path d="M -40.950 -9.100 A 0.400 0.400 0 0 1 -40.950 -9.900" fill="none" stroke="#6b7280" stroke-width="0.12" opacity="0.8"/><path d="M -40.950 -6.725 A 0.400 0.400 0 1 1 -40.950 -7.525" fill="none" stroke="#6b7280" stroke-width="0.12" opacity="0.8"/><path d="M -40.950 -4.350 A 0.400 0.400 0 1 1 -40.950 -5.150" fill="none" stroke="#6b7280" stroke-width="0.12" opacity="0.8"/><path d="M -40.950 -1.975 A 0.400 0.400 0 1 1 -40.950 -2.775" fill="none" stroke="#6b7280" stroke-width="0.12" opacity="0.8"/><path d="M -40.950 0.400 A 0.400 0.400 0 0 1 -40.950 -0.400" fill="none" stroke="#6b7280" stroke-width="0.12" opacity="0.8"/><path d="M -40.950 2.775 A 0.400 0.400 0 1 1 -40.950 1.975" fill="none" stroke="#6b7280" stroke-width="0.12" opacity="0.8"/><path d="M -40.950 5.150 A 0.400 0.400 0 1 1 -40.950 4.350" fill="none" stroke="#6b7280" stroke-width="0.12" opacity="0.8"/><path d="M -40.950 7.525 A 0.400 0.400 0 1 1 -40.950 6.725" fill="none" stroke="#6b7280" stroke-width="0.12" opacity="0.8"/><path d="M -40.950 9.900 A 0.400 0.400 0 0 1 -40.950 9.100" fill="none" stroke="#6b7280" stroke-width="0.12" opacity="0.8"/><path d="M -40.950 12.275 A 0.400 0.400 0 0 1 -40.950 11.475" fill="none" stroke="#6b7280" stroke-width="0.12" opacity="0.8"/><path d="M -40.950 14.650 A 0.400 0.400 0 1 1 -40.950 13.850" fill="none" stroke="#6b7280" stroke-width="0.12" opacity="0.8"/><path d="M -40.950 17.025 A 0.400 0.400 0 0 1 -40.950 16.225" fill="none" stroke="#6b7280" stroke-width="0.12" opacity="0.8"/><path d="M -40.950 19.400 A 0.400 0.400 0 0 1 -40.950 18.600" fill="none" stroke="#6b7280" stroke-width="0.12" opacity="0.8"/><path d="M -40.950 21.775 A 0.400 0.400 0 1 1 -40.950 20.975" fill="none" stroke="#6b7280" stroke-width="0.12" opacity="0.8"/><path d="M -40.950 24.150 A 0.400 0.400 0 1 1 -40.950 23.350" fill="none" stroke="#6b7280" stroke-width="0.12" opacity="0.8"/><path d="M -40.950 26.525 A 0.400 0.400 0 0 1 -40.950 25.725" fill="none" stroke="#6b7280" stroke-width="0.12" opacity="0.8"/><path d="M -40.950 28.900 A 0.400 0.400 0 0 1 -40.950 28.100" fill="none" stroke="#6b7280" stroke-width="0.12" opacity="0.8"/><path d="M -40.950 31.275 A 0.400 0.400 0 1 1 -40.950 30.475" fill="none" stroke="#6b7280" stroke-width="0.12" opacity="0.8"/><path d="M -40.950 33.650 A 0.400 0.400 0 0 1 -40.950 32.850" fill="none" stroke="#6b7280" stroke-width="0.12" opacity="0.8"/><path d="M -40.950 36.025 A 0.400 0.400 0 0 1 -40.950 35.225" fill="none" stroke="#6b7280" stroke-width="0.12" opacity="0.8"/><path d="M -40.950 38.400 A 0.400 0.400 0 1 1 -40.950 37.600" fill="none" stroke="#6b7280" stroke-width="0.12" opacity="0.8"/><path d="M -40.950 40.775 A 0.400 0.400 0 0 1 -40.950 39.975" fill="none" stroke="#6b7280" stroke-width="0.12" opacity="0.8"/><path d="M -40.917 -42.950 A 0.400 0.400 0 0 1 -41.150 -42.875" fill="none" stroke="#6b7280" stroke-width="0.12" opacity="0.8"/><path d="M -40.917 -42.950 A 3.976 3.976 0 0 1 -36.176 -42.875" fill="none" stroke="#6b7280" stroke-width="0.12" opacity="0.8"/><path d="M -36.650 -40.775 A 0.400 0.400 0 0 1 -36.650 -39.975" fill="none" stroke="#6b7280" stroke-width="0.12" opacity="0.8"/><path d="M -36.650 -38.400 A 0.400 0.400 0 0 1 -36.650 -37.600" fill="none" stroke="#6b7280" stroke-width="0.12" opacity="0.8"/><path d="M -36.650 -36.025 A 0.400 0.400 0 1 1 -36.650 -35.225" fill="none" stroke="#6b7280" stroke-width="0.12" opacity="0.8"/><path d="M -36.650 -33.650 A 0.400 0.400 0 0 1 -36.650 -32.850" fill="none" stroke="#6b7280" stroke-width="0.12" opacity="0.8"/><path d="M -36.650 -31.275 A 0.400 0.400 0 1 1 -36.650 -30.475" fill="none" stroke="#6b7280" stroke-width="0.12" opacity="0.8"/><path d="M -36.650 -28.900 A 0.400 0.400 0 0 1 -36.650 -28.100" fill="none" stroke="#6b7280" stroke-width="0.12" opacity="0.8"/><path d="M -36.650 -26.525 A 0.400 0.400 0 0 1 -36.650 -25.725" fill="none" stroke="#6b7280" stroke-width="0.12" opacity="0.8"/><path d="M -36.650 -24.150 A 0.400 0.400 0 1 1 -36.650 -23.350" fill="none" stroke="#6b7280" stroke-width="0.12" opacity="0.8"/><path d="M -36.650 -21.775 A 0.400 0.400 0 0 1 -36.650 -20.975" fill="none" stroke="#6b7280" stroke-width="0.12" opacity="0.8"/><path d="M -36.650 -19.400 A 0.400 0.400 0 0 1 -36.650 -18.600" fill="none" stroke="#6b7280" stroke-width="0.12" opacity="0.8"/><path d="M -36.650 -17.025 A 0.400 0.400 0 0 1 -36.650 -16.225" fill="none" stroke="#6b7280" stroke-width="0.12" opacity="0.8"/><path d="M -36.650 -14.650 A 0.400 0.400 0 1 1 -36.650 -13.850" fill="none" stroke="#6b7280" stroke-width="0.12" opacity="0.8"/><path d="M -36.650 -12.275 A 0.400 0.400 0 1 1 -36.650 -11.475" fill="none" stroke="#6b7280" stroke-width="0.12" opacity="0.8"/><path d="M -36.650 -9.900 A 0.400 0.400 0 1 1 -36.650 -9.100" fill="none" stroke="#6b7280" stroke-width="0.12" opacity="0.8"/><path d="M -36.650 -7.525 A 0.400 0.400 0 1 1 -36.650 -6.725" fill="none" stroke="#6b7280" stroke-width="0.12" opacity="0.8"/><path d="M -36.650 -5.150 A 0.400 0.400 0 1 1 -36.650 -4.350" fill="none" stroke="#6b7280" stroke-width="0.12" opacity="0.8"/><path d="M -36.650 -2.775 A 0.400 0.400 0 1 1 -36.650 -1.975" fill="none" stroke="#6b7280" stroke-width="0.12" opacity="0.8"/><path d="M -36.650 -0.400 A 0.400 0.400 0 1 1 -36.650 0.400" fill="none" stroke="#6b7280" stroke-width="0.12" opacity="0.8"/><path d="M -36.650 1.975 A 0.400 0.400 0 1 1 -36.650 2.775" fill="none" stroke="#6b7280" stroke-width="0.12" opacity="0.8"/><path d="M -36.650 4.350 A 0.400 0.400 0 1 1 -36.650 5.150" fill="none" stroke="#6b7280" stroke-width="0.12" opacity="0.8"/><path d="M -36.650 6.725 A 0.400 0.400 0 1 1 -36.650 7.525" fill="none" stroke="#6b7280" stroke-width="0.12" opacity="0.8"/><path d="M -36.650 9.100 A 0.400 0.400 0 1 1 -36.650 9.900" fill="none" stroke="#6b7280" stroke-width="0.12" opacity="0.8"/><path d="M -36.650 11.475 A 0.400 0.400 0 1 1 -36.650 12.275" fill="none" stroke="#6b7280" stroke-width="0.12" opacity="0.8"/><path d="M -36.650 13.850 A 0.400 0.400 0 1 1 -36.650 14.650" fill="none" stroke="#6b7280" stroke-width="0.12" opacity="0.8"/><path d="M -36.650 16.225 A 0.400 0.400 0 0 1 -36.650 17.025" fill="none" stroke="#6b7280" stroke-width="0.12" opacity="0.8"/><path d="M -36.650 18.600 A 0.400 0.400 0 0 1 -36.650 19.400" fill="none" stroke="#6b7280" stroke-width="0.12" opacity="0.8"/><path d="M -36.650 20.975 A 0.400 0.400 0 0 1 -36.650 21.775" fill="none" stroke="#6b7280" stroke-width="0.12" opacity="0.8"/><path d="M -36.650 23.350 A 0.400 0.400 0 1 1 -36.650 24.150" fill="none" stroke="#6b7280" stroke-width="0.12" opacity="0.8"/><path d="M -36.650 25.725 A 0.400 0.400 0 0 1 -36.650 26.525" fill="none" stroke="#6b7280" stroke-width="0.12" opacity="0.8"/><path d="M -36.650 28.100 A 0.400 0.400 0 0 1 -36.650 28.900" fill="none" stroke="#6b7280" stroke-width="0.12" opacity="0.8"/><path d="M -36.650 30.475 A 0.400 0.400 0 1 1 -36.650 31.275" fill="none" stroke="#6b7280" stroke-width="0.12" opacity="0.8"/><path d="M -36.650 32.850 A 0.400 0.400 0 0 1 -36.650 33.650" fill="none" stroke="#6b7280" stroke-width="0.12" opacity="0.8"/><path d="M -36.650 35.225 A 0.400 0.400 0 1 1 -36.650 36.025" fill="none" stroke="#6b7280" stroke-width="0.12" opacity="0.8"/><path d="M -36.650 37.600 A 0.400 0.400 0 0 1 -36.650 38.400" fill="none" stroke="#6b7280" stroke-width="0.12" opacity="0.8"/><path d="M -36.650 39.975 A 0.400 0.400 0 0 1 -36.650 40.775" fill="none" stroke="#6b7280" stroke-width="0.12" opacity="0.8"/><path d="M -36.176 42.875 A 3.976 3.976 0 0 1 -40.917 42.950" fill="none" stroke="#6b7280" stroke-width="0.12" opacity="0.8"/><path d="M -36.050 42.875 A 4.054 4.054 0 0 1 -40.962 43.013" fill="none" stroke="#6b7280" stroke-width="0.12" opacity="0.8"/><path d="M -34.900 -42.925 A 0.200 0.200 0 0 1 -34.700 -43.125" fill="none" stroke="#6b7280" stroke-width="0.12" opacity="0.8"/><path d="M -34.700 43.125 A 0.200 0.200 0 0 1 -34.900 42.925" fill="none" stroke="#6b7280" stroke-width="0.12" opacity="0.8"/><path d="M -33.250 42.925 A 0.200 0.200 0 0 1 -33.450 43.125" fill="none" stroke="#6b7280" stroke-width="0.12" opacity="0.8"/><path d="M -33.007 -30.004 A 0.500 0.500 0 0 1 -32.524 -30.375" fill="none" stroke="#6b7280" stroke-width="0.12" opacity="0.8"/><path d="M -33.007 -15.754 A 0.500 0.500 0 0 1 -32.524 -16.125" fill="none" stroke="#6b7280" stroke-width="0.12" opacity="0.8"/><path d="M -33.007 -1.504 A 0.500 0.500 0 0 1 -32.524 -1.875" fill="none" stroke="#6b7280" stroke-width="0.12" opacity="0.8"/><path d="M -33.007 12.746 A 0.500 0.500 0 0 1 -32.524 12.375" fill="none" stroke="#6b7280" stroke-width="0.12" opacity="0.8"/><path d="M -33.007 26.996 A 0.500 0.500 0 0 1 -32.524 26.625" fill="none" stroke="#6b7280" stroke-width="0.12" opacity="0.8"/><path d="M -32.350 -43.125 A 0.200 0.200 0 0 1 -32.150 -42.925" fill="none" stroke="#6b7280" stroke-width="0.12" opacity="0.8"/><path d="M -31.650 -30.375 A 0.500 0.500 0 0 1 -31.150 -29.875" fill="none" stroke="#6b7280" stroke-width="0.12" opacity="0.8"/><path d="M -31.650 -16.125 A 0.500 0.500 0 0 1 -31.150 -15.625" fill="none" stroke="#6b7280" stroke-width="0.12" opacity="0.8"/><path d="M -31.650 -1.875 A 0.500 0.500 0 0 1 -31.150 -1.375" fill="none" stroke="#6b7280" stroke-width="0.12" opacity="0.8"/><path d="M -31.650 12.375 A 0.500 0.500 0 0 1 -31.150 12.875" fill="none" stroke="#6b7280" stroke-width="0.12" opacity="0.8"/><path d="M -31.650 26.625 A 0.500 0.500 0 0 1 -31.150 27.125" fill="none" stroke="#6b7280" stroke-width="0.12" opacity="0.8"/><path d="M -30.650 -29.875 A 0.500 0.500 0 0 1 -30.150 -30.375" fill="none" stroke="#6b7280" stroke-width="0.12" opacity="0.8"/><path d="M -30.650 -15.625 A 0.500 0.500 0 0 1 -30.150 -16.125" fill="none" stroke="#6b7280" stroke-width="0.12" opacity="0.8"/><path d="M -30.650 -1.375 A 0.500 0.500 0 0 1 -30.150 -1.875" fill="none" stroke="#6b7280" stroke-width="0.12" opacity="0.8"/><path d="M -30.650 12.875 A 0.500 0.500 0 0 1 -30.150 12.375" fill="none" stroke="#6b7280" stroke-width="0.12" opacity="0.8"/><path d="M -30.650 27.125 A 0.500 0.500 0 0 1 -30.150 26.625" fill="none" stroke="#6b7280" stroke-width="0.12" opacity="0.8"/><path d="M -29.650 -42.925 A 0.200 0.200 0 0 1 -29.450 -43.125" fill="none" stroke="#6b7280" stroke-width="0.12" opacity="0.8"/><path d="M -29.276 -30.375 A 0.500 0.500 0 0 1 -28.793 -30.004" fill="none" stroke="#6b7280" stroke-width="0.12" opacity="0.8"/><path d="M -29.276 -16.125 A 0.500 0.500 0 0 1 -28.793 -15.754" fill="none" stroke="#6b7280" stroke-width="0.12" opacity="0.8"/><path d="M -29.276 -1.875 A 0.500 0.500 0 0 1 -28.793 -1.504" fill="none" stroke="#6b7280" stroke-width="0.12" opacity="0.8"/><path d="M -29.276 12.375 A 0.500 0.500 0 0 1 -28.793 12.746" fill="none" stroke="#6b7280" stroke-width="0.12" opacity="0.8"/><path d="M -29.276 26.625 A 0.500 0.500 0 0 1 -28.793 26.996" fill="none" stroke="#6b7280" stroke-width="0.12" opacity="0.8"/><path d="M -28.450 -43.125 A 0.200 0.200 0 0 1 -28.250 -42.925" fill="none" stroke="#6b7280" stroke-width="0.12" opacity="0.8"/><path d="M -28.350 43.125 A 0.200 0.200 0 0 1 -28.550 42.925" fill="none" stroke="#6b7280" stroke-width="0.12" opacity="0.8"/><path d="M -27.150 42.925 A 0.200 0.200 0 0 1 -27.350 43.125" fill="none" stroke="#6b7280" stroke-width="0.12" opacity="0.8"/><path d="M -23.550 -42.925 A 0.200 0.200 0 0 1 -23.350 -43.125" fill="none" stroke="#6b7280" stroke-width="0.12" opacity="0.8"/><path d="M -23.250 42.925 A 0.200 0.200 0 0 1 -23.450 43.125" fill="none" stroke="#6b7280" stroke-width="0.12" opacity="0.8"/><path d="M -22.350 -43.125 A 0.200 0.200 0 0 1 -22.150 -42.925" fill="none" stroke="#6b7280" stroke-width="0.12" opacity="0.8"/><path d="M -19.650 -42.925 A 0.200 0.200 0 0 1 -19.450 -43.125" fill="none" stroke="#6b7280" stroke-width="0.12" opacity="0.8"/><path d="M -18.450 -43.125 A 0.200 0.200 0 0 1 -18.250 -42.925" fill="none" stroke="#6b7280" stroke-width="0.12" opacity="0.8"/><path d="M -18.350 43.125 A 0.200 0.200 0 0 1 -18.550 42.925" fill="none" stroke="#6b7280" stroke-width="0.12" opacity="0.8"/><path d="M -17.150 42.925 A 0.200 0.200 0 0 1 -17.350 43.125" fill="none" stroke="#6b7280" stroke-width="0.12" opacity="0.8"/><path d="M -14.450 43.125 A 0.200 0.200 0 0 1 -14.650 42.925" fill="none" stroke="#6b7280" stroke-width="0.12" opacity="0.8"/><path d="M -13.550 -42.925 A 0.200 0.200 0 0 1 -13.350 -43.125" fill="none" stroke="#6b7280" stroke-width="0.12" opacity="0.8"/><path d="M -13.007 -30.004 A 0.500 0.500 0 0 1 -12.524 -30.375" fill="none" stroke="#6b7280" stroke-width="0.12" opacity="0.8"/><path d="M -13.007 -15.754 A 0.500 0.500 0 0 1 -12.524 -16.125" fill="none" stroke="#6b7280" stroke-width="0.12" opacity="0.8"/><path d="M -13.007 -1.504 A 0.500 0.500 0 0 1 -12.524 -1.875" fill="none" stroke="#6b7280" stroke-width="0.12" opacity="0.8"/><path d="M -13.007 12.746 A 0.500 0.500 0 0 1 -12.524 12.375" fill="none" stroke="#6b7280" stroke-width="0.12" opacity="0.8"/><path d="M -13.007 26.996 A 0.500 0.500 0 0 1 -12.524 26.625" fill="none" stroke="#6b7280" stroke-width="0.12" opacity="0.8"/><path d="M -12.375 -43.125 A 0.200 0.200 0 0 1 -12.175 -42.925" fill="none" stroke="#6b7280" stroke-width="0.12" opacity="0.8"/><path d="M -11.650 -30.375 A 0.500 0.500 0 0 1 -11.150 -29.875" fill="none" stroke="#6b7280" stroke-width="0.12" opacity="0.8"/><path d="M -11.650 -16.125 A 0.500 0.500 0 0 1 -11.150 -15.625" fill="none" stroke="#6b7280" stroke-width="0.12" opacity="0.8"/><path d="M -11.650 -1.875 A 0.500 0.500 0 0 1 -11.150 -1.375" fill="none" stroke="#6b7280" stroke-width="0.12" opacity="0.8"/><path d="M -11.650 12.375 A 0.500 0.500 0 0 1 -11.150 12.875" fill="none" stroke="#6b7280" stroke-width="0.12" opacity="0.8"/><path d="M -11.650 26.625 A 0.500 0.500 0 0 1 -11.150 27.125" fill="none" stroke="#6b7280" stroke-width="0.12" opacity="0.8"/><path d="M -11.575 42.925 A 0.200 0.200 0 0 1 -11.775 43.125" fill="none" stroke="#6b7280" stroke-width="0.12" opacity="0.8"/><path d="M -10.650 -29.875 A 0.500 0.500 0 0 1 -10.150 -30.375" fill="none" stroke="#6b7280" stroke-width="0.12" opacity="0.8"/><path d="M -10.650 -15.625 A 0.500 0.500 0 0 1 -10.150 -16.125" fill="none" stroke="#6b7280" stroke-width="0.12" opacity="0.8"/><path d="M -10.650 -1.375 A 0.500 0.500 0 0 1 -10.150 -1.875" fill="none" stroke="#6b7280" stroke-width="0.12" opacity="0.8"/><path d="M -10.650 12.875 A 0.500 0.500 0 0 1 -10.150 12.375" fill="none" stroke="#6b7280" stroke-width="0.12" opacity="0.8"/><path d="M -10.650 27.125 A 0.500 0.500 0 0 1 -10.150 26.625" fill="none" stroke="#6b7280" stroke-width="0.12" opacity="0.8"/><path d="M -9.276 -30.375 A 0.500 0.500 0 0 1 -8.793 -30.004" fill="none" stroke="#6b7280" stroke-width="0.12" opacity="0.8"/><path d="M -9.276 -16.125 A 0.500 0.500 0 0 1 -8.793 -15.754" fill="none" stroke="#6b7280" stroke-width="0.12" opacity="0.8"/><path d="M -9.276 -1.875 A 0.500 0.500 0 0 1 -8.793 -1.504" fill="none" stroke="#6b7280" stroke-width="0.12" opacity="0.8"/><path d="M -9.276 12.375 A 0.500 0.500 0 0 1 -8.793 12.746" fill="none" stroke="#6b7280" stroke-width="0.12" opacity="0.8"/><path d="M -9.276 26.625 A 0.500 0.500 0 0 1 -8.793 26.996" fill="none" stroke="#6b7280" stroke-width="0.12" opacity="0.8"/><rect x="-31.900" y="-43.750" width="2.000" height="2.000" rx="0.000" fill="#c79b5c"/><circle cx="-30.900" cy="-42.750" r="0.525" fill="#12151c"/><rect x="-21.900" y="-43.750" width="2.000" height="2.000" rx="0.000" fill="#c79b5c"/><circle cx="-20.900" cy="-42.750" r="0.525" fill="#12151c"/><rect x="-11.900" y="-43.750" width="2.000" height="2.000" rx="0.000" fill="#c79b5c"/><circle cx="-10.900" cy="-42.750" r="0.525" fill="#12151c"/><rect x="-8.925" y="-43.575" width="1.650" height="1.650" rx="0.825" fill="#c79b5c"/><circle cx="-8.100" cy="-42.750" r="0.475" fill="#12151c"/><rect x="-4.400" y="-43.750" width="2.000" height="2.000" rx="0.000" fill="#c79b5c"/><circle cx="-3.400" cy="-42.750" r="0.475" fill="#12151c"/><rect x="0.600" y="-43.750" width="2.000" height="2.000" rx="0.000" fill="#c79b5c"/><circle cx="1.600" cy="-42.750" r="0.475" fill="#12151c"/><rect x="5.900" y="-41.570" width="0.000" height="0.000" rx="0.000" fill="#c79b5c"/><rect x="5.375" y="-41.250" width="1.650" height="1.650" rx="0.825" fill="#c79b5c"/><circle cx="6.200" cy="-40.425" r="0.475" fill="#12151c"/><rect x="-16.900" y="-38.075" width="2.000" height="2.000" rx="0.000" fill="#c79b5c"/><circle cx="-15.900" cy="-37.075" r="0.525" fill="#12151c"/><rect x="5.375" y="-36.450" width="1.650" height="1.650" rx="0.825" fill="#c79b5c"/><circle cx="6.200" cy="-35.625" r="0.475" fill="#12151c"/><rect x="-31.900" y="-35.175" width="2.000" height="2.000" rx="0.000" fill="#c79b5c"/><circle cx="-30.900" cy="-34.175" r="0.525" fill="#12151c"/><rect x="-16.900" y="-32.675" width="2.000" height="2.000" rx="0.000" fill="#c79b5c"/><circle cx="-15.900" cy="-31.675" r="0.525" fill="#12151c"/><rect x="-26.900" y="-29.500" width="2.000" height="2.000" rx="0.000" fill="#c79b5c"/><circle cx="-25.900" cy="-28.500" r="0.525" fill="#12151c"/><rect x="-16.900" y="-29.500" width="2.000" height="2.000" rx="0.000" fill="#c79b5c"/><circle cx="-15.900" cy="-28.500" r="0.525" fill="#12151c"/><rect x="-8.925" y="-29.325" width="1.650" height="1.650" rx="0.825" fill="#c79b5c"/><circle cx="-8.100" cy="-28.500" r="0.475" fill="#12151c"/><rect x="-6.900" y="-29.500" width="2.000" height="2.000" rx="0.000" fill="#c79b5c"/><circle cx="-5.900" cy="-28.500" r="0.525" fill="#12151c"/><rect x="3.100" y="-29.500" width="2.000" height="2.000" rx="0.000" fill="#c79b5c"/><circle cx="4.100" cy="-28.500" r="0.525" fill="#12151c"/><rect x="5.900" y="-27.320" width="0.000" height="0.000" rx="0.000" fill="#c79b5c"/><rect x="5.375" y="-27.000" width="1.650" height="1.650" rx="0.825" fill="#c79b5c"/><circle cx="6.200" cy="-26.175" r="0.475" fill="#12151c"/><rect x="-16.900" y="-23.825" width="2.000" height="2.000" rx="0.000" fill="#c79b5c"/><circle cx="-15.900" cy="-22.825" r="0.525" fill="#12151c"/><rect x="5.375" y="-22.200" width="1.650" height="1.650" rx="0.825" fill="#c79b5c"/><circle cx="6.200" cy="-21.375" r="0.475" fill="#12151c"/><rect x="-31.900" y="-20.925" width="2.000" height="2.000" rx="0.000" fill="#c79b5c"/><circle cx="-30.900" cy="-19.925" r="0.525" fill="#12151c"/><rect x="-16.900" y="-18.425" width="2.000" height="2.000" rx="0.000" fill="#c79b5c"/><circle cx="-15.900" cy="-17.425" r="0.525" fill="#12151c"/><rect x="-31.900" y="-15.250" width="2.000" height="2.000" rx="0.000" fill="#c79b5c"/><circle cx="-30.900" cy="-14.250" r="0.525" fill="#12151c"/><rect x="-21.900" y="-15.250" width="2.000" height="2.000" rx="0.000" fill="#c79b5c"/><circle cx="-20.900" cy="-14.250" r="0.525" fill="#12151c"/><rect x="-11.900" y="-15.250" width="2.000" height="2.000" rx="0.000" fill="#c79b5c"/><circle cx="-10.900" cy="-14.250" r="0.525" fill="#12151c"/><rect x="-8.925" y="-15.075" width="1.650" height="1.650" rx="0.825" fill="#c79b5c"/><circle cx="-8.100" cy="-14.250" r="0.475" fill="#12151c"/><rect x="-4.400" y="-15.250" width="2.000" height="2.000" rx="0.000" fill="#c79b5c"/><circle cx="-3.400" cy="-14.250" r="0.475" fill="#12151c"/><rect x="0.600" y="-15.250" width="2.000" height="2.000" rx="0.000" fill="#c79b5c"/><circle cx="1.600" cy="-14.250" r="0.475" fill="#12151c"/><rect x="5.900" y="-13.070" width="0.000" height="0.000" rx="0.000" fill="#c79b5c"/><rect x="5.375" y="-12.750" width="1.650" height="1.650" rx="0.825" fill="#c79b5c"/><circle cx="6.200" cy="-11.925" r="0.475" fill="#12151c"/><rect x="-16.900" y="-9.575" width="2.000" height="2.000" rx="0.000" fill="#c79b5c"/><circle cx="-15.900" cy="-8.575" r="0.525" fill="#12151c"/><rect x="5.375" y="-7.950" width="1.650" height="1.650" rx="0.825" fill="#c79b5c"/><circle cx="6.200" cy="-7.125" r="0.475" fill="#12151c"/><rect x="-31.900" y="-6.675" width="2.000" height="2.000" rx="0.000" fill="#c79b5c"/><circle cx="-30.900" cy="-5.675" r="0.525" fill="#12151c"/><rect x="-16.900" y="-4.175" width="2.000" height="2.000" rx="0.000" fill="#c79b5c"/><circle cx="-15.900" cy="-3.175" r="0.525" fill="#12151c"/><rect x="-26.900" y="-1.000" width="2.000" height="2.000" rx="0.000" fill="#c79b5c"/><circle cx="-25.900" cy="0.000" r="0.475" fill="#12151c"/><rect x="-16.900" y="-1.000" width="2.000" height="2.000" rx="0.000" fill="#c79b5c"/><circle cx="-15.900" cy="0.000" r="0.475" fill="#12151c"/><rect x="-6.900" y="-1.000" width="2.000" height="2.000" rx="0.000" fill="#c79b5c"/><circle cx="-5.900" cy="0.000" r="0.475" fill="#12151c"/><rect x="3.100" y="-1.000" width="2.000" height="2.000" rx="0.000" fill="#c79b5c"/><circle cx="4.100" cy="0.000" r="0.475" fill="#12151c"/><rect x="5.900" y="1.180" width="0.000" height="0.000" rx="0.000" fill="#c79b5c"/><rect x="5.375" y="1.500" width="1.650" height="1.650" rx="0.825" fill="#c79b5c"/><circle cx="6.200" cy="2.325" r="0.475" fill="#12151c"/><rect x="-16.900" y="4.675" width="2.000" height="2.000" rx="0.000" fill="#c79b5c"/><circle cx="-15.900" cy="5.675" r="0.525" fill="#12151c"/><rect x="5.375" y="6.300" width="1.650" height="1.650" rx="0.825" fill="#c79b5c"/><circle cx="6.200" cy="7.125" r="0.475" fill="#12151c"/><rect x="-31.900" y="7.575" width="2.000" height="2.000" rx="0.000" fill="#c79b5c"/><circle cx="-30.900" cy="8.575" r="0.525" fill="#12151c"/><rect x="-16.900" y="10.075" width="2.000" height="2.000" rx="0.000" fill="#c79b5c"/><circle cx="-15.900" cy="11.075" r="0.525" fill="#12151c"/><rect x="-26.900" y="13.250" width="2.000" height="2.000" rx="0.000" fill="#c79b5c"/><circle cx="-25.900" cy="14.250" r="0.525" fill="#12151c"/><rect x="-16.900" y="13.250" width="2.000" height="2.000" rx="0.000" fill="#c79b5c"/><circle cx="-15.900" cy="14.250" r="0.525" fill="#12151c"/><rect x="-8.925" y="13.425" width="1.650" height="1.650" rx="0.825" fill="#c79b5c"/><circle cx="-8.100" cy="14.250" r="0.475" fill="#12151c"/><rect x="-6.900" y="13.250" width="2.000" height="2.000" rx="0.000" fill="#c79b5c"/><circle cx="-5.900" cy="14.250" r="0.525" fill="#12151c"/><rect x="3.100" y="13.250" width="2.000" height="2.000" rx="0.000" fill="#c79b5c"/><circle cx="4.100" cy="14.250" r="0.525" fill="#12151c"/><rect x="5.900" y="15.430" width="0.000" height="0.000" rx="0.000" fill="#c79b5c"/><rect x="5.375" y="15.750" width="1.650" height="1.650" rx="0.825" fill="#c79b5c"/><circle cx="6.200" cy="16.575" r="0.475" fill="#12151c"/><rect x="-16.900" y="18.925" width="2.000" height="2.000" rx="0.000" fill="#c79b5c"/><circle cx="-15.900" cy="19.925" r="0.525" fill="#12151c"/><rect x="5.375" y="20.550" width="1.650" height="1.650" rx="0.825" fill="#c79b5c"/><circle cx="6.200" cy="21.375" r="0.475" fill="#12151c"/><rect x="-31.900" y="21.825" width="2.000" height="2.000" rx="0.000" fill="#c79b5c"/><circle cx="-30.900" cy="22.825" r="0.525" fill="#12151c"/><rect x="-16.900" y="24.325" width="2.000" height="2.000" rx="0.000" fill="#c79b5c"/><circle cx="-15.900" cy="25.325" r="0.525" fill="#12151c"/><rect x="-31.900" y="27.225" width="2.000" height="2.000" rx="0.000" fill="#c79b5c"/><circle cx="-30.900" cy="28.225" r="0.525" fill="#12151c"/><rect x="-21.900" y="27.500" width="2.000" height="2.000" rx="0.000" fill="#c79b5c"/><circle cx="-20.900" cy="28.500" r="0.525" fill="#12151c"/><rect x="-11.900" y="27.500" width="2.000" height="2.000" rx="0.000" fill="#c79b5c"/><circle cx="-10.900" cy="28.500" r="0.525" fill="#12151c"/><rect x="-8.925" y="27.675" width="1.650" height="1.650" rx="0.825" fill="#c79b5c"/><circle cx="-8.100" cy="28.500" r="0.475" fill="#12151c"/><rect x="-4.400" y="27.500" width="2.000" height="2.000" rx="0.000" fill="#c79b5c"/><circle cx="-3.400" cy="28.500" r="0.475" fill="#12151c"/><rect x="0.600" y="27.500" width="2.000" height="2.000" rx="0.000" fill="#c79b5c"/><circle cx="1.600" cy="28.500" r="0.475" fill="#12151c"/><rect x="5.900" y="29.680" width="0.000" height="0.000" rx="0.000" fill="#c79b5c"/><rect x="5.375" y="30.000" width="1.650" height="1.650" rx="0.825" fill="#c79b5c"/><circle cx="6.200" cy="30.825" r="0.475" fill="#12151c"/><rect x="-16.900" y="33.175" width="2.000" height="2.000" rx="0.000" fill="#c79b5c"/><circle cx="-15.900" cy="34.175" r="0.525" fill="#12151c"/><rect x="5.375" y="34.800" width="1.650" height="1.650" rx="0.825" fill="#c79b5c"/><circle cx="6.200" cy="35.625" r="0.475" fill="#12151c"/><rect x="-31.900" y="36.075" width="2.000" height="2.000" rx="0.000" fill="#c79b5c"/><circle cx="-30.900" cy="37.075" r="0.525" fill="#12151c"/><rect x="-16.900" y="38.575" width="2.000" height="2.000" rx="0.000" fill="#c79b5c"/><circle cx="-15.900" cy="39.575" r="0.525" fill="#12151c"/><rect x="-26.900" y="41.750" width="2.000" height="2.000" rx="0.000" fill="#c79b5c"/><circle cx="-25.900" cy="42.750" r="0.525" fill="#12151c"/><rect x="-16.900" y="41.750" width="2.000" height="2.000" rx="0.000" fill="#c79b5c"/><circle cx="-15.900" cy="42.750" r="0.525" fill="#12151c"/><rect x="-8.925" y="41.925" width="1.650" height="1.650" rx="0.825" fill="#c79b5c"/><circle cx="-8.100" cy="42.750" r="0.475" fill="#12151c"/><rect x="-6.900" y="41.750" width="2.000" height="2.000" rx="0.000" fill="#c79b5c"/><circle cx="-5.900" cy="42.750" r="0.525" fill="#12151c"/><rect x="3.100" y="41.750" width="2.000" height="2.000" rx="0.000" fill="#c79b5c"/><circle cx="4.100" cy="42.750" r="0.525" fill="#12151c"/></svg>