<svg xmlns="http://www.w3.org/2000/svg" viewBox="-6.58 -1.50 28.40 33.48" preserveAspectRatio="xMidYMid meet" style="width:100%;height:100%"><rect x="-6.58" y="-1.50" width="28.40" height="33.48" fill="#12151c"/><rect x="0.000" y="-0.000" width="15.240" height="30.480" fill="#1e222b" stroke="#4ea1ff" stroke-width="0.25"/><polyline points="5.334,5.080 0.000,5.080" fill="none" stroke="#4ea1ff" stroke-width="0.25" stroke-linejoin="round"/><polyline points="5.334,10.160 0.000,10.160" fill="none" stroke="#4ea1ff" stroke-width="0.25" stroke-linejoin="round"/><polyline points="5.334,15.240 0.000,15.240" fill="none" stroke="#4ea1ff" stroke-width="0.25" stroke-linejoin="round"/><polyline points="5.334,20.320 0.000,20.320" fill="none" stroke="#4ea1ff" stroke-width="0.25" stroke-linejoin="round"/><polyline points="6.350,1.905 8.890,1.905" fill="none" stroke="#4ea1ff" stroke-width="0.25" stroke-linejoin="round"/><polyline points="6.350,2.540 0.000,2.540" fill="none" stroke="#4ea1ff" stroke-width="0.25" stroke-linejoin="round"/><polyline points="6.350,5.715 6.350,1.905" fill="none" stroke="#4ea1ff" stroke-width="0.25" stroke-linejoin="round"/><polyline points="6.350,5.715 8.890,5.715" fill="none" stroke="#4ea1ff" stroke-width="0.25" stroke-linejoin="round"/><polyline points="6.350,6.985 8.890,6.985" fill="none" stroke="#4ea1ff" stroke-width="0.25" stroke-linejoin="round"/><polyline points="6.350,7.620 0.000,7.620" fill="none" stroke="#4ea1ff" stroke-width="0.25" stroke-linejoin="round"/><polyline points="6.350,10.795 6.350,6.985" fill="none" stroke="#4ea1ff" stroke-width="0.25" stroke-linejoin="round"/><polyline points="6.350,10.795 8.890,10.795" fill="none" stroke="#4ea1ff" stroke-width="0.25" stroke-linejoin="round"/><polyline points="6.350,12.065 8.890,12.065" fill="none" stroke="#4ea1ff" stroke-width="0.25" stroke-linejoin="round"/><polyline points="6.350,12.700 0.000,12.700" fill="none" stroke="#4ea1ff" stroke-width="0.25" stroke-linejoin="round"/><polyline points="6.350,15.875 6.350,12.065" fill="none" stroke="#4ea1ff" stroke-width="0.25" stroke-linejoin="round"/><polyline points="6.350,15.875 8.890,15.875" fill="none" stroke="#4ea1ff" stroke-width="0.25" stroke-linejoin="round"/><polyline points="6.350,17.145 8.890,17.145" fill="none" stroke="#4ea1ff" stroke-width="0.25" stroke-linejoin="round"/><polyline points="6.350,17.780 0.000,17.780" fill="none" stroke="#4ea1ff" stroke-width="0.25" stroke-linejoin="round"/><polyline points="6.350,20.955 6.350,17.145" fill="none" stroke="#4ea1ff" stroke-width="0.25" stroke-linejoin="round"/><polyline points="6.350,20.955 8.890,20.955" fill="none" stroke="#4ea1ff" stroke-width="0.25" stroke-linejoin="round"/><polyline points="10.922,3.810 15.240,3.810" fill="none" stroke="#4ea1ff" stroke-width="0.25" stroke-linejoin="round"/><polyline points="10.922,8.890 15.240,8.890" fill="none" stroke="#4ea1ff" stroke-width="0.25" stroke-linejoin="round"/><polyline points="10.922,13.970 15.240,13.970" fill="none" stroke="#4ea1ff" stroke-width="0.25" stroke-linejoin="round"/><polyline points="10.922,19.050 15.240,19.050" fill="none" stroke="#4ea1ff" stroke-width="0.25" stroke-linejoin="round"/><circle cx="5.842" cy="5.080" r="0.508" fill="none" stroke="#4ea1ff" stroke-width="0.25"/><circle cx="5.842" cy="10.160" r="0.508" fill="none" stroke="#4ea1ff" stroke-width="0.25"/><circle cx="5.842" cy="15.240" r="0.508" fill="none" stroke="#4ea1ff" stroke-width="0.25"/><circle cx="5.842" cy="20.320" r="0.508" fill="none" stroke="#4ea1ff" stroke-width="0.25"/><path d="M 8.890 5.715 C 9.942 5.715 10.795 4.862 10.795 3.810" fill="none" stroke="#4ea1ff" stroke-width="0.25"/><path d="M 8.890 10.795 C 9.942 10.795 10.795 9.942 10.795 8.890" fill="none" stroke="#4ea1ff" stroke-width="0.25"/><path d="M 8.890 15.875 C 9.942 15.875 10.795 15.022 10.795 13.970" fill="none" stroke="#4ea1ff" stroke-width="0.25"/><path d="M 8.890 20.955 C 9.942 20.955 10.795 20.102 10.795 19.050" fill="none" stroke="#4ea1ff" stroke-width="0.25"/><path d="M 10.795 3.810 C 10.795 2.758 9.942 1.905 8.890 1.905" fill="none" stroke="#4ea1ff" stroke-width="0.25"/><path d="M 10.795 8.890 C 10.795 7.838 9.942 6.985 8.890 6.985" fill="none" stroke="#4ea1ff" stroke-width="0.25"/><path d="M 10.795 13.970 C 10.795 12.918 9.942 12.065 8.890 12.065" fill="none" stroke="#4ea1ff" stroke-width="0.25"/><path d="M 10.795 19.050 C 10.795 17.998 9.942 17.145 8.890 17.145" fill="none" stroke="#4ea1ff" stroke-width="0.25"/><line x1="-5.080" y1="2.540" x2="0.000" y2="2.540" stroke="#e6e9ef" stroke-width="0.2"/><circle cx="-5.080" cy="2.540" r="0.4" fill="#4ea1ff"/><text x="0.500" y="2.890" fill="#e6e9ef" font-size="1.1" text-anchor="start" font-family="sans-serif">1A</text><text x="-0.300" y="2.190" fill="#9aa3b2" font-size="0.9" text-anchor="end" font-family="sans-serif">1</text><line x1="-5.080" y1="5.080" x2="0.000" y2="5.080" stroke="#e6e9ef" stroke-width="0.2"/><circle cx="-5.080" cy="5.080" r="0.4" fill="#4ea1ff"/><text x="0.500" y="5.430" fill="#e6e9ef" font-size="1.1" text-anchor="start" font-family="sans-serif">1B</text><text x="-0.300" y="4.730" fill="#9aa3b2" font-size="0.9" text-anchor="end" font-family="sans-serif">2</text><line x1="-5.080" y1="7.620" x2="0.000" y2="7.620" stroke="#e6e9ef" stroke-width="0.2"/><circle cx="-5.080" cy="7.620" r="0.4" fill="#4ea1ff"/><text x="0.500" y="7.970" fill="#e6e9ef" font-size="1.1" text-anchor="start" font-family="sans-serif">2A</text><text x="-0.300" y="7.270" fill="#9aa3b2" font-size="0.9" text-anchor="end" font-family="sans-serif">3</text><line x1="-5.080" y1="10.160" x2="0.000" y2="10.160" stroke="#e6e9ef" stroke-width="0.2"/><circle cx="-5.080" cy="10.160" r="0.4" fill="#4ea1ff"/><text x="0.500" y="10.510" fill="#e6e9ef" font-size="1.1" text-anchor="start" font-family="sans-serif">2B</text><text x="-0.300" y="9.810" fill="#9aa3b2" font-size="0.9" text-anchor="end" font-family="sans-serif">4</text><line x1="-5.080" y1="12.700" x2="0.000" y2="12.700" stroke="#e6e9ef" stroke-width="0.2"/><circle cx="-5.080" cy="12.700" r="0.4" fill="#4ea1ff"/><text x="0.500" y="13.050" fill="#e6e9ef" font-size="1.1" text-anchor="start" font-family="sans-serif">3A</text><text x="-0.300" y="12.350" fill="#9aa3b2" font-size="0.9" text-anchor="end" font-family="sans-serif">5</text><line x1="-5.080" y1="15.240" x2="0.000" y2="15.240" stroke="#e6e9ef" stroke-width="0.2"/><circle cx="-5.080" cy="15.240" r="0.4" fill="#4ea1ff"/><text x="0.500" y="15.590" fill="#e6e9ef" font-size="1.1" text-anchor="start" font-family="sans-serif">3B</text><text x="-0.300" y="14.890" fill="#9aa3b2" font-size="0.9" text-anchor="end" font-family="sans-serif">6</text><line x1="-5.080" y1="17.780" x2="0.000" y2="17.780" stroke="#e6e9ef" stroke-width="0.2"/><circle cx="-5.080" cy="17.780" r="0.4" fill="#4ea1ff"/><text x="0.500" y="18.130" fill="#e6e9ef" font-size="1.1" text-anchor="start" font-family="sans-serif">4A</text><text x="-0.300" y="17.430" fill="#9aa3b2" font-size="0.9" text-anchor="end" font-family="sans-serif">9</text><line x1="-5.080" y1="20.320" x2="0.000" y2="20.320" stroke="#e6e9ef" stroke-width="0.2"/><circle cx="-5.080" cy="20.320" r="0.4" fill="#4ea1ff"/><text x="0.500" y="20.670" fill="#e6e9ef" font-size="1.1" text-anchor="start" font-family="sans-serif">4B</text><text x="-0.300" y="19.970" fill="#9aa3b2" font-size="0.9" text-anchor="end" font-family="sans-serif">10</text><line x1="-5.080" y1="25.400" x2="0.000" y2="25.400" stroke="#e6e9ef" stroke-width="0.2"/><circle cx="-5.080" cy="25.400" r="0.4" fill="#4ea1ff"/><text x="0.500" y="25.750" fill="#e6e9ef" font-size="1.1" text-anchor="start" font-family="sans-serif">VDD</text><text x="-0.300" y="25.050" fill="#9aa3b2" font-size="0.9" text-anchor="end" font-family="sans-serif">16</text><line x1="-5.080" y1="27.940" x2="0.000" y2="27.940" stroke="#e6e9ef" stroke-width="0.2"/><circle cx="-5.080" cy="27.940" r="0.4" fill="#4ea1ff"/><text x="0.500" y="28.290" fill="#e6e9ef" font-size="1.1" text-anchor="start" font-family="sans-serif">VDD</text><text x="-0.300" y="27.590" fill="#9aa3b2" font-size="0.9" text-anchor="end" font-family="sans-serif">15</text><line x1="20.320" y1="3.810" x2="15.240" y2="3.810" stroke="#e6e9ef" stroke-width="0.2"/><circle cx="20.320" cy="3.810" r="0.4" fill="#4ea1ff"/><text x="14.740" y="4.160" fill="#e6e9ef" font-size="1.1" text-anchor="end" font-family="sans-serif">1Y</text><text x="15.540" y="3.460" fill="#9aa3b2" font-size="0.9" text-anchor="start" font-family="sans-serif">14</text><line x1="20.320" y1="8.890" x2="15.240" y2="8.890" stroke="#e6e9ef" stroke-width="0.2"/><circle cx="20.320" cy="8.890" r="0.4" fill="#4ea1ff"/><text x="14.740" y="9.240" fill="#e6e9ef" font-size="1.1" text-anchor="end" font-family="sans-serif">2Y</text><text x="15.540" y="8.540" fill="#9aa3b2" font-size="0.9" text-anchor="start" font-family="sans-serif">13</text><line x1="20.320" y1="13.970" x2="15.240" y2="13.970" stroke="#e6e9ef" stroke-width="0.2"/><circle cx="20.320" cy="13.970" r="0.4" fill="#4ea1ff"/><text x="14.740" y="14.320" fill="#e6e9ef" font-size="1.1" text-anchor="end" font-family="sans-serif">3Y</text><text x="15.540" y="13.620" fill="#9aa3b2" font-size="0.9" text-anchor="start" font-family="sans-serif">12</text><line x1="20.320" y1="19.050" x2="15.240" y2="19.050" stroke="#e6e9ef" stroke-width="0.2"/><circle cx="20.320" cy="19.050" r="0.4" fill="#4ea1ff"/><text x="14.740" y="19.400" fill="#e6e9ef" font-size="1.1" text-anchor="end" font-family="sans-serif">4Y</text><text x="15.540" y="18.700" fill="#9aa3b2" font-size="0.9" text-anchor="start" font-family="sans-serif">11</text><line x1="20.320" y1="25.400" x2="15.240" y2="25.400" stroke="#e6e9ef" stroke-width="0.2"/><circle cx="20.320" cy="25.400" r="0.4" fill="#4ea1ff"/><text x="14.740" y="25.750" fill="#e6e9ef" font-size="1.1" text-anchor="end" font-family="sans-serif">GND</text><text x="15.540" y="25.050" fill="#9aa3b2" font-size="0.9" text-anchor="start" font-family="sans-serif">7</text><line x1="20.320" y1="27.940" x2="15.240" y2="27.940" stroke="#e6e9ef" stroke-width="0.2"/><circle cx="20.320" cy="27.940" r="0.4" fill="#4ea1ff"/><text x="14.740" y="28.290" fill="#e6e9ef" font-size="1.1" text-anchor="end" font-family="sans-serif">GND</text><text x="15.540" y="27.590" fill="#9aa3b2" font-size="0.9" text-anchor="start" font-family="sans-serif">8</text></svg>