<svg xmlns="http://www.w3.org/2000/svg" viewBox="-9.35 -9.00 18.69 17.99" preserveAspectRatio="xMidYMid meet" style="width:100%;height:100%"><rect x="-9.35" y="-9.00" width="18.69" height="17.99" fill="#12151c"/><line x1="-7.226" y1="-7.226" x2="-6.485" y2="-7.226" stroke="#e6e9ef" stroke-width="0.150" stroke-linecap="round" opacity="1"/><line x1="-7.226" y1="-6.485" x2="-7.226" y2="-7.226" stroke="#e6e9ef" stroke-width="0.150" stroke-linecap="round" opacity="1"/><line x1="-7.226" y1="7.226" x2="-7.226" y2="6.485" stroke="#e6e9ef" stroke-width="0.150" stroke-linecap="round" opacity="1"/><line x1="-7.226" y1="7.226" x2="-6.485" y2="7.226" stroke="#e6e9ef" stroke-width="0.150" stroke-linecap="round" opacity="1"/><line x1="6.485" y1="-7.226" x2="7.226" y2="-7.226" stroke="#e6e9ef" stroke-width="0.150" stroke-linecap="round" opacity="1"/><line x1="6.485" y1="7.226" x2="7.226" y2="7.226" stroke="#e6e9ef" stroke-width="0.150" stroke-linecap="round" opacity="1"/><line x1="7.226" y1="-6.485" x2="7.226" y2="-7.226" stroke="#e6e9ef" stroke-width="0.150" stroke-linecap="round" opacity="1"/><line x1="7.226" y1="7.226" x2="7.226" y2="6.485" stroke="#e6e9ef" stroke-width="0.150" stroke-linecap="round" opacity="1"/><line x1="-7.099" y1="-7.099" x2="7.099" y2="-7.099" stroke="#6b7280" stroke-width="0.150" stroke-linecap="round" opacity="0.8"/><line x1="-7.099" y1="-5.829" x2="-5.829" y2="-7.099" stroke="#6b7280" stroke-width="0.150" stroke-linecap="round" opacity="0.8"/><line x1="-7.099" y1="7.099" x2="-7.099" y2="-7.099" stroke="#6b7280" stroke-width="0.150" stroke-linecap="round" opacity="0.8"/><line x1="-7.099" y1="7.099" x2="7.099" y2="7.099" stroke="#6b7280" stroke-width="0.150" stroke-linecap="round" opacity="0.8"/><line x1="7.099" y1="7.099" x2="7.099" y2="-7.099" stroke="#6b7280" stroke-width="0.150" stroke-linecap="round" opacity="0.8"/><circle cx="-7.400" cy="-7.400" r="0.150" fill="#e6e9ef" opacity="1"/><rect x="-8.347" y="-6.152" width="1.194" height="0.305" rx="0.000" fill="#c79b5c"/><rect x="-8.347" y="-5.652" width="1.194" height="0.305" rx="0.000" fill="#c79b5c"/><rect x="-8.347" y="-5.152" width="1.194" height="0.305" rx="0.000" fill="#c79b5c"/><rect x="-8.347" y="-4.652" width="1.194" height="0.305" rx="0.000" fill="#c79b5c"/><rect x="-8.347" y="-4.152" width="1.194" height="0.305" rx="0.000" fill="#c79b5c"/><rect x="-8.347" y="-3.652" width="1.194" height="0.305" rx="0.000" fill="#c79b5c"/><rect x="-8.347" y="-3.152" width="1.194" height="0.305" rx="0.000" fill="#c79b5c"/><rect x="-8.347" y="-2.652" width="1.194" height="0.305" rx="0.000" fill="#c79b5c"/><rect x="-8.347" y="-2.152" width="1.194" height="0.305" rx="0.000" fill="#c79b5c"/><rect x="-8.347" y="-1.652" width="1.194" height="0.305" rx="0.000" fill="#c79b5c"/><rect x="-8.347" y="-1.152" width="1.194" height="0.305" rx="0.000" fill="#c79b5c"/><rect x="-8.347" y="-0.652" width="1.194" height="0.305" rx="0.000" fill="#c79b5c"/><rect x="-8.347" y="-0.152" width="1.194" height="0.305" rx="0.000" fill="#c79b5c"/><rect x="-8.347" y="0.348" width="1.194" height="0.305" rx="0.000" fill="#c79b5c"/><rect x="-8.347" y="0.848" width="1.194" height="0.305" rx="0.000" fill="#c79b5c"/><rect x="-8.347" y="1.348" width="1.194" height="0.305" rx="0.000" fill="#c79b5c"/><rect x="-8.347" y="1.848" width="1.194" height="0.305" rx="0.000" fill="#c79b5c"/><rect x="-8.347" y="2.348" width="1.194" height="0.305" rx="0.000" fill="#c79b5c"/><rect x="-8.347" y="2.848" width="1.194" height="0.305" rx="0.000" fill="#c79b5c"/><rect x="-8.347" y="3.348" width="1.194" height="0.305" rx="0.000" fill="#c79b5c"/><rect x="-8.347" y="3.848" width="1.194" height="0.305" rx="0.000" fill="#c79b5c"/><rect x="-8.347" y="4.348" width="1.194" height="0.305" rx="0.000" fill="#c79b5c"/><rect x="-8.347" y="4.848" width="1.194" height="0.305" rx="0.000" fill="#c79b5c"/><rect x="-8.347" y="5.348" width="1.194" height="0.305" rx="0.000" fill="#c79b5c"/><rect x="-8.347" y="5.848" width="1.194" height="0.305" rx="0.000" fill="#c79b5c"/><rect x="-6.597" y="7.598" width="1.194" height="0.305" rx="0.000" fill="#c79b5c"/><rect x="-6.097" y="7.598" width="1.194" height="0.305" rx="0.000" fill="#c79b5c"/><rect x="-5.597" y="7.598" width="1.194" height="0.305" rx="0.000" fill="#c79b5c"/><rect x="-5.097" y="7.598" width="1.194" height="0.305" rx="0.000" fill="#c79b5c"/><rect x="-4.597" y="7.598" width="1.194" height="0.305" rx="0.000" fill="#c79b5c"/><rect x="-4.097" y="7.598" width="1.194" height="0.305" rx="0.000" fill="#c79b5c"/><rect x="-3.597" y="7.598" width="1.194" height="0.305" rx="0.000" fill="#c79b5c"/><rect x="-3.097" y="7.598" width="1.194" height="0.305" rx="0.000" fill="#c79b5c"/><rect x="-2.597" y="7.598" width="1.194" height="0.305" rx="0.000" fill="#c79b5c"/><rect x="-2.097" y="7.598" width="1.194" height="0.305" rx="0.000" fill="#c79b5c"/><rect x="-1.597" y="7.598" width="1.194" height="0.305" rx="0.000" fill="#c79b5c"/><rect x="-1.097" y="7.598" width="1.194" height="0.305" rx="0.000" fill="#c79b5c"/><rect x="-0.597" y="7.598" width="1.194" height="0.305" rx="0.000" fill="#c79b5c"/><rect x="-0.097" y="7.598" width="1.194" height="0.305" rx="0.000" fill="#c79b5c"/><rect x="0.403" y="7.598" width="1.194" height="0.305" rx="0.000" fill="#c79b5c"/><rect x="0.903" y="7.598" width="1.194" height="0.305" rx="0.000" fill="#c79b5c"/><rect x="1.403" y="7.598" width="1.194" height="0.305" rx="0.000" fill="#c79b5c"/><rect x="1.903" y="7.598" width="1.194" height="0.305" rx="0.000" fill="#c79b5c"/><rect x="2.403" y="7.598" width="1.194" height="0.305" rx="0.000" fill="#c79b5c"/><rect x="2.903" y="7.598" width="1.194" height="0.305" rx="0.000" fill="#c79b5c"/><rect x="3.403" y="7.598" width="1.194" height="0.305" rx="0.000" fill="#c79b5c"/><rect x="3.903" y="7.598" width="1.194" height="0.305" rx="0.000" fill="#c79b5c"/><rect x="4.403" y="7.598" width="1.194" height="0.305" rx="0.000" fill="#c79b5c"/><rect x="4.903" y="7.598" width="1.194" height="0.305" rx="0.000" fill="#c79b5c"/><rect x="5.403" y="7.598" width="1.194" height="0.305" rx="0.000" fill="#c79b5c"/><rect x="7.153" y="5.848" width="1.194" height="0.305" rx="0.000" fill="#c79b5c"/><rect x="7.153" y="5.348" width="1.194" height="0.305" rx="0.000" fill="#c79b5c"/><rect x="7.153" y="4.848" width="1.194" height="0.305" rx="0.000" fill="#c79b5c"/><rect x="7.153" y="4.348" width="1.194" height="0.305" rx="0.000" fill="#c79b5c"/><rect x="7.153" y="3.848" width="1.194" height="0.305" rx="0.000" fill="#c79b5c"/><rect x="7.153" y="3.348" width="1.194" height="0.305" rx="0.000" fill="#c79b5c"/><rect x="7.153" y="2.848" width="1.194" height="0.305" rx="0.000" fill="#c79b5c"/><rect x="7.153" y="2.348" width="1.194" height="0.305" rx="0.000" fill="#c79b5c"/><rect x="7.153" y="1.848" width="1.194" height="0.305" rx="0.000" fill="#c79b5c"/><rect x="7.153" y="1.348" width="1.194" height="0.305" rx="0.000" fill="#c79b5c"/><rect x="7.153" y="0.848" width="1.194" height="0.305" rx="0.000" fill="#c79b5c"/><rect x="7.153" y="0.348" width="1.194" height="0.305" rx="0.000" fill="#c79b5c"/><rect x="7.153" y="-0.152" width="1.194" height="0.305" rx="0.000" fill="#c79b5c"/><rect x="7.153" y="-0.652" width="1.194" height="0.305" rx="0.000" fill="#c79b5c"/><rect x="7.153" y="-1.152" width="1.194" height="0.305" rx="0.000" fill="#c79b5c"/><rect x="7.153" y="-1.652" width="1.194" height="0.305" rx="0.000" fill="#c79b5c"/><rect x="7.153" y="-2.152" width="1.194" height="0.305" rx="0.000" fill="#c79b5c"/><rect x="7.153" y="-2.652" width="1.194" height="0.305" rx="0.000" fill="#c79b5c"/><rect x="7.153" y="-3.152" width="1.194" height="0.305" rx="0.000" fill="#c79b5c"/><rect x="7.153" y="-3.652" width="1.194" height="0.305" rx="0.000" fill="#c79b5c"/><rect x="7.153" y="-4.152" width="1.194" height="0.305" rx="0.000" fill="#c79b5c"/><rect x="7.153" y="-4.652" width="1.194" height="0.305" rx="0.000" fill="#c79b5c"/><rect x="7.153" y="-5.152" width="1.194" height="0.305" rx="0.000" fill="#c79b5c"/><rect x="7.153" y="-5.652" width="1.194" height="0.305" rx="0.000" fill="#c79b5c"/><rect x="7.153" y="-6.152" width="1.194" height="0.305" rx="0.000" fill="#c79b5c"/><rect x="5.403" y="-7.902" width="1.194" height="0.305" rx="0.000" fill="#c79b5c"/><rect x="4.903" y="-7.902" width="1.194" height="0.305" rx="0.000" fill="#c79b5c"/><rect x="4.403" y="-7.902" width="1.194" height="0.305" rx="0.000" fill="#c79b5c"/><rect x="3.903" y="-7.902" width="1.194" height="0.305" rx="0.000" fill="#c79b5c"/><rect x="3.403" y="-7.902" width="1.194" height="0.305" rx="0.000" fill="#c79b5c"/><rect x="2.903" y="-7.902" width="1.194" height="0.305" rx="0.000" fill="#c79b5c"/><rect x="2.403" y="-7.902" width="1.194" height="0.305" rx="0.000" fill="#c79b5c"/><rect x="1.903" y="-7.902" width="1.194" height="0.305" rx="0.000" fill="#c79b5c"/><rect x="1.403" y="-7.902" width="1.194" height="0.305" rx="0.000" fill="#c79b5c"/><rect x="0.903" y="-7.902" width="1.194" height="0.305" rx="0.000" fill="#c79b5c"/><rect x="0.403" y="-7.902" width="1.194" height="0.305" rx="0.000" fill="#c79b5c"/><rect x="-0.097" y="-7.902" width="1.194" height="0.305" rx="0.000" fill="#c79b5c"/><rect x="-0.597" y="-7.902" width="1.194" height="0.305" rx="0.000" fill="#c79b5c"/><rect x="-1.097" y="-7.902" width="1.194" height="0.305" rx="0.000" fill="#c79b5c"/><rect x="-1.597" y="-7.902" width="1.194" height="0.305" rx="0.000" fill="#c79b5c"/><rect x="-2.097" y="-7.902" width="1.194" height="0.305" rx="0.000" fill="#c79b5c"/><rect x="-2.597" y="-7.902" width="1.194" height="0.305" rx="0.000" fill="#c79b5c"/><rect x="-3.097" y="-7.902" width="1.194" height="0.305" rx="0.000" fill="#c79b5c"/><rect x="-3.597" y="-7.902" width="1.194" height="0.305" rx="0.000" fill="#c79b5c"/><rect x="-4.097" y="-7.902" width="1.194" height="0.305" rx="0.000" fill="#c79b5c"/><rect x="-4.597" y="-7.902" width="1.194" height="0.305" rx="0.000" fill="#c79b5c"/><rect x="-5.097" y="-7.902" width="1.194" height="0.305" rx="0.000" fill="#c79b5c"/><rect x="-5.597" y="-7.902" width="1.194" height="0.305" rx="0.000" fill="#c79b5c"/><rect x="-6.097" y="-7.902" width="1.194" height="0.305" rx="0.000" fill="#c79b5c"/><rect x="-6.597" y="-7.902" width="1.194" height="0.305" rx="0.000" fill="#c79b5c"/><rect x="-2.000" y="-2.000" width="4.000" height="4.000" rx="0.000" fill="#c79b5c"/></svg>