<svg xmlns="http://www.w3.org/2000/svg" viewBox="-12.81 -1.90 25.60 11.00" preserveAspectRatio="xMidYMid meet" style="width:100%;height:100%"><rect x="-12.81" y="-1.90" width="25.60" height="11.00" fill="#12151c"/><circle cx="10.592" cy="-0.035" r="0.125" fill="none" stroke="#e6e9ef" stroke-width="0.12" opacity="1"/><circle cx="10.594" cy="-0.035" r="0.250" fill="none" stroke="#6b7280" stroke-width="0.12" opacity="0.8"/><circle cx="-10.506" cy="4.803" r="0.250" fill="none" stroke="#6b7280" stroke-width="0.1"/><circle cx="10.494" cy="4.803" r="0.250" fill="none" stroke="#6b7280" stroke-width="0.1"/><rect x="9.594" y="-0.897" width="0.300" height="1.800" rx="0.000" fill="#c79b5c"/><rect x="9.594" y="1.853" width="0.300" height="1.800" rx="0.000" fill="#c79b5c"/><rect x="9.094" y="-0.897" width="0.300" height="1.800" rx="0.000" fill="#c79b5c"/><rect x="9.094" y="1.853" width="0.300" height="1.800" rx="0.000" fill="#c79b5c"/><rect x="8.594" y="-0.897" width="0.300" height="1.800" rx="0.000" fill="#c79b5c"/><rect x="8.594" y="1.853" width="0.300" height="1.800" rx="0.000" fill="#c79b5c"/><rect x="8.094" y="-0.897" width="0.300" height="1.800" rx="0.000" fill="#c79b5c"/><rect x="8.094" y="1.853" width="0.300" height="1.800" rx="0.000" fill="#c79b5c"/><rect x="7.594" y="-0.897" width="0.300" height="1.800" rx="0.000" fill="#c79b5c"/><rect x="7.594" y="1.853" width="0.300" height="1.800" rx="0.000" fill="#c79b5c"/><rect x="7.094" y="-0.897" width="0.300" height="1.800" rx="0.000" fill="#c79b5c"/><rect x="7.094" y="1.853" width="0.300" height="1.800" rx="0.000" fill="#c79b5c"/><rect x="6.594" y="-0.897" width="0.300" height="1.800" rx="0.000" fill="#c79b5c"/><rect x="6.594" y="1.853" width="0.300" height="1.800" rx="0.000" fill="#c79b5c"/><rect x="6.094" y="-0.897" width="0.300" height="1.800" rx="0.000" fill="#c79b5c"/><rect x="6.094" y="1.853" width="0.300" height="1.800" rx="0.000" fill="#c79b5c"/><rect x="5.594" y="-0.897" width="0.300" height="1.800" rx="0.000" fill="#c79b5c"/><rect x="5.594" y="1.853" width="0.300" height="1.800" rx="0.000" fill="#c79b5c"/><rect x="5.094" y="-0.897" width="0.300" height="1.800" rx="0.000" fill="#c79b5c"/><rect x="5.094" y="1.853" width="0.300" height="1.800" rx="0.000" fill="#c79b5c"/><rect x="4.594" y="-0.897" width="0.300" height="1.800" rx="0.000" fill="#c79b5c"/><rect x="4.594" y="1.853" width="0.300" height="1.800" rx="0.000" fill="#c79b5c"/><rect x="4.094" y="-0.897" width="0.300" height="1.800" rx="0.000" fill="#c79b5c"/><rect x="4.094" y="1.853" width="0.300" height="1.800" rx="0.000" fill="#c79b5c"/><rect x="3.594" y="-0.897" width="0.300" height="1.800" rx="0.000" fill="#c79b5c"/><rect x="3.594" y="1.853" width="0.300" height="1.800" rx="0.000" fill="#c79b5c"/><rect x="3.094" y="-0.897" width="0.300" height="1.800" rx="0.000" fill="#c79b5c"/><rect x="3.094" y="1.853" width="0.300" height="1.800" rx="0.000" fill="#c79b5c"/><rect x="2.594" y="-0.897" width="0.300" height="1.800" rx="0.000" fill="#c79b5c"/><rect x="2.594" y="1.853" width="0.300" height="1.800" rx="0.000" fill="#c79b5c"/><rect x="2.094" y="-0.897" width="0.300" height="1.800" rx="0.000" fill="#c79b5c"/><rect x="2.094" y="1.853" width="0.300" height="1.800" rx="0.000" fill="#c79b5c"/><rect x="1.594" y="-0.897" width="0.300" height="1.800" rx="0.000" fill="#c79b5c"/><rect x="1.594" y="1.853" width="0.300" height="1.800" rx="0.000" fill="#c79b5c"/><rect x="1.094" y="-0.897" width="0.300" height="1.800" rx="0.000" fill="#c79b5c"/><rect x="1.094" y="1.853" width="0.300" height="1.800" rx="0.000" fill="#c79b5c"/><rect x="0.594" y="-0.897" width="0.300" height="1.800" rx="0.000" fill="#c79b5c"/><rect x="0.594" y="1.853" width="0.300" height="1.800" rx="0.000" fill="#c79b5c"/><rect x="0.094" y="-0.897" width="0.300" height="1.800" rx="0.000" fill="#c79b5c"/><rect x="0.094" y="1.853" width="0.300" height="1.800" rx="0.000" fill="#c79b5c"/><rect x="-0.406" y="-0.897" width="0.300" height="1.800" rx="0.000" fill="#c79b5c"/><rect x="-0.406" y="1.853" width="0.300" height="1.800" rx="0.000" fill="#c79b5c"/><rect x="-0.906" y="-0.897" width="0.300" height="1.800" rx="0.000" fill="#c79b5c"/><rect x="-0.906" y="1.853" width="0.300" height="1.800" rx="0.000" fill="#c79b5c"/><rect x="-1.406" y="-0.897" width="0.300" height="1.800" rx="0.000" fill="#c79b5c"/><rect x="-1.406" y="1.853" width="0.300" height="1.800" rx="0.000" fill="#c79b5c"/><rect x="-1.906" y="-0.897" width="0.300" height="1.800" rx="0.000" fill="#c79b5c"/><rect x="-1.906" y="1.853" width="0.300" height="1.800" rx="0.000" fill="#c79b5c"/><rect x="-2.406" y="-0.897" width="0.300" height="1.800" rx="0.000" fill="#c79b5c"/><rect x="-2.406" y="1.853" width="0.300" height="1.800" rx="0.000" fill="#c79b5c"/><rect x="-2.906" y="-0.897" width="0.300" height="1.800" rx="0.000" fill="#c79b5c"/><rect x="-2.906" y="1.853" width="0.300" height="1.800" rx="0.000" fill="#c79b5c"/><rect x="-3.406" y="-0.897" width="0.300" height="1.800" rx="0.000" fill="#c79b5c"/><rect x="-3.406" y="1.853" width="0.300" height="1.800" rx="0.000" fill="#c79b5c"/><rect x="-3.906" y="-0.897" width="0.300" height="1.800" rx="0.000" fill="#c79b5c"/><rect x="-3.906" y="1.853" width="0.300" height="1.800" rx="0.000" fill="#c79b5c"/><rect x="-4.406" y="-0.897" width="0.300" height="1.800" rx="0.000" fill="#c79b5c"/><rect x="-4.406" y="1.853" width="0.300" height="1.800" rx="0.000" fill="#c79b5c"/><rect x="-4.906" y="-0.897" width="0.300" height="1.800" rx="0.000" fill="#c79b5c"/><rect x="-4.906" y="1.853" width="0.300" height="1.800" rx="0.000" fill="#c79b5c"/><rect x="-5.406" y="-0.897" width="0.300" height="1.800" rx="0.000" fill="#c79b5c"/><rect x="-5.406" y="1.853" width="0.300" height="1.800" rx="0.000" fill="#c79b5c"/><rect x="-5.906" y="-0.897" width="0.300" height="1.800" rx="0.000" fill="#c79b5c"/><rect x="-5.906" y="1.853" width="0.300" height="1.800" rx="0.000" fill="#c79b5c"/><rect x="-6.406" y="-0.897" width="0.300" height="1.800" rx="0.000" fill="#c79b5c"/><rect x="-6.406" y="1.853" width="0.300" height="1.800" rx="0.000" fill="#c79b5c"/><rect x="-6.906" y="-0.897" width="0.300" height="1.800" rx="0.000" fill="#c79b5c"/><rect x="-6.906" y="1.853" width="0.300" height="1.800" rx="0.000" fill="#c79b5c"/><rect x="-7.406" y="-0.897" width="0.300" height="1.800" rx="0.000" fill="#c79b5c"/><rect x="-7.406" y="1.853" width="0.300" height="1.800" rx="0.000" fill="#c79b5c"/><rect x="-7.906" y="-0.897" width="0.300" height="1.800" rx="0.000" fill="#c79b5c"/><rect x="-7.906" y="1.853" width="0.300" height="1.800" rx="0.000" fill="#c79b5c"/><rect x="-8.406" y="-0.897" width="0.300" height="1.800" rx="0.000" fill="#c79b5c"/><rect x="-8.406" y="1.853" width="0.300" height="1.800" rx="0.000" fill="#c79b5c"/><rect x="-8.906" y="-0.897" width="0.300" height="1.800" rx="0.000" fill="#c79b5c"/><rect x="-8.906" y="1.853" width="0.300" height="1.800" rx="0.000" fill="#c79b5c"/><rect x="-9.406" y="-0.897" width="0.300" height="1.800" rx="0.000" fill="#c79b5c"/><rect x="-9.406" y="1.853" width="0.300" height="1.800" rx="0.000" fill="#c79b5c"/><rect x="-9.906" y="-0.897" width="0.300" height="1.800" rx="0.000" fill="#c79b5c"/><rect x="-9.906" y="1.853" width="0.300" height="1.800" rx="0.000" fill="#c79b5c"/><rect x="-11.806" y="6.403" width="1.700" height="1.700" rx="0.850" fill="#c79b5c"/><circle cx="-10.956" cy="7.253" r="0.500" fill="#12151c"/><rect x="10.094" y="6.403" width="1.700" height="1.700" rx="0.850" fill="#c79b5c"/><circle cx="10.944" cy="7.253" r="0.500" fill="#12151c"/></svg>