<svg xmlns="http://www.w3.org/2000/svg" viewBox="-4.17 -2.41 8.34 4.81" preserveAspectRatio="xMidYMid meet" style="width:100%;height:100%"><rect x="-4.17" y="-2.41" width="8.34" height="4.81" fill="#12151c"/><line x1="-2.921" y1="-1.156" x2="2.921" y2="-1.156" stroke="#e6e9ef" stroke-width="0.200" stroke-linecap="round" opacity="1"/><line x1="-2.921" y1="-0.808" x2="-2.921" y2="-1.156" stroke="#e6e9ef" stroke-width="0.200" stroke-linecap="round" opacity="1"/><line x1="-2.921" y1="1.156" x2="-2.921" y2="0.808" stroke="#e6e9ef" stroke-width="0.200" stroke-linecap="round" opacity="1"/><line x1="-2.921" y1="1.156" x2="2.921" y2="1.156" stroke="#e6e9ef" stroke-width="0.200" stroke-linecap="round" opacity="1"/><line x1="-2.666" y1="-1.206" x2="-2.567" y2="-1.206" stroke="#e6e9ef" stroke-width="0.200" stroke-linecap="round" opacity="1"/><line x1="-2.666" y1="-1.156" x2="-2.666" y2="-1.206" stroke="#e6e9ef" stroke-width="0.200" stroke-linecap="round" opacity="1"/><line x1="-2.567" y1="-1.156" x2="-2.567" y2="-1.206" stroke="#e6e9ef" stroke-width="0.200" stroke-linecap="round" opacity="1"/><line x1="2.566" y1="1.206" x2="2.566" y2="1.156" stroke="#e6e9ef" stroke-width="0.200" stroke-linecap="round" opacity="1"/><line x1="2.566" y1="1.206" x2="2.666" y2="1.206" stroke="#e6e9ef" stroke-width="0.200" stroke-linecap="round" opacity="1"/><line x1="2.666" y1="1.206" x2="2.666" y2="1.156" stroke="#e6e9ef" stroke-width="0.200" stroke-linecap="round" opacity="1"/><line x1="2.921" y1="-0.808" x2="2.921" y2="-1.156" stroke="#e6e9ef" stroke-width="0.200" stroke-linecap="round" opacity="1"/><line x1="2.921" y1="1.156" x2="2.921" y2="0.808" stroke="#e6e9ef" stroke-width="0.200" stroke-linecap="round" opacity="1"/><line x1="-3.116" y1="0.000" x2="-2.616" y2="0.000" stroke="#4a5160" stroke-width="0.100" stroke-linecap="round" opacity="0.7"/><line x1="-2.705" y1="-0.508" x2="-2.527" y2="-0.508" stroke="#4a5160" stroke-width="0.100" stroke-linecap="round" opacity="0.7"/><line x1="-2.705" y1="0.508" x2="-2.705" y2="-0.508" stroke="#4a5160" stroke-width="0.100" stroke-linecap="round" opacity="0.7"/><line x1="-2.705" y1="0.508" x2="-2.527" y2="0.508" stroke="#4a5160" stroke-width="0.100" stroke-linecap="round" opacity="0.7"/><line x1="-2.616" y1="0.000" x2="-2.616" y2="-0.500" stroke="#4a5160" stroke-width="0.100" stroke-linecap="round" opacity="0.7"/><line x1="-2.616" y1="0.000" x2="-2.116" y2="0.000" stroke="#4a5160" stroke-width="0.100" stroke-linecap="round" opacity="0.7"/><line x1="-2.616" y1="0.500" x2="-2.616" y2="0.000" stroke="#4a5160" stroke-width="0.100" stroke-linecap="round" opacity="0.7"/><line x1="-2.527" y1="0.508" x2="-2.527" y2="-0.508" stroke="#4a5160" stroke-width="0.100" stroke-linecap="round" opacity="0.7"/><line x1="-0.500" y1="0.000" x2="0.000" y2="0.000" stroke="#4a5160" stroke-width="0.100" stroke-linecap="round" opacity="0.7"/><line x1="0.000" y1="0.000" x2="0.000" y2="-0.500" stroke="#4a5160" stroke-width="0.100" stroke-linecap="round" opacity="0.7"/><line x1="0.000" y1="0.000" x2="0.500" y2="0.000" stroke="#4a5160" stroke-width="0.100" stroke-linecap="round" opacity="0.7"/><line x1="0.000" y1="0.500" x2="0.000" y2="0.000" stroke="#4a5160" stroke-width="0.100" stroke-linecap="round" opacity="0.7"/><line x1="2.116" y1="0.000" x2="2.616" y2="0.000" stroke="#4a5160" stroke-width="0.100" stroke-linecap="round" opacity="0.7"/><line x1="2.527" y1="-0.508" x2="2.705" y2="-0.508" stroke="#4a5160" stroke-width="0.100" stroke-linecap="round" opacity="0.7"/><line x1="2.527" y1="0.508" x2="2.527" y2="-0.508" stroke="#4a5160" stroke-width="0.100" stroke-linecap="round" opacity="0.7"/><line x1="2.527" y1="0.508" x2="2.705" y2="0.508" stroke="#4a5160" stroke-width="0.100" stroke-linecap="round" opacity="0.7"/><line x1="2.616" y1="0.000" x2="2.616" y2="-0.500" stroke="#4a5160" stroke-width="0.100" stroke-linecap="round" opacity="0.7"/><line x1="2.616" y1="0.000" x2="3.116" y2="0.000" stroke="#4a5160" stroke-width="0.100" stroke-linecap="round" opacity="0.7"/><line x1="2.616" y1="0.500" x2="2.616" y2="0.000" stroke="#4a5160" stroke-width="0.100" stroke-linecap="round" opacity="0.7"/><line x1="2.705" y1="0.508" x2="2.705" y2="-0.508" stroke="#4a5160" stroke-width="0.100" stroke-linecap="round" opacity="0.7"/><line x1="-3.171" y1="-1.406" x2="3.171" y2="-1.406" stroke="#d24d4d" stroke-width="0.080" stroke-linecap="round" opacity="0.7"/><line x1="-3.171" y1="1.406" x2="-3.171" y2="-1.406" stroke="#d24d4d" stroke-width="0.080" stroke-linecap="round" opacity="0.7"/><line x1="-3.171" y1="1.406" x2="3.171" y2="1.406" stroke="#d24d4d" stroke-width="0.080" stroke-linecap="round" opacity="0.7"/><line x1="3.171" y1="1.406" x2="3.171" y2="-1.406" stroke="#d24d4d" stroke-width="0.080" stroke-linecap="round" opacity="0.7"/><line x1="-2.921" y1="-1.156" x2="2.921" y2="-1.156" stroke="#6b7280" stroke-width="0.100" stroke-linecap="round" opacity="0.8"/><line x1="-2.921" y1="1.156" x2="-2.921" y2="-1.156" stroke="#6b7280" stroke-width="0.100" stroke-linecap="round" opacity="0.8"/><line x1="-2.921" y1="1.156" x2="2.921" y2="1.156" stroke="#6b7280" stroke-width="0.100" stroke-linecap="round" opacity="0.8"/><line x1="-2.666" y1="-1.206" x2="-2.567" y2="-1.206" stroke="#6b7280" stroke-width="0.100" stroke-linecap="round" opacity="0.8"/><line x1="-2.666" y1="-1.156" x2="-2.666" y2="-1.206" stroke="#6b7280" stroke-width="0.100" stroke-linecap="round" opacity="0.8"/><line x1="-2.567" y1="-1.156" x2="-2.567" y2="-1.206" stroke="#6b7280" stroke-width="0.100" stroke-linecap="round" opacity="0.8"/><line x1="2.566" y1="1.206" x2="2.566" y2="1.156" stroke="#6b7280" stroke-width="0.100" stroke-linecap="round" opacity="0.8"/><line x1="2.566" y1="1.206" x2="2.666" y2="1.206" stroke="#6b7280" stroke-width="0.100" stroke-linecap="round" opacity="0.8"/><line x1="2.666" y1="1.206" x2="2.666" y2="1.156" stroke="#6b7280" stroke-width="0.100" stroke-linecap="round" opacity="0.8"/><line x1="2.921" y1="1.156" x2="2.921" y2="-1.156" stroke="#6b7280" stroke-width="0.100" stroke-linecap="round" opacity="0.8"/><rect x="-2.794" y="-0.508" width="0.356" height="1.016" rx="0.000" fill="#c79b5c"/><rect x="2.438" y="-0.508" width="0.356" height="1.016" rx="0.000" fill="#c79b5c"/><polygon points="-3.07,1.56 -2.17,1.56 -2.62,0.96" fill="#ffffff"/></svg>