<svg xmlns="http://www.w3.org/2000/svg" viewBox="-11.14 -3.90 22.28 7.80" preserveAspectRatio="xMidYMid meet" style="width:100%;height:100%"><rect x="-11.14" y="-3.90" width="22.28" height="7.80" fill="#12151c"/><line x1="-7.487" y1="-0.530" x2="-4.750" y2="-0.530" stroke="#e6e9ef" stroke-width="0.200" stroke-linecap="round" opacity="1"/><line x1="-7.487" y1="0.530" x2="-4.750" y2="0.530" stroke="#e6e9ef" stroke-width="0.200" stroke-linecap="round" opacity="1"/><line x1="-4.750" y1="-2.650" x2="4.750" y2="-2.650" stroke="#e6e9ef" stroke-width="0.200" stroke-linecap="round" opacity="1"/><line x1="-4.750" y1="2.650" x2="-4.750" y2="-2.650" stroke="#e6e9ef" stroke-width="0.200" stroke-linecap="round" opacity="1"/><line x1="-4.750" y1="2.650" x2="4.750" y2="2.650" stroke="#e6e9ef" stroke-width="0.200" stroke-linecap="round" opacity="1"/><line x1="-3.750" y1="2.650" x2="-3.750" y2="-2.650" stroke="#e6e9ef" stroke-width="0.200" stroke-linecap="round" opacity="1"/><line x1="-3.550" y1="2.650" x2="-3.550" y2="-2.650" stroke="#e6e9ef" stroke-width="0.200" stroke-linecap="round" opacity="1"/><line x1="-3.350" y1="2.650" x2="-3.350" y2="-2.650" stroke="#e6e9ef" stroke-width="0.200" stroke-linecap="round" opacity="1"/><line x1="-3.150" y1="2.650" x2="-3.150" y2="-2.650" stroke="#e6e9ef" stroke-width="0.200" stroke-linecap="round" opacity="1"/><line x1="-2.950" y1="2.650" x2="-2.950" y2="-2.650" stroke="#e6e9ef" stroke-width="0.200" stroke-linecap="round" opacity="1"/><line x1="-2.750" y1="2.650" x2="-2.750" y2="-2.650" stroke="#e6e9ef" stroke-width="0.200" stroke-linecap="round" opacity="1"/><line x1="4.750" y1="-0.530" x2="7.487" y2="-0.530" stroke="#e6e9ef" stroke-width="0.200" stroke-linecap="round" opacity="1"/><line x1="4.750" y1="0.530" x2="7.487" y2="0.530" stroke="#e6e9ef" stroke-width="0.200" stroke-linecap="round" opacity="1"/><line x1="4.750" y1="2.650" x2="4.750" y2="-2.650" stroke="#e6e9ef" stroke-width="0.200" stroke-linecap="round" opacity="1"/><line x1="-9.390" y1="0.000" x2="-8.890" y2="0.000" stroke="#4a5160" stroke-width="0.100" stroke-linecap="round" opacity="0.7"/><line x1="-8.890" y1="0.000" x2="-8.890" y2="-0.500" stroke="#4a5160" stroke-width="0.100" stroke-linecap="round" opacity="0.7"/><line x1="-8.890" y1="0.000" x2="-8.390" y2="0.000" stroke="#4a5160" stroke-width="0.100" stroke-linecap="round" opacity="0.7"/><line x1="-8.890" y1="0.500" x2="-8.890" y2="0.000" stroke="#4a5160" stroke-width="0.100" stroke-linecap="round" opacity="0.7"/><line x1="-0.500" y1="0.000" x2="0.000" y2="0.000" stroke="#4a5160" stroke-width="0.100" stroke-linecap="round" opacity="0.7"/><line x1="0.000" y1="0.000" x2="0.000" y2="-0.500" stroke="#4a5160" stroke-width="0.100" stroke-linecap="round" opacity="0.7"/><line x1="0.000" y1="0.000" x2="0.500" y2="0.000" stroke="#4a5160" stroke-width="0.100" stroke-linecap="round" opacity="0.7"/><line x1="0.000" y1="0.500" x2="0.000" y2="0.000" stroke="#4a5160" stroke-width="0.100" stroke-linecap="round" opacity="0.7"/><line x1="8.390" y1="0.000" x2="8.890" y2="0.000" stroke="#4a5160" stroke-width="0.100" stroke-linecap="round" opacity="0.7"/><line x1="8.890" y1="0.000" x2="8.890" y2="-0.500" stroke="#4a5160" stroke-width="0.100" stroke-linecap="round" opacity="0.7"/><line x1="8.890" y1="0.000" x2="9.390" y2="0.000" stroke="#4a5160" stroke-width="0.100" stroke-linecap="round" opacity="0.7"/><line x1="8.890" y1="0.500" x2="8.890" y2="0.000" stroke="#4a5160" stroke-width="0.100" stroke-linecap="round" opacity="0.7"/><line x1="-8.890" y1="-0.530" x2="-4.750" y2="-0.530" stroke="#6b7280" stroke-width="0.100" stroke-linecap="round" opacity="0.8"/><line x1="-8.890" y1="0.530" x2="-4.750" y2="0.530" stroke="#6b7280" stroke-width="0.100" stroke-linecap="round" opacity="0.8"/><line x1="-4.750" y1="-2.650" x2="4.750" y2="-2.650" stroke="#6b7280" stroke-width="0.100" stroke-linecap="round" opacity="0.8"/><line x1="-4.750" y1="2.650" x2="-4.750" y2="-2.650" stroke="#6b7280" stroke-width="0.100" stroke-linecap="round" opacity="0.8"/><line x1="-4.750" y1="2.650" x2="4.750" y2="2.650" stroke="#6b7280" stroke-width="0.100" stroke-linecap="round" opacity="0.8"/><line x1="-3.750" y1="2.650" x2="-3.750" y2="-2.650" stroke="#6b7280" stroke-width="0.100" stroke-linecap="round" opacity="0.8"/><line x1="-3.550" y1="2.650" x2="-3.550" y2="-2.650" stroke="#6b7280" stroke-width="0.100" stroke-linecap="round" opacity="0.8"/><line x1="-3.350" y1="2.650" x2="-3.350" y2="-2.650" stroke="#6b7280" stroke-width="0.100" stroke-linecap="round" opacity="0.8"/><line x1="-3.150" y1="2.650" x2="-3.150" y2="-2.650" stroke="#6b7280" stroke-width="0.100" stroke-linecap="round" opacity="0.8"/><line x1="-2.950" y1="2.650" x2="-2.950" y2="-2.650" stroke="#6b7280" stroke-width="0.100" stroke-linecap="round" opacity="0.8"/><line x1="-2.750" y1="2.650" x2="-2.750" y2="-2.650" stroke="#6b7280" stroke-width="0.100" stroke-linecap="round" opacity="0.8"/><line x1="4.750" y1="-0.530" x2="8.890" y2="-0.530" stroke="#6b7280" stroke-width="0.100" stroke-linecap="round" opacity="0.8"/><line x1="4.750" y1="0.530" x2="8.890" y2="0.530" stroke="#6b7280" stroke-width="0.100" stroke-linecap="round" opacity="0.8"/><line x1="4.750" y1="2.650" x2="4.750" y2="-2.650" stroke="#6b7280" stroke-width="0.100" stroke-linecap="round" opacity="0.8"/><line x1="-10.140" y1="-2.900" x2="10.140" y2="-2.900" stroke="#d24d4d" stroke-width="0.080" stroke-linecap="round" opacity="0.7"/><line x1="10.140" y1="-2.900" x2="10.140" y2="2.900" stroke="#d24d4d" stroke-width="0.080" stroke-linecap="round" opacity="0.7"/><line x1="10.140" y1="2.900" x2="-10.140" y2="2.900" stroke="#d24d4d" stroke-width="0.080" stroke-linecap="round" opacity="0.7"/><line x1="-10.140" y1="2.900" x2="-10.140" y2="-2.900" stroke="#d24d4d" stroke-width="0.080" stroke-linecap="round" opacity="0.7"/><path d="M -8.890 0.530 A 0.530 0.530 0 0 1 -8.890 -0.530" fill="none" stroke="#6b7280" stroke-width="0.12" opacity="0.8"/><path d="M 8.890 -0.530 A 0.530 0.530 0 0 1 8.890 0.530" fill="none" stroke="#6b7280" stroke-width="0.12" opacity="0.8"/><rect x="-9.890" y="-1.000" width="2.000" height="2.000" rx="1.000" fill="#c79b5c"/><circle cx="-8.890" cy="0.000" r="0.650" fill="#12151c"/><rect x="7.890" y="-1.000" width="2.000" height="2.000" rx="1.000" fill="#c79b5c"/><circle cx="8.890" cy="0.000" r="0.650" fill="#12151c"/><polygon points="-9.34,2.05 -8.44,2.05 -8.89,1.45" fill="#ffffff"/></svg>