<svg xmlns="http://www.w3.org/2000/svg" viewBox="-11.35 -12.50 36.85 25.00" preserveAspectRatio="xMidYMid meet" style="width:100%;height:100%"><rect x="-11.35" y="-12.50" width="36.85" height="25.00" fill="#12151c"/><line x1="13.050" y1="-3.950" x2="24.250" y2="-3.950" stroke="#e6e9ef" stroke-width="0.200" stroke-linecap="round" opacity="1"/><line x1="13.050" y1="-3.250" x2="24.250" y2="-3.250" stroke="#e6e9ef" stroke-width="0.200" stroke-linecap="round" opacity="1"/><line x1="13.050" y1="3.250" x2="24.250" y2="3.250" stroke="#e6e9ef" stroke-width="0.200" stroke-linecap="round" opacity="1"/><line x1="13.050" y1="3.950" x2="24.250" y2="3.950" stroke="#e6e9ef" stroke-width="0.200" stroke-linecap="round" opacity="1"/><line x1="24.250" y1="3.950" x2="24.250" y2="-3.950" stroke="#e6e9ef" stroke-width="0.200" stroke-linecap="round" opacity="1"/><line x1="-8.000" y1="0.000" x2="-7.500" y2="0.000" stroke="#4a5160" stroke-width="0.100" stroke-linecap="round" opacity="0.7"/><line x1="-7.500" y1="0.000" x2="-7.500" y2="-0.500" stroke="#4a5160" stroke-width="0.100" stroke-linecap="round" opacity="0.7"/><line x1="-7.500" y1="0.000" x2="-7.000" y2="0.000" stroke="#4a5160" stroke-width="0.100" stroke-linecap="round" opacity="0.7"/><line x1="-7.500" y1="0.500" x2="-7.500" y2="0.000" stroke="#4a5160" stroke-width="0.100" stroke-linecap="round" opacity="0.7"/><line x1="-0.500" y1="0.000" x2="0.000" y2="0.000" stroke="#4a5160" stroke-width="0.100" stroke-linecap="round" opacity="0.7"/><line x1="0.000" y1="0.000" x2="0.000" y2="-0.500" stroke="#4a5160" stroke-width="0.100" stroke-linecap="round" opacity="0.7"/><line x1="0.000" y1="0.000" x2="0.500" y2="0.000" stroke="#4a5160" stroke-width="0.100" stroke-linecap="round" opacity="0.7"/><line x1="0.000" y1="0.500" x2="0.000" y2="0.000" stroke="#4a5160" stroke-width="0.100" stroke-linecap="round" opacity="0.7"/><line x1="7.000" y1="0.000" x2="7.500" y2="0.000" stroke="#4a5160" stroke-width="0.100" stroke-linecap="round" opacity="0.7"/><line x1="7.500" y1="0.000" x2="7.500" y2="-0.500" stroke="#4a5160" stroke-width="0.100" stroke-linecap="round" opacity="0.7"/><line x1="7.500" y1="0.000" x2="8.000" y2="0.000" stroke="#4a5160" stroke-width="0.100" stroke-linecap="round" opacity="0.7"/><line x1="7.500" y1="0.500" x2="7.500" y2="0.000" stroke="#4a5160" stroke-width="0.100" stroke-linecap="round" opacity="0.7"/><line x1="13.250" y1="0.000" x2="13.250" y2="-3.950" stroke="#4a5160" stroke-width="0.100" stroke-linecap="round" opacity="0.7"/><line x1="13.250" y1="3.950" x2="13.250" y2="0.000" stroke="#4a5160" stroke-width="0.100" stroke-linecap="round" opacity="0.7"/><line x1="-9.950" y1="-3.950" x2="24.250" y2="-3.950" stroke="#6b7280" stroke-width="0.100" stroke-linecap="round" opacity="0.8"/><line x1="-9.950" y1="3.950" x2="-9.950" y2="-3.950" stroke="#6b7280" stroke-width="0.100" stroke-linecap="round" opacity="0.8"/><line x1="-9.950" y1="3.950" x2="24.250" y2="3.950" stroke="#6b7280" stroke-width="0.100" stroke-linecap="round" opacity="0.8"/><line x1="4.500" y1="-3.464" x2="10.500" y2="-3.464" stroke="#6b7280" stroke-width="0.100" stroke-linecap="round" opacity="0.8"/><line x1="4.500" y1="3.464" x2="4.500" y2="-3.464" stroke="#6b7280" stroke-width="0.100" stroke-linecap="round" opacity="0.8"/><line x1="4.500" y1="3.464" x2="10.500" y2="3.464" stroke="#6b7280" stroke-width="0.100" stroke-linecap="round" opacity="0.8"/><line x1="10.500" y1="3.464" x2="10.500" y2="-3.464" stroke="#6b7280" stroke-width="0.100" stroke-linecap="round" opacity="0.8"/><line x1="11.750" y1="-3.250" x2="11.750" y2="-3.950" stroke="#6b7280" stroke-width="0.100" stroke-linecap="round" opacity="0.8"/><line x1="11.750" y1="-3.250" x2="24.250" y2="-3.250" stroke="#6b7280" stroke-width="0.100" stroke-linecap="round" opacity="0.8"/><line x1="11.750" y1="3.250" x2="24.250" y2="3.250" stroke="#6b7280" stroke-width="0.100" stroke-linecap="round" opacity="0.8"/><line x1="11.750" y1="3.950" x2="11.750" y2="3.250" stroke="#6b7280" stroke-width="0.100" stroke-linecap="round" opacity="0.8"/><line x1="24.250" y1="3.950" x2="24.250" y2="-3.950" stroke="#6b7280" stroke-width="0.100" stroke-linecap="round" opacity="0.8"/><line x1="-10.350" y1="-11.500" x2="24.500" y2="-11.500" stroke="#d24d4d" stroke-width="0.080" stroke-linecap="round" opacity="0.7"/><line x1="24.500" y1="-11.500" x2="24.500" y2="11.500" stroke="#d24d4d" stroke-width="0.080" stroke-linecap="round" opacity="0.7"/><line x1="24.500" y1="11.500" x2="-10.350" y2="11.500" stroke="#d24d4d" stroke-width="0.080" stroke-linecap="round" opacity="0.7"/><line x1="-10.350" y1="11.500" x2="-10.350" y2="-11.500" stroke="#d24d4d" stroke-width="0.080" stroke-linecap="round" opacity="0.7"/><circle cx="-7.500" cy="0.000" r="1.450" fill="none" stroke="#4a5160" stroke-width="0.12" opacity="0.7"/><circle cx="0.000" cy="0.000" r="1.450" fill="none" stroke="#4a5160" stroke-width="0.12" opacity="0.7"/><circle cx="7.500" cy="0.000" r="1.600" fill="none" stroke="#4a5160" stroke-width="0.12" opacity="0.7"/><rect x="-10.100" y="-2.600" width="5.200" height="5.200" rx="2.600" fill="#c79b5c"/><circle cx="-7.500" cy="0.000" r="1.450" fill="#12151c"/><rect x="-2.600" y="-2.600" width="5.200" height="5.200" rx="2.600" fill="#c79b5c"/><circle cx="0.000" cy="0.000" r="1.450" fill="#12151c"/><rect x="-9.950" y="-3.950" width="22.500" height="7.900" rx="0.000" fill="#c79b5c"/><rect x="5.550" y="-1.950" width="3.900" height="3.900" rx="1.950" fill="#c79b5c"/><circle cx="7.500" cy="0.000" r="1.600" fill="#12151c"/><polygon points="-7.95,3.65 -7.05,3.65 -7.50,3.05" fill="#ffffff"/></svg>