<svg xmlns="http://www.w3.org/2000/svg" viewBox="-9.89 -8.92 19.78 32.10" preserveAspectRatio="xMidYMid meet" style="width:100%;height:100%"><rect x="-9.89" y="-8.92" width="19.78" height="32.10" fill="#12151c"/><path d="M -8.739 20.219 A 0.550 0.550 0 0 1 -8.576 19.329" fill="none" stroke="#e6e9ef" stroke-width="0.12" opacity="1"/><path d="M -8.562 20.042 A 0.300 0.300 0 0 1 -8.474 19.557" fill="none" stroke="#e6e9ef" stroke-width="0.12" opacity="1"/><path d="M -8.400 16.080 A 0.550 0.550 0 0 1 -8.281 15.738" fill="none" stroke="#e6e9ef" stroke-width="0.12" opacity="1"/><path d="M -8.400 19.055 A 0.300 0.300 0 0 1 -8.576 19.329" fill="none" stroke="#e6e9ef" stroke-width="0.12" opacity="1"/><path d="M -8.150 16.080 A 0.300 0.300 0 0 1 -8.085 15.893" fill="none" stroke="#e6e9ef" stroke-width="0.12" opacity="1"/><path d="M -8.150 19.055 A 0.550 0.550 0 0 1 -8.474 19.557" fill="none" stroke="#e6e9ef" stroke-width="0.12" opacity="1"/><path d="M -8.000 15.280 A 0.300 0.300 0 0 1 -8.065 15.467" fill="none" stroke="#e6e9ef" stroke-width="0.12" opacity="1"/><path d="M -7.500 22.180 A 0.500 0.500 0 0 1 -8.000 21.680" fill="none" stroke="#e6e9ef" stroke-width="0.12" opacity="1"/><path d="M -6.380 15.030 A 0.250 0.250 0 1 1 -5.880 15.030" fill="none" stroke="#e6e9ef" stroke-width="0.12" opacity="1"/><path d="M -3.480 15.030 A 0.250 0.250 0 0 1 -2.980 15.030" fill="none" stroke="#e6e9ef" stroke-width="0.12" opacity="1"/><path d="M 2.980 15.030 A 0.250 0.250 0 0 1 3.480 15.030" fill="none" stroke="#e6e9ef" stroke-width="0.12" opacity="1"/><path d="M 5.880 15.030 A 0.250 0.250 0 1 1 6.380 15.030" fill="none" stroke="#e6e9ef" stroke-width="0.12" opacity="1"/><path d="M 8.000 21.680 A 0.500 0.500 0 0 1 7.500 22.180" fill="none" stroke="#e6e9ef" stroke-width="0.12" opacity="1"/><path d="M 8.065 15.467 A 0.300 0.300 0 0 1 8.000 15.280" fill="none" stroke="#e6e9ef" stroke-width="0.12" opacity="1"/><path d="M 8.085 15.893 A 0.300 0.300 0 0 1 8.150 16.080" fill="none" stroke="#e6e9ef" stroke-width="0.12" opacity="1"/><path d="M 8.281 15.738 A 0.550 0.550 0 0 1 8.400 16.080" fill="none" stroke="#e6e9ef" stroke-width="0.12" opacity="1"/><path d="M 8.474 19.557 A 0.550 0.550 0 0 1 8.150 19.055" fill="none" stroke="#e6e9ef" stroke-width="0.12" opacity="1"/><path d="M 8.474 19.557 A 0.300 0.300 0 0 1 8.562 20.042" fill="none" stroke="#e6e9ef" stroke-width="0.12" opacity="1"/><path d="M 8.576 19.329 A 0.300 0.300 0 0 1 8.400 19.055" fill="none" stroke="#e6e9ef" stroke-width="0.12" opacity="1"/><path d="M 8.576 19.329 A 0.550 0.550 0 0 1 8.739 20.219" fill="none" stroke="#e6e9ef" stroke-width="0.12" opacity="1"/><path d="M -8.739 20.219 A 0.550 0.550 0 0 1 -8.576 19.329" fill="none" stroke="#6b7280" stroke-width="0.12" opacity="0.8"/><path d="M -8.562 20.042 A 0.300 0.300 0 0 1 -8.474 19.557" fill="none" stroke="#6b7280" stroke-width="0.12" opacity="0.8"/><path d="M -8.400 16.080 A 0.550 0.550 0 0 1 -8.281 15.738" fill="none" stroke="#6b7280" stroke-width="0.12" opacity="0.8"/><path d="M -8.400 19.055 A 0.300 0.300 0 0 1 -8.576 19.329" fill="none" stroke="#6b7280" stroke-width="0.12" opacity="0.8"/><path d="M -8.150 16.080 A 0.300 0.300 0 0 1 -8.085 15.893" fill="none" stroke="#6b7280" stroke-width="0.12" opacity="0.8"/><path d="M -8.150 19.055 A 0.550 0.550 0 0 1 -8.474 19.557" fill="none" stroke="#6b7280" stroke-width="0.12" opacity="0.8"/><path d="M -8.000 15.280 A 0.300 0.300 0 0 1 -8.065 15.467" fill="none" stroke="#6b7280" stroke-width="0.12" opacity="0.8"/><path d="M -7.500 22.180 A 0.500 0.500 0 0 1 -8.000 21.680" fill="none" stroke="#6b7280" stroke-width="0.12" opacity="0.8"/><path d="M -6.380 15.030 A 0.250 0.250 0 1 1 -5.880 15.030" fill="none" stroke="#6b7280" stroke-width="0.12" opacity="0.8"/><path d="M -3.480 15.030 A 0.250 0.250 0 0 1 -2.980 15.030" fill="none" stroke="#6b7280" stroke-width="0.12" opacity="0.8"/><path d="M 2.980 15.030 A 0.250 0.250 0 0 1 3.480 15.030" fill="none" stroke="#6b7280" stroke-width="0.12" opacity="0.8"/><path d="M 5.880 15.030 A 0.250 0.250 0 1 1 6.380 15.030" fill="none" stroke="#6b7280" stroke-width="0.12" opacity="0.8"/><path d="M 8.000 21.680 A 0.500 0.500 0 0 1 7.500 22.180" fill="none" stroke="#6b7280" stroke-width="0.12" opacity="0.8"/><path d="M 8.065 15.467 A 0.300 0.300 0 0 1 8.000 15.280" fill="none" stroke="#6b7280" stroke-width="0.12" opacity="0.8"/><path d="M 8.085 15.893 A 0.300 0.300 0 0 1 8.150 16.080" fill="none" stroke="#6b7280" stroke-width="0.12" opacity="0.8"/><path d="M 8.281 15.738 A 0.550 0.550 0 0 1 8.400 16.080" fill="none" stroke="#6b7280" stroke-width="0.12" opacity="0.8"/><path d="M 8.474 19.557 A 0.550 0.550 0 0 1 8.150 19.055" fill="none" stroke="#6b7280" stroke-width="0.12" opacity="0.8"/><path d="M 8.474 19.557 A 0.300 0.300 0 0 1 8.562 20.042" fill="none" stroke="#6b7280" stroke-width="0.12" opacity="0.8"/><path d="M 8.576 19.329 A 0.300 0.300 0 0 1 8.400 19.055" fill="none" stroke="#6b7280" stroke-width="0.12" opacity="0.8"/><path d="M 8.576 19.329 A 0.550 0.550 0 0 1 8.739 20.219" fill="none" stroke="#6b7280" stroke-width="0.12" opacity="0.8"/><rect x="-4.360" y="1.270" width="1.600" height="1.600" rx="0.800" fill="#c79b5c"/><circle cx="-3.560" cy="2.070" r="0.450" fill="#12151c"/><rect x="2.750" y="-7.920" width="1.600" height="1.600" rx="0.800" fill="#c79b5c"/><circle cx="3.550" cy="-7.120" r="0.450" fill="#12151c"/><rect x="-3.340" y="-1.270" width="1.600" height="1.600" rx="0.800" fill="#c79b5c"/><circle cx="-2.540" cy="-0.470" r="0.450" fill="#12151c"/><rect x="1.730" y="-5.380" width="1.600" height="1.600" rx="0.800" fill="#c79b5c"/><circle cx="2.530" cy="-4.580" r="0.450" fill="#12151c"/><rect x="-2.330" y="1.270" width="1.600" height="1.600" rx="0.800" fill="#c79b5c"/><circle cx="-1.530" cy="2.070" r="0.450" fill="#12151c"/><rect x="0.720" y="-7.920" width="1.600" height="1.600" rx="0.800" fill="#c79b5c"/><circle cx="1.520" cy="-7.120" r="0.450" fill="#12151c"/><rect x="-1.310" y="-1.270" width="1.600" height="1.600" rx="0.800" fill="#c79b5c"/><circle cx="-0.510" cy="-0.470" r="0.450" fill="#12151c"/><rect x="-0.300" y="-5.380" width="1.600" height="1.600" rx="0.800" fill="#c79b5c"/><circle cx="0.500" cy="-4.580" r="0.450" fill="#12151c"/><rect x="-0.300" y="1.270" width="1.600" height="1.600" rx="0.800" fill="#c79b5c"/><circle cx="0.500" cy="2.070" r="0.450" fill="#12151c"/><rect x="-1.310" y="-7.920" width="1.600" height="1.600" rx="0.800" fill="#c79b5c"/><circle cx="-0.510" cy="-7.120" r="0.450" fill="#12151c"/><rect x="0.720" y="-1.270" width="1.600" height="1.600" rx="0.800" fill="#c79b5c"/><circle cx="1.520" cy="-0.470" r="0.450" fill="#12151c"/><rect x="-2.330" y="-5.380" width="1.600" height="1.600" rx="0.800" fill="#c79b5c"/><circle cx="-1.530" cy="-4.580" r="0.450" fill="#12151c"/><rect x="1.730" y="1.270" width="1.600" height="1.600" rx="0.800" fill="#c79b5c"/><circle cx="2.530" cy="2.070" r="0.450" fill="#12151c"/><rect x="-3.340" y="-7.920" width="1.600" height="1.600" rx="0.800" fill="#c79b5c"/><circle cx="-2.540" cy="-7.120" r="0.450" fill="#12151c"/><rect x="2.750" y="-1.270" width="1.600" height="1.600" rx="0.800" fill="#c79b5c"/><circle cx="3.550" cy="-0.470" r="0.450" fill="#12151c"/><rect x="-4.360" y="-5.380" width="1.600" height="1.600" rx="0.800" fill="#c79b5c"/><circle cx="-3.560" cy="-4.580" r="0.450" fill="#12151c"/><rect x="-7.090" y="6.320" width="1.600" height="1.600" rx="0.800" fill="#c79b5c"/><circle cx="-6.290" cy="7.120" r="0.450" fill="#12151c"/><rect x="-7.090" y="3.780" width="1.600" height="1.600" rx="0.800" fill="#c79b5c"/><circle cx="-6.290" cy="4.580" r="0.450" fill="#12151c"/><rect x="-4.550" y="6.320" width="1.600" height="1.600" rx="0.800" fill="#c79b5c"/><circle cx="-3.750" cy="7.120" r="0.450" fill="#12151c"/><rect x="-4.550" y="3.780" width="1.600" height="1.600" rx="0.800" fill="#c79b5c"/><circle cx="-3.750" cy="4.580" r="0.450" fill="#12151c"/><rect x="2.950" y="6.320" width="1.600" height="1.600" rx="0.800" fill="#c79b5c"/><circle cx="3.750" cy="7.120" r="0.450" fill="#12151c"/><rect x="2.950" y="3.780" width="1.600" height="1.600" rx="0.800" fill="#c79b5c"/><circle cx="3.750" cy="4.580" r="0.450" fill="#12151c"/><rect x="5.490" y="6.320" width="1.600" height="1.600" rx="0.800" fill="#c79b5c"/><circle cx="6.290" cy="7.120" r="0.450" fill="#12151c"/><rect x="5.490" y="3.780" width="1.600" height="1.600" rx="0.800" fill="#c79b5c"/><circle cx="6.290" cy="4.580" r="0.450" fill="#12151c"/><rect x="-8.675" y="-2.590" width="1.600" height="1.600" rx="0.800" fill="#c79b5c"/><circle cx="-7.875" cy="-1.790" r="0.450" fill="#12151c"/><rect x="-8.675" y="1.220" width="1.600" height="1.600" rx="0.800" fill="#c79b5c"/><circle cx="-7.875" cy="2.020" r="0.450" fill="#12151c"/><rect x="-1.400" y="6.630" width="2.800" height="1.000" rx="0.000" fill="#c79b5c"/><rect x="7.075" y="-2.590" width="1.600" height="1.600" rx="0.800" fill="#c79b5c"/><circle cx="7.875" cy="-1.790" r="0.450" fill="#12151c"/><rect x="7.075" y="1.220" width="1.600" height="1.600" rx="0.800" fill="#c79b5c"/><circle cx="7.875" cy="2.020" r="0.450" fill="#12151c"/></svg>