<svg xmlns="http://www.w3.org/2000/svg" viewBox="-1.50 -5.50 44.56 50.18" preserveAspectRatio="xMidYMid meet" style="width:100%;height:100%"><rect x="-1.50" y="-5.50" width="44.56" height="50.18" fill="#12151c"/><g transform="translate(5.08 0)"><polyline points="0.000,-0.000 0.000,43.180" fill="none" stroke="#4ea1ff" stroke-width="0.25" stroke-linejoin="round"/><polyline points="0.000,-0.000 12.700,-0.000 12.700,43.180 0.000,43.180" fill="none" stroke="#4ea1ff" stroke-width="0.25" stroke-linejoin="round"/><polyline points="0.000,30.480 5.080,30.480" fill="none" stroke="#4ea1ff" stroke-width="0.25" stroke-linejoin="round"/><polyline points="0.000,33.020 5.080,33.020" fill="none" stroke="#4ea1ff" stroke-width="0.25" stroke-linejoin="round"/><polyline points="0.000,35.560 5.080,35.560" fill="none" stroke="#4ea1ff" stroke-width="0.25" stroke-linejoin="round"/><polyline points="0.000,38.100 5.080,38.100" fill="none" stroke="#4ea1ff" stroke-width="0.25" stroke-linejoin="round"/><polyline points="1.270,3.810 1.270,24.130" fill="none" stroke="#4ea1ff" stroke-width="0.25" stroke-linejoin="round"/><polyline points="1.270,3.810 2.540,3.810 2.540,2.540 3.810,2.540 3.810,1.270 8.890,1.270" fill="none" stroke="#4ea1ff" stroke-width="0.25" stroke-linejoin="round"/><polyline points="1.270,24.130 2.540,24.130 2.540,25.400 3.810,25.400 3.810,26.670 8.890,26.670 8.890,1.270" fill="none" stroke="#4ea1ff" stroke-width="0.25" stroke-linejoin="round"/><polyline points="1.778,32.004 3.302,30.480 1.778,28.956 1.778,32.004" fill="#1e222b" stroke="#4ea1ff" stroke-width="0.25" stroke-linejoin="round"/><polyline points="1.778,37.084 3.302,35.560 1.778,34.036 1.778,37.084" fill="#1e222b" stroke="#4ea1ff" stroke-width="0.25" stroke-linejoin="round"/><polyline points="3.302,28.956 3.302,32.004" fill="none" stroke="#4ea1ff" stroke-width="0.25" stroke-linejoin="round"/><polyline points="3.302,34.036 3.302,37.084" fill="none" stroke="#4ea1ff" stroke-width="0.25" stroke-linejoin="round"/><polyline points="3.810,29.718 5.080,28.448" fill="none" stroke="#4ea1ff" stroke-width="0.25" stroke-linejoin="round"/><polyline points="3.810,34.798 5.080,33.528" fill="none" stroke="#4ea1ff" stroke-width="0.25" stroke-linejoin="round"/><polyline points="5.080,28.448 4.318,28.702 4.826,29.210 5.080,28.448" fill="#1e222b" stroke="#4ea1ff" stroke-width="0.25" stroke-linejoin="round"/><polyline points="5.080,29.972 6.350,28.702" fill="none" stroke="#4ea1ff" stroke-width="0.25" stroke-linejoin="round"/><polyline points="5.080,33.020 5.080,30.480" fill="none" stroke="#4ea1ff" stroke-width="0.25" stroke-linejoin="round"/><polyline points="5.080,33.528 4.318,33.782 4.826,34.290 5.080,33.528" fill="#1e222b" stroke="#4ea1ff" stroke-width="0.25" stroke-linejoin="round"/><polyline points="5.080,35.052 6.350,33.782" fill="none" stroke="#4ea1ff" stroke-width="0.25" stroke-linejoin="round"/><polyline points="5.080,38.100 5.080,35.560" fill="none" stroke="#4ea1ff" stroke-width="0.25" stroke-linejoin="round"/><polyline points="6.350,28.702 5.588,28.956 6.096,29.464 6.350,28.702" fill="#1e222b" stroke="#4ea1ff" stroke-width="0.25" stroke-linejoin="round"/><polyline points="6.350,33.782 5.588,34.036 6.096,34.544 6.350,33.782" fill="#1e222b" stroke="#4ea1ff" stroke-width="0.25" stroke-linejoin="round"/><circle cx="0.000" cy="40.640" r="0.508" fill="none" stroke="#4ea1ff" stroke-width="0.25"/><line x1="-5.080" y1="40.640" x2="0.000" y2="40.640" stroke="#e6e9ef" stroke-width="0.2"/><circle cx="-5.080" cy="40.640" r="0.4" fill="#4ea1ff"/><text x="-0.300" y="40.290" fill="#9aa3b2" font-size="0.9" text-anchor="end" font-family="sans-serif">SHIELD</text><line x1="-5.080" y1="5.080" x2="0.000" y2="5.080" stroke="#e6e9ef" stroke-width="0.2"/><circle cx="-5.080" cy="5.080" r="0.4" fill="#4ea1ff"/><text x="0.500" y="5.430" fill="#e6e9ef" font-size="1.1" text-anchor="start" font-family="sans-serif">1</text><text x="-0.300" y="4.730" fill="#9aa3b2" font-size="0.9" text-anchor="end" font-family="sans-serif">1L</text><line x1="-5.080" y1="7.620" x2="0.000" y2="7.620" stroke="#e6e9ef" stroke-width="0.2"/><circle cx="-5.080" cy="7.620" r="0.4" fill="#4ea1ff"/><text x="0.500" y="7.970" fill="#e6e9ef" font-size="1.1" text-anchor="start" font-family="sans-serif">2</text><text x="-0.300" y="7.270" fill="#9aa3b2" font-size="0.9" text-anchor="end" font-family="sans-serif">2L</text><line x1="-5.080" y1="10.160" x2="0.000" y2="10.160" stroke="#e6e9ef" stroke-width="0.2"/><circle cx="-5.080" cy="10.160" r="0.4" fill="#4ea1ff"/><text x="0.500" y="10.510" fill="#e6e9ef" font-size="1.1" text-anchor="start" font-family="sans-serif">3</text><text x="-0.300" y="9.810" fill="#9aa3b2" font-size="0.9" text-anchor="end" font-family="sans-serif">3L</text><line x1="-5.080" y1="12.700" x2="0.000" y2="12.700" stroke="#e6e9ef" stroke-width="0.2"/><circle cx="-5.080" cy="12.700" r="0.4" fill="#4ea1ff"/><text x="0.500" y="13.050" fill="#e6e9ef" font-size="1.1" text-anchor="start" font-family="sans-serif">4</text><text x="-0.300" y="12.350" fill="#9aa3b2" font-size="0.9" text-anchor="end" font-family="sans-serif">4L</text><line x1="-5.080" y1="15.240" x2="0.000" y2="15.240" stroke="#e6e9ef" stroke-width="0.2"/><circle cx="-5.080" cy="15.240" r="0.4" fill="#4ea1ff"/><text x="0.500" y="15.590" fill="#e6e9ef" font-size="1.1" text-anchor="start" font-family="sans-serif">5</text><text x="-0.300" y="14.890" fill="#9aa3b2" font-size="0.9" text-anchor="end" font-family="sans-serif">5L</text><line x1="-5.080" y1="17.780" x2="0.000" y2="17.780" stroke="#e6e9ef" stroke-width="0.2"/><circle cx="-5.080" cy="17.780" r="0.4" fill="#4ea1ff"/><text x="0.500" y="18.130" fill="#e6e9ef" font-size="1.1" text-anchor="start" font-family="sans-serif">6</text><text x="-0.300" y="17.430" fill="#9aa3b2" font-size="0.9" text-anchor="end" font-family="sans-serif">6L</text><line x1="-5.080" y1="20.320" x2="0.000" y2="20.320" stroke="#e6e9ef" stroke-width="0.2"/><circle cx="-5.080" cy="20.320" r="0.4" fill="#4ea1ff"/><text x="0.500" y="20.670" fill="#e6e9ef" font-size="1.1" text-anchor="start" font-family="sans-serif">7</text><text x="-0.300" y="19.970" fill="#9aa3b2" font-size="0.9" text-anchor="end" font-family="sans-serif">7L</text><line x1="-5.080" y1="22.860" x2="0.000" y2="22.860" stroke="#e6e9ef" stroke-width="0.2"/><circle cx="-5.080" cy="22.860" r="0.4" fill="#4ea1ff"/><text x="0.500" y="23.210" fill="#e6e9ef" font-size="1.1" text-anchor="start" font-family="sans-serif">8</text><text x="-0.300" y="22.510" fill="#9aa3b2" font-size="0.9" text-anchor="end" font-family="sans-serif">8L</text><line x1="-5.080" y1="30.480" x2="0.000" y2="30.480" stroke="#e6e9ef" stroke-width="0.2"/><circle cx="-5.080" cy="30.480" r="0.4" fill="#4ea1ff"/><text x="0.500" y="30.830" fill="#e6e9ef" font-size="1.1" text-anchor="start" font-family="sans-serif">9</text><text x="-0.300" y="30.130" fill="#9aa3b2" font-size="0.9" text-anchor="end" font-family="sans-serif">9L</text><line x1="-5.080" y1="33.020" x2="0.000" y2="33.020" stroke="#e6e9ef" stroke-width="0.2"/><circle cx="-5.080" cy="33.020" r="0.4" fill="#4ea1ff"/><text x="-0.300" y="32.670" fill="#9aa3b2" font-size="0.9" text-anchor="end" font-family="sans-serif">10L</text><line x1="-5.080" y1="35.560" x2="0.000" y2="35.560" stroke="#e6e9ef" stroke-width="0.2"/><circle cx="-5.080" cy="35.560" r="0.4" fill="#4ea1ff"/><text x="-0.300" y="35.210" fill="#9aa3b2" font-size="0.9" text-anchor="end" font-family="sans-serif">11L</text><line x1="-5.080" y1="38.100" x2="0.000" y2="38.100" stroke="#e6e9ef" stroke-width="0.2"/><circle cx="-5.080" cy="38.100" r="0.4" fill="#4ea1ff"/><text x="-0.300" y="37.750" fill="#9aa3b2" font-size="0.9" text-anchor="end" font-family="sans-serif">12L</text><text x="3.81" y="-2.00" fill="#9aa3b2" font-size="1.6" text-anchor="middle" font-family="sans-serif">A</text></g><g transform="translate(28.86 0)"><polyline points="0.000,-0.000 0.000,43.180" fill="none" stroke="#4ea1ff" stroke-width="0.25" stroke-linejoin="round"/><polyline points="0.000,-0.000 12.700,-0.000 12.700,43.180 0.000,43.180" fill="none" stroke="#4ea1ff" stroke-width="0.25" stroke-linejoin="round"/><polyline points="0.000,30.480 5.080,30.480" fill="none" stroke="#4ea1ff" stroke-width="0.25" stroke-linejoin="round"/><polyline points="0.000,33.020 5.080,33.020" fill="none" stroke="#4ea1ff" stroke-width="0.25" stroke-linejoin="round"/><polyline points="0.000,35.560 5.080,35.560" fill="none" stroke="#4ea1ff" stroke-width="0.25" stroke-linejoin="round"/><polyline points="0.000,38.100 5.080,38.100" fill="none" stroke="#4ea1ff" stroke-width="0.25" stroke-linejoin="round"/><polyline points="1.270,3.810 1.270,24.130" fill="none" stroke="#4ea1ff" stroke-width="0.25" stroke-linejoin="round"/><polyline points="1.270,3.810 2.540,3.810 2.540,2.540 3.810,2.540 3.810,1.270 8.890,1.270" fill="none" stroke="#4ea1ff" stroke-width="0.25" stroke-linejoin="round"/><polyline points="1.270,24.130 2.540,24.130 2.540,25.400 3.810,25.400 3.810,26.670 8.890,26.670 8.890,1.270" fill="none" stroke="#4ea1ff" stroke-width="0.25" stroke-linejoin="round"/><polyline points="1.778,32.004 3.302,30.480 1.778,28.956 1.778,32.004" fill="#1e222b" stroke="#4ea1ff" stroke-width="0.25" stroke-linejoin="round"/><polyline points="1.778,37.084 3.302,35.560 1.778,34.036 1.778,37.084" fill="#1e222b" stroke="#4ea1ff" stroke-width="0.25" stroke-linejoin="round"/><polyline points="3.302,28.956 3.302,32.004" fill="none" stroke="#4ea1ff" stroke-width="0.25" stroke-linejoin="round"/><polyline points="3.302,34.036 3.302,37.084" fill="none" stroke="#4ea1ff" stroke-width="0.25" stroke-linejoin="round"/><polyline points="3.810,29.718 5.080,28.448" fill="none" stroke="#4ea1ff" stroke-width="0.25" stroke-linejoin="round"/><polyline points="3.810,34.798 5.080,33.528" fill="none" stroke="#4ea1ff" stroke-width="0.25" stroke-linejoin="round"/><polyline points="5.080,28.448 4.318,28.702 4.826,29.210 5.080,28.448" fill="#1e222b" stroke="#4ea1ff" stroke-width="0.25" stroke-linejoin="round"/><polyline points="5.080,29.972 6.350,28.702" fill="none" stroke="#4ea1ff" stroke-width="0.25" stroke-linejoin="round"/><polyline points="5.080,33.020 5.080,30.480" fill="none" stroke="#4ea1ff" stroke-width="0.25" stroke-linejoin="round"/><polyline points="5.080,33.528 4.318,33.782 4.826,34.290 5.080,33.528" fill="#1e222b" stroke="#4ea1ff" stroke-width="0.25" stroke-linejoin="round"/><polyline points="5.080,35.052 6.350,33.782" fill="none" stroke="#4ea1ff" stroke-width="0.25" stroke-linejoin="round"/><polyline points="5.080,38.100 5.080,35.560" fill="none" stroke="#4ea1ff" stroke-width="0.25" stroke-linejoin="round"/><polyline points="6.350,28.702 5.588,28.956 6.096,29.464 6.350,28.702" fill="#1e222b" stroke="#4ea1ff" stroke-width="0.25" stroke-linejoin="round"/><polyline points="6.350,33.782 5.588,34.036 6.096,34.544 6.350,33.782" fill="#1e222b" stroke="#4ea1ff" stroke-width="0.25" stroke-linejoin="round"/><circle cx="0.000" cy="40.640" r="0.508" fill="none" stroke="#4ea1ff" stroke-width="0.25"/><line x1="-5.080" y1="5.080" x2="0.000" y2="5.080" stroke="#e6e9ef" stroke-width="0.2"/><circle cx="-5.080" cy="5.080" r="0.4" fill="#4ea1ff"/><text x="0.500" y="5.430" fill="#e6e9ef" font-size="1.1" text-anchor="start" font-family="sans-serif">1</text><text x="-0.300" y="4.730" fill="#9aa3b2" font-size="0.9" text-anchor="end" font-family="sans-serif">1U</text><line x1="-5.080" y1="7.620" x2="0.000" y2="7.620" stroke="#e6e9ef" stroke-width="0.2"/><circle cx="-5.080" cy="7.620" r="0.4" fill="#4ea1ff"/><text x="0.500" y="7.970" fill="#e6e9ef" font-size="1.1" text-anchor="start" font-family="sans-serif">2</text><text x="-0.300" y="7.270" fill="#9aa3b2" font-size="0.9" text-anchor="end" font-family="sans-serif">2U</text><line x1="-5.080" y1="10.160" x2="0.000" y2="10.160" stroke="#e6e9ef" stroke-width="0.2"/><circle cx="-5.080" cy="10.160" r="0.4" fill="#4ea1ff"/><text x="0.500" y="10.510" fill="#e6e9ef" font-size="1.1" text-anchor="start" font-family="sans-serif">3</text><text x="-0.300" y="9.810" fill="#9aa3b2" font-size="0.9" text-anchor="end" font-family="sans-serif">3U</text><line x1="-5.080" y1="12.700" x2="0.000" y2="12.700" stroke="#e6e9ef" stroke-width="0.2"/><circle cx="-5.080" cy="12.700" r="0.4" fill="#4ea1ff"/><text x="0.500" y="13.050" fill="#e6e9ef" font-size="1.1" text-anchor="start" font-family="sans-serif">4</text><text x="-0.300" y="12.350" fill="#9aa3b2" font-size="0.9" text-anchor="end" font-family="sans-serif">4U</text><line x1="-5.080" y1="15.240" x2="0.000" y2="15.240" stroke="#e6e9ef" stroke-width="0.2"/><circle cx="-5.080" cy="15.240" r="0.4" fill="#4ea1ff"/><text x="0.500" y="15.590" fill="#e6e9ef" font-size="1.1" text-anchor="start" font-family="sans-serif">5</text><text x="-0.300" y="14.890" fill="#9aa3b2" font-size="0.9" text-anchor="end" font-family="sans-serif">5U</text><line x1="-5.080" y1="17.780" x2="0.000" y2="17.780" stroke="#e6e9ef" stroke-width="0.2"/><circle cx="-5.080" cy="17.780" r="0.4" fill="#4ea1ff"/><text x="0.500" y="18.130" fill="#e6e9ef" font-size="1.1" text-anchor="start" font-family="sans-serif">6</text><text x="-0.300" y="17.430" fill="#9aa3b2" font-size="0.9" text-anchor="end" font-family="sans-serif">6U</text><line x1="-5.080" y1="20.320" x2="0.000" y2="20.320" stroke="#e6e9ef" stroke-width="0.2"/><circle cx="-5.080" cy="20.320" r="0.4" fill="#4ea1ff"/><text x="0.500" y="20.670" fill="#e6e9ef" font-size="1.1" text-anchor="start" font-family="sans-serif">7</text><text x="-0.300" y="19.970" fill="#9aa3b2" font-size="0.9" text-anchor="end" font-family="sans-serif">7U</text><line x1="-5.080" y1="22.860" x2="0.000" y2="22.860" stroke="#e6e9ef" stroke-width="0.2"/><circle cx="-5.080" cy="22.860" r="0.4" fill="#4ea1ff"/><text x="0.500" y="23.210" fill="#e6e9ef" font-size="1.1" text-anchor="start" font-family="sans-serif">8</text><text x="-0.300" y="22.510" fill="#9aa3b2" font-size="0.9" text-anchor="end" font-family="sans-serif">8U</text><line x1="-5.080" y1="30.480" x2="0.000" y2="30.480" stroke="#e6e9ef" stroke-width="0.2"/><circle cx="-5.080" cy="30.480" r="0.4" fill="#4ea1ff"/><text x="0.500" y="30.830" fill="#e6e9ef" font-size="1.1" text-anchor="start" font-family="sans-serif">9</text><text x="-0.300" y="30.130" fill="#9aa3b2" font-size="0.9" text-anchor="end" font-family="sans-serif">9U</text><line x1="-5.080" y1="33.020" x2="0.000" y2="33.020" stroke="#e6e9ef" stroke-width="0.2"/><circle cx="-5.080" cy="33.020" r="0.4" fill="#4ea1ff"/><text x="-0.300" y="32.670" fill="#9aa3b2" font-size="0.9" text-anchor="end" font-family="sans-serif">10U</text><line x1="-5.080" y1="35.560" x2="0.000" y2="35.560" stroke="#e6e9ef" stroke-width="0.2"/><circle cx="-5.080" cy="35.560" r="0.4" fill="#4ea1ff"/><text x="-0.300" y="35.210" fill="#9aa3b2" font-size="0.9" text-anchor="end" font-family="sans-serif">11U</text><line x1="-5.080" y1="38.100" x2="0.000" y2="38.100" stroke="#e6e9ef" stroke-width="0.2"/><circle cx="-5.080" cy="38.100" r="0.4" fill="#4ea1ff"/><text x="-0.300" y="37.750" fill="#9aa3b2" font-size="0.9" text-anchor="end" font-family="sans-serif">12U</text><text x="3.81" y="-2.00" fill="#9aa3b2" font-size="1.6" text-anchor="middle" font-family="sans-serif">B</text></g></svg>