<svg xmlns="http://www.w3.org/2000/svg" viewBox="-8.25 -5.81 16.50 11.62" preserveAspectRatio="xMidYMid meet" style="width:100%;height:100%"><rect x="-8.25" y="-5.81" width="16.50" height="11.62" fill="#12151c"/><line x1="-7.000" y1="-4.500" x2="-6.062" y2="-4.500" stroke="#e6e9ef" stroke-width="0.200" stroke-linecap="round" opacity="1"/><line x1="-7.000" y1="4.500" x2="-7.000" y2="-4.500" stroke="#e6e9ef" stroke-width="0.200" stroke-linecap="round" opacity="1"/><line x1="-7.000" y1="4.500" x2="-6.062" y2="4.500" stroke="#e6e9ef" stroke-width="0.200" stroke-linecap="round" opacity="1"/><line x1="-6.000" y1="-2.500" x2="-5.200" y2="-2.500" stroke="#e6e9ef" stroke-width="0.200" stroke-linecap="round" opacity="1"/><line x1="-6.000" y1="2.500" x2="-6.000" y2="-2.500" stroke="#e6e9ef" stroke-width="0.200" stroke-linecap="round" opacity="1"/><line x1="-6.000" y1="2.500" x2="-5.200" y2="2.500" stroke="#e6e9ef" stroke-width="0.200" stroke-linecap="round" opacity="1"/><line x1="-5.200" y1="2.500" x2="-5.200" y2="-2.500" stroke="#e6e9ef" stroke-width="0.200" stroke-linecap="round" opacity="1"/><line x1="-4.098" y1="-4.500" x2="-3.522" y2="-4.500" stroke="#e6e9ef" stroke-width="0.200" stroke-linecap="round" opacity="1"/><line x1="-4.098" y1="4.500" x2="-3.522" y2="4.500" stroke="#e6e9ef" stroke-width="0.200" stroke-linecap="round" opacity="1"/><line x1="-1.558" y1="-4.500" x2="-0.982" y2="-4.500" stroke="#e6e9ef" stroke-width="0.200" stroke-linecap="round" opacity="1"/><line x1="-1.558" y1="4.500" x2="-0.982" y2="4.500" stroke="#e6e9ef" stroke-width="0.200" stroke-linecap="round" opacity="1"/><line x1="0.982" y1="-4.500" x2="1.558" y2="-4.500" stroke="#e6e9ef" stroke-width="0.200" stroke-linecap="round" opacity="1"/><line x1="0.982" y1="4.500" x2="1.558" y2="4.500" stroke="#e6e9ef" stroke-width="0.200" stroke-linecap="round" opacity="1"/><line x1="3.522" y1="-4.500" x2="4.098" y2="-4.500" stroke="#e6e9ef" stroke-width="0.200" stroke-linecap="round" opacity="1"/><line x1="3.522" y1="4.500" x2="4.098" y2="4.500" stroke="#e6e9ef" stroke-width="0.200" stroke-linecap="round" opacity="1"/><line x1="6.062" y1="-4.500" x2="7.000" y2="-4.500" stroke="#e6e9ef" stroke-width="0.200" stroke-linecap="round" opacity="1"/><line x1="6.062" y1="4.500" x2="7.000" y2="4.500" stroke="#e6e9ef" stroke-width="0.200" stroke-linecap="round" opacity="1"/><line x1="7.000" y1="4.500" x2="7.000" y2="-4.500" stroke="#e6e9ef" stroke-width="0.200" stroke-linecap="round" opacity="1"/><line x1="-5.580" y1="-3.810" x2="-5.080" y2="-3.810" stroke="#4a5160" stroke-width="0.100" stroke-linecap="round" opacity="0.7"/><line x1="-5.580" y1="3.810" x2="-5.080" y2="3.810" stroke="#4a5160" stroke-width="0.100" stroke-linecap="round" opacity="0.7"/><line x1="-5.080" y1="-3.810" x2="-5.080" y2="-4.310" stroke="#4a5160" stroke-width="0.100" stroke-linecap="round" opacity="0.7"/><line x1="-5.080" y1="-3.810" x2="-4.580" y2="-3.810" stroke="#4a5160" stroke-width="0.100" stroke-linecap="round" opacity="0.7"/><line x1="-5.080" y1="-3.310" x2="-5.080" y2="-3.810" stroke="#4a5160" stroke-width="0.100" stroke-linecap="round" opacity="0.7"/><line x1="-5.080" y1="3.810" x2="-5.080" y2="3.310" stroke="#4a5160" stroke-width="0.100" stroke-linecap="round" opacity="0.7"/><line x1="-5.080" y1="3.810" x2="-4.580" y2="3.810" stroke="#4a5160" stroke-width="0.100" stroke-linecap="round" opacity="0.7"/><line x1="-5.080" y1="4.310" x2="-5.080" y2="3.810" stroke="#4a5160" stroke-width="0.100" stroke-linecap="round" opacity="0.7"/><line x1="-3.040" y1="-3.810" x2="-2.540" y2="-3.810" stroke="#4a5160" stroke-width="0.100" stroke-linecap="round" opacity="0.7"/><line x1="-3.040" y1="3.810" x2="-2.540" y2="3.810" stroke="#4a5160" stroke-width="0.100" stroke-linecap="round" opacity="0.7"/><line x1="-2.540" y1="-3.810" x2="-2.540" y2="-4.310" stroke="#4a5160" stroke-width="0.100" stroke-linecap="round" opacity="0.7"/><line x1="-2.540" y1="-3.810" x2="-2.040" y2="-3.810" stroke="#4a5160" stroke-width="0.100" stroke-linecap="round" opacity="0.7"/><line x1="-2.540" y1="-3.310" x2="-2.540" y2="-3.810" stroke="#4a5160" stroke-width="0.100" stroke-linecap="round" opacity="0.7"/><line x1="-2.540" y1="3.810" x2="-2.540" y2="3.310" stroke="#4a5160" stroke-width="0.100" stroke-linecap="round" opacity="0.7"/><line x1="-2.540" y1="3.810" x2="-2.040" y2="3.810" stroke="#4a5160" stroke-width="0.100" stroke-linecap="round" opacity="0.7"/><line x1="-2.540" y1="4.310" x2="-2.540" y2="3.810" stroke="#4a5160" stroke-width="0.100" stroke-linecap="round" opacity="0.7"/><line x1="-0.500" y1="-3.810" x2="0.000" y2="-3.810" stroke="#4a5160" stroke-width="0.100" stroke-linecap="round" opacity="0.7"/><line x1="-0.500" y1="0.000" x2="0.000" y2="0.000" stroke="#4a5160" stroke-width="0.100" stroke-linecap="round" opacity="0.7"/><line x1="-0.500" y1="3.810" x2="0.000" y2="3.810" stroke="#4a5160" stroke-width="0.100" stroke-linecap="round" opacity="0.7"/><line x1="0.000" y1="-3.810" x2="0.000" y2="-4.310" stroke="#4a5160" stroke-width="0.100" stroke-linecap="round" opacity="0.7"/><line x1="0.000" y1="-3.810" x2="0.500" y2="-3.810" stroke="#4a5160" stroke-width="0.100" stroke-linecap="round" opacity="0.7"/><line x1="0.000" y1="-3.310" x2="0.000" y2="-3.810" stroke="#4a5160" stroke-width="0.100" stroke-linecap="round" opacity="0.7"/><line x1="0.000" y1="0.000" x2="0.000" y2="-0.500" stroke="#4a5160" stroke-width="0.100" stroke-linecap="round" opacity="0.7"/><line x1="0.000" y1="0.000" x2="0.500" y2="0.000" stroke="#4a5160" stroke-width="0.100" stroke-linecap="round" opacity="0.7"/><line x1="0.000" y1="0.500" x2="0.000" y2="0.000" stroke="#4a5160" stroke-width="0.100" stroke-linecap="round" opacity="0.7"/><line x1="0.000" y1="3.810" x2="0.000" y2="3.310" stroke="#4a5160" stroke-width="0.100" stroke-linecap="round" opacity="0.7"/><line x1="0.000" y1="3.810" x2="0.500" y2="3.810" stroke="#4a5160" stroke-width="0.100" stroke-linecap="round" opacity="0.7"/><line x1="0.000" y1="4.310" x2="0.000" y2="3.810" stroke="#4a5160" stroke-width="0.100" stroke-linecap="round" opacity="0.7"/><line x1="2.040" y1="-3.810" x2="2.540" y2="-3.810" stroke="#4a5160" stroke-width="0.100" stroke-linecap="round" opacity="0.7"/><line x1="2.040" y1="3.810" x2="2.540" y2="3.810" stroke="#4a5160" stroke-width="0.100" stroke-linecap="round" opacity="0.7"/><line x1="2.540" y1="-3.810" x2="2.540" y2="-4.310" stroke="#4a5160" stroke-width="0.100" stroke-linecap="round" opacity="0.7"/><line x1="2.540" y1="-3.810" x2="3.040" y2="-3.810" stroke="#4a5160" stroke-width="0.100" stroke-linecap="round" opacity="0.7"/><line x1="2.540" y1="-3.310" x2="2.540" y2="-3.810" stroke="#4a5160" stroke-width="0.100" stroke-linecap="round" opacity="0.7"/><line x1="2.540" y1="3.810" x2="2.540" y2="3.310" stroke="#4a5160" stroke-width="0.100" stroke-linecap="round" opacity="0.7"/><line x1="2.540" y1="3.810" x2="3.040" y2="3.810" stroke="#4a5160" stroke-width="0.100" stroke-linecap="round" opacity="0.7"/><line x1="2.540" y1="4.310" x2="2.540" y2="3.810" stroke="#4a5160" stroke-width="0.100" stroke-linecap="round" opacity="0.7"/><line x1="4.580" y1="-3.810" x2="5.080" y2="-3.810" stroke="#4a5160" stroke-width="0.100" stroke-linecap="round" opacity="0.7"/><line x1="4.580" y1="3.810" x2="5.080" y2="3.810" stroke="#4a5160" stroke-width="0.100" stroke-linecap="round" opacity="0.7"/><line x1="5.080" y1="-3.810" x2="5.080" y2="-4.310" stroke="#4a5160" stroke-width="0.100" stroke-linecap="round" opacity="0.7"/><line x1="5.080" y1="-3.810" x2="5.580" y2="-3.810" stroke="#4a5160" stroke-width="0.100" stroke-linecap="round" opacity="0.7"/><line x1="5.080" y1="-3.310" x2="5.080" y2="-3.810" stroke="#4a5160" stroke-width="0.100" stroke-linecap="round" opacity="0.7"/><line x1="5.080" y1="3.810" x2="5.080" y2="3.310" stroke="#4a5160" stroke-width="0.100" stroke-linecap="round" opacity="0.7"/><line x1="5.080" y1="3.810" x2="5.580" y2="3.810" stroke="#4a5160" stroke-width="0.100" stroke-linecap="round" opacity="0.7"/><line x1="5.080" y1="4.310" x2="5.080" y2="3.810" stroke="#4a5160" stroke-width="0.100" stroke-linecap="round" opacity="0.7"/><line x1="-7.000" y1="-4.500" x2="7.000" y2="-4.500" stroke="#6b7280" stroke-width="0.100" stroke-linecap="round" opacity="0.8"/><line x1="-7.000" y1="4.500" x2="-7.000" y2="-4.500" stroke="#6b7280" stroke-width="0.100" stroke-linecap="round" opacity="0.8"/><line x1="-7.000" y1="4.500" x2="7.000" y2="4.500" stroke="#6b7280" stroke-width="0.100" stroke-linecap="round" opacity="0.8"/><line x1="-6.000" y1="-3.500" x2="-5.200" y2="-3.500" stroke="#6b7280" stroke-width="0.100" stroke-linecap="round" opacity="0.8"/><line x1="-6.000" y1="-2.000" x2="-6.000" y2="-3.500" stroke="#6b7280" stroke-width="0.100" stroke-linecap="round" opacity="0.8"/><line x1="-6.000" y1="-2.000" x2="-5.200" y2="-2.000" stroke="#6b7280" stroke-width="0.100" stroke-linecap="round" opacity="0.8"/><line x1="-6.000" y1="-1.500" x2="-5.200" y2="-1.500" stroke="#6b7280" stroke-width="0.100" stroke-linecap="round" opacity="0.8"/><line x1="-6.000" y1="3.500" x2="-6.000" y2="-1.500" stroke="#6b7280" stroke-width="0.100" stroke-linecap="round" opacity="0.8"/><line x1="-6.000" y1="3.500" x2="-5.200" y2="3.500" stroke="#6b7280" stroke-width="0.100" stroke-linecap="round" opacity="0.8"/><line x1="-5.200" y1="-2.000" x2="-5.200" y2="-3.500" stroke="#6b7280" stroke-width="0.100" stroke-linecap="round" opacity="0.8"/><line x1="-5.200" y1="3.500" x2="-5.200" y2="-1.500" stroke="#6b7280" stroke-width="0.100" stroke-linecap="round" opacity="0.8"/><line x1="7.000" y1="4.500" x2="7.000" y2="-4.500" stroke="#6b7280" stroke-width="0.100" stroke-linecap="round" opacity="0.8"/><line x1="-7.250" y1="-4.810" x2="7.250" y2="-4.810" stroke="#d24d4d" stroke-width="0.080" stroke-linecap="round" opacity="0.7"/><line x1="7.250" y1="-4.810" x2="7.250" y2="4.810" stroke="#d24d4d" stroke-width="0.080" stroke-linecap="round" opacity="0.7"/><line x1="7.250" y1="4.810" x2="-7.250" y2="4.810" stroke="#d24d4d" stroke-width="0.080" stroke-linecap="round" opacity="0.7"/><line x1="-7.250" y1="4.810" x2="-7.250" y2="-4.810" stroke="#d24d4d" stroke-width="0.080" stroke-linecap="round" opacity="0.7"/><rect x="-5.830" y="3.060" width="1.500" height="1.500" rx="0.750" fill="#c79b5c"/><circle cx="-5.080" cy="3.810" r="0.500" fill="#12151c"/><rect x="-3.290" y="3.060" width="1.500" height="1.500" rx="0.750" fill="#c79b5c"/><circle cx="-2.540" cy="3.810" r="0.500" fill="#12151c"/><rect x="-0.750" y="3.060" width="1.500" height="1.500" rx="0.750" fill="#c79b5c"/><circle cx="0.000" cy="3.810" r="0.500" fill="#12151c"/><rect x="1.790" y="3.060" width="1.500" height="1.500" rx="0.750" fill="#c79b5c"/><circle cx="2.540" cy="3.810" r="0.500" fill="#12151c"/><rect x="4.330" y="3.060" width="1.500" height="1.500" rx="0.750" fill="#c79b5c"/><circle cx="5.080" cy="3.810" r="0.500" fill="#12151c"/><rect x="4.330" y="-4.560" width="1.500" height="1.500" rx="0.750" fill="#c79b5c"/><circle cx="5.080" cy="-3.810" r="0.500" fill="#12151c"/><rect x="1.790" y="-4.560" width="1.500" height="1.500" rx="0.750" fill="#c79b5c"/><circle cx="2.540" cy="-3.810" r="0.500" fill="#12151c"/><rect x="-0.750" y="-4.560" width="1.500" height="1.500" rx="0.750" fill="#c79b5c"/><circle cx="0.000" cy="-3.810" r="0.500" fill="#12151c"/><rect x="-3.290" y="-4.560" width="1.500" height="1.500" rx="0.750" fill="#c79b5c"/><circle cx="-2.540" cy="-3.810" r="0.500" fill="#12151c"/><rect x="-5.830" y="-4.560" width="1.500" height="1.500" rx="0.750" fill="#c79b5c"/><circle cx="-5.080" cy="-3.810" r="0.500" fill="#12151c"/></svg>