<svg xmlns="http://www.w3.org/2000/svg" viewBox="-6.58 -1.50 23.32 23.32" preserveAspectRatio="xMidYMid meet" style="width:100%;height:100%"><rect x="-6.58" y="-1.50" width="23.32" height="23.32" fill="#12151c"/><rect x="9.525" y="8.890" width="2.540" height="2.540" fill="#1e222b" stroke="#4ea1ff" stroke-width="0.25"/><rect x="9.525" y="9.525" width="0.889" height="0.127" fill="#1e222b" stroke="#4ea1ff" stroke-width="0.25"/><rect x="10.287" y="9.525" width="0.127" height="1.905" fill="#1e222b" stroke="#4ea1ff" stroke-width="0.25"/><rect x="9.525" y="10.033" width="0.889" height="0.127" fill="#1e222b" stroke="#4ea1ff" stroke-width="0.25"/><rect x="9.525" y="10.541" width="0.889" height="0.127" fill="#1e222b" stroke="#4ea1ff" stroke-width="0.25"/><rect x="11.176" y="8.890" width="0.127" height="2.540" fill="#1e222b" stroke="#4ea1ff" stroke-width="0.25"/><rect x="11.176" y="9.525" width="0.889" height="0.127" fill="#1e222b" stroke="#4ea1ff" stroke-width="0.25"/><rect x="11.176" y="10.033" width="0.889" height="0.127" fill="#1e222b" stroke="#4ea1ff" stroke-width="0.25"/><rect x="11.176" y="10.541" width="0.889" height="0.127" fill="#1e222b" stroke="#4ea1ff" stroke-width="0.25"/><rect x="0.000" y="-0.000" width="15.240" height="20.320" fill="#1e222b" stroke="#4ea1ff" stroke-width="0.25"/><polyline points="0.000,-0.000 0.000,20.320" fill="none" stroke="#4ea1ff" stroke-width="0.25" stroke-linejoin="round"/><polyline points="0.000,-0.000 15.240,-0.000" fill="none" stroke="#4ea1ff" stroke-width="0.25" stroke-linejoin="round"/><polyline points="0.000,20.320 15.240,20.320" fill="none" stroke="#4ea1ff" stroke-width="0.25" stroke-linejoin="round"/><polyline points="8.890,6.350 8.890,12.700 12.700,12.700 12.700,7.620 11.430,6.350 8.890,6.350" fill="#1e222b" stroke="#4ea1ff" stroke-width="0.25" stroke-linejoin="round"/><polyline points="8.890,12.700 8.890,6.350" fill="none" stroke="#4ea1ff" stroke-width="0.25" stroke-linejoin="round"/><polyline points="11.430,6.350 8.890,6.350" fill="none" stroke="#4ea1ff" stroke-width="0.25" stroke-linejoin="round"/><polyline points="12.700,7.620 11.430,6.350" fill="none" stroke="#4ea1ff" stroke-width="0.25" stroke-linejoin="round"/><polyline points="12.700,12.700 8.890,12.700" fill="none" stroke="#4ea1ff" stroke-width="0.25" stroke-linejoin="round"/><polyline points="12.700,12.700 12.700,7.620" fill="none" stroke="#4ea1ff" stroke-width="0.25" stroke-linejoin="round"/><polyline points="15.240,20.320 15.240,-0.000" fill="none" stroke="#4ea1ff" stroke-width="0.25" stroke-linejoin="round"/><circle cx="0.000" cy="17.780" r="0.508" fill="none" stroke="#4ea1ff" stroke-width="0.25"/><line x1="-5.080" y1="2.540" x2="0.000" y2="2.540" stroke="#e6e9ef" stroke-width="0.2"/><circle cx="-5.080" cy="2.540" r="0.4" fill="#4ea1ff"/><text x="0.500" y="2.890" fill="#e6e9ef" font-size="1.1" text-anchor="start" font-family="sans-serif">VCC</text><text x="-0.300" y="2.190" fill="#9aa3b2" font-size="0.9" text-anchor="end" font-family="sans-serif">C1</text><line x1="-5.080" y1="5.080" x2="0.000" y2="5.080" stroke="#e6e9ef" stroke-width="0.2"/><circle cx="-5.080" cy="5.080" r="0.4" fill="#4ea1ff"/><text x="0.500" y="5.430" fill="#e6e9ef" font-size="1.1" text-anchor="start" font-family="sans-serif">RST</text><text x="-0.300" y="4.730" fill="#9aa3b2" font-size="0.9" text-anchor="end" font-family="sans-serif">C2</text><line x1="-5.080" y1="7.620" x2="0.000" y2="7.620" stroke="#e6e9ef" stroke-width="0.2"/><circle cx="-5.080" cy="7.620" r="0.4" fill="#4ea1ff"/><text x="0.500" y="7.970" fill="#e6e9ef" font-size="1.1" text-anchor="start" font-family="sans-serif">CLK</text><text x="-0.300" y="7.270" fill="#9aa3b2" font-size="0.9" text-anchor="end" font-family="sans-serif">C3</text><line x1="-5.080" y1="10.160" x2="0.000" y2="10.160" stroke="#e6e9ef" stroke-width="0.2"/><circle cx="-5.080" cy="10.160" r="0.4" fill="#4ea1ff"/><text x="0.500" y="10.510" fill="#e6e9ef" font-size="1.1" text-anchor="start" font-family="sans-serif">GND</text><text x="-0.300" y="9.810" fill="#9aa3b2" font-size="0.9" text-anchor="end" font-family="sans-serif">C5</text><line x1="-5.080" y1="12.700" x2="0.000" y2="12.700" stroke="#e6e9ef" stroke-width="0.2"/><circle cx="-5.080" cy="12.700" r="0.4" fill="#4ea1ff"/><text x="0.500" y="13.050" fill="#e6e9ef" font-size="1.1" text-anchor="start" font-family="sans-serif">Vpp</text><text x="-0.300" y="12.350" fill="#9aa3b2" font-size="0.9" text-anchor="end" font-family="sans-serif">C6</text><line x1="-5.080" y1="15.240" x2="0.000" y2="15.240" stroke="#e6e9ef" stroke-width="0.2"/><circle cx="-5.080" cy="15.240" r="0.4" fill="#4ea1ff"/><text x="0.500" y="15.590" fill="#e6e9ef" font-size="1.1" text-anchor="start" font-family="sans-serif">I/O</text><text x="-0.300" y="14.890" fill="#9aa3b2" font-size="0.9" text-anchor="end" font-family="sans-serif">C7</text><line x1="-5.080" y1="17.780" x2="0.000" y2="17.780" stroke="#e6e9ef" stroke-width="0.2"/><circle cx="-5.080" cy="17.780" r="0.4" fill="#4ea1ff"/><text x="-0.300" y="17.430" fill="#9aa3b2" font-size="0.9" text-anchor="end" font-family="sans-serif">SHIELD</text></svg>