<svg xmlns="http://www.w3.org/2000/svg" viewBox="-5.45 -2.40 10.90 4.81" preserveAspectRatio="xMidYMid meet" style="width:100%;height:100%"><rect x="-5.45" y="-2.40" width="10.90" height="4.81" fill="#12151c"/><line x1="-3.105" y1="-1.153" x2="3.105" y2="-1.153" stroke="#e6e9ef" stroke-width="0.200" stroke-linecap="round" opacity="1"/><line x1="-3.105" y1="1.153" x2="3.105" y2="1.153" stroke="#e6e9ef" stroke-width="0.200" stroke-linecap="round" opacity="1"/><line x1="-4.200" y1="-0.725" x2="-3.150" y2="0.000" stroke="#4a5160" stroke-width="0.080" stroke-linecap="round" opacity="0.7"/><line x1="-4.200" y1="-0.725" x2="-2.100" y2="-0.725" stroke="#4a5160" stroke-width="0.080" stroke-linecap="round" opacity="0.7"/><line x1="-4.200" y1="0.725" x2="-4.200" y2="-0.725" stroke="#4a5160" stroke-width="0.080" stroke-linecap="round" opacity="0.7"/><line x1="-4.200" y1="0.725" x2="-3.150" y2="0.000" stroke="#4a5160" stroke-width="0.080" stroke-linecap="round" opacity="0.7"/><line x1="-4.200" y1="0.725" x2="-2.100" y2="0.725" stroke="#4a5160" stroke-width="0.080" stroke-linecap="round" opacity="0.7"/><line x1="-2.100" y1="0.725" x2="-2.100" y2="-0.725" stroke="#4a5160" stroke-width="0.080" stroke-linecap="round" opacity="0.7"/><line x1="-0.500" y1="0.000" x2="-0.000" y2="0.000" stroke="#4a5160" stroke-width="0.080" stroke-linecap="round" opacity="0.7"/><line x1="-0.000" y1="0.000" x2="-0.000" y2="-0.500" stroke="#4a5160" stroke-width="0.080" stroke-linecap="round" opacity="0.7"/><line x1="-0.000" y1="0.000" x2="0.500" y2="0.000" stroke="#4a5160" stroke-width="0.080" stroke-linecap="round" opacity="0.7"/><line x1="-0.000" y1="0.500" x2="-0.000" y2="0.000" stroke="#4a5160" stroke-width="0.080" stroke-linecap="round" opacity="0.7"/><line x1="2.100" y1="-0.725" x2="4.200" y2="-0.725" stroke="#4a5160" stroke-width="0.080" stroke-linecap="round" opacity="0.7"/><line x1="2.100" y1="0.725" x2="2.100" y2="-0.725" stroke="#4a5160" stroke-width="0.080" stroke-linecap="round" opacity="0.7"/><line x1="2.100" y1="0.725" x2="4.200" y2="0.725" stroke="#4a5160" stroke-width="0.080" stroke-linecap="round" opacity="0.7"/><line x1="3.150" y1="0.000" x2="4.200" y2="-0.725" stroke="#4a5160" stroke-width="0.080" stroke-linecap="round" opacity="0.7"/><line x1="3.150" y1="0.000" x2="4.200" y2="0.725" stroke="#4a5160" stroke-width="0.080" stroke-linecap="round" opacity="0.7"/><line x1="4.200" y1="0.725" x2="4.200" y2="-0.725" stroke="#4a5160" stroke-width="0.080" stroke-linecap="round" opacity="0.7"/><line x1="-4.450" y1="-1.403" x2="4.450" y2="-1.403" stroke="#d24d4d" stroke-width="0.080" stroke-linecap="round" opacity="0.7"/><line x1="-4.450" y1="1.403" x2="-4.450" y2="-1.403" stroke="#d24d4d" stroke-width="0.080" stroke-linecap="round" opacity="0.7"/><line x1="-4.450" y1="1.403" x2="4.450" y2="1.403" stroke="#d24d4d" stroke-width="0.080" stroke-linecap="round" opacity="0.7"/><line x1="4.450" y1="1.403" x2="4.450" y2="-1.403" stroke="#d24d4d" stroke-width="0.080" stroke-linecap="round" opacity="0.7"/><line x1="-3.785" y1="-0.570" x2="-3.185" y2="-0.570" stroke="#6b7280" stroke-width="0.100" stroke-linecap="round" opacity="0.8"/><line x1="-3.785" y1="0.570" x2="-3.785" y2="-0.570" stroke="#6b7280" stroke-width="0.100" stroke-linecap="round" opacity="0.8"/><line x1="-3.785" y1="0.570" x2="-3.185" y2="0.570" stroke="#6b7280" stroke-width="0.100" stroke-linecap="round" opacity="0.8"/><line x1="-3.185" y1="1.073" x2="-3.185" y2="-1.073" stroke="#6b7280" stroke-width="0.100" stroke-linecap="round" opacity="0.8"/><line x1="-3.105" y1="-1.153" x2="3.105" y2="-1.153" stroke="#6b7280" stroke-width="0.100" stroke-linecap="round" opacity="0.8"/><line x1="-3.105" y1="1.153" x2="3.105" y2="1.153" stroke="#6b7280" stroke-width="0.100" stroke-linecap="round" opacity="0.8"/><line x1="3.185" y1="-0.570" x2="3.785" y2="-0.570" stroke="#6b7280" stroke-width="0.100" stroke-linecap="round" opacity="0.8"/><line x1="3.185" y1="0.570" x2="3.785" y2="0.570" stroke="#6b7280" stroke-width="0.100" stroke-linecap="round" opacity="0.8"/><line x1="3.185" y1="1.073" x2="3.185" y2="-1.073" stroke="#6b7280" stroke-width="0.100" stroke-linecap="round" opacity="0.8"/><line x1="3.785" y1="0.570" x2="3.785" y2="-0.570" stroke="#6b7280" stroke-width="0.100" stroke-linecap="round" opacity="0.8"/><path d="M -3.185 -1.073 A 0.080 0.080 0 0 1 -3.105 -1.153" fill="none" stroke="#6b7280" stroke-width="0.12" opacity="0.8"/><path d="M -3.105 1.153 A 0.080 0.080 0 0 1 -3.185 1.073" fill="none" stroke="#6b7280" stroke-width="0.12" opacity="0.8"/><path d="M 3.105 -1.153 A 0.080 0.080 0 0 1 3.185 -1.073" fill="none" stroke="#6b7280" stroke-width="0.12" opacity="0.8"/><path d="M 3.185 1.073 A 0.080 0.080 0 0 1 3.105 1.153" fill="none" stroke="#6b7280" stroke-width="0.12" opacity="0.8"/><rect x="-4.200" y="-0.725" width="2.100" height="1.450" rx="0.000" fill="#c79b5c"/><rect x="2.100" y="-0.725" width="2.100" height="1.450" rx="0.000" fill="#c79b5c"/><polygon points="-3.60,1.78 -2.70,1.78 -3.15,1.18" fill="#ffffff"/></svg>