<svg xmlns="http://www.w3.org/2000/svg" viewBox="-3.62 -2.60 6.53 5.20" preserveAspectRatio="xMidYMid meet" style="width:100%;height:100%"><rect x="-3.62" y="-2.60" width="6.53" height="5.20" fill="#12151c"/><circle cx="-2.500" cy="-0.750" r="0.125" fill="none" stroke="#e6e9ef" stroke-width="0.12" opacity="1"/><rect x="-1.900" y="-0.900" width="0.900" height="0.300" rx="0.150" fill="#c79b5c"/><rect x="-1.900" y="-0.400" width="0.900" height="0.300" rx="0.150" fill="#c79b5c"/><rect x="-1.900" y="0.100" width="0.900" height="0.300" rx="0.150" fill="#c79b5c"/><rect x="-1.900" y="0.600" width="0.900" height="0.300" rx="0.150" fill="#c79b5c"/><rect x="-1.200" y="1.300" width="0.900" height="0.300" rx="0.150" fill="#c79b5c"/><rect x="-0.700" y="1.300" width="0.900" height="0.300" rx="0.150" fill="#c79b5c"/><rect x="-0.200" y="1.300" width="0.900" height="0.300" rx="0.150" fill="#c79b5c"/><rect x="0.300" y="1.300" width="0.900" height="0.300" rx="0.150" fill="#c79b5c"/><rect x="1.000" y="0.600" width="0.900" height="0.300" rx="0.150" fill="#c79b5c"/><rect x="1.000" y="0.100" width="0.900" height="0.300" rx="0.150" fill="#c79b5c"/><rect x="1.000" y="-0.400" width="0.900" height="0.300" rx="0.150" fill="#c79b5c"/><rect x="1.000" y="-0.900" width="0.900" height="0.300" rx="0.150" fill="#c79b5c"/><rect x="0.300" y="-1.600" width="0.900" height="0.300" rx="0.150" fill="#c79b5c"/><rect x="-0.200" y="-1.600" width="0.900" height="0.300" rx="0.150" fill="#c79b5c"/><rect x="-0.700" y="-1.600" width="0.900" height="0.300" rx="0.150" fill="#c79b5c"/><rect x="-1.200" y="-1.600" width="0.900" height="0.300" rx="0.150" fill="#c79b5c"/><rect x="-0.750" y="-0.750" width="1.500" height="1.500" rx="0.000" fill="#c79b5c"/></svg>