<svg xmlns="http://www.w3.org/2000/svg" viewBox="-6.58 -1.50 29.67 25.86" preserveAspectRatio="xMidYMid meet" style="width:100%;height:100%"><rect x="-6.58" y="-1.50" width="29.67" height="25.86" fill="#12151c"/><rect x="0.000" y="-0.000" width="15.240" height="22.860" fill="#1e222b" stroke="#4ea1ff" stroke-width="0.25"/><polyline points="2.286,6.858 3.810,8.382 5.334,6.858 2.286,6.858" fill="#1e222b" stroke="#4ea1ff" stroke-width="0.25" stroke-linejoin="round"/><polyline points="3.810,5.080 0.000,5.080" fill="none" stroke="#4ea1ff" stroke-width="0.25" stroke-linejoin="round"/><polyline points="3.810,5.080 3.810,10.160" fill="none" stroke="#4ea1ff" stroke-width="0.25" stroke-linejoin="round"/><polyline points="3.810,10.160 0.000,10.160" fill="none" stroke="#4ea1ff" stroke-width="0.25" stroke-linejoin="round"/><polyline points="5.334,8.382 2.286,8.382" fill="none" stroke="#4ea1ff" stroke-width="0.25" stroke-linejoin="round"/><polyline points="5.588,7.874 6.858,6.604" fill="none" stroke="#4ea1ff" stroke-width="0.25" stroke-linejoin="round"/><polyline points="6.858,6.604 6.096,6.858 6.604,7.366 6.858,6.604" fill="#1e222b" stroke="#4ea1ff" stroke-width="0.25" stroke-linejoin="round"/><polyline points="6.858,8.128 8.128,6.858" fill="none" stroke="#4ea1ff" stroke-width="0.25" stroke-linejoin="round"/><polyline points="7.874,13.462 8.636,12.700" fill="none" stroke="#4ea1ff" stroke-width="0.25" stroke-linejoin="round"/><polyline points="8.128,6.858 7.366,7.112 7.874,7.620 8.128,6.858" fill="#1e222b" stroke="#4ea1ff" stroke-width="0.25" stroke-linejoin="round"/><polyline points="8.636,6.858 11.684,6.858" fill="none" stroke="#4ea1ff" stroke-width="0.25" stroke-linejoin="round"/><polyline points="8.636,13.462 9.398,12.700" fill="none" stroke="#4ea1ff" stroke-width="0.25" stroke-linejoin="round"/><polyline points="9.398,13.462 10.160,12.700" fill="none" stroke="#4ea1ff" stroke-width="0.25" stroke-linejoin="round"/><polyline points="10.160,2.540 0.000,2.540" fill="none" stroke="#4ea1ff" stroke-width="0.25" stroke-linejoin="round"/><polyline points="10.160,12.700 10.160,2.540" fill="none" stroke="#4ea1ff" stroke-width="0.25" stroke-linejoin="round"/><polyline points="10.160,13.462 10.922,12.700" fill="none" stroke="#4ea1ff" stroke-width="0.25" stroke-linejoin="round"/><polyline points="10.922,13.462 11.684,12.700" fill="none" stroke="#4ea1ff" stroke-width="0.25" stroke-linejoin="round"/><polyline points="11.684,8.382 10.160,6.858 8.636,8.382 11.684,8.382" fill="#1e222b" stroke="#4ea1ff" stroke-width="0.25" stroke-linejoin="round"/><polyline points="11.684,12.700 8.636,12.700" fill="none" stroke="#4ea1ff" stroke-width="0.25" stroke-linejoin="round"/><polyline points="11.938,7.874 12.700,7.620 12.192,7.112 11.938,7.874" fill="#1e222b" stroke="#4ea1ff" stroke-width="0.25" stroke-linejoin="round"/><polyline points="13.208,6.604 11.938,7.874" fill="none" stroke="#4ea1ff" stroke-width="0.25" stroke-linejoin="round"/><polyline points="13.208,8.128 13.970,7.874 13.462,7.366 13.208,8.128" fill="#1e222b" stroke="#4ea1ff" stroke-width="0.25" stroke-linejoin="round"/><polyline points="14.478,6.858 13.208,8.128" fill="none" stroke="#4ea1ff" stroke-width="0.25" stroke-linejoin="round"/><polyline points="17.780,5.588 13.462,5.588" fill="none" stroke="#4ea1ff" stroke-width="0.25" stroke-linejoin="round"/><polyline points="17.780,5.588 17.780,9.652 13.462,9.652" fill="none" stroke="#4ea1ff" stroke-width="0.25" stroke-linejoin="round"/><polyline points="21.590,6.350 17.780,6.350" fill="none" stroke="#4ea1ff" stroke-width="0.25" stroke-linejoin="round"/><polyline points="21.590,6.350 21.590,8.890" fill="none" stroke="#4ea1ff" stroke-width="0.25" stroke-linejoin="round"/><polyline points="21.590,8.890 17.780,8.890" fill="none" stroke="#4ea1ff" stroke-width="0.25" stroke-linejoin="round"/><line x1="-5.080" y1="2.540" x2="0.000" y2="2.540" stroke="#e6e9ef" stroke-width="0.2"/><circle cx="-5.080" cy="2.540" r="0.4" fill="#4ea1ff"/><text x="0.500" y="2.890" fill="#e6e9ef" font-size="1.1" text-anchor="start" font-family="sans-serif">PDC</text><text x="-0.300" y="2.190" fill="#9aa3b2" font-size="0.9" text-anchor="end" font-family="sans-serif">2</text><line x1="-5.080" y1="5.080" x2="0.000" y2="5.080" stroke="#e6e9ef" stroke-width="0.2"/><circle cx="-5.080" cy="5.080" r="0.4" fill="#4ea1ff"/><text x="0.500" y="5.430" fill="#e6e9ef" font-size="1.1" text-anchor="start" font-family="sans-serif">LDA</text><text x="-0.300" y="4.730" fill="#9aa3b2" font-size="0.9" text-anchor="end" font-family="sans-serif">5</text><line x1="-5.080" y1="10.160" x2="0.000" y2="10.160" stroke="#e6e9ef" stroke-width="0.2"/><circle cx="-5.080" cy="10.160" r="0.4" fill="#4ea1ff"/><text x="0.500" y="10.510" fill="#e6e9ef" font-size="1.1" text-anchor="start" font-family="sans-serif">LDC</text><text x="-0.300" y="9.810" fill="#9aa3b2" font-size="0.9" text-anchor="end" font-family="sans-serif">4</text><line x1="-5.080" y1="15.240" x2="0.000" y2="15.240" stroke="#e6e9ef" stroke-width="0.2"/><circle cx="-5.080" cy="15.240" r="0.4" fill="#4ea1ff"/><text x="0.500" y="15.590" fill="#e6e9ef" font-size="1.1" text-anchor="start" font-family="sans-serif">GND</text><text x="-0.300" y="14.890" fill="#9aa3b2" font-size="0.9" text-anchor="end" font-family="sans-serif">1</text><line x1="-5.080" y1="17.780" x2="0.000" y2="17.780" stroke="#e6e9ef" stroke-width="0.2"/><circle cx="-5.080" cy="17.780" r="0.4" fill="#4ea1ff"/><text x="0.500" y="18.130" fill="#e6e9ef" font-size="1.1" text-anchor="start" font-family="sans-serif">GND</text><text x="-0.300" y="17.430" fill="#9aa3b2" font-size="0.9" text-anchor="end" font-family="sans-serif">3</text><line x1="-5.080" y1="20.320" x2="0.000" y2="20.320" stroke="#e6e9ef" stroke-width="0.2"/><circle cx="-5.080" cy="20.320" r="0.4" fill="#4ea1ff"/><text x="0.500" y="20.670" fill="#e6e9ef" font-size="1.1" text-anchor="start" font-family="sans-serif">GND</text><text x="-0.300" y="19.970" fill="#9aa3b2" font-size="0.9" text-anchor="end" font-family="sans-serif">6</text><line x1="20.320" y1="17.780" x2="15.240" y2="17.780" stroke="#e6e9ef" stroke-width="0.2"/><circle cx="20.320" cy="17.780" r="0.4" fill="#4ea1ff"/><text x="14.740" y="18.130" fill="#e6e9ef" font-size="1.1" text-anchor="end" font-family="sans-serif">GND</text><text x="15.540" y="17.430" fill="#9aa3b2" font-size="0.9" text-anchor="start" font-family="sans-serif">8</text><line x1="20.320" y1="20.320" x2="15.240" y2="20.320" stroke="#e6e9ef" stroke-width="0.2"/><circle cx="20.320" cy="20.320" r="0.4" fill="#4ea1ff"/><text x="14.740" y="20.670" fill="#e6e9ef" font-size="1.1" text-anchor="end" font-family="sans-serif">NC</text><text x="15.540" y="19.970" fill="#9aa3b2" font-size="0.9" text-anchor="start" font-family="sans-serif">7</text></svg>