<svg xmlns="http://www.w3.org/2000/svg" viewBox="-4.85 -3.70 9.55 7.40" preserveAspectRatio="xMidYMid meet" style="width:100%;height:100%"><rect x="-4.85" y="-3.70" width="9.55" height="7.40" fill="#12151c"/><line x1="-0.978" y1="-2.450" x2="1.955" y2="-2.450" stroke="#6b7280" stroke-width="0.100" stroke-linecap="round" opacity="0.8"/><line x1="1.955" y1="-2.450" x2="1.955" y2="2.450" stroke="#6b7280" stroke-width="0.100" stroke-linecap="round" opacity="0.8"/><line x1="1.955" y1="2.450" x2="-1.955" y2="2.450" stroke="#6b7280" stroke-width="0.100" stroke-linecap="round" opacity="0.8"/><line x1="-1.955" y1="2.450" x2="-1.955" y2="-1.473" stroke="#6b7280" stroke-width="0.100" stroke-linecap="round" opacity="0.8"/><line x1="-1.955" y1="-1.473" x2="-0.978" y2="-2.450" stroke="#6b7280" stroke-width="0.100" stroke-linecap="round" opacity="0.8"/><line x1="-1.955" y1="-2.560" x2="1.955" y2="-2.560" stroke="#e6e9ef" stroke-width="0.120" stroke-linecap="round" opacity="1"/><line x1="-1.955" y1="2.560" x2="1.955" y2="2.560" stroke="#e6e9ef" stroke-width="0.120" stroke-linecap="round" opacity="1"/><line x1="-3.850" y1="-2.473" x2="-3.850" y2="-1.973" stroke="#e6e9ef" stroke-width="0.120" stroke-linecap="round" opacity="1"/><line x1="-3.700" y1="-2.700" x2="3.700" y2="-2.700" stroke="#d24d4d" stroke-width="0.080" stroke-linecap="round" opacity="0.7"/><line x1="3.700" y1="-2.700" x2="3.700" y2="2.700" stroke="#d24d4d" stroke-width="0.080" stroke-linecap="round" opacity="0.7"/><line x1="3.700" y1="2.700" x2="-3.700" y2="2.700" stroke="#d24d4d" stroke-width="0.080" stroke-linecap="round" opacity="0.7"/><line x1="-3.700" y1="2.700" x2="-3.700" y2="-2.700" stroke="#d24d4d" stroke-width="0.080" stroke-linecap="round" opacity="0.7"/><rect x="-3.450" y="-2.423" width="1.500" height="0.400" rx="0.000" fill="#c79b5c"/><rect x="-3.450" y="-1.788" width="1.500" height="0.400" rx="0.000" fill="#c79b5c"/><rect x="-3.450" y="-1.153" width="1.500" height="0.400" rx="0.000" fill="#c79b5c"/><rect x="-3.450" y="-0.518" width="1.500" height="0.400" rx="0.000" fill="#c79b5c"/><rect x="-3.450" y="0.117" width="1.500" height="0.400" rx="0.000" fill="#c79b5c"/><rect x="-3.450" y="0.752" width="1.500" height="0.400" rx="0.000" fill="#c79b5c"/><rect x="-3.450" y="1.387" width="1.500" height="0.400" rx="0.000" fill="#c79b5c"/><rect x="-3.450" y="2.023" width="1.500" height="0.400" rx="0.000" fill="#c79b5c"/><rect x="1.950" y="2.023" width="1.500" height="0.400" rx="0.000" fill="#c79b5c"/><rect x="1.950" y="1.388" width="1.500" height="0.400" rx="0.000" fill="#c79b5c"/><rect x="1.950" y="0.752" width="1.500" height="0.400" rx="0.000" fill="#c79b5c"/><rect x="1.950" y="0.117" width="1.500" height="0.400" rx="0.000" fill="#c79b5c"/><rect x="1.950" y="-0.518" width="1.500" height="0.400" rx="0.000" fill="#c79b5c"/><rect x="1.950" y="-1.153" width="1.500" height="0.400" rx="0.000" fill="#c79b5c"/><rect x="1.950" y="-1.787" width="1.500" height="0.400" rx="0.000" fill="#c79b5c"/><rect x="1.950" y="-2.423" width="1.500" height="0.400" rx="0.000" fill="#c79b5c"/></svg>