<svg xmlns="http://www.w3.org/2000/svg" viewBox="-17.13 -11.41 34.25 23.46" preserveAspectRatio="xMidYMid meet" style="width:100%;height:100%"><rect x="-17.13" y="-11.41" width="34.25" height="23.46" fill="#12151c"/><line x1="-15.875" y1="9.660" x2="-15.875" y2="-9.660" stroke="#e6e9ef" stroke-width="0.200" stroke-linecap="round" opacity="1"/><line x1="-15.375" y1="-10.160" x2="15.375" y2="-10.160" stroke="#e6e9ef" stroke-width="0.200" stroke-linecap="round" opacity="1"/><line x1="-15.375" y1="10.160" x2="15.375" y2="10.160" stroke="#e6e9ef" stroke-width="0.200" stroke-linecap="round" opacity="1"/><line x1="15.875" y1="9.660" x2="15.875" y2="-9.660" stroke="#e6e9ef" stroke-width="0.200" stroke-linecap="round" opacity="1"/><line x1="-11.930" y1="-7.620" x2="-11.430" y2="-7.620" stroke="#4a5160" stroke-width="0.080" stroke-linecap="round" opacity="0.7"/><line x1="-11.930" y1="7.620" x2="-11.430" y2="7.620" stroke="#4a5160" stroke-width="0.080" stroke-linecap="round" opacity="0.7"/><line x1="-11.430" y1="-7.120" x2="-11.430" y2="-7.620" stroke="#4a5160" stroke-width="0.080" stroke-linecap="round" opacity="0.7"/><line x1="-11.430" y1="8.120" x2="-11.430" y2="7.620" stroke="#4a5160" stroke-width="0.080" stroke-linecap="round" opacity="0.7"/><line x1="-9.390" y1="-7.620" x2="-8.890" y2="-7.620" stroke="#4a5160" stroke-width="0.080" stroke-linecap="round" opacity="0.7"/><line x1="-9.390" y1="7.620" x2="-8.890" y2="7.620" stroke="#4a5160" stroke-width="0.080" stroke-linecap="round" opacity="0.7"/><line x1="-8.890" y1="-7.120" x2="-8.890" y2="-7.620" stroke="#4a5160" stroke-width="0.080" stroke-linecap="round" opacity="0.7"/><line x1="-8.890" y1="8.120" x2="-8.890" y2="7.620" stroke="#4a5160" stroke-width="0.080" stroke-linecap="round" opacity="0.7"/><line x1="-0.500" y1="0.000" x2="-0.000" y2="0.000" stroke="#4a5160" stroke-width="0.080" stroke-linecap="round" opacity="0.7"/><line x1="-0.000" y1="0.500" x2="-0.000" y2="0.000" stroke="#4a5160" stroke-width="0.080" stroke-linecap="round" opacity="0.7"/><line x1="5.850" y1="-7.620" x2="6.350" y2="-7.620" stroke="#4a5160" stroke-width="0.080" stroke-linecap="round" opacity="0.7"/><line x1="5.850" y1="7.620" x2="6.350" y2="7.620" stroke="#4a5160" stroke-width="0.080" stroke-linecap="round" opacity="0.7"/><line x1="6.350" y1="-7.120" x2="6.350" y2="-7.620" stroke="#4a5160" stroke-width="0.080" stroke-linecap="round" opacity="0.7"/><line x1="6.350" y1="8.120" x2="6.350" y2="7.620" stroke="#4a5160" stroke-width="0.080" stroke-linecap="round" opacity="0.7"/><line x1="10.930" y1="-7.620" x2="11.430" y2="-7.620" stroke="#4a5160" stroke-width="0.080" stroke-linecap="round" opacity="0.7"/><line x1="10.930" y1="7.620" x2="11.430" y2="7.620" stroke="#4a5160" stroke-width="0.080" stroke-linecap="round" opacity="0.7"/><line x1="11.430" y1="-7.120" x2="11.430" y2="-7.620" stroke="#4a5160" stroke-width="0.080" stroke-linecap="round" opacity="0.7"/><line x1="11.430" y1="8.120" x2="11.430" y2="7.620" stroke="#4a5160" stroke-width="0.080" stroke-linecap="round" opacity="0.7"/><line x1="-15.875" y1="9.660" x2="-15.875" y2="-9.660" stroke="#6b7280" stroke-width="0.100" stroke-linecap="round" opacity="0.8"/><line x1="-15.375" y1="-10.160" x2="15.375" y2="-10.160" stroke="#6b7280" stroke-width="0.100" stroke-linecap="round" opacity="0.8"/><line x1="-15.375" y1="10.160" x2="15.375" y2="10.160" stroke="#6b7280" stroke-width="0.100" stroke-linecap="round" opacity="0.8"/><line x1="15.875" y1="9.660" x2="15.875" y2="-9.660" stroke="#6b7280" stroke-width="0.100" stroke-linecap="round" opacity="0.8"/><line x1="-16.130" y1="-10.410" x2="16.120" y2="-10.410" stroke="#d24d4d" stroke-width="0.080" stroke-linecap="round" opacity="0.7"/><line x1="16.120" y1="-10.410" x2="16.120" y2="10.410" stroke="#d24d4d" stroke-width="0.080" stroke-linecap="round" opacity="0.7"/><line x1="16.120" y1="10.410" x2="-16.130" y2="10.410" stroke="#d24d4d" stroke-width="0.080" stroke-linecap="round" opacity="0.7"/><line x1="-16.130" y1="10.410" x2="-16.130" y2="-10.410" stroke="#d24d4d" stroke-width="0.080" stroke-linecap="round" opacity="0.7"/><path d="M -15.875 -9.660 A 0.500 0.500 0 0 1 -15.375 -10.160" fill="none" stroke="#e6e9ef" stroke-width="0.12" opacity="1"/><path d="M -15.375 10.160 A 0.500 0.500 0 0 1 -15.875 9.660" fill="none" stroke="#e6e9ef" stroke-width="0.12" opacity="1"/><path d="M 15.375 -10.160 A 0.500 0.500 0 0 1 15.875 -9.660" fill="none" stroke="#e6e9ef" stroke-width="0.12" opacity="1"/><path d="M 15.875 9.660 A 0.500 0.500 0 0 1 15.375 10.160" fill="none" stroke="#e6e9ef" stroke-width="0.12" opacity="1"/><path d="M -15.875 -9.660 A 0.500 0.500 0 0 1 -15.375 -10.160" fill="none" stroke="#6b7280" stroke-width="0.12" opacity="0.8"/><path d="M -15.375 10.160 A 0.500 0.500 0 0 1 -15.875 9.660" fill="none" stroke="#6b7280" stroke-width="0.12" opacity="0.8"/><path d="M 15.375 -10.160 A 0.500 0.500 0 0 1 15.875 -9.660" fill="none" stroke="#6b7280" stroke-width="0.12" opacity="0.8"/><path d="M 15.875 9.660 A 0.500 0.500 0 0 1 15.375 10.160" fill="none" stroke="#6b7280" stroke-width="0.12" opacity="0.8"/><circle cx="-13.970" cy="10.900" r="0.150" fill="none" stroke="#e6e9ef" stroke-width="0.12" opacity="1"/><circle cx="-11.430" cy="7.620" r="1.100" fill="none" stroke="#4a5160" stroke-width="0.12" opacity="0.7"/><circle cx="-11.430" cy="7.620" r="0.750" fill="none" stroke="#4a5160" stroke-width="0.12" opacity="0.7"/><circle cx="-11.430" cy="7.620" r="0.400" fill="none" stroke="#4a5160" stroke-width="0.12" opacity="0.7"/><rect x="-12.180" y="6.870" width="1.500" height="1.500" rx="0.750" fill="#c79b5c"/><circle cx="-11.430" cy="7.620" r="0.400" fill="#12151c"/><rect x="-9.640" y="6.870" width="1.500" height="1.500" rx="0.750" fill="#c79b5c"/><circle cx="-8.890" cy="7.620" r="0.400" fill="#12151c"/><rect x="5.600" y="6.870" width="1.500" height="1.500" rx="0.750" fill="#c79b5c"/><circle cx="6.350" cy="7.620" r="0.400" fill="#12151c"/><rect x="10.680" y="6.870" width="1.500" height="1.500" rx="0.750" fill="#c79b5c"/><circle cx="11.430" cy="7.620" r="0.400" fill="#12151c"/><rect x="10.680" y="-8.370" width="1.500" height="1.500" rx="0.750" fill="#c79b5c"/><circle cx="11.430" cy="-7.620" r="0.400" fill="#12151c"/><rect x="5.600" y="-8.370" width="1.500" height="1.500" rx="0.750" fill="#c79b5c"/><circle cx="6.350" cy="-7.620" r="0.400" fill="#12151c"/><rect x="-9.640" y="-8.370" width="1.500" height="1.500" rx="0.750" fill="#c79b5c"/><circle cx="-8.890" cy="-7.620" r="0.400" fill="#12151c"/><rect x="-12.180" y="-8.370" width="1.500" height="1.500" rx="0.750" fill="#c79b5c"/><circle cx="-11.430" cy="-7.620" r="0.400" fill="#12151c"/></svg>