<svg xmlns="http://www.w3.org/2000/svg" viewBox="-7.00 -3.00 14.00 6.00" preserveAspectRatio="xMidYMid meet" style="width:100%;height:100%"><rect x="-7.00" y="-3.00" width="14.00" height="6.00" fill="#12151c"/><line x1="-3.000" y1="-1.750" x2="3.000" y2="-1.750" stroke="#e6e9ef" stroke-width="0.200" stroke-linecap="round" opacity="1"/><line x1="-3.000" y1="1.750" x2="-3.000" y2="-1.750" stroke="#e6e9ef" stroke-width="0.200" stroke-linecap="round" opacity="1"/><line x1="-3.000" y1="1.750" x2="3.000" y2="1.750" stroke="#e6e9ef" stroke-width="0.200" stroke-linecap="round" opacity="1"/><line x1="-1.500" y1="-0.750" x2="1.575" y2="-0.750" stroke="#e6e9ef" stroke-width="0.200" stroke-linecap="round" opacity="1"/><line x1="-1.500" y1="0.750" x2="-1.500" y2="-0.750" stroke="#e6e9ef" stroke-width="0.200" stroke-linecap="round" opacity="1"/><line x1="-1.500" y1="0.750" x2="1.575" y2="0.750" stroke="#e6e9ef" stroke-width="0.200" stroke-linecap="round" opacity="1"/><line x1="1.575" y1="0.750" x2="1.575" y2="-0.750" stroke="#e6e9ef" stroke-width="0.200" stroke-linecap="round" opacity="1"/><line x1="3.000" y1="1.750" x2="3.000" y2="-1.750" stroke="#e6e9ef" stroke-width="0.200" stroke-linecap="round" opacity="1"/><line x1="-6.000" y1="-2.000" x2="6.000" y2="-2.000" stroke="#d24d4d" stroke-width="0.080" stroke-linecap="round" opacity="0.7"/><line x1="-6.000" y1="2.000" x2="-6.000" y2="-2.000" stroke="#d24d4d" stroke-width="0.080" stroke-linecap="round" opacity="0.7"/><line x1="-6.000" y1="2.000" x2="6.000" y2="2.000" stroke="#d24d4d" stroke-width="0.080" stroke-linecap="round" opacity="0.7"/><line x1="6.000" y1="2.000" x2="6.000" y2="-2.000" stroke="#d24d4d" stroke-width="0.080" stroke-linecap="round" opacity="0.7"/><line x1="-3.000" y1="-1.750" x2="3.000" y2="-1.750" stroke="#6b7280" stroke-width="0.100" stroke-linecap="round" opacity="0.8"/><line x1="-3.000" y1="1.750" x2="-3.000" y2="-1.750" stroke="#6b7280" stroke-width="0.100" stroke-linecap="round" opacity="0.8"/><line x1="-3.000" y1="1.750" x2="3.000" y2="1.750" stroke="#6b7280" stroke-width="0.100" stroke-linecap="round" opacity="0.8"/><line x1="-1.500" y1="-0.750" x2="1.575" y2="-0.750" stroke="#6b7280" stroke-width="0.100" stroke-linecap="round" opacity="0.8"/><line x1="-1.500" y1="0.750" x2="-1.500" y2="-0.750" stroke="#6b7280" stroke-width="0.100" stroke-linecap="round" opacity="0.8"/><line x1="-1.500" y1="0.750" x2="1.575" y2="0.750" stroke="#6b7280" stroke-width="0.100" stroke-linecap="round" opacity="0.8"/><line x1="1.575" y1="0.750" x2="1.575" y2="-0.750" stroke="#6b7280" stroke-width="0.100" stroke-linecap="round" opacity="0.8"/><line x1="3.000" y1="1.750" x2="3.000" y2="-1.750" stroke="#6b7280" stroke-width="0.100" stroke-linecap="round" opacity="0.8"/><rect x="-5.700" y="-0.800" width="2.100" height="1.600" rx="0.000" fill="#c79b5c"/><rect x="3.600" y="-0.800" width="2.100" height="1.600" rx="0.000" fill="#c79b5c"/><polygon points="-5.10,1.85 -4.20,1.85 -4.65,1.25" fill="#ffffff"/></svg>