<svg xmlns="http://www.w3.org/2000/svg" viewBox="-5.31 -1.50 18.24 18.24" preserveAspectRatio="xMidYMid meet" style="width:100%;height:100%"><rect x="-5.31" y="-1.50" width="18.24" height="18.24" fill="#12151c"/><rect x="3.810" y="14.732" width="0.508" height="0.254" fill="#1e222b" stroke="#4ea1ff" stroke-width="0.25"/><rect x="3.302" y="14.224" width="1.524" height="0.254" fill="#1e222b" stroke="#4ea1ff" stroke-width="0.25"/><rect x="3.048" y="2.286" width="2.032" height="0.508" fill="#1e222b" stroke="#4ea1ff" stroke-width="0.25"/><rect x="3.048" y="3.048" width="2.032" height="0.508" fill="#1e222b" stroke="#4ea1ff" stroke-width="0.25"/><rect x="3.048" y="4.826" width="2.032" height="0.508" fill="#1e222b" stroke="#4ea1ff" stroke-width="0.25"/><rect x="3.048" y="5.588" width="2.032" height="0.508" fill="#1e222b" stroke="#4ea1ff" stroke-width="0.25"/><rect x="3.048" y="7.366" width="2.032" height="0.508" fill="#1e222b" stroke="#4ea1ff" stroke-width="0.25"/><rect x="3.048" y="8.128" width="2.032" height="0.508" fill="#1e222b" stroke="#4ea1ff" stroke-width="0.25"/><rect x="3.048" y="9.906" width="2.032" height="0.508" fill="#1e222b" stroke="#4ea1ff" stroke-width="0.25"/><rect x="3.048" y="10.668" width="2.032" height="0.508" fill="#1e222b" stroke="#4ea1ff" stroke-width="0.25"/><rect x="3.048" y="13.716" width="2.032" height="0.254" fill="#1e222b" stroke="#4ea1ff" stroke-width="0.25"/><rect x="0.000" y="-0.000" width="7.620" height="15.240" fill="#1e222b" stroke="#4ea1ff" stroke-width="0.25"/><polyline points="0.000,2.540 7.620,2.540" fill="none" stroke="#4ea1ff" stroke-width="0.25" stroke-linejoin="round"/><polyline points="0.000,5.080 7.620,5.080" fill="none" stroke="#4ea1ff" stroke-width="0.25" stroke-linejoin="round"/><polyline points="0.000,7.620 7.620,7.620" fill="none" stroke="#4ea1ff" stroke-width="0.25" stroke-linejoin="round"/><polyline points="0.000,10.160 7.620,10.160" fill="none" stroke="#4ea1ff" stroke-width="0.25" stroke-linejoin="round"/><polyline points="0.000,12.700 7.620,12.700" fill="none" stroke="#4ea1ff" stroke-width="0.25" stroke-linejoin="round"/><polyline points="4.064,4.318 4.064,3.302" fill="none" stroke="#4ea1ff" stroke-width="0.25" stroke-linejoin="round"/><polyline points="4.064,6.858 4.064,5.842" fill="none" stroke="#4ea1ff" stroke-width="0.25" stroke-linejoin="round"/><polyline points="4.064,9.398 4.064,8.382" fill="none" stroke="#4ea1ff" stroke-width="0.25" stroke-linejoin="round"/><polyline points="4.064,12.700 4.064,10.922" fill="none" stroke="#4ea1ff" stroke-width="0.25" stroke-linejoin="round"/><polyline points="4.064,13.716 4.064,12.700" fill="none" stroke="#4ea1ff" stroke-width="0.25" stroke-linejoin="round"/><circle cx="4.064" cy="12.700" r="0.381" fill="none" stroke="#4ea1ff" stroke-width="0.25"/><line x1="-3.810" y1="2.540" x2="0.000" y2="2.540" stroke="#e6e9ef" stroke-width="0.2"/><circle cx="-3.810" cy="2.540" r="0.4" fill="#4ea1ff"/><text x="-0.300" y="2.190" fill="#9aa3b2" font-size="0.9" text-anchor="end" font-family="sans-serif">1</text><line x1="-3.810" y1="5.080" x2="0.000" y2="5.080" stroke="#e6e9ef" stroke-width="0.2"/><circle cx="-3.810" cy="5.080" r="0.4" fill="#4ea1ff"/><text x="-0.300" y="4.730" fill="#9aa3b2" font-size="0.9" text-anchor="end" font-family="sans-serif">2</text><line x1="-3.810" y1="7.620" x2="0.000" y2="7.620" stroke="#e6e9ef" stroke-width="0.2"/><circle cx="-3.810" cy="7.620" r="0.4" fill="#4ea1ff"/><text x="-0.300" y="7.270" fill="#9aa3b2" font-size="0.9" text-anchor="end" font-family="sans-serif">3</text><line x1="-3.810" y1="10.160" x2="0.000" y2="10.160" stroke="#e6e9ef" stroke-width="0.2"/><circle cx="-3.810" cy="10.160" r="0.4" fill="#4ea1ff"/><text x="-0.300" y="9.810" fill="#9aa3b2" font-size="0.9" text-anchor="end" font-family="sans-serif">4</text><line x1="-3.810" y1="12.700" x2="0.000" y2="12.700" stroke="#e6e9ef" stroke-width="0.2"/><circle cx="-3.810" cy="12.700" r="0.4" fill="#4ea1ff"/><text x="-0.300" y="12.350" fill="#9aa3b2" font-size="0.9" text-anchor="end" font-family="sans-serif">9</text><line x1="11.430" y1="2.540" x2="7.620" y2="2.540" stroke="#e6e9ef" stroke-width="0.2"/><circle cx="11.430" cy="2.540" r="0.4" fill="#4ea1ff"/><text x="7.920" y="2.190" fill="#9aa3b2" font-size="0.9" text-anchor="start" font-family="sans-serif">8</text><line x1="11.430" y1="5.080" x2="7.620" y2="5.080" stroke="#e6e9ef" stroke-width="0.2"/><circle cx="11.430" cy="5.080" r="0.4" fill="#4ea1ff"/><text x="7.920" y="4.730" fill="#9aa3b2" font-size="0.9" text-anchor="start" font-family="sans-serif">7</text><line x1="11.430" y1="7.620" x2="7.620" y2="7.620" stroke="#e6e9ef" stroke-width="0.2"/><circle cx="11.430" cy="7.620" r="0.4" fill="#4ea1ff"/><text x="7.920" y="7.270" fill="#9aa3b2" font-size="0.9" text-anchor="start" font-family="sans-serif">6</text><line x1="11.430" y1="10.160" x2="7.620" y2="10.160" stroke="#e6e9ef" stroke-width="0.2"/><circle cx="11.430" cy="10.160" r="0.4" fill="#4ea1ff"/><text x="7.920" y="9.810" fill="#9aa3b2" font-size="0.9" text-anchor="start" font-family="sans-serif">5</text><line x1="11.430" y1="12.700" x2="7.620" y2="12.700" stroke="#e6e9ef" stroke-width="0.2"/><circle cx="11.430" cy="12.700" r="0.4" fill="#4ea1ff"/><text x="7.920" y="12.350" fill="#9aa3b2" font-size="0.9" text-anchor="start" font-family="sans-serif">10</text></svg>