<svg xmlns="http://www.w3.org/2000/svg" viewBox="-6.07 -6.78 12.15 12.23" preserveAspectRatio="xMidYMid meet" style="width:100%;height:100%"><rect x="-6.07" y="-6.78" width="12.15" height="12.23" fill="#12151c"/><path d="M -4.450 -2.770 A 0.230 0.230 0 0 1 -4.450 -2.310" fill="none" stroke="#6b7280" stroke-width="0.12" opacity="0.8"/><path d="M -4.450 -1.500 A 0.230 0.230 0 0 1 -4.450 -1.040" fill="none" stroke="#6b7280" stroke-width="0.12" opacity="0.8"/><path d="M -4.450 -0.230 A 0.230 0.230 0 1 1 -4.450 0.230" fill="none" stroke="#6b7280" stroke-width="0.12" opacity="0.8"/><path d="M -4.450 1.040 A 0.230 0.230 0 0 1 -4.450 1.500" fill="none" stroke="#6b7280" stroke-width="0.12" opacity="0.8"/><path d="M -4.450 2.310 A 0.230 0.230 0 0 1 -4.450 2.770" fill="none" stroke="#6b7280" stroke-width="0.12" opacity="0.8"/><path d="M -3.000 -2.600 A 0.400 0.400 0 0 1 -2.600 -3.000" fill="none" stroke="#6b7280" stroke-width="0.12" opacity="0.8"/><path d="M -2.770 4.450 A 0.230 0.230 0 0 1 -2.310 4.450" fill="none" stroke="#6b7280" stroke-width="0.12" opacity="0.8"/><path d="M -2.600 3.000 A 0.400 0.400 0 0 1 -3.000 2.600" fill="none" stroke="#6b7280" stroke-width="0.12" opacity="0.8"/><path d="M -2.310 -4.450 A 0.230 0.230 0 0 1 -2.770 -4.450" fill="none" stroke="#6b7280" stroke-width="0.12" opacity="0.8"/><path d="M -1.500 4.450 A 0.230 0.230 0 1 1 -1.040 4.450" fill="none" stroke="#6b7280" stroke-width="0.12" opacity="0.8"/><path d="M -1.040 -4.450 A 0.230 0.230 0 1 1 -1.500 -4.450" fill="none" stroke="#6b7280" stroke-width="0.12" opacity="0.8"/><path d="M -0.230 4.450 A 0.230 0.230 0 1 1 0.230 4.450" fill="none" stroke="#6b7280" stroke-width="0.12" opacity="0.8"/><path d="M 0.230 -4.450 A 0.230 0.230 0 1 1 -0.230 -4.450" fill="none" stroke="#6b7280" stroke-width="0.12" opacity="0.8"/><path d="M 1.040 4.450 A 0.230 0.230 0 1 1 1.500 4.450" fill="none" stroke="#6b7280" stroke-width="0.12" opacity="0.8"/><path d="M 1.500 -4.450 A 0.230 0.230 0 1 1 1.040 -4.450" fill="none" stroke="#6b7280" stroke-width="0.12" opacity="0.8"/><path d="M 2.310 4.450 A 0.230 0.230 0 0 1 2.770 4.450" fill="none" stroke="#6b7280" stroke-width="0.12" opacity="0.8"/><path d="M 2.600 -3.000 A 0.400 0.400 0 0 1 3.000 -2.600" fill="none" stroke="#6b7280" stroke-width="0.12" opacity="0.8"/><path d="M 2.770 -4.450 A 0.230 0.230 0 0 1 2.310 -4.450" fill="none" stroke="#6b7280" stroke-width="0.12" opacity="0.8"/><path d="M 3.000 2.600 A 0.400 0.400 0 0 1 2.600 3.000" fill="none" stroke="#6b7280" stroke-width="0.12" opacity="0.8"/><path d="M 4.450 -2.310 A 0.230 0.230 0 0 1 4.450 -2.770" fill="none" stroke="#6b7280" stroke-width="0.12" opacity="0.8"/><path d="M 4.450 -1.040 A 0.230 0.230 0 0 1 4.450 -1.500" fill="none" stroke="#6b7280" stroke-width="0.12" opacity="0.8"/><path d="M 4.450 0.230 A 0.230 0.230 0 1 1 4.450 -0.230" fill="none" stroke="#6b7280" stroke-width="0.12" opacity="0.8"/><path d="M 4.450 1.500 A 0.230 0.230 0 0 1 4.450 1.040" fill="none" stroke="#6b7280" stroke-width="0.12" opacity="0.8"/><path d="M 4.450 2.770 A 0.230 0.230 0 0 1 4.450 2.310" fill="none" stroke="#6b7280" stroke-width="0.12" opacity="0.8"/><circle cx="0.000" cy="-5.650" r="0.125" fill="none" stroke="#e6e9ef" stroke-width="0.12" opacity="1"/><rect x="-1.475" y="-3.925" width="2.950" height="0.650" rx="0.000" fill="#c79b5c"/><rect x="-2.295" y="-4.375" width="2.050" height="0.650" rx="0.000" fill="#c79b5c"/><rect x="-3.565" y="-4.375" width="2.050" height="0.650" rx="0.000" fill="#c79b5c"/><rect x="-5.075" y="-2.865" width="2.050" height="0.650" rx="0.000" fill="#c79b5c"/><rect x="-5.075" y="-1.595" width="2.050" height="0.650" rx="0.000" fill="#c79b5c"/><rect x="-5.075" y="-0.325" width="2.050" height="0.650" rx="0.000" fill="#c79b5c"/><rect x="-5.075" y="0.945" width="2.050" height="0.650" rx="0.000" fill="#c79b5c"/><rect x="-5.075" y="2.215" width="2.050" height="0.650" rx="0.000" fill="#c79b5c"/><rect x="-3.565" y="3.725" width="2.050" height="0.650" rx="0.000" fill="#c79b5c"/><rect x="-2.295" y="3.725" width="2.050" height="0.650" rx="0.000" fill="#c79b5c"/><rect x="-1.025" y="3.725" width="2.050" height="0.650" rx="0.000" fill="#c79b5c"/><rect x="0.245" y="3.725" width="2.050" height="0.650" rx="0.000" fill="#c79b5c"/><rect x="1.515" y="3.725" width="2.050" height="0.650" rx="0.000" fill="#c79b5c"/><rect x="3.025" y="2.215" width="2.050" height="0.650" rx="0.000" fill="#c79b5c"/><rect x="3.025" y="0.945" width="2.050" height="0.650" rx="0.000" fill="#c79b5c"/><rect x="3.025" y="-0.325" width="2.050" height="0.650" rx="0.000" fill="#c79b5c"/><rect x="3.025" y="-1.595" width="2.050" height="0.650" rx="0.000" fill="#c79b5c"/><rect x="3.025" y="-2.865" width="2.050" height="0.650" rx="0.000" fill="#c79b5c"/><rect x="1.515" y="-4.375" width="2.050" height="0.650" rx="0.000" fill="#c79b5c"/><rect x="0.245" y="-4.375" width="2.050" height="0.650" rx="0.000" fill="#c79b5c"/></svg>