<svg xmlns="http://www.w3.org/2000/svg" viewBox="-8.90 -7.00 17.80 14.00" preserveAspectRatio="xMidYMid meet" style="width:100%;height:100%"><rect x="-8.90" y="-7.00" width="17.80" height="14.00" fill="#12151c"/><line x1="-5.400" y1="-2.700" x2="-2.700" y2="-5.400" stroke="#e6e9ef" stroke-width="0.200" stroke-linecap="round" opacity="1"/><line x1="-5.400" y1="-1.450" x2="-5.400" y2="-2.700" stroke="#e6e9ef" stroke-width="0.200" stroke-linecap="round" opacity="1"/><line x1="-5.400" y1="2.700" x2="-5.400" y2="1.450" stroke="#e6e9ef" stroke-width="0.200" stroke-linecap="round" opacity="1"/><line x1="-5.400" y1="2.700" x2="-2.700" y2="5.400" stroke="#e6e9ef" stroke-width="0.200" stroke-linecap="round" opacity="1"/><line x1="-2.700" y1="-5.400" x2="5.400" y2="-5.400" stroke="#e6e9ef" stroke-width="0.200" stroke-linecap="round" opacity="1"/><line x1="-2.700" y1="5.400" x2="5.400" y2="5.400" stroke="#e6e9ef" stroke-width="0.200" stroke-linecap="round" opacity="1"/><line x1="5.400" y1="-1.450" x2="5.400" y2="-5.400" stroke="#e6e9ef" stroke-width="0.200" stroke-linecap="round" opacity="1"/><line x1="5.400" y1="5.400" x2="5.400" y2="1.450" stroke="#e6e9ef" stroke-width="0.200" stroke-linecap="round" opacity="1"/><line x1="-7.900" y1="-6.000" x2="7.900" y2="-6.000" stroke="#d24d4d" stroke-width="0.080" stroke-linecap="round" opacity="0.7"/><line x1="-7.900" y1="6.000" x2="-7.900" y2="-6.000" stroke="#d24d4d" stroke-width="0.080" stroke-linecap="round" opacity="0.7"/><line x1="-7.900" y1="6.000" x2="7.900" y2="6.000" stroke="#d24d4d" stroke-width="0.080" stroke-linecap="round" opacity="0.7"/><line x1="7.900" y1="6.000" x2="7.900" y2="-6.000" stroke="#d24d4d" stroke-width="0.080" stroke-linecap="round" opacity="0.7"/><line x1="-5.400" y1="-2.700" x2="-2.700" y2="-5.400" stroke="#6b7280" stroke-width="0.100" stroke-linecap="round" opacity="0.8"/><line x1="-5.400" y1="2.700" x2="-5.400" y2="-2.700" stroke="#6b7280" stroke-width="0.100" stroke-linecap="round" opacity="0.8"/><line x1="-5.400" y1="2.700" x2="-2.700" y2="5.400" stroke="#6b7280" stroke-width="0.100" stroke-linecap="round" opacity="0.8"/><line x1="-2.700" y1="-5.400" x2="5.400" y2="-5.400" stroke="#6b7280" stroke-width="0.100" stroke-linecap="round" opacity="0.8"/><line x1="-2.700" y1="5.400" x2="5.400" y2="5.400" stroke="#6b7280" stroke-width="0.100" stroke-linecap="round" opacity="0.8"/><line x1="5.400" y1="5.400" x2="5.400" y2="-5.400" stroke="#6b7280" stroke-width="0.100" stroke-linecap="round" opacity="0.8"/><circle cx="-6.872" cy="-1.765" r="0.150" fill="#e6e9ef" opacity="1"/><rect x="-7.400" y="-1.075" width="5.400" height="2.150" rx="0.000" fill="#c79b5c"/><rect x="2.000" y="-1.075" width="5.400" height="2.150" rx="0.000" fill="#c79b5c"/><polygon points="-5.15,2.12 -4.25,2.12 -4.70,1.52" fill="#ffffff"/></svg>