<svg xmlns="http://www.w3.org/2000/svg" viewBox="-20.55 -4.33 41.10 8.06" preserveAspectRatio="xMidYMid meet" style="width:100%;height:100%"><rect x="-20.55" y="-4.33" width="41.10" height="8.06" fill="#12151c"/><line x1="-19.304" y1="-2.477" x2="-18.107" y2="-2.477" stroke="#e6e9ef" stroke-width="0.200" stroke-linecap="round" opacity="1"/><line x1="-19.304" y1="2.477" x2="-19.304" y2="-2.477" stroke="#e6e9ef" stroke-width="0.200" stroke-linecap="round" opacity="1"/><line x1="-19.304" y1="2.477" x2="-18.107" y2="2.477" stroke="#e6e9ef" stroke-width="0.200" stroke-linecap="round" opacity="1"/><line x1="-17.453" y1="-2.477" x2="-15.567" y2="-2.477" stroke="#e6e9ef" stroke-width="0.200" stroke-linecap="round" opacity="1"/><line x1="-17.453" y1="2.477" x2="-15.567" y2="2.477" stroke="#e6e9ef" stroke-width="0.200" stroke-linecap="round" opacity="1"/><line x1="-14.913" y1="-2.477" x2="-13.027" y2="-2.477" stroke="#e6e9ef" stroke-width="0.200" stroke-linecap="round" opacity="1"/><line x1="-14.913" y1="2.477" x2="-13.027" y2="2.477" stroke="#e6e9ef" stroke-width="0.200" stroke-linecap="round" opacity="1"/><line x1="-12.373" y1="-2.477" x2="-10.487" y2="-2.477" stroke="#e6e9ef" stroke-width="0.200" stroke-linecap="round" opacity="1"/><line x1="-12.373" y1="2.477" x2="-10.487" y2="2.477" stroke="#e6e9ef" stroke-width="0.200" stroke-linecap="round" opacity="1"/><line x1="-9.833" y1="-2.477" x2="-7.947" y2="-2.477" stroke="#e6e9ef" stroke-width="0.200" stroke-linecap="round" opacity="1"/><line x1="-9.833" y1="2.477" x2="-7.947" y2="2.477" stroke="#e6e9ef" stroke-width="0.200" stroke-linecap="round" opacity="1"/><line x1="-7.293" y1="-2.477" x2="-5.407" y2="-2.477" stroke="#e6e9ef" stroke-width="0.200" stroke-linecap="round" opacity="1"/><line x1="-7.293" y1="2.477" x2="-5.407" y2="2.477" stroke="#e6e9ef" stroke-width="0.200" stroke-linecap="round" opacity="1"/><line x1="-4.753" y1="-2.477" x2="-2.867" y2="-2.477" stroke="#e6e9ef" stroke-width="0.200" stroke-linecap="round" opacity="1"/><line x1="-4.753" y1="2.477" x2="-2.867" y2="2.477" stroke="#e6e9ef" stroke-width="0.200" stroke-linecap="round" opacity="1"/><line x1="-2.213" y1="-2.477" x2="-0.327" y2="-2.477" stroke="#e6e9ef" stroke-width="0.200" stroke-linecap="round" opacity="1"/><line x1="-2.213" y1="2.477" x2="-0.327" y2="2.477" stroke="#e6e9ef" stroke-width="0.200" stroke-linecap="round" opacity="1"/><line x1="0.327" y1="-2.477" x2="2.213" y2="-2.477" stroke="#e6e9ef" stroke-width="0.200" stroke-linecap="round" opacity="1"/><line x1="0.327" y1="2.477" x2="2.213" y2="2.477" stroke="#e6e9ef" stroke-width="0.200" stroke-linecap="round" opacity="1"/><line x1="2.867" y1="-2.477" x2="4.753" y2="-2.477" stroke="#e6e9ef" stroke-width="0.200" stroke-linecap="round" opacity="1"/><line x1="2.867" y1="2.477" x2="4.753" y2="2.477" stroke="#e6e9ef" stroke-width="0.200" stroke-linecap="round" opacity="1"/><line x1="5.407" y1="-2.477" x2="7.293" y2="-2.477" stroke="#e6e9ef" stroke-width="0.200" stroke-linecap="round" opacity="1"/><line x1="5.407" y1="2.477" x2="7.293" y2="2.477" stroke="#e6e9ef" stroke-width="0.200" stroke-linecap="round" opacity="1"/><line x1="7.947" y1="-2.477" x2="9.833" y2="-2.477" stroke="#e6e9ef" stroke-width="0.200" stroke-linecap="round" opacity="1"/><line x1="7.947" y1="2.477" x2="9.833" y2="2.477" stroke="#e6e9ef" stroke-width="0.200" stroke-linecap="round" opacity="1"/><line x1="10.487" y1="-2.477" x2="12.373" y2="-2.477" stroke="#e6e9ef" stroke-width="0.200" stroke-linecap="round" opacity="1"/><line x1="10.487" y1="2.477" x2="12.373" y2="2.477" stroke="#e6e9ef" stroke-width="0.200" stroke-linecap="round" opacity="1"/><line x1="13.027" y1="-2.477" x2="14.913" y2="-2.477" stroke="#e6e9ef" stroke-width="0.200" stroke-linecap="round" opacity="1"/><line x1="13.027" y1="2.477" x2="14.913" y2="2.477" stroke="#e6e9ef" stroke-width="0.200" stroke-linecap="round" opacity="1"/><line x1="15.567" y1="-2.477" x2="17.453" y2="-2.477" stroke="#e6e9ef" stroke-width="0.200" stroke-linecap="round" opacity="1"/><line x1="15.567" y1="2.477" x2="17.453" y2="2.477" stroke="#e6e9ef" stroke-width="0.200" stroke-linecap="round" opacity="1"/><line x1="18.107" y1="-2.477" x2="19.304" y2="-2.477" stroke="#e6e9ef" stroke-width="0.200" stroke-linecap="round" opacity="1"/><line x1="18.107" y1="2.477" x2="19.304" y2="2.477" stroke="#e6e9ef" stroke-width="0.200" stroke-linecap="round" opacity="1"/><line x1="19.304" y1="2.477" x2="19.304" y2="-2.477" stroke="#e6e9ef" stroke-width="0.200" stroke-linecap="round" opacity="1"/><line x1="-17.980" y1="-1.270" x2="-17.780" y2="-1.270" stroke="#4a5160" stroke-width="0.080" stroke-linecap="round" opacity="0.7"/><line x1="-17.980" y1="1.270" x2="-17.780" y2="1.270" stroke="#4a5160" stroke-width="0.080" stroke-linecap="round" opacity="0.7"/><line x1="-17.780" y1="-1.270" x2="-17.780" y2="-1.470" stroke="#4a5160" stroke-width="0.080" stroke-linecap="round" opacity="0.7"/><line x1="-17.780" y1="-1.270" x2="-17.580" y2="-1.270" stroke="#4a5160" stroke-width="0.080" stroke-linecap="round" opacity="0.7"/><line x1="-17.780" y1="-1.070" x2="-17.780" y2="-1.270" stroke="#4a5160" stroke-width="0.080" stroke-linecap="round" opacity="0.7"/><line x1="-17.780" y1="1.270" x2="-17.780" y2="1.070" stroke="#4a5160" stroke-width="0.080" stroke-linecap="round" opacity="0.7"/><line x1="-17.780" y1="1.270" x2="-17.580" y2="1.270" stroke="#4a5160" stroke-width="0.080" stroke-linecap="round" opacity="0.7"/><line x1="-17.780" y1="1.470" x2="-17.780" y2="1.270" stroke="#4a5160" stroke-width="0.080" stroke-linecap="round" opacity="0.7"/><line x1="-15.440" y1="-1.270" x2="-15.240" y2="-1.270" stroke="#4a5160" stroke-width="0.080" stroke-linecap="round" opacity="0.7"/><line x1="-15.440" y1="1.270" x2="-15.240" y2="1.270" stroke="#4a5160" stroke-width="0.080" stroke-linecap="round" opacity="0.7"/><line x1="-15.240" y1="-1.270" x2="-15.240" y2="-1.470" stroke="#4a5160" stroke-width="0.080" stroke-linecap="round" opacity="0.7"/><line x1="-15.240" y1="-1.270" x2="-15.040" y2="-1.270" stroke="#4a5160" stroke-width="0.080" stroke-linecap="round" opacity="0.7"/><line x1="-15.240" y1="-1.070" x2="-15.240" y2="-1.270" stroke="#4a5160" stroke-width="0.080" stroke-linecap="round" opacity="0.7"/><line x1="-15.240" y1="1.270" x2="-15.240" y2="1.070" stroke="#4a5160" stroke-width="0.080" stroke-linecap="round" opacity="0.7"/><line x1="-15.240" y1="1.270" x2="-15.040" y2="1.270" stroke="#4a5160" stroke-width="0.080" stroke-linecap="round" opacity="0.7"/><line x1="-15.240" y1="1.470" x2="-15.240" y2="1.270" stroke="#4a5160" stroke-width="0.080" stroke-linecap="round" opacity="0.7"/><line x1="-12.900" y1="-1.270" x2="-12.700" y2="-1.270" stroke="#4a5160" stroke-width="0.080" stroke-linecap="round" opacity="0.7"/><line x1="-12.900" y1="1.270" x2="-12.700" y2="1.270" stroke="#4a5160" stroke-width="0.080" stroke-linecap="round" opacity="0.7"/><line x1="-12.700" y1="-1.270" x2="-12.700" y2="-1.470" stroke="#4a5160" stroke-width="0.080" stroke-linecap="round" opacity="0.7"/><line x1="-12.700" y1="-1.270" x2="-12.500" y2="-1.270" stroke="#4a5160" stroke-width="0.080" stroke-linecap="round" opacity="0.7"/><line x1="-12.700" y1="-1.070" x2="-12.700" y2="-1.270" stroke="#4a5160" stroke-width="0.080" stroke-linecap="round" opacity="0.7"/><line x1="-12.700" y1="1.270" x2="-12.700" y2="1.070" stroke="#4a5160" stroke-width="0.080" stroke-linecap="round" opacity="0.7"/><line x1="-12.700" y1="1.270" x2="-12.500" y2="1.270" stroke="#4a5160" stroke-width="0.080" stroke-linecap="round" opacity="0.7"/><line x1="-12.700" y1="1.470" x2="-12.700" y2="1.270" stroke="#4a5160" stroke-width="0.080" stroke-linecap="round" opacity="0.7"/><line x1="-10.360" y1="-1.270" x2="-10.160" y2="-1.270" stroke="#4a5160" stroke-width="0.080" stroke-linecap="round" opacity="0.7"/><line x1="-10.360" y1="1.270" x2="-10.160" y2="1.270" stroke="#4a5160" stroke-width="0.080" stroke-linecap="round" opacity="0.7"/><line x1="-10.160" y1="-1.270" x2="-10.160" y2="-1.470" stroke="#4a5160" stroke-width="0.080" stroke-linecap="round" opacity="0.7"/><line x1="-10.160" y1="-1.270" x2="-9.960" y2="-1.270" stroke="#4a5160" stroke-width="0.080" stroke-linecap="round" opacity="0.7"/><line x1="-10.160" y1="-1.070" x2="-10.160" y2="-1.270" stroke="#4a5160" stroke-width="0.080" stroke-linecap="round" opacity="0.7"/><line x1="-10.160" y1="1.270" x2="-10.160" y2="1.070" stroke="#4a5160" stroke-width="0.080" stroke-linecap="round" opacity="0.7"/><line x1="-10.160" y1="1.270" x2="-9.960" y2="1.270" stroke="#4a5160" stroke-width="0.080" stroke-linecap="round" opacity="0.7"/><line x1="-10.160" y1="1.470" x2="-10.160" y2="1.270" stroke="#4a5160" stroke-width="0.080" stroke-linecap="round" opacity="0.7"/><line x1="-7.820" y1="-1.270" x2="-7.620" y2="-1.270" stroke="#4a5160" stroke-width="0.080" stroke-linecap="round" opacity="0.7"/><line x1="-7.820" y1="1.270" x2="-7.620" y2="1.270" stroke="#4a5160" stroke-width="0.080" stroke-linecap="round" opacity="0.7"/><line x1="-7.620" y1="-1.270" x2="-7.620" y2="-1.470" stroke="#4a5160" stroke-width="0.080" stroke-linecap="round" opacity="0.7"/><line x1="-7.620" y1="-1.270" x2="-7.420" y2="-1.270" stroke="#4a5160" stroke-width="0.080" stroke-linecap="round" opacity="0.7"/><line x1="-7.620" y1="-1.070" x2="-7.620" y2="-1.270" stroke="#4a5160" stroke-width="0.080" stroke-linecap="round" opacity="0.7"/><line x1="-7.620" y1="1.270" x2="-7.620" y2="1.070" stroke="#4a5160" stroke-width="0.080" stroke-linecap="round" opacity="0.7"/><line x1="-7.620" y1="1.270" x2="-7.420" y2="1.270" stroke="#4a5160" stroke-width="0.080" stroke-linecap="round" opacity="0.7"/><line x1="-7.620" y1="1.470" x2="-7.620" y2="1.270" stroke="#4a5160" stroke-width="0.080" stroke-linecap="round" opacity="0.7"/><line x1="-5.280" y1="-1.270" x2="-5.080" y2="-1.270" stroke="#4a5160" stroke-width="0.080" stroke-linecap="round" opacity="0.7"/><line x1="-5.280" y1="1.270" x2="-5.080" y2="1.270" stroke="#4a5160" stroke-width="0.080" stroke-linecap="round" opacity="0.7"/><line x1="-5.080" y1="-1.270" x2="-5.080" y2="-1.470" stroke="#4a5160" stroke-width="0.080" stroke-linecap="round" opacity="0.7"/><line x1="-5.080" y1="-1.270" x2="-4.880" y2="-1.270" stroke="#4a5160" stroke-width="0.080" stroke-linecap="round" opacity="0.7"/><line x1="-5.080" y1="-1.070" x2="-5.080" y2="-1.270" stroke="#4a5160" stroke-width="0.080" stroke-linecap="round" opacity="0.7"/><line x1="-5.080" y1="1.270" x2="-5.080" y2="1.070" stroke="#4a5160" stroke-width="0.080" stroke-linecap="round" opacity="0.7"/><line x1="-5.080" y1="1.270" x2="-4.880" y2="1.270" stroke="#4a5160" stroke-width="0.080" stroke-linecap="round" opacity="0.7"/><line x1="-5.080" y1="1.470" x2="-5.080" y2="1.270" stroke="#4a5160" stroke-width="0.080" stroke-linecap="round" opacity="0.7"/><line x1="-2.740" y1="-1.270" x2="-2.540" y2="-1.270" stroke="#4a5160" stroke-width="0.080" stroke-linecap="round" opacity="0.7"/><line x1="-2.740" y1="1.270" x2="-2.540" y2="1.270" stroke="#4a5160" stroke-width="0.080" stroke-linecap="round" opacity="0.7"/><line x1="-2.540" y1="-1.270" x2="-2.540" y2="-1.470" stroke="#4a5160" stroke-width="0.080" stroke-linecap="round" opacity="0.7"/><line x1="-2.540" y1="-1.270" x2="-2.340" y2="-1.270" stroke="#4a5160" stroke-width="0.080" stroke-linecap="round" opacity="0.7"/><line x1="-2.540" y1="-1.070" x2="-2.540" y2="-1.270" stroke="#4a5160" stroke-width="0.080" stroke-linecap="round" opacity="0.7"/><line x1="-2.540" y1="1.270" x2="-2.540" y2="1.070" stroke="#4a5160" stroke-width="0.080" stroke-linecap="round" opacity="0.7"/><line x1="-2.540" y1="1.270" x2="-2.340" y2="1.270" stroke="#4a5160" stroke-width="0.080" stroke-linecap="round" opacity="0.7"/><line x1="-2.540" y1="1.470" x2="-2.540" y2="1.270" stroke="#4a5160" stroke-width="0.080" stroke-linecap="round" opacity="0.7"/><line x1="-0.500" y1="0.000" x2="0.000" y2="0.000" stroke="#4a5160" stroke-width="0.080" stroke-linecap="round" opacity="0.7"/><line x1="-0.200" y1="-1.270" x2="0.000" y2="-1.270" stroke="#4a5160" stroke-width="0.080" stroke-linecap="round" opacity="0.7"/><line x1="-0.200" y1="1.270" x2="0.000" y2="1.270" stroke="#4a5160" stroke-width="0.080" stroke-linecap="round" opacity="0.7"/><line x1="0.000" y1="-1.270" x2="0.000" y2="-1.470" stroke="#4a5160" stroke-width="0.080" stroke-linecap="round" opacity="0.7"/><line x1="0.000" y1="-1.270" x2="0.200" y2="-1.270" stroke="#4a5160" stroke-width="0.080" stroke-linecap="round" opacity="0.7"/><line x1="0.000" y1="-1.070" x2="0.000" y2="-1.270" stroke="#4a5160" stroke-width="0.080" stroke-linecap="round" opacity="0.7"/><line x1="0.000" y1="0.000" x2="0.000" y2="-0.500" stroke="#4a5160" stroke-width="0.080" stroke-linecap="round" opacity="0.7"/><line x1="0.000" y1="0.000" x2="0.500" y2="0.000" stroke="#4a5160" stroke-width="0.080" stroke-linecap="round" opacity="0.7"/><line x1="0.000" y1="0.500" x2="0.000" y2="0.000" stroke="#4a5160" stroke-width="0.080" stroke-linecap="round" opacity="0.7"/><line x1="0.000" y1="1.270" x2="0.000" y2="1.070" stroke="#4a5160" stroke-width="0.080" stroke-linecap="round" opacity="0.7"/><line x1="0.000" y1="1.270" x2="0.200" y2="1.270" stroke="#4a5160" stroke-width="0.080" stroke-linecap="round" opacity="0.7"/><line x1="0.000" y1="1.470" x2="0.000" y2="1.270" stroke="#4a5160" stroke-width="0.080" stroke-linecap="round" opacity="0.7"/><line x1="2.340" y1="-1.270" x2="2.540" y2="-1.270" stroke="#4a5160" stroke-width="0.080" stroke-linecap="round" opacity="0.7"/><line x1="2.340" y1="1.270" x2="2.540" y2="1.270" stroke="#4a5160" stroke-width="0.080" stroke-linecap="round" opacity="0.7"/><line x1="2.540" y1="-1.270" x2="2.540" y2="-1.470" stroke="#4a5160" stroke-width="0.080" stroke-linecap="round" opacity="0.7"/><line x1="2.540" y1="-1.270" x2="2.740" y2="-1.270" stroke="#4a5160" stroke-width="0.080" stroke-linecap="round" opacity="0.7"/><line x1="2.540" y1="-1.070" x2="2.540" y2="-1.270" stroke="#4a5160" stroke-width="0.080" stroke-linecap="round" opacity="0.7"/><line x1="2.540" y1="1.270" x2="2.540" y2="1.070" stroke="#4a5160" stroke-width="0.080" stroke-linecap="round" opacity="0.7"/><line x1="2.540" y1="1.270" x2="2.740" y2="1.270" stroke="#4a5160" stroke-width="0.080" stroke-linecap="round" opacity="0.7"/><line x1="2.540" y1="1.470" x2="2.540" y2="1.270" stroke="#4a5160" stroke-width="0.080" stroke-linecap="round" opacity="0.7"/><line x1="4.880" y1="-1.270" x2="5.080" y2="-1.270" stroke="#4a5160" stroke-width="0.080" stroke-linecap="round" opacity="0.7"/><line x1="4.880" y1="1.270" x2="5.080" y2="1.270" stroke="#4a5160" stroke-width="0.080" stroke-linecap="round" opacity="0.7"/><line x1="5.080" y1="-1.270" x2="5.080" y2="-1.470" stroke="#4a5160" stroke-width="0.080" stroke-linecap="round" opacity="0.7"/><line x1="5.080" y1="-1.270" x2="5.280" y2="-1.270" stroke="#4a5160" stroke-width="0.080" stroke-linecap="round" opacity="0.7"/><line x1="5.080" y1="-1.070" x2="5.080" y2="-1.270" stroke="#4a5160" stroke-width="0.080" stroke-linecap="round" opacity="0.7"/><line x1="5.080" y1="1.270" x2="5.080" y2="1.070" stroke="#4a5160" stroke-width="0.080" stroke-linecap="round" opacity="0.7"/><line x1="5.080" y1="1.270" x2="5.280" y2="1.270" stroke="#4a5160" stroke-width="0.080" stroke-linecap="round" opacity="0.7"/><line x1="5.080" y1="1.470" x2="5.080" y2="1.270" stroke="#4a5160" stroke-width="0.080" stroke-linecap="round" opacity="0.7"/><line x1="7.420" y1="-1.270" x2="7.620" y2="-1.270" stroke="#4a5160" stroke-width="0.080" stroke-linecap="round" opacity="0.7"/><line x1="7.420" y1="1.270" x2="7.620" y2="1.270" stroke="#4a5160" stroke-width="0.080" stroke-linecap="round" opacity="0.7"/><line x1="7.620" y1="-1.270" x2="7.620" y2="-1.470" stroke="#4a5160" stroke-width="0.080" stroke-linecap="round" opacity="0.7"/><line x1="7.620" y1="-1.270" x2="7.820" y2="-1.270" stroke="#4a5160" stroke-width="0.080" stroke-linecap="round" opacity="0.7"/><line x1="7.620" y1="-1.070" x2="7.620" y2="-1.270" stroke="#4a5160" stroke-width="0.080" stroke-linecap="round" opacity="0.7"/><line x1="7.620" y1="1.270" x2="7.620" y2="1.070" stroke="#4a5160" stroke-width="0.080" stroke-linecap="round" opacity="0.7"/><line x1="7.620" y1="1.270" x2="7.820" y2="1.270" stroke="#4a5160" stroke-width="0.080" stroke-linecap="round" opacity="0.7"/><line x1="7.620" y1="1.470" x2="7.620" y2="1.270" stroke="#4a5160" stroke-width="0.080" stroke-linecap="round" opacity="0.7"/><line x1="9.960" y1="-1.270" x2="10.160" y2="-1.270" stroke="#4a5160" stroke-width="0.080" stroke-linecap="round" opacity="0.7"/><line x1="9.960" y1="1.270" x2="10.160" y2="1.270" stroke="#4a5160" stroke-width="0.080" stroke-linecap="round" opacity="0.7"/><line x1="10.160" y1="-1.270" x2="10.160" y2="-1.470" stroke="#4a5160" stroke-width="0.080" stroke-linecap="round" opacity="0.7"/><line x1="10.160" y1="-1.270" x2="10.360" y2="-1.270" stroke="#4a5160" stroke-width="0.080" stroke-linecap="round" opacity="0.7"/><line x1="10.160" y1="-1.070" x2="10.160" y2="-1.270" stroke="#4a5160" stroke-width="0.080" stroke-linecap="round" opacity="0.7"/><line x1="10.160" y1="1.270" x2="10.160" y2="1.070" stroke="#4a5160" stroke-width="0.080" stroke-linecap="round" opacity="0.7"/><line x1="10.160" y1="1.270" x2="10.360" y2="1.270" stroke="#4a5160" stroke-width="0.080" stroke-linecap="round" opacity="0.7"/><line x1="10.160" y1="1.470" x2="10.160" y2="1.270" stroke="#4a5160" stroke-width="0.080" stroke-linecap="round" opacity="0.7"/><line x1="12.500" y1="-1.270" x2="12.700" y2="-1.270" stroke="#4a5160" stroke-width="0.080" stroke-linecap="round" opacity="0.7"/><line x1="12.500" y1="1.270" x2="12.700" y2="1.270" stroke="#4a5160" stroke-width="0.080" stroke-linecap="round" opacity="0.7"/><line x1="12.700" y1="-1.270" x2="12.700" y2="-1.470" stroke="#4a5160" stroke-width="0.080" stroke-linecap="round" opacity="0.7"/><line x1="12.700" y1="-1.270" x2="12.900" y2="-1.270" stroke="#4a5160" stroke-width="0.080" stroke-linecap="round" opacity="0.7"/><line x1="12.700" y1="-1.070" x2="12.700" y2="-1.270" stroke="#4a5160" stroke-width="0.080" stroke-linecap="round" opacity="0.7"/><line x1="12.700" y1="1.270" x2="12.700" y2="1.070" stroke="#4a5160" stroke-width="0.080" stroke-linecap="round" opacity="0.7"/><line x1="12.700" y1="1.270" x2="12.900" y2="1.270" stroke="#4a5160" stroke-width="0.080" stroke-linecap="round" opacity="0.7"/><line x1="12.700" y1="1.470" x2="12.700" y2="1.270" stroke="#4a5160" stroke-width="0.080" stroke-linecap="round" opacity="0.7"/><line x1="15.040" y1="-1.270" x2="15.240" y2="-1.270" stroke="#4a5160" stroke-width="0.080" stroke-linecap="round" opacity="0.7"/><line x1="15.040" y1="1.270" x2="15.240" y2="1.270" stroke="#4a5160" stroke-width="0.080" stroke-linecap="round" opacity="0.7"/><line x1="15.240" y1="-1.270" x2="15.240" y2="-1.470" stroke="#4a5160" stroke-width="0.080" stroke-linecap="round" opacity="0.7"/><line x1="15.240" y1="-1.270" x2="15.440" y2="-1.270" stroke="#4a5160" stroke-width="0.080" stroke-linecap="round" opacity="0.7"/><line x1="15.240" y1="-1.070" x2="15.240" y2="-1.270" stroke="#4a5160" stroke-width="0.080" stroke-linecap="round" opacity="0.7"/><line x1="15.240" y1="1.270" x2="15.240" y2="1.070" stroke="#4a5160" stroke-width="0.080" stroke-linecap="round" opacity="0.7"/><line x1="15.240" y1="1.270" x2="15.440" y2="1.270" stroke="#4a5160" stroke-width="0.080" stroke-linecap="round" opacity="0.7"/><line x1="15.240" y1="1.470" x2="15.240" y2="1.270" stroke="#4a5160" stroke-width="0.080" stroke-linecap="round" opacity="0.7"/><line x1="17.580" y1="-1.270" x2="17.780" y2="-1.270" stroke="#4a5160" stroke-width="0.080" stroke-linecap="round" opacity="0.7"/><line x1="17.580" y1="1.270" x2="17.780" y2="1.270" stroke="#4a5160" stroke-width="0.080" stroke-linecap="round" opacity="0.7"/><line x1="17.780" y1="-1.270" x2="17.780" y2="-1.470" stroke="#4a5160" stroke-width="0.080" stroke-linecap="round" opacity="0.7"/><line x1="17.780" y1="-1.270" x2="17.980" y2="-1.270" stroke="#4a5160" stroke-width="0.080" stroke-linecap="round" opacity="0.7"/><line x1="17.780" y1="-1.070" x2="17.780" y2="-1.270" stroke="#4a5160" stroke-width="0.080" stroke-linecap="round" opacity="0.7"/><line x1="17.780" y1="1.270" x2="17.780" y2="1.070" stroke="#4a5160" stroke-width="0.080" stroke-linecap="round" opacity="0.7"/><line x1="17.780" y1="1.270" x2="17.980" y2="1.270" stroke="#4a5160" stroke-width="0.080" stroke-linecap="round" opacity="0.7"/><line x1="17.780" y1="1.470" x2="17.780" y2="1.270" stroke="#4a5160" stroke-width="0.080" stroke-linecap="round" opacity="0.7"/><line x1="-19.304" y1="-2.477" x2="19.304" y2="-2.477" stroke="#6b7280" stroke-width="0.100" stroke-linecap="round" opacity="0.8"/><line x1="-19.304" y1="2.477" x2="-19.304" y2="-2.477" stroke="#6b7280" stroke-width="0.100" stroke-linecap="round" opacity="0.8"/><line x1="-19.304" y1="2.477" x2="19.304" y2="2.477" stroke="#6b7280" stroke-width="0.100" stroke-linecap="round" opacity="0.8"/><line x1="-18.174" y1="-1.664" x2="-17.386" y2="-1.664" stroke="#6b7280" stroke-width="0.100" stroke-linecap="round" opacity="0.8"/><line x1="-18.174" y1="-0.876" x2="-18.174" y2="-1.664" stroke="#6b7280" stroke-width="0.100" stroke-linecap="round" opacity="0.8"/><line x1="-18.174" y1="-0.876" x2="-17.386" y2="-0.876" stroke="#6b7280" stroke-width="0.100" stroke-linecap="round" opacity="0.8"/><line x1="-18.174" y1="0.876" x2="-17.386" y2="0.876" stroke="#6b7280" stroke-width="0.100" stroke-linecap="round" opacity="0.8"/><line x1="-18.174" y1="1.664" x2="-18.174" y2="0.876" stroke="#6b7280" stroke-width="0.100" stroke-linecap="round" opacity="0.8"/><line x1="-18.174" y1="1.664" x2="-17.386" y2="1.664" stroke="#6b7280" stroke-width="0.100" stroke-linecap="round" opacity="0.8"/><line x1="-17.386" y1="-0.876" x2="-17.386" y2="-1.664" stroke="#6b7280" stroke-width="0.100" stroke-linecap="round" opacity="0.8"/><line x1="-17.386" y1="1.664" x2="-17.386" y2="0.876" stroke="#6b7280" stroke-width="0.100" stroke-linecap="round" opacity="0.8"/><line x1="-15.634" y1="-1.664" x2="-14.846" y2="-1.664" stroke="#6b7280" stroke-width="0.100" stroke-linecap="round" opacity="0.8"/><line x1="-15.634" y1="-0.876" x2="-15.634" y2="-1.664" stroke="#6b7280" stroke-width="0.100" stroke-linecap="round" opacity="0.8"/><line x1="-15.634" y1="-0.876" x2="-14.846" y2="-0.876" stroke="#6b7280" stroke-width="0.100" stroke-linecap="round" opacity="0.8"/><line x1="-15.634" y1="0.876" x2="-14.846" y2="0.876" stroke="#6b7280" stroke-width="0.100" stroke-linecap="round" opacity="0.8"/><line x1="-15.634" y1="1.664" x2="-15.634" y2="0.876" stroke="#6b7280" stroke-width="0.100" stroke-linecap="round" opacity="0.8"/><line x1="-15.634" y1="1.664" x2="-14.846" y2="1.664" stroke="#6b7280" stroke-width="0.100" stroke-linecap="round" opacity="0.8"/><line x1="-14.846" y1="-0.876" x2="-14.846" y2="-1.664" stroke="#6b7280" stroke-width="0.100" stroke-linecap="round" opacity="0.8"/><line x1="-14.846" y1="1.664" x2="-14.846" y2="0.876" stroke="#6b7280" stroke-width="0.100" stroke-linecap="round" opacity="0.8"/><line x1="-13.094" y1="-1.664" x2="-12.306" y2="-1.664" stroke="#6b7280" stroke-width="0.100" stroke-linecap="round" opacity="0.8"/><line x1="-13.094" y1="-0.876" x2="-13.094" y2="-1.664" stroke="#6b7280" stroke-width="0.100" stroke-linecap="round" opacity="0.8"/><line x1="-13.094" y1="-0.876" x2="-12.306" y2="-0.876" stroke="#6b7280" stroke-width="0.100" stroke-linecap="round" opacity="0.8"/><line x1="-13.094" y1="0.876" x2="-12.306" y2="0.876" stroke="#6b7280" stroke-width="0.100" stroke-linecap="round" opacity="0.8"/><line x1="-13.094" y1="1.664" x2="-13.094" y2="0.876" stroke="#6b7280" stroke-width="0.100" stroke-linecap="round" opacity="0.8"/><line x1="-13.094" y1="1.664" x2="-12.306" y2="1.664" stroke="#6b7280" stroke-width="0.100" stroke-linecap="round" opacity="0.8"/><line x1="-12.306" y1="-0.876" x2="-12.306" y2="-1.664" stroke="#6b7280" stroke-width="0.100" stroke-linecap="round" opacity="0.8"/><line x1="-12.306" y1="1.664" x2="-12.306" y2="0.876" stroke="#6b7280" stroke-width="0.100" stroke-linecap="round" opacity="0.8"/><line x1="-10.554" y1="-1.664" x2="-9.766" y2="-1.664" stroke="#6b7280" stroke-width="0.100" stroke-linecap="round" opacity="0.8"/><line x1="-10.554" y1="-0.876" x2="-10.554" y2="-1.664" stroke="#6b7280" stroke-width="0.100" stroke-linecap="round" opacity="0.8"/><line x1="-10.554" y1="-0.876" x2="-9.766" y2="-0.876" stroke="#6b7280" stroke-width="0.100" stroke-linecap="round" opacity="0.8"/><line x1="-10.554" y1="0.876" x2="-9.766" y2="0.876" stroke="#6b7280" stroke-width="0.100" stroke-linecap="round" opacity="0.8"/><line x1="-10.554" y1="1.664" x2="-10.554" y2="0.876" stroke="#6b7280" stroke-width="0.100" stroke-linecap="round" opacity="0.8"/><line x1="-10.554" y1="1.664" x2="-9.766" y2="1.664" stroke="#6b7280" stroke-width="0.100" stroke-linecap="round" opacity="0.8"/><line x1="-9.766" y1="-0.876" x2="-9.766" y2="-1.664" stroke="#6b7280" stroke-width="0.100" stroke-linecap="round" opacity="0.8"/><line x1="-9.766" y1="1.664" x2="-9.766" y2="0.876" stroke="#6b7280" stroke-width="0.100" stroke-linecap="round" opacity="0.8"/><line x1="-8.014" y1="-1.664" x2="-7.226" y2="-1.664" stroke="#6b7280" stroke-width="0.100" stroke-linecap="round" opacity="0.8"/><line x1="-8.014" y1="-0.876" x2="-8.014" y2="-1.664" stroke="#6b7280" stroke-width="0.100" stroke-linecap="round" opacity="0.8"/><line x1="-8.014" y1="-0.876" x2="-7.226" y2="-0.876" stroke="#6b7280" stroke-width="0.100" stroke-linecap="round" opacity="0.8"/><line x1="-8.014" y1="0.876" x2="-7.226" y2="0.876" stroke="#6b7280" stroke-width="0.100" stroke-linecap="round" opacity="0.8"/><line x1="-8.014" y1="1.664" x2="-8.014" y2="0.876" stroke="#6b7280" stroke-width="0.100" stroke-linecap="round" opacity="0.8"/><line x1="-8.014" y1="1.664" x2="-7.226" y2="1.664" stroke="#6b7280" stroke-width="0.100" stroke-linecap="round" opacity="0.8"/><line x1="-7.226" y1="-0.876" x2="-7.226" y2="-1.664" stroke="#6b7280" stroke-width="0.100" stroke-linecap="round" opacity="0.8"/><line x1="-7.226" y1="1.664" x2="-7.226" y2="0.876" stroke="#6b7280" stroke-width="0.100" stroke-linecap="round" opacity="0.8"/><line x1="-5.474" y1="-1.664" x2="-4.686" y2="-1.664" stroke="#6b7280" stroke-width="0.100" stroke-linecap="round" opacity="0.8"/><line x1="-5.474" y1="-0.876" x2="-5.474" y2="-1.664" stroke="#6b7280" stroke-width="0.100" stroke-linecap="round" opacity="0.8"/><line x1="-5.474" y1="-0.876" x2="-4.686" y2="-0.876" stroke="#6b7280" stroke-width="0.100" stroke-linecap="round" opacity="0.8"/><line x1="-5.474" y1="0.876" x2="-4.686" y2="0.876" stroke="#6b7280" stroke-width="0.100" stroke-linecap="round" opacity="0.8"/><line x1="-5.474" y1="1.664" x2="-5.474" y2="0.876" stroke="#6b7280" stroke-width="0.100" stroke-linecap="round" opacity="0.8"/><line x1="-5.474" y1="1.664" x2="-4.686" y2="1.664" stroke="#6b7280" stroke-width="0.100" stroke-linecap="round" opacity="0.8"/><line x1="-4.686" y1="-0.876" x2="-4.686" y2="-1.664" stroke="#6b7280" stroke-width="0.100" stroke-linecap="round" opacity="0.8"/><line x1="-4.686" y1="1.664" x2="-4.686" y2="0.876" stroke="#6b7280" stroke-width="0.100" stroke-linecap="round" opacity="0.8"/><line x1="-2.934" y1="-1.664" x2="-2.146" y2="-1.664" stroke="#6b7280" stroke-width="0.100" stroke-linecap="round" opacity="0.8"/><line x1="-2.934" y1="-0.876" x2="-2.934" y2="-1.664" stroke="#6b7280" stroke-width="0.100" stroke-linecap="round" opacity="0.8"/><line x1="-2.934" y1="-0.876" x2="-2.146" y2="-0.876" stroke="#6b7280" stroke-width="0.100" stroke-linecap="round" opacity="0.8"/><line x1="-2.934" y1="0.876" x2="-2.146" y2="0.876" stroke="#6b7280" stroke-width="0.100" stroke-linecap="round" opacity="0.8"/><line x1="-2.934" y1="1.664" x2="-2.934" y2="0.876" stroke="#6b7280" stroke-width="0.100" stroke-linecap="round" opacity="0.8"/><line x1="-2.934" y1="1.664" x2="-2.146" y2="1.664" stroke="#6b7280" stroke-width="0.100" stroke-linecap="round" opacity="0.8"/><line x1="-2.146" y1="-0.876" x2="-2.146" y2="-1.664" stroke="#6b7280" stroke-width="0.100" stroke-linecap="round" opacity="0.8"/><line x1="-2.146" y1="1.664" x2="-2.146" y2="0.876" stroke="#6b7280" stroke-width="0.100" stroke-linecap="round" opacity="0.8"/><line x1="-0.394" y1="-1.664" x2="0.394" y2="-1.664" stroke="#6b7280" stroke-width="0.100" stroke-linecap="round" opacity="0.8"/><line x1="-0.394" y1="-0.876" x2="-0.394" y2="-1.664" stroke="#6b7280" stroke-width="0.100" stroke-linecap="round" opacity="0.8"/><line x1="-0.394" y1="-0.876" x2="0.394" y2="-0.876" stroke="#6b7280" stroke-width="0.100" stroke-linecap="round" opacity="0.8"/><line x1="-0.394" y1="0.876" x2="0.394" y2="0.876" stroke="#6b7280" stroke-width="0.100" stroke-linecap="round" opacity="0.8"/><line x1="-0.394" y1="1.664" x2="-0.394" y2="0.876" stroke="#6b7280" stroke-width="0.100" stroke-linecap="round" opacity="0.8"/><line x1="-0.394" y1="1.664" x2="0.394" y2="1.664" stroke="#6b7280" stroke-width="0.100" stroke-linecap="round" opacity="0.8"/><line x1="0.394" y1="-0.876" x2="0.394" y2="-1.664" stroke="#6b7280" stroke-width="0.100" stroke-linecap="round" opacity="0.8"/><line x1="0.394" y1="1.664" x2="0.394" y2="0.876" stroke="#6b7280" stroke-width="0.100" stroke-linecap="round" opacity="0.8"/><line x1="2.146" y1="-1.664" x2="2.934" y2="-1.664" stroke="#6b7280" stroke-width="0.100" stroke-linecap="round" opacity="0.8"/><line x1="2.146" y1="-0.876" x2="2.146" y2="-1.664" stroke="#6b7280" stroke-width="0.100" stroke-linecap="round" opacity="0.8"/><line x1="2.146" y1="-0.876" x2="2.934" y2="-0.876" stroke="#6b7280" stroke-width="0.100" stroke-linecap="round" opacity="0.8"/><line x1="2.146" y1="0.876" x2="2.934" y2="0.876" stroke="#6b7280" stroke-width="0.100" stroke-linecap="round" opacity="0.8"/><line x1="2.146" y1="1.664" x2="2.146" y2="0.876" stroke="#6b7280" stroke-width="0.100" stroke-linecap="round" opacity="0.8"/><line x1="2.146" y1="1.664" x2="2.934" y2="1.664" stroke="#6b7280" stroke-width="0.100" stroke-linecap="round" opacity="0.8"/><line x1="2.934" y1="-0.876" x2="2.934" y2="-1.664" stroke="#6b7280" stroke-width="0.100" stroke-linecap="round" opacity="0.8"/><line x1="2.934" y1="1.664" x2="2.934" y2="0.876" stroke="#6b7280" stroke-width="0.100" stroke-linecap="round" opacity="0.8"/><line x1="4.686" y1="-1.664" x2="5.474" y2="-1.664" stroke="#6b7280" stroke-width="0.100" stroke-linecap="round" opacity="0.8"/><line x1="4.686" y1="-0.876" x2="4.686" y2="-1.664" stroke="#6b7280" stroke-width="0.100" stroke-linecap="round" opacity="0.8"/><line x1="4.686" y1="-0.876" x2="5.474" y2="-0.876" stroke="#6b7280" stroke-width="0.100" stroke-linecap="round" opacity="0.8"/><line x1="4.686" y1="0.876" x2="5.474" y2="0.876" stroke="#6b7280" stroke-width="0.100" stroke-linecap="round" opacity="0.8"/><line x1="4.686" y1="1.664" x2="4.686" y2="0.876" stroke="#6b7280" stroke-width="0.100" stroke-linecap="round" opacity="0.8"/><line x1="4.686" y1="1.664" x2="5.474" y2="1.664" stroke="#6b7280" stroke-width="0.100" stroke-linecap="round" opacity="0.8"/><line x1="5.474" y1="-0.876" x2="5.474" y2="-1.664" stroke="#6b7280" stroke-width="0.100" stroke-linecap="round" opacity="0.8"/><line x1="5.474" y1="1.664" x2="5.474" y2="0.876" stroke="#6b7280" stroke-width="0.100" stroke-linecap="round" opacity="0.8"/><line x1="7.226" y1="-1.664" x2="8.014" y2="-1.664" stroke="#6b7280" stroke-width="0.100" stroke-linecap="round" opacity="0.8"/><line x1="7.226" y1="-0.876" x2="7.226" y2="-1.664" stroke="#6b7280" stroke-width="0.100" stroke-linecap="round" opacity="0.8"/><line x1="7.226" y1="-0.876" x2="8.014" y2="-0.876" stroke="#6b7280" stroke-width="0.100" stroke-linecap="round" opacity="0.8"/><line x1="7.226" y1="0.876" x2="8.014" y2="0.876" stroke="#6b7280" stroke-width="0.100" stroke-linecap="round" opacity="0.8"/><line x1="7.226" y1="1.664" x2="7.226" y2="0.876" stroke="#6b7280" stroke-width="0.100" stroke-linecap="round" opacity="0.8"/><line x1="7.226" y1="1.664" x2="8.014" y2="1.664" stroke="#6b7280" stroke-width="0.100" stroke-linecap="round" opacity="0.8"/><line x1="8.014" y1="-0.876" x2="8.014" y2="-1.664" stroke="#6b7280" stroke-width="0.100" stroke-linecap="round" opacity="0.8"/><line x1="8.014" y1="1.664" x2="8.014" y2="0.876" stroke="#6b7280" stroke-width="0.100" stroke-linecap="round" opacity="0.8"/><line x1="9.766" y1="-1.664" x2="10.554" y2="-1.664" stroke="#6b7280" stroke-width="0.100" stroke-linecap="round" opacity="0.8"/><line x1="9.766" y1="-0.876" x2="9.766" y2="-1.664" stroke="#6b7280" stroke-width="0.100" stroke-linecap="round" opacity="0.8"/><line x1="9.766" y1="-0.876" x2="10.554" y2="-0.876" stroke="#6b7280" stroke-width="0.100" stroke-linecap="round" opacity="0.8"/><line x1="9.766" y1="0.876" x2="10.554" y2="0.876" stroke="#6b7280" stroke-width="0.100" stroke-linecap="round" opacity="0.8"/><line x1="9.766" y1="1.664" x2="9.766" y2="0.876" stroke="#6b7280" stroke-width="0.100" stroke-linecap="round" opacity="0.8"/><line x1="9.766" y1="1.664" x2="10.554" y2="1.664" stroke="#6b7280" stroke-width="0.100" stroke-linecap="round" opacity="0.8"/><line x1="10.554" y1="-0.876" x2="10.554" y2="-1.664" stroke="#6b7280" stroke-width="0.100" stroke-linecap="round" opacity="0.8"/><line x1="10.554" y1="1.664" x2="10.554" y2="0.876" stroke="#6b7280" stroke-width="0.100" stroke-linecap="round" opacity="0.8"/><line x1="12.306" y1="-1.664" x2="13.094" y2="-1.664" stroke="#6b7280" stroke-width="0.100" stroke-linecap="round" opacity="0.8"/><line x1="12.306" y1="-0.876" x2="12.306" y2="-1.664" stroke="#6b7280" stroke-width="0.100" stroke-linecap="round" opacity="0.8"/><line x1="12.306" y1="-0.876" x2="13.094" y2="-0.876" stroke="#6b7280" stroke-width="0.100" stroke-linecap="round" opacity="0.8"/><line x1="12.306" y1="0.876" x2="13.094" y2="0.876" stroke="#6b7280" stroke-width="0.100" stroke-linecap="round" opacity="0.8"/><line x1="12.306" y1="1.664" x2="12.306" y2="0.876" stroke="#6b7280" stroke-width="0.100" stroke-linecap="round" opacity="0.8"/><line x1="12.306" y1="1.664" x2="13.094" y2="1.664" stroke="#6b7280" stroke-width="0.100" stroke-linecap="round" opacity="0.8"/><line x1="13.094" y1="-0.876" x2="13.094" y2="-1.664" stroke="#6b7280" stroke-width="0.100" stroke-linecap="round" opacity="0.8"/><line x1="13.094" y1="1.664" x2="13.094" y2="0.876" stroke="#6b7280" stroke-width="0.100" stroke-linecap="round" opacity="0.8"/><line x1="14.846" y1="-1.664" x2="15.634" y2="-1.664" stroke="#6b7280" stroke-width="0.100" stroke-linecap="round" opacity="0.8"/><line x1="14.846" y1="-0.876" x2="14.846" y2="-1.664" stroke="#6b7280" stroke-width="0.100" stroke-linecap="round" opacity="0.8"/><line x1="14.846" y1="-0.876" x2="15.634" y2="-0.876" stroke="#6b7280" stroke-width="0.100" stroke-linecap="round" opacity="0.8"/><line x1="14.846" y1="0.876" x2="15.634" y2="0.876" stroke="#6b7280" stroke-width="0.100" stroke-linecap="round" opacity="0.8"/><line x1="14.846" y1="1.664" x2="14.846" y2="0.876" stroke="#6b7280" stroke-width="0.100" stroke-linecap="round" opacity="0.8"/><line x1="14.846" y1="1.664" x2="15.634" y2="1.664" stroke="#6b7280" stroke-width="0.100" stroke-linecap="round" opacity="0.8"/><line x1="15.634" y1="-0.876" x2="15.634" y2="-1.664" stroke="#6b7280" stroke-width="0.100" stroke-linecap="round" opacity="0.8"/><line x1="15.634" y1="1.664" x2="15.634" y2="0.876" stroke="#6b7280" stroke-width="0.100" stroke-linecap="round" opacity="0.8"/><line x1="17.386" y1="-1.664" x2="18.174" y2="-1.664" stroke="#6b7280" stroke-width="0.100" stroke-linecap="round" opacity="0.8"/><line x1="17.386" y1="-0.876" x2="17.386" y2="-1.664" stroke="#6b7280" stroke-width="0.100" stroke-linecap="round" opacity="0.8"/><line x1="17.386" y1="-0.876" x2="18.174" y2="-0.876" stroke="#6b7280" stroke-width="0.100" stroke-linecap="round" opacity="0.8"/><line x1="17.386" y1="0.876" x2="18.174" y2="0.876" stroke="#6b7280" stroke-width="0.100" stroke-linecap="round" opacity="0.8"/><line x1="17.386" y1="1.664" x2="17.386" y2="0.876" stroke="#6b7280" stroke-width="0.100" stroke-linecap="round" opacity="0.8"/><line x1="17.386" y1="1.664" x2="18.174" y2="1.664" stroke="#6b7280" stroke-width="0.100" stroke-linecap="round" opacity="0.8"/><line x1="18.174" y1="-0.876" x2="18.174" y2="-1.664" stroke="#6b7280" stroke-width="0.100" stroke-linecap="round" opacity="0.8"/><line x1="18.174" y1="1.664" x2="18.174" y2="0.876" stroke="#6b7280" stroke-width="0.100" stroke-linecap="round" opacity="0.8"/><line x1="19.304" y1="2.477" x2="19.304" y2="-2.477" stroke="#6b7280" stroke-width="0.100" stroke-linecap="round" opacity="0.8"/><line x1="-19.550" y1="-2.730" x2="19.550" y2="-2.730" stroke="#d24d4d" stroke-width="0.080" stroke-linecap="round" opacity="0.7"/><line x1="19.550" y1="-2.730" x2="19.550" y2="2.730" stroke="#d24d4d" stroke-width="0.080" stroke-linecap="round" opacity="0.7"/><line x1="19.550" y1="2.730" x2="-19.550" y2="2.730" stroke="#d24d4d" stroke-width="0.080" stroke-linecap="round" opacity="0.7"/><line x1="-19.550" y1="2.730" x2="-19.550" y2="-2.730" stroke="#d24d4d" stroke-width="0.080" stroke-linecap="round" opacity="0.7"/><circle cx="-17.780" cy="-3.176" r="0.150" fill="#e6e9ef" opacity="1"/><circle cx="-17.780" cy="-1.270" r="0.900" fill="none" stroke="#4a5160" stroke-width="0.12" opacity="0.7"/><circle cx="-17.780" cy="-1.270" r="0.550" fill="none" stroke="#4a5160" stroke-width="0.12" opacity="0.7"/><circle cx="-17.780" cy="1.270" r="0.900" fill="none" stroke="#4a5160" stroke-width="0.12" opacity="0.7"/><circle cx="-17.780" cy="1.270" r="0.550" fill="none" stroke="#4a5160" stroke-width="0.12" opacity="0.7"/><circle cx="-15.240" cy="-1.270" r="0.900" fill="none" stroke="#4a5160" stroke-width="0.12" opacity="0.7"/><circle cx="-15.240" cy="-1.270" r="0.550" fill="none" stroke="#4a5160" stroke-width="0.12" opacity="0.7"/><circle cx="-15.240" cy="1.270" r="0.900" fill="none" stroke="#4a5160" stroke-width="0.12" opacity="0.7"/><circle cx="-15.240" cy="1.270" r="0.550" fill="none" stroke="#4a5160" stroke-width="0.12" opacity="0.7"/><circle cx="-12.700" cy="-1.270" r="0.900" fill="none" stroke="#4a5160" stroke-width="0.12" opacity="0.7"/><circle cx="-12.700" cy="-1.270" r="0.550" fill="none" stroke="#4a5160" stroke-width="0.12" opacity="0.7"/><circle cx="-12.700" cy="1.270" r="0.900" fill="none" stroke="#4a5160" stroke-width="0.12" opacity="0.7"/><circle cx="-12.700" cy="1.270" r="0.550" fill="none" stroke="#4a5160" stroke-width="0.12" opacity="0.7"/><circle cx="-10.160" cy="-1.270" r="0.900" fill="none" stroke="#4a5160" stroke-width="0.12" opacity="0.7"/><circle cx="-10.160" cy="-1.270" r="0.550" fill="none" stroke="#4a5160" stroke-width="0.12" opacity="0.7"/><circle cx="-10.160" cy="1.270" r="0.900" fill="none" stroke="#4a5160" stroke-width="0.12" opacity="0.7"/><circle cx="-10.160" cy="1.270" r="0.550" fill="none" stroke="#4a5160" stroke-width="0.12" opacity="0.7"/><circle cx="-7.620" cy="-1.270" r="0.900" fill="none" stroke="#4a5160" stroke-width="0.12" opacity="0.7"/><circle cx="-7.620" cy="-1.270" r="0.550" fill="none" stroke="#4a5160" stroke-width="0.12" opacity="0.7"/><circle cx="-7.620" cy="1.270" r="0.900" fill="none" stroke="#4a5160" stroke-width="0.12" opacity="0.7"/><circle cx="-7.620" cy="1.270" r="0.550" fill="none" stroke="#4a5160" stroke-width="0.12" opacity="0.7"/><circle cx="-5.080" cy="-1.270" r="0.900" fill="none" stroke="#4a5160" stroke-width="0.12" opacity="0.7"/><circle cx="-5.080" cy="-1.270" r="0.550" fill="none" stroke="#4a5160" stroke-width="0.12" opacity="0.7"/><circle cx="-5.080" cy="1.270" r="0.900" fill="none" stroke="#4a5160" stroke-width="0.12" opacity="0.7"/><circle cx="-5.080" cy="1.270" r="0.550" fill="none" stroke="#4a5160" stroke-width="0.12" opacity="0.7"/><circle cx="-2.540" cy="-1.270" r="0.900" fill="none" stroke="#4a5160" stroke-width="0.12" opacity="0.7"/><circle cx="-2.540" cy="-1.270" r="0.550" fill="none" stroke="#4a5160" stroke-width="0.12" opacity="0.7"/><circle cx="-2.540" cy="1.270" r="0.900" fill="none" stroke="#4a5160" stroke-width="0.12" opacity="0.7"/><circle cx="-2.540" cy="1.270" r="0.550" fill="none" stroke="#4a5160" stroke-width="0.12" opacity="0.7"/><circle cx="0.000" cy="-1.270" r="0.900" fill="none" stroke="#4a5160" stroke-width="0.12" opacity="0.7"/><circle cx="0.000" cy="-1.270" r="0.550" fill="none" stroke="#4a5160" stroke-width="0.12" opacity="0.7"/><circle cx="0.000" cy="1.270" r="0.900" fill="none" stroke="#4a5160" stroke-width="0.12" opacity="0.7"/><circle cx="0.000" cy="1.270" r="0.550" fill="none" stroke="#4a5160" stroke-width="0.12" opacity="0.7"/><circle cx="2.540" cy="-1.270" r="0.900" fill="none" stroke="#4a5160" stroke-width="0.12" opacity="0.7"/><circle cx="2.540" cy="-1.270" r="0.550" fill="none" stroke="#4a5160" stroke-width="0.12" opacity="0.7"/><circle cx="2.540" cy="1.270" r="0.900" fill="none" stroke="#4a5160" stroke-width="0.12" opacity="0.7"/><circle cx="2.540" cy="1.270" r="0.550" fill="none" stroke="#4a5160" stroke-width="0.12" opacity="0.7"/><circle cx="5.080" cy="-1.270" r="0.900" fill="none" stroke="#4a5160" stroke-width="0.12" opacity="0.7"/><circle cx="5.080" cy="-1.270" r="0.550" fill="none" stroke="#4a5160" stroke-width="0.12" opacity="0.7"/><circle cx="5.080" cy="1.270" r="0.900" fill="none" stroke="#4a5160" stroke-width="0.12" opacity="0.7"/><circle cx="5.080" cy="1.270" r="0.550" fill="none" stroke="#4a5160" stroke-width="0.12" opacity="0.7"/><circle cx="7.620" cy="-1.270" r="0.900" fill="none" stroke="#4a5160" stroke-width="0.12" opacity="0.7"/><circle cx="7.620" cy="-1.270" r="0.550" fill="none" stroke="#4a5160" stroke-width="0.12" opacity="0.7"/><circle cx="7.620" cy="1.270" r="0.900" fill="none" stroke="#4a5160" stroke-width="0.12" opacity="0.7"/><circle cx="7.620" cy="1.270" r="0.550" fill="none" stroke="#4a5160" stroke-width="0.12" opacity="0.7"/><circle cx="10.160" cy="-1.270" r="0.900" fill="none" stroke="#4a5160" stroke-width="0.12" opacity="0.7"/><circle cx="10.160" cy="-1.270" r="0.550" fill="none" stroke="#4a5160" stroke-width="0.12" opacity="0.7"/><circle cx="10.160" cy="1.270" r="0.900" fill="none" stroke="#4a5160" stroke-width="0.12" opacity="0.7"/><circle cx="10.160" cy="1.270" r="0.550" fill="none" stroke="#4a5160" stroke-width="0.12" opacity="0.7"/><circle cx="12.700" cy="-1.270" r="0.900" fill="none" stroke="#4a5160" stroke-width="0.12" opacity="0.7"/><circle cx="12.700" cy="-1.270" r="0.550" fill="none" stroke="#4a5160" stroke-width="0.12" opacity="0.7"/><circle cx="12.700" cy="1.270" r="0.900" fill="none" stroke="#4a5160" stroke-width="0.12" opacity="0.7"/><circle cx="12.700" cy="1.270" r="0.550" fill="none" stroke="#4a5160" stroke-width="0.12" opacity="0.7"/><circle cx="15.240" cy="-1.270" r="0.900" fill="none" stroke="#4a5160" stroke-width="0.12" opacity="0.7"/><circle cx="15.240" cy="-1.270" r="0.550" fill="none" stroke="#4a5160" stroke-width="0.12" opacity="0.7"/><circle cx="15.240" cy="1.270" r="0.900" fill="none" stroke="#4a5160" stroke-width="0.12" opacity="0.7"/><circle cx="15.240" cy="1.270" r="0.550" fill="none" stroke="#4a5160" stroke-width="0.12" opacity="0.7"/><circle cx="17.780" cy="-1.270" r="0.900" fill="none" stroke="#4a5160" stroke-width="0.12" opacity="0.7"/><circle cx="17.780" cy="-1.270" r="0.550" fill="none" stroke="#4a5160" stroke-width="0.12" opacity="0.7"/><circle cx="17.780" cy="1.270" r="0.900" fill="none" stroke="#4a5160" stroke-width="0.12" opacity="0.7"/><circle cx="17.780" cy="1.270" r="0.550" fill="none" stroke="#4a5160" stroke-width="0.12" opacity="0.7"/><circle cx="-17.780" cy="-3.176" r="0.150" fill="#6b7280" opacity="0.8"/><rect x="-18.680" y="-2.170" width="1.800" height="1.800" rx="0.900" fill="#c79b5c"/><circle cx="-17.780" cy="-1.270" r="0.550" fill="#12151c"/><rect x="-18.680" y="0.370" width="1.800" height="1.800" rx="0.900" fill="#c79b5c"/><circle cx="-17.780" cy="1.270" r="0.550" fill="#12151c"/><rect x="-16.140" y="-2.170" width="1.800" height="1.800" rx="0.900" fill="#c79b5c"/><circle cx="-15.240" cy="-1.270" r="0.550" fill="#12151c"/><rect x="-16.140" y="0.370" width="1.800" height="1.800" rx="0.900" fill="#c79b5c"/><circle cx="-15.240" cy="1.270" r="0.550" fill="#12151c"/><rect x="-13.600" y="-2.170" width="1.800" height="1.800" rx="0.900" fill="#c79b5c"/><circle cx="-12.700" cy="-1.270" r="0.550" fill="#12151c"/><rect x="-13.600" y="0.370" width="1.800" height="1.800" rx="0.900" fill="#c79b5c"/><circle cx="-12.700" cy="1.270" r="0.550" fill="#12151c"/><rect x="-11.060" y="-2.170" width="1.800" height="1.800" rx="0.900" fill="#c79b5c"/><circle cx="-10.160" cy="-1.270" r="0.550" fill="#12151c"/><rect x="-11.060" y="0.370" width="1.800" height="1.800" rx="0.900" fill="#c79b5c"/><circle cx="-10.160" cy="1.270" r="0.550" fill="#12151c"/><rect x="-8.520" y="-2.170" width="1.800" height="1.800" rx="0.900" fill="#c79b5c"/><circle cx="-7.620" cy="-1.270" r="0.550" fill="#12151c"/><rect x="-8.520" y="0.370" width="1.800" height="1.800" rx="0.900" fill="#c79b5c"/><circle cx="-7.620" cy="1.270" r="0.550" fill="#12151c"/><rect x="-5.980" y="-2.170" width="1.800" height="1.800" rx="0.900" fill="#c79b5c"/><circle cx="-5.080" cy="-1.270" r="0.550" fill="#12151c"/><rect x="-5.980" y="0.370" width="1.800" height="1.800" rx="0.900" fill="#c79b5c"/><circle cx="-5.080" cy="1.270" r="0.550" fill="#12151c"/><rect x="-3.440" y="-2.170" width="1.800" height="1.800" rx="0.900" fill="#c79b5c"/><circle cx="-2.540" cy="-1.270" r="0.550" fill="#12151c"/><rect x="-3.440" y="0.370" width="1.800" height="1.800" rx="0.900" fill="#c79b5c"/><circle cx="-2.540" cy="1.270" r="0.550" fill="#12151c"/><rect x="-0.900" y="-2.170" width="1.800" height="1.800" rx="0.900" fill="#c79b5c"/><circle cx="0.000" cy="-1.270" r="0.550" fill="#12151c"/><rect x="-0.900" y="0.370" width="1.800" height="1.800" rx="0.900" fill="#c79b5c"/><circle cx="0.000" cy="1.270" r="0.550" fill="#12151c"/><rect x="1.640" y="-2.170" width="1.800" height="1.800" rx="0.900" fill="#c79b5c"/><circle cx="2.540" cy="-1.270" r="0.550" fill="#12151c"/><rect x="1.640" y="0.370" width="1.800" height="1.800" rx="0.900" fill="#c79b5c"/><circle cx="2.540" cy="1.270" r="0.550" fill="#12151c"/><rect x="4.180" y="-2.170" width="1.800" height="1.800" rx="0.900" fill="#c79b5c"/><circle cx="5.080" cy="-1.270" r="0.550" fill="#12151c"/><rect x="4.180" y="0.370" width="1.800" height="1.800" rx="0.900" fill="#c79b5c"/><circle cx="5.080" cy="1.270" r="0.550" fill="#12151c"/><rect x="6.720" y="-2.170" width="1.800" height="1.800" rx="0.900" fill="#c79b5c"/><circle cx="7.620" cy="-1.270" r="0.550" fill="#12151c"/><rect x="6.720" y="0.370" width="1.800" height="1.800" rx="0.900" fill="#c79b5c"/><circle cx="7.620" cy="1.270" r="0.550" fill="#12151c"/><rect x="9.260" y="-2.170" width="1.800" height="1.800" rx="0.900" fill="#c79b5c"/><circle cx="10.160" cy="-1.270" r="0.550" fill="#12151c"/><rect x="9.260" y="0.370" width="1.800" height="1.800" rx="0.900" fill="#c79b5c"/><circle cx="10.160" cy="1.270" r="0.550" fill="#12151c"/><rect x="11.800" y="-2.170" width="1.800" height="1.800" rx="0.900" fill="#c79b5c"/><circle cx="12.700" cy="-1.270" r="0.550" fill="#12151c"/><rect x="11.800" y="0.370" width="1.800" height="1.800" rx="0.900" fill="#c79b5c"/><circle cx="12.700" cy="1.270" r="0.550" fill="#12151c"/><rect x="14.340" y="-2.170" width="1.800" height="1.800" rx="0.900" fill="#c79b5c"/><circle cx="15.240" cy="-1.270" r="0.550" fill="#12151c"/><rect x="14.340" y="0.370" width="1.800" height="1.800" rx="0.900" fill="#c79b5c"/><circle cx="15.240" cy="1.270" r="0.550" fill="#12151c"/><rect x="16.880" y="-2.170" width="1.800" height="1.800" rx="0.900" fill="#c79b5c"/><circle cx="17.780" cy="-1.270" r="0.550" fill="#12151c"/><rect x="16.880" y="0.370" width="1.800" height="1.800" rx="0.900" fill="#c79b5c"/><circle cx="17.780" cy="1.270" r="0.550" fill="#12151c"/></svg>