<svg xmlns="http://www.w3.org/2000/svg" viewBox="-3.02 -2.25 5.58 4.50" preserveAspectRatio="xMidYMid meet" style="width:100%;height:100%"><rect x="-3.02" y="-2.25" width="5.58" height="4.50" fill="#12151c"/><line x1="-0.150" y1="1.000" x2="0.150" y2="1.000" stroke="#e6e9ef" stroke-width="0.200" stroke-linecap="round" opacity="1"/><line x1="-0.050" y1="-1.001" x2="0.150" y2="-1.000" stroke="#e6e9ef" stroke-width="0.200" stroke-linecap="round" opacity="1"/><line x1="-1.300" y1="-0.875" x2="-0.850" y2="-0.750" stroke="#4a5160" stroke-width="0.080" stroke-linecap="round" opacity="0.7"/><line x1="-1.300" y1="-0.875" x2="-0.400" y2="-0.875" stroke="#4a5160" stroke-width="0.080" stroke-linecap="round" opacity="0.7"/><line x1="-1.300" y1="-0.625" x2="-1.300" y2="-0.875" stroke="#4a5160" stroke-width="0.080" stroke-linecap="round" opacity="0.7"/><line x1="-1.300" y1="-0.625" x2="-0.850" y2="-0.750" stroke="#4a5160" stroke-width="0.080" stroke-linecap="round" opacity="0.7"/><line x1="-1.300" y1="-0.625" x2="-0.400" y2="-0.625" stroke="#4a5160" stroke-width="0.080" stroke-linecap="round" opacity="0.7"/><line x1="-1.300" y1="-0.375" x2="-0.900" y2="-0.250" stroke="#4a5160" stroke-width="0.080" stroke-linecap="round" opacity="0.7"/><line x1="-1.300" y1="-0.375" x2="-0.500" y2="-0.375" stroke="#4a5160" stroke-width="0.080" stroke-linecap="round" opacity="0.7"/><line x1="-1.300" y1="-0.125" x2="-1.300" y2="-0.375" stroke="#4a5160" stroke-width="0.080" stroke-linecap="round" opacity="0.7"/><line x1="-1.300" y1="-0.125" x2="-0.900" y2="-0.250" stroke="#4a5160" stroke-width="0.080" stroke-linecap="round" opacity="0.7"/><line x1="-1.300" y1="-0.125" x2="-0.500" y2="-0.125" stroke="#4a5160" stroke-width="0.080" stroke-linecap="round" opacity="0.7"/><line x1="-1.300" y1="0.125" x2="-0.900" y2="0.250" stroke="#4a5160" stroke-width="0.080" stroke-linecap="round" opacity="0.7"/><line x1="-1.300" y1="0.125" x2="-0.500" y2="0.125" stroke="#4a5160" stroke-width="0.080" stroke-linecap="round" opacity="0.7"/><line x1="-1.300" y1="0.375" x2="-1.300" y2="0.125" stroke="#4a5160" stroke-width="0.080" stroke-linecap="round" opacity="0.7"/><line x1="-1.300" y1="0.375" x2="-0.900" y2="0.250" stroke="#4a5160" stroke-width="0.080" stroke-linecap="round" opacity="0.7"/><line x1="-1.300" y1="0.375" x2="-0.500" y2="0.375" stroke="#4a5160" stroke-width="0.080" stroke-linecap="round" opacity="0.7"/><line x1="-1.300" y1="0.625" x2="-0.900" y2="0.750" stroke="#4a5160" stroke-width="0.080" stroke-linecap="round" opacity="0.7"/><line x1="-1.300" y1="0.625" x2="-0.500" y2="0.625" stroke="#4a5160" stroke-width="0.080" stroke-linecap="round" opacity="0.7"/><line x1="-1.300" y1="0.875" x2="-1.300" y2="0.625" stroke="#4a5160" stroke-width="0.080" stroke-linecap="round" opacity="0.7"/><line x1="-1.300" y1="0.875" x2="-0.900" y2="0.750" stroke="#4a5160" stroke-width="0.080" stroke-linecap="round" opacity="0.7"/><line x1="-1.300" y1="0.875" x2="-0.500" y2="0.875" stroke="#4a5160" stroke-width="0.080" stroke-linecap="round" opacity="0.7"/><line x1="-0.500" y1="-0.125" x2="-0.500" y2="-0.375" stroke="#4a5160" stroke-width="0.080" stroke-linecap="round" opacity="0.7"/><line x1="-0.500" y1="0.000" x2="0.000" y2="0.000" stroke="#4a5160" stroke-width="0.080" stroke-linecap="round" opacity="0.7"/><line x1="-0.500" y1="0.375" x2="-0.500" y2="0.125" stroke="#4a5160" stroke-width="0.080" stroke-linecap="round" opacity="0.7"/><line x1="-0.500" y1="0.875" x2="-0.500" y2="0.625" stroke="#4a5160" stroke-width="0.080" stroke-linecap="round" opacity="0.7"/><line x1="-0.400" y1="-0.625" x2="-0.400" y2="-0.875" stroke="#4a5160" stroke-width="0.080" stroke-linecap="round" opacity="0.7"/><line x1="0.000" y1="0.000" x2="0.000" y2="-0.500" stroke="#4a5160" stroke-width="0.080" stroke-linecap="round" opacity="0.7"/><line x1="0.000" y1="0.000" x2="0.500" y2="0.000" stroke="#4a5160" stroke-width="0.080" stroke-linecap="round" opacity="0.7"/><line x1="0.000" y1="0.500" x2="0.000" y2="0.000" stroke="#4a5160" stroke-width="0.080" stroke-linecap="round" opacity="0.7"/><line x1="0.500" y1="-0.875" x2="1.300" y2="-0.875" stroke="#4a5160" stroke-width="0.080" stroke-linecap="round" opacity="0.7"/><line x1="0.500" y1="-0.625" x2="0.500" y2="-0.875" stroke="#4a5160" stroke-width="0.080" stroke-linecap="round" opacity="0.7"/><line x1="0.500" y1="-0.625" x2="1.300" y2="-0.625" stroke="#4a5160" stroke-width="0.080" stroke-linecap="round" opacity="0.7"/><line x1="0.500" y1="-0.375" x2="1.300" y2="-0.375" stroke="#4a5160" stroke-width="0.080" stroke-linecap="round" opacity="0.7"/><line x1="0.500" y1="-0.125" x2="0.500" y2="-0.375" stroke="#4a5160" stroke-width="0.080" stroke-linecap="round" opacity="0.7"/><line x1="0.500" y1="-0.125" x2="1.300" y2="-0.125" stroke="#4a5160" stroke-width="0.080" stroke-linecap="round" opacity="0.7"/><line x1="0.500" y1="0.125" x2="1.300" y2="0.125" stroke="#4a5160" stroke-width="0.080" stroke-linecap="round" opacity="0.7"/><line x1="0.500" y1="0.375" x2="0.500" y2="0.125" stroke="#4a5160" stroke-width="0.080" stroke-linecap="round" opacity="0.7"/><line x1="0.500" y1="0.375" x2="1.300" y2="0.375" stroke="#4a5160" stroke-width="0.080" stroke-linecap="round" opacity="0.7"/><line x1="0.500" y1="0.625" x2="1.300" y2="0.625" stroke="#4a5160" stroke-width="0.080" stroke-linecap="round" opacity="0.7"/><line x1="0.500" y1="0.875" x2="0.500" y2="0.625" stroke="#4a5160" stroke-width="0.080" stroke-linecap="round" opacity="0.7"/><line x1="0.500" y1="0.875" x2="1.300" y2="0.875" stroke="#4a5160" stroke-width="0.080" stroke-linecap="round" opacity="0.7"/><line x1="0.900" y1="-0.750" x2="1.300" y2="-0.875" stroke="#4a5160" stroke-width="0.080" stroke-linecap="round" opacity="0.7"/><line x1="0.900" y1="-0.750" x2="1.300" y2="-0.625" stroke="#4a5160" stroke-width="0.080" stroke-linecap="round" opacity="0.7"/><line x1="0.900" y1="-0.250" x2="1.300" y2="-0.375" stroke="#4a5160" stroke-width="0.080" stroke-linecap="round" opacity="0.7"/><line x1="0.900" y1="-0.250" x2="1.300" y2="-0.125" stroke="#4a5160" stroke-width="0.080" stroke-linecap="round" opacity="0.7"/><line x1="0.900" y1="0.250" x2="1.300" y2="0.125" stroke="#4a5160" stroke-width="0.080" stroke-linecap="round" opacity="0.7"/><line x1="0.900" y1="0.250" x2="1.300" y2="0.375" stroke="#4a5160" stroke-width="0.080" stroke-linecap="round" opacity="0.7"/><line x1="0.900" y1="0.750" x2="1.300" y2="0.625" stroke="#4a5160" stroke-width="0.080" stroke-linecap="round" opacity="0.7"/><line x1="0.900" y1="0.750" x2="1.300" y2="0.875" stroke="#4a5160" stroke-width="0.080" stroke-linecap="round" opacity="0.7"/><line x1="1.300" y1="-0.625" x2="1.300" y2="-0.875" stroke="#4a5160" stroke-width="0.080" stroke-linecap="round" opacity="0.7"/><line x1="1.300" y1="-0.125" x2="1.300" y2="-0.375" stroke="#4a5160" stroke-width="0.080" stroke-linecap="round" opacity="0.7"/><line x1="1.300" y1="0.375" x2="1.300" y2="0.125" stroke="#4a5160" stroke-width="0.080" stroke-linecap="round" opacity="0.7"/><line x1="1.300" y1="0.875" x2="1.300" y2="0.625" stroke="#4a5160" stroke-width="0.080" stroke-linecap="round" opacity="0.7"/><line x1="-1.550" y1="-1.250" x2="1.550" y2="-1.250" stroke="#d24d4d" stroke-width="0.080" stroke-linecap="round" opacity="0.7"/><line x1="-1.550" y1="1.250" x2="-1.550" y2="-1.250" stroke="#d24d4d" stroke-width="0.080" stroke-linecap="round" opacity="0.7"/><line x1="-1.550" y1="1.250" x2="1.550" y2="1.250" stroke="#d24d4d" stroke-width="0.080" stroke-linecap="round" opacity="0.7"/><line x1="1.550" y1="1.250" x2="1.550" y2="-1.250" stroke="#d24d4d" stroke-width="0.080" stroke-linecap="round" opacity="0.7"/><line x1="-1.000" y1="-1.000" x2="1.000" y2="-1.000" stroke="#6b7280" stroke-width="0.100" stroke-linecap="round" opacity="0.8"/><line x1="-1.000" y1="-0.900" x2="-0.900" y2="-1.000" stroke="#6b7280" stroke-width="0.100" stroke-linecap="round" opacity="0.8"/><line x1="-1.000" y1="-0.800" x2="-0.800" y2="-1.000" stroke="#6b7280" stroke-width="0.100" stroke-linecap="round" opacity="0.8"/><line x1="-1.000" y1="-0.700" x2="-0.700" y2="-1.000" stroke="#6b7280" stroke-width="0.100" stroke-linecap="round" opacity="0.8"/><line x1="-1.000" y1="-0.600" x2="-0.600" y2="-1.000" stroke="#6b7280" stroke-width="0.100" stroke-linecap="round" opacity="0.8"/><line x1="-1.000" y1="-0.500" x2="-0.500" y2="-1.000" stroke="#6b7280" stroke-width="0.100" stroke-linecap="round" opacity="0.8"/><line x1="-1.000" y1="-0.400" x2="-0.400" y2="-1.000" stroke="#6b7280" stroke-width="0.100" stroke-linecap="round" opacity="0.8"/><line x1="-1.000" y1="-0.300" x2="-0.300" y2="-1.000" stroke="#6b7280" stroke-width="0.100" stroke-linecap="round" opacity="0.8"/><line x1="-1.000" y1="-0.200" x2="-0.200" y2="-1.000" stroke="#6b7280" stroke-width="0.100" stroke-linecap="round" opacity="0.8"/><line x1="-1.000" y1="-0.100" x2="-0.100" y2="-1.000" stroke="#6b7280" stroke-width="0.100" stroke-linecap="round" opacity="0.8"/><line x1="-1.000" y1="0.000" x2="0.000" y2="-1.000" stroke="#6b7280" stroke-width="0.100" stroke-linecap="round" opacity="0.8"/><line x1="-1.000" y1="1.000" x2="-1.000" y2="-1.000" stroke="#6b7280" stroke-width="0.100" stroke-linecap="round" opacity="0.8"/><line x1="-1.000" y1="1.000" x2="1.000" y2="1.000" stroke="#6b7280" stroke-width="0.100" stroke-linecap="round" opacity="0.8"/><line x1="1.000" y1="1.000" x2="1.000" y2="-1.000" stroke="#6b7280" stroke-width="0.100" stroke-linecap="round" opacity="0.8"/><circle cx="-1.900" cy="-0.750" r="0.150" fill="#e6e9ef" opacity="1"/><rect x="-1.300" y="-0.875" width="0.900" height="0.250" rx="0.000" fill="#c79b5c"/><rect x="-1.300" y="-0.375" width="0.800" height="0.250" rx="0.000" fill="#c79b5c"/><rect x="-1.300" y="0.125" width="0.800" height="0.250" rx="0.000" fill="#c79b5c"/><rect x="-1.300" y="0.625" width="0.800" height="0.250" rx="0.000" fill="#c79b5c"/><rect x="0.500" y="0.625" width="0.800" height="0.250" rx="0.000" fill="#c79b5c"/><rect x="0.500" y="0.125" width="0.800" height="0.250" rx="0.000" fill="#c79b5c"/><rect x="0.500" y="-0.375" width="0.800" height="0.250" rx="0.000" fill="#c79b5c"/><rect x="0.500" y="-0.875" width="0.800" height="0.250" rx="0.000" fill="#c79b5c"/></svg>