<svg xmlns="http://www.w3.org/2000/svg" viewBox="-3.50 -2.05 7.00 4.10" preserveAspectRatio="xMidYMid meet" style="width:100%;height:100%"><rect x="-3.50" y="-2.05" width="7.00" height="4.10" fill="#12151c"/><line x1="-0.150" y1="-0.800" x2="0.150" y2="-0.800" stroke="#e6e9ef" stroke-width="0.200" stroke-linecap="round" opacity="1"/><line x1="-0.150" y1="0.800" x2="0.150" y2="0.800" stroke="#e6e9ef" stroke-width="0.200" stroke-linecap="round" opacity="1"/><line x1="-2.250" y1="-0.750" x2="-1.375" y2="0.000" stroke="#4a5160" stroke-width="0.080" stroke-linecap="round" opacity="0.7"/><line x1="-2.250" y1="-0.750" x2="-0.500" y2="-0.750" stroke="#4a5160" stroke-width="0.080" stroke-linecap="round" opacity="0.7"/><line x1="-2.250" y1="0.750" x2="-2.250" y2="-0.750" stroke="#4a5160" stroke-width="0.080" stroke-linecap="round" opacity="0.7"/><line x1="-2.250" y1="0.750" x2="-1.375" y2="0.000" stroke="#4a5160" stroke-width="0.080" stroke-linecap="round" opacity="0.7"/><line x1="-2.250" y1="0.750" x2="-0.500" y2="0.750" stroke="#4a5160" stroke-width="0.080" stroke-linecap="round" opacity="0.7"/><line x1="-0.500" y1="0.000" x2="0.000" y2="0.000" stroke="#4a5160" stroke-width="0.080" stroke-linecap="round" opacity="0.7"/><line x1="-0.500" y1="0.750" x2="-0.500" y2="-0.750" stroke="#4a5160" stroke-width="0.080" stroke-linecap="round" opacity="0.7"/><line x1="0.000" y1="0.000" x2="0.000" y2="-0.500" stroke="#4a5160" stroke-width="0.080" stroke-linecap="round" opacity="0.7"/><line x1="0.000" y1="0.000" x2="0.500" y2="0.000" stroke="#4a5160" stroke-width="0.080" stroke-linecap="round" opacity="0.7"/><line x1="0.000" y1="0.500" x2="0.000" y2="0.000" stroke="#4a5160" stroke-width="0.080" stroke-linecap="round" opacity="0.7"/><line x1="0.500" y1="-0.750" x2="2.250" y2="-0.750" stroke="#4a5160" stroke-width="0.080" stroke-linecap="round" opacity="0.7"/><line x1="0.500" y1="0.750" x2="0.500" y2="-0.750" stroke="#4a5160" stroke-width="0.080" stroke-linecap="round" opacity="0.7"/><line x1="0.500" y1="0.750" x2="2.250" y2="0.750" stroke="#4a5160" stroke-width="0.080" stroke-linecap="round" opacity="0.7"/><line x1="1.375" y1="0.000" x2="2.250" y2="-0.750" stroke="#4a5160" stroke-width="0.080" stroke-linecap="round" opacity="0.7"/><line x1="1.375" y1="0.000" x2="2.250" y2="0.750" stroke="#4a5160" stroke-width="0.080" stroke-linecap="round" opacity="0.7"/><line x1="2.250" y1="0.750" x2="2.250" y2="-0.750" stroke="#4a5160" stroke-width="0.080" stroke-linecap="round" opacity="0.7"/><line x1="-2.500" y1="-1.050" x2="2.500" y2="-1.050" stroke="#d24d4d" stroke-width="0.080" stroke-linecap="round" opacity="0.7"/><line x1="-2.500" y1="1.050" x2="-2.500" y2="-1.050" stroke="#d24d4d" stroke-width="0.080" stroke-linecap="round" opacity="0.7"/><line x1="-2.500" y1="1.050" x2="2.500" y2="1.050" stroke="#d24d4d" stroke-width="0.080" stroke-linecap="round" opacity="0.7"/><line x1="2.500" y1="1.050" x2="2.500" y2="-1.050" stroke="#d24d4d" stroke-width="0.080" stroke-linecap="round" opacity="0.7"/><line x1="-1.600" y1="-0.800" x2="1.600" y2="-0.800" stroke="#6b7280" stroke-width="0.100" stroke-linecap="round" opacity="0.8"/><line x1="-1.600" y1="0.800" x2="-1.600" y2="-0.800" stroke="#6b7280" stroke-width="0.100" stroke-linecap="round" opacity="0.8"/><line x1="-1.600" y1="0.800" x2="1.600" y2="0.800" stroke="#6b7280" stroke-width="0.100" stroke-linecap="round" opacity="0.8"/><line x1="-1.150" y1="0.800" x2="-1.150" y2="-0.800" stroke="#6b7280" stroke-width="0.100" stroke-linecap="round" opacity="0.8"/><line x1="1.150" y1="0.800" x2="1.150" y2="-0.800" stroke="#6b7280" stroke-width="0.100" stroke-linecap="round" opacity="0.8"/><line x1="1.600" y1="0.800" x2="1.600" y2="-0.800" stroke="#6b7280" stroke-width="0.100" stroke-linecap="round" opacity="0.8"/><rect x="-2.250" y="-0.750" width="1.750" height="1.500" rx="0.000" fill="#c79b5c"/><rect x="0.500" y="-0.750" width="1.750" height="1.500" rx="0.000" fill="#c79b5c"/><polygon points="-1.82,1.80 -0.93,1.80 -1.38,1.20" fill="#ffffff"/></svg>