<svg xmlns="http://www.w3.org/2000/svg" viewBox="-4.65 -6.33 9.30 12.02" preserveAspectRatio="xMidYMid meet" style="width:100%;height:100%"><rect x="-4.65" y="-6.33" width="9.30" height="12.02" fill="#12151c"/><circle cx="-3.400" cy="-5.200" r="0.125" fill="none" stroke="#e6e9ef" stroke-width="0.12" opacity="1"/><circle cx="-1.200" cy="-3.850" r="0.500" fill="none" stroke="#6b7280" stroke-width="0.12" opacity="0.8"/><rect x="-3.650" y="-4.700" width="1.500" height="0.200" rx="0.000" fill="#c79b5c"/><rect x="-3.650" y="-4.300" width="1.500" height="0.200" rx="0.000" fill="#c79b5c"/><rect x="-3.650" y="-3.900" width="1.500" height="0.200" rx="0.000" fill="#c79b5c"/><rect x="-3.650" y="-3.500" width="1.500" height="0.200" rx="0.000" fill="#c79b5c"/><rect x="-3.650" y="-3.100" width="1.500" height="0.200" rx="0.000" fill="#c79b5c"/><rect x="-3.650" y="-2.700" width="1.500" height="0.200" rx="0.000" fill="#c79b5c"/><rect x="-3.650" y="-2.300" width="1.500" height="0.200" rx="0.000" fill="#c79b5c"/><rect x="-3.650" y="-1.900" width="1.500" height="0.200" rx="0.000" fill="#c79b5c"/><rect x="-3.650" y="-1.500" width="1.500" height="0.200" rx="0.000" fill="#c79b5c"/><rect x="-3.650" y="-1.100" width="1.500" height="0.200" rx="0.000" fill="#c79b5c"/><rect x="-3.650" y="-0.700" width="1.500" height="0.200" rx="0.000" fill="#c79b5c"/><rect x="-3.650" y="-0.300" width="1.500" height="0.200" rx="0.000" fill="#c79b5c"/><rect x="-3.650" y="0.100" width="1.500" height="0.200" rx="0.000" fill="#c79b5c"/><rect x="-3.650" y="0.500" width="1.500" height="0.200" rx="0.000" fill="#c79b5c"/><rect x="-3.650" y="0.900" width="1.500" height="0.200" rx="0.000" fill="#c79b5c"/><rect x="-3.650" y="1.300" width="1.500" height="0.200" rx="0.000" fill="#c79b5c"/><rect x="-3.650" y="1.700" width="1.500" height="0.200" rx="0.000" fill="#c79b5c"/><rect x="-3.650" y="2.100" width="1.500" height="0.200" rx="0.000" fill="#c79b5c"/><rect x="-3.650" y="2.500" width="1.500" height="0.200" rx="0.000" fill="#c79b5c"/><rect x="-3.650" y="2.900" width="1.500" height="0.200" rx="0.000" fill="#c79b5c"/><rect x="-3.650" y="3.300" width="1.500" height="0.200" rx="0.000" fill="#c79b5c"/><rect x="-3.650" y="3.700" width="1.500" height="0.200" rx="0.000" fill="#c79b5c"/><rect x="-3.650" y="4.100" width="1.500" height="0.200" rx="0.000" fill="#c79b5c"/><rect x="-3.650" y="4.500" width="1.500" height="0.200" rx="0.000" fill="#c79b5c"/><rect x="2.150" y="4.500" width="1.500" height="0.200" rx="0.000" fill="#c79b5c"/><rect x="2.150" y="4.100" width="1.500" height="0.200" rx="0.000" fill="#c79b5c"/><rect x="2.150" y="3.700" width="1.500" height="0.200" rx="0.000" fill="#c79b5c"/><rect x="2.150" y="3.300" width="1.500" height="0.200" rx="0.000" fill="#c79b5c"/><rect x="2.150" y="2.900" width="1.500" height="0.200" rx="0.000" fill="#c79b5c"/><rect x="2.150" y="2.500" width="1.500" height="0.200" rx="0.000" fill="#c79b5c"/><rect x="2.150" y="2.100" width="1.500" height="0.200" rx="0.000" fill="#c79b5c"/><rect x="2.150" y="1.700" width="1.500" height="0.200" rx="0.000" fill="#c79b5c"/><rect x="2.150" y="1.300" width="1.500" height="0.200" rx="0.000" fill="#c79b5c"/><rect x="2.150" y="0.900" width="1.500" height="0.200" rx="0.000" fill="#c79b5c"/><rect x="2.150" y="0.500" width="1.500" height="0.200" rx="0.000" fill="#c79b5c"/><rect x="2.150" y="0.100" width="1.500" height="0.200" rx="0.000" fill="#c79b5c"/><rect x="2.150" y="-0.300" width="1.500" height="0.200" rx="0.000" fill="#c79b5c"/><rect x="2.150" y="-0.700" width="1.500" height="0.200" rx="0.000" fill="#c79b5c"/><rect x="2.150" y="-1.100" width="1.500" height="0.200" rx="0.000" fill="#c79b5c"/><rect x="2.150" y="-1.500" width="1.500" height="0.200" rx="0.000" fill="#c79b5c"/><rect x="2.150" y="-1.900" width="1.500" height="0.200" rx="0.000" fill="#c79b5c"/><rect x="2.150" y="-2.300" width="1.500" height="0.200" rx="0.000" fill="#c79b5c"/><rect x="2.150" y="-2.700" width="1.500" height="0.200" rx="0.000" fill="#c79b5c"/><rect x="2.150" y="-3.100" width="1.500" height="0.200" rx="0.000" fill="#c79b5c"/><rect x="2.150" y="-3.500" width="1.500" height="0.200" rx="0.000" fill="#c79b5c"/><rect x="2.150" y="-3.900" width="1.500" height="0.200" rx="0.000" fill="#c79b5c"/><rect x="2.150" y="-4.300" width="1.500" height="0.200" rx="0.000" fill="#c79b5c"/><rect x="2.150" y="-4.700" width="1.500" height="0.200" rx="0.000" fill="#c79b5c"/></svg>