<svg xmlns="http://www.w3.org/2000/svg" viewBox="-7.66 -5.50 15.32 9.75" preserveAspectRatio="xMidYMid meet" style="width:100%;height:100%"><rect x="-7.66" y="-5.50" width="15.32" height="9.75" fill="#12151c"/><line x1="-6.660" y1="-4.500" x2="6.660" y2="-4.500" stroke="#d24d4d" stroke-width="0.080" stroke-linecap="round" opacity="0.7"/><line x1="6.660" y1="-4.500" x2="6.660" y2="3.250" stroke="#d24d4d" stroke-width="0.080" stroke-linecap="round" opacity="0.7"/><line x1="6.660" y1="3.250" x2="-6.660" y2="3.250" stroke="#d24d4d" stroke-width="0.080" stroke-linecap="round" opacity="0.7"/><line x1="-6.660" y1="3.250" x2="-6.660" y2="-4.500" stroke="#d24d4d" stroke-width="0.080" stroke-linecap="round" opacity="0.7"/><path d="M -4.710 2.300 A 1.500 1.500 0 0 1 -2.910 2.300" fill="none" stroke="#e6e9ef" stroke-width="0.12" opacity="1"/><path d="M -4.664 2.434 A 1.366 1.366 0 0 1 -2.956 2.434" fill="none" stroke="#e6e9ef" stroke-width="0.12" opacity="1"/><path d="M -4.410 -2.670 A 0.200 0.200 0 0 1 -4.210 -2.470" fill="none" stroke="#e6e9ef" stroke-width="0.12" opacity="1"/><path d="M -3.410 -2.470 A 0.200 0.200 0 0 1 -3.210 -2.670" fill="none" stroke="#e6e9ef" stroke-width="0.12" opacity="1"/><path d="M -0.900 2.300 A 1.500 1.500 0 0 1 0.900 2.300" fill="none" stroke="#e6e9ef" stroke-width="0.12" opacity="1"/><path d="M -0.854 2.434 A 1.366 1.366 0 0 1 0.854 2.434" fill="none" stroke="#e6e9ef" stroke-width="0.12" opacity="1"/><path d="M -0.600 -2.670 A 0.200 0.200 0 0 1 -0.400 -2.470" fill="none" stroke="#e6e9ef" stroke-width="0.12" opacity="1"/><path d="M 0.400 -2.470 A 0.200 0.200 0 0 1 0.600 -2.670" fill="none" stroke="#e6e9ef" stroke-width="0.12" opacity="1"/><path d="M 2.910 2.300 A 1.500 1.500 0 0 1 4.710 2.300" fill="none" stroke="#e6e9ef" stroke-width="0.12" opacity="1"/><path d="M 2.956 2.434 A 1.366 1.366 0 0 1 4.664 2.434" fill="none" stroke="#e6e9ef" stroke-width="0.12" opacity="1"/><path d="M 3.210 -2.670 A 0.200 0.200 0 0 1 3.410 -2.470" fill="none" stroke="#e6e9ef" stroke-width="0.12" opacity="1"/><path d="M 4.210 -2.470 A 0.200 0.200 0 0 1 4.410 -2.670" fill="none" stroke="#e6e9ef" stroke-width="0.12" opacity="1"/><path d="M -4.710 2.300 A 1.500 1.500 0 0 1 -2.910 2.300" fill="none" stroke="#6b7280" stroke-width="0.12" opacity="0.8"/><path d="M -4.664 2.434 A 1.366 1.366 0 0 1 -2.956 2.434" fill="none" stroke="#6b7280" stroke-width="0.12" opacity="0.8"/><path d="M -4.410 -2.670 A 0.200 0.200 0 0 1 -4.210 -2.470" fill="none" stroke="#6b7280" stroke-width="0.12" opacity="0.8"/><path d="M -4.310 -0.625 A 0.800 0.800 0 1 1 -4.310 0.625" fill="none" stroke="#6b7280" stroke-width="0.12" opacity="0.8"/><path d="M -3.410 -2.470 A 0.200 0.200 0 0 1 -3.210 -2.670" fill="none" stroke="#6b7280" stroke-width="0.12" opacity="0.8"/><path d="M -0.900 2.300 A 1.500 1.500 0 0 1 0.900 2.300" fill="none" stroke="#6b7280" stroke-width="0.12" opacity="0.8"/><path d="M -0.854 2.434 A 1.366 1.366 0 0 1 0.854 2.434" fill="none" stroke="#6b7280" stroke-width="0.12" opacity="0.8"/><path d="M -0.600 -2.670 A 0.200 0.200 0 0 1 -0.400 -2.470" fill="none" stroke="#6b7280" stroke-width="0.12" opacity="0.8"/><path d="M 0.400 -2.470 A 0.200 0.200 0 0 1 0.600 -2.670" fill="none" stroke="#6b7280" stroke-width="0.12" opacity="0.8"/><path d="M 2.910 2.300 A 1.500 1.500 0 0 1 4.710 2.300" fill="none" stroke="#6b7280" stroke-width="0.12" opacity="0.8"/><path d="M 2.956 2.434 A 1.366 1.366 0 0 1 4.664 2.434" fill="none" stroke="#6b7280" stroke-width="0.12" opacity="0.8"/><path d="M 3.210 -2.670 A 0.200 0.200 0 0 1 3.410 -2.470" fill="none" stroke="#6b7280" stroke-width="0.12" opacity="0.8"/><path d="M 4.210 -2.470 A 0.200 0.200 0 0 1 4.410 -2.670" fill="none" stroke="#6b7280" stroke-width="0.12" opacity="0.8"/><rect x="-4.760" y="-0.950" width="1.900" height="1.900" rx="0.950" fill="#c79b5c"/><circle cx="-3.810" cy="0.000" r="0.600" fill="#12151c"/><rect x="-0.950" y="-0.950" width="1.900" height="1.900" rx="0.950" fill="#c79b5c"/><circle cx="0.000" cy="0.000" r="0.600" fill="#12151c"/><rect x="2.860" y="-0.950" width="1.900" height="1.900" rx="0.950" fill="#c79b5c"/><circle cx="3.810" cy="0.000" r="0.600" fill="#12151c"/><polygon points="-4.26,2.00 -3.36,2.00 -3.81,1.40" fill="#ffffff"/></svg>