<svg xmlns="http://www.w3.org/2000/svg" viewBox="-4.75 -3.88 9.50 7.63" preserveAspectRatio="xMidYMid meet" style="width:100%;height:100%"><rect x="-4.75" y="-3.88" width="9.50" height="7.63" fill="#12151c"/><line x1="-1.550" y1="-2.500" x2="1.550" y2="-2.500" stroke="#e6e9ef" stroke-width="0.200" stroke-linecap="round" opacity="1"/><line x1="-1.550" y1="2.500" x2="-1.550" y2="-2.500" stroke="#e6e9ef" stroke-width="0.200" stroke-linecap="round" opacity="1"/><line x1="-1.550" y1="2.500" x2="1.550" y2="2.500" stroke="#e6e9ef" stroke-width="0.200" stroke-linecap="round" opacity="1"/><line x1="1.550" y1="2.500" x2="1.550" y2="-2.500" stroke="#e6e9ef" stroke-width="0.200" stroke-linecap="round" opacity="1"/><line x1="-3.750" y1="-2.750" x2="3.750" y2="-2.750" stroke="#d24d4d" stroke-width="0.080" stroke-linecap="round" opacity="0.7"/><line x1="-3.750" y1="2.750" x2="-3.750" y2="-2.750" stroke="#d24d4d" stroke-width="0.080" stroke-linecap="round" opacity="0.7"/><line x1="-3.750" y1="2.750" x2="3.750" y2="2.750" stroke="#d24d4d" stroke-width="0.080" stroke-linecap="round" opacity="0.7"/><line x1="3.750" y1="2.750" x2="3.750" y2="-2.750" stroke="#d24d4d" stroke-width="0.080" stroke-linecap="round" opacity="0.7"/><line x1="-2.000" y1="-2.500" x2="2.000" y2="-2.500" stroke="#6b7280" stroke-width="0.100" stroke-linecap="round" opacity="0.8"/><line x1="-2.000" y1="2.500" x2="-2.000" y2="-2.500" stroke="#6b7280" stroke-width="0.100" stroke-linecap="round" opacity="0.8"/><line x1="-2.000" y1="2.500" x2="2.000" y2="2.500" stroke="#6b7280" stroke-width="0.100" stroke-linecap="round" opacity="0.8"/><line x1="2.000" y1="2.500" x2="2.000" y2="-2.500" stroke="#6b7280" stroke-width="0.100" stroke-linecap="round" opacity="0.8"/><circle cx="-2.400" cy="-2.755" r="0.125" fill="none" stroke="#e6e9ef" stroke-width="0.12" opacity="1"/><circle cx="-0.825" cy="-1.750" r="0.500" fill="none" stroke="#6b7280" stroke-width="0.12" opacity="0.8"/><rect x="-3.000" y="-2.680" width="0.600" height="1.550" rx="0.000" fill="#c79b5c"/><rect x="-3.000" y="-1.410" width="0.600" height="1.550" rx="0.000" fill="#c79b5c"/><rect x="-3.000" y="-0.140" width="0.600" height="1.550" rx="0.000" fill="#c79b5c"/><rect x="-3.000" y="1.130" width="0.600" height="1.550" rx="0.000" fill="#c79b5c"/><rect x="2.400" y="1.130" width="0.600" height="1.550" rx="0.000" fill="#c79b5c"/><rect x="2.400" y="-0.140" width="0.600" height="1.550" rx="0.000" fill="#c79b5c"/><rect x="2.400" y="-1.410" width="0.600" height="1.550" rx="0.000" fill="#c79b5c"/><rect x="2.400" y="-2.680" width="0.600" height="1.550" rx="0.000" fill="#c79b5c"/></svg>