<svg xmlns="http://www.w3.org/2000/svg" viewBox="-2.52 -2.93 17.74 5.41" preserveAspectRatio="xMidYMid meet" style="width:100%;height:100%"><rect x="-2.52" y="-2.93" width="17.74" height="5.41" fill="#12151c"/><line x1="-1.270" y1="-1.025" x2="-1.070" y2="-1.225" stroke="#e6e9ef" stroke-width="0.200" stroke-linecap="round" opacity="1"/><line x1="-1.270" y1="1.025" x2="-1.270" y2="-1.025" stroke="#e6e9ef" stroke-width="0.200" stroke-linecap="round" opacity="1"/><line x1="-1.270" y1="1.025" x2="-1.070" y2="1.225" stroke="#e6e9ef" stroke-width="0.200" stroke-linecap="round" opacity="1"/><line x1="-1.070" y1="-1.225" x2="1.070" y2="-1.225" stroke="#e6e9ef" stroke-width="0.200" stroke-linecap="round" opacity="1"/><line x1="-1.070" y1="1.225" x2="1.070" y2="1.225" stroke="#e6e9ef" stroke-width="0.200" stroke-linecap="round" opacity="1"/><line x1="1.070" y1="-1.225" x2="1.270" y2="-1.025" stroke="#e6e9ef" stroke-width="0.200" stroke-linecap="round" opacity="1"/><line x1="1.070" y1="1.225" x2="1.270" y2="1.025" stroke="#e6e9ef" stroke-width="0.200" stroke-linecap="round" opacity="1"/><line x1="1.270" y1="-1.025" x2="1.470" y2="-1.225" stroke="#e6e9ef" stroke-width="0.200" stroke-linecap="round" opacity="1"/><line x1="1.270" y1="1.025" x2="1.270" y2="-1.025" stroke="#e6e9ef" stroke-width="0.200" stroke-linecap="round" opacity="1"/><line x1="1.270" y1="1.025" x2="1.470" y2="1.225" stroke="#e6e9ef" stroke-width="0.200" stroke-linecap="round" opacity="1"/><line x1="1.470" y1="-1.225" x2="3.610" y2="-1.225" stroke="#e6e9ef" stroke-width="0.200" stroke-linecap="round" opacity="1"/><line x1="1.470" y1="1.225" x2="3.610" y2="1.225" stroke="#e6e9ef" stroke-width="0.200" stroke-linecap="round" opacity="1"/><line x1="3.610" y1="-1.225" x2="3.810" y2="-1.025" stroke="#e6e9ef" stroke-width="0.200" stroke-linecap="round" opacity="1"/><line x1="3.610" y1="1.225" x2="3.810" y2="1.025" stroke="#e6e9ef" stroke-width="0.200" stroke-linecap="round" opacity="1"/><line x1="3.810" y1="-1.025" x2="4.010" y2="-1.225" stroke="#e6e9ef" stroke-width="0.200" stroke-linecap="round" opacity="1"/><line x1="3.810" y1="1.025" x2="3.810" y2="-1.025" stroke="#e6e9ef" stroke-width="0.200" stroke-linecap="round" opacity="1"/><line x1="3.810" y1="1.025" x2="4.010" y2="1.225" stroke="#e6e9ef" stroke-width="0.200" stroke-linecap="round" opacity="1"/><line x1="4.010" y1="-1.225" x2="6.150" y2="-1.225" stroke="#e6e9ef" stroke-width="0.200" stroke-linecap="round" opacity="1"/><line x1="4.010" y1="1.225" x2="6.150" y2="1.225" stroke="#e6e9ef" stroke-width="0.200" stroke-linecap="round" opacity="1"/><line x1="6.150" y1="-1.225" x2="6.350" y2="-1.025" stroke="#e6e9ef" stroke-width="0.200" stroke-linecap="round" opacity="1"/><line x1="6.150" y1="1.225" x2="6.350" y2="1.025" stroke="#e6e9ef" stroke-width="0.200" stroke-linecap="round" opacity="1"/><line x1="6.350" y1="-1.025" x2="6.550" y2="-1.225" stroke="#e6e9ef" stroke-width="0.200" stroke-linecap="round" opacity="1"/><line x1="6.350" y1="1.025" x2="6.350" y2="-1.025" stroke="#e6e9ef" stroke-width="0.200" stroke-linecap="round" opacity="1"/><line x1="6.350" y1="1.025" x2="6.550" y2="1.225" stroke="#e6e9ef" stroke-width="0.200" stroke-linecap="round" opacity="1"/><line x1="6.550" y1="-1.225" x2="8.690" y2="-1.225" stroke="#e6e9ef" stroke-width="0.200" stroke-linecap="round" opacity="1"/><line x1="6.550" y1="1.225" x2="8.690" y2="1.225" stroke="#e6e9ef" stroke-width="0.200" stroke-linecap="round" opacity="1"/><line x1="8.690" y1="-1.225" x2="8.890" y2="-1.025" stroke="#e6e9ef" stroke-width="0.200" stroke-linecap="round" opacity="1"/><line x1="8.690" y1="1.225" x2="8.890" y2="1.025" stroke="#e6e9ef" stroke-width="0.200" stroke-linecap="round" opacity="1"/><line x1="8.890" y1="-1.025" x2="9.090" y2="-1.225" stroke="#e6e9ef" stroke-width="0.200" stroke-linecap="round" opacity="1"/><line x1="8.890" y1="1.025" x2="8.890" y2="-1.025" stroke="#e6e9ef" stroke-width="0.200" stroke-linecap="round" opacity="1"/><line x1="8.890" y1="1.025" x2="9.090" y2="1.225" stroke="#e6e9ef" stroke-width="0.200" stroke-linecap="round" opacity="1"/><line x1="9.090" y1="-1.225" x2="11.230" y2="-1.225" stroke="#e6e9ef" stroke-width="0.200" stroke-linecap="round" opacity="1"/><line x1="9.090" y1="1.225" x2="11.230" y2="1.225" stroke="#e6e9ef" stroke-width="0.200" stroke-linecap="round" opacity="1"/><line x1="11.230" y1="-1.225" x2="11.430" y2="-1.025" stroke="#e6e9ef" stroke-width="0.200" stroke-linecap="round" opacity="1"/><line x1="11.230" y1="1.225" x2="11.430" y2="1.025" stroke="#e6e9ef" stroke-width="0.200" stroke-linecap="round" opacity="1"/><line x1="11.430" y1="-1.025" x2="11.630" y2="-1.225" stroke="#e6e9ef" stroke-width="0.200" stroke-linecap="round" opacity="1"/><line x1="11.430" y1="1.025" x2="11.430" y2="-1.025" stroke="#e6e9ef" stroke-width="0.200" stroke-linecap="round" opacity="1"/><line x1="11.430" y1="1.025" x2="11.630" y2="1.225" stroke="#e6e9ef" stroke-width="0.200" stroke-linecap="round" opacity="1"/><line x1="11.630" y1="-1.225" x2="13.770" y2="-1.225" stroke="#e6e9ef" stroke-width="0.200" stroke-linecap="round" opacity="1"/><line x1="11.630" y1="1.225" x2="13.770" y2="1.225" stroke="#e6e9ef" stroke-width="0.200" stroke-linecap="round" opacity="1"/><line x1="13.770" y1="-1.225" x2="13.970" y2="-1.025" stroke="#e6e9ef" stroke-width="0.200" stroke-linecap="round" opacity="1"/><line x1="13.770" y1="1.225" x2="13.970" y2="1.025" stroke="#e6e9ef" stroke-width="0.200" stroke-linecap="round" opacity="1"/><line x1="13.970" y1="1.025" x2="13.970" y2="-1.025" stroke="#e6e9ef" stroke-width="0.200" stroke-linecap="round" opacity="1"/><line x1="-1.270" y1="-1.025" x2="-1.070" y2="-1.225" stroke="#6b7280" stroke-width="0.100" stroke-linecap="round" opacity="0.8"/><line x1="-1.270" y1="1.025" x2="-1.270" y2="-1.025" stroke="#6b7280" stroke-width="0.100" stroke-linecap="round" opacity="0.8"/><line x1="-1.270" y1="1.025" x2="-1.070" y2="1.225" stroke="#6b7280" stroke-width="0.100" stroke-linecap="round" opacity="0.8"/><line x1="-1.070" y1="-1.225" x2="1.070" y2="-1.225" stroke="#6b7280" stroke-width="0.100" stroke-linecap="round" opacity="0.8"/><line x1="-1.070" y1="1.225" x2="1.070" y2="1.225" stroke="#6b7280" stroke-width="0.100" stroke-linecap="round" opacity="0.8"/><line x1="1.070" y1="-1.225" x2="1.270" y2="-1.025" stroke="#6b7280" stroke-width="0.100" stroke-linecap="round" opacity="0.8"/><line x1="1.070" y1="1.225" x2="1.270" y2="1.025" stroke="#6b7280" stroke-width="0.100" stroke-linecap="round" opacity="0.8"/><line x1="1.270" y1="-1.025" x2="1.470" y2="-1.225" stroke="#6b7280" stroke-width="0.100" stroke-linecap="round" opacity="0.8"/><line x1="1.270" y1="1.025" x2="1.270" y2="-1.025" stroke="#6b7280" stroke-width="0.100" stroke-linecap="round" opacity="0.8"/><line x1="1.270" y1="1.025" x2="1.470" y2="1.225" stroke="#6b7280" stroke-width="0.100" stroke-linecap="round" opacity="0.8"/><line x1="1.470" y1="-1.225" x2="3.610" y2="-1.225" stroke="#6b7280" stroke-width="0.100" stroke-linecap="round" opacity="0.8"/><line x1="1.470" y1="1.225" x2="3.610" y2="1.225" stroke="#6b7280" stroke-width="0.100" stroke-linecap="round" opacity="0.8"/><line x1="3.610" y1="-1.225" x2="3.810" y2="-1.025" stroke="#6b7280" stroke-width="0.100" stroke-linecap="round" opacity="0.8"/><line x1="3.610" y1="1.225" x2="3.810" y2="1.025" stroke="#6b7280" stroke-width="0.100" stroke-linecap="round" opacity="0.8"/><line x1="3.810" y1="-1.025" x2="4.010" y2="-1.225" stroke="#6b7280" stroke-width="0.100" stroke-linecap="round" opacity="0.8"/><line x1="3.810" y1="1.025" x2="3.810" y2="-1.025" stroke="#6b7280" stroke-width="0.100" stroke-linecap="round" opacity="0.8"/><line x1="3.810" y1="1.025" x2="4.010" y2="1.225" stroke="#6b7280" stroke-width="0.100" stroke-linecap="round" opacity="0.8"/><line x1="4.010" y1="-1.225" x2="6.150" y2="-1.225" stroke="#6b7280" stroke-width="0.100" stroke-linecap="round" opacity="0.8"/><line x1="4.010" y1="1.225" x2="6.150" y2="1.225" stroke="#6b7280" stroke-width="0.100" stroke-linecap="round" opacity="0.8"/><line x1="6.150" y1="-1.225" x2="6.350" y2="-1.025" stroke="#6b7280" stroke-width="0.100" stroke-linecap="round" opacity="0.8"/><line x1="6.150" y1="1.225" x2="6.350" y2="1.025" stroke="#6b7280" stroke-width="0.100" stroke-linecap="round" opacity="0.8"/><line x1="6.350" y1="-1.025" x2="6.550" y2="-1.225" stroke="#6b7280" stroke-width="0.100" stroke-linecap="round" opacity="0.8"/><line x1="6.350" y1="1.025" x2="6.350" y2="-1.025" stroke="#6b7280" stroke-width="0.100" stroke-linecap="round" opacity="0.8"/><line x1="6.350" y1="1.025" x2="6.550" y2="1.225" stroke="#6b7280" stroke-width="0.100" stroke-linecap="round" opacity="0.8"/><line x1="6.550" y1="-1.225" x2="8.690" y2="-1.225" stroke="#6b7280" stroke-width="0.100" stroke-linecap="round" opacity="0.8"/><line x1="6.550" y1="1.225" x2="8.690" y2="1.225" stroke="#6b7280" stroke-width="0.100" stroke-linecap="round" opacity="0.8"/><line x1="8.690" y1="-1.225" x2="8.890" y2="-1.025" stroke="#6b7280" stroke-width="0.100" stroke-linecap="round" opacity="0.8"/><line x1="8.690" y1="1.225" x2="8.890" y2="1.025" stroke="#6b7280" stroke-width="0.100" stroke-linecap="round" opacity="0.8"/><line x1="8.890" y1="-1.025" x2="9.090" y2="-1.225" stroke="#6b7280" stroke-width="0.100" stroke-linecap="round" opacity="0.8"/><line x1="8.890" y1="1.025" x2="8.890" y2="-1.025" stroke="#6b7280" stroke-width="0.100" stroke-linecap="round" opacity="0.8"/><line x1="8.890" y1="1.025" x2="9.090" y2="1.225" stroke="#6b7280" stroke-width="0.100" stroke-linecap="round" opacity="0.8"/><line x1="9.090" y1="-1.225" x2="11.230" y2="-1.225" stroke="#6b7280" stroke-width="0.100" stroke-linecap="round" opacity="0.8"/><line x1="9.090" y1="1.225" x2="11.230" y2="1.225" stroke="#6b7280" stroke-width="0.100" stroke-linecap="round" opacity="0.8"/><line x1="11.230" y1="-1.225" x2="11.430" y2="-1.025" stroke="#6b7280" stroke-width="0.100" stroke-linecap="round" opacity="0.8"/><line x1="11.230" y1="1.225" x2="11.430" y2="1.025" stroke="#6b7280" stroke-width="0.100" stroke-linecap="round" opacity="0.8"/><line x1="11.430" y1="-1.025" x2="11.630" y2="-1.225" stroke="#6b7280" stroke-width="0.100" stroke-linecap="round" opacity="0.8"/><line x1="11.430" y1="1.025" x2="11.430" y2="-1.025" stroke="#6b7280" stroke-width="0.100" stroke-linecap="round" opacity="0.8"/><line x1="11.430" y1="1.025" x2="11.630" y2="1.225" stroke="#6b7280" stroke-width="0.100" stroke-linecap="round" opacity="0.8"/><line x1="11.630" y1="-1.225" x2="13.770" y2="-1.225" stroke="#6b7280" stroke-width="0.100" stroke-linecap="round" opacity="0.8"/><line x1="11.630" y1="1.225" x2="13.770" y2="1.225" stroke="#6b7280" stroke-width="0.100" stroke-linecap="round" opacity="0.8"/><line x1="13.770" y1="-1.225" x2="13.970" y2="-1.025" stroke="#6b7280" stroke-width="0.100" stroke-linecap="round" opacity="0.8"/><line x1="13.770" y1="1.225" x2="13.970" y2="1.025" stroke="#6b7280" stroke-width="0.100" stroke-linecap="round" opacity="0.8"/><line x1="13.970" y1="1.025" x2="13.970" y2="-1.025" stroke="#6b7280" stroke-width="0.100" stroke-linecap="round" opacity="0.8"/><line x1="-1.520" y1="-1.480" x2="14.220" y2="-1.480" stroke="#d24d4d" stroke-width="0.080" stroke-linecap="round" opacity="0.7"/><line x1="14.220" y1="-1.480" x2="14.220" y2="1.480" stroke="#d24d4d" stroke-width="0.080" stroke-linecap="round" opacity="0.7"/><line x1="14.220" y1="1.480" x2="-1.520" y2="1.480" stroke="#d24d4d" stroke-width="0.080" stroke-linecap="round" opacity="0.7"/><line x1="-1.520" y1="1.480" x2="-1.520" y2="-1.480" stroke="#d24d4d" stroke-width="0.080" stroke-linecap="round" opacity="0.7"/><circle cx="-0.508" cy="-1.778" r="0.150" fill="none" stroke="#e6e9ef" stroke-width="0.12" opacity="1"/><circle cx="-0.508" cy="-1.778" r="0.150" fill="none" stroke="#6b7280" stroke-width="0.12" opacity="0.8"/><rect x="-0.800" y="-0.800" width="1.600" height="1.600" rx="0.000" fill="#c79b5c"/><circle cx="0.000" cy="0.000" r="0.450" fill="#12151c"/><rect x="1.740" y="-0.800" width="1.600" height="1.600" rx="0.800" fill="#c79b5c"/><circle cx="2.540" cy="0.000" r="0.450" fill="#12151c"/><rect x="4.280" y="-0.800" width="1.600" height="1.600" rx="0.800" fill="#c79b5c"/><circle cx="5.080" cy="0.000" r="0.450" fill="#12151c"/><rect x="6.820" y="-0.800" width="1.600" height="1.600" rx="0.800" fill="#c79b5c"/><circle cx="7.620" cy="0.000" r="0.450" fill="#12151c"/><rect x="9.360" y="-0.800" width="1.600" height="1.600" rx="0.800" fill="#c79b5c"/><circle cx="10.160" cy="0.000" r="0.450" fill="#12151c"/><rect x="11.900" y="-0.800" width="1.600" height="1.600" rx="0.800" fill="#c79b5c"/><circle cx="12.700" cy="0.000" r="0.450" fill="#12151c"/><polygon points="-0.45,1.85 0.45,1.85 0.00,1.25" fill="#ffffff"/></svg>