<svg xmlns="http://www.w3.org/2000/svg" viewBox="-8.32 -5.19 15.36 10.38" preserveAspectRatio="xMidYMid meet" style="width:100%;height:100%"><rect x="-8.32" y="-5.19" width="15.36" height="10.38" fill="#12151c"/><circle cx="-7.200" cy="0.000" r="0.125" fill="none" stroke="#e6e9ef" stroke-width="0.12" opacity="1"/><circle cx="-3.600" cy="0.000" r="0.500" fill="none" stroke="#6b7280" stroke-width="0.12" opacity="0.8"/><rect x="-6.032" y="-0.381" width="1.400" height="0.762" rx="0.000" fill="#c79b5c"/><rect x="-6.032" y="0.889" width="1.400" height="0.762" rx="0.000" fill="#c79b5c"/><rect x="-6.032" y="2.159" width="1.400" height="0.762" rx="0.000" fill="#c79b5c"/><rect x="-6.032" y="3.429" width="1.400" height="0.762" rx="0.000" fill="#c79b5c"/><rect x="4.632" y="3.429" width="1.400" height="0.762" rx="0.000" fill="#c79b5c"/><rect x="4.632" y="2.159" width="1.400" height="0.762" rx="0.000" fill="#c79b5c"/><rect x="4.632" y="0.889" width="1.400" height="0.762" rx="0.000" fill="#c79b5c"/><rect x="4.632" y="-0.381" width="1.400" height="0.762" rx="0.000" fill="#c79b5c"/><rect x="4.632" y="-1.651" width="1.400" height="0.762" rx="0.000" fill="#c79b5c"/><rect x="4.632" y="-2.921" width="1.400" height="0.762" rx="0.000" fill="#c79b5c"/><rect x="4.632" y="-4.191" width="1.400" height="0.762" rx="0.000" fill="#c79b5c"/><rect x="-6.032" y="-4.191" width="1.400" height="0.762" rx="0.000" fill="#c79b5c"/><rect x="-6.032" y="-2.921" width="1.400" height="0.762" rx="0.000" fill="#c79b5c"/><rect x="-6.032" y="-1.651" width="1.400" height="0.762" rx="0.000" fill="#c79b5c"/></svg>