<svg xmlns="http://www.w3.org/2000/svg" viewBox="-4.05 -2.35 8.10 4.70" preserveAspectRatio="xMidYMid meet" style="width:100%;height:100%"><rect x="-4.05" y="-2.35" width="8.10" height="4.70" fill="#12151c"/><line x1="-1.000" y1="-1.000" x2="1.000" y2="-1.000" stroke="#e6e9ef" stroke-width="0.200" stroke-linecap="round" opacity="1"/><line x1="-1.000" y1="1.000" x2="1.000" y2="1.000" stroke="#e6e9ef" stroke-width="0.200" stroke-linecap="round" opacity="1"/><line x1="-0.500" y1="0.000" x2="0.000" y2="0.000" stroke="#4a5160" stroke-width="0.080" stroke-linecap="round" opacity="0.7"/><line x1="0.000" y1="0.000" x2="0.000" y2="-0.500" stroke="#4a5160" stroke-width="0.080" stroke-linecap="round" opacity="0.7"/><line x1="0.000" y1="0.000" x2="0.500" y2="0.000" stroke="#4a5160" stroke-width="0.080" stroke-linecap="round" opacity="0.7"/><line x1="0.000" y1="0.500" x2="0.000" y2="0.000" stroke="#4a5160" stroke-width="0.080" stroke-linecap="round" opacity="0.7"/><line x1="-3.050" y1="-1.350" x2="3.050" y2="-1.350" stroke="#d24d4d" stroke-width="0.080" stroke-linecap="round" opacity="0.7"/><line x1="-3.050" y1="1.350" x2="-3.050" y2="-1.350" stroke="#d24d4d" stroke-width="0.080" stroke-linecap="round" opacity="0.7"/><line x1="-3.050" y1="1.350" x2="3.050" y2="1.350" stroke="#d24d4d" stroke-width="0.080" stroke-linecap="round" opacity="0.7"/><line x1="3.050" y1="1.350" x2="3.050" y2="-1.350" stroke="#d24d4d" stroke-width="0.080" stroke-linecap="round" opacity="0.7"/><line x1="-2.250" y1="-1.000" x2="2.250" y2="-1.000" stroke="#6b7280" stroke-width="0.100" stroke-linecap="round" opacity="0.8"/><line x1="-2.250" y1="1.000" x2="-2.250" y2="-1.000" stroke="#6b7280" stroke-width="0.100" stroke-linecap="round" opacity="0.8"/><line x1="-2.250" y1="1.000" x2="2.250" y2="1.000" stroke="#6b7280" stroke-width="0.100" stroke-linecap="round" opacity="0.8"/><line x1="2.250" y1="1.000" x2="2.250" y2="-1.000" stroke="#6b7280" stroke-width="0.100" stroke-linecap="round" opacity="0.8"/><rect x="-3.050" y="-0.600" width="2.200" height="1.200" rx="0.000" fill="#c79b5c"/><rect x="0.850" y="-0.600" width="2.200" height="1.200" rx="0.000" fill="#c79b5c"/><polygon points="-2.40,1.65 -1.50,1.65 -1.95,1.05" fill="#ffffff"/></svg>