<svg xmlns="http://www.w3.org/2000/svg" viewBox="-2.38 -3.15 4.75 6.30" preserveAspectRatio="xMidYMid meet" style="width:100%;height:100%"><rect x="-2.38" y="-3.15" width="4.75" height="6.30" fill="#12151c"/><line x1="0.000" y1="1.600" x2="0.000" y2="-1.600" stroke="#e6e9ef" stroke-width="0.200" stroke-linecap="round" opacity="1"/><line x1="-1.125" y1="-1.900" x2="-0.775" y2="0.000" stroke="#4a5160" stroke-width="0.080" stroke-linecap="round" opacity="0.7"/><line x1="-1.125" y1="-1.900" x2="-0.425" y2="-1.900" stroke="#4a5160" stroke-width="0.080" stroke-linecap="round" opacity="0.7"/><line x1="-1.125" y1="1.900" x2="-1.125" y2="-1.900" stroke="#4a5160" stroke-width="0.080" stroke-linecap="round" opacity="0.7"/><line x1="-1.125" y1="1.900" x2="-0.775" y2="0.000" stroke="#4a5160" stroke-width="0.080" stroke-linecap="round" opacity="0.7"/><line x1="-1.125" y1="1.900" x2="-0.425" y2="1.900" stroke="#4a5160" stroke-width="0.080" stroke-linecap="round" opacity="0.7"/><line x1="-0.500" y1="0.000" x2="0.000" y2="0.000" stroke="#4a5160" stroke-width="0.080" stroke-linecap="round" opacity="0.7"/><line x1="-0.425" y1="1.900" x2="-0.425" y2="-1.900" stroke="#4a5160" stroke-width="0.080" stroke-linecap="round" opacity="0.7"/><line x1="0.000" y1="0.000" x2="0.000" y2="-0.500" stroke="#4a5160" stroke-width="0.080" stroke-linecap="round" opacity="0.7"/><line x1="0.000" y1="0.000" x2="0.500" y2="0.000" stroke="#4a5160" stroke-width="0.080" stroke-linecap="round" opacity="0.7"/><line x1="0.000" y1="0.500" x2="0.000" y2="0.000" stroke="#4a5160" stroke-width="0.080" stroke-linecap="round" opacity="0.7"/><line x1="0.425" y1="-1.900" x2="1.125" y2="-1.900" stroke="#4a5160" stroke-width="0.080" stroke-linecap="round" opacity="0.7"/><line x1="0.425" y1="1.900" x2="0.425" y2="-1.900" stroke="#4a5160" stroke-width="0.080" stroke-linecap="round" opacity="0.7"/><line x1="0.425" y1="1.900" x2="1.125" y2="1.900" stroke="#4a5160" stroke-width="0.080" stroke-linecap="round" opacity="0.7"/><line x1="0.775" y1="0.000" x2="1.125" y2="-1.900" stroke="#4a5160" stroke-width="0.080" stroke-linecap="round" opacity="0.7"/><line x1="0.775" y1="0.000" x2="1.125" y2="1.900" stroke="#4a5160" stroke-width="0.080" stroke-linecap="round" opacity="0.7"/><line x1="1.125" y1="1.900" x2="1.125" y2="-1.900" stroke="#4a5160" stroke-width="0.080" stroke-linecap="round" opacity="0.7"/><line x1="-1.375" y1="-2.150" x2="1.375" y2="-2.150" stroke="#d24d4d" stroke-width="0.080" stroke-linecap="round" opacity="0.7"/><line x1="-1.375" y1="2.150" x2="-1.375" y2="-2.150" stroke="#d24d4d" stroke-width="0.080" stroke-linecap="round" opacity="0.7"/><line x1="-1.375" y1="2.150" x2="1.375" y2="2.150" stroke="#d24d4d" stroke-width="0.080" stroke-linecap="round" opacity="0.7"/><line x1="1.375" y1="2.150" x2="1.375" y2="-2.150" stroke="#d24d4d" stroke-width="0.080" stroke-linecap="round" opacity="0.7"/><line x1="-0.800" y1="-1.600" x2="0.800" y2="-1.600" stroke="#6b7280" stroke-width="0.100" stroke-linecap="round" opacity="0.8"/><line x1="-0.800" y1="1.600" x2="-0.800" y2="-1.600" stroke="#6b7280" stroke-width="0.100" stroke-linecap="round" opacity="0.8"/><line x1="-0.800" y1="1.600" x2="0.800" y2="1.600" stroke="#6b7280" stroke-width="0.100" stroke-linecap="round" opacity="0.8"/><line x1="-0.400" y1="1.600" x2="-0.400" y2="-1.600" stroke="#6b7280" stroke-width="0.100" stroke-linecap="round" opacity="0.8"/><line x1="0.400" y1="1.600" x2="0.400" y2="-1.600" stroke="#6b7280" stroke-width="0.100" stroke-linecap="round" opacity="0.8"/><line x1="0.800" y1="1.600" x2="0.800" y2="-1.600" stroke="#6b7280" stroke-width="0.100" stroke-linecap="round" opacity="0.8"/><rect x="-1.125" y="-1.900" width="0.700" height="3.800" rx="0.000" fill="#c79b5c"/><rect x="0.425" y="-1.900" width="0.700" height="3.800" rx="0.000" fill="#c79b5c"/><polygon points="-1.23,2.95 -0.33,2.95 -0.78,2.35" fill="#ffffff"/></svg>