<svg xmlns="http://www.w3.org/2000/svg" viewBox="-1.50 -5.50 204.80 62.88" preserveAspectRatio="xMidYMid meet" style="width:100%;height:100%"><rect x="-1.50" y="-5.50" width="204.80" height="62.88" fill="#12151c"/><g transform="translate(0.00 0)"><rect x="0.000" y="-0.000" width="27.940" height="50.800" fill="#1e222b" stroke="#4ea1ff" stroke-width="0.25"/><rect x="26.670" y="1.270" width="1.270" height="48.260" fill="#1e222b" stroke="#4ea1ff" stroke-width="0.25"/><line x1="35.560" y1="2.540" x2="27.940" y2="2.540" stroke="#e6e9ef" stroke-width="0.2"/><circle cx="35.560" cy="2.540" r="0.4" fill="#4ea1ff"/><text x="27.440" y="2.890" fill="#e6e9ef" font-size="1.1" text-anchor="end" font-family="sans-serif">PT17D/DONE</text><text x="28.240" y="2.190" fill="#9aa3b2" font-size="0.9" text-anchor="start" font-family="sans-serif">76</text><line x1="35.560" y1="5.080" x2="27.940" y2="5.080" stroke="#e6e9ef" stroke-width="0.2"/><circle cx="35.560" cy="5.080" r="0.4" fill="#4ea1ff"/><text x="27.440" y="5.430" fill="#e6e9ef" font-size="1.1" text-anchor="end" font-family="sans-serif">PT17C/INITN</text><text x="28.240" y="4.730" fill="#9aa3b2" font-size="0.9" text-anchor="start" font-family="sans-serif">77</text><line x1="35.560" y1="7.620" x2="27.940" y2="7.620" stroke="#e6e9ef" stroke-width="0.2"/><circle cx="35.560" cy="7.620" r="0.4" fill="#4ea1ff"/><text x="27.440" y="7.970" fill="#e6e9ef" font-size="1.1" text-anchor="end" font-family="sans-serif">PT16C</text><text x="28.240" y="7.270" fill="#9aa3b2" font-size="0.9" text-anchor="start" font-family="sans-serif">78</text><line x1="35.560" y1="10.160" x2="27.940" y2="10.160" stroke="#e6e9ef" stroke-width="0.2"/><circle cx="35.560" cy="10.160" r="0.4" fill="#4ea1ff"/><text x="27.440" y="10.510" fill="#e6e9ef" font-size="1.1" text-anchor="end" font-family="sans-serif">PT15D/PROGRAMN</text><text x="28.240" y="9.810" fill="#9aa3b2" font-size="0.9" text-anchor="start" font-family="sans-serif">81</text><line x1="35.560" y1="12.700" x2="27.940" y2="12.700" stroke="#e6e9ef" stroke-width="0.2"/><circle cx="35.560" cy="12.700" r="0.4" fill="#4ea1ff"/><text x="27.440" y="13.050" fill="#e6e9ef" font-size="1.1" text-anchor="end" font-family="sans-serif">PT15C/JTAGENB</text><text x="28.240" y="12.350" fill="#9aa3b2" font-size="0.9" text-anchor="start" font-family="sans-serif">82</text><line x1="35.560" y1="15.240" x2="27.940" y2="15.240" stroke="#e6e9ef" stroke-width="0.2"/><circle cx="35.560" cy="15.240" r="0.4" fill="#4ea1ff"/><text x="27.440" y="15.590" fill="#e6e9ef" font-size="1.1" text-anchor="end" font-family="sans-serif">PT15B</text><text x="28.240" y="14.890" fill="#9aa3b2" font-size="0.9" text-anchor="start" font-family="sans-serif">83</text><line x1="35.560" y1="17.780" x2="27.940" y2="17.780" stroke="#e6e9ef" stroke-width="0.2"/><circle cx="35.560" cy="17.780" r="0.4" fill="#4ea1ff"/><text x="27.440" y="18.130" fill="#e6e9ef" font-size="1.1" text-anchor="end" font-family="sans-serif">PT15A</text><text x="28.240" y="17.430" fill="#9aa3b2" font-size="0.9" text-anchor="start" font-family="sans-serif">84</text><line x1="35.560" y1="20.320" x2="27.940" y2="20.320" stroke="#e6e9ef" stroke-width="0.2"/><circle cx="35.560" cy="20.320" r="0.4" fill="#4ea1ff"/><text x="27.440" y="20.670" fill="#e6e9ef" font-size="1.1" text-anchor="end" font-family="sans-serif">PT12D/SDA/PCLKC0_0</text><text x="28.240" y="19.970" fill="#9aa3b2" font-size="0.9" text-anchor="start" font-family="sans-serif">85</text><line x1="35.560" y1="22.860" x2="27.940" y2="22.860" stroke="#e6e9ef" stroke-width="0.2"/><circle cx="35.560" cy="22.860" r="0.4" fill="#4ea1ff"/><text x="27.440" y="23.210" fill="#e6e9ef" font-size="1.1" text-anchor="end" font-family="sans-serif">PT12C/SCL/PCLKT0_0</text><text x="28.240" y="22.510" fill="#9aa3b2" font-size="0.9" text-anchor="start" font-family="sans-serif">86</text><line x1="35.560" y1="25.400" x2="27.940" y2="25.400" stroke="#e6e9ef" stroke-width="0.2"/><circle cx="35.560" cy="25.400" r="0.4" fill="#4ea1ff"/><text x="27.440" y="25.750" fill="#e6e9ef" font-size="1.1" text-anchor="end" font-family="sans-serif">PT12B/PCLKC0_1</text><text x="28.240" y="25.050" fill="#9aa3b2" font-size="0.9" text-anchor="start" font-family="sans-serif">87</text><line x1="35.560" y1="27.940" x2="27.940" y2="27.940" stroke="#e6e9ef" stroke-width="0.2"/><circle cx="35.560" cy="27.940" r="0.4" fill="#4ea1ff"/><text x="27.440" y="28.290" fill="#e6e9ef" font-size="1.1" text-anchor="end" font-family="sans-serif">PT12A/PCLKT0_1</text><text x="28.240" y="27.590" fill="#9aa3b2" font-size="0.9" text-anchor="start" font-family="sans-serif">88</text><line x1="35.560" y1="30.480" x2="27.940" y2="30.480" stroke="#e6e9ef" stroke-width="0.2"/><circle cx="35.560" cy="30.480" r="0.4" fill="#4ea1ff"/><text x="27.440" y="30.830" fill="#e6e9ef" font-size="1.1" text-anchor="end" font-family="sans-serif">PT11D/TMS</text><text x="28.240" y="30.130" fill="#9aa3b2" font-size="0.9" text-anchor="start" font-family="sans-serif">90</text><line x1="35.560" y1="33.020" x2="27.940" y2="33.020" stroke="#e6e9ef" stroke-width="0.2"/><circle cx="35.560" cy="33.020" r="0.4" fill="#4ea1ff"/><text x="27.440" y="33.370" fill="#e6e9ef" font-size="1.1" text-anchor="end" font-family="sans-serif">PT11C/TCK</text><text x="28.240" y="32.670" fill="#9aa3b2" font-size="0.9" text-anchor="start" font-family="sans-serif">91</text><line x1="35.560" y1="35.560" x2="27.940" y2="35.560" stroke="#e6e9ef" stroke-width="0.2"/><circle cx="35.560" cy="35.560" r="0.4" fill="#4ea1ff"/><text x="27.440" y="35.910" fill="#e6e9ef" font-size="1.1" text-anchor="end" font-family="sans-serif">PT10D/TDI</text><text x="28.240" y="35.210" fill="#9aa3b2" font-size="0.9" text-anchor="start" font-family="sans-serif">94</text><line x1="35.560" y1="38.100" x2="27.940" y2="38.100" stroke="#e6e9ef" stroke-width="0.2"/><circle cx="35.560" cy="38.100" r="0.4" fill="#4ea1ff"/><text x="27.440" y="38.450" fill="#e6e9ef" font-size="1.1" text-anchor="end" font-family="sans-serif">PT10C/TDO</text><text x="28.240" y="37.750" fill="#9aa3b2" font-size="0.9" text-anchor="start" font-family="sans-serif">95</text><line x1="35.560" y1="40.640" x2="27.940" y2="40.640" stroke="#e6e9ef" stroke-width="0.2"/><circle cx="35.560" cy="40.640" r="0.4" fill="#4ea1ff"/><text x="27.440" y="40.990" fill="#e6e9ef" font-size="1.1" text-anchor="end" font-family="sans-serif">PT10B</text><text x="28.240" y="40.290" fill="#9aa3b2" font-size="0.9" text-anchor="start" font-family="sans-serif">96</text><line x1="35.560" y1="43.180" x2="27.940" y2="43.180" stroke="#e6e9ef" stroke-width="0.2"/><circle cx="35.560" cy="43.180" r="0.4" fill="#4ea1ff"/><text x="27.440" y="43.530" fill="#e6e9ef" font-size="1.1" text-anchor="end" font-family="sans-serif">PT10A</text><text x="28.240" y="42.830" fill="#9aa3b2" font-size="0.9" text-anchor="start" font-family="sans-serif">97</text><line x1="35.560" y1="45.720" x2="27.940" y2="45.720" stroke="#e6e9ef" stroke-width="0.2"/><circle cx="35.560" cy="45.720" r="0.4" fill="#4ea1ff"/><text x="27.440" y="46.070" fill="#e6e9ef" font-size="1.1" text-anchor="end" font-family="sans-serif">PT9B</text><text x="28.240" y="45.370" fill="#9aa3b2" font-size="0.9" text-anchor="start" font-family="sans-serif">98</text><line x1="35.560" y1="48.260" x2="27.940" y2="48.260" stroke="#e6e9ef" stroke-width="0.2"/><circle cx="35.560" cy="48.260" r="0.4" fill="#4ea1ff"/><text x="27.440" y="48.610" fill="#e6e9ef" font-size="1.1" text-anchor="end" font-family="sans-serif">PT9A</text><text x="28.240" y="47.910" fill="#9aa3b2" font-size="0.9" text-anchor="start" font-family="sans-serif">99</text><text x="17.78" y="-2.00" fill="#9aa3b2" font-size="1.6" text-anchor="middle" font-family="sans-serif">A</text></g><g transform="translate(41.56 0)"><rect x="0.000" y="-0.000" width="27.940" height="55.880" fill="#1e222b" stroke="#4ea1ff" stroke-width="0.25"/><rect x="26.670" y="1.270" width="1.270" height="53.340" fill="#1e222b" stroke="#4ea1ff" stroke-width="0.25"/><line x1="35.560" y1="2.540" x2="27.940" y2="2.540" stroke="#e6e9ef" stroke-width="0.2"/><circle cx="35.560" cy="2.540" r="0.4" fill="#4ea1ff"/><text x="27.440" y="2.890" fill="#e6e9ef" font-size="1.1" text-anchor="end" font-family="sans-serif">PR10D</text><text x="28.240" y="2.190" fill="#9aa3b2" font-size="0.9" text-anchor="start" font-family="sans-serif">51</text><line x1="35.560" y1="5.080" x2="27.940" y2="5.080" stroke="#e6e9ef" stroke-width="0.2"/><circle cx="35.560" cy="5.080" r="0.4" fill="#4ea1ff"/><text x="27.440" y="5.430" fill="#e6e9ef" font-size="1.1" text-anchor="end" font-family="sans-serif">PR10C</text><text x="28.240" y="4.730" fill="#9aa3b2" font-size="0.9" text-anchor="start" font-family="sans-serif">52</text><line x1="35.560" y1="7.620" x2="27.940" y2="7.620" stroke="#e6e9ef" stroke-width="0.2"/><circle cx="35.560" cy="7.620" r="0.4" fill="#4ea1ff"/><text x="27.440" y="7.970" fill="#e6e9ef" font-size="1.1" text-anchor="end" font-family="sans-serif">PR9D</text><text x="28.240" y="7.270" fill="#9aa3b2" font-size="0.9" text-anchor="start" font-family="sans-serif">53</text><line x1="35.560" y1="10.160" x2="27.940" y2="10.160" stroke="#e6e9ef" stroke-width="0.2"/><circle cx="35.560" cy="10.160" r="0.4" fill="#4ea1ff"/><text x="27.440" y="10.510" fill="#e6e9ef" font-size="1.1" text-anchor="end" font-family="sans-serif">PR9C</text><text x="28.240" y="9.810" fill="#9aa3b2" font-size="0.9" text-anchor="start" font-family="sans-serif">54</text><line x1="35.560" y1="12.700" x2="27.940" y2="12.700" stroke="#e6e9ef" stroke-width="0.2"/><circle cx="35.560" cy="12.700" r="0.4" fill="#4ea1ff"/><text x="27.440" y="13.050" fill="#e6e9ef" font-size="1.1" text-anchor="end" font-family="sans-serif">PR9B</text><text x="28.240" y="12.350" fill="#9aa3b2" font-size="0.9" text-anchor="start" font-family="sans-serif">57</text><line x1="35.560" y1="15.240" x2="27.940" y2="15.240" stroke="#e6e9ef" stroke-width="0.2"/><circle cx="35.560" cy="15.240" r="0.4" fill="#4ea1ff"/><text x="27.440" y="15.590" fill="#e6e9ef" font-size="1.1" text-anchor="end" font-family="sans-serif">PR9A</text><text x="28.240" y="14.890" fill="#9aa3b2" font-size="0.9" text-anchor="start" font-family="sans-serif">58</text><line x1="35.560" y1="17.780" x2="27.940" y2="17.780" stroke="#e6e9ef" stroke-width="0.2"/><circle cx="35.560" cy="17.780" r="0.4" fill="#4ea1ff"/><text x="27.440" y="18.130" fill="#e6e9ef" font-size="1.1" text-anchor="end" font-family="sans-serif">PR8D</text><text x="28.240" y="17.430" fill="#9aa3b2" font-size="0.9" text-anchor="start" font-family="sans-serif">59</text><line x1="35.560" y1="20.320" x2="27.940" y2="20.320" stroke="#e6e9ef" stroke-width="0.2"/><circle cx="35.560" cy="20.320" r="0.4" fill="#4ea1ff"/><text x="27.440" y="20.670" fill="#e6e9ef" font-size="1.1" text-anchor="end" font-family="sans-serif">PR8C</text><text x="28.240" y="19.970" fill="#9aa3b2" font-size="0.9" text-anchor="start" font-family="sans-serif">60</text><line x1="35.560" y1="22.860" x2="27.940" y2="22.860" stroke="#e6e9ef" stroke-width="0.2"/><circle cx="35.560" cy="22.860" r="0.4" fill="#4ea1ff"/><text x="27.440" y="23.210" fill="#e6e9ef" font-size="1.1" text-anchor="end" font-family="sans-serif">PR8A</text><text x="28.240" y="22.510" fill="#9aa3b2" font-size="0.9" text-anchor="start" font-family="sans-serif">61</text><line x1="35.560" y1="25.400" x2="27.940" y2="25.400" stroke="#e6e9ef" stroke-width="0.2"/><circle cx="35.560" cy="25.400" r="0.4" fill="#4ea1ff"/><text x="27.440" y="25.750" fill="#e6e9ef" font-size="1.1" text-anchor="end" font-family="sans-serif">PR5D/PCLKC1_0</text><text x="28.240" y="25.050" fill="#9aa3b2" font-size="0.9" text-anchor="start" font-family="sans-serif">62</text><line x1="35.560" y1="27.940" x2="27.940" y2="27.940" stroke="#e6e9ef" stroke-width="0.2"/><circle cx="35.560" cy="27.940" r="0.4" fill="#4ea1ff"/><text x="27.440" y="28.290" fill="#e6e9ef" font-size="1.1" text-anchor="end" font-family="sans-serif">PR5C/PCLKT1_0</text><text x="28.240" y="27.590" fill="#9aa3b2" font-size="0.9" text-anchor="start" font-family="sans-serif">63</text><line x1="35.560" y1="30.480" x2="27.940" y2="30.480" stroke="#e6e9ef" stroke-width="0.2"/><circle cx="35.560" cy="30.480" r="0.4" fill="#4ea1ff"/><text x="27.440" y="30.830" fill="#e6e9ef" font-size="1.1" text-anchor="end" font-family="sans-serif">PR5B</text><text x="28.240" y="30.130" fill="#9aa3b2" font-size="0.9" text-anchor="start" font-family="sans-serif">64</text><line x1="35.560" y1="33.020" x2="27.940" y2="33.020" stroke="#e6e9ef" stroke-width="0.2"/><circle cx="35.560" cy="33.020" r="0.4" fill="#4ea1ff"/><text x="27.440" y="33.370" fill="#e6e9ef" font-size="1.1" text-anchor="end" font-family="sans-serif">PR5A</text><text x="28.240" y="32.670" fill="#9aa3b2" font-size="0.9" text-anchor="start" font-family="sans-serif">65</text><line x1="35.560" y1="35.560" x2="27.940" y2="35.560" stroke="#e6e9ef" stroke-width="0.2"/><circle cx="35.560" cy="35.560" r="0.4" fill="#4ea1ff"/><text x="27.440" y="35.910" fill="#e6e9ef" font-size="1.1" text-anchor="end" font-family="sans-serif">PR4D</text><text x="28.240" y="35.210" fill="#9aa3b2" font-size="0.9" text-anchor="start" font-family="sans-serif">66</text><line x1="35.560" y1="38.100" x2="27.940" y2="38.100" stroke="#e6e9ef" stroke-width="0.2"/><circle cx="35.560" cy="38.100" r="0.4" fill="#4ea1ff"/><text x="27.440" y="38.450" fill="#e6e9ef" font-size="1.1" text-anchor="end" font-family="sans-serif">PR4C</text><text x="28.240" y="37.750" fill="#9aa3b2" font-size="0.9" text-anchor="start" font-family="sans-serif">67</text><line x1="35.560" y1="40.640" x2="27.940" y2="40.640" stroke="#e6e9ef" stroke-width="0.2"/><circle cx="35.560" cy="40.640" r="0.4" fill="#4ea1ff"/><text x="27.440" y="40.990" fill="#e6e9ef" font-size="1.1" text-anchor="end" font-family="sans-serif">PR4B</text><text x="28.240" y="40.290" fill="#9aa3b2" font-size="0.9" text-anchor="start" font-family="sans-serif">68</text><line x1="35.560" y1="43.180" x2="27.940" y2="43.180" stroke="#e6e9ef" stroke-width="0.2"/><circle cx="35.560" cy="43.180" r="0.4" fill="#4ea1ff"/><text x="27.440" y="43.530" fill="#e6e9ef" font-size="1.1" text-anchor="end" font-family="sans-serif">PR4A</text><text x="28.240" y="42.830" fill="#9aa3b2" font-size="0.9" text-anchor="start" font-family="sans-serif">69</text><line x1="35.560" y1="45.720" x2="27.940" y2="45.720" stroke="#e6e9ef" stroke-width="0.2"/><circle cx="35.560" cy="45.720" r="0.4" fill="#4ea1ff"/><text x="27.440" y="46.070" fill="#e6e9ef" font-size="1.1" text-anchor="end" font-family="sans-serif">PR3B</text><text x="28.240" y="45.370" fill="#9aa3b2" font-size="0.9" text-anchor="start" font-family="sans-serif">70</text><line x1="35.560" y1="48.260" x2="27.940" y2="48.260" stroke="#e6e9ef" stroke-width="0.2"/><circle cx="35.560" cy="48.260" r="0.4" fill="#4ea1ff"/><text x="27.440" y="48.610" fill="#e6e9ef" font-size="1.1" text-anchor="end" font-family="sans-serif">PR3A</text><text x="28.240" y="47.910" fill="#9aa3b2" font-size="0.9" text-anchor="start" font-family="sans-serif">71</text><line x1="35.560" y1="50.800" x2="27.940" y2="50.800" stroke="#e6e9ef" stroke-width="0.2"/><circle cx="35.560" cy="50.800" r="0.4" fill="#4ea1ff"/><text x="27.440" y="51.150" fill="#e6e9ef" font-size="1.1" text-anchor="end" font-family="sans-serif">PR2B</text><text x="28.240" y="50.450" fill="#9aa3b2" font-size="0.9" text-anchor="start" font-family="sans-serif">74</text><line x1="35.560" y1="53.340" x2="27.940" y2="53.340" stroke="#e6e9ef" stroke-width="0.2"/><circle cx="35.560" cy="53.340" r="0.4" fill="#4ea1ff"/><text x="27.440" y="53.690" fill="#e6e9ef" font-size="1.1" text-anchor="end" font-family="sans-serif">PR2A</text><text x="28.240" y="52.990" fill="#9aa3b2" font-size="0.9" text-anchor="start" font-family="sans-serif">75</text><text x="17.78" y="-2.00" fill="#9aa3b2" font-size="1.6" text-anchor="middle" font-family="sans-serif">B</text></g><g transform="translate(83.12 0)"><rect x="0.000" y="-0.000" width="27.940" height="53.340" fill="#1e222b" stroke="#4ea1ff" stroke-width="0.25"/><rect x="26.670" y="1.270" width="1.270" height="50.800" fill="#1e222b" stroke="#4ea1ff" stroke-width="0.25"/><line x1="35.560" y1="2.540" x2="27.940" y2="2.540" stroke="#e6e9ef" stroke-width="0.2"/><circle cx="35.560" cy="2.540" r="0.4" fill="#4ea1ff"/><text x="27.440" y="2.890" fill="#e6e9ef" font-size="1.1" text-anchor="end" font-family="sans-serif">PB4C/CSSPIN</text><text x="28.240" y="2.190" fill="#9aa3b2" font-size="0.9" text-anchor="start" font-family="sans-serif">27</text><line x1="35.560" y1="5.080" x2="27.940" y2="5.080" stroke="#e6e9ef" stroke-width="0.2"/><circle cx="35.560" cy="5.080" r="0.4" fill="#4ea1ff"/><text x="27.440" y="5.430" fill="#e6e9ef" font-size="1.1" text-anchor="end" font-family="sans-serif">PB4D</text><text x="28.240" y="4.730" fill="#9aa3b2" font-size="0.9" text-anchor="start" font-family="sans-serif">28</text><line x1="35.560" y1="7.620" x2="27.940" y2="7.620" stroke="#e6e9ef" stroke-width="0.2"/><circle cx="35.560" cy="7.620" r="0.4" fill="#4ea1ff"/><text x="27.440" y="7.970" fill="#e6e9ef" font-size="1.1" text-anchor="end" font-family="sans-serif">PB6A</text><text x="28.240" y="7.270" fill="#9aa3b2" font-size="0.9" text-anchor="start" font-family="sans-serif">29</text><line x1="35.560" y1="10.160" x2="27.940" y2="10.160" stroke="#e6e9ef" stroke-width="0.2"/><circle cx="35.560" cy="10.160" r="0.4" fill="#4ea1ff"/><text x="27.440" y="10.510" fill="#e6e9ef" font-size="1.1" text-anchor="end" font-family="sans-serif">PB6B</text><text x="28.240" y="9.810" fill="#9aa3b2" font-size="0.9" text-anchor="start" font-family="sans-serif">30</text><line x1="35.560" y1="12.700" x2="27.940" y2="12.700" stroke="#e6e9ef" stroke-width="0.2"/><circle cx="35.560" cy="12.700" r="0.4" fill="#4ea1ff"/><text x="27.440" y="13.050" fill="#e6e9ef" font-size="1.1" text-anchor="end" font-family="sans-serif">PB6C/MCLK/CCLK</text><text x="28.240" y="12.350" fill="#9aa3b2" font-size="0.9" text-anchor="start" font-family="sans-serif">31</text><line x1="35.560" y1="15.240" x2="27.940" y2="15.240" stroke="#e6e9ef" stroke-width="0.2"/><circle cx="35.560" cy="15.240" r="0.4" fill="#4ea1ff"/><text x="27.440" y="15.590" fill="#e6e9ef" font-size="1.1" text-anchor="end" font-family="sans-serif">PB6D/SO/SPISO</text><text x="28.240" y="14.890" fill="#9aa3b2" font-size="0.9" text-anchor="start" font-family="sans-serif">32</text><line x1="35.560" y1="17.780" x2="27.940" y2="17.780" stroke="#e6e9ef" stroke-width="0.2"/><circle cx="35.560" cy="17.780" r="0.4" fill="#4ea1ff"/><text x="27.440" y="18.130" fill="#e6e9ef" font-size="1.1" text-anchor="end" font-family="sans-serif">PB9A/PCLKT2_0</text><text x="28.240" y="17.430" fill="#9aa3b2" font-size="0.9" text-anchor="start" font-family="sans-serif">34</text><line x1="35.560" y1="20.320" x2="27.940" y2="20.320" stroke="#e6e9ef" stroke-width="0.2"/><circle cx="35.560" cy="20.320" r="0.4" fill="#4ea1ff"/><text x="27.440" y="20.670" fill="#e6e9ef" font-size="1.1" text-anchor="end" font-family="sans-serif">PB9B/PCLKC2_0</text><text x="28.240" y="19.970" fill="#9aa3b2" font-size="0.9" text-anchor="start" font-family="sans-serif">35</text><line x1="35.560" y1="22.860" x2="27.940" y2="22.860" stroke="#e6e9ef" stroke-width="0.2"/><circle cx="35.560" cy="22.860" r="0.4" fill="#4ea1ff"/><text x="27.440" y="23.210" fill="#e6e9ef" font-size="1.1" text-anchor="end" font-family="sans-serif">PB11C</text><text x="28.240" y="22.510" fill="#9aa3b2" font-size="0.9" text-anchor="start" font-family="sans-serif">36</text><line x1="35.560" y1="25.400" x2="27.940" y2="25.400" stroke="#e6e9ef" stroke-width="0.2"/><circle cx="35.560" cy="25.400" r="0.4" fill="#4ea1ff"/><text x="27.440" y="25.750" fill="#e6e9ef" font-size="1.1" text-anchor="end" font-family="sans-serif">PB11D</text><text x="28.240" y="25.050" fill="#9aa3b2" font-size="0.9" text-anchor="start" font-family="sans-serif">37</text><line x1="35.560" y1="27.940" x2="27.940" y2="27.940" stroke="#e6e9ef" stroke-width="0.2"/><circle cx="35.560" cy="27.940" r="0.4" fill="#4ea1ff"/><text x="27.440" y="28.290" fill="#e6e9ef" font-size="1.1" text-anchor="end" font-family="sans-serif">PB11A/PCLKT2_1</text><text x="28.240" y="27.590" fill="#9aa3b2" font-size="0.9" text-anchor="start" font-family="sans-serif">38</text><line x1="35.560" y1="30.480" x2="27.940" y2="30.480" stroke="#e6e9ef" stroke-width="0.2"/><circle cx="35.560" cy="30.480" r="0.4" fill="#4ea1ff"/><text x="27.440" y="30.830" fill="#e6e9ef" font-size="1.1" text-anchor="end" font-family="sans-serif">PB11B/PCLKC2_1</text><text x="28.240" y="30.130" fill="#9aa3b2" font-size="0.9" text-anchor="start" font-family="sans-serif">39</text><line x1="35.560" y1="33.020" x2="27.940" y2="33.020" stroke="#e6e9ef" stroke-width="0.2"/><circle cx="35.560" cy="33.020" r="0.4" fill="#4ea1ff"/><text x="27.440" y="33.370" fill="#e6e9ef" font-size="1.1" text-anchor="end" font-family="sans-serif">PB15A</text><text x="28.240" y="32.670" fill="#9aa3b2" font-size="0.9" text-anchor="start" font-family="sans-serif">40</text><line x1="35.560" y1="35.560" x2="27.940" y2="35.560" stroke="#e6e9ef" stroke-width="0.2"/><circle cx="35.560" cy="35.560" r="0.4" fill="#4ea1ff"/><text x="27.440" y="35.910" fill="#e6e9ef" font-size="1.1" text-anchor="end" font-family="sans-serif">PB15B</text><text x="28.240" y="35.210" fill="#9aa3b2" font-size="0.9" text-anchor="start" font-family="sans-serif">41</text><line x1="35.560" y1="38.100" x2="27.940" y2="38.100" stroke="#e6e9ef" stroke-width="0.2"/><circle cx="35.560" cy="38.100" r="0.4" fill="#4ea1ff"/><text x="27.440" y="38.450" fill="#e6e9ef" font-size="1.1" text-anchor="end" font-family="sans-serif">PB18A</text><text x="28.240" y="37.750" fill="#9aa3b2" font-size="0.9" text-anchor="start" font-family="sans-serif">42</text><line x1="35.560" y1="40.640" x2="27.940" y2="40.640" stroke="#e6e9ef" stroke-width="0.2"/><circle cx="35.560" cy="40.640" r="0.4" fill="#4ea1ff"/><text x="27.440" y="40.990" fill="#e6e9ef" font-size="1.1" text-anchor="end" font-family="sans-serif">PB18B</text><text x="28.240" y="40.290" fill="#9aa3b2" font-size="0.9" text-anchor="start" font-family="sans-serif">43</text><line x1="35.560" y1="43.180" x2="27.940" y2="43.180" stroke="#e6e9ef" stroke-width="0.2"/><circle cx="35.560" cy="43.180" r="0.4" fill="#4ea1ff"/><text x="27.440" y="43.530" fill="#e6e9ef" font-size="1.1" text-anchor="end" font-family="sans-serif">PB18C</text><text x="28.240" y="42.830" fill="#9aa3b2" font-size="0.9" text-anchor="start" font-family="sans-serif">45</text><line x1="35.560" y1="45.720" x2="27.940" y2="45.720" stroke="#e6e9ef" stroke-width="0.2"/><circle cx="35.560" cy="45.720" r="0.4" fill="#4ea1ff"/><text x="27.440" y="46.070" fill="#e6e9ef" font-size="1.1" text-anchor="end" font-family="sans-serif">PB18D</text><text x="28.240" y="45.370" fill="#9aa3b2" font-size="0.9" text-anchor="start" font-family="sans-serif">47</text><line x1="35.560" y1="48.260" x2="27.940" y2="48.260" stroke="#e6e9ef" stroke-width="0.2"/><circle cx="35.560" cy="48.260" r="0.4" fill="#4ea1ff"/><text x="27.440" y="48.610" fill="#e6e9ef" font-size="1.1" text-anchor="end" font-family="sans-serif">PB20C/SN</text><text x="28.240" y="47.910" fill="#9aa3b2" font-size="0.9" text-anchor="start" font-family="sans-serif">48</text><line x1="35.560" y1="50.800" x2="27.940" y2="50.800" stroke="#e6e9ef" stroke-width="0.2"/><circle cx="35.560" cy="50.800" r="0.4" fill="#4ea1ff"/><text x="27.440" y="51.150" fill="#e6e9ef" font-size="1.1" text-anchor="end" font-family="sans-serif">PB20D/SI/SISPI</text><text x="28.240" y="50.450" fill="#9aa3b2" font-size="0.9" text-anchor="start" font-family="sans-serif">49</text><text x="17.78" y="-2.00" fill="#9aa3b2" font-size="1.6" text-anchor="middle" font-family="sans-serif">C</text></g><g transform="translate(124.68 0)"><rect x="0.000" y="-0.000" width="27.940" height="53.340" fill="#1e222b" stroke="#4ea1ff" stroke-width="0.25"/><rect x="26.670" y="1.270" width="1.270" height="50.800" fill="#1e222b" stroke="#4ea1ff" stroke-width="0.25"/><line x1="35.560" y1="2.540" x2="27.940" y2="2.540" stroke="#e6e9ef" stroke-width="0.2"/><circle cx="35.560" cy="2.540" r="0.4" fill="#4ea1ff"/><text x="27.440" y="2.890" fill="#e6e9ef" font-size="1.1" text-anchor="end" font-family="sans-serif">PL2C/L_GPLLT_IN</text><text x="28.240" y="2.190" fill="#9aa3b2" font-size="0.9" text-anchor="start" font-family="sans-serif">1</text><line x1="35.560" y1="5.080" x2="27.940" y2="5.080" stroke="#e6e9ef" stroke-width="0.2"/><circle cx="35.560" cy="5.080" r="0.4" fill="#4ea1ff"/><text x="27.440" y="5.430" fill="#e6e9ef" font-size="1.1" text-anchor="end" font-family="sans-serif">PL2D/L_GPLLC_IN</text><text x="28.240" y="4.730" fill="#9aa3b2" font-size="0.9" text-anchor="start" font-family="sans-serif">2</text><line x1="35.560" y1="7.620" x2="27.940" y2="7.620" stroke="#e6e9ef" stroke-width="0.2"/><circle cx="35.560" cy="7.620" r="0.4" fill="#4ea1ff"/><text x="27.440" y="7.970" fill="#e6e9ef" font-size="1.1" text-anchor="end" font-family="sans-serif">PL3A/PCLKT3_2</text><text x="28.240" y="7.270" fill="#9aa3b2" font-size="0.9" text-anchor="start" font-family="sans-serif">3</text><line x1="35.560" y1="10.160" x2="27.940" y2="10.160" stroke="#e6e9ef" stroke-width="0.2"/><circle cx="35.560" cy="10.160" r="0.4" fill="#4ea1ff"/><text x="27.440" y="10.510" fill="#e6e9ef" font-size="1.1" text-anchor="end" font-family="sans-serif">PL3B/PCLKC3_2</text><text x="28.240" y="9.810" fill="#9aa3b2" font-size="0.9" text-anchor="start" font-family="sans-serif">4</text><line x1="35.560" y1="12.700" x2="27.940" y2="12.700" stroke="#e6e9ef" stroke-width="0.2"/><circle cx="35.560" cy="12.700" r="0.4" fill="#4ea1ff"/><text x="27.440" y="13.050" fill="#e6e9ef" font-size="1.1" text-anchor="end" font-family="sans-serif">PL3C</text><text x="28.240" y="12.350" fill="#9aa3b2" font-size="0.9" text-anchor="start" font-family="sans-serif">7</text><line x1="35.560" y1="15.240" x2="27.940" y2="15.240" stroke="#e6e9ef" stroke-width="0.2"/><circle cx="35.560" cy="15.240" r="0.4" fill="#4ea1ff"/><text x="27.440" y="15.590" fill="#e6e9ef" font-size="1.1" text-anchor="end" font-family="sans-serif">PL3D</text><text x="28.240" y="14.890" fill="#9aa3b2" font-size="0.9" text-anchor="start" font-family="sans-serif">8</text><line x1="35.560" y1="17.780" x2="27.940" y2="17.780" stroke="#e6e9ef" stroke-width="0.2"/><circle cx="35.560" cy="17.780" r="0.4" fill="#4ea1ff"/><text x="27.440" y="18.130" fill="#e6e9ef" font-size="1.1" text-anchor="end" font-family="sans-serif">PL4A</text><text x="28.240" y="17.430" fill="#9aa3b2" font-size="0.9" text-anchor="start" font-family="sans-serif">9</text><line x1="35.560" y1="20.320" x2="27.940" y2="20.320" stroke="#e6e9ef" stroke-width="0.2"/><circle cx="35.560" cy="20.320" r="0.4" fill="#4ea1ff"/><text x="27.440" y="20.670" fill="#e6e9ef" font-size="1.1" text-anchor="end" font-family="sans-serif">PL4B</text><text x="28.240" y="19.970" fill="#9aa3b2" font-size="0.9" text-anchor="start" font-family="sans-serif">10</text><line x1="35.560" y1="22.860" x2="27.940" y2="22.860" stroke="#e6e9ef" stroke-width="0.2"/><circle cx="35.560" cy="22.860" r="0.4" fill="#4ea1ff"/><text x="27.440" y="23.210" fill="#e6e9ef" font-size="1.1" text-anchor="end" font-family="sans-serif">PL5A/PCLKT3_1</text><text x="28.240" y="22.510" fill="#9aa3b2" font-size="0.9" text-anchor="start" font-family="sans-serif">12</text><line x1="35.560" y1="25.400" x2="27.940" y2="25.400" stroke="#e6e9ef" stroke-width="0.2"/><circle cx="35.560" cy="25.400" r="0.4" fill="#4ea1ff"/><text x="27.440" y="25.750" fill="#e6e9ef" font-size="1.1" text-anchor="end" font-family="sans-serif">PL5B/PCLKC3_1</text><text x="28.240" y="25.050" fill="#9aa3b2" font-size="0.9" text-anchor="start" font-family="sans-serif">13</text><line x1="35.560" y1="27.940" x2="27.940" y2="27.940" stroke="#e6e9ef" stroke-width="0.2"/><circle cx="35.560" cy="27.940" r="0.4" fill="#4ea1ff"/><text x="27.440" y="28.290" fill="#e6e9ef" font-size="1.1" text-anchor="end" font-family="sans-serif">PL5C</text><text x="28.240" y="27.590" fill="#9aa3b2" font-size="0.9" text-anchor="start" font-family="sans-serif">14</text><line x1="35.560" y1="30.480" x2="27.940" y2="30.480" stroke="#e6e9ef" stroke-width="0.2"/><circle cx="35.560" cy="30.480" r="0.4" fill="#4ea1ff"/><text x="27.440" y="30.830" fill="#e6e9ef" font-size="1.1" text-anchor="end" font-family="sans-serif">PL5D</text><text x="28.240" y="30.130" fill="#9aa3b2" font-size="0.9" text-anchor="start" font-family="sans-serif">15</text><line x1="35.560" y1="33.020" x2="27.940" y2="33.020" stroke="#e6e9ef" stroke-width="0.2"/><circle cx="35.560" cy="33.020" r="0.4" fill="#4ea1ff"/><text x="27.440" y="33.370" fill="#e6e9ef" font-size="1.1" text-anchor="end" font-family="sans-serif">PL8A</text><text x="28.240" y="32.670" fill="#9aa3b2" font-size="0.9" text-anchor="start" font-family="sans-serif">16</text><line x1="35.560" y1="35.560" x2="27.940" y2="35.560" stroke="#e6e9ef" stroke-width="0.2"/><circle cx="35.560" cy="35.560" r="0.4" fill="#4ea1ff"/><text x="27.440" y="35.910" fill="#e6e9ef" font-size="1.1" text-anchor="end" font-family="sans-serif">PL8B</text><text x="28.240" y="35.210" fill="#9aa3b2" font-size="0.9" text-anchor="start" font-family="sans-serif">17</text><line x1="35.560" y1="38.100" x2="27.940" y2="38.100" stroke="#e6e9ef" stroke-width="0.2"/><circle cx="35.560" cy="38.100" r="0.4" fill="#4ea1ff"/><text x="27.440" y="38.450" fill="#e6e9ef" font-size="1.1" text-anchor="end" font-family="sans-serif">PL8C</text><text x="28.240" y="37.750" fill="#9aa3b2" font-size="0.9" text-anchor="start" font-family="sans-serif">18</text><line x1="35.560" y1="40.640" x2="27.940" y2="40.640" stroke="#e6e9ef" stroke-width="0.2"/><circle cx="35.560" cy="40.640" r="0.4" fill="#4ea1ff"/><text x="27.440" y="40.990" fill="#e6e9ef" font-size="1.1" text-anchor="end" font-family="sans-serif">PL8D</text><text x="28.240" y="40.290" fill="#9aa3b2" font-size="0.9" text-anchor="start" font-family="sans-serif">19</text><line x1="35.560" y1="43.180" x2="27.940" y2="43.180" stroke="#e6e9ef" stroke-width="0.2"/><circle cx="35.560" cy="43.180" r="0.4" fill="#4ea1ff"/><text x="27.440" y="43.530" fill="#e6e9ef" font-size="1.1" text-anchor="end" font-family="sans-serif">PL9A/PCLKT3_0</text><text x="28.240" y="42.830" fill="#9aa3b2" font-size="0.9" text-anchor="start" font-family="sans-serif">20</text><line x1="35.560" y1="45.720" x2="27.940" y2="45.720" stroke="#e6e9ef" stroke-width="0.2"/><circle cx="35.560" cy="45.720" r="0.4" fill="#4ea1ff"/><text x="27.440" y="46.070" fill="#e6e9ef" font-size="1.1" text-anchor="end" font-family="sans-serif">PL9B/PCLKC3_0</text><text x="28.240" y="45.370" fill="#9aa3b2" font-size="0.9" text-anchor="start" font-family="sans-serif">21</text><line x1="35.560" y1="48.260" x2="27.940" y2="48.260" stroke="#e6e9ef" stroke-width="0.2"/><circle cx="35.560" cy="48.260" r="0.4" fill="#4ea1ff"/><text x="27.440" y="48.610" fill="#e6e9ef" font-size="1.1" text-anchor="end" font-family="sans-serif">PL10C</text><text x="28.240" y="47.910" fill="#9aa3b2" font-size="0.9" text-anchor="start" font-family="sans-serif">24</text><line x1="35.560" y1="50.800" x2="27.940" y2="50.800" stroke="#e6e9ef" stroke-width="0.2"/><circle cx="35.560" cy="50.800" r="0.4" fill="#4ea1ff"/><text x="27.440" y="51.150" fill="#e6e9ef" font-size="1.1" text-anchor="end" font-family="sans-serif">PL10D</text><text x="28.240" y="50.450" fill="#9aa3b2" font-size="0.9" text-anchor="start" font-family="sans-serif">25</text><text x="17.78" y="-2.00" fill="#9aa3b2" font-size="1.6" text-anchor="middle" font-family="sans-serif">D</text></g><g transform="translate(173.86 0)"><rect x="0.000" y="-0.000" width="20.320" height="35.560" fill="#1e222b" stroke="#4ea1ff" stroke-width="0.25"/><line x1="-7.620" y1="2.540" x2="0.000" y2="2.540" stroke="#e6e9ef" stroke-width="0.2"/><circle cx="-7.620" cy="2.540" r="0.4" fill="#4ea1ff"/><text x="0.500" y="2.890" fill="#e6e9ef" font-size="1.1" text-anchor="start" font-family="sans-serif">VCCIO0</text><text x="-0.300" y="2.190" fill="#9aa3b2" font-size="0.9" text-anchor="end" font-family="sans-serif">80</text><line x1="-7.620" y1="5.080" x2="0.000" y2="5.080" stroke="#e6e9ef" stroke-width="0.2"/><circle cx="-7.620" cy="5.080" r="0.4" fill="#4ea1ff"/><text x="0.500" y="5.430" fill="#e6e9ef" font-size="1.1" text-anchor="start" font-family="sans-serif">VCCIO0</text><text x="-0.300" y="4.730" fill="#9aa3b2" font-size="0.9" text-anchor="end" font-family="sans-serif">93</text><line x1="-7.620" y1="10.160" x2="0.000" y2="10.160" stroke="#e6e9ef" stroke-width="0.2"/><circle cx="-7.620" cy="10.160" r="0.4" fill="#4ea1ff"/><text x="0.500" y="10.510" fill="#e6e9ef" font-size="1.1" text-anchor="start" font-family="sans-serif">VCCIO1</text><text x="-0.300" y="9.810" fill="#9aa3b2" font-size="0.9" text-anchor="end" font-family="sans-serif">55</text><line x1="-7.620" y1="12.700" x2="0.000" y2="12.700" stroke="#e6e9ef" stroke-width="0.2"/><circle cx="-7.620" cy="12.700" r="0.4" fill="#4ea1ff"/><text x="0.500" y="13.050" fill="#e6e9ef" font-size="1.1" text-anchor="start" font-family="sans-serif">VCCIO1</text><text x="-0.300" y="12.350" fill="#9aa3b2" font-size="0.9" text-anchor="end" font-family="sans-serif">73</text><line x1="-7.620" y1="17.780" x2="0.000" y2="17.780" stroke="#e6e9ef" stroke-width="0.2"/><circle cx="-7.620" cy="17.780" r="0.4" fill="#4ea1ff"/><text x="0.500" y="18.130" fill="#e6e9ef" font-size="1.1" text-anchor="start" font-family="sans-serif">VCCIO2</text><text x="-0.300" y="17.430" fill="#9aa3b2" font-size="0.9" text-anchor="end" font-family="sans-serif">26</text><line x1="-7.620" y1="20.320" x2="0.000" y2="20.320" stroke="#e6e9ef" stroke-width="0.2"/><circle cx="-7.620" cy="20.320" r="0.4" fill="#4ea1ff"/><text x="0.500" y="20.670" fill="#e6e9ef" font-size="1.1" text-anchor="start" font-family="sans-serif">VCCIO2</text><text x="-0.300" y="19.970" fill="#9aa3b2" font-size="0.9" text-anchor="end" font-family="sans-serif">46</text><line x1="-7.620" y1="27.940" x2="0.000" y2="27.940" stroke="#e6e9ef" stroke-width="0.2"/><circle cx="-7.620" cy="27.940" r="0.4" fill="#4ea1ff"/><text x="0.500" y="28.290" fill="#e6e9ef" font-size="1.1" text-anchor="start" font-family="sans-serif">VCCIO3</text><text x="-0.300" y="27.590" fill="#9aa3b2" font-size="0.9" text-anchor="end" font-family="sans-serif">5</text><line x1="-7.620" y1="30.480" x2="0.000" y2="30.480" stroke="#e6e9ef" stroke-width="0.2"/><circle cx="-7.620" cy="30.480" r="0.4" fill="#4ea1ff"/><text x="0.500" y="30.830" fill="#e6e9ef" font-size="1.1" text-anchor="start" font-family="sans-serif">VCCIO3</text><text x="-0.300" y="30.130" fill="#9aa3b2" font-size="0.9" text-anchor="end" font-family="sans-serif">11</text><line x1="-7.620" y1="33.020" x2="0.000" y2="33.020" stroke="#e6e9ef" stroke-width="0.2"/><circle cx="-7.620" cy="33.020" r="0.4" fill="#4ea1ff"/><text x="0.500" y="33.370" fill="#e6e9ef" font-size="1.1" text-anchor="start" font-family="sans-serif">VCCIO3</text><text x="-0.300" y="32.670" fill="#9aa3b2" font-size="0.9" text-anchor="end" font-family="sans-serif">23</text><line x1="27.940" y1="2.540" x2="20.320" y2="2.540" stroke="#e6e9ef" stroke-width="0.2"/><circle cx="27.940" cy="2.540" r="0.4" fill="#4ea1ff"/><text x="19.820" y="2.890" fill="#e6e9ef" font-size="1.1" text-anchor="end" font-family="sans-serif">VCC</text><text x="20.620" y="2.190" fill="#9aa3b2" font-size="0.9" text-anchor="start" font-family="sans-serif">50</text><line x1="27.940" y1="5.080" x2="20.320" y2="5.080" stroke="#e6e9ef" stroke-width="0.2"/><circle cx="27.940" cy="5.080" r="0.4" fill="#4ea1ff"/><text x="19.820" y="5.430" fill="#e6e9ef" font-size="1.1" text-anchor="end" font-family="sans-serif">VCC</text><text x="20.620" y="4.730" fill="#9aa3b2" font-size="0.9" text-anchor="start" font-family="sans-serif">100</text><line x1="27.940" y1="10.160" x2="20.320" y2="10.160" stroke="#e6e9ef" stroke-width="0.2"/><circle cx="27.940" cy="10.160" r="0.4" fill="#4ea1ff"/><text x="19.820" y="10.510" fill="#e6e9ef" font-size="1.1" text-anchor="end" font-family="sans-serif">NC</text><text x="20.620" y="9.810" fill="#9aa3b2" font-size="0.9" text-anchor="start" font-family="sans-serif">89</text><line x1="27.940" y1="15.240" x2="20.320" y2="15.240" stroke="#e6e9ef" stroke-width="0.2"/><circle cx="27.940" cy="15.240" r="0.4" fill="#4ea1ff"/><text x="19.820" y="15.590" fill="#e6e9ef" font-size="1.1" text-anchor="end" font-family="sans-serif">GND</text><text x="20.620" y="14.890" fill="#9aa3b2" font-size="0.9" text-anchor="start" font-family="sans-serif">6</text><line x1="27.940" y1="17.780" x2="20.320" y2="17.780" stroke="#e6e9ef" stroke-width="0.2"/><circle cx="27.940" cy="17.780" r="0.4" fill="#4ea1ff"/><text x="19.820" y="18.130" fill="#e6e9ef" font-size="1.1" text-anchor="end" font-family="sans-serif">GND</text><text x="20.620" y="17.430" fill="#9aa3b2" font-size="0.9" text-anchor="start" font-family="sans-serif">22</text><line x1="27.940" y1="20.320" x2="20.320" y2="20.320" stroke="#e6e9ef" stroke-width="0.2"/><circle cx="27.940" cy="20.320" r="0.4" fill="#4ea1ff"/><text x="19.820" y="20.670" fill="#e6e9ef" font-size="1.1" text-anchor="end" font-family="sans-serif">GND</text><text x="20.620" y="19.970" fill="#9aa3b2" font-size="0.9" text-anchor="start" font-family="sans-serif">33</text><line x1="27.940" y1="22.860" x2="20.320" y2="22.860" stroke="#e6e9ef" stroke-width="0.2"/><circle cx="27.940" cy="22.860" r="0.4" fill="#4ea1ff"/><text x="19.820" y="23.210" fill="#e6e9ef" font-size="1.1" text-anchor="end" font-family="sans-serif">GND</text><text x="20.620" y="22.510" fill="#9aa3b2" font-size="0.9" text-anchor="start" font-family="sans-serif">44</text><line x1="27.940" y1="25.400" x2="20.320" y2="25.400" stroke="#e6e9ef" stroke-width="0.2"/><circle cx="27.940" cy="25.400" r="0.4" fill="#4ea1ff"/><text x="19.820" y="25.750" fill="#e6e9ef" font-size="1.1" text-anchor="end" font-family="sans-serif">GND</text><text x="20.620" y="25.050" fill="#9aa3b2" font-size="0.9" text-anchor="start" font-family="sans-serif">56</text><line x1="27.940" y1="27.940" x2="20.320" y2="27.940" stroke="#e6e9ef" stroke-width="0.2"/><circle cx="27.940" cy="27.940" r="0.4" fill="#4ea1ff"/><text x="19.820" y="28.290" fill="#e6e9ef" font-size="1.1" text-anchor="end" font-family="sans-serif">GND</text><text x="20.620" y="27.590" fill="#9aa3b2" font-size="0.9" text-anchor="start" font-family="sans-serif">72</text><line x1="27.940" y1="30.480" x2="20.320" y2="30.480" stroke="#e6e9ef" stroke-width="0.2"/><circle cx="27.940" cy="30.480" r="0.4" fill="#4ea1ff"/><text x="19.820" y="30.830" fill="#e6e9ef" font-size="1.1" text-anchor="end" font-family="sans-serif">GND</text><text x="20.620" y="30.130" fill="#9aa3b2" font-size="0.9" text-anchor="start" font-family="sans-serif">79</text><line x1="27.940" y1="33.020" x2="20.320" y2="33.020" stroke="#e6e9ef" stroke-width="0.2"/><circle cx="27.940" cy="33.020" r="0.4" fill="#4ea1ff"/><text x="19.820" y="33.370" fill="#e6e9ef" font-size="1.1" text-anchor="end" font-family="sans-serif">GND</text><text x="20.620" y="32.670" fill="#9aa3b2" font-size="0.9" text-anchor="start" font-family="sans-serif">92</text><text x="10.16" y="-2.00" fill="#9aa3b2" font-size="1.6" text-anchor="middle" font-family="sans-serif">E</text></g></svg>