<svg xmlns="http://www.w3.org/2000/svg" viewBox="-6.58 -1.50 23.32 23.32" preserveAspectRatio="xMidYMid meet" style="width:100%;height:100%"><rect x="-6.58" y="-1.50" width="23.32" height="23.32" fill="#12151c"/><rect x="3.302" y="4.318" width="1.016" height="0.254" fill="#1e222b" stroke="#4ea1ff" stroke-width="0.25"/><rect x="4.318" y="12.192" width="0.254" height="1.016" fill="#1e222b" stroke="#4ea1ff" stroke-width="0.25"/><rect x="4.318" y="13.462" width="0.254" height="1.016" fill="#1e222b" stroke="#4ea1ff" stroke-width="0.25"/><rect x="4.318" y="14.732" width="0.254" height="1.016" fill="#1e222b" stroke="#4ea1ff" stroke-width="0.25"/><rect x="4.572" y="2.032" width="0.254" height="1.016" fill="#1e222b" stroke="#4ea1ff" stroke-width="0.25"/><rect x="4.572" y="4.318" width="1.016" height="0.254" fill="#1e222b" stroke="#4ea1ff" stroke-width="0.25"/><rect x="5.842" y="4.318" width="1.016" height="0.254" fill="#1e222b" stroke="#4ea1ff" stroke-width="0.25"/><rect x="5.842" y="13.462" width="1.016" height="0.254" fill="#1e222b" stroke="#4ea1ff" stroke-width="0.25"/><rect x="0.000" y="-0.000" width="10.160" height="20.320" fill="#1e222b" stroke="#4ea1ff" stroke-width="0.25"/><polyline points="0.000,8.890 6.350,8.890" fill="none" stroke="#4ea1ff" stroke-width="0.25" stroke-linejoin="round"/><polyline points="0.000,15.240 2.540,15.240" fill="none" stroke="#4ea1ff" stroke-width="0.25" stroke-linejoin="round"/><polyline points="1.524,15.240 1.524,17.780" fill="none" stroke="#4ea1ff" stroke-width="0.25" stroke-linejoin="round"/><polyline points="2.667,18.542 2.921,18.288" fill="none" stroke="#4ea1ff" stroke-width="0.25" stroke-linejoin="round"/><polyline points="2.794,17.780 3.683,18.288 3.683,17.272 2.794,17.780" fill="#1e222b" stroke="#4ea1ff" stroke-width="0.25" stroke-linejoin="round"/><polyline points="2.921,17.272 2.921,18.288" fill="none" stroke="#4ea1ff" stroke-width="0.25" stroke-linejoin="round"/><polyline points="2.921,17.272 3.175,17.018" fill="none" stroke="#4ea1ff" stroke-width="0.25" stroke-linejoin="round"/><polyline points="3.302,5.334 3.302,4.826 6.858,4.826 6.858,5.334 3.302,5.334" fill="#1e222b" stroke="#4ea1ff" stroke-width="0.25" stroke-linejoin="round"/><polyline points="3.556,15.240 2.540,15.240" fill="none" stroke="#4ea1ff" stroke-width="0.25" stroke-linejoin="round"/><polyline points="3.556,15.748 4.064,15.748 4.064,12.192 3.556,12.192 3.556,15.748" fill="#1e222b" stroke="#4ea1ff" stroke-width="0.25" stroke-linejoin="round"/><polyline points="3.810,2.540 0.000,2.540" fill="none" stroke="#4ea1ff" stroke-width="0.25" stroke-linejoin="round"/><polyline points="3.810,4.318 3.810,2.540" fill="none" stroke="#4ea1ff" stroke-width="0.25" stroke-linejoin="round"/><polyline points="3.810,5.334 3.810,8.890" fill="none" stroke="#4ea1ff" stroke-width="0.25" stroke-linejoin="round"/><polyline points="4.445,13.970 5.461,13.970" fill="none" stroke="#4ea1ff" stroke-width="0.25" stroke-linejoin="round"/><polyline points="4.572,2.540 5.461,3.048 5.461,2.032 4.572,2.540" fill="#1e222b" stroke="#4ea1ff" stroke-width="0.25" stroke-linejoin="round"/><polyline points="4.572,12.700 6.350,12.700" fill="none" stroke="#4ea1ff" stroke-width="0.25" stroke-linejoin="round"/><polyline points="4.572,13.970 5.080,13.462 5.080,14.478 4.572,13.970" fill="#1e222b" stroke="#4ea1ff" stroke-width="0.25" stroke-linejoin="round"/><polyline points="4.572,15.240 6.350,15.240" fill="none" stroke="#4ea1ff" stroke-width="0.25" stroke-linejoin="round"/><polyline points="5.080,3.429 3.810,3.429" fill="none" stroke="#4ea1ff" stroke-width="0.25" stroke-linejoin="round"/><polyline points="5.080,3.556 4.572,4.064 5.588,4.064 5.080,3.556" fill="#1e222b" stroke="#4ea1ff" stroke-width="0.25" stroke-linejoin="round"/><polyline points="5.080,4.445 5.080,3.429" fill="none" stroke="#4ea1ff" stroke-width="0.25" stroke-linejoin="round"/><polyline points="5.461,13.970 5.461,15.240" fill="none" stroke="#4ea1ff" stroke-width="0.25" stroke-linejoin="round"/><polyline points="6.350,2.540 3.810,2.540" fill="none" stroke="#4ea1ff" stroke-width="0.25" stroke-linejoin="round"/><polyline points="6.350,4.318 6.350,2.540" fill="none" stroke="#4ea1ff" stroke-width="0.25" stroke-linejoin="round"/><polyline points="6.350,8.890 6.350,12.700" fill="none" stroke="#4ea1ff" stroke-width="0.25" stroke-linejoin="round"/><polyline points="6.350,12.700 6.350,15.240" fill="none" stroke="#4ea1ff" stroke-width="0.25" stroke-linejoin="round"/><polyline points="6.350,13.462 5.842,14.351 6.858,14.351 6.350,13.462" fill="#1e222b" stroke="#4ea1ff" stroke-width="0.25" stroke-linejoin="round"/><polyline points="6.350,15.240 6.350,16.002" fill="none" stroke="#4ea1ff" stroke-width="0.25" stroke-linejoin="round"/><polyline points="6.350,17.780 1.524,17.780" fill="none" stroke="#4ea1ff" stroke-width="0.25" stroke-linejoin="round"/><polyline points="6.350,17.780 6.350,16.002" fill="none" stroke="#4ea1ff" stroke-width="0.25" stroke-linejoin="round"/><polyline points="6.350,17.780 10.160,17.780" fill="none" stroke="#4ea1ff" stroke-width="0.25" stroke-linejoin="round"/><polyline points="8.890,5.080 8.890,2.540" fill="none" stroke="#4ea1ff" stroke-width="0.25" stroke-linejoin="round"/><polyline points="10.160,2.540 6.350,2.540" fill="none" stroke="#4ea1ff" stroke-width="0.25" stroke-linejoin="round"/><polyline points="10.160,5.080 8.890,5.080" fill="none" stroke="#4ea1ff" stroke-width="0.25" stroke-linejoin="round"/><circle cx="1.524" cy="15.240" r="0.254" fill="none" stroke="#4ea1ff" stroke-width="0.25"/><circle cx="3.810" cy="8.890" r="0.254" fill="none" stroke="#4ea1ff" stroke-width="0.25"/><circle cx="4.826" cy="13.970" r="2.540" fill="none" stroke="#4ea1ff" stroke-width="0.25"/><circle cx="5.080" cy="4.064" r="2.540" fill="none" stroke="#4ea1ff" stroke-width="0.25"/><circle cx="6.350" cy="17.780" r="0.254" fill="none" stroke="#4ea1ff" stroke-width="0.25"/><circle cx="8.890" cy="2.540" r="0.254" fill="none" stroke="#4ea1ff" stroke-width="0.25"/><line x1="-5.080" y1="2.540" x2="0.000" y2="2.540" stroke="#e6e9ef" stroke-width="0.2"/><circle cx="-5.080" cy="2.540" r="0.4" fill="#4ea1ff"/><text x="-0.300" y="2.190" fill="#9aa3b2" font-size="0.9" text-anchor="end" font-family="sans-serif">4</text><line x1="-5.080" y1="8.890" x2="0.000" y2="8.890" stroke="#e6e9ef" stroke-width="0.2"/><circle cx="-5.080" cy="8.890" r="0.4" fill="#4ea1ff"/><text x="-0.300" y="8.540" fill="#9aa3b2" font-size="0.9" text-anchor="end" font-family="sans-serif">6</text><line x1="-5.080" y1="15.240" x2="0.000" y2="15.240" stroke="#e6e9ef" stroke-width="0.2"/><circle cx="-5.080" cy="15.240" r="0.4" fill="#4ea1ff"/><text x="-0.300" y="14.890" fill="#9aa3b2" font-size="0.9" text-anchor="end" font-family="sans-serif">5</text><line x1="15.240" y1="2.540" x2="10.160" y2="2.540" stroke="#e6e9ef" stroke-width="0.2"/><circle cx="15.240" cy="2.540" r="0.4" fill="#4ea1ff"/><text x="10.460" y="2.190" fill="#9aa3b2" font-size="0.9" text-anchor="start" font-family="sans-serif">2</text><line x1="15.240" y1="5.080" x2="10.160" y2="5.080" stroke="#e6e9ef" stroke-width="0.2"/><circle cx="15.240" cy="5.080" r="0.4" fill="#4ea1ff"/><text x="10.460" y="4.730" fill="#9aa3b2" font-size="0.9" text-anchor="start" font-family="sans-serif">3</text><line x1="15.240" y1="17.780" x2="10.160" y2="17.780" stroke="#e6e9ef" stroke-width="0.2"/><circle cx="15.240" cy="17.780" r="0.4" fill="#4ea1ff"/><text x="10.460" y="17.430" fill="#9aa3b2" font-size="0.9" text-anchor="start" font-family="sans-serif">1</text></svg>