<svg xmlns="http://www.w3.org/2000/svg" viewBox="-23.75 -8.95 47.50 28.88" preserveAspectRatio="xMidYMid meet" style="width:100%;height:100%"><rect x="-23.75" y="-8.95" width="47.50" height="28.88" fill="#12151c"/><line x1="-19.595" y1="-6.420" x2="-12.685" y2="-6.420" stroke="#e6e9ef" stroke-width="0.200" stroke-linecap="round" opacity="1"/><line x1="-19.595" y1="8.180" x2="-12.685" y2="8.180" stroke="#e6e9ef" stroke-width="0.200" stroke-linecap="round" opacity="1"/><line x1="-19.595" y1="10.180" x2="19.595" y2="10.180" stroke="#e6e9ef" stroke-width="0.200" stroke-linecap="round" opacity="1"/><line x1="-19.595" y1="12.180" x2="19.595" y2="12.180" stroke="#e6e9ef" stroke-width="0.200" stroke-linecap="round" opacity="1"/><line x1="-19.595" y1="12.880" x2="-19.595" y2="-6.420" stroke="#e6e9ef" stroke-width="0.200" stroke-linecap="round" opacity="1"/><line x1="-19.595" y1="12.880" x2="19.595" y2="12.880" stroke="#e6e9ef" stroke-width="0.200" stroke-linecap="round" opacity="1"/><line x1="-19.060" y1="18.680" x2="-19.060" y2="12.880" stroke="#e6e9ef" stroke-width="0.200" stroke-linecap="round" opacity="1"/><line x1="-19.060" y1="18.680" x2="-14.260" y2="18.680" stroke="#e6e9ef" stroke-width="0.200" stroke-linecap="round" opacity="1"/><line x1="-17.910" y1="5.050" x2="-17.910" y2="-1.269" stroke="#e6e9ef" stroke-width="0.200" stroke-linecap="round" opacity="1"/><line x1="-17.910" y1="5.050" x2="-17.410" y2="5.050" stroke="#e6e9ef" stroke-width="0.200" stroke-linecap="round" opacity="1"/><line x1="-17.760" y1="5.180" x2="-15.560" y2="5.180" stroke="#e6e9ef" stroke-width="0.200" stroke-linecap="round" opacity="1"/><line x1="-17.760" y1="8.180" x2="-17.760" y2="5.180" stroke="#e6e9ef" stroke-width="0.200" stroke-linecap="round" opacity="1"/><line x1="-17.410" y1="0.550" x2="-17.410" y2="-1.026" stroke="#e6e9ef" stroke-width="0.200" stroke-linecap="round" opacity="1"/><line x1="-17.410" y1="0.550" x2="-15.910" y2="0.550" stroke="#e6e9ef" stroke-width="0.200" stroke-linecap="round" opacity="1"/><line x1="-17.410" y1="1.050" x2="-15.910" y2="1.050" stroke="#e6e9ef" stroke-width="0.200" stroke-linecap="round" opacity="1"/><line x1="-17.410" y1="5.050" x2="-17.410" y2="1.050" stroke="#e6e9ef" stroke-width="0.200" stroke-linecap="round" opacity="1"/><line x1="-16.660" y1="18.680" x2="-16.660" y2="12.880" stroke="#e6e9ef" stroke-width="0.200" stroke-linecap="round" opacity="1"/><line x1="-15.910" y1="0.550" x2="-15.910" y2="-1.026" stroke="#e6e9ef" stroke-width="0.200" stroke-linecap="round" opacity="1"/><line x1="-15.910" y1="5.050" x2="-15.910" y2="1.050" stroke="#e6e9ef" stroke-width="0.200" stroke-linecap="round" opacity="1"/><line x1="-15.910" y1="5.050" x2="-15.410" y2="5.050" stroke="#e6e9ef" stroke-width="0.200" stroke-linecap="round" opacity="1"/><line x1="-15.560" y1="8.180" x2="-15.560" y2="5.180" stroke="#e6e9ef" stroke-width="0.200" stroke-linecap="round" opacity="1"/><line x1="-15.410" y1="5.050" x2="-15.410" y2="-1.269" stroke="#e6e9ef" stroke-width="0.200" stroke-linecap="round" opacity="1"/><line x1="-14.260" y1="18.680" x2="-14.260" y2="12.880" stroke="#e6e9ef" stroke-width="0.200" stroke-linecap="round" opacity="1"/><line x1="-12.685" y1="-6.720" x2="12.685" y2="-6.720" stroke="#e6e9ef" stroke-width="0.200" stroke-linecap="round" opacity="1"/><line x1="-12.685" y1="10.180" x2="-12.685" y2="-6.720" stroke="#e6e9ef" stroke-width="0.200" stroke-linecap="round" opacity="1"/><line x1="-12.485" y1="10.180" x2="-12.485" y2="-6.720" stroke="#e6e9ef" stroke-width="0.200" stroke-linecap="round" opacity="1"/><line x1="-12.330" y1="18.230" x2="-12.330" y2="12.880" stroke="#e6e9ef" stroke-width="0.200" stroke-linecap="round" opacity="1"/><line x1="-11.880" y1="18.680" x2="11.880" y2="18.680" stroke="#e6e9ef" stroke-width="0.200" stroke-linecap="round" opacity="1"/><line x1="12.330" y1="18.230" x2="12.330" y2="12.880" stroke="#e6e9ef" stroke-width="0.200" stroke-linecap="round" opacity="1"/><line x1="12.485" y1="10.180" x2="12.485" y2="-6.720" stroke="#e6e9ef" stroke-width="0.200" stroke-linecap="round" opacity="1"/><line x1="12.685" y1="-6.420" x2="19.595" y2="-6.420" stroke="#e6e9ef" stroke-width="0.200" stroke-linecap="round" opacity="1"/><line x1="12.685" y1="8.180" x2="19.595" y2="8.180" stroke="#e6e9ef" stroke-width="0.200" stroke-linecap="round" opacity="1"/><line x1="12.685" y1="10.180" x2="12.685" y2="-6.720" stroke="#e6e9ef" stroke-width="0.200" stroke-linecap="round" opacity="1"/><line x1="14.260" y1="18.680" x2="14.260" y2="12.880" stroke="#e6e9ef" stroke-width="0.200" stroke-linecap="round" opacity="1"/><line x1="14.260" y1="18.680" x2="19.060" y2="18.680" stroke="#e6e9ef" stroke-width="0.200" stroke-linecap="round" opacity="1"/><line x1="15.410" y1="5.050" x2="15.410" y2="-1.269" stroke="#e6e9ef" stroke-width="0.200" stroke-linecap="round" opacity="1"/><line x1="15.410" y1="5.050" x2="15.910" y2="5.050" stroke="#e6e9ef" stroke-width="0.200" stroke-linecap="round" opacity="1"/><line x1="15.560" y1="5.180" x2="17.760" y2="5.180" stroke="#e6e9ef" stroke-width="0.200" stroke-linecap="round" opacity="1"/><line x1="15.560" y1="8.180" x2="15.560" y2="5.180" stroke="#e6e9ef" stroke-width="0.200" stroke-linecap="round" opacity="1"/><line x1="15.910" y1="0.550" x2="15.910" y2="-1.026" stroke="#e6e9ef" stroke-width="0.200" stroke-linecap="round" opacity="1"/><line x1="15.910" y1="0.550" x2="17.410" y2="0.550" stroke="#e6e9ef" stroke-width="0.200" stroke-linecap="round" opacity="1"/><line x1="15.910" y1="1.050" x2="17.410" y2="1.050" stroke="#e6e9ef" stroke-width="0.200" stroke-linecap="round" opacity="1"/><line x1="15.910" y1="5.050" x2="15.910" y2="1.050" stroke="#e6e9ef" stroke-width="0.200" stroke-linecap="round" opacity="1"/><line x1="16.660" y1="18.680" x2="16.660" y2="12.880" stroke="#e6e9ef" stroke-width="0.200" stroke-linecap="round" opacity="1"/><line x1="17.410" y1="0.550" x2="17.410" y2="-1.026" stroke="#e6e9ef" stroke-width="0.200" stroke-linecap="round" opacity="1"/><line x1="17.410" y1="5.050" x2="17.410" y2="1.050" stroke="#e6e9ef" stroke-width="0.200" stroke-linecap="round" opacity="1"/><line x1="17.410" y1="5.050" x2="17.910" y2="5.050" stroke="#e6e9ef" stroke-width="0.200" stroke-linecap="round" opacity="1"/><line x1="17.760" y1="8.180" x2="17.760" y2="5.180" stroke="#e6e9ef" stroke-width="0.200" stroke-linecap="round" opacity="1"/><line x1="17.910" y1="5.050" x2="17.910" y2="-1.269" stroke="#e6e9ef" stroke-width="0.200" stroke-linecap="round" opacity="1"/><line x1="19.060" y1="18.680" x2="19.060" y2="12.880" stroke="#e6e9ef" stroke-width="0.200" stroke-linecap="round" opacity="1"/><line x1="19.595" y1="12.880" x2="19.595" y2="-6.420" stroke="#e6e9ef" stroke-width="0.200" stroke-linecap="round" opacity="1"/><line x1="-22.500" y1="12.880" x2="22.500" y2="12.880" stroke="#4a5160" stroke-width="0.100" stroke-linecap="round" opacity="0.7"/><line x1="-16.860" y1="-3.200" x2="-16.660" y2="-3.200" stroke="#4a5160" stroke-width="0.100" stroke-linecap="round" opacity="0.7"/><line x1="-16.660" y1="-3.200" x2="-16.660" y2="-3.400" stroke="#4a5160" stroke-width="0.100" stroke-linecap="round" opacity="0.7"/><line x1="-16.660" y1="-3.200" x2="-16.460" y2="-3.200" stroke="#4a5160" stroke-width="0.100" stroke-linecap="round" opacity="0.7"/><line x1="-16.660" y1="-3.000" x2="-16.660" y2="-3.200" stroke="#4a5160" stroke-width="0.100" stroke-linecap="round" opacity="0.7"/><line x1="-9.695" y1="-4.800" x2="-9.695" y2="-5.000" stroke="#4a5160" stroke-width="0.100" stroke-linecap="round" opacity="0.7"/><line x1="-9.695" y1="-4.800" x2="-9.495" y2="-4.800" stroke="#4a5160" stroke-width="0.100" stroke-linecap="round" opacity="0.7"/><line x1="-9.695" y1="1.960" x2="-9.695" y2="1.760" stroke="#4a5160" stroke-width="0.100" stroke-linecap="round" opacity="0.7"/><line x1="-9.695" y1="1.960" x2="-9.495" y2="1.960" stroke="#4a5160" stroke-width="0.100" stroke-linecap="round" opacity="0.7"/><line x1="-8.310" y1="-1.960" x2="-8.310" y2="-2.160" stroke="#4a5160" stroke-width="0.100" stroke-linecap="round" opacity="0.7"/><line x1="-8.310" y1="-1.960" x2="-8.110" y2="-1.960" stroke="#4a5160" stroke-width="0.100" stroke-linecap="round" opacity="0.7"/><line x1="-8.310" y1="4.800" x2="-8.310" y2="4.600" stroke="#4a5160" stroke-width="0.100" stroke-linecap="round" opacity="0.7"/><line x1="-8.310" y1="4.800" x2="-8.110" y2="4.800" stroke="#4a5160" stroke-width="0.100" stroke-linecap="round" opacity="0.7"/><line x1="-6.925" y1="-4.800" x2="-6.925" y2="-5.000" stroke="#4a5160" stroke-width="0.100" stroke-linecap="round" opacity="0.7"/><line x1="-6.925" y1="-4.800" x2="-6.725" y2="-4.800" stroke="#4a5160" stroke-width="0.100" stroke-linecap="round" opacity="0.7"/><line x1="-6.925" y1="1.960" x2="-6.925" y2="1.760" stroke="#4a5160" stroke-width="0.100" stroke-linecap="round" opacity="0.7"/><line x1="-6.925" y1="1.960" x2="-6.725" y2="1.960" stroke="#4a5160" stroke-width="0.100" stroke-linecap="round" opacity="0.7"/><line x1="-5.540" y1="-1.960" x2="-5.540" y2="-2.160" stroke="#4a5160" stroke-width="0.100" stroke-linecap="round" opacity="0.7"/><line x1="-5.540" y1="-1.960" x2="-5.340" y2="-1.960" stroke="#4a5160" stroke-width="0.100" stroke-linecap="round" opacity="0.7"/><line x1="-5.540" y1="4.800" x2="-5.540" y2="4.600" stroke="#4a5160" stroke-width="0.100" stroke-linecap="round" opacity="0.7"/><line x1="-5.540" y1="4.800" x2="-5.340" y2="4.800" stroke="#4a5160" stroke-width="0.100" stroke-linecap="round" opacity="0.7"/><line x1="-4.155" y1="-4.800" x2="-4.155" y2="-5.000" stroke="#4a5160" stroke-width="0.100" stroke-linecap="round" opacity="0.7"/><line x1="-4.155" y1="-4.800" x2="-3.955" y2="-4.800" stroke="#4a5160" stroke-width="0.100" stroke-linecap="round" opacity="0.7"/><line x1="-4.155" y1="1.960" x2="-4.155" y2="1.760" stroke="#4a5160" stroke-width="0.100" stroke-linecap="round" opacity="0.7"/><line x1="-4.155" y1="1.960" x2="-3.955" y2="1.960" stroke="#4a5160" stroke-width="0.100" stroke-linecap="round" opacity="0.7"/><line x1="-2.770" y1="-1.960" x2="-2.770" y2="-2.160" stroke="#4a5160" stroke-width="0.100" stroke-linecap="round" opacity="0.7"/><line x1="-2.770" y1="-1.960" x2="-2.570" y2="-1.960" stroke="#4a5160" stroke-width="0.100" stroke-linecap="round" opacity="0.7"/><line x1="-2.770" y1="4.800" x2="-2.770" y2="4.600" stroke="#4a5160" stroke-width="0.100" stroke-linecap="round" opacity="0.7"/><line x1="-2.770" y1="4.800" x2="-2.570" y2="4.800" stroke="#4a5160" stroke-width="0.100" stroke-linecap="round" opacity="0.7"/><line x1="-1.385" y1="-4.800" x2="-1.385" y2="-5.000" stroke="#4a5160" stroke-width="0.100" stroke-linecap="round" opacity="0.7"/><line x1="-1.385" y1="-4.800" x2="-1.185" y2="-4.800" stroke="#4a5160" stroke-width="0.100" stroke-linecap="round" opacity="0.7"/><line x1="-1.385" y1="1.960" x2="-1.385" y2="1.760" stroke="#4a5160" stroke-width="0.100" stroke-linecap="round" opacity="0.7"/><line x1="-1.385" y1="1.960" x2="-1.185" y2="1.960" stroke="#4a5160" stroke-width="0.100" stroke-linecap="round" opacity="0.7"/><line x1="-0.500" y1="0.000" x2="0.000" y2="0.000" stroke="#4a5160" stroke-width="0.100" stroke-linecap="round" opacity="0.7"/><line x1="0.000" y1="-1.960" x2="0.000" y2="-2.160" stroke="#4a5160" stroke-width="0.100" stroke-linecap="round" opacity="0.7"/><line x1="0.000" y1="-1.960" x2="0.200" y2="-1.960" stroke="#4a5160" stroke-width="0.100" stroke-linecap="round" opacity="0.7"/><line x1="0.000" y1="0.000" x2="0.000" y2="-0.500" stroke="#4a5160" stroke-width="0.100" stroke-linecap="round" opacity="0.7"/><line x1="0.000" y1="0.000" x2="0.500" y2="0.000" stroke="#4a5160" stroke-width="0.100" stroke-linecap="round" opacity="0.7"/><line x1="0.000" y1="0.500" x2="0.000" y2="0.000" stroke="#4a5160" stroke-width="0.100" stroke-linecap="round" opacity="0.7"/><line x1="0.000" y1="4.800" x2="0.000" y2="4.600" stroke="#4a5160" stroke-width="0.100" stroke-linecap="round" opacity="0.7"/><line x1="0.000" y1="4.800" x2="0.200" y2="4.800" stroke="#4a5160" stroke-width="0.100" stroke-linecap="round" opacity="0.7"/><line x1="0.000" y1="15.880" x2="0.000" y2="12.880" stroke="#4a5160" stroke-width="0.100" stroke-linecap="round" opacity="0.7"/><line x1="1.385" y1="-4.800" x2="1.385" y2="-5.000" stroke="#4a5160" stroke-width="0.100" stroke-linecap="round" opacity="0.7"/><line x1="1.385" y1="-4.800" x2="1.585" y2="-4.800" stroke="#4a5160" stroke-width="0.100" stroke-linecap="round" opacity="0.7"/><line x1="1.385" y1="1.960" x2="1.385" y2="1.760" stroke="#4a5160" stroke-width="0.100" stroke-linecap="round" opacity="0.7"/><line x1="1.385" y1="1.960" x2="1.585" y2="1.960" stroke="#4a5160" stroke-width="0.100" stroke-linecap="round" opacity="0.7"/><line x1="2.770" y1="-1.960" x2="2.770" y2="-2.160" stroke="#4a5160" stroke-width="0.100" stroke-linecap="round" opacity="0.7"/><line x1="2.770" y1="-1.960" x2="2.970" y2="-1.960" stroke="#4a5160" stroke-width="0.100" stroke-linecap="round" opacity="0.7"/><line x1="2.770" y1="4.800" x2="2.770" y2="4.600" stroke="#4a5160" stroke-width="0.100" stroke-linecap="round" opacity="0.7"/><line x1="2.770" y1="4.800" x2="2.970" y2="4.800" stroke="#4a5160" stroke-width="0.100" stroke-linecap="round" opacity="0.7"/><line x1="4.155" y1="-4.800" x2="4.155" y2="-5.000" stroke="#4a5160" stroke-width="0.100" stroke-linecap="round" opacity="0.7"/><line x1="4.155" y1="-4.800" x2="4.355" y2="-4.800" stroke="#4a5160" stroke-width="0.100" stroke-linecap="round" opacity="0.7"/><line x1="4.155" y1="1.960" x2="4.155" y2="1.760" stroke="#4a5160" stroke-width="0.100" stroke-linecap="round" opacity="0.7"/><line x1="4.155" y1="1.960" x2="4.355" y2="1.960" stroke="#4a5160" stroke-width="0.100" stroke-linecap="round" opacity="0.7"/><line x1="5.540" y1="-1.960" x2="5.540" y2="-2.160" stroke="#4a5160" stroke-width="0.100" stroke-linecap="round" opacity="0.7"/><line x1="5.540" y1="-1.960" x2="5.740" y2="-1.960" stroke="#4a5160" stroke-width="0.100" stroke-linecap="round" opacity="0.7"/><line x1="5.540" y1="4.800" x2="5.540" y2="4.600" stroke="#4a5160" stroke-width="0.100" stroke-linecap="round" opacity="0.7"/><line x1="5.540" y1="4.800" x2="5.740" y2="4.800" stroke="#4a5160" stroke-width="0.100" stroke-linecap="round" opacity="0.7"/><line x1="6.925" y1="-4.800" x2="6.925" y2="-5.000" stroke="#4a5160" stroke-width="0.100" stroke-linecap="round" opacity="0.7"/><line x1="6.925" y1="-4.800" x2="7.125" y2="-4.800" stroke="#4a5160" stroke-width="0.100" stroke-linecap="round" opacity="0.7"/><line x1="6.925" y1="1.960" x2="6.925" y2="1.760" stroke="#4a5160" stroke-width="0.100" stroke-linecap="round" opacity="0.7"/><line x1="6.925" y1="1.960" x2="7.125" y2="1.960" stroke="#4a5160" stroke-width="0.100" stroke-linecap="round" opacity="0.7"/><line x1="8.310" y1="-1.960" x2="8.310" y2="-2.160" stroke="#4a5160" stroke-width="0.100" stroke-linecap="round" opacity="0.7"/><line x1="8.310" y1="-1.960" x2="8.510" y2="-1.960" stroke="#4a5160" stroke-width="0.100" stroke-linecap="round" opacity="0.7"/><line x1="8.310" y1="4.800" x2="8.310" y2="4.600" stroke="#4a5160" stroke-width="0.100" stroke-linecap="round" opacity="0.7"/><line x1="8.310" y1="4.800" x2="8.510" y2="4.800" stroke="#4a5160" stroke-width="0.100" stroke-linecap="round" opacity="0.7"/><line x1="9.695" y1="-4.800" x2="9.695" y2="-5.000" stroke="#4a5160" stroke-width="0.100" stroke-linecap="round" opacity="0.7"/><line x1="9.695" y1="-4.800" x2="9.895" y2="-4.800" stroke="#4a5160" stroke-width="0.100" stroke-linecap="round" opacity="0.7"/><line x1="9.695" y1="1.960" x2="9.695" y2="1.760" stroke="#4a5160" stroke-width="0.100" stroke-linecap="round" opacity="0.7"/><line x1="9.695" y1="1.960" x2="9.895" y2="1.960" stroke="#4a5160" stroke-width="0.100" stroke-linecap="round" opacity="0.7"/><line x1="16.460" y1="-3.200" x2="16.660" y2="-3.200" stroke="#4a5160" stroke-width="0.100" stroke-linecap="round" opacity="0.7"/><line x1="16.660" y1="-3.200" x2="16.660" y2="-3.400" stroke="#4a5160" stroke-width="0.100" stroke-linecap="round" opacity="0.7"/><line x1="16.660" y1="-3.200" x2="16.860" y2="-3.200" stroke="#4a5160" stroke-width="0.100" stroke-linecap="round" opacity="0.7"/><line x1="16.660" y1="-3.000" x2="16.660" y2="-3.200" stroke="#4a5160" stroke-width="0.100" stroke-linecap="round" opacity="0.7"/><line x1="-19.595" y1="-6.420" x2="-12.685" y2="-6.420" stroke="#6b7280" stroke-width="0.100" stroke-linecap="round" opacity="0.8"/><line x1="-19.595" y1="8.180" x2="-12.685" y2="8.180" stroke="#6b7280" stroke-width="0.100" stroke-linecap="round" opacity="0.8"/><line x1="-19.595" y1="10.180" x2="19.595" y2="10.180" stroke="#6b7280" stroke-width="0.100" stroke-linecap="round" opacity="0.8"/><line x1="-19.595" y1="12.180" x2="19.595" y2="12.180" stroke="#6b7280" stroke-width="0.100" stroke-linecap="round" opacity="0.8"/><line x1="-19.595" y1="12.880" x2="-19.595" y2="-6.420" stroke="#6b7280" stroke-width="0.100" stroke-linecap="round" opacity="0.8"/><line x1="-19.595" y1="12.880" x2="19.595" y2="12.880" stroke="#6b7280" stroke-width="0.100" stroke-linecap="round" opacity="0.8"/><line x1="-19.060" y1="18.680" x2="-19.060" y2="12.880" stroke="#6b7280" stroke-width="0.100" stroke-linecap="round" opacity="0.8"/><line x1="-19.060" y1="18.680" x2="-14.260" y2="18.680" stroke="#6b7280" stroke-width="0.100" stroke-linecap="round" opacity="0.8"/><line x1="-18.190" y1="-3.450" x2="-17.410" y2="-3.450" stroke="#6b7280" stroke-width="0.100" stroke-linecap="round" opacity="0.8"/><line x1="-18.190" y1="-2.950" x2="-17.910" y2="-2.950" stroke="#6b7280" stroke-width="0.100" stroke-linecap="round" opacity="0.8"/><line x1="-17.910" y1="5.050" x2="-17.910" y2="-3.450" stroke="#6b7280" stroke-width="0.100" stroke-linecap="round" opacity="0.8"/><line x1="-17.910" y1="5.050" x2="-17.410" y2="5.050" stroke="#6b7280" stroke-width="0.100" stroke-linecap="round" opacity="0.8"/><line x1="-17.760" y1="5.180" x2="-15.560" y2="5.180" stroke="#6b7280" stroke-width="0.100" stroke-linecap="round" opacity="0.8"/><line x1="-17.760" y1="8.180" x2="-17.760" y2="5.180" stroke="#6b7280" stroke-width="0.100" stroke-linecap="round" opacity="0.8"/><line x1="-17.410" y1="0.550" x2="-17.410" y2="-3.450" stroke="#6b7280" stroke-width="0.100" stroke-linecap="round" opacity="0.8"/><line x1="-17.410" y1="0.550" x2="-15.910" y2="0.550" stroke="#6b7280" stroke-width="0.100" stroke-linecap="round" opacity="0.8"/><line x1="-17.410" y1="1.050" x2="-15.910" y2="1.050" stroke="#6b7280" stroke-width="0.100" stroke-linecap="round" opacity="0.8"/><line x1="-17.410" y1="5.050" x2="-17.410" y2="1.050" stroke="#6b7280" stroke-width="0.100" stroke-linecap="round" opacity="0.8"/><line x1="-16.660" y1="18.680" x2="-16.660" y2="12.880" stroke="#6b7280" stroke-width="0.100" stroke-linecap="round" opacity="0.8"/><line x1="-15.910" y1="-3.450" x2="-15.130" y2="-3.450" stroke="#6b7280" stroke-width="0.100" stroke-linecap="round" opacity="0.8"/><line x1="-15.910" y1="0.550" x2="-15.910" y2="-3.450" stroke="#6b7280" stroke-width="0.100" stroke-linecap="round" opacity="0.8"/><line x1="-15.910" y1="5.050" x2="-15.910" y2="1.050" stroke="#6b7280" stroke-width="0.100" stroke-linecap="round" opacity="0.8"/><line x1="-15.910" y1="5.050" x2="-15.410" y2="5.050" stroke="#6b7280" stroke-width="0.100" stroke-linecap="round" opacity="0.8"/><line x1="-15.560" y1="8.180" x2="-15.560" y2="5.180" stroke="#6b7280" stroke-width="0.100" stroke-linecap="round" opacity="0.8"/><line x1="-15.410" y1="-2.950" x2="-15.130" y2="-2.950" stroke="#6b7280" stroke-width="0.100" stroke-linecap="round" opacity="0.8"/><line x1="-15.410" y1="5.050" x2="-15.410" y2="-3.450" stroke="#6b7280" stroke-width="0.100" stroke-linecap="round" opacity="0.8"/><line x1="-14.260" y1="18.680" x2="-14.260" y2="12.880" stroke="#6b7280" stroke-width="0.100" stroke-linecap="round" opacity="0.8"/><line x1="-12.685" y1="-6.720" x2="12.685" y2="-6.720" stroke="#6b7280" stroke-width="0.100" stroke-linecap="round" opacity="0.8"/><line x1="-12.685" y1="10.180" x2="-12.685" y2="-6.720" stroke="#6b7280" stroke-width="0.100" stroke-linecap="round" opacity="0.8"/><line x1="-12.485" y1="10.180" x2="-12.485" y2="-6.720" stroke="#6b7280" stroke-width="0.100" stroke-linecap="round" opacity="0.8"/><line x1="-12.330" y1="18.230" x2="-12.330" y2="12.880" stroke="#6b7280" stroke-width="0.100" stroke-linecap="round" opacity="0.8"/><line x1="-11.880" y1="18.680" x2="11.880" y2="18.680" stroke="#6b7280" stroke-width="0.100" stroke-linecap="round" opacity="0.8"/><line x1="12.330" y1="18.230" x2="12.330" y2="12.880" stroke="#6b7280" stroke-width="0.100" stroke-linecap="round" opacity="0.8"/><line x1="12.485" y1="10.180" x2="12.485" y2="-6.720" stroke="#6b7280" stroke-width="0.100" stroke-linecap="round" opacity="0.8"/><line x1="12.685" y1="-6.420" x2="19.595" y2="-6.420" stroke="#6b7280" stroke-width="0.100" stroke-linecap="round" opacity="0.8"/><line x1="12.685" y1="8.180" x2="19.595" y2="8.180" stroke="#6b7280" stroke-width="0.100" stroke-linecap="round" opacity="0.8"/><line x1="12.685" y1="10.180" x2="12.685" y2="-6.720" stroke="#6b7280" stroke-width="0.100" stroke-linecap="round" opacity="0.8"/><line x1="14.260" y1="18.680" x2="14.260" y2="12.880" stroke="#6b7280" stroke-width="0.100" stroke-linecap="round" opacity="0.8"/><line x1="14.260" y1="18.680" x2="19.060" y2="18.680" stroke="#6b7280" stroke-width="0.100" stroke-linecap="round" opacity="0.8"/><line x1="15.130" y1="-3.450" x2="15.910" y2="-3.450" stroke="#6b7280" stroke-width="0.100" stroke-linecap="round" opacity="0.8"/><line x1="15.130" y1="-2.950" x2="15.410" y2="-2.950" stroke="#6b7280" stroke-width="0.100" stroke-linecap="round" opacity="0.8"/><line x1="15.410" y1="5.050" x2="15.410" y2="-3.450" stroke="#6b7280" stroke-width="0.100" stroke-linecap="round" opacity="0.8"/><line x1="15.410" y1="5.050" x2="15.910" y2="5.050" stroke="#6b7280" stroke-width="0.100" stroke-linecap="round" opacity="0.8"/><line x1="15.560" y1="5.180" x2="17.760" y2="5.180" stroke="#6b7280" stroke-width="0.100" stroke-linecap="round" opacity="0.8"/><line x1="15.560" y1="8.180" x2="15.560" y2="5.180" stroke="#6b7280" stroke-width="0.100" stroke-linecap="round" opacity="0.8"/><line x1="15.910" y1="0.550" x2="15.910" y2="-3.450" stroke="#6b7280" stroke-width="0.100" stroke-linecap="round" opacity="0.8"/><line x1="15.910" y1="0.550" x2="17.410" y2="0.550" stroke="#6b7280" stroke-width="0.100" stroke-linecap="round" opacity="0.8"/><line x1="15.910" y1="1.050" x2="17.410" y2="1.050" stroke="#6b7280" stroke-width="0.100" stroke-linecap="round" opacity="0.8"/><line x1="15.910" y1="5.050" x2="15.910" y2="1.050" stroke="#6b7280" stroke-width="0.100" stroke-linecap="round" opacity="0.8"/><line x1="16.660" y1="18.680" x2="16.660" y2="12.880" stroke="#6b7280" stroke-width="0.100" stroke-linecap="round" opacity="0.8"/><line x1="17.410" y1="-3.450" x2="18.190" y2="-3.450" stroke="#6b7280" stroke-width="0.100" stroke-linecap="round" opacity="0.8"/><line x1="17.410" y1="0.550" x2="17.410" y2="-3.450" stroke="#6b7280" stroke-width="0.100" stroke-linecap="round" opacity="0.8"/><line x1="17.410" y1="5.050" x2="17.410" y2="1.050" stroke="#6b7280" stroke-width="0.100" stroke-linecap="round" opacity="0.8"/><line x1="17.410" y1="5.050" x2="17.910" y2="5.050" stroke="#6b7280" stroke-width="0.100" stroke-linecap="round" opacity="0.8"/><line x1="17.760" y1="8.180" x2="17.760" y2="5.180" stroke="#6b7280" stroke-width="0.100" stroke-linecap="round" opacity="0.8"/><line x1="17.910" y1="-2.950" x2="18.190" y2="-2.950" stroke="#6b7280" stroke-width="0.100" stroke-linecap="round" opacity="0.8"/><line x1="17.910" y1="5.050" x2="17.910" y2="-3.450" stroke="#6b7280" stroke-width="0.100" stroke-linecap="round" opacity="0.8"/><line x1="19.060" y1="18.680" x2="19.060" y2="12.880" stroke="#6b7280" stroke-width="0.100" stroke-linecap="round" opacity="0.8"/><line x1="19.595" y1="12.880" x2="19.595" y2="-6.420" stroke="#6b7280" stroke-width="0.100" stroke-linecap="round" opacity="0.8"/><line x1="-22.750" y1="-6.970" x2="22.750" y2="-6.970" stroke="#d24d4d" stroke-width="0.080" stroke-linecap="round" opacity="0.7"/><line x1="22.750" y1="-6.970" x2="22.750" y2="18.930" stroke="#d24d4d" stroke-width="0.080" stroke-linecap="round" opacity="0.7"/><line x1="22.750" y1="18.930" x2="-22.750" y2="18.930" stroke="#d24d4d" stroke-width="0.080" stroke-linecap="round" opacity="0.7"/><line x1="-22.750" y1="18.930" x2="-22.750" y2="-6.970" stroke="#d24d4d" stroke-width="0.080" stroke-linecap="round" opacity="0.7"/><path d="M -17.760 5.892 A 1.550 1.550 0 0 1 -17.910 3.883" fill="none" stroke="#e6e9ef" stroke-width="0.12" opacity="1"/><path d="M -17.410 3.444 A 1.550 1.550 0 0 1 -15.910 3.444" fill="none" stroke="#e6e9ef" stroke-width="0.12" opacity="1"/><path d="M -15.410 3.883 A 1.550 1.550 0 0 1 -15.560 5.892" fill="none" stroke="#e6e9ef" stroke-width="0.12" opacity="1"/><path d="M -11.880 18.680 A 0.450 0.450 0 0 1 -12.330 18.230" fill="none" stroke="#e6e9ef" stroke-width="0.12" opacity="1"/><path d="M 12.330 18.230 A 0.450 0.450 0 0 1 11.880 18.680" fill="none" stroke="#e6e9ef" stroke-width="0.12" opacity="1"/><path d="M 15.560 5.892 A 1.550 1.550 0 0 1 15.410 3.883" fill="none" stroke="#e6e9ef" stroke-width="0.12" opacity="1"/><path d="M 15.910 3.444 A 1.550 1.550 0 0 1 17.410 3.444" fill="none" stroke="#e6e9ef" stroke-width="0.12" opacity="1"/><path d="M 17.910 3.883 A 1.550 1.550 0 0 1 17.760 5.892" fill="none" stroke="#e6e9ef" stroke-width="0.12" opacity="1"/><path d="M -17.910 -2.283 A 1.550 1.550 0 1 1 -15.410 -2.283" fill="none" stroke="#6b7280" stroke-width="0.12" opacity="0.8"/><path d="M -17.760 5.892 A 1.550 1.550 0 0 1 -17.910 3.883" fill="none" stroke="#6b7280" stroke-width="0.12" opacity="0.8"/><path d="M -17.410 3.444 A 1.550 1.550 0 0 1 -15.910 3.444" fill="none" stroke="#6b7280" stroke-width="0.12" opacity="0.8"/><path d="M -15.910 -1.844 A 1.550 1.550 0 0 1 -17.410 -1.844" fill="none" stroke="#6b7280" stroke-width="0.12" opacity="0.8"/><path d="M -15.410 3.883 A 1.550 1.550 0 0 1 -15.560 5.892" fill="none" stroke="#6b7280" stroke-width="0.12" opacity="0.8"/><path d="M -11.880 18.680 A 0.450 0.450 0 0 1 -12.330 18.230" fill="none" stroke="#6b7280" stroke-width="0.12" opacity="0.8"/><path d="M 12.330 18.230 A 0.450 0.450 0 0 1 11.880 18.680" fill="none" stroke="#6b7280" stroke-width="0.12" opacity="0.8"/><path d="M 15.410 -2.283 A 1.550 1.550 0 1 1 17.910 -2.283" fill="none" stroke="#6b7280" stroke-width="0.12" opacity="0.8"/><path d="M 15.560 5.892 A 1.550 1.550 0 0 1 15.410 3.883" fill="none" stroke="#6b7280" stroke-width="0.12" opacity="0.8"/><path d="M 15.910 3.444 A 1.550 1.550 0 0 1 17.410 3.444" fill="none" stroke="#6b7280" stroke-width="0.12" opacity="0.8"/><path d="M 17.410 -1.844 A 1.550 1.550 0 0 1 15.910 -1.844" fill="none" stroke="#6b7280" stroke-width="0.12" opacity="0.8"/><path d="M 17.910 3.883 A 1.550 1.550 0 0 1 17.760 5.892" fill="none" stroke="#6b7280" stroke-width="0.12" opacity="0.8"/><circle cx="9.695" cy="-7.700" r="0.250" fill="none" stroke="#e6e9ef" stroke-width="0.12" opacity="1"/><circle cx="-16.660" cy="-3.200" r="1.950" fill="none" stroke="#4a5160" stroke-width="0.12" opacity="0.7"/><circle cx="-16.660" cy="-3.200" r="1.600" fill="none" stroke="#4a5160" stroke-width="0.12" opacity="0.7"/><circle cx="-9.695" cy="-4.800" r="0.900" fill="none" stroke="#4a5160" stroke-width="0.12" opacity="0.7"/><circle cx="-9.695" cy="-4.800" r="0.550" fill="none" stroke="#4a5160" stroke-width="0.12" opacity="0.7"/><circle cx="-9.695" cy="1.960" r="0.900" fill="none" stroke="#4a5160" stroke-width="0.12" opacity="0.7"/><circle cx="-9.695" cy="1.960" r="0.550" fill="none" stroke="#4a5160" stroke-width="0.12" opacity="0.7"/><circle cx="-8.310" cy="-1.960" r="0.900" fill="none" stroke="#4a5160" stroke-width="0.12" opacity="0.7"/><circle cx="-8.310" cy="-1.960" r="0.550" fill="none" stroke="#4a5160" stroke-width="0.12" opacity="0.7"/><circle cx="-8.310" cy="4.800" r="0.900" fill="none" stroke="#4a5160" stroke-width="0.12" opacity="0.7"/><circle cx="-8.310" cy="4.800" r="0.550" fill="none" stroke="#4a5160" stroke-width="0.12" opacity="0.7"/><circle cx="-6.925" cy="-4.800" r="0.900" fill="none" stroke="#4a5160" stroke-width="0.12" opacity="0.7"/><circle cx="-6.925" cy="-4.800" r="0.550" fill="none" stroke="#4a5160" stroke-width="0.12" opacity="0.7"/><circle cx="-6.925" cy="1.960" r="0.900" fill="none" stroke="#4a5160" stroke-width="0.12" opacity="0.7"/><circle cx="-6.925" cy="1.960" r="0.550" fill="none" stroke="#4a5160" stroke-width="0.12" opacity="0.7"/><circle cx="-5.540" cy="-1.960" r="0.900" fill="none" stroke="#4a5160" stroke-width="0.12" opacity="0.7"/><circle cx="-5.540" cy="-1.960" r="0.550" fill="none" stroke="#4a5160" stroke-width="0.12" opacity="0.7"/><circle cx="-5.540" cy="4.800" r="0.900" fill="none" stroke="#4a5160" stroke-width="0.12" opacity="0.7"/><circle cx="-5.540" cy="4.800" r="0.550" fill="none" stroke="#4a5160" stroke-width="0.12" opacity="0.7"/><circle cx="-4.155" cy="-4.800" r="0.900" fill="none" stroke="#4a5160" stroke-width="0.12" opacity="0.7"/><circle cx="-4.155" cy="-4.800" r="0.550" fill="none" stroke="#4a5160" stroke-width="0.12" opacity="0.7"/><circle cx="-4.155" cy="1.960" r="0.900" fill="none" stroke="#4a5160" stroke-width="0.12" opacity="0.7"/><circle cx="-4.155" cy="1.960" r="0.550" fill="none" stroke="#4a5160" stroke-width="0.12" opacity="0.7"/><circle cx="-2.770" cy="-1.960" r="0.900" fill="none" stroke="#4a5160" stroke-width="0.12" opacity="0.7"/><circle cx="-2.770" cy="-1.960" r="0.550" fill="none" stroke="#4a5160" stroke-width="0.12" opacity="0.7"/><circle cx="-2.770" cy="4.800" r="0.900" fill="none" stroke="#4a5160" stroke-width="0.12" opacity="0.7"/><circle cx="-2.770" cy="4.800" r="0.550" fill="none" stroke="#4a5160" stroke-width="0.12" opacity="0.7"/><circle cx="-1.385" cy="-4.800" r="0.900" fill="none" stroke="#4a5160" stroke-width="0.12" opacity="0.7"/><circle cx="-1.385" cy="-4.800" r="0.550" fill="none" stroke="#4a5160" stroke-width="0.12" opacity="0.7"/><circle cx="-1.385" cy="1.960" r="0.900" fill="none" stroke="#4a5160" stroke-width="0.12" opacity="0.7"/><circle cx="-1.385" cy="1.960" r="0.550" fill="none" stroke="#4a5160" stroke-width="0.12" opacity="0.7"/><circle cx="0.000" cy="-1.960" r="0.900" fill="none" stroke="#4a5160" stroke-width="0.12" opacity="0.7"/><circle cx="0.000" cy="-1.960" r="0.550" fill="none" stroke="#4a5160" stroke-width="0.12" opacity="0.7"/><circle cx="0.000" cy="4.800" r="0.900" fill="none" stroke="#4a5160" stroke-width="0.12" opacity="0.7"/><circle cx="0.000" cy="4.800" r="0.550" fill="none" stroke="#4a5160" stroke-width="0.12" opacity="0.7"/><circle cx="1.385" cy="-4.800" r="0.900" fill="none" stroke="#4a5160" stroke-width="0.12" opacity="0.7"/><circle cx="1.385" cy="-4.800" r="0.550" fill="none" stroke="#4a5160" stroke-width="0.12" opacity="0.7"/><circle cx="1.385" cy="1.960" r="0.900" fill="none" stroke="#4a5160" stroke-width="0.12" opacity="0.7"/><circle cx="1.385" cy="1.960" r="0.550" fill="none" stroke="#4a5160" stroke-width="0.12" opacity="0.7"/><circle cx="2.770" cy="-1.960" r="0.900" fill="none" stroke="#4a5160" stroke-width="0.12" opacity="0.7"/><circle cx="2.770" cy="-1.960" r="0.550" fill="none" stroke="#4a5160" stroke-width="0.12" opacity="0.7"/><circle cx="2.770" cy="4.800" r="0.900" fill="none" stroke="#4a5160" stroke-width="0.12" opacity="0.7"/><circle cx="2.770" cy="4.800" r="0.550" fill="none" stroke="#4a5160" stroke-width="0.12" opacity="0.7"/><circle cx="4.155" cy="-4.800" r="0.900" fill="none" stroke="#4a5160" stroke-width="0.12" opacity="0.7"/><circle cx="4.155" cy="-4.800" r="0.550" fill="none" stroke="#4a5160" stroke-width="0.12" opacity="0.7"/><circle cx="4.155" cy="1.960" r="0.900" fill="none" stroke="#4a5160" stroke-width="0.12" opacity="0.7"/><circle cx="4.155" cy="1.960" r="0.550" fill="none" stroke="#4a5160" stroke-width="0.12" opacity="0.7"/><circle cx="5.540" cy="-1.960" r="0.900" fill="none" stroke="#4a5160" stroke-width="0.12" opacity="0.7"/><circle cx="5.540" cy="-1.960" r="0.550" fill="none" stroke="#4a5160" stroke-width="0.12" opacity="0.7"/><circle cx="5.540" cy="4.800" r="0.900" fill="none" stroke="#4a5160" stroke-width="0.12" opacity="0.7"/><circle cx="5.540" cy="4.800" r="0.550" fill="none" stroke="#4a5160" stroke-width="0.12" opacity="0.7"/><circle cx="6.925" cy="-4.800" r="0.900" fill="none" stroke="#4a5160" stroke-width="0.12" opacity="0.7"/><circle cx="6.925" cy="-4.800" r="0.550" fill="none" stroke="#4a5160" stroke-width="0.12" opacity="0.7"/><circle cx="6.925" cy="1.960" r="0.900" fill="none" stroke="#4a5160" stroke-width="0.12" opacity="0.7"/><circle cx="6.925" cy="1.960" r="0.550" fill="none" stroke="#4a5160" stroke-width="0.12" opacity="0.7"/><circle cx="8.310" cy="-1.960" r="0.900" fill="none" stroke="#4a5160" stroke-width="0.12" opacity="0.7"/><circle cx="8.310" cy="-1.960" r="0.550" fill="none" stroke="#4a5160" stroke-width="0.12" opacity="0.7"/><circle cx="8.310" cy="4.800" r="0.900" fill="none" stroke="#4a5160" stroke-width="0.12" opacity="0.7"/><circle cx="8.310" cy="4.800" r="0.550" fill="none" stroke="#4a5160" stroke-width="0.12" opacity="0.7"/><circle cx="9.695" cy="-4.800" r="0.900" fill="none" stroke="#4a5160" stroke-width="0.12" opacity="0.7"/><circle cx="9.695" cy="-4.800" r="0.550" fill="none" stroke="#4a5160" stroke-width="0.12" opacity="0.7"/><circle cx="9.695" cy="1.960" r="0.900" fill="none" stroke="#4a5160" stroke-width="0.12" opacity="0.7"/><circle cx="9.695" cy="1.960" r="0.550" fill="none" stroke="#4a5160" stroke-width="0.12" opacity="0.7"/><circle cx="16.660" cy="-3.200" r="1.950" fill="none" stroke="#4a5160" stroke-width="0.12" opacity="0.7"/><circle cx="16.660" cy="-3.200" r="1.600" fill="none" stroke="#4a5160" stroke-width="0.12" opacity="0.7"/><rect x="-18.610" y="-5.150" width="3.900" height="3.900" rx="1.950" fill="#c79b5c"/><circle cx="-16.660" cy="-3.200" r="1.600" fill="#12151c"/><rect x="14.710" y="-5.150" width="3.900" height="3.900" rx="1.950" fill="#c79b5c"/><circle cx="16.660" cy="-3.200" r="1.600" fill="#12151c"/><rect x="8.795" y="1.060" width="1.800" height="1.800" rx="0.900" fill="#c79b5c"/><circle cx="9.695" cy="1.960" r="0.550" fill="#12151c"/><rect x="6.025" y="1.060" width="1.800" height="1.800" rx="0.900" fill="#c79b5c"/><circle cx="6.925" cy="1.960" r="0.550" fill="#12151c"/><rect x="3.255" y="1.060" width="1.800" height="1.800" rx="0.900" fill="#c79b5c"/><circle cx="4.155" cy="1.960" r="0.550" fill="#12151c"/><rect x="0.485" y="1.060" width="1.800" height="1.800" rx="0.900" fill="#c79b5c"/><circle cx="1.385" cy="1.960" r="0.550" fill="#12151c"/><rect x="-2.285" y="1.060" width="1.800" height="1.800" rx="0.900" fill="#c79b5c"/><circle cx="-1.385" cy="1.960" r="0.550" fill="#12151c"/><rect x="-5.055" y="1.060" width="1.800" height="1.800" rx="0.900" fill="#c79b5c"/><circle cx="-4.155" cy="1.960" r="0.550" fill="#12151c"/><rect x="-7.825" y="1.060" width="1.800" height="1.800" rx="0.900" fill="#c79b5c"/><circle cx="-6.925" cy="1.960" r="0.550" fill="#12151c"/><rect x="-10.595" y="1.060" width="1.800" height="1.800" rx="0.900" fill="#c79b5c"/><circle cx="-9.695" cy="1.960" r="0.550" fill="#12151c"/><rect x="7.410" y="3.900" width="1.800" height="1.800" rx="0.900" fill="#c79b5c"/><circle cx="8.310" cy="4.800" r="0.550" fill="#12151c"/><rect x="4.640" y="3.900" width="1.800" height="1.800" rx="0.900" fill="#c79b5c"/><circle cx="5.540" cy="4.800" r="0.550" fill="#12151c"/><rect x="1.870" y="3.900" width="1.800" height="1.800" rx="0.900" fill="#c79b5c"/><circle cx="2.770" cy="4.800" r="0.550" fill="#12151c"/><rect x="-0.900" y="3.900" width="1.800" height="1.800" rx="0.900" fill="#c79b5c"/><circle cx="0.000" cy="4.800" r="0.550" fill="#12151c"/><rect x="-3.670" y="3.900" width="1.800" height="1.800" rx="0.900" fill="#c79b5c"/><circle cx="-2.770" cy="4.800" r="0.550" fill="#12151c"/><rect x="-6.440" y="3.900" width="1.800" height="1.800" rx="0.900" fill="#c79b5c"/><circle cx="-5.540" cy="4.800" r="0.550" fill="#12151c"/><rect x="-9.210" y="3.900" width="1.800" height="1.800" rx="0.900" fill="#c79b5c"/><circle cx="-8.310" cy="4.800" r="0.550" fill="#12151c"/><rect x="8.795" y="-5.700" width="1.800" height="1.800" rx="0.900" fill="#c79b5c"/><circle cx="9.695" cy="-4.800" r="0.550" fill="#12151c"/><rect x="6.025" y="-5.700" width="1.800" height="1.800" rx="0.900" fill="#c79b5c"/><circle cx="6.925" cy="-4.800" r="0.550" fill="#12151c"/><rect x="3.255" y="-5.700" width="1.800" height="1.800" rx="0.900" fill="#c79b5c"/><circle cx="4.155" cy="-4.800" r="0.550" fill="#12151c"/><rect x="0.485" y="-5.700" width="1.800" height="1.800" rx="0.900" fill="#c79b5c"/><circle cx="1.385" cy="-4.800" r="0.550" fill="#12151c"/><rect x="-2.285" y="-5.700" width="1.800" height="1.800" rx="0.900" fill="#c79b5c"/><circle cx="-1.385" cy="-4.800" r="0.550" fill="#12151c"/><rect x="-5.055" y="-5.700" width="1.800" height="1.800" rx="0.900" fill="#c79b5c"/><circle cx="-4.155" cy="-4.800" r="0.550" fill="#12151c"/><rect x="-7.825" y="-5.700" width="1.800" height="1.800" rx="0.900" fill="#c79b5c"/><circle cx="-6.925" cy="-4.800" r="0.550" fill="#12151c"/><rect x="-10.595" y="-5.700" width="1.800" height="1.800" rx="0.900" fill="#c79b5c"/><circle cx="-9.695" cy="-4.800" r="0.550" fill="#12151c"/><rect x="7.410" y="-2.860" width="1.800" height="1.800" rx="0.900" fill="#c79b5c"/><circle cx="8.310" cy="-1.960" r="0.550" fill="#12151c"/><rect x="4.640" y="-2.860" width="1.800" height="1.800" rx="0.900" fill="#c79b5c"/><circle cx="5.540" cy="-1.960" r="0.550" fill="#12151c"/><rect x="1.870" y="-2.860" width="1.800" height="1.800" rx="0.900" fill="#c79b5c"/><circle cx="2.770" cy="-1.960" r="0.550" fill="#12151c"/><rect x="-0.900" y="-2.860" width="1.800" height="1.800" rx="0.900" fill="#c79b5c"/><circle cx="0.000" cy="-1.960" r="0.550" fill="#12151c"/><rect x="-3.670" y="-2.860" width="1.800" height="1.800" rx="0.900" fill="#c79b5c"/><circle cx="-2.770" cy="-1.960" r="0.550" fill="#12151c"/><rect x="-6.440" y="-2.860" width="1.800" height="1.800" rx="0.900" fill="#c79b5c"/><circle cx="-5.540" cy="-1.960" r="0.550" fill="#12151c"/><rect x="-9.210" y="-2.860" width="1.800" height="1.800" rx="0.900" fill="#c79b5c"/><circle cx="-8.310" cy="-1.960" r="0.550" fill="#12151c"/></svg>