<svg xmlns="http://www.w3.org/2000/svg" viewBox="-17.20 -11.20 34.40 22.85" preserveAspectRatio="xMidYMid meet" style="width:100%;height:100%"><rect x="-17.20" y="-11.20" width="34.40" height="22.85" fill="#12151c"/><line x1="-15.950" y1="-9.950" x2="15.950" y2="-9.950" stroke="#e6e9ef" stroke-width="0.200" stroke-linecap="round" opacity="1"/><line x1="-15.950" y1="9.950" x2="-15.950" y2="-9.950" stroke="#e6e9ef" stroke-width="0.200" stroke-linecap="round" opacity="1"/><line x1="-15.950" y1="9.950" x2="15.950" y2="9.950" stroke="#e6e9ef" stroke-width="0.200" stroke-linecap="round" opacity="1"/><line x1="15.950" y1="9.950" x2="15.950" y2="-9.950" stroke="#e6e9ef" stroke-width="0.200" stroke-linecap="round" opacity="1"/><line x1="-14.170" y1="7.620" x2="-13.970" y2="7.620" stroke="#4a5160" stroke-width="0.080" stroke-linecap="round" opacity="0.7"/><line x1="-13.970" y1="7.620" x2="-13.970" y2="7.420" stroke="#4a5160" stroke-width="0.080" stroke-linecap="round" opacity="0.7"/><line x1="-13.970" y1="7.620" x2="-13.770" y2="7.620" stroke="#4a5160" stroke-width="0.080" stroke-linecap="round" opacity="0.7"/><line x1="-13.970" y1="7.820" x2="-13.970" y2="7.620" stroke="#4a5160" stroke-width="0.080" stroke-linecap="round" opacity="0.7"/><line x1="-11.630" y1="-7.620" x2="-11.430" y2="-7.620" stroke="#4a5160" stroke-width="0.080" stroke-linecap="round" opacity="0.7"/><line x1="-11.630" y1="7.620" x2="-11.430" y2="7.620" stroke="#4a5160" stroke-width="0.080" stroke-linecap="round" opacity="0.7"/><line x1="-11.430" y1="-7.620" x2="-11.430" y2="-7.820" stroke="#4a5160" stroke-width="0.080" stroke-linecap="round" opacity="0.7"/><line x1="-11.430" y1="-7.620" x2="-11.230" y2="-7.620" stroke="#4a5160" stroke-width="0.080" stroke-linecap="round" opacity="0.7"/><line x1="-11.430" y1="-7.420" x2="-11.430" y2="-7.620" stroke="#4a5160" stroke-width="0.080" stroke-linecap="round" opacity="0.7"/><line x1="-11.430" y1="7.620" x2="-11.430" y2="7.420" stroke="#4a5160" stroke-width="0.080" stroke-linecap="round" opacity="0.7"/><line x1="-11.430" y1="7.620" x2="-11.230" y2="7.620" stroke="#4a5160" stroke-width="0.080" stroke-linecap="round" opacity="0.7"/><line x1="-11.430" y1="7.820" x2="-11.430" y2="7.620" stroke="#4a5160" stroke-width="0.080" stroke-linecap="round" opacity="0.7"/><line x1="-9.090" y1="-7.620" x2="-8.890" y2="-7.620" stroke="#4a5160" stroke-width="0.080" stroke-linecap="round" opacity="0.7"/><line x1="-8.890" y1="-7.620" x2="-8.890" y2="-7.820" stroke="#4a5160" stroke-width="0.080" stroke-linecap="round" opacity="0.7"/><line x1="-8.890" y1="-7.620" x2="-8.690" y2="-7.620" stroke="#4a5160" stroke-width="0.080" stroke-linecap="round" opacity="0.7"/><line x1="-8.890" y1="-7.420" x2="-8.890" y2="-7.620" stroke="#4a5160" stroke-width="0.080" stroke-linecap="round" opacity="0.7"/><line x1="-0.500" y1="0.000" x2="0.000" y2="0.000" stroke="#4a5160" stroke-width="0.080" stroke-linecap="round" opacity="0.7"/><line x1="0.000" y1="0.000" x2="0.000" y2="-0.500" stroke="#4a5160" stroke-width="0.080" stroke-linecap="round" opacity="0.7"/><line x1="0.000" y1="0.000" x2="0.500" y2="0.000" stroke="#4a5160" stroke-width="0.080" stroke-linecap="round" opacity="0.7"/><line x1="0.000" y1="0.500" x2="0.000" y2="0.000" stroke="#4a5160" stroke-width="0.080" stroke-linecap="round" opacity="0.7"/><line x1="6.150" y1="-7.620" x2="6.350" y2="-7.620" stroke="#4a5160" stroke-width="0.080" stroke-linecap="round" opacity="0.7"/><line x1="6.350" y1="-7.620" x2="6.350" y2="-7.820" stroke="#4a5160" stroke-width="0.080" stroke-linecap="round" opacity="0.7"/><line x1="6.350" y1="-7.620" x2="6.550" y2="-7.620" stroke="#4a5160" stroke-width="0.080" stroke-linecap="round" opacity="0.7"/><line x1="6.350" y1="-7.420" x2="6.350" y2="-7.620" stroke="#4a5160" stroke-width="0.080" stroke-linecap="round" opacity="0.7"/><line x1="11.230" y1="-7.620" x2="11.430" y2="-7.620" stroke="#4a5160" stroke-width="0.080" stroke-linecap="round" opacity="0.7"/><line x1="11.230" y1="7.620" x2="11.430" y2="7.620" stroke="#4a5160" stroke-width="0.080" stroke-linecap="round" opacity="0.7"/><line x1="11.430" y1="-7.620" x2="11.430" y2="-7.820" stroke="#4a5160" stroke-width="0.080" stroke-linecap="round" opacity="0.7"/><line x1="11.430" y1="-7.620" x2="11.630" y2="-7.620" stroke="#4a5160" stroke-width="0.080" stroke-linecap="round" opacity="0.7"/><line x1="11.430" y1="-7.420" x2="11.430" y2="-7.620" stroke="#4a5160" stroke-width="0.080" stroke-linecap="round" opacity="0.7"/><line x1="11.430" y1="7.620" x2="11.430" y2="7.420" stroke="#4a5160" stroke-width="0.080" stroke-linecap="round" opacity="0.7"/><line x1="11.430" y1="7.620" x2="11.630" y2="7.620" stroke="#4a5160" stroke-width="0.080" stroke-linecap="round" opacity="0.7"/><line x1="11.430" y1="7.820" x2="11.430" y2="7.620" stroke="#4a5160" stroke-width="0.080" stroke-linecap="round" opacity="0.7"/><line x1="-15.950" y1="-9.950" x2="15.950" y2="-9.950" stroke="#6b7280" stroke-width="0.100" stroke-linecap="round" opacity="0.8"/><line x1="-15.950" y1="9.950" x2="-15.950" y2="-9.950" stroke="#6b7280" stroke-width="0.100" stroke-linecap="round" opacity="0.8"/><line x1="-15.950" y1="9.950" x2="15.950" y2="9.950" stroke="#6b7280" stroke-width="0.100" stroke-linecap="round" opacity="0.8"/><line x1="15.950" y1="9.950" x2="15.950" y2="-9.950" stroke="#6b7280" stroke-width="0.100" stroke-linecap="round" opacity="0.8"/><line x1="-16.200" y1="-10.200" x2="16.200" y2="-10.200" stroke="#d24d4d" stroke-width="0.080" stroke-linecap="round" opacity="0.7"/><line x1="16.200" y1="-10.200" x2="16.200" y2="10.200" stroke="#d24d4d" stroke-width="0.080" stroke-linecap="round" opacity="0.7"/><line x1="16.200" y1="10.200" x2="-16.200" y2="10.200" stroke="#d24d4d" stroke-width="0.080" stroke-linecap="round" opacity="0.7"/><line x1="-16.200" y1="10.200" x2="-16.200" y2="-10.200" stroke="#d24d4d" stroke-width="0.080" stroke-linecap="round" opacity="0.7"/><circle cx="-13.970" cy="10.500" r="0.150" fill="#e6e9ef" opacity="1"/><circle cx="-13.970" cy="7.620" r="0.850" fill="none" stroke="#4a5160" stroke-width="0.12" opacity="0.7"/><circle cx="-13.970" cy="7.620" r="0.500" fill="none" stroke="#4a5160" stroke-width="0.12" opacity="0.7"/><circle cx="-11.430" cy="-7.620" r="0.850" fill="none" stroke="#4a5160" stroke-width="0.12" opacity="0.7"/><circle cx="-11.430" cy="-7.620" r="0.500" fill="none" stroke="#4a5160" stroke-width="0.12" opacity="0.7"/><circle cx="-11.430" cy="7.620" r="0.850" fill="none" stroke="#4a5160" stroke-width="0.12" opacity="0.7"/><circle cx="-11.430" cy="7.620" r="0.500" fill="none" stroke="#4a5160" stroke-width="0.12" opacity="0.7"/><circle cx="-8.890" cy="-7.620" r="0.850" fill="none" stroke="#4a5160" stroke-width="0.12" opacity="0.7"/><circle cx="-8.890" cy="-7.620" r="0.500" fill="none" stroke="#4a5160" stroke-width="0.12" opacity="0.7"/><circle cx="6.350" cy="-7.620" r="0.850" fill="none" stroke="#4a5160" stroke-width="0.12" opacity="0.7"/><circle cx="6.350" cy="-7.620" r="0.500" fill="none" stroke="#4a5160" stroke-width="0.12" opacity="0.7"/><circle cx="11.430" cy="-7.620" r="0.850" fill="none" stroke="#4a5160" stroke-width="0.12" opacity="0.7"/><circle cx="11.430" cy="-7.620" r="0.500" fill="none" stroke="#4a5160" stroke-width="0.12" opacity="0.7"/><circle cx="11.430" cy="7.620" r="0.850" fill="none" stroke="#4a5160" stroke-width="0.12" opacity="0.7"/><circle cx="11.430" cy="7.620" r="0.500" fill="none" stroke="#4a5160" stroke-width="0.12" opacity="0.7"/><rect x="-14.820" y="6.770" width="1.700" height="1.700" rx="0.850" fill="#c79b5c"/><circle cx="-13.970" cy="7.620" r="0.500" fill="#12151c"/><rect x="-12.280" y="6.770" width="1.700" height="1.700" rx="0.850" fill="#c79b5c"/><circle cx="-11.430" cy="7.620" r="0.500" fill="#12151c"/><rect x="10.580" y="6.770" width="1.700" height="1.700" rx="0.850" fill="#c79b5c"/><circle cx="11.430" cy="7.620" r="0.500" fill="#12151c"/><rect x="10.580" y="-8.470" width="1.700" height="1.700" rx="0.850" fill="#c79b5c"/><circle cx="11.430" cy="-7.620" r="0.500" fill="#12151c"/><rect x="5.500" y="-8.470" width="1.700" height="1.700" rx="0.850" fill="#c79b5c"/><circle cx="6.350" cy="-7.620" r="0.500" fill="#12151c"/><rect x="-9.740" y="-8.470" width="1.700" height="1.700" rx="0.850" fill="#c79b5c"/><circle cx="-8.890" cy="-7.620" r="0.500" fill="#12151c"/><rect x="-12.280" y="-8.470" width="1.700" height="1.700" rx="0.850" fill="#c79b5c"/><circle cx="-11.430" cy="-7.620" r="0.500" fill="#12151c"/></svg>