<svg xmlns="http://www.w3.org/2000/svg" viewBox="-6.58 -1.50 38.56 41.10" preserveAspectRatio="xMidYMid meet" style="width:100%;height:100%"><rect x="-6.58" y="-1.50" width="38.56" height="41.10" fill="#12151c"/><rect x="0.000" y="-0.000" width="25.400" height="38.100" fill="#1e222b" stroke="#4ea1ff" stroke-width="0.25"/><polyline points="6.985,2.540 10.795,2.540" fill="none" stroke="#4ea1ff" stroke-width="0.25" stroke-linejoin="round"/><polyline points="6.985,10.160 10.795,10.160" fill="none" stroke="#4ea1ff" stroke-width="0.25" stroke-linejoin="round"/><polyline points="6.985,17.780 10.795,17.780" fill="none" stroke="#4ea1ff" stroke-width="0.25" stroke-linejoin="round"/><polyline points="6.985,25.400 10.795,25.400" fill="none" stroke="#4ea1ff" stroke-width="0.25" stroke-linejoin="round"/><polyline points="6.985,33.020 9.017,33.020" fill="none" stroke="#4ea1ff" stroke-width="0.25" stroke-linejoin="round"/><polyline points="6.985,35.560 8.001,35.560" fill="none" stroke="#4ea1ff" stroke-width="0.25" stroke-linejoin="round"/><polyline points="8.763,32.258 10.033,32.258" fill="none" stroke="#4ea1ff" stroke-width="0.25" stroke-linejoin="round"/><polyline points="8.763,36.322 10.033,36.322" fill="none" stroke="#4ea1ff" stroke-width="0.25" stroke-linejoin="round"/><polyline points="9.525,27.940 6.985,27.940" fill="none" stroke="#4ea1ff" stroke-width="0.25" stroke-linejoin="round"/><polyline points="9.779,5.080 6.985,5.080" fill="none" stroke="#4ea1ff" stroke-width="0.25" stroke-linejoin="round"/><polyline points="9.779,12.700 6.985,12.700" fill="none" stroke="#4ea1ff" stroke-width="0.25" stroke-linejoin="round"/><polyline points="9.779,20.320 6.985,20.320" fill="none" stroke="#4ea1ff" stroke-width="0.25" stroke-linejoin="round"/><polyline points="12.573,7.620 12.573,5.334" fill="none" stroke="#4ea1ff" stroke-width="0.25" stroke-linejoin="round"/><polyline points="12.573,15.240 12.573,12.954" fill="none" stroke="#4ea1ff" stroke-width="0.25" stroke-linejoin="round"/><polyline points="12.573,22.860 12.573,20.574" fill="none" stroke="#4ea1ff" stroke-width="0.25" stroke-linejoin="round"/><polyline points="12.573,30.480 12.573,28.194" fill="none" stroke="#4ea1ff" stroke-width="0.25" stroke-linejoin="round"/><polyline points="13.843,34.290 14.859,34.290" fill="none" stroke="#4ea1ff" stroke-width="0.25" stroke-linejoin="round"/><polyline points="14.859,3.810 17.145,3.810" fill="none" stroke="#4ea1ff" stroke-width="0.25" stroke-linejoin="round"/><polyline points="14.859,3.810 10.795,6.350 10.795,1.270 14.859,3.810" fill="#1e222b" stroke="#4ea1ff" stroke-width="0.25" stroke-linejoin="round"/><polyline points="14.859,7.620 12.573,7.620" fill="none" stroke="#4ea1ff" stroke-width="0.25" stroke-linejoin="round"/><polyline points="14.859,10.160 14.859,7.620" fill="none" stroke="#4ea1ff" stroke-width="0.25" stroke-linejoin="round"/><polyline points="14.859,11.430 17.145,11.430" fill="none" stroke="#4ea1ff" stroke-width="0.25" stroke-linejoin="round"/><polyline points="14.859,11.430 10.795,13.970 10.795,8.890 14.859,11.430" fill="#1e222b" stroke="#4ea1ff" stroke-width="0.25" stroke-linejoin="round"/><polyline points="14.859,15.240 12.573,15.240" fill="none" stroke="#4ea1ff" stroke-width="0.25" stroke-linejoin="round"/><polyline points="14.859,15.240 14.859,12.700" fill="none" stroke="#4ea1ff" stroke-width="0.25" stroke-linejoin="round"/><polyline points="14.859,17.780 14.859,15.240" fill="none" stroke="#4ea1ff" stroke-width="0.25" stroke-linejoin="round"/><polyline points="14.859,19.050 17.145,19.050" fill="none" stroke="#4ea1ff" stroke-width="0.25" stroke-linejoin="round"/><polyline points="14.859,19.050 10.795,21.590 10.795,16.510 14.859,19.050" fill="#1e222b" stroke="#4ea1ff" stroke-width="0.25" stroke-linejoin="round"/><polyline points="14.859,22.860 12.573,22.860" fill="none" stroke="#4ea1ff" stroke-width="0.25" stroke-linejoin="round"/><polyline points="14.859,22.860 14.859,20.320" fill="none" stroke="#4ea1ff" stroke-width="0.25" stroke-linejoin="round"/><polyline points="14.859,25.400 14.859,22.860" fill="none" stroke="#4ea1ff" stroke-width="0.25" stroke-linejoin="round"/><polyline points="14.859,26.670 17.145,26.670" fill="none" stroke="#4ea1ff" stroke-width="0.25" stroke-linejoin="round"/><polyline points="14.859,26.670 10.795,29.210 10.795,24.130 14.859,26.670" fill="#1e222b" stroke="#4ea1ff" stroke-width="0.25" stroke-linejoin="round"/><polyline points="14.859,30.480 12.573,30.480" fill="none" stroke="#4ea1ff" stroke-width="0.25" stroke-linejoin="round"/><polyline points="14.859,30.480 14.859,27.940" fill="none" stroke="#4ea1ff" stroke-width="0.25" stroke-linejoin="round"/><polyline points="14.859,34.290 14.859,30.480" fill="none" stroke="#4ea1ff" stroke-width="0.25" stroke-linejoin="round"/><circle cx="8.509" cy="35.560" r="0.457" fill="none" stroke="#4ea1ff" stroke-width="0.25"/><circle cx="10.160" cy="27.940" r="0.457" fill="none" stroke="#4ea1ff" stroke-width="0.25"/><circle cx="10.287" cy="5.080" r="0.457" fill="none" stroke="#4ea1ff" stroke-width="0.25"/><circle cx="10.287" cy="12.700" r="0.457" fill="none" stroke="#4ea1ff" stroke-width="0.25"/><circle cx="10.287" cy="20.320" r="0.457" fill="none" stroke="#4ea1ff" stroke-width="0.25"/><circle cx="14.859" cy="15.240" r="0.254" fill="none" stroke="#4ea1ff" stroke-width="0.25"/><circle cx="14.859" cy="22.860" r="0.254" fill="none" stroke="#4ea1ff" stroke-width="0.25"/><circle cx="14.859" cy="30.480" r="0.254" fill="none" stroke="#4ea1ff" stroke-width="0.25"/><line x1="-5.080" y1="2.540" x2="0.000" y2="2.540" stroke="#e6e9ef" stroke-width="0.2"/><circle cx="-5.080" cy="2.540" r="0.4" fill="#4ea1ff"/><text x="0.500" y="2.890" fill="#e6e9ef" font-size="1.1" text-anchor="start" font-family="sans-serif">IN1</text><text x="-0.300" y="2.190" fill="#9aa3b2" font-size="0.9" text-anchor="end" font-family="sans-serif">2</text><line x1="-5.080" y1="5.080" x2="0.000" y2="5.080" stroke="#e6e9ef" stroke-width="0.2"/><circle cx="-5.080" cy="5.080" r="0.4" fill="#4ea1ff"/><text x="0.500" y="5.430" fill="#e6e9ef" font-size="1.1" text-anchor="start" font-family="sans-serif">~{IN1}</text><text x="-0.300" y="4.730" fill="#9aa3b2" font-size="0.9" text-anchor="end" font-family="sans-serif">1</text><line x1="-5.080" y1="10.160" x2="0.000" y2="10.160" stroke="#e6e9ef" stroke-width="0.2"/><circle cx="-5.080" cy="10.160" r="0.4" fill="#4ea1ff"/><text x="0.500" y="10.510" fill="#e6e9ef" font-size="1.1" text-anchor="start" font-family="sans-serif">IN2</text><text x="-0.300" y="9.810" fill="#9aa3b2" font-size="0.9" text-anchor="end" font-family="sans-serif">6</text><line x1="-5.080" y1="12.700" x2="0.000" y2="12.700" stroke="#e6e9ef" stroke-width="0.2"/><circle cx="-5.080" cy="12.700" r="0.4" fill="#4ea1ff"/><text x="0.500" y="13.050" fill="#e6e9ef" font-size="1.1" text-anchor="start" font-family="sans-serif">~{IN2}</text><text x="-0.300" y="12.350" fill="#9aa3b2" font-size="0.9" text-anchor="end" font-family="sans-serif">7</text><line x1="-5.080" y1="17.780" x2="0.000" y2="17.780" stroke="#e6e9ef" stroke-width="0.2"/><circle cx="-5.080" cy="17.780" r="0.4" fill="#4ea1ff"/><text x="0.500" y="18.130" fill="#e6e9ef" font-size="1.1" text-anchor="start" font-family="sans-serif">IN3</text><text x="-0.300" y="17.430" fill="#9aa3b2" font-size="0.9" text-anchor="end" font-family="sans-serif">10</text><line x1="-5.080" y1="20.320" x2="0.000" y2="20.320" stroke="#e6e9ef" stroke-width="0.2"/><circle cx="-5.080" cy="20.320" r="0.4" fill="#4ea1ff"/><text x="0.500" y="20.670" fill="#e6e9ef" font-size="1.1" text-anchor="start" font-family="sans-serif">~{IN3}</text><text x="-0.300" y="19.970" fill="#9aa3b2" font-size="0.9" text-anchor="end" font-family="sans-serif">9</text><line x1="-5.080" y1="25.400" x2="0.000" y2="25.400" stroke="#e6e9ef" stroke-width="0.2"/><circle cx="-5.080" cy="25.400" r="0.4" fill="#4ea1ff"/><text x="0.500" y="25.750" fill="#e6e9ef" font-size="1.1" text-anchor="start" font-family="sans-serif">IN4</text><text x="-0.300" y="25.050" fill="#9aa3b2" font-size="0.9" text-anchor="end" font-family="sans-serif">14</text><line x1="-5.080" y1="27.940" x2="0.000" y2="27.940" stroke="#e6e9ef" stroke-width="0.2"/><circle cx="-5.080" cy="27.940" r="0.4" fill="#4ea1ff"/><text x="0.500" y="28.290" fill="#e6e9ef" font-size="1.1" text-anchor="start" font-family="sans-serif">~{IN4}</text><text x="-0.300" y="27.590" fill="#9aa3b2" font-size="0.9" text-anchor="end" font-family="sans-serif">15</text><line x1="-5.080" y1="33.020" x2="0.000" y2="33.020" stroke="#e6e9ef" stroke-width="0.2"/><circle cx="-5.080" cy="33.020" r="0.4" fill="#4ea1ff"/><text x="0.500" y="33.370" fill="#e6e9ef" font-size="1.1" text-anchor="start" font-family="sans-serif">EN</text><text x="-0.300" y="32.670" fill="#9aa3b2" font-size="0.9" text-anchor="end" font-family="sans-serif">4</text><line x1="-5.080" y1="35.560" x2="0.000" y2="35.560" stroke="#e6e9ef" stroke-width="0.2"/><circle cx="-5.080" cy="35.560" r="0.4" fill="#4ea1ff"/><text x="0.500" y="35.910" fill="#e6e9ef" font-size="1.1" text-anchor="start" font-family="sans-serif">~{EN}</text><text x="-0.300" y="35.210" fill="#9aa3b2" font-size="0.9" text-anchor="end" font-family="sans-serif">12</text><line x1="30.480" y1="3.810" x2="25.400" y2="3.810" stroke="#e6e9ef" stroke-width="0.2"/><circle cx="30.480" cy="3.810" r="0.4" fill="#4ea1ff"/><text x="24.900" y="4.160" fill="#e6e9ef" font-size="1.1" text-anchor="end" font-family="sans-serif">OUT1</text><text x="25.700" y="3.460" fill="#9aa3b2" font-size="0.9" text-anchor="start" font-family="sans-serif">3</text><line x1="30.480" y1="11.430" x2="25.400" y2="11.430" stroke="#e6e9ef" stroke-width="0.2"/><circle cx="30.480" cy="11.430" r="0.4" fill="#4ea1ff"/><text x="24.900" y="11.780" fill="#e6e9ef" font-size="1.1" text-anchor="end" font-family="sans-serif">OUT2</text><text x="25.700" y="11.080" fill="#9aa3b2" font-size="0.9" text-anchor="start" font-family="sans-serif">5</text><line x1="30.480" y1="19.050" x2="25.400" y2="19.050" stroke="#e6e9ef" stroke-width="0.2"/><circle cx="30.480" cy="19.050" r="0.4" fill="#4ea1ff"/><text x="24.900" y="19.400" fill="#e6e9ef" font-size="1.1" text-anchor="end" font-family="sans-serif">OUT3</text><text x="25.700" y="18.700" fill="#9aa3b2" font-size="0.9" text-anchor="start" font-family="sans-serif">11</text><line x1="30.480" y1="26.670" x2="25.400" y2="26.670" stroke="#e6e9ef" stroke-width="0.2"/><circle cx="30.480" cy="26.670" r="0.4" fill="#4ea1ff"/><text x="24.900" y="27.020" fill="#e6e9ef" font-size="1.1" text-anchor="end" font-family="sans-serif">OUT4</text><text x="25.700" y="26.320" fill="#9aa3b2" font-size="0.9" text-anchor="start" font-family="sans-serif">13</text><line x1="30.480" y1="33.020" x2="25.400" y2="33.020" stroke="#e6e9ef" stroke-width="0.2"/><circle cx="30.480" cy="33.020" r="0.4" fill="#4ea1ff"/><text x="24.900" y="33.370" fill="#e6e9ef" font-size="1.1" text-anchor="end" font-family="sans-serif">VCC</text><text x="25.700" y="32.670" fill="#9aa3b2" font-size="0.9" text-anchor="start" font-family="sans-serif">16</text><line x1="30.480" y1="35.560" x2="25.400" y2="35.560" stroke="#e6e9ef" stroke-width="0.2"/><circle cx="30.480" cy="35.560" r="0.4" fill="#4ea1ff"/><text x="24.900" y="35.910" fill="#e6e9ef" font-size="1.1" text-anchor="end" font-family="sans-serif">GND</text><text x="25.700" y="35.210" fill="#9aa3b2" font-size="0.9" text-anchor="start" font-family="sans-serif">8</text></svg>