<svg xmlns="http://www.w3.org/2000/svg" viewBox="-32.75 -23.00 65.50 46.00" preserveAspectRatio="xMidYMid meet" style="width:100%;height:100%"><rect x="-32.75" y="-23.00" width="65.50" height="46.00" fill="#12151c"/><path d="M -31.750 -20.500 A 1.500 1.500 0 0 1 -30.250 -22.000" fill="none" stroke="#e6e9ef" stroke-width="0.12" opacity="1"/><path d="M -30.250 22.000 A 1.500 1.500 0 0 1 -31.750 20.500" fill="none" stroke="#e6e9ef" stroke-width="0.12" opacity="1"/><path d="M 30.250 -22.000 A 1.500 1.500 0 0 1 31.750 -20.500" fill="none" stroke="#e6e9ef" stroke-width="0.12" opacity="1"/><path d="M 31.750 20.500 A 1.500 1.500 0 0 1 30.250 22.000" fill="none" stroke="#e6e9ef" stroke-width="0.12" opacity="1"/><path d="M -31.750 -20.500 A 1.500 1.500 0 0 1 -30.250 -22.000" fill="none" stroke="#6b7280" stroke-width="0.12" opacity="0.8"/><path d="M -30.250 22.000 A 1.500 1.500 0 0 1 -31.750 20.500" fill="none" stroke="#6b7280" stroke-width="0.12" opacity="0.8"/><path d="M 30.250 -22.000 A 1.500 1.500 0 0 1 31.750 -20.500" fill="none" stroke="#6b7280" stroke-width="0.12" opacity="0.8"/><path d="M 31.750 20.500 A 1.500 1.500 0 0 1 30.250 22.000" fill="none" stroke="#6b7280" stroke-width="0.12" opacity="0.8"/><rect x="-25.600" y="-1.350" width="1.700" height="1.700" rx="0.850" fill="#c79b5c"/><circle cx="-24.750" cy="-0.500" r="0.600" fill="#12151c"/><rect x="-23.060" y="-1.350" width="1.700" height="1.700" rx="0.850" fill="#c79b5c"/><circle cx="-22.210" cy="-0.500" r="0.600" fill="#12151c"/><rect x="-20.520" y="-1.350" width="1.700" height="1.700" rx="0.850" fill="#c79b5c"/><circle cx="-19.670" cy="-0.500" r="0.600" fill="#12151c"/><rect x="-0.200" y="16.430" width="1.700" height="1.700" rx="0.850" fill="#c79b5c"/><circle cx="0.650" cy="17.280" r="0.600" fill="#12151c"/><rect x="2.340" y="16.430" width="1.700" height="1.700" rx="0.850" fill="#c79b5c"/><circle cx="3.190" cy="17.280" r="0.600" fill="#12151c"/><rect x="4.880" y="16.430" width="1.700" height="1.700" rx="0.850" fill="#c79b5c"/><circle cx="5.730" cy="17.280" r="0.600" fill="#12151c"/><rect x="7.420" y="16.430" width="1.700" height="1.700" rx="0.850" fill="#c79b5c"/><circle cx="8.270" cy="17.280" r="0.600" fill="#12151c"/><rect x="18.850" y="1.825" width="1.700" height="1.700" rx="0.850" fill="#c79b5c"/><circle cx="19.700" cy="2.675" r="0.600" fill="#12151c"/></svg>