<svg xmlns="http://www.w3.org/2000/svg" viewBox="-4.04 -1.50 18.24 13.16" preserveAspectRatio="xMidYMid meet" style="width:100%;height:100%"><rect x="-4.04" y="-1.50" width="18.24" height="13.16" fill="#12151c"/><rect x="0.000" y="-0.000" width="7.620" height="10.160" fill="#1e222b" stroke="#4ea1ff" stroke-width="0.25"/><polyline points="-2.540,2.540 1.778,2.540" fill="none" stroke="#4ea1ff" stroke-width="0.25" stroke-linejoin="round"/><polyline points="-2.540,7.620 1.778,7.620" fill="none" stroke="#4ea1ff" stroke-width="0.25" stroke-linejoin="round"/><polyline points="1.778,2.540 1.778,4.445" fill="none" stroke="#4ea1ff" stroke-width="0.25" stroke-linejoin="round"/><polyline points="1.778,7.620 1.778,5.715" fill="none" stroke="#4ea1ff" stroke-width="0.25" stroke-linejoin="round"/><polyline points="3.302,2.540 3.302,7.620" fill="none" stroke="#4ea1ff" stroke-width="0.25" stroke-linejoin="round"/><polyline points="3.810,2.540 3.810,7.620" fill="none" stroke="#4ea1ff" stroke-width="0.25" stroke-linejoin="round"/><polyline points="4.318,2.540 4.318,7.620" fill="none" stroke="#4ea1ff" stroke-width="0.25" stroke-linejoin="round"/><polyline points="6.096,5.080 5.842,5.080" fill="none" stroke="#4ea1ff" stroke-width="0.25" stroke-linejoin="round"/><polyline points="7.620,2.540 5.842,2.540" fill="none" stroke="#4ea1ff" stroke-width="0.25" stroke-linejoin="round"/><polyline points="7.620,7.620 5.842,7.620" fill="none" stroke="#4ea1ff" stroke-width="0.25" stroke-linejoin="round"/><circle cx="1.524" cy="1.778" r="0.254" fill="none" stroke="#4ea1ff" stroke-width="0.25"/><circle cx="5.842" cy="1.778" r="0.254" fill="none" stroke="#4ea1ff" stroke-width="0.25"/><path d="M 1.778 4.445 A 0.635 0.635 0 0 1 1.778 5.715" fill="none" stroke="#4ea1ff" stroke-width="0.25"/><path d="M 5.842 3.810 A 0.635 0.635 0 0 1 5.842 2.540" fill="none" stroke="#4ea1ff" stroke-width="0.25"/><path d="M 5.842 5.080 A 0.635 0.635 0 1 1 5.842 3.810" fill="none" stroke="#4ea1ff" stroke-width="0.25"/><path d="M 5.842 6.350 A 0.635 0.635 0 1 1 5.842 5.080" fill="none" stroke="#4ea1ff" stroke-width="0.25"/><path d="M 5.842 7.620 A 0.635 0.635 0 0 1 5.842 6.350" fill="none" stroke="#4ea1ff" stroke-width="0.25"/><line x1="12.700" y1="2.540" x2="7.620" y2="2.540" stroke="#e6e9ef" stroke-width="0.2"/><circle cx="12.700" cy="2.540" r="0.4" fill="#4ea1ff"/><text x="7.920" y="2.190" fill="#9aa3b2" font-size="0.9" text-anchor="start" font-family="sans-serif">1</text><line x1="12.700" y1="7.620" x2="7.620" y2="7.620" stroke="#e6e9ef" stroke-width="0.2"/><circle cx="12.700" cy="7.620" r="0.4" fill="#4ea1ff"/><text x="7.920" y="7.270" fill="#9aa3b2" font-size="0.9" text-anchor="start" font-family="sans-serif">2</text></svg>