<svg xmlns="http://www.w3.org/2000/svg" viewBox="-6.58 -1.50 38.56 38.56" preserveAspectRatio="xMidYMid meet" style="width:100%;height:100%"><rect x="-6.58" y="-1.50" width="38.56" height="38.56" fill="#12151c"/><rect x="0.000" y="-0.000" width="25.400" height="35.560" fill="#1e222b" stroke="#4ea1ff" stroke-width="0.25"/><rect x="24.892" y="31.750" width="0.508" height="2.540" fill="#1e222b" stroke="#4ea1ff" stroke-width="0.25"/><polyline points="5.080,2.032 7.620,2.032" fill="none" stroke="#4ea1ff" stroke-width="0.25" stroke-linejoin="round"/><polyline points="5.080,2.540 0.000,2.540" fill="none" stroke="#4ea1ff" stroke-width="0.25" stroke-linejoin="round"/><polyline points="5.080,3.048 5.080,2.032" fill="none" stroke="#4ea1ff" stroke-width="0.25" stroke-linejoin="round"/><polyline points="5.080,7.112 7.620,7.112" fill="none" stroke="#4ea1ff" stroke-width="0.25" stroke-linejoin="round"/><polyline points="5.080,7.620 0.000,7.620" fill="none" stroke="#4ea1ff" stroke-width="0.25" stroke-linejoin="round"/><polyline points="5.080,8.128 5.080,7.112" fill="none" stroke="#4ea1ff" stroke-width="0.25" stroke-linejoin="round"/><polyline points="5.080,12.192 7.620,12.192" fill="none" stroke="#4ea1ff" stroke-width="0.25" stroke-linejoin="round"/><polyline points="5.080,12.700 0.000,12.700" fill="none" stroke="#4ea1ff" stroke-width="0.25" stroke-linejoin="round"/><polyline points="5.080,13.208 5.080,12.192" fill="none" stroke="#4ea1ff" stroke-width="0.25" stroke-linejoin="round"/><polyline points="5.080,17.272 7.620,17.272" fill="none" stroke="#4ea1ff" stroke-width="0.25" stroke-linejoin="round"/><polyline points="5.080,17.780 0.000,17.780" fill="none" stroke="#4ea1ff" stroke-width="0.25" stroke-linejoin="round"/><polyline points="5.080,18.288 5.080,17.272" fill="none" stroke="#4ea1ff" stroke-width="0.25" stroke-linejoin="round"/><polyline points="7.620,2.032 7.620,3.048" fill="none" stroke="#4ea1ff" stroke-width="0.25" stroke-linejoin="round"/><polyline points="7.620,3.048 5.080,3.048" fill="none" stroke="#4ea1ff" stroke-width="0.25" stroke-linejoin="round"/><polyline points="7.620,7.112 7.620,8.128" fill="none" stroke="#4ea1ff" stroke-width="0.25" stroke-linejoin="round"/><polyline points="7.620,8.128 5.080,8.128" fill="none" stroke="#4ea1ff" stroke-width="0.25" stroke-linejoin="round"/><polyline points="7.620,12.192 7.620,13.208" fill="none" stroke="#4ea1ff" stroke-width="0.25" stroke-linejoin="round"/><polyline points="7.620,13.208 5.080,13.208" fill="none" stroke="#4ea1ff" stroke-width="0.25" stroke-linejoin="round"/><polyline points="7.620,17.272 7.620,18.288" fill="none" stroke="#4ea1ff" stroke-width="0.25" stroke-linejoin="round"/><polyline points="7.620,18.288 5.080,18.288" fill="none" stroke="#4ea1ff" stroke-width="0.25" stroke-linejoin="round"/><polyline points="8.890,2.540 7.620,2.540" fill="none" stroke="#4ea1ff" stroke-width="0.25" stroke-linejoin="round"/><polyline points="8.890,2.540 8.890,5.080" fill="none" stroke="#4ea1ff" stroke-width="0.25" stroke-linejoin="round"/><polyline points="8.890,5.080 8.890,7.620" fill="none" stroke="#4ea1ff" stroke-width="0.25" stroke-linejoin="round"/><polyline points="8.890,12.700 8.890,15.240" fill="none" stroke="#4ea1ff" stroke-width="0.25" stroke-linejoin="round"/><polyline points="8.890,15.240 8.890,17.780" fill="none" stroke="#4ea1ff" stroke-width="0.25" stroke-linejoin="round"/><polyline points="8.890,17.780 7.620,17.780" fill="none" stroke="#4ea1ff" stroke-width="0.25" stroke-linejoin="round"/><polyline points="10.160,6.604 10.160,13.716" fill="none" stroke="#4ea1ff" stroke-width="0.25" stroke-linejoin="round"/><polyline points="10.160,7.620 7.620,7.620" fill="none" stroke="#4ea1ff" stroke-width="0.25" stroke-linejoin="round"/><polyline points="10.160,12.700 7.620,12.700" fill="none" stroke="#4ea1ff" stroke-width="0.25" stroke-linejoin="round"/><polyline points="10.160,13.716 16.510,10.160" fill="none" stroke="#4ea1ff" stroke-width="0.25" stroke-linejoin="round"/><polyline points="11.430,2.032 13.970,2.032" fill="none" stroke="#4ea1ff" stroke-width="0.25" stroke-linejoin="round"/><polyline points="11.430,2.540 8.890,2.540" fill="none" stroke="#4ea1ff" stroke-width="0.25" stroke-linejoin="round"/><polyline points="11.430,3.048 11.430,2.032" fill="none" stroke="#4ea1ff" stroke-width="0.25" stroke-linejoin="round"/><polyline points="11.430,17.272 13.970,17.272" fill="none" stroke="#4ea1ff" stroke-width="0.25" stroke-linejoin="round"/><polyline points="11.430,17.780 8.890,17.780" fill="none" stroke="#4ea1ff" stroke-width="0.25" stroke-linejoin="round"/><polyline points="11.430,18.288 11.430,17.272" fill="none" stroke="#4ea1ff" stroke-width="0.25" stroke-linejoin="round"/><polyline points="11.938,7.620 17.780,7.620" fill="none" stroke="#4ea1ff" stroke-width="0.25" stroke-linejoin="round"/><polyline points="13.462,12.700 17.780,12.700" fill="none" stroke="#4ea1ff" stroke-width="0.25" stroke-linejoin="round"/><polyline points="13.970,2.032 13.970,3.048" fill="none" stroke="#4ea1ff" stroke-width="0.25" stroke-linejoin="round"/><polyline points="13.970,3.048 11.430,3.048" fill="none" stroke="#4ea1ff" stroke-width="0.25" stroke-linejoin="round"/><polyline points="13.970,17.272 13.970,18.288" fill="none" stroke="#4ea1ff" stroke-width="0.25" stroke-linejoin="round"/><polyline points="13.970,18.288 11.430,18.288" fill="none" stroke="#4ea1ff" stroke-width="0.25" stroke-linejoin="round"/><polyline points="16.510,2.540 13.970,2.540" fill="none" stroke="#4ea1ff" stroke-width="0.25" stroke-linejoin="round"/><polyline points="16.510,2.540 16.510,7.620" fill="none" stroke="#4ea1ff" stroke-width="0.25" stroke-linejoin="round"/><polyline points="16.510,10.160 10.160,6.604" fill="none" stroke="#4ea1ff" stroke-width="0.25" stroke-linejoin="round"/><polyline points="16.510,12.700 16.510,17.780" fill="none" stroke="#4ea1ff" stroke-width="0.25" stroke-linejoin="round"/><polyline points="16.510,17.780 13.970,17.780" fill="none" stroke="#4ea1ff" stroke-width="0.25" stroke-linejoin="round"/><polyline points="17.780,7.112 20.320,7.112" fill="none" stroke="#4ea1ff" stroke-width="0.25" stroke-linejoin="round"/><polyline points="17.780,8.128 17.780,7.112" fill="none" stroke="#4ea1ff" stroke-width="0.25" stroke-linejoin="round"/><polyline points="17.780,12.192 20.320,12.192" fill="none" stroke="#4ea1ff" stroke-width="0.25" stroke-linejoin="round"/><polyline points="17.780,13.208 17.780,12.192" fill="none" stroke="#4ea1ff" stroke-width="0.25" stroke-linejoin="round"/><polyline points="20.320,7.112 20.320,8.128" fill="none" stroke="#4ea1ff" stroke-width="0.25" stroke-linejoin="round"/><polyline points="20.320,7.620 25.400,7.620" fill="none" stroke="#4ea1ff" stroke-width="0.25" stroke-linejoin="round"/><polyline points="20.320,8.128 17.780,8.128" fill="none" stroke="#4ea1ff" stroke-width="0.25" stroke-linejoin="round"/><polyline points="20.320,12.192 20.320,13.208" fill="none" stroke="#4ea1ff" stroke-width="0.25" stroke-linejoin="round"/><polyline points="20.320,12.700 25.400,12.700" fill="none" stroke="#4ea1ff" stroke-width="0.25" stroke-linejoin="round"/><polyline points="20.320,13.208 17.780,13.208" fill="none" stroke="#4ea1ff" stroke-width="0.25" stroke-linejoin="round"/><circle cx="8.890" cy="2.540" r="0.254" fill="none" stroke="#4ea1ff" stroke-width="0.25"/><circle cx="8.890" cy="7.620" r="0.254" fill="none" stroke="#4ea1ff" stroke-width="0.25"/><circle cx="8.890" cy="12.700" r="0.254" fill="none" stroke="#4ea1ff" stroke-width="0.25"/><circle cx="8.890" cy="16.510" r="0.000" fill="none" stroke="#4ea1ff" stroke-width="0.25"/><circle cx="8.890" cy="17.780" r="0.254" fill="none" stroke="#4ea1ff" stroke-width="0.25"/><circle cx="12.954" cy="12.700" r="0.508" fill="none" stroke="#4ea1ff" stroke-width="0.25"/><circle cx="16.510" cy="7.620" r="0.254" fill="none" stroke="#4ea1ff" stroke-width="0.25"/><circle cx="16.510" cy="12.700" r="0.254" fill="none" stroke="#4ea1ff" stroke-width="0.25"/><line x1="-5.080" y1="2.540" x2="0.000" y2="2.540" stroke="#e6e9ef" stroke-width="0.2"/><circle cx="-5.080" cy="2.540" r="0.4" fill="#4ea1ff"/><text x="-0.300" y="2.190" fill="#9aa3b2" font-size="0.9" text-anchor="end" font-family="sans-serif">1</text><line x1="-5.080" y1="7.620" x2="0.000" y2="7.620" stroke="#e6e9ef" stroke-width="0.2"/><circle cx="-5.080" cy="7.620" r="0.4" fill="#4ea1ff"/><text x="-0.300" y="7.270" fill="#9aa3b2" font-size="0.9" text-anchor="end" font-family="sans-serif">2</text><line x1="-5.080" y1="12.700" x2="0.000" y2="12.700" stroke="#e6e9ef" stroke-width="0.2"/><circle cx="-5.080" cy="12.700" r="0.4" fill="#4ea1ff"/><text x="-0.300" y="12.350" fill="#9aa3b2" font-size="0.9" text-anchor="end" font-family="sans-serif">3</text><line x1="-5.080" y1="17.780" x2="0.000" y2="17.780" stroke="#e6e9ef" stroke-width="0.2"/><circle cx="-5.080" cy="17.780" r="0.4" fill="#4ea1ff"/><text x="-0.300" y="17.430" fill="#9aa3b2" font-size="0.9" text-anchor="end" font-family="sans-serif">4</text><line x1="-5.080" y1="22.860" x2="0.000" y2="22.860" stroke="#e6e9ef" stroke-width="0.2"/><circle cx="-5.080" cy="22.860" r="0.4" fill="#4ea1ff"/><text x="-0.300" y="22.510" fill="#9aa3b2" font-size="0.9" text-anchor="end" font-family="sans-serif">12</text><line x1="-5.080" y1="25.400" x2="0.000" y2="25.400" stroke="#e6e9ef" stroke-width="0.2"/><circle cx="-5.080" cy="25.400" r="0.4" fill="#4ea1ff"/><text x="-0.300" y="25.050" fill="#9aa3b2" font-size="0.9" text-anchor="end" font-family="sans-serif">5</text><line x1="-5.080" y1="27.940" x2="0.000" y2="27.940" stroke="#e6e9ef" stroke-width="0.2"/><circle cx="-5.080" cy="27.940" r="0.4" fill="#4ea1ff"/><text x="-0.300" y="27.590" fill="#9aa3b2" font-size="0.9" text-anchor="end" font-family="sans-serif">6</text><line x1="-5.080" y1="30.480" x2="0.000" y2="30.480" stroke="#e6e9ef" stroke-width="0.2"/><circle cx="-5.080" cy="30.480" r="0.4" fill="#4ea1ff"/><text x="-0.300" y="30.130" fill="#9aa3b2" font-size="0.9" text-anchor="end" font-family="sans-serif">7</text><line x1="-5.080" y1="33.020" x2="0.000" y2="33.020" stroke="#e6e9ef" stroke-width="0.2"/><circle cx="-5.080" cy="33.020" r="0.4" fill="#4ea1ff"/><text x="-0.300" y="32.670" fill="#9aa3b2" font-size="0.9" text-anchor="end" font-family="sans-serif">8</text><line x1="30.480" y1="7.620" x2="25.400" y2="7.620" stroke="#e6e9ef" stroke-width="0.2"/><circle cx="30.480" cy="7.620" r="0.4" fill="#4ea1ff"/><text x="25.700" y="7.270" fill="#9aa3b2" font-size="0.9" text-anchor="start" font-family="sans-serif">11</text><line x1="30.480" y1="12.700" x2="25.400" y2="12.700" stroke="#e6e9ef" stroke-width="0.2"/><circle cx="30.480" cy="12.700" r="0.4" fill="#4ea1ff"/><text x="25.700" y="12.350" fill="#9aa3b2" font-size="0.9" text-anchor="start" font-family="sans-serif">10</text><line x1="30.480" y1="17.780" x2="25.400" y2="17.780" stroke="#e6e9ef" stroke-width="0.2"/><circle cx="30.480" cy="17.780" r="0.4" fill="#4ea1ff"/><text x="25.700" y="17.430" fill="#9aa3b2" font-size="0.9" text-anchor="start" font-family="sans-serif">9</text><line x1="30.480" y1="22.860" x2="25.400" y2="22.860" stroke="#e6e9ef" stroke-width="0.2"/><circle cx="30.480" cy="22.860" r="0.4" fill="#4ea1ff"/><text x="25.700" y="22.510" fill="#9aa3b2" font-size="0.9" text-anchor="start" font-family="sans-serif">13</text><line x1="30.480" y1="25.400" x2="25.400" y2="25.400" stroke="#e6e9ef" stroke-width="0.2"/><circle cx="30.480" cy="25.400" r="0.4" fill="#4ea1ff"/><text x="25.700" y="25.050" fill="#9aa3b2" font-size="0.9" text-anchor="start" font-family="sans-serif">14</text><line x1="30.480" y1="27.940" x2="25.400" y2="27.940" stroke="#e6e9ef" stroke-width="0.2"/><circle cx="30.480" cy="27.940" r="0.4" fill="#4ea1ff"/><text x="25.700" y="27.590" fill="#9aa3b2" font-size="0.9" text-anchor="start" font-family="sans-serif">15</text><line x1="30.480" y1="30.480" x2="25.400" y2="30.480" stroke="#e6e9ef" stroke-width="0.2"/><circle cx="30.480" cy="30.480" r="0.4" fill="#4ea1ff"/><text x="25.700" y="30.130" fill="#9aa3b2" font-size="0.9" text-anchor="start" font-family="sans-serif">16</text><line x1="30.480" y1="33.020" x2="25.400" y2="33.020" stroke="#e6e9ef" stroke-width="0.2"/><circle cx="30.480" cy="33.020" r="0.4" fill="#4ea1ff"/><text x="25.700" y="32.670" fill="#9aa3b2" font-size="0.9" text-anchor="start" font-family="sans-serif">17</text></svg>