<svg xmlns="http://www.w3.org/2000/svg" viewBox="-3.52 -2.90 6.45 5.80" preserveAspectRatio="xMidYMid meet" style="width:100%;height:100%"><rect x="-3.52" y="-2.90" width="6.45" height="5.80" fill="#12151c"/><circle cx="-2.400" cy="-1.000" r="0.125" fill="none" stroke="#e6e9ef" stroke-width="0.12" opacity="1"/><rect x="-1.925" y="-1.150" width="0.850" height="0.300" rx="0.000" fill="#c79b5c"/><rect x="-1.925" y="-0.650" width="0.850" height="0.300" rx="0.000" fill="#c79b5c"/><rect x="-1.925" y="-0.150" width="0.850" height="0.300" rx="0.000" fill="#c79b5c"/><rect x="-1.925" y="0.350" width="0.850" height="0.300" rx="0.000" fill="#c79b5c"/><rect x="-1.925" y="0.850" width="0.850" height="0.300" rx="0.000" fill="#c79b5c"/><rect x="1.075" y="0.850" width="0.850" height="0.300" rx="0.000" fill="#c79b5c"/><rect x="1.075" y="0.350" width="0.850" height="0.300" rx="0.000" fill="#c79b5c"/><rect x="1.075" y="-0.150" width="0.850" height="0.300" rx="0.000" fill="#c79b5c"/><rect x="1.075" y="-0.650" width="0.850" height="0.300" rx="0.000" fill="#c79b5c"/><rect x="1.075" y="-1.150" width="0.850" height="0.300" rx="0.000" fill="#c79b5c"/><rect x="-0.390" y="-1.900" width="0.280" height="0.700" rx="0.000" fill="#c79b5c"/><rect x="-0.390" y="1.200" width="0.280" height="0.700" rx="0.000" fill="#c79b5c"/><rect x="-1.200" y="-0.825" width="2.400" height="1.650" rx="0.000" fill="#c79b5c"/><rect x="0.110" y="-1.900" width="0.280" height="0.700" rx="0.000" fill="#c79b5c"/><rect x="0.110" y="1.200" width="0.280" height="0.700" rx="0.000" fill="#c79b5c"/></svg>