<svg xmlns="http://www.w3.org/2000/svg" viewBox="-6.70 -6.20 13.40 12.40" preserveAspectRatio="xMidYMid meet" style="width:100%;height:100%"><rect x="-6.70" y="-6.20" width="13.40" height="12.40" fill="#12151c"/><line x1="-3.100" y1="-4.950" x2="3.100" y2="-4.950" stroke="#e6e9ef" stroke-width="0.200" stroke-linecap="round" opacity="1"/><line x1="-3.100" y1="4.950" x2="-3.100" y2="-4.950" stroke="#e6e9ef" stroke-width="0.200" stroke-linecap="round" opacity="1"/><line x1="-3.100" y1="4.950" x2="3.100" y2="4.950" stroke="#e6e9ef" stroke-width="0.200" stroke-linecap="round" opacity="1"/><line x1="3.100" y1="4.950" x2="3.100" y2="-4.950" stroke="#e6e9ef" stroke-width="0.200" stroke-linecap="round" opacity="1"/><line x1="-5.450" y1="-4.318" x2="-3.450" y2="-4.318" stroke="#4a5160" stroke-width="0.100" stroke-linecap="round" opacity="0.7"/><line x1="-5.450" y1="-3.302" x2="-5.450" y2="-4.318" stroke="#4a5160" stroke-width="0.100" stroke-linecap="round" opacity="0.7"/><line x1="-5.450" y1="-3.302" x2="-3.450" y2="-3.302" stroke="#4a5160" stroke-width="0.100" stroke-linecap="round" opacity="0.7"/><line x1="-5.450" y1="-1.905" x2="-3.450" y2="-1.905" stroke="#4a5160" stroke-width="0.100" stroke-linecap="round" opacity="0.7"/><line x1="-5.450" y1="-0.635" x2="-5.450" y2="-1.905" stroke="#4a5160" stroke-width="0.100" stroke-linecap="round" opacity="0.7"/><line x1="-5.450" y1="-0.635" x2="-3.450" y2="-0.635" stroke="#4a5160" stroke-width="0.100" stroke-linecap="round" opacity="0.7"/><line x1="-5.450" y1="0.635" x2="-3.450" y2="0.635" stroke="#4a5160" stroke-width="0.100" stroke-linecap="round" opacity="0.7"/><line x1="-5.450" y1="1.905" x2="-5.450" y2="0.635" stroke="#4a5160" stroke-width="0.100" stroke-linecap="round" opacity="0.7"/><line x1="-5.450" y1="1.905" x2="-3.450" y2="1.905" stroke="#4a5160" stroke-width="0.100" stroke-linecap="round" opacity="0.7"/><line x1="-5.450" y1="3.302" x2="-3.450" y2="3.302" stroke="#4a5160" stroke-width="0.100" stroke-linecap="round" opacity="0.7"/><line x1="-5.450" y1="4.318" x2="-5.450" y2="3.302" stroke="#4a5160" stroke-width="0.100" stroke-linecap="round" opacity="0.7"/><line x1="-5.450" y1="4.318" x2="-3.450" y2="4.318" stroke="#4a5160" stroke-width="0.100" stroke-linecap="round" opacity="0.7"/><line x1="-4.950" y1="-3.810" x2="-4.450" y2="-3.810" stroke="#4a5160" stroke-width="0.100" stroke-linecap="round" opacity="0.7"/><line x1="-4.950" y1="-1.270" x2="-4.450" y2="-1.270" stroke="#4a5160" stroke-width="0.100" stroke-linecap="round" opacity="0.7"/><line x1="-4.950" y1="1.270" x2="-4.450" y2="1.270" stroke="#4a5160" stroke-width="0.100" stroke-linecap="round" opacity="0.7"/><line x1="-4.950" y1="3.810" x2="-4.450" y2="3.810" stroke="#4a5160" stroke-width="0.100" stroke-linecap="round" opacity="0.7"/><line x1="-4.450" y1="-3.810" x2="-4.450" y2="-4.310" stroke="#4a5160" stroke-width="0.100" stroke-linecap="round" opacity="0.7"/><line x1="-4.450" y1="-3.810" x2="-3.950" y2="-3.810" stroke="#4a5160" stroke-width="0.100" stroke-linecap="round" opacity="0.7"/><line x1="-4.450" y1="-3.310" x2="-4.450" y2="-3.810" stroke="#4a5160" stroke-width="0.100" stroke-linecap="round" opacity="0.7"/><line x1="-4.450" y1="-1.270" x2="-4.450" y2="-1.770" stroke="#4a5160" stroke-width="0.100" stroke-linecap="round" opacity="0.7"/><line x1="-4.450" y1="-1.270" x2="-3.950" y2="-1.270" stroke="#4a5160" stroke-width="0.100" stroke-linecap="round" opacity="0.7"/><line x1="-4.450" y1="-0.770" x2="-4.450" y2="-1.270" stroke="#4a5160" stroke-width="0.100" stroke-linecap="round" opacity="0.7"/><line x1="-4.450" y1="1.270" x2="-4.450" y2="0.770" stroke="#4a5160" stroke-width="0.100" stroke-linecap="round" opacity="0.7"/><line x1="-4.450" y1="1.270" x2="-3.950" y2="1.270" stroke="#4a5160" stroke-width="0.100" stroke-linecap="round" opacity="0.7"/><line x1="-4.450" y1="1.770" x2="-4.450" y2="1.270" stroke="#4a5160" stroke-width="0.100" stroke-linecap="round" opacity="0.7"/><line x1="-4.450" y1="3.810" x2="-4.450" y2="3.310" stroke="#4a5160" stroke-width="0.100" stroke-linecap="round" opacity="0.7"/><line x1="-4.450" y1="3.810" x2="-3.950" y2="3.810" stroke="#4a5160" stroke-width="0.100" stroke-linecap="round" opacity="0.7"/><line x1="-4.450" y1="4.310" x2="-4.450" y2="3.810" stroke="#4a5160" stroke-width="0.100" stroke-linecap="round" opacity="0.7"/><line x1="-3.450" y1="-3.302" x2="-3.450" y2="-4.318" stroke="#4a5160" stroke-width="0.100" stroke-linecap="round" opacity="0.7"/><line x1="-3.450" y1="-0.635" x2="-3.450" y2="-1.905" stroke="#4a5160" stroke-width="0.100" stroke-linecap="round" opacity="0.7"/><line x1="-3.450" y1="1.905" x2="-3.450" y2="0.635" stroke="#4a5160" stroke-width="0.100" stroke-linecap="round" opacity="0.7"/><line x1="-3.450" y1="4.318" x2="-3.450" y2="3.302" stroke="#4a5160" stroke-width="0.100" stroke-linecap="round" opacity="0.7"/><line x1="-0.500" y1="0.000" x2="0.000" y2="0.000" stroke="#4a5160" stroke-width="0.100" stroke-linecap="round" opacity="0.7"/><line x1="0.000" y1="0.000" x2="0.000" y2="-0.500" stroke="#4a5160" stroke-width="0.100" stroke-linecap="round" opacity="0.7"/><line x1="0.000" y1="0.000" x2="0.500" y2="0.000" stroke="#4a5160" stroke-width="0.100" stroke-linecap="round" opacity="0.7"/><line x1="0.000" y1="0.500" x2="0.000" y2="0.000" stroke="#4a5160" stroke-width="0.100" stroke-linecap="round" opacity="0.7"/><line x1="3.450" y1="-4.318" x2="5.450" y2="-4.318" stroke="#4a5160" stroke-width="0.100" stroke-linecap="round" opacity="0.7"/><line x1="3.450" y1="-3.302" x2="3.450" y2="-4.318" stroke="#4a5160" stroke-width="0.100" stroke-linecap="round" opacity="0.7"/><line x1="3.450" y1="-3.302" x2="5.450" y2="-3.302" stroke="#4a5160" stroke-width="0.100" stroke-linecap="round" opacity="0.7"/><line x1="3.450" y1="-1.905" x2="5.450" y2="-1.905" stroke="#4a5160" stroke-width="0.100" stroke-linecap="round" opacity="0.7"/><line x1="3.450" y1="-0.635" x2="3.450" y2="-1.905" stroke="#4a5160" stroke-width="0.100" stroke-linecap="round" opacity="0.7"/><line x1="3.450" y1="-0.635" x2="5.450" y2="-0.635" stroke="#4a5160" stroke-width="0.100" stroke-linecap="round" opacity="0.7"/><line x1="3.450" y1="0.635" x2="5.450" y2="0.635" stroke="#4a5160" stroke-width="0.100" stroke-linecap="round" opacity="0.7"/><line x1="3.450" y1="1.905" x2="3.450" y2="0.635" stroke="#4a5160" stroke-width="0.100" stroke-linecap="round" opacity="0.7"/><line x1="3.450" y1="1.905" x2="5.450" y2="1.905" stroke="#4a5160" stroke-width="0.100" stroke-linecap="round" opacity="0.7"/><line x1="3.450" y1="3.302" x2="5.450" y2="3.302" stroke="#4a5160" stroke-width="0.100" stroke-linecap="round" opacity="0.7"/><line x1="3.450" y1="4.318" x2="3.450" y2="3.302" stroke="#4a5160" stroke-width="0.100" stroke-linecap="round" opacity="0.7"/><line x1="3.450" y1="4.318" x2="5.450" y2="4.318" stroke="#4a5160" stroke-width="0.100" stroke-linecap="round" opacity="0.7"/><line x1="3.950" y1="-3.810" x2="4.450" y2="-3.810" stroke="#4a5160" stroke-width="0.100" stroke-linecap="round" opacity="0.7"/><line x1="3.950" y1="-1.270" x2="4.450" y2="-1.270" stroke="#4a5160" stroke-width="0.100" stroke-linecap="round" opacity="0.7"/><line x1="3.950" y1="1.270" x2="4.450" y2="1.270" stroke="#4a5160" stroke-width="0.100" stroke-linecap="round" opacity="0.7"/><line x1="3.950" y1="3.810" x2="4.450" y2="3.810" stroke="#4a5160" stroke-width="0.100" stroke-linecap="round" opacity="0.7"/><line x1="4.450" y1="-3.810" x2="4.450" y2="-4.310" stroke="#4a5160" stroke-width="0.100" stroke-linecap="round" opacity="0.7"/><line x1="4.450" y1="-3.810" x2="4.950" y2="-3.810" stroke="#4a5160" stroke-width="0.100" stroke-linecap="round" opacity="0.7"/><line x1="4.450" y1="-3.310" x2="4.450" y2="-3.810" stroke="#4a5160" stroke-width="0.100" stroke-linecap="round" opacity="0.7"/><line x1="4.450" y1="-1.270" x2="4.450" y2="-1.770" stroke="#4a5160" stroke-width="0.100" stroke-linecap="round" opacity="0.7"/><line x1="4.450" y1="-1.270" x2="4.950" y2="-1.270" stroke="#4a5160" stroke-width="0.100" stroke-linecap="round" opacity="0.7"/><line x1="4.450" y1="-0.770" x2="4.450" y2="-1.270" stroke="#4a5160" stroke-width="0.100" stroke-linecap="round" opacity="0.7"/><line x1="4.450" y1="1.270" x2="4.450" y2="0.770" stroke="#4a5160" stroke-width="0.100" stroke-linecap="round" opacity="0.7"/><line x1="4.450" y1="1.270" x2="4.950" y2="1.270" stroke="#4a5160" stroke-width="0.100" stroke-linecap="round" opacity="0.7"/><line x1="4.450" y1="1.770" x2="4.450" y2="1.270" stroke="#4a5160" stroke-width="0.100" stroke-linecap="round" opacity="0.7"/><line x1="4.450" y1="3.810" x2="4.450" y2="3.310" stroke="#4a5160" stroke-width="0.100" stroke-linecap="round" opacity="0.7"/><line x1="4.450" y1="3.810" x2="4.950" y2="3.810" stroke="#4a5160" stroke-width="0.100" stroke-linecap="round" opacity="0.7"/><line x1="4.450" y1="4.310" x2="4.450" y2="3.810" stroke="#4a5160" stroke-width="0.100" stroke-linecap="round" opacity="0.7"/><line x1="5.450" y1="-3.302" x2="5.450" y2="-4.318" stroke="#4a5160" stroke-width="0.100" stroke-linecap="round" opacity="0.7"/><line x1="5.450" y1="-0.635" x2="5.450" y2="-1.905" stroke="#4a5160" stroke-width="0.100" stroke-linecap="round" opacity="0.7"/><line x1="5.450" y1="1.905" x2="5.450" y2="0.635" stroke="#4a5160" stroke-width="0.100" stroke-linecap="round" opacity="0.7"/><line x1="5.450" y1="4.318" x2="5.450" y2="3.302" stroke="#4a5160" stroke-width="0.100" stroke-linecap="round" opacity="0.7"/><line x1="-5.700" y1="-5.200" x2="5.700" y2="-5.200" stroke="#d24d4d" stroke-width="0.080" stroke-linecap="round" opacity="0.7"/><line x1="-5.700" y1="5.200" x2="-5.700" y2="-5.200" stroke="#d24d4d" stroke-width="0.080" stroke-linecap="round" opacity="0.7"/><line x1="-5.700" y1="5.200" x2="5.700" y2="5.200" stroke="#d24d4d" stroke-width="0.080" stroke-linecap="round" opacity="0.7"/><line x1="5.700" y1="5.200" x2="5.700" y2="-5.200" stroke="#d24d4d" stroke-width="0.080" stroke-linecap="round" opacity="0.7"/><line x1="-3.300" y1="-4.950" x2="3.300" y2="-4.950" stroke="#6b7280" stroke-width="0.100" stroke-linecap="round" opacity="0.8"/><line x1="-3.300" y1="-4.850" x2="-3.200" y2="-4.950" stroke="#6b7280" stroke-width="0.100" stroke-linecap="round" opacity="0.8"/><line x1="-3.300" y1="-4.750" x2="-3.100" y2="-4.950" stroke="#6b7280" stroke-width="0.100" stroke-linecap="round" opacity="0.8"/><line x1="-3.300" y1="-4.650" x2="-3.000" y2="-4.950" stroke="#6b7280" stroke-width="0.100" stroke-linecap="round" opacity="0.8"/><line x1="-3.300" y1="-4.550" x2="-2.900" y2="-4.950" stroke="#6b7280" stroke-width="0.100" stroke-linecap="round" opacity="0.8"/><line x1="-3.300" y1="-4.450" x2="-2.800" y2="-4.950" stroke="#6b7280" stroke-width="0.100" stroke-linecap="round" opacity="0.8"/><line x1="-3.300" y1="-4.350" x2="-2.700" y2="-4.950" stroke="#6b7280" stroke-width="0.100" stroke-linecap="round" opacity="0.8"/><line x1="-3.300" y1="-4.250" x2="-2.600" y2="-4.950" stroke="#6b7280" stroke-width="0.100" stroke-linecap="round" opacity="0.8"/><line x1="-3.300" y1="-4.150" x2="-2.500" y2="-4.950" stroke="#6b7280" stroke-width="0.100" stroke-linecap="round" opacity="0.8"/><line x1="-3.300" y1="-4.050" x2="-2.400" y2="-4.950" stroke="#6b7280" stroke-width="0.100" stroke-linecap="round" opacity="0.8"/><line x1="-3.300" y1="-3.950" x2="-2.300" y2="-4.950" stroke="#6b7280" stroke-width="0.100" stroke-linecap="round" opacity="0.8"/><line x1="-3.300" y1="4.950" x2="-3.300" y2="-4.950" stroke="#6b7280" stroke-width="0.100" stroke-linecap="round" opacity="0.8"/><line x1="-3.300" y1="4.950" x2="3.300" y2="4.950" stroke="#6b7280" stroke-width="0.100" stroke-linecap="round" opacity="0.8"/><line x1="3.300" y1="4.950" x2="3.300" y2="-4.950" stroke="#6b7280" stroke-width="0.100" stroke-linecap="round" opacity="0.8"/><circle cx="-4.625" cy="-4.900" r="0.125" fill="none" stroke="#e6e9ef" stroke-width="0.12" opacity="1"/><circle cx="-2.220" cy="-3.935" r="0.300" fill="none" stroke="#e6e9ef" stroke-width="0.12" opacity="1"/><rect x="-5.450" y="-4.318" width="2.000" height="1.016" rx="0.000" fill="#c79b5c"/><rect x="-5.450" y="-1.905" width="2.000" height="1.270" rx="0.000" fill="#c79b5c"/><rect x="-5.450" y="0.635" width="2.000" height="1.270" rx="0.000" fill="#c79b5c"/><rect x="-5.450" y="3.302" width="2.000" height="1.016" rx="0.000" fill="#c79b5c"/><rect x="3.450" y="3.302" width="2.000" height="1.016" rx="0.000" fill="#c79b5c"/><rect x="3.450" y="0.635" width="2.000" height="1.270" rx="0.000" fill="#c79b5c"/><rect x="3.450" y="-1.905" width="2.000" height="1.270" rx="0.000" fill="#c79b5c"/><rect x="3.450" y="-4.318" width="2.000" height="1.016" rx="0.000" fill="#c79b5c"/></svg>