<svg xmlns="http://www.w3.org/2000/svg" viewBox="-4.87 -4.29 9.73 8.59" preserveAspectRatio="xMidYMid meet" style="width:100%;height:100%"><rect x="-4.87" y="-4.29" width="9.73" height="8.59" fill="#12151c"/><line x1="-3.226" y1="-1.537" x2="1.995" y2="-1.537" stroke="#e6e9ef" stroke-width="0.200" stroke-linecap="round" opacity="1"/><line x1="-3.226" y1="-0.605" x2="-3.226" y2="-1.537" stroke="#e6e9ef" stroke-width="0.200" stroke-linecap="round" opacity="1"/><line x1="-1.995" y1="1.537" x2="3.226" y2="1.537" stroke="#e6e9ef" stroke-width="0.200" stroke-linecap="round" opacity="1"/><line x1="3.226" y1="1.537" x2="3.226" y2="0.605" stroke="#e6e9ef" stroke-width="0.200" stroke-linecap="round" opacity="1"/><line x1="-3.615" y1="-0.255" x2="-2.345" y2="-0.255" stroke="#4a5160" stroke-width="0.100" stroke-linecap="round" opacity="0.7"/><line x1="-3.615" y1="3.045" x2="-3.615" y2="-0.255" stroke="#4a5160" stroke-width="0.100" stroke-linecap="round" opacity="0.7"/><line x1="-3.615" y1="3.045" x2="-2.350" y2="3.045" stroke="#4a5160" stroke-width="0.100" stroke-linecap="round" opacity="0.7"/><line x1="-3.480" y1="1.395" x2="-2.980" y2="1.395" stroke="#4a5160" stroke-width="0.100" stroke-linecap="round" opacity="0.7"/><line x1="-2.980" y1="1.395" x2="-2.980" y2="0.895" stroke="#4a5160" stroke-width="0.100" stroke-linecap="round" opacity="0.7"/><line x1="-2.980" y1="1.395" x2="-2.480" y2="1.395" stroke="#4a5160" stroke-width="0.100" stroke-linecap="round" opacity="0.7"/><line x1="-2.980" y1="1.895" x2="-2.980" y2="1.395" stroke="#4a5160" stroke-width="0.100" stroke-linecap="round" opacity="0.7"/><line x1="-2.345" y1="3.045" x2="-2.345" y2="-0.255" stroke="#4a5160" stroke-width="0.100" stroke-linecap="round" opacity="0.7"/><line x1="-0.500" y1="0.000" x2="0.000" y2="0.000" stroke="#4a5160" stroke-width="0.100" stroke-linecap="round" opacity="0.7"/><line x1="0.000" y1="0.000" x2="0.000" y2="-0.500" stroke="#4a5160" stroke-width="0.100" stroke-linecap="round" opacity="0.7"/><line x1="0.000" y1="0.000" x2="0.500" y2="0.000" stroke="#4a5160" stroke-width="0.100" stroke-linecap="round" opacity="0.7"/><line x1="0.000" y1="0.500" x2="0.000" y2="0.000" stroke="#4a5160" stroke-width="0.100" stroke-linecap="round" opacity="0.7"/><line x1="2.345" y1="-3.045" x2="3.615" y2="-3.045" stroke="#4a5160" stroke-width="0.100" stroke-linecap="round" opacity="0.7"/><line x1="2.345" y1="0.255" x2="2.345" y2="-3.045" stroke="#4a5160" stroke-width="0.100" stroke-linecap="round" opacity="0.7"/><line x1="2.345" y1="0.255" x2="3.615" y2="0.255" stroke="#4a5160" stroke-width="0.100" stroke-linecap="round" opacity="0.7"/><line x1="2.480" y1="-1.395" x2="2.980" y2="-1.395" stroke="#4a5160" stroke-width="0.100" stroke-linecap="round" opacity="0.7"/><line x1="2.980" y1="-1.395" x2="2.980" y2="-1.895" stroke="#4a5160" stroke-width="0.100" stroke-linecap="round" opacity="0.7"/><line x1="2.980" y1="-1.395" x2="3.480" y2="-1.395" stroke="#4a5160" stroke-width="0.100" stroke-linecap="round" opacity="0.7"/><line x1="2.980" y1="-0.895" x2="2.980" y2="-1.395" stroke="#4a5160" stroke-width="0.100" stroke-linecap="round" opacity="0.7"/><line x1="3.615" y1="0.255" x2="3.615" y2="-3.045" stroke="#4a5160" stroke-width="0.100" stroke-linecap="round" opacity="0.7"/><line x1="-3.865" y1="-0.505" x2="-3.476" y2="-0.505" stroke="#d24d4d" stroke-width="0.080" stroke-linecap="round" opacity="0.7"/><line x1="-3.865" y1="3.295" x2="-3.865" y2="-0.505" stroke="#d24d4d" stroke-width="0.080" stroke-linecap="round" opacity="0.7"/><line x1="-3.865" y1="3.295" x2="-2.095" y2="3.295" stroke="#d24d4d" stroke-width="0.080" stroke-linecap="round" opacity="0.7"/><line x1="-3.476" y1="-1.787" x2="2.095" y2="-1.787" stroke="#d24d4d" stroke-width="0.080" stroke-linecap="round" opacity="0.7"/><line x1="-3.476" y1="-0.505" x2="-3.476" y2="-1.787" stroke="#d24d4d" stroke-width="0.080" stroke-linecap="round" opacity="0.7"/><line x1="-2.095" y1="1.787" x2="3.476" y2="1.787" stroke="#d24d4d" stroke-width="0.080" stroke-linecap="round" opacity="0.7"/><line x1="-2.095" y1="3.295" x2="-2.095" y2="1.787" stroke="#d24d4d" stroke-width="0.080" stroke-linecap="round" opacity="0.7"/><line x1="2.095" y1="-3.295" x2="3.865" y2="-3.295" stroke="#d24d4d" stroke-width="0.080" stroke-linecap="round" opacity="0.7"/><line x1="2.095" y1="-1.787" x2="2.095" y2="-3.295" stroke="#d24d4d" stroke-width="0.080" stroke-linecap="round" opacity="0.7"/><line x1="3.476" y1="0.505" x2="3.865" y2="0.505" stroke="#d24d4d" stroke-width="0.080" stroke-linecap="round" opacity="0.7"/><line x1="3.476" y1="1.787" x2="3.476" y2="0.505" stroke="#d24d4d" stroke-width="0.080" stroke-linecap="round" opacity="0.7"/><line x1="3.865" y1="0.505" x2="3.865" y2="-3.295" stroke="#d24d4d" stroke-width="0.080" stroke-linecap="round" opacity="0.7"/><line x1="-3.226" y1="-1.537" x2="3.226" y2="-1.537" stroke="#6b7280" stroke-width="0.100" stroke-linecap="round" opacity="0.8"/><line x1="-3.226" y1="1.537" x2="-3.226" y2="-1.537" stroke="#6b7280" stroke-width="0.100" stroke-linecap="round" opacity="0.8"/><line x1="-3.226" y1="1.537" x2="3.226" y2="1.537" stroke="#6b7280" stroke-width="0.100" stroke-linecap="round" opacity="0.8"/><line x1="-3.204" y1="1.968" x2="-3.204" y2="1.537" stroke="#6b7280" stroke-width="0.100" stroke-linecap="round" opacity="0.8"/><line x1="-3.204" y1="1.968" x2="-2.638" y2="1.968" stroke="#6b7280" stroke-width="0.100" stroke-linecap="round" opacity="0.8"/><line x1="-2.638" y1="1.968" x2="-2.638" y2="1.537" stroke="#6b7280" stroke-width="0.100" stroke-linecap="round" opacity="0.8"/><line x1="2.638" y1="-1.968" x2="3.204" y2="-1.968" stroke="#6b7280" stroke-width="0.100" stroke-linecap="round" opacity="0.8"/><line x1="2.638" y1="-1.537" x2="2.638" y2="-1.968" stroke="#6b7280" stroke-width="0.100" stroke-linecap="round" opacity="0.8"/><line x1="3.204" y1="-1.537" x2="3.204" y2="-1.968" stroke="#6b7280" stroke-width="0.100" stroke-linecap="round" opacity="0.8"/><line x1="3.226" y1="1.537" x2="3.226" y2="-1.537" stroke="#6b7280" stroke-width="0.100" stroke-linecap="round" opacity="0.8"/><rect x="-3.615" y="-0.255" width="1.270" height="3.300" rx="0.000" fill="#c79b5c"/><rect x="2.345" y="-3.045" width="1.270" height="3.300" rx="0.000" fill="#c79b5c"/></svg>