<svg xmlns="http://www.w3.org/2000/svg" viewBox="-10.25 -4.95 20.50 10.01" preserveAspectRatio="xMidYMid meet" style="width:100%;height:100%"><rect x="-10.25" y="-4.95" width="20.50" height="10.01" fill="#12151c"/><line x1="-9.250" y1="-3.950" x2="9.250" y2="-3.950" stroke="#d24d4d" stroke-width="0.080" stroke-linecap="round" opacity="0.7"/><line x1="9.250" y1="-3.950" x2="9.250" y2="3.250" stroke="#d24d4d" stroke-width="0.080" stroke-linecap="round" opacity="0.7"/><line x1="9.250" y1="3.250" x2="-9.250" y2="3.250" stroke="#d24d4d" stroke-width="0.080" stroke-linecap="round" opacity="0.7"/><line x1="-9.250" y1="3.250" x2="-9.250" y2="-3.950" stroke="#d24d4d" stroke-width="0.080" stroke-linecap="round" opacity="0.7"/><path d="M -8.400 1.050 A 0.400 0.400 0 0 1 -8.000 0.650" fill="none" stroke="#e6e9ef" stroke-width="0.12" opacity="1"/><path d="M -8.200 1.050 A 0.200 0.200 0 0 1 -8.000 0.850" fill="none" stroke="#e6e9ef" stroke-width="0.12" opacity="1"/><path d="M -8.000 2.250 A 0.200 0.200 0 0 1 -8.200 2.050" fill="none" stroke="#e6e9ef" stroke-width="0.12" opacity="1"/><path d="M -7.500 -1.900 A 0.200 0.200 0 0 1 -7.300 -2.100" fill="none" stroke="#e6e9ef" stroke-width="0.12" opacity="1"/><path d="M -6.700 -2.300 A 0.400 0.400 0 0 1 -6.354 -2.100" fill="none" stroke="#e6e9ef" stroke-width="0.12" opacity="1"/><path d="M -6.700 -2.100 A 0.200 0.200 0 0 1 -6.500 -1.900" fill="none" stroke="#e6e9ef" stroke-width="0.12" opacity="1"/><path d="M 6.354 -2.100 A 0.400 0.400 0 0 1 6.658 -2.298" fill="none" stroke="#e6e9ef" stroke-width="0.12" opacity="1"/><path d="M 6.500 -1.900 A 0.200 0.200 0 0 1 6.612 -2.079" fill="none" stroke="#e6e9ef" stroke-width="0.12" opacity="1"/><path d="M 8.000 0.850 A 0.200 0.200 0 0 1 8.200 1.046" fill="none" stroke="#e6e9ef" stroke-width="0.12" opacity="1"/><path d="M 8.000 0.850 A 0.200 0.200 0 0 1 8.200 1.046" fill="none" stroke="#e6e9ef" stroke-width="0.12" opacity="1"/><path d="M 8.000 0.650 A 0.400 0.400 0 0 1 8.400 1.050" fill="none" stroke="#e6e9ef" stroke-width="0.12" opacity="1"/><path d="M 8.200 2.050 A 0.200 0.200 0 0 1 8.000 2.250" fill="none" stroke="#e6e9ef" stroke-width="0.12" opacity="1"/><path d="M -8.400 1.050 A 0.400 0.400 0 0 1 -8.000 0.650" fill="none" stroke="#6b7280" stroke-width="0.12" opacity="0.8"/><path d="M -8.200 1.050 A 0.200 0.200 0 0 1 -8.000 0.850" fill="none" stroke="#6b7280" stroke-width="0.12" opacity="0.8"/><path d="M -8.000 2.250 A 0.200 0.200 0 0 1 -8.200 2.050" fill="none" stroke="#6b7280" stroke-width="0.12" opacity="0.8"/><path d="M -7.500 -1.900 A 0.200 0.200 0 0 1 -7.300 -2.100" fill="none" stroke="#6b7280" stroke-width="0.12" opacity="0.8"/><path d="M -6.700 -2.300 A 0.400 0.400 0 0 1 -6.354 -2.100" fill="none" stroke="#6b7280" stroke-width="0.12" opacity="0.8"/><path d="M -6.700 -2.100 A 0.200 0.200 0 0 1 -6.500 -1.900" fill="none" stroke="#6b7280" stroke-width="0.12" opacity="0.8"/><path d="M 6.354 -2.100 A 0.400 0.400 0 0 1 6.700 -2.300" fill="none" stroke="#6b7280" stroke-width="0.12" opacity="0.8"/><path d="M 6.500 -1.900 A 0.200 0.200 0 0 1 6.700 -2.100" fill="none" stroke="#6b7280" stroke-width="0.12" opacity="0.8"/><path d="M 7.300 -2.100 A 0.200 0.200 0 0 1 7.500 -1.900" fill="none" stroke="#6b7280" stroke-width="0.12" opacity="0.8"/><path d="M 8.000 0.850 A 0.200 0.200 0 0 1 8.200 1.046" fill="none" stroke="#6b7280" stroke-width="0.12" opacity="0.8"/><path d="M 8.000 0.850 A 0.200 0.200 0 0 1 8.200 1.046" fill="none" stroke="#6b7280" stroke-width="0.12" opacity="0.8"/><path d="M 8.000 0.650 A 0.400 0.400 0 0 1 8.400 1.050" fill="none" stroke="#6b7280" stroke-width="0.12" opacity="0.8"/><path d="M 8.200 2.050 A 0.200 0.200 0 0 1 8.000 2.250" fill="none" stroke="#6b7280" stroke-width="0.12" opacity="0.8"/><circle cx="-6.250" cy="3.810" r="0.250" fill="none" stroke="#e6e9ef" stroke-width="0.12" opacity="1"/><circle cx="8.000" cy="-1.900" r="0.250" fill="none" stroke="#6b7280" stroke-width="0.1"/><rect x="-6.750" y="-0.750" width="1.500" height="1.500" rx="0.750" fill="#c79b5c"/><circle cx="-6.000" cy="0.000" r="0.400" fill="#12151c"/><rect x="-4.750" y="-0.750" width="1.500" height="1.500" rx="0.750" fill="#c79b5c"/><circle cx="-4.000" cy="0.000" r="0.400" fill="#12151c"/><rect x="-2.750" y="-0.750" width="1.500" height="1.500" rx="0.750" fill="#c79b5c"/><circle cx="-2.000" cy="0.000" r="0.400" fill="#12151c"/><rect x="-0.750" y="-0.750" width="1.500" height="1.500" rx="0.750" fill="#c79b5c"/><circle cx="0.000" cy="0.000" r="0.400" fill="#12151c"/><rect x="1.250" y="-0.750" width="1.500" height="1.500" rx="0.750" fill="#c79b5c"/><circle cx="2.000" cy="0.000" r="0.400" fill="#12151c"/><rect x="3.250" y="-0.750" width="1.500" height="1.500" rx="0.750" fill="#c79b5c"/><circle cx="4.000" cy="0.000" r="0.400" fill="#12151c"/><rect x="5.250" y="-0.750" width="1.500" height="1.500" rx="0.750" fill="#c79b5c"/><circle cx="6.000" cy="0.000" r="0.400" fill="#12151c"/></svg>