<svg xmlns="http://www.w3.org/2000/svg" viewBox="-40.75 -5.30 81.49 10.11" preserveAspectRatio="xMidYMid meet" style="width:100%;height:100%"><rect x="-40.75" y="-5.30" width="81.49" height="10.11" fill="#12151c"/><circle cx="-37.897" cy="-4.046" r="0.125" fill="none" stroke="#e6e9ef" stroke-width="0.12" opacity="1"/><circle cx="-37.895" cy="-4.046" r="0.250" fill="none" stroke="#6b7280" stroke-width="0.12" opacity="0.8"/><circle cx="-39.245" cy="-2.032" r="0.250" fill="none" stroke="#6b7280" stroke-width="0.1"/><circle cx="39.245" cy="-2.032" r="0.250" fill="none" stroke="#6b7280" stroke-width="0.1"/><rect x="-37.407" y="-3.811" width="0.305" height="1.450" rx="0.000" fill="#c79b5c"/><rect x="-37.407" y="2.361" width="0.305" height="1.450" rx="0.000" fill="#c79b5c"/><rect x="-36.907" y="-3.811" width="0.305" height="1.450" rx="0.000" fill="#c79b5c"/><rect x="-36.907" y="2.361" width="0.305" height="1.450" rx="0.000" fill="#c79b5c"/><rect x="-36.407" y="-3.811" width="0.305" height="1.450" rx="0.000" fill="#c79b5c"/><rect x="-36.407" y="2.361" width="0.305" height="1.450" rx="0.000" fill="#c79b5c"/><rect x="-35.907" y="-3.811" width="0.305" height="1.450" rx="0.000" fill="#c79b5c"/><rect x="-35.907" y="2.361" width="0.305" height="1.450" rx="0.000" fill="#c79b5c"/><rect x="-35.407" y="-3.811" width="0.305" height="1.450" rx="0.000" fill="#c79b5c"/><rect x="-35.407" y="2.361" width="0.305" height="1.450" rx="0.000" fill="#c79b5c"/><rect x="-34.907" y="-3.811" width="0.305" height="1.450" rx="0.000" fill="#c79b5c"/><rect x="-34.907" y="2.361" width="0.305" height="1.450" rx="0.000" fill="#c79b5c"/><rect x="-34.407" y="-3.811" width="0.305" height="1.450" rx="0.000" fill="#c79b5c"/><rect x="-34.407" y="2.361" width="0.305" height="1.450" rx="0.000" fill="#c79b5c"/><rect x="-33.907" y="-3.811" width="0.305" height="1.450" rx="0.000" fill="#c79b5c"/><rect x="-33.907" y="2.361" width="0.305" height="1.450" rx="0.000" fill="#c79b5c"/><rect x="-33.407" y="-3.811" width="0.305" height="1.450" rx="0.000" fill="#c79b5c"/><rect x="-33.407" y="2.361" width="0.305" height="1.450" rx="0.000" fill="#c79b5c"/><rect x="-32.907" y="-3.811" width="0.305" height="1.450" rx="0.000" fill="#c79b5c"/><rect x="-32.907" y="2.361" width="0.305" height="1.450" rx="0.000" fill="#c79b5c"/><rect x="-32.407" y="-3.811" width="0.305" height="1.450" rx="0.000" fill="#c79b5c"/><rect x="-32.407" y="2.361" width="0.305" height="1.450" rx="0.000" fill="#c79b5c"/><rect x="-31.907" y="-3.811" width="0.305" height="1.450" rx="0.000" fill="#c79b5c"/><rect x="-31.907" y="2.361" width="0.305" height="1.450" rx="0.000" fill="#c79b5c"/><rect x="-31.407" y="-3.811" width="0.305" height="1.450" rx="0.000" fill="#c79b5c"/><rect x="-31.407" y="2.361" width="0.305" height="1.450" rx="0.000" fill="#c79b5c"/><rect x="-30.907" y="-3.811" width="0.305" height="1.450" rx="0.000" fill="#c79b5c"/><rect x="-30.907" y="2.361" width="0.305" height="1.450" rx="0.000" fill="#c79b5c"/><rect x="-30.407" y="-3.811" width="0.305" height="1.450" rx="0.000" fill="#c79b5c"/><rect x="-30.407" y="2.361" width="0.305" height="1.450" rx="0.000" fill="#c79b5c"/><rect x="-29.907" y="-3.811" width="0.305" height="1.450" rx="0.000" fill="#c79b5c"/><rect x="-29.907" y="2.361" width="0.305" height="1.450" rx="0.000" fill="#c79b5c"/><rect x="-29.407" y="-3.811" width="0.305" height="1.450" rx="0.000" fill="#c79b5c"/><rect x="-29.407" y="2.361" width="0.305" height="1.450" rx="0.000" fill="#c79b5c"/><rect x="-28.907" y="-3.811" width="0.305" height="1.450" rx="0.000" fill="#c79b5c"/><rect x="-28.907" y="2.361" width="0.305" height="1.450" rx="0.000" fill="#c79b5c"/><rect x="-28.407" y="-3.811" width="0.305" height="1.450" rx="0.000" fill="#c79b5c"/><rect x="-28.407" y="2.361" width="0.305" height="1.450" rx="0.000" fill="#c79b5c"/><rect x="-27.907" y="-3.811" width="0.305" height="1.450" rx="0.000" fill="#c79b5c"/><rect x="-27.907" y="2.361" width="0.305" height="1.450" rx="0.000" fill="#c79b5c"/><rect x="-27.407" y="-3.811" width="0.305" height="1.450" rx="0.000" fill="#c79b5c"/><rect x="-27.407" y="2.361" width="0.305" height="1.450" rx="0.000" fill="#c79b5c"/><rect x="-26.907" y="-3.811" width="0.305" height="1.450" rx="0.000" fill="#c79b5c"/><rect x="-26.907" y="2.361" width="0.305" height="1.450" rx="0.000" fill="#c79b5c"/><rect x="-26.407" y="-3.811" width="0.305" height="1.450" rx="0.000" fill="#c79b5c"/><rect x="-26.407" y="2.361" width="0.305" height="1.450" rx="0.000" fill="#c79b5c"/><rect x="-25.907" y="-3.811" width="0.305" height="1.450" rx="0.000" fill="#c79b5c"/><rect x="-25.907" y="2.361" width="0.305" height="1.450" rx="0.000" fill="#c79b5c"/><rect x="-25.407" y="-3.811" width="0.305" height="1.450" rx="0.000" fill="#c79b5c"/><rect x="-25.407" y="2.361" width="0.305" height="1.450" rx="0.000" fill="#c79b5c"/><rect x="-24.907" y="-3.811" width="0.305" height="1.450" rx="0.000" fill="#c79b5c"/><rect x="-24.907" y="2.361" width="0.305" height="1.450" rx="0.000" fill="#c79b5c"/><rect x="-24.407" y="-3.811" width="0.305" height="1.450" rx="0.000" fill="#c79b5c"/><rect x="-24.407" y="2.361" width="0.305" height="1.450" rx="0.000" fill="#c79b5c"/><rect x="-23.907" y="-3.811" width="0.305" height="1.450" rx="0.000" fill="#c79b5c"/><rect x="-23.907" y="2.361" width="0.305" height="1.450" rx="0.000" fill="#c79b5c"/><rect x="-23.407" y="-3.811" width="0.305" height="1.450" rx="0.000" fill="#c79b5c"/><rect x="-23.407" y="2.361" width="0.305" height="1.450" rx="0.000" fill="#c79b5c"/><rect x="-22.907" y="-3.811" width="0.305" height="1.450" rx="0.000" fill="#c79b5c"/><rect x="-22.907" y="2.361" width="0.305" height="1.450" rx="0.000" fill="#c79b5c"/><rect x="-17.404" y="-3.811" width="0.305" height="1.450" rx="0.000" fill="#c79b5c"/><rect x="-17.404" y="2.361" width="0.305" height="1.450" rx="0.000" fill="#c79b5c"/><rect x="-16.904" y="-3.811" width="0.305" height="1.450" rx="0.000" fill="#c79b5c"/><rect x="-16.904" y="2.361" width="0.305" height="1.450" rx="0.000" fill="#c79b5c"/><rect x="-16.404" y="-3.811" width="0.305" height="1.450" rx="0.000" fill="#c79b5c"/><rect x="-16.404" y="2.361" width="0.305" height="1.450" rx="0.000" fill="#c79b5c"/><rect x="-15.904" y="-3.811" width="0.305" height="1.450" rx="0.000" fill="#c79b5c"/><rect x="-15.904" y="2.361" width="0.305" height="1.450" rx="0.000" fill="#c79b5c"/><rect x="-15.404" y="-3.811" width="0.305" height="1.450" rx="0.000" fill="#c79b5c"/><rect x="-15.404" y="2.361" width="0.305" height="1.450" rx="0.000" fill="#c79b5c"/><rect x="-14.904" y="-3.811" width="0.305" height="1.450" rx="0.000" fill="#c79b5c"/><rect x="-14.904" y="2.361" width="0.305" height="1.450" rx="0.000" fill="#c79b5c"/><rect x="-14.404" y="-3.811" width="0.305" height="1.450" rx="0.000" fill="#c79b5c"/><rect x="-14.404" y="2.361" width="0.305" height="1.450" rx="0.000" fill="#c79b5c"/><rect x="-13.904" y="-3.811" width="0.305" height="1.450" rx="0.000" fill="#c79b5c"/><rect x="-13.904" y="2.361" width="0.305" height="1.450" rx="0.000" fill="#c79b5c"/><rect x="-13.404" y="-3.811" width="0.305" height="1.450" rx="0.000" fill="#c79b5c"/><rect x="-13.404" y="2.361" width="0.305" height="1.450" rx="0.000" fill="#c79b5c"/><rect x="-12.904" y="-3.811" width="0.305" height="1.450" rx="0.000" fill="#c79b5c"/><rect x="-12.904" y="2.361" width="0.305" height="1.450" rx="0.000" fill="#c79b5c"/><rect x="-12.404" y="-3.811" width="0.305" height="1.450" rx="0.000" fill="#c79b5c"/><rect x="-12.404" y="2.361" width="0.305" height="1.450" rx="0.000" fill="#c79b5c"/><rect x="-11.904" y="-3.811" width="0.305" height="1.450" rx="0.000" fill="#c79b5c"/><rect x="-11.904" y="2.361" width="0.305" height="1.450" rx="0.000" fill="#c79b5c"/><rect x="-11.404" y="-3.811" width="0.305" height="1.450" rx="0.000" fill="#c79b5c"/><rect x="-11.404" y="2.361" width="0.305" height="1.450" rx="0.000" fill="#c79b5c"/><rect x="-10.904" y="-3.811" width="0.305" height="1.450" rx="0.000" fill="#c79b5c"/><rect x="-10.904" y="2.361" width="0.305" height="1.450" rx="0.000" fill="#c79b5c"/><rect x="-10.404" y="-3.811" width="0.305" height="1.450" rx="0.000" fill="#c79b5c"/><rect x="-10.404" y="2.361" width="0.305" height="1.450" rx="0.000" fill="#c79b5c"/><rect x="-9.904" y="-3.811" width="0.305" height="1.450" rx="0.000" fill="#c79b5c"/><rect x="-9.904" y="2.361" width="0.305" height="1.450" rx="0.000" fill="#c79b5c"/><rect x="-9.404" y="-3.811" width="0.305" height="1.450" rx="0.000" fill="#c79b5c"/><rect x="-9.404" y="2.361" width="0.305" height="1.450" rx="0.000" fill="#c79b5c"/><rect x="-8.904" y="-3.811" width="0.305" height="1.450" rx="0.000" fill="#c79b5c"/><rect x="-8.904" y="2.361" width="0.305" height="1.450" rx="0.000" fill="#c79b5c"/><rect x="-8.404" y="-3.811" width="0.305" height="1.450" rx="0.000" fill="#c79b5c"/><rect x="-8.404" y="2.361" width="0.305" height="1.450" rx="0.000" fill="#c79b5c"/><rect x="-7.904" y="-3.811" width="0.305" height="1.450" rx="0.000" fill="#c79b5c"/><rect x="-7.904" y="2.361" width="0.305" height="1.450" rx="0.000" fill="#c79b5c"/><rect x="-7.404" y="-3.811" width="0.305" height="1.450" rx="0.000" fill="#c79b5c"/><rect x="-7.404" y="2.361" width="0.305" height="1.450" rx="0.000" fill="#c79b5c"/><rect x="-6.904" y="-3.811" width="0.305" height="1.450" rx="0.000" fill="#c79b5c"/><rect x="-6.904" y="2.361" width="0.305" height="1.450" rx="0.000" fill="#c79b5c"/><rect x="-6.404" y="-3.811" width="0.305" height="1.450" rx="0.000" fill="#c79b5c"/><rect x="-6.404" y="2.361" width="0.305" height="1.450" rx="0.000" fill="#c79b5c"/><rect x="-5.904" y="-3.811" width="0.305" height="1.450" rx="0.000" fill="#c79b5c"/><rect x="-5.904" y="2.361" width="0.305" height="1.450" rx="0.000" fill="#c79b5c"/><rect x="-5.404" y="-3.811" width="0.305" height="1.450" rx="0.000" fill="#c79b5c"/><rect x="-5.404" y="2.361" width="0.305" height="1.450" rx="0.000" fill="#c79b5c"/><rect x="-4.904" y="-3.811" width="0.305" height="1.450" rx="0.000" fill="#c79b5c"/><rect x="-4.904" y="2.361" width="0.305" height="1.450" rx="0.000" fill="#c79b5c"/><rect x="-4.404" y="-3.811" width="0.305" height="1.450" rx="0.000" fill="#c79b5c"/><rect x="-4.404" y="2.361" width="0.305" height="1.450" rx="0.000" fill="#c79b5c"/><rect x="-3.904" y="-3.811" width="0.305" height="1.450" rx="0.000" fill="#c79b5c"/><rect x="-3.904" y="2.361" width="0.305" height="1.450" rx="0.000" fill="#c79b5c"/><rect x="-3.404" y="-3.811" width="0.305" height="1.450" rx="0.000" fill="#c79b5c"/><rect x="-3.404" y="2.361" width="0.305" height="1.450" rx="0.000" fill="#c79b5c"/><rect x="-2.904" y="-3.811" width="0.305" height="1.450" rx="0.000" fill="#c79b5c"/><rect x="-2.904" y="2.361" width="0.305" height="1.450" rx="0.000" fill="#c79b5c"/><rect x="2.599" y="-3.811" width="0.305" height="1.450" rx="0.000" fill="#c79b5c"/><rect x="2.599" y="2.361" width="0.305" height="1.450" rx="0.000" fill="#c79b5c"/><rect x="3.099" y="-3.811" width="0.305" height="1.450" rx="0.000" fill="#c79b5c"/><rect x="3.099" y="2.361" width="0.305" height="1.450" rx="0.000" fill="#c79b5c"/><rect x="3.599" y="-3.811" width="0.305" height="1.450" rx="0.000" fill="#c79b5c"/><rect x="3.599" y="2.361" width="0.305" height="1.450" rx="0.000" fill="#c79b5c"/><rect x="4.099" y="-3.811" width="0.305" height="1.450" rx="0.000" fill="#c79b5c"/><rect x="4.099" y="2.361" width="0.305" height="1.450" rx="0.000" fill="#c79b5c"/><rect x="4.599" y="-3.811" width="0.305" height="1.450" rx="0.000" fill="#c79b5c"/><rect x="4.599" y="2.361" width="0.305" height="1.450" rx="0.000" fill="#c79b5c"/><rect x="5.099" y="-3.811" width="0.305" height="1.450" rx="0.000" fill="#c79b5c"/><rect x="5.099" y="2.361" width="0.305" height="1.450" rx="0.000" fill="#c79b5c"/><rect x="5.599" y="-3.811" width="0.305" height="1.450" rx="0.000" fill="#c79b5c"/><rect x="5.599" y="2.361" width="0.305" height="1.450" rx="0.000" fill="#c79b5c"/><rect x="6.099" y="-3.811" width="0.305" height="1.450" rx="0.000" fill="#c79b5c"/><rect x="6.099" y="2.361" width="0.305" height="1.450" rx="0.000" fill="#c79b5c"/><rect x="6.599" y="-3.811" width="0.305" height="1.450" rx="0.000" fill="#c79b5c"/><rect x="6.599" y="2.361" width="0.305" height="1.450" rx="0.000" fill="#c79b5c"/><rect x="7.099" y="-3.811" width="0.305" height="1.450" rx="0.000" fill="#c79b5c"/><rect x="7.099" y="2.361" width="0.305" height="1.450" rx="0.000" fill="#c79b5c"/><rect x="7.599" y="-3.811" width="0.305" height="1.450" rx="0.000" fill="#c79b5c"/><rect x="7.599" y="2.361" width="0.305" height="1.450" rx="0.000" fill="#c79b5c"/><rect x="8.099" y="-3.811" width="0.305" height="1.450" rx="0.000" fill="#c79b5c"/><rect x="8.099" y="2.361" width="0.305" height="1.450" rx="0.000" fill="#c79b5c"/><rect x="8.599" y="-3.811" width="0.305" height="1.450" rx="0.000" fill="#c79b5c"/><rect x="8.599" y="2.361" width="0.305" height="1.450" rx="0.000" fill="#c79b5c"/><rect x="9.099" y="-3.811" width="0.305" height="1.450" rx="0.000" fill="#c79b5c"/><rect x="9.099" y="2.361" width="0.305" height="1.450" rx="0.000" fill="#c79b5c"/><rect x="9.599" y="-3.811" width="0.305" height="1.450" rx="0.000" fill="#c79b5c"/><rect x="9.599" y="2.361" width="0.305" height="1.450" rx="0.000" fill="#c79b5c"/><rect x="10.099" y="-3.811" width="0.305" height="1.450" rx="0.000" fill="#c79b5c"/><rect x="10.099" y="2.361" width="0.305" height="1.450" rx="0.000" fill="#c79b5c"/><rect x="10.599" y="-3.811" width="0.305" height="1.450" rx="0.000" fill="#c79b5c"/><rect x="10.599" y="2.361" width="0.305" height="1.450" rx="0.000" fill="#c79b5c"/><rect x="11.099" y="-3.811" width="0.305" height="1.450" rx="0.000" fill="#c79b5c"/><rect x="11.099" y="2.361" width="0.305" height="1.450" rx="0.000" fill="#c79b5c"/><rect x="11.599" y="-3.811" width="0.305" height="1.450" rx="0.000" fill="#c79b5c"/><rect x="11.599" y="2.361" width="0.305" height="1.450" rx="0.000" fill="#c79b5c"/><rect x="12.099" y="-3.811" width="0.305" height="1.450" rx="0.000" fill="#c79b5c"/><rect x="12.099" y="2.361" width="0.305" height="1.450" rx="0.000" fill="#c79b5c"/><rect x="12.599" y="-3.811" width="0.305" height="1.450" rx="0.000" fill="#c79b5c"/><rect x="12.599" y="2.361" width="0.305" height="1.450" rx="0.000" fill="#c79b5c"/><rect x="13.099" y="-3.811" width="0.305" height="1.450" rx="0.000" fill="#c79b5c"/><rect x="13.099" y="2.361" width="0.305" height="1.450" rx="0.000" fill="#c79b5c"/><rect x="13.599" y="-3.811" width="0.305" height="1.450" rx="0.000" fill="#c79b5c"/><rect x="13.599" y="2.361" width="0.305" height="1.450" rx="0.000" fill="#c79b5c"/><rect x="14.099" y="-3.811" width="0.305" height="1.450" rx="0.000" fill="#c79b5c"/><rect x="14.099" y="2.361" width="0.305" height="1.450" rx="0.000" fill="#c79b5c"/><rect x="14.599" y="-3.811" width="0.305" height="1.450" rx="0.000" fill="#c79b5c"/><rect x="14.599" y="2.361" width="0.305" height="1.450" rx="0.000" fill="#c79b5c"/><rect x="15.099" y="-3.811" width="0.305" height="1.450" rx="0.000" fill="#c79b5c"/><rect x="15.099" y="2.361" width="0.305" height="1.450" rx="0.000" fill="#c79b5c"/><rect x="15.599" y="-3.811" width="0.305" height="1.450" rx="0.000" fill="#c79b5c"/><rect x="15.599" y="2.361" width="0.305" height="1.450" rx="0.000" fill="#c79b5c"/><rect x="16.099" y="-3.811" width="0.305" height="1.450" rx="0.000" fill="#c79b5c"/><rect x="16.099" y="2.361" width="0.305" height="1.450" rx="0.000" fill="#c79b5c"/><rect x="16.599" y="-3.811" width="0.305" height="1.450" rx="0.000" fill="#c79b5c"/><rect x="16.599" y="2.361" width="0.305" height="1.450" rx="0.000" fill="#c79b5c"/><rect x="17.099" y="-3.811" width="0.305" height="1.450" rx="0.000" fill="#c79b5c"/><rect x="17.099" y="2.361" width="0.305" height="1.450" rx="0.000" fill="#c79b5c"/><rect x="22.602" y="-3.811" width="0.305" height="1.450" rx="0.000" fill="#c79b5c"/><rect x="22.602" y="2.361" width="0.305" height="1.450" rx="0.000" fill="#c79b5c"/><rect x="23.102" y="-3.811" width="0.305" height="1.450" rx="0.000" fill="#c79b5c"/><rect x="23.102" y="2.361" width="0.305" height="1.450" rx="0.000" fill="#c79b5c"/><rect x="23.602" y="-3.811" width="0.305" height="1.450" rx="0.000" fill="#c79b5c"/><rect x="23.602" y="2.361" width="0.305" height="1.450" rx="0.000" fill="#c79b5c"/><rect x="24.102" y="-3.811" width="0.305" height="1.450" rx="0.000" fill="#c79b5c"/><rect x="24.102" y="2.361" width="0.305" height="1.450" rx="0.000" fill="#c79b5c"/><rect x="24.602" y="-3.811" width="0.305" height="1.450" rx="0.000" fill="#c79b5c"/><rect x="24.602" y="2.361" width="0.305" height="1.450" rx="0.000" fill="#c79b5c"/><rect x="25.102" y="-3.811" width="0.305" height="1.450" rx="0.000" fill="#c79b5c"/><rect x="25.102" y="2.361" width="0.305" height="1.450" rx="0.000" fill="#c79b5c"/><rect x="25.602" y="-3.811" width="0.305" height="1.450" rx="0.000" fill="#c79b5c"/><rect x="25.602" y="2.361" width="0.305" height="1.450" rx="0.000" fill="#c79b5c"/><rect x="26.102" y="-3.811" width="0.305" height="1.450" rx="0.000" fill="#c79b5c"/><rect x="26.102" y="2.361" width="0.305" height="1.450" rx="0.000" fill="#c79b5c"/><rect x="26.602" y="-3.811" width="0.305" height="1.450" rx="0.000" fill="#c79b5c"/><rect x="26.602" y="2.361" width="0.305" height="1.450" rx="0.000" fill="#c79b5c"/><rect x="27.102" y="-3.811" width="0.305" height="1.450" rx="0.000" fill="#c79b5c"/><rect x="27.102" y="2.361" width="0.305" height="1.450" rx="0.000" fill="#c79b5c"/><rect x="27.602" y="-3.811" width="0.305" height="1.450" rx="0.000" fill="#c79b5c"/><rect x="27.602" y="2.361" width="0.305" height="1.450" rx="0.000" fill="#c79b5c"/><rect x="28.102" y="-3.811" width="0.305" height="1.450" rx="0.000" fill="#c79b5c"/><rect x="28.102" y="2.361" width="0.305" height="1.450" rx="0.000" fill="#c79b5c"/><rect x="28.602" y="-3.811" width="0.305" height="1.450" rx="0.000" fill="#c79b5c"/><rect x="28.602" y="2.361" width="0.305" height="1.450" rx="0.000" fill="#c79b5c"/><rect x="29.102" y="-3.811" width="0.305" height="1.450" rx="0.000" fill="#c79b5c"/><rect x="29.102" y="2.361" width="0.305" height="1.450" rx="0.000" fill="#c79b5c"/><rect x="29.602" y="-3.811" width="0.305" height="1.450" rx="0.000" fill="#c79b5c"/><rect x="29.602" y="2.361" width="0.305" height="1.450" rx="0.000" fill="#c79b5c"/><rect x="30.102" y="-3.811" width="0.305" height="1.450" rx="0.000" fill="#c79b5c"/><rect x="30.102" y="2.361" width="0.305" height="1.450" rx="0.000" fill="#c79b5c"/><rect x="30.602" y="-3.811" width="0.305" height="1.450" rx="0.000" fill="#c79b5c"/><rect x="30.602" y="2.361" width="0.305" height="1.450" rx="0.000" fill="#c79b5c"/><rect x="31.102" y="-3.811" width="0.305" height="1.450" rx="0.000" fill="#c79b5c"/><rect x="31.102" y="2.361" width="0.305" height="1.450" rx="0.000" fill="#c79b5c"/><rect x="31.602" y="-3.811" width="0.305" height="1.450" rx="0.000" fill="#c79b5c"/><rect x="31.602" y="2.361" width="0.305" height="1.450" rx="0.000" fill="#c79b5c"/><rect x="32.102" y="-3.811" width="0.305" height="1.450" rx="0.000" fill="#c79b5c"/><rect x="32.102" y="2.361" width="0.305" height="1.450" rx="0.000" fill="#c79b5c"/><rect x="32.602" y="-3.811" width="0.305" height="1.450" rx="0.000" fill="#c79b5c"/><rect x="32.602" y="2.361" width="0.305" height="1.450" rx="0.000" fill="#c79b5c"/><rect x="33.102" y="-3.811" width="0.305" height="1.450" rx="0.000" fill="#c79b5c"/><rect x="33.102" y="2.361" width="0.305" height="1.450" rx="0.000" fill="#c79b5c"/><rect x="33.602" y="-3.811" width="0.305" height="1.450" rx="0.000" fill="#c79b5c"/><rect x="33.602" y="2.361" width="0.305" height="1.450" rx="0.000" fill="#c79b5c"/><rect x="34.102" y="-3.811" width="0.305" height="1.450" rx="0.000" fill="#c79b5c"/><rect x="34.102" y="2.361" width="0.305" height="1.450" rx="0.000" fill="#c79b5c"/><rect x="34.602" y="-3.811" width="0.305" height="1.450" rx="0.000" fill="#c79b5c"/><rect x="34.602" y="2.361" width="0.305" height="1.450" rx="0.000" fill="#c79b5c"/><rect x="35.102" y="-3.811" width="0.305" height="1.450" rx="0.000" fill="#c79b5c"/><rect x="35.102" y="2.361" width="0.305" height="1.450" rx="0.000" fill="#c79b5c"/><rect x="35.602" y="-3.811" width="0.305" height="1.450" rx="0.000" fill="#c79b5c"/><rect x="35.602" y="2.361" width="0.305" height="1.450" rx="0.000" fill="#c79b5c"/><rect x="36.102" y="-3.811" width="0.305" height="1.450" rx="0.000" fill="#c79b5c"/><rect x="36.102" y="2.361" width="0.305" height="1.450" rx="0.000" fill="#c79b5c"/><rect x="36.602" y="-3.811" width="0.305" height="1.450" rx="0.000" fill="#c79b5c"/><rect x="36.602" y="2.361" width="0.305" height="1.450" rx="0.000" fill="#c79b5c"/><rect x="37.102" y="-3.811" width="0.305" height="1.450" rx="0.000" fill="#c79b5c"/><rect x="37.102" y="2.361" width="0.305" height="1.450" rx="0.000" fill="#c79b5c"/><rect x="-39.720" y="-0.320" width="2.540" height="0.640" rx="0.000" fill="#c79b5c"/><rect x="-35.530" y="-0.320" width="4.700" height="0.640" rx="0.000" fill="#c79b5c"/><rect x="-29.180" y="-0.320" width="4.700" height="0.640" rx="0.000" fill="#c79b5c"/><rect x="-22.830" y="-0.320" width="2.540" height="0.640" rx="0.000" fill="#c79b5c"/><rect x="-19.717" y="-0.320" width="2.540" height="0.640" rx="0.000" fill="#c79b5c"/><rect x="-15.527" y="-0.320" width="4.700" height="0.640" rx="0.000" fill="#c79b5c"/><rect x="-9.177" y="-0.320" width="4.700" height="0.640" rx="0.000" fill="#c79b5c"/><rect x="-2.827" y="-0.320" width="2.540" height="0.640" rx="0.000" fill="#c79b5c"/><rect x="0.286" y="-0.320" width="2.540" height="0.640" rx="0.000" fill="#c79b5c"/><rect x="4.476" y="-0.320" width="4.700" height="0.640" rx="0.000" fill="#c79b5c"/><rect x="10.827" y="-0.320" width="4.700" height="0.640" rx="0.000" fill="#c79b5c"/><rect x="17.177" y="-0.320" width="2.540" height="0.640" rx="0.000" fill="#c79b5c"/><rect x="20.290" y="-0.320" width="2.540" height="0.640" rx="0.000" fill="#c79b5c"/><rect x="24.480" y="-0.320" width="4.700" height="0.640" rx="0.000" fill="#c79b5c"/><rect x="30.830" y="-0.320" width="4.700" height="0.640" rx="0.000" fill="#c79b5c"/><rect x="37.180" y="-0.320" width="2.540" height="0.640" rx="0.000" fill="#c79b5c"/></svg>