<svg xmlns="http://www.w3.org/2000/svg" viewBox="-10.82 -11.65 20.77 23.30" preserveAspectRatio="xMidYMid meet" style="width:100%;height:100%"><rect x="-10.82" y="-11.65" width="20.77" height="23.30" fill="#12151c"/><path d="M -7.950 -10.150 A 0.500 0.500 0 0 1 -7.450 -10.650" fill="none" stroke="#e6e9ef" stroke-width="0.12" opacity="1"/><path d="M -7.450 10.650 A 0.500 0.500 0 0 1 -7.950 10.150" fill="none" stroke="#e6e9ef" stroke-width="0.12" opacity="1"/><path d="M 7.450 -10.650 A 0.500 0.500 0 0 1 7.950 -10.150" fill="none" stroke="#e6e9ef" stroke-width="0.12" opacity="1"/><path d="M 7.950 10.150 A 0.500 0.500 0 0 1 7.450 10.650" fill="none" stroke="#e6e9ef" stroke-width="0.12" opacity="1"/><path d="M -8.500 -8.900 A 0.250 0.250 0 0 1 -8.500 -8.400" fill="none" stroke="#6b7280" stroke-width="0.12" opacity="0.8"/><path d="M -8.500 -7.800 A 0.250 0.250 0 0 1 -8.500 -7.300" fill="none" stroke="#6b7280" stroke-width="0.12" opacity="0.8"/><path d="M -8.500 -6.700 A 0.250 0.250 0 0 1 -8.500 -6.200" fill="none" stroke="#6b7280" stroke-width="0.12" opacity="0.8"/><path d="M -8.500 -5.600 A 0.250 0.250 0 1 1 -8.500 -5.100" fill="none" stroke="#6b7280" stroke-width="0.12" opacity="0.8"/><path d="M -8.500 -4.500 A 0.250 0.250 0 0 1 -8.500 -4.000" fill="none" stroke="#6b7280" stroke-width="0.12" opacity="0.8"/><path d="M -8.500 -3.400 A 0.250 0.250 0 0 1 -8.500 -2.900" fill="none" stroke="#6b7280" stroke-width="0.12" opacity="0.8"/><path d="M -8.500 -2.300 A 0.250 0.250 0 1 1 -8.500 -1.800" fill="none" stroke="#6b7280" stroke-width="0.12" opacity="0.8"/><path d="M -8.500 -1.200 A 0.250 0.250 0 1 1 -8.500 -0.700" fill="none" stroke="#6b7280" stroke-width="0.12" opacity="0.8"/><path d="M -8.500 2.600 A 0.250 0.250 0 0 1 -8.500 3.100" fill="none" stroke="#6b7280" stroke-width="0.12" opacity="0.8"/><path d="M -8.500 3.700 A 0.250 0.250 0 1 1 -8.500 4.200" fill="none" stroke="#6b7280" stroke-width="0.12" opacity="0.8"/><path d="M -8.500 4.800 A 0.250 0.250 0 0 1 -8.500 5.300" fill="none" stroke="#6b7280" stroke-width="0.12" opacity="0.8"/><path d="M -8.500 5.900 A 0.250 0.250 0 0 1 -8.500 6.400" fill="none" stroke="#6b7280" stroke-width="0.12" opacity="0.8"/><path d="M -8.500 7.000 A 0.250 0.250 0 0 1 -8.500 7.500" fill="none" stroke="#6b7280" stroke-width="0.12" opacity="0.8"/><path d="M -8.500 8.100 A 0.250 0.250 0 0 1 -8.500 8.600" fill="none" stroke="#6b7280" stroke-width="0.12" opacity="0.8"/><path d="M -7.950 -10.150 A 0.500 0.500 0 0 1 -7.450 -10.650" fill="none" stroke="#6b7280" stroke-width="0.12" opacity="0.8"/><path d="M -7.450 10.650 A 0.500 0.500 0 0 1 -7.950 10.150" fill="none" stroke="#6b7280" stroke-width="0.12" opacity="0.8"/><path d="M 7.450 -10.650 A 0.500 0.500 0 0 1 7.950 -10.150" fill="none" stroke="#6b7280" stroke-width="0.12" opacity="0.8"/><path d="M 7.950 10.150 A 0.500 0.500 0 0 1 7.450 10.650" fill="none" stroke="#6b7280" stroke-width="0.12" opacity="0.8"/><path d="M 8.500 -8.400 A 0.250 0.250 0 0 1 8.500 -8.900" fill="none" stroke="#6b7280" stroke-width="0.12" opacity="0.8"/><path d="M 8.500 -7.300 A 0.250 0.250 0 0 1 8.500 -7.800" fill="none" stroke="#6b7280" stroke-width="0.12" opacity="0.8"/><path d="M 8.500 -6.200 A 0.250 0.250 0 0 1 8.500 -6.700" fill="none" stroke="#6b7280" stroke-width="0.12" opacity="0.8"/><path d="M 8.500 -5.100 A 0.250 0.250 0 1 1 8.500 -5.600" fill="none" stroke="#6b7280" stroke-width="0.12" opacity="0.8"/><path d="M 8.500 -4.000 A 0.250 0.250 0 0 1 8.500 -4.500" fill="none" stroke="#6b7280" stroke-width="0.12" opacity="0.8"/><path d="M 8.500 -2.900 A 0.250 0.250 0 0 1 8.500 -3.400" fill="none" stroke="#6b7280" stroke-width="0.12" opacity="0.8"/><path d="M 8.500 -1.800 A 0.250 0.250 0 1 1 8.500 -2.300" fill="none" stroke="#6b7280" stroke-width="0.12" opacity="0.8"/><path d="M 8.500 -0.700 A 0.250 0.250 0 1 1 8.500 -1.200" fill="none" stroke="#6b7280" stroke-width="0.12" opacity="0.8"/><path d="M 8.500 3.100 A 0.250 0.250 0 0 1 8.500 2.600" fill="none" stroke="#6b7280" stroke-width="0.12" opacity="0.8"/><path d="M 8.500 4.200 A 0.250 0.250 0 1 1 8.500 3.700" fill="none" stroke="#6b7280" stroke-width="0.12" opacity="0.8"/><path d="M 8.500 5.300 A 0.250 0.250 0 0 1 8.500 4.800" fill="none" stroke="#6b7280" stroke-width="0.12" opacity="0.8"/><path d="M 8.500 6.400 A 0.250 0.250 0 0 1 8.500 5.900" fill="none" stroke="#6b7280" stroke-width="0.12" opacity="0.8"/><path d="M 8.500 7.500 A 0.250 0.250 0 0 1 8.500 7.000" fill="none" stroke="#6b7280" stroke-width="0.12" opacity="0.8"/><path d="M 8.500 8.600 A 0.250 0.250 0 0 1 8.500 8.100" fill="none" stroke="#6b7280" stroke-width="0.12" opacity="0.8"/><circle cx="-9.700" cy="-8.650" r="0.125" fill="none" stroke="#e6e9ef" stroke-width="0.12" opacity="1"/><rect x="-8.950" y="-9.100" width="1.500" height="0.900" rx="0.000" fill="#c79b5c"/><rect x="-8.950" y="-8.000" width="1.500" height="0.900" rx="0.000" fill="#c79b5c"/><rect x="-8.950" y="-6.900" width="1.500" height="0.900" rx="0.000" fill="#c79b5c"/><rect x="-8.950" y="-5.800" width="1.500" height="0.900" rx="0.000" fill="#c79b5c"/><rect x="-8.950" y="-4.700" width="1.500" height="0.900" rx="0.000" fill="#c79b5c"/><rect x="-8.950" y="-3.600" width="1.500" height="0.900" rx="0.000" fill="#c79b5c"/><rect x="-8.950" y="-2.500" width="1.500" height="0.900" rx="0.000" fill="#c79b5c"/><rect x="-8.950" y="-1.400" width="1.500" height="0.900" rx="0.000" fill="#c79b5c"/><rect x="-8.950" y="2.400" width="1.500" height="0.900" rx="0.000" fill="#c79b5c"/><rect x="-8.950" y="3.500" width="1.500" height="0.900" rx="0.000" fill="#c79b5c"/><rect x="-8.950" y="4.600" width="1.500" height="0.900" rx="0.000" fill="#c79b5c"/><rect x="-8.950" y="5.700" width="1.500" height="0.900" rx="0.000" fill="#c79b5c"/><rect x="-8.950" y="6.800" width="1.500" height="0.900" rx="0.000" fill="#c79b5c"/><rect x="-8.950" y="7.900" width="1.500" height="0.900" rx="0.000" fill="#c79b5c"/><rect x="7.450" y="7.900" width="1.500" height="0.900" rx="0.000" fill="#c79b5c"/><rect x="7.450" y="6.800" width="1.500" height="0.900" rx="0.000" fill="#c79b5c"/><rect x="7.450" y="5.700" width="1.500" height="0.900" rx="0.000" fill="#c79b5c"/><rect x="7.450" y="4.600" width="1.500" height="0.900" rx="0.000" fill="#c79b5c"/><rect x="7.450" y="3.500" width="1.500" height="0.900" rx="0.000" fill="#c79b5c"/><rect x="7.450" y="2.400" width="1.500" height="0.900" rx="0.000" fill="#c79b5c"/><rect x="7.450" y="-1.400" width="1.500" height="0.900" rx="0.000" fill="#c79b5c"/><rect x="7.450" y="-2.500" width="1.500" height="0.900" rx="0.000" fill="#c79b5c"/><rect x="7.450" y="-3.600" width="1.500" height="0.900" rx="0.000" fill="#c79b5c"/><rect x="7.450" y="-4.700" width="1.500" height="0.900" rx="0.000" fill="#c79b5c"/><rect x="7.450" y="-5.800" width="1.500" height="0.900" rx="0.000" fill="#c79b5c"/><rect x="7.450" y="-6.900" width="1.500" height="0.900" rx="0.000" fill="#c79b5c"/><rect x="7.450" y="-8.000" width="1.500" height="0.900" rx="0.000" fill="#c79b5c"/><rect x="7.450" y="-9.100" width="1.500" height="0.900" rx="0.000" fill="#c79b5c"/><rect x="-4.500" y="-6.500" width="1.000" height="1.000" rx="0.000" fill="#c79b5c"/><rect x="-4.500" y="-4.500" width="1.000" height="1.000" rx="0.000" fill="#c79b5c"/><rect x="-4.500" y="-2.500" width="1.000" height="1.000" rx="0.000" fill="#c79b5c"/><rect x="-4.500" y="-0.500" width="1.000" height="1.000" rx="0.000" fill="#c79b5c"/><rect x="-4.500" y="1.500" width="1.000" height="1.000" rx="0.000" fill="#c79b5c"/><rect x="-4.500" y="3.500" width="1.000" height="1.000" rx="0.000" fill="#c79b5c"/><rect x="-4.500" y="5.500" width="1.000" height="1.000" rx="0.000" fill="#c79b5c"/><rect x="-2.500" y="-6.500" width="1.000" height="1.000" rx="0.000" fill="#c79b5c"/><rect x="-2.500" y="-4.500" width="1.000" height="1.000" rx="0.000" fill="#c79b5c"/><rect x="-2.500" y="-2.500" width="1.000" height="1.000" rx="0.000" fill="#c79b5c"/><rect x="-2.500" y="-0.500" width="1.000" height="1.000" rx="0.000" fill="#c79b5c"/><rect x="-2.500" y="1.500" width="1.000" height="1.000" rx="0.000" fill="#c79b5c"/><rect x="-2.500" y="3.500" width="1.000" height="1.000" rx="0.000" fill="#c79b5c"/><rect x="-2.500" y="5.500" width="1.000" height="1.000" rx="0.000" fill="#c79b5c"/><rect x="-0.500" y="-6.500" width="1.000" height="1.000" rx="0.000" fill="#c79b5c"/><rect x="-0.500" y="-4.500" width="1.000" height="1.000" rx="0.000" fill="#c79b5c"/><rect x="-0.500" y="-2.500" width="1.000" height="1.000" rx="0.000" fill="#c79b5c"/><rect x="-0.500" y="-0.500" width="1.000" height="1.000" rx="0.000" fill="#c79b5c"/><rect x="-0.500" y="1.500" width="1.000" height="1.000" rx="0.000" fill="#c79b5c"/><rect x="-0.500" y="3.500" width="1.000" height="1.000" rx="0.000" fill="#c79b5c"/><rect x="-0.500" y="5.500" width="1.000" height="1.000" rx="0.000" fill="#c79b5c"/><rect x="1.500" y="-6.500" width="1.000" height="1.000" rx="0.000" fill="#c79b5c"/><rect x="1.500" y="-4.500" width="1.000" height="1.000" rx="0.000" fill="#c79b5c"/><rect x="1.500" y="-2.500" width="1.000" height="1.000" rx="0.000" fill="#c79b5c"/><rect x="1.500" y="-0.500" width="1.000" height="1.000" rx="0.000" fill="#c79b5c"/><rect x="1.500" y="1.500" width="1.000" height="1.000" rx="0.000" fill="#c79b5c"/><rect x="1.500" y="3.500" width="1.000" height="1.000" rx="0.000" fill="#c79b5c"/><rect x="1.500" y="5.500" width="1.000" height="1.000" rx="0.000" fill="#c79b5c"/><rect x="3.500" y="-6.500" width="1.000" height="1.000" rx="0.000" fill="#c79b5c"/><rect x="3.500" y="-4.500" width="1.000" height="1.000" rx="0.000" fill="#c79b5c"/><rect x="3.500" y="-2.500" width="1.000" height="1.000" rx="0.000" fill="#c79b5c"/><rect x="3.500" y="-0.500" width="1.000" height="1.000" rx="0.000" fill="#c79b5c"/><rect x="3.500" y="1.500" width="1.000" height="1.000" rx="0.000" fill="#c79b5c"/><rect x="3.500" y="3.500" width="1.000" height="1.000" rx="0.000" fill="#c79b5c"/><rect x="3.500" y="5.500" width="1.000" height="1.000" rx="0.000" fill="#c79b5c"/></svg>