<svg xmlns="http://www.w3.org/2000/svg" viewBox="-6.58 -1.50 33.48 30.94" preserveAspectRatio="xMidYMid meet" style="width:100%;height:100%"><rect x="-6.58" y="-1.50" width="33.48" height="30.94" fill="#12151c"/><rect x="8.763" y="10.033" width="0.508" height="5.334" fill="#1e222b" stroke="#4ea1ff" stroke-width="0.25"/><rect x="0.000" y="-0.000" width="20.320" height="27.940" fill="#1e222b" stroke="#4ea1ff" stroke-width="0.25"/><polyline points="6.604,10.033 6.604,12.573" fill="none" stroke="#4ea1ff" stroke-width="0.25" stroke-linejoin="round"/><polyline points="6.604,18.288 6.604,13.843" fill="none" stroke="#4ea1ff" stroke-width="0.25" stroke-linejoin="round"/><polyline points="7.239,14.986 5.969,14.986 6.604,16.256 7.239,14.986" fill="#1e222b" stroke="#4ea1ff" stroke-width="0.25" stroke-linejoin="round"/><polyline points="7.874,16.510 8.382,16.510" fill="none" stroke="#4ea1ff" stroke-width="0.25" stroke-linejoin="round"/><polyline points="8.382,15.875 9.652,17.145" fill="none" stroke="#4ea1ff" stroke-width="0.25" stroke-linejoin="round"/><polyline points="8.382,15.875 9.652,15.875 8.382,17.145 8.382,15.875" fill="#1e222b" stroke="#4ea1ff" stroke-width="0.25" stroke-linejoin="round"/><polyline points="9.017,20.193 9.017,17.145" fill="none" stroke="#4ea1ff" stroke-width="0.25" stroke-linejoin="round"/><polyline points="9.652,15.875 9.652,17.145 8.382,17.145" fill="none" stroke="#4ea1ff" stroke-width="0.25" stroke-linejoin="round"/><polyline points="9.652,16.510 10.160,16.510" fill="none" stroke="#4ea1ff" stroke-width="0.25" stroke-linejoin="round"/><polyline points="9.906,18.034 9.906,22.606" fill="none" stroke="#4ea1ff" stroke-width="0.25" stroke-linejoin="round"/><polyline points="9.906,20.193 9.017,20.193" fill="none" stroke="#4ea1ff" stroke-width="0.25" stroke-linejoin="round"/><polyline points="9.906,22.606 12.954,20.320" fill="none" stroke="#4ea1ff" stroke-width="0.25" stroke-linejoin="round"/><polyline points="10.287,20.320 11.557,20.320" fill="none" stroke="#4ea1ff" stroke-width="0.25" stroke-linejoin="round"/><polyline points="10.795,10.160 14.732,10.160" fill="none" stroke="#4ea1ff" stroke-width="0.25" stroke-linejoin="round"/><polyline points="10.922,19.558 10.922,19.304" fill="none" stroke="#4ea1ff" stroke-width="0.25" stroke-linejoin="round"/><polyline points="10.922,21.082 10.922,21.336" fill="none" stroke="#4ea1ff" stroke-width="0.25" stroke-linejoin="round"/><polyline points="12.827,20.320 13.462,20.320 13.462,15.240 10.668,15.240" fill="none" stroke="#4ea1ff" stroke-width="0.25" stroke-linejoin="round"/><polyline points="12.954,20.320 9.906,18.034" fill="none" stroke="#4ea1ff" stroke-width="0.25" stroke-linejoin="round"/><polyline points="14.732,18.796 14.732,10.160" fill="none" stroke="#4ea1ff" stroke-width="0.25" stroke-linejoin="round"/><polyline points="14.732,21.844 14.732,25.400" fill="none" stroke="#4ea1ff" stroke-width="0.25" stroke-linejoin="round"/><polyline points="14.732,25.400 20.320,25.400" fill="none" stroke="#4ea1ff" stroke-width="0.25" stroke-linejoin="round"/><polyline points="15.494,18.034 15.494,22.606" fill="none" stroke="#4ea1ff" stroke-width="0.25" stroke-linejoin="round"/><polyline points="15.494,18.796 14.732,18.796" fill="none" stroke="#4ea1ff" stroke-width="0.25" stroke-linejoin="round"/><polyline points="15.494,21.844 14.732,21.844" fill="none" stroke="#4ea1ff" stroke-width="0.25" stroke-linejoin="round"/><polyline points="15.494,22.606 18.542,20.320" fill="none" stroke="#4ea1ff" stroke-width="0.25" stroke-linejoin="round"/><polyline points="16.002,14.732 16.002,15.748" fill="none" stroke="#4ea1ff" stroke-width="0.25" stroke-linejoin="round"/><polyline points="16.002,15.240 14.732,15.240" fill="none" stroke="#4ea1ff" stroke-width="0.25" stroke-linejoin="round"/><polyline points="16.002,15.748 18.034,15.748" fill="none" stroke="#4ea1ff" stroke-width="0.25" stroke-linejoin="round"/><polyline points="18.034,14.732 16.002,14.732" fill="none" stroke="#4ea1ff" stroke-width="0.25" stroke-linejoin="round"/><polyline points="18.034,15.240 19.304,15.240" fill="none" stroke="#4ea1ff" stroke-width="0.25" stroke-linejoin="round"/><polyline points="18.034,15.748 18.034,14.732" fill="none" stroke="#4ea1ff" stroke-width="0.25" stroke-linejoin="round"/><polyline points="18.542,20.320 15.494,18.034" fill="none" stroke="#4ea1ff" stroke-width="0.25" stroke-linejoin="round"/><polyline points="19.304,20.320 18.542,20.320" fill="none" stroke="#4ea1ff" stroke-width="0.25" stroke-linejoin="round"/><polyline points="19.304,20.320 19.304,15.240" fill="none" stroke="#4ea1ff" stroke-width="0.25" stroke-linejoin="round"/><polyline points="20.320,20.320 19.304,20.320" fill="none" stroke="#4ea1ff" stroke-width="0.25" stroke-linejoin="round"/><circle cx="14.732" cy="15.240" r="0.254" fill="none" stroke="#4ea1ff" stroke-width="0.25"/><circle cx="19.304" cy="20.320" r="0.254" fill="none" stroke="#4ea1ff" stroke-width="0.25"/><path d="M 6.604 12.573 A 0.635 0.635 0 1 1 6.604 13.843" fill="none" stroke="#4ea1ff" stroke-width="0.25"/><path d="M 10.795 11.430 A 0.635 0.635 0 0 1 10.795 10.160" fill="none" stroke="#4ea1ff" stroke-width="0.25"/><path d="M 10.795 12.700 A 0.635 0.635 0 0 1 10.795 11.430" fill="none" stroke="#4ea1ff" stroke-width="0.25"/><path d="M 10.795 13.970 A 0.635 0.635 0 0 1 10.795 12.700" fill="none" stroke="#4ea1ff" stroke-width="0.25"/><path d="M 10.795 15.240 A 0.635 0.635 0 0 1 10.795 13.970" fill="none" stroke="#4ea1ff" stroke-width="0.25"/><line x1="-5.080" y1="5.080" x2="0.000" y2="5.080" stroke="#e6e9ef" stroke-width="0.2"/><circle cx="-5.080" cy="5.080" r="0.4" fill="#4ea1ff"/><text x="0.500" y="5.430" fill="#e6e9ef" font-size="1.1" text-anchor="start" font-family="sans-serif">IN1</text><text x="-0.300" y="4.730" fill="#9aa3b2" font-size="0.9" text-anchor="end" font-family="sans-serif">1</text><line x1="-5.080" y1="7.620" x2="0.000" y2="7.620" stroke="#e6e9ef" stroke-width="0.2"/><circle cx="-5.080" cy="7.620" r="0.4" fill="#4ea1ff"/><text x="0.500" y="7.970" fill="#e6e9ef" font-size="1.1" text-anchor="start" font-family="sans-serif">IN2</text><text x="-0.300" y="7.270" fill="#9aa3b2" font-size="0.9" text-anchor="end" font-family="sans-serif">2</text><line x1="-5.080" y1="10.160" x2="0.000" y2="10.160" stroke="#e6e9ef" stroke-width="0.2"/><circle cx="-5.080" cy="10.160" r="0.4" fill="#4ea1ff"/><text x="0.500" y="10.510" fill="#e6e9ef" font-size="1.1" text-anchor="start" font-family="sans-serif">IN3</text><text x="-0.300" y="9.810" fill="#9aa3b2" font-size="0.9" text-anchor="end" font-family="sans-serif">3</text><line x1="-5.080" y1="20.320" x2="0.000" y2="20.320" stroke="#e6e9ef" stroke-width="0.2"/><circle cx="-5.080" cy="20.320" r="0.4" fill="#4ea1ff"/><text x="0.500" y="20.670" fill="#e6e9ef" font-size="1.1" text-anchor="start" font-family="sans-serif">OUT3</text><text x="-0.300" y="19.970" fill="#9aa3b2" font-size="0.9" text-anchor="end" font-family="sans-serif">4</text><line x1="-5.080" y1="22.860" x2="0.000" y2="22.860" stroke="#e6e9ef" stroke-width="0.2"/><circle cx="-5.080" cy="22.860" r="0.4" fill="#4ea1ff"/><text x="0.500" y="23.210" fill="#e6e9ef" font-size="1.1" text-anchor="start" font-family="sans-serif">OUT2</text><text x="-0.300" y="22.510" fill="#9aa3b2" font-size="0.9" text-anchor="end" font-family="sans-serif">5</text><line x1="-5.080" y1="25.400" x2="0.000" y2="25.400" stroke="#e6e9ef" stroke-width="0.2"/><circle cx="-5.080" cy="25.400" r="0.4" fill="#4ea1ff"/><text x="0.500" y="25.750" fill="#e6e9ef" font-size="1.1" text-anchor="start" font-family="sans-serif">OUT1</text><text x="-0.300" y="25.050" fill="#9aa3b2" font-size="0.9" text-anchor="end" font-family="sans-serif">6</text><line x1="25.400" y1="5.080" x2="20.320" y2="5.080" stroke="#e6e9ef" stroke-width="0.2"/><circle cx="25.400" cy="5.080" r="0.4" fill="#4ea1ff"/><text x="19.820" y="5.430" fill="#e6e9ef" font-size="1.1" text-anchor="end" font-family="sans-serif">+5V</text><text x="20.620" y="4.730" fill="#9aa3b2" font-size="0.9" text-anchor="start" font-family="sans-serif">7</text><line x1="25.400" y1="10.160" x2="20.320" y2="10.160" stroke="#e6e9ef" stroke-width="0.2"/><circle cx="25.400" cy="10.160" r="0.4" fill="#4ea1ff"/><text x="19.820" y="10.510" fill="#e6e9ef" font-size="1.1" text-anchor="end" font-family="sans-serif">0V</text><text x="20.620" y="9.810" fill="#9aa3b2" font-size="0.9" text-anchor="start" font-family="sans-serif">8</text><line x1="25.400" y1="20.320" x2="20.320" y2="20.320" stroke="#e6e9ef" stroke-width="0.2"/><circle cx="25.400" cy="20.320" r="0.4" fill="#4ea1ff"/><text x="19.820" y="20.670" fill="#e6e9ef" font-size="1.1" text-anchor="end" font-family="sans-serif">OUT</text><text x="20.620" y="19.970" fill="#9aa3b2" font-size="0.9" text-anchor="start" font-family="sans-serif">9</text><line x1="25.400" y1="25.400" x2="20.320" y2="25.400" stroke="#e6e9ef" stroke-width="0.2"/><circle cx="25.400" cy="25.400" r="0.4" fill="#4ea1ff"/><text x="19.820" y="25.750" fill="#e6e9ef" font-size="1.1" text-anchor="end" font-family="sans-serif">REF</text><text x="20.620" y="25.050" fill="#9aa3b2" font-size="0.9" text-anchor="start" font-family="sans-serif">10</text></svg>