<svg xmlns="http://www.w3.org/2000/svg" viewBox="-3.73 -3.65 7.38 7.30" preserveAspectRatio="xMidYMid meet" style="width:100%;height:100%"><rect x="-3.73" y="-3.65" width="7.38" height="7.30" fill="#12151c"/><line x1="-2.000" y1="-1.800" x2="-1.800" y2="-2.000" stroke="#e6e9ef" stroke-width="0.200" stroke-linecap="round" opacity="1"/><line x1="-2.000" y1="-1.750" x2="-2.000" y2="-1.800" stroke="#e6e9ef" stroke-width="0.200" stroke-linecap="round" opacity="1"/><line x1="-2.000" y1="2.000" x2="-2.000" y2="1.753" stroke="#e6e9ef" stroke-width="0.200" stroke-linecap="round" opacity="1"/><line x1="-2.000" y1="2.000" x2="-1.750" y2="2.000" stroke="#e6e9ef" stroke-width="0.200" stroke-linecap="round" opacity="1"/><line x1="-1.800" y1="-2.000" x2="-1.750" y2="-2.000" stroke="#e6e9ef" stroke-width="0.200" stroke-linecap="round" opacity="1"/><line x1="1.750" y1="-2.000" x2="2.000" y2="-2.000" stroke="#e6e9ef" stroke-width="0.200" stroke-linecap="round" opacity="1"/><line x1="1.750" y1="2.000" x2="2.000" y2="2.000" stroke="#e6e9ef" stroke-width="0.200" stroke-linecap="round" opacity="1"/><line x1="2.000" y1="-1.750" x2="2.000" y2="-2.000" stroke="#e6e9ef" stroke-width="0.200" stroke-linecap="round" opacity="1"/><line x1="2.000" y1="2.000" x2="2.000" y2="1.753" stroke="#e6e9ef" stroke-width="0.200" stroke-linecap="round" opacity="1"/><line x1="-2.400" y1="-1.400" x2="-2.000" y2="-1.250" stroke="#4a5160" stroke-width="0.080" stroke-linecap="round" opacity="0.7"/><line x1="-2.400" y1="-1.400" x2="-1.600" y2="-1.400" stroke="#4a5160" stroke-width="0.080" stroke-linecap="round" opacity="0.7"/><line x1="-2.400" y1="-1.100" x2="-2.400" y2="-1.400" stroke="#4a5160" stroke-width="0.080" stroke-linecap="round" opacity="0.7"/><line x1="-2.400" y1="-1.100" x2="-2.000" y2="-1.250" stroke="#4a5160" stroke-width="0.080" stroke-linecap="round" opacity="0.7"/><line x1="-2.400" y1="-1.100" x2="-1.600" y2="-1.100" stroke="#4a5160" stroke-width="0.080" stroke-linecap="round" opacity="0.7"/><line x1="-2.400" y1="-0.900" x2="-2.000" y2="-0.750" stroke="#4a5160" stroke-width="0.080" stroke-linecap="round" opacity="0.7"/><line x1="-2.400" y1="-0.900" x2="-1.600" y2="-0.900" stroke="#4a5160" stroke-width="0.080" stroke-linecap="round" opacity="0.7"/><line x1="-2.400" y1="-0.600" x2="-2.400" y2="-0.900" stroke="#4a5160" stroke-width="0.080" stroke-linecap="round" opacity="0.7"/><line x1="-2.400" y1="-0.600" x2="-2.000" y2="-0.750" stroke="#4a5160" stroke-width="0.080" stroke-linecap="round" opacity="0.7"/><line x1="-2.400" y1="-0.600" x2="-1.600" y2="-0.600" stroke="#4a5160" stroke-width="0.080" stroke-linecap="round" opacity="0.7"/><line x1="-2.400" y1="-0.400" x2="-2.000" y2="-0.250" stroke="#4a5160" stroke-width="0.080" stroke-linecap="round" opacity="0.7"/><line x1="-2.400" y1="-0.400" x2="-1.600" y2="-0.400" stroke="#4a5160" stroke-width="0.080" stroke-linecap="round" opacity="0.7"/><line x1="-2.400" y1="-0.100" x2="-2.400" y2="-0.400" stroke="#4a5160" stroke-width="0.080" stroke-linecap="round" opacity="0.7"/><line x1="-2.400" y1="-0.100" x2="-2.000" y2="-0.250" stroke="#4a5160" stroke-width="0.080" stroke-linecap="round" opacity="0.7"/><line x1="-2.400" y1="-0.100" x2="-1.600" y2="-0.100" stroke="#4a5160" stroke-width="0.080" stroke-linecap="round" opacity="0.7"/><line x1="-2.400" y1="0.100" x2="-2.000" y2="0.250" stroke="#4a5160" stroke-width="0.080" stroke-linecap="round" opacity="0.7"/><line x1="-2.400" y1="0.100" x2="-1.600" y2="0.100" stroke="#4a5160" stroke-width="0.080" stroke-linecap="round" opacity="0.7"/><line x1="-2.400" y1="0.400" x2="-2.400" y2="0.100" stroke="#4a5160" stroke-width="0.080" stroke-linecap="round" opacity="0.7"/><line x1="-2.400" y1="0.400" x2="-2.000" y2="0.250" stroke="#4a5160" stroke-width="0.080" stroke-linecap="round" opacity="0.7"/><line x1="-2.400" y1="0.400" x2="-1.600" y2="0.400" stroke="#4a5160" stroke-width="0.080" stroke-linecap="round" opacity="0.7"/><line x1="-2.400" y1="0.600" x2="-2.000" y2="0.750" stroke="#4a5160" stroke-width="0.080" stroke-linecap="round" opacity="0.7"/><line x1="-2.400" y1="0.600" x2="-1.600" y2="0.600" stroke="#4a5160" stroke-width="0.080" stroke-linecap="round" opacity="0.7"/><line x1="-2.400" y1="0.900" x2="-2.400" y2="0.600" stroke="#4a5160" stroke-width="0.080" stroke-linecap="round" opacity="0.7"/><line x1="-2.400" y1="0.900" x2="-2.000" y2="0.750" stroke="#4a5160" stroke-width="0.080" stroke-linecap="round" opacity="0.7"/><line x1="-2.400" y1="0.900" x2="-1.600" y2="0.900" stroke="#4a5160" stroke-width="0.080" stroke-linecap="round" opacity="0.7"/><line x1="-2.400" y1="1.100" x2="-2.000" y2="1.250" stroke="#4a5160" stroke-width="0.080" stroke-linecap="round" opacity="0.7"/><line x1="-2.400" y1="1.100" x2="-1.600" y2="1.100" stroke="#4a5160" stroke-width="0.080" stroke-linecap="round" opacity="0.7"/><line x1="-2.400" y1="1.400" x2="-2.400" y2="1.100" stroke="#4a5160" stroke-width="0.080" stroke-linecap="round" opacity="0.7"/><line x1="-2.400" y1="1.400" x2="-2.000" y2="1.250" stroke="#4a5160" stroke-width="0.080" stroke-linecap="round" opacity="0.7"/><line x1="-2.400" y1="1.400" x2="-1.600" y2="1.400" stroke="#4a5160" stroke-width="0.080" stroke-linecap="round" opacity="0.7"/><line x1="-1.600" y1="-1.100" x2="-1.600" y2="-1.400" stroke="#4a5160" stroke-width="0.080" stroke-linecap="round" opacity="0.7"/><line x1="-1.600" y1="-0.600" x2="-1.600" y2="-0.900" stroke="#4a5160" stroke-width="0.080" stroke-linecap="round" opacity="0.7"/><line x1="-1.600" y1="-0.100" x2="-1.600" y2="-0.400" stroke="#4a5160" stroke-width="0.080" stroke-linecap="round" opacity="0.7"/><line x1="-1.600" y1="0.400" x2="-1.600" y2="0.100" stroke="#4a5160" stroke-width="0.080" stroke-linecap="round" opacity="0.7"/><line x1="-1.600" y1="0.900" x2="-1.600" y2="0.600" stroke="#4a5160" stroke-width="0.080" stroke-linecap="round" opacity="0.7"/><line x1="-1.600" y1="1.400" x2="-1.600" y2="1.100" stroke="#4a5160" stroke-width="0.080" stroke-linecap="round" opacity="0.7"/><line x1="-1.400" y1="-2.400" x2="-1.250" y2="-2.000" stroke="#4a5160" stroke-width="0.080" stroke-linecap="round" opacity="0.7"/><line x1="-1.400" y1="-2.400" x2="-1.100" y2="-2.400" stroke="#4a5160" stroke-width="0.080" stroke-linecap="round" opacity="0.7"/><line x1="-1.400" y1="-1.600" x2="-1.400" y2="-2.400" stroke="#4a5160" stroke-width="0.080" stroke-linecap="round" opacity="0.7"/><line x1="-1.400" y1="-1.600" x2="-1.100" y2="-1.600" stroke="#4a5160" stroke-width="0.080" stroke-linecap="round" opacity="0.7"/><line x1="-1.400" y1="1.600" x2="-1.100" y2="1.600" stroke="#4a5160" stroke-width="0.080" stroke-linecap="round" opacity="0.7"/><line x1="-1.400" y1="2.400" x2="-1.400" y2="1.600" stroke="#4a5160" stroke-width="0.080" stroke-linecap="round" opacity="0.7"/><line x1="-1.400" y1="2.400" x2="-1.250" y2="2.000" stroke="#4a5160" stroke-width="0.080" stroke-linecap="round" opacity="0.7"/><line x1="-1.400" y1="2.400" x2="-1.100" y2="2.400" stroke="#4a5160" stroke-width="0.080" stroke-linecap="round" opacity="0.7"/><line x1="-1.325" y1="-1.325" x2="1.325" y2="-1.325" stroke="#4a5160" stroke-width="0.080" stroke-linecap="round" opacity="0.7"/><line x1="-1.325" y1="1.325" x2="-1.325" y2="-1.325" stroke="#4a5160" stroke-width="0.080" stroke-linecap="round" opacity="0.7"/><line x1="-1.325" y1="1.325" x2="1.325" y2="1.325" stroke="#4a5160" stroke-width="0.080" stroke-linecap="round" opacity="0.7"/><line x1="-1.250" y1="-2.000" x2="-1.100" y2="-2.400" stroke="#4a5160" stroke-width="0.080" stroke-linecap="round" opacity="0.7"/><line x1="-1.250" y1="2.000" x2="-1.100" y2="2.400" stroke="#4a5160" stroke-width="0.080" stroke-linecap="round" opacity="0.7"/><line x1="-1.100" y1="-1.600" x2="-1.100" y2="-2.400" stroke="#4a5160" stroke-width="0.080" stroke-linecap="round" opacity="0.7"/><line x1="-1.100" y1="2.400" x2="-1.100" y2="1.600" stroke="#4a5160" stroke-width="0.080" stroke-linecap="round" opacity="0.7"/><line x1="-0.900" y1="-2.400" x2="-0.750" y2="-2.000" stroke="#4a5160" stroke-width="0.080" stroke-linecap="round" opacity="0.7"/><line x1="-0.900" y1="-2.400" x2="-0.600" y2="-2.400" stroke="#4a5160" stroke-width="0.080" stroke-linecap="round" opacity="0.7"/><line x1="-0.900" y1="-1.600" x2="-0.900" y2="-2.400" stroke="#4a5160" stroke-width="0.080" stroke-linecap="round" opacity="0.7"/><line x1="-0.900" y1="-1.600" x2="-0.600" y2="-1.600" stroke="#4a5160" stroke-width="0.080" stroke-linecap="round" opacity="0.7"/><line x1="-0.900" y1="1.600" x2="-0.600" y2="1.600" stroke="#4a5160" stroke-width="0.080" stroke-linecap="round" opacity="0.7"/><line x1="-0.900" y1="2.400" x2="-0.900" y2="1.600" stroke="#4a5160" stroke-width="0.080" stroke-linecap="round" opacity="0.7"/><line x1="-0.900" y1="2.400" x2="-0.750" y2="2.000" stroke="#4a5160" stroke-width="0.080" stroke-linecap="round" opacity="0.7"/><line x1="-0.900" y1="2.400" x2="-0.600" y2="2.400" stroke="#4a5160" stroke-width="0.080" stroke-linecap="round" opacity="0.7"/><line x1="-0.750" y1="-2.000" x2="-0.600" y2="-2.400" stroke="#4a5160" stroke-width="0.080" stroke-linecap="round" opacity="0.7"/><line x1="-0.750" y1="2.000" x2="-0.600" y2="2.400" stroke="#4a5160" stroke-width="0.080" stroke-linecap="round" opacity="0.7"/><line x1="-0.600" y1="-1.600" x2="-0.600" y2="-2.400" stroke="#4a5160" stroke-width="0.080" stroke-linecap="round" opacity="0.7"/><line x1="-0.600" y1="2.400" x2="-0.600" y2="1.600" stroke="#4a5160" stroke-width="0.080" stroke-linecap="round" opacity="0.7"/><line x1="-0.500" y1="0.000" x2="0.000" y2="0.000" stroke="#4a5160" stroke-width="0.080" stroke-linecap="round" opacity="0.7"/><line x1="-0.400" y1="-2.400" x2="-0.250" y2="-2.000" stroke="#4a5160" stroke-width="0.080" stroke-linecap="round" opacity="0.7"/><line x1="-0.400" y1="-2.400" x2="-0.100" y2="-2.400" stroke="#4a5160" stroke-width="0.080" stroke-linecap="round" opacity="0.7"/><line x1="-0.400" y1="-1.600" x2="-0.400" y2="-2.400" stroke="#4a5160" stroke-width="0.080" stroke-linecap="round" opacity="0.7"/><line x1="-0.400" y1="-1.600" x2="-0.100" y2="-1.600" stroke="#4a5160" stroke-width="0.080" stroke-linecap="round" opacity="0.7"/><line x1="-0.400" y1="1.600" x2="-0.100" y2="1.600" stroke="#4a5160" stroke-width="0.080" stroke-linecap="round" opacity="0.7"/><line x1="-0.400" y1="2.400" x2="-0.400" y2="1.600" stroke="#4a5160" stroke-width="0.080" stroke-linecap="round" opacity="0.7"/><line x1="-0.400" y1="2.400" x2="-0.250" y2="2.000" stroke="#4a5160" stroke-width="0.080" stroke-linecap="round" opacity="0.7"/><line x1="-0.400" y1="2.400" x2="-0.100" y2="2.400" stroke="#4a5160" stroke-width="0.080" stroke-linecap="round" opacity="0.7"/><line x1="-0.250" y1="-2.000" x2="-0.100" y2="-2.400" stroke="#4a5160" stroke-width="0.080" stroke-linecap="round" opacity="0.7"/><line x1="-0.250" y1="2.000" x2="-0.100" y2="2.400" stroke="#4a5160" stroke-width="0.080" stroke-linecap="round" opacity="0.7"/><line x1="-0.100" y1="-1.600" x2="-0.100" y2="-2.400" stroke="#4a5160" stroke-width="0.080" stroke-linecap="round" opacity="0.7"/><line x1="-0.100" y1="2.400" x2="-0.100" y2="1.600" stroke="#4a5160" stroke-width="0.080" stroke-linecap="round" opacity="0.7"/><line x1="0.000" y1="0.000" x2="0.000" y2="-0.500" stroke="#4a5160" stroke-width="0.080" stroke-linecap="round" opacity="0.7"/><line x1="0.000" y1="0.000" x2="0.500" y2="0.000" stroke="#4a5160" stroke-width="0.080" stroke-linecap="round" opacity="0.7"/><line x1="0.000" y1="0.500" x2="0.000" y2="0.000" stroke="#4a5160" stroke-width="0.080" stroke-linecap="round" opacity="0.7"/><line x1="0.100" y1="-2.400" x2="0.250" y2="-2.000" stroke="#4a5160" stroke-width="0.080" stroke-linecap="round" opacity="0.7"/><line x1="0.100" y1="-2.400" x2="0.400" y2="-2.400" stroke="#4a5160" stroke-width="0.080" stroke-linecap="round" opacity="0.7"/><line x1="0.100" y1="-1.600" x2="0.100" y2="-2.400" stroke="#4a5160" stroke-width="0.080" stroke-linecap="round" opacity="0.7"/><line x1="0.100" y1="-1.600" x2="0.400" y2="-1.600" stroke="#4a5160" stroke-width="0.080" stroke-linecap="round" opacity="0.7"/><line x1="0.100" y1="1.600" x2="0.400" y2="1.600" stroke="#4a5160" stroke-width="0.080" stroke-linecap="round" opacity="0.7"/><line x1="0.100" y1="2.400" x2="0.100" y2="1.600" stroke="#4a5160" stroke-width="0.080" stroke-linecap="round" opacity="0.7"/><line x1="0.100" y1="2.400" x2="0.250" y2="2.000" stroke="#4a5160" stroke-width="0.080" stroke-linecap="round" opacity="0.7"/><line x1="0.100" y1="2.400" x2="0.400" y2="2.400" stroke="#4a5160" stroke-width="0.080" stroke-linecap="round" opacity="0.7"/><line x1="0.250" y1="-2.000" x2="0.400" y2="-2.400" stroke="#4a5160" stroke-width="0.080" stroke-linecap="round" opacity="0.7"/><line x1="0.250" y1="2.000" x2="0.400" y2="2.400" stroke="#4a5160" stroke-width="0.080" stroke-linecap="round" opacity="0.7"/><line x1="0.400" y1="-1.600" x2="0.400" y2="-2.400" stroke="#4a5160" stroke-width="0.080" stroke-linecap="round" opacity="0.7"/><line x1="0.400" y1="2.400" x2="0.400" y2="1.600" stroke="#4a5160" stroke-width="0.080" stroke-linecap="round" opacity="0.7"/><line x1="0.600" y1="-2.400" x2="0.750" y2="-2.000" stroke="#4a5160" stroke-width="0.080" stroke-linecap="round" opacity="0.7"/><line x1="0.600" y1="-2.400" x2="0.900" y2="-2.400" stroke="#4a5160" stroke-width="0.080" stroke-linecap="round" opacity="0.7"/><line x1="0.600" y1="-1.600" x2="0.600" y2="-2.400" stroke="#4a5160" stroke-width="0.080" stroke-linecap="round" opacity="0.7"/><line x1="0.600" y1="-1.600" x2="0.900" y2="-1.600" stroke="#4a5160" stroke-width="0.080" stroke-linecap="round" opacity="0.7"/><line x1="0.600" y1="1.600" x2="0.900" y2="1.600" stroke="#4a5160" stroke-width="0.080" stroke-linecap="round" opacity="0.7"/><line x1="0.600" y1="2.400" x2="0.600" y2="1.600" stroke="#4a5160" stroke-width="0.080" stroke-linecap="round" opacity="0.7"/><line x1="0.600" y1="2.400" x2="0.750" y2="2.000" stroke="#4a5160" stroke-width="0.080" stroke-linecap="round" opacity="0.7"/><line x1="0.600" y1="2.400" x2="0.900" y2="2.400" stroke="#4a5160" stroke-width="0.080" stroke-linecap="round" opacity="0.7"/><line x1="0.750" y1="-2.000" x2="0.900" y2="-2.400" stroke="#4a5160" stroke-width="0.080" stroke-linecap="round" opacity="0.7"/><line x1="0.750" y1="2.000" x2="0.900" y2="2.400" stroke="#4a5160" stroke-width="0.080" stroke-linecap="round" opacity="0.7"/><line x1="0.900" y1="-1.600" x2="0.900" y2="-2.400" stroke="#4a5160" stroke-width="0.080" stroke-linecap="round" opacity="0.7"/><line x1="0.900" y1="2.400" x2="0.900" y2="1.600" stroke="#4a5160" stroke-width="0.080" stroke-linecap="round" opacity="0.7"/><line x1="1.100" y1="-2.400" x2="1.250" y2="-2.000" stroke="#4a5160" stroke-width="0.080" stroke-linecap="round" opacity="0.7"/><line x1="1.100" y1="-2.400" x2="1.400" y2="-2.400" stroke="#4a5160" stroke-width="0.080" stroke-linecap="round" opacity="0.7"/><line x1="1.100" y1="-1.600" x2="1.100" y2="-2.400" stroke="#4a5160" stroke-width="0.080" stroke-linecap="round" opacity="0.7"/><line x1="1.100" y1="-1.600" x2="1.400" y2="-1.600" stroke="#4a5160" stroke-width="0.080" stroke-linecap="round" opacity="0.7"/><line x1="1.100" y1="1.600" x2="1.400" y2="1.600" stroke="#4a5160" stroke-width="0.080" stroke-linecap="round" opacity="0.7"/><line x1="1.100" y1="2.400" x2="1.100" y2="1.600" stroke="#4a5160" stroke-width="0.080" stroke-linecap="round" opacity="0.7"/><line x1="1.100" y1="2.400" x2="1.250" y2="2.000" stroke="#4a5160" stroke-width="0.080" stroke-linecap="round" opacity="0.7"/><line x1="1.100" y1="2.400" x2="1.400" y2="2.400" stroke="#4a5160" stroke-width="0.080" stroke-linecap="round" opacity="0.7"/><line x1="1.250" y1="-2.000" x2="1.400" y2="-2.400" stroke="#4a5160" stroke-width="0.080" stroke-linecap="round" opacity="0.7"/><line x1="1.250" y1="2.000" x2="1.400" y2="2.400" stroke="#4a5160" stroke-width="0.080" stroke-linecap="round" opacity="0.7"/><line x1="1.325" y1="1.325" x2="1.325" y2="-1.325" stroke="#4a5160" stroke-width="0.080" stroke-linecap="round" opacity="0.7"/><line x1="1.400" y1="-1.600" x2="1.400" y2="-2.400" stroke="#4a5160" stroke-width="0.080" stroke-linecap="round" opacity="0.7"/><line x1="1.400" y1="2.400" x2="1.400" y2="1.600" stroke="#4a5160" stroke-width="0.080" stroke-linecap="round" opacity="0.7"/><line x1="1.600" y1="-1.400" x2="2.400" y2="-1.400" stroke="#4a5160" stroke-width="0.080" stroke-linecap="round" opacity="0.7"/><line x1="1.600" y1="-1.100" x2="1.600" y2="-1.400" stroke="#4a5160" stroke-width="0.080" stroke-linecap="round" opacity="0.7"/><line x1="1.600" y1="-1.100" x2="2.400" y2="-1.100" stroke="#4a5160" stroke-width="0.080" stroke-linecap="round" opacity="0.7"/><line x1="1.600" y1="-0.900" x2="2.400" y2="-0.900" stroke="#4a5160" stroke-width="0.080" stroke-linecap="round" opacity="0.7"/><line x1="1.600" y1="-0.600" x2="1.600" y2="-0.900" stroke="#4a5160" stroke-width="0.080" stroke-linecap="round" opacity="0.7"/><line x1="1.600" y1="-0.600" x2="2.400" y2="-0.600" stroke="#4a5160" stroke-width="0.080" stroke-linecap="round" opacity="0.7"/><line x1="1.600" y1="-0.400" x2="2.400" y2="-0.400" stroke="#4a5160" stroke-width="0.080" stroke-linecap="round" opacity="0.7"/><line x1="1.600" y1="-0.100" x2="1.600" y2="-0.400" stroke="#4a5160" stroke-width="0.080" stroke-linecap="round" opacity="0.7"/><line x1="1.600" y1="-0.100" x2="2.400" y2="-0.100" stroke="#4a5160" stroke-width="0.080" stroke-linecap="round" opacity="0.7"/><line x1="1.600" y1="0.100" x2="2.400" y2="0.100" stroke="#4a5160" stroke-width="0.080" stroke-linecap="round" opacity="0.7"/><line x1="1.600" y1="0.400" x2="1.600" y2="0.100" stroke="#4a5160" stroke-width="0.080" stroke-linecap="round" opacity="0.7"/><line x1="1.600" y1="0.400" x2="2.400" y2="0.400" stroke="#4a5160" stroke-width="0.080" stroke-linecap="round" opacity="0.7"/><line x1="1.600" y1="0.600" x2="2.400" y2="0.600" stroke="#4a5160" stroke-width="0.080" stroke-linecap="round" opacity="0.7"/><line x1="1.600" y1="0.900" x2="1.600" y2="0.600" stroke="#4a5160" stroke-width="0.080" stroke-linecap="round" opacity="0.7"/><line x1="1.600" y1="0.900" x2="2.400" y2="0.900" stroke="#4a5160" stroke-width="0.080" stroke-linecap="round" opacity="0.7"/><line x1="1.600" y1="1.100" x2="2.400" y2="1.100" stroke="#4a5160" stroke-width="0.080" stroke-linecap="round" opacity="0.7"/><line x1="1.600" y1="1.400" x2="1.600" y2="1.100" stroke="#4a5160" stroke-width="0.080" stroke-linecap="round" opacity="0.7"/><line x1="1.600" y1="1.400" x2="2.400" y2="1.400" stroke="#4a5160" stroke-width="0.080" stroke-linecap="round" opacity="0.7"/><line x1="2.000" y1="-1.250" x2="2.400" y2="-1.400" stroke="#4a5160" stroke-width="0.080" stroke-linecap="round" opacity="0.7"/><line x1="2.000" y1="-1.250" x2="2.400" y2="-1.100" stroke="#4a5160" stroke-width="0.080" stroke-linecap="round" opacity="0.7"/><line x1="2.000" y1="-0.750" x2="2.400" y2="-0.900" stroke="#4a5160" stroke-width="0.080" stroke-linecap="round" opacity="0.7"/><line x1="2.000" y1="-0.750" x2="2.400" y2="-0.600" stroke="#4a5160" stroke-width="0.080" stroke-linecap="round" opacity="0.7"/><line x1="2.000" y1="-0.250" x2="2.400" y2="-0.400" stroke="#4a5160" stroke-width="0.080" stroke-linecap="round" opacity="0.7"/><line x1="2.000" y1="-0.250" x2="2.400" y2="-0.100" stroke="#4a5160" stroke-width="0.080" stroke-linecap="round" opacity="0.7"/><line x1="2.000" y1="0.250" x2="2.400" y2="0.100" stroke="#4a5160" stroke-width="0.080" stroke-linecap="round" opacity="0.7"/><line x1="2.000" y1="0.250" x2="2.400" y2="0.400" stroke="#4a5160" stroke-width="0.080" stroke-linecap="round" opacity="0.7"/><line x1="2.000" y1="0.750" x2="2.400" y2="0.600" stroke="#4a5160" stroke-width="0.080" stroke-linecap="round" opacity="0.7"/><line x1="2.000" y1="0.750" x2="2.400" y2="0.900" stroke="#4a5160" stroke-width="0.080" stroke-linecap="round" opacity="0.7"/><line x1="2.000" y1="1.250" x2="2.400" y2="1.100" stroke="#4a5160" stroke-width="0.080" stroke-linecap="round" opacity="0.7"/><line x1="2.000" y1="1.250" x2="2.400" y2="1.400" stroke="#4a5160" stroke-width="0.080" stroke-linecap="round" opacity="0.7"/><line x1="2.400" y1="-1.100" x2="2.400" y2="-1.400" stroke="#4a5160" stroke-width="0.080" stroke-linecap="round" opacity="0.7"/><line x1="2.400" y1="-0.600" x2="2.400" y2="-0.900" stroke="#4a5160" stroke-width="0.080" stroke-linecap="round" opacity="0.7"/><line x1="2.400" y1="-0.100" x2="2.400" y2="-0.400" stroke="#4a5160" stroke-width="0.080" stroke-linecap="round" opacity="0.7"/><line x1="2.400" y1="0.400" x2="2.400" y2="0.100" stroke="#4a5160" stroke-width="0.080" stroke-linecap="round" opacity="0.7"/><line x1="2.400" y1="0.900" x2="2.400" y2="0.600" stroke="#4a5160" stroke-width="0.080" stroke-linecap="round" opacity="0.7"/><line x1="2.400" y1="1.400" x2="2.400" y2="1.100" stroke="#4a5160" stroke-width="0.080" stroke-linecap="round" opacity="0.7"/><line x1="-2.650" y1="-2.650" x2="2.650" y2="-2.650" stroke="#d24d4d" stroke-width="0.080" stroke-linecap="round" opacity="0.7"/><line x1="-2.650" y1="2.650" x2="-2.650" y2="-2.650" stroke="#d24d4d" stroke-width="0.080" stroke-linecap="round" opacity="0.7"/><line x1="-2.650" y1="2.650" x2="2.650" y2="2.650" stroke="#d24d4d" stroke-width="0.080" stroke-linecap="round" opacity="0.7"/><line x1="2.650" y1="2.650" x2="2.650" y2="-2.650" stroke="#d24d4d" stroke-width="0.080" stroke-linecap="round" opacity="0.7"/><line x1="-2.000" y1="-2.000" x2="2.000" y2="-2.000" stroke="#6b7280" stroke-width="0.100" stroke-linecap="round" opacity="0.8"/><line x1="-2.000" y1="-1.900" x2="-1.900" y2="-2.000" stroke="#6b7280" stroke-width="0.100" stroke-linecap="round" opacity="0.8"/><line x1="-2.000" y1="-1.800" x2="-1.800" y2="-2.000" stroke="#6b7280" stroke-width="0.100" stroke-linecap="round" opacity="0.8"/><line x1="-2.000" y1="-1.700" x2="-1.700" y2="-2.000" stroke="#6b7280" stroke-width="0.100" stroke-linecap="round" opacity="0.8"/><line x1="-2.000" y1="-1.600" x2="-1.600" y2="-2.000" stroke="#6b7280" stroke-width="0.100" stroke-linecap="round" opacity="0.8"/><line x1="-2.000" y1="-1.500" x2="-1.500" y2="-2.000" stroke="#6b7280" stroke-width="0.100" stroke-linecap="round" opacity="0.8"/><line x1="-2.000" y1="-1.400" x2="-1.400" y2="-2.000" stroke="#6b7280" stroke-width="0.100" stroke-linecap="round" opacity="0.8"/><line x1="-2.000" y1="2.000" x2="-2.000" y2="-2.000" stroke="#6b7280" stroke-width="0.100" stroke-linecap="round" opacity="0.8"/><line x1="-2.000" y1="2.000" x2="2.000" y2="2.000" stroke="#6b7280" stroke-width="0.100" stroke-linecap="round" opacity="0.8"/><line x1="2.000" y1="2.000" x2="2.000" y2="-2.000" stroke="#6b7280" stroke-width="0.100" stroke-linecap="round" opacity="0.8"/><circle cx="-2.600" cy="-1.900" r="0.125" fill="none" stroke="#e6e9ef" stroke-width="0.12" opacity="1"/><rect x="-2.400" y="-1.400" width="0.800" height="0.300" rx="0.000" fill="#c79b5c"/><rect x="-2.400" y="-0.900" width="0.800" height="0.300" rx="0.000" fill="#c79b5c"/><rect x="-2.400" y="-0.400" width="0.800" height="0.300" rx="0.000" fill="#c79b5c"/><rect x="-2.400" y="0.100" width="0.800" height="0.300" rx="0.000" fill="#c79b5c"/><rect x="-2.400" y="0.600" width="0.800" height="0.300" rx="0.000" fill="#c79b5c"/><rect x="-2.400" y="1.100" width="0.800" height="0.300" rx="0.000" fill="#c79b5c"/><rect x="-1.400" y="1.600" width="0.300" height="0.800" rx="0.000" fill="#c79b5c"/><rect x="-0.900" y="1.600" width="0.300" height="0.800" rx="0.000" fill="#c79b5c"/><rect x="-0.400" y="1.600" width="0.300" height="0.800" rx="0.000" fill="#c79b5c"/><rect x="0.100" y="1.600" width="0.300" height="0.800" rx="0.000" fill="#c79b5c"/><rect x="0.600" y="1.600" width="0.300" height="0.800" rx="0.000" fill="#c79b5c"/><rect x="1.100" y="1.600" width="0.300" height="0.800" rx="0.000" fill="#c79b5c"/><rect x="1.600" y="1.100" width="0.800" height="0.300" rx="0.000" fill="#c79b5c"/><rect x="1.600" y="0.600" width="0.800" height="0.300" rx="0.000" fill="#c79b5c"/><rect x="1.600" y="0.100" width="0.800" height="0.300" rx="0.000" fill="#c79b5c"/><rect x="1.600" y="-0.400" width="0.800" height="0.300" rx="0.000" fill="#c79b5c"/><rect x="1.600" y="-0.900" width="0.800" height="0.300" rx="0.000" fill="#c79b5c"/><rect x="1.600" y="-1.400" width="0.800" height="0.300" rx="0.000" fill="#c79b5c"/><rect x="1.100" y="-2.400" width="0.300" height="0.800" rx="0.000" fill="#c79b5c"/><rect x="0.600" y="-2.400" width="0.300" height="0.800" rx="0.000" fill="#c79b5c"/><rect x="0.100" y="-2.400" width="0.300" height="0.800" rx="0.000" fill="#c79b5c"/><rect x="-0.400" y="-2.400" width="0.300" height="0.800" rx="0.000" fill="#c79b5c"/><rect x="-0.900" y="-2.400" width="0.300" height="0.800" rx="0.000" fill="#c79b5c"/><rect x="-1.400" y="-2.400" width="0.300" height="0.800" rx="0.000" fill="#c79b5c"/><rect x="-1.325" y="-1.325" width="2.650" height="2.650" rx="0.000" fill="#c79b5c"/></svg>