<svg xmlns="http://www.w3.org/2000/svg" viewBox="-17.49 -6.05 34.98 11.10" preserveAspectRatio="xMidYMid meet" style="width:100%;height:100%"><rect x="-17.49" y="-6.05" width="34.98" height="11.10" fill="#12151c"/><line x1="-16.240" y1="-4.800" x2="16.240" y2="-4.800" stroke="#e6e9ef" stroke-width="0.200" stroke-linecap="round" opacity="1"/><line x1="-16.240" y1="-4.300" x2="-13.675" y2="-4.300" stroke="#e6e9ef" stroke-width="0.200" stroke-linecap="round" opacity="1"/><line x1="-16.240" y1="3.800" x2="-16.240" y2="-4.800" stroke="#e6e9ef" stroke-width="0.200" stroke-linecap="round" opacity="1"/><line x1="-16.240" y1="3.800" x2="16.240" y2="3.800" stroke="#e6e9ef" stroke-width="0.200" stroke-linecap="round" opacity="1"/><line x1="-15.240" y1="-3.475" x2="-13.675" y2="-3.475" stroke="#e6e9ef" stroke-width="0.200" stroke-linecap="round" opacity="1"/><line x1="-15.240" y1="2.130" x2="-14.740" y2="2.130" stroke="#e6e9ef" stroke-width="0.200" stroke-linecap="round" opacity="1"/><line x1="-15.240" y1="2.430" x2="-15.240" y2="-3.475" stroke="#e6e9ef" stroke-width="0.200" stroke-linecap="round" opacity="1"/><line x1="-15.240" y1="2.430" x2="-14.854" y2="2.430" stroke="#e6e9ef" stroke-width="0.200" stroke-linecap="round" opacity="1"/><line x1="-14.854" y1="2.430" x2="-14.740" y2="2.130" stroke="#e6e9ef" stroke-width="0.200" stroke-linecap="round" opacity="1"/><line x1="-13.675" y1="-4.300" x2="-13.305" y2="-4.773" stroke="#e6e9ef" stroke-width="0.200" stroke-linecap="round" opacity="1"/><line x1="-13.675" y1="-3.475" x2="-13.675" y2="-4.300" stroke="#e6e9ef" stroke-width="0.200" stroke-linecap="round" opacity="1"/><line x1="-13.675" y1="-3.475" x2="-13.344" y2="-3.163" stroke="#e6e9ef" stroke-width="0.200" stroke-linecap="round" opacity="1"/><line x1="-13.344" y1="-3.163" x2="-12.056" y2="-3.163" stroke="#e6e9ef" stroke-width="0.200" stroke-linecap="round" opacity="1"/><line x1="-13.305" y1="-4.773" x2="-12.095" y2="-4.773" stroke="#e6e9ef" stroke-width="0.200" stroke-linecap="round" opacity="1"/><line x1="-13.305" y1="-3.163" x2="-13.305" y2="-4.773" stroke="#e6e9ef" stroke-width="0.200" stroke-linecap="round" opacity="1"/><line x1="-12.095" y1="-4.773" x2="-11.725" y2="-4.300" stroke="#e6e9ef" stroke-width="0.200" stroke-linecap="round" opacity="1"/><line x1="-12.095" y1="-3.163" x2="-12.095" y2="-4.773" stroke="#e6e9ef" stroke-width="0.200" stroke-linecap="round" opacity="1"/><line x1="-12.056" y1="-3.163" x2="-11.725" y2="-3.475" stroke="#e6e9ef" stroke-width="0.200" stroke-linecap="round" opacity="1"/><line x1="-11.725" y1="-4.300" x2="-8.595" y2="-4.300" stroke="#e6e9ef" stroke-width="0.200" stroke-linecap="round" opacity="1"/><line x1="-11.725" y1="-3.475" x2="-11.725" y2="-4.300" stroke="#e6e9ef" stroke-width="0.200" stroke-linecap="round" opacity="1"/><line x1="-11.725" y1="-3.475" x2="-8.595" y2="-3.475" stroke="#e6e9ef" stroke-width="0.200" stroke-linecap="round" opacity="1"/><line x1="-10.660" y1="2.130" x2="-10.546" y2="2.430" stroke="#e6e9ef" stroke-width="0.200" stroke-linecap="round" opacity="1"/><line x1="-10.660" y1="2.130" x2="-9.660" y2="2.130" stroke="#e6e9ef" stroke-width="0.200" stroke-linecap="round" opacity="1"/><line x1="-10.546" y1="2.430" x2="-9.774" y2="2.430" stroke="#e6e9ef" stroke-width="0.200" stroke-linecap="round" opacity="1"/><line x1="-9.774" y1="2.430" x2="-9.660" y2="2.130" stroke="#e6e9ef" stroke-width="0.200" stroke-linecap="round" opacity="1"/><line x1="-8.595" y1="-4.300" x2="-8.225" y2="-4.773" stroke="#e6e9ef" stroke-width="0.200" stroke-linecap="round" opacity="1"/><line x1="-8.595" y1="-3.475" x2="-8.595" y2="-4.300" stroke="#e6e9ef" stroke-width="0.200" stroke-linecap="round" opacity="1"/><line x1="-8.595" y1="-3.475" x2="-8.264" y2="-3.163" stroke="#e6e9ef" stroke-width="0.200" stroke-linecap="round" opacity="1"/><line x1="-8.264" y1="-3.163" x2="-6.976" y2="-3.163" stroke="#e6e9ef" stroke-width="0.200" stroke-linecap="round" opacity="1"/><line x1="-8.225" y1="-4.773" x2="-7.015" y2="-4.773" stroke="#e6e9ef" stroke-width="0.200" stroke-linecap="round" opacity="1"/><line x1="-8.225" y1="-3.163" x2="-8.225" y2="-4.773" stroke="#e6e9ef" stroke-width="0.200" stroke-linecap="round" opacity="1"/><line x1="-7.015" y1="-4.773" x2="-6.645" y2="-4.300" stroke="#e6e9ef" stroke-width="0.200" stroke-linecap="round" opacity="1"/><line x1="-7.015" y1="-3.163" x2="-7.015" y2="-4.773" stroke="#e6e9ef" stroke-width="0.200" stroke-linecap="round" opacity="1"/><line x1="-6.976" y1="-3.163" x2="-6.645" y2="-3.475" stroke="#e6e9ef" stroke-width="0.200" stroke-linecap="round" opacity="1"/><line x1="-6.645" y1="-4.300" x2="-3.515" y2="-4.300" stroke="#e6e9ef" stroke-width="0.200" stroke-linecap="round" opacity="1"/><line x1="-6.645" y1="-3.475" x2="-6.645" y2="-4.300" stroke="#e6e9ef" stroke-width="0.200" stroke-linecap="round" opacity="1"/><line x1="-6.645" y1="-3.475" x2="-3.515" y2="-3.475" stroke="#e6e9ef" stroke-width="0.200" stroke-linecap="round" opacity="1"/><line x1="-5.580" y1="2.130" x2="-5.466" y2="2.430" stroke="#e6e9ef" stroke-width="0.200" stroke-linecap="round" opacity="1"/><line x1="-5.580" y1="2.130" x2="-4.580" y2="2.130" stroke="#e6e9ef" stroke-width="0.200" stroke-linecap="round" opacity="1"/><line x1="-5.466" y1="2.430" x2="-4.694" y2="2.430" stroke="#e6e9ef" stroke-width="0.200" stroke-linecap="round" opacity="1"/><line x1="-4.694" y1="2.430" x2="-4.580" y2="2.130" stroke="#e6e9ef" stroke-width="0.200" stroke-linecap="round" opacity="1"/><line x1="-3.515" y1="-4.300" x2="-3.145" y2="-4.773" stroke="#e6e9ef" stroke-width="0.200" stroke-linecap="round" opacity="1"/><line x1="-3.515" y1="-3.475" x2="-3.515" y2="-4.300" stroke="#e6e9ef" stroke-width="0.200" stroke-linecap="round" opacity="1"/><line x1="-3.515" y1="-3.475" x2="-3.184" y2="-3.163" stroke="#e6e9ef" stroke-width="0.200" stroke-linecap="round" opacity="1"/><line x1="-3.184" y1="-3.163" x2="-1.896" y2="-3.163" stroke="#e6e9ef" stroke-width="0.200" stroke-linecap="round" opacity="1"/><line x1="-3.145" y1="-4.773" x2="-1.935" y2="-4.773" stroke="#e6e9ef" stroke-width="0.200" stroke-linecap="round" opacity="1"/><line x1="-3.145" y1="-3.163" x2="-3.145" y2="-4.773" stroke="#e6e9ef" stroke-width="0.200" stroke-linecap="round" opacity="1"/><line x1="-1.935" y1="-4.773" x2="-1.565" y2="-4.300" stroke="#e6e9ef" stroke-width="0.200" stroke-linecap="round" opacity="1"/><line x1="-1.935" y1="-3.163" x2="-1.935" y2="-4.773" stroke="#e6e9ef" stroke-width="0.200" stroke-linecap="round" opacity="1"/><line x1="-1.896" y1="-3.163" x2="-1.565" y2="-3.475" stroke="#e6e9ef" stroke-width="0.200" stroke-linecap="round" opacity="1"/><line x1="-1.565" y1="-4.300" x2="1.565" y2="-4.300" stroke="#e6e9ef" stroke-width="0.200" stroke-linecap="round" opacity="1"/><line x1="-1.565" y1="-3.475" x2="-1.565" y2="-4.300" stroke="#e6e9ef" stroke-width="0.200" stroke-linecap="round" opacity="1"/><line x1="-1.565" y1="-3.475" x2="1.565" y2="-3.475" stroke="#e6e9ef" stroke-width="0.200" stroke-linecap="round" opacity="1"/><line x1="-0.500" y1="2.130" x2="-0.386" y2="2.430" stroke="#e6e9ef" stroke-width="0.200" stroke-linecap="round" opacity="1"/><line x1="-0.500" y1="2.130" x2="0.500" y2="2.130" stroke="#e6e9ef" stroke-width="0.200" stroke-linecap="round" opacity="1"/><line x1="-0.386" y1="2.430" x2="0.386" y2="2.430" stroke="#e6e9ef" stroke-width="0.200" stroke-linecap="round" opacity="1"/><line x1="0.386" y1="2.430" x2="0.500" y2="2.130" stroke="#e6e9ef" stroke-width="0.200" stroke-linecap="round" opacity="1"/><line x1="1.565" y1="-4.300" x2="1.935" y2="-4.773" stroke="#e6e9ef" stroke-width="0.200" stroke-linecap="round" opacity="1"/><line x1="1.565" y1="-3.475" x2="1.565" y2="-4.300" stroke="#e6e9ef" stroke-width="0.200" stroke-linecap="round" opacity="1"/><line x1="1.565" y1="-3.475" x2="1.896" y2="-3.163" stroke="#e6e9ef" stroke-width="0.200" stroke-linecap="round" opacity="1"/><line x1="1.896" y1="-3.163" x2="3.184" y2="-3.163" stroke="#e6e9ef" stroke-width="0.200" stroke-linecap="round" opacity="1"/><line x1="1.935" y1="-4.773" x2="3.145" y2="-4.773" stroke="#e6e9ef" stroke-width="0.200" stroke-linecap="round" opacity="1"/><line x1="1.935" y1="-3.163" x2="1.935" y2="-4.773" stroke="#e6e9ef" stroke-width="0.200" stroke-linecap="round" opacity="1"/><line x1="3.145" y1="-4.773" x2="3.515" y2="-4.300" stroke="#e6e9ef" stroke-width="0.200" stroke-linecap="round" opacity="1"/><line x1="3.145" y1="-3.163" x2="3.145" y2="-4.773" stroke="#e6e9ef" stroke-width="0.200" stroke-linecap="round" opacity="1"/><line x1="3.184" y1="-3.163" x2="3.515" y2="-3.475" stroke="#e6e9ef" stroke-width="0.200" stroke-linecap="round" opacity="1"/><line x1="3.515" y1="-4.300" x2="6.645" y2="-4.300" stroke="#e6e9ef" stroke-width="0.200" stroke-linecap="round" opacity="1"/><line x1="3.515" y1="-3.475" x2="3.515" y2="-4.300" stroke="#e6e9ef" stroke-width="0.200" stroke-linecap="round" opacity="1"/><line x1="3.515" y1="-3.475" x2="6.645" y2="-3.475" stroke="#e6e9ef" stroke-width="0.200" stroke-linecap="round" opacity="1"/><line x1="4.580" y1="2.130" x2="4.694" y2="2.430" stroke="#e6e9ef" stroke-width="0.200" stroke-linecap="round" opacity="1"/><line x1="4.580" y1="2.130" x2="5.580" y2="2.130" stroke="#e6e9ef" stroke-width="0.200" stroke-linecap="round" opacity="1"/><line x1="4.694" y1="2.430" x2="5.466" y2="2.430" stroke="#e6e9ef" stroke-width="0.200" stroke-linecap="round" opacity="1"/><line x1="5.466" y1="2.430" x2="5.580" y2="2.130" stroke="#e6e9ef" stroke-width="0.200" stroke-linecap="round" opacity="1"/><line x1="6.645" y1="-4.300" x2="7.015" y2="-4.773" stroke="#e6e9ef" stroke-width="0.200" stroke-linecap="round" opacity="1"/><line x1="6.645" y1="-3.475" x2="6.645" y2="-4.300" stroke="#e6e9ef" stroke-width="0.200" stroke-linecap="round" opacity="1"/><line x1="6.645" y1="-3.475" x2="6.976" y2="-3.163" stroke="#e6e9ef" stroke-width="0.200" stroke-linecap="round" opacity="1"/><line x1="6.976" y1="-3.163" x2="8.264" y2="-3.163" stroke="#e6e9ef" stroke-width="0.200" stroke-linecap="round" opacity="1"/><line x1="7.015" y1="-4.773" x2="8.225" y2="-4.773" stroke="#e6e9ef" stroke-width="0.200" stroke-linecap="round" opacity="1"/><line x1="7.015" y1="-3.163" x2="7.015" y2="-4.773" stroke="#e6e9ef" stroke-width="0.200" stroke-linecap="round" opacity="1"/><line x1="8.225" y1="-4.773" x2="8.595" y2="-4.300" stroke="#e6e9ef" stroke-width="0.200" stroke-linecap="round" opacity="1"/><line x1="8.225" y1="-3.163" x2="8.225" y2="-4.773" stroke="#e6e9ef" stroke-width="0.200" stroke-linecap="round" opacity="1"/><line x1="8.264" y1="-3.163" x2="8.595" y2="-3.475" stroke="#e6e9ef" stroke-width="0.200" stroke-linecap="round" opacity="1"/><line x1="8.595" y1="-4.300" x2="11.725" y2="-4.300" stroke="#e6e9ef" stroke-width="0.200" stroke-linecap="round" opacity="1"/><line x1="8.595" y1="-3.475" x2="8.595" y2="-4.300" stroke="#e6e9ef" stroke-width="0.200" stroke-linecap="round" opacity="1"/><line x1="8.595" y1="-3.475" x2="11.725" y2="-3.475" stroke="#e6e9ef" stroke-width="0.200" stroke-linecap="round" opacity="1"/><line x1="9.660" y1="2.130" x2="9.774" y2="2.430" stroke="#e6e9ef" stroke-width="0.200" stroke-linecap="round" opacity="1"/><line x1="9.660" y1="2.130" x2="10.661" y2="2.130" stroke="#e6e9ef" stroke-width="0.200" stroke-linecap="round" opacity="1"/><line x1="9.774" y1="2.430" x2="10.546" y2="2.430" stroke="#e6e9ef" stroke-width="0.200" stroke-linecap="round" opacity="1"/><line x1="10.546" y1="2.430" x2="10.661" y2="2.130" stroke="#e6e9ef" stroke-width="0.200" stroke-linecap="round" opacity="1"/><line x1="11.725" y1="-4.300" x2="12.095" y2="-4.773" stroke="#e6e9ef" stroke-width="0.200" stroke-linecap="round" opacity="1"/><line x1="11.725" y1="-3.475" x2="11.725" y2="-4.300" stroke="#e6e9ef" stroke-width="0.200" stroke-linecap="round" opacity="1"/><line x1="11.725" y1="-3.475" x2="12.056" y2="-3.163" stroke="#e6e9ef" stroke-width="0.200" stroke-linecap="round" opacity="1"/><line x1="12.056" y1="-3.163" x2="13.344" y2="-3.163" stroke="#e6e9ef" stroke-width="0.200" stroke-linecap="round" opacity="1"/><line x1="12.095" y1="-4.773" x2="13.305" y2="-4.773" stroke="#e6e9ef" stroke-width="0.200" stroke-linecap="round" opacity="1"/><line x1="12.095" y1="-3.163" x2="12.095" y2="-4.773" stroke="#e6e9ef" stroke-width="0.200" stroke-linecap="round" opacity="1"/><line x1="13.305" y1="-4.773" x2="13.675" y2="-4.300" stroke="#e6e9ef" stroke-width="0.200" stroke-linecap="round" opacity="1"/><line x1="13.305" y1="-3.163" x2="13.305" y2="-4.773" stroke="#e6e9ef" stroke-width="0.200" stroke-linecap="round" opacity="1"/><line x1="13.344" y1="-3.163" x2="13.675" y2="-3.475" stroke="#e6e9ef" stroke-width="0.200" stroke-linecap="round" opacity="1"/><line x1="13.675" y1="-4.300" x2="16.240" y2="-4.300" stroke="#e6e9ef" stroke-width="0.200" stroke-linecap="round" opacity="1"/><line x1="13.675" y1="-3.475" x2="13.675" y2="-4.300" stroke="#e6e9ef" stroke-width="0.200" stroke-linecap="round" opacity="1"/><line x1="13.675" y1="-3.475" x2="15.240" y2="-3.475" stroke="#e6e9ef" stroke-width="0.200" stroke-linecap="round" opacity="1"/><line x1="14.740" y1="2.130" x2="14.854" y2="2.430" stroke="#e6e9ef" stroke-width="0.200" stroke-linecap="round" opacity="1"/><line x1="14.740" y1="2.130" x2="15.240" y2="2.130" stroke="#e6e9ef" stroke-width="0.200" stroke-linecap="round" opacity="1"/><line x1="14.854" y1="2.430" x2="15.240" y2="2.430" stroke="#e6e9ef" stroke-width="0.200" stroke-linecap="round" opacity="1"/><line x1="15.240" y1="2.430" x2="15.240" y2="-3.475" stroke="#e6e9ef" stroke-width="0.200" stroke-linecap="round" opacity="1"/><line x1="16.240" y1="3.800" x2="16.240" y2="-4.800" stroke="#e6e9ef" stroke-width="0.200" stroke-linecap="round" opacity="1"/><line x1="-13.200" y1="0.000" x2="-12.700" y2="0.000" stroke="#4a5160" stroke-width="0.100" stroke-linecap="round" opacity="0.7"/><line x1="-12.700" y1="0.000" x2="-12.700" y2="-0.500" stroke="#4a5160" stroke-width="0.100" stroke-linecap="round" opacity="0.7"/><line x1="-12.700" y1="0.000" x2="-12.200" y2="0.000" stroke="#4a5160" stroke-width="0.100" stroke-linecap="round" opacity="0.7"/><line x1="-12.700" y1="0.500" x2="-12.700" y2="0.000" stroke="#4a5160" stroke-width="0.100" stroke-linecap="round" opacity="0.7"/><line x1="-8.120" y1="0.000" x2="-7.620" y2="0.000" stroke="#4a5160" stroke-width="0.100" stroke-linecap="round" opacity="0.7"/><line x1="-7.620" y1="0.000" x2="-7.620" y2="-0.500" stroke="#4a5160" stroke-width="0.100" stroke-linecap="round" opacity="0.7"/><line x1="-7.620" y1="0.000" x2="-7.120" y2="0.000" stroke="#4a5160" stroke-width="0.100" stroke-linecap="round" opacity="0.7"/><line x1="-7.620" y1="0.500" x2="-7.620" y2="0.000" stroke="#4a5160" stroke-width="0.100" stroke-linecap="round" opacity="0.7"/><line x1="-3.040" y1="0.000" x2="-2.540" y2="0.000" stroke="#4a5160" stroke-width="0.100" stroke-linecap="round" opacity="0.7"/><line x1="-2.540" y1="0.000" x2="-2.540" y2="-0.500" stroke="#4a5160" stroke-width="0.100" stroke-linecap="round" opacity="0.7"/><line x1="-2.540" y1="0.000" x2="-2.040" y2="0.000" stroke="#4a5160" stroke-width="0.100" stroke-linecap="round" opacity="0.7"/><line x1="-2.540" y1="0.500" x2="-2.540" y2="0.000" stroke="#4a5160" stroke-width="0.100" stroke-linecap="round" opacity="0.7"/><line x1="-0.500" y1="0.000" x2="0.000" y2="0.000" stroke="#4a5160" stroke-width="0.100" stroke-linecap="round" opacity="0.7"/><line x1="0.000" y1="0.000" x2="0.000" y2="-0.500" stroke="#4a5160" stroke-width="0.100" stroke-linecap="round" opacity="0.7"/><line x1="0.000" y1="0.000" x2="0.500" y2="0.000" stroke="#4a5160" stroke-width="0.100" stroke-linecap="round" opacity="0.7"/><line x1="0.000" y1="0.500" x2="0.000" y2="0.000" stroke="#4a5160" stroke-width="0.100" stroke-linecap="round" opacity="0.7"/><line x1="2.040" y1="0.000" x2="2.540" y2="0.000" stroke="#4a5160" stroke-width="0.100" stroke-linecap="round" opacity="0.7"/><line x1="2.540" y1="0.000" x2="2.540" y2="-0.500" stroke="#4a5160" stroke-width="0.100" stroke-linecap="round" opacity="0.7"/><line x1="2.540" y1="0.000" x2="3.040" y2="0.000" stroke="#4a5160" stroke-width="0.100" stroke-linecap="round" opacity="0.7"/><line x1="2.540" y1="0.500" x2="2.540" y2="0.000" stroke="#4a5160" stroke-width="0.100" stroke-linecap="round" opacity="0.7"/><line x1="7.120" y1="0.000" x2="7.620" y2="0.000" stroke="#4a5160" stroke-width="0.100" stroke-linecap="round" opacity="0.7"/><line x1="7.620" y1="0.000" x2="7.620" y2="-0.500" stroke="#4a5160" stroke-width="0.100" stroke-linecap="round" opacity="0.7"/><line x1="7.620" y1="0.000" x2="8.120" y2="0.000" stroke="#4a5160" stroke-width="0.100" stroke-linecap="round" opacity="0.7"/><line x1="7.620" y1="0.500" x2="7.620" y2="0.000" stroke="#4a5160" stroke-width="0.100" stroke-linecap="round" opacity="0.7"/><line x1="12.200" y1="0.000" x2="12.700" y2="0.000" stroke="#4a5160" stroke-width="0.100" stroke-linecap="round" opacity="0.7"/><line x1="12.700" y1="0.000" x2="12.700" y2="-0.500" stroke="#4a5160" stroke-width="0.100" stroke-linecap="round" opacity="0.7"/><line x1="12.700" y1="0.000" x2="13.200" y2="0.000" stroke="#4a5160" stroke-width="0.100" stroke-linecap="round" opacity="0.7"/><line x1="12.700" y1="0.500" x2="12.700" y2="0.000" stroke="#4a5160" stroke-width="0.100" stroke-linecap="round" opacity="0.7"/><line x1="-16.240" y1="-4.800" x2="16.240" y2="-4.800" stroke="#6b7280" stroke-width="0.100" stroke-linecap="round" opacity="0.8"/><line x1="-16.240" y1="-4.300" x2="-13.675" y2="-4.300" stroke="#6b7280" stroke-width="0.100" stroke-linecap="round" opacity="0.8"/><line x1="-16.240" y1="3.800" x2="-16.240" y2="-4.800" stroke="#6b7280" stroke-width="0.100" stroke-linecap="round" opacity="0.8"/><line x1="-16.240" y1="3.800" x2="16.240" y2="3.800" stroke="#6b7280" stroke-width="0.100" stroke-linecap="round" opacity="0.8"/><line x1="-15.240" y1="-3.475" x2="-13.675" y2="-3.475" stroke="#6b7280" stroke-width="0.100" stroke-linecap="round" opacity="0.8"/><line x1="-15.240" y1="2.130" x2="-14.740" y2="2.130" stroke="#6b7280" stroke-width="0.100" stroke-linecap="round" opacity="0.8"/><line x1="-15.240" y1="2.430" x2="-15.240" y2="-3.475" stroke="#6b7280" stroke-width="0.100" stroke-linecap="round" opacity="0.8"/><line x1="-15.240" y1="2.430" x2="-14.854" y2="2.430" stroke="#6b7280" stroke-width="0.100" stroke-linecap="round" opacity="0.8"/><line x1="-14.854" y1="2.430" x2="-14.740" y2="2.130" stroke="#6b7280" stroke-width="0.100" stroke-linecap="round" opacity="0.8"/><line x1="-13.675" y1="-4.300" x2="-13.305" y2="-4.773" stroke="#6b7280" stroke-width="0.100" stroke-linecap="round" opacity="0.8"/><line x1="-13.675" y1="-3.475" x2="-13.675" y2="-4.300" stroke="#6b7280" stroke-width="0.100" stroke-linecap="round" opacity="0.8"/><line x1="-13.675" y1="-3.475" x2="-13.344" y2="-3.163" stroke="#6b7280" stroke-width="0.100" stroke-linecap="round" opacity="0.8"/><line x1="-13.400" y1="1.212" x2="-13.400" y2="-1.212" stroke="#6b7280" stroke-width="0.100" stroke-linecap="round" opacity="0.8"/><line x1="-13.344" y1="-3.163" x2="-12.056" y2="-3.163" stroke="#6b7280" stroke-width="0.100" stroke-linecap="round" opacity="0.8"/><line x1="-13.305" y1="-4.773" x2="-12.095" y2="-4.773" stroke="#6b7280" stroke-width="0.100" stroke-linecap="round" opacity="0.8"/><line x1="-13.305" y1="-3.163" x2="-13.305" y2="-4.773" stroke="#6b7280" stroke-width="0.100" stroke-linecap="round" opacity="0.8"/><line x1="-13.200" y1="-0.500" x2="-12.200" y2="-0.500" stroke="#6b7280" stroke-width="0.100" stroke-linecap="round" opacity="0.8"/><line x1="-13.200" y1="0.500" x2="-13.200" y2="-0.500" stroke="#6b7280" stroke-width="0.100" stroke-linecap="round" opacity="0.8"/><line x1="-13.200" y1="0.500" x2="-12.200" y2="0.500" stroke="#6b7280" stroke-width="0.100" stroke-linecap="round" opacity="0.8"/><line x1="-13.200" y1="-0.500" x2="-12.932" y2="-0.232" stroke="#6b7280" stroke-width="0.100" stroke-linecap="round" opacity="0.8"/><line x1="-13.200" y1="0.500" x2="-12.932" y2="0.232" stroke="#6b7280" stroke-width="0.100" stroke-linecap="round" opacity="0.8"/><line x1="-12.932" y1="-0.232" x2="-12.468" y2="-0.232" stroke="#6b7280" stroke-width="0.100" stroke-linecap="round" opacity="0.8"/><line x1="-12.932" y1="0.232" x2="-12.932" y2="-0.232" stroke="#6b7280" stroke-width="0.100" stroke-linecap="round" opacity="0.8"/><line x1="-12.932" y1="0.232" x2="-12.468" y2="0.232" stroke="#6b7280" stroke-width="0.100" stroke-linecap="round" opacity="0.8"/><line x1="-12.468" y1="-0.232" x2="-12.200" y2="-0.500" stroke="#6b7280" stroke-width="0.100" stroke-linecap="round" opacity="0.8"/><line x1="-12.468" y1="0.232" x2="-12.200" y2="0.500" stroke="#6b7280" stroke-width="0.100" stroke-linecap="round" opacity="0.8"/><line x1="-12.468" y1="0.232" x2="-12.468" y2="-0.232" stroke="#6b7280" stroke-width="0.100" stroke-linecap="round" opacity="0.8"/><line x1="-12.200" y1="-0.500" x2="-12.200" y2="0.500" stroke="#6b7280" stroke-width="0.100" stroke-linecap="round" opacity="0.8"/><line x1="-12.095" y1="-4.773" x2="-11.725" y2="-4.300" stroke="#6b7280" stroke-width="0.100" stroke-linecap="round" opacity="0.8"/><line x1="-12.095" y1="-3.163" x2="-12.095" y2="-4.773" stroke="#6b7280" stroke-width="0.100" stroke-linecap="round" opacity="0.8"/><line x1="-12.056" y1="-3.163" x2="-11.725" y2="-3.475" stroke="#6b7280" stroke-width="0.100" stroke-linecap="round" opacity="0.8"/><line x1="-11.725" y1="-4.300" x2="-8.595" y2="-4.300" stroke="#6b7280" stroke-width="0.100" stroke-linecap="round" opacity="0.8"/><line x1="-11.725" y1="-3.475" x2="-11.725" y2="-4.300" stroke="#6b7280" stroke-width="0.100" stroke-linecap="round" opacity="0.8"/><line x1="-11.725" y1="-3.475" x2="-8.595" y2="-3.475" stroke="#6b7280" stroke-width="0.100" stroke-linecap="round" opacity="0.8"/><line x1="-10.660" y1="2.130" x2="-10.546" y2="2.430" stroke="#6b7280" stroke-width="0.100" stroke-linecap="round" opacity="0.8"/><line x1="-10.660" y1="2.130" x2="-9.660" y2="2.130" stroke="#6b7280" stroke-width="0.100" stroke-linecap="round" opacity="0.8"/><line x1="-10.546" y1="2.430" x2="-9.774" y2="2.430" stroke="#6b7280" stroke-width="0.100" stroke-linecap="round" opacity="0.8"/><line x1="-9.774" y1="2.430" x2="-9.660" y2="2.130" stroke="#6b7280" stroke-width="0.100" stroke-linecap="round" opacity="0.8"/><line x1="-8.595" y1="-4.300" x2="-8.225" y2="-4.773" stroke="#6b7280" stroke-width="0.100" stroke-linecap="round" opacity="0.8"/><line x1="-8.595" y1="-3.475" x2="-8.595" y2="-4.300" stroke="#6b7280" stroke-width="0.100" stroke-linecap="round" opacity="0.8"/><line x1="-8.595" y1="-3.475" x2="-8.264" y2="-3.163" stroke="#6b7280" stroke-width="0.100" stroke-linecap="round" opacity="0.8"/><line x1="-8.264" y1="-3.163" x2="-6.976" y2="-3.163" stroke="#6b7280" stroke-width="0.100" stroke-linecap="round" opacity="0.8"/><line x1="-8.225" y1="-4.773" x2="-7.015" y2="-4.773" stroke="#6b7280" stroke-width="0.100" stroke-linecap="round" opacity="0.8"/><line x1="-8.225" y1="-3.163" x2="-8.225" y2="-4.773" stroke="#6b7280" stroke-width="0.100" stroke-linecap="round" opacity="0.8"/><line x1="-8.120" y1="-0.500" x2="-7.120" y2="-0.500" stroke="#6b7280" stroke-width="0.100" stroke-linecap="round" opacity="0.8"/><line x1="-8.120" y1="0.500" x2="-8.120" y2="-0.500" stroke="#6b7280" stroke-width="0.100" stroke-linecap="round" opacity="0.8"/><line x1="-8.120" y1="0.500" x2="-7.120" y2="0.500" stroke="#6b7280" stroke-width="0.100" stroke-linecap="round" opacity="0.8"/><line x1="-8.120" y1="-0.500" x2="-7.852" y2="-0.232" stroke="#6b7280" stroke-width="0.100" stroke-linecap="round" opacity="0.8"/><line x1="-8.120" y1="0.500" x2="-7.852" y2="0.232" stroke="#6b7280" stroke-width="0.100" stroke-linecap="round" opacity="0.8"/><line x1="-7.852" y1="-0.232" x2="-7.388" y2="-0.232" stroke="#6b7280" stroke-width="0.100" stroke-linecap="round" opacity="0.8"/><line x1="-7.852" y1="0.232" x2="-7.852" y2="-0.232" stroke="#6b7280" stroke-width="0.100" stroke-linecap="round" opacity="0.8"/><line x1="-7.852" y1="0.232" x2="-7.388" y2="0.232" stroke="#6b7280" stroke-width="0.100" stroke-linecap="round" opacity="0.8"/><line x1="-7.388" y1="-0.232" x2="-7.120" y2="-0.500" stroke="#6b7280" stroke-width="0.100" stroke-linecap="round" opacity="0.8"/><line x1="-7.388" y1="0.232" x2="-7.120" y2="0.500" stroke="#6b7280" stroke-width="0.100" stroke-linecap="round" opacity="0.8"/><line x1="-7.388" y1="0.232" x2="-7.388" y2="-0.232" stroke="#6b7280" stroke-width="0.100" stroke-linecap="round" opacity="0.8"/><line x1="-7.120" y1="-0.500" x2="-7.120" y2="0.500" stroke="#6b7280" stroke-width="0.100" stroke-linecap="round" opacity="0.8"/><line x1="-7.015" y1="-4.773" x2="-6.645" y2="-4.300" stroke="#6b7280" stroke-width="0.100" stroke-linecap="round" opacity="0.8"/><line x1="-7.015" y1="-3.163" x2="-7.015" y2="-4.773" stroke="#6b7280" stroke-width="0.100" stroke-linecap="round" opacity="0.8"/><line x1="-6.976" y1="-3.163" x2="-6.645" y2="-3.475" stroke="#6b7280" stroke-width="0.100" stroke-linecap="round" opacity="0.8"/><line x1="-6.645" y1="-4.300" x2="-3.515" y2="-4.300" stroke="#6b7280" stroke-width="0.100" stroke-linecap="round" opacity="0.8"/><line x1="-6.645" y1="-3.475" x2="-6.645" y2="-4.300" stroke="#6b7280" stroke-width="0.100" stroke-linecap="round" opacity="0.8"/><line x1="-6.645" y1="-3.475" x2="-3.515" y2="-3.475" stroke="#6b7280" stroke-width="0.100" stroke-linecap="round" opacity="0.8"/><line x1="-5.580" y1="2.130" x2="-5.466" y2="2.430" stroke="#6b7280" stroke-width="0.100" stroke-linecap="round" opacity="0.8"/><line x1="-5.580" y1="2.130" x2="-4.580" y2="2.130" stroke="#6b7280" stroke-width="0.100" stroke-linecap="round" opacity="0.8"/><line x1="-5.466" y1="2.430" x2="-4.694" y2="2.430" stroke="#6b7280" stroke-width="0.100" stroke-linecap="round" opacity="0.8"/><line x1="-4.694" y1="2.430" x2="-4.580" y2="2.130" stroke="#6b7280" stroke-width="0.100" stroke-linecap="round" opacity="0.8"/><line x1="-3.515" y1="-4.300" x2="-3.145" y2="-4.773" stroke="#6b7280" stroke-width="0.100" stroke-linecap="round" opacity="0.8"/><line x1="-3.515" y1="-3.475" x2="-3.515" y2="-4.300" stroke="#6b7280" stroke-width="0.100" stroke-linecap="round" opacity="0.8"/><line x1="-3.515" y1="-3.475" x2="-3.184" y2="-3.163" stroke="#6b7280" stroke-width="0.100" stroke-linecap="round" opacity="0.8"/><line x1="-3.184" y1="-3.163" x2="-1.896" y2="-3.163" stroke="#6b7280" stroke-width="0.100" stroke-linecap="round" opacity="0.8"/><line x1="-3.145" y1="-4.773" x2="-1.935" y2="-4.773" stroke="#6b7280" stroke-width="0.100" stroke-linecap="round" opacity="0.8"/><line x1="-3.145" y1="-3.163" x2="-3.145" y2="-4.773" stroke="#6b7280" stroke-width="0.100" stroke-linecap="round" opacity="0.8"/><line x1="-3.040" y1="-0.500" x2="-2.040" y2="-0.500" stroke="#6b7280" stroke-width="0.100" stroke-linecap="round" opacity="0.8"/><line x1="-3.040" y1="0.500" x2="-3.040" y2="-0.500" stroke="#6b7280" stroke-width="0.100" stroke-linecap="round" opacity="0.8"/><line x1="-3.040" y1="0.500" x2="-2.040" y2="0.500" stroke="#6b7280" stroke-width="0.100" stroke-linecap="round" opacity="0.8"/><line x1="-3.040" y1="-0.500" x2="-2.772" y2="-0.232" stroke="#6b7280" stroke-width="0.100" stroke-linecap="round" opacity="0.8"/><line x1="-3.040" y1="0.500" x2="-2.772" y2="0.232" stroke="#6b7280" stroke-width="0.100" stroke-linecap="round" opacity="0.8"/><line x1="-2.772" y1="-0.232" x2="-2.308" y2="-0.232" stroke="#6b7280" stroke-width="0.100" stroke-linecap="round" opacity="0.8"/><line x1="-2.772" y1="0.232" x2="-2.772" y2="-0.232" stroke="#6b7280" stroke-width="0.100" stroke-linecap="round" opacity="0.8"/><line x1="-2.772" y1="0.232" x2="-2.308" y2="0.232" stroke="#6b7280" stroke-width="0.100" stroke-linecap="round" opacity="0.8"/><line x1="-2.308" y1="-0.232" x2="-2.040" y2="-0.500" stroke="#6b7280" stroke-width="0.100" stroke-linecap="round" opacity="0.8"/><line x1="-2.308" y1="0.232" x2="-2.040" y2="0.500" stroke="#6b7280" stroke-width="0.100" stroke-linecap="round" opacity="0.8"/><line x1="-2.308" y1="0.232" x2="-2.308" y2="-0.232" stroke="#6b7280" stroke-width="0.100" stroke-linecap="round" opacity="0.8"/><line x1="-2.040" y1="-0.500" x2="-2.040" y2="0.500" stroke="#6b7280" stroke-width="0.100" stroke-linecap="round" opacity="0.8"/><line x1="-1.935" y1="-4.773" x2="-1.565" y2="-4.300" stroke="#6b7280" stroke-width="0.100" stroke-linecap="round" opacity="0.8"/><line x1="-1.935" y1="-3.163" x2="-1.935" y2="-4.773" stroke="#6b7280" stroke-width="0.100" stroke-linecap="round" opacity="0.8"/><line x1="-1.896" y1="-3.163" x2="-1.565" y2="-3.475" stroke="#6b7280" stroke-width="0.100" stroke-linecap="round" opacity="0.8"/><line x1="-1.565" y1="-4.300" x2="1.565" y2="-4.300" stroke="#6b7280" stroke-width="0.100" stroke-linecap="round" opacity="0.8"/><line x1="-1.565" y1="-3.475" x2="-1.565" y2="-4.300" stroke="#6b7280" stroke-width="0.100" stroke-linecap="round" opacity="0.8"/><line x1="-1.565" y1="-3.475" x2="1.565" y2="-3.475" stroke="#6b7280" stroke-width="0.100" stroke-linecap="round" opacity="0.8"/><line x1="-0.500" y1="2.130" x2="-0.386" y2="2.430" stroke="#6b7280" stroke-width="0.100" stroke-linecap="round" opacity="0.8"/><line x1="-0.500" y1="2.130" x2="0.500" y2="2.130" stroke="#6b7280" stroke-width="0.100" stroke-linecap="round" opacity="0.8"/><line x1="-0.386" y1="2.430" x2="0.386" y2="2.430" stroke="#6b7280" stroke-width="0.100" stroke-linecap="round" opacity="0.8"/><line x1="0.386" y1="2.430" x2="0.500" y2="2.130" stroke="#6b7280" stroke-width="0.100" stroke-linecap="round" opacity="0.8"/><line x1="1.565" y1="-4.300" x2="1.935" y2="-4.773" stroke="#6b7280" stroke-width="0.100" stroke-linecap="round" opacity="0.8"/><line x1="1.565" y1="-3.475" x2="1.565" y2="-4.300" stroke="#6b7280" stroke-width="0.100" stroke-linecap="round" opacity="0.8"/><line x1="1.565" y1="-3.475" x2="1.896" y2="-3.163" stroke="#6b7280" stroke-width="0.100" stroke-linecap="round" opacity="0.8"/><line x1="1.896" y1="-3.163" x2="3.184" y2="-3.163" stroke="#6b7280" stroke-width="0.100" stroke-linecap="round" opacity="0.8"/><line x1="1.935" y1="-4.773" x2="3.145" y2="-4.773" stroke="#6b7280" stroke-width="0.100" stroke-linecap="round" opacity="0.8"/><line x1="1.935" y1="-3.163" x2="1.935" y2="-4.773" stroke="#6b7280" stroke-width="0.100" stroke-linecap="round" opacity="0.8"/><line x1="2.040" y1="-0.500" x2="3.040" y2="-0.500" stroke="#6b7280" stroke-width="0.100" stroke-linecap="round" opacity="0.8"/><line x1="2.040" y1="0.500" x2="2.040" y2="-0.500" stroke="#6b7280" stroke-width="0.100" stroke-linecap="round" opacity="0.8"/><line x1="2.040" y1="0.500" x2="3.040" y2="0.500" stroke="#6b7280" stroke-width="0.100" stroke-linecap="round" opacity="0.8"/><line x1="2.040" y1="-0.500" x2="2.308" y2="-0.232" stroke="#6b7280" stroke-width="0.100" stroke-linecap="round" opacity="0.8"/><line x1="2.040" y1="0.500" x2="2.308" y2="0.232" stroke="#6b7280" stroke-width="0.100" stroke-linecap="round" opacity="0.8"/><line x1="2.308" y1="-0.232" x2="2.772" y2="-0.232" stroke="#6b7280" stroke-width="0.100" stroke-linecap="round" opacity="0.8"/><line x1="2.308" y1="0.232" x2="2.308" y2="-0.232" stroke="#6b7280" stroke-width="0.100" stroke-linecap="round" opacity="0.8"/><line x1="2.308" y1="0.232" x2="2.772" y2="0.232" stroke="#6b7280" stroke-width="0.100" stroke-linecap="round" opacity="0.8"/><line x1="2.772" y1="-0.232" x2="3.040" y2="-0.500" stroke="#6b7280" stroke-width="0.100" stroke-linecap="round" opacity="0.8"/><line x1="2.772" y1="0.232" x2="3.040" y2="0.500" stroke="#6b7280" stroke-width="0.100" stroke-linecap="round" opacity="0.8"/><line x1="2.772" y1="0.232" x2="2.772" y2="-0.232" stroke="#6b7280" stroke-width="0.100" stroke-linecap="round" opacity="0.8"/><line x1="3.040" y1="-0.500" x2="3.040" y2="0.500" stroke="#6b7280" stroke-width="0.100" stroke-linecap="round" opacity="0.8"/><line x1="3.145" y1="-4.773" x2="3.515" y2="-4.300" stroke="#6b7280" stroke-width="0.100" stroke-linecap="round" opacity="0.8"/><line x1="3.145" y1="-3.163" x2="3.145" y2="-4.773" stroke="#6b7280" stroke-width="0.100" stroke-linecap="round" opacity="0.8"/><line x1="3.184" y1="-3.163" x2="3.515" y2="-3.475" stroke="#6b7280" stroke-width="0.100" stroke-linecap="round" opacity="0.8"/><line x1="3.515" y1="-4.300" x2="6.645" y2="-4.300" stroke="#6b7280" stroke-width="0.100" stroke-linecap="round" opacity="0.8"/><line x1="3.515" y1="-3.475" x2="3.515" y2="-4.300" stroke="#6b7280" stroke-width="0.100" stroke-linecap="round" opacity="0.8"/><line x1="3.515" y1="-3.475" x2="6.645" y2="-3.475" stroke="#6b7280" stroke-width="0.100" stroke-linecap="round" opacity="0.8"/><line x1="4.580" y1="2.130" x2="4.694" y2="2.430" stroke="#6b7280" stroke-width="0.100" stroke-linecap="round" opacity="0.8"/><line x1="4.580" y1="2.130" x2="5.580" y2="2.130" stroke="#6b7280" stroke-width="0.100" stroke-linecap="round" opacity="0.8"/><line x1="4.694" y1="2.430" x2="5.466" y2="2.430" stroke="#6b7280" stroke-width="0.100" stroke-linecap="round" opacity="0.8"/><line x1="5.466" y1="2.430" x2="5.580" y2="2.130" stroke="#6b7280" stroke-width="0.100" stroke-linecap="round" opacity="0.8"/><line x1="6.645" y1="-4.300" x2="7.015" y2="-4.773" stroke="#6b7280" stroke-width="0.100" stroke-linecap="round" opacity="0.8"/><line x1="6.645" y1="-3.475" x2="6.645" y2="-4.300" stroke="#6b7280" stroke-width="0.100" stroke-linecap="round" opacity="0.8"/><line x1="6.645" y1="-3.475" x2="6.976" y2="-3.163" stroke="#6b7280" stroke-width="0.100" stroke-linecap="round" opacity="0.8"/><line x1="6.976" y1="-3.163" x2="8.264" y2="-3.163" stroke="#6b7280" stroke-width="0.100" stroke-linecap="round" opacity="0.8"/><line x1="7.015" y1="-4.773" x2="8.225" y2="-4.773" stroke="#6b7280" stroke-width="0.100" stroke-linecap="round" opacity="0.8"/><line x1="7.015" y1="-3.163" x2="7.015" y2="-4.773" stroke="#6b7280" stroke-width="0.100" stroke-linecap="round" opacity="0.8"/><line x1="7.120" y1="-0.500" x2="8.120" y2="-0.500" stroke="#6b7280" stroke-width="0.100" stroke-linecap="round" opacity="0.8"/><line x1="7.120" y1="0.500" x2="7.120" y2="-0.500" stroke="#6b7280" stroke-width="0.100" stroke-linecap="round" opacity="0.8"/><line x1="7.120" y1="0.500" x2="8.120" y2="0.500" stroke="#6b7280" stroke-width="0.100" stroke-linecap="round" opacity="0.8"/><line x1="7.120" y1="-0.500" x2="7.388" y2="-0.232" stroke="#6b7280" stroke-width="0.100" stroke-linecap="round" opacity="0.8"/><line x1="7.120" y1="0.500" x2="7.388" y2="0.232" stroke="#6b7280" stroke-width="0.100" stroke-linecap="round" opacity="0.8"/><line x1="7.388" y1="-0.232" x2="7.852" y2="-0.232" stroke="#6b7280" stroke-width="0.100" stroke-linecap="round" opacity="0.8"/><line x1="7.388" y1="0.232" x2="7.388" y2="-0.232" stroke="#6b7280" stroke-width="0.100" stroke-linecap="round" opacity="0.8"/><line x1="7.388" y1="0.232" x2="7.852" y2="0.232" stroke="#6b7280" stroke-width="0.100" stroke-linecap="round" opacity="0.8"/><line x1="7.852" y1="-0.232" x2="8.120" y2="-0.500" stroke="#6b7280" stroke-width="0.100" stroke-linecap="round" opacity="0.8"/><line x1="7.852" y1="0.232" x2="8.120" y2="0.500" stroke="#6b7280" stroke-width="0.100" stroke-linecap="round" opacity="0.8"/><line x1="7.852" y1="0.232" x2="7.852" y2="-0.232" stroke="#6b7280" stroke-width="0.100" stroke-linecap="round" opacity="0.8"/><line x1="8.120" y1="-0.500" x2="8.120" y2="0.500" stroke="#6b7280" stroke-width="0.100" stroke-linecap="round" opacity="0.8"/><line x1="8.225" y1="-4.773" x2="8.595" y2="-4.300" stroke="#6b7280" stroke-width="0.100" stroke-linecap="round" opacity="0.8"/><line x1="8.225" y1="-3.163" x2="8.225" y2="-4.773" stroke="#6b7280" stroke-width="0.100" stroke-linecap="round" opacity="0.8"/><line x1="8.264" y1="-3.163" x2="8.595" y2="-3.475" stroke="#6b7280" stroke-width="0.100" stroke-linecap="round" opacity="0.8"/><line x1="8.595" y1="-4.300" x2="11.725" y2="-4.300" stroke="#6b7280" stroke-width="0.100" stroke-linecap="round" opacity="0.8"/><line x1="8.595" y1="-3.475" x2="8.595" y2="-4.300" stroke="#6b7280" stroke-width="0.100" stroke-linecap="round" opacity="0.8"/><line x1="8.595" y1="-3.475" x2="11.725" y2="-3.475" stroke="#6b7280" stroke-width="0.100" stroke-linecap="round" opacity="0.8"/><line x1="9.660" y1="2.130" x2="9.774" y2="2.430" stroke="#6b7280" stroke-width="0.100" stroke-linecap="round" opacity="0.8"/><line x1="9.660" y1="2.130" x2="10.661" y2="2.130" stroke="#6b7280" stroke-width="0.100" stroke-linecap="round" opacity="0.8"/><line x1="9.774" y1="2.430" x2="10.546" y2="2.430" stroke="#6b7280" stroke-width="0.100" stroke-linecap="round" opacity="0.8"/><line x1="10.546" y1="2.430" x2="10.661" y2="2.130" stroke="#6b7280" stroke-width="0.100" stroke-linecap="round" opacity="0.8"/><line x1="11.725" y1="-4.300" x2="12.095" y2="-4.773" stroke="#6b7280" stroke-width="0.100" stroke-linecap="round" opacity="0.8"/><line x1="11.725" y1="-3.475" x2="11.725" y2="-4.300" stroke="#6b7280" stroke-width="0.100" stroke-linecap="round" opacity="0.8"/><line x1="11.725" y1="-3.475" x2="12.056" y2="-3.163" stroke="#6b7280" stroke-width="0.100" stroke-linecap="round" opacity="0.8"/><line x1="12.056" y1="-3.163" x2="13.344" y2="-3.163" stroke="#6b7280" stroke-width="0.100" stroke-linecap="round" opacity="0.8"/><line x1="12.095" y1="-4.773" x2="13.305" y2="-4.773" stroke="#6b7280" stroke-width="0.100" stroke-linecap="round" opacity="0.8"/><line x1="12.095" y1="-3.163" x2="12.095" y2="-4.773" stroke="#6b7280" stroke-width="0.100" stroke-linecap="round" opacity="0.8"/><line x1="12.200" y1="-0.500" x2="13.200" y2="-0.500" stroke="#6b7280" stroke-width="0.100" stroke-linecap="round" opacity="0.8"/><line x1="12.200" y1="0.500" x2="12.200" y2="-0.500" stroke="#6b7280" stroke-width="0.100" stroke-linecap="round" opacity="0.8"/><line x1="12.200" y1="0.500" x2="13.200" y2="0.500" stroke="#6b7280" stroke-width="0.100" stroke-linecap="round" opacity="0.8"/><line x1="12.200" y1="-0.500" x2="12.468" y2="-0.232" stroke="#6b7280" stroke-width="0.100" stroke-linecap="round" opacity="0.8"/><line x1="12.200" y1="0.500" x2="12.468" y2="0.232" stroke="#6b7280" stroke-width="0.100" stroke-linecap="round" opacity="0.8"/><line x1="12.468" y1="-0.232" x2="12.932" y2="-0.232" stroke="#6b7280" stroke-width="0.100" stroke-linecap="round" opacity="0.8"/><line x1="12.468" y1="0.232" x2="12.468" y2="-0.232" stroke="#6b7280" stroke-width="0.100" stroke-linecap="round" opacity="0.8"/><line x1="12.468" y1="0.232" x2="12.932" y2="0.232" stroke="#6b7280" stroke-width="0.100" stroke-linecap="round" opacity="0.8"/><line x1="12.932" y1="-0.232" x2="13.200" y2="-0.500" stroke="#6b7280" stroke-width="0.100" stroke-linecap="round" opacity="0.8"/><line x1="12.932" y1="0.232" x2="13.200" y2="0.500" stroke="#6b7280" stroke-width="0.100" stroke-linecap="round" opacity="0.8"/><line x1="12.932" y1="0.232" x2="12.932" y2="-0.232" stroke="#6b7280" stroke-width="0.100" stroke-linecap="round" opacity="0.8"/><line x1="13.200" y1="-0.500" x2="13.200" y2="0.500" stroke="#6b7280" stroke-width="0.100" stroke-linecap="round" opacity="0.8"/><line x1="13.305" y1="-4.773" x2="13.675" y2="-4.300" stroke="#6b7280" stroke-width="0.100" stroke-linecap="round" opacity="0.8"/><line x1="13.305" y1="-3.163" x2="13.305" y2="-4.773" stroke="#6b7280" stroke-width="0.100" stroke-linecap="round" opacity="0.8"/><line x1="13.344" y1="-3.163" x2="13.675" y2="-3.475" stroke="#6b7280" stroke-width="0.100" stroke-linecap="round" opacity="0.8"/><line x1="13.675" y1="-4.300" x2="16.240" y2="-4.300" stroke="#6b7280" stroke-width="0.100" stroke-linecap="round" opacity="0.8"/><line x1="13.675" y1="-3.475" x2="13.675" y2="-4.300" stroke="#6b7280" stroke-width="0.100" stroke-linecap="round" opacity="0.8"/><line x1="13.675" y1="-3.475" x2="15.240" y2="-3.475" stroke="#6b7280" stroke-width="0.100" stroke-linecap="round" opacity="0.8"/><line x1="14.740" y1="2.130" x2="14.854" y2="2.430" stroke="#6b7280" stroke-width="0.100" stroke-linecap="round" opacity="0.8"/><line x1="14.740" y1="2.130" x2="15.240" y2="2.130" stroke="#6b7280" stroke-width="0.100" stroke-linecap="round" opacity="0.8"/><line x1="14.854" y1="2.430" x2="15.240" y2="2.430" stroke="#6b7280" stroke-width="0.100" stroke-linecap="round" opacity="0.8"/><line x1="15.240" y1="2.430" x2="15.240" y2="-3.475" stroke="#6b7280" stroke-width="0.100" stroke-linecap="round" opacity="0.8"/><line x1="16.240" y1="3.800" x2="16.240" y2="-4.800" stroke="#6b7280" stroke-width="0.100" stroke-linecap="round" opacity="0.8"/><line x1="-16.490" y1="-5.050" x2="16.490" y2="-5.050" stroke="#d24d4d" stroke-width="0.080" stroke-linecap="round" opacity="0.7"/><line x1="16.490" y1="-5.050" x2="16.490" y2="4.050" stroke="#d24d4d" stroke-width="0.080" stroke-linecap="round" opacity="0.7"/><line x1="16.490" y1="4.050" x2="-16.490" y2="4.050" stroke="#d24d4d" stroke-width="0.080" stroke-linecap="round" opacity="0.7"/><line x1="-16.490" y1="4.050" x2="-16.490" y2="-5.050" stroke="#d24d4d" stroke-width="0.080" stroke-linecap="round" opacity="0.7"/><path d="M -10.660 2.130 A 2.999 2.999 0 0 1 -14.740 2.130" fill="none" stroke="#e6e9ef" stroke-width="0.12" opacity="1"/><path d="M -10.546 2.430 A 3.301 3.301 0 0 1 -14.854 2.430" fill="none" stroke="#e6e9ef" stroke-width="0.12" opacity="1"/><path d="M -5.580 2.130 A 2.999 2.999 0 0 1 -9.660 2.130" fill="none" stroke="#e6e9ef" stroke-width="0.12" opacity="1"/><path d="M -5.466 2.430 A 3.301 3.301 0 0 1 -9.774 2.430" fill="none" stroke="#e6e9ef" stroke-width="0.12" opacity="1"/><path d="M -0.500 2.130 A 2.999 2.999 0 0 1 -4.580 2.130" fill="none" stroke="#e6e9ef" stroke-width="0.12" opacity="1"/><path d="M -0.386 2.430 A 3.301 3.301 0 0 1 -4.694 2.430" fill="none" stroke="#e6e9ef" stroke-width="0.12" opacity="1"/><path d="M 4.580 2.130 A 2.999 2.999 0 0 1 0.500 2.130" fill="none" stroke="#e6e9ef" stroke-width="0.12" opacity="1"/><path d="M 4.694 2.430 A 3.301 3.301 0 0 1 0.386 2.430" fill="none" stroke="#e6e9ef" stroke-width="0.12" opacity="1"/><path d="M 9.660 2.130 A 2.999 2.999 0 0 1 5.581 2.130" fill="none" stroke="#e6e9ef" stroke-width="0.12" opacity="1"/><path d="M 9.774 2.430 A 3.301 3.301 0 0 1 5.466 2.430" fill="none" stroke="#e6e9ef" stroke-width="0.12" opacity="1"/><path d="M 14.740 2.130 A 2.999 2.999 0 0 1 10.661 2.130" fill="none" stroke="#e6e9ef" stroke-width="0.12" opacity="1"/><path d="M 14.854 2.430 A 3.301 3.301 0 0 1 10.546 2.430" fill="none" stroke="#e6e9ef" stroke-width="0.12" opacity="1"/><path d="M -13.400 -1.212 A 1.400 1.400 0 1 1 -13.400 1.212" fill="none" stroke="#6b7280" stroke-width="0.12" opacity="0.8"/><path d="M -10.660 2.130 A 2.999 2.999 0 0 1 -14.740 2.130" fill="none" stroke="#6b7280" stroke-width="0.12" opacity="0.8"/><path d="M -10.546 2.430 A 3.301 3.301 0 0 1 -14.854 2.430" fill="none" stroke="#6b7280" stroke-width="0.12" opacity="0.8"/><path d="M -5.580 2.130 A 2.999 2.999 0 0 1 -9.660 2.130" fill="none" stroke="#6b7280" stroke-width="0.12" opacity="0.8"/><path d="M -5.466 2.430 A 3.301 3.301 0 0 1 -9.774 2.430" fill="none" stroke="#6b7280" stroke-width="0.12" opacity="0.8"/><path d="M -0.500 2.130 A 2.999 2.999 0 0 1 -4.580 2.130" fill="none" stroke="#6b7280" stroke-width="0.12" opacity="0.8"/><path d="M -0.386 2.430 A 3.301 3.301 0 0 1 -4.694 2.430" fill="none" stroke="#6b7280" stroke-width="0.12" opacity="0.8"/><path d="M 4.580 2.130 A 2.999 2.999 0 0 1 0.500 2.130" fill="none" stroke="#6b7280" stroke-width="0.12" opacity="0.8"/><path d="M 4.694 2.430 A 3.301 3.301 0 0 1 0.386 2.430" fill="none" stroke="#6b7280" stroke-width="0.12" opacity="0.8"/><path d="M 9.660 2.130 A 2.999 2.999 0 0 1 5.581 2.130" fill="none" stroke="#6b7280" stroke-width="0.12" opacity="0.8"/><path d="M 9.774 2.430 A 3.301 3.301 0 0 1 5.466 2.430" fill="none" stroke="#6b7280" stroke-width="0.12" opacity="0.8"/><path d="M 14.740 2.130 A 2.999 2.999 0 0 1 10.661 2.130" fill="none" stroke="#6b7280" stroke-width="0.12" opacity="0.8"/><path d="M 14.854 2.430 A 3.301 3.301 0 0 1 10.546 2.430" fill="none" stroke="#6b7280" stroke-width="0.12" opacity="0.8"/><circle cx="-7.620" cy="0.000" r="1.400" fill="none" stroke="#6b7280" stroke-width="0.12" opacity="0.8"/><circle cx="-2.540" cy="0.000" r="1.400" fill="none" stroke="#6b7280" stroke-width="0.12" opacity="0.8"/><circle cx="2.540" cy="0.000" r="1.400" fill="none" stroke="#6b7280" stroke-width="0.12" opacity="0.8"/><circle cx="7.620" cy="0.000" r="1.400" fill="none" stroke="#6b7280" stroke-width="0.12" opacity="0.8"/><circle cx="12.700" cy="0.000" r="1.400" fill="none" stroke="#6b7280" stroke-width="0.12" opacity="0.8"/><rect x="-13.750" y="-1.050" width="2.100" height="2.100" rx="1.050" fill="#c79b5c"/><circle cx="-12.700" cy="0.000" r="0.700" fill="#12151c"/><rect x="-8.670" y="-1.050" width="2.100" height="2.100" rx="1.050" fill="#c79b5c"/><circle cx="-7.620" cy="0.000" r="0.700" fill="#12151c"/><rect x="-3.590" y="-1.050" width="2.100" height="2.100" rx="1.050" fill="#c79b5c"/><circle cx="-2.540" cy="0.000" r="0.700" fill="#12151c"/><rect x="1.490" y="-1.050" width="2.100" height="2.100" rx="1.050" fill="#c79b5c"/><circle cx="2.540" cy="0.000" r="0.700" fill="#12151c"/><rect x="6.570" y="-1.050" width="2.100" height="2.100" rx="1.050" fill="#c79b5c"/><circle cx="7.620" cy="0.000" r="0.700" fill="#12151c"/><rect x="11.650" y="-1.050" width="2.100" height="2.100" rx="1.050" fill="#c79b5c"/><circle cx="12.700" cy="0.000" r="0.700" fill="#12151c"/><polygon points="-13.15,2.10 -12.25,2.10 -12.70,1.50" fill="#ffffff"/></svg>