<svg xmlns="http://www.w3.org/2000/svg" viewBox="-7.60 -7.60 15.20 15.20" preserveAspectRatio="xMidYMid meet" style="width:100%;height:100%"><rect x="-7.60" y="-7.60" width="15.20" height="15.20" fill="#12151c"/><line x1="-6.600" y1="-6.600" x2="6.600" y2="-6.600" stroke="#d24d4d" stroke-width="0.080" stroke-linecap="round" opacity="0.7"/><line x1="6.600" y1="-6.600" x2="6.600" y2="6.600" stroke="#d24d4d" stroke-width="0.080" stroke-linecap="round" opacity="0.7"/><line x1="6.600" y1="6.600" x2="-6.600" y2="6.600" stroke="#d24d4d" stroke-width="0.080" stroke-linecap="round" opacity="0.7"/><line x1="-6.600" y1="6.600" x2="-6.600" y2="-6.600" stroke="#d24d4d" stroke-width="0.080" stroke-linecap="round" opacity="0.7"/><path d="M -5.715 -5.080 A 0.635 0.635 0 0 1 -5.080 -5.715" fill="none" stroke="#e6e9ef" stroke-width="0.12" opacity="1"/><path d="M -5.080 5.715 A 0.635 0.635 0 0 1 -5.715 5.080" fill="none" stroke="#e6e9ef" stroke-width="0.12" opacity="1"/><path d="M -5.080 6.350 A 1.270 1.270 0 0 1 -6.350 5.080" fill="none" stroke="#e6e9ef" stroke-width="0.12" opacity="1"/><path d="M 5.080 -6.350 A 1.270 1.270 0 0 1 6.350 -5.080" fill="none" stroke="#e6e9ef" stroke-width="0.12" opacity="1"/><path d="M 5.080 -5.715 A 0.635 0.635 0 0 1 5.715 -5.080" fill="none" stroke="#e6e9ef" stroke-width="0.12" opacity="1"/><path d="M 5.715 5.080 A 0.635 0.635 0 0 1 5.080 5.715" fill="none" stroke="#e6e9ef" stroke-width="0.12" opacity="1"/><path d="M 6.350 5.080 A 1.270 1.270 0 0 1 5.080 6.350" fill="none" stroke="#e6e9ef" stroke-width="0.12" opacity="1"/><path d="M -5.715 -5.080 A 0.635 0.635 0 0 1 -5.080 -5.715" fill="none" stroke="#6b7280" stroke-width="0.12" opacity="0.8"/><path d="M -5.080 5.715 A 0.635 0.635 0 0 1 -5.715 5.080" fill="none" stroke="#6b7280" stroke-width="0.12" opacity="0.8"/><path d="M -5.080 6.350 A 1.270 1.270 0 0 1 -6.350 5.080" fill="none" stroke="#6b7280" stroke-width="0.12" opacity="0.8"/><path d="M 5.080 -6.350 A 1.270 1.270 0 0 1 6.350 -5.080" fill="none" stroke="#6b7280" stroke-width="0.12" opacity="0.8"/><path d="M 5.080 -5.715 A 0.635 0.635 0 0 1 5.715 -5.080" fill="none" stroke="#6b7280" stroke-width="0.12" opacity="0.8"/><path d="M 5.715 5.080 A 0.635 0.635 0 0 1 5.080 5.715" fill="none" stroke="#6b7280" stroke-width="0.12" opacity="0.8"/><path d="M 6.350 5.080 A 1.270 1.270 0 0 1 5.080 6.350" fill="none" stroke="#6b7280" stroke-width="0.12" opacity="0.8"/><circle cx="-5.081" cy="-5.101" r="0.125" fill="none" stroke="#e6e9ef" stroke-width="0.12" opacity="1"/><circle cx="-4.445" cy="-4.445" r="0.500" fill="none" stroke="#6b7280" stroke-width="0.12" opacity="0.8"/><rect x="-4.560" y="-4.560" width="1.500" height="1.500" rx="0.000" fill="#c79b5c"/><circle cx="-3.810" cy="-3.810" r="0.400" fill="#12151c"/><rect x="-4.560" y="3.060" width="1.500" height="1.500" rx="0.750" fill="#c79b5c"/><circle cx="-3.810" cy="3.810" r="0.400" fill="#12151c"/><rect x="3.060" y="3.060" width="1.500" height="1.500" rx="0.750" fill="#c79b5c"/><circle cx="3.810" cy="3.810" r="0.400" fill="#12151c"/><rect x="3.060" y="-4.560" width="1.500" height="1.500" rx="0.750" fill="#c79b5c"/><circle cx="3.810" cy="-3.810" r="0.400" fill="#12151c"/></svg>