<svg xmlns="http://www.w3.org/2000/svg" viewBox="-14.60 -6.05 29.45 13.50" preserveAspectRatio="xMidYMid meet" style="width:100%;height:100%"><rect x="-14.60" y="-6.05" width="29.45" height="13.50" fill="#12151c"/><line x1="-13.200" y1="-4.800" x2="13.200" y2="-4.800" stroke="#e6e9ef" stroke-width="0.200" stroke-linecap="round" opacity="1"/><line x1="-13.200" y1="-3.000" x2="-13.200" y2="-4.800" stroke="#e6e9ef" stroke-width="0.200" stroke-linecap="round" opacity="1"/><line x1="-13.200" y1="4.800" x2="-13.200" y2="-2.200" stroke="#e6e9ef" stroke-width="0.200" stroke-linecap="round" opacity="1"/><line x1="-13.200" y1="4.800" x2="13.200" y2="4.800" stroke="#e6e9ef" stroke-width="0.200" stroke-linecap="round" opacity="1"/><line x1="-12.300" y1="-3.900" x2="-10.871" y2="-3.900" stroke="#e6e9ef" stroke-width="0.200" stroke-linecap="round" opacity="1"/><line x1="-12.300" y1="-0.300" x2="-12.300" y2="-3.900" stroke="#e6e9ef" stroke-width="0.200" stroke-linecap="round" opacity="1"/><line x1="-12.300" y1="-0.300" x2="-8.700" y2="-0.300" stroke="#e6e9ef" stroke-width="0.200" stroke-linecap="round" opacity="1"/><line x1="-12.300" y1="1.200" x2="-11.400" y2="0.300" stroke="#e6e9ef" stroke-width="0.200" stroke-linecap="round" opacity="1"/><line x1="-12.300" y1="3.900" x2="-12.300" y2="1.200" stroke="#e6e9ef" stroke-width="0.200" stroke-linecap="round" opacity="1"/><line x1="-12.300" y1="3.900" x2="-11.528" y2="3.900" stroke="#e6e9ef" stroke-width="0.200" stroke-linecap="round" opacity="1"/><line x1="-11.400" y1="0.300" x2="-9.600" y2="0.300" stroke="#e6e9ef" stroke-width="0.200" stroke-linecap="round" opacity="1"/><line x1="-10.129" y1="-3.900" x2="-8.700" y2="-3.900" stroke="#e6e9ef" stroke-width="0.200" stroke-linecap="round" opacity="1"/><line x1="-9.600" y1="0.300" x2="-8.700" y2="1.200" stroke="#e6e9ef" stroke-width="0.200" stroke-linecap="round" opacity="1"/><line x1="-9.472" y1="3.900" x2="-8.700" y2="3.900" stroke="#e6e9ef" stroke-width="0.200" stroke-linecap="round" opacity="1"/><line x1="-8.700" y1="-0.300" x2="-8.700" y2="-3.900" stroke="#e6e9ef" stroke-width="0.200" stroke-linecap="round" opacity="1"/><line x1="-8.700" y1="3.900" x2="-8.700" y2="1.200" stroke="#e6e9ef" stroke-width="0.200" stroke-linecap="round" opacity="1"/><line x1="-8.100" y1="-3.000" x2="-7.200" y2="-3.900" stroke="#e6e9ef" stroke-width="0.200" stroke-linecap="round" opacity="1"/><line x1="-8.100" y1="-0.300" x2="-8.100" y2="-3.000" stroke="#e6e9ef" stroke-width="0.200" stroke-linecap="round" opacity="1"/><line x1="-8.100" y1="-0.300" x2="-4.500" y2="-0.300" stroke="#e6e9ef" stroke-width="0.200" stroke-linecap="round" opacity="1"/><line x1="-8.100" y1="0.300" x2="-4.500" y2="0.300" stroke="#e6e9ef" stroke-width="0.200" stroke-linecap="round" opacity="1"/><line x1="-8.100" y1="3.900" x2="-8.100" y2="0.300" stroke="#e6e9ef" stroke-width="0.200" stroke-linecap="round" opacity="1"/><line x1="-8.100" y1="3.900" x2="-7.328" y2="3.900" stroke="#e6e9ef" stroke-width="0.200" stroke-linecap="round" opacity="1"/><line x1="-7.200" y1="-3.900" x2="-6.671" y2="-3.900" stroke="#e6e9ef" stroke-width="0.200" stroke-linecap="round" opacity="1"/><line x1="-5.929" y1="-3.900" x2="-5.400" y2="-3.900" stroke="#e6e9ef" stroke-width="0.200" stroke-linecap="round" opacity="1"/><line x1="-5.400" y1="-3.900" x2="-4.500" y2="-3.000" stroke="#e6e9ef" stroke-width="0.200" stroke-linecap="round" opacity="1"/><line x1="-5.272" y1="3.900" x2="-4.500" y2="3.900" stroke="#e6e9ef" stroke-width="0.200" stroke-linecap="round" opacity="1"/><line x1="-4.500" y1="-0.300" x2="-4.500" y2="-3.000" stroke="#e6e9ef" stroke-width="0.200" stroke-linecap="round" opacity="1"/><line x1="-4.500" y1="3.900" x2="-4.500" y2="0.300" stroke="#e6e9ef" stroke-width="0.200" stroke-linecap="round" opacity="1"/><line x1="-3.900" y1="-3.000" x2="-3.000" y2="-3.900" stroke="#e6e9ef" stroke-width="0.200" stroke-linecap="round" opacity="1"/><line x1="-3.900" y1="-0.300" x2="-3.900" y2="-3.000" stroke="#e6e9ef" stroke-width="0.200" stroke-linecap="round" opacity="1"/><line x1="-3.900" y1="-0.300" x2="-0.300" y2="-0.300" stroke="#e6e9ef" stroke-width="0.200" stroke-linecap="round" opacity="1"/><line x1="-3.900" y1="0.300" x2="-0.300" y2="0.300" stroke="#e6e9ef" stroke-width="0.200" stroke-linecap="round" opacity="1"/><line x1="-3.900" y1="3.900" x2="-3.900" y2="0.300" stroke="#e6e9ef" stroke-width="0.200" stroke-linecap="round" opacity="1"/><line x1="-3.900" y1="3.900" x2="-3.128" y2="3.900" stroke="#e6e9ef" stroke-width="0.200" stroke-linecap="round" opacity="1"/><line x1="-3.000" y1="-3.900" x2="-2.471" y2="-3.900" stroke="#e6e9ef" stroke-width="0.200" stroke-linecap="round" opacity="1"/><line x1="-1.729" y1="-3.900" x2="-1.200" y2="-3.900" stroke="#e6e9ef" stroke-width="0.200" stroke-linecap="round" opacity="1"/><line x1="-1.700" y1="6.200" x2="-1.700" y2="4.800" stroke="#e6e9ef" stroke-width="0.200" stroke-linecap="round" opacity="1"/><line x1="-1.700" y1="6.200" x2="1.700" y2="6.200" stroke="#e6e9ef" stroke-width="0.200" stroke-linecap="round" opacity="1"/><line x1="-1.200" y1="-3.900" x2="-0.300" y2="-3.000" stroke="#e6e9ef" stroke-width="0.200" stroke-linecap="round" opacity="1"/><line x1="-1.072" y1="3.900" x2="-0.300" y2="3.900" stroke="#e6e9ef" stroke-width="0.200" stroke-linecap="round" opacity="1"/><line x1="-0.300" y1="-0.300" x2="-0.300" y2="-3.000" stroke="#e6e9ef" stroke-width="0.200" stroke-linecap="round" opacity="1"/><line x1="-0.300" y1="3.900" x2="-0.300" y2="0.300" stroke="#e6e9ef" stroke-width="0.200" stroke-linecap="round" opacity="1"/><line x1="0.300" y1="-3.900" x2="1.729" y2="-3.900" stroke="#e6e9ef" stroke-width="0.200" stroke-linecap="round" opacity="1"/><line x1="0.300" y1="-0.300" x2="0.300" y2="-3.900" stroke="#e6e9ef" stroke-width="0.200" stroke-linecap="round" opacity="1"/><line x1="0.300" y1="-0.300" x2="3.900" y2="-0.300" stroke="#e6e9ef" stroke-width="0.200" stroke-linecap="round" opacity="1"/><line x1="0.300" y1="1.200" x2="1.200" y2="0.300" stroke="#e6e9ef" stroke-width="0.200" stroke-linecap="round" opacity="1"/><line x1="0.300" y1="3.900" x2="0.300" y2="1.200" stroke="#e6e9ef" stroke-width="0.200" stroke-linecap="round" opacity="1"/><line x1="0.300" y1="3.900" x2="1.072" y2="3.900" stroke="#e6e9ef" stroke-width="0.200" stroke-linecap="round" opacity="1"/><line x1="1.200" y1="0.300" x2="3.000" y2="0.300" stroke="#e6e9ef" stroke-width="0.200" stroke-linecap="round" opacity="1"/><line x1="1.700" y1="6.200" x2="1.700" y2="4.800" stroke="#e6e9ef" stroke-width="0.200" stroke-linecap="round" opacity="1"/><line x1="2.471" y1="-3.900" x2="3.900" y2="-3.900" stroke="#e6e9ef" stroke-width="0.200" stroke-linecap="round" opacity="1"/><line x1="3.000" y1="0.300" x2="3.900" y2="1.200" stroke="#e6e9ef" stroke-width="0.200" stroke-linecap="round" opacity="1"/><line x1="3.128" y1="3.900" x2="3.900" y2="3.900" stroke="#e6e9ef" stroke-width="0.200" stroke-linecap="round" opacity="1"/><line x1="3.900" y1="-0.300" x2="3.900" y2="-3.900" stroke="#e6e9ef" stroke-width="0.200" stroke-linecap="round" opacity="1"/><line x1="3.900" y1="3.900" x2="3.900" y2="1.200" stroke="#e6e9ef" stroke-width="0.200" stroke-linecap="round" opacity="1"/><line x1="4.500" y1="-3.900" x2="5.929" y2="-3.900" stroke="#e6e9ef" stroke-width="0.200" stroke-linecap="round" opacity="1"/><line x1="4.500" y1="-0.300" x2="4.500" y2="-3.900" stroke="#e6e9ef" stroke-width="0.200" stroke-linecap="round" opacity="1"/><line x1="4.500" y1="-0.300" x2="8.100" y2="-0.300" stroke="#e6e9ef" stroke-width="0.200" stroke-linecap="round" opacity="1"/><line x1="4.500" y1="1.200" x2="5.400" y2="0.300" stroke="#e6e9ef" stroke-width="0.200" stroke-linecap="round" opacity="1"/><line x1="4.500" y1="3.900" x2="4.500" y2="1.200" stroke="#e6e9ef" stroke-width="0.200" stroke-linecap="round" opacity="1"/><line x1="4.500" y1="3.900" x2="5.272" y2="3.900" stroke="#e6e9ef" stroke-width="0.200" stroke-linecap="round" opacity="1"/><line x1="5.400" y1="0.300" x2="7.200" y2="0.300" stroke="#e6e9ef" stroke-width="0.200" stroke-linecap="round" opacity="1"/><line x1="6.671" y1="-3.900" x2="8.100" y2="-3.900" stroke="#e6e9ef" stroke-width="0.200" stroke-linecap="round" opacity="1"/><line x1="7.200" y1="0.300" x2="8.100" y2="1.200" stroke="#e6e9ef" stroke-width="0.200" stroke-linecap="round" opacity="1"/><line x1="7.328" y1="3.900" x2="8.100" y2="3.900" stroke="#e6e9ef" stroke-width="0.200" stroke-linecap="round" opacity="1"/><line x1="8.100" y1="-0.300" x2="8.100" y2="-3.900" stroke="#e6e9ef" stroke-width="0.200" stroke-linecap="round" opacity="1"/><line x1="8.100" y1="3.900" x2="8.100" y2="1.200" stroke="#e6e9ef" stroke-width="0.200" stroke-linecap="round" opacity="1"/><line x1="8.700" y1="-3.000" x2="9.600" y2="-3.900" stroke="#e6e9ef" stroke-width="0.200" stroke-linecap="round" opacity="1"/><line x1="8.700" y1="-0.300" x2="8.700" y2="-3.000" stroke="#e6e9ef" stroke-width="0.200" stroke-linecap="round" opacity="1"/><line x1="8.700" y1="-0.300" x2="12.300" y2="-0.300" stroke="#e6e9ef" stroke-width="0.200" stroke-linecap="round" opacity="1"/><line x1="8.700" y1="0.300" x2="12.300" y2="0.300" stroke="#e6e9ef" stroke-width="0.200" stroke-linecap="round" opacity="1"/><line x1="8.700" y1="3.900" x2="8.700" y2="0.300" stroke="#e6e9ef" stroke-width="0.200" stroke-linecap="round" opacity="1"/><line x1="8.700" y1="3.900" x2="9.472" y2="3.900" stroke="#e6e9ef" stroke-width="0.200" stroke-linecap="round" opacity="1"/><line x1="9.600" y1="-3.900" x2="10.129" y2="-3.900" stroke="#e6e9ef" stroke-width="0.200" stroke-linecap="round" opacity="1"/><line x1="10.871" y1="-3.900" x2="11.400" y2="-3.900" stroke="#e6e9ef" stroke-width="0.200" stroke-linecap="round" opacity="1"/><line x1="11.400" y1="-3.900" x2="12.300" y2="-3.000" stroke="#e6e9ef" stroke-width="0.200" stroke-linecap="round" opacity="1"/><line x1="11.528" y1="3.900" x2="12.300" y2="3.900" stroke="#e6e9ef" stroke-width="0.200" stroke-linecap="round" opacity="1"/><line x1="12.300" y1="-0.300" x2="12.300" y2="-3.000" stroke="#e6e9ef" stroke-width="0.200" stroke-linecap="round" opacity="1"/><line x1="12.300" y1="3.900" x2="12.300" y2="0.300" stroke="#e6e9ef" stroke-width="0.200" stroke-linecap="round" opacity="1"/><line x1="13.200" y1="1.590" x2="13.200" y2="-4.800" stroke="#e6e9ef" stroke-width="0.200" stroke-linecap="round" opacity="1"/><line x1="13.200" y1="1.590" x2="13.600" y2="1.990" stroke="#e6e9ef" stroke-width="0.200" stroke-linecap="round" opacity="1"/><line x1="13.200" y1="3.390" x2="13.600" y2="2.990" stroke="#e6e9ef" stroke-width="0.200" stroke-linecap="round" opacity="1"/><line x1="13.200" y1="4.800" x2="13.200" y2="3.390" stroke="#e6e9ef" stroke-width="0.200" stroke-linecap="round" opacity="1"/><line x1="13.600" y1="2.990" x2="13.600" y2="1.990" stroke="#e6e9ef" stroke-width="0.200" stroke-linecap="round" opacity="1"/><line x1="-11.000" y1="-2.550" x2="-10.500" y2="-2.550" stroke="#4a5160" stroke-width="0.100" stroke-linecap="round" opacity="0.7"/><line x1="-11.000" y1="2.950" x2="-10.500" y2="2.950" stroke="#4a5160" stroke-width="0.100" stroke-linecap="round" opacity="0.7"/><line x1="-10.500" y1="-2.550" x2="-10.500" y2="-3.050" stroke="#4a5160" stroke-width="0.100" stroke-linecap="round" opacity="0.7"/><line x1="-10.500" y1="-2.550" x2="-10.000" y2="-2.550" stroke="#4a5160" stroke-width="0.100" stroke-linecap="round" opacity="0.7"/><line x1="-10.500" y1="-2.050" x2="-10.500" y2="-2.550" stroke="#4a5160" stroke-width="0.100" stroke-linecap="round" opacity="0.7"/><line x1="-10.500" y1="2.950" x2="-10.500" y2="2.450" stroke="#4a5160" stroke-width="0.100" stroke-linecap="round" opacity="0.7"/><line x1="-10.500" y1="2.950" x2="-10.000" y2="2.950" stroke="#4a5160" stroke-width="0.100" stroke-linecap="round" opacity="0.7"/><line x1="-10.500" y1="3.450" x2="-10.500" y2="2.950" stroke="#4a5160" stroke-width="0.100" stroke-linecap="round" opacity="0.7"/><line x1="-6.800" y1="-2.550" x2="-6.300" y2="-2.550" stroke="#4a5160" stroke-width="0.100" stroke-linecap="round" opacity="0.7"/><line x1="-6.800" y1="2.950" x2="-6.300" y2="2.950" stroke="#4a5160" stroke-width="0.100" stroke-linecap="round" opacity="0.7"/><line x1="-6.300" y1="-2.550" x2="-6.300" y2="-3.050" stroke="#4a5160" stroke-width="0.100" stroke-linecap="round" opacity="0.7"/><line x1="-6.300" y1="-2.550" x2="-5.800" y2="-2.550" stroke="#4a5160" stroke-width="0.100" stroke-linecap="round" opacity="0.7"/><line x1="-6.300" y1="-2.050" x2="-6.300" y2="-2.550" stroke="#4a5160" stroke-width="0.100" stroke-linecap="round" opacity="0.7"/><line x1="-6.300" y1="2.950" x2="-6.300" y2="2.450" stroke="#4a5160" stroke-width="0.100" stroke-linecap="round" opacity="0.7"/><line x1="-6.300" y1="2.950" x2="-5.800" y2="2.950" stroke="#4a5160" stroke-width="0.100" stroke-linecap="round" opacity="0.7"/><line x1="-6.300" y1="3.450" x2="-6.300" y2="2.950" stroke="#4a5160" stroke-width="0.100" stroke-linecap="round" opacity="0.7"/><line x1="-2.600" y1="-2.550" x2="-2.100" y2="-2.550" stroke="#4a5160" stroke-width="0.100" stroke-linecap="round" opacity="0.7"/><line x1="-2.600" y1="2.950" x2="-2.100" y2="2.950" stroke="#4a5160" stroke-width="0.100" stroke-linecap="round" opacity="0.7"/><line x1="-2.100" y1="-2.550" x2="-2.100" y2="-3.050" stroke="#4a5160" stroke-width="0.100" stroke-linecap="round" opacity="0.7"/><line x1="-2.100" y1="-2.550" x2="-1.600" y2="-2.550" stroke="#4a5160" stroke-width="0.100" stroke-linecap="round" opacity="0.7"/><line x1="-2.100" y1="-2.050" x2="-2.100" y2="-2.550" stroke="#4a5160" stroke-width="0.100" stroke-linecap="round" opacity="0.7"/><line x1="-2.100" y1="2.950" x2="-2.100" y2="2.450" stroke="#4a5160" stroke-width="0.100" stroke-linecap="round" opacity="0.7"/><line x1="-2.100" y1="2.950" x2="-1.600" y2="2.950" stroke="#4a5160" stroke-width="0.100" stroke-linecap="round" opacity="0.7"/><line x1="-2.100" y1="3.450" x2="-2.100" y2="2.950" stroke="#4a5160" stroke-width="0.100" stroke-linecap="round" opacity="0.7"/><line x1="-0.500" y1="0.000" x2="0.000" y2="0.000" stroke="#4a5160" stroke-width="0.100" stroke-linecap="round" opacity="0.7"/><line x1="0.000" y1="0.000" x2="0.000" y2="-0.500" stroke="#4a5160" stroke-width="0.100" stroke-linecap="round" opacity="0.7"/><line x1="0.000" y1="0.000" x2="0.500" y2="0.000" stroke="#4a5160" stroke-width="0.100" stroke-linecap="round" opacity="0.7"/><line x1="0.000" y1="0.500" x2="0.000" y2="0.000" stroke="#4a5160" stroke-width="0.100" stroke-linecap="round" opacity="0.7"/><line x1="1.600" y1="-2.550" x2="2.100" y2="-2.550" stroke="#4a5160" stroke-width="0.100" stroke-linecap="round" opacity="0.7"/><line x1="1.600" y1="2.950" x2="2.100" y2="2.950" stroke="#4a5160" stroke-width="0.100" stroke-linecap="round" opacity="0.7"/><line x1="2.100" y1="-2.550" x2="2.100" y2="-3.050" stroke="#4a5160" stroke-width="0.100" stroke-linecap="round" opacity="0.7"/><line x1="2.100" y1="-2.550" x2="2.600" y2="-2.550" stroke="#4a5160" stroke-width="0.100" stroke-linecap="round" opacity="0.7"/><line x1="2.100" y1="-2.050" x2="2.100" y2="-2.550" stroke="#4a5160" stroke-width="0.100" stroke-linecap="round" opacity="0.7"/><line x1="2.100" y1="2.950" x2="2.100" y2="2.450" stroke="#4a5160" stroke-width="0.100" stroke-linecap="round" opacity="0.7"/><line x1="2.100" y1="2.950" x2="2.600" y2="2.950" stroke="#4a5160" stroke-width="0.100" stroke-linecap="round" opacity="0.7"/><line x1="2.100" y1="3.450" x2="2.100" y2="2.950" stroke="#4a5160" stroke-width="0.100" stroke-linecap="round" opacity="0.7"/><line x1="5.800" y1="-2.550" x2="6.300" y2="-2.550" stroke="#4a5160" stroke-width="0.100" stroke-linecap="round" opacity="0.7"/><line x1="5.800" y1="2.950" x2="6.300" y2="2.950" stroke="#4a5160" stroke-width="0.100" stroke-linecap="round" opacity="0.7"/><line x1="6.300" y1="-2.550" x2="6.300" y2="-3.050" stroke="#4a5160" stroke-width="0.100" stroke-linecap="round" opacity="0.7"/><line x1="6.300" y1="-2.550" x2="6.800" y2="-2.550" stroke="#4a5160" stroke-width="0.100" stroke-linecap="round" opacity="0.7"/><line x1="6.300" y1="-2.050" x2="6.300" y2="-2.550" stroke="#4a5160" stroke-width="0.100" stroke-linecap="round" opacity="0.7"/><line x1="6.300" y1="2.950" x2="6.300" y2="2.450" stroke="#4a5160" stroke-width="0.100" stroke-linecap="round" opacity="0.7"/><line x1="6.300" y1="2.950" x2="6.800" y2="2.950" stroke="#4a5160" stroke-width="0.100" stroke-linecap="round" opacity="0.7"/><line x1="6.300" y1="3.450" x2="6.300" y2="2.950" stroke="#4a5160" stroke-width="0.100" stroke-linecap="round" opacity="0.7"/><line x1="10.000" y1="-2.550" x2="10.500" y2="-2.550" stroke="#4a5160" stroke-width="0.100" stroke-linecap="round" opacity="0.7"/><line x1="10.000" y1="2.950" x2="10.500" y2="2.950" stroke="#4a5160" stroke-width="0.100" stroke-linecap="round" opacity="0.7"/><line x1="10.500" y1="-2.550" x2="10.500" y2="-3.050" stroke="#4a5160" stroke-width="0.100" stroke-linecap="round" opacity="0.7"/><line x1="10.500" y1="-2.550" x2="11.000" y2="-2.550" stroke="#4a5160" stroke-width="0.100" stroke-linecap="round" opacity="0.7"/><line x1="10.500" y1="-2.050" x2="10.500" y2="-2.550" stroke="#4a5160" stroke-width="0.100" stroke-linecap="round" opacity="0.7"/><line x1="10.500" y1="2.950" x2="10.500" y2="2.450" stroke="#4a5160" stroke-width="0.100" stroke-linecap="round" opacity="0.7"/><line x1="10.500" y1="2.950" x2="11.000" y2="2.950" stroke="#4a5160" stroke-width="0.100" stroke-linecap="round" opacity="0.7"/><line x1="10.500" y1="3.450" x2="10.500" y2="2.950" stroke="#4a5160" stroke-width="0.100" stroke-linecap="round" opacity="0.7"/><line x1="-13.200" y1="-4.800" x2="13.200" y2="-4.800" stroke="#6b7280" stroke-width="0.100" stroke-linecap="round" opacity="0.8"/><line x1="-13.200" y1="-3.000" x2="-13.200" y2="-4.800" stroke="#6b7280" stroke-width="0.100" stroke-linecap="round" opacity="0.8"/><line x1="-13.200" y1="4.800" x2="-13.200" y2="-2.200" stroke="#6b7280" stroke-width="0.100" stroke-linecap="round" opacity="0.8"/><line x1="-13.200" y1="4.800" x2="13.200" y2="4.800" stroke="#6b7280" stroke-width="0.100" stroke-linecap="round" opacity="0.8"/><line x1="-12.300" y1="-3.900" x2="-8.700" y2="-3.900" stroke="#6b7280" stroke-width="0.100" stroke-linecap="round" opacity="0.8"/><line x1="-12.300" y1="-0.300" x2="-12.300" y2="-3.900" stroke="#6b7280" stroke-width="0.100" stroke-linecap="round" opacity="0.8"/><line x1="-12.300" y1="-0.300" x2="-8.700" y2="-0.300" stroke="#6b7280" stroke-width="0.100" stroke-linecap="round" opacity="0.8"/><line x1="-12.300" y1="1.200" x2="-11.400" y2="0.300" stroke="#6b7280" stroke-width="0.100" stroke-linecap="round" opacity="0.8"/><line x1="-12.300" y1="3.900" x2="-12.300" y2="1.200" stroke="#6b7280" stroke-width="0.100" stroke-linecap="round" opacity="0.8"/><line x1="-12.300" y1="3.900" x2="-8.700" y2="3.900" stroke="#6b7280" stroke-width="0.100" stroke-linecap="round" opacity="0.8"/><line x1="-11.400" y1="0.300" x2="-9.600" y2="0.300" stroke="#6b7280" stroke-width="0.100" stroke-linecap="round" opacity="0.8"/><line x1="-11.070" y1="-2.850" x2="-9.930" y2="-2.850" stroke="#6b7280" stroke-width="0.100" stroke-linecap="round" opacity="0.8"/><line x1="-11.070" y1="-2.450" x2="-9.930" y2="-2.450" stroke="#6b7280" stroke-width="0.100" stroke-linecap="round" opacity="0.8"/><line x1="-11.070" y1="-1.310" x2="-11.070" y2="-2.850" stroke="#6b7280" stroke-width="0.100" stroke-linecap="round" opacity="0.8"/><line x1="-11.070" y1="-1.310" x2="-9.930" y2="-1.310" stroke="#6b7280" stroke-width="0.100" stroke-linecap="round" opacity="0.8"/><line x1="-11.070" y1="1.710" x2="-9.930" y2="1.710" stroke="#6b7280" stroke-width="0.100" stroke-linecap="round" opacity="0.8"/><line x1="-11.070" y1="2.850" x2="-9.930" y2="2.850" stroke="#6b7280" stroke-width="0.100" stroke-linecap="round" opacity="0.8"/><line x1="-11.070" y1="3.250" x2="-11.070" y2="1.710" stroke="#6b7280" stroke-width="0.100" stroke-linecap="round" opacity="0.8"/><line x1="-11.070" y1="3.250" x2="-9.930" y2="3.250" stroke="#6b7280" stroke-width="0.100" stroke-linecap="round" opacity="0.8"/><line x1="-9.930" y1="-1.310" x2="-9.930" y2="-2.850" stroke="#6b7280" stroke-width="0.100" stroke-linecap="round" opacity="0.8"/><line x1="-9.930" y1="3.250" x2="-9.930" y2="1.710" stroke="#6b7280" stroke-width="0.100" stroke-linecap="round" opacity="0.8"/><line x1="-9.600" y1="0.300" x2="-8.700" y2="1.200" stroke="#6b7280" stroke-width="0.100" stroke-linecap="round" opacity="0.8"/><line x1="-8.700" y1="-0.300" x2="-8.700" y2="-3.900" stroke="#6b7280" stroke-width="0.100" stroke-linecap="round" opacity="0.8"/><line x1="-8.700" y1="3.900" x2="-8.700" y2="1.200" stroke="#6b7280" stroke-width="0.100" stroke-linecap="round" opacity="0.8"/><line x1="-8.100" y1="-3.000" x2="-7.200" y2="-3.900" stroke="#6b7280" stroke-width="0.100" stroke-linecap="round" opacity="0.8"/><line x1="-8.100" y1="-0.300" x2="-8.100" y2="-3.000" stroke="#6b7280" stroke-width="0.100" stroke-linecap="round" opacity="0.8"/><line x1="-8.100" y1="-0.300" x2="-4.500" y2="-0.300" stroke="#6b7280" stroke-width="0.100" stroke-linecap="round" opacity="0.8"/><line x1="-8.100" y1="0.300" x2="-4.500" y2="0.300" stroke="#6b7280" stroke-width="0.100" stroke-linecap="round" opacity="0.8"/><line x1="-8.100" y1="3.900" x2="-8.100" y2="0.300" stroke="#6b7280" stroke-width="0.100" stroke-linecap="round" opacity="0.8"/><line x1="-8.100" y1="3.900" x2="-4.500" y2="3.900" stroke="#6b7280" stroke-width="0.100" stroke-linecap="round" opacity="0.8"/><line x1="-7.200" y1="-3.900" x2="-5.400" y2="-3.900" stroke="#6b7280" stroke-width="0.100" stroke-linecap="round" opacity="0.8"/><line x1="-6.870" y1="-2.850" x2="-5.730" y2="-2.850" stroke="#6b7280" stroke-width="0.100" stroke-linecap="round" opacity="0.8"/><line x1="-6.870" y1="-2.450" x2="-5.730" y2="-2.450" stroke="#6b7280" stroke-width="0.100" stroke-linecap="round" opacity="0.8"/><line x1="-6.870" y1="-1.310" x2="-6.870" y2="-2.850" stroke="#6b7280" stroke-width="0.100" stroke-linecap="round" opacity="0.8"/><line x1="-6.870" y1="-1.310" x2="-5.730" y2="-1.310" stroke="#6b7280" stroke-width="0.100" stroke-linecap="round" opacity="0.8"/><line x1="-6.870" y1="1.710" x2="-5.730" y2="1.710" stroke="#6b7280" stroke-width="0.100" stroke-linecap="round" opacity="0.8"/><line x1="-6.870" y1="2.850" x2="-5.730" y2="2.850" stroke="#6b7280" stroke-width="0.100" stroke-linecap="round" opacity="0.8"/><line x1="-6.870" y1="3.250" x2="-6.870" y2="1.710" stroke="#6b7280" stroke-width="0.100" stroke-linecap="round" opacity="0.8"/><line x1="-6.870" y1="3.250" x2="-5.730" y2="3.250" stroke="#6b7280" stroke-width="0.100" stroke-linecap="round" opacity="0.8"/><line x1="-5.730" y1="-1.310" x2="-5.730" y2="-2.850" stroke="#6b7280" stroke-width="0.100" stroke-linecap="round" opacity="0.8"/><line x1="-5.730" y1="3.250" x2="-5.730" y2="1.710" stroke="#6b7280" stroke-width="0.100" stroke-linecap="round" opacity="0.8"/><line x1="-5.400" y1="-3.900" x2="-4.500" y2="-3.000" stroke="#6b7280" stroke-width="0.100" stroke-linecap="round" opacity="0.8"/><line x1="-4.500" y1="-0.300" x2="-4.500" y2="-3.000" stroke="#6b7280" stroke-width="0.100" stroke-linecap="round" opacity="0.8"/><line x1="-4.500" y1="3.900" x2="-4.500" y2="0.300" stroke="#6b7280" stroke-width="0.100" stroke-linecap="round" opacity="0.8"/><line x1="-3.900" y1="-3.000" x2="-3.000" y2="-3.900" stroke="#6b7280" stroke-width="0.100" stroke-linecap="round" opacity="0.8"/><line x1="-3.900" y1="-0.300" x2="-3.900" y2="-3.000" stroke="#6b7280" stroke-width="0.100" stroke-linecap="round" opacity="0.8"/><line x1="-3.900" y1="-0.300" x2="-0.300" y2="-0.300" stroke="#6b7280" stroke-width="0.100" stroke-linecap="round" opacity="0.8"/><line x1="-3.900" y1="0.300" x2="-0.300" y2="0.300" stroke="#6b7280" stroke-width="0.100" stroke-linecap="round" opacity="0.8"/><line x1="-3.900" y1="3.900" x2="-3.900" y2="0.300" stroke="#6b7280" stroke-width="0.100" stroke-linecap="round" opacity="0.8"/><line x1="-3.900" y1="3.900" x2="-0.300" y2="3.900" stroke="#6b7280" stroke-width="0.100" stroke-linecap="round" opacity="0.8"/><line x1="-3.000" y1="-3.900" x2="-1.200" y2="-3.900" stroke="#6b7280" stroke-width="0.100" stroke-linecap="round" opacity="0.8"/><line x1="-2.670" y1="-2.850" x2="-1.530" y2="-2.850" stroke="#6b7280" stroke-width="0.100" stroke-linecap="round" opacity="0.8"/><line x1="-2.670" y1="-2.450" x2="-1.530" y2="-2.450" stroke="#6b7280" stroke-width="0.100" stroke-linecap="round" opacity="0.8"/><line x1="-2.670" y1="-1.310" x2="-2.670" y2="-2.850" stroke="#6b7280" stroke-width="0.100" stroke-linecap="round" opacity="0.8"/><line x1="-2.670" y1="-1.310" x2="-1.530" y2="-1.310" stroke="#6b7280" stroke-width="0.100" stroke-linecap="round" opacity="0.8"/><line x1="-2.670" y1="1.710" x2="-1.530" y2="1.710" stroke="#6b7280" stroke-width="0.100" stroke-linecap="round" opacity="0.8"/><line x1="-2.670" y1="2.850" x2="-1.530" y2="2.850" stroke="#6b7280" stroke-width="0.100" stroke-linecap="round" opacity="0.8"/><line x1="-2.670" y1="3.250" x2="-2.670" y2="1.710" stroke="#6b7280" stroke-width="0.100" stroke-linecap="round" opacity="0.8"/><line x1="-2.670" y1="3.250" x2="-1.530" y2="3.250" stroke="#6b7280" stroke-width="0.100" stroke-linecap="round" opacity="0.8"/><line x1="-1.700" y1="6.200" x2="-1.700" y2="4.800" stroke="#6b7280" stroke-width="0.100" stroke-linecap="round" opacity="0.8"/><line x1="-1.700" y1="6.200" x2="1.700" y2="6.200" stroke="#6b7280" stroke-width="0.100" stroke-linecap="round" opacity="0.8"/><line x1="-1.530" y1="-1.310" x2="-1.530" y2="-2.850" stroke="#6b7280" stroke-width="0.100" stroke-linecap="round" opacity="0.8"/><line x1="-1.530" y1="3.250" x2="-1.530" y2="1.710" stroke="#6b7280" stroke-width="0.100" stroke-linecap="round" opacity="0.8"/><line x1="-1.200" y1="-3.900" x2="-0.300" y2="-3.000" stroke="#6b7280" stroke-width="0.100" stroke-linecap="round" opacity="0.8"/><line x1="-0.300" y1="-0.300" x2="-0.300" y2="-3.000" stroke="#6b7280" stroke-width="0.100" stroke-linecap="round" opacity="0.8"/><line x1="-0.300" y1="3.900" x2="-0.300" y2="0.300" stroke="#6b7280" stroke-width="0.100" stroke-linecap="round" opacity="0.8"/><line x1="0.300" y1="-3.900" x2="3.900" y2="-3.900" stroke="#6b7280" stroke-width="0.100" stroke-linecap="round" opacity="0.8"/><line x1="0.300" y1="-0.300" x2="0.300" y2="-3.900" stroke="#6b7280" stroke-width="0.100" stroke-linecap="round" opacity="0.8"/><line x1="0.300" y1="-0.300" x2="3.900" y2="-0.300" stroke="#6b7280" stroke-width="0.100" stroke-linecap="round" opacity="0.8"/><line x1="0.300" y1="1.200" x2="1.200" y2="0.300" stroke="#6b7280" stroke-width="0.100" stroke-linecap="round" opacity="0.8"/><line x1="0.300" y1="3.900" x2="0.300" y2="1.200" stroke="#6b7280" stroke-width="0.100" stroke-linecap="round" opacity="0.8"/><line x1="0.300" y1="3.900" x2="3.900" y2="3.900" stroke="#6b7280" stroke-width="0.100" stroke-linecap="round" opacity="0.8"/><line x1="1.200" y1="0.300" x2="3.000" y2="0.300" stroke="#6b7280" stroke-width="0.100" stroke-linecap="round" opacity="0.8"/><line x1="1.530" y1="-2.850" x2="2.670" y2="-2.850" stroke="#6b7280" stroke-width="0.100" stroke-linecap="round" opacity="0.8"/><line x1="1.530" y1="-2.450" x2="2.670" y2="-2.450" stroke="#6b7280" stroke-width="0.100" stroke-linecap="round" opacity="0.8"/><line x1="1.530" y1="-1.310" x2="1.530" y2="-2.850" stroke="#6b7280" stroke-width="0.100" stroke-linecap="round" opacity="0.8"/><line x1="1.530" y1="-1.310" x2="2.670" y2="-1.310" stroke="#6b7280" stroke-width="0.100" stroke-linecap="round" opacity="0.8"/><line x1="1.530" y1="1.710" x2="2.670" y2="1.710" stroke="#6b7280" stroke-width="0.100" stroke-linecap="round" opacity="0.8"/><line x1="1.530" y1="2.850" x2="2.670" y2="2.850" stroke="#6b7280" stroke-width="0.100" stroke-linecap="round" opacity="0.8"/><line x1="1.530" y1="3.250" x2="1.530" y2="1.710" stroke="#6b7280" stroke-width="0.100" stroke-linecap="round" opacity="0.8"/><line x1="1.530" y1="3.250" x2="2.670" y2="3.250" stroke="#6b7280" stroke-width="0.100" stroke-linecap="round" opacity="0.8"/><line x1="1.700" y1="6.200" x2="1.700" y2="4.800" stroke="#6b7280" stroke-width="0.100" stroke-linecap="round" opacity="0.8"/><line x1="2.670" y1="-1.310" x2="2.670" y2="-2.850" stroke="#6b7280" stroke-width="0.100" stroke-linecap="round" opacity="0.8"/><line x1="2.670" y1="3.250" x2="2.670" y2="1.710" stroke="#6b7280" stroke-width="0.100" stroke-linecap="round" opacity="0.8"/><line x1="3.000" y1="0.300" x2="3.900" y2="1.200" stroke="#6b7280" stroke-width="0.100" stroke-linecap="round" opacity="0.8"/><line x1="3.900" y1="-0.300" x2="3.900" y2="-3.900" stroke="#6b7280" stroke-width="0.100" stroke-linecap="round" opacity="0.8"/><line x1="3.900" y1="3.900" x2="3.900" y2="1.200" stroke="#6b7280" stroke-width="0.100" stroke-linecap="round" opacity="0.8"/><line x1="4.500" y1="-3.900" x2="8.100" y2="-3.900" stroke="#6b7280" stroke-width="0.100" stroke-linecap="round" opacity="0.8"/><line x1="4.500" y1="-0.300" x2="4.500" y2="-3.900" stroke="#6b7280" stroke-width="0.100" stroke-linecap="round" opacity="0.8"/><line x1="4.500" y1="-0.300" x2="8.100" y2="-0.300" stroke="#6b7280" stroke-width="0.100" stroke-linecap="round" opacity="0.8"/><line x1="4.500" y1="1.200" x2="5.400" y2="0.300" stroke="#6b7280" stroke-width="0.100" stroke-linecap="round" opacity="0.8"/><line x1="4.500" y1="3.900" x2="4.500" y2="1.200" stroke="#6b7280" stroke-width="0.100" stroke-linecap="round" opacity="0.8"/><line x1="4.500" y1="3.900" x2="8.100" y2="3.900" stroke="#6b7280" stroke-width="0.100" stroke-linecap="round" opacity="0.8"/><line x1="5.400" y1="0.300" x2="7.200" y2="0.300" stroke="#6b7280" stroke-width="0.100" stroke-linecap="round" opacity="0.8"/><line x1="5.730" y1="-2.850" x2="6.870" y2="-2.850" stroke="#6b7280" stroke-width="0.100" stroke-linecap="round" opacity="0.8"/><line x1="5.730" y1="-2.450" x2="6.870" y2="-2.450" stroke="#6b7280" stroke-width="0.100" stroke-linecap="round" opacity="0.8"/><line x1="5.730" y1="-1.310" x2="5.730" y2="-2.850" stroke="#6b7280" stroke-width="0.100" stroke-linecap="round" opacity="0.8"/><line x1="5.730" y1="-1.310" x2="6.870" y2="-1.310" stroke="#6b7280" stroke-width="0.100" stroke-linecap="round" opacity="0.8"/><line x1="5.730" y1="1.710" x2="6.870" y2="1.710" stroke="#6b7280" stroke-width="0.100" stroke-linecap="round" opacity="0.8"/><line x1="5.730" y1="2.850" x2="6.870" y2="2.850" stroke="#6b7280" stroke-width="0.100" stroke-linecap="round" opacity="0.8"/><line x1="5.730" y1="3.250" x2="5.730" y2="1.710" stroke="#6b7280" stroke-width="0.100" stroke-linecap="round" opacity="0.8"/><line x1="5.730" y1="3.250" x2="6.870" y2="3.250" stroke="#6b7280" stroke-width="0.100" stroke-linecap="round" opacity="0.8"/><line x1="6.870" y1="-1.310" x2="6.870" y2="-2.850" stroke="#6b7280" stroke-width="0.100" stroke-linecap="round" opacity="0.8"/><line x1="6.870" y1="3.250" x2="6.870" y2="1.710" stroke="#6b7280" stroke-width="0.100" stroke-linecap="round" opacity="0.8"/><line x1="7.200" y1="0.300" x2="8.100" y2="1.200" stroke="#6b7280" stroke-width="0.100" stroke-linecap="round" opacity="0.8"/><line x1="8.100" y1="-0.300" x2="8.100" y2="-3.900" stroke="#6b7280" stroke-width="0.100" stroke-linecap="round" opacity="0.8"/><line x1="8.100" y1="3.900" x2="8.100" y2="1.200" stroke="#6b7280" stroke-width="0.100" stroke-linecap="round" opacity="0.8"/><line x1="8.700" y1="-3.000" x2="9.600" y2="-3.900" stroke="#6b7280" stroke-width="0.100" stroke-linecap="round" opacity="0.8"/><line x1="8.700" y1="-0.300" x2="8.700" y2="-3.000" stroke="#6b7280" stroke-width="0.100" stroke-linecap="round" opacity="0.8"/><line x1="8.700" y1="-0.300" x2="12.300" y2="-0.300" stroke="#6b7280" stroke-width="0.100" stroke-linecap="round" opacity="0.8"/><line x1="8.700" y1="0.300" x2="12.300" y2="0.300" stroke="#6b7280" stroke-width="0.100" stroke-linecap="round" opacity="0.8"/><line x1="8.700" y1="3.900" x2="8.700" y2="0.300" stroke="#6b7280" stroke-width="0.100" stroke-linecap="round" opacity="0.8"/><line x1="8.700" y1="3.900" x2="12.300" y2="3.900" stroke="#6b7280" stroke-width="0.100" stroke-linecap="round" opacity="0.8"/><line x1="9.600" y1="-3.900" x2="11.400" y2="-3.900" stroke="#6b7280" stroke-width="0.100" stroke-linecap="round" opacity="0.8"/><line x1="9.930" y1="-2.850" x2="11.070" y2="-2.850" stroke="#6b7280" stroke-width="0.100" stroke-linecap="round" opacity="0.8"/><line x1="9.930" y1="-2.450" x2="11.070" y2="-2.450" stroke="#6b7280" stroke-width="0.100" stroke-linecap="round" opacity="0.8"/><line x1="9.930" y1="-1.310" x2="9.930" y2="-2.850" stroke="#6b7280" stroke-width="0.100" stroke-linecap="round" opacity="0.8"/><line x1="9.930" y1="-1.310" x2="11.070" y2="-1.310" stroke="#6b7280" stroke-width="0.100" stroke-linecap="round" opacity="0.8"/><line x1="9.930" y1="1.710" x2="11.070" y2="1.710" stroke="#6b7280" stroke-width="0.100" stroke-linecap="round" opacity="0.8"/><line x1="9.930" y1="2.850" x2="11.070" y2="2.850" stroke="#6b7280" stroke-width="0.100" stroke-linecap="round" opacity="0.8"/><line x1="9.930" y1="3.250" x2="9.930" y2="1.710" stroke="#6b7280" stroke-width="0.100" stroke-linecap="round" opacity="0.8"/><line x1="9.930" y1="3.250" x2="11.070" y2="3.250" stroke="#6b7280" stroke-width="0.100" stroke-linecap="round" opacity="0.8"/><line x1="11.070" y1="-1.310" x2="11.070" y2="-2.850" stroke="#6b7280" stroke-width="0.100" stroke-linecap="round" opacity="0.8"/><line x1="11.070" y1="3.250" x2="11.070" y2="1.710" stroke="#6b7280" stroke-width="0.100" stroke-linecap="round" opacity="0.8"/><line x1="11.400" y1="-3.900" x2="12.300" y2="-3.000" stroke="#6b7280" stroke-width="0.100" stroke-linecap="round" opacity="0.8"/><line x1="12.300" y1="-0.300" x2="12.300" y2="-3.000" stroke="#6b7280" stroke-width="0.100" stroke-linecap="round" opacity="0.8"/><line x1="12.300" y1="3.900" x2="12.300" y2="0.300" stroke="#6b7280" stroke-width="0.100" stroke-linecap="round" opacity="0.8"/><line x1="13.200" y1="1.590" x2="13.200" y2="-4.800" stroke="#6b7280" stroke-width="0.100" stroke-linecap="round" opacity="0.8"/><line x1="13.200" y1="1.590" x2="13.600" y2="1.990" stroke="#6b7280" stroke-width="0.100" stroke-linecap="round" opacity="0.8"/><line x1="13.200" y1="3.390" x2="13.600" y2="2.990" stroke="#6b7280" stroke-width="0.100" stroke-linecap="round" opacity="0.8"/><line x1="13.200" y1="4.800" x2="13.200" y2="3.390" stroke="#6b7280" stroke-width="0.100" stroke-linecap="round" opacity="0.8"/><line x1="13.600" y1="2.990" x2="13.600" y2="1.990" stroke="#6b7280" stroke-width="0.100" stroke-linecap="round" opacity="0.8"/><line x1="-13.450" y1="-5.050" x2="13.850" y2="-5.050" stroke="#d24d4d" stroke-width="0.080" stroke-linecap="round" opacity="0.7"/><line x1="13.850" y1="-5.050" x2="13.850" y2="6.450" stroke="#d24d4d" stroke-width="0.080" stroke-linecap="round" opacity="0.7"/><line x1="13.850" y1="6.450" x2="-13.450" y2="6.450" stroke="#d24d4d" stroke-width="0.080" stroke-linecap="round" opacity="0.7"/><line x1="-13.450" y1="6.450" x2="-13.450" y2="-5.050" stroke="#d24d4d" stroke-width="0.080" stroke-linecap="round" opacity="0.7"/><path d="M -13.200 -2.200 A 0.400 0.400 0 0 1 -13.200 -3.000" fill="none" stroke="#e6e9ef" stroke-width="0.12" opacity="1"/><path d="M -13.200 -2.200 A 0.400 0.400 0 0 1 -13.200 -3.000" fill="none" stroke="#6b7280" stroke-width="0.12" opacity="0.8"/><rect x="-11.550" y="-3.600" width="2.100" height="2.100" rx="1.050" fill="#c79b5c"/><circle cx="-10.500" cy="-2.550" r="0.700" fill="#12151c"/><rect x="-7.350" y="-3.600" width="2.100" height="2.100" rx="1.050" fill="#c79b5c"/><circle cx="-6.300" cy="-2.550" r="0.700" fill="#12151c"/><rect x="-3.150" y="-3.600" width="2.100" height="2.100" rx="1.050" fill="#c79b5c"/><circle cx="-2.100" cy="-2.550" r="0.700" fill="#12151c"/><rect x="1.050" y="-3.600" width="2.100" height="2.100" rx="1.050" fill="#c79b5c"/><circle cx="2.100" cy="-2.550" r="0.700" fill="#12151c"/><rect x="5.250" y="-3.600" width="2.100" height="2.100" rx="1.050" fill="#c79b5c"/><circle cx="6.300" cy="-2.550" r="0.700" fill="#12151c"/><rect x="9.450" y="-3.600" width="2.100" height="2.100" rx="1.050" fill="#c79b5c"/><circle cx="10.500" cy="-2.550" r="0.700" fill="#12151c"/><rect x="-11.550" y="1.900" width="2.100" height="2.100" rx="1.050" fill="#c79b5c"/><circle cx="-10.500" cy="2.950" r="0.700" fill="#12151c"/><rect x="-7.350" y="1.900" width="2.100" height="2.100" rx="1.050" fill="#c79b5c"/><circle cx="-6.300" cy="2.950" r="0.700" fill="#12151c"/><rect x="-3.150" y="1.900" width="2.100" height="2.100" rx="1.050" fill="#c79b5c"/><circle cx="-2.100" cy="2.950" r="0.700" fill="#12151c"/><rect x="1.050" y="1.900" width="2.100" height="2.100" rx="1.050" fill="#c79b5c"/><circle cx="2.100" cy="2.950" r="0.700" fill="#12151c"/><rect x="5.250" y="1.900" width="2.100" height="2.100" rx="1.050" fill="#c79b5c"/><circle cx="6.300" cy="2.950" r="0.700" fill="#12151c"/><rect x="9.450" y="1.900" width="2.100" height="2.100" rx="1.050" fill="#c79b5c"/><circle cx="10.500" cy="2.950" r="0.700" fill="#12151c"/></svg>