<svg xmlns="http://www.w3.org/2000/svg" viewBox="-15.22 -11.80 27.02 23.60" preserveAspectRatio="xMidYMid meet" style="width:100%;height:100%"><rect x="-15.22" y="-11.80" width="27.02" height="23.60" fill="#12151c"/><circle cx="-14.100" cy="-10.500" r="0.125" fill="none" stroke="#e6e9ef" stroke-width="0.12" opacity="1"/><rect x="-10.800" y="-10.800" width="0.600" height="0.600" rx="0.300" fill="#c79b5c"/><rect x="-9.300" y="-10.800" width="0.600" height="0.600" rx="0.300" fill="#c79b5c"/><rect x="-7.800" y="-10.800" width="0.600" height="0.600" rx="0.300" fill="#c79b5c"/><rect x="-6.300" y="-10.800" width="0.600" height="0.600" rx="0.300" fill="#c79b5c"/><rect x="-4.800" y="-10.800" width="0.600" height="0.600" rx="0.300" fill="#c79b5c"/><rect x="-3.300" y="-10.800" width="0.600" height="0.600" rx="0.300" fill="#c79b5c"/><rect x="-1.800" y="-10.800" width="0.600" height="0.600" rx="0.300" fill="#c79b5c"/><rect x="-0.300" y="-10.800" width="0.600" height="0.600" rx="0.300" fill="#c79b5c"/><rect x="1.200" y="-10.800" width="0.600" height="0.600" rx="0.300" fill="#c79b5c"/><rect x="2.700" y="-10.800" width="0.600" height="0.600" rx="0.300" fill="#c79b5c"/><rect x="4.200" y="-10.800" width="0.600" height="0.600" rx="0.300" fill="#c79b5c"/><rect x="5.700" y="-10.800" width="0.600" height="0.600" rx="0.300" fill="#c79b5c"/><rect x="7.200" y="-10.800" width="0.600" height="0.600" rx="0.300" fill="#c79b5c"/><rect x="8.700" y="-10.800" width="0.600" height="0.600" rx="0.300" fill="#c79b5c"/><rect x="10.200" y="-10.800" width="0.600" height="0.600" rx="0.300" fill="#c79b5c"/><rect x="-10.800" y="-9.300" width="0.600" height="0.600" rx="0.300" fill="#c79b5c"/><rect x="-9.300" y="-9.300" width="0.600" height="0.600" rx="0.300" fill="#c79b5c"/><rect x="-7.800" y="-9.300" width="0.600" height="0.600" rx="0.300" fill="#c79b5c"/><rect x="-6.300" y="-9.300" width="0.600" height="0.600" rx="0.300" fill="#c79b5c"/><rect x="-4.800" y="-9.300" width="0.600" height="0.600" rx="0.300" fill="#c79b5c"/><rect x="-3.300" y="-9.300" width="0.600" height="0.600" rx="0.300" fill="#c79b5c"/><rect x="-1.800" y="-9.300" width="0.600" height="0.600" rx="0.300" fill="#c79b5c"/><rect x="-0.300" y="-9.300" width="0.600" height="0.600" rx="0.300" fill="#c79b5c"/><rect x="1.200" y="-9.300" width="0.600" height="0.600" rx="0.300" fill="#c79b5c"/><rect x="2.700" y="-9.300" width="0.600" height="0.600" rx="0.300" fill="#c79b5c"/><rect x="4.200" y="-9.300" width="0.600" height="0.600" rx="0.300" fill="#c79b5c"/><rect x="5.700" y="-9.300" width="0.600" height="0.600" rx="0.300" fill="#c79b5c"/><rect x="7.200" y="-9.300" width="0.600" height="0.600" rx="0.300" fill="#c79b5c"/><rect x="8.700" y="-9.300" width="0.600" height="0.600" rx="0.300" fill="#c79b5c"/><rect x="10.200" y="-9.300" width="0.600" height="0.600" rx="0.300" fill="#c79b5c"/><rect x="-10.800" y="-7.800" width="0.600" height="0.600" rx="0.300" fill="#c79b5c"/><rect x="-9.300" y="-7.800" width="0.600" height="0.600" rx="0.300" fill="#c79b5c"/><rect x="-7.800" y="-7.800" width="0.600" height="0.600" rx="0.300" fill="#c79b5c"/><rect x="-6.300" y="-7.800" width="0.600" height="0.600" rx="0.300" fill="#c79b5c"/><rect x="-4.800" y="-7.800" width="0.600" height="0.600" rx="0.300" fill="#c79b5c"/><rect x="-3.300" y="-7.800" width="0.600" height="0.600" rx="0.300" fill="#c79b5c"/><rect x="-1.800" y="-7.800" width="0.600" height="0.600" rx="0.300" fill="#c79b5c"/><rect x="-0.300" y="-7.800" width="0.600" height="0.600" rx="0.300" fill="#c79b5c"/><rect x="1.200" y="-7.800" width="0.600" height="0.600" rx="0.300" fill="#c79b5c"/><rect x="2.700" y="-7.800" width="0.600" height="0.600" rx="0.300" fill="#c79b5c"/><rect x="4.200" y="-7.800" width="0.600" height="0.600" rx="0.300" fill="#c79b5c"/><rect x="5.700" y="-7.800" width="0.600" height="0.600" rx="0.300" fill="#c79b5c"/><rect x="7.200" y="-7.800" width="0.600" height="0.600" rx="0.300" fill="#c79b5c"/><rect x="8.700" y="-7.800" width="0.600" height="0.600" rx="0.300" fill="#c79b5c"/><rect x="10.200" y="-7.800" width="0.600" height="0.600" rx="0.300" fill="#c79b5c"/><rect x="-10.800" y="-6.300" width="0.600" height="0.600" rx="0.300" fill="#c79b5c"/><rect x="-9.300" y="-6.300" width="0.600" height="0.600" rx="0.300" fill="#c79b5c"/><rect x="-7.800" y="-6.300" width="0.600" height="0.600" rx="0.300" fill="#c79b5c"/><rect x="-6.300" y="-6.300" width="0.600" height="0.600" rx="0.300" fill="#c79b5c"/><rect x="-4.800" y="-6.300" width="0.600" height="0.600" rx="0.300" fill="#c79b5c"/><rect x="-3.300" y="-6.300" width="0.600" height="0.600" rx="0.300" fill="#c79b5c"/><rect x="-1.800" y="-6.300" width="0.600" height="0.600" rx="0.300" fill="#c79b5c"/><rect x="-0.300" y="-6.300" width="0.600" height="0.600" rx="0.300" fill="#c79b5c"/><rect x="1.200" y="-6.300" width="0.600" height="0.600" rx="0.300" fill="#c79b5c"/><rect x="2.700" y="-6.300" width="0.600" height="0.600" rx="0.300" fill="#c79b5c"/><rect x="4.200" y="-6.300" width="0.600" height="0.600" rx="0.300" fill="#c79b5c"/><rect x="5.700" y="-6.300" width="0.600" height="0.600" rx="0.300" fill="#c79b5c"/><rect x="7.200" y="-6.300" width="0.600" height="0.600" rx="0.300" fill="#c79b5c"/><rect x="8.700" y="-6.300" width="0.600" height="0.600" rx="0.300" fill="#c79b5c"/><rect x="10.200" y="-6.300" width="0.600" height="0.600" rx="0.300" fill="#c79b5c"/><rect x="-10.800" y="-4.800" width="0.600" height="0.600" rx="0.300" fill="#c79b5c"/><rect x="-9.300" y="-4.800" width="0.600" height="0.600" rx="0.300" fill="#c79b5c"/><rect x="-7.800" y="-4.800" width="0.600" height="0.600" rx="0.300" fill="#c79b5c"/><rect x="-6.300" y="-4.800" width="0.600" height="0.600" rx="0.300" fill="#c79b5c"/><rect x="-4.800" y="-4.800" width="0.600" height="0.600" rx="0.300" fill="#c79b5c"/><rect x="-3.300" y="-4.800" width="0.600" height="0.600" rx="0.300" fill="#c79b5c"/><rect x="-1.800" y="-4.800" width="0.600" height="0.600" rx="0.300" fill="#c79b5c"/><rect x="-0.300" y="-4.800" width="0.600" height="0.600" rx="0.300" fill="#c79b5c"/><rect x="1.200" y="-4.800" width="0.600" height="0.600" rx="0.300" fill="#c79b5c"/><rect x="2.700" y="-4.800" width="0.600" height="0.600" rx="0.300" fill="#c79b5c"/><rect x="4.200" y="-4.800" width="0.600" height="0.600" rx="0.300" fill="#c79b5c"/><rect x="5.700" y="-4.800" width="0.600" height="0.600" rx="0.300" fill="#c79b5c"/><rect x="7.200" y="-4.800" width="0.600" height="0.600" rx="0.300" fill="#c79b5c"/><rect x="8.700" y="-4.800" width="0.600" height="0.600" rx="0.300" fill="#c79b5c"/><rect x="10.200" y="-4.800" width="0.600" height="0.600" rx="0.300" fill="#c79b5c"/><rect x="-10.800" y="-3.300" width="0.600" height="0.600" rx="0.300" fill="#c79b5c"/><rect x="-9.300" y="-3.300" width="0.600" height="0.600" rx="0.300" fill="#c79b5c"/><rect x="-7.800" y="-3.300" width="0.600" height="0.600" rx="0.300" fill="#c79b5c"/><rect x="-6.300" y="-3.300" width="0.600" height="0.600" rx="0.300" fill="#c79b5c"/><rect x="-4.800" y="-3.300" width="0.600" height="0.600" rx="0.300" fill="#c79b5c"/><rect x="-3.300" y="-3.300" width="0.600" height="0.600" rx="0.300" fill="#c79b5c"/><rect x="-1.800" y="-3.300" width="0.600" height="0.600" rx="0.300" fill="#c79b5c"/><rect x="-0.300" y="-3.300" width="0.600" height="0.600" rx="0.300" fill="#c79b5c"/><rect x="1.200" y="-3.300" width="0.600" height="0.600" rx="0.300" fill="#c79b5c"/><rect x="2.700" y="-3.300" width="0.600" height="0.600" rx="0.300" fill="#c79b5c"/><rect x="4.200" y="-3.300" width="0.600" height="0.600" rx="0.300" fill="#c79b5c"/><rect x="5.700" y="-3.300" width="0.600" height="0.600" rx="0.300" fill="#c79b5c"/><rect x="7.200" y="-3.300" width="0.600" height="0.600" rx="0.300" fill="#c79b5c"/><rect x="8.700" y="-3.300" width="0.600" height="0.600" rx="0.300" fill="#c79b5c"/><rect x="10.200" y="-3.300" width="0.600" height="0.600" rx="0.300" fill="#c79b5c"/><rect x="-10.800" y="-1.800" width="0.600" height="0.600" rx="0.300" fill="#c79b5c"/><rect x="-9.300" y="-1.800" width="0.600" height="0.600" rx="0.300" fill="#c79b5c"/><rect x="-7.800" y="-1.800" width="0.600" height="0.600" rx="0.300" fill="#c79b5c"/><rect x="-6.300" y="-1.800" width="0.600" height="0.600" rx="0.300" fill="#c79b5c"/><rect x="-4.800" y="-1.800" width="0.600" height="0.600" rx="0.300" fill="#c79b5c"/><rect x="-3.300" y="-1.800" width="0.600" height="0.600" rx="0.300" fill="#c79b5c"/><rect x="-1.800" y="-1.800" width="0.600" height="0.600" rx="0.300" fill="#c79b5c"/><rect x="-0.300" y="-1.800" width="0.600" height="0.600" rx="0.300" fill="#c79b5c"/><rect x="1.200" y="-1.800" width="0.600" height="0.600" rx="0.300" fill="#c79b5c"/><rect x="2.700" y="-1.800" width="0.600" height="0.600" rx="0.300" fill="#c79b5c"/><rect x="4.200" y="-1.800" width="0.600" height="0.600" rx="0.300" fill="#c79b5c"/><rect x="5.700" y="-1.800" width="0.600" height="0.600" rx="0.300" fill="#c79b5c"/><rect x="7.200" y="-1.800" width="0.600" height="0.600" rx="0.300" fill="#c79b5c"/><rect x="8.700" y="-1.800" width="0.600" height="0.600" rx="0.300" fill="#c79b5c"/><rect x="10.200" y="-1.800" width="0.600" height="0.600" rx="0.300" fill="#c79b5c"/><rect x="-10.800" y="-0.300" width="0.600" height="0.600" rx="0.300" fill="#c79b5c"/><rect x="-9.300" y="-0.300" width="0.600" height="0.600" rx="0.300" fill="#c79b5c"/><rect x="-7.800" y="-0.300" width="0.600" height="0.600" rx="0.300" fill="#c79b5c"/><rect x="-6.300" y="-0.300" width="0.600" height="0.600" rx="0.300" fill="#c79b5c"/><rect x="-4.800" y="-0.300" width="0.600" height="0.600" rx="0.300" fill="#c79b5c"/><rect x="-3.300" y="-0.300" width="0.600" height="0.600" rx="0.300" fill="#c79b5c"/><rect x="-1.800" y="-0.300" width="0.600" height="0.600" rx="0.300" fill="#c79b5c"/><rect x="-0.300" y="-0.300" width="0.600" height="0.600" rx="0.300" fill="#c79b5c"/><rect x="1.200" y="-0.300" width="0.600" height="0.600" rx="0.300" fill="#c79b5c"/><rect x="2.700" y="-0.300" width="0.600" height="0.600" rx="0.300" fill="#c79b5c"/><rect x="4.200" y="-0.300" width="0.600" height="0.600" rx="0.300" fill="#c79b5c"/><rect x="5.700" y="-0.300" width="0.600" height="0.600" rx="0.300" fill="#c79b5c"/><rect x="7.200" y="-0.300" width="0.600" height="0.600" rx="0.300" fill="#c79b5c"/><rect x="8.700" y="-0.300" width="0.600" height="0.600" rx="0.300" fill="#c79b5c"/><rect x="10.200" y="-0.300" width="0.600" height="0.600" rx="0.300" fill="#c79b5c"/><rect x="-10.800" y="1.200" width="0.600" height="0.600" rx="0.300" fill="#c79b5c"/><rect x="-9.300" y="1.200" width="0.600" height="0.600" rx="0.300" fill="#c79b5c"/><rect x="-7.800" y="1.200" width="0.600" height="0.600" rx="0.300" fill="#c79b5c"/><rect x="-6.300" y="1.200" width="0.600" height="0.600" rx="0.300" fill="#c79b5c"/><rect x="-4.800" y="1.200" width="0.600" height="0.600" rx="0.300" fill="#c79b5c"/><rect x="-3.300" y="1.200" width="0.600" height="0.600" rx="0.300" fill="#c79b5c"/><rect x="-1.800" y="1.200" width="0.600" height="0.600" rx="0.300" fill="#c79b5c"/><rect x="-0.300" y="1.200" width="0.600" height="0.600" rx="0.300" fill="#c79b5c"/><rect x="1.200" y="1.200" width="0.600" height="0.600" rx="0.300" fill="#c79b5c"/><rect x="2.700" y="1.200" width="0.600" height="0.600" rx="0.300" fill="#c79b5c"/><rect x="4.200" y="1.200" width="0.600" height="0.600" rx="0.300" fill="#c79b5c"/><rect x="5.700" y="1.200" width="0.600" height="0.600" rx="0.300" fill="#c79b5c"/><rect x="7.200" y="1.200" width="0.600" height="0.600" rx="0.300" fill="#c79b5c"/><rect x="8.700" y="1.200" width="0.600" height="0.600" rx="0.300" fill="#c79b5c"/><rect x="10.200" y="1.200" width="0.600" height="0.600" rx="0.300" fill="#c79b5c"/><rect x="-10.800" y="2.700" width="0.600" height="0.600" rx="0.300" fill="#c79b5c"/><rect x="-9.300" y="2.700" width="0.600" height="0.600" rx="0.300" fill="#c79b5c"/><rect x="-7.800" y="2.700" width="0.600" height="0.600" rx="0.300" fill="#c79b5c"/><rect x="-6.300" y="2.700" width="0.600" height="0.600" rx="0.300" fill="#c79b5c"/><rect x="-4.800" y="2.700" width="0.600" height="0.600" rx="0.300" fill="#c79b5c"/><rect x="-3.300" y="2.700" width="0.600" height="0.600" rx="0.300" fill="#c79b5c"/><rect x="-1.800" y="2.700" width="0.600" height="0.600" rx="0.300" fill="#c79b5c"/><rect x="-0.300" y="2.700" width="0.600" height="0.600" rx="0.300" fill="#c79b5c"/><rect x="1.200" y="2.700" width="0.600" height="0.600" rx="0.300" fill="#c79b5c"/><rect x="2.700" y="2.700" width="0.600" height="0.600" rx="0.300" fill="#c79b5c"/><rect x="4.200" y="2.700" width="0.600" height="0.600" rx="0.300" fill="#c79b5c"/><rect x="5.700" y="2.700" width="0.600" height="0.600" rx="0.300" fill="#c79b5c"/><rect x="7.200" y="2.700" width="0.600" height="0.600" rx="0.300" fill="#c79b5c"/><rect x="8.700" y="2.700" width="0.600" height="0.600" rx="0.300" fill="#c79b5c"/><rect x="10.200" y="2.700" width="0.600" height="0.600" rx="0.300" fill="#c79b5c"/><rect x="-10.800" y="4.200" width="0.600" height="0.600" rx="0.300" fill="#c79b5c"/><rect x="-9.300" y="4.200" width="0.600" height="0.600" rx="0.300" fill="#c79b5c"/><rect x="-7.800" y="4.200" width="0.600" height="0.600" rx="0.300" fill="#c79b5c"/><rect x="-6.300" y="4.200" width="0.600" height="0.600" rx="0.300" fill="#c79b5c"/><rect x="-4.800" y="4.200" width="0.600" height="0.600" rx="0.300" fill="#c79b5c"/><rect x="-3.300" y="4.200" width="0.600" height="0.600" rx="0.300" fill="#c79b5c"/><rect x="-1.800" y="4.200" width="0.600" height="0.600" rx="0.300" fill="#c79b5c"/><rect x="-0.300" y="4.200" width="0.600" height="0.600" rx="0.300" fill="#c79b5c"/><rect x="1.200" y="4.200" width="0.600" height="0.600" rx="0.300" fill="#c79b5c"/><rect x="2.700" y="4.200" width="0.600" height="0.600" rx="0.300" fill="#c79b5c"/><rect x="4.200" y="4.200" width="0.600" height="0.600" rx="0.300" fill="#c79b5c"/><rect x="5.700" y="4.200" width="0.600" height="0.600" rx="0.300" fill="#c79b5c"/><rect x="7.200" y="4.200" width="0.600" height="0.600" rx="0.300" fill="#c79b5c"/><rect x="8.700" y="4.200" width="0.600" height="0.600" rx="0.300" fill="#c79b5c"/><rect x="10.200" y="4.200" width="0.600" height="0.600" rx="0.300" fill="#c79b5c"/><rect x="-10.800" y="5.700" width="0.600" height="0.600" rx="0.300" fill="#c79b5c"/><rect x="-9.300" y="5.700" width="0.600" height="0.600" rx="0.300" fill="#c79b5c"/><rect x="-7.800" y="5.700" width="0.600" height="0.600" rx="0.300" fill="#c79b5c"/><rect x="-6.300" y="5.700" width="0.600" height="0.600" rx="0.300" fill="#c79b5c"/><rect x="-4.800" y="5.700" width="0.600" height="0.600" rx="0.300" fill="#c79b5c"/><rect x="-3.300" y="5.700" width="0.600" height="0.600" rx="0.300" fill="#c79b5c"/><rect x="-1.800" y="5.700" width="0.600" height="0.600" rx="0.300" fill="#c79b5c"/><rect x="-0.300" y="5.700" width="0.600" height="0.600" rx="0.300" fill="#c79b5c"/><rect x="1.200" y="5.700" width="0.600" height="0.600" rx="0.300" fill="#c79b5c"/><rect x="2.700" y="5.700" width="0.600" height="0.600" rx="0.300" fill="#c79b5c"/><rect x="4.200" y="5.700" width="0.600" height="0.600" rx="0.300" fill="#c79b5c"/><rect x="5.700" y="5.700" width="0.600" height="0.600" rx="0.300" fill="#c79b5c"/><rect x="7.200" y="5.700" width="0.600" height="0.600" rx="0.300" fill="#c79b5c"/><rect x="8.700" y="5.700" width="0.600" height="0.600" rx="0.300" fill="#c79b5c"/><rect x="10.200" y="5.700" width="0.600" height="0.600" rx="0.300" fill="#c79b5c"/><rect x="-10.800" y="7.200" width="0.600" height="0.600" rx="0.300" fill="#c79b5c"/><rect x="-9.300" y="7.200" width="0.600" height="0.600" rx="0.300" fill="#c79b5c"/><rect x="-7.800" y="7.200" width="0.600" height="0.600" rx="0.300" fill="#c79b5c"/><rect x="-6.300" y="7.200" width="0.600" height="0.600" rx="0.300" fill="#c79b5c"/><rect x="-4.800" y="7.200" width="0.600" height="0.600" rx="0.300" fill="#c79b5c"/><rect x="-3.300" y="7.200" width="0.600" height="0.600" rx="0.300" fill="#c79b5c"/><rect x="-1.800" y="7.200" width="0.600" height="0.600" rx="0.300" fill="#c79b5c"/><rect x="-0.300" y="7.200" width="0.600" height="0.600" rx="0.300" fill="#c79b5c"/><rect x="1.200" y="7.200" width="0.600" height="0.600" rx="0.300" fill="#c79b5c"/><rect x="2.700" y="7.200" width="0.600" height="0.600" rx="0.300" fill="#c79b5c"/><rect x="4.200" y="7.200" width="0.600" height="0.600" rx="0.300" fill="#c79b5c"/><rect x="5.700" y="7.200" width="0.600" height="0.600" rx="0.300" fill="#c79b5c"/><rect x="7.200" y="7.200" width="0.600" height="0.600" rx="0.300" fill="#c79b5c"/><rect x="8.700" y="7.200" width="0.600" height="0.600" rx="0.300" fill="#c79b5c"/><rect x="10.200" y="7.200" width="0.600" height="0.600" rx="0.300" fill="#c79b5c"/><rect x="-10.800" y="8.700" width="0.600" height="0.600" rx="0.300" fill="#c79b5c"/><rect x="-9.300" y="8.700" width="0.600" height="0.600" rx="0.300" fill="#c79b5c"/><rect x="-7.800" y="8.700" width="0.600" height="0.600" rx="0.300" fill="#c79b5c"/><rect x="-6.300" y="8.700" width="0.600" height="0.600" rx="0.300" fill="#c79b5c"/><rect x="-4.800" y="8.700" width="0.600" height="0.600" rx="0.300" fill="#c79b5c"/><rect x="-3.300" y="8.700" width="0.600" height="0.600" rx="0.300" fill="#c79b5c"/><rect x="-1.800" y="8.700" width="0.600" height="0.600" rx="0.300" fill="#c79b5c"/><rect x="-0.300" y="8.700" width="0.600" height="0.600" rx="0.300" fill="#c79b5c"/><rect x="1.200" y="8.700" width="0.600" height="0.600" rx="0.300" fill="#c79b5c"/><rect x="2.700" y="8.700" width="0.600" height="0.600" rx="0.300" fill="#c79b5c"/><rect x="4.200" y="8.700" width="0.600" height="0.600" rx="0.300" fill="#c79b5c"/><rect x="5.700" y="8.700" width="0.600" height="0.600" rx="0.300" fill="#c79b5c"/><rect x="7.200" y="8.700" width="0.600" height="0.600" rx="0.300" fill="#c79b5c"/><rect x="8.700" y="8.700" width="0.600" height="0.600" rx="0.300" fill="#c79b5c"/><rect x="10.200" y="8.700" width="0.600" height="0.600" rx="0.300" fill="#c79b5c"/><rect x="-10.800" y="10.200" width="0.600" height="0.600" rx="0.300" fill="#c79b5c"/><rect x="-9.300" y="10.200" width="0.600" height="0.600" rx="0.300" fill="#c79b5c"/><rect x="-7.800" y="10.200" width="0.600" height="0.600" rx="0.300" fill="#c79b5c"/><rect x="-6.300" y="10.200" width="0.600" height="0.600" rx="0.300" fill="#c79b5c"/><rect x="-4.800" y="10.200" width="0.600" height="0.600" rx="0.300" fill="#c79b5c"/><rect x="-3.300" y="10.200" width="0.600" height="0.600" rx="0.300" fill="#c79b5c"/><rect x="-1.800" y="10.200" width="0.600" height="0.600" rx="0.300" fill="#c79b5c"/><rect x="-0.300" y="10.200" width="0.600" height="0.600" rx="0.300" fill="#c79b5c"/><rect x="1.200" y="10.200" width="0.600" height="0.600" rx="0.300" fill="#c79b5c"/><rect x="2.700" y="10.200" width="0.600" height="0.600" rx="0.300" fill="#c79b5c"/><rect x="4.200" y="10.200" width="0.600" height="0.600" rx="0.300" fill="#c79b5c"/><rect x="5.700" y="10.200" width="0.600" height="0.600" rx="0.300" fill="#c79b5c"/><rect x="7.200" y="10.200" width="0.600" height="0.600" rx="0.300" fill="#c79b5c"/><rect x="8.700" y="10.200" width="0.600" height="0.600" rx="0.300" fill="#c79b5c"/><rect x="10.200" y="10.200" width="0.600" height="0.600" rx="0.300" fill="#c79b5c"/></svg>