<svg xmlns="http://www.w3.org/2000/svg" viewBox="-16.25 -16.25 32.53 32.50" preserveAspectRatio="xMidYMid meet" style="width:100%;height:100%"><rect x="-16.25" y="-16.25" width="32.53" height="32.50" fill="#12151c"/><line x1="-8.150" y1="0.000" x2="-7.150" y2="0.000" stroke="#e6e9ef" stroke-width="0.200" stroke-linecap="round" opacity="1"/><line x1="-7.650" y1="0.500" x2="-7.650" y2="-0.500" stroke="#e6e9ef" stroke-width="0.200" stroke-linecap="round" opacity="1"/><line x1="3.650" y1="4.750" x2="4.650" y2="4.750" stroke="#e6e9ef" stroke-width="0.200" stroke-linecap="round" opacity="1"/><line x1="7.150" y1="0.000" x2="8.150" y2="0.000" stroke="#e6e9ef" stroke-width="0.200" stroke-linecap="round" opacity="1"/><line x1="11.475" y1="-2.375" x2="15.000" y2="-2.375" stroke="#e6e9ef" stroke-width="0.254" stroke-linecap="round" opacity="1"/><line x1="11.475" y1="2.625" x2="11.475" y2="-2.375" stroke="#e6e9ef" stroke-width="0.254" stroke-linecap="round" opacity="1"/><line x1="11.475" y1="2.625" x2="15.000" y2="2.625" stroke="#e6e9ef" stroke-width="0.254" stroke-linecap="round" opacity="1"/><line x1="12.094" y1="0.125" x2="14.634" y2="0.125" stroke="#e6e9ef" stroke-width="0.800" stroke-linecap="round" opacity="1"/><line x1="-0.500" y1="0.000" x2="0.000" y2="0.000" stroke="#4a5160" stroke-width="0.100" stroke-linecap="round" opacity="0.7"/><line x1="0.000" y1="0.000" x2="0.000" y2="-0.500" stroke="#4a5160" stroke-width="0.100" stroke-linecap="round" opacity="0.7"/><line x1="0.000" y1="0.000" x2="0.500" y2="0.000" stroke="#4a5160" stroke-width="0.100" stroke-linecap="round" opacity="0.7"/><line x1="0.000" y1="0.500" x2="0.000" y2="0.000" stroke="#4a5160" stroke-width="0.100" stroke-linecap="round" opacity="0.7"/><line x1="-8.150" y1="0.000" x2="-7.150" y2="0.000" stroke="#6b7280" stroke-width="0.100" stroke-linecap="round" opacity="0.8"/><line x1="-7.650" y1="0.500" x2="-7.650" y2="-0.500" stroke="#6b7280" stroke-width="0.100" stroke-linecap="round" opacity="0.8"/><line x1="3.650" y1="4.750" x2="4.650" y2="4.750" stroke="#6b7280" stroke-width="0.100" stroke-linecap="round" opacity="0.8"/><line x1="7.150" y1="0.000" x2="8.150" y2="0.000" stroke="#6b7280" stroke-width="0.100" stroke-linecap="round" opacity="0.8"/><line x1="11.475" y1="-2.375" x2="15.025" y2="-2.375" stroke="#6b7280" stroke-width="0.100" stroke-linecap="round" opacity="0.8"/><line x1="11.475" y1="2.625" x2="11.475" y2="-2.375" stroke="#6b7280" stroke-width="0.100" stroke-linecap="round" opacity="0.8"/><line x1="11.475" y1="2.625" x2="15.025" y2="2.625" stroke="#6b7280" stroke-width="0.100" stroke-linecap="round" opacity="0.8"/><line x1="12.094" y1="0.125" x2="14.634" y2="0.125" stroke="#6b7280" stroke-width="0.800" stroke-linecap="round" opacity="0.8"/><line x1="-8.400" y1="-2.620" x2="15.280" y2="-2.620" stroke="#d24d4d" stroke-width="0.080" stroke-linecap="round" opacity="0.7"/><line x1="15.280" y1="-2.620" x2="15.280" y2="6.600" stroke="#d24d4d" stroke-width="0.080" stroke-linecap="round" opacity="0.7"/><line x1="15.280" y1="6.600" x2="-8.400" y2="6.600" stroke="#d24d4d" stroke-width="0.080" stroke-linecap="round" opacity="0.7"/><line x1="-8.400" y1="6.600" x2="-8.400" y2="-2.620" stroke="#d24d4d" stroke-width="0.080" stroke-linecap="round" opacity="0.7"/><circle cx="0.000" cy="0.000" r="15.250" fill="none" stroke="#e6e9ef" stroke-width="0.12" opacity="1"/><circle cx="0.000" cy="0.000" r="15.250" fill="none" stroke="#6b7280" stroke-width="0.12" opacity="0.8"/><rect x="-6.350" y="-1.350" width="2.700" height="2.700" rx="0.000" fill="#c79b5c"/><circle cx="-5.000" cy="0.000" r="1.000" fill="#12151c"/><rect x="3.650" y="-1.350" width="2.700" height="2.700" rx="1.350" fill="#c79b5c"/><circle cx="5.000" cy="0.000" r="1.000" fill="#12151c"/><rect x="0.100" y="3.150" width="3.200" height="3.200" rx="1.600" fill="#c79b5c"/><circle cx="1.700" cy="4.750" r="1.250" fill="#12151c"/></svg>