<svg xmlns="http://www.w3.org/2000/svg" viewBox="-7.55 -8.63 37.42 17.26" preserveAspectRatio="xMidYMid meet" style="width:100%;height:100%"><rect x="-7.55" y="-8.63" width="37.42" height="17.26" fill="#12151c"/><line x1="-6.304" y1="-7.379" x2="7.412" y2="-7.379" stroke="#e6e9ef" stroke-width="0.200" stroke-linecap="round" opacity="1"/><line x1="-6.304" y1="-3.429" x2="-6.304" y2="-7.379" stroke="#e6e9ef" stroke-width="0.200" stroke-linecap="round" opacity="1"/><line x1="-6.304" y1="-3.429" x2="-5.810" y2="-3.429" stroke="#e6e9ef" stroke-width="0.200" stroke-linecap="round" opacity="1"/><line x1="-6.304" y1="-0.838" x2="-6.304" y2="-1.702" stroke="#e6e9ef" stroke-width="0.200" stroke-linecap="round" opacity="1"/><line x1="-6.304" y1="3.429" x2="-3.510" y2="3.429" stroke="#e6e9ef" stroke-width="0.200" stroke-linecap="round" opacity="1"/><line x1="-6.304" y1="7.379" x2="-6.304" y2="0.838" stroke="#e6e9ef" stroke-width="0.200" stroke-linecap="round" opacity="1"/><line x1="-6.304" y1="7.379" x2="7.412" y2="7.379" stroke="#e6e9ef" stroke-width="0.200" stroke-linecap="round" opacity="1"/><line x1="-4.350" y1="-3.429" x2="-3.510" y2="-3.429" stroke="#e6e9ef" stroke-width="0.200" stroke-linecap="round" opacity="1"/><line x1="-3.986" y1="-2.896" x2="-3.510" y2="-2.896" stroke="#e6e9ef" stroke-width="0.200" stroke-linecap="round" opacity="1"/><line x1="-3.986" y1="-2.184" x2="-3.510" y2="-2.184" stroke="#e6e9ef" stroke-width="0.200" stroke-linecap="round" opacity="1"/><line x1="-3.982" y1="-0.343" x2="-3.510" y2="-0.343" stroke="#e6e9ef" stroke-width="0.200" stroke-linecap="round" opacity="1"/><line x1="-3.982" y1="0.343" x2="-3.510" y2="0.343" stroke="#e6e9ef" stroke-width="0.200" stroke-linecap="round" opacity="1"/><line x1="-3.510" y1="3.429" x2="-3.510" y2="-3.429" stroke="#e6e9ef" stroke-width="0.200" stroke-linecap="round" opacity="1"/><line x1="7.412" y1="-6.295" x2="8.742" y2="-6.295" stroke="#e6e9ef" stroke-width="0.200" stroke-linecap="round" opacity="1"/><line x1="7.412" y1="-3.123" x2="8.375" y2="-3.123" stroke="#e6e9ef" stroke-width="0.200" stroke-linecap="round" opacity="1"/><line x1="7.412" y1="3.123" x2="8.375" y2="3.123" stroke="#e6e9ef" stroke-width="0.200" stroke-linecap="round" opacity="1"/><line x1="7.412" y1="6.295" x2="8.375" y2="6.295" stroke="#e6e9ef" stroke-width="0.200" stroke-linecap="round" opacity="1"/><line x1="7.412" y1="7.379" x2="7.412" y2="-7.379" stroke="#e6e9ef" stroke-width="0.200" stroke-linecap="round" opacity="1"/><line x1="8.375" y1="-3.123" x2="8.375" y2="-6.295" stroke="#e6e9ef" stroke-width="0.200" stroke-linecap="round" opacity="1"/><line x1="8.375" y1="6.295" x2="8.375" y2="3.123" stroke="#e6e9ef" stroke-width="0.200" stroke-linecap="round" opacity="1"/><line x1="8.375" y1="6.295" x2="8.578" y2="5.944" stroke="#e6e9ef" stroke-width="0.200" stroke-linecap="round" opacity="1"/><line x1="8.578" y1="5.944" x2="8.880" y2="5.944" stroke="#e6e9ef" stroke-width="0.200" stroke-linecap="round" opacity="1"/><line x1="8.742" y1="-6.295" x2="9.083" y2="-5.705" stroke="#e6e9ef" stroke-width="0.200" stroke-linecap="round" opacity="1"/><line x1="8.880" y1="5.944" x2="9.083" y2="6.295" stroke="#e6e9ef" stroke-width="0.200" stroke-linecap="round" opacity="1"/><line x1="9.083" y1="-5.705" x2="9.200" y2="-5.705" stroke="#e6e9ef" stroke-width="0.200" stroke-linecap="round" opacity="1"/><line x1="9.083" y1="6.295" x2="9.200" y2="6.295" stroke="#e6e9ef" stroke-width="0.200" stroke-linecap="round" opacity="1"/><line x1="9.200" y1="-5.705" x2="9.485" y2="-6.197" stroke="#e6e9ef" stroke-width="0.200" stroke-linecap="round" opacity="1"/><line x1="9.200" y1="6.295" x2="9.485" y2="5.802" stroke="#e6e9ef" stroke-width="0.200" stroke-linecap="round" opacity="1"/><line x1="9.485" y1="-6.197" x2="9.704" y2="-6.197" stroke="#e6e9ef" stroke-width="0.200" stroke-linecap="round" opacity="1"/><line x1="9.485" y1="5.802" x2="9.704" y2="5.802" stroke="#e6e9ef" stroke-width="0.200" stroke-linecap="round" opacity="1"/><line x1="9.704" y1="-6.197" x2="9.989" y2="-5.705" stroke="#e6e9ef" stroke-width="0.200" stroke-linecap="round" opacity="1"/><line x1="9.704" y1="5.802" x2="9.989" y2="6.295" stroke="#e6e9ef" stroke-width="0.200" stroke-linecap="round" opacity="1"/><line x1="9.989" y1="-5.705" x2="10.107" y2="-5.705" stroke="#e6e9ef" stroke-width="0.200" stroke-linecap="round" opacity="1"/><line x1="9.989" y1="6.295" x2="10.107" y2="6.295" stroke="#e6e9ef" stroke-width="0.200" stroke-linecap="round" opacity="1"/><line x1="10.107" y1="-5.705" x2="10.390" y2="-6.196" stroke="#e6e9ef" stroke-width="0.200" stroke-linecap="round" opacity="1"/><line x1="10.107" y1="6.295" x2="10.390" y2="5.804" stroke="#e6e9ef" stroke-width="0.200" stroke-linecap="round" opacity="1"/><line x1="10.390" y1="-6.196" x2="10.614" y2="-6.196" stroke="#e6e9ef" stroke-width="0.200" stroke-linecap="round" opacity="1"/><line x1="10.390" y1="5.804" x2="10.614" y2="5.804" stroke="#e6e9ef" stroke-width="0.200" stroke-linecap="round" opacity="1"/><line x1="10.614" y1="-6.196" x2="10.898" y2="-5.705" stroke="#e6e9ef" stroke-width="0.200" stroke-linecap="round" opacity="1"/><line x1="10.614" y1="5.804" x2="10.898" y2="6.295" stroke="#e6e9ef" stroke-width="0.200" stroke-linecap="round" opacity="1"/><line x1="10.898" y1="-5.705" x2="11.016" y2="-5.705" stroke="#e6e9ef" stroke-width="0.200" stroke-linecap="round" opacity="1"/><line x1="10.898" y1="6.295" x2="11.016" y2="6.295" stroke="#e6e9ef" stroke-width="0.200" stroke-linecap="round" opacity="1"/><line x1="11.016" y1="-5.705" x2="11.300" y2="-6.197" stroke="#e6e9ef" stroke-width="0.200" stroke-linecap="round" opacity="1"/><line x1="11.016" y1="6.295" x2="11.300" y2="5.802" stroke="#e6e9ef" stroke-width="0.200" stroke-linecap="round" opacity="1"/><line x1="11.300" y1="-6.197" x2="11.520" y2="-6.197" stroke="#e6e9ef" stroke-width="0.200" stroke-linecap="round" opacity="1"/><line x1="11.300" y1="5.802" x2="11.520" y2="5.802" stroke="#e6e9ef" stroke-width="0.200" stroke-linecap="round" opacity="1"/><line x1="11.520" y1="-6.197" x2="11.804" y2="-5.705" stroke="#e6e9ef" stroke-width="0.200" stroke-linecap="round" opacity="1"/><line x1="11.520" y1="5.802" x2="11.804" y2="6.295" stroke="#e6e9ef" stroke-width="0.200" stroke-linecap="round" opacity="1"/><line x1="11.804" y1="-5.705" x2="11.922" y2="-5.705" stroke="#e6e9ef" stroke-width="0.200" stroke-linecap="round" opacity="1"/><line x1="11.804" y1="6.295" x2="11.922" y2="6.295" stroke="#e6e9ef" stroke-width="0.200" stroke-linecap="round" opacity="1"/><line x1="11.922" y1="-5.705" x2="12.206" y2="-6.196" stroke="#e6e9ef" stroke-width="0.200" stroke-linecap="round" opacity="1"/><line x1="11.922" y1="6.295" x2="12.206" y2="5.804" stroke="#e6e9ef" stroke-width="0.200" stroke-linecap="round" opacity="1"/><line x1="12.206" y1="-6.196" x2="12.430" y2="-6.196" stroke="#e6e9ef" stroke-width="0.200" stroke-linecap="round" opacity="1"/><line x1="12.206" y1="5.804" x2="12.430" y2="5.804" stroke="#e6e9ef" stroke-width="0.200" stroke-linecap="round" opacity="1"/><line x1="12.430" y1="-6.196" x2="12.713" y2="-5.705" stroke="#e6e9ef" stroke-width="0.200" stroke-linecap="round" opacity="1"/><line x1="12.430" y1="5.804" x2="12.713" y2="6.295" stroke="#e6e9ef" stroke-width="0.200" stroke-linecap="round" opacity="1"/><line x1="12.713" y1="-5.705" x2="12.831" y2="-5.705" stroke="#e6e9ef" stroke-width="0.200" stroke-linecap="round" opacity="1"/><line x1="12.713" y1="6.295" x2="12.831" y2="6.295" stroke="#e6e9ef" stroke-width="0.200" stroke-linecap="round" opacity="1"/><line x1="12.831" y1="-5.705" x2="13.115" y2="-6.197" stroke="#e6e9ef" stroke-width="0.200" stroke-linecap="round" opacity="1"/><line x1="12.831" y1="6.295" x2="13.115" y2="5.802" stroke="#e6e9ef" stroke-width="0.200" stroke-linecap="round" opacity="1"/><line x1="13.115" y1="-6.197" x2="13.335" y2="-6.197" stroke="#e6e9ef" stroke-width="0.200" stroke-linecap="round" opacity="1"/><line x1="13.115" y1="5.802" x2="13.335" y2="5.802" stroke="#e6e9ef" stroke-width="0.200" stroke-linecap="round" opacity="1"/><line x1="13.335" y1="-6.197" x2="13.620" y2="-5.705" stroke="#e6e9ef" stroke-width="0.200" stroke-linecap="round" opacity="1"/><line x1="13.335" y1="5.802" x2="13.620" y2="6.295" stroke="#e6e9ef" stroke-width="0.200" stroke-linecap="round" opacity="1"/><line x1="13.620" y1="-5.705" x2="13.737" y2="-5.705" stroke="#e6e9ef" stroke-width="0.200" stroke-linecap="round" opacity="1"/><line x1="13.620" y1="6.295" x2="13.737" y2="6.295" stroke="#e6e9ef" stroke-width="0.200" stroke-linecap="round" opacity="1"/><line x1="13.737" y1="-5.705" x2="14.021" y2="-6.196" stroke="#e6e9ef" stroke-width="0.200" stroke-linecap="round" opacity="1"/><line x1="13.737" y1="6.295" x2="14.021" y2="5.804" stroke="#e6e9ef" stroke-width="0.200" stroke-linecap="round" opacity="1"/><line x1="14.021" y1="-6.196" x2="14.245" y2="-6.196" stroke="#e6e9ef" stroke-width="0.200" stroke-linecap="round" opacity="1"/><line x1="14.021" y1="5.804" x2="14.245" y2="5.804" stroke="#e6e9ef" stroke-width="0.200" stroke-linecap="round" opacity="1"/><line x1="14.245" y1="-6.196" x2="14.529" y2="-5.705" stroke="#e6e9ef" stroke-width="0.200" stroke-linecap="round" opacity="1"/><line x1="14.245" y1="5.804" x2="14.529" y2="6.295" stroke="#e6e9ef" stroke-width="0.200" stroke-linecap="round" opacity="1"/><line x1="14.529" y1="-5.705" x2="14.646" y2="-5.705" stroke="#e6e9ef" stroke-width="0.200" stroke-linecap="round" opacity="1"/><line x1="14.529" y1="6.295" x2="14.646" y2="6.295" stroke="#e6e9ef" stroke-width="0.200" stroke-linecap="round" opacity="1"/><line x1="14.646" y1="-5.705" x2="14.931" y2="-6.197" stroke="#e6e9ef" stroke-width="0.200" stroke-linecap="round" opacity="1"/><line x1="14.646" y1="6.295" x2="14.931" y2="5.802" stroke="#e6e9ef" stroke-width="0.200" stroke-linecap="round" opacity="1"/><line x1="14.931" y1="-6.197" x2="15.151" y2="-6.197" stroke="#e6e9ef" stroke-width="0.200" stroke-linecap="round" opacity="1"/><line x1="14.931" y1="5.802" x2="15.151" y2="5.802" stroke="#e6e9ef" stroke-width="0.200" stroke-linecap="round" opacity="1"/><line x1="15.151" y1="-6.197" x2="15.435" y2="-5.705" stroke="#e6e9ef" stroke-width="0.200" stroke-linecap="round" opacity="1"/><line x1="15.151" y1="5.802" x2="15.435" y2="6.295" stroke="#e6e9ef" stroke-width="0.200" stroke-linecap="round" opacity="1"/><line x1="15.435" y1="-5.705" x2="15.553" y2="-5.705" stroke="#e6e9ef" stroke-width="0.200" stroke-linecap="round" opacity="1"/><line x1="15.435" y1="6.295" x2="15.553" y2="6.295" stroke="#e6e9ef" stroke-width="0.200" stroke-linecap="round" opacity="1"/><line x1="15.553" y1="-5.705" x2="15.764" y2="-6.070" stroke="#e6e9ef" stroke-width="0.200" stroke-linecap="round" opacity="1"/><line x1="15.553" y1="6.295" x2="15.836" y2="5.804" stroke="#e6e9ef" stroke-width="0.200" stroke-linecap="round" opacity="1"/><line x1="15.764" y1="-6.070" x2="16.175" y2="-5.660" stroke="#e6e9ef" stroke-width="0.200" stroke-linecap="round" opacity="1"/><line x1="15.836" y1="5.804" x2="16.030" y2="5.804" stroke="#e6e9ef" stroke-width="0.200" stroke-linecap="round" opacity="1"/><line x1="16.031" y1="5.804" x2="16.175" y2="5.660" stroke="#e6e9ef" stroke-width="0.200" stroke-linecap="round" opacity="1"/><line x1="16.175" y1="-4.445" x2="16.556" y2="-4.445" stroke="#e6e9ef" stroke-width="0.200" stroke-linecap="round" opacity="1"/><line x1="16.175" y1="4.445" x2="16.556" y2="4.445" stroke="#e6e9ef" stroke-width="0.200" stroke-linecap="round" opacity="1"/><line x1="16.175" y1="5.660" x2="16.175" y2="-5.660" stroke="#e6e9ef" stroke-width="0.200" stroke-linecap="round" opacity="1"/><line x1="16.556" y1="-4.826" x2="28.621" y2="-4.826" stroke="#e6e9ef" stroke-width="0.200" stroke-linecap="round" opacity="1"/><line x1="16.556" y1="4.826" x2="16.556" y2="-4.826" stroke="#e6e9ef" stroke-width="0.200" stroke-linecap="round" opacity="1"/><line x1="16.556" y1="4.826" x2="28.621" y2="4.826" stroke="#e6e9ef" stroke-width="0.200" stroke-linecap="round" opacity="1"/><line x1="28.621" y1="4.826" x2="28.621" y2="-4.826" stroke="#e6e9ef" stroke-width="0.200" stroke-linecap="round" opacity="1"/><line x1="-5.280" y1="-2.540" x2="-5.080" y2="-2.540" stroke="#4a5160" stroke-width="0.100" stroke-linecap="round" opacity="0.7"/><line x1="-5.280" y1="0.000" x2="-5.080" y2="0.000" stroke="#4a5160" stroke-width="0.100" stroke-linecap="round" opacity="0.7"/><line x1="-5.080" y1="-2.540" x2="-5.080" y2="-2.740" stroke="#4a5160" stroke-width="0.100" stroke-linecap="round" opacity="0.7"/><line x1="-5.080" y1="-2.540" x2="-4.880" y2="-2.540" stroke="#4a5160" stroke-width="0.100" stroke-linecap="round" opacity="0.7"/><line x1="-5.080" y1="-2.340" x2="-5.080" y2="-2.540" stroke="#4a5160" stroke-width="0.100" stroke-linecap="round" opacity="0.7"/><line x1="-5.080" y1="0.000" x2="-5.080" y2="-0.200" stroke="#4a5160" stroke-width="0.100" stroke-linecap="round" opacity="0.7"/><line x1="-5.080" y1="0.000" x2="-4.880" y2="0.000" stroke="#4a5160" stroke-width="0.100" stroke-linecap="round" opacity="0.7"/><line x1="-5.080" y1="0.200" x2="-5.080" y2="0.000" stroke="#4a5160" stroke-width="0.100" stroke-linecap="round" opacity="0.7"/><line x1="-0.500" y1="0.000" x2="0.000" y2="0.000" stroke="#4a5160" stroke-width="0.100" stroke-linecap="round" opacity="0.7"/><line x1="-0.200" y1="-5.080" x2="0.000" y2="-5.080" stroke="#4a5160" stroke-width="0.100" stroke-linecap="round" opacity="0.7"/><line x1="-0.200" y1="5.080" x2="0.000" y2="5.080" stroke="#4a5160" stroke-width="0.100" stroke-linecap="round" opacity="0.7"/><line x1="0.000" y1="-5.080" x2="0.000" y2="-5.280" stroke="#4a5160" stroke-width="0.100" stroke-linecap="round" opacity="0.7"/><line x1="0.000" y1="-5.080" x2="0.200" y2="-5.080" stroke="#4a5160" stroke-width="0.100" stroke-linecap="round" opacity="0.7"/><line x1="0.000" y1="-4.880" x2="0.000" y2="-5.080" stroke="#4a5160" stroke-width="0.100" stroke-linecap="round" opacity="0.7"/><line x1="0.000" y1="0.000" x2="0.000" y2="-0.500" stroke="#4a5160" stroke-width="0.100" stroke-linecap="round" opacity="0.7"/><line x1="0.000" y1="0.000" x2="0.500" y2="0.000" stroke="#4a5160" stroke-width="0.100" stroke-linecap="round" opacity="0.7"/><line x1="0.000" y1="0.500" x2="0.000" y2="0.000" stroke="#4a5160" stroke-width="0.100" stroke-linecap="round" opacity="0.7"/><line x1="0.000" y1="5.080" x2="0.000" y2="4.880" stroke="#4a5160" stroke-width="0.100" stroke-linecap="round" opacity="0.7"/><line x1="0.000" y1="5.080" x2="0.200" y2="5.080" stroke="#4a5160" stroke-width="0.100" stroke-linecap="round" opacity="0.7"/><line x1="0.000" y1="5.280" x2="0.000" y2="5.080" stroke="#4a5160" stroke-width="0.100" stroke-linecap="round" opacity="0.7"/><line x1="-6.304" y1="-7.379" x2="7.412" y2="-7.379" stroke="#6b7280" stroke-width="0.100" stroke-linecap="round" opacity="0.8"/><line x1="-6.304" y1="-3.429" x2="-3.510" y2="-3.429" stroke="#6b7280" stroke-width="0.100" stroke-linecap="round" opacity="0.8"/><line x1="-6.304" y1="-3.378" x2="-6.304" y2="-7.379" stroke="#6b7280" stroke-width="0.100" stroke-linecap="round" opacity="0.8"/><line x1="-6.304" y1="-0.838" x2="-6.304" y2="-1.702" stroke="#6b7280" stroke-width="0.100" stroke-linecap="round" opacity="0.8"/><line x1="-6.304" y1="3.429" x2="-3.510" y2="3.429" stroke="#6b7280" stroke-width="0.100" stroke-linecap="round" opacity="0.8"/><line x1="-6.304" y1="7.379" x2="-6.304" y2="0.838" stroke="#6b7280" stroke-width="0.100" stroke-linecap="round" opacity="0.8"/><line x1="-6.304" y1="7.379" x2="7.412" y2="7.379" stroke="#6b7280" stroke-width="0.100" stroke-linecap="round" opacity="0.8"/><line x1="-5.669" y1="-2.743" x2="-5.326" y2="-2.743" stroke="#6b7280" stroke-width="0.100" stroke-linecap="round" opacity="0.8"/><line x1="-5.669" y1="-2.337" x2="-5.326" y2="-2.337" stroke="#6b7280" stroke-width="0.100" stroke-linecap="round" opacity="0.8"/><line x1="-5.669" y1="-0.203" x2="-5.311" y2="-0.203" stroke="#6b7280" stroke-width="0.100" stroke-linecap="round" opacity="0.8"/><line x1="-5.669" y1="0.203" x2="-5.311" y2="0.203" stroke="#6b7280" stroke-width="0.100" stroke-linecap="round" opacity="0.8"/><line x1="-5.034" y1="-2.896" x2="-3.510" y2="-2.896" stroke="#6b7280" stroke-width="0.100" stroke-linecap="round" opacity="0.8"/><line x1="-5.034" y1="-2.184" x2="-3.510" y2="-2.184" stroke="#6b7280" stroke-width="0.100" stroke-linecap="round" opacity="0.8"/><line x1="-5.034" y1="-0.343" x2="-3.510" y2="-0.343" stroke="#6b7280" stroke-width="0.100" stroke-linecap="round" opacity="0.8"/><line x1="-5.034" y1="0.343" x2="-3.510" y2="0.343" stroke="#6b7280" stroke-width="0.100" stroke-linecap="round" opacity="0.8"/><line x1="-3.510" y1="3.429" x2="-3.510" y2="-3.429" stroke="#6b7280" stroke-width="0.100" stroke-linecap="round" opacity="0.8"/><line x1="7.412" y1="-6.295" x2="8.742" y2="-6.295" stroke="#6b7280" stroke-width="0.100" stroke-linecap="round" opacity="0.8"/><line x1="7.412" y1="-3.123" x2="8.375" y2="-3.123" stroke="#6b7280" stroke-width="0.100" stroke-linecap="round" opacity="0.8"/><line x1="7.412" y1="3.123" x2="8.375" y2="3.123" stroke="#6b7280" stroke-width="0.100" stroke-linecap="round" opacity="0.8"/><line x1="7.412" y1="6.295" x2="8.375" y2="6.295" stroke="#6b7280" stroke-width="0.100" stroke-linecap="round" opacity="0.8"/><line x1="7.412" y1="7.379" x2="7.412" y2="-7.379" stroke="#6b7280" stroke-width="0.100" stroke-linecap="round" opacity="0.8"/><line x1="8.375" y1="-3.123" x2="8.375" y2="-6.295" stroke="#6b7280" stroke-width="0.100" stroke-linecap="round" opacity="0.8"/><line x1="8.375" y1="6.295" x2="8.375" y2="3.123" stroke="#6b7280" stroke-width="0.100" stroke-linecap="round" opacity="0.8"/><line x1="8.375" y1="6.295" x2="8.578" y2="5.944" stroke="#6b7280" stroke-width="0.100" stroke-linecap="round" opacity="0.8"/><line x1="8.578" y1="5.944" x2="8.880" y2="5.944" stroke="#6b7280" stroke-width="0.100" stroke-linecap="round" opacity="0.8"/><line x1="8.742" y1="-6.295" x2="9.083" y2="-5.705" stroke="#6b7280" stroke-width="0.100" stroke-linecap="round" opacity="0.8"/><line x1="8.880" y1="5.944" x2="9.083" y2="6.295" stroke="#6b7280" stroke-width="0.100" stroke-linecap="round" opacity="0.8"/><line x1="9.083" y1="-5.705" x2="9.200" y2="-5.705" stroke="#6b7280" stroke-width="0.100" stroke-linecap="round" opacity="0.8"/><line x1="9.083" y1="6.295" x2="9.200" y2="6.295" stroke="#6b7280" stroke-width="0.100" stroke-linecap="round" opacity="0.8"/><line x1="9.200" y1="-5.705" x2="9.485" y2="-6.197" stroke="#6b7280" stroke-width="0.100" stroke-linecap="round" opacity="0.8"/><line x1="9.200" y1="6.295" x2="9.485" y2="5.802" stroke="#6b7280" stroke-width="0.100" stroke-linecap="round" opacity="0.8"/><line x1="9.485" y1="-6.197" x2="9.704" y2="-6.197" stroke="#6b7280" stroke-width="0.100" stroke-linecap="round" opacity="0.8"/><line x1="9.485" y1="5.802" x2="9.704" y2="5.802" stroke="#6b7280" stroke-width="0.100" stroke-linecap="round" opacity="0.8"/><line x1="9.704" y1="-6.197" x2="9.989" y2="-5.705" stroke="#6b7280" stroke-width="0.100" stroke-linecap="round" opacity="0.8"/><line x1="9.704" y1="5.802" x2="9.989" y2="6.295" stroke="#6b7280" stroke-width="0.100" stroke-linecap="round" opacity="0.8"/><line x1="9.989" y1="-5.705" x2="10.107" y2="-5.705" stroke="#6b7280" stroke-width="0.100" stroke-linecap="round" opacity="0.8"/><line x1="9.989" y1="6.295" x2="10.107" y2="6.295" stroke="#6b7280" stroke-width="0.100" stroke-linecap="round" opacity="0.8"/><line x1="10.107" y1="-5.705" x2="10.390" y2="-6.196" stroke="#6b7280" stroke-width="0.100" stroke-linecap="round" opacity="0.8"/><line x1="10.107" y1="6.295" x2="10.390" y2="5.804" stroke="#6b7280" stroke-width="0.100" stroke-linecap="round" opacity="0.8"/><line x1="10.390" y1="-6.196" x2="10.614" y2="-6.196" stroke="#6b7280" stroke-width="0.100" stroke-linecap="round" opacity="0.8"/><line x1="10.390" y1="5.804" x2="10.614" y2="5.804" stroke="#6b7280" stroke-width="0.100" stroke-linecap="round" opacity="0.8"/><line x1="10.614" y1="-6.196" x2="10.898" y2="-5.705" stroke="#6b7280" stroke-width="0.100" stroke-linecap="round" opacity="0.8"/><line x1="10.614" y1="5.804" x2="10.898" y2="6.295" stroke="#6b7280" stroke-width="0.100" stroke-linecap="round" opacity="0.8"/><line x1="10.898" y1="-5.705" x2="11.016" y2="-5.705" stroke="#6b7280" stroke-width="0.100" stroke-linecap="round" opacity="0.8"/><line x1="10.898" y1="6.295" x2="11.016" y2="6.295" stroke="#6b7280" stroke-width="0.100" stroke-linecap="round" opacity="0.8"/><line x1="11.016" y1="-5.705" x2="11.300" y2="-6.197" stroke="#6b7280" stroke-width="0.100" stroke-linecap="round" opacity="0.8"/><line x1="11.016" y1="6.295" x2="11.300" y2="5.802" stroke="#6b7280" stroke-width="0.100" stroke-linecap="round" opacity="0.8"/><line x1="11.300" y1="-6.197" x2="11.520" y2="-6.197" stroke="#6b7280" stroke-width="0.100" stroke-linecap="round" opacity="0.8"/><line x1="11.300" y1="5.802" x2="11.520" y2="5.802" stroke="#6b7280" stroke-width="0.100" stroke-linecap="round" opacity="0.8"/><line x1="11.520" y1="-6.197" x2="11.804" y2="-5.705" stroke="#6b7280" stroke-width="0.100" stroke-linecap="round" opacity="0.8"/><line x1="11.520" y1="5.802" x2="11.804" y2="6.295" stroke="#6b7280" stroke-width="0.100" stroke-linecap="round" opacity="0.8"/><line x1="11.804" y1="-5.705" x2="11.922" y2="-5.705" stroke="#6b7280" stroke-width="0.100" stroke-linecap="round" opacity="0.8"/><line x1="11.804" y1="6.295" x2="11.922" y2="6.295" stroke="#6b7280" stroke-width="0.100" stroke-linecap="round" opacity="0.8"/><line x1="11.922" y1="-5.705" x2="12.206" y2="-6.196" stroke="#6b7280" stroke-width="0.100" stroke-linecap="round" opacity="0.8"/><line x1="11.922" y1="6.295" x2="12.206" y2="5.804" stroke="#6b7280" stroke-width="0.100" stroke-linecap="round" opacity="0.8"/><line x1="12.206" y1="-6.196" x2="12.430" y2="-6.196" stroke="#6b7280" stroke-width="0.100" stroke-linecap="round" opacity="0.8"/><line x1="12.206" y1="5.804" x2="12.430" y2="5.804" stroke="#6b7280" stroke-width="0.100" stroke-linecap="round" opacity="0.8"/><line x1="12.430" y1="-6.196" x2="12.713" y2="-5.705" stroke="#6b7280" stroke-width="0.100" stroke-linecap="round" opacity="0.8"/><line x1="12.430" y1="5.804" x2="12.713" y2="6.295" stroke="#6b7280" stroke-width="0.100" stroke-linecap="round" opacity="0.8"/><line x1="12.713" y1="-5.705" x2="12.831" y2="-5.705" stroke="#6b7280" stroke-width="0.100" stroke-linecap="round" opacity="0.8"/><line x1="12.713" y1="6.295" x2="12.831" y2="6.295" stroke="#6b7280" stroke-width="0.100" stroke-linecap="round" opacity="0.8"/><line x1="12.831" y1="-5.705" x2="13.115" y2="-6.197" stroke="#6b7280" stroke-width="0.100" stroke-linecap="round" opacity="0.8"/><line x1="12.831" y1="6.295" x2="13.115" y2="5.802" stroke="#6b7280" stroke-width="0.100" stroke-linecap="round" opacity="0.8"/><line x1="13.115" y1="-6.197" x2="13.335" y2="-6.197" stroke="#6b7280" stroke-width="0.100" stroke-linecap="round" opacity="0.8"/><line x1="13.115" y1="5.802" x2="13.335" y2="5.802" stroke="#6b7280" stroke-width="0.100" stroke-linecap="round" opacity="0.8"/><line x1="13.335" y1="-6.197" x2="13.620" y2="-5.705" stroke="#6b7280" stroke-width="0.100" stroke-linecap="round" opacity="0.8"/><line x1="13.335" y1="5.802" x2="13.620" y2="6.295" stroke="#6b7280" stroke-width="0.100" stroke-linecap="round" opacity="0.8"/><line x1="13.620" y1="-5.705" x2="13.737" y2="-5.705" stroke="#6b7280" stroke-width="0.100" stroke-linecap="round" opacity="0.8"/><line x1="13.620" y1="6.295" x2="13.737" y2="6.295" stroke="#6b7280" stroke-width="0.100" stroke-linecap="round" opacity="0.8"/><line x1="13.737" y1="-5.705" x2="14.021" y2="-6.196" stroke="#6b7280" stroke-width="0.100" stroke-linecap="round" opacity="0.8"/><line x1="13.737" y1="6.295" x2="14.021" y2="5.804" stroke="#6b7280" stroke-width="0.100" stroke-linecap="round" opacity="0.8"/><line x1="14.021" y1="-6.196" x2="14.245" y2="-6.196" stroke="#6b7280" stroke-width="0.100" stroke-linecap="round" opacity="0.8"/><line x1="14.021" y1="5.804" x2="14.245" y2="5.804" stroke="#6b7280" stroke-width="0.100" stroke-linecap="round" opacity="0.8"/><line x1="14.245" y1="-6.196" x2="14.529" y2="-5.705" stroke="#6b7280" stroke-width="0.100" stroke-linecap="round" opacity="0.8"/><line x1="14.245" y1="5.804" x2="14.529" y2="6.295" stroke="#6b7280" stroke-width="0.100" stroke-linecap="round" opacity="0.8"/><line x1="14.529" y1="-5.705" x2="14.646" y2="-5.705" stroke="#6b7280" stroke-width="0.100" stroke-linecap="round" opacity="0.8"/><line x1="14.529" y1="6.295" x2="14.646" y2="6.295" stroke="#6b7280" stroke-width="0.100" stroke-linecap="round" opacity="0.8"/><line x1="14.646" y1="-5.705" x2="14.931" y2="-6.197" stroke="#6b7280" stroke-width="0.100" stroke-linecap="round" opacity="0.8"/><line x1="14.646" y1="6.295" x2="14.931" y2="5.802" stroke="#6b7280" stroke-width="0.100" stroke-linecap="round" opacity="0.8"/><line x1="14.931" y1="-6.197" x2="15.151" y2="-6.197" stroke="#6b7280" stroke-width="0.100" stroke-linecap="round" opacity="0.8"/><line x1="14.931" y1="5.802" x2="15.151" y2="5.802" stroke="#6b7280" stroke-width="0.100" stroke-linecap="round" opacity="0.8"/><line x1="15.151" y1="-6.197" x2="15.435" y2="-5.705" stroke="#6b7280" stroke-width="0.100" stroke-linecap="round" opacity="0.8"/><line x1="15.151" y1="5.802" x2="15.435" y2="6.295" stroke="#6b7280" stroke-width="0.100" stroke-linecap="round" opacity="0.8"/><line x1="15.435" y1="-5.705" x2="15.553" y2="-5.705" stroke="#6b7280" stroke-width="0.100" stroke-linecap="round" opacity="0.8"/><line x1="15.435" y1="6.295" x2="15.553" y2="6.295" stroke="#6b7280" stroke-width="0.100" stroke-linecap="round" opacity="0.8"/><line x1="15.553" y1="-5.705" x2="15.764" y2="-6.070" stroke="#6b7280" stroke-width="0.100" stroke-linecap="round" opacity="0.8"/><line x1="15.553" y1="6.295" x2="15.836" y2="5.804" stroke="#6b7280" stroke-width="0.100" stroke-linecap="round" opacity="0.8"/><line x1="15.764" y1="-6.070" x2="16.175" y2="-5.660" stroke="#6b7280" stroke-width="0.100" stroke-linecap="round" opacity="0.8"/><line x1="15.836" y1="5.804" x2="16.030" y2="5.804" stroke="#6b7280" stroke-width="0.100" stroke-linecap="round" opacity="0.8"/><line x1="16.031" y1="5.804" x2="16.175" y2="5.660" stroke="#6b7280" stroke-width="0.100" stroke-linecap="round" opacity="0.8"/><line x1="16.175" y1="-4.445" x2="16.556" y2="-4.445" stroke="#6b7280" stroke-width="0.100" stroke-linecap="round" opacity="0.8"/><line x1="16.175" y1="4.445" x2="16.556" y2="4.445" stroke="#6b7280" stroke-width="0.100" stroke-linecap="round" opacity="0.8"/><line x1="16.175" y1="5.660" x2="16.175" y2="-5.660" stroke="#6b7280" stroke-width="0.100" stroke-linecap="round" opacity="0.8"/><line x1="16.556" y1="-4.826" x2="28.621" y2="-4.826" stroke="#6b7280" stroke-width="0.100" stroke-linecap="round" opacity="0.8"/><line x1="16.556" y1="4.826" x2="16.556" y2="-4.826" stroke="#6b7280" stroke-width="0.100" stroke-linecap="round" opacity="0.8"/><line x1="16.556" y1="4.826" x2="28.621" y2="4.826" stroke="#6b7280" stroke-width="0.100" stroke-linecap="round" opacity="0.8"/><line x1="28.621" y1="4.826" x2="28.621" y2="-4.826" stroke="#6b7280" stroke-width="0.100" stroke-linecap="round" opacity="0.8"/><line x1="-6.550" y1="-7.630" x2="28.870" y2="-7.630" stroke="#d24d4d" stroke-width="0.080" stroke-linecap="round" opacity="0.7"/><line x1="28.870" y1="-7.630" x2="28.870" y2="7.630" stroke="#d24d4d" stroke-width="0.080" stroke-linecap="round" opacity="0.7"/><line x1="28.870" y1="7.630" x2="-6.550" y2="7.630" stroke="#d24d4d" stroke-width="0.080" stroke-linecap="round" opacity="0.7"/><line x1="-6.550" y1="7.630" x2="-6.550" y2="-7.630" stroke="#d24d4d" stroke-width="0.080" stroke-linecap="round" opacity="0.7"/><path d="M -6.304 -1.702 A 0.635 0.635 0 0 1 -5.669 -2.337" fill="none" stroke="#6b7280" stroke-width="0.12" opacity="0.8"/><path d="M -6.304 0.838 A 0.635 0.635 0 0 1 -5.669 0.203" fill="none" stroke="#6b7280" stroke-width="0.12" opacity="0.8"/><path d="M -5.669 -2.743 A 0.635 0.635 0 0 1 -6.304 -3.378" fill="none" stroke="#6b7280" stroke-width="0.12" opacity="0.8"/><path d="M -5.669 -0.203 A 0.635 0.635 0 0 1 -6.304 -0.838" fill="none" stroke="#6b7280" stroke-width="0.12" opacity="0.8"/><path d="M -5.034 -2.184 A 0.356 0.356 0 0 1 -5.034 -2.896" fill="none" stroke="#6b7280" stroke-width="0.12" opacity="0.8"/><path d="M -5.034 0.343 A 0.343 0.343 0 1 1 -5.034 -0.343" fill="none" stroke="#6b7280" stroke-width="0.12" opacity="0.8"/><circle cx="24.379" cy="0.000" r="0.991" fill="none" stroke="#e6e9ef" stroke-width="0.12" opacity="1"/><circle cx="-5.080" cy="-2.540" r="0.800" fill="none" stroke="#4a5160" stroke-width="0.12" opacity="0.7"/><circle cx="-5.080" cy="-2.540" r="0.450" fill="none" stroke="#4a5160" stroke-width="0.12" opacity="0.7"/><circle cx="-5.080" cy="0.000" r="0.800" fill="none" stroke="#4a5160" stroke-width="0.12" opacity="0.7"/><circle cx="-5.080" cy="0.000" r="0.450" fill="none" stroke="#4a5160" stroke-width="0.12" opacity="0.7"/><circle cx="0.000" cy="-5.080" r="1.150" fill="none" stroke="#4a5160" stroke-width="0.12" opacity="0.7"/><circle cx="0.000" cy="-5.080" r="0.800" fill="none" stroke="#4a5160" stroke-width="0.12" opacity="0.7"/><circle cx="0.000" cy="5.080" r="1.150" fill="none" stroke="#4a5160" stroke-width="0.12" opacity="0.7"/><circle cx="0.000" cy="5.080" r="0.800" fill="none" stroke="#4a5160" stroke-width="0.12" opacity="0.7"/><circle cx="24.379" cy="0.000" r="0.991" fill="none" stroke="#6b7280" stroke-width="0.12" opacity="0.8"/><rect x="-5.880" y="-0.800" width="1.600" height="1.600" rx="0.800" fill="#c79b5c"/><circle cx="-5.080" cy="0.000" r="0.450" fill="#12151c"/><rect x="-5.880" y="-3.340" width="1.600" height="1.600" rx="0.800" fill="#c79b5c"/><circle cx="-5.080" cy="-2.540" r="0.450" fill="#12151c"/><rect x="-1.350" y="-6.430" width="2.700" height="2.700" rx="1.350" fill="#c79b5c"/><circle cx="0.000" cy="-5.080" r="1.000" fill="#12151c"/><rect x="-1.350" y="3.730" width="2.700" height="2.700" rx="1.350" fill="#c79b5c"/><circle cx="0.000" cy="5.080" r="1.000" fill="#12151c"/></svg>