<svg xmlns="http://www.w3.org/2000/svg" viewBox="-1.50 -5.50 34.40 75.58" preserveAspectRatio="xMidYMid meet" style="width:100%;height:100%"><rect x="-1.50" y="-5.50" width="34.40" height="75.58" fill="#12151c"/><g transform="translate(5.08 0)"><rect x="0.000" y="-0.000" width="7.620" height="68.580" fill="#1e222b" stroke="#4ea1ff" stroke-width="0.25"/><polyline points="0.000,2.540 2.540,2.540" fill="none" stroke="#4ea1ff" stroke-width="0.25" stroke-linejoin="round"/><polyline points="0.000,5.080 2.540,5.080" fill="none" stroke="#4ea1ff" stroke-width="0.25" stroke-linejoin="round"/><polyline points="0.000,7.620 2.540,7.620" fill="none" stroke="#4ea1ff" stroke-width="0.25" stroke-linejoin="round"/><polyline points="0.000,10.160 2.540,10.160" fill="none" stroke="#4ea1ff" stroke-width="0.25" stroke-linejoin="round"/><polyline points="0.000,12.700 2.540,12.700" fill="none" stroke="#4ea1ff" stroke-width="0.25" stroke-linejoin="round"/><polyline points="0.000,15.240 2.540,15.240" fill="none" stroke="#4ea1ff" stroke-width="0.25" stroke-linejoin="round"/><polyline points="0.000,17.780 2.540,17.780" fill="none" stroke="#4ea1ff" stroke-width="0.25" stroke-linejoin="round"/><polyline points="0.000,20.320 2.540,20.320" fill="none" stroke="#4ea1ff" stroke-width="0.25" stroke-linejoin="round"/><polyline points="0.000,22.860 2.540,22.860" fill="none" stroke="#4ea1ff" stroke-width="0.25" stroke-linejoin="round"/><polyline points="0.000,25.400 2.540,25.400" fill="none" stroke="#4ea1ff" stroke-width="0.25" stroke-linejoin="round"/><polyline points="0.000,27.940 2.540,27.940" fill="none" stroke="#4ea1ff" stroke-width="0.25" stroke-linejoin="round"/><polyline points="0.000,30.480 2.540,30.480" fill="none" stroke="#4ea1ff" stroke-width="0.25" stroke-linejoin="round"/><polyline points="0.000,33.020 2.540,33.020" fill="none" stroke="#4ea1ff" stroke-width="0.25" stroke-linejoin="round"/><polyline points="0.000,35.560 2.540,35.560" fill="none" stroke="#4ea1ff" stroke-width="0.25" stroke-linejoin="round"/><polyline points="0.000,38.100 2.540,38.100" fill="none" stroke="#4ea1ff" stroke-width="0.25" stroke-linejoin="round"/><polyline points="0.000,40.640 2.540,40.640" fill="none" stroke="#4ea1ff" stroke-width="0.25" stroke-linejoin="round"/><polyline points="0.000,43.180 2.540,43.180" fill="none" stroke="#4ea1ff" stroke-width="0.25" stroke-linejoin="round"/><polyline points="0.000,45.720 2.540,45.720" fill="none" stroke="#4ea1ff" stroke-width="0.25" stroke-linejoin="round"/><polyline points="0.000,48.260 2.540,48.260" fill="none" stroke="#4ea1ff" stroke-width="0.25" stroke-linejoin="round"/><polyline points="0.000,50.800 2.540,50.800" fill="none" stroke="#4ea1ff" stroke-width="0.25" stroke-linejoin="round"/><polyline points="0.000,53.340 2.540,53.340" fill="none" stroke="#4ea1ff" stroke-width="0.25" stroke-linejoin="round"/><polyline points="0.000,55.880 2.540,55.880" fill="none" stroke="#4ea1ff" stroke-width="0.25" stroke-linejoin="round"/><polyline points="0.000,58.420 2.540,58.420" fill="none" stroke="#4ea1ff" stroke-width="0.25" stroke-linejoin="round"/><polyline points="0.000,60.960 2.540,60.960" fill="none" stroke="#4ea1ff" stroke-width="0.25" stroke-linejoin="round"/><polyline points="0.000,63.500 2.540,63.500" fill="none" stroke="#4ea1ff" stroke-width="0.25" stroke-linejoin="round"/><polyline points="0.000,66.040 2.540,66.040" fill="none" stroke="#4ea1ff" stroke-width="0.25" stroke-linejoin="round"/><path d="M 2.540 2.540 C 2.540 2.961 3.108 3.302 3.810 3.302" fill="none" stroke="#4ea1ff" stroke-width="0.25"/><path d="M 2.540 5.080 C 2.540 5.501 3.108 5.842 3.810 5.842" fill="none" stroke="#4ea1ff" stroke-width="0.25"/><path d="M 2.540 7.620 C 2.540 8.041 3.108 8.382 3.810 8.382" fill="none" stroke="#4ea1ff" stroke-width="0.25"/><path d="M 2.540 10.160 C 2.540 10.581 3.108 10.922 3.810 10.922" fill="none" stroke="#4ea1ff" stroke-width="0.25"/><path d="M 2.540 12.700 C 2.540 13.121 3.108 13.462 3.810 13.462" fill="none" stroke="#4ea1ff" stroke-width="0.25"/><path d="M 2.540 15.240 C 2.540 15.661 3.108 16.002 3.810 16.002" fill="none" stroke="#4ea1ff" stroke-width="0.25"/><path d="M 2.540 17.780 C 2.540 18.201 3.108 18.542 3.810 18.542" fill="none" stroke="#4ea1ff" stroke-width="0.25"/><path d="M 2.540 20.320 C 2.540 20.741 3.108 21.082 3.810 21.082" fill="none" stroke="#4ea1ff" stroke-width="0.25"/><path d="M 2.540 22.860 C 2.540 23.281 3.108 23.622 3.810 23.622" fill="none" stroke="#4ea1ff" stroke-width="0.25"/><path d="M 2.540 25.400 C 2.540 25.821 3.108 26.162 3.810 26.162" fill="none" stroke="#4ea1ff" stroke-width="0.25"/><path d="M 2.540 27.940 C 2.540 28.361 3.108 28.702 3.810 28.702" fill="none" stroke="#4ea1ff" stroke-width="0.25"/><path d="M 2.540 30.480 C 2.540 30.901 3.108 31.242 3.810 31.242" fill="none" stroke="#4ea1ff" stroke-width="0.25"/><path d="M 2.540 33.020 C 2.540 33.441 3.108 33.782 3.810 33.782" fill="none" stroke="#4ea1ff" stroke-width="0.25"/><path d="M 2.540 35.560 C 2.540 35.981 3.108 36.322 3.810 36.322" fill="none" stroke="#4ea1ff" stroke-width="0.25"/><path d="M 2.540 38.100 C 2.540 38.521 3.108 38.862 3.810 38.862" fill="none" stroke="#4ea1ff" stroke-width="0.25"/><path d="M 2.540 40.640 C 2.540 41.061 3.108 41.402 3.810 41.402" fill="none" stroke="#4ea1ff" stroke-width="0.25"/><path d="M 2.540 43.180 C 2.540 43.601 3.108 43.942 3.810 43.942" fill="none" stroke="#4ea1ff" stroke-width="0.25"/><path d="M 2.540 45.720 C 2.540 46.141 3.108 46.482 3.810 46.482" fill="none" stroke="#4ea1ff" stroke-width="0.25"/><path d="M 2.540 48.260 C 2.540 48.681 3.108 49.022 3.810 49.022" fill="none" stroke="#4ea1ff" stroke-width="0.25"/><path d="M 2.540 50.800 C 2.540 51.221 3.108 51.562 3.810 51.562" fill="none" stroke="#4ea1ff" stroke-width="0.25"/><path d="M 2.540 53.340 C 2.540 53.761 3.108 54.102 3.810 54.102" fill="none" stroke="#4ea1ff" stroke-width="0.25"/><path d="M 2.540 55.880 C 2.540 56.301 3.108 56.642 3.810 56.642" fill="none" stroke="#4ea1ff" stroke-width="0.25"/><path d="M 2.540 58.420 C 2.540 58.841 3.108 59.182 3.810 59.182" fill="none" stroke="#4ea1ff" stroke-width="0.25"/><path d="M 2.540 60.960 C 2.540 61.381 3.108 61.722 3.810 61.722" fill="none" stroke="#4ea1ff" stroke-width="0.25"/><path d="M 2.540 63.500 C 2.540 63.921 3.108 64.262 3.810 64.262" fill="none" stroke="#4ea1ff" stroke-width="0.25"/><path d="M 2.540 66.040 C 2.540 66.461 3.108 66.802 3.810 66.802" fill="none" stroke="#4ea1ff" stroke-width="0.25"/><path d="M 3.810 1.778 C 3.108 1.778 2.540 2.119 2.540 2.540" fill="none" stroke="#4ea1ff" stroke-width="0.25"/><path d="M 3.810 4.318 C 3.108 4.318 2.540 4.659 2.540 5.080" fill="none" stroke="#4ea1ff" stroke-width="0.25"/><path d="M 3.810 6.858 C 3.108 6.858 2.540 7.199 2.540 7.620" fill="none" stroke="#4ea1ff" stroke-width="0.25"/><path d="M 3.810 9.398 C 3.108 9.398 2.540 9.739 2.540 10.160" fill="none" stroke="#4ea1ff" stroke-width="0.25"/><path d="M 3.810 11.938 C 3.108 11.938 2.540 12.279 2.540 12.700" fill="none" stroke="#4ea1ff" stroke-width="0.25"/><path d="M 3.810 14.478 C 3.108 14.478 2.540 14.819 2.540 15.240" fill="none" stroke="#4ea1ff" stroke-width="0.25"/><path d="M 3.810 17.018 C 3.108 17.018 2.540 17.359 2.540 17.780" fill="none" stroke="#4ea1ff" stroke-width="0.25"/><path d="M 3.810 19.558 C 3.108 19.558 2.540 19.899 2.540 20.320" fill="none" stroke="#4ea1ff" stroke-width="0.25"/><path d="M 3.810 22.098 C 3.108 22.098 2.540 22.439 2.540 22.860" fill="none" stroke="#4ea1ff" stroke-width="0.25"/><path d="M 3.810 24.638 C 3.108 24.638 2.540 24.979 2.540 25.400" fill="none" stroke="#4ea1ff" stroke-width="0.25"/><path d="M 3.810 27.178 C 3.108 27.178 2.540 27.519 2.540 27.940" fill="none" stroke="#4ea1ff" stroke-width="0.25"/><path d="M 3.810 29.718 C 3.108 29.718 2.540 30.059 2.540 30.480" fill="none" stroke="#4ea1ff" stroke-width="0.25"/><path d="M 3.810 32.258 C 3.108 32.258 2.540 32.599 2.540 33.020" fill="none" stroke="#4ea1ff" stroke-width="0.25"/><path d="M 3.810 34.798 C 3.108 34.798 2.540 35.139 2.540 35.560" fill="none" stroke="#4ea1ff" stroke-width="0.25"/><path d="M 3.810 37.338 C 3.108 37.338 2.540 37.679 2.540 38.100" fill="none" stroke="#4ea1ff" stroke-width="0.25"/><path d="M 3.810 39.878 C 3.108 39.878 2.540 40.219 2.540 40.640" fill="none" stroke="#4ea1ff" stroke-width="0.25"/><path d="M 3.810 42.418 C 3.108 42.418 2.540 42.759 2.540 43.180" fill="none" stroke="#4ea1ff" stroke-width="0.25"/><path d="M 3.810 44.958 C 3.108 44.958 2.540 45.299 2.540 45.720" fill="none" stroke="#4ea1ff" stroke-width="0.25"/><path d="M 3.810 47.498 C 3.108 47.498 2.540 47.839 2.540 48.260" fill="none" stroke="#4ea1ff" stroke-width="0.25"/><path d="M 3.810 50.038 C 3.108 50.038 2.540 50.379 2.540 50.800" fill="none" stroke="#4ea1ff" stroke-width="0.25"/><path d="M 3.810 52.578 C 3.108 52.578 2.540 52.919 2.540 53.340" fill="none" stroke="#4ea1ff" stroke-width="0.25"/><path d="M 3.810 55.118 C 3.108 55.118 2.540 55.459 2.540 55.880" fill="none" stroke="#4ea1ff" stroke-width="0.25"/><path d="M 3.810 57.658 C 3.108 57.658 2.540 57.999 2.540 58.420" fill="none" stroke="#4ea1ff" stroke-width="0.25"/><path d="M 3.810 60.198 C 3.108 60.198 2.540 60.539 2.540 60.960" fill="none" stroke="#4ea1ff" stroke-width="0.25"/><path d="M 3.810 62.738 C 3.108 62.738 2.540 63.079 2.540 63.500" fill="none" stroke="#4ea1ff" stroke-width="0.25"/><path d="M 3.810 65.278 C 3.108 65.278 2.540 65.619 2.540 66.040" fill="none" stroke="#4ea1ff" stroke-width="0.25"/><line x1="-5.080" y1="2.540" x2="0.000" y2="2.540" stroke="#e6e9ef" stroke-width="0.2"/><circle cx="-5.080" cy="2.540" r="0.4" fill="#4ea1ff"/><text x="-0.300" y="2.190" fill="#9aa3b2" font-size="0.9" text-anchor="end" font-family="sans-serif">1</text><line x1="-5.080" y1="5.080" x2="0.000" y2="5.080" stroke="#e6e9ef" stroke-width="0.2"/><circle cx="-5.080" cy="5.080" r="0.4" fill="#4ea1ff"/><text x="-0.300" y="4.730" fill="#9aa3b2" font-size="0.9" text-anchor="end" font-family="sans-serif">2</text><line x1="-5.080" y1="7.620" x2="0.000" y2="7.620" stroke="#e6e9ef" stroke-width="0.2"/><circle cx="-5.080" cy="7.620" r="0.4" fill="#4ea1ff"/><text x="-0.300" y="7.270" fill="#9aa3b2" font-size="0.9" text-anchor="end" font-family="sans-serif">3</text><line x1="-5.080" y1="10.160" x2="0.000" y2="10.160" stroke="#e6e9ef" stroke-width="0.2"/><circle cx="-5.080" cy="10.160" r="0.4" fill="#4ea1ff"/><text x="-0.300" y="9.810" fill="#9aa3b2" font-size="0.9" text-anchor="end" font-family="sans-serif">4</text><line x1="-5.080" y1="12.700" x2="0.000" y2="12.700" stroke="#e6e9ef" stroke-width="0.2"/><circle cx="-5.080" cy="12.700" r="0.4" fill="#4ea1ff"/><text x="-0.300" y="12.350" fill="#9aa3b2" font-size="0.9" text-anchor="end" font-family="sans-serif">5</text><line x1="-5.080" y1="15.240" x2="0.000" y2="15.240" stroke="#e6e9ef" stroke-width="0.2"/><circle cx="-5.080" cy="15.240" r="0.4" fill="#4ea1ff"/><text x="-0.300" y="14.890" fill="#9aa3b2" font-size="0.9" text-anchor="end" font-family="sans-serif">6</text><line x1="-5.080" y1="17.780" x2="0.000" y2="17.780" stroke="#e6e9ef" stroke-width="0.2"/><circle cx="-5.080" cy="17.780" r="0.4" fill="#4ea1ff"/><text x="-0.300" y="17.430" fill="#9aa3b2" font-size="0.9" text-anchor="end" font-family="sans-serif">7</text><line x1="-5.080" y1="20.320" x2="0.000" y2="20.320" stroke="#e6e9ef" stroke-width="0.2"/><circle cx="-5.080" cy="20.320" r="0.4" fill="#4ea1ff"/><text x="-0.300" y="19.970" fill="#9aa3b2" font-size="0.9" text-anchor="end" font-family="sans-serif">8</text><line x1="-5.080" y1="22.860" x2="0.000" y2="22.860" stroke="#e6e9ef" stroke-width="0.2"/><circle cx="-5.080" cy="22.860" r="0.4" fill="#4ea1ff"/><text x="-0.300" y="22.510" fill="#9aa3b2" font-size="0.9" text-anchor="end" font-family="sans-serif">9</text><line x1="-5.080" y1="25.400" x2="0.000" y2="25.400" stroke="#e6e9ef" stroke-width="0.2"/><circle cx="-5.080" cy="25.400" r="0.4" fill="#4ea1ff"/><text x="-0.300" y="25.050" fill="#9aa3b2" font-size="0.9" text-anchor="end" font-family="sans-serif">10</text><line x1="-5.080" y1="27.940" x2="0.000" y2="27.940" stroke="#e6e9ef" stroke-width="0.2"/><circle cx="-5.080" cy="27.940" r="0.4" fill="#4ea1ff"/><text x="-0.300" y="27.590" fill="#9aa3b2" font-size="0.9" text-anchor="end" font-family="sans-serif">11</text><line x1="-5.080" y1="30.480" x2="0.000" y2="30.480" stroke="#e6e9ef" stroke-width="0.2"/><circle cx="-5.080" cy="30.480" r="0.4" fill="#4ea1ff"/><text x="-0.300" y="30.130" fill="#9aa3b2" font-size="0.9" text-anchor="end" font-family="sans-serif">12</text><line x1="-5.080" y1="33.020" x2="0.000" y2="33.020" stroke="#e6e9ef" stroke-width="0.2"/><circle cx="-5.080" cy="33.020" r="0.4" fill="#4ea1ff"/><text x="-0.300" y="32.670" fill="#9aa3b2" font-size="0.9" text-anchor="end" font-family="sans-serif">13</text><line x1="-5.080" y1="35.560" x2="0.000" y2="35.560" stroke="#e6e9ef" stroke-width="0.2"/><circle cx="-5.080" cy="35.560" r="0.4" fill="#4ea1ff"/><text x="-0.300" y="35.210" fill="#9aa3b2" font-size="0.9" text-anchor="end" font-family="sans-serif">14</text><line x1="-5.080" y1="38.100" x2="0.000" y2="38.100" stroke="#e6e9ef" stroke-width="0.2"/><circle cx="-5.080" cy="38.100" r="0.4" fill="#4ea1ff"/><text x="-0.300" y="37.750" fill="#9aa3b2" font-size="0.9" text-anchor="end" font-family="sans-serif">15</text><line x1="-5.080" y1="40.640" x2="0.000" y2="40.640" stroke="#e6e9ef" stroke-width="0.2"/><circle cx="-5.080" cy="40.640" r="0.4" fill="#4ea1ff"/><text x="-0.300" y="40.290" fill="#9aa3b2" font-size="0.9" text-anchor="end" font-family="sans-serif">16</text><line x1="-5.080" y1="43.180" x2="0.000" y2="43.180" stroke="#e6e9ef" stroke-width="0.2"/><circle cx="-5.080" cy="43.180" r="0.4" fill="#4ea1ff"/><text x="-0.300" y="42.830" fill="#9aa3b2" font-size="0.9" text-anchor="end" font-family="sans-serif">17</text><line x1="-5.080" y1="45.720" x2="0.000" y2="45.720" stroke="#e6e9ef" stroke-width="0.2"/><circle cx="-5.080" cy="45.720" r="0.4" fill="#4ea1ff"/><text x="-0.300" y="45.370" fill="#9aa3b2" font-size="0.9" text-anchor="end" font-family="sans-serif">18</text><line x1="-5.080" y1="48.260" x2="0.000" y2="48.260" stroke="#e6e9ef" stroke-width="0.2"/><circle cx="-5.080" cy="48.260" r="0.4" fill="#4ea1ff"/><text x="-0.300" y="47.910" fill="#9aa3b2" font-size="0.9" text-anchor="end" font-family="sans-serif">19</text><line x1="-5.080" y1="50.800" x2="0.000" y2="50.800" stroke="#e6e9ef" stroke-width="0.2"/><circle cx="-5.080" cy="50.800" r="0.4" fill="#4ea1ff"/><text x="-0.300" y="50.450" fill="#9aa3b2" font-size="0.9" text-anchor="end" font-family="sans-serif">20</text><line x1="-5.080" y1="53.340" x2="0.000" y2="53.340" stroke="#e6e9ef" stroke-width="0.2"/><circle cx="-5.080" cy="53.340" r="0.4" fill="#4ea1ff"/><text x="-0.300" y="52.990" fill="#9aa3b2" font-size="0.9" text-anchor="end" font-family="sans-serif">21</text><line x1="-5.080" y1="55.880" x2="0.000" y2="55.880" stroke="#e6e9ef" stroke-width="0.2"/><circle cx="-5.080" cy="55.880" r="0.4" fill="#4ea1ff"/><text x="-0.300" y="55.530" fill="#9aa3b2" font-size="0.9" text-anchor="end" font-family="sans-serif">22</text><line x1="-5.080" y1="58.420" x2="0.000" y2="58.420" stroke="#e6e9ef" stroke-width="0.2"/><circle cx="-5.080" cy="58.420" r="0.4" fill="#4ea1ff"/><text x="-0.300" y="58.070" fill="#9aa3b2" font-size="0.9" text-anchor="end" font-family="sans-serif">23</text><line x1="-5.080" y1="60.960" x2="0.000" y2="60.960" stroke="#e6e9ef" stroke-width="0.2"/><circle cx="-5.080" cy="60.960" r="0.4" fill="#4ea1ff"/><text x="-0.300" y="60.610" fill="#9aa3b2" font-size="0.9" text-anchor="end" font-family="sans-serif">24</text><line x1="-5.080" y1="63.500" x2="0.000" y2="63.500" stroke="#e6e9ef" stroke-width="0.2"/><circle cx="-5.080" cy="63.500" r="0.4" fill="#4ea1ff"/><text x="-0.300" y="63.150" fill="#9aa3b2" font-size="0.9" text-anchor="end" font-family="sans-serif">25</text><line x1="-5.080" y1="66.040" x2="0.000" y2="66.040" stroke="#e6e9ef" stroke-width="0.2"/><circle cx="-5.080" cy="66.040" r="0.4" fill="#4ea1ff"/><text x="-0.300" y="65.690" fill="#9aa3b2" font-size="0.9" text-anchor="end" font-family="sans-serif">26</text><text x="1.27" y="-2.00" fill="#9aa3b2" font-size="1.6" text-anchor="middle" font-family="sans-serif">A</text></g><g transform="translate(23.78 0)"><rect x="0.000" y="-0.000" width="7.620" height="12.700" fill="#1e222b" stroke="#4ea1ff" stroke-width="0.25"/><polyline points="2.540,2.540 0.000,2.540" fill="none" stroke="#4ea1ff" stroke-width="0.25" stroke-linejoin="round"/><polyline points="2.540,5.080 0.000,5.080" fill="none" stroke="#4ea1ff" stroke-width="0.25" stroke-linejoin="round"/><polyline points="2.540,7.620 0.000,7.620" fill="none" stroke="#4ea1ff" stroke-width="0.25" stroke-linejoin="round"/><polyline points="2.540,10.160 0.000,10.160" fill="none" stroke="#4ea1ff" stroke-width="0.25" stroke-linejoin="round"/><polyline points="2.794,2.794 3.556,2.032" fill="none" stroke="#4ea1ff" stroke-width="0.25" stroke-linejoin="round"/><polyline points="2.794,5.334 3.556,4.572" fill="none" stroke="#4ea1ff" stroke-width="0.25" stroke-linejoin="round"/><polyline points="2.794,7.874 3.556,7.112" fill="none" stroke="#4ea1ff" stroke-width="0.25" stroke-linejoin="round"/><polyline points="2.794,10.414 3.556,9.652" fill="none" stroke="#4ea1ff" stroke-width="0.25" stroke-linejoin="round"/><polyline points="3.048,3.048 3.810,2.286" fill="none" stroke="#4ea1ff" stroke-width="0.25" stroke-linejoin="round"/><polyline points="3.048,5.588 3.810,4.826" fill="none" stroke="#4ea1ff" stroke-width="0.25" stroke-linejoin="round"/><polyline points="3.048,8.128 3.810,7.366" fill="none" stroke="#4ea1ff" stroke-width="0.25" stroke-linejoin="round"/><polyline points="3.048,10.668 3.810,9.906" fill="none" stroke="#4ea1ff" stroke-width="0.25" stroke-linejoin="round"/><circle cx="3.302" cy="2.540" r="0.762" fill="none" stroke="#4ea1ff" stroke-width="0.25"/><circle cx="3.302" cy="5.080" r="0.762" fill="none" stroke="#4ea1ff" stroke-width="0.25"/><circle cx="3.302" cy="7.620" r="0.762" fill="none" stroke="#4ea1ff" stroke-width="0.25"/><circle cx="3.302" cy="10.160" r="0.762" fill="none" stroke="#4ea1ff" stroke-width="0.25"/><line x1="-5.080" y1="2.540" x2="0.000" y2="2.540" stroke="#e6e9ef" stroke-width="0.2"/><circle cx="-5.080" cy="2.540" r="0.4" fill="#4ea1ff"/><text x="-0.300" y="2.190" fill="#9aa3b2" font-size="0.9" text-anchor="end" font-family="sans-serif">MTG1</text><line x1="-5.080" y1="5.080" x2="0.000" y2="5.080" stroke="#e6e9ef" stroke-width="0.2"/><circle cx="-5.080" cy="5.080" r="0.4" fill="#4ea1ff"/><text x="-0.300" y="4.730" fill="#9aa3b2" font-size="0.9" text-anchor="end" font-family="sans-serif">MTG2</text><line x1="-5.080" y1="7.620" x2="0.000" y2="7.620" stroke="#e6e9ef" stroke-width="0.2"/><circle cx="-5.080" cy="7.620" r="0.4" fill="#4ea1ff"/><text x="-0.300" y="7.270" fill="#9aa3b2" font-size="0.9" text-anchor="end" font-family="sans-serif">MTG3</text><line x1="-5.080" y1="10.160" x2="0.000" y2="10.160" stroke="#e6e9ef" stroke-width="0.2"/><circle cx="-5.080" cy="10.160" r="0.4" fill="#4ea1ff"/><text x="-0.300" y="9.810" fill="#9aa3b2" font-size="0.9" text-anchor="end" font-family="sans-serif">MTG4</text><text x="1.27" y="-2.00" fill="#9aa3b2" font-size="1.6" text-anchor="middle" font-family="sans-serif">B</text></g></svg>