<svg xmlns="http://www.w3.org/2000/svg" viewBox="-5.05 -3.80 10.11 7.60" preserveAspectRatio="xMidYMid meet" style="width:100%;height:100%"><rect x="-5.05" y="-3.80" width="10.11" height="7.60" fill="#12151c"/><line x1="0.000" y1="2.300" x2="0.000" y2="-2.300" stroke="#e6e9ef" stroke-width="0.200" stroke-linecap="round" opacity="1"/><line x1="-3.805" y1="-2.550" x2="-0.305" y2="-2.550" stroke="#4a5160" stroke-width="0.080" stroke-linecap="round" opacity="0.7"/><line x1="-3.805" y1="2.550" x2="-3.805" y2="-2.550" stroke="#4a5160" stroke-width="0.080" stroke-linecap="round" opacity="0.7"/><line x1="-3.805" y1="2.550" x2="-0.305" y2="2.550" stroke="#4a5160" stroke-width="0.080" stroke-linecap="round" opacity="0.7"/><line x1="-2.555" y1="0.000" x2="-2.055" y2="0.000" stroke="#4a5160" stroke-width="0.080" stroke-linecap="round" opacity="0.7"/><line x1="-2.055" y1="0.000" x2="-2.055" y2="-0.500" stroke="#4a5160" stroke-width="0.080" stroke-linecap="round" opacity="0.7"/><line x1="-2.055" y1="0.000" x2="-1.555" y2="0.000" stroke="#4a5160" stroke-width="0.080" stroke-linecap="round" opacity="0.7"/><line x1="-2.055" y1="0.500" x2="-2.055" y2="0.000" stroke="#4a5160" stroke-width="0.080" stroke-linecap="round" opacity="0.7"/><line x1="-0.500" y1="0.000" x2="0.000" y2="0.000" stroke="#4a5160" stroke-width="0.080" stroke-linecap="round" opacity="0.7"/><line x1="-0.305" y1="2.550" x2="-0.305" y2="-2.550" stroke="#4a5160" stroke-width="0.080" stroke-linecap="round" opacity="0.7"/><line x1="0.000" y1="0.000" x2="0.000" y2="-0.500" stroke="#4a5160" stroke-width="0.080" stroke-linecap="round" opacity="0.7"/><line x1="0.000" y1="0.000" x2="0.500" y2="0.000" stroke="#4a5160" stroke-width="0.080" stroke-linecap="round" opacity="0.7"/><line x1="0.000" y1="0.500" x2="0.000" y2="0.000" stroke="#4a5160" stroke-width="0.080" stroke-linecap="round" opacity="0.7"/><line x1="0.305" y1="-2.550" x2="3.805" y2="-2.550" stroke="#4a5160" stroke-width="0.080" stroke-linecap="round" opacity="0.7"/><line x1="0.305" y1="2.550" x2="0.305" y2="-2.550" stroke="#4a5160" stroke-width="0.080" stroke-linecap="round" opacity="0.7"/><line x1="0.305" y1="2.550" x2="3.805" y2="2.550" stroke="#4a5160" stroke-width="0.080" stroke-linecap="round" opacity="0.7"/><line x1="1.555" y1="0.000" x2="2.055" y2="0.000" stroke="#4a5160" stroke-width="0.080" stroke-linecap="round" opacity="0.7"/><line x1="2.055" y1="0.000" x2="2.055" y2="-0.500" stroke="#4a5160" stroke-width="0.080" stroke-linecap="round" opacity="0.7"/><line x1="2.055" y1="0.000" x2="2.555" y2="0.000" stroke="#4a5160" stroke-width="0.080" stroke-linecap="round" opacity="0.7"/><line x1="2.055" y1="0.500" x2="2.055" y2="0.000" stroke="#4a5160" stroke-width="0.080" stroke-linecap="round" opacity="0.7"/><line x1="3.805" y1="2.550" x2="3.805" y2="-2.550" stroke="#4a5160" stroke-width="0.080" stroke-linecap="round" opacity="0.7"/><line x1="-4.055" y1="-2.800" x2="4.055" y2="-2.800" stroke="#d24d4d" stroke-width="0.080" stroke-linecap="round" opacity="0.7"/><line x1="-4.055" y1="2.800" x2="-4.055" y2="-2.800" stroke="#d24d4d" stroke-width="0.080" stroke-linecap="round" opacity="0.7"/><line x1="-4.055" y1="2.800" x2="4.055" y2="2.800" stroke="#d24d4d" stroke-width="0.080" stroke-linecap="round" opacity="0.7"/><line x1="4.055" y1="2.800" x2="4.055" y2="-2.800" stroke="#d24d4d" stroke-width="0.080" stroke-linecap="round" opacity="0.7"/><line x1="-3.550" y1="-2.300" x2="3.550" y2="-2.300" stroke="#6b7280" stroke-width="0.100" stroke-linecap="round" opacity="0.8"/><line x1="-3.550" y1="2.300" x2="-3.550" y2="-2.300" stroke="#6b7280" stroke-width="0.100" stroke-linecap="round" opacity="0.8"/><line x1="-3.550" y1="2.300" x2="3.550" y2="2.300" stroke="#6b7280" stroke-width="0.100" stroke-linecap="round" opacity="0.8"/><line x1="-0.370" y1="2.300" x2="-0.370" y2="-2.300" stroke="#6b7280" stroke-width="0.100" stroke-linecap="round" opacity="0.8"/><line x1="0.370" y1="2.300" x2="0.370" y2="-2.300" stroke="#6b7280" stroke-width="0.100" stroke-linecap="round" opacity="0.8"/><line x1="3.550" y1="2.300" x2="3.550" y2="-2.300" stroke="#6b7280" stroke-width="0.100" stroke-linecap="round" opacity="0.8"/><rect x="-3.805" y="-2.550" width="3.500" height="5.100" rx="0.000" fill="#c79b5c"/><rect x="0.305" y="-2.550" width="3.500" height="5.100" rx="0.000" fill="#c79b5c"/><polygon points="-2.51,3.60 -1.61,3.60 -2.06,3.00" fill="#ffffff"/></svg>