<svg xmlns="http://www.w3.org/2000/svg" viewBox="-12.41 -5.15 24.82 12.70" preserveAspectRatio="xMidYMid meet" style="width:100%;height:100%"><rect x="-12.41" y="-5.15" width="24.82" height="12.70" fill="#12151c"/><line x1="-11.410" y1="-4.150" x2="11.410" y2="-4.150" stroke="#d24d4d" stroke-width="0.080" stroke-linecap="round" opacity="0.7"/><line x1="11.410" y1="-4.150" x2="11.410" y2="6.550" stroke="#d24d4d" stroke-width="0.080" stroke-linecap="round" opacity="0.7"/><line x1="11.410" y1="6.550" x2="-11.410" y2="6.550" stroke="#d24d4d" stroke-width="0.080" stroke-linecap="round" opacity="0.7"/><line x1="-11.410" y1="6.550" x2="-11.410" y2="-4.150" stroke="#d24d4d" stroke-width="0.080" stroke-linecap="round" opacity="0.7"/><path d="M -9.741 -2.015 A 2.915 2.915 0 0 1 -9.070 -2.544" fill="none" stroke="#e6e9ef" stroke-width="0.12" opacity="1"/><path d="M -8.320 -1.227 A 1.402 1.402 0 0 1 -8.281 -1.249" fill="none" stroke="#e6e9ef" stroke-width="0.12" opacity="1"/><path d="M -8.251 1.235 A 1.399 1.399 0 0 1 -8.320 1.197" fill="none" stroke="#e6e9ef" stroke-width="0.12" opacity="1"/><path d="M -6.959 -1.249 A 1.400 1.400 0 0 1 -6.989 1.235" fill="none" stroke="#e6e9ef" stroke-width="0.12" opacity="1"/><path d="M -6.170 -2.544 A 2.915 2.915 0 0 1 -5.499 -2.015" fill="none" stroke="#e6e9ef" stroke-width="0.12" opacity="1"/><path d="M -4.661 -2.015 A 2.915 2.915 0 0 1 -3.990 -2.544" fill="none" stroke="#e6e9ef" stroke-width="0.12" opacity="1"/><path d="M -3.171 1.235 A 1.400 1.400 0 0 1 -3.201 -1.249" fill="none" stroke="#e6e9ef" stroke-width="0.12" opacity="1"/><path d="M -1.879 -1.249 A 1.400 1.400 0 0 1 -1.909 1.235" fill="none" stroke="#e6e9ef" stroke-width="0.12" opacity="1"/><path d="M -1.090 -2.544 A 2.915 2.915 0 0 1 -0.419 -2.015" fill="none" stroke="#e6e9ef" stroke-width="0.12" opacity="1"/><path d="M 0.419 -2.015 A 2.915 2.915 0 0 1 1.090 -2.544" fill="none" stroke="#e6e9ef" stroke-width="0.12" opacity="1"/><path d="M 1.909 1.235 A 1.400 1.400 0 0 1 1.879 -1.249" fill="none" stroke="#e6e9ef" stroke-width="0.12" opacity="1"/><path d="M 3.201 -1.249 A 1.400 1.400 0 0 1 3.171 1.235" fill="none" stroke="#e6e9ef" stroke-width="0.12" opacity="1"/><path d="M 3.990 -2.544 A 2.915 2.915 0 0 1 4.661 -2.015" fill="none" stroke="#e6e9ef" stroke-width="0.12" opacity="1"/><path d="M 5.499 -2.015 A 2.915 2.915 0 0 1 6.170 -2.544" fill="none" stroke="#e6e9ef" stroke-width="0.12" opacity="1"/><path d="M 6.989 1.235 A 1.400 1.400 0 0 1 6.959 -1.249" fill="none" stroke="#e6e9ef" stroke-width="0.12" opacity="1"/><path d="M 8.281 -1.249 A 1.400 1.400 0 0 1 8.251 1.235" fill="none" stroke="#e6e9ef" stroke-width="0.12" opacity="1"/><path d="M 9.070 -2.544 A 2.915 2.915 0 0 1 9.741 -2.015" fill="none" stroke="#e6e9ef" stroke-width="0.12" opacity="1"/><path d="M -9.741 -2.015 A 2.915 2.915 0 0 1 -5.499 -2.015" fill="none" stroke="#6b7280" stroke-width="0.12" opacity="0.8"/><path d="M -8.320 -1.227 A 1.400 1.400 0 1 1 -8.320 1.197" fill="none" stroke="#6b7280" stroke-width="0.12" opacity="0.8"/><path d="M -4.661 -2.015 A 2.915 2.915 0 0 1 -0.419 -2.015" fill="none" stroke="#6b7280" stroke-width="0.12" opacity="0.8"/><path d="M 0.419 -2.015 A 2.915 2.915 0 0 1 4.661 -2.015" fill="none" stroke="#6b7280" stroke-width="0.12" opacity="0.8"/><path d="M 5.499 -2.015 A 2.915 2.915 0 0 1 9.741 -2.015" fill="none" stroke="#6b7280" stroke-width="0.12" opacity="0.8"/><circle cx="-7.620" cy="-0.015" r="0.700" fill="none" stroke="#e6e9ef" stroke-width="0.12" opacity="1"/><circle cx="-2.540" cy="-0.015" r="0.700" fill="none" stroke="#e6e9ef" stroke-width="0.12" opacity="1"/><circle cx="2.540" cy="-0.015" r="0.700" fill="none" stroke="#e6e9ef" stroke-width="0.12" opacity="1"/><circle cx="7.620" cy="-0.015" r="0.700" fill="none" stroke="#e6e9ef" stroke-width="0.12" opacity="1"/><circle cx="-7.620" cy="-0.015" r="0.700" fill="none" stroke="#6b7280" stroke-width="0.12" opacity="0.8"/><circle cx="-2.540" cy="-0.015" r="1.400" fill="none" stroke="#6b7280" stroke-width="0.12" opacity="0.8"/><circle cx="-2.540" cy="-0.015" r="0.700" fill="none" stroke="#6b7280" stroke-width="0.12" opacity="0.8"/><circle cx="2.540" cy="-0.015" r="1.400" fill="none" stroke="#6b7280" stroke-width="0.12" opacity="0.8"/><circle cx="2.540" cy="-0.015" r="0.700" fill="none" stroke="#6b7280" stroke-width="0.12" opacity="0.8"/><circle cx="7.620" cy="-0.015" r="1.400" fill="none" stroke="#6b7280" stroke-width="0.12" opacity="0.8"/><circle cx="7.620" cy="-0.015" r="0.700" fill="none" stroke="#6b7280" stroke-width="0.12" opacity="0.8"/><rect x="6.570" y="-3.590" width="2.100" height="2.100" rx="1.050" fill="#c79b5c"/><circle cx="7.620" cy="-2.540" r="0.700" fill="#12151c"/><rect x="6.570" y="1.490" width="2.100" height="2.100" rx="1.050" fill="#c79b5c"/><circle cx="7.620" cy="2.540" r="0.700" fill="#12151c"/><rect x="1.490" y="-3.590" width="2.100" height="2.100" rx="1.050" fill="#c79b5c"/><circle cx="2.540" cy="-2.540" r="0.700" fill="#12151c"/><rect x="1.490" y="1.490" width="2.100" height="2.100" rx="1.050" fill="#c79b5c"/><circle cx="2.540" cy="2.540" r="0.700" fill="#12151c"/><rect x="-3.590" y="-3.590" width="2.100" height="2.100" rx="1.050" fill="#c79b5c"/><circle cx="-2.540" cy="-2.540" r="0.700" fill="#12151c"/><rect x="-3.590" y="1.490" width="2.100" height="2.100" rx="1.050" fill="#c79b5c"/><circle cx="-2.540" cy="2.540" r="0.700" fill="#12151c"/><rect x="-8.670" y="-3.590" width="2.100" height="2.100" rx="1.050" fill="#c79b5c"/><circle cx="-7.620" cy="-2.540" r="0.700" fill="#12151c"/><rect x="-8.670" y="1.490" width="2.100" height="2.100" rx="1.050" fill="#c79b5c"/><circle cx="-7.620" cy="2.540" r="0.700" fill="#12151c"/></svg>