<svg xmlns="http://www.w3.org/2000/svg" viewBox="-11.41 -7.22 22.82 14.44" preserveAspectRatio="xMidYMid meet" style="width:100%;height:100%"><rect x="-11.41" y="-7.22" width="22.82" height="14.44" fill="#12151c"/><line x1="-10.160" y1="-4.826" x2="-8.890" y2="-4.826" stroke="#e6e9ef" stroke-width="0.200" stroke-linecap="round" opacity="1"/><line x1="-10.160" y1="4.445" x2="-10.160" y2="-4.826" stroke="#e6e9ef" stroke-width="0.200" stroke-linecap="round" opacity="1"/><line x1="-10.160" y1="4.445" x2="-6.065" y2="4.445" stroke="#e6e9ef" stroke-width="0.200" stroke-linecap="round" opacity="1"/><line x1="-8.890" y1="-4.445" x2="-8.890" y2="-4.826" stroke="#e6e9ef" stroke-width="0.200" stroke-linecap="round" opacity="1"/><line x1="-8.890" y1="-4.445" x2="-6.065" y2="-4.445" stroke="#e6e9ef" stroke-width="0.200" stroke-linecap="round" opacity="1"/><line x1="-8.890" y1="-3.175" x2="-6.065" y2="-3.175" stroke="#e6e9ef" stroke-width="0.200" stroke-linecap="round" opacity="1"/><line x1="-8.890" y1="3.175" x2="-8.890" y2="-3.175" stroke="#e6e9ef" stroke-width="0.200" stroke-linecap="round" opacity="1"/><line x1="-8.890" y1="3.175" x2="-6.065" y2="3.175" stroke="#e6e9ef" stroke-width="0.200" stroke-linecap="round" opacity="1"/><line x1="-4.095" y1="-4.445" x2="-3.525" y2="-4.445" stroke="#e6e9ef" stroke-width="0.200" stroke-linecap="round" opacity="1"/><line x1="-4.095" y1="-3.175" x2="-3.525" y2="-3.175" stroke="#e6e9ef" stroke-width="0.200" stroke-linecap="round" opacity="1"/><line x1="-4.095" y1="3.175" x2="-3.525" y2="3.175" stroke="#e6e9ef" stroke-width="0.200" stroke-linecap="round" opacity="1"/><line x1="-4.095" y1="4.445" x2="-3.525" y2="4.445" stroke="#e6e9ef" stroke-width="0.200" stroke-linecap="round" opacity="1"/><line x1="-1.555" y1="-4.445" x2="-1.270" y2="-4.445" stroke="#e6e9ef" stroke-width="0.200" stroke-linecap="round" opacity="1"/><line x1="-1.555" y1="-3.175" x2="-0.985" y2="-3.175" stroke="#e6e9ef" stroke-width="0.200" stroke-linecap="round" opacity="1"/><line x1="-1.555" y1="3.175" x2="-0.985" y2="3.175" stroke="#e6e9ef" stroke-width="0.200" stroke-linecap="round" opacity="1"/><line x1="-1.555" y1="4.445" x2="-0.985" y2="4.445" stroke="#e6e9ef" stroke-width="0.200" stroke-linecap="round" opacity="1"/><line x1="-1.270" y1="-4.826" x2="-0.985" y2="-4.826" stroke="#e6e9ef" stroke-width="0.200" stroke-linecap="round" opacity="1"/><line x1="-1.270" y1="-4.445" x2="-1.270" y2="-4.826" stroke="#e6e9ef" stroke-width="0.200" stroke-linecap="round" opacity="1"/><line x1="0.985" y1="-4.826" x2="1.270" y2="-4.826" stroke="#e6e9ef" stroke-width="0.200" stroke-linecap="round" opacity="1"/><line x1="0.985" y1="-3.175" x2="1.555" y2="-3.175" stroke="#e6e9ef" stroke-width="0.200" stroke-linecap="round" opacity="1"/><line x1="0.985" y1="3.175" x2="1.555" y2="3.175" stroke="#e6e9ef" stroke-width="0.200" stroke-linecap="round" opacity="1"/><line x1="0.985" y1="4.445" x2="1.555" y2="4.445" stroke="#e6e9ef" stroke-width="0.200" stroke-linecap="round" opacity="1"/><line x1="1.270" y1="-4.445" x2="1.270" y2="-4.826" stroke="#e6e9ef" stroke-width="0.200" stroke-linecap="round" opacity="1"/><line x1="1.270" y1="-4.445" x2="1.555" y2="-4.445" stroke="#e6e9ef" stroke-width="0.200" stroke-linecap="round" opacity="1"/><line x1="3.525" y1="-4.445" x2="4.095" y2="-4.445" stroke="#e6e9ef" stroke-width="0.200" stroke-linecap="round" opacity="1"/><line x1="3.525" y1="-3.175" x2="4.095" y2="-3.175" stroke="#e6e9ef" stroke-width="0.200" stroke-linecap="round" opacity="1"/><line x1="3.525" y1="3.175" x2="4.095" y2="3.175" stroke="#e6e9ef" stroke-width="0.200" stroke-linecap="round" opacity="1"/><line x1="3.525" y1="4.445" x2="4.095" y2="4.445" stroke="#e6e9ef" stroke-width="0.200" stroke-linecap="round" opacity="1"/><line x1="6.065" y1="-4.445" x2="8.890" y2="-4.445" stroke="#e6e9ef" stroke-width="0.200" stroke-linecap="round" opacity="1"/><line x1="6.065" y1="-3.175" x2="8.890" y2="-3.175" stroke="#e6e9ef" stroke-width="0.200" stroke-linecap="round" opacity="1"/><line x1="6.065" y1="3.175" x2="8.890" y2="3.175" stroke="#e6e9ef" stroke-width="0.200" stroke-linecap="round" opacity="1"/><line x1="6.065" y1="4.445" x2="10.160" y2="4.445" stroke="#e6e9ef" stroke-width="0.200" stroke-linecap="round" opacity="1"/><line x1="8.890" y1="-4.826" x2="10.160" y2="-4.826" stroke="#e6e9ef" stroke-width="0.200" stroke-linecap="round" opacity="1"/><line x1="8.890" y1="-4.445" x2="8.890" y2="-4.826" stroke="#e6e9ef" stroke-width="0.200" stroke-linecap="round" opacity="1"/><line x1="8.890" y1="3.175" x2="8.890" y2="-3.175" stroke="#e6e9ef" stroke-width="0.200" stroke-linecap="round" opacity="1"/><line x1="10.160" y1="4.445" x2="10.160" y2="-4.826" stroke="#e6e9ef" stroke-width="0.200" stroke-linecap="round" opacity="1"/><line x1="-5.715" y1="-5.970" x2="-4.445" y2="-5.970" stroke="#4a5160" stroke-width="0.080" stroke-linecap="round" opacity="0.7"/><line x1="-5.715" y1="-0.890" x2="-5.715" y2="-5.970" stroke="#4a5160" stroke-width="0.080" stroke-linecap="round" opacity="0.7"/><line x1="-5.715" y1="-0.890" x2="-4.445" y2="-0.890" stroke="#4a5160" stroke-width="0.080" stroke-linecap="round" opacity="0.7"/><line x1="-5.715" y1="0.890" x2="-4.445" y2="0.890" stroke="#4a5160" stroke-width="0.080" stroke-linecap="round" opacity="0.7"/><line x1="-5.715" y1="5.970" x2="-5.715" y2="0.890" stroke="#4a5160" stroke-width="0.080" stroke-linecap="round" opacity="0.7"/><line x1="-5.715" y1="5.970" x2="-4.445" y2="5.970" stroke="#4a5160" stroke-width="0.080" stroke-linecap="round" opacity="0.7"/><line x1="-5.580" y1="-3.430" x2="-5.080" y2="-3.430" stroke="#4a5160" stroke-width="0.080" stroke-linecap="round" opacity="0.7"/><line x1="-5.580" y1="3.430" x2="-5.080" y2="3.430" stroke="#4a5160" stroke-width="0.080" stroke-linecap="round" opacity="0.7"/><line x1="-5.080" y1="-3.430" x2="-5.080" y2="-3.930" stroke="#4a5160" stroke-width="0.080" stroke-linecap="round" opacity="0.7"/><line x1="-5.080" y1="-3.430" x2="-4.580" y2="-3.430" stroke="#4a5160" stroke-width="0.080" stroke-linecap="round" opacity="0.7"/><line x1="-5.080" y1="-2.930" x2="-5.080" y2="-3.430" stroke="#4a5160" stroke-width="0.080" stroke-linecap="round" opacity="0.7"/><line x1="-5.080" y1="3.430" x2="-5.080" y2="2.930" stroke="#4a5160" stroke-width="0.080" stroke-linecap="round" opacity="0.7"/><line x1="-5.080" y1="3.430" x2="-4.580" y2="3.430" stroke="#4a5160" stroke-width="0.080" stroke-linecap="round" opacity="0.7"/><line x1="-5.080" y1="3.930" x2="-5.080" y2="3.430" stroke="#4a5160" stroke-width="0.080" stroke-linecap="round" opacity="0.7"/><line x1="-4.445" y1="-0.890" x2="-4.445" y2="-5.970" stroke="#4a5160" stroke-width="0.080" stroke-linecap="round" opacity="0.7"/><line x1="-4.445" y1="5.970" x2="-4.445" y2="0.890" stroke="#4a5160" stroke-width="0.080" stroke-linecap="round" opacity="0.7"/><line x1="-3.175" y1="-5.970" x2="-1.905" y2="-5.970" stroke="#4a5160" stroke-width="0.080" stroke-linecap="round" opacity="0.7"/><line x1="-3.175" y1="-0.890" x2="-3.175" y2="-5.970" stroke="#4a5160" stroke-width="0.080" stroke-linecap="round" opacity="0.7"/><line x1="-3.175" y1="-0.890" x2="-1.905" y2="-0.890" stroke="#4a5160" stroke-width="0.080" stroke-linecap="round" opacity="0.7"/><line x1="-3.175" y1="0.890" x2="-1.905" y2="0.890" stroke="#4a5160" stroke-width="0.080" stroke-linecap="round" opacity="0.7"/><line x1="-3.175" y1="5.970" x2="-3.175" y2="0.890" stroke="#4a5160" stroke-width="0.080" stroke-linecap="round" opacity="0.7"/><line x1="-3.175" y1="5.970" x2="-1.905" y2="5.970" stroke="#4a5160" stroke-width="0.080" stroke-linecap="round" opacity="0.7"/><line x1="-3.040" y1="-3.430" x2="-2.540" y2="-3.430" stroke="#4a5160" stroke-width="0.080" stroke-linecap="round" opacity="0.7"/><line x1="-3.040" y1="3.430" x2="-2.540" y2="3.430" stroke="#4a5160" stroke-width="0.080" stroke-linecap="round" opacity="0.7"/><line x1="-2.540" y1="-3.430" x2="-2.540" y2="-3.930" stroke="#4a5160" stroke-width="0.080" stroke-linecap="round" opacity="0.7"/><line x1="-2.540" y1="-3.430" x2="-2.040" y2="-3.430" stroke="#4a5160" stroke-width="0.080" stroke-linecap="round" opacity="0.7"/><line x1="-2.540" y1="-2.930" x2="-2.540" y2="-3.430" stroke="#4a5160" stroke-width="0.080" stroke-linecap="round" opacity="0.7"/><line x1="-2.540" y1="3.430" x2="-2.540" y2="2.930" stroke="#4a5160" stroke-width="0.080" stroke-linecap="round" opacity="0.7"/><line x1="-2.540" y1="3.430" x2="-2.040" y2="3.430" stroke="#4a5160" stroke-width="0.080" stroke-linecap="round" opacity="0.7"/><line x1="-2.540" y1="3.930" x2="-2.540" y2="3.430" stroke="#4a5160" stroke-width="0.080" stroke-linecap="round" opacity="0.7"/><line x1="-1.905" y1="-0.890" x2="-1.905" y2="-5.970" stroke="#4a5160" stroke-width="0.080" stroke-linecap="round" opacity="0.7"/><line x1="-1.905" y1="5.970" x2="-1.905" y2="0.890" stroke="#4a5160" stroke-width="0.080" stroke-linecap="round" opacity="0.7"/><line x1="-0.635" y1="-5.970" x2="0.635" y2="-5.970" stroke="#4a5160" stroke-width="0.080" stroke-linecap="round" opacity="0.7"/><line x1="-0.635" y1="-0.890" x2="-0.635" y2="-5.970" stroke="#4a5160" stroke-width="0.080" stroke-linecap="round" opacity="0.7"/><line x1="-0.635" y1="-0.890" x2="0.635" y2="-0.890" stroke="#4a5160" stroke-width="0.080" stroke-linecap="round" opacity="0.7"/><line x1="-0.635" y1="0.890" x2="0.635" y2="0.890" stroke="#4a5160" stroke-width="0.080" stroke-linecap="round" opacity="0.7"/><line x1="-0.635" y1="5.970" x2="-0.635" y2="0.890" stroke="#4a5160" stroke-width="0.080" stroke-linecap="round" opacity="0.7"/><line x1="-0.635" y1="5.970" x2="0.635" y2="5.970" stroke="#4a5160" stroke-width="0.080" stroke-linecap="round" opacity="0.7"/><line x1="-0.500" y1="-3.430" x2="0.000" y2="-3.430" stroke="#4a5160" stroke-width="0.080" stroke-linecap="round" opacity="0.7"/><line x1="-0.500" y1="0.000" x2="0.000" y2="0.000" stroke="#4a5160" stroke-width="0.080" stroke-linecap="round" opacity="0.7"/><line x1="-0.500" y1="3.430" x2="0.000" y2="3.430" stroke="#4a5160" stroke-width="0.080" stroke-linecap="round" opacity="0.7"/><line x1="0.000" y1="-3.430" x2="0.000" y2="-3.930" stroke="#4a5160" stroke-width="0.080" stroke-linecap="round" opacity="0.7"/><line x1="0.000" y1="-3.430" x2="0.500" y2="-3.430" stroke="#4a5160" stroke-width="0.080" stroke-linecap="round" opacity="0.7"/><line x1="0.000" y1="-2.930" x2="0.000" y2="-3.430" stroke="#4a5160" stroke-width="0.080" stroke-linecap="round" opacity="0.7"/><line x1="0.000" y1="0.000" x2="0.000" y2="-0.500" stroke="#4a5160" stroke-width="0.080" stroke-linecap="round" opacity="0.7"/><line x1="0.000" y1="0.000" x2="0.500" y2="0.000" stroke="#4a5160" stroke-width="0.080" stroke-linecap="round" opacity="0.7"/><line x1="0.000" y1="0.500" x2="0.000" y2="0.000" stroke="#4a5160" stroke-width="0.080" stroke-linecap="round" opacity="0.7"/><line x1="0.000" y1="3.430" x2="0.000" y2="2.930" stroke="#4a5160" stroke-width="0.080" stroke-linecap="round" opacity="0.7"/><line x1="0.000" y1="3.430" x2="0.500" y2="3.430" stroke="#4a5160" stroke-width="0.080" stroke-linecap="round" opacity="0.7"/><line x1="0.000" y1="3.930" x2="0.000" y2="3.430" stroke="#4a5160" stroke-width="0.080" stroke-linecap="round" opacity="0.7"/><line x1="0.635" y1="-0.890" x2="0.635" y2="-5.970" stroke="#4a5160" stroke-width="0.080" stroke-linecap="round" opacity="0.7"/><line x1="0.635" y1="5.970" x2="0.635" y2="0.890" stroke="#4a5160" stroke-width="0.080" stroke-linecap="round" opacity="0.7"/><line x1="1.905" y1="-5.970" x2="3.175" y2="-5.970" stroke="#4a5160" stroke-width="0.080" stroke-linecap="round" opacity="0.7"/><line x1="1.905" y1="-0.890" x2="1.905" y2="-5.970" stroke="#4a5160" stroke-width="0.080" stroke-linecap="round" opacity="0.7"/><line x1="1.905" y1="-0.890" x2="3.175" y2="-0.890" stroke="#4a5160" stroke-width="0.080" stroke-linecap="round" opacity="0.7"/><line x1="1.905" y1="0.890" x2="3.175" y2="0.890" stroke="#4a5160" stroke-width="0.080" stroke-linecap="round" opacity="0.7"/><line x1="1.905" y1="5.970" x2="1.905" y2="0.890" stroke="#4a5160" stroke-width="0.080" stroke-linecap="round" opacity="0.7"/><line x1="1.905" y1="5.970" x2="3.175" y2="5.970" stroke="#4a5160" stroke-width="0.080" stroke-linecap="round" opacity="0.7"/><line x1="2.040" y1="-3.430" x2="2.540" y2="-3.430" stroke="#4a5160" stroke-width="0.080" stroke-linecap="round" opacity="0.7"/><line x1="2.040" y1="3.430" x2="2.540" y2="3.430" stroke="#4a5160" stroke-width="0.080" stroke-linecap="round" opacity="0.7"/><line x1="2.540" y1="-3.430" x2="2.540" y2="-3.930" stroke="#4a5160" stroke-width="0.080" stroke-linecap="round" opacity="0.7"/><line x1="2.540" y1="-3.430" x2="3.040" y2="-3.430" stroke="#4a5160" stroke-width="0.080" stroke-linecap="round" opacity="0.7"/><line x1="2.540" y1="-2.930" x2="2.540" y2="-3.430" stroke="#4a5160" stroke-width="0.080" stroke-linecap="round" opacity="0.7"/><line x1="2.540" y1="3.430" x2="2.540" y2="2.930" stroke="#4a5160" stroke-width="0.080" stroke-linecap="round" opacity="0.7"/><line x1="2.540" y1="3.430" x2="3.040" y2="3.430" stroke="#4a5160" stroke-width="0.080" stroke-linecap="round" opacity="0.7"/><line x1="2.540" y1="3.930" x2="2.540" y2="3.430" stroke="#4a5160" stroke-width="0.080" stroke-linecap="round" opacity="0.7"/><line x1="3.175" y1="-0.890" x2="3.175" y2="-5.970" stroke="#4a5160" stroke-width="0.080" stroke-linecap="round" opacity="0.7"/><line x1="3.175" y1="5.970" x2="3.175" y2="0.890" stroke="#4a5160" stroke-width="0.080" stroke-linecap="round" opacity="0.7"/><line x1="4.445" y1="-5.970" x2="5.715" y2="-5.970" stroke="#4a5160" stroke-width="0.080" stroke-linecap="round" opacity="0.7"/><line x1="4.445" y1="-0.890" x2="4.445" y2="-5.970" stroke="#4a5160" stroke-width="0.080" stroke-linecap="round" opacity="0.7"/><line x1="4.445" y1="-0.890" x2="5.715" y2="-0.890" stroke="#4a5160" stroke-width="0.080" stroke-linecap="round" opacity="0.7"/><line x1="4.445" y1="0.890" x2="5.715" y2="0.890" stroke="#4a5160" stroke-width="0.080" stroke-linecap="round" opacity="0.7"/><line x1="4.445" y1="5.970" x2="4.445" y2="0.890" stroke="#4a5160" stroke-width="0.080" stroke-linecap="round" opacity="0.7"/><line x1="4.445" y1="5.970" x2="5.715" y2="5.970" stroke="#4a5160" stroke-width="0.080" stroke-linecap="round" opacity="0.7"/><line x1="4.580" y1="-3.430" x2="5.080" y2="-3.430" stroke="#4a5160" stroke-width="0.080" stroke-linecap="round" opacity="0.7"/><line x1="4.580" y1="3.430" x2="5.080" y2="3.430" stroke="#4a5160" stroke-width="0.080" stroke-linecap="round" opacity="0.7"/><line x1="5.080" y1="-3.430" x2="5.080" y2="-3.930" stroke="#4a5160" stroke-width="0.080" stroke-linecap="round" opacity="0.7"/><line x1="5.080" y1="-3.430" x2="5.580" y2="-3.430" stroke="#4a5160" stroke-width="0.080" stroke-linecap="round" opacity="0.7"/><line x1="5.080" y1="-2.930" x2="5.080" y2="-3.430" stroke="#4a5160" stroke-width="0.080" stroke-linecap="round" opacity="0.7"/><line x1="5.080" y1="3.430" x2="5.080" y2="2.930" stroke="#4a5160" stroke-width="0.080" stroke-linecap="round" opacity="0.7"/><line x1="5.080" y1="3.430" x2="5.580" y2="3.430" stroke="#4a5160" stroke-width="0.080" stroke-linecap="round" opacity="0.7"/><line x1="5.080" y1="3.930" x2="5.080" y2="3.430" stroke="#4a5160" stroke-width="0.080" stroke-linecap="round" opacity="0.7"/><line x1="5.715" y1="-0.890" x2="5.715" y2="-5.970" stroke="#4a5160" stroke-width="0.080" stroke-linecap="round" opacity="0.7"/><line x1="5.715" y1="5.970" x2="5.715" y2="0.890" stroke="#4a5160" stroke-width="0.080" stroke-linecap="round" opacity="0.7"/><line x1="-10.410" y1="-6.220" x2="10.410" y2="-6.220" stroke="#d24d4d" stroke-width="0.080" stroke-linecap="round" opacity="0.7"/><line x1="-10.410" y1="6.220" x2="-10.410" y2="-6.220" stroke="#d24d4d" stroke-width="0.080" stroke-linecap="round" opacity="0.7"/><line x1="-10.410" y1="6.220" x2="10.410" y2="6.220" stroke="#d24d4d" stroke-width="0.080" stroke-linecap="round" opacity="0.7"/><line x1="10.410" y1="6.220" x2="10.410" y2="-6.220" stroke="#d24d4d" stroke-width="0.080" stroke-linecap="round" opacity="0.7"/><line x1="-10.160" y1="-4.826" x2="-8.890" y2="-4.826" stroke="#6b7280" stroke-width="0.100" stroke-linecap="round" opacity="0.8"/><line x1="-10.160" y1="4.445" x2="-10.160" y2="-4.826" stroke="#6b7280" stroke-width="0.100" stroke-linecap="round" opacity="0.8"/><line x1="-10.160" y1="4.445" x2="10.160" y2="4.445" stroke="#6b7280" stroke-width="0.100" stroke-linecap="round" opacity="0.8"/><line x1="-8.890" y1="-4.445" x2="-8.890" y2="-4.826" stroke="#6b7280" stroke-width="0.100" stroke-linecap="round" opacity="0.8"/><line x1="-8.890" y1="-4.445" x2="-1.270" y2="-4.445" stroke="#6b7280" stroke-width="0.100" stroke-linecap="round" opacity="0.8"/><line x1="-8.890" y1="-3.175" x2="8.890" y2="-3.175" stroke="#6b7280" stroke-width="0.100" stroke-linecap="round" opacity="0.8"/><line x1="-8.890" y1="3.175" x2="-8.890" y2="-3.175" stroke="#6b7280" stroke-width="0.100" stroke-linecap="round" opacity="0.8"/><line x1="-8.890" y1="3.175" x2="8.890" y2="3.175" stroke="#6b7280" stroke-width="0.100" stroke-linecap="round" opacity="0.8"/><line x1="-5.715" y1="4.191" x2="-4.445" y2="4.191" stroke="#6b7280" stroke-width="0.100" stroke-linecap="round" opacity="0.8"/><line x1="-5.715" y1="4.445" x2="-5.715" y2="4.191" stroke="#6b7280" stroke-width="0.100" stroke-linecap="round" opacity="0.8"/><line x1="-5.397" y1="-5.588" x2="-4.763" y2="-5.588" stroke="#6b7280" stroke-width="0.100" stroke-linecap="round" opacity="0.8"/><line x1="-5.397" y1="-4.445" x2="-5.397" y2="-5.588" stroke="#6b7280" stroke-width="0.100" stroke-linecap="round" opacity="0.8"/><line x1="-5.397" y1="-1.587" x2="-4.763" y2="-1.587" stroke="#6b7280" stroke-width="0.100" stroke-linecap="round" opacity="0.8"/><line x1="-5.397" y1="-0.953" x2="-5.397" y2="-1.587" stroke="#6b7280" stroke-width="0.100" stroke-linecap="round" opacity="0.8"/><line x1="-5.397" y1="-0.953" x2="-4.763" y2="-0.953" stroke="#6b7280" stroke-width="0.100" stroke-linecap="round" opacity="0.8"/><line x1="-5.397" y1="0.953" x2="-4.763" y2="0.953" stroke="#6b7280" stroke-width="0.100" stroke-linecap="round" opacity="0.8"/><line x1="-5.397" y1="1.587" x2="-5.397" y2="0.953" stroke="#6b7280" stroke-width="0.100" stroke-linecap="round" opacity="0.8"/><line x1="-5.397" y1="1.587" x2="-4.763" y2="1.587" stroke="#6b7280" stroke-width="0.100" stroke-linecap="round" opacity="0.8"/><line x1="-5.397" y1="5.588" x2="-5.397" y2="4.445" stroke="#6b7280" stroke-width="0.100" stroke-linecap="round" opacity="0.8"/><line x1="-5.397" y1="5.588" x2="-4.763" y2="5.588" stroke="#6b7280" stroke-width="0.100" stroke-linecap="round" opacity="0.8"/><line x1="-4.763" y1="-4.445" x2="-4.763" y2="-5.588" stroke="#6b7280" stroke-width="0.100" stroke-linecap="round" opacity="0.8"/><line x1="-4.763" y1="-0.953" x2="-4.763" y2="-1.587" stroke="#6b7280" stroke-width="0.100" stroke-linecap="round" opacity="0.8"/><line x1="-4.763" y1="1.587" x2="-4.763" y2="0.953" stroke="#6b7280" stroke-width="0.100" stroke-linecap="round" opacity="0.8"/><line x1="-4.763" y1="5.588" x2="-4.763" y2="4.445" stroke="#6b7280" stroke-width="0.100" stroke-linecap="round" opacity="0.8"/><line x1="-4.445" y1="4.445" x2="-4.445" y2="4.191" stroke="#6b7280" stroke-width="0.100" stroke-linecap="round" opacity="0.8"/><line x1="-2.857" y1="-5.588" x2="-2.223" y2="-5.588" stroke="#6b7280" stroke-width="0.100" stroke-linecap="round" opacity="0.8"/><line x1="-2.857" y1="-4.445" x2="-2.857" y2="-5.588" stroke="#6b7280" stroke-width="0.100" stroke-linecap="round" opacity="0.8"/><line x1="-2.857" y1="-1.587" x2="-2.223" y2="-1.587" stroke="#6b7280" stroke-width="0.100" stroke-linecap="round" opacity="0.8"/><line x1="-2.857" y1="-0.953" x2="-2.857" y2="-1.587" stroke="#6b7280" stroke-width="0.100" stroke-linecap="round" opacity="0.8"/><line x1="-2.857" y1="-0.953" x2="-2.223" y2="-0.953" stroke="#6b7280" stroke-width="0.100" stroke-linecap="round" opacity="0.8"/><line x1="-2.857" y1="0.953" x2="-2.223" y2="0.953" stroke="#6b7280" stroke-width="0.100" stroke-linecap="round" opacity="0.8"/><line x1="-2.857" y1="1.587" x2="-2.857" y2="0.953" stroke="#6b7280" stroke-width="0.100" stroke-linecap="round" opacity="0.8"/><line x1="-2.857" y1="1.587" x2="-2.223" y2="1.587" stroke="#6b7280" stroke-width="0.100" stroke-linecap="round" opacity="0.8"/><line x1="-2.857" y1="5.588" x2="-2.857" y2="4.445" stroke="#6b7280" stroke-width="0.100" stroke-linecap="round" opacity="0.8"/><line x1="-2.857" y1="5.588" x2="-2.223" y2="5.588" stroke="#6b7280" stroke-width="0.100" stroke-linecap="round" opacity="0.8"/><line x1="-2.540" y1="4.445" x2="-2.540" y2="3.175" stroke="#6b7280" stroke-width="0.100" stroke-linecap="round" opacity="0.8"/><line x1="-2.223" y1="-4.445" x2="-2.223" y2="-5.588" stroke="#6b7280" stroke-width="0.100" stroke-linecap="round" opacity="0.8"/><line x1="-2.223" y1="-0.953" x2="-2.223" y2="-1.587" stroke="#6b7280" stroke-width="0.100" stroke-linecap="round" opacity="0.8"/><line x1="-2.223" y1="1.587" x2="-2.223" y2="0.953" stroke="#6b7280" stroke-width="0.100" stroke-linecap="round" opacity="0.8"/><line x1="-2.223" y1="5.588" x2="-2.223" y2="4.445" stroke="#6b7280" stroke-width="0.100" stroke-linecap="round" opacity="0.8"/><line x1="-1.270" y1="-4.826" x2="1.270" y2="-4.826" stroke="#6b7280" stroke-width="0.100" stroke-linecap="round" opacity="0.8"/><line x1="-1.270" y1="-4.445" x2="-1.270" y2="-4.826" stroke="#6b7280" stroke-width="0.100" stroke-linecap="round" opacity="0.8"/><line x1="-0.318" y1="-5.588" x2="0.318" y2="-5.588" stroke="#6b7280" stroke-width="0.100" stroke-linecap="round" opacity="0.8"/><line x1="-0.318" y1="-4.826" x2="-0.318" y2="-5.588" stroke="#6b7280" stroke-width="0.100" stroke-linecap="round" opacity="0.8"/><line x1="-0.318" y1="-1.587" x2="0.318" y2="-1.587" stroke="#6b7280" stroke-width="0.100" stroke-linecap="round" opacity="0.8"/><line x1="-0.318" y1="-0.953" x2="-0.318" y2="-1.587" stroke="#6b7280" stroke-width="0.100" stroke-linecap="round" opacity="0.8"/><line x1="-0.318" y1="-0.953" x2="0.318" y2="-0.953" stroke="#6b7280" stroke-width="0.100" stroke-linecap="round" opacity="0.8"/><line x1="-0.318" y1="0.953" x2="0.318" y2="0.953" stroke="#6b7280" stroke-width="0.100" stroke-linecap="round" opacity="0.8"/><line x1="-0.318" y1="1.587" x2="-0.318" y2="0.953" stroke="#6b7280" stroke-width="0.100" stroke-linecap="round" opacity="0.8"/><line x1="-0.318" y1="1.587" x2="0.318" y2="1.587" stroke="#6b7280" stroke-width="0.100" stroke-linecap="round" opacity="0.8"/><line x1="-0.318" y1="5.588" x2="-0.318" y2="4.445" stroke="#6b7280" stroke-width="0.100" stroke-linecap="round" opacity="0.8"/><line x1="-0.318" y1="5.588" x2="0.318" y2="5.588" stroke="#6b7280" stroke-width="0.100" stroke-linecap="round" opacity="0.8"/><line x1="0.318" y1="-4.826" x2="0.318" y2="-5.588" stroke="#6b7280" stroke-width="0.100" stroke-linecap="round" opacity="0.8"/><line x1="0.318" y1="-0.953" x2="0.318" y2="-1.587" stroke="#6b7280" stroke-width="0.100" stroke-linecap="round" opacity="0.8"/><line x1="0.318" y1="1.587" x2="0.318" y2="0.953" stroke="#6b7280" stroke-width="0.100" stroke-linecap="round" opacity="0.8"/><line x1="0.318" y1="5.588" x2="0.318" y2="4.445" stroke="#6b7280" stroke-width="0.100" stroke-linecap="round" opacity="0.8"/><line x1="1.270" y1="-4.445" x2="1.270" y2="-4.826" stroke="#6b7280" stroke-width="0.100" stroke-linecap="round" opacity="0.8"/><line x1="1.270" y1="-4.445" x2="8.890" y2="-4.445" stroke="#6b7280" stroke-width="0.100" stroke-linecap="round" opacity="0.8"/><line x1="2.223" y1="-5.588" x2="2.857" y2="-5.588" stroke="#6b7280" stroke-width="0.100" stroke-linecap="round" opacity="0.8"/><line x1="2.223" y1="-4.445" x2="2.223" y2="-5.588" stroke="#6b7280" stroke-width="0.100" stroke-linecap="round" opacity="0.8"/><line x1="2.223" y1="-1.587" x2="2.857" y2="-1.587" stroke="#6b7280" stroke-width="0.100" stroke-linecap="round" opacity="0.8"/><line x1="2.223" y1="-0.953" x2="2.223" y2="-1.587" stroke="#6b7280" stroke-width="0.100" stroke-linecap="round" opacity="0.8"/><line x1="2.223" y1="-0.953" x2="2.857" y2="-0.953" stroke="#6b7280" stroke-width="0.100" stroke-linecap="round" opacity="0.8"/><line x1="2.223" y1="0.953" x2="2.857" y2="0.953" stroke="#6b7280" stroke-width="0.100" stroke-linecap="round" opacity="0.8"/><line x1="2.223" y1="1.587" x2="2.223" y2="0.953" stroke="#6b7280" stroke-width="0.100" stroke-linecap="round" opacity="0.8"/><line x1="2.223" y1="1.587" x2="2.857" y2="1.587" stroke="#6b7280" stroke-width="0.100" stroke-linecap="round" opacity="0.8"/><line x1="2.223" y1="5.588" x2="2.223" y2="4.445" stroke="#6b7280" stroke-width="0.100" stroke-linecap="round" opacity="0.8"/><line x1="2.223" y1="5.588" x2="2.857" y2="5.588" stroke="#6b7280" stroke-width="0.100" stroke-linecap="round" opacity="0.8"/><line x1="2.540" y1="4.445" x2="2.540" y2="3.175" stroke="#6b7280" stroke-width="0.100" stroke-linecap="round" opacity="0.8"/><line x1="2.857" y1="-4.445" x2="2.857" y2="-5.588" stroke="#6b7280" stroke-width="0.100" stroke-linecap="round" opacity="0.8"/><line x1="2.857" y1="-0.953" x2="2.857" y2="-1.587" stroke="#6b7280" stroke-width="0.100" stroke-linecap="round" opacity="0.8"/><line x1="2.857" y1="1.587" x2="2.857" y2="0.953" stroke="#6b7280" stroke-width="0.100" stroke-linecap="round" opacity="0.8"/><line x1="2.857" y1="5.588" x2="2.857" y2="4.445" stroke="#6b7280" stroke-width="0.100" stroke-linecap="round" opacity="0.8"/><line x1="4.763" y1="-5.588" x2="5.397" y2="-5.588" stroke="#6b7280" stroke-width="0.100" stroke-linecap="round" opacity="0.8"/><line x1="4.763" y1="-4.445" x2="4.763" y2="-5.588" stroke="#6b7280" stroke-width="0.100" stroke-linecap="round" opacity="0.8"/><line x1="4.763" y1="-1.587" x2="5.397" y2="-1.587" stroke="#6b7280" stroke-width="0.100" stroke-linecap="round" opacity="0.8"/><line x1="4.763" y1="-0.953" x2="4.763" y2="-1.587" stroke="#6b7280" stroke-width="0.100" stroke-linecap="round" opacity="0.8"/><line x1="4.763" y1="-0.953" x2="5.397" y2="-0.953" stroke="#6b7280" stroke-width="0.100" stroke-linecap="round" opacity="0.8"/><line x1="4.763" y1="0.953" x2="5.397" y2="0.953" stroke="#6b7280" stroke-width="0.100" stroke-linecap="round" opacity="0.8"/><line x1="4.763" y1="1.587" x2="4.763" y2="0.953" stroke="#6b7280" stroke-width="0.100" stroke-linecap="round" opacity="0.8"/><line x1="4.763" y1="1.587" x2="5.397" y2="1.587" stroke="#6b7280" stroke-width="0.100" stroke-linecap="round" opacity="0.8"/><line x1="4.763" y1="5.588" x2="4.763" y2="4.445" stroke="#6b7280" stroke-width="0.100" stroke-linecap="round" opacity="0.8"/><line x1="4.763" y1="5.588" x2="5.397" y2="5.588" stroke="#6b7280" stroke-width="0.100" stroke-linecap="round" opacity="0.8"/><line x1="5.397" y1="-4.445" x2="5.397" y2="-5.588" stroke="#6b7280" stroke-width="0.100" stroke-linecap="round" opacity="0.8"/><line x1="5.397" y1="-0.953" x2="5.397" y2="-1.587" stroke="#6b7280" stroke-width="0.100" stroke-linecap="round" opacity="0.8"/><line x1="5.397" y1="1.587" x2="5.397" y2="0.953" stroke="#6b7280" stroke-width="0.100" stroke-linecap="round" opacity="0.8"/><line x1="5.397" y1="5.588" x2="5.397" y2="4.445" stroke="#6b7280" stroke-width="0.100" stroke-linecap="round" opacity="0.8"/><line x1="8.890" y1="-4.826" x2="10.160" y2="-4.826" stroke="#6b7280" stroke-width="0.100" stroke-linecap="round" opacity="0.8"/><line x1="8.890" y1="-4.445" x2="8.890" y2="-4.826" stroke="#6b7280" stroke-width="0.100" stroke-linecap="round" opacity="0.8"/><line x1="8.890" y1="3.175" x2="8.890" y2="-3.175" stroke="#6b7280" stroke-width="0.100" stroke-linecap="round" opacity="0.8"/><line x1="10.160" y1="4.445" x2="10.160" y2="-4.826" stroke="#6b7280" stroke-width="0.100" stroke-linecap="round" opacity="0.8"/><circle cx="-6.390" cy="5.570" r="0.150" fill="#e6e9ef" opacity="1"/><circle cx="-6.388" cy="5.570" r="0.250" fill="#6b7280" opacity="0.8"/><rect x="-5.715" y="0.890" width="1.270" height="5.080" rx="0.000" fill="#c79b5c"/><rect x="-5.715" y="-5.970" width="1.270" height="5.080" rx="0.000" fill="#c79b5c"/><rect x="-3.175" y="0.890" width="1.270" height="5.080" rx="0.000" fill="#c79b5c"/><rect x="-3.175" y="-5.970" width="1.270" height="5.080" rx="0.000" fill="#c79b5c"/><rect x="-0.635" y="0.890" width="1.270" height="5.080" rx="0.000" fill="#c79b5c"/><rect x="-0.635" y="-5.970" width="1.270" height="5.080" rx="0.000" fill="#c79b5c"/><rect x="1.905" y="0.890" width="1.270" height="5.080" rx="0.000" fill="#c79b5c"/><rect x="1.905" y="-5.970" width="1.270" height="5.080" rx="0.000" fill="#c79b5c"/><rect x="4.445" y="0.890" width="1.270" height="5.080" rx="0.000" fill="#c79b5c"/><rect x="4.445" y="-5.970" width="1.270" height="5.080" rx="0.000" fill="#c79b5c"/></svg>