<svg xmlns="http://www.w3.org/2000/svg" viewBox="-13.95 -13.95 27.90 27.90" preserveAspectRatio="xMidYMid meet" style="width:100%;height:100%"><rect x="-13.95" y="-13.95" width="27.90" height="27.90" fill="#12151c"/><line x1="-12.700" y1="-12.700" x2="11.700" y2="-12.700" stroke="#e6e9ef" stroke-width="0.200" stroke-linecap="round" opacity="1"/><line x1="-12.700" y1="11.700" x2="-12.700" y2="-12.700" stroke="#e6e9ef" stroke-width="0.200" stroke-linecap="round" opacity="1"/><line x1="-12.200" y1="11.200" x2="-12.200" y2="-11.200" stroke="#e6e9ef" stroke-width="0.200" stroke-linecap="round" opacity="1"/><line x1="-11.700" y1="12.700" x2="11.700" y2="12.700" stroke="#e6e9ef" stroke-width="0.200" stroke-linecap="round" opacity="1"/><line x1="-11.200" y1="-12.200" x2="11.200" y2="-12.200" stroke="#e6e9ef" stroke-width="0.200" stroke-linecap="round" opacity="1"/><line x1="-11.200" y1="12.200" x2="11.200" y2="12.200" stroke="#e6e9ef" stroke-width="0.200" stroke-linecap="round" opacity="1"/><line x1="12.200" y1="11.200" x2="12.200" y2="-11.200" stroke="#e6e9ef" stroke-width="0.200" stroke-linecap="round" opacity="1"/><line x1="12.700" y1="11.700" x2="12.700" y2="-11.700" stroke="#e6e9ef" stroke-width="0.200" stroke-linecap="round" opacity="1"/><line x1="-10.025" y1="-9.525" x2="-9.525" y2="-9.525" stroke="#4a5160" stroke-width="0.080" stroke-linecap="round" opacity="0.7"/><line x1="-10.025" y1="0.000" x2="-9.525" y2="0.000" stroke="#4a5160" stroke-width="0.080" stroke-linecap="round" opacity="0.7"/><line x1="-10.025" y1="9.525" x2="-9.525" y2="9.525" stroke="#4a5160" stroke-width="0.080" stroke-linecap="round" opacity="0.7"/><line x1="-9.525" y1="-9.525" x2="-9.525" y2="-10.025" stroke="#4a5160" stroke-width="0.080" stroke-linecap="round" opacity="0.7"/><line x1="-9.525" y1="-9.525" x2="-9.025" y2="-9.525" stroke="#4a5160" stroke-width="0.080" stroke-linecap="round" opacity="0.7"/><line x1="-9.525" y1="-9.025" x2="-9.525" y2="-9.525" stroke="#4a5160" stroke-width="0.080" stroke-linecap="round" opacity="0.7"/><line x1="-9.525" y1="0.000" x2="-9.525" y2="-0.500" stroke="#4a5160" stroke-width="0.080" stroke-linecap="round" opacity="0.7"/><line x1="-9.525" y1="0.000" x2="-9.025" y2="0.000" stroke="#4a5160" stroke-width="0.080" stroke-linecap="round" opacity="0.7"/><line x1="-9.525" y1="0.500" x2="-9.525" y2="0.000" stroke="#4a5160" stroke-width="0.080" stroke-linecap="round" opacity="0.7"/><line x1="-9.525" y1="9.525" x2="-9.525" y2="9.025" stroke="#4a5160" stroke-width="0.080" stroke-linecap="round" opacity="0.7"/><line x1="-9.525" y1="9.525" x2="-9.025" y2="9.525" stroke="#4a5160" stroke-width="0.080" stroke-linecap="round" opacity="0.7"/><line x1="-9.525" y1="10.025" x2="-9.525" y2="9.525" stroke="#4a5160" stroke-width="0.080" stroke-linecap="round" opacity="0.7"/><line x1="-0.500" y1="0.000" x2="0.000" y2="0.000" stroke="#4a5160" stroke-width="0.080" stroke-linecap="round" opacity="0.7"/><line x1="0.000" y1="0.000" x2="0.000" y2="-0.500" stroke="#4a5160" stroke-width="0.080" stroke-linecap="round" opacity="0.7"/><line x1="0.000" y1="0.000" x2="0.500" y2="0.000" stroke="#4a5160" stroke-width="0.080" stroke-linecap="round" opacity="0.7"/><line x1="0.000" y1="0.500" x2="0.000" y2="0.000" stroke="#4a5160" stroke-width="0.080" stroke-linecap="round" opacity="0.7"/><line x1="9.025" y1="-9.525" x2="9.525" y2="-9.525" stroke="#4a5160" stroke-width="0.080" stroke-linecap="round" opacity="0.7"/><line x1="9.025" y1="9.525" x2="9.525" y2="9.525" stroke="#4a5160" stroke-width="0.080" stroke-linecap="round" opacity="0.7"/><line x1="9.525" y1="-9.525" x2="9.525" y2="-10.025" stroke="#4a5160" stroke-width="0.080" stroke-linecap="round" opacity="0.7"/><line x1="9.525" y1="-9.525" x2="10.025" y2="-9.525" stroke="#4a5160" stroke-width="0.080" stroke-linecap="round" opacity="0.7"/><line x1="9.525" y1="-9.025" x2="9.525" y2="-9.525" stroke="#4a5160" stroke-width="0.080" stroke-linecap="round" opacity="0.7"/><line x1="9.525" y1="9.525" x2="9.525" y2="9.025" stroke="#4a5160" stroke-width="0.080" stroke-linecap="round" opacity="0.7"/><line x1="9.525" y1="9.525" x2="10.025" y2="9.525" stroke="#4a5160" stroke-width="0.080" stroke-linecap="round" opacity="0.7"/><line x1="9.525" y1="10.025" x2="9.525" y2="9.525" stroke="#4a5160" stroke-width="0.080" stroke-linecap="round" opacity="0.7"/><line x1="-12.700" y1="-12.700" x2="11.700" y2="-12.700" stroke="#6b7280" stroke-width="0.100" stroke-linecap="round" opacity="0.8"/><line x1="-12.700" y1="11.700" x2="-12.700" y2="-12.700" stroke="#6b7280" stroke-width="0.100" stroke-linecap="round" opacity="0.8"/><line x1="-12.200" y1="11.200" x2="-12.200" y2="-11.200" stroke="#6b7280" stroke-width="0.100" stroke-linecap="round" opacity="0.8"/><line x1="-11.700" y1="12.700" x2="11.700" y2="12.700" stroke="#6b7280" stroke-width="0.100" stroke-linecap="round" opacity="0.8"/><line x1="-11.200" y1="-12.200" x2="11.200" y2="-12.200" stroke="#6b7280" stroke-width="0.100" stroke-linecap="round" opacity="0.8"/><line x1="-11.200" y1="12.200" x2="11.200" y2="12.200" stroke="#6b7280" stroke-width="0.100" stroke-linecap="round" opacity="0.8"/><line x1="12.200" y1="11.200" x2="12.200" y2="-11.200" stroke="#6b7280" stroke-width="0.100" stroke-linecap="round" opacity="0.8"/><line x1="12.700" y1="11.700" x2="12.700" y2="-11.700" stroke="#6b7280" stroke-width="0.100" stroke-linecap="round" opacity="0.8"/><line x1="-12.950" y1="-12.950" x2="12.950" y2="-12.950" stroke="#d24d4d" stroke-width="0.080" stroke-linecap="round" opacity="0.7"/><line x1="12.950" y1="-12.950" x2="12.950" y2="12.950" stroke="#d24d4d" stroke-width="0.080" stroke-linecap="round" opacity="0.7"/><line x1="12.950" y1="12.950" x2="-12.950" y2="12.950" stroke="#d24d4d" stroke-width="0.080" stroke-linecap="round" opacity="0.7"/><line x1="-12.950" y1="12.950" x2="-12.950" y2="-12.950" stroke="#d24d4d" stroke-width="0.080" stroke-linecap="round" opacity="0.7"/><path d="M -12.200 -11.200 A 1.000 1.000 0 0 1 -11.200 -12.200" fill="none" stroke="#e6e9ef" stroke-width="0.12" opacity="1"/><path d="M -11.700 12.700 A 1.000 1.000 0 0 1 -12.700 11.700" fill="none" stroke="#e6e9ef" stroke-width="0.12" opacity="1"/><path d="M -11.200 12.200 A 1.000 1.000 0 0 1 -12.200 11.200" fill="none" stroke="#e6e9ef" stroke-width="0.12" opacity="1"/><path d="M 11.200 -12.200 A 1.000 1.000 0 0 1 12.200 -11.200" fill="none" stroke="#e6e9ef" stroke-width="0.12" opacity="1"/><path d="M 11.700 -12.700 A 1.000 1.000 0 0 1 12.700 -11.700" fill="none" stroke="#e6e9ef" stroke-width="0.12" opacity="1"/><path d="M 12.200 11.200 A 1.000 1.000 0 0 1 11.200 12.200" fill="none" stroke="#e6e9ef" stroke-width="0.12" opacity="1"/><path d="M 12.700 11.700 A 1.000 1.000 0 0 1 11.700 12.700" fill="none" stroke="#e6e9ef" stroke-width="0.12" opacity="1"/><path d="M -12.200 -11.200 A 1.000 1.000 0 0 1 -11.200 -12.200" fill="none" stroke="#6b7280" stroke-width="0.12" opacity="0.8"/><path d="M -11.700 12.700 A 1.000 1.000 0 0 1 -12.700 11.700" fill="none" stroke="#6b7280" stroke-width="0.12" opacity="0.8"/><path d="M -11.200 12.200 A 1.000 1.000 0 0 1 -12.200 11.200" fill="none" stroke="#6b7280" stroke-width="0.12" opacity="0.8"/><path d="M 11.200 -12.200 A 1.000 1.000 0 0 1 12.200 -11.200" fill="none" stroke="#6b7280" stroke-width="0.12" opacity="0.8"/><path d="M 11.700 -12.700 A 1.000 1.000 0 0 1 12.700 -11.700" fill="none" stroke="#6b7280" stroke-width="0.12" opacity="0.8"/><path d="M 12.200 11.200 A 1.000 1.000 0 0 1 11.200 12.200" fill="none" stroke="#6b7280" stroke-width="0.12" opacity="0.8"/><path d="M 12.700 11.700 A 1.000 1.000 0 0 1 11.700 12.700" fill="none" stroke="#6b7280" stroke-width="0.12" opacity="0.8"/><circle cx="-9.525" cy="-9.525" r="0.900" fill="none" stroke="#4a5160" stroke-width="0.12" opacity="0.7"/><circle cx="-9.525" cy="-9.525" r="0.550" fill="none" stroke="#4a5160" stroke-width="0.12" opacity="0.7"/><circle cx="-9.700" cy="-9.700" r="0.500" fill="none" stroke="#6b7280" stroke-width="0.12" opacity="0.8"/><rect x="-10.425" y="-10.425" width="1.800" height="1.800" rx="0.000" fill="#c79b5c"/><circle cx="-9.525" cy="-9.525" r="0.550" fill="#12151c"/><rect x="-10.425" y="-0.900" width="1.800" height="1.800" rx="0.900" fill="#c79b5c"/><circle cx="-9.525" cy="0.000" r="0.550" fill="#12151c"/><rect x="-10.425" y="8.625" width="1.800" height="1.800" rx="0.900" fill="#c79b5c"/><circle cx="-9.525" cy="9.525" r="0.550" fill="#12151c"/><rect x="8.625" y="8.625" width="1.800" height="1.800" rx="0.900" fill="#c79b5c"/><circle cx="9.525" cy="9.525" r="0.550" fill="#12151c"/><rect x="8.625" y="-10.425" width="1.800" height="1.800" rx="0.900" fill="#c79b5c"/><circle cx="9.525" cy="-9.525" r="0.550" fill="#12151c"/></svg>