<svg xmlns="http://www.w3.org/2000/svg" viewBox="-7.93 -4.89 15.87 9.69" preserveAspectRatio="xMidYMid meet" style="width:100%;height:100%"><rect x="-7.93" y="-4.89" width="15.87" height="9.69" fill="#12151c"/><line x1="-4.785" y1="-1.625" x2="4.785" y2="-1.625" stroke="#e6e9ef" stroke-width="0.200" stroke-linecap="round" opacity="1"/><line x1="-4.785" y1="-0.800" x2="-4.785" y2="-1.625" stroke="#e6e9ef" stroke-width="0.200" stroke-linecap="round" opacity="1"/><line x1="-4.685" y1="2.025" x2="-4.685" y2="0.714" stroke="#e6e9ef" stroke-width="0.200" stroke-linecap="round" opacity="1"/><line x1="-4.685" y1="2.025" x2="-4.285" y2="1.625" stroke="#e6e9ef" stroke-width="0.200" stroke-linecap="round" opacity="1"/><line x1="-4.685" y1="2.025" x2="-3.930" y2="2.025" stroke="#e6e9ef" stroke-width="0.200" stroke-linecap="round" opacity="1"/><line x1="-4.396" y1="0.150" x2="-4.285" y2="0.150" stroke="#e6e9ef" stroke-width="0.200" stroke-linecap="round" opacity="1"/><line x1="-4.285" y1="1.625" x2="-4.285" y2="0.150" stroke="#e6e9ef" stroke-width="0.200" stroke-linecap="round" opacity="1"/><line x1="-4.285" y1="1.625" x2="4.285" y2="1.625" stroke="#e6e9ef" stroke-width="0.200" stroke-linecap="round" opacity="1"/><line x1="-3.385" y1="-0.785" x2="-2.965" y2="-0.785" stroke="#e6e9ef" stroke-width="0.200" stroke-linecap="round" opacity="1"/><line x1="-3.385" y1="-0.485" x2="-3.385" y2="-0.785" stroke="#e6e9ef" stroke-width="0.200" stroke-linecap="round" opacity="1"/><line x1="-3.385" y1="-0.485" x2="-2.965" y2="-0.485" stroke="#e6e9ef" stroke-width="0.200" stroke-linecap="round" opacity="1"/><line x1="-3.385" y1="0.485" x2="-2.965" y2="0.485" stroke="#e6e9ef" stroke-width="0.200" stroke-linecap="round" opacity="1"/><line x1="-3.385" y1="0.785" x2="-3.385" y2="0.485" stroke="#e6e9ef" stroke-width="0.200" stroke-linecap="round" opacity="1"/><line x1="-3.385" y1="0.785" x2="-2.965" y2="0.785" stroke="#e6e9ef" stroke-width="0.200" stroke-linecap="round" opacity="1"/><line x1="-2.965" y1="-0.485" x2="-2.965" y2="-0.785" stroke="#e6e9ef" stroke-width="0.200" stroke-linecap="round" opacity="1"/><line x1="-2.965" y1="0.785" x2="-2.965" y2="0.485" stroke="#e6e9ef" stroke-width="0.200" stroke-linecap="round" opacity="1"/><line x1="-2.115" y1="-0.785" x2="-1.695" y2="-0.785" stroke="#e6e9ef" stroke-width="0.200" stroke-linecap="round" opacity="1"/><line x1="-2.115" y1="-0.485" x2="-2.115" y2="-0.785" stroke="#e6e9ef" stroke-width="0.200" stroke-linecap="round" opacity="1"/><line x1="-2.115" y1="-0.485" x2="-1.695" y2="-0.485" stroke="#e6e9ef" stroke-width="0.200" stroke-linecap="round" opacity="1"/><line x1="-2.115" y1="0.485" x2="-1.695" y2="0.485" stroke="#e6e9ef" stroke-width="0.200" stroke-linecap="round" opacity="1"/><line x1="-2.115" y1="0.785" x2="-2.115" y2="0.485" stroke="#e6e9ef" stroke-width="0.200" stroke-linecap="round" opacity="1"/><line x1="-2.115" y1="0.785" x2="-1.695" y2="0.785" stroke="#e6e9ef" stroke-width="0.200" stroke-linecap="round" opacity="1"/><line x1="-1.695" y1="-0.485" x2="-1.695" y2="-0.785" stroke="#e6e9ef" stroke-width="0.200" stroke-linecap="round" opacity="1"/><line x1="-1.695" y1="0.785" x2="-1.695" y2="0.485" stroke="#e6e9ef" stroke-width="0.200" stroke-linecap="round" opacity="1"/><line x1="-0.845" y1="-0.785" x2="-0.425" y2="-0.785" stroke="#e6e9ef" stroke-width="0.200" stroke-linecap="round" opacity="1"/><line x1="-0.845" y1="-0.485" x2="-0.845" y2="-0.785" stroke="#e6e9ef" stroke-width="0.200" stroke-linecap="round" opacity="1"/><line x1="-0.845" y1="-0.485" x2="-0.425" y2="-0.485" stroke="#e6e9ef" stroke-width="0.200" stroke-linecap="round" opacity="1"/><line x1="-0.845" y1="0.485" x2="-0.425" y2="0.485" stroke="#e6e9ef" stroke-width="0.200" stroke-linecap="round" opacity="1"/><line x1="-0.845" y1="0.785" x2="-0.845" y2="0.485" stroke="#e6e9ef" stroke-width="0.200" stroke-linecap="round" opacity="1"/><line x1="-0.845" y1="0.785" x2="-0.425" y2="0.785" stroke="#e6e9ef" stroke-width="0.200" stroke-linecap="round" opacity="1"/><line x1="-0.425" y1="-0.485" x2="-0.425" y2="-0.785" stroke="#e6e9ef" stroke-width="0.200" stroke-linecap="round" opacity="1"/><line x1="-0.425" y1="0.785" x2="-0.425" y2="0.485" stroke="#e6e9ef" stroke-width="0.200" stroke-linecap="round" opacity="1"/><line x1="0.425" y1="-0.785" x2="0.845" y2="-0.785" stroke="#e6e9ef" stroke-width="0.200" stroke-linecap="round" opacity="1"/><line x1="0.425" y1="-0.485" x2="0.425" y2="-0.785" stroke="#e6e9ef" stroke-width="0.200" stroke-linecap="round" opacity="1"/><line x1="0.425" y1="-0.485" x2="0.845" y2="-0.485" stroke="#e6e9ef" stroke-width="0.200" stroke-linecap="round" opacity="1"/><line x1="0.425" y1="0.485" x2="0.845" y2="0.485" stroke="#e6e9ef" stroke-width="0.200" stroke-linecap="round" opacity="1"/><line x1="0.425" y1="0.785" x2="0.425" y2="0.485" stroke="#e6e9ef" stroke-width="0.200" stroke-linecap="round" opacity="1"/><line x1="0.425" y1="0.785" x2="0.845" y2="0.785" stroke="#e6e9ef" stroke-width="0.200" stroke-linecap="round" opacity="1"/><line x1="0.845" y1="-0.485" x2="0.845" y2="-0.785" stroke="#e6e9ef" stroke-width="0.200" stroke-linecap="round" opacity="1"/><line x1="0.845" y1="0.785" x2="0.845" y2="0.485" stroke="#e6e9ef" stroke-width="0.200" stroke-linecap="round" opacity="1"/><line x1="1.695" y1="-0.785" x2="2.115" y2="-0.785" stroke="#e6e9ef" stroke-width="0.200" stroke-linecap="round" opacity="1"/><line x1="1.695" y1="-0.485" x2="1.695" y2="-0.785" stroke="#e6e9ef" stroke-width="0.200" stroke-linecap="round" opacity="1"/><line x1="1.695" y1="-0.485" x2="2.115" y2="-0.485" stroke="#e6e9ef" stroke-width="0.200" stroke-linecap="round" opacity="1"/><line x1="1.695" y1="0.485" x2="2.115" y2="0.485" stroke="#e6e9ef" stroke-width="0.200" stroke-linecap="round" opacity="1"/><line x1="1.695" y1="0.785" x2="1.695" y2="0.485" stroke="#e6e9ef" stroke-width="0.200" stroke-linecap="round" opacity="1"/><line x1="1.695" y1="0.785" x2="2.115" y2="0.785" stroke="#e6e9ef" stroke-width="0.200" stroke-linecap="round" opacity="1"/><line x1="2.115" y1="-0.485" x2="2.115" y2="-0.785" stroke="#e6e9ef" stroke-width="0.200" stroke-linecap="round" opacity="1"/><line x1="2.115" y1="0.785" x2="2.115" y2="0.485" stroke="#e6e9ef" stroke-width="0.200" stroke-linecap="round" opacity="1"/><line x1="2.965" y1="-0.785" x2="3.385" y2="-0.785" stroke="#e6e9ef" stroke-width="0.200" stroke-linecap="round" opacity="1"/><line x1="2.965" y1="-0.485" x2="2.965" y2="-0.785" stroke="#e6e9ef" stroke-width="0.200" stroke-linecap="round" opacity="1"/><line x1="2.965" y1="-0.485" x2="3.385" y2="-0.485" stroke="#e6e9ef" stroke-width="0.200" stroke-linecap="round" opacity="1"/><line x1="2.965" y1="0.485" x2="3.385" y2="0.485" stroke="#e6e9ef" stroke-width="0.200" stroke-linecap="round" opacity="1"/><line x1="2.965" y1="0.785" x2="2.965" y2="0.485" stroke="#e6e9ef" stroke-width="0.200" stroke-linecap="round" opacity="1"/><line x1="2.965" y1="0.785" x2="3.385" y2="0.785" stroke="#e6e9ef" stroke-width="0.200" stroke-linecap="round" opacity="1"/><line x1="3.385" y1="-0.485" x2="3.385" y2="-0.785" stroke="#e6e9ef" stroke-width="0.200" stroke-linecap="round" opacity="1"/><line x1="3.385" y1="0.785" x2="3.385" y2="0.485" stroke="#e6e9ef" stroke-width="0.200" stroke-linecap="round" opacity="1"/><line x1="3.930" y1="2.025" x2="4.685" y2="2.025" stroke="#e6e9ef" stroke-width="0.200" stroke-linecap="round" opacity="1"/><line x1="4.285" y1="1.625" x2="4.285" y2="0.150" stroke="#e6e9ef" stroke-width="0.200" stroke-linecap="round" opacity="1"/><line x1="4.285" y1="0.150" x2="4.396" y2="0.150" stroke="#e6e9ef" stroke-width="0.200" stroke-linecap="round" opacity="1"/><line x1="4.285" y1="1.625" x2="4.685" y2="2.025" stroke="#e6e9ef" stroke-width="0.200" stroke-linecap="round" opacity="1"/><line x1="4.685" y1="0.714" x2="4.685" y2="2.025" stroke="#e6e9ef" stroke-width="0.200" stroke-linecap="round" opacity="1"/><line x1="4.785" y1="-0.800" x2="4.785" y2="-1.625" stroke="#e6e9ef" stroke-width="0.200" stroke-linecap="round" opacity="1"/><line x1="-6.385" y1="0.000" x2="-5.385" y2="0.000" stroke="#4a5160" stroke-width="0.100" stroke-linecap="round" opacity="0.7"/><line x1="-5.385" y1="0.000" x2="-5.385" y2="-1.000" stroke="#4a5160" stroke-width="0.100" stroke-linecap="round" opacity="0.7"/><line x1="-5.385" y1="0.000" x2="-4.385" y2="0.000" stroke="#4a5160" stroke-width="0.100" stroke-linecap="round" opacity="0.7"/><line x1="-5.385" y1="1.000" x2="-5.385" y2="0.000" stroke="#4a5160" stroke-width="0.100" stroke-linecap="round" opacity="0.7"/><line x1="-3.575" y1="-3.300" x2="-3.175" y2="-2.750" stroke="#4a5160" stroke-width="0.100" stroke-linecap="round" opacity="0.7"/><line x1="-3.575" y1="-2.200" x2="-3.175" y2="-2.750" stroke="#4a5160" stroke-width="0.100" stroke-linecap="round" opacity="0.7"/><line x1="-3.575" y1="2.200" x2="-3.175" y2="2.750" stroke="#4a5160" stroke-width="0.100" stroke-linecap="round" opacity="0.7"/><line x1="-3.575" y1="3.300" x2="-3.175" y2="2.750" stroke="#4a5160" stroke-width="0.100" stroke-linecap="round" opacity="0.7"/><line x1="-3.175" y1="-2.750" x2="-2.775" y2="-3.300" stroke="#4a5160" stroke-width="0.100" stroke-linecap="round" opacity="0.7"/><line x1="-3.175" y1="-2.750" x2="-2.775" y2="-2.200" stroke="#4a5160" stroke-width="0.100" stroke-linecap="round" opacity="0.7"/><line x1="-3.175" y1="2.750" x2="-2.775" y2="2.200" stroke="#4a5160" stroke-width="0.100" stroke-linecap="round" opacity="0.7"/><line x1="-3.175" y1="2.750" x2="-2.775" y2="3.300" stroke="#4a5160" stroke-width="0.100" stroke-linecap="round" opacity="0.7"/><line x1="-2.305" y1="-3.300" x2="-1.905" y2="-2.750" stroke="#4a5160" stroke-width="0.100" stroke-linecap="round" opacity="0.7"/><line x1="-2.305" y1="-2.200" x2="-1.905" y2="-2.750" stroke="#4a5160" stroke-width="0.100" stroke-linecap="round" opacity="0.7"/><line x1="-2.305" y1="2.200" x2="-1.905" y2="2.750" stroke="#4a5160" stroke-width="0.100" stroke-linecap="round" opacity="0.7"/><line x1="-2.305" y1="3.300" x2="-1.905" y2="2.750" stroke="#4a5160" stroke-width="0.100" stroke-linecap="round" opacity="0.7"/><line x1="-1.905" y1="-2.750" x2="-1.505" y2="-3.300" stroke="#4a5160" stroke-width="0.100" stroke-linecap="round" opacity="0.7"/><line x1="-1.905" y1="-2.750" x2="-1.505" y2="-2.200" stroke="#4a5160" stroke-width="0.100" stroke-linecap="round" opacity="0.7"/><line x1="-1.905" y1="2.750" x2="-1.505" y2="2.200" stroke="#4a5160" stroke-width="0.100" stroke-linecap="round" opacity="0.7"/><line x1="-1.905" y1="2.750" x2="-1.505" y2="3.300" stroke="#4a5160" stroke-width="0.100" stroke-linecap="round" opacity="0.7"/><line x1="-1.035" y1="-3.300" x2="-0.635" y2="-2.750" stroke="#4a5160" stroke-width="0.100" stroke-linecap="round" opacity="0.7"/><line x1="-1.035" y1="-2.200" x2="-0.635" y2="-2.750" stroke="#4a5160" stroke-width="0.100" stroke-linecap="round" opacity="0.7"/><line x1="-1.035" y1="2.200" x2="-0.635" y2="2.750" stroke="#4a5160" stroke-width="0.100" stroke-linecap="round" opacity="0.7"/><line x1="-1.035" y1="3.300" x2="-0.635" y2="2.750" stroke="#4a5160" stroke-width="0.100" stroke-linecap="round" opacity="0.7"/><line x1="-1.000" y1="0.000" x2="0.000" y2="0.000" stroke="#4a5160" stroke-width="0.100" stroke-linecap="round" opacity="0.7"/><line x1="-0.635" y1="-2.750" x2="-0.235" y2="-3.300" stroke="#4a5160" stroke-width="0.100" stroke-linecap="round" opacity="0.7"/><line x1="-0.635" y1="-2.750" x2="-0.235" y2="-2.200" stroke="#4a5160" stroke-width="0.100" stroke-linecap="round" opacity="0.7"/><line x1="-0.635" y1="2.750" x2="-0.235" y2="2.200" stroke="#4a5160" stroke-width="0.100" stroke-linecap="round" opacity="0.7"/><line x1="-0.635" y1="2.750" x2="-0.235" y2="3.300" stroke="#4a5160" stroke-width="0.100" stroke-linecap="round" opacity="0.7"/><line x1="0.000" y1="0.000" x2="0.000" y2="-1.000" stroke="#4a5160" stroke-width="0.100" stroke-linecap="round" opacity="0.7"/><line x1="0.000" y1="0.000" x2="1.000" y2="0.000" stroke="#4a5160" stroke-width="0.100" stroke-linecap="round" opacity="0.7"/><line x1="0.000" y1="1.000" x2="0.000" y2="0.000" stroke="#4a5160" stroke-width="0.100" stroke-linecap="round" opacity="0.7"/><line x1="0.235" y1="-3.300" x2="0.635" y2="-2.750" stroke="#4a5160" stroke-width="0.100" stroke-linecap="round" opacity="0.7"/><line x1="0.235" y1="-2.200" x2="0.635" y2="-2.750" stroke="#4a5160" stroke-width="0.100" stroke-linecap="round" opacity="0.7"/><line x1="0.235" y1="2.200" x2="0.635" y2="2.750" stroke="#4a5160" stroke-width="0.100" stroke-linecap="round" opacity="0.7"/><line x1="0.235" y1="3.300" x2="0.635" y2="2.750" stroke="#4a5160" stroke-width="0.100" stroke-linecap="round" opacity="0.7"/><line x1="0.635" y1="-2.750" x2="1.035" y2="-3.300" stroke="#4a5160" stroke-width="0.100" stroke-linecap="round" opacity="0.7"/><line x1="0.635" y1="-2.750" x2="1.035" y2="-2.200" stroke="#4a5160" stroke-width="0.100" stroke-linecap="round" opacity="0.7"/><line x1="0.635" y1="2.750" x2="1.035" y2="2.200" stroke="#4a5160" stroke-width="0.100" stroke-linecap="round" opacity="0.7"/><line x1="0.635" y1="2.750" x2="1.035" y2="3.300" stroke="#4a5160" stroke-width="0.100" stroke-linecap="round" opacity="0.7"/><line x1="1.505" y1="-3.300" x2="1.905" y2="-2.750" stroke="#4a5160" stroke-width="0.100" stroke-linecap="round" opacity="0.7"/><line x1="1.505" y1="-2.200" x2="1.905" y2="-2.750" stroke="#4a5160" stroke-width="0.100" stroke-linecap="round" opacity="0.7"/><line x1="1.505" y1="2.200" x2="1.905" y2="2.750" stroke="#4a5160" stroke-width="0.100" stroke-linecap="round" opacity="0.7"/><line x1="1.505" y1="3.300" x2="1.905" y2="2.750" stroke="#4a5160" stroke-width="0.100" stroke-linecap="round" opacity="0.7"/><line x1="1.905" y1="-2.750" x2="2.305" y2="-3.300" stroke="#4a5160" stroke-width="0.100" stroke-linecap="round" opacity="0.7"/><line x1="1.905" y1="-2.750" x2="2.305" y2="-2.200" stroke="#4a5160" stroke-width="0.100" stroke-linecap="round" opacity="0.7"/><line x1="1.905" y1="2.750" x2="2.305" y2="2.200" stroke="#4a5160" stroke-width="0.100" stroke-linecap="round" opacity="0.7"/><line x1="1.905" y1="2.750" x2="2.305" y2="3.300" stroke="#4a5160" stroke-width="0.100" stroke-linecap="round" opacity="0.7"/><line x1="2.775" y1="-3.300" x2="3.175" y2="-2.750" stroke="#4a5160" stroke-width="0.100" stroke-linecap="round" opacity="0.7"/><line x1="2.775" y1="-2.200" x2="3.175" y2="-2.750" stroke="#4a5160" stroke-width="0.100" stroke-linecap="round" opacity="0.7"/><line x1="2.775" y1="2.200" x2="3.175" y2="2.750" stroke="#4a5160" stroke-width="0.100" stroke-linecap="round" opacity="0.7"/><line x1="2.775" y1="3.300" x2="3.175" y2="2.750" stroke="#4a5160" stroke-width="0.100" stroke-linecap="round" opacity="0.7"/><line x1="3.175" y1="-2.750" x2="3.575" y2="-3.300" stroke="#4a5160" stroke-width="0.100" stroke-linecap="round" opacity="0.7"/><line x1="3.175" y1="-2.750" x2="3.575" y2="-2.200" stroke="#4a5160" stroke-width="0.100" stroke-linecap="round" opacity="0.7"/><line x1="3.175" y1="2.750" x2="3.575" y2="2.200" stroke="#4a5160" stroke-width="0.100" stroke-linecap="round" opacity="0.7"/><line x1="3.175" y1="2.750" x2="3.575" y2="3.300" stroke="#4a5160" stroke-width="0.100" stroke-linecap="round" opacity="0.7"/><line x1="4.385" y1="0.000" x2="5.385" y2="0.000" stroke="#4a5160" stroke-width="0.100" stroke-linecap="round" opacity="0.7"/><line x1="5.385" y1="0.000" x2="5.385" y2="-1.000" stroke="#4a5160" stroke-width="0.100" stroke-linecap="round" opacity="0.7"/><line x1="5.385" y1="0.000" x2="6.385" y2="0.000" stroke="#4a5160" stroke-width="0.100" stroke-linecap="round" opacity="0.7"/><line x1="5.385" y1="1.000" x2="5.385" y2="0.000" stroke="#4a5160" stroke-width="0.100" stroke-linecap="round" opacity="0.7"/><line x1="-6.285" y1="-3.800" x2="-5.085" y2="-3.800" stroke="#d24d4d" stroke-width="0.100" stroke-linecap="round" opacity="0.7"/><line x1="-6.285" y1="-1.300" x2="-6.285" y2="-3.800" stroke="#d24d4d" stroke-width="0.100" stroke-linecap="round" opacity="0.7"/><line x1="-6.285" y1="-1.300" x2="-5.085" y2="-1.300" stroke="#d24d4d" stroke-width="0.100" stroke-linecap="round" opacity="0.7"/><line x1="-6.285" y1="1.300" x2="-5.085" y2="1.300" stroke="#d24d4d" stroke-width="0.100" stroke-linecap="round" opacity="0.7"/><line x1="-6.285" y1="3.800" x2="-6.285" y2="1.300" stroke="#d24d4d" stroke-width="0.100" stroke-linecap="round" opacity="0.7"/><line x1="-6.285" y1="3.800" x2="-5.085" y2="3.800" stroke="#d24d4d" stroke-width="0.100" stroke-linecap="round" opacity="0.7"/><line x1="-5.085" y1="-1.300" x2="-5.085" y2="-3.800" stroke="#d24d4d" stroke-width="0.100" stroke-linecap="round" opacity="0.7"/><line x1="-5.085" y1="3.800" x2="-5.085" y2="1.300" stroke="#d24d4d" stroke-width="0.100" stroke-linecap="round" opacity="0.7"/><line x1="-3.575" y1="-3.300" x2="-2.775" y2="-3.300" stroke="#d24d4d" stroke-width="0.100" stroke-linecap="round" opacity="0.7"/><line x1="-3.575" y1="-2.200" x2="-3.575" y2="-3.300" stroke="#d24d4d" stroke-width="0.100" stroke-linecap="round" opacity="0.7"/><line x1="-3.575" y1="-2.200" x2="-2.775" y2="-2.200" stroke="#d24d4d" stroke-width="0.100" stroke-linecap="round" opacity="0.7"/><line x1="-3.575" y1="2.200" x2="-2.775" y2="2.200" stroke="#d24d4d" stroke-width="0.100" stroke-linecap="round" opacity="0.7"/><line x1="-3.575" y1="3.300" x2="-3.575" y2="2.200" stroke="#d24d4d" stroke-width="0.100" stroke-linecap="round" opacity="0.7"/><line x1="-3.575" y1="3.300" x2="-2.775" y2="3.300" stroke="#d24d4d" stroke-width="0.100" stroke-linecap="round" opacity="0.7"/><line x1="-2.775" y1="-2.200" x2="-2.775" y2="-3.300" stroke="#d24d4d" stroke-width="0.100" stroke-linecap="round" opacity="0.7"/><line x1="-2.775" y1="3.300" x2="-2.775" y2="2.200" stroke="#d24d4d" stroke-width="0.100" stroke-linecap="round" opacity="0.7"/><line x1="-2.305" y1="-3.300" x2="-1.505" y2="-3.300" stroke="#d24d4d" stroke-width="0.100" stroke-linecap="round" opacity="0.7"/><line x1="-2.305" y1="-2.200" x2="-2.305" y2="-3.300" stroke="#d24d4d" stroke-width="0.100" stroke-linecap="round" opacity="0.7"/><line x1="-2.305" y1="-2.200" x2="-1.505" y2="-2.200" stroke="#d24d4d" stroke-width="0.100" stroke-linecap="round" opacity="0.7"/><line x1="-2.305" y1="2.200" x2="-1.505" y2="2.200" stroke="#d24d4d" stroke-width="0.100" stroke-linecap="round" opacity="0.7"/><line x1="-2.305" y1="3.300" x2="-2.305" y2="2.200" stroke="#d24d4d" stroke-width="0.100" stroke-linecap="round" opacity="0.7"/><line x1="-2.305" y1="3.300" x2="-1.505" y2="3.300" stroke="#d24d4d" stroke-width="0.100" stroke-linecap="round" opacity="0.7"/><line x1="-1.505" y1="-2.200" x2="-1.505" y2="-3.300" stroke="#d24d4d" stroke-width="0.100" stroke-linecap="round" opacity="0.7"/><line x1="-1.505" y1="3.300" x2="-1.505" y2="2.200" stroke="#d24d4d" stroke-width="0.100" stroke-linecap="round" opacity="0.7"/><line x1="-1.035" y1="-3.300" x2="-0.235" y2="-3.300" stroke="#d24d4d" stroke-width="0.100" stroke-linecap="round" opacity="0.7"/><line x1="-1.035" y1="-2.200" x2="-1.035" y2="-3.300" stroke="#d24d4d" stroke-width="0.100" stroke-linecap="round" opacity="0.7"/><line x1="-1.035" y1="-2.200" x2="-0.235" y2="-2.200" stroke="#d24d4d" stroke-width="0.100" stroke-linecap="round" opacity="0.7"/><line x1="-1.035" y1="2.200" x2="-0.235" y2="2.200" stroke="#d24d4d" stroke-width="0.100" stroke-linecap="round" opacity="0.7"/><line x1="-1.035" y1="3.300" x2="-1.035" y2="2.200" stroke="#d24d4d" stroke-width="0.100" stroke-linecap="round" opacity="0.7"/><line x1="-1.035" y1="3.300" x2="-0.235" y2="3.300" stroke="#d24d4d" stroke-width="0.100" stroke-linecap="round" opacity="0.7"/><line x1="-0.235" y1="-2.200" x2="-0.235" y2="-3.300" stroke="#d24d4d" stroke-width="0.100" stroke-linecap="round" opacity="0.7"/><line x1="-0.235" y1="3.300" x2="-0.235" y2="2.200" stroke="#d24d4d" stroke-width="0.100" stroke-linecap="round" opacity="0.7"/><line x1="0.235" y1="-3.300" x2="1.035" y2="-3.300" stroke="#d24d4d" stroke-width="0.100" stroke-linecap="round" opacity="0.7"/><line x1="0.235" y1="-2.200" x2="0.235" y2="-3.300" stroke="#d24d4d" stroke-width="0.100" stroke-linecap="round" opacity="0.7"/><line x1="0.235" y1="-2.200" x2="1.035" y2="-2.200" stroke="#d24d4d" stroke-width="0.100" stroke-linecap="round" opacity="0.7"/><line x1="0.235" y1="2.200" x2="1.035" y2="2.200" stroke="#d24d4d" stroke-width="0.100" stroke-linecap="round" opacity="0.7"/><line x1="0.235" y1="3.300" x2="0.235" y2="2.200" stroke="#d24d4d" stroke-width="0.100" stroke-linecap="round" opacity="0.7"/><line x1="0.235" y1="3.300" x2="1.035" y2="3.300" stroke="#d24d4d" stroke-width="0.100" stroke-linecap="round" opacity="0.7"/><line x1="1.035" y1="-2.200" x2="1.035" y2="-3.300" stroke="#d24d4d" stroke-width="0.100" stroke-linecap="round" opacity="0.7"/><line x1="1.035" y1="3.300" x2="1.035" y2="2.200" stroke="#d24d4d" stroke-width="0.100" stroke-linecap="round" opacity="0.7"/><line x1="1.505" y1="-3.300" x2="2.305" y2="-3.300" stroke="#d24d4d" stroke-width="0.100" stroke-linecap="round" opacity="0.7"/><line x1="1.505" y1="-2.200" x2="1.505" y2="-3.300" stroke="#d24d4d" stroke-width="0.100" stroke-linecap="round" opacity="0.7"/><line x1="1.505" y1="-2.200" x2="2.305" y2="-2.200" stroke="#d24d4d" stroke-width="0.100" stroke-linecap="round" opacity="0.7"/><line x1="1.505" y1="2.200" x2="2.305" y2="2.200" stroke="#d24d4d" stroke-width="0.100" stroke-linecap="round" opacity="0.7"/><line x1="1.505" y1="3.300" x2="1.505" y2="2.200" stroke="#d24d4d" stroke-width="0.100" stroke-linecap="round" opacity="0.7"/><line x1="1.505" y1="3.300" x2="2.305" y2="3.300" stroke="#d24d4d" stroke-width="0.100" stroke-linecap="round" opacity="0.7"/><line x1="2.305" y1="-2.200" x2="2.305" y2="-3.300" stroke="#d24d4d" stroke-width="0.100" stroke-linecap="round" opacity="0.7"/><line x1="2.305" y1="3.300" x2="2.305" y2="2.200" stroke="#d24d4d" stroke-width="0.100" stroke-linecap="round" opacity="0.7"/><line x1="2.775" y1="-3.300" x2="3.575" y2="-3.300" stroke="#d24d4d" stroke-width="0.100" stroke-linecap="round" opacity="0.7"/><line x1="2.775" y1="-2.200" x2="2.775" y2="-3.300" stroke="#d24d4d" stroke-width="0.100" stroke-linecap="round" opacity="0.7"/><line x1="2.775" y1="-2.200" x2="3.575" y2="-2.200" stroke="#d24d4d" stroke-width="0.100" stroke-linecap="round" opacity="0.7"/><line x1="2.775" y1="2.200" x2="3.575" y2="2.200" stroke="#d24d4d" stroke-width="0.100" stroke-linecap="round" opacity="0.7"/><line x1="2.775" y1="3.300" x2="2.775" y2="2.200" stroke="#d24d4d" stroke-width="0.100" stroke-linecap="round" opacity="0.7"/><line x1="2.775" y1="3.300" x2="3.575" y2="3.300" stroke="#d24d4d" stroke-width="0.100" stroke-linecap="round" opacity="0.7"/><line x1="3.575" y1="-2.200" x2="3.575" y2="-3.300" stroke="#d24d4d" stroke-width="0.100" stroke-linecap="round" opacity="0.7"/><line x1="3.575" y1="3.300" x2="3.575" y2="2.200" stroke="#d24d4d" stroke-width="0.100" stroke-linecap="round" opacity="0.7"/><line x1="5.085" y1="-3.800" x2="6.285" y2="-3.800" stroke="#d24d4d" stroke-width="0.100" stroke-linecap="round" opacity="0.7"/><line x1="5.085" y1="-1.300" x2="5.085" y2="-3.800" stroke="#d24d4d" stroke-width="0.100" stroke-linecap="round" opacity="0.7"/><line x1="5.085" y1="-1.300" x2="6.285" y2="-1.300" stroke="#d24d4d" stroke-width="0.100" stroke-linecap="round" opacity="0.7"/><line x1="5.085" y1="1.300" x2="6.285" y2="1.300" stroke="#d24d4d" stroke-width="0.100" stroke-linecap="round" opacity="0.7"/><line x1="5.085" y1="3.800" x2="5.085" y2="1.300" stroke="#d24d4d" stroke-width="0.100" stroke-linecap="round" opacity="0.7"/><line x1="5.085" y1="3.800" x2="6.285" y2="3.800" stroke="#d24d4d" stroke-width="0.100" stroke-linecap="round" opacity="0.7"/><line x1="6.285" y1="-1.300" x2="6.285" y2="-3.800" stroke="#d24d4d" stroke-width="0.100" stroke-linecap="round" opacity="0.7"/><line x1="6.285" y1="3.800" x2="6.285" y2="1.300" stroke="#d24d4d" stroke-width="0.100" stroke-linecap="round" opacity="0.7"/><line x1="-6.350" y1="-1.350" x2="-6.200" y2="-1.500" stroke="#6b7280" stroke-width="0.100" stroke-linecap="round" opacity="0.8"/><line x1="-6.350" y1="1.350" x2="-6.350" y2="-1.350" stroke="#6b7280" stroke-width="0.100" stroke-linecap="round" opacity="0.8"/><line x1="-6.350" y1="1.350" x2="-6.200" y2="1.500" stroke="#6b7280" stroke-width="0.100" stroke-linecap="round" opacity="0.8"/><line x1="-6.200" y1="-3.600" x2="-5.200" y2="-3.600" stroke="#6b7280" stroke-width="0.100" stroke-linecap="round" opacity="0.8"/><line x1="-6.200" y1="-3.130" x2="-6.200" y2="-3.600" stroke="#6b7280" stroke-width="0.100" stroke-linecap="round" opacity="0.8"/><line x1="-6.200" y1="-3.130" x2="-5.850" y2="-3.130" stroke="#6b7280" stroke-width="0.100" stroke-linecap="round" opacity="0.8"/><line x1="-6.200" y1="-2.880" x2="-5.900" y2="-2.880" stroke="#6b7280" stroke-width="0.100" stroke-linecap="round" opacity="0.8"/><line x1="-6.200" y1="2.880" x2="-6.200" y2="-2.880" stroke="#6b7280" stroke-width="0.100" stroke-linecap="round" opacity="0.8"/><line x1="-6.200" y1="2.880" x2="-5.900" y2="2.880" stroke="#6b7280" stroke-width="0.100" stroke-linecap="round" opacity="0.8"/><line x1="-6.200" y1="3.130" x2="-5.850" y2="3.130" stroke="#6b7280" stroke-width="0.100" stroke-linecap="round" opacity="0.8"/><line x1="-6.200" y1="3.600" x2="-6.200" y2="3.130" stroke="#6b7280" stroke-width="0.100" stroke-linecap="round" opacity="0.8"/><line x1="-6.200" y1="3.600" x2="-5.200" y2="3.600" stroke="#6b7280" stroke-width="0.100" stroke-linecap="round" opacity="0.8"/><line x1="-5.900" y1="-2.880" x2="-5.850" y2="-2.880" stroke="#6b7280" stroke-width="0.100" stroke-linecap="round" opacity="0.8"/><line x1="-5.900" y1="-2.100" x2="5.900" y2="-2.100" stroke="#6b7280" stroke-width="0.100" stroke-linecap="round" opacity="0.8"/><line x1="-5.900" y1="2.100" x2="5.900" y2="2.100" stroke="#6b7280" stroke-width="0.100" stroke-linecap="round" opacity="0.8"/><line x1="-5.900" y1="2.880" x2="-5.900" y2="-2.880" stroke="#6b7280" stroke-width="0.100" stroke-linecap="round" opacity="0.8"/><line x1="-5.900" y1="2.880" x2="-5.850" y2="2.880" stroke="#6b7280" stroke-width="0.100" stroke-linecap="round" opacity="0.8"/><line x1="-5.850" y1="-2.880" x2="-5.850" y2="-3.130" stroke="#6b7280" stroke-width="0.100" stroke-linecap="round" opacity="0.8"/><line x1="-5.850" y1="2.500" x2="-5.850" y2="2.100" stroke="#6b7280" stroke-width="0.100" stroke-linecap="round" opacity="0.8"/><line x1="-5.850" y1="2.500" x2="-5.350" y2="2.500" stroke="#6b7280" stroke-width="0.100" stroke-linecap="round" opacity="0.8"/><line x1="-5.850" y1="3.130" x2="-5.850" y2="2.880" stroke="#6b7280" stroke-width="0.100" stroke-linecap="round" opacity="0.8"/><line x1="-5.350" y1="2.500" x2="-5.350" y2="2.100" stroke="#6b7280" stroke-width="0.100" stroke-linecap="round" opacity="0.8"/><line x1="-5.300" y1="2.100" x2="-5.300" y2="-2.100" stroke="#6b7280" stroke-width="0.100" stroke-linecap="round" opacity="0.8"/><line x1="-5.200" y1="-2.100" x2="-5.200" y2="-3.600" stroke="#6b7280" stroke-width="0.100" stroke-linecap="round" opacity="0.8"/><line x1="-5.200" y1="3.600" x2="-5.200" y2="2.100" stroke="#6b7280" stroke-width="0.100" stroke-linecap="round" opacity="0.8"/><line x1="-5.185" y1="-2.025" x2="-4.785" y2="-1.625" stroke="#6b7280" stroke-width="0.100" stroke-linecap="round" opacity="0.8"/><line x1="-5.185" y1="-2.025" x2="5.185" y2="-2.025" stroke="#6b7280" stroke-width="0.100" stroke-linecap="round" opacity="0.8"/><line x1="-5.185" y1="0.550" x2="-5.185" y2="-2.025" stroke="#6b7280" stroke-width="0.100" stroke-linecap="round" opacity="0.8"/><line x1="-5.185" y1="0.550" x2="-4.785" y2="0.150" stroke="#6b7280" stroke-width="0.100" stroke-linecap="round" opacity="0.8"/><line x1="-5.185" y1="0.550" x2="-4.685" y2="0.550" stroke="#6b7280" stroke-width="0.100" stroke-linecap="round" opacity="0.8"/><line x1="-4.785" y1="-1.625" x2="4.785" y2="-1.625" stroke="#6b7280" stroke-width="0.100" stroke-linecap="round" opacity="0.8"/><line x1="-4.785" y1="0.150" x2="-4.785" y2="-1.625" stroke="#6b7280" stroke-width="0.100" stroke-linecap="round" opacity="0.8"/><line x1="-4.785" y1="0.150" x2="-4.285" y2="0.150" stroke="#6b7280" stroke-width="0.100" stroke-linecap="round" opacity="0.8"/><line x1="-4.685" y1="0.550" x2="-4.285" y2="0.150" stroke="#6b7280" stroke-width="0.100" stroke-linecap="round" opacity="0.8"/><line x1="-4.685" y1="2.025" x2="-4.685" y2="0.550" stroke="#6b7280" stroke-width="0.100" stroke-linecap="round" opacity="0.8"/><line x1="-4.685" y1="2.025" x2="-4.285" y2="1.625" stroke="#6b7280" stroke-width="0.100" stroke-linecap="round" opacity="0.8"/><line x1="-4.685" y1="2.025" x2="4.685" y2="2.025" stroke="#6b7280" stroke-width="0.100" stroke-linecap="round" opacity="0.8"/><line x1="-4.285" y1="1.625" x2="-4.285" y2="0.150" stroke="#6b7280" stroke-width="0.100" stroke-linecap="round" opacity="0.8"/><line x1="-4.285" y1="1.625" x2="4.285" y2="1.625" stroke="#6b7280" stroke-width="0.100" stroke-linecap="round" opacity="0.8"/><line x1="-3.640" y1="3.000" x2="-3.640" y2="2.100" stroke="#6b7280" stroke-width="0.100" stroke-linecap="round" opacity="0.8"/><line x1="-3.640" y1="3.000" x2="-2.925" y2="3.000" stroke="#6b7280" stroke-width="0.100" stroke-linecap="round" opacity="0.8"/><line x1="-3.490" y1="2.400" x2="-3.490" y2="2.100" stroke="#6b7280" stroke-width="0.100" stroke-linecap="round" opacity="0.8"/><line x1="-3.490" y1="2.400" x2="-2.925" y2="2.400" stroke="#6b7280" stroke-width="0.100" stroke-linecap="round" opacity="0.8"/><line x1="-3.425" y1="-3.000" x2="-2.710" y2="-3.000" stroke="#6b7280" stroke-width="0.100" stroke-linecap="round" opacity="0.8"/><line x1="-3.425" y1="-2.400" x2="-3.425" y2="-3.000" stroke="#6b7280" stroke-width="0.100" stroke-linecap="round" opacity="0.8"/><line x1="-3.425" y1="-2.400" x2="-2.860" y2="-2.400" stroke="#6b7280" stroke-width="0.100" stroke-linecap="round" opacity="0.8"/><line x1="-3.385" y1="-0.785" x2="-2.965" y2="-0.785" stroke="#6b7280" stroke-width="0.100" stroke-linecap="round" opacity="0.8"/><line x1="-3.385" y1="-0.485" x2="-3.385" y2="-0.785" stroke="#6b7280" stroke-width="0.100" stroke-linecap="round" opacity="0.8"/><line x1="-3.385" y1="-0.485" x2="-2.965" y2="-0.485" stroke="#6b7280" stroke-width="0.100" stroke-linecap="round" opacity="0.8"/><line x1="-3.385" y1="0.485" x2="-2.965" y2="0.485" stroke="#6b7280" stroke-width="0.100" stroke-linecap="round" opacity="0.8"/><line x1="-3.385" y1="0.785" x2="-3.385" y2="0.485" stroke="#6b7280" stroke-width="0.100" stroke-linecap="round" opacity="0.8"/><line x1="-3.385" y1="0.785" x2="-2.965" y2="0.785" stroke="#6b7280" stroke-width="0.100" stroke-linecap="round" opacity="0.8"/><line x1="-2.965" y1="-0.485" x2="-2.965" y2="-0.785" stroke="#6b7280" stroke-width="0.100" stroke-linecap="round" opacity="0.8"/><line x1="-2.965" y1="0.785" x2="-2.965" y2="0.485" stroke="#6b7280" stroke-width="0.100" stroke-linecap="round" opacity="0.8"/><line x1="-2.925" y1="3.000" x2="-2.925" y2="2.400" stroke="#6b7280" stroke-width="0.100" stroke-linecap="round" opacity="0.8"/><line x1="-2.860" y1="-2.100" x2="-2.860" y2="-2.400" stroke="#6b7280" stroke-width="0.100" stroke-linecap="round" opacity="0.8"/><line x1="-2.710" y1="-2.100" x2="-2.710" y2="-3.000" stroke="#6b7280" stroke-width="0.100" stroke-linecap="round" opacity="0.8"/><line x1="-2.370" y1="3.000" x2="-2.370" y2="2.100" stroke="#6b7280" stroke-width="0.100" stroke-linecap="round" opacity="0.8"/><line x1="-2.370" y1="3.000" x2="-1.655" y2="3.000" stroke="#6b7280" stroke-width="0.100" stroke-linecap="round" opacity="0.8"/><line x1="-2.220" y1="2.400" x2="-2.220" y2="2.100" stroke="#6b7280" stroke-width="0.100" stroke-linecap="round" opacity="0.8"/><line x1="-2.220" y1="2.400" x2="-1.655" y2="2.400" stroke="#6b7280" stroke-width="0.100" stroke-linecap="round" opacity="0.8"/><line x1="-2.155" y1="-3.000" x2="-1.440" y2="-3.000" stroke="#6b7280" stroke-width="0.100" stroke-linecap="round" opacity="0.8"/><line x1="-2.155" y1="-2.400" x2="-2.155" y2="-3.000" stroke="#6b7280" stroke-width="0.100" stroke-linecap="round" opacity="0.8"/><line x1="-2.155" y1="-2.400" x2="-1.590" y2="-2.400" stroke="#6b7280" stroke-width="0.100" stroke-linecap="round" opacity="0.8"/><line x1="-2.115" y1="-0.785" x2="-1.695" y2="-0.785" stroke="#6b7280" stroke-width="0.100" stroke-linecap="round" opacity="0.8"/><line x1="-2.115" y1="-0.485" x2="-2.115" y2="-0.785" stroke="#6b7280" stroke-width="0.100" stroke-linecap="round" opacity="0.8"/><line x1="-2.115" y1="-0.485" x2="-1.695" y2="-0.485" stroke="#6b7280" stroke-width="0.100" stroke-linecap="round" opacity="0.8"/><line x1="-2.115" y1="0.485" x2="-1.695" y2="0.485" stroke="#6b7280" stroke-width="0.100" stroke-linecap="round" opacity="0.8"/><line x1="-2.115" y1="0.785" x2="-2.115" y2="0.485" stroke="#6b7280" stroke-width="0.100" stroke-linecap="round" opacity="0.8"/><line x1="-2.115" y1="0.785" x2="-1.695" y2="0.785" stroke="#6b7280" stroke-width="0.100" stroke-linecap="round" opacity="0.8"/><line x1="-1.695" y1="-0.485" x2="-1.695" y2="-0.785" stroke="#6b7280" stroke-width="0.100" stroke-linecap="round" opacity="0.8"/><line x1="-1.695" y1="0.785" x2="-1.695" y2="0.485" stroke="#6b7280" stroke-width="0.100" stroke-linecap="round" opacity="0.8"/><line x1="-1.655" y1="3.000" x2="-1.655" y2="2.400" stroke="#6b7280" stroke-width="0.100" stroke-linecap="round" opacity="0.8"/><line x1="-1.590" y1="-2.100" x2="-1.590" y2="-2.400" stroke="#6b7280" stroke-width="0.100" stroke-linecap="round" opacity="0.8"/><line x1="-1.440" y1="-2.100" x2="-1.440" y2="-3.000" stroke="#6b7280" stroke-width="0.100" stroke-linecap="round" opacity="0.8"/><line x1="-1.100" y1="3.000" x2="-1.100" y2="2.100" stroke="#6b7280" stroke-width="0.100" stroke-linecap="round" opacity="0.8"/><line x1="-1.100" y1="3.000" x2="-0.385" y2="3.000" stroke="#6b7280" stroke-width="0.100" stroke-linecap="round" opacity="0.8"/><line x1="-0.950" y1="2.400" x2="-0.950" y2="2.100" stroke="#6b7280" stroke-width="0.100" stroke-linecap="round" opacity="0.8"/><line x1="-0.950" y1="2.400" x2="-0.385" y2="2.400" stroke="#6b7280" stroke-width="0.100" stroke-linecap="round" opacity="0.8"/><line x1="-0.885" y1="-3.000" x2="-0.170" y2="-3.000" stroke="#6b7280" stroke-width="0.100" stroke-linecap="round" opacity="0.8"/><line x1="-0.885" y1="-2.400" x2="-0.885" y2="-3.000" stroke="#6b7280" stroke-width="0.100" stroke-linecap="round" opacity="0.8"/><line x1="-0.885" y1="-2.400" x2="-0.320" y2="-2.400" stroke="#6b7280" stroke-width="0.100" stroke-linecap="round" opacity="0.8"/><line x1="-0.845" y1="-0.785" x2="-0.425" y2="-0.785" stroke="#6b7280" stroke-width="0.100" stroke-linecap="round" opacity="0.8"/><line x1="-0.845" y1="-0.485" x2="-0.845" y2="-0.785" stroke="#6b7280" stroke-width="0.100" stroke-linecap="round" opacity="0.8"/><line x1="-0.845" y1="-0.485" x2="-0.425" y2="-0.485" stroke="#6b7280" stroke-width="0.100" stroke-linecap="round" opacity="0.8"/><line x1="-0.845" y1="0.485" x2="-0.425" y2="0.485" stroke="#6b7280" stroke-width="0.100" stroke-linecap="round" opacity="0.8"/><line x1="-0.845" y1="0.785" x2="-0.845" y2="0.485" stroke="#6b7280" stroke-width="0.100" stroke-linecap="round" opacity="0.8"/><line x1="-0.845" y1="0.785" x2="-0.425" y2="0.785" stroke="#6b7280" stroke-width="0.100" stroke-linecap="round" opacity="0.8"/><line x1="-0.425" y1="-0.485" x2="-0.425" y2="-0.785" stroke="#6b7280" stroke-width="0.100" stroke-linecap="round" opacity="0.8"/><line x1="-0.425" y1="0.785" x2="-0.425" y2="0.485" stroke="#6b7280" stroke-width="0.100" stroke-linecap="round" opacity="0.8"/><line x1="-0.385" y1="3.000" x2="-0.385" y2="2.400" stroke="#6b7280" stroke-width="0.100" stroke-linecap="round" opacity="0.8"/><line x1="-0.320" y1="-2.100" x2="-0.320" y2="-2.400" stroke="#6b7280" stroke-width="0.100" stroke-linecap="round" opacity="0.8"/><line x1="-0.170" y1="-2.100" x2="-0.170" y2="-3.000" stroke="#6b7280" stroke-width="0.100" stroke-linecap="round" opacity="0.8"/><line x1="0.170" y1="3.000" x2="0.170" y2="2.100" stroke="#6b7280" stroke-width="0.100" stroke-linecap="round" opacity="0.8"/><line x1="0.170" y1="3.000" x2="0.885" y2="3.000" stroke="#6b7280" stroke-width="0.100" stroke-linecap="round" opacity="0.8"/><line x1="0.320" y1="2.400" x2="0.320" y2="2.100" stroke="#6b7280" stroke-width="0.100" stroke-linecap="round" opacity="0.8"/><line x1="0.320" y1="2.400" x2="0.885" y2="2.400" stroke="#6b7280" stroke-width="0.100" stroke-linecap="round" opacity="0.8"/><line x1="0.385" y1="-3.000" x2="1.100" y2="-3.000" stroke="#6b7280" stroke-width="0.100" stroke-linecap="round" opacity="0.8"/><line x1="0.385" y1="-2.400" x2="0.385" y2="-3.000" stroke="#6b7280" stroke-width="0.100" stroke-linecap="round" opacity="0.8"/><line x1="0.385" y1="-2.400" x2="0.950" y2="-2.400" stroke="#6b7280" stroke-width="0.100" stroke-linecap="round" opacity="0.8"/><line x1="0.425" y1="-0.785" x2="0.845" y2="-0.785" stroke="#6b7280" stroke-width="0.100" stroke-linecap="round" opacity="0.8"/><line x1="0.425" y1="-0.485" x2="0.425" y2="-0.785" stroke="#6b7280" stroke-width="0.100" stroke-linecap="round" opacity="0.8"/><line x1="0.425" y1="-0.485" x2="0.845" y2="-0.485" stroke="#6b7280" stroke-width="0.100" stroke-linecap="round" opacity="0.8"/><line x1="0.425" y1="0.485" x2="0.845" y2="0.485" stroke="#6b7280" stroke-width="0.100" stroke-linecap="round" opacity="0.8"/><line x1="0.425" y1="0.785" x2="0.425" y2="0.485" stroke="#6b7280" stroke-width="0.100" stroke-linecap="round" opacity="0.8"/><line x1="0.425" y1="0.785" x2="0.845" y2="0.785" stroke="#6b7280" stroke-width="0.100" stroke-linecap="round" opacity="0.8"/><line x1="0.845" y1="-0.485" x2="0.845" y2="-0.785" stroke="#6b7280" stroke-width="0.100" stroke-linecap="round" opacity="0.8"/><line x1="0.845" y1="0.785" x2="0.845" y2="0.485" stroke="#6b7280" stroke-width="0.100" stroke-linecap="round" opacity="0.8"/><line x1="0.885" y1="3.000" x2="0.885" y2="2.400" stroke="#6b7280" stroke-width="0.100" stroke-linecap="round" opacity="0.8"/><line x1="0.950" y1="-2.100" x2="0.950" y2="-2.400" stroke="#6b7280" stroke-width="0.100" stroke-linecap="round" opacity="0.8"/><line x1="1.100" y1="-2.100" x2="1.100" y2="-3.000" stroke="#6b7280" stroke-width="0.100" stroke-linecap="round" opacity="0.8"/><line x1="1.440" y1="3.000" x2="1.440" y2="2.100" stroke="#6b7280" stroke-width="0.100" stroke-linecap="round" opacity="0.8"/><line x1="1.440" y1="3.000" x2="2.155" y2="3.000" stroke="#6b7280" stroke-width="0.100" stroke-linecap="round" opacity="0.8"/><line x1="1.590" y1="2.400" x2="1.590" y2="2.100" stroke="#6b7280" stroke-width="0.100" stroke-linecap="round" opacity="0.8"/><line x1="1.590" y1="2.400" x2="2.155" y2="2.400" stroke="#6b7280" stroke-width="0.100" stroke-linecap="round" opacity="0.8"/><line x1="1.655" y1="-3.000" x2="2.370" y2="-3.000" stroke="#6b7280" stroke-width="0.100" stroke-linecap="round" opacity="0.8"/><line x1="1.655" y1="-2.400" x2="1.655" y2="-3.000" stroke="#6b7280" stroke-width="0.100" stroke-linecap="round" opacity="0.8"/><line x1="1.655" y1="-2.400" x2="2.220" y2="-2.400" stroke="#6b7280" stroke-width="0.100" stroke-linecap="round" opacity="0.8"/><line x1="1.695" y1="-0.785" x2="2.115" y2="-0.785" stroke="#6b7280" stroke-width="0.100" stroke-linecap="round" opacity="0.8"/><line x1="1.695" y1="-0.485" x2="1.695" y2="-0.785" stroke="#6b7280" stroke-width="0.100" stroke-linecap="round" opacity="0.8"/><line x1="1.695" y1="-0.485" x2="2.115" y2="-0.485" stroke="#6b7280" stroke-width="0.100" stroke-linecap="round" opacity="0.8"/><line x1="1.695" y1="0.485" x2="2.115" y2="0.485" stroke="#6b7280" stroke-width="0.100" stroke-linecap="round" opacity="0.8"/><line x1="1.695" y1="0.785" x2="1.695" y2="0.485" stroke="#6b7280" stroke-width="0.100" stroke-linecap="round" opacity="0.8"/><line x1="1.695" y1="0.785" x2="2.115" y2="0.785" stroke="#6b7280" stroke-width="0.100" stroke-linecap="round" opacity="0.8"/><line x1="2.115" y1="-0.485" x2="2.115" y2="-0.785" stroke="#6b7280" stroke-width="0.100" stroke-linecap="round" opacity="0.8"/><line x1="2.115" y1="0.785" x2="2.115" y2="0.485" stroke="#6b7280" stroke-width="0.100" stroke-linecap="round" opacity="0.8"/><line x1="2.155" y1="3.000" x2="2.155" y2="2.400" stroke="#6b7280" stroke-width="0.100" stroke-linecap="round" opacity="0.8"/><line x1="2.220" y1="-2.100" x2="2.220" y2="-2.400" stroke="#6b7280" stroke-width="0.100" stroke-linecap="round" opacity="0.8"/><line x1="2.370" y1="-2.100" x2="2.370" y2="-3.000" stroke="#6b7280" stroke-width="0.100" stroke-linecap="round" opacity="0.8"/><line x1="2.710" y1="3.000" x2="2.710" y2="2.100" stroke="#6b7280" stroke-width="0.100" stroke-linecap="round" opacity="0.8"/><line x1="2.710" y1="3.000" x2="3.425" y2="3.000" stroke="#6b7280" stroke-width="0.100" stroke-linecap="round" opacity="0.8"/><line x1="2.860" y1="2.400" x2="2.860" y2="2.100" stroke="#6b7280" stroke-width="0.100" stroke-linecap="round" opacity="0.8"/><line x1="2.860" y1="2.400" x2="3.425" y2="2.400" stroke="#6b7280" stroke-width="0.100" stroke-linecap="round" opacity="0.8"/><line x1="2.925" y1="-3.000" x2="3.640" y2="-3.000" stroke="#6b7280" stroke-width="0.100" stroke-linecap="round" opacity="0.8"/><line x1="2.925" y1="-2.400" x2="2.925" y2="-3.000" stroke="#6b7280" stroke-width="0.100" stroke-linecap="round" opacity="0.8"/><line x1="2.925" y1="-2.400" x2="3.490" y2="-2.400" stroke="#6b7280" stroke-width="0.100" stroke-linecap="round" opacity="0.8"/><line x1="2.965" y1="-0.785" x2="3.385" y2="-0.785" stroke="#6b7280" stroke-width="0.100" stroke-linecap="round" opacity="0.8"/><line x1="2.965" y1="-0.485" x2="2.965" y2="-0.785" stroke="#6b7280" stroke-width="0.100" stroke-linecap="round" opacity="0.8"/><line x1="2.965" y1="-0.485" x2="3.385" y2="-0.485" stroke="#6b7280" stroke-width="0.100" stroke-linecap="round" opacity="0.8"/><line x1="2.965" y1="0.485" x2="3.385" y2="0.485" stroke="#6b7280" stroke-width="0.100" stroke-linecap="round" opacity="0.8"/><line x1="2.965" y1="0.785" x2="2.965" y2="0.485" stroke="#6b7280" stroke-width="0.100" stroke-linecap="round" opacity="0.8"/><line x1="2.965" y1="0.785" x2="3.385" y2="0.785" stroke="#6b7280" stroke-width="0.100" stroke-linecap="round" opacity="0.8"/><line x1="3.385" y1="-0.485" x2="3.385" y2="-0.785" stroke="#6b7280" stroke-width="0.100" stroke-linecap="round" opacity="0.8"/><line x1="3.385" y1="0.785" x2="3.385" y2="0.485" stroke="#6b7280" stroke-width="0.100" stroke-linecap="round" opacity="0.8"/><line x1="3.425" y1="3.000" x2="3.425" y2="2.400" stroke="#6b7280" stroke-width="0.100" stroke-linecap="round" opacity="0.8"/><line x1="3.490" y1="-2.100" x2="3.490" y2="-2.400" stroke="#6b7280" stroke-width="0.100" stroke-linecap="round" opacity="0.8"/><line x1="3.640" y1="-2.100" x2="3.640" y2="-3.000" stroke="#6b7280" stroke-width="0.100" stroke-linecap="round" opacity="0.8"/><line x1="4.285" y1="1.625" x2="4.285" y2="0.150" stroke="#6b7280" stroke-width="0.100" stroke-linecap="round" opacity="0.8"/><line x1="4.285" y1="0.150" x2="4.685" y2="0.550" stroke="#6b7280" stroke-width="0.100" stroke-linecap="round" opacity="0.8"/><line x1="4.285" y1="0.150" x2="4.785" y2="0.150" stroke="#6b7280" stroke-width="0.100" stroke-linecap="round" opacity="0.8"/><line x1="4.285" y1="1.625" x2="4.685" y2="2.025" stroke="#6b7280" stroke-width="0.100" stroke-linecap="round" opacity="0.8"/><line x1="4.685" y1="0.550" x2="4.685" y2="2.025" stroke="#6b7280" stroke-width="0.100" stroke-linecap="round" opacity="0.8"/><line x1="4.685" y1="0.550" x2="5.185" y2="0.550" stroke="#6b7280" stroke-width="0.100" stroke-linecap="round" opacity="0.8"/><line x1="4.785" y1="-1.625" x2="5.185" y2="-2.025" stroke="#6b7280" stroke-width="0.100" stroke-linecap="round" opacity="0.8"/><line x1="4.785" y1="0.150" x2="4.785" y2="-1.625" stroke="#6b7280" stroke-width="0.100" stroke-linecap="round" opacity="0.8"/><line x1="4.785" y1="0.150" x2="5.185" y2="0.550" stroke="#6b7280" stroke-width="0.100" stroke-linecap="round" opacity="0.8"/><line x1="5.185" y1="0.550" x2="5.185" y2="-2.025" stroke="#6b7280" stroke-width="0.100" stroke-linecap="round" opacity="0.8"/><line x1="5.200" y1="-3.600" x2="6.200" y2="-3.600" stroke="#6b7280" stroke-width="0.100" stroke-linecap="round" opacity="0.8"/><line x1="5.200" y1="-2.100" x2="5.200" y2="-3.600" stroke="#6b7280" stroke-width="0.100" stroke-linecap="round" opacity="0.8"/><line x1="5.200" y1="3.600" x2="5.200" y2="2.100" stroke="#6b7280" stroke-width="0.100" stroke-linecap="round" opacity="0.8"/><line x1="5.200" y1="3.600" x2="6.200" y2="3.600" stroke="#6b7280" stroke-width="0.100" stroke-linecap="round" opacity="0.8"/><line x1="5.301" y1="2.100" x2="5.301" y2="-2.100" stroke="#6b7280" stroke-width="0.100" stroke-linecap="round" opacity="0.8"/><line x1="5.350" y1="2.500" x2="5.350" y2="2.100" stroke="#6b7280" stroke-width="0.100" stroke-linecap="round" opacity="0.8"/><line x1="5.350" y1="2.500" x2="5.850" y2="2.500" stroke="#6b7280" stroke-width="0.100" stroke-linecap="round" opacity="0.8"/><line x1="5.850" y1="-3.130" x2="6.200" y2="-3.130" stroke="#6b7280" stroke-width="0.100" stroke-linecap="round" opacity="0.8"/><line x1="5.850" y1="-2.880" x2="5.850" y2="-3.130" stroke="#6b7280" stroke-width="0.100" stroke-linecap="round" opacity="0.8"/><line x1="5.850" y1="-2.880" x2="5.900" y2="-2.880" stroke="#6b7280" stroke-width="0.100" stroke-linecap="round" opacity="0.8"/><line x1="5.850" y1="2.500" x2="5.850" y2="2.100" stroke="#6b7280" stroke-width="0.100" stroke-linecap="round" opacity="0.8"/><line x1="5.850" y1="2.880" x2="5.900" y2="2.880" stroke="#6b7280" stroke-width="0.100" stroke-linecap="round" opacity="0.8"/><line x1="5.850" y1="3.130" x2="5.850" y2="2.880" stroke="#6b7280" stroke-width="0.100" stroke-linecap="round" opacity="0.8"/><line x1="5.850" y1="3.130" x2="6.200" y2="3.130" stroke="#6b7280" stroke-width="0.100" stroke-linecap="round" opacity="0.8"/><line x1="5.900" y1="-2.880" x2="6.200" y2="-2.880" stroke="#6b7280" stroke-width="0.100" stroke-linecap="round" opacity="0.8"/><line x1="5.900" y1="2.880" x2="5.900" y2="-2.880" stroke="#6b7280" stroke-width="0.100" stroke-linecap="round" opacity="0.8"/><line x1="5.900" y1="2.880" x2="6.200" y2="2.880" stroke="#6b7280" stroke-width="0.100" stroke-linecap="round" opacity="0.8"/><line x1="6.200" y1="-3.130" x2="6.200" y2="-3.600" stroke="#6b7280" stroke-width="0.100" stroke-linecap="round" opacity="0.8"/><line x1="6.200" y1="-1.500" x2="6.350" y2="-1.350" stroke="#6b7280" stroke-width="0.100" stroke-linecap="round" opacity="0.8"/><line x1="6.200" y1="1.500" x2="6.350" y2="1.350" stroke="#6b7280" stroke-width="0.100" stroke-linecap="round" opacity="0.8"/><line x1="6.200" y1="2.880" x2="6.200" y2="-2.880" stroke="#6b7280" stroke-width="0.100" stroke-linecap="round" opacity="0.8"/><line x1="6.200" y1="3.600" x2="6.200" y2="3.130" stroke="#6b7280" stroke-width="0.100" stroke-linecap="round" opacity="0.8"/><line x1="6.350" y1="1.350" x2="6.350" y2="-1.350" stroke="#6b7280" stroke-width="0.100" stroke-linecap="round" opacity="0.8"/><circle cx="3.175" cy="-3.766" r="0.150" fill="#e6e9ef" opacity="1"/><circle cx="-5.385" cy="0.000" r="0.500" fill="none" stroke="#6b7280" stroke-width="0.1"/><circle cx="5.385" cy="0.000" r="0.500" fill="none" stroke="#6b7280" stroke-width="0.1"/><rect x="2.775" y="2.200" width="0.800" height="1.100" rx="0.000" fill="#c79b5c"/><rect x="1.505" y="2.200" width="0.800" height="1.100" rx="0.000" fill="#c79b5c"/><rect x="0.235" y="2.200" width="0.800" height="1.100" rx="0.000" fill="#c79b5c"/><rect x="-1.035" y="2.200" width="0.800" height="1.100" rx="0.000" fill="#c79b5c"/><rect x="-2.305" y="2.200" width="0.800" height="1.100" rx="0.000" fill="#c79b5c"/><rect x="-3.575" y="2.200" width="0.800" height="1.100" rx="0.000" fill="#c79b5c"/><rect x="2.775" y="-3.300" width="0.800" height="1.100" rx="0.000" fill="#c79b5c"/><rect x="1.505" y="-3.300" width="0.800" height="1.100" rx="0.000" fill="#c79b5c"/><rect x="0.235" y="-3.300" width="0.800" height="1.100" rx="0.000" fill="#c79b5c"/><rect x="-1.035" y="-3.300" width="0.800" height="1.100" rx="0.000" fill="#c79b5c"/><rect x="-2.305" y="-3.300" width="0.800" height="1.100" rx="0.000" fill="#c79b5c"/><rect x="-3.575" y="-3.300" width="0.800" height="1.100" rx="0.000" fill="#c79b5c"/><rect x="-6.935" y="-3.150" width="2.500" height="1.200" rx="0.000" fill="#c79b5c"/><rect x="-6.935" y="1.950" width="2.500" height="1.200" rx="0.000" fill="#c79b5c"/><rect x="4.435" y="-3.150" width="2.500" height="1.200" rx="0.000" fill="#c79b5c"/><rect x="4.435" y="1.950" width="2.500" height="1.200" rx="0.000" fill="#c79b5c"/></svg>