<svg xmlns="http://www.w3.org/2000/svg" viewBox="-13.84 -4.55 27.68 8.55" preserveAspectRatio="xMidYMid meet" style="width:100%;height:100%"><rect x="-13.84" y="-4.55" width="27.68" height="8.55" fill="#12151c"/><path d="M -11.940 -2.500 A 0.500 0.500 0 0 1 -11.440 -3.000" fill="none" stroke="#e6e9ef" stroke-width="0.12" opacity="1"/><path d="M -11.440 3.000 A 0.500 0.500 0 0 1 -11.940 2.500" fill="none" stroke="#e6e9ef" stroke-width="0.12" opacity="1"/><path d="M -11.090 -2.050 A 0.500 0.500 0 0 1 -10.590 -2.550" fill="none" stroke="#e6e9ef" stroke-width="0.12" opacity="1"/><path d="M -10.590 2.550 A 0.500 0.500 0 0 1 -11.090 2.050" fill="none" stroke="#e6e9ef" stroke-width="0.12" opacity="1"/><path d="M 10.590 -2.550 A 0.500 0.500 0 0 1 11.090 -2.050" fill="none" stroke="#e6e9ef" stroke-width="0.12" opacity="1"/><path d="M 11.090 2.050 A 0.500 0.500 0 0 1 10.590 2.550" fill="none" stroke="#e6e9ef" stroke-width="0.12" opacity="1"/><path d="M 11.440 -3.000 A 0.500 0.500 0 0 1 11.940 -2.500" fill="none" stroke="#e6e9ef" stroke-width="0.12" opacity="1"/><path d="M 11.940 2.500 A 0.500 0.500 0 0 1 11.440 3.000" fill="none" stroke="#e6e9ef" stroke-width="0.12" opacity="1"/><path d="M -11.940 -2.500 A 0.500 0.500 0 0 1 -11.440 -3.000" fill="none" stroke="#6b7280" stroke-width="0.12" opacity="0.8"/><path d="M -11.440 3.000 A 0.500 0.500 0 0 1 -11.940 2.500" fill="none" stroke="#6b7280" stroke-width="0.12" opacity="0.8"/><path d="M -11.090 -2.050 A 0.500 0.500 0 0 1 -10.590 -2.550" fill="none" stroke="#6b7280" stroke-width="0.12" opacity="0.8"/><path d="M -10.590 2.550 A 0.500 0.500 0 0 1 -11.090 2.050" fill="none" stroke="#6b7280" stroke-width="0.12" opacity="0.8"/><path d="M 10.590 -2.550 A 0.500 0.500 0 0 1 11.090 -2.050" fill="none" stroke="#6b7280" stroke-width="0.12" opacity="0.8"/><path d="M 11.090 2.050 A 0.500 0.500 0 0 1 10.590 2.550" fill="none" stroke="#6b7280" stroke-width="0.12" opacity="0.8"/><path d="M 11.440 -3.000 A 0.500 0.500 0 0 1 11.940 -2.500" fill="none" stroke="#6b7280" stroke-width="0.12" opacity="0.8"/><path d="M 11.940 2.500 A 0.500 0.500 0 0 1 11.440 3.000" fill="none" stroke="#6b7280" stroke-width="0.12" opacity="0.8"/><circle cx="-7.995" cy="-3.450" r="0.100" fill="none" stroke="#e6e9ef" stroke-width="0.12" opacity="1"/><circle cx="-9.815" cy="1.750" r="0.300" fill="none" stroke="#6b7280" stroke-width="0.1"/><circle cx="9.815" cy="0.000" r="0.300" fill="none" stroke="#6b7280" stroke-width="0.1"/><rect x="-8.170" y="-2.900" width="0.350" height="1.200" rx="0.000" fill="#c79b5c"/><rect x="-7.570" y="-2.900" width="0.350" height="1.200" rx="0.000" fill="#c79b5c"/><rect x="-6.970" y="-2.900" width="0.350" height="1.200" rx="0.000" fill="#c79b5c"/><rect x="-6.370" y="-2.900" width="0.350" height="1.200" rx="0.000" fill="#c79b5c"/><rect x="-5.770" y="-2.900" width="0.350" height="1.200" rx="0.000" fill="#c79b5c"/><rect x="-5.170" y="-2.900" width="0.350" height="1.200" rx="0.000" fill="#c79b5c"/><rect x="-4.570" y="-2.900" width="0.350" height="1.200" rx="0.000" fill="#c79b5c"/><rect x="-3.970" y="-2.900" width="0.350" height="1.200" rx="0.000" fill="#c79b5c"/><rect x="-3.370" y="-2.900" width="0.350" height="1.200" rx="0.000" fill="#c79b5c"/><rect x="-2.770" y="-2.900" width="0.350" height="1.200" rx="0.000" fill="#c79b5c"/><rect x="-2.170" y="-2.900" width="0.350" height="1.200" rx="0.000" fill="#c79b5c"/><rect x="-1.570" y="-2.900" width="0.350" height="1.200" rx="0.000" fill="#c79b5c"/><rect x="-0.970" y="-2.900" width="0.350" height="1.200" rx="0.000" fill="#c79b5c"/><rect x="-0.370" y="-2.900" width="0.350" height="1.200" rx="0.000" fill="#c79b5c"/><rect x="0.230" y="-2.900" width="0.350" height="1.200" rx="0.000" fill="#c79b5c"/><rect x="0.830" y="-2.900" width="0.350" height="1.200" rx="0.000" fill="#c79b5c"/><rect x="1.430" y="-2.900" width="0.350" height="1.200" rx="0.000" fill="#c79b5c"/><rect x="2.030" y="-2.900" width="0.350" height="1.200" rx="0.000" fill="#c79b5c"/><rect x="2.630" y="-2.900" width="0.350" height="1.200" rx="0.000" fill="#c79b5c"/><rect x="3.230" y="-2.900" width="0.350" height="1.200" rx="0.000" fill="#c79b5c"/><rect x="3.830" y="-2.900" width="0.350" height="1.200" rx="0.000" fill="#c79b5c"/><rect x="4.430" y="-2.900" width="0.350" height="1.200" rx="0.000" fill="#c79b5c"/><rect x="5.030" y="-2.900" width="0.350" height="1.200" rx="0.000" fill="#c79b5c"/><rect x="5.630" y="-2.900" width="0.350" height="1.200" rx="0.000" fill="#c79b5c"/><rect x="6.230" y="-2.900" width="0.350" height="1.200" rx="0.000" fill="#c79b5c"/><rect x="6.830" y="-2.900" width="0.350" height="1.200" rx="0.000" fill="#c79b5c"/><rect x="7.430" y="-2.900" width="0.350" height="1.200" rx="0.000" fill="#c79b5c"/><rect x="8.030" y="-2.900" width="0.350" height="1.200" rx="0.000" fill="#c79b5c"/><rect x="-8.170" y="1.700" width="0.350" height="1.200" rx="0.000" fill="#c79b5c"/><rect x="-7.570" y="1.700" width="0.350" height="1.200" rx="0.000" fill="#c79b5c"/><rect x="-6.970" y="1.700" width="0.350" height="1.200" rx="0.000" fill="#c79b5c"/><rect x="-6.370" y="1.700" width="0.350" height="1.200" rx="0.000" fill="#c79b5c"/><rect x="-5.770" y="1.700" width="0.350" height="1.200" rx="0.000" fill="#c79b5c"/><rect x="-5.170" y="1.700" width="0.350" height="1.200" rx="0.000" fill="#c79b5c"/><rect x="-4.570" y="1.700" width="0.350" height="1.200" rx="0.000" fill="#c79b5c"/><rect x="-3.970" y="1.700" width="0.350" height="1.200" rx="0.000" fill="#c79b5c"/><rect x="-3.370" y="1.700" width="0.350" height="1.200" rx="0.000" fill="#c79b5c"/><rect x="-2.770" y="1.700" width="0.350" height="1.200" rx="0.000" fill="#c79b5c"/><rect x="-2.170" y="1.700" width="0.350" height="1.200" rx="0.000" fill="#c79b5c"/><rect x="-1.570" y="1.700" width="0.350" height="1.200" rx="0.000" fill="#c79b5c"/><rect x="-0.970" y="1.700" width="0.350" height="1.200" rx="0.000" fill="#c79b5c"/><rect x="-0.370" y="1.700" width="0.350" height="1.200" rx="0.000" fill="#c79b5c"/><rect x="0.230" y="1.700" width="0.350" height="1.200" rx="0.000" fill="#c79b5c"/><rect x="0.830" y="1.700" width="0.350" height="1.200" rx="0.000" fill="#c79b5c"/><rect x="1.430" y="1.700" width="0.350" height="1.200" rx="0.000" fill="#c79b5c"/><rect x="2.030" y="1.700" width="0.350" height="1.200" rx="0.000" fill="#c79b5c"/><rect x="2.630" y="1.700" width="0.350" height="1.200" rx="0.000" fill="#c79b5c"/><rect x="3.230" y="1.700" width="0.350" height="1.200" rx="0.000" fill="#c79b5c"/><rect x="3.830" y="1.700" width="0.350" height="1.200" rx="0.000" fill="#c79b5c"/><rect x="4.430" y="1.700" width="0.350" height="1.200" rx="0.000" fill="#c79b5c"/><rect x="5.030" y="1.700" width="0.350" height="1.200" rx="0.000" fill="#c79b5c"/><rect x="5.630" y="1.700" width="0.350" height="1.200" rx="0.000" fill="#c79b5c"/><rect x="6.230" y="1.700" width="0.350" height="1.200" rx="0.000" fill="#c79b5c"/><rect x="6.830" y="1.700" width="0.350" height="1.200" rx="0.000" fill="#c79b5c"/><rect x="7.430" y="1.700" width="0.350" height="1.200" rx="0.000" fill="#c79b5c"/><rect x="8.030" y="1.700" width="0.350" height="1.200" rx="0.000" fill="#c79b5c"/><rect x="-12.840" y="-0.800" width="2.950" height="1.600" rx="0.800" fill="#c79b5c"/><rect x="-12.590" y="-0.550" width="2.450" height="1.100" rx="0.550" fill="#12151c"/><rect x="9.890" y="-0.800" width="2.950" height="1.600" rx="0.800" fill="#c79b5c"/><rect x="10.140" y="-0.550" width="2.450" height="1.100" rx="0.550" fill="#12151c"/></svg>