<svg xmlns="http://www.w3.org/2000/svg" viewBox="-14.60 -6.05 29.45 13.50" preserveAspectRatio="xMidYMid meet" style="width:100%;height:100%"><rect x="-14.60" y="-6.05" width="29.45" height="13.50" fill="#12151c"/><line x1="-13.450" y1="-5.050" x2="13.850" y2="-5.050" stroke="#d24d4d" stroke-width="0.080" stroke-linecap="round" opacity="0.7"/><line x1="13.850" y1="-5.050" x2="13.850" y2="6.450" stroke="#d24d4d" stroke-width="0.080" stroke-linecap="round" opacity="0.7"/><line x1="13.850" y1="6.450" x2="-13.450" y2="6.450" stroke="#d24d4d" stroke-width="0.080" stroke-linecap="round" opacity="0.7"/><line x1="-13.450" y1="6.450" x2="-13.450" y2="-5.050" stroke="#d24d4d" stroke-width="0.080" stroke-linecap="round" opacity="0.7"/><path d="M -13.200 -2.200 A 0.400 0.400 0 0 1 -13.200 -3.000" fill="none" stroke="#e6e9ef" stroke-width="0.12" opacity="1"/><path d="M -13.200 -2.200 A 0.400 0.400 0 0 1 -13.200 -3.000" fill="none" stroke="#6b7280" stroke-width="0.12" opacity="0.8"/><rect x="-11.550" y="-3.600" width="2.100" height="2.100" rx="1.050" fill="#c79b5c"/><circle cx="-10.500" cy="-2.550" r="0.700" fill="#12151c"/><rect x="-7.350" y="-3.600" width="2.100" height="2.100" rx="1.050" fill="#c79b5c"/><circle cx="-6.300" cy="-2.550" r="0.700" fill="#12151c"/><rect x="-3.150" y="-3.600" width="2.100" height="2.100" rx="1.050" fill="#c79b5c"/><circle cx="-2.100" cy="-2.550" r="0.700" fill="#12151c"/><rect x="1.050" y="-3.600" width="2.100" height="2.100" rx="1.050" fill="#c79b5c"/><circle cx="2.100" cy="-2.550" r="0.700" fill="#12151c"/><rect x="5.250" y="-3.600" width="2.100" height="2.100" rx="1.050" fill="#c79b5c"/><circle cx="6.300" cy="-2.550" r="0.700" fill="#12151c"/><rect x="9.450" y="-3.600" width="2.100" height="2.100" rx="1.050" fill="#c79b5c"/><circle cx="10.500" cy="-2.550" r="0.700" fill="#12151c"/><rect x="-11.550" y="1.900" width="2.100" height="2.100" rx="1.050" fill="#c79b5c"/><circle cx="-10.500" cy="2.950" r="0.700" fill="#12151c"/><rect x="-7.350" y="1.900" width="2.100" height="2.100" rx="1.050" fill="#c79b5c"/><circle cx="-6.300" cy="2.950" r="0.700" fill="#12151c"/><rect x="-3.150" y="1.900" width="2.100" height="2.100" rx="1.050" fill="#c79b5c"/><circle cx="-2.100" cy="2.950" r="0.700" fill="#12151c"/><rect x="1.050" y="1.900" width="2.100" height="2.100" rx="1.050" fill="#c79b5c"/><circle cx="2.100" cy="2.950" r="0.700" fill="#12151c"/><rect x="5.250" y="1.900" width="2.100" height="2.100" rx="1.050" fill="#c79b5c"/><circle cx="6.300" cy="2.950" r="0.700" fill="#12151c"/><rect x="9.450" y="1.900" width="2.100" height="2.100" rx="1.050" fill="#c79b5c"/><circle cx="10.500" cy="2.950" r="0.700" fill="#12151c"/></svg>