<svg xmlns="http://www.w3.org/2000/svg" viewBox="-14.47 -10.24 28.94 42.93" preserveAspectRatio="xMidYMid meet" style="width:100%;height:100%"><rect x="-14.47" y="-10.24" width="28.94" height="42.93" fill="#12151c"/><line x1="-12.250" y1="1.435" x2="-12.250" y2="-0.565" stroke="#e6e9ef" stroke-width="0.200" stroke-linecap="round" opacity="1"/><line x1="-12.250" y1="16.435" x2="-12.250" y2="14.435" stroke="#e6e9ef" stroke-width="0.200" stroke-linecap="round" opacity="1"/><line x1="-12.000" y1="-0.815" x2="-11.820" y2="-0.815" stroke="#e6e9ef" stroke-width="0.200" stroke-linecap="round" opacity="1"/><line x1="-12.000" y1="1.685" x2="-11.820" y2="1.685" stroke="#e6e9ef" stroke-width="0.200" stroke-linecap="round" opacity="1"/><line x1="-12.000" y1="14.185" x2="-11.820" y2="14.185" stroke="#e6e9ef" stroke-width="0.200" stroke-linecap="round" opacity="1"/><line x1="-12.000" y1="16.685" x2="-11.820" y2="16.685" stroke="#e6e9ef" stroke-width="0.200" stroke-linecap="round" opacity="1"/><line x1="-11.950" y1="27.535" x2="-11.949" y2="24.535" stroke="#e6e9ef" stroke-width="0.200" stroke-linecap="round" opacity="1"/><line x1="-11.950" y1="27.535" x2="11.950" y2="27.535" stroke="#e6e9ef" stroke-width="0.200" stroke-linecap="round" opacity="1"/><line x1="-11.949" y1="24.535" x2="11.950" y2="24.535" stroke="#e6e9ef" stroke-width="0.200" stroke-linecap="round" opacity="1"/><line x1="-11.498" y1="24.535" x2="-11.498" y2="23.585" stroke="#e6e9ef" stroke-width="0.200" stroke-linecap="round" opacity="1"/><line x1="-10.450" y1="27.535" x2="-10.450" y2="24.535" stroke="#e6e9ef" stroke-width="0.200" stroke-linecap="round" opacity="1"/><line x1="-10.250" y1="24.535" x2="-10.250" y2="23.585" stroke="#e6e9ef" stroke-width="0.200" stroke-linecap="round" opacity="1"/><line x1="-9.650" y1="31.435" x2="-9.650" y2="27.535" stroke="#e6e9ef" stroke-width="0.200" stroke-linecap="round" opacity="1"/><line x1="-9.650" y1="31.435" x2="9.650" y2="31.435" stroke="#e6e9ef" stroke-width="0.200" stroke-linecap="round" opacity="1"/><line x1="-8.650" y1="31.435" x2="-8.650" y2="27.535" stroke="#e6e9ef" stroke-width="0.200" stroke-linecap="round" opacity="1"/><line x1="-5.100" y1="28.435" x2="-3.600" y2="28.435" stroke="#e6e9ef" stroke-width="0.200" stroke-linecap="round" opacity="1"/><line x1="-5.100" y1="30.435" x2="-5.100" y2="28.435" stroke="#e6e9ef" stroke-width="0.200" stroke-linecap="round" opacity="1"/><line x1="-5.100" y1="30.435" x2="-3.600" y2="30.435" stroke="#e6e9ef" stroke-width="0.200" stroke-linecap="round" opacity="1"/><line x1="-4.200" y1="-7.315" x2="-3.400" y2="-7.315" stroke="#e6e9ef" stroke-width="0.200" stroke-linecap="round" opacity="1"/><line x1="-3.600" y1="30.435" x2="-3.600" y2="28.435" stroke="#e6e9ef" stroke-width="0.200" stroke-linecap="round" opacity="1"/><line x1="-1.800" y1="-7.315" x2="-1.000" y2="-7.315" stroke="#e6e9ef" stroke-width="0.200" stroke-linecap="round" opacity="1"/><line x1="0.600" y1="-7.315" x2="1.400" y2="-7.315" stroke="#e6e9ef" stroke-width="0.200" stroke-linecap="round" opacity="1"/><line x1="3.000" y1="-7.315" x2="3.800" y2="-7.315" stroke="#e6e9ef" stroke-width="0.200" stroke-linecap="round" opacity="1"/><line x1="3.600" y1="28.435" x2="5.100" y2="28.435" stroke="#e6e9ef" stroke-width="0.200" stroke-linecap="round" opacity="1"/><line x1="3.600" y1="30.435" x2="3.600" y2="28.435" stroke="#e6e9ef" stroke-width="0.200" stroke-linecap="round" opacity="1"/><line x1="3.600" y1="30.435" x2="5.100" y2="30.435" stroke="#e6e9ef" stroke-width="0.200" stroke-linecap="round" opacity="1"/><line x1="5.100" y1="30.435" x2="5.100" y2="28.435" stroke="#e6e9ef" stroke-width="0.200" stroke-linecap="round" opacity="1"/><line x1="8.650" y1="31.435" x2="8.650" y2="27.535" stroke="#e6e9ef" stroke-width="0.200" stroke-linecap="round" opacity="1"/><line x1="9.650" y1="31.435" x2="9.650" y2="27.535" stroke="#e6e9ef" stroke-width="0.200" stroke-linecap="round" opacity="1"/><line x1="10.250" y1="24.535" x2="10.250" y2="23.585" stroke="#e6e9ef" stroke-width="0.200" stroke-linecap="round" opacity="1"/><line x1="10.450" y1="27.535" x2="10.450" y2="24.535" stroke="#e6e9ef" stroke-width="0.200" stroke-linecap="round" opacity="1"/><line x1="11.500" y1="24.535" x2="11.500" y2="23.585" stroke="#e6e9ef" stroke-width="0.200" stroke-linecap="round" opacity="1"/><line x1="11.820" y1="-0.815" x2="12.000" y2="-0.815" stroke="#e6e9ef" stroke-width="0.200" stroke-linecap="round" opacity="1"/><line x1="11.820" y1="1.685" x2="12.000" y2="1.685" stroke="#e6e9ef" stroke-width="0.200" stroke-linecap="round" opacity="1"/><line x1="11.820" y1="14.185" x2="12.000" y2="14.185" stroke="#e6e9ef" stroke-width="0.200" stroke-linecap="round" opacity="1"/><line x1="11.820" y1="16.685" x2="12.000" y2="16.685" stroke="#e6e9ef" stroke-width="0.200" stroke-linecap="round" opacity="1"/><line x1="11.950" y1="27.535" x2="11.950" y2="24.535" stroke="#e6e9ef" stroke-width="0.200" stroke-linecap="round" opacity="1"/><line x1="12.250" y1="1.435" x2="12.250" y2="-0.565" stroke="#e6e9ef" stroke-width="0.200" stroke-linecap="round" opacity="1"/><line x1="12.250" y1="16.435" x2="12.250" y2="14.435" stroke="#e6e9ef" stroke-width="0.200" stroke-linecap="round" opacity="1"/><line x1="-11.470" y1="-7.245" x2="-4.550" y2="-7.245" stroke="#4a5160" stroke-width="0.100" stroke-linecap="round" opacity="0.7"/><line x1="-11.470" y1="23.235" x2="-11.470" y2="-7.245" stroke="#4a5160" stroke-width="0.100" stroke-linecap="round" opacity="0.7"/><line x1="-11.470" y1="23.235" x2="11.470" y2="23.235" stroke="#4a5160" stroke-width="0.100" stroke-linecap="round" opacity="0.7"/><line x1="-10.625" y1="0.435" x2="-10.125" y2="0.435" stroke="#4a5160" stroke-width="0.100" stroke-linecap="round" opacity="0.7"/><line x1="-10.625" y1="15.435" x2="-10.125" y2="15.435" stroke="#4a5160" stroke-width="0.100" stroke-linecap="round" opacity="0.7"/><line x1="-10.150" y1="6.435" x2="-9.650" y2="6.435" stroke="#4a5160" stroke-width="0.100" stroke-linecap="round" opacity="0.7"/><line x1="-10.125" y1="0.435" x2="-10.125" y2="-0.065" stroke="#4a5160" stroke-width="0.100" stroke-linecap="round" opacity="0.7"/><line x1="-10.125" y1="0.435" x2="-9.625" y2="0.435" stroke="#4a5160" stroke-width="0.100" stroke-linecap="round" opacity="0.7"/><line x1="-10.125" y1="0.935" x2="-10.125" y2="0.435" stroke="#4a5160" stroke-width="0.100" stroke-linecap="round" opacity="0.7"/><line x1="-10.125" y1="15.435" x2="-10.125" y2="14.935" stroke="#4a5160" stroke-width="0.100" stroke-linecap="round" opacity="0.7"/><line x1="-10.125" y1="15.435" x2="-9.625" y2="15.435" stroke="#4a5160" stroke-width="0.100" stroke-linecap="round" opacity="0.7"/><line x1="-10.125" y1="15.935" x2="-10.125" y2="15.435" stroke="#4a5160" stroke-width="0.100" stroke-linecap="round" opacity="0.7"/><line x1="-9.650" y1="6.435" x2="-9.650" y2="5.935" stroke="#4a5160" stroke-width="0.100" stroke-linecap="round" opacity="0.7"/><line x1="-9.650" y1="6.435" x2="-9.150" y2="6.435" stroke="#4a5160" stroke-width="0.100" stroke-linecap="round" opacity="0.7"/><line x1="-9.650" y1="6.935" x2="-9.650" y2="6.435" stroke="#4a5160" stroke-width="0.100" stroke-linecap="round" opacity="0.7"/><line x1="-8.870" y1="-5.135" x2="-4.550" y2="-5.135" stroke="#4a5160" stroke-width="0.100" stroke-linecap="round" opacity="0.7"/><line x1="-8.870" y1="19.035" x2="-8.870" y2="-5.135" stroke="#4a5160" stroke-width="0.100" stroke-linecap="round" opacity="0.7"/><line x1="-8.870" y1="19.035" x2="8.870" y2="19.035" stroke="#4a5160" stroke-width="0.100" stroke-linecap="round" opacity="0.7"/><line x1="-6.500" y1="6.435" x2="-6.000" y2="6.435" stroke="#4a5160" stroke-width="0.100" stroke-linecap="round" opacity="0.7"/><line x1="-6.000" y1="6.435" x2="-6.000" y2="5.935" stroke="#4a5160" stroke-width="0.100" stroke-linecap="round" opacity="0.7"/><line x1="-6.000" y1="6.435" x2="-5.500" y2="6.435" stroke="#4a5160" stroke-width="0.100" stroke-linecap="round" opacity="0.7"/><line x1="-6.000" y1="6.935" x2="-6.000" y2="6.435" stroke="#4a5160" stroke-width="0.100" stroke-linecap="round" opacity="0.7"/><line x1="-5.175" y1="-0.530" x2="-5.175" y2="-1.980" stroke="#4a5160" stroke-width="0.100" stroke-linecap="round" opacity="0.7"/><line x1="-5.000" y1="-1.255" x2="-5.000" y2="-1.980" stroke="#4a5160" stroke-width="0.100" stroke-linecap="round" opacity="0.7"/><line x1="-5.000" y1="-0.530" x2="-5.000" y2="-1.255" stroke="#4a5160" stroke-width="0.100" stroke-linecap="round" opacity="0.7"/><line x1="-4.825" y1="-0.530" x2="-4.825" y2="-1.980" stroke="#4a5160" stroke-width="0.100" stroke-linecap="round" opacity="0.7"/><line x1="-4.775" y1="1.980" x2="-4.775" y2="0.530" stroke="#4a5160" stroke-width="0.100" stroke-linecap="round" opacity="0.7"/><line x1="-4.600" y1="1.255" x2="-4.600" y2="0.530" stroke="#4a5160" stroke-width="0.100" stroke-linecap="round" opacity="0.7"/><line x1="-4.600" y1="1.980" x2="-4.600" y2="1.255" stroke="#4a5160" stroke-width="0.100" stroke-linecap="round" opacity="0.7"/><line x1="-4.550" y1="-5.135" x2="-4.550" y2="-7.245" stroke="#4a5160" stroke-width="0.100" stroke-linecap="round" opacity="0.7"/><line x1="-4.425" y1="1.980" x2="-4.425" y2="0.530" stroke="#4a5160" stroke-width="0.100" stroke-linecap="round" opacity="0.7"/><line x1="-4.375" y1="-0.530" x2="-4.375" y2="-1.980" stroke="#4a5160" stroke-width="0.100" stroke-linecap="round" opacity="0.7"/><line x1="-4.200" y1="-1.255" x2="-4.200" y2="-1.980" stroke="#4a5160" stroke-width="0.100" stroke-linecap="round" opacity="0.7"/><line x1="-4.200" y1="-0.530" x2="-4.200" y2="-1.255" stroke="#4a5160" stroke-width="0.100" stroke-linecap="round" opacity="0.7"/><line x1="-4.025" y1="-0.530" x2="-4.025" y2="-1.980" stroke="#4a5160" stroke-width="0.100" stroke-linecap="round" opacity="0.7"/><line x1="-3.975" y1="1.980" x2="-3.975" y2="0.530" stroke="#4a5160" stroke-width="0.100" stroke-linecap="round" opacity="0.7"/><line x1="-3.800" y1="1.255" x2="-3.800" y2="0.530" stroke="#4a5160" stroke-width="0.100" stroke-linecap="round" opacity="0.7"/><line x1="-3.800" y1="1.980" x2="-3.800" y2="1.255" stroke="#4a5160" stroke-width="0.100" stroke-linecap="round" opacity="0.7"/><line x1="-3.625" y1="1.980" x2="-3.625" y2="0.530" stroke="#4a5160" stroke-width="0.100" stroke-linecap="round" opacity="0.7"/><line x1="-3.575" y1="-0.530" x2="-3.575" y2="-1.980" stroke="#4a5160" stroke-width="0.100" stroke-linecap="round" opacity="0.7"/><line x1="-3.400" y1="-1.255" x2="-3.400" y2="-1.980" stroke="#4a5160" stroke-width="0.100" stroke-linecap="round" opacity="0.7"/><line x1="-3.400" y1="-0.530" x2="-3.400" y2="-1.255" stroke="#4a5160" stroke-width="0.100" stroke-linecap="round" opacity="0.7"/><line x1="-3.225" y1="-0.530" x2="-3.225" y2="-1.980" stroke="#4a5160" stroke-width="0.100" stroke-linecap="round" opacity="0.7"/><line x1="-3.175" y1="1.980" x2="-3.175" y2="0.530" stroke="#4a5160" stroke-width="0.100" stroke-linecap="round" opacity="0.7"/><line x1="-3.050" y1="-7.245" x2="-2.150" y2="-7.245" stroke="#4a5160" stroke-width="0.100" stroke-linecap="round" opacity="0.7"/><line x1="-3.050" y1="-5.135" x2="-3.050" y2="-7.245" stroke="#4a5160" stroke-width="0.100" stroke-linecap="round" opacity="0.7"/><line x1="-3.050" y1="-5.135" x2="-2.150" y2="-5.135" stroke="#4a5160" stroke-width="0.100" stroke-linecap="round" opacity="0.7"/><line x1="-3.000" y1="1.255" x2="-3.000" y2="0.530" stroke="#4a5160" stroke-width="0.100" stroke-linecap="round" opacity="0.7"/><line x1="-3.000" y1="1.980" x2="-3.000" y2="1.255" stroke="#4a5160" stroke-width="0.100" stroke-linecap="round" opacity="0.7"/><line x1="-2.825" y1="1.980" x2="-2.825" y2="0.530" stroke="#4a5160" stroke-width="0.100" stroke-linecap="round" opacity="0.7"/><line x1="-2.775" y1="-0.530" x2="-2.775" y2="-1.980" stroke="#4a5160" stroke-width="0.100" stroke-linecap="round" opacity="0.7"/><line x1="-2.600" y1="-1.255" x2="-2.600" y2="-1.980" stroke="#4a5160" stroke-width="0.100" stroke-linecap="round" opacity="0.7"/><line x1="-2.600" y1="-0.530" x2="-2.600" y2="-1.255" stroke="#4a5160" stroke-width="0.100" stroke-linecap="round" opacity="0.7"/><line x1="-2.425" y1="-0.530" x2="-2.425" y2="-1.980" stroke="#4a5160" stroke-width="0.100" stroke-linecap="round" opacity="0.7"/><line x1="-2.375" y1="1.980" x2="-2.375" y2="0.530" stroke="#4a5160" stroke-width="0.100" stroke-linecap="round" opacity="0.7"/><line x1="-2.200" y1="1.255" x2="-2.200" y2="0.530" stroke="#4a5160" stroke-width="0.100" stroke-linecap="round" opacity="0.7"/><line x1="-2.200" y1="1.980" x2="-2.200" y2="1.255" stroke="#4a5160" stroke-width="0.100" stroke-linecap="round" opacity="0.7"/><line x1="-2.150" y1="-5.135" x2="-2.150" y2="-7.245" stroke="#4a5160" stroke-width="0.100" stroke-linecap="round" opacity="0.7"/><line x1="-2.025" y1="1.980" x2="-2.025" y2="0.530" stroke="#4a5160" stroke-width="0.100" stroke-linecap="round" opacity="0.7"/><line x1="-1.975" y1="-0.530" x2="-1.975" y2="-1.980" stroke="#4a5160" stroke-width="0.100" stroke-linecap="round" opacity="0.7"/><line x1="-1.800" y1="-1.255" x2="-1.800" y2="-1.980" stroke="#4a5160" stroke-width="0.100" stroke-linecap="round" opacity="0.7"/><line x1="-1.800" y1="-0.530" x2="-1.800" y2="-1.255" stroke="#4a5160" stroke-width="0.100" stroke-linecap="round" opacity="0.7"/><line x1="-1.625" y1="-0.530" x2="-1.625" y2="-1.980" stroke="#4a5160" stroke-width="0.100" stroke-linecap="round" opacity="0.7"/><line x1="-1.575" y1="1.980" x2="-1.575" y2="0.530" stroke="#4a5160" stroke-width="0.100" stroke-linecap="round" opacity="0.7"/><line x1="-1.400" y1="1.255" x2="-1.400" y2="0.530" stroke="#4a5160" stroke-width="0.100" stroke-linecap="round" opacity="0.7"/><line x1="-1.400" y1="1.980" x2="-1.400" y2="1.255" stroke="#4a5160" stroke-width="0.100" stroke-linecap="round" opacity="0.7"/><line x1="-1.225" y1="1.980" x2="-1.225" y2="0.530" stroke="#4a5160" stroke-width="0.100" stroke-linecap="round" opacity="0.7"/><line x1="-1.175" y1="-0.530" x2="-1.175" y2="-1.980" stroke="#4a5160" stroke-width="0.100" stroke-linecap="round" opacity="0.7"/><line x1="-1.000" y1="-1.255" x2="-1.000" y2="-1.980" stroke="#4a5160" stroke-width="0.100" stroke-linecap="round" opacity="0.7"/><line x1="-1.000" y1="-0.530" x2="-1.000" y2="-1.255" stroke="#4a5160" stroke-width="0.100" stroke-linecap="round" opacity="0.7"/><line x1="-0.825" y1="-0.530" x2="-0.825" y2="-1.980" stroke="#4a5160" stroke-width="0.100" stroke-linecap="round" opacity="0.7"/><line x1="-0.775" y1="1.980" x2="-0.775" y2="0.530" stroke="#4a5160" stroke-width="0.100" stroke-linecap="round" opacity="0.7"/><line x1="-0.650" y1="-7.245" x2="0.000" y2="-7.245" stroke="#4a5160" stroke-width="0.100" stroke-linecap="round" opacity="0.7"/><line x1="-0.650" y1="-7.245" x2="0.250" y2="-7.245" stroke="#4a5160" stroke-width="0.100" stroke-linecap="round" opacity="0.7"/><line x1="-0.650" y1="-5.135" x2="-0.650" y2="-7.245" stroke="#4a5160" stroke-width="0.100" stroke-linecap="round" opacity="0.7"/><line x1="-0.650" y1="-5.135" x2="0.250" y2="-5.135" stroke="#4a5160" stroke-width="0.100" stroke-linecap="round" opacity="0.7"/><line x1="-0.600" y1="1.255" x2="-0.600" y2="0.530" stroke="#4a5160" stroke-width="0.100" stroke-linecap="round" opacity="0.7"/><line x1="-0.600" y1="1.980" x2="-0.600" y2="1.255" stroke="#4a5160" stroke-width="0.100" stroke-linecap="round" opacity="0.7"/><line x1="-0.500" y1="0.000" x2="0.000" y2="0.000" stroke="#4a5160" stroke-width="0.100" stroke-linecap="round" opacity="0.7"/><line x1="-0.425" y1="1.980" x2="-0.425" y2="0.530" stroke="#4a5160" stroke-width="0.100" stroke-linecap="round" opacity="0.7"/><line x1="-0.375" y1="-0.530" x2="-0.375" y2="-1.980" stroke="#4a5160" stroke-width="0.100" stroke-linecap="round" opacity="0.7"/><line x1="-0.200" y1="-1.255" x2="-0.200" y2="-1.980" stroke="#4a5160" stroke-width="0.100" stroke-linecap="round" opacity="0.7"/><line x1="-0.200" y1="-0.530" x2="-0.200" y2="-1.255" stroke="#4a5160" stroke-width="0.100" stroke-linecap="round" opacity="0.7"/><line x1="-0.025" y1="-0.530" x2="-0.025" y2="-1.980" stroke="#4a5160" stroke-width="0.100" stroke-linecap="round" opacity="0.7"/><line x1="0.000" y1="-7.245" x2="0.250" y2="-7.245" stroke="#4a5160" stroke-width="0.100" stroke-linecap="round" opacity="0.7"/><line x1="0.000" y1="0.000" x2="0.000" y2="-0.500" stroke="#4a5160" stroke-width="0.100" stroke-linecap="round" opacity="0.7"/><line x1="0.000" y1="0.000" x2="0.500" y2="0.000" stroke="#4a5160" stroke-width="0.100" stroke-linecap="round" opacity="0.7"/><line x1="0.000" y1="0.500" x2="0.000" y2="0.000" stroke="#4a5160" stroke-width="0.100" stroke-linecap="round" opacity="0.7"/><line x1="0.025" y1="1.980" x2="0.025" y2="0.530" stroke="#4a5160" stroke-width="0.100" stroke-linecap="round" opacity="0.7"/><line x1="0.200" y1="1.255" x2="0.200" y2="0.530" stroke="#4a5160" stroke-width="0.100" stroke-linecap="round" opacity="0.7"/><line x1="0.200" y1="1.980" x2="0.200" y2="1.255" stroke="#4a5160" stroke-width="0.100" stroke-linecap="round" opacity="0.7"/><line x1="0.250" y1="-5.135" x2="0.250" y2="-7.245" stroke="#4a5160" stroke-width="0.100" stroke-linecap="round" opacity="0.7"/><line x1="0.375" y1="1.980" x2="0.375" y2="0.530" stroke="#4a5160" stroke-width="0.100" stroke-linecap="round" opacity="0.7"/><line x1="0.425" y1="-0.530" x2="0.425" y2="-1.980" stroke="#4a5160" stroke-width="0.100" stroke-linecap="round" opacity="0.7"/><line x1="0.600" y1="-1.255" x2="0.600" y2="-1.980" stroke="#4a5160" stroke-width="0.100" stroke-linecap="round" opacity="0.7"/><line x1="0.600" y1="-0.530" x2="0.600" y2="-1.255" stroke="#4a5160" stroke-width="0.100" stroke-linecap="round" opacity="0.7"/><line x1="0.775" y1="-0.530" x2="0.775" y2="-1.980" stroke="#4a5160" stroke-width="0.100" stroke-linecap="round" opacity="0.7"/><line x1="0.825" y1="1.980" x2="0.825" y2="0.530" stroke="#4a5160" stroke-width="0.100" stroke-linecap="round" opacity="0.7"/><line x1="1.000" y1="1.255" x2="1.000" y2="0.530" stroke="#4a5160" stroke-width="0.100" stroke-linecap="round" opacity="0.7"/><line x1="1.000" y1="1.980" x2="1.000" y2="1.255" stroke="#4a5160" stroke-width="0.100" stroke-linecap="round" opacity="0.7"/><line x1="1.175" y1="1.980" x2="1.175" y2="0.530" stroke="#4a5160" stroke-width="0.100" stroke-linecap="round" opacity="0.7"/><line x1="1.225" y1="-0.530" x2="1.225" y2="-1.980" stroke="#4a5160" stroke-width="0.100" stroke-linecap="round" opacity="0.7"/><line x1="1.400" y1="-1.255" x2="1.400" y2="-1.980" stroke="#4a5160" stroke-width="0.100" stroke-linecap="round" opacity="0.7"/><line x1="1.400" y1="-0.530" x2="1.400" y2="-1.255" stroke="#4a5160" stroke-width="0.100" stroke-linecap="round" opacity="0.7"/><line x1="1.575" y1="-0.530" x2="1.575" y2="-1.980" stroke="#4a5160" stroke-width="0.100" stroke-linecap="round" opacity="0.7"/><line x1="1.625" y1="1.980" x2="1.625" y2="0.530" stroke="#4a5160" stroke-width="0.100" stroke-linecap="round" opacity="0.7"/><line x1="1.750" y1="-7.245" x2="2.650" y2="-7.245" stroke="#4a5160" stroke-width="0.100" stroke-linecap="round" opacity="0.7"/><line x1="1.750" y1="-5.135" x2="1.750" y2="-7.245" stroke="#4a5160" stroke-width="0.100" stroke-linecap="round" opacity="0.7"/><line x1="1.750" y1="-5.135" x2="2.650" y2="-5.135" stroke="#4a5160" stroke-width="0.100" stroke-linecap="round" opacity="0.7"/><line x1="1.800" y1="1.255" x2="1.800" y2="0.530" stroke="#4a5160" stroke-width="0.100" stroke-linecap="round" opacity="0.7"/><line x1="1.800" y1="1.980" x2="1.800" y2="1.255" stroke="#4a5160" stroke-width="0.100" stroke-linecap="round" opacity="0.7"/><line x1="1.975" y1="1.980" x2="1.975" y2="0.530" stroke="#4a5160" stroke-width="0.100" stroke-linecap="round" opacity="0.7"/><line x1="2.025" y1="-0.530" x2="2.025" y2="-1.980" stroke="#4a5160" stroke-width="0.100" stroke-linecap="round" opacity="0.7"/><line x1="2.200" y1="-1.255" x2="2.200" y2="-1.980" stroke="#4a5160" stroke-width="0.100" stroke-linecap="round" opacity="0.7"/><line x1="2.200" y1="-0.530" x2="2.200" y2="-1.255" stroke="#4a5160" stroke-width="0.100" stroke-linecap="round" opacity="0.7"/><line x1="2.375" y1="-0.530" x2="2.375" y2="-1.980" stroke="#4a5160" stroke-width="0.100" stroke-linecap="round" opacity="0.7"/><line x1="2.425" y1="1.980" x2="2.425" y2="0.530" stroke="#4a5160" stroke-width="0.100" stroke-linecap="round" opacity="0.7"/><line x1="2.600" y1="1.255" x2="2.600" y2="0.530" stroke="#4a5160" stroke-width="0.100" stroke-linecap="round" opacity="0.7"/><line x1="2.600" y1="1.980" x2="2.600" y2="1.255" stroke="#4a5160" stroke-width="0.100" stroke-linecap="round" opacity="0.7"/><line x1="2.650" y1="-5.135" x2="2.650" y2="-7.245" stroke="#4a5160" stroke-width="0.100" stroke-linecap="round" opacity="0.7"/><line x1="2.775" y1="1.980" x2="2.775" y2="0.530" stroke="#4a5160" stroke-width="0.100" stroke-linecap="round" opacity="0.7"/><line x1="2.825" y1="-0.530" x2="2.825" y2="-1.980" stroke="#4a5160" stroke-width="0.100" stroke-linecap="round" opacity="0.7"/><line x1="3.000" y1="-1.255" x2="3.000" y2="-1.980" stroke="#4a5160" stroke-width="0.100" stroke-linecap="round" opacity="0.7"/><line x1="3.000" y1="-0.530" x2="3.000" y2="-1.255" stroke="#4a5160" stroke-width="0.100" stroke-linecap="round" opacity="0.7"/><line x1="3.175" y1="-0.530" x2="3.175" y2="-1.980" stroke="#4a5160" stroke-width="0.100" stroke-linecap="round" opacity="0.7"/><line x1="3.225" y1="1.980" x2="3.225" y2="0.530" stroke="#4a5160" stroke-width="0.100" stroke-linecap="round" opacity="0.7"/><line x1="3.400" y1="1.255" x2="3.400" y2="0.530" stroke="#4a5160" stroke-width="0.100" stroke-linecap="round" opacity="0.7"/><line x1="3.400" y1="1.980" x2="3.400" y2="1.255" stroke="#4a5160" stroke-width="0.100" stroke-linecap="round" opacity="0.7"/><line x1="3.575" y1="1.980" x2="3.575" y2="0.530" stroke="#4a5160" stroke-width="0.100" stroke-linecap="round" opacity="0.7"/><line x1="3.625" y1="-0.530" x2="3.625" y2="-1.980" stroke="#4a5160" stroke-width="0.100" stroke-linecap="round" opacity="0.7"/><line x1="3.800" y1="-1.255" x2="3.800" y2="-1.980" stroke="#4a5160" stroke-width="0.100" stroke-linecap="round" opacity="0.7"/><line x1="3.800" y1="-0.530" x2="3.800" y2="-1.255" stroke="#4a5160" stroke-width="0.100" stroke-linecap="round" opacity="0.7"/><line x1="3.975" y1="-0.530" x2="3.975" y2="-1.980" stroke="#4a5160" stroke-width="0.100" stroke-linecap="round" opacity="0.7"/><line x1="4.025" y1="1.980" x2="4.025" y2="0.530" stroke="#4a5160" stroke-width="0.100" stroke-linecap="round" opacity="0.7"/><line x1="4.150" y1="-7.245" x2="11.470" y2="-7.245" stroke="#4a5160" stroke-width="0.100" stroke-linecap="round" opacity="0.7"/><line x1="4.150" y1="-5.135" x2="4.150" y2="-7.245" stroke="#4a5160" stroke-width="0.100" stroke-linecap="round" opacity="0.7"/><line x1="4.150" y1="-5.135" x2="8.870" y2="-5.135" stroke="#4a5160" stroke-width="0.100" stroke-linecap="round" opacity="0.7"/><line x1="4.200" y1="1.255" x2="4.200" y2="0.530" stroke="#4a5160" stroke-width="0.100" stroke-linecap="round" opacity="0.7"/><line x1="4.200" y1="1.980" x2="4.200" y2="1.255" stroke="#4a5160" stroke-width="0.100" stroke-linecap="round" opacity="0.7"/><line x1="4.375" y1="1.980" x2="4.375" y2="0.530" stroke="#4a5160" stroke-width="0.100" stroke-linecap="round" opacity="0.7"/><line x1="4.425" y1="-0.530" x2="4.425" y2="-1.980" stroke="#4a5160" stroke-width="0.100" stroke-linecap="round" opacity="0.7"/><line x1="4.600" y1="-1.255" x2="4.600" y2="-1.980" stroke="#4a5160" stroke-width="0.100" stroke-linecap="round" opacity="0.7"/><line x1="4.600" y1="-0.530" x2="4.600" y2="-1.255" stroke="#4a5160" stroke-width="0.100" stroke-linecap="round" opacity="0.7"/><line x1="4.775" y1="-0.530" x2="4.775" y2="-1.980" stroke="#4a5160" stroke-width="0.100" stroke-linecap="round" opacity="0.7"/><line x1="4.825" y1="1.980" x2="4.825" y2="0.530" stroke="#4a5160" stroke-width="0.100" stroke-linecap="round" opacity="0.7"/><line x1="5.000" y1="1.255" x2="5.000" y2="0.530" stroke="#4a5160" stroke-width="0.100" stroke-linecap="round" opacity="0.7"/><line x1="5.000" y1="1.980" x2="5.000" y2="1.255" stroke="#4a5160" stroke-width="0.100" stroke-linecap="round" opacity="0.7"/><line x1="5.175" y1="1.980" x2="5.175" y2="0.530" stroke="#4a5160" stroke-width="0.100" stroke-linecap="round" opacity="0.7"/><line x1="5.500" y1="6.435" x2="6.000" y2="6.435" stroke="#4a5160" stroke-width="0.100" stroke-linecap="round" opacity="0.7"/><line x1="6.000" y1="6.435" x2="6.000" y2="5.935" stroke="#4a5160" stroke-width="0.100" stroke-linecap="round" opacity="0.7"/><line x1="6.000" y1="6.435" x2="6.500" y2="6.435" stroke="#4a5160" stroke-width="0.100" stroke-linecap="round" opacity="0.7"/><line x1="6.000" y1="6.935" x2="6.000" y2="6.435" stroke="#4a5160" stroke-width="0.100" stroke-linecap="round" opacity="0.7"/><line x1="8.870" y1="19.035" x2="8.870" y2="-5.135" stroke="#4a5160" stroke-width="0.100" stroke-linecap="round" opacity="0.7"/><line x1="9.150" y1="6.435" x2="9.650" y2="6.435" stroke="#4a5160" stroke-width="0.100" stroke-linecap="round" opacity="0.7"/><line x1="9.625" y1="0.435" x2="10.125" y2="0.435" stroke="#4a5160" stroke-width="0.100" stroke-linecap="round" opacity="0.7"/><line x1="9.625" y1="15.435" x2="10.125" y2="15.435" stroke="#4a5160" stroke-width="0.100" stroke-linecap="round" opacity="0.7"/><line x1="9.650" y1="6.435" x2="9.650" y2="5.935" stroke="#4a5160" stroke-width="0.100" stroke-linecap="round" opacity="0.7"/><line x1="9.650" y1="6.435" x2="10.150" y2="6.435" stroke="#4a5160" stroke-width="0.100" stroke-linecap="round" opacity="0.7"/><line x1="9.650" y1="6.935" x2="9.650" y2="6.435" stroke="#4a5160" stroke-width="0.100" stroke-linecap="round" opacity="0.7"/><line x1="10.125" y1="0.435" x2="10.125" y2="-0.065" stroke="#4a5160" stroke-width="0.100" stroke-linecap="round" opacity="0.7"/><line x1="10.125" y1="0.435" x2="10.625" y2="0.435" stroke="#4a5160" stroke-width="0.100" stroke-linecap="round" opacity="0.7"/><line x1="10.125" y1="0.935" x2="10.125" y2="0.435" stroke="#4a5160" stroke-width="0.100" stroke-linecap="round" opacity="0.7"/><line x1="10.125" y1="15.435" x2="10.125" y2="14.935" stroke="#4a5160" stroke-width="0.100" stroke-linecap="round" opacity="0.7"/><line x1="10.125" y1="15.435" x2="10.625" y2="15.435" stroke="#4a5160" stroke-width="0.100" stroke-linecap="round" opacity="0.7"/><line x1="10.125" y1="15.935" x2="10.125" y2="15.435" stroke="#4a5160" stroke-width="0.100" stroke-linecap="round" opacity="0.7"/><line x1="11.470" y1="23.235" x2="11.470" y2="-7.245" stroke="#4a5160" stroke-width="0.100" stroke-linecap="round" opacity="0.7"/><line x1="-13.470" y1="-9.245" x2="13.470" y2="-9.245" stroke="#d24d4d" stroke-width="0.080" stroke-linecap="round" opacity="0.7"/><line x1="-13.470" y1="31.685" x2="-13.470" y2="-9.245" stroke="#d24d4d" stroke-width="0.080" stroke-linecap="round" opacity="0.7"/><line x1="-13.470" y1="31.685" x2="13.470" y2="31.685" stroke="#d24d4d" stroke-width="0.080" stroke-linecap="round" opacity="0.7"/><line x1="13.470" y1="31.685" x2="13.470" y2="-9.245" stroke="#d24d4d" stroke-width="0.080" stroke-linecap="round" opacity="0.7"/><line x1="-12.250" y1="1.435" x2="-12.250" y2="-0.565" stroke="#6b7280" stroke-width="0.100" stroke-linecap="round" opacity="0.8"/><line x1="-12.250" y1="16.435" x2="-12.250" y2="14.435" stroke="#6b7280" stroke-width="0.100" stroke-linecap="round" opacity="0.8"/><line x1="-12.000" y1="-0.815" x2="-11.750" y2="-0.815" stroke="#6b7280" stroke-width="0.100" stroke-linecap="round" opacity="0.8"/><line x1="-12.000" y1="1.685" x2="-11.750" y2="1.685" stroke="#6b7280" stroke-width="0.100" stroke-linecap="round" opacity="0.8"/><line x1="-12.000" y1="14.185" x2="-11.750" y2="14.185" stroke="#6b7280" stroke-width="0.100" stroke-linecap="round" opacity="0.8"/><line x1="-12.000" y1="16.685" x2="-11.750" y2="16.685" stroke="#6b7280" stroke-width="0.100" stroke-linecap="round" opacity="0.8"/><line x1="-11.950" y1="27.535" x2="-11.949" y2="24.535" stroke="#6b7280" stroke-width="0.100" stroke-linecap="round" opacity="0.8"/><line x1="-11.950" y1="27.535" x2="11.950" y2="27.535" stroke="#6b7280" stroke-width="0.100" stroke-linecap="round" opacity="0.8"/><line x1="-11.949" y1="24.535" x2="11.950" y2="24.535" stroke="#6b7280" stroke-width="0.100" stroke-linecap="round" opacity="0.8"/><line x1="-11.500" y1="-7.315" x2="11.500" y2="-7.315" stroke="#6b7280" stroke-width="0.100" stroke-linecap="round" opacity="0.8"/><line x1="-11.500" y1="-1.065" x2="-11.500" y2="-7.315" stroke="#6b7280" stroke-width="0.100" stroke-linecap="round" opacity="0.8"/><line x1="-11.500" y1="13.935" x2="-11.500" y2="1.935" stroke="#6b7280" stroke-width="0.100" stroke-linecap="round" opacity="0.8"/><line x1="-11.500" y1="16.935" x2="-11.498" y2="24.535" stroke="#6b7280" stroke-width="0.100" stroke-linecap="round" opacity="0.8"/><line x1="-11.500" y1="23.535" x2="11.500" y2="23.535" stroke="#6b7280" stroke-width="0.100" stroke-linecap="round" opacity="0.8"/><line x1="-10.450" y1="27.535" x2="-10.450" y2="24.535" stroke="#6b7280" stroke-width="0.100" stroke-linecap="round" opacity="0.8"/><line x1="-10.250" y1="24.535" x2="-10.250" y2="23.535" stroke="#6b7280" stroke-width="0.100" stroke-linecap="round" opacity="0.8"/><line x1="-9.650" y1="31.435" x2="-9.650" y2="27.535" stroke="#6b7280" stroke-width="0.100" stroke-linecap="round" opacity="0.8"/><line x1="-9.650" y1="31.435" x2="9.650" y2="31.435" stroke="#6b7280" stroke-width="0.100" stroke-linecap="round" opacity="0.8"/><line x1="-8.650" y1="31.435" x2="-8.650" y2="27.535" stroke="#6b7280" stroke-width="0.100" stroke-linecap="round" opacity="0.8"/><line x1="-5.100" y1="28.435" x2="-3.600" y2="28.435" stroke="#6b7280" stroke-width="0.100" stroke-linecap="round" opacity="0.8"/><line x1="-5.100" y1="30.435" x2="-5.100" y2="28.435" stroke="#6b7280" stroke-width="0.100" stroke-linecap="round" opacity="0.8"/><line x1="-5.100" y1="30.435" x2="-3.600" y2="30.435" stroke="#6b7280" stroke-width="0.100" stroke-linecap="round" opacity="0.8"/><line x1="-3.600" y1="30.435" x2="-3.600" y2="28.435" stroke="#6b7280" stroke-width="0.100" stroke-linecap="round" opacity="0.8"/><line x1="3.600" y1="28.435" x2="5.100" y2="28.435" stroke="#6b7280" stroke-width="0.100" stroke-linecap="round" opacity="0.8"/><line x1="3.600" y1="30.435" x2="3.600" y2="28.435" stroke="#6b7280" stroke-width="0.100" stroke-linecap="round" opacity="0.8"/><line x1="3.600" y1="30.435" x2="5.100" y2="30.435" stroke="#6b7280" stroke-width="0.100" stroke-linecap="round" opacity="0.8"/><line x1="5.100" y1="30.435" x2="5.100" y2="28.435" stroke="#6b7280" stroke-width="0.100" stroke-linecap="round" opacity="0.8"/><line x1="8.650" y1="31.435" x2="8.650" y2="27.535" stroke="#6b7280" stroke-width="0.100" stroke-linecap="round" opacity="0.8"/><line x1="9.650" y1="31.435" x2="9.650" y2="27.535" stroke="#6b7280" stroke-width="0.100" stroke-linecap="round" opacity="0.8"/><line x1="10.250" y1="24.535" x2="10.250" y2="23.535" stroke="#6b7280" stroke-width="0.100" stroke-linecap="round" opacity="0.8"/><line x1="10.450" y1="27.535" x2="10.450" y2="24.535" stroke="#6b7280" stroke-width="0.100" stroke-linecap="round" opacity="0.8"/><line x1="11.500" y1="-1.065" x2="11.500" y2="-7.315" stroke="#6b7280" stroke-width="0.100" stroke-linecap="round" opacity="0.8"/><line x1="11.500" y1="13.935" x2="11.500" y2="1.935" stroke="#6b7280" stroke-width="0.100" stroke-linecap="round" opacity="0.8"/><line x1="11.500" y1="24.535" x2="11.500" y2="16.935" stroke="#6b7280" stroke-width="0.100" stroke-linecap="round" opacity="0.8"/><line x1="11.750" y1="-0.815" x2="12.000" y2="-0.815" stroke="#6b7280" stroke-width="0.100" stroke-linecap="round" opacity="0.8"/><line x1="11.750" y1="1.685" x2="12.000" y2="1.685" stroke="#6b7280" stroke-width="0.100" stroke-linecap="round" opacity="0.8"/><line x1="11.750" y1="14.185" x2="12.000" y2="14.185" stroke="#6b7280" stroke-width="0.100" stroke-linecap="round" opacity="0.8"/><line x1="11.750" y1="16.685" x2="12.000" y2="16.685" stroke="#6b7280" stroke-width="0.100" stroke-linecap="round" opacity="0.8"/><line x1="11.950" y1="27.535" x2="11.950" y2="24.535" stroke="#6b7280" stroke-width="0.100" stroke-linecap="round" opacity="0.8"/><line x1="12.250" y1="1.435" x2="12.250" y2="-0.565" stroke="#6b7280" stroke-width="0.100" stroke-linecap="round" opacity="0.8"/><line x1="12.250" y1="16.435" x2="12.250" y2="14.435" stroke="#6b7280" stroke-width="0.100" stroke-linecap="round" opacity="0.8"/><path d="M -12.250 -0.565 A 0.250 0.250 0 0 1 -12.000 -0.815" fill="none" stroke="#e6e9ef" stroke-width="0.12" opacity="1"/><path d="M -12.250 14.435 A 0.250 0.250 0 0 1 -12.000 14.185" fill="none" stroke="#e6e9ef" stroke-width="0.12" opacity="1"/><path d="M -12.000 1.685 A 0.250 0.250 0 0 1 -12.250 1.435" fill="none" stroke="#e6e9ef" stroke-width="0.12" opacity="1"/><path d="M -12.000 16.685 A 0.250 0.250 0 0 1 -12.250 16.435" fill="none" stroke="#e6e9ef" stroke-width="0.12" opacity="1"/><path d="M 12.000 -0.815 A 0.250 0.250 0 0 1 12.250 -0.565" fill="none" stroke="#e6e9ef" stroke-width="0.12" opacity="1"/><path d="M 12.000 14.185 A 0.250 0.250 0 0 1 12.250 14.435" fill="none" stroke="#e6e9ef" stroke-width="0.12" opacity="1"/><path d="M 12.250 1.435 A 0.250 0.250 0 0 1 12.000 1.685" fill="none" stroke="#e6e9ef" stroke-width="0.12" opacity="1"/><path d="M 12.250 16.435 A 0.250 0.250 0 0 1 12.000 16.685" fill="none" stroke="#e6e9ef" stroke-width="0.12" opacity="1"/><path d="M -5.175 -1.980 A 0.175 0.175 0 1 1 -4.825 -1.980" fill="none" stroke="#4a5160" stroke-width="0.12" opacity="0.7"/><path d="M -4.825 -0.530 A 0.175 0.175 0 1 1 -5.175 -0.530" fill="none" stroke="#4a5160" stroke-width="0.12" opacity="0.7"/><path d="M -4.775 0.530 A 0.175 0.175 0 1 1 -4.425 0.530" fill="none" stroke="#4a5160" stroke-width="0.12" opacity="0.7"/><path d="M -4.425 1.980 A 0.175 0.175 0 1 1 -4.775 1.980" fill="none" stroke="#4a5160" stroke-width="0.12" opacity="0.7"/><path d="M -4.375 -1.980 A 0.175 0.175 0 0 1 -4.025 -1.980" fill="none" stroke="#4a5160" stroke-width="0.12" opacity="0.7"/><path d="M -4.025 -0.530 A 0.175 0.175 0 1 1 -4.375 -0.530" fill="none" stroke="#4a5160" stroke-width="0.12" opacity="0.7"/><path d="M -3.975 0.530 A 0.175 0.175 0 1 1 -3.625 0.530" fill="none" stroke="#4a5160" stroke-width="0.12" opacity="0.7"/><path d="M -3.625 1.980 A 0.175 0.175 0 0 1 -3.975 1.980" fill="none" stroke="#4a5160" stroke-width="0.12" opacity="0.7"/><path d="M -3.575 -1.980 A 0.175 0.175 0 0 1 -3.225 -1.980" fill="none" stroke="#4a5160" stroke-width="0.12" opacity="0.7"/><path d="M -3.225 -0.530 A 0.175 0.175 0 0 1 -3.575 -0.530" fill="none" stroke="#4a5160" stroke-width="0.12" opacity="0.7"/><path d="M -3.175 0.530 A 0.175 0.175 0 0 1 -2.825 0.530" fill="none" stroke="#4a5160" stroke-width="0.12" opacity="0.7"/><path d="M -2.825 1.980 A 0.175 0.175 0 1 1 -3.175 1.980" fill="none" stroke="#4a5160" stroke-width="0.12" opacity="0.7"/><path d="M -2.775 -1.980 A 0.175 0.175 0 1 1 -2.425 -1.980" fill="none" stroke="#4a5160" stroke-width="0.12" opacity="0.7"/><path d="M -2.425 -0.530 A 0.175 0.175 0 1 1 -2.775 -0.530" fill="none" stroke="#4a5160" stroke-width="0.12" opacity="0.7"/><path d="M -2.375 0.530 A 0.175 0.175 0 1 1 -2.025 0.530" fill="none" stroke="#4a5160" stroke-width="0.12" opacity="0.7"/><path d="M -2.025 1.980 A 0.175 0.175 0 0 1 -2.375 1.980" fill="none" stroke="#4a5160" stroke-width="0.12" opacity="0.7"/><path d="M -1.975 -1.980 A 0.175 0.175 0 0 1 -1.625 -1.980" fill="none" stroke="#4a5160" stroke-width="0.12" opacity="0.7"/><path d="M -1.625 -0.530 A 0.175 0.175 0 0 1 -1.975 -0.530" fill="none" stroke="#4a5160" stroke-width="0.12" opacity="0.7"/><path d="M -1.575 0.530 A 0.175 0.175 0 1 1 -1.225 0.530" fill="none" stroke="#4a5160" stroke-width="0.12" opacity="0.7"/><path d="M -1.225 1.980 A 0.175 0.175 0 0 1 -1.575 1.980" fill="none" stroke="#4a5160" stroke-width="0.12" opacity="0.7"/><path d="M -1.175 -1.980 A 0.175 0.175 0 0 1 -0.825 -1.980" fill="none" stroke="#4a5160" stroke-width="0.12" opacity="0.7"/><path d="M -0.825 -0.530 A 0.175 0.175 0 1 1 -1.175 -0.530" fill="none" stroke="#4a5160" stroke-width="0.12" opacity="0.7"/><path d="M -0.775 0.530 A 0.175 0.175 0 1 1 -0.425 0.530" fill="none" stroke="#4a5160" stroke-width="0.12" opacity="0.7"/><path d="M -0.425 1.980 A 0.175 0.175 0 1 1 -0.775 1.980" fill="none" stroke="#4a5160" stroke-width="0.12" opacity="0.7"/><path d="M -0.375 -1.980 A 0.175 0.175 0 0 1 -0.025 -1.980" fill="none" stroke="#4a5160" stroke-width="0.12" opacity="0.7"/><path d="M -0.025 -0.530 A 0.175 0.175 0 0 1 -0.375 -0.530" fill="none" stroke="#4a5160" stroke-width="0.12" opacity="0.7"/><path d="M 0.025 0.530 A 0.175 0.175 0 0 1 0.375 0.530" fill="none" stroke="#4a5160" stroke-width="0.12" opacity="0.7"/><path d="M 0.375 1.980 A 0.175 0.175 0 0 1 0.025 1.980" fill="none" stroke="#4a5160" stroke-width="0.12" opacity="0.7"/><path d="M 0.425 -1.980 A 0.175 0.175 0 1 1 0.775 -1.980" fill="none" stroke="#4a5160" stroke-width="0.12" opacity="0.7"/><path d="M 0.775 -0.530 A 0.175 0.175 0 1 1 0.425 -0.530" fill="none" stroke="#4a5160" stroke-width="0.12" opacity="0.7"/><path d="M 0.825 0.530 A 0.175 0.175 0 1 1 1.175 0.530" fill="none" stroke="#4a5160" stroke-width="0.12" opacity="0.7"/><path d="M 1.175 1.980 A 0.175 0.175 0 0 1 0.825 1.980" fill="none" stroke="#4a5160" stroke-width="0.12" opacity="0.7"/><path d="M 1.225 -1.980 A 0.175 0.175 0 0 1 1.575 -1.980" fill="none" stroke="#4a5160" stroke-width="0.12" opacity="0.7"/><path d="M 1.575 -0.530 A 0.175 0.175 0 1 1 1.225 -0.530" fill="none" stroke="#4a5160" stroke-width="0.12" opacity="0.7"/><path d="M 1.625 0.530 A 0.175 0.175 0 0 1 1.975 0.530" fill="none" stroke="#4a5160" stroke-width="0.12" opacity="0.7"/><path d="M 1.975 1.980 A 0.175 0.175 0 0 1 1.625 1.980" fill="none" stroke="#4a5160" stroke-width="0.12" opacity="0.7"/><path d="M 2.025 -1.980 A 0.175 0.175 0 0 1 2.375 -1.980" fill="none" stroke="#4a5160" stroke-width="0.12" opacity="0.7"/><path d="M 2.375 -0.530 A 0.175 0.175 0 1 1 2.025 -0.530" fill="none" stroke="#4a5160" stroke-width="0.12" opacity="0.7"/><path d="M 2.425 0.530 A 0.175 0.175 0 1 1 2.775 0.530" fill="none" stroke="#4a5160" stroke-width="0.12" opacity="0.7"/><path d="M 2.775 1.980 A 0.175 0.175 0 1 1 2.425 1.980" fill="none" stroke="#4a5160" stroke-width="0.12" opacity="0.7"/><path d="M 2.825 -1.980 A 0.175 0.175 0 1 1 3.175 -1.980" fill="none" stroke="#4a5160" stroke-width="0.12" opacity="0.7"/><path d="M 3.175 -0.530 A 0.175 0.175 0 0 1 2.825 -0.530" fill="none" stroke="#4a5160" stroke-width="0.12" opacity="0.7"/><path d="M 3.225 0.530 A 0.175 0.175 0 0 1 3.575 0.530" fill="none" stroke="#4a5160" stroke-width="0.12" opacity="0.7"/><path d="M 3.575 1.980 A 0.175 0.175 0 0 1 3.225 1.980" fill="none" stroke="#4a5160" stroke-width="0.12" opacity="0.7"/><path d="M 3.625 -1.980 A 0.175 0.175 0 0 1 3.975 -1.980" fill="none" stroke="#4a5160" stroke-width="0.12" opacity="0.7"/><path d="M 3.975 -0.530 A 0.175 0.175 0 1 1 3.625 -0.530" fill="none" stroke="#4a5160" stroke-width="0.12" opacity="0.7"/><path d="M 4.025 0.530 A 0.175 0.175 0 1 1 4.375 0.530" fill="none" stroke="#4a5160" stroke-width="0.12" opacity="0.7"/><path d="M 4.375 1.980 A 0.175 0.175 0 0 1 4.025 1.980" fill="none" stroke="#4a5160" stroke-width="0.12" opacity="0.7"/><path d="M 4.425 -1.980 A 0.175 0.175 0 1 1 4.775 -1.980" fill="none" stroke="#4a5160" stroke-width="0.12" opacity="0.7"/><path d="M 4.775 -0.530 A 0.175 0.175 0 1 1 4.425 -0.530" fill="none" stroke="#4a5160" stroke-width="0.12" opacity="0.7"/><path d="M 4.825 0.530 A 0.175 0.175 0 1 1 5.175 0.530" fill="none" stroke="#4a5160" stroke-width="0.12" opacity="0.7"/><path d="M 5.175 1.980 A 0.175 0.175 0 1 1 4.825 1.980" fill="none" stroke="#4a5160" stroke-width="0.12" opacity="0.7"/><path d="M -12.250 -0.565 A 0.250 0.250 0 0 1 -12.000 -0.815" fill="none" stroke="#6b7280" stroke-width="0.12" opacity="0.8"/><path d="M -12.250 14.435 A 0.250 0.250 0 0 1 -12.000 14.185" fill="none" stroke="#6b7280" stroke-width="0.12" opacity="0.8"/><path d="M -12.000 1.685 A 0.250 0.250 0 0 1 -12.250 1.435" fill="none" stroke="#6b7280" stroke-width="0.12" opacity="0.8"/><path d="M -12.000 16.685 A 0.250 0.250 0 0 1 -12.250 16.435" fill="none" stroke="#6b7280" stroke-width="0.12" opacity="0.8"/><path d="M -11.750 1.685 A 0.250 0.250 0 0 1 -11.500 1.935" fill="none" stroke="#6b7280" stroke-width="0.12" opacity="0.8"/><path d="M -11.750 16.685 A 0.250 0.250 0 0 1 -11.500 16.935" fill="none" stroke="#6b7280" stroke-width="0.12" opacity="0.8"/><path d="M -11.500 -1.065 A 0.250 0.250 0 0 1 -11.750 -0.815" fill="none" stroke="#6b7280" stroke-width="0.12" opacity="0.8"/><path d="M -11.500 13.935 A 0.250 0.250 0 0 1 -11.750 14.185" fill="none" stroke="#6b7280" stroke-width="0.12" opacity="0.8"/><path d="M 11.500 1.935 A 0.250 0.250 0 0 1 11.750 1.685" fill="none" stroke="#6b7280" stroke-width="0.12" opacity="0.8"/><path d="M 11.500 16.935 A 0.250 0.250 0 0 1 11.750 16.685" fill="none" stroke="#6b7280" stroke-width="0.12" opacity="0.8"/><path d="M 11.750 -0.815 A 0.250 0.250 0 0 1 11.500 -1.065" fill="none" stroke="#6b7280" stroke-width="0.12" opacity="0.8"/><path d="M 11.750 14.185 A 0.250 0.250 0 0 1 11.500 13.935" fill="none" stroke="#6b7280" stroke-width="0.12" opacity="0.8"/><path d="M 12.000 -0.815 A 0.250 0.250 0 0 1 12.250 -0.565" fill="none" stroke="#6b7280" stroke-width="0.12" opacity="0.8"/><path d="M 12.000 14.185 A 0.250 0.250 0 0 1 12.250 14.435" fill="none" stroke="#6b7280" stroke-width="0.12" opacity="0.8"/><path d="M 12.250 1.435 A 0.250 0.250 0 0 1 12.000 1.685" fill="none" stroke="#6b7280" stroke-width="0.12" opacity="0.8"/><path d="M 12.250 16.435 A 0.250 0.250 0 0 1 12.000 16.685" fill="none" stroke="#6b7280" stroke-width="0.12" opacity="0.8"/><circle cx="-10.125" cy="0.435" r="1.450" fill="none" stroke="#4a5160" stroke-width="0.12" opacity="0.7"/><circle cx="-10.125" cy="0.435" r="1.100" fill="none" stroke="#4a5160" stroke-width="0.12" opacity="0.7"/><circle cx="-10.125" cy="15.435" r="1.450" fill="none" stroke="#4a5160" stroke-width="0.12" opacity="0.7"/><circle cx="-10.125" cy="15.435" r="1.100" fill="none" stroke="#4a5160" stroke-width="0.12" opacity="0.7"/><circle cx="-9.650" cy="6.435" r="1.125" fill="none" stroke="#4a5160" stroke-width="0.12" opacity="0.7"/><circle cx="-9.650" cy="6.435" r="0.775" fill="none" stroke="#4a5160" stroke-width="0.12" opacity="0.7"/><circle cx="9.650" cy="6.435" r="1.125" fill="none" stroke="#4a5160" stroke-width="0.12" opacity="0.7"/><circle cx="9.650" cy="6.435" r="0.775" fill="none" stroke="#4a5160" stroke-width="0.12" opacity="0.7"/><circle cx="10.125" cy="0.435" r="1.450" fill="none" stroke="#4a5160" stroke-width="0.12" opacity="0.7"/><circle cx="10.125" cy="0.435" r="1.100" fill="none" stroke="#4a5160" stroke-width="0.12" opacity="0.7"/><circle cx="10.125" cy="15.435" r="1.450" fill="none" stroke="#4a5160" stroke-width="0.12" opacity="0.7"/><circle cx="10.125" cy="15.435" r="1.100" fill="none" stroke="#4a5160" stroke-width="0.12" opacity="0.7"/><circle cx="-10.125" cy="0.435" r="0.800" fill="none" stroke="#6b7280" stroke-width="0.12" opacity="0.8"/><circle cx="-10.125" cy="15.435" r="0.800" fill="none" stroke="#6b7280" stroke-width="0.12" opacity="0.8"/><circle cx="10.125" cy="0.435" r="0.800" fill="none" stroke="#6b7280" stroke-width="0.12" opacity="0.8"/><circle cx="10.125" cy="15.435" r="0.800" fill="none" stroke="#6b7280" stroke-width="0.12" opacity="0.8"/><rect x="-3.050" y="-7.245" width="0.000" height="0.000" rx="0.000" fill="#c79b5c"/><rect x="-0.650" y="-7.245" width="0.000" height="0.000" rx="0.000" fill="#c79b5c"/><rect x="1.750" y="-7.245" width="0.000" height="0.000" rx="0.000" fill="#c79b5c"/><rect x="-11.575" y="-1.015" width="2.900" height="2.900" rx="1.450" fill="#c79b5c"/><circle cx="-10.125" cy="0.435" r="1.100" fill="#12151c"/><rect x="-10.775" y="5.310" width="2.250" height="2.250" rx="1.125" fill="#c79b5c"/><circle cx="-9.650" cy="6.435" r="0.775" fill="#12151c"/><rect x="-11.575" y="13.985" width="2.900" height="2.900" rx="1.450" fill="#c79b5c"/><circle cx="-10.125" cy="15.435" r="1.100" fill="#12151c"/><rect x="8.675" y="13.985" width="2.900" height="2.900" rx="1.450" fill="#c79b5c"/><circle cx="10.125" cy="15.435" r="1.100" fill="#12151c"/><rect x="8.525" y="5.310" width="2.250" height="2.250" rx="1.125" fill="#c79b5c"/><circle cx="9.650" cy="6.435" r="0.775" fill="#12151c"/><rect x="4.150" y="-7.245" width="0.000" height="0.000" rx="0.000" fill="#c79b5c"/><rect x="8.675" y="-1.015" width="2.900" height="2.900" rx="1.450" fill="#c79b5c"/><circle cx="10.125" cy="0.435" r="1.100" fill="#12151c"/></svg>