<svg xmlns="http://www.w3.org/2000/svg" viewBox="-14.75 -13.29 28.04 26.59" preserveAspectRatio="xMidYMid meet" style="width:100%;height:100%"><rect x="-14.75" y="-13.29" width="28.04" height="26.59" fill="#12151c"/><circle cx="-13.500" cy="-7.700" r="0.250" fill="none" stroke="#e6e9ef" stroke-width="0.12" opacity="1"/><circle cx="-7.050" cy="-7.700" r="0.750" fill="none" stroke="#6b7280" stroke-width="0.12" opacity="0.8"/><rect x="-12.251" y="-9.220" width="2.100" height="3.200" rx="0.000" fill="#c79b5c"/><rect x="-10.135" y="-9.258" width="0.000" height="0.000" rx="0.000" fill="#c79b5c"/><rect x="-12.293" y="-4.178" width="2.184" height="3.277" rx="0.000" fill="#c79b5c"/><rect x="-12.293" y="0.901" width="2.184" height="3.277" rx="0.000" fill="#c79b5c"/><rect x="-12.293" y="5.982" width="2.184" height="3.277" rx="0.000" fill="#c79b5c"/><rect x="-9.258" y="12.294" width="0.000" height="0.000" rx="0.000" fill="#c79b5c"/><rect x="-8.270" y="10.151" width="1.300" height="1.000" rx="0.000" fill="#c79b5c"/><rect x="-9.220" y="11.151" width="3.200" height="1.100" rx="0.000" fill="#c79b5c"/><rect x="-4.178" y="12.294" width="0.000" height="0.000" rx="0.000" fill="#c79b5c"/><rect x="-3.190" y="10.151" width="1.300" height="1.000" rx="0.000" fill="#c79b5c"/><rect x="-4.140" y="11.151" width="3.200" height="1.100" rx="0.000" fill="#c79b5c"/><rect x="0.902" y="10.109" width="3.277" height="2.184" rx="0.000" fill="#c79b5c"/><rect x="5.982" y="10.109" width="3.277" height="2.184" rx="0.000" fill="#c79b5c"/><rect x="10.109" y="5.982" width="2.184" height="3.277" rx="0.000" fill="#c79b5c"/><rect x="10.109" y="0.901" width="2.184" height="3.277" rx="0.000" fill="#c79b5c"/><rect x="10.109" y="-4.178" width="2.184" height="3.277" rx="0.000" fill="#c79b5c"/><rect x="10.109" y="-9.259" width="2.184" height="3.277" rx="0.000" fill="#c79b5c"/><rect x="5.982" y="-12.293" width="3.277" height="2.184" rx="0.000" fill="#c79b5c"/><rect x="0.902" y="-12.293" width="3.277" height="2.184" rx="0.000" fill="#c79b5c"/><rect x="-4.178" y="-12.293" width="3.277" height="2.184" rx="0.000" fill="#c79b5c"/><rect x="-9.258" y="-12.293" width="3.277" height="2.184" rx="0.000" fill="#c79b5c"/></svg>