<svg xmlns="http://www.w3.org/2000/svg" viewBox="-4.10 -2.55 8.20 5.10" preserveAspectRatio="xMidYMid meet" style="width:100%;height:100%"><rect x="-4.10" y="-2.55" width="8.20" height="5.10" fill="#12151c"/><path d="M -3.100 -0.921 A 0.350 0.350 0 0 1 -2.627 -1.249" fill="none" stroke="#d24d4d" stroke-width="0.12" opacity="0.7"/><path d="M -2.627 1.249 A 0.350 0.350 0 0 1 -3.100 0.921" fill="none" stroke="#d24d4d" stroke-width="0.12" opacity="0.7"/><path d="M -1.345 -0.770 A 1.550 1.550 0 0 1 1.345 -0.770" fill="none" stroke="#d24d4d" stroke-width="0.12" opacity="0.7"/><path d="M 1.345 0.770 A 1.550 1.550 0 0 1 -1.345 0.770" fill="none" stroke="#d24d4d" stroke-width="0.12" opacity="0.7"/><path d="M 2.627 -1.249 A 0.350 0.350 0 0 1 3.100 -0.921" fill="none" stroke="#d24d4d" stroke-width="0.12" opacity="0.7"/><path d="M 3.100 0.921 A 0.350 0.350 0 0 1 2.627 1.249" fill="none" stroke="#d24d4d" stroke-width="0.12" opacity="0.7"/><path d="M -2.750 -0.673 A 0.050 0.050 0 0 1 -2.712 -0.722" fill="none" stroke="#6b7280" stroke-width="0.12" opacity="0.8"/><path d="M -2.750 0.245 A 0.050 0.050 0 0 1 -2.710 0.196" fill="none" stroke="#6b7280" stroke-width="0.12" opacity="0.8"/><path d="M -2.712 0.722 A 0.050 0.050 0 0 1 -2.750 0.673" fill="none" stroke="#6b7280" stroke-width="0.12" opacity="0.8"/><path d="M -2.712 0.722 A 0.150 0.150 0 0 1 -2.629 0.779" fill="none" stroke="#6b7280" stroke-width="0.12" opacity="0.8"/><path d="M -2.710 -0.196 A 0.050 0.050 0 0 1 -2.750 -0.245" fill="none" stroke="#6b7280" stroke-width="0.12" opacity="0.8"/><path d="M -2.710 -0.196 A 0.200 0.200 0 0 1 -2.710 0.196" fill="none" stroke="#6b7280" stroke-width="0.12" opacity="0.8"/><path d="M -2.629 -0.779 A 0.150 0.150 0 0 1 -2.712 -0.722" fill="none" stroke="#6b7280" stroke-width="0.12" opacity="0.8"/><path d="M -2.629 -0.779 A 0.050 0.050 0 0 1 -2.570 -0.796" fill="none" stroke="#6b7280" stroke-width="0.12" opacity="0.8"/><path d="M -2.570 0.796 A 0.050 0.050 0 0 1 -2.629 0.779" fill="none" stroke="#6b7280" stroke-width="0.12" opacity="0.8"/><path d="M -2.053 -0.591 A 0.050 0.050 0 0 1 -2.021 -0.542" fill="none" stroke="#6b7280" stroke-width="0.12" opacity="0.8"/><path d="M -2.021 0.542 A 0.050 0.050 0 0 1 -2.053 0.591" fill="none" stroke="#6b7280" stroke-width="0.12" opacity="0.8"/><path d="M -2.021 0.542 A 0.100 0.100 0 0 1 -1.846 0.473" fill="none" stroke="#6b7280" stroke-width="0.12" opacity="0.8"/><path d="M -1.846 -0.473 A 0.100 0.100 0 0 1 -2.021 -0.542" fill="none" stroke="#6b7280" stroke-width="0.12" opacity="0.8"/><path d="M -1.846 -0.473 A 0.050 0.050 0 0 1 -1.790 -0.486" fill="none" stroke="#6b7280" stroke-width="0.12" opacity="0.8"/><path d="M -1.790 0.486 A 0.050 0.050 0 0 1 -1.846 0.473" fill="none" stroke="#6b7280" stroke-width="0.12" opacity="0.8"/><path d="M -1.105 -0.317 A 1.150 1.150 0 0 1 -0.053 -1.149" fill="none" stroke="#6b7280" stroke-width="0.12" opacity="0.8"/><path d="M 0.047 -0.999 A 1.000 1.000 0 1 1 -0.046 -0.999" fill="none" stroke="#6b7280" stroke-width="0.12" opacity="0.8"/><path d="M 0.054 -1.149 A 1.150 1.150 0 0 1 1.105 -0.317" fill="none" stroke="#6b7280" stroke-width="0.12" opacity="0.8"/><path d="M 1.105 0.317 A 1.150 1.150 0 0 1 -1.105 0.317" fill="none" stroke="#6b7280" stroke-width="0.12" opacity="0.8"/><path d="M 1.790 -0.486 A 0.050 0.050 0 0 1 1.846 -0.473" fill="none" stroke="#6b7280" stroke-width="0.12" opacity="0.8"/><path d="M 1.846 0.473 A 0.050 0.050 0 0 1 1.790 0.486" fill="none" stroke="#6b7280" stroke-width="0.12" opacity="0.8"/><path d="M 1.846 0.473 A 0.100 0.100 0 0 1 2.022 0.542" fill="none" stroke="#6b7280" stroke-width="0.12" opacity="0.8"/><path d="M 2.022 -0.542 A 0.050 0.050 0 0 1 2.053 -0.591" fill="none" stroke="#6b7280" stroke-width="0.12" opacity="0.8"/><path d="M 2.022 -0.542 A 0.100 0.100 0 0 1 1.846 -0.473" fill="none" stroke="#6b7280" stroke-width="0.12" opacity="0.8"/><path d="M 2.053 0.591 A 0.050 0.050 0 0 1 2.022 0.542" fill="none" stroke="#6b7280" stroke-width="0.12" opacity="0.8"/><path d="M 2.570 -0.796 A 0.050 0.050 0 0 1 2.629 -0.779" fill="none" stroke="#6b7280" stroke-width="0.12" opacity="0.8"/><path d="M 2.629 0.779 A 0.150 0.150 0 0 1 2.713 0.722" fill="none" stroke="#6b7280" stroke-width="0.12" opacity="0.8"/><path d="M 2.629 0.779 A 0.050 0.050 0 0 1 2.570 0.796" fill="none" stroke="#6b7280" stroke-width="0.12" opacity="0.8"/><path d="M 2.710 0.196 A 0.200 0.200 0 0 1 2.710 -0.196" fill="none" stroke="#6b7280" stroke-width="0.12" opacity="0.8"/><path d="M 2.710 0.196 A 0.050 0.050 0 0 1 2.750 0.245" fill="none" stroke="#6b7280" stroke-width="0.12" opacity="0.8"/><path d="M 2.713 -0.722 A 0.150 0.150 0 0 1 2.629 -0.779" fill="none" stroke="#6b7280" stroke-width="0.12" opacity="0.8"/><path d="M 2.713 -0.722 A 0.050 0.050 0 0 1 2.750 -0.673" fill="none" stroke="#6b7280" stroke-width="0.12" opacity="0.8"/><path d="M 2.750 -0.245 A 0.050 0.050 0 0 1 2.710 -0.196" fill="none" stroke="#6b7280" stroke-width="0.12" opacity="0.8"/><path d="M 2.750 0.673 A 0.050 0.050 0 0 1 2.713 0.722" fill="none" stroke="#6b7280" stroke-width="0.12" opacity="0.8"/><circle cx="0.000" cy="0.000" r="1.000" fill="none" stroke="#6b7280" stroke-width="0.12" opacity="0.8"/><circle cx="0.000" cy="0.000" r="0.500" fill="none" stroke="#6b7280" stroke-width="0.1"/><rect x="-2.850" y="0.921" width="0.000" height="0.000" rx="0.000" fill="#c79b5c"/><rect x="-2.850" y="-0.791" width="0.723" height="1.586" rx="0.000" fill="#c79b5c"/><rect x="-2.127" y="-0.525" width="0.527" height="1.051" rx="0.000" fill="#c79b5c"/><rect x="1.499" y="0.560" width="0.000" height="0.000" rx="0.000" fill="#c79b5c"/><rect x="1.600" y="-0.525" width="0.527" height="1.051" rx="0.000" fill="#c79b5c"/><rect x="2.128" y="-0.791" width="0.723" height="1.586" rx="0.000" fill="#c79b5c"/></svg>