<svg xmlns="http://www.w3.org/2000/svg" viewBox="-60.30 -32.95 120.60 65.90" preserveAspectRatio="xMidYMid meet" style="width:100%;height:100%"><rect x="-60.30" y="-32.95" width="120.60" height="65.90" fill="#12151c"/><line x1="-58.500" y1="-19.500" x2="-46.500" y2="-19.500" stroke="#e6e9ef" stroke-width="0.200" stroke-linecap="round" opacity="1"/><line x1="-58.500" y1="-18.150" x2="-58.500" y2="-19.500" stroke="#e6e9ef" stroke-width="0.200" stroke-linecap="round" opacity="1"/><line x1="-58.500" y1="-2.800" x2="-58.500" y2="-3.850" stroke="#e6e9ef" stroke-width="0.200" stroke-linecap="round" opacity="1"/><line x1="-58.500" y1="-2.800" x2="-46.500" y2="-2.800" stroke="#e6e9ef" stroke-width="0.200" stroke-linecap="round" opacity="1"/><line x1="-58.500" y1="2.800" x2="-46.500" y2="2.800" stroke="#e6e9ef" stroke-width="0.200" stroke-linecap="round" opacity="1"/><line x1="-58.500" y1="3.850" x2="-58.500" y2="2.800" stroke="#e6e9ef" stroke-width="0.200" stroke-linecap="round" opacity="1"/><line x1="-58.500" y1="19.500" x2="-58.500" y2="18.150" stroke="#e6e9ef" stroke-width="0.200" stroke-linecap="round" opacity="1"/><line x1="-58.500" y1="19.500" x2="-46.500" y2="19.500" stroke="#e6e9ef" stroke-width="0.200" stroke-linecap="round" opacity="1"/><line x1="-53.500" y1="-18.150" x2="-53.500" y2="-19.500" stroke="#e6e9ef" stroke-width="0.200" stroke-linecap="round" opacity="1"/><line x1="-53.500" y1="-2.800" x2="-53.500" y2="-3.850" stroke="#e6e9ef" stroke-width="0.200" stroke-linecap="round" opacity="1"/><line x1="-53.500" y1="3.850" x2="-53.500" y2="2.800" stroke="#e6e9ef" stroke-width="0.200" stroke-linecap="round" opacity="1"/><line x1="-53.500" y1="19.500" x2="-53.500" y2="18.150" stroke="#e6e9ef" stroke-width="0.200" stroke-linecap="round" opacity="1"/><line x1="-46.500" y1="-18.150" x2="-46.500" y2="-25.000" stroke="#e6e9ef" stroke-width="0.200" stroke-linecap="round" opacity="1"/><line x1="-46.500" y1="3.850" x2="-46.500" y2="-3.850" stroke="#e6e9ef" stroke-width="0.200" stroke-linecap="round" opacity="1"/><line x1="-46.500" y1="25.000" x2="-46.500" y2="18.150" stroke="#e6e9ef" stroke-width="0.200" stroke-linecap="round" opacity="1"/><line x1="-44.450" y1="-24.800" x2="-43.996" y2="-24.800" stroke="#e6e9ef" stroke-width="0.200" stroke-linecap="round" opacity="1"/><line x1="-44.450" y1="-18.150" x2="-44.450" y2="-24.800" stroke="#e6e9ef" stroke-width="0.200" stroke-linecap="round" opacity="1"/><line x1="-44.450" y1="3.850" x2="-44.450" y2="-3.850" stroke="#e6e9ef" stroke-width="0.200" stroke-linecap="round" opacity="1"/><line x1="-44.450" y1="24.800" x2="-44.450" y2="18.150" stroke="#e6e9ef" stroke-width="0.200" stroke-linecap="round" opacity="1"/><line x1="-44.450" y1="24.800" x2="-43.996" y2="24.800" stroke="#e6e9ef" stroke-width="0.200" stroke-linecap="round" opacity="1"/><line x1="-40.972" y1="-31.700" x2="-36.680" y2="-31.700" stroke="#e6e9ef" stroke-width="0.200" stroke-linecap="round" opacity="1"/><line x1="-40.972" y1="31.700" x2="-36.680" y2="31.700" stroke="#e6e9ef" stroke-width="0.200" stroke-linecap="round" opacity="1"/><line x1="-28.710" y1="-24.800" x2="28.710" y2="-24.800" stroke="#e6e9ef" stroke-width="0.200" stroke-linecap="round" opacity="1"/><line x1="-28.710" y1="24.800" x2="28.710" y2="24.800" stroke="#e6e9ef" stroke-width="0.200" stroke-linecap="round" opacity="1"/><line x1="-25.500" y1="-26.700" x2="25.500" y2="-26.700" stroke="#e6e9ef" stroke-width="0.200" stroke-linecap="round" opacity="1"/><line x1="-25.500" y1="26.700" x2="25.500" y2="26.700" stroke="#e6e9ef" stroke-width="0.200" stroke-linecap="round" opacity="1"/><line x1="36.680" y1="-31.700" x2="40.972" y2="-31.700" stroke="#e6e9ef" stroke-width="0.200" stroke-linecap="round" opacity="1"/><line x1="36.680" y1="31.700" x2="40.972" y2="31.700" stroke="#e6e9ef" stroke-width="0.200" stroke-linecap="round" opacity="1"/><line x1="43.996" y1="-24.800" x2="44.450" y2="-24.800" stroke="#e6e9ef" stroke-width="0.200" stroke-linecap="round" opacity="1"/><line x1="43.996" y1="24.800" x2="44.450" y2="24.800" stroke="#e6e9ef" stroke-width="0.200" stroke-linecap="round" opacity="1"/><line x1="44.450" y1="-18.150" x2="44.450" y2="-24.800" stroke="#e6e9ef" stroke-width="0.200" stroke-linecap="round" opacity="1"/><line x1="44.450" y1="3.850" x2="44.450" y2="-3.850" stroke="#e6e9ef" stroke-width="0.200" stroke-linecap="round" opacity="1"/><line x1="44.450" y1="24.800" x2="44.450" y2="18.150" stroke="#e6e9ef" stroke-width="0.200" stroke-linecap="round" opacity="1"/><line x1="46.500" y1="-2.800" x2="58.500" y2="-2.800" stroke="#e6e9ef" stroke-width="0.200" stroke-linecap="round" opacity="1"/><line x1="46.500" y1="2.800" x2="58.500" y2="2.800" stroke="#e6e9ef" stroke-width="0.200" stroke-linecap="round" opacity="1"/><line x1="46.500" y1="-19.500" x2="58.500" y2="-19.500" stroke="#e6e9ef" stroke-width="0.200" stroke-linecap="round" opacity="1"/><line x1="46.500" y1="-18.150" x2="46.500" y2="-25.000" stroke="#e6e9ef" stroke-width="0.200" stroke-linecap="round" opacity="1"/><line x1="46.500" y1="3.850" x2="46.500" y2="-3.850" stroke="#e6e9ef" stroke-width="0.200" stroke-linecap="round" opacity="1"/><line x1="46.500" y1="19.500" x2="58.500" y2="19.500" stroke="#e6e9ef" stroke-width="0.200" stroke-linecap="round" opacity="1"/><line x1="46.500" y1="25.000" x2="46.500" y2="18.150" stroke="#e6e9ef" stroke-width="0.200" stroke-linecap="round" opacity="1"/><line x1="53.500" y1="-18.150" x2="53.500" y2="-19.500" stroke="#e6e9ef" stroke-width="0.200" stroke-linecap="round" opacity="1"/><line x1="53.500" y1="-2.800" x2="53.500" y2="-3.850" stroke="#e6e9ef" stroke-width="0.200" stroke-linecap="round" opacity="1"/><line x1="53.500" y1="3.850" x2="53.500" y2="2.800" stroke="#e6e9ef" stroke-width="0.200" stroke-linecap="round" opacity="1"/><line x1="53.500" y1="19.500" x2="53.500" y2="18.150" stroke="#e6e9ef" stroke-width="0.200" stroke-linecap="round" opacity="1"/><line x1="58.500" y1="-18.150" x2="58.500" y2="-19.500" stroke="#e6e9ef" stroke-width="0.200" stroke-linecap="round" opacity="1"/><line x1="58.500" y1="-2.800" x2="58.500" y2="-3.850" stroke="#e6e9ef" stroke-width="0.200" stroke-linecap="round" opacity="1"/><line x1="58.500" y1="3.850" x2="58.500" y2="2.800" stroke="#e6e9ef" stroke-width="0.200" stroke-linecap="round" opacity="1"/><line x1="58.500" y1="19.500" x2="58.500" y2="18.150" stroke="#e6e9ef" stroke-width="0.200" stroke-linecap="round" opacity="1"/><line x1="-59.050" y1="-17.750" x2="-49.050" y2="-11.000" stroke="#4a5160" stroke-width="0.100" stroke-linecap="round" opacity="0.7"/><line x1="-59.050" y1="-17.750" x2="-39.050" y2="-17.750" stroke="#4a5160" stroke-width="0.100" stroke-linecap="round" opacity="0.7"/><line x1="-59.050" y1="-4.250" x2="-59.050" y2="-17.750" stroke="#4a5160" stroke-width="0.100" stroke-linecap="round" opacity="0.7"/><line x1="-59.050" y1="-4.250" x2="-49.050" y2="-11.000" stroke="#4a5160" stroke-width="0.100" stroke-linecap="round" opacity="0.7"/><line x1="-59.050" y1="-4.250" x2="-39.050" y2="-4.250" stroke="#4a5160" stroke-width="0.100" stroke-linecap="round" opacity="0.7"/><line x1="-59.050" y1="4.250" x2="-49.050" y2="11.000" stroke="#4a5160" stroke-width="0.100" stroke-linecap="round" opacity="0.7"/><line x1="-59.050" y1="4.250" x2="-39.050" y2="4.250" stroke="#4a5160" stroke-width="0.100" stroke-linecap="round" opacity="0.7"/><line x1="-59.050" y1="17.750" x2="-59.050" y2="4.250" stroke="#4a5160" stroke-width="0.100" stroke-linecap="round" opacity="0.7"/><line x1="-59.050" y1="17.750" x2="-49.050" y2="11.000" stroke="#4a5160" stroke-width="0.100" stroke-linecap="round" opacity="0.7"/><line x1="-59.050" y1="17.750" x2="-39.050" y2="17.750" stroke="#4a5160" stroke-width="0.100" stroke-linecap="round" opacity="0.7"/><line x1="-52.500" y1="-11.000" x2="-52.000" y2="-11.000" stroke="#4a5160" stroke-width="0.100" stroke-linecap="round" opacity="0.7"/><line x1="-52.500" y1="11.000" x2="-52.000" y2="11.000" stroke="#4a5160" stroke-width="0.100" stroke-linecap="round" opacity="0.7"/><line x1="-52.000" y1="-11.000" x2="-52.000" y2="-11.500" stroke="#4a5160" stroke-width="0.100" stroke-linecap="round" opacity="0.7"/><line x1="-52.000" y1="-11.000" x2="-51.500" y2="-11.000" stroke="#4a5160" stroke-width="0.100" stroke-linecap="round" opacity="0.7"/><line x1="-52.000" y1="-10.500" x2="-52.000" y2="-11.000" stroke="#4a5160" stroke-width="0.100" stroke-linecap="round" opacity="0.7"/><line x1="-52.000" y1="11.000" x2="-52.000" y2="10.500" stroke="#4a5160" stroke-width="0.100" stroke-linecap="round" opacity="0.7"/><line x1="-52.000" y1="11.000" x2="-51.500" y2="11.000" stroke="#4a5160" stroke-width="0.100" stroke-linecap="round" opacity="0.7"/><line x1="-52.000" y1="11.500" x2="-52.000" y2="11.000" stroke="#4a5160" stroke-width="0.100" stroke-linecap="round" opacity="0.7"/><line x1="-39.050" y1="-4.250" x2="-39.050" y2="-17.750" stroke="#4a5160" stroke-width="0.100" stroke-linecap="round" opacity="0.7"/><line x1="-39.050" y1="17.750" x2="-39.050" y2="4.250" stroke="#4a5160" stroke-width="0.100" stroke-linecap="round" opacity="0.7"/><line x1="-39.000" y1="-25.000" x2="-38.500" y2="-25.000" stroke="#4a5160" stroke-width="0.100" stroke-linecap="round" opacity="0.7"/><line x1="-39.000" y1="25.000" x2="-38.500" y2="25.000" stroke="#4a5160" stroke-width="0.100" stroke-linecap="round" opacity="0.7"/><line x1="-38.500" y1="-25.000" x2="-38.500" y2="-25.500" stroke="#4a5160" stroke-width="0.100" stroke-linecap="round" opacity="0.7"/><line x1="-38.500" y1="-25.000" x2="-38.000" y2="-25.000" stroke="#4a5160" stroke-width="0.100" stroke-linecap="round" opacity="0.7"/><line x1="-38.500" y1="-24.500" x2="-38.500" y2="-25.000" stroke="#4a5160" stroke-width="0.100" stroke-linecap="round" opacity="0.7"/><line x1="-38.500" y1="25.000" x2="-38.500" y2="24.500" stroke="#4a5160" stroke-width="0.100" stroke-linecap="round" opacity="0.7"/><line x1="-38.500" y1="25.000" x2="-38.000" y2="25.000" stroke="#4a5160" stroke-width="0.100" stroke-linecap="round" opacity="0.7"/><line x1="-38.500" y1="25.500" x2="-38.500" y2="25.000" stroke="#4a5160" stroke-width="0.100" stroke-linecap="round" opacity="0.7"/><line x1="-31.250" y1="-25.000" x2="-30.750" y2="-25.000" stroke="#4a5160" stroke-width="0.100" stroke-linecap="round" opacity="0.7"/><line x1="-31.250" y1="10.000" x2="-30.750" y2="10.000" stroke="#4a5160" stroke-width="0.100" stroke-linecap="round" opacity="0.7"/><line x1="-31.250" y1="25.000" x2="-30.750" y2="25.000" stroke="#4a5160" stroke-width="0.100" stroke-linecap="round" opacity="0.7"/><line x1="-30.750" y1="-25.000" x2="-30.750" y2="-25.500" stroke="#4a5160" stroke-width="0.100" stroke-linecap="round" opacity="0.7"/><line x1="-30.750" y1="-25.000" x2="-30.250" y2="-25.000" stroke="#4a5160" stroke-width="0.100" stroke-linecap="round" opacity="0.7"/><line x1="-30.750" y1="-24.500" x2="-30.750" y2="-25.000" stroke="#4a5160" stroke-width="0.100" stroke-linecap="round" opacity="0.7"/><line x1="-30.750" y1="10.000" x2="-30.750" y2="9.500" stroke="#4a5160" stroke-width="0.100" stroke-linecap="round" opacity="0.7"/><line x1="-30.750" y1="10.000" x2="-30.250" y2="10.000" stroke="#4a5160" stroke-width="0.100" stroke-linecap="round" opacity="0.7"/><line x1="-30.750" y1="10.000" x2="30.750" y2="10.000" stroke="#4a5160" stroke-width="0.100" stroke-linecap="round" opacity="0.7"/><line x1="-30.750" y1="10.500" x2="-30.750" y2="10.000" stroke="#4a5160" stroke-width="0.100" stroke-linecap="round" opacity="0.7"/><line x1="-30.750" y1="25.000" x2="-30.750" y2="24.500" stroke="#4a5160" stroke-width="0.100" stroke-linecap="round" opacity="0.7"/><line x1="-30.750" y1="25.000" x2="-30.250" y2="25.000" stroke="#4a5160" stroke-width="0.100" stroke-linecap="round" opacity="0.7"/><line x1="-30.750" y1="25.500" x2="-30.750" y2="25.000" stroke="#4a5160" stroke-width="0.100" stroke-linecap="round" opacity="0.7"/><line x1="-29.600" y1="0.300" x2="-29.100" y2="0.300" stroke="#4a5160" stroke-width="0.100" stroke-linecap="round" opacity="0.7"/><line x1="-29.100" y1="0.300" x2="-29.100" y2="-0.200" stroke="#4a5160" stroke-width="0.100" stroke-linecap="round" opacity="0.7"/><line x1="-29.100" y1="0.300" x2="-28.600" y2="0.300" stroke="#4a5160" stroke-width="0.100" stroke-linecap="round" opacity="0.7"/><line x1="-29.100" y1="0.800" x2="-29.100" y2="0.300" stroke="#4a5160" stroke-width="0.100" stroke-linecap="round" opacity="0.7"/><line x1="-29.100" y1="10.000" x2="-29.100" y2="0.300" stroke="#4a5160" stroke-width="0.100" stroke-linecap="round" opacity="0.7"/><line x1="-22.600" y1="-16.700" x2="-22.100" y2="-16.700" stroke="#4a5160" stroke-width="0.100" stroke-linecap="round" opacity="0.7"/><line x1="-22.100" y1="-16.700" x2="-22.100" y2="-17.200" stroke="#4a5160" stroke-width="0.100" stroke-linecap="round" opacity="0.7"/><line x1="-22.100" y1="-16.700" x2="-21.600" y2="-16.700" stroke="#4a5160" stroke-width="0.100" stroke-linecap="round" opacity="0.7"/><line x1="-22.100" y1="-16.200" x2="-22.100" y2="-16.700" stroke="#4a5160" stroke-width="0.100" stroke-linecap="round" opacity="0.7"/><line x1="-22.100" y1="10.000" x2="-22.100" y2="-16.700" stroke="#4a5160" stroke-width="0.100" stroke-linecap="round" opacity="0.7"/><line x1="-20.350" y1="-22.450" x2="-19.850" y2="-22.450" stroke="#4a5160" stroke-width="0.100" stroke-linecap="round" opacity="0.7"/><line x1="-19.850" y1="-22.450" x2="-19.850" y2="-22.950" stroke="#4a5160" stroke-width="0.100" stroke-linecap="round" opacity="0.7"/><line x1="-19.850" y1="-22.450" x2="-19.350" y2="-22.450" stroke="#4a5160" stroke-width="0.100" stroke-linecap="round" opacity="0.7"/><line x1="-19.850" y1="-21.950" x2="-19.850" y2="-22.450" stroke="#4a5160" stroke-width="0.100" stroke-linecap="round" opacity="0.7"/><line x1="-19.850" y1="10.000" x2="-19.850" y2="-22.450" stroke="#4a5160" stroke-width="0.100" stroke-linecap="round" opacity="0.7"/><line x1="-18.100" y1="-16.700" x2="-17.600" y2="-16.700" stroke="#4a5160" stroke-width="0.100" stroke-linecap="round" opacity="0.7"/><line x1="-17.600" y1="-16.700" x2="-17.600" y2="-17.200" stroke="#4a5160" stroke-width="0.100" stroke-linecap="round" opacity="0.7"/><line x1="-17.600" y1="-16.700" x2="-17.100" y2="-16.700" stroke="#4a5160" stroke-width="0.100" stroke-linecap="round" opacity="0.7"/><line x1="-17.600" y1="-16.200" x2="-17.600" y2="-16.700" stroke="#4a5160" stroke-width="0.100" stroke-linecap="round" opacity="0.7"/><line x1="-17.600" y1="10.000" x2="-17.600" y2="-16.700" stroke="#4a5160" stroke-width="0.100" stroke-linecap="round" opacity="0.7"/><line x1="-0.500" y1="0.000" x2="0.000" y2="0.000" stroke="#4a5160" stroke-width="0.100" stroke-linecap="round" opacity="0.7"/><line x1="0.000" y1="0.000" x2="0.000" y2="-0.500" stroke="#4a5160" stroke-width="0.100" stroke-linecap="round" opacity="0.7"/><line x1="0.000" y1="0.000" x2="0.500" y2="0.000" stroke="#4a5160" stroke-width="0.100" stroke-linecap="round" opacity="0.7"/><line x1="0.000" y1="0.500" x2="0.000" y2="0.000" stroke="#4a5160" stroke-width="0.100" stroke-linecap="round" opacity="0.7"/><line x1="0.000" y1="10.000" x2="0.000" y2="0.000" stroke="#4a5160" stroke-width="0.100" stroke-linecap="round" opacity="0.7"/><line x1="20.950" y1="-16.700" x2="21.450" y2="-16.700" stroke="#4a5160" stroke-width="0.100" stroke-linecap="round" opacity="0.7"/><line x1="21.450" y1="-16.700" x2="21.450" y2="-17.200" stroke="#4a5160" stroke-width="0.100" stroke-linecap="round" opacity="0.7"/><line x1="21.450" y1="-16.700" x2="21.950" y2="-16.700" stroke="#4a5160" stroke-width="0.100" stroke-linecap="round" opacity="0.7"/><line x1="21.450" y1="-16.200" x2="21.450" y2="-16.700" stroke="#4a5160" stroke-width="0.100" stroke-linecap="round" opacity="0.7"/><line x1="21.450" y1="10.000" x2="21.450" y2="-16.700" stroke="#4a5160" stroke-width="0.100" stroke-linecap="round" opacity="0.7"/><line x1="23.200" y1="-22.450" x2="23.700" y2="-22.450" stroke="#4a5160" stroke-width="0.100" stroke-linecap="round" opacity="0.7"/><line x1="23.700" y1="-22.450" x2="23.700" y2="-22.950" stroke="#4a5160" stroke-width="0.100" stroke-linecap="round" opacity="0.7"/><line x1="23.700" y1="-22.450" x2="24.200" y2="-22.450" stroke="#4a5160" stroke-width="0.100" stroke-linecap="round" opacity="0.7"/><line x1="23.700" y1="-21.950" x2="23.700" y2="-22.450" stroke="#4a5160" stroke-width="0.100" stroke-linecap="round" opacity="0.7"/><line x1="23.700" y1="10.000" x2="23.700" y2="-22.450" stroke="#4a5160" stroke-width="0.100" stroke-linecap="round" opacity="0.7"/><line x1="25.450" y1="-16.700" x2="25.950" y2="-16.700" stroke="#4a5160" stroke-width="0.100" stroke-linecap="round" opacity="0.7"/><line x1="25.950" y1="-16.700" x2="25.950" y2="-17.200" stroke="#4a5160" stroke-width="0.100" stroke-linecap="round" opacity="0.7"/><line x1="25.950" y1="-16.700" x2="26.450" y2="-16.700" stroke="#4a5160" stroke-width="0.100" stroke-linecap="round" opacity="0.7"/><line x1="25.950" y1="-16.200" x2="25.950" y2="-16.700" stroke="#4a5160" stroke-width="0.100" stroke-linecap="round" opacity="0.7"/><line x1="25.950" y1="10.000" x2="25.950" y2="-16.700" stroke="#4a5160" stroke-width="0.100" stroke-linecap="round" opacity="0.7"/><line x1="30.250" y1="-25.000" x2="30.750" y2="-25.000" stroke="#4a5160" stroke-width="0.100" stroke-linecap="round" opacity="0.7"/><line x1="30.250" y1="0.000" x2="30.750" y2="0.000" stroke="#4a5160" stroke-width="0.100" stroke-linecap="round" opacity="0.7"/><line x1="30.250" y1="25.000" x2="30.750" y2="25.000" stroke="#4a5160" stroke-width="0.100" stroke-linecap="round" opacity="0.7"/><line x1="30.750" y1="-25.000" x2="30.750" y2="-25.500" stroke="#4a5160" stroke-width="0.100" stroke-linecap="round" opacity="0.7"/><line x1="30.750" y1="-25.000" x2="31.250" y2="-25.000" stroke="#4a5160" stroke-width="0.100" stroke-linecap="round" opacity="0.7"/><line x1="30.750" y1="-24.500" x2="30.750" y2="-25.000" stroke="#4a5160" stroke-width="0.100" stroke-linecap="round" opacity="0.7"/><line x1="30.750" y1="0.000" x2="30.750" y2="-0.500" stroke="#4a5160" stroke-width="0.100" stroke-linecap="round" opacity="0.7"/><line x1="30.750" y1="0.000" x2="31.250" y2="0.000" stroke="#4a5160" stroke-width="0.100" stroke-linecap="round" opacity="0.7"/><line x1="30.750" y1="0.500" x2="30.750" y2="0.000" stroke="#4a5160" stroke-width="0.100" stroke-linecap="round" opacity="0.7"/><line x1="30.750" y1="10.000" x2="30.750" y2="0.000" stroke="#4a5160" stroke-width="0.100" stroke-linecap="round" opacity="0.7"/><line x1="30.750" y1="25.000" x2="30.750" y2="24.500" stroke="#4a5160" stroke-width="0.100" stroke-linecap="round" opacity="0.7"/><line x1="30.750" y1="25.000" x2="31.250" y2="25.000" stroke="#4a5160" stroke-width="0.100" stroke-linecap="round" opacity="0.7"/><line x1="30.750" y1="25.500" x2="30.750" y2="25.000" stroke="#4a5160" stroke-width="0.100" stroke-linecap="round" opacity="0.7"/><line x1="38.000" y1="-25.000" x2="38.500" y2="-25.000" stroke="#4a5160" stroke-width="0.100" stroke-linecap="round" opacity="0.7"/><line x1="38.000" y1="25.000" x2="38.500" y2="25.000" stroke="#4a5160" stroke-width="0.100" stroke-linecap="round" opacity="0.7"/><line x1="38.500" y1="-25.000" x2="38.500" y2="-25.500" stroke="#4a5160" stroke-width="0.100" stroke-linecap="round" opacity="0.7"/><line x1="38.500" y1="-25.000" x2="39.000" y2="-25.000" stroke="#4a5160" stroke-width="0.100" stroke-linecap="round" opacity="0.7"/><line x1="38.500" y1="-24.500" x2="38.500" y2="-25.000" stroke="#4a5160" stroke-width="0.100" stroke-linecap="round" opacity="0.7"/><line x1="38.500" y1="25.000" x2="38.500" y2="24.500" stroke="#4a5160" stroke-width="0.100" stroke-linecap="round" opacity="0.7"/><line x1="38.500" y1="25.000" x2="39.000" y2="25.000" stroke="#4a5160" stroke-width="0.100" stroke-linecap="round" opacity="0.7"/><line x1="38.500" y1="25.500" x2="38.500" y2="25.000" stroke="#4a5160" stroke-width="0.100" stroke-linecap="round" opacity="0.7"/><line x1="39.050" y1="-17.750" x2="59.050" y2="-17.750" stroke="#4a5160" stroke-width="0.100" stroke-linecap="round" opacity="0.7"/><line x1="39.050" y1="-4.250" x2="39.050" y2="-17.750" stroke="#4a5160" stroke-width="0.100" stroke-linecap="round" opacity="0.7"/><line x1="39.050" y1="-4.250" x2="59.050" y2="-4.250" stroke="#4a5160" stroke-width="0.100" stroke-linecap="round" opacity="0.7"/><line x1="39.050" y1="4.250" x2="59.050" y2="4.250" stroke="#4a5160" stroke-width="0.100" stroke-linecap="round" opacity="0.7"/><line x1="39.050" y1="17.750" x2="39.050" y2="4.250" stroke="#4a5160" stroke-width="0.100" stroke-linecap="round" opacity="0.7"/><line x1="39.050" y1="17.750" x2="59.050" y2="17.750" stroke="#4a5160" stroke-width="0.100" stroke-linecap="round" opacity="0.7"/><line x1="49.050" y1="-11.000" x2="59.050" y2="-17.750" stroke="#4a5160" stroke-width="0.100" stroke-linecap="round" opacity="0.7"/><line x1="49.050" y1="-11.000" x2="59.050" y2="-4.250" stroke="#4a5160" stroke-width="0.100" stroke-linecap="round" opacity="0.7"/><line x1="49.050" y1="11.000" x2="59.050" y2="4.250" stroke="#4a5160" stroke-width="0.100" stroke-linecap="round" opacity="0.7"/><line x1="49.050" y1="11.000" x2="59.050" y2="17.750" stroke="#4a5160" stroke-width="0.100" stroke-linecap="round" opacity="0.7"/><line x1="51.500" y1="-11.000" x2="52.000" y2="-11.000" stroke="#4a5160" stroke-width="0.100" stroke-linecap="round" opacity="0.7"/><line x1="51.500" y1="11.000" x2="52.000" y2="11.000" stroke="#4a5160" stroke-width="0.100" stroke-linecap="round" opacity="0.7"/><line x1="52.000" y1="-11.000" x2="52.000" y2="-11.500" stroke="#4a5160" stroke-width="0.100" stroke-linecap="round" opacity="0.7"/><line x1="52.000" y1="-11.000" x2="52.500" y2="-11.000" stroke="#4a5160" stroke-width="0.100" stroke-linecap="round" opacity="0.7"/><line x1="52.000" y1="-10.500" x2="52.000" y2="-11.000" stroke="#4a5160" stroke-width="0.100" stroke-linecap="round" opacity="0.7"/><line x1="52.000" y1="11.000" x2="52.000" y2="10.500" stroke="#4a5160" stroke-width="0.100" stroke-linecap="round" opacity="0.7"/><line x1="52.000" y1="11.000" x2="52.500" y2="11.000" stroke="#4a5160" stroke-width="0.100" stroke-linecap="round" opacity="0.7"/><line x1="52.000" y1="11.500" x2="52.000" y2="11.000" stroke="#4a5160" stroke-width="0.100" stroke-linecap="round" opacity="0.7"/><line x1="59.050" y1="-4.250" x2="59.050" y2="-17.750" stroke="#4a5160" stroke-width="0.100" stroke-linecap="round" opacity="0.7"/><line x1="59.050" y1="17.750" x2="59.050" y2="4.250" stroke="#4a5160" stroke-width="0.100" stroke-linecap="round" opacity="0.7"/><line x1="-58.500" y1="-19.500" x2="-46.500" y2="-19.500" stroke="#6b7280" stroke-width="0.100" stroke-linecap="round" opacity="0.8"/><line x1="-58.500" y1="-2.800" x2="-58.500" y2="-19.500" stroke="#6b7280" stroke-width="0.100" stroke-linecap="round" opacity="0.8"/><line x1="-58.500" y1="-2.800" x2="-46.500" y2="-2.800" stroke="#6b7280" stroke-width="0.100" stroke-linecap="round" opacity="0.8"/><line x1="-58.500" y1="2.800" x2="-46.500" y2="2.800" stroke="#6b7280" stroke-width="0.100" stroke-linecap="round" opacity="0.8"/><line x1="-58.500" y1="19.500" x2="-58.500" y2="2.800" stroke="#6b7280" stroke-width="0.100" stroke-linecap="round" opacity="0.8"/><line x1="-58.500" y1="19.500" x2="-46.500" y2="19.500" stroke="#6b7280" stroke-width="0.100" stroke-linecap="round" opacity="0.8"/><line x1="-58.050" y1="-16.750" x2="-40.050" y2="-16.750" stroke="#6b7280" stroke-width="0.100" stroke-linecap="round" opacity="0.8"/><line x1="-58.050" y1="-5.250" x2="-58.050" y2="-16.750" stroke="#6b7280" stroke-width="0.100" stroke-linecap="round" opacity="0.8"/><line x1="-58.050" y1="-5.250" x2="-40.050" y2="-5.250" stroke="#6b7280" stroke-width="0.100" stroke-linecap="round" opacity="0.8"/><line x1="-58.050" y1="5.250" x2="-40.050" y2="5.250" stroke="#6b7280" stroke-width="0.100" stroke-linecap="round" opacity="0.8"/><line x1="-58.050" y1="16.750" x2="-58.050" y2="5.250" stroke="#6b7280" stroke-width="0.100" stroke-linecap="round" opacity="0.8"/><line x1="-58.050" y1="16.750" x2="-40.050" y2="16.750" stroke="#6b7280" stroke-width="0.100" stroke-linecap="round" opacity="0.8"/><line x1="-53.500" y1="-2.800" x2="-53.500" y2="-19.500" stroke="#6b7280" stroke-width="0.100" stroke-linecap="round" opacity="0.8"/><line x1="-53.500" y1="19.500" x2="-53.500" y2="2.800" stroke="#6b7280" stroke-width="0.100" stroke-linecap="round" opacity="0.8"/><line x1="-46.500" y1="25.000" x2="-46.500" y2="-25.000" stroke="#6b7280" stroke-width="0.100" stroke-linecap="round" opacity="0.8"/><line x1="-44.450" y1="-24.800" x2="-41.994" y2="-24.800" stroke="#6b7280" stroke-width="0.100" stroke-linecap="round" opacity="0.8"/><line x1="-44.450" y1="24.800" x2="-44.450" y2="-24.800" stroke="#6b7280" stroke-width="0.100" stroke-linecap="round" opacity="0.8"/><line x1="-44.450" y1="24.800" x2="-41.994" y2="24.800" stroke="#6b7280" stroke-width="0.100" stroke-linecap="round" opacity="0.8"/><line x1="-40.972" y1="-31.700" x2="-36.680" y2="-31.700" stroke="#6b7280" stroke-width="0.100" stroke-linecap="round" opacity="0.8"/><line x1="-40.972" y1="31.700" x2="-36.680" y2="31.700" stroke="#6b7280" stroke-width="0.100" stroke-linecap="round" opacity="0.8"/><line x1="-40.050" y1="-5.250" x2="-40.050" y2="-16.750" stroke="#6b7280" stroke-width="0.100" stroke-linecap="round" opacity="0.8"/><line x1="-40.050" y1="16.750" x2="-40.050" y2="5.250" stroke="#6b7280" stroke-width="0.100" stroke-linecap="round" opacity="0.8"/><line x1="-35.006" y1="-24.800" x2="35.006" y2="-24.800" stroke="#6b7280" stroke-width="0.100" stroke-linecap="round" opacity="0.8"/><line x1="-35.006" y1="24.800" x2="35.006" y2="24.800" stroke="#6b7280" stroke-width="0.100" stroke-linecap="round" opacity="0.8"/><line x1="-25.500" y1="-26.700" x2="25.500" y2="-26.700" stroke="#6b7280" stroke-width="0.100" stroke-linecap="round" opacity="0.8"/><line x1="-25.500" y1="26.700" x2="25.500" y2="26.700" stroke="#6b7280" stroke-width="0.100" stroke-linecap="round" opacity="0.8"/><line x1="36.680" y1="-31.700" x2="40.972" y2="-31.700" stroke="#6b7280" stroke-width="0.100" stroke-linecap="round" opacity="0.8"/><line x1="36.680" y1="31.700" x2="40.972" y2="31.700" stroke="#6b7280" stroke-width="0.100" stroke-linecap="round" opacity="0.8"/><line x1="40.050" y1="-16.750" x2="58.050" y2="-16.750" stroke="#6b7280" stroke-width="0.100" stroke-linecap="round" opacity="0.8"/><line x1="40.050" y1="-5.250" x2="40.050" y2="-16.750" stroke="#6b7280" stroke-width="0.100" stroke-linecap="round" opacity="0.8"/><line x1="40.050" y1="-5.250" x2="58.050" y2="-5.250" stroke="#6b7280" stroke-width="0.100" stroke-linecap="round" opacity="0.8"/><line x1="40.050" y1="5.250" x2="58.050" y2="5.250" stroke="#6b7280" stroke-width="0.100" stroke-linecap="round" opacity="0.8"/><line x1="40.050" y1="16.750" x2="40.050" y2="5.250" stroke="#6b7280" stroke-width="0.100" stroke-linecap="round" opacity="0.8"/><line x1="40.050" y1="16.750" x2="58.050" y2="16.750" stroke="#6b7280" stroke-width="0.100" stroke-linecap="round" opacity="0.8"/><line x1="41.994" y1="-24.800" x2="44.450" y2="-24.800" stroke="#6b7280" stroke-width="0.100" stroke-linecap="round" opacity="0.8"/><line x1="41.994" y1="24.800" x2="44.450" y2="24.800" stroke="#6b7280" stroke-width="0.100" stroke-linecap="round" opacity="0.8"/><line x1="44.450" y1="24.800" x2="44.450" y2="-24.800" stroke="#6b7280" stroke-width="0.100" stroke-linecap="round" opacity="0.8"/><line x1="46.500" y1="-2.800" x2="58.500" y2="-2.800" stroke="#6b7280" stroke-width="0.100" stroke-linecap="round" opacity="0.8"/><line x1="46.500" y1="2.800" x2="58.500" y2="2.800" stroke="#6b7280" stroke-width="0.100" stroke-linecap="round" opacity="0.8"/><line x1="46.500" y1="-19.500" x2="58.500" y2="-19.500" stroke="#6b7280" stroke-width="0.100" stroke-linecap="round" opacity="0.8"/><line x1="46.500" y1="19.500" x2="58.500" y2="19.500" stroke="#6b7280" stroke-width="0.100" stroke-linecap="round" opacity="0.8"/><line x1="46.500" y1="25.000" x2="46.500" y2="-25.000" stroke="#6b7280" stroke-width="0.100" stroke-linecap="round" opacity="0.8"/><line x1="53.500" y1="-2.800" x2="53.500" y2="-19.500" stroke="#6b7280" stroke-width="0.100" stroke-linecap="round" opacity="0.8"/><line x1="53.500" y1="19.500" x2="53.500" y2="2.800" stroke="#6b7280" stroke-width="0.100" stroke-linecap="round" opacity="0.8"/><line x1="58.050" y1="-5.250" x2="58.050" y2="-16.750" stroke="#6b7280" stroke-width="0.100" stroke-linecap="round" opacity="0.8"/><line x1="58.050" y1="16.750" x2="58.050" y2="5.250" stroke="#6b7280" stroke-width="0.100" stroke-linecap="round" opacity="0.8"/><line x1="58.500" y1="-2.800" x2="58.500" y2="-19.500" stroke="#6b7280" stroke-width="0.100" stroke-linecap="round" opacity="0.8"/><line x1="58.500" y1="19.500" x2="58.500" y2="2.800" stroke="#6b7280" stroke-width="0.100" stroke-linecap="round" opacity="0.8"/><line x1="-59.300" y1="-31.950" x2="59.300" y2="-31.950" stroke="#d24d4d" stroke-width="0.080" stroke-linecap="round" opacity="0.7"/><line x1="59.300" y1="-31.950" x2="59.300" y2="31.950" stroke="#d24d4d" stroke-width="0.080" stroke-linecap="round" opacity="0.7"/><line x1="59.300" y1="31.950" x2="-59.300" y2="31.950" stroke="#d24d4d" stroke-width="0.080" stroke-linecap="round" opacity="0.7"/><line x1="-59.300" y1="31.950" x2="-59.300" y2="-31.950" stroke="#d24d4d" stroke-width="0.080" stroke-linecap="round" opacity="0.7"/><path d="M -46.500 -25.000 A 8.000 8.000 0 0 1 -45.092 -29.533" fill="none" stroke="#e6e9ef" stroke-width="0.12" opacity="1"/><path d="M -45.092 29.533 A 8.000 8.000 0 0 1 -46.500 25.000" fill="none" stroke="#e6e9ef" stroke-width="0.12" opacity="1"/><path d="M -45.092 -29.533 A 5.000 5.000 0 0 1 -40.972 -31.700" fill="none" stroke="#e6e9ef" stroke-width="0.12" opacity="1"/><path d="M -40.972 31.700 A 5.000 5.000 0 0 1 -45.092 29.533" fill="none" stroke="#e6e9ef" stroke-width="0.12" opacity="1"/><path d="M -36.680 -31.700 A 5.000 5.000 0 0 1 -32.954 -30.033" fill="none" stroke="#e6e9ef" stroke-width="0.12" opacity="1"/><path d="M -32.954 30.033 A 10.000 10.000 0 0 1 -25.500 26.700" fill="none" stroke="#e6e9ef" stroke-width="0.12" opacity="1"/><path d="M -32.954 30.033 A 5.000 5.000 0 0 1 -36.680 31.700" fill="none" stroke="#e6e9ef" stroke-width="0.12" opacity="1"/><path d="M -25.500 -26.700 A 10.000 10.000 0 0 1 -32.954 -30.033" fill="none" stroke="#e6e9ef" stroke-width="0.12" opacity="1"/><path d="M 25.500 26.700 A 10.000 10.000 0 0 1 32.954 30.033" fill="none" stroke="#e6e9ef" stroke-width="0.12" opacity="1"/><path d="M 32.954 -30.033 A 10.000 10.000 0 0 1 25.500 -26.700" fill="none" stroke="#e6e9ef" stroke-width="0.12" opacity="1"/><path d="M 32.954 -30.033 A 5.000 5.000 0 0 1 36.680 -31.700" fill="none" stroke="#e6e9ef" stroke-width="0.12" opacity="1"/><path d="M 36.680 31.700 A 5.000 5.000 0 0 1 32.954 30.033" fill="none" stroke="#e6e9ef" stroke-width="0.12" opacity="1"/><path d="M 40.972 -31.700 A 5.000 5.000 0 0 1 45.092 -29.533" fill="none" stroke="#e6e9ef" stroke-width="0.12" opacity="1"/><path d="M 45.092 29.533 A 5.000 5.000 0 0 1 40.972 31.700" fill="none" stroke="#e6e9ef" stroke-width="0.12" opacity="1"/><path d="M 45.092 -29.533 A 8.000 8.000 0 0 1 46.500 -25.000" fill="none" stroke="#e6e9ef" stroke-width="0.12" opacity="1"/><path d="M 46.500 25.000 A 8.000 8.000 0 0 1 45.092 29.533" fill="none" stroke="#e6e9ef" stroke-width="0.12" opacity="1"/><path d="M -46.500 -25.000 A 8.000 8.000 0 0 1 -45.092 -29.533" fill="none" stroke="#6b7280" stroke-width="0.12" opacity="0.8"/><path d="M -45.092 29.533 A 8.000 8.000 0 0 1 -46.500 25.000" fill="none" stroke="#6b7280" stroke-width="0.12" opacity="0.8"/><path d="M -45.092 -29.533 A 5.000 5.000 0 0 1 -40.972 -31.700" fill="none" stroke="#6b7280" stroke-width="0.12" opacity="0.8"/><path d="M -41.994 24.800 A 3.500 3.500 0 0 1 -35.006 24.800" fill="none" stroke="#6b7280" stroke-width="0.12" opacity="0.8"/><path d="M -40.972 31.700 A 5.000 5.000 0 0 1 -45.092 29.533" fill="none" stroke="#6b7280" stroke-width="0.12" opacity="0.8"/><path d="M -36.680 -31.700 A 5.000 5.000 0 0 1 -32.954 -30.033" fill="none" stroke="#6b7280" stroke-width="0.12" opacity="0.8"/><path d="M -35.006 -24.800 A 3.500 3.500 0 0 1 -41.994 -24.800" fill="none" stroke="#6b7280" stroke-width="0.12" opacity="0.8"/><path d="M -32.954 30.033 A 10.000 10.000 0 0 1 -25.500 26.700" fill="none" stroke="#6b7280" stroke-width="0.12" opacity="0.8"/><path d="M -32.954 30.033 A 5.000 5.000 0 0 1 -36.680 31.700" fill="none" stroke="#6b7280" stroke-width="0.12" opacity="0.8"/><path d="M -25.500 -26.700 A 10.000 10.000 0 0 1 -32.954 -30.033" fill="none" stroke="#6b7280" stroke-width="0.12" opacity="0.8"/><path d="M 25.500 26.700 A 10.000 10.000 0 0 1 32.954 30.033" fill="none" stroke="#6b7280" stroke-width="0.12" opacity="0.8"/><path d="M 32.954 -30.033 A 10.000 10.000 0 0 1 25.500 -26.700" fill="none" stroke="#6b7280" stroke-width="0.12" opacity="0.8"/><path d="M 32.954 -30.033 A 5.000 5.000 0 0 1 36.680 -31.700" fill="none" stroke="#6b7280" stroke-width="0.12" opacity="0.8"/><path d="M 35.006 24.800 A 3.500 3.500 0 0 1 41.994 24.800" fill="none" stroke="#6b7280" stroke-width="0.12" opacity="0.8"/><path d="M 36.680 31.700 A 5.000 5.000 0 0 1 32.954 30.033" fill="none" stroke="#6b7280" stroke-width="0.12" opacity="0.8"/><path d="M 40.972 -31.700 A 5.000 5.000 0 0 1 45.092 -29.533" fill="none" stroke="#6b7280" stroke-width="0.12" opacity="0.8"/><path d="M 41.994 -24.800 A 3.500 3.500 0 0 1 35.006 -24.800" fill="none" stroke="#6b7280" stroke-width="0.12" opacity="0.8"/><path d="M 45.092 29.533 A 5.000 5.000 0 0 1 40.972 31.700" fill="none" stroke="#6b7280" stroke-width="0.12" opacity="0.8"/><path d="M 45.092 -29.533 A 8.000 8.000 0 0 1 46.500 -25.000" fill="none" stroke="#6b7280" stroke-width="0.12" opacity="0.8"/><path d="M 46.500 25.000 A 8.000 8.000 0 0 1 45.092 29.533" fill="none" stroke="#6b7280" stroke-width="0.12" opacity="0.8"/><circle cx="-52.000" cy="-11.000" r="3.250" fill="none" stroke="#4a5160" stroke-width="0.12" opacity="0.7"/><circle cx="-52.000" cy="11.000" r="3.250" fill="none" stroke="#4a5160" stroke-width="0.12" opacity="0.7"/><circle cx="-38.500" cy="-25.000" r="5.000" fill="none" stroke="#4a5160" stroke-width="0.12" opacity="0.7"/><circle cx="-38.500" cy="25.000" r="5.000" fill="none" stroke="#4a5160" stroke-width="0.12" opacity="0.7"/><circle cx="-30.750" cy="-25.000" r="2.750" fill="none" stroke="#4a5160" stroke-width="0.12" opacity="0.7"/><circle cx="-30.750" cy="-25.000" r="1.650" fill="none" stroke="#4a5160" stroke-width="0.12" opacity="0.7"/><circle cx="-30.750" cy="10.000" r="2.000" fill="none" stroke="#4a5160" stroke-width="0.12" opacity="0.7"/><circle cx="-30.750" cy="25.000" r="2.750" fill="none" stroke="#4a5160" stroke-width="0.12" opacity="0.7"/><circle cx="-30.750" cy="25.000" r="1.650" fill="none" stroke="#4a5160" stroke-width="0.12" opacity="0.7"/><circle cx="-29.100" cy="0.300" r="1.800" fill="none" stroke="#4a5160" stroke-width="0.12" opacity="0.7"/><circle cx="-22.100" cy="-16.700" r="1.800" fill="none" stroke="#4a5160" stroke-width="0.12" opacity="0.7"/><circle cx="-17.600" cy="-16.700" r="1.800" fill="none" stroke="#4a5160" stroke-width="0.12" opacity="0.7"/><circle cx="0.000" cy="0.000" r="2.750" fill="none" stroke="#4a5160" stroke-width="0.12" opacity="0.7"/><circle cx="21.450" cy="-16.700" r="1.800" fill="none" stroke="#4a5160" stroke-width="0.12" opacity="0.7"/><circle cx="25.950" cy="-16.700" r="1.800" fill="none" stroke="#4a5160" stroke-width="0.12" opacity="0.7"/><circle cx="30.750" cy="-25.000" r="2.750" fill="none" stroke="#4a5160" stroke-width="0.12" opacity="0.7"/><circle cx="30.750" cy="-25.000" r="1.650" fill="none" stroke="#4a5160" stroke-width="0.12" opacity="0.7"/><circle cx="30.750" cy="0.000" r="2.000" fill="none" stroke="#4a5160" stroke-width="0.12" opacity="0.7"/><circle cx="30.750" cy="25.000" r="2.750" fill="none" stroke="#4a5160" stroke-width="0.12" opacity="0.7"/><circle cx="30.750" cy="25.000" r="1.650" fill="none" stroke="#4a5160" stroke-width="0.12" opacity="0.7"/><circle cx="38.500" cy="-25.000" r="5.000" fill="none" stroke="#4a5160" stroke-width="0.12" opacity="0.7"/><circle cx="38.500" cy="25.000" r="5.000" fill="none" stroke="#4a5160" stroke-width="0.12" opacity="0.7"/><circle cx="52.000" cy="-11.000" r="3.250" fill="none" stroke="#4a5160" stroke-width="0.12" opacity="0.7"/><circle cx="52.000" cy="11.000" r="3.250" fill="none" stroke="#4a5160" stroke-width="0.12" opacity="0.7"/><circle cx="-38.500" cy="-25.000" r="3.400" fill="none" stroke="#6b7280" stroke-width="0.12" opacity="0.8"/><circle cx="-38.500" cy="-25.000" r="2.700" fill="none" stroke="#6b7280" stroke-width="0.12" opacity="0.8"/><circle cx="-38.500" cy="25.000" r="3.400" fill="none" stroke="#6b7280" stroke-width="0.12" opacity="0.8"/><circle cx="-38.500" cy="25.000" r="2.700" fill="none" stroke="#6b7280" stroke-width="0.12" opacity="0.8"/><circle cx="38.500" cy="-25.000" r="3.400" fill="none" stroke="#6b7280" stroke-width="0.12" opacity="0.8"/><circle cx="38.500" cy="-25.000" r="2.700" fill="none" stroke="#6b7280" stroke-width="0.12" opacity="0.8"/><circle cx="38.500" cy="25.000" r="3.400" fill="none" stroke="#6b7280" stroke-width="0.12" opacity="0.8"/><circle cx="38.500" cy="25.000" r="2.700" fill="none" stroke="#6b7280" stroke-width="0.12" opacity="0.8"/><circle cx="-38.500" cy="-25.000" r="0.500" fill="none" stroke="#6b7280" stroke-width="0.1"/><circle cx="-38.500" cy="25.000" r="0.500" fill="none" stroke="#6b7280" stroke-width="0.1"/><circle cx="-30.750" cy="-25.000" r="0.500" fill="none" stroke="#6b7280" stroke-width="0.1"/><circle cx="-30.750" cy="10.000" r="0.500" fill="none" stroke="#6b7280" stroke-width="0.1"/><circle cx="-30.750" cy="25.000" r="0.500" fill="none" stroke="#6b7280" stroke-width="0.1"/><circle cx="0.000" cy="0.000" r="0.500" fill="none" stroke="#6b7280" stroke-width="0.1"/><circle cx="30.750" cy="-25.000" r="0.500" fill="none" stroke="#6b7280" stroke-width="0.1"/><circle cx="30.750" cy="0.000" r="0.500" fill="none" stroke="#6b7280" stroke-width="0.1"/><circle cx="30.750" cy="25.000" r="0.500" fill="none" stroke="#6b7280" stroke-width="0.1"/><circle cx="38.500" cy="-25.000" r="0.500" fill="none" stroke="#6b7280" stroke-width="0.1"/><circle cx="38.500" cy="25.000" r="0.500" fill="none" stroke="#6b7280" stroke-width="0.1"/><rect x="-59.050" y="17.750" width="0.000" height="0.000" rx="0.000" fill="#c79b5c"/><rect x="-58.500" y="4.500" width="13.000" height="13.000" rx="6.500" fill="#c79b5c"/><circle cx="-52.000" cy="11.000" r="3.250" fill="#12151c"/><rect x="-59.050" y="-4.250" width="0.000" height="0.000" rx="0.000" fill="#c79b5c"/><rect x="-58.500" y="-17.500" width="13.000" height="13.000" rx="6.500" fill="#c79b5c"/><circle cx="-52.000" cy="-11.000" r="3.250" fill="#12151c"/><rect x="39.050" y="17.750" width="0.000" height="0.000" rx="0.000" fill="#c79b5c"/><rect x="45.500" y="4.500" width="13.000" height="13.000" rx="6.500" fill="#c79b5c"/><circle cx="52.000" cy="11.000" r="3.250" fill="#12151c"/><rect x="39.050" y="-4.250" width="0.000" height="0.000" rx="0.000" fill="#c79b5c"/><rect x="45.500" y="-17.500" width="13.000" height="13.000" rx="6.500" fill="#c79b5c"/><circle cx="52.000" cy="-11.000" r="3.250" fill="#12151c"/><rect x="19.650" y="-18.500" width="3.600" height="3.600" rx="1.800" fill="#c79b5c"/><rect x="24.150" y="-18.500" width="3.600" height="3.600" rx="1.800" fill="#c79b5c"/><rect x="-23.900" y="-18.500" width="3.600" height="3.600" rx="1.800" fill="#c79b5c"/><rect x="-19.400" y="-18.500" width="3.600" height="3.600" rx="1.800" fill="#c79b5c"/><rect x="-30.900" y="-1.500" width="3.600" height="3.600" rx="1.800" fill="#c79b5c"/></svg>