<svg xmlns="http://www.w3.org/2000/svg" viewBox="-6.58 -1.50 23.32 13.16" preserveAspectRatio="xMidYMid meet" style="width:100%;height:100%"><rect x="-6.58" y="-1.50" width="23.32" height="13.16" fill="#12151c"/><rect x="0.000" y="-0.000" width="10.160" height="10.160" fill="#1e222b" stroke="#4ea1ff" stroke-width="0.25"/><polyline points="0.000,2.540 1.905,2.540 1.905,3.175" fill="none" stroke="#4ea1ff" stroke-width="0.25" stroke-linejoin="round"/><polyline points="0.000,7.620 1.905,7.620 1.905,6.985" fill="none" stroke="#4ea1ff" stroke-width="0.25" stroke-linejoin="round"/><polyline points="4.826,7.112 4.826,3.048" fill="none" stroke="#4ea1ff" stroke-width="0.25" stroke-linejoin="round"/><polyline points="5.334,3.048 5.334,7.112" fill="none" stroke="#4ea1ff" stroke-width="0.25" stroke-linejoin="round"/><polyline points="10.160,2.540 8.255,2.540 8.255,3.175" fill="none" stroke="#4ea1ff" stroke-width="0.25" stroke-linejoin="round"/><polyline points="10.160,7.620 8.255,7.620 8.255,6.985" fill="none" stroke="#4ea1ff" stroke-width="0.25" stroke-linejoin="round"/><circle cx="3.175" cy="7.620" r="0.254" fill="none" stroke="#4ea1ff" stroke-width="0.25"/><circle cx="6.985" cy="2.540" r="0.254" fill="none" stroke="#4ea1ff" stroke-width="0.25"/><path d="M 1.905 4.445 C 2.606 4.445 3.175 4.161 3.175 3.810" fill="none" stroke="#4ea1ff" stroke-width="0.25"/><path d="M 1.905 5.715 C 2.606 5.715 3.175 5.431 3.175 5.080" fill="none" stroke="#4ea1ff" stroke-width="0.25"/><path d="M 1.905 6.985 C 2.606 6.985 3.175 6.701 3.175 6.350" fill="none" stroke="#4ea1ff" stroke-width="0.25"/><path d="M 3.175 3.810 C 3.175 3.459 2.606 3.175 1.905 3.175" fill="none" stroke="#4ea1ff" stroke-width="0.25"/><path d="M 3.175 5.080 C 3.175 4.729 2.606 4.445 1.905 4.445" fill="none" stroke="#4ea1ff" stroke-width="0.25"/><path d="M 3.175 6.350 C 3.175 5.999 2.606 5.715 1.905 5.715" fill="none" stroke="#4ea1ff" stroke-width="0.25"/><path d="M 6.985 3.810 C 6.985 4.161 7.553 4.445 8.255 4.445" fill="none" stroke="#4ea1ff" stroke-width="0.25"/><path d="M 6.985 5.080 C 6.985 5.431 7.553 5.715 8.255 5.715" fill="none" stroke="#4ea1ff" stroke-width="0.25"/><path d="M 6.985 6.350 C 6.985 6.701 7.553 6.985 8.255 6.985" fill="none" stroke="#4ea1ff" stroke-width="0.25"/><path d="M 8.255 3.175 C 7.553 3.175 6.985 3.459 6.985 3.810" fill="none" stroke="#4ea1ff" stroke-width="0.25"/><path d="M 8.255 4.445 C 7.553 4.445 6.985 4.729 6.985 5.080" fill="none" stroke="#4ea1ff" stroke-width="0.25"/><path d="M 8.255 5.715 C 7.553 5.715 6.985 5.999 6.985 6.350" fill="none" stroke="#4ea1ff" stroke-width="0.25"/><line x1="-5.080" y1="2.540" x2="0.000" y2="2.540" stroke="#e6e9ef" stroke-width="0.2"/><circle cx="-5.080" cy="2.540" r="0.4" fill="#4ea1ff"/><text x="-0.300" y="2.190" fill="#9aa3b2" font-size="0.9" text-anchor="end" font-family="sans-serif">5</text><line x1="-5.080" y1="7.620" x2="0.000" y2="7.620" stroke="#e6e9ef" stroke-width="0.2"/><circle cx="-5.080" cy="7.620" r="0.4" fill="#4ea1ff"/><text x="-0.300" y="7.270" fill="#9aa3b2" font-size="0.9" text-anchor="end" font-family="sans-serif">1</text><line x1="15.240" y1="2.540" x2="10.160" y2="2.540" stroke="#e6e9ef" stroke-width="0.2"/><circle cx="15.240" cy="2.540" r="0.4" fill="#4ea1ff"/><text x="10.460" y="2.190" fill="#9aa3b2" font-size="0.9" text-anchor="start" font-family="sans-serif">7</text><line x1="15.240" y1="7.620" x2="10.160" y2="7.620" stroke="#e6e9ef" stroke-width="0.2"/><circle cx="15.240" cy="7.620" r="0.4" fill="#4ea1ff"/><text x="10.460" y="7.270" fill="#9aa3b2" font-size="0.9" text-anchor="start" font-family="sans-serif">9</text></svg>