<svg xmlns="http://www.w3.org/2000/svg" viewBox="-14.66 -14.66 29.32 29.32" preserveAspectRatio="xMidYMid meet" style="width:100%;height:100%"><rect x="-14.66" y="-14.66" width="29.32" height="29.32" fill="#12151c"/><line x1="-13.090" y1="8.184" x2="-13.090" y2="-8.184" stroke="#e6e9ef" stroke-width="0.200" stroke-linecap="round" opacity="1"/><line x1="-9.798" y1="-4.566" x2="-8.642" y2="-3.898" stroke="#e6e9ef" stroke-width="0.200" stroke-linecap="round" opacity="1"/><line x1="-8.632" y1="1.433" x2="-7.680" y2="1.178" stroke="#e6e9ef" stroke-width="0.200" stroke-linecap="round" opacity="1"/><line x1="-8.383" y1="-6.826" x2="-6.579" y2="-6.826" stroke="#e6e9ef" stroke-width="0.200" stroke-linecap="round" opacity="1"/><line x1="-8.192" y1="3.075" x2="-7.240" y2="2.820" stroke="#e6e9ef" stroke-width="0.200" stroke-linecap="round" opacity="1"/><line x1="-8.184" y1="-13.090" x2="8.184" y2="-13.090" stroke="#e6e9ef" stroke-width="0.200" stroke-linecap="round" opacity="1"/><line x1="-8.184" y1="13.090" x2="8.184" y2="13.090" stroke="#e6e9ef" stroke-width="0.200" stroke-linecap="round" opacity="1"/><line x1="-6.249" y1="6.125" x2="-5.616" y2="5.370" stroke="#e6e9ef" stroke-width="0.200" stroke-linecap="round" opacity="1"/><line x1="-4.947" y1="7.218" x2="-4.313" y2="6.463" stroke="#e6e9ef" stroke-width="0.200" stroke-linecap="round" opacity="1"/><line x1="-4.102" y1="0.404" x2="-3.862" y2="1.304" stroke="#e6e9ef" stroke-width="0.200" stroke-linecap="round" opacity="1"/><line x1="-3.613" y1="-1.959" x2="-2.837" y2="-2.941" stroke="#e6e9ef" stroke-width="0.200" stroke-linecap="round" opacity="1"/><line x1="-2.622" y1="9.110" x2="-1.720" y2="10.672" stroke="#e6e9ef" stroke-width="0.200" stroke-linecap="round" opacity="1"/><line x1="-2.007" y1="3.540" x2="-1.218" y2="3.918" stroke="#e6e9ef" stroke-width="0.200" stroke-linecap="round" opacity="1"/><line x1="-1.650" y1="-7.593" x2="-1.650" y2="-8.593" stroke="#e6e9ef" stroke-width="0.200" stroke-linecap="round" opacity="1"/><line x1="-0.650" y1="-4.000" x2="0.400" y2="-4.000" stroke="#e6e9ef" stroke-width="0.200" stroke-linecap="round" opacity="1"/><line x1="0.945" y1="10.769" x2="0.945" y2="9.433" stroke="#e6e9ef" stroke-width="0.200" stroke-linecap="round" opacity="1"/><line x1="1.218" y1="3.918" x2="2.232" y2="3.432" stroke="#e6e9ef" stroke-width="0.200" stroke-linecap="round" opacity="1"/><line x1="1.568" y1="-0.317" x2="3.127" y2="-0.632" stroke="#e6e9ef" stroke-width="0.200" stroke-linecap="round" opacity="1"/><line x1="1.650" y1="-7.593" x2="1.650" y2="-8.593" stroke="#e6e9ef" stroke-width="0.200" stroke-linecap="round" opacity="1"/><line x1="3.734" y1="6.814" x2="4.299" y2="7.621" stroke="#e6e9ef" stroke-width="0.200" stroke-linecap="round" opacity="1"/><line x1="3.798" y1="1.546" x2="4.102" y2="0.404" stroke="#e6e9ef" stroke-width="0.200" stroke-linecap="round" opacity="1"/><line x1="5.126" y1="5.839" x2="5.691" y2="6.646" stroke="#e6e9ef" stroke-width="0.200" stroke-linecap="round" opacity="1"/><line x1="7.620" y1="1.520" x2="8.601" y2="1.606" stroke="#e6e9ef" stroke-width="0.200" stroke-linecap="round" opacity="1"/><line x1="7.697" y1="-5.535" x2="8.853" y2="-6.203" stroke="#e6e9ef" stroke-width="0.200" stroke-linecap="round" opacity="1"/><line x1="7.768" y1="-0.174" x2="8.750" y2="-0.088" stroke="#e6e9ef" stroke-width="0.200" stroke-linecap="round" opacity="1"/><line x1="9.201" y1="-2.285" x2="10.102" y2="-3.847" stroke="#e6e9ef" stroke-width="0.200" stroke-linecap="round" opacity="1"/><line x1="13.090" y1="8.184" x2="13.090" y2="-8.184" stroke="#e6e9ef" stroke-width="0.200" stroke-linecap="round" opacity="1"/><line x1="-10.810" y1="-10.310" x2="-10.310" y2="-10.310" stroke="#4a5160" stroke-width="0.100" stroke-linecap="round" opacity="0.7"/><line x1="-10.810" y1="10.310" x2="-10.310" y2="10.310" stroke="#4a5160" stroke-width="0.100" stroke-linecap="round" opacity="0.7"/><line x1="-10.310" y1="-10.310" x2="-10.310" y2="-10.810" stroke="#4a5160" stroke-width="0.100" stroke-linecap="round" opacity="0.7"/><line x1="-10.310" y1="-10.310" x2="-9.810" y2="-10.310" stroke="#4a5160" stroke-width="0.100" stroke-linecap="round" opacity="0.7"/><line x1="-10.310" y1="-9.810" x2="-10.310" y2="-10.310" stroke="#4a5160" stroke-width="0.100" stroke-linecap="round" opacity="0.7"/><line x1="-10.310" y1="10.310" x2="-10.310" y2="9.810" stroke="#4a5160" stroke-width="0.100" stroke-linecap="round" opacity="0.7"/><line x1="-10.310" y1="10.310" x2="-9.810" y2="10.310" stroke="#4a5160" stroke-width="0.100" stroke-linecap="round" opacity="0.7"/><line x1="-10.310" y1="10.810" x2="-10.310" y2="10.310" stroke="#4a5160" stroke-width="0.100" stroke-linecap="round" opacity="0.7"/><line x1="-4.950" y1="-0.900" x2="-4.450" y2="-0.900" stroke="#4a5160" stroke-width="0.100" stroke-linecap="round" opacity="0.7"/><line x1="-4.450" y1="-0.900" x2="-4.450" y2="-1.400" stroke="#4a5160" stroke-width="0.100" stroke-linecap="round" opacity="0.7"/><line x1="-4.450" y1="-0.900" x2="-3.950" y2="-0.900" stroke="#4a5160" stroke-width="0.100" stroke-linecap="round" opacity="0.7"/><line x1="-4.450" y1="-0.400" x2="-4.450" y2="-0.900" stroke="#4a5160" stroke-width="0.100" stroke-linecap="round" opacity="0.7"/><line x1="-3.950" y1="2.850" x2="-3.450" y2="2.850" stroke="#4a5160" stroke-width="0.100" stroke-linecap="round" opacity="0.7"/><line x1="-3.450" y1="2.850" x2="-3.450" y2="2.350" stroke="#4a5160" stroke-width="0.100" stroke-linecap="round" opacity="0.7"/><line x1="-3.450" y1="2.850" x2="-2.950" y2="2.850" stroke="#4a5160" stroke-width="0.100" stroke-linecap="round" opacity="0.7"/><line x1="-3.450" y1="3.350" x2="-3.450" y2="2.850" stroke="#4a5160" stroke-width="0.100" stroke-linecap="round" opacity="0.7"/><line x1="-2.500" y1="-4.000" x2="-2.000" y2="-4.000" stroke="#4a5160" stroke-width="0.100" stroke-linecap="round" opacity="0.7"/><line x1="-2.000" y1="-4.000" x2="-2.000" y2="-4.500" stroke="#4a5160" stroke-width="0.100" stroke-linecap="round" opacity="0.7"/><line x1="-2.000" y1="-4.000" x2="-1.500" y2="-4.000" stroke="#4a5160" stroke-width="0.100" stroke-linecap="round" opacity="0.7"/><line x1="-2.000" y1="-3.500" x2="-2.000" y2="-4.000" stroke="#4a5160" stroke-width="0.100" stroke-linecap="round" opacity="0.7"/><line x1="-0.500" y1="4.500" x2="0.000" y2="4.500" stroke="#4a5160" stroke-width="0.100" stroke-linecap="round" opacity="0.7"/><line x1="-0.354" y1="-0.354" x2="0.000" y2="0.000" stroke="#4a5160" stroke-width="0.100" stroke-linecap="round" opacity="0.7"/><line x1="-0.354" y1="0.354" x2="0.000" y2="0.000" stroke="#4a5160" stroke-width="0.100" stroke-linecap="round" opacity="0.7"/><line x1="0.000" y1="0.000" x2="0.354" y2="-0.354" stroke="#4a5160" stroke-width="0.100" stroke-linecap="round" opacity="0.7"/><line x1="0.000" y1="0.000" x2="0.354" y2="0.354" stroke="#4a5160" stroke-width="0.100" stroke-linecap="round" opacity="0.7"/><line x1="0.000" y1="4.500" x2="0.000" y2="4.000" stroke="#4a5160" stroke-width="0.100" stroke-linecap="round" opacity="0.7"/><line x1="0.000" y1="4.500" x2="0.500" y2="4.500" stroke="#4a5160" stroke-width="0.100" stroke-linecap="round" opacity="0.7"/><line x1="0.000" y1="5.000" x2="0.000" y2="4.500" stroke="#4a5160" stroke-width="0.100" stroke-linecap="round" opacity="0.7"/><line x1="1.500" y1="-4.000" x2="2.000" y2="-4.000" stroke="#4a5160" stroke-width="0.100" stroke-linecap="round" opacity="0.7"/><line x1="2.000" y1="-4.000" x2="2.000" y2="-4.500" stroke="#4a5160" stroke-width="0.100" stroke-linecap="round" opacity="0.7"/><line x1="2.000" y1="-4.000" x2="2.500" y2="-4.000" stroke="#4a5160" stroke-width="0.100" stroke-linecap="round" opacity="0.7"/><line x1="2.000" y1="-3.500" x2="2.000" y2="-4.000" stroke="#4a5160" stroke-width="0.100" stroke-linecap="round" opacity="0.7"/><line x1="2.950" y1="2.850" x2="3.450" y2="2.850" stroke="#4a5160" stroke-width="0.100" stroke-linecap="round" opacity="0.7"/><line x1="3.450" y1="2.850" x2="3.450" y2="2.350" stroke="#4a5160" stroke-width="0.100" stroke-linecap="round" opacity="0.7"/><line x1="3.450" y1="2.850" x2="3.950" y2="2.850" stroke="#4a5160" stroke-width="0.100" stroke-linecap="round" opacity="0.7"/><line x1="3.450" y1="3.350" x2="3.450" y2="2.850" stroke="#4a5160" stroke-width="0.100" stroke-linecap="round" opacity="0.7"/><line x1="3.950" y1="-0.900" x2="4.450" y2="-0.900" stroke="#4a5160" stroke-width="0.100" stroke-linecap="round" opacity="0.7"/><line x1="4.450" y1="-0.900" x2="4.450" y2="-1.400" stroke="#4a5160" stroke-width="0.100" stroke-linecap="round" opacity="0.7"/><line x1="4.450" y1="-0.900" x2="4.950" y2="-0.900" stroke="#4a5160" stroke-width="0.100" stroke-linecap="round" opacity="0.7"/><line x1="4.450" y1="-0.400" x2="4.450" y2="-0.900" stroke="#4a5160" stroke-width="0.100" stroke-linecap="round" opacity="0.7"/><line x1="9.810" y1="-10.310" x2="10.310" y2="-10.310" stroke="#4a5160" stroke-width="0.100" stroke-linecap="round" opacity="0.7"/><line x1="9.810" y1="10.310" x2="10.310" y2="10.310" stroke="#4a5160" stroke-width="0.100" stroke-linecap="round" opacity="0.7"/><line x1="10.310" y1="-10.310" x2="10.310" y2="-10.810" stroke="#4a5160" stroke-width="0.100" stroke-linecap="round" opacity="0.7"/><line x1="10.310" y1="-10.310" x2="10.810" y2="-10.310" stroke="#4a5160" stroke-width="0.100" stroke-linecap="round" opacity="0.7"/><line x1="10.310" y1="-9.810" x2="10.310" y2="-10.310" stroke="#4a5160" stroke-width="0.100" stroke-linecap="round" opacity="0.7"/><line x1="10.310" y1="10.310" x2="10.310" y2="9.810" stroke="#4a5160" stroke-width="0.100" stroke-linecap="round" opacity="0.7"/><line x1="10.310" y1="10.310" x2="10.810" y2="10.310" stroke="#4a5160" stroke-width="0.100" stroke-linecap="round" opacity="0.7"/><line x1="10.310" y1="10.810" x2="10.310" y2="10.310" stroke="#4a5160" stroke-width="0.100" stroke-linecap="round" opacity="0.7"/><line x1="-13.090" y1="-11.615" x2="-11.615" y2="-13.090" stroke="#6b7280" stroke-width="0.100" stroke-linecap="round" opacity="0.8"/><line x1="-13.090" y1="11.615" x2="-13.090" y2="-11.615" stroke="#6b7280" stroke-width="0.100" stroke-linecap="round" opacity="0.8"/><line x1="-13.090" y1="11.615" x2="-11.615" y2="13.090" stroke="#6b7280" stroke-width="0.100" stroke-linecap="round" opacity="0.8"/><line x1="-11.615" y1="-13.090" x2="11.615" y2="-13.090" stroke="#6b7280" stroke-width="0.100" stroke-linecap="round" opacity="0.8"/><line x1="-11.615" y1="13.090" x2="11.615" y2="13.090" stroke="#6b7280" stroke-width="0.100" stroke-linecap="round" opacity="0.8"/><line x1="-9.798" y1="-4.566" x2="-8.642" y2="-3.898" stroke="#6b7280" stroke-width="0.100" stroke-linecap="round" opacity="0.8"/><line x1="-8.632" y1="1.433" x2="-7.680" y2="1.178" stroke="#6b7280" stroke-width="0.100" stroke-linecap="round" opacity="0.8"/><line x1="-8.383" y1="-6.826" x2="-6.579" y2="-6.826" stroke="#6b7280" stroke-width="0.100" stroke-linecap="round" opacity="0.8"/><line x1="-8.192" y1="3.075" x2="-7.240" y2="2.820" stroke="#6b7280" stroke-width="0.100" stroke-linecap="round" opacity="0.8"/><line x1="-6.249" y1="6.125" x2="-5.616" y2="5.370" stroke="#6b7280" stroke-width="0.100" stroke-linecap="round" opacity="0.8"/><line x1="-4.947" y1="7.218" x2="-4.313" y2="6.463" stroke="#6b7280" stroke-width="0.100" stroke-linecap="round" opacity="0.8"/><line x1="-4.102" y1="0.404" x2="-3.862" y2="1.304" stroke="#6b7280" stroke-width="0.100" stroke-linecap="round" opacity="0.8"/><line x1="-3.613" y1="-1.959" x2="-2.837" y2="-2.941" stroke="#6b7280" stroke-width="0.100" stroke-linecap="round" opacity="0.8"/><line x1="-2.622" y1="9.110" x2="-1.720" y2="10.672" stroke="#6b7280" stroke-width="0.100" stroke-linecap="round" opacity="0.8"/><line x1="-2.007" y1="3.540" x2="-1.218" y2="3.918" stroke="#6b7280" stroke-width="0.100" stroke-linecap="round" opacity="0.8"/><line x1="-1.650" y1="-7.593" x2="-1.650" y2="-8.593" stroke="#6b7280" stroke-width="0.100" stroke-linecap="round" opacity="0.8"/><line x1="-0.650" y1="-4.000" x2="0.400" y2="-4.000" stroke="#6b7280" stroke-width="0.100" stroke-linecap="round" opacity="0.8"/><line x1="0.945" y1="10.769" x2="0.945" y2="9.433" stroke="#6b7280" stroke-width="0.100" stroke-linecap="round" opacity="0.8"/><line x1="1.218" y1="3.918" x2="2.232" y2="3.432" stroke="#6b7280" stroke-width="0.100" stroke-linecap="round" opacity="0.8"/><line x1="1.568" y1="-0.317" x2="3.127" y2="-0.632" stroke="#6b7280" stroke-width="0.100" stroke-linecap="round" opacity="0.8"/><line x1="1.650" y1="-7.593" x2="1.650" y2="-8.593" stroke="#6b7280" stroke-width="0.100" stroke-linecap="round" opacity="0.8"/><line x1="3.734" y1="6.814" x2="4.299" y2="7.621" stroke="#6b7280" stroke-width="0.100" stroke-linecap="round" opacity="0.8"/><line x1="3.798" y1="1.546" x2="4.102" y2="0.404" stroke="#6b7280" stroke-width="0.100" stroke-linecap="round" opacity="0.8"/><line x1="5.126" y1="5.839" x2="5.691" y2="6.646" stroke="#6b7280" stroke-width="0.100" stroke-linecap="round" opacity="0.8"/><line x1="7.620" y1="1.520" x2="8.601" y2="1.606" stroke="#6b7280" stroke-width="0.100" stroke-linecap="round" opacity="0.8"/><line x1="7.697" y1="-5.535" x2="8.853" y2="-6.203" stroke="#6b7280" stroke-width="0.100" stroke-linecap="round" opacity="0.8"/><line x1="7.768" y1="-0.174" x2="8.750" y2="-0.088" stroke="#6b7280" stroke-width="0.100" stroke-linecap="round" opacity="0.8"/><line x1="9.201" y1="-2.285" x2="10.102" y2="-3.847" stroke="#6b7280" stroke-width="0.100" stroke-linecap="round" opacity="0.8"/><line x1="11.615" y1="-13.090" x2="13.090" y2="-11.615" stroke="#6b7280" stroke-width="0.100" stroke-linecap="round" opacity="0.8"/><line x1="11.615" y1="13.090" x2="13.090" y2="11.615" stroke="#6b7280" stroke-width="0.100" stroke-linecap="round" opacity="0.8"/><line x1="13.090" y1="11.615" x2="13.090" y2="-11.615" stroke="#6b7280" stroke-width="0.100" stroke-linecap="round" opacity="0.8"/><line x1="-13.660" y1="-13.660" x2="13.660" y2="-13.660" stroke="#d24d4d" stroke-width="0.080" stroke-linecap="round" opacity="0.7"/><line x1="13.660" y1="-13.660" x2="13.660" y2="13.660" stroke="#d24d4d" stroke-width="0.080" stroke-linecap="round" opacity="0.7"/><line x1="13.660" y1="13.660" x2="-13.660" y2="13.660" stroke="#d24d4d" stroke-width="0.080" stroke-linecap="round" opacity="0.7"/><line x1="-13.660" y1="13.660" x2="-13.660" y2="-13.660" stroke="#d24d4d" stroke-width="0.080" stroke-linecap="round" opacity="0.7"/><path d="M -9.798 -4.566 A 10.810 10.810 0 0 1 -8.383 -6.826" fill="none" stroke="#e6e9ef" stroke-width="0.12" opacity="1"/><path d="M -8.192 3.075 A 8.750 8.750 0 0 1 -8.632 1.433" fill="none" stroke="#e6e9ef" stroke-width="0.12" opacity="1"/><path d="M -7.680 1.178 A 7.770 7.770 0 0 1 -1.650 -7.593" fill="none" stroke="#e6e9ef" stroke-width="0.12" opacity="1"/><path d="M -5.616 5.370 A 7.770 7.770 0 0 1 -7.240 2.820" fill="none" stroke="#e6e9ef" stroke-width="0.12" opacity="1"/><path d="M -4.947 7.218 A 8.750 8.750 0 0 1 -6.249 6.125" fill="none" stroke="#e6e9ef" stroke-width="0.12" opacity="1"/><path d="M -3.277 5.758 A 6.625 6.625 0 1 1 4.659 -4.710" fill="none" stroke="#e6e9ef" stroke-width="0.12" opacity="1"/><path d="M -1.650 -8.593 A 8.750 8.750 0 0 1 1.650 -8.593" fill="none" stroke="#e6e9ef" stroke-width="0.12" opacity="1"/><path d="M 0.945 10.769 A 10.810 10.810 0 0 1 -1.720 10.672" fill="none" stroke="#e6e9ef" stroke-width="0.12" opacity="1"/><path d="M 1.650 -7.593 A 7.770 7.770 0 0 1 7.768 -0.174" fill="none" stroke="#e6e9ef" stroke-width="0.12" opacity="1"/><path d="M 3.734 6.814 A 7.770 7.770 0 0 1 -4.313 6.463" fill="none" stroke="#e6e9ef" stroke-width="0.12" opacity="1"/><path d="M 5.691 6.646 A 8.750 8.750 0 0 1 4.299 7.621" fill="none" stroke="#e6e9ef" stroke-width="0.12" opacity="1"/><path d="M 5.710 -3.359 A 6.625 6.625 0 0 1 -1.726 6.396" fill="none" stroke="#e6e9ef" stroke-width="0.12" opacity="1"/><path d="M 7.620 1.520 A 7.770 7.770 0 0 1 5.126 5.839" fill="none" stroke="#e6e9ef" stroke-width="0.12" opacity="1"/><path d="M 8.750 -0.088 A 8.750 8.750 0 0 1 8.601 1.606" fill="none" stroke="#e6e9ef" stroke-width="0.12" opacity="1"/><path d="M 8.853 -6.203 A 10.810 10.810 0 0 1 10.102 -3.847" fill="none" stroke="#e6e9ef" stroke-width="0.12" opacity="1"/><path d="M -11.472 -10.666 A 0.280 0.280 0 0 1 -11.200 -11.138" fill="none" stroke="#6b7280" stroke-width="0.12" opacity="0.8"/><path d="M -11.472 9.954 A 0.280 0.280 0 0 1 -11.200 9.482" fill="none" stroke="#6b7280" stroke-width="0.12" opacity="0.8"/><path d="M -11.472 -10.666 A 0.490 0.490 0 0 1 -11.472 -9.954" fill="none" stroke="#6b7280" stroke-width="0.12" opacity="0.8"/><path d="M -11.472 9.954 A 0.490 0.490 0 0 1 -11.472 10.666" fill="none" stroke="#6b7280" stroke-width="0.12" opacity="0.8"/><path d="M -11.200 -9.482 A 0.280 0.280 0 0 1 -11.472 -9.954" fill="none" stroke="#6b7280" stroke-width="0.12" opacity="0.8"/><path d="M -11.200 11.138 A 0.280 0.280 0 0 1 -11.472 10.666" fill="none" stroke="#6b7280" stroke-width="0.12" opacity="0.8"/><path d="M -11.200 -9.482 A 0.490 0.490 0 0 1 -10.582 -9.125" fill="none" stroke="#6b7280" stroke-width="0.12" opacity="0.8"/><path d="M -11.200 11.138 A 0.490 0.490 0 0 1 -10.582 11.495" fill="none" stroke="#6b7280" stroke-width="0.12" opacity="0.8"/><path d="M -10.582 -11.495 A 0.280 0.280 0 0 1 -10.038 -11.495" fill="none" stroke="#6b7280" stroke-width="0.12" opacity="0.8"/><path d="M -10.582 9.125 A 0.280 0.280 0 0 1 -10.038 9.125" fill="none" stroke="#6b7280" stroke-width="0.12" opacity="0.8"/><path d="M -10.582 -11.495 A 0.490 0.490 0 0 1 -11.200 -11.138" fill="none" stroke="#6b7280" stroke-width="0.12" opacity="0.8"/><path d="M -10.582 9.125 A 0.490 0.490 0 0 1 -11.200 9.482" fill="none" stroke="#6b7280" stroke-width="0.12" opacity="0.8"/><path d="M -10.038 -9.125 A 0.280 0.280 0 0 1 -10.582 -9.125" fill="none" stroke="#6b7280" stroke-width="0.12" opacity="0.8"/><path d="M -10.038 11.495 A 0.280 0.280 0 0 1 -10.582 11.495" fill="none" stroke="#6b7280" stroke-width="0.12" opacity="0.8"/><path d="M -10.038 -9.125 A 0.490 0.490 0 0 1 -9.420 -9.482" fill="none" stroke="#6b7280" stroke-width="0.12" opacity="0.8"/><path d="M -10.038 11.495 A 0.490 0.490 0 0 1 -9.420 11.138" fill="none" stroke="#6b7280" stroke-width="0.12" opacity="0.8"/><path d="M -9.798 -4.566 A 10.810 10.810 0 0 1 -8.383 -6.826" fill="none" stroke="#6b7280" stroke-width="0.12" opacity="0.8"/><path d="M -9.420 -11.138 A 0.280 0.280 0 0 1 -9.148 -10.666" fill="none" stroke="#6b7280" stroke-width="0.12" opacity="0.8"/><path d="M -9.420 -11.138 A 0.490 0.490 0 0 1 -10.038 -11.495" fill="none" stroke="#6b7280" stroke-width="0.12" opacity="0.8"/><path d="M -9.420 9.482 A 0.490 0.490 0 0 1 -10.038 9.125" fill="none" stroke="#6b7280" stroke-width="0.12" opacity="0.8"/><path d="M -9.420 9.482 A 0.280 0.280 0 0 1 -9.148 9.954" fill="none" stroke="#6b7280" stroke-width="0.12" opacity="0.8"/><path d="M -9.148 -9.954 A 0.280 0.280 0 0 1 -9.420 -9.482" fill="none" stroke="#6b7280" stroke-width="0.12" opacity="0.8"/><path d="M -9.148 10.666 A 0.280 0.280 0 0 1 -9.420 11.138" fill="none" stroke="#6b7280" stroke-width="0.12" opacity="0.8"/><path d="M -9.148 -9.954 A 0.490 0.490 0 0 1 -9.148 -10.666" fill="none" stroke="#6b7280" stroke-width="0.12" opacity="0.8"/><path d="M -9.148 10.666 A 0.490 0.490 0 0 1 -9.148 9.954" fill="none" stroke="#6b7280" stroke-width="0.12" opacity="0.8"/><path d="M -8.192 3.075 A 8.750 8.750 0 0 1 -8.632 1.433" fill="none" stroke="#6b7280" stroke-width="0.12" opacity="0.8"/><path d="M -7.680 1.178 A 7.770 7.770 0 0 1 -1.650 -7.593" fill="none" stroke="#6b7280" stroke-width="0.12" opacity="0.8"/><path d="M -5.616 5.370 A 7.770 7.770 0 0 1 -7.240 2.820" fill="none" stroke="#6b7280" stroke-width="0.12" opacity="0.8"/><path d="M -4.947 7.218 A 8.750 8.750 0 0 1 -6.249 6.125" fill="none" stroke="#6b7280" stroke-width="0.12" opacity="0.8"/><path d="M -1.650 -8.593 A 8.750 8.750 0 0 1 1.650 -8.593" fill="none" stroke="#6b7280" stroke-width="0.12" opacity="0.8"/><path d="M 0.945 10.769 A 10.810 10.810 0 0 1 -1.720 10.672" fill="none" stroke="#6b7280" stroke-width="0.12" opacity="0.8"/><path d="M 1.650 -7.593 A 7.770 7.770 0 0 1 7.768 -0.174" fill="none" stroke="#6b7280" stroke-width="0.12" opacity="0.8"/><path d="M 3.734 6.814 A 7.770 7.770 0 0 1 -4.313 6.463" fill="none" stroke="#6b7280" stroke-width="0.12" opacity="0.8"/><path d="M 5.691 6.646 A 8.750 8.750 0 0 1 4.299 7.621" fill="none" stroke="#6b7280" stroke-width="0.12" opacity="0.8"/><path d="M 7.620 1.520 A 7.770 7.770 0 0 1 5.126 5.839" fill="none" stroke="#6b7280" stroke-width="0.12" opacity="0.8"/><path d="M 8.750 -0.088 A 8.750 8.750 0 0 1 8.601 1.606" fill="none" stroke="#6b7280" stroke-width="0.12" opacity="0.8"/><path d="M 8.853 -6.203 A 10.810 10.810 0 0 1 10.102 -3.847" fill="none" stroke="#6b7280" stroke-width="0.12" opacity="0.8"/><path d="M 9.148 -10.666 A 0.490 0.490 0 0 1 9.148 -9.954" fill="none" stroke="#6b7280" stroke-width="0.12" opacity="0.8"/><path d="M 9.148 9.954 A 0.490 0.490 0 0 1 9.148 10.666" fill="none" stroke="#6b7280" stroke-width="0.12" opacity="0.8"/><path d="M 9.148 -10.666 A 0.280 0.280 0 0 1 9.420 -11.138" fill="none" stroke="#6b7280" stroke-width="0.12" opacity="0.8"/><path d="M 9.148 9.954 A 0.280 0.280 0 0 1 9.420 9.482" fill="none" stroke="#6b7280" stroke-width="0.12" opacity="0.8"/><path d="M 9.420 -9.482 A 0.280 0.280 0 0 1 9.148 -9.954" fill="none" stroke="#6b7280" stroke-width="0.12" opacity="0.8"/><path d="M 9.420 -9.482 A 0.490 0.490 0 0 1 10.038 -9.125" fill="none" stroke="#6b7280" stroke-width="0.12" opacity="0.8"/><path d="M 9.420 11.138 A 0.490 0.490 0 0 1 10.038 11.495" fill="none" stroke="#6b7280" stroke-width="0.12" opacity="0.8"/><path d="M 9.420 11.138 A 0.280 0.280 0 0 1 9.148 10.666" fill="none" stroke="#6b7280" stroke-width="0.12" opacity="0.8"/><path d="M 10.038 -11.495 A 0.490 0.490 0 0 1 9.420 -11.138" fill="none" stroke="#6b7280" stroke-width="0.12" opacity="0.8"/><path d="M 10.038 9.125 A 0.490 0.490 0 0 1 9.420 9.482" fill="none" stroke="#6b7280" stroke-width="0.12" opacity="0.8"/><path d="M 10.038 -11.495 A 0.280 0.280 0 0 1 10.582 -11.495" fill="none" stroke="#6b7280" stroke-width="0.12" opacity="0.8"/><path d="M 10.038 9.125 A 0.280 0.280 0 0 1 10.582 9.125" fill="none" stroke="#6b7280" stroke-width="0.12" opacity="0.8"/><path d="M 10.582 -9.125 A 0.490 0.490 0 0 1 11.200 -9.482" fill="none" stroke="#6b7280" stroke-width="0.12" opacity="0.8"/><path d="M 10.582 11.495 A 0.490 0.490 0 0 1 11.200 11.138" fill="none" stroke="#6b7280" stroke-width="0.12" opacity="0.8"/><path d="M 10.582 -9.125 A 0.280 0.280 0 0 1 10.038 -9.125" fill="none" stroke="#6b7280" stroke-width="0.12" opacity="0.8"/><path d="M 10.582 11.495 A 0.280 0.280 0 0 1 10.038 11.495" fill="none" stroke="#6b7280" stroke-width="0.12" opacity="0.8"/><path d="M 11.200 -11.138 A 0.490 0.490 0 0 1 10.582 -11.495" fill="none" stroke="#6b7280" stroke-width="0.12" opacity="0.8"/><path d="M 11.200 9.482 A 0.490 0.490 0 0 1 10.582 9.125" fill="none" stroke="#6b7280" stroke-width="0.12" opacity="0.8"/><path d="M 11.200 -11.138 A 0.280 0.280 0 0 1 11.472 -10.666" fill="none" stroke="#6b7280" stroke-width="0.12" opacity="0.8"/><path d="M 11.200 9.482 A 0.280 0.280 0 0 1 11.472 9.954" fill="none" stroke="#6b7280" stroke-width="0.12" opacity="0.8"/><path d="M 11.472 -9.954 A 0.490 0.490 0 0 1 11.472 -10.666" fill="none" stroke="#6b7280" stroke-width="0.12" opacity="0.8"/><path d="M 11.472 10.666 A 0.490 0.490 0 0 1 11.472 9.954" fill="none" stroke="#6b7280" stroke-width="0.12" opacity="0.8"/><path d="M 11.472 -9.954 A 0.280 0.280 0 0 1 11.200 -9.482" fill="none" stroke="#6b7280" stroke-width="0.12" opacity="0.8"/><path d="M 11.472 10.666 A 0.280 0.280 0 0 1 11.200 11.138" fill="none" stroke="#6b7280" stroke-width="0.12" opacity="0.8"/><circle cx="-4.450" cy="-0.900" r="1.350" fill="none" stroke="#e6e9ef" stroke-width="0.12" opacity="1"/><circle cx="-3.450" cy="2.850" r="1.600" fill="none" stroke="#e6e9ef" stroke-width="0.12" opacity="1"/><circle cx="-3.450" cy="2.850" r="1.350" fill="none" stroke="#e6e9ef" stroke-width="0.12" opacity="1"/><circle cx="-2.000" cy="-4.000" r="1.350" fill="none" stroke="#e6e9ef" stroke-width="0.12" opacity="1"/><circle cx="0.000" cy="0.000" r="9.480" fill="none" stroke="#e6e9ef" stroke-width="0.12" opacity="1"/><circle cx="0.000" cy="0.000" r="1.600" fill="none" stroke="#e6e9ef" stroke-width="0.12" opacity="1"/><circle cx="0.000" cy="0.000" r="1.350" fill="none" stroke="#e6e9ef" stroke-width="0.12" opacity="1"/><circle cx="0.000" cy="4.500" r="1.350" fill="none" stroke="#e6e9ef" stroke-width="0.12" opacity="1"/><circle cx="2.000" cy="-4.000" r="1.600" fill="none" stroke="#e6e9ef" stroke-width="0.12" opacity="1"/><circle cx="2.000" cy="-4.000" r="1.350" fill="none" stroke="#e6e9ef" stroke-width="0.12" opacity="1"/><circle cx="3.450" cy="2.850" r="1.350" fill="none" stroke="#e6e9ef" stroke-width="0.12" opacity="1"/><circle cx="4.450" cy="-0.900" r="1.350" fill="none" stroke="#e6e9ef" stroke-width="0.12" opacity="1"/><circle cx="-10.310" cy="-10.310" r="2.800" fill="none" stroke="#6b7280" stroke-width="0.12" opacity="0.8"/><circle cx="-10.310" cy="-10.310" r="1.450" fill="none" stroke="#6b7280" stroke-width="0.12" opacity="0.8"/><circle cx="-10.310" cy="10.310" r="2.800" fill="none" stroke="#6b7280" stroke-width="0.12" opacity="0.8"/><circle cx="-10.310" cy="10.310" r="1.450" fill="none" stroke="#6b7280" stroke-width="0.12" opacity="0.8"/><circle cx="-4.450" cy="-0.900" r="1.350" fill="none" stroke="#6b7280" stroke-width="0.12" opacity="0.8"/><circle cx="-3.450" cy="2.850" r="1.600" fill="none" stroke="#6b7280" stroke-width="0.12" opacity="0.8"/><circle cx="-3.450" cy="2.850" r="1.350" fill="none" stroke="#6b7280" stroke-width="0.12" opacity="0.8"/><circle cx="-2.000" cy="-4.000" r="1.350" fill="none" stroke="#6b7280" stroke-width="0.12" opacity="0.8"/><circle cx="0.000" cy="0.000" r="9.480" fill="none" stroke="#6b7280" stroke-width="0.12" opacity="0.8"/><circle cx="0.000" cy="0.000" r="6.625" fill="none" stroke="#6b7280" stroke-width="0.12" opacity="0.8"/><circle cx="0.000" cy="0.000" r="1.600" fill="none" stroke="#6b7280" stroke-width="0.12" opacity="0.8"/><circle cx="0.000" cy="0.000" r="1.350" fill="none" stroke="#6b7280" stroke-width="0.12" opacity="0.8"/><circle cx="0.000" cy="4.500" r="1.350" fill="none" stroke="#6b7280" stroke-width="0.12" opacity="0.8"/><circle cx="2.000" cy="-4.000" r="1.600" fill="none" stroke="#6b7280" stroke-width="0.12" opacity="0.8"/><circle cx="2.000" cy="-4.000" r="1.350" fill="none" stroke="#6b7280" stroke-width="0.12" opacity="0.8"/><circle cx="3.450" cy="2.850" r="1.350" fill="none" stroke="#6b7280" stroke-width="0.12" opacity="0.8"/><circle cx="4.450" cy="-0.900" r="1.350" fill="none" stroke="#6b7280" stroke-width="0.12" opacity="0.8"/><circle cx="10.310" cy="-10.310" r="2.800" fill="none" stroke="#6b7280" stroke-width="0.12" opacity="0.8"/><circle cx="10.310" cy="-10.310" r="1.450" fill="none" stroke="#6b7280" stroke-width="0.12" opacity="0.8"/><circle cx="10.310" cy="10.310" r="2.800" fill="none" stroke="#6b7280" stroke-width="0.12" opacity="0.8"/><circle cx="10.310" cy="10.310" r="1.450" fill="none" stroke="#6b7280" stroke-width="0.12" opacity="0.8"/><rect x="-0.950" y="-0.950" width="1.900" height="1.900" rx="0.950" fill="#c79b5c"/><circle cx="0.000" cy="0.000" r="0.600" fill="#12151c"/><rect x="3.500" y="-1.850" width="1.900" height="1.900" rx="0.950" fill="#c79b5c"/><circle cx="4.450" cy="-0.900" r="0.600" fill="#12151c"/><rect x="2.500" y="1.900" width="1.900" height="1.900" rx="0.950" fill="#c79b5c"/><circle cx="3.450" cy="2.850" r="0.600" fill="#12151c"/><rect x="-0.950" y="3.550" width="1.900" height="1.900" rx="0.950" fill="#c79b5c"/><circle cx="0.000" cy="4.500" r="0.600" fill="#12151c"/><rect x="-4.400" y="1.900" width="1.900" height="1.900" rx="0.950" fill="#c79b5c"/><circle cx="-3.450" cy="2.850" r="0.600" fill="#12151c"/><rect x="-5.400" y="-1.850" width="1.900" height="1.900" rx="0.950" fill="#c79b5c"/><circle cx="-4.450" cy="-0.900" r="0.600" fill="#12151c"/><rect x="-2.950" y="-4.950" width="1.900" height="1.900" rx="0.950" fill="#c79b5c"/><circle cx="-2.000" cy="-4.000" r="0.600" fill="#12151c"/><rect x="1.050" y="-4.950" width="1.900" height="1.900" rx="0.950" fill="#c79b5c"/><circle cx="2.000" cy="-4.000" r="0.600" fill="#12151c"/><rect x="-13.410" y="-13.410" width="6.200" height="6.200" rx="3.100" fill="#c79b5c"/><circle cx="-10.310" cy="-10.310" r="1.600" fill="#12151c"/><rect x="7.210" y="-13.410" width="6.200" height="6.200" rx="3.100" fill="#c79b5c"/><circle cx="10.310" cy="-10.310" r="1.600" fill="#12151c"/><rect x="-13.410" y="7.210" width="6.200" height="6.200" rx="3.100" fill="#c79b5c"/><circle cx="-10.310" cy="10.310" r="1.600" fill="#12151c"/><rect x="7.210" y="7.210" width="6.200" height="6.200" rx="3.100" fill="#c79b5c"/><circle cx="10.310" cy="10.310" r="1.600" fill="#12151c"/></svg>