<svg xmlns="http://www.w3.org/2000/svg" viewBox="-4.75 -5.67 9.82 11.12" preserveAspectRatio="xMidYMid meet" style="width:100%;height:100%"><rect x="-4.75" y="-5.67" width="9.82" height="11.12" fill="#12151c"/><line x1="-3.500" y1="-4.200" x2="-3.350" y2="-4.200" stroke="#e6e9ef" stroke-width="0.200" stroke-linecap="round" opacity="1"/><line x1="-3.500" y1="-0.775" x2="-3.500" y2="-4.200" stroke="#e6e9ef" stroke-width="0.200" stroke-linecap="round" opacity="1"/><line x1="3.350" y1="-4.200" x2="3.500" y2="-4.200" stroke="#e6e9ef" stroke-width="0.200" stroke-linecap="round" opacity="1"/><line x1="3.500" y1="-0.775" x2="3.500" y2="-4.200" stroke="#e6e9ef" stroke-width="0.200" stroke-linecap="round" opacity="1"/><line x1="-3.425" y1="-0.425" x2="0.000" y2="1.100" stroke="#4a5160" stroke-width="0.080" stroke-linecap="round" opacity="0.7"/><line x1="-3.425" y1="-0.425" x2="3.425" y2="-0.425" stroke="#4a5160" stroke-width="0.080" stroke-linecap="round" opacity="0.7"/><line x1="-3.425" y1="2.625" x2="-3.425" y2="-0.425" stroke="#4a5160" stroke-width="0.080" stroke-linecap="round" opacity="0.7"/><line x1="-3.425" y1="2.625" x2="3.425" y2="2.625" stroke="#4a5160" stroke-width="0.080" stroke-linecap="round" opacity="0.7"/><line x1="-3.425" y1="3.125" x2="-2.425" y2="3.125" stroke="#4a5160" stroke-width="0.080" stroke-linecap="round" opacity="0.7"/><line x1="-3.425" y1="4.125" x2="-3.425" y2="3.125" stroke="#4a5160" stroke-width="0.080" stroke-linecap="round" opacity="0.7"/><line x1="-3.425" y1="4.125" x2="-2.925" y2="3.625" stroke="#4a5160" stroke-width="0.080" stroke-linecap="round" opacity="0.7"/><line x1="-3.425" y1="4.125" x2="-2.425" y2="4.125" stroke="#4a5160" stroke-width="0.080" stroke-linecap="round" opacity="0.7"/><line x1="-3.000" y1="-4.130" x2="0.000" y2="-3.630" stroke="#4a5160" stroke-width="0.080" stroke-linecap="round" opacity="0.7"/><line x1="-3.000" y1="-4.130" x2="3.000" y2="-4.130" stroke="#4a5160" stroke-width="0.080" stroke-linecap="round" opacity="0.7"/><line x1="-3.000" y1="-3.130" x2="-3.000" y2="-4.130" stroke="#4a5160" stroke-width="0.080" stroke-linecap="round" opacity="0.7"/><line x1="-3.000" y1="-3.130" x2="3.000" y2="-3.130" stroke="#4a5160" stroke-width="0.080" stroke-linecap="round" opacity="0.7"/><line x1="-2.925" y1="3.625" x2="-2.425" y2="4.125" stroke="#4a5160" stroke-width="0.080" stroke-linecap="round" opacity="0.7"/><line x1="-2.425" y1="4.125" x2="-2.425" y2="3.125" stroke="#4a5160" stroke-width="0.080" stroke-linecap="round" opacity="0.7"/><line x1="-1.925" y1="3.125" x2="-0.925" y2="3.125" stroke="#4a5160" stroke-width="0.080" stroke-linecap="round" opacity="0.7"/><line x1="-1.925" y1="4.125" x2="-1.925" y2="3.125" stroke="#4a5160" stroke-width="0.080" stroke-linecap="round" opacity="0.7"/><line x1="-1.925" y1="4.125" x2="-1.425" y2="3.625" stroke="#4a5160" stroke-width="0.080" stroke-linecap="round" opacity="0.7"/><line x1="-1.925" y1="4.125" x2="-0.925" y2="4.125" stroke="#4a5160" stroke-width="0.080" stroke-linecap="round" opacity="0.7"/><line x1="-1.425" y1="3.625" x2="-0.925" y2="4.125" stroke="#4a5160" stroke-width="0.080" stroke-linecap="round" opacity="0.7"/><line x1="-0.925" y1="4.125" x2="-0.925" y2="3.125" stroke="#4a5160" stroke-width="0.080" stroke-linecap="round" opacity="0.7"/><line x1="-0.500" y1="0.000" x2="0.000" y2="0.000" stroke="#4a5160" stroke-width="0.080" stroke-linecap="round" opacity="0.7"/><line x1="-0.425" y1="2.625" x2="3.425" y2="2.625" stroke="#4a5160" stroke-width="0.080" stroke-linecap="round" opacity="0.7"/><line x1="-0.425" y1="4.125" x2="-0.425" y2="2.625" stroke="#4a5160" stroke-width="0.080" stroke-linecap="round" opacity="0.7"/><line x1="-0.425" y1="4.125" x2="1.500" y2="3.375" stroke="#4a5160" stroke-width="0.080" stroke-linecap="round" opacity="0.7"/><line x1="-0.425" y1="4.125" x2="3.425" y2="4.125" stroke="#4a5160" stroke-width="0.080" stroke-linecap="round" opacity="0.7"/><line x1="0.000" y1="-3.630" x2="3.000" y2="-4.130" stroke="#4a5160" stroke-width="0.080" stroke-linecap="round" opacity="0.7"/><line x1="0.000" y1="0.000" x2="0.000" y2="-0.500" stroke="#4a5160" stroke-width="0.080" stroke-linecap="round" opacity="0.7"/><line x1="0.000" y1="0.000" x2="0.500" y2="0.000" stroke="#4a5160" stroke-width="0.080" stroke-linecap="round" opacity="0.7"/><line x1="0.000" y1="0.500" x2="0.000" y2="0.000" stroke="#4a5160" stroke-width="0.080" stroke-linecap="round" opacity="0.7"/><line x1="0.000" y1="1.100" x2="3.425" y2="-0.425" stroke="#4a5160" stroke-width="0.080" stroke-linecap="round" opacity="0.7"/><line x1="1.500" y1="3.375" x2="3.425" y2="4.125" stroke="#4a5160" stroke-width="0.080" stroke-linecap="round" opacity="0.7"/><line x1="3.000" y1="-3.130" x2="3.000" y2="-4.130" stroke="#4a5160" stroke-width="0.080" stroke-linecap="round" opacity="0.7"/><line x1="3.425" y1="2.625" x2="3.425" y2="-0.425" stroke="#4a5160" stroke-width="0.080" stroke-linecap="round" opacity="0.7"/><line x1="3.425" y1="4.125" x2="3.425" y2="2.625" stroke="#4a5160" stroke-width="0.080" stroke-linecap="round" opacity="0.7"/><line x1="-3.750" y1="-4.450" x2="3.750" y2="-4.450" stroke="#d24d4d" stroke-width="0.080" stroke-linecap="round" opacity="0.7"/><line x1="-3.750" y1="4.450" x2="-3.750" y2="-4.450" stroke="#d24d4d" stroke-width="0.080" stroke-linecap="round" opacity="0.7"/><line x1="-3.750" y1="4.450" x2="3.750" y2="4.450" stroke="#d24d4d" stroke-width="0.080" stroke-linecap="round" opacity="0.7"/><line x1="3.750" y1="4.450" x2="3.750" y2="-4.450" stroke="#d24d4d" stroke-width="0.080" stroke-linecap="round" opacity="0.7"/><line x1="-3.500" y1="-4.200" x2="3.500" y2="-4.200" stroke="#6b7280" stroke-width="0.100" stroke-linecap="round" opacity="0.8"/><line x1="-3.500" y1="4.200" x2="-3.500" y2="-4.200" stroke="#6b7280" stroke-width="0.100" stroke-linecap="round" opacity="0.8"/><line x1="-3.500" y1="4.200" x2="3.500" y2="4.200" stroke="#6b7280" stroke-width="0.100" stroke-linecap="round" opacity="0.8"/><line x1="3.500" y1="4.200" x2="3.500" y2="-4.200" stroke="#6b7280" stroke-width="0.100" stroke-linecap="round" opacity="0.8"/><circle cx="3.950" cy="-4.550" r="0.125" fill="none" stroke="#e6e9ef" stroke-width="0.12" opacity="1"/><circle cx="3.000" cy="-3.700" r="0.250" fill="none" stroke="#6b7280" stroke-width="0.12" opacity="0.8"/><rect x="-3.000" y="-4.130" width="6.000" height="1.000" rx="0.000" fill="#c79b5c"/><rect x="-3.425" y="-0.425" width="6.850" height="3.050" rx="0.000" fill="#c79b5c"/><rect x="-0.425" y="2.625" width="3.850" height="1.500" rx="0.000" fill="#c79b5c"/><rect x="-3.425" y="3.125" width="1.000" height="1.000" rx="0.000" fill="#c79b5c"/><rect x="-1.925" y="3.125" width="1.000" height="1.000" rx="0.000" fill="#c79b5c"/></svg>