<svg xmlns="http://www.w3.org/2000/svg" viewBox="-4.75 -4.45 9.50 8.30" preserveAspectRatio="xMidYMid meet" style="width:100%;height:100%"><rect x="-4.75" y="-4.45" width="9.50" height="8.30" fill="#12151c"/><line x1="-3.500" y1="-3.200" x2="3.500" y2="-3.200" stroke="#e6e9ef" stroke-width="0.200" stroke-linecap="round" opacity="1"/><line x1="-3.500" y1="-1.300" x2="-3.500" y2="-3.200" stroke="#e6e9ef" stroke-width="0.200" stroke-linecap="round" opacity="1"/><line x1="-3.500" y1="2.600" x2="-3.500" y2="1.300" stroke="#e6e9ef" stroke-width="0.200" stroke-linecap="round" opacity="1"/><line x1="-3.500" y1="2.600" x2="3.500" y2="2.600" stroke="#e6e9ef" stroke-width="0.200" stroke-linecap="round" opacity="1"/><line x1="-2.500" y1="1.600" x2="2.500" y2="1.600" stroke="#e6e9ef" stroke-width="0.200" stroke-linecap="round" opacity="1"/><line x1="-2.500" y1="2.600" x2="-2.500" y2="1.350" stroke="#e6e9ef" stroke-width="0.200" stroke-linecap="round" opacity="1"/><line x1="-1.200" y1="1.200" x2="-0.618" y2="1.200" stroke="#e6e9ef" stroke-width="0.200" stroke-linecap="round" opacity="1"/><line x1="0.618" y1="1.200" x2="1.882" y2="1.200" stroke="#e6e9ef" stroke-width="0.200" stroke-linecap="round" opacity="1"/><line x1="2.500" y1="2.600" x2="2.500" y2="1.350" stroke="#e6e9ef" stroke-width="0.200" stroke-linecap="round" opacity="1"/><line x1="3.500" y1="-0.907" x2="3.500" y2="-3.200" stroke="#e6e9ef" stroke-width="0.200" stroke-linecap="round" opacity="1"/><line x1="3.500" y1="2.600" x2="3.500" y2="0.907" stroke="#e6e9ef" stroke-width="0.200" stroke-linecap="round" opacity="1"/><line x1="-3.000" y1="0.000" x2="-2.500" y2="0.000" stroke="#4a5160" stroke-width="0.100" stroke-linecap="round" opacity="0.7"/><line x1="-2.500" y1="0.000" x2="-2.500" y2="-0.500" stroke="#4a5160" stroke-width="0.100" stroke-linecap="round" opacity="0.7"/><line x1="-2.500" y1="0.000" x2="-2.000" y2="0.000" stroke="#4a5160" stroke-width="0.100" stroke-linecap="round" opacity="0.7"/><line x1="-2.500" y1="0.500" x2="-2.500" y2="0.000" stroke="#4a5160" stroke-width="0.100" stroke-linecap="round" opacity="0.7"/><line x1="-0.500" y1="0.000" x2="0.000" y2="0.000" stroke="#4a5160" stroke-width="0.100" stroke-linecap="round" opacity="0.7"/><line x1="0.000" y1="0.000" x2="0.000" y2="-0.500" stroke="#4a5160" stroke-width="0.100" stroke-linecap="round" opacity="0.7"/><line x1="0.000" y1="0.000" x2="0.500" y2="0.000" stroke="#4a5160" stroke-width="0.100" stroke-linecap="round" opacity="0.7"/><line x1="0.000" y1="0.500" x2="0.000" y2="0.000" stroke="#4a5160" stroke-width="0.100" stroke-linecap="round" opacity="0.7"/><line x1="2.000" y1="0.000" x2="2.500" y2="0.000" stroke="#4a5160" stroke-width="0.100" stroke-linecap="round" opacity="0.7"/><line x1="2.500" y1="0.000" x2="2.500" y2="-0.500" stroke="#4a5160" stroke-width="0.100" stroke-linecap="round" opacity="0.7"/><line x1="2.500" y1="0.000" x2="3.000" y2="0.000" stroke="#4a5160" stroke-width="0.100" stroke-linecap="round" opacity="0.7"/><line x1="2.500" y1="0.500" x2="2.500" y2="0.000" stroke="#4a5160" stroke-width="0.100" stroke-linecap="round" opacity="0.7"/><line x1="-3.500" y1="-3.200" x2="3.500" y2="-3.200" stroke="#6b7280" stroke-width="0.100" stroke-linecap="round" opacity="0.8"/><line x1="-3.500" y1="2.600" x2="-3.500" y2="-3.200" stroke="#6b7280" stroke-width="0.100" stroke-linecap="round" opacity="0.8"/><line x1="-3.500" y1="2.600" x2="3.500" y2="2.600" stroke="#6b7280" stroke-width="0.100" stroke-linecap="round" opacity="0.8"/><line x1="-2.500" y1="1.200" x2="2.500" y2="1.200" stroke="#6b7280" stroke-width="0.100" stroke-linecap="round" opacity="0.8"/><line x1="-2.500" y1="1.600" x2="2.500" y2="1.600" stroke="#6b7280" stroke-width="0.100" stroke-linecap="round" opacity="0.8"/><line x1="-2.500" y1="2.600" x2="-2.500" y2="1.200" stroke="#6b7280" stroke-width="0.100" stroke-linecap="round" opacity="0.8"/><line x1="2.500" y1="2.600" x2="2.500" y2="1.200" stroke="#6b7280" stroke-width="0.100" stroke-linecap="round" opacity="0.8"/><line x1="3.500" y1="2.600" x2="3.500" y2="-3.200" stroke="#6b7280" stroke-width="0.100" stroke-linecap="round" opacity="0.8"/><line x1="-3.750" y1="-3.450" x2="3.750" y2="-3.450" stroke="#d24d4d" stroke-width="0.080" stroke-linecap="round" opacity="0.7"/><line x1="3.750" y1="-3.450" x2="3.750" y2="2.850" stroke="#d24d4d" stroke-width="0.080" stroke-linecap="round" opacity="0.7"/><line x1="3.750" y1="2.850" x2="-3.750" y2="2.850" stroke="#d24d4d" stroke-width="0.080" stroke-linecap="round" opacity="0.7"/><line x1="-3.750" y1="2.850" x2="-3.750" y2="-3.450" stroke="#d24d4d" stroke-width="0.080" stroke-linecap="round" opacity="0.7"/><rect x="-3.450" y="-0.950" width="1.900" height="1.900" rx="0.000" fill="#c79b5c"/><circle cx="-2.500" cy="0.000" r="0.600" fill="#12151c"/><rect x="-0.950" y="-0.950" width="1.900" height="1.900" rx="0.950" fill="#c79b5c"/><circle cx="0.000" cy="0.000" r="0.600" fill="#12151c"/><rect x="1.550" y="-0.950" width="1.900" height="1.900" rx="0.950" fill="#c79b5c"/><circle cx="2.500" cy="0.000" r="0.600" fill="#12151c"/><polygon points="-2.95,2.00 -2.05,2.00 -2.50,1.40" fill="#ffffff"/></svg>