<svg xmlns="http://www.w3.org/2000/svg" viewBox="-48.25 -22.25 96.56 44.50" preserveAspectRatio="xMidYMid meet" style="width:100%;height:100%"><rect x="-48.25" y="-22.25" width="96.56" height="44.50" fill="#12151c"/><line x1="-46.942" y1="-4.000" x2="-39.942" y2="-4.000" stroke="#e6e9ef" stroke-width="0.200" stroke-linecap="round" opacity="1"/><line x1="-46.942" y1="4.000" x2="-39.942" y2="4.000" stroke="#e6e9ef" stroke-width="0.200" stroke-linecap="round" opacity="1"/><line x1="-46.942" y1="20.500" x2="-46.942" y2="-20.500" stroke="#e6e9ef" stroke-width="0.200" stroke-linecap="round" opacity="1"/><line x1="-46.442" y1="-21.000" x2="46.558" y2="-21.000" stroke="#e6e9ef" stroke-width="0.200" stroke-linecap="round" opacity="1"/><line x1="-46.442" y1="21.000" x2="46.558" y2="21.000" stroke="#e6e9ef" stroke-width="0.200" stroke-linecap="round" opacity="1"/><line x1="-37.942" y1="-4.031" x2="-37.942" y2="-20.500" stroke="#e6e9ef" stroke-width="0.200" stroke-linecap="round" opacity="1"/><line x1="-37.942" y1="20.500" x2="-37.942" y2="4.031" stroke="#e6e9ef" stroke-width="0.200" stroke-linecap="round" opacity="1"/><line x1="-35.700" y1="-1.500" x2="-12.942" y2="-1.500" stroke="#e6e9ef" stroke-width="0.200" stroke-linecap="round" opacity="1"/><line x1="-35.700" y1="1.500" x2="-12.942" y2="1.500" stroke="#e6e9ef" stroke-width="0.200" stroke-linecap="round" opacity="1"/><line x1="-12.942" y1="-1.500" x2="-12.942" y2="-21.000" stroke="#e6e9ef" stroke-width="0.200" stroke-linecap="round" opacity="1"/><line x1="-12.942" y1="-1.500" x2="-11.442" y2="0.000" stroke="#e6e9ef" stroke-width="0.200" stroke-linecap="round" opacity="1"/><line x1="-12.942" y1="1.500" x2="-11.442" y2="0.000" stroke="#e6e9ef" stroke-width="0.200" stroke-linecap="round" opacity="1"/><line x1="-12.942" y1="21.000" x2="-12.942" y2="1.500" stroke="#e6e9ef" stroke-width="0.200" stroke-linecap="round" opacity="1"/><line x1="-11.442" y1="0.000" x2="-9.942" y2="-1.500" stroke="#e6e9ef" stroke-width="0.200" stroke-linecap="round" opacity="1"/><line x1="-11.442" y1="0.000" x2="-9.942" y2="1.500" stroke="#e6e9ef" stroke-width="0.200" stroke-linecap="round" opacity="1"/><line x1="-9.942" y1="-1.500" x2="-9.942" y2="-21.000" stroke="#e6e9ef" stroke-width="0.200" stroke-linecap="round" opacity="1"/><line x1="-9.942" y1="-1.500" x2="10.058" y2="-1.500" stroke="#e6e9ef" stroke-width="0.200" stroke-linecap="round" opacity="1"/><line x1="-9.942" y1="1.500" x2="10.058" y2="1.500" stroke="#e6e9ef" stroke-width="0.200" stroke-linecap="round" opacity="1"/><line x1="-9.942" y1="21.000" x2="-9.942" y2="1.500" stroke="#e6e9ef" stroke-width="0.200" stroke-linecap="round" opacity="1"/><line x1="10.058" y1="-1.500" x2="10.058" y2="-21.000" stroke="#e6e9ef" stroke-width="0.200" stroke-linecap="round" opacity="1"/><line x1="10.058" y1="-1.500" x2="11.558" y2="0.000" stroke="#e6e9ef" stroke-width="0.200" stroke-linecap="round" opacity="1"/><line x1="10.058" y1="1.500" x2="11.558" y2="0.000" stroke="#e6e9ef" stroke-width="0.200" stroke-linecap="round" opacity="1"/><line x1="10.058" y1="21.000" x2="10.058" y2="1.500" stroke="#e6e9ef" stroke-width="0.200" stroke-linecap="round" opacity="1"/><line x1="11.558" y1="0.000" x2="13.058" y2="-1.500" stroke="#e6e9ef" stroke-width="0.200" stroke-linecap="round" opacity="1"/><line x1="11.558" y1="0.000" x2="13.058" y2="1.500" stroke="#e6e9ef" stroke-width="0.200" stroke-linecap="round" opacity="1"/><line x1="13.058" y1="-1.500" x2="13.058" y2="-21.000" stroke="#e6e9ef" stroke-width="0.200" stroke-linecap="round" opacity="1"/><line x1="13.058" y1="-1.500" x2="35.815" y2="-1.500" stroke="#e6e9ef" stroke-width="0.200" stroke-linecap="round" opacity="1"/><line x1="13.058" y1="1.500" x2="35.815" y2="1.500" stroke="#e6e9ef" stroke-width="0.200" stroke-linecap="round" opacity="1"/><line x1="13.058" y1="21.000" x2="13.058" y2="1.500" stroke="#e6e9ef" stroke-width="0.200" stroke-linecap="round" opacity="1"/><line x1="38.058" y1="-4.031" x2="38.058" y2="-20.500" stroke="#e6e9ef" stroke-width="0.200" stroke-linecap="round" opacity="1"/><line x1="38.058" y1="20.500" x2="38.058" y2="4.031" stroke="#e6e9ef" stroke-width="0.200" stroke-linecap="round" opacity="1"/><line x1="40.058" y1="-4.000" x2="47.058" y2="-4.000" stroke="#e6e9ef" stroke-width="0.200" stroke-linecap="round" opacity="1"/><line x1="40.058" y1="4.000" x2="47.058" y2="4.000" stroke="#e6e9ef" stroke-width="0.200" stroke-linecap="round" opacity="1"/><line x1="47.058" y1="20.500" x2="47.058" y2="-20.500" stroke="#e6e9ef" stroke-width="0.200" stroke-linecap="round" opacity="1"/><line x1="-40.200" y1="0.000" x2="-40.000" y2="0.000" stroke="#4a5160" stroke-width="0.080" stroke-linecap="round" opacity="0.7"/><line x1="-40.000" y1="0.000" x2="-40.000" y2="-0.200" stroke="#4a5160" stroke-width="0.080" stroke-linecap="round" opacity="0.7"/><line x1="-40.000" y1="0.000" x2="-39.800" y2="0.000" stroke="#4a5160" stroke-width="0.080" stroke-linecap="round" opacity="0.7"/><line x1="-40.000" y1="0.200" x2="-40.000" y2="0.000" stroke="#4a5160" stroke-width="0.080" stroke-linecap="round" opacity="0.7"/><line x1="-32.000" y1="-20.000" x2="-14.000" y2="-20.000" stroke="#4a5160" stroke-width="0.080" stroke-linecap="round" opacity="0.7"/><line x1="-32.000" y1="-2.500" x2="-32.000" y2="-20.000" stroke="#4a5160" stroke-width="0.080" stroke-linecap="round" opacity="0.7"/><line x1="-32.000" y1="-2.500" x2="-14.000" y2="-2.500" stroke="#4a5160" stroke-width="0.080" stroke-linecap="round" opacity="0.7"/><line x1="-32.000" y1="2.500" x2="-14.000" y2="2.500" stroke="#4a5160" stroke-width="0.080" stroke-linecap="round" opacity="0.7"/><line x1="-32.000" y1="20.000" x2="-32.000" y2="2.500" stroke="#4a5160" stroke-width="0.080" stroke-linecap="round" opacity="0.7"/><line x1="-32.000" y1="20.000" x2="-14.000" y2="20.000" stroke="#4a5160" stroke-width="0.080" stroke-linecap="round" opacity="0.7"/><line x1="-23.200" y1="-9.000" x2="-23.000" y2="-9.000" stroke="#4a5160" stroke-width="0.080" stroke-linecap="round" opacity="0.7"/><line x1="-23.200" y1="9.000" x2="-23.000" y2="9.000" stroke="#4a5160" stroke-width="0.080" stroke-linecap="round" opacity="0.7"/><line x1="-23.000" y1="-9.000" x2="-23.000" y2="-9.200" stroke="#4a5160" stroke-width="0.080" stroke-linecap="round" opacity="0.7"/><line x1="-23.000" y1="-9.000" x2="-22.800" y2="-9.000" stroke="#4a5160" stroke-width="0.080" stroke-linecap="round" opacity="0.7"/><line x1="-23.000" y1="-8.800" x2="-23.000" y2="-9.000" stroke="#4a5160" stroke-width="0.080" stroke-linecap="round" opacity="0.7"/><line x1="-23.000" y1="9.000" x2="-23.000" y2="8.800" stroke="#4a5160" stroke-width="0.080" stroke-linecap="round" opacity="0.7"/><line x1="-23.000" y1="9.000" x2="-22.800" y2="9.000" stroke="#4a5160" stroke-width="0.080" stroke-linecap="round" opacity="0.7"/><line x1="-23.000" y1="9.200" x2="-23.000" y2="9.000" stroke="#4a5160" stroke-width="0.080" stroke-linecap="round" opacity="0.7"/><line x1="-14.000" y1="-2.500" x2="-14.000" y2="-20.000" stroke="#4a5160" stroke-width="0.080" stroke-linecap="round" opacity="0.7"/><line x1="-14.000" y1="20.000" x2="-14.000" y2="2.500" stroke="#4a5160" stroke-width="0.080" stroke-linecap="round" opacity="0.7"/><line x1="-9.000" y1="-20.000" x2="9.000" y2="-20.000" stroke="#4a5160" stroke-width="0.080" stroke-linecap="round" opacity="0.7"/><line x1="-9.000" y1="-2.500" x2="-9.000" y2="-20.000" stroke="#4a5160" stroke-width="0.080" stroke-linecap="round" opacity="0.7"/><line x1="-9.000" y1="-2.500" x2="9.000" y2="-2.500" stroke="#4a5160" stroke-width="0.080" stroke-linecap="round" opacity="0.7"/><line x1="-9.000" y1="2.500" x2="9.000" y2="2.500" stroke="#4a5160" stroke-width="0.080" stroke-linecap="round" opacity="0.7"/><line x1="-9.000" y1="20.000" x2="-9.000" y2="2.500" stroke="#4a5160" stroke-width="0.080" stroke-linecap="round" opacity="0.7"/><line x1="-9.000" y1="20.000" x2="9.000" y2="20.000" stroke="#4a5160" stroke-width="0.080" stroke-linecap="round" opacity="0.7"/><line x1="-0.500" y1="0.000" x2="0.000" y2="0.000" stroke="#4a5160" stroke-width="0.080" stroke-linecap="round" opacity="0.7"/><line x1="-0.200" y1="-9.000" x2="0.000" y2="-9.000" stroke="#4a5160" stroke-width="0.080" stroke-linecap="round" opacity="0.7"/><line x1="-0.200" y1="9.000" x2="0.000" y2="9.000" stroke="#4a5160" stroke-width="0.080" stroke-linecap="round" opacity="0.7"/><line x1="0.000" y1="-9.000" x2="0.000" y2="-9.200" stroke="#4a5160" stroke-width="0.080" stroke-linecap="round" opacity="0.7"/><line x1="0.000" y1="-9.000" x2="0.200" y2="-9.000" stroke="#4a5160" stroke-width="0.080" stroke-linecap="round" opacity="0.7"/><line x1="0.000" y1="-8.800" x2="0.000" y2="-9.000" stroke="#4a5160" stroke-width="0.080" stroke-linecap="round" opacity="0.7"/><line x1="0.000" y1="0.000" x2="0.000" y2="-0.500" stroke="#4a5160" stroke-width="0.080" stroke-linecap="round" opacity="0.7"/><line x1="0.000" y1="0.000" x2="0.500" y2="0.000" stroke="#4a5160" stroke-width="0.080" stroke-linecap="round" opacity="0.7"/><line x1="0.000" y1="0.500" x2="0.000" y2="0.000" stroke="#4a5160" stroke-width="0.080" stroke-linecap="round" opacity="0.7"/><line x1="0.000" y1="9.000" x2="0.000" y2="8.800" stroke="#4a5160" stroke-width="0.080" stroke-linecap="round" opacity="0.7"/><line x1="0.000" y1="9.000" x2="0.200" y2="9.000" stroke="#4a5160" stroke-width="0.080" stroke-linecap="round" opacity="0.7"/><line x1="0.000" y1="9.200" x2="0.000" y2="9.000" stroke="#4a5160" stroke-width="0.080" stroke-linecap="round" opacity="0.7"/><line x1="9.000" y1="-2.500" x2="9.000" y2="-20.000" stroke="#4a5160" stroke-width="0.080" stroke-linecap="round" opacity="0.7"/><line x1="9.000" y1="20.000" x2="9.000" y2="2.500" stroke="#4a5160" stroke-width="0.080" stroke-linecap="round" opacity="0.7"/><line x1="14.000" y1="-20.000" x2="32.000" y2="-20.000" stroke="#4a5160" stroke-width="0.080" stroke-linecap="round" opacity="0.7"/><line x1="14.000" y1="-2.500" x2="14.000" y2="-20.000" stroke="#4a5160" stroke-width="0.080" stroke-linecap="round" opacity="0.7"/><line x1="14.000" y1="-2.500" x2="32.000" y2="-2.500" stroke="#4a5160" stroke-width="0.080" stroke-linecap="round" opacity="0.7"/><line x1="14.000" y1="2.500" x2="32.000" y2="2.500" stroke="#4a5160" stroke-width="0.080" stroke-linecap="round" opacity="0.7"/><line x1="14.000" y1="20.000" x2="14.000" y2="2.500" stroke="#4a5160" stroke-width="0.080" stroke-linecap="round" opacity="0.7"/><line x1="14.000" y1="20.000" x2="32.000" y2="20.000" stroke="#4a5160" stroke-width="0.080" stroke-linecap="round" opacity="0.7"/><line x1="22.800" y1="-9.000" x2="23.000" y2="-9.000" stroke="#4a5160" stroke-width="0.080" stroke-linecap="round" opacity="0.7"/><line x1="22.800" y1="9.000" x2="23.000" y2="9.000" stroke="#4a5160" stroke-width="0.080" stroke-linecap="round" opacity="0.7"/><line x1="23.000" y1="-9.000" x2="23.000" y2="-9.200" stroke="#4a5160" stroke-width="0.080" stroke-linecap="round" opacity="0.7"/><line x1="23.000" y1="-9.000" x2="23.200" y2="-9.000" stroke="#4a5160" stroke-width="0.080" stroke-linecap="round" opacity="0.7"/><line x1="23.000" y1="-8.800" x2="23.000" y2="-9.000" stroke="#4a5160" stroke-width="0.080" stroke-linecap="round" opacity="0.7"/><line x1="23.000" y1="9.000" x2="23.000" y2="8.800" stroke="#4a5160" stroke-width="0.080" stroke-linecap="round" opacity="0.7"/><line x1="23.000" y1="9.000" x2="23.200" y2="9.000" stroke="#4a5160" stroke-width="0.080" stroke-linecap="round" opacity="0.7"/><line x1="23.000" y1="9.200" x2="23.000" y2="9.000" stroke="#4a5160" stroke-width="0.080" stroke-linecap="round" opacity="0.7"/><line x1="32.000" y1="-2.500" x2="32.000" y2="-20.000" stroke="#4a5160" stroke-width="0.080" stroke-linecap="round" opacity="0.7"/><line x1="32.000" y1="20.000" x2="32.000" y2="2.500" stroke="#4a5160" stroke-width="0.080" stroke-linecap="round" opacity="0.7"/><line x1="39.800" y1="0.000" x2="40.000" y2="0.000" stroke="#4a5160" stroke-width="0.080" stroke-linecap="round" opacity="0.7"/><line x1="40.000" y1="0.000" x2="40.000" y2="-0.200" stroke="#4a5160" stroke-width="0.080" stroke-linecap="round" opacity="0.7"/><line x1="40.000" y1="0.000" x2="40.200" y2="0.000" stroke="#4a5160" stroke-width="0.080" stroke-linecap="round" opacity="0.7"/><line x1="40.000" y1="0.200" x2="40.000" y2="0.000" stroke="#4a5160" stroke-width="0.080" stroke-linecap="round" opacity="0.7"/><line x1="-47.000" y1="-4.000" x2="-40.000" y2="-4.000" stroke="#6b7280" stroke-width="0.100" stroke-linecap="round" opacity="0.8"/><line x1="-47.000" y1="4.000" x2="-40.000" y2="4.000" stroke="#6b7280" stroke-width="0.100" stroke-linecap="round" opacity="0.8"/><line x1="-47.000" y1="20.500" x2="-47.000" y2="-20.500" stroke="#6b7280" stroke-width="0.100" stroke-linecap="round" opacity="0.8"/><line x1="-46.500" y1="-21.000" x2="46.500" y2="-21.000" stroke="#6b7280" stroke-width="0.100" stroke-linecap="round" opacity="0.8"/><line x1="-46.500" y1="21.000" x2="46.500" y2="21.000" stroke="#6b7280" stroke-width="0.100" stroke-linecap="round" opacity="0.8"/><line x1="-38.000" y1="-4.031" x2="-38.000" y2="-20.500" stroke="#6b7280" stroke-width="0.100" stroke-linecap="round" opacity="0.8"/><line x1="-38.000" y1="20.500" x2="-38.000" y2="4.031" stroke="#6b7280" stroke-width="0.100" stroke-linecap="round" opacity="0.8"/><line x1="-35.757" y1="-1.500" x2="-13.000" y2="-1.500" stroke="#6b7280" stroke-width="0.100" stroke-linecap="round" opacity="0.8"/><line x1="-35.757" y1="1.500" x2="-13.000" y2="1.500" stroke="#6b7280" stroke-width="0.100" stroke-linecap="round" opacity="0.8"/><line x1="-29.250" y1="-17.500" x2="-16.750" y2="-17.500" stroke="#6b7280" stroke-width="0.100" stroke-linecap="round" opacity="0.8"/><line x1="-29.250" y1="-4.250" x2="-29.250" y2="-17.500" stroke="#6b7280" stroke-width="0.100" stroke-linecap="round" opacity="0.8"/><line x1="-29.250" y1="-4.250" x2="-16.750" y2="-4.250" stroke="#6b7280" stroke-width="0.100" stroke-linecap="round" opacity="0.8"/><line x1="-29.250" y1="4.250" x2="-16.750" y2="4.250" stroke="#6b7280" stroke-width="0.100" stroke-linecap="round" opacity="0.8"/><line x1="-29.250" y1="17.500" x2="-29.250" y2="4.250" stroke="#6b7280" stroke-width="0.100" stroke-linecap="round" opacity="0.8"/><line x1="-29.250" y1="17.500" x2="-16.750" y2="17.500" stroke="#6b7280" stroke-width="0.100" stroke-linecap="round" opacity="0.8"/><line x1="-25.208" y1="-9.472" x2="-23.472" y2="-9.472" stroke="#6b7280" stroke-width="0.100" stroke-linecap="round" opacity="0.8"/><line x1="-25.208" y1="-8.528" x2="-25.208" y2="-9.472" stroke="#6b7280" stroke-width="0.100" stroke-linecap="round" opacity="0.8"/><line x1="-25.208" y1="-8.528" x2="-23.472" y2="-8.528" stroke="#6b7280" stroke-width="0.100" stroke-linecap="round" opacity="0.8"/><line x1="-25.208" y1="8.528" x2="-23.472" y2="8.528" stroke="#6b7280" stroke-width="0.100" stroke-linecap="round" opacity="0.8"/><line x1="-25.208" y1="9.472" x2="-25.208" y2="8.528" stroke="#6b7280" stroke-width="0.100" stroke-linecap="round" opacity="0.8"/><line x1="-25.208" y1="9.472" x2="-23.472" y2="9.472" stroke="#6b7280" stroke-width="0.100" stroke-linecap="round" opacity="0.8"/><line x1="-23.472" y1="-11.208" x2="-22.528" y2="-11.208" stroke="#6b7280" stroke-width="0.100" stroke-linecap="round" opacity="0.8"/><line x1="-23.472" y1="-9.472" x2="-23.472" y2="-11.208" stroke="#6b7280" stroke-width="0.100" stroke-linecap="round" opacity="0.8"/><line x1="-23.472" y1="-6.792" x2="-23.472" y2="-8.528" stroke="#6b7280" stroke-width="0.100" stroke-linecap="round" opacity="0.8"/><line x1="-23.472" y1="-6.792" x2="-22.528" y2="-6.792" stroke="#6b7280" stroke-width="0.100" stroke-linecap="round" opacity="0.8"/><line x1="-23.472" y1="6.792" x2="-22.528" y2="6.792" stroke="#6b7280" stroke-width="0.100" stroke-linecap="round" opacity="0.8"/><line x1="-23.472" y1="8.528" x2="-23.472" y2="6.792" stroke="#6b7280" stroke-width="0.100" stroke-linecap="round" opacity="0.8"/><line x1="-23.472" y1="11.208" x2="-23.472" y2="9.472" stroke="#6b7280" stroke-width="0.100" stroke-linecap="round" opacity="0.8"/><line x1="-23.472" y1="11.208" x2="-22.528" y2="11.208" stroke="#6b7280" stroke-width="0.100" stroke-linecap="round" opacity="0.8"/><line x1="-22.528" y1="-9.472" x2="-22.528" y2="-11.208" stroke="#6b7280" stroke-width="0.100" stroke-linecap="round" opacity="0.8"/><line x1="-22.528" y1="-9.472" x2="-20.792" y2="-9.472" stroke="#6b7280" stroke-width="0.100" stroke-linecap="round" opacity="0.8"/><line x1="-22.528" y1="-8.528" x2="-20.792" y2="-8.528" stroke="#6b7280" stroke-width="0.100" stroke-linecap="round" opacity="0.8"/><line x1="-22.528" y1="-6.792" x2="-22.528" y2="-8.528" stroke="#6b7280" stroke-width="0.100" stroke-linecap="round" opacity="0.8"/><line x1="-22.528" y1="8.528" x2="-22.528" y2="6.792" stroke="#6b7280" stroke-width="0.100" stroke-linecap="round" opacity="0.8"/><line x1="-22.528" y1="8.528" x2="-20.792" y2="8.528" stroke="#6b7280" stroke-width="0.100" stroke-linecap="round" opacity="0.8"/><line x1="-22.528" y1="9.472" x2="-20.792" y2="9.472" stroke="#6b7280" stroke-width="0.100" stroke-linecap="round" opacity="0.8"/><line x1="-22.528" y1="11.208" x2="-22.528" y2="9.472" stroke="#6b7280" stroke-width="0.100" stroke-linecap="round" opacity="0.8"/><line x1="-20.792" y1="-8.528" x2="-20.792" y2="-9.472" stroke="#6b7280" stroke-width="0.100" stroke-linecap="round" opacity="0.8"/><line x1="-20.792" y1="9.472" x2="-20.792" y2="8.528" stroke="#6b7280" stroke-width="0.100" stroke-linecap="round" opacity="0.8"/><line x1="-16.750" y1="-4.250" x2="-16.750" y2="-17.500" stroke="#6b7280" stroke-width="0.100" stroke-linecap="round" opacity="0.8"/><line x1="-16.750" y1="17.500" x2="-16.750" y2="4.250" stroke="#6b7280" stroke-width="0.100" stroke-linecap="round" opacity="0.8"/><line x1="-13.000" y1="-1.500" x2="-13.000" y2="-21.000" stroke="#6b7280" stroke-width="0.100" stroke-linecap="round" opacity="0.8"/><line x1="-13.000" y1="-1.500" x2="-11.500" y2="0.000" stroke="#6b7280" stroke-width="0.100" stroke-linecap="round" opacity="0.8"/><line x1="-13.000" y1="1.500" x2="-11.500" y2="0.000" stroke="#6b7280" stroke-width="0.100" stroke-linecap="round" opacity="0.8"/><line x1="-13.000" y1="21.000" x2="-13.000" y2="1.500" stroke="#6b7280" stroke-width="0.100" stroke-linecap="round" opacity="0.8"/><line x1="-11.500" y1="0.000" x2="-10.000" y2="-1.500" stroke="#6b7280" stroke-width="0.100" stroke-linecap="round" opacity="0.8"/><line x1="-11.500" y1="0.000" x2="-10.000" y2="1.500" stroke="#6b7280" stroke-width="0.100" stroke-linecap="round" opacity="0.8"/><line x1="-10.000" y1="-1.500" x2="-10.000" y2="-21.000" stroke="#6b7280" stroke-width="0.100" stroke-linecap="round" opacity="0.8"/><line x1="-10.000" y1="-1.500" x2="10.000" y2="-1.500" stroke="#6b7280" stroke-width="0.100" stroke-linecap="round" opacity="0.8"/><line x1="-10.000" y1="1.500" x2="10.000" y2="1.500" stroke="#6b7280" stroke-width="0.100" stroke-linecap="round" opacity="0.8"/><line x1="-10.000" y1="21.000" x2="-10.000" y2="1.500" stroke="#6b7280" stroke-width="0.100" stroke-linecap="round" opacity="0.8"/><line x1="-6.250" y1="-17.500" x2="6.250" y2="-17.500" stroke="#6b7280" stroke-width="0.100" stroke-linecap="round" opacity="0.8"/><line x1="-6.250" y1="-4.250" x2="-6.250" y2="-17.500" stroke="#6b7280" stroke-width="0.100" stroke-linecap="round" opacity="0.8"/><line x1="-6.250" y1="-4.250" x2="6.250" y2="-4.250" stroke="#6b7280" stroke-width="0.100" stroke-linecap="round" opacity="0.8"/><line x1="-6.250" y1="4.250" x2="6.250" y2="4.250" stroke="#6b7280" stroke-width="0.100" stroke-linecap="round" opacity="0.8"/><line x1="-6.250" y1="17.500" x2="-6.250" y2="4.250" stroke="#6b7280" stroke-width="0.100" stroke-linecap="round" opacity="0.8"/><line x1="-6.250" y1="17.500" x2="6.250" y2="17.500" stroke="#6b7280" stroke-width="0.100" stroke-linecap="round" opacity="0.8"/><line x1="-2.208" y1="-9.472" x2="-0.472" y2="-9.472" stroke="#6b7280" stroke-width="0.100" stroke-linecap="round" opacity="0.8"/><line x1="-2.208" y1="-8.528" x2="-2.208" y2="-9.472" stroke="#6b7280" stroke-width="0.100" stroke-linecap="round" opacity="0.8"/><line x1="-2.208" y1="-8.528" x2="-0.472" y2="-8.528" stroke="#6b7280" stroke-width="0.100" stroke-linecap="round" opacity="0.8"/><line x1="-2.208" y1="8.528" x2="-0.472" y2="8.528" stroke="#6b7280" stroke-width="0.100" stroke-linecap="round" opacity="0.8"/><line x1="-2.208" y1="9.472" x2="-2.208" y2="8.528" stroke="#6b7280" stroke-width="0.100" stroke-linecap="round" opacity="0.8"/><line x1="-2.208" y1="9.472" x2="-0.472" y2="9.472" stroke="#6b7280" stroke-width="0.100" stroke-linecap="round" opacity="0.8"/><line x1="-0.472" y1="-11.208" x2="0.472" y2="-11.208" stroke="#6b7280" stroke-width="0.100" stroke-linecap="round" opacity="0.8"/><line x1="-0.472" y1="-9.472" x2="-0.472" y2="-11.208" stroke="#6b7280" stroke-width="0.100" stroke-linecap="round" opacity="0.8"/><line x1="-0.472" y1="-6.792" x2="-0.472" y2="-8.528" stroke="#6b7280" stroke-width="0.100" stroke-linecap="round" opacity="0.8"/><line x1="-0.472" y1="-6.792" x2="0.472" y2="-6.792" stroke="#6b7280" stroke-width="0.100" stroke-linecap="round" opacity="0.8"/><line x1="-0.472" y1="6.792" x2="0.472" y2="6.792" stroke="#6b7280" stroke-width="0.100" stroke-linecap="round" opacity="0.8"/><line x1="-0.472" y1="8.528" x2="-0.472" y2="6.792" stroke="#6b7280" stroke-width="0.100" stroke-linecap="round" opacity="0.8"/><line x1="-0.472" y1="11.208" x2="-0.472" y2="9.472" stroke="#6b7280" stroke-width="0.100" stroke-linecap="round" opacity="0.8"/><line x1="-0.472" y1="11.208" x2="0.472" y2="11.208" stroke="#6b7280" stroke-width="0.100" stroke-linecap="round" opacity="0.8"/><line x1="0.472" y1="-9.472" x2="0.472" y2="-11.208" stroke="#6b7280" stroke-width="0.100" stroke-linecap="round" opacity="0.8"/><line x1="0.472" y1="-9.472" x2="2.208" y2="-9.472" stroke="#6b7280" stroke-width="0.100" stroke-linecap="round" opacity="0.8"/><line x1="0.472" y1="-8.528" x2="2.208" y2="-8.528" stroke="#6b7280" stroke-width="0.100" stroke-linecap="round" opacity="0.8"/><line x1="0.472" y1="-6.792" x2="0.472" y2="-8.528" stroke="#6b7280" stroke-width="0.100" stroke-linecap="round" opacity="0.8"/><line x1="0.472" y1="8.528" x2="0.472" y2="6.792" stroke="#6b7280" stroke-width="0.100" stroke-linecap="round" opacity="0.8"/><line x1="0.472" y1="8.528" x2="2.208" y2="8.528" stroke="#6b7280" stroke-width="0.100" stroke-linecap="round" opacity="0.8"/><line x1="0.472" y1="9.472" x2="2.208" y2="9.472" stroke="#6b7280" stroke-width="0.100" stroke-linecap="round" opacity="0.8"/><line x1="0.472" y1="11.208" x2="0.472" y2="9.472" stroke="#6b7280" stroke-width="0.100" stroke-linecap="round" opacity="0.8"/><line x1="2.208" y1="-8.528" x2="2.208" y2="-9.472" stroke="#6b7280" stroke-width="0.100" stroke-linecap="round" opacity="0.8"/><line x1="2.208" y1="9.472" x2="2.208" y2="8.528" stroke="#6b7280" stroke-width="0.100" stroke-linecap="round" opacity="0.8"/><line x1="6.250" y1="-4.250" x2="6.250" y2="-17.500" stroke="#6b7280" stroke-width="0.100" stroke-linecap="round" opacity="0.8"/><line x1="6.250" y1="17.500" x2="6.250" y2="4.250" stroke="#6b7280" stroke-width="0.100" stroke-linecap="round" opacity="0.8"/><line x1="10.000" y1="-1.500" x2="10.000" y2="-21.000" stroke="#6b7280" stroke-width="0.100" stroke-linecap="round" opacity="0.8"/><line x1="10.000" y1="-1.500" x2="11.500" y2="0.000" stroke="#6b7280" stroke-width="0.100" stroke-linecap="round" opacity="0.8"/><line x1="10.000" y1="1.500" x2="11.500" y2="0.000" stroke="#6b7280" stroke-width="0.100" stroke-linecap="round" opacity="0.8"/><line x1="10.000" y1="21.000" x2="10.000" y2="1.500" stroke="#6b7280" stroke-width="0.100" stroke-linecap="round" opacity="0.8"/><line x1="11.500" y1="0.000" x2="13.000" y2="-1.500" stroke="#6b7280" stroke-width="0.100" stroke-linecap="round" opacity="0.8"/><line x1="11.500" y1="0.000" x2="13.000" y2="1.500" stroke="#6b7280" stroke-width="0.100" stroke-linecap="round" opacity="0.8"/><line x1="13.000" y1="-1.500" x2="13.000" y2="-21.000" stroke="#6b7280" stroke-width="0.100" stroke-linecap="round" opacity="0.8"/><line x1="13.000" y1="-1.500" x2="35.757" y2="-1.500" stroke="#6b7280" stroke-width="0.100" stroke-linecap="round" opacity="0.8"/><line x1="13.000" y1="1.500" x2="35.757" y2="1.500" stroke="#6b7280" stroke-width="0.100" stroke-linecap="round" opacity="0.8"/><line x1="13.000" y1="21.000" x2="13.000" y2="1.500" stroke="#6b7280" stroke-width="0.100" stroke-linecap="round" opacity="0.8"/><line x1="16.750" y1="-17.500" x2="29.250" y2="-17.500" stroke="#6b7280" stroke-width="0.100" stroke-linecap="round" opacity="0.8"/><line x1="16.750" y1="-4.250" x2="16.750" y2="-17.500" stroke="#6b7280" stroke-width="0.100" stroke-linecap="round" opacity="0.8"/><line x1="16.750" y1="-4.250" x2="29.250" y2="-4.250" stroke="#6b7280" stroke-width="0.100" stroke-linecap="round" opacity="0.8"/><line x1="16.750" y1="4.250" x2="29.250" y2="4.250" stroke="#6b7280" stroke-width="0.100" stroke-linecap="round" opacity="0.8"/><line x1="16.750" y1="17.500" x2="16.750" y2="4.250" stroke="#6b7280" stroke-width="0.100" stroke-linecap="round" opacity="0.8"/><line x1="16.750" y1="17.500" x2="29.250" y2="17.500" stroke="#6b7280" stroke-width="0.100" stroke-linecap="round" opacity="0.8"/><line x1="20.792" y1="-9.472" x2="22.528" y2="-9.472" stroke="#6b7280" stroke-width="0.100" stroke-linecap="round" opacity="0.8"/><line x1="20.792" y1="-8.528" x2="20.792" y2="-9.472" stroke="#6b7280" stroke-width="0.100" stroke-linecap="round" opacity="0.8"/><line x1="20.792" y1="-8.528" x2="22.528" y2="-8.528" stroke="#6b7280" stroke-width="0.100" stroke-linecap="round" opacity="0.8"/><line x1="20.792" y1="8.528" x2="22.528" y2="8.528" stroke="#6b7280" stroke-width="0.100" stroke-linecap="round" opacity="0.8"/><line x1="20.792" y1="9.472" x2="20.792" y2="8.528" stroke="#6b7280" stroke-width="0.100" stroke-linecap="round" opacity="0.8"/><line x1="20.792" y1="9.472" x2="22.528" y2="9.472" stroke="#6b7280" stroke-width="0.100" stroke-linecap="round" opacity="0.8"/><line x1="22.528" y1="-11.208" x2="23.472" y2="-11.208" stroke="#6b7280" stroke-width="0.100" stroke-linecap="round" opacity="0.8"/><line x1="22.528" y1="-9.472" x2="22.528" y2="-11.208" stroke="#6b7280" stroke-width="0.100" stroke-linecap="round" opacity="0.8"/><line x1="22.528" y1="-6.792" x2="22.528" y2="-8.528" stroke="#6b7280" stroke-width="0.100" stroke-linecap="round" opacity="0.8"/><line x1="22.528" y1="-6.792" x2="23.472" y2="-6.792" stroke="#6b7280" stroke-width="0.100" stroke-linecap="round" opacity="0.8"/><line x1="22.528" y1="6.792" x2="23.472" y2="6.792" stroke="#6b7280" stroke-width="0.100" stroke-linecap="round" opacity="0.8"/><line x1="22.528" y1="8.528" x2="22.528" y2="6.792" stroke="#6b7280" stroke-width="0.100" stroke-linecap="round" opacity="0.8"/><line x1="22.528" y1="11.208" x2="22.528" y2="9.472" stroke="#6b7280" stroke-width="0.100" stroke-linecap="round" opacity="0.8"/><line x1="22.528" y1="11.208" x2="23.472" y2="11.208" stroke="#6b7280" stroke-width="0.100" stroke-linecap="round" opacity="0.8"/><line x1="23.472" y1="-9.472" x2="23.472" y2="-11.208" stroke="#6b7280" stroke-width="0.100" stroke-linecap="round" opacity="0.8"/><line x1="23.472" y1="-9.472" x2="25.208" y2="-9.472" stroke="#6b7280" stroke-width="0.100" stroke-linecap="round" opacity="0.8"/><line x1="23.472" y1="-8.528" x2="25.208" y2="-8.528" stroke="#6b7280" stroke-width="0.100" stroke-linecap="round" opacity="0.8"/><line x1="23.472" y1="-6.792" x2="23.472" y2="-8.528" stroke="#6b7280" stroke-width="0.100" stroke-linecap="round" opacity="0.8"/><line x1="23.472" y1="8.528" x2="23.472" y2="6.792" stroke="#6b7280" stroke-width="0.100" stroke-linecap="round" opacity="0.8"/><line x1="23.472" y1="8.528" x2="25.208" y2="8.528" stroke="#6b7280" stroke-width="0.100" stroke-linecap="round" opacity="0.8"/><line x1="23.472" y1="9.472" x2="25.208" y2="9.472" stroke="#6b7280" stroke-width="0.100" stroke-linecap="round" opacity="0.8"/><line x1="23.472" y1="11.208" x2="23.472" y2="9.472" stroke="#6b7280" stroke-width="0.100" stroke-linecap="round" opacity="0.8"/><line x1="25.208" y1="-8.528" x2="25.208" y2="-9.472" stroke="#6b7280" stroke-width="0.100" stroke-linecap="round" opacity="0.8"/><line x1="25.208" y1="9.472" x2="25.208" y2="8.528" stroke="#6b7280" stroke-width="0.100" stroke-linecap="round" opacity="0.8"/><line x1="29.250" y1="-4.250" x2="29.250" y2="-17.500" stroke="#6b7280" stroke-width="0.100" stroke-linecap="round" opacity="0.8"/><line x1="29.250" y1="17.500" x2="29.250" y2="4.250" stroke="#6b7280" stroke-width="0.100" stroke-linecap="round" opacity="0.8"/><line x1="38.000" y1="-4.031" x2="38.000" y2="-20.500" stroke="#6b7280" stroke-width="0.100" stroke-linecap="round" opacity="0.8"/><line x1="38.000" y1="20.500" x2="38.000" y2="4.031" stroke="#6b7280" stroke-width="0.100" stroke-linecap="round" opacity="0.8"/><line x1="40.000" y1="-4.000" x2="47.000" y2="-4.000" stroke="#6b7280" stroke-width="0.100" stroke-linecap="round" opacity="0.8"/><line x1="40.000" y1="4.000" x2="47.000" y2="4.000" stroke="#6b7280" stroke-width="0.100" stroke-linecap="round" opacity="0.8"/><line x1="47.000" y1="20.500" x2="47.000" y2="-20.500" stroke="#6b7280" stroke-width="0.100" stroke-linecap="round" opacity="0.8"/><line x1="-47.250" y1="-21.250" x2="47.310" y2="-21.250" stroke="#d24d4d" stroke-width="0.080" stroke-linecap="round" opacity="0.7"/><line x1="47.310" y1="-21.250" x2="47.310" y2="21.250" stroke="#d24d4d" stroke-width="0.080" stroke-linecap="round" opacity="0.7"/><line x1="47.310" y1="21.250" x2="-47.250" y2="21.250" stroke="#d24d4d" stroke-width="0.080" stroke-linecap="round" opacity="0.7"/><line x1="-47.250" y1="21.250" x2="-47.250" y2="-21.250" stroke="#d24d4d" stroke-width="0.080" stroke-linecap="round" opacity="0.7"/><path d="M -46.942 -20.500 A 0.500 0.500 0 0 1 -46.442 -21.000" fill="none" stroke="#e6e9ef" stroke-width="0.12" opacity="1"/><path d="M -46.442 21.000 A 0.500 0.500 0 0 1 -46.942 20.500" fill="none" stroke="#e6e9ef" stroke-width="0.12" opacity="1"/><path d="M -39.942 -4.000 A 4.000 4.000 0 0 1 -39.942 4.000" fill="none" stroke="#e6e9ef" stroke-width="0.12" opacity="1"/><path d="M -37.942 -20.500 A 0.500 0.500 0 0 1 -37.442 -21.000" fill="none" stroke="#e6e9ef" stroke-width="0.12" opacity="1"/><path d="M -37.942 -4.031 A 4.500 4.500 0 0 1 -37.942 4.031" fill="none" stroke="#e6e9ef" stroke-width="0.12" opacity="1"/><path d="M -37.442 21.000 A 0.500 0.500 0 0 1 -37.942 20.500" fill="none" stroke="#e6e9ef" stroke-width="0.12" opacity="1"/><path d="M 37.558 -21.000 A 0.500 0.500 0 0 1 38.058 -20.500" fill="none" stroke="#e6e9ef" stroke-width="0.12" opacity="1"/><path d="M 38.058 4.031 A 4.500 4.500 0 0 1 38.058 -4.031" fill="none" stroke="#e6e9ef" stroke-width="0.12" opacity="1"/><path d="M 38.058 20.500 A 0.500 0.500 0 0 1 37.558 21.000" fill="none" stroke="#e6e9ef" stroke-width="0.12" opacity="1"/><path d="M 40.058 4.000 A 4.000 4.000 0 0 1 40.058 -4.000" fill="none" stroke="#e6e9ef" stroke-width="0.12" opacity="1"/><path d="M 46.558 -21.000 A 0.500 0.500 0 0 1 47.058 -20.500" fill="none" stroke="#e6e9ef" stroke-width="0.12" opacity="1"/><path d="M 47.058 20.500 A 0.500 0.500 0 0 1 46.558 21.000" fill="none" stroke="#e6e9ef" stroke-width="0.12" opacity="1"/><path d="M -47.000 -20.500 A 0.500 0.500 0 0 1 -46.500 -21.000" fill="none" stroke="#6b7280" stroke-width="0.12" opacity="0.8"/><path d="M -46.500 21.000 A 0.500 0.500 0 0 1 -47.000 20.500" fill="none" stroke="#6b7280" stroke-width="0.12" opacity="0.8"/><path d="M -40.000 -4.000 A 4.000 4.000 0 0 1 -40.000 4.000" fill="none" stroke="#6b7280" stroke-width="0.12" opacity="0.8"/><path d="M -38.000 -20.500 A 0.500 0.500 0 0 1 -37.500 -21.000" fill="none" stroke="#6b7280" stroke-width="0.12" opacity="0.8"/><path d="M -38.000 -4.031 A 4.500 4.500 0 0 1 -38.000 4.031" fill="none" stroke="#6b7280" stroke-width="0.12" opacity="0.8"/><path d="M -37.500 21.000 A 0.500 0.500 0 0 1 -38.000 20.500" fill="none" stroke="#6b7280" stroke-width="0.12" opacity="0.8"/><path d="M 37.500 -21.000 A 0.500 0.500 0 0 1 38.000 -20.500" fill="none" stroke="#6b7280" stroke-width="0.12" opacity="0.8"/><path d="M 38.000 4.031 A 4.500 4.500 0 0 1 38.000 -4.031" fill="none" stroke="#6b7280" stroke-width="0.12" opacity="0.8"/><path d="M 38.000 20.500 A 0.500 0.500 0 0 1 37.500 21.000" fill="none" stroke="#6b7280" stroke-width="0.12" opacity="0.8"/><path d="M 40.000 4.000 A 4.000 4.000 0 0 1 40.000 -4.000" fill="none" stroke="#6b7280" stroke-width="0.12" opacity="0.8"/><path d="M 46.500 -21.000 A 0.500 0.500 0 0 1 47.000 -20.500" fill="none" stroke="#6b7280" stroke-width="0.12" opacity="0.8"/><path d="M 47.000 20.500 A 0.500 0.500 0 0 1 46.500 21.000" fill="none" stroke="#6b7280" stroke-width="0.12" opacity="0.8"/><circle cx="-40.000" cy="0.000" r="3.200" fill="none" stroke="#6b7280" stroke-width="0.12" opacity="0.8"/><circle cx="-23.000" cy="-9.000" r="4.750" fill="none" stroke="#6b7280" stroke-width="0.12" opacity="0.8"/><circle cx="-23.000" cy="9.000" r="4.750" fill="none" stroke="#6b7280" stroke-width="0.12" opacity="0.8"/><circle cx="0.000" cy="-9.000" r="4.750" fill="none" stroke="#6b7280" stroke-width="0.12" opacity="0.8"/><circle cx="0.000" cy="9.000" r="4.750" fill="none" stroke="#6b7280" stroke-width="0.12" opacity="0.8"/><circle cx="23.000" cy="-9.000" r="4.750" fill="none" stroke="#6b7280" stroke-width="0.12" opacity="0.8"/><circle cx="23.000" cy="9.000" r="4.750" fill="none" stroke="#6b7280" stroke-width="0.12" opacity="0.8"/><circle cx="40.000" cy="0.000" r="3.200" fill="none" stroke="#6b7280" stroke-width="0.12" opacity="0.8"/><rect x="18.603" y="-11.750" width="1.000" height="1.000" rx="0.500" fill="#c79b5c"/><circle cx="19.103" cy="-11.250" r="0.250" fill="#12151c"/><rect x="18.603" y="-7.250" width="1.000" height="1.000" rx="0.500" fill="#c79b5c"/><circle cx="19.103" cy="-6.750" r="0.250" fill="#12151c"/><rect x="22.500" y="-14.000" width="1.000" height="1.000" rx="0.500" fill="#c79b5c"/><circle cx="23.000" cy="-13.500" r="0.250" fill="#12151c"/><rect x="22.500" y="-5.000" width="1.000" height="1.000" rx="0.500" fill="#c79b5c"/><circle cx="23.000" cy="-4.500" r="0.250" fill="#12151c"/><rect x="14.000" y="-17.750" width="18.000" height="17.500" rx="4.375" fill="#c79b5c"/><circle cx="23.000" cy="-9.000" r="2.750" fill="#12151c"/><rect x="26.397" y="-11.750" width="1.000" height="1.000" rx="0.500" fill="#c79b5c"/><circle cx="26.897" cy="-11.250" r="0.250" fill="#12151c"/><rect x="26.397" y="-7.250" width="1.000" height="1.000" rx="0.500" fill="#c79b5c"/><circle cx="26.897" cy="-6.750" r="0.250" fill="#12151c"/><rect x="-4.397" y="-11.750" width="1.000" height="1.000" rx="0.500" fill="#c79b5c"/><circle cx="-3.897" cy="-11.250" r="0.250" fill="#12151c"/><rect x="-4.397" y="-7.250" width="1.000" height="1.000" rx="0.500" fill="#c79b5c"/><circle cx="-3.897" cy="-6.750" r="0.250" fill="#12151c"/><rect x="-0.500" y="-14.000" width="1.000" height="1.000" rx="0.500" fill="#c79b5c"/><circle cx="-0.000" cy="-13.500" r="0.250" fill="#12151c"/><rect x="-0.500" y="-5.000" width="1.000" height="1.000" rx="0.500" fill="#c79b5c"/><circle cx="-0.000" cy="-4.500" r="0.250" fill="#12151c"/><rect x="-9.000" y="-17.750" width="18.000" height="17.500" rx="4.375" fill="#c79b5c"/><circle cx="0.000" cy="-9.000" r="2.750" fill="#12151c"/><rect x="3.397" y="-11.750" width="1.000" height="1.000" rx="0.500" fill="#c79b5c"/><circle cx="3.897" cy="-11.250" r="0.250" fill="#12151c"/><rect x="3.397" y="-7.250" width="1.000" height="1.000" rx="0.500" fill="#c79b5c"/><circle cx="3.897" cy="-6.750" r="0.250" fill="#12151c"/><rect x="-27.397" y="-11.750" width="1.000" height="1.000" rx="0.500" fill="#c79b5c"/><circle cx="-26.897" cy="-11.250" r="0.250" fill="#12151c"/><rect x="-27.397" y="-7.250" width="1.000" height="1.000" rx="0.500" fill="#c79b5c"/><circle cx="-26.897" cy="-6.750" r="0.250" fill="#12151c"/><rect x="-23.500" y="-14.000" width="1.000" height="1.000" rx="0.500" fill="#c79b5c"/><circle cx="-23.000" cy="-13.500" r="0.250" fill="#12151c"/><rect x="-23.500" y="-5.000" width="1.000" height="1.000" rx="0.500" fill="#c79b5c"/><circle cx="-23.000" cy="-4.500" r="0.250" fill="#12151c"/><rect x="-32.000" y="-17.750" width="18.000" height="17.500" rx="4.375" fill="#c79b5c"/><circle cx="-23.000" cy="-9.000" r="2.750" fill="#12151c"/><rect x="-19.603" y="-11.750" width="1.000" height="1.000" rx="0.500" fill="#c79b5c"/><circle cx="-19.103" cy="-11.250" r="0.250" fill="#12151c"/><rect x="-19.603" y="-7.250" width="1.000" height="1.000" rx="0.500" fill="#c79b5c"/><circle cx="-19.103" cy="-6.750" r="0.250" fill="#12151c"/><rect x="18.603" y="6.250" width="1.000" height="1.000" rx="0.500" fill="#c79b5c"/><circle cx="19.103" cy="6.750" r="0.250" fill="#12151c"/><rect x="18.603" y="10.750" width="1.000" height="1.000" rx="0.500" fill="#c79b5c"/><circle cx="19.103" cy="11.250" r="0.250" fill="#12151c"/><rect x="22.500" y="4.000" width="1.000" height="1.000" rx="0.500" fill="#c79b5c"/><circle cx="23.000" cy="4.500" r="0.250" fill="#12151c"/><rect x="22.500" y="13.000" width="1.000" height="1.000" rx="0.500" fill="#c79b5c"/><circle cx="23.000" cy="13.500" r="0.250" fill="#12151c"/><rect x="14.000" y="0.250" width="18.000" height="17.500" rx="4.375" fill="#c79b5c"/><circle cx="23.000" cy="9.000" r="2.750" fill="#12151c"/><rect x="26.397" y="6.250" width="1.000" height="1.000" rx="0.500" fill="#c79b5c"/><circle cx="26.897" cy="6.750" r="0.250" fill="#12151c"/><rect x="26.397" y="10.750" width="1.000" height="1.000" rx="0.500" fill="#c79b5c"/><circle cx="26.897" cy="11.250" r="0.250" fill="#12151c"/><rect x="-4.397" y="6.250" width="1.000" height="1.000" rx="0.500" fill="#c79b5c"/><circle cx="-3.897" cy="6.750" r="0.250" fill="#12151c"/><rect x="-4.397" y="10.750" width="1.000" height="1.000" rx="0.500" fill="#c79b5c"/><circle cx="-3.897" cy="11.250" r="0.250" fill="#12151c"/><rect x="-0.500" y="4.000" width="1.000" height="1.000" rx="0.500" fill="#c79b5c"/><circle cx="-0.000" cy="4.500" r="0.250" fill="#12151c"/><rect x="-0.500" y="13.000" width="1.000" height="1.000" rx="0.500" fill="#c79b5c"/><circle cx="-0.000" cy="13.500" r="0.250" fill="#12151c"/><rect x="-9.000" y="0.250" width="18.000" height="17.500" rx="4.375" fill="#c79b5c"/><circle cx="0.000" cy="9.000" r="2.750" fill="#12151c"/><rect x="3.397" y="6.250" width="1.000" height="1.000" rx="0.500" fill="#c79b5c"/><circle cx="3.897" cy="6.750" r="0.250" fill="#12151c"/><rect x="3.397" y="10.750" width="1.000" height="1.000" rx="0.500" fill="#c79b5c"/><circle cx="3.897" cy="11.250" r="0.250" fill="#12151c"/><rect x="-27.397" y="6.250" width="1.000" height="1.000" rx="0.500" fill="#c79b5c"/><circle cx="-26.897" cy="6.750" r="0.250" fill="#12151c"/><rect x="-27.397" y="10.750" width="1.000" height="1.000" rx="0.500" fill="#c79b5c"/><circle cx="-26.897" cy="11.250" r="0.250" fill="#12151c"/><rect x="-23.500" y="4.000" width="1.000" height="1.000" rx="0.500" fill="#c79b5c"/><circle cx="-23.000" cy="4.500" r="0.250" fill="#12151c"/><rect x="-23.500" y="13.000" width="1.000" height="1.000" rx="0.500" fill="#c79b5c"/><circle cx="-23.000" cy="13.500" r="0.250" fill="#12151c"/><rect x="-32.000" y="0.250" width="18.000" height="17.500" rx="4.375" fill="#c79b5c"/><circle cx="-23.000" cy="9.000" r="2.750" fill="#12151c"/><rect x="-19.603" y="6.250" width="1.000" height="1.000" rx="0.500" fill="#c79b5c"/><circle cx="-19.103" cy="6.750" r="0.250" fill="#12151c"/><rect x="-19.603" y="10.750" width="1.000" height="1.000" rx="0.500" fill="#c79b5c"/><circle cx="-19.103" cy="11.250" r="0.250" fill="#12151c"/></svg>