<svg xmlns="http://www.w3.org/2000/svg" viewBox="-6.58 -1.50 28.40 15.70" preserveAspectRatio="xMidYMid meet" style="width:100%;height:100%"><rect x="-6.58" y="-1.50" width="28.40" height="15.70" fill="#12151c"/><rect x="0.000" y="-0.000" width="15.240" height="12.700" fill="#1e222b" stroke="#4ea1ff" stroke-width="0.25"/><polyline points="2.540,1.270 2.540,10.160" fill="none" stroke="#4ea1ff" stroke-width="0.25" stroke-linejoin="round"/><polyline points="2.540,1.270 12.700,1.270" fill="none" stroke="#4ea1ff" stroke-width="0.25" stroke-linejoin="round"/><polyline points="2.540,3.810 12.700,3.810" fill="none" stroke="#4ea1ff" stroke-width="0.25" stroke-linejoin="round"/><polyline points="2.540,6.350 12.700,6.350" fill="none" stroke="#4ea1ff" stroke-width="0.25" stroke-linejoin="round"/><polyline points="5.080,0.381 6.223,1.270 5.080,2.159 5.080,0.381" fill="#1e222b" stroke="#4ea1ff" stroke-width="0.25" stroke-linejoin="round"/><polyline points="5.080,2.921 6.223,3.810 5.080,4.699 5.080,2.921" fill="#1e222b" stroke="#4ea1ff" stroke-width="0.25" stroke-linejoin="round"/><polyline points="5.080,5.461 6.223,6.350 5.080,7.239 5.080,5.461" fill="#1e222b" stroke="#4ea1ff" stroke-width="0.25" stroke-linejoin="round"/><polyline points="5.969,2.159 6.223,2.159 6.223,0.381 5.969,0.381 5.969,2.159" fill="#1e222b" stroke="#4ea1ff" stroke-width="0.25" stroke-linejoin="round"/><polyline points="5.969,4.699 6.223,4.699 6.223,2.921 5.969,2.921 5.969,4.699" fill="#1e222b" stroke="#4ea1ff" stroke-width="0.25" stroke-linejoin="round"/><polyline points="5.969,7.239 6.223,7.239 6.223,5.461 5.969,5.461 5.969,7.239" fill="#1e222b" stroke="#4ea1ff" stroke-width="0.25" stroke-linejoin="round"/><polyline points="6.858,2.540 0.000,2.540" fill="none" stroke="#4ea1ff" stroke-width="0.25" stroke-linejoin="round"/><polyline points="6.858,2.540 6.858,1.270" fill="none" stroke="#4ea1ff" stroke-width="0.25" stroke-linejoin="round"/><polyline points="6.858,5.080 0.000,5.080" fill="none" stroke="#4ea1ff" stroke-width="0.25" stroke-linejoin="round"/><polyline points="6.858,5.080 6.858,3.810" fill="none" stroke="#4ea1ff" stroke-width="0.25" stroke-linejoin="round"/><polyline points="6.858,7.620 0.000,7.620" fill="none" stroke="#4ea1ff" stroke-width="0.25" stroke-linejoin="round"/><polyline points="6.858,7.620 6.858,6.350" fill="none" stroke="#4ea1ff" stroke-width="0.25" stroke-linejoin="round"/><polyline points="9.144,0.381 10.287,1.270 9.144,2.159 9.144,0.381" fill="#1e222b" stroke="#4ea1ff" stroke-width="0.25" stroke-linejoin="round"/><polyline points="9.144,2.921 10.287,3.810 9.144,4.699 9.144,2.921" fill="#1e222b" stroke="#4ea1ff" stroke-width="0.25" stroke-linejoin="round"/><polyline points="9.144,5.461 10.287,6.350 9.144,7.239 9.144,5.461" fill="#1e222b" stroke="#4ea1ff" stroke-width="0.25" stroke-linejoin="round"/><polyline points="10.033,2.159 10.287,2.159 10.287,0.381 10.033,0.381 10.033,2.159" fill="#1e222b" stroke="#4ea1ff" stroke-width="0.25" stroke-linejoin="round"/><polyline points="10.033,4.699 10.287,4.699 10.287,2.921 10.033,2.921 10.033,4.699" fill="#1e222b" stroke="#4ea1ff" stroke-width="0.25" stroke-linejoin="round"/><polyline points="10.033,7.239 10.287,7.239 10.287,5.461 10.033,5.461 10.033,7.239" fill="#1e222b" stroke="#4ea1ff" stroke-width="0.25" stroke-linejoin="round"/><polyline points="12.700,1.270 12.700,6.350" fill="none" stroke="#4ea1ff" stroke-width="0.25" stroke-linejoin="round"/><polyline points="12.700,2.540 15.240,2.540" fill="none" stroke="#4ea1ff" stroke-width="0.25" stroke-linejoin="round"/><polyline points="12.700,7.620 12.700,10.160" fill="none" stroke="#4ea1ff" stroke-width="0.25" stroke-linejoin="round"/><polyline points="12.700,10.160 2.540,10.160" fill="none" stroke="#4ea1ff" stroke-width="0.25" stroke-linejoin="round"/><polyline points="15.240,7.620 12.700,7.620" fill="none" stroke="#4ea1ff" stroke-width="0.25" stroke-linejoin="round"/><polyline points="15.240,10.160 12.700,10.160" fill="none" stroke="#4ea1ff" stroke-width="0.25" stroke-linejoin="round"/><circle cx="2.540" cy="3.810" r="0.254" fill="none" stroke="#4ea1ff" stroke-width="0.25"/><circle cx="2.540" cy="6.350" r="0.254" fill="none" stroke="#4ea1ff" stroke-width="0.25"/><circle cx="6.858" cy="1.270" r="0.254" fill="none" stroke="#4ea1ff" stroke-width="0.25"/><circle cx="6.858" cy="3.810" r="0.254" fill="none" stroke="#4ea1ff" stroke-width="0.25"/><circle cx="6.858" cy="6.350" r="0.254" fill="none" stroke="#4ea1ff" stroke-width="0.25"/><circle cx="12.700" cy="2.540" r="0.254" fill="none" stroke="#4ea1ff" stroke-width="0.25"/><circle cx="12.700" cy="3.810" r="0.254" fill="none" stroke="#4ea1ff" stroke-width="0.25"/><circle cx="12.700" cy="10.160" r="0.254" fill="none" stroke="#4ea1ff" stroke-width="0.25"/><line x1="-5.080" y1="2.540" x2="0.000" y2="2.540" stroke="#e6e9ef" stroke-width="0.2"/><circle cx="-5.080" cy="2.540" r="0.4" fill="#4ea1ff"/><text x="-0.300" y="2.190" fill="#9aa3b2" font-size="0.9" text-anchor="end" font-family="sans-serif">1</text><line x1="-5.080" y1="5.080" x2="0.000" y2="5.080" stroke="#e6e9ef" stroke-width="0.2"/><circle cx="-5.080" cy="5.080" r="0.4" fill="#4ea1ff"/><text x="-0.300" y="4.730" fill="#9aa3b2" font-size="0.9" text-anchor="end" font-family="sans-serif">2</text><line x1="-5.080" y1="7.620" x2="0.000" y2="7.620" stroke="#e6e9ef" stroke-width="0.2"/><circle cx="-5.080" cy="7.620" r="0.4" fill="#4ea1ff"/><text x="-0.300" y="7.270" fill="#9aa3b2" font-size="0.9" text-anchor="end" font-family="sans-serif">3</text><line x1="20.320" y1="2.540" x2="15.240" y2="2.540" stroke="#e6e9ef" stroke-width="0.2"/><circle cx="20.320" cy="2.540" r="0.4" fill="#4ea1ff"/><text x="15.540" y="2.190" fill="#9aa3b2" font-size="0.9" text-anchor="start" font-family="sans-serif">4</text><line x1="20.320" y1="7.620" x2="15.240" y2="7.620" stroke="#e6e9ef" stroke-width="0.2"/><circle cx="20.320" cy="7.620" r="0.4" fill="#4ea1ff"/><text x="15.540" y="7.270" fill="#9aa3b2" font-size="0.9" text-anchor="start" font-family="sans-serif">5</text><line x1="20.320" y1="10.160" x2="15.240" y2="10.160" stroke="#e6e9ef" stroke-width="0.2"/><circle cx="20.320" cy="10.160" r="0.4" fill="#4ea1ff"/><text x="15.540" y="9.810" fill="#9aa3b2" font-size="0.9" text-anchor="start" font-family="sans-serif">6</text></svg>