<svg xmlns="http://www.w3.org/2000/svg" viewBox="-4.60 -4.25 9.75 8.50" preserveAspectRatio="xMidYMid meet" style="width:100%;height:100%"><rect x="-4.60" y="-4.25" width="9.75" height="8.50" fill="#12151c"/><line x1="0.000" y1="-0.400" x2="1.369" y2="-0.400" stroke="#e6e9ef" stroke-width="0.200" stroke-linecap="round" opacity="1"/><line x1="0.000" y1="0.400" x2="1.369" y2="0.400" stroke="#e6e9ef" stroke-width="0.200" stroke-linecap="round" opacity="1"/><line x1="3.631" y1="-0.400" x2="3.750" y2="-0.400" stroke="#e6e9ef" stroke-width="0.200" stroke-linecap="round" opacity="1"/><line x1="3.631" y1="0.400" x2="3.750" y2="0.400" stroke="#e6e9ef" stroke-width="0.200" stroke-linecap="round" opacity="1"/><line x1="-3.000" y1="0.000" x2="-2.500" y2="0.000" stroke="#4a5160" stroke-width="0.080" stroke-linecap="round" opacity="0.7"/><line x1="-2.500" y1="0.000" x2="-2.500" y2="-0.500" stroke="#4a5160" stroke-width="0.080" stroke-linecap="round" opacity="0.7"/><line x1="-2.500" y1="0.000" x2="-2.000" y2="0.000" stroke="#4a5160" stroke-width="0.080" stroke-linecap="round" opacity="0.7"/><line x1="-2.500" y1="0.500" x2="-2.500" y2="0.000" stroke="#4a5160" stroke-width="0.080" stroke-linecap="round" opacity="0.7"/><line x1="-0.500" y1="0.000" x2="0.000" y2="0.000" stroke="#4a5160" stroke-width="0.080" stroke-linecap="round" opacity="0.7"/><line x1="0.000" y1="0.000" x2="0.000" y2="-0.500" stroke="#4a5160" stroke-width="0.080" stroke-linecap="round" opacity="0.7"/><line x1="0.000" y1="0.000" x2="0.500" y2="0.000" stroke="#4a5160" stroke-width="0.080" stroke-linecap="round" opacity="0.7"/><line x1="0.000" y1="0.500" x2="0.000" y2="0.000" stroke="#4a5160" stroke-width="0.080" stroke-linecap="round" opacity="0.7"/><line x1="2.000" y1="0.000" x2="2.500" y2="0.000" stroke="#4a5160" stroke-width="0.080" stroke-linecap="round" opacity="0.7"/><line x1="2.500" y1="0.000" x2="2.500" y2="-0.500" stroke="#4a5160" stroke-width="0.080" stroke-linecap="round" opacity="0.7"/><line x1="2.500" y1="0.000" x2="3.000" y2="0.000" stroke="#4a5160" stroke-width="0.080" stroke-linecap="round" opacity="0.7"/><line x1="2.500" y1="0.500" x2="2.500" y2="0.000" stroke="#4a5160" stroke-width="0.080" stroke-linecap="round" opacity="0.7"/><line x1="0.000" y1="-0.400" x2="3.750" y2="-0.400" stroke="#6b7280" stroke-width="0.100" stroke-linecap="round" opacity="0.8"/><line x1="0.000" y1="0.400" x2="3.750" y2="0.400" stroke="#6b7280" stroke-width="0.100" stroke-linecap="round" opacity="0.8"/><line x1="-3.600" y1="-1.100" x2="4.000" y2="-1.100" stroke="#d24d4d" stroke-width="0.080" stroke-linecap="round" opacity="0.7"/><line x1="4.000" y1="-1.100" x2="4.000" y2="1.100" stroke="#d24d4d" stroke-width="0.080" stroke-linecap="round" opacity="0.7"/><line x1="4.000" y1="1.100" x2="-3.600" y2="1.100" stroke="#d24d4d" stroke-width="0.080" stroke-linecap="round" opacity="0.7"/><line x1="-3.600" y1="1.100" x2="-3.600" y2="-1.100" stroke="#d24d4d" stroke-width="0.080" stroke-linecap="round" opacity="0.7"/><path d="M -3.075 -1.054 A 3.250 3.250 0 0 1 3.075 -1.054" fill="none" stroke="#e6e9ef" stroke-width="0.12" opacity="1"/><path d="M 0.000 0.400 A 0.400 0.400 0 0 1 0.000 -0.400" fill="none" stroke="#e6e9ef" stroke-width="0.12" opacity="1"/><path d="M 3.075 1.054 A 3.250 3.250 0 0 1 -3.075 1.054" fill="none" stroke="#e6e9ef" stroke-width="0.12" opacity="1"/><path d="M 3.750 -0.400 A 0.400 0.400 0 1 1 3.750 0.400" fill="none" stroke="#e6e9ef" stroke-width="0.12" opacity="1"/><path d="M 0.000 0.400 A 0.400 0.400 0 0 1 0.000 -0.400" fill="none" stroke="#6b7280" stroke-width="0.12" opacity="0.8"/><path d="M 3.225 0.403 A 3.250 3.250 0 1 1 3.225 -0.403" fill="none" stroke="#6b7280" stroke-width="0.12" opacity="0.8"/><path d="M 3.750 -0.400 A 0.400 0.400 0 1 1 3.750 0.400" fill="none" stroke="#6b7280" stroke-width="0.12" opacity="0.8"/><circle cx="-2.500" cy="0.000" r="0.850" fill="none" stroke="#4a5160" stroke-width="0.12" opacity="0.7"/><circle cx="-2.500" cy="0.000" r="0.500" fill="none" stroke="#4a5160" stroke-width="0.12" opacity="0.7"/><circle cx="2.500" cy="0.000" r="0.850" fill="none" stroke="#4a5160" stroke-width="0.12" opacity="0.7"/><circle cx="2.500" cy="0.000" r="0.500" fill="none" stroke="#4a5160" stroke-width="0.12" opacity="0.7"/><rect x="-3.350" y="-0.850" width="1.700" height="1.700" rx="0.850" fill="#c79b5c"/><circle cx="-2.500" cy="0.000" r="0.500" fill="#12151c"/><rect x="1.650" y="-0.850" width="1.700" height="1.700" rx="0.850" fill="#c79b5c"/><circle cx="2.500" cy="0.000" r="0.500" fill="#12151c"/><polygon points="-2.95,1.90 -2.05,1.90 -2.50,1.30" fill="#ffffff"/></svg>