<svg xmlns="http://www.w3.org/2000/svg" viewBox="-7.18 -11.15 21.07 60.40" preserveAspectRatio="xMidYMid meet" style="width:100%;height:100%"><rect x="-7.18" y="-11.15" width="21.07" height="60.40" fill="#12151c"/><line x1="-0.060" y1="-7.900" x2="6.190" y2="-7.900" stroke="#e6e9ef" stroke-width="0.200" stroke-linecap="round" opacity="1"/><line x1="-0.060" y1="-2.900" x2="-0.060" y2="-7.900" stroke="#e6e9ef" stroke-width="0.200" stroke-linecap="round" opacity="1"/><line x1="-0.060" y1="-2.900" x2="0.940" y2="-2.900" stroke="#e6e9ef" stroke-width="0.200" stroke-linecap="round" opacity="1"/><line x1="-0.060" y1="41.000" x2="0.940" y2="41.000" stroke="#e6e9ef" stroke-width="0.200" stroke-linecap="round" opacity="1"/><line x1="-0.060" y1="46.000" x2="-0.060" y2="41.000" stroke="#e6e9ef" stroke-width="0.200" stroke-linecap="round" opacity="1"/><line x1="-0.060" y1="46.000" x2="6.190" y2="46.000" stroke="#e6e9ef" stroke-width="0.200" stroke-linecap="round" opacity="1"/><line x1="0.940" y1="-2.260" x2="3.798" y2="-2.260" stroke="#e6e9ef" stroke-width="0.200" stroke-linecap="round" opacity="1"/><line x1="0.940" y1="-0.746" x2="0.940" y2="-2.900" stroke="#e6e9ef" stroke-width="0.200" stroke-linecap="round" opacity="1"/><line x1="0.940" y1="1.794" x2="0.940" y2="0.746" stroke="#e6e9ef" stroke-width="0.200" stroke-linecap="round" opacity="1"/><line x1="0.940" y1="4.334" x2="0.940" y2="3.286" stroke="#e6e9ef" stroke-width="0.200" stroke-linecap="round" opacity="1"/><line x1="0.940" y1="6.874" x2="0.940" y2="5.826" stroke="#e6e9ef" stroke-width="0.200" stroke-linecap="round" opacity="1"/><line x1="0.940" y1="9.414" x2="0.940" y2="8.366" stroke="#e6e9ef" stroke-width="0.200" stroke-linecap="round" opacity="1"/><line x1="0.940" y1="11.954" x2="0.940" y2="10.906" stroke="#e6e9ef" stroke-width="0.200" stroke-linecap="round" opacity="1"/><line x1="0.940" y1="14.494" x2="0.940" y2="13.446" stroke="#e6e9ef" stroke-width="0.200" stroke-linecap="round" opacity="1"/><line x1="0.940" y1="17.034" x2="0.940" y2="15.986" stroke="#e6e9ef" stroke-width="0.200" stroke-linecap="round" opacity="1"/><line x1="0.940" y1="19.574" x2="0.940" y2="18.526" stroke="#e6e9ef" stroke-width="0.200" stroke-linecap="round" opacity="1"/><line x1="0.940" y1="22.114" x2="0.940" y2="21.066" stroke="#e6e9ef" stroke-width="0.200" stroke-linecap="round" opacity="1"/><line x1="0.940" y1="24.654" x2="0.940" y2="23.606" stroke="#e6e9ef" stroke-width="0.200" stroke-linecap="round" opacity="1"/><line x1="0.940" y1="27.194" x2="0.940" y2="26.146" stroke="#e6e9ef" stroke-width="0.200" stroke-linecap="round" opacity="1"/><line x1="0.940" y1="29.734" x2="0.940" y2="28.686" stroke="#e6e9ef" stroke-width="0.200" stroke-linecap="round" opacity="1"/><line x1="0.940" y1="32.274" x2="0.940" y2="31.226" stroke="#e6e9ef" stroke-width="0.200" stroke-linecap="round" opacity="1"/><line x1="0.940" y1="34.814" x2="0.940" y2="33.766" stroke="#e6e9ef" stroke-width="0.200" stroke-linecap="round" opacity="1"/><line x1="0.940" y1="37.354" x2="0.940" y2="36.306" stroke="#e6e9ef" stroke-width="0.200" stroke-linecap="round" opacity="1"/><line x1="0.940" y1="40.360" x2="3.798" y2="40.360" stroke="#e6e9ef" stroke-width="0.200" stroke-linecap="round" opacity="1"/><line x1="0.940" y1="41.000" x2="0.940" y2="38.846" stroke="#e6e9ef" stroke-width="0.200" stroke-linecap="round" opacity="1"/><line x1="3.798" y1="-7.900" x2="5.427" y2="-5.080" stroke="#e6e9ef" stroke-width="0.200" stroke-linecap="round" opacity="1"/><line x1="3.798" y1="-2.260" x2="5.427" y2="-5.080" stroke="#e6e9ef" stroke-width="0.200" stroke-linecap="round" opacity="1"/><line x1="3.798" y1="40.360" x2="5.427" y2="43.180" stroke="#e6e9ef" stroke-width="0.200" stroke-linecap="round" opacity="1"/><line x1="3.798" y1="46.000" x2="5.427" y2="43.180" stroke="#e6e9ef" stroke-width="0.200" stroke-linecap="round" opacity="1"/><line x1="5.590" y1="-7.900" x2="5.590" y2="46.000" stroke="#e6e9ef" stroke-width="0.200" stroke-linecap="round" opacity="1"/><line x1="6.190" y1="-3.150" x2="12.040" y2="-3.150" stroke="#e6e9ef" stroke-width="0.200" stroke-linecap="round" opacity="1"/><line x1="6.190" y1="-2.150" x2="12.040" y2="-2.150" stroke="#e6e9ef" stroke-width="0.200" stroke-linecap="round" opacity="1"/><line x1="6.190" y1="40.250" x2="12.040" y2="40.250" stroke="#e6e9ef" stroke-width="0.200" stroke-linecap="round" opacity="1"/><line x1="6.190" y1="41.250" x2="12.040" y2="41.250" stroke="#e6e9ef" stroke-width="0.200" stroke-linecap="round" opacity="1"/><line x1="6.190" y1="46.000" x2="6.190" y2="-7.900" stroke="#e6e9ef" stroke-width="0.200" stroke-linecap="round" opacity="1"/><line x1="12.040" y1="-3.150" x2="12.640" y2="-2.550" stroke="#e6e9ef" stroke-width="0.200" stroke-linecap="round" opacity="1"/><line x1="12.040" y1="-2.150" x2="12.640" y2="-1.550" stroke="#e6e9ef" stroke-width="0.200" stroke-linecap="round" opacity="1"/><line x1="12.040" y1="40.250" x2="12.640" y2="39.650" stroke="#e6e9ef" stroke-width="0.200" stroke-linecap="round" opacity="1"/><line x1="12.040" y1="41.250" x2="12.040" y2="-3.150" stroke="#e6e9ef" stroke-width="0.200" stroke-linecap="round" opacity="1"/><line x1="12.040" y1="41.250" x2="12.640" y2="40.650" stroke="#e6e9ef" stroke-width="0.200" stroke-linecap="round" opacity="1"/><line x1="12.640" y1="40.650" x2="12.640" y2="-2.550" stroke="#e6e9ef" stroke-width="0.200" stroke-linecap="round" opacity="1"/><line x1="-5.580" y1="0.000" x2="-5.080" y2="0.000" stroke="#4a5160" stroke-width="0.080" stroke-linecap="round" opacity="0.7"/><line x1="-5.580" y1="38.100" x2="-5.080" y2="38.100" stroke="#4a5160" stroke-width="0.080" stroke-linecap="round" opacity="0.7"/><line x1="-5.080" y1="0.000" x2="-5.080" y2="-0.500" stroke="#4a5160" stroke-width="0.080" stroke-linecap="round" opacity="0.7"/><line x1="-5.080" y1="0.000" x2="-4.580" y2="0.000" stroke="#4a5160" stroke-width="0.080" stroke-linecap="round" opacity="0.7"/><line x1="-5.080" y1="0.500" x2="-5.080" y2="0.000" stroke="#4a5160" stroke-width="0.080" stroke-linecap="round" opacity="0.7"/><line x1="-5.080" y1="38.100" x2="-5.080" y2="37.600" stroke="#4a5160" stroke-width="0.080" stroke-linecap="round" opacity="0.7"/><line x1="-5.080" y1="38.100" x2="-4.580" y2="38.100" stroke="#4a5160" stroke-width="0.080" stroke-linecap="round" opacity="0.7"/><line x1="-5.080" y1="38.600" x2="-5.080" y2="38.100" stroke="#4a5160" stroke-width="0.080" stroke-linecap="round" opacity="0.7"/><line x1="-3.040" y1="0.000" x2="-2.540" y2="0.000" stroke="#4a5160" stroke-width="0.080" stroke-linecap="round" opacity="0.7"/><line x1="-3.040" y1="38.100" x2="-2.540" y2="38.100" stroke="#4a5160" stroke-width="0.080" stroke-linecap="round" opacity="0.7"/><line x1="-2.540" y1="0.000" x2="-2.540" y2="-0.500" stroke="#4a5160" stroke-width="0.080" stroke-linecap="round" opacity="0.7"/><line x1="-2.540" y1="0.000" x2="-2.040" y2="0.000" stroke="#4a5160" stroke-width="0.080" stroke-linecap="round" opacity="0.7"/><line x1="-2.540" y1="0.500" x2="-2.540" y2="0.000" stroke="#4a5160" stroke-width="0.080" stroke-linecap="round" opacity="0.7"/><line x1="-2.540" y1="38.100" x2="-2.540" y2="37.600" stroke="#4a5160" stroke-width="0.080" stroke-linecap="round" opacity="0.7"/><line x1="-2.540" y1="38.100" x2="-2.040" y2="38.100" stroke="#4a5160" stroke-width="0.080" stroke-linecap="round" opacity="0.7"/><line x1="-2.540" y1="38.600" x2="-2.540" y2="38.100" stroke="#4a5160" stroke-width="0.080" stroke-linecap="round" opacity="0.7"/><line x1="-0.500" y1="0.000" x2="-0.000" y2="0.000" stroke="#4a5160" stroke-width="0.080" stroke-linecap="round" opacity="0.7"/><line x1="-0.500" y1="38.100" x2="-0.000" y2="38.100" stroke="#4a5160" stroke-width="0.080" stroke-linecap="round" opacity="0.7"/><line x1="-0.000" y1="0.000" x2="-0.000" y2="-0.500" stroke="#4a5160" stroke-width="0.080" stroke-linecap="round" opacity="0.7"/><line x1="-0.000" y1="0.000" x2="0.500" y2="0.000" stroke="#4a5160" stroke-width="0.080" stroke-linecap="round" opacity="0.7"/><line x1="-0.000" y1="0.500" x2="-0.000" y2="0.000" stroke="#4a5160" stroke-width="0.080" stroke-linecap="round" opacity="0.7"/><line x1="-0.000" y1="38.100" x2="-0.000" y2="37.600" stroke="#4a5160" stroke-width="0.080" stroke-linecap="round" opacity="0.7"/><line x1="-0.000" y1="38.100" x2="0.500" y2="38.100" stroke="#4a5160" stroke-width="0.080" stroke-linecap="round" opacity="0.7"/><line x1="-0.000" y1="38.600" x2="-0.000" y2="38.100" stroke="#4a5160" stroke-width="0.080" stroke-linecap="round" opacity="0.7"/><line x1="2.040" y1="-5.080" x2="2.540" y2="-5.080" stroke="#4a5160" stroke-width="0.080" stroke-linecap="round" opacity="0.7"/><line x1="2.040" y1="43.180" x2="2.540" y2="43.180" stroke="#4a5160" stroke-width="0.080" stroke-linecap="round" opacity="0.7"/><line x1="2.540" y1="-5.080" x2="2.540" y2="-5.580" stroke="#4a5160" stroke-width="0.080" stroke-linecap="round" opacity="0.7"/><line x1="2.540" y1="-5.080" x2="3.040" y2="-5.080" stroke="#4a5160" stroke-width="0.080" stroke-linecap="round" opacity="0.7"/><line x1="2.540" y1="-4.580" x2="2.540" y2="-5.080" stroke="#4a5160" stroke-width="0.080" stroke-linecap="round" opacity="0.7"/><line x1="2.540" y1="43.180" x2="2.540" y2="42.680" stroke="#4a5160" stroke-width="0.080" stroke-linecap="round" opacity="0.7"/><line x1="2.540" y1="43.180" x2="3.040" y2="43.180" stroke="#4a5160" stroke-width="0.080" stroke-linecap="round" opacity="0.7"/><line x1="2.540" y1="43.680" x2="2.540" y2="43.180" stroke="#4a5160" stroke-width="0.080" stroke-linecap="round" opacity="0.7"/><line x1="5.590" y1="48.000" x2="5.590" y2="-9.900" stroke="#4a5160" stroke-width="0.080" stroke-linecap="round" opacity="0.7"/><line x1="-5.080" y1="5.380" x2="0.940" y2="5.380" stroke="#6b7280" stroke-width="0.100" stroke-linecap="round" opacity="0.8"/><line x1="-5.080" y1="7.320" x2="0.940" y2="7.320" stroke="#6b7280" stroke-width="0.100" stroke-linecap="round" opacity="0.8"/><line x1="-5.080" y1="28.240" x2="0.940" y2="28.240" stroke="#6b7280" stroke-width="0.100" stroke-linecap="round" opacity="0.8"/><line x1="-5.080" y1="30.180" x2="0.940" y2="30.180" stroke="#6b7280" stroke-width="0.100" stroke-linecap="round" opacity="0.8"/><line x1="-5.080" y1="-0.300" x2="0.940" y2="-0.300" stroke="#6b7280" stroke-width="0.100" stroke-linecap="round" opacity="0.8"/><line x1="-5.080" y1="0.300" x2="0.940" y2="0.300" stroke="#6b7280" stroke-width="0.100" stroke-linecap="round" opacity="0.8"/><line x1="-5.080" y1="2.240" x2="0.940" y2="2.240" stroke="#6b7280" stroke-width="0.100" stroke-linecap="round" opacity="0.8"/><line x1="-5.080" y1="2.840" x2="0.940" y2="2.840" stroke="#6b7280" stroke-width="0.100" stroke-linecap="round" opacity="0.8"/><line x1="-5.080" y1="4.780" x2="0.940" y2="4.780" stroke="#6b7280" stroke-width="0.100" stroke-linecap="round" opacity="0.8"/><line x1="-5.080" y1="7.920" x2="0.940" y2="7.920" stroke="#6b7280" stroke-width="0.100" stroke-linecap="round" opacity="0.8"/><line x1="-5.080" y1="9.860" x2="0.940" y2="9.860" stroke="#6b7280" stroke-width="0.100" stroke-linecap="round" opacity="0.8"/><line x1="-5.080" y1="10.460" x2="0.940" y2="10.460" stroke="#6b7280" stroke-width="0.100" stroke-linecap="round" opacity="0.8"/><line x1="-5.080" y1="12.400" x2="0.940" y2="12.400" stroke="#6b7280" stroke-width="0.100" stroke-linecap="round" opacity="0.8"/><line x1="-5.080" y1="13.000" x2="0.940" y2="13.000" stroke="#6b7280" stroke-width="0.100" stroke-linecap="round" opacity="0.8"/><line x1="-5.080" y1="14.940" x2="0.940" y2="14.940" stroke="#6b7280" stroke-width="0.100" stroke-linecap="round" opacity="0.8"/><line x1="-5.080" y1="15.540" x2="0.940" y2="15.540" stroke="#6b7280" stroke-width="0.100" stroke-linecap="round" opacity="0.8"/><line x1="-5.080" y1="17.480" x2="0.940" y2="17.480" stroke="#6b7280" stroke-width="0.100" stroke-linecap="round" opacity="0.8"/><line x1="-5.080" y1="18.080" x2="0.940" y2="18.080" stroke="#6b7280" stroke-width="0.100" stroke-linecap="round" opacity="0.8"/><line x1="-5.080" y1="20.020" x2="0.940" y2="20.020" stroke="#6b7280" stroke-width="0.100" stroke-linecap="round" opacity="0.8"/><line x1="-5.080" y1="20.620" x2="0.940" y2="20.620" stroke="#6b7280" stroke-width="0.100" stroke-linecap="round" opacity="0.8"/><line x1="-5.080" y1="22.560" x2="0.940" y2="22.560" stroke="#6b7280" stroke-width="0.100" stroke-linecap="round" opacity="0.8"/><line x1="-5.080" y1="23.160" x2="0.940" y2="23.160" stroke="#6b7280" stroke-width="0.100" stroke-linecap="round" opacity="0.8"/><line x1="-5.080" y1="25.100" x2="0.940" y2="25.100" stroke="#6b7280" stroke-width="0.100" stroke-linecap="round" opacity="0.8"/><line x1="-5.080" y1="25.700" x2="0.940" y2="25.700" stroke="#6b7280" stroke-width="0.100" stroke-linecap="round" opacity="0.8"/><line x1="-5.080" y1="27.640" x2="0.940" y2="27.640" stroke="#6b7280" stroke-width="0.100" stroke-linecap="round" opacity="0.8"/><line x1="-5.080" y1="30.780" x2="0.940" y2="30.780" stroke="#6b7280" stroke-width="0.100" stroke-linecap="round" opacity="0.8"/><line x1="-5.080" y1="32.720" x2="0.940" y2="32.720" stroke="#6b7280" stroke-width="0.100" stroke-linecap="round" opacity="0.8"/><line x1="-5.080" y1="33.320" x2="0.940" y2="33.320" stroke="#6b7280" stroke-width="0.100" stroke-linecap="round" opacity="0.8"/><line x1="-5.080" y1="35.260" x2="0.940" y2="35.260" stroke="#6b7280" stroke-width="0.100" stroke-linecap="round" opacity="0.8"/><line x1="-5.080" y1="35.860" x2="0.940" y2="35.860" stroke="#6b7280" stroke-width="0.100" stroke-linecap="round" opacity="0.8"/><line x1="-5.080" y1="37.800" x2="0.940" y2="37.800" stroke="#6b7280" stroke-width="0.100" stroke-linecap="round" opacity="0.8"/><line x1="-5.080" y1="38.400" x2="0.940" y2="38.400" stroke="#6b7280" stroke-width="0.100" stroke-linecap="round" opacity="0.8"/><line x1="-0.060" y1="-7.900" x2="6.190" y2="-7.900" stroke="#6b7280" stroke-width="0.100" stroke-linecap="round" opacity="0.8"/><line x1="-0.060" y1="-2.900" x2="-0.060" y2="-7.900" stroke="#6b7280" stroke-width="0.100" stroke-linecap="round" opacity="0.8"/><line x1="-0.060" y1="-2.900" x2="0.940" y2="-2.900" stroke="#6b7280" stroke-width="0.100" stroke-linecap="round" opacity="0.8"/><line x1="-0.060" y1="41.000" x2="0.940" y2="41.000" stroke="#6b7280" stroke-width="0.100" stroke-linecap="round" opacity="0.8"/><line x1="-0.060" y1="46.000" x2="-0.060" y2="41.000" stroke="#6b7280" stroke-width="0.100" stroke-linecap="round" opacity="0.8"/><line x1="-0.060" y1="46.000" x2="6.190" y2="46.000" stroke="#6b7280" stroke-width="0.100" stroke-linecap="round" opacity="0.8"/><line x1="0.940" y1="-2.260" x2="3.798" y2="-2.260" stroke="#6b7280" stroke-width="0.100" stroke-linecap="round" opacity="0.8"/><line x1="0.940" y1="40.360" x2="3.798" y2="40.360" stroke="#6b7280" stroke-width="0.100" stroke-linecap="round" opacity="0.8"/><line x1="0.940" y1="41.000" x2="0.940" y2="-2.900" stroke="#6b7280" stroke-width="0.100" stroke-linecap="round" opacity="0.8"/><line x1="3.798" y1="-7.900" x2="5.427" y2="-5.080" stroke="#6b7280" stroke-width="0.100" stroke-linecap="round" opacity="0.8"/><line x1="3.798" y1="-2.260" x2="5.427" y2="-5.080" stroke="#6b7280" stroke-width="0.100" stroke-linecap="round" opacity="0.8"/><line x1="3.798" y1="40.360" x2="5.427" y2="43.180" stroke="#6b7280" stroke-width="0.100" stroke-linecap="round" opacity="0.8"/><line x1="3.798" y1="46.000" x2="5.427" y2="43.180" stroke="#6b7280" stroke-width="0.100" stroke-linecap="round" opacity="0.8"/><line x1="5.590" y1="-7.900" x2="5.590" y2="46.000" stroke="#6b7280" stroke-width="0.100" stroke-linecap="round" opacity="0.8"/><line x1="6.190" y1="-3.150" x2="12.040" y2="-3.150" stroke="#6b7280" stroke-width="0.100" stroke-linecap="round" opacity="0.8"/><line x1="6.190" y1="-2.150" x2="12.040" y2="-2.150" stroke="#6b7280" stroke-width="0.100" stroke-linecap="round" opacity="0.8"/><line x1="6.190" y1="40.250" x2="12.040" y2="40.250" stroke="#6b7280" stroke-width="0.100" stroke-linecap="round" opacity="0.8"/><line x1="6.190" y1="41.250" x2="12.040" y2="41.250" stroke="#6b7280" stroke-width="0.100" stroke-linecap="round" opacity="0.8"/><line x1="6.190" y1="46.000" x2="6.190" y2="-7.900" stroke="#6b7280" stroke-width="0.100" stroke-linecap="round" opacity="0.8"/><line x1="12.040" y1="-3.150" x2="12.640" y2="-2.550" stroke="#6b7280" stroke-width="0.100" stroke-linecap="round" opacity="0.8"/><line x1="12.040" y1="-2.150" x2="12.640" y2="-1.550" stroke="#6b7280" stroke-width="0.100" stroke-linecap="round" opacity="0.8"/><line x1="12.040" y1="40.250" x2="12.640" y2="39.650" stroke="#6b7280" stroke-width="0.100" stroke-linecap="round" opacity="0.8"/><line x1="12.040" y1="41.250" x2="12.040" y2="-3.150" stroke="#6b7280" stroke-width="0.100" stroke-linecap="round" opacity="0.8"/><line x1="12.040" y1="41.250" x2="12.640" y2="40.650" stroke="#6b7280" stroke-width="0.100" stroke-linecap="round" opacity="0.8"/><line x1="12.640" y1="40.650" x2="12.640" y2="-2.550" stroke="#6b7280" stroke-width="0.100" stroke-linecap="round" opacity="0.8"/><line x1="-6.180" y1="-10.150" x2="12.890" y2="-10.150" stroke="#d24d4d" stroke-width="0.080" stroke-linecap="round" opacity="0.7"/><line x1="12.890" y1="-10.150" x2="12.890" y2="48.250" stroke="#d24d4d" stroke-width="0.080" stroke-linecap="round" opacity="0.7"/><line x1="12.890" y1="48.250" x2="-6.180" y2="48.250" stroke="#d24d4d" stroke-width="0.080" stroke-linecap="round" opacity="0.7"/><line x1="-6.180" y1="48.250" x2="-6.180" y2="-10.150" stroke="#d24d4d" stroke-width="0.080" stroke-linecap="round" opacity="0.7"/><path d="M -5.080 0.300 A 0.300 0.300 0 0 1 -5.080 -0.300" fill="none" stroke="#6b7280" stroke-width="0.12" opacity="0.8"/><path d="M -5.080 23.160 A 0.300 0.300 0 1 1 -5.080 22.560" fill="none" stroke="#6b7280" stroke-width="0.12" opacity="0.8"/><path d="M -5.080 2.840 A 0.300 0.300 0 0 1 -5.080 2.240" fill="none" stroke="#6b7280" stroke-width="0.12" opacity="0.8"/><path d="M -5.080 5.380 A 0.300 0.300 0 0 1 -5.080 4.780" fill="none" stroke="#6b7280" stroke-width="0.12" opacity="0.8"/><path d="M -5.080 7.920 A 0.300 0.300 0 0 1 -5.080 7.320" fill="none" stroke="#6b7280" stroke-width="0.12" opacity="0.8"/><path d="M -5.080 10.460 A 0.300 0.300 0 1 1 -5.080 9.860" fill="none" stroke="#6b7280" stroke-width="0.12" opacity="0.8"/><path d="M -5.080 13.000 A 0.300 0.300 0 1 1 -5.080 12.400" fill="none" stroke="#6b7280" stroke-width="0.12" opacity="0.8"/><path d="M -5.080 15.540 A 0.300 0.300 0 0 1 -5.080 14.940" fill="none" stroke="#6b7280" stroke-width="0.12" opacity="0.8"/><path d="M -5.080 18.080 A 0.300 0.300 0 0 1 -5.080 17.480" fill="none" stroke="#6b7280" stroke-width="0.12" opacity="0.8"/><path d="M -5.080 20.620 A 0.300 0.300 0 0 1 -5.080 20.020" fill="none" stroke="#6b7280" stroke-width="0.12" opacity="0.8"/><path d="M -5.080 25.700 A 0.300 0.300 0 0 1 -5.080 25.100" fill="none" stroke="#6b7280" stroke-width="0.12" opacity="0.8"/><path d="M -5.080 28.240 A 0.300 0.300 0 0 1 -5.080 27.640" fill="none" stroke="#6b7280" stroke-width="0.12" opacity="0.8"/><path d="M -5.080 30.780 A 0.300 0.300 0 0 1 -5.080 30.180" fill="none" stroke="#6b7280" stroke-width="0.12" opacity="0.8"/><path d="M -5.080 33.320 A 0.300 0.300 0 0 1 -5.080 32.720" fill="none" stroke="#6b7280" stroke-width="0.12" opacity="0.8"/><path d="M -5.080 35.860 A 0.300 0.300 0 0 1 -5.080 35.260" fill="none" stroke="#6b7280" stroke-width="0.12" opacity="0.8"/><path d="M -5.080 38.400 A 0.300 0.300 0 0 1 -5.080 37.800" fill="none" stroke="#6b7280" stroke-width="0.12" opacity="0.8"/><circle cx="2.540" cy="-5.080" r="1.250" fill="none" stroke="#6b7280" stroke-width="0.12" opacity="0.8"/><circle cx="2.540" cy="43.180" r="1.250" fill="none" stroke="#6b7280" stroke-width="0.12" opacity="0.8"/><rect x="-0.850" y="-0.850" width="1.700" height="1.700" rx="0.850" fill="#c79b5c"/><circle cx="0.000" cy="0.000" r="0.500" fill="#12151c"/><rect x="-0.850" y="1.690" width="1.700" height="1.700" rx="0.850" fill="#c79b5c"/><circle cx="0.000" cy="2.540" r="0.500" fill="#12151c"/><rect x="-0.850" y="4.230" width="1.700" height="1.700" rx="0.850" fill="#c79b5c"/><circle cx="0.000" cy="5.080" r="0.500" fill="#12151c"/><rect x="-0.850" y="6.770" width="1.700" height="1.700" rx="0.850" fill="#c79b5c"/><circle cx="0.000" cy="7.620" r="0.500" fill="#12151c"/><rect x="-0.850" y="9.310" width="1.700" height="1.700" rx="0.850" fill="#c79b5c"/><circle cx="0.000" cy="10.160" r="0.500" fill="#12151c"/><rect x="-0.850" y="11.850" width="1.700" height="1.700" rx="0.850" fill="#c79b5c"/><circle cx="0.000" cy="12.700" r="0.500" fill="#12151c"/><rect x="-0.850" y="14.390" width="1.700" height="1.700" rx="0.850" fill="#c79b5c"/><circle cx="0.000" cy="15.240" r="0.500" fill="#12151c"/><rect x="-0.850" y="16.930" width="1.700" height="1.700" rx="0.850" fill="#c79b5c"/><circle cx="0.000" cy="17.780" r="0.500" fill="#12151c"/><rect x="-0.850" y="19.470" width="1.700" height="1.700" rx="0.850" fill="#c79b5c"/><circle cx="0.000" cy="20.320" r="0.500" fill="#12151c"/><rect x="-0.850" y="22.010" width="1.700" height="1.700" rx="0.850" fill="#c79b5c"/><circle cx="0.000" cy="22.860" r="0.500" fill="#12151c"/><rect x="-0.850" y="24.550" width="1.700" height="1.700" rx="0.850" fill="#c79b5c"/><circle cx="0.000" cy="25.400" r="0.500" fill="#12151c"/><rect x="-0.850" y="27.090" width="1.700" height="1.700" rx="0.850" fill="#c79b5c"/><circle cx="0.000" cy="27.940" r="0.500" fill="#12151c"/><rect x="-0.850" y="29.630" width="1.700" height="1.700" rx="0.850" fill="#c79b5c"/><circle cx="0.000" cy="30.480" r="0.500" fill="#12151c"/><rect x="-0.850" y="32.170" width="1.700" height="1.700" rx="0.850" fill="#c79b5c"/><circle cx="0.000" cy="33.020" r="0.500" fill="#12151c"/><rect x="-0.850" y="34.710" width="1.700" height="1.700" rx="0.850" fill="#c79b5c"/><circle cx="0.000" cy="35.560" r="0.500" fill="#12151c"/><rect x="-0.850" y="37.250" width="1.700" height="1.700" rx="0.850" fill="#c79b5c"/><circle cx="0.000" cy="38.100" r="0.500" fill="#12151c"/><rect x="-3.390" y="-0.850" width="1.700" height="1.700" rx="0.850" fill="#c79b5c"/><circle cx="-2.540" cy="0.000" r="0.500" fill="#12151c"/><rect x="-3.390" y="1.690" width="1.700" height="1.700" rx="0.850" fill="#c79b5c"/><circle cx="-2.540" cy="2.540" r="0.500" fill="#12151c"/><rect x="-3.390" y="4.230" width="1.700" height="1.700" rx="0.850" fill="#c79b5c"/><circle cx="-2.540" cy="5.080" r="0.500" fill="#12151c"/><rect x="-3.390" y="6.770" width="1.700" height="1.700" rx="0.850" fill="#c79b5c"/><circle cx="-2.540" cy="7.620" r="0.500" fill="#12151c"/><rect x="-3.390" y="9.310" width="1.700" height="1.700" rx="0.850" fill="#c79b5c"/><circle cx="-2.540" cy="10.160" r="0.500" fill="#12151c"/><rect x="-3.390" y="11.850" width="1.700" height="1.700" rx="0.850" fill="#c79b5c"/><circle cx="-2.540" cy="12.700" r="0.500" fill="#12151c"/><rect x="-3.390" y="14.390" width="1.700" height="1.700" rx="0.850" fill="#c79b5c"/><circle cx="-2.540" cy="15.240" r="0.500" fill="#12151c"/><rect x="-3.390" y="16.930" width="1.700" height="1.700" rx="0.850" fill="#c79b5c"/><circle cx="-2.540" cy="17.780" r="0.500" fill="#12151c"/><rect x="-3.390" y="19.470" width="1.700" height="1.700" rx="0.850" fill="#c79b5c"/><circle cx="-2.540" cy="20.320" r="0.500" fill="#12151c"/><rect x="-3.390" y="22.010" width="1.700" height="1.700" rx="0.850" fill="#c79b5c"/><circle cx="-2.540" cy="22.860" r="0.500" fill="#12151c"/><rect x="-3.390" y="24.550" width="1.700" height="1.700" rx="0.850" fill="#c79b5c"/><circle cx="-2.540" cy="25.400" r="0.500" fill="#12151c"/><rect x="-3.390" y="27.090" width="1.700" height="1.700" rx="0.850" fill="#c79b5c"/><circle cx="-2.540" cy="27.940" r="0.500" fill="#12151c"/><rect x="-3.390" y="29.630" width="1.700" height="1.700" rx="0.850" fill="#c79b5c"/><circle cx="-2.540" cy="30.480" r="0.500" fill="#12151c"/><rect x="-3.390" y="32.170" width="1.700" height="1.700" rx="0.850" fill="#c79b5c"/><circle cx="-2.540" cy="33.020" r="0.500" fill="#12151c"/><rect x="-3.390" y="34.710" width="1.700" height="1.700" rx="0.850" fill="#c79b5c"/><circle cx="-2.540" cy="35.560" r="0.500" fill="#12151c"/><rect x="-3.390" y="37.250" width="1.700" height="1.700" rx="0.850" fill="#c79b5c"/><circle cx="-2.540" cy="38.100" r="0.500" fill="#12151c"/><rect x="-5.930" y="-0.850" width="1.700" height="1.700" rx="0.850" fill="#c79b5c"/><circle cx="-5.080" cy="0.000" r="0.500" fill="#12151c"/><rect x="-5.930" y="1.690" width="1.700" height="1.700" rx="0.850" fill="#c79b5c"/><circle cx="-5.080" cy="2.540" r="0.500" fill="#12151c"/><rect x="-5.930" y="4.230" width="1.700" height="1.700" rx="0.850" fill="#c79b5c"/><circle cx="-5.080" cy="5.080" r="0.500" fill="#12151c"/><rect x="-5.930" y="6.770" width="1.700" height="1.700" rx="0.850" fill="#c79b5c"/><circle cx="-5.080" cy="7.620" r="0.500" fill="#12151c"/><rect x="-5.930" y="9.310" width="1.700" height="1.700" rx="0.850" fill="#c79b5c"/><circle cx="-5.080" cy="10.160" r="0.500" fill="#12151c"/><rect x="-5.930" y="11.850" width="1.700" height="1.700" rx="0.850" fill="#c79b5c"/><circle cx="-5.080" cy="12.700" r="0.500" fill="#12151c"/><rect x="-5.930" y="14.390" width="1.700" height="1.700" rx="0.850" fill="#c79b5c"/><circle cx="-5.080" cy="15.240" r="0.500" fill="#12151c"/><rect x="-5.930" y="16.930" width="1.700" height="1.700" rx="0.850" fill="#c79b5c"/><circle cx="-5.080" cy="17.780" r="0.500" fill="#12151c"/><rect x="-5.930" y="19.470" width="1.700" height="1.700" rx="0.850" fill="#c79b5c"/><circle cx="-5.080" cy="20.320" r="0.500" fill="#12151c"/><rect x="-5.930" y="22.010" width="1.700" height="1.700" rx="0.850" fill="#c79b5c"/><circle cx="-5.080" cy="22.860" r="0.500" fill="#12151c"/><rect x="-5.930" y="24.550" width="1.700" height="1.700" rx="0.850" fill="#c79b5c"/><circle cx="-5.080" cy="25.400" r="0.500" fill="#12151c"/><rect x="-5.930" y="27.090" width="1.700" height="1.700" rx="0.850" fill="#c79b5c"/><circle cx="-5.080" cy="27.940" r="0.500" fill="#12151c"/><rect x="-5.930" y="29.630" width="1.700" height="1.700" rx="0.850" fill="#c79b5c"/><circle cx="-5.080" cy="30.480" r="0.500" fill="#12151c"/><rect x="-5.930" y="32.170" width="1.700" height="1.700" rx="0.850" fill="#c79b5c"/><circle cx="-5.080" cy="33.020" r="0.500" fill="#12151c"/><rect x="-5.930" y="34.710" width="1.700" height="1.700" rx="0.850" fill="#c79b5c"/><circle cx="-5.080" cy="35.560" r="0.500" fill="#12151c"/><rect x="-5.930" y="37.250" width="1.700" height="1.700" rx="0.850" fill="#c79b5c"/><circle cx="-5.080" cy="38.100" r="0.500" fill="#12151c"/><rect x="0.790" y="-6.830" width="3.500" height="3.500" rx="1.750" fill="#c79b5c"/><circle cx="2.540" cy="-5.080" r="1.400" fill="#12151c"/><rect x="0.790" y="41.430" width="3.500" height="3.500" rx="1.750" fill="#c79b5c"/><circle cx="2.540" cy="43.180" r="1.400" fill="#12151c"/></svg>