<svg xmlns="http://www.w3.org/2000/svg" viewBox="-10.20 -10.16 20.40 21.26" preserveAspectRatio="xMidYMid meet" style="width:100%;height:100%"><rect x="-10.20" y="-10.16" width="20.40" height="21.26" fill="#12151c"/><path d="M -6.980 7.500 A 0.250 0.250 0 0 1 -6.480 7.500" fill="none" stroke="#e6e9ef" stroke-width="0.12" opacity="1"/><path d="M -6.480 7.500 A 0.250 0.250 0 0 1 -6.980 7.500" fill="none" stroke="#e6e9ef" stroke-width="0.12" opacity="1"/><path d="M 4.700 -8.140 A 0.300 0.300 0 0 1 5.000 -8.440" fill="none" stroke="#e6e9ef" stroke-width="0.12" opacity="1"/><path d="M 5.000 -5.840 A 0.300 0.300 0 0 1 4.700 -6.140" fill="none" stroke="#e6e9ef" stroke-width="0.12" opacity="1"/><path d="M 7.000 -8.440 A 0.300 0.300 0 0 1 7.300 -8.140" fill="none" stroke="#e6e9ef" stroke-width="0.12" opacity="1"/><path d="M 7.300 -6.140 A 0.300 0.300 0 0 1 7.000 -5.840" fill="none" stroke="#e6e9ef" stroke-width="0.12" opacity="1"/><path d="M -9.000 -8.685 A 0.275 0.275 0 0 1 -9.000 -8.135" fill="none" stroke="#6b7280" stroke-width="0.12" opacity="0.8"/><path d="M -9.000 -7.415 A 0.275 0.275 0 1 1 -9.000 -6.865" fill="none" stroke="#6b7280" stroke-width="0.12" opacity="0.8"/><path d="M -9.000 -6.145 A 0.275 0.275 0 1 1 -9.000 -5.595" fill="none" stroke="#6b7280" stroke-width="0.12" opacity="0.8"/><path d="M -9.000 -4.875 A 0.275 0.275 0 1 1 -9.000 -4.325" fill="none" stroke="#6b7280" stroke-width="0.12" opacity="0.8"/><path d="M -9.000 -3.605 A 0.275 0.275 0 0 1 -9.000 -3.055" fill="none" stroke="#6b7280" stroke-width="0.12" opacity="0.8"/><path d="M -9.000 -2.335 A 0.275 0.275 0 1 1 -9.000 -1.785" fill="none" stroke="#6b7280" stroke-width="0.12" opacity="0.8"/><path d="M -9.000 -1.065 A 0.275 0.275 0 1 1 -9.000 -0.515" fill="none" stroke="#6b7280" stroke-width="0.12" opacity="0.8"/><path d="M -9.000 0.205 A 0.275 0.275 0 1 1 -9.000 0.755" fill="none" stroke="#6b7280" stroke-width="0.12" opacity="0.8"/><path d="M -9.000 1.475 A 0.275 0.275 0 1 1 -9.000 2.025" fill="none" stroke="#6b7280" stroke-width="0.12" opacity="0.8"/><path d="M -9.000 2.745 A 0.275 0.275 0 1 1 -9.000 3.295" fill="none" stroke="#6b7280" stroke-width="0.12" opacity="0.8"/><path d="M -9.000 4.015 A 0.275 0.275 0 0 1 -9.000 4.565" fill="none" stroke="#6b7280" stroke-width="0.12" opacity="0.8"/><path d="M -9.000 5.285 A 0.275 0.275 0 0 1 -9.000 5.835" fill="none" stroke="#6b7280" stroke-width="0.12" opacity="0.8"/><path d="M -9.000 6.555 A 0.275 0.275 0 0 1 -9.000 7.105" fill="none" stroke="#6b7280" stroke-width="0.12" opacity="0.8"/><path d="M -9.000 7.825 A 0.275 0.275 0 1 1 -9.000 8.375" fill="none" stroke="#6b7280" stroke-width="0.12" opacity="0.8"/><path d="M -7.260 9.600 A 0.275 0.275 0 1 1 -6.710 9.600" fill="none" stroke="#6b7280" stroke-width="0.12" opacity="0.8"/><path d="M -6.980 7.500 A 0.250 0.250 0 0 1 -6.480 7.500" fill="none" stroke="#6b7280" stroke-width="0.12" opacity="0.8"/><path d="M -6.480 7.500 A 0.250 0.250 0 0 1 -6.980 7.500" fill="none" stroke="#6b7280" stroke-width="0.12" opacity="0.8"/><path d="M -5.990 9.600 A 0.275 0.275 0 0 1 -5.440 9.600" fill="none" stroke="#6b7280" stroke-width="0.12" opacity="0.8"/><path d="M -4.720 9.600 A 0.275 0.275 0 0 1 -4.170 9.600" fill="none" stroke="#6b7280" stroke-width="0.12" opacity="0.8"/><path d="M -3.450 9.600 A 0.275 0.275 0 0 1 -2.900 9.600" fill="none" stroke="#6b7280" stroke-width="0.12" opacity="0.8"/><path d="M -2.180 9.600 A 0.275 0.275 0 0 1 -1.630 9.600" fill="none" stroke="#6b7280" stroke-width="0.12" opacity="0.8"/><path d="M -0.910 9.600 A 0.275 0.275 0 1 1 -0.360 9.600" fill="none" stroke="#6b7280" stroke-width="0.12" opacity="0.8"/><path d="M 0.360 9.600 A 0.275 0.275 0 1 1 0.910 9.600" fill="none" stroke="#6b7280" stroke-width="0.12" opacity="0.8"/><path d="M 1.630 9.600 A 0.275 0.275 0 0 1 2.180 9.600" fill="none" stroke="#6b7280" stroke-width="0.12" opacity="0.8"/><path d="M 2.900 9.600 A 0.275 0.275 0 0 1 3.450 9.600" fill="none" stroke="#6b7280" stroke-width="0.12" opacity="0.8"/><path d="M 4.170 9.600 A 0.275 0.275 0 0 1 4.720 9.600" fill="none" stroke="#6b7280" stroke-width="0.12" opacity="0.8"/><path d="M 4.700 -8.140 A 0.300 0.300 0 0 1 5.000 -8.440" fill="none" stroke="#6b7280" stroke-width="0.12" opacity="0.8"/><path d="M 5.000 -5.840 A 0.300 0.300 0 0 1 4.700 -6.140" fill="none" stroke="#6b7280" stroke-width="0.12" opacity="0.8"/><path d="M 5.440 9.600 A 0.275 0.275 0 0 1 5.990 9.600" fill="none" stroke="#6b7280" stroke-width="0.12" opacity="0.8"/><path d="M 6.710 9.600 A 0.275 0.275 0 1 1 7.260 9.600" fill="none" stroke="#6b7280" stroke-width="0.12" opacity="0.8"/><path d="M 7.000 -8.440 A 0.300 0.300 0 0 1 7.300 -8.140" fill="none" stroke="#6b7280" stroke-width="0.12" opacity="0.8"/><path d="M 7.300 -6.140 A 0.300 0.300 0 0 1 7.000 -5.840" fill="none" stroke="#6b7280" stroke-width="0.12" opacity="0.8"/><path d="M 9.000 -8.135 A 0.275 0.275 0 0 1 9.000 -8.685" fill="none" stroke="#6b7280" stroke-width="0.12" opacity="0.8"/><path d="M 9.000 -6.865 A 0.275 0.275 0 1 1 9.000 -7.415" fill="none" stroke="#6b7280" stroke-width="0.12" opacity="0.8"/><path d="M 9.000 -5.595 A 0.275 0.275 0 1 1 9.000 -6.145" fill="none" stroke="#6b7280" stroke-width="0.12" opacity="0.8"/><path d="M 9.000 -4.325 A 0.275 0.275 0 1 1 9.000 -4.875" fill="none" stroke="#6b7280" stroke-width="0.12" opacity="0.8"/><path d="M 9.000 -3.055 A 0.275 0.275 0 0 1 9.000 -3.605" fill="none" stroke="#6b7280" stroke-width="0.12" opacity="0.8"/><path d="M 9.000 -1.785 A 0.275 0.275 0 1 1 9.000 -2.335" fill="none" stroke="#6b7280" stroke-width="0.12" opacity="0.8"/><path d="M 9.000 -0.515 A 0.275 0.275 0 1 1 9.000 -1.065" fill="none" stroke="#6b7280" stroke-width="0.12" opacity="0.8"/><path d="M 9.000 0.755 A 0.275 0.275 0 1 1 9.000 0.205" fill="none" stroke="#6b7280" stroke-width="0.12" opacity="0.8"/><path d="M 9.000 2.025 A 0.275 0.275 0 1 1 9.000 1.475" fill="none" stroke="#6b7280" stroke-width="0.12" opacity="0.8"/><path d="M 9.000 3.295 A 0.275 0.275 0 1 1 9.000 2.745" fill="none" stroke="#6b7280" stroke-width="0.12" opacity="0.8"/><path d="M 9.000 4.565 A 0.275 0.275 0 0 1 9.000 4.015" fill="none" stroke="#6b7280" stroke-width="0.12" opacity="0.8"/><path d="M 9.000 5.835 A 0.275 0.275 0 0 1 9.000 5.285" fill="none" stroke="#6b7280" stroke-width="0.12" opacity="0.8"/><path d="M 9.000 7.105 A 0.275 0.275 0 0 1 9.000 6.555" fill="none" stroke="#6b7280" stroke-width="0.12" opacity="0.8"/><path d="M 9.000 8.375 A 0.275 0.275 0 1 1 9.000 7.825" fill="none" stroke="#6b7280" stroke-width="0.12" opacity="0.8"/><circle cx="6.000" cy="-7.140" r="1.000" fill="none" stroke="#e6e9ef" stroke-width="0.12" opacity="1"/><circle cx="6.000" cy="-7.140" r="0.850" fill="none" stroke="#e6e9ef" stroke-width="0.12" opacity="1"/><circle cx="6.000" cy="-7.140" r="0.300" fill="none" stroke="#e6e9ef" stroke-width="0.12" opacity="1"/><circle cx="6.000" cy="-7.140" r="1.000" fill="none" stroke="#6b7280" stroke-width="0.12" opacity="0.8"/><circle cx="6.000" cy="-7.140" r="0.850" fill="none" stroke="#6b7280" stroke-width="0.12" opacity="0.8"/><circle cx="6.000" cy="-7.140" r="0.300" fill="none" stroke="#6b7280" stroke-width="0.12" opacity="0.8"/><rect x="-9.200" y="-9.160" width="0.900" height="1.500" rx="0.000" fill="#c79b5c"/><rect x="-9.200" y="-7.890" width="0.900" height="1.500" rx="0.000" fill="#c79b5c"/><rect x="-9.200" y="-6.620" width="0.900" height="1.500" rx="0.000" fill="#c79b5c"/><rect x="-9.200" y="-5.350" width="0.900" height="1.500" rx="0.000" fill="#c79b5c"/><rect x="-9.200" y="-4.080" width="0.900" height="1.500" rx="0.000" fill="#c79b5c"/><rect x="-9.200" y="-2.810" width="0.900" height="1.500" rx="0.000" fill="#c79b5c"/><rect x="-9.200" y="-1.540" width="0.900" height="1.500" rx="0.000" fill="#c79b5c"/><rect x="-9.200" y="-0.270" width="0.900" height="1.500" rx="0.000" fill="#c79b5c"/><rect x="-9.200" y="1.000" width="0.900" height="1.500" rx="0.000" fill="#c79b5c"/><rect x="-9.200" y="2.270" width="0.900" height="1.500" rx="0.000" fill="#c79b5c"/><rect x="-9.200" y="3.540" width="0.900" height="1.500" rx="0.000" fill="#c79b5c"/><rect x="-9.200" y="4.810" width="0.900" height="1.500" rx="0.000" fill="#c79b5c"/><rect x="-9.200" y="6.080" width="0.900" height="1.500" rx="0.000" fill="#c79b5c"/><rect x="-9.200" y="7.350" width="0.900" height="1.500" rx="0.000" fill="#c79b5c"/><rect x="-7.435" y="8.600" width="0.900" height="1.500" rx="0.000" fill="#c79b5c"/><rect x="-6.165" y="8.600" width="0.900" height="1.500" rx="0.000" fill="#c79b5c"/><rect x="-4.895" y="8.600" width="0.900" height="1.500" rx="0.000" fill="#c79b5c"/><rect x="-3.625" y="8.600" width="0.900" height="1.500" rx="0.000" fill="#c79b5c"/><rect x="-2.355" y="8.600" width="0.900" height="1.500" rx="0.000" fill="#c79b5c"/><rect x="-1.085" y="8.600" width="0.900" height="1.500" rx="0.000" fill="#c79b5c"/><rect x="0.185" y="8.600" width="0.900" height="1.500" rx="0.000" fill="#c79b5c"/><rect x="1.455" y="8.600" width="0.900" height="1.500" rx="0.000" fill="#c79b5c"/><rect x="2.725" y="8.600" width="0.900" height="1.500" rx="0.000" fill="#c79b5c"/><rect x="3.995" y="8.600" width="0.900" height="1.500" rx="0.000" fill="#c79b5c"/><rect x="5.265" y="8.600" width="0.900" height="1.500" rx="0.000" fill="#c79b5c"/><rect x="6.535" y="8.600" width="0.900" height="1.500" rx="0.000" fill="#c79b5c"/><rect x="8.300" y="7.350" width="0.900" height="1.500" rx="0.000" fill="#c79b5c"/><rect x="8.300" y="6.080" width="0.900" height="1.500" rx="0.000" fill="#c79b5c"/><rect x="8.300" y="4.810" width="0.900" height="1.500" rx="0.000" fill="#c79b5c"/><rect x="8.300" y="3.540" width="0.900" height="1.500" rx="0.000" fill="#c79b5c"/><rect x="8.300" y="2.270" width="0.900" height="1.500" rx="0.000" fill="#c79b5c"/><rect x="8.300" y="1.000" width="0.900" height="1.500" rx="0.000" fill="#c79b5c"/><rect x="8.300" y="-0.270" width="0.900" height="1.500" rx="0.000" fill="#c79b5c"/><rect x="8.300" y="-1.540" width="0.900" height="1.500" rx="0.000" fill="#c79b5c"/><rect x="8.300" y="-2.810" width="0.900" height="1.500" rx="0.000" fill="#c79b5c"/><rect x="8.300" y="-4.080" width="0.900" height="1.500" rx="0.000" fill="#c79b5c"/><rect x="8.300" y="-5.350" width="0.900" height="1.500" rx="0.000" fill="#c79b5c"/><rect x="8.300" y="-6.620" width="0.900" height="1.500" rx="0.000" fill="#c79b5c"/><rect x="8.300" y="-7.890" width="0.900" height="1.500" rx="0.000" fill="#c79b5c"/><rect x="8.300" y="-9.160" width="0.900" height="1.500" rx="0.000" fill="#c79b5c"/><rect x="-1.950" y="-1.140" width="0.900" height="0.900" rx="0.000" fill="#c79b5c"/><rect x="-3.350" y="-2.540" width="0.900" height="0.900" rx="0.000" fill="#c79b5c"/><rect x="-1.950" y="-2.540" width="0.900" height="0.900" rx="0.000" fill="#c79b5c"/><rect x="-0.550" y="-2.540" width="0.900" height="0.900" rx="0.000" fill="#c79b5c"/><rect x="-3.350" y="-1.140" width="0.900" height="0.900" rx="0.000" fill="#c79b5c"/><rect x="-0.550" y="-1.140" width="0.900" height="0.900" rx="0.000" fill="#c79b5c"/><rect x="-3.350" y="0.260" width="0.900" height="0.900" rx="0.000" fill="#c79b5c"/><rect x="-1.950" y="0.260" width="0.900" height="0.900" rx="0.000" fill="#c79b5c"/><rect x="-0.550" y="0.260" width="0.900" height="0.900" rx="0.000" fill="#c79b5c"/></svg>