<svg xmlns="http://www.w3.org/2000/svg" viewBox="-3.23 -2.40 6.12 4.80" preserveAspectRatio="xMidYMid meet" style="width:100%;height:100%"><rect x="-3.23" y="-2.40" width="6.12" height="4.80" fill="#12151c"/><line x1="-0.400" y1="-1.100" x2="0.400" y2="-1.100" stroke="#e6e9ef" stroke-width="0.200" stroke-linecap="round" opacity="1"/><line x1="-0.400" y1="1.100" x2="0.400" y2="1.100" stroke="#e6e9ef" stroke-width="0.200" stroke-linecap="round" opacity="1"/><line x1="-1.900" y1="-1.400" x2="1.900" y2="-1.400" stroke="#d24d4d" stroke-width="0.080" stroke-linecap="round" opacity="0.7"/><line x1="-1.900" y1="1.400" x2="-1.900" y2="-1.400" stroke="#d24d4d" stroke-width="0.080" stroke-linecap="round" opacity="0.7"/><line x1="-1.900" y1="1.400" x2="1.900" y2="1.400" stroke="#d24d4d" stroke-width="0.080" stroke-linecap="round" opacity="0.7"/><line x1="1.900" y1="1.400" x2="1.900" y2="-1.400" stroke="#d24d4d" stroke-width="0.080" stroke-linecap="round" opacity="0.7"/><line x1="-1.250" y1="-1.100" x2="1.250" y2="-1.100" stroke="#6b7280" stroke-width="0.100" stroke-linecap="round" opacity="0.8"/><line x1="-1.250" y1="-1.000" x2="-1.150" y2="-1.100" stroke="#6b7280" stroke-width="0.100" stroke-linecap="round" opacity="0.8"/><line x1="-1.250" y1="-0.900" x2="-1.050" y2="-1.100" stroke="#6b7280" stroke-width="0.100" stroke-linecap="round" opacity="0.8"/><line x1="-1.250" y1="-0.800" x2="-0.950" y2="-1.100" stroke="#6b7280" stroke-width="0.100" stroke-linecap="round" opacity="0.8"/><line x1="-1.250" y1="-0.700" x2="-0.850" y2="-1.100" stroke="#6b7280" stroke-width="0.100" stroke-linecap="round" opacity="0.8"/><line x1="-1.250" y1="-0.600" x2="-0.750" y2="-1.100" stroke="#6b7280" stroke-width="0.100" stroke-linecap="round" opacity="0.8"/><line x1="-1.250" y1="-0.500" x2="-0.650" y2="-1.100" stroke="#6b7280" stroke-width="0.100" stroke-linecap="round" opacity="0.8"/><line x1="-1.250" y1="-0.400" x2="-0.550" y2="-1.100" stroke="#6b7280" stroke-width="0.100" stroke-linecap="round" opacity="0.8"/><line x1="-1.250" y1="-0.300" x2="-0.450" y2="-1.100" stroke="#6b7280" stroke-width="0.100" stroke-linecap="round" opacity="0.8"/><line x1="-1.250" y1="-0.200" x2="-0.350" y2="-1.100" stroke="#6b7280" stroke-width="0.100" stroke-linecap="round" opacity="0.8"/><line x1="-1.250" y1="-0.100" x2="-0.250" y2="-1.100" stroke="#6b7280" stroke-width="0.100" stroke-linecap="round" opacity="0.8"/><line x1="-1.250" y1="1.100" x2="-1.250" y2="-1.100" stroke="#6b7280" stroke-width="0.100" stroke-linecap="round" opacity="0.8"/><line x1="-1.250" y1="1.100" x2="1.250" y2="1.100" stroke="#6b7280" stroke-width="0.100" stroke-linecap="round" opacity="0.8"/><line x1="1.250" y1="1.100" x2="1.250" y2="-1.100" stroke="#6b7280" stroke-width="0.100" stroke-linecap="round" opacity="0.8"/><circle cx="-2.100" cy="-0.650" r="0.150" fill="#e6e9ef" opacity="1"/><rect x="-1.625" y="-0.800" width="0.850" height="0.300" rx="0.000" fill="#c79b5c"/><rect x="-1.625" y="-0.150" width="0.850" height="0.300" rx="0.000" fill="#c79b5c"/><rect x="-1.625" y="0.500" width="0.850" height="0.300" rx="0.000" fill="#c79b5c"/><rect x="0.775" y="0.500" width="0.850" height="0.300" rx="0.000" fill="#c79b5c"/><rect x="0.775" y="-0.150" width="0.850" height="0.300" rx="0.000" fill="#c79b5c"/><rect x="0.775" y="-0.800" width="0.850" height="0.300" rx="0.000" fill="#c79b5c"/><rect x="-0.425" y="-0.650" width="0.850" height="1.300" rx="0.000" fill="#c79b5c"/></svg>