<svg xmlns="http://www.w3.org/2000/svg" viewBox="-4.90 -6.15 9.80 12.30" preserveAspectRatio="xMidYMid meet" style="width:100%;height:100%"><rect x="-4.90" y="-6.15" width="9.80" height="12.30" fill="#12151c"/><line x1="-1.800" y1="-4.850" x2="1.800" y2="-4.850" stroke="#e6e9ef" stroke-width="0.200" stroke-linecap="round" opacity="1"/><line x1="-1.800" y1="-3.050" x2="-1.800" y2="-4.850" stroke="#e6e9ef" stroke-width="0.200" stroke-linecap="round" opacity="1"/><line x1="-1.800" y1="4.850" x2="-1.800" y2="3.050" stroke="#e6e9ef" stroke-width="0.200" stroke-linecap="round" opacity="1"/><line x1="-1.800" y1="4.850" x2="1.800" y2="4.850" stroke="#e6e9ef" stroke-width="0.200" stroke-linecap="round" opacity="1"/><line x1="1.800" y1="-3.050" x2="1.800" y2="-4.850" stroke="#e6e9ef" stroke-width="0.200" stroke-linecap="round" opacity="1"/><line x1="1.800" y1="4.850" x2="1.800" y2="3.050" stroke="#e6e9ef" stroke-width="0.200" stroke-linecap="round" opacity="1"/><line x1="-3.900" y1="-5.150" x2="3.900" y2="-5.150" stroke="#d24d4d" stroke-width="0.080" stroke-linecap="round" opacity="0.7"/><line x1="-3.900" y1="5.150" x2="-3.900" y2="-5.150" stroke="#d24d4d" stroke-width="0.080" stroke-linecap="round" opacity="0.7"/><line x1="-3.900" y1="5.150" x2="3.900" y2="5.150" stroke="#d24d4d" stroke-width="0.080" stroke-linecap="round" opacity="0.7"/><line x1="3.900" y1="5.150" x2="3.900" y2="-5.150" stroke="#d24d4d" stroke-width="0.080" stroke-linecap="round" opacity="0.7"/><line x1="-2.200" y1="-4.850" x2="2.200" y2="-4.850" stroke="#6b7280" stroke-width="0.100" stroke-linecap="round" opacity="0.8"/><line x1="-2.200" y1="4.850" x2="-2.200" y2="-4.850" stroke="#6b7280" stroke-width="0.100" stroke-linecap="round" opacity="0.8"/><line x1="-2.200" y1="4.850" x2="2.200" y2="4.850" stroke="#6b7280" stroke-width="0.100" stroke-linecap="round" opacity="0.8"/><line x1="2.200" y1="4.850" x2="2.200" y2="-4.850" stroke="#6b7280" stroke-width="0.100" stroke-linecap="round" opacity="0.8"/><circle cx="-3.400" cy="-4.950" r="0.150" fill="#e6e9ef" opacity="1"/><circle cx="-0.800" cy="-3.850" r="0.250" fill="#e6e9ef" opacity="1"/><circle cx="-1.200" cy="-3.850" r="0.500" fill="none" stroke="#6b7280" stroke-width="0.12" opacity="0.8"/><rect x="-3.650" y="-4.450" width="1.500" height="0.450" rx="0.000" fill="#c79b5c"/><rect x="-3.650" y="-3.800" width="1.500" height="0.450" rx="0.000" fill="#c79b5c"/><rect x="-3.650" y="-3.150" width="1.500" height="0.450" rx="0.000" fill="#c79b5c"/><rect x="-3.650" y="-2.500" width="1.500" height="0.450" rx="0.000" fill="#c79b5c"/><rect x="-3.650" y="-1.850" width="1.500" height="0.450" rx="0.000" fill="#c79b5c"/><rect x="-3.650" y="-1.200" width="1.500" height="0.450" rx="0.000" fill="#c79b5c"/><rect x="-3.650" y="-0.550" width="1.500" height="0.450" rx="0.000" fill="#c79b5c"/><rect x="-3.650" y="0.100" width="1.500" height="0.450" rx="0.000" fill="#c79b5c"/><rect x="-3.650" y="0.750" width="1.500" height="0.450" rx="0.000" fill="#c79b5c"/><rect x="-3.650" y="1.400" width="1.500" height="0.450" rx="0.000" fill="#c79b5c"/><rect x="-3.650" y="2.050" width="1.500" height="0.450" rx="0.000" fill="#c79b5c"/><rect x="-3.650" y="2.700" width="1.500" height="0.450" rx="0.000" fill="#c79b5c"/><rect x="-3.650" y="3.350" width="1.500" height="0.450" rx="0.000" fill="#c79b5c"/><rect x="-3.650" y="4.000" width="1.500" height="0.450" rx="0.000" fill="#c79b5c"/><rect x="2.150" y="4.000" width="1.500" height="0.450" rx="0.000" fill="#c79b5c"/><rect x="2.150" y="3.350" width="1.500" height="0.450" rx="0.000" fill="#c79b5c"/><rect x="2.150" y="2.700" width="1.500" height="0.450" rx="0.000" fill="#c79b5c"/><rect x="2.150" y="2.050" width="1.500" height="0.450" rx="0.000" fill="#c79b5c"/><rect x="2.150" y="1.400" width="1.500" height="0.450" rx="0.000" fill="#c79b5c"/><rect x="2.150" y="0.750" width="1.500" height="0.450" rx="0.000" fill="#c79b5c"/><rect x="2.150" y="0.100" width="1.500" height="0.450" rx="0.000" fill="#c79b5c"/><rect x="2.150" y="-0.550" width="1.500" height="0.450" rx="0.000" fill="#c79b5c"/><rect x="2.150" y="-1.200" width="1.500" height="0.450" rx="0.000" fill="#c79b5c"/><rect x="2.150" y="-1.850" width="1.500" height="0.450" rx="0.000" fill="#c79b5c"/><rect x="2.150" y="-2.500" width="1.500" height="0.450" rx="0.000" fill="#c79b5c"/><rect x="2.150" y="-3.150" width="1.500" height="0.450" rx="0.000" fill="#c79b5c"/><rect x="2.150" y="-3.800" width="1.500" height="0.450" rx="0.000" fill="#c79b5c"/><rect x="2.150" y="-4.450" width="1.500" height="0.450" rx="0.000" fill="#c79b5c"/><rect x="-1.550" y="-2.675" width="3.100" height="5.350" rx="0.000" fill="#c79b5c"/></svg>