<svg xmlns="http://www.w3.org/2000/svg" viewBox="-3.05 -2.65 6.10 5.30" preserveAspectRatio="xMidYMid meet" style="width:100%;height:100%"><rect x="-3.05" y="-2.65" width="6.10" height="5.30" fill="#12151c"/><line x1="-1.800" y1="-0.175" x2="-1.300" y2="0.000" stroke="#4a5160" stroke-width="0.100" stroke-linecap="round" opacity="0.7"/><line x1="-1.800" y1="-0.175" x2="-0.800" y2="-0.175" stroke="#4a5160" stroke-width="0.100" stroke-linecap="round" opacity="0.7"/><line x1="-1.800" y1="0.175" x2="-1.800" y2="-0.175" stroke="#4a5160" stroke-width="0.100" stroke-linecap="round" opacity="0.7"/><line x1="-1.800" y1="0.175" x2="-1.300" y2="0.000" stroke="#4a5160" stroke-width="0.100" stroke-linecap="round" opacity="0.7"/><line x1="-1.800" y1="0.175" x2="-0.800" y2="0.175" stroke="#4a5160" stroke-width="0.100" stroke-linecap="round" opacity="0.7"/><line x1="-0.825" y1="-1.400" x2="-0.650" y2="-0.900" stroke="#4a5160" stroke-width="0.100" stroke-linecap="round" opacity="0.7"/><line x1="-0.825" y1="-1.400" x2="-0.475" y2="-1.400" stroke="#4a5160" stroke-width="0.100" stroke-linecap="round" opacity="0.7"/><line x1="-0.825" y1="-0.400" x2="-0.825" y2="-1.400" stroke="#4a5160" stroke-width="0.100" stroke-linecap="round" opacity="0.7"/><line x1="-0.825" y1="-0.400" x2="-0.475" y2="-0.400" stroke="#4a5160" stroke-width="0.100" stroke-linecap="round" opacity="0.7"/><line x1="-0.825" y1="0.400" x2="-0.475" y2="0.400" stroke="#4a5160" stroke-width="0.100" stroke-linecap="round" opacity="0.7"/><line x1="-0.825" y1="1.400" x2="-0.825" y2="0.400" stroke="#4a5160" stroke-width="0.100" stroke-linecap="round" opacity="0.7"/><line x1="-0.825" y1="1.400" x2="-0.650" y2="0.900" stroke="#4a5160" stroke-width="0.100" stroke-linecap="round" opacity="0.7"/><line x1="-0.825" y1="1.400" x2="-0.475" y2="1.400" stroke="#4a5160" stroke-width="0.100" stroke-linecap="round" opacity="0.7"/><line x1="-0.800" y1="0.175" x2="-0.800" y2="-0.175" stroke="#4a5160" stroke-width="0.100" stroke-linecap="round" opacity="0.7"/><line x1="-0.650" y1="-0.900" x2="-0.475" y2="-1.400" stroke="#4a5160" stroke-width="0.100" stroke-linecap="round" opacity="0.7"/><line x1="-0.650" y1="0.900" x2="-0.475" y2="1.400" stroke="#4a5160" stroke-width="0.100" stroke-linecap="round" opacity="0.7"/><line x1="-0.500" y1="0.000" x2="0.000" y2="0.000" stroke="#4a5160" stroke-width="0.100" stroke-linecap="round" opacity="0.7"/><line x1="-0.475" y1="-0.400" x2="-0.475" y2="-1.400" stroke="#4a5160" stroke-width="0.100" stroke-linecap="round" opacity="0.7"/><line x1="-0.475" y1="1.400" x2="-0.475" y2="0.400" stroke="#4a5160" stroke-width="0.100" stroke-linecap="round" opacity="0.7"/><line x1="-0.175" y1="-1.400" x2="0.000" y2="-0.900" stroke="#4a5160" stroke-width="0.100" stroke-linecap="round" opacity="0.7"/><line x1="-0.175" y1="-1.400" x2="0.175" y2="-1.400" stroke="#4a5160" stroke-width="0.100" stroke-linecap="round" opacity="0.7"/><line x1="-0.175" y1="-0.400" x2="-0.175" y2="-1.400" stroke="#4a5160" stroke-width="0.100" stroke-linecap="round" opacity="0.7"/><line x1="-0.175" y1="-0.400" x2="0.175" y2="-0.400" stroke="#4a5160" stroke-width="0.100" stroke-linecap="round" opacity="0.7"/><line x1="-0.175" y1="0.400" x2="0.175" y2="0.400" stroke="#4a5160" stroke-width="0.100" stroke-linecap="round" opacity="0.7"/><line x1="-0.175" y1="1.400" x2="-0.175" y2="0.400" stroke="#4a5160" stroke-width="0.100" stroke-linecap="round" opacity="0.7"/><line x1="-0.175" y1="1.400" x2="0.000" y2="0.900" stroke="#4a5160" stroke-width="0.100" stroke-linecap="round" opacity="0.7"/><line x1="-0.175" y1="1.400" x2="0.175" y2="1.400" stroke="#4a5160" stroke-width="0.100" stroke-linecap="round" opacity="0.7"/><line x1="0.000" y1="-0.900" x2="0.175" y2="-1.400" stroke="#4a5160" stroke-width="0.100" stroke-linecap="round" opacity="0.7"/><line x1="0.000" y1="0.000" x2="0.000" y2="-0.500" stroke="#4a5160" stroke-width="0.100" stroke-linecap="round" opacity="0.7"/><line x1="0.000" y1="0.000" x2="0.500" y2="0.000" stroke="#4a5160" stroke-width="0.100" stroke-linecap="round" opacity="0.7"/><line x1="0.000" y1="0.500" x2="0.000" y2="0.000" stroke="#4a5160" stroke-width="0.100" stroke-linecap="round" opacity="0.7"/><line x1="0.000" y1="0.900" x2="0.175" y2="1.400" stroke="#4a5160" stroke-width="0.100" stroke-linecap="round" opacity="0.7"/><line x1="0.175" y1="-0.400" x2="0.175" y2="-1.400" stroke="#4a5160" stroke-width="0.100" stroke-linecap="round" opacity="0.7"/><line x1="0.175" y1="1.400" x2="0.175" y2="0.400" stroke="#4a5160" stroke-width="0.100" stroke-linecap="round" opacity="0.7"/><line x1="0.475" y1="-1.400" x2="0.650" y2="-0.900" stroke="#4a5160" stroke-width="0.100" stroke-linecap="round" opacity="0.7"/><line x1="0.475" y1="-1.400" x2="0.825" y2="-1.400" stroke="#4a5160" stroke-width="0.100" stroke-linecap="round" opacity="0.7"/><line x1="0.475" y1="-0.400" x2="0.475" y2="-1.400" stroke="#4a5160" stroke-width="0.100" stroke-linecap="round" opacity="0.7"/><line x1="0.475" y1="-0.400" x2="0.825" y2="-0.400" stroke="#4a5160" stroke-width="0.100" stroke-linecap="round" opacity="0.7"/><line x1="0.475" y1="0.400" x2="0.825" y2="0.400" stroke="#4a5160" stroke-width="0.100" stroke-linecap="round" opacity="0.7"/><line x1="0.475" y1="1.400" x2="0.475" y2="0.400" stroke="#4a5160" stroke-width="0.100" stroke-linecap="round" opacity="0.7"/><line x1="0.475" y1="1.400" x2="0.650" y2="0.900" stroke="#4a5160" stroke-width="0.100" stroke-linecap="round" opacity="0.7"/><line x1="0.475" y1="1.400" x2="0.825" y2="1.400" stroke="#4a5160" stroke-width="0.100" stroke-linecap="round" opacity="0.7"/><line x1="0.650" y1="-0.900" x2="0.825" y2="-1.400" stroke="#4a5160" stroke-width="0.100" stroke-linecap="round" opacity="0.7"/><line x1="0.650" y1="0.900" x2="0.825" y2="1.400" stroke="#4a5160" stroke-width="0.100" stroke-linecap="round" opacity="0.7"/><line x1="0.800" y1="-0.175" x2="1.800" y2="-0.175" stroke="#4a5160" stroke-width="0.100" stroke-linecap="round" opacity="0.7"/><line x1="0.800" y1="0.175" x2="0.800" y2="-0.175" stroke="#4a5160" stroke-width="0.100" stroke-linecap="round" opacity="0.7"/><line x1="0.800" y1="0.175" x2="1.800" y2="0.175" stroke="#4a5160" stroke-width="0.100" stroke-linecap="round" opacity="0.7"/><line x1="0.825" y1="-0.400" x2="0.825" y2="-1.400" stroke="#4a5160" stroke-width="0.100" stroke-linecap="round" opacity="0.7"/><line x1="0.825" y1="1.400" x2="0.825" y2="0.400" stroke="#4a5160" stroke-width="0.100" stroke-linecap="round" opacity="0.7"/><line x1="1.300" y1="0.000" x2="1.800" y2="-0.175" stroke="#4a5160" stroke-width="0.100" stroke-linecap="round" opacity="0.7"/><line x1="1.300" y1="0.000" x2="1.800" y2="0.175" stroke="#4a5160" stroke-width="0.100" stroke-linecap="round" opacity="0.7"/><line x1="1.800" y1="0.175" x2="1.800" y2="-0.175" stroke="#4a5160" stroke-width="0.100" stroke-linecap="round" opacity="0.7"/><line x1="-2.050" y1="-1.650" x2="2.050" y2="-1.650" stroke="#d24d4d" stroke-width="0.080" stroke-linecap="round" opacity="0.7"/><line x1="-2.050" y1="1.650" x2="-2.050" y2="-1.650" stroke="#d24d4d" stroke-width="0.080" stroke-linecap="round" opacity="0.7"/><line x1="-2.050" y1="1.650" x2="2.050" y2="1.650" stroke="#d24d4d" stroke-width="0.080" stroke-linecap="round" opacity="0.7"/><line x1="2.050" y1="1.650" x2="2.050" y2="-1.650" stroke="#d24d4d" stroke-width="0.080" stroke-linecap="round" opacity="0.7"/><line x1="-1.075" y1="-0.675" x2="1.075" y2="-0.675" stroke="#6b7280" stroke-width="0.100" stroke-linecap="round" opacity="0.8"/><line x1="-1.075" y1="-0.150" x2="-0.975" y2="-0.150" stroke="#6b7280" stroke-width="0.100" stroke-linecap="round" opacity="0.8"/><line x1="-1.075" y1="0.143" x2="-0.931" y2="0.143" stroke="#6b7280" stroke-width="0.100" stroke-linecap="round" opacity="0.8"/><line x1="-1.075" y1="0.675" x2="-1.075" y2="-0.675" stroke="#6b7280" stroke-width="0.100" stroke-linecap="round" opacity="0.8"/><line x1="-1.075" y1="0.675" x2="1.075" y2="0.675" stroke="#6b7280" stroke-width="0.100" stroke-linecap="round" opacity="0.8"/><line x1="-0.800" y1="-0.575" x2="-0.800" y2="-0.675" stroke="#6b7280" stroke-width="0.100" stroke-linecap="round" opacity="0.8"/><line x1="-0.800" y1="0.675" x2="-0.800" y2="0.575" stroke="#6b7280" stroke-width="0.100" stroke-linecap="round" opacity="0.8"/><line x1="-0.575" y1="-0.300" x2="-0.375" y2="-0.300" stroke="#6b7280" stroke-width="0.100" stroke-linecap="round" opacity="0.8"/><line x1="-0.575" y1="-0.100" x2="-0.575" y2="-0.300" stroke="#6b7280" stroke-width="0.100" stroke-linecap="round" opacity="0.8"/><line x1="-0.575" y1="-0.100" x2="-0.375" y2="-0.100" stroke="#6b7280" stroke-width="0.100" stroke-linecap="round" opacity="0.8"/><line x1="-0.500" y1="-0.575" x2="-0.500" y2="-0.675" stroke="#6b7280" stroke-width="0.100" stroke-linecap="round" opacity="0.8"/><line x1="-0.500" y1="0.675" x2="-0.500" y2="0.575" stroke="#6b7280" stroke-width="0.100" stroke-linecap="round" opacity="0.8"/><line x1="-0.375" y1="-0.100" x2="-0.375" y2="-0.300" stroke="#6b7280" stroke-width="0.100" stroke-linecap="round" opacity="0.8"/><line x1="-0.150" y1="-0.575" x2="-0.150" y2="-0.675" stroke="#6b7280" stroke-width="0.100" stroke-linecap="round" opacity="0.8"/><line x1="-0.150" y1="0.675" x2="-0.150" y2="0.575" stroke="#6b7280" stroke-width="0.100" stroke-linecap="round" opacity="0.8"/><line x1="0.150" y1="-0.575" x2="0.150" y2="-0.675" stroke="#6b7280" stroke-width="0.100" stroke-linecap="round" opacity="0.8"/><line x1="0.150" y1="0.675" x2="0.150" y2="0.575" stroke="#6b7280" stroke-width="0.100" stroke-linecap="round" opacity="0.8"/><line x1="0.500" y1="-0.575" x2="0.500" y2="-0.675" stroke="#6b7280" stroke-width="0.100" stroke-linecap="round" opacity="0.8"/><line x1="0.500" y1="0.675" x2="0.500" y2="0.575" stroke="#6b7280" stroke-width="0.100" stroke-linecap="round" opacity="0.8"/><line x1="0.800" y1="-0.575" x2="0.800" y2="-0.675" stroke="#6b7280" stroke-width="0.100" stroke-linecap="round" opacity="0.8"/><line x1="0.800" y1="0.675" x2="0.800" y2="0.575" stroke="#6b7280" stroke-width="0.100" stroke-linecap="round" opacity="0.8"/><line x1="0.975" y1="-0.150" x2="1.075" y2="-0.150" stroke="#6b7280" stroke-width="0.100" stroke-linecap="round" opacity="0.8"/><line x1="0.975" y1="0.150" x2="1.075" y2="0.150" stroke="#6b7280" stroke-width="0.100" stroke-linecap="round" opacity="0.8"/><line x1="1.075" y1="0.675" x2="1.075" y2="-0.675" stroke="#6b7280" stroke-width="0.100" stroke-linecap="round" opacity="0.8"/><path d="M -0.975 -0.150 A 0.150 0.150 0 0 1 -0.931 0.144" fill="none" stroke="#6b7280" stroke-width="0.12" opacity="0.8"/><path d="M -0.800 0.575 A 0.150 0.150 0 0 1 -0.500 0.575" fill="none" stroke="#6b7280" stroke-width="0.12" opacity="0.8"/><path d="M -0.500 -0.575 A 0.150 0.150 0 0 1 -0.800 -0.575" fill="none" stroke="#6b7280" stroke-width="0.12" opacity="0.8"/><path d="M -0.150 0.575 A 0.150 0.150 0 0 1 0.150 0.575" fill="none" stroke="#6b7280" stroke-width="0.12" opacity="0.8"/><path d="M 0.150 -0.575 A 0.150 0.150 0 0 1 -0.150 -0.575" fill="none" stroke="#6b7280" stroke-width="0.12" opacity="0.8"/><path d="M 0.500 0.575 A 0.150 0.150 0 0 1 0.800 0.575" fill="none" stroke="#6b7280" stroke-width="0.12" opacity="0.8"/><path d="M 0.800 -0.575 A 0.150 0.150 0 0 1 0.500 -0.575" fill="none" stroke="#6b7280" stroke-width="0.12" opacity="0.8"/><path d="M 0.975 0.150 A 0.150 0.150 0 1 1 0.975 -0.150" fill="none" stroke="#6b7280" stroke-width="0.12" opacity="0.8"/><circle cx="-1.500" cy="-1.100" r="0.150" fill="#e6e9ef" opacity="1"/><rect x="-0.825" y="-1.400" width="0.350" height="1.000" rx="0.000" fill="#c79b5c"/><rect x="-0.175" y="-1.400" width="0.350" height="1.000" rx="0.000" fill="#c79b5c"/><rect x="0.475" y="-1.400" width="0.350" height="1.000" rx="0.000" fill="#c79b5c"/><rect x="1.125" y="-0.500" width="0.350" height="1.000" rx="0.000" fill="#c79b5c"/><rect x="0.475" y="0.400" width="0.350" height="1.000" rx="0.000" fill="#c79b5c"/><rect x="-0.175" y="0.400" width="0.350" height="1.000" rx="0.000" fill="#c79b5c"/><rect x="-0.825" y="0.400" width="0.350" height="1.000" rx="0.000" fill="#c79b5c"/><rect x="-1.475" y="-0.500" width="0.350" height="1.000" rx="0.000" fill="#c79b5c"/></svg>