<svg xmlns="http://www.w3.org/2000/svg" viewBox="-6.58 -1.50 48.72 86.82" preserveAspectRatio="xMidYMid meet" style="width:100%;height:100%"><rect x="-6.58" y="-1.50" width="48.72" height="86.82" fill="#12151c"/><rect x="12.700" y="30.480" width="5.080" height="5.080" fill="#1e222b" stroke="#4ea1ff" stroke-width="0.25"/><rect x="12.700" y="36.830" width="5.080" height="5.080" fill="#1e222b" stroke="#4ea1ff" stroke-width="0.25"/><rect x="12.700" y="43.180" width="5.080" height="5.080" fill="#1e222b" stroke="#4ea1ff" stroke-width="0.25"/><rect x="12.700" y="49.530" width="5.080" height="5.080" fill="#1e222b" stroke="#4ea1ff" stroke-width="0.25"/><rect x="19.050" y="30.480" width="5.080" height="5.080" fill="#1e222b" stroke="#4ea1ff" stroke-width="0.25"/><rect x="19.050" y="36.830" width="5.080" height="5.080" fill="#1e222b" stroke="#4ea1ff" stroke-width="0.25"/><rect x="19.050" y="43.180" width="5.080" height="5.080" fill="#1e222b" stroke="#4ea1ff" stroke-width="0.25"/><rect x="19.050" y="49.530" width="5.080" height="5.080" fill="#1e222b" stroke="#4ea1ff" stroke-width="0.25"/><rect x="23.622" y="55.880" width="2.286" height="1.270" fill="#1e222b" stroke="#4ea1ff" stroke-width="0.25"/><rect x="25.400" y="30.480" width="5.080" height="5.080" fill="#1e222b" stroke="#4ea1ff" stroke-width="0.25"/><rect x="25.400" y="36.830" width="5.080" height="5.080" fill="#1e222b" stroke="#4ea1ff" stroke-width="0.25"/><rect x="25.400" y="43.180" width="5.080" height="5.080" fill="#1e222b" stroke="#4ea1ff" stroke-width="0.25"/><rect x="25.400" y="49.530" width="5.080" height="5.080" fill="#1e222b" stroke="#4ea1ff" stroke-width="0.25"/><rect x="31.750" y="30.480" width="5.080" height="5.080" fill="#1e222b" stroke="#4ea1ff" stroke-width="0.25"/><rect x="31.750" y="36.830" width="5.080" height="5.080" fill="#1e222b" stroke="#4ea1ff" stroke-width="0.25"/><rect x="31.750" y="43.180" width="5.080" height="5.080" fill="#1e222b" stroke="#4ea1ff" stroke-width="0.25"/><rect x="31.750" y="49.530" width="5.080" height="5.080" fill="#1e222b" stroke="#4ea1ff" stroke-width="0.25"/><rect x="11.430" y="29.210" width="26.670" height="26.670" fill="#1e222b" stroke="#4ea1ff" stroke-width="0.25"/><rect x="0.000" y="-0.000" width="40.640" height="83.820" fill="#1e222b" stroke="#4ea1ff" stroke-width="0.25"/><line x1="-5.080" y1="2.540" x2="0.000" y2="2.540" stroke="#e6e9ef" stroke-width="0.2"/><circle cx="-5.080" cy="2.540" r="0.4" fill="#4ea1ff"/><text x="0.500" y="2.890" fill="#e6e9ef" font-size="1.1" text-anchor="start" font-family="sans-serif">A(A-1)</text><text x="-0.300" y="2.190" fill="#9aa3b2" font-size="0.9" text-anchor="end" font-family="sans-serif">AA1</text><line x1="-5.080" y1="5.080" x2="0.000" y2="5.080" stroke="#e6e9ef" stroke-width="0.2"/><circle cx="-5.080" cy="5.080" r="0.4" fill="#4ea1ff"/><text x="0.500" y="5.430" fill="#e6e9ef" font-size="1.1" text-anchor="start" font-family="sans-serif">K(A-1)</text><text x="-0.300" y="4.730" fill="#9aa3b2" font-size="0.9" text-anchor="end" font-family="sans-serif">KA1</text><line x1="-5.080" y1="7.620" x2="0.000" y2="7.620" stroke="#e6e9ef" stroke-width="0.2"/><circle cx="-5.080" cy="7.620" r="0.4" fill="#4ea1ff"/><text x="0.500" y="7.970" fill="#e6e9ef" font-size="1.1" text-anchor="start" font-family="sans-serif">A(A-2)</text><text x="-0.300" y="7.270" fill="#9aa3b2" font-size="0.9" text-anchor="end" font-family="sans-serif">AA2</text><line x1="-5.080" y1="10.160" x2="0.000" y2="10.160" stroke="#e6e9ef" stroke-width="0.2"/><circle cx="-5.080" cy="10.160" r="0.4" fill="#4ea1ff"/><text x="0.500" y="10.510" fill="#e6e9ef" font-size="1.1" text-anchor="start" font-family="sans-serif">K(A-2)</text><text x="-0.300" y="9.810" fill="#9aa3b2" font-size="0.9" text-anchor="end" font-family="sans-serif">KA2</text><line x1="-5.080" y1="12.700" x2="0.000" y2="12.700" stroke="#e6e9ef" stroke-width="0.2"/><circle cx="-5.080" cy="12.700" r="0.4" fill="#4ea1ff"/><text x="0.500" y="13.050" fill="#e6e9ef" font-size="1.1" text-anchor="start" font-family="sans-serif">A(A-3)</text><text x="-0.300" y="12.350" fill="#9aa3b2" font-size="0.9" text-anchor="end" font-family="sans-serif">AA3</text><line x1="-5.080" y1="15.240" x2="0.000" y2="15.240" stroke="#e6e9ef" stroke-width="0.2"/><circle cx="-5.080" cy="15.240" r="0.4" fill="#4ea1ff"/><text x="0.500" y="15.590" fill="#e6e9ef" font-size="1.1" text-anchor="start" font-family="sans-serif">K(A-3)</text><text x="-0.300" y="14.890" fill="#9aa3b2" font-size="0.9" text-anchor="end" font-family="sans-serif">KA3</text><line x1="-5.080" y1="17.780" x2="0.000" y2="17.780" stroke="#e6e9ef" stroke-width="0.2"/><circle cx="-5.080" cy="17.780" r="0.4" fill="#4ea1ff"/><text x="0.500" y="18.130" fill="#e6e9ef" font-size="1.1" text-anchor="start" font-family="sans-serif">A(A-4)</text><text x="-0.300" y="17.430" fill="#9aa3b2" font-size="0.9" text-anchor="end" font-family="sans-serif">AA4</text><line x1="-5.080" y1="20.320" x2="0.000" y2="20.320" stroke="#e6e9ef" stroke-width="0.2"/><circle cx="-5.080" cy="20.320" r="0.4" fill="#4ea1ff"/><text x="0.500" y="20.670" fill="#e6e9ef" font-size="1.1" text-anchor="start" font-family="sans-serif">K(A-4)</text><text x="-0.300" y="19.970" fill="#9aa3b2" font-size="0.9" text-anchor="end" font-family="sans-serif">KA4</text><line x1="-5.080" y1="22.860" x2="0.000" y2="22.860" stroke="#e6e9ef" stroke-width="0.2"/><circle cx="-5.080" cy="22.860" r="0.4" fill="#4ea1ff"/><text x="0.500" y="23.210" fill="#e6e9ef" font-size="1.1" text-anchor="start" font-family="sans-serif">A(B-1)</text><text x="-0.300" y="22.510" fill="#9aa3b2" font-size="0.9" text-anchor="end" font-family="sans-serif">AB1</text><line x1="-5.080" y1="25.400" x2="0.000" y2="25.400" stroke="#e6e9ef" stroke-width="0.2"/><circle cx="-5.080" cy="25.400" r="0.4" fill="#4ea1ff"/><text x="0.500" y="25.750" fill="#e6e9ef" font-size="1.1" text-anchor="start" font-family="sans-serif">K(B-1)</text><text x="-0.300" y="25.050" fill="#9aa3b2" font-size="0.9" text-anchor="end" font-family="sans-serif">KB1</text><line x1="-5.080" y1="27.940" x2="0.000" y2="27.940" stroke="#e6e9ef" stroke-width="0.2"/><circle cx="-5.080" cy="27.940" r="0.4" fill="#4ea1ff"/><text x="0.500" y="28.290" fill="#e6e9ef" font-size="1.1" text-anchor="start" font-family="sans-serif">A(B-2)</text><text x="-0.300" y="27.590" fill="#9aa3b2" font-size="0.9" text-anchor="end" font-family="sans-serif">AB2</text><line x1="-5.080" y1="30.480" x2="0.000" y2="30.480" stroke="#e6e9ef" stroke-width="0.2"/><circle cx="-5.080" cy="30.480" r="0.4" fill="#4ea1ff"/><text x="0.500" y="30.830" fill="#e6e9ef" font-size="1.1" text-anchor="start" font-family="sans-serif">K(B-2)</text><text x="-0.300" y="30.130" fill="#9aa3b2" font-size="0.9" text-anchor="end" font-family="sans-serif">KB2</text><line x1="-5.080" y1="33.020" x2="0.000" y2="33.020" stroke="#e6e9ef" stroke-width="0.2"/><circle cx="-5.080" cy="33.020" r="0.4" fill="#4ea1ff"/><text x="0.500" y="33.370" fill="#e6e9ef" font-size="1.1" text-anchor="start" font-family="sans-serif">A(B-3)</text><text x="-0.300" y="32.670" fill="#9aa3b2" font-size="0.9" text-anchor="end" font-family="sans-serif">AB3</text><line x1="-5.080" y1="35.560" x2="0.000" y2="35.560" stroke="#e6e9ef" stroke-width="0.2"/><circle cx="-5.080" cy="35.560" r="0.4" fill="#4ea1ff"/><text x="0.500" y="35.910" fill="#e6e9ef" font-size="1.1" text-anchor="start" font-family="sans-serif">K(B-3)</text><text x="-0.300" y="35.210" fill="#9aa3b2" font-size="0.9" text-anchor="end" font-family="sans-serif">KB3</text><line x1="-5.080" y1="38.100" x2="0.000" y2="38.100" stroke="#e6e9ef" stroke-width="0.2"/><circle cx="-5.080" cy="38.100" r="0.4" fill="#4ea1ff"/><text x="0.500" y="38.450" fill="#e6e9ef" font-size="1.1" text-anchor="start" font-family="sans-serif">A(B-4)</text><text x="-0.300" y="37.750" fill="#9aa3b2" font-size="0.9" text-anchor="end" font-family="sans-serif">AB4</text><line x1="-5.080" y1="40.640" x2="0.000" y2="40.640" stroke="#e6e9ef" stroke-width="0.2"/><circle cx="-5.080" cy="40.640" r="0.4" fill="#4ea1ff"/><text x="0.500" y="40.990" fill="#e6e9ef" font-size="1.1" text-anchor="start" font-family="sans-serif">K(B-4)</text><text x="-0.300" y="40.290" fill="#9aa3b2" font-size="0.9" text-anchor="end" font-family="sans-serif">KB4</text><line x1="-5.080" y1="43.180" x2="0.000" y2="43.180" stroke="#e6e9ef" stroke-width="0.2"/><circle cx="-5.080" cy="43.180" r="0.4" fill="#4ea1ff"/><text x="0.500" y="43.530" fill="#e6e9ef" font-size="1.1" text-anchor="start" font-family="sans-serif">A(C-1)</text><text x="-0.300" y="42.830" fill="#9aa3b2" font-size="0.9" text-anchor="end" font-family="sans-serif">AC1</text><line x1="-5.080" y1="45.720" x2="0.000" y2="45.720" stroke="#e6e9ef" stroke-width="0.2"/><circle cx="-5.080" cy="45.720" r="0.4" fill="#4ea1ff"/><text x="0.500" y="46.070" fill="#e6e9ef" font-size="1.1" text-anchor="start" font-family="sans-serif">K(C-1)</text><text x="-0.300" y="45.370" fill="#9aa3b2" font-size="0.9" text-anchor="end" font-family="sans-serif">KC1</text><line x1="-5.080" y1="48.260" x2="0.000" y2="48.260" stroke="#e6e9ef" stroke-width="0.2"/><circle cx="-5.080" cy="48.260" r="0.4" fill="#4ea1ff"/><text x="0.500" y="48.610" fill="#e6e9ef" font-size="1.1" text-anchor="start" font-family="sans-serif">A(C-2)</text><text x="-0.300" y="47.910" fill="#9aa3b2" font-size="0.9" text-anchor="end" font-family="sans-serif">AC2</text><line x1="-5.080" y1="50.800" x2="0.000" y2="50.800" stroke="#e6e9ef" stroke-width="0.2"/><circle cx="-5.080" cy="50.800" r="0.4" fill="#4ea1ff"/><text x="0.500" y="51.150" fill="#e6e9ef" font-size="1.1" text-anchor="start" font-family="sans-serif">K(C-2)</text><text x="-0.300" y="50.450" fill="#9aa3b2" font-size="0.9" text-anchor="end" font-family="sans-serif">KC2</text><line x1="-5.080" y1="53.340" x2="0.000" y2="53.340" stroke="#e6e9ef" stroke-width="0.2"/><circle cx="-5.080" cy="53.340" r="0.4" fill="#4ea1ff"/><text x="0.500" y="53.690" fill="#e6e9ef" font-size="1.1" text-anchor="start" font-family="sans-serif">A(C-3)</text><text x="-0.300" y="52.990" fill="#9aa3b2" font-size="0.9" text-anchor="end" font-family="sans-serif">AC3</text><line x1="-5.080" y1="55.880" x2="0.000" y2="55.880" stroke="#e6e9ef" stroke-width="0.2"/><circle cx="-5.080" cy="55.880" r="0.4" fill="#4ea1ff"/><text x="0.500" y="56.230" fill="#e6e9ef" font-size="1.1" text-anchor="start" font-family="sans-serif">K(C-3)</text><text x="-0.300" y="55.530" fill="#9aa3b2" font-size="0.9" text-anchor="end" font-family="sans-serif">KC3</text><line x1="-5.080" y1="58.420" x2="0.000" y2="58.420" stroke="#e6e9ef" stroke-width="0.2"/><circle cx="-5.080" cy="58.420" r="0.4" fill="#4ea1ff"/><text x="0.500" y="58.770" fill="#e6e9ef" font-size="1.1" text-anchor="start" font-family="sans-serif">A(C-4)</text><text x="-0.300" y="58.070" fill="#9aa3b2" font-size="0.9" text-anchor="end" font-family="sans-serif">AC4</text><line x1="-5.080" y1="60.960" x2="0.000" y2="60.960" stroke="#e6e9ef" stroke-width="0.2"/><circle cx="-5.080" cy="60.960" r="0.4" fill="#4ea1ff"/><text x="0.500" y="61.310" fill="#e6e9ef" font-size="1.1" text-anchor="start" font-family="sans-serif">K(C-4)</text><text x="-0.300" y="60.610" fill="#9aa3b2" font-size="0.9" text-anchor="end" font-family="sans-serif">KC4</text><line x1="-5.080" y1="63.500" x2="0.000" y2="63.500" stroke="#e6e9ef" stroke-width="0.2"/><circle cx="-5.080" cy="63.500" r="0.4" fill="#4ea1ff"/><text x="0.500" y="63.850" fill="#e6e9ef" font-size="1.1" text-anchor="start" font-family="sans-serif">A(D-1)</text><text x="-0.300" y="63.150" fill="#9aa3b2" font-size="0.9" text-anchor="end" font-family="sans-serif">AD1</text><line x1="-5.080" y1="66.040" x2="0.000" y2="66.040" stroke="#e6e9ef" stroke-width="0.2"/><circle cx="-5.080" cy="66.040" r="0.4" fill="#4ea1ff"/><text x="0.500" y="66.390" fill="#e6e9ef" font-size="1.1" text-anchor="start" font-family="sans-serif">K(D-1)</text><text x="-0.300" y="65.690" fill="#9aa3b2" font-size="0.9" text-anchor="end" font-family="sans-serif">KD1</text><line x1="-5.080" y1="68.580" x2="0.000" y2="68.580" stroke="#e6e9ef" stroke-width="0.2"/><circle cx="-5.080" cy="68.580" r="0.4" fill="#4ea1ff"/><text x="0.500" y="68.930" fill="#e6e9ef" font-size="1.1" text-anchor="start" font-family="sans-serif">A(D-2)</text><text x="-0.300" y="68.230" fill="#9aa3b2" font-size="0.9" text-anchor="end" font-family="sans-serif">AD2</text><line x1="-5.080" y1="71.120" x2="0.000" y2="71.120" stroke="#e6e9ef" stroke-width="0.2"/><circle cx="-5.080" cy="71.120" r="0.4" fill="#4ea1ff"/><text x="0.500" y="71.470" fill="#e6e9ef" font-size="1.1" text-anchor="start" font-family="sans-serif">K(D-2)</text><text x="-0.300" y="70.770" fill="#9aa3b2" font-size="0.9" text-anchor="end" font-family="sans-serif">KD2</text><line x1="-5.080" y1="73.660" x2="0.000" y2="73.660" stroke="#e6e9ef" stroke-width="0.2"/><circle cx="-5.080" cy="73.660" r="0.4" fill="#4ea1ff"/><text x="0.500" y="74.010" fill="#e6e9ef" font-size="1.1" text-anchor="start" font-family="sans-serif">A(D-3)</text><text x="-0.300" y="73.310" fill="#9aa3b2" font-size="0.9" text-anchor="end" font-family="sans-serif">AD3</text><line x1="-5.080" y1="76.200" x2="0.000" y2="76.200" stroke="#e6e9ef" stroke-width="0.2"/><circle cx="-5.080" cy="76.200" r="0.4" fill="#4ea1ff"/><text x="0.500" y="76.550" fill="#e6e9ef" font-size="1.1" text-anchor="start" font-family="sans-serif">K(D-3)</text><text x="-0.300" y="75.850" fill="#9aa3b2" font-size="0.9" text-anchor="end" font-family="sans-serif">KD3</text><line x1="-5.080" y1="78.740" x2="0.000" y2="78.740" stroke="#e6e9ef" stroke-width="0.2"/><circle cx="-5.080" cy="78.740" r="0.4" fill="#4ea1ff"/><text x="0.500" y="79.090" fill="#e6e9ef" font-size="1.1" text-anchor="start" font-family="sans-serif">A(D-4)</text><text x="-0.300" y="78.390" fill="#9aa3b2" font-size="0.9" text-anchor="end" font-family="sans-serif">AD4</text><line x1="-5.080" y1="81.280" x2="0.000" y2="81.280" stroke="#e6e9ef" stroke-width="0.2"/><circle cx="-5.080" cy="81.280" r="0.4" fill="#4ea1ff"/><text x="0.500" y="81.630" fill="#e6e9ef" font-size="1.1" text-anchor="start" font-family="sans-serif">K(D-4)</text><text x="-0.300" y="80.930" fill="#9aa3b2" font-size="0.9" text-anchor="end" font-family="sans-serif">KD4</text></svg>