<svg xmlns="http://www.w3.org/2000/svg" viewBox="-2.81 -2.85 5.62 5.70" preserveAspectRatio="xMidYMid meet" style="width:100%;height:100%"><rect x="-2.81" y="-2.85" width="5.62" height="5.70" fill="#12151c"/><line x1="-0.140" y1="-1.600" x2="0.140" y2="-1.600" stroke="#e6e9ef" stroke-width="0.200" stroke-linecap="round" opacity="1"/><line x1="-0.140" y1="1.600" x2="0.140" y2="1.600" stroke="#e6e9ef" stroke-width="0.200" stroke-linecap="round" opacity="1"/><line x1="-1.560" y1="-1.295" x2="-1.025" y2="-0.990" stroke="#4a5160" stroke-width="0.100" stroke-linecap="round" opacity="0.7"/><line x1="-1.560" y1="-1.295" x2="-0.490" y2="-1.295" stroke="#4a5160" stroke-width="0.100" stroke-linecap="round" opacity="0.7"/><line x1="-1.560" y1="-0.685" x2="-1.560" y2="-1.295" stroke="#4a5160" stroke-width="0.100" stroke-linecap="round" opacity="0.7"/><line x1="-1.560" y1="-0.685" x2="-1.025" y2="-0.990" stroke="#4a5160" stroke-width="0.100" stroke-linecap="round" opacity="0.7"/><line x1="-1.560" y1="-0.685" x2="-0.490" y2="-0.685" stroke="#4a5160" stroke-width="0.100" stroke-linecap="round" opacity="0.7"/><line x1="-1.560" y1="-0.305" x2="-1.025" y2="0.000" stroke="#4a5160" stroke-width="0.100" stroke-linecap="round" opacity="0.7"/><line x1="-1.560" y1="-0.305" x2="-0.490" y2="-0.305" stroke="#4a5160" stroke-width="0.100" stroke-linecap="round" opacity="0.7"/><line x1="-1.560" y1="0.305" x2="-1.560" y2="-0.305" stroke="#4a5160" stroke-width="0.100" stroke-linecap="round" opacity="0.7"/><line x1="-1.560" y1="0.305" x2="-1.025" y2="0.000" stroke="#4a5160" stroke-width="0.100" stroke-linecap="round" opacity="0.7"/><line x1="-1.560" y1="0.305" x2="-0.490" y2="0.305" stroke="#4a5160" stroke-width="0.100" stroke-linecap="round" opacity="0.7"/><line x1="-1.560" y1="0.685" x2="-1.025" y2="0.990" stroke="#4a5160" stroke-width="0.100" stroke-linecap="round" opacity="0.7"/><line x1="-1.560" y1="0.685" x2="-0.490" y2="0.685" stroke="#4a5160" stroke-width="0.100" stroke-linecap="round" opacity="0.7"/><line x1="-1.560" y1="1.295" x2="-1.560" y2="0.685" stroke="#4a5160" stroke-width="0.100" stroke-linecap="round" opacity="0.7"/><line x1="-1.560" y1="1.295" x2="-1.025" y2="0.990" stroke="#4a5160" stroke-width="0.100" stroke-linecap="round" opacity="0.7"/><line x1="-1.560" y1="1.295" x2="-0.490" y2="1.295" stroke="#4a5160" stroke-width="0.100" stroke-linecap="round" opacity="0.7"/><line x1="-0.500" y1="0.000" x2="0.000" y2="0.000" stroke="#4a5160" stroke-width="0.100" stroke-linecap="round" opacity="0.7"/><line x1="-0.490" y1="-0.685" x2="-0.490" y2="-1.295" stroke="#4a5160" stroke-width="0.100" stroke-linecap="round" opacity="0.7"/><line x1="-0.490" y1="0.305" x2="-0.490" y2="-0.305" stroke="#4a5160" stroke-width="0.100" stroke-linecap="round" opacity="0.7"/><line x1="-0.490" y1="1.295" x2="-0.490" y2="0.685" stroke="#4a5160" stroke-width="0.100" stroke-linecap="round" opacity="0.7"/><line x1="0.000" y1="0.000" x2="0.000" y2="-0.500" stroke="#4a5160" stroke-width="0.100" stroke-linecap="round" opacity="0.7"/><line x1="0.000" y1="0.000" x2="0.500" y2="0.000" stroke="#4a5160" stroke-width="0.100" stroke-linecap="round" opacity="0.7"/><line x1="0.000" y1="0.500" x2="0.000" y2="0.000" stroke="#4a5160" stroke-width="0.100" stroke-linecap="round" opacity="0.7"/><line x1="0.490" y1="-1.295" x2="1.560" y2="-1.295" stroke="#4a5160" stroke-width="0.100" stroke-linecap="round" opacity="0.7"/><line x1="0.490" y1="-0.685" x2="0.490" y2="-1.295" stroke="#4a5160" stroke-width="0.100" stroke-linecap="round" opacity="0.7"/><line x1="0.490" y1="-0.685" x2="1.560" y2="-0.685" stroke="#4a5160" stroke-width="0.100" stroke-linecap="round" opacity="0.7"/><line x1="0.490" y1="-0.305" x2="1.560" y2="-0.305" stroke="#4a5160" stroke-width="0.100" stroke-linecap="round" opacity="0.7"/><line x1="0.490" y1="0.305" x2="0.490" y2="-0.305" stroke="#4a5160" stroke-width="0.100" stroke-linecap="round" opacity="0.7"/><line x1="0.490" y1="0.305" x2="1.560" y2="0.305" stroke="#4a5160" stroke-width="0.100" stroke-linecap="round" opacity="0.7"/><line x1="0.490" y1="0.685" x2="1.560" y2="0.685" stroke="#4a5160" stroke-width="0.100" stroke-linecap="round" opacity="0.7"/><line x1="0.490" y1="1.295" x2="0.490" y2="0.685" stroke="#4a5160" stroke-width="0.100" stroke-linecap="round" opacity="0.7"/><line x1="0.490" y1="1.295" x2="1.560" y2="1.295" stroke="#4a5160" stroke-width="0.100" stroke-linecap="round" opacity="0.7"/><line x1="1.025" y1="-0.990" x2="1.560" y2="-1.295" stroke="#4a5160" stroke-width="0.100" stroke-linecap="round" opacity="0.7"/><line x1="1.025" y1="-0.990" x2="1.560" y2="-0.685" stroke="#4a5160" stroke-width="0.100" stroke-linecap="round" opacity="0.7"/><line x1="1.025" y1="0.000" x2="1.560" y2="-0.305" stroke="#4a5160" stroke-width="0.100" stroke-linecap="round" opacity="0.7"/><line x1="1.025" y1="0.000" x2="1.560" y2="0.305" stroke="#4a5160" stroke-width="0.100" stroke-linecap="round" opacity="0.7"/><line x1="1.025" y1="0.990" x2="1.560" y2="0.685" stroke="#4a5160" stroke-width="0.100" stroke-linecap="round" opacity="0.7"/><line x1="1.025" y1="0.990" x2="1.560" y2="1.295" stroke="#4a5160" stroke-width="0.100" stroke-linecap="round" opacity="0.7"/><line x1="1.560" y1="-0.685" x2="1.560" y2="-1.295" stroke="#4a5160" stroke-width="0.100" stroke-linecap="round" opacity="0.7"/><line x1="1.560" y1="0.305" x2="1.560" y2="-0.305" stroke="#4a5160" stroke-width="0.100" stroke-linecap="round" opacity="0.7"/><line x1="1.560" y1="1.295" x2="1.560" y2="0.685" stroke="#4a5160" stroke-width="0.100" stroke-linecap="round" opacity="0.7"/><line x1="-1.810" y1="-1.850" x2="1.810" y2="-1.850" stroke="#d24d4d" stroke-width="0.080" stroke-linecap="round" opacity="0.7"/><line x1="-1.810" y1="1.850" x2="-1.810" y2="-1.850" stroke="#d24d4d" stroke-width="0.080" stroke-linecap="round" opacity="0.7"/><line x1="-1.810" y1="1.850" x2="1.810" y2="1.850" stroke="#d24d4d" stroke-width="0.080" stroke-linecap="round" opacity="0.7"/><line x1="1.810" y1="1.850" x2="1.810" y2="-1.850" stroke="#d24d4d" stroke-width="0.080" stroke-linecap="round" opacity="0.7"/><line x1="-0.800" y1="-1.600" x2="0.800" y2="-1.600" stroke="#6b7280" stroke-width="0.100" stroke-linecap="round" opacity="0.8"/><line x1="-0.800" y1="-1.270" x2="-0.620" y2="-1.270" stroke="#6b7280" stroke-width="0.100" stroke-linecap="round" opacity="0.8"/><line x1="-0.800" y1="-0.710" x2="-0.620" y2="-0.710" stroke="#6b7280" stroke-width="0.100" stroke-linecap="round" opacity="0.8"/><line x1="-0.800" y1="-0.280" x2="-0.620" y2="-0.280" stroke="#6b7280" stroke-width="0.100" stroke-linecap="round" opacity="0.8"/><line x1="-0.800" y1="0.280" x2="-0.620" y2="0.280" stroke="#6b7280" stroke-width="0.100" stroke-linecap="round" opacity="0.8"/><line x1="-0.800" y1="0.710" x2="-0.620" y2="0.710" stroke="#6b7280" stroke-width="0.100" stroke-linecap="round" opacity="0.8"/><line x1="-0.800" y1="1.270" x2="-0.620" y2="1.270" stroke="#6b7280" stroke-width="0.100" stroke-linecap="round" opacity="0.8"/><line x1="-0.800" y1="1.600" x2="-0.800" y2="-1.600" stroke="#6b7280" stroke-width="0.100" stroke-linecap="round" opacity="0.8"/><line x1="-0.800" y1="1.600" x2="0.800" y2="1.600" stroke="#6b7280" stroke-width="0.100" stroke-linecap="round" opacity="0.8"/><line x1="-0.520" y1="-0.810" x2="-0.520" y2="-1.170" stroke="#6b7280" stroke-width="0.100" stroke-linecap="round" opacity="0.8"/><line x1="-0.520" y1="0.180" x2="-0.520" y2="-0.180" stroke="#6b7280" stroke-width="0.100" stroke-linecap="round" opacity="0.8"/><line x1="-0.520" y1="1.170" x2="-0.520" y2="0.810" stroke="#6b7280" stroke-width="0.100" stroke-linecap="round" opacity="0.8"/><line x1="-0.250" y1="0.600" x2="0.250" y2="0.600" stroke="#6b7280" stroke-width="0.100" stroke-linecap="round" opacity="0.8"/><line x1="-0.250" y1="1.300" x2="-0.250" y2="0.600" stroke="#6b7280" stroke-width="0.100" stroke-linecap="round" opacity="0.8"/><line x1="-0.250" y1="1.300" x2="0.250" y2="1.300" stroke="#6b7280" stroke-width="0.100" stroke-linecap="round" opacity="0.8"/><line x1="0.250" y1="1.300" x2="0.250" y2="0.600" stroke="#6b7280" stroke-width="0.100" stroke-linecap="round" opacity="0.8"/><line x1="0.520" y1="-0.810" x2="0.520" y2="-1.170" stroke="#6b7280" stroke-width="0.100" stroke-linecap="round" opacity="0.8"/><line x1="0.520" y1="0.180" x2="0.520" y2="-0.180" stroke="#6b7280" stroke-width="0.100" stroke-linecap="round" opacity="0.8"/><line x1="0.520" y1="1.170" x2="0.520" y2="0.810" stroke="#6b7280" stroke-width="0.100" stroke-linecap="round" opacity="0.8"/><line x1="0.620" y1="-1.270" x2="0.800" y2="-1.270" stroke="#6b7280" stroke-width="0.100" stroke-linecap="round" opacity="0.8"/><line x1="0.620" y1="-0.710" x2="0.800" y2="-0.710" stroke="#6b7280" stroke-width="0.100" stroke-linecap="round" opacity="0.8"/><line x1="0.620" y1="-0.280" x2="0.800" y2="-0.280" stroke="#6b7280" stroke-width="0.100" stroke-linecap="round" opacity="0.8"/><line x1="0.620" y1="0.280" x2="0.800" y2="0.280" stroke="#6b7280" stroke-width="0.100" stroke-linecap="round" opacity="0.8"/><line x1="0.620" y1="0.710" x2="0.800" y2="0.710" stroke="#6b7280" stroke-width="0.100" stroke-linecap="round" opacity="0.8"/><line x1="0.620" y1="1.270" x2="0.800" y2="1.270" stroke="#6b7280" stroke-width="0.100" stroke-linecap="round" opacity="0.8"/><line x1="0.800" y1="1.600" x2="0.800" y2="-1.600" stroke="#6b7280" stroke-width="0.100" stroke-linecap="round" opacity="0.8"/><path d="M -0.620 -1.270 A 0.100 0.100 0 0 1 -0.520 -1.170" fill="none" stroke="#6b7280" stroke-width="0.12" opacity="0.8"/><path d="M -0.620 -0.280 A 0.100 0.100 0 0 1 -0.520 -0.180" fill="none" stroke="#6b7280" stroke-width="0.12" opacity="0.8"/><path d="M -0.620 0.710 A 0.100 0.100 0 0 1 -0.520 0.810" fill="none" stroke="#6b7280" stroke-width="0.12" opacity="0.8"/><path d="M -0.520 -0.810 A 0.100 0.100 0 0 1 -0.620 -0.710" fill="none" stroke="#6b7280" stroke-width="0.12" opacity="0.8"/><path d="M -0.520 0.180 A 0.100 0.100 0 0 1 -0.620 0.280" fill="none" stroke="#6b7280" stroke-width="0.12" opacity="0.8"/><path d="M -0.520 1.170 A 0.100 0.100 0 0 1 -0.620 1.270" fill="none" stroke="#6b7280" stroke-width="0.12" opacity="0.8"/><path d="M 0.520 -1.170 A 0.100 0.100 0 0 1 0.620 -1.270" fill="none" stroke="#6b7280" stroke-width="0.12" opacity="0.8"/><path d="M 0.520 -0.180 A 0.100 0.100 0 0 1 0.620 -0.280" fill="none" stroke="#6b7280" stroke-width="0.12" opacity="0.8"/><path d="M 0.520 0.810 A 0.100 0.100 0 0 1 0.620 0.710" fill="none" stroke="#6b7280" stroke-width="0.12" opacity="0.8"/><path d="M 0.620 -0.710 A 0.100 0.100 0 0 1 0.520 -0.810" fill="none" stroke="#6b7280" stroke-width="0.12" opacity="0.8"/><path d="M 0.620 0.280 A 0.100 0.100 0 0 1 0.520 0.180" fill="none" stroke="#6b7280" stroke-width="0.12" opacity="0.8"/><path d="M 0.620 1.270 A 0.100 0.100 0 0 1 0.520 1.170" fill="none" stroke="#6b7280" stroke-width="0.12" opacity="0.8"/><rect x="-1.560" y="-1.295" width="1.070" height="0.610" rx="0.000" fill="#c79b5c"/><rect x="-1.560" y="-0.305" width="1.070" height="0.610" rx="0.000" fill="#c79b5c"/><rect x="-1.560" y="0.685" width="1.070" height="0.610" rx="0.000" fill="#c79b5c"/><rect x="0.490" y="0.685" width="1.070" height="0.610" rx="0.000" fill="#c79b5c"/><rect x="0.490" y="-0.305" width="1.070" height="0.610" rx="0.000" fill="#c79b5c"/><rect x="0.490" y="-1.295" width="1.070" height="0.610" rx="0.000" fill="#c79b5c"/></svg>