<svg xmlns="http://www.w3.org/2000/svg" viewBox="-3.79 -4.17 7.58 8.30" preserveAspectRatio="xMidYMid meet" style="width:100%;height:100%"><rect x="-3.79" y="-4.17" width="7.58" height="8.30" fill="#12151c"/><line x1="-2.540" y1="-2.920" x2="2.540" y2="-2.920" stroke="#e6e9ef" stroke-width="0.200" stroke-linecap="round" opacity="1"/><line x1="-2.540" y1="-1.302" x2="-2.540" y2="-2.920" stroke="#e6e9ef" stroke-width="0.200" stroke-linecap="round" opacity="1"/><line x1="-2.540" y1="2.880" x2="-2.540" y2="1.298" stroke="#e6e9ef" stroke-width="0.200" stroke-linecap="round" opacity="1"/><line x1="-2.540" y1="2.880" x2="2.540" y2="2.880" stroke="#e6e9ef" stroke-width="0.200" stroke-linecap="round" opacity="1"/><line x1="-1.270" y1="1.350" x2="1.270" y2="1.350" stroke="#e6e9ef" stroke-width="0.200" stroke-linecap="round" opacity="1"/><line x1="-1.270" y1="1.880" x2="1.270" y2="1.880" stroke="#e6e9ef" stroke-width="0.200" stroke-linecap="round" opacity="1"/><line x1="-1.270" y1="2.880" x2="-1.270" y2="1.350" stroke="#e6e9ef" stroke-width="0.200" stroke-linecap="round" opacity="1"/><line x1="-0.997" y1="2.880" x2="-0.997" y2="1.880" stroke="#e6e9ef" stroke-width="0.200" stroke-linecap="round" opacity="1"/><line x1="0.997" y1="2.880" x2="0.997" y2="1.880" stroke="#e6e9ef" stroke-width="0.200" stroke-linecap="round" opacity="1"/><line x1="1.270" y1="2.880" x2="1.270" y2="1.350" stroke="#e6e9ef" stroke-width="0.200" stroke-linecap="round" opacity="1"/><line x1="2.540" y1="-0.275" x2="2.540" y2="-2.920" stroke="#e6e9ef" stroke-width="0.200" stroke-linecap="round" opacity="1"/><line x1="2.540" y1="2.880" x2="2.540" y2="0.280" stroke="#e6e9ef" stroke-width="0.200" stroke-linecap="round" opacity="1"/><line x1="-1.770" y1="-0.003" x2="-1.270" y2="-0.003" stroke="#4a5160" stroke-width="0.080" stroke-linecap="round" opacity="0.7"/><line x1="-1.270" y1="-0.003" x2="-1.270" y2="-0.502" stroke="#4a5160" stroke-width="0.080" stroke-linecap="round" opacity="0.7"/><line x1="-1.270" y1="-0.003" x2="-0.770" y2="-0.003" stroke="#4a5160" stroke-width="0.080" stroke-linecap="round" opacity="0.7"/><line x1="-1.270" y1="0.497" x2="-1.270" y2="-0.003" stroke="#4a5160" stroke-width="0.080" stroke-linecap="round" opacity="0.7"/><line x1="-0.500" y1="0.000" x2="0.000" y2="0.000" stroke="#4a5160" stroke-width="0.080" stroke-linecap="round" opacity="0.7"/><line x1="0.000" y1="0.000" x2="0.000" y2="-0.500" stroke="#4a5160" stroke-width="0.080" stroke-linecap="round" opacity="0.7"/><line x1="0.000" y1="0.000" x2="0.500" y2="0.000" stroke="#4a5160" stroke-width="0.080" stroke-linecap="round" opacity="0.7"/><line x1="0.000" y1="0.500" x2="0.000" y2="0.000" stroke="#4a5160" stroke-width="0.080" stroke-linecap="round" opacity="0.7"/><line x1="0.770" y1="0.003" x2="1.270" y2="0.003" stroke="#4a5160" stroke-width="0.080" stroke-linecap="round" opacity="0.7"/><line x1="1.270" y1="0.003" x2="1.270" y2="-0.497" stroke="#4a5160" stroke-width="0.080" stroke-linecap="round" opacity="0.7"/><line x1="1.270" y1="0.003" x2="1.770" y2="0.003" stroke="#4a5160" stroke-width="0.080" stroke-linecap="round" opacity="0.7"/><line x1="1.270" y1="0.502" x2="1.270" y2="0.003" stroke="#4a5160" stroke-width="0.080" stroke-linecap="round" opacity="0.7"/><line x1="-2.540" y1="-2.920" x2="2.540" y2="-2.920" stroke="#6b7280" stroke-width="0.100" stroke-linecap="round" opacity="0.8"/><line x1="-2.540" y1="2.880" x2="-2.540" y2="-2.920" stroke="#6b7280" stroke-width="0.100" stroke-linecap="round" opacity="0.8"/><line x1="-2.540" y1="2.880" x2="2.540" y2="2.880" stroke="#6b7280" stroke-width="0.100" stroke-linecap="round" opacity="0.8"/><line x1="-1.590" y1="-0.320" x2="-0.950" y2="-0.320" stroke="#6b7280" stroke-width="0.100" stroke-linecap="round" opacity="0.8"/><line x1="-1.590" y1="0.315" x2="-1.590" y2="-0.320" stroke="#6b7280" stroke-width="0.100" stroke-linecap="round" opacity="0.8"/><line x1="-1.590" y1="0.315" x2="-0.950" y2="0.315" stroke="#6b7280" stroke-width="0.100" stroke-linecap="round" opacity="0.8"/><line x1="-1.270" y1="1.350" x2="1.270" y2="1.350" stroke="#6b7280" stroke-width="0.100" stroke-linecap="round" opacity="0.8"/><line x1="-1.270" y1="1.880" x2="1.270" y2="1.880" stroke="#6b7280" stroke-width="0.100" stroke-linecap="round" opacity="0.8"/><line x1="-1.270" y1="2.880" x2="-1.270" y2="1.350" stroke="#6b7280" stroke-width="0.100" stroke-linecap="round" opacity="0.8"/><line x1="-0.997" y1="2.880" x2="-0.997" y2="1.880" stroke="#6b7280" stroke-width="0.100" stroke-linecap="round" opacity="0.8"/><line x1="-0.950" y1="0.315" x2="-0.950" y2="-0.320" stroke="#6b7280" stroke-width="0.100" stroke-linecap="round" opacity="0.8"/><line x1="0.950" y1="-0.320" x2="1.590" y2="-0.320" stroke="#6b7280" stroke-width="0.100" stroke-linecap="round" opacity="0.8"/><line x1="0.950" y1="0.320" x2="0.950" y2="-0.320" stroke="#6b7280" stroke-width="0.100" stroke-linecap="round" opacity="0.8"/><line x1="0.950" y1="0.320" x2="1.590" y2="0.320" stroke="#6b7280" stroke-width="0.100" stroke-linecap="round" opacity="0.8"/><line x1="0.997" y1="2.880" x2="0.997" y2="1.880" stroke="#6b7280" stroke-width="0.100" stroke-linecap="round" opacity="0.8"/><line x1="1.270" y1="2.880" x2="1.270" y2="1.350" stroke="#6b7280" stroke-width="0.100" stroke-linecap="round" opacity="0.8"/><line x1="1.590" y1="0.320" x2="1.590" y2="-0.320" stroke="#6b7280" stroke-width="0.100" stroke-linecap="round" opacity="0.8"/><line x1="2.540" y1="2.880" x2="2.540" y2="-2.920" stroke="#6b7280" stroke-width="0.100" stroke-linecap="round" opacity="0.8"/><line x1="-2.790" y1="-3.170" x2="2.790" y2="-3.170" stroke="#d24d4d" stroke-width="0.080" stroke-linecap="round" opacity="0.7"/><line x1="2.790" y1="-3.170" x2="2.790" y2="3.130" stroke="#d24d4d" stroke-width="0.080" stroke-linecap="round" opacity="0.7"/><line x1="2.790" y1="3.130" x2="-2.790" y2="3.130" stroke="#d24d4d" stroke-width="0.080" stroke-linecap="round" opacity="0.7"/><line x1="-2.790" y1="3.130" x2="-2.790" y2="-3.170" stroke="#d24d4d" stroke-width="0.080" stroke-linecap="round" opacity="0.7"/><rect x="-2.220" y="-0.952" width="1.900" height="1.900" rx="0.000" fill="#c79b5c"/><circle cx="-1.270" cy="-0.003" r="0.600" fill="#12151c"/><rect x="0.320" y="-0.948" width="1.900" height="1.900" rx="0.950" fill="#c79b5c"/><circle cx="1.270" cy="0.003" r="0.600" fill="#12151c"/><polygon points="-1.72,2.00 -0.82,2.00 -1.27,1.40" fill="#ffffff"/></svg>