<svg xmlns="http://www.w3.org/2000/svg" viewBox="-6.58 -1.50 36.02 53.80" preserveAspectRatio="xMidYMid meet" style="width:100%;height:100%"><rect x="-6.58" y="-1.50" width="36.02" height="53.80" fill="#12151c"/><rect x="0.000" y="-0.000" width="22.860" height="50.800" fill="#1e222b" stroke="#4ea1ff" stroke-width="0.25"/><rect x="22.352" y="46.990" width="0.508" height="2.540" fill="#1e222b" stroke="#4ea1ff" stroke-width="0.25"/><polyline points="1.524,3.810 1.524,3.302" fill="none" stroke="#4ea1ff" stroke-width="0.25" stroke-linejoin="round"/><polyline points="1.524,13.970 1.524,13.462" fill="none" stroke="#4ea1ff" stroke-width="0.25" stroke-linejoin="round"/><polyline points="1.524,27.178 1.524,26.670" fill="none" stroke="#4ea1ff" stroke-width="0.25" stroke-linejoin="round"/><polyline points="1.524,36.830 1.524,37.338" fill="none" stroke="#4ea1ff" stroke-width="0.25" stroke-linejoin="round"/><polyline points="2.032,2.794 2.032,4.318" fill="none" stroke="#4ea1ff" stroke-width="0.25" stroke-linejoin="round"/><polyline points="2.032,12.954 2.032,14.478" fill="none" stroke="#4ea1ff" stroke-width="0.25" stroke-linejoin="round"/><polyline points="2.032,26.162 2.032,27.686" fill="none" stroke="#4ea1ff" stroke-width="0.25" stroke-linejoin="round"/><polyline points="2.032,37.846 2.032,36.322" fill="none" stroke="#4ea1ff" stroke-width="0.25" stroke-linejoin="round"/><polyline points="2.540,2.286 2.540,4.826" fill="none" stroke="#4ea1ff" stroke-width="0.25" stroke-linejoin="round"/><polyline points="2.540,3.556 4.572,3.556" fill="none" stroke="#4ea1ff" stroke-width="0.25" stroke-linejoin="round"/><polyline points="2.540,12.446 2.540,14.986" fill="none" stroke="#4ea1ff" stroke-width="0.25" stroke-linejoin="round"/><polyline points="2.540,13.716 4.572,13.716" fill="none" stroke="#4ea1ff" stroke-width="0.25" stroke-linejoin="round"/><polyline points="2.540,25.654 2.540,28.194" fill="none" stroke="#4ea1ff" stroke-width="0.25" stroke-linejoin="round"/><polyline points="2.540,26.924 4.572,26.924" fill="none" stroke="#4ea1ff" stroke-width="0.25" stroke-linejoin="round"/><polyline points="2.540,37.084 4.572,37.084" fill="none" stroke="#4ea1ff" stroke-width="0.25" stroke-linejoin="round"/><polyline points="2.540,38.354 2.540,35.814" fill="none" stroke="#4ea1ff" stroke-width="0.25" stroke-linejoin="round"/><polyline points="4.572,2.794 4.572,4.318" fill="none" stroke="#4ea1ff" stroke-width="0.25" stroke-linejoin="round"/><polyline points="4.572,12.954 4.572,14.478" fill="none" stroke="#4ea1ff" stroke-width="0.25" stroke-linejoin="round"/><polyline points="4.572,26.162 4.572,27.686" fill="none" stroke="#4ea1ff" stroke-width="0.25" stroke-linejoin="round"/><polyline points="4.572,37.846 4.572,36.322" fill="none" stroke="#4ea1ff" stroke-width="0.25" stroke-linejoin="round"/><polyline points="5.080,2.794 5.080,4.318" fill="none" stroke="#4ea1ff" stroke-width="0.25" stroke-linejoin="round"/><polyline points="5.080,3.556 6.350,3.556" fill="none" stroke="#4ea1ff" stroke-width="0.25" stroke-linejoin="round"/><polyline points="5.080,12.954 5.080,14.478" fill="none" stroke="#4ea1ff" stroke-width="0.25" stroke-linejoin="round"/><polyline points="5.080,13.716 6.350,13.716" fill="none" stroke="#4ea1ff" stroke-width="0.25" stroke-linejoin="round"/><polyline points="5.080,26.162 5.080,27.686" fill="none" stroke="#4ea1ff" stroke-width="0.25" stroke-linejoin="round"/><polyline points="5.080,26.924 6.350,26.924" fill="none" stroke="#4ea1ff" stroke-width="0.25" stroke-linejoin="round"/><polyline points="5.080,37.084 6.350,37.084" fill="none" stroke="#4ea1ff" stroke-width="0.25" stroke-linejoin="round"/><polyline points="5.080,37.846 5.080,36.322" fill="none" stroke="#4ea1ff" stroke-width="0.25" stroke-linejoin="round"/><polyline points="6.350,3.048 6.350,4.064" fill="none" stroke="#4ea1ff" stroke-width="0.25" stroke-linejoin="round"/><polyline points="6.350,4.064 8.890,4.064" fill="none" stroke="#4ea1ff" stroke-width="0.25" stroke-linejoin="round"/><polyline points="6.350,13.208 6.350,14.224" fill="none" stroke="#4ea1ff" stroke-width="0.25" stroke-linejoin="round"/><polyline points="6.350,14.224 8.890,14.224" fill="none" stroke="#4ea1ff" stroke-width="0.25" stroke-linejoin="round"/><polyline points="6.350,20.320 10.160,20.320" fill="none" stroke="#4ea1ff" stroke-width="0.25" stroke-linejoin="round"/><polyline points="6.350,26.416 6.350,27.432" fill="none" stroke="#4ea1ff" stroke-width="0.25" stroke-linejoin="round"/><polyline points="6.350,26.416 8.890,26.416" fill="none" stroke="#4ea1ff" stroke-width="0.25" stroke-linejoin="round"/><polyline points="6.350,36.576 8.890,36.576" fill="none" stroke="#4ea1ff" stroke-width="0.25" stroke-linejoin="round"/><polyline points="6.350,37.592 6.350,36.576" fill="none" stroke="#4ea1ff" stroke-width="0.25" stroke-linejoin="round"/><polyline points="8.890,3.048 6.350,3.048" fill="none" stroke="#4ea1ff" stroke-width="0.25" stroke-linejoin="round"/><polyline points="8.890,3.556 11.938,3.556" fill="none" stroke="#4ea1ff" stroke-width="0.25" stroke-linejoin="round"/><polyline points="8.890,4.064 8.890,3.048" fill="none" stroke="#4ea1ff" stroke-width="0.25" stroke-linejoin="round"/><polyline points="8.890,13.208 6.350,13.208" fill="none" stroke="#4ea1ff" stroke-width="0.25" stroke-linejoin="round"/><polyline points="8.890,13.716 11.938,13.716" fill="none" stroke="#4ea1ff" stroke-width="0.25" stroke-linejoin="round"/><polyline points="8.890,14.224 8.890,13.208" fill="none" stroke="#4ea1ff" stroke-width="0.25" stroke-linejoin="round"/><polyline points="8.890,26.416 8.890,27.432" fill="none" stroke="#4ea1ff" stroke-width="0.25" stroke-linejoin="round"/><polyline points="8.890,26.924 11.938,26.924" fill="none" stroke="#4ea1ff" stroke-width="0.25" stroke-linejoin="round"/><polyline points="8.890,27.432 6.350,27.432" fill="none" stroke="#4ea1ff" stroke-width="0.25" stroke-linejoin="round"/><polyline points="8.890,36.576 8.890,37.592" fill="none" stroke="#4ea1ff" stroke-width="0.25" stroke-linejoin="round"/><polyline points="8.890,37.084 11.938,37.084" fill="none" stroke="#4ea1ff" stroke-width="0.25" stroke-linejoin="round"/><polyline points="8.890,37.592 6.350,37.592" fill="none" stroke="#4ea1ff" stroke-width="0.25" stroke-linejoin="round"/><polyline points="10.160,6.604 11.938,6.604" fill="none" stroke="#4ea1ff" stroke-width="0.25" stroke-linejoin="round"/><polyline points="10.160,16.764 11.938,16.764" fill="none" stroke="#4ea1ff" stroke-width="0.25" stroke-linejoin="round"/><polyline points="10.160,23.876 11.938,23.876" fill="none" stroke="#4ea1ff" stroke-width="0.25" stroke-linejoin="round"/><polyline points="10.160,34.036 10.160,6.604" fill="none" stroke="#4ea1ff" stroke-width="0.25" stroke-linejoin="round"/><polyline points="10.160,34.036 11.938,34.036" fill="none" stroke="#4ea1ff" stroke-width="0.25" stroke-linejoin="round"/><polyline points="11.938,6.096 15.240,5.080" fill="none" stroke="#4ea1ff" stroke-width="0.25" stroke-linejoin="round"/><polyline points="11.938,16.256 15.240,15.240" fill="none" stroke="#4ea1ff" stroke-width="0.25" stroke-linejoin="round"/><polyline points="11.938,24.384 15.240,25.400" fill="none" stroke="#4ea1ff" stroke-width="0.25" stroke-linejoin="round"/><polyline points="11.938,34.544 15.240,35.560" fill="none" stroke="#4ea1ff" stroke-width="0.25" stroke-linejoin="round"/><polyline points="16.510,5.080 15.748,5.080" fill="none" stroke="#4ea1ff" stroke-width="0.25" stroke-linejoin="round"/><polyline points="16.510,15.240 15.748,15.240" fill="none" stroke="#4ea1ff" stroke-width="0.25" stroke-linejoin="round"/><polyline points="16.510,25.400 15.748,25.400" fill="none" stroke="#4ea1ff" stroke-width="0.25" stroke-linejoin="round"/><polyline points="16.510,35.560 15.748,35.560" fill="none" stroke="#4ea1ff" stroke-width="0.25" stroke-linejoin="round"/><circle cx="10.160" cy="16.764" r="0.254" fill="none" stroke="#4ea1ff" stroke-width="0.25"/><circle cx="10.160" cy="20.320" r="0.254" fill="none" stroke="#4ea1ff" stroke-width="0.25"/><circle cx="10.160" cy="23.876" r="0.254" fill="none" stroke="#4ea1ff" stroke-width="0.25"/><circle cx="12.446" cy="3.556" r="0.508" fill="none" stroke="#4ea1ff" stroke-width="0.25"/><circle cx="12.446" cy="6.604" r="0.508" fill="none" stroke="#4ea1ff" stroke-width="0.25"/><circle cx="12.446" cy="13.716" r="0.508" fill="none" stroke="#4ea1ff" stroke-width="0.25"/><circle cx="12.446" cy="16.764" r="0.508" fill="none" stroke="#4ea1ff" stroke-width="0.25"/><circle cx="12.446" cy="23.876" r="0.508" fill="none" stroke="#4ea1ff" stroke-width="0.25"/><circle cx="12.446" cy="26.924" r="0.508" fill="none" stroke="#4ea1ff" stroke-width="0.25"/><circle cx="12.446" cy="34.036" r="0.508" fill="none" stroke="#4ea1ff" stroke-width="0.25"/><circle cx="12.446" cy="37.084" r="0.508" fill="none" stroke="#4ea1ff" stroke-width="0.25"/><circle cx="15.240" cy="5.080" r="0.508" fill="none" stroke="#4ea1ff" stroke-width="0.25"/><circle cx="15.240" cy="15.240" r="0.508" fill="none" stroke="#4ea1ff" stroke-width="0.25"/><circle cx="15.240" cy="25.400" r="0.508" fill="none" stroke="#4ea1ff" stroke-width="0.25"/><circle cx="15.240" cy="35.560" r="0.508" fill="none" stroke="#4ea1ff" stroke-width="0.25"/><line x1="-5.080" y1="20.320" x2="0.000" y2="20.320" stroke="#e6e9ef" stroke-width="0.2"/><circle cx="-5.080" cy="20.320" r="0.4" fill="#4ea1ff"/><text x="0.500" y="20.670" fill="#e6e9ef" font-size="1.1" text-anchor="start" font-family="sans-serif">RFC</text><text x="-0.300" y="19.970" fill="#9aa3b2" font-size="0.9" text-anchor="end" font-family="sans-serif">15</text><line x1="-5.080" y1="40.640" x2="0.000" y2="40.640" stroke="#e6e9ef" stroke-width="0.2"/><circle cx="-5.080" cy="40.640" r="0.4" fill="#4ea1ff"/><text x="0.500" y="40.990" fill="#e6e9ef" font-size="1.1" text-anchor="start" font-family="sans-serif">A</text><text x="-0.300" y="40.290" fill="#9aa3b2" font-size="0.9" text-anchor="end" font-family="sans-serif">8</text><line x1="-5.080" y1="43.180" x2="0.000" y2="43.180" stroke="#e6e9ef" stroke-width="0.2"/><circle cx="-5.080" cy="43.180" r="0.4" fill="#4ea1ff"/><text x="0.500" y="43.530" fill="#e6e9ef" font-size="1.1" text-anchor="start" font-family="sans-serif">B</text><text x="-0.300" y="42.830" fill="#9aa3b2" font-size="0.9" text-anchor="end" font-family="sans-serif">7</text><line x1="-5.080" y1="48.260" x2="0.000" y2="48.260" stroke="#e6e9ef" stroke-width="0.2"/><circle cx="-5.080" cy="48.260" r="0.4" fill="#4ea1ff"/><text x="0.500" y="48.610" fill="#e6e9ef" font-size="1.1" text-anchor="start" font-family="sans-serif">VDD</text><text x="-0.300" y="47.910" fill="#9aa3b2" font-size="0.9" text-anchor="end" font-family="sans-serif">6</text><line x1="27.940" y1="2.540" x2="22.860" y2="2.540" stroke="#e6e9ef" stroke-width="0.2"/><circle cx="27.940" cy="2.540" r="0.4" fill="#4ea1ff"/><text x="22.360" y="2.890" fill="#e6e9ef" font-size="1.1" text-anchor="end" font-family="sans-serif">GND</text><text x="23.160" y="2.190" fill="#9aa3b2" font-size="0.9" text-anchor="start" font-family="sans-serif">13</text><line x1="27.940" y1="5.080" x2="22.860" y2="5.080" stroke="#e6e9ef" stroke-width="0.2"/><circle cx="27.940" cy="5.080" r="0.4" fill="#4ea1ff"/><text x="22.360" y="5.430" fill="#e6e9ef" font-size="1.1" text-anchor="end" font-family="sans-serif">RF1</text><text x="23.160" y="4.730" fill="#9aa3b2" font-size="0.9" text-anchor="start" font-family="sans-serif">12</text><line x1="27.940" y1="7.620" x2="22.860" y2="7.620" stroke="#e6e9ef" stroke-width="0.2"/><circle cx="27.940" cy="7.620" r="0.4" fill="#4ea1ff"/><text x="22.360" y="7.970" fill="#e6e9ef" font-size="1.1" text-anchor="end" font-family="sans-serif">GND</text><text x="23.160" y="7.270" fill="#9aa3b2" font-size="0.9" text-anchor="start" font-family="sans-serif">11</text><line x1="27.940" y1="12.700" x2="22.860" y2="12.700" stroke="#e6e9ef" stroke-width="0.2"/><circle cx="27.940" cy="12.700" r="0.4" fill="#4ea1ff"/><text x="22.360" y="13.050" fill="#e6e9ef" font-size="1.1" text-anchor="end" font-family="sans-serif">GND</text><text x="23.160" y="12.350" fill="#9aa3b2" font-size="0.9" text-anchor="start" font-family="sans-serif">10</text><line x1="27.940" y1="15.240" x2="22.860" y2="15.240" stroke="#e6e9ef" stroke-width="0.2"/><circle cx="27.940" cy="15.240" r="0.4" fill="#4ea1ff"/><text x="22.360" y="15.590" fill="#e6e9ef" font-size="1.1" text-anchor="end" font-family="sans-serif">RF2</text><text x="23.160" y="14.890" fill="#9aa3b2" font-size="0.9" text-anchor="start" font-family="sans-serif">9</text><line x1="27.940" y1="22.860" x2="22.860" y2="22.860" stroke="#e6e9ef" stroke-width="0.2"/><circle cx="27.940" cy="22.860" r="0.4" fill="#4ea1ff"/><text x="22.360" y="23.210" fill="#e6e9ef" font-size="1.1" text-anchor="end" font-family="sans-serif">GND</text><text x="23.160" y="22.510" fill="#9aa3b2" font-size="0.9" text-anchor="start" font-family="sans-serif">5</text><line x1="27.940" y1="25.400" x2="22.860" y2="25.400" stroke="#e6e9ef" stroke-width="0.2"/><circle cx="27.940" cy="25.400" r="0.4" fill="#4ea1ff"/><text x="22.360" y="25.750" fill="#e6e9ef" font-size="1.1" text-anchor="end" font-family="sans-serif">RF3</text><text x="23.160" y="25.050" fill="#9aa3b2" font-size="0.9" text-anchor="start" font-family="sans-serif">4</text><line x1="27.940" y1="27.940" x2="22.860" y2="27.940" stroke="#e6e9ef" stroke-width="0.2"/><circle cx="27.940" cy="27.940" r="0.4" fill="#4ea1ff"/><text x="22.360" y="28.290" fill="#e6e9ef" font-size="1.1" text-anchor="end" font-family="sans-serif">GND</text><text x="23.160" y="27.590" fill="#9aa3b2" font-size="0.9" text-anchor="start" font-family="sans-serif">3</text><line x1="27.940" y1="33.020" x2="22.860" y2="33.020" stroke="#e6e9ef" stroke-width="0.2"/><circle cx="27.940" cy="33.020" r="0.4" fill="#4ea1ff"/><text x="22.360" y="33.370" fill="#e6e9ef" font-size="1.1" text-anchor="end" font-family="sans-serif">GND</text><text x="23.160" y="32.670" fill="#9aa3b2" font-size="0.9" text-anchor="start" font-family="sans-serif">2</text><line x1="27.940" y1="35.560" x2="22.860" y2="35.560" stroke="#e6e9ef" stroke-width="0.2"/><circle cx="27.940" cy="35.560" r="0.4" fill="#4ea1ff"/><text x="22.360" y="35.910" fill="#e6e9ef" font-size="1.1" text-anchor="end" font-family="sans-serif">RF4</text><text x="23.160" y="35.210" fill="#9aa3b2" font-size="0.9" text-anchor="start" font-family="sans-serif">1</text><line x1="27.940" y1="38.100" x2="22.860" y2="38.100" stroke="#e6e9ef" stroke-width="0.2"/><circle cx="27.940" cy="38.100" r="0.4" fill="#4ea1ff"/><text x="22.360" y="38.450" fill="#e6e9ef" font-size="1.1" text-anchor="end" font-family="sans-serif">GND</text><text x="23.160" y="37.750" fill="#9aa3b2" font-size="0.9" text-anchor="start" font-family="sans-serif">16</text><line x1="27.940" y1="45.720" x2="22.860" y2="45.720" stroke="#e6e9ef" stroke-width="0.2"/><circle cx="27.940" cy="45.720" r="0.4" fill="#4ea1ff"/><text x="22.360" y="46.070" fill="#e6e9ef" font-size="1.1" text-anchor="end" font-family="sans-serif">GND</text><text x="23.160" y="45.370" fill="#9aa3b2" font-size="0.9" text-anchor="start" font-family="sans-serif">14</text><line x1="27.940" y1="48.260" x2="22.860" y2="48.260" stroke="#e6e9ef" stroke-width="0.2"/><circle cx="27.940" cy="48.260" r="0.4" fill="#4ea1ff"/><text x="22.360" y="48.610" fill="#e6e9ef" font-size="1.1" text-anchor="end" font-family="sans-serif">GND</text><text x="23.160" y="47.910" fill="#9aa3b2" font-size="0.9" text-anchor="start" font-family="sans-serif">17</text></svg>