<svg xmlns="http://www.w3.org/2000/svg" viewBox="-18.44 -2.30 36.87 4.60" preserveAspectRatio="xMidYMid meet" style="width:100%;height:100%"><rect x="-18.44" y="-2.30" width="36.87" height="4.60" fill="#12151c"/><path d="M -15.543 -1.250 A 0.100 0.100 0 0 1 -15.443 -1.150" fill="none" stroke="#6b7280" stroke-width="0.12" opacity="0.8"/><path d="M -15.443 1.070 A 0.100 0.100 0 0 1 -15.342 0.970" fill="none" stroke="#6b7280" stroke-width="0.12" opacity="0.8"/><path d="M -15.443 1.150 A 0.100 0.100 0 0 1 -15.543 1.250" fill="none" stroke="#6b7280" stroke-width="0.12" opacity="0.8"/><path d="M -15.342 -0.970 A 0.100 0.100 0 0 1 -15.443 -1.070" fill="none" stroke="#6b7280" stroke-width="0.12" opacity="0.8"/><path d="M -15.143 0.970 A 0.100 0.100 0 0 1 -15.043 1.070" fill="none" stroke="#6b7280" stroke-width="0.12" opacity="0.8"/><path d="M -15.043 -1.150 A 0.100 0.100 0 0 1 -14.943 -1.250" fill="none" stroke="#6b7280" stroke-width="0.12" opacity="0.8"/><path d="M -15.043 -1.070 A 0.100 0.100 0 0 1 -15.143 -0.970" fill="none" stroke="#6b7280" stroke-width="0.12" opacity="0.8"/><path d="M -14.943 1.250 A 0.100 0.100 0 0 1 -15.043 1.150" fill="none" stroke="#6b7280" stroke-width="0.12" opacity="0.8"/><path d="M -14.273 -1.250 A 0.100 0.100 0 0 1 -14.172 -1.150" fill="none" stroke="#6b7280" stroke-width="0.12" opacity="0.8"/><path d="M -14.172 1.070 A 0.100 0.100 0 0 1 -14.072 0.970" fill="none" stroke="#6b7280" stroke-width="0.12" opacity="0.8"/><path d="M -14.172 1.150 A 0.100 0.100 0 0 1 -14.273 1.250" fill="none" stroke="#6b7280" stroke-width="0.12" opacity="0.8"/><path d="M -14.072 -0.970 A 0.100 0.100 0 0 1 -14.172 -1.070" fill="none" stroke="#6b7280" stroke-width="0.12" opacity="0.8"/><path d="M -13.873 0.970 A 0.100 0.100 0 0 1 -13.773 1.070" fill="none" stroke="#6b7280" stroke-width="0.12" opacity="0.8"/><path d="M -13.773 -1.150 A 0.100 0.100 0 0 1 -13.672 -1.250" fill="none" stroke="#6b7280" stroke-width="0.12" opacity="0.8"/><path d="M -13.773 -1.070 A 0.100 0.100 0 0 1 -13.873 -0.970" fill="none" stroke="#6b7280" stroke-width="0.12" opacity="0.8"/><path d="M -13.672 1.250 A 0.100 0.100 0 0 1 -13.773 1.150" fill="none" stroke="#6b7280" stroke-width="0.12" opacity="0.8"/><path d="M -13.002 -1.250 A 0.100 0.100 0 0 1 -12.902 -1.150" fill="none" stroke="#6b7280" stroke-width="0.12" opacity="0.8"/><path d="M -12.902 1.070 A 0.100 0.100 0 0 1 -12.803 0.970" fill="none" stroke="#6b7280" stroke-width="0.12" opacity="0.8"/><path d="M -12.902 1.150 A 0.100 0.100 0 0 1 -13.002 1.250" fill="none" stroke="#6b7280" stroke-width="0.12" opacity="0.8"/><path d="M -12.803 -0.970 A 0.100 0.100 0 0 1 -12.902 -1.070" fill="none" stroke="#6b7280" stroke-width="0.12" opacity="0.8"/><path d="M -12.602 0.970 A 0.100 0.100 0 0 1 -12.502 1.070" fill="none" stroke="#6b7280" stroke-width="0.12" opacity="0.8"/><path d="M -12.502 -1.150 A 0.100 0.100 0 0 1 -12.402 -1.250" fill="none" stroke="#6b7280" stroke-width="0.12" opacity="0.8"/><path d="M -12.502 -1.070 A 0.100 0.100 0 0 1 -12.602 -0.970" fill="none" stroke="#6b7280" stroke-width="0.12" opacity="0.8"/><path d="M -12.402 1.250 A 0.100 0.100 0 0 1 -12.502 1.150" fill="none" stroke="#6b7280" stroke-width="0.12" opacity="0.8"/><path d="M -11.732 -1.250 A 0.100 0.100 0 0 1 -11.633 -1.150" fill="none" stroke="#6b7280" stroke-width="0.12" opacity="0.8"/><path d="M -11.633 1.070 A 0.100 0.100 0 0 1 -11.533 0.970" fill="none" stroke="#6b7280" stroke-width="0.12" opacity="0.8"/><path d="M -11.633 1.150 A 0.100 0.100 0 0 1 -11.732 1.250" fill="none" stroke="#6b7280" stroke-width="0.12" opacity="0.8"/><path d="M -11.533 -0.970 A 0.100 0.100 0 0 1 -11.633 -1.070" fill="none" stroke="#6b7280" stroke-width="0.12" opacity="0.8"/><path d="M -11.332 0.970 A 0.100 0.100 0 0 1 -11.232 1.070" fill="none" stroke="#6b7280" stroke-width="0.12" opacity="0.8"/><path d="M -11.232 -1.150 A 0.100 0.100 0 0 1 -11.133 -1.250" fill="none" stroke="#6b7280" stroke-width="0.12" opacity="0.8"/><path d="M -11.232 -1.070 A 0.100 0.100 0 0 1 -11.332 -0.970" fill="none" stroke="#6b7280" stroke-width="0.12" opacity="0.8"/><path d="M -11.133 1.250 A 0.100 0.100 0 0 1 -11.232 1.150" fill="none" stroke="#6b7280" stroke-width="0.12" opacity="0.8"/><path d="M -10.463 -1.250 A 0.100 0.100 0 0 1 -10.363 -1.150" fill="none" stroke="#6b7280" stroke-width="0.12" opacity="0.8"/><path d="M -10.363 1.070 A 0.100 0.100 0 0 1 -10.262 0.970" fill="none" stroke="#6b7280" stroke-width="0.12" opacity="0.8"/><path d="M -10.363 1.150 A 0.100 0.100 0 0 1 -10.463 1.250" fill="none" stroke="#6b7280" stroke-width="0.12" opacity="0.8"/><path d="M -10.262 -0.970 A 0.100 0.100 0 0 1 -10.363 -1.070" fill="none" stroke="#6b7280" stroke-width="0.12" opacity="0.8"/><path d="M -10.062 0.970 A 0.100 0.100 0 0 1 -9.963 1.070" fill="none" stroke="#6b7280" stroke-width="0.12" opacity="0.8"/><path d="M -9.963 -1.150 A 0.100 0.100 0 0 1 -9.863 -1.250" fill="none" stroke="#6b7280" stroke-width="0.12" opacity="0.8"/><path d="M -9.963 -1.070 A 0.100 0.100 0 0 1 -10.062 -0.970" fill="none" stroke="#6b7280" stroke-width="0.12" opacity="0.8"/><path d="M -9.863 1.250 A 0.100 0.100 0 0 1 -9.963 1.150" fill="none" stroke="#6b7280" stroke-width="0.12" opacity="0.8"/><path d="M -9.193 -1.250 A 0.100 0.100 0 0 1 -9.092 -1.150" fill="none" stroke="#6b7280" stroke-width="0.12" opacity="0.8"/><path d="M -9.092 1.070 A 0.100 0.100 0 0 1 -8.992 0.970" fill="none" stroke="#6b7280" stroke-width="0.12" opacity="0.8"/><path d="M -9.092 1.150 A 0.100 0.100 0 0 1 -9.193 1.250" fill="none" stroke="#6b7280" stroke-width="0.12" opacity="0.8"/><path d="M -8.992 -0.970 A 0.100 0.100 0 0 1 -9.092 -1.070" fill="none" stroke="#6b7280" stroke-width="0.12" opacity="0.8"/><path d="M -8.793 0.970 A 0.100 0.100 0 0 1 -8.693 1.070" fill="none" stroke="#6b7280" stroke-width="0.12" opacity="0.8"/><path d="M -8.693 -1.150 A 0.100 0.100 0 0 1 -8.592 -1.250" fill="none" stroke="#6b7280" stroke-width="0.12" opacity="0.8"/><path d="M -8.693 -1.070 A 0.100 0.100 0 0 1 -8.793 -0.970" fill="none" stroke="#6b7280" stroke-width="0.12" opacity="0.8"/><path d="M -8.592 1.250 A 0.100 0.100 0 0 1 -8.693 1.150" fill="none" stroke="#6b7280" stroke-width="0.12" opacity="0.8"/><path d="M -7.923 -1.250 A 0.100 0.100 0 0 1 -7.822 -1.150" fill="none" stroke="#6b7280" stroke-width="0.12" opacity="0.8"/><path d="M -7.822 1.070 A 0.100 0.100 0 0 1 -7.723 0.970" fill="none" stroke="#6b7280" stroke-width="0.12" opacity="0.8"/><path d="M -7.822 1.150 A 0.100 0.100 0 0 1 -7.923 1.250" fill="none" stroke="#6b7280" stroke-width="0.12" opacity="0.8"/><path d="M -7.723 -0.970 A 0.100 0.100 0 0 1 -7.822 -1.070" fill="none" stroke="#6b7280" stroke-width="0.12" opacity="0.8"/><path d="M -7.522 0.970 A 0.100 0.100 0 0 1 -7.423 1.070" fill="none" stroke="#6b7280" stroke-width="0.12" opacity="0.8"/><path d="M -7.423 -1.150 A 0.100 0.100 0 0 1 -7.322 -1.250" fill="none" stroke="#6b7280" stroke-width="0.12" opacity="0.8"/><path d="M -7.423 -1.070 A 0.100 0.100 0 0 1 -7.522 -0.970" fill="none" stroke="#6b7280" stroke-width="0.12" opacity="0.8"/><path d="M -7.322 1.250 A 0.100 0.100 0 0 1 -7.423 1.150" fill="none" stroke="#6b7280" stroke-width="0.12" opacity="0.8"/><path d="M -6.652 -1.250 A 0.100 0.100 0 0 1 -6.553 -1.150" fill="none" stroke="#6b7280" stroke-width="0.12" opacity="0.8"/><path d="M -6.553 1.070 A 0.100 0.100 0 0 1 -6.452 0.970" fill="none" stroke="#6b7280" stroke-width="0.12" opacity="0.8"/><path d="M -6.553 1.150 A 0.100 0.100 0 0 1 -6.652 1.250" fill="none" stroke="#6b7280" stroke-width="0.12" opacity="0.8"/><path d="M -6.452 -0.970 A 0.100 0.100 0 0 1 -6.553 -1.070" fill="none" stroke="#6b7280" stroke-width="0.12" opacity="0.8"/><path d="M -6.253 0.970 A 0.100 0.100 0 0 1 -6.152 1.070" fill="none" stroke="#6b7280" stroke-width="0.12" opacity="0.8"/><path d="M -6.152 -1.150 A 0.100 0.100 0 0 1 -6.053 -1.250" fill="none" stroke="#6b7280" stroke-width="0.12" opacity="0.8"/><path d="M -6.152 -1.070 A 0.100 0.100 0 0 1 -6.253 -0.970" fill="none" stroke="#6b7280" stroke-width="0.12" opacity="0.8"/><path d="M -6.053 1.250 A 0.100 0.100 0 0 1 -6.152 1.150" fill="none" stroke="#6b7280" stroke-width="0.12" opacity="0.8"/><path d="M -5.383 -1.250 A 0.100 0.100 0 0 1 -5.282 -1.150" fill="none" stroke="#6b7280" stroke-width="0.12" opacity="0.8"/><path d="M -5.282 1.070 A 0.100 0.100 0 0 1 -5.183 0.970" fill="none" stroke="#6b7280" stroke-width="0.12" opacity="0.8"/><path d="M -5.282 1.150 A 0.100 0.100 0 0 1 -5.383 1.250" fill="none" stroke="#6b7280" stroke-width="0.12" opacity="0.8"/><path d="M -5.183 -0.970 A 0.100 0.100 0 0 1 -5.282 -1.070" fill="none" stroke="#6b7280" stroke-width="0.12" opacity="0.8"/><path d="M -4.982 0.970 A 0.100 0.100 0 0 1 -4.883 1.070" fill="none" stroke="#6b7280" stroke-width="0.12" opacity="0.8"/><path d="M -4.883 -1.150 A 0.100 0.100 0 0 1 -4.782 -1.250" fill="none" stroke="#6b7280" stroke-width="0.12" opacity="0.8"/><path d="M -4.883 -1.070 A 0.100 0.100 0 0 1 -4.982 -0.970" fill="none" stroke="#6b7280" stroke-width="0.12" opacity="0.8"/><path d="M -4.782 1.250 A 0.100 0.100 0 0 1 -4.883 1.150" fill="none" stroke="#6b7280" stroke-width="0.12" opacity="0.8"/><path d="M -4.112 -1.250 A 0.100 0.100 0 0 1 -4.013 -1.150" fill="none" stroke="#6b7280" stroke-width="0.12" opacity="0.8"/><path d="M -4.013 1.070 A 0.100 0.100 0 0 1 -3.913 0.970" fill="none" stroke="#6b7280" stroke-width="0.12" opacity="0.8"/><path d="M -4.013 1.150 A 0.100 0.100 0 0 1 -4.112 1.250" fill="none" stroke="#6b7280" stroke-width="0.12" opacity="0.8"/><path d="M -3.913 -0.970 A 0.100 0.100 0 0 1 -4.013 -1.070" fill="none" stroke="#6b7280" stroke-width="0.12" opacity="0.8"/><path d="M -3.712 0.970 A 0.100 0.100 0 0 1 -3.612 1.070" fill="none" stroke="#6b7280" stroke-width="0.12" opacity="0.8"/><path d="M -3.612 -1.150 A 0.100 0.100 0 0 1 -3.513 -1.250" fill="none" stroke="#6b7280" stroke-width="0.12" opacity="0.8"/><path d="M -3.612 -1.070 A 0.100 0.100 0 0 1 -3.712 -0.970" fill="none" stroke="#6b7280" stroke-width="0.12" opacity="0.8"/><path d="M -3.513 1.250 A 0.100 0.100 0 0 1 -3.612 1.150" fill="none" stroke="#6b7280" stroke-width="0.12" opacity="0.8"/><path d="M -2.842 -1.250 A 0.100 0.100 0 0 1 -2.743 -1.150" fill="none" stroke="#6b7280" stroke-width="0.12" opacity="0.8"/><path d="M -2.743 1.070 A 0.100 0.100 0 0 1 -2.643 0.970" fill="none" stroke="#6b7280" stroke-width="0.12" opacity="0.8"/><path d="M -2.743 1.150 A 0.100 0.100 0 0 1 -2.842 1.250" fill="none" stroke="#6b7280" stroke-width="0.12" opacity="0.8"/><path d="M -2.643 -0.970 A 0.100 0.100 0 0 1 -2.743 -1.070" fill="none" stroke="#6b7280" stroke-width="0.12" opacity="0.8"/><path d="M -2.442 0.970 A 0.100 0.100 0 0 1 -2.342 1.070" fill="none" stroke="#6b7280" stroke-width="0.12" opacity="0.8"/><path d="M -2.342 -1.150 A 0.100 0.100 0 0 1 -2.243 -1.250" fill="none" stroke="#6b7280" stroke-width="0.12" opacity="0.8"/><path d="M -2.342 -1.070 A 0.100 0.100 0 0 1 -2.442 -0.970" fill="none" stroke="#6b7280" stroke-width="0.12" opacity="0.8"/><path d="M -2.243 1.250 A 0.100 0.100 0 0 1 -2.342 1.150" fill="none" stroke="#6b7280" stroke-width="0.12" opacity="0.8"/><path d="M -1.573 -1.250 A 0.100 0.100 0 0 1 -1.472 -1.150" fill="none" stroke="#6b7280" stroke-width="0.12" opacity="0.8"/><path d="M -1.472 1.070 A 0.100 0.100 0 0 1 -1.373 0.970" fill="none" stroke="#6b7280" stroke-width="0.12" opacity="0.8"/><path d="M -1.472 1.150 A 0.100 0.100 0 0 1 -1.573 1.250" fill="none" stroke="#6b7280" stroke-width="0.12" opacity="0.8"/><path d="M -1.373 -0.970 A 0.100 0.100 0 0 1 -1.472 -1.070" fill="none" stroke="#6b7280" stroke-width="0.12" opacity="0.8"/><path d="M -1.173 0.970 A 0.100 0.100 0 0 1 -1.073 1.070" fill="none" stroke="#6b7280" stroke-width="0.12" opacity="0.8"/><path d="M -1.073 -1.150 A 0.100 0.100 0 0 1 -0.973 -1.250" fill="none" stroke="#6b7280" stroke-width="0.12" opacity="0.8"/><path d="M -1.073 -1.070 A 0.100 0.100 0 0 1 -1.173 -0.970" fill="none" stroke="#6b7280" stroke-width="0.12" opacity="0.8"/><path d="M -0.973 1.250 A 0.100 0.100 0 0 1 -1.073 1.150" fill="none" stroke="#6b7280" stroke-width="0.12" opacity="0.8"/><path d="M -0.302 -1.250 A 0.100 0.100 0 0 1 -0.203 -1.150" fill="none" stroke="#6b7280" stroke-width="0.12" opacity="0.8"/><path d="M -0.203 1.070 A 0.100 0.100 0 0 1 -0.102 0.970" fill="none" stroke="#6b7280" stroke-width="0.12" opacity="0.8"/><path d="M -0.203 1.150 A 0.100 0.100 0 0 1 -0.302 1.250" fill="none" stroke="#6b7280" stroke-width="0.12" opacity="0.8"/><path d="M -0.102 -0.970 A 0.100 0.100 0 0 1 -0.203 -1.070" fill="none" stroke="#6b7280" stroke-width="0.12" opacity="0.8"/><path d="M 0.098 0.970 A 0.100 0.100 0 0 1 0.198 1.070" fill="none" stroke="#6b7280" stroke-width="0.12" opacity="0.8"/><path d="M 0.198 -1.150 A 0.100 0.100 0 0 1 0.297 -1.250" fill="none" stroke="#6b7280" stroke-width="0.12" opacity="0.8"/><path d="M 0.198 -1.070 A 0.100 0.100 0 0 1 0.098 -0.970" fill="none" stroke="#6b7280" stroke-width="0.12" opacity="0.8"/><path d="M 0.297 1.250 A 0.100 0.100 0 0 1 0.198 1.150" fill="none" stroke="#6b7280" stroke-width="0.12" opacity="0.8"/><path d="M 0.968 -1.250 A 0.100 0.100 0 0 1 1.067 -1.150" fill="none" stroke="#6b7280" stroke-width="0.12" opacity="0.8"/><path d="M 1.067 1.070 A 0.100 0.100 0 0 1 1.167 0.970" fill="none" stroke="#6b7280" stroke-width="0.12" opacity="0.8"/><path d="M 1.067 1.150 A 0.100 0.100 0 0 1 0.968 1.250" fill="none" stroke="#6b7280" stroke-width="0.12" opacity="0.8"/><path d="M 1.167 -0.970 A 0.100 0.100 0 0 1 1.067 -1.070" fill="none" stroke="#6b7280" stroke-width="0.12" opacity="0.8"/><path d="M 1.367 0.970 A 0.100 0.100 0 0 1 1.468 1.070" fill="none" stroke="#6b7280" stroke-width="0.12" opacity="0.8"/><path d="M 1.468 -1.150 A 0.100 0.100 0 0 1 1.567 -1.250" fill="none" stroke="#6b7280" stroke-width="0.12" opacity="0.8"/><path d="M 1.468 -1.070 A 0.100 0.100 0 0 1 1.367 -0.970" fill="none" stroke="#6b7280" stroke-width="0.12" opacity="0.8"/><path d="M 1.567 1.250 A 0.100 0.100 0 0 1 1.468 1.150" fill="none" stroke="#6b7280" stroke-width="0.12" opacity="0.8"/><path d="M 2.237 -1.250 A 0.100 0.100 0 0 1 2.337 -1.150" fill="none" stroke="#6b7280" stroke-width="0.12" opacity="0.8"/><path d="M 2.337 1.070 A 0.100 0.100 0 0 1 2.438 0.970" fill="none" stroke="#6b7280" stroke-width="0.12" opacity="0.8"/><path d="M 2.337 1.150 A 0.100 0.100 0 0 1 2.237 1.250" fill="none" stroke="#6b7280" stroke-width="0.12" opacity="0.8"/><path d="M 2.438 -0.970 A 0.100 0.100 0 0 1 2.337 -1.070" fill="none" stroke="#6b7280" stroke-width="0.12" opacity="0.8"/><path d="M 2.638 0.970 A 0.100 0.100 0 0 1 2.737 1.070" fill="none" stroke="#6b7280" stroke-width="0.12" opacity="0.8"/><path d="M 2.737 -1.150 A 0.100 0.100 0 0 1 2.837 -1.250" fill="none" stroke="#6b7280" stroke-width="0.12" opacity="0.8"/><path d="M 2.737 -1.070 A 0.100 0.100 0 0 1 2.638 -0.970" fill="none" stroke="#6b7280" stroke-width="0.12" opacity="0.8"/><path d="M 2.837 1.250 A 0.100 0.100 0 0 1 2.737 1.150" fill="none" stroke="#6b7280" stroke-width="0.12" opacity="0.8"/><path d="M 3.507 -1.250 A 0.100 0.100 0 0 1 3.607 -1.150" fill="none" stroke="#6b7280" stroke-width="0.12" opacity="0.8"/><path d="M 3.607 1.070 A 0.100 0.100 0 0 1 3.708 0.970" fill="none" stroke="#6b7280" stroke-width="0.12" opacity="0.8"/><path d="M 3.607 1.150 A 0.100 0.100 0 0 1 3.507 1.250" fill="none" stroke="#6b7280" stroke-width="0.12" opacity="0.8"/><path d="M 3.708 -0.970 A 0.100 0.100 0 0 1 3.607 -1.070" fill="none" stroke="#6b7280" stroke-width="0.12" opacity="0.8"/><path d="M 3.908 0.970 A 0.100 0.100 0 0 1 4.008 1.070" fill="none" stroke="#6b7280" stroke-width="0.12" opacity="0.8"/><path d="M 4.008 -1.150 A 0.100 0.100 0 0 1 4.107 -1.250" fill="none" stroke="#6b7280" stroke-width="0.12" opacity="0.8"/><path d="M 4.008 -1.070 A 0.100 0.100 0 0 1 3.908 -0.970" fill="none" stroke="#6b7280" stroke-width="0.12" opacity="0.8"/><path d="M 4.107 1.250 A 0.100 0.100 0 0 1 4.008 1.150" fill="none" stroke="#6b7280" stroke-width="0.12" opacity="0.8"/><path d="M 4.777 -1.250 A 0.100 0.100 0 0 1 4.878 -1.150" fill="none" stroke="#6b7280" stroke-width="0.12" opacity="0.8"/><path d="M 4.878 1.070 A 0.100 0.100 0 0 1 4.978 0.970" fill="none" stroke="#6b7280" stroke-width="0.12" opacity="0.8"/><path d="M 4.878 1.150 A 0.100 0.100 0 0 1 4.777 1.250" fill="none" stroke="#6b7280" stroke-width="0.12" opacity="0.8"/><path d="M 4.978 -0.970 A 0.100 0.100 0 0 1 4.878 -1.070" fill="none" stroke="#6b7280" stroke-width="0.12" opacity="0.8"/><path d="M 5.178 0.970 A 0.100 0.100 0 0 1 5.277 1.070" fill="none" stroke="#6b7280" stroke-width="0.12" opacity="0.8"/><path d="M 5.277 -1.150 A 0.100 0.100 0 0 1 5.378 -1.250" fill="none" stroke="#6b7280" stroke-width="0.12" opacity="0.8"/><path d="M 5.277 -1.070 A 0.100 0.100 0 0 1 5.178 -0.970" fill="none" stroke="#6b7280" stroke-width="0.12" opacity="0.8"/><path d="M 5.378 1.250 A 0.100 0.100 0 0 1 5.277 1.150" fill="none" stroke="#6b7280" stroke-width="0.12" opacity="0.8"/><path d="M 6.048 -1.250 A 0.100 0.100 0 0 1 6.147 -1.150" fill="none" stroke="#6b7280" stroke-width="0.12" opacity="0.8"/><path d="M 6.147 1.070 A 0.100 0.100 0 0 1 6.247 0.970" fill="none" stroke="#6b7280" stroke-width="0.12" opacity="0.8"/><path d="M 6.147 1.150 A 0.100 0.100 0 0 1 6.048 1.250" fill="none" stroke="#6b7280" stroke-width="0.12" opacity="0.8"/><path d="M 6.247 -0.970 A 0.100 0.100 0 0 1 6.147 -1.070" fill="none" stroke="#6b7280" stroke-width="0.12" opacity="0.8"/><path d="M 6.447 0.970 A 0.100 0.100 0 0 1 6.548 1.070" fill="none" stroke="#6b7280" stroke-width="0.12" opacity="0.8"/><path d="M 6.548 -1.150 A 0.100 0.100 0 0 1 6.647 -1.250" fill="none" stroke="#6b7280" stroke-width="0.12" opacity="0.8"/><path d="M 6.548 -1.070 A 0.100 0.100 0 0 1 6.447 -0.970" fill="none" stroke="#6b7280" stroke-width="0.12" opacity="0.8"/><path d="M 6.647 1.250 A 0.100 0.100 0 0 1 6.548 1.150" fill="none" stroke="#6b7280" stroke-width="0.12" opacity="0.8"/><path d="M 7.317 -1.250 A 0.100 0.100 0 0 1 7.418 -1.150" fill="none" stroke="#6b7280" stroke-width="0.12" opacity="0.8"/><path d="M 7.418 1.070 A 0.100 0.100 0 0 1 7.518 0.970" fill="none" stroke="#6b7280" stroke-width="0.12" opacity="0.8"/><path d="M 7.418 1.150 A 0.100 0.100 0 0 1 7.317 1.250" fill="none" stroke="#6b7280" stroke-width="0.12" opacity="0.8"/><path d="M 7.518 -0.970 A 0.100 0.100 0 0 1 7.418 -1.070" fill="none" stroke="#6b7280" stroke-width="0.12" opacity="0.8"/><path d="M 7.718 0.970 A 0.100 0.100 0 0 1 7.817 1.070" fill="none" stroke="#6b7280" stroke-width="0.12" opacity="0.8"/><path d="M 7.817 -1.150 A 0.100 0.100 0 0 1 7.918 -1.250" fill="none" stroke="#6b7280" stroke-width="0.12" opacity="0.8"/><path d="M 7.817 -1.070 A 0.100 0.100 0 0 1 7.718 -0.970" fill="none" stroke="#6b7280" stroke-width="0.12" opacity="0.8"/><path d="M 7.918 1.250 A 0.100 0.100 0 0 1 7.817 1.150" fill="none" stroke="#6b7280" stroke-width="0.12" opacity="0.8"/><path d="M 8.588 -1.250 A 0.100 0.100 0 0 1 8.688 -1.150" fill="none" stroke="#6b7280" stroke-width="0.12" opacity="0.8"/><path d="M 8.688 1.070 A 0.100 0.100 0 0 1 8.787 0.970" fill="none" stroke="#6b7280" stroke-width="0.12" opacity="0.8"/><path d="M 8.688 1.150 A 0.100 0.100 0 0 1 8.588 1.250" fill="none" stroke="#6b7280" stroke-width="0.12" opacity="0.8"/><path d="M 8.787 -0.970 A 0.100 0.100 0 0 1 8.688 -1.070" fill="none" stroke="#6b7280" stroke-width="0.12" opacity="0.8"/><path d="M 8.988 0.970 A 0.100 0.100 0 0 1 9.088 1.070" fill="none" stroke="#6b7280" stroke-width="0.12" opacity="0.8"/><path d="M 9.088 -1.150 A 0.100 0.100 0 0 1 9.188 -1.250" fill="none" stroke="#6b7280" stroke-width="0.12" opacity="0.8"/><path d="M 9.088 -1.070 A 0.100 0.100 0 0 1 8.988 -0.970" fill="none" stroke="#6b7280" stroke-width="0.12" opacity="0.8"/><path d="M 9.188 1.250 A 0.100 0.100 0 0 1 9.088 1.150" fill="none" stroke="#6b7280" stroke-width="0.12" opacity="0.8"/><path d="M 9.857 -1.250 A 0.100 0.100 0 0 1 9.957 -1.150" fill="none" stroke="#6b7280" stroke-width="0.12" opacity="0.8"/><path d="M 9.957 1.070 A 0.100 0.100 0 0 1 10.057 0.970" fill="none" stroke="#6b7280" stroke-width="0.12" opacity="0.8"/><path d="M 9.957 1.150 A 0.100 0.100 0 0 1 9.857 1.250" fill="none" stroke="#6b7280" stroke-width="0.12" opacity="0.8"/><path d="M 10.057 -0.970 A 0.100 0.100 0 0 1 9.957 -1.070" fill="none" stroke="#6b7280" stroke-width="0.12" opacity="0.8"/><path d="M 10.258 0.970 A 0.100 0.100 0 0 1 10.357 1.070" fill="none" stroke="#6b7280" stroke-width="0.12" opacity="0.8"/><path d="M 10.357 -1.150 A 0.100 0.100 0 0 1 10.457 -1.250" fill="none" stroke="#6b7280" stroke-width="0.12" opacity="0.8"/><path d="M 10.357 -1.070 A 0.100 0.100 0 0 1 10.258 -0.970" fill="none" stroke="#6b7280" stroke-width="0.12" opacity="0.8"/><path d="M 10.457 1.250 A 0.100 0.100 0 0 1 10.357 1.150" fill="none" stroke="#6b7280" stroke-width="0.12" opacity="0.8"/><path d="M 11.127 -1.250 A 0.100 0.100 0 0 1 11.227 -1.150" fill="none" stroke="#6b7280" stroke-width="0.12" opacity="0.8"/><path d="M 11.227 1.070 A 0.100 0.100 0 0 1 11.328 0.970" fill="none" stroke="#6b7280" stroke-width="0.12" opacity="0.8"/><path d="M 11.227 1.150 A 0.100 0.100 0 0 1 11.127 1.250" fill="none" stroke="#6b7280" stroke-width="0.12" opacity="0.8"/><path d="M 11.328 -0.970 A 0.100 0.100 0 0 1 11.227 -1.070" fill="none" stroke="#6b7280" stroke-width="0.12" opacity="0.8"/><path d="M 11.527 0.970 A 0.100 0.100 0 0 1 11.627 1.070" fill="none" stroke="#6b7280" stroke-width="0.12" opacity="0.8"/><path d="M 11.627 -1.150 A 0.100 0.100 0 0 1 11.727 -1.250" fill="none" stroke="#6b7280" stroke-width="0.12" opacity="0.8"/><path d="M 11.627 -1.070 A 0.100 0.100 0 0 1 11.527 -0.970" fill="none" stroke="#6b7280" stroke-width="0.12" opacity="0.8"/><path d="M 11.727 1.250 A 0.100 0.100 0 0 1 11.627 1.150" fill="none" stroke="#6b7280" stroke-width="0.12" opacity="0.8"/><path d="M 12.398 -1.250 A 0.100 0.100 0 0 1 12.498 -1.150" fill="none" stroke="#6b7280" stroke-width="0.12" opacity="0.8"/><path d="M 12.498 1.070 A 0.100 0.100 0 0 1 12.598 0.970" fill="none" stroke="#6b7280" stroke-width="0.12" opacity="0.8"/><path d="M 12.498 1.150 A 0.100 0.100 0 0 1 12.398 1.250" fill="none" stroke="#6b7280" stroke-width="0.12" opacity="0.8"/><path d="M 12.598 -0.970 A 0.100 0.100 0 0 1 12.498 -1.070" fill="none" stroke="#6b7280" stroke-width="0.12" opacity="0.8"/><path d="M 12.797 0.970 A 0.100 0.100 0 0 1 12.898 1.070" fill="none" stroke="#6b7280" stroke-width="0.12" opacity="0.8"/><path d="M 12.898 -1.150 A 0.100 0.100 0 0 1 12.998 -1.250" fill="none" stroke="#6b7280" stroke-width="0.12" opacity="0.8"/><path d="M 12.898 -1.070 A 0.100 0.100 0 0 1 12.797 -0.970" fill="none" stroke="#6b7280" stroke-width="0.12" opacity="0.8"/><path d="M 12.998 1.250 A 0.100 0.100 0 0 1 12.898 1.150" fill="none" stroke="#6b7280" stroke-width="0.12" opacity="0.8"/><path d="M 13.668 -1.250 A 0.100 0.100 0 0 1 13.768 -1.150" fill="none" stroke="#6b7280" stroke-width="0.12" opacity="0.8"/><path d="M 13.768 1.070 A 0.100 0.100 0 0 1 13.867 0.970" fill="none" stroke="#6b7280" stroke-width="0.12" opacity="0.8"/><path d="M 13.768 1.150 A 0.100 0.100 0 0 1 13.668 1.250" fill="none" stroke="#6b7280" stroke-width="0.12" opacity="0.8"/><path d="M 13.867 -0.970 A 0.100 0.100 0 0 1 13.768 -1.070" fill="none" stroke="#6b7280" stroke-width="0.12" opacity="0.8"/><path d="M 14.068 0.970 A 0.100 0.100 0 0 1 14.168 1.070" fill="none" stroke="#6b7280" stroke-width="0.12" opacity="0.8"/><path d="M 14.168 -1.150 A 0.100 0.100 0 0 1 14.268 -1.250" fill="none" stroke="#6b7280" stroke-width="0.12" opacity="0.8"/><path d="M 14.168 -1.070 A 0.100 0.100 0 0 1 14.068 -0.970" fill="none" stroke="#6b7280" stroke-width="0.12" opacity="0.8"/><path d="M 14.268 1.250 A 0.100 0.100 0 0 1 14.168 1.150" fill="none" stroke="#6b7280" stroke-width="0.12" opacity="0.8"/><path d="M 14.938 -1.250 A 0.100 0.100 0 0 1 15.037 -1.150" fill="none" stroke="#6b7280" stroke-width="0.12" opacity="0.8"/><path d="M 15.037 1.070 A 0.100 0.100 0 0 1 15.137 0.970" fill="none" stroke="#6b7280" stroke-width="0.12" opacity="0.8"/><path d="M 15.037 1.150 A 0.100 0.100 0 0 1 14.938 1.250" fill="none" stroke="#6b7280" stroke-width="0.12" opacity="0.8"/><path d="M 15.137 -0.970 A 0.100 0.100 0 0 1 15.037 -1.070" fill="none" stroke="#6b7280" stroke-width="0.12" opacity="0.8"/><path d="M 15.338 0.970 A 0.100 0.100 0 0 1 15.438 1.070" fill="none" stroke="#6b7280" stroke-width="0.12" opacity="0.8"/><path d="M 15.438 -1.150 A 0.100 0.100 0 0 1 15.537 -1.250" fill="none" stroke="#6b7280" stroke-width="0.12" opacity="0.8"/><path d="M 15.438 -1.070 A 0.100 0.100 0 0 1 15.338 -0.970" fill="none" stroke="#6b7280" stroke-width="0.12" opacity="0.8"/><path d="M 15.537 1.250 A 0.100 0.100 0 0 1 15.438 1.150" fill="none" stroke="#6b7280" stroke-width="0.12" opacity="0.8"/><circle cx="-16.960" cy="0.000" r="0.250" fill="none" stroke="#6b7280" stroke-width="0.1"/><circle cx="16.960" cy="-0.470" r="0.250" fill="none" stroke="#6b7280" stroke-width="0.1"/><rect x="-15.732" y="0.300" width="0.350" height="1.000" rx="0.000" fill="#c79b5c"/><rect x="-15.732" y="-1.300" width="0.350" height="1.000" rx="0.000" fill="#c79b5c"/><rect x="-15.098" y="0.300" width="0.350" height="1.000" rx="0.000" fill="#c79b5c"/><rect x="-15.098" y="-1.300" width="0.350" height="1.000" rx="0.000" fill="#c79b5c"/><rect x="-14.463" y="0.300" width="0.350" height="1.000" rx="0.000" fill="#c79b5c"/><rect x="-14.463" y="-1.300" width="0.350" height="1.000" rx="0.000" fill="#c79b5c"/><rect x="-13.828" y="0.300" width="0.350" height="1.000" rx="0.000" fill="#c79b5c"/><rect x="-13.828" y="-1.300" width="0.350" height="1.000" rx="0.000" fill="#c79b5c"/><rect x="-13.193" y="0.300" width="0.350" height="1.000" rx="0.000" fill="#c79b5c"/><rect x="-13.193" y="-1.300" width="0.350" height="1.000" rx="0.000" fill="#c79b5c"/><rect x="-12.558" y="0.300" width="0.350" height="1.000" rx="0.000" fill="#c79b5c"/><rect x="-12.558" y="-1.300" width="0.350" height="1.000" rx="0.000" fill="#c79b5c"/><rect x="-11.923" y="0.300" width="0.350" height="1.000" rx="0.000" fill="#c79b5c"/><rect x="-11.923" y="-1.300" width="0.350" height="1.000" rx="0.000" fill="#c79b5c"/><rect x="-11.288" y="0.300" width="0.350" height="1.000" rx="0.000" fill="#c79b5c"/><rect x="-11.288" y="-1.300" width="0.350" height="1.000" rx="0.000" fill="#c79b5c"/><rect x="-10.652" y="0.300" width="0.350" height="1.000" rx="0.000" fill="#c79b5c"/><rect x="-10.652" y="-1.300" width="0.350" height="1.000" rx="0.000" fill="#c79b5c"/><rect x="-10.018" y="0.300" width="0.350" height="1.000" rx="0.000" fill="#c79b5c"/><rect x="-10.018" y="-1.300" width="0.350" height="1.000" rx="0.000" fill="#c79b5c"/><rect x="-9.383" y="0.300" width="0.350" height="1.000" rx="0.000" fill="#c79b5c"/><rect x="-9.383" y="-1.300" width="0.350" height="1.000" rx="0.000" fill="#c79b5c"/><rect x="-8.748" y="0.300" width="0.350" height="1.000" rx="0.000" fill="#c79b5c"/><rect x="-8.748" y="-1.300" width="0.350" height="1.000" rx="0.000" fill="#c79b5c"/><rect x="-8.113" y="0.300" width="0.350" height="1.000" rx="0.000" fill="#c79b5c"/><rect x="-8.113" y="-1.300" width="0.350" height="1.000" rx="0.000" fill="#c79b5c"/><rect x="-7.478" y="0.300" width="0.350" height="1.000" rx="0.000" fill="#c79b5c"/><rect x="-7.478" y="-1.300" width="0.350" height="1.000" rx="0.000" fill="#c79b5c"/><rect x="-6.843" y="0.300" width="0.350" height="1.000" rx="0.000" fill="#c79b5c"/><rect x="-6.843" y="-1.300" width="0.350" height="1.000" rx="0.000" fill="#c79b5c"/><rect x="-6.207" y="0.300" width="0.350" height="1.000" rx="0.000" fill="#c79b5c"/><rect x="-6.207" y="-1.300" width="0.350" height="1.000" rx="0.000" fill="#c79b5c"/><rect x="-5.572" y="0.300" width="0.350" height="1.000" rx="0.000" fill="#c79b5c"/><rect x="-5.572" y="-1.300" width="0.350" height="1.000" rx="0.000" fill="#c79b5c"/><rect x="-4.938" y="0.300" width="0.350" height="1.000" rx="0.000" fill="#c79b5c"/><rect x="-4.938" y="-1.300" width="0.350" height="1.000" rx="0.000" fill="#c79b5c"/><rect x="-4.303" y="0.300" width="0.350" height="1.000" rx="0.000" fill="#c79b5c"/><rect x="-4.303" y="-1.300" width="0.350" height="1.000" rx="0.000" fill="#c79b5c"/><rect x="-3.667" y="0.300" width="0.350" height="1.000" rx="0.000" fill="#c79b5c"/><rect x="-3.667" y="-1.300" width="0.350" height="1.000" rx="0.000" fill="#c79b5c"/><rect x="-3.032" y="0.300" width="0.350" height="1.000" rx="0.000" fill="#c79b5c"/><rect x="-3.032" y="-1.300" width="0.350" height="1.000" rx="0.000" fill="#c79b5c"/><rect x="-2.397" y="0.300" width="0.350" height="1.000" rx="0.000" fill="#c79b5c"/><rect x="-2.397" y="-1.300" width="0.350" height="1.000" rx="0.000" fill="#c79b5c"/><rect x="-1.762" y="0.300" width="0.350" height="1.000" rx="0.000" fill="#c79b5c"/><rect x="-1.762" y="-1.300" width="0.350" height="1.000" rx="0.000" fill="#c79b5c"/><rect x="-1.127" y="0.300" width="0.350" height="1.000" rx="0.000" fill="#c79b5c"/><rect x="-1.127" y="-1.300" width="0.350" height="1.000" rx="0.000" fill="#c79b5c"/><rect x="-0.492" y="0.300" width="0.350" height="1.000" rx="0.000" fill="#c79b5c"/><rect x="-0.492" y="-1.300" width="0.350" height="1.000" rx="0.000" fill="#c79b5c"/><rect x="0.143" y="0.300" width="0.350" height="1.000" rx="0.000" fill="#c79b5c"/><rect x="0.143" y="-1.300" width="0.350" height="1.000" rx="0.000" fill="#c79b5c"/><rect x="0.778" y="0.300" width="0.350" height="1.000" rx="0.000" fill="#c79b5c"/><rect x="0.778" y="-1.300" width="0.350" height="1.000" rx="0.000" fill="#c79b5c"/><rect x="1.412" y="0.300" width="0.350" height="1.000" rx="0.000" fill="#c79b5c"/><rect x="1.412" y="-1.300" width="0.350" height="1.000" rx="0.000" fill="#c79b5c"/><rect x="2.048" y="0.300" width="0.350" height="1.000" rx="0.000" fill="#c79b5c"/><rect x="2.048" y="-1.300" width="0.350" height="1.000" rx="0.000" fill="#c79b5c"/><rect x="2.683" y="0.300" width="0.350" height="1.000" rx="0.000" fill="#c79b5c"/><rect x="2.683" y="-1.300" width="0.350" height="1.000" rx="0.000" fill="#c79b5c"/><rect x="3.318" y="0.300" width="0.350" height="1.000" rx="0.000" fill="#c79b5c"/><rect x="3.318" y="-1.300" width="0.350" height="1.000" rx="0.000" fill="#c79b5c"/><rect x="3.953" y="0.300" width="0.350" height="1.000" rx="0.000" fill="#c79b5c"/><rect x="3.953" y="-1.300" width="0.350" height="1.000" rx="0.000" fill="#c79b5c"/><rect x="4.588" y="0.300" width="0.350" height="1.000" rx="0.000" fill="#c79b5c"/><rect x="4.588" y="-1.300" width="0.350" height="1.000" rx="0.000" fill="#c79b5c"/><rect x="5.223" y="0.300" width="0.350" height="1.000" rx="0.000" fill="#c79b5c"/><rect x="5.223" y="-1.300" width="0.350" height="1.000" rx="0.000" fill="#c79b5c"/><rect x="5.857" y="0.300" width="0.350" height="1.000" rx="0.000" fill="#c79b5c"/><rect x="5.857" y="-1.300" width="0.350" height="1.000" rx="0.000" fill="#c79b5c"/><rect x="6.493" y="0.300" width="0.350" height="1.000" rx="0.000" fill="#c79b5c"/><rect x="6.493" y="-1.300" width="0.350" height="1.000" rx="0.000" fill="#c79b5c"/><rect x="7.128" y="0.300" width="0.350" height="1.000" rx="0.000" fill="#c79b5c"/><rect x="7.128" y="-1.300" width="0.350" height="1.000" rx="0.000" fill="#c79b5c"/><rect x="7.763" y="0.300" width="0.350" height="1.000" rx="0.000" fill="#c79b5c"/><rect x="7.763" y="-1.300" width="0.350" height="1.000" rx="0.000" fill="#c79b5c"/><rect x="8.397" y="0.300" width="0.350" height="1.000" rx="0.000" fill="#c79b5c"/><rect x="8.397" y="-1.300" width="0.350" height="1.000" rx="0.000" fill="#c79b5c"/><rect x="9.032" y="0.300" width="0.350" height="1.000" rx="0.000" fill="#c79b5c"/><rect x="9.032" y="-1.300" width="0.350" height="1.000" rx="0.000" fill="#c79b5c"/><rect x="9.667" y="0.300" width="0.350" height="1.000" rx="0.000" fill="#c79b5c"/><rect x="9.667" y="-1.300" width="0.350" height="1.000" rx="0.000" fill="#c79b5c"/><rect x="10.302" y="0.300" width="0.350" height="1.000" rx="0.000" fill="#c79b5c"/><rect x="10.302" y="-1.300" width="0.350" height="1.000" rx="0.000" fill="#c79b5c"/><rect x="10.938" y="0.300" width="0.350" height="1.000" rx="0.000" fill="#c79b5c"/><rect x="10.938" y="-1.300" width="0.350" height="1.000" rx="0.000" fill="#c79b5c"/><rect x="11.572" y="0.300" width="0.350" height="1.000" rx="0.000" fill="#c79b5c"/><rect x="11.572" y="-1.300" width="0.350" height="1.000" rx="0.000" fill="#c79b5c"/><rect x="12.207" y="0.300" width="0.350" height="1.000" rx="0.000" fill="#c79b5c"/><rect x="12.207" y="-1.300" width="0.350" height="1.000" rx="0.000" fill="#c79b5c"/><rect x="12.842" y="0.300" width="0.350" height="1.000" rx="0.000" fill="#c79b5c"/><rect x="12.842" y="-1.300" width="0.350" height="1.000" rx="0.000" fill="#c79b5c"/><rect x="13.477" y="0.300" width="0.350" height="1.000" rx="0.000" fill="#c79b5c"/><rect x="13.477" y="-1.300" width="0.350" height="1.000" rx="0.000" fill="#c79b5c"/><rect x="14.112" y="0.300" width="0.350" height="1.000" rx="0.000" fill="#c79b5c"/><rect x="14.112" y="-1.300" width="0.350" height="1.000" rx="0.000" fill="#c79b5c"/><rect x="14.747" y="0.300" width="0.350" height="1.000" rx="0.000" fill="#c79b5c"/><rect x="14.747" y="-1.300" width="0.350" height="1.000" rx="0.000" fill="#c79b5c"/><rect x="15.382" y="0.300" width="0.350" height="1.000" rx="0.000" fill="#c79b5c"/><rect x="15.382" y="-1.300" width="0.350" height="1.000" rx="0.000" fill="#c79b5c"/></svg>