<svg xmlns="http://www.w3.org/2000/svg" viewBox="-23.65 -4.59 47.30 9.67" preserveAspectRatio="xMidYMid meet" style="width:100%;height:100%"><rect x="-23.65" y="-4.59" width="47.30" height="9.67" fill="#12151c"/><line x1="-22.650" y1="-3.590" x2="22.650" y2="-3.590" stroke="#d24d4d" stroke-width="0.080" stroke-linecap="round" opacity="0.7"/><line x1="22.650" y1="-3.590" x2="22.650" y2="4.080" stroke="#d24d4d" stroke-width="0.080" stroke-linecap="round" opacity="0.7"/><line x1="22.650" y1="4.080" x2="-22.650" y2="4.080" stroke="#d24d4d" stroke-width="0.080" stroke-linecap="round" opacity="0.7"/><line x1="-22.650" y1="4.080" x2="-22.650" y2="-3.590" stroke="#d24d4d" stroke-width="0.080" stroke-linecap="round" opacity="0.7"/><rect x="-12.590" y="0.110" width="1.050" height="1.050" rx="0.263" fill="#c79b5c"/><circle cx="-12.065" cy="0.635" r="0.350" fill="#12151c"/><rect x="-12.590" y="-1.160" width="1.050" height="1.050" rx="0.263" fill="#c79b5c"/><circle cx="-12.065" cy="-0.635" r="0.350" fill="#12151c"/><rect x="-11.320" y="0.110" width="1.050" height="1.050" rx="0.263" fill="#c79b5c"/><circle cx="-10.795" cy="0.635" r="0.350" fill="#12151c"/><rect x="-11.320" y="-1.160" width="1.050" height="1.050" rx="0.263" fill="#c79b5c"/><circle cx="-10.795" cy="-0.635" r="0.350" fill="#12151c"/><rect x="-10.050" y="0.110" width="1.050" height="1.050" rx="0.263" fill="#c79b5c"/><circle cx="-9.525" cy="0.635" r="0.350" fill="#12151c"/><rect x="-10.050" y="-1.160" width="1.050" height="1.050" rx="0.263" fill="#c79b5c"/><circle cx="-9.525" cy="-0.635" r="0.350" fill="#12151c"/><rect x="-8.780" y="0.110" width="1.050" height="1.050" rx="0.263" fill="#c79b5c"/><circle cx="-8.255" cy="0.635" r="0.350" fill="#12151c"/><rect x="-8.780" y="-1.160" width="1.050" height="1.050" rx="0.263" fill="#c79b5c"/><circle cx="-8.255" cy="-0.635" r="0.350" fill="#12151c"/><rect x="-7.510" y="0.110" width="1.050" height="1.050" rx="0.263" fill="#c79b5c"/><circle cx="-6.985" cy="0.635" r="0.350" fill="#12151c"/><rect x="-7.510" y="-1.160" width="1.050" height="1.050" rx="0.263" fill="#c79b5c"/><circle cx="-6.985" cy="-0.635" r="0.350" fill="#12151c"/><rect x="-6.240" y="0.110" width="1.050" height="1.050" rx="0.263" fill="#c79b5c"/><circle cx="-5.715" cy="0.635" r="0.350" fill="#12151c"/><rect x="-6.240" y="-1.160" width="1.050" height="1.050" rx="0.263" fill="#c79b5c"/><circle cx="-5.715" cy="-0.635" r="0.350" fill="#12151c"/><rect x="-4.970" y="0.110" width="1.050" height="1.050" rx="0.263" fill="#c79b5c"/><circle cx="-4.445" cy="0.635" r="0.350" fill="#12151c"/><rect x="-4.970" y="-1.160" width="1.050" height="1.050" rx="0.263" fill="#c79b5c"/><circle cx="-4.445" cy="-0.635" r="0.350" fill="#12151c"/><rect x="-3.700" y="0.110" width="1.050" height="1.050" rx="0.263" fill="#c79b5c"/><circle cx="-3.175" cy="0.635" r="0.350" fill="#12151c"/><rect x="-3.700" y="-1.160" width="1.050" height="1.050" rx="0.263" fill="#c79b5c"/><circle cx="-3.175" cy="-0.635" r="0.350" fill="#12151c"/><rect x="-2.430" y="0.110" width="1.050" height="1.050" rx="0.263" fill="#c79b5c"/><circle cx="-1.905" cy="0.635" r="0.350" fill="#12151c"/><rect x="-2.430" y="-1.160" width="1.050" height="1.050" rx="0.263" fill="#c79b5c"/><circle cx="-1.905" cy="-0.635" r="0.350" fill="#12151c"/><rect x="-1.160" y="0.110" width="1.050" height="1.050" rx="0.263" fill="#c79b5c"/><circle cx="-0.635" cy="0.635" r="0.350" fill="#12151c"/><rect x="-1.160" y="-1.160" width="1.050" height="1.050" rx="0.263" fill="#c79b5c"/><circle cx="-0.635" cy="-0.635" r="0.350" fill="#12151c"/><rect x="0.110" y="0.110" width="1.050" height="1.050" rx="0.263" fill="#c79b5c"/><circle cx="0.635" cy="0.635" r="0.350" fill="#12151c"/><rect x="0.110" y="-1.160" width="1.050" height="1.050" rx="0.263" fill="#c79b5c"/><circle cx="0.635" cy="-0.635" r="0.350" fill="#12151c"/><rect x="1.380" y="0.110" width="1.050" height="1.050" rx="0.263" fill="#c79b5c"/><circle cx="1.905" cy="0.635" r="0.350" fill="#12151c"/><rect x="1.380" y="-1.160" width="1.050" height="1.050" rx="0.263" fill="#c79b5c"/><circle cx="1.905" cy="-0.635" r="0.350" fill="#12151c"/><rect x="2.650" y="0.110" width="1.050" height="1.050" rx="0.263" fill="#c79b5c"/><circle cx="3.175" cy="0.635" r="0.350" fill="#12151c"/><rect x="2.650" y="-1.160" width="1.050" height="1.050" rx="0.263" fill="#c79b5c"/><circle cx="3.175" cy="-0.635" r="0.350" fill="#12151c"/><rect x="3.920" y="0.110" width="1.050" height="1.050" rx="0.263" fill="#c79b5c"/><circle cx="4.445" cy="0.635" r="0.350" fill="#12151c"/><rect x="3.920" y="-1.160" width="1.050" height="1.050" rx="0.263" fill="#c79b5c"/><circle cx="4.445" cy="-0.635" r="0.350" fill="#12151c"/><rect x="5.190" y="0.110" width="1.050" height="1.050" rx="0.263" fill="#c79b5c"/><circle cx="5.715" cy="0.635" r="0.350" fill="#12151c"/><rect x="5.190" y="-1.160" width="1.050" height="1.050" rx="0.263" fill="#c79b5c"/><circle cx="5.715" cy="-0.635" r="0.350" fill="#12151c"/><rect x="6.460" y="0.110" width="1.050" height="1.050" rx="0.263" fill="#c79b5c"/><circle cx="6.985" cy="0.635" r="0.350" fill="#12151c"/><rect x="6.460" y="-1.160" width="1.050" height="1.050" rx="0.263" fill="#c79b5c"/><circle cx="6.985" cy="-0.635" r="0.350" fill="#12151c"/><rect x="7.730" y="0.110" width="1.050" height="1.050" rx="0.263" fill="#c79b5c"/><circle cx="8.255" cy="0.635" r="0.350" fill="#12151c"/><rect x="7.730" y="-1.160" width="1.050" height="1.050" rx="0.263" fill="#c79b5c"/><circle cx="8.255" cy="-0.635" r="0.350" fill="#12151c"/><rect x="9.000" y="0.110" width="1.050" height="1.050" rx="0.263" fill="#c79b5c"/><circle cx="9.525" cy="0.635" r="0.350" fill="#12151c"/><rect x="9.000" y="-1.160" width="1.050" height="1.050" rx="0.263" fill="#c79b5c"/><circle cx="9.525" cy="-0.635" r="0.350" fill="#12151c"/><rect x="10.270" y="0.110" width="1.050" height="1.050" rx="0.263" fill="#c79b5c"/><circle cx="10.795" cy="0.635" r="0.350" fill="#12151c"/><rect x="10.270" y="-1.160" width="1.050" height="1.050" rx="0.263" fill="#c79b5c"/><circle cx="10.795" cy="-0.635" r="0.350" fill="#12151c"/><rect x="11.540" y="0.110" width="1.050" height="1.050" rx="0.263" fill="#c79b5c"/><circle cx="12.065" cy="0.635" r="0.350" fill="#12151c"/><rect x="11.540" y="-1.160" width="1.050" height="1.050" rx="0.263" fill="#c79b5c"/><circle cx="12.065" cy="-0.635" r="0.350" fill="#12151c"/></svg>