<svg xmlns="http://www.w3.org/2000/svg" viewBox="-1.50 -6.58 15.70 13.16" preserveAspectRatio="xMidYMid meet" style="width:100%;height:100%"><rect x="-1.50" y="-6.58" width="15.70" height="13.16" fill="#12151c"/><polyline points="1.524,-0.000 3.302,-0.000" fill="none" stroke="#4ea1ff" stroke-width="0.25" stroke-linejoin="round"/><polyline points="3.048,1.778 3.556,1.778 3.556,-1.778 3.048,-1.778 3.048,1.778" fill="#1e222b" stroke="#4ea1ff" stroke-width="0.25" stroke-linejoin="round"/><polyline points="3.302,-0.508 5.080,-1.778" fill="none" stroke="#4ea1ff" stroke-width="0.25" stroke-linejoin="round"/><polyline points="3.302,0.508 5.080,1.778" fill="none" stroke="#4ea1ff" stroke-width="0.25" stroke-linejoin="round"/><polyline points="3.810,-0.889 5.080,-1.092 4.318,-1.905 3.810,-0.889" fill="#1e222b" stroke="#4ea1ff" stroke-width="0.25" stroke-linejoin="round"/><polyline points="4.064,-2.540 8.636,-2.540" fill="none" stroke="#4ea1ff" stroke-width="0.25" stroke-linejoin="round"/><polyline points="4.064,2.540 8.636,2.540" fill="none" stroke="#4ea1ff" stroke-width="0.25" stroke-linejoin="round"/><polyline points="5.080,-1.778 5.080,-2.540" fill="none" stroke="#4ea1ff" stroke-width="0.25" stroke-linejoin="round"/><polyline points="5.080,2.540 5.080,1.778" fill="none" stroke="#4ea1ff" stroke-width="0.25" stroke-linejoin="round"/><polyline points="7.620,-1.778 7.620,-2.540" fill="none" stroke="#4ea1ff" stroke-width="0.25" stroke-linejoin="round"/><polyline points="7.620,2.540 7.620,1.778" fill="none" stroke="#4ea1ff" stroke-width="0.25" stroke-linejoin="round"/><polyline points="8.890,-0.889 7.620,-1.092 8.382,-1.905 8.890,-0.889" fill="#1e222b" stroke="#4ea1ff" stroke-width="0.25" stroke-linejoin="round"/><polyline points="9.398,-0.508 7.620,-1.778" fill="none" stroke="#4ea1ff" stroke-width="0.25" stroke-linejoin="round"/><polyline points="9.398,0.508 7.620,1.778" fill="none" stroke="#4ea1ff" stroke-width="0.25" stroke-linejoin="round"/><polyline points="9.652,1.778 9.144,1.778 9.144,-1.778 9.652,-1.778 9.652,1.778" fill="#1e222b" stroke="#4ea1ff" stroke-width="0.25" stroke-linejoin="round"/><polyline points="11.176,-0.000 9.398,-0.000" fill="none" stroke="#4ea1ff" stroke-width="0.25" stroke-linejoin="round"/><path d="M 4.064 2.540 A 2.540 2.540 0 1 1 4.064 -2.540" fill="none" stroke="#4ea1ff" stroke-width="0.25"/><path d="M 8.636 -2.540 A 2.540 2.540 0 1 1 8.636 2.540" fill="none" stroke="#4ea1ff" stroke-width="0.25"/><line x1="0.000" y1="-0.000" x2="1.524" y2="-0.000" stroke="#e6e9ef" stroke-width="0.2"/><circle cx="0.000" cy="-0.000" r="0.4" fill="#4ea1ff"/><line x1="5.080" y1="-5.080" x2="5.080" y2="-2.540" stroke="#e6e9ef" stroke-width="0.2"/><circle cx="5.080" cy="-5.080" r="0.4" fill="#4ea1ff"/><line x1="5.080" y1="5.080" x2="5.080" y2="2.540" stroke="#e6e9ef" stroke-width="0.2"/><circle cx="5.080" cy="5.080" r="0.4" fill="#4ea1ff"/><line x1="7.620" y1="-5.080" x2="7.620" y2="-2.540" stroke="#e6e9ef" stroke-width="0.2"/><circle cx="7.620" cy="-5.080" r="0.4" fill="#4ea1ff"/><line x1="7.620" y1="5.080" x2="7.620" y2="2.540" stroke="#e6e9ef" stroke-width="0.2"/><circle cx="7.620" cy="5.080" r="0.4" fill="#4ea1ff"/><line x1="12.700" y1="-0.000" x2="11.176" y2="-0.000" stroke="#e6e9ef" stroke-width="0.2"/><circle cx="12.700" cy="-0.000" r="0.4" fill="#4ea1ff"/></svg>