<svg xmlns="http://www.w3.org/2000/svg" viewBox="-4.99 -4.99 9.98 9.98" preserveAspectRatio="xMidYMid meet" style="width:100%;height:100%"><rect x="-4.99" y="-4.99" width="9.98" height="9.98" fill="#12151c"/><line x1="-3.990" y1="-3.990" x2="3.990" y2="-3.990" stroke="#d24d4d" stroke-width="0.080" stroke-linecap="round" opacity="0.7"/><line x1="3.990" y1="-3.990" x2="3.990" y2="3.990" stroke="#d24d4d" stroke-width="0.080" stroke-linecap="round" opacity="0.7"/><line x1="3.990" y1="3.990" x2="-3.990" y2="3.990" stroke="#d24d4d" stroke-width="0.080" stroke-linecap="round" opacity="0.7"/><line x1="-3.990" y1="3.990" x2="-3.990" y2="-3.990" stroke="#d24d4d" stroke-width="0.080" stroke-linecap="round" opacity="0.7"/><path d="M -2.768 0.700 A 2.855 2.855 0 0 1 -2.768 -0.700" fill="none" stroke="#e6e9ef" stroke-width="0.12" opacity="1"/><path d="M -2.739 3.250 A 4.250 4.250 0 0 1 -3.250 2.739" fill="none" stroke="#e6e9ef" stroke-width="0.12" opacity="1"/><path d="M -1.023 -2.032 A 2.275 2.275 0 0 1 1.023 -2.032" fill="none" stroke="#e6e9ef" stroke-width="0.12" opacity="1"/><path d="M 1.023 2.032 A 2.275 2.275 0 0 1 -2.032 -1.023" fill="none" stroke="#e6e9ef" stroke-width="0.12" opacity="1"/><path d="M 2.032 -1.023 A 2.275 2.275 0 0 1 2.032 1.023" fill="none" stroke="#e6e9ef" stroke-width="0.12" opacity="1"/><path d="M 2.768 -0.700 A 2.855 2.855 0 0 1 2.768 0.700" fill="none" stroke="#e6e9ef" stroke-width="0.12" opacity="1"/><path d="M -3.250 -2.739 A 4.250 4.250 0 0 1 -2.739 -3.250" fill="none" stroke="#6b7280" stroke-width="0.12" opacity="0.8"/><path d="M -2.768 0.700 A 2.855 2.855 0 0 1 -2.768 -0.700" fill="none" stroke="#6b7280" stroke-width="0.12" opacity="0.8"/><path d="M -2.739 3.250 A 4.250 4.250 0 0 1 -3.250 2.739" fill="none" stroke="#6b7280" stroke-width="0.12" opacity="0.8"/><path d="M 2.739 -3.250 A 4.250 4.250 0 0 1 3.250 -2.739" fill="none" stroke="#6b7280" stroke-width="0.12" opacity="0.8"/><path d="M 2.768 -0.700 A 2.855 2.855 0 0 1 2.768 0.700" fill="none" stroke="#6b7280" stroke-width="0.12" opacity="0.8"/><path d="M 3.250 2.739 A 4.250 4.250 0 0 1 2.739 3.250" fill="none" stroke="#6b7280" stroke-width="0.12" opacity="0.8"/><circle cx="0.000" cy="0.000" r="1.977" fill="none" stroke="#e6e9ef" stroke-width="0.12" opacity="1"/><circle cx="0.000" cy="0.000" r="2.275" fill="none" stroke="#6b7280" stroke-width="0.12" opacity="0.8"/><circle cx="0.000" cy="0.000" r="1.977" fill="none" stroke="#6b7280" stroke-width="0.12" opacity="0.8"/><circle cx="0.000" cy="0.000" r="0.850" fill="none" stroke="#6b7280" stroke-width="0.12" opacity="0.8"/><circle cx="0.000" cy="0.000" r="0.650" fill="none" stroke="#6b7280" stroke-width="0.12" opacity="0.8"/><circle cx="0.000" cy="0.000" r="0.215" fill="none" stroke="#6b7280" stroke-width="0.12" opacity="0.8"/><rect x="-0.750" y="-0.750" width="1.500" height="1.500" rx="0.750" fill="#c79b5c"/><circle cx="0.000" cy="0.000" r="0.400" fill="#12151c"/><rect x="-3.740" y="-3.740" width="2.400" height="2.400" rx="1.200" fill="#c79b5c"/><circle cx="-2.540" cy="-2.540" r="0.850" fill="#12151c"/><rect x="1.340" y="-3.740" width="2.400" height="2.400" rx="1.200" fill="#c79b5c"/><circle cx="2.540" cy="-2.540" r="0.850" fill="#12151c"/><rect x="1.340" y="1.340" width="2.400" height="2.400" rx="1.200" fill="#c79b5c"/><circle cx="2.540" cy="2.540" r="0.850" fill="#12151c"/></svg>