<svg xmlns="http://www.w3.org/2000/svg" viewBox="-16.90 -11.15 33.80 23.00" preserveAspectRatio="xMidYMid meet" style="width:100%;height:100%"><rect x="-16.90" y="-11.15" width="33.80" height="23.00" fill="#12151c"/><path d="M -15.900 -8.150 A 2.000 2.000 0 0 1 -13.900 -10.150" fill="none" stroke="#e6e9ef" stroke-width="0.12" opacity="1"/><path d="M -13.900 10.150 A 2.000 2.000 0 0 1 -15.900 8.150" fill="none" stroke="#e6e9ef" stroke-width="0.12" opacity="1"/><path d="M 13.900 -10.150 A 2.000 2.000 0 0 1 15.900 -8.150" fill="none" stroke="#e6e9ef" stroke-width="0.12" opacity="1"/><path d="M 15.900 8.150 A 2.000 2.000 0 0 1 13.900 10.150" fill="none" stroke="#e6e9ef" stroke-width="0.12" opacity="1"/><path d="M -15.900 -8.150 A 2.000 2.000 0 0 1 -13.900 -10.150" fill="none" stroke="#6b7280" stroke-width="0.12" opacity="0.8"/><path d="M -13.900 10.150 A 2.000 2.000 0 0 1 -15.900 8.150" fill="none" stroke="#6b7280" stroke-width="0.12" opacity="0.8"/><path d="M 13.900 -10.150 A 2.000 2.000 0 0 1 15.900 -8.150" fill="none" stroke="#6b7280" stroke-width="0.12" opacity="0.8"/><path d="M 15.900 8.150 A 2.000 2.000 0 0 1 13.900 10.150" fill="none" stroke="#6b7280" stroke-width="0.12" opacity="0.8"/><circle cx="-14.000" cy="10.700" r="0.150" fill="none" stroke="#e6e9ef" stroke-width="0.12" opacity="1"/><rect x="-14.720" y="6.870" width="1.500" height="1.500" rx="0.750" fill="#c79b5c"/><circle cx="-13.970" cy="7.620" r="0.400" fill="#12151c"/><rect x="-12.180" y="6.870" width="1.500" height="1.500" rx="0.750" fill="#c79b5c"/><circle cx="-11.430" cy="7.620" r="0.400" fill="#12151c"/><rect x="-9.640" y="6.870" width="1.500" height="1.500" rx="0.750" fill="#c79b5c"/><circle cx="-8.890" cy="7.620" r="0.400" fill="#12151c"/><rect x="8.140" y="6.870" width="1.500" height="1.500" rx="0.750" fill="#c79b5c"/><circle cx="8.890" cy="7.620" r="0.400" fill="#12151c"/><rect x="10.680" y="6.870" width="1.500" height="1.500" rx="0.750" fill="#c79b5c"/><circle cx="11.430" cy="7.620" r="0.400" fill="#12151c"/><rect x="13.220" y="6.870" width="1.500" height="1.500" rx="0.750" fill="#c79b5c"/><circle cx="13.970" cy="7.620" r="0.400" fill="#12151c"/><rect x="13.220" y="-8.370" width="1.500" height="1.500" rx="0.750" fill="#c79b5c"/><circle cx="13.970" cy="-7.620" r="0.400" fill="#12151c"/><rect x="10.680" y="-8.370" width="1.500" height="1.500" rx="0.750" fill="#c79b5c"/><circle cx="11.430" cy="-7.620" r="0.400" fill="#12151c"/><rect x="8.140" y="-8.370" width="1.500" height="1.500" rx="0.750" fill="#c79b5c"/><circle cx="8.890" cy="-7.620" r="0.400" fill="#12151c"/><rect x="-9.640" y="-8.370" width="1.500" height="1.500" rx="0.750" fill="#c79b5c"/><circle cx="-8.890" cy="-7.620" r="0.400" fill="#12151c"/><rect x="-12.180" y="-8.370" width="1.500" height="1.500" rx="0.750" fill="#c79b5c"/><circle cx="-11.430" cy="-7.620" r="0.400" fill="#12151c"/><rect x="-14.720" y="-8.370" width="1.500" height="1.500" rx="0.750" fill="#c79b5c"/><circle cx="-13.970" cy="-7.620" r="0.400" fill="#12151c"/></svg>