<svg xmlns="http://www.w3.org/2000/svg" viewBox="-1.50 -1.50 18.24 23.32" preserveAspectRatio="xMidYMid meet" style="width:100%;height:100%"><rect x="-1.50" y="-1.50" width="18.24" height="23.32" fill="#12151c"/><rect x="1.778" y="2.413" width="0.254" height="5.334" fill="#1e222b" stroke="#4ea1ff" stroke-width="0.25"/><rect x="0.000" y="-0.000" width="10.160" height="20.320" fill="#1e222b" stroke="#4ea1ff" stroke-width="0.25"/><polyline points="0.762,8.890 1.270,8.890" fill="none" stroke="#4ea1ff" stroke-width="0.25" stroke-linejoin="round"/><polyline points="1.270,8.255 2.540,9.525" fill="none" stroke="#4ea1ff" stroke-width="0.25" stroke-linejoin="round"/><polyline points="1.270,8.255 2.540,8.255 1.270,9.525 1.270,8.255" fill="#1e222b" stroke="#4ea1ff" stroke-width="0.25" stroke-linejoin="round"/><polyline points="1.905,9.525 1.905,12.700 3.175,12.700" fill="none" stroke="#4ea1ff" stroke-width="0.25" stroke-linejoin="round"/><polyline points="2.540,8.255 2.540,9.525 1.270,9.525" fill="none" stroke="#4ea1ff" stroke-width="0.25" stroke-linejoin="round"/><polyline points="2.540,8.890 3.048,8.890" fill="none" stroke="#4ea1ff" stroke-width="0.25" stroke-linejoin="round"/><polyline points="3.175,2.540 5.080,2.540" fill="none" stroke="#4ea1ff" stroke-width="0.25" stroke-linejoin="round"/><polyline points="4.445,12.065 4.445,10.160 5.080,10.160" fill="none" stroke="#4ea1ff" stroke-width="0.25" stroke-linejoin="round"/><polyline points="4.445,13.335 4.445,15.240 5.080,15.240" fill="none" stroke="#4ea1ff" stroke-width="0.25" stroke-linejoin="round"/><polyline points="5.715,12.700 3.175,11.430 3.175,13.970 5.715,12.700" fill="#1e222b" stroke="#4ea1ff" stroke-width="0.25" stroke-linejoin="round"/><polyline points="5.715,12.700 6.350,12.700 6.350,7.620 3.175,7.620" fill="none" stroke="#4ea1ff" stroke-width="0.25" stroke-linejoin="round"/><path d="M 3.175 3.810 A 0.635 0.635 0 1 1 3.175 2.540" fill="none" stroke="#4ea1ff" stroke-width="0.25"/><path d="M 3.175 5.080 A 0.635 0.635 0 0 1 3.175 3.810" fill="none" stroke="#4ea1ff" stroke-width="0.25"/><path d="M 3.175 6.350 A 0.635 0.635 0 0 1 3.175 5.080" fill="none" stroke="#4ea1ff" stroke-width="0.25"/><path d="M 3.175 7.620 A 0.635 0.635 0 0 1 3.175 6.350" fill="none" stroke="#4ea1ff" stroke-width="0.25"/><line x1="15.240" y1="2.540" x2="10.160" y2="2.540" stroke="#e6e9ef" stroke-width="0.2"/><circle cx="15.240" cy="2.540" r="0.4" fill="#4ea1ff"/><text x="9.660" y="2.890" fill="#e6e9ef" font-size="1.1" text-anchor="end" font-family="sans-serif">M</text><text x="10.460" y="2.190" fill="#9aa3b2" font-size="0.9" text-anchor="start" font-family="sans-serif">2</text><line x1="15.240" y1="10.160" x2="10.160" y2="10.160" stroke="#e6e9ef" stroke-width="0.2"/><circle cx="15.240" cy="10.160" r="0.4" fill="#4ea1ff"/><text x="9.660" y="10.510" fill="#e6e9ef" font-size="1.1" text-anchor="end" font-family="sans-serif">+</text><text x="10.460" y="9.810" fill="#9aa3b2" font-size="0.9" text-anchor="start" font-family="sans-serif">3</text><line x1="15.240" y1="15.240" x2="10.160" y2="15.240" stroke="#e6e9ef" stroke-width="0.2"/><circle cx="15.240" cy="15.240" r="0.4" fill="#4ea1ff"/><text x="9.660" y="15.590" fill="#e6e9ef" font-size="1.1" text-anchor="end" font-family="sans-serif">-</text><text x="10.460" y="14.890" fill="#9aa3b2" font-size="0.9" text-anchor="start" font-family="sans-serif">1</text><line x1="15.240" y1="17.780" x2="10.160" y2="17.780" stroke="#e6e9ef" stroke-width="0.2"/><circle cx="15.240" cy="17.780" r="0.4" fill="#4ea1ff"/><text x="9.660" y="18.130" fill="#e6e9ef" font-size="1.1" text-anchor="end" font-family="sans-serif">NC</text><text x="10.460" y="17.430" fill="#9aa3b2" font-size="0.9" text-anchor="start" font-family="sans-serif">4</text></svg>