<svg xmlns="http://www.w3.org/2000/svg" viewBox="-17.76 -3.79 35.52 8.07" preserveAspectRatio="xMidYMid meet" style="width:100%;height:100%"><rect x="-17.76" y="-3.79" width="35.52" height="8.07" fill="#12151c"/><line x1="-16.510" y1="-2.540" x2="16.510" y2="-2.540" stroke="#e6e9ef" stroke-width="0.200" stroke-linecap="round" opacity="1"/><line x1="-16.510" y1="2.540" x2="-16.510" y2="-2.540" stroke="#e6e9ef" stroke-width="0.200" stroke-linecap="round" opacity="1"/><line x1="-16.510" y1="2.540" x2="16.510" y2="2.540" stroke="#e6e9ef" stroke-width="0.200" stroke-linecap="round" opacity="1"/><line x1="16.510" y1="2.540" x2="16.510" y2="-2.540" stroke="#e6e9ef" stroke-width="0.200" stroke-linecap="round" opacity="1"/><line x1="-0.500" y1="0.000" x2="0.000" y2="0.000" stroke="#4a5160" stroke-width="0.100" stroke-linecap="round" opacity="0.7"/><line x1="0.000" y1="0.000" x2="0.000" y2="-0.500" stroke="#4a5160" stroke-width="0.100" stroke-linecap="round" opacity="0.7"/><line x1="0.000" y1="0.000" x2="0.500" y2="0.000" stroke="#4a5160" stroke-width="0.100" stroke-linecap="round" opacity="0.7"/><line x1="0.000" y1="0.500" x2="0.000" y2="0.000" stroke="#4a5160" stroke-width="0.100" stroke-linecap="round" opacity="0.7"/><line x1="-16.510" y1="-2.540" x2="16.510" y2="-2.540" stroke="#6b7280" stroke-width="0.100" stroke-linecap="round" opacity="0.8"/><line x1="-16.510" y1="2.540" x2="-16.510" y2="-2.540" stroke="#6b7280" stroke-width="0.100" stroke-linecap="round" opacity="0.8"/><line x1="-16.510" y1="2.540" x2="16.510" y2="2.540" stroke="#6b7280" stroke-width="0.100" stroke-linecap="round" opacity="0.8"/><line x1="-15.557" y1="-1.587" x2="-14.922" y2="-1.587" stroke="#6b7280" stroke-width="0.100" stroke-linecap="round" opacity="0.8"/><line x1="-15.557" y1="-0.953" x2="-15.557" y2="-1.587" stroke="#6b7280" stroke-width="0.100" stroke-linecap="round" opacity="0.8"/><line x1="-15.557" y1="-0.953" x2="-14.922" y2="-0.953" stroke="#6b7280" stroke-width="0.100" stroke-linecap="round" opacity="0.8"/><line x1="-15.557" y1="0.953" x2="-14.922" y2="0.953" stroke="#6b7280" stroke-width="0.100" stroke-linecap="round" opacity="0.8"/><line x1="-15.557" y1="1.587" x2="-15.557" y2="0.953" stroke="#6b7280" stroke-width="0.100" stroke-linecap="round" opacity="0.8"/><line x1="-15.557" y1="1.587" x2="-14.922" y2="1.587" stroke="#6b7280" stroke-width="0.100" stroke-linecap="round" opacity="0.8"/><line x1="-14.922" y1="-0.953" x2="-14.922" y2="-1.587" stroke="#6b7280" stroke-width="0.100" stroke-linecap="round" opacity="0.8"/><line x1="-14.922" y1="1.587" x2="-14.922" y2="0.953" stroke="#6b7280" stroke-width="0.100" stroke-linecap="round" opacity="0.8"/><line x1="-13.018" y1="-1.587" x2="-12.383" y2="-1.587" stroke="#6b7280" stroke-width="0.100" stroke-linecap="round" opacity="0.8"/><line x1="-13.018" y1="-0.953" x2="-13.018" y2="-1.587" stroke="#6b7280" stroke-width="0.100" stroke-linecap="round" opacity="0.8"/><line x1="-13.018" y1="-0.953" x2="-12.383" y2="-0.953" stroke="#6b7280" stroke-width="0.100" stroke-linecap="round" opacity="0.8"/><line x1="-13.018" y1="0.953" x2="-12.383" y2="0.953" stroke="#6b7280" stroke-width="0.100" stroke-linecap="round" opacity="0.8"/><line x1="-13.018" y1="1.587" x2="-13.018" y2="0.953" stroke="#6b7280" stroke-width="0.100" stroke-linecap="round" opacity="0.8"/><line x1="-13.018" y1="1.587" x2="-12.383" y2="1.587" stroke="#6b7280" stroke-width="0.100" stroke-linecap="round" opacity="0.8"/><line x1="-12.383" y1="-0.953" x2="-12.383" y2="-1.587" stroke="#6b7280" stroke-width="0.100" stroke-linecap="round" opacity="0.8"/><line x1="-12.383" y1="1.587" x2="-12.383" y2="0.953" stroke="#6b7280" stroke-width="0.100" stroke-linecap="round" opacity="0.8"/><line x1="-10.477" y1="-1.587" x2="-9.842" y2="-1.587" stroke="#6b7280" stroke-width="0.100" stroke-linecap="round" opacity="0.8"/><line x1="-10.477" y1="-0.953" x2="-10.477" y2="-1.587" stroke="#6b7280" stroke-width="0.100" stroke-linecap="round" opacity="0.8"/><line x1="-10.477" y1="-0.953" x2="-9.842" y2="-0.953" stroke="#6b7280" stroke-width="0.100" stroke-linecap="round" opacity="0.8"/><line x1="-10.477" y1="0.953" x2="-9.842" y2="0.953" stroke="#6b7280" stroke-width="0.100" stroke-linecap="round" opacity="0.8"/><line x1="-10.477" y1="1.587" x2="-10.477" y2="0.953" stroke="#6b7280" stroke-width="0.100" stroke-linecap="round" opacity="0.8"/><line x1="-10.477" y1="1.587" x2="-9.842" y2="1.587" stroke="#6b7280" stroke-width="0.100" stroke-linecap="round" opacity="0.8"/><line x1="-9.842" y1="-0.953" x2="-9.842" y2="-1.587" stroke="#6b7280" stroke-width="0.100" stroke-linecap="round" opacity="0.8"/><line x1="-9.842" y1="1.587" x2="-9.842" y2="0.953" stroke="#6b7280" stroke-width="0.100" stroke-linecap="round" opacity="0.8"/><line x1="-7.938" y1="-1.587" x2="-7.303" y2="-1.587" stroke="#6b7280" stroke-width="0.100" stroke-linecap="round" opacity="0.8"/><line x1="-7.938" y1="-0.953" x2="-7.938" y2="-1.587" stroke="#6b7280" stroke-width="0.100" stroke-linecap="round" opacity="0.8"/><line x1="-7.938" y1="-0.953" x2="-7.303" y2="-0.953" stroke="#6b7280" stroke-width="0.100" stroke-linecap="round" opacity="0.8"/><line x1="-7.938" y1="0.953" x2="-7.303" y2="0.953" stroke="#6b7280" stroke-width="0.100" stroke-linecap="round" opacity="0.8"/><line x1="-7.938" y1="1.587" x2="-7.938" y2="0.953" stroke="#6b7280" stroke-width="0.100" stroke-linecap="round" opacity="0.8"/><line x1="-7.938" y1="1.587" x2="-7.303" y2="1.587" stroke="#6b7280" stroke-width="0.100" stroke-linecap="round" opacity="0.8"/><line x1="-7.303" y1="-0.953" x2="-7.303" y2="-1.587" stroke="#6b7280" stroke-width="0.100" stroke-linecap="round" opacity="0.8"/><line x1="-7.303" y1="1.587" x2="-7.303" y2="0.953" stroke="#6b7280" stroke-width="0.100" stroke-linecap="round" opacity="0.8"/><line x1="-5.397" y1="-1.587" x2="-4.763" y2="-1.587" stroke="#6b7280" stroke-width="0.100" stroke-linecap="round" opacity="0.8"/><line x1="-5.397" y1="-0.953" x2="-5.397" y2="-1.587" stroke="#6b7280" stroke-width="0.100" stroke-linecap="round" opacity="0.8"/><line x1="-5.397" y1="-0.953" x2="-4.763" y2="-0.953" stroke="#6b7280" stroke-width="0.100" stroke-linecap="round" opacity="0.8"/><line x1="-5.397" y1="0.953" x2="-4.763" y2="0.953" stroke="#6b7280" stroke-width="0.100" stroke-linecap="round" opacity="0.8"/><line x1="-5.397" y1="1.587" x2="-5.397" y2="0.953" stroke="#6b7280" stroke-width="0.100" stroke-linecap="round" opacity="0.8"/><line x1="-5.397" y1="1.587" x2="-4.763" y2="1.587" stroke="#6b7280" stroke-width="0.100" stroke-linecap="round" opacity="0.8"/><line x1="-4.763" y1="-0.953" x2="-4.763" y2="-1.587" stroke="#6b7280" stroke-width="0.100" stroke-linecap="round" opacity="0.8"/><line x1="-4.763" y1="1.587" x2="-4.763" y2="0.953" stroke="#6b7280" stroke-width="0.100" stroke-linecap="round" opacity="0.8"/><line x1="-2.857" y1="-1.587" x2="-2.223" y2="-1.587" stroke="#6b7280" stroke-width="0.100" stroke-linecap="round" opacity="0.8"/><line x1="-2.857" y1="-0.953" x2="-2.857" y2="-1.587" stroke="#6b7280" stroke-width="0.100" stroke-linecap="round" opacity="0.8"/><line x1="-2.857" y1="-0.953" x2="-2.223" y2="-0.953" stroke="#6b7280" stroke-width="0.100" stroke-linecap="round" opacity="0.8"/><line x1="-2.857" y1="0.953" x2="-2.223" y2="0.953" stroke="#6b7280" stroke-width="0.100" stroke-linecap="round" opacity="0.8"/><line x1="-2.857" y1="1.587" x2="-2.857" y2="0.953" stroke="#6b7280" stroke-width="0.100" stroke-linecap="round" opacity="0.8"/><line x1="-2.857" y1="1.587" x2="-2.223" y2="1.587" stroke="#6b7280" stroke-width="0.100" stroke-linecap="round" opacity="0.8"/><line x1="-2.223" y1="-0.953" x2="-2.223" y2="-1.587" stroke="#6b7280" stroke-width="0.100" stroke-linecap="round" opacity="0.8"/><line x1="-2.223" y1="1.587" x2="-2.223" y2="0.953" stroke="#6b7280" stroke-width="0.100" stroke-linecap="round" opacity="0.8"/><line x1="-0.318" y1="-1.587" x2="0.318" y2="-1.587" stroke="#6b7280" stroke-width="0.100" stroke-linecap="round" opacity="0.8"/><line x1="-0.318" y1="-0.953" x2="-0.318" y2="-1.587" stroke="#6b7280" stroke-width="0.100" stroke-linecap="round" opacity="0.8"/><line x1="-0.318" y1="-0.953" x2="0.318" y2="-0.953" stroke="#6b7280" stroke-width="0.100" stroke-linecap="round" opacity="0.8"/><line x1="-0.318" y1="0.953" x2="0.318" y2="0.953" stroke="#6b7280" stroke-width="0.100" stroke-linecap="round" opacity="0.8"/><line x1="-0.318" y1="1.587" x2="-0.318" y2="0.953" stroke="#6b7280" stroke-width="0.100" stroke-linecap="round" opacity="0.8"/><line x1="-0.318" y1="1.587" x2="0.318" y2="1.587" stroke="#6b7280" stroke-width="0.100" stroke-linecap="round" opacity="0.8"/><line x1="0.318" y1="-0.953" x2="0.318" y2="-1.587" stroke="#6b7280" stroke-width="0.100" stroke-linecap="round" opacity="0.8"/><line x1="0.318" y1="1.587" x2="0.318" y2="0.953" stroke="#6b7280" stroke-width="0.100" stroke-linecap="round" opacity="0.8"/><line x1="2.223" y1="-1.587" x2="2.857" y2="-1.587" stroke="#6b7280" stroke-width="0.100" stroke-linecap="round" opacity="0.8"/><line x1="2.223" y1="-0.953" x2="2.223" y2="-1.587" stroke="#6b7280" stroke-width="0.100" stroke-linecap="round" opacity="0.8"/><line x1="2.223" y1="-0.953" x2="2.857" y2="-0.953" stroke="#6b7280" stroke-width="0.100" stroke-linecap="round" opacity="0.8"/><line x1="2.223" y1="0.953" x2="2.857" y2="0.953" stroke="#6b7280" stroke-width="0.100" stroke-linecap="round" opacity="0.8"/><line x1="2.223" y1="1.587" x2="2.223" y2="0.953" stroke="#6b7280" stroke-width="0.100" stroke-linecap="round" opacity="0.8"/><line x1="2.223" y1="1.587" x2="2.857" y2="1.587" stroke="#6b7280" stroke-width="0.100" stroke-linecap="round" opacity="0.8"/><line x1="2.857" y1="-0.953" x2="2.857" y2="-1.587" stroke="#6b7280" stroke-width="0.100" stroke-linecap="round" opacity="0.8"/><line x1="2.857" y1="1.587" x2="2.857" y2="0.953" stroke="#6b7280" stroke-width="0.100" stroke-linecap="round" opacity="0.8"/><line x1="4.763" y1="-1.587" x2="5.397" y2="-1.587" stroke="#6b7280" stroke-width="0.100" stroke-linecap="round" opacity="0.8"/><line x1="4.763" y1="-0.953" x2="4.763" y2="-1.587" stroke="#6b7280" stroke-width="0.100" stroke-linecap="round" opacity="0.8"/><line x1="4.763" y1="-0.953" x2="5.397" y2="-0.953" stroke="#6b7280" stroke-width="0.100" stroke-linecap="round" opacity="0.8"/><line x1="4.763" y1="0.953" x2="5.397" y2="0.953" stroke="#6b7280" stroke-width="0.100" stroke-linecap="round" opacity="0.8"/><line x1="4.763" y1="1.587" x2="4.763" y2="0.953" stroke="#6b7280" stroke-width="0.100" stroke-linecap="round" opacity="0.8"/><line x1="4.763" y1="1.587" x2="5.397" y2="1.587" stroke="#6b7280" stroke-width="0.100" stroke-linecap="round" opacity="0.8"/><line x1="5.397" y1="-0.953" x2="5.397" y2="-1.587" stroke="#6b7280" stroke-width="0.100" stroke-linecap="round" opacity="0.8"/><line x1="5.397" y1="1.587" x2="5.397" y2="0.953" stroke="#6b7280" stroke-width="0.100" stroke-linecap="round" opacity="0.8"/><line x1="7.303" y1="-1.587" x2="7.938" y2="-1.587" stroke="#6b7280" stroke-width="0.100" stroke-linecap="round" opacity="0.8"/><line x1="7.303" y1="-0.953" x2="7.303" y2="-1.587" stroke="#6b7280" stroke-width="0.100" stroke-linecap="round" opacity="0.8"/><line x1="7.303" y1="-0.953" x2="7.938" y2="-0.953" stroke="#6b7280" stroke-width="0.100" stroke-linecap="round" opacity="0.8"/><line x1="7.303" y1="0.953" x2="7.938" y2="0.953" stroke="#6b7280" stroke-width="0.100" stroke-linecap="round" opacity="0.8"/><line x1="7.303" y1="1.587" x2="7.303" y2="0.953" stroke="#6b7280" stroke-width="0.100" stroke-linecap="round" opacity="0.8"/><line x1="7.303" y1="1.587" x2="7.938" y2="1.587" stroke="#6b7280" stroke-width="0.100" stroke-linecap="round" opacity="0.8"/><line x1="7.938" y1="-0.953" x2="7.938" y2="-1.587" stroke="#6b7280" stroke-width="0.100" stroke-linecap="round" opacity="0.8"/><line x1="7.938" y1="1.587" x2="7.938" y2="0.953" stroke="#6b7280" stroke-width="0.100" stroke-linecap="round" opacity="0.8"/><line x1="9.842" y1="-1.587" x2="10.477" y2="-1.587" stroke="#6b7280" stroke-width="0.100" stroke-linecap="round" opacity="0.8"/><line x1="9.842" y1="-0.953" x2="9.842" y2="-1.587" stroke="#6b7280" stroke-width="0.100" stroke-linecap="round" opacity="0.8"/><line x1="9.842" y1="-0.953" x2="10.477" y2="-0.953" stroke="#6b7280" stroke-width="0.100" stroke-linecap="round" opacity="0.8"/><line x1="9.842" y1="0.953" x2="10.477" y2="0.953" stroke="#6b7280" stroke-width="0.100" stroke-linecap="round" opacity="0.8"/><line x1="9.842" y1="1.587" x2="9.842" y2="0.953" stroke="#6b7280" stroke-width="0.100" stroke-linecap="round" opacity="0.8"/><line x1="9.842" y1="1.587" x2="10.477" y2="1.587" stroke="#6b7280" stroke-width="0.100" stroke-linecap="round" opacity="0.8"/><line x1="10.477" y1="-0.953" x2="10.477" y2="-1.587" stroke="#6b7280" stroke-width="0.100" stroke-linecap="round" opacity="0.8"/><line x1="10.477" y1="1.587" x2="10.477" y2="0.953" stroke="#6b7280" stroke-width="0.100" stroke-linecap="round" opacity="0.8"/><line x1="12.383" y1="-1.587" x2="13.018" y2="-1.587" stroke="#6b7280" stroke-width="0.100" stroke-linecap="round" opacity="0.8"/><line x1="12.383" y1="-0.953" x2="12.383" y2="-1.587" stroke="#6b7280" stroke-width="0.100" stroke-linecap="round" opacity="0.8"/><line x1="12.383" y1="-0.953" x2="13.018" y2="-0.953" stroke="#6b7280" stroke-width="0.100" stroke-linecap="round" opacity="0.8"/><line x1="12.383" y1="0.953" x2="13.018" y2="0.953" stroke="#6b7280" stroke-width="0.100" stroke-linecap="round" opacity="0.8"/><line x1="12.383" y1="1.587" x2="12.383" y2="0.953" stroke="#6b7280" stroke-width="0.100" stroke-linecap="round" opacity="0.8"/><line x1="12.383" y1="1.587" x2="13.018" y2="1.587" stroke="#6b7280" stroke-width="0.100" stroke-linecap="round" opacity="0.8"/><line x1="13.018" y1="-0.953" x2="13.018" y2="-1.587" stroke="#6b7280" stroke-width="0.100" stroke-linecap="round" opacity="0.8"/><line x1="13.018" y1="1.587" x2="13.018" y2="0.953" stroke="#6b7280" stroke-width="0.100" stroke-linecap="round" opacity="0.8"/><line x1="14.922" y1="-1.587" x2="15.557" y2="-1.587" stroke="#6b7280" stroke-width="0.100" stroke-linecap="round" opacity="0.8"/><line x1="14.922" y1="-0.953" x2="14.922" y2="-1.587" stroke="#6b7280" stroke-width="0.100" stroke-linecap="round" opacity="0.8"/><line x1="14.922" y1="-0.953" x2="15.557" y2="-0.953" stroke="#6b7280" stroke-width="0.100" stroke-linecap="round" opacity="0.8"/><line x1="14.922" y1="0.953" x2="15.557" y2="0.953" stroke="#6b7280" stroke-width="0.100" stroke-linecap="round" opacity="0.8"/><line x1="14.922" y1="1.587" x2="14.922" y2="0.953" stroke="#6b7280" stroke-width="0.100" stroke-linecap="round" opacity="0.8"/><line x1="14.922" y1="1.587" x2="15.557" y2="1.587" stroke="#6b7280" stroke-width="0.100" stroke-linecap="round" opacity="0.8"/><line x1="15.557" y1="-0.953" x2="15.557" y2="-1.587" stroke="#6b7280" stroke-width="0.100" stroke-linecap="round" opacity="0.8"/><line x1="15.557" y1="1.587" x2="15.557" y2="0.953" stroke="#6b7280" stroke-width="0.100" stroke-linecap="round" opacity="0.8"/><line x1="16.510" y1="2.540" x2="16.510" y2="-2.540" stroke="#6b7280" stroke-width="0.100" stroke-linecap="round" opacity="0.8"/><line x1="-16.760" y1="-2.790" x2="16.760" y2="-2.790" stroke="#d24d4d" stroke-width="0.080" stroke-linecap="round" opacity="0.7"/><line x1="16.760" y1="-2.790" x2="16.760" y2="2.790" stroke="#d24d4d" stroke-width="0.080" stroke-linecap="round" opacity="0.7"/><line x1="16.760" y1="2.790" x2="-16.760" y2="2.790" stroke="#d24d4d" stroke-width="0.080" stroke-linecap="round" opacity="0.7"/><line x1="-16.760" y1="2.790" x2="-16.760" y2="-2.790" stroke="#d24d4d" stroke-width="0.080" stroke-linecap="round" opacity="0.7"/><circle cx="-15.205" cy="3.135" r="0.150" fill="#e6e9ef" opacity="1"/><rect x="-16.090" y="0.420" width="1.700" height="1.700" rx="0.000" fill="#c79b5c"/><circle cx="-15.240" cy="1.270" r="0.500" fill="#12151c"/><rect x="-16.090" y="-2.120" width="1.700" height="1.700" rx="0.850" fill="#c79b5c"/><circle cx="-15.240" cy="-1.270" r="0.500" fill="#12151c"/><rect x="-13.550" y="0.420" width="1.700" height="1.700" rx="0.850" fill="#c79b5c"/><circle cx="-12.700" cy="1.270" r="0.500" fill="#12151c"/><rect x="-13.550" y="-2.120" width="1.700" height="1.700" rx="0.850" fill="#c79b5c"/><circle cx="-12.700" cy="-1.270" r="0.500" fill="#12151c"/><rect x="-11.010" y="0.420" width="1.700" height="1.700" rx="0.850" fill="#c79b5c"/><circle cx="-10.160" cy="1.270" r="0.500" fill="#12151c"/><rect x="-11.010" y="-2.120" width="1.700" height="1.700" rx="0.850" fill="#c79b5c"/><circle cx="-10.160" cy="-1.270" r="0.500" fill="#12151c"/><rect x="-8.470" y="0.420" width="1.700" height="1.700" rx="0.850" fill="#c79b5c"/><circle cx="-7.620" cy="1.270" r="0.500" fill="#12151c"/><rect x="-8.470" y="-2.120" width="1.700" height="1.700" rx="0.850" fill="#c79b5c"/><circle cx="-7.620" cy="-1.270" r="0.500" fill="#12151c"/><rect x="-5.930" y="0.420" width="1.700" height="1.700" rx="0.850" fill="#c79b5c"/><circle cx="-5.080" cy="1.270" r="0.500" fill="#12151c"/><rect x="-5.930" y="-2.120" width="1.700" height="1.700" rx="0.850" fill="#c79b5c"/><circle cx="-5.080" cy="-1.270" r="0.500" fill="#12151c"/><rect x="-3.390" y="0.420" width="1.700" height="1.700" rx="0.850" fill="#c79b5c"/><circle cx="-2.540" cy="1.270" r="0.500" fill="#12151c"/><rect x="-3.390" y="-2.120" width="1.700" height="1.700" rx="0.850" fill="#c79b5c"/><circle cx="-2.540" cy="-1.270" r="0.500" fill="#12151c"/><rect x="-0.850" y="0.420" width="1.700" height="1.700" rx="0.850" fill="#c79b5c"/><circle cx="-0.000" cy="1.270" r="0.500" fill="#12151c"/><rect x="-0.850" y="-2.120" width="1.700" height="1.700" rx="0.850" fill="#c79b5c"/><circle cx="-0.000" cy="-1.270" r="0.500" fill="#12151c"/><rect x="1.690" y="0.420" width="1.700" height="1.700" rx="0.850" fill="#c79b5c"/><circle cx="2.540" cy="1.270" r="0.500" fill="#12151c"/><rect x="1.690" y="-2.120" width="1.700" height="1.700" rx="0.850" fill="#c79b5c"/><circle cx="2.540" cy="-1.270" r="0.500" fill="#12151c"/><rect x="4.230" y="0.420" width="1.700" height="1.700" rx="0.850" fill="#c79b5c"/><circle cx="5.080" cy="1.270" r="0.500" fill="#12151c"/><rect x="4.230" y="-2.120" width="1.700" height="1.700" rx="0.850" fill="#c79b5c"/><circle cx="5.080" cy="-1.270" r="0.500" fill="#12151c"/><rect x="6.770" y="0.420" width="1.700" height="1.700" rx="0.850" fill="#c79b5c"/><circle cx="7.620" cy="1.270" r="0.500" fill="#12151c"/><rect x="6.770" y="-2.120" width="1.700" height="1.700" rx="0.850" fill="#c79b5c"/><circle cx="7.620" cy="-1.270" r="0.500" fill="#12151c"/><rect x="9.310" y="0.420" width="1.700" height="1.700" rx="0.850" fill="#c79b5c"/><circle cx="10.160" cy="1.270" r="0.500" fill="#12151c"/><rect x="9.310" y="-2.120" width="1.700" height="1.700" rx="0.850" fill="#c79b5c"/><circle cx="10.160" cy="-1.270" r="0.500" fill="#12151c"/><rect x="11.850" y="0.420" width="1.700" height="1.700" rx="0.850" fill="#c79b5c"/><circle cx="12.700" cy="1.270" r="0.500" fill="#12151c"/><rect x="11.850" y="-2.120" width="1.700" height="1.700" rx="0.850" fill="#c79b5c"/><circle cx="12.700" cy="-1.270" r="0.500" fill="#12151c"/><rect x="14.390" y="0.420" width="1.700" height="1.700" rx="0.850" fill="#c79b5c"/><circle cx="15.240" cy="1.270" r="0.500" fill="#12151c"/><rect x="14.390" y="-2.120" width="1.700" height="1.700" rx="0.850" fill="#c79b5c"/><circle cx="15.240" cy="-1.270" r="0.500" fill="#12151c"/></svg>