<svg xmlns="http://www.w3.org/2000/svg" viewBox="-6.58 -1.50 58.88 168.10" preserveAspectRatio="xMidYMid meet" style="width:100%;height:100%"><rect x="-6.58" y="-1.50" width="58.88" height="168.10" fill="#12151c"/><rect x="0.000" y="-0.000" width="45.720" height="165.100" fill="#1e222b" stroke="#4ea1ff" stroke-width="0.25"/><rect x="45.212" y="148.717" width="0.508" height="2.286" fill="#1e222b" stroke="#4ea1ff" stroke-width="0.25"/><line x1="-5.080" y1="2.540" x2="0.000" y2="2.540" stroke="#e6e9ef" stroke-width="0.2"/><circle cx="-5.080" cy="2.540" r="0.4" fill="#4ea1ff"/><text x="0.500" y="2.890" fill="#e6e9ef" font-size="1.1" text-anchor="start" font-family="sans-serif">S_A1</text><text x="-0.300" y="2.190" fill="#9aa3b2" font-size="0.9" text-anchor="end" font-family="sans-serif">52</text><line x1="-5.080" y1="5.080" x2="0.000" y2="5.080" stroke="#e6e9ef" stroke-width="0.2"/><circle cx="-5.080" cy="5.080" r="0.4" fill="#4ea1ff"/><text x="0.500" y="5.430" fill="#e6e9ef" font-size="1.1" text-anchor="start" font-family="sans-serif">S_A0</text><text x="-0.300" y="4.730" fill="#9aa3b2" font-size="0.9" text-anchor="end" font-family="sans-serif">51</text><line x1="-5.080" y1="7.620" x2="0.000" y2="7.620" stroke="#e6e9ef" stroke-width="0.2"/><circle cx="-5.080" cy="7.620" r="0.4" fill="#4ea1ff"/><text x="0.500" y="7.970" fill="#e6e9ef" font-size="1.1" text-anchor="start" font-family="sans-serif">SDATA</text><text x="-0.300" y="7.270" fill="#9aa3b2" font-size="0.9" text-anchor="end" font-family="sans-serif">26</text><line x1="-5.080" y1="10.160" x2="0.000" y2="10.160" stroke="#e6e9ef" stroke-width="0.2"/><circle cx="-5.080" cy="10.160" r="0.4" fill="#4ea1ff"/><text x="0.500" y="10.510" fill="#e6e9ef" font-size="1.1" text-anchor="start" font-family="sans-serif">SCLK</text><text x="-0.300" y="9.810" fill="#9aa3b2" font-size="0.9" text-anchor="end" font-family="sans-serif">25</text><line x1="-5.080" y1="12.700" x2="0.000" y2="12.700" stroke="#e6e9ef" stroke-width="0.2"/><circle cx="-5.080" cy="12.700" r="0.4" fill="#4ea1ff"/><text x="0.500" y="13.050" fill="#e6e9ef" font-size="1.1" text-anchor="start" font-family="sans-serif">~{MR}</text><text x="-0.300" y="12.350" fill="#9aa3b2" font-size="0.9" text-anchor="end" font-family="sans-serif">22</text><line x1="-5.080" y1="17.780" x2="0.000" y2="17.780" stroke="#e6e9ef" stroke-width="0.2"/><circle cx="-5.080" cy="17.780" r="0.4" fill="#4ea1ff"/><text x="0.500" y="18.130" fill="#e6e9ef" font-size="1.1" text-anchor="start" font-family="sans-serif">CLK0</text><text x="-0.300" y="17.430" fill="#9aa3b2" font-size="0.9" text-anchor="end" font-family="sans-serif">6</text><line x1="-5.080" y1="20.320" x2="0.000" y2="20.320" stroke="#e6e9ef" stroke-width="0.2"/><circle cx="-5.080" cy="20.320" r="0.4" fill="#4ea1ff"/><text x="0.500" y="20.670" fill="#e6e9ef" font-size="1.1" text-anchor="start" font-family="sans-serif">~{CLK0}</text><text x="-0.300" y="19.970" fill="#9aa3b2" font-size="0.9" text-anchor="end" font-family="sans-serif">7</text><line x1="-5.080" y1="25.400" x2="0.000" y2="25.400" stroke="#e6e9ef" stroke-width="0.2"/><circle cx="-5.080" cy="25.400" r="0.4" fill="#4ea1ff"/><text x="0.500" y="25.750" fill="#e6e9ef" font-size="1.1" text-anchor="start" font-family="sans-serif">CLK1</text><text x="-0.300" y="25.050" fill="#9aa3b2" font-size="0.9" text-anchor="end" font-family="sans-serif">10</text><line x1="-5.080" y1="27.940" x2="0.000" y2="27.940" stroke="#e6e9ef" stroke-width="0.2"/><circle cx="-5.080" cy="27.940" r="0.4" fill="#4ea1ff"/><text x="0.500" y="28.290" fill="#e6e9ef" font-size="1.1" text-anchor="start" font-family="sans-serif">~{CLK1}</text><text x="-0.300" y="27.590" fill="#9aa3b2" font-size="0.9" text-anchor="end" font-family="sans-serif">11</text><line x1="-5.080" y1="33.020" x2="0.000" y2="33.020" stroke="#e6e9ef" stroke-width="0.2"/><circle cx="-5.080" cy="33.020" r="0.4" fill="#4ea1ff"/><text x="0.500" y="33.370" fill="#e6e9ef" font-size="1.1" text-anchor="start" font-family="sans-serif">CLK2</text><text x="-0.300" y="32.670" fill="#9aa3b2" font-size="0.9" text-anchor="end" font-family="sans-serif">15</text><line x1="-5.080" y1="35.560" x2="0.000" y2="35.560" stroke="#e6e9ef" stroke-width="0.2"/><circle cx="-5.080" cy="35.560" r="0.4" fill="#4ea1ff"/><text x="0.500" y="35.910" fill="#e6e9ef" font-size="1.1" text-anchor="start" font-family="sans-serif">~{CLK2}</text><text x="-0.300" y="35.210" fill="#9aa3b2" font-size="0.9" text-anchor="end" font-family="sans-serif">16</text><line x1="-5.080" y1="40.640" x2="0.000" y2="40.640" stroke="#e6e9ef" stroke-width="0.2"/><circle cx="-5.080" cy="40.640" r="0.4" fill="#4ea1ff"/><text x="0.500" y="40.990" fill="#e6e9ef" font-size="1.1" text-anchor="start" font-family="sans-serif">CLK3</text><text x="-0.300" y="40.290" fill="#9aa3b2" font-size="0.9" text-anchor="end" font-family="sans-serif">19</text><line x1="-5.080" y1="43.180" x2="0.000" y2="43.180" stroke="#e6e9ef" stroke-width="0.2"/><circle cx="-5.080" cy="43.180" r="0.4" fill="#4ea1ff"/><text x="0.500" y="43.530" fill="#e6e9ef" font-size="1.1" text-anchor="start" font-family="sans-serif">~{CLK3}</text><text x="-0.300" y="42.830" fill="#9aa3b2" font-size="0.9" text-anchor="end" font-family="sans-serif">20</text><line x1="-5.080" y1="48.260" x2="0.000" y2="48.260" stroke="#e6e9ef" stroke-width="0.2"/><circle cx="-5.080" cy="48.260" r="0.4" fill="#4ea1ff"/><text x="0.500" y="48.610" fill="#e6e9ef" font-size="1.1" text-anchor="start" font-family="sans-serif">CLK4</text><text x="-0.300" y="47.910" fill="#9aa3b2" font-size="0.9" text-anchor="end" font-family="sans-serif">31</text><line x1="-5.080" y1="50.800" x2="0.000" y2="50.800" stroke="#e6e9ef" stroke-width="0.2"/><circle cx="-5.080" cy="50.800" r="0.4" fill="#4ea1ff"/><text x="0.500" y="51.150" fill="#e6e9ef" font-size="1.1" text-anchor="start" font-family="sans-serif">~{CLK4}</text><text x="-0.300" y="50.450" fill="#9aa3b2" font-size="0.9" text-anchor="end" font-family="sans-serif">32</text><line x1="-5.080" y1="55.880" x2="0.000" y2="55.880" stroke="#e6e9ef" stroke-width="0.2"/><circle cx="-5.080" cy="55.880" r="0.4" fill="#4ea1ff"/><text x="0.500" y="56.230" fill="#e6e9ef" font-size="1.1" text-anchor="start" font-family="sans-serif">CLK5</text><text x="-0.300" y="55.530" fill="#9aa3b2" font-size="0.9" text-anchor="end" font-family="sans-serif">35</text><line x1="-5.080" y1="58.420" x2="0.000" y2="58.420" stroke="#e6e9ef" stroke-width="0.2"/><circle cx="-5.080" cy="58.420" r="0.4" fill="#4ea1ff"/><text x="0.500" y="58.770" fill="#e6e9ef" font-size="1.1" text-anchor="start" font-family="sans-serif">~{CLK5}</text><text x="-0.300" y="58.070" fill="#9aa3b2" font-size="0.9" text-anchor="end" font-family="sans-serif">36</text><line x1="-5.080" y1="63.500" x2="0.000" y2="63.500" stroke="#e6e9ef" stroke-width="0.2"/><circle cx="-5.080" cy="63.500" r="0.4" fill="#4ea1ff"/><text x="0.500" y="63.850" fill="#e6e9ef" font-size="1.1" text-anchor="start" font-family="sans-serif">CLK6</text><text x="-0.300" y="63.150" fill="#9aa3b2" font-size="0.9" text-anchor="end" font-family="sans-serif">40</text><line x1="-5.080" y1="66.040" x2="0.000" y2="66.040" stroke="#e6e9ef" stroke-width="0.2"/><circle cx="-5.080" cy="66.040" r="0.4" fill="#4ea1ff"/><text x="0.500" y="66.390" fill="#e6e9ef" font-size="1.1" text-anchor="start" font-family="sans-serif">~{CLK6}</text><text x="-0.300" y="65.690" fill="#9aa3b2" font-size="0.9" text-anchor="end" font-family="sans-serif">41</text><line x1="-5.080" y1="71.120" x2="0.000" y2="71.120" stroke="#e6e9ef" stroke-width="0.2"/><circle cx="-5.080" cy="71.120" r="0.4" fill="#4ea1ff"/><text x="0.500" y="71.470" fill="#e6e9ef" font-size="1.1" text-anchor="start" font-family="sans-serif">CLK7</text><text x="-0.300" y="70.770" fill="#9aa3b2" font-size="0.9" text-anchor="end" font-family="sans-serif">44</text><line x1="-5.080" y1="73.660" x2="0.000" y2="73.660" stroke="#e6e9ef" stroke-width="0.2"/><circle cx="-5.080" cy="73.660" r="0.4" fill="#4ea1ff"/><text x="0.500" y="74.010" fill="#e6e9ef" font-size="1.1" text-anchor="start" font-family="sans-serif">~{CLK7}</text><text x="-0.300" y="73.310" fill="#9aa3b2" font-size="0.9" text-anchor="end" font-family="sans-serif">45</text><line x1="-5.080" y1="78.740" x2="0.000" y2="78.740" stroke="#e6e9ef" stroke-width="0.2"/><circle cx="-5.080" cy="78.740" r="0.4" fill="#4ea1ff"/><text x="0.500" y="79.090" fill="#e6e9ef" font-size="1.1" text-anchor="start" font-family="sans-serif">VDDO_CLK0</text><text x="-0.300" y="78.390" fill="#9aa3b2" font-size="0.9" text-anchor="end" font-family="sans-serif">5</text><line x1="-5.080" y1="81.280" x2="0.000" y2="81.280" stroke="#e6e9ef" stroke-width="0.2"/><circle cx="-5.080" cy="81.280" r="0.4" fill="#4ea1ff"/><text x="0.500" y="81.630" fill="#e6e9ef" font-size="1.1" text-anchor="start" font-family="sans-serif">VDDO_CLK1</text><text x="-0.300" y="80.930" fill="#9aa3b2" font-size="0.9" text-anchor="end" font-family="sans-serif">9</text><line x1="-5.080" y1="83.820" x2="0.000" y2="83.820" stroke="#e6e9ef" stroke-width="0.2"/><circle cx="-5.080" cy="83.820" r="0.4" fill="#4ea1ff"/><text x="0.500" y="84.170" fill="#e6e9ef" font-size="1.1" text-anchor="start" font-family="sans-serif">VDDO_CLK2</text><text x="-0.300" y="83.470" fill="#9aa3b2" font-size="0.9" text-anchor="end" font-family="sans-serif">14</text><line x1="-5.080" y1="86.360" x2="0.000" y2="86.360" stroke="#e6e9ef" stroke-width="0.2"/><circle cx="-5.080" cy="86.360" r="0.4" fill="#4ea1ff"/><text x="0.500" y="86.710" fill="#e6e9ef" font-size="1.1" text-anchor="start" font-family="sans-serif">VDDO_CLK3</text><text x="-0.300" y="86.010" fill="#9aa3b2" font-size="0.9" text-anchor="end" font-family="sans-serif">18</text><line x1="-5.080" y1="88.900" x2="0.000" y2="88.900" stroke="#e6e9ef" stroke-width="0.2"/><circle cx="-5.080" cy="88.900" r="0.4" fill="#4ea1ff"/><text x="0.500" y="89.250" fill="#e6e9ef" font-size="1.1" text-anchor="start" font-family="sans-serif">VDDO_CLK4</text><text x="-0.300" y="88.550" fill="#9aa3b2" font-size="0.9" text-anchor="end" font-family="sans-serif">30</text><line x1="-5.080" y1="91.440" x2="0.000" y2="91.440" stroke="#e6e9ef" stroke-width="0.2"/><circle cx="-5.080" cy="91.440" r="0.4" fill="#4ea1ff"/><text x="0.500" y="91.790" fill="#e6e9ef" font-size="1.1" text-anchor="start" font-family="sans-serif">VDDO_CLK5</text><text x="-0.300" y="91.090" fill="#9aa3b2" font-size="0.9" text-anchor="end" font-family="sans-serif">34</text><line x1="-5.080" y1="93.980" x2="0.000" y2="93.980" stroke="#e6e9ef" stroke-width="0.2"/><circle cx="-5.080" cy="93.980" r="0.4" fill="#4ea1ff"/><text x="0.500" y="94.330" fill="#e6e9ef" font-size="1.1" text-anchor="start" font-family="sans-serif">VDDO_CLK6</text><text x="-0.300" y="93.630" fill="#9aa3b2" font-size="0.9" text-anchor="end" font-family="sans-serif">39</text><line x1="-5.080" y1="96.520" x2="0.000" y2="96.520" stroke="#e6e9ef" stroke-width="0.2"/><circle cx="-5.080" cy="96.520" r="0.4" fill="#4ea1ff"/><text x="0.500" y="96.870" fill="#e6e9ef" font-size="1.1" text-anchor="start" font-family="sans-serif">VDDO_CLK7</text><text x="-0.300" y="96.170" fill="#9aa3b2" font-size="0.9" text-anchor="end" font-family="sans-serif">43</text><line x1="-5.080" y1="99.060" x2="0.000" y2="99.060" stroke="#e6e9ef" stroke-width="0.2"/><circle cx="-5.080" cy="99.060" r="0.4" fill="#4ea1ff"/><text x="0.500" y="99.410" fill="#e6e9ef" font-size="1.1" text-anchor="start" font-family="sans-serif">VDDO_CLK8</text><text x="-0.300" y="98.710" fill="#9aa3b2" font-size="0.9" text-anchor="end" font-family="sans-serif">55</text><line x1="-5.080" y1="101.600" x2="0.000" y2="101.600" stroke="#e6e9ef" stroke-width="0.2"/><circle cx="-5.080" cy="101.600" r="0.4" fill="#4ea1ff"/><text x="0.500" y="101.950" fill="#e6e9ef" font-size="1.1" text-anchor="start" font-family="sans-serif">VDDO_CLK9</text><text x="-0.300" y="101.250" fill="#9aa3b2" font-size="0.9" text-anchor="end" font-family="sans-serif">59</text><line x1="-5.080" y1="104.140" x2="0.000" y2="104.140" stroke="#e6e9ef" stroke-width="0.2"/><circle cx="-5.080" cy="104.140" r="0.4" fill="#4ea1ff"/><text x="0.500" y="104.490" fill="#e6e9ef" font-size="1.1" text-anchor="start" font-family="sans-serif">VDDO_CLK10</text><text x="-0.300" y="103.790" fill="#9aa3b2" font-size="0.9" text-anchor="end" font-family="sans-serif">64</text><line x1="-5.080" y1="106.680" x2="0.000" y2="106.680" stroke="#e6e9ef" stroke-width="0.2"/><circle cx="-5.080" cy="106.680" r="0.4" fill="#4ea1ff"/><text x="0.500" y="107.030" fill="#e6e9ef" font-size="1.1" text-anchor="start" font-family="sans-serif">VDDO_CLK11</text><text x="-0.300" y="106.330" fill="#9aa3b2" font-size="0.9" text-anchor="end" font-family="sans-serif">68</text><line x1="-5.080" y1="109.220" x2="0.000" y2="109.220" stroke="#e6e9ef" stroke-width="0.2"/><circle cx="-5.080" cy="109.220" r="0.4" fill="#4ea1ff"/><text x="0.500" y="109.570" fill="#e6e9ef" font-size="1.1" text-anchor="start" font-family="sans-serif">VDDO_CLK12</text><text x="-0.300" y="108.870" fill="#9aa3b2" font-size="0.9" text-anchor="end" font-family="sans-serif">80</text><line x1="-5.080" y1="111.760" x2="0.000" y2="111.760" stroke="#e6e9ef" stroke-width="0.2"/><circle cx="-5.080" cy="111.760" r="0.4" fill="#4ea1ff"/><text x="0.500" y="112.110" fill="#e6e9ef" font-size="1.1" text-anchor="start" font-family="sans-serif">VDDO_CLK13</text><text x="-0.300" y="111.410" fill="#9aa3b2" font-size="0.9" text-anchor="end" font-family="sans-serif">84</text><line x1="-5.080" y1="114.300" x2="0.000" y2="114.300" stroke="#e6e9ef" stroke-width="0.2"/><circle cx="-5.080" cy="114.300" r="0.4" fill="#4ea1ff"/><text x="0.500" y="114.650" fill="#e6e9ef" font-size="1.1" text-anchor="start" font-family="sans-serif">VDDO_CLK14</text><text x="-0.300" y="113.950" fill="#9aa3b2" font-size="0.9" text-anchor="end" font-family="sans-serif">89</text><line x1="-5.080" y1="116.840" x2="0.000" y2="116.840" stroke="#e6e9ef" stroke-width="0.2"/><circle cx="-5.080" cy="116.840" r="0.4" fill="#4ea1ff"/><text x="0.500" y="117.190" fill="#e6e9ef" font-size="1.1" text-anchor="start" font-family="sans-serif">VDDO_CLK15</text><text x="-0.300" y="116.490" fill="#9aa3b2" font-size="0.9" text-anchor="end" font-family="sans-serif">93</text><line x1="-5.080" y1="121.920" x2="0.000" y2="121.920" stroke="#e6e9ef" stroke-width="0.2"/><circle cx="-5.080" cy="121.920" r="0.4" fill="#4ea1ff"/><text x="0.500" y="122.270" fill="#e6e9ef" font-size="1.1" text-anchor="start" font-family="sans-serif">VDD_DIGITAL</text><text x="-0.300" y="121.570" fill="#9aa3b2" font-size="0.9" text-anchor="end" font-family="sans-serif">23</text><line x1="-5.080" y1="124.460" x2="0.000" y2="124.460" stroke="#e6e9ef" stroke-width="0.2"/><circle cx="-5.080" cy="124.460" r="0.4" fill="#4ea1ff"/><text x="0.500" y="124.810" fill="#e6e9ef" font-size="1.1" text-anchor="start" font-family="sans-serif">VDD_DIGITAL</text><text x="-0.300" y="124.110" fill="#9aa3b2" font-size="0.9" text-anchor="end" font-family="sans-serif">28</text><line x1="-5.080" y1="127.000" x2="0.000" y2="127.000" stroke="#e6e9ef" stroke-width="0.2"/><circle cx="-5.080" cy="127.000" r="0.4" fill="#4ea1ff"/><text x="0.500" y="127.350" fill="#e6e9ef" font-size="1.1" text-anchor="start" font-family="sans-serif">VDD_DIGITAL</text><text x="-0.300" y="126.650" fill="#9aa3b2" font-size="0.9" text-anchor="end" font-family="sans-serif">53</text><line x1="-5.080" y1="132.080" x2="0.000" y2="132.080" stroke="#e6e9ef" stroke-width="0.2"/><circle cx="-5.080" cy="132.080" r="0.4" fill="#4ea1ff"/><text x="0.500" y="132.430" fill="#e6e9ef" font-size="1.1" text-anchor="start" font-family="sans-serif">VDD</text><text x="-0.300" y="131.730" fill="#9aa3b2" font-size="0.9" text-anchor="end" font-family="sans-serif">1</text><line x1="-5.080" y1="134.620" x2="0.000" y2="134.620" stroke="#e6e9ef" stroke-width="0.2"/><circle cx="-5.080" cy="134.620" r="0.4" fill="#4ea1ff"/><text x="0.500" y="134.970" fill="#e6e9ef" font-size="1.1" text-anchor="start" font-family="sans-serif">VDD</text><text x="-0.300" y="134.270" fill="#9aa3b2" font-size="0.9" text-anchor="end" font-family="sans-serif">4</text><line x1="-5.080" y1="137.160" x2="0.000" y2="137.160" stroke="#e6e9ef" stroke-width="0.2"/><circle cx="-5.080" cy="137.160" r="0.4" fill="#4ea1ff"/><text x="0.500" y="137.510" fill="#e6e9ef" font-size="1.1" text-anchor="start" font-family="sans-serif">VDD</text><text x="-0.300" y="136.810" fill="#9aa3b2" font-size="0.9" text-anchor="end" font-family="sans-serif">50</text><line x1="-5.080" y1="139.700" x2="0.000" y2="139.700" stroke="#e6e9ef" stroke-width="0.2"/><circle cx="-5.080" cy="139.700" r="0.4" fill="#4ea1ff"/><text x="0.500" y="140.050" fill="#e6e9ef" font-size="1.1" text-anchor="start" font-family="sans-serif">VDD</text><text x="-0.300" y="139.350" fill="#9aa3b2" font-size="0.9" text-anchor="end" font-family="sans-serif">74</text><line x1="-5.080" y1="142.240" x2="0.000" y2="142.240" stroke="#e6e9ef" stroke-width="0.2"/><circle cx="-5.080" cy="142.240" r="0.4" fill="#4ea1ff"/><text x="0.500" y="142.590" fill="#e6e9ef" font-size="1.1" text-anchor="start" font-family="sans-serif">VDD</text><text x="-0.300" y="141.890" fill="#9aa3b2" font-size="0.9" text-anchor="end" font-family="sans-serif">75</text><line x1="-5.080" y1="144.780" x2="0.000" y2="144.780" stroke="#e6e9ef" stroke-width="0.2"/><circle cx="-5.080" cy="144.780" r="0.4" fill="#4ea1ff"/><text x="0.500" y="145.130" fill="#e6e9ef" font-size="1.1" text-anchor="start" font-family="sans-serif">VDD</text><text x="-0.300" y="144.430" fill="#9aa3b2" font-size="0.9" text-anchor="end" font-family="sans-serif">76</text><line x1="-5.080" y1="147.320" x2="0.000" y2="147.320" stroke="#e6e9ef" stroke-width="0.2"/><circle cx="-5.080" cy="147.320" r="0.4" fill="#4ea1ff"/><text x="0.500" y="147.670" fill="#e6e9ef" font-size="1.1" text-anchor="start" font-family="sans-serif">VDD</text><text x="-0.300" y="146.970" fill="#9aa3b2" font-size="0.9" text-anchor="end" font-family="sans-serif">98</text><line x1="-5.080" y1="149.860" x2="0.000" y2="149.860" stroke="#e6e9ef" stroke-width="0.2"/><circle cx="-5.080" cy="149.860" r="0.4" fill="#4ea1ff"/><text x="0.500" y="150.210" fill="#e6e9ef" font-size="1.1" text-anchor="start" font-family="sans-serif">VDD</text><text x="-0.300" y="149.510" fill="#9aa3b2" font-size="0.9" text-anchor="end" font-family="sans-serif">100</text><line x1="-5.080" y1="154.940" x2="0.000" y2="154.940" stroke="#e6e9ef" stroke-width="0.2"/><circle cx="-5.080" cy="154.940" r="0.4" fill="#4ea1ff"/><text x="0.500" y="155.290" fill="#e6e9ef" font-size="1.1" text-anchor="start" font-family="sans-serif">NC</text><text x="-0.300" y="154.590" fill="#9aa3b2" font-size="0.9" text-anchor="end" font-family="sans-serif">13</text><line x1="-5.080" y1="157.480" x2="0.000" y2="157.480" stroke="#e6e9ef" stroke-width="0.2"/><circle cx="-5.080" cy="157.480" r="0.4" fill="#4ea1ff"/><text x="0.500" y="157.830" fill="#e6e9ef" font-size="1.1" text-anchor="start" font-family="sans-serif">NC</text><text x="-0.300" y="157.130" fill="#9aa3b2" font-size="0.9" text-anchor="end" font-family="sans-serif">27</text><line x1="-5.080" y1="160.020" x2="0.000" y2="160.020" stroke="#e6e9ef" stroke-width="0.2"/><circle cx="-5.080" cy="160.020" r="0.4" fill="#4ea1ff"/><text x="0.500" y="160.370" fill="#e6e9ef" font-size="1.1" text-anchor="start" font-family="sans-serif">NC</text><text x="-0.300" y="159.670" fill="#9aa3b2" font-size="0.9" text-anchor="end" font-family="sans-serif">38</text><line x1="-5.080" y1="162.560" x2="0.000" y2="162.560" stroke="#e6e9ef" stroke-width="0.2"/><circle cx="-5.080" cy="162.560" r="0.4" fill="#4ea1ff"/><text x="0.500" y="162.910" fill="#e6e9ef" font-size="1.1" text-anchor="start" font-family="sans-serif">NC</text><text x="-0.300" y="162.210" fill="#9aa3b2" font-size="0.9" text-anchor="end" font-family="sans-serif">49</text><line x1="50.800" y1="2.540" x2="45.720" y2="2.540" stroke="#e6e9ef" stroke-width="0.2"/><circle cx="50.800" cy="2.540" r="0.4" fill="#4ea1ff"/><text x="45.220" y="2.890" fill="#e6e9ef" font-size="1.1" text-anchor="end" font-family="sans-serif">GND_S</text><text x="46.020" y="2.190" fill="#9aa3b2" font-size="0.9" text-anchor="start" font-family="sans-serif">47</text><line x1="50.800" y1="5.080" x2="45.720" y2="5.080" stroke="#e6e9ef" stroke-width="0.2"/><circle cx="50.800" cy="5.080" r="0.4" fill="#4ea1ff"/><text x="45.220" y="5.430" fill="#e6e9ef" font-size="1.1" text-anchor="end" font-family="sans-serif">GND_S</text><text x="46.020" y="4.730" fill="#9aa3b2" font-size="0.9" text-anchor="start" font-family="sans-serif">72</text><line x1="50.800" y1="7.620" x2="45.720" y2="7.620" stroke="#e6e9ef" stroke-width="0.2"/><circle cx="50.800" cy="7.620" r="0.4" fill="#4ea1ff"/><text x="45.220" y="7.970" fill="#e6e9ef" font-size="1.1" text-anchor="end" font-family="sans-serif">GND_S</text><text x="46.020" y="7.270" fill="#9aa3b2" font-size="0.9" text-anchor="start" font-family="sans-serif">78</text><line x1="50.800" y1="10.160" x2="45.720" y2="10.160" stroke="#e6e9ef" stroke-width="0.2"/><circle cx="50.800" cy="10.160" r="0.4" fill="#4ea1ff"/><text x="45.220" y="10.510" fill="#e6e9ef" font-size="1.1" text-anchor="end" font-family="sans-serif">GND_S</text><text x="46.020" y="9.810" fill="#9aa3b2" font-size="0.9" text-anchor="start" font-family="sans-serif">99</text><line x1="50.800" y1="17.780" x2="45.720" y2="17.780" stroke="#e6e9ef" stroke-width="0.2"/><circle cx="50.800" cy="17.780" r="0.4" fill="#4ea1ff"/><text x="45.220" y="18.130" fill="#e6e9ef" font-size="1.1" text-anchor="end" font-family="sans-serif">CLK8</text><text x="46.020" y="17.430" fill="#9aa3b2" font-size="0.9" text-anchor="start" font-family="sans-serif">56</text><line x1="50.800" y1="20.320" x2="45.720" y2="20.320" stroke="#e6e9ef" stroke-width="0.2"/><circle cx="50.800" cy="20.320" r="0.4" fill="#4ea1ff"/><text x="45.220" y="20.670" fill="#e6e9ef" font-size="1.1" text-anchor="end" font-family="sans-serif">~{CLK8}</text><text x="46.020" y="19.970" fill="#9aa3b2" font-size="0.9" text-anchor="start" font-family="sans-serif">57</text><line x1="50.800" y1="25.400" x2="45.720" y2="25.400" stroke="#e6e9ef" stroke-width="0.2"/><circle cx="50.800" cy="25.400" r="0.4" fill="#4ea1ff"/><text x="45.220" y="25.750" fill="#e6e9ef" font-size="1.1" text-anchor="end" font-family="sans-serif">CLK9</text><text x="46.020" y="25.050" fill="#9aa3b2" font-size="0.9" text-anchor="start" font-family="sans-serif">60</text><line x1="50.800" y1="27.940" x2="45.720" y2="27.940" stroke="#e6e9ef" stroke-width="0.2"/><circle cx="50.800" cy="27.940" r="0.4" fill="#4ea1ff"/><text x="45.220" y="28.290" fill="#e6e9ef" font-size="1.1" text-anchor="end" font-family="sans-serif">~{CLK9}</text><text x="46.020" y="27.590" fill="#9aa3b2" font-size="0.9" text-anchor="start" font-family="sans-serif">61</text><line x1="50.800" y1="33.020" x2="45.720" y2="33.020" stroke="#e6e9ef" stroke-width="0.2"/><circle cx="50.800" cy="33.020" r="0.4" fill="#4ea1ff"/><text x="45.220" y="33.370" fill="#e6e9ef" font-size="1.1" text-anchor="end" font-family="sans-serif">CLK10</text><text x="46.020" y="32.670" fill="#9aa3b2" font-size="0.9" text-anchor="start" font-family="sans-serif">65</text><line x1="50.800" y1="35.560" x2="45.720" y2="35.560" stroke="#e6e9ef" stroke-width="0.2"/><circle cx="50.800" cy="35.560" r="0.4" fill="#4ea1ff"/><text x="45.220" y="35.910" fill="#e6e9ef" font-size="1.1" text-anchor="end" font-family="sans-serif">~{CLK}1~{0}</text><text x="46.020" y="35.210" fill="#9aa3b2" font-size="0.9" text-anchor="start" font-family="sans-serif">66</text><line x1="50.800" y1="40.640" x2="45.720" y2="40.640" stroke="#e6e9ef" stroke-width="0.2"/><circle cx="50.800" cy="40.640" r="0.4" fill="#4ea1ff"/><text x="45.220" y="40.990" fill="#e6e9ef" font-size="1.1" text-anchor="end" font-family="sans-serif">CLK11</text><text x="46.020" y="40.290" fill="#9aa3b2" font-size="0.9" text-anchor="start" font-family="sans-serif">69</text><line x1="50.800" y1="43.180" x2="45.720" y2="43.180" stroke="#e6e9ef" stroke-width="0.2"/><circle cx="50.800" cy="43.180" r="0.4" fill="#4ea1ff"/><text x="45.220" y="43.530" fill="#e6e9ef" font-size="1.1" text-anchor="end" font-family="sans-serif">~{CLK}11</text><text x="46.020" y="42.830" fill="#9aa3b2" font-size="0.9" text-anchor="start" font-family="sans-serif">70</text><line x1="50.800" y1="48.260" x2="45.720" y2="48.260" stroke="#e6e9ef" stroke-width="0.2"/><circle cx="50.800" cy="48.260" r="0.4" fill="#4ea1ff"/><text x="45.220" y="48.610" fill="#e6e9ef" font-size="1.1" text-anchor="end" font-family="sans-serif">CLK12</text><text x="46.020" y="47.910" fill="#9aa3b2" font-size="0.9" text-anchor="start" font-family="sans-serif">81</text><line x1="50.800" y1="50.800" x2="45.720" y2="50.800" stroke="#e6e9ef" stroke-width="0.2"/><circle cx="50.800" cy="50.800" r="0.4" fill="#4ea1ff"/><text x="45.220" y="51.150" fill="#e6e9ef" font-size="1.1" text-anchor="end" font-family="sans-serif">~{CLK}1~{2}</text><text x="46.020" y="50.450" fill="#9aa3b2" font-size="0.9" text-anchor="start" font-family="sans-serif">82</text><line x1="50.800" y1="55.880" x2="45.720" y2="55.880" stroke="#e6e9ef" stroke-width="0.2"/><circle cx="50.800" cy="55.880" r="0.4" fill="#4ea1ff"/><text x="45.220" y="56.230" fill="#e6e9ef" font-size="1.1" text-anchor="end" font-family="sans-serif">CLK13</text><text x="46.020" y="55.530" fill="#9aa3b2" font-size="0.9" text-anchor="start" font-family="sans-serif">85</text><line x1="50.800" y1="58.420" x2="45.720" y2="58.420" stroke="#e6e9ef" stroke-width="0.2"/><circle cx="50.800" cy="58.420" r="0.4" fill="#4ea1ff"/><text x="45.220" y="58.770" fill="#e6e9ef" font-size="1.1" text-anchor="end" font-family="sans-serif">~{CLK}1~{3}</text><text x="46.020" y="58.070" fill="#9aa3b2" font-size="0.9" text-anchor="start" font-family="sans-serif">86</text><line x1="50.800" y1="63.500" x2="45.720" y2="63.500" stroke="#e6e9ef" stroke-width="0.2"/><circle cx="50.800" cy="63.500" r="0.4" fill="#4ea1ff"/><text x="45.220" y="63.850" fill="#e6e9ef" font-size="1.1" text-anchor="end" font-family="sans-serif">CLK14</text><text x="46.020" y="63.150" fill="#9aa3b2" font-size="0.9" text-anchor="start" font-family="sans-serif">90</text><line x1="50.800" y1="66.040" x2="45.720" y2="66.040" stroke="#e6e9ef" stroke-width="0.2"/><circle cx="50.800" cy="66.040" r="0.4" fill="#4ea1ff"/><text x="45.220" y="66.390" fill="#e6e9ef" font-size="1.1" text-anchor="end" font-family="sans-serif">~{CLK}1~{4}</text><text x="46.020" y="65.690" fill="#9aa3b2" font-size="0.9" text-anchor="start" font-family="sans-serif">91</text><line x1="50.800" y1="71.120" x2="45.720" y2="71.120" stroke="#e6e9ef" stroke-width="0.2"/><circle cx="50.800" cy="71.120" r="0.4" fill="#4ea1ff"/><text x="45.220" y="71.470" fill="#e6e9ef" font-size="1.1" text-anchor="end" font-family="sans-serif">CLK15</text><text x="46.020" y="70.770" fill="#9aa3b2" font-size="0.9" text-anchor="start" font-family="sans-serif">94</text><line x1="50.800" y1="73.660" x2="45.720" y2="73.660" stroke="#e6e9ef" stroke-width="0.2"/><circle cx="50.800" cy="73.660" r="0.4" fill="#4ea1ff"/><text x="45.220" y="74.010" fill="#e6e9ef" font-size="1.1" text-anchor="end" font-family="sans-serif">~{CLK}1~{5}</text><text x="46.020" y="73.310" fill="#9aa3b2" font-size="0.9" text-anchor="start" font-family="sans-serif">95</text><line x1="50.800" y1="78.740" x2="45.720" y2="78.740" stroke="#e6e9ef" stroke-width="0.2"/><circle cx="50.800" cy="78.740" r="0.4" fill="#4ea1ff"/><text x="45.220" y="79.090" fill="#e6e9ef" font-size="1.1" text-anchor="end" font-family="sans-serif">GNDO_CLK0</text><text x="46.020" y="78.390" fill="#9aa3b2" font-size="0.9" text-anchor="start" font-family="sans-serif">8</text><line x1="50.800" y1="81.280" x2="45.720" y2="81.280" stroke="#e6e9ef" stroke-width="0.2"/><circle cx="50.800" cy="81.280" r="0.4" fill="#4ea1ff"/><text x="45.220" y="81.630" fill="#e6e9ef" font-size="1.1" text-anchor="end" font-family="sans-serif">GNDO_CLK1</text><text x="46.020" y="80.930" fill="#9aa3b2" font-size="0.9" text-anchor="start" font-family="sans-serif">12</text><line x1="50.800" y1="83.820" x2="45.720" y2="83.820" stroke="#e6e9ef" stroke-width="0.2"/><circle cx="50.800" cy="83.820" r="0.4" fill="#4ea1ff"/><text x="45.220" y="84.170" fill="#e6e9ef" font-size="1.1" text-anchor="end" font-family="sans-serif">GNDO_CLK2</text><text x="46.020" y="83.470" fill="#9aa3b2" font-size="0.9" text-anchor="start" font-family="sans-serif">17</text><line x1="50.800" y1="86.360" x2="45.720" y2="86.360" stroke="#e6e9ef" stroke-width="0.2"/><circle cx="50.800" cy="86.360" r="0.4" fill="#4ea1ff"/><text x="45.220" y="86.710" fill="#e6e9ef" font-size="1.1" text-anchor="end" font-family="sans-serif">GNDO_CLK3</text><text x="46.020" y="86.010" fill="#9aa3b2" font-size="0.9" text-anchor="start" font-family="sans-serif">21</text><line x1="50.800" y1="88.900" x2="45.720" y2="88.900" stroke="#e6e9ef" stroke-width="0.2"/><circle cx="50.800" cy="88.900" r="0.4" fill="#4ea1ff"/><text x="45.220" y="89.250" fill="#e6e9ef" font-size="1.1" text-anchor="end" font-family="sans-serif">GNDO_CLK4</text><text x="46.020" y="88.550" fill="#9aa3b2" font-size="0.9" text-anchor="start" font-family="sans-serif">33</text><line x1="50.800" y1="91.440" x2="45.720" y2="91.440" stroke="#e6e9ef" stroke-width="0.2"/><circle cx="50.800" cy="91.440" r="0.4" fill="#4ea1ff"/><text x="45.220" y="91.790" fill="#e6e9ef" font-size="1.1" text-anchor="end" font-family="sans-serif">GNDO_CLK5</text><text x="46.020" y="91.090" fill="#9aa3b2" font-size="0.9" text-anchor="start" font-family="sans-serif">37</text><line x1="50.800" y1="93.980" x2="45.720" y2="93.980" stroke="#e6e9ef" stroke-width="0.2"/><circle cx="50.800" cy="93.980" r="0.4" fill="#4ea1ff"/><text x="45.220" y="94.330" fill="#e6e9ef" font-size="1.1" text-anchor="end" font-family="sans-serif">GNDO_CLK6</text><text x="46.020" y="93.630" fill="#9aa3b2" font-size="0.9" text-anchor="start" font-family="sans-serif">42</text><line x1="50.800" y1="96.520" x2="45.720" y2="96.520" stroke="#e6e9ef" stroke-width="0.2"/><circle cx="50.800" cy="96.520" r="0.4" fill="#4ea1ff"/><text x="45.220" y="96.870" fill="#e6e9ef" font-size="1.1" text-anchor="end" font-family="sans-serif">GNDO_CLK7</text><text x="46.020" y="96.170" fill="#9aa3b2" font-size="0.9" text-anchor="start" font-family="sans-serif">46</text><line x1="50.800" y1="99.060" x2="45.720" y2="99.060" stroke="#e6e9ef" stroke-width="0.2"/><circle cx="50.800" cy="99.060" r="0.4" fill="#4ea1ff"/><text x="45.220" y="99.410" fill="#e6e9ef" font-size="1.1" text-anchor="end" font-family="sans-serif">GNDO_CLK8</text><text x="46.020" y="98.710" fill="#9aa3b2" font-size="0.9" text-anchor="start" font-family="sans-serif">58</text><line x1="50.800" y1="101.600" x2="45.720" y2="101.600" stroke="#e6e9ef" stroke-width="0.2"/><circle cx="50.800" cy="101.600" r="0.4" fill="#4ea1ff"/><text x="45.220" y="101.950" fill="#e6e9ef" font-size="1.1" text-anchor="end" font-family="sans-serif">GNDO_CLK9</text><text x="46.020" y="101.250" fill="#9aa3b2" font-size="0.9" text-anchor="start" font-family="sans-serif">62</text><line x1="50.800" y1="104.140" x2="45.720" y2="104.140" stroke="#e6e9ef" stroke-width="0.2"/><circle cx="50.800" cy="104.140" r="0.4" fill="#4ea1ff"/><text x="45.220" y="104.490" fill="#e6e9ef" font-size="1.1" text-anchor="end" font-family="sans-serif">GNDO_CLK10</text><text x="46.020" y="103.790" fill="#9aa3b2" font-size="0.9" text-anchor="start" font-family="sans-serif">67</text><line x1="50.800" y1="106.680" x2="45.720" y2="106.680" stroke="#e6e9ef" stroke-width="0.2"/><circle cx="50.800" cy="106.680" r="0.4" fill="#4ea1ff"/><text x="45.220" y="107.030" fill="#e6e9ef" font-size="1.1" text-anchor="end" font-family="sans-serif">GNDO_CLK11</text><text x="46.020" y="106.330" fill="#9aa3b2" font-size="0.9" text-anchor="start" font-family="sans-serif">71</text><line x1="50.800" y1="109.220" x2="45.720" y2="109.220" stroke="#e6e9ef" stroke-width="0.2"/><circle cx="50.800" cy="109.220" r="0.4" fill="#4ea1ff"/><text x="45.220" y="109.570" fill="#e6e9ef" font-size="1.1" text-anchor="end" font-family="sans-serif">GNDO_CLK12</text><text x="46.020" y="108.870" fill="#9aa3b2" font-size="0.9" text-anchor="start" font-family="sans-serif">83</text><line x1="50.800" y1="111.760" x2="45.720" y2="111.760" stroke="#e6e9ef" stroke-width="0.2"/><circle cx="50.800" cy="111.760" r="0.4" fill="#4ea1ff"/><text x="45.220" y="112.110" fill="#e6e9ef" font-size="1.1" text-anchor="end" font-family="sans-serif">GNDO_CLK13</text><text x="46.020" y="111.410" fill="#9aa3b2" font-size="0.9" text-anchor="start" font-family="sans-serif">87</text><line x1="50.800" y1="114.300" x2="45.720" y2="114.300" stroke="#e6e9ef" stroke-width="0.2"/><circle cx="50.800" cy="114.300" r="0.4" fill="#4ea1ff"/><text x="45.220" y="114.650" fill="#e6e9ef" font-size="1.1" text-anchor="end" font-family="sans-serif">GNDO_CLK14</text><text x="46.020" y="113.950" fill="#9aa3b2" font-size="0.9" text-anchor="start" font-family="sans-serif">92</text><line x1="50.800" y1="116.840" x2="45.720" y2="116.840" stroke="#e6e9ef" stroke-width="0.2"/><circle cx="50.800" cy="116.840" r="0.4" fill="#4ea1ff"/><text x="45.220" y="117.190" fill="#e6e9ef" font-size="1.1" text-anchor="end" font-family="sans-serif">GNDO_CLK15</text><text x="46.020" y="116.490" fill="#9aa3b2" font-size="0.9" text-anchor="start" font-family="sans-serif">96</text><line x1="50.800" y1="121.920" x2="45.720" y2="121.920" stroke="#e6e9ef" stroke-width="0.2"/><circle cx="50.800" cy="121.920" r="0.4" fill="#4ea1ff"/><text x="45.220" y="122.270" fill="#e6e9ef" font-size="1.1" text-anchor="end" font-family="sans-serif">GND_DIGITAL</text><text x="46.020" y="121.570" fill="#9aa3b2" font-size="0.9" text-anchor="start" font-family="sans-serif">29</text><line x1="50.800" y1="124.460" x2="45.720" y2="124.460" stroke="#e6e9ef" stroke-width="0.2"/><circle cx="50.800" cy="124.460" r="0.4" fill="#4ea1ff"/><text x="45.220" y="124.810" fill="#e6e9ef" font-size="1.1" text-anchor="end" font-family="sans-serif">GND_DIGITAL</text><text x="46.020" y="124.110" fill="#9aa3b2" font-size="0.9" text-anchor="start" font-family="sans-serif">54</text><line x1="50.800" y1="132.080" x2="45.720" y2="132.080" stroke="#e6e9ef" stroke-width="0.2"/><circle cx="50.800" cy="132.080" r="0.4" fill="#4ea1ff"/><text x="45.220" y="132.430" fill="#e6e9ef" font-size="1.1" text-anchor="end" font-family="sans-serif">GND</text><text x="46.020" y="131.730" fill="#9aa3b2" font-size="0.9" text-anchor="start" font-family="sans-serif">2</text><line x1="50.800" y1="134.620" x2="45.720" y2="134.620" stroke="#e6e9ef" stroke-width="0.2"/><circle cx="50.800" cy="134.620" r="0.4" fill="#4ea1ff"/><text x="45.220" y="134.970" fill="#e6e9ef" font-size="1.1" text-anchor="end" font-family="sans-serif">GND</text><text x="46.020" y="134.270" fill="#9aa3b2" font-size="0.9" text-anchor="start" font-family="sans-serif">3</text><line x1="50.800" y1="137.160" x2="45.720" y2="137.160" stroke="#e6e9ef" stroke-width="0.2"/><circle cx="50.800" cy="137.160" r="0.4" fill="#4ea1ff"/><text x="45.220" y="137.510" fill="#e6e9ef" font-size="1.1" text-anchor="end" font-family="sans-serif">GND</text><text x="46.020" y="136.810" fill="#9aa3b2" font-size="0.9" text-anchor="start" font-family="sans-serif">24</text><line x1="50.800" y1="139.700" x2="45.720" y2="139.700" stroke="#e6e9ef" stroke-width="0.2"/><circle cx="50.800" cy="139.700" r="0.4" fill="#4ea1ff"/><text x="45.220" y="140.050" fill="#e6e9ef" font-size="1.1" text-anchor="end" font-family="sans-serif">GND</text><text x="46.020" y="139.350" fill="#9aa3b2" font-size="0.9" text-anchor="start" font-family="sans-serif">48</text><line x1="50.800" y1="142.240" x2="45.720" y2="142.240" stroke="#e6e9ef" stroke-width="0.2"/><circle cx="50.800" cy="142.240" r="0.4" fill="#4ea1ff"/><text x="45.220" y="142.590" fill="#e6e9ef" font-size="1.1" text-anchor="end" font-family="sans-serif">GND</text><text x="46.020" y="141.890" fill="#9aa3b2" font-size="0.9" text-anchor="start" font-family="sans-serif">73</text><line x1="50.800" y1="144.780" x2="45.720" y2="144.780" stroke="#e6e9ef" stroke-width="0.2"/><circle cx="50.800" cy="144.780" r="0.4" fill="#4ea1ff"/><text x="45.220" y="145.130" fill="#e6e9ef" font-size="1.1" text-anchor="end" font-family="sans-serif">GND</text><text x="46.020" y="144.430" fill="#9aa3b2" font-size="0.9" text-anchor="start" font-family="sans-serif">77</text><line x1="50.800" y1="149.860" x2="45.720" y2="149.860" stroke="#e6e9ef" stroke-width="0.2"/><circle cx="50.800" cy="149.860" r="0.4" fill="#4ea1ff"/><text x="45.220" y="150.210" fill="#e6e9ef" font-size="1.1" text-anchor="end" font-family="sans-serif">EP</text><text x="46.020" y="149.510" fill="#9aa3b2" font-size="0.9" text-anchor="start" font-family="sans-serif">101</text><line x1="50.800" y1="154.940" x2="45.720" y2="154.940" stroke="#e6e9ef" stroke-width="0.2"/><circle cx="50.800" cy="154.940" r="0.4" fill="#4ea1ff"/><text x="45.220" y="155.290" fill="#e6e9ef" font-size="1.1" text-anchor="end" font-family="sans-serif">NC</text><text x="46.020" y="154.590" fill="#9aa3b2" font-size="0.9" text-anchor="start" font-family="sans-serif">63</text><line x1="50.800" y1="157.480" x2="45.720" y2="157.480" stroke="#e6e9ef" stroke-width="0.2"/><circle cx="50.800" cy="157.480" r="0.4" fill="#4ea1ff"/><text x="45.220" y="157.830" fill="#e6e9ef" font-size="1.1" text-anchor="end" font-family="sans-serif">NC</text><text x="46.020" y="157.130" fill="#9aa3b2" font-size="0.9" text-anchor="start" font-family="sans-serif">79</text><line x1="50.800" y1="160.020" x2="45.720" y2="160.020" stroke="#e6e9ef" stroke-width="0.2"/><circle cx="50.800" cy="160.020" r="0.4" fill="#4ea1ff"/><text x="45.220" y="160.370" fill="#e6e9ef" font-size="1.1" text-anchor="end" font-family="sans-serif">NC</text><text x="46.020" y="159.670" fill="#9aa3b2" font-size="0.9" text-anchor="start" font-family="sans-serif">88</text><line x1="50.800" y1="162.560" x2="45.720" y2="162.560" stroke="#e6e9ef" stroke-width="0.2"/><circle cx="50.800" cy="162.560" r="0.4" fill="#4ea1ff"/><text x="45.220" y="162.910" fill="#e6e9ef" font-size="1.1" text-anchor="end" font-family="sans-serif">NC</text><text x="46.020" y="162.210" fill="#9aa3b2" font-size="0.9" text-anchor="start" font-family="sans-serif">97</text></svg>