<svg xmlns="http://www.w3.org/2000/svg" viewBox="-11.41 -5.82 22.82 12.17" preserveAspectRatio="xMidYMid meet" style="width:100%;height:100%"><rect x="-11.41" y="-5.82" width="22.82" height="12.17" fill="#12151c"/><line x1="-10.160" y1="-4.572" x2="-9.017" y2="-4.572" stroke="#e6e9ef" stroke-width="0.200" stroke-linecap="round" opacity="1"/><line x1="-10.160" y1="1.651" x2="-9.017" y2="1.651" stroke="#e6e9ef" stroke-width="0.200" stroke-linecap="round" opacity="1"/><line x1="-10.160" y1="3.175" x2="-9.017" y2="3.175" stroke="#e6e9ef" stroke-width="0.200" stroke-linecap="round" opacity="1"/><line x1="-10.160" y1="4.572" x2="-10.160" y2="-4.572" stroke="#e6e9ef" stroke-width="0.200" stroke-linecap="round" opacity="1"/><line x1="-10.160" y1="4.572" x2="10.160" y2="4.572" stroke="#e6e9ef" stroke-width="0.200" stroke-linecap="round" opacity="1"/><line x1="-9.398" y1="-3.619" x2="-9.017" y2="-3.239" stroke="#e6e9ef" stroke-width="0.200" stroke-linecap="round" opacity="1"/><line x1="-9.398" y1="-3.619" x2="-4.826" y2="-3.619" stroke="#e6e9ef" stroke-width="0.200" stroke-linecap="round" opacity="1"/><line x1="-9.398" y1="1.651" x2="-9.398" y2="-3.619" stroke="#e6e9ef" stroke-width="0.200" stroke-linecap="round" opacity="1"/><line x1="-9.398" y1="3.683" x2="-9.398" y2="3.175" stroke="#e6e9ef" stroke-width="0.200" stroke-linecap="round" opacity="1"/><line x1="-9.398" y1="3.683" x2="-9.017" y2="3.302" stroke="#e6e9ef" stroke-width="0.200" stroke-linecap="round" opacity="1"/><line x1="-9.398" y1="3.683" x2="-2.603" y2="3.683" stroke="#e6e9ef" stroke-width="0.200" stroke-linecap="round" opacity="1"/><line x1="-9.017" y1="-4.255" x2="-9.017" y2="-4.572" stroke="#e6e9ef" stroke-width="0.200" stroke-linecap="round" opacity="1"/><line x1="-9.017" y1="-4.255" x2="9.017" y2="-4.255" stroke="#e6e9ef" stroke-width="0.200" stroke-linecap="round" opacity="1"/><line x1="-9.017" y1="-3.239" x2="9.017" y2="-3.239" stroke="#e6e9ef" stroke-width="0.200" stroke-linecap="round" opacity="1"/><line x1="-9.017" y1="3.302" x2="-9.017" y2="-3.239" stroke="#e6e9ef" stroke-width="0.200" stroke-linecap="round" opacity="1"/><line x1="-9.017" y1="3.302" x2="9.017" y2="3.302" stroke="#e6e9ef" stroke-width="0.200" stroke-linecap="round" opacity="1"/><line x1="-4.826" y1="-3.619" x2="-4.826" y2="-4.255" stroke="#e6e9ef" stroke-width="0.200" stroke-linecap="round" opacity="1"/><line x1="-4.318" y1="-3.239" x2="-4.318" y2="-4.255" stroke="#e6e9ef" stroke-width="0.200" stroke-linecap="round" opacity="1"/><line x1="-2.603" y1="4.572" x2="-2.603" y2="3.683" stroke="#e6e9ef" stroke-width="0.200" stroke-linecap="round" opacity="1"/><line x1="-2.112" y1="3.302" x2="-2.095" y2="4.572" stroke="#e6e9ef" stroke-width="0.200" stroke-linecap="round" opacity="1"/><line x1="0.342" y1="-3.239" x2="0.342" y2="-4.255" stroke="#e6e9ef" stroke-width="0.200" stroke-linecap="round" opacity="1"/><line x1="0.889" y1="-3.619" x2="0.889" y2="-4.255" stroke="#e6e9ef" stroke-width="0.200" stroke-linecap="round" opacity="1"/><line x1="0.889" y1="-3.619" x2="9.398" y2="-3.619" stroke="#e6e9ef" stroke-width="0.200" stroke-linecap="round" opacity="1"/><line x1="2.095" y1="4.572" x2="2.095" y2="3.302" stroke="#e6e9ef" stroke-width="0.200" stroke-linecap="round" opacity="1"/><line x1="2.603" y1="3.683" x2="9.398" y2="3.683" stroke="#e6e9ef" stroke-width="0.200" stroke-linecap="round" opacity="1"/><line x1="2.603" y1="4.572" x2="2.603" y2="3.683" stroke="#e6e9ef" stroke-width="0.200" stroke-linecap="round" opacity="1"/><line x1="9.017" y1="-4.572" x2="10.160" y2="-4.572" stroke="#e6e9ef" stroke-width="0.200" stroke-linecap="round" opacity="1"/><line x1="9.017" y1="-4.255" x2="9.017" y2="-4.572" stroke="#e6e9ef" stroke-width="0.200" stroke-linecap="round" opacity="1"/><line x1="9.017" y1="-3.239" x2="9.398" y2="-3.619" stroke="#e6e9ef" stroke-width="0.200" stroke-linecap="round" opacity="1"/><line x1="9.017" y1="1.651" x2="10.160" y2="1.651" stroke="#e6e9ef" stroke-width="0.200" stroke-linecap="round" opacity="1"/><line x1="9.017" y1="3.175" x2="10.160" y2="3.175" stroke="#e6e9ef" stroke-width="0.200" stroke-linecap="round" opacity="1"/><line x1="9.017" y1="3.302" x2="9.017" y2="-3.239" stroke="#e6e9ef" stroke-width="0.200" stroke-linecap="round" opacity="1"/><line x1="9.017" y1="3.302" x2="9.398" y2="3.683" stroke="#e6e9ef" stroke-width="0.200" stroke-linecap="round" opacity="1"/><line x1="9.398" y1="1.651" x2="9.398" y2="-3.619" stroke="#e6e9ef" stroke-width="0.200" stroke-linecap="round" opacity="1"/><line x1="9.398" y1="3.683" x2="9.398" y2="3.175" stroke="#e6e9ef" stroke-width="0.200" stroke-linecap="round" opacity="1"/><line x1="10.160" y1="4.572" x2="10.160" y2="-4.572" stroke="#e6e9ef" stroke-width="0.200" stroke-linecap="round" opacity="1"/><line x1="-5.580" y1="-1.270" x2="-5.080" y2="-1.270" stroke="#4a5160" stroke-width="0.080" stroke-linecap="round" opacity="0.7"/><line x1="-5.580" y1="1.270" x2="-5.080" y2="1.270" stroke="#4a5160" stroke-width="0.080" stroke-linecap="round" opacity="0.7"/><line x1="-5.080" y1="-1.270" x2="-5.080" y2="-1.770" stroke="#4a5160" stroke-width="0.080" stroke-linecap="round" opacity="0.7"/><line x1="-5.080" y1="-1.270" x2="-4.580" y2="-1.270" stroke="#4a5160" stroke-width="0.080" stroke-linecap="round" opacity="0.7"/><line x1="-5.080" y1="-0.770" x2="-5.080" y2="-1.270" stroke="#4a5160" stroke-width="0.080" stroke-linecap="round" opacity="0.7"/><line x1="-5.080" y1="1.270" x2="-5.080" y2="0.770" stroke="#4a5160" stroke-width="0.080" stroke-linecap="round" opacity="0.7"/><line x1="-5.080" y1="1.270" x2="-4.580" y2="1.270" stroke="#4a5160" stroke-width="0.080" stroke-linecap="round" opacity="0.7"/><line x1="-5.080" y1="1.770" x2="-5.080" y2="1.270" stroke="#4a5160" stroke-width="0.080" stroke-linecap="round" opacity="0.7"/><line x1="-3.040" y1="-1.270" x2="-2.540" y2="-1.270" stroke="#4a5160" stroke-width="0.080" stroke-linecap="round" opacity="0.7"/><line x1="-3.040" y1="1.270" x2="-2.540" y2="1.270" stroke="#4a5160" stroke-width="0.080" stroke-linecap="round" opacity="0.7"/><line x1="-2.540" y1="-1.270" x2="-2.540" y2="-1.770" stroke="#4a5160" stroke-width="0.080" stroke-linecap="round" opacity="0.7"/><line x1="-2.540" y1="-1.270" x2="-2.040" y2="-1.270" stroke="#4a5160" stroke-width="0.080" stroke-linecap="round" opacity="0.7"/><line x1="-2.540" y1="-0.770" x2="-2.540" y2="-1.270" stroke="#4a5160" stroke-width="0.080" stroke-linecap="round" opacity="0.7"/><line x1="-2.540" y1="1.270" x2="-2.540" y2="0.770" stroke="#4a5160" stroke-width="0.080" stroke-linecap="round" opacity="0.7"/><line x1="-2.540" y1="1.270" x2="-2.040" y2="1.270" stroke="#4a5160" stroke-width="0.080" stroke-linecap="round" opacity="0.7"/><line x1="-2.540" y1="1.770" x2="-2.540" y2="1.270" stroke="#4a5160" stroke-width="0.080" stroke-linecap="round" opacity="0.7"/><line x1="-0.500" y1="-1.270" x2="0.000" y2="-1.270" stroke="#4a5160" stroke-width="0.080" stroke-linecap="round" opacity="0.7"/><line x1="-0.500" y1="1.270" x2="0.000" y2="1.270" stroke="#4a5160" stroke-width="0.080" stroke-linecap="round" opacity="0.7"/><line x1="-0.354" y1="-0.354" x2="0.000" y2="0.000" stroke="#4a5160" stroke-width="0.080" stroke-linecap="round" opacity="0.7"/><line x1="-0.354" y1="0.354" x2="0.000" y2="0.000" stroke="#4a5160" stroke-width="0.080" stroke-linecap="round" opacity="0.7"/><line x1="0.000" y1="-1.270" x2="0.000" y2="-1.770" stroke="#4a5160" stroke-width="0.080" stroke-linecap="round" opacity="0.7"/><line x1="0.000" y1="-1.270" x2="0.500" y2="-1.270" stroke="#4a5160" stroke-width="0.080" stroke-linecap="round" opacity="0.7"/><line x1="0.000" y1="-0.770" x2="0.000" y2="-1.270" stroke="#4a5160" stroke-width="0.080" stroke-linecap="round" opacity="0.7"/><line x1="0.000" y1="0.000" x2="0.354" y2="-0.354" stroke="#4a5160" stroke-width="0.080" stroke-linecap="round" opacity="0.7"/><line x1="0.000" y1="0.000" x2="0.354" y2="0.354" stroke="#4a5160" stroke-width="0.080" stroke-linecap="round" opacity="0.7"/><line x1="0.000" y1="1.270" x2="0.000" y2="0.770" stroke="#4a5160" stroke-width="0.080" stroke-linecap="round" opacity="0.7"/><line x1="0.000" y1="1.270" x2="0.500" y2="1.270" stroke="#4a5160" stroke-width="0.080" stroke-linecap="round" opacity="0.7"/><line x1="0.000" y1="1.770" x2="0.000" y2="1.270" stroke="#4a5160" stroke-width="0.080" stroke-linecap="round" opacity="0.7"/><line x1="2.040" y1="-1.270" x2="2.540" y2="-1.270" stroke="#4a5160" stroke-width="0.080" stroke-linecap="round" opacity="0.7"/><line x1="2.040" y1="1.270" x2="2.540" y2="1.270" stroke="#4a5160" stroke-width="0.080" stroke-linecap="round" opacity="0.7"/><line x1="2.540" y1="-1.270" x2="2.540" y2="-1.770" stroke="#4a5160" stroke-width="0.080" stroke-linecap="round" opacity="0.7"/><line x1="2.540" y1="-1.270" x2="3.040" y2="-1.270" stroke="#4a5160" stroke-width="0.080" stroke-linecap="round" opacity="0.7"/><line x1="2.540" y1="-0.770" x2="2.540" y2="-1.270" stroke="#4a5160" stroke-width="0.080" stroke-linecap="round" opacity="0.7"/><line x1="2.540" y1="1.270" x2="2.540" y2="0.770" stroke="#4a5160" stroke-width="0.080" stroke-linecap="round" opacity="0.7"/><line x1="2.540" y1="1.270" x2="3.040" y2="1.270" stroke="#4a5160" stroke-width="0.080" stroke-linecap="round" opacity="0.7"/><line x1="2.540" y1="1.770" x2="2.540" y2="1.270" stroke="#4a5160" stroke-width="0.080" stroke-linecap="round" opacity="0.7"/><line x1="4.580" y1="-1.270" x2="5.080" y2="-1.270" stroke="#4a5160" stroke-width="0.080" stroke-linecap="round" opacity="0.7"/><line x1="4.580" y1="1.270" x2="5.080" y2="1.270" stroke="#4a5160" stroke-width="0.080" stroke-linecap="round" opacity="0.7"/><line x1="5.080" y1="-1.270" x2="5.080" y2="-1.770" stroke="#4a5160" stroke-width="0.080" stroke-linecap="round" opacity="0.7"/><line x1="5.080" y1="-1.270" x2="5.580" y2="-1.270" stroke="#4a5160" stroke-width="0.080" stroke-linecap="round" opacity="0.7"/><line x1="5.080" y1="-0.770" x2="5.080" y2="-1.270" stroke="#4a5160" stroke-width="0.080" stroke-linecap="round" opacity="0.7"/><line x1="5.080" y1="1.270" x2="5.080" y2="0.770" stroke="#4a5160" stroke-width="0.080" stroke-linecap="round" opacity="0.7"/><line x1="5.080" y1="1.270" x2="5.580" y2="1.270" stroke="#4a5160" stroke-width="0.080" stroke-linecap="round" opacity="0.7"/><line x1="5.080" y1="1.770" x2="5.080" y2="1.270" stroke="#4a5160" stroke-width="0.080" stroke-linecap="round" opacity="0.7"/><line x1="-10.160" y1="-4.572" x2="-9.017" y2="-4.572" stroke="#6b7280" stroke-width="0.100" stroke-linecap="round" opacity="0.8"/><line x1="-10.160" y1="1.651" x2="-9.017" y2="1.651" stroke="#6b7280" stroke-width="0.100" stroke-linecap="round" opacity="0.8"/><line x1="-10.160" y1="3.175" x2="-9.017" y2="3.175" stroke="#6b7280" stroke-width="0.100" stroke-linecap="round" opacity="0.8"/><line x1="-10.160" y1="4.572" x2="-10.160" y2="-4.572" stroke="#6b7280" stroke-width="0.100" stroke-linecap="round" opacity="0.8"/><line x1="-10.160" y1="4.572" x2="10.160" y2="4.572" stroke="#6b7280" stroke-width="0.100" stroke-linecap="round" opacity="0.8"/><line x1="-9.398" y1="-3.619" x2="-9.017" y2="-3.239" stroke="#6b7280" stroke-width="0.100" stroke-linecap="round" opacity="0.8"/><line x1="-9.398" y1="-3.619" x2="-4.826" y2="-3.619" stroke="#6b7280" stroke-width="0.100" stroke-linecap="round" opacity="0.8"/><line x1="-9.398" y1="1.651" x2="-9.398" y2="-3.619" stroke="#6b7280" stroke-width="0.100" stroke-linecap="round" opacity="0.8"/><line x1="-9.398" y1="3.683" x2="-9.398" y2="3.175" stroke="#6b7280" stroke-width="0.100" stroke-linecap="round" opacity="0.8"/><line x1="-9.398" y1="3.683" x2="-9.017" y2="3.302" stroke="#6b7280" stroke-width="0.100" stroke-linecap="round" opacity="0.8"/><line x1="-9.398" y1="3.683" x2="-2.603" y2="3.683" stroke="#6b7280" stroke-width="0.100" stroke-linecap="round" opacity="0.8"/><line x1="-9.017" y1="-4.255" x2="-9.017" y2="-4.572" stroke="#6b7280" stroke-width="0.100" stroke-linecap="round" opacity="0.8"/><line x1="-9.017" y1="-4.255" x2="9.017" y2="-4.255" stroke="#6b7280" stroke-width="0.100" stroke-linecap="round" opacity="0.8"/><line x1="-9.017" y1="-3.239" x2="9.017" y2="-3.239" stroke="#6b7280" stroke-width="0.100" stroke-linecap="round" opacity="0.8"/><line x1="-9.017" y1="3.302" x2="-9.017" y2="-3.239" stroke="#6b7280" stroke-width="0.100" stroke-linecap="round" opacity="0.8"/><line x1="-9.017" y1="3.302" x2="9.017" y2="3.302" stroke="#6b7280" stroke-width="0.100" stroke-linecap="round" opacity="0.8"/><line x1="-4.826" y1="-3.619" x2="-4.826" y2="-4.255" stroke="#6b7280" stroke-width="0.100" stroke-linecap="round" opacity="0.8"/><line x1="-4.318" y1="-3.239" x2="-4.318" y2="-4.255" stroke="#6b7280" stroke-width="0.100" stroke-linecap="round" opacity="0.8"/><line x1="-2.603" y1="4.572" x2="-2.603" y2="3.683" stroke="#6b7280" stroke-width="0.100" stroke-linecap="round" opacity="0.8"/><line x1="-2.112" y1="3.302" x2="-2.095" y2="4.572" stroke="#6b7280" stroke-width="0.100" stroke-linecap="round" opacity="0.8"/><line x1="0.342" y1="-3.239" x2="0.342" y2="-4.255" stroke="#6b7280" stroke-width="0.100" stroke-linecap="round" opacity="0.8"/><line x1="0.889" y1="-3.619" x2="0.889" y2="-4.255" stroke="#6b7280" stroke-width="0.100" stroke-linecap="round" opacity="0.8"/><line x1="0.889" y1="-3.619" x2="9.398" y2="-3.619" stroke="#6b7280" stroke-width="0.100" stroke-linecap="round" opacity="0.8"/><line x1="2.095" y1="4.572" x2="2.095" y2="3.302" stroke="#6b7280" stroke-width="0.100" stroke-linecap="round" opacity="0.8"/><line x1="2.603" y1="3.683" x2="9.398" y2="3.683" stroke="#6b7280" stroke-width="0.100" stroke-linecap="round" opacity="0.8"/><line x1="2.603" y1="4.572" x2="2.603" y2="3.683" stroke="#6b7280" stroke-width="0.100" stroke-linecap="round" opacity="0.8"/><line x1="9.017" y1="-4.572" x2="10.160" y2="-4.572" stroke="#6b7280" stroke-width="0.100" stroke-linecap="round" opacity="0.8"/><line x1="9.017" y1="-4.255" x2="9.017" y2="-4.572" stroke="#6b7280" stroke-width="0.100" stroke-linecap="round" opacity="0.8"/><line x1="9.017" y1="-3.239" x2="9.398" y2="-3.619" stroke="#6b7280" stroke-width="0.100" stroke-linecap="round" opacity="0.8"/><line x1="9.017" y1="1.651" x2="10.160" y2="1.651" stroke="#6b7280" stroke-width="0.100" stroke-linecap="round" opacity="0.8"/><line x1="9.017" y1="3.175" x2="10.160" y2="3.175" stroke="#6b7280" stroke-width="0.100" stroke-linecap="round" opacity="0.8"/><line x1="9.017" y1="3.302" x2="9.017" y2="-3.239" stroke="#6b7280" stroke-width="0.100" stroke-linecap="round" opacity="0.8"/><line x1="9.017" y1="3.302" x2="9.398" y2="3.683" stroke="#6b7280" stroke-width="0.100" stroke-linecap="round" opacity="0.8"/><line x1="9.398" y1="1.651" x2="9.398" y2="-3.619" stroke="#6b7280" stroke-width="0.100" stroke-linecap="round" opacity="0.8"/><line x1="9.398" y1="3.683" x2="9.398" y2="3.175" stroke="#6b7280" stroke-width="0.100" stroke-linecap="round" opacity="0.8"/><line x1="10.160" y1="4.572" x2="10.160" y2="-4.572" stroke="#6b7280" stroke-width="0.100" stroke-linecap="round" opacity="0.8"/><line x1="-10.410" y1="-4.820" x2="10.410" y2="-4.820" stroke="#d24d4d" stroke-width="0.080" stroke-linecap="round" opacity="0.7"/><line x1="10.410" y1="-4.820" x2="10.410" y2="4.820" stroke="#d24d4d" stroke-width="0.080" stroke-linecap="round" opacity="0.7"/><line x1="10.410" y1="4.820" x2="-10.410" y2="4.820" stroke="#d24d4d" stroke-width="0.080" stroke-linecap="round" opacity="0.7"/><line x1="-10.410" y1="4.820" x2="-10.410" y2="-4.820" stroke="#d24d4d" stroke-width="0.080" stroke-linecap="round" opacity="0.7"/><path d="M -4.826 -3.619 A 0.508 0.508 0 0 1 -4.334 -3.239" fill="none" stroke="#e6e9ef" stroke-width="0.12" opacity="1"/><path d="M -2.112 3.302 A 0.508 0.508 0 0 1 -2.603 3.683" fill="none" stroke="#e6e9ef" stroke-width="0.12" opacity="1"/><path d="M 0.397 -3.239 A 0.508 0.508 0 0 1 0.889 -3.619" fill="none" stroke="#e6e9ef" stroke-width="0.12" opacity="1"/><path d="M 2.603 3.683 A 0.508 0.508 0 0 1 2.112 3.302" fill="none" stroke="#e6e9ef" stroke-width="0.12" opacity="1"/><path d="M -4.826 -3.619 A 0.508 0.508 0 0 1 -4.334 -3.239" fill="none" stroke="#6b7280" stroke-width="0.12" opacity="0.8"/><path d="M -2.112 3.302 A 0.508 0.508 0 0 1 -2.603 3.683" fill="none" stroke="#6b7280" stroke-width="0.12" opacity="0.8"/><path d="M 0.397 -3.239 A 0.508 0.508 0 0 1 0.889 -3.619" fill="none" stroke="#6b7280" stroke-width="0.12" opacity="0.8"/><path d="M 2.603 3.683 A 0.508 0.508 0 0 1 2.112 3.302" fill="none" stroke="#6b7280" stroke-width="0.12" opacity="0.8"/><circle cx="-5.050" cy="5.200" r="0.150" fill="none" stroke="#e6e9ef" stroke-width="0.12" opacity="1"/><circle cx="-5.050" cy="5.200" r="0.150" fill="none" stroke="#6b7280" stroke-width="0.12" opacity="0.8"/><rect x="-5.880" y="0.470" width="1.600" height="1.600" rx="0.800" fill="#c79b5c"/><circle cx="-5.080" cy="1.270" r="0.450" fill="#12151c"/><rect x="-5.880" y="-2.070" width="1.600" height="1.600" rx="0.800" fill="#c79b5c"/><circle cx="-5.080" cy="-1.270" r="0.450" fill="#12151c"/><rect x="-3.340" y="0.470" width="1.600" height="1.600" rx="0.800" fill="#c79b5c"/><circle cx="-2.540" cy="1.270" r="0.450" fill="#12151c"/><rect x="-3.340" y="-2.070" width="1.600" height="1.600" rx="0.800" fill="#c79b5c"/><circle cx="-2.540" cy="-1.270" r="0.450" fill="#12151c"/><rect x="-0.800" y="0.470" width="1.600" height="1.600" rx="0.800" fill="#c79b5c"/><circle cx="0.000" cy="1.270" r="0.450" fill="#12151c"/><rect x="-0.800" y="-2.070" width="1.600" height="1.600" rx="0.800" fill="#c79b5c"/><circle cx="0.000" cy="-1.270" r="0.450" fill="#12151c"/><rect x="1.740" y="0.470" width="1.600" height="1.600" rx="0.800" fill="#c79b5c"/><circle cx="2.540" cy="1.270" r="0.450" fill="#12151c"/><rect x="1.740" y="-2.070" width="1.600" height="1.600" rx="0.800" fill="#c79b5c"/><circle cx="2.540" cy="-1.270" r="0.450" fill="#12151c"/><rect x="4.280" y="0.470" width="1.600" height="1.600" rx="0.800" fill="#c79b5c"/><circle cx="5.080" cy="1.270" r="0.450" fill="#12151c"/><rect x="4.280" y="-2.070" width="1.600" height="1.600" rx="0.800" fill="#c79b5c"/><circle cx="5.080" cy="-1.270" r="0.450" fill="#12151c"/></svg>