<svg xmlns="http://www.w3.org/2000/svg" viewBox="-4.62 -4.15 8.78 8.30" preserveAspectRatio="xMidYMid meet" style="width:100%;height:100%"><rect x="-4.62" y="-4.15" width="8.78" height="8.30" fill="#12151c"/><line x1="-2.500" y1="-2.300" x2="-2.300" y2="-2.500" stroke="#e6e9ef" stroke-width="0.200" stroke-linecap="round" opacity="1"/><line x1="-2.500" y1="-2.250" x2="-2.500" y2="-2.300" stroke="#e6e9ef" stroke-width="0.200" stroke-linecap="round" opacity="1"/><line x1="-2.500" y1="2.500" x2="-2.500" y2="2.250" stroke="#e6e9ef" stroke-width="0.200" stroke-linecap="round" opacity="1"/><line x1="-2.500" y1="2.500" x2="-2.250" y2="2.500" stroke="#e6e9ef" stroke-width="0.200" stroke-linecap="round" opacity="1"/><line x1="-2.300" y1="-2.500" x2="-2.250" y2="-2.500" stroke="#e6e9ef" stroke-width="0.200" stroke-linecap="round" opacity="1"/><line x1="2.250" y1="-2.500" x2="2.500" y2="-2.500" stroke="#e6e9ef" stroke-width="0.200" stroke-linecap="round" opacity="1"/><line x1="2.250" y1="2.500" x2="2.500" y2="2.500" stroke="#e6e9ef" stroke-width="0.200" stroke-linecap="round" opacity="1"/><line x1="2.500" y1="-2.250" x2="2.500" y2="-2.500" stroke="#e6e9ef" stroke-width="0.200" stroke-linecap="round" opacity="1"/><line x1="2.500" y1="2.500" x2="2.500" y2="2.250" stroke="#e6e9ef" stroke-width="0.200" stroke-linecap="round" opacity="1"/><line x1="-2.500" y1="-2.500" x2="2.500" y2="-2.500" stroke="#4a5160" stroke-width="0.080" stroke-linecap="round" opacity="0.7"/><line x1="-2.500" y1="2.500" x2="-2.500" y2="-2.500" stroke="#4a5160" stroke-width="0.080" stroke-linecap="round" opacity="0.7"/><line x1="-2.500" y1="2.500" x2="2.500" y2="2.500" stroke="#4a5160" stroke-width="0.080" stroke-linecap="round" opacity="0.7"/><line x1="2.500" y1="2.500" x2="2.500" y2="-2.500" stroke="#4a5160" stroke-width="0.080" stroke-linecap="round" opacity="0.7"/><line x1="-3.150" y1="-3.150" x2="3.150" y2="-3.150" stroke="#d24d4d" stroke-width="0.080" stroke-linecap="round" opacity="0.7"/><line x1="-3.150" y1="3.150" x2="-3.150" y2="-3.150" stroke="#d24d4d" stroke-width="0.080" stroke-linecap="round" opacity="0.7"/><line x1="-3.150" y1="3.150" x2="3.150" y2="3.150" stroke="#d24d4d" stroke-width="0.080" stroke-linecap="round" opacity="0.7"/><line x1="3.150" y1="3.150" x2="3.150" y2="-3.150" stroke="#d24d4d" stroke-width="0.080" stroke-linecap="round" opacity="0.7"/><line x1="-2.500" y1="-2.500" x2="2.500" y2="-2.500" stroke="#6b7280" stroke-width="0.100" stroke-linecap="round" opacity="0.8"/><line x1="-2.500" y1="2.500" x2="-2.500" y2="-2.500" stroke="#6b7280" stroke-width="0.100" stroke-linecap="round" opacity="0.8"/><line x1="-2.500" y1="2.500" x2="2.500" y2="2.500" stroke="#6b7280" stroke-width="0.100" stroke-linecap="round" opacity="0.8"/><line x1="2.500" y1="2.500" x2="2.500" y2="-2.500" stroke="#6b7280" stroke-width="0.100" stroke-linecap="round" opacity="0.8"/><circle cx="-3.500" cy="-1.750" r="0.125" fill="none" stroke="#e6e9ef" stroke-width="0.12" opacity="1"/><circle cx="-1.200" cy="-1.200" r="0.500" fill="none" stroke="#6b7280" stroke-width="0.12" opacity="0.8"/><rect x="-2.900" y="-1.875" width="0.700" height="0.250" rx="0.000" fill="#c79b5c"/><rect x="-2.900" y="-1.375" width="0.700" height="0.250" rx="0.000" fill="#c79b5c"/><rect x="-2.900" y="-0.875" width="0.700" height="0.250" rx="0.000" fill="#c79b5c"/><rect x="-2.900" y="-0.375" width="0.700" height="0.250" rx="0.000" fill="#c79b5c"/><rect x="-2.900" y="0.125" width="0.700" height="0.250" rx="0.000" fill="#c79b5c"/><rect x="-2.900" y="0.625" width="0.700" height="0.250" rx="0.000" fill="#c79b5c"/><rect x="-2.900" y="1.125" width="0.700" height="0.250" rx="0.000" fill="#c79b5c"/><rect x="-2.900" y="1.625" width="0.700" height="0.250" rx="0.000" fill="#c79b5c"/><rect x="-2.100" y="2.425" width="0.700" height="0.250" rx="0.000" fill="#c79b5c"/><rect x="-1.600" y="2.425" width="0.700" height="0.250" rx="0.000" fill="#c79b5c"/><rect x="-1.100" y="2.425" width="0.700" height="0.250" rx="0.000" fill="#c79b5c"/><rect x="-0.600" y="2.425" width="0.700" height="0.250" rx="0.000" fill="#c79b5c"/><rect x="-0.100" y="2.425" width="0.700" height="0.250" rx="0.000" fill="#c79b5c"/><rect x="0.400" y="2.425" width="0.700" height="0.250" rx="0.000" fill="#c79b5c"/><rect x="0.900" y="2.425" width="0.700" height="0.250" rx="0.000" fill="#c79b5c"/><rect x="1.400" y="2.425" width="0.700" height="0.250" rx="0.000" fill="#c79b5c"/><rect x="2.200" y="1.625" width="0.700" height="0.250" rx="0.000" fill="#c79b5c"/><rect x="2.200" y="1.125" width="0.700" height="0.250" rx="0.000" fill="#c79b5c"/><rect x="2.200" y="0.625" width="0.700" height="0.250" rx="0.000" fill="#c79b5c"/><rect x="2.200" y="0.125" width="0.700" height="0.250" rx="0.000" fill="#c79b5c"/><rect x="2.200" y="-0.375" width="0.700" height="0.250" rx="0.000" fill="#c79b5c"/><rect x="2.200" y="-0.875" width="0.700" height="0.250" rx="0.000" fill="#c79b5c"/><rect x="2.200" y="-1.375" width="0.700" height="0.250" rx="0.000" fill="#c79b5c"/><rect x="2.200" y="-1.875" width="0.700" height="0.250" rx="0.000" fill="#c79b5c"/><rect x="1.400" y="-2.675" width="0.700" height="0.250" rx="0.000" fill="#c79b5c"/><rect x="0.900" y="-2.675" width="0.700" height="0.250" rx="0.000" fill="#c79b5c"/><rect x="0.400" y="-2.675" width="0.700" height="0.250" rx="0.000" fill="#c79b5c"/><rect x="-0.100" y="-2.675" width="0.700" height="0.250" rx="0.000" fill="#c79b5c"/><rect x="-0.600" y="-2.675" width="0.700" height="0.250" rx="0.000" fill="#c79b5c"/><rect x="-1.100" y="-2.675" width="0.700" height="0.250" rx="0.000" fill="#c79b5c"/><rect x="-1.600" y="-2.675" width="0.700" height="0.250" rx="0.000" fill="#c79b5c"/><rect x="-2.100" y="-2.675" width="0.700" height="0.250" rx="0.000" fill="#c79b5c"/><rect x="-1.800" y="-1.800" width="3.600" height="3.600" rx="0.000" fill="#c79b5c"/></svg>