<svg xmlns="http://www.w3.org/2000/svg" viewBox="-6.85 -4.50 13.72 9.00" preserveAspectRatio="xMidYMid meet" style="width:100%;height:100%"><rect x="-6.85" y="-4.50" width="13.72" height="9.00" fill="#12151c"/><line x1="-3.060" y1="-0.475" x2="-2.810" y2="-0.475" stroke="#e6e9ef" stroke-width="0.200" stroke-linecap="round" opacity="1"/><line x1="-3.060" y1="0.475" x2="-3.060" y2="-0.475" stroke="#e6e9ef" stroke-width="0.200" stroke-linecap="round" opacity="1"/><line x1="-3.060" y1="0.475" x2="-2.810" y2="0.475" stroke="#e6e9ef" stroke-width="0.200" stroke-linecap="round" opacity="1"/><line x1="-2.810" y1="-0.375" x2="-2.810" y2="-0.475" stroke="#e6e9ef" stroke-width="0.200" stroke-linecap="round" opacity="1"/><line x1="-2.810" y1="-0.375" x2="-2.260" y2="-0.375" stroke="#e6e9ef" stroke-width="0.200" stroke-linecap="round" opacity="1"/><line x1="-2.810" y1="0.375" x2="-2.260" y2="0.375" stroke="#e6e9ef" stroke-width="0.200" stroke-linecap="round" opacity="1"/><line x1="-2.810" y1="0.475" x2="-2.810" y2="0.375" stroke="#e6e9ef" stroke-width="0.200" stroke-linecap="round" opacity="1"/><line x1="-2.780" y1="-2.755" x2="-2.660" y2="-2.755" stroke="#e6e9ef" stroke-width="0.200" stroke-linecap="round" opacity="1"/><line x1="-2.780" y1="-1.805" x2="-2.660" y2="-1.805" stroke="#e6e9ef" stroke-width="0.200" stroke-linecap="round" opacity="1"/><line x1="-2.780" y1="1.805" x2="-2.660" y2="1.805" stroke="#e6e9ef" stroke-width="0.200" stroke-linecap="round" opacity="1"/><line x1="-2.780" y1="2.755" x2="-2.660" y2="2.755" stroke="#e6e9ef" stroke-width="0.200" stroke-linecap="round" opacity="1"/><line x1="-2.660" y1="-2.655" x2="-2.660" y2="-2.755" stroke="#e6e9ef" stroke-width="0.200" stroke-linecap="round" opacity="1"/><line x1="-2.660" y1="-2.655" x2="-2.260" y2="-2.655" stroke="#e6e9ef" stroke-width="0.200" stroke-linecap="round" opacity="1"/><line x1="-2.660" y1="-1.905" x2="-2.260" y2="-1.905" stroke="#e6e9ef" stroke-width="0.200" stroke-linecap="round" opacity="1"/><line x1="-2.660" y1="-1.805" x2="-2.660" y2="-1.905" stroke="#e6e9ef" stroke-width="0.200" stroke-linecap="round" opacity="1"/><line x1="-2.660" y1="1.905" x2="-2.660" y2="1.805" stroke="#e6e9ef" stroke-width="0.200" stroke-linecap="round" opacity="1"/><line x1="-2.660" y1="1.905" x2="-2.260" y2="1.905" stroke="#e6e9ef" stroke-width="0.200" stroke-linecap="round" opacity="1"/><line x1="-2.660" y1="2.655" x2="-2.260" y2="2.655" stroke="#e6e9ef" stroke-width="0.200" stroke-linecap="round" opacity="1"/><line x1="-2.660" y1="2.755" x2="-2.660" y2="2.655" stroke="#e6e9ef" stroke-width="0.200" stroke-linecap="round" opacity="1"/><line x1="-2.260" y1="-3.215" x2="-2.225" y2="-3.250" stroke="#e6e9ef" stroke-width="0.200" stroke-linecap="round" opacity="1"/><line x1="-2.260" y1="-3.171" x2="-2.179" y2="-3.090" stroke="#e6e9ef" stroke-width="0.200" stroke-linecap="round" opacity="1"/><line x1="-2.260" y1="3.171" x2="-2.179" y2="3.090" stroke="#e6e9ef" stroke-width="0.200" stroke-linecap="round" opacity="1"/><line x1="-2.260" y1="3.215" x2="-2.260" y2="-3.215" stroke="#e6e9ef" stroke-width="0.200" stroke-linecap="round" opacity="1"/><line x1="-2.260" y1="3.215" x2="-2.225" y2="3.250" stroke="#e6e9ef" stroke-width="0.200" stroke-linecap="round" opacity="1"/><line x1="-2.225" y1="-3.250" x2="-1.480" y2="-3.250" stroke="#e6e9ef" stroke-width="0.200" stroke-linecap="round" opacity="1"/><line x1="-2.225" y1="3.250" x2="-1.480" y2="3.250" stroke="#e6e9ef" stroke-width="0.200" stroke-linecap="round" opacity="1"/><line x1="-2.181" y1="3.250" x2="-2.181" y2="-3.250" stroke="#e6e9ef" stroke-width="0.200" stroke-linecap="round" opacity="1"/><line x1="-2.179" y1="-3.090" x2="-1.480" y2="-3.090" stroke="#e6e9ef" stroke-width="0.200" stroke-linecap="round" opacity="1"/><line x1="-2.179" y1="3.090" x2="-1.480" y2="3.090" stroke="#e6e9ef" stroke-width="0.200" stroke-linecap="round" opacity="1"/><line x1="-5.600" y1="-2.755" x2="-4.350" y2="-2.280" stroke="#4a5160" stroke-width="0.080" stroke-linecap="round" opacity="0.7"/><line x1="-5.600" y1="-2.755" x2="-3.100" y2="-2.755" stroke="#4a5160" stroke-width="0.080" stroke-linecap="round" opacity="0.7"/><line x1="-5.600" y1="-1.805" x2="-5.600" y2="-2.755" stroke="#4a5160" stroke-width="0.080" stroke-linecap="round" opacity="0.7"/><line x1="-5.600" y1="-1.805" x2="-4.350" y2="-2.280" stroke="#4a5160" stroke-width="0.080" stroke-linecap="round" opacity="0.7"/><line x1="-5.600" y1="-1.805" x2="-3.100" y2="-1.805" stroke="#4a5160" stroke-width="0.080" stroke-linecap="round" opacity="0.7"/><line x1="-5.600" y1="1.805" x2="-4.350" y2="2.280" stroke="#4a5160" stroke-width="0.080" stroke-linecap="round" opacity="0.7"/><line x1="-5.600" y1="1.805" x2="-3.100" y2="1.805" stroke="#4a5160" stroke-width="0.080" stroke-linecap="round" opacity="0.7"/><line x1="-5.600" y1="2.755" x2="-5.600" y2="1.805" stroke="#4a5160" stroke-width="0.080" stroke-linecap="round" opacity="0.7"/><line x1="-5.600" y1="2.755" x2="-4.350" y2="2.280" stroke="#4a5160" stroke-width="0.080" stroke-linecap="round" opacity="0.7"/><line x1="-5.600" y1="2.755" x2="-3.100" y2="2.755" stroke="#4a5160" stroke-width="0.080" stroke-linecap="round" opacity="0.7"/><line x1="-3.100" y1="-1.805" x2="-3.100" y2="-2.755" stroke="#4a5160" stroke-width="0.080" stroke-linecap="round" opacity="0.7"/><line x1="-3.100" y1="2.755" x2="-3.100" y2="1.805" stroke="#4a5160" stroke-width="0.080" stroke-linecap="round" opacity="0.7"/><line x1="-0.525" y1="-2.800" x2="5.625" y2="-2.800" stroke="#4a5160" stroke-width="0.080" stroke-linecap="round" opacity="0.7"/><line x1="-0.525" y1="2.800" x2="-0.525" y2="-2.800" stroke="#4a5160" stroke-width="0.080" stroke-linecap="round" opacity="0.7"/><line x1="-0.525" y1="2.800" x2="5.625" y2="2.800" stroke="#4a5160" stroke-width="0.080" stroke-linecap="round" opacity="0.7"/><line x1="-0.500" y1="0.000" x2="0.000" y2="0.000" stroke="#4a5160" stroke-width="0.080" stroke-linecap="round" opacity="0.7"/><line x1="0.000" y1="0.000" x2="0.000" y2="-0.500" stroke="#4a5160" stroke-width="0.080" stroke-linecap="round" opacity="0.7"/><line x1="0.000" y1="0.000" x2="0.500" y2="0.000" stroke="#4a5160" stroke-width="0.080" stroke-linecap="round" opacity="0.7"/><line x1="0.000" y1="0.500" x2="0.000" y2="0.000" stroke="#4a5160" stroke-width="0.080" stroke-linecap="round" opacity="0.7"/><line x1="2.550" y1="0.000" x2="5.625" y2="-2.800" stroke="#4a5160" stroke-width="0.080" stroke-linecap="round" opacity="0.7"/><line x1="2.550" y1="0.000" x2="5.625" y2="2.800" stroke="#4a5160" stroke-width="0.080" stroke-linecap="round" opacity="0.7"/><line x1="5.625" y1="2.800" x2="5.625" y2="-2.800" stroke="#4a5160" stroke-width="0.080" stroke-linecap="round" opacity="0.7"/><line x1="-5.850" y1="-3.500" x2="5.875" y2="-3.500" stroke="#d24d4d" stroke-width="0.080" stroke-linecap="round" opacity="0.7"/><line x1="-5.850" y1="3.500" x2="-5.850" y2="-3.500" stroke="#d24d4d" stroke-width="0.080" stroke-linecap="round" opacity="0.7"/><line x1="-5.850" y1="3.500" x2="5.875" y2="3.500" stroke="#d24d4d" stroke-width="0.080" stroke-linecap="round" opacity="0.7"/><line x1="5.875" y1="3.500" x2="5.875" y2="-3.500" stroke="#d24d4d" stroke-width="0.080" stroke-linecap="round" opacity="0.7"/><line x1="-5.020" y1="-2.655" x2="-3.260" y2="-2.655" stroke="#6b7280" stroke-width="0.100" stroke-linecap="round" opacity="0.8"/><line x1="-5.020" y1="-1.905" x2="-5.020" y2="-2.655" stroke="#6b7280" stroke-width="0.100" stroke-linecap="round" opacity="0.8"/><line x1="-5.020" y1="-1.905" x2="-3.260" y2="-1.905" stroke="#6b7280" stroke-width="0.100" stroke-linecap="round" opacity="0.8"/><line x1="-5.020" y1="1.905" x2="-3.260" y2="1.905" stroke="#6b7280" stroke-width="0.100" stroke-linecap="round" opacity="0.8"/><line x1="-5.020" y1="2.655" x2="-5.020" y2="1.905" stroke="#6b7280" stroke-width="0.100" stroke-linecap="round" opacity="0.8"/><line x1="-5.020" y1="2.655" x2="-3.260" y2="2.655" stroke="#6b7280" stroke-width="0.100" stroke-linecap="round" opacity="0.8"/><line x1="-4.427" y1="-1.905" x2="-4.427" y2="-2.655" stroke="#6b7280" stroke-width="0.100" stroke-linecap="round" opacity="0.8"/><line x1="-4.427" y1="2.655" x2="-4.427" y2="1.905" stroke="#6b7280" stroke-width="0.100" stroke-linecap="round" opacity="0.8"/><line x1="-4.180" y1="-1.905" x2="-4.178" y2="-2.655" stroke="#6b7280" stroke-width="0.100" stroke-linecap="round" opacity="0.8"/><line x1="-4.180" y1="2.655" x2="-4.180" y2="1.905" stroke="#6b7280" stroke-width="0.100" stroke-linecap="round" opacity="0.8"/><line x1="-3.427" y1="-1.905" x2="-3.427" y2="-2.655" stroke="#6b7280" stroke-width="0.100" stroke-linecap="round" opacity="0.8"/><line x1="-3.427" y1="2.655" x2="-3.427" y2="1.905" stroke="#6b7280" stroke-width="0.100" stroke-linecap="round" opacity="0.8"/><line x1="-3.260" y1="-2.755" x2="-2.660" y2="-2.755" stroke="#6b7280" stroke-width="0.100" stroke-linecap="round" opacity="0.8"/><line x1="-3.260" y1="-2.655" x2="-3.260" y2="-2.755" stroke="#6b7280" stroke-width="0.100" stroke-linecap="round" opacity="0.8"/><line x1="-3.260" y1="-1.805" x2="-3.260" y2="-1.905" stroke="#6b7280" stroke-width="0.100" stroke-linecap="round" opacity="0.8"/><line x1="-3.260" y1="-1.805" x2="-2.660" y2="-1.805" stroke="#6b7280" stroke-width="0.100" stroke-linecap="round" opacity="0.8"/><line x1="-3.260" y1="1.805" x2="-2.660" y2="1.805" stroke="#6b7280" stroke-width="0.100" stroke-linecap="round" opacity="0.8"/><line x1="-3.260" y1="1.905" x2="-3.260" y2="1.805" stroke="#6b7280" stroke-width="0.100" stroke-linecap="round" opacity="0.8"/><line x1="-3.260" y1="2.755" x2="-3.260" y2="2.655" stroke="#6b7280" stroke-width="0.100" stroke-linecap="round" opacity="0.8"/><line x1="-3.260" y1="2.755" x2="-2.660" y2="2.755" stroke="#6b7280" stroke-width="0.100" stroke-linecap="round" opacity="0.8"/><line x1="-3.060" y1="-0.475" x2="-2.810" y2="-0.475" stroke="#6b7280" stroke-width="0.100" stroke-linecap="round" opacity="0.8"/><line x1="-3.060" y1="0.475" x2="-3.060" y2="-0.475" stroke="#6b7280" stroke-width="0.100" stroke-linecap="round" opacity="0.8"/><line x1="-3.060" y1="0.475" x2="-2.810" y2="0.475" stroke="#6b7280" stroke-width="0.100" stroke-linecap="round" opacity="0.8"/><line x1="-2.810" y1="-0.375" x2="-2.810" y2="-0.475" stroke="#6b7280" stroke-width="0.100" stroke-linecap="round" opacity="0.8"/><line x1="-2.810" y1="-0.375" x2="-2.260" y2="-0.375" stroke="#6b7280" stroke-width="0.100" stroke-linecap="round" opacity="0.8"/><line x1="-2.810" y1="0.375" x2="-2.260" y2="0.375" stroke="#6b7280" stroke-width="0.100" stroke-linecap="round" opacity="0.8"/><line x1="-2.810" y1="0.475" x2="-2.810" y2="0.375" stroke="#6b7280" stroke-width="0.100" stroke-linecap="round" opacity="0.8"/><line x1="-2.660" y1="-2.655" x2="-2.660" y2="-2.755" stroke="#6b7280" stroke-width="0.100" stroke-linecap="round" opacity="0.8"/><line x1="-2.660" y1="-2.655" x2="-2.260" y2="-2.655" stroke="#6b7280" stroke-width="0.100" stroke-linecap="round" opacity="0.8"/><line x1="-2.660" y1="-1.905" x2="-2.260" y2="-1.905" stroke="#6b7280" stroke-width="0.100" stroke-linecap="round" opacity="0.8"/><line x1="-2.660" y1="-1.805" x2="-2.660" y2="-1.905" stroke="#6b7280" stroke-width="0.100" stroke-linecap="round" opacity="0.8"/><line x1="-2.660" y1="1.905" x2="-2.660" y2="1.805" stroke="#6b7280" stroke-width="0.100" stroke-linecap="round" opacity="0.8"/><line x1="-2.660" y1="1.905" x2="-2.260" y2="1.905" stroke="#6b7280" stroke-width="0.100" stroke-linecap="round" opacity="0.8"/><line x1="-2.660" y1="2.655" x2="-2.260" y2="2.655" stroke="#6b7280" stroke-width="0.100" stroke-linecap="round" opacity="0.8"/><line x1="-2.660" y1="2.755" x2="-2.660" y2="2.655" stroke="#6b7280" stroke-width="0.100" stroke-linecap="round" opacity="0.8"/><line x1="-2.260" y1="-3.215" x2="-2.225" y2="-3.250" stroke="#6b7280" stroke-width="0.100" stroke-linecap="round" opacity="0.8"/><line x1="-2.260" y1="-3.171" x2="-2.179" y2="-3.090" stroke="#6b7280" stroke-width="0.100" stroke-linecap="round" opacity="0.8"/><line x1="-2.260" y1="3.171" x2="-2.179" y2="3.090" stroke="#6b7280" stroke-width="0.100" stroke-linecap="round" opacity="0.8"/><line x1="-2.260" y1="3.215" x2="-2.260" y2="-3.215" stroke="#6b7280" stroke-width="0.100" stroke-linecap="round" opacity="0.8"/><line x1="-2.260" y1="3.215" x2="-2.225" y2="3.250" stroke="#6b7280" stroke-width="0.100" stroke-linecap="round" opacity="0.8"/><line x1="-2.225" y1="-3.250" x2="3.960" y2="-3.250" stroke="#6b7280" stroke-width="0.100" stroke-linecap="round" opacity="0.8"/><line x1="-2.225" y1="3.250" x2="3.960" y2="3.250" stroke="#6b7280" stroke-width="0.100" stroke-linecap="round" opacity="0.8"/><line x1="-2.181" y1="3.250" x2="-2.181" y2="-3.250" stroke="#6b7280" stroke-width="0.100" stroke-linecap="round" opacity="0.8"/><line x1="-2.179" y1="-3.090" x2="3.800" y2="-3.090" stroke="#6b7280" stroke-width="0.100" stroke-linecap="round" opacity="0.8"/><line x1="-2.179" y1="3.090" x2="3.800" y2="3.090" stroke="#6b7280" stroke-width="0.100" stroke-linecap="round" opacity="0.8"/><line x1="3.800" y1="-3.090" x2="3.960" y2="-3.250" stroke="#6b7280" stroke-width="0.100" stroke-linecap="round" opacity="0.8"/><line x1="3.800" y1="3.090" x2="3.800" y2="-3.090" stroke="#6b7280" stroke-width="0.100" stroke-linecap="round" opacity="0.8"/><line x1="3.800" y1="3.090" x2="3.960" y2="3.250" stroke="#6b7280" stroke-width="0.100" stroke-linecap="round" opacity="0.8"/><line x1="3.960" y1="-2.700" x2="4.960" y2="-2.700" stroke="#6b7280" stroke-width="0.100" stroke-linecap="round" opacity="0.8"/><line x1="3.960" y1="2.700" x2="4.960" y2="2.700" stroke="#6b7280" stroke-width="0.100" stroke-linecap="round" opacity="0.8"/><line x1="3.960" y1="3.250" x2="3.960" y2="-3.250" stroke="#6b7280" stroke-width="0.100" stroke-linecap="round" opacity="0.8"/><line x1="4.760" y1="1.800" x2="4.760" y2="-1.800" stroke="#6b7280" stroke-width="0.100" stroke-linecap="round" opacity="0.8"/><line x1="4.860" y1="-1.900" x2="4.960" y2="-1.900" stroke="#6b7280" stroke-width="0.100" stroke-linecap="round" opacity="0.8"/><line x1="4.860" y1="1.900" x2="4.960" y2="1.900" stroke="#6b7280" stroke-width="0.100" stroke-linecap="round" opacity="0.8"/><line x1="4.960" y1="-1.900" x2="4.960" y2="-2.700" stroke="#6b7280" stroke-width="0.100" stroke-linecap="round" opacity="0.8"/><line x1="4.960" y1="2.700" x2="4.960" y2="1.900" stroke="#6b7280" stroke-width="0.100" stroke-linecap="round" opacity="0.8"/><path d="M 4.760 -1.800 A 0.100 0.100 0 0 1 4.860 -1.900" fill="none" stroke="#6b7280" stroke-width="0.12" opacity="0.8"/><path d="M 4.860 1.900 A 0.100 0.100 0 0 1 4.760 1.800" fill="none" stroke="#6b7280" stroke-width="0.12" opacity="0.8"/><circle cx="-5.300" cy="-3.300" r="0.125" fill="none" stroke="#e6e9ef" stroke-width="0.12" opacity="1"/><rect x="-5.600" y="-2.755" width="2.500" height="0.950" rx="0.000" fill="#c79b5c"/><rect x="-5.600" y="1.805" width="2.500" height="0.950" rx="0.000" fill="#c79b5c"/><rect x="-0.525" y="-2.800" width="6.150" height="5.600" rx="0.000" fill="#c79b5c"/></svg>