<svg xmlns="http://www.w3.org/2000/svg" viewBox="-36.21 -9.90 72.41 25.50" preserveAspectRatio="xMidYMid meet" style="width:100%;height:100%"><rect x="-36.21" y="-9.90" width="72.41" height="25.50" fill="#12151c"/><line x1="-35.210" y1="-8.900" x2="35.200" y2="-8.900" stroke="#d24d4d" stroke-width="0.080" stroke-linecap="round" opacity="0.7"/><line x1="35.200" y1="-8.900" x2="35.200" y2="14.600" stroke="#d24d4d" stroke-width="0.080" stroke-linecap="round" opacity="0.7"/><line x1="35.200" y1="14.600" x2="-35.210" y2="14.600" stroke="#d24d4d" stroke-width="0.080" stroke-linecap="round" opacity="0.7"/><line x1="-35.210" y1="14.600" x2="-35.210" y2="-8.900" stroke="#d24d4d" stroke-width="0.080" stroke-linecap="round" opacity="0.7"/><path d="M -33.000 4.250 A 0.500 0.500 0 0 1 -33.500 3.750" fill="none" stroke="#e6e9ef" stroke-width="0.12" opacity="1"/><path d="M -32.379 13.896 A 0.500 0.500 0 0 1 -32.525 13.543" fill="none" stroke="#e6e9ef" stroke-width="0.12" opacity="1"/><path d="M -31.718 14.350 A 0.500 0.500 0 0 1 -32.071 14.204" fill="none" stroke="#e6e9ef" stroke-width="0.12" opacity="1"/><path d="M 32.071 14.204 A 0.500 0.500 0 0 1 31.718 14.350" fill="none" stroke="#e6e9ef" stroke-width="0.12" opacity="1"/><path d="M 32.525 13.543 A 0.500 0.500 0 0 1 32.379 13.896" fill="none" stroke="#e6e9ef" stroke-width="0.12" opacity="1"/><path d="M 33.500 3.750 A 0.500 0.500 0 0 1 33.000 4.250" fill="none" stroke="#e6e9ef" stroke-width="0.12" opacity="1"/><path d="M 34.950 2.550 A 1.000 1.000 0 0 1 33.950 3.550" fill="none" stroke="#e6e9ef" stroke-width="0.12" opacity="1"/><path d="M -34.957 -8.150 A 0.500 0.500 0 0 1 -34.457 -8.650" fill="none" stroke="#6b7280" stroke-width="0.12" opacity="0.8"/><path d="M -34.450 -2.750 A 0.500 0.500 0 0 1 -34.950 -3.250" fill="none" stroke="#6b7280" stroke-width="0.12" opacity="0.8"/><path d="M -33.950 3.550 A 1.000 1.000 0 0 1 -34.950 2.550" fill="none" stroke="#6b7280" stroke-width="0.12" opacity="0.8"/><path d="M -33.750 -8.650 A 1.600 1.600 0 0 1 -32.150 -7.050" fill="none" stroke="#6b7280" stroke-width="0.12" opacity="0.8"/><path d="M -33.000 4.250 A 0.500 0.500 0 0 1 -33.500 3.750" fill="none" stroke="#6b7280" stroke-width="0.12" opacity="0.8"/><path d="M -32.379 13.896 A 0.500 0.500 0 0 1 -32.525 13.543" fill="none" stroke="#6b7280" stroke-width="0.12" opacity="0.8"/><path d="M -32.150 -4.350 A 1.600 1.600 0 0 1 -33.750 -2.750" fill="none" stroke="#6b7280" stroke-width="0.12" opacity="0.8"/><path d="M -31.718 14.350 A 0.500 0.500 0 0 1 -32.071 14.204" fill="none" stroke="#6b7280" stroke-width="0.12" opacity="0.8"/><path d="M -31.600 -8.650 A 0.500 0.500 0 0 1 -31.100 -8.150" fill="none" stroke="#6b7280" stroke-width="0.12" opacity="0.8"/><path d="M 31.100 -8.150 A 0.500 0.500 0 0 1 31.600 -8.650" fill="none" stroke="#6b7280" stroke-width="0.12" opacity="0.8"/><path d="M 32.071 14.204 A 0.500 0.500 0 0 1 31.718 14.350" fill="none" stroke="#6b7280" stroke-width="0.12" opacity="0.8"/><path d="M 32.150 -7.050 A 1.600 1.600 0 0 1 33.750 -8.650" fill="none" stroke="#6b7280" stroke-width="0.12" opacity="0.8"/><path d="M 32.525 13.543 A 0.500 0.500 0 0 1 32.379 13.896" fill="none" stroke="#6b7280" stroke-width="0.12" opacity="0.8"/><path d="M 33.500 3.750 A 0.500 0.500 0 0 1 33.000 4.250" fill="none" stroke="#6b7280" stroke-width="0.12" opacity="0.8"/><path d="M 33.750 -2.750 A 1.600 1.600 0 0 1 32.150 -4.350" fill="none" stroke="#6b7280" stroke-width="0.12" opacity="0.8"/><path d="M 34.450 -8.650 A 0.500 0.500 0 0 1 34.950 -8.150" fill="none" stroke="#6b7280" stroke-width="0.12" opacity="0.8"/><path d="M 34.950 -3.250 A 0.500 0.500 0 0 1 34.450 -2.750" fill="none" stroke="#6b7280" stroke-width="0.12" opacity="0.8"/><path d="M 34.950 2.550 A 1.000 1.000 0 0 1 33.950 3.550" fill="none" stroke="#6b7280" stroke-width="0.12" opacity="0.8"/><circle cx="-33.650" cy="-4.250" r="0.735" fill="none" stroke="#6b7280" stroke-width="0.12" opacity="0.8"/><circle cx="-33.550" cy="-6.950" r="0.750" fill="none" stroke="#6b7280" stroke-width="0.12" opacity="0.8"/><circle cx="33.550" cy="-6.950" r="0.750" fill="none" stroke="#6b7280" stroke-width="0.12" opacity="0.8"/><circle cx="33.650" cy="-4.250" r="0.735" fill="none" stroke="#6b7280" stroke-width="0.12" opacity="0.8"/><circle cx="-33.300" cy="0.000" r="0.500" fill="none" stroke="#6b7280" stroke-width="0.1"/><circle cx="33.300" cy="0.000" r="0.500" fill="none" stroke="#6b7280" stroke-width="0.1"/><rect x="30.925" y="-2.675" width="1.150" height="1.150" rx="0.575" fill="#c79b5c"/><circle cx="31.500" cy="-2.100" r="0.275" fill="#12151c"/><rect x="30.175" y="-5.425" width="1.150" height="1.150" rx="0.575" fill="#c79b5c"/><circle cx="30.750" cy="-4.850" r="0.275" fill="#12151c"/><rect x="29.425" y="-4.175" width="1.150" height="1.150" rx="0.575" fill="#c79b5c"/><circle cx="30.000" cy="-3.600" r="0.275" fill="#12151c"/><rect x="28.675" y="-2.675" width="1.150" height="1.150" rx="0.575" fill="#c79b5c"/><circle cx="29.250" cy="-2.100" r="0.275" fill="#12151c"/><rect x="27.925" y="-5.425" width="1.150" height="1.150" rx="0.575" fill="#c79b5c"/><circle cx="28.500" cy="-4.850" r="0.275" fill="#12151c"/><rect x="27.175" y="-4.175" width="1.150" height="1.150" rx="0.575" fill="#c79b5c"/><circle cx="27.750" cy="-3.600" r="0.275" fill="#12151c"/><rect x="26.425" y="-2.675" width="1.150" height="1.150" rx="0.575" fill="#c79b5c"/><circle cx="27.000" cy="-2.100" r="0.275" fill="#12151c"/><rect x="25.675" y="-5.425" width="1.150" height="1.150" rx="0.575" fill="#c79b5c"/><circle cx="26.250" cy="-4.850" r="0.275" fill="#12151c"/><rect x="24.925" y="-4.175" width="1.150" height="1.150" rx="0.575" fill="#c79b5c"/><circle cx="25.500" cy="-3.600" r="0.275" fill="#12151c"/><rect x="24.175" y="-2.675" width="1.150" height="1.150" rx="0.575" fill="#c79b5c"/><circle cx="24.750" cy="-2.100" r="0.275" fill="#12151c"/><rect x="23.425" y="-5.425" width="1.150" height="1.150" rx="0.575" fill="#c79b5c"/><circle cx="24.000" cy="-4.850" r="0.275" fill="#12151c"/><rect x="22.675" y="-4.175" width="1.150" height="1.150" rx="0.575" fill="#c79b5c"/><circle cx="23.250" cy="-3.600" r="0.275" fill="#12151c"/><rect x="21.925" y="-2.675" width="1.150" height="1.150" rx="0.575" fill="#c79b5c"/><circle cx="22.500" cy="-2.100" r="0.275" fill="#12151c"/><rect x="21.175" y="-5.425" width="1.150" height="1.150" rx="0.575" fill="#c79b5c"/><circle cx="21.750" cy="-4.850" r="0.275" fill="#12151c"/><rect x="20.425" y="-4.175" width="1.150" height="1.150" rx="0.575" fill="#c79b5c"/><circle cx="21.000" cy="-3.600" r="0.275" fill="#12151c"/><rect x="19.675" y="-2.675" width="1.150" height="1.150" rx="0.575" fill="#c79b5c"/><circle cx="20.250" cy="-2.100" r="0.275" fill="#12151c"/><rect x="18.925" y="-5.425" width="1.150" height="1.150" rx="0.575" fill="#c79b5c"/><circle cx="19.500" cy="-4.850" r="0.275" fill="#12151c"/><rect x="18.175" y="-4.175" width="1.150" height="1.150" rx="0.575" fill="#c79b5c"/><circle cx="18.750" cy="-3.600" r="0.275" fill="#12151c"/><rect x="17.425" y="-2.675" width="1.150" height="1.150" rx="0.575" fill="#c79b5c"/><circle cx="18.000" cy="-2.100" r="0.275" fill="#12151c"/><rect x="16.675" y="-5.425" width="1.150" height="1.150" rx="0.575" fill="#c79b5c"/><circle cx="17.250" cy="-4.850" r="0.275" fill="#12151c"/><rect x="15.925" y="-4.175" width="1.150" height="1.150" rx="0.575" fill="#c79b5c"/><circle cx="16.500" cy="-3.600" r="0.275" fill="#12151c"/><rect x="15.175" y="-2.675" width="1.150" height="1.150" rx="0.575" fill="#c79b5c"/><circle cx="15.750" cy="-2.100" r="0.275" fill="#12151c"/><rect x="14.425" y="-5.425" width="1.150" height="1.150" rx="0.575" fill="#c79b5c"/><circle cx="15.000" cy="-4.850" r="0.275" fill="#12151c"/><rect x="13.675" y="-4.175" width="1.150" height="1.150" rx="0.575" fill="#c79b5c"/><circle cx="14.250" cy="-3.600" r="0.275" fill="#12151c"/><rect x="12.925" y="-2.675" width="1.150" height="1.150" rx="0.575" fill="#c79b5c"/><circle cx="13.500" cy="-2.100" r="0.275" fill="#12151c"/><rect x="12.175" y="-5.425" width="1.150" height="1.150" rx="0.575" fill="#c79b5c"/><circle cx="12.750" cy="-4.850" r="0.275" fill="#12151c"/><rect x="11.425" y="-4.175" width="1.150" height="1.150" rx="0.575" fill="#c79b5c"/><circle cx="12.000" cy="-3.600" r="0.275" fill="#12151c"/><rect x="10.675" y="-2.675" width="1.150" height="1.150" rx="0.575" fill="#c79b5c"/><circle cx="11.250" cy="-2.100" r="0.275" fill="#12151c"/><rect x="9.925" y="-5.425" width="1.150" height="1.150" rx="0.575" fill="#c79b5c"/><circle cx="10.500" cy="-4.850" r="0.275" fill="#12151c"/><rect x="9.175" y="-4.175" width="1.150" height="1.150" rx="0.575" fill="#c79b5c"/><circle cx="9.750" cy="-3.600" r="0.275" fill="#12151c"/><rect x="8.425" y="-2.675" width="1.150" height="1.150" rx="0.575" fill="#c79b5c"/><circle cx="9.000" cy="-2.100" r="0.275" fill="#12151c"/><rect x="7.675" y="-5.425" width="1.150" height="1.150" rx="0.575" fill="#c79b5c"/><circle cx="8.250" cy="-4.850" r="0.275" fill="#12151c"/><rect x="6.925" y="-4.175" width="1.150" height="1.150" rx="0.575" fill="#c79b5c"/><circle cx="7.500" cy="-3.600" r="0.275" fill="#12151c"/><rect x="6.175" y="-2.675" width="1.150" height="1.150" rx="0.575" fill="#c79b5c"/><circle cx="6.750" cy="-2.100" r="0.275" fill="#12151c"/><rect x="5.425" y="-5.425" width="1.150" height="1.150" rx="0.575" fill="#c79b5c"/><circle cx="6.000" cy="-4.850" r="0.275" fill="#12151c"/><rect x="4.675" y="-4.175" width="1.150" height="1.150" rx="0.575" fill="#c79b5c"/><circle cx="5.250" cy="-3.600" r="0.275" fill="#12151c"/><rect x="3.925" y="-2.675" width="1.150" height="1.150" rx="0.575" fill="#c79b5c"/><circle cx="4.500" cy="-2.100" r="0.275" fill="#12151c"/><rect x="3.175" y="-5.425" width="1.150" height="1.150" rx="0.575" fill="#c79b5c"/><circle cx="3.750" cy="-4.850" r="0.275" fill="#12151c"/><rect x="2.425" y="-4.175" width="1.150" height="1.150" rx="0.575" fill="#c79b5c"/><circle cx="3.000" cy="-3.600" r="0.275" fill="#12151c"/><rect x="1.675" y="-2.675" width="1.150" height="1.150" rx="0.575" fill="#c79b5c"/><circle cx="2.250" cy="-2.100" r="0.275" fill="#12151c"/><rect x="0.925" y="-5.425" width="1.150" height="1.150" rx="0.575" fill="#c79b5c"/><circle cx="1.500" cy="-4.850" r="0.275" fill="#12151c"/><rect x="0.175" y="-4.175" width="1.150" height="1.150" rx="0.575" fill="#c79b5c"/><circle cx="0.750" cy="-3.600" r="0.275" fill="#12151c"/><rect x="-0.575" y="-2.675" width="1.150" height="1.150" rx="0.575" fill="#c79b5c"/><circle cx="0.000" cy="-2.100" r="0.275" fill="#12151c"/><rect x="-1.325" y="-5.425" width="1.150" height="1.150" rx="0.575" fill="#c79b5c"/><circle cx="-0.750" cy="-4.850" r="0.275" fill="#12151c"/><rect x="-2.075" y="-4.175" width="1.150" height="1.150" rx="0.575" fill="#c79b5c"/><circle cx="-1.500" cy="-3.600" r="0.275" fill="#12151c"/><rect x="-2.825" y="-2.675" width="1.150" height="1.150" rx="0.575" fill="#c79b5c"/><circle cx="-2.250" cy="-2.100" r="0.275" fill="#12151c"/><rect x="-3.575" y="-5.425" width="1.150" height="1.150" rx="0.575" fill="#c79b5c"/><circle cx="-3.000" cy="-4.850" r="0.275" fill="#12151c"/><rect x="-4.325" y="-4.175" width="1.150" height="1.150" rx="0.575" fill="#c79b5c"/><circle cx="-3.750" cy="-3.600" r="0.275" fill="#12151c"/><rect x="-5.075" y="-2.675" width="1.150" height="1.150" rx="0.575" fill="#c79b5c"/><circle cx="-4.500" cy="-2.100" r="0.275" fill="#12151c"/><rect x="-5.825" y="-5.425" width="1.150" height="1.150" rx="0.575" fill="#c79b5c"/><circle cx="-5.250" cy="-4.850" r="0.275" fill="#12151c"/><rect x="-6.575" y="-4.175" width="1.150" height="1.150" rx="0.575" fill="#c79b5c"/><circle cx="-6.000" cy="-3.600" r="0.275" fill="#12151c"/><rect x="-7.325" y="-2.675" width="1.150" height="1.150" rx="0.575" fill="#c79b5c"/><circle cx="-6.750" cy="-2.100" r="0.275" fill="#12151c"/><rect x="-8.075" y="-5.425" width="1.150" height="1.150" rx="0.575" fill="#c79b5c"/><circle cx="-7.500" cy="-4.850" r="0.275" fill="#12151c"/><rect x="-8.825" y="-4.175" width="1.150" height="1.150" rx="0.575" fill="#c79b5c"/><circle cx="-8.250" cy="-3.600" r="0.275" fill="#12151c"/><rect x="-9.575" y="-2.675" width="1.150" height="1.150" rx="0.575" fill="#c79b5c"/><circle cx="-9.000" cy="-2.100" r="0.275" fill="#12151c"/><rect x="-10.325" y="-5.425" width="1.150" height="1.150" rx="0.575" fill="#c79b5c"/><circle cx="-9.750" cy="-4.850" r="0.275" fill="#12151c"/><rect x="-11.075" y="-4.175" width="1.150" height="1.150" rx="0.575" fill="#c79b5c"/><circle cx="-10.500" cy="-3.600" r="0.275" fill="#12151c"/><rect x="-11.825" y="-2.675" width="1.150" height="1.150" rx="0.575" fill="#c79b5c"/><circle cx="-11.250" cy="-2.100" r="0.275" fill="#12151c"/><rect x="-12.575" y="-5.425" width="1.150" height="1.150" rx="0.575" fill="#c79b5c"/><circle cx="-12.000" cy="-4.850" r="0.275" fill="#12151c"/><rect x="-13.325" y="-4.175" width="1.150" height="1.150" rx="0.575" fill="#c79b5c"/><circle cx="-12.750" cy="-3.600" r="0.275" fill="#12151c"/><rect x="-14.075" y="-2.675" width="1.150" height="1.150" rx="0.575" fill="#c79b5c"/><circle cx="-13.500" cy="-2.100" r="0.275" fill="#12151c"/><rect x="-14.825" y="-5.425" width="1.150" height="1.150" rx="0.575" fill="#c79b5c"/><circle cx="-14.250" cy="-4.850" r="0.275" fill="#12151c"/><rect x="-15.575" y="-4.175" width="1.150" height="1.150" rx="0.575" fill="#c79b5c"/><circle cx="-15.000" cy="-3.600" r="0.275" fill="#12151c"/><rect x="-16.325" y="-2.675" width="1.150" height="1.150" rx="0.575" fill="#c79b5c"/><circle cx="-15.750" cy="-2.100" r="0.275" fill="#12151c"/><rect x="-17.075" y="-5.425" width="1.150" height="1.150" rx="0.575" fill="#c79b5c"/><circle cx="-16.500" cy="-4.850" r="0.275" fill="#12151c"/><rect x="-17.825" y="-4.175" width="1.150" height="1.150" rx="0.575" fill="#c79b5c"/><circle cx="-17.250" cy="-3.600" r="0.275" fill="#12151c"/><rect x="-18.575" y="-2.675" width="1.150" height="1.150" rx="0.575" fill="#c79b5c"/><circle cx="-18.000" cy="-2.100" r="0.275" fill="#12151c"/><rect x="-19.325" y="-5.425" width="1.150" height="1.150" rx="0.575" fill="#c79b5c"/><circle cx="-18.750" cy="-4.850" r="0.275" fill="#12151c"/><rect x="-20.075" y="-4.175" width="1.150" height="1.150" rx="0.575" fill="#c79b5c"/><circle cx="-19.500" cy="-3.600" r="0.275" fill="#12151c"/><rect x="-20.825" y="-2.675" width="1.150" height="1.150" rx="0.575" fill="#c79b5c"/><circle cx="-20.250" cy="-2.100" r="0.275" fill="#12151c"/><rect x="-21.575" y="-5.425" width="1.150" height="1.150" rx="0.575" fill="#c79b5c"/><circle cx="-21.000" cy="-4.850" r="0.275" fill="#12151c"/><rect x="-22.325" y="-4.175" width="1.150" height="1.150" rx="0.575" fill="#c79b5c"/><circle cx="-21.750" cy="-3.600" r="0.275" fill="#12151c"/><rect x="-23.075" y="-2.675" width="1.150" height="1.150" rx="0.575" fill="#c79b5c"/><circle cx="-22.500" cy="-2.100" r="0.275" fill="#12151c"/><rect x="-23.825" y="-5.425" width="1.150" height="1.150" rx="0.575" fill="#c79b5c"/><circle cx="-23.250" cy="-4.850" r="0.275" fill="#12151c"/><rect x="-24.575" y="-4.175" width="1.150" height="1.150" rx="0.575" fill="#c79b5c"/><circle cx="-24.000" cy="-3.600" r="0.275" fill="#12151c"/><rect x="-25.325" y="-2.675" width="1.150" height="1.150" rx="0.575" fill="#c79b5c"/><circle cx="-24.750" cy="-2.100" r="0.275" fill="#12151c"/><rect x="-26.075" y="-5.425" width="1.150" height="1.150" rx="0.575" fill="#c79b5c"/><circle cx="-25.500" cy="-4.850" r="0.275" fill="#12151c"/><rect x="-26.825" y="-4.175" width="1.150" height="1.150" rx="0.575" fill="#c79b5c"/><circle cx="-26.250" cy="-3.600" r="0.275" fill="#12151c"/><rect x="-27.575" y="-2.675" width="1.150" height="1.150" rx="0.575" fill="#c79b5c"/><circle cx="-27.000" cy="-2.100" r="0.275" fill="#12151c"/><rect x="-28.325" y="-5.425" width="1.150" height="1.150" rx="0.575" fill="#c79b5c"/><circle cx="-27.750" cy="-4.850" r="0.275" fill="#12151c"/><rect x="-29.075" y="-4.175" width="1.150" height="1.150" rx="0.575" fill="#c79b5c"/><circle cx="-28.500" cy="-3.600" r="0.275" fill="#12151c"/><rect x="-29.825" y="-2.675" width="1.150" height="1.150" rx="0.575" fill="#c79b5c"/><circle cx="-29.250" cy="-2.100" r="0.275" fill="#12151c"/><rect x="-30.575" y="-5.425" width="1.150" height="1.150" rx="0.575" fill="#c79b5c"/><circle cx="-30.000" cy="-4.850" r="0.275" fill="#12151c"/><rect x="-31.325" y="-4.175" width="1.150" height="1.150" rx="0.575" fill="#c79b5c"/><circle cx="-30.750" cy="-3.600" r="0.275" fill="#12151c"/><rect x="-32.075" y="-2.675" width="1.150" height="1.150" rx="0.575" fill="#c79b5c"/><circle cx="-31.500" cy="-2.100" r="0.275" fill="#12151c"/><rect x="-32.075" y="1.575" width="1.150" height="1.150" rx="0.575" fill="#c79b5c"/><circle cx="-31.500" cy="2.150" r="0.275" fill="#12151c"/><rect x="-31.325" y="-1.175" width="1.150" height="1.150" rx="0.575" fill="#c79b5c"/><circle cx="-30.750" cy="-0.600" r="0.275" fill="#12151c"/><rect x="-30.575" y="0.075" width="1.150" height="1.150" rx="0.575" fill="#c79b5c"/><circle cx="-30.000" cy="0.650" r="0.275" fill="#12151c"/><rect x="-29.825" y="1.575" width="1.150" height="1.150" rx="0.575" fill="#c79b5c"/><circle cx="-29.250" cy="2.150" r="0.275" fill="#12151c"/><rect x="-29.075" y="-1.175" width="1.150" height="1.150" rx="0.575" fill="#c79b5c"/><circle cx="-28.500" cy="-0.600" r="0.275" fill="#12151c"/><rect x="-28.325" y="0.075" width="1.150" height="1.150" rx="0.575" fill="#c79b5c"/><circle cx="-27.750" cy="0.650" r="0.275" fill="#12151c"/><rect x="-27.575" y="1.575" width="1.150" height="1.150" rx="0.575" fill="#c79b5c"/><circle cx="-27.000" cy="2.150" r="0.275" fill="#12151c"/><rect x="-26.825" y="-1.175" width="1.150" height="1.150" rx="0.575" fill="#c79b5c"/><circle cx="-26.250" cy="-0.600" r="0.275" fill="#12151c"/><rect x="-26.075" y="0.075" width="1.150" height="1.150" rx="0.575" fill="#c79b5c"/><circle cx="-25.500" cy="0.650" r="0.275" fill="#12151c"/><rect x="-25.325" y="1.575" width="1.150" height="1.150" rx="0.575" fill="#c79b5c"/><circle cx="-24.750" cy="2.150" r="0.275" fill="#12151c"/><rect x="-24.575" y="-1.175" width="1.150" height="1.150" rx="0.575" fill="#c79b5c"/><circle cx="-24.000" cy="-0.600" r="0.275" fill="#12151c"/><rect x="-23.825" y="0.075" width="1.150" height="1.150" rx="0.575" fill="#c79b5c"/><circle cx="-23.250" cy="0.650" r="0.275" fill="#12151c"/><rect x="-23.075" y="1.575" width="1.150" height="1.150" rx="0.575" fill="#c79b5c"/><circle cx="-22.500" cy="2.150" r="0.275" fill="#12151c"/><rect x="-22.325" y="-1.175" width="1.150" height="1.150" rx="0.575" fill="#c79b5c"/><circle cx="-21.750" cy="-0.600" r="0.275" fill="#12151c"/><rect x="-21.575" y="0.075" width="1.150" height="1.150" rx="0.575" fill="#c79b5c"/><circle cx="-21.000" cy="0.650" r="0.275" fill="#12151c"/><rect x="-20.825" y="1.575" width="1.150" height="1.150" rx="0.575" fill="#c79b5c"/><circle cx="-20.250" cy="2.150" r="0.275" fill="#12151c"/><rect x="-20.075" y="-1.175" width="1.150" height="1.150" rx="0.575" fill="#c79b5c"/><circle cx="-19.500" cy="-0.600" r="0.275" fill="#12151c"/><rect x="-19.325" y="0.075" width="1.150" height="1.150" rx="0.575" fill="#c79b5c"/><circle cx="-18.750" cy="0.650" r="0.275" fill="#12151c"/><rect x="-18.575" y="1.575" width="1.150" height="1.150" rx="0.575" fill="#c79b5c"/><circle cx="-18.000" cy="2.150" r="0.275" fill="#12151c"/><rect x="-17.825" y="-1.175" width="1.150" height="1.150" rx="0.575" fill="#c79b5c"/><circle cx="-17.250" cy="-0.600" r="0.275" fill="#12151c"/><rect x="-17.075" y="0.075" width="1.150" height="1.150" rx="0.575" fill="#c79b5c"/><circle cx="-16.500" cy="0.650" r="0.275" fill="#12151c"/><rect x="-16.325" y="1.575" width="1.150" height="1.150" rx="0.575" fill="#c79b5c"/><circle cx="-15.750" cy="2.150" r="0.275" fill="#12151c"/><rect x="-15.575" y="-1.175" width="1.150" height="1.150" rx="0.575" fill="#c79b5c"/><circle cx="-15.000" cy="-0.600" r="0.275" fill="#12151c"/><rect x="-14.825" y="0.075" width="1.150" height="1.150" rx="0.575" fill="#c79b5c"/><circle cx="-14.250" cy="0.650" r="0.275" fill="#12151c"/><rect x="-14.075" y="1.575" width="1.150" height="1.150" rx="0.575" fill="#c79b5c"/><circle cx="-13.500" cy="2.150" r="0.275" fill="#12151c"/><rect x="-13.325" y="-1.175" width="1.150" height="1.150" rx="0.575" fill="#c79b5c"/><circle cx="-12.750" cy="-0.600" r="0.275" fill="#12151c"/><rect x="-12.575" y="0.075" width="1.150" height="1.150" rx="0.575" fill="#c79b5c"/><circle cx="-12.000" cy="0.650" r="0.275" fill="#12151c"/><rect x="-11.825" y="1.575" width="1.150" height="1.150" rx="0.575" fill="#c79b5c"/><circle cx="-11.250" cy="2.150" r="0.275" fill="#12151c"/><rect x="-11.075" y="-1.175" width="1.150" height="1.150" rx="0.575" fill="#c79b5c"/><circle cx="-10.500" cy="-0.600" r="0.275" fill="#12151c"/><rect x="-10.325" y="0.075" width="1.150" height="1.150" rx="0.575" fill="#c79b5c"/><circle cx="-9.750" cy="0.650" r="0.275" fill="#12151c"/><rect x="-9.575" y="1.575" width="1.150" height="1.150" rx="0.575" fill="#c79b5c"/><circle cx="-9.000" cy="2.150" r="0.275" fill="#12151c"/><rect x="-8.825" y="-1.175" width="1.150" height="1.150" rx="0.575" fill="#c79b5c"/><circle cx="-8.250" cy="-0.600" r="0.275" fill="#12151c"/><rect x="-8.075" y="0.075" width="1.150" height="1.150" rx="0.575" fill="#c79b5c"/><circle cx="-7.500" cy="0.650" r="0.275" fill="#12151c"/><rect x="-7.325" y="1.575" width="1.150" height="1.150" rx="0.575" fill="#c79b5c"/><circle cx="-6.750" cy="2.150" r="0.275" fill="#12151c"/><rect x="-6.575" y="-1.175" width="1.150" height="1.150" rx="0.575" fill="#c79b5c"/><circle cx="-6.000" cy="-0.600" r="0.275" fill="#12151c"/><rect x="-5.825" y="0.075" width="1.150" height="1.150" rx="0.575" fill="#c79b5c"/><circle cx="-5.250" cy="0.650" r="0.275" fill="#12151c"/><rect x="-5.075" y="1.575" width="1.150" height="1.150" rx="0.575" fill="#c79b5c"/><circle cx="-4.500" cy="2.150" r="0.275" fill="#12151c"/><rect x="-4.325" y="-1.175" width="1.150" height="1.150" rx="0.575" fill="#c79b5c"/><circle cx="-3.750" cy="-0.600" r="0.275" fill="#12151c"/><rect x="-3.575" y="0.075" width="1.150" height="1.150" rx="0.575" fill="#c79b5c"/><circle cx="-3.000" cy="0.650" r="0.275" fill="#12151c"/><rect x="-2.825" y="1.575" width="1.150" height="1.150" rx="0.575" fill="#c79b5c"/><circle cx="-2.250" cy="2.150" r="0.275" fill="#12151c"/><rect x="-2.075" y="-1.175" width="1.150" height="1.150" rx="0.575" fill="#c79b5c"/><circle cx="-1.500" cy="-0.600" r="0.275" fill="#12151c"/><rect x="-1.325" y="0.075" width="1.150" height="1.150" rx="0.575" fill="#c79b5c"/><circle cx="-0.750" cy="0.650" r="0.275" fill="#12151c"/><rect x="-0.575" y="1.575" width="1.150" height="1.150" rx="0.575" fill="#c79b5c"/><circle cx="0.000" cy="2.150" r="0.275" fill="#12151c"/><rect x="0.175" y="-1.175" width="1.150" height="1.150" rx="0.575" fill="#c79b5c"/><circle cx="0.750" cy="-0.600" r="0.275" fill="#12151c"/><rect x="0.925" y="0.075" width="1.150" height="1.150" rx="0.575" fill="#c79b5c"/><circle cx="1.500" cy="0.650" r="0.275" fill="#12151c"/><rect x="1.675" y="1.575" width="1.150" height="1.150" rx="0.575" fill="#c79b5c"/><circle cx="2.250" cy="2.150" r="0.275" fill="#12151c"/><rect x="2.425" y="-1.175" width="1.150" height="1.150" rx="0.575" fill="#c79b5c"/><circle cx="3.000" cy="-0.600" r="0.275" fill="#12151c"/><rect x="3.175" y="0.075" width="1.150" height="1.150" rx="0.575" fill="#c79b5c"/><circle cx="3.750" cy="0.650" r="0.275" fill="#12151c"/><rect x="3.925" y="1.575" width="1.150" height="1.150" rx="0.575" fill="#c79b5c"/><circle cx="4.500" cy="2.150" r="0.275" fill="#12151c"/><rect x="4.675" y="-1.175" width="1.150" height="1.150" rx="0.575" fill="#c79b5c"/><circle cx="5.250" cy="-0.600" r="0.275" fill="#12151c"/><rect x="5.425" y="0.075" width="1.150" height="1.150" rx="0.575" fill="#c79b5c"/><circle cx="6.000" cy="0.650" r="0.275" fill="#12151c"/><rect x="6.175" y="1.575" width="1.150" height="1.150" rx="0.575" fill="#c79b5c"/><circle cx="6.750" cy="2.150" r="0.275" fill="#12151c"/><rect x="6.925" y="-1.175" width="1.150" height="1.150" rx="0.575" fill="#c79b5c"/><circle cx="7.500" cy="-0.600" r="0.275" fill="#12151c"/><rect x="7.675" y="0.075" width="1.150" height="1.150" rx="0.575" fill="#c79b5c"/><circle cx="8.250" cy="0.650" r="0.275" fill="#12151c"/><rect x="8.425" y="1.575" width="1.150" height="1.150" rx="0.575" fill="#c79b5c"/><circle cx="9.000" cy="2.150" r="0.275" fill="#12151c"/><rect x="9.175" y="-1.175" width="1.150" height="1.150" rx="0.575" fill="#c79b5c"/><circle cx="9.750" cy="-0.600" r="0.275" fill="#12151c"/><rect x="9.925" y="0.075" width="1.150" height="1.150" rx="0.575" fill="#c79b5c"/><circle cx="10.500" cy="0.650" r="0.275" fill="#12151c"/><rect x="10.675" y="1.575" width="1.150" height="1.150" rx="0.575" fill="#c79b5c"/><circle cx="11.250" cy="2.150" r="0.275" fill="#12151c"/><rect x="11.425" y="-1.175" width="1.150" height="1.150" rx="0.575" fill="#c79b5c"/><circle cx="12.000" cy="-0.600" r="0.275" fill="#12151c"/><rect x="12.175" y="0.075" width="1.150" height="1.150" rx="0.575" fill="#c79b5c"/><circle cx="12.750" cy="0.650" r="0.275" fill="#12151c"/><rect x="12.925" y="1.575" width="1.150" height="1.150" rx="0.575" fill="#c79b5c"/><circle cx="13.500" cy="2.150" r="0.275" fill="#12151c"/><rect x="13.675" y="-1.175" width="1.150" height="1.150" rx="0.575" fill="#c79b5c"/><circle cx="14.250" cy="-0.600" r="0.275" fill="#12151c"/><rect x="14.425" y="0.075" width="1.150" height="1.150" rx="0.575" fill="#c79b5c"/><circle cx="15.000" cy="0.650" r="0.275" fill="#12151c"/><rect x="15.175" y="1.575" width="1.150" height="1.150" rx="0.575" fill="#c79b5c"/><circle cx="15.750" cy="2.150" r="0.275" fill="#12151c"/><rect x="15.925" y="-1.175" width="1.150" height="1.150" rx="0.575" fill="#c79b5c"/><circle cx="16.500" cy="-0.600" r="0.275" fill="#12151c"/><rect x="16.675" y="0.075" width="1.150" height="1.150" rx="0.575" fill="#c79b5c"/><circle cx="17.250" cy="0.650" r="0.275" fill="#12151c"/><rect x="17.425" y="1.575" width="1.150" height="1.150" rx="0.575" fill="#c79b5c"/><circle cx="18.000" cy="2.150" r="0.275" fill="#12151c"/><rect x="18.175" y="-1.175" width="1.150" height="1.150" rx="0.575" fill="#c79b5c"/><circle cx="18.750" cy="-0.600" r="0.275" fill="#12151c"/><rect x="18.925" y="0.075" width="1.150" height="1.150" rx="0.575" fill="#c79b5c"/><circle cx="19.500" cy="0.650" r="0.275" fill="#12151c"/><rect x="19.675" y="1.575" width="1.150" height="1.150" rx="0.575" fill="#c79b5c"/><circle cx="20.250" cy="2.150" r="0.275" fill="#12151c"/><rect x="20.425" y="-1.175" width="1.150" height="1.150" rx="0.575" fill="#c79b5c"/><circle cx="21.000" cy="-0.600" r="0.275" fill="#12151c"/><rect x="21.175" y="0.075" width="1.150" height="1.150" rx="0.575" fill="#c79b5c"/><circle cx="21.750" cy="0.650" r="0.275" fill="#12151c"/><rect x="21.925" y="1.575" width="1.150" height="1.150" rx="0.575" fill="#c79b5c"/><circle cx="22.500" cy="2.150" r="0.275" fill="#12151c"/><rect x="22.675" y="-1.175" width="1.150" height="1.150" rx="0.575" fill="#c79b5c"/><circle cx="23.250" cy="-0.600" r="0.275" fill="#12151c"/><rect x="23.425" y="0.075" width="1.150" height="1.150" rx="0.575" fill="#c79b5c"/><circle cx="24.000" cy="0.650" r="0.275" fill="#12151c"/><rect x="24.175" y="1.575" width="1.150" height="1.150" rx="0.575" fill="#c79b5c"/><circle cx="24.750" cy="2.150" r="0.275" fill="#12151c"/><rect x="24.925" y="-1.175" width="1.150" height="1.150" rx="0.575" fill="#c79b5c"/><circle cx="25.500" cy="-0.600" r="0.275" fill="#12151c"/><rect x="25.675" y="0.075" width="1.150" height="1.150" rx="0.575" fill="#c79b5c"/><circle cx="26.250" cy="0.650" r="0.275" fill="#12151c"/><rect x="26.425" y="1.575" width="1.150" height="1.150" rx="0.575" fill="#c79b5c"/><circle cx="27.000" cy="2.150" r="0.275" fill="#12151c"/><rect x="27.175" y="-1.175" width="1.150" height="1.150" rx="0.575" fill="#c79b5c"/><circle cx="27.750" cy="-0.600" r="0.275" fill="#12151c"/><rect x="27.925" y="0.075" width="1.150" height="1.150" rx="0.575" fill="#c79b5c"/><circle cx="28.500" cy="0.650" r="0.275" fill="#12151c"/><rect x="28.675" y="1.575" width="1.150" height="1.150" rx="0.575" fill="#c79b5c"/><circle cx="29.250" cy="2.150" r="0.275" fill="#12151c"/><rect x="29.425" y="-1.175" width="1.150" height="1.150" rx="0.575" fill="#c79b5c"/><circle cx="30.000" cy="-0.600" r="0.275" fill="#12151c"/><rect x="30.175" y="0.075" width="1.150" height="1.150" rx="0.575" fill="#c79b5c"/><circle cx="30.750" cy="0.650" r="0.275" fill="#12151c"/><rect x="30.925" y="1.575" width="1.150" height="1.150" rx="0.575" fill="#c79b5c"/><circle cx="31.500" cy="2.150" r="0.275" fill="#12151c"/></svg>