<svg xmlns="http://www.w3.org/2000/svg" viewBox="-9.25 -4.19 18.50 7.71" preserveAspectRatio="xMidYMid meet" style="width:100%;height:100%"><rect x="-9.25" y="-4.19" width="18.50" height="7.71" fill="#12151c"/><line x1="-8.000" y1="-2.945" x2="0.000" y2="-2.945" stroke="#e6e9ef" stroke-width="0.200" stroke-linecap="round" opacity="1"/><line x1="-8.000" y1="0.000" x2="-6.880" y2="0.000" stroke="#e6e9ef" stroke-width="0.200" stroke-linecap="round" opacity="1"/><line x1="-8.000" y1="2.265" x2="-8.000" y2="-2.945" stroke="#e6e9ef" stroke-width="0.200" stroke-linecap="round" opacity="1"/><line x1="-8.000" y1="2.265" x2="8.000" y2="2.265" stroke="#e6e9ef" stroke-width="0.200" stroke-linecap="round" opacity="1"/><line x1="-7.300" y1="-2.745" x2="-7.300" y2="-2.945" stroke="#e6e9ef" stroke-width="0.200" stroke-linecap="round" opacity="1"/><line x1="-7.300" y1="-2.745" x2="7.300" y2="-2.745" stroke="#e6e9ef" stroke-width="0.200" stroke-linecap="round" opacity="1"/><line x1="-3.280" y1="0.000" x2="3.280" y2="0.000" stroke="#e6e9ef" stroke-width="0.200" stroke-linecap="round" opacity="1"/><line x1="0.000" y1="-2.945" x2="8.000" y2="-2.945" stroke="#e6e9ef" stroke-width="0.200" stroke-linecap="round" opacity="1"/><line x1="6.880" y1="0.000" x2="8.000" y2="0.000" stroke="#e6e9ef" stroke-width="0.200" stroke-linecap="round" opacity="1"/><line x1="7.300" y1="-2.745" x2="7.300" y2="-2.945" stroke="#e6e9ef" stroke-width="0.200" stroke-linecap="round" opacity="1"/><line x1="8.000" y1="2.265" x2="8.000" y2="-2.945" stroke="#e6e9ef" stroke-width="0.200" stroke-linecap="round" opacity="1"/><line x1="-5.580" y1="0.000" x2="-5.080" y2="0.000" stroke="#4a5160" stroke-width="0.100" stroke-linecap="round" opacity="0.7"/><line x1="-5.080" y1="0.000" x2="-5.080" y2="-0.500" stroke="#4a5160" stroke-width="0.100" stroke-linecap="round" opacity="0.7"/><line x1="-5.080" y1="0.000" x2="-4.580" y2="0.000" stroke="#4a5160" stroke-width="0.100" stroke-linecap="round" opacity="0.7"/><line x1="-5.080" y1="0.500" x2="-5.080" y2="0.000" stroke="#4a5160" stroke-width="0.100" stroke-linecap="round" opacity="0.7"/><line x1="-0.500" y1="0.000" x2="0.000" y2="0.000" stroke="#4a5160" stroke-width="0.100" stroke-linecap="round" opacity="0.7"/><line x1="0.000" y1="0.000" x2="0.000" y2="-0.500" stroke="#4a5160" stroke-width="0.100" stroke-linecap="round" opacity="0.7"/><line x1="0.000" y1="0.000" x2="0.500" y2="0.000" stroke="#4a5160" stroke-width="0.100" stroke-linecap="round" opacity="0.7"/><line x1="0.000" y1="0.500" x2="0.000" y2="0.000" stroke="#4a5160" stroke-width="0.100" stroke-linecap="round" opacity="0.7"/><line x1="4.580" y1="0.000" x2="5.080" y2="0.000" stroke="#4a5160" stroke-width="0.100" stroke-linecap="round" opacity="0.7"/><line x1="5.080" y1="0.000" x2="5.080" y2="-0.500" stroke="#4a5160" stroke-width="0.100" stroke-linecap="round" opacity="0.7"/><line x1="5.080" y1="0.000" x2="5.580" y2="0.000" stroke="#4a5160" stroke-width="0.100" stroke-linecap="round" opacity="0.7"/><line x1="5.080" y1="0.500" x2="5.080" y2="0.000" stroke="#4a5160" stroke-width="0.100" stroke-linecap="round" opacity="0.7"/><line x1="-8.000" y1="-2.945" x2="0.000" y2="-2.945" stroke="#6b7280" stroke-width="0.100" stroke-linecap="round" opacity="0.8"/><line x1="-8.000" y1="0.000" x2="8.000" y2="0.000" stroke="#6b7280" stroke-width="0.100" stroke-linecap="round" opacity="0.8"/><line x1="-8.000" y1="2.265" x2="-8.000" y2="-2.945" stroke="#6b7280" stroke-width="0.100" stroke-linecap="round" opacity="0.8"/><line x1="-8.000" y1="2.265" x2="8.000" y2="2.265" stroke="#6b7280" stroke-width="0.100" stroke-linecap="round" opacity="0.8"/><line x1="-7.300" y1="-2.745" x2="-7.300" y2="-2.945" stroke="#6b7280" stroke-width="0.100" stroke-linecap="round" opacity="0.8"/><line x1="-7.300" y1="-2.745" x2="7.300" y2="-2.745" stroke="#6b7280" stroke-width="0.100" stroke-linecap="round" opacity="0.8"/><line x1="0.000" y1="-2.945" x2="8.000" y2="-2.945" stroke="#6b7280" stroke-width="0.100" stroke-linecap="round" opacity="0.8"/><line x1="7.300" y1="-2.745" x2="7.300" y2="-2.945" stroke="#6b7280" stroke-width="0.100" stroke-linecap="round" opacity="0.8"/><line x1="8.000" y1="2.265" x2="8.000" y2="-2.945" stroke="#6b7280" stroke-width="0.100" stroke-linecap="round" opacity="0.8"/><line x1="-8.250" y1="-3.190" x2="8.250" y2="-3.190" stroke="#d24d4d" stroke-width="0.080" stroke-linecap="round" opacity="0.7"/><line x1="8.250" y1="-3.190" x2="8.250" y2="2.520" stroke="#d24d4d" stroke-width="0.080" stroke-linecap="round" opacity="0.7"/><line x1="8.250" y1="2.520" x2="-8.250" y2="2.520" stroke="#d24d4d" stroke-width="0.080" stroke-linecap="round" opacity="0.7"/><line x1="-8.250" y1="2.520" x2="-8.250" y2="-3.190" stroke="#d24d4d" stroke-width="0.080" stroke-linecap="round" opacity="0.7"/><circle cx="-5.080" cy="0.000" r="1.300" fill="none" stroke="#4a5160" stroke-width="0.12" opacity="0.7"/><circle cx="-5.080" cy="0.000" r="0.950" fill="none" stroke="#4a5160" stroke-width="0.12" opacity="0.7"/><circle cx="5.080" cy="0.000" r="1.300" fill="none" stroke="#4a5160" stroke-width="0.12" opacity="0.7"/><circle cx="5.080" cy="0.000" r="0.950" fill="none" stroke="#4a5160" stroke-width="0.12" opacity="0.7"/><rect x="-6.530" y="-1.450" width="2.900" height="2.900" rx="1.450" fill="#c79b5c"/><circle cx="-5.080" cy="0.000" r="1.100" fill="#12151c"/><rect x="3.630" y="-1.450" width="2.900" height="2.900" rx="1.450" fill="#c79b5c"/><circle cx="5.080" cy="0.000" r="1.100" fill="#12151c"/><polygon points="-5.53,2.50 -4.63,2.50 -5.08,1.90" fill="#ffffff"/></svg>