<svg xmlns="http://www.w3.org/2000/svg" viewBox="-2.77 -2.31 4.84 4.62" preserveAspectRatio="xMidYMid meet" style="width:100%;height:100%"><rect x="-2.77" y="-2.31" width="4.84" height="4.62" fill="#12151c"/><path d="M -1.000 -0.200 A 0.100 0.100 0 0 1 -0.900 -0.100" fill="none" stroke="#6b7280" stroke-width="0.12" opacity="0.8"/><path d="M -1.000 1.125 A 0.125 0.125 0 0 1 -0.875 1.250" fill="none" stroke="#6b7280" stroke-width="0.12" opacity="0.8"/><path d="M -0.900 0.100 A 0.100 0.100 0 0 1 -1.000 0.200" fill="none" stroke="#6b7280" stroke-width="0.12" opacity="0.8"/><path d="M -0.875 -1.250 A 0.125 0.125 0 0 1 -1.000 -1.125" fill="none" stroke="#6b7280" stroke-width="0.12" opacity="0.8"/><path d="M 0.875 1.250 A 0.125 0.125 0 0 1 1.000 1.125" fill="none" stroke="#6b7280" stroke-width="0.12" opacity="0.8"/><path d="M 0.900 -0.100 A 0.100 0.100 0 0 1 1.000 -0.200" fill="none" stroke="#6b7280" stroke-width="0.12" opacity="0.8"/><path d="M 1.000 -1.125 A 0.125 0.125 0 0 1 0.875 -1.250" fill="none" stroke="#6b7280" stroke-width="0.12" opacity="0.8"/><path d="M 1.000 0.200 A 0.100 0.100 0 0 1 0.900 0.100" fill="none" stroke="#6b7280" stroke-width="0.12" opacity="0.8"/><circle cx="-1.650" cy="-0.900" r="0.125" fill="none" stroke="#e6e9ef" stroke-width="0.12" opacity="1"/><circle cx="-0.475" cy="-0.725" r="0.300" fill="none" stroke="#6b7280" stroke-width="0.12" opacity="0.8"/><rect x="-1.062" y="-1.312" width="0.900" height="1.000" rx="0.000" fill="#c79b5c"/><rect x="-1.062" y="0.312" width="0.900" height="1.000" rx="0.000" fill="#c79b5c"/><rect x="0.163" y="0.312" width="0.900" height="1.000" rx="0.000" fill="#c79b5c"/><rect x="0.163" y="-1.312" width="0.900" height="1.000" rx="0.000" fill="#c79b5c"/></svg>