<svg xmlns="http://www.w3.org/2000/svg" viewBox="-6.58 -3.05 23.32 16.23" preserveAspectRatio="xMidYMid meet" style="width:100%;height:100%"><rect x="-6.58" y="-3.05" width="23.32" height="16.23" fill="#12151c"/><polyline points="0.000,-0.000 0.508,-0.000" fill="none" stroke="#4ea1ff" stroke-width="0.25" stroke-linejoin="round"/><polyline points="0.000,1.270 4.826,1.270" fill="none" stroke="#4ea1ff" stroke-width="0.25" stroke-linejoin="round"/><polyline points="0.000,2.540 0.762,2.540" fill="none" stroke="#4ea1ff" stroke-width="0.25" stroke-linejoin="round"/><polyline points="0.000,7.620 0.762,7.620" fill="none" stroke="#4ea1ff" stroke-width="0.25" stroke-linejoin="round"/><polyline points="0.000,8.890 4.826,8.890" fill="none" stroke="#4ea1ff" stroke-width="0.25" stroke-linejoin="round"/><polyline points="0.000,10.160 0.508,10.160" fill="none" stroke="#4ea1ff" stroke-width="0.25" stroke-linejoin="round"/><path d="M -0.286 9.095 C 0.845 8.200 1.524 6.694 1.524 5.080" fill="none" stroke="#4ea1ff" stroke-width="0.25"/><path d="M -0.171 1.437 C 0.185 1.121 0.424 0.621 0.490 0.058" fill="none" stroke="#4ea1ff" stroke-width="0.25"/><path d="M 0.174 11.683 C 0.441 11.239 0.555 10.665 0.490 10.102" fill="none" stroke="#4ea1ff" stroke-width="0.25"/><path d="M 0.490 0.058 C 0.555 -0.505 0.441 -1.079 0.174 -1.523" fill="none" stroke="#4ea1ff" stroke-width="0.25"/><path d="M 0.490 10.102 C 0.424 9.539 0.185 9.039 -0.171 8.723" fill="none" stroke="#4ea1ff" stroke-width="0.25"/><path d="M 1.524 5.080 C 1.524 3.466 0.845 1.960 -0.286 1.065" fill="none" stroke="#4ea1ff" stroke-width="0.25"/><path d="M 4.826 8.890 C 6.864 8.890 8.768 7.659 9.898 5.610" fill="none" stroke="#4ea1ff" stroke-width="0.25"/><path d="M 9.898 4.550 C 8.768 2.501 6.864 1.270 4.826 1.270" fill="none" stroke="#4ea1ff" stroke-width="0.25"/><line x1="-5.080" y1="-0.000" x2="0.000" y2="-0.000" stroke="#e6e9ef" stroke-width="0.2"/><circle cx="-5.080" cy="-0.000" r="0.4" fill="#4ea1ff"/><text x="0.500" y="0.350" fill="#e6e9ef" font-size="1.1" text-anchor="start" font-family="sans-serif">D0</text><text x="-0.300" y="-0.350" fill="#9aa3b2" font-size="0.9" text-anchor="end" font-family="sans-serif">1</text><line x1="-5.080" y1="2.540" x2="0.000" y2="2.540" stroke="#e6e9ef" stroke-width="0.2"/><circle cx="-5.080" cy="2.540" r="0.4" fill="#4ea1ff"/><text x="0.500" y="2.890" fill="#e6e9ef" font-size="1.1" text-anchor="start" font-family="sans-serif">D1</text><text x="-0.300" y="2.190" fill="#9aa3b2" font-size="0.9" text-anchor="end" font-family="sans-serif">2</text><line x1="-5.080" y1="7.620" x2="0.000" y2="7.620" stroke="#e6e9ef" stroke-width="0.2"/><circle cx="-5.080" cy="7.620" r="0.4" fill="#4ea1ff"/><text x="0.500" y="7.970" fill="#e6e9ef" font-size="1.1" text-anchor="start" font-family="sans-serif">D2</text><text x="-0.300" y="7.270" fill="#9aa3b2" font-size="0.9" text-anchor="end" font-family="sans-serif">3</text><line x1="-5.080" y1="10.160" x2="0.000" y2="10.160" stroke="#e6e9ef" stroke-width="0.2"/><circle cx="-5.080" cy="10.160" r="0.4" fill="#4ea1ff"/><text x="0.500" y="10.510" fill="#e6e9ef" font-size="1.1" text-anchor="start" font-family="sans-serif">D3</text><text x="-0.300" y="9.810" fill="#9aa3b2" font-size="0.9" text-anchor="end" font-family="sans-serif">4</text><line x1="15.240" y1="2.540" x2="8.382" y2="2.540" stroke="#e6e9ef" stroke-width="0.2"/><circle cx="15.240" cy="2.540" r="0.4" fill="#4ea1ff"/><text x="7.882" y="2.890" fill="#e6e9ef" font-size="1.1" text-anchor="end" font-family="sans-serif">Q</text><text x="8.682" y="2.190" fill="#9aa3b2" font-size="0.9" text-anchor="start" font-family="sans-serif">7</text><line x1="15.240" y1="7.620" x2="8.636" y2="7.620" stroke="#e6e9ef" stroke-width="0.2"/><circle cx="15.240" cy="7.620" r="0.4" fill="#4ea1ff"/><text x="8.136" y="7.970" fill="#e6e9ef" font-size="1.1" text-anchor="end" font-family="sans-serif">~{Q}</text><text x="8.936" y="7.270" fill="#9aa3b2" font-size="0.9" text-anchor="start" font-family="sans-serif">6</text></svg>