<svg xmlns="http://www.w3.org/2000/svg" viewBox="-16.36 -11.51 32.72 23.01" preserveAspectRatio="xMidYMid meet" style="width:100%;height:100%"><rect x="-16.36" y="-11.51" width="32.72" height="23.01" fill="#12151c"/><line x1="-11.460" y1="-7.850" x2="-10.981" y2="-7.850" stroke="#e6e9ef" stroke-width="0.200" stroke-linecap="round" opacity="1"/><line x1="-11.460" y1="-7.150" x2="-10.981" y2="-7.150" stroke="#e6e9ef" stroke-width="0.200" stroke-linecap="round" opacity="1"/><line x1="-11.460" y1="-4.850" x2="-10.981" y2="-4.850" stroke="#e6e9ef" stroke-width="0.200" stroke-linecap="round" opacity="1"/><line x1="-11.460" y1="-4.150" x2="-10.981" y2="-4.150" stroke="#e6e9ef" stroke-width="0.200" stroke-linecap="round" opacity="1"/><line x1="-11.460" y1="-1.850" x2="-10.981" y2="-1.850" stroke="#e6e9ef" stroke-width="0.200" stroke-linecap="round" opacity="1"/><line x1="-11.460" y1="-1.150" x2="-10.981" y2="-1.150" stroke="#e6e9ef" stroke-width="0.200" stroke-linecap="round" opacity="1"/><line x1="-11.460" y1="1.150" x2="-10.981" y2="1.150" stroke="#e6e9ef" stroke-width="0.200" stroke-linecap="round" opacity="1"/><line x1="-11.460" y1="1.850" x2="-10.981" y2="1.850" stroke="#e6e9ef" stroke-width="0.200" stroke-linecap="round" opacity="1"/><line x1="-11.460" y1="4.150" x2="-10.981" y2="4.150" stroke="#e6e9ef" stroke-width="0.200" stroke-linecap="round" opacity="1"/><line x1="-11.460" y1="4.850" x2="-10.981" y2="4.850" stroke="#e6e9ef" stroke-width="0.200" stroke-linecap="round" opacity="1"/><line x1="-11.460" y1="7.150" x2="-10.981" y2="7.150" stroke="#e6e9ef" stroke-width="0.200" stroke-linecap="round" opacity="1"/><line x1="-11.460" y1="7.850" x2="-10.981" y2="7.850" stroke="#e6e9ef" stroke-width="0.200" stroke-linecap="round" opacity="1"/><line x1="-10.981" y1="-10.260" x2="10.981" y2="-10.260" stroke="#e6e9ef" stroke-width="0.200" stroke-linecap="round" opacity="1"/><line x1="-10.981" y1="10.250" x2="-10.981" y2="-10.260" stroke="#e6e9ef" stroke-width="0.200" stroke-linecap="round" opacity="1"/><line x1="-10.981" y1="10.250" x2="10.981" y2="10.250" stroke="#e6e9ef" stroke-width="0.200" stroke-linecap="round" opacity="1"/><line x1="10.981" y1="-7.850" x2="11.460" y2="-7.850" stroke="#e6e9ef" stroke-width="0.200" stroke-linecap="round" opacity="1"/><line x1="10.981" y1="-7.150" x2="11.460" y2="-7.150" stroke="#e6e9ef" stroke-width="0.200" stroke-linecap="round" opacity="1"/><line x1="10.981" y1="-4.850" x2="11.460" y2="-4.850" stroke="#e6e9ef" stroke-width="0.200" stroke-linecap="round" opacity="1"/><line x1="10.981" y1="-4.150" x2="11.460" y2="-4.150" stroke="#e6e9ef" stroke-width="0.200" stroke-linecap="round" opacity="1"/><line x1="10.981" y1="-1.850" x2="11.460" y2="-1.850" stroke="#e6e9ef" stroke-width="0.200" stroke-linecap="round" opacity="1"/><line x1="10.981" y1="-1.150" x2="11.460" y2="-1.150" stroke="#e6e9ef" stroke-width="0.200" stroke-linecap="round" opacity="1"/><line x1="10.981" y1="1.150" x2="11.460" y2="1.150" stroke="#e6e9ef" stroke-width="0.200" stroke-linecap="round" opacity="1"/><line x1="10.981" y1="1.850" x2="11.460" y2="1.850" stroke="#e6e9ef" stroke-width="0.200" stroke-linecap="round" opacity="1"/><line x1="10.981" y1="4.150" x2="11.460" y2="4.150" stroke="#e6e9ef" stroke-width="0.200" stroke-linecap="round" opacity="1"/><line x1="10.981" y1="4.850" x2="11.460" y2="4.850" stroke="#e6e9ef" stroke-width="0.200" stroke-linecap="round" opacity="1"/><line x1="10.981" y1="7.150" x2="11.460" y2="7.150" stroke="#e6e9ef" stroke-width="0.200" stroke-linecap="round" opacity="1"/><line x1="10.981" y1="7.850" x2="11.460" y2="7.850" stroke="#e6e9ef" stroke-width="0.200" stroke-linecap="round" opacity="1"/><line x1="10.981" y1="10.250" x2="10.981" y2="-10.260" stroke="#e6e9ef" stroke-width="0.200" stroke-linecap="round" opacity="1"/><line x1="-15.110" y1="-8.135" x2="-13.460" y2="-7.500" stroke="#4a5160" stroke-width="0.100" stroke-linecap="round" opacity="0.7"/><line x1="-15.110" y1="-8.135" x2="-11.810" y2="-8.135" stroke="#4a5160" stroke-width="0.100" stroke-linecap="round" opacity="0.7"/><line x1="-15.110" y1="-6.865" x2="-15.110" y2="-8.135" stroke="#4a5160" stroke-width="0.100" stroke-linecap="round" opacity="0.7"/><line x1="-15.110" y1="-6.865" x2="-13.460" y2="-7.500" stroke="#4a5160" stroke-width="0.100" stroke-linecap="round" opacity="0.7"/><line x1="-15.110" y1="-6.865" x2="-11.810" y2="-6.865" stroke="#4a5160" stroke-width="0.100" stroke-linecap="round" opacity="0.7"/><line x1="-15.110" y1="-5.135" x2="-13.460" y2="-4.500" stroke="#4a5160" stroke-width="0.100" stroke-linecap="round" opacity="0.7"/><line x1="-15.110" y1="-5.135" x2="-11.810" y2="-5.135" stroke="#4a5160" stroke-width="0.100" stroke-linecap="round" opacity="0.7"/><line x1="-15.110" y1="-3.865" x2="-15.110" y2="-5.135" stroke="#4a5160" stroke-width="0.100" stroke-linecap="round" opacity="0.7"/><line x1="-15.110" y1="-3.865" x2="-13.460" y2="-4.500" stroke="#4a5160" stroke-width="0.100" stroke-linecap="round" opacity="0.7"/><line x1="-15.110" y1="-3.865" x2="-11.810" y2="-3.865" stroke="#4a5160" stroke-width="0.100" stroke-linecap="round" opacity="0.7"/><line x1="-15.110" y1="-2.135" x2="-13.460" y2="-1.500" stroke="#4a5160" stroke-width="0.100" stroke-linecap="round" opacity="0.7"/><line x1="-15.110" y1="-2.135" x2="-11.810" y2="-2.135" stroke="#4a5160" stroke-width="0.100" stroke-linecap="round" opacity="0.7"/><line x1="-15.110" y1="-0.865" x2="-15.110" y2="-2.135" stroke="#4a5160" stroke-width="0.100" stroke-linecap="round" opacity="0.7"/><line x1="-15.110" y1="-0.865" x2="-13.460" y2="-1.500" stroke="#4a5160" stroke-width="0.100" stroke-linecap="round" opacity="0.7"/><line x1="-15.110" y1="-0.865" x2="-11.810" y2="-0.865" stroke="#4a5160" stroke-width="0.100" stroke-linecap="round" opacity="0.7"/><line x1="-15.110" y1="0.865" x2="-13.460" y2="1.500" stroke="#4a5160" stroke-width="0.100" stroke-linecap="round" opacity="0.7"/><line x1="-15.110" y1="0.865" x2="-11.810" y2="0.865" stroke="#4a5160" stroke-width="0.100" stroke-linecap="round" opacity="0.7"/><line x1="-15.110" y1="2.135" x2="-15.110" y2="0.865" stroke="#4a5160" stroke-width="0.100" stroke-linecap="round" opacity="0.7"/><line x1="-15.110" y1="2.135" x2="-13.460" y2="1.500" stroke="#4a5160" stroke-width="0.100" stroke-linecap="round" opacity="0.7"/><line x1="-15.110" y1="2.135" x2="-11.810" y2="2.135" stroke="#4a5160" stroke-width="0.100" stroke-linecap="round" opacity="0.7"/><line x1="-15.110" y1="3.865" x2="-13.460" y2="4.500" stroke="#4a5160" stroke-width="0.100" stroke-linecap="round" opacity="0.7"/><line x1="-15.110" y1="3.865" x2="-11.810" y2="3.865" stroke="#4a5160" stroke-width="0.100" stroke-linecap="round" opacity="0.7"/><line x1="-15.110" y1="5.135" x2="-15.110" y2="3.865" stroke="#4a5160" stroke-width="0.100" stroke-linecap="round" opacity="0.7"/><line x1="-15.110" y1="5.135" x2="-13.460" y2="4.500" stroke="#4a5160" stroke-width="0.100" stroke-linecap="round" opacity="0.7"/><line x1="-15.110" y1="5.135" x2="-11.810" y2="5.135" stroke="#4a5160" stroke-width="0.100" stroke-linecap="round" opacity="0.7"/><line x1="-15.110" y1="6.865" x2="-13.460" y2="7.500" stroke="#4a5160" stroke-width="0.100" stroke-linecap="round" opacity="0.7"/><line x1="-15.110" y1="6.865" x2="-11.810" y2="6.865" stroke="#4a5160" stroke-width="0.100" stroke-linecap="round" opacity="0.7"/><line x1="-15.110" y1="8.135" x2="-15.110" y2="6.865" stroke="#4a5160" stroke-width="0.100" stroke-linecap="round" opacity="0.7"/><line x1="-15.110" y1="8.135" x2="-13.460" y2="7.500" stroke="#4a5160" stroke-width="0.100" stroke-linecap="round" opacity="0.7"/><line x1="-15.110" y1="8.135" x2="-11.810" y2="8.135" stroke="#4a5160" stroke-width="0.100" stroke-linecap="round" opacity="0.7"/><line x1="-11.810" y1="-6.865" x2="-11.810" y2="-8.135" stroke="#4a5160" stroke-width="0.100" stroke-linecap="round" opacity="0.7"/><line x1="-11.810" y1="-3.865" x2="-11.810" y2="-5.135" stroke="#4a5160" stroke-width="0.100" stroke-linecap="round" opacity="0.7"/><line x1="-11.810" y1="-0.865" x2="-11.810" y2="-2.135" stroke="#4a5160" stroke-width="0.100" stroke-linecap="round" opacity="0.7"/><line x1="-11.810" y1="2.135" x2="-11.810" y2="0.865" stroke="#4a5160" stroke-width="0.100" stroke-linecap="round" opacity="0.7"/><line x1="-11.810" y1="5.135" x2="-11.810" y2="3.865" stroke="#4a5160" stroke-width="0.100" stroke-linecap="round" opacity="0.7"/><line x1="-11.810" y1="8.135" x2="-11.810" y2="6.865" stroke="#4a5160" stroke-width="0.100" stroke-linecap="round" opacity="0.7"/><line x1="-0.500" y1="0.000" x2="0.000" y2="0.000" stroke="#4a5160" stroke-width="0.100" stroke-linecap="round" opacity="0.7"/><line x1="0.000" y1="0.000" x2="0.000" y2="-0.500" stroke="#4a5160" stroke-width="0.100" stroke-linecap="round" opacity="0.7"/><line x1="0.000" y1="0.000" x2="0.500" y2="0.000" stroke="#4a5160" stroke-width="0.100" stroke-linecap="round" opacity="0.7"/><line x1="0.000" y1="0.500" x2="0.000" y2="0.000" stroke="#4a5160" stroke-width="0.100" stroke-linecap="round" opacity="0.7"/><line x1="11.810" y1="-8.135" x2="15.110" y2="-8.135" stroke="#4a5160" stroke-width="0.100" stroke-linecap="round" opacity="0.7"/><line x1="11.810" y1="-6.865" x2="11.810" y2="-8.135" stroke="#4a5160" stroke-width="0.100" stroke-linecap="round" opacity="0.7"/><line x1="11.810" y1="-6.865" x2="15.110" y2="-6.865" stroke="#4a5160" stroke-width="0.100" stroke-linecap="round" opacity="0.7"/><line x1="11.810" y1="-5.135" x2="15.110" y2="-5.135" stroke="#4a5160" stroke-width="0.100" stroke-linecap="round" opacity="0.7"/><line x1="11.810" y1="-3.865" x2="11.810" y2="-5.135" stroke="#4a5160" stroke-width="0.100" stroke-linecap="round" opacity="0.7"/><line x1="11.810" y1="-3.865" x2="15.110" y2="-3.865" stroke="#4a5160" stroke-width="0.100" stroke-linecap="round" opacity="0.7"/><line x1="11.810" y1="-2.135" x2="15.110" y2="-2.135" stroke="#4a5160" stroke-width="0.100" stroke-linecap="round" opacity="0.7"/><line x1="11.810" y1="-0.865" x2="11.810" y2="-2.135" stroke="#4a5160" stroke-width="0.100" stroke-linecap="round" opacity="0.7"/><line x1="11.810" y1="-0.865" x2="15.110" y2="-0.865" stroke="#4a5160" stroke-width="0.100" stroke-linecap="round" opacity="0.7"/><line x1="11.810" y1="0.865" x2="15.110" y2="0.865" stroke="#4a5160" stroke-width="0.100" stroke-linecap="round" opacity="0.7"/><line x1="11.810" y1="2.135" x2="11.810" y2="0.865" stroke="#4a5160" stroke-width="0.100" stroke-linecap="round" opacity="0.7"/><line x1="11.810" y1="2.135" x2="15.110" y2="2.135" stroke="#4a5160" stroke-width="0.100" stroke-linecap="round" opacity="0.7"/><line x1="11.810" y1="3.865" x2="15.110" y2="3.865" stroke="#4a5160" stroke-width="0.100" stroke-linecap="round" opacity="0.7"/><line x1="11.810" y1="5.135" x2="11.810" y2="3.865" stroke="#4a5160" stroke-width="0.100" stroke-linecap="round" opacity="0.7"/><line x1="11.810" y1="5.135" x2="15.110" y2="5.135" stroke="#4a5160" stroke-width="0.100" stroke-linecap="round" opacity="0.7"/><line x1="11.810" y1="6.865" x2="15.110" y2="6.865" stroke="#4a5160" stroke-width="0.100" stroke-linecap="round" opacity="0.7"/><line x1="11.810" y1="8.135" x2="11.810" y2="6.865" stroke="#4a5160" stroke-width="0.100" stroke-linecap="round" opacity="0.7"/><line x1="11.810" y1="8.135" x2="15.110" y2="8.135" stroke="#4a5160" stroke-width="0.100" stroke-linecap="round" opacity="0.7"/><line x1="13.460" y1="-7.500" x2="15.110" y2="-8.135" stroke="#4a5160" stroke-width="0.100" stroke-linecap="round" opacity="0.7"/><line x1="13.460" y1="-7.500" x2="15.110" y2="-6.865" stroke="#4a5160" stroke-width="0.100" stroke-linecap="round" opacity="0.7"/><line x1="13.460" y1="-4.500" x2="15.110" y2="-5.135" stroke="#4a5160" stroke-width="0.100" stroke-linecap="round" opacity="0.7"/><line x1="13.460" y1="-4.500" x2="15.110" y2="-3.865" stroke="#4a5160" stroke-width="0.100" stroke-linecap="round" opacity="0.7"/><line x1="13.460" y1="-1.500" x2="15.110" y2="-2.135" stroke="#4a5160" stroke-width="0.100" stroke-linecap="round" opacity="0.7"/><line x1="13.460" y1="-1.500" x2="15.110" y2="-0.865" stroke="#4a5160" stroke-width="0.100" stroke-linecap="round" opacity="0.7"/><line x1="13.460" y1="1.500" x2="15.110" y2="0.865" stroke="#4a5160" stroke-width="0.100" stroke-linecap="round" opacity="0.7"/><line x1="13.460" y1="1.500" x2="15.110" y2="2.135" stroke="#4a5160" stroke-width="0.100" stroke-linecap="round" opacity="0.7"/><line x1="13.460" y1="4.500" x2="15.110" y2="3.865" stroke="#4a5160" stroke-width="0.100" stroke-linecap="round" opacity="0.7"/><line x1="13.460" y1="4.500" x2="15.110" y2="5.135" stroke="#4a5160" stroke-width="0.100" stroke-linecap="round" opacity="0.7"/><line x1="13.460" y1="7.500" x2="15.110" y2="6.865" stroke="#4a5160" stroke-width="0.100" stroke-linecap="round" opacity="0.7"/><line x1="13.460" y1="7.500" x2="15.110" y2="8.135" stroke="#4a5160" stroke-width="0.100" stroke-linecap="round" opacity="0.7"/><line x1="15.110" y1="-6.865" x2="15.110" y2="-8.135" stroke="#4a5160" stroke-width="0.100" stroke-linecap="round" opacity="0.7"/><line x1="15.110" y1="-3.865" x2="15.110" y2="-5.135" stroke="#4a5160" stroke-width="0.100" stroke-linecap="round" opacity="0.7"/><line x1="15.110" y1="-0.865" x2="15.110" y2="-2.135" stroke="#4a5160" stroke-width="0.100" stroke-linecap="round" opacity="0.7"/><line x1="15.110" y1="2.135" x2="15.110" y2="0.865" stroke="#4a5160" stroke-width="0.100" stroke-linecap="round" opacity="0.7"/><line x1="15.110" y1="5.135" x2="15.110" y2="3.865" stroke="#4a5160" stroke-width="0.100" stroke-linecap="round" opacity="0.7"/><line x1="15.110" y1="8.135" x2="15.110" y2="6.865" stroke="#4a5160" stroke-width="0.100" stroke-linecap="round" opacity="0.7"/><line x1="-15.360" y1="-10.510" x2="15.360" y2="-10.510" stroke="#d24d4d" stroke-width="0.080" stroke-linecap="round" opacity="0.7"/><line x1="-15.360" y1="10.500" x2="-15.360" y2="-10.510" stroke="#d24d4d" stroke-width="0.080" stroke-linecap="round" opacity="0.7"/><line x1="-15.360" y1="10.500" x2="15.360" y2="10.500" stroke="#d24d4d" stroke-width="0.080" stroke-linecap="round" opacity="0.7"/><line x1="15.360" y1="10.500" x2="15.360" y2="-10.510" stroke="#d24d4d" stroke-width="0.080" stroke-linecap="round" opacity="0.7"/><line x1="-14.325" y1="-7.850" x2="-10.981" y2="-7.850" stroke="#6b7280" stroke-width="0.100" stroke-linecap="round" opacity="0.8"/><line x1="-14.325" y1="-7.150" x2="-14.325" y2="-7.850" stroke="#6b7280" stroke-width="0.100" stroke-linecap="round" opacity="0.8"/><line x1="-14.325" y1="-7.150" x2="-10.981" y2="-7.150" stroke="#6b7280" stroke-width="0.100" stroke-linecap="round" opacity="0.8"/><line x1="-14.325" y1="-4.850" x2="-10.981" y2="-4.850" stroke="#6b7280" stroke-width="0.100" stroke-linecap="round" opacity="0.8"/><line x1="-14.325" y1="-4.150" x2="-14.325" y2="-4.850" stroke="#6b7280" stroke-width="0.100" stroke-linecap="round" opacity="0.8"/><line x1="-14.325" y1="-4.150" x2="-10.981" y2="-4.150" stroke="#6b7280" stroke-width="0.100" stroke-linecap="round" opacity="0.8"/><line x1="-14.325" y1="-1.850" x2="-10.981" y2="-1.850" stroke="#6b7280" stroke-width="0.100" stroke-linecap="round" opacity="0.8"/><line x1="-14.325" y1="-1.150" x2="-14.325" y2="-1.850" stroke="#6b7280" stroke-width="0.100" stroke-linecap="round" opacity="0.8"/><line x1="-14.325" y1="-1.150" x2="-10.981" y2="-1.150" stroke="#6b7280" stroke-width="0.100" stroke-linecap="round" opacity="0.8"/><line x1="-14.325" y1="1.150" x2="-10.981" y2="1.150" stroke="#6b7280" stroke-width="0.100" stroke-linecap="round" opacity="0.8"/><line x1="-14.325" y1="1.850" x2="-14.325" y2="1.150" stroke="#6b7280" stroke-width="0.100" stroke-linecap="round" opacity="0.8"/><line x1="-14.325" y1="1.850" x2="-10.981" y2="1.850" stroke="#6b7280" stroke-width="0.100" stroke-linecap="round" opacity="0.8"/><line x1="-14.325" y1="4.150" x2="-10.981" y2="4.150" stroke="#6b7280" stroke-width="0.100" stroke-linecap="round" opacity="0.8"/><line x1="-14.325" y1="4.850" x2="-14.325" y2="4.150" stroke="#6b7280" stroke-width="0.100" stroke-linecap="round" opacity="0.8"/><line x1="-14.325" y1="4.850" x2="-10.981" y2="4.850" stroke="#6b7280" stroke-width="0.100" stroke-linecap="round" opacity="0.8"/><line x1="-14.325" y1="7.150" x2="-10.981" y2="7.150" stroke="#6b7280" stroke-width="0.100" stroke-linecap="round" opacity="0.8"/><line x1="-14.325" y1="7.850" x2="-14.325" y2="7.150" stroke="#6b7280" stroke-width="0.100" stroke-linecap="round" opacity="0.8"/><line x1="-14.325" y1="7.850" x2="-10.981" y2="7.850" stroke="#6b7280" stroke-width="0.100" stroke-linecap="round" opacity="0.8"/><line x1="-10.981" y1="-10.260" x2="10.981" y2="-10.260" stroke="#6b7280" stroke-width="0.100" stroke-linecap="round" opacity="0.8"/><line x1="-10.981" y1="10.250" x2="-10.981" y2="-10.260" stroke="#6b7280" stroke-width="0.100" stroke-linecap="round" opacity="0.8"/><line x1="-10.981" y1="10.250" x2="10.981" y2="10.250" stroke="#6b7280" stroke-width="0.100" stroke-linecap="round" opacity="0.8"/><line x1="10.981" y1="-7.850" x2="14.325" y2="-7.850" stroke="#6b7280" stroke-width="0.100" stroke-linecap="round" opacity="0.8"/><line x1="10.981" y1="-7.150" x2="14.325" y2="-7.150" stroke="#6b7280" stroke-width="0.100" stroke-linecap="round" opacity="0.8"/><line x1="10.981" y1="-4.850" x2="14.325" y2="-4.850" stroke="#6b7280" stroke-width="0.100" stroke-linecap="round" opacity="0.8"/><line x1="10.981" y1="-4.150" x2="14.325" y2="-4.150" stroke="#6b7280" stroke-width="0.100" stroke-linecap="round" opacity="0.8"/><line x1="10.981" y1="-1.850" x2="14.325" y2="-1.850" stroke="#6b7280" stroke-width="0.100" stroke-linecap="round" opacity="0.8"/><line x1="10.981" y1="-1.150" x2="14.325" y2="-1.150" stroke="#6b7280" stroke-width="0.100" stroke-linecap="round" opacity="0.8"/><line x1="10.981" y1="1.150" x2="14.325" y2="1.150" stroke="#6b7280" stroke-width="0.100" stroke-linecap="round" opacity="0.8"/><line x1="10.981" y1="1.850" x2="14.325" y2="1.850" stroke="#6b7280" stroke-width="0.100" stroke-linecap="round" opacity="0.8"/><line x1="10.981" y1="4.150" x2="14.325" y2="4.150" stroke="#6b7280" stroke-width="0.100" stroke-linecap="round" opacity="0.8"/><line x1="10.981" y1="4.850" x2="14.325" y2="4.850" stroke="#6b7280" stroke-width="0.100" stroke-linecap="round" opacity="0.8"/><line x1="10.981" y1="7.150" x2="14.325" y2="7.150" stroke="#6b7280" stroke-width="0.100" stroke-linecap="round" opacity="0.8"/><line x1="10.981" y1="7.850" x2="14.325" y2="7.850" stroke="#6b7280" stroke-width="0.100" stroke-linecap="round" opacity="0.8"/><line x1="10.981" y1="10.250" x2="10.981" y2="-10.260" stroke="#6b7280" stroke-width="0.100" stroke-linecap="round" opacity="0.8"/><line x1="14.325" y1="-7.150" x2="14.325" y2="-7.850" stroke="#6b7280" stroke-width="0.100" stroke-linecap="round" opacity="0.8"/><line x1="14.325" y1="-4.150" x2="14.325" y2="-4.850" stroke="#6b7280" stroke-width="0.100" stroke-linecap="round" opacity="0.8"/><line x1="14.325" y1="-1.150" x2="14.325" y2="-1.850" stroke="#6b7280" stroke-width="0.100" stroke-linecap="round" opacity="0.8"/><line x1="14.325" y1="1.850" x2="14.325" y2="1.150" stroke="#6b7280" stroke-width="0.100" stroke-linecap="round" opacity="0.8"/><line x1="14.325" y1="4.850" x2="14.325" y2="4.150" stroke="#6b7280" stroke-width="0.100" stroke-linecap="round" opacity="0.8"/><line x1="14.325" y1="7.850" x2="14.325" y2="7.150" stroke="#6b7280" stroke-width="0.100" stroke-linecap="round" opacity="0.8"/><circle cx="-13.100" cy="-9.100" r="0.150" fill="#e6e9ef" opacity="1"/><circle cx="-13.100" cy="-9.100" r="0.150" fill="#6b7280" opacity="0.8"/><circle cx="-8.981" cy="-8.260" r="0.500" fill="none" stroke="#6b7280" stroke-width="0.12" opacity="0.8"/><rect x="-15.110" y="-8.135" width="3.300" height="1.270" rx="0.000" fill="#c79b5c"/><rect x="-15.110" y="-5.135" width="3.300" height="1.270" rx="0.000" fill="#c79b5c"/><rect x="-15.110" y="-2.135" width="3.300" height="1.270" rx="0.000" fill="#c79b5c"/><rect x="-15.110" y="0.865" width="3.300" height="1.270" rx="0.000" fill="#c79b5c"/><rect x="-15.110" y="3.865" width="3.300" height="1.270" rx="0.000" fill="#c79b5c"/><rect x="-15.110" y="6.865" width="3.300" height="1.270" rx="0.000" fill="#c79b5c"/><rect x="11.810" y="6.865" width="3.300" height="1.270" rx="0.000" fill="#c79b5c"/><rect x="11.810" y="3.865" width="3.300" height="1.270" rx="0.000" fill="#c79b5c"/><rect x="11.810" y="0.865" width="3.300" height="1.270" rx="0.000" fill="#c79b5c"/><rect x="11.810" y="-2.135" width="3.300" height="1.270" rx="0.000" fill="#c79b5c"/><rect x="11.810" y="-5.135" width="3.300" height="1.270" rx="0.000" fill="#c79b5c"/><rect x="11.810" y="-8.135" width="3.300" height="1.270" rx="0.000" fill="#c79b5c"/></svg>