<svg xmlns="http://www.w3.org/2000/svg" viewBox="-3.36 -2.42 6.72 5.22" preserveAspectRatio="xMidYMid meet" style="width:100%;height:100%"><rect x="-3.36" y="-2.42" width="6.72" height="5.22" fill="#12151c"/><line x1="-1.290" y1="-0.350" x2="1.290" y2="-0.350" stroke="#e6e9ef" stroke-width="0.200" stroke-linecap="round" opacity="1"/><line x1="-1.290" y1="0.350" x2="1.290" y2="0.350" stroke="#e6e9ef" stroke-width="0.200" stroke-linecap="round" opacity="1"/><line x1="-2.110" y1="-0.390" x2="-1.940" y2="-0.590" stroke="#4a5160" stroke-width="0.080" stroke-linecap="round" opacity="0.7"/><line x1="-2.110" y1="-0.390" x2="-1.940" y2="-0.390" stroke="#4a5160" stroke-width="0.080" stroke-linecap="round" opacity="0.7"/><line x1="-2.110" y1="-0.390" x2="-1.875" y2="-0.275" stroke="#4a5160" stroke-width="0.080" stroke-linecap="round" opacity="0.7"/><line x1="-2.110" y1="-0.160" x2="-2.110" y2="-0.390" stroke="#4a5160" stroke-width="0.080" stroke-linecap="round" opacity="0.7"/><line x1="-2.110" y1="-0.160" x2="-1.875" y2="-0.275" stroke="#4a5160" stroke-width="0.080" stroke-linecap="round" opacity="0.7"/><line x1="-2.110" y1="-0.160" x2="-1.640" y2="-0.160" stroke="#4a5160" stroke-width="0.080" stroke-linecap="round" opacity="0.7"/><line x1="-2.110" y1="0.160" x2="-1.875" y2="0.275" stroke="#4a5160" stroke-width="0.080" stroke-linecap="round" opacity="0.7"/><line x1="-2.110" y1="0.160" x2="-1.640" y2="0.160" stroke="#4a5160" stroke-width="0.080" stroke-linecap="round" opacity="0.7"/><line x1="-2.110" y1="0.390" x2="-2.110" y2="0.160" stroke="#4a5160" stroke-width="0.080" stroke-linecap="round" opacity="0.7"/><line x1="-2.110" y1="0.390" x2="-1.940" y2="0.590" stroke="#4a5160" stroke-width="0.080" stroke-linecap="round" opacity="0.7"/><line x1="-2.110" y1="0.390" x2="-1.875" y2="0.275" stroke="#4a5160" stroke-width="0.080" stroke-linecap="round" opacity="0.7"/><line x1="-1.940" y1="-0.590" x2="-1.790" y2="-0.375" stroke="#4a5160" stroke-width="0.080" stroke-linecap="round" opacity="0.7"/><line x1="-1.940" y1="-0.590" x2="-1.640" y2="-0.590" stroke="#4a5160" stroke-width="0.080" stroke-linecap="round" opacity="0.7"/><line x1="-1.940" y1="-0.390" x2="-1.940" y2="-0.590" stroke="#4a5160" stroke-width="0.080" stroke-linecap="round" opacity="0.7"/><line x1="-1.940" y1="0.590" x2="-1.790" y2="0.375" stroke="#4a5160" stroke-width="0.080" stroke-linecap="round" opacity="0.7"/><line x1="-1.940" y1="0.590" x2="-1.640" y2="0.590" stroke="#4a5160" stroke-width="0.080" stroke-linecap="round" opacity="0.7"/><line x1="-1.790" y1="-0.375" x2="-1.640" y2="-0.590" stroke="#4a5160" stroke-width="0.080" stroke-linecap="round" opacity="0.7"/><line x1="-1.790" y1="0.375" x2="-1.640" y2="0.590" stroke="#4a5160" stroke-width="0.080" stroke-linecap="round" opacity="0.7"/><line x1="-1.640" y1="-0.160" x2="-1.640" y2="-0.590" stroke="#4a5160" stroke-width="0.080" stroke-linecap="round" opacity="0.7"/><line x1="-1.640" y1="0.590" x2="-1.640" y2="0.160" stroke="#4a5160" stroke-width="0.080" stroke-linecap="round" opacity="0.7"/><line x1="-1.530" y1="-0.920" x2="-1.030" y2="-0.920" stroke="#4a5160" stroke-width="0.080" stroke-linecap="round" opacity="0.7"/><line x1="-1.530" y1="0.920" x2="-1.030" y2="0.920" stroke="#4a5160" stroke-width="0.080" stroke-linecap="round" opacity="0.7"/><line x1="-1.410" y1="-0.540" x2="1.410" y2="-0.540" stroke="#4a5160" stroke-width="0.080" stroke-linecap="round" opacity="0.7"/><line x1="-1.410" y1="-0.300" x2="-1.410" y2="-0.740" stroke="#4a5160" stroke-width="0.080" stroke-linecap="round" opacity="0.7"/><line x1="-1.410" y1="-0.300" x2="1.410" y2="-0.300" stroke="#4a5160" stroke-width="0.080" stroke-linecap="round" opacity="0.7"/><line x1="-1.410" y1="0.300" x2="1.410" y2="0.300" stroke="#4a5160" stroke-width="0.080" stroke-linecap="round" opacity="0.7"/><line x1="-1.410" y1="0.540" x2="1.410" y2="0.540" stroke="#4a5160" stroke-width="0.080" stroke-linecap="round" opacity="0.7"/><line x1="-1.410" y1="0.740" x2="-1.410" y2="0.300" stroke="#4a5160" stroke-width="0.080" stroke-linecap="round" opacity="0.7"/><line x1="-1.400" y1="-1.100" x2="-0.660" y2="-1.100" stroke="#4a5160" stroke-width="0.080" stroke-linecap="round" opacity="0.7"/><line x1="-1.400" y1="-0.740" x2="-1.400" y2="-1.100" stroke="#4a5160" stroke-width="0.080" stroke-linecap="round" opacity="0.7"/><line x1="-1.400" y1="-0.740" x2="-0.660" y2="-0.740" stroke="#4a5160" stroke-width="0.080" stroke-linecap="round" opacity="0.7"/><line x1="-1.400" y1="0.740" x2="-0.660" y2="0.740" stroke="#4a5160" stroke-width="0.080" stroke-linecap="round" opacity="0.7"/><line x1="-1.400" y1="1.100" x2="-1.400" y2="0.740" stroke="#4a5160" stroke-width="0.080" stroke-linecap="round" opacity="0.7"/><line x1="-1.400" y1="1.100" x2="-0.660" y2="1.100" stroke="#4a5160" stroke-width="0.080" stroke-linecap="round" opacity="0.7"/><line x1="-1.030" y1="-0.920" x2="-1.030" y2="-1.420" stroke="#4a5160" stroke-width="0.080" stroke-linecap="round" opacity="0.7"/><line x1="-1.030" y1="-0.920" x2="-0.530" y2="-0.920" stroke="#4a5160" stroke-width="0.080" stroke-linecap="round" opacity="0.7"/><line x1="-1.030" y1="-0.420" x2="-1.030" y2="-0.920" stroke="#4a5160" stroke-width="0.080" stroke-linecap="round" opacity="0.7"/><line x1="-1.030" y1="0.920" x2="-1.030" y2="0.420" stroke="#4a5160" stroke-width="0.080" stroke-linecap="round" opacity="0.7"/><line x1="-1.030" y1="0.920" x2="-0.530" y2="0.920" stroke="#4a5160" stroke-width="0.080" stroke-linecap="round" opacity="0.7"/><line x1="-1.030" y1="1.420" x2="-1.030" y2="0.920" stroke="#4a5160" stroke-width="0.080" stroke-linecap="round" opacity="0.7"/><line x1="-0.660" y1="-0.740" x2="-0.660" y2="-1.100" stroke="#4a5160" stroke-width="0.080" stroke-linecap="round" opacity="0.7"/><line x1="-0.660" y1="1.100" x2="-0.660" y2="0.740" stroke="#4a5160" stroke-width="0.080" stroke-linecap="round" opacity="0.7"/><line x1="-0.520" y1="-1.100" x2="-0.400" y2="-0.920" stroke="#4a5160" stroke-width="0.080" stroke-linecap="round" opacity="0.7"/><line x1="-0.520" y1="-1.100" x2="-0.280" y2="-1.100" stroke="#4a5160" stroke-width="0.080" stroke-linecap="round" opacity="0.7"/><line x1="-0.520" y1="-0.740" x2="-0.520" y2="-1.100" stroke="#4a5160" stroke-width="0.080" stroke-linecap="round" opacity="0.7"/><line x1="-0.520" y1="-0.740" x2="-0.280" y2="-0.740" stroke="#4a5160" stroke-width="0.080" stroke-linecap="round" opacity="0.7"/><line x1="-0.520" y1="0.740" x2="-0.280" y2="0.740" stroke="#4a5160" stroke-width="0.080" stroke-linecap="round" opacity="0.7"/><line x1="-0.520" y1="1.100" x2="-0.520" y2="0.740" stroke="#4a5160" stroke-width="0.080" stroke-linecap="round" opacity="0.7"/><line x1="-0.520" y1="1.100" x2="-0.400" y2="0.920" stroke="#4a5160" stroke-width="0.080" stroke-linecap="round" opacity="0.7"/><line x1="-0.520" y1="1.100" x2="-0.280" y2="1.100" stroke="#4a5160" stroke-width="0.080" stroke-linecap="round" opacity="0.7"/><line x1="-0.500" y1="0.000" x2="0.000" y2="0.000" stroke="#4a5160" stroke-width="0.080" stroke-linecap="round" opacity="0.7"/><line x1="-0.400" y1="-0.920" x2="-0.280" y2="-1.100" stroke="#4a5160" stroke-width="0.080" stroke-linecap="round" opacity="0.7"/><line x1="-0.400" y1="0.920" x2="-0.280" y2="1.100" stroke="#4a5160" stroke-width="0.080" stroke-linecap="round" opacity="0.7"/><line x1="-0.280" y1="-0.740" x2="-0.280" y2="-1.100" stroke="#4a5160" stroke-width="0.080" stroke-linecap="round" opacity="0.7"/><line x1="-0.280" y1="1.100" x2="-0.280" y2="0.740" stroke="#4a5160" stroke-width="0.080" stroke-linecap="round" opacity="0.7"/><line x1="-0.120" y1="-1.100" x2="0.000" y2="-0.920" stroke="#4a5160" stroke-width="0.080" stroke-linecap="round" opacity="0.7"/><line x1="-0.120" y1="-1.100" x2="0.120" y2="-1.100" stroke="#4a5160" stroke-width="0.080" stroke-linecap="round" opacity="0.7"/><line x1="-0.120" y1="-0.740" x2="-0.120" y2="-1.100" stroke="#4a5160" stroke-width="0.080" stroke-linecap="round" opacity="0.7"/><line x1="-0.120" y1="-0.740" x2="0.120" y2="-0.740" stroke="#4a5160" stroke-width="0.080" stroke-linecap="round" opacity="0.7"/><line x1="-0.120" y1="0.740" x2="0.120" y2="0.740" stroke="#4a5160" stroke-width="0.080" stroke-linecap="round" opacity="0.7"/><line x1="-0.120" y1="1.100" x2="-0.120" y2="0.740" stroke="#4a5160" stroke-width="0.080" stroke-linecap="round" opacity="0.7"/><line x1="-0.120" y1="1.100" x2="0.000" y2="0.920" stroke="#4a5160" stroke-width="0.080" stroke-linecap="round" opacity="0.7"/><line x1="-0.120" y1="1.100" x2="0.120" y2="1.100" stroke="#4a5160" stroke-width="0.080" stroke-linecap="round" opacity="0.7"/><line x1="0.000" y1="-0.920" x2="0.120" y2="-1.100" stroke="#4a5160" stroke-width="0.080" stroke-linecap="round" opacity="0.7"/><line x1="0.000" y1="0.000" x2="0.000" y2="-0.500" stroke="#4a5160" stroke-width="0.080" stroke-linecap="round" opacity="0.7"/><line x1="0.000" y1="0.000" x2="0.500" y2="0.000" stroke="#4a5160" stroke-width="0.080" stroke-linecap="round" opacity="0.7"/><line x1="0.000" y1="0.500" x2="0.000" y2="0.000" stroke="#4a5160" stroke-width="0.080" stroke-linecap="round" opacity="0.7"/><line x1="0.000" y1="0.920" x2="0.120" y2="1.100" stroke="#4a5160" stroke-width="0.080" stroke-linecap="round" opacity="0.7"/><line x1="0.120" y1="-0.740" x2="0.120" y2="-1.100" stroke="#4a5160" stroke-width="0.080" stroke-linecap="round" opacity="0.7"/><line x1="0.120" y1="1.100" x2="0.120" y2="0.740" stroke="#4a5160" stroke-width="0.080" stroke-linecap="round" opacity="0.7"/><line x1="0.280" y1="-1.100" x2="0.400" y2="-0.920" stroke="#4a5160" stroke-width="0.080" stroke-linecap="round" opacity="0.7"/><line x1="0.280" y1="-1.100" x2="0.520" y2="-1.100" stroke="#4a5160" stroke-width="0.080" stroke-linecap="round" opacity="0.7"/><line x1="0.280" y1="-0.740" x2="0.280" y2="-1.100" stroke="#4a5160" stroke-width="0.080" stroke-linecap="round" opacity="0.7"/><line x1="0.280" y1="-0.740" x2="0.520" y2="-0.740" stroke="#4a5160" stroke-width="0.080" stroke-linecap="round" opacity="0.7"/><line x1="0.280" y1="0.740" x2="0.520" y2="0.740" stroke="#4a5160" stroke-width="0.080" stroke-linecap="round" opacity="0.7"/><line x1="0.280" y1="1.100" x2="0.280" y2="0.740" stroke="#4a5160" stroke-width="0.080" stroke-linecap="round" opacity="0.7"/><line x1="0.280" y1="1.100" x2="0.400" y2="0.920" stroke="#4a5160" stroke-width="0.080" stroke-linecap="round" opacity="0.7"/><line x1="0.280" y1="1.100" x2="0.520" y2="1.100" stroke="#4a5160" stroke-width="0.080" stroke-linecap="round" opacity="0.7"/><line x1="0.400" y1="-0.920" x2="0.520" y2="-1.100" stroke="#4a5160" stroke-width="0.080" stroke-linecap="round" opacity="0.7"/><line x1="0.400" y1="0.920" x2="0.520" y2="1.100" stroke="#4a5160" stroke-width="0.080" stroke-linecap="round" opacity="0.7"/><line x1="0.520" y1="-0.740" x2="0.520" y2="-1.100" stroke="#4a5160" stroke-width="0.080" stroke-linecap="round" opacity="0.7"/><line x1="0.520" y1="1.100" x2="0.520" y2="0.740" stroke="#4a5160" stroke-width="0.080" stroke-linecap="round" opacity="0.7"/><line x1="0.530" y1="-0.920" x2="1.030" y2="-0.920" stroke="#4a5160" stroke-width="0.080" stroke-linecap="round" opacity="0.7"/><line x1="0.530" y1="0.920" x2="1.030" y2="0.920" stroke="#4a5160" stroke-width="0.080" stroke-linecap="round" opacity="0.7"/><line x1="0.660" y1="-1.100" x2="1.400" y2="-1.100" stroke="#4a5160" stroke-width="0.080" stroke-linecap="round" opacity="0.7"/><line x1="0.660" y1="-0.740" x2="0.660" y2="-1.100" stroke="#4a5160" stroke-width="0.080" stroke-linecap="round" opacity="0.7"/><line x1="0.660" y1="-0.740" x2="1.400" y2="-0.740" stroke="#4a5160" stroke-width="0.080" stroke-linecap="round" opacity="0.7"/><line x1="0.660" y1="0.740" x2="1.400" y2="0.740" stroke="#4a5160" stroke-width="0.080" stroke-linecap="round" opacity="0.7"/><line x1="0.660" y1="1.100" x2="0.660" y2="0.740" stroke="#4a5160" stroke-width="0.080" stroke-linecap="round" opacity="0.7"/><line x1="0.660" y1="1.100" x2="1.400" y2="1.100" stroke="#4a5160" stroke-width="0.080" stroke-linecap="round" opacity="0.7"/><line x1="1.030" y1="-0.920" x2="1.030" y2="-1.420" stroke="#4a5160" stroke-width="0.080" stroke-linecap="round" opacity="0.7"/><line x1="1.030" y1="-0.920" x2="1.530" y2="-0.920" stroke="#4a5160" stroke-width="0.080" stroke-linecap="round" opacity="0.7"/><line x1="1.030" y1="-0.420" x2="1.030" y2="-0.920" stroke="#4a5160" stroke-width="0.080" stroke-linecap="round" opacity="0.7"/><line x1="1.030" y1="0.920" x2="1.030" y2="0.420" stroke="#4a5160" stroke-width="0.080" stroke-linecap="round" opacity="0.7"/><line x1="1.030" y1="0.920" x2="1.530" y2="0.920" stroke="#4a5160" stroke-width="0.080" stroke-linecap="round" opacity="0.7"/><line x1="1.030" y1="1.420" x2="1.030" y2="0.920" stroke="#4a5160" stroke-width="0.080" stroke-linecap="round" opacity="0.7"/><line x1="1.400" y1="-0.740" x2="1.400" y2="-1.100" stroke="#4a5160" stroke-width="0.080" stroke-linecap="round" opacity="0.7"/><line x1="1.400" y1="1.100" x2="1.400" y2="0.740" stroke="#4a5160" stroke-width="0.080" stroke-linecap="round" opacity="0.7"/><line x1="1.410" y1="-0.300" x2="1.410" y2="-0.740" stroke="#4a5160" stroke-width="0.080" stroke-linecap="round" opacity="0.7"/><line x1="1.410" y1="0.740" x2="1.410" y2="0.300" stroke="#4a5160" stroke-width="0.080" stroke-linecap="round" opacity="0.7"/><line x1="1.640" y1="-0.590" x2="1.790" y2="-0.375" stroke="#4a5160" stroke-width="0.080" stroke-linecap="round" opacity="0.7"/><line x1="1.640" y1="-0.590" x2="1.940" y2="-0.590" stroke="#4a5160" stroke-width="0.080" stroke-linecap="round" opacity="0.7"/><line x1="1.640" y1="-0.160" x2="1.640" y2="-0.590" stroke="#4a5160" stroke-width="0.080" stroke-linecap="round" opacity="0.7"/><line x1="1.640" y1="-0.160" x2="2.110" y2="-0.160" stroke="#4a5160" stroke-width="0.080" stroke-linecap="round" opacity="0.7"/><line x1="1.640" y1="0.160" x2="2.110" y2="0.160" stroke="#4a5160" stroke-width="0.080" stroke-linecap="round" opacity="0.7"/><line x1="1.640" y1="0.590" x2="1.640" y2="0.160" stroke="#4a5160" stroke-width="0.080" stroke-linecap="round" opacity="0.7"/><line x1="1.640" y1="0.590" x2="1.790" y2="0.375" stroke="#4a5160" stroke-width="0.080" stroke-linecap="round" opacity="0.7"/><line x1="1.640" y1="0.590" x2="1.940" y2="0.590" stroke="#4a5160" stroke-width="0.080" stroke-linecap="round" opacity="0.7"/><line x1="1.790" y1="-0.375" x2="1.940" y2="-0.590" stroke="#4a5160" stroke-width="0.080" stroke-linecap="round" opacity="0.7"/><line x1="1.790" y1="0.375" x2="1.940" y2="0.590" stroke="#4a5160" stroke-width="0.080" stroke-linecap="round" opacity="0.7"/><line x1="1.875" y1="-0.275" x2="2.110" y2="-0.390" stroke="#4a5160" stroke-width="0.080" stroke-linecap="round" opacity="0.7"/><line x1="1.875" y1="-0.275" x2="2.110" y2="-0.160" stroke="#4a5160" stroke-width="0.080" stroke-linecap="round" opacity="0.7"/><line x1="1.875" y1="0.275" x2="2.110" y2="0.160" stroke="#4a5160" stroke-width="0.080" stroke-linecap="round" opacity="0.7"/><line x1="1.875" y1="0.275" x2="2.110" y2="0.390" stroke="#4a5160" stroke-width="0.080" stroke-linecap="round" opacity="0.7"/><line x1="1.940" y1="-0.590" x2="2.110" y2="-0.390" stroke="#4a5160" stroke-width="0.080" stroke-linecap="round" opacity="0.7"/><line x1="1.940" y1="0.590" x2="2.110" y2="0.390" stroke="#4a5160" stroke-width="0.080" stroke-linecap="round" opacity="0.7"/><line x1="2.110" y1="-0.160" x2="2.110" y2="-0.390" stroke="#4a5160" stroke-width="0.080" stroke-linecap="round" opacity="0.7"/><line x1="2.110" y1="0.390" x2="2.110" y2="0.160" stroke="#4a5160" stroke-width="0.080" stroke-linecap="round" opacity="0.7"/><line x1="-2.360" y1="-1.325" x2="2.360" y2="-1.325" stroke="#d24d4d" stroke-width="0.080" stroke-linecap="round" opacity="0.7"/><line x1="-2.360" y1="1.325" x2="-2.360" y2="-1.325" stroke="#d24d4d" stroke-width="0.080" stroke-linecap="round" opacity="0.7"/><line x1="-2.360" y1="1.325" x2="2.360" y2="1.325" stroke="#d24d4d" stroke-width="0.080" stroke-linecap="round" opacity="0.7"/><line x1="2.360" y1="1.325" x2="2.360" y2="-1.325" stroke="#d24d4d" stroke-width="0.080" stroke-linecap="round" opacity="0.7"/><line x1="-2.070" y1="-0.350" x2="-1.870" y2="-0.350" stroke="#6b7280" stroke-width="0.100" stroke-linecap="round" opacity="0.8"/><line x1="-2.070" y1="-0.220" x2="-2.070" y2="-0.350" stroke="#6b7280" stroke-width="0.100" stroke-linecap="round" opacity="0.8"/><line x1="-2.070" y1="-0.220" x2="-2.020" y2="-0.220" stroke="#6b7280" stroke-width="0.100" stroke-linecap="round" opacity="0.8"/><line x1="-2.070" y1="0.220" x2="-2.020" y2="0.220" stroke="#6b7280" stroke-width="0.100" stroke-linecap="round" opacity="0.8"/><line x1="-2.070" y1="0.350" x2="-2.070" y2="0.220" stroke="#6b7280" stroke-width="0.100" stroke-linecap="round" opacity="0.8"/><line x1="-2.070" y1="0.350" x2="-1.870" y2="0.350" stroke="#6b7280" stroke-width="0.100" stroke-linecap="round" opacity="0.8"/><line x1="-2.020" y1="0.460" x2="-2.020" y2="-0.460" stroke="#6b7280" stroke-width="0.100" stroke-linecap="round" opacity="0.8"/><line x1="-1.930" y1="-0.550" x2="-1.710" y2="-0.550" stroke="#6b7280" stroke-width="0.100" stroke-linecap="round" opacity="0.8"/><line x1="-1.930" y1="0.550" x2="-1.710" y2="0.550" stroke="#6b7280" stroke-width="0.100" stroke-linecap="round" opacity="0.8"/><line x1="-1.870" y1="-0.350" x2="-1.870" y2="-0.550" stroke="#6b7280" stroke-width="0.100" stroke-linecap="round" opacity="0.8"/><line x1="-1.870" y1="0.550" x2="-1.870" y2="0.350" stroke="#6b7280" stroke-width="0.100" stroke-linecap="round" opacity="0.8"/><line x1="-1.710" y1="-0.530" x2="-1.440" y2="-0.530" stroke="#6b7280" stroke-width="0.100" stroke-linecap="round" opacity="0.8"/><line x1="-1.710" y1="-0.350" x2="-1.710" y2="-0.550" stroke="#6b7280" stroke-width="0.100" stroke-linecap="round" opacity="0.8"/><line x1="-1.710" y1="-0.350" x2="1.710" y2="-0.350" stroke="#6b7280" stroke-width="0.100" stroke-linecap="round" opacity="0.8"/><line x1="-1.710" y1="0.350" x2="1.710" y2="0.350" stroke="#6b7280" stroke-width="0.100" stroke-linecap="round" opacity="0.8"/><line x1="-1.710" y1="0.530" x2="-1.440" y2="0.530" stroke="#6b7280" stroke-width="0.100" stroke-linecap="round" opacity="0.8"/><line x1="-1.710" y1="0.550" x2="-1.710" y2="0.350" stroke="#6b7280" stroke-width="0.100" stroke-linecap="round" opacity="0.8"/><line x1="-1.650" y1="-0.600" x2="-1.590" y2="-0.600" stroke="#6b7280" stroke-width="0.100" stroke-linecap="round" opacity="0.8"/><line x1="-1.650" y1="-0.530" x2="-1.650" y2="-0.600" stroke="#6b7280" stroke-width="0.100" stroke-linecap="round" opacity="0.8"/><line x1="-1.650" y1="0.600" x2="-1.650" y2="0.530" stroke="#6b7280" stroke-width="0.100" stroke-linecap="round" opacity="0.8"/><line x1="-1.650" y1="0.600" x2="-1.590" y2="0.600" stroke="#6b7280" stroke-width="0.100" stroke-linecap="round" opacity="0.8"/><line x1="-1.590" y1="-0.530" x2="-1.590" y2="-0.600" stroke="#6b7280" stroke-width="0.100" stroke-linecap="round" opacity="0.8"/><line x1="-1.590" y1="0.350" x2="-1.590" y2="-0.350" stroke="#6b7280" stroke-width="0.100" stroke-linecap="round" opacity="0.8"/><line x1="-1.590" y1="0.600" x2="-1.590" y2="0.530" stroke="#6b7280" stroke-width="0.100" stroke-linecap="round" opacity="0.8"/><line x1="-1.440" y1="-0.705" x2="1.440" y2="-0.705" stroke="#6b7280" stroke-width="0.100" stroke-linecap="round" opacity="0.8"/><line x1="-1.440" y1="-0.530" x2="-1.440" y2="-0.705" stroke="#6b7280" stroke-width="0.100" stroke-linecap="round" opacity="0.8"/><line x1="-1.440" y1="0.705" x2="-1.440" y2="0.530" stroke="#6b7280" stroke-width="0.100" stroke-linecap="round" opacity="0.8"/><line x1="-1.440" y1="0.705" x2="1.440" y2="0.705" stroke="#6b7280" stroke-width="0.100" stroke-linecap="round" opacity="0.8"/><line x1="-1.360" y1="0.350" x2="-1.360" y2="-0.350" stroke="#6b7280" stroke-width="0.100" stroke-linecap="round" opacity="0.8"/><line x1="-1.340" y1="-1.000" x2="-0.720" y2="-1.000" stroke="#6b7280" stroke-width="0.100" stroke-linecap="round" opacity="0.8"/><line x1="-1.340" y1="-0.350" x2="-1.340" y2="-1.000" stroke="#6b7280" stroke-width="0.100" stroke-linecap="round" opacity="0.8"/><line x1="-1.340" y1="1.000" x2="-1.340" y2="0.350" stroke="#6b7280" stroke-width="0.100" stroke-linecap="round" opacity="0.8"/><line x1="-1.340" y1="1.000" x2="-0.720" y2="1.000" stroke="#6b7280" stroke-width="0.100" stroke-linecap="round" opacity="0.8"/><line x1="-0.720" y1="-0.350" x2="-0.720" y2="-1.000" stroke="#6b7280" stroke-width="0.100" stroke-linecap="round" opacity="0.8"/><line x1="-0.720" y1="1.000" x2="-0.720" y2="0.350" stroke="#6b7280" stroke-width="0.100" stroke-linecap="round" opacity="0.8"/><line x1="-0.520" y1="-0.350" x2="-0.520" y2="-0.705" stroke="#6b7280" stroke-width="0.100" stroke-linecap="round" opacity="0.8"/><line x1="-0.520" y1="0.705" x2="-0.520" y2="0.350" stroke="#6b7280" stroke-width="0.100" stroke-linecap="round" opacity="0.8"/><line x1="-0.470" y1="-1.000" x2="-0.330" y2="-1.000" stroke="#6b7280" stroke-width="0.100" stroke-linecap="round" opacity="0.8"/><line x1="-0.470" y1="-0.705" x2="-0.470" y2="-1.000" stroke="#6b7280" stroke-width="0.100" stroke-linecap="round" opacity="0.8"/><line x1="-0.470" y1="1.000" x2="-0.470" y2="0.705" stroke="#6b7280" stroke-width="0.100" stroke-linecap="round" opacity="0.8"/><line x1="-0.470" y1="1.000" x2="-0.330" y2="1.000" stroke="#6b7280" stroke-width="0.100" stroke-linecap="round" opacity="0.8"/><line x1="-0.330" y1="-0.705" x2="-0.330" y2="-1.000" stroke="#6b7280" stroke-width="0.100" stroke-linecap="round" opacity="0.8"/><line x1="-0.330" y1="1.000" x2="-0.330" y2="0.705" stroke="#6b7280" stroke-width="0.100" stroke-linecap="round" opacity="0.8"/><line x1="-0.280" y1="-0.350" x2="-0.280" y2="-0.705" stroke="#6b7280" stroke-width="0.100" stroke-linecap="round" opacity="0.8"/><line x1="-0.280" y1="0.705" x2="-0.280" y2="0.350" stroke="#6b7280" stroke-width="0.100" stroke-linecap="round" opacity="0.8"/><line x1="-0.120" y1="-0.350" x2="-0.120" y2="-0.705" stroke="#6b7280" stroke-width="0.100" stroke-linecap="round" opacity="0.8"/><line x1="-0.120" y1="0.705" x2="-0.120" y2="0.350" stroke="#6b7280" stroke-width="0.100" stroke-linecap="round" opacity="0.8"/><line x1="-0.070" y1="-1.000" x2="0.070" y2="-1.000" stroke="#6b7280" stroke-width="0.100" stroke-linecap="round" opacity="0.8"/><line x1="-0.070" y1="-0.705" x2="-0.070" y2="-1.000" stroke="#6b7280" stroke-width="0.100" stroke-linecap="round" opacity="0.8"/><line x1="-0.070" y1="1.000" x2="-0.070" y2="0.705" stroke="#6b7280" stroke-width="0.100" stroke-linecap="round" opacity="0.8"/><line x1="-0.070" y1="1.000" x2="0.070" y2="1.000" stroke="#6b7280" stroke-width="0.100" stroke-linecap="round" opacity="0.8"/><line x1="0.070" y1="-0.705" x2="0.070" y2="-1.000" stroke="#6b7280" stroke-width="0.100" stroke-linecap="round" opacity="0.8"/><line x1="0.070" y1="1.000" x2="0.070" y2="0.705" stroke="#6b7280" stroke-width="0.100" stroke-linecap="round" opacity="0.8"/><line x1="0.120" y1="-0.350" x2="0.120" y2="-0.705" stroke="#6b7280" stroke-width="0.100" stroke-linecap="round" opacity="0.8"/><line x1="0.120" y1="0.705" x2="0.120" y2="0.350" stroke="#6b7280" stroke-width="0.100" stroke-linecap="round" opacity="0.8"/><line x1="0.280" y1="-0.350" x2="0.280" y2="-0.705" stroke="#6b7280" stroke-width="0.100" stroke-linecap="round" opacity="0.8"/><line x1="0.280" y1="0.705" x2="0.280" y2="0.350" stroke="#6b7280" stroke-width="0.100" stroke-linecap="round" opacity="0.8"/><line x1="0.330" y1="-1.000" x2="0.470" y2="-1.000" stroke="#6b7280" stroke-width="0.100" stroke-linecap="round" opacity="0.8"/><line x1="0.330" y1="-0.705" x2="0.330" y2="-1.000" stroke="#6b7280" stroke-width="0.100" stroke-linecap="round" opacity="0.8"/><line x1="0.330" y1="1.000" x2="0.330" y2="0.705" stroke="#6b7280" stroke-width="0.100" stroke-linecap="round" opacity="0.8"/><line x1="0.330" y1="1.000" x2="0.470" y2="1.000" stroke="#6b7280" stroke-width="0.100" stroke-linecap="round" opacity="0.8"/><line x1="0.470" y1="-0.705" x2="0.470" y2="-1.000" stroke="#6b7280" stroke-width="0.100" stroke-linecap="round" opacity="0.8"/><line x1="0.470" y1="1.000" x2="0.470" y2="0.705" stroke="#6b7280" stroke-width="0.100" stroke-linecap="round" opacity="0.8"/><line x1="0.520" y1="-0.350" x2="0.520" y2="-0.705" stroke="#6b7280" stroke-width="0.100" stroke-linecap="round" opacity="0.8"/><line x1="0.520" y1="0.705" x2="0.520" y2="0.350" stroke="#6b7280" stroke-width="0.100" stroke-linecap="round" opacity="0.8"/><line x1="0.720" y1="-1.000" x2="1.340" y2="-1.000" stroke="#6b7280" stroke-width="0.100" stroke-linecap="round" opacity="0.8"/><line x1="0.720" y1="-0.350" x2="0.720" y2="-1.000" stroke="#6b7280" stroke-width="0.100" stroke-linecap="round" opacity="0.8"/><line x1="0.720" y1="1.000" x2="0.720" y2="0.350" stroke="#6b7280" stroke-width="0.100" stroke-linecap="round" opacity="0.8"/><line x1="0.720" y1="1.000" x2="1.340" y2="1.000" stroke="#6b7280" stroke-width="0.100" stroke-linecap="round" opacity="0.8"/><line x1="1.340" y1="-0.350" x2="1.340" y2="-1.000" stroke="#6b7280" stroke-width="0.100" stroke-linecap="round" opacity="0.8"/><line x1="1.340" y1="1.000" x2="1.340" y2="0.350" stroke="#6b7280" stroke-width="0.100" stroke-linecap="round" opacity="0.8"/><line x1="1.360" y1="0.350" x2="1.360" y2="-0.350" stroke="#6b7280" stroke-width="0.100" stroke-linecap="round" opacity="0.8"/><line x1="1.440" y1="-0.530" x2="1.440" y2="-0.705" stroke="#6b7280" stroke-width="0.100" stroke-linecap="round" opacity="0.8"/><line x1="1.440" y1="-0.530" x2="1.710" y2="-0.530" stroke="#6b7280" stroke-width="0.100" stroke-linecap="round" opacity="0.8"/><line x1="1.440" y1="0.530" x2="1.710" y2="0.530" stroke="#6b7280" stroke-width="0.100" stroke-linecap="round" opacity="0.8"/><line x1="1.440" y1="0.705" x2="1.440" y2="0.530" stroke="#6b7280" stroke-width="0.100" stroke-linecap="round" opacity="0.8"/><line x1="1.590" y1="-0.600" x2="1.650" y2="-0.600" stroke="#6b7280" stroke-width="0.100" stroke-linecap="round" opacity="0.8"/><line x1="1.590" y1="-0.530" x2="1.590" y2="-0.600" stroke="#6b7280" stroke-width="0.100" stroke-linecap="round" opacity="0.8"/><line x1="1.590" y1="0.350" x2="1.590" y2="-0.350" stroke="#6b7280" stroke-width="0.100" stroke-linecap="round" opacity="0.8"/><line x1="1.590" y1="0.600" x2="1.590" y2="0.530" stroke="#6b7280" stroke-width="0.100" stroke-linecap="round" opacity="0.8"/><line x1="1.590" y1="0.600" x2="1.650" y2="0.600" stroke="#6b7280" stroke-width="0.100" stroke-linecap="round" opacity="0.8"/><line x1="1.650" y1="-0.530" x2="1.650" y2="-0.600" stroke="#6b7280" stroke-width="0.100" stroke-linecap="round" opacity="0.8"/><line x1="1.650" y1="0.600" x2="1.650" y2="0.530" stroke="#6b7280" stroke-width="0.100" stroke-linecap="round" opacity="0.8"/><line x1="1.710" y1="-0.550" x2="1.930" y2="-0.550" stroke="#6b7280" stroke-width="0.100" stroke-linecap="round" opacity="0.8"/><line x1="1.710" y1="-0.350" x2="1.710" y2="-0.550" stroke="#6b7280" stroke-width="0.100" stroke-linecap="round" opacity="0.8"/><line x1="1.710" y1="0.550" x2="1.710" y2="0.350" stroke="#6b7280" stroke-width="0.100" stroke-linecap="round" opacity="0.8"/><line x1="1.710" y1="0.550" x2="1.930" y2="0.550" stroke="#6b7280" stroke-width="0.100" stroke-linecap="round" opacity="0.8"/><line x1="1.870" y1="-0.350" x2="1.870" y2="-0.550" stroke="#6b7280" stroke-width="0.100" stroke-linecap="round" opacity="0.8"/><line x1="1.870" y1="-0.350" x2="2.070" y2="-0.350" stroke="#6b7280" stroke-width="0.100" stroke-linecap="round" opacity="0.8"/><line x1="1.870" y1="0.350" x2="2.070" y2="0.350" stroke="#6b7280" stroke-width="0.100" stroke-linecap="round" opacity="0.8"/><line x1="1.870" y1="0.550" x2="1.870" y2="0.350" stroke="#6b7280" stroke-width="0.100" stroke-linecap="round" opacity="0.8"/><line x1="2.020" y1="-0.220" x2="2.070" y2="-0.220" stroke="#6b7280" stroke-width="0.100" stroke-linecap="round" opacity="0.8"/><line x1="2.020" y1="0.220" x2="2.070" y2="0.220" stroke="#6b7280" stroke-width="0.100" stroke-linecap="round" opacity="0.8"/><line x1="2.020" y1="0.460" x2="2.020" y2="-0.460" stroke="#6b7280" stroke-width="0.100" stroke-linecap="round" opacity="0.8"/><line x1="2.070" y1="-0.220" x2="2.070" y2="-0.350" stroke="#6b7280" stroke-width="0.100" stroke-linecap="round" opacity="0.8"/><line x1="2.070" y1="0.350" x2="2.070" y2="0.220" stroke="#6b7280" stroke-width="0.100" stroke-linecap="round" opacity="0.8"/><path d="M -2.020 -0.460 A 0.090 0.090 0 0 1 -1.930 -0.550" fill="none" stroke="#6b7280" stroke-width="0.12" opacity="0.8"/><path d="M -1.930 0.550 A 0.090 0.090 0 0 1 -2.020 0.460" fill="none" stroke="#6b7280" stroke-width="0.12" opacity="0.8"/><path d="M 1.930 -0.550 A 0.090 0.090 0 0 1 2.020 -0.460" fill="none" stroke="#6b7280" stroke-width="0.12" opacity="0.8"/><path d="M 2.020 0.460 A 0.090 0.090 0 0 1 1.930 0.550" fill="none" stroke="#6b7280" stroke-width="0.12" opacity="0.8"/><circle cx="1.575" cy="1.675" r="0.150" fill="#e6e9ef" opacity="1"/><circle cx="1.575" cy="1.675" r="0.150" fill="#6b7280" opacity="0.8"/><rect x="0.660" y="0.740" width="0.740" height="0.360" rx="0.000" fill="#c79b5c"/><rect x="0.660" y="-1.100" width="0.740" height="0.360" rx="0.000" fill="#c79b5c"/><rect x="0.280" y="0.740" width="0.240" height="0.360" rx="0.000" fill="#c79b5c"/><rect x="0.280" y="-1.100" width="0.240" height="0.360" rx="0.000" fill="#c79b5c"/><rect x="-0.120" y="0.740" width="0.240" height="0.360" rx="0.000" fill="#c79b5c"/><rect x="-0.120" y="-1.100" width="0.240" height="0.360" rx="0.000" fill="#c79b5c"/><rect x="-0.520" y="0.740" width="0.240" height="0.360" rx="0.000" fill="#c79b5c"/><rect x="-0.520" y="-1.100" width="0.240" height="0.360" rx="0.000" fill="#c79b5c"/><rect x="-1.400" y="0.740" width="0.740" height="0.360" rx="0.000" fill="#c79b5c"/><rect x="-1.400" y="-1.100" width="0.740" height="0.360" rx="0.000" fill="#c79b5c"/><rect x="1.575" y="-0.525" width="0.430" height="0.300" rx="0.000" fill="#c79b5c"/><rect x="1.575" y="0.225" width="0.430" height="0.300" rx="0.000" fill="#c79b5c"/><rect x="1.640" y="-0.390" width="0.470" height="0.230" rx="0.000" fill="#c79b5c"/><rect x="1.640" y="0.160" width="0.470" height="0.230" rx="0.000" fill="#c79b5c"/><rect x="2.110" y="-0.160" width="0.000" height="0.000" rx="0.000" fill="#c79b5c"/><rect x="2.110" y="0.160" width="0.000" height="0.000" rx="0.000" fill="#c79b5c"/><rect x="-2.110" y="-0.160" width="0.000" height="0.000" rx="0.000" fill="#c79b5c"/><rect x="-2.110" y="0.160" width="0.000" height="0.000" rx="0.000" fill="#c79b5c"/><rect x="-2.110" y="-0.390" width="0.470" height="0.230" rx="0.000" fill="#c79b5c"/><rect x="-2.110" y="0.160" width="0.470" height="0.230" rx="0.000" fill="#c79b5c"/><rect x="-2.005" y="-0.525" width="0.430" height="0.300" rx="0.000" fill="#c79b5c"/><rect x="-2.005" y="0.225" width="0.430" height="0.300" rx="0.000" fill="#c79b5c"/></svg>