<svg xmlns="http://www.w3.org/2000/svg" viewBox="-26.28 -19.97 52.56 27.03" preserveAspectRatio="xMidYMid meet" style="width:100%;height:100%"><rect x="-26.28" y="-19.97" width="52.56" height="27.03" fill="#12151c"/><line x1="-25.280" y1="-18.970" x2="25.280" y2="-18.970" stroke="#d24d4d" stroke-width="0.080" stroke-linecap="round" opacity="0.7"/><line x1="25.280" y1="-18.970" x2="25.280" y2="5.560" stroke="#d24d4d" stroke-width="0.080" stroke-linecap="round" opacity="0.7"/><line x1="25.280" y1="5.560" x2="-25.280" y2="5.560" stroke="#d24d4d" stroke-width="0.080" stroke-linecap="round" opacity="0.7"/><line x1="-25.280" y1="5.560" x2="-25.280" y2="-18.970" stroke="#d24d4d" stroke-width="0.080" stroke-linecap="round" opacity="0.7"/><path d="M -13.525 -0.533 A 0.508 0.508 0 1 1 -14.541 -0.533" fill="none" stroke="#e6e9ef" stroke-width="0.12" opacity="1"/><path d="M -9.398 -17.297 A 1.270 1.270 0 0 1 -11.832 -16.789" fill="none" stroke="#e6e9ef" stroke-width="0.12" opacity="1"/><path d="M -6.794 -13.741 A 1.312 1.312 0 0 1 -8.126 -14.859" fill="none" stroke="#e6e9ef" stroke-width="0.12" opacity="1"/><path d="M 8.126 -14.859 A 1.312 1.312 0 0 1 6.794 -13.741" fill="none" stroke="#e6e9ef" stroke-width="0.12" opacity="1"/><path d="M 11.832 -16.789 A 1.270 1.270 0 0 1 9.398 -17.297" fill="none" stroke="#e6e9ef" stroke-width="0.12" opacity="1"/><path d="M 14.541 -0.533 A 0.508 0.508 0 1 1 13.525 -0.533" fill="none" stroke="#e6e9ef" stroke-width="0.12" opacity="1"/><path d="M -13.525 -0.533 A 0.508 0.508 0 1 1 -14.541 -0.533" fill="none" stroke="#6b7280" stroke-width="0.12" opacity="0.8"/><path d="M -9.398 -17.297 A 1.270 1.270 0 0 1 -11.832 -16.789" fill="none" stroke="#6b7280" stroke-width="0.12" opacity="0.8"/><path d="M -6.794 -13.741 A 1.312 1.312 0 0 1 -8.126 -14.859" fill="none" stroke="#6b7280" stroke-width="0.12" opacity="0.8"/><path d="M 8.126 -14.859 A 1.312 1.312 0 0 1 6.794 -13.741" fill="none" stroke="#6b7280" stroke-width="0.12" opacity="0.8"/><path d="M 11.832 -16.789 A 1.270 1.270 0 0 1 9.398 -17.297" fill="none" stroke="#6b7280" stroke-width="0.12" opacity="0.8"/><path d="M 14.541 -0.533 A 0.508 0.508 0 1 1 13.525 -0.533" fill="none" stroke="#6b7280" stroke-width="0.12" opacity="0.8"/><circle cx="-10.668" cy="-8.915" r="0.953" fill="none" stroke="#e6e9ef" stroke-width="0.12" opacity="1"/><circle cx="-5.153" cy="5.913" r="0.150" fill="none" stroke="#e6e9ef" stroke-width="0.12" opacity="1"/><circle cx="10.668" cy="-8.915" r="0.953" fill="none" stroke="#e6e9ef" stroke-width="0.12" opacity="1"/><circle cx="-10.986" cy="-3.073" r="1.270" fill="none" stroke="#6b7280" stroke-width="0.12" opacity="0.8"/><circle cx="-10.668" cy="-8.915" r="0.953" fill="none" stroke="#6b7280" stroke-width="0.12" opacity="0.8"/><circle cx="10.668" cy="-8.915" r="0.953" fill="none" stroke="#6b7280" stroke-width="0.12" opacity="0.8"/><circle cx="10.986" cy="-3.073" r="1.270" fill="none" stroke="#6b7280" stroke-width="0.12" opacity="0.8"/><rect x="-5.930" y="-2.120" width="1.700" height="1.700" rx="0.850" fill="#c79b5c"/><circle cx="-5.080" cy="-1.270" r="0.500" fill="#12151c"/><rect x="-5.930" y="2.960" width="1.700" height="1.700" rx="0.850" fill="#c79b5c"/><circle cx="-5.080" cy="3.810" r="0.500" fill="#12151c"/><rect x="-5.930" y="-4.660" width="1.700" height="1.700" rx="0.850" fill="#c79b5c"/><circle cx="-5.080" cy="-3.810" r="0.500" fill="#12151c"/><rect x="-5.930" y="0.420" width="1.700" height="1.700" rx="0.850" fill="#c79b5c"/><circle cx="-5.080" cy="1.270" r="0.500" fill="#12151c"/><rect x="-3.390" y="-2.120" width="1.700" height="1.700" rx="0.850" fill="#c79b5c"/><circle cx="-2.540" cy="-1.270" r="0.500" fill="#12151c"/><rect x="-3.390" y="2.960" width="1.700" height="1.700" rx="0.850" fill="#c79b5c"/><circle cx="-2.540" cy="3.810" r="0.500" fill="#12151c"/><rect x="-3.390" y="-4.660" width="1.700" height="1.700" rx="0.850" fill="#c79b5c"/><circle cx="-2.540" cy="-3.810" r="0.500" fill="#12151c"/><rect x="-3.390" y="0.420" width="1.700" height="1.700" rx="0.850" fill="#c79b5c"/><circle cx="-2.540" cy="1.270" r="0.500" fill="#12151c"/><rect x="-0.850" y="-2.120" width="1.700" height="1.700" rx="0.850" fill="#c79b5c"/><circle cx="0.000" cy="-1.270" r="0.500" fill="#12151c"/><rect x="-0.850" y="2.960" width="1.700" height="1.700" rx="0.850" fill="#c79b5c"/><circle cx="0.000" cy="3.810" r="0.500" fill="#12151c"/><rect x="-0.850" y="-4.660" width="1.700" height="1.700" rx="0.850" fill="#c79b5c"/><circle cx="0.000" cy="-3.810" r="0.500" fill="#12151c"/><rect x="-0.850" y="0.420" width="1.700" height="1.700" rx="0.850" fill="#c79b5c"/><circle cx="0.000" cy="1.270" r="0.500" fill="#12151c"/><rect x="1.690" y="-2.120" width="1.700" height="1.700" rx="0.850" fill="#c79b5c"/><circle cx="2.540" cy="-1.270" r="0.500" fill="#12151c"/><rect x="1.690" y="2.960" width="1.700" height="1.700" rx="0.850" fill="#c79b5c"/><circle cx="2.540" cy="3.810" r="0.500" fill="#12151c"/><rect x="1.690" y="-4.660" width="1.700" height="1.700" rx="0.850" fill="#c79b5c"/><circle cx="2.540" cy="-3.810" r="0.500" fill="#12151c"/><rect x="1.690" y="0.420" width="1.700" height="1.700" rx="0.850" fill="#c79b5c"/><circle cx="2.540" cy="1.270" r="0.500" fill="#12151c"/><rect x="4.230" y="-2.120" width="1.700" height="1.700" rx="0.850" fill="#c79b5c"/><circle cx="5.080" cy="-1.270" r="0.500" fill="#12151c"/><rect x="4.230" y="2.960" width="1.700" height="1.700" rx="0.850" fill="#c79b5c"/><circle cx="5.080" cy="3.810" r="0.500" fill="#12151c"/><rect x="4.230" y="-4.660" width="1.700" height="1.700" rx="0.850" fill="#c79b5c"/><circle cx="5.080" cy="-3.810" r="0.500" fill="#12151c"/><rect x="4.230" y="0.420" width="1.700" height="1.700" rx="0.850" fill="#c79b5c"/><circle cx="5.080" cy="1.270" r="0.500" fill="#12151c"/><rect x="-13.285" y="-5.373" width="4.600" height="4.600" rx="2.300" fill="#c79b5c"/><circle cx="-10.986" cy="-3.073" r="1.300" fill="#12151c"/><rect x="8.686" y="-5.373" width="4.600" height="4.600" rx="2.300" fill="#c79b5c"/><circle cx="10.986" cy="-3.073" r="1.300" fill="#12151c"/></svg>