<svg xmlns="http://www.w3.org/2000/svg" viewBox="-6.58 -1.50 23.32 20.78" preserveAspectRatio="xMidYMid meet" style="width:100%;height:100%"><rect x="-6.58" y="-1.50" width="23.32" height="20.78" fill="#12151c"/><rect x="0.000" y="-0.000" width="10.160" height="17.780" fill="#1e222b" stroke="#4ea1ff" stroke-width="0.25"/><polyline points="0.000,2.540 3.175,2.540" fill="none" stroke="#4ea1ff" stroke-width="0.25" stroke-linejoin="round"/><polyline points="0.000,5.080 3.175,5.080" fill="none" stroke="#4ea1ff" stroke-width="0.25" stroke-linejoin="round"/><polyline points="0.000,7.620 3.175,7.620" fill="none" stroke="#4ea1ff" stroke-width="0.25" stroke-linejoin="round"/><polyline points="0.000,10.160 3.175,10.160" fill="none" stroke="#4ea1ff" stroke-width="0.25" stroke-linejoin="round"/><polyline points="0.000,12.700 3.175,12.700" fill="none" stroke="#4ea1ff" stroke-width="0.25" stroke-linejoin="round"/><polyline points="0.000,15.240 3.175,15.240" fill="none" stroke="#4ea1ff" stroke-width="0.25" stroke-linejoin="round"/><polyline points="3.048,0.762 7.112,0.762" fill="none" stroke="#4ea1ff" stroke-width="0.25" stroke-linejoin="round"/><polyline points="3.048,3.302 7.112,3.302" fill="none" stroke="#4ea1ff" stroke-width="0.25" stroke-linejoin="round"/><polyline points="3.048,5.842 7.112,5.842" fill="none" stroke="#4ea1ff" stroke-width="0.25" stroke-linejoin="round"/><polyline points="3.048,8.382 7.112,8.382" fill="none" stroke="#4ea1ff" stroke-width="0.25" stroke-linejoin="round"/><polyline points="3.048,10.922 7.112,10.922" fill="none" stroke="#4ea1ff" stroke-width="0.25" stroke-linejoin="round"/><polyline points="3.048,13.462 7.112,13.462" fill="none" stroke="#4ea1ff" stroke-width="0.25" stroke-linejoin="round"/><polyline points="6.985,2.540 10.160,2.540" fill="none" stroke="#4ea1ff" stroke-width="0.25" stroke-linejoin="round"/><polyline points="6.985,5.080 10.160,5.080" fill="none" stroke="#4ea1ff" stroke-width="0.25" stroke-linejoin="round"/><polyline points="6.985,7.620 10.160,7.620" fill="none" stroke="#4ea1ff" stroke-width="0.25" stroke-linejoin="round"/><polyline points="6.985,10.160 10.160,10.160" fill="none" stroke="#4ea1ff" stroke-width="0.25" stroke-linejoin="round"/><polyline points="6.985,12.700 10.160,12.700" fill="none" stroke="#4ea1ff" stroke-width="0.25" stroke-linejoin="round"/><polyline points="6.985,15.240 10.160,15.240" fill="none" stroke="#4ea1ff" stroke-width="0.25" stroke-linejoin="round"/><circle cx="2.540" cy="1.270" r="0.254" fill="none" stroke="#4ea1ff" stroke-width="0.25"/><circle cx="2.540" cy="3.810" r="0.254" fill="none" stroke="#4ea1ff" stroke-width="0.25"/><circle cx="2.540" cy="6.350" r="0.254" fill="none" stroke="#4ea1ff" stroke-width="0.25"/><circle cx="2.540" cy="8.890" r="0.254" fill="none" stroke="#4ea1ff" stroke-width="0.25"/><circle cx="2.540" cy="11.430" r="0.254" fill="none" stroke="#4ea1ff" stroke-width="0.25"/><circle cx="2.540" cy="13.970" r="0.254" fill="none" stroke="#4ea1ff" stroke-width="0.25"/><path d="M 3.810 1.270 C 3.459 1.270 3.175 1.839 3.175 2.540" fill="none" stroke="#4ea1ff" stroke-width="0.25"/><path d="M 3.810 3.810 C 3.459 3.810 3.175 4.378 3.175 5.080" fill="none" stroke="#4ea1ff" stroke-width="0.25"/><path d="M 3.810 6.350 C 3.459 6.350 3.175 6.918 3.175 7.620" fill="none" stroke="#4ea1ff" stroke-width="0.25"/><path d="M 3.810 8.890 C 3.459 8.890 3.175 9.459 3.175 10.160" fill="none" stroke="#4ea1ff" stroke-width="0.25"/><path d="M 3.810 11.430 C 3.459 11.430 3.175 11.998 3.175 12.700" fill="none" stroke="#4ea1ff" stroke-width="0.25"/><path d="M 3.810 13.970 C 3.459 13.970 3.175 14.539 3.175 15.240" fill="none" stroke="#4ea1ff" stroke-width="0.25"/><path d="M 4.445 2.540 C 4.445 1.839 4.161 1.270 3.810 1.270" fill="none" stroke="#4ea1ff" stroke-width="0.25"/><path d="M 4.445 5.080 C 4.445 4.378 4.161 3.810 3.810 3.810" fill="none" stroke="#4ea1ff" stroke-width="0.25"/><path d="M 4.445 7.620 C 4.445 6.918 4.161 6.350 3.810 6.350" fill="none" stroke="#4ea1ff" stroke-width="0.25"/><path d="M 4.445 10.160 C 4.445 9.459 4.161 8.890 3.810 8.890" fill="none" stroke="#4ea1ff" stroke-width="0.25"/><path d="M 4.445 12.700 C 4.445 11.998 4.161 11.430 3.810 11.430" fill="none" stroke="#4ea1ff" stroke-width="0.25"/><path d="M 4.445 15.240 C 4.445 14.539 4.161 13.970 3.810 13.970" fill="none" stroke="#4ea1ff" stroke-width="0.25"/><path d="M 5.080 1.270 C 4.729 1.270 4.445 1.839 4.445 2.540" fill="none" stroke="#4ea1ff" stroke-width="0.25"/><path d="M 5.080 3.810 C 4.729 3.810 4.445 4.378 4.445 5.080" fill="none" stroke="#4ea1ff" stroke-width="0.25"/><path d="M 5.080 6.350 C 4.729 6.350 4.445 6.918 4.445 7.620" fill="none" stroke="#4ea1ff" stroke-width="0.25"/><path d="M 5.080 8.890 C 4.729 8.890 4.445 9.459 4.445 10.160" fill="none" stroke="#4ea1ff" stroke-width="0.25"/><path d="M 5.080 11.430 C 4.729 11.430 4.445 11.998 4.445 12.700" fill="none" stroke="#4ea1ff" stroke-width="0.25"/><path d="M 5.080 13.970 C 4.729 13.970 4.445 14.539 4.445 15.240" fill="none" stroke="#4ea1ff" stroke-width="0.25"/><path d="M 5.715 2.540 C 5.715 1.839 5.431 1.270 5.080 1.270" fill="none" stroke="#4ea1ff" stroke-width="0.25"/><path d="M 5.715 5.080 C 5.715 4.378 5.431 3.810 5.080 3.810" fill="none" stroke="#4ea1ff" stroke-width="0.25"/><path d="M 5.715 7.620 C 5.715 6.918 5.431 6.350 5.080 6.350" fill="none" stroke="#4ea1ff" stroke-width="0.25"/><path d="M 5.715 10.160 C 5.715 9.459 5.431 8.890 5.080 8.890" fill="none" stroke="#4ea1ff" stroke-width="0.25"/><path d="M 5.715 12.700 C 5.715 11.998 5.431 11.430 5.080 11.430" fill="none" stroke="#4ea1ff" stroke-width="0.25"/><path d="M 5.715 15.240 C 5.715 14.539 5.431 13.970 5.080 13.970" fill="none" stroke="#4ea1ff" stroke-width="0.25"/><path d="M 6.350 1.270 C 5.999 1.270 5.715 1.839 5.715 2.540" fill="none" stroke="#4ea1ff" stroke-width="0.25"/><path d="M 6.350 3.810 C 5.999 3.810 5.715 4.378 5.715 5.080" fill="none" stroke="#4ea1ff" stroke-width="0.25"/><path d="M 6.350 6.350 C 5.999 6.350 5.715 6.918 5.715 7.620" fill="none" stroke="#4ea1ff" stroke-width="0.25"/><path d="M 6.350 8.890 C 5.999 8.890 5.715 9.459 5.715 10.160" fill="none" stroke="#4ea1ff" stroke-width="0.25"/><path d="M 6.350 11.430 C 5.999 11.430 5.715 11.998 5.715 12.700" fill="none" stroke="#4ea1ff" stroke-width="0.25"/><path d="M 6.350 13.970 C 5.999 13.970 5.715 14.539 5.715 15.240" fill="none" stroke="#4ea1ff" stroke-width="0.25"/><path d="M 6.985 2.540 C 6.985 1.839 6.701 1.270 6.350 1.270" fill="none" stroke="#4ea1ff" stroke-width="0.25"/><path d="M 6.985 5.080 C 6.985 4.378 6.701 3.810 6.350 3.810" fill="none" stroke="#4ea1ff" stroke-width="0.25"/><path d="M 6.985 7.620 C 6.985 6.918 6.701 6.350 6.350 6.350" fill="none" stroke="#4ea1ff" stroke-width="0.25"/><path d="M 6.985 10.160 C 6.985 9.459 6.701 8.890 6.350 8.890" fill="none" stroke="#4ea1ff" stroke-width="0.25"/><path d="M 6.985 12.700 C 6.985 11.998 6.701 11.430 6.350 11.430" fill="none" stroke="#4ea1ff" stroke-width="0.25"/><path d="M 6.985 15.240 C 6.985 14.539 6.701 13.970 6.350 13.970" fill="none" stroke="#4ea1ff" stroke-width="0.25"/><line x1="-5.080" y1="2.540" x2="0.000" y2="2.540" stroke="#e6e9ef" stroke-width="0.2"/><circle cx="-5.080" cy="2.540" r="0.4" fill="#4ea1ff"/><text x="-0.300" y="2.190" fill="#9aa3b2" font-size="0.9" text-anchor="end" font-family="sans-serif">12</text><line x1="-5.080" y1="5.080" x2="0.000" y2="5.080" stroke="#e6e9ef" stroke-width="0.2"/><circle cx="-5.080" cy="5.080" r="0.4" fill="#4ea1ff"/><text x="-0.300" y="4.730" fill="#9aa3b2" font-size="0.9" text-anchor="end" font-family="sans-serif">11</text><line x1="-5.080" y1="7.620" x2="0.000" y2="7.620" stroke="#e6e9ef" stroke-width="0.2"/><circle cx="-5.080" cy="7.620" r="0.4" fill="#4ea1ff"/><text x="-0.300" y="7.270" fill="#9aa3b2" font-size="0.9" text-anchor="end" font-family="sans-serif">10</text><line x1="-5.080" y1="10.160" x2="0.000" y2="10.160" stroke="#e6e9ef" stroke-width="0.2"/><circle cx="-5.080" cy="10.160" r="0.4" fill="#4ea1ff"/><text x="-0.300" y="9.810" fill="#9aa3b2" font-size="0.9" text-anchor="end" font-family="sans-serif">6</text><line x1="-5.080" y1="12.700" x2="0.000" y2="12.700" stroke="#e6e9ef" stroke-width="0.2"/><circle cx="-5.080" cy="12.700" r="0.4" fill="#4ea1ff"/><text x="-0.300" y="12.350" fill="#9aa3b2" font-size="0.9" text-anchor="end" font-family="sans-serif">5</text><line x1="-5.080" y1="15.240" x2="0.000" y2="15.240" stroke="#e6e9ef" stroke-width="0.2"/><circle cx="-5.080" cy="15.240" r="0.4" fill="#4ea1ff"/><text x="-0.300" y="14.890" fill="#9aa3b2" font-size="0.9" text-anchor="end" font-family="sans-serif">4</text><line x1="15.240" y1="2.540" x2="10.160" y2="2.540" stroke="#e6e9ef" stroke-width="0.2"/><circle cx="15.240" cy="2.540" r="0.4" fill="#4ea1ff"/><text x="10.460" y="2.190" fill="#9aa3b2" font-size="0.9" text-anchor="start" font-family="sans-serif">9</text><line x1="15.240" y1="5.080" x2="10.160" y2="5.080" stroke="#e6e9ef" stroke-width="0.2"/><circle cx="15.240" cy="5.080" r="0.4" fill="#4ea1ff"/><text x="10.460" y="4.730" fill="#9aa3b2" font-size="0.9" text-anchor="start" font-family="sans-serif">8</text><line x1="15.240" y1="7.620" x2="10.160" y2="7.620" stroke="#e6e9ef" stroke-width="0.2"/><circle cx="15.240" cy="7.620" r="0.4" fill="#4ea1ff"/><text x="10.460" y="7.270" fill="#9aa3b2" font-size="0.9" text-anchor="start" font-family="sans-serif">7</text><line x1="15.240" y1="10.160" x2="10.160" y2="10.160" stroke="#e6e9ef" stroke-width="0.2"/><circle cx="15.240" cy="10.160" r="0.4" fill="#4ea1ff"/><text x="10.460" y="9.810" fill="#9aa3b2" font-size="0.9" text-anchor="start" font-family="sans-serif">3</text><line x1="15.240" y1="12.700" x2="10.160" y2="12.700" stroke="#e6e9ef" stroke-width="0.2"/><circle cx="15.240" cy="12.700" r="0.4" fill="#4ea1ff"/><text x="10.460" y="12.350" fill="#9aa3b2" font-size="0.9" text-anchor="start" font-family="sans-serif">2</text><line x1="15.240" y1="15.240" x2="10.160" y2="15.240" stroke="#e6e9ef" stroke-width="0.2"/><circle cx="15.240" cy="15.240" r="0.4" fill="#4ea1ff"/><text x="10.460" y="14.890" fill="#9aa3b2" font-size="0.9" text-anchor="start" font-family="sans-serif">1</text></svg>