<svg xmlns="http://www.w3.org/2000/svg" viewBox="-6.58 -6.58 15.70 23.32" preserveAspectRatio="xMidYMid meet" style="width:100%;height:100%"><rect x="-6.58" y="-6.58" width="15.70" height="23.32" fill="#12151c"/><rect x="-5.080" y="1.270" width="5.080" height="2.540" fill="#1e222b" stroke="#4ea1ff" stroke-width="0.25"/><rect x="-0.508" y="6.350" width="0.508" height="2.540" fill="#1e222b" stroke="#4ea1ff" stroke-width="0.25"/><rect x="0.000" y="-0.000" width="3.810" height="10.160" fill="#1e222b" stroke="#4ea1ff" stroke-width="0.25"/><polyline points="-5.080,1.270 0.000,1.270" fill="none" stroke="#4ea1ff" stroke-width="0.25" stroke-linejoin="round"/><polyline points="-5.080,3.810 0.000,3.810" fill="none" stroke="#4ea1ff" stroke-width="0.25" stroke-linejoin="round"/><polyline points="-2.032,2.413 -0.762,2.413" fill="none" stroke="#4ea1ff" stroke-width="0.25" stroke-linejoin="round"/><polyline points="-0.762,2.921 -0.762,1.905 -0.254,2.413 -0.762,2.921" fill="#1e222b" stroke="#4ea1ff" stroke-width="0.25" stroke-linejoin="round"/><polyline points="0.000,-0.000 0.000,1.270" fill="none" stroke="#4ea1ff" stroke-width="0.25" stroke-linejoin="round"/><polyline points="0.000,-0.000 0.000,1.270" fill="none" stroke="#4ea1ff" stroke-width="0.25" stroke-linejoin="round"/><polyline points="0.000,-0.000 3.810,-0.000" fill="none" stroke="#4ea1ff" stroke-width="0.25" stroke-linejoin="round"/><polyline points="0.000,10.160 0.000,3.810" fill="none" stroke="#4ea1ff" stroke-width="0.25" stroke-linejoin="round"/><polyline points="0.000,10.160 0.000,3.810" fill="none" stroke="#4ea1ff" stroke-width="0.25" stroke-linejoin="round"/><polyline points="0.000,10.160 3.810,10.160" fill="none" stroke="#4ea1ff" stroke-width="0.25" stroke-linejoin="round"/><polyline points="2.223,3.493 2.858,3.493 2.858,1.588 2.223,1.588 2.223,3.493" fill="#1e222b" stroke="#4ea1ff" stroke-width="0.25" stroke-linejoin="round"/><polyline points="2.223,8.573 2.858,8.573 2.858,6.668 2.223,6.668 2.223,8.573" fill="#1e222b" stroke="#4ea1ff" stroke-width="0.25" stroke-linejoin="round"/><polyline points="2.540,-0.000 2.540,1.588" fill="none" stroke="#4ea1ff" stroke-width="0.25" stroke-linejoin="round"/><polyline points="2.540,5.080 2.540,3.493" fill="none" stroke="#4ea1ff" stroke-width="0.25" stroke-linejoin="round"/><polyline points="2.540,5.080 2.540,6.668" fill="none" stroke="#4ea1ff" stroke-width="0.25" stroke-linejoin="round"/><polyline points="2.540,5.080 3.810,5.080" fill="none" stroke="#4ea1ff" stroke-width="0.25" stroke-linejoin="round"/><polyline points="2.540,10.160 2.540,8.573" fill="none" stroke="#4ea1ff" stroke-width="0.25" stroke-linejoin="round"/><polyline points="3.810,10.160 3.810,-0.000" fill="none" stroke="#4ea1ff" stroke-width="0.25" stroke-linejoin="round"/><circle cx="2.540" cy="5.080" r="0.254" fill="none" stroke="#4ea1ff" stroke-width="0.25"/><line x1="-3.810" y1="7.620" x2="0.000" y2="7.620" stroke="#e6e9ef" stroke-width="0.2"/><circle cx="-3.810" cy="7.620" r="0.4" fill="#4ea1ff"/><text x="-0.300" y="7.270" fill="#9aa3b2" font-size="0.9" text-anchor="end" font-family="sans-serif">4</text><line x1="2.540" y1="-5.080" x2="2.540" y2="-0.000" stroke="#e6e9ef" stroke-width="0.2"/><circle cx="2.540" cy="-5.080" r="0.4" fill="#4ea1ff"/><text x="3.140" y="1.000" fill="#9aa3b2" font-size="0.9" text-anchor="start" font-family="sans-serif">3</text><line x1="2.540" y1="15.240" x2="2.540" y2="10.160" stroke="#e6e9ef" stroke-width="0.2"/><circle cx="2.540" cy="15.240" r="0.4" fill="#4ea1ff"/><text x="3.140" y="11.160" fill="#9aa3b2" font-size="0.9" text-anchor="start" font-family="sans-serif">2</text><line x1="7.620" y1="5.080" x2="3.810" y2="5.080" stroke="#e6e9ef" stroke-width="0.2"/><circle cx="7.620" cy="5.080" r="0.4" fill="#4ea1ff"/><text x="4.110" y="4.730" fill="#9aa3b2" font-size="0.9" text-anchor="start" font-family="sans-serif">1</text></svg>