<svg xmlns="http://www.w3.org/2000/svg" viewBox="-10.36 -2.64 19.97 14.60" preserveAspectRatio="xMidYMid meet" style="width:100%;height:100%"><rect x="-10.36" y="-2.64" width="19.97" height="14.60" fill="#12151c"/><line x1="-9.360" y1="-1.250" x2="8.610" y2="-1.250" stroke="#d24d4d" stroke-width="0.080" stroke-linecap="round" opacity="0.7"/><line x1="8.610" y1="-1.250" x2="8.610" y2="10.960" stroke="#d24d4d" stroke-width="0.080" stroke-linecap="round" opacity="0.7"/><line x1="8.610" y1="10.960" x2="-9.360" y2="10.960" stroke="#d24d4d" stroke-width="0.080" stroke-linecap="round" opacity="0.7"/><line x1="-9.360" y1="10.960" x2="-9.360" y2="-1.250" stroke="#d24d4d" stroke-width="0.080" stroke-linecap="round" opacity="0.7"/><circle cx="3.810" cy="-1.516" r="0.125" fill="none" stroke="#e6e9ef" stroke-width="0.12" opacity="1"/><rect x="3.360" y="-1.000" width="0.900" height="2.000" rx="0.000" fill="#c79b5c"/><rect x="2.090" y="-1.000" width="0.900" height="2.000" rx="0.000" fill="#c79b5c"/><rect x="0.820" y="-1.000" width="0.900" height="2.000" rx="0.000" fill="#c79b5c"/><rect x="-0.450" y="-1.000" width="0.900" height="2.000" rx="0.000" fill="#c79b5c"/><rect x="-1.720" y="-1.000" width="0.900" height="2.000" rx="0.000" fill="#c79b5c"/><rect x="-2.990" y="-1.000" width="0.900" height="2.000" rx="0.000" fill="#c79b5c"/><rect x="-4.260" y="-1.000" width="0.900" height="2.000" rx="0.000" fill="#c79b5c"/><rect x="-7.470" y="0.860" width="2.200" height="3.000" rx="0.000" fill="#c79b5c"/><circle cx="-6.370" cy="2.360" r="0.750" fill="#12151c"/><rect x="5.270" y="0.860" width="2.200" height="3.000" rx="0.000" fill="#c79b5c"/><circle cx="6.370" cy="2.360" r="0.750" fill="#12151c"/></svg>