<svg xmlns="http://www.w3.org/2000/svg" viewBox="-6.33 -2.52 12.66 5.53" preserveAspectRatio="xMidYMid meet" style="width:100%;height:100%"><rect x="-6.33" y="-2.52" width="12.66" height="5.53" fill="#12151c"/><line x1="-5.080" y1="1.270" x2="-5.080" y2="-1.270" stroke="#e6e9ef" stroke-width="0.200" stroke-linecap="round" opacity="1"/><line x1="-5.080" y1="1.270" x2="5.080" y2="1.270" stroke="#e6e9ef" stroke-width="0.200" stroke-linecap="round" opacity="1"/><line x1="-5.080" y1="-1.270" x2="5.080" y2="-1.270" stroke="#e6e9ef" stroke-width="0.200" stroke-linecap="round" opacity="1"/><line x1="5.080" y1="1.270" x2="5.080" y2="-1.270" stroke="#e6e9ef" stroke-width="0.200" stroke-linecap="round" opacity="1"/><line x1="-4.310" y1="0.000" x2="-3.810" y2="0.000" stroke="#4a5160" stroke-width="0.080" stroke-linecap="round" opacity="0.7"/><line x1="-3.810" y1="0.000" x2="-3.810" y2="-0.500" stroke="#4a5160" stroke-width="0.080" stroke-linecap="round" opacity="0.7"/><line x1="-3.810" y1="0.000" x2="-3.310" y2="0.000" stroke="#4a5160" stroke-width="0.080" stroke-linecap="round" opacity="0.7"/><line x1="-3.810" y1="0.500" x2="-3.810" y2="0.000" stroke="#4a5160" stroke-width="0.080" stroke-linecap="round" opacity="0.7"/><line x1="-1.770" y1="0.000" x2="-1.270" y2="0.000" stroke="#4a5160" stroke-width="0.080" stroke-linecap="round" opacity="0.7"/><line x1="-1.270" y1="0.000" x2="-1.270" y2="-0.500" stroke="#4a5160" stroke-width="0.080" stroke-linecap="round" opacity="0.7"/><line x1="-1.270" y1="0.000" x2="-0.770" y2="0.000" stroke="#4a5160" stroke-width="0.080" stroke-linecap="round" opacity="0.7"/><line x1="-1.270" y1="0.500" x2="-1.270" y2="0.000" stroke="#4a5160" stroke-width="0.080" stroke-linecap="round" opacity="0.7"/><line x1="-0.500" y1="0.000" x2="0.000" y2="0.000" stroke="#4a5160" stroke-width="0.080" stroke-linecap="round" opacity="0.7"/><line x1="0.000" y1="0.000" x2="0.000" y2="-0.500" stroke="#4a5160" stroke-width="0.080" stroke-linecap="round" opacity="0.7"/><line x1="0.000" y1="0.000" x2="0.500" y2="0.000" stroke="#4a5160" stroke-width="0.080" stroke-linecap="round" opacity="0.7"/><line x1="0.000" y1="0.500" x2="0.000" y2="0.000" stroke="#4a5160" stroke-width="0.080" stroke-linecap="round" opacity="0.7"/><line x1="0.770" y1="0.000" x2="1.270" y2="0.000" stroke="#4a5160" stroke-width="0.080" stroke-linecap="round" opacity="0.7"/><line x1="1.270" y1="0.000" x2="1.270" y2="-0.500" stroke="#4a5160" stroke-width="0.080" stroke-linecap="round" opacity="0.7"/><line x1="1.270" y1="0.000" x2="1.770" y2="0.000" stroke="#4a5160" stroke-width="0.080" stroke-linecap="round" opacity="0.7"/><line x1="1.270" y1="0.500" x2="1.270" y2="0.000" stroke="#4a5160" stroke-width="0.080" stroke-linecap="round" opacity="0.7"/><line x1="3.310" y1="0.000" x2="3.810" y2="0.000" stroke="#4a5160" stroke-width="0.080" stroke-linecap="round" opacity="0.7"/><line x1="3.810" y1="0.000" x2="3.810" y2="-0.500" stroke="#4a5160" stroke-width="0.080" stroke-linecap="round" opacity="0.7"/><line x1="3.810" y1="0.000" x2="4.310" y2="0.000" stroke="#4a5160" stroke-width="0.080" stroke-linecap="round" opacity="0.7"/><line x1="3.810" y1="0.500" x2="3.810" y2="0.000" stroke="#4a5160" stroke-width="0.080" stroke-linecap="round" opacity="0.7"/><line x1="-5.080" y1="1.270" x2="-5.080" y2="-1.270" stroke="#6b7280" stroke-width="0.100" stroke-linecap="round" opacity="0.8"/><line x1="-5.080" y1="1.270" x2="5.080" y2="1.270" stroke="#6b7280" stroke-width="0.100" stroke-linecap="round" opacity="0.8"/><line x1="-5.080" y1="-1.270" x2="5.080" y2="-1.270" stroke="#6b7280" stroke-width="0.100" stroke-linecap="round" opacity="0.8"/><line x1="-4.128" y1="-0.318" x2="-3.493" y2="-0.318" stroke="#6b7280" stroke-width="0.100" stroke-linecap="round" opacity="0.8"/><line x1="-4.128" y1="0.318" x2="-4.128" y2="-0.318" stroke="#6b7280" stroke-width="0.100" stroke-linecap="round" opacity="0.8"/><line x1="-4.128" y1="0.318" x2="-3.493" y2="0.318" stroke="#6b7280" stroke-width="0.100" stroke-linecap="round" opacity="0.8"/><line x1="-3.493" y1="0.318" x2="-3.493" y2="-0.318" stroke="#6b7280" stroke-width="0.100" stroke-linecap="round" opacity="0.8"/><line x1="-1.587" y1="-0.318" x2="-0.953" y2="-0.318" stroke="#6b7280" stroke-width="0.100" stroke-linecap="round" opacity="0.8"/><line x1="-1.587" y1="0.318" x2="-1.587" y2="-0.318" stroke="#6b7280" stroke-width="0.100" stroke-linecap="round" opacity="0.8"/><line x1="-1.587" y1="0.318" x2="-0.953" y2="0.318" stroke="#6b7280" stroke-width="0.100" stroke-linecap="round" opacity="0.8"/><line x1="-0.953" y1="0.318" x2="-0.953" y2="-0.318" stroke="#6b7280" stroke-width="0.100" stroke-linecap="round" opacity="0.8"/><line x1="0.953" y1="-0.318" x2="1.587" y2="-0.318" stroke="#6b7280" stroke-width="0.100" stroke-linecap="round" opacity="0.8"/><line x1="0.953" y1="0.318" x2="0.953" y2="-0.318" stroke="#6b7280" stroke-width="0.100" stroke-linecap="round" opacity="0.8"/><line x1="0.953" y1="0.318" x2="1.587" y2="0.318" stroke="#6b7280" stroke-width="0.100" stroke-linecap="round" opacity="0.8"/><line x1="1.587" y1="0.318" x2="1.587" y2="-0.318" stroke="#6b7280" stroke-width="0.100" stroke-linecap="round" opacity="0.8"/><line x1="3.493" y1="-0.318" x2="4.128" y2="-0.318" stroke="#6b7280" stroke-width="0.100" stroke-linecap="round" opacity="0.8"/><line x1="3.493" y1="0.318" x2="3.493" y2="-0.318" stroke="#6b7280" stroke-width="0.100" stroke-linecap="round" opacity="0.8"/><line x1="3.493" y1="0.318" x2="4.128" y2="0.318" stroke="#6b7280" stroke-width="0.100" stroke-linecap="round" opacity="0.8"/><line x1="4.128" y1="0.318" x2="4.128" y2="-0.318" stroke="#6b7280" stroke-width="0.100" stroke-linecap="round" opacity="0.8"/><line x1="5.080" y1="1.270" x2="5.080" y2="-1.270" stroke="#6b7280" stroke-width="0.100" stroke-linecap="round" opacity="0.8"/><line x1="-5.330" y1="-1.520" x2="5.330" y2="-1.520" stroke="#d24d4d" stroke-width="0.080" stroke-linecap="round" opacity="0.7"/><line x1="5.330" y1="-1.520" x2="5.330" y2="1.520" stroke="#d24d4d" stroke-width="0.080" stroke-linecap="round" opacity="0.7"/><line x1="5.330" y1="1.520" x2="-5.330" y2="1.520" stroke="#d24d4d" stroke-width="0.080" stroke-linecap="round" opacity="0.7"/><line x1="-5.330" y1="1.520" x2="-5.330" y2="-1.520" stroke="#d24d4d" stroke-width="0.080" stroke-linecap="round" opacity="0.7"/><circle cx="-3.775" cy="1.865" r="0.150" fill="none" stroke="#e6e9ef" stroke-width="0.12" opacity="1"/><rect x="-4.660" y="-0.850" width="1.700" height="1.700" rx="0.000" fill="#c79b5c"/><circle cx="-3.810" cy="0.000" r="0.500" fill="#12151c"/><rect x="-2.120" y="-0.850" width="1.700" height="1.700" rx="0.850" fill="#c79b5c"/><circle cx="-1.270" cy="0.000" r="0.500" fill="#12151c"/><rect x="0.420" y="-0.850" width="1.700" height="1.700" rx="0.850" fill="#c79b5c"/><circle cx="1.270" cy="0.000" r="0.500" fill="#12151c"/><rect x="2.960" y="-0.850" width="1.700" height="1.700" rx="0.850" fill="#c79b5c"/><circle cx="3.810" cy="0.000" r="0.500" fill="#12151c"/><polygon points="-4.26,1.90 -3.36,1.90 -3.81,1.30" fill="#ffffff"/></svg>