<svg xmlns="http://www.w3.org/2000/svg" viewBox="-4.08 -11.79 18.20 97.24" preserveAspectRatio="xMidYMid meet" style="width:100%;height:100%"><rect x="-4.08" y="-11.79" width="18.20" height="97.24" fill="#12151c"/><line x1="-3.080" y1="-10.790" x2="13.120" y2="-10.790" stroke="#d24d4d" stroke-width="0.080" stroke-linecap="round" opacity="0.7"/><line x1="13.120" y1="-10.790" x2="13.120" y2="84.450" stroke="#d24d4d" stroke-width="0.080" stroke-linecap="round" opacity="0.7"/><line x1="13.120" y1="84.450" x2="-3.080" y2="84.450" stroke="#d24d4d" stroke-width="0.080" stroke-linecap="round" opacity="0.7"/><line x1="-3.080" y1="84.450" x2="-3.080" y2="-10.790" stroke="#d24d4d" stroke-width="0.080" stroke-linecap="round" opacity="0.7"/><path d="M -0.600 83.780 A 1.325 1.325 0 0 1 2.050 83.780" fill="none" stroke="#e6e9ef" stroke-width="0.12" opacity="1"/><path d="M 10.750 -10.120 A 1.325 1.325 0 0 1 8.100 -10.120" fill="none" stroke="#e6e9ef" stroke-width="0.12" opacity="1"/><path d="M -0.600 83.780 A 1.325 1.325 0 0 1 2.050 83.780" fill="none" stroke="#6b7280" stroke-width="0.12" opacity="0.8"/><path d="M 10.750 -10.120 A 1.325 1.325 0 0 1 8.100 -10.120" fill="none" stroke="#6b7280" stroke-width="0.12" opacity="0.8"/><circle cx="4.775" cy="-8.170" r="1.435" fill="none" stroke="#6b7280" stroke-width="0.12" opacity="0.8"/><circle cx="4.775" cy="81.830" r="1.435" fill="none" stroke="#6b7280" stroke-width="0.12" opacity="0.8"/><rect x="3.025" y="-9.920" width="3.500" height="3.500" rx="1.750" fill="#c79b5c"/><circle cx="4.775" cy="-8.170" r="1.400" fill="#12151c"/><rect x="3.025" y="80.080" width="3.500" height="3.500" rx="1.750" fill="#c79b5c"/><circle cx="4.775" cy="81.830" r="1.400" fill="#12151c"/></svg>