<svg xmlns="http://www.w3.org/2000/svg" viewBox="-9.37 -2.26 18.74 16.50" preserveAspectRatio="xMidYMid meet" style="width:100%;height:100%"><rect x="-9.37" y="-2.26" width="18.74" height="16.50" fill="#12151c"/><line x1="-8.370" y1="-1.260" x2="8.370" y2="-1.260" stroke="#d24d4d" stroke-width="0.080" stroke-linecap="round" opacity="0.7"/><line x1="8.370" y1="-1.260" x2="8.370" y2="13.240" stroke="#d24d4d" stroke-width="0.080" stroke-linecap="round" opacity="0.7"/><line x1="8.370" y1="13.240" x2="-8.370" y2="13.240" stroke="#d24d4d" stroke-width="0.080" stroke-linecap="round" opacity="0.7"/><line x1="-8.370" y1="13.240" x2="-8.370" y2="-1.260" stroke="#d24d4d" stroke-width="0.080" stroke-linecap="round" opacity="0.7"/><path d="M -6.565 12.370 A 0.302 0.302 0 0 1 -6.867 12.672" fill="none" stroke="#e6e9ef" stroke-width="0.12" opacity="1"/><path d="M -6.247 12.370 A 0.620 0.620 0 0 1 -6.867 12.990" fill="none" stroke="#e6e9ef" stroke-width="0.12" opacity="1"/><path d="M -4.745 5.082 A 0.250 0.250 0 0 1 -4.249 5.015" fill="none" stroke="#e6e9ef" stroke-width="0.12" opacity="1"/><path d="M -2.104 11.426 A 0.904 0.904 0 0 1 -3.896 11.426" fill="none" stroke="#e6e9ef" stroke-width="0.12" opacity="1"/><path d="M -1.751 5.015 A 0.250 0.250 0 1 1 -1.255 5.082" fill="none" stroke="#e6e9ef" stroke-width="0.12" opacity="1"/><path d="M 1.255 5.082 A 0.250 0.250 0 1 1 1.751 5.015" fill="none" stroke="#e6e9ef" stroke-width="0.12" opacity="1"/><path d="M 3.896 11.426 A 0.904 0.904 0 0 1 2.104 11.426" fill="none" stroke="#e6e9ef" stroke-width="0.12" opacity="1"/><path d="M 4.249 5.015 A 0.250 0.250 0 0 1 4.745 5.082" fill="none" stroke="#e6e9ef" stroke-width="0.12" opacity="1"/><path d="M 6.867 12.672 A 0.302 0.302 0 0 1 6.565 12.370" fill="none" stroke="#e6e9ef" stroke-width="0.12" opacity="1"/><path d="M 6.867 12.990 A 0.620 0.620 0 0 1 6.247 12.370" fill="none" stroke="#e6e9ef" stroke-width="0.12" opacity="1"/><path d="M -8.117 2.092 A 0.100 0.100 0 0 1 -8.033 1.993" fill="none" stroke="#6b7280" stroke-width="0.12" opacity="0.8"/><path d="M -8.033 3.427 A 0.100 0.100 0 0 1 -8.117 3.328" fill="none" stroke="#6b7280" stroke-width="0.12" opacity="0.8"/><path d="M -6.649 3.652 A 0.100 0.100 0 0 1 -6.565 3.750" fill="none" stroke="#6b7280" stroke-width="0.12" opacity="0.8"/><path d="M -6.565 1.670 A 0.100 0.100 0 0 1 -6.649 1.768" fill="none" stroke="#6b7280" stroke-width="0.12" opacity="0.8"/><path d="M -6.565 12.370 A 0.302 0.302 0 0 1 -6.867 12.672" fill="none" stroke="#6b7280" stroke-width="0.12" opacity="0.8"/><path d="M -6.247 12.370 A 0.620 0.620 0 0 1 -6.867 12.990" fill="none" stroke="#6b7280" stroke-width="0.12" opacity="0.8"/><path d="M -4.745 5.082 A 0.250 0.250 0 0 1 -4.249 5.015" fill="none" stroke="#6b7280" stroke-width="0.12" opacity="0.8"/><path d="M -2.104 11.426 A 0.904 0.904 0 0 1 -3.896 11.426" fill="none" stroke="#6b7280" stroke-width="0.12" opacity="0.8"/><path d="M -1.751 5.015 A 0.250 0.250 0 1 1 -1.255 5.082" fill="none" stroke="#6b7280" stroke-width="0.12" opacity="0.8"/><path d="M 1.255 5.082 A 0.250 0.250 0 1 1 1.751 5.015" fill="none" stroke="#6b7280" stroke-width="0.12" opacity="0.8"/><path d="M 3.896 11.426 A 0.904 0.904 0 0 1 2.104 11.426" fill="none" stroke="#6b7280" stroke-width="0.12" opacity="0.8"/><path d="M 4.249 5.015 A 0.250 0.250 0 0 1 4.745 5.082" fill="none" stroke="#6b7280" stroke-width="0.12" opacity="0.8"/><path d="M 6.565 3.750 A 0.100 0.100 0 0 1 6.649 3.652" fill="none" stroke="#6b7280" stroke-width="0.12" opacity="0.8"/><path d="M 6.649 1.768 A 0.100 0.100 0 0 1 6.565 1.670" fill="none" stroke="#6b7280" stroke-width="0.12" opacity="0.8"/><path d="M 6.867 12.672 A 0.302 0.302 0 0 1 6.565 12.370" fill="none" stroke="#6b7280" stroke-width="0.12" opacity="0.8"/><path d="M 6.867 12.990 A 0.620 0.620 0 0 1 6.247 12.370" fill="none" stroke="#6b7280" stroke-width="0.12" opacity="0.8"/><path d="M 8.033 1.993 A 0.100 0.100 0 0 1 8.117 2.092" fill="none" stroke="#6b7280" stroke-width="0.12" opacity="0.8"/><path d="M 8.117 3.328 A 0.100 0.100 0 0 1 8.033 3.427" fill="none" stroke="#6b7280" stroke-width="0.12" opacity="0.8"/><rect x="-4.300" y="-0.800" width="1.600" height="1.600" rx="0.800" fill="#c79b5c"/><circle cx="-3.500" cy="0.000" r="0.450" fill="#12151c"/><rect x="-1.800" y="-0.800" width="1.600" height="1.600" rx="0.800" fill="#c79b5c"/><circle cx="-1.000" cy="0.000" r="0.450" fill="#12151c"/><rect x="0.200" y="-0.800" width="1.600" height="1.600" rx="0.800" fill="#c79b5c"/><circle cx="1.000" cy="0.000" r="0.450" fill="#12151c"/><rect x="2.700" y="-0.800" width="1.600" height="1.600" rx="0.800" fill="#c79b5c"/><circle cx="3.500" cy="0.000" r="0.450" fill="#12151c"/><rect x="-8.070" y="1.210" width="3.000" height="3.000" rx="1.500" fill="#c79b5c"/><circle cx="-6.570" cy="2.710" r="1.150" fill="#12151c"/><rect x="5.070" y="1.210" width="3.000" height="3.000" rx="1.500" fill="#c79b5c"/><circle cx="6.570" cy="2.710" r="1.150" fill="#12151c"/></svg>