<svg xmlns="http://www.w3.org/2000/svg" viewBox="-6.10 -2.84 12.20 5.68" preserveAspectRatio="xMidYMid meet" style="width:100%;height:100%"><rect x="-6.10" y="-2.84" width="12.20" height="5.68" fill="#12151c"/><line x1="-3.600" y1="-1.500" x2="-3.425" y2="-1.500" stroke="#e6e9ef" stroke-width="0.200" stroke-linecap="round" opacity="1"/><line x1="-3.600" y1="1.500" x2="1.656" y2="1.500" stroke="#e6e9ef" stroke-width="0.200" stroke-linecap="round" opacity="1"/><line x1="-1.656" y1="-1.500" x2="3.600" y2="-1.500" stroke="#e6e9ef" stroke-width="0.200" stroke-linecap="round" opacity="1"/><line x1="3.425" y1="1.500" x2="3.600" y2="1.500" stroke="#e6e9ef" stroke-width="0.200" stroke-linecap="round" opacity="1"/><line x1="-3.040" y1="-0.845" x2="-2.540" y2="-0.845" stroke="#4a5160" stroke-width="0.080" stroke-linecap="round" opacity="0.7"/><line x1="-2.540" y1="-0.845" x2="-2.540" y2="-1.345" stroke="#4a5160" stroke-width="0.080" stroke-linecap="round" opacity="0.7"/><line x1="-2.540" y1="-0.845" x2="-2.040" y2="-0.845" stroke="#4a5160" stroke-width="0.080" stroke-linecap="round" opacity="0.7"/><line x1="-2.540" y1="-0.345" x2="-2.540" y2="-0.845" stroke="#4a5160" stroke-width="0.080" stroke-linecap="round" opacity="0.7"/><line x1="-0.500" y1="0.000" x2="0.000" y2="0.000" stroke="#4a5160" stroke-width="0.080" stroke-linecap="round" opacity="0.7"/><line x1="0.000" y1="0.000" x2="0.000" y2="-0.500" stroke="#4a5160" stroke-width="0.080" stroke-linecap="round" opacity="0.7"/><line x1="0.000" y1="0.000" x2="0.500" y2="0.000" stroke="#4a5160" stroke-width="0.080" stroke-linecap="round" opacity="0.7"/><line x1="0.000" y1="0.500" x2="0.000" y2="0.000" stroke="#4a5160" stroke-width="0.080" stroke-linecap="round" opacity="0.7"/><line x1="2.040" y1="0.845" x2="2.540" y2="0.845" stroke="#4a5160" stroke-width="0.080" stroke-linecap="round" opacity="0.7"/><line x1="2.540" y1="0.845" x2="2.540" y2="0.345" stroke="#4a5160" stroke-width="0.080" stroke-linecap="round" opacity="0.7"/><line x1="2.540" y1="0.845" x2="3.040" y2="0.845" stroke="#4a5160" stroke-width="0.080" stroke-linecap="round" opacity="0.7"/><line x1="2.540" y1="1.345" x2="2.540" y2="0.845" stroke="#4a5160" stroke-width="0.080" stroke-linecap="round" opacity="0.7"/><line x1="-3.600" y1="-1.500" x2="3.600" y2="-1.500" stroke="#6b7280" stroke-width="0.100" stroke-linecap="round" opacity="0.8"/><line x1="-3.600" y1="1.500" x2="3.600" y2="1.500" stroke="#6b7280" stroke-width="0.100" stroke-linecap="round" opacity="0.8"/><line x1="-3.850" y1="-1.840" x2="3.850" y2="-1.840" stroke="#d24d4d" stroke-width="0.080" stroke-linecap="round" opacity="0.7"/><line x1="3.850" y1="-1.840" x2="3.850" y2="1.840" stroke="#d24d4d" stroke-width="0.080" stroke-linecap="round" opacity="0.7"/><line x1="3.850" y1="1.840" x2="-3.850" y2="1.840" stroke="#d24d4d" stroke-width="0.080" stroke-linecap="round" opacity="0.7"/><line x1="-3.850" y1="1.840" x2="-3.850" y2="-1.840" stroke="#d24d4d" stroke-width="0.080" stroke-linecap="round" opacity="0.7"/><path d="M -5.100 0.000 A 1.500 1.500 0 0 1 -3.600 -1.500" fill="none" stroke="#e6e9ef" stroke-width="0.12" opacity="1"/><path d="M -3.600 1.500 A 1.500 1.500 0 0 1 -5.100 0.000" fill="none" stroke="#e6e9ef" stroke-width="0.12" opacity="1"/><path d="M 3.600 -1.500 A 1.500 1.500 0 0 1 5.100 0.000" fill="none" stroke="#e6e9ef" stroke-width="0.12" opacity="1"/><path d="M 5.100 0.000 A 1.500 1.500 0 0 1 3.600 1.500" fill="none" stroke="#e6e9ef" stroke-width="0.12" opacity="1"/><path d="M -5.100 0.000 A 1.500 1.500 0 0 1 -3.600 -1.500" fill="none" stroke="#6b7280" stroke-width="0.12" opacity="0.8"/><path d="M -3.600 1.500 A 1.500 1.500 0 0 1 -5.100 0.000" fill="none" stroke="#6b7280" stroke-width="0.12" opacity="0.8"/><path d="M 3.600 -1.500 A 1.500 1.500 0 0 1 5.100 0.000" fill="none" stroke="#6b7280" stroke-width="0.12" opacity="0.8"/><path d="M 5.100 0.000 A 1.500 1.500 0 0 1 3.600 1.500" fill="none" stroke="#6b7280" stroke-width="0.12" opacity="0.8"/><circle cx="-2.540" cy="-0.845" r="0.400" fill="none" stroke="#4a5160" stroke-width="0.12" opacity="0.7"/><circle cx="2.540" cy="0.845" r="0.400" fill="none" stroke="#4a5160" stroke-width="0.12" opacity="0.7"/><rect x="-3.290" y="-1.595" width="1.500" height="1.500" rx="0.750" fill="#c79b5c"/><circle cx="-2.540" cy="-0.845" r="0.400" fill="#12151c"/><rect x="1.790" y="0.095" width="1.500" height="1.500" rx="0.750" fill="#c79b5c"/><circle cx="2.540" cy="0.845" r="0.400" fill="#12151c"/></svg>