<svg xmlns="http://www.w3.org/2000/svg" viewBox="-3.13 -3.13 6.26 6.26" preserveAspectRatio="xMidYMid meet" style="width:100%;height:100%"><rect x="-3.13" y="-3.13" width="6.26" height="6.26" fill="#12151c"/><line x1="-1.500" y1="-1.200" x2="-1.200" y2="-1.500" stroke="#e6e9ef" stroke-width="0.200" stroke-linecap="round" opacity="1"/><line x1="-1.500" y1="-0.780" x2="-1.500" y2="-1.200" stroke="#e6e9ef" stroke-width="0.200" stroke-linecap="round" opacity="1"/><line x1="-1.500" y1="1.500" x2="-1.500" y2="0.780" stroke="#e6e9ef" stroke-width="0.200" stroke-linecap="round" opacity="1"/><line x1="-1.500" y1="1.500" x2="-0.780" y2="1.500" stroke="#e6e9ef" stroke-width="0.200" stroke-linecap="round" opacity="1"/><line x1="-1.200" y1="-1.500" x2="-0.780" y2="-1.500" stroke="#e6e9ef" stroke-width="0.200" stroke-linecap="round" opacity="1"/><line x1="0.780" y1="-1.500" x2="1.500" y2="-1.500" stroke="#e6e9ef" stroke-width="0.200" stroke-linecap="round" opacity="1"/><line x1="0.780" y1="1.500" x2="1.500" y2="1.500" stroke="#e6e9ef" stroke-width="0.200" stroke-linecap="round" opacity="1"/><line x1="1.500" y1="-0.780" x2="1.500" y2="-1.500" stroke="#e6e9ef" stroke-width="0.200" stroke-linecap="round" opacity="1"/><line x1="1.500" y1="1.500" x2="1.500" y2="0.780" stroke="#e6e9ef" stroke-width="0.200" stroke-linecap="round" opacity="1"/><line x1="-1.880" y1="-0.480" x2="-1.485" y2="-0.330" stroke="#4a5160" stroke-width="0.100" stroke-linecap="round" opacity="0.7"/><line x1="-1.880" y1="-0.480" x2="-1.090" y2="-0.480" stroke="#4a5160" stroke-width="0.100" stroke-linecap="round" opacity="0.7"/><line x1="-1.880" y1="-0.180" x2="-1.880" y2="-0.480" stroke="#4a5160" stroke-width="0.100" stroke-linecap="round" opacity="0.7"/><line x1="-1.880" y1="-0.180" x2="-1.485" y2="-0.330" stroke="#4a5160" stroke-width="0.100" stroke-linecap="round" opacity="0.7"/><line x1="-1.880" y1="-0.180" x2="-1.090" y2="-0.180" stroke="#4a5160" stroke-width="0.100" stroke-linecap="round" opacity="0.7"/><line x1="-1.880" y1="0.180" x2="-1.485" y2="0.330" stroke="#4a5160" stroke-width="0.100" stroke-linecap="round" opacity="0.7"/><line x1="-1.880" y1="0.180" x2="-1.090" y2="0.180" stroke="#4a5160" stroke-width="0.100" stroke-linecap="round" opacity="0.7"/><line x1="-1.880" y1="0.480" x2="-1.880" y2="0.180" stroke="#4a5160" stroke-width="0.100" stroke-linecap="round" opacity="0.7"/><line x1="-1.880" y1="0.480" x2="-1.485" y2="0.330" stroke="#4a5160" stroke-width="0.100" stroke-linecap="round" opacity="0.7"/><line x1="-1.880" y1="0.480" x2="-1.090" y2="0.480" stroke="#4a5160" stroke-width="0.100" stroke-linecap="round" opacity="0.7"/><line x1="-1.090" y1="-0.180" x2="-1.090" y2="-0.480" stroke="#4a5160" stroke-width="0.100" stroke-linecap="round" opacity="0.7"/><line x1="-1.090" y1="0.480" x2="-1.090" y2="0.180" stroke="#4a5160" stroke-width="0.100" stroke-linecap="round" opacity="0.7"/><line x1="-0.850" y1="-0.850" x2="0.850" y2="-0.850" stroke="#4a5160" stroke-width="0.100" stroke-linecap="round" opacity="0.7"/><line x1="-0.850" y1="0.850" x2="-0.850" y2="-0.850" stroke="#4a5160" stroke-width="0.100" stroke-linecap="round" opacity="0.7"/><line x1="-0.850" y1="0.850" x2="0.850" y2="0.850" stroke="#4a5160" stroke-width="0.100" stroke-linecap="round" opacity="0.7"/><line x1="-0.500" y1="0.000" x2="0.000" y2="0.000" stroke="#4a5160" stroke-width="0.100" stroke-linecap="round" opacity="0.7"/><line x1="-0.480" y1="-1.880" x2="-0.330" y2="-1.485" stroke="#4a5160" stroke-width="0.100" stroke-linecap="round" opacity="0.7"/><line x1="-0.480" y1="-1.880" x2="-0.180" y2="-1.880" stroke="#4a5160" stroke-width="0.100" stroke-linecap="round" opacity="0.7"/><line x1="-0.480" y1="-1.090" x2="-0.480" y2="-1.880" stroke="#4a5160" stroke-width="0.100" stroke-linecap="round" opacity="0.7"/><line x1="-0.480" y1="-1.090" x2="-0.180" y2="-1.090" stroke="#4a5160" stroke-width="0.100" stroke-linecap="round" opacity="0.7"/><line x1="-0.480" y1="1.090" x2="-0.180" y2="1.090" stroke="#4a5160" stroke-width="0.100" stroke-linecap="round" opacity="0.7"/><line x1="-0.480" y1="1.880" x2="-0.480" y2="1.090" stroke="#4a5160" stroke-width="0.100" stroke-linecap="round" opacity="0.7"/><line x1="-0.480" y1="1.880" x2="-0.330" y2="1.485" stroke="#4a5160" stroke-width="0.100" stroke-linecap="round" opacity="0.7"/><line x1="-0.480" y1="1.880" x2="-0.180" y2="1.880" stroke="#4a5160" stroke-width="0.100" stroke-linecap="round" opacity="0.7"/><line x1="-0.330" y1="-1.485" x2="-0.180" y2="-1.880" stroke="#4a5160" stroke-width="0.100" stroke-linecap="round" opacity="0.7"/><line x1="-0.330" y1="1.485" x2="-0.180" y2="1.880" stroke="#4a5160" stroke-width="0.100" stroke-linecap="round" opacity="0.7"/><line x1="-0.180" y1="-1.090" x2="-0.180" y2="-1.880" stroke="#4a5160" stroke-width="0.100" stroke-linecap="round" opacity="0.7"/><line x1="-0.180" y1="1.880" x2="-0.180" y2="1.090" stroke="#4a5160" stroke-width="0.100" stroke-linecap="round" opacity="0.7"/><line x1="0.000" y1="0.000" x2="0.000" y2="-0.500" stroke="#4a5160" stroke-width="0.100" stroke-linecap="round" opacity="0.7"/><line x1="0.000" y1="0.000" x2="0.500" y2="0.000" stroke="#4a5160" stroke-width="0.100" stroke-linecap="round" opacity="0.7"/><line x1="0.000" y1="0.500" x2="0.000" y2="0.000" stroke="#4a5160" stroke-width="0.100" stroke-linecap="round" opacity="0.7"/><line x1="0.180" y1="-1.880" x2="0.330" y2="-1.485" stroke="#4a5160" stroke-width="0.100" stroke-linecap="round" opacity="0.7"/><line x1="0.180" y1="-1.880" x2="0.480" y2="-1.880" stroke="#4a5160" stroke-width="0.100" stroke-linecap="round" opacity="0.7"/><line x1="0.180" y1="-1.090" x2="0.180" y2="-1.880" stroke="#4a5160" stroke-width="0.100" stroke-linecap="round" opacity="0.7"/><line x1="0.180" y1="-1.090" x2="0.480" y2="-1.090" stroke="#4a5160" stroke-width="0.100" stroke-linecap="round" opacity="0.7"/><line x1="0.180" y1="1.090" x2="0.480" y2="1.090" stroke="#4a5160" stroke-width="0.100" stroke-linecap="round" opacity="0.7"/><line x1="0.180" y1="1.880" x2="0.180" y2="1.090" stroke="#4a5160" stroke-width="0.100" stroke-linecap="round" opacity="0.7"/><line x1="0.180" y1="1.880" x2="0.330" y2="1.485" stroke="#4a5160" stroke-width="0.100" stroke-linecap="round" opacity="0.7"/><line x1="0.180" y1="1.880" x2="0.480" y2="1.880" stroke="#4a5160" stroke-width="0.100" stroke-linecap="round" opacity="0.7"/><line x1="0.330" y1="-1.485" x2="0.480" y2="-1.880" stroke="#4a5160" stroke-width="0.100" stroke-linecap="round" opacity="0.7"/><line x1="0.330" y1="1.485" x2="0.480" y2="1.880" stroke="#4a5160" stroke-width="0.100" stroke-linecap="round" opacity="0.7"/><line x1="0.480" y1="-1.090" x2="0.480" y2="-1.880" stroke="#4a5160" stroke-width="0.100" stroke-linecap="round" opacity="0.7"/><line x1="0.480" y1="1.880" x2="0.480" y2="1.090" stroke="#4a5160" stroke-width="0.100" stroke-linecap="round" opacity="0.7"/><line x1="0.850" y1="0.850" x2="0.850" y2="-0.850" stroke="#4a5160" stroke-width="0.100" stroke-linecap="round" opacity="0.7"/><line x1="1.090" y1="-0.480" x2="1.880" y2="-0.480" stroke="#4a5160" stroke-width="0.100" stroke-linecap="round" opacity="0.7"/><line x1="1.090" y1="-0.180" x2="1.090" y2="-0.480" stroke="#4a5160" stroke-width="0.100" stroke-linecap="round" opacity="0.7"/><line x1="1.090" y1="-0.180" x2="1.880" y2="-0.180" stroke="#4a5160" stroke-width="0.100" stroke-linecap="round" opacity="0.7"/><line x1="1.090" y1="0.180" x2="1.880" y2="0.180" stroke="#4a5160" stroke-width="0.100" stroke-linecap="round" opacity="0.7"/><line x1="1.090" y1="0.480" x2="1.090" y2="0.180" stroke="#4a5160" stroke-width="0.100" stroke-linecap="round" opacity="0.7"/><line x1="1.090" y1="0.480" x2="1.880" y2="0.480" stroke="#4a5160" stroke-width="0.100" stroke-linecap="round" opacity="0.7"/><line x1="1.485" y1="-0.330" x2="1.880" y2="-0.480" stroke="#4a5160" stroke-width="0.100" stroke-linecap="round" opacity="0.7"/><line x1="1.485" y1="-0.330" x2="1.880" y2="-0.180" stroke="#4a5160" stroke-width="0.100" stroke-linecap="round" opacity="0.7"/><line x1="1.485" y1="0.330" x2="1.880" y2="0.180" stroke="#4a5160" stroke-width="0.100" stroke-linecap="round" opacity="0.7"/><line x1="1.485" y1="0.330" x2="1.880" y2="0.480" stroke="#4a5160" stroke-width="0.100" stroke-linecap="round" opacity="0.7"/><line x1="1.880" y1="-0.180" x2="1.880" y2="-0.480" stroke="#4a5160" stroke-width="0.100" stroke-linecap="round" opacity="0.7"/><line x1="1.880" y1="0.480" x2="1.880" y2="0.180" stroke="#4a5160" stroke-width="0.100" stroke-linecap="round" opacity="0.7"/><line x1="-2.130" y1="-2.130" x2="2.130" y2="-2.130" stroke="#d24d4d" stroke-width="0.080" stroke-linecap="round" opacity="0.7"/><line x1="-2.130" y1="2.130" x2="-2.130" y2="-2.130" stroke="#d24d4d" stroke-width="0.080" stroke-linecap="round" opacity="0.7"/><line x1="-2.130" y1="2.130" x2="2.130" y2="2.130" stroke="#d24d4d" stroke-width="0.080" stroke-linecap="round" opacity="0.7"/><line x1="2.130" y1="2.130" x2="2.130" y2="-2.130" stroke="#d24d4d" stroke-width="0.080" stroke-linecap="round" opacity="0.7"/><line x1="-1.500" y1="-1.500" x2="1.500" y2="-1.500" stroke="#6b7280" stroke-width="0.100" stroke-linecap="round" opacity="0.8"/><line x1="-1.500" y1="-1.400" x2="-1.400" y2="-1.500" stroke="#6b7280" stroke-width="0.100" stroke-linecap="round" opacity="0.8"/><line x1="-1.500" y1="-1.300" x2="-1.300" y2="-1.500" stroke="#6b7280" stroke-width="0.100" stroke-linecap="round" opacity="0.8"/><line x1="-1.500" y1="-1.200" x2="-1.200" y2="-1.500" stroke="#6b7280" stroke-width="0.100" stroke-linecap="round" opacity="0.8"/><line x1="-1.500" y1="-1.100" x2="-1.100" y2="-1.500" stroke="#6b7280" stroke-width="0.100" stroke-linecap="round" opacity="0.8"/><line x1="-1.500" y1="1.500" x2="-1.500" y2="-1.500" stroke="#6b7280" stroke-width="0.100" stroke-linecap="round" opacity="0.8"/><line x1="-1.500" y1="1.500" x2="1.500" y2="1.500" stroke="#6b7280" stroke-width="0.100" stroke-linecap="round" opacity="0.8"/><line x1="1.500" y1="1.500" x2="1.500" y2="-1.500" stroke="#6b7280" stroke-width="0.100" stroke-linecap="round" opacity="0.8"/><circle cx="-1.800" cy="-1.775" r="0.150" fill="#e6e9ef" opacity="1"/><rect x="-1.880" y="-0.480" width="0.790" height="0.300" rx="0.000" fill="#c79b5c"/><rect x="-1.880" y="0.180" width="0.790" height="0.300" rx="0.000" fill="#c79b5c"/><rect x="-0.725" y="1.335" width="0.790" height="0.300" rx="0.000" fill="#c79b5c"/><rect x="-0.065" y="1.335" width="0.790" height="0.300" rx="0.000" fill="#c79b5c"/><rect x="1.090" y="0.180" width="0.790" height="0.300" rx="0.000" fill="#c79b5c"/><rect x="1.090" y="-0.480" width="0.790" height="0.300" rx="0.000" fill="#c79b5c"/><rect x="-0.065" y="-1.635" width="0.790" height="0.300" rx="0.000" fill="#c79b5c"/><rect x="-0.725" y="-1.635" width="0.790" height="0.300" rx="0.000" fill="#c79b5c"/><rect x="-0.850" y="-0.850" width="1.700" height="1.700" rx="0.000" fill="#c79b5c"/></svg>