<svg xmlns="http://www.w3.org/2000/svg" viewBox="-3.30 -2.25 6.05 4.50" preserveAspectRatio="xMidYMid meet" style="width:100%;height:100%"><rect x="-3.30" y="-2.25" width="6.05" height="4.50" fill="#12151c"/><circle cx="-2.200" cy="-0.400" r="0.100" fill="none" stroke="#e6e9ef" stroke-width="0.12" opacity="1"/><rect x="-1.750" y="-0.275" width="0.000" height="0.000" rx="0.000" fill="#c79b5c"/><rect x="-1.288" y="-0.413" width="0.025" height="0.025" rx="0.013" fill="#c79b5c"/><rect x="-1.750" y="0.525" width="0.000" height="0.000" rx="0.000" fill="#c79b5c"/><rect x="-1.338" y="0.387" width="0.025" height="0.025" rx="0.013" fill="#c79b5c"/><rect x="-0.625" y="1.250" width="0.000" height="0.000" rx="0.000" fill="#c79b5c"/><rect x="-0.513" y="0.912" width="0.025" height="0.025" rx="0.013" fill="#c79b5c"/><rect x="-0.125" y="1.250" width="0.000" height="0.000" rx="0.000" fill="#c79b5c"/><rect x="-0.013" y="0.912" width="0.025" height="0.025" rx="0.013" fill="#c79b5c"/><rect x="0.375" y="1.250" width="0.000" height="0.000" rx="0.000" fill="#c79b5c"/><rect x="0.487" y="0.912" width="0.025" height="0.025" rx="0.013" fill="#c79b5c"/><rect x="1.312" y="0.387" width="0.025" height="0.025" rx="0.013" fill="#c79b5c"/><rect x="1.750" y="0.525" width="0.000" height="0.000" rx="0.000" fill="#c79b5c"/><rect x="1.312" y="-0.413" width="0.025" height="0.025" rx="0.013" fill="#c79b5c"/><rect x="1.750" y="-0.275" width="0.000" height="0.000" rx="0.000" fill="#c79b5c"/><rect x="0.487" y="-0.938" width="0.025" height="0.025" rx="0.013" fill="#c79b5c"/><rect x="0.625" y="-1.250" width="0.000" height="0.000" rx="0.000" fill="#c79b5c"/><rect x="-0.013" y="-0.938" width="0.025" height="0.025" rx="0.013" fill="#c79b5c"/><rect x="0.125" y="-1.250" width="0.000" height="0.000" rx="0.000" fill="#c79b5c"/><rect x="-0.513" y="-0.938" width="0.025" height="0.025" rx="0.013" fill="#c79b5c"/><rect x="-0.375" y="-1.250" width="0.000" height="0.000" rx="0.000" fill="#c79b5c"/><rect x="-0.450" y="-0.200" width="0.900" height="0.250" rx="0.000" fill="#c79b5c"/></svg>