<svg xmlns="http://www.w3.org/2000/svg" viewBox="-11.47 -2.45 22.94 11.70" preserveAspectRatio="xMidYMid meet" style="width:100%;height:100%"><rect x="-11.47" y="-2.45" width="22.94" height="11.70" fill="#12151c"/><line x1="-10.220" y1="-1.200" x2="-8.238" y2="-1.200" stroke="#e6e9ef" stroke-width="0.200" stroke-linecap="round" opacity="1"/><line x1="-10.220" y1="4.400" x2="10.220" y2="4.400" stroke="#e6e9ef" stroke-width="0.200" stroke-linecap="round" opacity="1"/><line x1="-10.220" y1="4.800" x2="10.220" y2="4.800" stroke="#e6e9ef" stroke-width="0.200" stroke-linecap="round" opacity="1"/><line x1="-10.220" y1="8.000" x2="-10.220" y2="-1.200" stroke="#e6e9ef" stroke-width="0.200" stroke-linecap="round" opacity="1"/><line x1="-10.220" y1="8.000" x2="10.220" y2="8.000" stroke="#e6e9ef" stroke-width="0.200" stroke-linecap="round" opacity="1"/><line x1="-7.002" y1="-1.200" x2="-4.428" y2="-1.200" stroke="#e6e9ef" stroke-width="0.200" stroke-linecap="round" opacity="1"/><line x1="-5.916" y1="7.250" x2="-5.715" y2="8.000" stroke="#e6e9ef" stroke-width="0.200" stroke-linecap="round" opacity="1"/><line x1="-5.916" y1="7.250" x2="-5.514" y2="7.250" stroke="#e6e9ef" stroke-width="0.200" stroke-linecap="round" opacity="1"/><line x1="-5.715" y1="8.000" x2="-5.514" y2="7.250" stroke="#e6e9ef" stroke-width="0.200" stroke-linecap="round" opacity="1"/><line x1="-3.191" y1="-1.200" x2="-0.618" y2="-1.200" stroke="#e6e9ef" stroke-width="0.200" stroke-linecap="round" opacity="1"/><line x1="-2.106" y1="7.250" x2="-1.905" y2="8.000" stroke="#e6e9ef" stroke-width="0.200" stroke-linecap="round" opacity="1"/><line x1="-2.106" y1="7.250" x2="-1.704" y2="7.250" stroke="#e6e9ef" stroke-width="0.200" stroke-linecap="round" opacity="1"/><line x1="-1.905" y1="8.000" x2="-1.704" y2="7.250" stroke="#e6e9ef" stroke-width="0.200" stroke-linecap="round" opacity="1"/><line x1="0.619" y1="-1.200" x2="3.192" y2="-1.200" stroke="#e6e9ef" stroke-width="0.200" stroke-linecap="round" opacity="1"/><line x1="1.704" y1="7.250" x2="1.905" y2="8.000" stroke="#e6e9ef" stroke-width="0.200" stroke-linecap="round" opacity="1"/><line x1="1.704" y1="7.250" x2="2.106" y2="7.250" stroke="#e6e9ef" stroke-width="0.200" stroke-linecap="round" opacity="1"/><line x1="1.905" y1="8.000" x2="2.106" y2="7.250" stroke="#e6e9ef" stroke-width="0.200" stroke-linecap="round" opacity="1"/><line x1="4.429" y1="-1.200" x2="7.002" y2="-1.200" stroke="#e6e9ef" stroke-width="0.200" stroke-linecap="round" opacity="1"/><line x1="5.514" y1="7.250" x2="5.715" y2="8.000" stroke="#e6e9ef" stroke-width="0.200" stroke-linecap="round" opacity="1"/><line x1="5.514" y1="7.250" x2="5.916" y2="7.250" stroke="#e6e9ef" stroke-width="0.200" stroke-linecap="round" opacity="1"/><line x1="5.715" y1="8.000" x2="5.916" y2="7.250" stroke="#e6e9ef" stroke-width="0.200" stroke-linecap="round" opacity="1"/><line x1="8.239" y1="-1.200" x2="10.220" y2="-1.200" stroke="#e6e9ef" stroke-width="0.200" stroke-linecap="round" opacity="1"/><line x1="10.220" y1="8.000" x2="10.220" y2="-1.200" stroke="#e6e9ef" stroke-width="0.200" stroke-linecap="round" opacity="1"/><line x1="-8.120" y1="0.000" x2="-7.620" y2="0.000" stroke="#4a5160" stroke-width="0.100" stroke-linecap="round" opacity="0.7"/><line x1="-7.620" y1="0.000" x2="-7.620" y2="-0.500" stroke="#4a5160" stroke-width="0.100" stroke-linecap="round" opacity="0.7"/><line x1="-7.620" y1="0.000" x2="-7.120" y2="0.000" stroke="#4a5160" stroke-width="0.100" stroke-linecap="round" opacity="0.7"/><line x1="-7.620" y1="0.500" x2="-7.620" y2="0.000" stroke="#4a5160" stroke-width="0.100" stroke-linecap="round" opacity="0.7"/><line x1="-4.310" y1="0.000" x2="-3.810" y2="0.000" stroke="#4a5160" stroke-width="0.100" stroke-linecap="round" opacity="0.7"/><line x1="-3.810" y1="0.000" x2="-3.810" y2="-0.500" stroke="#4a5160" stroke-width="0.100" stroke-linecap="round" opacity="0.7"/><line x1="-3.810" y1="0.000" x2="-3.310" y2="0.000" stroke="#4a5160" stroke-width="0.100" stroke-linecap="round" opacity="0.7"/><line x1="-3.810" y1="0.500" x2="-3.810" y2="0.000" stroke="#4a5160" stroke-width="0.100" stroke-linecap="round" opacity="0.7"/><line x1="-0.500" y1="0.000" x2="0.000" y2="0.000" stroke="#4a5160" stroke-width="0.100" stroke-linecap="round" opacity="0.7"/><line x1="0.000" y1="0.000" x2="0.000" y2="-0.500" stroke="#4a5160" stroke-width="0.100" stroke-linecap="round" opacity="0.7"/><line x1="0.000" y1="0.000" x2="0.500" y2="0.000" stroke="#4a5160" stroke-width="0.100" stroke-linecap="round" opacity="0.7"/><line x1="0.000" y1="0.500" x2="0.000" y2="0.000" stroke="#4a5160" stroke-width="0.100" stroke-linecap="round" opacity="0.7"/><line x1="3.310" y1="0.000" x2="3.810" y2="0.000" stroke="#4a5160" stroke-width="0.100" stroke-linecap="round" opacity="0.7"/><line x1="3.810" y1="0.000" x2="3.810" y2="-0.500" stroke="#4a5160" stroke-width="0.100" stroke-linecap="round" opacity="0.7"/><line x1="3.810" y1="0.000" x2="4.310" y2="0.000" stroke="#4a5160" stroke-width="0.100" stroke-linecap="round" opacity="0.7"/><line x1="3.810" y1="0.500" x2="3.810" y2="0.000" stroke="#4a5160" stroke-width="0.100" stroke-linecap="round" opacity="0.7"/><line x1="7.120" y1="0.000" x2="7.620" y2="0.000" stroke="#4a5160" stroke-width="0.100" stroke-linecap="round" opacity="0.7"/><line x1="7.620" y1="0.000" x2="7.620" y2="-0.500" stroke="#4a5160" stroke-width="0.100" stroke-linecap="round" opacity="0.7"/><line x1="7.620" y1="0.000" x2="8.120" y2="0.000" stroke="#4a5160" stroke-width="0.100" stroke-linecap="round" opacity="0.7"/><line x1="7.620" y1="0.500" x2="7.620" y2="0.000" stroke="#4a5160" stroke-width="0.100" stroke-linecap="round" opacity="0.7"/><line x1="-10.220" y1="-1.200" x2="10.220" y2="-1.200" stroke="#6b7280" stroke-width="0.100" stroke-linecap="round" opacity="0.8"/><line x1="-10.220" y1="4.400" x2="10.220" y2="4.400" stroke="#6b7280" stroke-width="0.100" stroke-linecap="round" opacity="0.8"/><line x1="-10.220" y1="4.800" x2="10.220" y2="4.800" stroke="#6b7280" stroke-width="0.100" stroke-linecap="round" opacity="0.8"/><line x1="-10.220" y1="8.000" x2="-10.220" y2="-1.200" stroke="#6b7280" stroke-width="0.100" stroke-linecap="round" opacity="0.8"/><line x1="-10.220" y1="8.000" x2="10.220" y2="8.000" stroke="#6b7280" stroke-width="0.100" stroke-linecap="round" opacity="0.8"/><line x1="-5.916" y1="7.250" x2="-5.715" y2="8.000" stroke="#6b7280" stroke-width="0.100" stroke-linecap="round" opacity="0.8"/><line x1="-5.916" y1="7.250" x2="-5.514" y2="7.250" stroke="#6b7280" stroke-width="0.100" stroke-linecap="round" opacity="0.8"/><line x1="-5.715" y1="8.000" x2="-5.514" y2="7.250" stroke="#6b7280" stroke-width="0.100" stroke-linecap="round" opacity="0.8"/><line x1="-2.106" y1="7.250" x2="-1.905" y2="8.000" stroke="#6b7280" stroke-width="0.100" stroke-linecap="round" opacity="0.8"/><line x1="-2.106" y1="7.250" x2="-1.704" y2="7.250" stroke="#6b7280" stroke-width="0.100" stroke-linecap="round" opacity="0.8"/><line x1="-1.905" y1="8.000" x2="-1.704" y2="7.250" stroke="#6b7280" stroke-width="0.100" stroke-linecap="round" opacity="0.8"/><line x1="1.704" y1="7.250" x2="1.905" y2="8.000" stroke="#6b7280" stroke-width="0.100" stroke-linecap="round" opacity="0.8"/><line x1="1.704" y1="7.250" x2="2.106" y2="7.250" stroke="#6b7280" stroke-width="0.100" stroke-linecap="round" opacity="0.8"/><line x1="1.905" y1="8.000" x2="2.106" y2="7.250" stroke="#6b7280" stroke-width="0.100" stroke-linecap="round" opacity="0.8"/><line x1="5.514" y1="7.250" x2="5.715" y2="8.000" stroke="#6b7280" stroke-width="0.100" stroke-linecap="round" opacity="0.8"/><line x1="5.514" y1="7.250" x2="5.916" y2="7.250" stroke="#6b7280" stroke-width="0.100" stroke-linecap="round" opacity="0.8"/><line x1="5.715" y1="8.000" x2="5.916" y2="7.250" stroke="#6b7280" stroke-width="0.100" stroke-linecap="round" opacity="0.8"/><line x1="10.220" y1="8.000" x2="10.220" y2="-1.200" stroke="#6b7280" stroke-width="0.100" stroke-linecap="round" opacity="0.8"/><line x1="-10.470" y1="-1.450" x2="10.470" y2="-1.450" stroke="#d24d4d" stroke-width="0.080" stroke-linecap="round" opacity="0.7"/><line x1="10.470" y1="-1.450" x2="10.470" y2="8.250" stroke="#d24d4d" stroke-width="0.080" stroke-linecap="round" opacity="0.7"/><line x1="10.470" y1="8.250" x2="-10.470" y2="8.250" stroke="#d24d4d" stroke-width="0.080" stroke-linecap="round" opacity="0.7"/><line x1="-10.470" y1="8.250" x2="-10.470" y2="-1.450" stroke="#d24d4d" stroke-width="0.080" stroke-linecap="round" opacity="0.7"/><path d="M -7.885 -1.200 A 0.400 0.400 0 0 1 -7.355 -1.200" fill="none" stroke="#6b7280" stroke-width="0.12" opacity="0.8"/><path d="M -4.075 -1.200 A 0.400 0.400 0 0 1 -3.545 -1.200" fill="none" stroke="#6b7280" stroke-width="0.12" opacity="0.8"/><path d="M -0.265 -1.200 A 0.400 0.400 0 0 1 0.265 -1.200" fill="none" stroke="#6b7280" stroke-width="0.12" opacity="0.8"/><path d="M 3.545 -1.200 A 0.400 0.400 0 0 1 4.075 -1.200" fill="none" stroke="#6b7280" stroke-width="0.12" opacity="0.8"/><path d="M 7.355 -1.200 A 0.400 0.400 0 0 1 7.885 -1.200" fill="none" stroke="#6b7280" stroke-width="0.12" opacity="0.8"/><rect x="-8.570" y="-0.950" width="1.900" height="1.900" rx="0.950" fill="#c79b5c"/><circle cx="-7.620" cy="0.000" r="0.600" fill="#12151c"/><rect x="-4.760" y="-0.950" width="1.900" height="1.900" rx="0.950" fill="#c79b5c"/><circle cx="-3.810" cy="0.000" r="0.600" fill="#12151c"/><rect x="-0.950" y="-0.950" width="1.900" height="1.900" rx="0.950" fill="#c79b5c"/><circle cx="0.000" cy="0.000" r="0.600" fill="#12151c"/><rect x="2.860" y="-0.950" width="1.900" height="1.900" rx="0.950" fill="#c79b5c"/><circle cx="3.810" cy="0.000" r="0.600" fill="#12151c"/><rect x="6.670" y="-0.950" width="1.900" height="1.900" rx="0.950" fill="#c79b5c"/><circle cx="7.620" cy="0.000" r="0.600" fill="#12151c"/><polygon points="-8.07,2.00 -7.17,2.00 -7.62,1.40" fill="#ffffff"/></svg>