<svg xmlns="http://www.w3.org/2000/svg" viewBox="-3.92 -3.30 7.22 6.44" preserveAspectRatio="xMidYMid meet" style="width:100%;height:100%"><rect x="-3.92" y="-3.30" width="7.22" height="6.44" fill="#12151c"/><path d="M -1.520 -1.473 A 0.121 0.121 0 0 1 -1.277 -1.473" fill="none" stroke="#6b7280" stroke-width="0.12" opacity="0.8"/><path d="M -1.277 -1.473 A 0.121 0.121 0 0 1 -1.520 -1.473" fill="none" stroke="#6b7280" stroke-width="0.12" opacity="0.8"/><circle cx="-2.800" cy="-2.000" r="0.125" fill="none" stroke="#e6e9ef" stroke-width="0.12" opacity="1"/><rect x="-2.300" y="-1.775" width="1.200" height="0.250" rx="0.000" fill="#c79b5c"/><rect x="-2.300" y="-1.275" width="1.200" height="0.250" rx="0.000" fill="#c79b5c"/><rect x="-2.300" y="-0.775" width="1.200" height="0.250" rx="0.000" fill="#c79b5c"/><rect x="-2.300" y="-0.125" width="0.500" height="0.250" rx="0.000" fill="#c79b5c"/><rect x="-1.800" y="-0.250" width="1.600" height="0.500" rx="0.000" fill="#c79b5c"/><rect x="-2.300" y="1.375" width="0.500" height="0.250" rx="0.000" fill="#c79b5c"/><rect x="-1.800" y="1.275" width="1.600" height="0.450" rx="0.000" fill="#c79b5c"/><rect x="-0.887" y="1.888" width="0.575" height="0.250" rx="0.000" fill="#c79b5c"/><rect x="0.312" y="1.888" width="0.575" height="0.250" rx="0.000" fill="#c79b5c"/><rect x="0.200" y="1.275" width="1.600" height="0.450" rx="0.000" fill="#c79b5c"/><rect x="1.800" y="1.375" width="0.500" height="0.250" rx="0.000" fill="#c79b5c"/><rect x="0.200" y="-0.250" width="1.600" height="0.500" rx="0.000" fill="#c79b5c"/><rect x="1.800" y="-0.125" width="0.500" height="0.250" rx="0.000" fill="#c79b5c"/><rect x="1.100" y="-0.775" width="1.200" height="0.250" rx="0.000" fill="#c79b5c"/><rect x="1.100" y="-1.275" width="1.200" height="0.250" rx="0.000" fill="#c79b5c"/><rect x="1.100" y="-1.775" width="1.200" height="0.250" rx="0.000" fill="#c79b5c"/><rect x="0.475" y="-2.300" width="0.250" height="1.200" rx="0.000" fill="#c79b5c"/><rect x="-0.725" y="-2.300" width="0.250" height="1.200" rx="0.000" fill="#c79b5c"/></svg>