<svg xmlns="http://www.w3.org/2000/svg" viewBox="-15.05 -6.36 30.09 12.51" preserveAspectRatio="xMidYMid meet" style="width:100%;height:100%"><rect x="-15.05" y="-6.36" width="30.09" height="12.51" fill="#12151c"/><line x1="-13.799" y1="-5.105" x2="13.785" y2="-5.105" stroke="#e6e9ef" stroke-width="0.200" stroke-linecap="round" opacity="1"/><line x1="-13.799" y1="-4.089" x2="-13.291" y2="-4.089" stroke="#e6e9ef" stroke-width="0.200" stroke-linecap="round" opacity="1"/><line x1="-13.799" y1="-3.182" x2="-13.799" y2="-5.105" stroke="#e6e9ef" stroke-width="0.200" stroke-linecap="round" opacity="1"/><line x1="-13.799" y1="-3.182" x2="-13.291" y2="-3.182" stroke="#e6e9ef" stroke-width="0.200" stroke-linecap="round" opacity="1"/><line x1="-13.799" y1="-1.041" x2="-13.444" y2="-1.041" stroke="#e6e9ef" stroke-width="0.200" stroke-linecap="round" opacity="1"/><line x1="-13.799" y1="1.181" x2="-13.799" y2="-1.041" stroke="#e6e9ef" stroke-width="0.200" stroke-linecap="round" opacity="1"/><line x1="-13.799" y1="1.181" x2="-13.444" y2="1.181" stroke="#e6e9ef" stroke-width="0.200" stroke-linecap="round" opacity="1"/><line x1="-13.291" y1="-1.550" x2="-13.291" y2="-4.089" stroke="#e6e9ef" stroke-width="0.200" stroke-linecap="round" opacity="1"/><line x1="-11.894" y1="2.413" x2="1.339" y2="2.413" stroke="#e6e9ef" stroke-width="0.200" stroke-linecap="round" opacity="1"/><line x1="-11.894" y1="2.599" x2="1.339" y2="2.599" stroke="#e6e9ef" stroke-width="0.200" stroke-linecap="round" opacity="1"/><line x1="-11.894" y1="4.267" x2="1.339" y2="4.267" stroke="#e6e9ef" stroke-width="0.200" stroke-linecap="round" opacity="1"/><line x1="-11.894" y1="4.902" x2="-11.894" y2="1.600" stroke="#e6e9ef" stroke-width="0.200" stroke-linecap="round" opacity="1"/><line x1="-11.894" y1="4.902" x2="1.339" y2="4.902" stroke="#e6e9ef" stroke-width="0.200" stroke-linecap="round" opacity="1"/><line x1="-10.344" y1="1.181" x2="-8.936" y2="1.181" stroke="#e6e9ef" stroke-width="0.200" stroke-linecap="round" opacity="1"/><line x1="-6.928" y1="1.181" x2="-4.973" y2="1.181" stroke="#e6e9ef" stroke-width="0.200" stroke-linecap="round" opacity="1"/><line x1="-2.966" y1="1.181" x2="-1.011" y2="1.181" stroke="#e6e9ef" stroke-width="0.200" stroke-linecap="round" opacity="1"/><line x1="0.997" y1="1.181" x2="2.951" y2="1.181" stroke="#e6e9ef" stroke-width="0.200" stroke-linecap="round" opacity="1"/><line x1="1.339" y1="4.902" x2="1.339" y2="1.181" stroke="#e6e9ef" stroke-width="0.200" stroke-linecap="round" opacity="1"/><line x1="2.609" y1="2.413" x2="11.880" y2="2.413" stroke="#e6e9ef" stroke-width="0.200" stroke-linecap="round" opacity="1"/><line x1="2.609" y1="2.599" x2="11.880" y2="2.599" stroke="#e6e9ef" stroke-width="0.200" stroke-linecap="round" opacity="1"/><line x1="2.609" y1="4.267" x2="11.880" y2="4.267" stroke="#e6e9ef" stroke-width="0.200" stroke-linecap="round" opacity="1"/><line x1="2.609" y1="4.902" x2="2.609" y2="1.181" stroke="#e6e9ef" stroke-width="0.200" stroke-linecap="round" opacity="1"/><line x1="2.609" y1="4.902" x2="11.880" y2="4.902" stroke="#e6e9ef" stroke-width="0.200" stroke-linecap="round" opacity="1"/><line x1="4.959" y1="1.181" x2="6.914" y2="1.181" stroke="#e6e9ef" stroke-width="0.200" stroke-linecap="round" opacity="1"/><line x1="8.921" y1="1.181" x2="10.876" y2="1.181" stroke="#e6e9ef" stroke-width="0.200" stroke-linecap="round" opacity="1"/><line x1="11.880" y1="4.902" x2="11.880" y2="1.600" stroke="#e6e9ef" stroke-width="0.200" stroke-linecap="round" opacity="1"/><line x1="12.884" y1="1.181" x2="13.785" y2="1.181" stroke="#e6e9ef" stroke-width="0.200" stroke-linecap="round" opacity="1"/><line x1="13.277" y1="-4.089" x2="13.785" y2="-4.089" stroke="#e6e9ef" stroke-width="0.200" stroke-linecap="round" opacity="1"/><line x1="13.277" y1="-3.182" x2="13.785" y2="-3.182" stroke="#e6e9ef" stroke-width="0.200" stroke-linecap="round" opacity="1"/><line x1="13.277" y1="-1.041" x2="13.277" y2="-4.089" stroke="#e6e9ef" stroke-width="0.200" stroke-linecap="round" opacity="1"/><line x1="13.277" y1="-1.041" x2="13.785" y2="-1.041" stroke="#e6e9ef" stroke-width="0.200" stroke-linecap="round" opacity="1"/><line x1="13.785" y1="-3.182" x2="13.785" y2="-5.105" stroke="#e6e9ef" stroke-width="0.200" stroke-linecap="round" opacity="1"/><line x1="13.785" y1="1.181" x2="13.785" y2="-1.041" stroke="#e6e9ef" stroke-width="0.200" stroke-linecap="round" opacity="1"/><line x1="-12.387" y1="0.000" x2="-11.887" y2="0.000" stroke="#4a5160" stroke-width="0.100" stroke-linecap="round" opacity="0.7"/><line x1="-11.887" y1="0.000" x2="-11.887" y2="-0.500" stroke="#4a5160" stroke-width="0.100" stroke-linecap="round" opacity="0.7"/><line x1="-11.887" y1="0.000" x2="-11.387" y2="0.000" stroke="#4a5160" stroke-width="0.100" stroke-linecap="round" opacity="0.7"/><line x1="-11.887" y1="0.500" x2="-11.887" y2="0.000" stroke="#4a5160" stroke-width="0.100" stroke-linecap="round" opacity="0.7"/><line x1="-8.425" y1="0.000" x2="-7.925" y2="0.000" stroke="#4a5160" stroke-width="0.100" stroke-linecap="round" opacity="0.7"/><line x1="-7.925" y1="0.000" x2="-7.925" y2="-0.500" stroke="#4a5160" stroke-width="0.100" stroke-linecap="round" opacity="0.7"/><line x1="-7.925" y1="0.000" x2="-7.425" y2="0.000" stroke="#4a5160" stroke-width="0.100" stroke-linecap="round" opacity="0.7"/><line x1="-7.925" y1="0.500" x2="-7.925" y2="0.000" stroke="#4a5160" stroke-width="0.100" stroke-linecap="round" opacity="0.7"/><line x1="-4.462" y1="0.000" x2="-3.962" y2="0.000" stroke="#4a5160" stroke-width="0.100" stroke-linecap="round" opacity="0.7"/><line x1="-3.962" y1="0.000" x2="-3.962" y2="-0.500" stroke="#4a5160" stroke-width="0.100" stroke-linecap="round" opacity="0.7"/><line x1="-3.962" y1="0.000" x2="-3.462" y2="0.000" stroke="#4a5160" stroke-width="0.100" stroke-linecap="round" opacity="0.7"/><line x1="-3.962" y1="0.500" x2="-3.962" y2="0.000" stroke="#4a5160" stroke-width="0.100" stroke-linecap="round" opacity="0.7"/><line x1="-0.500" y1="0.000" x2="0.000" y2="0.000" stroke="#4a5160" stroke-width="0.100" stroke-linecap="round" opacity="0.7"/><line x1="0.000" y1="0.000" x2="0.000" y2="-0.500" stroke="#4a5160" stroke-width="0.100" stroke-linecap="round" opacity="0.7"/><line x1="0.000" y1="0.000" x2="0.500" y2="0.000" stroke="#4a5160" stroke-width="0.100" stroke-linecap="round" opacity="0.7"/><line x1="0.000" y1="0.500" x2="0.000" y2="0.000" stroke="#4a5160" stroke-width="0.100" stroke-linecap="round" opacity="0.7"/><line x1="3.462" y1="0.000" x2="3.962" y2="0.000" stroke="#4a5160" stroke-width="0.100" stroke-linecap="round" opacity="0.7"/><line x1="3.962" y1="0.000" x2="3.962" y2="-0.500" stroke="#4a5160" stroke-width="0.100" stroke-linecap="round" opacity="0.7"/><line x1="3.962" y1="0.000" x2="4.462" y2="0.000" stroke="#4a5160" stroke-width="0.100" stroke-linecap="round" opacity="0.7"/><line x1="3.962" y1="0.500" x2="3.962" y2="0.000" stroke="#4a5160" stroke-width="0.100" stroke-linecap="round" opacity="0.7"/><line x1="7.425" y1="0.000" x2="7.925" y2="0.000" stroke="#4a5160" stroke-width="0.100" stroke-linecap="round" opacity="0.7"/><line x1="7.925" y1="0.000" x2="7.925" y2="-0.500" stroke="#4a5160" stroke-width="0.100" stroke-linecap="round" opacity="0.7"/><line x1="7.925" y1="0.000" x2="8.425" y2="0.000" stroke="#4a5160" stroke-width="0.100" stroke-linecap="round" opacity="0.7"/><line x1="7.925" y1="0.500" x2="7.925" y2="0.000" stroke="#4a5160" stroke-width="0.100" stroke-linecap="round" opacity="0.7"/><line x1="11.387" y1="0.000" x2="11.887" y2="0.000" stroke="#4a5160" stroke-width="0.100" stroke-linecap="round" opacity="0.7"/><line x1="11.887" y1="0.000" x2="11.887" y2="-0.500" stroke="#4a5160" stroke-width="0.100" stroke-linecap="round" opacity="0.7"/><line x1="11.887" y1="0.000" x2="12.387" y2="0.000" stroke="#4a5160" stroke-width="0.100" stroke-linecap="round" opacity="0.7"/><line x1="11.887" y1="0.500" x2="11.887" y2="0.000" stroke="#4a5160" stroke-width="0.100" stroke-linecap="round" opacity="0.7"/><line x1="-13.792" y1="-5.105" x2="13.792" y2="-5.105" stroke="#6b7280" stroke-width="0.100" stroke-linecap="round" opacity="0.8"/><line x1="-13.792" y1="-4.089" x2="-13.284" y2="-4.089" stroke="#6b7280" stroke-width="0.100" stroke-linecap="round" opacity="0.8"/><line x1="-13.792" y1="-3.182" x2="-13.792" y2="-5.105" stroke="#6b7280" stroke-width="0.100" stroke-linecap="round" opacity="0.8"/><line x1="-13.792" y1="-3.182" x2="-13.284" y2="-3.182" stroke="#6b7280" stroke-width="0.100" stroke-linecap="round" opacity="0.8"/><line x1="-13.792" y1="-1.041" x2="-13.284" y2="-1.041" stroke="#6b7280" stroke-width="0.100" stroke-linecap="round" opacity="0.8"/><line x1="-13.792" y1="1.181" x2="-13.792" y2="-1.041" stroke="#6b7280" stroke-width="0.100" stroke-linecap="round" opacity="0.8"/><line x1="-13.792" y1="1.181" x2="13.792" y2="1.181" stroke="#6b7280" stroke-width="0.100" stroke-linecap="round" opacity="0.8"/><line x1="-13.284" y1="-1.041" x2="-13.284" y2="-4.089" stroke="#6b7280" stroke-width="0.100" stroke-linecap="round" opacity="0.8"/><line x1="-12.458" y1="-0.571" x2="-11.316" y2="-0.571" stroke="#6b7280" stroke-width="0.100" stroke-linecap="round" opacity="0.8"/><line x1="-12.458" y1="0.571" x2="-12.458" y2="-0.571" stroke="#6b7280" stroke-width="0.100" stroke-linecap="round" opacity="0.8"/><line x1="-12.458" y1="0.571" x2="-11.316" y2="0.571" stroke="#6b7280" stroke-width="0.100" stroke-linecap="round" opacity="0.8"/><line x1="-11.887" y1="2.413" x2="1.346" y2="2.413" stroke="#6b7280" stroke-width="0.100" stroke-linecap="round" opacity="0.8"/><line x1="-11.887" y1="2.599" x2="1.346" y2="2.599" stroke="#6b7280" stroke-width="0.100" stroke-linecap="round" opacity="0.8"/><line x1="-11.887" y1="4.267" x2="1.346" y2="4.267" stroke="#6b7280" stroke-width="0.100" stroke-linecap="round" opacity="0.8"/><line x1="-11.887" y1="4.902" x2="-11.887" y2="1.181" stroke="#6b7280" stroke-width="0.100" stroke-linecap="round" opacity="0.8"/><line x1="-11.887" y1="4.902" x2="1.346" y2="4.902" stroke="#6b7280" stroke-width="0.100" stroke-linecap="round" opacity="0.8"/><line x1="-11.316" y1="0.571" x2="-11.316" y2="-0.571" stroke="#6b7280" stroke-width="0.100" stroke-linecap="round" opacity="0.8"/><line x1="-8.498" y1="-0.571" x2="-7.356" y2="-0.571" stroke="#6b7280" stroke-width="0.100" stroke-linecap="round" opacity="0.8"/><line x1="-8.498" y1="0.571" x2="-8.498" y2="-0.571" stroke="#6b7280" stroke-width="0.100" stroke-linecap="round" opacity="0.8"/><line x1="-8.498" y1="0.571" x2="-7.356" y2="0.571" stroke="#6b7280" stroke-width="0.100" stroke-linecap="round" opacity="0.8"/><line x1="-7.356" y1="0.571" x2="-7.356" y2="-0.571" stroke="#6b7280" stroke-width="0.100" stroke-linecap="round" opacity="0.8"/><line x1="-4.538" y1="-0.571" x2="-3.396" y2="-0.571" stroke="#6b7280" stroke-width="0.100" stroke-linecap="round" opacity="0.8"/><line x1="-4.538" y1="0.571" x2="-4.538" y2="-0.571" stroke="#6b7280" stroke-width="0.100" stroke-linecap="round" opacity="0.8"/><line x1="-4.538" y1="0.571" x2="-3.396" y2="0.571" stroke="#6b7280" stroke-width="0.100" stroke-linecap="round" opacity="0.8"/><line x1="-3.396" y1="0.571" x2="-3.396" y2="-0.571" stroke="#6b7280" stroke-width="0.100" stroke-linecap="round" opacity="0.8"/><line x1="-0.578" y1="-0.571" x2="0.564" y2="-0.571" stroke="#6b7280" stroke-width="0.100" stroke-linecap="round" opacity="0.8"/><line x1="-0.578" y1="0.571" x2="-0.578" y2="-0.571" stroke="#6b7280" stroke-width="0.100" stroke-linecap="round" opacity="0.8"/><line x1="-0.578" y1="0.571" x2="0.564" y2="0.571" stroke="#6b7280" stroke-width="0.100" stroke-linecap="round" opacity="0.8"/><line x1="0.564" y1="0.571" x2="0.564" y2="-0.571" stroke="#6b7280" stroke-width="0.100" stroke-linecap="round" opacity="0.8"/><line x1="1.346" y1="4.902" x2="1.346" y2="1.181" stroke="#6b7280" stroke-width="0.100" stroke-linecap="round" opacity="0.8"/><line x1="2.616" y1="2.413" x2="11.887" y2="2.413" stroke="#6b7280" stroke-width="0.100" stroke-linecap="round" opacity="0.8"/><line x1="2.616" y1="2.599" x2="11.887" y2="2.599" stroke="#6b7280" stroke-width="0.100" stroke-linecap="round" opacity="0.8"/><line x1="2.616" y1="4.267" x2="11.887" y2="4.267" stroke="#6b7280" stroke-width="0.100" stroke-linecap="round" opacity="0.8"/><line x1="2.616" y1="4.902" x2="2.616" y2="1.181" stroke="#6b7280" stroke-width="0.100" stroke-linecap="round" opacity="0.8"/><line x1="2.616" y1="4.902" x2="11.887" y2="4.902" stroke="#6b7280" stroke-width="0.100" stroke-linecap="round" opacity="0.8"/><line x1="3.382" y1="-0.571" x2="4.524" y2="-0.571" stroke="#6b7280" stroke-width="0.100" stroke-linecap="round" opacity="0.8"/><line x1="3.382" y1="0.571" x2="3.382" y2="-0.571" stroke="#6b7280" stroke-width="0.100" stroke-linecap="round" opacity="0.8"/><line x1="3.382" y1="0.571" x2="4.524" y2="0.571" stroke="#6b7280" stroke-width="0.100" stroke-linecap="round" opacity="0.8"/><line x1="4.524" y1="0.571" x2="4.524" y2="-0.571" stroke="#6b7280" stroke-width="0.100" stroke-linecap="round" opacity="0.8"/><line x1="7.344" y1="-0.571" x2="8.486" y2="-0.571" stroke="#6b7280" stroke-width="0.100" stroke-linecap="round" opacity="0.8"/><line x1="7.344" y1="0.571" x2="7.344" y2="-0.571" stroke="#6b7280" stroke-width="0.100" stroke-linecap="round" opacity="0.8"/><line x1="7.344" y1="0.571" x2="8.486" y2="0.571" stroke="#6b7280" stroke-width="0.100" stroke-linecap="round" opacity="0.8"/><line x1="8.486" y1="0.571" x2="8.486" y2="-0.571" stroke="#6b7280" stroke-width="0.100" stroke-linecap="round" opacity="0.8"/><line x1="11.294" y1="-0.571" x2="12.437" y2="-0.571" stroke="#6b7280" stroke-width="0.100" stroke-linecap="round" opacity="0.8"/><line x1="11.294" y1="0.571" x2="11.294" y2="-0.571" stroke="#6b7280" stroke-width="0.100" stroke-linecap="round" opacity="0.8"/><line x1="11.294" y1="0.571" x2="12.437" y2="0.571" stroke="#6b7280" stroke-width="0.100" stroke-linecap="round" opacity="0.8"/><line x1="11.887" y1="4.902" x2="11.887" y2="1.181" stroke="#6b7280" stroke-width="0.100" stroke-linecap="round" opacity="0.8"/><line x1="12.437" y1="0.571" x2="12.437" y2="-0.571" stroke="#6b7280" stroke-width="0.100" stroke-linecap="round" opacity="0.8"/><line x1="13.284" y1="-4.089" x2="13.792" y2="-4.089" stroke="#6b7280" stroke-width="0.100" stroke-linecap="round" opacity="0.8"/><line x1="13.284" y1="-3.182" x2="13.792" y2="-3.182" stroke="#6b7280" stroke-width="0.100" stroke-linecap="round" opacity="0.8"/><line x1="13.284" y1="-1.041" x2="13.284" y2="-4.089" stroke="#6b7280" stroke-width="0.100" stroke-linecap="round" opacity="0.8"/><line x1="13.284" y1="-1.041" x2="13.792" y2="-1.041" stroke="#6b7280" stroke-width="0.100" stroke-linecap="round" opacity="0.8"/><line x1="13.792" y1="-3.182" x2="13.792" y2="-5.105" stroke="#6b7280" stroke-width="0.100" stroke-linecap="round" opacity="0.8"/><line x1="13.792" y1="1.181" x2="13.792" y2="-1.041" stroke="#6b7280" stroke-width="0.100" stroke-linecap="round" opacity="0.8"/><line x1="-14.050" y1="-5.360" x2="14.040" y2="-5.360" stroke="#d24d4d" stroke-width="0.080" stroke-linecap="round" opacity="0.7"/><line x1="14.040" y1="-5.360" x2="14.040" y2="5.150" stroke="#d24d4d" stroke-width="0.080" stroke-linecap="round" opacity="0.7"/><line x1="14.040" y1="5.150" x2="-14.050" y2="5.150" stroke="#d24d4d" stroke-width="0.080" stroke-linecap="round" opacity="0.7"/><line x1="-14.050" y1="5.150" x2="-14.050" y2="-5.360" stroke="#d24d4d" stroke-width="0.080" stroke-linecap="round" opacity="0.7"/><circle cx="-12.917" cy="2.200" r="0.250" fill="none" stroke="#e6e9ef" stroke-width="0.12" opacity="1"/><rect x="-13.087" y="-1.200" width="2.400" height="2.400" rx="0.000" fill="#c79b5c"/><circle cx="-11.887" cy="0.000" r="0.850" fill="#12151c"/><rect x="-9.127" y="-1.200" width="2.400" height="2.400" rx="1.200" fill="#c79b5c"/><circle cx="-7.927" cy="0.000" r="0.850" fill="#12151c"/><rect x="-5.167" y="-1.200" width="2.400" height="2.400" rx="1.200" fill="#c79b5c"/><circle cx="-3.967" cy="0.000" r="0.850" fill="#12151c"/><rect x="-1.207" y="-1.200" width="2.400" height="2.400" rx="1.200" fill="#c79b5c"/><circle cx="-0.007" cy="0.000" r="0.850" fill="#12151c"/><rect x="2.753" y="-1.200" width="2.400" height="2.400" rx="1.200" fill="#c79b5c"/><circle cx="3.953" cy="0.000" r="0.850" fill="#12151c"/><rect x="6.713" y="-1.200" width="2.400" height="2.400" rx="1.200" fill="#c79b5c"/><circle cx="7.913" cy="0.000" r="0.850" fill="#12151c"/><rect x="10.675" y="-1.200" width="2.400" height="2.400" rx="1.200" fill="#c79b5c"/><circle cx="11.875" cy="0.000" r="0.850" fill="#12151c"/><polygon points="-12.34,2.25 -11.44,2.25 -11.89,1.65" fill="#ffffff"/></svg>