<svg xmlns="http://www.w3.org/2000/svg" viewBox="-3.00 -2.92 6.00 5.72" preserveAspectRatio="xMidYMid meet" style="width:100%;height:100%"><rect x="-3.00" y="-2.92" width="6.00" height="5.72" fill="#12151c"/><line x1="-0.350" y1="-1.450" x2="0.350" y2="-1.450" stroke="#e6e9ef" stroke-width="0.200" stroke-linecap="round" opacity="1"/><line x1="-0.350" y1="1.450" x2="-0.350" y2="-1.450" stroke="#e6e9ef" stroke-width="0.200" stroke-linecap="round" opacity="1"/><line x1="-0.350" y1="1.450" x2="0.350" y2="1.450" stroke="#e6e9ef" stroke-width="0.200" stroke-linecap="round" opacity="1"/><line x1="0.350" y1="1.450" x2="0.350" y2="-1.450" stroke="#e6e9ef" stroke-width="0.200" stroke-linecap="round" opacity="1"/><line x1="-2.000" y1="-1.800" x2="2.000" y2="-1.800" stroke="#d24d4d" stroke-width="0.080" stroke-linecap="round" opacity="0.7"/><line x1="-2.000" y1="1.800" x2="-2.000" y2="-1.800" stroke="#d24d4d" stroke-width="0.080" stroke-linecap="round" opacity="0.7"/><line x1="-2.000" y1="1.800" x2="2.000" y2="1.800" stroke="#d24d4d" stroke-width="0.080" stroke-linecap="round" opacity="0.7"/><line x1="2.000" y1="1.800" x2="2.000" y2="-1.800" stroke="#d24d4d" stroke-width="0.080" stroke-linecap="round" opacity="0.7"/><line x1="-0.700" y1="-1.460" x2="0.700" y2="-1.460" stroke="#6b7280" stroke-width="0.100" stroke-linecap="round" opacity="0.8"/><line x1="-0.700" y1="-1.360" x2="-0.600" y2="-1.460" stroke="#6b7280" stroke-width="0.100" stroke-linecap="round" opacity="0.8"/><line x1="-0.700" y1="-1.260" x2="-0.500" y2="-1.460" stroke="#6b7280" stroke-width="0.100" stroke-linecap="round" opacity="0.8"/><line x1="-0.700" y1="-1.160" x2="-0.400" y2="-1.460" stroke="#6b7280" stroke-width="0.100" stroke-linecap="round" opacity="0.8"/><line x1="-0.700" y1="-1.060" x2="-0.300" y2="-1.460" stroke="#6b7280" stroke-width="0.100" stroke-linecap="round" opacity="0.8"/><line x1="-0.700" y1="-0.960" x2="-0.200" y2="-1.460" stroke="#6b7280" stroke-width="0.100" stroke-linecap="round" opacity="0.8"/><line x1="-0.700" y1="-0.860" x2="-0.100" y2="-1.460" stroke="#6b7280" stroke-width="0.100" stroke-linecap="round" opacity="0.8"/><line x1="-0.700" y1="-0.760" x2="0.000" y2="-1.460" stroke="#6b7280" stroke-width="0.100" stroke-linecap="round" opacity="0.8"/><line x1="-0.700" y1="-0.660" x2="0.100" y2="-1.460" stroke="#6b7280" stroke-width="0.100" stroke-linecap="round" opacity="0.8"/><line x1="-0.700" y1="-0.560" x2="0.200" y2="-1.460" stroke="#6b7280" stroke-width="0.100" stroke-linecap="round" opacity="0.8"/><line x1="-0.700" y1="-0.460" x2="0.300" y2="-1.460" stroke="#6b7280" stroke-width="0.100" stroke-linecap="round" opacity="0.8"/><line x1="-0.700" y1="1.460" x2="-0.700" y2="-1.460" stroke="#6b7280" stroke-width="0.100" stroke-linecap="round" opacity="0.8"/><line x1="-0.700" y1="1.460" x2="0.700" y2="1.460" stroke="#6b7280" stroke-width="0.100" stroke-linecap="round" opacity="0.8"/><line x1="0.700" y1="1.460" x2="0.700" y2="-1.460" stroke="#6b7280" stroke-width="0.100" stroke-linecap="round" opacity="0.8"/><circle cx="-1.450" cy="-1.800" r="0.150" fill="#e6e9ef" opacity="1"/><rect x="-1.725" y="-1.275" width="1.050" height="0.650" rx="0.000" fill="#c79b5c"/><rect x="-1.725" y="0.625" width="1.050" height="0.650" rx="0.000" fill="#c79b5c"/><rect x="0.675" y="-0.325" width="1.050" height="0.650" rx="0.000" fill="#c79b5c"/></svg>