<svg xmlns="http://www.w3.org/2000/svg" viewBox="-1.50 -9.06 21.70 12.08" preserveAspectRatio="xMidYMid meet" style="width:100%;height:100%"><rect x="-1.50" y="-9.06" width="21.70" height="12.08" fill="#12151c"/><g transform="translate(3.81 0)"><polyline points="-1.270,-0.000 1.270,-0.000" fill="none" stroke="#4ea1ff" stroke-width="0.25" stroke-linejoin="round"/><polyline points="-0.762,1.524 0.762,-0.000 -0.762,-1.524 -0.762,1.524" fill="#1e222b" stroke="#4ea1ff" stroke-width="0.25" stroke-linejoin="round"/><polyline points="0.762,-2.286 2.032,-3.556" fill="none" stroke="#4ea1ff" stroke-width="0.25" stroke-linejoin="round"/><polyline points="0.762,-1.524 0.762,1.524" fill="none" stroke="#4ea1ff" stroke-width="0.25" stroke-linejoin="round"/><polyline points="2.032,-3.556 1.270,-3.302 1.778,-2.794 2.032,-3.556" fill="#1e222b" stroke="#4ea1ff" stroke-width="0.25" stroke-linejoin="round"/><polyline points="2.032,-2.032 3.302,-3.302" fill="none" stroke="#4ea1ff" stroke-width="0.25" stroke-linejoin="round"/><polyline points="3.302,-3.302 2.540,-3.048 3.048,-2.540 3.302,-3.302" fill="#1e222b" stroke="#4ea1ff" stroke-width="0.25" stroke-linejoin="round"/><line x1="-3.810" y1="-0.000" x2="-1.270" y2="-0.000" stroke="#e6e9ef" stroke-width="0.2"/><circle cx="-3.810" cy="-0.000" r="0.4" fill="#4ea1ff"/><line x1="3.810" y1="-0.000" x2="1.270" y2="-0.000" stroke="#e6e9ef" stroke-width="0.2"/><circle cx="3.810" cy="-0.000" r="0.4" fill="#4ea1ff"/><text x="0.00" y="-5.56" fill="#9aa3b2" font-size="1.6" text-anchor="middle" font-family="sans-serif">A</text></g><g transform="translate(18.70 0)"><rect x="-5.080" y="-1.270" width="0.000" height="2.540" fill="#1e222b" stroke="#4ea1ff" stroke-width="0.25"/><line x1="0.000" y1="-0.000" x2="-5.080" y2="-0.000" stroke="#e6e9ef" stroke-width="0.2"/><circle cx="0.000" cy="-0.000" r="0.4" fill="#4ea1ff"/><text x="-2.54" y="-3.27" fill="#9aa3b2" font-size="1.6" text-anchor="middle" font-family="sans-serif">B</text></g></svg>