<svg xmlns="http://www.w3.org/2000/svg" viewBox="-6.58 -1.50 28.40 18.24" preserveAspectRatio="xMidYMid meet" style="width:100%;height:100%"><rect x="-6.58" y="-1.50" width="28.40" height="18.24" fill="#12151c"/><rect x="0.000" y="-0.000" width="15.240" height="15.240" fill="#1e222b" stroke="#4ea1ff" stroke-width="0.25"/><polyline points="0.000,2.540 2.540,2.540" fill="none" stroke="#4ea1ff" stroke-width="0.25" stroke-linejoin="round"/><polyline points="0.000,7.620 2.540,7.620" fill="none" stroke="#4ea1ff" stroke-width="0.25" stroke-linejoin="round"/><polyline points="1.524,4.318 2.540,5.842 3.556,4.318 1.524,4.318" fill="#1e222b" stroke="#4ea1ff" stroke-width="0.25" stroke-linejoin="round"/><polyline points="2.540,2.540 2.540,7.620" fill="none" stroke="#4ea1ff" stroke-width="0.25" stroke-linejoin="round"/><polyline points="3.556,5.842 1.524,5.842" fill="none" stroke="#4ea1ff" stroke-width="0.25" stroke-linejoin="round"/><polyline points="4.318,6.604 5.334,7.620" fill="none" stroke="#4ea1ff" stroke-width="0.25" stroke-linejoin="round"/><polyline points="5.334,6.604 6.350,7.620" fill="none" stroke="#4ea1ff" stroke-width="0.25" stroke-linejoin="round"/><polyline points="5.588,7.874 4.826,7.620 5.334,7.112 5.588,7.874" fill="#1e222b" stroke="#4ea1ff" stroke-width="0.25" stroke-linejoin="round"/><polyline points="6.604,7.874 5.842,7.620 6.350,7.112 6.604,7.874" fill="#1e222b" stroke="#4ea1ff" stroke-width="0.25" stroke-linejoin="round"/><polyline points="8.382,11.430 8.890,11.430 8.890,8.890 8.382,8.890 8.382,11.430" fill="#1e222b" stroke="#4ea1ff" stroke-width="0.25" stroke-linejoin="round"/><polyline points="8.636,10.160 9.906,8.890" fill="none" stroke="#4ea1ff" stroke-width="0.25" stroke-linejoin="round"/><polyline points="8.636,10.160 9.906,11.430" fill="none" stroke="#4ea1ff" stroke-width="0.25" stroke-linejoin="round"/><polyline points="9.652,10.668 9.144,11.176 9.906,11.430 9.652,10.668" fill="#1e222b" stroke="#4ea1ff" stroke-width="0.25" stroke-linejoin="round"/><polyline points="9.906,8.890 9.906,7.620 15.240,7.620" fill="none" stroke="#4ea1ff" stroke-width="0.25" stroke-linejoin="round"/><polyline points="10.922,12.700 11.430,12.700 11.430,10.160 10.922,10.160 10.922,12.700" fill="#1e222b" stroke="#4ea1ff" stroke-width="0.25" stroke-linejoin="round"/><polyline points="11.176,11.430 9.906,11.430" fill="none" stroke="#4ea1ff" stroke-width="0.25" stroke-linejoin="round"/><polyline points="11.176,11.430 12.446,10.160" fill="none" stroke="#4ea1ff" stroke-width="0.25" stroke-linejoin="round"/><polyline points="11.176,11.430 12.446,12.700" fill="none" stroke="#4ea1ff" stroke-width="0.25" stroke-linejoin="round"/><polyline points="12.192,11.938 11.684,12.446 12.446,12.700 12.192,11.938" fill="#1e222b" stroke="#4ea1ff" stroke-width="0.25" stroke-linejoin="round"/><polyline points="12.446,7.620 12.446,10.160" fill="none" stroke="#4ea1ff" stroke-width="0.25" stroke-linejoin="round"/><polyline points="15.240,5.080 7.620,5.080 7.620,10.160 8.636,10.160" fill="none" stroke="#4ea1ff" stroke-width="0.25" stroke-linejoin="round"/><polyline points="15.240,12.700 12.446,12.700" fill="none" stroke="#4ea1ff" stroke-width="0.25" stroke-linejoin="round"/><circle cx="12.446" cy="7.620" r="0.254" fill="none" stroke="#4ea1ff" stroke-width="0.25"/><line x1="-5.080" y1="2.540" x2="0.000" y2="2.540" stroke="#e6e9ef" stroke-width="0.2"/><circle cx="-5.080" cy="2.540" r="0.4" fill="#4ea1ff"/><text x="0.500" y="2.890" fill="#e6e9ef" font-size="1.1" text-anchor="start" font-family="sans-serif">A</text><text x="-0.300" y="2.190" fill="#9aa3b2" font-size="0.9" text-anchor="end" font-family="sans-serif">1</text><line x1="-5.080" y1="7.620" x2="0.000" y2="7.620" stroke="#e6e9ef" stroke-width="0.2"/><circle cx="-5.080" cy="7.620" r="0.4" fill="#4ea1ff"/><text x="0.500" y="7.970" fill="#e6e9ef" font-size="1.1" text-anchor="start" font-family="sans-serif">C</text><text x="-0.300" y="7.270" fill="#9aa3b2" font-size="0.9" text-anchor="end" font-family="sans-serif">2</text><line x1="-5.080" y1="10.160" x2="0.000" y2="10.160" stroke="#e6e9ef" stroke-width="0.2"/><circle cx="-5.080" cy="10.160" r="0.4" fill="#4ea1ff"/><text x="0.500" y="10.510" fill="#e6e9ef" font-size="1.1" text-anchor="start" font-family="sans-serif">NC</text><text x="-0.300" y="9.810" fill="#9aa3b2" font-size="0.9" text-anchor="end" font-family="sans-serif">3</text><line x1="-5.080" y1="12.700" x2="0.000" y2="12.700" stroke="#e6e9ef" stroke-width="0.2"/><circle cx="-5.080" cy="12.700" r="0.4" fill="#4ea1ff"/><text x="0.500" y="13.050" fill="#e6e9ef" font-size="1.1" text-anchor="start" font-family="sans-serif">NC</text><text x="-0.300" y="12.350" fill="#9aa3b2" font-size="0.9" text-anchor="end" font-family="sans-serif">4</text><line x1="20.320" y1="2.540" x2="15.240" y2="2.540" stroke="#e6e9ef" stroke-width="0.2"/><circle cx="20.320" cy="2.540" r="0.4" fill="#4ea1ff"/><text x="14.740" y="2.890" fill="#e6e9ef" font-size="1.1" text-anchor="end" font-family="sans-serif">NC</text><text x="15.540" y="2.190" fill="#9aa3b2" font-size="0.9" text-anchor="start" font-family="sans-serif">8</text><line x1="20.320" y1="5.080" x2="15.240" y2="5.080" stroke="#e6e9ef" stroke-width="0.2"/><circle cx="20.320" cy="5.080" r="0.4" fill="#4ea1ff"/><text x="14.740" y="5.430" fill="#e6e9ef" font-size="1.1" text-anchor="end" font-family="sans-serif">B</text><text x="15.540" y="4.730" fill="#9aa3b2" font-size="0.9" text-anchor="start" font-family="sans-serif">7</text><line x1="20.320" y1="7.620" x2="15.240" y2="7.620" stroke="#e6e9ef" stroke-width="0.2"/><circle cx="20.320" cy="7.620" r="0.4" fill="#4ea1ff"/><text x="14.740" y="7.970" fill="#e6e9ef" font-size="1.1" text-anchor="end" font-family="sans-serif">C</text><text x="15.540" y="7.270" fill="#9aa3b2" font-size="0.9" text-anchor="start" font-family="sans-serif">6</text><line x1="20.320" y1="12.700" x2="15.240" y2="12.700" stroke="#e6e9ef" stroke-width="0.2"/><circle cx="20.320" cy="12.700" r="0.4" fill="#4ea1ff"/><text x="14.740" y="13.050" fill="#e6e9ef" font-size="1.1" text-anchor="end" font-family="sans-serif">E</text><text x="15.540" y="12.350" fill="#9aa3b2" font-size="0.9" text-anchor="start" font-family="sans-serif">5</text></svg>