<svg xmlns="http://www.w3.org/2000/svg" viewBox="-19.62 -19.62 39.24 39.24" preserveAspectRatio="xMidYMid meet" style="width:100%;height:100%"><rect x="-19.62" y="-19.62" width="39.24" height="39.24" fill="#12151c"/><line x1="-18.620" y1="-18.620" x2="18.620" y2="-18.620" stroke="#d24d4d" stroke-width="0.080" stroke-linecap="round" opacity="0.7"/><line x1="18.620" y1="-18.620" x2="18.620" y2="18.620" stroke="#d24d4d" stroke-width="0.080" stroke-linecap="round" opacity="0.7"/><line x1="18.620" y1="18.620" x2="-18.620" y2="18.620" stroke="#d24d4d" stroke-width="0.080" stroke-linecap="round" opacity="0.7"/><line x1="-18.620" y1="18.620" x2="-18.620" y2="-18.620" stroke="#d24d4d" stroke-width="0.080" stroke-linecap="round" opacity="0.7"/><path d="M -18.375 -14.700 A 3.675 3.675 0 0 1 -14.700 -18.375" fill="none" stroke="#e6e9ef" stroke-width="0.12" opacity="1"/><path d="M -14.700 18.375 A 3.675 3.675 0 0 1 -18.375 14.700" fill="none" stroke="#e6e9ef" stroke-width="0.12" opacity="1"/><path d="M -14.414 3.130 A 0.150 0.150 0 0 1 -14.306 2.953" fill="none" stroke="#e6e9ef" stroke-width="0.12" opacity="1"/><path d="M -14.048 4.496 A 14.750 14.750 0 0 1 -14.414 3.130" fill="none" stroke="#e6e9ef" stroke-width="0.12" opacity="1"/><path d="M -13.866 4.595 A 0.150 0.150 0 0 1 -14.048 4.496" fill="none" stroke="#e6e9ef" stroke-width="0.12" opacity="1"/><path d="M -13.573 2.757 A 13.850 13.850 0 0 1 -1.650 -13.751" fill="none" stroke="#e6e9ef" stroke-width="0.12" opacity="1"/><path d="M -10.130 5.333 A 1.750 1.750 0 1 1 -8.945 5.552" fill="none" stroke="#e6e9ef" stroke-width="0.12" opacity="1"/><path d="M -10.129 5.156 A 1.600 1.600 0 1 1 -8.971 5.404" fill="none" stroke="#e6e9ef" stroke-width="0.12" opacity="1"/><path d="M -10.012 10.832 A 0.150 0.150 0 0 1 -10.025 10.625" fill="none" stroke="#e6e9ef" stroke-width="0.12" opacity="1"/><path d="M -9.872 -1.595 A 10.000 10.000 0 0 1 -9.731 -2.304" fill="none" stroke="#e6e9ef" stroke-width="0.12" opacity="1"/><path d="M -9.731 2.304 A 10.000 10.000 0 0 1 -9.872 1.595" fill="none" stroke="#e6e9ef" stroke-width="0.12" opacity="1"/><path d="M -9.537 10.043 A 13.850 13.850 0 0 1 -13.133 4.399" fill="none" stroke="#e6e9ef" stroke-width="0.12" opacity="1"/><path d="M -8.928 11.741 A 14.750 14.750 0 0 1 -10.012 10.832" fill="none" stroke="#e6e9ef" stroke-width="0.12" opacity="1"/><path d="M -8.723 11.718 A 0.150 0.150 0 0 1 -8.928 11.741" fill="none" stroke="#e6e9ef" stroke-width="0.12" opacity="1"/><path d="M -8.510 -5.251 A 10.000 10.000 0 0 1 -8.108 -5.853" fill="none" stroke="#e6e9ef" stroke-width="0.12" opacity="1"/><path d="M -8.472 6.299 A 1.600 1.600 0 1 1 -8.671 7.066" fill="none" stroke="#e6e9ef" stroke-width="0.12" opacity="1"/><path d="M -8.108 5.853 A 10.000 10.000 0 0 1 -8.510 5.251" fill="none" stroke="#e6e9ef" stroke-width="0.12" opacity="1"/><path d="M -6.363 -1.184 A 1.750 1.750 0 1 1 -7.070 -0.844" fill="none" stroke="#e6e9ef" stroke-width="0.12" opacity="1"/><path d="M -5.903 -1.075 A 6.000 6.000 0 0 1 -5.650 -2.020" fill="none" stroke="#e6e9ef" stroke-width="0.12" opacity="1"/><path d="M -5.853 -8.108 A 10.000 10.000 0 0 1 -5.251 -8.510" fill="none" stroke="#e6e9ef" stroke-width="0.12" opacity="1"/><path d="M -5.251 8.510 A 10.000 10.000 0 0 1 -5.853 8.108" fill="none" stroke="#e6e9ef" stroke-width="0.12" opacity="1"/><path d="M -5.213 2.971 A 6.000 6.000 0 0 1 -5.626 2.084" fill="none" stroke="#e6e9ef" stroke-width="0.12" opacity="1"/><path d="M -3.831 -4.618 A 6.000 6.000 0 0 1 -3.029 -5.179" fill="none" stroke="#e6e9ef" stroke-width="0.12" opacity="1"/><path d="M -2.304 -9.731 A 10.000 10.000 0 0 1 -1.595 -9.872" fill="none" stroke="#e6e9ef" stroke-width="0.12" opacity="1"/><path d="M -2.084 5.626 A 6.000 6.000 0 0 1 -2.971 5.213" fill="none" stroke="#e6e9ef" stroke-width="0.12" opacity="1"/><path d="M -1.650 -14.523 A 0.150 0.150 0 0 1 -1.515 -14.672" fill="none" stroke="#e6e9ef" stroke-width="0.12" opacity="1"/><path d="M -1.595 9.872 A 10.000 10.000 0 0 1 -2.304 9.731" fill="none" stroke="#e6e9ef" stroke-width="0.12" opacity="1"/><path d="M -1.515 -14.672 A 14.750 14.750 0 0 1 1.515 -14.672" fill="none" stroke="#e6e9ef" stroke-width="0.12" opacity="1"/><path d="M -1.296 -1.900 A 2.300 2.300 0 0 1 0.172 -2.294" fill="none" stroke="#e6e9ef" stroke-width="0.12" opacity="1"/><path d="M -0.998 2.072 A 2.300 2.300 0 0 1 -2.072 0.998" fill="none" stroke="#e6e9ef" stroke-width="0.12" opacity="1"/><path d="M -0.357 -8.287 A 1.750 1.750 0 1 1 0.933 -8.519" fill="none" stroke="#e6e9ef" stroke-width="0.12" opacity="1"/><path d="M -0.230 -8.417 A 1.600 1.600 0 1 1 0.716 -8.569" fill="none" stroke="#e6e9ef" stroke-width="0.12" opacity="1"/><path d="M 0.034 -6.000 A 6.000 6.000 0 0 1 1.008 -5.915" fill="none" stroke="#e6e9ef" stroke-width="0.12" opacity="1"/><path d="M 1.515 -14.672 A 0.150 0.150 0 0 1 1.650 -14.523" fill="none" stroke="#e6e9ef" stroke-width="0.12" opacity="1"/><path d="M 1.595 -9.872 A 10.000 10.000 0 0 1 2.304 -9.731" fill="none" stroke="#e6e9ef" stroke-width="0.12" opacity="1"/><path d="M 1.650 -13.751 A 13.850 13.850 0 0 1 13.845 0.358" fill="none" stroke="#e6e9ef" stroke-width="0.12" opacity="1"/><path d="M 3.883 -4.574 A 6.000 6.000 0 0 1 4.574 -3.883" fill="none" stroke="#e6e9ef" stroke-width="0.12" opacity="1"/><path d="M 5.179 3.029 A 6.000 6.000 0 0 1 4.618 3.831" fill="none" stroke="#e6e9ef" stroke-width="0.12" opacity="1"/><path d="M 5.251 -8.510 A 10.000 10.000 0 0 1 5.853 -8.108" fill="none" stroke="#e6e9ef" stroke-width="0.12" opacity="1"/><path d="M 5.853 8.108 A 10.000 10.000 0 0 1 5.251 8.510" fill="none" stroke="#e6e9ef" stroke-width="0.12" opacity="1"/><path d="M 5.915 -1.008 A 6.000 6.000 0 0 1 6.000 -0.034" fill="none" stroke="#e6e9ef" stroke-width="0.12" opacity="1"/><path d="M 7.233 11.811 A 13.850 13.850 0 0 1 -8.235 11.136" fill="none" stroke="#e6e9ef" stroke-width="0.12" opacity="1"/><path d="M 7.871 12.474 A 0.150 0.150 0 0 1 7.668 12.433" fill="none" stroke="#e6e9ef" stroke-width="0.12" opacity="1"/><path d="M 8.108 -5.853 A 10.000 10.000 0 0 1 8.510 -5.251" fill="none" stroke="#e6e9ef" stroke-width="0.12" opacity="1"/><path d="M 8.510 5.251 A 10.000 10.000 0 0 1 8.108 5.853" fill="none" stroke="#e6e9ef" stroke-width="0.12" opacity="1"/><path d="M 9.030 11.663 A 14.750 14.750 0 0 1 7.871 12.474" fill="none" stroke="#e6e9ef" stroke-width="0.12" opacity="1"/><path d="M 9.061 11.458 A 0.150 0.150 0 0 1 9.030 11.663" fill="none" stroke="#e6e9ef" stroke-width="0.12" opacity="1"/><path d="M 9.731 -2.304 A 10.000 10.000 0 0 1 9.872 -1.595" fill="none" stroke="#e6e9ef" stroke-width="0.12" opacity="1"/><path d="M 9.872 1.595 A 10.000 10.000 0 0 1 9.731 2.304" fill="none" stroke="#e6e9ef" stroke-width="0.12" opacity="1"/><path d="M 10.328 1.566 A 1.600 1.600 0 1 1 11.012 1.239" fill="none" stroke="#e6e9ef" stroke-width="0.12" opacity="1"/><path d="M 10.791 3.440 A 1.600 1.600 0 1 1 10.216 2.560" fill="none" stroke="#e6e9ef" stroke-width="0.12" opacity="1"/><path d="M 10.959 3.508 A 1.750 1.750 0 1 1 10.307 2.441" fill="none" stroke="#e6e9ef" stroke-width="0.12" opacity="1"/><path d="M 13.697 2.052 A 13.850 13.850 0 0 1 8.625 10.836" fill="none" stroke="#e6e9ef" stroke-width="0.12" opacity="1"/><path d="M 14.602 0.424 A 0.150 0.150 0 0 1 14.739 0.580" fill="none" stroke="#e6e9ef" stroke-width="0.12" opacity="1"/><path d="M 14.615 1.989 A 0.150 0.150 0 0 1 14.454 2.118" fill="none" stroke="#e6e9ef" stroke-width="0.12" opacity="1"/><path d="M 14.700 -18.375 A 3.675 3.675 0 0 1 18.375 -14.700" fill="none" stroke="#e6e9ef" stroke-width="0.12" opacity="1"/><path d="M 14.739 0.580 A 14.749 14.749 0 0 1 14.615 1.989" fill="none" stroke="#e6e9ef" stroke-width="0.12" opacity="1"/><path d="M 18.375 14.700 A 3.675 3.675 0 0 1 14.700 18.375" fill="none" stroke="#e6e9ef" stroke-width="0.12" opacity="1"/><path d="M -18.375 -14.700 A 3.675 3.675 0 0 1 -14.700 -18.375" fill="none" stroke="#6b7280" stroke-width="0.12" opacity="0.8"/><path d="M -15.862 -15.056 A 0.490 0.490 0 0 1 -15.862 -14.344" fill="none" stroke="#6b7280" stroke-width="0.12" opacity="0.8"/><path d="M -15.862 14.344 A 0.490 0.490 0 0 1 -15.862 15.056" fill="none" stroke="#6b7280" stroke-width="0.12" opacity="0.8"/><path d="M -15.862 -15.056 A 0.280 0.280 0 0 1 -15.590 -15.528" fill="none" stroke="#6b7280" stroke-width="0.12" opacity="0.8"/><path d="M -15.862 14.344 A 0.280 0.280 0 0 1 -15.590 13.872" fill="none" stroke="#6b7280" stroke-width="0.12" opacity="0.8"/><path d="M -15.590 -13.872 A 0.490 0.490 0 0 1 -14.972 -13.515" fill="none" stroke="#6b7280" stroke-width="0.12" opacity="0.8"/><path d="M -15.590 -13.872 A 0.280 0.280 0 0 1 -15.862 -14.344" fill="none" stroke="#6b7280" stroke-width="0.12" opacity="0.8"/><path d="M -15.590 15.528 A 0.280 0.280 0 0 1 -15.862 15.056" fill="none" stroke="#6b7280" stroke-width="0.12" opacity="0.8"/><path d="M -15.590 15.528 A 0.490 0.490 0 0 1 -14.972 15.885" fill="none" stroke="#6b7280" stroke-width="0.12" opacity="0.8"/><path d="M -14.972 -15.885 A 0.490 0.490 0 0 1 -15.590 -15.528" fill="none" stroke="#6b7280" stroke-width="0.12" opacity="0.8"/><path d="M -14.972 13.515 A 0.490 0.490 0 0 1 -15.590 13.872" fill="none" stroke="#6b7280" stroke-width="0.12" opacity="0.8"/><path d="M -14.972 -15.885 A 0.280 0.280 0 0 1 -14.428 -15.885" fill="none" stroke="#6b7280" stroke-width="0.12" opacity="0.8"/><path d="M -14.972 13.515 A 0.280 0.280 0 0 1 -14.428 13.515" fill="none" stroke="#6b7280" stroke-width="0.12" opacity="0.8"/><path d="M -14.700 18.375 A 3.675 3.675 0 0 1 -18.375 14.700" fill="none" stroke="#6b7280" stroke-width="0.12" opacity="0.8"/><path d="M -14.428 -13.515 A 0.280 0.280 0 0 1 -14.972 -13.515" fill="none" stroke="#6b7280" stroke-width="0.12" opacity="0.8"/><path d="M -14.428 15.885 A 0.280 0.280 0 0 1 -14.972 15.885" fill="none" stroke="#6b7280" stroke-width="0.12" opacity="0.8"/><path d="M -14.428 -13.515 A 0.490 0.490 0 0 1 -13.810 -13.872" fill="none" stroke="#6b7280" stroke-width="0.12" opacity="0.8"/><path d="M -14.428 15.885 A 0.490 0.490 0 0 1 -13.810 15.528" fill="none" stroke="#6b7280" stroke-width="0.12" opacity="0.8"/><path d="M -14.414 3.130 A 0.150 0.150 0 0 1 -14.306 2.953" fill="none" stroke="#6b7280" stroke-width="0.12" opacity="0.8"/><path d="M -14.048 4.496 A 14.750 14.750 0 0 1 -14.414 3.130" fill="none" stroke="#6b7280" stroke-width="0.12" opacity="0.8"/><path d="M -13.866 4.595 A 0.150 0.150 0 0 1 -14.048 4.496" fill="none" stroke="#6b7280" stroke-width="0.12" opacity="0.8"/><path d="M -13.810 -15.528 A 0.490 0.490 0 0 1 -14.428 -15.885" fill="none" stroke="#6b7280" stroke-width="0.12" opacity="0.8"/><path d="M -13.810 -15.528 A 0.280 0.280 0 0 1 -13.538 -15.056" fill="none" stroke="#6b7280" stroke-width="0.12" opacity="0.8"/><path d="M -13.810 13.872 A 0.280 0.280 0 0 1 -13.538 14.344" fill="none" stroke="#6b7280" stroke-width="0.12" opacity="0.8"/><path d="M -13.810 13.872 A 0.490 0.490 0 0 1 -14.428 13.515" fill="none" stroke="#6b7280" stroke-width="0.12" opacity="0.8"/><path d="M -13.573 2.757 A 13.850 13.850 0 0 1 -1.650 -13.751" fill="none" stroke="#6b7280" stroke-width="0.12" opacity="0.8"/><path d="M -13.538 -14.344 A 0.280 0.280 0 0 1 -13.810 -13.872" fill="none" stroke="#6b7280" stroke-width="0.12" opacity="0.8"/><path d="M -13.538 15.056 A 0.280 0.280 0 0 1 -13.810 15.528" fill="none" stroke="#6b7280" stroke-width="0.12" opacity="0.8"/><path d="M -13.538 -14.344 A 0.490 0.490 0 0 1 -13.538 -15.056" fill="none" stroke="#6b7280" stroke-width="0.12" opacity="0.8"/><path d="M -13.538 15.056 A 0.490 0.490 0 0 1 -13.538 14.344" fill="none" stroke="#6b7280" stroke-width="0.12" opacity="0.8"/><path d="M -10.130 5.333 A 1.750 1.750 0 1 1 -8.945 5.552" fill="none" stroke="#6b7280" stroke-width="0.12" opacity="0.8"/><path d="M -10.129 5.156 A 1.600 1.600 0 1 1 -8.971 5.404" fill="none" stroke="#6b7280" stroke-width="0.12" opacity="0.8"/><path d="M -10.012 10.832 A 0.150 0.150 0 0 1 -10.025 10.625" fill="none" stroke="#6b7280" stroke-width="0.12" opacity="0.8"/><path d="M -9.872 -1.595 A 10.000 10.000 0 0 1 -9.731 -2.304" fill="none" stroke="#6b7280" stroke-width="0.12" opacity="0.8"/><path d="M -9.731 2.304 A 10.000 10.000 0 0 1 -9.872 1.595" fill="none" stroke="#6b7280" stroke-width="0.12" opacity="0.8"/><path d="M -9.537 10.043 A 13.850 13.850 0 0 1 -13.133 4.399" fill="none" stroke="#6b7280" stroke-width="0.12" opacity="0.8"/><path d="M -8.928 11.741 A 14.750 14.750 0 0 1 -10.012 10.832" fill="none" stroke="#6b7280" stroke-width="0.12" opacity="0.8"/><path d="M -8.723 11.718 A 0.150 0.150 0 0 1 -8.928 11.741" fill="none" stroke="#6b7280" stroke-width="0.12" opacity="0.8"/><path d="M -8.510 -5.251 A 10.000 10.000 0 0 1 -8.108 -5.853" fill="none" stroke="#6b7280" stroke-width="0.12" opacity="0.8"/><path d="M -8.472 6.299 A 1.600 1.600 0 1 1 -8.671 7.066" fill="none" stroke="#6b7280" stroke-width="0.12" opacity="0.8"/><path d="M -8.108 5.853 A 10.000 10.000 0 0 1 -8.510 5.251" fill="none" stroke="#6b7280" stroke-width="0.12" opacity="0.8"/><path d="M -6.363 -1.184 A 1.750 1.750 0 1 1 -7.070 -0.844" fill="none" stroke="#6b7280" stroke-width="0.12" opacity="0.8"/><path d="M -5.903 -1.075 A 6.000 6.000 0 0 1 -5.650 -2.020" fill="none" stroke="#6b7280" stroke-width="0.12" opacity="0.8"/><path d="M -5.853 -8.108 A 10.000 10.000 0 0 1 -5.251 -8.510" fill="none" stroke="#6b7280" stroke-width="0.12" opacity="0.8"/><path d="M -5.251 8.510 A 10.000 10.000 0 0 1 -5.853 8.108" fill="none" stroke="#6b7280" stroke-width="0.12" opacity="0.8"/><path d="M -5.213 2.971 A 6.000 6.000 0 0 1 -5.626 2.084" fill="none" stroke="#6b7280" stroke-width="0.12" opacity="0.8"/><path d="M -3.831 -4.618 A 6.000 6.000 0 0 1 -3.029 -5.179" fill="none" stroke="#6b7280" stroke-width="0.12" opacity="0.8"/><path d="M -2.304 -9.731 A 10.000 10.000 0 0 1 -1.595 -9.872" fill="none" stroke="#6b7280" stroke-width="0.12" opacity="0.8"/><path d="M -2.084 5.626 A 6.000 6.000 0 0 1 -2.971 5.213" fill="none" stroke="#6b7280" stroke-width="0.12" opacity="0.8"/><path d="M -1.650 -14.523 A 0.150 0.150 0 0 1 -1.515 -14.672" fill="none" stroke="#6b7280" stroke-width="0.12" opacity="0.8"/><path d="M -1.595 9.872 A 10.000 10.000 0 0 1 -2.304 9.731" fill="none" stroke="#6b7280" stroke-width="0.12" opacity="0.8"/><path d="M -1.515 -14.672 A 14.750 14.750 0 0 1 1.515 -14.672" fill="none" stroke="#6b7280" stroke-width="0.12" opacity="0.8"/><path d="M -1.296 -1.900 A 2.300 2.300 0 0 1 0.172 -2.294" fill="none" stroke="#6b7280" stroke-width="0.12" opacity="0.8"/><path d="M -0.998 2.072 A 2.300 2.300 0 0 1 -2.072 0.998" fill="none" stroke="#6b7280" stroke-width="0.12" opacity="0.8"/><path d="M -0.357 -8.287 A 1.750 1.750 0 1 1 0.933 -8.519" fill="none" stroke="#6b7280" stroke-width="0.12" opacity="0.8"/><path d="M -0.223 -8.416 A 1.600 1.600 0 1 1 0.716 -8.569" fill="none" stroke="#6b7280" stroke-width="0.12" opacity="0.8"/><path d="M 0.034 -6.000 A 6.000 6.000 0 0 1 1.008 -5.915" fill="none" stroke="#6b7280" stroke-width="0.12" opacity="0.8"/><path d="M 1.515 -14.672 A 0.150 0.150 0 0 1 1.650 -14.523" fill="none" stroke="#6b7280" stroke-width="0.12" opacity="0.8"/><path d="M 1.595 -9.872 A 10.000 10.000 0 0 1 2.304 -9.731" fill="none" stroke="#6b7280" stroke-width="0.12" opacity="0.8"/><path d="M 1.650 -13.751 A 13.850 13.850 0 0 1 13.845 0.358" fill="none" stroke="#6b7280" stroke-width="0.12" opacity="0.8"/><path d="M 3.883 -4.574 A 6.000 6.000 0 0 1 4.574 -3.883" fill="none" stroke="#6b7280" stroke-width="0.12" opacity="0.8"/><path d="M 5.179 3.029 A 6.000 6.000 0 0 1 4.618 3.831" fill="none" stroke="#6b7280" stroke-width="0.12" opacity="0.8"/><path d="M 5.251 -8.510 A 10.000 10.000 0 0 1 5.853 -8.108" fill="none" stroke="#6b7280" stroke-width="0.12" opacity="0.8"/><path d="M 5.853 8.108 A 10.000 10.000 0 0 1 5.251 8.510" fill="none" stroke="#6b7280" stroke-width="0.12" opacity="0.8"/><path d="M 5.915 -1.008 A 6.000 6.000 0 0 1 6.000 -0.034" fill="none" stroke="#6b7280" stroke-width="0.12" opacity="0.8"/><path d="M 7.233 11.811 A 13.850 13.850 0 0 1 -8.235 11.136" fill="none" stroke="#6b7280" stroke-width="0.12" opacity="0.8"/><path d="M 7.871 12.474 A 0.150 0.150 0 0 1 7.668 12.433" fill="none" stroke="#6b7280" stroke-width="0.12" opacity="0.8"/><path d="M 8.108 -5.853 A 10.000 10.000 0 0 1 8.510 -5.251" fill="none" stroke="#6b7280" stroke-width="0.12" opacity="0.8"/><path d="M 8.510 5.251 A 10.000 10.000 0 0 1 8.108 5.853" fill="none" stroke="#6b7280" stroke-width="0.12" opacity="0.8"/><path d="M 9.030 11.663 A 14.750 14.750 0 0 1 7.871 12.474" fill="none" stroke="#6b7280" stroke-width="0.12" opacity="0.8"/><path d="M 9.061 11.458 A 0.150 0.150 0 0 1 9.030 11.663" fill="none" stroke="#6b7280" stroke-width="0.12" opacity="0.8"/><path d="M 9.731 -2.304 A 10.000 10.000 0 0 1 9.872 -1.595" fill="none" stroke="#6b7280" stroke-width="0.12" opacity="0.8"/><path d="M 9.872 1.595 A 10.000 10.000 0 0 1 9.731 2.304" fill="none" stroke="#6b7280" stroke-width="0.12" opacity="0.8"/><path d="M 10.328 1.566 A 1.600 1.600 0 1 1 11.012 1.239" fill="none" stroke="#6b7280" stroke-width="0.12" opacity="0.8"/><path d="M 10.791 3.440 A 1.600 1.600 0 1 1 10.216 2.560" fill="none" stroke="#6b7280" stroke-width="0.12" opacity="0.8"/><path d="M 10.959 3.508 A 1.750 1.750 0 1 1 10.307 2.441" fill="none" stroke="#6b7280" stroke-width="0.12" opacity="0.8"/><path d="M 13.538 -15.056 A 0.490 0.490 0 0 1 13.538 -14.344" fill="none" stroke="#6b7280" stroke-width="0.12" opacity="0.8"/><path d="M 13.538 14.344 A 0.490 0.490 0 0 1 13.538 15.056" fill="none" stroke="#6b7280" stroke-width="0.12" opacity="0.8"/><path d="M 13.538 -15.056 A 0.280 0.280 0 0 1 13.810 -15.528" fill="none" stroke="#6b7280" stroke-width="0.12" opacity="0.8"/><path d="M 13.538 14.344 A 0.280 0.280 0 0 1 13.810 13.872" fill="none" stroke="#6b7280" stroke-width="0.12" opacity="0.8"/><path d="M 13.697 2.052 A 13.850 13.850 0 0 1 8.625 10.836" fill="none" stroke="#6b7280" stroke-width="0.12" opacity="0.8"/><path d="M 13.810 -13.872 A 0.490 0.490 0 0 1 14.428 -13.515" fill="none" stroke="#6b7280" stroke-width="0.12" opacity="0.8"/><path d="M 13.810 -13.872 A 0.280 0.280 0 0 1 13.538 -14.344" fill="none" stroke="#6b7280" stroke-width="0.12" opacity="0.8"/><path d="M 13.810 15.528 A 0.280 0.280 0 0 1 13.538 15.056" fill="none" stroke="#6b7280" stroke-width="0.12" opacity="0.8"/><path d="M 13.810 15.528 A 0.490 0.490 0 0 1 14.428 15.885" fill="none" stroke="#6b7280" stroke-width="0.12" opacity="0.8"/><path d="M 14.428 -15.885 A 0.490 0.490 0 0 1 13.810 -15.528" fill="none" stroke="#6b7280" stroke-width="0.12" opacity="0.8"/><path d="M 14.428 13.515 A 0.490 0.490 0 0 1 13.810 13.872" fill="none" stroke="#6b7280" stroke-width="0.12" opacity="0.8"/><path d="M 14.428 -15.885 A 0.280 0.280 0 0 1 14.972 -15.885" fill="none" stroke="#6b7280" stroke-width="0.12" opacity="0.8"/><path d="M 14.428 13.515 A 0.280 0.280 0 0 1 14.972 13.515" fill="none" stroke="#6b7280" stroke-width="0.12" opacity="0.8"/><path d="M 14.602 0.424 A 0.150 0.150 0 0 1 14.739 0.580" fill="none" stroke="#6b7280" stroke-width="0.12" opacity="0.8"/><path d="M 14.615 1.989 A 0.150 0.150 0 0 1 14.454 2.118" fill="none" stroke="#6b7280" stroke-width="0.12" opacity="0.8"/><path d="M 14.700 -18.375 A 3.675 3.675 0 0 1 18.375 -14.700" fill="none" stroke="#6b7280" stroke-width="0.12" opacity="0.8"/><path d="M 14.739 0.580 A 14.749 14.749 0 0 1 14.615 1.989" fill="none" stroke="#6b7280" stroke-width="0.12" opacity="0.8"/><path d="M 14.972 -13.515 A 0.280 0.280 0 0 1 14.428 -13.515" fill="none" stroke="#6b7280" stroke-width="0.12" opacity="0.8"/><path d="M 14.972 15.885 A 0.280 0.280 0 0 1 14.428 15.885" fill="none" stroke="#6b7280" stroke-width="0.12" opacity="0.8"/><path d="M 14.972 -13.515 A 0.490 0.490 0 0 1 15.590 -13.872" fill="none" stroke="#6b7280" stroke-width="0.12" opacity="0.8"/><path d="M 14.972 15.885 A 0.490 0.490 0 0 1 15.590 15.528" fill="none" stroke="#6b7280" stroke-width="0.12" opacity="0.8"/><path d="M 15.590 -15.528 A 0.490 0.490 0 0 1 14.972 -15.885" fill="none" stroke="#6b7280" stroke-width="0.12" opacity="0.8"/><path d="M 15.590 -15.528 A 0.280 0.280 0 0 1 15.862 -15.056" fill="none" stroke="#6b7280" stroke-width="0.12" opacity="0.8"/><path d="M 15.590 13.872 A 0.280 0.280 0 0 1 15.862 14.344" fill="none" stroke="#6b7280" stroke-width="0.12" opacity="0.8"/><path d="M 15.590 13.872 A 0.490 0.490 0 0 1 14.972 13.515" fill="none" stroke="#6b7280" stroke-width="0.12" opacity="0.8"/><path d="M 15.862 -14.344 A 0.280 0.280 0 0 1 15.590 -13.872" fill="none" stroke="#6b7280" stroke-width="0.12" opacity="0.8"/><path d="M 15.862 15.056 A 0.280 0.280 0 0 1 15.590 15.528" fill="none" stroke="#6b7280" stroke-width="0.12" opacity="0.8"/><path d="M 15.862 -14.344 A 0.490 0.490 0 0 1 15.862 -15.056" fill="none" stroke="#6b7280" stroke-width="0.12" opacity="0.8"/><path d="M 15.862 15.056 A 0.490 0.490 0 0 1 15.862 14.344" fill="none" stroke="#6b7280" stroke-width="0.12" opacity="0.8"/><path d="M 18.375 14.700 A 3.675 3.675 0 0 1 14.700 18.375" fill="none" stroke="#6b7280" stroke-width="0.12" opacity="0.8"/><circle cx="-10.000" cy="0.000" r="1.600" fill="none" stroke="#e6e9ef" stroke-width="0.12" opacity="1"/><circle cx="-9.239" cy="-3.827" r="1.600" fill="none" stroke="#e6e9ef" stroke-width="0.12" opacity="1"/><circle cx="-7.071" cy="-7.071" r="1.600" fill="none" stroke="#e6e9ef" stroke-width="0.12" opacity="1"/><circle cx="-5.977" cy="0.523" r="1.600" fill="none" stroke="#e6e9ef" stroke-width="0.12" opacity="1"/><circle cx="-4.915" cy="-3.441" r="1.600" fill="none" stroke="#e6e9ef" stroke-width="0.12" opacity="1"/><circle cx="-4.243" cy="4.243" r="1.600" fill="none" stroke="#e6e9ef" stroke-width="0.12" opacity="1"/><circle cx="-3.827" cy="-9.239" r="1.600" fill="none" stroke="#e6e9ef" stroke-width="0.12" opacity="1"/><circle cx="-3.827" cy="9.239" r="1.600" fill="none" stroke="#e6e9ef" stroke-width="0.12" opacity="1"/><circle cx="-2.222" cy="-0.595" r="1.600" fill="none" stroke="#e6e9ef" stroke-width="0.12" opacity="1"/><circle cx="-1.553" cy="-5.796" r="1.600" fill="none" stroke="#e6e9ef" stroke-width="0.12" opacity="1"/><circle cx="-0.523" cy="5.977" r="1.600" fill="none" stroke="#e6e9ef" stroke-width="0.12" opacity="1"/><circle cx="0.000" cy="0.000" r="15.850" fill="none" stroke="#e6e9ef" stroke-width="0.12" opacity="1"/><circle cx="0.000" cy="0.000" r="15.350" fill="none" stroke="#e6e9ef" stroke-width="0.12" opacity="1"/><circle cx="0.000" cy="0.000" r="12.500" fill="none" stroke="#e6e9ef" stroke-width="0.12" opacity="1"/><circle cx="0.000" cy="10.000" r="1.600" fill="none" stroke="#e6e9ef" stroke-width="0.12" opacity="1"/><circle cx="0.595" cy="2.222" r="1.600" fill="none" stroke="#e6e9ef" stroke-width="0.12" opacity="1"/><circle cx="1.626" cy="-1.626" r="1.750" fill="none" stroke="#e6e9ef" stroke-width="0.12" opacity="1"/><circle cx="1.626" cy="-1.626" r="1.600" fill="none" stroke="#e6e9ef" stroke-width="0.12" opacity="1"/><circle cx="2.536" cy="-5.438" r="1.600" fill="none" stroke="#e6e9ef" stroke-width="0.12" opacity="1"/><circle cx="3.441" cy="4.915" r="1.600" fill="none" stroke="#e6e9ef" stroke-width="0.12" opacity="1"/><circle cx="3.827" cy="-9.239" r="1.600" fill="none" stroke="#e6e9ef" stroke-width="0.12" opacity="1"/><circle cx="3.827" cy="9.239" r="1.600" fill="none" stroke="#e6e9ef" stroke-width="0.12" opacity="1"/><circle cx="5.438" cy="-2.536" r="1.600" fill="none" stroke="#e6e9ef" stroke-width="0.12" opacity="1"/><circle cx="5.796" cy="1.553" r="1.750" fill="none" stroke="#e6e9ef" stroke-width="0.12" opacity="1"/><circle cx="5.796" cy="1.553" r="1.600" fill="none" stroke="#e6e9ef" stroke-width="0.12" opacity="1"/><circle cx="7.071" cy="-7.071" r="1.600" fill="none" stroke="#e6e9ef" stroke-width="0.12" opacity="1"/><circle cx="7.071" cy="7.071" r="1.600" fill="none" stroke="#e6e9ef" stroke-width="0.12" opacity="1"/><circle cx="9.239" cy="-3.827" r="1.600" fill="none" stroke="#e6e9ef" stroke-width="0.12" opacity="1"/><circle cx="-14.700" cy="-14.700" r="2.800" fill="none" stroke="#6b7280" stroke-width="0.12" opacity="0.8"/><circle cx="-14.700" cy="-14.700" r="1.450" fill="none" stroke="#6b7280" stroke-width="0.12" opacity="0.8"/><circle cx="-14.700" cy="14.700" r="2.800" fill="none" stroke="#6b7280" stroke-width="0.12" opacity="0.8"/><circle cx="-14.700" cy="14.700" r="1.450" fill="none" stroke="#6b7280" stroke-width="0.12" opacity="0.8"/><circle cx="-10.000" cy="0.000" r="1.600" fill="none" stroke="#6b7280" stroke-width="0.12" opacity="0.8"/><circle cx="-9.239" cy="-3.827" r="1.600" fill="none" stroke="#6b7280" stroke-width="0.12" opacity="0.8"/><circle cx="-7.071" cy="-7.071" r="1.600" fill="none" stroke="#6b7280" stroke-width="0.12" opacity="0.8"/><circle cx="-5.977" cy="0.523" r="1.600" fill="none" stroke="#6b7280" stroke-width="0.12" opacity="0.8"/><circle cx="-4.915" cy="-3.441" r="1.600" fill="none" stroke="#6b7280" stroke-width="0.12" opacity="0.8"/><circle cx="-4.243" cy="4.243" r="1.600" fill="none" stroke="#6b7280" stroke-width="0.12" opacity="0.8"/><circle cx="-3.827" cy="-9.239" r="1.600" fill="none" stroke="#6b7280" stroke-width="0.12" opacity="0.8"/><circle cx="-3.827" cy="9.239" r="1.600" fill="none" stroke="#6b7280" stroke-width="0.12" opacity="0.8"/><circle cx="-2.222" cy="-0.595" r="1.600" fill="none" stroke="#6b7280" stroke-width="0.12" opacity="0.8"/><circle cx="-1.553" cy="-5.796" r="1.600" fill="none" stroke="#6b7280" stroke-width="0.12" opacity="0.8"/><circle cx="-0.523" cy="5.977" r="1.600" fill="none" stroke="#6b7280" stroke-width="0.12" opacity="0.8"/><circle cx="0.000" cy="0.000" r="15.850" fill="none" stroke="#6b7280" stroke-width="0.12" opacity="0.8"/><circle cx="0.000" cy="0.000" r="15.350" fill="none" stroke="#6b7280" stroke-width="0.12" opacity="0.8"/><circle cx="0.000" cy="0.000" r="12.500" fill="none" stroke="#6b7280" stroke-width="0.12" opacity="0.8"/><circle cx="0.000" cy="10.000" r="1.600" fill="none" stroke="#6b7280" stroke-width="0.12" opacity="0.8"/><circle cx="0.595" cy="2.222" r="1.600" fill="none" stroke="#6b7280" stroke-width="0.12" opacity="0.8"/><circle cx="1.626" cy="-1.626" r="1.750" fill="none" stroke="#6b7280" stroke-width="0.12" opacity="0.8"/><circle cx="1.626" cy="-1.626" r="1.600" fill="none" stroke="#6b7280" stroke-width="0.12" opacity="0.8"/><circle cx="2.536" cy="-5.438" r="1.600" fill="none" stroke="#6b7280" stroke-width="0.12" opacity="0.8"/><circle cx="3.441" cy="4.915" r="1.600" fill="none" stroke="#6b7280" stroke-width="0.12" opacity="0.8"/><circle cx="3.827" cy="-9.239" r="1.600" fill="none" stroke="#6b7280" stroke-width="0.12" opacity="0.8"/><circle cx="3.827" cy="9.239" r="1.600" fill="none" stroke="#6b7280" stroke-width="0.12" opacity="0.8"/><circle cx="5.438" cy="-2.536" r="1.600" fill="none" stroke="#6b7280" stroke-width="0.12" opacity="0.8"/><circle cx="5.796" cy="1.553" r="1.750" fill="none" stroke="#6b7280" stroke-width="0.12" opacity="0.8"/><circle cx="5.796" cy="1.553" r="1.600" fill="none" stroke="#6b7280" stroke-width="0.12" opacity="0.8"/><circle cx="7.071" cy="-7.071" r="1.600" fill="none" stroke="#6b7280" stroke-width="0.12" opacity="0.8"/><circle cx="7.071" cy="7.071" r="1.600" fill="none" stroke="#6b7280" stroke-width="0.12" opacity="0.8"/><circle cx="9.239" cy="-3.827" r="1.600" fill="none" stroke="#6b7280" stroke-width="0.12" opacity="0.8"/><circle cx="14.700" cy="-14.700" r="2.800" fill="none" stroke="#6b7280" stroke-width="0.12" opacity="0.8"/><circle cx="14.700" cy="-14.700" r="1.450" fill="none" stroke="#6b7280" stroke-width="0.12" opacity="0.8"/><circle cx="14.700" cy="14.700" r="2.800" fill="none" stroke="#6b7280" stroke-width="0.12" opacity="0.8"/><circle cx="14.700" cy="14.700" r="1.450" fill="none" stroke="#6b7280" stroke-width="0.12" opacity="0.8"/><rect x="0.676" y="-2.576" width="1.900" height="1.900" rx="0.950" fill="#c79b5c"/><circle cx="1.626" cy="-1.626" r="0.600" fill="#12151c"/><rect x="-3.172" y="-1.545" width="1.900" height="1.900" rx="0.950" fill="#c79b5c"/><circle cx="-2.222" cy="-0.595" r="0.600" fill="#12151c"/><rect x="-0.355" y="1.272" width="1.900" height="1.900" rx="0.950" fill="#c79b5c"/><circle cx="0.595" cy="2.222" r="0.600" fill="#12151c"/><rect x="2.491" y="3.965" width="1.900" height="1.900" rx="0.950" fill="#c79b5c"/><circle cx="3.441" cy="4.915" r="0.600" fill="#12151c"/><rect x="4.846" y="0.603" width="1.900" height="1.900" rx="0.950" fill="#c79b5c"/><circle cx="5.796" cy="1.553" r="0.600" fill="#12151c"/><rect x="4.488" y="-3.486" width="1.900" height="1.900" rx="0.950" fill="#c79b5c"/><circle cx="5.438" cy="-2.536" r="0.600" fill="#12151c"/><rect x="1.586" y="-6.388" width="1.900" height="1.900" rx="0.950" fill="#c79b5c"/><circle cx="2.536" cy="-5.438" r="0.600" fill="#12151c"/><rect x="-2.503" y="-6.746" width="1.900" height="1.900" rx="0.950" fill="#c79b5c"/><circle cx="-1.553" cy="-5.796" r="0.600" fill="#12151c"/><rect x="-5.865" y="-4.391" width="1.900" height="1.900" rx="0.950" fill="#c79b5c"/><circle cx="-4.915" cy="-3.441" r="0.600" fill="#12151c"/><rect x="-6.927" y="-0.427" width="1.900" height="1.900" rx="0.950" fill="#c79b5c"/><circle cx="-5.977" cy="0.523" r="0.600" fill="#12151c"/><rect x="-5.193" y="3.293" width="1.900" height="1.900" rx="0.950" fill="#c79b5c"/><circle cx="-4.243" cy="4.243" r="0.600" fill="#12151c"/><rect x="-1.473" y="5.027" width="1.900" height="1.900" rx="0.950" fill="#c79b5c"/><circle cx="-0.523" cy="5.977" r="0.600" fill="#12151c"/><rect x="2.877" y="8.289" width="1.900" height="1.900" rx="0.950" fill="#c79b5c"/><circle cx="3.827" cy="9.239" r="0.600" fill="#12151c"/><rect x="6.121" y="6.121" width="1.900" height="1.900" rx="0.950" fill="#c79b5c"/><circle cx="7.071" cy="7.071" r="0.600" fill="#12151c"/><rect x="8.289" y="2.877" width="1.900" height="1.900" rx="0.950" fill="#c79b5c"/><circle cx="9.239" cy="3.827" r="0.600" fill="#12151c"/><rect x="9.050" y="-0.950" width="1.900" height="1.900" rx="0.950" fill="#c79b5c"/><circle cx="10.000" cy="0.000" r="0.600" fill="#12151c"/><rect x="8.289" y="-4.777" width="1.900" height="1.900" rx="0.950" fill="#c79b5c"/><circle cx="9.239" cy="-3.827" r="0.600" fill="#12151c"/><rect x="6.121" y="-8.021" width="1.900" height="1.900" rx="0.950" fill="#c79b5c"/><circle cx="7.071" cy="-7.071" r="0.600" fill="#12151c"/><rect x="2.877" y="-10.189" width="1.900" height="1.900" rx="0.950" fill="#c79b5c"/><circle cx="3.827" cy="-9.239" r="0.600" fill="#12151c"/><rect x="-0.950" y="-10.950" width="1.900" height="1.900" rx="0.950" fill="#c79b5c"/><circle cx="0.000" cy="-10.000" r="0.600" fill="#12151c"/><rect x="-4.777" y="-10.189" width="1.900" height="1.900" rx="0.950" fill="#c79b5c"/><circle cx="-3.827" cy="-9.239" r="0.600" fill="#12151c"/><rect x="-8.021" y="-8.021" width="1.900" height="1.900" rx="0.950" fill="#c79b5c"/><circle cx="-7.071" cy="-7.071" r="0.600" fill="#12151c"/><rect x="-10.189" y="-4.777" width="1.900" height="1.900" rx="0.950" fill="#c79b5c"/><circle cx="-9.239" cy="-3.827" r="0.600" fill="#12151c"/><rect x="-10.950" y="-0.950" width="1.900" height="1.900" rx="0.950" fill="#c79b5c"/><circle cx="-10.000" cy="0.000" r="0.600" fill="#12151c"/><rect x="-10.189" y="2.877" width="1.900" height="1.900" rx="0.950" fill="#c79b5c"/><circle cx="-9.239" cy="3.827" r="0.600" fill="#12151c"/><rect x="-8.021" y="6.121" width="1.900" height="1.900" rx="0.950" fill="#c79b5c"/><circle cx="-7.071" cy="7.071" r="0.600" fill="#12151c"/><rect x="-4.777" y="8.289" width="1.900" height="1.900" rx="0.950" fill="#c79b5c"/><circle cx="-3.827" cy="9.239" r="0.600" fill="#12151c"/><rect x="-0.950" y="9.050" width="1.900" height="1.900" rx="0.950" fill="#c79b5c"/><circle cx="0.000" cy="10.000" r="0.600" fill="#12151c"/><rect x="-17.800" y="-17.800" width="6.200" height="6.200" rx="3.100" fill="#c79b5c"/><circle cx="-14.700" cy="-14.700" r="1.600" fill="#12151c"/><rect x="11.600" y="-17.800" width="6.200" height="6.200" rx="3.100" fill="#c79b5c"/><circle cx="14.700" cy="-14.700" r="1.600" fill="#12151c"/><rect x="-17.800" y="11.600" width="6.200" height="6.200" rx="3.100" fill="#c79b5c"/><circle cx="-14.700" cy="14.700" r="1.600" fill="#12151c"/><rect x="11.600" y="11.600" width="6.200" height="6.200" rx="3.100" fill="#c79b5c"/><circle cx="14.700" cy="14.700" r="1.600" fill="#12151c"/></svg>