<svg xmlns="http://www.w3.org/2000/svg" viewBox="-3.23 -2.90 6.12 5.80" preserveAspectRatio="xMidYMid meet" style="width:100%;height:100%"><rect x="-3.23" y="-2.90" width="6.12" height="5.80" fill="#12151c"/><circle cx="-2.100" cy="-1.400" r="0.125" fill="none" stroke="#e6e9ef" stroke-width="0.12" opacity="1"/><rect x="-1.900" y="-0.890" width="0.850" height="0.280" rx="0.140" fill="#c79b5c"/><rect x="-1.900" y="-0.390" width="0.850" height="0.280" rx="0.140" fill="#c79b5c"/><rect x="-1.900" y="0.110" width="0.850" height="0.280" rx="0.140" fill="#c79b5c"/><rect x="-1.900" y="0.610" width="0.850" height="0.280" rx="0.140" fill="#c79b5c"/><rect x="-0.890" y="1.050" width="0.280" height="0.850" rx="0.140" fill="#c79b5c"/><rect x="-0.390" y="1.050" width="0.280" height="0.850" rx="0.140" fill="#c79b5c"/><rect x="0.110" y="1.050" width="0.280" height="0.850" rx="0.140" fill="#c79b5c"/><rect x="0.610" y="1.050" width="0.280" height="0.850" rx="0.140" fill="#c79b5c"/><rect x="1.050" y="0.610" width="0.850" height="0.280" rx="0.140" fill="#c79b5c"/><rect x="1.050" y="0.110" width="0.850" height="0.280" rx="0.140" fill="#c79b5c"/><rect x="1.050" y="-0.390" width="0.850" height="0.280" rx="0.140" fill="#c79b5c"/><rect x="1.050" y="-0.890" width="0.850" height="0.280" rx="0.140" fill="#c79b5c"/><rect x="0.610" y="-1.900" width="0.280" height="0.850" rx="0.140" fill="#c79b5c"/><rect x="0.110" y="-1.900" width="0.280" height="0.850" rx="0.140" fill="#c79b5c"/><rect x="-0.390" y="-1.900" width="0.280" height="0.850" rx="0.140" fill="#c79b5c"/><rect x="-0.890" y="-1.900" width="0.280" height="0.850" rx="0.140" fill="#c79b5c"/><rect x="-0.400" y="-0.400" width="0.800" height="0.800" rx="0.000" fill="#c79b5c"/></svg>