<svg xmlns="http://www.w3.org/2000/svg" viewBox="-3.79 -3.76 7.58 8.04" preserveAspectRatio="xMidYMid meet" style="width:100%;height:100%"><rect x="-3.79" y="-3.76" width="7.58" height="8.04" fill="#12151c"/><line x1="-2.540" y1="-2.007" x2="-2.286" y2="-2.515" stroke="#e6e9ef" stroke-width="0.200" stroke-linecap="round" opacity="1"/><line x1="-2.540" y1="2.007" x2="-2.540" y2="-2.007" stroke="#e6e9ef" stroke-width="0.200" stroke-linecap="round" opacity="1"/><line x1="-2.540" y1="2.007" x2="-2.286" y2="2.515" stroke="#e6e9ef" stroke-width="0.200" stroke-linecap="round" opacity="1"/><line x1="-2.286" y1="-2.515" x2="-0.254" y2="-2.515" stroke="#e6e9ef" stroke-width="0.200" stroke-linecap="round" opacity="1"/><line x1="-2.286" y1="2.515" x2="-0.254" y2="2.515" stroke="#e6e9ef" stroke-width="0.200" stroke-linecap="round" opacity="1"/><line x1="-0.254" y1="-2.515" x2="0.000" y2="-2.007" stroke="#e6e9ef" stroke-width="0.200" stroke-linecap="round" opacity="1"/><line x1="-0.254" y1="2.515" x2="0.000" y2="2.007" stroke="#e6e9ef" stroke-width="0.200" stroke-linecap="round" opacity="1"/><line x1="0.000" y1="-2.007" x2="0.254" y2="-2.515" stroke="#e6e9ef" stroke-width="0.200" stroke-linecap="round" opacity="1"/><line x1="0.000" y1="2.007" x2="0.254" y2="2.515" stroke="#e6e9ef" stroke-width="0.200" stroke-linecap="round" opacity="1"/><line x1="0.254" y1="-2.515" x2="2.286" y2="-2.515" stroke="#e6e9ef" stroke-width="0.200" stroke-linecap="round" opacity="1"/><line x1="0.254" y1="2.515" x2="2.286" y2="2.515" stroke="#e6e9ef" stroke-width="0.200" stroke-linecap="round" opacity="1"/><line x1="2.286" y1="-2.515" x2="2.540" y2="-2.007" stroke="#e6e9ef" stroke-width="0.200" stroke-linecap="round" opacity="1"/><line x1="2.286" y1="2.515" x2="2.540" y2="2.007" stroke="#e6e9ef" stroke-width="0.200" stroke-linecap="round" opacity="1"/><line x1="2.540" y1="2.007" x2="2.540" y2="-2.007" stroke="#e6e9ef" stroke-width="0.200" stroke-linecap="round" opacity="1"/><line x1="-1.770" y1="-1.270" x2="-1.270" y2="-1.270" stroke="#4a5160" stroke-width="0.100" stroke-linecap="round" opacity="0.7"/><line x1="-1.770" y1="1.270" x2="-1.270" y2="1.270" stroke="#4a5160" stroke-width="0.100" stroke-linecap="round" opacity="0.7"/><line x1="-1.270" y1="-1.270" x2="-1.270" y2="-1.770" stroke="#4a5160" stroke-width="0.100" stroke-linecap="round" opacity="0.7"/><line x1="-1.270" y1="-1.270" x2="-0.770" y2="-1.270" stroke="#4a5160" stroke-width="0.100" stroke-linecap="round" opacity="0.7"/><line x1="-1.270" y1="-0.770" x2="-1.270" y2="-1.270" stroke="#4a5160" stroke-width="0.100" stroke-linecap="round" opacity="0.7"/><line x1="-1.270" y1="1.270" x2="-1.270" y2="0.770" stroke="#4a5160" stroke-width="0.100" stroke-linecap="round" opacity="0.7"/><line x1="-1.270" y1="1.270" x2="-0.770" y2="1.270" stroke="#4a5160" stroke-width="0.100" stroke-linecap="round" opacity="0.7"/><line x1="-1.270" y1="1.770" x2="-1.270" y2="1.270" stroke="#4a5160" stroke-width="0.100" stroke-linecap="round" opacity="0.7"/><line x1="-0.500" y1="0.000" x2="0.000" y2="0.000" stroke="#4a5160" stroke-width="0.100" stroke-linecap="round" opacity="0.7"/><line x1="0.000" y1="0.000" x2="0.000" y2="-0.500" stroke="#4a5160" stroke-width="0.100" stroke-linecap="round" opacity="0.7"/><line x1="0.000" y1="0.000" x2="0.500" y2="0.000" stroke="#4a5160" stroke-width="0.100" stroke-linecap="round" opacity="0.7"/><line x1="0.000" y1="0.500" x2="0.000" y2="0.000" stroke="#4a5160" stroke-width="0.100" stroke-linecap="round" opacity="0.7"/><line x1="0.770" y1="-1.270" x2="1.270" y2="-1.270" stroke="#4a5160" stroke-width="0.100" stroke-linecap="round" opacity="0.7"/><line x1="0.770" y1="1.270" x2="1.270" y2="1.270" stroke="#4a5160" stroke-width="0.100" stroke-linecap="round" opacity="0.7"/><line x1="1.270" y1="-1.270" x2="1.270" y2="-1.770" stroke="#4a5160" stroke-width="0.100" stroke-linecap="round" opacity="0.7"/><line x1="1.270" y1="-1.270" x2="1.770" y2="-1.270" stroke="#4a5160" stroke-width="0.100" stroke-linecap="round" opacity="0.7"/><line x1="1.270" y1="-0.770" x2="1.270" y2="-1.270" stroke="#4a5160" stroke-width="0.100" stroke-linecap="round" opacity="0.7"/><line x1="1.270" y1="1.270" x2="1.270" y2="0.770" stroke="#4a5160" stroke-width="0.100" stroke-linecap="round" opacity="0.7"/><line x1="1.270" y1="1.270" x2="1.770" y2="1.270" stroke="#4a5160" stroke-width="0.100" stroke-linecap="round" opacity="0.7"/><line x1="1.270" y1="1.770" x2="1.270" y2="1.270" stroke="#4a5160" stroke-width="0.100" stroke-linecap="round" opacity="0.7"/><line x1="-2.540" y1="-2.007" x2="-2.286" y2="-2.515" stroke="#6b7280" stroke-width="0.100" stroke-linecap="round" opacity="0.8"/><line x1="-2.540" y1="2.007" x2="-2.540" y2="-2.007" stroke="#6b7280" stroke-width="0.100" stroke-linecap="round" opacity="0.8"/><line x1="-2.540" y1="2.007" x2="-2.286" y2="2.515" stroke="#6b7280" stroke-width="0.100" stroke-linecap="round" opacity="0.8"/><line x1="-2.286" y1="-2.515" x2="-0.254" y2="-2.515" stroke="#6b7280" stroke-width="0.100" stroke-linecap="round" opacity="0.8"/><line x1="-2.286" y1="2.515" x2="-0.254" y2="2.515" stroke="#6b7280" stroke-width="0.100" stroke-linecap="round" opacity="0.8"/><line x1="-1.587" y1="-1.587" x2="-0.953" y2="-1.587" stroke="#6b7280" stroke-width="0.100" stroke-linecap="round" opacity="0.8"/><line x1="-1.587" y1="-0.953" x2="-1.587" y2="-1.587" stroke="#6b7280" stroke-width="0.100" stroke-linecap="round" opacity="0.8"/><line x1="-1.587" y1="-0.953" x2="-0.953" y2="-0.953" stroke="#6b7280" stroke-width="0.100" stroke-linecap="round" opacity="0.8"/><line x1="-1.587" y1="0.953" x2="-0.953" y2="0.953" stroke="#6b7280" stroke-width="0.100" stroke-linecap="round" opacity="0.8"/><line x1="-1.587" y1="1.587" x2="-1.587" y2="0.953" stroke="#6b7280" stroke-width="0.100" stroke-linecap="round" opacity="0.8"/><line x1="-1.587" y1="1.587" x2="-0.953" y2="1.587" stroke="#6b7280" stroke-width="0.100" stroke-linecap="round" opacity="0.8"/><line x1="-0.953" y1="-0.953" x2="-0.953" y2="-1.587" stroke="#6b7280" stroke-width="0.100" stroke-linecap="round" opacity="0.8"/><line x1="-0.953" y1="1.587" x2="-0.953" y2="0.953" stroke="#6b7280" stroke-width="0.100" stroke-linecap="round" opacity="0.8"/><line x1="-0.254" y1="-2.515" x2="0.000" y2="-2.007" stroke="#6b7280" stroke-width="0.100" stroke-linecap="round" opacity="0.8"/><line x1="-0.254" y1="2.515" x2="0.000" y2="2.007" stroke="#6b7280" stroke-width="0.100" stroke-linecap="round" opacity="0.8"/><line x1="0.000" y1="-2.007" x2="0.254" y2="-2.515" stroke="#6b7280" stroke-width="0.100" stroke-linecap="round" opacity="0.8"/><line x1="0.000" y1="2.007" x2="0.254" y2="2.515" stroke="#6b7280" stroke-width="0.100" stroke-linecap="round" opacity="0.8"/><line x1="0.254" y1="-2.515" x2="2.286" y2="-2.515" stroke="#6b7280" stroke-width="0.100" stroke-linecap="round" opacity="0.8"/><line x1="0.254" y1="2.515" x2="2.286" y2="2.515" stroke="#6b7280" stroke-width="0.100" stroke-linecap="round" opacity="0.8"/><line x1="0.953" y1="-1.587" x2="1.587" y2="-1.587" stroke="#6b7280" stroke-width="0.100" stroke-linecap="round" opacity="0.8"/><line x1="0.953" y1="-0.953" x2="0.953" y2="-1.587" stroke="#6b7280" stroke-width="0.100" stroke-linecap="round" opacity="0.8"/><line x1="0.953" y1="-0.953" x2="1.587" y2="-0.953" stroke="#6b7280" stroke-width="0.100" stroke-linecap="round" opacity="0.8"/><line x1="0.953" y1="0.953" x2="1.587" y2="0.953" stroke="#6b7280" stroke-width="0.100" stroke-linecap="round" opacity="0.8"/><line x1="0.953" y1="1.587" x2="0.953" y2="0.953" stroke="#6b7280" stroke-width="0.100" stroke-linecap="round" opacity="0.8"/><line x1="0.953" y1="1.587" x2="1.587" y2="1.587" stroke="#6b7280" stroke-width="0.100" stroke-linecap="round" opacity="0.8"/><line x1="1.587" y1="-0.953" x2="1.587" y2="-1.587" stroke="#6b7280" stroke-width="0.100" stroke-linecap="round" opacity="0.8"/><line x1="1.587" y1="1.587" x2="1.587" y2="0.953" stroke="#6b7280" stroke-width="0.100" stroke-linecap="round" opacity="0.8"/><line x1="2.286" y1="-2.515" x2="2.540" y2="-2.007" stroke="#6b7280" stroke-width="0.100" stroke-linecap="round" opacity="0.8"/><line x1="2.286" y1="2.515" x2="2.540" y2="2.007" stroke="#6b7280" stroke-width="0.100" stroke-linecap="round" opacity="0.8"/><line x1="2.540" y1="2.007" x2="2.540" y2="-2.007" stroke="#6b7280" stroke-width="0.100" stroke-linecap="round" opacity="0.8"/><line x1="-2.790" y1="-2.760" x2="2.790" y2="-2.760" stroke="#d24d4d" stroke-width="0.080" stroke-linecap="round" opacity="0.7"/><line x1="2.790" y1="-2.760" x2="2.790" y2="2.760" stroke="#d24d4d" stroke-width="0.080" stroke-linecap="round" opacity="0.7"/><line x1="2.790" y1="2.760" x2="-2.790" y2="2.760" stroke="#d24d4d" stroke-width="0.080" stroke-linecap="round" opacity="0.7"/><line x1="-2.790" y1="2.760" x2="-2.790" y2="-2.760" stroke="#d24d4d" stroke-width="0.080" stroke-linecap="round" opacity="0.7"/><circle cx="-1.235" cy="3.135" r="0.150" fill="none" stroke="#e6e9ef" stroke-width="0.12" opacity="1"/><circle cx="-1.235" cy="3.135" r="0.150" fill="none" stroke="#6b7280" stroke-width="0.12" opacity="0.8"/><rect x="-2.120" y="0.420" width="1.700" height="1.700" rx="0.850" fill="#c79b5c"/><circle cx="-1.270" cy="1.270" r="0.500" fill="#12151c"/><rect x="-2.120" y="-2.120" width="1.700" height="1.700" rx="0.850" fill="#c79b5c"/><circle cx="-1.270" cy="-1.270" r="0.500" fill="#12151c"/><rect x="0.420" y="0.420" width="1.700" height="1.700" rx="0.850" fill="#c79b5c"/><circle cx="1.270" cy="1.270" r="0.500" fill="#12151c"/><rect x="0.420" y="-2.120" width="1.700" height="1.700" rx="0.850" fill="#c79b5c"/><circle cx="1.270" cy="-1.270" r="0.500" fill="#12151c"/></svg>