<svg xmlns="http://www.w3.org/2000/svg" viewBox="-36.10 -18.92 72.20 24.53" preserveAspectRatio="xMidYMid meet" style="width:100%;height:100%"><rect x="-36.10" y="-18.92" width="72.20" height="24.53" fill="#12151c"/><line x1="-35.100" y1="-17.920" x2="35.100" y2="-17.920" stroke="#d24d4d" stroke-width="0.080" stroke-linecap="round" opacity="0.7"/><line x1="35.100" y1="-17.920" x2="35.100" y2="3.580" stroke="#d24d4d" stroke-width="0.080" stroke-linecap="round" opacity="0.7"/><line x1="35.100" y1="3.580" x2="-35.100" y2="3.580" stroke="#d24d4d" stroke-width="0.080" stroke-linecap="round" opacity="0.7"/><line x1="-35.100" y1="3.580" x2="-35.100" y2="-17.920" stroke="#d24d4d" stroke-width="0.080" stroke-linecap="round" opacity="0.7"/><path d="M -28.150 -17.170 A 0.500 0.500 0 0 1 -27.650 -17.670" fill="none" stroke="#e6e9ef" stroke-width="0.12" opacity="1"/><path d="M 27.650 -17.670 A 0.500 0.500 0 0 1 28.150 -17.170" fill="none" stroke="#e6e9ef" stroke-width="0.12" opacity="1"/><path d="M -28.150 -17.170 A 0.500 0.500 0 0 1 -27.650 -17.670" fill="none" stroke="#6b7280" stroke-width="0.12" opacity="0.8"/><path d="M -24.540 1.270 A 0.300 0.300 0 0 1 -25.140 1.270" fill="none" stroke="#6b7280" stroke-width="0.12" opacity="0.8"/><path d="M -23.160 -1.270 A 0.300 0.300 0 1 1 -23.760 -1.270" fill="none" stroke="#6b7280" stroke-width="0.12" opacity="0.8"/><path d="M -21.780 1.270 A 0.300 0.300 0 1 1 -22.380 1.270" fill="none" stroke="#6b7280" stroke-width="0.12" opacity="0.8"/><path d="M -20.400 -1.270 A 0.300 0.300 0 0 1 -21.000 -1.270" fill="none" stroke="#6b7280" stroke-width="0.12" opacity="0.8"/><path d="M -19.020 1.270 A 0.300 0.300 0 0 1 -19.620 1.270" fill="none" stroke="#6b7280" stroke-width="0.12" opacity="0.8"/><path d="M -17.640 -1.270 A 0.300 0.300 0 0 1 -18.240 -1.270" fill="none" stroke="#6b7280" stroke-width="0.12" opacity="0.8"/><path d="M -16.260 1.270 A 0.300 0.300 0 0 1 -16.860 1.270" fill="none" stroke="#6b7280" stroke-width="0.12" opacity="0.8"/><path d="M -14.880 -1.270 A 0.300 0.300 0 1 1 -15.480 -1.270" fill="none" stroke="#6b7280" stroke-width="0.12" opacity="0.8"/><path d="M -13.500 1.270 A 0.300 0.300 0 1 1 -14.100 1.270" fill="none" stroke="#6b7280" stroke-width="0.12" opacity="0.8"/><path d="M -12.120 -1.270 A 0.300 0.300 0 0 1 -12.720 -1.270" fill="none" stroke="#6b7280" stroke-width="0.12" opacity="0.8"/><path d="M -10.740 1.270 A 0.300 0.300 0 0 1 -11.340 1.270" fill="none" stroke="#6b7280" stroke-width="0.12" opacity="0.8"/><path d="M -9.360 -1.270 A 0.300 0.300 0 1 1 -9.960 -1.270" fill="none" stroke="#6b7280" stroke-width="0.12" opacity="0.8"/><path d="M -7.980 1.270 A 0.300 0.300 0 1 1 -8.580 1.270" fill="none" stroke="#6b7280" stroke-width="0.12" opacity="0.8"/><path d="M -6.600 -1.270 A 0.300 0.300 0 0 1 -7.200 -1.270" fill="none" stroke="#6b7280" stroke-width="0.12" opacity="0.8"/><path d="M -5.220 1.270 A 0.300 0.300 0 0 1 -5.820 1.270" fill="none" stroke="#6b7280" stroke-width="0.12" opacity="0.8"/><path d="M -3.840 -1.270 A 0.300 0.300 0 0 1 -4.440 -1.270" fill="none" stroke="#6b7280" stroke-width="0.12" opacity="0.8"/><path d="M -2.460 1.270 A 0.300 0.300 0 1 1 -3.060 1.270" fill="none" stroke="#6b7280" stroke-width="0.12" opacity="0.8"/><path d="M -1.080 -1.270 A 0.300 0.300 0 0 1 -1.680 -1.270" fill="none" stroke="#6b7280" stroke-width="0.12" opacity="0.8"/><path d="M 0.300 1.270 A 0.300 0.300 0 0 1 -0.300 1.270" fill="none" stroke="#6b7280" stroke-width="0.12" opacity="0.8"/><path d="M 1.680 -1.270 A 0.300 0.300 0 0 1 1.080 -1.270" fill="none" stroke="#6b7280" stroke-width="0.12" opacity="0.8"/><path d="M 3.060 1.270 A 0.300 0.300 0 1 1 2.460 1.270" fill="none" stroke="#6b7280" stroke-width="0.12" opacity="0.8"/><path d="M 4.440 -1.270 A 0.300 0.300 0 0 1 3.840 -1.270" fill="none" stroke="#6b7280" stroke-width="0.12" opacity="0.8"/><path d="M 5.820 1.270 A 0.300 0.300 0 0 1 5.220 1.270" fill="none" stroke="#6b7280" stroke-width="0.12" opacity="0.8"/><path d="M 7.200 -1.270 A 0.300 0.300 0 0 1 6.600 -1.270" fill="none" stroke="#6b7280" stroke-width="0.12" opacity="0.8"/><path d="M 8.580 1.270 A 0.300 0.300 0 1 1 7.980 1.270" fill="none" stroke="#6b7280" stroke-width="0.12" opacity="0.8"/><path d="M 9.960 -1.270 A 0.300 0.300 0 1 1 9.360 -1.270" fill="none" stroke="#6b7280" stroke-width="0.12" opacity="0.8"/><path d="M 11.340 1.270 A 0.300 0.300 0 0 1 10.740 1.270" fill="none" stroke="#6b7280" stroke-width="0.12" opacity="0.8"/><path d="M 12.720 -1.270 A 0.300 0.300 0 0 1 12.120 -1.270" fill="none" stroke="#6b7280" stroke-width="0.12" opacity="0.8"/><path d="M 14.100 1.270 A 0.300 0.300 0 1 1 13.500 1.270" fill="none" stroke="#6b7280" stroke-width="0.12" opacity="0.8"/><path d="M 15.480 -1.270 A 0.300 0.300 0 1 1 14.880 -1.270" fill="none" stroke="#6b7280" stroke-width="0.12" opacity="0.8"/><path d="M 16.860 1.270 A 0.300 0.300 0 0 1 16.260 1.270" fill="none" stroke="#6b7280" stroke-width="0.12" opacity="0.8"/><path d="M 18.240 -1.270 A 0.300 0.300 0 0 1 17.640 -1.270" fill="none" stroke="#6b7280" stroke-width="0.12" opacity="0.8"/><path d="M 19.620 1.270 A 0.300 0.300 0 0 1 19.020 1.270" fill="none" stroke="#6b7280" stroke-width="0.12" opacity="0.8"/><path d="M 21.000 -1.270 A 0.300 0.300 0 0 1 20.400 -1.270" fill="none" stroke="#6b7280" stroke-width="0.12" opacity="0.8"/><path d="M 22.380 1.270 A 0.300 0.300 0 1 1 21.780 1.270" fill="none" stroke="#6b7280" stroke-width="0.12" opacity="0.8"/><path d="M 23.760 -1.270 A 0.300 0.300 0 1 1 23.160 -1.270" fill="none" stroke="#6b7280" stroke-width="0.12" opacity="0.8"/><path d="M 25.140 1.270 A 0.300 0.300 0 0 1 24.540 1.270" fill="none" stroke="#6b7280" stroke-width="0.12" opacity="0.8"/><path d="M 27.650 -17.670 A 0.500 0.500 0 0 1 28.150 -17.170" fill="none" stroke="#6b7280" stroke-width="0.12" opacity="0.8"/><circle cx="24.845" cy="4.355" r="0.250" fill="none" stroke="#e6e9ef" stroke-width="0.12" opacity="1"/><circle cx="-31.750" cy="0.000" r="1.600" fill="none" stroke="#6b7280" stroke-width="0.12" opacity="0.8"/><circle cx="31.750" cy="0.000" r="1.600" fill="none" stroke="#6b7280" stroke-width="0.12" opacity="0.8"/><rect x="23.990" y="0.420" width="1.700" height="1.700" rx="0.850" fill="#c79b5c"/><circle cx="24.840" cy="1.270" r="0.500" fill="#12151c"/><rect x="21.230" y="0.420" width="1.700" height="1.700" rx="0.850" fill="#c79b5c"/><circle cx="22.080" cy="1.270" r="0.500" fill="#12151c"/><rect x="18.470" y="0.420" width="1.700" height="1.700" rx="0.850" fill="#c79b5c"/><circle cx="19.320" cy="1.270" r="0.500" fill="#12151c"/><rect x="15.710" y="0.420" width="1.700" height="1.700" rx="0.850" fill="#c79b5c"/><circle cx="16.560" cy="1.270" r="0.500" fill="#12151c"/><rect x="12.950" y="0.420" width="1.700" height="1.700" rx="0.850" fill="#c79b5c"/><circle cx="13.800" cy="1.270" r="0.500" fill="#12151c"/><rect x="10.190" y="0.420" width="1.700" height="1.700" rx="0.850" fill="#c79b5c"/><circle cx="11.040" cy="1.270" r="0.500" fill="#12151c"/><rect x="7.430" y="0.420" width="1.700" height="1.700" rx="0.850" fill="#c79b5c"/><circle cx="8.280" cy="1.270" r="0.500" fill="#12151c"/><rect x="4.670" y="0.420" width="1.700" height="1.700" rx="0.850" fill="#c79b5c"/><circle cx="5.520" cy="1.270" r="0.500" fill="#12151c"/><rect x="1.910" y="0.420" width="1.700" height="1.700" rx="0.850" fill="#c79b5c"/><circle cx="2.760" cy="1.270" r="0.500" fill="#12151c"/><rect x="-0.850" y="0.420" width="1.700" height="1.700" rx="0.850" fill="#c79b5c"/><circle cx="0.000" cy="1.270" r="0.500" fill="#12151c"/><rect x="-3.610" y="0.420" width="1.700" height="1.700" rx="0.850" fill="#c79b5c"/><circle cx="-2.760" cy="1.270" r="0.500" fill="#12151c"/><rect x="-6.370" y="0.420" width="1.700" height="1.700" rx="0.850" fill="#c79b5c"/><circle cx="-5.520" cy="1.270" r="0.500" fill="#12151c"/><rect x="-9.130" y="0.420" width="1.700" height="1.700" rx="0.850" fill="#c79b5c"/><circle cx="-8.280" cy="1.270" r="0.500" fill="#12151c"/><rect x="-11.890" y="0.420" width="1.700" height="1.700" rx="0.850" fill="#c79b5c"/><circle cx="-11.040" cy="1.270" r="0.500" fill="#12151c"/><rect x="-14.650" y="0.420" width="1.700" height="1.700" rx="0.850" fill="#c79b5c"/><circle cx="-13.800" cy="1.270" r="0.500" fill="#12151c"/><rect x="-17.410" y="0.420" width="1.700" height="1.700" rx="0.850" fill="#c79b5c"/><circle cx="-16.560" cy="1.270" r="0.500" fill="#12151c"/><rect x="-20.170" y="0.420" width="1.700" height="1.700" rx="0.850" fill="#c79b5c"/><circle cx="-19.320" cy="1.270" r="0.500" fill="#12151c"/><rect x="-22.930" y="0.420" width="1.700" height="1.700" rx="0.850" fill="#c79b5c"/><circle cx="-22.080" cy="1.270" r="0.500" fill="#12151c"/><rect x="-25.690" y="0.420" width="1.700" height="1.700" rx="0.850" fill="#c79b5c"/><circle cx="-24.840" cy="1.270" r="0.500" fill="#12151c"/><rect x="22.610" y="-2.120" width="1.700" height="1.700" rx="0.850" fill="#c79b5c"/><circle cx="23.460" cy="-1.270" r="0.500" fill="#12151c"/><rect x="19.850" y="-2.120" width="1.700" height="1.700" rx="0.850" fill="#c79b5c"/><circle cx="20.700" cy="-1.270" r="0.500" fill="#12151c"/><rect x="17.090" y="-2.120" width="1.700" height="1.700" rx="0.850" fill="#c79b5c"/><circle cx="17.940" cy="-1.270" r="0.500" fill="#12151c"/><rect x="14.330" y="-2.120" width="1.700" height="1.700" rx="0.850" fill="#c79b5c"/><circle cx="15.180" cy="-1.270" r="0.500" fill="#12151c"/><rect x="11.570" y="-2.120" width="1.700" height="1.700" rx="0.850" fill="#c79b5c"/><circle cx="12.420" cy="-1.270" r="0.500" fill="#12151c"/><rect x="8.810" y="-2.120" width="1.700" height="1.700" rx="0.850" fill="#c79b5c"/><circle cx="9.660" cy="-1.270" r="0.500" fill="#12151c"/><rect x="6.050" y="-2.120" width="1.700" height="1.700" rx="0.850" fill="#c79b5c"/><circle cx="6.900" cy="-1.270" r="0.500" fill="#12151c"/><rect x="3.290" y="-2.120" width="1.700" height="1.700" rx="0.850" fill="#c79b5c"/><circle cx="4.140" cy="-1.270" r="0.500" fill="#12151c"/><rect x="0.530" y="-2.120" width="1.700" height="1.700" rx="0.850" fill="#c79b5c"/><circle cx="1.380" cy="-1.270" r="0.500" fill="#12151c"/><rect x="-2.230" y="-2.120" width="1.700" height="1.700" rx="0.850" fill="#c79b5c"/><circle cx="-1.380" cy="-1.270" r="0.500" fill="#12151c"/><rect x="-4.990" y="-2.120" width="1.700" height="1.700" rx="0.850" fill="#c79b5c"/><circle cx="-4.140" cy="-1.270" r="0.500" fill="#12151c"/><rect x="-7.750" y="-2.120" width="1.700" height="1.700" rx="0.850" fill="#c79b5c"/><circle cx="-6.900" cy="-1.270" r="0.500" fill="#12151c"/><rect x="-10.510" y="-2.120" width="1.700" height="1.700" rx="0.850" fill="#c79b5c"/><circle cx="-9.660" cy="-1.270" r="0.500" fill="#12151c"/><rect x="-13.270" y="-2.120" width="1.700" height="1.700" rx="0.850" fill="#c79b5c"/><circle cx="-12.420" cy="-1.270" r="0.500" fill="#12151c"/><rect x="-16.030" y="-2.120" width="1.700" height="1.700" rx="0.850" fill="#c79b5c"/><circle cx="-15.180" cy="-1.270" r="0.500" fill="#12151c"/><rect x="-18.790" y="-2.120" width="1.700" height="1.700" rx="0.850" fill="#c79b5c"/><circle cx="-17.940" cy="-1.270" r="0.500" fill="#12151c"/><rect x="-21.550" y="-2.120" width="1.700" height="1.700" rx="0.850" fill="#c79b5c"/><circle cx="-20.700" cy="-1.270" r="0.500" fill="#12151c"/><rect x="-24.310" y="-2.120" width="1.700" height="1.700" rx="0.850" fill="#c79b5c"/><circle cx="-23.460" cy="-1.270" r="0.500" fill="#12151c"/><rect x="-34.500" y="-2.750" width="5.500" height="5.500" rx="2.750" fill="#c79b5c"/><circle cx="-31.750" cy="0.000" r="1.600" fill="#12151c"/><rect x="29.000" y="-2.750" width="5.500" height="5.500" rx="2.750" fill="#c79b5c"/><circle cx="31.750" cy="0.000" r="1.600" fill="#12151c"/></svg>