<svg xmlns="http://www.w3.org/2000/svg" viewBox="-10.00 -4.25 20.00 8.50" preserveAspectRatio="xMidYMid meet" style="width:100%;height:100%"><rect x="-10.00" y="-4.25" width="20.00" height="8.50" fill="#12151c"/><line x1="-8.890" y1="-3.250" x2="8.400" y2="-3.250" stroke="#d24d4d" stroke-width="0.080" stroke-linecap="round" opacity="0.7"/><line x1="8.400" y1="-3.250" x2="8.400" y2="3.250" stroke="#d24d4d" stroke-width="0.080" stroke-linecap="round" opacity="0.7"/><line x1="8.400" y1="3.250" x2="-8.890" y2="3.250" stroke="#d24d4d" stroke-width="0.080" stroke-linecap="round" opacity="0.7"/><line x1="-8.890" y1="3.250" x2="-8.890" y2="-3.250" stroke="#d24d4d" stroke-width="0.080" stroke-linecap="round" opacity="0.7"/><path d="M -8.636 -0.944 A 2.800 2.800 0 0 1 -8.136 -1.811" fill="none" stroke="#e6e9ef" stroke-width="0.12" opacity="1"/><path d="M -7.960 -1.709 A 2.600 2.600 0 0 1 -6.000 -2.600" fill="none" stroke="#e6e9ef" stroke-width="0.12" opacity="1"/><path d="M -6.000 2.600 A 2.600 2.600 0 0 1 -8.460 -0.843" fill="none" stroke="#e6e9ef" stroke-width="0.12" opacity="1"/><path d="M -6.000 3.000 A 3.000 3.000 0 0 1 -6.000 -3.000" fill="none" stroke="#e6e9ef" stroke-width="0.12" opacity="1"/><path d="M 6.000 -3.000 A 3.000 3.000 0 0 1 6.000 3.000" fill="none" stroke="#e6e9ef" stroke-width="0.12" opacity="1"/><path d="M 6.000 -2.600 A 2.600 2.600 0 0 1 7.257 -2.276" fill="none" stroke="#e6e9ef" stroke-width="0.12" opacity="1"/><path d="M 7.257 2.276 A 2.600 2.600 0 0 1 6.000 2.600" fill="none" stroke="#e6e9ef" stroke-width="0.12" opacity="1"/><path d="M 7.388 -2.432 A 2.800 2.800 0 0 1 8.154 -1.789" fill="none" stroke="#e6e9ef" stroke-width="0.12" opacity="1"/><path d="M 8.023 -1.633 A 2.600 2.600 0 0 1 8.023 1.633" fill="none" stroke="#e6e9ef" stroke-width="0.12" opacity="1"/><path d="M 8.154 1.789 A 2.800 2.800 0 0 1 7.388 2.432" fill="none" stroke="#e6e9ef" stroke-width="0.12" opacity="1"/><path d="M -8.636 -0.944 A 2.800 2.800 0 0 1 -8.136 -1.811" fill="none" stroke="#6b7280" stroke-width="0.12" opacity="0.8"/><path d="M -7.960 -1.709 A 2.600 2.600 0 0 1 -6.000 -2.600" fill="none" stroke="#6b7280" stroke-width="0.12" opacity="0.8"/><path d="M -6.000 2.600 A 2.600 2.600 0 0 1 -8.460 -0.843" fill="none" stroke="#6b7280" stroke-width="0.12" opacity="0.8"/><path d="M -6.000 3.000 A 3.000 3.000 0 0 1 -6.000 -3.000" fill="none" stroke="#6b7280" stroke-width="0.12" opacity="0.8"/><path d="M -5.500 -2.000 A 2.000 2.000 0 0 1 -5.500 2.000" fill="none" stroke="#6b7280" stroke-width="0.12" opacity="0.8"/><path d="M 5.500 2.000 A 2.000 2.000 0 0 1 5.500 -2.000" fill="none" stroke="#6b7280" stroke-width="0.12" opacity="0.8"/><path d="M 6.000 -3.000 A 3.000 3.000 0 0 1 6.000 3.000" fill="none" stroke="#6b7280" stroke-width="0.12" opacity="0.8"/><path d="M 6.000 -2.600 A 2.600 2.600 0 0 1 7.257 -2.276" fill="none" stroke="#6b7280" stroke-width="0.12" opacity="0.8"/><path d="M 7.257 2.276 A 2.600 2.600 0 0 1 6.000 2.600" fill="none" stroke="#6b7280" stroke-width="0.12" opacity="0.8"/><path d="M 7.388 -2.432 A 2.800 2.800 0 0 1 8.154 -1.789" fill="none" stroke="#6b7280" stroke-width="0.12" opacity="0.8"/><path d="M 8.023 -1.633 A 2.600 2.600 0 0 1 8.023 1.633" fill="none" stroke="#6b7280" stroke-width="0.12" opacity="0.8"/><path d="M 8.154 1.789 A 2.800 2.800 0 0 1 7.388 2.432" fill="none" stroke="#6b7280" stroke-width="0.12" opacity="0.8"/><circle cx="-5.500" cy="0.000" r="1.800" fill="none" stroke="#6b7280" stroke-width="0.12" opacity="0.8"/><circle cx="-3.000" cy="0.000" r="0.350" fill="none" stroke="#6b7280" stroke-width="0.12" opacity="0.8"/><circle cx="-3.000" cy="0.000" r="0.200" fill="none" stroke="#6b7280" stroke-width="0.12" opacity="0.8"/><circle cx="-2.250" cy="-1.000" r="0.350" fill="none" stroke="#6b7280" stroke-width="0.12" opacity="0.8"/><circle cx="-2.250" cy="-1.000" r="0.200" fill="none" stroke="#6b7280" stroke-width="0.12" opacity="0.8"/><circle cx="-2.250" cy="1.000" r="0.350" fill="none" stroke="#6b7280" stroke-width="0.12" opacity="0.8"/><circle cx="-2.250" cy="1.000" r="0.200" fill="none" stroke="#6b7280" stroke-width="0.12" opacity="0.8"/><circle cx="-1.500" cy="0.000" r="0.350" fill="none" stroke="#6b7280" stroke-width="0.12" opacity="0.8"/><circle cx="-1.500" cy="0.000" r="0.200" fill="none" stroke="#6b7280" stroke-width="0.12" opacity="0.8"/><circle cx="-0.750" cy="-1.000" r="0.350" fill="none" stroke="#6b7280" stroke-width="0.12" opacity="0.8"/><circle cx="-0.750" cy="-1.000" r="0.200" fill="none" stroke="#6b7280" stroke-width="0.12" opacity="0.8"/><circle cx="-0.750" cy="1.000" r="0.350" fill="none" stroke="#6b7280" stroke-width="0.12" opacity="0.8"/><circle cx="-0.750" cy="1.000" r="0.200" fill="none" stroke="#6b7280" stroke-width="0.12" opacity="0.8"/><circle cx="0.000" cy="0.000" r="0.350" fill="none" stroke="#6b7280" stroke-width="0.12" opacity="0.8"/><circle cx="0.000" cy="0.000" r="0.200" fill="none" stroke="#6b7280" stroke-width="0.12" opacity="0.8"/><circle cx="0.750" cy="-1.000" r="0.350" fill="none" stroke="#6b7280" stroke-width="0.12" opacity="0.8"/><circle cx="0.750" cy="-1.000" r="0.200" fill="none" stroke="#6b7280" stroke-width="0.12" opacity="0.8"/><circle cx="0.750" cy="1.000" r="0.350" fill="none" stroke="#6b7280" stroke-width="0.12" opacity="0.8"/><circle cx="0.750" cy="1.000" r="0.200" fill="none" stroke="#6b7280" stroke-width="0.12" opacity="0.8"/><circle cx="1.500" cy="0.000" r="0.350" fill="none" stroke="#6b7280" stroke-width="0.12" opacity="0.8"/><circle cx="1.500" cy="0.000" r="0.200" fill="none" stroke="#6b7280" stroke-width="0.12" opacity="0.8"/><circle cx="2.250" cy="-1.000" r="0.350" fill="none" stroke="#6b7280" stroke-width="0.12" opacity="0.8"/><circle cx="2.250" cy="-1.000" r="0.200" fill="none" stroke="#6b7280" stroke-width="0.12" opacity="0.8"/><circle cx="2.250" cy="1.000" r="0.350" fill="none" stroke="#6b7280" stroke-width="0.12" opacity="0.8"/><circle cx="2.250" cy="1.000" r="0.200" fill="none" stroke="#6b7280" stroke-width="0.12" opacity="0.8"/><circle cx="3.000" cy="0.000" r="0.350" fill="none" stroke="#6b7280" stroke-width="0.12" opacity="0.8"/><circle cx="3.000" cy="0.000" r="0.200" fill="none" stroke="#6b7280" stroke-width="0.12" opacity="0.8"/><circle cx="5.500" cy="0.000" r="1.800" fill="none" stroke="#6b7280" stroke-width="0.12" opacity="0.8"/><rect x="1.800" y="-1.550" width="0.900" height="1.100" rx="0.450" fill="#c79b5c"/><circle cx="2.250" cy="-1.000" r="0.350" fill="#12151c"/><rect x="0.300" y="-1.550" width="0.900" height="1.100" rx="0.450" fill="#c79b5c"/><circle cx="0.750" cy="-1.000" r="0.350" fill="#12151c"/><rect x="-1.200" y="-1.550" width="0.900" height="1.100" rx="0.450" fill="#c79b5c"/><circle cx="-0.750" cy="-1.000" r="0.350" fill="#12151c"/><rect x="-2.700" y="-1.550" width="0.900" height="1.100" rx="0.450" fill="#c79b5c"/><circle cx="-2.250" cy="-1.000" r="0.350" fill="#12151c"/><rect x="2.550" y="-0.550" width="0.900" height="1.100" rx="0.450" fill="#c79b5c"/><circle cx="3.000" cy="0.000" r="0.350" fill="#12151c"/><rect x="1.050" y="-0.550" width="0.900" height="1.100" rx="0.450" fill="#c79b5c"/><circle cx="1.500" cy="0.000" r="0.350" fill="#12151c"/><rect x="-0.450" y="-0.550" width="0.900" height="1.100" rx="0.450" fill="#c79b5c"/><circle cx="0.000" cy="0.000" r="0.350" fill="#12151c"/><rect x="-1.950" y="-0.550" width="0.900" height="1.100" rx="0.450" fill="#c79b5c"/><circle cx="-1.500" cy="0.000" r="0.350" fill="#12151c"/><rect x="-3.450" y="-0.550" width="0.900" height="1.100" rx="0.450" fill="#c79b5c"/><circle cx="-3.000" cy="0.000" r="0.350" fill="#12151c"/><rect x="1.800" y="0.450" width="0.900" height="1.100" rx="0.450" fill="#c79b5c"/><circle cx="2.250" cy="1.000" r="0.350" fill="#12151c"/><rect x="0.300" y="0.450" width="0.900" height="1.100" rx="0.450" fill="#c79b5c"/><circle cx="0.750" cy="1.000" r="0.350" fill="#12151c"/><rect x="-1.200" y="0.450" width="0.900" height="1.100" rx="0.450" fill="#c79b5c"/><circle cx="-0.750" cy="1.000" r="0.350" fill="#12151c"/><rect x="-2.700" y="0.450" width="0.900" height="1.100" rx="0.450" fill="#c79b5c"/><circle cx="-2.250" cy="1.000" r="0.350" fill="#12151c"/><rect x="3.700" y="-1.800" width="3.600" height="3.600" rx="1.800" fill="#c79b5c"/><circle cx="5.500" cy="0.000" r="0.850" fill="#12151c"/><rect x="-7.300" y="-1.800" width="3.600" height="3.600" rx="1.800" fill="#c79b5c"/><circle cx="-5.500" cy="0.000" r="0.850" fill="#12151c"/></svg>