<svg xmlns="http://www.w3.org/2000/svg" viewBox="-20.68 -13.96 41.37 27.91" preserveAspectRatio="xMidYMid meet" style="width:100%;height:100%"><rect x="-20.68" y="-13.96" width="41.37" height="27.91" fill="#12151c"/><line x1="-17.627" y1="-3.839" x2="-7.171" y2="-10.789" stroke="#e6e9ef" stroke-width="0.200" stroke-linecap="round" opacity="1"/><line x1="-17.627" y1="3.839" x2="-7.171" y2="10.789" stroke="#e6e9ef" stroke-width="0.200" stroke-linecap="round" opacity="1"/><line x1="7.171" y1="-10.789" x2="17.627" y2="-3.839" stroke="#e6e9ef" stroke-width="0.200" stroke-linecap="round" opacity="1"/><line x1="7.171" y1="10.789" x2="17.627" y2="3.839" stroke="#e6e9ef" stroke-width="0.200" stroke-linecap="round" opacity="1"/><line x1="-15.575" y1="0.000" x2="-15.075" y2="0.000" stroke="#4a5160" stroke-width="0.100" stroke-linecap="round" opacity="0.7"/><line x1="-15.075" y1="0.000" x2="-15.075" y2="-0.500" stroke="#4a5160" stroke-width="0.100" stroke-linecap="round" opacity="0.7"/><line x1="-15.075" y1="0.000" x2="-14.575" y2="0.000" stroke="#4a5160" stroke-width="0.100" stroke-linecap="round" opacity="0.7"/><line x1="-15.075" y1="0.500" x2="-15.075" y2="0.000" stroke="#4a5160" stroke-width="0.100" stroke-linecap="round" opacity="0.7"/><line x1="-5.247" y1="-4.403" x2="-4.864" y2="-4.082" stroke="#4a5160" stroke-width="0.100" stroke-linecap="round" opacity="0.7"/><line x1="-5.247" y1="4.403" x2="-4.864" y2="4.082" stroke="#4a5160" stroke-width="0.100" stroke-linecap="round" opacity="0.7"/><line x1="-5.186" y1="-3.699" x2="-4.864" y2="-4.082" stroke="#4a5160" stroke-width="0.100" stroke-linecap="round" opacity="0.7"/><line x1="-5.186" y1="3.699" x2="-4.864" y2="4.082" stroke="#4a5160" stroke-width="0.100" stroke-linecap="round" opacity="0.7"/><line x1="-4.864" y1="-4.082" x2="-4.543" y2="-4.465" stroke="#4a5160" stroke-width="0.100" stroke-linecap="round" opacity="0.7"/><line x1="-4.864" y1="-4.082" x2="-4.481" y2="-3.760" stroke="#4a5160" stroke-width="0.100" stroke-linecap="round" opacity="0.7"/><line x1="-4.864" y1="4.082" x2="-4.543" y2="4.465" stroke="#4a5160" stroke-width="0.100" stroke-linecap="round" opacity="0.7"/><line x1="-4.864" y1="4.082" x2="-4.481" y2="3.760" stroke="#4a5160" stroke-width="0.100" stroke-linecap="round" opacity="0.7"/><line x1="-1.595" y1="-6.167" x2="-1.103" y2="-6.254" stroke="#4a5160" stroke-width="0.100" stroke-linecap="round" opacity="0.7"/><line x1="-1.595" y1="6.167" x2="-1.103" y2="6.254" stroke="#4a5160" stroke-width="0.100" stroke-linecap="round" opacity="0.7"/><line x1="-1.189" y1="-6.746" x2="-1.103" y2="-6.254" stroke="#4a5160" stroke-width="0.100" stroke-linecap="round" opacity="0.7"/><line x1="-1.189" y1="6.746" x2="-1.103" y2="6.254" stroke="#4a5160" stroke-width="0.100" stroke-linecap="round" opacity="0.7"/><line x1="-1.103" y1="-6.254" x2="-1.016" y2="-5.761" stroke="#4a5160" stroke-width="0.100" stroke-linecap="round" opacity="0.7"/><line x1="-1.103" y1="-6.254" x2="-0.610" y2="-6.340" stroke="#4a5160" stroke-width="0.100" stroke-linecap="round" opacity="0.7"/><line x1="-1.103" y1="6.254" x2="-1.016" y2="5.761" stroke="#4a5160" stroke-width="0.100" stroke-linecap="round" opacity="0.7"/><line x1="-1.103" y1="6.254" x2="-0.610" y2="6.340" stroke="#4a5160" stroke-width="0.100" stroke-linecap="round" opacity="0.7"/><line x1="-0.500" y1="0.000" x2="0.000" y2="0.000" stroke="#4a5160" stroke-width="0.100" stroke-linecap="round" opacity="0.7"/><line x1="0.000" y1="0.000" x2="0.000" y2="-0.500" stroke="#4a5160" stroke-width="0.100" stroke-linecap="round" opacity="0.7"/><line x1="0.000" y1="0.000" x2="0.500" y2="0.000" stroke="#4a5160" stroke-width="0.100" stroke-linecap="round" opacity="0.7"/><line x1="0.000" y1="0.500" x2="0.000" y2="0.000" stroke="#4a5160" stroke-width="0.100" stroke-linecap="round" opacity="0.7"/><line x1="2.742" y1="-5.749" x2="3.175" y2="-5.499" stroke="#4a5160" stroke-width="0.100" stroke-linecap="round" opacity="0.7"/><line x1="2.742" y1="5.749" x2="3.175" y2="5.499" stroke="#4a5160" stroke-width="0.100" stroke-linecap="round" opacity="0.7"/><line x1="2.925" y1="-5.066" x2="3.175" y2="-5.499" stroke="#4a5160" stroke-width="0.100" stroke-linecap="round" opacity="0.7"/><line x1="2.925" y1="5.066" x2="3.175" y2="5.499" stroke="#4a5160" stroke-width="0.100" stroke-linecap="round" opacity="0.7"/><line x1="3.175" y1="-5.499" x2="3.425" y2="-5.932" stroke="#4a5160" stroke-width="0.100" stroke-linecap="round" opacity="0.7"/><line x1="3.175" y1="-5.499" x2="3.608" y2="-5.249" stroke="#4a5160" stroke-width="0.100" stroke-linecap="round" opacity="0.7"/><line x1="3.175" y1="5.499" x2="3.425" y2="5.932" stroke="#4a5160" stroke-width="0.100" stroke-linecap="round" opacity="0.7"/><line x1="3.175" y1="5.499" x2="3.608" y2="5.249" stroke="#4a5160" stroke-width="0.100" stroke-linecap="round" opacity="0.7"/><line x1="5.497" y1="-2.001" x2="5.967" y2="-2.172" stroke="#4a5160" stroke-width="0.100" stroke-linecap="round" opacity="0.7"/><line x1="5.497" y1="2.001" x2="5.967" y2="2.172" stroke="#4a5160" stroke-width="0.100" stroke-linecap="round" opacity="0.7"/><line x1="5.796" y1="-2.642" x2="5.967" y2="-2.172" stroke="#4a5160" stroke-width="0.100" stroke-linecap="round" opacity="0.7"/><line x1="5.796" y1="2.642" x2="5.967" y2="2.172" stroke="#4a5160" stroke-width="0.100" stroke-linecap="round" opacity="0.7"/><line x1="5.967" y1="-2.172" x2="6.138" y2="-1.702" stroke="#4a5160" stroke-width="0.100" stroke-linecap="round" opacity="0.7"/><line x1="5.967" y1="-2.172" x2="6.437" y2="-2.343" stroke="#4a5160" stroke-width="0.100" stroke-linecap="round" opacity="0.7"/><line x1="5.967" y1="2.172" x2="6.138" y2="1.702" stroke="#4a5160" stroke-width="0.100" stroke-linecap="round" opacity="0.7"/><line x1="5.967" y1="2.172" x2="6.437" y2="2.343" stroke="#4a5160" stroke-width="0.100" stroke-linecap="round" opacity="0.7"/><line x1="14.575" y1="0.000" x2="15.075" y2="0.000" stroke="#4a5160" stroke-width="0.100" stroke-linecap="round" opacity="0.7"/><line x1="15.075" y1="0.000" x2="15.075" y2="-0.500" stroke="#4a5160" stroke-width="0.100" stroke-linecap="round" opacity="0.7"/><line x1="15.075" y1="0.000" x2="15.575" y2="0.000" stroke="#4a5160" stroke-width="0.100" stroke-linecap="round" opacity="0.7"/><line x1="15.075" y1="0.500" x2="15.075" y2="0.000" stroke="#4a5160" stroke-width="0.100" stroke-linecap="round" opacity="0.7"/><line x1="-17.627" y1="-3.839" x2="-7.171" y2="-10.789" stroke="#6b7280" stroke-width="0.100" stroke-linecap="round" opacity="0.8"/><line x1="-17.627" y1="3.839" x2="-7.171" y2="10.789" stroke="#6b7280" stroke-width="0.100" stroke-linecap="round" opacity="0.8"/><line x1="7.171" y1="-10.789" x2="17.627" y2="-3.839" stroke="#6b7280" stroke-width="0.100" stroke-linecap="round" opacity="0.8"/><line x1="7.171" y1="10.789" x2="17.627" y2="3.839" stroke="#6b7280" stroke-width="0.100" stroke-linecap="round" opacity="0.8"/><line x1="-19.420" y1="-11.040" x2="19.430" y2="-11.040" stroke="#d24d4d" stroke-width="0.080" stroke-linecap="round" opacity="0.7"/><line x1="19.430" y1="-11.040" x2="19.430" y2="11.040" stroke="#d24d4d" stroke-width="0.080" stroke-linecap="round" opacity="0.7"/><line x1="19.430" y1="11.040" x2="-19.420" y2="11.040" stroke="#d24d4d" stroke-width="0.080" stroke-linecap="round" opacity="0.7"/><line x1="-19.420" y1="11.040" x2="-19.420" y2="-11.040" stroke="#d24d4d" stroke-width="0.080" stroke-linecap="round" opacity="0.7"/><path d="M -17.627 3.839 A 4.610 4.610 0 0 1 -17.627 -3.839" fill="none" stroke="#e6e9ef" stroke-width="0.12" opacity="1"/><path d="M -7.171 -10.789 A 12.955 12.955 0 0 1 7.171 -10.789" fill="none" stroke="#e6e9ef" stroke-width="0.12" opacity="1"/><path d="M 7.171 10.789 A 12.955 12.955 0 0 1 -7.171 10.789" fill="none" stroke="#e6e9ef" stroke-width="0.12" opacity="1"/><path d="M 17.627 -3.839 A 4.610 4.610 0 0 1 17.627 3.839" fill="none" stroke="#e6e9ef" stroke-width="0.12" opacity="1"/><path d="M -17.627 3.839 A 4.610 4.610 0 0 1 -17.627 -3.839" fill="none" stroke="#6b7280" stroke-width="0.12" opacity="0.8"/><path d="M -7.171 -10.789 A 12.955 12.955 0 0 1 7.171 -10.789" fill="none" stroke="#6b7280" stroke-width="0.12" opacity="0.8"/><path d="M 7.171 10.789 A 12.955 12.955 0 0 1 -7.171 10.789" fill="none" stroke="#6b7280" stroke-width="0.12" opacity="0.8"/><path d="M 17.627 -3.839 A 4.610 4.610 0 0 1 17.627 3.839" fill="none" stroke="#6b7280" stroke-width="0.12" opacity="0.8"/><circle cx="0.000" cy="0.000" r="9.780" fill="none" stroke="#e6e9ef" stroke-width="0.12" opacity="1"/><circle cx="-15.075" cy="0.000" r="1.950" fill="none" stroke="#6b7280" stroke-width="0.12" opacity="0.8"/><circle cx="0.000" cy="0.000" r="9.780" fill="none" stroke="#6b7280" stroke-width="0.12" opacity="0.8"/><circle cx="15.075" cy="0.000" r="1.950" fill="none" stroke="#6b7280" stroke-width="0.12" opacity="0.8"/><rect x="-5.864" y="3.082" width="2.000" height="2.000" rx="1.000" fill="#c79b5c"/><circle cx="-4.864" cy="4.082" r="0.650" fill="#12151c"/><rect x="-2.103" y="5.254" width="2.000" height="2.000" rx="1.000" fill="#c79b5c"/><circle cx="-1.103" cy="6.254" r="0.650" fill="#12151c"/><rect x="2.175" y="4.499" width="2.000" height="2.000" rx="1.000" fill="#c79b5c"/><circle cx="3.175" cy="5.499" r="0.650" fill="#12151c"/><rect x="4.967" y="1.172" width="2.000" height="2.000" rx="1.000" fill="#c79b5c"/><circle cx="5.967" cy="2.172" r="0.650" fill="#12151c"/><rect x="4.967" y="-3.172" width="2.000" height="2.000" rx="1.000" fill="#c79b5c"/><circle cx="5.967" cy="-2.172" r="0.650" fill="#12151c"/><rect x="2.175" y="-6.499" width="2.000" height="2.000" rx="1.000" fill="#c79b5c"/><circle cx="3.175" cy="-5.499" r="0.650" fill="#12151c"/><rect x="-2.103" y="-7.254" width="2.000" height="2.000" rx="1.000" fill="#c79b5c"/><circle cx="-1.103" cy="-6.254" r="0.650" fill="#12151c"/><rect x="-5.864" y="-5.082" width="2.000" height="2.000" rx="1.000" fill="#c79b5c"/><circle cx="-4.864" cy="-4.082" r="0.650" fill="#12151c"/><rect x="-19.175" y="-4.100" width="8.200" height="8.200" rx="4.100" fill="#c79b5c"/><circle cx="-15.075" cy="0.000" r="2.100" fill="#12151c"/><rect x="10.975" y="-4.100" width="8.200" height="8.200" rx="4.100" fill="#c79b5c"/><circle cx="15.075" cy="0.000" r="2.100" fill="#12151c"/></svg>