<svg xmlns="http://www.w3.org/2000/svg" viewBox="-8.87 -4.26 17.74 8.05" preserveAspectRatio="xMidYMid meet" style="width:100%;height:100%"><rect x="-8.87" y="-4.26" width="17.74" height="8.05" fill="#12151c"/><line x1="-7.620" y1="-2.540" x2="7.620" y2="-2.540" stroke="#e6e9ef" stroke-width="0.200" stroke-linecap="round" opacity="1"/><line x1="-7.620" y1="2.540" x2="-7.620" y2="-2.540" stroke="#e6e9ef" stroke-width="0.200" stroke-linecap="round" opacity="1"/><line x1="-7.620" y1="2.540" x2="7.620" y2="2.540" stroke="#e6e9ef" stroke-width="0.200" stroke-linecap="round" opacity="1"/><line x1="7.620" y1="2.540" x2="7.620" y2="-2.540" stroke="#e6e9ef" stroke-width="0.200" stroke-linecap="round" opacity="1"/><line x1="-6.850" y1="-1.270" x2="-6.350" y2="-1.270" stroke="#4a5160" stroke-width="0.100" stroke-linecap="round" opacity="0.7"/><line x1="-6.850" y1="1.270" x2="-6.350" y2="1.270" stroke="#4a5160" stroke-width="0.100" stroke-linecap="round" opacity="0.7"/><line x1="-6.350" y1="-1.270" x2="-6.350" y2="-1.770" stroke="#4a5160" stroke-width="0.100" stroke-linecap="round" opacity="0.7"/><line x1="-6.350" y1="-1.270" x2="-5.850" y2="-1.270" stroke="#4a5160" stroke-width="0.100" stroke-linecap="round" opacity="0.7"/><line x1="-6.350" y1="-0.770" x2="-6.350" y2="-1.270" stroke="#4a5160" stroke-width="0.100" stroke-linecap="round" opacity="0.7"/><line x1="-6.350" y1="1.270" x2="-6.350" y2="0.770" stroke="#4a5160" stroke-width="0.100" stroke-linecap="round" opacity="0.7"/><line x1="-6.350" y1="1.270" x2="-5.850" y2="1.270" stroke="#4a5160" stroke-width="0.100" stroke-linecap="round" opacity="0.7"/><line x1="-6.350" y1="1.770" x2="-6.350" y2="1.270" stroke="#4a5160" stroke-width="0.100" stroke-linecap="round" opacity="0.7"/><line x1="-4.310" y1="-1.270" x2="-3.810" y2="-1.270" stroke="#4a5160" stroke-width="0.100" stroke-linecap="round" opacity="0.7"/><line x1="-4.310" y1="1.270" x2="-3.810" y2="1.270" stroke="#4a5160" stroke-width="0.100" stroke-linecap="round" opacity="0.7"/><line x1="-3.810" y1="-1.270" x2="-3.810" y2="-1.770" stroke="#4a5160" stroke-width="0.100" stroke-linecap="round" opacity="0.7"/><line x1="-3.810" y1="-1.270" x2="-3.310" y2="-1.270" stroke="#4a5160" stroke-width="0.100" stroke-linecap="round" opacity="0.7"/><line x1="-3.810" y1="-0.770" x2="-3.810" y2="-1.270" stroke="#4a5160" stroke-width="0.100" stroke-linecap="round" opacity="0.7"/><line x1="-3.810" y1="1.270" x2="-3.810" y2="0.770" stroke="#4a5160" stroke-width="0.100" stroke-linecap="round" opacity="0.7"/><line x1="-3.810" y1="1.270" x2="-3.310" y2="1.270" stroke="#4a5160" stroke-width="0.100" stroke-linecap="round" opacity="0.7"/><line x1="-3.810" y1="1.770" x2="-3.810" y2="1.270" stroke="#4a5160" stroke-width="0.100" stroke-linecap="round" opacity="0.7"/><line x1="-1.770" y1="-1.270" x2="-1.270" y2="-1.270" stroke="#4a5160" stroke-width="0.100" stroke-linecap="round" opacity="0.7"/><line x1="-1.770" y1="1.270" x2="-1.270" y2="1.270" stroke="#4a5160" stroke-width="0.100" stroke-linecap="round" opacity="0.7"/><line x1="-1.270" y1="-1.270" x2="-1.270" y2="-1.770" stroke="#4a5160" stroke-width="0.100" stroke-linecap="round" opacity="0.7"/><line x1="-1.270" y1="-1.270" x2="-0.770" y2="-1.270" stroke="#4a5160" stroke-width="0.100" stroke-linecap="round" opacity="0.7"/><line x1="-1.270" y1="-0.770" x2="-1.270" y2="-1.270" stroke="#4a5160" stroke-width="0.100" stroke-linecap="round" opacity="0.7"/><line x1="-1.270" y1="1.270" x2="-1.270" y2="0.770" stroke="#4a5160" stroke-width="0.100" stroke-linecap="round" opacity="0.7"/><line x1="-1.270" y1="1.270" x2="-0.770" y2="1.270" stroke="#4a5160" stroke-width="0.100" stroke-linecap="round" opacity="0.7"/><line x1="-1.270" y1="1.770" x2="-1.270" y2="1.270" stroke="#4a5160" stroke-width="0.100" stroke-linecap="round" opacity="0.7"/><line x1="-0.500" y1="0.000" x2="0.000" y2="0.000" stroke="#4a5160" stroke-width="0.100" stroke-linecap="round" opacity="0.7"/><line x1="0.000" y1="0.000" x2="0.000" y2="-0.500" stroke="#4a5160" stroke-width="0.100" stroke-linecap="round" opacity="0.7"/><line x1="0.000" y1="0.000" x2="0.500" y2="0.000" stroke="#4a5160" stroke-width="0.100" stroke-linecap="round" opacity="0.7"/><line x1="0.000" y1="0.500" x2="0.000" y2="0.000" stroke="#4a5160" stroke-width="0.100" stroke-linecap="round" opacity="0.7"/><line x1="0.770" y1="-1.270" x2="1.270" y2="-1.270" stroke="#4a5160" stroke-width="0.100" stroke-linecap="round" opacity="0.7"/><line x1="0.770" y1="1.270" x2="1.270" y2="1.270" stroke="#4a5160" stroke-width="0.100" stroke-linecap="round" opacity="0.7"/><line x1="1.270" y1="-1.270" x2="1.270" y2="-1.770" stroke="#4a5160" stroke-width="0.100" stroke-linecap="round" opacity="0.7"/><line x1="1.270" y1="-1.270" x2="1.770" y2="-1.270" stroke="#4a5160" stroke-width="0.100" stroke-linecap="round" opacity="0.7"/><line x1="1.270" y1="-0.770" x2="1.270" y2="-1.270" stroke="#4a5160" stroke-width="0.100" stroke-linecap="round" opacity="0.7"/><line x1="1.270" y1="1.270" x2="1.270" y2="0.770" stroke="#4a5160" stroke-width="0.100" stroke-linecap="round" opacity="0.7"/><line x1="1.270" y1="1.270" x2="1.770" y2="1.270" stroke="#4a5160" stroke-width="0.100" stroke-linecap="round" opacity="0.7"/><line x1="1.270" y1="1.770" x2="1.270" y2="1.270" stroke="#4a5160" stroke-width="0.100" stroke-linecap="round" opacity="0.7"/><line x1="3.310" y1="-1.270" x2="3.810" y2="-1.270" stroke="#4a5160" stroke-width="0.100" stroke-linecap="round" opacity="0.7"/><line x1="3.310" y1="1.270" x2="3.810" y2="1.270" stroke="#4a5160" stroke-width="0.100" stroke-linecap="round" opacity="0.7"/><line x1="3.810" y1="-1.270" x2="3.810" y2="-1.770" stroke="#4a5160" stroke-width="0.100" stroke-linecap="round" opacity="0.7"/><line x1="3.810" y1="-1.270" x2="4.310" y2="-1.270" stroke="#4a5160" stroke-width="0.100" stroke-linecap="round" opacity="0.7"/><line x1="3.810" y1="-0.770" x2="3.810" y2="-1.270" stroke="#4a5160" stroke-width="0.100" stroke-linecap="round" opacity="0.7"/><line x1="3.810" y1="1.270" x2="3.810" y2="0.770" stroke="#4a5160" stroke-width="0.100" stroke-linecap="round" opacity="0.7"/><line x1="3.810" y1="1.270" x2="4.310" y2="1.270" stroke="#4a5160" stroke-width="0.100" stroke-linecap="round" opacity="0.7"/><line x1="3.810" y1="1.770" x2="3.810" y2="1.270" stroke="#4a5160" stroke-width="0.100" stroke-linecap="round" opacity="0.7"/><line x1="5.850" y1="-1.270" x2="6.350" y2="-1.270" stroke="#4a5160" stroke-width="0.100" stroke-linecap="round" opacity="0.7"/><line x1="5.850" y1="1.270" x2="6.350" y2="1.270" stroke="#4a5160" stroke-width="0.100" stroke-linecap="round" opacity="0.7"/><line x1="6.350" y1="-1.270" x2="6.350" y2="-1.770" stroke="#4a5160" stroke-width="0.100" stroke-linecap="round" opacity="0.7"/><line x1="6.350" y1="-1.270" x2="6.850" y2="-1.270" stroke="#4a5160" stroke-width="0.100" stroke-linecap="round" opacity="0.7"/><line x1="6.350" y1="-0.770" x2="6.350" y2="-1.270" stroke="#4a5160" stroke-width="0.100" stroke-linecap="round" opacity="0.7"/><line x1="6.350" y1="1.270" x2="6.350" y2="0.770" stroke="#4a5160" stroke-width="0.100" stroke-linecap="round" opacity="0.7"/><line x1="6.350" y1="1.270" x2="6.850" y2="1.270" stroke="#4a5160" stroke-width="0.100" stroke-linecap="round" opacity="0.7"/><line x1="6.350" y1="1.770" x2="6.350" y2="1.270" stroke="#4a5160" stroke-width="0.100" stroke-linecap="round" opacity="0.7"/><line x1="-7.620" y1="-2.540" x2="7.620" y2="-2.540" stroke="#6b7280" stroke-width="0.100" stroke-linecap="round" opacity="0.8"/><line x1="-7.620" y1="2.540" x2="-7.620" y2="-2.540" stroke="#6b7280" stroke-width="0.100" stroke-linecap="round" opacity="0.8"/><line x1="-7.620" y1="2.540" x2="7.620" y2="2.540" stroke="#6b7280" stroke-width="0.100" stroke-linecap="round" opacity="0.8"/><line x1="-7.048" y1="-1.968" x2="-6.794" y2="-1.714" stroke="#6b7280" stroke-width="0.100" stroke-linecap="round" opacity="0.8"/><line x1="-7.048" y1="-1.968" x2="-5.651" y2="-1.968" stroke="#6b7280" stroke-width="0.100" stroke-linecap="round" opacity="0.8"/><line x1="-7.048" y1="-0.572" x2="-7.048" y2="-1.968" stroke="#6b7280" stroke-width="0.100" stroke-linecap="round" opacity="0.8"/><line x1="-7.048" y1="-0.572" x2="-6.794" y2="-0.826" stroke="#6b7280" stroke-width="0.100" stroke-linecap="round" opacity="0.8"/><line x1="-7.048" y1="-0.572" x2="-5.651" y2="-0.572" stroke="#6b7280" stroke-width="0.100" stroke-linecap="round" opacity="0.8"/><line x1="-7.048" y1="0.572" x2="-6.794" y2="0.826" stroke="#6b7280" stroke-width="0.100" stroke-linecap="round" opacity="0.8"/><line x1="-7.048" y1="0.572" x2="-5.651" y2="0.572" stroke="#6b7280" stroke-width="0.100" stroke-linecap="round" opacity="0.8"/><line x1="-7.048" y1="1.968" x2="-7.048" y2="0.572" stroke="#6b7280" stroke-width="0.100" stroke-linecap="round" opacity="0.8"/><line x1="-7.048" y1="1.968" x2="-6.794" y2="1.714" stroke="#6b7280" stroke-width="0.100" stroke-linecap="round" opacity="0.8"/><line x1="-7.048" y1="1.968" x2="-5.651" y2="1.968" stroke="#6b7280" stroke-width="0.100" stroke-linecap="round" opacity="0.8"/><line x1="-6.794" y1="-1.714" x2="-5.905" y2="-1.714" stroke="#6b7280" stroke-width="0.100" stroke-linecap="round" opacity="0.8"/><line x1="-6.794" y1="-0.826" x2="-6.794" y2="-1.714" stroke="#6b7280" stroke-width="0.100" stroke-linecap="round" opacity="0.8"/><line x1="-6.794" y1="-0.826" x2="-5.905" y2="-0.826" stroke="#6b7280" stroke-width="0.100" stroke-linecap="round" opacity="0.8"/><line x1="-6.794" y1="0.826" x2="-5.905" y2="0.826" stroke="#6b7280" stroke-width="0.100" stroke-linecap="round" opacity="0.8"/><line x1="-6.794" y1="1.714" x2="-6.794" y2="0.826" stroke="#6b7280" stroke-width="0.100" stroke-linecap="round" opacity="0.8"/><line x1="-6.794" y1="1.714" x2="-5.905" y2="1.714" stroke="#6b7280" stroke-width="0.100" stroke-linecap="round" opacity="0.8"/><line x1="-5.905" y1="-1.714" x2="-5.651" y2="-1.968" stroke="#6b7280" stroke-width="0.100" stroke-linecap="round" opacity="0.8"/><line x1="-5.905" y1="-0.826" x2="-5.905" y2="-1.714" stroke="#6b7280" stroke-width="0.100" stroke-linecap="round" opacity="0.8"/><line x1="-5.905" y1="-0.826" x2="-5.651" y2="-0.572" stroke="#6b7280" stroke-width="0.100" stroke-linecap="round" opacity="0.8"/><line x1="-5.905" y1="0.826" x2="-5.651" y2="0.572" stroke="#6b7280" stroke-width="0.100" stroke-linecap="round" opacity="0.8"/><line x1="-5.905" y1="1.714" x2="-5.905" y2="0.826" stroke="#6b7280" stroke-width="0.100" stroke-linecap="round" opacity="0.8"/><line x1="-5.905" y1="1.714" x2="-5.651" y2="1.968" stroke="#6b7280" stroke-width="0.100" stroke-linecap="round" opacity="0.8"/><line x1="-5.651" y1="-0.572" x2="-5.651" y2="-1.968" stroke="#6b7280" stroke-width="0.100" stroke-linecap="round" opacity="0.8"/><line x1="-5.651" y1="1.968" x2="-5.651" y2="0.572" stroke="#6b7280" stroke-width="0.100" stroke-linecap="round" opacity="0.8"/><line x1="-4.508" y1="-1.968" x2="-4.254" y2="-1.714" stroke="#6b7280" stroke-width="0.100" stroke-linecap="round" opacity="0.8"/><line x1="-4.508" y1="-1.968" x2="-3.111" y2="-1.968" stroke="#6b7280" stroke-width="0.100" stroke-linecap="round" opacity="0.8"/><line x1="-4.508" y1="-0.572" x2="-4.508" y2="-1.968" stroke="#6b7280" stroke-width="0.100" stroke-linecap="round" opacity="0.8"/><line x1="-4.508" y1="-0.572" x2="-4.254" y2="-0.826" stroke="#6b7280" stroke-width="0.100" stroke-linecap="round" opacity="0.8"/><line x1="-4.508" y1="-0.572" x2="-3.111" y2="-0.572" stroke="#6b7280" stroke-width="0.100" stroke-linecap="round" opacity="0.8"/><line x1="-4.508" y1="0.572" x2="-4.254" y2="0.826" stroke="#6b7280" stroke-width="0.100" stroke-linecap="round" opacity="0.8"/><line x1="-4.508" y1="0.572" x2="-3.111" y2="0.572" stroke="#6b7280" stroke-width="0.100" stroke-linecap="round" opacity="0.8"/><line x1="-4.508" y1="1.968" x2="-4.508" y2="0.572" stroke="#6b7280" stroke-width="0.100" stroke-linecap="round" opacity="0.8"/><line x1="-4.508" y1="1.968" x2="-4.254" y2="1.714" stroke="#6b7280" stroke-width="0.100" stroke-linecap="round" opacity="0.8"/><line x1="-4.508" y1="1.968" x2="-3.111" y2="1.968" stroke="#6b7280" stroke-width="0.100" stroke-linecap="round" opacity="0.8"/><line x1="-4.254" y1="-1.714" x2="-3.365" y2="-1.714" stroke="#6b7280" stroke-width="0.100" stroke-linecap="round" opacity="0.8"/><line x1="-4.254" y1="-0.826" x2="-4.254" y2="-1.714" stroke="#6b7280" stroke-width="0.100" stroke-linecap="round" opacity="0.8"/><line x1="-4.254" y1="-0.826" x2="-3.365" y2="-0.826" stroke="#6b7280" stroke-width="0.100" stroke-linecap="round" opacity="0.8"/><line x1="-4.254" y1="0.826" x2="-3.365" y2="0.826" stroke="#6b7280" stroke-width="0.100" stroke-linecap="round" opacity="0.8"/><line x1="-4.254" y1="1.714" x2="-4.254" y2="0.826" stroke="#6b7280" stroke-width="0.100" stroke-linecap="round" opacity="0.8"/><line x1="-4.254" y1="1.714" x2="-3.365" y2="1.714" stroke="#6b7280" stroke-width="0.100" stroke-linecap="round" opacity="0.8"/><line x1="-3.365" y1="-1.714" x2="-3.111" y2="-1.968" stroke="#6b7280" stroke-width="0.100" stroke-linecap="round" opacity="0.8"/><line x1="-3.365" y1="-0.826" x2="-3.365" y2="-1.714" stroke="#6b7280" stroke-width="0.100" stroke-linecap="round" opacity="0.8"/><line x1="-3.365" y1="-0.826" x2="-3.111" y2="-0.572" stroke="#6b7280" stroke-width="0.100" stroke-linecap="round" opacity="0.8"/><line x1="-3.365" y1="0.826" x2="-3.111" y2="0.572" stroke="#6b7280" stroke-width="0.100" stroke-linecap="round" opacity="0.8"/><line x1="-3.365" y1="1.714" x2="-3.365" y2="0.826" stroke="#6b7280" stroke-width="0.100" stroke-linecap="round" opacity="0.8"/><line x1="-3.365" y1="1.714" x2="-3.111" y2="1.968" stroke="#6b7280" stroke-width="0.100" stroke-linecap="round" opacity="0.8"/><line x1="-3.111" y1="-0.572" x2="-3.111" y2="-1.968" stroke="#6b7280" stroke-width="0.100" stroke-linecap="round" opacity="0.8"/><line x1="-3.111" y1="1.968" x2="-3.111" y2="0.572" stroke="#6b7280" stroke-width="0.100" stroke-linecap="round" opacity="0.8"/><line x1="-1.968" y1="-1.968" x2="-1.714" y2="-1.714" stroke="#6b7280" stroke-width="0.100" stroke-linecap="round" opacity="0.8"/><line x1="-1.968" y1="-1.968" x2="-0.571" y2="-1.968" stroke="#6b7280" stroke-width="0.100" stroke-linecap="round" opacity="0.8"/><line x1="-1.968" y1="-0.572" x2="-1.968" y2="-1.968" stroke="#6b7280" stroke-width="0.100" stroke-linecap="round" opacity="0.8"/><line x1="-1.968" y1="-0.572" x2="-1.714" y2="-0.826" stroke="#6b7280" stroke-width="0.100" stroke-linecap="round" opacity="0.8"/><line x1="-1.968" y1="-0.572" x2="-0.571" y2="-0.572" stroke="#6b7280" stroke-width="0.100" stroke-linecap="round" opacity="0.8"/><line x1="-1.968" y1="0.572" x2="-1.714" y2="0.826" stroke="#6b7280" stroke-width="0.100" stroke-linecap="round" opacity="0.8"/><line x1="-1.968" y1="0.572" x2="-0.571" y2="0.572" stroke="#6b7280" stroke-width="0.100" stroke-linecap="round" opacity="0.8"/><line x1="-1.968" y1="1.968" x2="-1.968" y2="0.572" stroke="#6b7280" stroke-width="0.100" stroke-linecap="round" opacity="0.8"/><line x1="-1.968" y1="1.968" x2="-1.714" y2="1.714" stroke="#6b7280" stroke-width="0.100" stroke-linecap="round" opacity="0.8"/><line x1="-1.968" y1="1.968" x2="-0.571" y2="1.968" stroke="#6b7280" stroke-width="0.100" stroke-linecap="round" opacity="0.8"/><line x1="-1.714" y1="-1.714" x2="-0.825" y2="-1.714" stroke="#6b7280" stroke-width="0.100" stroke-linecap="round" opacity="0.8"/><line x1="-1.714" y1="-0.826" x2="-1.714" y2="-1.714" stroke="#6b7280" stroke-width="0.100" stroke-linecap="round" opacity="0.8"/><line x1="-1.714" y1="-0.826" x2="-0.825" y2="-0.826" stroke="#6b7280" stroke-width="0.100" stroke-linecap="round" opacity="0.8"/><line x1="-1.714" y1="0.826" x2="-0.825" y2="0.826" stroke="#6b7280" stroke-width="0.100" stroke-linecap="round" opacity="0.8"/><line x1="-1.714" y1="1.714" x2="-1.714" y2="0.826" stroke="#6b7280" stroke-width="0.100" stroke-linecap="round" opacity="0.8"/><line x1="-1.714" y1="1.714" x2="-0.825" y2="1.714" stroke="#6b7280" stroke-width="0.100" stroke-linecap="round" opacity="0.8"/><line x1="-0.825" y1="-1.714" x2="-0.571" y2="-1.968" stroke="#6b7280" stroke-width="0.100" stroke-linecap="round" opacity="0.8"/><line x1="-0.825" y1="-0.826" x2="-0.825" y2="-1.714" stroke="#6b7280" stroke-width="0.100" stroke-linecap="round" opacity="0.8"/><line x1="-0.825" y1="-0.826" x2="-0.571" y2="-0.572" stroke="#6b7280" stroke-width="0.100" stroke-linecap="round" opacity="0.8"/><line x1="-0.825" y1="0.826" x2="-0.571" y2="0.572" stroke="#6b7280" stroke-width="0.100" stroke-linecap="round" opacity="0.8"/><line x1="-0.825" y1="1.714" x2="-0.825" y2="0.826" stroke="#6b7280" stroke-width="0.100" stroke-linecap="round" opacity="0.8"/><line x1="-0.825" y1="1.714" x2="-0.571" y2="1.968" stroke="#6b7280" stroke-width="0.100" stroke-linecap="round" opacity="0.8"/><line x1="-0.571" y1="-0.572" x2="-0.571" y2="-1.968" stroke="#6b7280" stroke-width="0.100" stroke-linecap="round" opacity="0.8"/><line x1="-0.571" y1="1.968" x2="-0.571" y2="0.572" stroke="#6b7280" stroke-width="0.100" stroke-linecap="round" opacity="0.8"/><line x1="0.572" y1="-1.968" x2="0.826" y2="-1.714" stroke="#6b7280" stroke-width="0.100" stroke-linecap="round" opacity="0.8"/><line x1="0.572" y1="-1.968" x2="1.969" y2="-1.968" stroke="#6b7280" stroke-width="0.100" stroke-linecap="round" opacity="0.8"/><line x1="0.572" y1="-0.572" x2="0.572" y2="-1.968" stroke="#6b7280" stroke-width="0.100" stroke-linecap="round" opacity="0.8"/><line x1="0.572" y1="-0.572" x2="0.826" y2="-0.826" stroke="#6b7280" stroke-width="0.100" stroke-linecap="round" opacity="0.8"/><line x1="0.572" y1="-0.572" x2="1.969" y2="-0.572" stroke="#6b7280" stroke-width="0.100" stroke-linecap="round" opacity="0.8"/><line x1="0.572" y1="0.572" x2="0.826" y2="0.826" stroke="#6b7280" stroke-width="0.100" stroke-linecap="round" opacity="0.8"/><line x1="0.572" y1="0.572" x2="1.969" y2="0.572" stroke="#6b7280" stroke-width="0.100" stroke-linecap="round" opacity="0.8"/><line x1="0.572" y1="1.968" x2="0.572" y2="0.572" stroke="#6b7280" stroke-width="0.100" stroke-linecap="round" opacity="0.8"/><line x1="0.572" y1="1.968" x2="0.826" y2="1.714" stroke="#6b7280" stroke-width="0.100" stroke-linecap="round" opacity="0.8"/><line x1="0.572" y1="1.968" x2="1.969" y2="1.968" stroke="#6b7280" stroke-width="0.100" stroke-linecap="round" opacity="0.8"/><line x1="0.826" y1="-1.714" x2="1.715" y2="-1.714" stroke="#6b7280" stroke-width="0.100" stroke-linecap="round" opacity="0.8"/><line x1="0.826" y1="-0.826" x2="0.826" y2="-1.714" stroke="#6b7280" stroke-width="0.100" stroke-linecap="round" opacity="0.8"/><line x1="0.826" y1="-0.826" x2="1.715" y2="-0.826" stroke="#6b7280" stroke-width="0.100" stroke-linecap="round" opacity="0.8"/><line x1="0.826" y1="0.826" x2="1.715" y2="0.826" stroke="#6b7280" stroke-width="0.100" stroke-linecap="round" opacity="0.8"/><line x1="0.826" y1="1.714" x2="0.826" y2="0.826" stroke="#6b7280" stroke-width="0.100" stroke-linecap="round" opacity="0.8"/><line x1="0.826" y1="1.714" x2="1.715" y2="1.714" stroke="#6b7280" stroke-width="0.100" stroke-linecap="round" opacity="0.8"/><line x1="1.715" y1="-1.714" x2="1.969" y2="-1.968" stroke="#6b7280" stroke-width="0.100" stroke-linecap="round" opacity="0.8"/><line x1="1.715" y1="-0.826" x2="1.715" y2="-1.714" stroke="#6b7280" stroke-width="0.100" stroke-linecap="round" opacity="0.8"/><line x1="1.715" y1="-0.826" x2="1.969" y2="-0.572" stroke="#6b7280" stroke-width="0.100" stroke-linecap="round" opacity="0.8"/><line x1="1.715" y1="0.826" x2="1.969" y2="0.572" stroke="#6b7280" stroke-width="0.100" stroke-linecap="round" opacity="0.8"/><line x1="1.715" y1="1.714" x2="1.715" y2="0.826" stroke="#6b7280" stroke-width="0.100" stroke-linecap="round" opacity="0.8"/><line x1="1.715" y1="1.714" x2="1.969" y2="1.968" stroke="#6b7280" stroke-width="0.100" stroke-linecap="round" opacity="0.8"/><line x1="1.969" y1="-0.572" x2="1.969" y2="-1.968" stroke="#6b7280" stroke-width="0.100" stroke-linecap="round" opacity="0.8"/><line x1="1.969" y1="1.968" x2="1.969" y2="0.572" stroke="#6b7280" stroke-width="0.100" stroke-linecap="round" opacity="0.8"/><line x1="3.112" y1="-1.968" x2="3.366" y2="-1.714" stroke="#6b7280" stroke-width="0.100" stroke-linecap="round" opacity="0.8"/><line x1="3.112" y1="-1.968" x2="4.509" y2="-1.968" stroke="#6b7280" stroke-width="0.100" stroke-linecap="round" opacity="0.8"/><line x1="3.112" y1="-0.572" x2="3.112" y2="-1.968" stroke="#6b7280" stroke-width="0.100" stroke-linecap="round" opacity="0.8"/><line x1="3.112" y1="-0.572" x2="3.366" y2="-0.826" stroke="#6b7280" stroke-width="0.100" stroke-linecap="round" opacity="0.8"/><line x1="3.112" y1="-0.572" x2="4.509" y2="-0.572" stroke="#6b7280" stroke-width="0.100" stroke-linecap="round" opacity="0.8"/><line x1="3.112" y1="0.572" x2="3.366" y2="0.826" stroke="#6b7280" stroke-width="0.100" stroke-linecap="round" opacity="0.8"/><line x1="3.112" y1="0.572" x2="4.509" y2="0.572" stroke="#6b7280" stroke-width="0.100" stroke-linecap="round" opacity="0.8"/><line x1="3.112" y1="1.968" x2="3.112" y2="0.572" stroke="#6b7280" stroke-width="0.100" stroke-linecap="round" opacity="0.8"/><line x1="3.112" y1="1.968" x2="3.366" y2="1.714" stroke="#6b7280" stroke-width="0.100" stroke-linecap="round" opacity="0.8"/><line x1="3.112" y1="1.968" x2="4.509" y2="1.968" stroke="#6b7280" stroke-width="0.100" stroke-linecap="round" opacity="0.8"/><line x1="3.366" y1="-1.714" x2="4.255" y2="-1.714" stroke="#6b7280" stroke-width="0.100" stroke-linecap="round" opacity="0.8"/><line x1="3.366" y1="-0.826" x2="3.366" y2="-1.714" stroke="#6b7280" stroke-width="0.100" stroke-linecap="round" opacity="0.8"/><line x1="3.366" y1="-0.826" x2="4.255" y2="-0.826" stroke="#6b7280" stroke-width="0.100" stroke-linecap="round" opacity="0.8"/><line x1="3.366" y1="0.826" x2="4.255" y2="0.826" stroke="#6b7280" stroke-width="0.100" stroke-linecap="round" opacity="0.8"/><line x1="3.366" y1="1.714" x2="3.366" y2="0.826" stroke="#6b7280" stroke-width="0.100" stroke-linecap="round" opacity="0.8"/><line x1="3.366" y1="1.714" x2="4.255" y2="1.714" stroke="#6b7280" stroke-width="0.100" stroke-linecap="round" opacity="0.8"/><line x1="4.255" y1="-1.714" x2="4.509" y2="-1.968" stroke="#6b7280" stroke-width="0.100" stroke-linecap="round" opacity="0.8"/><line x1="4.255" y1="-0.826" x2="4.255" y2="-1.714" stroke="#6b7280" stroke-width="0.100" stroke-linecap="round" opacity="0.8"/><line x1="4.255" y1="-0.826" x2="4.509" y2="-0.572" stroke="#6b7280" stroke-width="0.100" stroke-linecap="round" opacity="0.8"/><line x1="4.255" y1="0.826" x2="4.509" y2="0.572" stroke="#6b7280" stroke-width="0.100" stroke-linecap="round" opacity="0.8"/><line x1="4.255" y1="1.714" x2="4.255" y2="0.826" stroke="#6b7280" stroke-width="0.100" stroke-linecap="round" opacity="0.8"/><line x1="4.255" y1="1.714" x2="4.509" y2="1.968" stroke="#6b7280" stroke-width="0.100" stroke-linecap="round" opacity="0.8"/><line x1="4.509" y1="-0.572" x2="4.509" y2="-1.968" stroke="#6b7280" stroke-width="0.100" stroke-linecap="round" opacity="0.8"/><line x1="4.509" y1="1.968" x2="4.509" y2="0.572" stroke="#6b7280" stroke-width="0.100" stroke-linecap="round" opacity="0.8"/><line x1="5.652" y1="-1.968" x2="5.906" y2="-1.714" stroke="#6b7280" stroke-width="0.100" stroke-linecap="round" opacity="0.8"/><line x1="5.652" y1="-1.968" x2="7.049" y2="-1.968" stroke="#6b7280" stroke-width="0.100" stroke-linecap="round" opacity="0.8"/><line x1="5.652" y1="-0.572" x2="5.652" y2="-1.968" stroke="#6b7280" stroke-width="0.100" stroke-linecap="round" opacity="0.8"/><line x1="5.652" y1="-0.572" x2="5.906" y2="-0.826" stroke="#6b7280" stroke-width="0.100" stroke-linecap="round" opacity="0.8"/><line x1="5.652" y1="-0.572" x2="7.049" y2="-0.572" stroke="#6b7280" stroke-width="0.100" stroke-linecap="round" opacity="0.8"/><line x1="5.652" y1="0.572" x2="5.906" y2="0.826" stroke="#6b7280" stroke-width="0.100" stroke-linecap="round" opacity="0.8"/><line x1="5.652" y1="0.572" x2="7.049" y2="0.572" stroke="#6b7280" stroke-width="0.100" stroke-linecap="round" opacity="0.8"/><line x1="5.652" y1="1.968" x2="5.652" y2="0.572" stroke="#6b7280" stroke-width="0.100" stroke-linecap="round" opacity="0.8"/><line x1="5.652" y1="1.968" x2="5.906" y2="1.714" stroke="#6b7280" stroke-width="0.100" stroke-linecap="round" opacity="0.8"/><line x1="5.652" y1="1.968" x2="7.049" y2="1.968" stroke="#6b7280" stroke-width="0.100" stroke-linecap="round" opacity="0.8"/><line x1="5.906" y1="-1.714" x2="6.795" y2="-1.714" stroke="#6b7280" stroke-width="0.100" stroke-linecap="round" opacity="0.8"/><line x1="5.906" y1="-0.826" x2="5.906" y2="-1.714" stroke="#6b7280" stroke-width="0.100" stroke-linecap="round" opacity="0.8"/><line x1="5.906" y1="-0.826" x2="6.795" y2="-0.826" stroke="#6b7280" stroke-width="0.100" stroke-linecap="round" opacity="0.8"/><line x1="5.906" y1="0.826" x2="6.795" y2="0.826" stroke="#6b7280" stroke-width="0.100" stroke-linecap="round" opacity="0.8"/><line x1="5.906" y1="1.714" x2="5.906" y2="0.826" stroke="#6b7280" stroke-width="0.100" stroke-linecap="round" opacity="0.8"/><line x1="5.906" y1="1.714" x2="6.795" y2="1.714" stroke="#6b7280" stroke-width="0.100" stroke-linecap="round" opacity="0.8"/><line x1="6.795" y1="-1.714" x2="7.049" y2="-1.968" stroke="#6b7280" stroke-width="0.100" stroke-linecap="round" opacity="0.8"/><line x1="6.795" y1="-0.826" x2="6.795" y2="-1.714" stroke="#6b7280" stroke-width="0.100" stroke-linecap="round" opacity="0.8"/><line x1="6.795" y1="-0.826" x2="7.049" y2="-0.572" stroke="#6b7280" stroke-width="0.100" stroke-linecap="round" opacity="0.8"/><line x1="6.795" y1="0.826" x2="7.049" y2="0.572" stroke="#6b7280" stroke-width="0.100" stroke-linecap="round" opacity="0.8"/><line x1="6.795" y1="1.714" x2="6.795" y2="0.826" stroke="#6b7280" stroke-width="0.100" stroke-linecap="round" opacity="0.8"/><line x1="6.795" y1="1.714" x2="7.049" y2="1.968" stroke="#6b7280" stroke-width="0.100" stroke-linecap="round" opacity="0.8"/><line x1="7.049" y1="-0.572" x2="7.049" y2="-1.968" stroke="#6b7280" stroke-width="0.100" stroke-linecap="round" opacity="0.8"/><line x1="7.049" y1="1.968" x2="7.049" y2="0.572" stroke="#6b7280" stroke-width="0.100" stroke-linecap="round" opacity="0.8"/><line x1="7.620" y1="2.540" x2="7.620" y2="-2.540" stroke="#6b7280" stroke-width="0.100" stroke-linecap="round" opacity="0.8"/><line x1="-7.870" y1="-2.790" x2="7.870" y2="-2.790" stroke="#d24d4d" stroke-width="0.080" stroke-linecap="round" opacity="0.7"/><line x1="7.870" y1="-2.790" x2="7.870" y2="2.790" stroke="#d24d4d" stroke-width="0.080" stroke-linecap="round" opacity="0.7"/><line x1="7.870" y1="2.790" x2="-7.870" y2="2.790" stroke="#d24d4d" stroke-width="0.080" stroke-linecap="round" opacity="0.7"/><line x1="-7.870" y1="2.790" x2="-7.870" y2="-2.790" stroke="#d24d4d" stroke-width="0.080" stroke-linecap="round" opacity="0.7"/><circle cx="-6.387" cy="-3.108" r="0.150" fill="#e6e9ef" opacity="1"/><circle cx="-6.387" cy="-3.108" r="0.150" fill="#6b7280" opacity="0.8"/><rect x="-7.200" y="-2.120" width="1.700" height="1.700" rx="0.850" fill="#c79b5c"/><circle cx="-6.350" cy="-1.270" r="0.500" fill="#12151c"/><rect x="-7.200" y="0.420" width="1.700" height="1.700" rx="0.850" fill="#c79b5c"/><circle cx="-6.350" cy="1.270" r="0.500" fill="#12151c"/><rect x="-4.660" y="-2.120" width="1.700" height="1.700" rx="0.850" fill="#c79b5c"/><circle cx="-3.810" cy="-1.270" r="0.500" fill="#12151c"/><rect x="-4.660" y="0.420" width="1.700" height="1.700" rx="0.850" fill="#c79b5c"/><circle cx="-3.810" cy="1.270" r="0.500" fill="#12151c"/><rect x="-2.120" y="-2.120" width="1.700" height="1.700" rx="0.850" fill="#c79b5c"/><circle cx="-1.270" cy="-1.270" r="0.500" fill="#12151c"/><rect x="-2.120" y="0.420" width="1.700" height="1.700" rx="0.850" fill="#c79b5c"/><circle cx="-1.270" cy="1.270" r="0.500" fill="#12151c"/><rect x="0.420" y="-2.120" width="1.700" height="1.700" rx="0.850" fill="#c79b5c"/><circle cx="1.270" cy="-1.270" r="0.500" fill="#12151c"/><rect x="0.420" y="0.420" width="1.700" height="1.700" rx="0.850" fill="#c79b5c"/><circle cx="1.270" cy="1.270" r="0.500" fill="#12151c"/><rect x="2.960" y="-2.120" width="1.700" height="1.700" rx="0.850" fill="#c79b5c"/><circle cx="3.810" cy="-1.270" r="0.500" fill="#12151c"/><rect x="2.960" y="0.420" width="1.700" height="1.700" rx="0.850" fill="#c79b5c"/><circle cx="3.810" cy="1.270" r="0.500" fill="#12151c"/><rect x="5.500" y="-2.120" width="1.700" height="1.700" rx="0.850" fill="#c79b5c"/><circle cx="6.350" cy="-1.270" r="0.500" fill="#12151c"/><rect x="5.500" y="0.420" width="1.700" height="1.700" rx="0.850" fill="#c79b5c"/><circle cx="6.350" cy="1.270" r="0.500" fill="#12151c"/></svg>