<svg xmlns="http://www.w3.org/2000/svg" viewBox="-5.17 -4.55 9.72 9.10" preserveAspectRatio="xMidYMid meet" style="width:100%;height:100%"><rect x="-5.17" y="-4.55" width="9.72" height="9.10" fill="#12151c"/><line x1="-0.650" y1="-3.103" x2="0.650" y2="-3.103" stroke="#e6e9ef" stroke-width="0.200" stroke-linecap="round" opacity="1"/><line x1="-0.650" y1="3.103" x2="0.650" y2="3.103" stroke="#e6e9ef" stroke-width="0.200" stroke-linecap="round" opacity="1"/><line x1="-3.300" y1="-2.125" x2="-2.125" y2="-3.300" stroke="#4a5160" stroke-width="0.100" stroke-linecap="round" opacity="0.7"/><line x1="-3.300" y1="0.000" x2="-2.100" y2="0.000" stroke="#4a5160" stroke-width="0.100" stroke-linecap="round" opacity="0.7"/><line x1="-3.300" y1="2.125" x2="-3.300" y2="-2.125" stroke="#4a5160" stroke-width="0.100" stroke-linecap="round" opacity="0.7"/><line x1="-3.300" y1="2.125" x2="-2.125" y2="3.300" stroke="#4a5160" stroke-width="0.100" stroke-linecap="round" opacity="0.7"/><line x1="-3.200" y1="0.000" x2="-2.700" y2="0.000" stroke="#4a5160" stroke-width="0.100" stroke-linecap="round" opacity="0.7"/><line x1="-2.700" y1="0.000" x2="-2.700" y2="-0.500" stroke="#4a5160" stroke-width="0.100" stroke-linecap="round" opacity="0.7"/><line x1="-2.700" y1="0.000" x2="-2.200" y2="0.000" stroke="#4a5160" stroke-width="0.100" stroke-linecap="round" opacity="0.7"/><line x1="-2.700" y1="0.500" x2="-2.700" y2="0.000" stroke="#4a5160" stroke-width="0.100" stroke-linecap="round" opacity="0.7"/><line x1="-2.125" y1="-3.300" x2="-1.000" y2="-3.300" stroke="#4a5160" stroke-width="0.100" stroke-linecap="round" opacity="0.7"/><line x1="-2.125" y1="3.300" x2="-1.000" y2="3.300" stroke="#4a5160" stroke-width="0.100" stroke-linecap="round" opacity="0.7"/><line x1="-2.100" y1="-0.900" x2="-1.000" y2="-2.100" stroke="#4a5160" stroke-width="0.100" stroke-linecap="round" opacity="0.7"/><line x1="-2.100" y1="0.900" x2="-2.100" y2="-0.900" stroke="#4a5160" stroke-width="0.100" stroke-linecap="round" opacity="0.7"/><line x1="-2.100" y1="0.900" x2="-1.000" y2="2.100" stroke="#4a5160" stroke-width="0.100" stroke-linecap="round" opacity="0.7"/><line x1="-1.000" y1="-2.100" x2="-1.000" y2="-3.300" stroke="#4a5160" stroke-width="0.100" stroke-linecap="round" opacity="0.7"/><line x1="-1.000" y1="3.300" x2="-1.000" y2="2.100" stroke="#4a5160" stroke-width="0.100" stroke-linecap="round" opacity="0.7"/><line x1="-0.500" y1="0.000" x2="0.000" y2="0.000" stroke="#4a5160" stroke-width="0.100" stroke-linecap="round" opacity="0.7"/><line x1="0.000" y1="0.000" x2="0.000" y2="-0.500" stroke="#4a5160" stroke-width="0.100" stroke-linecap="round" opacity="0.7"/><line x1="0.000" y1="0.000" x2="0.500" y2="0.000" stroke="#4a5160" stroke-width="0.100" stroke-linecap="round" opacity="0.7"/><line x1="0.000" y1="0.500" x2="0.000" y2="0.000" stroke="#4a5160" stroke-width="0.100" stroke-linecap="round" opacity="0.7"/><line x1="1.000" y1="-3.300" x2="2.125" y2="-3.300" stroke="#4a5160" stroke-width="0.100" stroke-linecap="round" opacity="0.7"/><line x1="1.000" y1="-2.100" x2="1.000" y2="-3.300" stroke="#4a5160" stroke-width="0.100" stroke-linecap="round" opacity="0.7"/><line x1="1.000" y1="-2.100" x2="2.100" y2="-0.900" stroke="#4a5160" stroke-width="0.100" stroke-linecap="round" opacity="0.7"/><line x1="1.000" y1="2.100" x2="2.100" y2="0.900" stroke="#4a5160" stroke-width="0.100" stroke-linecap="round" opacity="0.7"/><line x1="1.000" y1="3.300" x2="1.000" y2="2.100" stroke="#4a5160" stroke-width="0.100" stroke-linecap="round" opacity="0.7"/><line x1="1.000" y1="3.300" x2="2.125" y2="3.300" stroke="#4a5160" stroke-width="0.100" stroke-linecap="round" opacity="0.7"/><line x1="2.100" y1="0.000" x2="3.300" y2="0.000" stroke="#4a5160" stroke-width="0.100" stroke-linecap="round" opacity="0.7"/><line x1="2.100" y1="0.900" x2="2.100" y2="-0.900" stroke="#4a5160" stroke-width="0.100" stroke-linecap="round" opacity="0.7"/><line x1="2.125" y1="-3.300" x2="3.300" y2="-2.125" stroke="#4a5160" stroke-width="0.100" stroke-linecap="round" opacity="0.7"/><line x1="2.125" y1="3.300" x2="3.300" y2="2.125" stroke="#4a5160" stroke-width="0.100" stroke-linecap="round" opacity="0.7"/><line x1="2.200" y1="0.000" x2="2.700" y2="0.000" stroke="#4a5160" stroke-width="0.100" stroke-linecap="round" opacity="0.7"/><line x1="2.700" y1="0.000" x2="2.700" y2="-0.500" stroke="#4a5160" stroke-width="0.100" stroke-linecap="round" opacity="0.7"/><line x1="2.700" y1="0.000" x2="3.200" y2="0.000" stroke="#4a5160" stroke-width="0.100" stroke-linecap="round" opacity="0.7"/><line x1="2.700" y1="0.500" x2="2.700" y2="0.000" stroke="#4a5160" stroke-width="0.100" stroke-linecap="round" opacity="0.7"/><line x1="3.300" y1="2.125" x2="3.300" y2="-2.125" stroke="#4a5160" stroke-width="0.100" stroke-linecap="round" opacity="0.7"/><line x1="-3.550" y1="-2.229" x2="-2.229" y2="-3.550" stroke="#d24d4d" stroke-width="0.080" stroke-linecap="round" opacity="0.7"/><line x1="-3.550" y1="2.229" x2="-3.550" y2="-2.229" stroke="#d24d4d" stroke-width="0.080" stroke-linecap="round" opacity="0.7"/><line x1="-3.550" y1="2.229" x2="-2.229" y2="3.550" stroke="#d24d4d" stroke-width="0.080" stroke-linecap="round" opacity="0.7"/><line x1="-2.229" y1="-3.550" x2="2.229" y2="-3.550" stroke="#d24d4d" stroke-width="0.080" stroke-linecap="round" opacity="0.7"/><line x1="-2.229" y1="3.550" x2="2.229" y2="3.550" stroke="#d24d4d" stroke-width="0.080" stroke-linecap="round" opacity="0.7"/><line x1="2.229" y1="-3.550" x2="3.550" y2="-2.229" stroke="#d24d4d" stroke-width="0.080" stroke-linecap="round" opacity="0.7"/><line x1="2.229" y1="3.550" x2="3.550" y2="2.229" stroke="#d24d4d" stroke-width="0.080" stroke-linecap="round" opacity="0.7"/><line x1="3.550" y1="2.229" x2="3.550" y2="-2.229" stroke="#d24d4d" stroke-width="0.080" stroke-linecap="round" opacity="0.7"/><line x1="-3.103" y1="-2.103" x2="-2.103" y2="-3.103" stroke="#6b7280" stroke-width="0.100" stroke-linecap="round" opacity="0.8"/><line x1="-3.103" y1="2.103" x2="-3.103" y2="-2.103" stroke="#6b7280" stroke-width="0.100" stroke-linecap="round" opacity="0.8"/><line x1="-3.103" y1="2.103" x2="-2.103" y2="3.103" stroke="#6b7280" stroke-width="0.100" stroke-linecap="round" opacity="0.8"/><line x1="-2.103" y1="-3.103" x2="2.103" y2="-3.103" stroke="#6b7280" stroke-width="0.100" stroke-linecap="round" opacity="0.8"/><line x1="-2.103" y1="3.103" x2="2.103" y2="3.103" stroke="#6b7280" stroke-width="0.100" stroke-linecap="round" opacity="0.8"/><line x1="2.103" y1="-3.103" x2="3.103" y2="-2.103" stroke="#6b7280" stroke-width="0.100" stroke-linecap="round" opacity="0.8"/><line x1="2.103" y1="3.103" x2="3.103" y2="2.103" stroke="#6b7280" stroke-width="0.100" stroke-linecap="round" opacity="0.8"/><line x1="3.103" y1="2.103" x2="3.103" y2="-2.103" stroke="#6b7280" stroke-width="0.100" stroke-linecap="round" opacity="0.8"/><circle cx="-3.975" cy="0.000" r="0.200" fill="#e6e9ef" opacity="1"/><circle cx="-2.537" cy="0.000" r="0.250" fill="#6b7280" opacity="0.8"/><rect x="-2.163" y="-0.013" width="0.025" height="0.025" rx="0.013" fill="#c79b5c"/><rect x="-2.125" y="3.300" width="0.000" height="0.000" rx="0.000" fill="#c79b5c"/><rect x="2.125" y="-3.300" width="0.000" height="0.000" rx="0.000" fill="#c79b5c"/><rect x="2.137" y="-0.013" width="0.025" height="0.025" rx="0.013" fill="#c79b5c"/></svg>