<svg xmlns="http://www.w3.org/2000/svg" viewBox="-5.86 -4.78 11.72 9.56" preserveAspectRatio="xMidYMid meet" style="width:100%;height:100%"><rect x="-5.86" y="-4.78" width="11.72" height="9.56" fill="#12151c"/><line x1="-3.747" y1="-3.531" x2="3.747" y2="-3.531" stroke="#e6e9ef" stroke-width="0.200" stroke-linecap="round" opacity="1"/><line x1="-3.747" y1="-2.540" x2="-3.747" y2="-3.531" stroke="#e6e9ef" stroke-width="0.200" stroke-linecap="round" opacity="1"/><line x1="-3.747" y1="3.531" x2="-3.747" y2="2.540" stroke="#e6e9ef" stroke-width="0.200" stroke-linecap="round" opacity="1"/><line x1="-3.747" y1="3.531" x2="3.747" y2="3.531" stroke="#e6e9ef" stroke-width="0.200" stroke-linecap="round" opacity="1"/><line x1="-1.270" y1="-1.905" x2="1.270" y2="-1.905" stroke="#e6e9ef" stroke-width="0.200" stroke-linecap="round" opacity="1"/><line x1="-1.270" y1="-0.635" x2="-1.270" y2="-1.905" stroke="#e6e9ef" stroke-width="0.200" stroke-linecap="round" opacity="1"/><line x1="-1.270" y1="-0.635" x2="1.270" y2="-0.635" stroke="#e6e9ef" stroke-width="0.200" stroke-linecap="round" opacity="1"/><line x1="-1.270" y1="0.635" x2="-1.270" y2="1.905" stroke="#e6e9ef" stroke-width="0.200" stroke-linecap="round" opacity="1"/><line x1="-1.270" y1="0.635" x2="1.270" y2="0.635" stroke="#e6e9ef" stroke-width="0.200" stroke-linecap="round" opacity="1"/><line x1="-1.270" y1="1.905" x2="1.270" y2="1.905" stroke="#e6e9ef" stroke-width="0.200" stroke-linecap="round" opacity="1"/><line x1="1.270" y1="-1.905" x2="1.270" y2="-0.635" stroke="#e6e9ef" stroke-width="0.200" stroke-linecap="round" opacity="1"/><line x1="1.270" y1="1.905" x2="1.270" y2="0.635" stroke="#e6e9ef" stroke-width="0.200" stroke-linecap="round" opacity="1"/><line x1="3.747" y1="-2.540" x2="3.747" y2="-3.531" stroke="#e6e9ef" stroke-width="0.200" stroke-linecap="round" opacity="1"/><line x1="3.747" y1="3.531" x2="3.747" y2="2.540" stroke="#e6e9ef" stroke-width="0.200" stroke-linecap="round" opacity="1"/><line x1="-3.747" y1="-3.531" x2="3.747" y2="-3.531" stroke="#6b7280" stroke-width="0.100" stroke-linecap="round" opacity="0.8"/><line x1="-3.747" y1="3.531" x2="-3.747" y2="-3.531" stroke="#6b7280" stroke-width="0.100" stroke-linecap="round" opacity="0.8"/><line x1="-3.747" y1="3.531" x2="3.747" y2="3.531" stroke="#6b7280" stroke-width="0.100" stroke-linecap="round" opacity="0.8"/><line x1="-1.270" y1="-1.905" x2="1.270" y2="-1.905" stroke="#6b7280" stroke-width="0.100" stroke-linecap="round" opacity="0.8"/><line x1="-1.270" y1="-0.635" x2="-1.270" y2="-1.905" stroke="#6b7280" stroke-width="0.100" stroke-linecap="round" opacity="0.8"/><line x1="-1.270" y1="-0.635" x2="1.270" y2="-0.635" stroke="#6b7280" stroke-width="0.100" stroke-linecap="round" opacity="0.8"/><line x1="-1.270" y1="0.635" x2="-1.270" y2="1.905" stroke="#6b7280" stroke-width="0.100" stroke-linecap="round" opacity="0.8"/><line x1="-1.270" y1="0.635" x2="1.270" y2="0.635" stroke="#6b7280" stroke-width="0.100" stroke-linecap="round" opacity="0.8"/><line x1="-1.270" y1="1.905" x2="1.270" y2="1.905" stroke="#6b7280" stroke-width="0.100" stroke-linecap="round" opacity="0.8"/><line x1="1.270" y1="-1.905" x2="1.270" y2="-0.635" stroke="#6b7280" stroke-width="0.100" stroke-linecap="round" opacity="0.8"/><line x1="1.270" y1="1.905" x2="1.270" y2="0.635" stroke="#6b7280" stroke-width="0.100" stroke-linecap="round" opacity="0.8"/><line x1="3.747" y1="3.531" x2="3.747" y2="-3.531" stroke="#6b7280" stroke-width="0.100" stroke-linecap="round" opacity="0.8"/><line x1="-4.860" y1="-3.780" x2="4.860" y2="-3.780" stroke="#d24d4d" stroke-width="0.080" stroke-linecap="round" opacity="0.7"/><line x1="4.860" y1="-3.780" x2="4.860" y2="3.780" stroke="#d24d4d" stroke-width="0.080" stroke-linecap="round" opacity="0.7"/><line x1="4.860" y1="3.780" x2="-4.860" y2="3.780" stroke="#d24d4d" stroke-width="0.080" stroke-linecap="round" opacity="0.7"/><line x1="-4.860" y1="3.780" x2="-4.860" y2="-3.780" stroke="#d24d4d" stroke-width="0.080" stroke-linecap="round" opacity="0.7"/><rect x="-4.610" y="-2.070" width="1.600" height="1.600" rx="0.800" fill="#c79b5c"/><circle cx="-3.810" cy="-1.270" r="0.450" fill="#12151c"/><rect x="-4.610" y="0.470" width="1.600" height="1.600" rx="0.800" fill="#c79b5c"/><circle cx="-3.810" cy="1.270" r="0.450" fill="#12151c"/><rect x="3.010" y="0.470" width="1.600" height="1.600" rx="0.800" fill="#c79b5c"/><circle cx="3.810" cy="1.270" r="0.450" fill="#12151c"/><rect x="3.010" y="-2.070" width="1.600" height="1.600" rx="0.800" fill="#c79b5c"/><circle cx="3.810" cy="-1.270" r="0.450" fill="#12151c"/></svg>