<svg xmlns="http://www.w3.org/2000/svg" viewBox="-3.52 -2.80 6.33 5.60" preserveAspectRatio="xMidYMid meet" style="width:100%;height:100%"><rect x="-3.52" y="-2.80" width="6.33" height="5.60" fill="#12151c"/><circle cx="-2.400" cy="-1.100" r="0.125" fill="none" stroke="#e6e9ef" stroke-width="0.12" opacity="1"/><circle cx="-1.000" cy="-1.000" r="0.250" fill="none" stroke="#6b7280" stroke-width="0.12" opacity="0.8"/><rect x="-1.800" y="-0.900" width="0.000" height="0.000" rx="0.000" fill="#c79b5c"/><rect x="-1.800" y="-1.100" width="0.513" height="0.200" rx="0.000" fill="#c79b5c"/><rect x="-1.287" y="-0.988" width="0.112" height="0.088" rx="0.000" fill="#c79b5c"/><rect x="-1.800" y="-0.700" width="0.675" height="0.200" rx="0.000" fill="#c79b5c"/><rect x="-1.800" y="-0.300" width="0.675" height="0.200" rx="0.000" fill="#c79b5c"/><rect x="-1.800" y="0.100" width="0.675" height="0.200" rx="0.000" fill="#c79b5c"/><rect x="-1.800" y="0.500" width="0.675" height="0.200" rx="0.000" fill="#c79b5c"/><rect x="-1.800" y="0.900" width="0.000" height="0.000" rx="0.000" fill="#c79b5c"/><rect x="-1.800" y="0.900" width="0.513" height="0.200" rx="0.000" fill="#c79b5c"/><rect x="-1.287" y="0.900" width="0.112" height="0.088" rx="0.000" fill="#c79b5c"/><rect x="-1.100" y="1.287" width="0.200" height="0.513" rx="0.000" fill="#c79b5c"/><rect x="-0.988" y="1.175" width="0.088" height="0.112" rx="0.000" fill="#c79b5c"/><rect x="-0.900" y="1.800" width="0.000" height="0.000" rx="0.000" fill="#c79b5c"/><rect x="-0.700" y="1.125" width="0.200" height="0.675" rx="0.000" fill="#c79b5c"/><rect x="-0.300" y="0.475" width="0.200" height="1.325" rx="0.000" fill="#c79b5c"/><rect x="0.100" y="1.125" width="0.200" height="0.675" rx="0.000" fill="#c79b5c"/><rect x="0.500" y="1.125" width="0.200" height="0.675" rx="0.000" fill="#c79b5c"/><rect x="0.900" y="1.800" width="0.000" height="0.000" rx="0.000" fill="#c79b5c"/><rect x="0.900" y="1.175" width="0.088" height="0.112" rx="0.000" fill="#c79b5c"/><rect x="0.900" y="1.287" width="0.200" height="0.513" rx="0.000" fill="#c79b5c"/><rect x="1.150" y="0.750" width="0.162" height="0.188" rx="0.000" fill="#c79b5c"/><rect x="1.312" y="0.750" width="0.488" height="0.350" rx="0.000" fill="#c79b5c"/><rect x="1.800" y="0.500" width="0.000" height="0.000" rx="0.000" fill="#c79b5c"/><rect x="0.225" y="0.500" width="1.575" height="0.250" rx="0.000" fill="#c79b5c"/><rect x="0.225" y="0.050" width="1.575" height="0.250" rx="0.000" fill="#c79b5c"/><rect x="0.350" y="0.300" width="0.000" height="0.000" rx="0.000" fill="#c79b5c"/><rect x="1.150" y="-0.200" width="0.100" height="0.250" rx="0.000" fill="#c79b5c"/><rect x="1.250" y="-0.300" width="0.550" height="0.350" rx="0.000" fill="#c79b5c"/><rect x="1.125" y="-0.700" width="0.675" height="0.200" rx="0.000" fill="#c79b5c"/><rect x="0.900" y="-1.800" width="0.000" height="0.000" rx="0.000" fill="#c79b5c"/><rect x="1.100" y="-1.225" width="0.125" height="0.125" rx="0.000" fill="#c79b5c"/><rect x="1.100" y="-1.100" width="0.700" height="0.200" rx="0.000" fill="#c79b5c"/><rect x="0.900" y="-1.800" width="0.200" height="0.700" rx="0.000" fill="#c79b5c"/><rect x="0.900" y="-1.100" width="0.200" height="0.200" rx="0.000" fill="#c79b5c"/><rect x="0.400" y="-1.800" width="0.300" height="1.075" rx="0.000" fill="#c79b5c"/><rect x="0.100" y="-1.800" width="0.300" height="1.075" rx="0.000" fill="#c79b5c"/><rect x="-0.300" y="-1.800" width="0.200" height="1.075" rx="0.000" fill="#c79b5c"/><rect x="-0.750" y="-1.800" width="0.250" height="1.075" rx="0.000" fill="#c79b5c"/><rect x="-1.100" y="-1.800" width="0.000" height="0.000" rx="0.000" fill="#c79b5c"/><rect x="-1.100" y="-1.800" width="0.350" height="0.488" rx="0.000" fill="#c79b5c"/><rect x="-0.988" y="-1.312" width="0.238" height="0.112" rx="0.000" fill="#c79b5c"/></svg>