<svg xmlns="http://www.w3.org/2000/svg" viewBox="-13.50 -13.50 27.00 27.00" preserveAspectRatio="xMidYMid meet" style="width:100%;height:100%"><rect x="-13.50" y="-13.50" width="27.00" height="27.00" fill="#12151c"/><line x1="-11.900" y1="6.985" x2="-11.900" y2="-6.985" stroke="#e6e9ef" stroke-width="0.200" stroke-linecap="round" opacity="1"/><line x1="-7.861" y1="-3.384" x2="-6.937" y2="-2.850" stroke="#e6e9ef" stroke-width="0.200" stroke-linecap="round" opacity="1"/><line x1="-7.861" y1="-3.384" x2="-6.861" y2="-5.116" stroke="#e6e9ef" stroke-width="0.200" stroke-linecap="round" opacity="1"/><line x1="-6.985" y1="-11.900" x2="6.985" y2="-11.900" stroke="#e6e9ef" stroke-width="0.200" stroke-linecap="round" opacity="1"/><line x1="-6.985" y1="11.900" x2="6.985" y2="11.900" stroke="#e6e9ef" stroke-width="0.200" stroke-linecap="round" opacity="1"/><line x1="-6.861" y1="-5.116" x2="-5.937" y2="-4.583" stroke="#e6e9ef" stroke-width="0.200" stroke-linecap="round" opacity="1"/><line x1="-6.785" y1="0.938" x2="-6.235" y2="0.791" stroke="#e6e9ef" stroke-width="0.200" stroke-linecap="round" opacity="1"/><line x1="-6.345" y1="2.580" x2="-5.795" y2="2.433" stroke="#e6e9ef" stroke-width="0.200" stroke-linecap="round" opacity="1"/><line x1="-5.020" y1="4.660" x2="-4.654" y2="4.224" stroke="#e6e9ef" stroke-width="0.200" stroke-linecap="round" opacity="1"/><line x1="-3.718" y1="5.753" x2="-3.352" y2="5.317" stroke="#e6e9ef" stroke-width="0.200" stroke-linecap="round" opacity="1"/><line x1="-1.869" y1="1.131" x2="-1.131" y2="1.869" stroke="#e6e9ef" stroke-width="0.200" stroke-linecap="round" opacity="1"/><line x1="-1.650" y1="-6.065" x2="-1.650" y2="-6.648" stroke="#e6e9ef" stroke-width="0.200" stroke-linecap="round" opacity="1"/><line x1="-1.000" y1="8.500" x2="-1.000" y2="7.433" stroke="#e6e9ef" stroke-width="0.200" stroke-linecap="round" opacity="1"/><line x1="-1.000" y1="8.500" x2="1.000" y2="8.500" stroke="#e6e9ef" stroke-width="0.200" stroke-linecap="round" opacity="1"/><line x1="1.000" y1="8.500" x2="1.000" y2="7.433" stroke="#e6e9ef" stroke-width="0.200" stroke-linecap="round" opacity="1"/><line x1="1.131" y1="-1.869" x2="1.869" y2="-1.131" stroke="#e6e9ef" stroke-width="0.200" stroke-linecap="round" opacity="1"/><line x1="1.131" y1="1.869" x2="1.869" y2="1.131" stroke="#e6e9ef" stroke-width="0.200" stroke-linecap="round" opacity="1"/><line x1="1.650" y1="-6.065" x2="1.650" y2="-6.648" stroke="#e6e9ef" stroke-width="0.200" stroke-linecap="round" opacity="1"/><line x1="2.876" y1="5.589" x2="3.202" y2="6.055" stroke="#e6e9ef" stroke-width="0.200" stroke-linecap="round" opacity="1"/><line x1="4.268" y1="4.614" x2="4.595" y2="5.080" stroke="#e6e9ef" stroke-width="0.200" stroke-linecap="round" opacity="1"/><line x1="5.937" y1="-4.583" x2="6.861" y2="-5.116" stroke="#e6e9ef" stroke-width="0.200" stroke-linecap="round" opacity="1"/><line x1="6.130" y1="1.390" x2="6.697" y2="1.439" stroke="#e6e9ef" stroke-width="0.200" stroke-linecap="round" opacity="1"/><line x1="6.278" y1="-0.304" x2="6.845" y2="-0.254" stroke="#e6e9ef" stroke-width="0.200" stroke-linecap="round" opacity="1"/><line x1="6.861" y1="-5.116" x2="7.861" y2="-3.384" stroke="#e6e9ef" stroke-width="0.200" stroke-linecap="round" opacity="1"/><line x1="6.937" y1="-2.850" x2="7.861" y2="-3.384" stroke="#e6e9ef" stroke-width="0.200" stroke-linecap="round" opacity="1"/><line x1="11.900" y1="6.985" x2="11.900" y2="-6.985" stroke="#e6e9ef" stroke-width="0.200" stroke-linecap="round" opacity="1"/><line x1="-9.650" y1="-9.150" x2="-9.150" y2="-9.150" stroke="#4a5160" stroke-width="0.100" stroke-linecap="round" opacity="0.7"/><line x1="-9.650" y1="9.150" x2="-9.150" y2="9.150" stroke="#4a5160" stroke-width="0.100" stroke-linecap="round" opacity="0.7"/><line x1="-9.150" y1="-9.150" x2="-9.150" y2="-9.650" stroke="#4a5160" stroke-width="0.100" stroke-linecap="round" opacity="0.7"/><line x1="-9.150" y1="-9.150" x2="-8.650" y2="-9.150" stroke="#4a5160" stroke-width="0.100" stroke-linecap="round" opacity="0.7"/><line x1="-9.150" y1="-8.650" x2="-9.150" y2="-9.150" stroke="#4a5160" stroke-width="0.100" stroke-linecap="round" opacity="0.7"/><line x1="-9.150" y1="9.150" x2="-9.150" y2="8.650" stroke="#4a5160" stroke-width="0.100" stroke-linecap="round" opacity="0.7"/><line x1="-9.150" y1="9.150" x2="-8.650" y2="9.150" stroke="#4a5160" stroke-width="0.100" stroke-linecap="round" opacity="0.7"/><line x1="-9.150" y1="9.650" x2="-9.150" y2="9.150" stroke="#4a5160" stroke-width="0.100" stroke-linecap="round" opacity="0.7"/><line x1="-3.500" y1="0.000" x2="-3.000" y2="0.000" stroke="#4a5160" stroke-width="0.100" stroke-linecap="round" opacity="0.7"/><line x1="-3.000" y1="0.000" x2="-3.000" y2="-0.500" stroke="#4a5160" stroke-width="0.100" stroke-linecap="round" opacity="0.7"/><line x1="-3.000" y1="0.000" x2="-2.500" y2="0.000" stroke="#4a5160" stroke-width="0.100" stroke-linecap="round" opacity="0.7"/><line x1="-3.000" y1="0.500" x2="-3.000" y2="0.000" stroke="#4a5160" stroke-width="0.100" stroke-linecap="round" opacity="0.7"/><line x1="-0.500" y1="-3.000" x2="0.000" y2="-3.000" stroke="#4a5160" stroke-width="0.100" stroke-linecap="round" opacity="0.7"/><line x1="-0.500" y1="0.000" x2="0.000" y2="0.000" stroke="#4a5160" stroke-width="0.100" stroke-linecap="round" opacity="0.7"/><line x1="-0.500" y1="3.000" x2="0.000" y2="3.000" stroke="#4a5160" stroke-width="0.100" stroke-linecap="round" opacity="0.7"/><line x1="0.000" y1="-3.000" x2="0.000" y2="-3.500" stroke="#4a5160" stroke-width="0.100" stroke-linecap="round" opacity="0.7"/><line x1="0.000" y1="-3.000" x2="0.500" y2="-3.000" stroke="#4a5160" stroke-width="0.100" stroke-linecap="round" opacity="0.7"/><line x1="0.000" y1="-2.500" x2="0.000" y2="-3.000" stroke="#4a5160" stroke-width="0.100" stroke-linecap="round" opacity="0.7"/><line x1="0.000" y1="0.000" x2="0.000" y2="-0.500" stroke="#4a5160" stroke-width="0.100" stroke-linecap="round" opacity="0.7"/><line x1="0.000" y1="0.000" x2="0.500" y2="0.000" stroke="#4a5160" stroke-width="0.100" stroke-linecap="round" opacity="0.7"/><line x1="0.000" y1="0.500" x2="0.000" y2="0.000" stroke="#4a5160" stroke-width="0.100" stroke-linecap="round" opacity="0.7"/><line x1="0.000" y1="3.000" x2="0.000" y2="2.500" stroke="#4a5160" stroke-width="0.100" stroke-linecap="round" opacity="0.7"/><line x1="0.000" y1="3.000" x2="0.500" y2="3.000" stroke="#4a5160" stroke-width="0.100" stroke-linecap="round" opacity="0.7"/><line x1="0.000" y1="3.500" x2="0.000" y2="3.000" stroke="#4a5160" stroke-width="0.100" stroke-linecap="round" opacity="0.7"/><line x1="2.500" y1="0.000" x2="3.000" y2="0.000" stroke="#4a5160" stroke-width="0.100" stroke-linecap="round" opacity="0.7"/><line x1="3.000" y1="0.000" x2="3.000" y2="-0.500" stroke="#4a5160" stroke-width="0.100" stroke-linecap="round" opacity="0.7"/><line x1="3.000" y1="0.000" x2="3.500" y2="0.000" stroke="#4a5160" stroke-width="0.100" stroke-linecap="round" opacity="0.7"/><line x1="3.000" y1="0.500" x2="3.000" y2="0.000" stroke="#4a5160" stroke-width="0.100" stroke-linecap="round" opacity="0.7"/><line x1="8.650" y1="-9.150" x2="9.150" y2="-9.150" stroke="#4a5160" stroke-width="0.100" stroke-linecap="round" opacity="0.7"/><line x1="8.650" y1="9.150" x2="9.150" y2="9.150" stroke="#4a5160" stroke-width="0.100" stroke-linecap="round" opacity="0.7"/><line x1="9.150" y1="-9.150" x2="9.150" y2="-9.650" stroke="#4a5160" stroke-width="0.100" stroke-linecap="round" opacity="0.7"/><line x1="9.150" y1="-9.150" x2="9.650" y2="-9.150" stroke="#4a5160" stroke-width="0.100" stroke-linecap="round" opacity="0.7"/><line x1="9.150" y1="-8.650" x2="9.150" y2="-9.150" stroke="#4a5160" stroke-width="0.100" stroke-linecap="round" opacity="0.7"/><line x1="9.150" y1="9.150" x2="9.150" y2="8.650" stroke="#4a5160" stroke-width="0.100" stroke-linecap="round" opacity="0.7"/><line x1="9.150" y1="9.150" x2="9.650" y2="9.150" stroke="#4a5160" stroke-width="0.100" stroke-linecap="round" opacity="0.7"/><line x1="9.150" y1="9.650" x2="9.150" y2="9.150" stroke="#4a5160" stroke-width="0.100" stroke-linecap="round" opacity="0.7"/><line x1="-11.900" y1="9.900" x2="-11.900" y2="-9.900" stroke="#6b7280" stroke-width="0.100" stroke-linecap="round" opacity="0.8"/><line x1="-9.900" y1="-11.900" x2="9.900" y2="-11.900" stroke="#6b7280" stroke-width="0.100" stroke-linecap="round" opacity="0.8"/><line x1="-9.900" y1="11.900" x2="9.900" y2="11.900" stroke="#6b7280" stroke-width="0.100" stroke-linecap="round" opacity="0.8"/><line x1="-7.861" y1="-3.384" x2="-6.937" y2="-2.850" stroke="#6b7280" stroke-width="0.100" stroke-linecap="round" opacity="0.8"/><line x1="-7.861" y1="-3.384" x2="-6.861" y2="-5.116" stroke="#6b7280" stroke-width="0.100" stroke-linecap="round" opacity="0.8"/><line x1="-6.861" y1="-5.116" x2="-5.937" y2="-4.583" stroke="#6b7280" stroke-width="0.100" stroke-linecap="round" opacity="0.8"/><line x1="-6.785" y1="0.938" x2="-6.235" y2="0.791" stroke="#6b7280" stroke-width="0.100" stroke-linecap="round" opacity="0.8"/><line x1="-6.345" y1="2.580" x2="-5.795" y2="2.433" stroke="#6b7280" stroke-width="0.100" stroke-linecap="round" opacity="0.8"/><line x1="-5.020" y1="4.660" x2="-4.654" y2="4.224" stroke="#6b7280" stroke-width="0.100" stroke-linecap="round" opacity="0.8"/><line x1="-3.718" y1="5.753" x2="-3.352" y2="5.317" stroke="#6b7280" stroke-width="0.100" stroke-linecap="round" opacity="0.8"/><line x1="-1.869" y1="1.131" x2="-1.131" y2="1.869" stroke="#6b7280" stroke-width="0.100" stroke-linecap="round" opacity="0.8"/><line x1="-1.650" y1="-6.065" x2="-1.650" y2="-6.648" stroke="#6b7280" stroke-width="0.100" stroke-linecap="round" opacity="0.8"/><line x1="-1.000" y1="8.500" x2="-1.000" y2="7.433" stroke="#6b7280" stroke-width="0.100" stroke-linecap="round" opacity="0.8"/><line x1="-1.000" y1="8.500" x2="1.000" y2="8.500" stroke="#6b7280" stroke-width="0.100" stroke-linecap="round" opacity="0.8"/><line x1="1.000" y1="8.500" x2="1.000" y2="7.433" stroke="#6b7280" stroke-width="0.100" stroke-linecap="round" opacity="0.8"/><line x1="1.131" y1="-1.869" x2="1.869" y2="-1.131" stroke="#6b7280" stroke-width="0.100" stroke-linecap="round" opacity="0.8"/><line x1="1.131" y1="1.869" x2="1.869" y2="1.131" stroke="#6b7280" stroke-width="0.100" stroke-linecap="round" opacity="0.8"/><line x1="1.650" y1="-6.065" x2="1.650" y2="-6.648" stroke="#6b7280" stroke-width="0.100" stroke-linecap="round" opacity="0.8"/><line x1="2.876" y1="5.589" x2="3.202" y2="6.055" stroke="#6b7280" stroke-width="0.100" stroke-linecap="round" opacity="0.8"/><line x1="4.268" y1="4.614" x2="4.595" y2="5.080" stroke="#6b7280" stroke-width="0.100" stroke-linecap="round" opacity="0.8"/><line x1="5.937" y1="-4.583" x2="6.861" y2="-5.116" stroke="#6b7280" stroke-width="0.100" stroke-linecap="round" opacity="0.8"/><line x1="6.130" y1="1.390" x2="6.697" y2="1.439" stroke="#6b7280" stroke-width="0.100" stroke-linecap="round" opacity="0.8"/><line x1="6.278" y1="-0.304" x2="6.845" y2="-0.254" stroke="#6b7280" stroke-width="0.100" stroke-linecap="round" opacity="0.8"/><line x1="6.861" y1="-5.116" x2="7.861" y2="-3.384" stroke="#6b7280" stroke-width="0.100" stroke-linecap="round" opacity="0.8"/><line x1="6.937" y1="-2.850" x2="7.861" y2="-3.384" stroke="#6b7280" stroke-width="0.100" stroke-linecap="round" opacity="0.8"/><line x1="11.900" y1="9.900" x2="11.900" y2="-9.900" stroke="#6b7280" stroke-width="0.100" stroke-linecap="round" opacity="0.8"/><line x1="-12.500" y1="-12.500" x2="12.500" y2="-12.500" stroke="#d24d4d" stroke-width="0.080" stroke-linecap="round" opacity="0.7"/><line x1="12.500" y1="-12.500" x2="12.500" y2="12.500" stroke="#d24d4d" stroke-width="0.080" stroke-linecap="round" opacity="0.7"/><line x1="12.500" y1="12.500" x2="-12.500" y2="12.500" stroke="#d24d4d" stroke-width="0.080" stroke-linecap="round" opacity="0.7"/><line x1="-12.500" y1="12.500" x2="-12.500" y2="-12.500" stroke="#d24d4d" stroke-width="0.080" stroke-linecap="round" opacity="0.7"/><path d="M -6.345 2.580 A 6.850 6.850 0 0 1 -6.785 0.938" fill="none" stroke="#e6e9ef" stroke-width="0.12" opacity="1"/><path d="M -6.235 0.791 A 6.285 6.285 0 0 1 -1.650 -6.065" fill="none" stroke="#e6e9ef" stroke-width="0.12" opacity="1"/><path d="M -4.654 4.224 A 6.285 6.285 0 0 1 -5.795 2.433" fill="none" stroke="#e6e9ef" stroke-width="0.12" opacity="1"/><path d="M -3.718 5.753 A 6.850 6.850 0 0 1 -5.020 4.660" fill="none" stroke="#e6e9ef" stroke-width="0.12" opacity="1"/><path d="M -1.650 -6.648 A 6.850 6.850 0 0 1 1.650 -6.648" fill="none" stroke="#e6e9ef" stroke-width="0.12" opacity="1"/><path d="M 1.650 -6.065 A 6.285 6.285 0 0 1 6.278 -0.304" fill="none" stroke="#e6e9ef" stroke-width="0.12" opacity="1"/><path d="M 2.876 5.589 A 6.285 6.285 0 0 1 -3.352 5.317" fill="none" stroke="#e6e9ef" stroke-width="0.12" opacity="1"/><path d="M 4.595 5.080 A 6.850 6.850 0 0 1 3.202 6.055" fill="none" stroke="#e6e9ef" stroke-width="0.12" opacity="1"/><path d="M 6.130 1.390 A 6.285 6.285 0 0 1 4.268 4.614" fill="none" stroke="#e6e9ef" stroke-width="0.12" opacity="1"/><path d="M 6.845 -0.254 A 6.850 6.850 0 0 1 6.697 1.439" fill="none" stroke="#e6e9ef" stroke-width="0.12" opacity="1"/><path d="M -11.900 -9.900 A 2.000 2.000 0 0 1 -9.900 -11.900" fill="none" stroke="#6b7280" stroke-width="0.12" opacity="0.8"/><path d="M -10.312 -9.506 A 0.490 0.490 0 0 1 -10.312 -8.794" fill="none" stroke="#6b7280" stroke-width="0.12" opacity="0.8"/><path d="M -10.312 8.794 A 0.490 0.490 0 0 1 -10.312 9.506" fill="none" stroke="#6b7280" stroke-width="0.12" opacity="0.8"/><path d="M -10.312 -9.506 A 0.280 0.280 0 0 1 -10.040 -9.978" fill="none" stroke="#6b7280" stroke-width="0.12" opacity="0.8"/><path d="M -10.312 8.794 A 0.280 0.280 0 0 1 -10.040 8.322" fill="none" stroke="#6b7280" stroke-width="0.12" opacity="0.8"/><path d="M -10.040 -8.322 A 0.490 0.490 0 0 1 -9.422 -7.965" fill="none" stroke="#6b7280" stroke-width="0.12" opacity="0.8"/><path d="M -10.040 -8.322 A 0.280 0.280 0 0 1 -10.312 -8.794" fill="none" stroke="#6b7280" stroke-width="0.12" opacity="0.8"/><path d="M -10.040 9.978 A 0.490 0.490 0 0 1 -9.422 10.335" fill="none" stroke="#6b7280" stroke-width="0.12" opacity="0.8"/><path d="M -10.040 9.978 A 0.280 0.280 0 0 1 -10.312 9.506" fill="none" stroke="#6b7280" stroke-width="0.12" opacity="0.8"/><path d="M -9.900 11.900 A 2.000 2.000 0 0 1 -11.900 9.900" fill="none" stroke="#6b7280" stroke-width="0.12" opacity="0.8"/><path d="M -9.422 -10.335 A 0.280 0.280 0 0 1 -8.878 -10.335" fill="none" stroke="#6b7280" stroke-width="0.12" opacity="0.8"/><path d="M -9.422 7.965 A 0.280 0.280 0 0 1 -8.878 7.965" fill="none" stroke="#6b7280" stroke-width="0.12" opacity="0.8"/><path d="M -9.422 -10.335 A 0.490 0.490 0 0 1 -10.040 -9.978" fill="none" stroke="#6b7280" stroke-width="0.12" opacity="0.8"/><path d="M -9.422 7.965 A 0.490 0.490 0 0 1 -10.040 8.322" fill="none" stroke="#6b7280" stroke-width="0.12" opacity="0.8"/><path d="M -8.878 -7.965 A 0.280 0.280 0 0 1 -9.422 -7.965" fill="none" stroke="#6b7280" stroke-width="0.12" opacity="0.8"/><path d="M -8.878 10.335 A 0.280 0.280 0 0 1 -9.422 10.335" fill="none" stroke="#6b7280" stroke-width="0.12" opacity="0.8"/><path d="M -8.878 -7.965 A 0.490 0.490 0 0 1 -8.260 -8.322" fill="none" stroke="#6b7280" stroke-width="0.12" opacity="0.8"/><path d="M -8.878 10.335 A 0.490 0.490 0 0 1 -8.260 9.978" fill="none" stroke="#6b7280" stroke-width="0.12" opacity="0.8"/><path d="M -8.260 -9.978 A 0.280 0.280 0 0 1 -7.988 -9.506" fill="none" stroke="#6b7280" stroke-width="0.12" opacity="0.8"/><path d="M -8.260 -9.978 A 0.490 0.490 0 0 1 -8.878 -10.335" fill="none" stroke="#6b7280" stroke-width="0.12" opacity="0.8"/><path d="M -8.260 8.322 A 0.280 0.280 0 0 1 -7.988 8.794" fill="none" stroke="#6b7280" stroke-width="0.12" opacity="0.8"/><path d="M -8.260 8.322 A 0.490 0.490 0 0 1 -8.878 7.965" fill="none" stroke="#6b7280" stroke-width="0.12" opacity="0.8"/><path d="M -7.988 -8.794 A 0.280 0.280 0 0 1 -8.260 -8.322" fill="none" stroke="#6b7280" stroke-width="0.12" opacity="0.8"/><path d="M -7.988 9.506 A 0.280 0.280 0 0 1 -8.260 9.978" fill="none" stroke="#6b7280" stroke-width="0.12" opacity="0.8"/><path d="M -7.988 -8.794 A 0.490 0.490 0 0 1 -7.988 -9.506" fill="none" stroke="#6b7280" stroke-width="0.12" opacity="0.8"/><path d="M -7.988 9.506 A 0.490 0.490 0 0 1 -7.988 8.794" fill="none" stroke="#6b7280" stroke-width="0.12" opacity="0.8"/><path d="M -6.345 2.580 A 6.850 6.850 0 0 1 -6.785 0.938" fill="none" stroke="#6b7280" stroke-width="0.12" opacity="0.8"/><path d="M -6.235 0.791 A 6.285 6.285 0 0 1 -1.650 -6.065" fill="none" stroke="#6b7280" stroke-width="0.12" opacity="0.8"/><path d="M -4.654 4.224 A 6.285 6.285 0 0 1 -5.795 2.433" fill="none" stroke="#6b7280" stroke-width="0.12" opacity="0.8"/><path d="M -3.718 5.753 A 6.850 6.850 0 0 1 -5.020 4.660" fill="none" stroke="#6b7280" stroke-width="0.12" opacity="0.8"/><path d="M -1.650 -6.648 A 6.850 6.850 0 0 1 1.650 -6.648" fill="none" stroke="#6b7280" stroke-width="0.12" opacity="0.8"/><path d="M 1.650 -6.065 A 6.285 6.285 0 0 1 6.278 -0.304" fill="none" stroke="#6b7280" stroke-width="0.12" opacity="0.8"/><path d="M 2.876 5.589 A 6.285 6.285 0 0 1 -3.352 5.317" fill="none" stroke="#6b7280" stroke-width="0.12" opacity="0.8"/><path d="M 4.595 5.080 A 6.850 6.850 0 0 1 3.202 6.055" fill="none" stroke="#6b7280" stroke-width="0.12" opacity="0.8"/><path d="M 6.130 1.390 A 6.285 6.285 0 0 1 4.268 4.614" fill="none" stroke="#6b7280" stroke-width="0.12" opacity="0.8"/><path d="M 6.845 -0.254 A 6.850 6.850 0 0 1 6.697 1.439" fill="none" stroke="#6b7280" stroke-width="0.12" opacity="0.8"/><path d="M 7.988 -9.506 A 0.490 0.490 0 0 1 7.988 -8.794" fill="none" stroke="#6b7280" stroke-width="0.12" opacity="0.8"/><path d="M 7.988 8.794 A 0.490 0.490 0 0 1 7.988 9.506" fill="none" stroke="#6b7280" stroke-width="0.12" opacity="0.8"/><path d="M 7.988 -9.506 A 0.280 0.280 0 0 1 8.260 -9.978" fill="none" stroke="#6b7280" stroke-width="0.12" opacity="0.8"/><path d="M 7.988 8.794 A 0.280 0.280 0 0 1 8.260 8.322" fill="none" stroke="#6b7280" stroke-width="0.12" opacity="0.8"/><path d="M 8.260 -8.322 A 0.490 0.490 0 0 1 8.878 -7.965" fill="none" stroke="#6b7280" stroke-width="0.12" opacity="0.8"/><path d="M 8.260 -8.322 A 0.280 0.280 0 0 1 7.988 -8.794" fill="none" stroke="#6b7280" stroke-width="0.12" opacity="0.8"/><path d="M 8.260 9.978 A 0.490 0.490 0 0 1 8.878 10.335" fill="none" stroke="#6b7280" stroke-width="0.12" opacity="0.8"/><path d="M 8.260 9.978 A 0.280 0.280 0 0 1 7.988 9.506" fill="none" stroke="#6b7280" stroke-width="0.12" opacity="0.8"/><path d="M 8.878 -10.335 A 0.490 0.490 0 0 1 8.260 -9.978" fill="none" stroke="#6b7280" stroke-width="0.12" opacity="0.8"/><path d="M 8.878 7.965 A 0.490 0.490 0 0 1 8.260 8.322" fill="none" stroke="#6b7280" stroke-width="0.12" opacity="0.8"/><path d="M 8.878 -10.335 A 0.280 0.280 0 0 1 9.422 -10.335" fill="none" stroke="#6b7280" stroke-width="0.12" opacity="0.8"/><path d="M 8.878 7.965 A 0.280 0.280 0 0 1 9.422 7.965" fill="none" stroke="#6b7280" stroke-width="0.12" opacity="0.8"/><path d="M 9.422 -7.965 A 0.490 0.490 0 0 1 10.040 -8.322" fill="none" stroke="#6b7280" stroke-width="0.12" opacity="0.8"/><path d="M 9.422 10.335 A 0.490 0.490 0 0 1 10.040 9.978" fill="none" stroke="#6b7280" stroke-width="0.12" opacity="0.8"/><path d="M 9.422 -7.965 A 0.280 0.280 0 0 1 8.878 -7.965" fill="none" stroke="#6b7280" stroke-width="0.12" opacity="0.8"/><path d="M 9.422 10.335 A 0.280 0.280 0 0 1 8.878 10.335" fill="none" stroke="#6b7280" stroke-width="0.12" opacity="0.8"/><path d="M 9.900 -11.900 A 2.000 2.000 0 0 1 11.900 -9.900" fill="none" stroke="#6b7280" stroke-width="0.12" opacity="0.8"/><path d="M 10.040 -9.978 A 0.280 0.280 0 0 1 10.312 -9.506" fill="none" stroke="#6b7280" stroke-width="0.12" opacity="0.8"/><path d="M 10.040 -9.978 A 0.490 0.490 0 0 1 9.422 -10.335" fill="none" stroke="#6b7280" stroke-width="0.12" opacity="0.8"/><path d="M 10.040 8.322 A 0.280 0.280 0 0 1 10.312 8.794" fill="none" stroke="#6b7280" stroke-width="0.12" opacity="0.8"/><path d="M 10.040 8.322 A 0.490 0.490 0 0 1 9.422 7.965" fill="none" stroke="#6b7280" stroke-width="0.12" opacity="0.8"/><path d="M 10.312 -8.794 A 0.280 0.280 0 0 1 10.040 -8.322" fill="none" stroke="#6b7280" stroke-width="0.12" opacity="0.8"/><path d="M 10.312 9.506 A 0.280 0.280 0 0 1 10.040 9.978" fill="none" stroke="#6b7280" stroke-width="0.12" opacity="0.8"/><path d="M 10.312 -8.794 A 0.490 0.490 0 0 1 10.312 -9.506" fill="none" stroke="#6b7280" stroke-width="0.12" opacity="0.8"/><path d="M 10.312 9.506 A 0.490 0.490 0 0 1 10.312 8.794" fill="none" stroke="#6b7280" stroke-width="0.12" opacity="0.8"/><path d="M 11.900 9.900 A 2.000 2.000 0 0 1 9.900 11.900" fill="none" stroke="#6b7280" stroke-width="0.12" opacity="0.8"/><circle cx="-3.000" cy="0.000" r="1.600" fill="none" stroke="#e6e9ef" stroke-width="0.12" opacity="1"/><circle cx="0.000" cy="-3.000" r="1.600" fill="none" stroke="#e6e9ef" stroke-width="0.12" opacity="1"/><circle cx="0.000" cy="-3.000" r="1.500" fill="none" stroke="#e6e9ef" stroke-width="0.12" opacity="1"/><circle cx="0.000" cy="0.000" r="7.500" fill="none" stroke="#e6e9ef" stroke-width="0.12" opacity="1"/><circle cx="0.000" cy="0.000" r="5.150" fill="none" stroke="#e6e9ef" stroke-width="0.12" opacity="1"/><circle cx="0.000" cy="3.000" r="1.600" fill="none" stroke="#e6e9ef" stroke-width="0.12" opacity="1"/><circle cx="3.000" cy="0.000" r="1.600" fill="none" stroke="#e6e9ef" stroke-width="0.12" opacity="1"/><circle cx="-9.150" cy="-9.150" r="2.800" fill="none" stroke="#6b7280" stroke-width="0.12" opacity="0.8"/><circle cx="-9.150" cy="9.150" r="2.800" fill="none" stroke="#6b7280" stroke-width="0.12" opacity="0.8"/><circle cx="-3.000" cy="0.000" r="1.600" fill="none" stroke="#6b7280" stroke-width="0.12" opacity="0.8"/><circle cx="0.000" cy="-3.000" r="1.600" fill="none" stroke="#6b7280" stroke-width="0.12" opacity="0.8"/><circle cx="0.000" cy="0.000" r="7.500" fill="none" stroke="#6b7280" stroke-width="0.12" opacity="0.8"/><circle cx="0.000" cy="0.000" r="5.150" fill="none" stroke="#6b7280" stroke-width="0.12" opacity="0.8"/><circle cx="0.000" cy="3.000" r="1.600" fill="none" stroke="#6b7280" stroke-width="0.12" opacity="0.8"/><circle cx="3.000" cy="0.000" r="1.600" fill="none" stroke="#6b7280" stroke-width="0.12" opacity="0.8"/><circle cx="9.150" cy="-9.150" r="2.800" fill="none" stroke="#6b7280" stroke-width="0.12" opacity="0.8"/><circle cx="9.150" cy="9.150" r="2.800" fill="none" stroke="#6b7280" stroke-width="0.12" opacity="0.8"/><rect x="-0.950" y="-3.950" width="1.900" height="1.900" rx="0.950" fill="#c79b5c"/><circle cx="0.000" cy="-3.000" r="0.600" fill="#12151c"/><rect x="2.050" y="-0.950" width="1.900" height="1.900" rx="0.950" fill="#c79b5c"/><circle cx="3.000" cy="0.000" r="0.600" fill="#12151c"/><rect x="-0.950" y="2.050" width="1.900" height="1.900" rx="0.950" fill="#c79b5c"/><circle cx="0.000" cy="3.000" r="0.600" fill="#12151c"/><rect x="-3.950" y="-0.950" width="1.900" height="1.900" rx="0.950" fill="#c79b5c"/><circle cx="-3.000" cy="0.000" r="0.600" fill="#12151c"/><rect x="-12.250" y="-12.250" width="6.200" height="6.200" rx="3.100" fill="#c79b5c"/><circle cx="-9.150" cy="-9.150" r="1.600" fill="#12151c"/><rect x="6.050" y="-12.250" width="6.200" height="6.200" rx="3.100" fill="#c79b5c"/><circle cx="9.150" cy="-9.150" r="1.600" fill="#12151c"/><rect x="6.050" y="6.050" width="6.200" height="6.200" rx="3.100" fill="#c79b5c"/><circle cx="9.150" cy="9.150" r="1.600" fill="#12151c"/><rect x="-12.250" y="6.050" width="6.200" height="6.200" rx="3.100" fill="#c79b5c"/><circle cx="-9.150" cy="9.150" r="1.600" fill="#12151c"/></svg>