<svg xmlns="http://www.w3.org/2000/svg" viewBox="-6.58 -1.50 25.86 137.62" preserveAspectRatio="xMidYMid meet" style="width:100%;height:100%"><rect x="-6.58" y="-1.50" width="25.86" height="137.62" fill="#12151c"/><polyline points="0.000,128.778 0.000,0.762" fill="none" stroke="#4ea1ff" stroke-width="0.25" stroke-linejoin="round"/><polyline points="1.778,5.080 0.000,5.080" fill="none" stroke="#4ea1ff" stroke-width="0.25" stroke-linejoin="round"/><polyline points="1.778,10.160 0.000,10.160" fill="none" stroke="#4ea1ff" stroke-width="0.25" stroke-linejoin="round"/><polyline points="1.778,15.240 0.000,15.240" fill="none" stroke="#4ea1ff" stroke-width="0.25" stroke-linejoin="round"/><polyline points="1.778,20.320 0.000,20.320" fill="none" stroke="#4ea1ff" stroke-width="0.25" stroke-linejoin="round"/><polyline points="1.778,25.400 0.000,25.400" fill="none" stroke="#4ea1ff" stroke-width="0.25" stroke-linejoin="round"/><polyline points="1.778,30.480 0.000,30.480" fill="none" stroke="#4ea1ff" stroke-width="0.25" stroke-linejoin="round"/><polyline points="1.778,35.560 0.000,35.560" fill="none" stroke="#4ea1ff" stroke-width="0.25" stroke-linejoin="round"/><polyline points="1.778,40.640 0.000,40.640" fill="none" stroke="#4ea1ff" stroke-width="0.25" stroke-linejoin="round"/><polyline points="1.778,45.720 0.000,45.720" fill="none" stroke="#4ea1ff" stroke-width="0.25" stroke-linejoin="round"/><polyline points="1.778,50.800 0.000,50.800" fill="none" stroke="#4ea1ff" stroke-width="0.25" stroke-linejoin="round"/><polyline points="1.778,55.880 0.000,55.880" fill="none" stroke="#4ea1ff" stroke-width="0.25" stroke-linejoin="round"/><polyline points="1.778,60.960 0.000,60.960" fill="none" stroke="#4ea1ff" stroke-width="0.25" stroke-linejoin="round"/><polyline points="1.778,66.040 0.000,66.040" fill="none" stroke="#4ea1ff" stroke-width="0.25" stroke-linejoin="round"/><polyline points="1.778,71.120 0.000,71.120" fill="none" stroke="#4ea1ff" stroke-width="0.25" stroke-linejoin="round"/><polyline points="1.778,76.200 0.000,76.200" fill="none" stroke="#4ea1ff" stroke-width="0.25" stroke-linejoin="round"/><polyline points="1.778,81.280 0.000,81.280" fill="none" stroke="#4ea1ff" stroke-width="0.25" stroke-linejoin="round"/><polyline points="1.778,86.360 0.000,86.360" fill="none" stroke="#4ea1ff" stroke-width="0.25" stroke-linejoin="round"/><polyline points="1.778,91.440 0.000,91.440" fill="none" stroke="#4ea1ff" stroke-width="0.25" stroke-linejoin="round"/><polyline points="1.778,96.520 0.000,96.520" fill="none" stroke="#4ea1ff" stroke-width="0.25" stroke-linejoin="round"/><polyline points="1.778,101.600 0.000,101.600" fill="none" stroke="#4ea1ff" stroke-width="0.25" stroke-linejoin="round"/><polyline points="1.778,106.680 0.000,106.680" fill="none" stroke="#4ea1ff" stroke-width="0.25" stroke-linejoin="round"/><polyline points="1.778,111.760 0.000,111.760" fill="none" stroke="#4ea1ff" stroke-width="0.25" stroke-linejoin="round"/><polyline points="1.778,116.840 0.000,116.840" fill="none" stroke="#4ea1ff" stroke-width="0.25" stroke-linejoin="round"/><polyline points="1.778,121.920 0.000,121.920" fill="none" stroke="#4ea1ff" stroke-width="0.25" stroke-linejoin="round"/><polyline points="1.778,127.000 0.000,127.000" fill="none" stroke="#4ea1ff" stroke-width="0.25" stroke-linejoin="round"/><polyline points="4.318,2.540 0.000,2.540" fill="none" stroke="#4ea1ff" stroke-width="0.25" stroke-linejoin="round"/><polyline points="4.318,7.620 0.000,7.620" fill="none" stroke="#4ea1ff" stroke-width="0.25" stroke-linejoin="round"/><polyline points="4.318,12.700 0.000,12.700" fill="none" stroke="#4ea1ff" stroke-width="0.25" stroke-linejoin="round"/><polyline points="4.318,17.780 0.000,17.780" fill="none" stroke="#4ea1ff" stroke-width="0.25" stroke-linejoin="round"/><polyline points="4.318,22.860 0.000,22.860" fill="none" stroke="#4ea1ff" stroke-width="0.25" stroke-linejoin="round"/><polyline points="4.318,27.940 0.000,27.940" fill="none" stroke="#4ea1ff" stroke-width="0.25" stroke-linejoin="round"/><polyline points="4.318,33.020 0.000,33.020" fill="none" stroke="#4ea1ff" stroke-width="0.25" stroke-linejoin="round"/><polyline points="4.318,38.100 0.000,38.100" fill="none" stroke="#4ea1ff" stroke-width="0.25" stroke-linejoin="round"/><polyline points="4.318,43.180 0.000,43.180" fill="none" stroke="#4ea1ff" stroke-width="0.25" stroke-linejoin="round"/><polyline points="4.318,48.260 0.000,48.260" fill="none" stroke="#4ea1ff" stroke-width="0.25" stroke-linejoin="round"/><polyline points="4.318,53.340 0.000,53.340" fill="none" stroke="#4ea1ff" stroke-width="0.25" stroke-linejoin="round"/><polyline points="4.318,58.420 0.000,58.420" fill="none" stroke="#4ea1ff" stroke-width="0.25" stroke-linejoin="round"/><polyline points="4.318,63.500 0.000,63.500" fill="none" stroke="#4ea1ff" stroke-width="0.25" stroke-linejoin="round"/><polyline points="4.318,68.580 0.000,68.580" fill="none" stroke="#4ea1ff" stroke-width="0.25" stroke-linejoin="round"/><polyline points="4.318,73.660 0.000,73.660" fill="none" stroke="#4ea1ff" stroke-width="0.25" stroke-linejoin="round"/><polyline points="4.318,78.740 0.000,78.740" fill="none" stroke="#4ea1ff" stroke-width="0.25" stroke-linejoin="round"/><polyline points="4.318,83.820 0.000,83.820" fill="none" stroke="#4ea1ff" stroke-width="0.25" stroke-linejoin="round"/><polyline points="4.318,88.900 0.000,88.900" fill="none" stroke="#4ea1ff" stroke-width="0.25" stroke-linejoin="round"/><polyline points="4.318,93.980 0.000,93.980" fill="none" stroke="#4ea1ff" stroke-width="0.25" stroke-linejoin="round"/><polyline points="4.318,99.060 0.000,99.060" fill="none" stroke="#4ea1ff" stroke-width="0.25" stroke-linejoin="round"/><polyline points="4.318,104.140 0.000,104.140" fill="none" stroke="#4ea1ff" stroke-width="0.25" stroke-linejoin="round"/><polyline points="4.318,109.220 0.000,109.220" fill="none" stroke="#4ea1ff" stroke-width="0.25" stroke-linejoin="round"/><polyline points="4.318,114.300 0.000,114.300" fill="none" stroke="#4ea1ff" stroke-width="0.25" stroke-linejoin="round"/><polyline points="4.318,119.380 0.000,119.380" fill="none" stroke="#4ea1ff" stroke-width="0.25" stroke-linejoin="round"/><polyline points="4.318,124.460 0.000,124.460" fill="none" stroke="#4ea1ff" stroke-width="0.25" stroke-linejoin="round"/><polyline points="8.382,5.080 12.700,5.080" fill="none" stroke="#4ea1ff" stroke-width="0.25" stroke-linejoin="round"/><polyline points="8.382,10.160 12.700,10.160" fill="none" stroke="#4ea1ff" stroke-width="0.25" stroke-linejoin="round"/><polyline points="8.382,15.240 12.700,15.240" fill="none" stroke="#4ea1ff" stroke-width="0.25" stroke-linejoin="round"/><polyline points="8.382,20.320 12.700,20.320" fill="none" stroke="#4ea1ff" stroke-width="0.25" stroke-linejoin="round"/><polyline points="8.382,25.400 12.700,25.400" fill="none" stroke="#4ea1ff" stroke-width="0.25" stroke-linejoin="round"/><polyline points="8.382,30.480 12.700,30.480" fill="none" stroke="#4ea1ff" stroke-width="0.25" stroke-linejoin="round"/><polyline points="8.382,35.560 12.700,35.560" fill="none" stroke="#4ea1ff" stroke-width="0.25" stroke-linejoin="round"/><polyline points="8.382,40.640 12.700,40.640" fill="none" stroke="#4ea1ff" stroke-width="0.25" stroke-linejoin="round"/><polyline points="8.382,45.720 12.700,45.720" fill="none" stroke="#4ea1ff" stroke-width="0.25" stroke-linejoin="round"/><polyline points="8.382,50.800 12.700,50.800" fill="none" stroke="#4ea1ff" stroke-width="0.25" stroke-linejoin="round"/><polyline points="8.382,55.880 12.700,55.880" fill="none" stroke="#4ea1ff" stroke-width="0.25" stroke-linejoin="round"/><polyline points="8.382,60.960 12.700,60.960" fill="none" stroke="#4ea1ff" stroke-width="0.25" stroke-linejoin="round"/><polyline points="8.382,66.040 12.700,66.040" fill="none" stroke="#4ea1ff" stroke-width="0.25" stroke-linejoin="round"/><polyline points="8.382,71.120 12.700,71.120" fill="none" stroke="#4ea1ff" stroke-width="0.25" stroke-linejoin="round"/><polyline points="8.382,76.200 12.700,76.200" fill="none" stroke="#4ea1ff" stroke-width="0.25" stroke-linejoin="round"/><polyline points="8.382,81.280 12.700,81.280" fill="none" stroke="#4ea1ff" stroke-width="0.25" stroke-linejoin="round"/><polyline points="8.382,86.360 12.700,86.360" fill="none" stroke="#4ea1ff" stroke-width="0.25" stroke-linejoin="round"/><polyline points="8.382,91.440 12.700,91.440" fill="none" stroke="#4ea1ff" stroke-width="0.25" stroke-linejoin="round"/><polyline points="8.382,96.520 12.700,96.520" fill="none" stroke="#4ea1ff" stroke-width="0.25" stroke-linejoin="round"/><polyline points="8.382,101.600 12.700,101.600" fill="none" stroke="#4ea1ff" stroke-width="0.25" stroke-linejoin="round"/><polyline points="8.382,106.680 12.700,106.680" fill="none" stroke="#4ea1ff" stroke-width="0.25" stroke-linejoin="round"/><polyline points="8.382,111.760 12.700,111.760" fill="none" stroke="#4ea1ff" stroke-width="0.25" stroke-linejoin="round"/><polyline points="8.382,116.840 12.700,116.840" fill="none" stroke="#4ea1ff" stroke-width="0.25" stroke-linejoin="round"/><polyline points="8.382,121.920 12.700,121.920" fill="none" stroke="#4ea1ff" stroke-width="0.25" stroke-linejoin="round"/><polyline points="8.382,127.000 12.700,127.000" fill="none" stroke="#4ea1ff" stroke-width="0.25" stroke-linejoin="round"/><polyline points="10.922,2.540 12.700,2.540" fill="none" stroke="#4ea1ff" stroke-width="0.25" stroke-linejoin="round"/><polyline points="10.922,7.620 12.700,7.620" fill="none" stroke="#4ea1ff" stroke-width="0.25" stroke-linejoin="round"/><polyline points="10.922,12.700 12.700,12.700" fill="none" stroke="#4ea1ff" stroke-width="0.25" stroke-linejoin="round"/><polyline points="10.922,17.780 12.700,17.780" fill="none" stroke="#4ea1ff" stroke-width="0.25" stroke-linejoin="round"/><polyline points="10.922,22.860 12.700,22.860" fill="none" stroke="#4ea1ff" stroke-width="0.25" stroke-linejoin="round"/><polyline points="10.922,27.940 12.700,27.940" fill="none" stroke="#4ea1ff" stroke-width="0.25" stroke-linejoin="round"/><polyline points="10.922,33.020 12.700,33.020" fill="none" stroke="#4ea1ff" stroke-width="0.25" stroke-linejoin="round"/><polyline points="10.922,38.100 12.700,38.100" fill="none" stroke="#4ea1ff" stroke-width="0.25" stroke-linejoin="round"/><polyline points="10.922,43.180 12.700,43.180" fill="none" stroke="#4ea1ff" stroke-width="0.25" stroke-linejoin="round"/><polyline points="10.922,48.260 12.700,48.260" fill="none" stroke="#4ea1ff" stroke-width="0.25" stroke-linejoin="round"/><polyline points="10.922,53.340 12.700,53.340" fill="none" stroke="#4ea1ff" stroke-width="0.25" stroke-linejoin="round"/><polyline points="10.922,58.420 12.700,58.420" fill="none" stroke="#4ea1ff" stroke-width="0.25" stroke-linejoin="round"/><polyline points="10.922,63.500 12.700,63.500" fill="none" stroke="#4ea1ff" stroke-width="0.25" stroke-linejoin="round"/><polyline points="10.922,68.580 12.700,68.580" fill="none" stroke="#4ea1ff" stroke-width="0.25" stroke-linejoin="round"/><polyline points="10.922,73.660 12.700,73.660" fill="none" stroke="#4ea1ff" stroke-width="0.25" stroke-linejoin="round"/><polyline points="10.922,78.740 12.700,78.740" fill="none" stroke="#4ea1ff" stroke-width="0.25" stroke-linejoin="round"/><polyline points="10.922,83.820 12.700,83.820" fill="none" stroke="#4ea1ff" stroke-width="0.25" stroke-linejoin="round"/><polyline points="10.922,88.900 12.700,88.900" fill="none" stroke="#4ea1ff" stroke-width="0.25" stroke-linejoin="round"/><polyline points="10.922,93.980 12.700,93.980" fill="none" stroke="#4ea1ff" stroke-width="0.25" stroke-linejoin="round"/><polyline points="10.922,99.060 12.700,99.060" fill="none" stroke="#4ea1ff" stroke-width="0.25" stroke-linejoin="round"/><polyline points="10.922,104.140 12.700,104.140" fill="none" stroke="#4ea1ff" stroke-width="0.25" stroke-linejoin="round"/><polyline points="10.922,109.220 12.700,109.220" fill="none" stroke="#4ea1ff" stroke-width="0.25" stroke-linejoin="round"/><polyline points="10.922,114.300 12.700,114.300" fill="none" stroke="#4ea1ff" stroke-width="0.25" stroke-linejoin="round"/><polyline points="10.922,119.380 12.700,119.380" fill="none" stroke="#4ea1ff" stroke-width="0.25" stroke-linejoin="round"/><polyline points="10.922,124.460 12.700,124.460" fill="none" stroke="#4ea1ff" stroke-width="0.25" stroke-linejoin="round"/><polyline points="11.557,1.270 1.016,-0.000" fill="none" stroke="#4ea1ff" stroke-width="0.25" stroke-linejoin="round"/><polyline points="11.557,128.270 1.016,129.540" fill="none" stroke="#4ea1ff" stroke-width="0.25" stroke-linejoin="round"/><polyline points="12.700,127.000 12.700,2.540" fill="none" stroke="#4ea1ff" stroke-width="0.25" stroke-linejoin="round"/><circle cx="2.540" cy="5.080" r="0.762" fill="none" stroke="#4ea1ff" stroke-width="0.25"/><circle cx="2.540" cy="10.160" r="0.762" fill="none" stroke="#4ea1ff" stroke-width="0.25"/><circle cx="2.540" cy="15.240" r="0.762" fill="none" stroke="#4ea1ff" stroke-width="0.25"/><circle cx="2.540" cy="20.320" r="0.762" fill="none" stroke="#4ea1ff" stroke-width="0.25"/><circle cx="2.540" cy="25.400" r="0.762" fill="none" stroke="#4ea1ff" stroke-width="0.25"/><circle cx="2.540" cy="30.480" r="0.762" fill="none" stroke="#4ea1ff" stroke-width="0.25"/><circle cx="2.540" cy="35.560" r="0.762" fill="none" stroke="#4ea1ff" stroke-width="0.25"/><circle cx="2.540" cy="40.640" r="0.762" fill="none" stroke="#4ea1ff" stroke-width="0.25"/><circle cx="2.540" cy="45.720" r="0.762" fill="none" stroke="#4ea1ff" stroke-width="0.25"/><circle cx="2.540" cy="50.800" r="0.762" fill="none" stroke="#4ea1ff" stroke-width="0.25"/><circle cx="2.540" cy="55.880" r="0.762" fill="none" stroke="#4ea1ff" stroke-width="0.25"/><circle cx="2.540" cy="60.960" r="0.762" fill="none" stroke="#4ea1ff" stroke-width="0.25"/><circle cx="2.540" cy="66.040" r="0.762" fill="none" stroke="#4ea1ff" stroke-width="0.25"/><circle cx="2.540" cy="71.120" r="0.762" fill="none" stroke="#4ea1ff" stroke-width="0.25"/><circle cx="2.540" cy="76.200" r="0.762" fill="none" stroke="#4ea1ff" stroke-width="0.25"/><circle cx="2.540" cy="81.280" r="0.762" fill="none" stroke="#4ea1ff" stroke-width="0.25"/><circle cx="2.540" cy="86.360" r="0.762" fill="none" stroke="#4ea1ff" stroke-width="0.25"/><circle cx="2.540" cy="91.440" r="0.762" fill="none" stroke="#4ea1ff" stroke-width="0.25"/><circle cx="2.540" cy="96.520" r="0.762" fill="none" stroke="#4ea1ff" stroke-width="0.25"/><circle cx="2.540" cy="101.600" r="0.762" fill="none" stroke="#4ea1ff" stroke-width="0.25"/><circle cx="2.540" cy="106.680" r="0.762" fill="none" stroke="#4ea1ff" stroke-width="0.25"/><circle cx="2.540" cy="111.760" r="0.762" fill="none" stroke="#4ea1ff" stroke-width="0.25"/><circle cx="2.540" cy="116.840" r="0.762" fill="none" stroke="#4ea1ff" stroke-width="0.25"/><circle cx="2.540" cy="121.920" r="0.762" fill="none" stroke="#4ea1ff" stroke-width="0.25"/><circle cx="2.540" cy="127.000" r="0.762" fill="none" stroke="#4ea1ff" stroke-width="0.25"/><circle cx="5.080" cy="2.540" r="0.762" fill="none" stroke="#4ea1ff" stroke-width="0.25"/><circle cx="5.080" cy="7.620" r="0.762" fill="none" stroke="#4ea1ff" stroke-width="0.25"/><circle cx="5.080" cy="12.700" r="0.762" fill="none" stroke="#4ea1ff" stroke-width="0.25"/><circle cx="5.080" cy="17.780" r="0.762" fill="none" stroke="#4ea1ff" stroke-width="0.25"/><circle cx="5.080" cy="22.860" r="0.762" fill="none" stroke="#4ea1ff" stroke-width="0.25"/><circle cx="5.080" cy="27.940" r="0.762" fill="none" stroke="#4ea1ff" stroke-width="0.25"/><circle cx="5.080" cy="33.020" r="0.762" fill="none" stroke="#4ea1ff" stroke-width="0.25"/><circle cx="5.080" cy="38.100" r="0.762" fill="none" stroke="#4ea1ff" stroke-width="0.25"/><circle cx="5.080" cy="43.180" r="0.762" fill="none" stroke="#4ea1ff" stroke-width="0.25"/><circle cx="5.080" cy="48.260" r="0.762" fill="none" stroke="#4ea1ff" stroke-width="0.25"/><circle cx="5.080" cy="53.340" r="0.762" fill="none" stroke="#4ea1ff" stroke-width="0.25"/><circle cx="5.080" cy="58.420" r="0.762" fill="none" stroke="#4ea1ff" stroke-width="0.25"/><circle cx="5.080" cy="63.500" r="0.762" fill="none" stroke="#4ea1ff" stroke-width="0.25"/><circle cx="5.080" cy="68.580" r="0.762" fill="none" stroke="#4ea1ff" stroke-width="0.25"/><circle cx="5.080" cy="73.660" r="0.762" fill="none" stroke="#4ea1ff" stroke-width="0.25"/><circle cx="5.080" cy="78.740" r="0.762" fill="none" stroke="#4ea1ff" stroke-width="0.25"/><circle cx="5.080" cy="83.820" r="0.762" fill="none" stroke="#4ea1ff" stroke-width="0.25"/><circle cx="5.080" cy="88.900" r="0.762" fill="none" stroke="#4ea1ff" stroke-width="0.25"/><circle cx="5.080" cy="93.980" r="0.762" fill="none" stroke="#4ea1ff" stroke-width="0.25"/><circle cx="5.080" cy="99.060" r="0.762" fill="none" stroke="#4ea1ff" stroke-width="0.25"/><circle cx="5.080" cy="104.140" r="0.762" fill="none" stroke="#4ea1ff" stroke-width="0.25"/><circle cx="5.080" cy="109.220" r="0.762" fill="none" stroke="#4ea1ff" stroke-width="0.25"/><circle cx="5.080" cy="114.300" r="0.762" fill="none" stroke="#4ea1ff" stroke-width="0.25"/><circle cx="5.080" cy="119.380" r="0.762" fill="none" stroke="#4ea1ff" stroke-width="0.25"/><circle cx="5.080" cy="124.460" r="0.762" fill="none" stroke="#4ea1ff" stroke-width="0.25"/><circle cx="7.620" cy="5.080" r="0.762" fill="none" stroke="#4ea1ff" stroke-width="0.25"/><circle cx="7.620" cy="10.160" r="0.762" fill="none" stroke="#4ea1ff" stroke-width="0.25"/><circle cx="7.620" cy="15.240" r="0.762" fill="none" stroke="#4ea1ff" stroke-width="0.25"/><circle cx="7.620" cy="20.320" r="0.762" fill="none" stroke="#4ea1ff" stroke-width="0.25"/><circle cx="7.620" cy="25.400" r="0.762" fill="none" stroke="#4ea1ff" stroke-width="0.25"/><circle cx="7.620" cy="30.480" r="0.762" fill="none" stroke="#4ea1ff" stroke-width="0.25"/><circle cx="7.620" cy="35.560" r="0.762" fill="none" stroke="#4ea1ff" stroke-width="0.25"/><circle cx="7.620" cy="40.640" r="0.762" fill="none" stroke="#4ea1ff" stroke-width="0.25"/><circle cx="7.620" cy="45.720" r="0.762" fill="none" stroke="#4ea1ff" stroke-width="0.25"/><circle cx="7.620" cy="50.800" r="0.762" fill="none" stroke="#4ea1ff" stroke-width="0.25"/><circle cx="7.620" cy="55.880" r="0.762" fill="none" stroke="#4ea1ff" stroke-width="0.25"/><circle cx="7.620" cy="60.960" r="0.762" fill="none" stroke="#4ea1ff" stroke-width="0.25"/><circle cx="7.620" cy="66.040" r="0.762" fill="none" stroke="#4ea1ff" stroke-width="0.25"/><circle cx="7.620" cy="71.120" r="0.762" fill="none" stroke="#4ea1ff" stroke-width="0.25"/><circle cx="7.620" cy="76.200" r="0.762" fill="none" stroke="#4ea1ff" stroke-width="0.25"/><circle cx="7.620" cy="81.280" r="0.762" fill="none" stroke="#4ea1ff" stroke-width="0.25"/><circle cx="7.620" cy="86.360" r="0.762" fill="none" stroke="#4ea1ff" stroke-width="0.25"/><circle cx="7.620" cy="91.440" r="0.762" fill="none" stroke="#4ea1ff" stroke-width="0.25"/><circle cx="7.620" cy="96.520" r="0.762" fill="none" stroke="#4ea1ff" stroke-width="0.25"/><circle cx="7.620" cy="101.600" r="0.762" fill="none" stroke="#4ea1ff" stroke-width="0.25"/><circle cx="7.620" cy="106.680" r="0.762" fill="none" stroke="#4ea1ff" stroke-width="0.25"/><circle cx="7.620" cy="111.760" r="0.762" fill="none" stroke="#4ea1ff" stroke-width="0.25"/><circle cx="7.620" cy="116.840" r="0.762" fill="none" stroke="#4ea1ff" stroke-width="0.25"/><circle cx="7.620" cy="121.920" r="0.762" fill="none" stroke="#4ea1ff" stroke-width="0.25"/><circle cx="7.620" cy="127.000" r="0.762" fill="none" stroke="#4ea1ff" stroke-width="0.25"/><circle cx="10.160" cy="2.540" r="0.762" fill="none" stroke="#4ea1ff" stroke-width="0.25"/><circle cx="10.160" cy="7.620" r="0.762" fill="none" stroke="#4ea1ff" stroke-width="0.25"/><circle cx="10.160" cy="12.700" r="0.762" fill="none" stroke="#4ea1ff" stroke-width="0.25"/><circle cx="10.160" cy="17.780" r="0.762" fill="none" stroke="#4ea1ff" stroke-width="0.25"/><circle cx="10.160" cy="22.860" r="0.762" fill="none" stroke="#4ea1ff" stroke-width="0.25"/><circle cx="10.160" cy="27.940" r="0.762" fill="none" stroke="#4ea1ff" stroke-width="0.25"/><circle cx="10.160" cy="33.020" r="0.762" fill="none" stroke="#4ea1ff" stroke-width="0.25"/><circle cx="10.160" cy="38.100" r="0.762" fill="none" stroke="#4ea1ff" stroke-width="0.25"/><circle cx="10.160" cy="43.180" r="0.762" fill="none" stroke="#4ea1ff" stroke-width="0.25"/><circle cx="10.160" cy="48.260" r="0.762" fill="none" stroke="#4ea1ff" stroke-width="0.25"/><circle cx="10.160" cy="53.340" r="0.762" fill="none" stroke="#4ea1ff" stroke-width="0.25"/><circle cx="10.160" cy="58.420" r="0.762" fill="none" stroke="#4ea1ff" stroke-width="0.25"/><circle cx="10.160" cy="63.500" r="0.762" fill="none" stroke="#4ea1ff" stroke-width="0.25"/><circle cx="10.160" cy="68.580" r="0.762" fill="none" stroke="#4ea1ff" stroke-width="0.25"/><circle cx="10.160" cy="73.660" r="0.762" fill="none" stroke="#4ea1ff" stroke-width="0.25"/><circle cx="10.160" cy="78.740" r="0.762" fill="none" stroke="#4ea1ff" stroke-width="0.25"/><circle cx="10.160" cy="83.820" r="0.762" fill="none" stroke="#4ea1ff" stroke-width="0.25"/><circle cx="10.160" cy="88.900" r="0.762" fill="none" stroke="#4ea1ff" stroke-width="0.25"/><circle cx="10.160" cy="93.980" r="0.762" fill="none" stroke="#4ea1ff" stroke-width="0.25"/><circle cx="10.160" cy="99.060" r="0.762" fill="none" stroke="#4ea1ff" stroke-width="0.25"/><circle cx="10.160" cy="104.140" r="0.762" fill="none" stroke="#4ea1ff" stroke-width="0.25"/><circle cx="10.160" cy="109.220" r="0.762" fill="none" stroke="#4ea1ff" stroke-width="0.25"/><circle cx="10.160" cy="114.300" r="0.762" fill="none" stroke="#4ea1ff" stroke-width="0.25"/><circle cx="10.160" cy="119.380" r="0.762" fill="none" stroke="#4ea1ff" stroke-width="0.25"/><circle cx="10.160" cy="124.460" r="0.762" fill="none" stroke="#4ea1ff" stroke-width="0.25"/><path d="M 11.601 1.282 A 1.270 1.270 0 0 1 12.700 2.540" fill="none" stroke="#4ea1ff" stroke-width="0.25"/><path d="M 12.700 127.000 A 1.270 1.270 0 0 1 11.601 128.258" fill="none" stroke="#4ea1ff" stroke-width="0.25"/><line x1="-5.080" y1="2.540" x2="0.000" y2="2.540" stroke="#e6e9ef" stroke-width="0.2"/><circle cx="-5.080" cy="2.540" r="0.4" fill="#4ea1ff"/><text x="-0.300" y="2.190" fill="#9aa3b2" font-size="0.9" text-anchor="end" font-family="sans-serif">1</text><line x1="-5.080" y1="5.080" x2="0.000" y2="5.080" stroke="#e6e9ef" stroke-width="0.2"/><circle cx="-5.080" cy="5.080" r="0.4" fill="#4ea1ff"/><text x="-0.300" y="4.730" fill="#9aa3b2" font-size="0.9" text-anchor="end" font-family="sans-serif">2</text><line x1="-5.080" y1="7.620" x2="0.000" y2="7.620" stroke="#e6e9ef" stroke-width="0.2"/><circle cx="-5.080" cy="7.620" r="0.4" fill="#4ea1ff"/><text x="-0.300" y="7.270" fill="#9aa3b2" font-size="0.9" text-anchor="end" font-family="sans-serif">3</text><line x1="-5.080" y1="10.160" x2="0.000" y2="10.160" stroke="#e6e9ef" stroke-width="0.2"/><circle cx="-5.080" cy="10.160" r="0.4" fill="#4ea1ff"/><text x="-0.300" y="9.810" fill="#9aa3b2" font-size="0.9" text-anchor="end" font-family="sans-serif">4</text><line x1="-5.080" y1="12.700" x2="0.000" y2="12.700" stroke="#e6e9ef" stroke-width="0.2"/><circle cx="-5.080" cy="12.700" r="0.4" fill="#4ea1ff"/><text x="-0.300" y="12.350" fill="#9aa3b2" font-size="0.9" text-anchor="end" font-family="sans-serif">5</text><line x1="-5.080" y1="15.240" x2="0.000" y2="15.240" stroke="#e6e9ef" stroke-width="0.2"/><circle cx="-5.080" cy="15.240" r="0.4" fill="#4ea1ff"/><text x="-0.300" y="14.890" fill="#9aa3b2" font-size="0.9" text-anchor="end" font-family="sans-serif">6</text><line x1="-5.080" y1="17.780" x2="0.000" y2="17.780" stroke="#e6e9ef" stroke-width="0.2"/><circle cx="-5.080" cy="17.780" r="0.4" fill="#4ea1ff"/><text x="-0.300" y="17.430" fill="#9aa3b2" font-size="0.9" text-anchor="end" font-family="sans-serif">7</text><line x1="-5.080" y1="20.320" x2="0.000" y2="20.320" stroke="#e6e9ef" stroke-width="0.2"/><circle cx="-5.080" cy="20.320" r="0.4" fill="#4ea1ff"/><text x="-0.300" y="19.970" fill="#9aa3b2" font-size="0.9" text-anchor="end" font-family="sans-serif">8</text><line x1="-5.080" y1="22.860" x2="0.000" y2="22.860" stroke="#e6e9ef" stroke-width="0.2"/><circle cx="-5.080" cy="22.860" r="0.4" fill="#4ea1ff"/><text x="-0.300" y="22.510" fill="#9aa3b2" font-size="0.9" text-anchor="end" font-family="sans-serif">9</text><line x1="-5.080" y1="25.400" x2="0.000" y2="25.400" stroke="#e6e9ef" stroke-width="0.2"/><circle cx="-5.080" cy="25.400" r="0.4" fill="#4ea1ff"/><text x="-0.300" y="25.050" fill="#9aa3b2" font-size="0.9" text-anchor="end" font-family="sans-serif">10</text><line x1="-5.080" y1="27.940" x2="0.000" y2="27.940" stroke="#e6e9ef" stroke-width="0.2"/><circle cx="-5.080" cy="27.940" r="0.4" fill="#4ea1ff"/><text x="-0.300" y="27.590" fill="#9aa3b2" font-size="0.9" text-anchor="end" font-family="sans-serif">11</text><line x1="-5.080" y1="30.480" x2="0.000" y2="30.480" stroke="#e6e9ef" stroke-width="0.2"/><circle cx="-5.080" cy="30.480" r="0.4" fill="#4ea1ff"/><text x="-0.300" y="30.130" fill="#9aa3b2" font-size="0.9" text-anchor="end" font-family="sans-serif">12</text><line x1="-5.080" y1="33.020" x2="0.000" y2="33.020" stroke="#e6e9ef" stroke-width="0.2"/><circle cx="-5.080" cy="33.020" r="0.4" fill="#4ea1ff"/><text x="-0.300" y="32.670" fill="#9aa3b2" font-size="0.9" text-anchor="end" font-family="sans-serif">13</text><line x1="-5.080" y1="35.560" x2="0.000" y2="35.560" stroke="#e6e9ef" stroke-width="0.2"/><circle cx="-5.080" cy="35.560" r="0.4" fill="#4ea1ff"/><text x="-0.300" y="35.210" fill="#9aa3b2" font-size="0.9" text-anchor="end" font-family="sans-serif">14</text><line x1="-5.080" y1="38.100" x2="0.000" y2="38.100" stroke="#e6e9ef" stroke-width="0.2"/><circle cx="-5.080" cy="38.100" r="0.4" fill="#4ea1ff"/><text x="-0.300" y="37.750" fill="#9aa3b2" font-size="0.9" text-anchor="end" font-family="sans-serif">15</text><line x1="-5.080" y1="40.640" x2="0.000" y2="40.640" stroke="#e6e9ef" stroke-width="0.2"/><circle cx="-5.080" cy="40.640" r="0.4" fill="#4ea1ff"/><text x="-0.300" y="40.290" fill="#9aa3b2" font-size="0.9" text-anchor="end" font-family="sans-serif">16</text><line x1="-5.080" y1="43.180" x2="0.000" y2="43.180" stroke="#e6e9ef" stroke-width="0.2"/><circle cx="-5.080" cy="43.180" r="0.4" fill="#4ea1ff"/><text x="-0.300" y="42.830" fill="#9aa3b2" font-size="0.9" text-anchor="end" font-family="sans-serif">17</text><line x1="-5.080" y1="45.720" x2="0.000" y2="45.720" stroke="#e6e9ef" stroke-width="0.2"/><circle cx="-5.080" cy="45.720" r="0.4" fill="#4ea1ff"/><text x="-0.300" y="45.370" fill="#9aa3b2" font-size="0.9" text-anchor="end" font-family="sans-serif">18</text><line x1="-5.080" y1="48.260" x2="0.000" y2="48.260" stroke="#e6e9ef" stroke-width="0.2"/><circle cx="-5.080" cy="48.260" r="0.4" fill="#4ea1ff"/><text x="-0.300" y="47.910" fill="#9aa3b2" font-size="0.9" text-anchor="end" font-family="sans-serif">19</text><line x1="-5.080" y1="50.800" x2="0.000" y2="50.800" stroke="#e6e9ef" stroke-width="0.2"/><circle cx="-5.080" cy="50.800" r="0.4" fill="#4ea1ff"/><text x="-0.300" y="50.450" fill="#9aa3b2" font-size="0.9" text-anchor="end" font-family="sans-serif">20</text><line x1="-5.080" y1="53.340" x2="0.000" y2="53.340" stroke="#e6e9ef" stroke-width="0.2"/><circle cx="-5.080" cy="53.340" r="0.4" fill="#4ea1ff"/><text x="-0.300" y="52.990" fill="#9aa3b2" font-size="0.9" text-anchor="end" font-family="sans-serif">21</text><line x1="-5.080" y1="55.880" x2="0.000" y2="55.880" stroke="#e6e9ef" stroke-width="0.2"/><circle cx="-5.080" cy="55.880" r="0.4" fill="#4ea1ff"/><text x="-0.300" y="55.530" fill="#9aa3b2" font-size="0.9" text-anchor="end" font-family="sans-serif">22</text><line x1="-5.080" y1="58.420" x2="0.000" y2="58.420" stroke="#e6e9ef" stroke-width="0.2"/><circle cx="-5.080" cy="58.420" r="0.4" fill="#4ea1ff"/><text x="-0.300" y="58.070" fill="#9aa3b2" font-size="0.9" text-anchor="end" font-family="sans-serif">23</text><line x1="-5.080" y1="60.960" x2="0.000" y2="60.960" stroke="#e6e9ef" stroke-width="0.2"/><circle cx="-5.080" cy="60.960" r="0.4" fill="#4ea1ff"/><text x="-0.300" y="60.610" fill="#9aa3b2" font-size="0.9" text-anchor="end" font-family="sans-serif">24</text><line x1="-5.080" y1="63.500" x2="0.000" y2="63.500" stroke="#e6e9ef" stroke-width="0.2"/><circle cx="-5.080" cy="63.500" r="0.4" fill="#4ea1ff"/><text x="-0.300" y="63.150" fill="#9aa3b2" font-size="0.9" text-anchor="end" font-family="sans-serif">25</text><line x1="-5.080" y1="66.040" x2="0.000" y2="66.040" stroke="#e6e9ef" stroke-width="0.2"/><circle cx="-5.080" cy="66.040" r="0.4" fill="#4ea1ff"/><text x="-0.300" y="65.690" fill="#9aa3b2" font-size="0.9" text-anchor="end" font-family="sans-serif">26</text><line x1="-5.080" y1="68.580" x2="0.000" y2="68.580" stroke="#e6e9ef" stroke-width="0.2"/><circle cx="-5.080" cy="68.580" r="0.4" fill="#4ea1ff"/><text x="-0.300" y="68.230" fill="#9aa3b2" font-size="0.9" text-anchor="end" font-family="sans-serif">27</text><line x1="-5.080" y1="71.120" x2="0.000" y2="71.120" stroke="#e6e9ef" stroke-width="0.2"/><circle cx="-5.080" cy="71.120" r="0.4" fill="#4ea1ff"/><text x="-0.300" y="70.770" fill="#9aa3b2" font-size="0.9" text-anchor="end" font-family="sans-serif">28</text><line x1="-5.080" y1="73.660" x2="0.000" y2="73.660" stroke="#e6e9ef" stroke-width="0.2"/><circle cx="-5.080" cy="73.660" r="0.4" fill="#4ea1ff"/><text x="-0.300" y="73.310" fill="#9aa3b2" font-size="0.9" text-anchor="end" font-family="sans-serif">29</text><line x1="-5.080" y1="76.200" x2="0.000" y2="76.200" stroke="#e6e9ef" stroke-width="0.2"/><circle cx="-5.080" cy="76.200" r="0.4" fill="#4ea1ff"/><text x="-0.300" y="75.850" fill="#9aa3b2" font-size="0.9" text-anchor="end" font-family="sans-serif">30</text><line x1="-5.080" y1="78.740" x2="0.000" y2="78.740" stroke="#e6e9ef" stroke-width="0.2"/><circle cx="-5.080" cy="78.740" r="0.4" fill="#4ea1ff"/><text x="-0.300" y="78.390" fill="#9aa3b2" font-size="0.9" text-anchor="end" font-family="sans-serif">31</text><line x1="-5.080" y1="81.280" x2="0.000" y2="81.280" stroke="#e6e9ef" stroke-width="0.2"/><circle cx="-5.080" cy="81.280" r="0.4" fill="#4ea1ff"/><text x="-0.300" y="80.930" fill="#9aa3b2" font-size="0.9" text-anchor="end" font-family="sans-serif">32</text><line x1="-5.080" y1="83.820" x2="0.000" y2="83.820" stroke="#e6e9ef" stroke-width="0.2"/><circle cx="-5.080" cy="83.820" r="0.4" fill="#4ea1ff"/><text x="-0.300" y="83.470" fill="#9aa3b2" font-size="0.9" text-anchor="end" font-family="sans-serif">33</text><line x1="-5.080" y1="86.360" x2="0.000" y2="86.360" stroke="#e6e9ef" stroke-width="0.2"/><circle cx="-5.080" cy="86.360" r="0.4" fill="#4ea1ff"/><text x="-0.300" y="86.010" fill="#9aa3b2" font-size="0.9" text-anchor="end" font-family="sans-serif">34</text><line x1="-5.080" y1="88.900" x2="0.000" y2="88.900" stroke="#e6e9ef" stroke-width="0.2"/><circle cx="-5.080" cy="88.900" r="0.4" fill="#4ea1ff"/><text x="-0.300" y="88.550" fill="#9aa3b2" font-size="0.9" text-anchor="end" font-family="sans-serif">35</text><line x1="-5.080" y1="91.440" x2="0.000" y2="91.440" stroke="#e6e9ef" stroke-width="0.2"/><circle cx="-5.080" cy="91.440" r="0.4" fill="#4ea1ff"/><text x="-0.300" y="91.090" fill="#9aa3b2" font-size="0.9" text-anchor="end" font-family="sans-serif">36</text><line x1="-5.080" y1="93.980" x2="0.000" y2="93.980" stroke="#e6e9ef" stroke-width="0.2"/><circle cx="-5.080" cy="93.980" r="0.4" fill="#4ea1ff"/><text x="-0.300" y="93.630" fill="#9aa3b2" font-size="0.9" text-anchor="end" font-family="sans-serif">37</text><line x1="-5.080" y1="96.520" x2="0.000" y2="96.520" stroke="#e6e9ef" stroke-width="0.2"/><circle cx="-5.080" cy="96.520" r="0.4" fill="#4ea1ff"/><text x="-0.300" y="96.170" fill="#9aa3b2" font-size="0.9" text-anchor="end" font-family="sans-serif">38</text><line x1="-5.080" y1="99.060" x2="0.000" y2="99.060" stroke="#e6e9ef" stroke-width="0.2"/><circle cx="-5.080" cy="99.060" r="0.4" fill="#4ea1ff"/><text x="-0.300" y="98.710" fill="#9aa3b2" font-size="0.9" text-anchor="end" font-family="sans-serif">39</text><line x1="-5.080" y1="101.600" x2="0.000" y2="101.600" stroke="#e6e9ef" stroke-width="0.2"/><circle cx="-5.080" cy="101.600" r="0.4" fill="#4ea1ff"/><text x="-0.300" y="101.250" fill="#9aa3b2" font-size="0.9" text-anchor="end" font-family="sans-serif">40</text><line x1="-5.080" y1="104.140" x2="0.000" y2="104.140" stroke="#e6e9ef" stroke-width="0.2"/><circle cx="-5.080" cy="104.140" r="0.4" fill="#4ea1ff"/><text x="-0.300" y="103.790" fill="#9aa3b2" font-size="0.9" text-anchor="end" font-family="sans-serif">41</text><line x1="-5.080" y1="106.680" x2="0.000" y2="106.680" stroke="#e6e9ef" stroke-width="0.2"/><circle cx="-5.080" cy="106.680" r="0.4" fill="#4ea1ff"/><text x="-0.300" y="106.330" fill="#9aa3b2" font-size="0.9" text-anchor="end" font-family="sans-serif">42</text><line x1="-5.080" y1="109.220" x2="0.000" y2="109.220" stroke="#e6e9ef" stroke-width="0.2"/><circle cx="-5.080" cy="109.220" r="0.4" fill="#4ea1ff"/><text x="-0.300" y="108.870" fill="#9aa3b2" font-size="0.9" text-anchor="end" font-family="sans-serif">43</text><line x1="-5.080" y1="111.760" x2="0.000" y2="111.760" stroke="#e6e9ef" stroke-width="0.2"/><circle cx="-5.080" cy="111.760" r="0.4" fill="#4ea1ff"/><text x="-0.300" y="111.410" fill="#9aa3b2" font-size="0.9" text-anchor="end" font-family="sans-serif">44</text><line x1="-5.080" y1="114.300" x2="0.000" y2="114.300" stroke="#e6e9ef" stroke-width="0.2"/><circle cx="-5.080" cy="114.300" r="0.4" fill="#4ea1ff"/><text x="-0.300" y="113.950" fill="#9aa3b2" font-size="0.9" text-anchor="end" font-family="sans-serif">45</text><line x1="-5.080" y1="116.840" x2="0.000" y2="116.840" stroke="#e6e9ef" stroke-width="0.2"/><circle cx="-5.080" cy="116.840" r="0.4" fill="#4ea1ff"/><text x="-0.300" y="116.490" fill="#9aa3b2" font-size="0.9" text-anchor="end" font-family="sans-serif">46</text><line x1="-5.080" y1="119.380" x2="0.000" y2="119.380" stroke="#e6e9ef" stroke-width="0.2"/><circle cx="-5.080" cy="119.380" r="0.4" fill="#4ea1ff"/><text x="-0.300" y="119.030" fill="#9aa3b2" font-size="0.9" text-anchor="end" font-family="sans-serif">47</text><line x1="-5.080" y1="121.920" x2="0.000" y2="121.920" stroke="#e6e9ef" stroke-width="0.2"/><circle cx="-5.080" cy="121.920" r="0.4" fill="#4ea1ff"/><text x="-0.300" y="121.570" fill="#9aa3b2" font-size="0.9" text-anchor="end" font-family="sans-serif">48</text><line x1="-5.080" y1="124.460" x2="0.000" y2="124.460" stroke="#e6e9ef" stroke-width="0.2"/><circle cx="-5.080" cy="124.460" r="0.4" fill="#4ea1ff"/><text x="-0.300" y="124.110" fill="#9aa3b2" font-size="0.9" text-anchor="end" font-family="sans-serif">49</text><line x1="-5.080" y1="127.000" x2="0.000" y2="127.000" stroke="#e6e9ef" stroke-width="0.2"/><circle cx="-5.080" cy="127.000" r="0.4" fill="#4ea1ff"/><text x="-0.300" y="126.650" fill="#9aa3b2" font-size="0.9" text-anchor="end" font-family="sans-serif">50</text><line x1="5.080" y1="134.620" x2="5.080" y2="129.032" stroke="#e6e9ef" stroke-width="0.2"/><circle cx="5.080" cy="134.620" r="0.4" fill="#4ea1ff"/><text x="5.680" y="130.032" fill="#9aa3b2" font-size="0.9" text-anchor="start" font-family="sans-serif">101</text><line x1="8.890" y1="134.620" x2="8.890" y2="128.651" stroke="#e6e9ef" stroke-width="0.2"/><circle cx="8.890" cy="134.620" r="0.4" fill="#4ea1ff"/><text x="9.490" y="129.651" fill="#9aa3b2" font-size="0.9" text-anchor="start" font-family="sans-serif">102</text><line x1="17.780" y1="2.540" x2="12.700" y2="2.540" stroke="#e6e9ef" stroke-width="0.2"/><circle cx="17.780" cy="2.540" r="0.4" fill="#4ea1ff"/><text x="13.000" y="2.190" fill="#9aa3b2" font-size="0.9" text-anchor="start" font-family="sans-serif">51</text><line x1="17.780" y1="5.080" x2="12.700" y2="5.080" stroke="#e6e9ef" stroke-width="0.2"/><circle cx="17.780" cy="5.080" r="0.4" fill="#4ea1ff"/><text x="13.000" y="4.730" fill="#9aa3b2" font-size="0.9" text-anchor="start" font-family="sans-serif">52</text><line x1="17.780" y1="7.620" x2="12.700" y2="7.620" stroke="#e6e9ef" stroke-width="0.2"/><circle cx="17.780" cy="7.620" r="0.4" fill="#4ea1ff"/><text x="13.000" y="7.270" fill="#9aa3b2" font-size="0.9" text-anchor="start" font-family="sans-serif">53</text><line x1="17.780" y1="10.160" x2="12.700" y2="10.160" stroke="#e6e9ef" stroke-width="0.2"/><circle cx="17.780" cy="10.160" r="0.4" fill="#4ea1ff"/><text x="13.000" y="9.810" fill="#9aa3b2" font-size="0.9" text-anchor="start" font-family="sans-serif">54</text><line x1="17.780" y1="12.700" x2="12.700" y2="12.700" stroke="#e6e9ef" stroke-width="0.2"/><circle cx="17.780" cy="12.700" r="0.4" fill="#4ea1ff"/><text x="13.000" y="12.350" fill="#9aa3b2" font-size="0.9" text-anchor="start" font-family="sans-serif">55</text><line x1="17.780" y1="15.240" x2="12.700" y2="15.240" stroke="#e6e9ef" stroke-width="0.2"/><circle cx="17.780" cy="15.240" r="0.4" fill="#4ea1ff"/><text x="13.000" y="14.890" fill="#9aa3b2" font-size="0.9" text-anchor="start" font-family="sans-serif">56</text><line x1="17.780" y1="17.780" x2="12.700" y2="17.780" stroke="#e6e9ef" stroke-width="0.2"/><circle cx="17.780" cy="17.780" r="0.4" fill="#4ea1ff"/><text x="13.000" y="17.430" fill="#9aa3b2" font-size="0.9" text-anchor="start" font-family="sans-serif">57</text><line x1="17.780" y1="20.320" x2="12.700" y2="20.320" stroke="#e6e9ef" stroke-width="0.2"/><circle cx="17.780" cy="20.320" r="0.4" fill="#4ea1ff"/><text x="13.000" y="19.970" fill="#9aa3b2" font-size="0.9" text-anchor="start" font-family="sans-serif">58</text><line x1="17.780" y1="22.860" x2="12.700" y2="22.860" stroke="#e6e9ef" stroke-width="0.2"/><circle cx="17.780" cy="22.860" r="0.4" fill="#4ea1ff"/><text x="13.000" y="22.510" fill="#9aa3b2" font-size="0.9" text-anchor="start" font-family="sans-serif">59</text><line x1="17.780" y1="25.400" x2="12.700" y2="25.400" stroke="#e6e9ef" stroke-width="0.2"/><circle cx="17.780" cy="25.400" r="0.4" fill="#4ea1ff"/><text x="13.000" y="25.050" fill="#9aa3b2" font-size="0.9" text-anchor="start" font-family="sans-serif">60</text><line x1="17.780" y1="27.940" x2="12.700" y2="27.940" stroke="#e6e9ef" stroke-width="0.2"/><circle cx="17.780" cy="27.940" r="0.4" fill="#4ea1ff"/><text x="13.000" y="27.590" fill="#9aa3b2" font-size="0.9" text-anchor="start" font-family="sans-serif">61</text><line x1="17.780" y1="30.480" x2="12.700" y2="30.480" stroke="#e6e9ef" stroke-width="0.2"/><circle cx="17.780" cy="30.480" r="0.4" fill="#4ea1ff"/><text x="13.000" y="30.130" fill="#9aa3b2" font-size="0.9" text-anchor="start" font-family="sans-serif">62</text><line x1="17.780" y1="33.020" x2="12.700" y2="33.020" stroke="#e6e9ef" stroke-width="0.2"/><circle cx="17.780" cy="33.020" r="0.4" fill="#4ea1ff"/><text x="13.000" y="32.670" fill="#9aa3b2" font-size="0.9" text-anchor="start" font-family="sans-serif">63</text><line x1="17.780" y1="35.560" x2="12.700" y2="35.560" stroke="#e6e9ef" stroke-width="0.2"/><circle cx="17.780" cy="35.560" r="0.4" fill="#4ea1ff"/><text x="13.000" y="35.210" fill="#9aa3b2" font-size="0.9" text-anchor="start" font-family="sans-serif">64</text><line x1="17.780" y1="38.100" x2="12.700" y2="38.100" stroke="#e6e9ef" stroke-width="0.2"/><circle cx="17.780" cy="38.100" r="0.4" fill="#4ea1ff"/><text x="13.000" y="37.750" fill="#9aa3b2" font-size="0.9" text-anchor="start" font-family="sans-serif">65</text><line x1="17.780" y1="40.640" x2="12.700" y2="40.640" stroke="#e6e9ef" stroke-width="0.2"/><circle cx="17.780" cy="40.640" r="0.4" fill="#4ea1ff"/><text x="13.000" y="40.290" fill="#9aa3b2" font-size="0.9" text-anchor="start" font-family="sans-serif">66</text><line x1="17.780" y1="43.180" x2="12.700" y2="43.180" stroke="#e6e9ef" stroke-width="0.2"/><circle cx="17.780" cy="43.180" r="0.4" fill="#4ea1ff"/><text x="13.000" y="42.830" fill="#9aa3b2" font-size="0.9" text-anchor="start" font-family="sans-serif">67</text><line x1="17.780" y1="45.720" x2="12.700" y2="45.720" stroke="#e6e9ef" stroke-width="0.2"/><circle cx="17.780" cy="45.720" r="0.4" fill="#4ea1ff"/><text x="13.000" y="45.370" fill="#9aa3b2" font-size="0.9" text-anchor="start" font-family="sans-serif">68</text><line x1="17.780" y1="48.260" x2="12.700" y2="48.260" stroke="#e6e9ef" stroke-width="0.2"/><circle cx="17.780" cy="48.260" r="0.4" fill="#4ea1ff"/><text x="13.000" y="47.910" fill="#9aa3b2" font-size="0.9" text-anchor="start" font-family="sans-serif">69</text><line x1="17.780" y1="50.800" x2="12.700" y2="50.800" stroke="#e6e9ef" stroke-width="0.2"/><circle cx="17.780" cy="50.800" r="0.4" fill="#4ea1ff"/><text x="13.000" y="50.450" fill="#9aa3b2" font-size="0.9" text-anchor="start" font-family="sans-serif">70</text><line x1="17.780" y1="53.340" x2="12.700" y2="53.340" stroke="#e6e9ef" stroke-width="0.2"/><circle cx="17.780" cy="53.340" r="0.4" fill="#4ea1ff"/><text x="13.000" y="52.990" fill="#9aa3b2" font-size="0.9" text-anchor="start" font-family="sans-serif">71</text><line x1="17.780" y1="55.880" x2="12.700" y2="55.880" stroke="#e6e9ef" stroke-width="0.2"/><circle cx="17.780" cy="55.880" r="0.4" fill="#4ea1ff"/><text x="13.000" y="55.530" fill="#9aa3b2" font-size="0.9" text-anchor="start" font-family="sans-serif">72</text><line x1="17.780" y1="58.420" x2="12.700" y2="58.420" stroke="#e6e9ef" stroke-width="0.2"/><circle cx="17.780" cy="58.420" r="0.4" fill="#4ea1ff"/><text x="13.000" y="58.070" fill="#9aa3b2" font-size="0.9" text-anchor="start" font-family="sans-serif">73</text><line x1="17.780" y1="60.960" x2="12.700" y2="60.960" stroke="#e6e9ef" stroke-width="0.2"/><circle cx="17.780" cy="60.960" r="0.4" fill="#4ea1ff"/><text x="13.000" y="60.610" fill="#9aa3b2" font-size="0.9" text-anchor="start" font-family="sans-serif">74</text><line x1="17.780" y1="63.500" x2="12.700" y2="63.500" stroke="#e6e9ef" stroke-width="0.2"/><circle cx="17.780" cy="63.500" r="0.4" fill="#4ea1ff"/><text x="13.000" y="63.150" fill="#9aa3b2" font-size="0.9" text-anchor="start" font-family="sans-serif">75</text><line x1="17.780" y1="66.040" x2="12.700" y2="66.040" stroke="#e6e9ef" stroke-width="0.2"/><circle cx="17.780" cy="66.040" r="0.4" fill="#4ea1ff"/><text x="13.000" y="65.690" fill="#9aa3b2" font-size="0.9" text-anchor="start" font-family="sans-serif">76</text><line x1="17.780" y1="68.580" x2="12.700" y2="68.580" stroke="#e6e9ef" stroke-width="0.2"/><circle cx="17.780" cy="68.580" r="0.4" fill="#4ea1ff"/><text x="13.000" y="68.230" fill="#9aa3b2" font-size="0.9" text-anchor="start" font-family="sans-serif">77</text><line x1="17.780" y1="71.120" x2="12.700" y2="71.120" stroke="#e6e9ef" stroke-width="0.2"/><circle cx="17.780" cy="71.120" r="0.4" fill="#4ea1ff"/><text x="13.000" y="70.770" fill="#9aa3b2" font-size="0.9" text-anchor="start" font-family="sans-serif">78</text><line x1="17.780" y1="73.660" x2="12.700" y2="73.660" stroke="#e6e9ef" stroke-width="0.2"/><circle cx="17.780" cy="73.660" r="0.4" fill="#4ea1ff"/><text x="13.000" y="73.310" fill="#9aa3b2" font-size="0.9" text-anchor="start" font-family="sans-serif">79</text><line x1="17.780" y1="76.200" x2="12.700" y2="76.200" stroke="#e6e9ef" stroke-width="0.2"/><circle cx="17.780" cy="76.200" r="0.4" fill="#4ea1ff"/><text x="13.000" y="75.850" fill="#9aa3b2" font-size="0.9" text-anchor="start" font-family="sans-serif">80</text><line x1="17.780" y1="78.740" x2="12.700" y2="78.740" stroke="#e6e9ef" stroke-width="0.2"/><circle cx="17.780" cy="78.740" r="0.4" fill="#4ea1ff"/><text x="13.000" y="78.390" fill="#9aa3b2" font-size="0.9" text-anchor="start" font-family="sans-serif">81</text><line x1="17.780" y1="81.280" x2="12.700" y2="81.280" stroke="#e6e9ef" stroke-width="0.2"/><circle cx="17.780" cy="81.280" r="0.4" fill="#4ea1ff"/><text x="13.000" y="80.930" fill="#9aa3b2" font-size="0.9" text-anchor="start" font-family="sans-serif">82</text><line x1="17.780" y1="83.820" x2="12.700" y2="83.820" stroke="#e6e9ef" stroke-width="0.2"/><circle cx="17.780" cy="83.820" r="0.4" fill="#4ea1ff"/><text x="13.000" y="83.470" fill="#9aa3b2" font-size="0.9" text-anchor="start" font-family="sans-serif">83</text><line x1="17.780" y1="86.360" x2="12.700" y2="86.360" stroke="#e6e9ef" stroke-width="0.2"/><circle cx="17.780" cy="86.360" r="0.4" fill="#4ea1ff"/><text x="13.000" y="86.010" fill="#9aa3b2" font-size="0.9" text-anchor="start" font-family="sans-serif">84</text><line x1="17.780" y1="88.900" x2="12.700" y2="88.900" stroke="#e6e9ef" stroke-width="0.2"/><circle cx="17.780" cy="88.900" r="0.4" fill="#4ea1ff"/><text x="13.000" y="88.550" fill="#9aa3b2" font-size="0.9" text-anchor="start" font-family="sans-serif">85</text><line x1="17.780" y1="91.440" x2="12.700" y2="91.440" stroke="#e6e9ef" stroke-width="0.2"/><circle cx="17.780" cy="91.440" r="0.4" fill="#4ea1ff"/><text x="13.000" y="91.090" fill="#9aa3b2" font-size="0.9" text-anchor="start" font-family="sans-serif">86</text><line x1="17.780" y1="93.980" x2="12.700" y2="93.980" stroke="#e6e9ef" stroke-width="0.2"/><circle cx="17.780" cy="93.980" r="0.4" fill="#4ea1ff"/><text x="13.000" y="93.630" fill="#9aa3b2" font-size="0.9" text-anchor="start" font-family="sans-serif">87</text><line x1="17.780" y1="96.520" x2="12.700" y2="96.520" stroke="#e6e9ef" stroke-width="0.2"/><circle cx="17.780" cy="96.520" r="0.4" fill="#4ea1ff"/><text x="13.000" y="96.170" fill="#9aa3b2" font-size="0.9" text-anchor="start" font-family="sans-serif">88</text><line x1="17.780" y1="99.060" x2="12.700" y2="99.060" stroke="#e6e9ef" stroke-width="0.2"/><circle cx="17.780" cy="99.060" r="0.4" fill="#4ea1ff"/><text x="13.000" y="98.710" fill="#9aa3b2" font-size="0.9" text-anchor="start" font-family="sans-serif">89</text><line x1="17.780" y1="101.600" x2="12.700" y2="101.600" stroke="#e6e9ef" stroke-width="0.2"/><circle cx="17.780" cy="101.600" r="0.4" fill="#4ea1ff"/><text x="13.000" y="101.250" fill="#9aa3b2" font-size="0.9" text-anchor="start" font-family="sans-serif">90</text><line x1="17.780" y1="104.140" x2="12.700" y2="104.140" stroke="#e6e9ef" stroke-width="0.2"/><circle cx="17.780" cy="104.140" r="0.4" fill="#4ea1ff"/><text x="13.000" y="103.790" fill="#9aa3b2" font-size="0.9" text-anchor="start" font-family="sans-serif">91</text><line x1="17.780" y1="106.680" x2="12.700" y2="106.680" stroke="#e6e9ef" stroke-width="0.2"/><circle cx="17.780" cy="106.680" r="0.4" fill="#4ea1ff"/><text x="13.000" y="106.330" fill="#9aa3b2" font-size="0.9" text-anchor="start" font-family="sans-serif">92</text><line x1="17.780" y1="109.220" x2="12.700" y2="109.220" stroke="#e6e9ef" stroke-width="0.2"/><circle cx="17.780" cy="109.220" r="0.4" fill="#4ea1ff"/><text x="13.000" y="108.870" fill="#9aa3b2" font-size="0.9" text-anchor="start" font-family="sans-serif">93</text><line x1="17.780" y1="111.760" x2="12.700" y2="111.760" stroke="#e6e9ef" stroke-width="0.2"/><circle cx="17.780" cy="111.760" r="0.4" fill="#4ea1ff"/><text x="13.000" y="111.410" fill="#9aa3b2" font-size="0.9" text-anchor="start" font-family="sans-serif">94</text><line x1="17.780" y1="114.300" x2="12.700" y2="114.300" stroke="#e6e9ef" stroke-width="0.2"/><circle cx="17.780" cy="114.300" r="0.4" fill="#4ea1ff"/><text x="13.000" y="113.950" fill="#9aa3b2" font-size="0.9" text-anchor="start" font-family="sans-serif">95</text><line x1="17.780" y1="116.840" x2="12.700" y2="116.840" stroke="#e6e9ef" stroke-width="0.2"/><circle cx="17.780" cy="116.840" r="0.4" fill="#4ea1ff"/><text x="13.000" y="116.490" fill="#9aa3b2" font-size="0.9" text-anchor="start" font-family="sans-serif">96</text><line x1="17.780" y1="119.380" x2="12.700" y2="119.380" stroke="#e6e9ef" stroke-width="0.2"/><circle cx="17.780" cy="119.380" r="0.4" fill="#4ea1ff"/><text x="13.000" y="119.030" fill="#9aa3b2" font-size="0.9" text-anchor="start" font-family="sans-serif">97</text><line x1="17.780" y1="121.920" x2="12.700" y2="121.920" stroke="#e6e9ef" stroke-width="0.2"/><circle cx="17.780" cy="121.920" r="0.4" fill="#4ea1ff"/><text x="13.000" y="121.570" fill="#9aa3b2" font-size="0.9" text-anchor="start" font-family="sans-serif">98</text><line x1="17.780" y1="124.460" x2="12.700" y2="124.460" stroke="#e6e9ef" stroke-width="0.2"/><circle cx="17.780" cy="124.460" r="0.4" fill="#4ea1ff"/><text x="13.000" y="124.110" fill="#9aa3b2" font-size="0.9" text-anchor="start" font-family="sans-serif">99</text><line x1="17.780" y1="127.000" x2="12.700" y2="127.000" stroke="#e6e9ef" stroke-width="0.2"/><circle cx="17.780" cy="127.000" r="0.4" fill="#4ea1ff"/><text x="13.000" y="126.650" fill="#9aa3b2" font-size="0.9" text-anchor="start" font-family="sans-serif">100</text></svg>