<svg xmlns="http://www.w3.org/2000/svg" viewBox="-8.07 -8.07 16.14 16.14" preserveAspectRatio="xMidYMid meet" style="width:100%;height:100%"><rect x="-8.07" y="-8.07" width="16.14" height="16.14" fill="#12151c"/><line x1="-4.225" y1="-2.060" x2="-2.060" y2="-4.225" stroke="#e6e9ef" stroke-width="0.200" stroke-linecap="round" opacity="1"/><line x1="-4.225" y1="2.060" x2="-2.060" y2="4.225" stroke="#e6e9ef" stroke-width="0.200" stroke-linecap="round" opacity="1"/><line x1="-2.652" y1="-0.530" x2="-2.408" y2="-0.286" stroke="#e6e9ef" stroke-width="0.200" stroke-linecap="round" opacity="1"/><line x1="-1.414" y1="-1.061" x2="-1.061" y2="-0.707" stroke="#e6e9ef" stroke-width="0.200" stroke-linecap="round" opacity="1"/><line x1="-1.061" y1="-1.414" x2="-0.707" y2="-1.061" stroke="#e6e9ef" stroke-width="0.200" stroke-linecap="round" opacity="1"/><line x1="-0.707" y1="-0.354" x2="-0.354" y2="0.000" stroke="#e6e9ef" stroke-width="0.200" stroke-linecap="round" opacity="1"/><line x1="-0.530" y1="-2.652" x2="-0.286" y2="-2.408" stroke="#e6e9ef" stroke-width="0.200" stroke-linecap="round" opacity="1"/><line x1="-0.354" y1="-0.707" x2="0.000" y2="-0.354" stroke="#e6e9ef" stroke-width="0.200" stroke-linecap="round" opacity="1"/><line x1="0.000" y1="0.354" x2="0.354" y2="0.707" stroke="#e6e9ef" stroke-width="0.200" stroke-linecap="round" opacity="1"/><line x1="0.286" y1="2.408" x2="0.530" y2="2.652" stroke="#e6e9ef" stroke-width="0.200" stroke-linecap="round" opacity="1"/><line x1="0.354" y1="0.000" x2="0.707" y2="0.354" stroke="#e6e9ef" stroke-width="0.200" stroke-linecap="round" opacity="1"/><line x1="0.707" y1="1.061" x2="1.061" y2="1.414" stroke="#e6e9ef" stroke-width="0.200" stroke-linecap="round" opacity="1"/><line x1="1.061" y1="0.707" x2="1.414" y2="1.061" stroke="#e6e9ef" stroke-width="0.200" stroke-linecap="round" opacity="1"/><line x1="1.840" y1="4.445" x2="4.225" y2="2.060" stroke="#e6e9ef" stroke-width="0.200" stroke-linecap="round" opacity="1"/><line x1="2.060" y1="-4.225" x2="4.225" y2="-2.060" stroke="#e6e9ef" stroke-width="0.200" stroke-linecap="round" opacity="1"/><line x1="2.408" y1="0.286" x2="2.652" y2="0.530" stroke="#e6e9ef" stroke-width="0.200" stroke-linecap="round" opacity="1"/><line x1="-5.480" y1="0.000" x2="-4.980" y2="0.000" stroke="#4a5160" stroke-width="0.100" stroke-linecap="round" opacity="0.7"/><line x1="-4.980" y1="0.000" x2="-4.980" y2="-0.500" stroke="#4a5160" stroke-width="0.100" stroke-linecap="round" opacity="0.7"/><line x1="-4.980" y1="0.000" x2="-4.480" y2="0.000" stroke="#4a5160" stroke-width="0.100" stroke-linecap="round" opacity="0.7"/><line x1="-4.980" y1="0.500" x2="-4.980" y2="0.000" stroke="#4a5160" stroke-width="0.100" stroke-linecap="round" opacity="0.7"/><line x1="-0.500" y1="-4.980" x2="0.000" y2="-4.980" stroke="#4a5160" stroke-width="0.100" stroke-linecap="round" opacity="0.7"/><line x1="-0.500" y1="0.000" x2="0.000" y2="0.000" stroke="#4a5160" stroke-width="0.100" stroke-linecap="round" opacity="0.7"/><line x1="-0.500" y1="4.980" x2="0.000" y2="4.980" stroke="#4a5160" stroke-width="0.100" stroke-linecap="round" opacity="0.7"/><line x1="0.000" y1="-4.980" x2="0.000" y2="-5.480" stroke="#4a5160" stroke-width="0.100" stroke-linecap="round" opacity="0.7"/><line x1="0.000" y1="-4.980" x2="0.500" y2="-4.980" stroke="#4a5160" stroke-width="0.100" stroke-linecap="round" opacity="0.7"/><line x1="0.000" y1="-4.480" x2="0.000" y2="-4.980" stroke="#4a5160" stroke-width="0.100" stroke-linecap="round" opacity="0.7"/><line x1="0.000" y1="0.000" x2="0.000" y2="-0.500" stroke="#4a5160" stroke-width="0.100" stroke-linecap="round" opacity="0.7"/><line x1="0.000" y1="0.000" x2="0.500" y2="0.000" stroke="#4a5160" stroke-width="0.100" stroke-linecap="round" opacity="0.7"/><line x1="0.000" y1="0.500" x2="0.000" y2="0.000" stroke="#4a5160" stroke-width="0.100" stroke-linecap="round" opacity="0.7"/><line x1="0.000" y1="4.980" x2="0.000" y2="4.480" stroke="#4a5160" stroke-width="0.100" stroke-linecap="round" opacity="0.7"/><line x1="0.000" y1="4.980" x2="0.500" y2="4.980" stroke="#4a5160" stroke-width="0.100" stroke-linecap="round" opacity="0.7"/><line x1="0.000" y1="5.480" x2="0.000" y2="4.980" stroke="#4a5160" stroke-width="0.100" stroke-linecap="round" opacity="0.7"/><line x1="4.480" y1="0.000" x2="4.980" y2="0.000" stroke="#4a5160" stroke-width="0.100" stroke-linecap="round" opacity="0.7"/><line x1="4.980" y1="0.000" x2="4.980" y2="-0.500" stroke="#4a5160" stroke-width="0.100" stroke-linecap="round" opacity="0.7"/><line x1="4.980" y1="0.000" x2="5.480" y2="0.000" stroke="#4a5160" stroke-width="0.100" stroke-linecap="round" opacity="0.7"/><line x1="4.980" y1="0.500" x2="4.980" y2="0.000" stroke="#4a5160" stroke-width="0.100" stroke-linecap="round" opacity="0.7"/><line x1="-5.715" y1="-0.600" x2="-4.445" y2="-0.600" stroke="#6b7280" stroke-width="0.100" stroke-linecap="round" opacity="0.8"/><line x1="-5.715" y1="0.600" x2="-5.715" y2="-0.600" stroke="#6b7280" stroke-width="0.100" stroke-linecap="round" opacity="0.8"/><line x1="-5.715" y1="0.600" x2="-4.445" y2="0.600" stroke="#6b7280" stroke-width="0.100" stroke-linecap="round" opacity="0.8"/><line x1="-4.445" y1="-1.840" x2="-1.840" y2="-4.445" stroke="#6b7280" stroke-width="0.100" stroke-linecap="round" opacity="0.8"/><line x1="-4.445" y1="1.840" x2="-4.445" y2="-1.840" stroke="#6b7280" stroke-width="0.100" stroke-linecap="round" opacity="0.8"/><line x1="-4.445" y1="1.840" x2="-1.840" y2="4.445" stroke="#6b7280" stroke-width="0.100" stroke-linecap="round" opacity="0.8"/><line x1="-2.652" y1="-0.530" x2="-2.408" y2="-0.286" stroke="#6b7280" stroke-width="0.100" stroke-linecap="round" opacity="0.8"/><line x1="-1.840" y1="-4.445" x2="1.840" y2="-4.445" stroke="#6b7280" stroke-width="0.100" stroke-linecap="round" opacity="0.8"/><line x1="-1.840" y1="4.445" x2="1.840" y2="4.445" stroke="#6b7280" stroke-width="0.100" stroke-linecap="round" opacity="0.8"/><line x1="-1.414" y1="-1.061" x2="-1.061" y2="-0.707" stroke="#6b7280" stroke-width="0.100" stroke-linecap="round" opacity="0.8"/><line x1="-1.061" y1="-1.414" x2="-0.707" y2="-1.061" stroke="#6b7280" stroke-width="0.100" stroke-linecap="round" opacity="0.8"/><line x1="-0.707" y1="-0.354" x2="-0.354" y2="0.000" stroke="#6b7280" stroke-width="0.100" stroke-linecap="round" opacity="0.8"/><line x1="-0.600" y1="-5.715" x2="0.600" y2="-5.715" stroke="#6b7280" stroke-width="0.100" stroke-linecap="round" opacity="0.8"/><line x1="-0.600" y1="-4.445" x2="-0.600" y2="-5.715" stroke="#6b7280" stroke-width="0.100" stroke-linecap="round" opacity="0.8"/><line x1="-0.600" y1="5.715" x2="-0.600" y2="4.445" stroke="#6b7280" stroke-width="0.100" stroke-linecap="round" opacity="0.8"/><line x1="-0.600" y1="5.715" x2="0.600" y2="5.715" stroke="#6b7280" stroke-width="0.100" stroke-linecap="round" opacity="0.8"/><line x1="-0.530" y1="-2.652" x2="-0.286" y2="-2.408" stroke="#6b7280" stroke-width="0.100" stroke-linecap="round" opacity="0.8"/><line x1="-0.354" y1="-0.707" x2="0.000" y2="-0.354" stroke="#6b7280" stroke-width="0.100" stroke-linecap="round" opacity="0.8"/><line x1="0.000" y1="0.354" x2="0.354" y2="0.707" stroke="#6b7280" stroke-width="0.100" stroke-linecap="round" opacity="0.8"/><line x1="0.286" y1="2.408" x2="0.530" y2="2.652" stroke="#6b7280" stroke-width="0.100" stroke-linecap="round" opacity="0.8"/><line x1="0.354" y1="0.000" x2="0.707" y2="0.354" stroke="#6b7280" stroke-width="0.100" stroke-linecap="round" opacity="0.8"/><line x1="0.600" y1="-4.445" x2="0.600" y2="-5.715" stroke="#6b7280" stroke-width="0.100" stroke-linecap="round" opacity="0.8"/><line x1="0.600" y1="5.715" x2="0.600" y2="4.445" stroke="#6b7280" stroke-width="0.100" stroke-linecap="round" opacity="0.8"/><line x1="0.707" y1="1.061" x2="1.061" y2="1.414" stroke="#6b7280" stroke-width="0.100" stroke-linecap="round" opacity="0.8"/><line x1="1.061" y1="0.707" x2="1.414" y2="1.061" stroke="#6b7280" stroke-width="0.100" stroke-linecap="round" opacity="0.8"/><line x1="1.840" y1="-4.445" x2="4.445" y2="-1.840" stroke="#6b7280" stroke-width="0.100" stroke-linecap="round" opacity="0.8"/><line x1="1.840" y1="4.445" x2="4.445" y2="1.840" stroke="#6b7280" stroke-width="0.100" stroke-linecap="round" opacity="0.8"/><line x1="2.408" y1="0.286" x2="2.652" y2="0.530" stroke="#6b7280" stroke-width="0.100" stroke-linecap="round" opacity="0.8"/><line x1="4.445" y1="-0.600" x2="5.715" y2="-0.600" stroke="#6b7280" stroke-width="0.100" stroke-linecap="round" opacity="0.8"/><line x1="4.445" y1="0.600" x2="5.715" y2="0.600" stroke="#6b7280" stroke-width="0.100" stroke-linecap="round" opacity="0.8"/><line x1="4.445" y1="1.840" x2="4.445" y2="-1.840" stroke="#6b7280" stroke-width="0.100" stroke-linecap="round" opacity="0.8"/><line x1="5.715" y1="0.600" x2="5.715" y2="-0.600" stroke="#6b7280" stroke-width="0.100" stroke-linecap="round" opacity="0.8"/><line x1="-7.070" y1="-7.070" x2="7.070" y2="-7.070" stroke="#d24d4d" stroke-width="0.080" stroke-linecap="round" opacity="0.7"/><line x1="7.070" y1="-7.070" x2="7.070" y2="7.070" stroke="#d24d4d" stroke-width="0.080" stroke-linecap="round" opacity="0.7"/><line x1="7.070" y1="7.070" x2="-7.070" y2="7.070" stroke="#d24d4d" stroke-width="0.080" stroke-linecap="round" opacity="0.7"/><line x1="-7.070" y1="7.070" x2="-7.070" y2="-7.070" stroke="#d24d4d" stroke-width="0.080" stroke-linecap="round" opacity="0.7"/><path d="M -2.408 -0.286 A 0.635 0.635 0 1 1 -1.510 0.612" fill="none" stroke="#e6e9ef" stroke-width="0.12" opacity="1"/><path d="M -1.510 0.612 A 0.635 0.635 0 0 1 -0.612 1.510" fill="none" stroke="#e6e9ef" stroke-width="0.12" opacity="1"/><path d="M -0.612 1.510 A 0.635 0.635 0 1 1 0.286 2.408" fill="none" stroke="#e6e9ef" stroke-width="0.12" opacity="1"/><path d="M 0.612 -1.510 A 0.635 0.635 0 1 1 -0.286 -2.408" fill="none" stroke="#e6e9ef" stroke-width="0.12" opacity="1"/><path d="M 1.510 -0.612 A 0.635 0.635 0 0 1 0.612 -1.510" fill="none" stroke="#e6e9ef" stroke-width="0.12" opacity="1"/><path d="M 2.408 0.286 A 0.635 0.635 0 1 1 1.510 -0.612" fill="none" stroke="#e6e9ef" stroke-width="0.12" opacity="1"/><path d="M -2.408 -0.286 A 0.635 0.635 0 1 1 -1.510 0.612" fill="none" stroke="#6b7280" stroke-width="0.12" opacity="0.8"/><path d="M -1.510 0.612 A 0.635 0.635 0 0 1 -0.612 1.510" fill="none" stroke="#6b7280" stroke-width="0.12" opacity="0.8"/><path d="M -0.612 1.510 A 0.635 0.635 0 1 1 0.286 2.408" fill="none" stroke="#6b7280" stroke-width="0.12" opacity="0.8"/><path d="M 0.612 -1.510 A 0.635 0.635 0 1 1 -0.286 -2.408" fill="none" stroke="#6b7280" stroke-width="0.12" opacity="0.8"/><path d="M 1.510 -0.612 A 0.635 0.635 0 0 1 0.612 -1.510" fill="none" stroke="#6b7280" stroke-width="0.12" opacity="0.8"/><path d="M 2.408 0.286 A 0.635 0.635 0 1 1 1.510 -0.612" fill="none" stroke="#6b7280" stroke-width="0.12" opacity="0.8"/><circle cx="-4.800" cy="-2.600" r="0.150" fill="#e6e9ef" opacity="1"/><circle cx="-2.121" cy="-1.061" r="0.150" fill="#e6e9ef" opacity="1"/><circle cx="-1.061" cy="-2.121" r="0.150" fill="#e6e9ef" opacity="1"/><circle cx="-3.225" cy="-1.575" r="0.400" fill="none" stroke="#6b7280" stroke-width="0.12" opacity="0.8"/><circle cx="-2.121" cy="-1.061" r="0.150" fill="#6b7280" opacity="0.8"/><circle cx="-1.061" cy="-2.121" r="0.150" fill="#6b7280" opacity="0.8"/><rect x="-6.500" y="-1.840" width="3.040" height="3.680" rx="1.520" fill="#c79b5c"/><rect x="-1.840" y="3.460" width="3.680" height="3.040" rx="1.520" fill="#c79b5c"/><rect x="3.460" y="-1.840" width="3.040" height="3.680" rx="1.520" fill="#c79b5c"/><rect x="-1.840" y="-6.500" width="3.680" height="3.040" rx="1.520" fill="#c79b5c"/></svg>