<svg xmlns="http://www.w3.org/2000/svg" viewBox="-9.19 -7.47 18.38 15.65" preserveAspectRatio="xMidYMid meet" style="width:100%;height:100%"><rect x="-9.19" y="-7.47" width="18.38" height="15.65" fill="#12151c"/><line x1="-7.938" y1="-4.953" x2="-6.668" y2="-4.953" stroke="#e6e9ef" stroke-width="0.200" stroke-linecap="round" opacity="1"/><line x1="-7.938" y1="4.445" x2="-7.938" y2="-4.953" stroke="#e6e9ef" stroke-width="0.200" stroke-linecap="round" opacity="1"/><line x1="-7.938" y1="4.445" x2="-6.668" y2="4.445" stroke="#e6e9ef" stroke-width="0.200" stroke-linecap="round" opacity="1"/><line x1="-6.668" y1="-4.445" x2="-6.668" y2="-4.953" stroke="#e6e9ef" stroke-width="0.200" stroke-linecap="round" opacity="1"/><line x1="-6.668" y1="3.302" x2="-6.668" y2="-3.302" stroke="#e6e9ef" stroke-width="0.200" stroke-linecap="round" opacity="1"/><line x1="6.668" y1="-4.953" x2="7.938" y2="-4.953" stroke="#e6e9ef" stroke-width="0.200" stroke-linecap="round" opacity="1"/><line x1="6.668" y1="-4.445" x2="6.668" y2="-4.953" stroke="#e6e9ef" stroke-width="0.200" stroke-linecap="round" opacity="1"/><line x1="6.668" y1="3.302" x2="6.668" y2="-3.302" stroke="#e6e9ef" stroke-width="0.200" stroke-linecap="round" opacity="1"/><line x1="6.668" y1="4.445" x2="7.938" y2="4.445" stroke="#e6e9ef" stroke-width="0.200" stroke-linecap="round" opacity="1"/><line x1="7.938" y1="4.445" x2="7.938" y2="-4.953" stroke="#e6e9ef" stroke-width="0.200" stroke-linecap="round" opacity="1"/><line x1="-6.090" y1="-6.225" x2="-5.715" y2="-3.562" stroke="#4a5160" stroke-width="0.080" stroke-linecap="round" opacity="0.7"/><line x1="-6.090" y1="-6.225" x2="-5.340" y2="-6.225" stroke="#4a5160" stroke-width="0.080" stroke-linecap="round" opacity="0.7"/><line x1="-6.090" y1="-0.900" x2="-6.090" y2="-6.225" stroke="#4a5160" stroke-width="0.080" stroke-linecap="round" opacity="0.7"/><line x1="-6.090" y1="-0.900" x2="-5.340" y2="-0.900" stroke="#4a5160" stroke-width="0.080" stroke-linecap="round" opacity="0.7"/><line x1="-6.090" y1="0.900" x2="-5.340" y2="0.900" stroke="#4a5160" stroke-width="0.080" stroke-linecap="round" opacity="0.7"/><line x1="-6.090" y1="6.225" x2="-6.090" y2="0.900" stroke="#4a5160" stroke-width="0.080" stroke-linecap="round" opacity="0.7"/><line x1="-6.090" y1="6.225" x2="-5.715" y2="3.562" stroke="#4a5160" stroke-width="0.080" stroke-linecap="round" opacity="0.7"/><line x1="-6.090" y1="6.225" x2="-5.340" y2="6.225" stroke="#4a5160" stroke-width="0.080" stroke-linecap="round" opacity="0.7"/><line x1="-5.715" y1="-3.562" x2="-5.340" y2="-6.225" stroke="#4a5160" stroke-width="0.080" stroke-linecap="round" opacity="0.7"/><line x1="-5.715" y1="3.562" x2="-5.340" y2="6.225" stroke="#4a5160" stroke-width="0.080" stroke-linecap="round" opacity="0.7"/><line x1="-5.340" y1="-0.900" x2="-5.340" y2="-6.225" stroke="#4a5160" stroke-width="0.080" stroke-linecap="round" opacity="0.7"/><line x1="-5.340" y1="6.225" x2="-5.340" y2="0.900" stroke="#4a5160" stroke-width="0.080" stroke-linecap="round" opacity="0.7"/><line x1="-4.820" y1="-6.225" x2="-4.445" y2="-3.562" stroke="#4a5160" stroke-width="0.080" stroke-linecap="round" opacity="0.7"/><line x1="-4.820" y1="-6.225" x2="-4.070" y2="-6.225" stroke="#4a5160" stroke-width="0.080" stroke-linecap="round" opacity="0.7"/><line x1="-4.820" y1="-0.900" x2="-4.820" y2="-6.225" stroke="#4a5160" stroke-width="0.080" stroke-linecap="round" opacity="0.7"/><line x1="-4.820" y1="-0.900" x2="-4.070" y2="-0.900" stroke="#4a5160" stroke-width="0.080" stroke-linecap="round" opacity="0.7"/><line x1="-4.820" y1="0.900" x2="-4.070" y2="0.900" stroke="#4a5160" stroke-width="0.080" stroke-linecap="round" opacity="0.7"/><line x1="-4.820" y1="6.225" x2="-4.820" y2="0.900" stroke="#4a5160" stroke-width="0.080" stroke-linecap="round" opacity="0.7"/><line x1="-4.820" y1="6.225" x2="-4.445" y2="3.562" stroke="#4a5160" stroke-width="0.080" stroke-linecap="round" opacity="0.7"/><line x1="-4.820" y1="6.225" x2="-4.070" y2="6.225" stroke="#4a5160" stroke-width="0.080" stroke-linecap="round" opacity="0.7"/><line x1="-4.445" y1="-3.562" x2="-4.070" y2="-6.225" stroke="#4a5160" stroke-width="0.080" stroke-linecap="round" opacity="0.7"/><line x1="-4.445" y1="3.562" x2="-4.070" y2="6.225" stroke="#4a5160" stroke-width="0.080" stroke-linecap="round" opacity="0.7"/><line x1="-4.070" y1="-0.900" x2="-4.070" y2="-6.225" stroke="#4a5160" stroke-width="0.080" stroke-linecap="round" opacity="0.7"/><line x1="-4.070" y1="6.225" x2="-4.070" y2="0.900" stroke="#4a5160" stroke-width="0.080" stroke-linecap="round" opacity="0.7"/><line x1="-3.550" y1="0.900" x2="-2.800" y2="0.900" stroke="#4a5160" stroke-width="0.080" stroke-linecap="round" opacity="0.7"/><line x1="-3.550" y1="6.225" x2="-3.550" y2="0.900" stroke="#4a5160" stroke-width="0.080" stroke-linecap="round" opacity="0.7"/><line x1="-3.550" y1="6.225" x2="-3.175" y2="3.562" stroke="#4a5160" stroke-width="0.080" stroke-linecap="round" opacity="0.7"/><line x1="-3.550" y1="6.225" x2="-2.800" y2="6.225" stroke="#4a5160" stroke-width="0.080" stroke-linecap="round" opacity="0.7"/><line x1="-3.175" y1="3.562" x2="-2.800" y2="6.225" stroke="#4a5160" stroke-width="0.080" stroke-linecap="round" opacity="0.7"/><line x1="-2.800" y1="6.225" x2="-2.800" y2="0.900" stroke="#4a5160" stroke-width="0.080" stroke-linecap="round" opacity="0.7"/><line x1="-2.280" y1="-6.225" x2="-1.905" y2="-3.562" stroke="#4a5160" stroke-width="0.080" stroke-linecap="round" opacity="0.7"/><line x1="-2.280" y1="-6.225" x2="-1.530" y2="-6.225" stroke="#4a5160" stroke-width="0.080" stroke-linecap="round" opacity="0.7"/><line x1="-2.280" y1="-0.900" x2="-2.280" y2="-6.225" stroke="#4a5160" stroke-width="0.080" stroke-linecap="round" opacity="0.7"/><line x1="-2.280" y1="-0.900" x2="-1.530" y2="-0.900" stroke="#4a5160" stroke-width="0.080" stroke-linecap="round" opacity="0.7"/><line x1="-2.280" y1="0.900" x2="-1.530" y2="0.900" stroke="#4a5160" stroke-width="0.080" stroke-linecap="round" opacity="0.7"/><line x1="-2.280" y1="6.225" x2="-2.280" y2="0.900" stroke="#4a5160" stroke-width="0.080" stroke-linecap="round" opacity="0.7"/><line x1="-2.280" y1="6.225" x2="-1.905" y2="3.562" stroke="#4a5160" stroke-width="0.080" stroke-linecap="round" opacity="0.7"/><line x1="-2.280" y1="6.225" x2="-1.530" y2="6.225" stroke="#4a5160" stroke-width="0.080" stroke-linecap="round" opacity="0.7"/><line x1="-1.905" y1="-3.562" x2="-1.530" y2="-6.225" stroke="#4a5160" stroke-width="0.080" stroke-linecap="round" opacity="0.7"/><line x1="-1.905" y1="3.562" x2="-1.530" y2="6.225" stroke="#4a5160" stroke-width="0.080" stroke-linecap="round" opacity="0.7"/><line x1="-1.530" y1="-0.900" x2="-1.530" y2="-6.225" stroke="#4a5160" stroke-width="0.080" stroke-linecap="round" opacity="0.7"/><line x1="-1.530" y1="6.225" x2="-1.530" y2="0.900" stroke="#4a5160" stroke-width="0.080" stroke-linecap="round" opacity="0.7"/><line x1="-1.010" y1="-6.225" x2="-0.635" y2="-3.562" stroke="#4a5160" stroke-width="0.080" stroke-linecap="round" opacity="0.7"/><line x1="-1.010" y1="-6.225" x2="-0.260" y2="-6.225" stroke="#4a5160" stroke-width="0.080" stroke-linecap="round" opacity="0.7"/><line x1="-1.010" y1="-0.900" x2="-1.010" y2="-6.225" stroke="#4a5160" stroke-width="0.080" stroke-linecap="round" opacity="0.7"/><line x1="-1.010" y1="-0.900" x2="-0.260" y2="-0.900" stroke="#4a5160" stroke-width="0.080" stroke-linecap="round" opacity="0.7"/><line x1="-1.010" y1="0.900" x2="-0.260" y2="0.900" stroke="#4a5160" stroke-width="0.080" stroke-linecap="round" opacity="0.7"/><line x1="-1.010" y1="6.225" x2="-1.010" y2="0.900" stroke="#4a5160" stroke-width="0.080" stroke-linecap="round" opacity="0.7"/><line x1="-1.010" y1="6.225" x2="-0.635" y2="3.562" stroke="#4a5160" stroke-width="0.080" stroke-linecap="round" opacity="0.7"/><line x1="-1.010" y1="6.225" x2="-0.260" y2="6.225" stroke="#4a5160" stroke-width="0.080" stroke-linecap="round" opacity="0.7"/><line x1="-0.635" y1="-3.562" x2="-0.260" y2="-6.225" stroke="#4a5160" stroke-width="0.080" stroke-linecap="round" opacity="0.7"/><line x1="-0.635" y1="3.562" x2="-0.260" y2="6.225" stroke="#4a5160" stroke-width="0.080" stroke-linecap="round" opacity="0.7"/><line x1="-0.500" y1="0.000" x2="0.000" y2="0.000" stroke="#4a5160" stroke-width="0.080" stroke-linecap="round" opacity="0.7"/><line x1="-0.260" y1="-0.900" x2="-0.260" y2="-6.225" stroke="#4a5160" stroke-width="0.080" stroke-linecap="round" opacity="0.7"/><line x1="-0.260" y1="6.225" x2="-0.260" y2="0.900" stroke="#4a5160" stroke-width="0.080" stroke-linecap="round" opacity="0.7"/><line x1="0.000" y1="0.000" x2="0.000" y2="-0.500" stroke="#4a5160" stroke-width="0.080" stroke-linecap="round" opacity="0.7"/><line x1="0.000" y1="0.000" x2="0.500" y2="0.000" stroke="#4a5160" stroke-width="0.080" stroke-linecap="round" opacity="0.7"/><line x1="0.000" y1="0.500" x2="0.000" y2="0.000" stroke="#4a5160" stroke-width="0.080" stroke-linecap="round" opacity="0.7"/><line x1="0.260" y1="-6.225" x2="0.635" y2="-3.562" stroke="#4a5160" stroke-width="0.080" stroke-linecap="round" opacity="0.7"/><line x1="0.260" y1="-6.225" x2="1.010" y2="-6.225" stroke="#4a5160" stroke-width="0.080" stroke-linecap="round" opacity="0.7"/><line x1="0.260" y1="-0.900" x2="0.260" y2="-6.225" stroke="#4a5160" stroke-width="0.080" stroke-linecap="round" opacity="0.7"/><line x1="0.260" y1="-0.900" x2="1.010" y2="-0.900" stroke="#4a5160" stroke-width="0.080" stroke-linecap="round" opacity="0.7"/><line x1="0.260" y1="0.900" x2="1.010" y2="0.900" stroke="#4a5160" stroke-width="0.080" stroke-linecap="round" opacity="0.7"/><line x1="0.260" y1="6.225" x2="0.260" y2="0.900" stroke="#4a5160" stroke-width="0.080" stroke-linecap="round" opacity="0.7"/><line x1="0.260" y1="6.225" x2="0.635" y2="3.562" stroke="#4a5160" stroke-width="0.080" stroke-linecap="round" opacity="0.7"/><line x1="0.260" y1="6.225" x2="1.010" y2="6.225" stroke="#4a5160" stroke-width="0.080" stroke-linecap="round" opacity="0.7"/><line x1="0.635" y1="-3.562" x2="1.010" y2="-6.225" stroke="#4a5160" stroke-width="0.080" stroke-linecap="round" opacity="0.7"/><line x1="0.635" y1="3.562" x2="1.010" y2="6.225" stroke="#4a5160" stroke-width="0.080" stroke-linecap="round" opacity="0.7"/><line x1="1.010" y1="-0.900" x2="1.010" y2="-6.225" stroke="#4a5160" stroke-width="0.080" stroke-linecap="round" opacity="0.7"/><line x1="1.010" y1="6.225" x2="1.010" y2="0.900" stroke="#4a5160" stroke-width="0.080" stroke-linecap="round" opacity="0.7"/><line x1="1.530" y1="-6.225" x2="1.905" y2="-3.562" stroke="#4a5160" stroke-width="0.080" stroke-linecap="round" opacity="0.7"/><line x1="1.530" y1="-6.225" x2="2.280" y2="-6.225" stroke="#4a5160" stroke-width="0.080" stroke-linecap="round" opacity="0.7"/><line x1="1.530" y1="-0.900" x2="1.530" y2="-6.225" stroke="#4a5160" stroke-width="0.080" stroke-linecap="round" opacity="0.7"/><line x1="1.530" y1="-0.900" x2="2.280" y2="-0.900" stroke="#4a5160" stroke-width="0.080" stroke-linecap="round" opacity="0.7"/><line x1="1.530" y1="0.900" x2="2.280" y2="0.900" stroke="#4a5160" stroke-width="0.080" stroke-linecap="round" opacity="0.7"/><line x1="1.530" y1="6.225" x2="1.530" y2="0.900" stroke="#4a5160" stroke-width="0.080" stroke-linecap="round" opacity="0.7"/><line x1="1.530" y1="6.225" x2="1.905" y2="3.562" stroke="#4a5160" stroke-width="0.080" stroke-linecap="round" opacity="0.7"/><line x1="1.530" y1="6.225" x2="2.280" y2="6.225" stroke="#4a5160" stroke-width="0.080" stroke-linecap="round" opacity="0.7"/><line x1="1.905" y1="-3.562" x2="2.280" y2="-6.225" stroke="#4a5160" stroke-width="0.080" stroke-linecap="round" opacity="0.7"/><line x1="1.905" y1="3.562" x2="2.280" y2="6.225" stroke="#4a5160" stroke-width="0.080" stroke-linecap="round" opacity="0.7"/><line x1="2.280" y1="-0.900" x2="2.280" y2="-6.225" stroke="#4a5160" stroke-width="0.080" stroke-linecap="round" opacity="0.7"/><line x1="2.280" y1="6.225" x2="2.280" y2="0.900" stroke="#4a5160" stroke-width="0.080" stroke-linecap="round" opacity="0.7"/><line x1="2.800" y1="-6.225" x2="3.175" y2="-3.562" stroke="#4a5160" stroke-width="0.080" stroke-linecap="round" opacity="0.7"/><line x1="2.800" y1="-6.225" x2="3.550" y2="-6.225" stroke="#4a5160" stroke-width="0.080" stroke-linecap="round" opacity="0.7"/><line x1="2.800" y1="-0.900" x2="2.800" y2="-6.225" stroke="#4a5160" stroke-width="0.080" stroke-linecap="round" opacity="0.7"/><line x1="2.800" y1="-0.900" x2="3.550" y2="-0.900" stroke="#4a5160" stroke-width="0.080" stroke-linecap="round" opacity="0.7"/><line x1="2.800" y1="0.900" x2="3.550" y2="0.900" stroke="#4a5160" stroke-width="0.080" stroke-linecap="round" opacity="0.7"/><line x1="2.800" y1="6.225" x2="2.800" y2="0.900" stroke="#4a5160" stroke-width="0.080" stroke-linecap="round" opacity="0.7"/><line x1="2.800" y1="6.225" x2="3.175" y2="3.562" stroke="#4a5160" stroke-width="0.080" stroke-linecap="round" opacity="0.7"/><line x1="2.800" y1="6.225" x2="3.550" y2="6.225" stroke="#4a5160" stroke-width="0.080" stroke-linecap="round" opacity="0.7"/><line x1="3.175" y1="-3.562" x2="3.550" y2="-6.225" stroke="#4a5160" stroke-width="0.080" stroke-linecap="round" opacity="0.7"/><line x1="3.175" y1="3.562" x2="3.550" y2="6.225" stroke="#4a5160" stroke-width="0.080" stroke-linecap="round" opacity="0.7"/><line x1="3.550" y1="-0.900" x2="3.550" y2="-6.225" stroke="#4a5160" stroke-width="0.080" stroke-linecap="round" opacity="0.7"/><line x1="3.550" y1="6.225" x2="3.550" y2="0.900" stroke="#4a5160" stroke-width="0.080" stroke-linecap="round" opacity="0.7"/><line x1="4.070" y1="-6.225" x2="4.445" y2="-3.562" stroke="#4a5160" stroke-width="0.080" stroke-linecap="round" opacity="0.7"/><line x1="4.070" y1="-6.225" x2="4.820" y2="-6.225" stroke="#4a5160" stroke-width="0.080" stroke-linecap="round" opacity="0.7"/><line x1="4.070" y1="-0.900" x2="4.070" y2="-6.225" stroke="#4a5160" stroke-width="0.080" stroke-linecap="round" opacity="0.7"/><line x1="4.070" y1="-0.900" x2="4.820" y2="-0.900" stroke="#4a5160" stroke-width="0.080" stroke-linecap="round" opacity="0.7"/><line x1="4.070" y1="0.900" x2="4.820" y2="0.900" stroke="#4a5160" stroke-width="0.080" stroke-linecap="round" opacity="0.7"/><line x1="4.070" y1="6.225" x2="4.070" y2="0.900" stroke="#4a5160" stroke-width="0.080" stroke-linecap="round" opacity="0.7"/><line x1="4.070" y1="6.225" x2="4.445" y2="3.562" stroke="#4a5160" stroke-width="0.080" stroke-linecap="round" opacity="0.7"/><line x1="4.070" y1="6.225" x2="4.820" y2="6.225" stroke="#4a5160" stroke-width="0.080" stroke-linecap="round" opacity="0.7"/><line x1="4.445" y1="-3.562" x2="4.820" y2="-6.225" stroke="#4a5160" stroke-width="0.080" stroke-linecap="round" opacity="0.7"/><line x1="4.445" y1="3.562" x2="4.820" y2="6.225" stroke="#4a5160" stroke-width="0.080" stroke-linecap="round" opacity="0.7"/><line x1="4.820" y1="-0.900" x2="4.820" y2="-6.225" stroke="#4a5160" stroke-width="0.080" stroke-linecap="round" opacity="0.7"/><line x1="4.820" y1="6.225" x2="4.820" y2="0.900" stroke="#4a5160" stroke-width="0.080" stroke-linecap="round" opacity="0.7"/><line x1="5.340" y1="-6.225" x2="5.715" y2="-3.562" stroke="#4a5160" stroke-width="0.080" stroke-linecap="round" opacity="0.7"/><line x1="5.340" y1="-6.225" x2="6.090" y2="-6.225" stroke="#4a5160" stroke-width="0.080" stroke-linecap="round" opacity="0.7"/><line x1="5.340" y1="-0.900" x2="5.340" y2="-6.225" stroke="#4a5160" stroke-width="0.080" stroke-linecap="round" opacity="0.7"/><line x1="5.340" y1="-0.900" x2="6.090" y2="-0.900" stroke="#4a5160" stroke-width="0.080" stroke-linecap="round" opacity="0.7"/><line x1="5.340" y1="0.900" x2="6.090" y2="0.900" stroke="#4a5160" stroke-width="0.080" stroke-linecap="round" opacity="0.7"/><line x1="5.340" y1="6.225" x2="5.340" y2="0.900" stroke="#4a5160" stroke-width="0.080" stroke-linecap="round" opacity="0.7"/><line x1="5.340" y1="6.225" x2="5.715" y2="3.562" stroke="#4a5160" stroke-width="0.080" stroke-linecap="round" opacity="0.7"/><line x1="5.340" y1="6.225" x2="6.090" y2="6.225" stroke="#4a5160" stroke-width="0.080" stroke-linecap="round" opacity="0.7"/><line x1="5.715" y1="-3.562" x2="6.090" y2="-6.225" stroke="#4a5160" stroke-width="0.080" stroke-linecap="round" opacity="0.7"/><line x1="5.715" y1="3.562" x2="6.090" y2="6.225" stroke="#4a5160" stroke-width="0.080" stroke-linecap="round" opacity="0.7"/><line x1="6.090" y1="-0.900" x2="6.090" y2="-6.225" stroke="#4a5160" stroke-width="0.080" stroke-linecap="round" opacity="0.7"/><line x1="6.090" y1="6.225" x2="6.090" y2="0.900" stroke="#4a5160" stroke-width="0.080" stroke-linecap="round" opacity="0.7"/><line x1="-8.188" y1="-6.475" x2="8.188" y2="-6.475" stroke="#d24d4d" stroke-width="0.080" stroke-linecap="round" opacity="0.7"/><line x1="-8.188" y1="6.475" x2="-8.188" y2="-6.475" stroke="#d24d4d" stroke-width="0.080" stroke-linecap="round" opacity="0.7"/><line x1="-8.188" y1="6.475" x2="8.188" y2="6.475" stroke="#d24d4d" stroke-width="0.080" stroke-linecap="round" opacity="0.7"/><line x1="8.188" y1="6.475" x2="8.188" y2="-6.475" stroke="#d24d4d" stroke-width="0.080" stroke-linecap="round" opacity="0.7"/><line x1="-7.938" y1="-4.953" x2="-6.668" y2="-4.953" stroke="#6b7280" stroke-width="0.100" stroke-linecap="round" opacity="0.8"/><line x1="-7.938" y1="4.445" x2="-7.938" y2="-4.953" stroke="#6b7280" stroke-width="0.100" stroke-linecap="round" opacity="0.8"/><line x1="-7.938" y1="4.445" x2="7.938" y2="4.445" stroke="#6b7280" stroke-width="0.100" stroke-linecap="round" opacity="0.8"/><line x1="-6.668" y1="-4.445" x2="-6.668" y2="-4.953" stroke="#6b7280" stroke-width="0.100" stroke-linecap="round" opacity="0.8"/><line x1="-6.668" y1="-4.445" x2="-1.270" y2="-4.445" stroke="#6b7280" stroke-width="0.100" stroke-linecap="round" opacity="0.8"/><line x1="-6.668" y1="-3.302" x2="6.668" y2="-3.302" stroke="#6b7280" stroke-width="0.100" stroke-linecap="round" opacity="0.8"/><line x1="-6.668" y1="3.302" x2="-6.668" y2="-3.302" stroke="#6b7280" stroke-width="0.100" stroke-linecap="round" opacity="0.8"/><line x1="-6.668" y1="3.302" x2="6.668" y2="3.302" stroke="#6b7280" stroke-width="0.100" stroke-linecap="round" opacity="0.8"/><line x1="-5.969" y1="-5.715" x2="-5.461" y2="-5.715" stroke="#6b7280" stroke-width="0.100" stroke-linecap="round" opacity="0.8"/><line x1="-5.969" y1="-4.445" x2="-5.969" y2="-5.715" stroke="#6b7280" stroke-width="0.100" stroke-linecap="round" opacity="0.8"/><line x1="-5.969" y1="5.715" x2="-5.969" y2="4.445" stroke="#6b7280" stroke-width="0.100" stroke-linecap="round" opacity="0.8"/><line x1="-5.969" y1="5.715" x2="-5.461" y2="5.715" stroke="#6b7280" stroke-width="0.100" stroke-linecap="round" opacity="0.8"/><line x1="-5.944" y1="-1.499" x2="-5.486" y2="-1.499" stroke="#6b7280" stroke-width="0.100" stroke-linecap="round" opacity="0.8"/><line x1="-5.944" y1="-1.041" x2="-5.944" y2="-1.499" stroke="#6b7280" stroke-width="0.100" stroke-linecap="round" opacity="0.8"/><line x1="-5.944" y1="-1.041" x2="-5.486" y2="-1.041" stroke="#6b7280" stroke-width="0.100" stroke-linecap="round" opacity="0.8"/><line x1="-5.944" y1="1.041" x2="-5.486" y2="1.041" stroke="#6b7280" stroke-width="0.100" stroke-linecap="round" opacity="0.8"/><line x1="-5.944" y1="1.499" x2="-5.944" y2="1.041" stroke="#6b7280" stroke-width="0.100" stroke-linecap="round" opacity="0.8"/><line x1="-5.944" y1="1.499" x2="-5.486" y2="1.499" stroke="#6b7280" stroke-width="0.100" stroke-linecap="round" opacity="0.8"/><line x1="-5.486" y1="-1.041" x2="-5.486" y2="-1.499" stroke="#6b7280" stroke-width="0.100" stroke-linecap="round" opacity="0.8"/><line x1="-5.486" y1="1.499" x2="-5.486" y2="1.041" stroke="#6b7280" stroke-width="0.100" stroke-linecap="round" opacity="0.8"/><line x1="-5.461" y1="-4.445" x2="-5.461" y2="-5.715" stroke="#6b7280" stroke-width="0.100" stroke-linecap="round" opacity="0.8"/><line x1="-5.461" y1="5.715" x2="-5.461" y2="4.445" stroke="#6b7280" stroke-width="0.100" stroke-linecap="round" opacity="0.8"/><line x1="-4.699" y1="-5.715" x2="-4.191" y2="-5.715" stroke="#6b7280" stroke-width="0.100" stroke-linecap="round" opacity="0.8"/><line x1="-4.699" y1="-4.445" x2="-4.699" y2="-5.715" stroke="#6b7280" stroke-width="0.100" stroke-linecap="round" opacity="0.8"/><line x1="-4.699" y1="5.715" x2="-4.699" y2="4.445" stroke="#6b7280" stroke-width="0.100" stroke-linecap="round" opacity="0.8"/><line x1="-4.699" y1="5.715" x2="-4.191" y2="5.715" stroke="#6b7280" stroke-width="0.100" stroke-linecap="round" opacity="0.8"/><line x1="-4.674" y1="-1.499" x2="-4.216" y2="-1.499" stroke="#6b7280" stroke-width="0.100" stroke-linecap="round" opacity="0.8"/><line x1="-4.674" y1="-1.041" x2="-4.674" y2="-1.499" stroke="#6b7280" stroke-width="0.100" stroke-linecap="round" opacity="0.8"/><line x1="-4.674" y1="-1.041" x2="-4.216" y2="-1.041" stroke="#6b7280" stroke-width="0.100" stroke-linecap="round" opacity="0.8"/><line x1="-4.674" y1="1.041" x2="-4.216" y2="1.041" stroke="#6b7280" stroke-width="0.100" stroke-linecap="round" opacity="0.8"/><line x1="-4.674" y1="1.499" x2="-4.674" y2="1.041" stroke="#6b7280" stroke-width="0.100" stroke-linecap="round" opacity="0.8"/><line x1="-4.674" y1="1.499" x2="-4.216" y2="1.499" stroke="#6b7280" stroke-width="0.100" stroke-linecap="round" opacity="0.8"/><line x1="-4.216" y1="-1.041" x2="-4.216" y2="-1.499" stroke="#6b7280" stroke-width="0.100" stroke-linecap="round" opacity="0.8"/><line x1="-4.216" y1="1.499" x2="-4.216" y2="1.041" stroke="#6b7280" stroke-width="0.100" stroke-linecap="round" opacity="0.8"/><line x1="-4.191" y1="-4.445" x2="-4.191" y2="-5.715" stroke="#6b7280" stroke-width="0.100" stroke-linecap="round" opacity="0.8"/><line x1="-4.191" y1="5.715" x2="-4.191" y2="4.445" stroke="#6b7280" stroke-width="0.100" stroke-linecap="round" opacity="0.8"/><line x1="-3.429" y1="5.715" x2="-3.429" y2="4.445" stroke="#6b7280" stroke-width="0.100" stroke-linecap="round" opacity="0.8"/><line x1="-3.429" y1="5.715" x2="-2.921" y2="5.715" stroke="#6b7280" stroke-width="0.100" stroke-linecap="round" opacity="0.8"/><line x1="-3.404" y1="1.041" x2="-2.946" y2="1.041" stroke="#6b7280" stroke-width="0.100" stroke-linecap="round" opacity="0.8"/><line x1="-3.404" y1="1.499" x2="-3.404" y2="1.041" stroke="#6b7280" stroke-width="0.100" stroke-linecap="round" opacity="0.8"/><line x1="-3.404" y1="1.499" x2="-2.946" y2="1.499" stroke="#6b7280" stroke-width="0.100" stroke-linecap="round" opacity="0.8"/><line x1="-2.946" y1="1.499" x2="-2.946" y2="1.041" stroke="#6b7280" stroke-width="0.100" stroke-linecap="round" opacity="0.8"/><line x1="-2.921" y1="5.715" x2="-2.921" y2="4.445" stroke="#6b7280" stroke-width="0.100" stroke-linecap="round" opacity="0.8"/><line x1="-2.159" y1="-5.715" x2="-1.651" y2="-5.715" stroke="#6b7280" stroke-width="0.100" stroke-linecap="round" opacity="0.8"/><line x1="-2.159" y1="-4.445" x2="-2.159" y2="-5.715" stroke="#6b7280" stroke-width="0.100" stroke-linecap="round" opacity="0.8"/><line x1="-2.159" y1="5.715" x2="-2.159" y2="4.445" stroke="#6b7280" stroke-width="0.100" stroke-linecap="round" opacity="0.8"/><line x1="-2.159" y1="5.715" x2="-1.651" y2="5.715" stroke="#6b7280" stroke-width="0.100" stroke-linecap="round" opacity="0.8"/><line x1="-2.134" y1="-1.499" x2="-1.676" y2="-1.499" stroke="#6b7280" stroke-width="0.100" stroke-linecap="round" opacity="0.8"/><line x1="-2.134" y1="-1.041" x2="-2.134" y2="-1.499" stroke="#6b7280" stroke-width="0.100" stroke-linecap="round" opacity="0.8"/><line x1="-2.134" y1="-1.041" x2="-1.676" y2="-1.041" stroke="#6b7280" stroke-width="0.100" stroke-linecap="round" opacity="0.8"/><line x1="-2.134" y1="1.041" x2="-1.676" y2="1.041" stroke="#6b7280" stroke-width="0.100" stroke-linecap="round" opacity="0.8"/><line x1="-2.134" y1="1.499" x2="-2.134" y2="1.041" stroke="#6b7280" stroke-width="0.100" stroke-linecap="round" opacity="0.8"/><line x1="-2.134" y1="1.499" x2="-1.676" y2="1.499" stroke="#6b7280" stroke-width="0.100" stroke-linecap="round" opacity="0.8"/><line x1="-1.778" y1="4.445" x2="-1.778" y2="3.302" stroke="#6b7280" stroke-width="0.100" stroke-linecap="round" opacity="0.8"/><line x1="-1.676" y1="-1.041" x2="-1.676" y2="-1.499" stroke="#6b7280" stroke-width="0.100" stroke-linecap="round" opacity="0.8"/><line x1="-1.676" y1="1.499" x2="-1.676" y2="1.041" stroke="#6b7280" stroke-width="0.100" stroke-linecap="round" opacity="0.8"/><line x1="-1.651" y1="-4.445" x2="-1.651" y2="-5.715" stroke="#6b7280" stroke-width="0.100" stroke-linecap="round" opacity="0.8"/><line x1="-1.651" y1="5.715" x2="-1.651" y2="4.445" stroke="#6b7280" stroke-width="0.100" stroke-linecap="round" opacity="0.8"/><line x1="-1.270" y1="-4.953" x2="1.270" y2="-4.953" stroke="#6b7280" stroke-width="0.100" stroke-linecap="round" opacity="0.8"/><line x1="-1.270" y1="-4.445" x2="-1.270" y2="-4.953" stroke="#6b7280" stroke-width="0.100" stroke-linecap="round" opacity="0.8"/><line x1="-0.889" y1="-5.715" x2="-0.381" y2="-5.715" stroke="#6b7280" stroke-width="0.100" stroke-linecap="round" opacity="0.8"/><line x1="-0.889" y1="-4.953" x2="-0.889" y2="-5.715" stroke="#6b7280" stroke-width="0.100" stroke-linecap="round" opacity="0.8"/><line x1="-0.889" y1="5.715" x2="-0.889" y2="4.445" stroke="#6b7280" stroke-width="0.100" stroke-linecap="round" opacity="0.8"/><line x1="-0.889" y1="5.715" x2="-0.381" y2="5.715" stroke="#6b7280" stroke-width="0.100" stroke-linecap="round" opacity="0.8"/><line x1="-0.864" y1="-1.499" x2="-0.406" y2="-1.499" stroke="#6b7280" stroke-width="0.100" stroke-linecap="round" opacity="0.8"/><line x1="-0.864" y1="-1.041" x2="-0.864" y2="-1.499" stroke="#6b7280" stroke-width="0.100" stroke-linecap="round" opacity="0.8"/><line x1="-0.864" y1="-1.041" x2="-0.406" y2="-1.041" stroke="#6b7280" stroke-width="0.100" stroke-linecap="round" opacity="0.8"/><line x1="-0.864" y1="1.041" x2="-0.406" y2="1.041" stroke="#6b7280" stroke-width="0.100" stroke-linecap="round" opacity="0.8"/><line x1="-0.864" y1="1.499" x2="-0.864" y2="1.041" stroke="#6b7280" stroke-width="0.100" stroke-linecap="round" opacity="0.8"/><line x1="-0.864" y1="1.499" x2="-0.406" y2="1.499" stroke="#6b7280" stroke-width="0.100" stroke-linecap="round" opacity="0.8"/><line x1="-0.406" y1="-1.041" x2="-0.406" y2="-1.499" stroke="#6b7280" stroke-width="0.100" stroke-linecap="round" opacity="0.8"/><line x1="-0.406" y1="1.499" x2="-0.406" y2="1.041" stroke="#6b7280" stroke-width="0.100" stroke-linecap="round" opacity="0.8"/><line x1="-0.381" y1="-4.953" x2="-0.381" y2="-5.715" stroke="#6b7280" stroke-width="0.100" stroke-linecap="round" opacity="0.8"/><line x1="-0.381" y1="5.715" x2="-0.381" y2="4.445" stroke="#6b7280" stroke-width="0.100" stroke-linecap="round" opacity="0.8"/><line x1="0.381" y1="-5.715" x2="0.889" y2="-5.715" stroke="#6b7280" stroke-width="0.100" stroke-linecap="round" opacity="0.8"/><line x1="0.381" y1="-4.953" x2="0.381" y2="-5.715" stroke="#6b7280" stroke-width="0.100" stroke-linecap="round" opacity="0.8"/><line x1="0.381" y1="5.715" x2="0.381" y2="4.445" stroke="#6b7280" stroke-width="0.100" stroke-linecap="round" opacity="0.8"/><line x1="0.381" y1="5.715" x2="0.889" y2="5.715" stroke="#6b7280" stroke-width="0.100" stroke-linecap="round" opacity="0.8"/><line x1="0.406" y1="-1.499" x2="0.864" y2="-1.499" stroke="#6b7280" stroke-width="0.100" stroke-linecap="round" opacity="0.8"/><line x1="0.406" y1="-1.041" x2="0.406" y2="-1.499" stroke="#6b7280" stroke-width="0.100" stroke-linecap="round" opacity="0.8"/><line x1="0.406" y1="-1.041" x2="0.864" y2="-1.041" stroke="#6b7280" stroke-width="0.100" stroke-linecap="round" opacity="0.8"/><line x1="0.406" y1="1.041" x2="0.864" y2="1.041" stroke="#6b7280" stroke-width="0.100" stroke-linecap="round" opacity="0.8"/><line x1="0.406" y1="1.499" x2="0.406" y2="1.041" stroke="#6b7280" stroke-width="0.100" stroke-linecap="round" opacity="0.8"/><line x1="0.406" y1="1.499" x2="0.864" y2="1.499" stroke="#6b7280" stroke-width="0.100" stroke-linecap="round" opacity="0.8"/><line x1="0.864" y1="-1.041" x2="0.864" y2="-1.499" stroke="#6b7280" stroke-width="0.100" stroke-linecap="round" opacity="0.8"/><line x1="0.864" y1="1.499" x2="0.864" y2="1.041" stroke="#6b7280" stroke-width="0.100" stroke-linecap="round" opacity="0.8"/><line x1="0.889" y1="-4.953" x2="0.889" y2="-5.715" stroke="#6b7280" stroke-width="0.100" stroke-linecap="round" opacity="0.8"/><line x1="0.889" y1="5.715" x2="0.889" y2="4.445" stroke="#6b7280" stroke-width="0.100" stroke-linecap="round" opacity="0.8"/><line x1="1.270" y1="-4.445" x2="1.270" y2="-4.953" stroke="#6b7280" stroke-width="0.100" stroke-linecap="round" opacity="0.8"/><line x1="1.270" y1="-4.445" x2="6.668" y2="-4.445" stroke="#6b7280" stroke-width="0.100" stroke-linecap="round" opacity="0.8"/><line x1="1.651" y1="-5.715" x2="2.159" y2="-5.715" stroke="#6b7280" stroke-width="0.100" stroke-linecap="round" opacity="0.8"/><line x1="1.651" y1="-4.445" x2="1.651" y2="-5.715" stroke="#6b7280" stroke-width="0.100" stroke-linecap="round" opacity="0.8"/><line x1="1.651" y1="5.715" x2="1.651" y2="4.445" stroke="#6b7280" stroke-width="0.100" stroke-linecap="round" opacity="0.8"/><line x1="1.651" y1="5.715" x2="2.159" y2="5.715" stroke="#6b7280" stroke-width="0.100" stroke-linecap="round" opacity="0.8"/><line x1="1.676" y1="-1.499" x2="2.134" y2="-1.499" stroke="#6b7280" stroke-width="0.100" stroke-linecap="round" opacity="0.8"/><line x1="1.676" y1="-1.041" x2="1.676" y2="-1.499" stroke="#6b7280" stroke-width="0.100" stroke-linecap="round" opacity="0.8"/><line x1="1.676" y1="-1.041" x2="2.134" y2="-1.041" stroke="#6b7280" stroke-width="0.100" stroke-linecap="round" opacity="0.8"/><line x1="1.676" y1="1.041" x2="2.134" y2="1.041" stroke="#6b7280" stroke-width="0.100" stroke-linecap="round" opacity="0.8"/><line x1="1.676" y1="1.499" x2="1.676" y2="1.041" stroke="#6b7280" stroke-width="0.100" stroke-linecap="round" opacity="0.8"/><line x1="1.676" y1="1.499" x2="2.134" y2="1.499" stroke="#6b7280" stroke-width="0.100" stroke-linecap="round" opacity="0.8"/><line x1="1.778" y1="4.445" x2="1.778" y2="3.302" stroke="#6b7280" stroke-width="0.100" stroke-linecap="round" opacity="0.8"/><line x1="2.134" y1="-1.041" x2="2.134" y2="-1.499" stroke="#6b7280" stroke-width="0.100" stroke-linecap="round" opacity="0.8"/><line x1="2.134" y1="1.499" x2="2.134" y2="1.041" stroke="#6b7280" stroke-width="0.100" stroke-linecap="round" opacity="0.8"/><line x1="2.159" y1="-4.445" x2="2.159" y2="-5.715" stroke="#6b7280" stroke-width="0.100" stroke-linecap="round" opacity="0.8"/><line x1="2.159" y1="5.715" x2="2.159" y2="4.445" stroke="#6b7280" stroke-width="0.100" stroke-linecap="round" opacity="0.8"/><line x1="2.921" y1="-5.715" x2="3.429" y2="-5.715" stroke="#6b7280" stroke-width="0.100" stroke-linecap="round" opacity="0.8"/><line x1="2.921" y1="-4.445" x2="2.921" y2="-5.715" stroke="#6b7280" stroke-width="0.100" stroke-linecap="round" opacity="0.8"/><line x1="2.921" y1="5.715" x2="2.921" y2="4.445" stroke="#6b7280" stroke-width="0.100" stroke-linecap="round" opacity="0.8"/><line x1="2.921" y1="5.715" x2="3.429" y2="5.715" stroke="#6b7280" stroke-width="0.100" stroke-linecap="round" opacity="0.8"/><line x1="2.946" y1="-1.499" x2="3.404" y2="-1.499" stroke="#6b7280" stroke-width="0.100" stroke-linecap="round" opacity="0.8"/><line x1="2.946" y1="-1.041" x2="2.946" y2="-1.499" stroke="#6b7280" stroke-width="0.100" stroke-linecap="round" opacity="0.8"/><line x1="2.946" y1="-1.041" x2="3.404" y2="-1.041" stroke="#6b7280" stroke-width="0.100" stroke-linecap="round" opacity="0.8"/><line x1="2.946" y1="1.041" x2="3.404" y2="1.041" stroke="#6b7280" stroke-width="0.100" stroke-linecap="round" opacity="0.8"/><line x1="2.946" y1="1.499" x2="2.946" y2="1.041" stroke="#6b7280" stroke-width="0.100" stroke-linecap="round" opacity="0.8"/><line x1="2.946" y1="1.499" x2="3.404" y2="1.499" stroke="#6b7280" stroke-width="0.100" stroke-linecap="round" opacity="0.8"/><line x1="3.404" y1="-1.041" x2="3.404" y2="-1.499" stroke="#6b7280" stroke-width="0.100" stroke-linecap="round" opacity="0.8"/><line x1="3.404" y1="1.499" x2="3.404" y2="1.041" stroke="#6b7280" stroke-width="0.100" stroke-linecap="round" opacity="0.8"/><line x1="3.429" y1="-4.445" x2="3.429" y2="-5.715" stroke="#6b7280" stroke-width="0.100" stroke-linecap="round" opacity="0.8"/><line x1="3.429" y1="5.715" x2="3.429" y2="4.445" stroke="#6b7280" stroke-width="0.100" stroke-linecap="round" opacity="0.8"/><line x1="4.191" y1="-5.715" x2="4.699" y2="-5.715" stroke="#6b7280" stroke-width="0.100" stroke-linecap="round" opacity="0.8"/><line x1="4.191" y1="-4.445" x2="4.191" y2="-5.715" stroke="#6b7280" stroke-width="0.100" stroke-linecap="round" opacity="0.8"/><line x1="4.191" y1="5.715" x2="4.191" y2="4.445" stroke="#6b7280" stroke-width="0.100" stroke-linecap="round" opacity="0.8"/><line x1="4.191" y1="5.715" x2="4.699" y2="5.715" stroke="#6b7280" stroke-width="0.100" stroke-linecap="round" opacity="0.8"/><line x1="4.216" y1="-1.499" x2="4.674" y2="-1.499" stroke="#6b7280" stroke-width="0.100" stroke-linecap="round" opacity="0.8"/><line x1="4.216" y1="-1.041" x2="4.216" y2="-1.499" stroke="#6b7280" stroke-width="0.100" stroke-linecap="round" opacity="0.8"/><line x1="4.216" y1="-1.041" x2="4.674" y2="-1.041" stroke="#6b7280" stroke-width="0.100" stroke-linecap="round" opacity="0.8"/><line x1="4.216" y1="1.041" x2="4.674" y2="1.041" stroke="#6b7280" stroke-width="0.100" stroke-linecap="round" opacity="0.8"/><line x1="4.216" y1="1.499" x2="4.216" y2="1.041" stroke="#6b7280" stroke-width="0.100" stroke-linecap="round" opacity="0.8"/><line x1="4.216" y1="1.499" x2="4.674" y2="1.499" stroke="#6b7280" stroke-width="0.100" stroke-linecap="round" opacity="0.8"/><line x1="4.674" y1="-1.041" x2="4.674" y2="-1.499" stroke="#6b7280" stroke-width="0.100" stroke-linecap="round" opacity="0.8"/><line x1="4.674" y1="1.499" x2="4.674" y2="1.041" stroke="#6b7280" stroke-width="0.100" stroke-linecap="round" opacity="0.8"/><line x1="4.699" y1="-4.445" x2="4.699" y2="-5.715" stroke="#6b7280" stroke-width="0.100" stroke-linecap="round" opacity="0.8"/><line x1="4.699" y1="5.715" x2="4.699" y2="4.445" stroke="#6b7280" stroke-width="0.100" stroke-linecap="round" opacity="0.8"/><line x1="5.461" y1="-5.715" x2="5.969" y2="-5.715" stroke="#6b7280" stroke-width="0.100" stroke-linecap="round" opacity="0.8"/><line x1="5.461" y1="-4.445" x2="5.461" y2="-5.715" stroke="#6b7280" stroke-width="0.100" stroke-linecap="round" opacity="0.8"/><line x1="5.461" y1="5.715" x2="5.461" y2="4.445" stroke="#6b7280" stroke-width="0.100" stroke-linecap="round" opacity="0.8"/><line x1="5.461" y1="5.715" x2="5.969" y2="5.715" stroke="#6b7280" stroke-width="0.100" stroke-linecap="round" opacity="0.8"/><line x1="5.486" y1="-1.499" x2="5.944" y2="-1.499" stroke="#6b7280" stroke-width="0.100" stroke-linecap="round" opacity="0.8"/><line x1="5.486" y1="-1.041" x2="5.486" y2="-1.499" stroke="#6b7280" stroke-width="0.100" stroke-linecap="round" opacity="0.8"/><line x1="5.486" y1="-1.041" x2="5.944" y2="-1.041" stroke="#6b7280" stroke-width="0.100" stroke-linecap="round" opacity="0.8"/><line x1="5.486" y1="1.041" x2="5.944" y2="1.041" stroke="#6b7280" stroke-width="0.100" stroke-linecap="round" opacity="0.8"/><line x1="5.486" y1="1.499" x2="5.486" y2="1.041" stroke="#6b7280" stroke-width="0.100" stroke-linecap="round" opacity="0.8"/><line x1="5.486" y1="1.499" x2="5.944" y2="1.499" stroke="#6b7280" stroke-width="0.100" stroke-linecap="round" opacity="0.8"/><line x1="5.944" y1="-1.041" x2="5.944" y2="-1.499" stroke="#6b7280" stroke-width="0.100" stroke-linecap="round" opacity="0.8"/><line x1="5.944" y1="1.499" x2="5.944" y2="1.041" stroke="#6b7280" stroke-width="0.100" stroke-linecap="round" opacity="0.8"/><line x1="5.969" y1="-4.445" x2="5.969" y2="-5.715" stroke="#6b7280" stroke-width="0.100" stroke-linecap="round" opacity="0.8"/><line x1="5.969" y1="5.715" x2="5.969" y2="4.445" stroke="#6b7280" stroke-width="0.100" stroke-linecap="round" opacity="0.8"/><line x1="6.668" y1="-4.953" x2="7.938" y2="-4.953" stroke="#6b7280" stroke-width="0.100" stroke-linecap="round" opacity="0.8"/><line x1="6.668" y1="-4.445" x2="6.668" y2="-4.953" stroke="#6b7280" stroke-width="0.100" stroke-linecap="round" opacity="0.8"/><line x1="6.668" y1="3.302" x2="6.668" y2="-3.302" stroke="#6b7280" stroke-width="0.100" stroke-linecap="round" opacity="0.8"/><line x1="7.938" y1="4.445" x2="7.938" y2="-4.953" stroke="#6b7280" stroke-width="0.100" stroke-linecap="round" opacity="0.8"/><circle cx="-5.713" cy="6.923" r="0.125" fill="none" stroke="#e6e9ef" stroke-width="0.12" opacity="1"/><circle cx="-5.715" cy="6.923" r="0.250" fill="none" stroke="#6b7280" stroke-width="0.12" opacity="0.8"/><rect x="-6.090" y="0.900" width="0.750" height="5.325" rx="0.000" fill="#c79b5c"/><rect x="-6.090" y="-6.225" width="0.750" height="5.325" rx="0.000" fill="#c79b5c"/><rect x="-4.820" y="0.900" width="0.750" height="5.325" rx="0.000" fill="#c79b5c"/><rect x="-4.820" y="-6.225" width="0.750" height="5.325" rx="0.000" fill="#c79b5c"/><rect x="-3.550" y="0.900" width="0.750" height="5.325" rx="0.000" fill="#c79b5c"/><rect x="-2.280" y="0.900" width="0.750" height="5.325" rx="0.000" fill="#c79b5c"/><rect x="-2.280" y="-6.225" width="0.750" height="5.325" rx="0.000" fill="#c79b5c"/><rect x="-1.010" y="0.900" width="0.750" height="5.325" rx="0.000" fill="#c79b5c"/><rect x="-1.010" y="-6.225" width="0.750" height="5.325" rx="0.000" fill="#c79b5c"/><rect x="0.260" y="0.900" width="0.750" height="5.325" rx="0.000" fill="#c79b5c"/><rect x="0.260" y="-6.225" width="0.750" height="5.325" rx="0.000" fill="#c79b5c"/><rect x="1.530" y="0.900" width="0.750" height="5.325" rx="0.000" fill="#c79b5c"/><rect x="1.530" y="-6.225" width="0.750" height="5.325" rx="0.000" fill="#c79b5c"/><rect x="2.800" y="0.900" width="0.750" height="5.325" rx="0.000" fill="#c79b5c"/><rect x="2.800" y="-6.225" width="0.750" height="5.325" rx="0.000" fill="#c79b5c"/><rect x="4.070" y="0.900" width="0.750" height="5.325" rx="0.000" fill="#c79b5c"/><rect x="4.070" y="-6.225" width="0.750" height="5.325" rx="0.000" fill="#c79b5c"/><rect x="5.340" y="0.900" width="0.750" height="5.325" rx="0.000" fill="#c79b5c"/><rect x="5.340" y="-6.225" width="0.750" height="5.325" rx="0.000" fill="#c79b5c"/></svg>