<svg xmlns="http://www.w3.org/2000/svg" viewBox="-4.95 -5.20 9.90 10.40" preserveAspectRatio="xMidYMid meet" style="width:100%;height:100%"><rect x="-4.95" y="-5.20" width="9.90" height="10.40" fill="#12151c"/><line x1="-2.355" y1="-3.950" x2="2.355" y2="-3.950" stroke="#e6e9ef" stroke-width="0.200" stroke-linecap="round" opacity="1"/><line x1="-2.355" y1="3.950" x2="-2.355" y2="-3.950" stroke="#e6e9ef" stroke-width="0.200" stroke-linecap="round" opacity="1"/><line x1="-2.355" y1="3.950" x2="2.355" y2="3.950" stroke="#e6e9ef" stroke-width="0.200" stroke-linecap="round" opacity="1"/><line x1="2.355" y1="3.950" x2="2.355" y2="-3.950" stroke="#e6e9ef" stroke-width="0.200" stroke-linecap="round" opacity="1"/><line x1="-3.700" y1="-2.990" x2="-3.200" y2="-2.540" stroke="#4a5160" stroke-width="0.080" stroke-linecap="round" opacity="0.7"/><line x1="-3.700" y1="-2.990" x2="-2.700" y2="-2.990" stroke="#4a5160" stroke-width="0.080" stroke-linecap="round" opacity="0.7"/><line x1="-3.700" y1="-2.090" x2="-3.700" y2="-2.990" stroke="#4a5160" stroke-width="0.080" stroke-linecap="round" opacity="0.7"/><line x1="-3.700" y1="-2.090" x2="-3.200" y2="-2.540" stroke="#4a5160" stroke-width="0.080" stroke-linecap="round" opacity="0.7"/><line x1="-3.700" y1="-2.090" x2="-2.700" y2="-2.090" stroke="#4a5160" stroke-width="0.080" stroke-linecap="round" opacity="0.7"/><line x1="-3.700" y1="-0.450" x2="-3.200" y2="0.000" stroke="#4a5160" stroke-width="0.080" stroke-linecap="round" opacity="0.7"/><line x1="-3.700" y1="-0.450" x2="-2.700" y2="-0.450" stroke="#4a5160" stroke-width="0.080" stroke-linecap="round" opacity="0.7"/><line x1="-3.700" y1="0.450" x2="-3.700" y2="-0.450" stroke="#4a5160" stroke-width="0.080" stroke-linecap="round" opacity="0.7"/><line x1="-3.700" y1="0.450" x2="-3.200" y2="0.000" stroke="#4a5160" stroke-width="0.080" stroke-linecap="round" opacity="0.7"/><line x1="-3.700" y1="0.450" x2="-2.700" y2="0.450" stroke="#4a5160" stroke-width="0.080" stroke-linecap="round" opacity="0.7"/><line x1="-3.700" y1="2.090" x2="-3.200" y2="2.540" stroke="#4a5160" stroke-width="0.080" stroke-linecap="round" opacity="0.7"/><line x1="-3.700" y1="2.090" x2="-2.700" y2="2.090" stroke="#4a5160" stroke-width="0.080" stroke-linecap="round" opacity="0.7"/><line x1="-3.700" y1="2.990" x2="-3.700" y2="2.090" stroke="#4a5160" stroke-width="0.080" stroke-linecap="round" opacity="0.7"/><line x1="-3.700" y1="2.990" x2="-3.200" y2="2.540" stroke="#4a5160" stroke-width="0.080" stroke-linecap="round" opacity="0.7"/><line x1="-3.700" y1="2.990" x2="-2.700" y2="2.990" stroke="#4a5160" stroke-width="0.080" stroke-linecap="round" opacity="0.7"/><line x1="-2.700" y1="-2.090" x2="-2.700" y2="-2.990" stroke="#4a5160" stroke-width="0.080" stroke-linecap="round" opacity="0.7"/><line x1="-2.700" y1="0.450" x2="-2.700" y2="-0.450" stroke="#4a5160" stroke-width="0.080" stroke-linecap="round" opacity="0.7"/><line x1="-2.700" y1="2.990" x2="-2.700" y2="2.090" stroke="#4a5160" stroke-width="0.080" stroke-linecap="round" opacity="0.7"/><line x1="-0.500" y1="0.000" x2="0.500" y2="0.000" stroke="#4a5160" stroke-width="0.080" stroke-linecap="round" opacity="0.7"/><line x1="0.000" y1="0.500" x2="0.000" y2="-0.500" stroke="#4a5160" stroke-width="0.080" stroke-linecap="round" opacity="0.7"/><line x1="2.700" y1="-2.990" x2="3.700" y2="-2.990" stroke="#4a5160" stroke-width="0.080" stroke-linecap="round" opacity="0.7"/><line x1="2.700" y1="-2.090" x2="2.700" y2="-2.990" stroke="#4a5160" stroke-width="0.080" stroke-linecap="round" opacity="0.7"/><line x1="2.700" y1="-2.090" x2="3.700" y2="-2.090" stroke="#4a5160" stroke-width="0.080" stroke-linecap="round" opacity="0.7"/><line x1="2.700" y1="-0.450" x2="3.700" y2="-0.450" stroke="#4a5160" stroke-width="0.080" stroke-linecap="round" opacity="0.7"/><line x1="2.700" y1="0.450" x2="2.700" y2="-0.450" stroke="#4a5160" stroke-width="0.080" stroke-linecap="round" opacity="0.7"/><line x1="2.700" y1="0.450" x2="3.700" y2="0.450" stroke="#4a5160" stroke-width="0.080" stroke-linecap="round" opacity="0.7"/><line x1="2.700" y1="2.090" x2="3.700" y2="2.090" stroke="#4a5160" stroke-width="0.080" stroke-linecap="round" opacity="0.7"/><line x1="2.700" y1="2.990" x2="2.700" y2="2.090" stroke="#4a5160" stroke-width="0.080" stroke-linecap="round" opacity="0.7"/><line x1="2.700" y1="2.990" x2="3.700" y2="2.990" stroke="#4a5160" stroke-width="0.080" stroke-linecap="round" opacity="0.7"/><line x1="3.200" y1="-2.540" x2="3.700" y2="-2.990" stroke="#4a5160" stroke-width="0.080" stroke-linecap="round" opacity="0.7"/><line x1="3.200" y1="-2.540" x2="3.700" y2="-2.090" stroke="#4a5160" stroke-width="0.080" stroke-linecap="round" opacity="0.7"/><line x1="3.200" y1="0.000" x2="3.700" y2="-0.450" stroke="#4a5160" stroke-width="0.080" stroke-linecap="round" opacity="0.7"/><line x1="3.200" y1="0.000" x2="3.700" y2="0.450" stroke="#4a5160" stroke-width="0.080" stroke-linecap="round" opacity="0.7"/><line x1="3.200" y1="2.540" x2="3.700" y2="2.090" stroke="#4a5160" stroke-width="0.080" stroke-linecap="round" opacity="0.7"/><line x1="3.200" y1="2.540" x2="3.700" y2="2.990" stroke="#4a5160" stroke-width="0.080" stroke-linecap="round" opacity="0.7"/><line x1="3.700" y1="-2.090" x2="3.700" y2="-2.990" stroke="#4a5160" stroke-width="0.080" stroke-linecap="round" opacity="0.7"/><line x1="3.700" y1="0.450" x2="3.700" y2="-0.450" stroke="#4a5160" stroke-width="0.080" stroke-linecap="round" opacity="0.7"/><line x1="3.700" y1="2.990" x2="3.700" y2="2.090" stroke="#4a5160" stroke-width="0.080" stroke-linecap="round" opacity="0.7"/><line x1="-3.950" y1="-4.200" x2="3.950" y2="-4.200" stroke="#d24d4d" stroke-width="0.080" stroke-linecap="round" opacity="0.7"/><line x1="-3.950" y1="4.200" x2="-3.950" y2="-4.200" stroke="#d24d4d" stroke-width="0.080" stroke-linecap="round" opacity="0.7"/><line x1="-3.950" y1="4.200" x2="3.950" y2="4.200" stroke="#d24d4d" stroke-width="0.080" stroke-linecap="round" opacity="0.7"/><line x1="3.950" y1="4.200" x2="3.950" y2="-4.200" stroke="#d24d4d" stroke-width="0.080" stroke-linecap="round" opacity="0.7"/><line x1="-2.800" y1="-3.950" x2="2.800" y2="-3.950" stroke="#6b7280" stroke-width="0.100" stroke-linecap="round" opacity="0.8"/><line x1="-2.800" y1="3.950" x2="-2.800" y2="-3.950" stroke="#6b7280" stroke-width="0.100" stroke-linecap="round" opacity="0.8"/><line x1="-2.800" y1="3.950" x2="2.800" y2="3.950" stroke="#6b7280" stroke-width="0.100" stroke-linecap="round" opacity="0.8"/><line x1="2.800" y1="3.950" x2="2.800" y2="-3.950" stroke="#6b7280" stroke-width="0.100" stroke-linecap="round" opacity="0.8"/><circle cx="-3.470" cy="-3.490" r="0.125" fill="none" stroke="#e6e9ef" stroke-width="0.12" opacity="1"/><circle cx="-1.355" cy="-2.950" r="0.250" fill="none" stroke="#e6e9ef" stroke-width="0.12" opacity="1"/><circle cx="0.000" cy="0.000" r="0.350" fill="none" stroke="#4a5160" stroke-width="0.12" opacity="0.7"/><circle cx="-1.800" cy="-2.950" r="0.500" fill="none" stroke="#6b7280" stroke-width="0.12" opacity="0.8"/><rect x="-3.700" y="-2.990" width="1.000" height="0.900" rx="0.000" fill="#c79b5c"/><rect x="-3.700" y="-0.450" width="1.000" height="0.900" rx="0.000" fill="#c79b5c"/><rect x="-3.700" y="2.090" width="1.000" height="0.900" rx="0.000" fill="#c79b5c"/><rect x="2.700" y="2.090" width="1.000" height="0.900" rx="0.000" fill="#c79b5c"/><rect x="2.700" y="-0.450" width="1.000" height="0.900" rx="0.000" fill="#c79b5c"/><rect x="2.700" y="-2.990" width="1.000" height="0.900" rx="0.000" fill="#c79b5c"/></svg>