<svg xmlns="http://www.w3.org/2000/svg" viewBox="-16.85 -8.67 33.70 16.27" preserveAspectRatio="xMidYMid meet" style="width:100%;height:100%"><rect x="-16.85" y="-8.67" width="33.70" height="16.27" fill="#12151c"/><line x1="-15.595" y1="4.750" x2="-15.595" y2="-4.750" stroke="#e6e9ef" stroke-width="0.200" stroke-linecap="round" opacity="1"/><line x1="-13.995" y1="-6.350" x2="13.995" y2="-6.350" stroke="#e6e9ef" stroke-width="0.200" stroke-linecap="round" opacity="1"/><line x1="-13.995" y1="6.350" x2="13.995" y2="6.350" stroke="#e6e9ef" stroke-width="0.200" stroke-linecap="round" opacity="1"/><line x1="-8.167" y1="-1.011" x2="-7.657" y2="1.879" stroke="#e6e9ef" stroke-width="0.200" stroke-linecap="round" opacity="1"/><line x1="-5.705" y1="-3.945" x2="5.705" y2="-3.945" stroke="#e6e9ef" stroke-width="0.200" stroke-linecap="round" opacity="1"/><line x1="-5.195" y1="3.945" x2="5.195" y2="3.945" stroke="#e6e9ef" stroke-width="0.200" stroke-linecap="round" opacity="1"/><line x1="7.657" y1="1.879" x2="8.167" y2="-1.011" stroke="#e6e9ef" stroke-width="0.200" stroke-linecap="round" opacity="1"/><line x1="15.595" y1="4.750" x2="15.595" y2="-4.750" stroke="#e6e9ef" stroke-width="0.200" stroke-linecap="round" opacity="1"/><line x1="-1.000" y1="0.000" x2="0.000" y2="0.000" stroke="#4a5160" stroke-width="0.200" stroke-linecap="round" opacity="0.7"/><line x1="0.000" y1="1.000" x2="0.000" y2="0.000" stroke="#4a5160" stroke-width="0.200" stroke-linecap="round" opacity="0.7"/><line x1="-15.595" y1="4.750" x2="-15.595" y2="-4.750" stroke="#6b7280" stroke-width="0.100" stroke-linecap="round" opacity="0.8"/><line x1="-13.995" y1="-6.350" x2="13.995" y2="-6.350" stroke="#6b7280" stroke-width="0.100" stroke-linecap="round" opacity="0.8"/><line x1="-13.995" y1="6.350" x2="13.995" y2="6.350" stroke="#6b7280" stroke-width="0.100" stroke-linecap="round" opacity="0.8"/><line x1="-8.167" y1="-1.011" x2="-7.657" y2="1.879" stroke="#6b7280" stroke-width="0.100" stroke-linecap="round" opacity="0.8"/><line x1="-7.291" y1="-1.167" x2="-6.781" y2="1.723" stroke="#6b7280" stroke-width="0.100" stroke-linecap="round" opacity="0.8"/><line x1="-5.715" y1="-3.045" x2="5.715" y2="-3.045" stroke="#6b7280" stroke-width="0.100" stroke-linecap="round" opacity="0.8"/><line x1="-5.705" y1="-3.945" x2="5.705" y2="-3.945" stroke="#6b7280" stroke-width="0.100" stroke-linecap="round" opacity="0.8"/><line x1="-5.205" y1="3.045" x2="5.205" y2="3.045" stroke="#6b7280" stroke-width="0.100" stroke-linecap="round" opacity="0.8"/><line x1="-5.195" y1="3.945" x2="5.195" y2="3.945" stroke="#6b7280" stroke-width="0.100" stroke-linecap="round" opacity="0.8"/><line x1="6.781" y1="1.723" x2="7.291" y2="-1.167" stroke="#6b7280" stroke-width="0.100" stroke-linecap="round" opacity="0.8"/><line x1="7.657" y1="1.879" x2="8.167" y2="-1.011" stroke="#6b7280" stroke-width="0.100" stroke-linecap="round" opacity="0.8"/><line x1="15.595" y1="4.750" x2="15.595" y2="-4.750" stroke="#6b7280" stroke-width="0.100" stroke-linecap="round" opacity="0.8"/><line x1="-15.850" y1="-6.600" x2="15.850" y2="-6.600" stroke="#d24d4d" stroke-width="0.080" stroke-linecap="round" opacity="0.7"/><line x1="15.850" y1="-6.600" x2="15.850" y2="6.600" stroke="#d24d4d" stroke-width="0.080" stroke-linecap="round" opacity="0.7"/><line x1="15.850" y1="6.600" x2="-15.850" y2="6.600" stroke="#d24d4d" stroke-width="0.080" stroke-linecap="round" opacity="0.7"/><line x1="-15.850" y1="6.600" x2="-15.850" y2="-6.600" stroke="#d24d4d" stroke-width="0.080" stroke-linecap="round" opacity="0.7"/><path d="M -15.595 -4.750 A 1.600 1.600 0 0 1 -13.995 -6.350" fill="none" stroke="#e6e9ef" stroke-width="0.12" opacity="1"/><path d="M -13.995 6.350 A 1.600 1.600 0 0 1 -15.595 4.750" fill="none" stroke="#e6e9ef" stroke-width="0.12" opacity="1"/><path d="M -8.167 -1.011 A 2.500 2.500 0 0 1 -5.705 -3.945" fill="none" stroke="#e6e9ef" stroke-width="0.12" opacity="1"/><path d="M -5.195 3.945 A 2.500 2.500 0 0 1 -7.657 1.879" fill="none" stroke="#e6e9ef" stroke-width="0.12" opacity="1"/><path d="M 5.705 -3.945 A 2.500 2.500 0 0 1 8.167 -1.011" fill="none" stroke="#e6e9ef" stroke-width="0.12" opacity="1"/><path d="M 7.657 1.879 A 2.500 2.500 0 0 1 5.195 3.945" fill="none" stroke="#e6e9ef" stroke-width="0.12" opacity="1"/><path d="M 13.995 -6.350 A 1.600 1.600 0 0 1 15.595 -4.750" fill="none" stroke="#e6e9ef" stroke-width="0.12" opacity="1"/><path d="M 15.595 4.750 A 1.600 1.600 0 0 1 13.995 6.350" fill="none" stroke="#e6e9ef" stroke-width="0.12" opacity="1"/><path d="M -15.595 -4.750 A 1.600 1.600 0 0 1 -13.995 -6.350" fill="none" stroke="#6b7280" stroke-width="0.12" opacity="0.8"/><path d="M -13.995 6.350 A 1.600 1.600 0 0 1 -15.595 4.750" fill="none" stroke="#6b7280" stroke-width="0.12" opacity="0.8"/><path d="M -8.167 -1.011 A 2.500 2.500 0 0 1 -5.705 -3.945" fill="none" stroke="#6b7280" stroke-width="0.12" opacity="0.8"/><path d="M -7.291 -1.167 A 1.600 1.600 0 0 1 -5.715 -3.045" fill="none" stroke="#6b7280" stroke-width="0.12" opacity="0.8"/><path d="M -5.205 3.045 A 1.600 1.600 0 0 1 -6.781 1.723" fill="none" stroke="#6b7280" stroke-width="0.12" opacity="0.8"/><path d="M -5.195 3.945 A 2.500 2.500 0 0 1 -7.657 1.879" fill="none" stroke="#6b7280" stroke-width="0.12" opacity="0.8"/><path d="M 5.705 -3.945 A 2.500 2.500 0 0 1 8.167 -1.011" fill="none" stroke="#6b7280" stroke-width="0.12" opacity="0.8"/><path d="M 5.715 -3.045 A 1.600 1.600 0 0 1 7.291 -1.167" fill="none" stroke="#6b7280" stroke-width="0.12" opacity="0.8"/><path d="M 6.781 1.723 A 1.600 1.600 0 0 1 5.205 3.045" fill="none" stroke="#6b7280" stroke-width="0.12" opacity="0.8"/><path d="M 7.657 1.879 A 2.500 2.500 0 0 1 5.195 3.945" fill="none" stroke="#6b7280" stroke-width="0.12" opacity="0.8"/><path d="M 13.995 -6.350 A 1.600 1.600 0 0 1 15.595 -4.750" fill="none" stroke="#6b7280" stroke-width="0.12" opacity="0.8"/><path d="M 15.595 4.750 A 1.600 1.600 0 0 1 13.995 6.350" fill="none" stroke="#6b7280" stroke-width="0.12" opacity="0.8"/><circle cx="5.480" cy="-7.420" r="0.250" fill="#e6e9ef" opacity="1"/><circle cx="-12.495" cy="0.000" r="2.250" fill="none" stroke="#6b7280" stroke-width="0.12" opacity="0.8"/><circle cx="12.495" cy="0.000" r="2.250" fill="none" stroke="#6b7280" stroke-width="0.12" opacity="0.8"/><rect x="4.680" y="-2.220" width="1.600" height="1.600" rx="0.800" fill="#c79b5c"/><circle cx="5.480" cy="-1.420" r="0.450" fill="#12151c"/><rect x="1.940" y="-2.220" width="1.600" height="1.600" rx="0.800" fill="#c79b5c"/><circle cx="2.740" cy="-1.420" r="0.450" fill="#12151c"/><rect x="-0.800" y="-2.220" width="1.600" height="1.600" rx="0.800" fill="#c79b5c"/><circle cx="0.000" cy="-1.420" r="0.450" fill="#12151c"/><rect x="-3.540" y="-2.220" width="1.600" height="1.600" rx="0.800" fill="#c79b5c"/><circle cx="-2.740" cy="-1.420" r="0.450" fill="#12151c"/><rect x="-6.280" y="-2.220" width="1.600" height="1.600" rx="0.800" fill="#c79b5c"/><circle cx="-5.480" cy="-1.420" r="0.450" fill="#12151c"/><rect x="3.310" y="0.620" width="1.600" height="1.600" rx="0.800" fill="#c79b5c"/><circle cx="4.110" cy="1.420" r="0.450" fill="#12151c"/><rect x="0.570" y="0.620" width="1.600" height="1.600" rx="0.800" fill="#c79b5c"/><circle cx="1.370" cy="1.420" r="0.450" fill="#12151c"/><rect x="-2.170" y="0.620" width="1.600" height="1.600" rx="0.800" fill="#c79b5c"/><circle cx="-1.370" cy="1.420" r="0.450" fill="#12151c"/><rect x="-4.910" y="0.620" width="1.600" height="1.600" rx="0.800" fill="#c79b5c"/><circle cx="-4.110" cy="1.420" r="0.450" fill="#12151c"/><rect x="-14.445" y="-1.950" width="3.900" height="3.900" rx="1.950" fill="#c79b5c"/><circle cx="-12.495" cy="0.000" r="1.600" fill="#12151c"/><rect x="10.545" y="-1.950" width="3.900" height="3.900" rx="1.950" fill="#c79b5c"/><circle cx="12.495" cy="0.000" r="1.600" fill="#12151c"/></svg>