<svg xmlns="http://www.w3.org/2000/svg" viewBox="-30.45 -32.00 60.90 64.00" preserveAspectRatio="xMidYMid meet" style="width:100%;height:100%"><rect x="-30.45" y="-32.00" width="60.90" height="64.00" fill="#12151c"/><line x1="-29.450" y1="-31.000" x2="29.450" y2="-31.000" stroke="#d24d4d" stroke-width="0.080" stroke-linecap="round" opacity="0.7"/><line x1="29.450" y1="-31.000" x2="29.450" y2="31.000" stroke="#d24d4d" stroke-width="0.080" stroke-linecap="round" opacity="0.7"/><line x1="29.450" y1="31.000" x2="-29.450" y2="31.000" stroke="#d24d4d" stroke-width="0.080" stroke-linecap="round" opacity="0.7"/><line x1="-29.450" y1="31.000" x2="-29.450" y2="-31.000" stroke="#d24d4d" stroke-width="0.080" stroke-linecap="round" opacity="0.7"/><path d="M -29.200 -29.250 A 1.500 1.500 0 0 1 -27.700 -30.750" fill="none" stroke="#e6e9ef" stroke-width="0.12" opacity="1"/><path d="M -27.700 30.750 A 1.500 1.500 0 0 1 -29.200 29.250" fill="none" stroke="#e6e9ef" stroke-width="0.12" opacity="1"/><path d="M 27.700 -30.750 A 1.500 1.500 0 0 1 29.200 -29.250" fill="none" stroke="#e6e9ef" stroke-width="0.12" opacity="1"/><path d="M 29.200 29.250 A 1.500 1.500 0 0 1 27.700 30.750" fill="none" stroke="#e6e9ef" stroke-width="0.12" opacity="1"/><path d="M -29.200 -29.250 A 1.500 1.500 0 0 1 -27.700 -30.750" fill="none" stroke="#6b7280" stroke-width="0.12" opacity="0.8"/><path d="M -27.700 30.750 A 1.500 1.500 0 0 1 -29.200 29.250" fill="none" stroke="#6b7280" stroke-width="0.12" opacity="0.8"/><path d="M 27.700 -30.750 A 1.500 1.500 0 0 1 29.200 -29.250" fill="none" stroke="#6b7280" stroke-width="0.12" opacity="0.8"/><path d="M 29.200 29.250 A 1.500 1.500 0 0 1 27.700 30.750" fill="none" stroke="#6b7280" stroke-width="0.12" opacity="0.8"/><rect x="-25.130" y="16.780" width="2.000" height="2.000" rx="1.000" fill="#c79b5c"/><circle cx="-24.130" cy="17.780" r="0.650" fill="#12151c"/><rect x="-25.130" y="6.620" width="2.000" height="2.000" rx="1.000" fill="#c79b5c"/><circle cx="-24.130" cy="7.620" r="0.650" fill="#12151c"/><rect x="-25.130" y="-8.620" width="2.000" height="2.000" rx="1.000" fill="#c79b5c"/><circle cx="-24.130" cy="-7.620" r="0.650" fill="#12151c"/><rect x="-25.130" y="-18.780" width="2.000" height="2.000" rx="1.000" fill="#c79b5c"/><circle cx="-24.130" cy="-17.780" r="0.650" fill="#12151c"/><rect x="22.630" y="16.280" width="3.000" height="3.000" rx="1.500" fill="#c79b5c"/><circle cx="24.130" cy="17.780" r="1.150" fill="#12151c"/><rect x="23.130" y="6.620" width="2.000" height="2.000" rx="1.000" fill="#c79b5c"/><circle cx="24.130" cy="7.620" r="0.650" fill="#12151c"/><rect x="23.130" y="-1.000" width="2.000" height="2.000" rx="1.000" fill="#c79b5c"/><circle cx="24.130" cy="0.000" r="0.650" fill="#12151c"/><rect x="23.130" y="-8.620" width="2.000" height="2.000" rx="1.000" fill="#c79b5c"/><circle cx="24.130" cy="-7.620" r="0.650" fill="#12151c"/><rect x="22.630" y="-19.280" width="3.000" height="3.000" rx="1.500" fill="#c79b5c"/><circle cx="24.130" cy="-17.780" r="1.150" fill="#12151c"/><rect x="-27.630" y="-28.900" width="7.000" height="7.000" rx="3.500" fill="#c79b5c"/><circle cx="-24.130" cy="-25.400" r="1.750" fill="#12151c"/><rect x="-27.630" y="21.900" width="7.000" height="7.000" rx="3.500" fill="#c79b5c"/><circle cx="-24.130" cy="25.400" r="1.750" fill="#12151c"/><rect x="20.630" y="-28.900" width="7.000" height="7.000" rx="3.500" fill="#c79b5c"/><circle cx="24.130" cy="-25.400" r="1.750" fill="#12151c"/><rect x="20.630" y="21.900" width="7.000" height="7.000" rx="3.500" fill="#c79b5c"/><circle cx="24.130" cy="25.400" r="1.750" fill="#12151c"/></svg>