<svg xmlns="http://www.w3.org/2000/svg" viewBox="-5.65 -3.83 11.30 8.39" preserveAspectRatio="xMidYMid meet" style="width:100%;height:100%"><rect x="-5.65" y="-3.83" width="11.30" height="8.39" fill="#12151c"/><line x1="-4.000" y1="-0.050" x2="-4.000" y2="-0.950" stroke="#e6e9ef" stroke-width="0.200" stroke-linecap="round" opacity="1"/><line x1="-3.800" y1="-1.150" x2="-3.150" y2="-1.150" stroke="#e6e9ef" stroke-width="0.200" stroke-linecap="round" opacity="1"/><line x1="-3.225" y1="-0.820" x2="-3.150" y2="-0.820" stroke="#e6e9ef" stroke-width="0.200" stroke-linecap="round" opacity="1"/><line x1="-3.225" y1="-0.050" x2="-3.225" y2="-0.820" stroke="#e6e9ef" stroke-width="0.200" stroke-linecap="round" opacity="1"/><line x1="-2.850" y1="1.520" x2="-2.600" y2="1.520" stroke="#e6e9ef" stroke-width="0.200" stroke-linecap="round" opacity="1"/><line x1="-2.850" y1="1.620" x2="-2.800" y2="1.670" stroke="#e6e9ef" stroke-width="0.200" stroke-linecap="round" opacity="1"/><line x1="-2.850" y1="1.850" x2="-2.350" y2="1.850" stroke="#e6e9ef" stroke-width="0.200" stroke-linecap="round" opacity="1"/><line x1="-2.800" y1="1.850" x2="-2.800" y2="1.670" stroke="#e6e9ef" stroke-width="0.200" stroke-linecap="round" opacity="1"/><line x1="-2.625" y1="0.340" x2="-2.375" y2="0.340" stroke="#e6e9ef" stroke-width="0.200" stroke-linecap="round" opacity="1"/><line x1="-2.625" y1="0.820" x2="-2.625" y2="0.340" stroke="#e6e9ef" stroke-width="0.200" stroke-linecap="round" opacity="1"/><line x1="-2.625" y1="0.820" x2="-2.375" y2="0.820" stroke="#e6e9ef" stroke-width="0.200" stroke-linecap="round" opacity="1"/><line x1="-2.600" y1="1.520" x2="-2.000" y2="1.520" stroke="#e6e9ef" stroke-width="0.200" stroke-linecap="round" opacity="1"/><line x1="-2.375" y1="0.820" x2="-2.375" y2="0.340" stroke="#e6e9ef" stroke-width="0.200" stroke-linecap="round" opacity="1"/><line x1="-2.250" y1="2.285" x2="-2.000" y2="2.285" stroke="#e6e9ef" stroke-width="0.200" stroke-linecap="round" opacity="1"/><line x1="-2.250" y1="3.080" x2="2.250" y2="3.080" stroke="#e6e9ef" stroke-width="0.200" stroke-linecap="round" opacity="1"/><line x1="-2.250" y1="3.120" x2="-2.250" y2="1.950" stroke="#e6e9ef" stroke-width="0.200" stroke-linecap="round" opacity="1"/><line x1="-2.050" y1="3.320" x2="2.050" y2="3.320" stroke="#e6e9ef" stroke-width="0.200" stroke-linecap="round" opacity="1"/><line x1="-2.000" y1="1.520" x2="-1.850" y2="1.670" stroke="#e6e9ef" stroke-width="0.200" stroke-linecap="round" opacity="1"/><line x1="-2.000" y1="2.285" x2="-1.850" y2="2.348" stroke="#e6e9ef" stroke-width="0.200" stroke-linecap="round" opacity="1"/><line x1="-1.850" y1="2.570" x2="1.850" y2="2.570" stroke="#e6e9ef" stroke-width="0.200" stroke-linecap="round" opacity="1"/><line x1="-1.850" y1="2.920" x2="-1.850" y2="1.670" stroke="#e6e9ef" stroke-width="0.200" stroke-linecap="round" opacity="1"/><line x1="-1.850" y1="2.920" x2="1.850" y2="2.920" stroke="#e6e9ef" stroke-width="0.200" stroke-linecap="round" opacity="1"/><line x1="-1.625" y1="0.340" x2="-1.375" y2="0.340" stroke="#e6e9ef" stroke-width="0.200" stroke-linecap="round" opacity="1"/><line x1="-1.625" y1="0.820" x2="-1.625" y2="0.340" stroke="#e6e9ef" stroke-width="0.200" stroke-linecap="round" opacity="1"/><line x1="-1.625" y1="0.820" x2="-1.375" y2="0.820" stroke="#e6e9ef" stroke-width="0.200" stroke-linecap="round" opacity="1"/><line x1="-1.375" y1="0.820" x2="-1.375" y2="0.340" stroke="#e6e9ef" stroke-width="0.200" stroke-linecap="round" opacity="1"/><line x1="-0.750" y1="1.520" x2="0.750" y2="1.520" stroke="#e6e9ef" stroke-width="0.200" stroke-linecap="round" opacity="1"/><line x1="-0.750" y1="2.920" x2="-0.750" y2="1.520" stroke="#e6e9ef" stroke-width="0.200" stroke-linecap="round" opacity="1"/><line x1="-0.625" y1="0.340" x2="-0.375" y2="0.340" stroke="#e6e9ef" stroke-width="0.200" stroke-linecap="round" opacity="1"/><line x1="-0.625" y1="0.820" x2="-0.625" y2="0.340" stroke="#e6e9ef" stroke-width="0.200" stroke-linecap="round" opacity="1"/><line x1="-0.625" y1="0.820" x2="-0.375" y2="0.820" stroke="#e6e9ef" stroke-width="0.200" stroke-linecap="round" opacity="1"/><line x1="-0.375" y1="0.820" x2="-0.375" y2="0.340" stroke="#e6e9ef" stroke-width="0.200" stroke-linecap="round" opacity="1"/><line x1="0.375" y1="0.340" x2="0.625" y2="0.340" stroke="#e6e9ef" stroke-width="0.200" stroke-linecap="round" opacity="1"/><line x1="0.375" y1="0.820" x2="0.375" y2="0.340" stroke="#e6e9ef" stroke-width="0.200" stroke-linecap="round" opacity="1"/><line x1="0.375" y1="0.820" x2="0.625" y2="0.820" stroke="#e6e9ef" stroke-width="0.200" stroke-linecap="round" opacity="1"/><line x1="0.625" y1="0.820" x2="0.625" y2="0.340" stroke="#e6e9ef" stroke-width="0.200" stroke-linecap="round" opacity="1"/><line x1="0.750" y1="2.920" x2="0.750" y2="1.520" stroke="#e6e9ef" stroke-width="0.200" stroke-linecap="round" opacity="1"/><line x1="1.375" y1="0.340" x2="1.625" y2="0.340" stroke="#e6e9ef" stroke-width="0.200" stroke-linecap="round" opacity="1"/><line x1="1.375" y1="0.820" x2="1.375" y2="0.340" stroke="#e6e9ef" stroke-width="0.200" stroke-linecap="round" opacity="1"/><line x1="1.375" y1="0.820" x2="1.625" y2="0.820" stroke="#e6e9ef" stroke-width="0.200" stroke-linecap="round" opacity="1"/><line x1="1.625" y1="0.820" x2="1.625" y2="0.340" stroke="#e6e9ef" stroke-width="0.200" stroke-linecap="round" opacity="1"/><line x1="1.850" y1="1.670" x2="1.925" y2="1.595" stroke="#e6e9ef" stroke-width="0.200" stroke-linecap="round" opacity="1"/><line x1="1.850" y1="2.348" x2="2.000" y2="2.285" stroke="#e6e9ef" stroke-width="0.200" stroke-linecap="round" opacity="1"/><line x1="1.850" y1="2.920" x2="1.850" y2="1.670" stroke="#e6e9ef" stroke-width="0.200" stroke-linecap="round" opacity="1"/><line x1="1.925" y1="1.595" x2="2.000" y2="1.520" stroke="#e6e9ef" stroke-width="0.200" stroke-linecap="round" opacity="1"/><line x1="2.000" y1="1.520" x2="2.600" y2="1.520" stroke="#e6e9ef" stroke-width="0.200" stroke-linecap="round" opacity="1"/><line x1="2.000" y1="2.285" x2="2.250" y2="2.285" stroke="#e6e9ef" stroke-width="0.200" stroke-linecap="round" opacity="1"/><line x1="2.250" y1="3.120" x2="2.250" y2="1.950" stroke="#e6e9ef" stroke-width="0.200" stroke-linecap="round" opacity="1"/><line x1="2.350" y1="1.850" x2="2.850" y2="1.850" stroke="#e6e9ef" stroke-width="0.200" stroke-linecap="round" opacity="1"/><line x1="2.375" y1="0.340" x2="2.625" y2="0.340" stroke="#e6e9ef" stroke-width="0.200" stroke-linecap="round" opacity="1"/><line x1="2.375" y1="0.820" x2="2.375" y2="0.340" stroke="#e6e9ef" stroke-width="0.200" stroke-linecap="round" opacity="1"/><line x1="2.375" y1="0.820" x2="2.625" y2="0.820" stroke="#e6e9ef" stroke-width="0.200" stroke-linecap="round" opacity="1"/><line x1="2.600" y1="1.520" x2="2.850" y2="1.520" stroke="#e6e9ef" stroke-width="0.200" stroke-linecap="round" opacity="1"/><line x1="2.625" y1="0.820" x2="2.625" y2="0.340" stroke="#e6e9ef" stroke-width="0.200" stroke-linecap="round" opacity="1"/><line x1="2.800" y1="1.670" x2="2.850" y2="1.620" stroke="#e6e9ef" stroke-width="0.200" stroke-linecap="round" opacity="1"/><line x1="2.800" y1="1.850" x2="2.800" y2="1.670" stroke="#e6e9ef" stroke-width="0.200" stroke-linecap="round" opacity="1"/><line x1="3.150" y1="-1.150" x2="3.800" y2="-1.150" stroke="#e6e9ef" stroke-width="0.200" stroke-linecap="round" opacity="1"/><line x1="3.150" y1="-0.820" x2="3.225" y2="-0.820" stroke="#e6e9ef" stroke-width="0.200" stroke-linecap="round" opacity="1"/><line x1="3.225" y1="-0.050" x2="3.225" y2="-0.820" stroke="#e6e9ef" stroke-width="0.200" stroke-linecap="round" opacity="1"/><line x1="4.000" y1="-0.050" x2="4.000" y2="-0.950" stroke="#e6e9ef" stroke-width="0.200" stroke-linecap="round" opacity="1"/><line x1="-4.400" y1="0.300" x2="-3.200" y2="0.300" stroke="#4a5160" stroke-width="0.080" stroke-linecap="round" opacity="0.7"/><line x1="-4.400" y1="2.100" x2="-4.400" y2="0.300" stroke="#4a5160" stroke-width="0.080" stroke-linecap="round" opacity="0.7"/><line x1="-4.400" y1="2.100" x2="-3.200" y2="2.100" stroke="#4a5160" stroke-width="0.080" stroke-linecap="round" opacity="0.7"/><line x1="-4.300" y1="1.200" x2="-3.800" y2="1.200" stroke="#4a5160" stroke-width="0.080" stroke-linecap="round" opacity="0.7"/><line x1="-3.800" y1="1.200" x2="-3.800" y2="0.700" stroke="#4a5160" stroke-width="0.080" stroke-linecap="round" opacity="0.7"/><line x1="-3.800" y1="1.200" x2="-3.300" y2="1.200" stroke="#4a5160" stroke-width="0.080" stroke-linecap="round" opacity="0.7"/><line x1="-3.800" y1="1.700" x2="-3.800" y2="1.200" stroke="#4a5160" stroke-width="0.080" stroke-linecap="round" opacity="0.7"/><line x1="-3.200" y1="2.100" x2="-3.200" y2="0.300" stroke="#4a5160" stroke-width="0.080" stroke-linecap="round" opacity="0.7"/><line x1="-3.000" y1="-1.325" x2="-2.500" y2="-1.325" stroke="#4a5160" stroke-width="0.080" stroke-linecap="round" opacity="0.7"/><line x1="-2.800" y1="-2.100" x2="-2.200" y2="-2.100" stroke="#4a5160" stroke-width="0.080" stroke-linecap="round" opacity="0.7"/><line x1="-2.800" y1="-0.550" x2="-2.800" y2="-2.100" stroke="#4a5160" stroke-width="0.080" stroke-linecap="round" opacity="0.7"/><line x1="-2.800" y1="-0.550" x2="-2.200" y2="-0.550" stroke="#4a5160" stroke-width="0.080" stroke-linecap="round" opacity="0.7"/><line x1="-2.500" y1="-1.325" x2="-2.500" y2="-1.825" stroke="#4a5160" stroke-width="0.080" stroke-linecap="round" opacity="0.7"/><line x1="-2.500" y1="-1.325" x2="-2.000" y2="-1.325" stroke="#4a5160" stroke-width="0.080" stroke-linecap="round" opacity="0.7"/><line x1="-2.500" y1="-0.825" x2="-2.500" y2="-1.325" stroke="#4a5160" stroke-width="0.080" stroke-linecap="round" opacity="0.7"/><line x1="-2.200" y1="-0.550" x2="-2.200" y2="-2.100" stroke="#4a5160" stroke-width="0.080" stroke-linecap="round" opacity="0.7"/><line x1="-2.000" y1="-1.325" x2="-1.500" y2="-1.325" stroke="#4a5160" stroke-width="0.080" stroke-linecap="round" opacity="0.7"/><line x1="-1.800" y1="-2.100" x2="-1.200" y2="-2.100" stroke="#4a5160" stroke-width="0.080" stroke-linecap="round" opacity="0.7"/><line x1="-1.800" y1="-0.550" x2="-1.800" y2="-2.100" stroke="#4a5160" stroke-width="0.080" stroke-linecap="round" opacity="0.7"/><line x1="-1.800" y1="-0.550" x2="-1.200" y2="-0.550" stroke="#4a5160" stroke-width="0.080" stroke-linecap="round" opacity="0.7"/><line x1="-1.500" y1="-1.325" x2="-1.500" y2="-1.825" stroke="#4a5160" stroke-width="0.080" stroke-linecap="round" opacity="0.7"/><line x1="-1.500" y1="-1.325" x2="-1.000" y2="-1.325" stroke="#4a5160" stroke-width="0.080" stroke-linecap="round" opacity="0.7"/><line x1="-1.500" y1="-0.825" x2="-1.500" y2="-1.325" stroke="#4a5160" stroke-width="0.080" stroke-linecap="round" opacity="0.7"/><line x1="-1.200" y1="-0.550" x2="-1.200" y2="-2.100" stroke="#4a5160" stroke-width="0.080" stroke-linecap="round" opacity="0.7"/><line x1="-1.000" y1="-1.325" x2="-0.500" y2="-1.325" stroke="#4a5160" stroke-width="0.080" stroke-linecap="round" opacity="0.7"/><line x1="-0.800" y1="-2.100" x2="-0.200" y2="-2.100" stroke="#4a5160" stroke-width="0.080" stroke-linecap="round" opacity="0.7"/><line x1="-0.800" y1="-0.550" x2="-0.800" y2="-2.100" stroke="#4a5160" stroke-width="0.080" stroke-linecap="round" opacity="0.7"/><line x1="-0.800" y1="-0.550" x2="-0.200" y2="-0.550" stroke="#4a5160" stroke-width="0.080" stroke-linecap="round" opacity="0.7"/><line x1="-0.500" y1="-1.325" x2="-0.500" y2="-1.825" stroke="#4a5160" stroke-width="0.080" stroke-linecap="round" opacity="0.7"/><line x1="-0.500" y1="-1.325" x2="0.000" y2="-1.325" stroke="#4a5160" stroke-width="0.080" stroke-linecap="round" opacity="0.7"/><line x1="-0.500" y1="-0.825" x2="-0.500" y2="-1.325" stroke="#4a5160" stroke-width="0.080" stroke-linecap="round" opacity="0.7"/><line x1="-0.500" y1="0.000" x2="0.000" y2="0.000" stroke="#4a5160" stroke-width="0.080" stroke-linecap="round" opacity="0.7"/><line x1="-0.200" y1="-0.550" x2="-0.200" y2="-2.100" stroke="#4a5160" stroke-width="0.080" stroke-linecap="round" opacity="0.7"/><line x1="0.000" y1="-1.325" x2="0.500" y2="-1.325" stroke="#4a5160" stroke-width="0.080" stroke-linecap="round" opacity="0.7"/><line x1="0.000" y1="0.000" x2="0.000" y2="-0.500" stroke="#4a5160" stroke-width="0.080" stroke-linecap="round" opacity="0.7"/><line x1="0.000" y1="0.000" x2="0.500" y2="0.000" stroke="#4a5160" stroke-width="0.080" stroke-linecap="round" opacity="0.7"/><line x1="0.000" y1="0.500" x2="0.000" y2="0.000" stroke="#4a5160" stroke-width="0.080" stroke-linecap="round" opacity="0.7"/><line x1="0.200" y1="-2.100" x2="0.800" y2="-2.100" stroke="#4a5160" stroke-width="0.080" stroke-linecap="round" opacity="0.7"/><line x1="0.200" y1="-0.550" x2="0.200" y2="-2.100" stroke="#4a5160" stroke-width="0.080" stroke-linecap="round" opacity="0.7"/><line x1="0.200" y1="-0.550" x2="0.800" y2="-0.550" stroke="#4a5160" stroke-width="0.080" stroke-linecap="round" opacity="0.7"/><line x1="0.500" y1="-1.325" x2="0.500" y2="-1.825" stroke="#4a5160" stroke-width="0.080" stroke-linecap="round" opacity="0.7"/><line x1="0.500" y1="-1.325" x2="1.000" y2="-1.325" stroke="#4a5160" stroke-width="0.080" stroke-linecap="round" opacity="0.7"/><line x1="0.500" y1="-0.825" x2="0.500" y2="-1.325" stroke="#4a5160" stroke-width="0.080" stroke-linecap="round" opacity="0.7"/><line x1="0.800" y1="-0.550" x2="0.800" y2="-2.100" stroke="#4a5160" stroke-width="0.080" stroke-linecap="round" opacity="0.7"/><line x1="1.000" y1="-1.325" x2="1.500" y2="-1.325" stroke="#4a5160" stroke-width="0.080" stroke-linecap="round" opacity="0.7"/><line x1="1.200" y1="-2.100" x2="1.800" y2="-2.100" stroke="#4a5160" stroke-width="0.080" stroke-linecap="round" opacity="0.7"/><line x1="1.200" y1="-0.550" x2="1.200" y2="-2.100" stroke="#4a5160" stroke-width="0.080" stroke-linecap="round" opacity="0.7"/><line x1="1.200" y1="-0.550" x2="1.800" y2="-0.550" stroke="#4a5160" stroke-width="0.080" stroke-linecap="round" opacity="0.7"/><line x1="1.500" y1="-1.325" x2="1.500" y2="-1.825" stroke="#4a5160" stroke-width="0.080" stroke-linecap="round" opacity="0.7"/><line x1="1.500" y1="-1.325" x2="2.000" y2="-1.325" stroke="#4a5160" stroke-width="0.080" stroke-linecap="round" opacity="0.7"/><line x1="1.500" y1="-0.825" x2="1.500" y2="-1.325" stroke="#4a5160" stroke-width="0.080" stroke-linecap="round" opacity="0.7"/><line x1="1.800" y1="-0.550" x2="1.800" y2="-2.100" stroke="#4a5160" stroke-width="0.080" stroke-linecap="round" opacity="0.7"/><line x1="2.000" y1="-1.325" x2="2.500" y2="-1.325" stroke="#4a5160" stroke-width="0.080" stroke-linecap="round" opacity="0.7"/><line x1="2.200" y1="-2.100" x2="2.800" y2="-2.100" stroke="#4a5160" stroke-width="0.080" stroke-linecap="round" opacity="0.7"/><line x1="2.200" y1="-0.550" x2="2.200" y2="-2.100" stroke="#4a5160" stroke-width="0.080" stroke-linecap="round" opacity="0.7"/><line x1="2.200" y1="-0.550" x2="2.800" y2="-0.550" stroke="#4a5160" stroke-width="0.080" stroke-linecap="round" opacity="0.7"/><line x1="2.500" y1="-1.325" x2="2.500" y2="-1.825" stroke="#4a5160" stroke-width="0.080" stroke-linecap="round" opacity="0.7"/><line x1="2.500" y1="-1.325" x2="3.000" y2="-1.325" stroke="#4a5160" stroke-width="0.080" stroke-linecap="round" opacity="0.7"/><line x1="2.500" y1="-0.825" x2="2.500" y2="-1.325" stroke="#4a5160" stroke-width="0.080" stroke-linecap="round" opacity="0.7"/><line x1="2.800" y1="-0.550" x2="2.800" y2="-2.100" stroke="#4a5160" stroke-width="0.080" stroke-linecap="round" opacity="0.7"/><line x1="3.200" y1="0.300" x2="4.400" y2="0.300" stroke="#4a5160" stroke-width="0.080" stroke-linecap="round" opacity="0.7"/><line x1="3.200" y1="2.100" x2="3.200" y2="0.300" stroke="#4a5160" stroke-width="0.080" stroke-linecap="round" opacity="0.7"/><line x1="3.200" y1="2.100" x2="4.400" y2="2.100" stroke="#4a5160" stroke-width="0.080" stroke-linecap="round" opacity="0.7"/><line x1="3.300" y1="1.200" x2="3.800" y2="1.200" stroke="#4a5160" stroke-width="0.080" stroke-linecap="round" opacity="0.7"/><line x1="3.800" y1="1.200" x2="3.800" y2="0.700" stroke="#4a5160" stroke-width="0.080" stroke-linecap="round" opacity="0.7"/><line x1="3.800" y1="1.200" x2="4.300" y2="1.200" stroke="#4a5160" stroke-width="0.080" stroke-linecap="round" opacity="0.7"/><line x1="3.800" y1="1.700" x2="3.800" y2="1.200" stroke="#4a5160" stroke-width="0.080" stroke-linecap="round" opacity="0.7"/><line x1="4.400" y1="2.100" x2="4.400" y2="0.300" stroke="#4a5160" stroke-width="0.080" stroke-linecap="round" opacity="0.7"/><line x1="-4.650" y1="-1.400" x2="-3.050" y2="-1.400" stroke="#d24d4d" stroke-width="0.080" stroke-linecap="round" opacity="0.7"/><line x1="-4.650" y1="2.350" x2="-4.650" y2="-1.400" stroke="#d24d4d" stroke-width="0.080" stroke-linecap="round" opacity="0.7"/><line x1="-4.650" y1="2.350" x2="-2.500" y2="2.350" stroke="#d24d4d" stroke-width="0.080" stroke-linecap="round" opacity="0.7"/><line x1="-3.050" y1="-2.350" x2="3.050" y2="-2.350" stroke="#d24d4d" stroke-width="0.080" stroke-linecap="round" opacity="0.7"/><line x1="-3.050" y1="-1.400" x2="-3.050" y2="-2.350" stroke="#d24d4d" stroke-width="0.080" stroke-linecap="round" opacity="0.7"/><line x1="-2.500" y1="3.570" x2="-2.500" y2="2.350" stroke="#d24d4d" stroke-width="0.080" stroke-linecap="round" opacity="0.7"/><line x1="-2.500" y1="3.570" x2="2.500" y2="3.570" stroke="#d24d4d" stroke-width="0.080" stroke-linecap="round" opacity="0.7"/><line x1="2.500" y1="2.350" x2="4.650" y2="2.350" stroke="#d24d4d" stroke-width="0.080" stroke-linecap="round" opacity="0.7"/><line x1="2.500" y1="3.570" x2="2.500" y2="2.350" stroke="#d24d4d" stroke-width="0.080" stroke-linecap="round" opacity="0.7"/><line x1="3.050" y1="-1.400" x2="3.050" y2="-2.350" stroke="#d24d4d" stroke-width="0.080" stroke-linecap="round" opacity="0.7"/><line x1="3.050" y1="-1.400" x2="4.650" y2="-1.400" stroke="#d24d4d" stroke-width="0.080" stroke-linecap="round" opacity="0.7"/><line x1="4.650" y1="2.350" x2="4.650" y2="-1.400" stroke="#d24d4d" stroke-width="0.080" stroke-linecap="round" opacity="0.7"/><line x1="-4.120" y1="0.650" x2="-4.000" y2="0.650" stroke="#6b7280" stroke-width="0.100" stroke-linecap="round" opacity="0.8"/><line x1="-4.120" y1="1.750" x2="-4.120" y2="0.650" stroke="#6b7280" stroke-width="0.100" stroke-linecap="round" opacity="0.8"/><line x1="-4.120" y1="1.750" x2="-3.973" y2="1.750" stroke="#6b7280" stroke-width="0.100" stroke-linecap="round" opacity="0.8"/><line x1="-4.000" y1="1.650" x2="-4.000" y2="-0.950" stroke="#6b7280" stroke-width="0.100" stroke-linecap="round" opacity="0.8"/><line x1="-3.800" y1="-1.150" x2="3.800" y2="-1.150" stroke="#6b7280" stroke-width="0.100" stroke-linecap="round" opacity="0.8"/><line x1="-3.800" y1="1.850" x2="-2.350" y2="1.850" stroke="#6b7280" stroke-width="0.100" stroke-linecap="round" opacity="0.8"/><line x1="-3.575" y1="0.920" x2="-3.225" y2="0.920" stroke="#6b7280" stroke-width="0.100" stroke-linecap="round" opacity="0.8"/><line x1="-3.575" y1="1.520" x2="-3.575" y2="0.920" stroke="#6b7280" stroke-width="0.100" stroke-linecap="round" opacity="0.8"/><line x1="-3.575" y1="1.520" x2="-3.000" y2="1.520" stroke="#6b7280" stroke-width="0.100" stroke-linecap="round" opacity="0.8"/><line x1="-3.225" y1="-0.820" x2="3.225" y2="-0.820" stroke="#6b7280" stroke-width="0.100" stroke-linecap="round" opacity="0.8"/><line x1="-3.225" y1="1.520" x2="-3.225" y2="-0.820" stroke="#6b7280" stroke-width="0.100" stroke-linecap="round" opacity="0.8"/><line x1="-3.000" y1="1.520" x2="-2.600" y2="1.520" stroke="#6b7280" stroke-width="0.100" stroke-linecap="round" opacity="0.8"/><line x1="-2.950" y1="1.520" x2="-2.800" y2="1.670" stroke="#6b7280" stroke-width="0.100" stroke-linecap="round" opacity="0.8"/><line x1="-2.800" y1="1.850" x2="-2.800" y2="1.670" stroke="#6b7280" stroke-width="0.100" stroke-linecap="round" opacity="0.8"/><line x1="-2.635" y1="-0.550" x2="-2.635" y2="-0.820" stroke="#6b7280" stroke-width="0.100" stroke-linecap="round" opacity="0.8"/><line x1="-2.635" y1="-0.550" x2="2.635" y2="-0.550" stroke="#6b7280" stroke-width="0.100" stroke-linecap="round" opacity="0.8"/><line x1="-2.625" y1="-1.750" x2="-2.375" y2="-1.750" stroke="#6b7280" stroke-width="0.100" stroke-linecap="round" opacity="0.8"/><line x1="-2.625" y1="-1.150" x2="-2.625" y2="-1.750" stroke="#6b7280" stroke-width="0.100" stroke-linecap="round" opacity="0.8"/><line x1="-2.625" y1="0.340" x2="-2.375" y2="0.340" stroke="#6b7280" stroke-width="0.100" stroke-linecap="round" opacity="0.8"/><line x1="-2.625" y1="0.820" x2="-2.625" y2="0.340" stroke="#6b7280" stroke-width="0.100" stroke-linecap="round" opacity="0.8"/><line x1="-2.625" y1="0.820" x2="-2.375" y2="0.820" stroke="#6b7280" stroke-width="0.100" stroke-linecap="round" opacity="0.8"/><line x1="-2.600" y1="1.520" x2="-2.000" y2="1.520" stroke="#6b7280" stroke-width="0.100" stroke-linecap="round" opacity="0.8"/><line x1="-2.375" y1="-1.150" x2="-2.375" y2="-1.750" stroke="#6b7280" stroke-width="0.100" stroke-linecap="round" opacity="0.8"/><line x1="-2.375" y1="0.820" x2="-2.375" y2="0.340" stroke="#6b7280" stroke-width="0.100" stroke-linecap="round" opacity="0.8"/><line x1="-2.250" y1="2.285" x2="-2.000" y2="2.285" stroke="#6b7280" stroke-width="0.100" stroke-linecap="round" opacity="0.8"/><line x1="-2.250" y1="3.080" x2="2.250" y2="3.080" stroke="#6b7280" stroke-width="0.100" stroke-linecap="round" opacity="0.8"/><line x1="-2.250" y1="3.120" x2="-2.250" y2="1.950" stroke="#6b7280" stroke-width="0.100" stroke-linecap="round" opacity="0.8"/><line x1="-2.050" y1="3.320" x2="2.050" y2="3.320" stroke="#6b7280" stroke-width="0.100" stroke-linecap="round" opacity="0.8"/><line x1="-2.000" y1="1.520" x2="-1.850" y2="1.670" stroke="#6b7280" stroke-width="0.100" stroke-linecap="round" opacity="0.8"/><line x1="-2.000" y1="2.285" x2="-1.850" y2="2.348" stroke="#6b7280" stroke-width="0.100" stroke-linecap="round" opacity="0.8"/><line x1="-1.850" y1="2.570" x2="1.850" y2="2.570" stroke="#6b7280" stroke-width="0.100" stroke-linecap="round" opacity="0.8"/><line x1="-1.850" y1="2.920" x2="-1.850" y2="1.670" stroke="#6b7280" stroke-width="0.100" stroke-linecap="round" opacity="0.8"/><line x1="-1.850" y1="2.920" x2="1.850" y2="2.920" stroke="#6b7280" stroke-width="0.100" stroke-linecap="round" opacity="0.8"/><line x1="-1.625" y1="-1.750" x2="-1.375" y2="-1.750" stroke="#6b7280" stroke-width="0.100" stroke-linecap="round" opacity="0.8"/><line x1="-1.625" y1="-1.150" x2="-1.625" y2="-1.750" stroke="#6b7280" stroke-width="0.100" stroke-linecap="round" opacity="0.8"/><line x1="-1.625" y1="0.340" x2="-1.375" y2="0.340" stroke="#6b7280" stroke-width="0.100" stroke-linecap="round" opacity="0.8"/><line x1="-1.625" y1="0.820" x2="-1.625" y2="0.340" stroke="#6b7280" stroke-width="0.100" stroke-linecap="round" opacity="0.8"/><line x1="-1.625" y1="0.820" x2="-1.375" y2="0.820" stroke="#6b7280" stroke-width="0.100" stroke-linecap="round" opacity="0.8"/><line x1="-1.375" y1="-1.150" x2="-1.375" y2="-1.750" stroke="#6b7280" stroke-width="0.100" stroke-linecap="round" opacity="0.8"/><line x1="-1.375" y1="0.820" x2="-1.375" y2="0.340" stroke="#6b7280" stroke-width="0.100" stroke-linecap="round" opacity="0.8"/><line x1="-0.750" y1="1.520" x2="0.750" y2="1.520" stroke="#6b7280" stroke-width="0.100" stroke-linecap="round" opacity="0.8"/><line x1="-0.750" y1="2.920" x2="-0.750" y2="1.520" stroke="#6b7280" stroke-width="0.100" stroke-linecap="round" opacity="0.8"/><line x1="-0.625" y1="-1.750" x2="-0.375" y2="-1.750" stroke="#6b7280" stroke-width="0.100" stroke-linecap="round" opacity="0.8"/><line x1="-0.625" y1="-1.150" x2="-0.625" y2="-1.750" stroke="#6b7280" stroke-width="0.100" stroke-linecap="round" opacity="0.8"/><line x1="-0.625" y1="0.340" x2="-0.375" y2="0.340" stroke="#6b7280" stroke-width="0.100" stroke-linecap="round" opacity="0.8"/><line x1="-0.625" y1="0.820" x2="-0.625" y2="0.340" stroke="#6b7280" stroke-width="0.100" stroke-linecap="round" opacity="0.8"/><line x1="-0.625" y1="0.820" x2="-0.375" y2="0.820" stroke="#6b7280" stroke-width="0.100" stroke-linecap="round" opacity="0.8"/><line x1="-0.375" y1="-1.150" x2="-0.375" y2="-1.750" stroke="#6b7280" stroke-width="0.100" stroke-linecap="round" opacity="0.8"/><line x1="-0.375" y1="0.820" x2="-0.375" y2="0.340" stroke="#6b7280" stroke-width="0.100" stroke-linecap="round" opacity="0.8"/><line x1="0.375" y1="-1.750" x2="0.625" y2="-1.750" stroke="#6b7280" stroke-width="0.100" stroke-linecap="round" opacity="0.8"/><line x1="0.375" y1="-1.150" x2="0.375" y2="-1.750" stroke="#6b7280" stroke-width="0.100" stroke-linecap="round" opacity="0.8"/><line x1="0.375" y1="0.340" x2="0.625" y2="0.340" stroke="#6b7280" stroke-width="0.100" stroke-linecap="round" opacity="0.8"/><line x1="0.375" y1="0.820" x2="0.375" y2="0.340" stroke="#6b7280" stroke-width="0.100" stroke-linecap="round" opacity="0.8"/><line x1="0.375" y1="0.820" x2="0.625" y2="0.820" stroke="#6b7280" stroke-width="0.100" stroke-linecap="round" opacity="0.8"/><line x1="0.625" y1="-1.150" x2="0.625" y2="-1.750" stroke="#6b7280" stroke-width="0.100" stroke-linecap="round" opacity="0.8"/><line x1="0.625" y1="0.820" x2="0.625" y2="0.340" stroke="#6b7280" stroke-width="0.100" stroke-linecap="round" opacity="0.8"/><line x1="0.750" y1="2.920" x2="0.750" y2="1.520" stroke="#6b7280" stroke-width="0.100" stroke-linecap="round" opacity="0.8"/><line x1="1.375" y1="-1.750" x2="1.625" y2="-1.750" stroke="#6b7280" stroke-width="0.100" stroke-linecap="round" opacity="0.8"/><line x1="1.375" y1="-1.150" x2="1.375" y2="-1.750" stroke="#6b7280" stroke-width="0.100" stroke-linecap="round" opacity="0.8"/><line x1="1.375" y1="0.340" x2="1.625" y2="0.340" stroke="#6b7280" stroke-width="0.100" stroke-linecap="round" opacity="0.8"/><line x1="1.375" y1="0.820" x2="1.375" y2="0.340" stroke="#6b7280" stroke-width="0.100" stroke-linecap="round" opacity="0.8"/><line x1="1.375" y1="0.820" x2="1.625" y2="0.820" stroke="#6b7280" stroke-width="0.100" stroke-linecap="round" opacity="0.8"/><line x1="1.625" y1="-1.150" x2="1.625" y2="-1.750" stroke="#6b7280" stroke-width="0.100" stroke-linecap="round" opacity="0.8"/><line x1="1.625" y1="0.820" x2="1.625" y2="0.340" stroke="#6b7280" stroke-width="0.100" stroke-linecap="round" opacity="0.8"/><line x1="1.850" y1="1.670" x2="1.925" y2="1.595" stroke="#6b7280" stroke-width="0.100" stroke-linecap="round" opacity="0.8"/><line x1="1.850" y1="2.348" x2="2.000" y2="2.285" stroke="#6b7280" stroke-width="0.100" stroke-linecap="round" opacity="0.8"/><line x1="1.850" y1="2.920" x2="1.850" y2="1.670" stroke="#6b7280" stroke-width="0.100" stroke-linecap="round" opacity="0.8"/><line x1="1.925" y1="1.595" x2="2.000" y2="1.520" stroke="#6b7280" stroke-width="0.100" stroke-linecap="round" opacity="0.8"/><line x1="2.000" y1="1.520" x2="2.600" y2="1.520" stroke="#6b7280" stroke-width="0.100" stroke-linecap="round" opacity="0.8"/><line x1="2.000" y1="2.285" x2="2.250" y2="2.285" stroke="#6b7280" stroke-width="0.100" stroke-linecap="round" opacity="0.8"/><line x1="2.250" y1="3.120" x2="2.250" y2="1.950" stroke="#6b7280" stroke-width="0.100" stroke-linecap="round" opacity="0.8"/><line x1="2.350" y1="1.850" x2="3.800" y2="1.850" stroke="#6b7280" stroke-width="0.100" stroke-linecap="round" opacity="0.8"/><line x1="2.375" y1="-1.750" x2="2.625" y2="-1.750" stroke="#6b7280" stroke-width="0.100" stroke-linecap="round" opacity="0.8"/><line x1="2.375" y1="-1.150" x2="2.375" y2="-1.750" stroke="#6b7280" stroke-width="0.100" stroke-linecap="round" opacity="0.8"/><line x1="2.375" y1="0.340" x2="2.625" y2="0.340" stroke="#6b7280" stroke-width="0.100" stroke-linecap="round" opacity="0.8"/><line x1="2.375" y1="0.820" x2="2.375" y2="0.340" stroke="#6b7280" stroke-width="0.100" stroke-linecap="round" opacity="0.8"/><line x1="2.375" y1="0.820" x2="2.625" y2="0.820" stroke="#6b7280" stroke-width="0.100" stroke-linecap="round" opacity="0.8"/><line x1="2.600" y1="1.520" x2="3.000" y2="1.520" stroke="#6b7280" stroke-width="0.100" stroke-linecap="round" opacity="0.8"/><line x1="2.625" y1="-1.150" x2="2.625" y2="-1.750" stroke="#6b7280" stroke-width="0.100" stroke-linecap="round" opacity="0.8"/><line x1="2.625" y1="0.820" x2="2.625" y2="0.340" stroke="#6b7280" stroke-width="0.100" stroke-linecap="round" opacity="0.8"/><line x1="2.635" y1="-0.550" x2="2.635" y2="-0.820" stroke="#6b7280" stroke-width="0.100" stroke-linecap="round" opacity="0.8"/><line x1="2.800" y1="1.670" x2="2.950" y2="1.520" stroke="#6b7280" stroke-width="0.100" stroke-linecap="round" opacity="0.8"/><line x1="2.800" y1="1.850" x2="2.800" y2="1.670" stroke="#6b7280" stroke-width="0.100" stroke-linecap="round" opacity="0.8"/><line x1="3.000" y1="1.520" x2="3.575" y2="1.520" stroke="#6b7280" stroke-width="0.100" stroke-linecap="round" opacity="0.8"/><line x1="3.225" y1="0.920" x2="3.575" y2="0.920" stroke="#6b7280" stroke-width="0.100" stroke-linecap="round" opacity="0.8"/><line x1="3.225" y1="1.520" x2="3.225" y2="-0.820" stroke="#6b7280" stroke-width="0.100" stroke-linecap="round" opacity="0.8"/><line x1="3.575" y1="1.520" x2="3.575" y2="0.920" stroke="#6b7280" stroke-width="0.100" stroke-linecap="round" opacity="0.8"/><line x1="3.973" y1="1.750" x2="4.120" y2="1.750" stroke="#6b7280" stroke-width="0.100" stroke-linecap="round" opacity="0.8"/><line x1="4.000" y1="0.650" x2="4.120" y2="0.650" stroke="#6b7280" stroke-width="0.100" stroke-linecap="round" opacity="0.8"/><line x1="4.000" y1="1.650" x2="4.000" y2="-0.950" stroke="#6b7280" stroke-width="0.100" stroke-linecap="round" opacity="0.8"/><line x1="4.120" y1="1.750" x2="4.120" y2="0.650" stroke="#6b7280" stroke-width="0.100" stroke-linecap="round" opacity="0.8"/><path d="M -4.000 -0.950 A 0.200 0.200 0 0 1 -3.800 -1.150" fill="none" stroke="#e6e9ef" stroke-width="0.12" opacity="1"/><path d="M -2.350 1.850 A 0.100 0.100 0 0 1 -2.250 1.950" fill="none" stroke="#e6e9ef" stroke-width="0.12" opacity="1"/><path d="M -2.050 3.320 A 0.200 0.200 0 0 1 -2.250 3.120" fill="none" stroke="#e6e9ef" stroke-width="0.12" opacity="1"/><path d="M 2.250 1.950 A 0.100 0.100 0 0 1 2.350 1.850" fill="none" stroke="#e6e9ef" stroke-width="0.12" opacity="1"/><path d="M 2.250 3.120 A 0.200 0.200 0 0 1 2.050 3.320" fill="none" stroke="#e6e9ef" stroke-width="0.12" opacity="1"/><path d="M 3.800 -1.150 A 0.200 0.200 0 0 1 4.000 -0.950" fill="none" stroke="#e6e9ef" stroke-width="0.12" opacity="1"/><path d="M -4.000 -0.950 A 0.200 0.200 0 0 1 -3.800 -1.150" fill="none" stroke="#6b7280" stroke-width="0.12" opacity="0.8"/><path d="M -3.800 1.850 A 0.200 0.200 0 0 1 -4.000 1.650" fill="none" stroke="#6b7280" stroke-width="0.12" opacity="0.8"/><path d="M -2.350 1.850 A 0.100 0.100 0 0 1 -2.250 1.950" fill="none" stroke="#6b7280" stroke-width="0.12" opacity="0.8"/><path d="M -2.050 3.320 A 0.200 0.200 0 0 1 -2.250 3.120" fill="none" stroke="#6b7280" stroke-width="0.12" opacity="0.8"/><path d="M 2.250 1.950 A 0.100 0.100 0 0 1 2.350 1.850" fill="none" stroke="#6b7280" stroke-width="0.12" opacity="0.8"/><path d="M 2.250 3.120 A 0.200 0.200 0 0 1 2.050 3.320" fill="none" stroke="#6b7280" stroke-width="0.12" opacity="0.8"/><path d="M 3.800 -1.150 A 0.200 0.200 0 0 1 4.000 -0.950" fill="none" stroke="#6b7280" stroke-width="0.12" opacity="0.8"/><path d="M 4.000 1.650 A 0.200 0.200 0 0 1 3.800 1.850" fill="none" stroke="#6b7280" stroke-width="0.12" opacity="0.8"/><circle cx="2.475" cy="-2.700" r="0.125" fill="none" stroke="#e6e9ef" stroke-width="0.12" opacity="1"/><circle cx="2.475" cy="-2.700" r="0.125" fill="none" stroke="#6b7280" stroke-width="0.12" opacity="0.8"/><rect x="2.200" y="-2.100" width="0.600" height="1.550" rx="0.000" fill="#c79b5c"/><rect x="1.200" y="-2.100" width="0.600" height="1.550" rx="0.000" fill="#c79b5c"/><rect x="0.200" y="-2.100" width="0.600" height="1.550" rx="0.000" fill="#c79b5c"/><rect x="-0.800" y="-2.100" width="0.600" height="1.550" rx="0.000" fill="#c79b5c"/><rect x="-1.800" y="-2.100" width="0.600" height="1.550" rx="0.000" fill="#c79b5c"/><rect x="-2.800" y="-2.100" width="0.600" height="1.550" rx="0.000" fill="#c79b5c"/><rect x="-4.400" y="0.300" width="1.200" height="1.800" rx="0.000" fill="#c79b5c"/><rect x="3.200" y="0.300" width="1.200" height="1.800" rx="0.000" fill="#c79b5c"/></svg>