<svg xmlns="http://www.w3.org/2000/svg" viewBox="-7.08 -6.10 13.45 12.20" preserveAspectRatio="xMidYMid meet" style="width:100%;height:100%"><rect x="-7.08" y="-6.10" width="13.45" height="12.20" fill="#12151c"/><circle cx="-5.950" cy="-4.250" r="0.125" fill="none" stroke="#e6e9ef" stroke-width="0.12" opacity="1"/><circle cx="-4.000" cy="-4.000" r="0.500" fill="none" stroke="#6b7280" stroke-width="0.12" opacity="0.8"/><rect x="-5.375" y="-4.400" width="0.850" height="0.300" rx="0.150" fill="#c79b5c"/><rect x="-5.375" y="-3.900" width="0.850" height="0.300" rx="0.150" fill="#c79b5c"/><rect x="-5.375" y="-3.400" width="0.850" height="0.300" rx="0.150" fill="#c79b5c"/><rect x="-5.375" y="-2.900" width="0.850" height="0.300" rx="0.150" fill="#c79b5c"/><rect x="-5.375" y="-2.400" width="0.850" height="0.300" rx="0.150" fill="#c79b5c"/><rect x="-5.375" y="-1.900" width="0.850" height="0.300" rx="0.150" fill="#c79b5c"/><rect x="-5.375" y="-1.400" width="0.850" height="0.300" rx="0.150" fill="#c79b5c"/><rect x="-5.375" y="-0.900" width="0.850" height="0.300" rx="0.150" fill="#c79b5c"/><rect x="-5.375" y="-0.400" width="0.850" height="0.300" rx="0.150" fill="#c79b5c"/><rect x="-5.375" y="0.100" width="0.850" height="0.300" rx="0.150" fill="#c79b5c"/><rect x="-5.375" y="0.600" width="0.850" height="0.300" rx="0.150" fill="#c79b5c"/><rect x="-5.375" y="1.100" width="0.850" height="0.300" rx="0.150" fill="#c79b5c"/><rect x="-5.375" y="1.600" width="0.850" height="0.300" rx="0.150" fill="#c79b5c"/><rect x="-5.375" y="2.100" width="0.850" height="0.300" rx="0.150" fill="#c79b5c"/><rect x="-5.375" y="2.600" width="0.850" height="0.300" rx="0.150" fill="#c79b5c"/><rect x="-5.375" y="3.100" width="0.850" height="0.300" rx="0.150" fill="#c79b5c"/><rect x="-5.375" y="3.600" width="0.850" height="0.300" rx="0.150" fill="#c79b5c"/><rect x="-5.375" y="4.100" width="0.850" height="0.300" rx="0.150" fill="#c79b5c"/><rect x="-4.675" y="4.800" width="0.850" height="0.300" rx="0.150" fill="#c79b5c"/><rect x="-4.175" y="4.800" width="0.850" height="0.300" rx="0.150" fill="#c79b5c"/><rect x="-3.675" y="4.800" width="0.850" height="0.300" rx="0.150" fill="#c79b5c"/><rect x="-3.175" y="4.800" width="0.850" height="0.300" rx="0.150" fill="#c79b5c"/><rect x="-2.675" y="4.800" width="0.850" height="0.300" rx="0.150" fill="#c79b5c"/><rect x="-2.175" y="4.800" width="0.850" height="0.300" rx="0.150" fill="#c79b5c"/><rect x="-1.675" y="4.800" width="0.850" height="0.300" rx="0.150" fill="#c79b5c"/><rect x="-1.175" y="4.800" width="0.850" height="0.300" rx="0.150" fill="#c79b5c"/><rect x="-0.675" y="4.800" width="0.850" height="0.300" rx="0.150" fill="#c79b5c"/><rect x="-0.175" y="4.800" width="0.850" height="0.300" rx="0.150" fill="#c79b5c"/><rect x="0.325" y="4.800" width="0.850" height="0.300" rx="0.150" fill="#c79b5c"/><rect x="0.825" y="4.800" width="0.850" height="0.300" rx="0.150" fill="#c79b5c"/><rect x="1.325" y="4.800" width="0.850" height="0.300" rx="0.150" fill="#c79b5c"/><rect x="1.825" y="4.800" width="0.850" height="0.300" rx="0.150" fill="#c79b5c"/><rect x="2.325" y="4.800" width="0.850" height="0.300" rx="0.150" fill="#c79b5c"/><rect x="2.825" y="4.800" width="0.850" height="0.300" rx="0.150" fill="#c79b5c"/><rect x="3.325" y="4.800" width="0.850" height="0.300" rx="0.150" fill="#c79b5c"/><rect x="3.825" y="4.800" width="0.850" height="0.300" rx="0.150" fill="#c79b5c"/><rect x="4.525" y="4.100" width="0.850" height="0.300" rx="0.150" fill="#c79b5c"/><rect x="4.525" y="3.600" width="0.850" height="0.300" rx="0.150" fill="#c79b5c"/><rect x="4.525" y="3.100" width="0.850" height="0.300" rx="0.150" fill="#c79b5c"/><rect x="4.525" y="2.600" width="0.850" height="0.300" rx="0.150" fill="#c79b5c"/><rect x="4.525" y="2.100" width="0.850" height="0.300" rx="0.150" fill="#c79b5c"/><rect x="4.525" y="1.600" width="0.850" height="0.300" rx="0.150" fill="#c79b5c"/><rect x="4.525" y="1.100" width="0.850" height="0.300" rx="0.150" fill="#c79b5c"/><rect x="4.525" y="0.600" width="0.850" height="0.300" rx="0.150" fill="#c79b5c"/><rect x="4.525" y="0.100" width="0.850" height="0.300" rx="0.150" fill="#c79b5c"/><rect x="4.525" y="-0.400" width="0.850" height="0.300" rx="0.150" fill="#c79b5c"/><rect x="4.525" y="-0.900" width="0.850" height="0.300" rx="0.150" fill="#c79b5c"/><rect x="4.525" y="-1.400" width="0.850" height="0.300" rx="0.150" fill="#c79b5c"/><rect x="4.525" y="-1.900" width="0.850" height="0.300" rx="0.150" fill="#c79b5c"/><rect x="4.525" y="-2.400" width="0.850" height="0.300" rx="0.150" fill="#c79b5c"/><rect x="4.525" y="-2.900" width="0.850" height="0.300" rx="0.150" fill="#c79b5c"/><rect x="4.525" y="-3.400" width="0.850" height="0.300" rx="0.150" fill="#c79b5c"/><rect x="4.525" y="-3.900" width="0.850" height="0.300" rx="0.150" fill="#c79b5c"/><rect x="4.525" y="-4.400" width="0.850" height="0.300" rx="0.150" fill="#c79b5c"/><rect x="3.825" y="-5.100" width="0.850" height="0.300" rx="0.150" fill="#c79b5c"/><rect x="3.325" y="-5.100" width="0.850" height="0.300" rx="0.150" fill="#c79b5c"/><rect x="2.825" y="-5.100" width="0.850" height="0.300" rx="0.150" fill="#c79b5c"/><rect x="2.325" y="-5.100" width="0.850" height="0.300" rx="0.150" fill="#c79b5c"/><rect x="1.825" y="-5.100" width="0.850" height="0.300" rx="0.150" fill="#c79b5c"/><rect x="1.325" y="-5.100" width="0.850" height="0.300" rx="0.150" fill="#c79b5c"/><rect x="0.825" y="-5.100" width="0.850" height="0.300" rx="0.150" fill="#c79b5c"/><rect x="0.325" y="-5.100" width="0.850" height="0.300" rx="0.150" fill="#c79b5c"/><rect x="-0.175" y="-5.100" width="0.850" height="0.300" rx="0.150" fill="#c79b5c"/><rect x="-0.675" y="-5.100" width="0.850" height="0.300" rx="0.150" fill="#c79b5c"/><rect x="-1.175" y="-5.100" width="0.850" height="0.300" rx="0.150" fill="#c79b5c"/><rect x="-1.675" y="-5.100" width="0.850" height="0.300" rx="0.150" fill="#c79b5c"/><rect x="-2.175" y="-5.100" width="0.850" height="0.300" rx="0.150" fill="#c79b5c"/><rect x="-2.675" y="-5.100" width="0.850" height="0.300" rx="0.150" fill="#c79b5c"/><rect x="-3.175" y="-5.100" width="0.850" height="0.300" rx="0.150" fill="#c79b5c"/><rect x="-3.675" y="-5.100" width="0.850" height="0.300" rx="0.150" fill="#c79b5c"/><rect x="-4.175" y="-5.100" width="0.850" height="0.300" rx="0.150" fill="#c79b5c"/><rect x="-4.675" y="-5.100" width="0.850" height="0.300" rx="0.150" fill="#c79b5c"/><rect x="-3.000" y="-3.000" width="6.000" height="6.000" rx="0.000" fill="#c79b5c"/></svg>