<svg xmlns="http://www.w3.org/2000/svg" viewBox="-10.14 -3.79 20.28 8.07" preserveAspectRatio="xMidYMid meet" style="width:100%;height:100%"><rect x="-10.14" y="-3.79" width="20.28" height="8.07" fill="#12151c"/><line x1="-9.140" y1="-2.790" x2="9.140" y2="-2.790" stroke="#d24d4d" stroke-width="0.080" stroke-linecap="round" opacity="0.7"/><line x1="9.140" y1="-2.790" x2="9.140" y2="2.790" stroke="#d24d4d" stroke-width="0.080" stroke-linecap="round" opacity="0.7"/><line x1="9.140" y1="2.790" x2="-9.140" y2="2.790" stroke="#d24d4d" stroke-width="0.080" stroke-linecap="round" opacity="0.7"/><line x1="-9.140" y1="2.790" x2="-9.140" y2="-2.790" stroke="#d24d4d" stroke-width="0.080" stroke-linecap="round" opacity="0.7"/><circle cx="-7.585" cy="3.135" r="0.150" fill="none" stroke="#e6e9ef" stroke-width="0.12" opacity="1"/><rect x="-8.470" y="0.420" width="1.700" height="1.700" rx="0.000" fill="#c79b5c"/><circle cx="-7.620" cy="1.270" r="0.500" fill="#12151c"/><rect x="-8.470" y="-2.120" width="1.700" height="1.700" rx="0.850" fill="#c79b5c"/><circle cx="-7.620" cy="-1.270" r="0.500" fill="#12151c"/><rect x="-5.930" y="0.420" width="1.700" height="1.700" rx="0.850" fill="#c79b5c"/><circle cx="-5.080" cy="1.270" r="0.500" fill="#12151c"/><rect x="-5.930" y="-2.120" width="1.700" height="1.700" rx="0.850" fill="#c79b5c"/><circle cx="-5.080" cy="-1.270" r="0.500" fill="#12151c"/><rect x="-3.390" y="0.420" width="1.700" height="1.700" rx="0.850" fill="#c79b5c"/><circle cx="-2.540" cy="1.270" r="0.500" fill="#12151c"/><rect x="-3.390" y="-2.120" width="1.700" height="1.700" rx="0.850" fill="#c79b5c"/><circle cx="-2.540" cy="-1.270" r="0.500" fill="#12151c"/><rect x="-0.850" y="0.420" width="1.700" height="1.700" rx="0.850" fill="#c79b5c"/><circle cx="-0.000" cy="1.270" r="0.500" fill="#12151c"/><rect x="-0.850" y="-2.120" width="1.700" height="1.700" rx="0.850" fill="#c79b5c"/><circle cx="-0.000" cy="-1.270" r="0.500" fill="#12151c"/><rect x="1.690" y="0.420" width="1.700" height="1.700" rx="0.850" fill="#c79b5c"/><circle cx="2.540" cy="1.270" r="0.500" fill="#12151c"/><rect x="1.690" y="-2.120" width="1.700" height="1.700" rx="0.850" fill="#c79b5c"/><circle cx="2.540" cy="-1.270" r="0.500" fill="#12151c"/><rect x="4.230" y="0.420" width="1.700" height="1.700" rx="0.850" fill="#c79b5c"/><circle cx="5.080" cy="1.270" r="0.500" fill="#12151c"/><rect x="4.230" y="-2.120" width="1.700" height="1.700" rx="0.850" fill="#c79b5c"/><circle cx="5.080" cy="-1.270" r="0.500" fill="#12151c"/><rect x="6.770" y="0.420" width="1.700" height="1.700" rx="0.850" fill="#c79b5c"/><circle cx="7.620" cy="1.270" r="0.500" fill="#12151c"/><rect x="6.770" y="-2.120" width="1.700" height="1.700" rx="0.850" fill="#c79b5c"/><circle cx="7.620" cy="-1.270" r="0.500" fill="#12151c"/></svg>