<svg xmlns="http://www.w3.org/2000/svg" viewBox="-2.23 -2.33 4.46 4.33" preserveAspectRatio="xMidYMid meet" style="width:100%;height:100%"><rect x="-2.23" y="-2.33" width="4.46" height="4.33" fill="#12151c"/><line x1="-1.230" y1="-1.000" x2="1.230" y2="-1.000" stroke="#d24d4d" stroke-width="0.080" stroke-linecap="round" opacity="0.7"/><line x1="-1.230" y1="1.000" x2="-1.230" y2="-1.000" stroke="#d24d4d" stroke-width="0.080" stroke-linecap="round" opacity="0.7"/><line x1="-1.230" y1="1.000" x2="1.230" y2="1.000" stroke="#d24d4d" stroke-width="0.080" stroke-linecap="round" opacity="0.7"/><line x1="1.230" y1="1.000" x2="1.230" y2="-1.000" stroke="#d24d4d" stroke-width="0.080" stroke-linecap="round" opacity="0.7"/><line x1="-0.425" y1="-0.800" x2="0.425" y2="-0.800" stroke="#6b7280" stroke-width="0.100" stroke-linecap="round" opacity="0.8"/><line x1="-0.425" y1="-0.700" x2="-0.325" y2="-0.800" stroke="#6b7280" stroke-width="0.100" stroke-linecap="round" opacity="0.8"/><line x1="-0.425" y1="-0.600" x2="-0.225" y2="-0.800" stroke="#6b7280" stroke-width="0.100" stroke-linecap="round" opacity="0.8"/><line x1="-0.425" y1="-0.500" x2="-0.125" y2="-0.800" stroke="#6b7280" stroke-width="0.100" stroke-linecap="round" opacity="0.8"/><line x1="-0.425" y1="-0.400" x2="-0.025" y2="-0.800" stroke="#6b7280" stroke-width="0.100" stroke-linecap="round" opacity="0.8"/><line x1="-0.425" y1="-0.300" x2="0.075" y2="-0.800" stroke="#6b7280" stroke-width="0.100" stroke-linecap="round" opacity="0.8"/><line x1="-0.425" y1="-0.200" x2="0.175" y2="-0.800" stroke="#6b7280" stroke-width="0.100" stroke-linecap="round" opacity="0.8"/><line x1="-0.425" y1="-0.100" x2="0.275" y2="-0.800" stroke="#6b7280" stroke-width="0.100" stroke-linecap="round" opacity="0.8"/><line x1="-0.425" y1="0.000" x2="0.375" y2="-0.800" stroke="#6b7280" stroke-width="0.100" stroke-linecap="round" opacity="0.8"/><line x1="-0.425" y1="0.800" x2="-0.425" y2="-0.800" stroke="#6b7280" stroke-width="0.100" stroke-linecap="round" opacity="0.8"/><line x1="-0.425" y1="0.800" x2="0.425" y2="0.800" stroke="#6b7280" stroke-width="0.100" stroke-linecap="round" opacity="0.8"/><line x1="0.425" y1="0.800" x2="0.425" y2="-0.800" stroke="#6b7280" stroke-width="0.100" stroke-linecap="round" opacity="0.8"/><circle cx="-0.930" cy="-1.200" r="0.150" fill="#e6e9ef" opacity="1"/><rect x="-1.075" y="-0.700" width="0.770" height="0.400" rx="0.000" fill="#c79b5c"/><rect x="-1.075" y="0.300" width="0.770" height="0.400" rx="0.000" fill="#c79b5c"/><rect x="0.305" y="-0.200" width="0.770" height="0.400" rx="0.000" fill="#c79b5c"/></svg>