<svg xmlns="http://www.w3.org/2000/svg" viewBox="-7.32 -7.26 14.64 14.25" preserveAspectRatio="xMidYMid meet" style="width:100%;height:100%"><rect x="-7.32" y="-7.26" width="14.64" height="14.25" fill="#12151c"/><line x1="-5.750" y1="5.735" x2="-5.750" y2="5.520" stroke="#e6e9ef" stroke-width="0.200" stroke-linecap="round" opacity="1"/><line x1="-5.750" y1="5.735" x2="-3.250" y2="5.735" stroke="#e6e9ef" stroke-width="0.200" stroke-linecap="round" opacity="1"/><line x1="-3.250" y1="5.735" x2="-3.250" y2="5.520" stroke="#e6e9ef" stroke-width="0.200" stroke-linecap="round" opacity="1"/><line x1="3.250" y1="5.735" x2="3.250" y2="5.520" stroke="#e6e9ef" stroke-width="0.200" stroke-linecap="round" opacity="1"/><line x1="3.250" y1="5.735" x2="5.750" y2="5.735" stroke="#e6e9ef" stroke-width="0.200" stroke-linecap="round" opacity="1"/><line x1="5.750" y1="5.735" x2="5.750" y2="5.520" stroke="#e6e9ef" stroke-width="0.200" stroke-linecap="round" opacity="1"/><line x1="-6.070" y1="-5.170" x2="-4.420" y2="0.000" stroke="#4a5160" stroke-width="0.080" stroke-linecap="round" opacity="0.7"/><line x1="-6.070" y1="-5.170" x2="-2.770" y2="-5.170" stroke="#4a5160" stroke-width="0.080" stroke-linecap="round" opacity="0.7"/><line x1="-6.070" y1="5.170" x2="-6.070" y2="-5.170" stroke="#4a5160" stroke-width="0.080" stroke-linecap="round" opacity="0.7"/><line x1="-6.070" y1="5.170" x2="-4.420" y2="0.000" stroke="#4a5160" stroke-width="0.080" stroke-linecap="round" opacity="0.7"/><line x1="-6.070" y1="5.170" x2="-2.770" y2="5.170" stroke="#4a5160" stroke-width="0.080" stroke-linecap="round" opacity="0.7"/><line x1="-2.770" y1="5.170" x2="-2.770" y2="-5.170" stroke="#4a5160" stroke-width="0.080" stroke-linecap="round" opacity="0.7"/><line x1="-0.500" y1="0.000" x2="0.000" y2="0.000" stroke="#4a5160" stroke-width="0.080" stroke-linecap="round" opacity="0.7"/><line x1="0.000" y1="0.000" x2="0.000" y2="-0.500" stroke="#4a5160" stroke-width="0.080" stroke-linecap="round" opacity="0.7"/><line x1="0.000" y1="0.000" x2="0.500" y2="0.000" stroke="#4a5160" stroke-width="0.080" stroke-linecap="round" opacity="0.7"/><line x1="0.000" y1="0.500" x2="0.000" y2="0.000" stroke="#4a5160" stroke-width="0.080" stroke-linecap="round" opacity="0.7"/><line x1="2.770" y1="-5.170" x2="6.070" y2="-5.170" stroke="#4a5160" stroke-width="0.080" stroke-linecap="round" opacity="0.7"/><line x1="2.770" y1="5.170" x2="2.770" y2="-5.170" stroke="#4a5160" stroke-width="0.080" stroke-linecap="round" opacity="0.7"/><line x1="2.770" y1="5.170" x2="6.070" y2="5.170" stroke="#4a5160" stroke-width="0.080" stroke-linecap="round" opacity="0.7"/><line x1="4.420" y1="0.000" x2="6.070" y2="-5.170" stroke="#4a5160" stroke-width="0.080" stroke-linecap="round" opacity="0.7"/><line x1="4.420" y1="0.000" x2="6.070" y2="5.170" stroke="#4a5160" stroke-width="0.080" stroke-linecap="round" opacity="0.7"/><line x1="6.070" y1="5.170" x2="6.070" y2="-5.170" stroke="#4a5160" stroke-width="0.080" stroke-linecap="round" opacity="0.7"/><line x1="-6.320" y1="-6.265" x2="6.320" y2="-6.265" stroke="#d24d4d" stroke-width="0.080" stroke-linecap="round" opacity="0.7"/><line x1="-6.320" y1="5.985" x2="-6.320" y2="-6.265" stroke="#d24d4d" stroke-width="0.080" stroke-linecap="round" opacity="0.7"/><line x1="-6.320" y1="5.985" x2="6.320" y2="5.985" stroke="#d24d4d" stroke-width="0.080" stroke-linecap="round" opacity="0.7"/><line x1="6.320" y1="5.985" x2="6.320" y2="-6.265" stroke="#d24d4d" stroke-width="0.080" stroke-linecap="round" opacity="0.7"/><line x1="-5.750" y1="-4.335" x2="-4.080" y2="-4.335" stroke="#6b7280" stroke-width="0.100" stroke-linecap="round" opacity="0.8"/><line x1="-5.750" y1="-0.757" x2="-5.750" y2="-4.335" stroke="#6b7280" stroke-width="0.100" stroke-linecap="round" opacity="0.8"/><line x1="-5.750" y1="4.335" x2="-3.484" y2="4.335" stroke="#6b7280" stroke-width="0.100" stroke-linecap="round" opacity="0.8"/><line x1="-5.750" y1="5.735" x2="-5.750" y2="0.239" stroke="#6b7280" stroke-width="0.100" stroke-linecap="round" opacity="0.8"/><line x1="-5.750" y1="5.735" x2="-3.250" y2="5.735" stroke="#6b7280" stroke-width="0.100" stroke-linecap="round" opacity="0.8"/><line x1="-3.250" y1="5.735" x2="-3.250" y2="4.507" stroke="#6b7280" stroke-width="0.100" stroke-linecap="round" opacity="0.8"/><line x1="3.250" y1="5.735" x2="3.250" y2="4.505" stroke="#6b7280" stroke-width="0.100" stroke-linecap="round" opacity="0.8"/><line x1="3.250" y1="5.735" x2="5.750" y2="5.735" stroke="#6b7280" stroke-width="0.100" stroke-linecap="round" opacity="0.8"/><line x1="3.453" y1="4.335" x2="5.750" y2="4.335" stroke="#6b7280" stroke-width="0.100" stroke-linecap="round" opacity="0.8"/><line x1="4.049" y1="-4.335" x2="5.750" y2="-4.335" stroke="#6b7280" stroke-width="0.100" stroke-linecap="round" opacity="0.8"/><line x1="5.750" y1="-1.071" x2="5.750" y2="-4.335" stroke="#6b7280" stroke-width="0.100" stroke-linecap="round" opacity="0.8"/><line x1="5.750" y1="5.735" x2="5.750" y2="0.541" stroke="#6b7280" stroke-width="0.100" stroke-linecap="round" opacity="0.8"/><path d="M -2.420 -5.489 A 5.756 5.756 0 0 1 2.420 -5.474" fill="none" stroke="#e6e9ef" stroke-width="0.12" opacity="1"/><path d="M -2.420 -4.869 A 5.403 5.403 0 0 1 2.420 -5.279" fill="none" stroke="#e6e9ef" stroke-width="0.12" opacity="1"/><path d="M 2.420 4.957 A 5.756 5.756 0 0 1 -2.420 4.971" fill="none" stroke="#e6e9ef" stroke-width="0.12" opacity="1"/><path d="M 2.420 4.749 A 5.403 5.403 0 0 1 -2.420 4.339" fill="none" stroke="#e6e9ef" stroke-width="0.12" opacity="1"/><circle cx="-0.015" cy="-0.259" r="5.756" fill="none" stroke="#6b7280" stroke-width="0.12" opacity="0.8"/><circle cx="0.408" cy="-0.265" r="5.403" fill="none" stroke="#6b7280" stroke-width="0.12" opacity="0.8"/><rect x="-6.070" y="-5.170" width="3.300" height="10.340" rx="0.000" fill="#c79b5c"/><rect x="2.770" y="-5.170" width="3.300" height="10.340" rx="0.000" fill="#c79b5c"/><polygon points="-4.87,6.22 -3.97,6.22 -4.42,5.62" fill="#ffffff"/></svg>