<svg xmlns="http://www.w3.org/2000/svg" viewBox="-4.90 -6.28 9.80 12.43" preserveAspectRatio="xMidYMid meet" style="width:100%;height:100%"><rect x="-4.90" y="-6.28" width="9.80" height="12.43" fill="#12151c"/><line x1="-1.800" y1="-4.900" x2="1.800" y2="-4.900" stroke="#e6e9ef" stroke-width="0.200" stroke-linecap="round" opacity="1"/><line x1="-1.800" y1="4.900" x2="1.800" y2="4.900" stroke="#e6e9ef" stroke-width="0.200" stroke-linecap="round" opacity="1"/><line x1="-3.650" y1="-4.650" x2="-2.900" y2="-4.500" stroke="#4a5160" stroke-width="0.080" stroke-linecap="round" opacity="0.7"/><line x1="-3.650" y1="-4.650" x2="-2.150" y2="-4.650" stroke="#4a5160" stroke-width="0.080" stroke-linecap="round" opacity="0.7"/><line x1="-3.650" y1="-4.350" x2="-3.650" y2="-4.650" stroke="#4a5160" stroke-width="0.080" stroke-linecap="round" opacity="0.7"/><line x1="-3.650" y1="-4.350" x2="-2.900" y2="-4.500" stroke="#4a5160" stroke-width="0.080" stroke-linecap="round" opacity="0.7"/><line x1="-3.650" y1="-4.350" x2="-2.150" y2="-4.350" stroke="#4a5160" stroke-width="0.080" stroke-linecap="round" opacity="0.7"/><line x1="-3.650" y1="-4.150" x2="-2.900" y2="-4.000" stroke="#4a5160" stroke-width="0.080" stroke-linecap="round" opacity="0.7"/><line x1="-3.650" y1="-4.150" x2="-2.150" y2="-4.150" stroke="#4a5160" stroke-width="0.080" stroke-linecap="round" opacity="0.7"/><line x1="-3.650" y1="-3.850" x2="-3.650" y2="-4.150" stroke="#4a5160" stroke-width="0.080" stroke-linecap="round" opacity="0.7"/><line x1="-3.650" y1="-3.850" x2="-2.900" y2="-4.000" stroke="#4a5160" stroke-width="0.080" stroke-linecap="round" opacity="0.7"/><line x1="-3.650" y1="-3.850" x2="-2.150" y2="-3.850" stroke="#4a5160" stroke-width="0.080" stroke-linecap="round" opacity="0.7"/><line x1="-3.650" y1="-3.650" x2="-2.900" y2="-3.500" stroke="#4a5160" stroke-width="0.080" stroke-linecap="round" opacity="0.7"/><line x1="-3.650" y1="-3.650" x2="-2.150" y2="-3.650" stroke="#4a5160" stroke-width="0.080" stroke-linecap="round" opacity="0.7"/><line x1="-3.650" y1="-3.350" x2="-3.650" y2="-3.650" stroke="#4a5160" stroke-width="0.080" stroke-linecap="round" opacity="0.7"/><line x1="-3.650" y1="-3.350" x2="-2.900" y2="-3.500" stroke="#4a5160" stroke-width="0.080" stroke-linecap="round" opacity="0.7"/><line x1="-3.650" y1="-3.350" x2="-2.150" y2="-3.350" stroke="#4a5160" stroke-width="0.080" stroke-linecap="round" opacity="0.7"/><line x1="-3.650" y1="-3.150" x2="-2.900" y2="-3.000" stroke="#4a5160" stroke-width="0.080" stroke-linecap="round" opacity="0.7"/><line x1="-3.650" y1="-3.150" x2="-2.150" y2="-3.150" stroke="#4a5160" stroke-width="0.080" stroke-linecap="round" opacity="0.7"/><line x1="-3.650" y1="-2.850" x2="-3.650" y2="-3.150" stroke="#4a5160" stroke-width="0.080" stroke-linecap="round" opacity="0.7"/><line x1="-3.650" y1="-2.850" x2="-2.900" y2="-3.000" stroke="#4a5160" stroke-width="0.080" stroke-linecap="round" opacity="0.7"/><line x1="-3.650" y1="-2.850" x2="-2.150" y2="-2.850" stroke="#4a5160" stroke-width="0.080" stroke-linecap="round" opacity="0.7"/><line x1="-3.650" y1="-2.650" x2="-2.900" y2="-2.500" stroke="#4a5160" stroke-width="0.080" stroke-linecap="round" opacity="0.7"/><line x1="-3.650" y1="-2.650" x2="-2.150" y2="-2.650" stroke="#4a5160" stroke-width="0.080" stroke-linecap="round" opacity="0.7"/><line x1="-3.650" y1="-2.350" x2="-3.650" y2="-2.650" stroke="#4a5160" stroke-width="0.080" stroke-linecap="round" opacity="0.7"/><line x1="-3.650" y1="-2.350" x2="-2.900" y2="-2.500" stroke="#4a5160" stroke-width="0.080" stroke-linecap="round" opacity="0.7"/><line x1="-3.650" y1="-2.350" x2="-2.150" y2="-2.350" stroke="#4a5160" stroke-width="0.080" stroke-linecap="round" opacity="0.7"/><line x1="-3.650" y1="-2.150" x2="-2.900" y2="-2.000" stroke="#4a5160" stroke-width="0.080" stroke-linecap="round" opacity="0.7"/><line x1="-3.650" y1="-2.150" x2="-2.150" y2="-2.150" stroke="#4a5160" stroke-width="0.080" stroke-linecap="round" opacity="0.7"/><line x1="-3.650" y1="-1.850" x2="-3.650" y2="-2.150" stroke="#4a5160" stroke-width="0.080" stroke-linecap="round" opacity="0.7"/><line x1="-3.650" y1="-1.850" x2="-2.900" y2="-2.000" stroke="#4a5160" stroke-width="0.080" stroke-linecap="round" opacity="0.7"/><line x1="-3.650" y1="-1.850" x2="-2.150" y2="-1.850" stroke="#4a5160" stroke-width="0.080" stroke-linecap="round" opacity="0.7"/><line x1="-3.650" y1="-1.650" x2="-2.900" y2="-1.500" stroke="#4a5160" stroke-width="0.080" stroke-linecap="round" opacity="0.7"/><line x1="-3.650" y1="-1.650" x2="-2.150" y2="-1.650" stroke="#4a5160" stroke-width="0.080" stroke-linecap="round" opacity="0.7"/><line x1="-3.650" y1="-1.350" x2="-3.650" y2="-1.650" stroke="#4a5160" stroke-width="0.080" stroke-linecap="round" opacity="0.7"/><line x1="-3.650" y1="-1.350" x2="-2.900" y2="-1.500" stroke="#4a5160" stroke-width="0.080" stroke-linecap="round" opacity="0.7"/><line x1="-3.650" y1="-1.350" x2="-2.150" y2="-1.350" stroke="#4a5160" stroke-width="0.080" stroke-linecap="round" opacity="0.7"/><line x1="-3.650" y1="-1.150" x2="-2.900" y2="-1.000" stroke="#4a5160" stroke-width="0.080" stroke-linecap="round" opacity="0.7"/><line x1="-3.650" y1="-1.150" x2="-2.150" y2="-1.150" stroke="#4a5160" stroke-width="0.080" stroke-linecap="round" opacity="0.7"/><line x1="-3.650" y1="-0.850" x2="-3.650" y2="-1.150" stroke="#4a5160" stroke-width="0.080" stroke-linecap="round" opacity="0.7"/><line x1="-3.650" y1="-0.850" x2="-2.900" y2="-1.000" stroke="#4a5160" stroke-width="0.080" stroke-linecap="round" opacity="0.7"/><line x1="-3.650" y1="-0.850" x2="-2.150" y2="-0.850" stroke="#4a5160" stroke-width="0.080" stroke-linecap="round" opacity="0.7"/><line x1="-3.650" y1="-0.650" x2="-2.900" y2="-0.500" stroke="#4a5160" stroke-width="0.080" stroke-linecap="round" opacity="0.7"/><line x1="-3.650" y1="-0.650" x2="-2.150" y2="-0.650" stroke="#4a5160" stroke-width="0.080" stroke-linecap="round" opacity="0.7"/><line x1="-3.650" y1="-0.350" x2="-3.650" y2="-0.650" stroke="#4a5160" stroke-width="0.080" stroke-linecap="round" opacity="0.7"/><line x1="-3.650" y1="-0.350" x2="-2.900" y2="-0.500" stroke="#4a5160" stroke-width="0.080" stroke-linecap="round" opacity="0.7"/><line x1="-3.650" y1="-0.350" x2="-2.150" y2="-0.350" stroke="#4a5160" stroke-width="0.080" stroke-linecap="round" opacity="0.7"/><line x1="-3.650" y1="-0.150" x2="-2.900" y2="0.000" stroke="#4a5160" stroke-width="0.080" stroke-linecap="round" opacity="0.7"/><line x1="-3.650" y1="-0.150" x2="-2.150" y2="-0.150" stroke="#4a5160" stroke-width="0.080" stroke-linecap="round" opacity="0.7"/><line x1="-3.650" y1="0.150" x2="-3.650" y2="-0.150" stroke="#4a5160" stroke-width="0.080" stroke-linecap="round" opacity="0.7"/><line x1="-3.650" y1="0.150" x2="-2.900" y2="0.000" stroke="#4a5160" stroke-width="0.080" stroke-linecap="round" opacity="0.7"/><line x1="-3.650" y1="0.150" x2="-2.150" y2="0.150" stroke="#4a5160" stroke-width="0.080" stroke-linecap="round" opacity="0.7"/><line x1="-3.650" y1="0.350" x2="-2.900" y2="0.500" stroke="#4a5160" stroke-width="0.080" stroke-linecap="round" opacity="0.7"/><line x1="-3.650" y1="0.350" x2="-2.150" y2="0.350" stroke="#4a5160" stroke-width="0.080" stroke-linecap="round" opacity="0.7"/><line x1="-3.650" y1="0.650" x2="-3.650" y2="0.350" stroke="#4a5160" stroke-width="0.080" stroke-linecap="round" opacity="0.7"/><line x1="-3.650" y1="0.650" x2="-2.900" y2="0.500" stroke="#4a5160" stroke-width="0.080" stroke-linecap="round" opacity="0.7"/><line x1="-3.650" y1="0.650" x2="-2.150" y2="0.650" stroke="#4a5160" stroke-width="0.080" stroke-linecap="round" opacity="0.7"/><line x1="-3.650" y1="0.850" x2="-2.900" y2="1.000" stroke="#4a5160" stroke-width="0.080" stroke-linecap="round" opacity="0.7"/><line x1="-3.650" y1="0.850" x2="-2.150" y2="0.850" stroke="#4a5160" stroke-width="0.080" stroke-linecap="round" opacity="0.7"/><line x1="-3.650" y1="1.150" x2="-3.650" y2="0.850" stroke="#4a5160" stroke-width="0.080" stroke-linecap="round" opacity="0.7"/><line x1="-3.650" y1="1.150" x2="-2.900" y2="1.000" stroke="#4a5160" stroke-width="0.080" stroke-linecap="round" opacity="0.7"/><line x1="-3.650" y1="1.150" x2="-2.150" y2="1.150" stroke="#4a5160" stroke-width="0.080" stroke-linecap="round" opacity="0.7"/><line x1="-3.650" y1="1.350" x2="-2.900" y2="1.500" stroke="#4a5160" stroke-width="0.080" stroke-linecap="round" opacity="0.7"/><line x1="-3.650" y1="1.350" x2="-2.150" y2="1.350" stroke="#4a5160" stroke-width="0.080" stroke-linecap="round" opacity="0.7"/><line x1="-3.650" y1="1.650" x2="-3.650" y2="1.350" stroke="#4a5160" stroke-width="0.080" stroke-linecap="round" opacity="0.7"/><line x1="-3.650" y1="1.650" x2="-2.900" y2="1.500" stroke="#4a5160" stroke-width="0.080" stroke-linecap="round" opacity="0.7"/><line x1="-3.650" y1="1.650" x2="-2.150" y2="1.650" stroke="#4a5160" stroke-width="0.080" stroke-linecap="round" opacity="0.7"/><line x1="-3.650" y1="1.850" x2="-2.900" y2="2.000" stroke="#4a5160" stroke-width="0.080" stroke-linecap="round" opacity="0.7"/><line x1="-3.650" y1="1.850" x2="-2.150" y2="1.850" stroke="#4a5160" stroke-width="0.080" stroke-linecap="round" opacity="0.7"/><line x1="-3.650" y1="2.150" x2="-3.650" y2="1.850" stroke="#4a5160" stroke-width="0.080" stroke-linecap="round" opacity="0.7"/><line x1="-3.650" y1="2.150" x2="-2.900" y2="2.000" stroke="#4a5160" stroke-width="0.080" stroke-linecap="round" opacity="0.7"/><line x1="-3.650" y1="2.150" x2="-2.150" y2="2.150" stroke="#4a5160" stroke-width="0.080" stroke-linecap="round" opacity="0.7"/><line x1="-3.650" y1="2.350" x2="-2.900" y2="2.500" stroke="#4a5160" stroke-width="0.080" stroke-linecap="round" opacity="0.7"/><line x1="-3.650" y1="2.350" x2="-2.150" y2="2.350" stroke="#4a5160" stroke-width="0.080" stroke-linecap="round" opacity="0.7"/><line x1="-3.650" y1="2.650" x2="-3.650" y2="2.350" stroke="#4a5160" stroke-width="0.080" stroke-linecap="round" opacity="0.7"/><line x1="-3.650" y1="2.650" x2="-2.900" y2="2.500" stroke="#4a5160" stroke-width="0.080" stroke-linecap="round" opacity="0.7"/><line x1="-3.650" y1="2.650" x2="-2.150" y2="2.650" stroke="#4a5160" stroke-width="0.080" stroke-linecap="round" opacity="0.7"/><line x1="-3.650" y1="2.850" x2="-2.900" y2="3.000" stroke="#4a5160" stroke-width="0.080" stroke-linecap="round" opacity="0.7"/><line x1="-3.650" y1="2.850" x2="-2.150" y2="2.850" stroke="#4a5160" stroke-width="0.080" stroke-linecap="round" opacity="0.7"/><line x1="-3.650" y1="3.150" x2="-3.650" y2="2.850" stroke="#4a5160" stroke-width="0.080" stroke-linecap="round" opacity="0.7"/><line x1="-3.650" y1="3.150" x2="-2.900" y2="3.000" stroke="#4a5160" stroke-width="0.080" stroke-linecap="round" opacity="0.7"/><line x1="-3.650" y1="3.150" x2="-2.150" y2="3.150" stroke="#4a5160" stroke-width="0.080" stroke-linecap="round" opacity="0.7"/><line x1="-3.650" y1="3.350" x2="-2.900" y2="3.500" stroke="#4a5160" stroke-width="0.080" stroke-linecap="round" opacity="0.7"/><line x1="-3.650" y1="3.350" x2="-2.150" y2="3.350" stroke="#4a5160" stroke-width="0.080" stroke-linecap="round" opacity="0.7"/><line x1="-3.650" y1="3.650" x2="-3.650" y2="3.350" stroke="#4a5160" stroke-width="0.080" stroke-linecap="round" opacity="0.7"/><line x1="-3.650" y1="3.650" x2="-2.900" y2="3.500" stroke="#4a5160" stroke-width="0.080" stroke-linecap="round" opacity="0.7"/><line x1="-3.650" y1="3.650" x2="-2.150" y2="3.650" stroke="#4a5160" stroke-width="0.080" stroke-linecap="round" opacity="0.7"/><line x1="-3.650" y1="3.850" x2="-2.900" y2="4.000" stroke="#4a5160" stroke-width="0.080" stroke-linecap="round" opacity="0.7"/><line x1="-3.650" y1="3.850" x2="-2.150" y2="3.850" stroke="#4a5160" stroke-width="0.080" stroke-linecap="round" opacity="0.7"/><line x1="-3.650" y1="4.150" x2="-3.650" y2="3.850" stroke="#4a5160" stroke-width="0.080" stroke-linecap="round" opacity="0.7"/><line x1="-3.650" y1="4.150" x2="-2.900" y2="4.000" stroke="#4a5160" stroke-width="0.080" stroke-linecap="round" opacity="0.7"/><line x1="-3.650" y1="4.150" x2="-2.150" y2="4.150" stroke="#4a5160" stroke-width="0.080" stroke-linecap="round" opacity="0.7"/><line x1="-3.650" y1="4.350" x2="-2.900" y2="4.500" stroke="#4a5160" stroke-width="0.080" stroke-linecap="round" opacity="0.7"/><line x1="-3.650" y1="4.350" x2="-2.150" y2="4.350" stroke="#4a5160" stroke-width="0.080" stroke-linecap="round" opacity="0.7"/><line x1="-3.650" y1="4.650" x2="-3.650" y2="4.350" stroke="#4a5160" stroke-width="0.080" stroke-linecap="round" opacity="0.7"/><line x1="-3.650" y1="4.650" x2="-2.900" y2="4.500" stroke="#4a5160" stroke-width="0.080" stroke-linecap="round" opacity="0.7"/><line x1="-3.650" y1="4.650" x2="-2.150" y2="4.650" stroke="#4a5160" stroke-width="0.080" stroke-linecap="round" opacity="0.7"/><line x1="-2.150" y1="-4.350" x2="-2.150" y2="-4.650" stroke="#4a5160" stroke-width="0.080" stroke-linecap="round" opacity="0.7"/><line x1="-2.150" y1="-3.850" x2="-2.150" y2="-4.150" stroke="#4a5160" stroke-width="0.080" stroke-linecap="round" opacity="0.7"/><line x1="-2.150" y1="-3.350" x2="-2.150" y2="-3.650" stroke="#4a5160" stroke-width="0.080" stroke-linecap="round" opacity="0.7"/><line x1="-2.150" y1="-2.850" x2="-2.150" y2="-3.150" stroke="#4a5160" stroke-width="0.080" stroke-linecap="round" opacity="0.7"/><line x1="-2.150" y1="-2.350" x2="-2.150" y2="-2.650" stroke="#4a5160" stroke-width="0.080" stroke-linecap="round" opacity="0.7"/><line x1="-2.150" y1="-1.850" x2="-2.150" y2="-2.150" stroke="#4a5160" stroke-width="0.080" stroke-linecap="round" opacity="0.7"/><line x1="-2.150" y1="-1.350" x2="-2.150" y2="-1.650" stroke="#4a5160" stroke-width="0.080" stroke-linecap="round" opacity="0.7"/><line x1="-2.150" y1="-0.850" x2="-2.150" y2="-1.150" stroke="#4a5160" stroke-width="0.080" stroke-linecap="round" opacity="0.7"/><line x1="-2.150" y1="-0.350" x2="-2.150" y2="-0.650" stroke="#4a5160" stroke-width="0.080" stroke-linecap="round" opacity="0.7"/><line x1="-2.150" y1="0.150" x2="-2.150" y2="-0.150" stroke="#4a5160" stroke-width="0.080" stroke-linecap="round" opacity="0.7"/><line x1="-2.150" y1="0.650" x2="-2.150" y2="0.350" stroke="#4a5160" stroke-width="0.080" stroke-linecap="round" opacity="0.7"/><line x1="-2.150" y1="1.150" x2="-2.150" y2="0.850" stroke="#4a5160" stroke-width="0.080" stroke-linecap="round" opacity="0.7"/><line x1="-2.150" y1="1.650" x2="-2.150" y2="1.350" stroke="#4a5160" stroke-width="0.080" stroke-linecap="round" opacity="0.7"/><line x1="-2.150" y1="2.150" x2="-2.150" y2="1.850" stroke="#4a5160" stroke-width="0.080" stroke-linecap="round" opacity="0.7"/><line x1="-2.150" y1="2.650" x2="-2.150" y2="2.350" stroke="#4a5160" stroke-width="0.080" stroke-linecap="round" opacity="0.7"/><line x1="-2.150" y1="3.150" x2="-2.150" y2="2.850" stroke="#4a5160" stroke-width="0.080" stroke-linecap="round" opacity="0.7"/><line x1="-2.150" y1="3.650" x2="-2.150" y2="3.350" stroke="#4a5160" stroke-width="0.080" stroke-linecap="round" opacity="0.7"/><line x1="-2.150" y1="4.150" x2="-2.150" y2="3.850" stroke="#4a5160" stroke-width="0.080" stroke-linecap="round" opacity="0.7"/><line x1="-2.150" y1="4.650" x2="-2.150" y2="4.350" stroke="#4a5160" stroke-width="0.080" stroke-linecap="round" opacity="0.7"/><line x1="-1.375" y1="-2.375" x2="1.375" y2="-2.375" stroke="#4a5160" stroke-width="0.080" stroke-linecap="round" opacity="0.7"/><line x1="-1.375" y1="2.375" x2="-1.375" y2="-2.375" stroke="#4a5160" stroke-width="0.080" stroke-linecap="round" opacity="0.7"/><line x1="-1.375" y1="2.375" x2="1.375" y2="2.375" stroke="#4a5160" stroke-width="0.080" stroke-linecap="round" opacity="0.7"/><line x1="-0.500" y1="0.000" x2="0.000" y2="0.000" stroke="#4a5160" stroke-width="0.080" stroke-linecap="round" opacity="0.7"/><line x1="0.000" y1="0.000" x2="0.000" y2="-0.500" stroke="#4a5160" stroke-width="0.080" stroke-linecap="round" opacity="0.7"/><line x1="0.000" y1="0.000" x2="0.500" y2="0.000" stroke="#4a5160" stroke-width="0.080" stroke-linecap="round" opacity="0.7"/><line x1="0.000" y1="0.500" x2="0.000" y2="0.000" stroke="#4a5160" stroke-width="0.080" stroke-linecap="round" opacity="0.7"/><line x1="1.375" y1="2.375" x2="1.375" y2="-2.375" stroke="#4a5160" stroke-width="0.080" stroke-linecap="round" opacity="0.7"/><line x1="2.150" y1="-4.650" x2="3.650" y2="-4.650" stroke="#4a5160" stroke-width="0.080" stroke-linecap="round" opacity="0.7"/><line x1="2.150" y1="-4.350" x2="2.150" y2="-4.650" stroke="#4a5160" stroke-width="0.080" stroke-linecap="round" opacity="0.7"/><line x1="2.150" y1="-4.350" x2="3.650" y2="-4.350" stroke="#4a5160" stroke-width="0.080" stroke-linecap="round" opacity="0.7"/><line x1="2.150" y1="-4.150" x2="3.650" y2="-4.150" stroke="#4a5160" stroke-width="0.080" stroke-linecap="round" opacity="0.7"/><line x1="2.150" y1="-3.850" x2="2.150" y2="-4.150" stroke="#4a5160" stroke-width="0.080" stroke-linecap="round" opacity="0.7"/><line x1="2.150" y1="-3.850" x2="3.650" y2="-3.850" stroke="#4a5160" stroke-width="0.080" stroke-linecap="round" opacity="0.7"/><line x1="2.150" y1="-3.650" x2="3.650" y2="-3.650" stroke="#4a5160" stroke-width="0.080" stroke-linecap="round" opacity="0.7"/><line x1="2.150" y1="-3.350" x2="2.150" y2="-3.650" stroke="#4a5160" stroke-width="0.080" stroke-linecap="round" opacity="0.7"/><line x1="2.150" y1="-3.350" x2="3.650" y2="-3.350" stroke="#4a5160" stroke-width="0.080" stroke-linecap="round" opacity="0.7"/><line x1="2.150" y1="-3.150" x2="3.650" y2="-3.150" stroke="#4a5160" stroke-width="0.080" stroke-linecap="round" opacity="0.7"/><line x1="2.150" y1="-2.850" x2="2.150" y2="-3.150" stroke="#4a5160" stroke-width="0.080" stroke-linecap="round" opacity="0.7"/><line x1="2.150" y1="-2.850" x2="3.650" y2="-2.850" stroke="#4a5160" stroke-width="0.080" stroke-linecap="round" opacity="0.7"/><line x1="2.150" y1="-2.650" x2="3.650" y2="-2.650" stroke="#4a5160" stroke-width="0.080" stroke-linecap="round" opacity="0.7"/><line x1="2.150" y1="-2.350" x2="2.150" y2="-2.650" stroke="#4a5160" stroke-width="0.080" stroke-linecap="round" opacity="0.7"/><line x1="2.150" y1="-2.350" x2="3.650" y2="-2.350" stroke="#4a5160" stroke-width="0.080" stroke-linecap="round" opacity="0.7"/><line x1="2.150" y1="-2.150" x2="3.650" y2="-2.150" stroke="#4a5160" stroke-width="0.080" stroke-linecap="round" opacity="0.7"/><line x1="2.150" y1="-1.850" x2="2.150" y2="-2.150" stroke="#4a5160" stroke-width="0.080" stroke-linecap="round" opacity="0.7"/><line x1="2.150" y1="-1.850" x2="3.650" y2="-1.850" stroke="#4a5160" stroke-width="0.080" stroke-linecap="round" opacity="0.7"/><line x1="2.150" y1="-1.650" x2="3.650" y2="-1.650" stroke="#4a5160" stroke-width="0.080" stroke-linecap="round" opacity="0.7"/><line x1="2.150" y1="-1.350" x2="2.150" y2="-1.650" stroke="#4a5160" stroke-width="0.080" stroke-linecap="round" opacity="0.7"/><line x1="2.150" y1="-1.350" x2="3.650" y2="-1.350" stroke="#4a5160" stroke-width="0.080" stroke-linecap="round" opacity="0.7"/><line x1="2.150" y1="-1.150" x2="3.650" y2="-1.150" stroke="#4a5160" stroke-width="0.080" stroke-linecap="round" opacity="0.7"/><line x1="2.150" y1="-0.850" x2="2.150" y2="-1.150" stroke="#4a5160" stroke-width="0.080" stroke-linecap="round" opacity="0.7"/><line x1="2.150" y1="-0.850" x2="3.650" y2="-0.850" stroke="#4a5160" stroke-width="0.080" stroke-linecap="round" opacity="0.7"/><line x1="2.150" y1="-0.650" x2="3.650" y2="-0.650" stroke="#4a5160" stroke-width="0.080" stroke-linecap="round" opacity="0.7"/><line x1="2.150" y1="-0.350" x2="2.150" y2="-0.650" stroke="#4a5160" stroke-width="0.080" stroke-linecap="round" opacity="0.7"/><line x1="2.150" y1="-0.350" x2="3.650" y2="-0.350" stroke="#4a5160" stroke-width="0.080" stroke-linecap="round" opacity="0.7"/><line x1="2.150" y1="-0.150" x2="3.650" y2="-0.150" stroke="#4a5160" stroke-width="0.080" stroke-linecap="round" opacity="0.7"/><line x1="2.150" y1="0.150" x2="2.150" y2="-0.150" stroke="#4a5160" stroke-width="0.080" stroke-linecap="round" opacity="0.7"/><line x1="2.150" y1="0.150" x2="3.650" y2="0.150" stroke="#4a5160" stroke-width="0.080" stroke-linecap="round" opacity="0.7"/><line x1="2.150" y1="0.350" x2="3.650" y2="0.350" stroke="#4a5160" stroke-width="0.080" stroke-linecap="round" opacity="0.7"/><line x1="2.150" y1="0.650" x2="2.150" y2="0.350" stroke="#4a5160" stroke-width="0.080" stroke-linecap="round" opacity="0.7"/><line x1="2.150" y1="0.650" x2="3.650" y2="0.650" stroke="#4a5160" stroke-width="0.080" stroke-linecap="round" opacity="0.7"/><line x1="2.150" y1="0.850" x2="3.650" y2="0.850" stroke="#4a5160" stroke-width="0.080" stroke-linecap="round" opacity="0.7"/><line x1="2.150" y1="1.150" x2="2.150" y2="0.850" stroke="#4a5160" stroke-width="0.080" stroke-linecap="round" opacity="0.7"/><line x1="2.150" y1="1.150" x2="3.650" y2="1.150" stroke="#4a5160" stroke-width="0.080" stroke-linecap="round" opacity="0.7"/><line x1="2.150" y1="1.350" x2="3.650" y2="1.350" stroke="#4a5160" stroke-width="0.080" stroke-linecap="round" opacity="0.7"/><line x1="2.150" y1="1.650" x2="2.150" y2="1.350" stroke="#4a5160" stroke-width="0.080" stroke-linecap="round" opacity="0.7"/><line x1="2.150" y1="1.650" x2="3.650" y2="1.650" stroke="#4a5160" stroke-width="0.080" stroke-linecap="round" opacity="0.7"/><line x1="2.150" y1="1.850" x2="3.650" y2="1.850" stroke="#4a5160" stroke-width="0.080" stroke-linecap="round" opacity="0.7"/><line x1="2.150" y1="2.150" x2="2.150" y2="1.850" stroke="#4a5160" stroke-width="0.080" stroke-linecap="round" opacity="0.7"/><line x1="2.150" y1="2.150" x2="3.650" y2="2.150" stroke="#4a5160" stroke-width="0.080" stroke-linecap="round" opacity="0.7"/><line x1="2.150" y1="2.350" x2="3.650" y2="2.350" stroke="#4a5160" stroke-width="0.080" stroke-linecap="round" opacity="0.7"/><line x1="2.150" y1="2.650" x2="2.150" y2="2.350" stroke="#4a5160" stroke-width="0.080" stroke-linecap="round" opacity="0.7"/><line x1="2.150" y1="2.650" x2="3.650" y2="2.650" stroke="#4a5160" stroke-width="0.080" stroke-linecap="round" opacity="0.7"/><line x1="2.150" y1="2.850" x2="3.650" y2="2.850" stroke="#4a5160" stroke-width="0.080" stroke-linecap="round" opacity="0.7"/><line x1="2.150" y1="3.150" x2="2.150" y2="2.850" stroke="#4a5160" stroke-width="0.080" stroke-linecap="round" opacity="0.7"/><line x1="2.150" y1="3.150" x2="3.650" y2="3.150" stroke="#4a5160" stroke-width="0.080" stroke-linecap="round" opacity="0.7"/><line x1="2.150" y1="3.350" x2="3.650" y2="3.350" stroke="#4a5160" stroke-width="0.080" stroke-linecap="round" opacity="0.7"/><line x1="2.150" y1="3.650" x2="2.150" y2="3.350" stroke="#4a5160" stroke-width="0.080" stroke-linecap="round" opacity="0.7"/><line x1="2.150" y1="3.650" x2="3.650" y2="3.650" stroke="#4a5160" stroke-width="0.080" stroke-linecap="round" opacity="0.7"/><line x1="2.150" y1="3.850" x2="3.650" y2="3.850" stroke="#4a5160" stroke-width="0.080" stroke-linecap="round" opacity="0.7"/><line x1="2.150" y1="4.150" x2="2.150" y2="3.850" stroke="#4a5160" stroke-width="0.080" stroke-linecap="round" opacity="0.7"/><line x1="2.150" y1="4.150" x2="3.650" y2="4.150" stroke="#4a5160" stroke-width="0.080" stroke-linecap="round" opacity="0.7"/><line x1="2.150" y1="4.350" x2="3.650" y2="4.350" stroke="#4a5160" stroke-width="0.080" stroke-linecap="round" opacity="0.7"/><line x1="2.150" y1="4.650" x2="2.150" y2="4.350" stroke="#4a5160" stroke-width="0.080" stroke-linecap="round" opacity="0.7"/><line x1="2.150" y1="4.650" x2="3.650" y2="4.650" stroke="#4a5160" stroke-width="0.080" stroke-linecap="round" opacity="0.7"/><line x1="2.900" y1="-4.500" x2="3.650" y2="-4.650" stroke="#4a5160" stroke-width="0.080" stroke-linecap="round" opacity="0.7"/><line x1="2.900" y1="-4.500" x2="3.650" y2="-4.350" stroke="#4a5160" stroke-width="0.080" stroke-linecap="round" opacity="0.7"/><line x1="2.900" y1="-4.000" x2="3.650" y2="-4.150" stroke="#4a5160" stroke-width="0.080" stroke-linecap="round" opacity="0.7"/><line x1="2.900" y1="-4.000" x2="3.650" y2="-3.850" stroke="#4a5160" stroke-width="0.080" stroke-linecap="round" opacity="0.7"/><line x1="2.900" y1="-3.500" x2="3.650" y2="-3.650" stroke="#4a5160" stroke-width="0.080" stroke-linecap="round" opacity="0.7"/><line x1="2.900" y1="-3.500" x2="3.650" y2="-3.350" stroke="#4a5160" stroke-width="0.080" stroke-linecap="round" opacity="0.7"/><line x1="2.900" y1="-3.000" x2="3.650" y2="-3.150" stroke="#4a5160" stroke-width="0.080" stroke-linecap="round" opacity="0.7"/><line x1="2.900" y1="-3.000" x2="3.650" y2="-2.850" stroke="#4a5160" stroke-width="0.080" stroke-linecap="round" opacity="0.7"/><line x1="2.900" y1="-2.500" x2="3.650" y2="-2.650" stroke="#4a5160" stroke-width="0.080" stroke-linecap="round" opacity="0.7"/><line x1="2.900" y1="-2.500" x2="3.650" y2="-2.350" stroke="#4a5160" stroke-width="0.080" stroke-linecap="round" opacity="0.7"/><line x1="2.900" y1="-2.000" x2="3.650" y2="-2.150" stroke="#4a5160" stroke-width="0.080" stroke-linecap="round" opacity="0.7"/><line x1="2.900" y1="-2.000" x2="3.650" y2="-1.850" stroke="#4a5160" stroke-width="0.080" stroke-linecap="round" opacity="0.7"/><line x1="2.900" y1="-1.500" x2="3.650" y2="-1.650" stroke="#4a5160" stroke-width="0.080" stroke-linecap="round" opacity="0.7"/><line x1="2.900" y1="-1.500" x2="3.650" y2="-1.350" stroke="#4a5160" stroke-width="0.080" stroke-linecap="round" opacity="0.7"/><line x1="2.900" y1="-1.000" x2="3.650" y2="-1.150" stroke="#4a5160" stroke-width="0.080" stroke-linecap="round" opacity="0.7"/><line x1="2.900" y1="-1.000" x2="3.650" y2="-0.850" stroke="#4a5160" stroke-width="0.080" stroke-linecap="round" opacity="0.7"/><line x1="2.900" y1="-0.500" x2="3.650" y2="-0.650" stroke="#4a5160" stroke-width="0.080" stroke-linecap="round" opacity="0.7"/><line x1="2.900" y1="-0.500" x2="3.650" y2="-0.350" stroke="#4a5160" stroke-width="0.080" stroke-linecap="round" opacity="0.7"/><line x1="2.900" y1="0.000" x2="3.650" y2="-0.150" stroke="#4a5160" stroke-width="0.080" stroke-linecap="round" opacity="0.7"/><line x1="2.900" y1="0.000" x2="3.650" y2="0.150" stroke="#4a5160" stroke-width="0.080" stroke-linecap="round" opacity="0.7"/><line x1="2.900" y1="0.500" x2="3.650" y2="0.350" stroke="#4a5160" stroke-width="0.080" stroke-linecap="round" opacity="0.7"/><line x1="2.900" y1="0.500" x2="3.650" y2="0.650" stroke="#4a5160" stroke-width="0.080" stroke-linecap="round" opacity="0.7"/><line x1="2.900" y1="1.000" x2="3.650" y2="0.850" stroke="#4a5160" stroke-width="0.080" stroke-linecap="round" opacity="0.7"/><line x1="2.900" y1="1.000" x2="3.650" y2="1.150" stroke="#4a5160" stroke-width="0.080" stroke-linecap="round" opacity="0.7"/><line x1="2.900" y1="1.500" x2="3.650" y2="1.350" stroke="#4a5160" stroke-width="0.080" stroke-linecap="round" opacity="0.7"/><line x1="2.900" y1="1.500" x2="3.650" y2="1.650" stroke="#4a5160" stroke-width="0.080" stroke-linecap="round" opacity="0.7"/><line x1="2.900" y1="2.000" x2="3.650" y2="1.850" stroke="#4a5160" stroke-width="0.080" stroke-linecap="round" opacity="0.7"/><line x1="2.900" y1="2.000" x2="3.650" y2="2.150" stroke="#4a5160" stroke-width="0.080" stroke-linecap="round" opacity="0.7"/><line x1="2.900" y1="2.500" x2="3.650" y2="2.350" stroke="#4a5160" stroke-width="0.080" stroke-linecap="round" opacity="0.7"/><line x1="2.900" y1="2.500" x2="3.650" y2="2.650" stroke="#4a5160" stroke-width="0.080" stroke-linecap="round" opacity="0.7"/><line x1="2.900" y1="3.000" x2="3.650" y2="2.850" stroke="#4a5160" stroke-width="0.080" stroke-linecap="round" opacity="0.7"/><line x1="2.900" y1="3.000" x2="3.650" y2="3.150" stroke="#4a5160" stroke-width="0.080" stroke-linecap="round" opacity="0.7"/><line x1="2.900" y1="3.500" x2="3.650" y2="3.350" stroke="#4a5160" stroke-width="0.080" stroke-linecap="round" opacity="0.7"/><line x1="2.900" y1="3.500" x2="3.650" y2="3.650" stroke="#4a5160" stroke-width="0.080" stroke-linecap="round" opacity="0.7"/><line x1="2.900" y1="4.000" x2="3.650" y2="3.850" stroke="#4a5160" stroke-width="0.080" stroke-linecap="round" opacity="0.7"/><line x1="2.900" y1="4.000" x2="3.650" y2="4.150" stroke="#4a5160" stroke-width="0.080" stroke-linecap="round" opacity="0.7"/><line x1="2.900" y1="4.500" x2="3.650" y2="4.350" stroke="#4a5160" stroke-width="0.080" stroke-linecap="round" opacity="0.7"/><line x1="2.900" y1="4.500" x2="3.650" y2="4.650" stroke="#4a5160" stroke-width="0.080" stroke-linecap="round" opacity="0.7"/><line x1="3.650" y1="-4.350" x2="3.650" y2="-4.650" stroke="#4a5160" stroke-width="0.080" stroke-linecap="round" opacity="0.7"/><line x1="3.650" y1="-3.850" x2="3.650" y2="-4.150" stroke="#4a5160" stroke-width="0.080" stroke-linecap="round" opacity="0.7"/><line x1="3.650" y1="-3.350" x2="3.650" y2="-3.650" stroke="#4a5160" stroke-width="0.080" stroke-linecap="round" opacity="0.7"/><line x1="3.650" y1="-2.850" x2="3.650" y2="-3.150" stroke="#4a5160" stroke-width="0.080" stroke-linecap="round" opacity="0.7"/><line x1="3.650" y1="-2.350" x2="3.650" y2="-2.650" stroke="#4a5160" stroke-width="0.080" stroke-linecap="round" opacity="0.7"/><line x1="3.650" y1="-1.850" x2="3.650" y2="-2.150" stroke="#4a5160" stroke-width="0.080" stroke-linecap="round" opacity="0.7"/><line x1="3.650" y1="-1.350" x2="3.650" y2="-1.650" stroke="#4a5160" stroke-width="0.080" stroke-linecap="round" opacity="0.7"/><line x1="3.650" y1="-0.850" x2="3.650" y2="-1.150" stroke="#4a5160" stroke-width="0.080" stroke-linecap="round" opacity="0.7"/><line x1="3.650" y1="-0.350" x2="3.650" y2="-0.650" stroke="#4a5160" stroke-width="0.080" stroke-linecap="round" opacity="0.7"/><line x1="3.650" y1="0.150" x2="3.650" y2="-0.150" stroke="#4a5160" stroke-width="0.080" stroke-linecap="round" opacity="0.7"/><line x1="3.650" y1="0.650" x2="3.650" y2="0.350" stroke="#4a5160" stroke-width="0.080" stroke-linecap="round" opacity="0.7"/><line x1="3.650" y1="1.150" x2="3.650" y2="0.850" stroke="#4a5160" stroke-width="0.080" stroke-linecap="round" opacity="0.7"/><line x1="3.650" y1="1.650" x2="3.650" y2="1.350" stroke="#4a5160" stroke-width="0.080" stroke-linecap="round" opacity="0.7"/><line x1="3.650" y1="2.150" x2="3.650" y2="1.850" stroke="#4a5160" stroke-width="0.080" stroke-linecap="round" opacity="0.7"/><line x1="3.650" y1="2.650" x2="3.650" y2="2.350" stroke="#4a5160" stroke-width="0.080" stroke-linecap="round" opacity="0.7"/><line x1="3.650" y1="3.150" x2="3.650" y2="2.850" stroke="#4a5160" stroke-width="0.080" stroke-linecap="round" opacity="0.7"/><line x1="3.650" y1="3.650" x2="3.650" y2="3.350" stroke="#4a5160" stroke-width="0.080" stroke-linecap="round" opacity="0.7"/><line x1="3.650" y1="4.150" x2="3.650" y2="3.850" stroke="#4a5160" stroke-width="0.080" stroke-linecap="round" opacity="0.7"/><line x1="3.650" y1="4.650" x2="3.650" y2="4.350" stroke="#4a5160" stroke-width="0.080" stroke-linecap="round" opacity="0.7"/><line x1="-3.900" y1="-5.150" x2="3.900" y2="-5.150" stroke="#d24d4d" stroke-width="0.080" stroke-linecap="round" opacity="0.7"/><line x1="-3.900" y1="5.150" x2="-3.900" y2="-5.150" stroke="#d24d4d" stroke-width="0.080" stroke-linecap="round" opacity="0.7"/><line x1="-3.900" y1="5.150" x2="3.900" y2="5.150" stroke="#d24d4d" stroke-width="0.080" stroke-linecap="round" opacity="0.7"/><line x1="3.900" y1="5.150" x2="3.900" y2="-5.150" stroke="#d24d4d" stroke-width="0.080" stroke-linecap="round" opacity="0.7"/><line x1="-3.320" y1="-4.635" x2="-2.250" y2="-4.635" stroke="#6b7280" stroke-width="0.100" stroke-linecap="round" opacity="0.8"/><line x1="-3.320" y1="-4.365" x2="-3.320" y2="-4.635" stroke="#6b7280" stroke-width="0.100" stroke-linecap="round" opacity="0.8"/><line x1="-3.320" y1="-4.365" x2="-2.250" y2="-4.365" stroke="#6b7280" stroke-width="0.100" stroke-linecap="round" opacity="0.8"/><line x1="-3.320" y1="-4.135" x2="-2.250" y2="-4.135" stroke="#6b7280" stroke-width="0.100" stroke-linecap="round" opacity="0.8"/><line x1="-3.320" y1="-3.865" x2="-3.320" y2="-4.135" stroke="#6b7280" stroke-width="0.100" stroke-linecap="round" opacity="0.8"/><line x1="-3.320" y1="-3.865" x2="-2.250" y2="-3.865" stroke="#6b7280" stroke-width="0.100" stroke-linecap="round" opacity="0.8"/><line x1="-3.320" y1="-3.635" x2="-2.250" y2="-3.635" stroke="#6b7280" stroke-width="0.100" stroke-linecap="round" opacity="0.8"/><line x1="-3.320" y1="-3.365" x2="-3.320" y2="-3.635" stroke="#6b7280" stroke-width="0.100" stroke-linecap="round" opacity="0.8"/><line x1="-3.320" y1="-3.365" x2="-2.250" y2="-3.365" stroke="#6b7280" stroke-width="0.100" stroke-linecap="round" opacity="0.8"/><line x1="-3.320" y1="-3.135" x2="-2.250" y2="-3.135" stroke="#6b7280" stroke-width="0.100" stroke-linecap="round" opacity="0.8"/><line x1="-3.320" y1="-2.865" x2="-3.320" y2="-3.135" stroke="#6b7280" stroke-width="0.100" stroke-linecap="round" opacity="0.8"/><line x1="-3.320" y1="-2.865" x2="-2.250" y2="-2.865" stroke="#6b7280" stroke-width="0.100" stroke-linecap="round" opacity="0.8"/><line x1="-3.320" y1="-2.635" x2="-2.250" y2="-2.635" stroke="#6b7280" stroke-width="0.100" stroke-linecap="round" opacity="0.8"/><line x1="-3.320" y1="-2.365" x2="-3.320" y2="-2.635" stroke="#6b7280" stroke-width="0.100" stroke-linecap="round" opacity="0.8"/><line x1="-3.320" y1="-2.365" x2="-2.250" y2="-2.365" stroke="#6b7280" stroke-width="0.100" stroke-linecap="round" opacity="0.8"/><line x1="-3.320" y1="-2.135" x2="-2.250" y2="-2.135" stroke="#6b7280" stroke-width="0.100" stroke-linecap="round" opacity="0.8"/><line x1="-3.320" y1="-1.865" x2="-3.320" y2="-2.135" stroke="#6b7280" stroke-width="0.100" stroke-linecap="round" opacity="0.8"/><line x1="-3.320" y1="-1.865" x2="-2.250" y2="-1.865" stroke="#6b7280" stroke-width="0.100" stroke-linecap="round" opacity="0.8"/><line x1="-3.320" y1="-1.635" x2="-2.250" y2="-1.635" stroke="#6b7280" stroke-width="0.100" stroke-linecap="round" opacity="0.8"/><line x1="-3.320" y1="-1.365" x2="-3.320" y2="-1.635" stroke="#6b7280" stroke-width="0.100" stroke-linecap="round" opacity="0.8"/><line x1="-3.320" y1="-1.365" x2="-2.250" y2="-1.365" stroke="#6b7280" stroke-width="0.100" stroke-linecap="round" opacity="0.8"/><line x1="-3.320" y1="-1.135" x2="-2.250" y2="-1.135" stroke="#6b7280" stroke-width="0.100" stroke-linecap="round" opacity="0.8"/><line x1="-3.320" y1="-0.865" x2="-3.320" y2="-1.135" stroke="#6b7280" stroke-width="0.100" stroke-linecap="round" opacity="0.8"/><line x1="-3.320" y1="-0.865" x2="-2.250" y2="-0.865" stroke="#6b7280" stroke-width="0.100" stroke-linecap="round" opacity="0.8"/><line x1="-3.320" y1="-0.635" x2="-2.250" y2="-0.635" stroke="#6b7280" stroke-width="0.100" stroke-linecap="round" opacity="0.8"/><line x1="-3.320" y1="-0.365" x2="-3.320" y2="-0.635" stroke="#6b7280" stroke-width="0.100" stroke-linecap="round" opacity="0.8"/><line x1="-3.320" y1="-0.365" x2="-2.250" y2="-0.365" stroke="#6b7280" stroke-width="0.100" stroke-linecap="round" opacity="0.8"/><line x1="-3.320" y1="-0.135" x2="-2.250" y2="-0.135" stroke="#6b7280" stroke-width="0.100" stroke-linecap="round" opacity="0.8"/><line x1="-3.320" y1="0.135" x2="-3.320" y2="-0.135" stroke="#6b7280" stroke-width="0.100" stroke-linecap="round" opacity="0.8"/><line x1="-3.320" y1="0.135" x2="-2.250" y2="0.135" stroke="#6b7280" stroke-width="0.100" stroke-linecap="round" opacity="0.8"/><line x1="-3.320" y1="0.365" x2="-2.250" y2="0.365" stroke="#6b7280" stroke-width="0.100" stroke-linecap="round" opacity="0.8"/><line x1="-3.320" y1="0.635" x2="-3.320" y2="0.365" stroke="#6b7280" stroke-width="0.100" stroke-linecap="round" opacity="0.8"/><line x1="-3.320" y1="0.635" x2="-2.250" y2="0.635" stroke="#6b7280" stroke-width="0.100" stroke-linecap="round" opacity="0.8"/><line x1="-3.320" y1="0.865" x2="-2.250" y2="0.865" stroke="#6b7280" stroke-width="0.100" stroke-linecap="round" opacity="0.8"/><line x1="-3.320" y1="1.135" x2="-3.320" y2="0.865" stroke="#6b7280" stroke-width="0.100" stroke-linecap="round" opacity="0.8"/><line x1="-3.320" y1="1.135" x2="-2.250" y2="1.135" stroke="#6b7280" stroke-width="0.100" stroke-linecap="round" opacity="0.8"/><line x1="-3.320" y1="1.365" x2="-2.250" y2="1.365" stroke="#6b7280" stroke-width="0.100" stroke-linecap="round" opacity="0.8"/><line x1="-3.320" y1="1.635" x2="-3.320" y2="1.365" stroke="#6b7280" stroke-width="0.100" stroke-linecap="round" opacity="0.8"/><line x1="-3.320" y1="1.635" x2="-2.250" y2="1.635" stroke="#6b7280" stroke-width="0.100" stroke-linecap="round" opacity="0.8"/><line x1="-3.320" y1="1.865" x2="-2.250" y2="1.865" stroke="#6b7280" stroke-width="0.100" stroke-linecap="round" opacity="0.8"/><line x1="-3.320" y1="2.135" x2="-3.320" y2="1.865" stroke="#6b7280" stroke-width="0.100" stroke-linecap="round" opacity="0.8"/><line x1="-3.320" y1="2.135" x2="-2.250" y2="2.135" stroke="#6b7280" stroke-width="0.100" stroke-linecap="round" opacity="0.8"/><line x1="-3.320" y1="2.365" x2="-2.250" y2="2.365" stroke="#6b7280" stroke-width="0.100" stroke-linecap="round" opacity="0.8"/><line x1="-3.320" y1="2.635" x2="-3.320" y2="2.365" stroke="#6b7280" stroke-width="0.100" stroke-linecap="round" opacity="0.8"/><line x1="-3.320" y1="2.635" x2="-2.250" y2="2.635" stroke="#6b7280" stroke-width="0.100" stroke-linecap="round" opacity="0.8"/><line x1="-3.320" y1="2.865" x2="-2.250" y2="2.865" stroke="#6b7280" stroke-width="0.100" stroke-linecap="round" opacity="0.8"/><line x1="-3.320" y1="3.135" x2="-3.320" y2="2.865" stroke="#6b7280" stroke-width="0.100" stroke-linecap="round" opacity="0.8"/><line x1="-3.320" y1="3.135" x2="-2.250" y2="3.135" stroke="#6b7280" stroke-width="0.100" stroke-linecap="round" opacity="0.8"/><line x1="-3.320" y1="3.365" x2="-2.250" y2="3.365" stroke="#6b7280" stroke-width="0.100" stroke-linecap="round" opacity="0.8"/><line x1="-3.320" y1="3.635" x2="-3.320" y2="3.365" stroke="#6b7280" stroke-width="0.100" stroke-linecap="round" opacity="0.8"/><line x1="-3.320" y1="3.635" x2="-2.250" y2="3.635" stroke="#6b7280" stroke-width="0.100" stroke-linecap="round" opacity="0.8"/><line x1="-3.320" y1="3.865" x2="-2.250" y2="3.865" stroke="#6b7280" stroke-width="0.100" stroke-linecap="round" opacity="0.8"/><line x1="-3.320" y1="4.135" x2="-3.320" y2="3.865" stroke="#6b7280" stroke-width="0.100" stroke-linecap="round" opacity="0.8"/><line x1="-3.320" y1="4.135" x2="-2.250" y2="4.135" stroke="#6b7280" stroke-width="0.100" stroke-linecap="round" opacity="0.8"/><line x1="-3.320" y1="4.365" x2="-2.250" y2="4.365" stroke="#6b7280" stroke-width="0.100" stroke-linecap="round" opacity="0.8"/><line x1="-3.320" y1="4.635" x2="-3.320" y2="4.365" stroke="#6b7280" stroke-width="0.100" stroke-linecap="round" opacity="0.8"/><line x1="-3.320" y1="4.635" x2="-2.250" y2="4.635" stroke="#6b7280" stroke-width="0.100" stroke-linecap="round" opacity="0.8"/><line x1="-2.250" y1="-4.900" x2="2.250" y2="-4.900" stroke="#6b7280" stroke-width="0.100" stroke-linecap="round" opacity="0.8"/><line x1="-2.250" y1="4.900" x2="-2.250" y2="-4.900" stroke="#6b7280" stroke-width="0.100" stroke-linecap="round" opacity="0.8"/><line x1="-2.250" y1="4.900" x2="2.250" y2="4.900" stroke="#6b7280" stroke-width="0.100" stroke-linecap="round" opacity="0.8"/><line x1="2.250" y1="-4.635" x2="3.320" y2="-4.635" stroke="#6b7280" stroke-width="0.100" stroke-linecap="round" opacity="0.8"/><line x1="2.250" y1="-4.365" x2="3.320" y2="-4.365" stroke="#6b7280" stroke-width="0.100" stroke-linecap="round" opacity="0.8"/><line x1="2.250" y1="-4.135" x2="3.320" y2="-4.135" stroke="#6b7280" stroke-width="0.100" stroke-linecap="round" opacity="0.8"/><line x1="2.250" y1="-3.865" x2="3.320" y2="-3.865" stroke="#6b7280" stroke-width="0.100" stroke-linecap="round" opacity="0.8"/><line x1="2.250" y1="-3.635" x2="3.320" y2="-3.635" stroke="#6b7280" stroke-width="0.100" stroke-linecap="round" opacity="0.8"/><line x1="2.250" y1="-3.365" x2="3.320" y2="-3.365" stroke="#6b7280" stroke-width="0.100" stroke-linecap="round" opacity="0.8"/><line x1="2.250" y1="-3.135" x2="3.320" y2="-3.135" stroke="#6b7280" stroke-width="0.100" stroke-linecap="round" opacity="0.8"/><line x1="2.250" y1="-2.865" x2="3.320" y2="-2.865" stroke="#6b7280" stroke-width="0.100" stroke-linecap="round" opacity="0.8"/><line x1="2.250" y1="-2.635" x2="3.320" y2="-2.635" stroke="#6b7280" stroke-width="0.100" stroke-linecap="round" opacity="0.8"/><line x1="2.250" y1="-2.365" x2="3.320" y2="-2.365" stroke="#6b7280" stroke-width="0.100" stroke-linecap="round" opacity="0.8"/><line x1="2.250" y1="-2.135" x2="3.320" y2="-2.135" stroke="#6b7280" stroke-width="0.100" stroke-linecap="round" opacity="0.8"/><line x1="2.250" y1="-1.865" x2="3.320" y2="-1.865" stroke="#6b7280" stroke-width="0.100" stroke-linecap="round" opacity="0.8"/><line x1="2.250" y1="-1.635" x2="3.320" y2="-1.635" stroke="#6b7280" stroke-width="0.100" stroke-linecap="round" opacity="0.8"/><line x1="2.250" y1="-1.365" x2="3.320" y2="-1.365" stroke="#6b7280" stroke-width="0.100" stroke-linecap="round" opacity="0.8"/><line x1="2.250" y1="-1.135" x2="3.320" y2="-1.135" stroke="#6b7280" stroke-width="0.100" stroke-linecap="round" opacity="0.8"/><line x1="2.250" y1="-0.865" x2="3.320" y2="-0.865" stroke="#6b7280" stroke-width="0.100" stroke-linecap="round" opacity="0.8"/><line x1="2.250" y1="-0.635" x2="3.320" y2="-0.635" stroke="#6b7280" stroke-width="0.100" stroke-linecap="round" opacity="0.8"/><line x1="2.250" y1="-0.365" x2="3.320" y2="-0.365" stroke="#6b7280" stroke-width="0.100" stroke-linecap="round" opacity="0.8"/><line x1="2.250" y1="-0.135" x2="3.320" y2="-0.135" stroke="#6b7280" stroke-width="0.100" stroke-linecap="round" opacity="0.8"/><line x1="2.250" y1="0.135" x2="3.320" y2="0.135" stroke="#6b7280" stroke-width="0.100" stroke-linecap="round" opacity="0.8"/><line x1="2.250" y1="0.365" x2="3.320" y2="0.365" stroke="#6b7280" stroke-width="0.100" stroke-linecap="round" opacity="0.8"/><line x1="2.250" y1="0.635" x2="3.320" y2="0.635" stroke="#6b7280" stroke-width="0.100" stroke-linecap="round" opacity="0.8"/><line x1="2.250" y1="0.865" x2="3.320" y2="0.865" stroke="#6b7280" stroke-width="0.100" stroke-linecap="round" opacity="0.8"/><line x1="2.250" y1="1.135" x2="3.320" y2="1.135" stroke="#6b7280" stroke-width="0.100" stroke-linecap="round" opacity="0.8"/><line x1="2.250" y1="1.365" x2="3.320" y2="1.365" stroke="#6b7280" stroke-width="0.100" stroke-linecap="round" opacity="0.8"/><line x1="2.250" y1="1.635" x2="3.320" y2="1.635" stroke="#6b7280" stroke-width="0.100" stroke-linecap="round" opacity="0.8"/><line x1="2.250" y1="1.865" x2="3.320" y2="1.865" stroke="#6b7280" stroke-width="0.100" stroke-linecap="round" opacity="0.8"/><line x1="2.250" y1="2.135" x2="3.320" y2="2.135" stroke="#6b7280" stroke-width="0.100" stroke-linecap="round" opacity="0.8"/><line x1="2.250" y1="2.365" x2="3.320" y2="2.365" stroke="#6b7280" stroke-width="0.100" stroke-linecap="round" opacity="0.8"/><line x1="2.250" y1="2.635" x2="3.320" y2="2.635" stroke="#6b7280" stroke-width="0.100" stroke-linecap="round" opacity="0.8"/><line x1="2.250" y1="2.865" x2="3.320" y2="2.865" stroke="#6b7280" stroke-width="0.100" stroke-linecap="round" opacity="0.8"/><line x1="2.250" y1="3.135" x2="3.320" y2="3.135" stroke="#6b7280" stroke-width="0.100" stroke-linecap="round" opacity="0.8"/><line x1="2.250" y1="3.365" x2="3.320" y2="3.365" stroke="#6b7280" stroke-width="0.100" stroke-linecap="round" opacity="0.8"/><line x1="2.250" y1="3.635" x2="3.320" y2="3.635" stroke="#6b7280" stroke-width="0.100" stroke-linecap="round" opacity="0.8"/><line x1="2.250" y1="3.865" x2="3.320" y2="3.865" stroke="#6b7280" stroke-width="0.100" stroke-linecap="round" opacity="0.8"/><line x1="2.250" y1="4.135" x2="3.320" y2="4.135" stroke="#6b7280" stroke-width="0.100" stroke-linecap="round" opacity="0.8"/><line x1="2.250" y1="4.365" x2="3.320" y2="4.365" stroke="#6b7280" stroke-width="0.100" stroke-linecap="round" opacity="0.8"/><line x1="2.250" y1="4.635" x2="3.320" y2="4.635" stroke="#6b7280" stroke-width="0.100" stroke-linecap="round" opacity="0.8"/><line x1="2.250" y1="4.900" x2="2.250" y2="-4.900" stroke="#6b7280" stroke-width="0.100" stroke-linecap="round" opacity="0.8"/><line x1="3.320" y1="-4.365" x2="3.320" y2="-4.635" stroke="#6b7280" stroke-width="0.100" stroke-linecap="round" opacity="0.8"/><line x1="3.320" y1="-3.865" x2="3.320" y2="-4.135" stroke="#6b7280" stroke-width="0.100" stroke-linecap="round" opacity="0.8"/><line x1="3.320" y1="-3.365" x2="3.320" y2="-3.635" stroke="#6b7280" stroke-width="0.100" stroke-linecap="round" opacity="0.8"/><line x1="3.320" y1="-2.865" x2="3.320" y2="-3.135" stroke="#6b7280" stroke-width="0.100" stroke-linecap="round" opacity="0.8"/><line x1="3.320" y1="-2.365" x2="3.320" y2="-2.635" stroke="#6b7280" stroke-width="0.100" stroke-linecap="round" opacity="0.8"/><line x1="3.320" y1="-1.865" x2="3.320" y2="-2.135" stroke="#6b7280" stroke-width="0.100" stroke-linecap="round" opacity="0.8"/><line x1="3.320" y1="-1.365" x2="3.320" y2="-1.635" stroke="#6b7280" stroke-width="0.100" stroke-linecap="round" opacity="0.8"/><line x1="3.320" y1="-0.865" x2="3.320" y2="-1.135" stroke="#6b7280" stroke-width="0.100" stroke-linecap="round" opacity="0.8"/><line x1="3.320" y1="-0.365" x2="3.320" y2="-0.635" stroke="#6b7280" stroke-width="0.100" stroke-linecap="round" opacity="0.8"/><line x1="3.320" y1="0.135" x2="3.320" y2="-0.135" stroke="#6b7280" stroke-width="0.100" stroke-linecap="round" opacity="0.8"/><line x1="3.320" y1="0.635" x2="3.320" y2="0.365" stroke="#6b7280" stroke-width="0.100" stroke-linecap="round" opacity="0.8"/><line x1="3.320" y1="1.135" x2="3.320" y2="0.865" stroke="#6b7280" stroke-width="0.100" stroke-linecap="round" opacity="0.8"/><line x1="3.320" y1="1.635" x2="3.320" y2="1.365" stroke="#6b7280" stroke-width="0.100" stroke-linecap="round" opacity="0.8"/><line x1="3.320" y1="2.135" x2="3.320" y2="1.865" stroke="#6b7280" stroke-width="0.100" stroke-linecap="round" opacity="0.8"/><line x1="3.320" y1="2.635" x2="3.320" y2="2.365" stroke="#6b7280" stroke-width="0.100" stroke-linecap="round" opacity="0.8"/><line x1="3.320" y1="3.135" x2="3.320" y2="2.865" stroke="#6b7280" stroke-width="0.100" stroke-linecap="round" opacity="0.8"/><line x1="3.320" y1="3.635" x2="3.320" y2="3.365" stroke="#6b7280" stroke-width="0.100" stroke-linecap="round" opacity="0.8"/><line x1="3.320" y1="4.135" x2="3.320" y2="3.865" stroke="#6b7280" stroke-width="0.100" stroke-linecap="round" opacity="0.8"/><line x1="3.320" y1="4.635" x2="3.320" y2="4.365" stroke="#6b7280" stroke-width="0.100" stroke-linecap="round" opacity="0.8"/><circle cx="-3.400" cy="-5.150" r="0.150" fill="#e6e9ef" opacity="1"/><circle cx="-0.825" cy="-3.850" r="0.250" fill="#e6e9ef" opacity="1"/><circle cx="-1.450" cy="-4.100" r="0.400" fill="none" stroke="#6b7280" stroke-width="0.12" opacity="0.8"/><rect x="-3.650" y="-4.650" width="1.500" height="0.300" rx="0.000" fill="#c79b5c"/><rect x="-3.650" y="-4.150" width="1.500" height="0.300" rx="0.000" fill="#c79b5c"/><rect x="-3.650" y="-3.650" width="1.500" height="0.300" rx="0.000" fill="#c79b5c"/><rect x="-3.650" y="-3.150" width="1.500" height="0.300" rx="0.000" fill="#c79b5c"/><rect x="-3.650" y="-2.650" width="1.500" height="0.300" rx="0.000" fill="#c79b5c"/><rect x="-3.650" y="-2.150" width="1.500" height="0.300" rx="0.000" fill="#c79b5c"/><rect x="-3.650" y="-1.650" width="1.500" height="0.300" rx="0.000" fill="#c79b5c"/><rect x="-3.650" y="-1.150" width="1.500" height="0.300" rx="0.000" fill="#c79b5c"/><rect x="-3.650" y="-0.650" width="1.500" height="0.300" rx="0.000" fill="#c79b5c"/><rect x="-3.650" y="-0.150" width="1.500" height="0.300" rx="0.000" fill="#c79b5c"/><rect x="-3.650" y="0.350" width="1.500" height="0.300" rx="0.000" fill="#c79b5c"/><rect x="-3.650" y="0.850" width="1.500" height="0.300" rx="0.000" fill="#c79b5c"/><rect x="-3.650" y="1.350" width="1.500" height="0.300" rx="0.000" fill="#c79b5c"/><rect x="-3.650" y="1.850" width="1.500" height="0.300" rx="0.000" fill="#c79b5c"/><rect x="-3.650" y="2.350" width="1.500" height="0.300" rx="0.000" fill="#c79b5c"/><rect x="-3.650" y="2.850" width="1.500" height="0.300" rx="0.000" fill="#c79b5c"/><rect x="-3.650" y="3.350" width="1.500" height="0.300" rx="0.000" fill="#c79b5c"/><rect x="-3.650" y="3.850" width="1.500" height="0.300" rx="0.000" fill="#c79b5c"/><rect x="-3.650" y="4.350" width="1.500" height="0.300" rx="0.000" fill="#c79b5c"/><rect x="2.150" y="4.350" width="1.500" height="0.300" rx="0.000" fill="#c79b5c"/><rect x="2.150" y="3.850" width="1.500" height="0.300" rx="0.000" fill="#c79b5c"/><rect x="2.150" y="3.350" width="1.500" height="0.300" rx="0.000" fill="#c79b5c"/><rect x="2.150" y="2.850" width="1.500" height="0.300" rx="0.000" fill="#c79b5c"/><rect x="2.150" y="2.350" width="1.500" height="0.300" rx="0.000" fill="#c79b5c"/><rect x="2.150" y="1.850" width="1.500" height="0.300" rx="0.000" fill="#c79b5c"/><rect x="2.150" y="1.350" width="1.500" height="0.300" rx="0.000" fill="#c79b5c"/><rect x="2.150" y="0.850" width="1.500" height="0.300" rx="0.000" fill="#c79b5c"/><rect x="2.150" y="0.350" width="1.500" height="0.300" rx="0.000" fill="#c79b5c"/><rect x="2.150" y="-0.150" width="1.500" height="0.300" rx="0.000" fill="#c79b5c"/><rect x="2.150" y="-0.650" width="1.500" height="0.300" rx="0.000" fill="#c79b5c"/><rect x="2.150" y="-1.150" width="1.500" height="0.300" rx="0.000" fill="#c79b5c"/><rect x="2.150" y="-1.650" width="1.500" height="0.300" rx="0.000" fill="#c79b5c"/><rect x="2.150" y="-2.150" width="1.500" height="0.300" rx="0.000" fill="#c79b5c"/><rect x="2.150" y="-2.650" width="1.500" height="0.300" rx="0.000" fill="#c79b5c"/><rect x="2.150" y="-3.150" width="1.500" height="0.300" rx="0.000" fill="#c79b5c"/><rect x="2.150" y="-3.650" width="1.500" height="0.300" rx="0.000" fill="#c79b5c"/><rect x="2.150" y="-4.150" width="1.500" height="0.300" rx="0.000" fill="#c79b5c"/><rect x="2.150" y="-4.650" width="1.500" height="0.300" rx="0.000" fill="#c79b5c"/><rect x="-1.375" y="-2.375" width="2.750" height="4.750" rx="0.000" fill="#c79b5c"/></svg>