<svg xmlns="http://www.w3.org/2000/svg" viewBox="-33.25 -4.29 66.50 8.02" preserveAspectRatio="xMidYMid meet" style="width:100%;height:100%"><rect x="-33.25" y="-4.29" width="66.50" height="8.02" fill="#12151c"/><line x1="-32.250" y1="-2.730" x2="32.250" y2="-2.730" stroke="#d24d4d" stroke-width="0.080" stroke-linecap="round" opacity="0.7"/><line x1="32.250" y1="-2.730" x2="32.250" y2="2.730" stroke="#d24d4d" stroke-width="0.080" stroke-linecap="round" opacity="0.7"/><line x1="32.250" y1="2.730" x2="-32.250" y2="2.730" stroke="#d24d4d" stroke-width="0.080" stroke-linecap="round" opacity="0.7"/><line x1="-32.250" y1="2.730" x2="-32.250" y2="-2.730" stroke="#d24d4d" stroke-width="0.080" stroke-linecap="round" opacity="0.7"/><circle cx="-30.515" cy="-3.135" r="0.150" fill="none" stroke="#e6e9ef" stroke-width="0.12" opacity="1"/><circle cx="-30.515" cy="-3.135" r="0.150" fill="none" stroke="#6b7280" stroke-width="0.12" opacity="0.8"/><rect x="-31.430" y="-2.220" width="1.900" height="1.900" rx="0.950" fill="#c79b5c"/><circle cx="-30.480" cy="-1.270" r="0.600" fill="#12151c"/><rect x="-31.430" y="0.320" width="1.900" height="1.900" rx="0.950" fill="#c79b5c"/><circle cx="-30.480" cy="1.270" r="0.600" fill="#12151c"/><rect x="-28.890" y="-2.220" width="1.900" height="1.900" rx="0.950" fill="#c79b5c"/><circle cx="-27.940" cy="-1.270" r="0.600" fill="#12151c"/><rect x="-28.890" y="0.320" width="1.900" height="1.900" rx="0.950" fill="#c79b5c"/><circle cx="-27.940" cy="1.270" r="0.600" fill="#12151c"/><rect x="-26.350" y="-2.220" width="1.900" height="1.900" rx="0.950" fill="#c79b5c"/><circle cx="-25.400" cy="-1.270" r="0.600" fill="#12151c"/><rect x="-26.350" y="0.320" width="1.900" height="1.900" rx="0.950" fill="#c79b5c"/><circle cx="-25.400" cy="1.270" r="0.600" fill="#12151c"/><rect x="-23.810" y="-2.220" width="1.900" height="1.900" rx="0.950" fill="#c79b5c"/><circle cx="-22.860" cy="-1.270" r="0.600" fill="#12151c"/><rect x="-23.810" y="0.320" width="1.900" height="1.900" rx="0.950" fill="#c79b5c"/><circle cx="-22.860" cy="1.270" r="0.600" fill="#12151c"/><rect x="-21.270" y="-2.220" width="1.900" height="1.900" rx="0.950" fill="#c79b5c"/><circle cx="-20.320" cy="-1.270" r="0.600" fill="#12151c"/><rect x="-21.270" y="0.320" width="1.900" height="1.900" rx="0.950" fill="#c79b5c"/><circle cx="-20.320" cy="1.270" r="0.600" fill="#12151c"/><rect x="-18.730" y="-2.220" width="1.900" height="1.900" rx="0.950" fill="#c79b5c"/><circle cx="-17.780" cy="-1.270" r="0.600" fill="#12151c"/><rect x="-18.730" y="0.320" width="1.900" height="1.900" rx="0.950" fill="#c79b5c"/><circle cx="-17.780" cy="1.270" r="0.600" fill="#12151c"/><rect x="-16.190" y="-2.220" width="1.900" height="1.900" rx="0.950" fill="#c79b5c"/><circle cx="-15.240" cy="-1.270" r="0.600" fill="#12151c"/><rect x="-16.190" y="0.320" width="1.900" height="1.900" rx="0.950" fill="#c79b5c"/><circle cx="-15.240" cy="1.270" r="0.600" fill="#12151c"/><rect x="-13.650" y="-2.220" width="1.900" height="1.900" rx="0.950" fill="#c79b5c"/><circle cx="-12.700" cy="-1.270" r="0.600" fill="#12151c"/><rect x="-13.650" y="0.320" width="1.900" height="1.900" rx="0.950" fill="#c79b5c"/><circle cx="-12.700" cy="1.270" r="0.600" fill="#12151c"/><rect x="-11.110" y="-2.220" width="1.900" height="1.900" rx="0.950" fill="#c79b5c"/><circle cx="-10.160" cy="-1.270" r="0.600" fill="#12151c"/><rect x="-11.110" y="0.320" width="1.900" height="1.900" rx="0.950" fill="#c79b5c"/><circle cx="-10.160" cy="1.270" r="0.600" fill="#12151c"/><rect x="-8.570" y="-2.220" width="1.900" height="1.900" rx="0.950" fill="#c79b5c"/><circle cx="-7.620" cy="-1.270" r="0.600" fill="#12151c"/><rect x="-8.570" y="0.320" width="1.900" height="1.900" rx="0.950" fill="#c79b5c"/><circle cx="-7.620" cy="1.270" r="0.600" fill="#12151c"/><rect x="-6.030" y="-2.220" width="1.900" height="1.900" rx="0.950" fill="#c79b5c"/><circle cx="-5.080" cy="-1.270" r="0.600" fill="#12151c"/><rect x="-6.030" y="0.320" width="1.900" height="1.900" rx="0.950" fill="#c79b5c"/><circle cx="-5.080" cy="1.270" r="0.600" fill="#12151c"/><rect x="-3.490" y="-2.220" width="1.900" height="1.900" rx="0.950" fill="#c79b5c"/><circle cx="-2.540" cy="-1.270" r="0.600" fill="#12151c"/><rect x="-3.490" y="0.320" width="1.900" height="1.900" rx="0.950" fill="#c79b5c"/><circle cx="-2.540" cy="1.270" r="0.600" fill="#12151c"/><rect x="-0.950" y="-2.220" width="1.900" height="1.900" rx="0.950" fill="#c79b5c"/><circle cx="0.000" cy="-1.270" r="0.600" fill="#12151c"/><rect x="-0.950" y="0.320" width="1.900" height="1.900" rx="0.950" fill="#c79b5c"/><circle cx="0.000" cy="1.270" r="0.600" fill="#12151c"/><rect x="1.590" y="-2.220" width="1.900" height="1.900" rx="0.950" fill="#c79b5c"/><circle cx="2.540" cy="-1.270" r="0.600" fill="#12151c"/><rect x="1.590" y="0.320" width="1.900" height="1.900" rx="0.950" fill="#c79b5c"/><circle cx="2.540" cy="1.270" r="0.600" fill="#12151c"/><rect x="4.130" y="-2.220" width="1.900" height="1.900" rx="0.950" fill="#c79b5c"/><circle cx="5.080" cy="-1.270" r="0.600" fill="#12151c"/><rect x="4.130" y="0.320" width="1.900" height="1.900" rx="0.950" fill="#c79b5c"/><circle cx="5.080" cy="1.270" r="0.600" fill="#12151c"/><rect x="6.670" y="-2.220" width="1.900" height="1.900" rx="0.950" fill="#c79b5c"/><circle cx="7.620" cy="-1.270" r="0.600" fill="#12151c"/><rect x="6.670" y="0.320" width="1.900" height="1.900" rx="0.950" fill="#c79b5c"/><circle cx="7.620" cy="1.270" r="0.600" fill="#12151c"/><rect x="9.210" y="-2.220" width="1.900" height="1.900" rx="0.950" fill="#c79b5c"/><circle cx="10.160" cy="-1.270" r="0.600" fill="#12151c"/><rect x="9.210" y="0.320" width="1.900" height="1.900" rx="0.950" fill="#c79b5c"/><circle cx="10.160" cy="1.270" r="0.600" fill="#12151c"/><rect x="11.750" y="-2.220" width="1.900" height="1.900" rx="0.950" fill="#c79b5c"/><circle cx="12.700" cy="-1.270" r="0.600" fill="#12151c"/><rect x="11.750" y="0.320" width="1.900" height="1.900" rx="0.950" fill="#c79b5c"/><circle cx="12.700" cy="1.270" r="0.600" fill="#12151c"/><rect x="14.290" y="-2.220" width="1.900" height="1.900" rx="0.950" fill="#c79b5c"/><circle cx="15.240" cy="-1.270" r="0.600" fill="#12151c"/><rect x="14.290" y="0.320" width="1.900" height="1.900" rx="0.950" fill="#c79b5c"/><circle cx="15.240" cy="1.270" r="0.600" fill="#12151c"/><rect x="16.830" y="-2.220" width="1.900" height="1.900" rx="0.950" fill="#c79b5c"/><circle cx="17.780" cy="-1.270" r="0.600" fill="#12151c"/><rect x="16.830" y="0.320" width="1.900" height="1.900" rx="0.950" fill="#c79b5c"/><circle cx="17.780" cy="1.270" r="0.600" fill="#12151c"/><rect x="19.370" y="-2.220" width="1.900" height="1.900" rx="0.950" fill="#c79b5c"/><circle cx="20.320" cy="-1.270" r="0.600" fill="#12151c"/><rect x="19.370" y="0.320" width="1.900" height="1.900" rx="0.950" fill="#c79b5c"/><circle cx="20.320" cy="1.270" r="0.600" fill="#12151c"/><rect x="21.910" y="-2.220" width="1.900" height="1.900" rx="0.950" fill="#c79b5c"/><circle cx="22.860" cy="-1.270" r="0.600" fill="#12151c"/><rect x="21.910" y="0.320" width="1.900" height="1.900" rx="0.950" fill="#c79b5c"/><circle cx="22.860" cy="1.270" r="0.600" fill="#12151c"/><rect x="24.450" y="-2.220" width="1.900" height="1.900" rx="0.950" fill="#c79b5c"/><circle cx="25.400" cy="-1.270" r="0.600" fill="#12151c"/><rect x="24.450" y="0.320" width="1.900" height="1.900" rx="0.950" fill="#c79b5c"/><circle cx="25.400" cy="1.270" r="0.600" fill="#12151c"/><rect x="26.990" y="-2.220" width="1.900" height="1.900" rx="0.950" fill="#c79b5c"/><circle cx="27.940" cy="-1.270" r="0.600" fill="#12151c"/><rect x="26.990" y="0.320" width="1.900" height="1.900" rx="0.950" fill="#c79b5c"/><circle cx="27.940" cy="1.270" r="0.600" fill="#12151c"/><rect x="29.530" y="-2.220" width="1.900" height="1.900" rx="0.950" fill="#c79b5c"/><circle cx="30.480" cy="-1.270" r="0.600" fill="#12151c"/><rect x="29.530" y="0.320" width="1.900" height="1.900" rx="0.950" fill="#c79b5c"/><circle cx="30.480" cy="1.270" r="0.600" fill="#12151c"/></svg>