<svg xmlns="http://www.w3.org/2000/svg" viewBox="-6.85 -12.25 13.70 24.50" preserveAspectRatio="xMidYMid meet" style="width:100%;height:100%"><rect x="-6.85" y="-12.25" width="13.70" height="24.50" fill="#12151c"/><line x1="-5.498" y1="-0.150" x2="-2.495" y2="-0.150" stroke="#4a5160" stroke-width="0.100" stroke-linecap="round" opacity="0.7"/><line x1="-5.498" y1="0.150" x2="-2.495" y2="0.150" stroke="#4a5160" stroke-width="0.100" stroke-linecap="round" opacity="0.7"/><line x1="-0.500" y1="0.000" x2="0.000" y2="0.000" stroke="#4a5160" stroke-width="0.100" stroke-linecap="round" opacity="0.7"/><line x1="-0.150" y1="-2.495" x2="-0.150" y2="-5.498" stroke="#4a5160" stroke-width="0.100" stroke-linecap="round" opacity="0.7"/><line x1="-0.150" y1="5.498" x2="-0.150" y2="2.495" stroke="#4a5160" stroke-width="0.100" stroke-linecap="round" opacity="0.7"/><line x1="-0.150" y1="5.498" x2="-0.150" y2="2.495" stroke="#4a5160" stroke-width="0.100" stroke-linecap="round" opacity="0.7"/><line x1="0.000" y1="0.000" x2="0.000" y2="-0.500" stroke="#4a5160" stroke-width="0.100" stroke-linecap="round" opacity="0.7"/><line x1="0.000" y1="0.000" x2="0.500" y2="0.000" stroke="#4a5160" stroke-width="0.100" stroke-linecap="round" opacity="0.7"/><line x1="0.000" y1="0.500" x2="0.000" y2="0.000" stroke="#4a5160" stroke-width="0.100" stroke-linecap="round" opacity="0.7"/><line x1="0.150" y1="-2.495" x2="0.150" y2="-5.498" stroke="#4a5160" stroke-width="0.100" stroke-linecap="round" opacity="0.7"/><line x1="0.150" y1="5.498" x2="0.150" y2="2.495" stroke="#4a5160" stroke-width="0.100" stroke-linecap="round" opacity="0.7"/><line x1="0.150" y1="5.498" x2="0.150" y2="2.495" stroke="#4a5160" stroke-width="0.100" stroke-linecap="round" opacity="0.7"/><line x1="2.495" y1="-0.150" x2="5.498" y2="-0.150" stroke="#4a5160" stroke-width="0.100" stroke-linecap="round" opacity="0.7"/><line x1="2.495" y1="0.150" x2="5.498" y2="0.150" stroke="#4a5160" stroke-width="0.100" stroke-linecap="round" opacity="0.7"/><line x1="-5.750" y1="-11.250" x2="5.750" y2="-11.250" stroke="#d24d4d" stroke-width="0.080" stroke-linecap="round" opacity="0.7"/><line x1="5.750" y1="-11.250" x2="5.750" y2="11.250" stroke="#d24d4d" stroke-width="0.080" stroke-linecap="round" opacity="0.7"/><line x1="5.750" y1="11.250" x2="-5.750" y2="11.250" stroke="#d24d4d" stroke-width="0.080" stroke-linecap="round" opacity="0.7"/><line x1="-5.750" y1="11.250" x2="-5.750" y2="-11.250" stroke="#d24d4d" stroke-width="0.080" stroke-linecap="round" opacity="0.7"/><path d="M -5.498 -0.150 A 5.500 5.500 0 0 1 -0.150 -5.498" fill="none" stroke="#4a5160" stroke-width="0.12" opacity="0.7"/><path d="M -2.495 -0.150 A 2.500 2.500 0 0 1 -0.150 -2.495" fill="none" stroke="#4a5160" stroke-width="0.12" opacity="0.7"/><path d="M -0.150 2.495 A 2.500 2.500 0 0 1 -2.495 0.150" fill="none" stroke="#4a5160" stroke-width="0.12" opacity="0.7"/><path d="M -0.150 5.498 A 5.500 5.500 0 0 1 -5.498 0.150" fill="none" stroke="#4a5160" stroke-width="0.12" opacity="0.7"/><path d="M 0.150 -5.498 A 5.500 5.500 0 0 1 5.498 -0.150" fill="none" stroke="#4a5160" stroke-width="0.12" opacity="0.7"/><path d="M 0.150 -2.495 A 2.500 2.500 0 0 1 2.495 -0.150" fill="none" stroke="#4a5160" stroke-width="0.12" opacity="0.7"/><path d="M 2.495 0.150 A 2.500 2.500 0 0 1 0.150 2.495" fill="none" stroke="#4a5160" stroke-width="0.12" opacity="0.7"/><path d="M 5.498 0.150 A 5.500 5.500 0 0 1 0.150 5.498" fill="none" stroke="#4a5160" stroke-width="0.12" opacity="0.7"/><circle cx="0.000" cy="0.000" r="5.850" fill="none" stroke="#e6e9ef" stroke-width="0.12" opacity="1"/><circle cx="0.000" cy="0.000" r="5.500" fill="none" stroke="#6b7280" stroke-width="0.12" opacity="0.8"/><circle cx="0.000" cy="0.000" r="0.500" fill="none" stroke="#6b7280" stroke-width="0.1"/><rect x="-5.500" y="-0.150" width="3.000" height="0.300" rx="0.000" fill="#c79b5c"/><rect x="-0.000" y="-5.500" width="0.000" height="0.000" rx="0.000" fill="#c79b5c"/><rect x="-0.000" y="-5.500" width="0.000" height="0.000" rx="0.000" fill="#c79b5c"/><rect x="-0.150" y="-5.500" width="0.300" height="3.000" rx="0.000" fill="#c79b5c"/><rect x="-0.150" y="2.500" width="0.300" height="3.000" rx="0.000" fill="#c79b5c"/><rect x="-0.000" y="5.500" width="0.000" height="0.000" rx="0.000" fill="#c79b5c"/><rect x="-0.000" y="5.500" width="0.000" height="0.000" rx="0.000" fill="#c79b5c"/><rect x="2.500" y="-0.150" width="3.000" height="0.300" rx="0.000" fill="#c79b5c"/><rect x="-5.500" y="-0.150" width="3.000" height="0.300" rx="0.000" fill="#c79b5c"/><rect x="-0.150" y="-5.500" width="0.300" height="3.000" rx="0.000" fill="#c79b5c"/><rect x="-0.150" y="2.500" width="0.300" height="3.000" rx="0.000" fill="#c79b5c"/><rect x="2.500" y="-0.150" width="3.000" height="0.300" rx="0.000" fill="#c79b5c"/></svg>