<svg xmlns="http://www.w3.org/2000/svg" viewBox="-7.58 -5.20 14.28 10.40" preserveAspectRatio="xMidYMid meet" style="width:100%;height:100%"><rect x="-7.58" y="-5.20" width="14.28" height="10.40" fill="#12151c"/><circle cx="-6.450" cy="-3.250" r="0.125" fill="none" stroke="#e6e9ef" stroke-width="0.12" opacity="1"/><rect x="-5.700" y="-3.375" width="0.600" height="0.250" rx="0.125" fill="#c79b5c"/><rect x="-5.700" y="-2.875" width="0.600" height="0.250" rx="0.125" fill="#c79b5c"/><rect x="-5.700" y="-2.375" width="0.600" height="0.250" rx="0.125" fill="#c79b5c"/><rect x="-5.700" y="-1.875" width="0.600" height="0.250" rx="0.125" fill="#c79b5c"/><rect x="-5.700" y="-1.375" width="0.600" height="0.250" rx="0.125" fill="#c79b5c"/><rect x="-5.700" y="-0.875" width="0.600" height="0.250" rx="0.125" fill="#c79b5c"/><rect x="-5.700" y="-0.375" width="0.600" height="0.250" rx="0.125" fill="#c79b5c"/><rect x="-5.700" y="0.125" width="0.600" height="0.250" rx="0.125" fill="#c79b5c"/><rect x="-5.700" y="0.625" width="0.600" height="0.250" rx="0.125" fill="#c79b5c"/><rect x="-5.700" y="1.125" width="0.600" height="0.250" rx="0.125" fill="#c79b5c"/><rect x="-5.700" y="1.625" width="0.600" height="0.250" rx="0.125" fill="#c79b5c"/><rect x="-5.700" y="2.125" width="0.600" height="0.250" rx="0.125" fill="#c79b5c"/><rect x="-5.700" y="2.625" width="0.600" height="0.250" rx="0.125" fill="#c79b5c"/><rect x="-5.700" y="3.125" width="0.600" height="0.250" rx="0.125" fill="#c79b5c"/><rect x="-4.875" y="3.600" width="0.250" height="0.600" rx="0.125" fill="#c79b5c"/><rect x="-4.375" y="3.600" width="0.250" height="0.600" rx="0.125" fill="#c79b5c"/><rect x="-3.875" y="3.600" width="0.250" height="0.600" rx="0.125" fill="#c79b5c"/><rect x="-3.375" y="3.600" width="0.250" height="0.600" rx="0.125" fill="#c79b5c"/><rect x="-2.875" y="3.600" width="0.250" height="0.600" rx="0.125" fill="#c79b5c"/><rect x="-2.375" y="3.600" width="0.250" height="0.600" rx="0.125" fill="#c79b5c"/><rect x="-1.875" y="3.600" width="0.250" height="0.600" rx="0.125" fill="#c79b5c"/><rect x="-1.375" y="3.600" width="0.250" height="0.600" rx="0.125" fill="#c79b5c"/><rect x="-0.875" y="3.600" width="0.250" height="0.600" rx="0.125" fill="#c79b5c"/><rect x="-0.375" y="3.600" width="0.250" height="0.600" rx="0.125" fill="#c79b5c"/><rect x="0.125" y="3.600" width="0.250" height="0.600" rx="0.125" fill="#c79b5c"/><rect x="0.625" y="3.600" width="0.250" height="0.600" rx="0.125" fill="#c79b5c"/><rect x="1.125" y="3.600" width="0.250" height="0.600" rx="0.125" fill="#c79b5c"/><rect x="1.625" y="3.600" width="0.250" height="0.600" rx="0.125" fill="#c79b5c"/><rect x="2.125" y="3.600" width="0.250" height="0.600" rx="0.125" fill="#c79b5c"/><rect x="2.625" y="3.600" width="0.250" height="0.600" rx="0.125" fill="#c79b5c"/><rect x="3.125" y="3.600" width="0.250" height="0.600" rx="0.125" fill="#c79b5c"/><rect x="3.625" y="3.600" width="0.250" height="0.600" rx="0.125" fill="#c79b5c"/><rect x="4.125" y="3.600" width="0.250" height="0.600" rx="0.125" fill="#c79b5c"/><rect x="4.625" y="3.600" width="0.250" height="0.600" rx="0.125" fill="#c79b5c"/><rect x="5.100" y="3.125" width="0.600" height="0.250" rx="0.125" fill="#c79b5c"/><rect x="5.100" y="2.625" width="0.600" height="0.250" rx="0.125" fill="#c79b5c"/><rect x="5.100" y="2.125" width="0.600" height="0.250" rx="0.125" fill="#c79b5c"/><rect x="5.100" y="1.625" width="0.600" height="0.250" rx="0.125" fill="#c79b5c"/><rect x="5.100" y="1.125" width="0.600" height="0.250" rx="0.125" fill="#c79b5c"/><rect x="5.100" y="0.625" width="0.600" height="0.250" rx="0.125" fill="#c79b5c"/><rect x="5.100" y="0.125" width="0.600" height="0.250" rx="0.125" fill="#c79b5c"/><rect x="5.100" y="-0.375" width="0.600" height="0.250" rx="0.125" fill="#c79b5c"/><rect x="5.100" y="-0.875" width="0.600" height="0.250" rx="0.125" fill="#c79b5c"/><rect x="5.100" y="-1.375" width="0.600" height="0.250" rx="0.125" fill="#c79b5c"/><rect x="5.100" y="-1.875" width="0.600" height="0.250" rx="0.125" fill="#c79b5c"/><rect x="5.100" y="-2.375" width="0.600" height="0.250" rx="0.125" fill="#c79b5c"/><rect x="5.100" y="-2.875" width="0.600" height="0.250" rx="0.125" fill="#c79b5c"/><rect x="5.100" y="-3.375" width="0.600" height="0.250" rx="0.125" fill="#c79b5c"/><rect x="4.625" y="-4.200" width="0.250" height="0.600" rx="0.125" fill="#c79b5c"/><rect x="4.125" y="-4.200" width="0.250" height="0.600" rx="0.125" fill="#c79b5c"/><rect x="3.625" y="-4.200" width="0.250" height="0.600" rx="0.125" fill="#c79b5c"/><rect x="3.125" y="-4.200" width="0.250" height="0.600" rx="0.125" fill="#c79b5c"/><rect x="2.625" y="-4.200" width="0.250" height="0.600" rx="0.125" fill="#c79b5c"/><rect x="2.125" y="-4.200" width="0.250" height="0.600" rx="0.125" fill="#c79b5c"/><rect x="1.625" y="-4.200" width="0.250" height="0.600" rx="0.125" fill="#c79b5c"/><rect x="1.125" y="-4.200" width="0.250" height="0.600" rx="0.125" fill="#c79b5c"/><rect x="0.625" y="-4.200" width="0.250" height="0.600" rx="0.125" fill="#c79b5c"/><rect x="0.125" y="-4.200" width="0.250" height="0.600" rx="0.125" fill="#c79b5c"/><rect x="-0.375" y="-4.200" width="0.250" height="0.600" rx="0.125" fill="#c79b5c"/><rect x="-0.875" y="-4.200" width="0.250" height="0.600" rx="0.125" fill="#c79b5c"/><rect x="-1.375" y="-4.200" width="0.250" height="0.600" rx="0.125" fill="#c79b5c"/><rect x="-1.875" y="-4.200" width="0.250" height="0.600" rx="0.125" fill="#c79b5c"/><rect x="-2.375" y="-4.200" width="0.250" height="0.600" rx="0.125" fill="#c79b5c"/><rect x="-2.875" y="-4.200" width="0.250" height="0.600" rx="0.125" fill="#c79b5c"/><rect x="-3.375" y="-4.200" width="0.250" height="0.600" rx="0.125" fill="#c79b5c"/><rect x="-3.875" y="-4.200" width="0.250" height="0.600" rx="0.125" fill="#c79b5c"/><rect x="-4.375" y="-4.200" width="0.250" height="0.600" rx="0.125" fill="#c79b5c"/><rect x="-4.875" y="-4.200" width="0.250" height="0.600" rx="0.125" fill="#c79b5c"/><rect x="1.680" y="-2.850" width="2.600" height="6.100" rx="0.000" fill="#c79b5c"/></svg>