<svg xmlns="http://www.w3.org/2000/svg" viewBox="-5.27 -5.03 10.55 9.03" preserveAspectRatio="xMidYMid meet" style="width:100%;height:100%"><rect x="-5.27" y="-5.03" width="10.55" height="9.03" fill="#12151c"/><line x1="-3.928" y1="2.420" x2="-3.770" y2="2.210" stroke="#e6e9ef" stroke-width="0.200" stroke-linecap="round" opacity="1"/><line x1="-3.928" y1="2.420" x2="-3.689" y2="2.601" stroke="#e6e9ef" stroke-width="0.200" stroke-linecap="round" opacity="1"/><line x1="-3.750" y1="-1.011" x2="-3.750" y2="-1.400" stroke="#e6e9ef" stroke-width="0.200" stroke-linecap="round" opacity="1"/><line x1="-3.750" y1="1.011" x2="-3.750" y2="2.150" stroke="#e6e9ef" stroke-width="0.200" stroke-linecap="round" opacity="1"/><line x1="-3.750" y1="2.150" x2="-3.100" y2="2.150" stroke="#e6e9ef" stroke-width="0.200" stroke-linecap="round" opacity="1"/><line x1="-3.689" y1="2.601" x2="-3.531" y2="2.391" stroke="#e6e9ef" stroke-width="0.200" stroke-linecap="round" opacity="1"/><line x1="-3.100" y1="2.629" x2="-3.100" y2="2.154" stroke="#e6e9ef" stroke-width="0.200" stroke-linecap="round" opacity="1"/><line x1="-2.980" y1="-1.390" x2="-1.870" y2="-1.390" stroke="#e6e9ef" stroke-width="0.200" stroke-linecap="round" opacity="1"/><line x1="-2.950" y1="2.571" x2="2.950" y2="2.571" stroke="#e6e9ef" stroke-width="0.200" stroke-linecap="round" opacity="1"/><line x1="-2.950" y1="2.750" x2="2.950" y2="2.750" stroke="#e6e9ef" stroke-width="0.200" stroke-linecap="round" opacity="1"/><line x1="-1.870" y1="-1.390" x2="-1.870" y2="-1.770" stroke="#e6e9ef" stroke-width="0.200" stroke-linecap="round" opacity="1"/><line x1="1.870" y1="-1.390" x2="1.870" y2="-1.770" stroke="#e6e9ef" stroke-width="0.200" stroke-linecap="round" opacity="1"/><line x1="1.870" y1="-1.390" x2="2.980" y2="-1.390" stroke="#e6e9ef" stroke-width="0.200" stroke-linecap="round" opacity="1"/><line x1="3.100" y1="2.150" x2="3.750" y2="2.150" stroke="#e6e9ef" stroke-width="0.200" stroke-linecap="round" opacity="1"/><line x1="3.100" y1="2.629" x2="3.100" y2="2.150" stroke="#e6e9ef" stroke-width="0.200" stroke-linecap="round" opacity="1"/><line x1="3.531" y1="2.391" x2="3.689" y2="2.601" stroke="#e6e9ef" stroke-width="0.200" stroke-linecap="round" opacity="1"/><line x1="3.689" y1="2.601" x2="3.928" y2="2.420" stroke="#e6e9ef" stroke-width="0.200" stroke-linecap="round" opacity="1"/><line x1="3.750" y1="-1.011" x2="3.750" y2="-1.400" stroke="#e6e9ef" stroke-width="0.200" stroke-linecap="round" opacity="1"/><line x1="3.750" y1="1.011" x2="3.750" y2="2.150" stroke="#e6e9ef" stroke-width="0.200" stroke-linecap="round" opacity="1"/><line x1="3.770" y1="2.210" x2="3.928" y2="2.420" stroke="#e6e9ef" stroke-width="0.200" stroke-linecap="round" opacity="1"/><line x1="-4.000" y1="-3.150" x2="-3.200" y2="-2.450" stroke="#4a5160" stroke-width="0.100" stroke-linecap="round" opacity="0.7"/><line x1="-4.000" y1="-3.150" x2="-2.400" y2="-3.150" stroke="#4a5160" stroke-width="0.100" stroke-linecap="round" opacity="0.7"/><line x1="-4.000" y1="-1.750" x2="-4.000" y2="-3.150" stroke="#4a5160" stroke-width="0.100" stroke-linecap="round" opacity="0.7"/><line x1="-4.000" y1="-1.750" x2="-3.200" y2="-2.450" stroke="#4a5160" stroke-width="0.100" stroke-linecap="round" opacity="0.7"/><line x1="-4.000" y1="-1.750" x2="-2.400" y2="-1.750" stroke="#4a5160" stroke-width="0.100" stroke-linecap="round" opacity="0.7"/><line x1="-3.750" y1="0.000" x2="-3.300" y2="0.000" stroke="#4a5160" stroke-width="0.100" stroke-linecap="round" opacity="0.7"/><line x1="-3.750" y1="0.350" x2="-3.750" y2="-0.350" stroke="#4a5160" stroke-width="0.100" stroke-linecap="round" opacity="0.7"/><line x1="-3.750" y1="1.450" x2="0.000" y2="1.450" stroke="#4a5160" stroke-width="0.100" stroke-linecap="round" opacity="0.7"/><line x1="-3.550" y1="0.350" x2="-3.550" y2="-0.350" stroke="#4a5160" stroke-width="0.100" stroke-linecap="round" opacity="0.7"/><line x1="-3.300" y1="0.000" x2="-3.300" y2="-0.800" stroke="#4a5160" stroke-width="0.100" stroke-linecap="round" opacity="0.7"/><line x1="-3.300" y1="0.000" x2="-2.850" y2="0.000" stroke="#4a5160" stroke-width="0.100" stroke-linecap="round" opacity="0.7"/><line x1="-3.300" y1="0.800" x2="-3.300" y2="0.000" stroke="#4a5160" stroke-width="0.100" stroke-linecap="round" opacity="0.7"/><line x1="-3.050" y1="0.350" x2="-3.050" y2="-0.350" stroke="#4a5160" stroke-width="0.100" stroke-linecap="round" opacity="0.7"/><line x1="-2.850" y1="0.350" x2="-2.850" y2="-0.350" stroke="#4a5160" stroke-width="0.100" stroke-linecap="round" opacity="0.7"/><line x1="-2.400" y1="-1.750" x2="-2.400" y2="-3.150" stroke="#4a5160" stroke-width="0.100" stroke-linecap="round" opacity="0.7"/><line x1="-2.150" y1="-0.950" x2="-0.250" y2="-0.950" stroke="#4a5160" stroke-width="0.100" stroke-linecap="round" opacity="0.7"/><line x1="-2.150" y1="0.950" x2="-2.150" y2="-0.950" stroke="#4a5160" stroke-width="0.100" stroke-linecap="round" opacity="0.7"/><line x1="-2.150" y1="0.950" x2="-1.200" y2="0.000" stroke="#4a5160" stroke-width="0.100" stroke-linecap="round" opacity="0.7"/><line x1="-2.150" y1="0.950" x2="-0.250" y2="0.950" stroke="#4a5160" stroke-width="0.100" stroke-linecap="round" opacity="0.7"/><line x1="-1.500" y1="-3.350" x2="-1.300" y2="-2.675" stroke="#4a5160" stroke-width="0.100" stroke-linecap="round" opacity="0.7"/><line x1="-1.500" y1="-3.350" x2="-1.100" y2="-3.350" stroke="#4a5160" stroke-width="0.100" stroke-linecap="round" opacity="0.7"/><line x1="-1.500" y1="-2.000" x2="-1.500" y2="-3.350" stroke="#4a5160" stroke-width="0.100" stroke-linecap="round" opacity="0.7"/><line x1="-1.500" y1="-2.000" x2="-1.100" y2="-2.000" stroke="#4a5160" stroke-width="0.100" stroke-linecap="round" opacity="0.7"/><line x1="-1.300" y1="-2.675" x2="-1.100" y2="-3.350" stroke="#4a5160" stroke-width="0.100" stroke-linecap="round" opacity="0.7"/><line x1="-1.200" y1="0.000" x2="-0.250" y2="0.950" stroke="#4a5160" stroke-width="0.100" stroke-linecap="round" opacity="0.7"/><line x1="-1.100" y1="-2.000" x2="-1.100" y2="-3.350" stroke="#4a5160" stroke-width="0.100" stroke-linecap="round" opacity="0.7"/><line x1="-0.850" y1="-3.350" x2="-0.650" y2="-2.675" stroke="#4a5160" stroke-width="0.100" stroke-linecap="round" opacity="0.7"/><line x1="-0.850" y1="-3.350" x2="-0.450" y2="-3.350" stroke="#4a5160" stroke-width="0.100" stroke-linecap="round" opacity="0.7"/><line x1="-0.850" y1="-2.000" x2="-0.850" y2="-3.350" stroke="#4a5160" stroke-width="0.100" stroke-linecap="round" opacity="0.7"/><line x1="-0.850" y1="-2.000" x2="-0.450" y2="-2.000" stroke="#4a5160" stroke-width="0.100" stroke-linecap="round" opacity="0.7"/><line x1="-0.650" y1="-2.675" x2="-0.450" y2="-3.350" stroke="#4a5160" stroke-width="0.100" stroke-linecap="round" opacity="0.7"/><line x1="-0.500" y1="0.000" x2="0.000" y2="0.000" stroke="#4a5160" stroke-width="0.100" stroke-linecap="round" opacity="0.7"/><line x1="-0.450" y1="-2.000" x2="-0.450" y2="-3.350" stroke="#4a5160" stroke-width="0.100" stroke-linecap="round" opacity="0.7"/><line x1="-0.250" y1="0.950" x2="-0.250" y2="-0.950" stroke="#4a5160" stroke-width="0.100" stroke-linecap="round" opacity="0.7"/><line x1="-0.200" y1="-3.350" x2="0.000" y2="-2.675" stroke="#4a5160" stroke-width="0.100" stroke-linecap="round" opacity="0.7"/><line x1="-0.200" y1="-3.350" x2="0.200" y2="-3.350" stroke="#4a5160" stroke-width="0.100" stroke-linecap="round" opacity="0.7"/><line x1="-0.200" y1="-2.000" x2="-0.200" y2="-3.350" stroke="#4a5160" stroke-width="0.100" stroke-linecap="round" opacity="0.7"/><line x1="-0.200" y1="-2.000" x2="0.200" y2="-2.000" stroke="#4a5160" stroke-width="0.100" stroke-linecap="round" opacity="0.7"/><line x1="0.000" y1="-2.675" x2="0.200" y2="-3.350" stroke="#4a5160" stroke-width="0.100" stroke-linecap="round" opacity="0.7"/><line x1="0.000" y1="0.000" x2="0.000" y2="-0.500" stroke="#4a5160" stroke-width="0.100" stroke-linecap="round" opacity="0.7"/><line x1="0.000" y1="0.000" x2="0.500" y2="0.000" stroke="#4a5160" stroke-width="0.100" stroke-linecap="round" opacity="0.7"/><line x1="0.000" y1="0.500" x2="0.000" y2="0.000" stroke="#4a5160" stroke-width="0.100" stroke-linecap="round" opacity="0.7"/><line x1="0.000" y1="1.450" x2="3.750" y2="1.450" stroke="#4a5160" stroke-width="0.100" stroke-linecap="round" opacity="0.7"/><line x1="0.200" y1="-2.000" x2="0.200" y2="-3.350" stroke="#4a5160" stroke-width="0.100" stroke-linecap="round" opacity="0.7"/><line x1="0.250" y1="-0.950" x2="2.150" y2="-0.950" stroke="#4a5160" stroke-width="0.100" stroke-linecap="round" opacity="0.7"/><line x1="0.250" y1="0.950" x2="0.250" y2="-0.950" stroke="#4a5160" stroke-width="0.100" stroke-linecap="round" opacity="0.7"/><line x1="0.250" y1="0.950" x2="1.200" y2="0.000" stroke="#4a5160" stroke-width="0.100" stroke-linecap="round" opacity="0.7"/><line x1="0.250" y1="0.950" x2="2.150" y2="0.950" stroke="#4a5160" stroke-width="0.100" stroke-linecap="round" opacity="0.7"/><line x1="0.450" y1="-3.350" x2="0.650" y2="-2.675" stroke="#4a5160" stroke-width="0.100" stroke-linecap="round" opacity="0.7"/><line x1="0.450" y1="-3.350" x2="0.850" y2="-3.350" stroke="#4a5160" stroke-width="0.100" stroke-linecap="round" opacity="0.7"/><line x1="0.450" y1="-2.000" x2="0.450" y2="-3.350" stroke="#4a5160" stroke-width="0.100" stroke-linecap="round" opacity="0.7"/><line x1="0.450" y1="-2.000" x2="0.850" y2="-2.000" stroke="#4a5160" stroke-width="0.100" stroke-linecap="round" opacity="0.7"/><line x1="0.650" y1="-2.675" x2="0.850" y2="-3.350" stroke="#4a5160" stroke-width="0.100" stroke-linecap="round" opacity="0.7"/><line x1="0.850" y1="-2.000" x2="0.850" y2="-3.350" stroke="#4a5160" stroke-width="0.100" stroke-linecap="round" opacity="0.7"/><line x1="1.100" y1="-3.350" x2="1.300" y2="-2.675" stroke="#4a5160" stroke-width="0.100" stroke-linecap="round" opacity="0.7"/><line x1="1.100" y1="-3.350" x2="1.500" y2="-3.350" stroke="#4a5160" stroke-width="0.100" stroke-linecap="round" opacity="0.7"/><line x1="1.100" y1="-2.000" x2="1.100" y2="-3.350" stroke="#4a5160" stroke-width="0.100" stroke-linecap="round" opacity="0.7"/><line x1="1.100" y1="-2.000" x2="1.500" y2="-2.000" stroke="#4a5160" stroke-width="0.100" stroke-linecap="round" opacity="0.7"/><line x1="1.200" y1="0.000" x2="2.150" y2="0.950" stroke="#4a5160" stroke-width="0.100" stroke-linecap="round" opacity="0.7"/><line x1="1.300" y1="-2.675" x2="1.500" y2="-3.350" stroke="#4a5160" stroke-width="0.100" stroke-linecap="round" opacity="0.7"/><line x1="1.500" y1="-2.000" x2="1.500" y2="-3.350" stroke="#4a5160" stroke-width="0.100" stroke-linecap="round" opacity="0.7"/><line x1="2.150" y1="0.950" x2="2.150" y2="-0.950" stroke="#4a5160" stroke-width="0.100" stroke-linecap="round" opacity="0.7"/><line x1="2.400" y1="-3.150" x2="4.000" y2="-3.150" stroke="#4a5160" stroke-width="0.100" stroke-linecap="round" opacity="0.7"/><line x1="2.400" y1="-1.750" x2="2.400" y2="-3.150" stroke="#4a5160" stroke-width="0.100" stroke-linecap="round" opacity="0.7"/><line x1="2.400" y1="-1.750" x2="4.000" y2="-1.750" stroke="#4a5160" stroke-width="0.100" stroke-linecap="round" opacity="0.7"/><line x1="2.850" y1="0.000" x2="3.300" y2="0.000" stroke="#4a5160" stroke-width="0.100" stroke-linecap="round" opacity="0.7"/><line x1="2.850" y1="0.350" x2="2.850" y2="-0.350" stroke="#4a5160" stroke-width="0.100" stroke-linecap="round" opacity="0.7"/><line x1="3.050" y1="0.350" x2="3.050" y2="-0.350" stroke="#4a5160" stroke-width="0.100" stroke-linecap="round" opacity="0.7"/><line x1="3.200" y1="-2.450" x2="4.000" y2="-3.150" stroke="#4a5160" stroke-width="0.100" stroke-linecap="round" opacity="0.7"/><line x1="3.200" y1="-2.450" x2="4.000" y2="-1.750" stroke="#4a5160" stroke-width="0.100" stroke-linecap="round" opacity="0.7"/><line x1="3.300" y1="0.000" x2="3.300" y2="-0.800" stroke="#4a5160" stroke-width="0.100" stroke-linecap="round" opacity="0.7"/><line x1="3.300" y1="0.000" x2="3.750" y2="0.000" stroke="#4a5160" stroke-width="0.100" stroke-linecap="round" opacity="0.7"/><line x1="3.300" y1="0.800" x2="3.300" y2="0.000" stroke="#4a5160" stroke-width="0.100" stroke-linecap="round" opacity="0.7"/><line x1="3.550" y1="0.350" x2="3.550" y2="-0.350" stroke="#4a5160" stroke-width="0.100" stroke-linecap="round" opacity="0.7"/><line x1="3.750" y1="0.350" x2="3.750" y2="-0.350" stroke="#4a5160" stroke-width="0.100" stroke-linecap="round" opacity="0.7"/><line x1="4.000" y1="-1.750" x2="4.000" y2="-3.150" stroke="#4a5160" stroke-width="0.100" stroke-linecap="round" opacity="0.7"/><line x1="-4.267" y1="2.479" x2="-4.000" y2="2.075" stroke="#d24d4d" stroke-width="0.080" stroke-linecap="round" opacity="0.7"/><line x1="-4.267" y1="2.479" x2="-3.773" y2="2.851" stroke="#d24d4d" stroke-width="0.080" stroke-linecap="round" opacity="0.7"/><line x1="-4.250" y1="-3.400" x2="-1.750" y2="-3.400" stroke="#d24d4d" stroke-width="0.080" stroke-linecap="round" opacity="0.7"/><line x1="-4.250" y1="-1.500" x2="-4.250" y2="-3.400" stroke="#d24d4d" stroke-width="0.080" stroke-linecap="round" opacity="0.7"/><line x1="-4.250" y1="-1.500" x2="-4.000" y2="-1.500" stroke="#d24d4d" stroke-width="0.080" stroke-linecap="round" opacity="0.7"/><line x1="-4.000" y1="2.075" x2="-4.000" y2="-1.500" stroke="#d24d4d" stroke-width="0.080" stroke-linecap="round" opacity="0.7"/><line x1="-3.773" y1="2.851" x2="-3.350" y2="2.851" stroke="#d24d4d" stroke-width="0.080" stroke-linecap="round" opacity="0.7"/><line x1="-3.350" y1="3.000" x2="-3.350" y2="2.851" stroke="#d24d4d" stroke-width="0.080" stroke-linecap="round" opacity="0.7"/><line x1="-3.350" y1="3.000" x2="3.350" y2="3.000" stroke="#d24d4d" stroke-width="0.080" stroke-linecap="round" opacity="0.7"/><line x1="-1.750" y1="-3.600" x2="1.750" y2="-3.600" stroke="#d24d4d" stroke-width="0.080" stroke-linecap="round" opacity="0.7"/><line x1="-1.750" y1="-3.400" x2="-1.750" y2="-3.600" stroke="#d24d4d" stroke-width="0.080" stroke-linecap="round" opacity="0.7"/><line x1="1.750" y1="-3.400" x2="1.750" y2="-3.600" stroke="#d24d4d" stroke-width="0.080" stroke-linecap="round" opacity="0.7"/><line x1="1.750" y1="-3.400" x2="4.250" y2="-3.400" stroke="#d24d4d" stroke-width="0.080" stroke-linecap="round" opacity="0.7"/><line x1="3.350" y1="2.851" x2="3.773" y2="2.851" stroke="#d24d4d" stroke-width="0.080" stroke-linecap="round" opacity="0.7"/><line x1="3.350" y1="3.000" x2="3.350" y2="2.851" stroke="#d24d4d" stroke-width="0.080" stroke-linecap="round" opacity="0.7"/><line x1="3.773" y1="2.851" x2="4.279" y2="2.469" stroke="#d24d4d" stroke-width="0.080" stroke-linecap="round" opacity="0.7"/><line x1="4.000" y1="-1.500" x2="4.250" y2="-1.500" stroke="#d24d4d" stroke-width="0.080" stroke-linecap="round" opacity="0.7"/><line x1="4.000" y1="2.100" x2="4.000" y2="-1.500" stroke="#d24d4d" stroke-width="0.080" stroke-linecap="round" opacity="0.7"/><line x1="4.000" y1="2.100" x2="4.279" y2="2.469" stroke="#d24d4d" stroke-width="0.080" stroke-linecap="round" opacity="0.7"/><line x1="4.250" y1="-1.500" x2="4.250" y2="-3.400" stroke="#d24d4d" stroke-width="0.080" stroke-linecap="round" opacity="0.7"/><line x1="-3.928" y1="2.420" x2="-3.770" y2="2.210" stroke="#6b7280" stroke-width="0.100" stroke-linecap="round" opacity="0.8"/><line x1="-3.928" y1="2.420" x2="-3.689" y2="2.601" stroke="#6b7280" stroke-width="0.100" stroke-linecap="round" opacity="0.8"/><line x1="-3.750" y1="-2.850" x2="-3.750" y2="2.150" stroke="#6b7280" stroke-width="0.100" stroke-linecap="round" opacity="0.8"/><line x1="-3.750" y1="-2.850" x2="-2.061" y2="-2.850" stroke="#6b7280" stroke-width="0.100" stroke-linecap="round" opacity="0.8"/><line x1="-3.750" y1="2.150" x2="-3.100" y2="2.150" stroke="#6b7280" stroke-width="0.100" stroke-linecap="round" opacity="0.8"/><line x1="-3.689" y1="2.601" x2="-3.531" y2="2.391" stroke="#6b7280" stroke-width="0.100" stroke-linecap="round" opacity="0.8"/><line x1="-3.120" y1="-2.050" x2="-3.120" y2="-1.970" stroke="#6b7280" stroke-width="0.100" stroke-linecap="round" opacity="0.8"/><line x1="-3.100" y1="2.629" x2="-3.100" y2="2.154" stroke="#6b7280" stroke-width="0.100" stroke-linecap="round" opacity="0.8"/><line x1="-2.980" y1="-1.390" x2="-2.980" y2="-1.779" stroke="#6b7280" stroke-width="0.100" stroke-linecap="round" opacity="0.8"/><line x1="-2.980" y1="-1.390" x2="-1.870" y2="-1.390" stroke="#6b7280" stroke-width="0.100" stroke-linecap="round" opacity="0.8"/><line x1="-2.950" y1="2.571" x2="2.950" y2="2.571" stroke="#6b7280" stroke-width="0.100" stroke-linecap="round" opacity="0.8"/><line x1="-2.950" y1="2.750" x2="2.950" y2="2.750" stroke="#6b7280" stroke-width="0.100" stroke-linecap="round" opacity="0.8"/><line x1="-2.925" y1="0.800" x2="-2.925" y2="1.100" stroke="#6b7280" stroke-width="0.100" stroke-linecap="round" opacity="0.8"/><line x1="-2.922" y1="-1.770" x2="-1.550" y2="-1.770" stroke="#6b7280" stroke-width="0.100" stroke-linecap="round" opacity="0.8"/><line x1="-2.905" y1="-2.250" x2="-2.427" y2="-2.250" stroke="#6b7280" stroke-width="0.100" stroke-linecap="round" opacity="0.8"/><line x1="-2.825" y1="1.200" x2="-2.725" y2="1.200" stroke="#6b7280" stroke-width="0.100" stroke-linecap="round" opacity="0.8"/><line x1="-2.755" y1="0.602" x2="-2.755" y2="-0.170" stroke="#6b7280" stroke-width="0.100" stroke-linecap="round" opacity="0.8"/><line x1="-2.725" y1="1.250" x2="-2.025" y2="1.250" stroke="#6b7280" stroke-width="0.100" stroke-linecap="round" opacity="0.8"/><line x1="-2.725" y1="1.350" x2="-2.025" y2="1.350" stroke="#6b7280" stroke-width="0.100" stroke-linecap="round" opacity="0.8"/><line x1="-2.725" y1="1.563" x2="-2.025" y2="1.563" stroke="#6b7280" stroke-width="0.100" stroke-linecap="round" opacity="0.8"/><line x1="-2.725" y1="1.742" x2="-2.725" y2="1.200" stroke="#6b7280" stroke-width="0.100" stroke-linecap="round" opacity="0.8"/><line x1="-2.725" y1="1.742" x2="-2.025" y2="1.742" stroke="#6b7280" stroke-width="0.100" stroke-linecap="round" opacity="0.8"/><line x1="-2.625" y1="-0.300" x2="-2.125" y2="-0.300" stroke="#6b7280" stroke-width="0.100" stroke-linecap="round" opacity="0.8"/><line x1="-2.427" y1="-2.580" x2="-1.300" y2="-2.580" stroke="#6b7280" stroke-width="0.100" stroke-linecap="round" opacity="0.8"/><line x1="-2.427" y1="-2.250" x2="-2.427" y2="-2.580" stroke="#6b7280" stroke-width="0.100" stroke-linecap="round" opacity="0.8"/><line x1="-2.025" y1="1.200" x2="-1.925" y2="1.200" stroke="#6b7280" stroke-width="0.100" stroke-linecap="round" opacity="0.8"/><line x1="-2.025" y1="1.742" x2="-2.025" y2="1.200" stroke="#6b7280" stroke-width="0.100" stroke-linecap="round" opacity="0.8"/><line x1="-1.995" y1="-0.170" x2="-1.995" y2="0.602" stroke="#6b7280" stroke-width="0.100" stroke-linecap="round" opacity="0.8"/><line x1="-1.911" y1="-2.580" x2="-1.911" y2="-2.700" stroke="#6b7280" stroke-width="0.100" stroke-linecap="round" opacity="0.8"/><line x1="-1.870" y1="-1.770" x2="1.870" y2="-1.770" stroke="#6b7280" stroke-width="0.100" stroke-linecap="round" opacity="0.8"/><line x1="-1.870" y1="-1.390" x2="-1.870" y2="-1.770" stroke="#6b7280" stroke-width="0.100" stroke-linecap="round" opacity="0.8"/><line x1="-1.825" y1="1.100" x2="-1.825" y2="0.800" stroke="#6b7280" stroke-width="0.100" stroke-linecap="round" opacity="0.8"/><line x1="-1.420" y1="-2.900" x2="1.420" y2="-2.900" stroke="#6b7280" stroke-width="0.100" stroke-linecap="round" opacity="0.8"/><line x1="-1.420" y1="-2.580" x2="-1.420" y2="-2.900" stroke="#6b7280" stroke-width="0.100" stroke-linecap="round" opacity="0.8"/><line x1="-1.300" y1="-2.020" x2="-1.300" y2="-2.900" stroke="#6b7280" stroke-width="0.100" stroke-linecap="round" opacity="0.8"/><line x1="-0.650" y1="-2.600" x2="-0.650" y2="-2.900" stroke="#6b7280" stroke-width="0.100" stroke-linecap="round" opacity="0.8"/><line x1="-0.500" y1="-2.450" x2="0.500" y2="-2.450" stroke="#6b7280" stroke-width="0.100" stroke-linecap="round" opacity="0.8"/><line x1="0.650" y1="-2.595" x2="0.650" y2="-2.900" stroke="#6b7280" stroke-width="0.100" stroke-linecap="round" opacity="0.8"/><line x1="1.300" y1="-2.900" x2="1.300" y2="-2.020" stroke="#6b7280" stroke-width="0.100" stroke-linecap="round" opacity="0.8"/><line x1="1.300" y1="-2.580" x2="2.330" y2="-2.580" stroke="#6b7280" stroke-width="0.100" stroke-linecap="round" opacity="0.8"/><line x1="1.420" y1="-2.580" x2="1.420" y2="-2.900" stroke="#6b7280" stroke-width="0.100" stroke-linecap="round" opacity="0.8"/><line x1="1.550" y1="-1.770" x2="2.920" y2="-1.770" stroke="#6b7280" stroke-width="0.100" stroke-linecap="round" opacity="0.8"/><line x1="1.825" y1="1.100" x2="1.825" y2="0.800" stroke="#6b7280" stroke-width="0.100" stroke-linecap="round" opacity="0.8"/><line x1="1.870" y1="-1.390" x2="1.870" y2="-1.770" stroke="#6b7280" stroke-width="0.100" stroke-linecap="round" opacity="0.8"/><line x1="1.870" y1="-1.390" x2="2.980" y2="-1.390" stroke="#6b7280" stroke-width="0.100" stroke-linecap="round" opacity="0.8"/><line x1="1.911" y1="-2.580" x2="1.911" y2="-2.700" stroke="#6b7280" stroke-width="0.100" stroke-linecap="round" opacity="0.8"/><line x1="1.925" y1="1.200" x2="2.025" y2="1.200" stroke="#6b7280" stroke-width="0.100" stroke-linecap="round" opacity="0.8"/><line x1="1.995" y1="0.602" x2="1.995" y2="-0.170" stroke="#6b7280" stroke-width="0.100" stroke-linecap="round" opacity="0.8"/><line x1="2.025" y1="1.250" x2="2.725" y2="1.250" stroke="#6b7280" stroke-width="0.100" stroke-linecap="round" opacity="0.8"/><line x1="2.025" y1="1.350" x2="2.725" y2="1.350" stroke="#6b7280" stroke-width="0.100" stroke-linecap="round" opacity="0.8"/><line x1="2.025" y1="1.563" x2="2.725" y2="1.563" stroke="#6b7280" stroke-width="0.100" stroke-linecap="round" opacity="0.8"/><line x1="2.025" y1="1.742" x2="2.025" y2="1.200" stroke="#6b7280" stroke-width="0.100" stroke-linecap="round" opacity="0.8"/><line x1="2.025" y1="1.742" x2="2.725" y2="1.742" stroke="#6b7280" stroke-width="0.100" stroke-linecap="round" opacity="0.8"/><line x1="2.061" y1="-2.850" x2="3.750" y2="-2.850" stroke="#6b7280" stroke-width="0.100" stroke-linecap="round" opacity="0.8"/><line x1="2.125" y1="-0.300" x2="2.625" y2="-0.300" stroke="#6b7280" stroke-width="0.100" stroke-linecap="round" opacity="0.8"/><line x1="2.330" y1="-2.250" x2="2.330" y2="-2.580" stroke="#6b7280" stroke-width="0.100" stroke-linecap="round" opacity="0.8"/><line x1="2.330" y1="-2.250" x2="2.920" y2="-2.250" stroke="#6b7280" stroke-width="0.100" stroke-linecap="round" opacity="0.8"/><line x1="2.725" y1="1.200" x2="2.825" y2="1.200" stroke="#6b7280" stroke-width="0.100" stroke-linecap="round" opacity="0.8"/><line x1="2.725" y1="1.742" x2="2.725" y2="1.200" stroke="#6b7280" stroke-width="0.100" stroke-linecap="round" opacity="0.8"/><line x1="2.755" y1="-0.170" x2="2.755" y2="0.602" stroke="#6b7280" stroke-width="0.100" stroke-linecap="round" opacity="0.8"/><line x1="2.925" y1="1.100" x2="2.925" y2="0.800" stroke="#6b7280" stroke-width="0.100" stroke-linecap="round" opacity="0.8"/><line x1="2.980" y1="-1.390" x2="2.980" y2="-1.779" stroke="#6b7280" stroke-width="0.100" stroke-linecap="round" opacity="0.8"/><line x1="3.100" y1="2.150" x2="3.750" y2="2.150" stroke="#6b7280" stroke-width="0.100" stroke-linecap="round" opacity="0.8"/><line x1="3.100" y1="2.629" x2="3.100" y2="2.150" stroke="#6b7280" stroke-width="0.100" stroke-linecap="round" opacity="0.8"/><line x1="3.120" y1="-1.970" x2="3.120" y2="-2.050" stroke="#6b7280" stroke-width="0.100" stroke-linecap="round" opacity="0.8"/><line x1="3.531" y1="2.391" x2="3.689" y2="2.601" stroke="#6b7280" stroke-width="0.100" stroke-linecap="round" opacity="0.8"/><line x1="3.689" y1="2.601" x2="3.928" y2="2.420" stroke="#6b7280" stroke-width="0.100" stroke-linecap="round" opacity="0.8"/><line x1="3.750" y1="-2.850" x2="3.750" y2="2.150" stroke="#6b7280" stroke-width="0.100" stroke-linecap="round" opacity="0.8"/><line x1="3.770" y1="2.210" x2="3.928" y2="2.420" stroke="#6b7280" stroke-width="0.100" stroke-linecap="round" opacity="0.8"/><path d="M -3.750 2.150 A 0.100 0.100 0 0 1 -3.770 2.210" fill="none" stroke="#e6e9ef" stroke-width="0.12" opacity="1"/><path d="M -3.449 2.150 A 0.404 0.404 0 0 1 -3.531 2.391" fill="none" stroke="#e6e9ef" stroke-width="0.12" opacity="1"/><path d="M -2.950 2.571 A 0.138 0.138 0 0 1 -3.100 2.451" fill="none" stroke="#e6e9ef" stroke-width="0.12" opacity="1"/><path d="M -2.950 2.750 A 0.138 0.138 0 0 1 -3.100 2.629" fill="none" stroke="#e6e9ef" stroke-width="0.12" opacity="1"/><path d="M 3.100 2.451 A 0.138 0.138 0 0 1 2.950 2.571" fill="none" stroke="#e6e9ef" stroke-width="0.12" opacity="1"/><path d="M 3.100 2.629 A 0.138 0.138 0 0 1 2.950 2.750" fill="none" stroke="#e6e9ef" stroke-width="0.12" opacity="1"/><path d="M 3.531 2.391 A 0.401 0.401 0 0 1 3.450 2.150" fill="none" stroke="#e6e9ef" stroke-width="0.12" opacity="1"/><path d="M 3.770 2.210 A 0.100 0.100 0 0 1 3.750 2.150" fill="none" stroke="#e6e9ef" stroke-width="0.12" opacity="1"/><path d="M -3.750 -0.350 A 0.450 0.450 0 1 1 -2.850 -0.350" fill="none" stroke="#4a5160" stroke-width="0.12" opacity="0.7"/><path d="M -3.550 -0.350 A 0.250 0.250 0 0 1 -3.050 -0.350" fill="none" stroke="#4a5160" stroke-width="0.12" opacity="0.7"/><path d="M -3.050 0.350 A 0.250 0.250 0 0 1 -3.550 0.350" fill="none" stroke="#4a5160" stroke-width="0.12" opacity="0.7"/><path d="M -2.850 0.350 A 0.450 0.450 0 1 1 -3.750 0.350" fill="none" stroke="#4a5160" stroke-width="0.12" opacity="0.7"/><path d="M 2.850 -0.350 A 0.450 0.450 0 1 1 3.750 -0.350" fill="none" stroke="#4a5160" stroke-width="0.12" opacity="0.7"/><path d="M 3.050 -0.350 A 0.250 0.250 0 0 1 3.550 -0.350" fill="none" stroke="#4a5160" stroke-width="0.12" opacity="0.7"/><path d="M 3.550 0.350 A 0.250 0.250 0 0 1 3.050 0.350" fill="none" stroke="#4a5160" stroke-width="0.12" opacity="0.7"/><path d="M 3.750 0.350 A 0.450 0.450 0 1 1 2.850 0.350" fill="none" stroke="#4a5160" stroke-width="0.12" opacity="0.7"/><path d="M -3.750 2.150 A 0.100 0.100 0 0 1 -3.770 2.210" fill="none" stroke="#6b7280" stroke-width="0.12" opacity="0.8"/><path d="M -3.449 2.150 A 0.404 0.404 0 0 1 -3.531 2.391" fill="none" stroke="#6b7280" stroke-width="0.12" opacity="0.8"/><path d="M -3.120 -2.050 A 0.201 0.201 0 0 1 -2.905 -2.250" fill="none" stroke="#6b7280" stroke-width="0.12" opacity="0.8"/><path d="M -2.950 2.571 A 0.138 0.138 0 0 1 -3.100 2.451" fill="none" stroke="#6b7280" stroke-width="0.12" opacity="0.8"/><path d="M -2.950 2.750 A 0.138 0.138 0 0 1 -3.100 2.629" fill="none" stroke="#6b7280" stroke-width="0.12" opacity="0.8"/><path d="M -2.925 0.800 A 0.100 0.100 0 0 1 -2.840 0.701" fill="none" stroke="#6b7280" stroke-width="0.12" opacity="0.8"/><path d="M -2.922 -1.770 A 0.200 0.200 0 0 1 -3.120 -1.970" fill="none" stroke="#6b7280" stroke-width="0.12" opacity="0.8"/><path d="M -2.825 1.200 A 0.100 0.100 0 0 1 -2.925 1.100" fill="none" stroke="#6b7280" stroke-width="0.12" opacity="0.8"/><path d="M -2.755 -0.170 A 0.130 0.130 0 0 1 -2.625 -0.300" fill="none" stroke="#6b7280" stroke-width="0.12" opacity="0.8"/><path d="M -2.755 0.602 A 0.100 0.100 0 0 1 -2.840 0.701" fill="none" stroke="#6b7280" stroke-width="0.12" opacity="0.8"/><path d="M -2.125 -0.300 A 0.130 0.130 0 0 1 -1.995 -0.170" fill="none" stroke="#6b7280" stroke-width="0.12" opacity="0.8"/><path d="M -2.061 -2.850 A 0.150 0.150 0 0 1 -1.911 -2.700" fill="none" stroke="#6b7280" stroke-width="0.12" opacity="0.8"/><path d="M -1.910 0.701 A 0.100 0.100 0 0 1 -1.995 0.602" fill="none" stroke="#6b7280" stroke-width="0.12" opacity="0.8"/><path d="M -1.910 0.701 A 0.100 0.100 0 0 1 -1.825 0.800" fill="none" stroke="#6b7280" stroke-width="0.12" opacity="0.8"/><path d="M -1.825 1.100 A 0.100 0.100 0 0 1 -1.925 1.200" fill="none" stroke="#6b7280" stroke-width="0.12" opacity="0.8"/><path d="M -1.300 -2.020 A 0.250 0.250 0 0 1 -1.550 -1.770" fill="none" stroke="#6b7280" stroke-width="0.12" opacity="0.8"/><path d="M -0.500 -2.450 A 0.150 0.150 0 0 1 -0.650 -2.600" fill="none" stroke="#6b7280" stroke-width="0.12" opacity="0.8"/><path d="M 0.650 -2.595 A 0.150 0.150 0 0 1 0.500 -2.450" fill="none" stroke="#6b7280" stroke-width="0.12" opacity="0.8"/><path d="M 1.550 -1.770 A 0.250 0.250 0 0 1 1.300 -2.020" fill="none" stroke="#6b7280" stroke-width="0.12" opacity="0.8"/><path d="M 1.825 0.800 A 0.100 0.100 0 0 1 1.910 0.701" fill="none" stroke="#6b7280" stroke-width="0.12" opacity="0.8"/><path d="M 1.911 -2.700 A 0.150 0.150 0 0 1 2.061 -2.850" fill="none" stroke="#6b7280" stroke-width="0.12" opacity="0.8"/><path d="M 1.925 1.200 A 0.100 0.100 0 0 1 1.825 1.100" fill="none" stroke="#6b7280" stroke-width="0.12" opacity="0.8"/><path d="M 1.995 -0.170 A 0.130 0.130 0 0 1 2.125 -0.300" fill="none" stroke="#6b7280" stroke-width="0.12" opacity="0.8"/><path d="M 1.995 0.602 A 0.100 0.100 0 0 1 1.910 0.701" fill="none" stroke="#6b7280" stroke-width="0.12" opacity="0.8"/><path d="M 2.625 -0.300 A 0.130 0.130 0 0 1 2.755 -0.170" fill="none" stroke="#6b7280" stroke-width="0.12" opacity="0.8"/><path d="M 2.840 0.701 A 0.100 0.100 0 0 1 2.925 0.800" fill="none" stroke="#6b7280" stroke-width="0.12" opacity="0.8"/><path d="M 2.840 0.701 A 0.100 0.100 0 0 1 2.755 0.602" fill="none" stroke="#6b7280" stroke-width="0.12" opacity="0.8"/><path d="M 2.920 -2.250 A 0.200 0.200 0 0 1 3.120 -2.050" fill="none" stroke="#6b7280" stroke-width="0.12" opacity="0.8"/><path d="M 2.925 1.100 A 0.100 0.100 0 0 1 2.825 1.200" fill="none" stroke="#6b7280" stroke-width="0.12" opacity="0.8"/><path d="M 3.100 2.451 A 0.138 0.138 0 0 1 2.950 2.571" fill="none" stroke="#6b7280" stroke-width="0.12" opacity="0.8"/><path d="M 3.100 2.629 A 0.138 0.138 0 0 1 2.950 2.750" fill="none" stroke="#6b7280" stroke-width="0.12" opacity="0.8"/><path d="M 3.120 -1.970 A 0.200 0.200 0 0 1 2.920 -1.770" fill="none" stroke="#6b7280" stroke-width="0.12" opacity="0.8"/><path d="M 3.531 2.391 A 0.401 0.401 0 0 1 3.450 2.150" fill="none" stroke="#6b7280" stroke-width="0.12" opacity="0.8"/><path d="M 3.770 2.210 A 0.100 0.100 0 0 1 3.750 2.150" fill="none" stroke="#6b7280" stroke-width="0.12" opacity="0.8"/><circle cx="-1.325" cy="-3.900" r="0.125" fill="none" stroke="#e6e9ef" stroke-width="0.12" opacity="1"/><circle cx="-1.325" cy="-3.900" r="0.125" fill="none" stroke="#6b7280" stroke-width="0.12" opacity="0.8"/><rect x="-1.500" y="-3.350" width="0.400" height="1.350" rx="0.000" fill="#c79b5c"/><rect x="-0.850" y="-3.350" width="0.400" height="1.350" rx="0.000" fill="#c79b5c"/><rect x="-0.200" y="-3.350" width="0.400" height="1.350" rx="0.000" fill="#c79b5c"/><rect x="0.450" y="-3.350" width="0.400" height="1.350" rx="0.000" fill="#c79b5c"/><rect x="1.100" y="-3.350" width="0.400" height="1.350" rx="0.000" fill="#c79b5c"/><rect x="-3.750" y="-0.800" width="0.900" height="1.600" rx="0.450" fill="#c79b5c"/><rect x="-3.550" y="-0.600" width="0.500" height="1.200" rx="0.250" fill="#12151c"/><rect x="-4.000" y="-3.150" width="1.600" height="1.400" rx="0.000" fill="#c79b5c"/><rect x="-2.150" y="-0.950" width="1.900" height="1.900" rx="0.000" fill="#c79b5c"/><rect x="0.250" y="-0.950" width="1.900" height="1.900" rx="0.000" fill="#c79b5c"/><rect x="2.400" y="-3.150" width="1.600" height="1.400" rx="0.000" fill="#c79b5c"/><rect x="2.850" y="-0.800" width="0.900" height="1.600" rx="0.450" fill="#c79b5c"/><rect x="3.050" y="-0.600" width="0.500" height="1.200" rx="0.250" fill="#12151c"/></svg>