<svg xmlns="http://www.w3.org/2000/svg" viewBox="-4.04 -3.05 11.89 12.22" preserveAspectRatio="xMidYMid meet" style="width:100%;height:100%"><rect x="-4.04" y="-3.05" width="11.89" height="12.22" fill="#12151c"/><polyline points="0.000,-0.000 0.000,1.778" fill="none" stroke="#4ea1ff" stroke-width="0.25" stroke-linejoin="round"/><polyline points="0.000,5.842 0.000,7.620" fill="none" stroke="#4ea1ff" stroke-width="0.25" stroke-linejoin="round"/><polyline points="1.778,1.778 1.778,5.842" fill="none" stroke="#4ea1ff" stroke-width="0.25" stroke-linejoin="round"/><polyline points="2.032,5.842 2.032,1.778" fill="none" stroke="#4ea1ff" stroke-width="0.25" stroke-linejoin="round"/><polyline points="3.810,-0.000 3.810,1.778" fill="none" stroke="#4ea1ff" stroke-width="0.25" stroke-linejoin="round"/><polyline points="3.810,5.842 3.810,7.620" fill="none" stroke="#4ea1ff" stroke-width="0.25" stroke-linejoin="round"/><circle cx="1.270" cy="6.350" r="0.254" fill="none" stroke="#4ea1ff" stroke-width="0.25"/><circle cx="2.540" cy="6.350" r="0.254" fill="none" stroke="#4ea1ff" stroke-width="0.25"/><path d="M 0.000 3.175 C 0.701 3.175 1.270 2.891 1.270 2.540" fill="none" stroke="#4ea1ff" stroke-width="0.25"/><path d="M 0.000 4.445 C 0.701 4.445 1.270 4.161 1.270 3.810" fill="none" stroke="#4ea1ff" stroke-width="0.25"/><path d="M 0.000 5.715 C 0.701 5.715 1.270 5.431 1.270 5.080" fill="none" stroke="#4ea1ff" stroke-width="0.25"/><path d="M 1.270 2.540 C 1.270 2.189 0.701 1.905 0.000 1.905" fill="none" stroke="#4ea1ff" stroke-width="0.25"/><path d="M 1.270 3.810 C 1.270 3.459 0.701 3.175 0.000 3.175" fill="none" stroke="#4ea1ff" stroke-width="0.25"/><path d="M 1.270 5.080 C 1.270 4.729 0.701 4.445 0.000 4.445" fill="none" stroke="#4ea1ff" stroke-width="0.25"/><path d="M 2.540 2.540 C 2.540 2.891 3.108 3.175 3.810 3.175" fill="none" stroke="#4ea1ff" stroke-width="0.25"/><path d="M 2.540 3.810 C 2.540 4.161 3.108 4.445 3.810 4.445" fill="none" stroke="#4ea1ff" stroke-width="0.25"/><path d="M 2.540 5.080 C 2.540 5.431 3.108 5.715 3.810 5.715" fill="none" stroke="#4ea1ff" stroke-width="0.25"/><path d="M 3.810 1.905 C 3.108 1.905 2.540 2.189 2.540 2.540" fill="none" stroke="#4ea1ff" stroke-width="0.25"/><path d="M 3.810 3.175 C 3.108 3.175 2.540 3.459 2.540 3.810" fill="none" stroke="#4ea1ff" stroke-width="0.25"/><path d="M 3.810 4.445 C 3.108 4.445 2.540 4.729 2.540 5.080" fill="none" stroke="#4ea1ff" stroke-width="0.25"/><line x1="-2.540" y1="-0.000" x2="0.000" y2="-0.000" stroke="#e6e9ef" stroke-width="0.2"/><circle cx="-2.540" cy="-0.000" r="0.4" fill="#4ea1ff"/><text x="-0.300" y="-0.350" fill="#9aa3b2" font-size="0.9" text-anchor="end" font-family="sans-serif">4</text><line x1="-2.540" y1="7.620" x2="0.000" y2="7.620" stroke="#e6e9ef" stroke-width="0.2"/><circle cx="-2.540" cy="7.620" r="0.4" fill="#4ea1ff"/><text x="-0.300" y="7.270" fill="#9aa3b2" font-size="0.9" text-anchor="end" font-family="sans-serif">1</text><line x1="6.350" y1="-0.000" x2="3.810" y2="-0.000" stroke="#e6e9ef" stroke-width="0.2"/><circle cx="6.350" cy="-0.000" r="0.4" fill="#4ea1ff"/><text x="4.110" y="-0.350" fill="#9aa3b2" font-size="0.9" text-anchor="start" font-family="sans-serif">3</text><line x1="6.350" y1="7.620" x2="3.810" y2="7.620" stroke="#e6e9ef" stroke-width="0.2"/><circle cx="6.350" cy="7.620" r="0.4" fill="#4ea1ff"/><text x="4.110" y="7.270" fill="#9aa3b2" font-size="0.9" text-anchor="start" font-family="sans-serif">2</text></svg>