<svg xmlns="http://www.w3.org/2000/svg" viewBox="-28.84 -5.77 57.68 11.53" preserveAspectRatio="xMidYMid meet" style="width:100%;height:100%"><rect x="-28.84" y="-5.77" width="57.68" height="11.53" fill="#12151c"/><circle cx="-27.190" cy="3.050" r="0.250" fill="none" stroke="#6b7280" stroke-width="0.1"/><circle cx="27.190" cy="0.000" r="0.250" fill="none" stroke="#6b7280" stroke-width="0.1"/><rect x="24.446" y="-4.765" width="0.640" height="0.640" rx="0.320" fill="#c79b5c"/><rect x="24.446" y="-3.495" width="0.640" height="0.640" rx="0.320" fill="#c79b5c"/><rect x="24.446" y="-2.225" width="0.640" height="0.640" rx="0.320" fill="#c79b5c"/><rect x="24.446" y="-0.955" width="0.640" height="0.640" rx="0.320" fill="#c79b5c"/><rect x="24.446" y="0.315" width="0.640" height="0.640" rx="0.320" fill="#c79b5c"/><rect x="24.446" y="1.585" width="0.640" height="0.640" rx="0.320" fill="#c79b5c"/><rect x="24.446" y="2.855" width="0.640" height="0.640" rx="0.320" fill="#c79b5c"/><rect x="24.446" y="4.125" width="0.640" height="0.640" rx="0.320" fill="#c79b5c"/><rect x="23.176" y="-4.765" width="0.640" height="0.640" rx="0.320" fill="#c79b5c"/><rect x="23.176" y="-3.495" width="0.640" height="0.640" rx="0.320" fill="#c79b5c"/><rect x="23.176" y="-2.225" width="0.640" height="0.640" rx="0.320" fill="#c79b5c"/><rect x="23.176" y="-0.955" width="0.640" height="0.640" rx="0.320" fill="#c79b5c"/><rect x="23.176" y="0.315" width="0.640" height="0.640" rx="0.320" fill="#c79b5c"/><rect x="23.176" y="1.585" width="0.640" height="0.640" rx="0.320" fill="#c79b5c"/><rect x="23.176" y="2.855" width="0.640" height="0.640" rx="0.320" fill="#c79b5c"/><rect x="23.176" y="4.125" width="0.640" height="0.640" rx="0.320" fill="#c79b5c"/><rect x="21.906" y="-4.765" width="0.640" height="0.640" rx="0.320" fill="#c79b5c"/><rect x="21.906" y="-3.495" width="0.640" height="0.640" rx="0.320" fill="#c79b5c"/><rect x="21.906" y="-2.225" width="0.640" height="0.640" rx="0.320" fill="#c79b5c"/><rect x="21.906" y="-0.955" width="0.640" height="0.640" rx="0.320" fill="#c79b5c"/><rect x="21.906" y="0.315" width="0.640" height="0.640" rx="0.320" fill="#c79b5c"/><rect x="21.906" y="1.585" width="0.640" height="0.640" rx="0.320" fill="#c79b5c"/><rect x="21.906" y="2.855" width="0.640" height="0.640" rx="0.320" fill="#c79b5c"/><rect x="21.906" y="4.125" width="0.640" height="0.640" rx="0.320" fill="#c79b5c"/><rect x="20.636" y="-4.765" width="0.640" height="0.640" rx="0.320" fill="#c79b5c"/><rect x="20.636" y="-3.495" width="0.640" height="0.640" rx="0.320" fill="#c79b5c"/><rect x="20.636" y="-2.225" width="0.640" height="0.640" rx="0.320" fill="#c79b5c"/><rect x="20.636" y="-0.955" width="0.640" height="0.640" rx="0.320" fill="#c79b5c"/><rect x="20.636" y="0.315" width="0.640" height="0.640" rx="0.320" fill="#c79b5c"/><rect x="20.636" y="1.585" width="0.640" height="0.640" rx="0.320" fill="#c79b5c"/><rect x="20.636" y="2.855" width="0.640" height="0.640" rx="0.320" fill="#c79b5c"/><rect x="20.636" y="4.125" width="0.640" height="0.640" rx="0.320" fill="#c79b5c"/><rect x="19.366" y="-4.765" width="0.640" height="0.640" rx="0.320" fill="#c79b5c"/><rect x="19.366" y="-3.495" width="0.640" height="0.640" rx="0.320" fill="#c79b5c"/><rect x="19.366" y="-2.225" width="0.640" height="0.640" rx="0.320" fill="#c79b5c"/><rect x="19.366" y="-0.955" width="0.640" height="0.640" rx="0.320" fill="#c79b5c"/><rect x="19.366" y="0.315" width="0.640" height="0.640" rx="0.320" fill="#c79b5c"/><rect x="19.366" y="1.585" width="0.640" height="0.640" rx="0.320" fill="#c79b5c"/><rect x="19.366" y="2.855" width="0.640" height="0.640" rx="0.320" fill="#c79b5c"/><rect x="19.366" y="4.125" width="0.640" height="0.640" rx="0.320" fill="#c79b5c"/><rect x="18.096" y="-4.765" width="0.640" height="0.640" rx="0.320" fill="#c79b5c"/><rect x="18.096" y="-3.495" width="0.640" height="0.640" rx="0.320" fill="#c79b5c"/><rect x="18.096" y="-2.225" width="0.640" height="0.640" rx="0.320" fill="#c79b5c"/><rect x="18.096" y="-0.955" width="0.640" height="0.640" rx="0.320" fill="#c79b5c"/><rect x="18.096" y="0.315" width="0.640" height="0.640" rx="0.320" fill="#c79b5c"/><rect x="18.096" y="1.585" width="0.640" height="0.640" rx="0.320" fill="#c79b5c"/><rect x="18.096" y="2.855" width="0.640" height="0.640" rx="0.320" fill="#c79b5c"/><rect x="18.096" y="4.125" width="0.640" height="0.640" rx="0.320" fill="#c79b5c"/><rect x="16.826" y="-4.765" width="0.640" height="0.640" rx="0.320" fill="#c79b5c"/><rect x="16.826" y="-3.495" width="0.640" height="0.640" rx="0.320" fill="#c79b5c"/><rect x="16.826" y="-2.225" width="0.640" height="0.640" rx="0.320" fill="#c79b5c"/><rect x="16.826" y="-0.955" width="0.640" height="0.640" rx="0.320" fill="#c79b5c"/><rect x="16.826" y="0.315" width="0.640" height="0.640" rx="0.320" fill="#c79b5c"/><rect x="16.826" y="1.585" width="0.640" height="0.640" rx="0.320" fill="#c79b5c"/><rect x="16.826" y="2.855" width="0.640" height="0.640" rx="0.320" fill="#c79b5c"/><rect x="16.826" y="4.125" width="0.640" height="0.640" rx="0.320" fill="#c79b5c"/><rect x="15.556" y="-4.765" width="0.640" height="0.640" rx="0.320" fill="#c79b5c"/><rect x="15.556" y="-3.495" width="0.640" height="0.640" rx="0.320" fill="#c79b5c"/><rect x="15.556" y="-2.225" width="0.640" height="0.640" rx="0.320" fill="#c79b5c"/><rect x="15.556" y="-0.955" width="0.640" height="0.640" rx="0.320" fill="#c79b5c"/><rect x="15.556" y="0.315" width="0.640" height="0.640" rx="0.320" fill="#c79b5c"/><rect x="15.556" y="1.585" width="0.640" height="0.640" rx="0.320" fill="#c79b5c"/><rect x="15.556" y="2.855" width="0.640" height="0.640" rx="0.320" fill="#c79b5c"/><rect x="15.556" y="4.125" width="0.640" height="0.640" rx="0.320" fill="#c79b5c"/><rect x="14.286" y="-4.765" width="0.640" height="0.640" rx="0.320" fill="#c79b5c"/><rect x="14.286" y="-3.495" width="0.640" height="0.640" rx="0.320" fill="#c79b5c"/><rect x="14.286" y="-2.225" width="0.640" height="0.640" rx="0.320" fill="#c79b5c"/><rect x="14.286" y="-0.955" width="0.640" height="0.640" rx="0.320" fill="#c79b5c"/><rect x="14.286" y="0.315" width="0.640" height="0.640" rx="0.320" fill="#c79b5c"/><rect x="14.286" y="1.585" width="0.640" height="0.640" rx="0.320" fill="#c79b5c"/><rect x="14.286" y="2.855" width="0.640" height="0.640" rx="0.320" fill="#c79b5c"/><rect x="14.286" y="4.125" width="0.640" height="0.640" rx="0.320" fill="#c79b5c"/><rect x="13.016" y="-4.765" width="0.640" height="0.640" rx="0.320" fill="#c79b5c"/><rect x="13.016" y="-3.495" width="0.640" height="0.640" rx="0.320" fill="#c79b5c"/><rect x="13.016" y="-2.225" width="0.640" height="0.640" rx="0.320" fill="#c79b5c"/><rect x="13.016" y="-0.955" width="0.640" height="0.640" rx="0.320" fill="#c79b5c"/><rect x="13.016" y="0.315" width="0.640" height="0.640" rx="0.320" fill="#c79b5c"/><rect x="13.016" y="1.585" width="0.640" height="0.640" rx="0.320" fill="#c79b5c"/><rect x="13.016" y="2.855" width="0.640" height="0.640" rx="0.320" fill="#c79b5c"/><rect x="13.016" y="4.125" width="0.640" height="0.640" rx="0.320" fill="#c79b5c"/><rect x="11.746" y="-4.765" width="0.640" height="0.640" rx="0.320" fill="#c79b5c"/><rect x="11.746" y="-3.495" width="0.640" height="0.640" rx="0.320" fill="#c79b5c"/><rect x="11.746" y="-2.225" width="0.640" height="0.640" rx="0.320" fill="#c79b5c"/><rect x="11.746" y="-0.955" width="0.640" height="0.640" rx="0.320" fill="#c79b5c"/><rect x="11.746" y="0.315" width="0.640" height="0.640" rx="0.320" fill="#c79b5c"/><rect x="11.746" y="1.585" width="0.640" height="0.640" rx="0.320" fill="#c79b5c"/><rect x="11.746" y="2.855" width="0.640" height="0.640" rx="0.320" fill="#c79b5c"/><rect x="11.746" y="4.125" width="0.640" height="0.640" rx="0.320" fill="#c79b5c"/><rect x="10.476" y="-4.765" width="0.640" height="0.640" rx="0.320" fill="#c79b5c"/><rect x="10.476" y="-3.495" width="0.640" height="0.640" rx="0.320" fill="#c79b5c"/><rect x="10.476" y="-2.225" width="0.640" height="0.640" rx="0.320" fill="#c79b5c"/><rect x="10.476" y="-0.955" width="0.640" height="0.640" rx="0.320" fill="#c79b5c"/><rect x="10.476" y="0.315" width="0.640" height="0.640" rx="0.320" fill="#c79b5c"/><rect x="10.476" y="1.585" width="0.640" height="0.640" rx="0.320" fill="#c79b5c"/><rect x="10.476" y="2.855" width="0.640" height="0.640" rx="0.320" fill="#c79b5c"/><rect x="10.476" y="4.125" width="0.640" height="0.640" rx="0.320" fill="#c79b5c"/><rect x="9.206" y="-4.765" width="0.640" height="0.640" rx="0.320" fill="#c79b5c"/><rect x="9.206" y="-3.495" width="0.640" height="0.640" rx="0.320" fill="#c79b5c"/><rect x="9.206" y="-2.225" width="0.640" height="0.640" rx="0.320" fill="#c79b5c"/><rect x="9.206" y="-0.955" width="0.640" height="0.640" rx="0.320" fill="#c79b5c"/><rect x="9.206" y="0.315" width="0.640" height="0.640" rx="0.320" fill="#c79b5c"/><rect x="9.206" y="1.585" width="0.640" height="0.640" rx="0.320" fill="#c79b5c"/><rect x="9.206" y="2.855" width="0.640" height="0.640" rx="0.320" fill="#c79b5c"/><rect x="9.206" y="4.125" width="0.640" height="0.640" rx="0.320" fill="#c79b5c"/><rect x="7.936" y="-4.765" width="0.640" height="0.640" rx="0.320" fill="#c79b5c"/><rect x="7.936" y="-3.495" width="0.640" height="0.640" rx="0.320" fill="#c79b5c"/><rect x="7.936" y="-2.225" width="0.640" height="0.640" rx="0.320" fill="#c79b5c"/><rect x="7.936" y="-0.955" width="0.640" height="0.640" rx="0.320" fill="#c79b5c"/><rect x="7.936" y="0.315" width="0.640" height="0.640" rx="0.320" fill="#c79b5c"/><rect x="7.936" y="1.585" width="0.640" height="0.640" rx="0.320" fill="#c79b5c"/><rect x="7.936" y="2.855" width="0.640" height="0.640" rx="0.320" fill="#c79b5c"/><rect x="7.936" y="4.125" width="0.640" height="0.640" rx="0.320" fill="#c79b5c"/><rect x="6.666" y="-4.765" width="0.640" height="0.640" rx="0.320" fill="#c79b5c"/><rect x="6.666" y="-3.495" width="0.640" height="0.640" rx="0.320" fill="#c79b5c"/><rect x="6.666" y="-2.225" width="0.640" height="0.640" rx="0.320" fill="#c79b5c"/><rect x="6.666" y="-0.955" width="0.640" height="0.640" rx="0.320" fill="#c79b5c"/><rect x="6.666" y="0.315" width="0.640" height="0.640" rx="0.320" fill="#c79b5c"/><rect x="6.666" y="1.585" width="0.640" height="0.640" rx="0.320" fill="#c79b5c"/><rect x="6.666" y="2.855" width="0.640" height="0.640" rx="0.320" fill="#c79b5c"/><rect x="6.666" y="4.125" width="0.640" height="0.640" rx="0.320" fill="#c79b5c"/><rect x="5.396" y="-4.765" width="0.640" height="0.640" rx="0.320" fill="#c79b5c"/><rect x="5.396" y="-3.495" width="0.640" height="0.640" rx="0.320" fill="#c79b5c"/><rect x="5.396" y="-2.225" width="0.640" height="0.640" rx="0.320" fill="#c79b5c"/><rect x="5.396" y="-0.955" width="0.640" height="0.640" rx="0.320" fill="#c79b5c"/><rect x="5.396" y="0.315" width="0.640" height="0.640" rx="0.320" fill="#c79b5c"/><rect x="5.396" y="1.585" width="0.640" height="0.640" rx="0.320" fill="#c79b5c"/><rect x="5.396" y="2.855" width="0.640" height="0.640" rx="0.320" fill="#c79b5c"/><rect x="5.396" y="4.125" width="0.640" height="0.640" rx="0.320" fill="#c79b5c"/><rect x="4.126" y="-4.765" width="0.640" height="0.640" rx="0.320" fill="#c79b5c"/><rect x="4.126" y="-3.495" width="0.640" height="0.640" rx="0.320" fill="#c79b5c"/><rect x="4.126" y="-2.225" width="0.640" height="0.640" rx="0.320" fill="#c79b5c"/><rect x="4.126" y="-0.955" width="0.640" height="0.640" rx="0.320" fill="#c79b5c"/><rect x="4.126" y="0.315" width="0.640" height="0.640" rx="0.320" fill="#c79b5c"/><rect x="4.126" y="1.585" width="0.640" height="0.640" rx="0.320" fill="#c79b5c"/><rect x="4.126" y="2.855" width="0.640" height="0.640" rx="0.320" fill="#c79b5c"/><rect x="4.126" y="4.125" width="0.640" height="0.640" rx="0.320" fill="#c79b5c"/><rect x="2.856" y="-4.765" width="0.640" height="0.640" rx="0.320" fill="#c79b5c"/><rect x="2.856" y="-3.495" width="0.640" height="0.640" rx="0.320" fill="#c79b5c"/><rect x="2.856" y="-2.225" width="0.640" height="0.640" rx="0.320" fill="#c79b5c"/><rect x="2.856" y="-0.955" width="0.640" height="0.640" rx="0.320" fill="#c79b5c"/><rect x="2.856" y="0.315" width="0.640" height="0.640" rx="0.320" fill="#c79b5c"/><rect x="2.856" y="1.585" width="0.640" height="0.640" rx="0.320" fill="#c79b5c"/><rect x="2.856" y="2.855" width="0.640" height="0.640" rx="0.320" fill="#c79b5c"/><rect x="2.856" y="4.125" width="0.640" height="0.640" rx="0.320" fill="#c79b5c"/><rect x="1.586" y="-4.765" width="0.640" height="0.640" rx="0.320" fill="#c79b5c"/><rect x="1.586" y="-3.495" width="0.640" height="0.640" rx="0.320" fill="#c79b5c"/><rect x="1.586" y="-2.225" width="0.640" height="0.640" rx="0.320" fill="#c79b5c"/><rect x="1.586" y="-0.955" width="0.640" height="0.640" rx="0.320" fill="#c79b5c"/><rect x="1.586" y="0.315" width="0.640" height="0.640" rx="0.320" fill="#c79b5c"/><rect x="1.586" y="1.585" width="0.640" height="0.640" rx="0.320" fill="#c79b5c"/><rect x="1.586" y="2.855" width="0.640" height="0.640" rx="0.320" fill="#c79b5c"/><rect x="1.586" y="4.125" width="0.640" height="0.640" rx="0.320" fill="#c79b5c"/><rect x="0.316" y="-4.765" width="0.640" height="0.640" rx="0.320" fill="#c79b5c"/><rect x="0.316" y="-3.495" width="0.640" height="0.640" rx="0.320" fill="#c79b5c"/><rect x="0.316" y="-2.225" width="0.640" height="0.640" rx="0.320" fill="#c79b5c"/><rect x="0.316" y="-0.955" width="0.640" height="0.640" rx="0.320" fill="#c79b5c"/><rect x="0.316" y="0.315" width="0.640" height="0.640" rx="0.320" fill="#c79b5c"/><rect x="0.316" y="1.585" width="0.640" height="0.640" rx="0.320" fill="#c79b5c"/><rect x="0.316" y="2.855" width="0.640" height="0.640" rx="0.320" fill="#c79b5c"/><rect x="0.316" y="4.125" width="0.640" height="0.640" rx="0.320" fill="#c79b5c"/><rect x="-0.954" y="-4.765" width="0.640" height="0.640" rx="0.320" fill="#c79b5c"/><rect x="-0.954" y="-3.495" width="0.640" height="0.640" rx="0.320" fill="#c79b5c"/><rect x="-0.954" y="-2.225" width="0.640" height="0.640" rx="0.320" fill="#c79b5c"/><rect x="-0.954" y="-0.955" width="0.640" height="0.640" rx="0.320" fill="#c79b5c"/><rect x="-0.954" y="0.315" width="0.640" height="0.640" rx="0.320" fill="#c79b5c"/><rect x="-0.954" y="1.585" width="0.640" height="0.640" rx="0.320" fill="#c79b5c"/><rect x="-0.954" y="2.855" width="0.640" height="0.640" rx="0.320" fill="#c79b5c"/><rect x="-0.954" y="4.125" width="0.640" height="0.640" rx="0.320" fill="#c79b5c"/><rect x="-2.224" y="-4.765" width="0.640" height="0.640" rx="0.320" fill="#c79b5c"/><rect x="-2.224" y="-3.495" width="0.640" height="0.640" rx="0.320" fill="#c79b5c"/><rect x="-2.224" y="-2.225" width="0.640" height="0.640" rx="0.320" fill="#c79b5c"/><rect x="-2.224" y="-0.955" width="0.640" height="0.640" rx="0.320" fill="#c79b5c"/><rect x="-2.224" y="0.315" width="0.640" height="0.640" rx="0.320" fill="#c79b5c"/><rect x="-2.224" y="1.585" width="0.640" height="0.640" rx="0.320" fill="#c79b5c"/><rect x="-2.224" y="2.855" width="0.640" height="0.640" rx="0.320" fill="#c79b5c"/><rect x="-2.224" y="4.125" width="0.640" height="0.640" rx="0.320" fill="#c79b5c"/><rect x="-3.494" y="-4.765" width="0.640" height="0.640" rx="0.320" fill="#c79b5c"/><rect x="-3.494" y="-3.495" width="0.640" height="0.640" rx="0.320" fill="#c79b5c"/><rect x="-3.494" y="-2.225" width="0.640" height="0.640" rx="0.320" fill="#c79b5c"/><rect x="-3.494" y="-0.955" width="0.640" height="0.640" rx="0.320" fill="#c79b5c"/><rect x="-3.494" y="0.315" width="0.640" height="0.640" rx="0.320" fill="#c79b5c"/><rect x="-3.494" y="1.585" width="0.640" height="0.640" rx="0.320" fill="#c79b5c"/><rect x="-3.494" y="2.855" width="0.640" height="0.640" rx="0.320" fill="#c79b5c"/><rect x="-3.494" y="4.125" width="0.640" height="0.640" rx="0.320" fill="#c79b5c"/><rect x="-4.764" y="-4.765" width="0.640" height="0.640" rx="0.320" fill="#c79b5c"/><rect x="-4.764" y="-3.495" width="0.640" height="0.640" rx="0.320" fill="#c79b5c"/><rect x="-4.764" y="-2.225" width="0.640" height="0.640" rx="0.320" fill="#c79b5c"/><rect x="-4.764" y="-0.955" width="0.640" height="0.640" rx="0.320" fill="#c79b5c"/><rect x="-4.764" y="0.315" width="0.640" height="0.640" rx="0.320" fill="#c79b5c"/><rect x="-4.764" y="1.585" width="0.640" height="0.640" rx="0.320" fill="#c79b5c"/><rect x="-4.764" y="2.855" width="0.640" height="0.640" rx="0.320" fill="#c79b5c"/><rect x="-4.764" y="4.125" width="0.640" height="0.640" rx="0.320" fill="#c79b5c"/><rect x="-6.034" y="-4.765" width="0.640" height="0.640" rx="0.320" fill="#c79b5c"/><rect x="-6.034" y="-3.495" width="0.640" height="0.640" rx="0.320" fill="#c79b5c"/><rect x="-6.034" y="-2.225" width="0.640" height="0.640" rx="0.320" fill="#c79b5c"/><rect x="-6.034" y="-0.955" width="0.640" height="0.640" rx="0.320" fill="#c79b5c"/><rect x="-6.034" y="0.315" width="0.640" height="0.640" rx="0.320" fill="#c79b5c"/><rect x="-6.034" y="1.585" width="0.640" height="0.640" rx="0.320" fill="#c79b5c"/><rect x="-6.034" y="2.855" width="0.640" height="0.640" rx="0.320" fill="#c79b5c"/><rect x="-6.034" y="4.125" width="0.640" height="0.640" rx="0.320" fill="#c79b5c"/><rect x="-7.304" y="-4.765" width="0.640" height="0.640" rx="0.320" fill="#c79b5c"/><rect x="-7.304" y="-3.495" width="0.640" height="0.640" rx="0.320" fill="#c79b5c"/><rect x="-7.304" y="-2.225" width="0.640" height="0.640" rx="0.320" fill="#c79b5c"/><rect x="-7.304" y="-0.955" width="0.640" height="0.640" rx="0.320" fill="#c79b5c"/><rect x="-7.304" y="0.315" width="0.640" height="0.640" rx="0.320" fill="#c79b5c"/><rect x="-7.304" y="1.585" width="0.640" height="0.640" rx="0.320" fill="#c79b5c"/><rect x="-7.304" y="2.855" width="0.640" height="0.640" rx="0.320" fill="#c79b5c"/><rect x="-7.304" y="4.125" width="0.640" height="0.640" rx="0.320" fill="#c79b5c"/><rect x="-8.574" y="-4.765" width="0.640" height="0.640" rx="0.320" fill="#c79b5c"/><rect x="-8.574" y="-3.495" width="0.640" height="0.640" rx="0.320" fill="#c79b5c"/><rect x="-8.574" y="-2.225" width="0.640" height="0.640" rx="0.320" fill="#c79b5c"/><rect x="-8.574" y="-0.955" width="0.640" height="0.640" rx="0.320" fill="#c79b5c"/><rect x="-8.574" y="0.315" width="0.640" height="0.640" rx="0.320" fill="#c79b5c"/><rect x="-8.574" y="1.585" width="0.640" height="0.640" rx="0.320" fill="#c79b5c"/><rect x="-8.574" y="2.855" width="0.640" height="0.640" rx="0.320" fill="#c79b5c"/><rect x="-8.574" y="4.125" width="0.640" height="0.640" rx="0.320" fill="#c79b5c"/><rect x="-9.844" y="-4.765" width="0.640" height="0.640" rx="0.320" fill="#c79b5c"/><rect x="-9.844" y="-3.495" width="0.640" height="0.640" rx="0.320" fill="#c79b5c"/><rect x="-9.844" y="-2.225" width="0.640" height="0.640" rx="0.320" fill="#c79b5c"/><rect x="-9.844" y="-0.955" width="0.640" height="0.640" rx="0.320" fill="#c79b5c"/><rect x="-9.844" y="0.315" width="0.640" height="0.640" rx="0.320" fill="#c79b5c"/><rect x="-9.844" y="1.585" width="0.640" height="0.640" rx="0.320" fill="#c79b5c"/><rect x="-9.844" y="2.855" width="0.640" height="0.640" rx="0.320" fill="#c79b5c"/><rect x="-9.844" y="4.125" width="0.640" height="0.640" rx="0.320" fill="#c79b5c"/><rect x="-11.114" y="-4.765" width="0.640" height="0.640" rx="0.320" fill="#c79b5c"/><rect x="-11.114" y="-3.495" width="0.640" height="0.640" rx="0.320" fill="#c79b5c"/><rect x="-11.114" y="-2.225" width="0.640" height="0.640" rx="0.320" fill="#c79b5c"/><rect x="-11.114" y="-0.955" width="0.640" height="0.640" rx="0.320" fill="#c79b5c"/><rect x="-11.114" y="0.315" width="0.640" height="0.640" rx="0.320" fill="#c79b5c"/><rect x="-11.114" y="1.585" width="0.640" height="0.640" rx="0.320" fill="#c79b5c"/><rect x="-11.114" y="2.855" width="0.640" height="0.640" rx="0.320" fill="#c79b5c"/><rect x="-11.114" y="4.125" width="0.640" height="0.640" rx="0.320" fill="#c79b5c"/><rect x="-12.384" y="-4.765" width="0.640" height="0.640" rx="0.320" fill="#c79b5c"/><rect x="-12.384" y="-3.495" width="0.640" height="0.640" rx="0.320" fill="#c79b5c"/><rect x="-12.384" y="-2.225" width="0.640" height="0.640" rx="0.320" fill="#c79b5c"/><rect x="-12.384" y="-0.955" width="0.640" height="0.640" rx="0.320" fill="#c79b5c"/><rect x="-12.384" y="0.315" width="0.640" height="0.640" rx="0.320" fill="#c79b5c"/><rect x="-12.384" y="1.585" width="0.640" height="0.640" rx="0.320" fill="#c79b5c"/><rect x="-12.384" y="2.855" width="0.640" height="0.640" rx="0.320" fill="#c79b5c"/><rect x="-12.384" y="4.125" width="0.640" height="0.640" rx="0.320" fill="#c79b5c"/><rect x="-13.654" y="-4.765" width="0.640" height="0.640" rx="0.320" fill="#c79b5c"/><rect x="-13.654" y="-3.495" width="0.640" height="0.640" rx="0.320" fill="#c79b5c"/><rect x="-13.654" y="-2.225" width="0.640" height="0.640" rx="0.320" fill="#c79b5c"/><rect x="-13.654" y="-0.955" width="0.640" height="0.640" rx="0.320" fill="#c79b5c"/><rect x="-13.654" y="0.315" width="0.640" height="0.640" rx="0.320" fill="#c79b5c"/><rect x="-13.654" y="1.585" width="0.640" height="0.640" rx="0.320" fill="#c79b5c"/><rect x="-13.654" y="2.855" width="0.640" height="0.640" rx="0.320" fill="#c79b5c"/><rect x="-13.654" y="4.125" width="0.640" height="0.640" rx="0.320" fill="#c79b5c"/><rect x="-14.924" y="-4.765" width="0.640" height="0.640" rx="0.320" fill="#c79b5c"/><rect x="-14.924" y="-3.495" width="0.640" height="0.640" rx="0.320" fill="#c79b5c"/><rect x="-14.924" y="-2.225" width="0.640" height="0.640" rx="0.320" fill="#c79b5c"/><rect x="-14.924" y="-0.955" width="0.640" height="0.640" rx="0.320" fill="#c79b5c"/><rect x="-14.924" y="0.315" width="0.640" height="0.640" rx="0.320" fill="#c79b5c"/><rect x="-14.924" y="1.585" width="0.640" height="0.640" rx="0.320" fill="#c79b5c"/><rect x="-14.924" y="2.855" width="0.640" height="0.640" rx="0.320" fill="#c79b5c"/><rect x="-14.924" y="4.125" width="0.640" height="0.640" rx="0.320" fill="#c79b5c"/><rect x="-16.194" y="-4.765" width="0.640" height="0.640" rx="0.320" fill="#c79b5c"/><rect x="-16.194" y="-3.495" width="0.640" height="0.640" rx="0.320" fill="#c79b5c"/><rect x="-16.194" y="-2.225" width="0.640" height="0.640" rx="0.320" fill="#c79b5c"/><rect x="-16.194" y="-0.955" width="0.640" height="0.640" rx="0.320" fill="#c79b5c"/><rect x="-16.194" y="0.315" width="0.640" height="0.640" rx="0.320" fill="#c79b5c"/><rect x="-16.194" y="1.585" width="0.640" height="0.640" rx="0.320" fill="#c79b5c"/><rect x="-16.194" y="2.855" width="0.640" height="0.640" rx="0.320" fill="#c79b5c"/><rect x="-16.194" y="4.125" width="0.640" height="0.640" rx="0.320" fill="#c79b5c"/><rect x="-17.464" y="-4.765" width="0.640" height="0.640" rx="0.320" fill="#c79b5c"/><rect x="-17.464" y="-3.495" width="0.640" height="0.640" rx="0.320" fill="#c79b5c"/><rect x="-17.464" y="-2.225" width="0.640" height="0.640" rx="0.320" fill="#c79b5c"/><rect x="-17.464" y="-0.955" width="0.640" height="0.640" rx="0.320" fill="#c79b5c"/><rect x="-17.464" y="0.315" width="0.640" height="0.640" rx="0.320" fill="#c79b5c"/><rect x="-17.464" y="1.585" width="0.640" height="0.640" rx="0.320" fill="#c79b5c"/><rect x="-17.464" y="2.855" width="0.640" height="0.640" rx="0.320" fill="#c79b5c"/><rect x="-17.464" y="4.125" width="0.640" height="0.640" rx="0.320" fill="#c79b5c"/><rect x="-18.734" y="-4.765" width="0.640" height="0.640" rx="0.320" fill="#c79b5c"/><rect x="-18.734" y="-3.495" width="0.640" height="0.640" rx="0.320" fill="#c79b5c"/><rect x="-18.734" y="-2.225" width="0.640" height="0.640" rx="0.320" fill="#c79b5c"/><rect x="-18.734" y="-0.955" width="0.640" height="0.640" rx="0.320" fill="#c79b5c"/><rect x="-18.734" y="0.315" width="0.640" height="0.640" rx="0.320" fill="#c79b5c"/><rect x="-18.734" y="1.585" width="0.640" height="0.640" rx="0.320" fill="#c79b5c"/><rect x="-18.734" y="2.855" width="0.640" height="0.640" rx="0.320" fill="#c79b5c"/><rect x="-18.734" y="4.125" width="0.640" height="0.640" rx="0.320" fill="#c79b5c"/><rect x="-20.004" y="-4.765" width="0.640" height="0.640" rx="0.320" fill="#c79b5c"/><rect x="-20.004" y="-3.495" width="0.640" height="0.640" rx="0.320" fill="#c79b5c"/><rect x="-20.004" y="-2.225" width="0.640" height="0.640" rx="0.320" fill="#c79b5c"/><rect x="-20.004" y="-0.955" width="0.640" height="0.640" rx="0.320" fill="#c79b5c"/><rect x="-20.004" y="0.315" width="0.640" height="0.640" rx="0.320" fill="#c79b5c"/><rect x="-20.004" y="1.585" width="0.640" height="0.640" rx="0.320" fill="#c79b5c"/><rect x="-20.004" y="2.855" width="0.640" height="0.640" rx="0.320" fill="#c79b5c"/><rect x="-20.004" y="4.125" width="0.640" height="0.640" rx="0.320" fill="#c79b5c"/><rect x="-21.274" y="-4.765" width="0.640" height="0.640" rx="0.320" fill="#c79b5c"/><rect x="-21.274" y="-3.495" width="0.640" height="0.640" rx="0.320" fill="#c79b5c"/><rect x="-21.274" y="-2.225" width="0.640" height="0.640" rx="0.320" fill="#c79b5c"/><rect x="-21.274" y="-0.955" width="0.640" height="0.640" rx="0.320" fill="#c79b5c"/><rect x="-21.274" y="0.315" width="0.640" height="0.640" rx="0.320" fill="#c79b5c"/><rect x="-21.274" y="1.585" width="0.640" height="0.640" rx="0.320" fill="#c79b5c"/><rect x="-21.274" y="2.855" width="0.640" height="0.640" rx="0.320" fill="#c79b5c"/><rect x="-21.274" y="4.125" width="0.640" height="0.640" rx="0.320" fill="#c79b5c"/><rect x="-22.544" y="-4.765" width="0.640" height="0.640" rx="0.320" fill="#c79b5c"/><rect x="-22.544" y="-3.495" width="0.640" height="0.640" rx="0.320" fill="#c79b5c"/><rect x="-22.544" y="-2.225" width="0.640" height="0.640" rx="0.320" fill="#c79b5c"/><rect x="-22.544" y="-0.955" width="0.640" height="0.640" rx="0.320" fill="#c79b5c"/><rect x="-22.544" y="0.315" width="0.640" height="0.640" rx="0.320" fill="#c79b5c"/><rect x="-22.544" y="1.585" width="0.640" height="0.640" rx="0.320" fill="#c79b5c"/><rect x="-22.544" y="2.855" width="0.640" height="0.640" rx="0.320" fill="#c79b5c"/><rect x="-22.544" y="4.125" width="0.640" height="0.640" rx="0.320" fill="#c79b5c"/><rect x="-23.814" y="-4.765" width="0.640" height="0.640" rx="0.320" fill="#c79b5c"/><rect x="-23.814" y="-3.495" width="0.640" height="0.640" rx="0.320" fill="#c79b5c"/><rect x="-23.814" y="-2.225" width="0.640" height="0.640" rx="0.320" fill="#c79b5c"/><rect x="-23.814" y="-0.955" width="0.640" height="0.640" rx="0.320" fill="#c79b5c"/><rect x="-23.814" y="0.315" width="0.640" height="0.640" rx="0.320" fill="#c79b5c"/><rect x="-23.814" y="1.585" width="0.640" height="0.640" rx="0.320" fill="#c79b5c"/><rect x="-23.814" y="2.855" width="0.640" height="0.640" rx="0.320" fill="#c79b5c"/><rect x="-23.814" y="4.125" width="0.640" height="0.640" rx="0.320" fill="#c79b5c"/><rect x="-25.084" y="-4.765" width="0.640" height="0.640" rx="0.320" fill="#c79b5c"/><rect x="-25.084" y="-3.495" width="0.640" height="0.640" rx="0.320" fill="#c79b5c"/><rect x="-25.084" y="-2.225" width="0.640" height="0.640" rx="0.320" fill="#c79b5c"/><rect x="-25.084" y="-0.955" width="0.640" height="0.640" rx="0.320" fill="#c79b5c"/><rect x="-25.084" y="0.315" width="0.640" height="0.640" rx="0.320" fill="#c79b5c"/><rect x="-25.084" y="1.585" width="0.640" height="0.640" rx="0.320" fill="#c79b5c"/><rect x="-25.084" y="2.855" width="0.640" height="0.640" rx="0.320" fill="#c79b5c"/><rect x="-25.084" y="4.125" width="0.640" height="0.640" rx="0.320" fill="#c79b5c"/></svg>