<svg xmlns="http://www.w3.org/2000/svg" viewBox="-5.18 -5.35 10.37 10.70" preserveAspectRatio="xMidYMid meet" style="width:100%;height:100%"><rect x="-5.18" y="-5.35" width="10.37" height="10.70" fill="#12151c"/><line x1="-3.175" y1="-3.810" x2="-2.750" y2="-3.810" stroke="#e6e9ef" stroke-width="0.200" stroke-linecap="round" opacity="1"/><line x1="-3.175" y1="-3.640" x2="-3.175" y2="-3.810" stroke="#e6e9ef" stroke-width="0.200" stroke-linecap="round" opacity="1"/><line x1="-3.175" y1="3.810" x2="-3.175" y2="3.640" stroke="#e6e9ef" stroke-width="0.200" stroke-linecap="round" opacity="1"/><line x1="-3.175" y1="3.810" x2="-2.750" y2="3.810" stroke="#e6e9ef" stroke-width="0.200" stroke-linecap="round" opacity="1"/><line x1="-2.750" y1="-4.100" x2="2.750" y2="-4.100" stroke="#e6e9ef" stroke-width="0.200" stroke-linecap="round" opacity="1"/><line x1="-2.750" y1="-3.640" x2="-2.750" y2="-4.100" stroke="#e6e9ef" stroke-width="0.200" stroke-linecap="round" opacity="1"/><line x1="-2.750" y1="4.100" x2="-2.750" y2="3.640" stroke="#e6e9ef" stroke-width="0.200" stroke-linecap="round" opacity="1"/><line x1="-2.750" y1="4.100" x2="2.750" y2="4.100" stroke="#e6e9ef" stroke-width="0.200" stroke-linecap="round" opacity="1"/><line x1="2.750" y1="-3.810" x2="3.175" y2="-3.810" stroke="#e6e9ef" stroke-width="0.200" stroke-linecap="round" opacity="1"/><line x1="2.750" y1="-3.640" x2="2.750" y2="-4.100" stroke="#e6e9ef" stroke-width="0.200" stroke-linecap="round" opacity="1"/><line x1="2.750" y1="3.810" x2="3.175" y2="3.810" stroke="#e6e9ef" stroke-width="0.200" stroke-linecap="round" opacity="1"/><line x1="2.750" y1="4.100" x2="2.750" y2="3.640" stroke="#e6e9ef" stroke-width="0.200" stroke-linecap="round" opacity="1"/><line x1="3.175" y1="-3.640" x2="3.175" y2="-3.810" stroke="#e6e9ef" stroke-width="0.200" stroke-linecap="round" opacity="1"/><line x1="3.175" y1="3.810" x2="3.175" y2="3.640" stroke="#e6e9ef" stroke-width="0.200" stroke-linecap="round" opacity="1"/><line x1="-3.935" y1="-3.290" x2="-1.675" y2="-3.290" stroke="#4a5160" stroke-width="0.100" stroke-linecap="round" opacity="0.7"/><line x1="-3.935" y1="-1.790" x2="-3.935" y2="-3.290" stroke="#4a5160" stroke-width="0.100" stroke-linecap="round" opacity="0.7"/><line x1="-3.935" y1="-1.790" x2="-1.675" y2="-1.790" stroke="#4a5160" stroke-width="0.100" stroke-linecap="round" opacity="0.7"/><line x1="-3.935" y1="-0.750" x2="-1.675" y2="-0.750" stroke="#4a5160" stroke-width="0.100" stroke-linecap="round" opacity="0.7"/><line x1="-3.935" y1="0.750" x2="-3.935" y2="-0.750" stroke="#4a5160" stroke-width="0.100" stroke-linecap="round" opacity="0.7"/><line x1="-3.935" y1="0.750" x2="-1.675" y2="0.750" stroke="#4a5160" stroke-width="0.100" stroke-linecap="round" opacity="0.7"/><line x1="-3.935" y1="1.790" x2="-1.675" y2="1.790" stroke="#4a5160" stroke-width="0.100" stroke-linecap="round" opacity="0.7"/><line x1="-3.935" y1="3.290" x2="-3.935" y2="1.790" stroke="#4a5160" stroke-width="0.100" stroke-linecap="round" opacity="0.7"/><line x1="-3.935" y1="3.290" x2="-1.675" y2="3.290" stroke="#4a5160" stroke-width="0.100" stroke-linecap="round" opacity="0.7"/><line x1="-3.305" y1="-2.540" x2="-2.805" y2="-2.540" stroke="#4a5160" stroke-width="0.100" stroke-linecap="round" opacity="0.7"/><line x1="-3.305" y1="0.000" x2="-2.805" y2="0.000" stroke="#4a5160" stroke-width="0.100" stroke-linecap="round" opacity="0.7"/><line x1="-3.305" y1="2.540" x2="-2.805" y2="2.540" stroke="#4a5160" stroke-width="0.100" stroke-linecap="round" opacity="0.7"/><line x1="-2.805" y1="-2.540" x2="-2.805" y2="-3.040" stroke="#4a5160" stroke-width="0.100" stroke-linecap="round" opacity="0.7"/><line x1="-2.805" y1="-2.540" x2="-2.305" y2="-2.540" stroke="#4a5160" stroke-width="0.100" stroke-linecap="round" opacity="0.7"/><line x1="-2.805" y1="-2.040" x2="-2.805" y2="-2.540" stroke="#4a5160" stroke-width="0.100" stroke-linecap="round" opacity="0.7"/><line x1="-2.805" y1="0.000" x2="-2.805" y2="-0.500" stroke="#4a5160" stroke-width="0.100" stroke-linecap="round" opacity="0.7"/><line x1="-2.805" y1="0.000" x2="-2.305" y2="0.000" stroke="#4a5160" stroke-width="0.100" stroke-linecap="round" opacity="0.7"/><line x1="-2.805" y1="0.500" x2="-2.805" y2="0.000" stroke="#4a5160" stroke-width="0.100" stroke-linecap="round" opacity="0.7"/><line x1="-2.805" y1="2.540" x2="-2.805" y2="2.040" stroke="#4a5160" stroke-width="0.100" stroke-linecap="round" opacity="0.7"/><line x1="-2.805" y1="2.540" x2="-2.305" y2="2.540" stroke="#4a5160" stroke-width="0.100" stroke-linecap="round" opacity="0.7"/><line x1="-2.805" y1="3.040" x2="-2.805" y2="2.540" stroke="#4a5160" stroke-width="0.100" stroke-linecap="round" opacity="0.7"/><line x1="-1.675" y1="-1.790" x2="-1.675" y2="-3.290" stroke="#4a5160" stroke-width="0.100" stroke-linecap="round" opacity="0.7"/><line x1="-1.675" y1="0.750" x2="-1.675" y2="-0.750" stroke="#4a5160" stroke-width="0.100" stroke-linecap="round" opacity="0.7"/><line x1="-1.675" y1="1.790" x2="-1.675" y2="3.290" stroke="#4a5160" stroke-width="0.100" stroke-linecap="round" opacity="0.7"/><line x1="-0.500" y1="0.000" x2="0.000" y2="0.000" stroke="#4a5160" stroke-width="0.100" stroke-linecap="round" opacity="0.7"/><line x1="0.000" y1="0.000" x2="0.000" y2="-0.500" stroke="#4a5160" stroke-width="0.100" stroke-linecap="round" opacity="0.7"/><line x1="0.000" y1="0.000" x2="0.500" y2="0.000" stroke="#4a5160" stroke-width="0.100" stroke-linecap="round" opacity="0.7"/><line x1="0.000" y1="0.500" x2="0.000" y2="0.000" stroke="#4a5160" stroke-width="0.100" stroke-linecap="round" opacity="0.7"/><line x1="1.675" y1="-3.290" x2="1.675" y2="-1.790" stroke="#4a5160" stroke-width="0.100" stroke-linecap="round" opacity="0.7"/><line x1="1.675" y1="-3.290" x2="3.935" y2="-3.290" stroke="#4a5160" stroke-width="0.100" stroke-linecap="round" opacity="0.7"/><line x1="1.675" y1="-1.790" x2="3.935" y2="-1.790" stroke="#4a5160" stroke-width="0.100" stroke-linecap="round" opacity="0.7"/><line x1="1.675" y1="-0.750" x2="3.935" y2="-0.750" stroke="#4a5160" stroke-width="0.100" stroke-linecap="round" opacity="0.7"/><line x1="1.675" y1="0.750" x2="1.675" y2="-0.750" stroke="#4a5160" stroke-width="0.100" stroke-linecap="round" opacity="0.7"/><line x1="1.675" y1="0.750" x2="3.935" y2="0.750" stroke="#4a5160" stroke-width="0.100" stroke-linecap="round" opacity="0.7"/><line x1="1.675" y1="1.790" x2="3.935" y2="1.790" stroke="#4a5160" stroke-width="0.100" stroke-linecap="round" opacity="0.7"/><line x1="1.675" y1="3.290" x2="1.675" y2="1.790" stroke="#4a5160" stroke-width="0.100" stroke-linecap="round" opacity="0.7"/><line x1="1.675" y1="3.290" x2="3.935" y2="3.290" stroke="#4a5160" stroke-width="0.100" stroke-linecap="round" opacity="0.7"/><line x1="2.305" y1="-2.540" x2="2.805" y2="-2.540" stroke="#4a5160" stroke-width="0.100" stroke-linecap="round" opacity="0.7"/><line x1="2.305" y1="0.000" x2="2.805" y2="0.000" stroke="#4a5160" stroke-width="0.100" stroke-linecap="round" opacity="0.7"/><line x1="2.305" y1="2.540" x2="2.805" y2="2.540" stroke="#4a5160" stroke-width="0.100" stroke-linecap="round" opacity="0.7"/><line x1="2.805" y1="-2.540" x2="2.805" y2="-3.040" stroke="#4a5160" stroke-width="0.100" stroke-linecap="round" opacity="0.7"/><line x1="2.805" y1="-2.540" x2="3.305" y2="-2.540" stroke="#4a5160" stroke-width="0.100" stroke-linecap="round" opacity="0.7"/><line x1="2.805" y1="-2.040" x2="2.805" y2="-2.540" stroke="#4a5160" stroke-width="0.100" stroke-linecap="round" opacity="0.7"/><line x1="2.805" y1="0.000" x2="2.805" y2="-0.500" stroke="#4a5160" stroke-width="0.100" stroke-linecap="round" opacity="0.7"/><line x1="2.805" y1="0.000" x2="3.305" y2="0.000" stroke="#4a5160" stroke-width="0.100" stroke-linecap="round" opacity="0.7"/><line x1="2.805" y1="0.500" x2="2.805" y2="0.000" stroke="#4a5160" stroke-width="0.100" stroke-linecap="round" opacity="0.7"/><line x1="2.805" y1="2.540" x2="2.805" y2="2.040" stroke="#4a5160" stroke-width="0.100" stroke-linecap="round" opacity="0.7"/><line x1="2.805" y1="2.540" x2="3.305" y2="2.540" stroke="#4a5160" stroke-width="0.100" stroke-linecap="round" opacity="0.7"/><line x1="2.805" y1="3.040" x2="2.805" y2="2.540" stroke="#4a5160" stroke-width="0.100" stroke-linecap="round" opacity="0.7"/><line x1="3.935" y1="-1.790" x2="3.935" y2="-3.290" stroke="#4a5160" stroke-width="0.100" stroke-linecap="round" opacity="0.7"/><line x1="3.935" y1="0.750" x2="3.935" y2="-0.750" stroke="#4a5160" stroke-width="0.100" stroke-linecap="round" opacity="0.7"/><line x1="3.935" y1="3.290" x2="3.935" y2="1.790" stroke="#4a5160" stroke-width="0.100" stroke-linecap="round" opacity="0.7"/><line x1="-4.185" y1="-4.350" x2="4.185" y2="-4.350" stroke="#d24d4d" stroke-width="0.080" stroke-linecap="round" opacity="0.7"/><line x1="-4.185" y1="4.350" x2="-4.185" y2="-4.350" stroke="#d24d4d" stroke-width="0.080" stroke-linecap="round" opacity="0.7"/><line x1="-4.185" y1="4.350" x2="4.185" y2="4.350" stroke="#d24d4d" stroke-width="0.080" stroke-linecap="round" opacity="0.7"/><line x1="4.185" y1="4.350" x2="4.185" y2="-4.350" stroke="#d24d4d" stroke-width="0.080" stroke-linecap="round" opacity="0.7"/><line x1="-3.175" y1="-3.810" x2="-2.750" y2="-3.810" stroke="#6b7280" stroke-width="0.100" stroke-linecap="round" opacity="0.8"/><line x1="-3.175" y1="-3.040" x2="-3.175" y2="-3.810" stroke="#6b7280" stroke-width="0.100" stroke-linecap="round" opacity="0.8"/><line x1="-3.175" y1="-0.500" x2="-3.175" y2="-2.040" stroke="#6b7280" stroke-width="0.100" stroke-linecap="round" opacity="0.8"/><line x1="-3.175" y1="2.040" x2="-3.175" y2="0.500" stroke="#6b7280" stroke-width="0.100" stroke-linecap="round" opacity="0.8"/><line x1="-3.175" y1="3.810" x2="-3.175" y2="3.040" stroke="#6b7280" stroke-width="0.100" stroke-linecap="round" opacity="0.8"/><line x1="-3.175" y1="3.810" x2="-2.750" y2="3.810" stroke="#6b7280" stroke-width="0.100" stroke-linecap="round" opacity="0.8"/><line x1="-2.750" y1="-4.100" x2="2.750" y2="-4.100" stroke="#6b7280" stroke-width="0.100" stroke-linecap="round" opacity="0.8"/><line x1="-2.750" y1="4.100" x2="-2.750" y2="-4.100" stroke="#6b7280" stroke-width="0.100" stroke-linecap="round" opacity="0.8"/><line x1="-2.750" y1="4.100" x2="2.750" y2="4.100" stroke="#6b7280" stroke-width="0.100" stroke-linecap="round" opacity="0.8"/><line x1="-2.450" y1="-3.900" x2="-1.750" y2="-3.900" stroke="#6b7280" stroke-width="0.100" stroke-linecap="round" opacity="0.8"/><line x1="-2.450" y1="-3.400" x2="-2.450" y2="-3.900" stroke="#6b7280" stroke-width="0.100" stroke-linecap="round" opacity="0.8"/><line x1="-2.450" y1="-3.400" x2="-1.750" y2="-3.400" stroke="#6b7280" stroke-width="0.100" stroke-linecap="round" opacity="0.8"/><line x1="-1.750" y1="-3.900" x2="-1.750" y2="-3.400" stroke="#6b7280" stroke-width="0.100" stroke-linecap="round" opacity="0.8"/><line x1="2.750" y1="-3.810" x2="3.175" y2="-3.810" stroke="#6b7280" stroke-width="0.100" stroke-linecap="round" opacity="0.8"/><line x1="2.750" y1="3.810" x2="3.175" y2="3.810" stroke="#6b7280" stroke-width="0.100" stroke-linecap="round" opacity="0.8"/><line x1="2.750" y1="4.100" x2="2.750" y2="-4.100" stroke="#6b7280" stroke-width="0.100" stroke-linecap="round" opacity="0.8"/><line x1="3.175" y1="-3.040" x2="3.175" y2="-3.810" stroke="#6b7280" stroke-width="0.100" stroke-linecap="round" opacity="0.8"/><line x1="3.175" y1="-0.500" x2="3.175" y2="-2.040" stroke="#6b7280" stroke-width="0.100" stroke-linecap="round" opacity="0.8"/><line x1="3.175" y1="2.040" x2="3.175" y2="0.500" stroke="#6b7280" stroke-width="0.100" stroke-linecap="round" opacity="0.8"/><line x1="3.175" y1="3.810" x2="3.175" y2="3.040" stroke="#6b7280" stroke-width="0.100" stroke-linecap="round" opacity="0.8"/><path d="M -3.175 -3.290 A 0.754 0.754 0 0 1 -2.750 -3.101" fill="none" stroke="#6b7280" stroke-width="0.12" opacity="0.8"/><path d="M -3.175 -0.750 A 0.754 0.754 0 0 1 -2.750 -0.561" fill="none" stroke="#6b7280" stroke-width="0.12" opacity="0.8"/><path d="M -3.175 1.790 A 0.754 0.754 0 0 1 -2.750 1.979" fill="none" stroke="#6b7280" stroke-width="0.12" opacity="0.8"/><path d="M -3.175 -3.040 A 0.507 0.507 0 0 1 -3.175 -2.040" fill="none" stroke="#6b7280" stroke-width="0.12" opacity="0.8"/><path d="M -3.175 -0.500 A 0.507 0.507 0 0 1 -3.175 0.500" fill="none" stroke="#6b7280" stroke-width="0.12" opacity="0.8"/><path d="M -3.175 2.040 A 0.507 0.507 0 0 1 -3.175 3.040" fill="none" stroke="#6b7280" stroke-width="0.12" opacity="0.8"/><path d="M -2.750 -1.979 A 0.754 0.754 0 0 1 -3.175 -1.790" fill="none" stroke="#6b7280" stroke-width="0.12" opacity="0.8"/><path d="M -2.750 0.561 A 0.754 0.754 0 0 1 -3.175 0.750" fill="none" stroke="#6b7280" stroke-width="0.12" opacity="0.8"/><path d="M -2.750 3.101 A 0.754 0.754 0 0 1 -3.175 3.290" fill="none" stroke="#6b7280" stroke-width="0.12" opacity="0.8"/><path d="M 2.750 -3.101 A 0.754 0.754 0 0 1 3.175 -3.290" fill="none" stroke="#6b7280" stroke-width="0.12" opacity="0.8"/><path d="M 2.750 -0.561 A 0.754 0.754 0 0 1 3.175 -0.750" fill="none" stroke="#6b7280" stroke-width="0.12" opacity="0.8"/><path d="M 2.750 1.979 A 0.754 0.754 0 0 1 3.175 1.790" fill="none" stroke="#6b7280" stroke-width="0.12" opacity="0.8"/><path d="M 3.175 -2.040 A 0.507 0.507 0 0 1 3.175 -3.040" fill="none" stroke="#6b7280" stroke-width="0.12" opacity="0.8"/><path d="M 3.175 0.500 A 0.507 0.507 0 0 1 3.175 -0.500" fill="none" stroke="#6b7280" stroke-width="0.12" opacity="0.8"/><path d="M 3.175 3.040 A 0.507 0.507 0 0 1 3.175 2.040" fill="none" stroke="#6b7280" stroke-width="0.12" opacity="0.8"/><path d="M 3.175 -1.790 A 0.754 0.754 0 0 1 2.750 -1.979" fill="none" stroke="#6b7280" stroke-width="0.12" opacity="0.8"/><path d="M 3.175 0.750 A 0.754 0.754 0 0 1 2.750 0.561" fill="none" stroke="#6b7280" stroke-width="0.12" opacity="0.8"/><path d="M 3.175 3.290 A 0.754 0.754 0 0 1 2.750 3.101" fill="none" stroke="#6b7280" stroke-width="0.12" opacity="0.8"/><circle cx="-3.800" cy="-3.975" r="0.150" fill="#e6e9ef" opacity="1"/><circle cx="-3.800" cy="-3.975" r="0.150" fill="#6b7280" opacity="0.8"/><rect x="2.055" y="-3.670" width="1.500" height="2.260" rx="0.000" fill="#c79b5c"/><rect x="2.055" y="-1.130" width="1.500" height="2.260" rx="0.000" fill="#c79b5c"/><rect x="2.055" y="1.410" width="1.500" height="2.260" rx="0.000" fill="#c79b5c"/><rect x="-3.555" y="1.410" width="1.500" height="2.260" rx="0.000" fill="#c79b5c"/><rect x="-3.555" y="-1.130" width="1.500" height="2.260" rx="0.000" fill="#c79b5c"/><rect x="-3.555" y="-3.670" width="1.500" height="2.260" rx="0.000" fill="#c79b5c"/></svg>