<svg xmlns="http://www.w3.org/2000/svg" viewBox="-3.15 -2.92 6.30 5.68" preserveAspectRatio="xMidYMid meet" style="width:100%;height:100%"><rect x="-3.15" y="-2.92" width="6.30" height="5.68" fill="#12151c"/><line x1="-0.450" y1="-1.500" x2="0.700" y2="-1.500" stroke="#e6e9ef" stroke-width="0.200" stroke-linecap="round" opacity="1"/><line x1="-0.450" y1="1.500" x2="0.700" y2="1.500" stroke="#e6e9ef" stroke-width="0.200" stroke-linecap="round" opacity="1"/><line x1="0.700" y1="-0.649" x2="0.700" y2="-1.500" stroke="#e6e9ef" stroke-width="0.200" stroke-linecap="round" opacity="1"/><line x1="0.700" y1="1.500" x2="0.700" y2="0.651" stroke="#e6e9ef" stroke-width="0.200" stroke-linecap="round" opacity="1"/><line x1="-1.900" y1="-1.250" x2="-1.350" y2="-0.950" stroke="#4a5160" stroke-width="0.080" stroke-linecap="round" opacity="0.7"/><line x1="-1.900" y1="-1.250" x2="-0.800" y2="-1.250" stroke="#4a5160" stroke-width="0.080" stroke-linecap="round" opacity="0.7"/><line x1="-1.900" y1="-0.650" x2="-1.900" y2="-1.250" stroke="#4a5160" stroke-width="0.080" stroke-linecap="round" opacity="0.7"/><line x1="-1.900" y1="-0.650" x2="-1.350" y2="-0.950" stroke="#4a5160" stroke-width="0.080" stroke-linecap="round" opacity="0.7"/><line x1="-1.900" y1="-0.650" x2="-0.800" y2="-0.650" stroke="#4a5160" stroke-width="0.080" stroke-linecap="round" opacity="0.7"/><line x1="-1.900" y1="0.650" x2="-1.350" y2="0.950" stroke="#4a5160" stroke-width="0.080" stroke-linecap="round" opacity="0.7"/><line x1="-1.900" y1="0.650" x2="-0.800" y2="0.650" stroke="#4a5160" stroke-width="0.080" stroke-linecap="round" opacity="0.7"/><line x1="-1.900" y1="1.250" x2="-1.900" y2="0.650" stroke="#4a5160" stroke-width="0.080" stroke-linecap="round" opacity="0.7"/><line x1="-1.900" y1="1.250" x2="-1.350" y2="0.950" stroke="#4a5160" stroke-width="0.080" stroke-linecap="round" opacity="0.7"/><line x1="-1.900" y1="1.250" x2="-0.800" y2="1.250" stroke="#4a5160" stroke-width="0.080" stroke-linecap="round" opacity="0.7"/><line x1="-0.800" y1="-0.650" x2="-0.800" y2="-1.250" stroke="#4a5160" stroke-width="0.080" stroke-linecap="round" opacity="0.7"/><line x1="-0.800" y1="1.250" x2="-0.800" y2="0.650" stroke="#4a5160" stroke-width="0.080" stroke-linecap="round" opacity="0.7"/><line x1="-0.500" y1="0.000" x2="-0.000" y2="0.000" stroke="#4a5160" stroke-width="0.080" stroke-linecap="round" opacity="0.7"/><line x1="-0.000" y1="0.000" x2="-0.000" y2="-0.500" stroke="#4a5160" stroke-width="0.080" stroke-linecap="round" opacity="0.7"/><line x1="-0.000" y1="0.000" x2="0.500" y2="0.000" stroke="#4a5160" stroke-width="0.080" stroke-linecap="round" opacity="0.7"/><line x1="-0.000" y1="0.500" x2="-0.000" y2="0.000" stroke="#4a5160" stroke-width="0.080" stroke-linecap="round" opacity="0.7"/><line x1="0.800" y1="-0.299" x2="1.900" y2="-0.299" stroke="#4a5160" stroke-width="0.080" stroke-linecap="round" opacity="0.7"/><line x1="0.800" y1="0.301" x2="0.800" y2="-0.299" stroke="#4a5160" stroke-width="0.080" stroke-linecap="round" opacity="0.7"/><line x1="0.800" y1="0.301" x2="1.900" y2="0.301" stroke="#4a5160" stroke-width="0.080" stroke-linecap="round" opacity="0.7"/><line x1="1.350" y1="0.001" x2="1.900" y2="-0.299" stroke="#4a5160" stroke-width="0.080" stroke-linecap="round" opacity="0.7"/><line x1="1.350" y1="0.001" x2="1.900" y2="0.301" stroke="#4a5160" stroke-width="0.080" stroke-linecap="round" opacity="0.7"/><line x1="1.900" y1="0.301" x2="1.900" y2="-0.299" stroke="#4a5160" stroke-width="0.080" stroke-linecap="round" opacity="0.7"/><line x1="-2.150" y1="-1.750" x2="2.150" y2="-1.750" stroke="#d24d4d" stroke-width="0.080" stroke-linecap="round" opacity="0.7"/><line x1="-2.150" y1="1.750" x2="-2.150" y2="-1.750" stroke="#d24d4d" stroke-width="0.080" stroke-linecap="round" opacity="0.7"/><line x1="-2.150" y1="1.750" x2="2.150" y2="1.750" stroke="#d24d4d" stroke-width="0.080" stroke-linecap="round" opacity="0.7"/><line x1="2.150" y1="1.750" x2="2.150" y2="-1.750" stroke="#d24d4d" stroke-width="0.080" stroke-linecap="round" opacity="0.7"/><line x1="-1.400" y1="-1.205" x2="-0.700" y2="-1.205" stroke="#6b7280" stroke-width="0.100" stroke-linecap="round" opacity="0.8"/><line x1="-1.400" y1="-0.695" x2="-1.400" y2="-1.205" stroke="#6b7280" stroke-width="0.100" stroke-linecap="round" opacity="0.8"/><line x1="-1.400" y1="-0.695" x2="-0.700" y2="-0.695" stroke="#6b7280" stroke-width="0.100" stroke-linecap="round" opacity="0.8"/><line x1="-1.400" y1="0.695" x2="-0.700" y2="0.695" stroke="#6b7280" stroke-width="0.100" stroke-linecap="round" opacity="0.8"/><line x1="-1.400" y1="1.205" x2="-1.400" y2="0.695" stroke="#6b7280" stroke-width="0.100" stroke-linecap="round" opacity="0.8"/><line x1="-1.400" y1="1.205" x2="-0.700" y2="1.205" stroke="#6b7280" stroke-width="0.100" stroke-linecap="round" opacity="0.8"/><line x1="-0.700" y1="-1.500" x2="0.700" y2="-1.500" stroke="#6b7280" stroke-width="0.100" stroke-linecap="round" opacity="0.8"/><line x1="-0.700" y1="1.500" x2="-0.700" y2="-1.500" stroke="#6b7280" stroke-width="0.100" stroke-linecap="round" opacity="0.8"/><line x1="-0.700" y1="1.500" x2="0.700" y2="1.500" stroke="#6b7280" stroke-width="0.100" stroke-linecap="round" opacity="0.8"/><line x1="0.700" y1="-0.255" x2="1.400" y2="-0.255" stroke="#6b7280" stroke-width="0.100" stroke-linecap="round" opacity="0.8"/><line x1="0.700" y1="0.255" x2="1.400" y2="0.255" stroke="#6b7280" stroke-width="0.100" stroke-linecap="round" opacity="0.8"/><line x1="0.700" y1="1.500" x2="0.700" y2="-1.500" stroke="#6b7280" stroke-width="0.100" stroke-linecap="round" opacity="0.8"/><line x1="1.400" y1="0.255" x2="1.400" y2="-0.255" stroke="#6b7280" stroke-width="0.100" stroke-linecap="round" opacity="0.8"/><circle cx="-1.350" cy="-1.800" r="0.150" fill="#e6e9ef" opacity="1"/><rect x="-1.900" y="-1.225" width="1.100" height="0.550" rx="0.000" fill="#c79b5c"/><rect x="-1.900" y="0.675" width="1.100" height="0.550" rx="0.000" fill="#c79b5c"/><rect x="0.800" y="-0.274" width="1.100" height="0.550" rx="0.000" fill="#c79b5c"/></svg>