<svg xmlns="http://www.w3.org/2000/svg" viewBox="-2.49 -2.65 4.97 5.30" preserveAspectRatio="xMidYMid meet" style="width:100%;height:100%"><rect x="-2.49" y="-2.65" width="4.97" height="5.30" fill="#12151c"/><line x1="-0.058" y1="0.962" x2="0.063" y2="-0.958" stroke="#e6e9ef" stroke-width="0.200" stroke-linecap="round" opacity="1"/><line x1="-1.415" y1="0.000" x2="-0.915" y2="0.000" stroke="#4a5160" stroke-width="0.080" stroke-linecap="round" opacity="0.7"/><line x1="-1.235" y1="-1.400" x2="-0.595" y2="-1.400" stroke="#4a5160" stroke-width="0.080" stroke-linecap="round" opacity="0.7"/><line x1="-1.235" y1="1.400" x2="-1.235" y2="-1.400" stroke="#4a5160" stroke-width="0.080" stroke-linecap="round" opacity="0.7"/><line x1="-1.235" y1="1.400" x2="-0.595" y2="1.400" stroke="#4a5160" stroke-width="0.080" stroke-linecap="round" opacity="0.7"/><line x1="-0.915" y1="0.000" x2="-0.915" y2="-0.500" stroke="#4a5160" stroke-width="0.080" stroke-linecap="round" opacity="0.7"/><line x1="-0.915" y1="0.000" x2="-0.415" y2="0.000" stroke="#4a5160" stroke-width="0.080" stroke-linecap="round" opacity="0.7"/><line x1="-0.915" y1="0.500" x2="-0.915" y2="0.000" stroke="#4a5160" stroke-width="0.080" stroke-linecap="round" opacity="0.7"/><line x1="-0.595" y1="1.400" x2="-0.595" y2="-1.400" stroke="#4a5160" stroke-width="0.080" stroke-linecap="round" opacity="0.7"/><line x1="-0.500" y1="0.000" x2="0.000" y2="0.000" stroke="#4a5160" stroke-width="0.080" stroke-linecap="round" opacity="0.7"/><line x1="0.000" y1="0.000" x2="0.000" y2="-0.500" stroke="#4a5160" stroke-width="0.080" stroke-linecap="round" opacity="0.7"/><line x1="0.000" y1="0.000" x2="0.500" y2="0.000" stroke="#4a5160" stroke-width="0.080" stroke-linecap="round" opacity="0.7"/><line x1="0.000" y1="0.500" x2="0.000" y2="0.000" stroke="#4a5160" stroke-width="0.080" stroke-linecap="round" opacity="0.7"/><line x1="0.415" y1="0.000" x2="0.915" y2="0.000" stroke="#4a5160" stroke-width="0.080" stroke-linecap="round" opacity="0.7"/><line x1="0.595" y1="-1.400" x2="1.235" y2="-1.400" stroke="#4a5160" stroke-width="0.080" stroke-linecap="round" opacity="0.7"/><line x1="0.595" y1="1.400" x2="0.595" y2="-1.400" stroke="#4a5160" stroke-width="0.080" stroke-linecap="round" opacity="0.7"/><line x1="0.595" y1="1.400" x2="1.235" y2="1.400" stroke="#4a5160" stroke-width="0.080" stroke-linecap="round" opacity="0.7"/><line x1="0.915" y1="0.000" x2="0.915" y2="-0.500" stroke="#4a5160" stroke-width="0.080" stroke-linecap="round" opacity="0.7"/><line x1="0.915" y1="0.000" x2="1.415" y2="0.000" stroke="#4a5160" stroke-width="0.080" stroke-linecap="round" opacity="0.7"/><line x1="0.915" y1="0.500" x2="0.915" y2="0.000" stroke="#4a5160" stroke-width="0.080" stroke-linecap="round" opacity="0.7"/><line x1="1.235" y1="1.400" x2="1.235" y2="-1.400" stroke="#4a5160" stroke-width="0.080" stroke-linecap="round" opacity="0.7"/><line x1="-1.485" y1="-1.650" x2="1.485" y2="-1.650" stroke="#d24d4d" stroke-width="0.080" stroke-linecap="round" opacity="0.7"/><line x1="-1.485" y1="1.650" x2="-1.485" y2="-1.650" stroke="#d24d4d" stroke-width="0.080" stroke-linecap="round" opacity="0.7"/><line x1="-1.485" y1="1.650" x2="1.485" y2="1.650" stroke="#d24d4d" stroke-width="0.080" stroke-linecap="round" opacity="0.7"/><line x1="1.485" y1="1.650" x2="1.485" y2="-1.650" stroke="#d24d4d" stroke-width="0.080" stroke-linecap="round" opacity="0.7"/><line x1="-1.184" y1="1.143" x2="-1.091" y2="-0.957" stroke="#6b7280" stroke-width="0.100" stroke-linecap="round" opacity="0.8"/><line x1="-1.184" y1="1.143" x2="-0.796" y2="1.143" stroke="#6b7280" stroke-width="0.100" stroke-linecap="round" opacity="0.8"/><line x1="-1.091" y1="-0.957" x2="-0.828" y2="0.963" stroke="#6b7280" stroke-width="0.100" stroke-linecap="round" opacity="0.8"/><line x1="-0.828" y1="0.963" x2="-0.706" y2="-0.957" stroke="#6b7280" stroke-width="0.100" stroke-linecap="round" opacity="0.8"/><line x1="-0.796" y1="1.143" x2="-0.796" y2="1.069" stroke="#6b7280" stroke-width="0.100" stroke-linecap="round" opacity="0.8"/><line x1="-0.443" y1="0.962" x2="-0.322" y2="-0.958" stroke="#6b7280" stroke-width="0.100" stroke-linecap="round" opacity="0.8"/><line x1="-0.058" y1="0.962" x2="0.063" y2="-0.958" stroke="#6b7280" stroke-width="0.100" stroke-linecap="round" opacity="0.8"/><line x1="0.326" y1="0.961" x2="0.448" y2="-0.960" stroke="#6b7280" stroke-width="0.100" stroke-linecap="round" opacity="0.8"/><line x1="0.711" y1="0.961" x2="0.833" y2="-0.960" stroke="#6b7280" stroke-width="0.100" stroke-linecap="round" opacity="0.8"/><line x1="0.763" y1="-1.142" x2="1.148" y2="-1.142" stroke="#6b7280" stroke-width="0.100" stroke-linecap="round" opacity="0.8"/><line x1="0.763" y1="-1.109" x2="0.763" y2="-1.142" stroke="#6b7280" stroke-width="0.100" stroke-linecap="round" opacity="0.8"/><line x1="0.833" y1="-0.960" x2="1.100" y2="0.961" stroke="#6b7280" stroke-width="0.100" stroke-linecap="round" opacity="0.8"/><line x1="1.100" y1="0.961" x2="1.148" y2="-1.142" stroke="#6b7280" stroke-width="0.100" stroke-linecap="round" opacity="0.8"/><path d="M -0.245 -1.112 A 0.192 0.192 0 0 1 0.063 -0.958" fill="none" stroke="#e6e9ef" stroke-width="0.12" opacity="1"/><path d="M -0.058 0.962 A 0.192 0.192 0 0 1 -0.245 1.155" fill="none" stroke="#e6e9ef" stroke-width="0.12" opacity="1"/><path d="M 0.063 -0.958 A 0.192 0.192 0 0 1 0.210 -1.146" fill="none" stroke="#e6e9ef" stroke-width="0.12" opacity="1"/><path d="M 0.210 1.139 A 0.192 0.192 0 0 1 -0.058 0.962" fill="none" stroke="#e6e9ef" stroke-width="0.12" opacity="1"/><path d="M -1.091 -0.957 A 0.192 0.192 0 1 1 -0.706 -0.957" fill="none" stroke="#6b7280" stroke-width="0.12" opacity="0.8"/><path d="M -0.706 -0.957 A 0.192 0.192 0 1 1 -0.322 -0.957" fill="none" stroke="#6b7280" stroke-width="0.12" opacity="0.8"/><path d="M -0.443 0.963 A 0.192 0.192 0 1 1 -0.828 0.963" fill="none" stroke="#6b7280" stroke-width="0.12" opacity="0.8"/><path d="M -0.322 -0.958 A 0.192 0.192 0 1 1 0.063 -0.958" fill="none" stroke="#6b7280" stroke-width="0.12" opacity="0.8"/><path d="M -0.058 0.962 A 0.192 0.192 0 1 1 -0.443 0.962" fill="none" stroke="#6b7280" stroke-width="0.12" opacity="0.8"/><path d="M 0.063 -0.958 A 0.192 0.192 0 1 1 0.448 -0.958" fill="none" stroke="#6b7280" stroke-width="0.12" opacity="0.8"/><path d="M 0.326 0.962 A 0.192 0.192 0 1 1 -0.058 0.962" fill="none" stroke="#6b7280" stroke-width="0.12" opacity="0.8"/><path d="M 0.448 -0.960 A 0.192 0.192 0 1 1 0.833 -0.960" fill="none" stroke="#6b7280" stroke-width="0.12" opacity="0.8"/><path d="M 0.711 0.961 A 0.192 0.192 0 1 1 0.326 0.961" fill="none" stroke="#6b7280" stroke-width="0.12" opacity="0.8"/><path d="M 1.096 0.961 A 0.192 0.192 0 1 1 0.711 0.961" fill="none" stroke="#6b7280" stroke-width="0.12" opacity="0.8"/><rect x="-1.235" y="-1.400" width="0.640" height="2.800" rx="0.000" fill="#c79b5c"/><rect x="0.595" y="-1.400" width="0.640" height="2.800" rx="0.000" fill="#c79b5c"/><polygon points="-1.36,2.45 -0.47,2.45 -0.92,1.85" fill="#ffffff"/></svg>