<svg xmlns="http://www.w3.org/2000/svg" viewBox="-27.02 -3.89 54.04 8.24" preserveAspectRatio="xMidYMid meet" style="width:100%;height:100%"><rect x="-27.02" y="-3.89" width="54.04" height="8.24" fill="#12151c"/><line x1="-26.020" y1="-2.890" x2="26.020" y2="-2.890" stroke="#d24d4d" stroke-width="0.080" stroke-linecap="round" opacity="0.7"/><line x1="26.020" y1="-2.890" x2="26.020" y2="2.880" stroke="#d24d4d" stroke-width="0.080" stroke-linecap="round" opacity="0.7"/><line x1="26.020" y1="2.880" x2="-26.020" y2="2.880" stroke="#d24d4d" stroke-width="0.080" stroke-linecap="round" opacity="0.7"/><line x1="-26.020" y1="2.880" x2="-26.020" y2="-2.890" stroke="#d24d4d" stroke-width="0.080" stroke-linecap="round" opacity="0.7"/><circle cx="24.000" cy="3.200" r="0.150" fill="none" stroke="#e6e9ef" stroke-width="0.12" opacity="1"/><circle cx="24.000" cy="3.200" r="0.150" fill="none" stroke="#6b7280" stroke-width="0.12" opacity="0.8"/><rect x="23.200" y="0.200" width="1.600" height="1.600" rx="0.800" fill="#c79b5c"/><circle cx="24.000" cy="1.000" r="0.450" fill="#12151c"/><rect x="23.200" y="-1.800" width="1.600" height="1.600" rx="0.800" fill="#c79b5c"/><circle cx="24.000" cy="-1.000" r="0.450" fill="#12151c"/><rect x="21.200" y="0.200" width="1.600" height="1.600" rx="0.800" fill="#c79b5c"/><circle cx="22.000" cy="1.000" r="0.450" fill="#12151c"/><rect x="21.200" y="-1.800" width="1.600" height="1.600" rx="0.800" fill="#c79b5c"/><circle cx="22.000" cy="-1.000" r="0.450" fill="#12151c"/><rect x="19.200" y="0.200" width="1.600" height="1.600" rx="0.800" fill="#c79b5c"/><circle cx="20.000" cy="1.000" r="0.450" fill="#12151c"/><rect x="19.200" y="-1.800" width="1.600" height="1.600" rx="0.800" fill="#c79b5c"/><circle cx="20.000" cy="-1.000" r="0.450" fill="#12151c"/><rect x="17.200" y="0.200" width="1.600" height="1.600" rx="0.800" fill="#c79b5c"/><circle cx="18.000" cy="1.000" r="0.450" fill="#12151c"/><rect x="17.200" y="-1.800" width="1.600" height="1.600" rx="0.800" fill="#c79b5c"/><circle cx="18.000" cy="-1.000" r="0.450" fill="#12151c"/><rect x="15.200" y="0.200" width="1.600" height="1.600" rx="0.800" fill="#c79b5c"/><circle cx="16.000" cy="1.000" r="0.450" fill="#12151c"/><rect x="15.200" y="-1.800" width="1.600" height="1.600" rx="0.800" fill="#c79b5c"/><circle cx="16.000" cy="-1.000" r="0.450" fill="#12151c"/><rect x="13.200" y="0.200" width="1.600" height="1.600" rx="0.800" fill="#c79b5c"/><circle cx="14.000" cy="1.000" r="0.450" fill="#12151c"/><rect x="13.200" y="-1.800" width="1.600" height="1.600" rx="0.800" fill="#c79b5c"/><circle cx="14.000" cy="-1.000" r="0.450" fill="#12151c"/><rect x="11.200" y="0.200" width="1.600" height="1.600" rx="0.800" fill="#c79b5c"/><circle cx="12.000" cy="1.000" r="0.450" fill="#12151c"/><rect x="11.200" y="-1.800" width="1.600" height="1.600" rx="0.800" fill="#c79b5c"/><circle cx="12.000" cy="-1.000" r="0.450" fill="#12151c"/><rect x="9.200" y="0.200" width="1.600" height="1.600" rx="0.800" fill="#c79b5c"/><circle cx="10.000" cy="1.000" r="0.450" fill="#12151c"/><rect x="9.200" y="-1.800" width="1.600" height="1.600" rx="0.800" fill="#c79b5c"/><circle cx="10.000" cy="-1.000" r="0.450" fill="#12151c"/><rect x="7.200" y="0.200" width="1.600" height="1.600" rx="0.800" fill="#c79b5c"/><circle cx="8.000" cy="1.000" r="0.450" fill="#12151c"/><rect x="7.200" y="-1.800" width="1.600" height="1.600" rx="0.800" fill="#c79b5c"/><circle cx="8.000" cy="-1.000" r="0.450" fill="#12151c"/><rect x="5.200" y="0.200" width="1.600" height="1.600" rx="0.800" fill="#c79b5c"/><circle cx="6.000" cy="1.000" r="0.450" fill="#12151c"/><rect x="5.200" y="-1.800" width="1.600" height="1.600" rx="0.800" fill="#c79b5c"/><circle cx="6.000" cy="-1.000" r="0.450" fill="#12151c"/><rect x="3.200" y="0.200" width="1.600" height="1.600" rx="0.800" fill="#c79b5c"/><circle cx="4.000" cy="1.000" r="0.450" fill="#12151c"/><rect x="3.200" y="-1.800" width="1.600" height="1.600" rx="0.800" fill="#c79b5c"/><circle cx="4.000" cy="-1.000" r="0.450" fill="#12151c"/><rect x="1.200" y="0.200" width="1.600" height="1.600" rx="0.800" fill="#c79b5c"/><circle cx="2.000" cy="1.000" r="0.450" fill="#12151c"/><rect x="1.200" y="-1.800" width="1.600" height="1.600" rx="0.800" fill="#c79b5c"/><circle cx="2.000" cy="-1.000" r="0.450" fill="#12151c"/><rect x="-0.800" y="0.200" width="1.600" height="1.600" rx="0.800" fill="#c79b5c"/><circle cx="0.000" cy="1.000" r="0.450" fill="#12151c"/><rect x="-0.800" y="-1.800" width="1.600" height="1.600" rx="0.800" fill="#c79b5c"/><circle cx="0.000" cy="-1.000" r="0.450" fill="#12151c"/><rect x="-2.800" y="0.200" width="1.600" height="1.600" rx="0.800" fill="#c79b5c"/><circle cx="-2.000" cy="1.000" r="0.450" fill="#12151c"/><rect x="-2.800" y="-1.800" width="1.600" height="1.600" rx="0.800" fill="#c79b5c"/><circle cx="-2.000" cy="-1.000" r="0.450" fill="#12151c"/><rect x="-4.800" y="0.200" width="1.600" height="1.600" rx="0.800" fill="#c79b5c"/><circle cx="-4.000" cy="1.000" r="0.450" fill="#12151c"/><rect x="-4.800" y="-1.800" width="1.600" height="1.600" rx="0.800" fill="#c79b5c"/><circle cx="-4.000" cy="-1.000" r="0.450" fill="#12151c"/><rect x="-6.800" y="0.200" width="1.600" height="1.600" rx="0.800" fill="#c79b5c"/><circle cx="-6.000" cy="1.000" r="0.450" fill="#12151c"/><rect x="-6.800" y="-1.800" width="1.600" height="1.600" rx="0.800" fill="#c79b5c"/><circle cx="-6.000" cy="-1.000" r="0.450" fill="#12151c"/><rect x="-8.800" y="0.200" width="1.600" height="1.600" rx="0.800" fill="#c79b5c"/><circle cx="-8.000" cy="1.000" r="0.450" fill="#12151c"/><rect x="-8.800" y="-1.800" width="1.600" height="1.600" rx="0.800" fill="#c79b5c"/><circle cx="-8.000" cy="-1.000" r="0.450" fill="#12151c"/><rect x="-10.800" y="0.200" width="1.600" height="1.600" rx="0.800" fill="#c79b5c"/><circle cx="-10.000" cy="1.000" r="0.450" fill="#12151c"/><rect x="-10.800" y="-1.800" width="1.600" height="1.600" rx="0.800" fill="#c79b5c"/><circle cx="-10.000" cy="-1.000" r="0.450" fill="#12151c"/><rect x="-12.800" y="0.200" width="1.600" height="1.600" rx="0.800" fill="#c79b5c"/><circle cx="-12.000" cy="1.000" r="0.450" fill="#12151c"/><rect x="-12.800" y="-1.800" width="1.600" height="1.600" rx="0.800" fill="#c79b5c"/><circle cx="-12.000" cy="-1.000" r="0.450" fill="#12151c"/><rect x="-14.800" y="0.200" width="1.600" height="1.600" rx="0.800" fill="#c79b5c"/><circle cx="-14.000" cy="1.000" r="0.450" fill="#12151c"/><rect x="-14.800" y="-1.800" width="1.600" height="1.600" rx="0.800" fill="#c79b5c"/><circle cx="-14.000" cy="-1.000" r="0.450" fill="#12151c"/><rect x="-16.800" y="0.200" width="1.600" height="1.600" rx="0.800" fill="#c79b5c"/><circle cx="-16.000" cy="1.000" r="0.450" fill="#12151c"/><rect x="-16.800" y="-1.800" width="1.600" height="1.600" rx="0.800" fill="#c79b5c"/><circle cx="-16.000" cy="-1.000" r="0.450" fill="#12151c"/><rect x="-18.800" y="0.200" width="1.600" height="1.600" rx="0.800" fill="#c79b5c"/><circle cx="-18.000" cy="1.000" r="0.450" fill="#12151c"/><rect x="-18.800" y="-1.800" width="1.600" height="1.600" rx="0.800" fill="#c79b5c"/><circle cx="-18.000" cy="-1.000" r="0.450" fill="#12151c"/><rect x="-20.800" y="0.200" width="1.600" height="1.600" rx="0.800" fill="#c79b5c"/><circle cx="-20.000" cy="1.000" r="0.450" fill="#12151c"/><rect x="-20.800" y="-1.800" width="1.600" height="1.600" rx="0.800" fill="#c79b5c"/><circle cx="-20.000" cy="-1.000" r="0.450" fill="#12151c"/><rect x="-22.800" y="0.200" width="1.600" height="1.600" rx="0.800" fill="#c79b5c"/><circle cx="-22.000" cy="1.000" r="0.450" fill="#12151c"/><rect x="-22.800" y="-1.800" width="1.600" height="1.600" rx="0.800" fill="#c79b5c"/><circle cx="-22.000" cy="-1.000" r="0.450" fill="#12151c"/><rect x="-24.800" y="0.200" width="1.600" height="1.600" rx="0.800" fill="#c79b5c"/><circle cx="-24.000" cy="1.000" r="0.450" fill="#12151c"/><rect x="-24.800" y="-1.800" width="1.600" height="1.600" rx="0.800" fill="#c79b5c"/><circle cx="-24.000" cy="-1.000" r="0.450" fill="#12151c"/></svg>