<svg xmlns="http://www.w3.org/2000/svg" viewBox="-7.03 -3.29 14.06 6.57" preserveAspectRatio="xMidYMid meet" style="width:100%;height:100%"><rect x="-7.03" y="-3.29" width="14.06" height="6.57" fill="#12151c"/><line x1="-5.780" y1="-1.780" x2="-5.035" y2="-1.780" stroke="#e6e9ef" stroke-width="0.200" stroke-linecap="round" opacity="1"/><line x1="-5.780" y1="1.780" x2="-5.780" y2="-1.780" stroke="#e6e9ef" stroke-width="0.200" stroke-linecap="round" opacity="1"/><line x1="-5.780" y1="1.780" x2="-5.035" y2="1.780" stroke="#e6e9ef" stroke-width="0.200" stroke-linecap="round" opacity="1"/><line x1="-1.265" y1="-1.780" x2="1.265" y2="-1.780" stroke="#e6e9ef" stroke-width="0.200" stroke-linecap="round" opacity="1"/><line x1="-1.265" y1="1.780" x2="1.265" y2="1.780" stroke="#e6e9ef" stroke-width="0.200" stroke-linecap="round" opacity="1"/><line x1="5.035" y1="-1.780" x2="5.780" y2="-1.780" stroke="#e6e9ef" stroke-width="0.200" stroke-linecap="round" opacity="1"/><line x1="5.035" y1="1.780" x2="5.780" y2="1.780" stroke="#e6e9ef" stroke-width="0.200" stroke-linecap="round" opacity="1"/><line x1="5.780" y1="1.780" x2="5.780" y2="-1.780" stroke="#e6e9ef" stroke-width="0.200" stroke-linecap="round" opacity="1"/><line x1="-4.685" y1="-2.035" x2="-1.615" y2="-2.035" stroke="#4a5160" stroke-width="0.080" stroke-linecap="round" opacity="0.7"/><line x1="-4.685" y1="2.035" x2="-4.685" y2="-2.035" stroke="#4a5160" stroke-width="0.080" stroke-linecap="round" opacity="0.7"/><line x1="-4.685" y1="2.035" x2="-1.615" y2="2.035" stroke="#4a5160" stroke-width="0.080" stroke-linecap="round" opacity="0.7"/><line x1="-3.650" y1="0.000" x2="-3.150" y2="0.000" stroke="#4a5160" stroke-width="0.080" stroke-linecap="round" opacity="0.7"/><line x1="-3.150" y1="0.000" x2="-3.150" y2="-0.500" stroke="#4a5160" stroke-width="0.080" stroke-linecap="round" opacity="0.7"/><line x1="-3.150" y1="0.000" x2="-2.650" y2="0.000" stroke="#4a5160" stroke-width="0.080" stroke-linecap="round" opacity="0.7"/><line x1="-3.150" y1="0.500" x2="-3.150" y2="0.000" stroke="#4a5160" stroke-width="0.080" stroke-linecap="round" opacity="0.7"/><line x1="-1.615" y1="2.035" x2="-1.615" y2="-2.035" stroke="#4a5160" stroke-width="0.080" stroke-linecap="round" opacity="0.7"/><line x1="-0.500" y1="0.000" x2="0.000" y2="0.000" stroke="#4a5160" stroke-width="0.080" stroke-linecap="round" opacity="0.7"/><line x1="0.000" y1="0.000" x2="0.000" y2="-0.500" stroke="#4a5160" stroke-width="0.080" stroke-linecap="round" opacity="0.7"/><line x1="0.000" y1="0.000" x2="0.500" y2="0.000" stroke="#4a5160" stroke-width="0.080" stroke-linecap="round" opacity="0.7"/><line x1="0.000" y1="0.500" x2="0.000" y2="0.000" stroke="#4a5160" stroke-width="0.080" stroke-linecap="round" opacity="0.7"/><line x1="1.615" y1="-2.035" x2="4.685" y2="-2.035" stroke="#4a5160" stroke-width="0.080" stroke-linecap="round" opacity="0.7"/><line x1="1.615" y1="2.035" x2="1.615" y2="-2.035" stroke="#4a5160" stroke-width="0.080" stroke-linecap="round" opacity="0.7"/><line x1="1.615" y1="2.035" x2="4.685" y2="2.035" stroke="#4a5160" stroke-width="0.080" stroke-linecap="round" opacity="0.7"/><line x1="2.650" y1="0.000" x2="3.150" y2="0.000" stroke="#4a5160" stroke-width="0.080" stroke-linecap="round" opacity="0.7"/><line x1="3.150" y1="0.000" x2="3.150" y2="-0.500" stroke="#4a5160" stroke-width="0.080" stroke-linecap="round" opacity="0.7"/><line x1="3.150" y1="0.000" x2="3.650" y2="0.000" stroke="#4a5160" stroke-width="0.080" stroke-linecap="round" opacity="0.7"/><line x1="3.150" y1="0.500" x2="3.150" y2="0.000" stroke="#4a5160" stroke-width="0.080" stroke-linecap="round" opacity="0.7"/><line x1="4.685" y1="2.035" x2="4.685" y2="-2.035" stroke="#4a5160" stroke-width="0.080" stroke-linecap="round" opacity="0.7"/><line x1="-6.030" y1="-2.285" x2="6.030" y2="-2.285" stroke="#d24d4d" stroke-width="0.080" stroke-linecap="round" opacity="0.7"/><line x1="-6.030" y1="2.285" x2="-6.030" y2="-2.285" stroke="#d24d4d" stroke-width="0.080" stroke-linecap="round" opacity="0.7"/><line x1="-6.030" y1="2.285" x2="6.030" y2="2.285" stroke="#d24d4d" stroke-width="0.080" stroke-linecap="round" opacity="0.7"/><line x1="6.030" y1="2.285" x2="6.030" y2="-2.285" stroke="#d24d4d" stroke-width="0.080" stroke-linecap="round" opacity="0.7"/><line x1="-5.780" y1="-1.780" x2="5.780" y2="-1.780" stroke="#6b7280" stroke-width="0.100" stroke-linecap="round" opacity="0.8"/><line x1="-5.780" y1="1.780" x2="-5.780" y2="-1.780" stroke="#6b7280" stroke-width="0.100" stroke-linecap="round" opacity="0.8"/><line x1="-5.780" y1="1.780" x2="5.780" y2="1.780" stroke="#6b7280" stroke-width="0.100" stroke-linecap="round" opacity="0.8"/><line x1="5.780" y1="1.780" x2="5.780" y2="-1.780" stroke="#6b7280" stroke-width="0.100" stroke-linecap="round" opacity="0.8"/><rect x="-4.685" y="-2.035" width="3.070" height="4.070" rx="0.000" fill="#c79b5c"/><rect x="1.615" y="-2.035" width="3.070" height="4.070" rx="0.000" fill="#c79b5c"/><polygon points="-3.60,3.08 -2.70,3.08 -3.15,2.49" fill="#ffffff"/></svg>