<svg xmlns="http://www.w3.org/2000/svg" viewBox="-2.00 -2.00 11.62 4.00" preserveAspectRatio="xMidYMid meet" style="width:100%;height:100%"><rect x="-2.00" y="-2.00" width="11.62" height="4.00" fill="#12151c"/><line x1="1.670" y1="-0.400" x2="5.950" y2="-0.400" stroke="#e6e9ef" stroke-width="0.200" stroke-linecap="round" opacity="1"/><line x1="1.670" y1="0.400" x2="5.950" y2="0.400" stroke="#e6e9ef" stroke-width="0.200" stroke-linecap="round" opacity="1"/><line x1="-0.500" y1="0.000" x2="0.000" y2="0.000" stroke="#4a5160" stroke-width="0.100" stroke-linecap="round" opacity="0.7"/><line x1="0.000" y1="0.000" x2="0.000" y2="-0.500" stroke="#4a5160" stroke-width="0.100" stroke-linecap="round" opacity="0.7"/><line x1="0.000" y1="0.000" x2="0.500" y2="0.000" stroke="#4a5160" stroke-width="0.100" stroke-linecap="round" opacity="0.7"/><line x1="0.000" y1="0.500" x2="0.000" y2="0.000" stroke="#4a5160" stroke-width="0.100" stroke-linecap="round" opacity="0.7"/><line x1="7.120" y1="0.000" x2="7.620" y2="0.000" stroke="#4a5160" stroke-width="0.100" stroke-linecap="round" opacity="0.7"/><line x1="7.620" y1="0.000" x2="7.620" y2="-0.500" stroke="#4a5160" stroke-width="0.100" stroke-linecap="round" opacity="0.7"/><line x1="7.620" y1="0.000" x2="8.120" y2="0.000" stroke="#4a5160" stroke-width="0.100" stroke-linecap="round" opacity="0.7"/><line x1="7.620" y1="0.500" x2="7.620" y2="0.000" stroke="#4a5160" stroke-width="0.100" stroke-linecap="round" opacity="0.7"/><line x1="0.000" y1="-0.400" x2="7.620" y2="-0.400" stroke="#6b7280" stroke-width="0.100" stroke-linecap="round" opacity="0.8"/><line x1="0.000" y1="0.400" x2="7.620" y2="0.400" stroke="#6b7280" stroke-width="0.100" stroke-linecap="round" opacity="0.8"/><line x1="-1.000" y1="-1.000" x2="8.620" y2="-1.000" stroke="#d24d4d" stroke-width="0.080" stroke-linecap="round" opacity="0.7"/><line x1="8.620" y1="-1.000" x2="8.620" y2="1.000" stroke="#d24d4d" stroke-width="0.080" stroke-linecap="round" opacity="0.7"/><line x1="8.620" y1="1.000" x2="-1.000" y2="1.000" stroke="#d24d4d" stroke-width="0.080" stroke-linecap="round" opacity="0.7"/><line x1="-1.000" y1="1.000" x2="-1.000" y2="-1.000" stroke="#d24d4d" stroke-width="0.080" stroke-linecap="round" opacity="0.7"/><path d="M 0.000 0.400 A 0.400 0.400 0 0 1 0.000 -0.400" fill="none" stroke="#6b7280" stroke-width="0.12" opacity="0.8"/><path d="M 7.620 -0.400 A 0.400 0.400 0 1 1 7.578 0.398" fill="none" stroke="#6b7280" stroke-width="0.12" opacity="0.8"/><rect x="-0.750" y="-0.750" width="1.500" height="1.500" rx="0.750" fill="#c79b5c"/><circle cx="0.000" cy="0.000" r="0.400" fill="#12151c"/><rect x="6.870" y="-0.750" width="1.500" height="1.500" rx="0.750" fill="#c79b5c"/><circle cx="7.620" cy="0.000" r="0.400" fill="#12151c"/><polygon points="-0.45,1.80 0.45,1.80 0.00,1.20" fill="#ffffff"/></svg>