<svg xmlns="http://www.w3.org/2000/svg" viewBox="-4.83 -6.15 9.65 12.30" preserveAspectRatio="xMidYMid meet" style="width:100%;height:100%"><rect x="-4.83" y="-6.15" width="9.65" height="12.30" fill="#12151c"/><line x1="-1.750" y1="-4.500" x2="-1.250" y2="-4.500" stroke="#e6e9ef" stroke-width="0.200" stroke-linecap="round" opacity="1"/><line x1="-1.750" y1="4.500" x2="-1.250" y2="4.500" stroke="#e6e9ef" stroke-width="0.200" stroke-linecap="round" opacity="1"/><line x1="1.250" y1="-4.500" x2="1.750" y2="-4.500" stroke="#e6e9ef" stroke-width="0.200" stroke-linecap="round" opacity="1"/><line x1="1.250" y1="4.500" x2="1.750" y2="4.500" stroke="#e6e9ef" stroke-width="0.200" stroke-linecap="round" opacity="1"/><line x1="-2.400" y1="-5.150" x2="2.400" y2="-5.150" stroke="#d24d4d" stroke-width="0.080" stroke-linecap="round" opacity="0.7"/><line x1="-2.400" y1="5.150" x2="-2.400" y2="-5.150" stroke="#d24d4d" stroke-width="0.080" stroke-linecap="round" opacity="0.7"/><line x1="-2.400" y1="5.150" x2="2.400" y2="5.150" stroke="#d24d4d" stroke-width="0.080" stroke-linecap="round" opacity="0.7"/><line x1="2.400" y1="5.150" x2="2.400" y2="-5.150" stroke="#d24d4d" stroke-width="0.080" stroke-linecap="round" opacity="0.7"/><line x1="-1.750" y1="-4.500" x2="1.750" y2="-4.500" stroke="#6b7280" stroke-width="0.100" stroke-linecap="round" opacity="0.8"/><line x1="-1.750" y1="-4.400" x2="-1.650" y2="-4.500" stroke="#6b7280" stroke-width="0.100" stroke-linecap="round" opacity="0.8"/><line x1="-1.750" y1="-4.300" x2="-1.550" y2="-4.500" stroke="#6b7280" stroke-width="0.100" stroke-linecap="round" opacity="0.8"/><line x1="-1.750" y1="-4.200" x2="-1.450" y2="-4.500" stroke="#6b7280" stroke-width="0.100" stroke-linecap="round" opacity="0.8"/><line x1="-1.750" y1="-4.100" x2="-1.350" y2="-4.500" stroke="#6b7280" stroke-width="0.100" stroke-linecap="round" opacity="0.8"/><line x1="-1.750" y1="-4.000" x2="-1.250" y2="-4.500" stroke="#6b7280" stroke-width="0.100" stroke-linecap="round" opacity="0.8"/><line x1="-1.750" y1="-3.900" x2="-1.150" y2="-4.500" stroke="#6b7280" stroke-width="0.100" stroke-linecap="round" opacity="0.8"/><line x1="-1.750" y1="-3.800" x2="-1.050" y2="-4.500" stroke="#6b7280" stroke-width="0.100" stroke-linecap="round" opacity="0.8"/><line x1="-1.750" y1="-3.700" x2="-0.950" y2="-4.500" stroke="#6b7280" stroke-width="0.100" stroke-linecap="round" opacity="0.8"/><line x1="-1.750" y1="-3.600" x2="-0.850" y2="-4.500" stroke="#6b7280" stroke-width="0.100" stroke-linecap="round" opacity="0.8"/><line x1="-1.750" y1="-3.500" x2="-0.750" y2="-4.500" stroke="#6b7280" stroke-width="0.100" stroke-linecap="round" opacity="0.8"/><line x1="-1.750" y1="4.500" x2="-1.750" y2="-4.475" stroke="#6b7280" stroke-width="0.100" stroke-linecap="round" opacity="0.8"/><line x1="-1.750" y1="4.500" x2="1.750" y2="4.500" stroke="#6b7280" stroke-width="0.100" stroke-linecap="round" opacity="0.8"/><line x1="1.750" y1="4.500" x2="1.750" y2="-4.475" stroke="#6b7280" stroke-width="0.100" stroke-linecap="round" opacity="0.8"/><circle cx="-2.700" cy="-4.000" r="0.150" fill="#e6e9ef" opacity="1"/><rect x="-2.125" y="-4.150" width="0.850" height="0.300" rx="0.000" fill="#c79b5c"/><rect x="-2.125" y="-3.650" width="0.850" height="0.300" rx="0.000" fill="#c79b5c"/><rect x="-2.125" y="-3.150" width="0.850" height="0.300" rx="0.000" fill="#c79b5c"/><rect x="-2.125" y="-2.650" width="0.850" height="0.300" rx="0.000" fill="#c79b5c"/><rect x="-2.125" y="-2.150" width="0.850" height="0.300" rx="0.000" fill="#c79b5c"/><rect x="-2.125" y="-1.650" width="0.850" height="0.300" rx="0.000" fill="#c79b5c"/><rect x="-2.125" y="-1.150" width="0.850" height="0.300" rx="0.000" fill="#c79b5c"/><rect x="-2.125" y="-0.650" width="0.850" height="0.300" rx="0.000" fill="#c79b5c"/><rect x="-2.125" y="-0.150" width="0.850" height="0.300" rx="0.000" fill="#c79b5c"/><rect x="-2.125" y="0.350" width="0.850" height="0.300" rx="0.000" fill="#c79b5c"/><rect x="-2.125" y="0.850" width="0.850" height="0.300" rx="0.000" fill="#c79b5c"/><rect x="-2.125" y="1.350" width="0.850" height="0.300" rx="0.000" fill="#c79b5c"/><rect x="-2.125" y="1.850" width="0.850" height="0.300" rx="0.000" fill="#c79b5c"/><rect x="-2.125" y="2.350" width="0.850" height="0.300" rx="0.000" fill="#c79b5c"/><rect x="-2.125" y="2.850" width="0.850" height="0.300" rx="0.000" fill="#c79b5c"/><rect x="-2.125" y="3.350" width="0.850" height="0.300" rx="0.000" fill="#c79b5c"/><rect x="-2.125" y="3.850" width="0.850" height="0.300" rx="0.000" fill="#c79b5c"/><rect x="-1.175" y="4.300" width="0.850" height="0.300" rx="0.000" fill="#c79b5c"/><rect x="-0.675" y="4.300" width="0.850" height="0.300" rx="0.000" fill="#c79b5c"/><rect x="-0.175" y="4.300" width="0.850" height="0.300" rx="0.000" fill="#c79b5c"/><rect x="0.325" y="4.300" width="0.850" height="0.300" rx="0.000" fill="#c79b5c"/><rect x="1.275" y="3.850" width="0.850" height="0.300" rx="0.000" fill="#c79b5c"/><rect x="1.275" y="3.350" width="0.850" height="0.300" rx="0.000" fill="#c79b5c"/><rect x="1.275" y="2.850" width="0.850" height="0.300" rx="0.000" fill="#c79b5c"/><rect x="1.275" y="2.350" width="0.850" height="0.300" rx="0.000" fill="#c79b5c"/><rect x="1.275" y="1.850" width="0.850" height="0.300" rx="0.000" fill="#c79b5c"/><rect x="1.275" y="1.350" width="0.850" height="0.300" rx="0.000" fill="#c79b5c"/><rect x="1.275" y="0.850" width="0.850" height="0.300" rx="0.000" fill="#c79b5c"/><rect x="1.275" y="0.350" width="0.850" height="0.300" rx="0.000" fill="#c79b5c"/><rect x="1.275" y="-0.150" width="0.850" height="0.300" rx="0.000" fill="#c79b5c"/><rect x="1.275" y="-0.650" width="0.850" height="0.300" rx="0.000" fill="#c79b5c"/><rect x="1.275" y="-1.150" width="0.850" height="0.300" rx="0.000" fill="#c79b5c"/><rect x="1.275" y="-1.650" width="0.850" height="0.300" rx="0.000" fill="#c79b5c"/><rect x="1.275" y="-2.150" width="0.850" height="0.300" rx="0.000" fill="#c79b5c"/><rect x="1.275" y="-2.650" width="0.850" height="0.300" rx="0.000" fill="#c79b5c"/><rect x="1.275" y="-3.150" width="0.850" height="0.300" rx="0.000" fill="#c79b5c"/><rect x="1.275" y="-3.650" width="0.850" height="0.300" rx="0.000" fill="#c79b5c"/><rect x="1.275" y="-4.150" width="0.850" height="0.300" rx="0.000" fill="#c79b5c"/><rect x="0.325" y="-4.600" width="0.850" height="0.300" rx="0.000" fill="#c79b5c"/><rect x="-0.175" y="-4.600" width="0.850" height="0.300" rx="0.000" fill="#c79b5c"/><rect x="-0.675" y="-4.600" width="0.850" height="0.300" rx="0.000" fill="#c79b5c"/><rect x="-1.175" y="-4.600" width="0.850" height="0.300" rx="0.000" fill="#c79b5c"/><rect x="-3.825" y="-1.075" width="7.650" height="2.150" rx="0.000" fill="#c79b5c"/></svg>