<svg xmlns="http://www.w3.org/2000/svg" viewBox="-3.22 -2.75 6.44 5.50" preserveAspectRatio="xMidYMid meet" style="width:100%;height:100%"><rect x="-3.22" y="-2.75" width="6.44" height="5.50" fill="#12151c"/><line x1="-0.308" y1="1.500" x2="0.200" y2="1.500" stroke="#e6e9ef" stroke-width="0.200" stroke-linecap="round" opacity="1"/><line x1="-0.200" y1="-1.500" x2="0.200" y2="-1.500" stroke="#e6e9ef" stroke-width="0.200" stroke-linecap="round" opacity="1"/><line x1="-0.200" y1="-1.500" x2="0.250" y2="-1.500" stroke="#6b7280" stroke-width="0.100" stroke-linecap="round" opacity="0.8"/><line x1="-0.200" y1="1.500" x2="0.200" y2="1.500" stroke="#6b7280" stroke-width="0.100" stroke-linecap="round" opacity="0.8"/><line x1="-2.220" y1="-1.750" x2="2.220" y2="-1.750" stroke="#d24d4d" stroke-width="0.080" stroke-linecap="round" opacity="0.7"/><line x1="2.220" y1="-1.750" x2="2.220" y2="1.750" stroke="#d24d4d" stroke-width="0.080" stroke-linecap="round" opacity="0.7"/><line x1="2.220" y1="1.750" x2="-2.220" y2="1.750" stroke="#d24d4d" stroke-width="0.080" stroke-linecap="round" opacity="0.7"/><line x1="-2.220" y1="1.750" x2="-2.220" y2="-1.750" stroke="#d24d4d" stroke-width="0.080" stroke-linecap="round" opacity="0.7"/><path d="M -1.164 -1.149 A 1.500 1.500 0 0 1 -0.200 -1.500" fill="none" stroke="#e6e9ef" stroke-width="0.12" opacity="1"/><path d="M -0.308 1.500 A 1.295 1.295 0 0 1 -1.223 1.121" fill="none" stroke="#e6e9ef" stroke-width="0.12" opacity="1"/><path d="M 0.200 -1.500 A 1.500 1.500 0 0 1 1.164 -1.149" fill="none" stroke="#e6e9ef" stroke-width="0.12" opacity="1"/><path d="M 1.164 1.149 A 1.500 1.500 0 0 1 0.200 1.500" fill="none" stroke="#e6e9ef" stroke-width="0.12" opacity="1"/><path d="M -0.200 1.500 A 1.500 1.500 0 0 1 -0.200 -1.500" fill="none" stroke="#6b7280" stroke-width="0.12" opacity="0.8"/><path d="M 0.200 -1.500 A 1.500 1.500 0 0 1 0.200 1.500" fill="none" stroke="#6b7280" stroke-width="0.12" opacity="0.8"/><rect x="-1.970" y="-0.700" width="1.400" height="1.400" rx="0.700" fill="#c79b5c"/><circle cx="-1.270" cy="0.000" r="0.350" fill="#12151c"/><rect x="0.570" y="-0.700" width="1.400" height="1.400" rx="0.700" fill="#c79b5c"/><circle cx="1.270" cy="0.000" r="0.350" fill="#12151c"/><polygon points="-1.72,1.75 -0.82,1.75 -1.27,1.15" fill="#ffffff"/></svg>