<svg xmlns="http://www.w3.org/2000/svg" viewBox="-3.95 -3.95 7.90 7.90" preserveAspectRatio="xMidYMid meet" style="width:100%;height:100%"><rect x="-3.95" y="-3.95" width="7.90" height="7.90" fill="#12151c"/><line x1="-2.350" y1="0.500" x2="-2.350" y2="-0.500" stroke="#e6e9ef" stroke-width="0.200" stroke-linecap="round" opacity="1"/><line x1="2.350" y1="0.500" x2="2.350" y2="-0.500" stroke="#e6e9ef" stroke-width="0.200" stroke-linecap="round" opacity="1"/><line x1="-2.700" y1="-2.700" x2="-1.150" y2="-2.700" stroke="#4a5160" stroke-width="0.100" stroke-linecap="round" opacity="0.7"/><line x1="-2.700" y1="-0.800" x2="-2.700" y2="-2.700" stroke="#4a5160" stroke-width="0.100" stroke-linecap="round" opacity="0.7"/><line x1="-2.700" y1="-0.800" x2="-2.210" y2="-0.800" stroke="#4a5160" stroke-width="0.100" stroke-linecap="round" opacity="0.7"/><line x1="-2.700" y1="0.800" x2="-2.210" y2="0.800" stroke="#4a5160" stroke-width="0.100" stroke-linecap="round" opacity="0.7"/><line x1="-2.700" y1="2.700" x2="-2.700" y2="0.800" stroke="#4a5160" stroke-width="0.100" stroke-linecap="round" opacity="0.7"/><line x1="-2.700" y1="2.700" x2="-1.150" y2="2.700" stroke="#4a5160" stroke-width="0.100" stroke-linecap="round" opacity="0.7"/><line x1="-2.425" y1="-1.750" x2="-1.925" y2="-1.750" stroke="#4a5160" stroke-width="0.100" stroke-linecap="round" opacity="0.7"/><line x1="-2.425" y1="1.750" x2="-1.925" y2="1.750" stroke="#4a5160" stroke-width="0.100" stroke-linecap="round" opacity="0.7"/><line x1="-1.925" y1="-1.750" x2="-1.925" y2="-2.250" stroke="#4a5160" stroke-width="0.100" stroke-linecap="round" opacity="0.7"/><line x1="-1.925" y1="-1.750" x2="-1.425" y2="-1.750" stroke="#4a5160" stroke-width="0.100" stroke-linecap="round" opacity="0.7"/><line x1="-1.925" y1="-1.250" x2="-1.925" y2="-1.750" stroke="#4a5160" stroke-width="0.100" stroke-linecap="round" opacity="0.7"/><line x1="-1.925" y1="1.750" x2="-1.925" y2="1.250" stroke="#4a5160" stroke-width="0.100" stroke-linecap="round" opacity="0.7"/><line x1="-1.925" y1="1.750" x2="-1.425" y2="1.750" stroke="#4a5160" stroke-width="0.100" stroke-linecap="round" opacity="0.7"/><line x1="-1.925" y1="2.250" x2="-1.925" y2="1.750" stroke="#4a5160" stroke-width="0.100" stroke-linecap="round" opacity="0.7"/><line x1="-1.150" y1="-2.049" x2="-1.150" y2="-2.700" stroke="#4a5160" stroke-width="0.100" stroke-linecap="round" opacity="0.7"/><line x1="-1.150" y1="2.700" x2="-1.150" y2="2.049" stroke="#4a5160" stroke-width="0.100" stroke-linecap="round" opacity="0.7"/><line x1="-0.500" y1="0.000" x2="0.000" y2="0.000" stroke="#4a5160" stroke-width="0.100" stroke-linecap="round" opacity="0.7"/><line x1="0.000" y1="0.000" x2="0.000" y2="-0.500" stroke="#4a5160" stroke-width="0.100" stroke-linecap="round" opacity="0.7"/><line x1="0.000" y1="0.000" x2="0.500" y2="0.000" stroke="#4a5160" stroke-width="0.100" stroke-linecap="round" opacity="0.7"/><line x1="0.000" y1="0.500" x2="0.000" y2="0.000" stroke="#4a5160" stroke-width="0.100" stroke-linecap="round" opacity="0.7"/><line x1="1.150" y1="-2.700" x2="2.700" y2="-2.700" stroke="#4a5160" stroke-width="0.100" stroke-linecap="round" opacity="0.7"/><line x1="1.150" y1="-2.049" x2="1.150" y2="-2.700" stroke="#4a5160" stroke-width="0.100" stroke-linecap="round" opacity="0.7"/><line x1="1.150" y1="2.700" x2="1.150" y2="2.049" stroke="#4a5160" stroke-width="0.100" stroke-linecap="round" opacity="0.7"/><line x1="1.150" y1="2.700" x2="2.700" y2="2.700" stroke="#4a5160" stroke-width="0.100" stroke-linecap="round" opacity="0.7"/><line x1="1.425" y1="-1.750" x2="1.925" y2="-1.750" stroke="#4a5160" stroke-width="0.100" stroke-linecap="round" opacity="0.7"/><line x1="1.425" y1="1.750" x2="1.925" y2="1.750" stroke="#4a5160" stroke-width="0.100" stroke-linecap="round" opacity="0.7"/><line x1="1.925" y1="-1.750" x2="1.925" y2="-2.250" stroke="#4a5160" stroke-width="0.100" stroke-linecap="round" opacity="0.7"/><line x1="1.925" y1="-1.750" x2="2.425" y2="-1.750" stroke="#4a5160" stroke-width="0.100" stroke-linecap="round" opacity="0.7"/><line x1="1.925" y1="-1.250" x2="1.925" y2="-1.750" stroke="#4a5160" stroke-width="0.100" stroke-linecap="round" opacity="0.7"/><line x1="1.925" y1="1.750" x2="1.925" y2="1.250" stroke="#4a5160" stroke-width="0.100" stroke-linecap="round" opacity="0.7"/><line x1="1.925" y1="1.750" x2="2.425" y2="1.750" stroke="#4a5160" stroke-width="0.100" stroke-linecap="round" opacity="0.7"/><line x1="1.925" y1="2.250" x2="1.925" y2="1.750" stroke="#4a5160" stroke-width="0.100" stroke-linecap="round" opacity="0.7"/><line x1="2.210" y1="-0.800" x2="2.700" y2="-0.800" stroke="#4a5160" stroke-width="0.100" stroke-linecap="round" opacity="0.7"/><line x1="2.210" y1="0.800" x2="2.700" y2="0.800" stroke="#4a5160" stroke-width="0.100" stroke-linecap="round" opacity="0.7"/><line x1="2.700" y1="-0.800" x2="2.700" y2="-2.700" stroke="#4a5160" stroke-width="0.100" stroke-linecap="round" opacity="0.7"/><line x1="2.700" y1="2.700" x2="2.700" y2="0.800" stroke="#4a5160" stroke-width="0.100" stroke-linecap="round" opacity="0.7"/><line x1="-2.950" y1="-2.950" x2="2.950" y2="-2.950" stroke="#d24d4d" stroke-width="0.080" stroke-linecap="round" opacity="0.7"/><line x1="-2.950" y1="2.950" x2="-2.950" y2="-2.950" stroke="#d24d4d" stroke-width="0.080" stroke-linecap="round" opacity="0.7"/><line x1="-2.950" y1="2.950" x2="2.950" y2="2.950" stroke="#d24d4d" stroke-width="0.080" stroke-linecap="round" opacity="0.7"/><line x1="2.950" y1="2.950" x2="2.950" y2="-2.950" stroke="#d24d4d" stroke-width="0.080" stroke-linecap="round" opacity="0.7"/><line x1="-2.500" y1="-1.000" x2="-2.500" y2="-2.000" stroke="#6b7280" stroke-width="0.100" stroke-linecap="round" opacity="0.8"/><line x1="-2.500" y1="2.000" x2="-2.500" y2="1.000" stroke="#6b7280" stroke-width="0.100" stroke-linecap="round" opacity="0.8"/><line x1="-2.325" y1="-2.175" x2="-2.325" y2="-2.250" stroke="#6b7280" stroke-width="0.100" stroke-linecap="round" opacity="0.8"/><line x1="-2.325" y1="2.250" x2="-2.325" y2="2.175" stroke="#6b7280" stroke-width="0.100" stroke-linecap="round" opacity="0.8"/><line x1="-2.250" y1="0.750" x2="-2.250" y2="-0.750" stroke="#6b7280" stroke-width="0.100" stroke-linecap="round" opacity="0.8"/><line x1="-2.075" y1="-2.500" x2="-1.600" y2="-2.500" stroke="#6b7280" stroke-width="0.100" stroke-linecap="round" opacity="0.8"/><line x1="-2.075" y1="2.500" x2="-1.600" y2="2.500" stroke="#6b7280" stroke-width="0.100" stroke-linecap="round" opacity="0.8"/><line x1="-1.350" y1="-1.350" x2="-1.350" y2="-2.250" stroke="#6b7280" stroke-width="0.100" stroke-linecap="round" opacity="0.8"/><line x1="-1.350" y1="2.250" x2="-1.350" y2="1.350" stroke="#6b7280" stroke-width="0.100" stroke-linecap="round" opacity="0.8"/><line x1="-1.000" y1="-1.573" x2="1.000" y2="-1.573" stroke="#6b7280" stroke-width="0.100" stroke-linecap="round" opacity="0.8"/><line x1="-1.000" y1="-1.519" x2="-1.000" y2="-1.573" stroke="#6b7280" stroke-width="0.100" stroke-linecap="round" opacity="0.8"/><line x1="-1.000" y1="1.573" x2="-1.000" y2="1.519" stroke="#6b7280" stroke-width="0.100" stroke-linecap="round" opacity="0.8"/><line x1="-1.000" y1="1.573" x2="1.000" y2="1.573" stroke="#6b7280" stroke-width="0.100" stroke-linecap="round" opacity="0.8"/><line x1="-0.937" y1="0.350" x2="0.937" y2="0.350" stroke="#6b7280" stroke-width="0.100" stroke-linecap="round" opacity="0.8"/><line x1="-0.937" y1="-0.351" x2="0.937" y2="-0.351" stroke="#6b7280" stroke-width="0.100" stroke-linecap="round" opacity="0.8"/><line x1="1.000" y1="-1.519" x2="1.000" y2="-1.573" stroke="#6b7280" stroke-width="0.100" stroke-linecap="round" opacity="0.8"/><line x1="1.000" y1="1.573" x2="1.000" y2="1.519" stroke="#6b7280" stroke-width="0.100" stroke-linecap="round" opacity="0.8"/><line x1="1.350" y1="-1.350" x2="1.350" y2="-2.250" stroke="#6b7280" stroke-width="0.100" stroke-linecap="round" opacity="0.8"/><line x1="1.350" y1="2.250" x2="1.350" y2="1.350" stroke="#6b7280" stroke-width="0.100" stroke-linecap="round" opacity="0.8"/><line x1="1.600" y1="-2.500" x2="2.075" y2="-2.500" stroke="#6b7280" stroke-width="0.100" stroke-linecap="round" opacity="0.8"/><line x1="1.600" y1="2.500" x2="2.075" y2="2.500" stroke="#6b7280" stroke-width="0.100" stroke-linecap="round" opacity="0.8"/><line x1="2.250" y1="0.750" x2="2.250" y2="-0.750" stroke="#6b7280" stroke-width="0.100" stroke-linecap="round" opacity="0.8"/><line x1="2.325" y1="-2.175" x2="2.325" y2="-2.250" stroke="#6b7280" stroke-width="0.100" stroke-linecap="round" opacity="0.8"/><line x1="2.325" y1="2.250" x2="2.325" y2="2.175" stroke="#6b7280" stroke-width="0.100" stroke-linecap="round" opacity="0.8"/><line x1="2.500" y1="2.000" x2="2.500" y2="1.000" stroke="#6b7280" stroke-width="0.100" stroke-linecap="round" opacity="0.8"/><line x1="2.500" y1="-1.000" x2="2.500" y2="-2.000" stroke="#6b7280" stroke-width="0.100" stroke-linecap="round" opacity="0.8"/><path d="M -2.210 -0.800 A 2.350 2.350 0 0 1 -1.150 -2.049" fill="none" stroke="#4a5160" stroke-width="0.12" opacity="0.7"/><path d="M -1.150 2.049 A 2.350 2.350 0 0 1 -2.210 0.800" fill="none" stroke="#4a5160" stroke-width="0.12" opacity="0.7"/><path d="M 1.150 -2.049 A 2.350 2.350 0 0 1 2.210 -0.800" fill="none" stroke="#4a5160" stroke-width="0.12" opacity="0.7"/><path d="M 2.210 0.800 A 2.350 2.350 0 0 1 1.150 2.049" fill="none" stroke="#4a5160" stroke-width="0.12" opacity="0.7"/><path d="M -2.500 -1.000 A 0.250 0.250 0 0 1 -2.250 -0.750" fill="none" stroke="#6b7280" stroke-width="0.12" opacity="0.8"/><path d="M -2.500 2.000 A 0.175 0.175 0 0 1 -2.325 2.175" fill="none" stroke="#6b7280" stroke-width="0.12" opacity="0.8"/><path d="M -2.325 -2.250 A 0.250 0.250 0 0 1 -2.075 -2.500" fill="none" stroke="#6b7280" stroke-width="0.12" opacity="0.8"/><path d="M -2.325 -2.175 A 0.175 0.175 0 0 1 -2.500 -2.000" fill="none" stroke="#6b7280" stroke-width="0.12" opacity="0.8"/><path d="M -2.250 0.750 A 0.250 0.250 0 0 1 -2.500 1.000" fill="none" stroke="#6b7280" stroke-width="0.12" opacity="0.8"/><path d="M -2.075 2.500 A 0.250 0.250 0 0 1 -2.325 2.250" fill="none" stroke="#6b7280" stroke-width="0.12" opacity="0.8"/><path d="M -1.600 -2.500 A 0.250 0.250 0 0 1 -1.350 -2.250" fill="none" stroke="#6b7280" stroke-width="0.12" opacity="0.8"/><path d="M -1.350 2.250 A 0.250 0.250 0 0 1 -1.600 2.500" fill="none" stroke="#6b7280" stroke-width="0.12" opacity="0.8"/><path d="M -1.350 1.350 A 0.175 0.175 0 0 1 -1.175 1.175" fill="none" stroke="#6b7280" stroke-width="0.12" opacity="0.8"/><path d="M -1.175 1.175 A 0.219 0.219 0 0 1 -1.024 1.348" fill="none" stroke="#6b7280" stroke-width="0.12" opacity="0.8"/><path d="M -1.175 -1.175 A 0.175 0.175 0 0 1 -1.350 -1.350" fill="none" stroke="#6b7280" stroke-width="0.12" opacity="0.8"/><path d="M -1.024 -1.348 A 0.219 0.219 0 0 1 -1.175 -1.175" fill="none" stroke="#6b7280" stroke-width="0.12" opacity="0.8"/><path d="M -1.024 1.348 A 0.642 0.642 0 0 1 -1.000 1.519" fill="none" stroke="#6b7280" stroke-width="0.12" opacity="0.8"/><path d="M -1.000 -1.519 A 0.642 0.642 0 0 1 -1.024 -1.348" fill="none" stroke="#6b7280" stroke-width="0.12" opacity="0.8"/><path d="M 1.000 1.519 A 0.642 0.642 0 0 1 1.024 1.348" fill="none" stroke="#6b7280" stroke-width="0.12" opacity="0.8"/><path d="M 1.024 -1.348 A 0.642 0.642 0 0 1 1.000 -1.519" fill="none" stroke="#6b7280" stroke-width="0.12" opacity="0.8"/><path d="M 1.024 1.348 A 0.219 0.219 0 0 1 1.175 1.175" fill="none" stroke="#6b7280" stroke-width="0.12" opacity="0.8"/><path d="M 1.175 1.175 A 0.175 0.175 0 0 1 1.350 1.350" fill="none" stroke="#6b7280" stroke-width="0.12" opacity="0.8"/><path d="M 1.175 -1.175 A 0.219 0.219 0 0 1 1.024 -1.348" fill="none" stroke="#6b7280" stroke-width="0.12" opacity="0.8"/><path d="M 1.350 -1.350 A 0.175 0.175 0 0 1 1.175 -1.175" fill="none" stroke="#6b7280" stroke-width="0.12" opacity="0.8"/><path d="M 1.350 -2.250 A 0.250 0.250 0 0 1 1.600 -2.500" fill="none" stroke="#6b7280" stroke-width="0.12" opacity="0.8"/><path d="M 1.600 2.500 A 0.250 0.250 0 0 1 1.350 2.250" fill="none" stroke="#6b7280" stroke-width="0.12" opacity="0.8"/><path d="M 2.075 -2.500 A 0.250 0.250 0 0 1 2.325 -2.250" fill="none" stroke="#6b7280" stroke-width="0.12" opacity="0.8"/><path d="M 2.250 -0.750 A 0.250 0.250 0 0 1 2.500 -1.000" fill="none" stroke="#6b7280" stroke-width="0.12" opacity="0.8"/><path d="M 2.325 2.175 A 0.175 0.175 0 0 1 2.500 2.000" fill="none" stroke="#6b7280" stroke-width="0.12" opacity="0.8"/><path d="M 2.325 2.250 A 0.250 0.250 0 0 1 2.075 2.500" fill="none" stroke="#6b7280" stroke-width="0.12" opacity="0.8"/><path d="M 2.500 1.000 A 0.250 0.250 0 0 1 2.250 0.750" fill="none" stroke="#6b7280" stroke-width="0.12" opacity="0.8"/><path d="M 2.500 -2.000 A 0.175 0.175 0 0 1 2.325 -2.175" fill="none" stroke="#6b7280" stroke-width="0.12" opacity="0.8"/><circle cx="0.000" cy="0.000" r="2.000" fill="none" stroke="#4a5160" stroke-width="0.12" opacity="0.7"/><circle cx="0.000" cy="0.000" r="1.000" fill="none" stroke="#6b7280" stroke-width="0.12" opacity="0.8"/><circle cx="0.000" cy="0.000" r="0.500" fill="none" stroke="#6b7280" stroke-width="0.1"/><rect x="-2.700" y="-0.800" width="0.000" height="0.000" rx="0.000" fill="#c79b5c"/><rect x="-2.700" y="0.800" width="0.000" height="0.000" rx="0.000" fill="#c79b5c"/><rect x="-2.700" y="-2.700" width="0.490" height="1.900" rx="0.000" fill="#c79b5c"/><rect x="-2.700" y="0.800" width="0.490" height="1.900" rx="0.000" fill="#c79b5c"/><rect x="-2.210" y="-2.050" width="0.400" height="0.550" rx="0.000" fill="#c79b5c"/><rect x="-2.210" y="1.500" width="0.400" height="0.550" rx="0.000" fill="#c79b5c"/><rect x="-2.210" y="-2.700" width="1.060" height="0.650" rx="0.000" fill="#c79b5c"/><rect x="-2.210" y="2.050" width="1.060" height="0.650" rx="0.000" fill="#c79b5c"/><rect x="1.150" y="-2.700" width="1.060" height="0.650" rx="0.000" fill="#c79b5c"/><rect x="1.150" y="2.050" width="1.060" height="0.650" rx="0.000" fill="#c79b5c"/><rect x="1.810" y="-2.050" width="0.400" height="0.550" rx="0.000" fill="#c79b5c"/><rect x="1.810" y="1.500" width="0.400" height="0.550" rx="0.000" fill="#c79b5c"/><rect x="2.210" y="-2.700" width="0.490" height="1.900" rx="0.000" fill="#c79b5c"/><rect x="2.210" y="0.800" width="0.490" height="1.900" rx="0.000" fill="#c79b5c"/><rect x="2.700" y="-0.800" width="0.000" height="0.000" rx="0.000" fill="#c79b5c"/><rect x="2.700" y="0.800" width="0.000" height="0.000" rx="0.000" fill="#c79b5c"/></svg>