<svg xmlns="http://www.w3.org/2000/svg" viewBox="-3.73 -2.95 6.72 5.90" preserveAspectRatio="xMidYMid meet" style="width:100%;height:100%"><rect x="-3.73" y="-2.95" width="6.72" height="5.90" fill="#12151c"/><circle cx="-2.600" cy="-1.250" r="0.125" fill="none" stroke="#e6e9ef" stroke-width="0.12" opacity="1"/><rect x="-2.000" y="-1.400" width="0.400" height="0.300" rx="0.000" fill="#c79b5c"/><rect x="-2.000" y="-0.900" width="0.400" height="0.300" rx="0.000" fill="#c79b5c"/><rect x="-2.000" y="-0.400" width="0.400" height="0.300" rx="0.000" fill="#c79b5c"/><rect x="-2.000" y="0.100" width="0.400" height="0.300" rx="0.000" fill="#c79b5c"/><rect x="-2.000" y="0.600" width="0.400" height="0.300" rx="0.000" fill="#c79b5c"/><rect x="-2.000" y="1.100" width="0.400" height="0.300" rx="0.000" fill="#c79b5c"/><rect x="-1.450" y="1.650" width="0.400" height="0.300" rx="0.000" fill="#c79b5c"/><rect x="-0.950" y="1.650" width="0.400" height="0.300" rx="0.000" fill="#c79b5c"/><rect x="-0.450" y="1.650" width="0.400" height="0.300" rx="0.000" fill="#c79b5c"/><rect x="0.050" y="1.650" width="0.400" height="0.300" rx="0.000" fill="#c79b5c"/><rect x="0.550" y="1.650" width="0.400" height="0.300" rx="0.000" fill="#c79b5c"/><rect x="1.050" y="1.650" width="0.400" height="0.300" rx="0.000" fill="#c79b5c"/><rect x="1.600" y="1.100" width="0.400" height="0.300" rx="0.000" fill="#c79b5c"/><rect x="1.600" y="0.600" width="0.400" height="0.300" rx="0.000" fill="#c79b5c"/><rect x="1.600" y="0.100" width="0.400" height="0.300" rx="0.000" fill="#c79b5c"/><rect x="1.600" y="-0.400" width="0.400" height="0.300" rx="0.000" fill="#c79b5c"/><rect x="1.600" y="-0.900" width="0.400" height="0.300" rx="0.000" fill="#c79b5c"/><rect x="1.600" y="-1.400" width="0.400" height="0.300" rx="0.000" fill="#c79b5c"/><rect x="1.050" y="-1.950" width="0.400" height="0.300" rx="0.000" fill="#c79b5c"/><rect x="0.550" y="-1.950" width="0.400" height="0.300" rx="0.000" fill="#c79b5c"/><rect x="0.050" y="-1.950" width="0.400" height="0.300" rx="0.000" fill="#c79b5c"/><rect x="-0.450" y="-1.950" width="0.400" height="0.300" rx="0.000" fill="#c79b5c"/><rect x="-0.950" y="-1.950" width="0.400" height="0.300" rx="0.000" fill="#c79b5c"/><rect x="-1.450" y="-1.950" width="0.400" height="0.300" rx="0.000" fill="#c79b5c"/><rect x="-0.700" y="-0.700" width="1.400" height="1.400" rx="0.000" fill="#c79b5c"/></svg>