<svg xmlns="http://www.w3.org/2000/svg" viewBox="-29.74 -29.34 59.48 58.68" preserveAspectRatio="xMidYMid meet" style="width:100%;height:100%"><rect x="-29.74" y="-29.34" width="59.48" height="58.68" fill="#12151c"/><line x1="-28.740" y1="-28.340" x2="28.740" y2="-28.340" stroke="#d24d4d" stroke-width="0.080" stroke-linecap="round" opacity="0.7"/><line x1="28.740" y1="-28.340" x2="28.740" y2="28.340" stroke="#d24d4d" stroke-width="0.080" stroke-linecap="round" opacity="0.7"/><line x1="28.740" y1="28.340" x2="-28.740" y2="28.340" stroke="#d24d4d" stroke-width="0.080" stroke-linecap="round" opacity="0.7"/><line x1="-28.740" y1="28.340" x2="-28.740" y2="-28.340" stroke="#d24d4d" stroke-width="0.080" stroke-linecap="round" opacity="0.7"/><path d="M 16.139 7.002 A 0.900 0.900 0 0 1 15.875 6.366" fill="none" stroke="#6b7280" stroke-width="0.12" opacity="0.8"/><path d="M 16.421 6.720 A 0.500 0.500 0 0 1 16.275 6.366" fill="none" stroke="#6b7280" stroke-width="0.12" opacity="0.8"/><path d="M 20.775 -2.785 A 1.312 1.312 0 0 1 20.775 -1.393" fill="none" stroke="#6b7280" stroke-width="0.12" opacity="0.8"/><path d="M 20.775 -1.393 A 4.948 4.948 0 0 1 20.775 1.393" fill="none" stroke="#6b7280" stroke-width="0.12" opacity="0.8"/><path d="M 20.775 1.393 A 1.312 1.312 0 0 1 20.775 2.785" fill="none" stroke="#6b7280" stroke-width="0.12" opacity="0.8"/><circle cx="-21.438" cy="-9.525" r="1.588" fill="none" stroke="#6b7280" stroke-width="0.12" opacity="0.8"/><circle cx="-21.438" cy="9.525" r="1.588" fill="none" stroke="#6b7280" stroke-width="0.12" opacity="0.8"/><circle cx="21.438" cy="-9.525" r="1.588" fill="none" stroke="#6b7280" stroke-width="0.12" opacity="0.8"/><circle cx="21.438" cy="9.525" r="1.588" fill="none" stroke="#6b7280" stroke-width="0.12" opacity="0.8"/><rect x="-24.938" y="-13.025" width="7.000" height="7.000" rx="3.500" fill="#c79b5c"/><circle cx="-21.438" cy="-9.525" r="1.750" fill="#12151c"/><rect x="-24.938" y="6.025" width="7.000" height="7.000" rx="3.500" fill="#c79b5c"/><circle cx="-21.438" cy="9.525" r="1.750" fill="#12151c"/><rect x="-28.086" y="-16.275" width="56.172" height="32.550" rx="0.000" fill="#c79b5c"/><rect x="17.938" y="-13.025" width="7.000" height="7.000" rx="3.500" fill="#c79b5c"/><circle cx="21.438" cy="-9.525" r="1.750" fill="#12151c"/><rect x="17.938" y="6.025" width="7.000" height="7.000" rx="3.500" fill="#c79b5c"/><circle cx="21.438" cy="9.525" r="1.750" fill="#12151c"/></svg>