<svg xmlns="http://www.w3.org/2000/svg" viewBox="-5.06 -5.18 10.12 10.37" preserveAspectRatio="xMidYMid meet" style="width:100%;height:100%"><rect x="-5.06" y="-5.18" width="10.12" height="10.37" fill="#12151c"/><line x1="-2.795" y1="-3.935" x2="2.795" y2="-3.935" stroke="#e6e9ef" stroke-width="0.200" stroke-linecap="round" opacity="1"/><line x1="-2.795" y1="-3.765" x2="-2.795" y2="-3.935" stroke="#e6e9ef" stroke-width="0.200" stroke-linecap="round" opacity="1"/><line x1="-2.795" y1="3.935" x2="-2.795" y2="3.765" stroke="#e6e9ef" stroke-width="0.200" stroke-linecap="round" opacity="1"/><line x1="-2.795" y1="3.935" x2="2.795" y2="3.935" stroke="#e6e9ef" stroke-width="0.200" stroke-linecap="round" opacity="1"/><line x1="2.795" y1="-3.765" x2="2.795" y2="-3.935" stroke="#e6e9ef" stroke-width="0.200" stroke-linecap="round" opacity="1"/><line x1="2.795" y1="3.935" x2="2.795" y2="3.765" stroke="#e6e9ef" stroke-width="0.200" stroke-linecap="round" opacity="1"/><line x1="-3.540" y1="-2.540" x2="-2.540" y2="-2.540" stroke="#4a5160" stroke-width="0.100" stroke-linecap="round" opacity="0.7"/><line x1="-3.540" y1="0.000" x2="-2.540" y2="0.000" stroke="#4a5160" stroke-width="0.100" stroke-linecap="round" opacity="0.7"/><line x1="-3.540" y1="2.540" x2="-2.540" y2="2.540" stroke="#4a5160" stroke-width="0.100" stroke-linecap="round" opacity="0.7"/><line x1="-2.540" y1="-2.540" x2="-2.540" y2="-3.540" stroke="#4a5160" stroke-width="0.100" stroke-linecap="round" opacity="0.7"/><line x1="-2.540" y1="-2.540" x2="-1.540" y2="-2.540" stroke="#4a5160" stroke-width="0.100" stroke-linecap="round" opacity="0.7"/><line x1="-2.540" y1="-1.540" x2="-2.540" y2="-2.540" stroke="#4a5160" stroke-width="0.100" stroke-linecap="round" opacity="0.7"/><line x1="-2.540" y1="0.000" x2="-2.540" y2="-1.000" stroke="#4a5160" stroke-width="0.100" stroke-linecap="round" opacity="0.7"/><line x1="-2.540" y1="0.000" x2="-1.540" y2="0.000" stroke="#4a5160" stroke-width="0.100" stroke-linecap="round" opacity="0.7"/><line x1="-2.540" y1="1.000" x2="-2.540" y2="0.000" stroke="#4a5160" stroke-width="0.100" stroke-linecap="round" opacity="0.7"/><line x1="-2.540" y1="2.540" x2="-2.540" y2="1.540" stroke="#4a5160" stroke-width="0.100" stroke-linecap="round" opacity="0.7"/><line x1="-2.540" y1="2.540" x2="-1.540" y2="2.540" stroke="#4a5160" stroke-width="0.100" stroke-linecap="round" opacity="0.7"/><line x1="-2.540" y1="3.540" x2="-2.540" y2="2.540" stroke="#4a5160" stroke-width="0.100" stroke-linecap="round" opacity="0.7"/><line x1="-1.000" y1="0.000" x2="0.000" y2="0.000" stroke="#4a5160" stroke-width="0.100" stroke-linecap="round" opacity="0.7"/><line x1="0.000" y1="0.000" x2="0.000" y2="-1.000" stroke="#4a5160" stroke-width="0.100" stroke-linecap="round" opacity="0.7"/><line x1="0.000" y1="0.000" x2="1.000" y2="0.000" stroke="#4a5160" stroke-width="0.100" stroke-linecap="round" opacity="0.7"/><line x1="0.000" y1="1.000" x2="0.000" y2="0.000" stroke="#4a5160" stroke-width="0.100" stroke-linecap="round" opacity="0.7"/><line x1="1.540" y1="-2.540" x2="2.540" y2="-2.540" stroke="#4a5160" stroke-width="0.100" stroke-linecap="round" opacity="0.7"/><line x1="1.540" y1="0.000" x2="2.540" y2="0.000" stroke="#4a5160" stroke-width="0.100" stroke-linecap="round" opacity="0.7"/><line x1="1.540" y1="2.540" x2="2.540" y2="2.540" stroke="#4a5160" stroke-width="0.100" stroke-linecap="round" opacity="0.7"/><line x1="2.540" y1="-2.540" x2="2.540" y2="-3.540" stroke="#4a5160" stroke-width="0.100" stroke-linecap="round" opacity="0.7"/><line x1="2.540" y1="-2.540" x2="3.540" y2="-2.540" stroke="#4a5160" stroke-width="0.100" stroke-linecap="round" opacity="0.7"/><line x1="2.540" y1="-1.540" x2="2.540" y2="-2.540" stroke="#4a5160" stroke-width="0.100" stroke-linecap="round" opacity="0.7"/><line x1="2.540" y1="0.000" x2="2.540" y2="-1.000" stroke="#4a5160" stroke-width="0.100" stroke-linecap="round" opacity="0.7"/><line x1="2.540" y1="0.000" x2="3.540" y2="0.000" stroke="#4a5160" stroke-width="0.100" stroke-linecap="round" opacity="0.7"/><line x1="2.540" y1="1.000" x2="2.540" y2="0.000" stroke="#4a5160" stroke-width="0.100" stroke-linecap="round" opacity="0.7"/><line x1="2.540" y1="2.540" x2="2.540" y2="1.540" stroke="#4a5160" stroke-width="0.100" stroke-linecap="round" opacity="0.7"/><line x1="2.540" y1="2.540" x2="3.540" y2="2.540" stroke="#4a5160" stroke-width="0.100" stroke-linecap="round" opacity="0.7"/><line x1="2.540" y1="3.540" x2="2.540" y2="2.540" stroke="#4a5160" stroke-width="0.100" stroke-linecap="round" opacity="0.7"/><line x1="-4.060" y1="-4.185" x2="4.060" y2="-4.185" stroke="#d24d4d" stroke-width="0.080" stroke-linecap="round" opacity="0.7"/><line x1="-4.060" y1="4.185" x2="-4.060" y2="-4.185" stroke="#d24d4d" stroke-width="0.080" stroke-linecap="round" opacity="0.7"/><line x1="-4.060" y1="4.185" x2="4.060" y2="4.185" stroke="#d24d4d" stroke-width="0.080" stroke-linecap="round" opacity="0.7"/><line x1="4.060" y1="4.185" x2="4.060" y2="-4.185" stroke="#d24d4d" stroke-width="0.080" stroke-linecap="round" opacity="0.7"/><line x1="-2.795" y1="-3.935" x2="2.795" y2="-3.935" stroke="#6b7280" stroke-width="0.100" stroke-linecap="round" opacity="0.8"/><line x1="-2.795" y1="3.935" x2="-2.795" y2="-3.935" stroke="#6b7280" stroke-width="0.100" stroke-linecap="round" opacity="0.8"/><line x1="-2.795" y1="3.935" x2="2.795" y2="3.935" stroke="#6b7280" stroke-width="0.100" stroke-linecap="round" opacity="0.8"/><line x1="2.795" y1="3.935" x2="2.795" y2="-3.935" stroke="#6b7280" stroke-width="0.100" stroke-linecap="round" opacity="0.8"/><circle cx="-3.725" cy="-4.025" r="0.125" fill="none" stroke="#e6e9ef" stroke-width="0.12" opacity="1"/><circle cx="-0.350" cy="-2.800" r="0.300" fill="none" stroke="#e6e9ef" stroke-width="0.12" opacity="1"/><circle cx="-1.595" cy="-2.850" r="0.500" fill="none" stroke="#6b7280" stroke-width="0.12" opacity="0.8"/><rect x="-3.810" y="-3.365" width="2.540" height="1.650" rx="0.000" fill="#c79b5c"/><rect x="-3.810" y="-0.825" width="2.540" height="1.650" rx="0.000" fill="#c79b5c"/><rect x="-3.810" y="1.715" width="2.540" height="1.650" rx="0.000" fill="#c79b5c"/><rect x="1.270" y="1.715" width="2.540" height="1.650" rx="0.000" fill="#c79b5c"/><rect x="1.270" y="-0.825" width="2.540" height="1.650" rx="0.000" fill="#c79b5c"/><rect x="1.270" y="-3.365" width="2.540" height="1.650" rx="0.000" fill="#c79b5c"/></svg>