<svg xmlns="http://www.w3.org/2000/svg" viewBox="-3.65 -3.03 6.80 6.01" preserveAspectRatio="xMidYMid meet" style="width:100%;height:100%"><rect x="-3.65" y="-3.03" width="6.80" height="6.01" fill="#12151c"/><circle cx="-2.527" cy="-1.902" r="0.125" fill="none" stroke="#e6e9ef" stroke-width="0.12" opacity="1"/><circle cx="-1.583" cy="-1.600" r="0.200" fill="none" stroke="#6b7280" stroke-width="0.12" opacity="0.8"/><rect x="-1.873" y="-1.413" width="0.025" height="0.025" rx="0.013" fill="#c79b5c"/><rect x="-1.570" y="-1.275" width="0.000" height="0.000" rx="0.000" fill="#c79b5c"/><rect x="-2.150" y="-1.125" width="0.580" height="0.250" rx="0.000" fill="#c79b5c"/><rect x="-2.150" y="-0.725" width="0.580" height="0.250" rx="0.000" fill="#c79b5c"/><rect x="-2.150" y="-0.325" width="0.580" height="0.250" rx="0.000" fill="#c79b5c"/><rect x="-2.150" y="0.075" width="0.580" height="0.250" rx="0.000" fill="#c79b5c"/><rect x="-2.150" y="0.475" width="0.580" height="0.250" rx="0.000" fill="#c79b5c"/><rect x="-2.150" y="0.875" width="0.580" height="0.250" rx="0.000" fill="#c79b5c"/><rect x="-1.873" y="1.387" width="0.025" height="0.025" rx="0.013" fill="#c79b5c"/><rect x="-1.570" y="1.275" width="0.000" height="0.000" rx="0.000" fill="#c79b5c"/><rect x="-1.413" y="1.847" width="0.025" height="0.025" rx="0.013" fill="#c79b5c"/><rect x="-1.275" y="1.570" width="0.000" height="0.000" rx="0.000" fill="#c79b5c"/><rect x="-1.290" y="1.735" width="0.580" height="0.250" rx="0.000" fill="#c79b5c"/><rect x="-0.890" y="1.735" width="0.580" height="0.250" rx="0.000" fill="#c79b5c"/><rect x="-0.490" y="1.735" width="0.580" height="0.250" rx="0.000" fill="#c79b5c"/><rect x="-0.090" y="1.735" width="0.580" height="0.250" rx="0.000" fill="#c79b5c"/><rect x="0.310" y="1.735" width="0.580" height="0.250" rx="0.000" fill="#c79b5c"/><rect x="0.710" y="1.735" width="0.580" height="0.250" rx="0.000" fill="#c79b5c"/><rect x="1.275" y="1.570" width="0.000" height="0.000" rx="0.000" fill="#c79b5c"/><rect x="1.387" y="1.847" width="0.025" height="0.025" rx="0.013" fill="#c79b5c"/><rect x="1.570" y="1.275" width="0.000" height="0.000" rx="0.000" fill="#c79b5c"/><rect x="1.847" y="1.387" width="0.025" height="0.025" rx="0.013" fill="#c79b5c"/><rect x="1.570" y="0.875" width="0.580" height="0.250" rx="0.000" fill="#c79b5c"/><rect x="1.570" y="0.475" width="0.580" height="0.250" rx="0.000" fill="#c79b5c"/><rect x="1.570" y="0.075" width="0.580" height="0.250" rx="0.000" fill="#c79b5c"/><rect x="1.570" y="-0.325" width="0.580" height="0.250" rx="0.000" fill="#c79b5c"/><rect x="1.570" y="-0.725" width="0.580" height="0.250" rx="0.000" fill="#c79b5c"/><rect x="1.570" y="-1.125" width="0.580" height="0.250" rx="0.000" fill="#c79b5c"/><rect x="1.570" y="-1.275" width="0.000" height="0.000" rx="0.000" fill="#c79b5c"/><rect x="1.847" y="-1.413" width="0.025" height="0.025" rx="0.013" fill="#c79b5c"/><rect x="1.275" y="-1.570" width="0.000" height="0.000" rx="0.000" fill="#c79b5c"/><rect x="1.387" y="-1.873" width="0.025" height="0.025" rx="0.013" fill="#c79b5c"/><rect x="0.710" y="-1.985" width="0.580" height="0.250" rx="0.000" fill="#c79b5c"/><rect x="0.310" y="-1.985" width="0.580" height="0.250" rx="0.000" fill="#c79b5c"/><rect x="-0.090" y="-1.985" width="0.580" height="0.250" rx="0.000" fill="#c79b5c"/><rect x="-0.490" y="-1.985" width="0.580" height="0.250" rx="0.000" fill="#c79b5c"/><rect x="-0.890" y="-1.985" width="0.580" height="0.250" rx="0.000" fill="#c79b5c"/><rect x="-1.290" y="-1.985" width="0.580" height="0.250" rx="0.000" fill="#c79b5c"/><rect x="-1.450" y="-1.450" width="2.900" height="2.900" rx="0.000" fill="#c79b5c"/><rect x="-1.413" y="-1.873" width="0.025" height="0.025" rx="0.013" fill="#c79b5c"/><rect x="-1.275" y="-1.570" width="0.000" height="0.000" rx="0.000" fill="#c79b5c"/></svg>