<svg xmlns="http://www.w3.org/2000/svg" viewBox="-7.75 -6.75 14.50 13.50" preserveAspectRatio="xMidYMid meet" style="width:100%;height:100%"><rect x="-7.75" y="-6.75" width="14.50" height="13.50" fill="#12151c"/><line x1="-5.500" y1="-5.500" x2="5.500" y2="-5.500" stroke="#e6e9ef" stroke-width="0.200" stroke-linecap="round" opacity="1"/><line x1="-5.500" y1="5.500" x2="-5.500" y2="-5.500" stroke="#e6e9ef" stroke-width="0.200" stroke-linecap="round" opacity="1"/><line x1="-5.500" y1="5.500" x2="5.500" y2="5.500" stroke="#e6e9ef" stroke-width="0.200" stroke-linecap="round" opacity="1"/><line x1="-2.762" y1="-2.904" x2="-2.039" y2="-2.042" stroke="#e6e9ef" stroke-width="0.100" stroke-linecap="round" opacity="1"/><line x1="-2.762" y1="2.904" x2="-2.039" y2="2.042" stroke="#e6e9ef" stroke-width="0.100" stroke-linecap="round" opacity="1"/><line x1="-2.621" y1="-3.512" x2="-1.657" y2="-2.363" stroke="#e6e9ef" stroke-width="0.100" stroke-linecap="round" opacity="1"/><line x1="-2.621" y1="3.512" x2="-1.657" y2="2.363" stroke="#e6e9ef" stroke-width="0.100" stroke-linecap="round" opacity="1"/><line x1="-2.480" y1="-3.795" x2="-1.654" y2="-2.365" stroke="#e6e9ef" stroke-width="0.100" stroke-linecap="round" opacity="1"/><line x1="-2.480" y1="3.795" x2="-1.654" y2="2.365" stroke="#e6e9ef" stroke-width="0.100" stroke-linecap="round" opacity="1"/><line x1="-2.347" y1="-4.563" x2="-1.221" y2="-2.614" stroke="#e6e9ef" stroke-width="0.100" stroke-linecap="round" opacity="1"/><line x1="-2.347" y1="4.563" x2="-1.221" y2="2.614" stroke="#e6e9ef" stroke-width="0.100" stroke-linecap="round" opacity="1"/><line x1="-1.988" y1="-4.732" x2="-1.218" y2="-2.616" stroke="#e6e9ef" stroke-width="0.100" stroke-linecap="round" opacity="1"/><line x1="-1.987" y1="4.731" x2="-1.218" y2="2.616" stroke="#e6e9ef" stroke-width="0.100" stroke-linecap="round" opacity="1"/><line x1="-1.519" y1="4.903" x2="-0.748" y2="2.787" stroke="#e6e9ef" stroke-width="0.100" stroke-linecap="round" opacity="1"/><line x1="-1.518" y1="-4.902" x2="-0.749" y2="-2.787" stroke="#e6e9ef" stroke-width="0.100" stroke-linecap="round" opacity="1"/><line x1="-1.136" y1="-5.005" x2="-0.745" y2="-2.788" stroke="#e6e9ef" stroke-width="0.100" stroke-linecap="round" opacity="1"/><line x1="-1.136" y1="5.004" x2="-0.745" y2="2.788" stroke="#e6e9ef" stroke-width="0.100" stroke-linecap="round" opacity="1"/><line x1="-0.644" y1="-5.091" x2="-0.253" y2="-2.875" stroke="#e6e9ef" stroke-width="0.100" stroke-linecap="round" opacity="1"/><line x1="-0.644" y1="5.092" x2="-0.253" y2="2.875" stroke="#e6e9ef" stroke-width="0.100" stroke-linecap="round" opacity="1"/><line x1="-0.250" y1="-2.875" x2="-0.250" y2="-5.127" stroke="#e6e9ef" stroke-width="0.100" stroke-linecap="round" opacity="1"/><line x1="-0.250" y1="5.125" x2="-0.250" y2="2.875" stroke="#e6e9ef" stroke-width="0.100" stroke-linecap="round" opacity="1"/><line x1="0.250" y1="-2.875" x2="0.250" y2="-5.125" stroke="#e6e9ef" stroke-width="0.100" stroke-linecap="round" opacity="1"/><line x1="0.250" y1="5.127" x2="0.250" y2="2.875" stroke="#e6e9ef" stroke-width="0.100" stroke-linecap="round" opacity="1"/><line x1="0.253" y1="-2.875" x2="0.644" y2="-5.092" stroke="#e6e9ef" stroke-width="0.100" stroke-linecap="round" opacity="1"/><line x1="0.253" y1="2.875" x2="0.644" y2="5.091" stroke="#e6e9ef" stroke-width="0.100" stroke-linecap="round" opacity="1"/><line x1="0.745" y1="-2.788" x2="1.136" y2="-5.004" stroke="#e6e9ef" stroke-width="0.100" stroke-linecap="round" opacity="1"/><line x1="0.745" y1="2.788" x2="1.136" y2="5.005" stroke="#e6e9ef" stroke-width="0.100" stroke-linecap="round" opacity="1"/><line x1="0.748" y1="-2.787" x2="1.519" y2="-4.903" stroke="#e6e9ef" stroke-width="0.100" stroke-linecap="round" opacity="1"/><line x1="0.749" y1="2.787" x2="1.518" y2="4.902" stroke="#e6e9ef" stroke-width="0.100" stroke-linecap="round" opacity="1"/><line x1="1.218" y1="-2.616" x2="1.987" y2="-4.731" stroke="#e6e9ef" stroke-width="0.100" stroke-linecap="round" opacity="1"/><line x1="1.218" y1="2.616" x2="1.988" y2="4.732" stroke="#e6e9ef" stroke-width="0.100" stroke-linecap="round" opacity="1"/><line x1="1.221" y1="-2.614" x2="2.347" y2="-4.563" stroke="#e6e9ef" stroke-width="0.100" stroke-linecap="round" opacity="1"/><line x1="1.221" y1="2.614" x2="2.347" y2="4.563" stroke="#e6e9ef" stroke-width="0.100" stroke-linecap="round" opacity="1"/><line x1="1.654" y1="-2.365" x2="2.480" y2="-3.795" stroke="#e6e9ef" stroke-width="0.100" stroke-linecap="round" opacity="1"/><line x1="1.654" y1="2.365" x2="2.480" y2="3.795" stroke="#e6e9ef" stroke-width="0.100" stroke-linecap="round" opacity="1"/><line x1="1.657" y1="-2.363" x2="2.621" y2="-3.512" stroke="#e6e9ef" stroke-width="0.100" stroke-linecap="round" opacity="1"/><line x1="1.657" y1="2.363" x2="2.621" y2="3.512" stroke="#e6e9ef" stroke-width="0.100" stroke-linecap="round" opacity="1"/><line x1="2.039" y1="-2.042" x2="2.762" y2="-2.904" stroke="#e6e9ef" stroke-width="0.100" stroke-linecap="round" opacity="1"/><line x1="2.039" y1="2.042" x2="2.762" y2="2.904" stroke="#e6e9ef" stroke-width="0.100" stroke-linecap="round" opacity="1"/><line x1="5.500" y1="5.500" x2="5.500" y2="-5.500" stroke="#e6e9ef" stroke-width="0.200" stroke-linecap="round" opacity="1"/><line x1="-4.310" y1="-3.810" x2="-3.810" y2="-3.810" stroke="#4a5160" stroke-width="0.080" stroke-linecap="round" opacity="0.7"/><line x1="-4.310" y1="3.810" x2="-3.810" y2="3.810" stroke="#4a5160" stroke-width="0.080" stroke-linecap="round" opacity="0.7"/><line x1="-3.810" y1="-3.810" x2="-3.810" y2="-4.310" stroke="#4a5160" stroke-width="0.080" stroke-linecap="round" opacity="0.7"/><line x1="-3.810" y1="-3.810" x2="-3.310" y2="-3.810" stroke="#4a5160" stroke-width="0.080" stroke-linecap="round" opacity="0.7"/><line x1="-3.810" y1="-3.310" x2="-3.810" y2="-3.810" stroke="#4a5160" stroke-width="0.080" stroke-linecap="round" opacity="0.7"/><line x1="-3.810" y1="3.810" x2="-3.810" y2="3.310" stroke="#4a5160" stroke-width="0.080" stroke-linecap="round" opacity="0.7"/><line x1="-3.810" y1="3.810" x2="-3.310" y2="3.810" stroke="#4a5160" stroke-width="0.080" stroke-linecap="round" opacity="0.7"/><line x1="-3.810" y1="4.310" x2="-3.810" y2="3.810" stroke="#4a5160" stroke-width="0.080" stroke-linecap="round" opacity="0.7"/><line x1="-0.500" y1="0.000" x2="0.000" y2="0.000" stroke="#4a5160" stroke-width="0.080" stroke-linecap="round" opacity="0.7"/><line x1="0.000" y1="0.000" x2="0.000" y2="-0.500" stroke="#4a5160" stroke-width="0.080" stroke-linecap="round" opacity="0.7"/><line x1="0.000" y1="0.000" x2="0.500" y2="0.000" stroke="#4a5160" stroke-width="0.080" stroke-linecap="round" opacity="0.7"/><line x1="0.000" y1="0.500" x2="0.000" y2="0.000" stroke="#4a5160" stroke-width="0.080" stroke-linecap="round" opacity="0.7"/><line x1="3.310" y1="-3.810" x2="3.810" y2="-3.810" stroke="#4a5160" stroke-width="0.080" stroke-linecap="round" opacity="0.7"/><line x1="3.310" y1="3.810" x2="3.810" y2="3.810" stroke="#4a5160" stroke-width="0.080" stroke-linecap="round" opacity="0.7"/><line x1="3.810" y1="-3.810" x2="3.810" y2="-4.310" stroke="#4a5160" stroke-width="0.080" stroke-linecap="round" opacity="0.7"/><line x1="3.810" y1="-3.810" x2="4.310" y2="-3.810" stroke="#4a5160" stroke-width="0.080" stroke-linecap="round" opacity="0.7"/><line x1="3.810" y1="-3.310" x2="3.810" y2="-3.810" stroke="#4a5160" stroke-width="0.080" stroke-linecap="round" opacity="0.7"/><line x1="3.810" y1="3.810" x2="3.810" y2="3.310" stroke="#4a5160" stroke-width="0.080" stroke-linecap="round" opacity="0.7"/><line x1="3.810" y1="3.810" x2="4.310" y2="3.810" stroke="#4a5160" stroke-width="0.080" stroke-linecap="round" opacity="0.7"/><line x1="3.810" y1="4.310" x2="3.810" y2="3.810" stroke="#4a5160" stroke-width="0.080" stroke-linecap="round" opacity="0.7"/><line x1="-5.500" y1="-3.400" x2="-5.500" y2="-4.500" stroke="#6b7280" stroke-width="0.100" stroke-linecap="round" opacity="0.8"/><line x1="-5.500" y1="-3.400" x2="-4.500" y2="-3.400" stroke="#6b7280" stroke-width="0.100" stroke-linecap="round" opacity="0.8"/><line x1="-5.500" y1="-2.500" x2="-4.500" y2="-2.500" stroke="#6b7280" stroke-width="0.100" stroke-linecap="round" opacity="0.8"/><line x1="-5.500" y1="-0.450" x2="-5.500" y2="-2.500" stroke="#6b7280" stroke-width="0.100" stroke-linecap="round" opacity="0.8"/><line x1="-5.500" y1="-0.450" x2="-4.500" y2="-0.450" stroke="#6b7280" stroke-width="0.100" stroke-linecap="round" opacity="0.8"/><line x1="-5.500" y1="0.450" x2="-4.500" y2="0.450" stroke="#6b7280" stroke-width="0.100" stroke-linecap="round" opacity="0.8"/><line x1="-5.500" y1="2.500" x2="-5.500" y2="0.450" stroke="#6b7280" stroke-width="0.100" stroke-linecap="round" opacity="0.8"/><line x1="-5.500" y1="2.500" x2="-4.500" y2="2.500" stroke="#6b7280" stroke-width="0.100" stroke-linecap="round" opacity="0.8"/><line x1="-5.500" y1="3.400" x2="-4.500" y2="3.400" stroke="#6b7280" stroke-width="0.100" stroke-linecap="round" opacity="0.8"/><line x1="-5.500" y1="4.500" x2="-5.500" y2="3.400" stroke="#6b7280" stroke-width="0.100" stroke-linecap="round" opacity="0.8"/><line x1="-4.500" y1="-5.500" x2="-3.400" y2="-5.500" stroke="#6b7280" stroke-width="0.100" stroke-linecap="round" opacity="0.8"/><line x1="-4.500" y1="-2.500" x2="-4.500" y2="-3.400" stroke="#6b7280" stroke-width="0.100" stroke-linecap="round" opacity="0.8"/><line x1="-4.500" y1="0.450" x2="-4.500" y2="-0.450" stroke="#6b7280" stroke-width="0.100" stroke-linecap="round" opacity="0.8"/><line x1="-4.500" y1="3.400" x2="-4.500" y2="2.500" stroke="#6b7280" stroke-width="0.100" stroke-linecap="round" opacity="0.8"/><line x1="-4.500" y1="5.500" x2="-3.400" y2="5.500" stroke="#6b7280" stroke-width="0.100" stroke-linecap="round" opacity="0.8"/><line x1="-3.400" y1="-4.500" x2="-3.400" y2="-5.500" stroke="#6b7280" stroke-width="0.100" stroke-linecap="round" opacity="0.8"/><line x1="-3.400" y1="-4.500" x2="-2.500" y2="-4.500" stroke="#6b7280" stroke-width="0.100" stroke-linecap="round" opacity="0.8"/><line x1="-3.400" y1="4.500" x2="-2.500" y2="4.500" stroke="#6b7280" stroke-width="0.100" stroke-linecap="round" opacity="0.8"/><line x1="-3.400" y1="5.500" x2="-3.400" y2="4.500" stroke="#6b7280" stroke-width="0.100" stroke-linecap="round" opacity="0.8"/><line x1="-2.500" y1="-5.500" x2="-0.450" y2="-5.500" stroke="#6b7280" stroke-width="0.100" stroke-linecap="round" opacity="0.8"/><line x1="-2.500" y1="-4.500" x2="-2.500" y2="-5.500" stroke="#6b7280" stroke-width="0.100" stroke-linecap="round" opacity="0.8"/><line x1="-2.500" y1="5.500" x2="-2.500" y2="4.500" stroke="#6b7280" stroke-width="0.100" stroke-linecap="round" opacity="0.8"/><line x1="-2.500" y1="5.500" x2="-0.450" y2="5.500" stroke="#6b7280" stroke-width="0.100" stroke-linecap="round" opacity="0.8"/><line x1="-0.450" y1="-4.500" x2="-0.450" y2="-5.500" stroke="#6b7280" stroke-width="0.100" stroke-linecap="round" opacity="0.8"/><line x1="-0.450" y1="-4.500" x2="0.450" y2="-4.500" stroke="#6b7280" stroke-width="0.100" stroke-linecap="round" opacity="0.8"/><line x1="-0.450" y1="4.500" x2="0.450" y2="4.500" stroke="#6b7280" stroke-width="0.100" stroke-linecap="round" opacity="0.8"/><line x1="-0.450" y1="5.500" x2="-0.450" y2="4.500" stroke="#6b7280" stroke-width="0.100" stroke-linecap="round" opacity="0.8"/><line x1="0.450" y1="-5.500" x2="4.500" y2="-5.500" stroke="#6b7280" stroke-width="0.100" stroke-linecap="round" opacity="0.8"/><line x1="0.450" y1="-4.500" x2="0.450" y2="-5.500" stroke="#6b7280" stroke-width="0.100" stroke-linecap="round" opacity="0.8"/><line x1="0.450" y1="5.500" x2="0.450" y2="4.500" stroke="#6b7280" stroke-width="0.100" stroke-linecap="round" opacity="0.8"/><line x1="0.450" y1="5.500" x2="4.500" y2="5.500" stroke="#6b7280" stroke-width="0.100" stroke-linecap="round" opacity="0.8"/><line x1="4.500" y1="-3.400" x2="5.500" y2="-3.400" stroke="#6b7280" stroke-width="0.100" stroke-linecap="round" opacity="0.8"/><line x1="4.500" y1="-2.500" x2="4.500" y2="-3.400" stroke="#6b7280" stroke-width="0.100" stroke-linecap="round" opacity="0.8"/><line x1="4.500" y1="-2.500" x2="5.500" y2="-2.500" stroke="#6b7280" stroke-width="0.100" stroke-linecap="round" opacity="0.8"/><line x1="4.500" y1="-0.450" x2="5.500" y2="-0.450" stroke="#6b7280" stroke-width="0.100" stroke-linecap="round" opacity="0.8"/><line x1="4.500" y1="0.450" x2="4.500" y2="-0.450" stroke="#6b7280" stroke-width="0.100" stroke-linecap="round" opacity="0.8"/><line x1="4.500" y1="0.450" x2="5.500" y2="0.450" stroke="#6b7280" stroke-width="0.100" stroke-linecap="round" opacity="0.8"/><line x1="4.500" y1="2.500" x2="5.500" y2="2.500" stroke="#6b7280" stroke-width="0.100" stroke-linecap="round" opacity="0.8"/><line x1="4.500" y1="3.400" x2="4.500" y2="2.500" stroke="#6b7280" stroke-width="0.100" stroke-linecap="round" opacity="0.8"/><line x1="4.500" y1="3.400" x2="5.500" y2="3.400" stroke="#6b7280" stroke-width="0.100" stroke-linecap="round" opacity="0.8"/><line x1="5.500" y1="-3.400" x2="5.500" y2="-4.500" stroke="#6b7280" stroke-width="0.100" stroke-linecap="round" opacity="0.8"/><line x1="5.500" y1="-0.450" x2="5.500" y2="-2.500" stroke="#6b7280" stroke-width="0.100" stroke-linecap="round" opacity="0.8"/><line x1="5.500" y1="2.500" x2="5.500" y2="0.450" stroke="#6b7280" stroke-width="0.100" stroke-linecap="round" opacity="0.8"/><line x1="5.500" y1="4.500" x2="5.500" y2="3.400" stroke="#6b7280" stroke-width="0.100" stroke-linecap="round" opacity="0.8"/><line x1="-5.750" y1="-5.750" x2="5.750" y2="-5.750" stroke="#d24d4d" stroke-width="0.080" stroke-linecap="round" opacity="0.7"/><line x1="5.750" y1="-5.750" x2="5.750" y2="5.750" stroke="#d24d4d" stroke-width="0.080" stroke-linecap="round" opacity="0.7"/><line x1="5.750" y1="5.750" x2="-5.750" y2="5.750" stroke="#d24d4d" stroke-width="0.080" stroke-linecap="round" opacity="0.7"/><line x1="-5.750" y1="5.750" x2="-5.750" y2="-5.750" stroke="#d24d4d" stroke-width="0.080" stroke-linecap="round" opacity="0.7"/><path d="M -4.465 2.250 A 5.000 5.000 0 0 1 -4.465 -2.250" fill="none" stroke="#e6e9ef" stroke-width="0.12" opacity="1"/><path d="M -2.513 -4.323 A 5.000 5.000 0 0 1 -1.943 -4.607" fill="none" stroke="#e6e9ef" stroke-width="0.12" opacity="1"/><path d="M -2.121 2.121 A 3.000 3.000 0 0 1 -2.164 -2.078" fill="none" stroke="#e6e9ef" stroke-width="0.12" opacity="1"/><path d="M -2.039 2.042 A 0.250 0.250 0 1 1 -1.657 2.363" fill="none" stroke="#e6e9ef" stroke-width="0.12" opacity="1"/><path d="M -1.988 -4.732 A 0.250 0.250 0 0 1 -1.518 -4.901" fill="none" stroke="#e6e9ef" stroke-width="0.12" opacity="1"/><path d="M -1.943 4.607 A 5.000 5.000 0 0 1 -2.587 4.279" fill="none" stroke="#e6e9ef" stroke-width="0.12" opacity="1"/><path d="M -1.657 -2.363 A 0.250 0.250 0 1 1 -2.039 -2.042" fill="none" stroke="#e6e9ef" stroke-width="0.12" opacity="1"/><path d="M -1.654 2.365 A 0.250 0.250 0 1 1 -1.221 2.614" fill="none" stroke="#e6e9ef" stroke-width="0.12" opacity="1"/><path d="M -1.519 4.903 A 0.250 0.250 0 0 1 -1.987 4.731" fill="none" stroke="#e6e9ef" stroke-width="0.12" opacity="1"/><path d="M -1.473 -4.778 A 4.999 4.999 0 0 1 -1.113 -4.874" fill="none" stroke="#e6e9ef" stroke-width="0.12" opacity="1"/><path d="M -1.221 -2.614 A 0.250 0.250 0 1 1 -1.654 -2.365" fill="none" stroke="#e6e9ef" stroke-width="0.12" opacity="1"/><path d="M -1.218 2.616 A 0.250 0.250 0 1 1 -0.748 2.787" fill="none" stroke="#e6e9ef" stroke-width="0.12" opacity="1"/><path d="M -1.136 -5.005 A 0.250 0.250 0 0 1 -0.644 -5.091" fill="none" stroke="#e6e9ef" stroke-width="0.12" opacity="1"/><path d="M -1.113 4.874 A 5.001 5.001 0 0 1 -1.473 4.778" fill="none" stroke="#e6e9ef" stroke-width="0.12" opacity="1"/><path d="M -0.749 -2.787 A 0.250 0.250 0 1 1 -1.218 -2.616" fill="none" stroke="#e6e9ef" stroke-width="0.12" opacity="1"/><path d="M -0.745 2.788 A 0.250 0.250 0 1 1 -0.253 2.875" fill="none" stroke="#e6e9ef" stroke-width="0.12" opacity="1"/><path d="M -0.644 5.092 A 0.250 0.250 0 0 1 -1.136 5.004" fill="none" stroke="#e6e9ef" stroke-width="0.12" opacity="1"/><path d="M -0.621 -4.961 A 5.000 5.000 0 0 1 -0.250 -4.994" fill="none" stroke="#e6e9ef" stroke-width="0.12" opacity="1"/><path d="M -0.253 -2.875 A 0.250 0.250 0 1 1 -0.745 -2.788" fill="none" stroke="#e6e9ef" stroke-width="0.12" opacity="1"/><path d="M -0.250 4.994 A 5.000 5.000 0 0 1 -0.621 4.961" fill="none" stroke="#e6e9ef" stroke-width="0.12" opacity="1"/><path d="M -0.250 -5.127 A 0.250 0.250 0 0 1 0.250 -5.125" fill="none" stroke="#e6e9ef" stroke-width="0.12" opacity="1"/><path d="M -0.250 2.875 A 0.250 0.250 0 1 1 0.250 2.875" fill="none" stroke="#e6e9ef" stroke-width="0.12" opacity="1"/><path d="M 0.250 -2.875 A 0.250 0.250 0 1 1 -0.250 -2.875" fill="none" stroke="#e6e9ef" stroke-width="0.12" opacity="1"/><path d="M 0.250 -4.994 A 5.000 5.000 0 0 1 0.621 -4.961" fill="none" stroke="#e6e9ef" stroke-width="0.12" opacity="1"/><path d="M 0.250 5.127 A 0.250 0.250 0 0 1 -0.250 5.125" fill="none" stroke="#e6e9ef" stroke-width="0.12" opacity="1"/><path d="M 0.253 2.875 A 0.250 0.250 0 1 1 0.745 2.788" fill="none" stroke="#e6e9ef" stroke-width="0.12" opacity="1"/><path d="M 0.621 4.961 A 5.000 5.000 0 0 1 0.250 4.994" fill="none" stroke="#e6e9ef" stroke-width="0.12" opacity="1"/><path d="M 0.644 -5.092 A 0.250 0.250 0 0 1 1.136 -5.004" fill="none" stroke="#e6e9ef" stroke-width="0.12" opacity="1"/><path d="M 0.745 -2.788 A 0.250 0.250 0 1 1 0.253 -2.875" fill="none" stroke="#e6e9ef" stroke-width="0.12" opacity="1"/><path d="M 0.749 2.787 A 0.250 0.250 0 1 1 1.218 2.616" fill="none" stroke="#e6e9ef" stroke-width="0.12" opacity="1"/><path d="M 1.113 -4.875 A 5.001 5.001 0 0 1 1.473 -4.778" fill="none" stroke="#e6e9ef" stroke-width="0.12" opacity="1"/><path d="M 1.136 5.005 A 0.250 0.250 0 0 1 0.644 5.091" fill="none" stroke="#e6e9ef" stroke-width="0.12" opacity="1"/><path d="M 1.218 -2.616 A 0.250 0.250 0 1 1 0.748 -2.787" fill="none" stroke="#e6e9ef" stroke-width="0.12" opacity="1"/><path d="M 1.221 2.614 A 0.250 0.250 0 1 1 1.654 2.365" fill="none" stroke="#e6e9ef" stroke-width="0.12" opacity="1"/><path d="M 1.473 4.778 A 4.999 4.999 0 0 1 1.113 4.875" fill="none" stroke="#e6e9ef" stroke-width="0.12" opacity="1"/><path d="M 1.519 -4.903 A 0.250 0.250 0 0 1 1.987 -4.731" fill="none" stroke="#e6e9ef" stroke-width="0.12" opacity="1"/><path d="M 1.654 -2.365 A 0.250 0.250 0 1 1 1.221 -2.614" fill="none" stroke="#e6e9ef" stroke-width="0.12" opacity="1"/><path d="M 1.657 2.363 A 0.250 0.250 0 1 1 2.039 2.042" fill="none" stroke="#e6e9ef" stroke-width="0.12" opacity="1"/><path d="M 1.942 -4.607 A 5.000 5.000 0 0 1 2.513 -4.323" fill="none" stroke="#e6e9ef" stroke-width="0.12" opacity="1"/><path d="M 1.988 4.732 A 0.250 0.250 0 0 1 1.518 4.901" fill="none" stroke="#e6e9ef" stroke-width="0.12" opacity="1"/><path d="M 2.039 -2.042 A 0.250 0.250 0 1 1 1.657 -2.363" fill="none" stroke="#e6e9ef" stroke-width="0.12" opacity="1"/><path d="M 2.120 -2.123 A 3.000 3.000 0 0 1 2.114 2.129" fill="none" stroke="#e6e9ef" stroke-width="0.12" opacity="1"/><path d="M 2.587 4.279 A 5.000 5.000 0 0 1 1.942 4.607" fill="none" stroke="#e6e9ef" stroke-width="0.12" opacity="1"/><path d="M 4.465 -2.250 A 5.000 5.000 0 0 1 4.465 2.250" fill="none" stroke="#e6e9ef" stroke-width="0.12" opacity="1"/><path d="M -5.500 -4.500 A 1.000 1.000 0 0 1 -4.500 -5.500" fill="none" stroke="#6b7280" stroke-width="0.12" opacity="0.8"/><path d="M -4.500 5.500 A 1.000 1.000 0 0 1 -5.500 4.500" fill="none" stroke="#6b7280" stroke-width="0.12" opacity="0.8"/><path d="M 4.500 -5.500 A 1.000 1.000 0 0 1 5.500 -4.500" fill="none" stroke="#6b7280" stroke-width="0.12" opacity="0.8"/><path d="M 5.500 4.500 A 1.000 1.000 0 0 1 4.500 5.500" fill="none" stroke="#6b7280" stroke-width="0.12" opacity="0.8"/><circle cx="-6.500" cy="4.300" r="0.250" fill="#e6e9ef" opacity="1"/><circle cx="-3.810" cy="-3.810" r="0.850" fill="none" stroke="#4a5160" stroke-width="0.12" opacity="0.7"/><circle cx="-3.810" cy="3.810" r="0.850" fill="none" stroke="#4a5160" stroke-width="0.12" opacity="0.7"/><circle cx="3.810" cy="-3.810" r="0.850" fill="none" stroke="#4a5160" stroke-width="0.12" opacity="0.7"/><circle cx="3.810" cy="3.810" r="0.850" fill="none" stroke="#4a5160" stroke-width="0.12" opacity="0.7"/><circle cx="0.000" cy="0.000" r="5.000" fill="none" stroke="#6b7280" stroke-width="0.12" opacity="0.8"/><circle cx="0.000" cy="0.000" r="3.000" fill="none" stroke="#6b7280" stroke-width="0.12" opacity="0.8"/><rect x="-4.660" y="2.960" width="1.700" height="1.700" rx="0.850" fill="#c79b5c"/><circle cx="-3.810" cy="3.810" r="0.500" fill="#12151c"/><rect x="2.960" y="2.960" width="1.700" height="1.700" rx="0.850" fill="#c79b5c"/><circle cx="3.810" cy="3.810" r="0.500" fill="#12151c"/><rect x="2.960" y="-4.660" width="1.700" height="1.700" rx="0.850" fill="#c79b5c"/><circle cx="3.810" cy="-3.810" r="0.500" fill="#12151c"/><rect x="-4.660" y="-4.660" width="1.700" height="1.700" rx="0.850" fill="#c79b5c"/><circle cx="-3.810" cy="-3.810" r="0.500" fill="#12151c"/></svg>