<svg xmlns="http://www.w3.org/2000/svg" viewBox="-13.30 -3.65 26.60 7.30" preserveAspectRatio="xMidYMid meet" style="width:100%;height:100%"><rect x="-13.30" y="-3.65" width="26.60" height="7.30" fill="#12151c"/><line x1="-12.050" y1="-2.400" x2="12.050" y2="-2.400" stroke="#e6e9ef" stroke-width="0.200" stroke-linecap="round" opacity="1"/><line x1="-12.050" y1="2.400" x2="-12.050" y2="-2.400" stroke="#e6e9ef" stroke-width="0.200" stroke-linecap="round" opacity="1"/><line x1="-12.050" y1="2.400" x2="12.050" y2="2.400" stroke="#e6e9ef" stroke-width="0.200" stroke-linecap="round" opacity="1"/><line x1="12.050" y1="2.400" x2="12.050" y2="-2.400" stroke="#e6e9ef" stroke-width="0.200" stroke-linecap="round" opacity="1"/><line x1="-10.660" y1="0.000" x2="-10.160" y2="0.000" stroke="#4a5160" stroke-width="0.100" stroke-linecap="round" opacity="0.7"/><line x1="-10.160" y1="0.000" x2="-10.160" y2="-0.500" stroke="#4a5160" stroke-width="0.100" stroke-linecap="round" opacity="0.7"/><line x1="-10.160" y1="0.000" x2="-9.660" y2="0.000" stroke="#4a5160" stroke-width="0.100" stroke-linecap="round" opacity="0.7"/><line x1="-10.160" y1="0.500" x2="-10.160" y2="0.000" stroke="#4a5160" stroke-width="0.100" stroke-linecap="round" opacity="0.7"/><line x1="-8.120" y1="0.000" x2="-7.620" y2="0.000" stroke="#4a5160" stroke-width="0.100" stroke-linecap="round" opacity="0.7"/><line x1="-7.620" y1="0.000" x2="-7.620" y2="-0.500" stroke="#4a5160" stroke-width="0.100" stroke-linecap="round" opacity="0.7"/><line x1="-7.620" y1="0.000" x2="-7.120" y2="0.000" stroke="#4a5160" stroke-width="0.100" stroke-linecap="round" opacity="0.7"/><line x1="-7.620" y1="0.500" x2="-7.620" y2="0.000" stroke="#4a5160" stroke-width="0.100" stroke-linecap="round" opacity="0.7"/><line x1="-5.580" y1="0.000" x2="-5.080" y2="0.000" stroke="#4a5160" stroke-width="0.100" stroke-linecap="round" opacity="0.7"/><line x1="-5.080" y1="0.000" x2="-5.080" y2="-0.500" stroke="#4a5160" stroke-width="0.100" stroke-linecap="round" opacity="0.7"/><line x1="-5.080" y1="0.000" x2="-4.580" y2="0.000" stroke="#4a5160" stroke-width="0.100" stroke-linecap="round" opacity="0.7"/><line x1="-5.080" y1="0.500" x2="-5.080" y2="0.000" stroke="#4a5160" stroke-width="0.100" stroke-linecap="round" opacity="0.7"/><line x1="-3.040" y1="0.000" x2="-2.540" y2="0.000" stroke="#4a5160" stroke-width="0.100" stroke-linecap="round" opacity="0.7"/><line x1="-2.540" y1="0.000" x2="-2.540" y2="-0.500" stroke="#4a5160" stroke-width="0.100" stroke-linecap="round" opacity="0.7"/><line x1="-2.540" y1="0.000" x2="-2.040" y2="0.000" stroke="#4a5160" stroke-width="0.100" stroke-linecap="round" opacity="0.7"/><line x1="-2.540" y1="0.500" x2="-2.540" y2="0.000" stroke="#4a5160" stroke-width="0.100" stroke-linecap="round" opacity="0.7"/><line x1="-0.500" y1="0.000" x2="0.000" y2="0.000" stroke="#4a5160" stroke-width="0.100" stroke-linecap="round" opacity="0.7"/><line x1="0.000" y1="0.000" x2="0.000" y2="-0.500" stroke="#4a5160" stroke-width="0.100" stroke-linecap="round" opacity="0.7"/><line x1="0.000" y1="0.000" x2="0.500" y2="0.000" stroke="#4a5160" stroke-width="0.100" stroke-linecap="round" opacity="0.7"/><line x1="0.000" y1="0.500" x2="0.000" y2="0.000" stroke="#4a5160" stroke-width="0.100" stroke-linecap="round" opacity="0.7"/><line x1="4.580" y1="0.000" x2="5.080" y2="0.000" stroke="#4a5160" stroke-width="0.100" stroke-linecap="round" opacity="0.7"/><line x1="5.080" y1="0.000" x2="5.080" y2="-0.500" stroke="#4a5160" stroke-width="0.100" stroke-linecap="round" opacity="0.7"/><line x1="5.080" y1="0.000" x2="5.580" y2="0.000" stroke="#4a5160" stroke-width="0.100" stroke-linecap="round" opacity="0.7"/><line x1="5.080" y1="0.500" x2="5.080" y2="0.000" stroke="#4a5160" stroke-width="0.100" stroke-linecap="round" opacity="0.7"/><line x1="7.120" y1="0.000" x2="7.620" y2="0.000" stroke="#4a5160" stroke-width="0.100" stroke-linecap="round" opacity="0.7"/><line x1="7.620" y1="0.000" x2="7.620" y2="-0.500" stroke="#4a5160" stroke-width="0.100" stroke-linecap="round" opacity="0.7"/><line x1="7.620" y1="0.000" x2="8.120" y2="0.000" stroke="#4a5160" stroke-width="0.100" stroke-linecap="round" opacity="0.7"/><line x1="7.620" y1="0.500" x2="7.620" y2="0.000" stroke="#4a5160" stroke-width="0.100" stroke-linecap="round" opacity="0.7"/><line x1="9.660" y1="0.000" x2="10.160" y2="0.000" stroke="#4a5160" stroke-width="0.100" stroke-linecap="round" opacity="0.7"/><line x1="10.160" y1="0.000" x2="10.160" y2="-0.500" stroke="#4a5160" stroke-width="0.100" stroke-linecap="round" opacity="0.7"/><line x1="10.160" y1="0.000" x2="10.660" y2="0.000" stroke="#4a5160" stroke-width="0.100" stroke-linecap="round" opacity="0.7"/><line x1="10.160" y1="0.500" x2="10.160" y2="0.000" stroke="#4a5160" stroke-width="0.100" stroke-linecap="round" opacity="0.7"/><line x1="-12.050" y1="-2.400" x2="12.050" y2="-2.400" stroke="#6b7280" stroke-width="0.100" stroke-linecap="round" opacity="0.8"/><line x1="-12.050" y1="2.400" x2="-12.050" y2="-2.400" stroke="#6b7280" stroke-width="0.100" stroke-linecap="round" opacity="0.8"/><line x1="-12.050" y1="2.400" x2="12.050" y2="2.400" stroke="#6b7280" stroke-width="0.100" stroke-linecap="round" opacity="0.8"/><line x1="-11.034" y1="2.400" x2="-11.034" y2="-2.400" stroke="#6b7280" stroke-width="0.100" stroke-linecap="round" opacity="0.8"/><line x1="11.034" y1="2.400" x2="11.034" y2="-2.400" stroke="#6b7280" stroke-width="0.100" stroke-linecap="round" opacity="0.8"/><line x1="12.050" y1="2.400" x2="12.050" y2="-2.400" stroke="#6b7280" stroke-width="0.100" stroke-linecap="round" opacity="0.8"/><line x1="-12.300" y1="-2.650" x2="12.300" y2="-2.650" stroke="#d24d4d" stroke-width="0.080" stroke-linecap="round" opacity="0.7"/><line x1="12.300" y1="-2.650" x2="12.300" y2="2.650" stroke="#d24d4d" stroke-width="0.080" stroke-linecap="round" opacity="0.7"/><line x1="12.300" y1="2.650" x2="-12.300" y2="2.650" stroke="#d24d4d" stroke-width="0.080" stroke-linecap="round" opacity="0.7"/><line x1="-12.300" y1="2.650" x2="-12.300" y2="-2.650" stroke="#d24d4d" stroke-width="0.080" stroke-linecap="round" opacity="0.7"/><circle cx="-11.225" cy="1.575" r="0.400" fill="none" stroke="#e6e9ef" stroke-width="0.12" opacity="1"/><circle cx="-8.890" cy="1.400" r="0.500" fill="none" stroke="#6b7280" stroke-width="0.12" opacity="0.8"/><rect x="-10.910" y="-0.750" width="1.500" height="1.500" rx="0.000" fill="#c79b5c"/><circle cx="-10.160" cy="0.000" r="0.400" fill="#12151c"/><rect x="-8.370" y="-0.750" width="1.500" height="1.500" rx="0.750" fill="#c79b5c"/><circle cx="-7.620" cy="0.000" r="0.400" fill="#12151c"/><rect x="-5.830" y="-0.750" width="1.500" height="1.500" rx="0.750" fill="#c79b5c"/><circle cx="-5.080" cy="0.000" r="0.400" fill="#12151c"/><rect x="-3.290" y="-0.750" width="1.500" height="1.500" rx="0.750" fill="#c79b5c"/><circle cx="-2.540" cy="0.000" r="0.400" fill="#12151c"/><rect x="-0.750" y="-0.750" width="1.500" height="1.500" rx="0.750" fill="#c79b5c"/><circle cx="0.000" cy="0.000" r="0.400" fill="#12151c"/><rect x="4.330" y="-0.750" width="1.500" height="1.500" rx="0.750" fill="#c79b5c"/><circle cx="5.080" cy="0.000" r="0.400" fill="#12151c"/><rect x="6.870" y="-0.750" width="1.500" height="1.500" rx="0.750" fill="#c79b5c"/><circle cx="7.620" cy="0.000" r="0.400" fill="#12151c"/><rect x="9.410" y="-0.750" width="1.500" height="1.500" rx="0.750" fill="#c79b5c"/><circle cx="10.160" cy="0.000" r="0.400" fill="#12151c"/><polygon points="-10.61,1.80 -9.71,1.80 -10.16,1.20" fill="#ffffff"/></svg>