<svg xmlns="http://www.w3.org/2000/svg" viewBox="-7.46 -7.83 9.31 86.78" preserveAspectRatio="xMidYMid meet" style="width:100%;height:100%"><rect x="-7.46" y="-7.83" width="9.31" height="86.78" fill="#12151c"/><path d="M -5.010 -4.126 A 1.000 1.000 0 0 1 -5.010 -6.034" fill="none" stroke="#6b7280" stroke-width="0.12" opacity="0.8"/><path d="M -5.010 51.754 A 1.000 1.000 0 0 1 -5.010 49.846" fill="none" stroke="#6b7280" stroke-width="0.12" opacity="0.8"/><path d="M -5.010 77.154 A 1.000 1.000 0 0 1 -5.010 75.246" fill="none" stroke="#6b7280" stroke-width="0.12" opacity="0.8"/><path d="M -4.410 -6.034 A 1.000 1.000 0 0 1 -4.410 -4.126" fill="none" stroke="#6b7280" stroke-width="0.12" opacity="0.8"/><path d="M -4.410 49.846 A 1.000 1.000 0 0 1 -4.410 51.754" fill="none" stroke="#6b7280" stroke-width="0.12" opacity="0.8"/><path d="M -4.410 75.246 A 1.000 1.000 0 0 1 -4.410 77.154" fill="none" stroke="#6b7280" stroke-width="0.12" opacity="0.8"/><rect x="-0.850" y="-0.850" width="1.700" height="1.700" rx="0.850" fill="#c79b5c"/><circle cx="0.000" cy="0.000" r="0.500" fill="#12151c"/><rect x="-5.930" y="-0.850" width="1.700" height="1.700" rx="0.850" fill="#c79b5c"/><circle cx="-5.080" cy="0.000" r="0.500" fill="#12151c"/><rect x="-0.850" y="4.230" width="1.700" height="1.700" rx="0.850" fill="#c79b5c"/><circle cx="0.000" cy="5.080" r="0.500" fill="#12151c"/><rect x="-5.930" y="4.230" width="1.700" height="1.700" rx="0.850" fill="#c79b5c"/><circle cx="-5.080" cy="5.080" r="0.500" fill="#12151c"/><rect x="-0.850" y="9.310" width="1.700" height="1.700" rx="0.850" fill="#c79b5c"/><circle cx="0.000" cy="10.160" r="0.500" fill="#12151c"/><rect x="-5.930" y="9.310" width="1.700" height="1.700" rx="0.850" fill="#c79b5c"/><circle cx="-5.080" cy="10.160" r="0.500" fill="#12151c"/><rect x="-0.850" y="14.390" width="1.700" height="1.700" rx="0.850" fill="#c79b5c"/><circle cx="0.000" cy="15.240" r="0.500" fill="#12151c"/><rect x="-5.930" y="14.390" width="1.700" height="1.700" rx="0.850" fill="#c79b5c"/><circle cx="-5.080" cy="15.240" r="0.500" fill="#12151c"/><rect x="-0.850" y="29.630" width="1.700" height="1.700" rx="0.850" fill="#c79b5c"/><circle cx="0.000" cy="30.480" r="0.500" fill="#12151c"/><rect x="-5.930" y="29.630" width="1.700" height="1.700" rx="0.850" fill="#c79b5c"/><circle cx="-5.080" cy="30.480" r="0.500" fill="#12151c"/><rect x="-0.850" y="34.710" width="1.700" height="1.700" rx="0.850" fill="#c79b5c"/><circle cx="0.000" cy="35.560" r="0.500" fill="#12151c"/><rect x="-5.930" y="34.710" width="1.700" height="1.700" rx="0.850" fill="#c79b5c"/><circle cx="-5.080" cy="35.560" r="0.500" fill="#12151c"/><rect x="-0.850" y="39.790" width="1.700" height="1.700" rx="0.850" fill="#c79b5c"/><circle cx="0.000" cy="40.640" r="0.500" fill="#12151c"/><rect x="-5.930" y="39.790" width="1.700" height="1.700" rx="0.850" fill="#c79b5c"/><circle cx="-5.080" cy="40.640" r="0.500" fill="#12151c"/><rect x="-0.850" y="44.870" width="1.700" height="1.700" rx="0.850" fill="#c79b5c"/><circle cx="0.000" cy="45.720" r="0.500" fill="#12151c"/><rect x="-5.930" y="44.870" width="1.700" height="1.700" rx="0.850" fill="#c79b5c"/><circle cx="-5.080" cy="45.720" r="0.500" fill="#12151c"/><rect x="-0.850" y="55.030" width="1.700" height="1.700" rx="0.850" fill="#c79b5c"/><circle cx="0.000" cy="55.880" r="0.500" fill="#12151c"/><rect x="-5.930" y="55.030" width="1.700" height="1.700" rx="0.850" fill="#c79b5c"/><circle cx="-5.080" cy="55.880" r="0.500" fill="#12151c"/><rect x="-0.850" y="60.110" width="1.700" height="1.700" rx="0.850" fill="#c79b5c"/><circle cx="0.000" cy="60.960" r="0.500" fill="#12151c"/><rect x="-5.930" y="60.110" width="1.700" height="1.700" rx="0.850" fill="#c79b5c"/><circle cx="-5.080" cy="60.960" r="0.500" fill="#12151c"/><rect x="-0.850" y="65.190" width="1.700" height="1.700" rx="0.850" fill="#c79b5c"/><circle cx="0.000" cy="66.040" r="0.500" fill="#12151c"/><rect x="-5.930" y="65.190" width="1.700" height="1.700" rx="0.850" fill="#c79b5c"/><circle cx="-5.080" cy="66.040" r="0.500" fill="#12151c"/><rect x="-0.850" y="70.270" width="1.700" height="1.700" rx="0.850" fill="#c79b5c"/><circle cx="0.000" cy="71.120" r="0.500" fill="#12151c"/><rect x="-5.930" y="70.270" width="1.700" height="1.700" rx="0.850" fill="#c79b5c"/><circle cx="-5.080" cy="71.120" r="0.500" fill="#12151c"/><rect x="-0.850" y="19.470" width="1.700" height="1.700" rx="0.850" fill="#c79b5c"/><circle cx="0.000" cy="20.320" r="0.500" fill="#12151c"/><rect x="-3.390" y="19.470" width="1.700" height="1.700" rx="0.850" fill="#c79b5c"/><circle cx="-2.540" cy="20.320" r="0.500" fill="#12151c"/><rect x="-5.930" y="19.470" width="1.700" height="1.700" rx="0.850" fill="#c79b5c"/><circle cx="-5.080" cy="20.320" r="0.500" fill="#12151c"/><rect x="-0.850" y="22.010" width="1.700" height="1.700" rx="0.850" fill="#c79b5c"/><circle cx="0.000" cy="22.860" r="0.500" fill="#12151c"/><rect x="-3.390" y="22.010" width="1.700" height="1.700" rx="0.850" fill="#c79b5c"/><circle cx="-2.540" cy="22.860" r="0.500" fill="#12151c"/><rect x="-5.930" y="22.010" width="1.700" height="1.700" rx="0.850" fill="#c79b5c"/><circle cx="-5.080" cy="22.860" r="0.500" fill="#12151c"/><rect x="-0.850" y="24.550" width="1.700" height="1.700" rx="0.850" fill="#c79b5c"/><circle cx="0.000" cy="25.400" r="0.500" fill="#12151c"/><rect x="-3.390" y="24.550" width="1.700" height="1.700" rx="0.850" fill="#c79b5c"/><circle cx="-2.540" cy="25.400" r="0.500" fill="#12151c"/><rect x="-5.930" y="24.550" width="1.700" height="1.700" rx="0.850" fill="#c79b5c"/><circle cx="-5.080" cy="25.400" r="0.500" fill="#12151c"/><rect x="-6.460" y="-6.830" width="3.500" height="3.500" rx="1.750" fill="#c79b5c"/><circle cx="-4.710" cy="-5.080" r="1.400" fill="#12151c"/><rect x="-6.460" y="49.050" width="3.500" height="3.500" rx="1.750" fill="#c79b5c"/><circle cx="-4.710" cy="50.800" r="1.400" fill="#12151c"/><rect x="-6.460" y="74.450" width="3.500" height="3.500" rx="1.750" fill="#c79b5c"/><circle cx="-4.710" cy="76.200" r="1.400" fill="#12151c"/></svg>