<svg xmlns="http://www.w3.org/2000/svg" viewBox="-6.18 -6.08 16.10 12.16" preserveAspectRatio="xMidYMid meet" style="width:100%;height:100%"><rect x="-6.18" y="-6.08" width="16.10" height="12.16" fill="#12151c"/><path d="M -0.928 -4.832 A 0.250 0.250 0 0 1 -0.681 -5.080" fill="none" stroke="#e6e9ef" stroke-width="0.12" opacity="1"/><path d="M -0.681 5.080 A 0.250 0.250 0 0 1 -0.928 4.832" fill="none" stroke="#e6e9ef" stroke-width="0.12" opacity="1"/><path d="M 0.247 -3.025 A 0.750 0.750 0 0 1 1.746 -3.025" fill="none" stroke="#e6e9ef" stroke-width="0.12" opacity="1"/><path d="M 7.936 3.025 A 0.750 0.750 0 0 1 6.457 3.025" fill="none" stroke="#e6e9ef" stroke-width="0.12" opacity="1"/><path d="M 8.672 -5.080 A 0.250 0.250 0 0 1 8.922 -4.832" fill="none" stroke="#e6e9ef" stroke-width="0.12" opacity="1"/><path d="M 8.922 4.832 A 0.250 0.250 0 0 1 8.674 5.080" fill="none" stroke="#e6e9ef" stroke-width="0.12" opacity="1"/><path d="M -0.928 -4.832 A 0.250 0.250 0 0 1 -0.681 -5.080" fill="none" stroke="#6b7280" stroke-width="0.12" opacity="0.8"/><path d="M -0.681 5.080 A 0.250 0.250 0 0 1 -0.928 4.832" fill="none" stroke="#6b7280" stroke-width="0.12" opacity="0.8"/><path d="M 8.672 -5.080 A 0.250 0.250 0 0 1 8.922 -4.832" fill="none" stroke="#6b7280" stroke-width="0.12" opacity="0.8"/><path d="M 8.922 4.832 A 0.250 0.250 0 0 1 8.674 5.080" fill="none" stroke="#6b7280" stroke-width="0.12" opacity="0.8"/><circle cx="-4.900" cy="-4.900" r="0.125" fill="none" stroke="#e6e9ef" stroke-width="0.12" opacity="1"/><circle cx="0.997" cy="-3.000" r="0.750" fill="none" stroke="#6b7280" stroke-width="0.12" opacity="0.8"/><circle cx="7.197" cy="2.900" r="0.750" fill="none" stroke="#6b7280" stroke-width="0.12" opacity="0.8"/><rect x="-5.183" y="-4.255" width="3.060" height="0.890" rx="0.000" fill="#c79b5c"/><rect x="-5.183" y="-2.985" width="3.060" height="0.890" rx="0.000" fill="#c79b5c"/><rect x="-5.183" y="-1.715" width="3.060" height="0.890" rx="0.000" fill="#c79b5c"/><rect x="-5.183" y="-0.445" width="3.060" height="0.890" rx="0.000" fill="#c79b5c"/><rect x="-5.183" y="0.825" width="3.060" height="0.890" rx="0.000" fill="#c79b5c"/><rect x="-5.183" y="2.095" width="3.060" height="0.890" rx="0.000" fill="#c79b5c"/><rect x="-5.183" y="3.365" width="3.060" height="0.890" rx="0.000" fill="#c79b5c"/><rect x="-0.617" y="-2.675" width="8.540" height="5.350" rx="0.000" fill="#c79b5c"/></svg>