<svg xmlns="http://www.w3.org/2000/svg" viewBox="-21.10 -5.55 41.60 12.50" preserveAspectRatio="xMidYMid meet" style="width:100%;height:100%"><rect x="-21.10" y="-5.55" width="41.60" height="12.50" fill="#12151c"/><line x1="-20.100" y1="-4.550" x2="19.500" y2="-4.550" stroke="#d24d4d" stroke-width="0.080" stroke-linecap="round" opacity="0.7"/><line x1="19.500" y1="-4.550" x2="19.500" y2="5.950" stroke="#d24d4d" stroke-width="0.080" stroke-linecap="round" opacity="0.7"/><line x1="19.500" y1="5.950" x2="-20.100" y2="5.950" stroke="#d24d4d" stroke-width="0.080" stroke-linecap="round" opacity="0.7"/><line x1="-20.100" y1="5.950" x2="-20.100" y2="-4.550" stroke="#d24d4d" stroke-width="0.080" stroke-linecap="round" opacity="0.7"/><path d="M -18.514 3.804 A 0.968 0.968 0 0 1 -18.847 3.446" fill="none" stroke="#e6e9ef" stroke-width="0.12" opacity="1"/><path d="M -18.514 4.285 A 1.409 1.409 0 0 1 -19.023 3.809" fill="none" stroke="#e6e9ef" stroke-width="0.12" opacity="1"/><path d="M -18.514 4.285 A 1.409 1.409 0 0 1 -19.023 3.809" fill="none" stroke="#e6e9ef" stroke-width="0.12" opacity="1"/><path d="M -17.885 -1.189 A 0.700 0.700 0 0 1 -16.500 -1.043" fill="none" stroke="#e6e9ef" stroke-width="0.12" opacity="1"/><path d="M -17.052 3.033 A 1.359 1.359 0 1 1 -18.398 3.033" fill="none" stroke="#e6e9ef" stroke-width="0.12" opacity="1"/><path d="M -16.936 4.285 A 1.106 1.106 0 0 1 -18.514 4.285" fill="none" stroke="#e6e9ef" stroke-width="0.12" opacity="1"/><path d="M -16.603 3.446 A 0.968 0.968 0 0 1 -16.936 3.804" fill="none" stroke="#e6e9ef" stroke-width="0.12" opacity="1"/><path d="M -16.427 3.809 A 1.409 1.409 0 0 1 -16.936 4.285" fill="none" stroke="#e6e9ef" stroke-width="0.12" opacity="1"/><path d="M -16.427 3.809 A 1.409 1.409 0 0 1 -16.936 4.285" fill="none" stroke="#e6e9ef" stroke-width="0.12" opacity="1"/><path d="M -13.514 3.804 A 0.968 0.968 0 0 1 -13.847 3.446" fill="none" stroke="#e6e9ef" stroke-width="0.12" opacity="1"/><path d="M -13.514 4.285 A 1.409 1.409 0 0 1 -14.023 3.809" fill="none" stroke="#e6e9ef" stroke-width="0.12" opacity="1"/><path d="M -13.514 4.285 A 1.409 1.409 0 0 1 -14.023 3.809" fill="none" stroke="#e6e9ef" stroke-width="0.12" opacity="1"/><path d="M -12.885 -1.189 A 0.700 0.700 0 0 1 -11.500 -1.043" fill="none" stroke="#e6e9ef" stroke-width="0.12" opacity="1"/><path d="M -12.052 3.033 A 1.359 1.359 0 1 1 -13.398 3.033" fill="none" stroke="#e6e9ef" stroke-width="0.12" opacity="1"/><path d="M -11.936 4.285 A 1.106 1.106 0 0 1 -13.514 4.285" fill="none" stroke="#e6e9ef" stroke-width="0.12" opacity="1"/><path d="M -11.603 3.446 A 0.968 0.968 0 0 1 -11.936 3.804" fill="none" stroke="#e6e9ef" stroke-width="0.12" opacity="1"/><path d="M -11.427 3.809 A 1.409 1.409 0 0 1 -11.936 4.285" fill="none" stroke="#e6e9ef" stroke-width="0.12" opacity="1"/><path d="M -11.427 3.809 A 1.409 1.409 0 0 1 -11.936 4.285" fill="none" stroke="#e6e9ef" stroke-width="0.12" opacity="1"/><path d="M -8.514 3.804 A 0.968 0.968 0 0 1 -8.847 3.446" fill="none" stroke="#e6e9ef" stroke-width="0.12" opacity="1"/><path d="M -8.514 4.285 A 1.409 1.409 0 0 1 -9.023 3.809" fill="none" stroke="#e6e9ef" stroke-width="0.12" opacity="1"/><path d="M -8.514 4.285 A 1.409 1.409 0 0 1 -9.023 3.809" fill="none" stroke="#e6e9ef" stroke-width="0.12" opacity="1"/><path d="M -7.885 -1.189 A 0.700 0.700 0 0 1 -6.500 -1.043" fill="none" stroke="#e6e9ef" stroke-width="0.12" opacity="1"/><path d="M -7.052 3.033 A 1.359 1.359 0 1 1 -8.398 3.033" fill="none" stroke="#e6e9ef" stroke-width="0.12" opacity="1"/><path d="M -6.936 4.285 A 1.106 1.106 0 0 1 -8.514 4.285" fill="none" stroke="#e6e9ef" stroke-width="0.12" opacity="1"/><path d="M -6.603 3.446 A 0.968 0.968 0 0 1 -6.936 3.804" fill="none" stroke="#e6e9ef" stroke-width="0.12" opacity="1"/><path d="M -6.427 3.809 A 1.409 1.409 0 0 1 -6.936 4.285" fill="none" stroke="#e6e9ef" stroke-width="0.12" opacity="1"/><path d="M -6.427 3.809 A 1.409 1.409 0 0 1 -6.936 4.285" fill="none" stroke="#e6e9ef" stroke-width="0.12" opacity="1"/><path d="M -3.514 3.804 A 0.968 0.968 0 0 1 -3.847 3.446" fill="none" stroke="#e6e9ef" stroke-width="0.12" opacity="1"/><path d="M -3.514 4.285 A 1.409 1.409 0 0 1 -4.023 3.809" fill="none" stroke="#e6e9ef" stroke-width="0.12" opacity="1"/><path d="M -3.514 4.285 A 1.409 1.409 0 0 1 -4.023 3.809" fill="none" stroke="#e6e9ef" stroke-width="0.12" opacity="1"/><path d="M -2.885 -1.189 A 0.700 0.700 0 0 1 -1.500 -1.043" fill="none" stroke="#e6e9ef" stroke-width="0.12" opacity="1"/><path d="M -2.052 3.033 A 1.359 1.359 0 1 1 -3.398 3.033" fill="none" stroke="#e6e9ef" stroke-width="0.12" opacity="1"/><path d="M -1.936 4.285 A 1.106 1.106 0 0 1 -3.514 4.285" fill="none" stroke="#e6e9ef" stroke-width="0.12" opacity="1"/><path d="M -1.603 3.446 A 0.968 0.968 0 0 1 -1.936 3.804" fill="none" stroke="#e6e9ef" stroke-width="0.12" opacity="1"/><path d="M -1.427 3.809 A 1.409 1.409 0 0 1 -1.936 4.285" fill="none" stroke="#e6e9ef" stroke-width="0.12" opacity="1"/><path d="M -1.427 3.809 A 1.409 1.409 0 0 1 -1.936 4.285" fill="none" stroke="#e6e9ef" stroke-width="0.12" opacity="1"/><path d="M 1.486 3.804 A 0.968 0.968 0 0 1 1.153 3.446" fill="none" stroke="#e6e9ef" stroke-width="0.12" opacity="1"/><path d="M 1.486 4.285 A 1.409 1.409 0 0 1 0.977 3.809" fill="none" stroke="#e6e9ef" stroke-width="0.12" opacity="1"/><path d="M 1.486 4.285 A 1.409 1.409 0 0 1 0.977 3.809" fill="none" stroke="#e6e9ef" stroke-width="0.12" opacity="1"/><path d="M 2.115 -1.189 A 0.700 0.700 0 0 1 3.500 -1.043" fill="none" stroke="#e6e9ef" stroke-width="0.12" opacity="1"/><path d="M 2.948 3.033 A 1.359 1.359 0 1 1 1.602 3.033" fill="none" stroke="#e6e9ef" stroke-width="0.12" opacity="1"/><path d="M 3.064 4.285 A 1.106 1.106 0 0 1 1.486 4.285" fill="none" stroke="#e6e9ef" stroke-width="0.12" opacity="1"/><path d="M 3.397 3.446 A 0.968 0.968 0 0 1 3.064 3.804" fill="none" stroke="#e6e9ef" stroke-width="0.12" opacity="1"/><path d="M 3.573 3.809 A 1.409 1.409 0 0 1 3.064 4.285" fill="none" stroke="#e6e9ef" stroke-width="0.12" opacity="1"/><path d="M 3.573 3.809 A 1.409 1.409 0 0 1 3.064 4.285" fill="none" stroke="#e6e9ef" stroke-width="0.12" opacity="1"/><path d="M 6.486 3.804 A 0.968 0.968 0 0 1 6.153 3.446" fill="none" stroke="#e6e9ef" stroke-width="0.12" opacity="1"/><path d="M 6.486 4.285 A 1.409 1.409 0 0 1 5.977 3.809" fill="none" stroke="#e6e9ef" stroke-width="0.12" opacity="1"/><path d="M 6.486 4.285 A 1.409 1.409 0 0 1 5.977 3.809" fill="none" stroke="#e6e9ef" stroke-width="0.12" opacity="1"/><path d="M 7.115 -1.189 A 0.700 0.700 0 0 1 8.500 -1.043" fill="none" stroke="#e6e9ef" stroke-width="0.12" opacity="1"/><path d="M 7.948 3.033 A 1.359 1.359 0 1 1 6.602 3.033" fill="none" stroke="#e6e9ef" stroke-width="0.12" opacity="1"/><path d="M 8.064 4.285 A 1.106 1.106 0 0 1 6.486 4.285" fill="none" stroke="#e6e9ef" stroke-width="0.12" opacity="1"/><path d="M 8.397 3.446 A 0.968 0.968 0 0 1 8.064 3.804" fill="none" stroke="#e6e9ef" stroke-width="0.12" opacity="1"/><path d="M 8.573 3.809 A 1.409 1.409 0 0 1 8.064 4.285" fill="none" stroke="#e6e9ef" stroke-width="0.12" opacity="1"/><path d="M 8.573 3.809 A 1.409 1.409 0 0 1 8.064 4.285" fill="none" stroke="#e6e9ef" stroke-width="0.12" opacity="1"/><path d="M 11.486 3.804 A 0.968 0.968 0 0 1 11.153 3.446" fill="none" stroke="#e6e9ef" stroke-width="0.12" opacity="1"/><path d="M 11.486 4.285 A 1.409 1.409 0 0 1 10.977 3.809" fill="none" stroke="#e6e9ef" stroke-width="0.12" opacity="1"/><path d="M 11.486 4.285 A 1.409 1.409 0 0 1 10.977 3.809" fill="none" stroke="#e6e9ef" stroke-width="0.12" opacity="1"/><path d="M 12.115 -1.189 A 0.700 0.700 0 0 1 13.500 -1.043" fill="none" stroke="#e6e9ef" stroke-width="0.12" opacity="1"/><path d="M 12.948 3.033 A 1.359 1.359 0 1 1 11.602 3.033" fill="none" stroke="#e6e9ef" stroke-width="0.12" opacity="1"/><path d="M 13.064 4.285 A 1.106 1.106 0 0 1 11.486 4.285" fill="none" stroke="#e6e9ef" stroke-width="0.12" opacity="1"/><path d="M 13.397 3.446 A 0.968 0.968 0 0 1 13.064 3.804" fill="none" stroke="#e6e9ef" stroke-width="0.12" opacity="1"/><path d="M 13.573 3.809 A 1.409 1.409 0 0 1 13.064 4.285" fill="none" stroke="#e6e9ef" stroke-width="0.12" opacity="1"/><path d="M 13.573 3.809 A 1.409 1.409 0 0 1 13.064 4.285" fill="none" stroke="#e6e9ef" stroke-width="0.12" opacity="1"/><path d="M 16.486 3.804 A 0.968 0.968 0 0 1 16.153 3.446" fill="none" stroke="#e6e9ef" stroke-width="0.12" opacity="1"/><path d="M 16.486 4.285 A 1.409 1.409 0 0 1 15.977 3.809" fill="none" stroke="#e6e9ef" stroke-width="0.12" opacity="1"/><path d="M 16.486 4.285 A 1.409 1.409 0 0 1 15.977 3.809" fill="none" stroke="#e6e9ef" stroke-width="0.12" opacity="1"/><path d="M 17.115 -1.189 A 0.700 0.700 0 0 1 18.500 -1.043" fill="none" stroke="#e6e9ef" stroke-width="0.12" opacity="1"/><path d="M 17.948 3.033 A 1.359 1.359 0 1 1 16.602 3.033" fill="none" stroke="#e6e9ef" stroke-width="0.12" opacity="1"/><path d="M 18.064 4.285 A 1.106 1.106 0 0 1 16.486 4.285" fill="none" stroke="#e6e9ef" stroke-width="0.12" opacity="1"/><path d="M 18.397 3.446 A 0.968 0.968 0 0 1 18.064 3.804" fill="none" stroke="#e6e9ef" stroke-width="0.12" opacity="1"/><path d="M 18.573 3.809 A 1.409 1.409 0 0 1 18.064 4.285" fill="none" stroke="#e6e9ef" stroke-width="0.12" opacity="1"/><path d="M 18.573 3.809 A 1.409 1.409 0 0 1 18.064 4.285" fill="none" stroke="#e6e9ef" stroke-width="0.12" opacity="1"/><path d="M -18.514 3.804 A 0.968 0.968 0 0 1 -18.847 3.446" fill="none" stroke="#6b7280" stroke-width="0.12" opacity="0.8"/><path d="M -18.514 4.285 A 1.409 1.409 0 0 1 -19.023 3.809" fill="none" stroke="#6b7280" stroke-width="0.12" opacity="0.8"/><path d="M -18.514 4.285 A 1.409 1.409 0 0 1 -19.023 3.809" fill="none" stroke="#6b7280" stroke-width="0.12" opacity="0.8"/><path d="M -17.900 -1.043 A 0.700 0.700 0 1 1 -16.500 -1.043" fill="none" stroke="#6b7280" stroke-width="0.12" opacity="0.8"/><path d="M -17.052 3.033 A 1.359 1.359 0 1 1 -18.398 3.033" fill="none" stroke="#6b7280" stroke-width="0.12" opacity="0.8"/><path d="M -16.936 4.285 A 1.106 1.106 0 0 1 -18.514 4.285" fill="none" stroke="#6b7280" stroke-width="0.12" opacity="0.8"/><path d="M -16.603 3.446 A 0.968 0.968 0 0 1 -16.936 3.804" fill="none" stroke="#6b7280" stroke-width="0.12" opacity="0.8"/><path d="M -16.427 3.809 A 1.409 1.409 0 0 1 -16.936 4.285" fill="none" stroke="#6b7280" stroke-width="0.12" opacity="0.8"/><path d="M -16.427 3.809 A 1.409 1.409 0 0 1 -16.936 4.285" fill="none" stroke="#6b7280" stroke-width="0.12" opacity="0.8"/><path d="M -13.514 3.804 A 0.968 0.968 0 0 1 -13.847 3.446" fill="none" stroke="#6b7280" stroke-width="0.12" opacity="0.8"/><path d="M -13.514 4.285 A 1.409 1.409 0 0 1 -14.023 3.809" fill="none" stroke="#6b7280" stroke-width="0.12" opacity="0.8"/><path d="M -13.514 4.285 A 1.409 1.409 0 0 1 -14.023 3.809" fill="none" stroke="#6b7280" stroke-width="0.12" opacity="0.8"/><path d="M -12.900 -1.043 A 0.700 0.700 0 1 1 -11.500 -1.043" fill="none" stroke="#6b7280" stroke-width="0.12" opacity="0.8"/><path d="M -12.052 3.033 A 1.359 1.359 0 1 1 -13.398 3.033" fill="none" stroke="#6b7280" stroke-width="0.12" opacity="0.8"/><path d="M -11.936 4.285 A 1.106 1.106 0 0 1 -13.514 4.285" fill="none" stroke="#6b7280" stroke-width="0.12" opacity="0.8"/><path d="M -11.603 3.446 A 0.968 0.968 0 0 1 -11.936 3.804" fill="none" stroke="#6b7280" stroke-width="0.12" opacity="0.8"/><path d="M -11.427 3.809 A 1.409 1.409 0 0 1 -11.936 4.285" fill="none" stroke="#6b7280" stroke-width="0.12" opacity="0.8"/><path d="M -11.427 3.809 A 1.409 1.409 0 0 1 -11.936 4.285" fill="none" stroke="#6b7280" stroke-width="0.12" opacity="0.8"/><path d="M -8.514 3.804 A 0.968 0.968 0 0 1 -8.847 3.446" fill="none" stroke="#6b7280" stroke-width="0.12" opacity="0.8"/><path d="M -8.514 4.285 A 1.409 1.409 0 0 1 -9.023 3.809" fill="none" stroke="#6b7280" stroke-width="0.12" opacity="0.8"/><path d="M -8.514 4.285 A 1.409 1.409 0 0 1 -9.023 3.809" fill="none" stroke="#6b7280" stroke-width="0.12" opacity="0.8"/><path d="M -7.900 -1.043 A 0.700 0.700 0 0 1 -6.500 -1.043" fill="none" stroke="#6b7280" stroke-width="0.12" opacity="0.8"/><path d="M -7.052 3.033 A 1.359 1.359 0 1 1 -8.398 3.033" fill="none" stroke="#6b7280" stroke-width="0.12" opacity="0.8"/><path d="M -6.936 4.285 A 1.106 1.106 0 0 1 -8.514 4.285" fill="none" stroke="#6b7280" stroke-width="0.12" opacity="0.8"/><path d="M -6.603 3.446 A 0.968 0.968 0 0 1 -6.936 3.804" fill="none" stroke="#6b7280" stroke-width="0.12" opacity="0.8"/><path d="M -6.427 3.809 A 1.409 1.409 0 0 1 -6.936 4.285" fill="none" stroke="#6b7280" stroke-width="0.12" opacity="0.8"/><path d="M -6.427 3.809 A 1.409 1.409 0 0 1 -6.936 4.285" fill="none" stroke="#6b7280" stroke-width="0.12" opacity="0.8"/><path d="M -3.514 3.804 A 0.968 0.968 0 0 1 -3.847 3.446" fill="none" stroke="#6b7280" stroke-width="0.12" opacity="0.8"/><path d="M -3.514 4.285 A 1.409 1.409 0 0 1 -4.023 3.809" fill="none" stroke="#6b7280" stroke-width="0.12" opacity="0.8"/><path d="M -3.514 4.285 A 1.409 1.409 0 0 1 -4.023 3.809" fill="none" stroke="#6b7280" stroke-width="0.12" opacity="0.8"/><path d="M -2.900 -1.043 A 0.700 0.700 0 0 1 -1.500 -1.043" fill="none" stroke="#6b7280" stroke-width="0.12" opacity="0.8"/><path d="M -2.052 3.033 A 1.359 1.359 0 1 1 -3.398 3.033" fill="none" stroke="#6b7280" stroke-width="0.12" opacity="0.8"/><path d="M -1.936 4.285 A 1.106 1.106 0 0 1 -3.514 4.285" fill="none" stroke="#6b7280" stroke-width="0.12" opacity="0.8"/><path d="M -1.603 3.446 A 0.968 0.968 0 0 1 -1.936 3.804" fill="none" stroke="#6b7280" stroke-width="0.12" opacity="0.8"/><path d="M -1.427 3.809 A 1.409 1.409 0 0 1 -1.936 4.285" fill="none" stroke="#6b7280" stroke-width="0.12" opacity="0.8"/><path d="M -1.427 3.809 A 1.409 1.409 0 0 1 -1.936 4.285" fill="none" stroke="#6b7280" stroke-width="0.12" opacity="0.8"/><path d="M 1.486 3.804 A 0.968 0.968 0 0 1 1.153 3.446" fill="none" stroke="#6b7280" stroke-width="0.12" opacity="0.8"/><path d="M 1.486 4.285 A 1.409 1.409 0 0 1 0.977 3.809" fill="none" stroke="#6b7280" stroke-width="0.12" opacity="0.8"/><path d="M 1.486 4.285 A 1.409 1.409 0 0 1 0.977 3.809" fill="none" stroke="#6b7280" stroke-width="0.12" opacity="0.8"/><path d="M 2.100 -1.043 A 0.700 0.700 0 1 1 3.500 -1.043" fill="none" stroke="#6b7280" stroke-width="0.12" opacity="0.8"/><path d="M 2.948 3.033 A 1.359 1.359 0 1 1 1.602 3.033" fill="none" stroke="#6b7280" stroke-width="0.12" opacity="0.8"/><path d="M 3.064 4.285 A 1.106 1.106 0 0 1 1.486 4.285" fill="none" stroke="#6b7280" stroke-width="0.12" opacity="0.8"/><path d="M 3.397 3.446 A 0.968 0.968 0 0 1 3.064 3.804" fill="none" stroke="#6b7280" stroke-width="0.12" opacity="0.8"/><path d="M 3.573 3.809 A 1.409 1.409 0 0 1 3.064 4.285" fill="none" stroke="#6b7280" stroke-width="0.12" opacity="0.8"/><path d="M 3.573 3.809 A 1.409 1.409 0 0 1 3.064 4.285" fill="none" stroke="#6b7280" stroke-width="0.12" opacity="0.8"/><path d="M 6.486 3.804 A 0.968 0.968 0 0 1 6.153 3.446" fill="none" stroke="#6b7280" stroke-width="0.12" opacity="0.8"/><path d="M 6.486 4.285 A 1.409 1.409 0 0 1 5.977 3.809" fill="none" stroke="#6b7280" stroke-width="0.12" opacity="0.8"/><path d="M 6.486 4.285 A 1.409 1.409 0 0 1 5.977 3.809" fill="none" stroke="#6b7280" stroke-width="0.12" opacity="0.8"/><path d="M 7.100 -1.043 A 0.700 0.700 0 0 1 8.500 -1.043" fill="none" stroke="#6b7280" stroke-width="0.12" opacity="0.8"/><path d="M 7.948 3.033 A 1.359 1.359 0 1 1 6.602 3.033" fill="none" stroke="#6b7280" stroke-width="0.12" opacity="0.8"/><path d="M 8.064 4.285 A 1.106 1.106 0 0 1 6.486 4.285" fill="none" stroke="#6b7280" stroke-width="0.12" opacity="0.8"/><path d="M 8.397 3.446 A 0.968 0.968 0 0 1 8.064 3.804" fill="none" stroke="#6b7280" stroke-width="0.12" opacity="0.8"/><path d="M 8.573 3.809 A 1.409 1.409 0 0 1 8.064 4.285" fill="none" stroke="#6b7280" stroke-width="0.12" opacity="0.8"/><path d="M 8.573 3.809 A 1.409 1.409 0 0 1 8.064 4.285" fill="none" stroke="#6b7280" stroke-width="0.12" opacity="0.8"/><path d="M 11.486 3.804 A 0.968 0.968 0 0 1 11.153 3.446" fill="none" stroke="#6b7280" stroke-width="0.12" opacity="0.8"/><path d="M 11.486 4.285 A 1.409 1.409 0 0 1 10.977 3.809" fill="none" stroke="#6b7280" stroke-width="0.12" opacity="0.8"/><path d="M 11.486 4.285 A 1.409 1.409 0 0 1 10.977 3.809" fill="none" stroke="#6b7280" stroke-width="0.12" opacity="0.8"/><path d="M 12.100 -1.043 A 0.700 0.700 0 1 1 13.500 -1.043" fill="none" stroke="#6b7280" stroke-width="0.12" opacity="0.8"/><path d="M 12.948 3.033 A 1.359 1.359 0 1 1 11.602 3.033" fill="none" stroke="#6b7280" stroke-width="0.12" opacity="0.8"/><path d="M 13.064 4.285 A 1.106 1.106 0 0 1 11.486 4.285" fill="none" stroke="#6b7280" stroke-width="0.12" opacity="0.8"/><path d="M 13.397 3.446 A 0.968 0.968 0 0 1 13.064 3.804" fill="none" stroke="#6b7280" stroke-width="0.12" opacity="0.8"/><path d="M 13.573 3.809 A 1.409 1.409 0 0 1 13.064 4.285" fill="none" stroke="#6b7280" stroke-width="0.12" opacity="0.8"/><path d="M 13.573 3.809 A 1.409 1.409 0 0 1 13.064 4.285" fill="none" stroke="#6b7280" stroke-width="0.12" opacity="0.8"/><path d="M 16.486 3.804 A 0.968 0.968 0 0 1 16.153 3.446" fill="none" stroke="#6b7280" stroke-width="0.12" opacity="0.8"/><path d="M 16.486 4.285 A 1.409 1.409 0 0 1 15.977 3.809" fill="none" stroke="#6b7280" stroke-width="0.12" opacity="0.8"/><path d="M 16.486 4.285 A 1.409 1.409 0 0 1 15.977 3.809" fill="none" stroke="#6b7280" stroke-width="0.12" opacity="0.8"/><path d="M 17.100 -1.043 A 0.700 0.700 0 1 1 18.500 -1.043" fill="none" stroke="#6b7280" stroke-width="0.12" opacity="0.8"/><path d="M 17.948 3.033 A 1.359 1.359 0 1 1 16.602 3.033" fill="none" stroke="#6b7280" stroke-width="0.12" opacity="0.8"/><path d="M 18.064 4.285 A 1.106 1.106 0 0 1 16.486 4.285" fill="none" stroke="#6b7280" stroke-width="0.12" opacity="0.8"/><path d="M 18.397 3.446 A 0.968 0.968 0 0 1 18.064 3.804" fill="none" stroke="#6b7280" stroke-width="0.12" opacity="0.8"/><path d="M 18.573 3.809 A 1.409 1.409 0 0 1 18.064 4.285" fill="none" stroke="#6b7280" stroke-width="0.12" opacity="0.8"/><path d="M 18.573 3.809 A 1.409 1.409 0 0 1 18.064 4.285" fill="none" stroke="#6b7280" stroke-width="0.12" opacity="0.8"/><rect x="-18.400" y="-0.900" width="1.800" height="1.800" rx="0.900" fill="#c79b5c"/><circle cx="-17.500" cy="0.000" r="0.550" fill="#12151c"/><rect x="-13.400" y="-0.900" width="1.800" height="1.800" rx="0.900" fill="#c79b5c"/><circle cx="-12.500" cy="0.000" r="0.550" fill="#12151c"/><rect x="-8.400" y="-0.900" width="1.800" height="1.800" rx="0.900" fill="#c79b5c"/><circle cx="-7.500" cy="0.000" r="0.550" fill="#12151c"/><rect x="-3.400" y="-0.900" width="1.800" height="1.800" rx="0.900" fill="#c79b5c"/><circle cx="-2.500" cy="0.000" r="0.550" fill="#12151c"/><rect x="1.600" y="-0.900" width="1.800" height="1.800" rx="0.900" fill="#c79b5c"/><circle cx="2.500" cy="0.000" r="0.550" fill="#12151c"/><rect x="6.600" y="-0.900" width="1.800" height="1.800" rx="0.900" fill="#c79b5c"/><circle cx="7.500" cy="0.000" r="0.550" fill="#12151c"/><rect x="11.600" y="-0.900" width="1.800" height="1.800" rx="0.900" fill="#c79b5c"/><circle cx="12.500" cy="0.000" r="0.550" fill="#12151c"/><rect x="16.600" y="-0.900" width="1.800" height="1.800" rx="0.900" fill="#c79b5c"/><circle cx="17.500" cy="0.000" r="0.550" fill="#12151c"/><polygon points="-17.95,1.95 -17.05,1.95 -17.50,1.35" fill="#ffffff"/></svg>