<svg xmlns="http://www.w3.org/2000/svg" viewBox="-10.62 -8.20 21.24 28.05" preserveAspectRatio="xMidYMid meet" style="width:100%;height:100%"><rect x="-10.62" y="-8.20" width="21.24" height="28.05" fill="#12151c"/><line x1="-9.620" y1="-7.200" x2="9.620" y2="-7.200" stroke="#d24d4d" stroke-width="0.080" stroke-linecap="round" opacity="0.7"/><line x1="9.620" y1="-7.200" x2="9.620" y2="18.850" stroke="#d24d4d" stroke-width="0.080" stroke-linecap="round" opacity="0.7"/><line x1="9.620" y1="18.850" x2="-9.620" y2="18.850" stroke="#d24d4d" stroke-width="0.080" stroke-linecap="round" opacity="0.7"/><line x1="-9.620" y1="18.850" x2="-9.620" y2="-7.200" stroke="#d24d4d" stroke-width="0.080" stroke-linecap="round" opacity="0.7"/><path d="M -8.964 11.051 A 0.208 0.208 0 0 1 -8.944 11.189" fill="none" stroke="#e6e9ef" stroke-width="0.12" opacity="1"/><path d="M -8.094 17.439 A 9.348 9.348 0 0 1 -9.136 11.153" fill="none" stroke="#e6e9ef" stroke-width="0.12" opacity="1"/><path d="M -8.094 -6.545 A 0.300 0.300 0 0 1 -7.794 -6.845" fill="none" stroke="#e6e9ef" stroke-width="0.12" opacity="1"/><path d="M -8.094 17.019 A 9.118 9.118 0 0 1 -8.944 11.189" fill="none" stroke="#e6e9ef" stroke-width="0.12" opacity="1"/><path d="M -7.794 18.452 A 0.300 0.300 0 0 1 -8.094 18.152" fill="none" stroke="#e6e9ef" stroke-width="0.12" opacity="1"/><path d="M -5.837 18.600 A 0.998 0.998 0 0 1 -6.371 18.452" fill="none" stroke="#e6e9ef" stroke-width="0.12" opacity="1"/><path d="M -5.739 10.964 A 0.240 0.240 0 0 1 -5.513 10.754" fill="none" stroke="#e6e9ef" stroke-width="0.12" opacity="1"/><path d="M -5.736 10.089 A 0.249 0.249 0 0 1 -5.485 9.852" fill="none" stroke="#e6e9ef" stroke-width="0.12" opacity="1"/><path d="M -5.732 10.854 A 0.245 0.245 0 0 1 -5.501 10.652" fill="none" stroke="#e6e9ef" stroke-width="0.12" opacity="1"/><path d="M -4.313 10.652 A 0.245 0.245 0 0 1 -4.061 10.854" fill="none" stroke="#e6e9ef" stroke-width="0.12" opacity="1"/><path d="M -4.310 9.852 A 0.249 0.249 0 0 1 -4.060 10.089" fill="none" stroke="#e6e9ef" stroke-width="0.12" opacity="1"/><path d="M -4.305 10.754 A 0.240 0.240 0 0 1 -4.054 10.964" fill="none" stroke="#e6e9ef" stroke-width="0.12" opacity="1"/><path d="M -4.128 18.452 A 0.998 0.998 0 0 1 -4.650 18.600" fill="none" stroke="#e6e9ef" stroke-width="0.12" opacity="1"/><path d="M 4.053 10.964 A 0.240 0.240 0 0 1 4.303 10.754" fill="none" stroke="#e6e9ef" stroke-width="0.12" opacity="1"/><path d="M 4.058 10.089 A 0.249 0.249 0 0 1 4.308 9.852" fill="none" stroke="#e6e9ef" stroke-width="0.12" opacity="1"/><path d="M 4.059 10.854 A 0.245 0.245 0 0 1 4.311 10.652" fill="none" stroke="#e6e9ef" stroke-width="0.12" opacity="1"/><path d="M 4.651 18.600 A 0.995 0.995 0 0 1 4.129 18.452" fill="none" stroke="#e6e9ef" stroke-width="0.12" opacity="1"/><path d="M 5.484 9.852 A 0.249 0.249 0 0 1 5.734 10.089" fill="none" stroke="#e6e9ef" stroke-width="0.12" opacity="1"/><path d="M 5.499 10.652 A 0.245 0.245 0 0 1 5.730 10.854" fill="none" stroke="#e6e9ef" stroke-width="0.12" opacity="1"/><path d="M 5.511 10.754 A 0.240 0.240 0 0 1 5.737 10.964" fill="none" stroke="#e6e9ef" stroke-width="0.12" opacity="1"/><path d="M 6.372 18.452 A 0.998 0.998 0 0 1 5.850 18.600" fill="none" stroke="#e6e9ef" stroke-width="0.12" opacity="1"/><path d="M 7.792 -6.845 A 0.300 0.300 0 0 1 8.092 -6.545" fill="none" stroke="#e6e9ef" stroke-width="0.12" opacity="1"/><path d="M 8.092 18.152 A 0.300 0.300 0 0 1 7.792 18.452" fill="none" stroke="#e6e9ef" stroke-width="0.12" opacity="1"/><path d="M 8.945 11.184 A 0.208 0.208 0 0 1 8.965 11.046" fill="none" stroke="#e6e9ef" stroke-width="0.12" opacity="1"/><path d="M 8.945 11.184 A 9.118 9.118 0 0 1 8.095 17.014" fill="none" stroke="#e6e9ef" stroke-width="0.12" opacity="1"/><path d="M 9.137 11.148 A 9.348 9.348 0 0 1 8.095 17.434" fill="none" stroke="#e6e9ef" stroke-width="0.12" opacity="1"/><path d="M -8.964 11.051 A 0.208 0.208 0 0 1 -8.944 11.189" fill="none" stroke="#6b7280" stroke-width="0.12" opacity="0.8"/><path d="M -8.094 17.019 A 9.118 9.118 0 0 1 -8.944 11.189" fill="none" stroke="#6b7280" stroke-width="0.12" opacity="0.8"/><path d="M -8.094 17.439 A 9.348 9.348 0 0 1 -9.136 11.153" fill="none" stroke="#6b7280" stroke-width="0.12" opacity="0.8"/><path d="M -8.094 -6.545 A 0.300 0.300 0 0 1 -7.794 -6.845" fill="none" stroke="#6b7280" stroke-width="0.12" opacity="0.8"/><path d="M -7.794 18.452 A 0.300 0.300 0 0 1 -8.094 18.152" fill="none" stroke="#6b7280" stroke-width="0.12" opacity="0.8"/><path d="M -5.837 18.600 A 0.998 0.998 0 0 1 -6.371 18.452" fill="none" stroke="#6b7280" stroke-width="0.12" opacity="0.8"/><path d="M -5.739 10.964 A 0.240 0.240 0 0 1 -5.513 10.754" fill="none" stroke="#6b7280" stroke-width="0.12" opacity="0.8"/><path d="M -5.736 10.089 A 0.249 0.249 0 0 1 -5.485 9.852" fill="none" stroke="#6b7280" stroke-width="0.12" opacity="0.8"/><path d="M -5.732 10.854 A 0.245 0.245 0 0 1 -5.501 10.652" fill="none" stroke="#6b7280" stroke-width="0.12" opacity="0.8"/><path d="M -4.313 10.652 A 0.245 0.245 0 0 1 -4.061 10.854" fill="none" stroke="#6b7280" stroke-width="0.12" opacity="0.8"/><path d="M -4.310 9.852 A 0.249 0.249 0 0 1 -4.060 10.089" fill="none" stroke="#6b7280" stroke-width="0.12" opacity="0.8"/><path d="M -4.305 10.754 A 0.240 0.240 0 0 1 -4.054 10.964" fill="none" stroke="#6b7280" stroke-width="0.12" opacity="0.8"/><path d="M -4.128 18.452 A 0.998 0.998 0 0 1 -4.650 18.600" fill="none" stroke="#6b7280" stroke-width="0.12" opacity="0.8"/><path d="M 4.053 10.964 A 0.240 0.240 0 0 1 4.303 10.754" fill="none" stroke="#6b7280" stroke-width="0.12" opacity="0.8"/><path d="M 4.058 10.089 A 0.249 0.249 0 0 1 4.308 9.852" fill="none" stroke="#6b7280" stroke-width="0.12" opacity="0.8"/><path d="M 4.059 10.854 A 0.245 0.245 0 0 1 4.311 10.652" fill="none" stroke="#6b7280" stroke-width="0.12" opacity="0.8"/><path d="M 4.651 18.600 A 0.995 0.995 0 0 1 4.129 18.452" fill="none" stroke="#6b7280" stroke-width="0.12" opacity="0.8"/><path d="M 5.484 9.852 A 0.249 0.249 0 0 1 5.734 10.089" fill="none" stroke="#6b7280" stroke-width="0.12" opacity="0.8"/><path d="M 5.499 10.652 A 0.245 0.245 0 0 1 5.730 10.854" fill="none" stroke="#6b7280" stroke-width="0.12" opacity="0.8"/><path d="M 5.511 10.754 A 0.240 0.240 0 0 1 5.737 10.964" fill="none" stroke="#6b7280" stroke-width="0.12" opacity="0.8"/><path d="M 6.372 18.452 A 0.998 0.998 0 0 1 5.850 18.600" fill="none" stroke="#6b7280" stroke-width="0.12" opacity="0.8"/><path d="M 7.792 -6.845 A 0.300 0.300 0 0 1 8.092 -6.545" fill="none" stroke="#6b7280" stroke-width="0.12" opacity="0.8"/><path d="M 8.092 18.152 A 0.300 0.300 0 0 1 7.792 18.452" fill="none" stroke="#6b7280" stroke-width="0.12" opacity="0.8"/><path d="M 8.942 11.189 A 0.208 0.208 0 0 1 8.963 11.051" fill="none" stroke="#6b7280" stroke-width="0.12" opacity="0.8"/><path d="M 8.942 11.189 A 9.118 9.118 0 0 1 8.092 17.019" fill="none" stroke="#6b7280" stroke-width="0.12" opacity="0.8"/><path d="M 9.135 11.153 A 9.348 9.348 0 0 1 8.092 17.439" fill="none" stroke="#6b7280" stroke-width="0.12" opacity="0.8"/><rect x="3.645" y="-2.070" width="1.600" height="1.600" rx="0.800" fill="#c79b5c"/><circle cx="4.445" cy="-1.270" r="0.450" fill="#12151c"/><rect x="2.375" y="0.470" width="1.600" height="1.600" rx="0.800" fill="#c79b5c"/><circle cx="3.175" cy="1.270" r="0.450" fill="#12151c"/><rect x="1.105" y="-2.070" width="1.600" height="1.600" rx="0.800" fill="#c79b5c"/><circle cx="1.905" cy="-1.270" r="0.450" fill="#12151c"/><rect x="-0.165" y="0.470" width="1.600" height="1.600" rx="0.800" fill="#c79b5c"/><circle cx="0.635" cy="1.270" r="0.450" fill="#12151c"/><rect x="-1.435" y="-2.070" width="1.600" height="1.600" rx="0.800" fill="#c79b5c"/><circle cx="-0.635" cy="-1.270" r="0.450" fill="#12151c"/><rect x="-2.705" y="0.470" width="1.600" height="1.600" rx="0.800" fill="#c79b5c"/><circle cx="-1.905" cy="1.270" r="0.450" fill="#12151c"/><rect x="-3.975" y="-2.070" width="1.600" height="1.600" rx="0.800" fill="#c79b5c"/><circle cx="-3.175" cy="-1.270" r="0.450" fill="#12151c"/><rect x="-5.245" y="0.470" width="1.600" height="1.600" rx="0.800" fill="#c79b5c"/><circle cx="-4.445" cy="1.270" r="0.450" fill="#12151c"/><rect x="4.615" y="-6.946" width="1.700" height="1.700" rx="0.850" fill="#c79b5c"/><circle cx="5.465" cy="-6.096" r="0.500" fill="#12151c"/><rect x="2.075" y="-6.946" width="1.700" height="1.700" rx="0.850" fill="#c79b5c"/><circle cx="2.925" cy="-6.096" r="0.500" fill="#12151c"/><rect x="-3.775" y="-6.946" width="1.700" height="1.700" rx="0.850" fill="#c79b5c"/><circle cx="-2.925" cy="-6.096" r="0.500" fill="#12151c"/><rect x="-6.315" y="-6.946" width="1.700" height="1.700" rx="0.850" fill="#c79b5c"/><circle cx="-5.465" cy="-6.096" r="0.500" fill="#12151c"/><rect x="-6.215" y="7.120" width="1.000" height="1.000" rx="0.500" fill="#c79b5c"/><circle cx="-5.715" cy="7.620" r="1.650" fill="#12151c"/><rect x="5.215" y="7.120" width="1.000" height="1.000" rx="0.500" fill="#c79b5c"/><circle cx="5.715" cy="7.620" r="1.625" fill="#12151c"/><rect x="-9.151" y="3.422" width="2.300" height="2.300" rx="1.150" fill="#c79b5c"/><circle cx="-8.001" cy="4.572" r="0.800" fill="#12151c"/><rect x="6.851" y="3.422" width="2.300" height="2.300" rx="1.150" fill="#c79b5c"/><circle cx="8.001" cy="4.572" r="0.800" fill="#12151c"/></svg>