<svg xmlns="http://www.w3.org/2000/svg" viewBox="-6.20 -11.14 34.89 22.28" preserveAspectRatio="xMidYMid meet" style="width:100%;height:100%"><rect x="-6.20" y="-11.14" width="34.89" height="22.28" fill="#12151c"/><line x1="-3.590" y1="-10.140" x2="27.690" y2="-10.140" stroke="#d24d4d" stroke-width="0.080" stroke-linecap="round" opacity="0.7"/><line x1="27.690" y1="-10.140" x2="27.690" y2="10.140" stroke="#d24d4d" stroke-width="0.080" stroke-linecap="round" opacity="0.7"/><line x1="27.690" y1="10.140" x2="-3.590" y2="10.140" stroke="#d24d4d" stroke-width="0.080" stroke-linecap="round" opacity="0.7"/><line x1="-3.590" y1="10.140" x2="-3.590" y2="-10.140" stroke="#d24d4d" stroke-width="0.080" stroke-linecap="round" opacity="0.7"/><path d="M 4.264 2.873 A 4.500 4.500 0 1 1 4.264 -2.873" fill="none" stroke="#e6e9ef" stroke-width="0.12" opacity="1"/><path d="M 5.140 4.143 A 6.000 6.000 0 1 1 5.140 -4.143" fill="none" stroke="#e6e9ef" stroke-width="0.12" opacity="1"/><path d="M 8.440 -0.500 A 0.500 0.500 0 0 1 8.940 -1.000" fill="none" stroke="#e6e9ef" stroke-width="0.12" opacity="1"/><path d="M 8.940 1.000 A 0.500 0.500 0 0 1 8.440 0.500" fill="none" stroke="#e6e9ef" stroke-width="0.12" opacity="1"/><path d="M 23.540 -3.664 A 0.127 0.127 0 0 1 23.667 -3.790" fill="none" stroke="#e6e9ef" stroke-width="0.12" opacity="1"/><path d="M 23.667 3.790 A 0.127 0.127 0 0 1 23.540 3.664" fill="none" stroke="#e6e9ef" stroke-width="0.12" opacity="1"/><path d="M -2.540 0.400 A 0.400 0.400 0 0 1 -2.540 -0.400" fill="none" stroke="#6b7280" stroke-width="0.12" opacity="0.8"/><path d="M -0.400 -2.538 A 0.400 0.400 0 0 1 0.220 -2.874" fill="none" stroke="#6b7280" stroke-width="0.12" opacity="0.8"/><path d="M -0.400 2.477 A 0.404 0.404 0 0 1 0.004 2.073" fill="none" stroke="#6b7280" stroke-width="0.12" opacity="0.8"/><path d="M 0.004 -2.073 A 0.404 0.404 0 0 1 -0.400 -2.477" fill="none" stroke="#6b7280" stroke-width="0.12" opacity="0.8"/><path d="M 0.220 2.874 A 0.400 0.400 0 0 1 -0.400 2.538" fill="none" stroke="#6b7280" stroke-width="0.12" opacity="0.8"/><path d="M 2.140 1.613 A 0.484 0.484 0 0 1 2.624 1.128" fill="none" stroke="#6b7280" stroke-width="0.12" opacity="0.8"/><path d="M 2.315 -2.873 A 0.402 0.402 0 0 1 2.765 -2.873" fill="none" stroke="#6b7280" stroke-width="0.12" opacity="0.8"/><path d="M 2.624 -1.128 A 0.484 0.484 0 0 1 2.140 -1.613" fill="none" stroke="#6b7280" stroke-width="0.12" opacity="0.8"/><path d="M 2.765 2.873 A 0.402 0.402 0 0 1 2.315 2.873" fill="none" stroke="#6b7280" stroke-width="0.12" opacity="0.8"/><path d="M 4.264 2.873 A 4.500 4.500 0 1 1 4.264 -2.873" fill="none" stroke="#6b7280" stroke-width="0.12" opacity="0.8"/><path d="M 5.140 4.143 A 6.000 6.000 0 1 1 5.140 -4.143" fill="none" stroke="#6b7280" stroke-width="0.12" opacity="0.8"/><path d="M 8.440 -0.500 A 0.500 0.500 0 0 1 8.940 -1.000" fill="none" stroke="#6b7280" stroke-width="0.12" opacity="0.8"/><path d="M 8.940 1.000 A 0.500 0.500 0 0 1 8.440 0.500" fill="none" stroke="#6b7280" stroke-width="0.12" opacity="0.8"/><path d="M 23.540 -3.664 A 0.127 0.127 0 0 1 23.667 -3.790" fill="none" stroke="#6b7280" stroke-width="0.12" opacity="0.8"/><path d="M 23.667 3.790 A 0.127 0.127 0 0 1 23.540 3.664" fill="none" stroke="#6b7280" stroke-width="0.12" opacity="0.8"/><rect x="-3.340" y="-0.800" width="1.600" height="1.600" rx="0.800" fill="#c79b5c"/><circle cx="-2.540" cy="0.000" r="0.450" fill="#12151c"/><rect x="-0.800" y="1.740" width="1.600" height="1.600" rx="0.800" fill="#c79b5c"/><circle cx="0.000" cy="2.540" r="0.450" fill="#12151c"/><rect x="1.740" y="1.740" width="1.600" height="1.600" rx="0.800" fill="#c79b5c"/><circle cx="2.540" cy="2.540" r="0.450" fill="#12151c"/><rect x="1.740" y="-3.340" width="1.600" height="1.600" rx="0.800" fill="#c79b5c"/><circle cx="2.540" cy="-2.540" r="0.450" fill="#12151c"/><rect x="-0.800" y="-3.340" width="1.600" height="1.600" rx="0.800" fill="#c79b5c"/><circle cx="0.000" cy="-2.540" r="0.450" fill="#12151c"/></svg>