<svg xmlns="http://www.w3.org/2000/svg" viewBox="-6.58 -6.58 38.56 43.64" preserveAspectRatio="xMidYMid meet" style="width:100%;height:100%"><rect x="-6.58" y="-6.58" width="38.56" height="43.64" fill="#12151c"/><rect x="0.000" y="-0.000" width="25.400" height="30.480" fill="#1e222b" stroke="#4ea1ff" stroke-width="0.25"/><polyline points="2.540,10.160 2.540,13.970 6.350,13.970" fill="none" stroke="#4ea1ff" stroke-width="0.25" stroke-linejoin="round"/><polyline points="3.810,4.064 3.810,11.176" fill="none" stroke="#4ea1ff" stroke-width="0.25" stroke-linejoin="round"/><polyline points="3.810,5.080 0.000,5.080" fill="none" stroke="#4ea1ff" stroke-width="0.25" stroke-linejoin="round"/><polyline points="3.810,10.160 0.000,10.160" fill="none" stroke="#4ea1ff" stroke-width="0.25" stroke-linejoin="round"/><polyline points="3.810,11.176 10.160,7.620" fill="none" stroke="#4ea1ff" stroke-width="0.25" stroke-linejoin="round"/><polyline points="3.810,19.304 10.160,22.860" fill="none" stroke="#4ea1ff" stroke-width="0.25" stroke-linejoin="round"/><polyline points="3.810,20.320 0.000,20.320" fill="none" stroke="#4ea1ff" stroke-width="0.25" stroke-linejoin="round"/><polyline points="3.810,25.400 0.000,25.400" fill="none" stroke="#4ea1ff" stroke-width="0.25" stroke-linejoin="round"/><polyline points="3.810,26.416 3.810,19.304" fill="none" stroke="#4ea1ff" stroke-width="0.25" stroke-linejoin="round"/><polyline points="6.350,13.462 6.350,14.478" fill="none" stroke="#4ea1ff" stroke-width="0.25" stroke-linejoin="round"/><polyline points="6.350,14.478 8.890,14.478" fill="none" stroke="#4ea1ff" stroke-width="0.25" stroke-linejoin="round"/><polyline points="6.350,16.002 8.890,16.002" fill="none" stroke="#4ea1ff" stroke-width="0.25" stroke-linejoin="round"/><polyline points="6.350,16.510 2.540,16.510 2.540,20.320" fill="none" stroke="#4ea1ff" stroke-width="0.25" stroke-linejoin="round"/><polyline points="6.350,17.018 6.350,16.002" fill="none" stroke="#4ea1ff" stroke-width="0.25" stroke-linejoin="round"/><polyline points="8.890,13.462 6.350,13.462" fill="none" stroke="#4ea1ff" stroke-width="0.25" stroke-linejoin="round"/><polyline points="8.890,13.970 11.176,13.970" fill="none" stroke="#4ea1ff" stroke-width="0.25" stroke-linejoin="round"/><polyline points="8.890,14.478 8.890,13.462" fill="none" stroke="#4ea1ff" stroke-width="0.25" stroke-linejoin="round"/><polyline points="8.890,16.002 8.890,17.018" fill="none" stroke="#4ea1ff" stroke-width="0.25" stroke-linejoin="round"/><polyline points="8.890,16.510 11.176,16.510 11.176,22.860" fill="none" stroke="#4ea1ff" stroke-width="0.25" stroke-linejoin="round"/><polyline points="8.890,17.018 6.350,17.018" fill="none" stroke="#4ea1ff" stroke-width="0.25" stroke-linejoin="round"/><polyline points="10.160,7.620 3.810,4.064" fill="none" stroke="#4ea1ff" stroke-width="0.25" stroke-linejoin="round"/><polyline points="10.160,7.620 12.192,7.620" fill="none" stroke="#4ea1ff" stroke-width="0.25" stroke-linejoin="round"/><polyline points="10.160,22.860 3.810,26.416" fill="none" stroke="#4ea1ff" stroke-width="0.25" stroke-linejoin="round"/><polyline points="11.176,13.970 11.176,7.620" fill="none" stroke="#4ea1ff" stroke-width="0.25" stroke-linejoin="round"/><polyline points="12.192,7.112 14.732,7.112" fill="none" stroke="#4ea1ff" stroke-width="0.25" stroke-linejoin="round"/><polyline points="12.192,8.128 12.192,7.112" fill="none" stroke="#4ea1ff" stroke-width="0.25" stroke-linejoin="round"/><polyline points="12.192,22.352 14.732,22.352" fill="none" stroke="#4ea1ff" stroke-width="0.25" stroke-linejoin="round"/><polyline points="12.192,22.860 10.160,22.860" fill="none" stroke="#4ea1ff" stroke-width="0.25" stroke-linejoin="round"/><polyline points="12.192,23.368 12.192,22.352" fill="none" stroke="#4ea1ff" stroke-width="0.25" stroke-linejoin="round"/><polyline points="14.732,7.112 14.732,8.128" fill="none" stroke="#4ea1ff" stroke-width="0.25" stroke-linejoin="round"/><polyline points="14.732,7.620 18.288,7.620" fill="none" stroke="#4ea1ff" stroke-width="0.25" stroke-linejoin="round"/><polyline points="14.732,8.128 12.192,8.128" fill="none" stroke="#4ea1ff" stroke-width="0.25" stroke-linejoin="round"/><polyline points="14.732,22.352 14.732,23.368" fill="none" stroke="#4ea1ff" stroke-width="0.25" stroke-linejoin="round"/><polyline points="14.732,22.860 16.002,22.860" fill="none" stroke="#4ea1ff" stroke-width="0.25" stroke-linejoin="round"/><polyline points="14.732,23.368 12.192,23.368" fill="none" stroke="#4ea1ff" stroke-width="0.25" stroke-linejoin="round"/><polyline points="15.748,7.620 15.748,12.700 17.018,12.700" fill="none" stroke="#4ea1ff" stroke-width="0.25" stroke-linejoin="round"/><polyline points="15.748,17.780 15.748,22.860" fill="none" stroke="#4ea1ff" stroke-width="0.25" stroke-linejoin="round"/><polyline points="15.748,17.780 17.018,17.780" fill="none" stroke="#4ea1ff" stroke-width="0.25" stroke-linejoin="round"/><polyline points="15.748,22.860 18.288,22.860" fill="none" stroke="#4ea1ff" stroke-width="0.25" stroke-linejoin="round"/><polyline points="17.018,11.684 23.368,15.240" fill="none" stroke="#4ea1ff" stroke-width="0.25" stroke-linejoin="round"/><polyline points="17.018,18.796 17.018,11.684" fill="none" stroke="#4ea1ff" stroke-width="0.25" stroke-linejoin="round"/><polyline points="18.288,7.112 20.828,7.112" fill="none" stroke="#4ea1ff" stroke-width="0.25" stroke-linejoin="round"/><polyline points="18.288,8.128 18.288,7.112" fill="none" stroke="#4ea1ff" stroke-width="0.25" stroke-linejoin="round"/><polyline points="18.288,22.352 20.828,22.352" fill="none" stroke="#4ea1ff" stroke-width="0.25" stroke-linejoin="round"/><polyline points="18.288,23.368 18.288,22.352" fill="none" stroke="#4ea1ff" stroke-width="0.25" stroke-linejoin="round"/><polyline points="20.828,7.112 20.828,8.128" fill="none" stroke="#4ea1ff" stroke-width="0.25" stroke-linejoin="round"/><polyline points="20.828,7.620 24.384,7.620" fill="none" stroke="#4ea1ff" stroke-width="0.25" stroke-linejoin="round"/><polyline points="20.828,8.128 18.288,8.128" fill="none" stroke="#4ea1ff" stroke-width="0.25" stroke-linejoin="round"/><polyline points="20.828,22.352 20.828,23.368" fill="none" stroke="#4ea1ff" stroke-width="0.25" stroke-linejoin="round"/><polyline points="20.828,22.860 25.400,22.860" fill="none" stroke="#4ea1ff" stroke-width="0.25" stroke-linejoin="round"/><polyline points="20.828,23.368 18.288,23.368" fill="none" stroke="#4ea1ff" stroke-width="0.25" stroke-linejoin="round"/><polyline points="23.368,15.240 17.018,18.796" fill="none" stroke="#4ea1ff" stroke-width="0.25" stroke-linejoin="round"/><polyline points="23.368,15.240 25.400,15.240" fill="none" stroke="#4ea1ff" stroke-width="0.25" stroke-linejoin="round"/><polyline points="24.384,15.240 24.384,7.620" fill="none" stroke="#4ea1ff" stroke-width="0.25" stroke-linejoin="round"/><circle cx="2.540" cy="10.160" r="0.254" fill="none" stroke="#4ea1ff" stroke-width="0.25"/><circle cx="2.540" cy="13.970" r="0.000" fill="none" stroke="#4ea1ff" stroke-width="0.25"/><circle cx="2.540" cy="16.510" r="0.000" fill="none" stroke="#4ea1ff" stroke-width="0.25"/><circle cx="2.540" cy="20.320" r="0.254" fill="none" stroke="#4ea1ff" stroke-width="0.25"/><circle cx="11.176" cy="7.620" r="0.254" fill="none" stroke="#4ea1ff" stroke-width="0.25"/><circle cx="11.176" cy="22.860" r="0.254" fill="none" stroke="#4ea1ff" stroke-width="0.25"/><circle cx="15.748" cy="7.620" r="0.254" fill="none" stroke="#4ea1ff" stroke-width="0.25"/><circle cx="15.748" cy="22.860" r="0.254" fill="none" stroke="#4ea1ff" stroke-width="0.25"/><circle cx="24.384" cy="15.240" r="0.254" fill="none" stroke="#4ea1ff" stroke-width="0.25"/><line x1="-5.080" y1="5.080" x2="0.000" y2="5.080" stroke="#e6e9ef" stroke-width="0.2"/><circle cx="-5.080" cy="5.080" r="0.4" fill="#4ea1ff"/><text x="-0.300" y="4.730" fill="#9aa3b2" font-size="0.9" text-anchor="end" font-family="sans-serif">1</text><line x1="-5.080" y1="10.160" x2="0.000" y2="10.160" stroke="#e6e9ef" stroke-width="0.2"/><circle cx="-5.080" cy="10.160" r="0.4" fill="#4ea1ff"/><text x="-0.300" y="9.810" fill="#9aa3b2" font-size="0.9" text-anchor="end" font-family="sans-serif">2</text><line x1="-5.080" y1="20.320" x2="0.000" y2="20.320" stroke="#e6e9ef" stroke-width="0.2"/><circle cx="-5.080" cy="20.320" r="0.4" fill="#4ea1ff"/><text x="-0.300" y="19.970" fill="#9aa3b2" font-size="0.9" text-anchor="end" font-family="sans-serif">3</text><line x1="-5.080" y1="25.400" x2="0.000" y2="25.400" stroke="#e6e9ef" stroke-width="0.2"/><circle cx="-5.080" cy="25.400" r="0.4" fill="#4ea1ff"/><text x="-0.300" y="25.050" fill="#9aa3b2" font-size="0.9" text-anchor="end" font-family="sans-serif">4</text><line x1="10.160" y1="-5.080" x2="10.160" y2="-0.000" stroke="#e6e9ef" stroke-width="0.2"/><circle cx="10.160" cy="-5.080" r="0.4" fill="#4ea1ff"/><text x="10.760" y="1.000" fill="#9aa3b2" font-size="0.9" text-anchor="start" font-family="sans-serif">8</text><line x1="10.160" y1="35.560" x2="10.160" y2="30.480" stroke="#e6e9ef" stroke-width="0.2"/><circle cx="10.160" cy="35.560" r="0.4" fill="#4ea1ff"/><text x="10.760" y="31.480" fill="#9aa3b2" font-size="0.9" text-anchor="start" font-family="sans-serif">5</text><line x1="30.480" y1="15.240" x2="25.400" y2="15.240" stroke="#e6e9ef" stroke-width="0.2"/><circle cx="30.480" cy="15.240" r="0.4" fill="#4ea1ff"/><text x="25.700" y="14.890" fill="#9aa3b2" font-size="0.9" text-anchor="start" font-family="sans-serif">7</text><line x1="30.480" y1="22.860" x2="25.400" y2="22.860" stroke="#e6e9ef" stroke-width="0.2"/><circle cx="30.480" cy="22.860" r="0.4" fill="#4ea1ff"/><text x="25.700" y="22.510" fill="#9aa3b2" font-size="0.9" text-anchor="start" font-family="sans-serif">6</text></svg>