<svg xmlns="http://www.w3.org/2000/svg" viewBox="-36.66 -12.52 73.32 15.89" preserveAspectRatio="xMidYMid meet" style="width:100%;height:100%"><rect x="-36.66" y="-12.52" width="73.32" height="15.89" fill="#12151c"/><line x1="-35.408" y1="-11.273" x2="35.408" y2="-11.273" stroke="#e6e9ef" stroke-width="0.200" stroke-linecap="round" opacity="1"/><line x1="-35.408" y1="-1.875" x2="-35.408" y2="-11.273" stroke="#e6e9ef" stroke-width="0.200" stroke-linecap="round" opacity="1"/><line x1="-35.408" y1="-1.875" x2="-33.655" y2="-1.875" stroke="#e6e9ef" stroke-width="0.200" stroke-linecap="round" opacity="1"/><line x1="-33.147" y1="-2.459" x2="33.147" y2="-2.459" stroke="#e6e9ef" stroke-width="0.200" stroke-linecap="round" opacity="1"/><line x1="-33.147" y1="-1.875" x2="-33.147" y2="-2.459" stroke="#e6e9ef" stroke-width="0.200" stroke-linecap="round" opacity="1"/><line x1="-28.702" y1="-4.009" x2="-27.432" y2="-4.009" stroke="#e6e9ef" stroke-width="0.200" stroke-linecap="round" opacity="1"/><line x1="-28.702" y1="-2.459" x2="-28.702" y2="-11.273" stroke="#e6e9ef" stroke-width="0.200" stroke-linecap="round" opacity="1"/><line x1="-27.711" y1="-10.054" x2="-27.711" y2="-11.273" stroke="#e6e9ef" stroke-width="0.200" stroke-linecap="round" opacity="1"/><line x1="-27.711" y1="-10.054" x2="-25.629" y2="-10.054" stroke="#e6e9ef" stroke-width="0.200" stroke-linecap="round" opacity="1"/><line x1="-27.432" y1="-4.850" x2="-25.908" y2="-4.847" stroke="#e6e9ef" stroke-width="0.200" stroke-linecap="round" opacity="1"/><line x1="-27.432" y1="-4.009" x2="-27.432" y2="-6.295" stroke="#e6e9ef" stroke-width="0.200" stroke-linecap="round" opacity="1"/><line x1="-25.908" y1="-4.009" x2="-25.908" y2="-6.295" stroke="#e6e9ef" stroke-width="0.200" stroke-linecap="round" opacity="1"/><line x1="-25.908" y1="-4.009" x2="-24.638" y2="-4.007" stroke="#e6e9ef" stroke-width="0.200" stroke-linecap="round" opacity="1"/><line x1="-25.629" y1="-10.054" x2="-25.629" y2="-11.273" stroke="#e6e9ef" stroke-width="0.200" stroke-linecap="round" opacity="1"/><line x1="-24.638" y1="-2.459" x2="-24.638" y2="-11.273" stroke="#e6e9ef" stroke-width="0.200" stroke-linecap="round" opacity="1"/><line x1="-2.095" y1="-4.847" x2="2.095" y2="-4.847" stroke="#e6e9ef" stroke-width="0.200" stroke-linecap="round" opacity="1"/><line x1="-2.095" y1="-4.339" x2="-2.095" y2="-10.003" stroke="#e6e9ef" stroke-width="0.200" stroke-linecap="round" opacity="1"/><line x1="-1.460" y1="-3.704" x2="1.460" y2="-3.704" stroke="#e6e9ef" stroke-width="0.200" stroke-linecap="round" opacity="1"/><line x1="-0.314" y1="-10.719" x2="-0.060" y2="-10.973" stroke="#e6e9ef" stroke-width="0.200" stroke-linecap="round" opacity="1"/><line x1="-0.314" y1="-10.719" x2="0.314" y2="-10.719" stroke="#e6e9ef" stroke-width="0.200" stroke-linecap="round" opacity="1"/><line x1="-0.314" y1="-4.853" x2="-0.314" y2="-10.719" stroke="#e6e9ef" stroke-width="0.200" stroke-linecap="round" opacity="1"/><line x1="-0.060" y1="-10.973" x2="0.060" y2="-10.973" stroke="#e6e9ef" stroke-width="0.200" stroke-linecap="round" opacity="1"/><line x1="0.060" y1="-10.973" x2="0.314" y2="-10.719" stroke="#e6e9ef" stroke-width="0.200" stroke-linecap="round" opacity="1"/><line x1="0.314" y1="-4.847" x2="0.314" y2="-10.719" stroke="#e6e9ef" stroke-width="0.200" stroke-linecap="round" opacity="1"/><line x1="2.095" y1="-4.339" x2="2.095" y2="-10.003" stroke="#e6e9ef" stroke-width="0.200" stroke-linecap="round" opacity="1"/><line x1="27.178" y1="-4.009" x2="28.448" y2="-4.009" stroke="#e6e9ef" stroke-width="0.200" stroke-linecap="round" opacity="1"/><line x1="27.178" y1="-2.459" x2="27.178" y2="-11.273" stroke="#e6e9ef" stroke-width="0.200" stroke-linecap="round" opacity="1"/><line x1="28.448" y1="-4.847" x2="29.972" y2="-4.847" stroke="#e6e9ef" stroke-width="0.200" stroke-linecap="round" opacity="1"/><line x1="28.448" y1="-4.009" x2="28.448" y2="-6.295" stroke="#e6e9ef" stroke-width="0.200" stroke-linecap="round" opacity="1"/><line x1="29.972" y1="-4.009" x2="29.972" y2="-6.295" stroke="#e6e9ef" stroke-width="0.200" stroke-linecap="round" opacity="1"/><line x1="29.972" y1="-4.009" x2="31.242" y2="-4.009" stroke="#e6e9ef" stroke-width="0.200" stroke-linecap="round" opacity="1"/><line x1="31.242" y1="-2.459" x2="31.242" y2="-11.273" stroke="#e6e9ef" stroke-width="0.200" stroke-linecap="round" opacity="1"/><line x1="33.147" y1="-1.875" x2="33.147" y2="-2.459" stroke="#e6e9ef" stroke-width="0.200" stroke-linecap="round" opacity="1"/><line x1="33.655" y1="-1.875" x2="35.408" y2="-1.875" stroke="#e6e9ef" stroke-width="0.200" stroke-linecap="round" opacity="1"/><line x1="35.408" y1="-1.875" x2="35.408" y2="-11.273" stroke="#e6e9ef" stroke-width="0.200" stroke-linecap="round" opacity="1"/><line x1="-30.980" y1="-1.270" x2="-30.480" y2="-1.270" stroke="#4a5160" stroke-width="0.100" stroke-linecap="round" opacity="0.7"/><line x1="-30.980" y1="1.270" x2="-30.480" y2="1.270" stroke="#4a5160" stroke-width="0.100" stroke-linecap="round" opacity="0.7"/><line x1="-30.480" y1="-1.270" x2="-30.480" y2="-1.770" stroke="#4a5160" stroke-width="0.100" stroke-linecap="round" opacity="0.7"/><line x1="-30.480" y1="-1.270" x2="-29.980" y2="-1.270" stroke="#4a5160" stroke-width="0.100" stroke-linecap="round" opacity="0.7"/><line x1="-30.480" y1="-0.770" x2="-30.480" y2="-1.270" stroke="#4a5160" stroke-width="0.100" stroke-linecap="round" opacity="0.7"/><line x1="-30.480" y1="1.270" x2="-30.480" y2="0.770" stroke="#4a5160" stroke-width="0.100" stroke-linecap="round" opacity="0.7"/><line x1="-30.480" y1="1.270" x2="-29.980" y2="1.270" stroke="#4a5160" stroke-width="0.100" stroke-linecap="round" opacity="0.7"/><line x1="-30.480" y1="1.770" x2="-30.480" y2="1.270" stroke="#4a5160" stroke-width="0.100" stroke-linecap="round" opacity="0.7"/><line x1="-28.440" y1="-1.270" x2="-27.940" y2="-1.270" stroke="#4a5160" stroke-width="0.100" stroke-linecap="round" opacity="0.7"/><line x1="-28.440" y1="1.270" x2="-27.940" y2="1.270" stroke="#4a5160" stroke-width="0.100" stroke-linecap="round" opacity="0.7"/><line x1="-27.940" y1="-1.270" x2="-27.940" y2="-1.770" stroke="#4a5160" stroke-width="0.100" stroke-linecap="round" opacity="0.7"/><line x1="-27.940" y1="-1.270" x2="-27.440" y2="-1.270" stroke="#4a5160" stroke-width="0.100" stroke-linecap="round" opacity="0.7"/><line x1="-27.940" y1="-0.770" x2="-27.940" y2="-1.270" stroke="#4a5160" stroke-width="0.100" stroke-linecap="round" opacity="0.7"/><line x1="-27.940" y1="1.270" x2="-27.940" y2="0.770" stroke="#4a5160" stroke-width="0.100" stroke-linecap="round" opacity="0.7"/><line x1="-27.940" y1="1.270" x2="-27.440" y2="1.270" stroke="#4a5160" stroke-width="0.100" stroke-linecap="round" opacity="0.7"/><line x1="-27.940" y1="1.770" x2="-27.940" y2="1.270" stroke="#4a5160" stroke-width="0.100" stroke-linecap="round" opacity="0.7"/><line x1="-25.900" y1="-1.270" x2="-25.400" y2="-1.270" stroke="#4a5160" stroke-width="0.100" stroke-linecap="round" opacity="0.7"/><line x1="-25.900" y1="1.270" x2="-25.400" y2="1.270" stroke="#4a5160" stroke-width="0.100" stroke-linecap="round" opacity="0.7"/><line x1="-25.400" y1="-1.270" x2="-25.400" y2="-1.770" stroke="#4a5160" stroke-width="0.100" stroke-linecap="round" opacity="0.7"/><line x1="-25.400" y1="-1.270" x2="-24.900" y2="-1.270" stroke="#4a5160" stroke-width="0.100" stroke-linecap="round" opacity="0.7"/><line x1="-25.400" y1="-0.770" x2="-25.400" y2="-1.270" stroke="#4a5160" stroke-width="0.100" stroke-linecap="round" opacity="0.7"/><line x1="-25.400" y1="1.270" x2="-25.400" y2="0.770" stroke="#4a5160" stroke-width="0.100" stroke-linecap="round" opacity="0.7"/><line x1="-25.400" y1="1.270" x2="-24.900" y2="1.270" stroke="#4a5160" stroke-width="0.100" stroke-linecap="round" opacity="0.7"/><line x1="-25.400" y1="1.770" x2="-25.400" y2="1.270" stroke="#4a5160" stroke-width="0.100" stroke-linecap="round" opacity="0.7"/><line x1="-23.360" y1="-1.270" x2="-22.860" y2="-1.270" stroke="#4a5160" stroke-width="0.100" stroke-linecap="round" opacity="0.7"/><line x1="-23.360" y1="1.270" x2="-22.860" y2="1.270" stroke="#4a5160" stroke-width="0.100" stroke-linecap="round" opacity="0.7"/><line x1="-22.860" y1="-1.270" x2="-22.860" y2="-1.770" stroke="#4a5160" stroke-width="0.100" stroke-linecap="round" opacity="0.7"/><line x1="-22.860" y1="-1.270" x2="-22.360" y2="-1.270" stroke="#4a5160" stroke-width="0.100" stroke-linecap="round" opacity="0.7"/><line x1="-22.860" y1="-0.770" x2="-22.860" y2="-1.270" stroke="#4a5160" stroke-width="0.100" stroke-linecap="round" opacity="0.7"/><line x1="-22.860" y1="1.270" x2="-22.860" y2="0.770" stroke="#4a5160" stroke-width="0.100" stroke-linecap="round" opacity="0.7"/><line x1="-22.860" y1="1.270" x2="-22.360" y2="1.270" stroke="#4a5160" stroke-width="0.100" stroke-linecap="round" opacity="0.7"/><line x1="-22.860" y1="1.770" x2="-22.860" y2="1.270" stroke="#4a5160" stroke-width="0.100" stroke-linecap="round" opacity="0.7"/><line x1="-20.820" y1="-1.270" x2="-20.320" y2="-1.270" stroke="#4a5160" stroke-width="0.100" stroke-linecap="round" opacity="0.7"/><line x1="-20.820" y1="1.270" x2="-20.320" y2="1.270" stroke="#4a5160" stroke-width="0.100" stroke-linecap="round" opacity="0.7"/><line x1="-20.320" y1="-1.270" x2="-20.320" y2="-1.770" stroke="#4a5160" stroke-width="0.100" stroke-linecap="round" opacity="0.7"/><line x1="-20.320" y1="-1.270" x2="-19.820" y2="-1.270" stroke="#4a5160" stroke-width="0.100" stroke-linecap="round" opacity="0.7"/><line x1="-20.320" y1="-0.770" x2="-20.320" y2="-1.270" stroke="#4a5160" stroke-width="0.100" stroke-linecap="round" opacity="0.7"/><line x1="-20.320" y1="1.270" x2="-20.320" y2="0.770" stroke="#4a5160" stroke-width="0.100" stroke-linecap="round" opacity="0.7"/><line x1="-20.320" y1="1.270" x2="-19.820" y2="1.270" stroke="#4a5160" stroke-width="0.100" stroke-linecap="round" opacity="0.7"/><line x1="-20.320" y1="1.770" x2="-20.320" y2="1.270" stroke="#4a5160" stroke-width="0.100" stroke-linecap="round" opacity="0.7"/><line x1="-18.280" y1="-1.270" x2="-17.780" y2="-1.270" stroke="#4a5160" stroke-width="0.100" stroke-linecap="round" opacity="0.7"/><line x1="-18.280" y1="1.270" x2="-17.780" y2="1.270" stroke="#4a5160" stroke-width="0.100" stroke-linecap="round" opacity="0.7"/><line x1="-17.780" y1="-1.270" x2="-17.780" y2="-1.770" stroke="#4a5160" stroke-width="0.100" stroke-linecap="round" opacity="0.7"/><line x1="-17.780" y1="-1.270" x2="-17.280" y2="-1.270" stroke="#4a5160" stroke-width="0.100" stroke-linecap="round" opacity="0.7"/><line x1="-17.780" y1="-0.770" x2="-17.780" y2="-1.270" stroke="#4a5160" stroke-width="0.100" stroke-linecap="round" opacity="0.7"/><line x1="-17.780" y1="1.270" x2="-17.780" y2="0.770" stroke="#4a5160" stroke-width="0.100" stroke-linecap="round" opacity="0.7"/><line x1="-17.780" y1="1.270" x2="-17.280" y2="1.270" stroke="#4a5160" stroke-width="0.100" stroke-linecap="round" opacity="0.7"/><line x1="-17.780" y1="1.770" x2="-17.780" y2="1.270" stroke="#4a5160" stroke-width="0.100" stroke-linecap="round" opacity="0.7"/><line x1="-15.740" y1="-1.270" x2="-15.240" y2="-1.270" stroke="#4a5160" stroke-width="0.100" stroke-linecap="round" opacity="0.7"/><line x1="-15.740" y1="1.270" x2="-15.240" y2="1.270" stroke="#4a5160" stroke-width="0.100" stroke-linecap="round" opacity="0.7"/><line x1="-15.240" y1="-1.270" x2="-15.240" y2="-1.770" stroke="#4a5160" stroke-width="0.100" stroke-linecap="round" opacity="0.7"/><line x1="-15.240" y1="-1.270" x2="-14.740" y2="-1.270" stroke="#4a5160" stroke-width="0.100" stroke-linecap="round" opacity="0.7"/><line x1="-15.240" y1="-0.770" x2="-15.240" y2="-1.270" stroke="#4a5160" stroke-width="0.100" stroke-linecap="round" opacity="0.7"/><line x1="-15.240" y1="1.270" x2="-15.240" y2="0.770" stroke="#4a5160" stroke-width="0.100" stroke-linecap="round" opacity="0.7"/><line x1="-15.240" y1="1.270" x2="-14.740" y2="1.270" stroke="#4a5160" stroke-width="0.100" stroke-linecap="round" opacity="0.7"/><line x1="-15.240" y1="1.770" x2="-15.240" y2="1.270" stroke="#4a5160" stroke-width="0.100" stroke-linecap="round" opacity="0.7"/><line x1="-13.200" y1="-1.270" x2="-12.700" y2="-1.270" stroke="#4a5160" stroke-width="0.100" stroke-linecap="round" opacity="0.7"/><line x1="-13.200" y1="1.270" x2="-12.700" y2="1.270" stroke="#4a5160" stroke-width="0.100" stroke-linecap="round" opacity="0.7"/><line x1="-12.700" y1="-1.270" x2="-12.700" y2="-1.770" stroke="#4a5160" stroke-width="0.100" stroke-linecap="round" opacity="0.7"/><line x1="-12.700" y1="-1.270" x2="-12.200" y2="-1.270" stroke="#4a5160" stroke-width="0.100" stroke-linecap="round" opacity="0.7"/><line x1="-12.700" y1="-0.770" x2="-12.700" y2="-1.270" stroke="#4a5160" stroke-width="0.100" stroke-linecap="round" opacity="0.7"/><line x1="-12.700" y1="1.270" x2="-12.700" y2="0.770" stroke="#4a5160" stroke-width="0.100" stroke-linecap="round" opacity="0.7"/><line x1="-12.700" y1="1.270" x2="-12.200" y2="1.270" stroke="#4a5160" stroke-width="0.100" stroke-linecap="round" opacity="0.7"/><line x1="-12.700" y1="1.770" x2="-12.700" y2="1.270" stroke="#4a5160" stroke-width="0.100" stroke-linecap="round" opacity="0.7"/><line x1="-10.660" y1="-1.270" x2="-10.160" y2="-1.270" stroke="#4a5160" stroke-width="0.100" stroke-linecap="round" opacity="0.7"/><line x1="-10.660" y1="1.270" x2="-10.160" y2="1.270" stroke="#4a5160" stroke-width="0.100" stroke-linecap="round" opacity="0.7"/><line x1="-10.160" y1="-1.270" x2="-10.160" y2="-1.770" stroke="#4a5160" stroke-width="0.100" stroke-linecap="round" opacity="0.7"/><line x1="-10.160" y1="-1.270" x2="-9.660" y2="-1.270" stroke="#4a5160" stroke-width="0.100" stroke-linecap="round" opacity="0.7"/><line x1="-10.160" y1="-0.770" x2="-10.160" y2="-1.270" stroke="#4a5160" stroke-width="0.100" stroke-linecap="round" opacity="0.7"/><line x1="-10.160" y1="1.270" x2="-10.160" y2="0.770" stroke="#4a5160" stroke-width="0.100" stroke-linecap="round" opacity="0.7"/><line x1="-10.160" y1="1.270" x2="-9.660" y2="1.270" stroke="#4a5160" stroke-width="0.100" stroke-linecap="round" opacity="0.7"/><line x1="-10.160" y1="1.770" x2="-10.160" y2="1.270" stroke="#4a5160" stroke-width="0.100" stroke-linecap="round" opacity="0.7"/><line x1="-8.120" y1="-1.270" x2="-7.620" y2="-1.270" stroke="#4a5160" stroke-width="0.100" stroke-linecap="round" opacity="0.7"/><line x1="-8.120" y1="1.270" x2="-7.620" y2="1.270" stroke="#4a5160" stroke-width="0.100" stroke-linecap="round" opacity="0.7"/><line x1="-7.620" y1="-1.270" x2="-7.620" y2="-1.770" stroke="#4a5160" stroke-width="0.100" stroke-linecap="round" opacity="0.7"/><line x1="-7.620" y1="-1.270" x2="-7.120" y2="-1.270" stroke="#4a5160" stroke-width="0.100" stroke-linecap="round" opacity="0.7"/><line x1="-7.620" y1="-0.770" x2="-7.620" y2="-1.270" stroke="#4a5160" stroke-width="0.100" stroke-linecap="round" opacity="0.7"/><line x1="-7.620" y1="1.270" x2="-7.620" y2="0.770" stroke="#4a5160" stroke-width="0.100" stroke-linecap="round" opacity="0.7"/><line x1="-7.620" y1="1.270" x2="-7.120" y2="1.270" stroke="#4a5160" stroke-width="0.100" stroke-linecap="round" opacity="0.7"/><line x1="-7.620" y1="1.770" x2="-7.620" y2="1.270" stroke="#4a5160" stroke-width="0.100" stroke-linecap="round" opacity="0.7"/><line x1="-5.580" y1="-1.270" x2="-5.080" y2="-1.270" stroke="#4a5160" stroke-width="0.100" stroke-linecap="round" opacity="0.7"/><line x1="-5.580" y1="1.270" x2="-5.080" y2="1.270" stroke="#4a5160" stroke-width="0.100" stroke-linecap="round" opacity="0.7"/><line x1="-5.080" y1="-1.270" x2="-5.080" y2="-1.770" stroke="#4a5160" stroke-width="0.100" stroke-linecap="round" opacity="0.7"/><line x1="-5.080" y1="-1.270" x2="-4.580" y2="-1.270" stroke="#4a5160" stroke-width="0.100" stroke-linecap="round" opacity="0.7"/><line x1="-5.080" y1="-0.770" x2="-5.080" y2="-1.270" stroke="#4a5160" stroke-width="0.100" stroke-linecap="round" opacity="0.7"/><line x1="-5.080" y1="1.270" x2="-5.080" y2="0.770" stroke="#4a5160" stroke-width="0.100" stroke-linecap="round" opacity="0.7"/><line x1="-5.080" y1="1.270" x2="-4.580" y2="1.270" stroke="#4a5160" stroke-width="0.100" stroke-linecap="round" opacity="0.7"/><line x1="-5.080" y1="1.770" x2="-5.080" y2="1.270" stroke="#4a5160" stroke-width="0.100" stroke-linecap="round" opacity="0.7"/><line x1="-3.040" y1="-1.270" x2="-2.540" y2="-1.270" stroke="#4a5160" stroke-width="0.100" stroke-linecap="round" opacity="0.7"/><line x1="-3.040" y1="1.270" x2="-2.540" y2="1.270" stroke="#4a5160" stroke-width="0.100" stroke-linecap="round" opacity="0.7"/><line x1="-2.540" y1="-1.270" x2="-2.540" y2="-1.770" stroke="#4a5160" stroke-width="0.100" stroke-linecap="round" opacity="0.7"/><line x1="-2.540" y1="-1.270" x2="-2.040" y2="-1.270" stroke="#4a5160" stroke-width="0.100" stroke-linecap="round" opacity="0.7"/><line x1="-2.540" y1="-0.770" x2="-2.540" y2="-1.270" stroke="#4a5160" stroke-width="0.100" stroke-linecap="round" opacity="0.7"/><line x1="-2.540" y1="1.270" x2="-2.540" y2="0.770" stroke="#4a5160" stroke-width="0.100" stroke-linecap="round" opacity="0.7"/><line x1="-2.540" y1="1.270" x2="-2.040" y2="1.270" stroke="#4a5160" stroke-width="0.100" stroke-linecap="round" opacity="0.7"/><line x1="-2.540" y1="1.770" x2="-2.540" y2="1.270" stroke="#4a5160" stroke-width="0.100" stroke-linecap="round" opacity="0.7"/><line x1="-0.500" y1="-1.270" x2="0.000" y2="-1.270" stroke="#4a5160" stroke-width="0.100" stroke-linecap="round" opacity="0.7"/><line x1="-0.500" y1="0.000" x2="0.000" y2="0.000" stroke="#4a5160" stroke-width="0.100" stroke-linecap="round" opacity="0.7"/><line x1="-0.500" y1="1.270" x2="0.000" y2="1.270" stroke="#4a5160" stroke-width="0.100" stroke-linecap="round" opacity="0.7"/><line x1="0.000" y1="-1.270" x2="0.000" y2="-1.770" stroke="#4a5160" stroke-width="0.100" stroke-linecap="round" opacity="0.7"/><line x1="0.000" y1="-1.270" x2="0.500" y2="-1.270" stroke="#4a5160" stroke-width="0.100" stroke-linecap="round" opacity="0.7"/><line x1="0.000" y1="-0.770" x2="0.000" y2="-1.270" stroke="#4a5160" stroke-width="0.100" stroke-linecap="round" opacity="0.7"/><line x1="0.000" y1="0.000" x2="0.000" y2="-0.500" stroke="#4a5160" stroke-width="0.100" stroke-linecap="round" opacity="0.7"/><line x1="0.000" y1="0.000" x2="0.500" y2="0.000" stroke="#4a5160" stroke-width="0.100" stroke-linecap="round" opacity="0.7"/><line x1="0.000" y1="0.500" x2="0.000" y2="0.000" stroke="#4a5160" stroke-width="0.100" stroke-linecap="round" opacity="0.7"/><line x1="0.000" y1="1.270" x2="0.000" y2="0.770" stroke="#4a5160" stroke-width="0.100" stroke-linecap="round" opacity="0.7"/><line x1="0.000" y1="1.270" x2="0.500" y2="1.270" stroke="#4a5160" stroke-width="0.100" stroke-linecap="round" opacity="0.7"/><line x1="0.000" y1="1.770" x2="0.000" y2="1.270" stroke="#4a5160" stroke-width="0.100" stroke-linecap="round" opacity="0.7"/><line x1="2.040" y1="-1.270" x2="2.540" y2="-1.270" stroke="#4a5160" stroke-width="0.100" stroke-linecap="round" opacity="0.7"/><line x1="2.040" y1="1.270" x2="2.540" y2="1.270" stroke="#4a5160" stroke-width="0.100" stroke-linecap="round" opacity="0.7"/><line x1="2.540" y1="-1.270" x2="2.540" y2="-1.770" stroke="#4a5160" stroke-width="0.100" stroke-linecap="round" opacity="0.7"/><line x1="2.540" y1="-1.270" x2="3.040" y2="-1.270" stroke="#4a5160" stroke-width="0.100" stroke-linecap="round" opacity="0.7"/><line x1="2.540" y1="-0.770" x2="2.540" y2="-1.270" stroke="#4a5160" stroke-width="0.100" stroke-linecap="round" opacity="0.7"/><line x1="2.540" y1="1.270" x2="2.540" y2="0.770" stroke="#4a5160" stroke-width="0.100" stroke-linecap="round" opacity="0.7"/><line x1="2.540" y1="1.270" x2="3.040" y2="1.270" stroke="#4a5160" stroke-width="0.100" stroke-linecap="round" opacity="0.7"/><line x1="2.540" y1="1.770" x2="2.540" y2="1.270" stroke="#4a5160" stroke-width="0.100" stroke-linecap="round" opacity="0.7"/><line x1="4.580" y1="-1.270" x2="5.080" y2="-1.270" stroke="#4a5160" stroke-width="0.100" stroke-linecap="round" opacity="0.7"/><line x1="4.580" y1="1.270" x2="5.080" y2="1.270" stroke="#4a5160" stroke-width="0.100" stroke-linecap="round" opacity="0.7"/><line x1="5.080" y1="-1.270" x2="5.080" y2="-1.770" stroke="#4a5160" stroke-width="0.100" stroke-linecap="round" opacity="0.7"/><line x1="5.080" y1="-1.270" x2="5.580" y2="-1.270" stroke="#4a5160" stroke-width="0.100" stroke-linecap="round" opacity="0.7"/><line x1="5.080" y1="-0.770" x2="5.080" y2="-1.270" stroke="#4a5160" stroke-width="0.100" stroke-linecap="round" opacity="0.7"/><line x1="5.080" y1="1.270" x2="5.080" y2="0.770" stroke="#4a5160" stroke-width="0.100" stroke-linecap="round" opacity="0.7"/><line x1="5.080" y1="1.270" x2="5.580" y2="1.270" stroke="#4a5160" stroke-width="0.100" stroke-linecap="round" opacity="0.7"/><line x1="5.080" y1="1.770" x2="5.080" y2="1.270" stroke="#4a5160" stroke-width="0.100" stroke-linecap="round" opacity="0.7"/><line x1="7.120" y1="-1.270" x2="7.620" y2="-1.270" stroke="#4a5160" stroke-width="0.100" stroke-linecap="round" opacity="0.7"/><line x1="7.120" y1="1.270" x2="7.620" y2="1.270" stroke="#4a5160" stroke-width="0.100" stroke-linecap="round" opacity="0.7"/><line x1="7.620" y1="-1.270" x2="7.620" y2="-1.770" stroke="#4a5160" stroke-width="0.100" stroke-linecap="round" opacity="0.7"/><line x1="7.620" y1="-1.270" x2="8.120" y2="-1.270" stroke="#4a5160" stroke-width="0.100" stroke-linecap="round" opacity="0.7"/><line x1="7.620" y1="-0.770" x2="7.620" y2="-1.270" stroke="#4a5160" stroke-width="0.100" stroke-linecap="round" opacity="0.7"/><line x1="7.620" y1="1.270" x2="7.620" y2="0.770" stroke="#4a5160" stroke-width="0.100" stroke-linecap="round" opacity="0.7"/><line x1="7.620" y1="1.270" x2="8.120" y2="1.270" stroke="#4a5160" stroke-width="0.100" stroke-linecap="round" opacity="0.7"/><line x1="7.620" y1="1.770" x2="7.620" y2="1.270" stroke="#4a5160" stroke-width="0.100" stroke-linecap="round" opacity="0.7"/><line x1="9.660" y1="-1.270" x2="10.160" y2="-1.270" stroke="#4a5160" stroke-width="0.100" stroke-linecap="round" opacity="0.7"/><line x1="9.660" y1="1.270" x2="10.160" y2="1.270" stroke="#4a5160" stroke-width="0.100" stroke-linecap="round" opacity="0.7"/><line x1="10.160" y1="-1.270" x2="10.160" y2="-1.770" stroke="#4a5160" stroke-width="0.100" stroke-linecap="round" opacity="0.7"/><line x1="10.160" y1="-1.270" x2="10.660" y2="-1.270" stroke="#4a5160" stroke-width="0.100" stroke-linecap="round" opacity="0.7"/><line x1="10.160" y1="-0.770" x2="10.160" y2="-1.270" stroke="#4a5160" stroke-width="0.100" stroke-linecap="round" opacity="0.7"/><line x1="10.160" y1="1.270" x2="10.160" y2="0.770" stroke="#4a5160" stroke-width="0.100" stroke-linecap="round" opacity="0.7"/><line x1="10.160" y1="1.270" x2="10.660" y2="1.270" stroke="#4a5160" stroke-width="0.100" stroke-linecap="round" opacity="0.7"/><line x1="10.160" y1="1.770" x2="10.160" y2="1.270" stroke="#4a5160" stroke-width="0.100" stroke-linecap="round" opacity="0.7"/><line x1="12.200" y1="-1.270" x2="12.700" y2="-1.270" stroke="#4a5160" stroke-width="0.100" stroke-linecap="round" opacity="0.7"/><line x1="12.200" y1="1.270" x2="12.700" y2="1.270" stroke="#4a5160" stroke-width="0.100" stroke-linecap="round" opacity="0.7"/><line x1="12.700" y1="-1.270" x2="12.700" y2="-1.770" stroke="#4a5160" stroke-width="0.100" stroke-linecap="round" opacity="0.7"/><line x1="12.700" y1="-1.270" x2="13.200" y2="-1.270" stroke="#4a5160" stroke-width="0.100" stroke-linecap="round" opacity="0.7"/><line x1="12.700" y1="-0.770" x2="12.700" y2="-1.270" stroke="#4a5160" stroke-width="0.100" stroke-linecap="round" opacity="0.7"/><line x1="12.700" y1="1.270" x2="12.700" y2="0.770" stroke="#4a5160" stroke-width="0.100" stroke-linecap="round" opacity="0.7"/><line x1="12.700" y1="1.270" x2="13.200" y2="1.270" stroke="#4a5160" stroke-width="0.100" stroke-linecap="round" opacity="0.7"/><line x1="12.700" y1="1.770" x2="12.700" y2="1.270" stroke="#4a5160" stroke-width="0.100" stroke-linecap="round" opacity="0.7"/><line x1="14.740" y1="-1.270" x2="15.240" y2="-1.270" stroke="#4a5160" stroke-width="0.100" stroke-linecap="round" opacity="0.7"/><line x1="14.740" y1="1.270" x2="15.240" y2="1.270" stroke="#4a5160" stroke-width="0.100" stroke-linecap="round" opacity="0.7"/><line x1="15.240" y1="-1.270" x2="15.240" y2="-1.770" stroke="#4a5160" stroke-width="0.100" stroke-linecap="round" opacity="0.7"/><line x1="15.240" y1="-1.270" x2="15.740" y2="-1.270" stroke="#4a5160" stroke-width="0.100" stroke-linecap="round" opacity="0.7"/><line x1="15.240" y1="-0.770" x2="15.240" y2="-1.270" stroke="#4a5160" stroke-width="0.100" stroke-linecap="round" opacity="0.7"/><line x1="15.240" y1="1.270" x2="15.240" y2="0.770" stroke="#4a5160" stroke-width="0.100" stroke-linecap="round" opacity="0.7"/><line x1="15.240" y1="1.270" x2="15.740" y2="1.270" stroke="#4a5160" stroke-width="0.100" stroke-linecap="round" opacity="0.7"/><line x1="15.240" y1="1.770" x2="15.240" y2="1.270" stroke="#4a5160" stroke-width="0.100" stroke-linecap="round" opacity="0.7"/><line x1="17.280" y1="-1.270" x2="17.780" y2="-1.270" stroke="#4a5160" stroke-width="0.100" stroke-linecap="round" opacity="0.7"/><line x1="17.280" y1="1.270" x2="17.780" y2="1.270" stroke="#4a5160" stroke-width="0.100" stroke-linecap="round" opacity="0.7"/><line x1="17.780" y1="-1.270" x2="17.780" y2="-1.770" stroke="#4a5160" stroke-width="0.100" stroke-linecap="round" opacity="0.7"/><line x1="17.780" y1="-1.270" x2="18.280" y2="-1.270" stroke="#4a5160" stroke-width="0.100" stroke-linecap="round" opacity="0.7"/><line x1="17.780" y1="-0.770" x2="17.780" y2="-1.270" stroke="#4a5160" stroke-width="0.100" stroke-linecap="round" opacity="0.7"/><line x1="17.780" y1="1.270" x2="17.780" y2="0.770" stroke="#4a5160" stroke-width="0.100" stroke-linecap="round" opacity="0.7"/><line x1="17.780" y1="1.270" x2="18.280" y2="1.270" stroke="#4a5160" stroke-width="0.100" stroke-linecap="round" opacity="0.7"/><line x1="17.780" y1="1.770" x2="17.780" y2="1.270" stroke="#4a5160" stroke-width="0.100" stroke-linecap="round" opacity="0.7"/><line x1="19.820" y1="-1.270" x2="20.320" y2="-1.270" stroke="#4a5160" stroke-width="0.100" stroke-linecap="round" opacity="0.7"/><line x1="19.820" y1="1.270" x2="20.320" y2="1.270" stroke="#4a5160" stroke-width="0.100" stroke-linecap="round" opacity="0.7"/><line x1="20.320" y1="-1.270" x2="20.320" y2="-1.770" stroke="#4a5160" stroke-width="0.100" stroke-linecap="round" opacity="0.7"/><line x1="20.320" y1="-1.270" x2="20.820" y2="-1.270" stroke="#4a5160" stroke-width="0.100" stroke-linecap="round" opacity="0.7"/><line x1="20.320" y1="-0.770" x2="20.320" y2="-1.270" stroke="#4a5160" stroke-width="0.100" stroke-linecap="round" opacity="0.7"/><line x1="20.320" y1="1.270" x2="20.320" y2="0.770" stroke="#4a5160" stroke-width="0.100" stroke-linecap="round" opacity="0.7"/><line x1="20.320" y1="1.270" x2="20.820" y2="1.270" stroke="#4a5160" stroke-width="0.100" stroke-linecap="round" opacity="0.7"/><line x1="20.320" y1="1.770" x2="20.320" y2="1.270" stroke="#4a5160" stroke-width="0.100" stroke-linecap="round" opacity="0.7"/><line x1="22.360" y1="-1.270" x2="22.860" y2="-1.270" stroke="#4a5160" stroke-width="0.100" stroke-linecap="round" opacity="0.7"/><line x1="22.360" y1="1.270" x2="22.860" y2="1.270" stroke="#4a5160" stroke-width="0.100" stroke-linecap="round" opacity="0.7"/><line x1="22.860" y1="-1.270" x2="22.860" y2="-1.770" stroke="#4a5160" stroke-width="0.100" stroke-linecap="round" opacity="0.7"/><line x1="22.860" y1="-1.270" x2="23.360" y2="-1.270" stroke="#4a5160" stroke-width="0.100" stroke-linecap="round" opacity="0.7"/><line x1="22.860" y1="-0.770" x2="22.860" y2="-1.270" stroke="#4a5160" stroke-width="0.100" stroke-linecap="round" opacity="0.7"/><line x1="22.860" y1="1.270" x2="22.860" y2="0.770" stroke="#4a5160" stroke-width="0.100" stroke-linecap="round" opacity="0.7"/><line x1="22.860" y1="1.270" x2="23.360" y2="1.270" stroke="#4a5160" stroke-width="0.100" stroke-linecap="round" opacity="0.7"/><line x1="22.860" y1="1.770" x2="22.860" y2="1.270" stroke="#4a5160" stroke-width="0.100" stroke-linecap="round" opacity="0.7"/><line x1="24.900" y1="-1.270" x2="25.400" y2="-1.270" stroke="#4a5160" stroke-width="0.100" stroke-linecap="round" opacity="0.7"/><line x1="24.900" y1="1.270" x2="25.400" y2="1.270" stroke="#4a5160" stroke-width="0.100" stroke-linecap="round" opacity="0.7"/><line x1="25.400" y1="-1.270" x2="25.400" y2="-1.770" stroke="#4a5160" stroke-width="0.100" stroke-linecap="round" opacity="0.7"/><line x1="25.400" y1="-1.270" x2="25.900" y2="-1.270" stroke="#4a5160" stroke-width="0.100" stroke-linecap="round" opacity="0.7"/><line x1="25.400" y1="-0.770" x2="25.400" y2="-1.270" stroke="#4a5160" stroke-width="0.100" stroke-linecap="round" opacity="0.7"/><line x1="25.400" y1="1.270" x2="25.400" y2="0.770" stroke="#4a5160" stroke-width="0.100" stroke-linecap="round" opacity="0.7"/><line x1="25.400" y1="1.270" x2="25.900" y2="1.270" stroke="#4a5160" stroke-width="0.100" stroke-linecap="round" opacity="0.7"/><line x1="25.400" y1="1.770" x2="25.400" y2="1.270" stroke="#4a5160" stroke-width="0.100" stroke-linecap="round" opacity="0.7"/><line x1="27.440" y1="-1.270" x2="27.940" y2="-1.270" stroke="#4a5160" stroke-width="0.100" stroke-linecap="round" opacity="0.7"/><line x1="27.440" y1="1.270" x2="27.940" y2="1.270" stroke="#4a5160" stroke-width="0.100" stroke-linecap="round" opacity="0.7"/><line x1="27.940" y1="-1.270" x2="27.940" y2="-1.770" stroke="#4a5160" stroke-width="0.100" stroke-linecap="round" opacity="0.7"/><line x1="27.940" y1="-1.270" x2="28.440" y2="-1.270" stroke="#4a5160" stroke-width="0.100" stroke-linecap="round" opacity="0.7"/><line x1="27.940" y1="-0.770" x2="27.940" y2="-1.270" stroke="#4a5160" stroke-width="0.100" stroke-linecap="round" opacity="0.7"/><line x1="27.940" y1="1.270" x2="27.940" y2="0.770" stroke="#4a5160" stroke-width="0.100" stroke-linecap="round" opacity="0.7"/><line x1="27.940" y1="1.270" x2="28.440" y2="1.270" stroke="#4a5160" stroke-width="0.100" stroke-linecap="round" opacity="0.7"/><line x1="27.940" y1="1.770" x2="27.940" y2="1.270" stroke="#4a5160" stroke-width="0.100" stroke-linecap="round" opacity="0.7"/><line x1="29.980" y1="-1.270" x2="30.480" y2="-1.270" stroke="#4a5160" stroke-width="0.100" stroke-linecap="round" opacity="0.7"/><line x1="29.980" y1="1.270" x2="30.480" y2="1.270" stroke="#4a5160" stroke-width="0.100" stroke-linecap="round" opacity="0.7"/><line x1="30.480" y1="-1.270" x2="30.480" y2="-1.770" stroke="#4a5160" stroke-width="0.100" stroke-linecap="round" opacity="0.7"/><line x1="30.480" y1="-1.270" x2="30.980" y2="-1.270" stroke="#4a5160" stroke-width="0.100" stroke-linecap="round" opacity="0.7"/><line x1="30.480" y1="-0.770" x2="30.480" y2="-1.270" stroke="#4a5160" stroke-width="0.100" stroke-linecap="round" opacity="0.7"/><line x1="30.480" y1="1.270" x2="30.480" y2="0.770" stroke="#4a5160" stroke-width="0.100" stroke-linecap="round" opacity="0.7"/><line x1="30.480" y1="1.270" x2="30.980" y2="1.270" stroke="#4a5160" stroke-width="0.100" stroke-linecap="round" opacity="0.7"/><line x1="30.480" y1="1.770" x2="30.480" y2="1.270" stroke="#4a5160" stroke-width="0.100" stroke-linecap="round" opacity="0.7"/><line x1="-35.408" y1="-11.273" x2="35.408" y2="-11.273" stroke="#6b7280" stroke-width="0.100" stroke-linecap="round" opacity="0.8"/><line x1="-35.408" y1="-1.875" x2="-35.408" y2="-11.273" stroke="#6b7280" stroke-width="0.100" stroke-linecap="round" opacity="0.8"/><line x1="-35.408" y1="-1.875" x2="-33.655" y2="-1.875" stroke="#6b7280" stroke-width="0.100" stroke-linecap="round" opacity="0.8"/><line x1="-33.147" y1="-2.459" x2="33.147" y2="-2.459" stroke="#6b7280" stroke-width="0.100" stroke-linecap="round" opacity="0.8"/><line x1="-33.147" y1="-1.875" x2="-33.147" y2="-2.459" stroke="#6b7280" stroke-width="0.100" stroke-linecap="round" opacity="0.8"/><line x1="-28.702" y1="-4.009" x2="-27.432" y2="-4.009" stroke="#6b7280" stroke-width="0.100" stroke-linecap="round" opacity="0.8"/><line x1="-28.702" y1="-2.459" x2="-28.702" y2="-11.273" stroke="#6b7280" stroke-width="0.100" stroke-linecap="round" opacity="0.8"/><line x1="-27.711" y1="-10.054" x2="-27.711" y2="-11.273" stroke="#6b7280" stroke-width="0.100" stroke-linecap="round" opacity="0.8"/><line x1="-27.711" y1="-10.054" x2="-25.629" y2="-10.054" stroke="#6b7280" stroke-width="0.100" stroke-linecap="round" opacity="0.8"/><line x1="-27.432" y1="-4.850" x2="-25.908" y2="-4.847" stroke="#6b7280" stroke-width="0.100" stroke-linecap="round" opacity="0.8"/><line x1="-27.432" y1="-4.009" x2="-27.432" y2="-6.295" stroke="#6b7280" stroke-width="0.100" stroke-linecap="round" opacity="0.8"/><line x1="-25.908" y1="-4.009" x2="-25.908" y2="-6.295" stroke="#6b7280" stroke-width="0.100" stroke-linecap="round" opacity="0.8"/><line x1="-25.908" y1="-4.009" x2="-24.638" y2="-4.007" stroke="#6b7280" stroke-width="0.100" stroke-linecap="round" opacity="0.8"/><line x1="-25.629" y1="-10.054" x2="-25.629" y2="-11.273" stroke="#6b7280" stroke-width="0.100" stroke-linecap="round" opacity="0.8"/><line x1="-24.638" y1="-2.459" x2="-24.638" y2="-11.273" stroke="#6b7280" stroke-width="0.100" stroke-linecap="round" opacity="0.8"/><line x1="-2.095" y1="-4.847" x2="2.095" y2="-4.847" stroke="#6b7280" stroke-width="0.100" stroke-linecap="round" opacity="0.8"/><line x1="-2.095" y1="-4.339" x2="-2.095" y2="-10.003" stroke="#6b7280" stroke-width="0.100" stroke-linecap="round" opacity="0.8"/><line x1="-1.460" y1="-3.704" x2="1.460" y2="-3.704" stroke="#6b7280" stroke-width="0.100" stroke-linecap="round" opacity="0.8"/><line x1="-0.314" y1="-10.719" x2="-0.060" y2="-10.973" stroke="#6b7280" stroke-width="0.100" stroke-linecap="round" opacity="0.8"/><line x1="-0.314" y1="-10.719" x2="0.314" y2="-10.719" stroke="#6b7280" stroke-width="0.100" stroke-linecap="round" opacity="0.8"/><line x1="-0.314" y1="-4.853" x2="-0.314" y2="-10.719" stroke="#6b7280" stroke-width="0.100" stroke-linecap="round" opacity="0.8"/><line x1="-0.060" y1="-10.973" x2="0.060" y2="-10.973" stroke="#6b7280" stroke-width="0.100" stroke-linecap="round" opacity="0.8"/><line x1="0.060" y1="-10.973" x2="0.314" y2="-10.719" stroke="#6b7280" stroke-width="0.100" stroke-linecap="round" opacity="0.8"/><line x1="0.314" y1="-4.847" x2="0.314" y2="-10.719" stroke="#6b7280" stroke-width="0.100" stroke-linecap="round" opacity="0.8"/><line x1="2.095" y1="-4.339" x2="2.095" y2="-10.003" stroke="#6b7280" stroke-width="0.100" stroke-linecap="round" opacity="0.8"/><line x1="27.178" y1="-4.009" x2="28.448" y2="-4.009" stroke="#6b7280" stroke-width="0.100" stroke-linecap="round" opacity="0.8"/><line x1="27.178" y1="-2.459" x2="27.178" y2="-11.273" stroke="#6b7280" stroke-width="0.100" stroke-linecap="round" opacity="0.8"/><line x1="28.448" y1="-4.847" x2="29.972" y2="-4.847" stroke="#6b7280" stroke-width="0.100" stroke-linecap="round" opacity="0.8"/><line x1="28.448" y1="-4.009" x2="28.448" y2="-6.295" stroke="#6b7280" stroke-width="0.100" stroke-linecap="round" opacity="0.8"/><line x1="29.972" y1="-4.009" x2="29.972" y2="-6.295" stroke="#6b7280" stroke-width="0.100" stroke-linecap="round" opacity="0.8"/><line x1="29.972" y1="-4.009" x2="31.242" y2="-4.009" stroke="#6b7280" stroke-width="0.100" stroke-linecap="round" opacity="0.8"/><line x1="31.242" y1="-2.459" x2="31.242" y2="-11.273" stroke="#6b7280" stroke-width="0.100" stroke-linecap="round" opacity="0.8"/><line x1="33.147" y1="-1.875" x2="33.147" y2="-2.459" stroke="#6b7280" stroke-width="0.100" stroke-linecap="round" opacity="0.8"/><line x1="33.655" y1="-1.875" x2="35.408" y2="-1.875" stroke="#6b7280" stroke-width="0.100" stroke-linecap="round" opacity="0.8"/><line x1="35.408" y1="-1.875" x2="35.408" y2="-11.273" stroke="#6b7280" stroke-width="0.100" stroke-linecap="round" opacity="0.8"/><line x1="-35.660" y1="-11.520" x2="35.660" y2="-11.520" stroke="#d24d4d" stroke-width="0.080" stroke-linecap="round" opacity="0.7"/><line x1="35.660" y1="-11.520" x2="35.660" y2="2.370" stroke="#d24d4d" stroke-width="0.080" stroke-linecap="round" opacity="0.7"/><line x1="35.660" y1="2.370" x2="-35.660" y2="2.370" stroke="#d24d4d" stroke-width="0.080" stroke-linecap="round" opacity="0.7"/><line x1="-35.660" y1="2.370" x2="-35.660" y2="-11.520" stroke="#d24d4d" stroke-width="0.080" stroke-linecap="round" opacity="0.7"/><path d="M -33.147 -1.875 A 0.254 0.254 0 0 1 -33.655 -1.875" fill="none" stroke="#e6e9ef" stroke-width="0.12" opacity="1"/><path d="M -27.432 -6.297 A 0.762 0.762 0 1 1 -25.908 -6.297" fill="none" stroke="#e6e9ef" stroke-width="0.12" opacity="1"/><path d="M -3.365 -11.273 A 1.270 1.270 0 0 1 -2.095 -10.003" fill="none" stroke="#e6e9ef" stroke-width="0.12" opacity="1"/><path d="M -1.460 -3.704 A 0.635 0.635 0 0 1 -2.095 -4.339" fill="none" stroke="#e6e9ef" stroke-width="0.12" opacity="1"/><path d="M 2.095 -10.003 A 1.270 1.270 0 0 1 3.365 -11.273" fill="none" stroke="#e6e9ef" stroke-width="0.12" opacity="1"/><path d="M 2.095 -4.339 A 0.635 0.635 0 0 1 1.460 -3.704" fill="none" stroke="#e6e9ef" stroke-width="0.12" opacity="1"/><path d="M 28.448 -6.295 A 0.762 0.762 0 0 1 29.972 -6.295" fill="none" stroke="#e6e9ef" stroke-width="0.12" opacity="1"/><path d="M 33.655 -1.875 A 0.254 0.254 0 0 1 33.147 -1.875" fill="none" stroke="#e6e9ef" stroke-width="0.12" opacity="1"/><path d="M -33.147 -1.875 A 0.254 0.254 0 0 1 -33.655 -1.875" fill="none" stroke="#6b7280" stroke-width="0.12" opacity="0.8"/><path d="M -27.432 -6.297 A 0.762 0.762 0 1 1 -25.908 -6.297" fill="none" stroke="#6b7280" stroke-width="0.12" opacity="0.8"/><path d="M -3.365 -11.273 A 1.270 1.270 0 0 1 -2.095 -10.003" fill="none" stroke="#6b7280" stroke-width="0.12" opacity="0.8"/><path d="M -1.460 -3.704 A 0.635 0.635 0 0 1 -2.095 -4.339" fill="none" stroke="#6b7280" stroke-width="0.12" opacity="0.8"/><path d="M 2.095 -10.003 A 1.270 1.270 0 0 1 3.365 -11.273" fill="none" stroke="#6b7280" stroke-width="0.12" opacity="0.8"/><path d="M 2.095 -4.339 A 0.635 0.635 0 0 1 1.460 -3.704" fill="none" stroke="#6b7280" stroke-width="0.12" opacity="0.8"/><path d="M 28.448 -6.295 A 0.762 0.762 0 0 1 29.972 -6.295" fill="none" stroke="#6b7280" stroke-width="0.12" opacity="0.8"/><path d="M 33.655 -1.875 A 0.254 0.254 0 0 1 33.147 -1.875" fill="none" stroke="#6b7280" stroke-width="0.12" opacity="0.8"/><circle cx="-32.250" cy="1.270" r="0.150" fill="#e6e9ef" opacity="1"/><circle cx="-32.250" cy="1.270" r="0.150" fill="#6b7280" opacity="0.8"/><rect x="-31.330" y="0.420" width="1.700" height="1.700" rx="0.850" fill="#c79b5c"/><circle cx="-30.480" cy="1.270" r="0.450" fill="#12151c"/><rect x="-31.330" y="-2.120" width="1.700" height="1.700" rx="0.850" fill="#c79b5c"/><circle cx="-30.480" cy="-1.270" r="0.450" fill="#12151c"/><rect x="-28.790" y="0.420" width="1.700" height="1.700" rx="0.850" fill="#c79b5c"/><circle cx="-27.940" cy="1.270" r="0.450" fill="#12151c"/><rect x="-28.790" y="-2.120" width="1.700" height="1.700" rx="0.850" fill="#c79b5c"/><circle cx="-27.940" cy="-1.270" r="0.450" fill="#12151c"/><rect x="-26.250" y="0.420" width="1.700" height="1.700" rx="0.850" fill="#c79b5c"/><circle cx="-25.400" cy="1.270" r="0.450" fill="#12151c"/><rect x="-26.250" y="-2.120" width="1.700" height="1.700" rx="0.850" fill="#c79b5c"/><circle cx="-25.400" cy="-1.270" r="0.450" fill="#12151c"/><rect x="-23.710" y="0.420" width="1.700" height="1.700" rx="0.850" fill="#c79b5c"/><circle cx="-22.860" cy="1.270" r="0.450" fill="#12151c"/><rect x="-23.710" y="-2.120" width="1.700" height="1.700" rx="0.850" fill="#c79b5c"/><circle cx="-22.860" cy="-1.270" r="0.450" fill="#12151c"/><rect x="-21.170" y="0.420" width="1.700" height="1.700" rx="0.850" fill="#c79b5c"/><circle cx="-20.320" cy="1.270" r="0.450" fill="#12151c"/><rect x="-21.170" y="-2.120" width="1.700" height="1.700" rx="0.850" fill="#c79b5c"/><circle cx="-20.320" cy="-1.270" r="0.450" fill="#12151c"/><rect x="-18.630" y="0.420" width="1.700" height="1.700" rx="0.850" fill="#c79b5c"/><circle cx="-17.780" cy="1.270" r="0.450" fill="#12151c"/><rect x="-18.630" y="-2.120" width="1.700" height="1.700" rx="0.850" fill="#c79b5c"/><circle cx="-17.780" cy="-1.270" r="0.450" fill="#12151c"/><rect x="-16.090" y="0.420" width="1.700" height="1.700" rx="0.850" fill="#c79b5c"/><circle cx="-15.240" cy="1.270" r="0.450" fill="#12151c"/><rect x="-16.090" y="-2.120" width="1.700" height="1.700" rx="0.850" fill="#c79b5c"/><circle cx="-15.240" cy="-1.270" r="0.450" fill="#12151c"/><rect x="-13.550" y="0.420" width="1.700" height="1.700" rx="0.850" fill="#c79b5c"/><circle cx="-12.700" cy="1.270" r="0.450" fill="#12151c"/><rect x="-13.550" y="-2.120" width="1.700" height="1.700" rx="0.850" fill="#c79b5c"/><circle cx="-12.700" cy="-1.270" r="0.450" fill="#12151c"/><rect x="-11.010" y="0.420" width="1.700" height="1.700" rx="0.850" fill="#c79b5c"/><circle cx="-10.160" cy="1.270" r="0.450" fill="#12151c"/><rect x="-11.010" y="-2.120" width="1.700" height="1.700" rx="0.850" fill="#c79b5c"/><circle cx="-10.160" cy="-1.270" r="0.450" fill="#12151c"/><rect x="-8.470" y="0.420" width="1.700" height="1.700" rx="0.850" fill="#c79b5c"/><circle cx="-7.620" cy="1.270" r="0.450" fill="#12151c"/><rect x="-8.470" y="-2.120" width="1.700" height="1.700" rx="0.850" fill="#c79b5c"/><circle cx="-7.620" cy="-1.270" r="0.450" fill="#12151c"/><rect x="-5.930" y="0.420" width="1.700" height="1.700" rx="0.850" fill="#c79b5c"/><circle cx="-5.080" cy="1.270" r="0.450" fill="#12151c"/><rect x="-5.930" y="-2.120" width="1.700" height="1.700" rx="0.850" fill="#c79b5c"/><circle cx="-5.080" cy="-1.270" r="0.450" fill="#12151c"/><rect x="-3.390" y="0.420" width="1.700" height="1.700" rx="0.850" fill="#c79b5c"/><circle cx="-2.540" cy="1.270" r="0.450" fill="#12151c"/><rect x="-3.390" y="-2.120" width="1.700" height="1.700" rx="0.850" fill="#c79b5c"/><circle cx="-2.540" cy="-1.270" r="0.450" fill="#12151c"/><rect x="-0.850" y="0.420" width="1.700" height="1.700" rx="0.850" fill="#c79b5c"/><circle cx="-0.000" cy="1.270" r="0.450" fill="#12151c"/><rect x="-0.850" y="-2.120" width="1.700" height="1.700" rx="0.850" fill="#c79b5c"/><circle cx="-0.000" cy="-1.270" r="0.450" fill="#12151c"/><rect x="1.690" y="0.420" width="1.700" height="1.700" rx="0.850" fill="#c79b5c"/><circle cx="2.540" cy="1.270" r="0.450" fill="#12151c"/><rect x="1.690" y="-2.120" width="1.700" height="1.700" rx="0.850" fill="#c79b5c"/><circle cx="2.540" cy="-1.270" r="0.450" fill="#12151c"/><rect x="4.230" y="0.420" width="1.700" height="1.700" rx="0.850" fill="#c79b5c"/><circle cx="5.080" cy="1.270" r="0.450" fill="#12151c"/><rect x="4.230" y="-2.120" width="1.700" height="1.700" rx="0.850" fill="#c79b5c"/><circle cx="5.080" cy="-1.270" r="0.450" fill="#12151c"/><rect x="6.770" y="0.420" width="1.700" height="1.700" rx="0.850" fill="#c79b5c"/><circle cx="7.620" cy="1.270" r="0.450" fill="#12151c"/><rect x="6.770" y="-2.120" width="1.700" height="1.700" rx="0.850" fill="#c79b5c"/><circle cx="7.620" cy="-1.270" r="0.450" fill="#12151c"/><rect x="9.310" y="0.420" width="1.700" height="1.700" rx="0.850" fill="#c79b5c"/><circle cx="10.160" cy="1.270" r="0.450" fill="#12151c"/><rect x="9.310" y="-2.120" width="1.700" height="1.700" rx="0.850" fill="#c79b5c"/><circle cx="10.160" cy="-1.270" r="0.450" fill="#12151c"/><rect x="11.850" y="0.420" width="1.700" height="1.700" rx="0.850" fill="#c79b5c"/><circle cx="12.700" cy="1.270" r="0.450" fill="#12151c"/><rect x="11.850" y="-2.120" width="1.700" height="1.700" rx="0.850" fill="#c79b5c"/><circle cx="12.700" cy="-1.270" r="0.450" fill="#12151c"/><rect x="14.390" y="0.420" width="1.700" height="1.700" rx="0.850" fill="#c79b5c"/><circle cx="15.240" cy="1.270" r="0.450" fill="#12151c"/><rect x="14.390" y="-2.120" width="1.700" height="1.700" rx="0.850" fill="#c79b5c"/><circle cx="15.240" cy="-1.270" r="0.450" fill="#12151c"/><rect x="16.930" y="0.420" width="1.700" height="1.700" rx="0.850" fill="#c79b5c"/><circle cx="17.780" cy="1.270" r="0.450" fill="#12151c"/><rect x="16.930" y="-2.120" width="1.700" height="1.700" rx="0.850" fill="#c79b5c"/><circle cx="17.780" cy="-1.270" r="0.450" fill="#12151c"/><rect x="19.470" y="0.420" width="1.700" height="1.700" rx="0.850" fill="#c79b5c"/><circle cx="20.320" cy="1.270" r="0.450" fill="#12151c"/><rect x="19.470" y="-2.120" width="1.700" height="1.700" rx="0.850" fill="#c79b5c"/><circle cx="20.320" cy="-1.270" r="0.450" fill="#12151c"/><rect x="22.010" y="0.420" width="1.700" height="1.700" rx="0.850" fill="#c79b5c"/><circle cx="22.860" cy="1.270" r="0.450" fill="#12151c"/><rect x="22.010" y="-2.120" width="1.700" height="1.700" rx="0.850" fill="#c79b5c"/><circle cx="22.860" cy="-1.270" r="0.450" fill="#12151c"/><rect x="24.550" y="0.420" width="1.700" height="1.700" rx="0.850" fill="#c79b5c"/><circle cx="25.400" cy="1.270" r="0.450" fill="#12151c"/><rect x="24.550" y="-2.120" width="1.700" height="1.700" rx="0.850" fill="#c79b5c"/><circle cx="25.400" cy="-1.270" r="0.450" fill="#12151c"/><rect x="27.090" y="0.420" width="1.700" height="1.700" rx="0.850" fill="#c79b5c"/><circle cx="27.940" cy="1.270" r="0.450" fill="#12151c"/><rect x="27.090" y="-2.120" width="1.700" height="1.700" rx="0.850" fill="#c79b5c"/><circle cx="27.940" cy="-1.270" r="0.450" fill="#12151c"/><rect x="29.630" y="0.420" width="1.700" height="1.700" rx="0.850" fill="#c79b5c"/><circle cx="30.480" cy="1.270" r="0.450" fill="#12151c"/><rect x="29.630" y="-2.120" width="1.700" height="1.700" rx="0.850" fill="#c79b5c"/><circle cx="30.480" cy="-1.270" r="0.450" fill="#12151c"/></svg>