<svg xmlns="http://www.w3.org/2000/svg" viewBox="-3.75 -4.20 7.50 8.40" preserveAspectRatio="xMidYMid meet" style="width:100%;height:100%"><rect x="-3.75" y="-4.20" width="7.50" height="8.40" fill="#12151c"/><line x1="-1.750" y1="-2.200" x2="1.750" y2="-2.200" stroke="#e6e9ef" stroke-width="0.200" stroke-linecap="round" opacity="1"/><line x1="-1.750" y1="2.200" x2="-1.750" y2="-2.200" stroke="#e6e9ef" stroke-width="0.200" stroke-linecap="round" opacity="1"/><line x1="-1.750" y1="2.200" x2="1.750" y2="2.200" stroke="#e6e9ef" stroke-width="0.200" stroke-linecap="round" opacity="1"/><line x1="1.750" y1="2.200" x2="1.750" y2="-2.200" stroke="#e6e9ef" stroke-width="0.200" stroke-linecap="round" opacity="1"/><line x1="-2.750" y1="-3.200" x2="2.750" y2="-3.200" stroke="#d24d4d" stroke-width="0.080" stroke-linecap="round" opacity="0.7"/><line x1="-2.750" y1="3.200" x2="-2.750" y2="-3.200" stroke="#d24d4d" stroke-width="0.080" stroke-linecap="round" opacity="0.7"/><line x1="-2.750" y1="3.200" x2="2.750" y2="3.200" stroke="#d24d4d" stroke-width="0.080" stroke-linecap="round" opacity="0.7"/><line x1="2.750" y1="3.200" x2="2.750" y2="-3.200" stroke="#d24d4d" stroke-width="0.080" stroke-linecap="round" opacity="0.7"/><line x1="-1.550" y1="-2.000" x2="1.550" y2="-2.000" stroke="#6b7280" stroke-width="0.100" stroke-linecap="round" opacity="0.8"/><line x1="-1.550" y1="2.000" x2="-1.550" y2="-2.000" stroke="#6b7280" stroke-width="0.100" stroke-linecap="round" opacity="0.8"/><line x1="-1.550" y1="2.000" x2="1.550" y2="2.000" stroke="#6b7280" stroke-width="0.100" stroke-linecap="round" opacity="0.8"/><line x1="-1.500" y1="-1.950" x2="1.500" y2="-1.950" stroke="#6b7280" stroke-width="0.100" stroke-linecap="round" opacity="0.8"/><line x1="-1.500" y1="-1.850" x2="-1.400" y2="-1.950" stroke="#6b7280" stroke-width="0.100" stroke-linecap="round" opacity="0.8"/><line x1="-1.500" y1="-1.750" x2="-1.300" y2="-1.950" stroke="#6b7280" stroke-width="0.100" stroke-linecap="round" opacity="0.8"/><line x1="-1.500" y1="-1.650" x2="-1.200" y2="-1.950" stroke="#6b7280" stroke-width="0.100" stroke-linecap="round" opacity="0.8"/><line x1="-1.500" y1="-1.550" x2="-1.100" y2="-1.950" stroke="#6b7280" stroke-width="0.100" stroke-linecap="round" opacity="0.8"/><line x1="-1.500" y1="-1.450" x2="-1.000" y2="-1.950" stroke="#6b7280" stroke-width="0.100" stroke-linecap="round" opacity="0.8"/><line x1="-1.500" y1="-1.350" x2="-0.900" y2="-1.950" stroke="#6b7280" stroke-width="0.100" stroke-linecap="round" opacity="0.8"/><line x1="-1.500" y1="-1.250" x2="-0.800" y2="-1.950" stroke="#6b7280" stroke-width="0.100" stroke-linecap="round" opacity="0.8"/><line x1="-1.500" y1="-1.150" x2="-0.700" y2="-1.950" stroke="#6b7280" stroke-width="0.100" stroke-linecap="round" opacity="0.8"/><line x1="-1.500" y1="-1.050" x2="-0.600" y2="-1.950" stroke="#6b7280" stroke-width="0.100" stroke-linecap="round" opacity="0.8"/><line x1="-1.500" y1="-0.950" x2="-0.500" y2="-1.950" stroke="#6b7280" stroke-width="0.100" stroke-linecap="round" opacity="0.8"/><line x1="-1.500" y1="1.950" x2="-1.500" y2="-1.950" stroke="#6b7280" stroke-width="0.100" stroke-linecap="round" opacity="0.8"/><line x1="-1.500" y1="1.950" x2="1.500" y2="1.950" stroke="#6b7280" stroke-width="0.100" stroke-linecap="round" opacity="0.8"/><line x1="1.500" y1="1.950" x2="1.500" y2="-1.950" stroke="#6b7280" stroke-width="0.100" stroke-linecap="round" opacity="0.8"/><line x1="1.550" y1="2.000" x2="1.550" y2="-2.000" stroke="#6b7280" stroke-width="0.100" stroke-linecap="round" opacity="0.8"/><circle cx="-2.300" cy="-1.800" r="0.125" fill="none" stroke="#e6e9ef" stroke-width="0.12" opacity="1"/><rect x="-1.163" y="-1.913" width="0.225" height="0.225" rx="0.113" fill="#c79b5c"/><rect x="-0.863" y="-1.913" width="0.225" height="0.225" rx="0.113" fill="#c79b5c"/><rect x="-0.562" y="-1.913" width="0.225" height="0.225" rx="0.113" fill="#c79b5c"/><rect x="-0.263" y="-1.913" width="0.225" height="0.225" rx="0.113" fill="#c79b5c"/><rect x="0.037" y="-1.913" width="0.225" height="0.225" rx="0.113" fill="#c79b5c"/><rect x="0.338" y="-1.913" width="0.225" height="0.225" rx="0.113" fill="#c79b5c"/><rect x="0.637" y="-1.913" width="0.225" height="0.225" rx="0.113" fill="#c79b5c"/><rect x="0.938" y="-1.913" width="0.225" height="0.225" rx="0.113" fill="#c79b5c"/><rect x="-1.163" y="-1.613" width="0.225" height="0.225" rx="0.113" fill="#c79b5c"/><rect x="-0.863" y="-1.613" width="0.225" height="0.225" rx="0.113" fill="#c79b5c"/><rect x="-0.562" y="-1.613" width="0.225" height="0.225" rx="0.113" fill="#c79b5c"/><rect x="-0.263" y="-1.613" width="0.225" height="0.225" rx="0.113" fill="#c79b5c"/><rect x="0.037" y="-1.613" width="0.225" height="0.225" rx="0.113" fill="#c79b5c"/><rect x="0.337" y="-1.613" width="0.225" height="0.225" rx="0.113" fill="#c79b5c"/><rect x="0.637" y="-1.613" width="0.225" height="0.225" rx="0.113" fill="#c79b5c"/><rect x="0.937" y="-1.613" width="0.225" height="0.225" rx="0.113" fill="#c79b5c"/><rect x="1.237" y="-1.613" width="0.225" height="0.225" rx="0.113" fill="#c79b5c"/><rect x="-1.463" y="-1.312" width="0.225" height="0.225" rx="0.113" fill="#c79b5c"/><rect x="-1.163" y="-1.312" width="0.225" height="0.225" rx="0.113" fill="#c79b5c"/><rect x="-0.863" y="-1.312" width="0.225" height="0.225" rx="0.113" fill="#c79b5c"/><rect x="-0.562" y="-1.312" width="0.225" height="0.225" rx="0.113" fill="#c79b5c"/><rect x="-0.263" y="-1.312" width="0.225" height="0.225" rx="0.113" fill="#c79b5c"/><rect x="0.038" y="-1.312" width="0.225" height="0.225" rx="0.113" fill="#c79b5c"/><rect x="0.338" y="-1.312" width="0.225" height="0.225" rx="0.113" fill="#c79b5c"/><rect x="0.638" y="-1.312" width="0.225" height="0.225" rx="0.113" fill="#c79b5c"/><rect x="0.938" y="-1.312" width="0.225" height="0.225" rx="0.113" fill="#c79b5c"/><rect x="1.238" y="-1.312" width="0.225" height="0.225" rx="0.113" fill="#c79b5c"/><rect x="-1.463" y="-1.012" width="0.225" height="0.225" rx="0.113" fill="#c79b5c"/><rect x="-1.163" y="-1.012" width="0.225" height="0.225" rx="0.113" fill="#c79b5c"/><rect x="-0.863" y="-1.012" width="0.225" height="0.225" rx="0.113" fill="#c79b5c"/><rect x="-0.562" y="-1.012" width="0.225" height="0.225" rx="0.113" fill="#c79b5c"/><rect x="-0.263" y="-1.012" width="0.225" height="0.225" rx="0.113" fill="#c79b5c"/><rect x="0.038" y="-1.012" width="0.225" height="0.225" rx="0.113" fill="#c79b5c"/><rect x="0.338" y="-1.012" width="0.225" height="0.225" rx="0.113" fill="#c79b5c"/><rect x="0.638" y="-1.012" width="0.225" height="0.225" rx="0.113" fill="#c79b5c"/><rect x="0.938" y="-1.012" width="0.225" height="0.225" rx="0.113" fill="#c79b5c"/><rect x="1.238" y="-1.012" width="0.225" height="0.225" rx="0.113" fill="#c79b5c"/><rect x="-1.463" y="-0.713" width="0.225" height="0.225" rx="0.113" fill="#c79b5c"/><rect x="-1.163" y="-0.713" width="0.225" height="0.225" rx="0.113" fill="#c79b5c"/><rect x="-0.863" y="-0.713" width="0.225" height="0.225" rx="0.113" fill="#c79b5c"/><rect x="-0.562" y="-0.713" width="0.225" height="0.225" rx="0.113" fill="#c79b5c"/><rect x="-0.263" y="-0.713" width="0.225" height="0.225" rx="0.113" fill="#c79b5c"/><rect x="0.038" y="-0.713" width="0.225" height="0.225" rx="0.113" fill="#c79b5c"/><rect x="0.338" y="-0.713" width="0.225" height="0.225" rx="0.113" fill="#c79b5c"/><rect x="0.638" y="-0.713" width="0.225" height="0.225" rx="0.113" fill="#c79b5c"/><rect x="0.938" y="-0.713" width="0.225" height="0.225" rx="0.113" fill="#c79b5c"/><rect x="1.238" y="-0.713" width="0.225" height="0.225" rx="0.113" fill="#c79b5c"/><rect x="-1.463" y="-0.412" width="0.225" height="0.225" rx="0.113" fill="#c79b5c"/><rect x="-1.163" y="-0.412" width="0.225" height="0.225" rx="0.113" fill="#c79b5c"/><rect x="-0.863" y="-0.412" width="0.225" height="0.225" rx="0.113" fill="#c79b5c"/><rect x="-0.562" y="-0.412" width="0.225" height="0.225" rx="0.113" fill="#c79b5c"/><rect x="-0.263" y="-0.412" width="0.225" height="0.225" rx="0.113" fill="#c79b5c"/><rect x="0.038" y="-0.412" width="0.225" height="0.225" rx="0.113" fill="#c79b5c"/><rect x="0.338" y="-0.412" width="0.225" height="0.225" rx="0.113" fill="#c79b5c"/><rect x="0.638" y="-0.412" width="0.225" height="0.225" rx="0.113" fill="#c79b5c"/><rect x="0.938" y="-0.412" width="0.225" height="0.225" rx="0.113" fill="#c79b5c"/><rect x="1.238" y="-0.412" width="0.225" height="0.225" rx="0.113" fill="#c79b5c"/><rect x="-1.463" y="-0.113" width="0.225" height="0.225" rx="0.113" fill="#c79b5c"/><rect x="-1.163" y="-0.113" width="0.225" height="0.225" rx="0.113" fill="#c79b5c"/><rect x="-0.863" y="-0.113" width="0.225" height="0.225" rx="0.113" fill="#c79b5c"/><rect x="-0.562" y="-0.113" width="0.225" height="0.225" rx="0.113" fill="#c79b5c"/><rect x="-0.263" y="-0.113" width="0.225" height="0.225" rx="0.113" fill="#c79b5c"/><rect x="0.038" y="-0.113" width="0.225" height="0.225" rx="0.113" fill="#c79b5c"/><rect x="0.338" y="-0.113" width="0.225" height="0.225" rx="0.113" fill="#c79b5c"/><rect x="0.638" y="-0.113" width="0.225" height="0.225" rx="0.113" fill="#c79b5c"/><rect x="0.938" y="-0.113" width="0.225" height="0.225" rx="0.113" fill="#c79b5c"/><rect x="1.238" y="-0.113" width="0.225" height="0.225" rx="0.113" fill="#c79b5c"/><rect x="-1.463" y="0.188" width="0.225" height="0.225" rx="0.113" fill="#c79b5c"/><rect x="-1.163" y="0.188" width="0.225" height="0.225" rx="0.113" fill="#c79b5c"/><rect x="-0.863" y="0.188" width="0.225" height="0.225" rx="0.113" fill="#c79b5c"/><rect x="-0.562" y="0.188" width="0.225" height="0.225" rx="0.113" fill="#c79b5c"/><rect x="-0.263" y="0.188" width="0.225" height="0.225" rx="0.113" fill="#c79b5c"/><rect x="0.038" y="0.188" width="0.225" height="0.225" rx="0.113" fill="#c79b5c"/><rect x="0.338" y="0.188" width="0.225" height="0.225" rx="0.113" fill="#c79b5c"/><rect x="0.638" y="0.188" width="0.225" height="0.225" rx="0.113" fill="#c79b5c"/><rect x="0.938" y="0.188" width="0.225" height="0.225" rx="0.113" fill="#c79b5c"/><rect x="1.238" y="0.188" width="0.225" height="0.225" rx="0.113" fill="#c79b5c"/><rect x="-1.463" y="0.487" width="0.225" height="0.225" rx="0.113" fill="#c79b5c"/><rect x="-1.163" y="0.487" width="0.225" height="0.225" rx="0.113" fill="#c79b5c"/><rect x="-0.863" y="0.487" width="0.225" height="0.225" rx="0.113" fill="#c79b5c"/><rect x="-0.562" y="0.487" width="0.225" height="0.225" rx="0.113" fill="#c79b5c"/><rect x="-0.263" y="0.487" width="0.225" height="0.225" rx="0.113" fill="#c79b5c"/><rect x="0.038" y="0.487" width="0.225" height="0.225" rx="0.113" fill="#c79b5c"/><rect x="0.338" y="0.487" width="0.225" height="0.225" rx="0.113" fill="#c79b5c"/><rect x="0.638" y="0.487" width="0.225" height="0.225" rx="0.113" fill="#c79b5c"/><rect x="0.938" y="0.487" width="0.225" height="0.225" rx="0.113" fill="#c79b5c"/><rect x="1.238" y="0.487" width="0.225" height="0.225" rx="0.113" fill="#c79b5c"/><rect x="-1.463" y="0.788" width="0.225" height="0.225" rx="0.113" fill="#c79b5c"/><rect x="-1.163" y="0.788" width="0.225" height="0.225" rx="0.113" fill="#c79b5c"/><rect x="-0.863" y="0.788" width="0.225" height="0.225" rx="0.113" fill="#c79b5c"/><rect x="-0.562" y="0.788" width="0.225" height="0.225" rx="0.113" fill="#c79b5c"/><rect x="-0.263" y="0.788" width="0.225" height="0.225" rx="0.113" fill="#c79b5c"/><rect x="0.038" y="0.788" width="0.225" height="0.225" rx="0.113" fill="#c79b5c"/><rect x="0.338" y="0.788" width="0.225" height="0.225" rx="0.113" fill="#c79b5c"/><rect x="0.638" y="0.788" width="0.225" height="0.225" rx="0.113" fill="#c79b5c"/><rect x="0.938" y="0.788" width="0.225" height="0.225" rx="0.113" fill="#c79b5c"/><rect x="1.238" y="0.788" width="0.225" height="0.225" rx="0.113" fill="#c79b5c"/><rect x="-1.463" y="1.088" width="0.225" height="0.225" rx="0.113" fill="#c79b5c"/><rect x="-1.163" y="1.088" width="0.225" height="0.225" rx="0.113" fill="#c79b5c"/><rect x="-0.863" y="1.088" width="0.225" height="0.225" rx="0.113" fill="#c79b5c"/><rect x="-0.562" y="1.088" width="0.225" height="0.225" rx="0.113" fill="#c79b5c"/><rect x="-0.263" y="1.088" width="0.225" height="0.225" rx="0.113" fill="#c79b5c"/><rect x="0.038" y="1.088" width="0.225" height="0.225" rx="0.113" fill="#c79b5c"/><rect x="0.338" y="1.088" width="0.225" height="0.225" rx="0.113" fill="#c79b5c"/><rect x="0.638" y="1.088" width="0.225" height="0.225" rx="0.113" fill="#c79b5c"/><rect x="0.938" y="1.088" width="0.225" height="0.225" rx="0.113" fill="#c79b5c"/><rect x="1.238" y="1.088" width="0.225" height="0.225" rx="0.113" fill="#c79b5c"/><rect x="-1.463" y="1.388" width="0.225" height="0.225" rx="0.113" fill="#c79b5c"/><rect x="-1.163" y="1.388" width="0.225" height="0.225" rx="0.113" fill="#c79b5c"/><rect x="-0.863" y="1.388" width="0.225" height="0.225" rx="0.113" fill="#c79b5c"/><rect x="-0.562" y="1.388" width="0.225" height="0.225" rx="0.113" fill="#c79b5c"/><rect x="-0.263" y="1.388" width="0.225" height="0.225" rx="0.113" fill="#c79b5c"/><rect x="0.037" y="1.388" width="0.225" height="0.225" rx="0.113" fill="#c79b5c"/><rect x="0.338" y="1.388" width="0.225" height="0.225" rx="0.113" fill="#c79b5c"/><rect x="0.637" y="1.388" width="0.225" height="0.225" rx="0.113" fill="#c79b5c"/><rect x="0.938" y="1.388" width="0.225" height="0.225" rx="0.113" fill="#c79b5c"/><rect x="1.238" y="1.388" width="0.225" height="0.225" rx="0.113" fill="#c79b5c"/><rect x="-1.163" y="1.688" width="0.225" height="0.225" rx="0.113" fill="#c79b5c"/><rect x="-0.863" y="1.688" width="0.225" height="0.225" rx="0.113" fill="#c79b5c"/><rect x="-0.562" y="1.688" width="0.225" height="0.225" rx="0.113" fill="#c79b5c"/><rect x="-0.263" y="1.688" width="0.225" height="0.225" rx="0.113" fill="#c79b5c"/><rect x="0.037" y="1.688" width="0.225" height="0.225" rx="0.113" fill="#c79b5c"/><rect x="0.338" y="1.688" width="0.225" height="0.225" rx="0.113" fill="#c79b5c"/><rect x="0.637" y="1.688" width="0.225" height="0.225" rx="0.113" fill="#c79b5c"/><rect x="0.938" y="1.688" width="0.225" height="0.225" rx="0.113" fill="#c79b5c"/></svg>