<svg xmlns="http://www.w3.org/2000/svg" viewBox="-3.23 -3.23 6.45 6.45" preserveAspectRatio="xMidYMid meet" style="width:100%;height:100%"><rect x="-3.23" y="-3.23" width="6.45" height="6.45" fill="#12151c"/><line x1="-1.725" y1="0.325" x2="-1.725" y2="-0.325" stroke="#e6e9ef" stroke-width="0.200" stroke-linecap="round" opacity="1"/><line x1="-0.325" y1="-1.725" x2="0.325" y2="-1.725" stroke="#e6e9ef" stroke-width="0.200" stroke-linecap="round" opacity="1"/><line x1="-0.325" y1="1.725" x2="0.325" y2="1.725" stroke="#e6e9ef" stroke-width="0.200" stroke-linecap="round" opacity="1"/><line x1="1.725" y1="0.325" x2="1.725" y2="-0.325" stroke="#e6e9ef" stroke-width="0.200" stroke-linecap="round" opacity="1"/><line x1="-1.975" y1="-1.975" x2="-0.675" y2="-1.975" stroke="#4a5160" stroke-width="0.080" stroke-linecap="round" opacity="0.7"/><line x1="-1.975" y1="-0.675" x2="-1.975" y2="-1.975" stroke="#4a5160" stroke-width="0.080" stroke-linecap="round" opacity="0.7"/><line x1="-1.975" y1="-0.675" x2="-1.052" y2="-0.675" stroke="#4a5160" stroke-width="0.080" stroke-linecap="round" opacity="0.7"/><line x1="-1.975" y1="0.675" x2="-1.052" y2="0.675" stroke="#4a5160" stroke-width="0.080" stroke-linecap="round" opacity="0.7"/><line x1="-1.975" y1="1.975" x2="-1.975" y2="0.675" stroke="#4a5160" stroke-width="0.080" stroke-linecap="round" opacity="0.7"/><line x1="-1.975" y1="1.975" x2="-0.675" y2="1.975" stroke="#4a5160" stroke-width="0.080" stroke-linecap="round" opacity="0.7"/><line x1="-1.525" y1="-1.325" x2="-1.325" y2="-1.325" stroke="#4a5160" stroke-width="0.080" stroke-linecap="round" opacity="0.7"/><line x1="-1.525" y1="1.325" x2="-1.325" y2="1.325" stroke="#4a5160" stroke-width="0.080" stroke-linecap="round" opacity="0.7"/><line x1="-1.325" y1="-1.325" x2="-1.325" y2="-1.525" stroke="#4a5160" stroke-width="0.080" stroke-linecap="round" opacity="0.7"/><line x1="-1.325" y1="-1.325" x2="-1.325" y2="-1.125" stroke="#4a5160" stroke-width="0.080" stroke-linecap="round" opacity="0.7"/><line x1="-1.325" y1="-1.325" x2="-1.125" y2="-1.325" stroke="#4a5160" stroke-width="0.080" stroke-linecap="round" opacity="0.7"/><line x1="-1.325" y1="1.325" x2="-1.325" y2="1.125" stroke="#4a5160" stroke-width="0.080" stroke-linecap="round" opacity="0.7"/><line x1="-1.325" y1="1.325" x2="-1.125" y2="1.325" stroke="#4a5160" stroke-width="0.080" stroke-linecap="round" opacity="0.7"/><line x1="-1.325" y1="1.525" x2="-1.325" y2="1.325" stroke="#4a5160" stroke-width="0.080" stroke-linecap="round" opacity="0.7"/><line x1="-0.675" y1="-1.052" x2="-0.675" y2="-1.975" stroke="#4a5160" stroke-width="0.080" stroke-linecap="round" opacity="0.7"/><line x1="-0.675" y1="1.975" x2="-0.675" y2="1.052" stroke="#4a5160" stroke-width="0.080" stroke-linecap="round" opacity="0.7"/><line x1="-0.500" y1="0.000" x2="0.000" y2="0.000" stroke="#4a5160" stroke-width="0.080" stroke-linecap="round" opacity="0.7"/><line x1="0.000" y1="0.000" x2="0.000" y2="-0.500" stroke="#4a5160" stroke-width="0.080" stroke-linecap="round" opacity="0.7"/><line x1="0.000" y1="0.000" x2="0.500" y2="0.000" stroke="#4a5160" stroke-width="0.080" stroke-linecap="round" opacity="0.7"/><line x1="0.000" y1="0.500" x2="0.000" y2="0.000" stroke="#4a5160" stroke-width="0.080" stroke-linecap="round" opacity="0.7"/><line x1="0.675" y1="-1.975" x2="1.975" y2="-1.975" stroke="#4a5160" stroke-width="0.080" stroke-linecap="round" opacity="0.7"/><line x1="0.675" y1="-1.052" x2="0.675" y2="-1.975" stroke="#4a5160" stroke-width="0.080" stroke-linecap="round" opacity="0.7"/><line x1="0.675" y1="1.975" x2="0.675" y2="1.052" stroke="#4a5160" stroke-width="0.080" stroke-linecap="round" opacity="0.7"/><line x1="0.675" y1="1.975" x2="1.975" y2="1.975" stroke="#4a5160" stroke-width="0.080" stroke-linecap="round" opacity="0.7"/><line x1="1.052" y1="-0.675" x2="1.975" y2="-0.675" stroke="#4a5160" stroke-width="0.080" stroke-linecap="round" opacity="0.7"/><line x1="1.052" y1="0.675" x2="1.975" y2="0.675" stroke="#4a5160" stroke-width="0.080" stroke-linecap="round" opacity="0.7"/><line x1="1.125" y1="-1.325" x2="1.325" y2="-1.325" stroke="#4a5160" stroke-width="0.080" stroke-linecap="round" opacity="0.7"/><line x1="1.125" y1="1.325" x2="1.325" y2="1.325" stroke="#4a5160" stroke-width="0.080" stroke-linecap="round" opacity="0.7"/><line x1="1.325" y1="-1.325" x2="1.325" y2="-1.525" stroke="#4a5160" stroke-width="0.080" stroke-linecap="round" opacity="0.7"/><line x1="1.325" y1="-1.325" x2="1.525" y2="-1.325" stroke="#4a5160" stroke-width="0.080" stroke-linecap="round" opacity="0.7"/><line x1="1.325" y1="-1.125" x2="1.325" y2="-1.325" stroke="#4a5160" stroke-width="0.080" stroke-linecap="round" opacity="0.7"/><line x1="1.325" y1="1.325" x2="1.325" y2="1.125" stroke="#4a5160" stroke-width="0.080" stroke-linecap="round" opacity="0.7"/><line x1="1.325" y1="1.325" x2="1.525" y2="1.325" stroke="#4a5160" stroke-width="0.080" stroke-linecap="round" opacity="0.7"/><line x1="1.325" y1="1.525" x2="1.325" y2="1.325" stroke="#4a5160" stroke-width="0.080" stroke-linecap="round" opacity="0.7"/><line x1="1.975" y1="-0.675" x2="1.975" y2="-1.975" stroke="#4a5160" stroke-width="0.080" stroke-linecap="round" opacity="0.7"/><line x1="1.975" y1="1.975" x2="1.975" y2="0.675" stroke="#4a5160" stroke-width="0.080" stroke-linecap="round" opacity="0.7"/><line x1="-2.225" y1="-2.225" x2="2.225" y2="-2.225" stroke="#d24d4d" stroke-width="0.080" stroke-linecap="round" opacity="0.7"/><line x1="-2.225" y1="2.225" x2="-2.225" y2="-2.225" stroke="#d24d4d" stroke-width="0.080" stroke-linecap="round" opacity="0.7"/><line x1="-2.225" y1="2.225" x2="2.225" y2="2.225" stroke="#d24d4d" stroke-width="0.080" stroke-linecap="round" opacity="0.7"/><line x1="2.225" y1="2.225" x2="2.225" y2="-2.225" stroke="#d24d4d" stroke-width="0.080" stroke-linecap="round" opacity="0.7"/><line x1="-1.725" y1="-1.725" x2="1.725" y2="-1.725" stroke="#6b7280" stroke-width="0.100" stroke-linecap="round" opacity="0.8"/><line x1="-1.725" y1="1.725" x2="-1.725" y2="-1.725" stroke="#6b7280" stroke-width="0.100" stroke-linecap="round" opacity="0.8"/><line x1="-1.725" y1="1.725" x2="1.725" y2="1.725" stroke="#6b7280" stroke-width="0.100" stroke-linecap="round" opacity="0.8"/><line x1="-0.335" y1="-0.100" x2="-0.230" y2="-0.011" stroke="#6b7280" stroke-width="0.100" stroke-linecap="round" opacity="0.8"/><line x1="-0.335" y1="0.100" x2="-0.230" y2="0.011" stroke="#6b7280" stroke-width="0.100" stroke-linecap="round" opacity="0.8"/><line x1="-0.230" y1="-0.011" x2="-0.140" y2="-0.011" stroke="#6b7280" stroke-width="0.100" stroke-linecap="round" opacity="0.8"/><line x1="-0.230" y1="0.011" x2="-0.140" y2="0.011" stroke="#6b7280" stroke-width="0.100" stroke-linecap="round" opacity="0.8"/><line x1="0.140" y1="-0.011" x2="0.230" y2="-0.011" stroke="#6b7280" stroke-width="0.100" stroke-linecap="round" opacity="0.8"/><line x1="0.140" y1="0.011" x2="0.230" y2="0.011" stroke="#6b7280" stroke-width="0.100" stroke-linecap="round" opacity="0.8"/><line x1="0.230" y1="-0.011" x2="0.335" y2="-0.100" stroke="#6b7280" stroke-width="0.100" stroke-linecap="round" opacity="0.8"/><line x1="0.230" y1="0.011" x2="0.335" y2="0.100" stroke="#6b7280" stroke-width="0.100" stroke-linecap="round" opacity="0.8"/><line x1="1.725" y1="1.725" x2="1.725" y2="-1.725" stroke="#6b7280" stroke-width="0.100" stroke-linecap="round" opacity="0.8"/><path d="M -1.408 0.325 A 1.445 1.445 0 0 1 -1.408 -0.325" fill="none" stroke="#e6e9ef" stroke-width="0.12" opacity="1"/><path d="M -1.160 0.325 A 1.205 1.205 0 0 1 -1.160 -0.325" fill="none" stroke="#e6e9ef" stroke-width="0.12" opacity="1"/><path d="M -0.946 0.325 A 1.000 1.000 0 0 1 -0.946 -0.325" fill="none" stroke="#e6e9ef" stroke-width="0.12" opacity="1"/><path d="M -0.325 -1.408 A 1.445 1.445 0 0 1 0.325 -1.408" fill="none" stroke="#e6e9ef" stroke-width="0.12" opacity="1"/><path d="M -0.325 -1.160 A 1.205 1.205 0 0 1 0.325 -1.160" fill="none" stroke="#e6e9ef" stroke-width="0.12" opacity="1"/><path d="M -0.325 -0.946 A 1.000 1.000 0 0 1 0.325 -0.946" fill="none" stroke="#e6e9ef" stroke-width="0.12" opacity="1"/><path d="M 0.325 0.946 A 1.000 1.000 0 0 1 -0.325 0.946" fill="none" stroke="#e6e9ef" stroke-width="0.12" opacity="1"/><path d="M 0.325 1.160 A 1.205 1.205 0 0 1 -0.325 1.160" fill="none" stroke="#e6e9ef" stroke-width="0.12" opacity="1"/><path d="M 0.325 1.408 A 1.445 1.445 0 0 1 -0.325 1.408" fill="none" stroke="#e6e9ef" stroke-width="0.12" opacity="1"/><path d="M 0.946 -0.325 A 1.000 1.000 0 0 1 0.946 0.325" fill="none" stroke="#e6e9ef" stroke-width="0.12" opacity="1"/><path d="M 1.160 -0.325 A 1.205 1.205 0 0 1 1.160 0.325" fill="none" stroke="#e6e9ef" stroke-width="0.12" opacity="1"/><path d="M 1.408 -0.325 A 1.445 1.445 0 0 1 1.408 0.325" fill="none" stroke="#e6e9ef" stroke-width="0.12" opacity="1"/><path d="M -1.052 -0.675 A 1.250 1.250 0 0 1 -0.675 -1.052" fill="none" stroke="#4a5160" stroke-width="0.12" opacity="0.7"/><path d="M -0.675 1.052 A 1.250 1.250 0 0 1 -1.052 0.675" fill="none" stroke="#4a5160" stroke-width="0.12" opacity="0.7"/><path d="M 0.675 -1.052 A 1.250 1.250 0 0 1 1.052 -0.675" fill="none" stroke="#4a5160" stroke-width="0.12" opacity="0.7"/><path d="M 1.052 0.675 A 1.250 1.250 0 0 1 0.675 1.052" fill="none" stroke="#4a5160" stroke-width="0.12" opacity="0.7"/><path d="M -0.335 -0.100 A 0.350 0.350 0 0 1 0.335 -0.100" fill="none" stroke="#6b7280" stroke-width="0.12" opacity="0.8"/><path d="M -0.140 -0.011 A 0.140 0.140 0 0 1 0.140 -0.011" fill="none" stroke="#6b7280" stroke-width="0.12" opacity="0.8"/><path d="M 0.140 0.011 A 0.140 0.140 0 0 1 -0.140 0.011" fill="none" stroke="#6b7280" stroke-width="0.12" opacity="0.8"/><path d="M 0.335 0.100 A 0.350 0.350 0 0 1 -0.335 0.100" fill="none" stroke="#6b7280" stroke-width="0.12" opacity="0.8"/><circle cx="0.000" cy="0.000" r="0.600" fill="none" stroke="#4a5160" stroke-width="0.12" opacity="0.7"/><circle cx="0.000" cy="0.000" r="1.725" fill="none" stroke="#6b7280" stroke-width="0.12" opacity="0.8"/><circle cx="0.000" cy="0.000" r="1.445" fill="none" stroke="#6b7280" stroke-width="0.12" opacity="0.8"/><circle cx="0.000" cy="0.000" r="1.205" fill="none" stroke="#6b7280" stroke-width="0.12" opacity="0.8"/><circle cx="0.000" cy="0.000" r="1.000" fill="none" stroke="#6b7280" stroke-width="0.12" opacity="0.8"/><circle cx="0.000" cy="0.000" r="0.450" fill="none" stroke="#6b7280" stroke-width="0.12" opacity="0.8"/><rect x="-0.600" y="-0.600" width="1.200" height="1.200" rx="0.600" fill="#c79b5c"/><rect x="-1.975" y="0.675" width="0.000" height="0.000" rx="0.000" fill="#c79b5c"/><rect x="-1.625" y="-1.625" width="0.600" height="0.600" rx="0.000" fill="#c79b5c"/><rect x="-1.625" y="1.025" width="0.600" height="0.600" rx="0.000" fill="#c79b5c"/><rect x="-0.675" y="-1.975" width="0.000" height="0.000" rx="0.000" fill="#c79b5c"/><rect x="0.675" y="1.975" width="0.000" height="0.000" rx="0.000" fill="#c79b5c"/><rect x="1.025" y="-1.625" width="0.600" height="0.600" rx="0.000" fill="#c79b5c"/><rect x="1.025" y="1.025" width="0.600" height="0.600" rx="0.000" fill="#c79b5c"/><rect x="1.975" y="-0.675" width="0.000" height="0.000" rx="0.000" fill="#c79b5c"/></svg>