<svg xmlns="http://www.w3.org/2000/svg" viewBox="-5.00 -3.23 10.00 6.45" preserveAspectRatio="xMidYMid meet" style="width:100%;height:100%"><rect x="-5.00" y="-3.23" width="10.00" height="6.45" fill="#12151c"/><line x1="-2.200" y1="-1.975" x2="2.200" y2="-1.975" stroke="#e6e9ef" stroke-width="0.200" stroke-linecap="round" opacity="1"/><line x1="-2.200" y1="1.975" x2="2.200" y2="1.975" stroke="#e6e9ef" stroke-width="0.200" stroke-linecap="round" opacity="1"/><line x1="-3.750" y1="-1.670" x2="-2.550" y2="-1.670" stroke="#4a5160" stroke-width="0.100" stroke-linecap="round" opacity="0.7"/><line x1="-3.750" y1="-0.870" x2="-3.750" y2="-1.670" stroke="#4a5160" stroke-width="0.100" stroke-linecap="round" opacity="0.7"/><line x1="-3.750" y1="-0.870" x2="-2.550" y2="-0.870" stroke="#4a5160" stroke-width="0.100" stroke-linecap="round" opacity="0.7"/><line x1="-3.750" y1="0.870" x2="-2.550" y2="0.870" stroke="#4a5160" stroke-width="0.100" stroke-linecap="round" opacity="0.7"/><line x1="-3.750" y1="1.670" x2="-3.750" y2="0.870" stroke="#4a5160" stroke-width="0.100" stroke-linecap="round" opacity="0.7"/><line x1="-3.750" y1="1.670" x2="-2.550" y2="1.670" stroke="#4a5160" stroke-width="0.100" stroke-linecap="round" opacity="0.7"/><line x1="-3.650" y1="-1.270" x2="-3.150" y2="-1.270" stroke="#4a5160" stroke-width="0.100" stroke-linecap="round" opacity="0.7"/><line x1="-3.650" y1="1.270" x2="-3.150" y2="1.270" stroke="#4a5160" stroke-width="0.100" stroke-linecap="round" opacity="0.7"/><line x1="-3.150" y1="-1.270" x2="-3.150" y2="-1.770" stroke="#4a5160" stroke-width="0.100" stroke-linecap="round" opacity="0.7"/><line x1="-3.150" y1="-1.270" x2="-2.650" y2="-1.270" stroke="#4a5160" stroke-width="0.100" stroke-linecap="round" opacity="0.7"/><line x1="-3.150" y1="-0.770" x2="-3.150" y2="-1.270" stroke="#4a5160" stroke-width="0.100" stroke-linecap="round" opacity="0.7"/><line x1="-3.150" y1="1.270" x2="-3.150" y2="0.770" stroke="#4a5160" stroke-width="0.100" stroke-linecap="round" opacity="0.7"/><line x1="-3.150" y1="1.270" x2="-2.650" y2="1.270" stroke="#4a5160" stroke-width="0.100" stroke-linecap="round" opacity="0.7"/><line x1="-3.150" y1="1.770" x2="-3.150" y2="1.270" stroke="#4a5160" stroke-width="0.100" stroke-linecap="round" opacity="0.7"/><line x1="-2.550" y1="-0.870" x2="-2.550" y2="-1.670" stroke="#4a5160" stroke-width="0.100" stroke-linecap="round" opacity="0.7"/><line x1="-2.550" y1="1.670" x2="-2.550" y2="0.870" stroke="#4a5160" stroke-width="0.100" stroke-linecap="round" opacity="0.7"/><line x1="-0.500" y1="0.000" x2="0.000" y2="0.000" stroke="#4a5160" stroke-width="0.100" stroke-linecap="round" opacity="0.7"/><line x1="0.000" y1="0.000" x2="0.000" y2="-0.500" stroke="#4a5160" stroke-width="0.100" stroke-linecap="round" opacity="0.7"/><line x1="0.000" y1="0.000" x2="0.500" y2="0.000" stroke="#4a5160" stroke-width="0.100" stroke-linecap="round" opacity="0.7"/><line x1="0.000" y1="0.500" x2="0.000" y2="0.000" stroke="#4a5160" stroke-width="0.100" stroke-linecap="round" opacity="0.7"/><line x1="2.550" y1="-1.670" x2="3.750" y2="-1.670" stroke="#4a5160" stroke-width="0.100" stroke-linecap="round" opacity="0.7"/><line x1="2.550" y1="-0.870" x2="2.550" y2="-1.670" stroke="#4a5160" stroke-width="0.100" stroke-linecap="round" opacity="0.7"/><line x1="2.550" y1="-0.870" x2="3.750" y2="-0.870" stroke="#4a5160" stroke-width="0.100" stroke-linecap="round" opacity="0.7"/><line x1="2.550" y1="-0.400" x2="3.750" y2="-0.400" stroke="#4a5160" stroke-width="0.100" stroke-linecap="round" opacity="0.7"/><line x1="2.550" y1="0.400" x2="2.550" y2="-0.400" stroke="#4a5160" stroke-width="0.100" stroke-linecap="round" opacity="0.7"/><line x1="2.550" y1="0.400" x2="3.750" y2="0.400" stroke="#4a5160" stroke-width="0.100" stroke-linecap="round" opacity="0.7"/><line x1="2.550" y1="0.870" x2="3.750" y2="0.870" stroke="#4a5160" stroke-width="0.100" stroke-linecap="round" opacity="0.7"/><line x1="2.550" y1="1.670" x2="2.550" y2="0.870" stroke="#4a5160" stroke-width="0.100" stroke-linecap="round" opacity="0.7"/><line x1="2.550" y1="1.670" x2="3.750" y2="1.670" stroke="#4a5160" stroke-width="0.100" stroke-linecap="round" opacity="0.7"/><line x1="2.650" y1="-1.270" x2="3.150" y2="-1.270" stroke="#4a5160" stroke-width="0.100" stroke-linecap="round" opacity="0.7"/><line x1="2.650" y1="0.000" x2="3.150" y2="0.000" stroke="#4a5160" stroke-width="0.100" stroke-linecap="round" opacity="0.7"/><line x1="2.650" y1="1.270" x2="3.150" y2="1.270" stroke="#4a5160" stroke-width="0.100" stroke-linecap="round" opacity="0.7"/><line x1="3.150" y1="-1.270" x2="3.150" y2="-1.770" stroke="#4a5160" stroke-width="0.100" stroke-linecap="round" opacity="0.7"/><line x1="3.150" y1="-1.270" x2="3.650" y2="-1.270" stroke="#4a5160" stroke-width="0.100" stroke-linecap="round" opacity="0.7"/><line x1="3.150" y1="-0.770" x2="3.150" y2="-1.270" stroke="#4a5160" stroke-width="0.100" stroke-linecap="round" opacity="0.7"/><line x1="3.150" y1="0.000" x2="3.150" y2="-0.500" stroke="#4a5160" stroke-width="0.100" stroke-linecap="round" opacity="0.7"/><line x1="3.150" y1="0.000" x2="3.650" y2="0.000" stroke="#4a5160" stroke-width="0.100" stroke-linecap="round" opacity="0.7"/><line x1="3.150" y1="0.500" x2="3.150" y2="0.000" stroke="#4a5160" stroke-width="0.100" stroke-linecap="round" opacity="0.7"/><line x1="3.150" y1="1.270" x2="3.150" y2="0.770" stroke="#4a5160" stroke-width="0.100" stroke-linecap="round" opacity="0.7"/><line x1="3.150" y1="1.270" x2="3.650" y2="1.270" stroke="#4a5160" stroke-width="0.100" stroke-linecap="round" opacity="0.7"/><line x1="3.150" y1="1.770" x2="3.150" y2="1.270" stroke="#4a5160" stroke-width="0.100" stroke-linecap="round" opacity="0.7"/><line x1="3.750" y1="-0.870" x2="3.750" y2="-1.670" stroke="#4a5160" stroke-width="0.100" stroke-linecap="round" opacity="0.7"/><line x1="3.750" y1="1.670" x2="3.750" y2="0.870" stroke="#4a5160" stroke-width="0.100" stroke-linecap="round" opacity="0.7"/><line x1="3.750" y1="-0.870" x2="3.750" y2="-1.670" stroke="#4a5160" stroke-width="0.100" stroke-linecap="round" opacity="0.7"/><line x1="3.750" y1="0.400" x2="3.750" y2="-0.400" stroke="#4a5160" stroke-width="0.100" stroke-linecap="round" opacity="0.7"/><line x1="3.750" y1="1.670" x2="3.750" y2="0.870" stroke="#4a5160" stroke-width="0.100" stroke-linecap="round" opacity="0.7"/><line x1="-4.000" y1="-2.225" x2="4.000" y2="-2.225" stroke="#d24d4d" stroke-width="0.080" stroke-linecap="round" opacity="0.7"/><line x1="-4.000" y1="2.225" x2="-4.000" y2="-2.225" stroke="#d24d4d" stroke-width="0.080" stroke-linecap="round" opacity="0.7"/><line x1="-4.000" y1="2.225" x2="4.000" y2="2.225" stroke="#d24d4d" stroke-width="0.080" stroke-linecap="round" opacity="0.7"/><line x1="4.000" y1="2.225" x2="4.000" y2="-2.225" stroke="#d24d4d" stroke-width="0.080" stroke-linecap="round" opacity="0.7"/><line x1="-2.400" y1="-1.975" x2="2.400" y2="-1.975" stroke="#6b7280" stroke-width="0.100" stroke-linecap="round" opacity="0.8"/><line x1="-2.400" y1="1.975" x2="-2.400" y2="-1.975" stroke="#6b7280" stroke-width="0.100" stroke-linecap="round" opacity="0.8"/><line x1="-2.400" y1="1.975" x2="2.400" y2="1.975" stroke="#6b7280" stroke-width="0.100" stroke-linecap="round" opacity="0.8"/><line x1="2.400" y1="1.975" x2="2.400" y2="-1.975" stroke="#6b7280" stroke-width="0.100" stroke-linecap="round" opacity="0.8"/><rect x="-3.750" y="-1.670" width="1.200" height="0.800" rx="0.000" fill="#c79b5c"/><rect x="-3.750" y="0.870" width="1.200" height="0.800" rx="0.000" fill="#c79b5c"/><rect x="2.550" y="0.870" width="1.200" height="0.800" rx="0.000" fill="#c79b5c"/><rect x="2.550" y="-0.400" width="1.200" height="0.800" rx="0.000" fill="#c79b5c"/><rect x="2.550" y="-1.670" width="1.200" height="0.800" rx="0.000" fill="#c79b5c"/></svg>