<svg xmlns="http://www.w3.org/2000/svg" viewBox="-1.85 -1.50 3.70 3.00" preserveAspectRatio="xMidYMid meet" style="width:100%;height:100%"><rect x="-1.85" y="-1.50" width="3.70" height="3.00" fill="#12151c"/><line x1="-0.600" y1="-0.250" x2="-0.400" y2="0.000" stroke="#4a5160" stroke-width="0.100" stroke-linecap="round" opacity="0.7"/><line x1="-0.600" y1="-0.250" x2="-0.200" y2="-0.250" stroke="#4a5160" stroke-width="0.100" stroke-linecap="round" opacity="0.7"/><line x1="-0.600" y1="0.250" x2="-0.600" y2="-0.250" stroke="#4a5160" stroke-width="0.100" stroke-linecap="round" opacity="0.7"/><line x1="-0.600" y1="0.250" x2="-0.400" y2="0.000" stroke="#4a5160" stroke-width="0.100" stroke-linecap="round" opacity="0.7"/><line x1="-0.600" y1="0.250" x2="-0.200" y2="0.250" stroke="#4a5160" stroke-width="0.100" stroke-linecap="round" opacity="0.7"/><line x1="-0.500" y1="0.000" x2="-0.000" y2="0.000" stroke="#4a5160" stroke-width="0.100" stroke-linecap="round" opacity="0.7"/><line x1="-0.200" y1="0.250" x2="-0.200" y2="-0.250" stroke="#4a5160" stroke-width="0.100" stroke-linecap="round" opacity="0.7"/><line x1="-0.000" y1="0.000" x2="-0.000" y2="-0.500" stroke="#4a5160" stroke-width="0.100" stroke-linecap="round" opacity="0.7"/><line x1="-0.000" y1="0.000" x2="0.500" y2="0.000" stroke="#4a5160" stroke-width="0.100" stroke-linecap="round" opacity="0.7"/><line x1="-0.000" y1="0.500" x2="-0.000" y2="0.000" stroke="#4a5160" stroke-width="0.100" stroke-linecap="round" opacity="0.7"/><line x1="0.200" y1="-0.250" x2="0.600" y2="-0.250" stroke="#4a5160" stroke-width="0.100" stroke-linecap="round" opacity="0.7"/><line x1="0.200" y1="0.250" x2="0.200" y2="-0.250" stroke="#4a5160" stroke-width="0.100" stroke-linecap="round" opacity="0.7"/><line x1="0.200" y1="0.250" x2="0.600" y2="0.250" stroke="#4a5160" stroke-width="0.100" stroke-linecap="round" opacity="0.7"/><line x1="0.400" y1="0.000" x2="0.600" y2="-0.250" stroke="#4a5160" stroke-width="0.100" stroke-linecap="round" opacity="0.7"/><line x1="0.400" y1="0.000" x2="0.600" y2="0.250" stroke="#4a5160" stroke-width="0.100" stroke-linecap="round" opacity="0.7"/><line x1="0.600" y1="0.250" x2="0.600" y2="-0.250" stroke="#4a5160" stroke-width="0.100" stroke-linecap="round" opacity="0.7"/><line x1="-0.850" y1="-0.500" x2="0.850" y2="-0.500" stroke="#d24d4d" stroke-width="0.100" stroke-linecap="round" opacity="0.7"/><line x1="-0.850" y1="0.500" x2="-0.850" y2="-0.500" stroke="#d24d4d" stroke-width="0.100" stroke-linecap="round" opacity="0.7"/><line x1="-0.850" y1="0.500" x2="0.850" y2="0.500" stroke="#d24d4d" stroke-width="0.100" stroke-linecap="round" opacity="0.7"/><line x1="0.850" y1="0.500" x2="0.850" y2="-0.500" stroke="#d24d4d" stroke-width="0.100" stroke-linecap="round" opacity="0.7"/><line x1="-0.500" y1="0.249" x2="-0.500" y2="-0.249" stroke="#6b7280" stroke-width="0.100" stroke-linecap="round" opacity="0.8"/><line x1="-0.499" y1="-0.250" x2="-0.401" y2="-0.250" stroke="#6b7280" stroke-width="0.100" stroke-linecap="round" opacity="0.8"/><line x1="-0.499" y1="0.250" x2="-0.401" y2="0.250" stroke="#6b7280" stroke-width="0.100" stroke-linecap="round" opacity="0.8"/><line x1="-0.400" y1="-0.245" x2="0.400" y2="-0.245" stroke="#6b7280" stroke-width="0.100" stroke-linecap="round" opacity="0.8"/><line x1="-0.400" y1="0.245" x2="0.400" y2="0.245" stroke="#6b7280" stroke-width="0.100" stroke-linecap="round" opacity="0.8"/><line x1="-0.400" y1="0.249" x2="-0.400" y2="-0.249" stroke="#6b7280" stroke-width="0.100" stroke-linecap="round" opacity="0.8"/><line x1="0.400" y1="0.249" x2="0.400" y2="-0.249" stroke="#6b7280" stroke-width="0.100" stroke-linecap="round" opacity="0.8"/><line x1="0.401" y1="-0.250" x2="0.499" y2="-0.250" stroke="#6b7280" stroke-width="0.100" stroke-linecap="round" opacity="0.8"/><line x1="0.401" y1="0.250" x2="0.499" y2="0.250" stroke="#6b7280" stroke-width="0.100" stroke-linecap="round" opacity="0.8"/><line x1="0.500" y1="0.249" x2="0.500" y2="-0.249" stroke="#6b7280" stroke-width="0.100" stroke-linecap="round" opacity="0.8"/><path d="M -0.500 -0.249 A 0.001 0.001 0 0 1 -0.499 -0.250" fill="none" stroke="#6b7280" stroke-width="0.12" opacity="0.8"/><path d="M -0.499 0.250 A 0.001 0.001 0 0 1 -0.500 0.249" fill="none" stroke="#6b7280" stroke-width="0.12" opacity="0.8"/><path d="M -0.401 -0.250 A 0.001 0.001 0 0 1 -0.400 -0.249" fill="none" stroke="#6b7280" stroke-width="0.12" opacity="0.8"/><path d="M -0.400 0.249 A 0.001 0.001 0 0 1 -0.401 0.250" fill="none" stroke="#6b7280" stroke-width="0.12" opacity="0.8"/><path d="M 0.400 -0.249 A 0.001 0.001 0 0 1 0.401 -0.250" fill="none" stroke="#6b7280" stroke-width="0.12" opacity="0.8"/><path d="M 0.401 0.250 A 0.001 0.001 0 0 1 0.400 0.249" fill="none" stroke="#6b7280" stroke-width="0.12" opacity="0.8"/><path d="M 0.499 -0.250 A 0.001 0.001 0 0 1 0.500 -0.249" fill="none" stroke="#6b7280" stroke-width="0.12" opacity="0.8"/><path d="M 0.500 0.249 A 0.001 0.001 0 0 1 0.499 0.250" fill="none" stroke="#6b7280" stroke-width="0.12" opacity="0.8"/><rect x="-0.600" y="-0.250" width="0.400" height="0.500" rx="0.000" fill="#c79b5c"/><rect x="0.200" y="-0.250" width="0.400" height="0.500" rx="0.000" fill="#c79b5c"/><polygon points="-0.85,1.30 0.05,1.30 -0.40,0.70" fill="#ffffff"/></svg>