<svg xmlns="http://www.w3.org/2000/svg" viewBox="-3.12 -3.12 5.92 5.92" preserveAspectRatio="xMidYMid meet" style="width:100%;height:100%"><rect x="-3.12" y="-3.12" width="5.92" height="5.92" fill="#12151c"/><line x1="-0.400" y1="-0.200" x2="-0.200" y2="-0.400" stroke="#e6e9ef" stroke-width="0.200" stroke-linecap="round" opacity="1"/><line x1="-0.400" y1="0.400" x2="-0.400" y2="-0.200" stroke="#e6e9ef" stroke-width="0.200" stroke-linecap="round" opacity="1"/><line x1="-0.400" y1="0.400" x2="0.400" y2="0.400" stroke="#e6e9ef" stroke-width="0.200" stroke-linecap="round" opacity="1"/><line x1="-0.200" y1="-0.400" x2="0.400" y2="-0.400" stroke="#e6e9ef" stroke-width="0.200" stroke-linecap="round" opacity="1"/><line x1="0.400" y1="0.400" x2="0.400" y2="-0.400" stroke="#e6e9ef" stroke-width="0.200" stroke-linecap="round" opacity="1"/><line x1="-0.500" y1="0.000" x2="0.500" y2="0.000" stroke="#4a5160" stroke-width="0.080" stroke-linecap="round" opacity="0.7"/><line x1="0.000" y1="0.500" x2="0.000" y2="-0.500" stroke="#4a5160" stroke-width="0.080" stroke-linecap="round" opacity="0.7"/><line x1="-1.800" y1="-1.800" x2="1.800" y2="-1.800" stroke="#d24d4d" stroke-width="0.080" stroke-linecap="round" opacity="0.7"/><line x1="-1.800" y1="1.800" x2="-1.800" y2="-1.800" stroke="#d24d4d" stroke-width="0.080" stroke-linecap="round" opacity="0.7"/><line x1="-1.800" y1="1.800" x2="1.800" y2="1.800" stroke="#d24d4d" stroke-width="0.080" stroke-linecap="round" opacity="0.7"/><line x1="1.800" y1="1.800" x2="1.800" y2="-1.800" stroke="#d24d4d" stroke-width="0.080" stroke-linecap="round" opacity="0.7"/><line x1="-1.550" y1="-1.550" x2="1.550" y2="-1.550" stroke="#6b7280" stroke-width="0.100" stroke-linecap="round" opacity="0.8"/><line x1="-1.550" y1="1.550" x2="-1.550" y2="-1.550" stroke="#6b7280" stroke-width="0.100" stroke-linecap="round" opacity="0.8"/><line x1="-1.550" y1="1.550" x2="1.550" y2="1.550" stroke="#6b7280" stroke-width="0.100" stroke-linecap="round" opacity="0.8"/><line x1="1.550" y1="1.550" x2="1.550" y2="-1.550" stroke="#6b7280" stroke-width="0.100" stroke-linecap="round" opacity="0.8"/><circle cx="-2.000" cy="-2.000" r="0.150" fill="#e6e9ef" opacity="1"/><circle cx="-0.650" cy="-0.650" r="0.500" fill="none" stroke="#6b7280" stroke-width="0.12" opacity="0.8"/><rect x="-1.300" y="-1.325" width="0.350" height="0.650" rx="0.175" fill="#c79b5c"/><rect x="-1.300" y="-0.825" width="0.350" height="0.650" rx="0.175" fill="#c79b5c"/><rect x="-1.300" y="-0.325" width="0.350" height="0.650" rx="0.175" fill="#c79b5c"/><rect x="-1.300" y="0.175" width="0.350" height="0.650" rx="0.175" fill="#c79b5c"/><rect x="-1.300" y="0.675" width="0.350" height="0.650" rx="0.175" fill="#c79b5c"/><rect x="-0.675" y="0.800" width="0.350" height="0.650" rx="0.175" fill="#c79b5c"/><rect x="-0.175" y="0.800" width="0.350" height="0.650" rx="0.175" fill="#c79b5c"/><rect x="0.325" y="0.800" width="0.350" height="0.650" rx="0.175" fill="#c79b5c"/><rect x="0.950" y="0.675" width="0.350" height="0.650" rx="0.175" fill="#c79b5c"/><rect x="0.950" y="0.175" width="0.350" height="0.650" rx="0.175" fill="#c79b5c"/><rect x="0.950" y="-0.325" width="0.350" height="0.650" rx="0.175" fill="#c79b5c"/><rect x="0.950" y="-0.825" width="0.350" height="0.650" rx="0.175" fill="#c79b5c"/><rect x="0.950" y="-1.325" width="0.350" height="0.650" rx="0.175" fill="#c79b5c"/><rect x="0.325" y="-1.450" width="0.350" height="0.650" rx="0.175" fill="#c79b5c"/><rect x="-0.175" y="-1.450" width="0.350" height="0.650" rx="0.175" fill="#c79b5c"/><rect x="-0.675" y="-1.450" width="0.350" height="0.650" rx="0.175" fill="#c79b5c"/></svg>