<svg xmlns="http://www.w3.org/2000/svg" viewBox="-2.57 -2.30 4.83 4.60" preserveAspectRatio="xMidYMid meet" style="width:100%;height:100%"><rect x="-2.57" y="-2.30" width="4.83" height="4.60" fill="#12151c"/><line x1="-1.255" y1="-1.300" x2="1.255" y2="-1.300" stroke="#d24d4d" stroke-width="0.080" stroke-linecap="round" opacity="0.7"/><line x1="-1.255" y1="1.300" x2="-1.255" y2="-1.300" stroke="#d24d4d" stroke-width="0.080" stroke-linecap="round" opacity="0.7"/><line x1="-1.255" y1="1.300" x2="1.255" y2="1.300" stroke="#d24d4d" stroke-width="0.080" stroke-linecap="round" opacity="0.7"/><line x1="1.255" y1="1.300" x2="1.255" y2="-1.300" stroke="#d24d4d" stroke-width="0.080" stroke-linecap="round" opacity="0.7"/><line x1="-1.025" y1="-1.025" x2="1.025" y2="-1.025" stroke="#6b7280" stroke-width="0.100" stroke-linecap="round" opacity="0.8"/><line x1="-1.025" y1="-0.925" x2="-0.925" y2="-1.025" stroke="#6b7280" stroke-width="0.100" stroke-linecap="round" opacity="0.8"/><line x1="-1.025" y1="-0.825" x2="-0.825" y2="-1.025" stroke="#6b7280" stroke-width="0.100" stroke-linecap="round" opacity="0.8"/><line x1="-1.025" y1="-0.725" x2="-0.725" y2="-1.025" stroke="#6b7280" stroke-width="0.100" stroke-linecap="round" opacity="0.8"/><line x1="-1.025" y1="-0.625" x2="-0.625" y2="-1.025" stroke="#6b7280" stroke-width="0.100" stroke-linecap="round" opacity="0.8"/><line x1="-1.025" y1="-0.525" x2="-0.525" y2="-1.025" stroke="#6b7280" stroke-width="0.100" stroke-linecap="round" opacity="0.8"/><line x1="-1.025" y1="-0.425" x2="-0.425" y2="-1.025" stroke="#6b7280" stroke-width="0.100" stroke-linecap="round" opacity="0.8"/><line x1="-1.025" y1="-0.325" x2="-0.325" y2="-1.025" stroke="#6b7280" stroke-width="0.100" stroke-linecap="round" opacity="0.8"/><line x1="-1.025" y1="-0.225" x2="-0.225" y2="-1.025" stroke="#6b7280" stroke-width="0.100" stroke-linecap="round" opacity="0.8"/><line x1="-1.025" y1="-0.125" x2="-0.125" y2="-1.025" stroke="#6b7280" stroke-width="0.100" stroke-linecap="round" opacity="0.8"/><line x1="-1.025" y1="-0.025" x2="-0.025" y2="-1.025" stroke="#6b7280" stroke-width="0.100" stroke-linecap="round" opacity="0.8"/><line x1="-1.025" y1="1.025" x2="-1.025" y2="-1.025" stroke="#6b7280" stroke-width="0.100" stroke-linecap="round" opacity="0.8"/><line x1="-1.025" y1="1.025" x2="1.025" y2="1.025" stroke="#6b7280" stroke-width="0.100" stroke-linecap="round" opacity="0.8"/><line x1="1.025" y1="1.025" x2="1.025" y2="-1.025" stroke="#6b7280" stroke-width="0.100" stroke-linecap="round" opacity="0.8"/><circle cx="-1.445" cy="-0.800" r="0.150" fill="#e6e9ef" opacity="1"/><rect x="-0.845" y="-1.100" width="0.300" height="0.600" rx="0.000" fill="#c79b5c"/><rect x="-0.895" y="-0.650" width="0.300" height="0.500" rx="0.000" fill="#c79b5c"/><rect x="-0.895" y="-0.250" width="0.300" height="0.500" rx="0.000" fill="#c79b5c"/><rect x="-0.895" y="0.150" width="0.300" height="0.500" rx="0.000" fill="#c79b5c"/><rect x="-0.895" y="0.550" width="0.300" height="0.500" rx="0.000" fill="#c79b5c"/><rect x="0.595" y="0.550" width="0.300" height="0.500" rx="0.000" fill="#c79b5c"/><rect x="0.595" y="0.150" width="0.300" height="0.500" rx="0.000" fill="#c79b5c"/><rect x="0.595" y="-0.250" width="0.300" height="0.500" rx="0.000" fill="#c79b5c"/><rect x="0.595" y="-0.650" width="0.300" height="0.500" rx="0.000" fill="#c79b5c"/><rect x="0.595" y="-1.050" width="0.300" height="0.500" rx="0.000" fill="#c79b5c"/></svg>