<svg xmlns="http://www.w3.org/2000/svg" viewBox="-4.75 -2.65 9.50 5.30" preserveAspectRatio="xMidYMid meet" style="width:100%;height:100%"><rect x="-4.75" y="-2.65" width="9.50" height="5.30" fill="#12151c"/><line x1="-1.300" y1="-1.350" x2="1.300" y2="-1.350" stroke="#e6e9ef" stroke-width="0.200" stroke-linecap="round" opacity="1"/><line x1="-1.300" y1="1.350" x2="-1.300" y2="-1.350" stroke="#e6e9ef" stroke-width="0.200" stroke-linecap="round" opacity="1"/><line x1="-1.300" y1="1.350" x2="1.300" y2="1.350" stroke="#e6e9ef" stroke-width="0.200" stroke-linecap="round" opacity="1"/><line x1="-3.250" y1="-1.650" x2="3.250" y2="-1.650" stroke="#d24d4d" stroke-width="0.080" stroke-linecap="round" opacity="0.7"/><line x1="-3.250" y1="1.650" x2="-3.250" y2="-1.650" stroke="#d24d4d" stroke-width="0.080" stroke-linecap="round" opacity="0.7"/><line x1="-3.250" y1="1.650" x2="3.250" y2="1.650" stroke="#d24d4d" stroke-width="0.080" stroke-linecap="round" opacity="0.7"/><line x1="3.250" y1="1.650" x2="3.250" y2="-1.650" stroke="#d24d4d" stroke-width="0.080" stroke-linecap="round" opacity="0.7"/><line x1="-2.600" y1="-1.335" x2="2.600" y2="-1.335" stroke="#6b7280" stroke-width="0.100" stroke-linecap="round" opacity="0.8"/><line x1="-2.600" y1="1.335" x2="-2.600" y2="-1.335" stroke="#6b7280" stroke-width="0.100" stroke-linecap="round" opacity="0.8"/><line x1="-2.600" y1="1.335" x2="2.600" y2="1.335" stroke="#6b7280" stroke-width="0.100" stroke-linecap="round" opacity="0.8"/><line x1="-2.500" y1="1.335" x2="-2.500" y2="-1.335" stroke="#6b7280" stroke-width="0.100" stroke-linecap="round" opacity="0.8"/><line x1="-2.400" y1="1.335" x2="-2.400" y2="-1.335" stroke="#6b7280" stroke-width="0.100" stroke-linecap="round" opacity="0.8"/><line x1="-2.300" y1="1.335" x2="-2.300" y2="-1.335" stroke="#6b7280" stroke-width="0.100" stroke-linecap="round" opacity="0.8"/><line x1="-2.200" y1="1.335" x2="-2.200" y2="-1.335" stroke="#6b7280" stroke-width="0.100" stroke-linecap="round" opacity="0.8"/><line x1="-2.100" y1="1.335" x2="-2.100" y2="-1.335" stroke="#6b7280" stroke-width="0.100" stroke-linecap="round" opacity="0.8"/><line x1="-2.000" y1="1.335" x2="-2.000" y2="-1.335" stroke="#6b7280" stroke-width="0.100" stroke-linecap="round" opacity="0.8"/><line x1="2.600" y1="1.335" x2="2.600" y2="-1.335" stroke="#6b7280" stroke-width="0.100" stroke-linecap="round" opacity="0.8"/><rect x="-3.750" y="-0.650" width="2.800" height="1.300" rx="0.000" fill="#c79b5c"/><rect x="0.950" y="-0.650" width="2.800" height="1.300" rx="0.000" fill="#c79b5c"/><polygon points="-2.80,1.70 -1.90,1.70 -2.35,1.10" fill="#ffffff"/></svg>