<svg xmlns="http://www.w3.org/2000/svg" viewBox="-3.39 -2.73 6.24 5.13" preserveAspectRatio="xMidYMid meet" style="width:100%;height:100%"><rect x="-3.39" y="-2.73" width="6.24" height="5.13" fill="#12151c"/><circle cx="-2.261" cy="-1.600" r="0.125" fill="none" stroke="#e6e9ef" stroke-width="0.12" opacity="1"/><rect x="-1.850" y="-1.185" width="0.790" height="0.420" rx="0.000" fill="#c79b5c"/><rect x="-1.850" y="-0.535" width="0.790" height="0.420" rx="0.000" fill="#c79b5c"/><rect x="-1.850" y="0.115" width="0.790" height="0.420" rx="0.000" fill="#c79b5c"/><rect x="-1.850" y="0.765" width="0.790" height="0.420" rx="0.000" fill="#c79b5c"/><rect x="1.060" y="0.765" width="0.790" height="0.420" rx="0.000" fill="#c79b5c"/><rect x="1.060" y="0.115" width="0.790" height="0.420" rx="0.000" fill="#c79b5c"/><rect x="1.060" y="-0.535" width="0.790" height="0.420" rx="0.000" fill="#c79b5c"/><rect x="1.060" y="-1.185" width="0.790" height="0.420" rx="0.000" fill="#c79b5c"/><rect x="-0.800" y="-1.400" width="1.600" height="0.850" rx="0.000" fill="#c79b5c"/><rect x="0.800" y="-1.700" width="0.000" height="0.000" rx="0.000" fill="#c79b5c"/><rect x="-0.800" y="-0.250" width="1.600" height="1.650" rx="0.000" fill="#c79b5c"/><rect x="0.800" y="0.575" width="0.000" height="0.000" rx="0.000" fill="#c79b5c"/></svg>