<svg xmlns="http://www.w3.org/2000/svg" viewBox="-17.30 -4.59 34.60 9.67" preserveAspectRatio="xMidYMid meet" style="width:100%;height:100%"><rect x="-17.30" y="-4.59" width="34.60" height="9.67" fill="#12151c"/><line x1="-16.300" y1="-3.590" x2="16.300" y2="-3.590" stroke="#d24d4d" stroke-width="0.080" stroke-linecap="round" opacity="0.7"/><line x1="16.300" y1="-3.590" x2="16.300" y2="4.080" stroke="#d24d4d" stroke-width="0.080" stroke-linecap="round" opacity="0.7"/><line x1="16.300" y1="4.080" x2="-16.300" y2="4.080" stroke="#d24d4d" stroke-width="0.080" stroke-linecap="round" opacity="0.7"/><line x1="-16.300" y1="4.080" x2="-16.300" y2="-3.590" stroke="#d24d4d" stroke-width="0.080" stroke-linecap="round" opacity="0.7"/><rect x="-6.240" y="0.110" width="1.050" height="1.050" rx="0.263" fill="#c79b5c"/><circle cx="-5.715" cy="0.635" r="0.350" fill="#12151c"/><rect x="-6.240" y="-1.160" width="1.050" height="1.050" rx="0.263" fill="#c79b5c"/><circle cx="-5.715" cy="-0.635" r="0.350" fill="#12151c"/><rect x="-4.970" y="0.110" width="1.050" height="1.050" rx="0.263" fill="#c79b5c"/><circle cx="-4.445" cy="0.635" r="0.350" fill="#12151c"/><rect x="-4.970" y="-1.160" width="1.050" height="1.050" rx="0.263" fill="#c79b5c"/><circle cx="-4.445" cy="-0.635" r="0.350" fill="#12151c"/><rect x="-3.700" y="0.110" width="1.050" height="1.050" rx="0.263" fill="#c79b5c"/><circle cx="-3.175" cy="0.635" r="0.350" fill="#12151c"/><rect x="-3.700" y="-1.160" width="1.050" height="1.050" rx="0.263" fill="#c79b5c"/><circle cx="-3.175" cy="-0.635" r="0.350" fill="#12151c"/><rect x="-2.430" y="0.110" width="1.050" height="1.050" rx="0.263" fill="#c79b5c"/><circle cx="-1.905" cy="0.635" r="0.350" fill="#12151c"/><rect x="-2.430" y="-1.160" width="1.050" height="1.050" rx="0.263" fill="#c79b5c"/><circle cx="-1.905" cy="-0.635" r="0.350" fill="#12151c"/><rect x="-1.160" y="0.110" width="1.050" height="1.050" rx="0.263" fill="#c79b5c"/><circle cx="-0.635" cy="0.635" r="0.350" fill="#12151c"/><rect x="-1.160" y="-1.160" width="1.050" height="1.050" rx="0.263" fill="#c79b5c"/><circle cx="-0.635" cy="-0.635" r="0.350" fill="#12151c"/><rect x="0.110" y="0.110" width="1.050" height="1.050" rx="0.263" fill="#c79b5c"/><circle cx="0.635" cy="0.635" r="0.350" fill="#12151c"/><rect x="0.110" y="-1.160" width="1.050" height="1.050" rx="0.263" fill="#c79b5c"/><circle cx="0.635" cy="-0.635" r="0.350" fill="#12151c"/><rect x="1.380" y="0.110" width="1.050" height="1.050" rx="0.263" fill="#c79b5c"/><circle cx="1.905" cy="0.635" r="0.350" fill="#12151c"/><rect x="1.380" y="-1.160" width="1.050" height="1.050" rx="0.263" fill="#c79b5c"/><circle cx="1.905" cy="-0.635" r="0.350" fill="#12151c"/><rect x="2.650" y="0.110" width="1.050" height="1.050" rx="0.263" fill="#c79b5c"/><circle cx="3.175" cy="0.635" r="0.350" fill="#12151c"/><rect x="2.650" y="-1.160" width="1.050" height="1.050" rx="0.263" fill="#c79b5c"/><circle cx="3.175" cy="-0.635" r="0.350" fill="#12151c"/><rect x="3.920" y="0.110" width="1.050" height="1.050" rx="0.263" fill="#c79b5c"/><circle cx="4.445" cy="0.635" r="0.350" fill="#12151c"/><rect x="3.920" y="-1.160" width="1.050" height="1.050" rx="0.263" fill="#c79b5c"/><circle cx="4.445" cy="-0.635" r="0.350" fill="#12151c"/><rect x="5.190" y="0.110" width="1.050" height="1.050" rx="0.263" fill="#c79b5c"/><circle cx="5.715" cy="0.635" r="0.350" fill="#12151c"/><rect x="5.190" y="-1.160" width="1.050" height="1.050" rx="0.263" fill="#c79b5c"/><circle cx="5.715" cy="-0.635" r="0.350" fill="#12151c"/></svg>