<svg xmlns="http://www.w3.org/2000/svg" viewBox="-26.43 -5.06 52.86 12.43" preserveAspectRatio="xMidYMid meet" style="width:100%;height:100%"><rect x="-26.43" y="-5.06" width="52.86" height="12.43" fill="#12151c"/><line x1="-25.430" y1="-4.060" x2="25.430" y2="-4.060" stroke="#d24d4d" stroke-width="0.080" stroke-linecap="round" opacity="0.7"/><line x1="25.430" y1="-4.060" x2="25.430" y2="5.460" stroke="#d24d4d" stroke-width="0.080" stroke-linecap="round" opacity="0.7"/><line x1="25.430" y1="5.460" x2="-25.430" y2="5.460" stroke="#d24d4d" stroke-width="0.080" stroke-linecap="round" opacity="0.7"/><line x1="-25.430" y1="5.460" x2="-25.430" y2="-4.060" stroke="#d24d4d" stroke-width="0.080" stroke-linecap="round" opacity="0.7"/><circle cx="-23.900" cy="6.125" r="0.250" fill="none" stroke="#e6e9ef" stroke-width="0.12" opacity="1"/><rect x="-24.972" y="-1.200" width="2.400" height="2.400" rx="0.000" fill="#c79b5c"/><circle cx="-23.772" cy="0.000" r="0.850" fill="#12151c"/><rect x="-21.010" y="-1.200" width="2.400" height="2.400" rx="1.200" fill="#c79b5c"/><circle cx="-19.810" cy="0.000" r="0.850" fill="#12151c"/><rect x="-17.048" y="-1.200" width="2.400" height="2.400" rx="1.200" fill="#c79b5c"/><circle cx="-15.848" cy="0.000" r="0.850" fill="#12151c"/><rect x="-13.086" y="-1.200" width="2.400" height="2.400" rx="1.200" fill="#c79b5c"/><circle cx="-11.886" cy="0.000" r="0.850" fill="#12151c"/><rect x="-9.124" y="-1.200" width="2.400" height="2.400" rx="1.200" fill="#c79b5c"/><circle cx="-7.924" cy="0.000" r="0.850" fill="#12151c"/><rect x="-5.162" y="-1.200" width="2.400" height="2.400" rx="1.200" fill="#c79b5c"/><circle cx="-3.962" cy="0.000" r="0.850" fill="#12151c"/><rect x="-1.200" y="-1.200" width="2.400" height="2.400" rx="1.200" fill="#c79b5c"/><circle cx="0.000" cy="0.000" r="0.850" fill="#12151c"/><rect x="2.762" y="-1.200" width="2.400" height="2.400" rx="1.200" fill="#c79b5c"/><circle cx="3.962" cy="0.000" r="0.850" fill="#12151c"/><rect x="6.724" y="-1.200" width="2.400" height="2.400" rx="1.200" fill="#c79b5c"/><circle cx="7.924" cy="0.000" r="0.850" fill="#12151c"/><rect x="10.686" y="-1.200" width="2.400" height="2.400" rx="1.200" fill="#c79b5c"/><circle cx="11.886" cy="0.000" r="0.850" fill="#12151c"/><rect x="14.648" y="-1.200" width="2.400" height="2.400" rx="1.200" fill="#c79b5c"/><circle cx="15.848" cy="0.000" r="0.850" fill="#12151c"/><rect x="18.610" y="-1.200" width="2.400" height="2.400" rx="1.200" fill="#c79b5c"/><circle cx="19.810" cy="0.000" r="0.850" fill="#12151c"/><rect x="22.572" y="-1.200" width="2.400" height="2.400" rx="1.200" fill="#c79b5c"/><circle cx="23.772" cy="0.000" r="0.850" fill="#12151c"/><polygon points="-24.22,2.25 -23.32,2.25 -23.77,1.65" fill="#ffffff"/></svg>