<svg xmlns="http://www.w3.org/2000/svg" viewBox="-14.50 -2.05 29.00 5.70" preserveAspectRatio="xMidYMid meet" style="width:100%;height:100%"><rect x="-14.50" y="-2.05" width="29.00" height="5.70" fill="#12151c"/><line x1="-13.250" y1="2.100" x2="-13.250" y2="0.600" stroke="#e6e9ef" stroke-width="0.200" stroke-linecap="round" opacity="1"/><line x1="-12.950" y1="2.400" x2="12.950" y2="2.400" stroke="#e6e9ef" stroke-width="0.200" stroke-linecap="round" opacity="1"/><line x1="-10.011" y1="0.300" x2="10.011" y2="0.300" stroke="#e6e9ef" stroke-width="0.200" stroke-linecap="round" opacity="1"/><line x1="13.250" y1="2.100" x2="13.250" y2="0.600" stroke="#e6e9ef" stroke-width="0.200" stroke-linecap="round" opacity="1"/><line x1="-11.950" y1="0.000" x2="-11.450" y2="0.000" stroke="#4a5160" stroke-width="0.100" stroke-linecap="round" opacity="0.7"/><line x1="-11.450" y1="0.000" x2="-11.450" y2="-0.500" stroke="#4a5160" stroke-width="0.100" stroke-linecap="round" opacity="0.7"/><line x1="-11.450" y1="0.000" x2="-10.950" y2="0.000" stroke="#4a5160" stroke-width="0.100" stroke-linecap="round" opacity="0.7"/><line x1="-11.450" y1="0.500" x2="-11.450" y2="0.000" stroke="#4a5160" stroke-width="0.100" stroke-linecap="round" opacity="0.7"/><line x1="-0.500" y1="0.000" x2="0.000" y2="0.000" stroke="#4a5160" stroke-width="0.100" stroke-linecap="round" opacity="0.7"/><line x1="0.000" y1="0.000" x2="0.000" y2="-0.500" stroke="#4a5160" stroke-width="0.100" stroke-linecap="round" opacity="0.7"/><line x1="0.000" y1="0.000" x2="0.500" y2="0.000" stroke="#4a5160" stroke-width="0.100" stroke-linecap="round" opacity="0.7"/><line x1="0.000" y1="0.500" x2="0.000" y2="0.000" stroke="#4a5160" stroke-width="0.100" stroke-linecap="round" opacity="0.7"/><line x1="10.950" y1="0.000" x2="11.450" y2="0.000" stroke="#4a5160" stroke-width="0.100" stroke-linecap="round" opacity="0.7"/><line x1="11.450" y1="0.000" x2="11.450" y2="-0.500" stroke="#4a5160" stroke-width="0.100" stroke-linecap="round" opacity="0.7"/><line x1="11.450" y1="0.000" x2="11.950" y2="0.000" stroke="#4a5160" stroke-width="0.100" stroke-linecap="round" opacity="0.7"/><line x1="11.450" y1="0.500" x2="11.450" y2="0.000" stroke="#4a5160" stroke-width="0.100" stroke-linecap="round" opacity="0.7"/><line x1="-13.250" y1="2.100" x2="-13.250" y2="0.600" stroke="#6b7280" stroke-width="0.100" stroke-linecap="round" opacity="0.8"/><line x1="-12.950" y1="2.400" x2="12.950" y2="2.400" stroke="#6b7280" stroke-width="0.100" stroke-linecap="round" opacity="0.8"/><line x1="-10.011" y1="0.300" x2="10.011" y2="0.300" stroke="#6b7280" stroke-width="0.100" stroke-linecap="round" opacity="0.8"/><line x1="13.250" y1="2.100" x2="13.250" y2="0.600" stroke="#6b7280" stroke-width="0.100" stroke-linecap="round" opacity="0.8"/><line x1="-13.500" y1="-1.050" x2="13.500" y2="-1.050" stroke="#d24d4d" stroke-width="0.080" stroke-linecap="round" opacity="0.7"/><line x1="13.500" y1="-1.050" x2="13.500" y2="2.650" stroke="#d24d4d" stroke-width="0.080" stroke-linecap="round" opacity="0.7"/><line x1="13.500" y1="2.650" x2="-13.500" y2="2.650" stroke="#d24d4d" stroke-width="0.080" stroke-linecap="round" opacity="0.7"/><line x1="-13.500" y1="2.650" x2="-13.500" y2="-1.050" stroke="#d24d4d" stroke-width="0.080" stroke-linecap="round" opacity="0.7"/><path d="M -13.250 0.600 A 0.300 0.300 0 0 1 -12.950 0.300" fill="none" stroke="#e6e9ef" stroke-width="0.12" opacity="1"/><path d="M -12.950 2.400 A 0.300 0.300 0 0 1 -13.250 2.100" fill="none" stroke="#e6e9ef" stroke-width="0.12" opacity="1"/><path d="M 12.950 0.300 A 0.300 0.300 0 0 1 13.250 0.600" fill="none" stroke="#e6e9ef" stroke-width="0.12" opacity="1"/><path d="M 13.250 2.100 A 0.300 0.300 0 0 1 12.950 2.400" fill="none" stroke="#e6e9ef" stroke-width="0.12" opacity="1"/><path d="M -13.250 0.600 A 0.300 0.300 0 0 1 -12.950 0.300" fill="none" stroke="#6b7280" stroke-width="0.12" opacity="0.8"/><path d="M -12.950 2.400 A 0.300 0.300 0 0 1 -13.250 2.100" fill="none" stroke="#6b7280" stroke-width="0.12" opacity="0.8"/><path d="M -11.990 -0.263 A 0.600 0.600 0 0 1 -10.910 -0.263" fill="none" stroke="#6b7280" stroke-width="0.12" opacity="0.8"/><path d="M -11.990 -0.262 A 1.005 1.005 0 0 1 -12.950 0.300" fill="none" stroke="#6b7280" stroke-width="0.12" opacity="0.8"/><path d="M -10.011 0.300 A 1.000 1.000 0 0 1 -10.910 -0.263" fill="none" stroke="#6b7280" stroke-width="0.12" opacity="0.8"/><path d="M 10.910 -0.263 A 0.593 0.593 0 0 1 11.983 -0.259" fill="none" stroke="#6b7280" stroke-width="0.12" opacity="0.8"/><path d="M 10.910 -0.263 A 1.000 1.000 0 0 1 10.011 0.300" fill="none" stroke="#6b7280" stroke-width="0.12" opacity="0.8"/><path d="M 12.950 0.300 A 1.005 1.005 0 0 1 11.990 -0.262" fill="none" stroke="#6b7280" stroke-width="0.12" opacity="0.8"/><path d="M 12.950 0.300 A 0.300 0.300 0 0 1 13.250 0.600" fill="none" stroke="#6b7280" stroke-width="0.12" opacity="0.8"/><path d="M 13.250 2.100 A 0.300 0.300 0 0 1 12.950 2.400" fill="none" stroke="#6b7280" stroke-width="0.12" opacity="0.8"/><rect x="-12.250" y="-0.800" width="1.600" height="1.600" rx="0.800" fill="#c79b5c"/><circle cx="-11.450" cy="0.000" r="0.450" fill="#12151c"/><rect x="10.650" y="-0.800" width="1.600" height="1.600" rx="0.800" fill="#c79b5c"/><circle cx="11.450" cy="0.000" r="0.450" fill="#12151c"/><polygon points="-11.90,1.85 -11.00,1.85 -11.45,1.25" fill="#ffffff"/></svg>