<svg xmlns="http://www.w3.org/2000/svg" viewBox="-6.33 -3.77 12.65 8.76" preserveAspectRatio="xMidYMid meet" style="width:100%;height:100%"><rect x="-6.33" y="-3.77" width="12.65" height="8.76" fill="#12151c"/><path d="M -4.825 3.990 A 0.500 0.500 0 0 1 -5.325 3.490" fill="none" stroke="#e6e9ef" stroke-width="0.12" opacity="1"/><path d="M 5.325 3.490 A 0.500 0.500 0 0 1 4.825 3.990" fill="none" stroke="#e6e9ef" stroke-width="0.12" opacity="1"/><path d="M -4.825 3.990 A 0.500 0.500 0 0 1 -5.325 3.490" fill="none" stroke="#6b7280" stroke-width="0.12" opacity="0.8"/><path d="M 5.325 3.490 A 0.500 0.500 0 0 1 4.825 3.990" fill="none" stroke="#6b7280" stroke-width="0.12" opacity="0.8"/><circle cx="-2.250" cy="-2.640" r="0.125" fill="none" stroke="#e6e9ef" stroke-width="0.12" opacity="1"/><rect x="-2.400" y="-2.050" width="0.300" height="1.600" rx="0.000" fill="#c79b5c"/><rect x="-1.900" y="-2.050" width="0.300" height="1.600" rx="0.000" fill="#c79b5c"/><rect x="-1.400" y="-2.050" width="0.300" height="1.600" rx="0.000" fill="#c79b5c"/><rect x="-0.900" y="-2.050" width="0.300" height="1.600" rx="0.000" fill="#c79b5c"/><rect x="-0.400" y="-2.050" width="0.300" height="1.600" rx="0.000" fill="#c79b5c"/><rect x="0.100" y="-2.050" width="0.300" height="1.600" rx="0.000" fill="#c79b5c"/><rect x="0.600" y="-2.050" width="0.300" height="1.600" rx="0.000" fill="#c79b5c"/><rect x="1.100" y="-2.050" width="0.300" height="1.600" rx="0.000" fill="#c79b5c"/><rect x="1.600" y="-2.050" width="0.300" height="1.600" rx="0.000" fill="#c79b5c"/><rect x="2.100" y="-2.050" width="0.300" height="1.600" rx="0.000" fill="#c79b5c"/><rect x="-5.017" y="-0.830" width="2.240" height="3.120" rx="0.000" fill="#c79b5c"/><rect x="2.777" y="-0.830" width="2.240" height="3.120" rx="0.000" fill="#c79b5c"/></svg>