<svg xmlns="http://www.w3.org/2000/svg" viewBox="-5.80 -2.95 11.60 5.90" preserveAspectRatio="xMidYMid meet" style="width:100%;height:100%"><rect x="-5.80" y="-2.95" width="11.60" height="5.90" fill="#12151c"/><line x1="-2.200" y1="-1.600" x2="2.200" y2="-1.600" stroke="#e6e9ef" stroke-width="0.200" stroke-linecap="round" opacity="1"/><line x1="-2.200" y1="1.600" x2="2.200" y2="1.600" stroke="#e6e9ef" stroke-width="0.200" stroke-linecap="round" opacity="1"/><line x1="-3.900" y1="-1.950" x2="3.900" y2="-1.950" stroke="#d24d4d" stroke-width="0.080" stroke-linecap="round" opacity="0.7"/><line x1="-3.900" y1="1.950" x2="-3.900" y2="-1.950" stroke="#d24d4d" stroke-width="0.080" stroke-linecap="round" opacity="0.7"/><line x1="-3.900" y1="1.950" x2="3.900" y2="1.950" stroke="#d24d4d" stroke-width="0.080" stroke-linecap="round" opacity="0.7"/><line x1="3.900" y1="1.950" x2="3.900" y2="-1.950" stroke="#d24d4d" stroke-width="0.080" stroke-linecap="round" opacity="0.7"/><line x1="-3.175" y1="-1.600" x2="3.175" y2="-1.600" stroke="#6b7280" stroke-width="0.100" stroke-linecap="round" opacity="0.8"/><line x1="-3.175" y1="1.600" x2="-3.175" y2="-1.600" stroke="#6b7280" stroke-width="0.100" stroke-linecap="round" opacity="0.8"/><line x1="-3.175" y1="1.600" x2="3.175" y2="1.600" stroke="#6b7280" stroke-width="0.100" stroke-linecap="round" opacity="0.8"/><line x1="3.175" y1="1.600" x2="3.175" y2="-1.600" stroke="#6b7280" stroke-width="0.100" stroke-linecap="round" opacity="0.8"/><rect x="-4.800" y="-0.525" width="3.400" height="1.050" rx="0.000" fill="#c79b5c"/><rect x="1.400" y="-0.525" width="3.400" height="1.050" rx="0.000" fill="#c79b5c"/><polygon points="-3.55,1.58 -2.65,1.58 -3.10,0.98" fill="#ffffff"/></svg>