<svg xmlns="http://www.w3.org/2000/svg" viewBox="-11.50 -11.50 23.00 23.00" preserveAspectRatio="xMidYMid meet" style="width:100%;height:100%"><rect x="-11.50" y="-11.50" width="23.00" height="23.00" fill="#12151c"/><line x1="-9.000" y1="5.408" x2="-9.000" y2="-5.408" stroke="#e6e9ef" stroke-width="0.200" stroke-linecap="round" opacity="1"/><line x1="-3.203" y1="5.695" x2="-2.065" y2="6.226" stroke="#e6e9ef" stroke-width="0.200" stroke-linecap="round" opacity="1"/><line x1="-2.821" y1="-0.925" x2="-2.642" y2="-1.361" stroke="#e6e9ef" stroke-width="0.200" stroke-linecap="round" opacity="1"/><line x1="-2.817" y1="0.924" x2="-2.645" y2="1.339" stroke="#e6e9ef" stroke-width="0.200" stroke-linecap="round" opacity="1"/><line x1="-2.065" y1="6.226" x2="-1.841" y2="5.747" stroke="#e6e9ef" stroke-width="0.200" stroke-linecap="round" opacity="1"/><line x1="-1.339" y1="2.645" x2="-0.924" y2="2.817" stroke="#e6e9ef" stroke-width="0.200" stroke-linecap="round" opacity="1"/><line x1="-1.010" y1="-6.515" x2="1.010" y2="-6.515" stroke="#e6e9ef" stroke-width="0.200" stroke-linecap="round" opacity="1"/><line x1="-1.010" y1="-5.950" x2="-1.010" y2="-6.515" stroke="#e6e9ef" stroke-width="0.200" stroke-linecap="round" opacity="1"/><line x1="0.925" y1="2.821" x2="1.361" y2="2.642" stroke="#e6e9ef" stroke-width="0.200" stroke-linecap="round" opacity="1"/><line x1="0.927" y1="-2.826" x2="1.336" y2="-2.661" stroke="#e6e9ef" stroke-width="0.200" stroke-linecap="round" opacity="1"/><line x1="1.010" y1="-5.950" x2="1.010" y2="-6.515" stroke="#e6e9ef" stroke-width="0.200" stroke-linecap="round" opacity="1"/><line x1="1.841" y1="5.747" x2="2.065" y2="6.226" stroke="#e6e9ef" stroke-width="0.200" stroke-linecap="round" opacity="1"/><line x1="2.065" y1="6.226" x2="3.203" y2="5.695" stroke="#e6e9ef" stroke-width="0.200" stroke-linecap="round" opacity="1"/><line x1="2.657" y1="-1.358" x2="2.829" y2="-0.928" stroke="#e6e9ef" stroke-width="0.200" stroke-linecap="round" opacity="1"/><line x1="2.661" y1="1.336" x2="2.826" y2="0.927" stroke="#e6e9ef" stroke-width="0.200" stroke-linecap="round" opacity="1"/><line x1="9.000" y1="5.408" x2="9.000" y2="-5.408" stroke="#e6e9ef" stroke-width="0.200" stroke-linecap="round" opacity="1"/><line x1="-4.945" y1="-4.445" x2="-4.445" y2="-4.445" stroke="#4a5160" stroke-width="0.100" stroke-linecap="round" opacity="0.7"/><line x1="-4.945" y1="4.445" x2="-4.445" y2="4.445" stroke="#4a5160" stroke-width="0.100" stroke-linecap="round" opacity="0.7"/><line x1="-4.445" y1="-4.445" x2="-4.445" y2="-4.945" stroke="#4a5160" stroke-width="0.100" stroke-linecap="round" opacity="0.7"/><line x1="-4.445" y1="-4.445" x2="-3.945" y2="-4.445" stroke="#4a5160" stroke-width="0.100" stroke-linecap="round" opacity="0.7"/><line x1="-4.445" y1="-3.945" x2="-4.445" y2="-4.445" stroke="#4a5160" stroke-width="0.100" stroke-linecap="round" opacity="0.7"/><line x1="-4.445" y1="4.445" x2="-4.445" y2="3.945" stroke="#4a5160" stroke-width="0.100" stroke-linecap="round" opacity="0.7"/><line x1="-4.445" y1="4.445" x2="-3.945" y2="4.445" stroke="#4a5160" stroke-width="0.100" stroke-linecap="round" opacity="0.7"/><line x1="-4.445" y1="4.945" x2="-4.445" y2="4.445" stroke="#4a5160" stroke-width="0.100" stroke-linecap="round" opacity="0.7"/><line x1="-3.700" y1="0.000" x2="-3.200" y2="0.000" stroke="#4a5160" stroke-width="0.100" stroke-linecap="round" opacity="0.7"/><line x1="-3.200" y1="0.000" x2="-3.200" y2="-0.500" stroke="#4a5160" stroke-width="0.100" stroke-linecap="round" opacity="0.7"/><line x1="-3.200" y1="0.000" x2="-2.700" y2="0.000" stroke="#4a5160" stroke-width="0.100" stroke-linecap="round" opacity="0.7"/><line x1="-3.200" y1="0.500" x2="-3.200" y2="0.000" stroke="#4a5160" stroke-width="0.100" stroke-linecap="round" opacity="0.7"/><line x1="-2.763" y1="-2.286" x2="-2.263" y2="-2.286" stroke="#4a5160" stroke-width="0.100" stroke-linecap="round" opacity="0.7"/><line x1="-2.763" y1="2.263" x2="-2.263" y2="2.263" stroke="#4a5160" stroke-width="0.100" stroke-linecap="round" opacity="0.7"/><line x1="-2.753" y1="5.905" x2="0.000" y2="0.000" stroke="#4a5160" stroke-width="0.100" stroke-linecap="round" opacity="0.7"/><line x1="-2.263" y1="-2.286" x2="-2.263" y2="-2.786" stroke="#4a5160" stroke-width="0.100" stroke-linecap="round" opacity="0.7"/><line x1="-2.263" y1="-2.286" x2="-1.763" y2="-2.286" stroke="#4a5160" stroke-width="0.100" stroke-linecap="round" opacity="0.7"/><line x1="-2.263" y1="-1.786" x2="-2.263" y2="-2.286" stroke="#4a5160" stroke-width="0.100" stroke-linecap="round" opacity="0.7"/><line x1="-2.263" y1="2.263" x2="-2.263" y2="1.763" stroke="#4a5160" stroke-width="0.100" stroke-linecap="round" opacity="0.7"/><line x1="-2.263" y1="2.263" x2="-1.763" y2="2.263" stroke="#4a5160" stroke-width="0.100" stroke-linecap="round" opacity="0.7"/><line x1="-2.263" y1="2.763" x2="-2.263" y2="2.263" stroke="#4a5160" stroke-width="0.100" stroke-linecap="round" opacity="0.7"/><line x1="-2.113" y1="4.532" x2="-1.113" y2="4.532" stroke="#4a5160" stroke-width="0.100" stroke-linecap="round" opacity="0.7"/><line x1="-2.113" y1="5.532" x2="-2.113" y2="4.532" stroke="#4a5160" stroke-width="0.100" stroke-linecap="round" opacity="0.7"/><line x1="-0.500" y1="-3.200" x2="0.000" y2="-3.200" stroke="#4a5160" stroke-width="0.100" stroke-linecap="round" opacity="0.7"/><line x1="-0.500" y1="3.200" x2="0.000" y2="3.200" stroke="#4a5160" stroke-width="0.100" stroke-linecap="round" opacity="0.7"/><line x1="0.000" y1="-3.200" x2="0.000" y2="-3.700" stroke="#4a5160" stroke-width="0.100" stroke-linecap="round" opacity="0.7"/><line x1="0.000" y1="-3.200" x2="0.500" y2="-3.200" stroke="#4a5160" stroke-width="0.100" stroke-linecap="round" opacity="0.7"/><line x1="0.000" y1="-2.700" x2="0.000" y2="-3.200" stroke="#4a5160" stroke-width="0.100" stroke-linecap="round" opacity="0.7"/><line x1="0.000" y1="0.000" x2="0.000" y2="-6.515" stroke="#4a5160" stroke-width="0.100" stroke-linecap="round" opacity="0.7"/><line x1="0.000" y1="0.000" x2="2.753" y2="5.905" stroke="#4a5160" stroke-width="0.100" stroke-linecap="round" opacity="0.7"/><line x1="0.000" y1="3.200" x2="0.000" y2="2.700" stroke="#4a5160" stroke-width="0.100" stroke-linecap="round" opacity="0.7"/><line x1="0.000" y1="3.200" x2="0.500" y2="3.200" stroke="#4a5160" stroke-width="0.100" stroke-linecap="round" opacity="0.7"/><line x1="0.000" y1="3.700" x2="0.000" y2="3.200" stroke="#4a5160" stroke-width="0.100" stroke-linecap="round" opacity="0.7"/><line x1="1.113" y1="4.532" x2="2.113" y2="4.532" stroke="#4a5160" stroke-width="0.100" stroke-linecap="round" opacity="0.7"/><line x1="1.786" y1="-2.286" x2="2.286" y2="-2.286" stroke="#4a5160" stroke-width="0.100" stroke-linecap="round" opacity="0.7"/><line x1="1.786" y1="2.263" x2="2.286" y2="2.263" stroke="#4a5160" stroke-width="0.100" stroke-linecap="round" opacity="0.7"/><line x1="2.113" y1="5.532" x2="2.113" y2="4.532" stroke="#4a5160" stroke-width="0.100" stroke-linecap="round" opacity="0.7"/><line x1="2.286" y1="-2.286" x2="2.286" y2="-2.786" stroke="#4a5160" stroke-width="0.100" stroke-linecap="round" opacity="0.7"/><line x1="2.286" y1="-2.286" x2="2.786" y2="-2.286" stroke="#4a5160" stroke-width="0.100" stroke-linecap="round" opacity="0.7"/><line x1="2.286" y1="-1.786" x2="2.286" y2="-2.286" stroke="#4a5160" stroke-width="0.100" stroke-linecap="round" opacity="0.7"/><line x1="2.286" y1="2.263" x2="2.286" y2="1.763" stroke="#4a5160" stroke-width="0.100" stroke-linecap="round" opacity="0.7"/><line x1="2.286" y1="2.263" x2="2.786" y2="2.263" stroke="#4a5160" stroke-width="0.100" stroke-linecap="round" opacity="0.7"/><line x1="2.286" y1="2.763" x2="2.286" y2="2.263" stroke="#4a5160" stroke-width="0.100" stroke-linecap="round" opacity="0.7"/><line x1="2.700" y1="0.000" x2="3.200" y2="0.000" stroke="#4a5160" stroke-width="0.100" stroke-linecap="round" opacity="0.7"/><line x1="3.200" y1="0.000" x2="3.200" y2="-0.500" stroke="#4a5160" stroke-width="0.100" stroke-linecap="round" opacity="0.7"/><line x1="3.200" y1="0.000" x2="3.700" y2="0.000" stroke="#4a5160" stroke-width="0.100" stroke-linecap="round" opacity="0.7"/><line x1="3.200" y1="0.500" x2="3.200" y2="0.000" stroke="#4a5160" stroke-width="0.100" stroke-linecap="round" opacity="0.7"/><line x1="3.945" y1="-4.445" x2="4.445" y2="-4.445" stroke="#4a5160" stroke-width="0.100" stroke-linecap="round" opacity="0.7"/><line x1="3.945" y1="4.445" x2="4.445" y2="4.445" stroke="#4a5160" stroke-width="0.100" stroke-linecap="round" opacity="0.7"/><line x1="4.445" y1="-4.445" x2="4.445" y2="-4.945" stroke="#4a5160" stroke-width="0.100" stroke-linecap="round" opacity="0.7"/><line x1="4.445" y1="-4.445" x2="4.945" y2="-4.445" stroke="#4a5160" stroke-width="0.100" stroke-linecap="round" opacity="0.7"/><line x1="4.445" y1="-3.945" x2="4.445" y2="-4.445" stroke="#4a5160" stroke-width="0.100" stroke-linecap="round" opacity="0.7"/><line x1="4.445" y1="4.445" x2="4.445" y2="3.945" stroke="#4a5160" stroke-width="0.100" stroke-linecap="round" opacity="0.7"/><line x1="4.445" y1="4.445" x2="4.945" y2="4.445" stroke="#4a5160" stroke-width="0.100" stroke-linecap="round" opacity="0.7"/><line x1="4.445" y1="4.945" x2="4.445" y2="4.445" stroke="#4a5160" stroke-width="0.100" stroke-linecap="round" opacity="0.7"/><line x1="-9.000" y1="5.408" x2="-9.000" y2="-5.408" stroke="#6b7280" stroke-width="0.100" stroke-linecap="round" opacity="0.8"/><line x1="-3.442" y1="5.583" x2="-3.219" y2="5.105" stroke="#6b7280" stroke-width="0.100" stroke-linecap="round" opacity="0.8"/><line x1="-3.442" y1="5.583" x2="-2.065" y2="6.226" stroke="#6b7280" stroke-width="0.100" stroke-linecap="round" opacity="0.8"/><line x1="-2.991" y1="-0.509" x2="-2.471" y2="-1.777" stroke="#6b7280" stroke-width="0.100" stroke-linecap="round" opacity="0.8"/><line x1="-2.989" y1="0.508" x2="-2.473" y2="1.755" stroke="#6b7280" stroke-width="0.100" stroke-linecap="round" opacity="0.8"/><line x1="-2.065" y1="6.226" x2="-1.841" y2="5.747" stroke="#6b7280" stroke-width="0.100" stroke-linecap="round" opacity="0.8"/><line x1="-1.755" y1="2.473" x2="-0.508" y2="2.990" stroke="#6b7280" stroke-width="0.100" stroke-linecap="round" opacity="0.8"/><line x1="-1.010" y1="-6.515" x2="1.010" y2="-6.515" stroke="#6b7280" stroke-width="0.100" stroke-linecap="round" opacity="0.8"/><line x1="-1.010" y1="-5.950" x2="-1.010" y2="-6.515" stroke="#6b7280" stroke-width="0.100" stroke-linecap="round" opacity="0.8"/><line x1="0.509" y1="2.991" x2="1.777" y2="2.471" stroke="#6b7280" stroke-width="0.100" stroke-linecap="round" opacity="0.8"/><line x1="0.927" y1="-2.826" x2="1.753" y2="-2.492" stroke="#6b7280" stroke-width="0.100" stroke-linecap="round" opacity="0.8"/><line x1="1.010" y1="-5.950" x2="1.010" y2="-6.515" stroke="#6b7280" stroke-width="0.100" stroke-linecap="round" opacity="0.8"/><line x1="1.841" y1="5.747" x2="2.065" y2="6.226" stroke="#6b7280" stroke-width="0.100" stroke-linecap="round" opacity="0.8"/><line x1="2.065" y1="6.226" x2="3.442" y2="5.583" stroke="#6b7280" stroke-width="0.100" stroke-linecap="round" opacity="0.8"/><line x1="2.490" y1="-1.775" x2="2.996" y2="-0.511" stroke="#6b7280" stroke-width="0.100" stroke-linecap="round" opacity="0.8"/><line x1="2.492" y1="1.753" x2="2.994" y2="0.510" stroke="#6b7280" stroke-width="0.100" stroke-linecap="round" opacity="0.8"/><line x1="3.219" y1="5.105" x2="3.442" y2="5.583" stroke="#6b7280" stroke-width="0.100" stroke-linecap="round" opacity="0.8"/><line x1="9.000" y1="5.408" x2="9.000" y2="-5.408" stroke="#6b7280" stroke-width="0.100" stroke-linecap="round" opacity="0.8"/><line x1="-9.250" y1="-6.760" x2="9.250" y2="-6.760" stroke="#d24d4d" stroke-width="0.080" stroke-linecap="round" opacity="0.7"/><line x1="9.250" y1="-6.760" x2="9.250" y2="6.480" stroke="#d24d4d" stroke-width="0.080" stroke-linecap="round" opacity="0.7"/><line x1="9.250" y1="6.480" x2="-9.250" y2="6.480" stroke="#d24d4d" stroke-width="0.080" stroke-linecap="round" opacity="0.7"/><line x1="-9.250" y1="6.480" x2="-9.250" y2="-6.760" stroke="#d24d4d" stroke-width="0.080" stroke-linecap="round" opacity="0.7"/><path d="M -9.000 -2.048 A 9.230 9.230 0 0 1 9.000 -2.048" fill="none" stroke="#e6e9ef" stroke-width="0.12" opacity="1"/><path d="M -5.695 5.182 A 7.700 7.700 0 0 1 -5.695 -5.182" fill="none" stroke="#e6e9ef" stroke-width="0.12" opacity="1"/><path d="M -5.182 -5.695 A 7.700 7.700 0 0 1 5.182 -5.695" fill="none" stroke="#e6e9ef" stroke-width="0.12" opacity="1"/><path d="M -5.120 3.195 A 6.035 6.035 0 0 1 -5.120 -3.195" fill="none" stroke="#e6e9ef" stroke-width="0.12" opacity="1"/><path d="M -3.195 -5.120 A 6.035 6.035 0 0 1 -1.010 -5.950" fill="none" stroke="#e6e9ef" stroke-width="0.12" opacity="1"/><path d="M 1.010 -5.950 A 6.035 6.035 0 0 1 3.195 -5.120" fill="none" stroke="#e6e9ef" stroke-width="0.12" opacity="1"/><path d="M 1.841 5.747 A 6.035 6.035 0 0 1 -1.841 5.747" fill="none" stroke="#e6e9ef" stroke-width="0.12" opacity="1"/><path d="M 5.120 -3.195 A 6.035 6.035 0 0 1 5.120 3.195" fill="none" stroke="#e6e9ef" stroke-width="0.12" opacity="1"/><path d="M 5.182 5.695 A 7.700 7.700 0 0 1 -5.182 5.695" fill="none" stroke="#e6e9ef" stroke-width="0.12" opacity="1"/><path d="M 5.695 -5.182 A 7.700 7.700 0 0 1 5.695 5.182" fill="none" stroke="#e6e9ef" stroke-width="0.12" opacity="1"/><path d="M 9.000 2.048 A 9.230 9.230 0 0 1 -9.000 2.048" fill="none" stroke="#e6e9ef" stroke-width="0.12" opacity="1"/><path d="M 2.113 4.532 A 5.000 5.000 0 0 1 -2.113 4.532" fill="none" stroke="#4a5160" stroke-width="0.12" opacity="0.7"/><path d="M -9.000 -2.048 A 9.230 9.230 0 0 1 9.000 -2.048" fill="none" stroke="#6b7280" stroke-width="0.12" opacity="0.8"/><path d="M -3.219 5.105 A 6.035 6.035 0 0 1 -1.010 -5.950" fill="none" stroke="#6b7280" stroke-width="0.12" opacity="0.8"/><path d="M 0.815 5.980 A 6.035 6.035 0 0 1 -1.841 5.747" fill="none" stroke="#6b7280" stroke-width="0.12" opacity="0.8"/><path d="M 1.010 -5.950 A 6.035 6.035 0 0 1 3.219 5.105" fill="none" stroke="#6b7280" stroke-width="0.12" opacity="0.8"/><path d="M 9.000 2.048 A 9.230 9.230 0 0 1 -9.000 2.048" fill="none" stroke="#6b7280" stroke-width="0.12" opacity="0.8"/><circle cx="0.000" cy="-3.200" r="1.000" fill="none" stroke="#e6e9ef" stroke-width="0.12" opacity="1"/><circle cx="0.000" cy="0.000" r="10.500" fill="none" stroke="#e6e9ef" stroke-width="0.12" opacity="1"/><circle cx="-3.200" cy="0.000" r="0.550" fill="none" stroke="#6b7280" stroke-width="0.12" opacity="0.8"/><circle cx="-2.263" cy="-2.286" r="0.550" fill="none" stroke="#6b7280" stroke-width="0.12" opacity="0.8"/><circle cx="-2.263" cy="2.263" r="0.550" fill="none" stroke="#6b7280" stroke-width="0.12" opacity="0.8"/><circle cx="0.000" cy="-3.200" r="1.000" fill="none" stroke="#6b7280" stroke-width="0.12" opacity="0.8"/><circle cx="0.000" cy="0.000" r="10.500" fill="none" stroke="#6b7280" stroke-width="0.12" opacity="0.8"/><circle cx="0.000" cy="0.000" r="7.700" fill="none" stroke="#6b7280" stroke-width="0.12" opacity="0.8"/><circle cx="0.000" cy="3.200" r="0.550" fill="none" stroke="#6b7280" stroke-width="0.12" opacity="0.8"/><circle cx="2.286" cy="-2.286" r="0.550" fill="none" stroke="#6b7280" stroke-width="0.12" opacity="0.8"/><circle cx="2.286" cy="2.263" r="0.550" fill="none" stroke="#6b7280" stroke-width="0.12" opacity="0.8"/><circle cx="3.200" cy="0.000" r="0.550" fill="none" stroke="#6b7280" stroke-width="0.12" opacity="0.8"/><rect x="-0.650" y="-3.850" width="1.300" height="1.300" rx="0.650" fill="#c79b5c"/><circle cx="0.000" cy="-3.200" r="0.400" fill="#12151c"/><rect x="1.636" y="-2.936" width="1.300" height="1.300" rx="0.650" fill="#c79b5c"/><circle cx="2.286" cy="-2.286" r="0.400" fill="#12151c"/><rect x="2.550" y="-0.650" width="1.300" height="1.300" rx="0.650" fill="#c79b5c"/><circle cx="3.200" cy="0.000" r="0.400" fill="#12151c"/><rect x="1.636" y="1.613" width="1.300" height="1.300" rx="0.650" fill="#c79b5c"/><circle cx="2.286" cy="2.263" r="0.400" fill="#12151c"/><rect x="-0.650" y="2.550" width="1.300" height="1.300" rx="0.650" fill="#c79b5c"/><circle cx="0.000" cy="3.200" r="0.400" fill="#12151c"/><rect x="-2.913" y="1.613" width="1.300" height="1.300" rx="0.650" fill="#c79b5c"/><circle cx="-2.263" cy="2.263" r="0.400" fill="#12151c"/><rect x="-3.850" y="-0.650" width="1.300" height="1.300" rx="0.650" fill="#c79b5c"/><circle cx="-3.200" cy="0.000" r="0.400" fill="#12151c"/><rect x="-2.913" y="-2.936" width="1.300" height="1.300" rx="0.650" fill="#c79b5c"/><circle cx="-2.263" cy="-2.286" r="0.400" fill="#12151c"/><rect x="-5.295" y="-5.295" width="1.700" height="1.700" rx="0.000" fill="#c79b5c"/><circle cx="-4.445" cy="-4.445" r="0.500" fill="#12151c"/><rect x="-5.295" y="3.595" width="1.700" height="1.700" rx="0.000" fill="#c79b5c"/><circle cx="-4.445" cy="4.445" r="0.500" fill="#12151c"/><rect x="3.595" y="3.595" width="1.700" height="1.700" rx="0.000" fill="#c79b5c"/><circle cx="4.445" cy="4.445" r="0.500" fill="#12151c"/><rect x="3.595" y="-5.295" width="1.700" height="1.700" rx="0.000" fill="#c79b5c"/><circle cx="4.445" cy="-4.445" r="0.500" fill="#12151c"/></svg>