<svg xmlns="http://www.w3.org/2000/svg" viewBox="-27.60 -14.90 55.20 29.80" preserveAspectRatio="xMidYMid meet" style="width:100%;height:100%"><rect x="-27.60" y="-14.90" width="55.20" height="29.80" fill="#12151c"/><line x1="-26.350" y1="-13.650" x2="26.350" y2="-13.650" stroke="#e6e9ef" stroke-width="0.200" stroke-linecap="round" opacity="1"/><line x1="-26.350" y1="13.650" x2="-26.350" y2="-13.650" stroke="#e6e9ef" stroke-width="0.200" stroke-linecap="round" opacity="1"/><line x1="-26.350" y1="13.650" x2="26.350" y2="13.650" stroke="#e6e9ef" stroke-width="0.200" stroke-linecap="round" opacity="1"/><line x1="26.350" y1="13.650" x2="26.350" y2="-13.650" stroke="#e6e9ef" stroke-width="0.200" stroke-linecap="round" opacity="1"/><line x1="-24.945" y1="-9.510" x2="-24.445" y2="-9.510" stroke="#4a5160" stroke-width="0.100" stroke-linecap="round" opacity="0.7"/><line x1="-24.945" y1="-3.160" x2="-24.445" y2="-3.160" stroke="#4a5160" stroke-width="0.100" stroke-linecap="round" opacity="0.7"/><line x1="-24.945" y1="3.190" x2="-24.445" y2="3.190" stroke="#4a5160" stroke-width="0.100" stroke-linecap="round" opacity="0.7"/><line x1="-24.945" y1="9.540" x2="-24.445" y2="9.540" stroke="#4a5160" stroke-width="0.100" stroke-linecap="round" opacity="0.7"/><line x1="-24.445" y1="-9.510" x2="-24.445" y2="-10.010" stroke="#4a5160" stroke-width="0.100" stroke-linecap="round" opacity="0.7"/><line x1="-24.445" y1="-9.510" x2="-23.945" y2="-9.510" stroke="#4a5160" stroke-width="0.100" stroke-linecap="round" opacity="0.7"/><line x1="-24.445" y1="-9.010" x2="-24.445" y2="-9.510" stroke="#4a5160" stroke-width="0.100" stroke-linecap="round" opacity="0.7"/><line x1="-24.445" y1="-3.160" x2="-24.445" y2="-3.660" stroke="#4a5160" stroke-width="0.100" stroke-linecap="round" opacity="0.7"/><line x1="-24.445" y1="-3.160" x2="-23.945" y2="-3.160" stroke="#4a5160" stroke-width="0.100" stroke-linecap="round" opacity="0.7"/><line x1="-24.445" y1="-2.660" x2="-24.445" y2="-3.160" stroke="#4a5160" stroke-width="0.100" stroke-linecap="round" opacity="0.7"/><line x1="-24.445" y1="3.190" x2="-24.445" y2="2.690" stroke="#4a5160" stroke-width="0.100" stroke-linecap="round" opacity="0.7"/><line x1="-24.445" y1="3.190" x2="-23.945" y2="3.190" stroke="#4a5160" stroke-width="0.100" stroke-linecap="round" opacity="0.7"/><line x1="-24.445" y1="3.690" x2="-24.445" y2="3.190" stroke="#4a5160" stroke-width="0.100" stroke-linecap="round" opacity="0.7"/><line x1="-24.445" y1="9.540" x2="-24.445" y2="9.040" stroke="#4a5160" stroke-width="0.100" stroke-linecap="round" opacity="0.7"/><line x1="-24.445" y1="9.540" x2="-23.945" y2="9.540" stroke="#4a5160" stroke-width="0.100" stroke-linecap="round" opacity="0.7"/><line x1="-24.445" y1="10.040" x2="-24.445" y2="9.540" stroke="#4a5160" stroke-width="0.100" stroke-linecap="round" opacity="0.7"/><line x1="-0.354" y1="-0.354" x2="0.000" y2="0.000" stroke="#4a5160" stroke-width="0.100" stroke-linecap="round" opacity="0.7"/><line x1="-0.354" y1="0.354" x2="0.000" y2="0.000" stroke="#4a5160" stroke-width="0.100" stroke-linecap="round" opacity="0.7"/><line x1="0.000" y1="0.000" x2="0.354" y2="-0.354" stroke="#4a5160" stroke-width="0.100" stroke-linecap="round" opacity="0.7"/><line x1="0.000" y1="0.000" x2="0.354" y2="0.354" stroke="#4a5160" stroke-width="0.100" stroke-linecap="round" opacity="0.7"/><line x1="23.945" y1="-9.510" x2="24.445" y2="-9.510" stroke="#4a5160" stroke-width="0.100" stroke-linecap="round" opacity="0.7"/><line x1="23.945" y1="-6.335" x2="24.445" y2="-6.335" stroke="#4a5160" stroke-width="0.100" stroke-linecap="round" opacity="0.7"/><line x1="23.945" y1="-3.160" x2="24.445" y2="-3.160" stroke="#4a5160" stroke-width="0.100" stroke-linecap="round" opacity="0.7"/><line x1="23.945" y1="0.015" x2="24.445" y2="0.015" stroke="#4a5160" stroke-width="0.100" stroke-linecap="round" opacity="0.7"/><line x1="23.945" y1="3.190" x2="24.445" y2="3.190" stroke="#4a5160" stroke-width="0.100" stroke-linecap="round" opacity="0.7"/><line x1="23.945" y1="6.365" x2="24.445" y2="6.365" stroke="#4a5160" stroke-width="0.100" stroke-linecap="round" opacity="0.7"/><line x1="23.945" y1="9.540" x2="24.445" y2="9.540" stroke="#4a5160" stroke-width="0.100" stroke-linecap="round" opacity="0.7"/><line x1="24.445" y1="-9.510" x2="24.445" y2="-10.010" stroke="#4a5160" stroke-width="0.100" stroke-linecap="round" opacity="0.7"/><line x1="24.445" y1="-9.510" x2="24.945" y2="-9.510" stroke="#4a5160" stroke-width="0.100" stroke-linecap="round" opacity="0.7"/><line x1="24.445" y1="-9.010" x2="24.445" y2="-9.510" stroke="#4a5160" stroke-width="0.100" stroke-linecap="round" opacity="0.7"/><line x1="24.445" y1="-6.335" x2="24.445" y2="-6.835" stroke="#4a5160" stroke-width="0.100" stroke-linecap="round" opacity="0.7"/><line x1="24.445" y1="-6.335" x2="24.945" y2="-6.335" stroke="#4a5160" stroke-width="0.100" stroke-linecap="round" opacity="0.7"/><line x1="24.445" y1="-5.835" x2="24.445" y2="-6.335" stroke="#4a5160" stroke-width="0.100" stroke-linecap="round" opacity="0.7"/><line x1="24.445" y1="-3.160" x2="24.445" y2="-3.660" stroke="#4a5160" stroke-width="0.100" stroke-linecap="round" opacity="0.7"/><line x1="24.445" y1="-3.160" x2="24.945" y2="-3.160" stroke="#4a5160" stroke-width="0.100" stroke-linecap="round" opacity="0.7"/><line x1="24.445" y1="-2.660" x2="24.445" y2="-3.160" stroke="#4a5160" stroke-width="0.100" stroke-linecap="round" opacity="0.7"/><line x1="24.445" y1="0.015" x2="24.445" y2="-0.485" stroke="#4a5160" stroke-width="0.100" stroke-linecap="round" opacity="0.7"/><line x1="24.445" y1="0.015" x2="24.945" y2="0.015" stroke="#4a5160" stroke-width="0.100" stroke-linecap="round" opacity="0.7"/><line x1="24.445" y1="0.515" x2="24.445" y2="0.015" stroke="#4a5160" stroke-width="0.100" stroke-linecap="round" opacity="0.7"/><line x1="24.445" y1="3.190" x2="24.445" y2="2.690" stroke="#4a5160" stroke-width="0.100" stroke-linecap="round" opacity="0.7"/><line x1="24.445" y1="3.190" x2="24.945" y2="3.190" stroke="#4a5160" stroke-width="0.100" stroke-linecap="round" opacity="0.7"/><line x1="24.445" y1="3.690" x2="24.445" y2="3.190" stroke="#4a5160" stroke-width="0.100" stroke-linecap="round" opacity="0.7"/><line x1="24.445" y1="6.365" x2="24.445" y2="5.865" stroke="#4a5160" stroke-width="0.100" stroke-linecap="round" opacity="0.7"/><line x1="24.445" y1="6.365" x2="24.945" y2="6.365" stroke="#4a5160" stroke-width="0.100" stroke-linecap="round" opacity="0.7"/><line x1="24.445" y1="6.865" x2="24.445" y2="6.365" stroke="#4a5160" stroke-width="0.100" stroke-linecap="round" opacity="0.7"/><line x1="24.445" y1="9.540" x2="24.445" y2="9.040" stroke="#4a5160" stroke-width="0.100" stroke-linecap="round" opacity="0.7"/><line x1="24.445" y1="9.540" x2="24.945" y2="9.540" stroke="#4a5160" stroke-width="0.100" stroke-linecap="round" opacity="0.7"/><line x1="24.445" y1="10.040" x2="24.445" y2="9.540" stroke="#4a5160" stroke-width="0.100" stroke-linecap="round" opacity="0.7"/><line x1="-26.350" y1="-13.650" x2="26.350" y2="-13.650" stroke="#6b7280" stroke-width="0.100" stroke-linecap="round" opacity="0.8"/><line x1="-26.350" y1="13.650" x2="-26.350" y2="-13.650" stroke="#6b7280" stroke-width="0.100" stroke-linecap="round" opacity="0.8"/><line x1="-26.350" y1="13.650" x2="26.350" y2="13.650" stroke="#6b7280" stroke-width="0.100" stroke-linecap="round" opacity="0.8"/><line x1="-22.670" y1="-11.350" x2="-18.170" y2="-11.350" stroke="#6b7280" stroke-width="0.100" stroke-linecap="round" opacity="0.8"/><line x1="-22.670" y1="-8.870" x2="-22.670" y2="-11.350" stroke="#6b7280" stroke-width="0.100" stroke-linecap="round" opacity="0.8"/><line x1="-22.670" y1="-8.870" x2="-18.170" y2="-8.870" stroke="#6b7280" stroke-width="0.100" stroke-linecap="round" opacity="0.8"/><line x1="-22.670" y1="3.370" x2="-17.670" y2="3.370" stroke="#6b7280" stroke-width="0.100" stroke-linecap="round" opacity="0.8"/><line x1="-22.670" y1="9.770" x2="-22.670" y2="3.370" stroke="#6b7280" stroke-width="0.100" stroke-linecap="round" opacity="0.8"/><line x1="-22.670" y1="9.770" x2="-17.670" y2="9.770" stroke="#6b7280" stroke-width="0.100" stroke-linecap="round" opacity="0.8"/><line x1="-22.160" y1="-7.670" x2="-22.160" y2="-8.861" stroke="#6b7280" stroke-width="0.100" stroke-linecap="round" opacity="0.8"/><line x1="-22.160" y1="-7.670" x2="-21.680" y2="-7.670" stroke="#6b7280" stroke-width="0.100" stroke-linecap="round" opacity="0.8"/><line x1="-21.680" y1="-7.670" x2="-21.680" y2="-8.870" stroke="#6b7280" stroke-width="0.100" stroke-linecap="round" opacity="0.8"/><line x1="-21.220" y1="-11.920" x2="-19.620" y2="-11.920" stroke="#6b7280" stroke-width="0.100" stroke-linecap="round" opacity="0.8"/><line x1="-21.220" y1="-11.350" x2="-21.220" y2="-11.920" stroke="#6b7280" stroke-width="0.100" stroke-linecap="round" opacity="0.8"/><line x1="-20.660" y1="-7.670" x2="-20.660" y2="-8.861" stroke="#6b7280" stroke-width="0.100" stroke-linecap="round" opacity="0.8"/><line x1="-20.660" y1="-7.670" x2="-20.180" y2="-7.670" stroke="#6b7280" stroke-width="0.100" stroke-linecap="round" opacity="0.8"/><line x1="-20.180" y1="-7.670" x2="-20.180" y2="-8.861" stroke="#6b7280" stroke-width="0.100" stroke-linecap="round" opacity="0.8"/><line x1="-19.620" y1="-11.353" x2="-19.620" y2="-11.920" stroke="#6b7280" stroke-width="0.100" stroke-linecap="round" opacity="0.8"/><line x1="-19.160" y1="-7.670" x2="-19.160" y2="-8.870" stroke="#6b7280" stroke-width="0.100" stroke-linecap="round" opacity="0.8"/><line x1="-19.160" y1="-7.670" x2="-18.680" y2="-7.670" stroke="#6b7280" stroke-width="0.100" stroke-linecap="round" opacity="0.8"/><line x1="-18.680" y1="-7.670" x2="-18.680" y2="-8.870" stroke="#6b7280" stroke-width="0.100" stroke-linecap="round" opacity="0.8"/><line x1="-18.170" y1="-8.870" x2="-18.170" y2="-11.350" stroke="#6b7280" stroke-width="0.100" stroke-linecap="round" opacity="0.8"/><line x1="-17.670" y1="9.770" x2="-17.670" y2="3.370" stroke="#6b7280" stroke-width="0.100" stroke-linecap="round" opacity="0.8"/><line x1="-14.230" y1="-2.030" x2="-10.030" y2="-2.030" stroke="#6b7280" stroke-width="0.100" stroke-linecap="round" opacity="0.8"/><line x1="-14.230" y1="9.570" x2="-14.230" y2="-2.030" stroke="#6b7280" stroke-width="0.100" stroke-linecap="round" opacity="0.8"/><line x1="-14.230" y1="9.570" x2="-10.030" y2="9.570" stroke="#6b7280" stroke-width="0.100" stroke-linecap="round" opacity="0.8"/><line x1="-13.170" y1="-9.070" x2="-8.970" y2="-9.070" stroke="#6b7280" stroke-width="0.100" stroke-linecap="round" opacity="0.8"/><line x1="-13.170" y1="-6.070" x2="-13.170" y2="-9.070" stroke="#6b7280" stroke-width="0.100" stroke-linecap="round" opacity="0.8"/><line x1="-13.170" y1="-6.070" x2="-8.970" y2="-6.070" stroke="#6b7280" stroke-width="0.100" stroke-linecap="round" opacity="0.8"/><line x1="-10.030" y1="-3.730" x2="-0.030" y2="-3.730" stroke="#6b7280" stroke-width="0.100" stroke-linecap="round" opacity="0.8"/><line x1="-10.030" y1="11.270" x2="-10.030" y2="-3.730" stroke="#6b7280" stroke-width="0.100" stroke-linecap="round" opacity="0.8"/><line x1="-10.030" y1="11.270" x2="-0.030" y2="11.270" stroke="#6b7280" stroke-width="0.100" stroke-linecap="round" opacity="0.8"/><line x1="-8.970" y1="-6.070" x2="-8.970" y2="-9.070" stroke="#6b7280" stroke-width="0.100" stroke-linecap="round" opacity="0.8"/><line x1="-0.030" y1="-2.030" x2="4.170" y2="-2.030" stroke="#6b7280" stroke-width="0.100" stroke-linecap="round" opacity="0.8"/><line x1="-0.030" y1="9.570" x2="4.170" y2="9.570" stroke="#6b7280" stroke-width="0.100" stroke-linecap="round" opacity="0.8"/><line x1="-0.030" y1="11.270" x2="-0.030" y2="-3.730" stroke="#6b7280" stroke-width="0.100" stroke-linecap="round" opacity="0.8"/><line x1="2.564" y1="-11.830" x2="5.470" y2="-11.830" stroke="#6b7280" stroke-width="0.100" stroke-linecap="round" opacity="0.8"/><line x1="2.564" y1="-10.940" x2="2.564" y2="-11.830" stroke="#6b7280" stroke-width="0.100" stroke-linecap="round" opacity="0.8"/><line x1="2.564" y1="-10.940" x2="5.470" y2="-10.940" stroke="#6b7280" stroke-width="0.100" stroke-linecap="round" opacity="0.8"/><line x1="2.564" y1="-7.270" x2="5.470" y2="-7.270" stroke="#6b7280" stroke-width="0.100" stroke-linecap="round" opacity="0.8"/><line x1="2.564" y1="-6.380" x2="2.564" y2="-7.270" stroke="#6b7280" stroke-width="0.100" stroke-linecap="round" opacity="0.8"/><line x1="2.564" y1="-6.380" x2="5.470" y2="-6.380" stroke="#6b7280" stroke-width="0.100" stroke-linecap="round" opacity="0.8"/><line x1="4.170" y1="9.570" x2="4.170" y2="-2.030" stroke="#6b7280" stroke-width="0.100" stroke-linecap="round" opacity="0.8"/><line x1="4.470" y1="-9.550" x2="5.470" y2="-9.550" stroke="#6b7280" stroke-width="0.100" stroke-linecap="round" opacity="0.8"/><line x1="4.470" y1="-8.660" x2="4.470" y2="-9.550" stroke="#6b7280" stroke-width="0.100" stroke-linecap="round" opacity="0.8"/><line x1="4.470" y1="-8.660" x2="5.470" y2="-8.660" stroke="#6b7280" stroke-width="0.100" stroke-linecap="round" opacity="0.8"/><line x1="4.664" y1="6.380" x2="7.570" y2="6.380" stroke="#6b7280" stroke-width="0.100" stroke-linecap="round" opacity="0.8"/><line x1="4.664" y1="7.270" x2="4.664" y2="6.380" stroke="#6b7280" stroke-width="0.100" stroke-linecap="round" opacity="0.8"/><line x1="4.664" y1="7.270" x2="7.570" y2="7.270" stroke="#6b7280" stroke-width="0.100" stroke-linecap="round" opacity="0.8"/><line x1="4.664" y1="10.940" x2="7.570" y2="10.940" stroke="#6b7280" stroke-width="0.100" stroke-linecap="round" opacity="0.8"/><line x1="4.664" y1="11.830" x2="4.664" y2="10.940" stroke="#6b7280" stroke-width="0.100" stroke-linecap="round" opacity="0.8"/><line x1="4.664" y1="11.830" x2="7.570" y2="11.830" stroke="#6b7280" stroke-width="0.100" stroke-linecap="round" opacity="0.8"/><line x1="5.470" y1="-12.470" x2="11.690" y2="-12.470" stroke="#6b7280" stroke-width="0.100" stroke-linecap="round" opacity="0.8"/><line x1="5.470" y1="-5.740" x2="5.470" y2="-12.470" stroke="#6b7280" stroke-width="0.100" stroke-linecap="round" opacity="0.8"/><line x1="5.470" y1="-5.740" x2="11.690" y2="-5.740" stroke="#6b7280" stroke-width="0.100" stroke-linecap="round" opacity="0.8"/><line x1="6.570" y1="8.660" x2="7.570" y2="8.660" stroke="#6b7280" stroke-width="0.100" stroke-linecap="round" opacity="0.8"/><line x1="6.570" y1="9.550" x2="6.570" y2="8.660" stroke="#6b7280" stroke-width="0.100" stroke-linecap="round" opacity="0.8"/><line x1="6.570" y1="9.550" x2="7.570" y2="9.550" stroke="#6b7280" stroke-width="0.100" stroke-linecap="round" opacity="0.8"/><line x1="6.720" y1="-3.530" x2="8.520" y2="-5.330" stroke="#6b7280" stroke-width="0.100" stroke-linecap="round" opacity="0.8"/><line x1="6.720" y1="3.070" x2="6.720" y2="-3.530" stroke="#6b7280" stroke-width="0.100" stroke-linecap="round" opacity="0.8"/><line x1="6.720" y1="3.070" x2="8.520" y2="4.870" stroke="#6b7280" stroke-width="0.100" stroke-linecap="round" opacity="0.8"/><line x1="7.570" y1="5.740" x2="13.790" y2="5.740" stroke="#6b7280" stroke-width="0.100" stroke-linecap="round" opacity="0.8"/><line x1="7.570" y1="12.470" x2="7.570" y2="5.740" stroke="#6b7280" stroke-width="0.100" stroke-linecap="round" opacity="0.8"/><line x1="7.570" y1="12.470" x2="13.790" y2="12.470" stroke="#6b7280" stroke-width="0.100" stroke-linecap="round" opacity="0.8"/><line x1="8.520" y1="-5.330" x2="15.420" y2="-5.330" stroke="#6b7280" stroke-width="0.100" stroke-linecap="round" opacity="0.8"/><line x1="8.520" y1="4.870" x2="15.420" y2="4.870" stroke="#6b7280" stroke-width="0.100" stroke-linecap="round" opacity="0.8"/><line x1="11.690" y1="-11.835" x2="12.460" y2="-11.835" stroke="#6b7280" stroke-width="0.100" stroke-linecap="round" opacity="0.8"/><line x1="11.690" y1="-6.375" x2="12.460" y2="-6.375" stroke="#6b7280" stroke-width="0.100" stroke-linecap="round" opacity="0.8"/><line x1="11.690" y1="-5.740" x2="11.690" y2="-12.470" stroke="#6b7280" stroke-width="0.100" stroke-linecap="round" opacity="0.8"/><line x1="12.460" y1="-11.835" x2="12.960" y2="-11.035" stroke="#6b7280" stroke-width="0.100" stroke-linecap="round" opacity="0.8"/><line x1="12.460" y1="-6.375" x2="12.960" y2="-7.175" stroke="#6b7280" stroke-width="0.100" stroke-linecap="round" opacity="0.8"/><line x1="12.960" y1="-7.175" x2="12.960" y2="-11.035" stroke="#6b7280" stroke-width="0.100" stroke-linecap="round" opacity="0.8"/><line x1="13.790" y1="6.375" x2="14.560" y2="6.375" stroke="#6b7280" stroke-width="0.100" stroke-linecap="round" opacity="0.8"/><line x1="13.790" y1="11.835" x2="14.560" y2="11.835" stroke="#6b7280" stroke-width="0.100" stroke-linecap="round" opacity="0.8"/><line x1="13.790" y1="12.470" x2="13.790" y2="5.740" stroke="#6b7280" stroke-width="0.100" stroke-linecap="round" opacity="0.8"/><line x1="14.560" y1="6.375" x2="15.060" y2="7.175" stroke="#6b7280" stroke-width="0.100" stroke-linecap="round" opacity="0.8"/><line x1="14.560" y1="11.835" x2="15.060" y2="11.035" stroke="#6b7280" stroke-width="0.100" stroke-linecap="round" opacity="0.8"/><line x1="15.060" y1="11.035" x2="15.060" y2="7.175" stroke="#6b7280" stroke-width="0.100" stroke-linecap="round" opacity="0.8"/><line x1="15.420" y1="4.870" x2="17.220" y2="3.070" stroke="#6b7280" stroke-width="0.100" stroke-linecap="round" opacity="0.8"/><line x1="17.220" y1="3.070" x2="17.220" y2="-3.530" stroke="#6b7280" stroke-width="0.100" stroke-linecap="round" opacity="0.8"/><line x1="18.299" y1="0.659" x2="20.999" y2="0.659" stroke="#6b7280" stroke-width="0.100" stroke-linecap="round" opacity="0.8"/><line x1="18.299" y1="1.159" x2="20.999" y2="1.159" stroke="#6b7280" stroke-width="0.100" stroke-linecap="round" opacity="0.8"/><line x1="18.299" y1="3.559" x2="20.999" y2="3.559" stroke="#6b7280" stroke-width="0.100" stroke-linecap="round" opacity="0.8"/><line x1="18.299" y1="4.059" x2="18.299" y2="0.659" stroke="#6b7280" stroke-width="0.100" stroke-linecap="round" opacity="0.8"/><line x1="18.299" y1="4.059" x2="20.999" y2="4.059" stroke="#6b7280" stroke-width="0.100" stroke-linecap="round" opacity="0.8"/><line x1="20.999" y1="4.059" x2="20.999" y2="0.659" stroke="#6b7280" stroke-width="0.100" stroke-linecap="round" opacity="0.8"/><line x1="26.350" y1="13.650" x2="26.350" y2="-13.650" stroke="#6b7280" stroke-width="0.100" stroke-linecap="round" opacity="0.8"/><line x1="-26.600" y1="-13.900" x2="26.600" y2="-13.900" stroke="#d24d4d" stroke-width="0.080" stroke-linecap="round" opacity="0.7"/><line x1="26.600" y1="-13.900" x2="26.600" y2="13.900" stroke="#d24d4d" stroke-width="0.080" stroke-linecap="round" opacity="0.7"/><line x1="26.600" y1="13.900" x2="-26.600" y2="13.900" stroke="#d24d4d" stroke-width="0.080" stroke-linecap="round" opacity="0.7"/><line x1="-26.600" y1="13.900" x2="-26.600" y2="-13.900" stroke="#d24d4d" stroke-width="0.080" stroke-linecap="round" opacity="0.7"/><path d="M 15.420 -5.330 A 1.800 1.800 0 0 1 17.220 -3.530" fill="none" stroke="#6b7280" stroke-width="0.12" opacity="0.8"/><circle cx="-24.370" cy="-12.085" r="0.500" fill="none" stroke="#e6e9ef" stroke-width="0.12" opacity="1"/><circle cx="-24.445" cy="-9.510" r="0.850" fill="none" stroke="#6b7280" stroke-width="0.12" opacity="0.8"/><circle cx="-24.445" cy="-3.160" r="0.850" fill="none" stroke="#6b7280" stroke-width="0.12" opacity="0.8"/><circle cx="-24.445" cy="3.190" r="0.850" fill="none" stroke="#6b7280" stroke-width="0.12" opacity="0.8"/><circle cx="-24.445" cy="9.540" r="0.850" fill="none" stroke="#6b7280" stroke-width="0.12" opacity="0.8"/><circle cx="-24.370" cy="-12.085" r="0.500" fill="none" stroke="#6b7280" stroke-width="0.12" opacity="0.8"/><circle cx="11.970" cy="-0.230" r="3.850" fill="none" stroke="#6b7280" stroke-width="0.12" opacity="0.8"/><circle cx="11.970" cy="-0.230" r="3.350" fill="none" stroke="#6b7280" stroke-width="0.12" opacity="0.8"/><circle cx="24.445" cy="-9.510" r="0.850" fill="none" stroke="#6b7280" stroke-width="0.12" opacity="0.8"/><circle cx="24.445" cy="-6.335" r="0.850" fill="none" stroke="#6b7280" stroke-width="0.12" opacity="0.8"/><circle cx="24.445" cy="-3.160" r="0.850" fill="none" stroke="#6b7280" stroke-width="0.12" opacity="0.8"/><circle cx="24.445" cy="0.015" r="0.850" fill="none" stroke="#6b7280" stroke-width="0.12" opacity="0.8"/><circle cx="24.445" cy="3.190" r="0.850" fill="none" stroke="#6b7280" stroke-width="0.12" opacity="0.8"/><circle cx="24.445" cy="6.365" r="0.850" fill="none" stroke="#6b7280" stroke-width="0.12" opacity="0.8"/><circle cx="24.445" cy="9.540" r="0.850" fill="none" stroke="#6b7280" stroke-width="0.12" opacity="0.8"/><rect x="-25.445" y="-10.510" width="2.000" height="2.000" rx="1.000" fill="#c79b5c"/><circle cx="-24.445" cy="-9.510" r="0.650" fill="#12151c"/><rect x="-25.445" y="-4.160" width="2.000" height="2.000" rx="1.000" fill="#c79b5c"/><circle cx="-24.445" cy="-3.160" r="0.650" fill="#12151c"/><rect x="-25.445" y="2.190" width="2.000" height="2.000" rx="1.000" fill="#c79b5c"/><circle cx="-24.445" cy="3.190" r="0.650" fill="#12151c"/><rect x="-25.445" y="8.540" width="2.000" height="2.000" rx="1.000" fill="#c79b5c"/><circle cx="-24.445" cy="9.540" r="0.650" fill="#12151c"/><rect x="23.445" y="8.540" width="2.000" height="2.000" rx="1.000" fill="#c79b5c"/><circle cx="24.445" cy="9.540" r="0.650" fill="#12151c"/><rect x="23.445" y="5.365" width="2.000" height="2.000" rx="1.000" fill="#c79b5c"/><circle cx="24.445" cy="6.365" r="0.650" fill="#12151c"/><rect x="23.445" y="2.190" width="2.000" height="2.000" rx="1.000" fill="#c79b5c"/><circle cx="24.445" cy="3.190" r="0.650" fill="#12151c"/><rect x="23.445" y="-0.985" width="2.000" height="2.000" rx="1.000" fill="#c79b5c"/><circle cx="24.445" cy="0.015" r="0.650" fill="#12151c"/><rect x="23.445" y="-4.160" width="2.000" height="2.000" rx="1.000" fill="#c79b5c"/><circle cx="24.445" cy="-3.160" r="0.650" fill="#12151c"/><rect x="23.445" y="-7.335" width="2.000" height="2.000" rx="1.000" fill="#c79b5c"/><circle cx="24.445" cy="-6.335" r="0.650" fill="#12151c"/><rect x="23.445" y="-10.510" width="2.000" height="2.000" rx="1.000" fill="#c79b5c"/><circle cx="24.445" cy="-9.510" r="0.650" fill="#12151c"/></svg>