<svg xmlns="http://www.w3.org/2000/svg" viewBox="-6.58 -1.50 43.64 56.34" preserveAspectRatio="xMidYMid meet" style="width:100%;height:100%"><rect x="-6.58" y="-1.50" width="43.64" height="56.34" fill="#12151c"/><rect x="0.000" y="-0.000" width="30.480" height="53.340" fill="#1e222b" stroke="#4ea1ff" stroke-width="0.25"/><rect x="29.972" y="49.530" width="0.508" height="2.540" fill="#1e222b" stroke="#4ea1ff" stroke-width="0.25"/><line x1="-5.080" y1="2.540" x2="0.000" y2="2.540" stroke="#e6e9ef" stroke-width="0.2"/><circle cx="-5.080" cy="2.540" r="0.4" fill="#4ea1ff"/><text x="0.500" y="2.890" fill="#e6e9ef" font-size="1.1" text-anchor="start" font-family="sans-serif">MDIO</text><text x="-0.300" y="2.190" fill="#9aa3b2" font-size="0.9" text-anchor="end" font-family="sans-serif">10</text><line x1="-5.080" y1="5.080" x2="0.000" y2="5.080" stroke="#e6e9ef" stroke-width="0.2"/><circle cx="-5.080" cy="5.080" r="0.4" fill="#4ea1ff"/><text x="0.500" y="5.430" fill="#e6e9ef" font-size="1.1" text-anchor="start" font-family="sans-serif">MDC</text><text x="-0.300" y="4.730" fill="#9aa3b2" font-size="0.9" text-anchor="end" font-family="sans-serif">9</text><line x1="-5.080" y1="10.160" x2="0.000" y2="10.160" stroke="#e6e9ef" stroke-width="0.2"/><circle cx="-5.080" cy="10.160" r="0.4" fill="#4ea1ff"/><text x="0.500" y="10.510" fill="#e6e9ef" font-size="1.1" text-anchor="start" font-family="sans-serif">IRQ_N</text><text x="-0.300" y="9.810" fill="#9aa3b2" font-size="0.9" text-anchor="end" font-family="sans-serif">16</text><line x1="-5.080" y1="15.240" x2="0.000" y2="15.240" stroke="#e6e9ef" stroke-width="0.2"/><circle cx="-5.080" cy="15.240" r="0.4" fill="#4ea1ff"/><text x="0.500" y="15.590" fill="#e6e9ef" font-size="1.1" text-anchor="start" font-family="sans-serif">REFCLKIN</text><text x="-0.300" y="14.890" fill="#9aa3b2" font-size="0.9" text-anchor="end" font-family="sans-serif">20</text><line x1="-5.080" y1="20.320" x2="0.000" y2="20.320" stroke="#e6e9ef" stroke-width="0.2"/><circle cx="-5.080" cy="20.320" r="0.4" fill="#4ea1ff"/><text x="0.500" y="20.670" fill="#e6e9ef" font-size="1.1" text-anchor="start" font-family="sans-serif">TXEN</text><text x="-0.300" y="19.970" fill="#9aa3b2" font-size="0.9" text-anchor="end" font-family="sans-serif">5</text><line x1="-5.080" y1="25.400" x2="0.000" y2="25.400" stroke="#e6e9ef" stroke-width="0.2"/><circle cx="-5.080" cy="25.400" r="0.4" fill="#4ea1ff"/><text x="0.500" y="25.750" fill="#e6e9ef" font-size="1.1" text-anchor="start" font-family="sans-serif">TXD0</text><text x="-0.300" y="25.050" fill="#9aa3b2" font-size="0.9" text-anchor="end" font-family="sans-serif">4</text><line x1="-5.080" y1="27.940" x2="0.000" y2="27.940" stroke="#e6e9ef" stroke-width="0.2"/><circle cx="-5.080" cy="27.940" r="0.4" fill="#4ea1ff"/><text x="0.500" y="28.290" fill="#e6e9ef" font-size="1.1" text-anchor="start" font-family="sans-serif">TXD1</text><text x="-0.300" y="27.590" fill="#9aa3b2" font-size="0.9" text-anchor="end" font-family="sans-serif">3</text><line x1="-5.080" y1="33.020" x2="0.000" y2="33.020" stroke="#e6e9ef" stroke-width="0.2"/><circle cx="-5.080" cy="33.020" r="0.4" fill="#4ea1ff"/><text x="0.500" y="33.370" fill="#e6e9ef" font-size="1.1" text-anchor="start" font-family="sans-serif">RXD1/PHYAD3</text><text x="-0.300" y="32.670" fill="#9aa3b2" font-size="0.9" text-anchor="end" font-family="sans-serif">12</text><line x1="-5.080" y1="35.560" x2="0.000" y2="35.560" stroke="#e6e9ef" stroke-width="0.2"/><circle cx="-5.080" cy="35.560" r="0.4" fill="#4ea1ff"/><text x="0.500" y="35.910" fill="#e6e9ef" font-size="1.1" text-anchor="start" font-family="sans-serif">RXD0/PHYAD2</text><text x="-0.300" y="35.210" fill="#9aa3b2" font-size="0.9" text-anchor="end" font-family="sans-serif">11</text><line x1="-5.080" y1="38.100" x2="0.000" y2="38.100" stroke="#e6e9ef" stroke-width="0.2"/><circle cx="-5.080" cy="38.100" r="0.4" fill="#4ea1ff"/><text x="0.500" y="38.450" fill="#e6e9ef" font-size="1.1" text-anchor="start" font-family="sans-serif">CRSDV/PHYAD1</text><text x="-0.300" y="37.750" fill="#9aa3b2" font-size="0.9" text-anchor="end" font-family="sans-serif">14</text><line x1="-5.080" y1="40.640" x2="0.000" y2="40.640" stroke="#e6e9ef" stroke-width="0.2"/><circle cx="-5.080" cy="40.640" r="0.4" fill="#4ea1ff"/><text x="0.500" y="40.990" fill="#e6e9ef" font-size="1.1" text-anchor="start" font-family="sans-serif">RXER/PHYAD0</text><text x="-0.300" y="40.290" fill="#9aa3b2" font-size="0.9" text-anchor="end" font-family="sans-serif">15</text><line x1="-5.080" y1="45.720" x2="0.000" y2="45.720" stroke="#e6e9ef" stroke-width="0.2"/><circle cx="-5.080" cy="45.720" r="0.4" fill="#4ea1ff"/><text x="0.500" y="46.070" fill="#e6e9ef" font-size="1.1" text-anchor="start" font-family="sans-serif">RESET_N</text><text x="-0.300" y="45.370" fill="#9aa3b2" font-size="0.9" text-anchor="end" font-family="sans-serif">8</text><line x1="-5.080" y1="50.800" x2="0.000" y2="50.800" stroke="#e6e9ef" stroke-width="0.2"/><circle cx="-5.080" cy="50.800" r="0.4" fill="#4ea1ff"/><text x="0.500" y="51.150" fill="#e6e9ef" font-size="1.1" text-anchor="start" font-family="sans-serif">RBIAS</text><text x="-0.300" y="50.450" fill="#9aa3b2" font-size="0.9" text-anchor="end" font-family="sans-serif">19</text><line x1="35.560" y1="2.540" x2="30.480" y2="2.540" stroke="#e6e9ef" stroke-width="0.2"/><circle cx="35.560" cy="2.540" r="0.4" fill="#4ea1ff"/><text x="29.980" y="2.890" fill="#e6e9ef" font-size="1.1" text-anchor="end" font-family="sans-serif">TRXP</text><text x="30.780" y="2.190" fill="#9aa3b2" font-size="0.9" text-anchor="start" font-family="sans-serif">23</text><line x1="35.560" y1="5.080" x2="30.480" y2="5.080" stroke="#e6e9ef" stroke-width="0.2"/><circle cx="35.560" cy="5.080" r="0.4" fill="#4ea1ff"/><text x="29.980" y="5.430" fill="#e6e9ef" font-size="1.1" text-anchor="end" font-family="sans-serif">TRXN</text><text x="30.780" y="4.730" fill="#9aa3b2" font-size="0.9" text-anchor="start" font-family="sans-serif">24</text><line x1="35.560" y1="20.320" x2="30.480" y2="20.320" stroke="#e6e9ef" stroke-width="0.2"/><circle cx="35.560" cy="20.320" r="0.4" fill="#4ea1ff"/><text x="29.980" y="20.670" fill="#e6e9ef" font-size="1.1" text-anchor="end" font-family="sans-serif">VDDP</text><text x="30.780" y="19.970" fill="#9aa3b2" font-size="0.9" text-anchor="start" font-family="sans-serif">6</text><line x1="35.560" y1="22.860" x2="30.480" y2="22.860" stroke="#e6e9ef" stroke-width="0.2"/><circle cx="35.560" cy="22.860" r="0.4" fill="#4ea1ff"/><text x="29.980" y="23.210" fill="#e6e9ef" font-size="1.1" text-anchor="end" font-family="sans-serif">VDDP</text><text x="30.780" y="22.510" fill="#9aa3b2" font-size="0.9" text-anchor="start" font-family="sans-serif">13</text><line x1="35.560" y1="27.940" x2="30.480" y2="27.940" stroke="#e6e9ef" stroke-width="0.2"/><circle cx="35.560" cy="27.940" r="0.4" fill="#4ea1ff"/><text x="29.980" y="28.290" fill="#e6e9ef" font-size="1.1" text-anchor="end" font-family="sans-serif">VDDA</text><text x="30.780" y="27.590" fill="#9aa3b2" font-size="0.9" text-anchor="start" font-family="sans-serif">18</text><line x1="35.560" y1="30.480" x2="30.480" y2="30.480" stroke="#e6e9ef" stroke-width="0.2"/><circle cx="35.560" cy="30.480" r="0.4" fill="#4ea1ff"/><text x="29.980" y="30.830" fill="#e6e9ef" font-size="1.1" text-anchor="end" font-family="sans-serif">VDDA</text><text x="30.780" y="30.130" fill="#9aa3b2" font-size="0.9" text-anchor="start" font-family="sans-serif">22</text><line x1="35.560" y1="35.560" x2="30.480" y2="35.560" stroke="#e6e9ef" stroke-width="0.2"/><circle cx="35.560" cy="35.560" r="0.4" fill="#4ea1ff"/><text x="29.980" y="35.910" fill="#e6e9ef" font-size="1.1" text-anchor="end" font-family="sans-serif">DNC</text><text x="30.780" y="35.210" fill="#9aa3b2" font-size="0.9" text-anchor="start" font-family="sans-serif">2</text><line x1="35.560" y1="38.100" x2="30.480" y2="38.100" stroke="#e6e9ef" stroke-width="0.2"/><circle cx="35.560" cy="38.100" r="0.4" fill="#4ea1ff"/><text x="29.980" y="38.450" fill="#e6e9ef" font-size="1.1" text-anchor="end" font-family="sans-serif">DNC</text><text x="30.780" y="37.750" fill="#9aa3b2" font-size="0.9" text-anchor="start" font-family="sans-serif">7</text><line x1="35.560" y1="40.640" x2="30.480" y2="40.640" stroke="#e6e9ef" stroke-width="0.2"/><circle cx="35.560" cy="40.640" r="0.4" fill="#4ea1ff"/><text x="29.980" y="40.990" fill="#e6e9ef" font-size="1.1" text-anchor="end" font-family="sans-serif">DNC</text><text x="30.780" y="40.290" fill="#9aa3b2" font-size="0.9" text-anchor="start" font-family="sans-serif">17</text><line x1="35.560" y1="43.180" x2="30.480" y2="43.180" stroke="#e6e9ef" stroke-width="0.2"/><circle cx="35.560" cy="43.180" r="0.4" fill="#4ea1ff"/><text x="29.980" y="43.530" fill="#e6e9ef" font-size="1.1" text-anchor="end" font-family="sans-serif">DNC</text><text x="30.780" y="42.830" fill="#9aa3b2" font-size="0.9" text-anchor="start" font-family="sans-serif">21</text><line x1="35.560" y1="48.260" x2="30.480" y2="48.260" stroke="#e6e9ef" stroke-width="0.2"/><circle cx="35.560" cy="48.260" r="0.4" fill="#4ea1ff"/><text x="29.980" y="48.610" fill="#e6e9ef" font-size="1.1" text-anchor="end" font-family="sans-serif">VSS</text><text x="30.780" y="47.910" fill="#9aa3b2" font-size="0.9" text-anchor="start" font-family="sans-serif">1</text><line x1="35.560" y1="50.800" x2="30.480" y2="50.800" stroke="#e6e9ef" stroke-width="0.2"/><circle cx="35.560" cy="50.800" r="0.4" fill="#4ea1ff"/><text x="29.980" y="51.150" fill="#e6e9ef" font-size="1.1" text-anchor="end" font-family="sans-serif">EP</text><text x="30.780" y="50.450" fill="#9aa3b2" font-size="0.9" text-anchor="start" font-family="sans-serif">25</text></svg>