<svg xmlns="http://www.w3.org/2000/svg" viewBox="-10.14 -2.51 20.28 5.46" preserveAspectRatio="xMidYMid meet" style="width:100%;height:100%"><rect x="-10.14" y="-2.51" width="20.28" height="5.46" fill="#12151c"/><line x1="-9.140" y1="-1.510" x2="9.140" y2="-1.510" stroke="#d24d4d" stroke-width="0.080" stroke-linecap="round" opacity="0.7"/><line x1="9.140" y1="-1.510" x2="9.140" y2="1.510" stroke="#d24d4d" stroke-width="0.080" stroke-linecap="round" opacity="0.7"/><line x1="9.140" y1="1.510" x2="-9.140" y2="1.510" stroke="#d24d4d" stroke-width="0.080" stroke-linecap="round" opacity="0.7"/><line x1="-9.140" y1="1.510" x2="-9.140" y2="-1.510" stroke="#d24d4d" stroke-width="0.080" stroke-linecap="round" opacity="0.7"/><path d="M -8.850 -0.505 A 0.553 0.553 0 0 1 -8.250 -1.005" fill="none" stroke="#e6e9ef" stroke-width="0.12" opacity="1"/><path d="M -8.554 0.671 A 0.347 0.347 0 0 1 -8.850 0.505" fill="none" stroke="#e6e9ef" stroke-width="0.12" opacity="1"/><path d="M -6.990 -1.005 A 0.553 0.553 0 0 1 -6.390 -0.505" fill="none" stroke="#e6e9ef" stroke-width="0.12" opacity="1"/><path d="M -6.390 0.505 A 0.347 0.347 0 0 1 -6.686 0.671" fill="none" stroke="#e6e9ef" stroke-width="0.12" opacity="1"/><path d="M -6.310 -0.505 A 0.347 0.347 0 0 1 -6.014 -0.671" fill="none" stroke="#e6e9ef" stroke-width="0.12" opacity="1"/><path d="M -5.710 1.005 A 0.553 0.553 0 0 1 -6.310 0.505" fill="none" stroke="#e6e9ef" stroke-width="0.12" opacity="1"/><path d="M -4.146 -0.671 A 0.347 0.347 0 0 1 -3.850 -0.505" fill="none" stroke="#e6e9ef" stroke-width="0.12" opacity="1"/><path d="M -3.850 0.505 A 0.553 0.553 0 0 1 -4.450 1.005" fill="none" stroke="#e6e9ef" stroke-width="0.12" opacity="1"/><path d="M -3.770 -0.505 A 0.553 0.553 0 0 1 -3.170 -1.005" fill="none" stroke="#e6e9ef" stroke-width="0.12" opacity="1"/><path d="M -3.474 0.671 A 0.347 0.347 0 0 1 -3.770 0.505" fill="none" stroke="#e6e9ef" stroke-width="0.12" opacity="1"/><path d="M -1.910 -1.005 A 0.553 0.553 0 0 1 -1.310 -0.505" fill="none" stroke="#e6e9ef" stroke-width="0.12" opacity="1"/><path d="M -1.310 0.505 A 0.347 0.347 0 0 1 -1.606 0.671" fill="none" stroke="#e6e9ef" stroke-width="0.12" opacity="1"/><path d="M -1.230 -0.505 A 0.347 0.347 0 0 1 -0.934 -0.671" fill="none" stroke="#e6e9ef" stroke-width="0.12" opacity="1"/><path d="M -0.630 1.005 A 0.553 0.553 0 0 1 -1.230 0.505" fill="none" stroke="#e6e9ef" stroke-width="0.12" opacity="1"/><path d="M 0.934 -0.671 A 0.347 0.347 0 0 1 1.230 -0.505" fill="none" stroke="#e6e9ef" stroke-width="0.12" opacity="1"/><path d="M 1.230 0.505 A 0.553 0.553 0 0 1 0.630 1.005" fill="none" stroke="#e6e9ef" stroke-width="0.12" opacity="1"/><path d="M 1.310 -0.505 A 0.553 0.553 0 0 1 1.910 -1.005" fill="none" stroke="#e6e9ef" stroke-width="0.12" opacity="1"/><path d="M 1.606 0.671 A 0.347 0.347 0 0 1 1.310 0.505" fill="none" stroke="#e6e9ef" stroke-width="0.12" opacity="1"/><path d="M 3.170 -1.005 A 0.553 0.553 0 0 1 3.770 -0.505" fill="none" stroke="#e6e9ef" stroke-width="0.12" opacity="1"/><path d="M 3.770 0.505 A 0.347 0.347 0 0 1 3.474 0.671" fill="none" stroke="#e6e9ef" stroke-width="0.12" opacity="1"/><path d="M 3.850 -0.505 A 0.347 0.347 0 0 1 4.146 -0.671" fill="none" stroke="#e6e9ef" stroke-width="0.12" opacity="1"/><path d="M 4.450 1.005 A 0.553 0.553 0 0 1 3.850 0.505" fill="none" stroke="#e6e9ef" stroke-width="0.12" opacity="1"/><path d="M 6.014 -0.671 A 0.347 0.347 0 0 1 6.310 -0.505" fill="none" stroke="#e6e9ef" stroke-width="0.12" opacity="1"/><path d="M 6.310 0.505 A 0.553 0.553 0 0 1 5.710 1.005" fill="none" stroke="#e6e9ef" stroke-width="0.12" opacity="1"/><path d="M 6.390 -0.505 A 0.553 0.553 0 0 1 6.990 -1.005" fill="none" stroke="#e6e9ef" stroke-width="0.12" opacity="1"/><path d="M 6.686 0.671 A 0.347 0.347 0 0 1 6.390 0.505" fill="none" stroke="#e6e9ef" stroke-width="0.12" opacity="1"/><path d="M 8.250 -1.005 A 0.553 0.553 0 0 1 8.850 -0.505" fill="none" stroke="#e6e9ef" stroke-width="0.12" opacity="1"/><path d="M 8.850 0.505 A 0.347 0.347 0 0 1 8.554 0.671" fill="none" stroke="#e6e9ef" stroke-width="0.12" opacity="1"/><path d="M -8.850 -0.505 A 0.553 0.553 0 0 1 -8.250 -1.005" fill="none" stroke="#6b7280" stroke-width="0.12" opacity="0.8"/><path d="M -8.550 -0.505 A 0.300 0.300 0 0 1 -8.250 -0.805" fill="none" stroke="#6b7280" stroke-width="0.12" opacity="0.8"/><path d="M -8.450 0.655 A 0.347 0.347 0 0 1 -8.850 0.505" fill="none" stroke="#6b7280" stroke-width="0.12" opacity="0.8"/><path d="M -8.450 0.605 A 0.100 0.100 0 0 1 -8.550 0.505" fill="none" stroke="#6b7280" stroke-width="0.12" opacity="0.8"/><path d="M -6.990 -0.805 A 0.300 0.300 0 0 1 -6.690 -0.505" fill="none" stroke="#6b7280" stroke-width="0.12" opacity="0.8"/><path d="M -6.990 -1.005 A 0.553 0.553 0 0 1 -6.390 -0.505" fill="none" stroke="#6b7280" stroke-width="0.12" opacity="0.8"/><path d="M -6.690 0.505 A 0.100 0.100 0 0 1 -6.790 0.605" fill="none" stroke="#6b7280" stroke-width="0.12" opacity="0.8"/><path d="M -6.390 0.505 A 0.346 0.346 0 0 1 -6.790 0.655" fill="none" stroke="#6b7280" stroke-width="0.12" opacity="0.8"/><path d="M -6.310 -0.505 A 0.346 0.346 0 0 1 -5.910 -0.655" fill="none" stroke="#6b7280" stroke-width="0.12" opacity="0.8"/><path d="M -6.010 -0.505 A 0.100 0.100 0 0 1 -5.910 -0.605" fill="none" stroke="#6b7280" stroke-width="0.12" opacity="0.8"/><path d="M -5.710 1.005 A 0.553 0.553 0 0 1 -6.310 0.505" fill="none" stroke="#6b7280" stroke-width="0.12" opacity="0.8"/><path d="M -5.710 0.805 A 0.300 0.300 0 0 1 -6.010 0.505" fill="none" stroke="#6b7280" stroke-width="0.12" opacity="0.8"/><path d="M -4.250 -0.605 A 0.100 0.100 0 0 1 -4.150 -0.505" fill="none" stroke="#6b7280" stroke-width="0.12" opacity="0.8"/><path d="M -4.250 -0.655 A 0.347 0.347 0 0 1 -3.850 -0.505" fill="none" stroke="#6b7280" stroke-width="0.12" opacity="0.8"/><path d="M -4.150 0.505 A 0.300 0.300 0 0 1 -4.450 0.805" fill="none" stroke="#6b7280" stroke-width="0.12" opacity="0.8"/><path d="M -3.850 0.505 A 0.553 0.553 0 0 1 -4.450 1.005" fill="none" stroke="#6b7280" stroke-width="0.12" opacity="0.8"/><path d="M -3.770 -0.505 A 0.553 0.553 0 0 1 -3.170 -1.005" fill="none" stroke="#6b7280" stroke-width="0.12" opacity="0.8"/><path d="M -3.470 -0.505 A 0.300 0.300 0 0 1 -3.170 -0.805" fill="none" stroke="#6b7280" stroke-width="0.12" opacity="0.8"/><path d="M -3.370 0.655 A 0.347 0.347 0 0 1 -3.770 0.505" fill="none" stroke="#6b7280" stroke-width="0.12" opacity="0.8"/><path d="M -3.370 0.605 A 0.100 0.100 0 0 1 -3.470 0.505" fill="none" stroke="#6b7280" stroke-width="0.12" opacity="0.8"/><path d="M -1.910 -0.805 A 0.300 0.300 0 0 1 -1.610 -0.505" fill="none" stroke="#6b7280" stroke-width="0.12" opacity="0.8"/><path d="M -1.910 -1.005 A 0.553 0.553 0 0 1 -1.310 -0.505" fill="none" stroke="#6b7280" stroke-width="0.12" opacity="0.8"/><path d="M -1.610 0.505 A 0.100 0.100 0 0 1 -1.710 0.605" fill="none" stroke="#6b7280" stroke-width="0.12" opacity="0.8"/><path d="M -1.310 0.505 A 0.346 0.346 0 0 1 -1.710 0.655" fill="none" stroke="#6b7280" stroke-width="0.12" opacity="0.8"/><path d="M -1.230 -0.505 A 0.346 0.346 0 0 1 -0.830 -0.655" fill="none" stroke="#6b7280" stroke-width="0.12" opacity="0.8"/><path d="M -0.930 -0.505 A 0.100 0.100 0 0 1 -0.830 -0.605" fill="none" stroke="#6b7280" stroke-width="0.12" opacity="0.8"/><path d="M -0.630 1.005 A 0.553 0.553 0 0 1 -1.230 0.505" fill="none" stroke="#6b7280" stroke-width="0.12" opacity="0.8"/><path d="M -0.630 0.805 A 0.300 0.300 0 0 1 -0.930 0.505" fill="none" stroke="#6b7280" stroke-width="0.12" opacity="0.8"/><path d="M 0.830 -0.605 A 0.100 0.100 0 0 1 0.930 -0.505" fill="none" stroke="#6b7280" stroke-width="0.12" opacity="0.8"/><path d="M 0.830 -0.655 A 0.347 0.347 0 0 1 1.230 -0.505" fill="none" stroke="#6b7280" stroke-width="0.12" opacity="0.8"/><path d="M 0.930 0.505 A 0.300 0.300 0 0 1 0.630 0.805" fill="none" stroke="#6b7280" stroke-width="0.12" opacity="0.8"/><path d="M 1.230 0.505 A 0.553 0.553 0 0 1 0.630 1.005" fill="none" stroke="#6b7280" stroke-width="0.12" opacity="0.8"/><path d="M 1.310 -0.505 A 0.553 0.553 0 0 1 1.910 -1.005" fill="none" stroke="#6b7280" stroke-width="0.12" opacity="0.8"/><path d="M 1.610 -0.505 A 0.300 0.300 0 0 1 1.910 -0.805" fill="none" stroke="#6b7280" stroke-width="0.12" opacity="0.8"/><path d="M 1.710 0.655 A 0.347 0.347 0 0 1 1.310 0.505" fill="none" stroke="#6b7280" stroke-width="0.12" opacity="0.8"/><path d="M 1.710 0.605 A 0.100 0.100 0 0 1 1.610 0.505" fill="none" stroke="#6b7280" stroke-width="0.12" opacity="0.8"/><path d="M 3.170 -0.805 A 0.300 0.300 0 0 1 3.470 -0.505" fill="none" stroke="#6b7280" stroke-width="0.12" opacity="0.8"/><path d="M 3.170 -1.005 A 0.553 0.553 0 0 1 3.770 -0.505" fill="none" stroke="#6b7280" stroke-width="0.12" opacity="0.8"/><path d="M 3.470 0.505 A 0.100 0.100 0 0 1 3.370 0.605" fill="none" stroke="#6b7280" stroke-width="0.12" opacity="0.8"/><path d="M 3.770 0.505 A 0.346 0.346 0 0 1 3.370 0.655" fill="none" stroke="#6b7280" stroke-width="0.12" opacity="0.8"/><path d="M 3.850 -0.505 A 0.346 0.346 0 0 1 4.250 -0.655" fill="none" stroke="#6b7280" stroke-width="0.12" opacity="0.8"/><path d="M 4.150 -0.505 A 0.100 0.100 0 0 1 4.250 -0.605" fill="none" stroke="#6b7280" stroke-width="0.12" opacity="0.8"/><path d="M 4.450 1.005 A 0.553 0.553 0 0 1 3.850 0.505" fill="none" stroke="#6b7280" stroke-width="0.12" opacity="0.8"/><path d="M 4.450 0.805 A 0.300 0.300 0 0 1 4.150 0.505" fill="none" stroke="#6b7280" stroke-width="0.12" opacity="0.8"/><path d="M 5.910 -0.605 A 0.100 0.100 0 0 1 6.010 -0.505" fill="none" stroke="#6b7280" stroke-width="0.12" opacity="0.8"/><path d="M 5.910 -0.655 A 0.347 0.347 0 0 1 6.310 -0.505" fill="none" stroke="#6b7280" stroke-width="0.12" opacity="0.8"/><path d="M 6.010 0.505 A 0.300 0.300 0 0 1 5.710 0.805" fill="none" stroke="#6b7280" stroke-width="0.12" opacity="0.8"/><path d="M 6.310 0.505 A 0.553 0.553 0 0 1 5.710 1.005" fill="none" stroke="#6b7280" stroke-width="0.12" opacity="0.8"/><path d="M 6.390 -0.505 A 0.553 0.553 0 0 1 6.990 -1.005" fill="none" stroke="#6b7280" stroke-width="0.12" opacity="0.8"/><path d="M 6.690 -0.505 A 0.300 0.300 0 0 1 6.990 -0.805" fill="none" stroke="#6b7280" stroke-width="0.12" opacity="0.8"/><path d="M 6.790 0.655 A 0.347 0.347 0 0 1 6.390 0.505" fill="none" stroke="#6b7280" stroke-width="0.12" opacity="0.8"/><path d="M 6.790 0.605 A 0.100 0.100 0 0 1 6.690 0.505" fill="none" stroke="#6b7280" stroke-width="0.12" opacity="0.8"/><path d="M 8.250 -0.805 A 0.300 0.300 0 0 1 8.550 -0.505" fill="none" stroke="#6b7280" stroke-width="0.12" opacity="0.8"/><path d="M 8.250 -1.005 A 0.553 0.553 0 0 1 8.850 -0.505" fill="none" stroke="#6b7280" stroke-width="0.12" opacity="0.8"/><path d="M 8.550 0.505 A 0.100 0.100 0 0 1 8.450 0.605" fill="none" stroke="#6b7280" stroke-width="0.12" opacity="0.8"/><path d="M 8.850 0.505 A 0.346 0.346 0 0 1 8.450 0.655" fill="none" stroke="#6b7280" stroke-width="0.12" opacity="0.8"/><circle cx="-7.650" cy="1.800" r="0.150" fill="none" stroke="#e6e9ef" stroke-width="0.12" opacity="1"/><circle cx="-7.650" cy="1.800" r="0.150" fill="none" stroke="#6b7280" stroke-width="0.12" opacity="0.8"/><rect x="-8.420" y="-0.800" width="1.600" height="1.600" rx="0.800" fill="#c79b5c"/><circle cx="-7.620" cy="0.000" r="0.450" fill="#12151c"/><rect x="-5.880" y="-0.800" width="1.600" height="1.600" rx="0.800" fill="#c79b5c"/><circle cx="-5.080" cy="0.000" r="0.450" fill="#12151c"/><rect x="-3.340" y="-0.800" width="1.600" height="1.600" rx="0.800" fill="#c79b5c"/><circle cx="-2.540" cy="0.000" r="0.450" fill="#12151c"/><rect x="-0.800" y="-0.800" width="1.600" height="1.600" rx="0.800" fill="#c79b5c"/><circle cx="0.000" cy="0.000" r="0.450" fill="#12151c"/><rect x="1.740" y="-0.800" width="1.600" height="1.600" rx="0.800" fill="#c79b5c"/><circle cx="2.540" cy="0.000" r="0.450" fill="#12151c"/><rect x="4.280" y="-0.800" width="1.600" height="1.600" rx="0.800" fill="#c79b5c"/><circle cx="5.080" cy="0.000" r="0.450" fill="#12151c"/><rect x="6.820" y="-0.800" width="1.600" height="1.600" rx="0.800" fill="#c79b5c"/><circle cx="7.620" cy="0.000" r="0.450" fill="#12151c"/><polygon points="-8.07,1.85 -7.17,1.85 -7.62,1.25" fill="#ffffff"/></svg>