<svg xmlns="http://www.w3.org/2000/svg" viewBox="-4.25 -4.14 8.50 8.79" preserveAspectRatio="xMidYMid meet" style="width:100%;height:100%"><rect x="-4.25" y="-4.14" width="8.50" height="8.79" fill="#12151c"/><line x1="-3.000" y1="-2.750" x2="-1.925" y2="0.000" stroke="#4a5160" stroke-width="0.080" stroke-linecap="round" opacity="0.7"/><line x1="-3.000" y1="-2.750" x2="-0.850" y2="-2.750" stroke="#4a5160" stroke-width="0.080" stroke-linecap="round" opacity="0.7"/><line x1="-3.000" y1="2.750" x2="-3.000" y2="-2.750" stroke="#4a5160" stroke-width="0.080" stroke-linecap="round" opacity="0.7"/><line x1="-3.000" y1="2.750" x2="-1.925" y2="0.000" stroke="#4a5160" stroke-width="0.080" stroke-linecap="round" opacity="0.7"/><line x1="-3.000" y1="2.750" x2="-0.850" y2="2.750" stroke="#4a5160" stroke-width="0.080" stroke-linecap="round" opacity="0.7"/><line x1="-0.850" y1="2.750" x2="-0.850" y2="-2.750" stroke="#4a5160" stroke-width="0.080" stroke-linecap="round" opacity="0.7"/><line x1="-0.500" y1="0.000" x2="0.000" y2="0.000" stroke="#4a5160" stroke-width="0.080" stroke-linecap="round" opacity="0.7"/><line x1="0.000" y1="0.000" x2="0.000" y2="-0.500" stroke="#4a5160" stroke-width="0.080" stroke-linecap="round" opacity="0.7"/><line x1="0.000" y1="0.000" x2="0.500" y2="0.000" stroke="#4a5160" stroke-width="0.080" stroke-linecap="round" opacity="0.7"/><line x1="0.000" y1="0.500" x2="0.000" y2="0.000" stroke="#4a5160" stroke-width="0.080" stroke-linecap="round" opacity="0.7"/><line x1="0.850" y1="-2.750" x2="3.000" y2="-2.750" stroke="#4a5160" stroke-width="0.080" stroke-linecap="round" opacity="0.7"/><line x1="0.850" y1="2.750" x2="0.850" y2="-2.750" stroke="#4a5160" stroke-width="0.080" stroke-linecap="round" opacity="0.7"/><line x1="0.850" y1="2.750" x2="3.000" y2="2.750" stroke="#4a5160" stroke-width="0.080" stroke-linecap="round" opacity="0.7"/><line x1="1.925" y1="0.000" x2="3.000" y2="-2.750" stroke="#4a5160" stroke-width="0.080" stroke-linecap="round" opacity="0.7"/><line x1="1.925" y1="0.000" x2="3.000" y2="2.750" stroke="#4a5160" stroke-width="0.080" stroke-linecap="round" opacity="0.7"/><line x1="3.000" y1="2.750" x2="3.000" y2="-2.750" stroke="#4a5160" stroke-width="0.080" stroke-linecap="round" opacity="0.7"/><line x1="-3.250" y1="-3.139" x2="3.250" y2="-3.139" stroke="#d24d4d" stroke-width="0.080" stroke-linecap="round" opacity="0.7"/><line x1="-3.250" y1="3.139" x2="-3.250" y2="-3.139" stroke="#d24d4d" stroke-width="0.080" stroke-linecap="round" opacity="0.7"/><line x1="-3.250" y1="3.139" x2="3.250" y2="3.139" stroke="#d24d4d" stroke-width="0.080" stroke-linecap="round" opacity="0.7"/><line x1="3.250" y1="3.139" x2="3.250" y2="-3.139" stroke="#d24d4d" stroke-width="0.080" stroke-linecap="round" opacity="0.7"/><line x1="-2.600" y1="1.497" x2="-2.600" y2="-1.497" stroke="#6b7280" stroke-width="0.100" stroke-linecap="round" opacity="0.8"/><line x1="-0.350" y1="-2.151" x2="-0.350" y2="-2.489" stroke="#6b7280" stroke-width="0.100" stroke-linecap="round" opacity="0.8"/><line x1="-0.350" y1="2.489" x2="-0.350" y2="2.151" stroke="#6b7280" stroke-width="0.100" stroke-linecap="round" opacity="0.8"/><line x1="-0.258" y1="-2.354" x2="-0.258" y2="-2.626" stroke="#6b7280" stroke-width="0.100" stroke-linecap="round" opacity="0.8"/><line x1="-0.258" y1="2.626" x2="-0.258" y2="2.354" stroke="#6b7280" stroke-width="0.100" stroke-linecap="round" opacity="0.8"/><line x1="0.274" y1="-2.354" x2="0.274" y2="-2.626" stroke="#6b7280" stroke-width="0.100" stroke-linecap="round" opacity="0.8"/><line x1="0.274" y1="2.626" x2="0.274" y2="2.354" stroke="#6b7280" stroke-width="0.100" stroke-linecap="round" opacity="0.8"/><line x1="0.350" y1="-2.151" x2="0.350" y2="-2.489" stroke="#6b7280" stroke-width="0.100" stroke-linecap="round" opacity="0.8"/><line x1="0.350" y1="2.489" x2="0.350" y2="2.151" stroke="#6b7280" stroke-width="0.100" stroke-linecap="round" opacity="0.8"/><line x1="2.600" y1="1.497" x2="2.600" y2="-1.497" stroke="#6b7280" stroke-width="0.100" stroke-linecap="round" opacity="0.8"/><path d="M -0.257 -2.626 A 0.265 0.265 0 1 1 0.274 -2.626" fill="none" stroke="#e6e9ef" stroke-width="0.12" opacity="1"/><path d="M 0.274 2.626 A 0.265 0.265 0 1 1 -0.257 2.626" fill="none" stroke="#e6e9ef" stroke-width="0.12" opacity="1"/><path d="M -2.600 -1.497 A 3.000 3.000 0 0 1 -0.865 -2.872" fill="none" stroke="#6b7280" stroke-width="0.12" opacity="0.8"/><path d="M -0.865 -2.872 A 0.400 0.400 0 0 1 -0.350 -2.489" fill="none" stroke="#6b7280" stroke-width="0.12" opacity="0.8"/><path d="M -0.865 2.872 A 3.000 3.000 0 0 1 -2.600 1.497" fill="none" stroke="#6b7280" stroke-width="0.12" opacity="0.8"/><path d="M -0.350 2.151 A 0.350 0.350 0 1 1 0.350 2.151" fill="none" stroke="#6b7280" stroke-width="0.12" opacity="0.8"/><path d="M -0.350 2.489 A 0.400 0.400 0 0 1 -0.865 2.872" fill="none" stroke="#6b7280" stroke-width="0.12" opacity="0.8"/><path d="M -0.350 -2.341 A 2.346 2.346 0 0 1 0.350 -2.344" fill="none" stroke="#6b7280" stroke-width="0.12" opacity="0.8"/><path d="M -0.257 -2.626 A 0.265 0.265 0 1 1 0.274 -2.626" fill="none" stroke="#6b7280" stroke-width="0.12" opacity="0.8"/><path d="M 0.274 2.626 A 0.265 0.265 0 1 1 -0.257 2.626" fill="none" stroke="#6b7280" stroke-width="0.12" opacity="0.8"/><path d="M 0.350 2.344 A 2.346 2.346 0 0 1 -0.350 2.341" fill="none" stroke="#6b7280" stroke-width="0.12" opacity="0.8"/><path d="M 0.350 -2.489 A 0.400 0.400 0 0 1 0.865 -2.872" fill="none" stroke="#6b7280" stroke-width="0.12" opacity="0.8"/><path d="M 0.350 -2.151 A 0.350 0.350 0 1 1 -0.350 -2.151" fill="none" stroke="#6b7280" stroke-width="0.12" opacity="0.8"/><path d="M 0.865 -2.872 A 3.000 3.000 0 0 1 2.600 -1.497" fill="none" stroke="#6b7280" stroke-width="0.12" opacity="0.8"/><path d="M 0.865 2.872 A 0.400 0.400 0 0 1 0.350 2.489" fill="none" stroke="#6b7280" stroke-width="0.12" opacity="0.8"/><path d="M 2.600 1.497 A 3.000 3.000 0 0 1 0.865 2.872" fill="none" stroke="#6b7280" stroke-width="0.12" opacity="0.8"/><circle cx="-1.200" cy="3.500" r="0.150" fill="#e6e9ef" opacity="1"/><rect x="-3.000" y="-2.750" width="2.150" height="5.500" rx="0.000" fill="#c79b5c"/><rect x="0.850" y="-2.750" width="2.150" height="5.500" rx="0.000" fill="#c79b5c"/><polygon points="-2.38,3.80 -1.48,3.80 -1.93,3.20" fill="#ffffff"/></svg>