<svg xmlns="http://www.w3.org/2000/svg" viewBox="-5.90 -1.25 11.80 10.10" preserveAspectRatio="xMidYMid meet" style="width:100%;height:100%"><rect x="-5.90" y="-1.25" width="11.80" height="10.10" fill="#12151c"/><path d="M -4.320 7.700 A 23.394 23.394 0 0 1 4.320 7.700" fill="none" stroke="#6b7280" stroke-width="0.12" opacity="0.8"/><polygon points="-4.900,-0.250 4.900,-0.250 4.900,2.050 4.500,2.050 4.500,4.200 4.900,4.200 4.900,5.950 4.500,5.950 4.500,7.850 -4.500,7.850 -4.500,5.950 -4.900,5.950 -4.900,4.200 -4.500,4.200 -4.500,2.050 -4.900,2.050" fill="#d24d4d" opacity="0.7" fill-opacity="0.35" stroke="#d24d4d" stroke-width="0.08"/><polygon points="-3.425,0.595 -3.025,0.595 -3.025,0.095 -3.425,0.095" fill="#6b7280" opacity="0.8" fill-opacity="0.35" stroke="#6b7280" stroke-width="0.08"/><polygon points="-2.650,0.595 -2.250,0.595 -2.250,0.095 -2.650,0.095" fill="#6b7280" opacity="0.8" fill-opacity="0.35" stroke="#6b7280" stroke-width="0.08"/><polygon points="-1.850,0.595 -1.650,0.595 -1.650,0.095 -1.850,0.095" fill="#6b7280" opacity="0.8" fill-opacity="0.35" stroke="#6b7280" stroke-width="0.08"/><polygon points="-1.350,0.595 -1.150,0.595 -1.150,0.095 -1.350,0.095" fill="#6b7280" opacity="0.8" fill-opacity="0.35" stroke="#6b7280" stroke-width="0.08"/><polygon points="-0.850,0.595 -0.650,0.595 -0.650,0.095 -0.850,0.095" fill="#6b7280" opacity="0.8" fill-opacity="0.35" stroke="#6b7280" stroke-width="0.08"/><polygon points="-0.350,0.595 -0.150,0.595 -0.150,0.095 -0.350,0.095" fill="#6b7280" opacity="0.8" fill-opacity="0.35" stroke="#6b7280" stroke-width="0.08"/><polygon points="0.150,0.595 0.350,0.595 0.350,0.095 0.150,0.095" fill="#6b7280" opacity="0.8" fill-opacity="0.35" stroke="#6b7280" stroke-width="0.08"/><polygon points="0.650,0.595 0.850,0.595 0.850,0.095 0.650,0.095" fill="#6b7280" opacity="0.8" fill-opacity="0.35" stroke="#6b7280" stroke-width="0.08"/><polygon points="1.150,0.600 1.350,0.600 1.350,0.100 1.150,0.100" fill="#6b7280" opacity="0.8" fill-opacity="0.35" stroke="#6b7280" stroke-width="0.08"/><polygon points="1.650,0.600 1.850,0.600 1.850,0.100 1.650,0.100" fill="#6b7280" opacity="0.8" fill-opacity="0.35" stroke="#6b7280" stroke-width="0.08"/><polygon points="2.250,0.595 2.650,0.595 2.650,0.095 2.250,0.095" fill="#6b7280" opacity="0.8" fill-opacity="0.35" stroke="#6b7280" stroke-width="0.08"/><polygon points="3.025,0.595 3.425,0.595 3.425,0.095 3.025,0.095" fill="#6b7280" opacity="0.8" fill-opacity="0.35" stroke="#6b7280" stroke-width="0.08"/><circle cx="-2.890" cy="1.445" r="0.325" fill="none" stroke="#6b7280" stroke-width="0.1"/><circle cx="2.890" cy="1.445" r="0.325" fill="none" stroke="#6b7280" stroke-width="0.1"/><rect x="-1.400" y="-0.160" width="0.300" height="1.000" rx="0.000" fill="#c79b5c"/><rect x="-0.400" y="-0.160" width="0.300" height="1.000" rx="0.000" fill="#c79b5c"/><rect x="0.100" y="-0.160" width="0.300" height="1.000" rx="0.000" fill="#c79b5c"/><rect x="1.100" y="-0.160" width="0.300" height="1.000" rx="0.000" fill="#c79b5c"/><rect x="1.600" y="-0.160" width="0.300" height="1.000" rx="0.000" fill="#c79b5c"/><rect x="0.600" y="-0.160" width="0.300" height="1.000" rx="0.000" fill="#c79b5c"/><rect x="-0.900" y="-0.160" width="0.300" height="1.000" rx="0.000" fill="#c79b5c"/><rect x="-1.900" y="-0.160" width="0.300" height="1.000" rx="0.000" fill="#c79b5c"/><rect x="-3.525" y="-0.160" width="0.600" height="1.000" rx="0.000" fill="#c79b5c"/><rect x="2.925" y="-0.160" width="0.600" height="1.000" rx="0.000" fill="#c79b5c"/><rect x="-4.818" y="4.295" width="1.000" height="1.600" rx="0.500" fill="#c79b5c"/><rect x="-4.618" y="4.495" width="0.600" height="1.200" rx="0.300" fill="#12151c"/><rect x="-4.818" y="-0.135" width="1.000" height="2.100" rx="0.500" fill="#c79b5c"/><rect x="-4.618" y="0.065" width="0.600" height="1.700" rx="0.300" fill="#12151c"/><rect x="3.818" y="-0.135" width="1.000" height="2.100" rx="0.500" fill="#c79b5c"/><rect x="4.018" y="0.065" width="0.600" height="1.700" rx="0.300" fill="#12151c"/><rect x="3.818" y="4.295" width="1.000" height="1.600" rx="0.500" fill="#c79b5c"/><rect x="4.018" y="4.495" width="0.600" height="1.200" rx="0.300" fill="#12151c"/><rect x="-2.750" y="-0.160" width="0.600" height="1.000" rx="0.000" fill="#c79b5c"/><rect x="2.150" y="-0.160" width="0.600" height="1.000" rx="0.000" fill="#c79b5c"/></svg>