<svg xmlns="http://www.w3.org/2000/svg" viewBox="-8.65 -3.41 17.30 7.06" preserveAspectRatio="xMidYMid meet" style="width:100%;height:100%"><rect x="-8.65" y="-3.41" width="17.30" height="7.06" fill="#12151c"/><line x1="-7.400" y1="-2.160" x2="-5.750" y2="-2.160" stroke="#e6e9ef" stroke-width="0.200" stroke-linecap="round" opacity="1"/><line x1="-7.400" y1="-1.057" x2="-7.400" y2="-2.160" stroke="#e6e9ef" stroke-width="0.200" stroke-linecap="round" opacity="1"/><line x1="-7.400" y1="1.160" x2="-7.400" y2="0.437" stroke="#e6e9ef" stroke-width="0.200" stroke-linecap="round" opacity="1"/><line x1="-7.400" y1="1.160" x2="-6.400" y2="2.160" stroke="#e6e9ef" stroke-width="0.200" stroke-linecap="round" opacity="1"/><line x1="-6.400" y1="2.160" x2="-5.250" y2="2.160" stroke="#e6e9ef" stroke-width="0.200" stroke-linecap="round" opacity="1"/><line x1="5.250" y1="-2.160" x2="7.400" y2="-2.160" stroke="#e6e9ef" stroke-width="0.200" stroke-linecap="round" opacity="1"/><line x1="6.280" y1="2.160" x2="7.400" y2="2.160" stroke="#e6e9ef" stroke-width="0.200" stroke-linecap="round" opacity="1"/><line x1="7.400" y1="-0.937" x2="7.400" y2="-2.160" stroke="#e6e9ef" stroke-width="0.200" stroke-linecap="round" opacity="1"/><line x1="7.400" y1="2.160" x2="7.400" y2="0.557" stroke="#e6e9ef" stroke-width="0.200" stroke-linecap="round" opacity="1"/><line x1="-7.150" y1="0.020" x2="-7.150" y2="-0.640" stroke="#4a5160" stroke-width="0.080" stroke-linecap="round" opacity="0.7"/><line x1="-6.900" y1="0.020" x2="-6.900" y2="-0.640" stroke="#4a5160" stroke-width="0.080" stroke-linecap="round" opacity="0.7"/><line x1="-6.780" y1="-0.310" x2="-6.580" y2="-0.310" stroke="#4a5160" stroke-width="0.080" stroke-linecap="round" opacity="0.7"/><line x1="-6.580" y1="-0.310" x2="-6.580" y2="-0.510" stroke="#4a5160" stroke-width="0.080" stroke-linecap="round" opacity="0.7"/><line x1="-6.580" y1="-0.310" x2="-6.380" y2="-0.310" stroke="#4a5160" stroke-width="0.080" stroke-linecap="round" opacity="0.7"/><line x1="-6.580" y1="-0.110" x2="-6.580" y2="-0.310" stroke="#4a5160" stroke-width="0.080" stroke-linecap="round" opacity="0.7"/><line x1="-6.260" y1="0.020" x2="-6.260" y2="-0.640" stroke="#4a5160" stroke-width="0.080" stroke-linecap="round" opacity="0.7"/><line x1="-6.010" y1="0.020" x2="-6.010" y2="-0.640" stroke="#4a5160" stroke-width="0.080" stroke-linecap="round" opacity="0.7"/><line x1="-5.820" y1="0.950" x2="-5.620" y2="0.950" stroke="#4a5160" stroke-width="0.080" stroke-linecap="round" opacity="0.7"/><line x1="-5.620" y1="0.950" x2="-5.620" y2="0.750" stroke="#4a5160" stroke-width="0.080" stroke-linecap="round" opacity="0.7"/><line x1="-5.620" y1="0.950" x2="-5.420" y2="0.950" stroke="#4a5160" stroke-width="0.080" stroke-linecap="round" opacity="0.7"/><line x1="-5.620" y1="1.150" x2="-5.620" y2="0.950" stroke="#4a5160" stroke-width="0.080" stroke-linecap="round" opacity="0.7"/><line x1="-5.400" y1="-1.800" x2="-5.250" y2="-1.050" stroke="#4a5160" stroke-width="0.080" stroke-linecap="round" opacity="0.7"/><line x1="-5.400" y1="-1.800" x2="-5.100" y2="-1.800" stroke="#4a5160" stroke-width="0.080" stroke-linecap="round" opacity="0.7"/><line x1="-5.400" y1="-0.300" x2="-5.400" y2="-1.800" stroke="#4a5160" stroke-width="0.080" stroke-linecap="round" opacity="0.7"/><line x1="-5.400" y1="-0.300" x2="-5.100" y2="-0.300" stroke="#4a5160" stroke-width="0.080" stroke-linecap="round" opacity="0.7"/><line x1="-5.250" y1="-1.050" x2="-5.100" y2="-1.800" stroke="#4a5160" stroke-width="0.080" stroke-linecap="round" opacity="0.7"/><line x1="-5.100" y1="-0.300" x2="-5.100" y2="-1.800" stroke="#4a5160" stroke-width="0.080" stroke-linecap="round" opacity="0.7"/><line x1="-4.900" y1="-1.800" x2="-4.750" y2="-1.050" stroke="#4a5160" stroke-width="0.080" stroke-linecap="round" opacity="0.7"/><line x1="-4.900" y1="-1.800" x2="-4.600" y2="-1.800" stroke="#4a5160" stroke-width="0.080" stroke-linecap="round" opacity="0.7"/><line x1="-4.900" y1="-0.300" x2="-4.900" y2="-1.800" stroke="#4a5160" stroke-width="0.080" stroke-linecap="round" opacity="0.7"/><line x1="-4.900" y1="-0.300" x2="-4.600" y2="-0.300" stroke="#4a5160" stroke-width="0.080" stroke-linecap="round" opacity="0.7"/><line x1="-4.900" y1="0.300" x2="-4.600" y2="0.300" stroke="#4a5160" stroke-width="0.080" stroke-linecap="round" opacity="0.7"/><line x1="-4.900" y1="1.800" x2="-4.900" y2="0.300" stroke="#4a5160" stroke-width="0.080" stroke-linecap="round" opacity="0.7"/><line x1="-4.900" y1="1.800" x2="-4.750" y2="1.050" stroke="#4a5160" stroke-width="0.080" stroke-linecap="round" opacity="0.7"/><line x1="-4.900" y1="1.800" x2="-4.600" y2="1.800" stroke="#4a5160" stroke-width="0.080" stroke-linecap="round" opacity="0.7"/><line x1="-4.750" y1="-1.050" x2="-4.600" y2="-1.800" stroke="#4a5160" stroke-width="0.080" stroke-linecap="round" opacity="0.7"/><line x1="-4.750" y1="1.050" x2="-4.600" y2="1.800" stroke="#4a5160" stroke-width="0.080" stroke-linecap="round" opacity="0.7"/><line x1="-4.600" y1="-0.300" x2="-4.600" y2="-1.800" stroke="#4a5160" stroke-width="0.080" stroke-linecap="round" opacity="0.7"/><line x1="-4.600" y1="1.800" x2="-4.600" y2="0.300" stroke="#4a5160" stroke-width="0.080" stroke-linecap="round" opacity="0.7"/><line x1="-4.400" y1="-1.800" x2="-4.250" y2="-1.050" stroke="#4a5160" stroke-width="0.080" stroke-linecap="round" opacity="0.7"/><line x1="-4.400" y1="-1.800" x2="-4.100" y2="-1.800" stroke="#4a5160" stroke-width="0.080" stroke-linecap="round" opacity="0.7"/><line x1="-4.400" y1="-0.300" x2="-4.400" y2="-1.800" stroke="#4a5160" stroke-width="0.080" stroke-linecap="round" opacity="0.7"/><line x1="-4.400" y1="-0.300" x2="-4.100" y2="-0.300" stroke="#4a5160" stroke-width="0.080" stroke-linecap="round" opacity="0.7"/><line x1="-4.400" y1="0.300" x2="-4.100" y2="0.300" stroke="#4a5160" stroke-width="0.080" stroke-linecap="round" opacity="0.7"/><line x1="-4.400" y1="1.800" x2="-4.400" y2="0.300" stroke="#4a5160" stroke-width="0.080" stroke-linecap="round" opacity="0.7"/><line x1="-4.400" y1="1.800" x2="-4.250" y2="1.050" stroke="#4a5160" stroke-width="0.080" stroke-linecap="round" opacity="0.7"/><line x1="-4.400" y1="1.800" x2="-4.100" y2="1.800" stroke="#4a5160" stroke-width="0.080" stroke-linecap="round" opacity="0.7"/><line x1="-4.250" y1="-1.050" x2="-4.100" y2="-1.800" stroke="#4a5160" stroke-width="0.080" stroke-linecap="round" opacity="0.7"/><line x1="-4.250" y1="1.050" x2="-4.100" y2="1.800" stroke="#4a5160" stroke-width="0.080" stroke-linecap="round" opacity="0.7"/><line x1="-4.100" y1="-0.300" x2="-4.100" y2="-1.800" stroke="#4a5160" stroke-width="0.080" stroke-linecap="round" opacity="0.7"/><line x1="-4.100" y1="1.800" x2="-4.100" y2="0.300" stroke="#4a5160" stroke-width="0.080" stroke-linecap="round" opacity="0.7"/><line x1="-3.900" y1="-1.800" x2="-3.750" y2="-1.050" stroke="#4a5160" stroke-width="0.080" stroke-linecap="round" opacity="0.7"/><line x1="-3.900" y1="-1.800" x2="-3.600" y2="-1.800" stroke="#4a5160" stroke-width="0.080" stroke-linecap="round" opacity="0.7"/><line x1="-3.900" y1="-0.300" x2="-3.900" y2="-1.800" stroke="#4a5160" stroke-width="0.080" stroke-linecap="round" opacity="0.7"/><line x1="-3.900" y1="-0.300" x2="-3.600" y2="-0.300" stroke="#4a5160" stroke-width="0.080" stroke-linecap="round" opacity="0.7"/><line x1="-3.900" y1="0.300" x2="-3.600" y2="0.300" stroke="#4a5160" stroke-width="0.080" stroke-linecap="round" opacity="0.7"/><line x1="-3.900" y1="1.800" x2="-3.900" y2="0.300" stroke="#4a5160" stroke-width="0.080" stroke-linecap="round" opacity="0.7"/><line x1="-3.900" y1="1.800" x2="-3.750" y2="1.050" stroke="#4a5160" stroke-width="0.080" stroke-linecap="round" opacity="0.7"/><line x1="-3.900" y1="1.800" x2="-3.600" y2="1.800" stroke="#4a5160" stroke-width="0.080" stroke-linecap="round" opacity="0.7"/><line x1="-3.750" y1="-1.050" x2="-3.600" y2="-1.800" stroke="#4a5160" stroke-width="0.080" stroke-linecap="round" opacity="0.7"/><line x1="-3.750" y1="1.050" x2="-3.600" y2="1.800" stroke="#4a5160" stroke-width="0.080" stroke-linecap="round" opacity="0.7"/><line x1="-3.600" y1="-0.300" x2="-3.600" y2="-1.800" stroke="#4a5160" stroke-width="0.080" stroke-linecap="round" opacity="0.7"/><line x1="-3.600" y1="1.800" x2="-3.600" y2="0.300" stroke="#4a5160" stroke-width="0.080" stroke-linecap="round" opacity="0.7"/><line x1="-3.400" y1="-1.800" x2="-3.250" y2="-1.050" stroke="#4a5160" stroke-width="0.080" stroke-linecap="round" opacity="0.7"/><line x1="-3.400" y1="-1.800" x2="-3.100" y2="-1.800" stroke="#4a5160" stroke-width="0.080" stroke-linecap="round" opacity="0.7"/><line x1="-3.400" y1="-0.300" x2="-3.400" y2="-1.800" stroke="#4a5160" stroke-width="0.080" stroke-linecap="round" opacity="0.7"/><line x1="-3.400" y1="-0.300" x2="-3.100" y2="-0.300" stroke="#4a5160" stroke-width="0.080" stroke-linecap="round" opacity="0.7"/><line x1="-3.400" y1="0.300" x2="-3.100" y2="0.300" stroke="#4a5160" stroke-width="0.080" stroke-linecap="round" opacity="0.7"/><line x1="-3.400" y1="1.800" x2="-3.400" y2="0.300" stroke="#4a5160" stroke-width="0.080" stroke-linecap="round" opacity="0.7"/><line x1="-3.400" y1="1.800" x2="-3.250" y2="1.050" stroke="#4a5160" stroke-width="0.080" stroke-linecap="round" opacity="0.7"/><line x1="-3.400" y1="1.800" x2="-3.100" y2="1.800" stroke="#4a5160" stroke-width="0.080" stroke-linecap="round" opacity="0.7"/><line x1="-3.250" y1="-1.050" x2="-3.100" y2="-1.800" stroke="#4a5160" stroke-width="0.080" stroke-linecap="round" opacity="0.7"/><line x1="-3.250" y1="1.050" x2="-3.100" y2="1.800" stroke="#4a5160" stroke-width="0.080" stroke-linecap="round" opacity="0.7"/><line x1="-3.100" y1="-0.300" x2="-3.100" y2="-1.800" stroke="#4a5160" stroke-width="0.080" stroke-linecap="round" opacity="0.7"/><line x1="-3.100" y1="1.800" x2="-3.100" y2="0.300" stroke="#4a5160" stroke-width="0.080" stroke-linecap="round" opacity="0.7"/><line x1="-2.900" y1="-1.800" x2="-2.750" y2="-1.050" stroke="#4a5160" stroke-width="0.080" stroke-linecap="round" opacity="0.7"/><line x1="-2.900" y1="-1.800" x2="-2.600" y2="-1.800" stroke="#4a5160" stroke-width="0.080" stroke-linecap="round" opacity="0.7"/><line x1="-2.900" y1="-0.300" x2="-2.900" y2="-1.800" stroke="#4a5160" stroke-width="0.080" stroke-linecap="round" opacity="0.7"/><line x1="-2.900" y1="-0.300" x2="-2.600" y2="-0.300" stroke="#4a5160" stroke-width="0.080" stroke-linecap="round" opacity="0.7"/><line x1="-2.900" y1="0.300" x2="-2.600" y2="0.300" stroke="#4a5160" stroke-width="0.080" stroke-linecap="round" opacity="0.7"/><line x1="-2.900" y1="1.800" x2="-2.900" y2="0.300" stroke="#4a5160" stroke-width="0.080" stroke-linecap="round" opacity="0.7"/><line x1="-2.900" y1="1.800" x2="-2.750" y2="1.050" stroke="#4a5160" stroke-width="0.080" stroke-linecap="round" opacity="0.7"/><line x1="-2.900" y1="1.800" x2="-2.600" y2="1.800" stroke="#4a5160" stroke-width="0.080" stroke-linecap="round" opacity="0.7"/><line x1="-2.750" y1="-1.050" x2="-2.600" y2="-1.800" stroke="#4a5160" stroke-width="0.080" stroke-linecap="round" opacity="0.7"/><line x1="-2.750" y1="1.050" x2="-2.600" y2="1.800" stroke="#4a5160" stroke-width="0.080" stroke-linecap="round" opacity="0.7"/><line x1="-2.600" y1="-0.300" x2="-2.600" y2="-1.800" stroke="#4a5160" stroke-width="0.080" stroke-linecap="round" opacity="0.7"/><line x1="-2.600" y1="1.800" x2="-2.600" y2="0.300" stroke="#4a5160" stroke-width="0.080" stroke-linecap="round" opacity="0.7"/><line x1="-2.400" y1="-1.800" x2="-2.250" y2="-1.050" stroke="#4a5160" stroke-width="0.080" stroke-linecap="round" opacity="0.7"/><line x1="-2.400" y1="-1.800" x2="-2.100" y2="-1.800" stroke="#4a5160" stroke-width="0.080" stroke-linecap="round" opacity="0.7"/><line x1="-2.400" y1="-0.300" x2="-2.400" y2="-1.800" stroke="#4a5160" stroke-width="0.080" stroke-linecap="round" opacity="0.7"/><line x1="-2.400" y1="-0.300" x2="-2.100" y2="-0.300" stroke="#4a5160" stroke-width="0.080" stroke-linecap="round" opacity="0.7"/><line x1="-2.400" y1="0.300" x2="-2.100" y2="0.300" stroke="#4a5160" stroke-width="0.080" stroke-linecap="round" opacity="0.7"/><line x1="-2.400" y1="1.800" x2="-2.400" y2="0.300" stroke="#4a5160" stroke-width="0.080" stroke-linecap="round" opacity="0.7"/><line x1="-2.400" y1="1.800" x2="-2.250" y2="1.050" stroke="#4a5160" stroke-width="0.080" stroke-linecap="round" opacity="0.7"/><line x1="-2.400" y1="1.800" x2="-2.100" y2="1.800" stroke="#4a5160" stroke-width="0.080" stroke-linecap="round" opacity="0.7"/><line x1="-2.250" y1="-1.050" x2="-2.100" y2="-1.800" stroke="#4a5160" stroke-width="0.080" stroke-linecap="round" opacity="0.7"/><line x1="-2.250" y1="1.050" x2="-2.100" y2="1.800" stroke="#4a5160" stroke-width="0.080" stroke-linecap="round" opacity="0.7"/><line x1="-2.100" y1="-0.300" x2="-2.100" y2="-1.800" stroke="#4a5160" stroke-width="0.080" stroke-linecap="round" opacity="0.7"/><line x1="-2.100" y1="1.800" x2="-2.100" y2="0.300" stroke="#4a5160" stroke-width="0.080" stroke-linecap="round" opacity="0.7"/><line x1="-1.900" y1="-1.800" x2="-1.750" y2="-1.050" stroke="#4a5160" stroke-width="0.080" stroke-linecap="round" opacity="0.7"/><line x1="-1.900" y1="-1.800" x2="-1.600" y2="-1.800" stroke="#4a5160" stroke-width="0.080" stroke-linecap="round" opacity="0.7"/><line x1="-1.900" y1="-0.300" x2="-1.900" y2="-1.800" stroke="#4a5160" stroke-width="0.080" stroke-linecap="round" opacity="0.7"/><line x1="-1.900" y1="-0.300" x2="-1.600" y2="-0.300" stroke="#4a5160" stroke-width="0.080" stroke-linecap="round" opacity="0.7"/><line x1="-1.900" y1="0.300" x2="-1.600" y2="0.300" stroke="#4a5160" stroke-width="0.080" stroke-linecap="round" opacity="0.7"/><line x1="-1.900" y1="1.800" x2="-1.900" y2="0.300" stroke="#4a5160" stroke-width="0.080" stroke-linecap="round" opacity="0.7"/><line x1="-1.900" y1="1.800" x2="-1.750" y2="1.050" stroke="#4a5160" stroke-width="0.080" stroke-linecap="round" opacity="0.7"/><line x1="-1.900" y1="1.800" x2="-1.600" y2="1.800" stroke="#4a5160" stroke-width="0.080" stroke-linecap="round" opacity="0.7"/><line x1="-1.750" y1="-1.050" x2="-1.600" y2="-1.800" stroke="#4a5160" stroke-width="0.080" stroke-linecap="round" opacity="0.7"/><line x1="-1.750" y1="1.050" x2="-1.600" y2="1.800" stroke="#4a5160" stroke-width="0.080" stroke-linecap="round" opacity="0.7"/><line x1="-1.600" y1="-0.300" x2="-1.600" y2="-1.800" stroke="#4a5160" stroke-width="0.080" stroke-linecap="round" opacity="0.7"/><line x1="-1.600" y1="1.800" x2="-1.600" y2="0.300" stroke="#4a5160" stroke-width="0.080" stroke-linecap="round" opacity="0.7"/><line x1="-1.400" y1="-1.800" x2="-1.250" y2="-1.050" stroke="#4a5160" stroke-width="0.080" stroke-linecap="round" opacity="0.7"/><line x1="-1.400" y1="-1.800" x2="-1.100" y2="-1.800" stroke="#4a5160" stroke-width="0.080" stroke-linecap="round" opacity="0.7"/><line x1="-1.400" y1="-0.300" x2="-1.400" y2="-1.800" stroke="#4a5160" stroke-width="0.080" stroke-linecap="round" opacity="0.7"/><line x1="-1.400" y1="-0.300" x2="-1.100" y2="-0.300" stroke="#4a5160" stroke-width="0.080" stroke-linecap="round" opacity="0.7"/><line x1="-1.400" y1="0.300" x2="-1.100" y2="0.300" stroke="#4a5160" stroke-width="0.080" stroke-linecap="round" opacity="0.7"/><line x1="-1.400" y1="1.800" x2="-1.400" y2="0.300" stroke="#4a5160" stroke-width="0.080" stroke-linecap="round" opacity="0.7"/><line x1="-1.400" y1="1.800" x2="-1.250" y2="1.050" stroke="#4a5160" stroke-width="0.080" stroke-linecap="round" opacity="0.7"/><line x1="-1.400" y1="1.800" x2="-1.100" y2="1.800" stroke="#4a5160" stroke-width="0.080" stroke-linecap="round" opacity="0.7"/><line x1="-1.250" y1="-1.050" x2="-1.100" y2="-1.800" stroke="#4a5160" stroke-width="0.080" stroke-linecap="round" opacity="0.7"/><line x1="-1.250" y1="1.050" x2="-1.100" y2="1.800" stroke="#4a5160" stroke-width="0.080" stroke-linecap="round" opacity="0.7"/><line x1="-1.100" y1="-0.300" x2="-1.100" y2="-1.800" stroke="#4a5160" stroke-width="0.080" stroke-linecap="round" opacity="0.7"/><line x1="-1.100" y1="1.800" x2="-1.100" y2="0.300" stroke="#4a5160" stroke-width="0.080" stroke-linecap="round" opacity="0.7"/><line x1="-0.900" y1="-1.800" x2="-0.750" y2="-1.050" stroke="#4a5160" stroke-width="0.080" stroke-linecap="round" opacity="0.7"/><line x1="-0.900" y1="-1.800" x2="-0.600" y2="-1.800" stroke="#4a5160" stroke-width="0.080" stroke-linecap="round" opacity="0.7"/><line x1="-0.900" y1="-0.300" x2="-0.900" y2="-1.800" stroke="#4a5160" stroke-width="0.080" stroke-linecap="round" opacity="0.7"/><line x1="-0.900" y1="-0.300" x2="-0.600" y2="-0.300" stroke="#4a5160" stroke-width="0.080" stroke-linecap="round" opacity="0.7"/><line x1="-0.900" y1="0.300" x2="-0.600" y2="0.300" stroke="#4a5160" stroke-width="0.080" stroke-linecap="round" opacity="0.7"/><line x1="-0.900" y1="1.800" x2="-0.900" y2="0.300" stroke="#4a5160" stroke-width="0.080" stroke-linecap="round" opacity="0.7"/><line x1="-0.900" y1="1.800" x2="-0.750" y2="1.050" stroke="#4a5160" stroke-width="0.080" stroke-linecap="round" opacity="0.7"/><line x1="-0.900" y1="1.800" x2="-0.600" y2="1.800" stroke="#4a5160" stroke-width="0.080" stroke-linecap="round" opacity="0.7"/><line x1="-0.750" y1="-1.050" x2="-0.600" y2="-1.800" stroke="#4a5160" stroke-width="0.080" stroke-linecap="round" opacity="0.7"/><line x1="-0.750" y1="1.050" x2="-0.600" y2="1.800" stroke="#4a5160" stroke-width="0.080" stroke-linecap="round" opacity="0.7"/><line x1="-0.600" y1="-0.300" x2="-0.600" y2="-1.800" stroke="#4a5160" stroke-width="0.080" stroke-linecap="round" opacity="0.7"/><line x1="-0.600" y1="1.800" x2="-0.600" y2="0.300" stroke="#4a5160" stroke-width="0.080" stroke-linecap="round" opacity="0.7"/><line x1="-0.500" y1="0.000" x2="0.000" y2="0.000" stroke="#4a5160" stroke-width="0.080" stroke-linecap="round" opacity="0.7"/><line x1="-0.400" y1="-1.800" x2="-0.250" y2="-1.050" stroke="#4a5160" stroke-width="0.080" stroke-linecap="round" opacity="0.7"/><line x1="-0.400" y1="-1.800" x2="-0.100" y2="-1.800" stroke="#4a5160" stroke-width="0.080" stroke-linecap="round" opacity="0.7"/><line x1="-0.400" y1="-0.300" x2="-0.400" y2="-1.800" stroke="#4a5160" stroke-width="0.080" stroke-linecap="round" opacity="0.7"/><line x1="-0.400" y1="-0.300" x2="-0.100" y2="-0.300" stroke="#4a5160" stroke-width="0.080" stroke-linecap="round" opacity="0.7"/><line x1="-0.400" y1="0.300" x2="-0.100" y2="0.300" stroke="#4a5160" stroke-width="0.080" stroke-linecap="round" opacity="0.7"/><line x1="-0.400" y1="1.800" x2="-0.400" y2="0.300" stroke="#4a5160" stroke-width="0.080" stroke-linecap="round" opacity="0.7"/><line x1="-0.400" y1="1.800" x2="-0.250" y2="1.050" stroke="#4a5160" stroke-width="0.080" stroke-linecap="round" opacity="0.7"/><line x1="-0.400" y1="1.800" x2="-0.100" y2="1.800" stroke="#4a5160" stroke-width="0.080" stroke-linecap="round" opacity="0.7"/><line x1="-0.250" y1="-1.050" x2="-0.100" y2="-1.800" stroke="#4a5160" stroke-width="0.080" stroke-linecap="round" opacity="0.7"/><line x1="-0.250" y1="1.050" x2="-0.100" y2="1.800" stroke="#4a5160" stroke-width="0.080" stroke-linecap="round" opacity="0.7"/><line x1="-0.100" y1="-0.300" x2="-0.100" y2="-1.800" stroke="#4a5160" stroke-width="0.080" stroke-linecap="round" opacity="0.7"/><line x1="-0.100" y1="1.800" x2="-0.100" y2="0.300" stroke="#4a5160" stroke-width="0.080" stroke-linecap="round" opacity="0.7"/><line x1="0.000" y1="0.000" x2="0.000" y2="-0.500" stroke="#4a5160" stroke-width="0.080" stroke-linecap="round" opacity="0.7"/><line x1="0.000" y1="0.000" x2="0.500" y2="0.000" stroke="#4a5160" stroke-width="0.080" stroke-linecap="round" opacity="0.7"/><line x1="0.000" y1="0.500" x2="0.000" y2="0.000" stroke="#4a5160" stroke-width="0.080" stroke-linecap="round" opacity="0.7"/><line x1="0.100" y1="-1.800" x2="0.250" y2="-1.050" stroke="#4a5160" stroke-width="0.080" stroke-linecap="round" opacity="0.7"/><line x1="0.100" y1="-1.800" x2="0.400" y2="-1.800" stroke="#4a5160" stroke-width="0.080" stroke-linecap="round" opacity="0.7"/><line x1="0.100" y1="-0.300" x2="0.100" y2="-1.800" stroke="#4a5160" stroke-width="0.080" stroke-linecap="round" opacity="0.7"/><line x1="0.100" y1="-0.300" x2="0.400" y2="-0.300" stroke="#4a5160" stroke-width="0.080" stroke-linecap="round" opacity="0.7"/><line x1="0.100" y1="0.300" x2="0.400" y2="0.300" stroke="#4a5160" stroke-width="0.080" stroke-linecap="round" opacity="0.7"/><line x1="0.100" y1="1.800" x2="0.100" y2="0.300" stroke="#4a5160" stroke-width="0.080" stroke-linecap="round" opacity="0.7"/><line x1="0.100" y1="1.800" x2="0.250" y2="1.050" stroke="#4a5160" stroke-width="0.080" stroke-linecap="round" opacity="0.7"/><line x1="0.100" y1="1.800" x2="0.400" y2="1.800" stroke="#4a5160" stroke-width="0.080" stroke-linecap="round" opacity="0.7"/><line x1="0.250" y1="-1.050" x2="0.400" y2="-1.800" stroke="#4a5160" stroke-width="0.080" stroke-linecap="round" opacity="0.7"/><line x1="0.250" y1="1.050" x2="0.400" y2="1.800" stroke="#4a5160" stroke-width="0.080" stroke-linecap="round" opacity="0.7"/><line x1="0.400" y1="-0.300" x2="0.400" y2="-1.800" stroke="#4a5160" stroke-width="0.080" stroke-linecap="round" opacity="0.7"/><line x1="0.400" y1="1.800" x2="0.400" y2="0.300" stroke="#4a5160" stroke-width="0.080" stroke-linecap="round" opacity="0.7"/><line x1="0.600" y1="-1.800" x2="0.750" y2="-1.050" stroke="#4a5160" stroke-width="0.080" stroke-linecap="round" opacity="0.7"/><line x1="0.600" y1="-1.800" x2="0.900" y2="-1.800" stroke="#4a5160" stroke-width="0.080" stroke-linecap="round" opacity="0.7"/><line x1="0.600" y1="-0.300" x2="0.600" y2="-1.800" stroke="#4a5160" stroke-width="0.080" stroke-linecap="round" opacity="0.7"/><line x1="0.600" y1="-0.300" x2="0.900" y2="-0.300" stroke="#4a5160" stroke-width="0.080" stroke-linecap="round" opacity="0.7"/><line x1="0.600" y1="0.300" x2="0.900" y2="0.300" stroke="#4a5160" stroke-width="0.080" stroke-linecap="round" opacity="0.7"/><line x1="0.600" y1="1.800" x2="0.600" y2="0.300" stroke="#4a5160" stroke-width="0.080" stroke-linecap="round" opacity="0.7"/><line x1="0.600" y1="1.800" x2="0.750" y2="1.050" stroke="#4a5160" stroke-width="0.080" stroke-linecap="round" opacity="0.7"/><line x1="0.600" y1="1.800" x2="0.900" y2="1.800" stroke="#4a5160" stroke-width="0.080" stroke-linecap="round" opacity="0.7"/><line x1="0.750" y1="-1.050" x2="0.900" y2="-1.800" stroke="#4a5160" stroke-width="0.080" stroke-linecap="round" opacity="0.7"/><line x1="0.750" y1="1.050" x2="0.900" y2="1.800" stroke="#4a5160" stroke-width="0.080" stroke-linecap="round" opacity="0.7"/><line x1="0.900" y1="-0.300" x2="0.900" y2="-1.800" stroke="#4a5160" stroke-width="0.080" stroke-linecap="round" opacity="0.7"/><line x1="0.900" y1="1.800" x2="0.900" y2="0.300" stroke="#4a5160" stroke-width="0.080" stroke-linecap="round" opacity="0.7"/><line x1="1.100" y1="-1.800" x2="1.250" y2="-1.050" stroke="#4a5160" stroke-width="0.080" stroke-linecap="round" opacity="0.7"/><line x1="1.100" y1="-1.800" x2="1.400" y2="-1.800" stroke="#4a5160" stroke-width="0.080" stroke-linecap="round" opacity="0.7"/><line x1="1.100" y1="-0.300" x2="1.100" y2="-1.800" stroke="#4a5160" stroke-width="0.080" stroke-linecap="round" opacity="0.7"/><line x1="1.100" y1="-0.300" x2="1.400" y2="-0.300" stroke="#4a5160" stroke-width="0.080" stroke-linecap="round" opacity="0.7"/><line x1="1.100" y1="0.300" x2="1.400" y2="0.300" stroke="#4a5160" stroke-width="0.080" stroke-linecap="round" opacity="0.7"/><line x1="1.100" y1="1.800" x2="1.100" y2="0.300" stroke="#4a5160" stroke-width="0.080" stroke-linecap="round" opacity="0.7"/><line x1="1.100" y1="1.800" x2="1.250" y2="1.050" stroke="#4a5160" stroke-width="0.080" stroke-linecap="round" opacity="0.7"/><line x1="1.100" y1="1.800" x2="1.400" y2="1.800" stroke="#4a5160" stroke-width="0.080" stroke-linecap="round" opacity="0.7"/><line x1="1.250" y1="-1.050" x2="1.400" y2="-1.800" stroke="#4a5160" stroke-width="0.080" stroke-linecap="round" opacity="0.7"/><line x1="1.250" y1="1.050" x2="1.400" y2="1.800" stroke="#4a5160" stroke-width="0.080" stroke-linecap="round" opacity="0.7"/><line x1="1.400" y1="-0.300" x2="1.400" y2="-1.800" stroke="#4a5160" stroke-width="0.080" stroke-linecap="round" opacity="0.7"/><line x1="1.400" y1="1.800" x2="1.400" y2="0.300" stroke="#4a5160" stroke-width="0.080" stroke-linecap="round" opacity="0.7"/><line x1="1.600" y1="-1.800" x2="1.750" y2="-1.050" stroke="#4a5160" stroke-width="0.080" stroke-linecap="round" opacity="0.7"/><line x1="1.600" y1="-1.800" x2="1.900" y2="-1.800" stroke="#4a5160" stroke-width="0.080" stroke-linecap="round" opacity="0.7"/><line x1="1.600" y1="-0.300" x2="1.600" y2="-1.800" stroke="#4a5160" stroke-width="0.080" stroke-linecap="round" opacity="0.7"/><line x1="1.600" y1="-0.300" x2="1.900" y2="-0.300" stroke="#4a5160" stroke-width="0.080" stroke-linecap="round" opacity="0.7"/><line x1="1.600" y1="0.300" x2="1.900" y2="0.300" stroke="#4a5160" stroke-width="0.080" stroke-linecap="round" opacity="0.7"/><line x1="1.600" y1="1.800" x2="1.600" y2="0.300" stroke="#4a5160" stroke-width="0.080" stroke-linecap="round" opacity="0.7"/><line x1="1.600" y1="1.800" x2="1.750" y2="1.050" stroke="#4a5160" stroke-width="0.080" stroke-linecap="round" opacity="0.7"/><line x1="1.600" y1="1.800" x2="1.900" y2="1.800" stroke="#4a5160" stroke-width="0.080" stroke-linecap="round" opacity="0.7"/><line x1="1.750" y1="-1.050" x2="1.900" y2="-1.800" stroke="#4a5160" stroke-width="0.080" stroke-linecap="round" opacity="0.7"/><line x1="1.750" y1="1.050" x2="1.900" y2="1.800" stroke="#4a5160" stroke-width="0.080" stroke-linecap="round" opacity="0.7"/><line x1="1.900" y1="-0.300" x2="1.900" y2="-1.800" stroke="#4a5160" stroke-width="0.080" stroke-linecap="round" opacity="0.7"/><line x1="1.900" y1="1.800" x2="1.900" y2="0.300" stroke="#4a5160" stroke-width="0.080" stroke-linecap="round" opacity="0.7"/><line x1="2.100" y1="-1.800" x2="2.250" y2="-1.050" stroke="#4a5160" stroke-width="0.080" stroke-linecap="round" opacity="0.7"/><line x1="2.100" y1="-1.800" x2="2.400" y2="-1.800" stroke="#4a5160" stroke-width="0.080" stroke-linecap="round" opacity="0.7"/><line x1="2.100" y1="-0.300" x2="2.100" y2="-1.800" stroke="#4a5160" stroke-width="0.080" stroke-linecap="round" opacity="0.7"/><line x1="2.100" y1="-0.300" x2="2.400" y2="-0.300" stroke="#4a5160" stroke-width="0.080" stroke-linecap="round" opacity="0.7"/><line x1="2.100" y1="0.300" x2="2.400" y2="0.300" stroke="#4a5160" stroke-width="0.080" stroke-linecap="round" opacity="0.7"/><line x1="2.100" y1="1.800" x2="2.100" y2="0.300" stroke="#4a5160" stroke-width="0.080" stroke-linecap="round" opacity="0.7"/><line x1="2.100" y1="1.800" x2="2.250" y2="1.050" stroke="#4a5160" stroke-width="0.080" stroke-linecap="round" opacity="0.7"/><line x1="2.100" y1="1.800" x2="2.400" y2="1.800" stroke="#4a5160" stroke-width="0.080" stroke-linecap="round" opacity="0.7"/><line x1="2.250" y1="-1.050" x2="2.400" y2="-1.800" stroke="#4a5160" stroke-width="0.080" stroke-linecap="round" opacity="0.7"/><line x1="2.250" y1="1.050" x2="2.400" y2="1.800" stroke="#4a5160" stroke-width="0.080" stroke-linecap="round" opacity="0.7"/><line x1="2.400" y1="-0.300" x2="2.400" y2="-1.800" stroke="#4a5160" stroke-width="0.080" stroke-linecap="round" opacity="0.7"/><line x1="2.400" y1="1.800" x2="2.400" y2="0.300" stroke="#4a5160" stroke-width="0.080" stroke-linecap="round" opacity="0.7"/><line x1="2.600" y1="-1.800" x2="2.750" y2="-1.050" stroke="#4a5160" stroke-width="0.080" stroke-linecap="round" opacity="0.7"/><line x1="2.600" y1="-1.800" x2="2.900" y2="-1.800" stroke="#4a5160" stroke-width="0.080" stroke-linecap="round" opacity="0.7"/><line x1="2.600" y1="-0.300" x2="2.600" y2="-1.800" stroke="#4a5160" stroke-width="0.080" stroke-linecap="round" opacity="0.7"/><line x1="2.600" y1="-0.300" x2="2.900" y2="-0.300" stroke="#4a5160" stroke-width="0.080" stroke-linecap="round" opacity="0.7"/><line x1="2.600" y1="0.300" x2="2.900" y2="0.300" stroke="#4a5160" stroke-width="0.080" stroke-linecap="round" opacity="0.7"/><line x1="2.600" y1="1.800" x2="2.600" y2="0.300" stroke="#4a5160" stroke-width="0.080" stroke-linecap="round" opacity="0.7"/><line x1="2.600" y1="1.800" x2="2.750" y2="1.050" stroke="#4a5160" stroke-width="0.080" stroke-linecap="round" opacity="0.7"/><line x1="2.600" y1="1.800" x2="2.900" y2="1.800" stroke="#4a5160" stroke-width="0.080" stroke-linecap="round" opacity="0.7"/><line x1="2.750" y1="-1.050" x2="2.900" y2="-1.800" stroke="#4a5160" stroke-width="0.080" stroke-linecap="round" opacity="0.7"/><line x1="2.750" y1="1.050" x2="2.900" y2="1.800" stroke="#4a5160" stroke-width="0.080" stroke-linecap="round" opacity="0.7"/><line x1="2.900" y1="-0.300" x2="2.900" y2="-1.800" stroke="#4a5160" stroke-width="0.080" stroke-linecap="round" opacity="0.7"/><line x1="2.900" y1="1.800" x2="2.900" y2="0.300" stroke="#4a5160" stroke-width="0.080" stroke-linecap="round" opacity="0.7"/><line x1="3.100" y1="-1.800" x2="3.250" y2="-1.050" stroke="#4a5160" stroke-width="0.080" stroke-linecap="round" opacity="0.7"/><line x1="3.100" y1="-1.800" x2="3.400" y2="-1.800" stroke="#4a5160" stroke-width="0.080" stroke-linecap="round" opacity="0.7"/><line x1="3.100" y1="-0.300" x2="3.100" y2="-1.800" stroke="#4a5160" stroke-width="0.080" stroke-linecap="round" opacity="0.7"/><line x1="3.100" y1="-0.300" x2="3.400" y2="-0.300" stroke="#4a5160" stroke-width="0.080" stroke-linecap="round" opacity="0.7"/><line x1="3.100" y1="0.300" x2="3.400" y2="0.300" stroke="#4a5160" stroke-width="0.080" stroke-linecap="round" opacity="0.7"/><line x1="3.100" y1="1.800" x2="3.100" y2="0.300" stroke="#4a5160" stroke-width="0.080" stroke-linecap="round" opacity="0.7"/><line x1="3.100" y1="1.800" x2="3.250" y2="1.050" stroke="#4a5160" stroke-width="0.080" stroke-linecap="round" opacity="0.7"/><line x1="3.100" y1="1.800" x2="3.400" y2="1.800" stroke="#4a5160" stroke-width="0.080" stroke-linecap="round" opacity="0.7"/><line x1="3.250" y1="-1.050" x2="3.400" y2="-1.800" stroke="#4a5160" stroke-width="0.080" stroke-linecap="round" opacity="0.7"/><line x1="3.250" y1="1.050" x2="3.400" y2="1.800" stroke="#4a5160" stroke-width="0.080" stroke-linecap="round" opacity="0.7"/><line x1="3.400" y1="-0.300" x2="3.400" y2="-1.800" stroke="#4a5160" stroke-width="0.080" stroke-linecap="round" opacity="0.7"/><line x1="3.400" y1="1.800" x2="3.400" y2="0.300" stroke="#4a5160" stroke-width="0.080" stroke-linecap="round" opacity="0.7"/><line x1="3.600" y1="-1.800" x2="3.750" y2="-1.050" stroke="#4a5160" stroke-width="0.080" stroke-linecap="round" opacity="0.7"/><line x1="3.600" y1="-1.800" x2="3.900" y2="-1.800" stroke="#4a5160" stroke-width="0.080" stroke-linecap="round" opacity="0.7"/><line x1="3.600" y1="-0.300" x2="3.600" y2="-1.800" stroke="#4a5160" stroke-width="0.080" stroke-linecap="round" opacity="0.7"/><line x1="3.600" y1="-0.300" x2="3.900" y2="-0.300" stroke="#4a5160" stroke-width="0.080" stroke-linecap="round" opacity="0.7"/><line x1="3.600" y1="0.300" x2="3.900" y2="0.300" stroke="#4a5160" stroke-width="0.080" stroke-linecap="round" opacity="0.7"/><line x1="3.600" y1="1.800" x2="3.600" y2="0.300" stroke="#4a5160" stroke-width="0.080" stroke-linecap="round" opacity="0.7"/><line x1="3.600" y1="1.800" x2="3.750" y2="1.050" stroke="#4a5160" stroke-width="0.080" stroke-linecap="round" opacity="0.7"/><line x1="3.600" y1="1.800" x2="3.900" y2="1.800" stroke="#4a5160" stroke-width="0.080" stroke-linecap="round" opacity="0.7"/><line x1="3.750" y1="-1.050" x2="3.900" y2="-1.800" stroke="#4a5160" stroke-width="0.080" stroke-linecap="round" opacity="0.7"/><line x1="3.750" y1="1.050" x2="3.900" y2="1.800" stroke="#4a5160" stroke-width="0.080" stroke-linecap="round" opacity="0.7"/><line x1="3.900" y1="-0.300" x2="3.900" y2="-1.800" stroke="#4a5160" stroke-width="0.080" stroke-linecap="round" opacity="0.7"/><line x1="3.900" y1="1.800" x2="3.900" y2="0.300" stroke="#4a5160" stroke-width="0.080" stroke-linecap="round" opacity="0.7"/><line x1="4.100" y1="-1.800" x2="4.250" y2="-1.050" stroke="#4a5160" stroke-width="0.080" stroke-linecap="round" opacity="0.7"/><line x1="4.100" y1="-1.800" x2="4.400" y2="-1.800" stroke="#4a5160" stroke-width="0.080" stroke-linecap="round" opacity="0.7"/><line x1="4.100" y1="-0.300" x2="4.100" y2="-1.800" stroke="#4a5160" stroke-width="0.080" stroke-linecap="round" opacity="0.7"/><line x1="4.100" y1="-0.300" x2="4.400" y2="-0.300" stroke="#4a5160" stroke-width="0.080" stroke-linecap="round" opacity="0.7"/><line x1="4.100" y1="0.300" x2="4.400" y2="0.300" stroke="#4a5160" stroke-width="0.080" stroke-linecap="round" opacity="0.7"/><line x1="4.100" y1="1.800" x2="4.100" y2="0.300" stroke="#4a5160" stroke-width="0.080" stroke-linecap="round" opacity="0.7"/><line x1="4.100" y1="1.800" x2="4.250" y2="1.050" stroke="#4a5160" stroke-width="0.080" stroke-linecap="round" opacity="0.7"/><line x1="4.100" y1="1.800" x2="4.400" y2="1.800" stroke="#4a5160" stroke-width="0.080" stroke-linecap="round" opacity="0.7"/><line x1="4.250" y1="-1.050" x2="4.400" y2="-1.800" stroke="#4a5160" stroke-width="0.080" stroke-linecap="round" opacity="0.7"/><line x1="4.250" y1="1.050" x2="4.400" y2="1.800" stroke="#4a5160" stroke-width="0.080" stroke-linecap="round" opacity="0.7"/><line x1="4.400" y1="-0.300" x2="4.400" y2="-1.800" stroke="#4a5160" stroke-width="0.080" stroke-linecap="round" opacity="0.7"/><line x1="4.400" y1="1.800" x2="4.400" y2="0.300" stroke="#4a5160" stroke-width="0.080" stroke-linecap="round" opacity="0.7"/><line x1="4.600" y1="-1.800" x2="4.750" y2="-1.050" stroke="#4a5160" stroke-width="0.080" stroke-linecap="round" opacity="0.7"/><line x1="4.600" y1="-1.800" x2="4.900" y2="-1.800" stroke="#4a5160" stroke-width="0.080" stroke-linecap="round" opacity="0.7"/><line x1="4.600" y1="-0.300" x2="4.600" y2="-1.800" stroke="#4a5160" stroke-width="0.080" stroke-linecap="round" opacity="0.7"/><line x1="4.600" y1="-0.300" x2="4.900" y2="-0.300" stroke="#4a5160" stroke-width="0.080" stroke-linecap="round" opacity="0.7"/><line x1="4.600" y1="0.300" x2="4.900" y2="0.300" stroke="#4a5160" stroke-width="0.080" stroke-linecap="round" opacity="0.7"/><line x1="4.600" y1="1.800" x2="4.600" y2="0.300" stroke="#4a5160" stroke-width="0.080" stroke-linecap="round" opacity="0.7"/><line x1="4.600" y1="1.800" x2="4.750" y2="1.050" stroke="#4a5160" stroke-width="0.080" stroke-linecap="round" opacity="0.7"/><line x1="4.600" y1="1.800" x2="4.900" y2="1.800" stroke="#4a5160" stroke-width="0.080" stroke-linecap="round" opacity="0.7"/><line x1="4.750" y1="-1.050" x2="4.900" y2="-1.800" stroke="#4a5160" stroke-width="0.080" stroke-linecap="round" opacity="0.7"/><line x1="4.750" y1="1.050" x2="4.900" y2="1.800" stroke="#4a5160" stroke-width="0.080" stroke-linecap="round" opacity="0.7"/><line x1="4.900" y1="-0.300" x2="4.900" y2="-1.800" stroke="#4a5160" stroke-width="0.080" stroke-linecap="round" opacity="0.7"/><line x1="4.900" y1="1.800" x2="4.900" y2="0.300" stroke="#4a5160" stroke-width="0.080" stroke-linecap="round" opacity="0.7"/><line x1="5.100" y1="0.300" x2="5.400" y2="0.300" stroke="#4a5160" stroke-width="0.080" stroke-linecap="round" opacity="0.7"/><line x1="5.100" y1="1.800" x2="5.100" y2="0.300" stroke="#4a5160" stroke-width="0.080" stroke-linecap="round" opacity="0.7"/><line x1="5.100" y1="1.800" x2="5.250" y2="1.050" stroke="#4a5160" stroke-width="0.080" stroke-linecap="round" opacity="0.7"/><line x1="5.100" y1="1.800" x2="5.400" y2="1.800" stroke="#4a5160" stroke-width="0.080" stroke-linecap="round" opacity="0.7"/><line x1="5.250" y1="1.050" x2="5.400" y2="1.800" stroke="#4a5160" stroke-width="0.080" stroke-linecap="round" opacity="0.7"/><line x1="5.400" y1="1.800" x2="5.400" y2="0.300" stroke="#4a5160" stroke-width="0.080" stroke-linecap="round" opacity="0.7"/><line x1="6.010" y1="0.140" x2="6.010" y2="-0.520" stroke="#4a5160" stroke-width="0.080" stroke-linecap="round" opacity="0.7"/><line x1="6.080" y1="1.310" x2="6.280" y2="1.310" stroke="#4a5160" stroke-width="0.080" stroke-linecap="round" opacity="0.7"/><line x1="6.260" y1="0.140" x2="6.260" y2="-0.520" stroke="#4a5160" stroke-width="0.080" stroke-linecap="round" opacity="0.7"/><line x1="6.280" y1="1.310" x2="6.280" y2="1.110" stroke="#4a5160" stroke-width="0.080" stroke-linecap="round" opacity="0.7"/><line x1="6.280" y1="1.310" x2="6.480" y2="1.310" stroke="#4a5160" stroke-width="0.080" stroke-linecap="round" opacity="0.7"/><line x1="6.280" y1="1.510" x2="6.280" y2="1.310" stroke="#4a5160" stroke-width="0.080" stroke-linecap="round" opacity="0.7"/><line x1="6.380" y1="-0.190" x2="6.580" y2="-0.190" stroke="#4a5160" stroke-width="0.080" stroke-linecap="round" opacity="0.7"/><line x1="6.580" y1="-0.190" x2="6.580" y2="-0.390" stroke="#4a5160" stroke-width="0.080" stroke-linecap="round" opacity="0.7"/><line x1="6.580" y1="-0.190" x2="6.780" y2="-0.190" stroke="#4a5160" stroke-width="0.080" stroke-linecap="round" opacity="0.7"/><line x1="6.580" y1="0.010" x2="6.580" y2="-0.190" stroke="#4a5160" stroke-width="0.080" stroke-linecap="round" opacity="0.7"/><line x1="6.900" y1="0.140" x2="6.900" y2="-0.520" stroke="#4a5160" stroke-width="0.080" stroke-linecap="round" opacity="0.7"/><line x1="7.150" y1="0.140" x2="7.150" y2="-0.520" stroke="#4a5160" stroke-width="0.080" stroke-linecap="round" opacity="0.7"/><line x1="-7.650" y1="-2.410" x2="7.650" y2="-2.410" stroke="#d24d4d" stroke-width="0.080" stroke-linecap="round" opacity="0.7"/><line x1="-7.650" y1="2.410" x2="-7.650" y2="-2.410" stroke="#d24d4d" stroke-width="0.080" stroke-linecap="round" opacity="0.7"/><line x1="-7.650" y1="2.410" x2="7.650" y2="2.410" stroke="#d24d4d" stroke-width="0.080" stroke-linecap="round" opacity="0.7"/><line x1="7.650" y1="2.410" x2="7.650" y2="-2.410" stroke="#d24d4d" stroke-width="0.080" stroke-linecap="round" opacity="0.7"/><line x1="-7.400" y1="-2.160" x2="-5.600" y2="-2.160" stroke="#6b7280" stroke-width="0.100" stroke-linecap="round" opacity="0.8"/><line x1="-7.400" y1="-0.800" x2="-7.400" y2="-2.160" stroke="#6b7280" stroke-width="0.100" stroke-linecap="round" opacity="0.8"/><line x1="-7.400" y1="-0.800" x2="-6.725" y2="-0.800" stroke="#6b7280" stroke-width="0.100" stroke-linecap="round" opacity="0.8"/><line x1="-7.400" y1="0.200" x2="-6.725" y2="0.200" stroke="#6b7280" stroke-width="0.100" stroke-linecap="round" opacity="0.8"/><line x1="-7.400" y1="1.160" x2="-7.400" y2="0.200" stroke="#6b7280" stroke-width="0.100" stroke-linecap="round" opacity="0.8"/><line x1="-7.400" y1="1.160" x2="-6.400" y2="2.160" stroke="#6b7280" stroke-width="0.100" stroke-linecap="round" opacity="0.8"/><line x1="-7.017" y1="-0.750" x2="-6.725" y2="-0.750" stroke="#6b7280" stroke-width="0.100" stroke-linecap="round" opacity="0.8"/><line x1="-7.017" y1="-0.150" x2="-7.017" y2="-0.750" stroke="#6b7280" stroke-width="0.100" stroke-linecap="round" opacity="0.8"/><line x1="-7.017" y1="-0.150" x2="-6.725" y2="-0.150" stroke="#6b7280" stroke-width="0.100" stroke-linecap="round" opacity="0.8"/><line x1="-6.725" y1="0.220" x2="-6.725" y2="-1.115" stroke="#6b7280" stroke-width="0.100" stroke-linecap="round" opacity="0.8"/><line x1="-6.549" y1="0.644" x2="-5.654" y2="1.539" stroke="#6b7280" stroke-width="0.100" stroke-linecap="round" opacity="0.8"/><line x1="-6.425" y1="0.220" x2="-6.425" y2="-1.115" stroke="#6b7280" stroke-width="0.100" stroke-linecap="round" opacity="0.8"/><line x1="-6.400" y1="2.160" x2="-5.100" y2="2.160" stroke="#6b7280" stroke-width="0.100" stroke-linecap="round" opacity="0.8"/><line x1="-6.337" y1="0.432" x2="-5.442" y2="1.327" stroke="#6b7280" stroke-width="0.100" stroke-linecap="round" opacity="0.8"/><line x1="-6.125" y1="-1.715" x2="6.125" y2="-1.715" stroke="#6b7280" stroke-width="0.100" stroke-linecap="round" opacity="0.8"/><line x1="-6.125" y1="-1.415" x2="6.125" y2="-1.415" stroke="#6b7280" stroke-width="0.100" stroke-linecap="round" opacity="0.8"/><line x1="-5.600" y1="-1.715" x2="-5.600" y2="-2.160" stroke="#6b7280" stroke-width="0.100" stroke-linecap="round" opacity="0.8"/><line x1="-5.600" y1="-0.500" x2="5.600" y2="-0.500" stroke="#6b7280" stroke-width="0.100" stroke-linecap="round" opacity="0.8"/><line x1="-5.600" y1="0.000" x2="-5.600" y2="-0.500" stroke="#6b7280" stroke-width="0.100" stroke-linecap="round" opacity="0.8"/><line x1="-5.600" y1="0.000" x2="-5.120" y2="0.000" stroke="#6b7280" stroke-width="0.100" stroke-linecap="round" opacity="0.8"/><line x1="-5.230" y1="1.415" x2="6.125" y2="1.415" stroke="#6b7280" stroke-width="0.100" stroke-linecap="round" opacity="0.8"/><line x1="-5.230" y1="1.715" x2="6.125" y2="1.715" stroke="#6b7280" stroke-width="0.100" stroke-linecap="round" opacity="0.8"/><line x1="-5.120" y1="0.500" x2="-5.120" y2="0.000" stroke="#6b7280" stroke-width="0.100" stroke-linecap="round" opacity="0.8"/><line x1="-5.120" y1="0.500" x2="5.600" y2="0.500" stroke="#6b7280" stroke-width="0.100" stroke-linecap="round" opacity="0.8"/><line x1="-5.100" y1="2.160" x2="-5.100" y2="1.715" stroke="#6b7280" stroke-width="0.100" stroke-linecap="round" opacity="0.8"/><line x1="5.100" y1="-2.160" x2="7.400" y2="-2.160" stroke="#6b7280" stroke-width="0.100" stroke-linecap="round" opacity="0.8"/><line x1="5.100" y1="-1.715" x2="5.100" y2="-2.160" stroke="#6b7280" stroke-width="0.100" stroke-linecap="round" opacity="0.8"/><line x1="5.600" y1="0.500" x2="5.600" y2="-0.500" stroke="#6b7280" stroke-width="0.100" stroke-linecap="round" opacity="0.8"/><line x1="5.600" y1="2.160" x2="5.600" y2="1.715" stroke="#6b7280" stroke-width="0.100" stroke-linecap="round" opacity="0.8"/><line x1="5.600" y1="2.160" x2="7.400" y2="2.160" stroke="#6b7280" stroke-width="0.100" stroke-linecap="round" opacity="0.8"/><line x1="6.425" y1="1.115" x2="6.425" y2="-1.115" stroke="#6b7280" stroke-width="0.100" stroke-linecap="round" opacity="0.8"/><line x1="6.725" y1="-0.700" x2="7.400" y2="-0.700" stroke="#6b7280" stroke-width="0.100" stroke-linecap="round" opacity="0.8"/><line x1="6.725" y1="-0.550" x2="7.016" y2="-0.550" stroke="#6b7280" stroke-width="0.100" stroke-linecap="round" opacity="0.8"/><line x1="6.725" y1="0.550" x2="7.016" y2="0.550" stroke="#6b7280" stroke-width="0.100" stroke-linecap="round" opacity="0.8"/><line x1="6.725" y1="1.115" x2="6.725" y2="-1.115" stroke="#6b7280" stroke-width="0.100" stroke-linecap="round" opacity="0.8"/><line x1="7.016" y1="0.300" x2="7.400" y2="0.300" stroke="#6b7280" stroke-width="0.100" stroke-linecap="round" opacity="0.8"/><line x1="7.016" y1="0.550" x2="7.016" y2="-0.550" stroke="#6b7280" stroke-width="0.100" stroke-linecap="round" opacity="0.8"/><line x1="7.400" y1="-0.700" x2="7.400" y2="-2.160" stroke="#6b7280" stroke-width="0.100" stroke-linecap="round" opacity="0.8"/><line x1="7.400" y1="2.160" x2="7.400" y2="0.300" stroke="#6b7280" stroke-width="0.100" stroke-linecap="round" opacity="0.8"/><path d="M -7.150 -0.640 A 0.570 0.570 0 1 1 -6.010 -0.640" fill="none" stroke="#4a5160" stroke-width="0.12" opacity="0.7"/><path d="M -6.900 -0.640 A 0.320 0.320 0 0 1 -6.260 -0.640" fill="none" stroke="#4a5160" stroke-width="0.12" opacity="0.7"/><path d="M -6.260 0.020 A 0.320 0.320 0 1 1 -6.900 0.020" fill="none" stroke="#4a5160" stroke-width="0.12" opacity="0.7"/><path d="M -6.010 0.020 A 0.570 0.570 0 0 1 -7.150 0.020" fill="none" stroke="#4a5160" stroke-width="0.12" opacity="0.7"/><path d="M 6.010 -0.520 A 0.570 0.570 0 0 1 7.150 -0.520" fill="none" stroke="#4a5160" stroke-width="0.12" opacity="0.7"/><path d="M 6.260 -0.520 A 0.320 0.320 0 0 1 6.900 -0.520" fill="none" stroke="#4a5160" stroke-width="0.12" opacity="0.7"/><path d="M 6.900 0.140 A 0.320 0.320 0 1 1 6.260 0.140" fill="none" stroke="#4a5160" stroke-width="0.12" opacity="0.7"/><path d="M 7.150 0.140 A 0.570 0.570 0 1 1 6.010 0.140" fill="none" stroke="#4a5160" stroke-width="0.12" opacity="0.7"/><path d="M -6.725 -1.115 A 0.600 0.600 0 0 1 -6.125 -1.715" fill="none" stroke="#6b7280" stroke-width="0.12" opacity="0.8"/><path d="M -6.549 0.644 A 0.600 0.600 0 0 1 -6.725 0.220" fill="none" stroke="#6b7280" stroke-width="0.12" opacity="0.8"/><path d="M -6.425 -1.115 A 0.300 0.300 0 0 1 -6.125 -1.415" fill="none" stroke="#6b7280" stroke-width="0.12" opacity="0.8"/><path d="M -6.337 0.432 A 0.300 0.300 0 0 1 -6.425 0.220" fill="none" stroke="#6b7280" stroke-width="0.12" opacity="0.8"/><path d="M -5.230 1.415 A 0.300 0.300 0 0 1 -5.442 1.327" fill="none" stroke="#6b7280" stroke-width="0.12" opacity="0.8"/><path d="M -5.230 1.715 A 0.600 0.600 0 0 1 -5.654 1.539" fill="none" stroke="#6b7280" stroke-width="0.12" opacity="0.8"/><path d="M 6.125 -1.715 A 0.600 0.600 0 0 1 6.725 -1.115" fill="none" stroke="#6b7280" stroke-width="0.12" opacity="0.8"/><path d="M 6.125 -1.415 A 0.300 0.300 0 0 1 6.425 -1.115" fill="none" stroke="#6b7280" stroke-width="0.12" opacity="0.8"/><path d="M 6.425 1.115 A 0.300 0.300 0 0 1 6.125 1.415" fill="none" stroke="#6b7280" stroke-width="0.12" opacity="0.8"/><path d="M 6.725 1.115 A 0.600 0.600 0 0 1 6.125 1.715" fill="none" stroke="#6b7280" stroke-width="0.12" opacity="0.8"/><circle cx="-4.750" cy="2.550" r="0.100" fill="none" stroke="#e6e9ef" stroke-width="0.12" opacity="1"/><circle cx="-5.620" cy="0.950" r="0.500" fill="none" stroke="#4a5160" stroke-width="0.12" opacity="0.7"/><circle cx="6.280" cy="1.310" r="0.500" fill="none" stroke="#4a5160" stroke-width="0.12" opacity="0.7"/><circle cx="-5.620" cy="0.950" r="0.250" fill="none" stroke="#6b7280" stroke-width="0.1"/><circle cx="6.280" cy="1.310" r="0.250" fill="none" stroke="#6b7280" stroke-width="0.1"/><rect x="-4.900" y="0.300" width="0.300" height="1.500" rx="0.000" fill="#c79b5c"/><rect x="-4.400" y="0.300" width="0.300" height="1.500" rx="0.000" fill="#c79b5c"/><rect x="-3.900" y="0.300" width="0.300" height="1.500" rx="0.000" fill="#c79b5c"/><rect x="-3.400" y="0.300" width="0.300" height="1.500" rx="0.000" fill="#c79b5c"/><rect x="-2.900" y="0.300" width="0.300" height="1.500" rx="0.000" fill="#c79b5c"/><rect x="-2.400" y="0.300" width="0.300" height="1.500" rx="0.000" fill="#c79b5c"/><rect x="-1.900" y="0.300" width="0.300" height="1.500" rx="0.000" fill="#c79b5c"/><rect x="-1.400" y="0.300" width="0.300" height="1.500" rx="0.000" fill="#c79b5c"/><rect x="-0.900" y="0.300" width="0.300" height="1.500" rx="0.000" fill="#c79b5c"/><rect x="-0.400" y="0.300" width="0.300" height="1.500" rx="0.000" fill="#c79b5c"/><rect x="0.100" y="0.300" width="0.300" height="1.500" rx="0.000" fill="#c79b5c"/><rect x="0.600" y="0.300" width="0.300" height="1.500" rx="0.000" fill="#c79b5c"/><rect x="1.100" y="0.300" width="0.300" height="1.500" rx="0.000" fill="#c79b5c"/><rect x="1.600" y="0.300" width="0.300" height="1.500" rx="0.000" fill="#c79b5c"/><rect x="2.100" y="0.300" width="0.300" height="1.500" rx="0.000" fill="#c79b5c"/><rect x="2.600" y="0.300" width="0.300" height="1.500" rx="0.000" fill="#c79b5c"/><rect x="3.100" y="0.300" width="0.300" height="1.500" rx="0.000" fill="#c79b5c"/><rect x="3.600" y="0.300" width="0.300" height="1.500" rx="0.000" fill="#c79b5c"/><rect x="4.100" y="0.300" width="0.300" height="1.500" rx="0.000" fill="#c79b5c"/><rect x="4.600" y="0.300" width="0.300" height="1.500" rx="0.000" fill="#c79b5c"/><rect x="5.100" y="0.300" width="0.300" height="1.500" rx="0.000" fill="#c79b5c"/><rect x="-5.400" y="-1.800" width="0.300" height="1.500" rx="0.000" fill="#c79b5c"/><rect x="-4.900" y="-1.800" width="0.300" height="1.500" rx="0.000" fill="#c79b5c"/><rect x="-4.400" y="-1.800" width="0.300" height="1.500" rx="0.000" fill="#c79b5c"/><rect x="-3.900" y="-1.800" width="0.300" height="1.500" rx="0.000" fill="#c79b5c"/><rect x="-3.400" y="-1.800" width="0.300" height="1.500" rx="0.000" fill="#c79b5c"/><rect x="-2.900" y="-1.800" width="0.300" height="1.500" rx="0.000" fill="#c79b5c"/><rect x="-2.400" y="-1.800" width="0.300" height="1.500" rx="0.000" fill="#c79b5c"/><rect x="-1.900" y="-1.800" width="0.300" height="1.500" rx="0.000" fill="#c79b5c"/><rect x="-1.400" y="-1.800" width="0.300" height="1.500" rx="0.000" fill="#c79b5c"/><rect x="-0.900" y="-1.800" width="0.300" height="1.500" rx="0.000" fill="#c79b5c"/><rect x="-0.400" y="-1.800" width="0.300" height="1.500" rx="0.000" fill="#c79b5c"/><rect x="0.100" y="-1.800" width="0.300" height="1.500" rx="0.000" fill="#c79b5c"/><rect x="0.600" y="-1.800" width="0.300" height="1.500" rx="0.000" fill="#c79b5c"/><rect x="1.100" y="-1.800" width="0.300" height="1.500" rx="0.000" fill="#c79b5c"/><rect x="1.600" y="-1.800" width="0.300" height="1.500" rx="0.000" fill="#c79b5c"/><rect x="2.100" y="-1.800" width="0.300" height="1.500" rx="0.000" fill="#c79b5c"/><rect x="2.600" y="-1.800" width="0.300" height="1.500" rx="0.000" fill="#c79b5c"/><rect x="3.100" y="-1.800" width="0.300" height="1.500" rx="0.000" fill="#c79b5c"/><rect x="3.600" y="-1.800" width="0.300" height="1.500" rx="0.000" fill="#c79b5c"/><rect x="4.100" y="-1.800" width="0.300" height="1.500" rx="0.000" fill="#c79b5c"/><rect x="4.600" y="-1.800" width="0.300" height="1.500" rx="0.000" fill="#c79b5c"/><rect x="-7.480" y="-0.880" width="1.800" height="1.140" rx="0.570" fill="#c79b5c"/><rect x="-7.230" y="-0.630" width="1.300" height="0.640" rx="0.320" fill="#12151c"/><rect x="5.680" y="-0.760" width="1.800" height="1.140" rx="0.570" fill="#c79b5c"/><rect x="5.930" y="-0.510" width="1.300" height="0.640" rx="0.320" fill="#12151c"/></svg>