<svg xmlns="http://www.w3.org/2000/svg" viewBox="-26.46 -3.54 52.92 7.08" preserveAspectRatio="xMidYMid meet" style="width:100%;height:100%"><rect x="-26.46" y="-3.54" width="52.92" height="7.08" fill="#12151c"/><line x1="-25.460" y1="1.330" x2="-25.460" y2="-1.330" stroke="#e6e9ef" stroke-width="0.120" stroke-linecap="round" opacity="1"/><line x1="-24.890" y1="1.330" x2="-25.460" y2="1.330" stroke="#e6e9ef" stroke-width="0.120" stroke-linecap="round" opacity="1"/><line x1="-22.350" y1="-1.330" x2="-25.460" y2="-1.330" stroke="#e6e9ef" stroke-width="0.120" stroke-linecap="round" opacity="1"/><line x1="-19.810" y1="1.330" x2="-23.370" y2="1.330" stroke="#e6e9ef" stroke-width="0.120" stroke-linecap="round" opacity="1"/><line x1="-17.270" y1="-1.330" x2="-20.830" y2="-1.330" stroke="#e6e9ef" stroke-width="0.120" stroke-linecap="round" opacity="1"/><line x1="-14.730" y1="1.330" x2="-18.290" y2="1.330" stroke="#e6e9ef" stroke-width="0.120" stroke-linecap="round" opacity="1"/><line x1="-12.190" y1="-1.330" x2="-15.750" y2="-1.330" stroke="#e6e9ef" stroke-width="0.120" stroke-linecap="round" opacity="1"/><line x1="-9.650" y1="1.330" x2="-13.210" y2="1.330" stroke="#e6e9ef" stroke-width="0.120" stroke-linecap="round" opacity="1"/><line x1="-7.110" y1="-1.330" x2="-10.670" y2="-1.330" stroke="#e6e9ef" stroke-width="0.120" stroke-linecap="round" opacity="1"/><line x1="-4.570" y1="1.330" x2="-8.130" y2="1.330" stroke="#e6e9ef" stroke-width="0.120" stroke-linecap="round" opacity="1"/><line x1="-2.030" y1="-1.330" x2="-5.590" y2="-1.330" stroke="#e6e9ef" stroke-width="0.120" stroke-linecap="round" opacity="1"/><line x1="0.510" y1="1.330" x2="-3.050" y2="1.330" stroke="#e6e9ef" stroke-width="0.120" stroke-linecap="round" opacity="1"/><line x1="3.050" y1="-1.330" x2="-0.510" y2="-1.330" stroke="#e6e9ef" stroke-width="0.120" stroke-linecap="round" opacity="1"/><line x1="5.590" y1="1.330" x2="2.030" y2="1.330" stroke="#e6e9ef" stroke-width="0.120" stroke-linecap="round" opacity="1"/><line x1="8.130" y1="-1.330" x2="4.570" y2="-1.330" stroke="#e6e9ef" stroke-width="0.120" stroke-linecap="round" opacity="1"/><line x1="10.670" y1="1.330" x2="7.110" y2="1.330" stroke="#e6e9ef" stroke-width="0.120" stroke-linecap="round" opacity="1"/><line x1="13.210" y1="-1.330" x2="9.650" y2="-1.330" stroke="#e6e9ef" stroke-width="0.120" stroke-linecap="round" opacity="1"/><line x1="15.750" y1="1.330" x2="12.190" y2="1.330" stroke="#e6e9ef" stroke-width="0.120" stroke-linecap="round" opacity="1"/><line x1="18.290" y1="-1.330" x2="14.730" y2="-1.330" stroke="#e6e9ef" stroke-width="0.120" stroke-linecap="round" opacity="1"/><line x1="20.830" y1="1.330" x2="17.270" y2="1.330" stroke="#e6e9ef" stroke-width="0.120" stroke-linecap="round" opacity="1"/><line x1="23.370" y1="-1.330" x2="19.810" y2="-1.330" stroke="#e6e9ef" stroke-width="0.120" stroke-linecap="round" opacity="1"/><line x1="24.890" y1="-1.330" x2="24.890" y2="-2.540" stroke="#e6e9ef" stroke-width="0.120" stroke-linecap="round" opacity="1"/><line x1="25.460" y1="-1.330" x2="24.890" y2="-1.330" stroke="#e6e9ef" stroke-width="0.120" stroke-linecap="round" opacity="1"/><line x1="25.460" y1="1.330" x2="22.350" y2="1.330" stroke="#e6e9ef" stroke-width="0.120" stroke-linecap="round" opacity="1"/><line x1="25.460" y1="1.330" x2="25.460" y2="-1.330" stroke="#e6e9ef" stroke-width="0.120" stroke-linecap="round" opacity="1"/><line x1="-25.400" y1="-1.270" x2="-25.400" y2="1.270" stroke="#6b7280" stroke-width="0.100" stroke-linecap="round" opacity="0.8"/><line x1="-25.400" y1="-1.270" x2="24.450" y2="-1.270" stroke="#6b7280" stroke-width="0.100" stroke-linecap="round" opacity="0.8"/><line x1="-24.450" y1="2.540" x2="-24.450" y2="1.270" stroke="#6b7280" stroke-width="0.100" stroke-linecap="round" opacity="0.8"/><line x1="-23.810" y1="1.270" x2="-23.810" y2="2.540" stroke="#6b7280" stroke-width="0.100" stroke-linecap="round" opacity="0.8"/><line x1="-23.810" y1="2.540" x2="-24.450" y2="2.540" stroke="#6b7280" stroke-width="0.100" stroke-linecap="round" opacity="0.8"/><line x1="-21.910" y1="-2.540" x2="-21.910" y2="-1.270" stroke="#6b7280" stroke-width="0.100" stroke-linecap="round" opacity="0.8"/><line x1="-21.270" y1="-2.540" x2="-21.910" y2="-2.540" stroke="#6b7280" stroke-width="0.100" stroke-linecap="round" opacity="0.8"/><line x1="-21.270" y1="-1.270" x2="-21.270" y2="-2.540" stroke="#6b7280" stroke-width="0.100" stroke-linecap="round" opacity="0.8"/><line x1="-19.370" y1="2.540" x2="-19.370" y2="1.270" stroke="#6b7280" stroke-width="0.100" stroke-linecap="round" opacity="0.8"/><line x1="-18.730" y1="1.270" x2="-18.730" y2="2.540" stroke="#6b7280" stroke-width="0.100" stroke-linecap="round" opacity="0.8"/><line x1="-18.730" y1="2.540" x2="-19.370" y2="2.540" stroke="#6b7280" stroke-width="0.100" stroke-linecap="round" opacity="0.8"/><line x1="-16.830" y1="-2.540" x2="-16.830" y2="-1.270" stroke="#6b7280" stroke-width="0.100" stroke-linecap="round" opacity="0.8"/><line x1="-16.190" y1="-2.540" x2="-16.830" y2="-2.540" stroke="#6b7280" stroke-width="0.100" stroke-linecap="round" opacity="0.8"/><line x1="-16.190" y1="-1.270" x2="-16.190" y2="-2.540" stroke="#6b7280" stroke-width="0.100" stroke-linecap="round" opacity="0.8"/><line x1="-14.290" y1="2.540" x2="-14.290" y2="1.270" stroke="#6b7280" stroke-width="0.100" stroke-linecap="round" opacity="0.8"/><line x1="-13.650" y1="1.270" x2="-13.650" y2="2.540" stroke="#6b7280" stroke-width="0.100" stroke-linecap="round" opacity="0.8"/><line x1="-13.650" y1="2.540" x2="-14.290" y2="2.540" stroke="#6b7280" stroke-width="0.100" stroke-linecap="round" opacity="0.8"/><line x1="-11.750" y1="-2.540" x2="-11.750" y2="-1.270" stroke="#6b7280" stroke-width="0.100" stroke-linecap="round" opacity="0.8"/><line x1="-11.110" y1="-2.540" x2="-11.750" y2="-2.540" stroke="#6b7280" stroke-width="0.100" stroke-linecap="round" opacity="0.8"/><line x1="-11.110" y1="-1.270" x2="-11.110" y2="-2.540" stroke="#6b7280" stroke-width="0.100" stroke-linecap="round" opacity="0.8"/><line x1="-9.210" y1="2.540" x2="-9.210" y2="1.270" stroke="#6b7280" stroke-width="0.100" stroke-linecap="round" opacity="0.8"/><line x1="-8.570" y1="1.270" x2="-8.570" y2="2.540" stroke="#6b7280" stroke-width="0.100" stroke-linecap="round" opacity="0.8"/><line x1="-8.570" y1="2.540" x2="-9.210" y2="2.540" stroke="#6b7280" stroke-width="0.100" stroke-linecap="round" opacity="0.8"/><line x1="-6.670" y1="-2.540" x2="-6.670" y2="-1.270" stroke="#6b7280" stroke-width="0.100" stroke-linecap="round" opacity="0.8"/><line x1="-6.030" y1="-2.540" x2="-6.670" y2="-2.540" stroke="#6b7280" stroke-width="0.100" stroke-linecap="round" opacity="0.8"/><line x1="-6.030" y1="-1.270" x2="-6.030" y2="-2.540" stroke="#6b7280" stroke-width="0.100" stroke-linecap="round" opacity="0.8"/><line x1="-4.130" y1="2.540" x2="-4.130" y2="1.270" stroke="#6b7280" stroke-width="0.100" stroke-linecap="round" opacity="0.8"/><line x1="-3.490" y1="1.270" x2="-3.490" y2="2.540" stroke="#6b7280" stroke-width="0.100" stroke-linecap="round" opacity="0.8"/><line x1="-3.490" y1="2.540" x2="-4.130" y2="2.540" stroke="#6b7280" stroke-width="0.100" stroke-linecap="round" opacity="0.8"/><line x1="-1.590" y1="-2.540" x2="-1.590" y2="-1.270" stroke="#6b7280" stroke-width="0.100" stroke-linecap="round" opacity="0.8"/><line x1="-0.950" y1="-2.540" x2="-1.590" y2="-2.540" stroke="#6b7280" stroke-width="0.100" stroke-linecap="round" opacity="0.8"/><line x1="-0.950" y1="-1.270" x2="-0.950" y2="-2.540" stroke="#6b7280" stroke-width="0.100" stroke-linecap="round" opacity="0.8"/><line x1="0.950" y1="2.540" x2="0.950" y2="1.270" stroke="#6b7280" stroke-width="0.100" stroke-linecap="round" opacity="0.8"/><line x1="1.590" y1="1.270" x2="1.590" y2="2.540" stroke="#6b7280" stroke-width="0.100" stroke-linecap="round" opacity="0.8"/><line x1="1.590" y1="2.540" x2="0.950" y2="2.540" stroke="#6b7280" stroke-width="0.100" stroke-linecap="round" opacity="0.8"/><line x1="3.490" y1="-2.540" x2="3.490" y2="-1.270" stroke="#6b7280" stroke-width="0.100" stroke-linecap="round" opacity="0.8"/><line x1="4.130" y1="-2.540" x2="3.490" y2="-2.540" stroke="#6b7280" stroke-width="0.100" stroke-linecap="round" opacity="0.8"/><line x1="4.130" y1="-1.270" x2="4.130" y2="-2.540" stroke="#6b7280" stroke-width="0.100" stroke-linecap="round" opacity="0.8"/><line x1="6.030" y1="2.540" x2="6.030" y2="1.270" stroke="#6b7280" stroke-width="0.100" stroke-linecap="round" opacity="0.8"/><line x1="6.670" y1="1.270" x2="6.670" y2="2.540" stroke="#6b7280" stroke-width="0.100" stroke-linecap="round" opacity="0.8"/><line x1="6.670" y1="2.540" x2="6.030" y2="2.540" stroke="#6b7280" stroke-width="0.100" stroke-linecap="round" opacity="0.8"/><line x1="8.570" y1="-2.540" x2="8.570" y2="-1.270" stroke="#6b7280" stroke-width="0.100" stroke-linecap="round" opacity="0.8"/><line x1="9.210" y1="-2.540" x2="8.570" y2="-2.540" stroke="#6b7280" stroke-width="0.100" stroke-linecap="round" opacity="0.8"/><line x1="9.210" y1="-1.270" x2="9.210" y2="-2.540" stroke="#6b7280" stroke-width="0.100" stroke-linecap="round" opacity="0.8"/><line x1="11.110" y1="2.540" x2="11.110" y2="1.270" stroke="#6b7280" stroke-width="0.100" stroke-linecap="round" opacity="0.8"/><line x1="11.750" y1="1.270" x2="11.750" y2="2.540" stroke="#6b7280" stroke-width="0.100" stroke-linecap="round" opacity="0.8"/><line x1="11.750" y1="2.540" x2="11.110" y2="2.540" stroke="#6b7280" stroke-width="0.100" stroke-linecap="round" opacity="0.8"/><line x1="13.650" y1="-2.540" x2="13.650" y2="-1.270" stroke="#6b7280" stroke-width="0.100" stroke-linecap="round" opacity="0.8"/><line x1="14.290" y1="-2.540" x2="13.650" y2="-2.540" stroke="#6b7280" stroke-width="0.100" stroke-linecap="round" opacity="0.8"/><line x1="14.290" y1="-1.270" x2="14.290" y2="-2.540" stroke="#6b7280" stroke-width="0.100" stroke-linecap="round" opacity="0.8"/><line x1="16.190" y1="2.540" x2="16.190" y2="1.270" stroke="#6b7280" stroke-width="0.100" stroke-linecap="round" opacity="0.8"/><line x1="16.830" y1="1.270" x2="16.830" y2="2.540" stroke="#6b7280" stroke-width="0.100" stroke-linecap="round" opacity="0.8"/><line x1="16.830" y1="2.540" x2="16.190" y2="2.540" stroke="#6b7280" stroke-width="0.100" stroke-linecap="round" opacity="0.8"/><line x1="18.730" y1="-2.540" x2="18.730" y2="-1.270" stroke="#6b7280" stroke-width="0.100" stroke-linecap="round" opacity="0.8"/><line x1="19.370" y1="-2.540" x2="18.730" y2="-2.540" stroke="#6b7280" stroke-width="0.100" stroke-linecap="round" opacity="0.8"/><line x1="19.370" y1="-1.270" x2="19.370" y2="-2.540" stroke="#6b7280" stroke-width="0.100" stroke-linecap="round" opacity="0.8"/><line x1="21.270" y1="2.540" x2="21.270" y2="1.270" stroke="#6b7280" stroke-width="0.100" stroke-linecap="round" opacity="0.8"/><line x1="21.910" y1="1.270" x2="21.910" y2="2.540" stroke="#6b7280" stroke-width="0.100" stroke-linecap="round" opacity="0.8"/><line x1="21.910" y1="2.540" x2="21.270" y2="2.540" stroke="#6b7280" stroke-width="0.100" stroke-linecap="round" opacity="0.8"/><line x1="23.810" y1="-2.540" x2="23.810" y2="-1.270" stroke="#6b7280" stroke-width="0.100" stroke-linecap="round" opacity="0.8"/><line x1="24.450" y1="-2.540" x2="23.810" y2="-2.540" stroke="#6b7280" stroke-width="0.100" stroke-linecap="round" opacity="0.8"/><line x1="24.450" y1="-1.270" x2="24.450" y2="-2.540" stroke="#6b7280" stroke-width="0.100" stroke-linecap="round" opacity="0.8"/><line x1="24.450" y1="-1.270" x2="25.400" y2="-0.320" stroke="#6b7280" stroke-width="0.100" stroke-linecap="round" opacity="0.8"/><line x1="25.400" y1="1.270" x2="-25.400" y2="1.270" stroke="#6b7280" stroke-width="0.100" stroke-linecap="round" opacity="0.8"/><line x1="25.400" y1="1.270" x2="25.400" y2="-0.320" stroke="#6b7280" stroke-width="0.100" stroke-linecap="round" opacity="0.8"/><rect x="23.180" y="-2.285" width="1.900" height="1.270" rx="0.000" fill="#c79b5c"/><rect x="20.640" y="1.015" width="1.900" height="1.270" rx="0.000" fill="#c79b5c"/><rect x="18.100" y="-2.285" width="1.900" height="1.270" rx="0.000" fill="#c79b5c"/><rect x="15.560" y="1.015" width="1.900" height="1.270" rx="0.000" fill="#c79b5c"/><rect x="13.020" y="-2.285" width="1.900" height="1.270" rx="0.000" fill="#c79b5c"/><rect x="10.480" y="1.015" width="1.900" height="1.270" rx="0.000" fill="#c79b5c"/><rect x="7.940" y="-2.285" width="1.900" height="1.270" rx="0.000" fill="#c79b5c"/><rect x="5.400" y="1.015" width="1.900" height="1.270" rx="0.000" fill="#c79b5c"/><rect x="2.860" y="-2.285" width="1.900" height="1.270" rx="0.000" fill="#c79b5c"/><rect x="0.320" y="1.015" width="1.900" height="1.270" rx="0.000" fill="#c79b5c"/><rect x="-2.220" y="-2.285" width="1.900" height="1.270" rx="0.000" fill="#c79b5c"/><rect x="-4.760" y="1.015" width="1.900" height="1.270" rx="0.000" fill="#c79b5c"/><rect x="-7.300" y="-2.285" width="1.900" height="1.270" rx="0.000" fill="#c79b5c"/><rect x="-9.840" y="1.015" width="1.900" height="1.270" rx="0.000" fill="#c79b5c"/><rect x="-12.380" y="-2.285" width="1.900" height="1.270" rx="0.000" fill="#c79b5c"/><rect x="-14.920" y="1.015" width="1.900" height="1.270" rx="0.000" fill="#c79b5c"/><rect x="-17.460" y="-2.285" width="1.900" height="1.270" rx="0.000" fill="#c79b5c"/><rect x="-20.000" y="1.015" width="1.900" height="1.270" rx="0.000" fill="#c79b5c"/><rect x="-22.540" y="-2.285" width="1.900" height="1.270" rx="0.000" fill="#c79b5c"/><rect x="-25.080" y="1.015" width="1.900" height="1.270" rx="0.000" fill="#c79b5c"/></svg>