<svg xmlns="http://www.w3.org/2000/svg" viewBox="-25.75 -25.75 51.50 51.50" preserveAspectRatio="xMidYMid meet" style="width:100%;height:100%"><rect x="-25.75" y="-25.75" width="51.50" height="51.50" fill="#12151c"/><line x1="-24.500" y1="-24.500" x2="24.500" y2="-24.500" stroke="#e6e9ef" stroke-width="0.200" stroke-linecap="round" opacity="1"/><line x1="-24.500" y1="-18.900" x2="-24.500" y2="-24.500" stroke="#e6e9ef" stroke-width="0.200" stroke-linecap="round" opacity="1"/><line x1="-24.500" y1="24.500" x2="-24.500" y2="-14.900" stroke="#e6e9ef" stroke-width="0.200" stroke-linecap="round" opacity="1"/><line x1="-24.500" y1="24.500" x2="24.500" y2="24.500" stroke="#e6e9ef" stroke-width="0.200" stroke-linecap="round" opacity="1"/><line x1="24.500" y1="24.500" x2="24.500" y2="-24.500" stroke="#e6e9ef" stroke-width="0.200" stroke-linecap="round" opacity="1"/><line x1="-21.000" y1="15.420" x2="-20.500" y2="15.420" stroke="#4a5160" stroke-width="0.100" stroke-linecap="round" opacity="0.7"/><line x1="-21.000" y1="20.500" x2="-20.500" y2="20.500" stroke="#4a5160" stroke-width="0.100" stroke-linecap="round" opacity="0.7"/><line x1="-20.500" y1="15.420" x2="-20.500" y2="14.920" stroke="#4a5160" stroke-width="0.100" stroke-linecap="round" opacity="0.7"/><line x1="-20.500" y1="15.420" x2="-20.000" y2="15.420" stroke="#4a5160" stroke-width="0.100" stroke-linecap="round" opacity="0.7"/><line x1="-20.500" y1="15.920" x2="-20.500" y2="15.420" stroke="#4a5160" stroke-width="0.100" stroke-linecap="round" opacity="0.7"/><line x1="-20.500" y1="20.500" x2="-20.500" y2="20.000" stroke="#4a5160" stroke-width="0.100" stroke-linecap="round" opacity="0.7"/><line x1="-20.500" y1="20.500" x2="-20.000" y2="20.500" stroke="#4a5160" stroke-width="0.100" stroke-linecap="round" opacity="0.7"/><line x1="-20.500" y1="21.000" x2="-20.500" y2="20.500" stroke="#4a5160" stroke-width="0.100" stroke-linecap="round" opacity="0.7"/><line x1="-15.920" y1="20.500" x2="-15.420" y2="20.500" stroke="#4a5160" stroke-width="0.100" stroke-linecap="round" opacity="0.7"/><line x1="-15.420" y1="20.500" x2="-15.420" y2="20.000" stroke="#4a5160" stroke-width="0.100" stroke-linecap="round" opacity="0.7"/><line x1="-15.420" y1="20.500" x2="-14.920" y2="20.500" stroke="#4a5160" stroke-width="0.100" stroke-linecap="round" opacity="0.7"/><line x1="-15.420" y1="21.000" x2="-15.420" y2="20.500" stroke="#4a5160" stroke-width="0.100" stroke-linecap="round" opacity="0.7"/><line x1="-0.500" y1="0.000" x2="0.000" y2="0.000" stroke="#4a5160" stroke-width="0.100" stroke-linecap="round" opacity="0.7"/><line x1="0.000" y1="0.000" x2="0.000" y2="-0.500" stroke="#4a5160" stroke-width="0.100" stroke-linecap="round" opacity="0.7"/><line x1="0.000" y1="0.000" x2="0.500" y2="0.000" stroke="#4a5160" stroke-width="0.100" stroke-linecap="round" opacity="0.7"/><line x1="0.000" y1="0.500" x2="0.000" y2="0.000" stroke="#4a5160" stroke-width="0.100" stroke-linecap="round" opacity="0.7"/><line x1="17.200" y1="-21.510" x2="17.700" y2="-21.510" stroke="#4a5160" stroke-width="0.100" stroke-linecap="round" opacity="0.7"/><line x1="17.700" y1="-21.510" x2="17.700" y2="-22.010" stroke="#4a5160" stroke-width="0.100" stroke-linecap="round" opacity="0.7"/><line x1="17.700" y1="-21.510" x2="18.200" y2="-21.510" stroke="#4a5160" stroke-width="0.100" stroke-linecap="round" opacity="0.7"/><line x1="17.700" y1="-21.010" x2="17.700" y2="-21.510" stroke="#4a5160" stroke-width="0.100" stroke-linecap="round" opacity="0.7"/><line x1="21.010" y1="-17.700" x2="21.510" y2="-17.700" stroke="#4a5160" stroke-width="0.100" stroke-linecap="round" opacity="0.7"/><line x1="21.510" y1="-17.700" x2="21.510" y2="-18.200" stroke="#4a5160" stroke-width="0.100" stroke-linecap="round" opacity="0.7"/><line x1="21.510" y1="-17.700" x2="22.010" y2="-17.700" stroke="#4a5160" stroke-width="0.100" stroke-linecap="round" opacity="0.7"/><line x1="21.510" y1="-17.200" x2="21.510" y2="-17.700" stroke="#4a5160" stroke-width="0.100" stroke-linecap="round" opacity="0.7"/><line x1="-24.500" y1="-24.500" x2="24.500" y2="-24.500" stroke="#6b7280" stroke-width="0.100" stroke-linecap="round" opacity="0.8"/><line x1="-24.500" y1="-18.900" x2="-24.500" y2="-24.500" stroke="#6b7280" stroke-width="0.100" stroke-linecap="round" opacity="0.8"/><line x1="-24.500" y1="24.500" x2="-24.500" y2="-14.900" stroke="#6b7280" stroke-width="0.100" stroke-linecap="round" opacity="0.8"/><line x1="-24.500" y1="24.500" x2="24.500" y2="24.500" stroke="#6b7280" stroke-width="0.100" stroke-linecap="round" opacity="0.8"/><line x1="24.500" y1="24.500" x2="24.500" y2="-24.500" stroke="#6b7280" stroke-width="0.100" stroke-linecap="round" opacity="0.8"/><line x1="-24.750" y1="-24.750" x2="24.750" y2="-24.750" stroke="#d24d4d" stroke-width="0.080" stroke-linecap="round" opacity="0.7"/><line x1="24.750" y1="-24.750" x2="24.750" y2="24.750" stroke="#d24d4d" stroke-width="0.080" stroke-linecap="round" opacity="0.7"/><line x1="24.750" y1="24.750" x2="-24.750" y2="24.750" stroke="#d24d4d" stroke-width="0.080" stroke-linecap="round" opacity="0.7"/><line x1="-24.750" y1="24.750" x2="-24.750" y2="-24.750" stroke="#d24d4d" stroke-width="0.080" stroke-linecap="round" opacity="0.7"/><path d="M -24.500 -18.900 A 2.000 2.000 0 0 1 -24.500 -14.900" fill="none" stroke="#e6e9ef" stroke-width="0.12" opacity="1"/><path d="M -24.500 -18.900 A 2.000 2.000 0 0 1 -24.500 -14.900" fill="none" stroke="#6b7280" stroke-width="0.12" opacity="0.8"/><circle cx="0.000" cy="0.000" r="2.200" fill="none" stroke="#6b7280" stroke-width="0.12" opacity="0.8"/><circle cx="0.000" cy="0.000" r="0.250" fill="none" stroke="#6b7280" stroke-width="0.1"/><rect x="-16.420" y="19.500" width="2.000" height="2.000" rx="1.000" fill="#c79b5c"/><circle cx="-15.420" cy="20.500" r="0.650" fill="#12151c"/><rect x="-21.500" y="14.420" width="2.000" height="2.000" rx="1.000" fill="#c79b5c"/><circle cx="-20.500" cy="15.420" r="0.650" fill="#12151c"/><rect x="-21.500" y="19.500" width="2.000" height="2.000" rx="1.000" fill="#c79b5c"/><circle cx="-20.500" cy="20.500" r="0.650" fill="#12151c"/><rect x="20.510" y="-18.700" width="2.000" height="2.000" rx="1.000" fill="#c79b5c"/><circle cx="21.510" cy="-17.700" r="0.650" fill="#12151c"/><rect x="16.700" y="-22.510" width="2.000" height="2.000" rx="1.000" fill="#c79b5c"/><circle cx="17.700" cy="-21.510" r="0.650" fill="#12151c"/></svg>