<svg xmlns="http://www.w3.org/2000/svg" viewBox="-6.58 -1.50 25.86 20.78" preserveAspectRatio="xMidYMid meet" style="width:100%;height:100%"><rect x="-6.58" y="-1.50" width="25.86" height="20.78" fill="#12151c"/><rect x="0.000" y="-0.000" width="12.700" height="17.780" fill="#1e222b" stroke="#4ea1ff" stroke-width="0.25"/><polyline points="0.000,2.540 3.810,2.540 3.810,3.810" fill="none" stroke="#4ea1ff" stroke-width="0.25" stroke-linejoin="round"/><polyline points="0.000,12.700 3.810,12.700 3.810,11.430" fill="none" stroke="#4ea1ff" stroke-width="0.25" stroke-linejoin="round"/><polyline points="0.000,15.240 5.080,15.240" fill="none" stroke="#4ea1ff" stroke-width="0.25" stroke-linejoin="round"/><polyline points="5.080,2.540 5.080,3.810" fill="none" stroke="#4ea1ff" stroke-width="0.25" stroke-linejoin="round"/><polyline points="5.080,5.080 5.080,6.350" fill="none" stroke="#4ea1ff" stroke-width="0.25" stroke-linejoin="round"/><polyline points="5.080,7.620 5.080,8.890" fill="none" stroke="#4ea1ff" stroke-width="0.25" stroke-linejoin="round"/><polyline points="5.080,10.160 5.080,11.430" fill="none" stroke="#4ea1ff" stroke-width="0.25" stroke-linejoin="round"/><polyline points="5.080,12.700 5.080,15.240" fill="none" stroke="#4ea1ff" stroke-width="0.25" stroke-linejoin="round"/><polyline points="5.842,2.540 5.842,12.700" fill="none" stroke="#4ea1ff" stroke-width="0.25" stroke-linejoin="round"/><polyline points="6.858,2.540 6.858,12.700" fill="none" stroke="#4ea1ff" stroke-width="0.25" stroke-linejoin="round"/><polyline points="7.620,2.540 7.620,3.810" fill="none" stroke="#4ea1ff" stroke-width="0.25" stroke-linejoin="round"/><polyline points="7.620,5.080 7.620,6.350" fill="none" stroke="#4ea1ff" stroke-width="0.25" stroke-linejoin="round"/><polyline points="7.620,7.620 7.620,8.890" fill="none" stroke="#4ea1ff" stroke-width="0.25" stroke-linejoin="round"/><polyline points="7.620,10.160 7.620,11.430" fill="none" stroke="#4ea1ff" stroke-width="0.25" stroke-linejoin="round"/><polyline points="7.620,12.700 7.620,15.240 10.160,15.240 10.160,12.700" fill="none" stroke="#4ea1ff" stroke-width="0.25" stroke-linejoin="round"/><polyline points="12.700,2.540 8.890,2.540 8.890,3.810" fill="none" stroke="#4ea1ff" stroke-width="0.25" stroke-linejoin="round"/><polyline points="13.970,12.700 8.890,12.700 8.890,11.430" fill="none" stroke="#4ea1ff" stroke-width="0.25" stroke-linejoin="round"/><circle cx="5.080" cy="1.270" r="0.254" fill="none" stroke="#4ea1ff" stroke-width="0.25"/><circle cx="8.890" cy="1.270" r="0.254" fill="none" stroke="#4ea1ff" stroke-width="0.25"/><circle cx="10.160" cy="12.700" r="0.381" fill="none" stroke="#4ea1ff" stroke-width="0.25"/><path d="M 3.810 5.334 C 4.231 5.334 4.572 4.993 4.572 4.572" fill="none" stroke="#4ea1ff" stroke-width="0.25"/><path d="M 3.810 6.858 C 4.231 6.858 4.572 6.517 4.572 6.096" fill="none" stroke="#4ea1ff" stroke-width="0.25"/><path d="M 3.810 8.382 C 4.231 8.382 4.572 8.041 4.572 7.620" fill="none" stroke="#4ea1ff" stroke-width="0.25"/><path d="M 3.810 9.906 C 4.231 9.906 4.572 9.565 4.572 9.144" fill="none" stroke="#4ea1ff" stroke-width="0.25"/><path d="M 3.810 11.430 C 4.231 11.430 4.572 11.089 4.572 10.668" fill="none" stroke="#4ea1ff" stroke-width="0.25"/><path d="M 4.572 4.572 C 4.572 4.151 4.231 3.810 3.810 3.810" fill="none" stroke="#4ea1ff" stroke-width="0.25"/><path d="M 4.572 6.096 C 4.572 5.675 4.231 5.334 3.810 5.334" fill="none" stroke="#4ea1ff" stroke-width="0.25"/><path d="M 4.572 7.620 C 4.572 7.199 4.231 6.858 3.810 6.858" fill="none" stroke="#4ea1ff" stroke-width="0.25"/><path d="M 4.572 9.144 C 4.572 8.723 4.231 8.382 3.810 8.382" fill="none" stroke="#4ea1ff" stroke-width="0.25"/><path d="M 4.572 10.668 C 4.572 10.247 4.231 9.906 3.810 9.906" fill="none" stroke="#4ea1ff" stroke-width="0.25"/><path d="M 8.128 4.572 C 8.128 4.993 8.469 5.334 8.890 5.334" fill="none" stroke="#4ea1ff" stroke-width="0.25"/><path d="M 8.128 6.096 C 8.128 6.517 8.469 6.858 8.890 6.858" fill="none" stroke="#4ea1ff" stroke-width="0.25"/><path d="M 8.128 7.620 C 8.128 8.041 8.469 8.382 8.890 8.382" fill="none" stroke="#4ea1ff" stroke-width="0.25"/><path d="M 8.128 9.144 C 8.128 9.565 8.469 9.906 8.890 9.906" fill="none" stroke="#4ea1ff" stroke-width="0.25"/><path d="M 8.128 10.668 C 8.128 11.089 8.469 11.430 8.890 11.430" fill="none" stroke="#4ea1ff" stroke-width="0.25"/><path d="M 8.890 3.810 C 8.469 3.810 8.128 4.151 8.128 4.572" fill="none" stroke="#4ea1ff" stroke-width="0.25"/><path d="M 8.890 5.334 C 8.469 5.334 8.128 5.675 8.128 6.096" fill="none" stroke="#4ea1ff" stroke-width="0.25"/><path d="M 8.890 6.858 C 8.469 6.858 8.128 7.199 8.128 7.620" fill="none" stroke="#4ea1ff" stroke-width="0.25"/><path d="M 8.890 8.382 C 8.469 8.382 8.128 8.723 8.128 9.144" fill="none" stroke="#4ea1ff" stroke-width="0.25"/><path d="M 8.890 9.906 C 8.469 9.906 8.128 10.247 8.128 10.668" fill="none" stroke="#4ea1ff" stroke-width="0.25"/><line x1="-5.080" y1="2.540" x2="0.000" y2="2.540" stroke="#e6e9ef" stroke-width="0.2"/><circle cx="-5.080" cy="2.540" r="0.4" fill="#4ea1ff"/><text x="-0.300" y="2.190" fill="#9aa3b2" font-size="0.9" text-anchor="end" font-family="sans-serif">1</text><line x1="-5.080" y1="12.700" x2="0.000" y2="12.700" stroke="#e6e9ef" stroke-width="0.2"/><circle cx="-5.080" cy="12.700" r="0.4" fill="#4ea1ff"/><text x="-0.300" y="12.350" fill="#9aa3b2" font-size="0.9" text-anchor="end" font-family="sans-serif">2</text><line x1="-5.080" y1="15.240" x2="0.000" y2="15.240" stroke="#e6e9ef" stroke-width="0.2"/><circle cx="-5.080" cy="15.240" r="0.4" fill="#4ea1ff"/><text x="-0.300" y="14.890" fill="#9aa3b2" font-size="0.9" text-anchor="end" font-family="sans-serif">3</text><line x1="17.780" y1="2.540" x2="12.700" y2="2.540" stroke="#e6e9ef" stroke-width="0.2"/><circle cx="17.780" cy="2.540" r="0.4" fill="#4ea1ff"/><text x="13.000" y="2.190" fill="#9aa3b2" font-size="0.9" text-anchor="start" font-family="sans-serif">4</text><line x1="17.780" y1="12.700" x2="12.700" y2="12.700" stroke="#e6e9ef" stroke-width="0.2"/><circle cx="17.780" cy="12.700" r="0.4" fill="#4ea1ff"/><text x="13.000" y="12.350" fill="#9aa3b2" font-size="0.9" text-anchor="start" font-family="sans-serif">5</text></svg>