<svg xmlns="http://www.w3.org/2000/svg" viewBox="-18.60 -9.15 37.20 38.65" preserveAspectRatio="xMidYMid meet" style="width:100%;height:100%"><rect x="-18.60" y="-9.15" width="37.20" height="38.65" fill="#12151c"/><line x1="-16.646" y1="-2.194" x2="-10.545" y2="-7.883" stroke="#e6e9ef" stroke-width="0.200" stroke-linecap="round" opacity="1"/><line x1="-16.646" y1="2.194" x2="-10.545" y2="7.883" stroke="#e6e9ef" stroke-width="0.200" stroke-linecap="round" opacity="1"/><line x1="-12.545" y1="16.450" x2="-12.545" y2="16.080" stroke="#e6e9ef" stroke-width="0.200" stroke-linecap="round" opacity="1"/><line x1="-12.545" y1="16.450" x2="-11.038" y2="18.450" stroke="#e6e9ef" stroke-width="0.200" stroke-linecap="round" opacity="1"/><line x1="-12.415" y1="15.950" x2="-10.545" y2="15.950" stroke="#e6e9ef" stroke-width="0.200" stroke-linecap="round" opacity="1"/><line x1="-11.038" y1="18.450" x2="-10.545" y2="18.450" stroke="#e6e9ef" stroke-width="0.200" stroke-linecap="round" opacity="1"/><line x1="-10.545" y1="-7.883" x2="10.527" y2="-7.900" stroke="#e6e9ef" stroke-width="0.200" stroke-linecap="round" opacity="1"/><line x1="-10.545" y1="13.100" x2="-8.245" y2="13.100" stroke="#e6e9ef" stroke-width="0.200" stroke-linecap="round" opacity="1"/><line x1="-10.545" y1="21.600" x2="-10.545" y2="-7.883" stroke="#e6e9ef" stroke-width="0.200" stroke-linecap="round" opacity="1"/><line x1="-10.545" y1="21.600" x2="10.545" y2="21.600" stroke="#e6e9ef" stroke-width="0.200" stroke-linecap="round" opacity="1"/><line x1="-8.420" y1="27.700" x2="-8.420" y2="21.600" stroke="#e6e9ef" stroke-width="0.200" stroke-linecap="round" opacity="1"/><line x1="-8.245" y1="21.600" x2="-8.245" y2="13.100" stroke="#e6e9ef" stroke-width="0.200" stroke-linecap="round" opacity="1"/><line x1="-7.295" y1="13.100" x2="-7.291" y2="21.600" stroke="#e6e9ef" stroke-width="0.200" stroke-linecap="round" opacity="1"/><line x1="-7.295" y1="13.100" x2="-2.799" y2="13.100" stroke="#e6e9ef" stroke-width="0.200" stroke-linecap="round" opacity="1"/><line x1="-6.820" y1="27.700" x2="-6.820" y2="21.600" stroke="#e6e9ef" stroke-width="0.200" stroke-linecap="round" opacity="1"/><line x1="-5.045" y1="21.600" x2="-5.045" y2="13.100" stroke="#e6e9ef" stroke-width="0.200" stroke-linecap="round" opacity="1"/><line x1="-3.340" y1="27.700" x2="-3.340" y2="21.600" stroke="#e6e9ef" stroke-width="0.200" stroke-linecap="round" opacity="1"/><line x1="-2.799" y1="13.100" x2="-2.795" y2="21.600" stroke="#e6e9ef" stroke-width="0.200" stroke-linecap="round" opacity="1"/><line x1="-1.740" y1="27.700" x2="-1.740" y2="21.600" stroke="#e6e9ef" stroke-width="0.200" stroke-linecap="round" opacity="1"/><line x1="1.740" y1="27.700" x2="1.740" y2="21.600" stroke="#e6e9ef" stroke-width="0.200" stroke-linecap="round" opacity="1"/><line x1="3.340" y1="27.700" x2="3.340" y2="21.600" stroke="#e6e9ef" stroke-width="0.200" stroke-linecap="round" opacity="1"/><line x1="6.820" y1="27.700" x2="6.820" y2="21.600" stroke="#e6e9ef" stroke-width="0.200" stroke-linecap="round" opacity="1"/><line x1="8.420" y1="27.700" x2="8.420" y2="21.600" stroke="#e6e9ef" stroke-width="0.200" stroke-linecap="round" opacity="1"/><line x1="10.527" y1="-7.900" x2="16.646" y2="-2.194" stroke="#e6e9ef" stroke-width="0.200" stroke-linecap="round" opacity="1"/><line x1="10.545" y1="7.883" x2="16.646" y2="2.194" stroke="#e6e9ef" stroke-width="0.200" stroke-linecap="round" opacity="1"/><line x1="10.545" y1="15.950" x2="12.415" y2="15.950" stroke="#e6e9ef" stroke-width="0.200" stroke-linecap="round" opacity="1"/><line x1="10.545" y1="18.450" x2="11.038" y2="18.450" stroke="#e6e9ef" stroke-width="0.200" stroke-linecap="round" opacity="1"/><line x1="10.545" y1="21.600" x2="10.545" y2="-7.883" stroke="#e6e9ef" stroke-width="0.200" stroke-linecap="round" opacity="1"/><line x1="11.038" y1="18.450" x2="12.545" y2="16.450" stroke="#e6e9ef" stroke-width="0.200" stroke-linecap="round" opacity="1"/><line x1="12.545" y1="16.450" x2="12.545" y2="16.080" stroke="#e6e9ef" stroke-width="0.200" stroke-linecap="round" opacity="1"/><line x1="-15.100" y1="0.000" x2="-14.600" y2="0.000" stroke="#4a5160" stroke-width="0.080" stroke-linecap="round" opacity="0.7"/><line x1="-14.600" y1="0.500" x2="-14.600" y2="0.000" stroke="#4a5160" stroke-width="0.080" stroke-linecap="round" opacity="0.7"/><line x1="-8.120" y1="-5.080" x2="-7.620" y2="-5.080" stroke="#4a5160" stroke-width="0.080" stroke-linecap="round" opacity="0.7"/><line x1="-8.120" y1="0.000" x2="-7.620" y2="0.000" stroke="#4a5160" stroke-width="0.080" stroke-linecap="round" opacity="0.7"/><line x1="-8.120" y1="5.080" x2="-7.620" y2="5.080" stroke="#4a5160" stroke-width="0.080" stroke-linecap="round" opacity="0.7"/><line x1="-7.620" y1="-4.580" x2="-7.620" y2="-5.080" stroke="#4a5160" stroke-width="0.080" stroke-linecap="round" opacity="0.7"/><line x1="-7.620" y1="0.500" x2="-7.620" y2="0.000" stroke="#4a5160" stroke-width="0.080" stroke-linecap="round" opacity="0.7"/><line x1="-7.620" y1="5.580" x2="-7.620" y2="5.080" stroke="#4a5160" stroke-width="0.080" stroke-linecap="round" opacity="0.7"/><line x1="-3.040" y1="-5.080" x2="-2.540" y2="-5.080" stroke="#4a5160" stroke-width="0.080" stroke-linecap="round" opacity="0.7"/><line x1="-3.040" y1="0.000" x2="-2.540" y2="0.000" stroke="#4a5160" stroke-width="0.080" stroke-linecap="round" opacity="0.7"/><line x1="-3.040" y1="5.080" x2="-2.540" y2="5.080" stroke="#4a5160" stroke-width="0.080" stroke-linecap="round" opacity="0.7"/><line x1="-2.540" y1="-4.580" x2="-2.540" y2="-5.080" stroke="#4a5160" stroke-width="0.080" stroke-linecap="round" opacity="0.7"/><line x1="-2.540" y1="0.500" x2="-2.540" y2="0.000" stroke="#4a5160" stroke-width="0.080" stroke-linecap="round" opacity="0.7"/><line x1="-2.540" y1="5.580" x2="-2.540" y2="5.080" stroke="#4a5160" stroke-width="0.080" stroke-linecap="round" opacity="0.7"/><line x1="-0.500" y1="0.000" x2="0.000" y2="0.000" stroke="#4a5160" stroke-width="0.080" stroke-linecap="round" opacity="0.7"/><line x1="0.000" y1="0.000" x2="0.000" y2="-0.500" stroke="#4a5160" stroke-width="0.080" stroke-linecap="round" opacity="0.7"/><line x1="0.000" y1="0.000" x2="0.500" y2="0.000" stroke="#4a5160" stroke-width="0.080" stroke-linecap="round" opacity="0.7"/><line x1="0.000" y1="0.500" x2="0.000" y2="0.000" stroke="#4a5160" stroke-width="0.080" stroke-linecap="round" opacity="0.7"/><line x1="2.040" y1="-5.080" x2="2.540" y2="-5.080" stroke="#4a5160" stroke-width="0.080" stroke-linecap="round" opacity="0.7"/><line x1="2.040" y1="0.000" x2="2.540" y2="0.000" stroke="#4a5160" stroke-width="0.080" stroke-linecap="round" opacity="0.7"/><line x1="2.040" y1="5.080" x2="2.540" y2="5.080" stroke="#4a5160" stroke-width="0.080" stroke-linecap="round" opacity="0.7"/><line x1="2.540" y1="-4.580" x2="2.540" y2="-5.080" stroke="#4a5160" stroke-width="0.080" stroke-linecap="round" opacity="0.7"/><line x1="2.540" y1="0.500" x2="2.540" y2="0.000" stroke="#4a5160" stroke-width="0.080" stroke-linecap="round" opacity="0.7"/><line x1="2.540" y1="5.580" x2="2.540" y2="5.080" stroke="#4a5160" stroke-width="0.080" stroke-linecap="round" opacity="0.7"/><line x1="7.120" y1="-5.080" x2="7.620" y2="-5.080" stroke="#4a5160" stroke-width="0.080" stroke-linecap="round" opacity="0.7"/><line x1="7.120" y1="0.000" x2="7.620" y2="0.000" stroke="#4a5160" stroke-width="0.080" stroke-linecap="round" opacity="0.7"/><line x1="7.120" y1="5.080" x2="7.620" y2="5.080" stroke="#4a5160" stroke-width="0.080" stroke-linecap="round" opacity="0.7"/><line x1="7.620" y1="-4.580" x2="7.620" y2="-5.080" stroke="#4a5160" stroke-width="0.080" stroke-linecap="round" opacity="0.7"/><line x1="7.620" y1="0.500" x2="7.620" y2="0.000" stroke="#4a5160" stroke-width="0.080" stroke-linecap="round" opacity="0.7"/><line x1="7.620" y1="5.580" x2="7.620" y2="5.080" stroke="#4a5160" stroke-width="0.080" stroke-linecap="round" opacity="0.7"/><line x1="14.100" y1="0.000" x2="14.600" y2="0.000" stroke="#4a5160" stroke-width="0.080" stroke-linecap="round" opacity="0.7"/><line x1="14.600" y1="0.500" x2="14.600" y2="0.000" stroke="#4a5160" stroke-width="0.080" stroke-linecap="round" opacity="0.7"/><line x1="-16.646" y1="-2.194" x2="-10.545" y2="-7.883" stroke="#6b7280" stroke-width="0.100" stroke-linecap="round" opacity="0.8"/><line x1="-16.646" y1="2.194" x2="-10.545" y2="7.883" stroke="#6b7280" stroke-width="0.100" stroke-linecap="round" opacity="0.8"/><line x1="-12.545" y1="16.450" x2="-12.545" y2="16.080" stroke="#6b7280" stroke-width="0.100" stroke-linecap="round" opacity="0.8"/><line x1="-12.545" y1="16.450" x2="-11.038" y2="18.450" stroke="#6b7280" stroke-width="0.100" stroke-linecap="round" opacity="0.8"/><line x1="-12.415" y1="15.950" x2="-10.545" y2="15.950" stroke="#6b7280" stroke-width="0.100" stroke-linecap="round" opacity="0.8"/><line x1="-11.038" y1="18.450" x2="-10.545" y2="18.450" stroke="#6b7280" stroke-width="0.100" stroke-linecap="round" opacity="0.8"/><line x1="-10.545" y1="-7.883" x2="10.527" y2="-7.900" stroke="#6b7280" stroke-width="0.100" stroke-linecap="round" opacity="0.8"/><line x1="-10.545" y1="-2.900" x2="10.545" y2="-2.900" stroke="#6b7280" stroke-width="0.100" stroke-linecap="round" opacity="0.8"/><line x1="-10.545" y1="13.100" x2="-8.245" y2="13.100" stroke="#6b7280" stroke-width="0.100" stroke-linecap="round" opacity="0.8"/><line x1="-10.545" y1="21.600" x2="-10.545" y2="-7.883" stroke="#6b7280" stroke-width="0.100" stroke-linecap="round" opacity="0.8"/><line x1="-10.545" y1="21.600" x2="10.545" y2="21.600" stroke="#6b7280" stroke-width="0.100" stroke-linecap="round" opacity="0.8"/><line x1="-8.420" y1="27.700" x2="-8.420" y2="21.600" stroke="#6b7280" stroke-width="0.100" stroke-linecap="round" opacity="0.8"/><line x1="-8.245" y1="21.600" x2="-8.245" y2="13.100" stroke="#6b7280" stroke-width="0.100" stroke-linecap="round" opacity="0.8"/><line x1="-7.295" y1="13.100" x2="-7.291" y2="21.600" stroke="#6b7280" stroke-width="0.100" stroke-linecap="round" opacity="0.8"/><line x1="-7.295" y1="13.100" x2="-2.799" y2="13.100" stroke="#6b7280" stroke-width="0.100" stroke-linecap="round" opacity="0.8"/><line x1="-6.820" y1="27.700" x2="-6.820" y2="21.600" stroke="#6b7280" stroke-width="0.100" stroke-linecap="round" opacity="0.8"/><line x1="-5.045" y1="21.600" x2="-5.045" y2="13.100" stroke="#6b7280" stroke-width="0.100" stroke-linecap="round" opacity="0.8"/><line x1="-3.340" y1="27.700" x2="-3.340" y2="21.600" stroke="#6b7280" stroke-width="0.100" stroke-linecap="round" opacity="0.8"/><line x1="-2.799" y1="13.100" x2="-2.795" y2="21.600" stroke="#6b7280" stroke-width="0.100" stroke-linecap="round" opacity="0.8"/><line x1="-1.740" y1="27.700" x2="-1.740" y2="21.600" stroke="#6b7280" stroke-width="0.100" stroke-linecap="round" opacity="0.8"/><line x1="1.740" y1="27.700" x2="1.740" y2="21.600" stroke="#6b7280" stroke-width="0.100" stroke-linecap="round" opacity="0.8"/><line x1="3.340" y1="27.700" x2="3.340" y2="21.600" stroke="#6b7280" stroke-width="0.100" stroke-linecap="round" opacity="0.8"/><line x1="6.820" y1="27.700" x2="6.820" y2="21.600" stroke="#6b7280" stroke-width="0.100" stroke-linecap="round" opacity="0.8"/><line x1="8.420" y1="27.700" x2="8.420" y2="21.600" stroke="#6b7280" stroke-width="0.100" stroke-linecap="round" opacity="0.8"/><line x1="10.527" y1="-7.900" x2="16.646" y2="-2.194" stroke="#6b7280" stroke-width="0.100" stroke-linecap="round" opacity="0.8"/><line x1="10.545" y1="7.883" x2="16.646" y2="2.194" stroke="#6b7280" stroke-width="0.100" stroke-linecap="round" opacity="0.8"/><line x1="10.545" y1="15.950" x2="12.415" y2="15.950" stroke="#6b7280" stroke-width="0.100" stroke-linecap="round" opacity="0.8"/><line x1="10.545" y1="18.450" x2="11.038" y2="18.450" stroke="#6b7280" stroke-width="0.100" stroke-linecap="round" opacity="0.8"/><line x1="10.545" y1="21.600" x2="10.545" y2="-7.883" stroke="#6b7280" stroke-width="0.100" stroke-linecap="round" opacity="0.8"/><line x1="11.038" y1="18.450" x2="12.545" y2="16.450" stroke="#6b7280" stroke-width="0.100" stroke-linecap="round" opacity="0.8"/><line x1="12.545" y1="16.450" x2="12.545" y2="16.080" stroke="#6b7280" stroke-width="0.100" stroke-linecap="round" opacity="0.8"/><line x1="-17.100" y1="-8.150" x2="17.100" y2="-8.150" stroke="#d24d4d" stroke-width="0.080" stroke-linecap="round" opacity="0.7"/><line x1="17.100" y1="-8.150" x2="17.100" y2="27.950" stroke="#d24d4d" stroke-width="0.080" stroke-linecap="round" opacity="0.7"/><line x1="17.100" y1="27.950" x2="-17.100" y2="27.950" stroke="#d24d4d" stroke-width="0.080" stroke-linecap="round" opacity="0.7"/><line x1="-17.100" y1="27.950" x2="-17.100" y2="-8.150" stroke="#d24d4d" stroke-width="0.080" stroke-linecap="round" opacity="0.7"/><path d="M -16.646 2.194 A 3.000 3.000 0 0 1 -16.646 -2.194" fill="none" stroke="#e6e9ef" stroke-width="0.12" opacity="1"/><path d="M -12.545 16.080 A 0.130 0.130 0 0 1 -12.415 15.950" fill="none" stroke="#e6e9ef" stroke-width="0.12" opacity="1"/><path d="M -6.820 27.700 A 0.800 0.800 0 0 1 -8.420 27.700" fill="none" stroke="#e6e9ef" stroke-width="0.12" opacity="1"/><path d="M -1.740 27.700 A 0.800 0.800 0 1 1 -3.340 27.700" fill="none" stroke="#e6e9ef" stroke-width="0.12" opacity="1"/><path d="M 3.340 27.700 A 0.800 0.800 0 1 1 1.740 27.700" fill="none" stroke="#e6e9ef" stroke-width="0.12" opacity="1"/><path d="M 8.420 27.700 A 0.800 0.800 0 0 1 6.820 27.700" fill="none" stroke="#e6e9ef" stroke-width="0.12" opacity="1"/><path d="M 12.415 15.950 A 0.130 0.130 0 0 1 12.545 16.080" fill="none" stroke="#e6e9ef" stroke-width="0.12" opacity="1"/><path d="M 16.646 -2.194 A 3.000 3.000 0 0 1 16.646 2.194" fill="none" stroke="#e6e9ef" stroke-width="0.12" opacity="1"/><path d="M -16.646 2.194 A 3.000 3.000 0 0 1 -16.646 -2.194" fill="none" stroke="#6b7280" stroke-width="0.12" opacity="0.8"/><path d="M -12.545 16.080 A 0.130 0.130 0 0 1 -12.415 15.950" fill="none" stroke="#6b7280" stroke-width="0.12" opacity="0.8"/><path d="M -6.820 27.700 A 0.800 0.800 0 0 1 -8.420 27.700" fill="none" stroke="#6b7280" stroke-width="0.12" opacity="0.8"/><path d="M -1.740 27.700 A 0.800 0.800 0 1 1 -3.340 27.700" fill="none" stroke="#6b7280" stroke-width="0.12" opacity="0.8"/><path d="M 3.340 27.700 A 0.800 0.800 0 1 1 1.740 27.700" fill="none" stroke="#6b7280" stroke-width="0.12" opacity="0.8"/><path d="M 8.420 27.700 A 0.800 0.800 0 0 1 6.820 27.700" fill="none" stroke="#6b7280" stroke-width="0.12" opacity="0.8"/><path d="M 12.415 15.950 A 0.130 0.130 0 0 1 12.545 16.080" fill="none" stroke="#6b7280" stroke-width="0.12" opacity="0.8"/><path d="M 16.646 -2.194 A 3.000 3.000 0 0 1 16.646 2.194" fill="none" stroke="#6b7280" stroke-width="0.12" opacity="0.8"/><circle cx="-14.600" cy="0.000" r="1.750" fill="none" stroke="#4a5160" stroke-width="0.12" opacity="0.7"/><circle cx="-7.620" cy="-5.080" r="0.950" fill="none" stroke="#4a5160" stroke-width="0.12" opacity="0.7"/><circle cx="-7.620" cy="-5.080" r="0.600" fill="none" stroke="#4a5160" stroke-width="0.12" opacity="0.7"/><circle cx="-7.620" cy="0.000" r="0.950" fill="none" stroke="#4a5160" stroke-width="0.12" opacity="0.7"/><circle cx="-7.620" cy="0.000" r="0.600" fill="none" stroke="#4a5160" stroke-width="0.12" opacity="0.7"/><circle cx="-7.620" cy="5.080" r="0.950" fill="none" stroke="#4a5160" stroke-width="0.12" opacity="0.7"/><circle cx="-7.620" cy="5.080" r="0.600" fill="none" stroke="#4a5160" stroke-width="0.12" opacity="0.7"/><circle cx="-2.540" cy="-5.080" r="0.950" fill="none" stroke="#4a5160" stroke-width="0.12" opacity="0.7"/><circle cx="-2.540" cy="-5.080" r="0.600" fill="none" stroke="#4a5160" stroke-width="0.12" opacity="0.7"/><circle cx="-2.540" cy="0.000" r="0.950" fill="none" stroke="#4a5160" stroke-width="0.12" opacity="0.7"/><circle cx="-2.540" cy="0.000" r="0.600" fill="none" stroke="#4a5160" stroke-width="0.12" opacity="0.7"/><circle cx="-2.540" cy="5.080" r="0.950" fill="none" stroke="#4a5160" stroke-width="0.12" opacity="0.7"/><circle cx="-2.540" cy="5.080" r="0.600" fill="none" stroke="#4a5160" stroke-width="0.12" opacity="0.7"/><circle cx="2.540" cy="-5.080" r="0.950" fill="none" stroke="#4a5160" stroke-width="0.12" opacity="0.7"/><circle cx="2.540" cy="-5.080" r="0.600" fill="none" stroke="#4a5160" stroke-width="0.12" opacity="0.7"/><circle cx="2.540" cy="0.000" r="0.950" fill="none" stroke="#4a5160" stroke-width="0.12" opacity="0.7"/><circle cx="2.540" cy="0.000" r="0.600" fill="none" stroke="#4a5160" stroke-width="0.12" opacity="0.7"/><circle cx="2.540" cy="5.080" r="0.950" fill="none" stroke="#4a5160" stroke-width="0.12" opacity="0.7"/><circle cx="2.540" cy="5.080" r="0.600" fill="none" stroke="#4a5160" stroke-width="0.12" opacity="0.7"/><circle cx="7.620" cy="-5.080" r="0.950" fill="none" stroke="#4a5160" stroke-width="0.12" opacity="0.7"/><circle cx="7.620" cy="-5.080" r="0.600" fill="none" stroke="#4a5160" stroke-width="0.12" opacity="0.7"/><circle cx="7.620" cy="0.000" r="0.950" fill="none" stroke="#4a5160" stroke-width="0.12" opacity="0.7"/><circle cx="7.620" cy="0.000" r="0.600" fill="none" stroke="#4a5160" stroke-width="0.12" opacity="0.7"/><circle cx="7.620" cy="5.080" r="0.950" fill="none" stroke="#4a5160" stroke-width="0.12" opacity="0.7"/><circle cx="7.620" cy="5.080" r="0.600" fill="none" stroke="#4a5160" stroke-width="0.12" opacity="0.7"/><circle cx="14.600" cy="0.000" r="1.750" fill="none" stroke="#4a5160" stroke-width="0.12" opacity="0.7"/><circle cx="-14.600" cy="0.000" r="1.650" fill="none" stroke="#6b7280" stroke-width="0.12" opacity="0.8"/><circle cx="14.600" cy="0.000" r="1.650" fill="none" stroke="#6b7280" stroke-width="0.12" opacity="0.8"/><rect x="-8.570" y="-6.030" width="1.900" height="1.900" rx="0.950" fill="#c79b5c"/><circle cx="-7.620" cy="-5.080" r="0.600" fill="#12151c"/><rect x="-8.570" y="-0.950" width="1.900" height="1.900" rx="0.950" fill="#c79b5c"/><circle cx="-7.620" cy="0.000" r="0.600" fill="#12151c"/><rect x="-8.570" y="4.130" width="1.900" height="1.900" rx="0.950" fill="#c79b5c"/><circle cx="-7.620" cy="5.080" r="0.600" fill="#12151c"/><rect x="-3.490" y="-6.030" width="1.900" height="1.900" rx="0.950" fill="#c79b5c"/><circle cx="-2.540" cy="-5.080" r="0.600" fill="#12151c"/><rect x="-3.490" y="-0.950" width="1.900" height="1.900" rx="0.950" fill="#c79b5c"/><circle cx="-2.540" cy="0.000" r="0.600" fill="#12151c"/><rect x="-3.490" y="4.130" width="1.900" height="1.900" rx="0.950" fill="#c79b5c"/><circle cx="-2.540" cy="5.080" r="0.600" fill="#12151c"/><rect x="1.590" y="-6.030" width="1.900" height="1.900" rx="0.950" fill="#c79b5c"/><circle cx="2.540" cy="-5.080" r="0.600" fill="#12151c"/><rect x="1.590" y="-0.950" width="1.900" height="1.900" rx="0.950" fill="#c79b5c"/><circle cx="2.540" cy="0.000" r="0.600" fill="#12151c"/><rect x="1.590" y="4.130" width="1.900" height="1.900" rx="0.950" fill="#c79b5c"/><circle cx="2.540" cy="5.080" r="0.600" fill="#12151c"/><rect x="6.670" y="-6.030" width="1.900" height="1.900" rx="0.950" fill="#c79b5c"/><circle cx="7.620" cy="-5.080" r="0.600" fill="#12151c"/><rect x="6.670" y="-0.950" width="1.900" height="1.900" rx="0.950" fill="#c79b5c"/><circle cx="7.620" cy="0.000" r="0.600" fill="#12151c"/><rect x="6.670" y="4.130" width="1.900" height="1.900" rx="0.950" fill="#c79b5c"/><circle cx="7.620" cy="5.080" r="0.600" fill="#12151c"/><rect x="-16.850" y="-2.250" width="4.500" height="4.500" rx="2.250" fill="#c79b5c"/><circle cx="-14.600" cy="0.000" r="1.750" fill="#12151c"/><rect x="12.350" y="-2.250" width="4.500" height="4.500" rx="2.250" fill="#c79b5c"/><circle cx="14.600" cy="0.000" r="1.750" fill="#12151c"/></svg>