<svg xmlns="http://www.w3.org/2000/svg" viewBox="-62.61 -18.68 125.25 22.88" preserveAspectRatio="xMidYMid meet" style="width:100%;height:100%"><rect x="-62.61" y="-18.68" width="125.25" height="22.88" fill="#12151c"/><line x1="-61.610" y1="-17.680" x2="61.640" y2="-17.680" stroke="#d24d4d" stroke-width="0.080" stroke-linecap="round" opacity="0.7"/><line x1="61.640" y1="-17.680" x2="61.640" y2="2.320" stroke="#d24d4d" stroke-width="0.080" stroke-linecap="round" opacity="0.7"/><line x1="61.640" y1="2.320" x2="-61.610" y2="2.320" stroke="#d24d4d" stroke-width="0.080" stroke-linecap="round" opacity="0.7"/><line x1="-61.610" y1="2.320" x2="-61.610" y2="-17.680" stroke="#d24d4d" stroke-width="0.080" stroke-linecap="round" opacity="0.7"/><path d="M -61.361 -14.309 A 0.102 0.102 0 0 1 -61.361 -14.485" fill="none" stroke="#e6e9ef" stroke-width="0.12" opacity="1"/><path d="M -53.341 -15.750 A 0.102 0.102 0 0 1 -53.304 -15.611" fill="none" stroke="#e6e9ef" stroke-width="0.12" opacity="1"/><path d="M -47.803 2.007 A 0.508 0.508 0 1 1 -48.819 2.007" fill="none" stroke="#e6e9ef" stroke-width="0.12" opacity="1"/><path d="M -43.675 -14.757 A 1.270 1.270 0 0 1 -46.109 -14.249" fill="none" stroke="#e6e9ef" stroke-width="0.12" opacity="1"/><path d="M -41.141 -11.201 A 1.270 1.270 0 0 1 -42.391 -12.251" fill="none" stroke="#e6e9ef" stroke-width="0.12" opacity="1"/><path d="M 42.417 -12.251 A 1.270 1.270 0 0 1 41.166 -11.201" fill="none" stroke="#e6e9ef" stroke-width="0.12" opacity="1"/><path d="M 46.135 -14.249 A 1.270 1.270 0 0 1 43.701 -14.757" fill="none" stroke="#e6e9ef" stroke-width="0.12" opacity="1"/><path d="M 48.844 2.007 A 0.508 0.508 0 1 1 47.828 2.007" fill="none" stroke="#e6e9ef" stroke-width="0.12" opacity="1"/><path d="M 53.329 -15.611 A 0.102 0.102 0 0 1 53.367 -15.750" fill="none" stroke="#e6e9ef" stroke-width="0.12" opacity="1"/><path d="M 61.386 -14.485 A 0.102 0.102 0 0 1 61.386 -14.309" fill="none" stroke="#e6e9ef" stroke-width="0.12" opacity="1"/><path d="M -61.361 -14.309 A 0.102 0.102 0 0 1 -61.361 -14.485" fill="none" stroke="#6b7280" stroke-width="0.12" opacity="0.8"/><path d="M -53.341 -15.750 A 0.102 0.102 0 0 1 -53.304 -15.611" fill="none" stroke="#6b7280" stroke-width="0.12" opacity="0.8"/><path d="M -47.803 2.007 A 0.508 0.508 0 1 1 -48.819 2.007" fill="none" stroke="#6b7280" stroke-width="0.12" opacity="0.8"/><path d="M -43.675 -14.757 A 1.270 1.270 0 0 1 -46.109 -14.249" fill="none" stroke="#6b7280" stroke-width="0.12" opacity="0.8"/><path d="M -41.141 -11.201 A 1.270 1.270 0 0 1 -42.391 -12.251" fill="none" stroke="#6b7280" stroke-width="0.12" opacity="0.8"/><path d="M -5.829 2.007 A 0.508 0.508 0 0 1 -6.845 2.007" fill="none" stroke="#6b7280" stroke-width="0.12" opacity="0.8"/><path d="M 6.871 2.007 A 0.508 0.508 0 1 1 5.855 2.007" fill="none" stroke="#6b7280" stroke-width="0.12" opacity="0.8"/><path d="M 42.417 -12.251 A 1.270 1.270 0 0 1 41.166 -11.201" fill="none" stroke="#6b7280" stroke-width="0.12" opacity="0.8"/><path d="M 46.135 -14.249 A 1.270 1.270 0 0 1 43.701 -14.757" fill="none" stroke="#6b7280" stroke-width="0.12" opacity="0.8"/><path d="M 48.844 2.007 A 0.508 0.508 0 1 1 47.828 2.007" fill="none" stroke="#6b7280" stroke-width="0.12" opacity="0.8"/><path d="M 53.329 -15.611 A 0.102 0.102 0 0 1 53.367 -15.750" fill="none" stroke="#6b7280" stroke-width="0.12" opacity="0.8"/><path d="M 61.386 -14.485 A 0.102 0.102 0 0 1 61.386 -14.309" fill="none" stroke="#6b7280" stroke-width="0.12" opacity="0.8"/><circle cx="-44.945" cy="-6.375" r="0.952" fill="none" stroke="#e6e9ef" stroke-width="0.12" opacity="1"/><circle cx="-39.443" cy="3.048" r="0.150" fill="none" stroke="#e6e9ef" stroke-width="0.12" opacity="1"/><circle cx="44.971" cy="-6.375" r="0.952" fill="none" stroke="#e6e9ef" stroke-width="0.12" opacity="1"/><circle cx="-45.263" cy="-0.533" r="1.270" fill="none" stroke="#6b7280" stroke-width="0.12" opacity="0.8"/><circle cx="-44.945" cy="-6.375" r="0.952" fill="none" stroke="#6b7280" stroke-width="0.12" opacity="0.8"/><circle cx="44.971" cy="-6.375" r="0.952" fill="none" stroke="#6b7280" stroke-width="0.12" opacity="0.8"/><circle cx="45.288" cy="-0.533" r="1.270" fill="none" stroke="#6b7280" stroke-width="0.12" opacity="0.8"/><rect x="-40.170" y="0.470" width="1.600" height="1.600" rx="0.800" fill="#c79b5c"/><circle cx="-39.370" cy="1.270" r="0.450" fill="#12151c"/><rect x="-40.170" y="-2.070" width="1.600" height="1.600" rx="0.800" fill="#c79b5c"/><circle cx="-39.370" cy="-1.270" r="0.450" fill="#12151c"/><rect x="-37.630" y="0.470" width="1.600" height="1.600" rx="0.800" fill="#c79b5c"/><circle cx="-36.830" cy="1.270" r="0.450" fill="#12151c"/><rect x="-37.630" y="-2.070" width="1.600" height="1.600" rx="0.800" fill="#c79b5c"/><circle cx="-36.830" cy="-1.270" r="0.450" fill="#12151c"/><rect x="-35.090" y="0.470" width="1.600" height="1.600" rx="0.800" fill="#c79b5c"/><circle cx="-34.290" cy="1.270" r="0.450" fill="#12151c"/><rect x="-35.090" y="-2.070" width="1.600" height="1.600" rx="0.800" fill="#c79b5c"/><circle cx="-34.290" cy="-1.270" r="0.450" fill="#12151c"/><rect x="-32.550" y="0.470" width="1.600" height="1.600" rx="0.800" fill="#c79b5c"/><circle cx="-31.750" cy="1.270" r="0.450" fill="#12151c"/><rect x="-32.550" y="-2.070" width="1.600" height="1.600" rx="0.800" fill="#c79b5c"/><circle cx="-31.750" cy="-1.270" r="0.450" fill="#12151c"/><rect x="-30.010" y="0.470" width="1.600" height="1.600" rx="0.800" fill="#c79b5c"/><circle cx="-29.210" cy="1.270" r="0.450" fill="#12151c"/><rect x="-30.010" y="-2.070" width="1.600" height="1.600" rx="0.800" fill="#c79b5c"/><circle cx="-29.210" cy="-1.270" r="0.450" fill="#12151c"/><rect x="-27.470" y="0.470" width="1.600" height="1.600" rx="0.800" fill="#c79b5c"/><circle cx="-26.670" cy="1.270" r="0.450" fill="#12151c"/><rect x="-27.470" y="-2.070" width="1.600" height="1.600" rx="0.800" fill="#c79b5c"/><circle cx="-26.670" cy="-1.270" r="0.450" fill="#12151c"/><rect x="-24.930" y="0.470" width="1.600" height="1.600" rx="0.800" fill="#c79b5c"/><circle cx="-24.130" cy="1.270" r="0.450" fill="#12151c"/><rect x="-24.930" y="-2.070" width="1.600" height="1.600" rx="0.800" fill="#c79b5c"/><circle cx="-24.130" cy="-1.270" r="0.450" fill="#12151c"/><rect x="-22.390" y="0.470" width="1.600" height="1.600" rx="0.800" fill="#c79b5c"/><circle cx="-21.590" cy="1.270" r="0.450" fill="#12151c"/><rect x="-22.390" y="-2.070" width="1.600" height="1.600" rx="0.800" fill="#c79b5c"/><circle cx="-21.590" cy="-1.270" r="0.450" fill="#12151c"/><rect x="-19.850" y="0.470" width="1.600" height="1.600" rx="0.800" fill="#c79b5c"/><circle cx="-19.050" cy="1.270" r="0.450" fill="#12151c"/><rect x="-19.850" y="-2.070" width="1.600" height="1.600" rx="0.800" fill="#c79b5c"/><circle cx="-19.050" cy="-1.270" r="0.450" fill="#12151c"/><rect x="-17.310" y="0.470" width="1.600" height="1.600" rx="0.800" fill="#c79b5c"/><circle cx="-16.510" cy="1.270" r="0.450" fill="#12151c"/><rect x="-17.310" y="-2.070" width="1.600" height="1.600" rx="0.800" fill="#c79b5c"/><circle cx="-16.510" cy="-1.270" r="0.450" fill="#12151c"/><rect x="-14.770" y="0.470" width="1.600" height="1.600" rx="0.800" fill="#c79b5c"/><circle cx="-13.970" cy="1.270" r="0.450" fill="#12151c"/><rect x="-14.770" y="-2.070" width="1.600" height="1.600" rx="0.800" fill="#c79b5c"/><circle cx="-13.970" cy="-1.270" r="0.450" fill="#12151c"/><rect x="-12.230" y="0.470" width="1.600" height="1.600" rx="0.800" fill="#c79b5c"/><circle cx="-11.430" cy="1.270" r="0.450" fill="#12151c"/><rect x="-12.230" y="-2.070" width="1.600" height="1.600" rx="0.800" fill="#c79b5c"/><circle cx="-11.430" cy="-1.270" r="0.450" fill="#12151c"/><rect x="-9.690" y="0.470" width="1.600" height="1.600" rx="0.800" fill="#c79b5c"/><circle cx="-8.890" cy="1.270" r="0.450" fill="#12151c"/><rect x="-9.690" y="-2.070" width="1.600" height="1.600" rx="0.800" fill="#c79b5c"/><circle cx="-8.890" cy="-1.270" r="0.450" fill="#12151c"/><rect x="-7.150" y="0.470" width="1.600" height="1.600" rx="0.800" fill="#c79b5c"/><circle cx="-6.350" cy="1.270" r="0.450" fill="#12151c"/><rect x="-7.150" y="-2.070" width="1.600" height="1.600" rx="0.800" fill="#c79b5c"/><circle cx="-6.350" cy="-1.270" r="0.450" fill="#12151c"/><rect x="-4.610" y="0.470" width="1.600" height="1.600" rx="0.800" fill="#c79b5c"/><circle cx="-3.810" cy="1.270" r="0.450" fill="#12151c"/><rect x="-4.610" y="-2.070" width="1.600" height="1.600" rx="0.800" fill="#c79b5c"/><circle cx="-3.810" cy="-1.270" r="0.450" fill="#12151c"/><rect x="-2.070" y="0.470" width="1.600" height="1.600" rx="0.800" fill="#c79b5c"/><circle cx="-1.270" cy="1.270" r="0.450" fill="#12151c"/><rect x="-2.070" y="-2.070" width="1.600" height="1.600" rx="0.800" fill="#c79b5c"/><circle cx="-1.270" cy="-1.270" r="0.450" fill="#12151c"/><rect x="0.470" y="0.470" width="1.600" height="1.600" rx="0.800" fill="#c79b5c"/><circle cx="1.270" cy="1.270" r="0.450" fill="#12151c"/><rect x="0.470" y="-2.070" width="1.600" height="1.600" rx="0.800" fill="#c79b5c"/><circle cx="1.270" cy="-1.270" r="0.450" fill="#12151c"/><rect x="3.010" y="0.470" width="1.600" height="1.600" rx="0.800" fill="#c79b5c"/><circle cx="3.810" cy="1.270" r="0.450" fill="#12151c"/><rect x="3.010" y="-2.070" width="1.600" height="1.600" rx="0.800" fill="#c79b5c"/><circle cx="3.810" cy="-1.270" r="0.450" fill="#12151c"/><rect x="5.550" y="0.470" width="1.600" height="1.600" rx="0.800" fill="#c79b5c"/><circle cx="6.350" cy="1.270" r="0.450" fill="#12151c"/><rect x="5.550" y="-2.070" width="1.600" height="1.600" rx="0.800" fill="#c79b5c"/><circle cx="6.350" cy="-1.270" r="0.450" fill="#12151c"/><rect x="8.090" y="0.470" width="1.600" height="1.600" rx="0.800" fill="#c79b5c"/><circle cx="8.890" cy="1.270" r="0.450" fill="#12151c"/><rect x="8.090" y="-2.070" width="1.600" height="1.600" rx="0.800" fill="#c79b5c"/><circle cx="8.890" cy="-1.270" r="0.450" fill="#12151c"/><rect x="10.630" y="0.470" width="1.600" height="1.600" rx="0.800" fill="#c79b5c"/><circle cx="11.430" cy="1.270" r="0.450" fill="#12151c"/><rect x="10.630" y="-2.070" width="1.600" height="1.600" rx="0.800" fill="#c79b5c"/><circle cx="11.430" cy="-1.270" r="0.450" fill="#12151c"/><rect x="13.170" y="0.470" width="1.600" height="1.600" rx="0.800" fill="#c79b5c"/><circle cx="13.970" cy="1.270" r="0.450" fill="#12151c"/><rect x="13.170" y="-2.070" width="1.600" height="1.600" rx="0.800" fill="#c79b5c"/><circle cx="13.970" cy="-1.270" r="0.450" fill="#12151c"/><rect x="15.710" y="0.470" width="1.600" height="1.600" rx="0.800" fill="#c79b5c"/><circle cx="16.510" cy="1.270" r="0.450" fill="#12151c"/><rect x="15.710" y="-2.070" width="1.600" height="1.600" rx="0.800" fill="#c79b5c"/><circle cx="16.510" cy="-1.270" r="0.450" fill="#12151c"/><rect x="18.250" y="0.470" width="1.600" height="1.600" rx="0.800" fill="#c79b5c"/><circle cx="19.050" cy="1.270" r="0.450" fill="#12151c"/><rect x="18.250" y="-2.070" width="1.600" height="1.600" rx="0.800" fill="#c79b5c"/><circle cx="19.050" cy="-1.270" r="0.450" fill="#12151c"/><rect x="20.790" y="0.470" width="1.600" height="1.600" rx="0.800" fill="#c79b5c"/><circle cx="21.590" cy="1.270" r="0.450" fill="#12151c"/><rect x="20.790" y="-2.070" width="1.600" height="1.600" rx="0.800" fill="#c79b5c"/><circle cx="21.590" cy="-1.270" r="0.450" fill="#12151c"/><rect x="23.330" y="0.470" width="1.600" height="1.600" rx="0.800" fill="#c79b5c"/><circle cx="24.130" cy="1.270" r="0.450" fill="#12151c"/><rect x="23.330" y="-2.070" width="1.600" height="1.600" rx="0.800" fill="#c79b5c"/><circle cx="24.130" cy="-1.270" r="0.450" fill="#12151c"/><rect x="25.870" y="0.470" width="1.600" height="1.600" rx="0.800" fill="#c79b5c"/><circle cx="26.670" cy="1.270" r="0.450" fill="#12151c"/><rect x="25.870" y="-2.070" width="1.600" height="1.600" rx="0.800" fill="#c79b5c"/><circle cx="26.670" cy="-1.270" r="0.450" fill="#12151c"/><rect x="28.410" y="0.470" width="1.600" height="1.600" rx="0.800" fill="#c79b5c"/><circle cx="29.210" cy="1.270" r="0.450" fill="#12151c"/><rect x="28.410" y="-2.070" width="1.600" height="1.600" rx="0.800" fill="#c79b5c"/><circle cx="29.210" cy="-1.270" r="0.450" fill="#12151c"/><rect x="30.950" y="0.470" width="1.600" height="1.600" rx="0.800" fill="#c79b5c"/><circle cx="31.750" cy="1.270" r="0.450" fill="#12151c"/><rect x="30.950" y="-2.070" width="1.600" height="1.600" rx="0.800" fill="#c79b5c"/><circle cx="31.750" cy="-1.270" r="0.450" fill="#12151c"/><rect x="33.490" y="0.470" width="1.600" height="1.600" rx="0.800" fill="#c79b5c"/><circle cx="34.290" cy="1.270" r="0.450" fill="#12151c"/><rect x="33.490" y="-2.070" width="1.600" height="1.600" rx="0.800" fill="#c79b5c"/><circle cx="34.290" cy="-1.270" r="0.450" fill="#12151c"/><rect x="36.030" y="0.470" width="1.600" height="1.600" rx="0.800" fill="#c79b5c"/><circle cx="36.830" cy="1.270" r="0.450" fill="#12151c"/><rect x="36.030" y="-2.070" width="1.600" height="1.600" rx="0.800" fill="#c79b5c"/><circle cx="36.830" cy="-1.270" r="0.450" fill="#12151c"/><rect x="38.570" y="0.470" width="1.600" height="1.600" rx="0.800" fill="#c79b5c"/><circle cx="39.370" cy="1.270" r="0.450" fill="#12151c"/><rect x="38.570" y="-2.070" width="1.600" height="1.600" rx="0.800" fill="#c79b5c"/><circle cx="39.370" cy="-1.270" r="0.450" fill="#12151c"/><rect x="-47.575" y="-2.830" width="4.600" height="4.600" rx="2.300" fill="#c79b5c"/><circle cx="-45.275" cy="-0.530" r="1.400" fill="#12151c"/><rect x="42.975" y="-2.830" width="4.600" height="4.600" rx="2.300" fill="#c79b5c"/><circle cx="45.275" cy="-0.530" r="1.400" fill="#12151c"/></svg>