<svg xmlns="http://www.w3.org/2000/svg" viewBox="-7.13 -2.50 14.26 5.00" preserveAspectRatio="xMidYMid meet" style="width:100%;height:100%"><rect x="-7.13" y="-2.50" width="14.26" height="5.00" fill="#12151c"/><line x1="-3.950" y1="0.000" x2="-3.600" y2="0.000" stroke="#e6e9ef" stroke-width="0.200" stroke-linecap="round" opacity="1"/><line x1="-3.600" y1="-1.250" x2="3.600" y2="-1.250" stroke="#e6e9ef" stroke-width="0.200" stroke-linecap="round" opacity="1"/><line x1="-3.600" y1="1.250" x2="-3.600" y2="-1.250" stroke="#e6e9ef" stroke-width="0.200" stroke-linecap="round" opacity="1"/><line x1="-3.600" y1="1.250" x2="3.600" y2="1.250" stroke="#e6e9ef" stroke-width="0.200" stroke-linecap="round" opacity="1"/><line x1="3.600" y1="0.000" x2="3.950" y2="0.000" stroke="#e6e9ef" stroke-width="0.200" stroke-linecap="round" opacity="1"/><line x1="3.600" y1="1.250" x2="3.600" y2="-1.250" stroke="#e6e9ef" stroke-width="0.200" stroke-linecap="round" opacity="1"/><line x1="-3.950" y1="0.000" x2="-3.600" y2="0.000" stroke="#6b7280" stroke-width="0.100" stroke-linecap="round" opacity="0.8"/><line x1="-3.600" y1="-1.250" x2="3.600" y2="-1.250" stroke="#6b7280" stroke-width="0.100" stroke-linecap="round" opacity="0.8"/><line x1="-3.600" y1="1.250" x2="-3.600" y2="-1.250" stroke="#6b7280" stroke-width="0.100" stroke-linecap="round" opacity="0.8"/><line x1="-3.600" y1="1.250" x2="3.600" y2="1.250" stroke="#6b7280" stroke-width="0.100" stroke-linecap="round" opacity="0.8"/><line x1="3.600" y1="0.000" x2="3.950" y2="0.000" stroke="#6b7280" stroke-width="0.100" stroke-linecap="round" opacity="0.8"/><line x1="3.600" y1="1.250" x2="3.600" y2="-1.250" stroke="#6b7280" stroke-width="0.100" stroke-linecap="round" opacity="0.8"/><line x1="-6.130" y1="-1.500" x2="6.130" y2="-1.500" stroke="#d24d4d" stroke-width="0.080" stroke-linecap="round" opacity="0.7"/><line x1="6.130" y1="-1.500" x2="6.130" y2="1.500" stroke="#d24d4d" stroke-width="0.080" stroke-linecap="round" opacity="0.7"/><line x1="6.130" y1="1.500" x2="-6.130" y2="1.500" stroke="#d24d4d" stroke-width="0.080" stroke-linecap="round" opacity="0.7"/><line x1="-6.130" y1="1.500" x2="-6.130" y2="-1.500" stroke="#d24d4d" stroke-width="0.080" stroke-linecap="round" opacity="0.7"/><rect x="-5.880" y="-0.800" width="1.600" height="1.600" rx="0.800" fill="#c79b5c"/><circle cx="-5.080" cy="0.000" r="0.450" fill="#12151c"/><rect x="4.280" y="-0.800" width="1.600" height="1.600" rx="0.800" fill="#c79b5c"/><circle cx="5.080" cy="0.000" r="0.450" fill="#12151c"/><polygon points="-5.53,1.85 -4.63,1.85 -5.08,1.25" fill="#ffffff"/></svg>