<svg xmlns="http://www.w3.org/2000/svg" viewBox="-1.50 -8.04 34.40 12.13" preserveAspectRatio="xMidYMid meet" style="width:100%;height:100%"><rect x="-1.50" y="-8.04" width="34.40" height="12.13" fill="#12151c"/><g transform="translate(0.00 0)"><polyline points="6.350,-2.540 3.810,-2.540 3.810,2.540 6.350,2.540 6.350,-2.540" fill="#1e222b" stroke="#4ea1ff" stroke-width="0.25" stroke-linejoin="round"/><polyline points="6.350,-1.270 3.810,1.270" fill="none" stroke="#4ea1ff" stroke-width="0.25" stroke-linejoin="round"/><line x1="0.000" y1="-0.000" x2="3.810" y2="-0.000" stroke="#e6e9ef" stroke-width="0.2"/><circle cx="0.000" cy="-0.000" r="0.4" fill="#4ea1ff"/><text x="3.510" y="-0.350" fill="#9aa3b2" font-size="0.9" text-anchor="end" font-family="sans-serif">1</text><line x1="10.160" y1="-0.000" x2="6.350" y2="-0.000" stroke="#e6e9ef" stroke-width="0.2"/><circle cx="10.160" cy="-0.000" r="0.4" fill="#4ea1ff"/><text x="6.650" y="-0.350" fill="#9aa3b2" font-size="0.9" text-anchor="start" font-family="sans-serif">8</text><text x="5.08" y="-4.54" fill="#9aa3b2" font-size="1.6" text-anchor="middle" font-family="sans-serif">A</text></g><g transform="translate(16.16 0)"><polyline points="2.540,2.540 2.540,-0.000" fill="none" stroke="#4ea1ff" stroke-width="0.25" stroke-linejoin="round"/><polyline points="4.445,1.270 2.540,1.270" fill="none" stroke="#4ea1ff" stroke-width="0.25" stroke-linejoin="round"/><polyline points="9.906,-0.508 5.588,1.016" fill="none" stroke="#4ea1ff" stroke-width="0.25" stroke-linejoin="round"/><polyline points="10.795,1.270 12.700,1.270" fill="none" stroke="#4ea1ff" stroke-width="0.25" stroke-linejoin="round"/><polyline points="12.700,-0.000 12.700,2.540" fill="none" stroke="#4ea1ff" stroke-width="0.25" stroke-linejoin="round"/><circle cx="2.540" cy="1.270" r="0.254" fill="none" stroke="#4ea1ff" stroke-width="0.25"/><circle cx="5.080" cy="1.270" r="0.635" fill="none" stroke="#4ea1ff" stroke-width="0.25"/><circle cx="10.160" cy="1.270" r="0.635" fill="none" stroke="#4ea1ff" stroke-width="0.25"/><circle cx="12.700" cy="1.270" r="0.254" fill="none" stroke="#4ea1ff" stroke-width="0.25"/><line x1="0.000" y1="-0.000" x2="2.540" y2="-0.000" stroke="#e6e9ef" stroke-width="0.2"/><circle cx="0.000" cy="-0.000" r="0.4" fill="#4ea1ff"/><text x="2.240" y="-0.350" fill="#9aa3b2" font-size="0.9" text-anchor="end" font-family="sans-serif">3</text><line x1="0.000" y1="2.540" x2="2.540" y2="2.540" stroke="#e6e9ef" stroke-width="0.2"/><circle cx="0.000" cy="2.540" r="0.4" fill="#4ea1ff"/><text x="2.240" y="2.190" fill="#9aa3b2" font-size="0.9" text-anchor="end" font-family="sans-serif">6</text><line x1="15.240" y1="-0.000" x2="12.700" y2="-0.000" stroke="#e6e9ef" stroke-width="0.2"/><circle cx="15.240" cy="-0.000" r="0.4" fill="#4ea1ff"/><text x="13.000" y="-0.350" fill="#9aa3b2" font-size="0.9" text-anchor="start" font-family="sans-serif">4</text><line x1="15.240" y1="2.540" x2="12.700" y2="2.540" stroke="#e6e9ef" stroke-width="0.2"/><circle cx="15.240" cy="2.540" r="0.4" fill="#4ea1ff"/><text x="13.000" y="2.190" fill="#9aa3b2" font-size="0.9" text-anchor="start" font-family="sans-serif">5</text><text x="7.62" y="-3.55" fill="#9aa3b2" font-size="1.6" text-anchor="middle" font-family="sans-serif">B</text></g></svg>