<svg xmlns="http://www.w3.org/2000/svg" viewBox="-2.23 -4.20 23.23 52.40" preserveAspectRatio="xMidYMid meet" style="width:100%;height:100%"><rect x="-2.23" y="-4.20" width="23.23" height="52.40" fill="#12151c"/><line x1="-1.230" y1="-3.200" x2="20.000" y2="-3.200" stroke="#d24d4d" stroke-width="0.080" stroke-linecap="round" opacity="0.7"/><line x1="20.000" y1="-3.200" x2="20.000" y2="47.200" stroke="#d24d4d" stroke-width="0.080" stroke-linecap="round" opacity="0.7"/><line x1="20.000" y1="47.200" x2="-1.230" y2="47.200" stroke="#d24d4d" stroke-width="0.080" stroke-linecap="round" opacity="0.7"/><line x1="-1.230" y1="47.200" x2="-1.230" y2="-3.200" stroke="#d24d4d" stroke-width="0.080" stroke-linecap="round" opacity="0.7"/><path d="M 11.249 19.200 A 0.200 0.200 0 0 1 11.449 19.000" fill="none" stroke="#e6e9ef" stroke-width="0.12" opacity="1"/><path d="M 11.449 25.000 A 0.200 0.200 0 0 1 11.249 24.800" fill="none" stroke="#e6e9ef" stroke-width="0.12" opacity="1"/><path d="M 14.049 -2.550 A 0.150 0.150 0 0 1 14.199 -2.700" fill="none" stroke="#e6e9ef" stroke-width="0.12" opacity="1"/><path d="M 14.049 -0.550 A 0.150 0.150 0 0 1 14.199 -0.700" fill="none" stroke="#e6e9ef" stroke-width="0.12" opacity="1"/><path d="M 14.049 1.450 A 0.150 0.150 0 0 1 14.199 1.300" fill="none" stroke="#e6e9ef" stroke-width="0.12" opacity="1"/><path d="M 14.049 3.450 A 0.150 0.150 0 0 1 14.199 3.300" fill="none" stroke="#e6e9ef" stroke-width="0.12" opacity="1"/><path d="M 14.049 5.450 A 0.150 0.150 0 0 1 14.199 5.300" fill="none" stroke="#e6e9ef" stroke-width="0.12" opacity="1"/><path d="M 14.049 7.450 A 0.150 0.150 0 0 1 14.199 7.300" fill="none" stroke="#e6e9ef" stroke-width="0.12" opacity="1"/><path d="M 14.049 9.450 A 0.150 0.150 0 0 1 14.199 9.300" fill="none" stroke="#e6e9ef" stroke-width="0.12" opacity="1"/><path d="M 14.049 11.450 A 0.150 0.150 0 0 1 14.199 11.300" fill="none" stroke="#e6e9ef" stroke-width="0.12" opacity="1"/><path d="M 14.049 13.450 A 0.150 0.150 0 0 1 14.199 13.300" fill="none" stroke="#e6e9ef" stroke-width="0.12" opacity="1"/><path d="M 14.049 15.450 A 0.150 0.150 0 0 1 14.199 15.300" fill="none" stroke="#e6e9ef" stroke-width="0.12" opacity="1"/><path d="M 14.049 17.450 A 0.150 0.150 0 0 1 14.199 17.300" fill="none" stroke="#e6e9ef" stroke-width="0.12" opacity="1"/><path d="M 14.049 25.450 A 0.150 0.150 0 0 1 14.199 25.300" fill="none" stroke="#e6e9ef" stroke-width="0.12" opacity="1"/><path d="M 14.049 27.450 A 0.150 0.150 0 0 1 14.199 27.300" fill="none" stroke="#e6e9ef" stroke-width="0.12" opacity="1"/><path d="M 14.049 29.450 A 0.150 0.150 0 0 1 14.199 29.300" fill="none" stroke="#e6e9ef" stroke-width="0.12" opacity="1"/><path d="M 14.049 31.450 A 0.150 0.150 0 0 1 14.199 31.300" fill="none" stroke="#e6e9ef" stroke-width="0.12" opacity="1"/><path d="M 14.049 33.450 A 0.150 0.150 0 0 1 14.199 33.300" fill="none" stroke="#e6e9ef" stroke-width="0.12" opacity="1"/><path d="M 14.049 35.450 A 0.150 0.150 0 0 1 14.199 35.300" fill="none" stroke="#e6e9ef" stroke-width="0.12" opacity="1"/><path d="M 14.049 37.450 A 0.150 0.150 0 0 1 14.199 37.300" fill="none" stroke="#e6e9ef" stroke-width="0.12" opacity="1"/><path d="M 14.049 39.450 A 0.150 0.150 0 0 1 14.199 39.300" fill="none" stroke="#e6e9ef" stroke-width="0.12" opacity="1"/><path d="M 14.049 41.450 A 0.150 0.150 0 0 1 14.199 41.300" fill="none" stroke="#e6e9ef" stroke-width="0.12" opacity="1"/><path d="M 14.049 43.450 A 0.150 0.150 0 0 1 14.199 43.300" fill="none" stroke="#e6e9ef" stroke-width="0.12" opacity="1"/><path d="M 14.049 45.450 A 0.150 0.150 0 0 1 14.199 45.300" fill="none" stroke="#e6e9ef" stroke-width="0.12" opacity="1"/><path d="M 14.199 -1.300 A 0.150 0.150 0 0 1 14.049 -1.450" fill="none" stroke="#e6e9ef" stroke-width="0.12" opacity="1"/><path d="M 14.199 0.700 A 0.150 0.150 0 0 1 14.049 0.550" fill="none" stroke="#e6e9ef" stroke-width="0.12" opacity="1"/><path d="M 14.199 2.700 A 0.150 0.150 0 0 1 14.049 2.550" fill="none" stroke="#e6e9ef" stroke-width="0.12" opacity="1"/><path d="M 14.199 4.700 A 0.150 0.150 0 0 1 14.049 4.550" fill="none" stroke="#e6e9ef" stroke-width="0.12" opacity="1"/><path d="M 14.199 6.700 A 0.150 0.150 0 0 1 14.049 6.550" fill="none" stroke="#e6e9ef" stroke-width="0.12" opacity="1"/><path d="M 14.199 8.700 A 0.150 0.150 0 0 1 14.049 8.550" fill="none" stroke="#e6e9ef" stroke-width="0.12" opacity="1"/><path d="M 14.199 10.700 A 0.150 0.150 0 0 1 14.049 10.550" fill="none" stroke="#e6e9ef" stroke-width="0.12" opacity="1"/><path d="M 14.199 12.700 A 0.150 0.150 0 0 1 14.049 12.550" fill="none" stroke="#e6e9ef" stroke-width="0.12" opacity="1"/><path d="M 14.199 14.700 A 0.150 0.150 0 0 1 14.049 14.550" fill="none" stroke="#e6e9ef" stroke-width="0.12" opacity="1"/><path d="M 14.199 16.700 A 0.150 0.150 0 0 1 14.049 16.550" fill="none" stroke="#e6e9ef" stroke-width="0.12" opacity="1"/><path d="M 14.199 18.700 A 0.150 0.150 0 0 1 14.049 18.550" fill="none" stroke="#e6e9ef" stroke-width="0.12" opacity="1"/><path d="M 14.199 26.700 A 0.150 0.150 0 0 1 14.049 26.550" fill="none" stroke="#e6e9ef" stroke-width="0.12" opacity="1"/><path d="M 14.199 28.700 A 0.150 0.150 0 0 1 14.049 28.550" fill="none" stroke="#e6e9ef" stroke-width="0.12" opacity="1"/><path d="M 14.199 30.700 A 0.150 0.150 0 0 1 14.049 30.550" fill="none" stroke="#e6e9ef" stroke-width="0.12" opacity="1"/><path d="M 14.199 32.700 A 0.150 0.150 0 0 1 14.049 32.550" fill="none" stroke="#e6e9ef" stroke-width="0.12" opacity="1"/><path d="M 14.199 34.700 A 0.150 0.150 0 0 1 14.049 34.550" fill="none" stroke="#e6e9ef" stroke-width="0.12" opacity="1"/><path d="M 14.199 36.700 A 0.150 0.150 0 0 1 14.049 36.550" fill="none" stroke="#e6e9ef" stroke-width="0.12" opacity="1"/><path d="M 14.199 38.700 A 0.150 0.150 0 0 1 14.049 38.550" fill="none" stroke="#e6e9ef" stroke-width="0.12" opacity="1"/><path d="M 14.199 40.700 A 0.150 0.150 0 0 1 14.049 40.550" fill="none" stroke="#e6e9ef" stroke-width="0.12" opacity="1"/><path d="M 14.199 42.700 A 0.150 0.150 0 0 1 14.049 42.550" fill="none" stroke="#e6e9ef" stroke-width="0.12" opacity="1"/><path d="M 14.199 44.700 A 0.150 0.150 0 0 1 14.049 44.550" fill="none" stroke="#e6e9ef" stroke-width="0.12" opacity="1"/><path d="M 14.199 46.700 A 0.150 0.150 0 0 1 14.049 46.550" fill="none" stroke="#e6e9ef" stroke-width="0.12" opacity="1"/><path d="M 14.799 -2.200 A 0.199 0.199 0 0 1 14.982 -2.399" fill="none" stroke="#e6e9ef" stroke-width="0.12" opacity="1"/><path d="M 14.799 -0.200 A 0.199 0.199 0 0 1 14.982 -0.399" fill="none" stroke="#e6e9ef" stroke-width="0.12" opacity="1"/><path d="M 14.799 1.800 A 0.199 0.199 0 0 1 14.982 1.601" fill="none" stroke="#e6e9ef" stroke-width="0.12" opacity="1"/><path d="M 14.799 3.800 A 0.199 0.199 0 0 1 14.982 3.601" fill="none" stroke="#e6e9ef" stroke-width="0.12" opacity="1"/><path d="M 14.799 5.800 A 0.199 0.199 0 0 1 14.982 5.601" fill="none" stroke="#e6e9ef" stroke-width="0.12" opacity="1"/><path d="M 14.799 7.800 A 0.199 0.199 0 0 1 14.982 7.601" fill="none" stroke="#e6e9ef" stroke-width="0.12" opacity="1"/><path d="M 14.799 9.800 A 0.199 0.199 0 0 1 14.982 9.601" fill="none" stroke="#e6e9ef" stroke-width="0.12" opacity="1"/><path d="M 14.799 11.800 A 0.199 0.199 0 0 1 14.982 11.601" fill="none" stroke="#e6e9ef" stroke-width="0.12" opacity="1"/><path d="M 14.799 13.800 A 0.199 0.199 0 0 1 14.982 13.601" fill="none" stroke="#e6e9ef" stroke-width="0.12" opacity="1"/><path d="M 14.799 15.800 A 0.199 0.199 0 0 1 14.982 15.601" fill="none" stroke="#e6e9ef" stroke-width="0.12" opacity="1"/><path d="M 14.799 17.800 A 0.199 0.199 0 0 1 14.982 17.601" fill="none" stroke="#e6e9ef" stroke-width="0.12" opacity="1"/><path d="M 14.799 25.800 A 0.199 0.199 0 0 1 14.982 25.601" fill="none" stroke="#e6e9ef" stroke-width="0.12" opacity="1"/><path d="M 14.799 27.800 A 0.199 0.199 0 0 1 14.982 27.601" fill="none" stroke="#e6e9ef" stroke-width="0.12" opacity="1"/><path d="M 14.799 29.800 A 0.199 0.199 0 0 1 14.982 29.601" fill="none" stroke="#e6e9ef" stroke-width="0.12" opacity="1"/><path d="M 14.799 31.800 A 0.199 0.199 0 0 1 14.982 31.601" fill="none" stroke="#e6e9ef" stroke-width="0.12" opacity="1"/><path d="M 14.799 33.800 A 0.199 0.199 0 0 1 14.982 33.601" fill="none" stroke="#e6e9ef" stroke-width="0.12" opacity="1"/><path d="M 14.799 35.800 A 0.199 0.199 0 0 1 14.982 35.601" fill="none" stroke="#e6e9ef" stroke-width="0.12" opacity="1"/><path d="M 14.799 37.800 A 0.199 0.199 0 0 1 14.982 37.601" fill="none" stroke="#e6e9ef" stroke-width="0.12" opacity="1"/><path d="M 14.799 39.800 A 0.199 0.199 0 0 1 14.982 39.601" fill="none" stroke="#e6e9ef" stroke-width="0.12" opacity="1"/><path d="M 14.799 41.800 A 0.199 0.199 0 0 1 14.982 41.601" fill="none" stroke="#e6e9ef" stroke-width="0.12" opacity="1"/><path d="M 14.799 43.800 A 0.199 0.199 0 0 1 14.982 43.601" fill="none" stroke="#e6e9ef" stroke-width="0.12" opacity="1"/><path d="M 14.799 45.800 A 0.199 0.199 0 0 1 14.982 45.601" fill="none" stroke="#e6e9ef" stroke-width="0.12" opacity="1"/><path d="M 14.998 -1.600 A 0.199 0.199 0 0 1 14.799 -1.800" fill="none" stroke="#e6e9ef" stroke-width="0.12" opacity="1"/><path d="M 14.998 0.400 A 0.199 0.199 0 0 1 14.799 0.200" fill="none" stroke="#e6e9ef" stroke-width="0.12" opacity="1"/><path d="M 14.998 2.400 A 0.199 0.199 0 0 1 14.799 2.200" fill="none" stroke="#e6e9ef" stroke-width="0.12" opacity="1"/><path d="M 14.998 4.400 A 0.199 0.199 0 0 1 14.799 4.200" fill="none" stroke="#e6e9ef" stroke-width="0.12" opacity="1"/><path d="M 14.998 6.400 A 0.199 0.199 0 0 1 14.799 6.200" fill="none" stroke="#e6e9ef" stroke-width="0.12" opacity="1"/><path d="M 14.998 8.400 A 0.199 0.199 0 0 1 14.799 8.200" fill="none" stroke="#e6e9ef" stroke-width="0.12" opacity="1"/><path d="M 14.998 10.400 A 0.199 0.199 0 0 1 14.799 10.200" fill="none" stroke="#e6e9ef" stroke-width="0.12" opacity="1"/><path d="M 14.998 12.400 A 0.199 0.199 0 0 1 14.799 12.200" fill="none" stroke="#e6e9ef" stroke-width="0.12" opacity="1"/><path d="M 14.998 14.400 A 0.199 0.199 0 0 1 14.799 14.200" fill="none" stroke="#e6e9ef" stroke-width="0.12" opacity="1"/><path d="M 14.998 16.400 A 0.199 0.199 0 0 1 14.799 16.200" fill="none" stroke="#e6e9ef" stroke-width="0.12" opacity="1"/><path d="M 14.998 18.400 A 0.199 0.199 0 0 1 14.799 18.200" fill="none" stroke="#e6e9ef" stroke-width="0.12" opacity="1"/><path d="M 14.998 26.400 A 0.199 0.199 0 0 1 14.799 26.200" fill="none" stroke="#e6e9ef" stroke-width="0.12" opacity="1"/><path d="M 14.998 28.400 A 0.199 0.199 0 0 1 14.799 28.200" fill="none" stroke="#e6e9ef" stroke-width="0.12" opacity="1"/><path d="M 14.998 30.400 A 0.199 0.199 0 0 1 14.799 30.200" fill="none" stroke="#e6e9ef" stroke-width="0.12" opacity="1"/><path d="M 14.998 32.400 A 0.199 0.199 0 0 1 14.799 32.200" fill="none" stroke="#e6e9ef" stroke-width="0.12" opacity="1"/><path d="M 14.998 34.400 A 0.199 0.199 0 0 1 14.799 34.200" fill="none" stroke="#e6e9ef" stroke-width="0.12" opacity="1"/><path d="M 14.998 36.400 A 0.199 0.199 0 0 1 14.799 36.200" fill="none" stroke="#e6e9ef" stroke-width="0.12" opacity="1"/><path d="M 14.998 38.400 A 0.199 0.199 0 0 1 14.799 38.200" fill="none" stroke="#e6e9ef" stroke-width="0.12" opacity="1"/><path d="M 14.998 40.400 A 0.199 0.199 0 0 1 14.799 40.200" fill="none" stroke="#e6e9ef" stroke-width="0.12" opacity="1"/><path d="M 14.998 42.400 A 0.199 0.199 0 0 1 14.799 42.200" fill="none" stroke="#e6e9ef" stroke-width="0.12" opacity="1"/><path d="M 14.998 44.400 A 0.199 0.199 0 0 1 14.799 44.200" fill="none" stroke="#e6e9ef" stroke-width="0.12" opacity="1"/><path d="M 14.998 46.400 A 0.199 0.199 0 0 1 14.799 46.200" fill="none" stroke="#e6e9ef" stroke-width="0.12" opacity="1"/><path d="M 19.099 -2.700 A 0.150 0.150 0 1 1 19.099 -2.400" fill="none" stroke="#e6e9ef" stroke-width="0.12" opacity="1"/><path d="M 19.099 -0.700 A 0.150 0.150 0 1 1 19.099 -0.400" fill="none" stroke="#e6e9ef" stroke-width="0.12" opacity="1"/><path d="M 19.099 1.300 A 0.150 0.150 0 0 1 19.099 1.600" fill="none" stroke="#e6e9ef" stroke-width="0.12" opacity="1"/><path d="M 19.099 3.300 A 0.150 0.150 0 1 1 19.099 3.600" fill="none" stroke="#e6e9ef" stroke-width="0.12" opacity="1"/><path d="M 19.099 5.300 A 0.150 0.150 0 0 1 19.099 5.600" fill="none" stroke="#e6e9ef" stroke-width="0.12" opacity="1"/><path d="M 19.099 7.300 A 0.150 0.150 0 0 1 19.099 7.600" fill="none" stroke="#e6e9ef" stroke-width="0.12" opacity="1"/><path d="M 19.099 9.300 A 0.150 0.150 0 0 1 19.099 9.600" fill="none" stroke="#e6e9ef" stroke-width="0.12" opacity="1"/><path d="M 19.099 11.300 A 0.150 0.150 0 0 1 19.099 11.600" fill="none" stroke="#e6e9ef" stroke-width="0.12" opacity="1"/><path d="M 19.099 13.300 A 0.150 0.150 0 0 1 19.099 13.600" fill="none" stroke="#e6e9ef" stroke-width="0.12" opacity="1"/><path d="M 19.099 15.300 A 0.150 0.150 0 0 1 19.099 15.600" fill="none" stroke="#e6e9ef" stroke-width="0.12" opacity="1"/><path d="M 19.099 17.300 A 0.150 0.150 0 1 1 19.099 17.600" fill="none" stroke="#e6e9ef" stroke-width="0.12" opacity="1"/><path d="M 19.099 25.300 A 0.150 0.150 0 0 1 19.099 25.600" fill="none" stroke="#e6e9ef" stroke-width="0.12" opacity="1"/><path d="M 19.099 27.300 A 0.150 0.150 0 0 1 19.099 27.600" fill="none" stroke="#e6e9ef" stroke-width="0.12" opacity="1"/><path d="M 19.099 29.300 A 0.150 0.150 0 0 1 19.099 29.600" fill="none" stroke="#e6e9ef" stroke-width="0.12" opacity="1"/><path d="M 19.099 31.300 A 0.150 0.150 0 1 1 19.099 31.600" fill="none" stroke="#e6e9ef" stroke-width="0.12" opacity="1"/><path d="M 19.099 33.300 A 0.150 0.150 0 0 1 19.099 33.600" fill="none" stroke="#e6e9ef" stroke-width="0.12" opacity="1"/><path d="M 19.099 35.300 A 0.150 0.150 0 1 1 19.099 35.600" fill="none" stroke="#e6e9ef" stroke-width="0.12" opacity="1"/><path d="M 19.099 37.300 A 0.150 0.150 0 1 1 19.099 37.600" fill="none" stroke="#e6e9ef" stroke-width="0.12" opacity="1"/><path d="M 19.099 39.300 A 0.150 0.150 0 0 1 19.099 39.600" fill="none" stroke="#e6e9ef" stroke-width="0.12" opacity="1"/><path d="M 19.099 41.300 A 0.150 0.150 0 1 1 19.099 41.600" fill="none" stroke="#e6e9ef" stroke-width="0.12" opacity="1"/><path d="M 19.099 43.300 A 0.150 0.150 0 0 1 19.099 43.600" fill="none" stroke="#e6e9ef" stroke-width="0.12" opacity="1"/><path d="M 19.099 45.300 A 0.150 0.150 0 1 1 19.099 45.600" fill="none" stroke="#e6e9ef" stroke-width="0.12" opacity="1"/><path d="M 19.099 -1.600 A 0.150 0.150 0 0 1 19.099 -1.300" fill="none" stroke="#e6e9ef" stroke-width="0.12" opacity="1"/><path d="M 19.099 0.400 A 0.150 0.150 0 0 1 19.099 0.700" fill="none" stroke="#e6e9ef" stroke-width="0.12" opacity="1"/><path d="M 19.099 2.400 A 0.150 0.150 0 0 1 19.099 2.700" fill="none" stroke="#e6e9ef" stroke-width="0.12" opacity="1"/><path d="M 19.099 4.400 A 0.150 0.150 0 0 1 19.099 4.700" fill="none" stroke="#e6e9ef" stroke-width="0.12" opacity="1"/><path d="M 19.099 6.400 A 0.150 0.150 0 0 1 19.099 6.700" fill="none" stroke="#e6e9ef" stroke-width="0.12" opacity="1"/><path d="M 19.099 8.400 A 0.150 0.150 0 0 1 19.099 8.700" fill="none" stroke="#e6e9ef" stroke-width="0.12" opacity="1"/><path d="M 19.099 10.400 A 0.150 0.150 0 0 1 19.099 10.700" fill="none" stroke="#e6e9ef" stroke-width="0.12" opacity="1"/><path d="M 19.099 12.400 A 0.150 0.150 0 0 1 19.099 12.700" fill="none" stroke="#e6e9ef" stroke-width="0.12" opacity="1"/><path d="M 19.099 14.400 A 0.150 0.150 0 0 1 19.099 14.700" fill="none" stroke="#e6e9ef" stroke-width="0.12" opacity="1"/><path d="M 19.099 16.400 A 0.150 0.150 0 0 1 19.099 16.700" fill="none" stroke="#e6e9ef" stroke-width="0.12" opacity="1"/><path d="M 19.099 18.400 A 0.150 0.150 0 0 1 19.099 18.700" fill="none" stroke="#e6e9ef" stroke-width="0.12" opacity="1"/><path d="M 19.099 26.400 A 0.150 0.150 0 0 1 19.099 26.700" fill="none" stroke="#e6e9ef" stroke-width="0.12" opacity="1"/><path d="M 19.099 28.400 A 0.150 0.150 0 0 1 19.099 28.700" fill="none" stroke="#e6e9ef" stroke-width="0.12" opacity="1"/><path d="M 19.099 30.400 A 0.150 0.150 0 0 1 19.099 30.700" fill="none" stroke="#e6e9ef" stroke-width="0.12" opacity="1"/><path d="M 19.099 32.400 A 0.150 0.150 0 0 1 19.099 32.700" fill="none" stroke="#e6e9ef" stroke-width="0.12" opacity="1"/><path d="M 19.099 34.400 A 0.150 0.150 0 0 1 19.099 34.700" fill="none" stroke="#e6e9ef" stroke-width="0.12" opacity="1"/><path d="M 19.099 36.400 A 0.150 0.150 0 0 1 19.099 36.700" fill="none" stroke="#e6e9ef" stroke-width="0.12" opacity="1"/><path d="M 19.099 38.400 A 0.150 0.150 0 0 1 19.099 38.700" fill="none" stroke="#e6e9ef" stroke-width="0.12" opacity="1"/><path d="M 19.099 40.400 A 0.150 0.150 0 0 1 19.099 40.700" fill="none" stroke="#e6e9ef" stroke-width="0.12" opacity="1"/><path d="M 19.099 42.400 A 0.150 0.150 0 0 1 19.099 42.700" fill="none" stroke="#e6e9ef" stroke-width="0.12" opacity="1"/><path d="M 19.099 44.400 A 0.150 0.150 0 0 1 19.099 44.700" fill="none" stroke="#e6e9ef" stroke-width="0.12" opacity="1"/><path d="M 19.099 46.400 A 0.150 0.150 0 0 1 19.099 46.700" fill="none" stroke="#e6e9ef" stroke-width="0.12" opacity="1"/><path d="M 11.249 19.200 A 0.200 0.200 0 0 1 11.449 19.000" fill="none" stroke="#6b7280" stroke-width="0.12" opacity="0.8"/><path d="M 11.449 25.000 A 0.200 0.200 0 0 1 11.249 24.800" fill="none" stroke="#6b7280" stroke-width="0.12" opacity="0.8"/><path d="M 14.049 -2.550 A 0.150 0.150 0 0 1 14.199 -2.700" fill="none" stroke="#6b7280" stroke-width="0.12" opacity="0.8"/><path d="M 14.049 -0.550 A 0.150 0.150 0 0 1 14.199 -0.700" fill="none" stroke="#6b7280" stroke-width="0.12" opacity="0.8"/><path d="M 14.049 1.450 A 0.150 0.150 0 0 1 14.199 1.300" fill="none" stroke="#6b7280" stroke-width="0.12" opacity="0.8"/><path d="M 14.049 3.450 A 0.150 0.150 0 0 1 14.199 3.300" fill="none" stroke="#6b7280" stroke-width="0.12" opacity="0.8"/><path d="M 14.049 5.450 A 0.150 0.150 0 0 1 14.199 5.300" fill="none" stroke="#6b7280" stroke-width="0.12" opacity="0.8"/><path d="M 14.049 7.450 A 0.150 0.150 0 0 1 14.199 7.300" fill="none" stroke="#6b7280" stroke-width="0.12" opacity="0.8"/><path d="M 14.049 9.450 A 0.150 0.150 0 0 1 14.199 9.300" fill="none" stroke="#6b7280" stroke-width="0.12" opacity="0.8"/><path d="M 14.049 11.450 A 0.150 0.150 0 0 1 14.199 11.300" fill="none" stroke="#6b7280" stroke-width="0.12" opacity="0.8"/><path d="M 14.049 13.450 A 0.150 0.150 0 0 1 14.199 13.300" fill="none" stroke="#6b7280" stroke-width="0.12" opacity="0.8"/><path d="M 14.049 15.450 A 0.150 0.150 0 0 1 14.199 15.300" fill="none" stroke="#6b7280" stroke-width="0.12" opacity="0.8"/><path d="M 14.049 17.450 A 0.150 0.150 0 0 1 14.199 17.300" fill="none" stroke="#6b7280" stroke-width="0.12" opacity="0.8"/><path d="M 14.049 25.450 A 0.150 0.150 0 0 1 14.199 25.300" fill="none" stroke="#6b7280" stroke-width="0.12" opacity="0.8"/><path d="M 14.049 27.450 A 0.150 0.150 0 0 1 14.199 27.300" fill="none" stroke="#6b7280" stroke-width="0.12" opacity="0.8"/><path d="M 14.049 29.450 A 0.150 0.150 0 0 1 14.199 29.300" fill="none" stroke="#6b7280" stroke-width="0.12" opacity="0.8"/><path d="M 14.049 31.450 A 0.150 0.150 0 0 1 14.199 31.300" fill="none" stroke="#6b7280" stroke-width="0.12" opacity="0.8"/><path d="M 14.049 33.450 A 0.150 0.150 0 0 1 14.199 33.300" fill="none" stroke="#6b7280" stroke-width="0.12" opacity="0.8"/><path d="M 14.049 35.450 A 0.150 0.150 0 0 1 14.199 35.300" fill="none" stroke="#6b7280" stroke-width="0.12" opacity="0.8"/><path d="M 14.049 37.450 A 0.150 0.150 0 0 1 14.199 37.300" fill="none" stroke="#6b7280" stroke-width="0.12" opacity="0.8"/><path d="M 14.049 39.450 A 0.150 0.150 0 0 1 14.199 39.300" fill="none" stroke="#6b7280" stroke-width="0.12" opacity="0.8"/><path d="M 14.049 41.450 A 0.150 0.150 0 0 1 14.199 41.300" fill="none" stroke="#6b7280" stroke-width="0.12" opacity="0.8"/><path d="M 14.049 43.450 A 0.150 0.150 0 0 1 14.199 43.300" fill="none" stroke="#6b7280" stroke-width="0.12" opacity="0.8"/><path d="M 14.049 45.450 A 0.150 0.150 0 0 1 14.199 45.300" fill="none" stroke="#6b7280" stroke-width="0.12" opacity="0.8"/><path d="M 14.199 -1.300 A 0.150 0.150 0 0 1 14.049 -1.450" fill="none" stroke="#6b7280" stroke-width="0.12" opacity="0.8"/><path d="M 14.199 0.700 A 0.150 0.150 0 0 1 14.049 0.550" fill="none" stroke="#6b7280" stroke-width="0.12" opacity="0.8"/><path d="M 14.199 2.700 A 0.150 0.150 0 0 1 14.049 2.550" fill="none" stroke="#6b7280" stroke-width="0.12" opacity="0.8"/><path d="M 14.199 4.700 A 0.150 0.150 0 0 1 14.049 4.550" fill="none" stroke="#6b7280" stroke-width="0.12" opacity="0.8"/><path d="M 14.199 6.700 A 0.150 0.150 0 0 1 14.049 6.550" fill="none" stroke="#6b7280" stroke-width="0.12" opacity="0.8"/><path d="M 14.199 8.700 A 0.150 0.150 0 0 1 14.049 8.550" fill="none" stroke="#6b7280" stroke-width="0.12" opacity="0.8"/><path d="M 14.199 10.700 A 0.150 0.150 0 0 1 14.049 10.550" fill="none" stroke="#6b7280" stroke-width="0.12" opacity="0.8"/><path d="M 14.199 12.700 A 0.150 0.150 0 0 1 14.049 12.550" fill="none" stroke="#6b7280" stroke-width="0.12" opacity="0.8"/><path d="M 14.199 14.700 A 0.150 0.150 0 0 1 14.049 14.550" fill="none" stroke="#6b7280" stroke-width="0.12" opacity="0.8"/><path d="M 14.199 16.700 A 0.150 0.150 0 0 1 14.049 16.550" fill="none" stroke="#6b7280" stroke-width="0.12" opacity="0.8"/><path d="M 14.199 18.700 A 0.150 0.150 0 0 1 14.049 18.550" fill="none" stroke="#6b7280" stroke-width="0.12" opacity="0.8"/><path d="M 14.199 26.700 A 0.150 0.150 0 0 1 14.049 26.550" fill="none" stroke="#6b7280" stroke-width="0.12" opacity="0.8"/><path d="M 14.199 28.700 A 0.150 0.150 0 0 1 14.049 28.550" fill="none" stroke="#6b7280" stroke-width="0.12" opacity="0.8"/><path d="M 14.199 30.700 A 0.150 0.150 0 0 1 14.049 30.550" fill="none" stroke="#6b7280" stroke-width="0.12" opacity="0.8"/><path d="M 14.199 32.700 A 0.150 0.150 0 0 1 14.049 32.550" fill="none" stroke="#6b7280" stroke-width="0.12" opacity="0.8"/><path d="M 14.199 34.700 A 0.150 0.150 0 0 1 14.049 34.550" fill="none" stroke="#6b7280" stroke-width="0.12" opacity="0.8"/><path d="M 14.199 36.700 A 0.150 0.150 0 0 1 14.049 36.550" fill="none" stroke="#6b7280" stroke-width="0.12" opacity="0.8"/><path d="M 14.199 38.700 A 0.150 0.150 0 0 1 14.049 38.550" fill="none" stroke="#6b7280" stroke-width="0.12" opacity="0.8"/><path d="M 14.199 40.700 A 0.150 0.150 0 0 1 14.049 40.550" fill="none" stroke="#6b7280" stroke-width="0.12" opacity="0.8"/><path d="M 14.199 42.700 A 0.150 0.150 0 0 1 14.049 42.550" fill="none" stroke="#6b7280" stroke-width="0.12" opacity="0.8"/><path d="M 14.199 44.700 A 0.150 0.150 0 0 1 14.049 44.550" fill="none" stroke="#6b7280" stroke-width="0.12" opacity="0.8"/><path d="M 14.199 46.700 A 0.150 0.150 0 0 1 14.049 46.550" fill="none" stroke="#6b7280" stroke-width="0.12" opacity="0.8"/><path d="M 14.799 -2.200 A 0.199 0.199 0 0 1 14.982 -2.399" fill="none" stroke="#6b7280" stroke-width="0.12" opacity="0.8"/><path d="M 14.799 -0.200 A 0.199 0.199 0 0 1 14.982 -0.399" fill="none" stroke="#6b7280" stroke-width="0.12" opacity="0.8"/><path d="M 14.799 1.800 A 0.199 0.199 0 0 1 14.982 1.601" fill="none" stroke="#6b7280" stroke-width="0.12" opacity="0.8"/><path d="M 14.799 3.800 A 0.199 0.199 0 0 1 14.982 3.601" fill="none" stroke="#6b7280" stroke-width="0.12" opacity="0.8"/><path d="M 14.799 5.800 A 0.199 0.199 0 0 1 14.982 5.601" fill="none" stroke="#6b7280" stroke-width="0.12" opacity="0.8"/><path d="M 14.799 7.800 A 0.199 0.199 0 0 1 14.982 7.601" fill="none" stroke="#6b7280" stroke-width="0.12" opacity="0.8"/><path d="M 14.799 9.800 A 0.199 0.199 0 0 1 14.982 9.601" fill="none" stroke="#6b7280" stroke-width="0.12" opacity="0.8"/><path d="M 14.799 11.800 A 0.199 0.199 0 0 1 14.982 11.601" fill="none" stroke="#6b7280" stroke-width="0.12" opacity="0.8"/><path d="M 14.799 13.800 A 0.199 0.199 0 0 1 14.982 13.601" fill="none" stroke="#6b7280" stroke-width="0.12" opacity="0.8"/><path d="M 14.799 15.800 A 0.199 0.199 0 0 1 14.982 15.601" fill="none" stroke="#6b7280" stroke-width="0.12" opacity="0.8"/><path d="M 14.799 17.800 A 0.199 0.199 0 0 1 14.982 17.601" fill="none" stroke="#6b7280" stroke-width="0.12" opacity="0.8"/><path d="M 14.799 25.800 A 0.199 0.199 0 0 1 14.982 25.601" fill="none" stroke="#6b7280" stroke-width="0.12" opacity="0.8"/><path d="M 14.799 27.800 A 0.199 0.199 0 0 1 14.982 27.601" fill="none" stroke="#6b7280" stroke-width="0.12" opacity="0.8"/><path d="M 14.799 29.800 A 0.199 0.199 0 0 1 14.982 29.601" fill="none" stroke="#6b7280" stroke-width="0.12" opacity="0.8"/><path d="M 14.799 31.800 A 0.199 0.199 0 0 1 14.982 31.601" fill="none" stroke="#6b7280" stroke-width="0.12" opacity="0.8"/><path d="M 14.799 33.800 A 0.199 0.199 0 0 1 14.982 33.601" fill="none" stroke="#6b7280" stroke-width="0.12" opacity="0.8"/><path d="M 14.799 35.800 A 0.199 0.199 0 0 1 14.982 35.601" fill="none" stroke="#6b7280" stroke-width="0.12" opacity="0.8"/><path d="M 14.799 37.800 A 0.199 0.199 0 0 1 14.982 37.601" fill="none" stroke="#6b7280" stroke-width="0.12" opacity="0.8"/><path d="M 14.799 39.800 A 0.199 0.199 0 0 1 14.982 39.601" fill="none" stroke="#6b7280" stroke-width="0.12" opacity="0.8"/><path d="M 14.799 41.800 A 0.199 0.199 0 0 1 14.982 41.601" fill="none" stroke="#6b7280" stroke-width="0.12" opacity="0.8"/><path d="M 14.799 43.800 A 0.199 0.199 0 0 1 14.982 43.601" fill="none" stroke="#6b7280" stroke-width="0.12" opacity="0.8"/><path d="M 14.799 45.800 A 0.199 0.199 0 0 1 14.982 45.601" fill="none" stroke="#6b7280" stroke-width="0.12" opacity="0.8"/><path d="M 14.998 -1.600 A 0.199 0.199 0 0 1 14.799 -1.800" fill="none" stroke="#6b7280" stroke-width="0.12" opacity="0.8"/><path d="M 14.998 0.400 A 0.199 0.199 0 0 1 14.799 0.200" fill="none" stroke="#6b7280" stroke-width="0.12" opacity="0.8"/><path d="M 14.998 2.400 A 0.199 0.199 0 0 1 14.799 2.200" fill="none" stroke="#6b7280" stroke-width="0.12" opacity="0.8"/><path d="M 14.998 4.400 A 0.199 0.199 0 0 1 14.799 4.200" fill="none" stroke="#6b7280" stroke-width="0.12" opacity="0.8"/><path d="M 14.998 6.400 A 0.199 0.199 0 0 1 14.799 6.200" fill="none" stroke="#6b7280" stroke-width="0.12" opacity="0.8"/><path d="M 14.998 8.400 A 0.199 0.199 0 0 1 14.799 8.200" fill="none" stroke="#6b7280" stroke-width="0.12" opacity="0.8"/><path d="M 14.998 10.400 A 0.199 0.199 0 0 1 14.799 10.200" fill="none" stroke="#6b7280" stroke-width="0.12" opacity="0.8"/><path d="M 14.998 12.400 A 0.199 0.199 0 0 1 14.799 12.200" fill="none" stroke="#6b7280" stroke-width="0.12" opacity="0.8"/><path d="M 14.998 14.400 A 0.199 0.199 0 0 1 14.799 14.200" fill="none" stroke="#6b7280" stroke-width="0.12" opacity="0.8"/><path d="M 14.998 16.400 A 0.199 0.199 0 0 1 14.799 16.200" fill="none" stroke="#6b7280" stroke-width="0.12" opacity="0.8"/><path d="M 14.998 18.400 A 0.199 0.199 0 0 1 14.799 18.200" fill="none" stroke="#6b7280" stroke-width="0.12" opacity="0.8"/><path d="M 14.998 26.400 A 0.199 0.199 0 0 1 14.799 26.200" fill="none" stroke="#6b7280" stroke-width="0.12" opacity="0.8"/><path d="M 14.998 28.400 A 0.199 0.199 0 0 1 14.799 28.200" fill="none" stroke="#6b7280" stroke-width="0.12" opacity="0.8"/><path d="M 14.998 30.400 A 0.199 0.199 0 0 1 14.799 30.200" fill="none" stroke="#6b7280" stroke-width="0.12" opacity="0.8"/><path d="M 14.998 32.400 A 0.199 0.199 0 0 1 14.799 32.200" fill="none" stroke="#6b7280" stroke-width="0.12" opacity="0.8"/><path d="M 14.998 34.400 A 0.199 0.199 0 0 1 14.799 34.200" fill="none" stroke="#6b7280" stroke-width="0.12" opacity="0.8"/><path d="M 14.998 36.400 A 0.199 0.199 0 0 1 14.799 36.200" fill="none" stroke="#6b7280" stroke-width="0.12" opacity="0.8"/><path d="M 14.998 38.400 A 0.199 0.199 0 0 1 14.799 38.200" fill="none" stroke="#6b7280" stroke-width="0.12" opacity="0.8"/><path d="M 14.998 40.400 A 0.199 0.199 0 0 1 14.799 40.200" fill="none" stroke="#6b7280" stroke-width="0.12" opacity="0.8"/><path d="M 14.998 42.400 A 0.199 0.199 0 0 1 14.799 42.200" fill="none" stroke="#6b7280" stroke-width="0.12" opacity="0.8"/><path d="M 14.998 44.400 A 0.199 0.199 0 0 1 14.799 44.200" fill="none" stroke="#6b7280" stroke-width="0.12" opacity="0.8"/><path d="M 14.998 46.400 A 0.199 0.199 0 0 1 14.799 46.200" fill="none" stroke="#6b7280" stroke-width="0.12" opacity="0.8"/><path d="M 19.099 -2.700 A 0.150 0.150 0 1 1 19.099 -2.400" fill="none" stroke="#6b7280" stroke-width="0.12" opacity="0.8"/><path d="M 19.099 -0.700 A 0.150 0.150 0 1 1 19.099 -0.400" fill="none" stroke="#6b7280" stroke-width="0.12" opacity="0.8"/><path d="M 19.099 1.300 A 0.150 0.150 0 0 1 19.099 1.600" fill="none" stroke="#6b7280" stroke-width="0.12" opacity="0.8"/><path d="M 19.099 3.300 A 0.150 0.150 0 1 1 19.099 3.600" fill="none" stroke="#6b7280" stroke-width="0.12" opacity="0.8"/><path d="M 19.099 5.300 A 0.150 0.150 0 0 1 19.099 5.600" fill="none" stroke="#6b7280" stroke-width="0.12" opacity="0.8"/><path d="M 19.099 7.300 A 0.150 0.150 0 0 1 19.099 7.600" fill="none" stroke="#6b7280" stroke-width="0.12" opacity="0.8"/><path d="M 19.099 9.300 A 0.150 0.150 0 0 1 19.099 9.600" fill="none" stroke="#6b7280" stroke-width="0.12" opacity="0.8"/><path d="M 19.099 11.300 A 0.150 0.150 0 0 1 19.099 11.600" fill="none" stroke="#6b7280" stroke-width="0.12" opacity="0.8"/><path d="M 19.099 13.300 A 0.150 0.150 0 0 1 19.099 13.600" fill="none" stroke="#6b7280" stroke-width="0.12" opacity="0.8"/><path d="M 19.099 15.300 A 0.150 0.150 0 0 1 19.099 15.600" fill="none" stroke="#6b7280" stroke-width="0.12" opacity="0.8"/><path d="M 19.099 17.300 A 0.150 0.150 0 1 1 19.099 17.600" fill="none" stroke="#6b7280" stroke-width="0.12" opacity="0.8"/><path d="M 19.099 25.300 A 0.150 0.150 0 0 1 19.099 25.600" fill="none" stroke="#6b7280" stroke-width="0.12" opacity="0.8"/><path d="M 19.099 27.300 A 0.150 0.150 0 0 1 19.099 27.600" fill="none" stroke="#6b7280" stroke-width="0.12" opacity="0.8"/><path d="M 19.099 29.300 A 0.150 0.150 0 0 1 19.099 29.600" fill="none" stroke="#6b7280" stroke-width="0.12" opacity="0.8"/><path d="M 19.099 31.300 A 0.150 0.150 0 1 1 19.099 31.600" fill="none" stroke="#6b7280" stroke-width="0.12" opacity="0.8"/><path d="M 19.099 33.300 A 0.150 0.150 0 0 1 19.099 33.600" fill="none" stroke="#6b7280" stroke-width="0.12" opacity="0.8"/><path d="M 19.099 35.300 A 0.150 0.150 0 1 1 19.099 35.600" fill="none" stroke="#6b7280" stroke-width="0.12" opacity="0.8"/><path d="M 19.099 37.300 A 0.150 0.150 0 1 1 19.099 37.600" fill="none" stroke="#6b7280" stroke-width="0.12" opacity="0.8"/><path d="M 19.099 39.300 A 0.150 0.150 0 0 1 19.099 39.600" fill="none" stroke="#6b7280" stroke-width="0.12" opacity="0.8"/><path d="M 19.099 41.300 A 0.150 0.150 0 1 1 19.099 41.600" fill="none" stroke="#6b7280" stroke-width="0.12" opacity="0.8"/><path d="M 19.099 43.300 A 0.150 0.150 0 0 1 19.099 43.600" fill="none" stroke="#6b7280" stroke-width="0.12" opacity="0.8"/><path d="M 19.099 45.300 A 0.150 0.150 0 1 1 19.099 45.600" fill="none" stroke="#6b7280" stroke-width="0.12" opacity="0.8"/><path d="M 19.099 -1.600 A 0.150 0.150 0 0 1 19.099 -1.300" fill="none" stroke="#6b7280" stroke-width="0.12" opacity="0.8"/><path d="M 19.099 0.400 A 0.150 0.150 0 0 1 19.099 0.700" fill="none" stroke="#6b7280" stroke-width="0.12" opacity="0.8"/><path d="M 19.099 2.400 A 0.150 0.150 0 0 1 19.099 2.700" fill="none" stroke="#6b7280" stroke-width="0.12" opacity="0.8"/><path d="M 19.099 4.400 A 0.150 0.150 0 0 1 19.099 4.700" fill="none" stroke="#6b7280" stroke-width="0.12" opacity="0.8"/><path d="M 19.099 6.400 A 0.150 0.150 0 0 1 19.099 6.700" fill="none" stroke="#6b7280" stroke-width="0.12" opacity="0.8"/><path d="M 19.099 8.400 A 0.150 0.150 0 0 1 19.099 8.700" fill="none" stroke="#6b7280" stroke-width="0.12" opacity="0.8"/><path d="M 19.099 10.400 A 0.150 0.150 0 0 1 19.099 10.700" fill="none" stroke="#6b7280" stroke-width="0.12" opacity="0.8"/><path d="M 19.099 12.400 A 0.150 0.150 0 0 1 19.099 12.700" fill="none" stroke="#6b7280" stroke-width="0.12" opacity="0.8"/><path d="M 19.099 14.400 A 0.150 0.150 0 0 1 19.099 14.700" fill="none" stroke="#6b7280" stroke-width="0.12" opacity="0.8"/><path d="M 19.099 16.400 A 0.150 0.150 0 0 1 19.099 16.700" fill="none" stroke="#6b7280" stroke-width="0.12" opacity="0.8"/><path d="M 19.099 18.400 A 0.150 0.150 0 0 1 19.099 18.700" fill="none" stroke="#6b7280" stroke-width="0.12" opacity="0.8"/><path d="M 19.099 26.400 A 0.150 0.150 0 0 1 19.099 26.700" fill="none" stroke="#6b7280" stroke-width="0.12" opacity="0.8"/><path d="M 19.099 28.400 A 0.150 0.150 0 0 1 19.099 28.700" fill="none" stroke="#6b7280" stroke-width="0.12" opacity="0.8"/><path d="M 19.099 30.400 A 0.150 0.150 0 0 1 19.099 30.700" fill="none" stroke="#6b7280" stroke-width="0.12" opacity="0.8"/><path d="M 19.099 32.400 A 0.150 0.150 0 0 1 19.099 32.700" fill="none" stroke="#6b7280" stroke-width="0.12" opacity="0.8"/><path d="M 19.099 34.400 A 0.150 0.150 0 0 1 19.099 34.700" fill="none" stroke="#6b7280" stroke-width="0.12" opacity="0.8"/><path d="M 19.099 36.400 A 0.150 0.150 0 0 1 19.099 36.700" fill="none" stroke="#6b7280" stroke-width="0.12" opacity="0.8"/><path d="M 19.099 38.400 A 0.150 0.150 0 0 1 19.099 38.700" fill="none" stroke="#6b7280" stroke-width="0.12" opacity="0.8"/><path d="M 19.099 40.400 A 0.150 0.150 0 0 1 19.099 40.700" fill="none" stroke="#6b7280" stroke-width="0.12" opacity="0.8"/><path d="M 19.099 42.400 A 0.150 0.150 0 0 1 19.099 42.700" fill="none" stroke="#6b7280" stroke-width="0.12" opacity="0.8"/><path d="M 19.099 44.400 A 0.150 0.150 0 0 1 19.099 44.700" fill="none" stroke="#6b7280" stroke-width="0.12" opacity="0.8"/><path d="M 19.099 46.400 A 0.150 0.150 0 0 1 19.099 46.700" fill="none" stroke="#6b7280" stroke-width="0.12" opacity="0.8"/><rect x="-0.650" y="43.350" width="1.300" height="1.300" rx="0.650" fill="#c79b5c"/><circle cx="0.000" cy="44.000" r="0.300" fill="#12151c"/><rect x="-0.650" y="39.350" width="1.300" height="1.300" rx="0.650" fill="#c79b5c"/><circle cx="0.000" cy="40.000" r="0.300" fill="#12151c"/><rect x="-0.650" y="35.350" width="1.300" height="1.300" rx="0.650" fill="#c79b5c"/><circle cx="0.000" cy="36.000" r="0.300" fill="#12151c"/><rect x="-0.650" y="31.350" width="1.300" height="1.300" rx="0.650" fill="#c79b5c"/><circle cx="0.000" cy="32.000" r="0.300" fill="#12151c"/><rect x="-0.650" y="27.350" width="1.300" height="1.300" rx="0.650" fill="#c79b5c"/><circle cx="0.000" cy="28.000" r="0.300" fill="#12151c"/><rect x="-0.650" y="23.350" width="1.300" height="1.300" rx="0.650" fill="#c79b5c"/><circle cx="0.000" cy="24.000" r="0.300" fill="#12151c"/><rect x="-0.650" y="19.350" width="1.300" height="1.300" rx="0.650" fill="#c79b5c"/><circle cx="0.000" cy="20.000" r="0.300" fill="#12151c"/><rect x="-0.650" y="15.350" width="1.300" height="1.300" rx="0.650" fill="#c79b5c"/><circle cx="0.000" cy="16.000" r="0.300" fill="#12151c"/><rect x="-0.650" y="11.350" width="1.300" height="1.300" rx="0.650" fill="#c79b5c"/><circle cx="0.000" cy="12.000" r="0.300" fill="#12151c"/><rect x="-0.650" y="7.350" width="1.300" height="1.300" rx="0.650" fill="#c79b5c"/><circle cx="0.000" cy="8.000" r="0.300" fill="#12151c"/><rect x="-0.650" y="3.350" width="1.300" height="1.300" rx="0.650" fill="#c79b5c"/><circle cx="0.000" cy="4.000" r="0.300" fill="#12151c"/><rect x="-0.650" y="-0.650" width="1.300" height="1.300" rx="0.650" fill="#c79b5c"/><circle cx="0.000" cy="0.000" r="0.300" fill="#12151c"/></svg>