<svg xmlns="http://www.w3.org/2000/svg" viewBox="-7.85 -3.02 15.70 5.47" preserveAspectRatio="xMidYMid meet" style="width:100%;height:100%"><rect x="-7.85" y="-3.02" width="15.70" height="5.47" fill="#12151c"/><line x1="-6.604" y1="-1.206" x2="6.604" y2="-1.206" stroke="#e6e9ef" stroke-width="0.200" stroke-linecap="round" opacity="1"/><line x1="-6.604" y1="1.206" x2="-6.604" y2="-1.206" stroke="#e6e9ef" stroke-width="0.200" stroke-linecap="round" opacity="1"/><line x1="-6.604" y1="1.206" x2="6.604" y2="1.206" stroke="#e6e9ef" stroke-width="0.200" stroke-linecap="round" opacity="1"/><line x1="6.604" y1="1.206" x2="6.604" y2="-1.206" stroke="#e6e9ef" stroke-width="0.200" stroke-linecap="round" opacity="1"/><line x1="-5.580" y1="0.000" x2="-5.080" y2="0.000" stroke="#4a5160" stroke-width="0.100" stroke-linecap="round" opacity="0.7"/><line x1="-5.080" y1="0.000" x2="-5.080" y2="-0.500" stroke="#4a5160" stroke-width="0.100" stroke-linecap="round" opacity="0.7"/><line x1="-5.080" y1="0.000" x2="-4.580" y2="0.000" stroke="#4a5160" stroke-width="0.100" stroke-linecap="round" opacity="0.7"/><line x1="-5.080" y1="0.500" x2="-5.080" y2="0.000" stroke="#4a5160" stroke-width="0.100" stroke-linecap="round" opacity="0.7"/><line x1="-3.040" y1="0.000" x2="-2.540" y2="0.000" stroke="#4a5160" stroke-width="0.100" stroke-linecap="round" opacity="0.7"/><line x1="-2.540" y1="0.000" x2="-2.540" y2="-0.500" stroke="#4a5160" stroke-width="0.100" stroke-linecap="round" opacity="0.7"/><line x1="-2.540" y1="0.000" x2="-2.040" y2="0.000" stroke="#4a5160" stroke-width="0.100" stroke-linecap="round" opacity="0.7"/><line x1="-2.540" y1="0.500" x2="-2.540" y2="0.000" stroke="#4a5160" stroke-width="0.100" stroke-linecap="round" opacity="0.7"/><line x1="-0.500" y1="0.000" x2="0.000" y2="0.000" stroke="#4a5160" stroke-width="0.100" stroke-linecap="round" opacity="0.7"/><line x1="0.000" y1="0.000" x2="0.000" y2="-0.500" stroke="#4a5160" stroke-width="0.100" stroke-linecap="round" opacity="0.7"/><line x1="0.000" y1="0.000" x2="0.500" y2="0.000" stroke="#4a5160" stroke-width="0.100" stroke-linecap="round" opacity="0.7"/><line x1="0.000" y1="0.500" x2="0.000" y2="0.000" stroke="#4a5160" stroke-width="0.100" stroke-linecap="round" opacity="0.7"/><line x1="2.040" y1="0.000" x2="2.540" y2="0.000" stroke="#4a5160" stroke-width="0.100" stroke-linecap="round" opacity="0.7"/><line x1="2.540" y1="0.000" x2="2.540" y2="-0.500" stroke="#4a5160" stroke-width="0.100" stroke-linecap="round" opacity="0.7"/><line x1="2.540" y1="0.000" x2="3.040" y2="0.000" stroke="#4a5160" stroke-width="0.100" stroke-linecap="round" opacity="0.7"/><line x1="2.540" y1="0.500" x2="2.540" y2="0.000" stroke="#4a5160" stroke-width="0.100" stroke-linecap="round" opacity="0.7"/><line x1="4.580" y1="0.000" x2="5.080" y2="0.000" stroke="#4a5160" stroke-width="0.100" stroke-linecap="round" opacity="0.7"/><line x1="5.080" y1="0.000" x2="5.080" y2="-0.500" stroke="#4a5160" stroke-width="0.100" stroke-linecap="round" opacity="0.7"/><line x1="5.080" y1="0.000" x2="5.580" y2="0.000" stroke="#4a5160" stroke-width="0.100" stroke-linecap="round" opacity="0.7"/><line x1="5.080" y1="0.500" x2="5.080" y2="0.000" stroke="#4a5160" stroke-width="0.100" stroke-linecap="round" opacity="0.7"/><line x1="-6.604" y1="-1.206" x2="6.604" y2="-1.206" stroke="#6b7280" stroke-width="0.100" stroke-linecap="round" opacity="0.8"/><line x1="-6.604" y1="1.206" x2="-6.604" y2="-1.206" stroke="#6b7280" stroke-width="0.100" stroke-linecap="round" opacity="0.8"/><line x1="-6.604" y1="1.206" x2="6.604" y2="1.206" stroke="#6b7280" stroke-width="0.100" stroke-linecap="round" opacity="0.8"/><line x1="-5.905" y1="-0.826" x2="-5.474" y2="-0.394" stroke="#6b7280" stroke-width="0.100" stroke-linecap="round" opacity="0.8"/><line x1="-5.905" y1="-0.826" x2="-4.255" y2="-0.826" stroke="#6b7280" stroke-width="0.100" stroke-linecap="round" opacity="0.8"/><line x1="-5.905" y1="0.826" x2="-5.905" y2="-0.826" stroke="#6b7280" stroke-width="0.100" stroke-linecap="round" opacity="0.8"/><line x1="-5.905" y1="0.826" x2="-5.474" y2="0.394" stroke="#6b7280" stroke-width="0.100" stroke-linecap="round" opacity="0.8"/><line x1="-5.905" y1="0.826" x2="-4.255" y2="0.826" stroke="#6b7280" stroke-width="0.100" stroke-linecap="round" opacity="0.8"/><line x1="-5.474" y1="-0.394" x2="-4.686" y2="-0.394" stroke="#6b7280" stroke-width="0.100" stroke-linecap="round" opacity="0.8"/><line x1="-5.474" y1="0.394" x2="-5.474" y2="-0.394" stroke="#6b7280" stroke-width="0.100" stroke-linecap="round" opacity="0.8"/><line x1="-5.474" y1="0.394" x2="-4.686" y2="0.394" stroke="#6b7280" stroke-width="0.100" stroke-linecap="round" opacity="0.8"/><line x1="-4.686" y1="-0.394" x2="-4.255" y2="-0.826" stroke="#6b7280" stroke-width="0.100" stroke-linecap="round" opacity="0.8"/><line x1="-4.686" y1="0.394" x2="-4.686" y2="-0.394" stroke="#6b7280" stroke-width="0.100" stroke-linecap="round" opacity="0.8"/><line x1="-4.686" y1="0.394" x2="-4.255" y2="0.826" stroke="#6b7280" stroke-width="0.100" stroke-linecap="round" opacity="0.8"/><line x1="-4.255" y1="0.826" x2="-4.255" y2="-0.826" stroke="#6b7280" stroke-width="0.100" stroke-linecap="round" opacity="0.8"/><line x1="-3.365" y1="-0.826" x2="-2.934" y2="-0.394" stroke="#6b7280" stroke-width="0.100" stroke-linecap="round" opacity="0.8"/><line x1="-3.365" y1="-0.826" x2="-1.714" y2="-0.826" stroke="#6b7280" stroke-width="0.100" stroke-linecap="round" opacity="0.8"/><line x1="-3.365" y1="0.826" x2="-3.365" y2="-0.826" stroke="#6b7280" stroke-width="0.100" stroke-linecap="round" opacity="0.8"/><line x1="-3.365" y1="0.826" x2="-2.934" y2="0.394" stroke="#6b7280" stroke-width="0.100" stroke-linecap="round" opacity="0.8"/><line x1="-3.365" y1="0.826" x2="-1.714" y2="0.826" stroke="#6b7280" stroke-width="0.100" stroke-linecap="round" opacity="0.8"/><line x1="-2.934" y1="-0.394" x2="-2.146" y2="-0.394" stroke="#6b7280" stroke-width="0.100" stroke-linecap="round" opacity="0.8"/><line x1="-2.934" y1="0.394" x2="-2.934" y2="-0.394" stroke="#6b7280" stroke-width="0.100" stroke-linecap="round" opacity="0.8"/><line x1="-2.934" y1="0.394" x2="-2.146" y2="0.394" stroke="#6b7280" stroke-width="0.100" stroke-linecap="round" opacity="0.8"/><line x1="-2.146" y1="-0.394" x2="-1.714" y2="-0.826" stroke="#6b7280" stroke-width="0.100" stroke-linecap="round" opacity="0.8"/><line x1="-2.146" y1="0.394" x2="-2.146" y2="-0.394" stroke="#6b7280" stroke-width="0.100" stroke-linecap="round" opacity="0.8"/><line x1="-2.146" y1="0.394" x2="-1.714" y2="0.826" stroke="#6b7280" stroke-width="0.100" stroke-linecap="round" opacity="0.8"/><line x1="-1.714" y1="0.826" x2="-1.714" y2="-0.826" stroke="#6b7280" stroke-width="0.100" stroke-linecap="round" opacity="0.8"/><line x1="-0.826" y1="-0.826" x2="-0.394" y2="-0.394" stroke="#6b7280" stroke-width="0.100" stroke-linecap="round" opacity="0.8"/><line x1="-0.826" y1="-0.826" x2="0.826" y2="-0.826" stroke="#6b7280" stroke-width="0.100" stroke-linecap="round" opacity="0.8"/><line x1="-0.826" y1="0.826" x2="-0.826" y2="-0.826" stroke="#6b7280" stroke-width="0.100" stroke-linecap="round" opacity="0.8"/><line x1="-0.826" y1="0.826" x2="-0.394" y2="0.394" stroke="#6b7280" stroke-width="0.100" stroke-linecap="round" opacity="0.8"/><line x1="-0.826" y1="0.826" x2="0.826" y2="0.826" stroke="#6b7280" stroke-width="0.100" stroke-linecap="round" opacity="0.8"/><line x1="-0.394" y1="-0.394" x2="0.394" y2="-0.394" stroke="#6b7280" stroke-width="0.100" stroke-linecap="round" opacity="0.8"/><line x1="-0.394" y1="0.394" x2="-0.394" y2="-0.394" stroke="#6b7280" stroke-width="0.100" stroke-linecap="round" opacity="0.8"/><line x1="-0.394" y1="0.394" x2="0.394" y2="0.394" stroke="#6b7280" stroke-width="0.100" stroke-linecap="round" opacity="0.8"/><line x1="0.394" y1="-0.394" x2="0.826" y2="-0.826" stroke="#6b7280" stroke-width="0.100" stroke-linecap="round" opacity="0.8"/><line x1="0.394" y1="0.394" x2="0.394" y2="-0.394" stroke="#6b7280" stroke-width="0.100" stroke-linecap="round" opacity="0.8"/><line x1="0.394" y1="0.394" x2="0.826" y2="0.826" stroke="#6b7280" stroke-width="0.100" stroke-linecap="round" opacity="0.8"/><line x1="0.826" y1="0.826" x2="0.826" y2="-0.826" stroke="#6b7280" stroke-width="0.100" stroke-linecap="round" opacity="0.8"/><line x1="1.714" y1="-0.826" x2="2.146" y2="-0.394" stroke="#6b7280" stroke-width="0.100" stroke-linecap="round" opacity="0.8"/><line x1="1.714" y1="-0.826" x2="3.365" y2="-0.826" stroke="#6b7280" stroke-width="0.100" stroke-linecap="round" opacity="0.8"/><line x1="1.714" y1="0.826" x2="1.714" y2="-0.826" stroke="#6b7280" stroke-width="0.100" stroke-linecap="round" opacity="0.8"/><line x1="1.714" y1="0.826" x2="2.146" y2="0.394" stroke="#6b7280" stroke-width="0.100" stroke-linecap="round" opacity="0.8"/><line x1="1.714" y1="0.826" x2="3.365" y2="0.826" stroke="#6b7280" stroke-width="0.100" stroke-linecap="round" opacity="0.8"/><line x1="2.146" y1="-0.394" x2="2.934" y2="-0.394" stroke="#6b7280" stroke-width="0.100" stroke-linecap="round" opacity="0.8"/><line x1="2.146" y1="0.394" x2="2.146" y2="-0.394" stroke="#6b7280" stroke-width="0.100" stroke-linecap="round" opacity="0.8"/><line x1="2.146" y1="0.394" x2="2.934" y2="0.394" stroke="#6b7280" stroke-width="0.100" stroke-linecap="round" opacity="0.8"/><line x1="2.934" y1="-0.394" x2="3.365" y2="-0.826" stroke="#6b7280" stroke-width="0.100" stroke-linecap="round" opacity="0.8"/><line x1="2.934" y1="0.394" x2="2.934" y2="-0.394" stroke="#6b7280" stroke-width="0.100" stroke-linecap="round" opacity="0.8"/><line x1="2.934" y1="0.394" x2="3.365" y2="0.826" stroke="#6b7280" stroke-width="0.100" stroke-linecap="round" opacity="0.8"/><line x1="3.365" y1="0.826" x2="3.365" y2="-0.826" stroke="#6b7280" stroke-width="0.100" stroke-linecap="round" opacity="0.8"/><line x1="4.255" y1="-0.826" x2="4.686" y2="-0.394" stroke="#6b7280" stroke-width="0.100" stroke-linecap="round" opacity="0.8"/><line x1="4.255" y1="-0.826" x2="5.905" y2="-0.826" stroke="#6b7280" stroke-width="0.100" stroke-linecap="round" opacity="0.8"/><line x1="4.255" y1="0.826" x2="4.255" y2="-0.826" stroke="#6b7280" stroke-width="0.100" stroke-linecap="round" opacity="0.8"/><line x1="4.255" y1="0.826" x2="4.686" y2="0.394" stroke="#6b7280" stroke-width="0.100" stroke-linecap="round" opacity="0.8"/><line x1="4.255" y1="0.826" x2="5.905" y2="0.826" stroke="#6b7280" stroke-width="0.100" stroke-linecap="round" opacity="0.8"/><line x1="4.686" y1="-0.394" x2="5.474" y2="-0.394" stroke="#6b7280" stroke-width="0.100" stroke-linecap="round" opacity="0.8"/><line x1="4.686" y1="0.394" x2="4.686" y2="-0.394" stroke="#6b7280" stroke-width="0.100" stroke-linecap="round" opacity="0.8"/><line x1="4.686" y1="0.394" x2="5.474" y2="0.394" stroke="#6b7280" stroke-width="0.100" stroke-linecap="round" opacity="0.8"/><line x1="5.474" y1="-0.394" x2="5.905" y2="-0.826" stroke="#6b7280" stroke-width="0.100" stroke-linecap="round" opacity="0.8"/><line x1="5.474" y1="0.394" x2="5.474" y2="-0.394" stroke="#6b7280" stroke-width="0.100" stroke-linecap="round" opacity="0.8"/><line x1="5.474" y1="0.394" x2="5.905" y2="0.826" stroke="#6b7280" stroke-width="0.100" stroke-linecap="round" opacity="0.8"/><line x1="5.905" y1="0.826" x2="5.905" y2="-0.826" stroke="#6b7280" stroke-width="0.100" stroke-linecap="round" opacity="0.8"/><line x1="6.604" y1="1.206" x2="6.604" y2="-1.206" stroke="#6b7280" stroke-width="0.100" stroke-linecap="round" opacity="0.8"/><line x1="-6.850" y1="-1.460" x2="6.850" y2="-1.460" stroke="#d24d4d" stroke-width="0.080" stroke-linecap="round" opacity="0.7"/><line x1="6.850" y1="-1.460" x2="6.850" y2="1.460" stroke="#d24d4d" stroke-width="0.080" stroke-linecap="round" opacity="0.7"/><line x1="6.850" y1="1.460" x2="-6.850" y2="1.460" stroke="#d24d4d" stroke-width="0.080" stroke-linecap="round" opacity="0.7"/><line x1="-6.850" y1="1.460" x2="-6.850" y2="-1.460" stroke="#d24d4d" stroke-width="0.080" stroke-linecap="round" opacity="0.7"/><circle cx="-5.115" cy="-1.865" r="0.150" fill="#e6e9ef" opacity="1"/><circle cx="-5.115" cy="-1.865" r="0.150" fill="#6b7280" opacity="0.8"/><rect x="-5.930" y="-0.850" width="1.700" height="1.700" rx="0.000" fill="#c79b5c"/><circle cx="-5.080" cy="0.000" r="0.500" fill="#12151c"/><rect x="-3.390" y="-0.850" width="1.700" height="1.700" rx="0.850" fill="#c79b5c"/><circle cx="-2.540" cy="0.000" r="0.500" fill="#12151c"/><rect x="-0.850" y="-0.850" width="1.700" height="1.700" rx="0.850" fill="#c79b5c"/><circle cx="0.000" cy="0.000" r="0.500" fill="#12151c"/><rect x="1.690" y="-0.850" width="1.700" height="1.700" rx="0.850" fill="#c79b5c"/><circle cx="2.540" cy="0.000" r="0.500" fill="#12151c"/><rect x="4.230" y="-0.850" width="1.700" height="1.700" rx="0.850" fill="#c79b5c"/><circle cx="5.080" cy="0.000" r="0.500" fill="#12151c"/><polygon points="-5.53,1.90 -4.63,1.90 -5.08,1.30" fill="#ffffff"/></svg>