<svg xmlns="http://www.w3.org/2000/svg" viewBox="-1.50 -5.50 216.80 17.16" preserveAspectRatio="xMidYMid meet" style="width:100%;height:100%"><rect x="-1.50" y="-5.50" width="216.80" height="17.16" fill="#12151c"/><g transform="translate(5.08 0)"><rect x="0.000" y="-0.000" width="15.240" height="10.160" fill="#1e222b" stroke="#4ea1ff" stroke-width="0.25"/><polyline points="0.000,5.080 6.350,5.080" fill="none" stroke="#4ea1ff" stroke-width="0.25" stroke-linejoin="round"/><polyline points="6.350,5.080 9.398,6.858" fill="none" stroke="#4ea1ff" stroke-width="0.25" stroke-linejoin="round"/><polyline points="8.382,2.540 8.890,3.302 9.398,2.540" fill="none" stroke="#4ea1ff" stroke-width="0.25" stroke-linejoin="round"/><polyline points="8.382,7.620 8.890,6.858 9.398,7.620" fill="none" stroke="#4ea1ff" stroke-width="0.25" stroke-linejoin="round"/><polyline points="9.398,2.540 8.890,3.302 8.382,2.540 9.398,2.540" fill="#1e222b" stroke="#4ea1ff" stroke-width="0.25" stroke-linejoin="round"/><polyline points="9.398,7.620 8.890,6.858 8.382,7.620 9.398,7.620" fill="#1e222b" stroke="#4ea1ff" stroke-width="0.25" stroke-linejoin="round"/><polyline points="15.240,2.540 8.382,2.540" fill="none" stroke="#4ea1ff" stroke-width="0.25" stroke-linejoin="round"/><polyline points="15.240,7.620 8.382,7.620" fill="none" stroke="#4ea1ff" stroke-width="0.25" stroke-linejoin="round"/><circle cx="6.350" cy="5.080" r="0.254" fill="none" stroke="#4ea1ff" stroke-width="0.25"/><line x1="-5.080" y1="5.080" x2="0.000" y2="5.080" stroke="#e6e9ef" stroke-width="0.2"/><circle cx="-5.080" cy="5.080" r="0.4" fill="#4ea1ff"/><text x="0.500" y="5.430" fill="#e6e9ef" font-size="1.1" text-anchor="start" font-family="sans-serif">COM</text><text x="-0.300" y="4.730" fill="#9aa3b2" font-size="0.9" text-anchor="end" font-family="sans-serif">20</text><line x1="20.320" y1="2.540" x2="15.240" y2="2.540" stroke="#e6e9ef" stroke-width="0.2"/><circle cx="20.320" cy="2.540" r="0.4" fill="#4ea1ff"/><text x="14.740" y="2.890" fill="#e6e9ef" font-size="1.1" text-anchor="end" font-family="sans-serif">NO</text><text x="15.540" y="2.190" fill="#9aa3b2" font-size="0.9" text-anchor="start" font-family="sans-serif">19</text><line x1="20.320" y1="7.620" x2="15.240" y2="7.620" stroke="#e6e9ef" stroke-width="0.2"/><circle cx="20.320" cy="7.620" r="0.4" fill="#4ea1ff"/><text x="14.740" y="7.970" fill="#e6e9ef" font-size="1.1" text-anchor="end" font-family="sans-serif">NC</text><text x="15.540" y="7.270" fill="#9aa3b2" font-size="0.9" text-anchor="start" font-family="sans-serif">18</text><text x="7.62" y="-2.00" fill="#9aa3b2" font-size="1.6" text-anchor="middle" font-family="sans-serif">A</text></g><g transform="translate(36.48 0)"><rect x="0.000" y="-0.000" width="15.240" height="10.160" fill="#1e222b" stroke="#4ea1ff" stroke-width="0.25"/><polyline points="0.000,5.080 6.350,5.080" fill="none" stroke="#4ea1ff" stroke-width="0.25" stroke-linejoin="round"/><polyline points="6.350,5.080 9.398,6.858" fill="none" stroke="#4ea1ff" stroke-width="0.25" stroke-linejoin="round"/><polyline points="8.382,2.540 8.890,3.302 9.398,2.540" fill="none" stroke="#4ea1ff" stroke-width="0.25" stroke-linejoin="round"/><polyline points="8.382,7.620 8.890,6.858 9.398,7.620" fill="none" stroke="#4ea1ff" stroke-width="0.25" stroke-linejoin="round"/><polyline points="9.398,2.540 8.890,3.302 8.382,2.540 9.398,2.540" fill="#1e222b" stroke="#4ea1ff" stroke-width="0.25" stroke-linejoin="round"/><polyline points="9.398,7.620 8.890,6.858 8.382,7.620 9.398,7.620" fill="#1e222b" stroke="#4ea1ff" stroke-width="0.25" stroke-linejoin="round"/><polyline points="15.240,2.540 8.382,2.540" fill="none" stroke="#4ea1ff" stroke-width="0.25" stroke-linejoin="round"/><polyline points="15.240,7.620 8.382,7.620" fill="none" stroke="#4ea1ff" stroke-width="0.25" stroke-linejoin="round"/><circle cx="6.350" cy="5.080" r="0.254" fill="none" stroke="#4ea1ff" stroke-width="0.25"/><line x1="-5.080" y1="5.080" x2="0.000" y2="5.080" stroke="#e6e9ef" stroke-width="0.2"/><circle cx="-5.080" cy="5.080" r="0.4" fill="#4ea1ff"/><text x="0.500" y="5.430" fill="#e6e9ef" font-size="1.1" text-anchor="start" font-family="sans-serif">COM</text><text x="-0.300" y="4.730" fill="#9aa3b2" font-size="0.9" text-anchor="end" font-family="sans-serif">16</text><line x1="20.320" y1="2.540" x2="15.240" y2="2.540" stroke="#e6e9ef" stroke-width="0.2"/><circle cx="20.320" cy="2.540" r="0.4" fill="#4ea1ff"/><text x="14.740" y="2.890" fill="#e6e9ef" font-size="1.1" text-anchor="end" font-family="sans-serif">NO</text><text x="15.540" y="2.190" fill="#9aa3b2" font-size="0.9" text-anchor="start" font-family="sans-serif">17</text><line x1="20.320" y1="7.620" x2="15.240" y2="7.620" stroke="#e6e9ef" stroke-width="0.2"/><circle cx="20.320" cy="7.620" r="0.4" fill="#4ea1ff"/><text x="14.740" y="7.970" fill="#e6e9ef" font-size="1.1" text-anchor="end" font-family="sans-serif">NC</text><text x="15.540" y="7.270" fill="#9aa3b2" font-size="0.9" text-anchor="start" font-family="sans-serif">15</text><text x="7.62" y="-2.00" fill="#9aa3b2" font-size="1.6" text-anchor="middle" font-family="sans-serif">B</text></g><g transform="translate(67.88 0)"><rect x="0.000" y="-0.000" width="15.240" height="10.160" fill="#1e222b" stroke="#4ea1ff" stroke-width="0.25"/><polyline points="0.000,5.080 6.350,5.080" fill="none" stroke="#4ea1ff" stroke-width="0.25" stroke-linejoin="round"/><polyline points="6.350,5.080 9.398,6.858" fill="none" stroke="#4ea1ff" stroke-width="0.25" stroke-linejoin="round"/><polyline points="8.382,2.540 8.890,3.302 9.398,2.540" fill="none" stroke="#4ea1ff" stroke-width="0.25" stroke-linejoin="round"/><polyline points="8.382,7.620 8.890,6.858 9.398,7.620" fill="none" stroke="#4ea1ff" stroke-width="0.25" stroke-linejoin="round"/><polyline points="9.398,2.540 8.890,3.302 8.382,2.540 9.398,2.540" fill="#1e222b" stroke="#4ea1ff" stroke-width="0.25" stroke-linejoin="round"/><polyline points="9.398,7.620 8.890,6.858 8.382,7.620 9.398,7.620" fill="#1e222b" stroke="#4ea1ff" stroke-width="0.25" stroke-linejoin="round"/><polyline points="15.240,2.540 8.382,2.540" fill="none" stroke="#4ea1ff" stroke-width="0.25" stroke-linejoin="round"/><polyline points="15.240,7.620 8.382,7.620" fill="none" stroke="#4ea1ff" stroke-width="0.25" stroke-linejoin="round"/><circle cx="6.350" cy="5.080" r="0.254" fill="none" stroke="#4ea1ff" stroke-width="0.25"/><line x1="-5.080" y1="5.080" x2="0.000" y2="5.080" stroke="#e6e9ef" stroke-width="0.2"/><circle cx="-5.080" cy="5.080" r="0.4" fill="#4ea1ff"/><text x="0.500" y="5.430" fill="#e6e9ef" font-size="1.1" text-anchor="start" font-family="sans-serif">COM</text><text x="-0.300" y="4.730" fill="#9aa3b2" font-size="0.9" text-anchor="end" font-family="sans-serif">11</text><line x1="20.320" y1="2.540" x2="15.240" y2="2.540" stroke="#e6e9ef" stroke-width="0.2"/><circle cx="20.320" cy="2.540" r="0.4" fill="#4ea1ff"/><text x="14.740" y="2.890" fill="#e6e9ef" font-size="1.1" text-anchor="end" font-family="sans-serif">NO</text><text x="15.540" y="2.190" fill="#9aa3b2" font-size="0.9" text-anchor="start" font-family="sans-serif">10</text><line x1="20.320" y1="7.620" x2="15.240" y2="7.620" stroke="#e6e9ef" stroke-width="0.2"/><circle cx="20.320" cy="7.620" r="0.4" fill="#4ea1ff"/><text x="14.740" y="7.970" fill="#e6e9ef" font-size="1.1" text-anchor="end" font-family="sans-serif">NC</text><text x="15.540" y="7.270" fill="#9aa3b2" font-size="0.9" text-anchor="start" font-family="sans-serif">12</text><text x="7.62" y="-2.00" fill="#9aa3b2" font-size="1.6" text-anchor="middle" font-family="sans-serif">C</text></g><g transform="translate(99.28 0)"><rect x="0.000" y="-0.000" width="15.240" height="10.160" fill="#1e222b" stroke="#4ea1ff" stroke-width="0.25"/><polyline points="0.000,5.080 6.350,5.080" fill="none" stroke="#4ea1ff" stroke-width="0.25" stroke-linejoin="round"/><polyline points="6.350,5.080 9.398,6.858" fill="none" stroke="#4ea1ff" stroke-width="0.25" stroke-linejoin="round"/><polyline points="8.382,2.540 8.890,3.302 9.398,2.540" fill="none" stroke="#4ea1ff" stroke-width="0.25" stroke-linejoin="round"/><polyline points="8.382,7.620 8.890,6.858 9.398,7.620" fill="none" stroke="#4ea1ff" stroke-width="0.25" stroke-linejoin="round"/><polyline points="9.398,2.540 8.890,3.302 8.382,2.540 9.398,2.540" fill="#1e222b" stroke="#4ea1ff" stroke-width="0.25" stroke-linejoin="round"/><polyline points="9.398,7.620 8.890,6.858 8.382,7.620 9.398,7.620" fill="#1e222b" stroke="#4ea1ff" stroke-width="0.25" stroke-linejoin="round"/><polyline points="15.240,2.540 8.382,2.540" fill="none" stroke="#4ea1ff" stroke-width="0.25" stroke-linejoin="round"/><polyline points="15.240,7.620 8.382,7.620" fill="none" stroke="#4ea1ff" stroke-width="0.25" stroke-linejoin="round"/><circle cx="6.350" cy="5.080" r="0.254" fill="none" stroke="#4ea1ff" stroke-width="0.25"/><line x1="-5.080" y1="5.080" x2="0.000" y2="5.080" stroke="#e6e9ef" stroke-width="0.2"/><circle cx="-5.080" cy="5.080" r="0.4" fill="#4ea1ff"/><text x="0.500" y="5.430" fill="#e6e9ef" font-size="1.1" text-anchor="start" font-family="sans-serif">COM</text><text x="-0.300" y="4.730" fill="#9aa3b2" font-size="0.9" text-anchor="end" font-family="sans-serif">7</text><line x1="20.320" y1="2.540" x2="15.240" y2="2.540" stroke="#e6e9ef" stroke-width="0.2"/><circle cx="20.320" cy="2.540" r="0.4" fill="#4ea1ff"/><text x="14.740" y="2.890" fill="#e6e9ef" font-size="1.1" text-anchor="end" font-family="sans-serif">NO</text><text x="15.540" y="2.190" fill="#9aa3b2" font-size="0.9" text-anchor="start" font-family="sans-serif">8</text><line x1="20.320" y1="7.620" x2="15.240" y2="7.620" stroke="#e6e9ef" stroke-width="0.2"/><circle cx="20.320" cy="7.620" r="0.4" fill="#4ea1ff"/><text x="14.740" y="7.970" fill="#e6e9ef" font-size="1.1" text-anchor="end" font-family="sans-serif">NC</text><text x="15.540" y="7.270" fill="#9aa3b2" font-size="0.9" text-anchor="start" font-family="sans-serif">9</text><text x="7.62" y="-2.00" fill="#9aa3b2" font-size="1.6" text-anchor="middle" font-family="sans-serif">D</text></g><g transform="translate(130.68 0)"><rect x="0.000" y="-0.000" width="15.240" height="10.160" fill="#1e222b" stroke="#4ea1ff" stroke-width="0.25"/><polyline points="0.000,5.080 6.350,5.080" fill="none" stroke="#4ea1ff" stroke-width="0.25" stroke-linejoin="round"/><polyline points="6.350,5.080 9.398,6.858" fill="none" stroke="#4ea1ff" stroke-width="0.25" stroke-linejoin="round"/><polyline points="8.382,2.540 8.890,3.302 9.398,2.540" fill="none" stroke="#4ea1ff" stroke-width="0.25" stroke-linejoin="round"/><polyline points="8.382,7.620 8.890,6.858 9.398,7.620" fill="none" stroke="#4ea1ff" stroke-width="0.25" stroke-linejoin="round"/><polyline points="9.398,2.540 8.890,3.302 8.382,2.540 9.398,2.540" fill="#1e222b" stroke="#4ea1ff" stroke-width="0.25" stroke-linejoin="round"/><polyline points="9.398,7.620 8.890,6.858 8.382,7.620 9.398,7.620" fill="#1e222b" stroke="#4ea1ff" stroke-width="0.25" stroke-linejoin="round"/><polyline points="15.240,2.540 8.382,2.540" fill="none" stroke="#4ea1ff" stroke-width="0.25" stroke-linejoin="round"/><polyline points="15.240,7.620 8.382,7.620" fill="none" stroke="#4ea1ff" stroke-width="0.25" stroke-linejoin="round"/><circle cx="6.350" cy="5.080" r="0.254" fill="none" stroke="#4ea1ff" stroke-width="0.25"/><line x1="-5.080" y1="5.080" x2="0.000" y2="5.080" stroke="#e6e9ef" stroke-width="0.2"/><circle cx="-5.080" cy="5.080" r="0.4" fill="#4ea1ff"/><text x="0.500" y="5.430" fill="#e6e9ef" font-size="1.1" text-anchor="start" font-family="sans-serif">COM</text><text x="-0.300" y="4.730" fill="#9aa3b2" font-size="0.9" text-anchor="end" font-family="sans-serif">3</text><line x1="20.320" y1="2.540" x2="15.240" y2="2.540" stroke="#e6e9ef" stroke-width="0.2"/><circle cx="20.320" cy="2.540" r="0.4" fill="#4ea1ff"/><text x="14.740" y="2.890" fill="#e6e9ef" font-size="1.1" text-anchor="end" font-family="sans-serif">NO</text><text x="15.540" y="2.190" fill="#9aa3b2" font-size="0.9" text-anchor="start" font-family="sans-serif">2</text><line x1="20.320" y1="7.620" x2="15.240" y2="7.620" stroke="#e6e9ef" stroke-width="0.2"/><circle cx="20.320" cy="7.620" r="0.4" fill="#4ea1ff"/><text x="14.740" y="7.970" fill="#e6e9ef" font-size="1.1" text-anchor="end" font-family="sans-serif">NC</text><text x="15.540" y="7.270" fill="#9aa3b2" font-size="0.9" text-anchor="start" font-family="sans-serif">4</text><text x="7.62" y="-2.00" fill="#9aa3b2" font-size="1.6" text-anchor="middle" font-family="sans-serif">E</text></g><g transform="translate(162.08 0)"><rect x="0.000" y="-0.000" width="15.240" height="10.160" fill="#1e222b" stroke="#4ea1ff" stroke-width="0.25"/><polyline points="0.000,5.080 6.350,5.080" fill="none" stroke="#4ea1ff" stroke-width="0.25" stroke-linejoin="round"/><polyline points="6.350,5.080 9.398,6.858" fill="none" stroke="#4ea1ff" stroke-width="0.25" stroke-linejoin="round"/><polyline points="8.382,2.540 8.890,3.302 9.398,2.540" fill="none" stroke="#4ea1ff" stroke-width="0.25" stroke-linejoin="round"/><polyline points="8.382,7.620 8.890,6.858 9.398,7.620" fill="none" stroke="#4ea1ff" stroke-width="0.25" stroke-linejoin="round"/><polyline points="9.398,2.540 8.890,3.302 8.382,2.540 9.398,2.540" fill="#1e222b" stroke="#4ea1ff" stroke-width="0.25" stroke-linejoin="round"/><polyline points="9.398,7.620 8.890,6.858 8.382,7.620 9.398,7.620" fill="#1e222b" stroke="#4ea1ff" stroke-width="0.25" stroke-linejoin="round"/><polyline points="15.240,2.540 8.382,2.540" fill="none" stroke="#4ea1ff" stroke-width="0.25" stroke-linejoin="round"/><polyline points="15.240,7.620 8.382,7.620" fill="none" stroke="#4ea1ff" stroke-width="0.25" stroke-linejoin="round"/><circle cx="6.350" cy="5.080" r="0.254" fill="none" stroke="#4ea1ff" stroke-width="0.25"/><line x1="-5.080" y1="5.080" x2="0.000" y2="5.080" stroke="#e6e9ef" stroke-width="0.2"/><circle cx="-5.080" cy="5.080" r="0.4" fill="#4ea1ff"/><text x="0.500" y="5.430" fill="#e6e9ef" font-size="1.1" text-anchor="start" font-family="sans-serif">COM</text><text x="-0.300" y="4.730" fill="#9aa3b2" font-size="0.9" text-anchor="end" font-family="sans-serif">23</text><line x1="20.320" y1="2.540" x2="15.240" y2="2.540" stroke="#e6e9ef" stroke-width="0.2"/><circle cx="20.320" cy="2.540" r="0.4" fill="#4ea1ff"/><text x="14.740" y="2.890" fill="#e6e9ef" font-size="1.1" text-anchor="end" font-family="sans-serif">NO</text><text x="15.540" y="2.190" fill="#9aa3b2" font-size="0.9" text-anchor="start" font-family="sans-serif">24</text><line x1="20.320" y1="7.620" x2="15.240" y2="7.620" stroke="#e6e9ef" stroke-width="0.2"/><circle cx="20.320" cy="7.620" r="0.4" fill="#4ea1ff"/><text x="14.740" y="7.970" fill="#e6e9ef" font-size="1.1" text-anchor="end" font-family="sans-serif">NC</text><text x="15.540" y="7.270" fill="#9aa3b2" font-size="0.9" text-anchor="start" font-family="sans-serif">1</text><text x="7.62" y="-2.00" fill="#9aa3b2" font-size="1.6" text-anchor="middle" font-family="sans-serif">F</text></g><g transform="translate(193.48 0)"><rect x="0.000" y="-0.000" width="15.240" height="10.160" fill="#1e222b" stroke="#4ea1ff" stroke-width="0.25"/><rect x="14.732" y="1.270" width="0.508" height="2.540" fill="#1e222b" stroke="#4ea1ff" stroke-width="0.25"/><line x1="-5.080" y1="2.540" x2="0.000" y2="2.540" stroke="#e6e9ef" stroke-width="0.2"/><circle cx="-5.080" cy="2.540" r="0.4" fill="#4ea1ff"/><text x="0.500" y="2.890" fill="#e6e9ef" font-size="1.1" text-anchor="start" font-family="sans-serif">~{EN}</text><text x="-0.300" y="2.190" fill="#9aa3b2" font-size="0.9" text-anchor="end" font-family="sans-serif">5</text><line x1="-5.080" y1="5.080" x2="0.000" y2="5.080" stroke="#e6e9ef" stroke-width="0.2"/><circle cx="-5.080" cy="5.080" r="0.4" fill="#4ea1ff"/><text x="0.500" y="5.430" fill="#e6e9ef" font-size="1.1" text-anchor="start" font-family="sans-serif">CB</text><text x="-0.300" y="4.730" fill="#9aa3b2" font-size="0.9" text-anchor="end" font-family="sans-serif">14</text><line x1="-5.080" y1="7.620" x2="0.000" y2="7.620" stroke="#e6e9ef" stroke-width="0.2"/><circle cx="-5.080" cy="7.620" r="0.4" fill="#4ea1ff"/><text x="0.500" y="7.970" fill="#e6e9ef" font-size="1.1" text-anchor="start" font-family="sans-serif">VCC</text><text x="-0.300" y="7.270" fill="#9aa3b2" font-size="0.9" text-anchor="end" font-family="sans-serif">22</text><line x1="20.320" y1="2.540" x2="15.240" y2="2.540" stroke="#e6e9ef" stroke-width="0.2"/><circle cx="20.320" cy="2.540" r="0.4" fill="#4ea1ff"/><text x="14.740" y="2.890" fill="#e6e9ef" font-size="1.1" text-anchor="end" font-family="sans-serif">EP</text><text x="15.540" y="2.190" fill="#9aa3b2" font-size="0.9" text-anchor="start" font-family="sans-serif">25</text><line x1="20.320" y1="5.080" x2="15.240" y2="5.080" stroke="#e6e9ef" stroke-width="0.2"/><circle cx="20.320" cy="5.080" r="0.4" fill="#4ea1ff"/><text x="14.740" y="5.430" fill="#e6e9ef" font-size="1.1" text-anchor="end" font-family="sans-serif">GND</text><text x="15.540" y="4.730" fill="#9aa3b2" font-size="0.9" text-anchor="start" font-family="sans-serif">6</text><line x1="20.320" y1="7.620" x2="15.240" y2="7.620" stroke="#e6e9ef" stroke-width="0.2"/><circle cx="20.320" cy="7.620" r="0.4" fill="#4ea1ff"/><text x="14.740" y="7.970" fill="#e6e9ef" font-size="1.1" text-anchor="end" font-family="sans-serif">GND</text><text x="15.540" y="7.270" fill="#9aa3b2" font-size="0.9" text-anchor="start" font-family="sans-serif">21</text><text x="7.62" y="-2.00" fill="#9aa3b2" font-size="1.6" text-anchor="middle" font-family="sans-serif">G</text></g></svg>