<svg xmlns="http://www.w3.org/2000/svg" viewBox="-12.48 -3.79 23.44 7.58" preserveAspectRatio="xMidYMid meet" style="width:100%;height:100%"><rect x="-12.48" y="-3.79" width="23.44" height="7.58" fill="#12151c"/><line x1="-11.235" y1="-1.395" x2="-9.715" y2="-1.395" stroke="#e6e9ef" stroke-width="0.200" stroke-linecap="round" opacity="1"/><line x1="-11.235" y1="-0.380" x2="-11.235" y2="-1.395" stroke="#e6e9ef" stroke-width="0.200" stroke-linecap="round" opacity="1"/><line x1="-11.235" y1="-0.380" x2="-10.475" y2="-0.380" stroke="#e6e9ef" stroke-width="0.200" stroke-linecap="round" opacity="1"/><line x1="-11.235" y1="0.380" x2="-10.475" y2="0.380" stroke="#e6e9ef" stroke-width="0.200" stroke-linecap="round" opacity="1"/><line x1="-11.235" y1="1.395" x2="-11.235" y2="0.380" stroke="#e6e9ef" stroke-width="0.200" stroke-linecap="round" opacity="1"/><line x1="-11.235" y1="1.395" x2="-9.715" y2="1.395" stroke="#e6e9ef" stroke-width="0.200" stroke-linecap="round" opacity="1"/><line x1="-10.475" y1="0.380" x2="-10.475" y2="-0.380" stroke="#e6e9ef" stroke-width="0.200" stroke-linecap="round" opacity="1"/><line x1="-9.715" y1="-2.540" x2="-1.723" y2="-2.540" stroke="#e6e9ef" stroke-width="0.200" stroke-linecap="round" opacity="1"/><line x1="-9.715" y1="2.540" x2="-9.715" y2="-2.540" stroke="#e6e9ef" stroke-width="0.200" stroke-linecap="round" opacity="1"/><line x1="-9.715" y1="2.540" x2="-6.803" y2="2.540" stroke="#e6e9ef" stroke-width="0.200" stroke-linecap="round" opacity="1"/><line x1="-5.887" y1="2.540" x2="5.897" y2="2.540" stroke="#e6e9ef" stroke-width="0.200" stroke-linecap="round" opacity="1"/><line x1="-0.807" y1="-2.540" x2="9.715" y2="-2.540" stroke="#e6e9ef" stroke-width="0.200" stroke-linecap="round" opacity="1"/><line x1="6.813" y1="2.540" x2="9.715" y2="2.540" stroke="#e6e9ef" stroke-width="0.200" stroke-linecap="round" opacity="1"/><line x1="9.715" y1="2.540" x2="9.715" y2="-2.540" stroke="#e6e9ef" stroke-width="0.200" stroke-linecap="round" opacity="1"/><line x1="-6.845" y1="1.270" x2="-6.345" y2="1.270" stroke="#4a5160" stroke-width="0.100" stroke-linecap="round" opacity="0.7"/><line x1="-6.345" y1="1.270" x2="-6.345" y2="0.770" stroke="#4a5160" stroke-width="0.100" stroke-linecap="round" opacity="0.7"/><line x1="-6.345" y1="1.270" x2="-5.845" y2="1.270" stroke="#4a5160" stroke-width="0.100" stroke-linecap="round" opacity="0.7"/><line x1="-6.345" y1="1.770" x2="-6.345" y2="1.270" stroke="#4a5160" stroke-width="0.100" stroke-linecap="round" opacity="0.7"/><line x1="-1.765" y1="-1.270" x2="-1.265" y2="-1.270" stroke="#4a5160" stroke-width="0.100" stroke-linecap="round" opacity="0.7"/><line x1="-1.265" y1="-1.270" x2="-1.265" y2="-1.770" stroke="#4a5160" stroke-width="0.100" stroke-linecap="round" opacity="0.7"/><line x1="-1.265" y1="-1.270" x2="-0.765" y2="-1.270" stroke="#4a5160" stroke-width="0.100" stroke-linecap="round" opacity="0.7"/><line x1="-1.265" y1="-0.770" x2="-1.265" y2="-1.270" stroke="#4a5160" stroke-width="0.100" stroke-linecap="round" opacity="0.7"/><line x1="-0.500" y1="0.000" x2="0.000" y2="0.000" stroke="#4a5160" stroke-width="0.100" stroke-linecap="round" opacity="0.7"/><line x1="0.000" y1="0.000" x2="0.000" y2="-0.500" stroke="#4a5160" stroke-width="0.100" stroke-linecap="round" opacity="0.7"/><line x1="0.000" y1="0.000" x2="0.500" y2="0.000" stroke="#4a5160" stroke-width="0.100" stroke-linecap="round" opacity="0.7"/><line x1="0.000" y1="0.500" x2="0.000" y2="0.000" stroke="#4a5160" stroke-width="0.100" stroke-linecap="round" opacity="0.7"/><line x1="5.855" y1="1.270" x2="6.355" y2="1.270" stroke="#4a5160" stroke-width="0.100" stroke-linecap="round" opacity="0.7"/><line x1="6.355" y1="1.270" x2="6.355" y2="0.770" stroke="#4a5160" stroke-width="0.100" stroke-linecap="round" opacity="0.7"/><line x1="6.355" y1="1.270" x2="6.855" y2="1.270" stroke="#4a5160" stroke-width="0.100" stroke-linecap="round" opacity="0.7"/><line x1="6.355" y1="1.770" x2="6.355" y2="1.270" stroke="#4a5160" stroke-width="0.100" stroke-linecap="round" opacity="0.7"/><line x1="-9.715" y1="2.540" x2="9.715" y2="2.540" stroke="#6b7280" stroke-width="0.200" stroke-linecap="round" opacity="0.8"/><line x1="-11.480" y1="-2.790" x2="9.960" y2="-2.790" stroke="#d24d4d" stroke-width="0.080" stroke-linecap="round" opacity="0.7"/><line x1="9.960" y1="-2.790" x2="9.960" y2="2.790" stroke="#d24d4d" stroke-width="0.080" stroke-linecap="round" opacity="0.7"/><line x1="9.960" y1="2.790" x2="-11.480" y2="2.790" stroke="#d24d4d" stroke-width="0.080" stroke-linecap="round" opacity="0.7"/><line x1="-11.480" y1="2.790" x2="-11.480" y2="-2.790" stroke="#d24d4d" stroke-width="0.080" stroke-linecap="round" opacity="0.7"/><circle cx="-6.345" cy="1.270" r="1.000" fill="none" stroke="#4a5160" stroke-width="0.12" opacity="0.7"/><circle cx="-6.345" cy="1.270" r="0.650" fill="none" stroke="#4a5160" stroke-width="0.12" opacity="0.7"/><rect x="5.355" y="0.270" width="2.000" height="2.000" rx="1.000" fill="#c79b5c"/><circle cx="6.355" cy="1.270" r="0.650" fill="#12151c"/><rect x="-2.265" y="-2.270" width="2.000" height="2.000" rx="1.000" fill="#c79b5c"/><circle cx="-1.265" cy="-1.270" r="0.650" fill="#12151c"/><rect x="-7.345" y="0.270" width="2.000" height="2.000" rx="1.000" fill="#c79b5c"/><circle cx="-6.345" cy="1.270" r="0.650" fill="#12151c"/></svg>