<svg xmlns="http://www.w3.org/2000/svg" viewBox="-3.53 -2.26 7.06 4.53" preserveAspectRatio="xMidYMid meet" style="width:100%;height:100%"><rect x="-3.53" y="-2.26" width="7.06" height="4.53" fill="#12151c"/><line x1="-0.410" y1="-0.800" x2="0.410" y2="-0.800" stroke="#e6e9ef" stroke-width="0.200" stroke-linecap="round" opacity="1"/><line x1="-0.410" y1="0.800" x2="0.410" y2="0.800" stroke="#e6e9ef" stroke-width="0.200" stroke-linecap="round" opacity="1"/><line x1="-2.280" y1="-1.015" x2="-1.520" y2="0.000" stroke="#4a5160" stroke-width="0.080" stroke-linecap="round" opacity="0.7"/><line x1="-2.280" y1="-1.015" x2="-0.760" y2="-1.015" stroke="#4a5160" stroke-width="0.080" stroke-linecap="round" opacity="0.7"/><line x1="-2.280" y1="1.015" x2="-2.280" y2="-1.015" stroke="#4a5160" stroke-width="0.080" stroke-linecap="round" opacity="0.7"/><line x1="-2.280" y1="1.015" x2="-1.520" y2="0.000" stroke="#4a5160" stroke-width="0.080" stroke-linecap="round" opacity="0.7"/><line x1="-2.280" y1="1.015" x2="-0.760" y2="1.015" stroke="#4a5160" stroke-width="0.080" stroke-linecap="round" opacity="0.7"/><line x1="-0.760" y1="1.015" x2="-0.760" y2="-1.015" stroke="#4a5160" stroke-width="0.080" stroke-linecap="round" opacity="0.7"/><line x1="-0.500" y1="0.000" x2="0.000" y2="0.000" stroke="#4a5160" stroke-width="0.080" stroke-linecap="round" opacity="0.7"/><line x1="0.000" y1="0.000" x2="0.000" y2="-0.500" stroke="#4a5160" stroke-width="0.080" stroke-linecap="round" opacity="0.7"/><line x1="0.000" y1="0.000" x2="0.500" y2="0.000" stroke="#4a5160" stroke-width="0.080" stroke-linecap="round" opacity="0.7"/><line x1="0.000" y1="0.500" x2="0.000" y2="0.000" stroke="#4a5160" stroke-width="0.080" stroke-linecap="round" opacity="0.7"/><line x1="0.760" y1="-1.015" x2="2.280" y2="-1.015" stroke="#4a5160" stroke-width="0.080" stroke-linecap="round" opacity="0.7"/><line x1="0.760" y1="1.015" x2="0.760" y2="-1.015" stroke="#4a5160" stroke-width="0.080" stroke-linecap="round" opacity="0.7"/><line x1="0.760" y1="1.015" x2="2.280" y2="1.015" stroke="#4a5160" stroke-width="0.080" stroke-linecap="round" opacity="0.7"/><line x1="1.520" y1="0.000" x2="2.280" y2="-1.015" stroke="#4a5160" stroke-width="0.080" stroke-linecap="round" opacity="0.7"/><line x1="1.520" y1="0.000" x2="2.280" y2="1.015" stroke="#4a5160" stroke-width="0.080" stroke-linecap="round" opacity="0.7"/><line x1="2.280" y1="1.015" x2="2.280" y2="-1.015" stroke="#4a5160" stroke-width="0.080" stroke-linecap="round" opacity="0.7"/><line x1="-2.530" y1="-1.265" x2="2.530" y2="-1.265" stroke="#d24d4d" stroke-width="0.080" stroke-linecap="round" opacity="0.7"/><line x1="-2.530" y1="1.265" x2="-2.530" y2="-1.265" stroke="#d24d4d" stroke-width="0.080" stroke-linecap="round" opacity="0.7"/><line x1="-2.530" y1="1.265" x2="2.530" y2="1.265" stroke="#d24d4d" stroke-width="0.080" stroke-linecap="round" opacity="0.7"/><line x1="2.530" y1="1.265" x2="2.530" y2="-1.265" stroke="#d24d4d" stroke-width="0.080" stroke-linecap="round" opacity="0.7"/><line x1="-1.550" y1="-0.800" x2="1.550" y2="-0.800" stroke="#6b7280" stroke-width="0.100" stroke-linecap="round" opacity="0.8"/><line x1="-1.550" y1="0.800" x2="-1.550" y2="-0.800" stroke="#6b7280" stroke-width="0.100" stroke-linecap="round" opacity="0.8"/><line x1="-1.550" y1="0.800" x2="1.550" y2="0.800" stroke="#6b7280" stroke-width="0.100" stroke-linecap="round" opacity="0.8"/><line x1="-1.050" y1="0.800" x2="-1.050" y2="-0.800" stroke="#6b7280" stroke-width="0.100" stroke-linecap="round" opacity="0.8"/><line x1="1.050" y1="0.800" x2="1.050" y2="-0.800" stroke="#6b7280" stroke-width="0.100" stroke-linecap="round" opacity="0.8"/><line x1="1.550" y1="0.800" x2="1.550" y2="-0.800" stroke="#6b7280" stroke-width="0.100" stroke-linecap="round" opacity="0.8"/><rect x="-2.280" y="-1.015" width="1.520" height="2.030" rx="0.000" fill="#c79b5c"/><rect x="0.760" y="-1.015" width="1.520" height="2.030" rx="0.000" fill="#c79b5c"/><polygon points="-1.97,2.06 -1.07,2.06 -1.52,1.46" fill="#ffffff"/></svg>