<svg xmlns="http://www.w3.org/2000/svg" viewBox="-17.57 -4.81 35.14 11.04" preserveAspectRatio="xMidYMid meet" style="width:100%;height:100%"><rect x="-17.57" y="-4.81" width="35.14" height="11.04" fill="#12151c"/><line x1="-16.066" y1="-3.048" x2="16.066" y2="-3.048" stroke="#e6e9ef" stroke-width="0.200" stroke-linecap="round" opacity="1"/><line x1="-16.066" y1="-1.445" x2="-16.066" y2="-3.048" stroke="#e6e9ef" stroke-width="0.200" stroke-linecap="round" opacity="1"/><line x1="-16.066" y1="4.191" x2="-16.066" y2="1.957" stroke="#e6e9ef" stroke-width="0.200" stroke-linecap="round" opacity="1"/><line x1="-16.066" y1="4.191" x2="16.066" y2="4.191" stroke="#e6e9ef" stroke-width="0.200" stroke-linecap="round" opacity="1"/><line x1="-13.247" y1="-3.556" x2="-8.724" y2="-3.556" stroke="#e6e9ef" stroke-width="0.200" stroke-linecap="round" opacity="1"/><line x1="-13.247" y1="-3.048" x2="-13.247" y2="-3.556" stroke="#e6e9ef" stroke-width="0.200" stroke-linecap="round" opacity="1"/><line x1="-11.367" y1="-3.048" x2="-11.367" y2="-3.175" stroke="#e6e9ef" stroke-width="0.200" stroke-linecap="round" opacity="1"/><line x1="-10.604" y1="-3.048" x2="-10.604" y2="-3.175" stroke="#e6e9ef" stroke-width="0.200" stroke-linecap="round" opacity="1"/><line x1="-8.954" y1="3.302" x2="-8.954" y2="-3.048" stroke="#e6e9ef" stroke-width="0.200" stroke-linecap="round" opacity="1"/><line x1="-8.954" y1="3.302" x2="-8.954" y2="2.781" stroke="#e6e9ef" stroke-width="0.200" stroke-linecap="round" opacity="1"/><line x1="-8.954" y1="3.302" x2="8.954" y2="3.302" stroke="#e6e9ef" stroke-width="0.200" stroke-linecap="round" opacity="1"/><line x1="-8.724" y1="-3.048" x2="-8.724" y2="-3.556" stroke="#e6e9ef" stroke-width="0.200" stroke-linecap="round" opacity="1"/><line x1="-5.842" y1="4.191" x2="-5.080" y2="3.302" stroke="#e6e9ef" stroke-width="0.200" stroke-linecap="round" opacity="1"/><line x1="-5.080" y1="3.302" x2="-4.318" y2="4.191" stroke="#e6e9ef" stroke-width="0.200" stroke-linecap="round" opacity="1"/><line x1="-2.032" y1="4.191" x2="-2.032" y2="3.302" stroke="#e6e9ef" stroke-width="0.200" stroke-linecap="round" opacity="1"/><line x1="2.032" y1="4.191" x2="2.032" y2="3.302" stroke="#e6e9ef" stroke-width="0.200" stroke-linecap="round" opacity="1"/><line x1="2.769" y1="4.191" x2="2.769" y2="3.302" stroke="#e6e9ef" stroke-width="0.200" stroke-linecap="round" opacity="1"/><line x1="4.851" y1="4.191" x2="4.851" y2="3.302" stroke="#e6e9ef" stroke-width="0.200" stroke-linecap="round" opacity="1"/><line x1="8.724" y1="-3.556" x2="13.247" y2="-3.556" stroke="#e6e9ef" stroke-width="0.200" stroke-linecap="round" opacity="1"/><line x1="8.724" y1="-3.048" x2="8.724" y2="-3.556" stroke="#e6e9ef" stroke-width="0.200" stroke-linecap="round" opacity="1"/><line x1="8.954" y1="3.302" x2="8.954" y2="-3.048" stroke="#e6e9ef" stroke-width="0.200" stroke-linecap="round" opacity="1"/><line x1="8.954" y1="3.302" x2="8.954" y2="2.781" stroke="#e6e9ef" stroke-width="0.200" stroke-linecap="round" opacity="1"/><line x1="10.604" y1="-3.048" x2="10.604" y2="-3.175" stroke="#e6e9ef" stroke-width="0.200" stroke-linecap="round" opacity="1"/><line x1="11.367" y1="-3.048" x2="11.367" y2="-3.175" stroke="#e6e9ef" stroke-width="0.200" stroke-linecap="round" opacity="1"/><line x1="13.247" y1="-3.048" x2="13.247" y2="-3.556" stroke="#e6e9ef" stroke-width="0.200" stroke-linecap="round" opacity="1"/><line x1="16.066" y1="-1.449" x2="16.066" y2="-3.048" stroke="#e6e9ef" stroke-width="0.200" stroke-linecap="round" opacity="1"/><line x1="16.066" y1="4.191" x2="16.066" y2="1.953" stroke="#e6e9ef" stroke-width="0.200" stroke-linecap="round" opacity="1"/><line x1="-14.520" y1="0.250" x2="-14.020" y2="0.250" stroke="#4a5160" stroke-width="0.100" stroke-linecap="round" opacity="0.7"/><line x1="-14.020" y1="0.250" x2="-14.020" y2="-0.250" stroke="#4a5160" stroke-width="0.100" stroke-linecap="round" opacity="0.7"/><line x1="-14.020" y1="0.250" x2="-13.520" y2="0.250" stroke="#4a5160" stroke-width="0.100" stroke-linecap="round" opacity="0.7"/><line x1="-14.020" y1="0.750" x2="-14.020" y2="0.250" stroke="#4a5160" stroke-width="0.100" stroke-linecap="round" opacity="0.7"/><line x1="-5.580" y1="-1.270" x2="-5.080" y2="-1.270" stroke="#4a5160" stroke-width="0.100" stroke-linecap="round" opacity="0.7"/><line x1="-5.580" y1="1.270" x2="-5.080" y2="1.270" stroke="#4a5160" stroke-width="0.100" stroke-linecap="round" opacity="0.7"/><line x1="-5.080" y1="-1.270" x2="-5.080" y2="-1.770" stroke="#4a5160" stroke-width="0.100" stroke-linecap="round" opacity="0.7"/><line x1="-5.080" y1="-1.270" x2="-4.580" y2="-1.270" stroke="#4a5160" stroke-width="0.100" stroke-linecap="round" opacity="0.7"/><line x1="-5.080" y1="-0.770" x2="-5.080" y2="-1.270" stroke="#4a5160" stroke-width="0.100" stroke-linecap="round" opacity="0.7"/><line x1="-5.080" y1="1.270" x2="-5.080" y2="0.770" stroke="#4a5160" stroke-width="0.100" stroke-linecap="round" opacity="0.7"/><line x1="-5.080" y1="1.270" x2="-4.580" y2="1.270" stroke="#4a5160" stroke-width="0.100" stroke-linecap="round" opacity="0.7"/><line x1="-5.080" y1="1.770" x2="-5.080" y2="1.270" stroke="#4a5160" stroke-width="0.100" stroke-linecap="round" opacity="0.7"/><line x1="-3.040" y1="-1.270" x2="-2.540" y2="-1.270" stroke="#4a5160" stroke-width="0.100" stroke-linecap="round" opacity="0.7"/><line x1="-3.040" y1="1.270" x2="-2.540" y2="1.270" stroke="#4a5160" stroke-width="0.100" stroke-linecap="round" opacity="0.7"/><line x1="-2.540" y1="-1.270" x2="-2.540" y2="-1.770" stroke="#4a5160" stroke-width="0.100" stroke-linecap="round" opacity="0.7"/><line x1="-2.540" y1="-1.270" x2="-2.040" y2="-1.270" stroke="#4a5160" stroke-width="0.100" stroke-linecap="round" opacity="0.7"/><line x1="-2.540" y1="-0.770" x2="-2.540" y2="-1.270" stroke="#4a5160" stroke-width="0.100" stroke-linecap="round" opacity="0.7"/><line x1="-2.540" y1="1.270" x2="-2.540" y2="0.770" stroke="#4a5160" stroke-width="0.100" stroke-linecap="round" opacity="0.7"/><line x1="-2.540" y1="1.270" x2="-2.040" y2="1.270" stroke="#4a5160" stroke-width="0.100" stroke-linecap="round" opacity="0.7"/><line x1="-2.540" y1="1.770" x2="-2.540" y2="1.270" stroke="#4a5160" stroke-width="0.100" stroke-linecap="round" opacity="0.7"/><line x1="-0.500" y1="-1.270" x2="0.000" y2="-1.270" stroke="#4a5160" stroke-width="0.100" stroke-linecap="round" opacity="0.7"/><line x1="-0.500" y1="0.000" x2="0.000" y2="0.000" stroke="#4a5160" stroke-width="0.100" stroke-linecap="round" opacity="0.7"/><line x1="-0.500" y1="1.270" x2="0.000" y2="1.270" stroke="#4a5160" stroke-width="0.100" stroke-linecap="round" opacity="0.7"/><line x1="0.000" y1="-1.270" x2="0.000" y2="-1.770" stroke="#4a5160" stroke-width="0.100" stroke-linecap="round" opacity="0.7"/><line x1="0.000" y1="-1.270" x2="0.500" y2="-1.270" stroke="#4a5160" stroke-width="0.100" stroke-linecap="round" opacity="0.7"/><line x1="0.000" y1="-0.770" x2="0.000" y2="-1.270" stroke="#4a5160" stroke-width="0.100" stroke-linecap="round" opacity="0.7"/><line x1="0.000" y1="0.000" x2="0.000" y2="-0.500" stroke="#4a5160" stroke-width="0.100" stroke-linecap="round" opacity="0.7"/><line x1="0.000" y1="0.000" x2="0.500" y2="0.000" stroke="#4a5160" stroke-width="0.100" stroke-linecap="round" opacity="0.7"/><line x1="0.000" y1="0.500" x2="0.000" y2="0.000" stroke="#4a5160" stroke-width="0.100" stroke-linecap="round" opacity="0.7"/><line x1="0.000" y1="1.270" x2="0.000" y2="0.770" stroke="#4a5160" stroke-width="0.100" stroke-linecap="round" opacity="0.7"/><line x1="0.000" y1="1.270" x2="0.500" y2="1.270" stroke="#4a5160" stroke-width="0.100" stroke-linecap="round" opacity="0.7"/><line x1="0.000" y1="1.770" x2="0.000" y2="1.270" stroke="#4a5160" stroke-width="0.100" stroke-linecap="round" opacity="0.7"/><line x1="2.040" y1="-1.270" x2="2.540" y2="-1.270" stroke="#4a5160" stroke-width="0.100" stroke-linecap="round" opacity="0.7"/><line x1="2.040" y1="1.270" x2="2.540" y2="1.270" stroke="#4a5160" stroke-width="0.100" stroke-linecap="round" opacity="0.7"/><line x1="2.540" y1="-1.270" x2="2.540" y2="-1.770" stroke="#4a5160" stroke-width="0.100" stroke-linecap="round" opacity="0.7"/><line x1="2.540" y1="-1.270" x2="3.040" y2="-1.270" stroke="#4a5160" stroke-width="0.100" stroke-linecap="round" opacity="0.7"/><line x1="2.540" y1="-0.770" x2="2.540" y2="-1.270" stroke="#4a5160" stroke-width="0.100" stroke-linecap="round" opacity="0.7"/><line x1="2.540" y1="1.270" x2="2.540" y2="0.770" stroke="#4a5160" stroke-width="0.100" stroke-linecap="round" opacity="0.7"/><line x1="2.540" y1="1.270" x2="3.040" y2="1.270" stroke="#4a5160" stroke-width="0.100" stroke-linecap="round" opacity="0.7"/><line x1="2.540" y1="1.770" x2="2.540" y2="1.270" stroke="#4a5160" stroke-width="0.100" stroke-linecap="round" opacity="0.7"/><line x1="4.580" y1="-1.270" x2="5.080" y2="-1.270" stroke="#4a5160" stroke-width="0.100" stroke-linecap="round" opacity="0.7"/><line x1="4.580" y1="1.270" x2="5.080" y2="1.270" stroke="#4a5160" stroke-width="0.100" stroke-linecap="round" opacity="0.7"/><line x1="5.080" y1="-1.270" x2="5.080" y2="-1.770" stroke="#4a5160" stroke-width="0.100" stroke-linecap="round" opacity="0.7"/><line x1="5.080" y1="-1.270" x2="5.580" y2="-1.270" stroke="#4a5160" stroke-width="0.100" stroke-linecap="round" opacity="0.7"/><line x1="5.080" y1="-0.770" x2="5.080" y2="-1.270" stroke="#4a5160" stroke-width="0.100" stroke-linecap="round" opacity="0.7"/><line x1="5.080" y1="1.270" x2="5.080" y2="0.770" stroke="#4a5160" stroke-width="0.100" stroke-linecap="round" opacity="0.7"/><line x1="5.080" y1="1.270" x2="5.580" y2="1.270" stroke="#4a5160" stroke-width="0.100" stroke-linecap="round" opacity="0.7"/><line x1="5.080" y1="1.770" x2="5.080" y2="1.270" stroke="#4a5160" stroke-width="0.100" stroke-linecap="round" opacity="0.7"/><line x1="13.520" y1="0.250" x2="14.020" y2="0.250" stroke="#4a5160" stroke-width="0.100" stroke-linecap="round" opacity="0.7"/><line x1="14.020" y1="0.250" x2="14.020" y2="-0.250" stroke="#4a5160" stroke-width="0.100" stroke-linecap="round" opacity="0.7"/><line x1="14.020" y1="0.250" x2="14.520" y2="0.250" stroke="#4a5160" stroke-width="0.100" stroke-linecap="round" opacity="0.7"/><line x1="14.020" y1="0.750" x2="14.020" y2="0.250" stroke="#4a5160" stroke-width="0.100" stroke-linecap="round" opacity="0.7"/><line x1="-16.066" y1="-3.048" x2="16.066" y2="-3.048" stroke="#6b7280" stroke-width="0.100" stroke-linecap="round" opacity="0.8"/><line x1="-16.066" y1="-2.362" x2="-12.365" y2="-2.362" stroke="#6b7280" stroke-width="0.100" stroke-linecap="round" opacity="0.8"/><line x1="-16.066" y1="3.404" x2="-12.365" y2="3.404" stroke="#6b7280" stroke-width="0.100" stroke-linecap="round" opacity="0.8"/><line x1="-16.066" y1="4.191" x2="-16.066" y2="-3.048" stroke="#6b7280" stroke-width="0.100" stroke-linecap="round" opacity="0.8"/><line x1="-16.066" y1="4.191" x2="16.066" y2="4.191" stroke="#6b7280" stroke-width="0.100" stroke-linecap="round" opacity="0.8"/><line x1="-15.621" y1="-0.663" x2="-14.720" y2="-1.183" stroke="#6b7280" stroke-width="0.100" stroke-linecap="round" opacity="0.8"/><line x1="-15.621" y1="1.171" x2="-15.621" y2="-0.663" stroke="#6b7280" stroke-width="0.100" stroke-linecap="round" opacity="0.8"/><line x1="-15.621" y1="1.171" x2="-14.034" y2="2.087" stroke="#6b7280" stroke-width="0.100" stroke-linecap="round" opacity="0.8"/><line x1="-14.720" y1="-1.308" x2="-11.989" y2="-1.308" stroke="#6b7280" stroke-width="0.100" stroke-linecap="round" opacity="0.8"/><line x1="-14.720" y1="1.689" x2="-14.720" y2="-1.308" stroke="#6b7280" stroke-width="0.100" stroke-linecap="round" opacity="0.8"/><line x1="-14.720" y1="1.689" x2="-11.989" y2="1.689" stroke="#6b7280" stroke-width="0.100" stroke-linecap="round" opacity="0.8"/><line x1="-14.503" y1="-1.308" x2="-14.034" y2="-1.579" stroke="#6b7280" stroke-width="0.100" stroke-linecap="round" opacity="0.8"/><line x1="-14.034" y1="-1.579" x2="-13.564" y2="-1.308" stroke="#6b7280" stroke-width="0.100" stroke-linecap="round" opacity="0.8"/><line x1="-14.034" y1="2.087" x2="-13.344" y2="1.689" stroke="#6b7280" stroke-width="0.100" stroke-linecap="round" opacity="0.8"/><line x1="-13.247" y1="-3.556" x2="-8.724" y2="-3.556" stroke="#6b7280" stroke-width="0.100" stroke-linecap="round" opacity="0.8"/><line x1="-13.247" y1="-3.048" x2="-13.247" y2="-3.556" stroke="#6b7280" stroke-width="0.100" stroke-linecap="round" opacity="0.8"/><line x1="-12.365" y1="-1.397" x2="-11.989" y2="-1.397" stroke="#6b7280" stroke-width="0.100" stroke-linecap="round" opacity="0.8"/><line x1="-12.365" y1="-1.308" x2="-12.365" y2="-2.362" stroke="#6b7280" stroke-width="0.100" stroke-linecap="round" opacity="0.8"/><line x1="-12.365" y1="1.778" x2="-11.989" y2="1.778" stroke="#6b7280" stroke-width="0.100" stroke-linecap="round" opacity="0.8"/><line x1="-12.365" y1="3.404" x2="-12.365" y2="1.689" stroke="#6b7280" stroke-width="0.100" stroke-linecap="round" opacity="0.8"/><line x1="-11.989" y1="-2.400" x2="-8.763" y2="-2.400" stroke="#6b7280" stroke-width="0.100" stroke-linecap="round" opacity="0.8"/><line x1="-11.989" y1="2.781" x2="-11.989" y2="-2.400" stroke="#6b7280" stroke-width="0.100" stroke-linecap="round" opacity="0.8"/><line x1="-11.989" y1="2.781" x2="-8.763" y2="2.781" stroke="#6b7280" stroke-width="0.100" stroke-linecap="round" opacity="0.8"/><line x1="-11.367" y1="-3.048" x2="-11.367" y2="-3.175" stroke="#6b7280" stroke-width="0.100" stroke-linecap="round" opacity="0.8"/><line x1="-11.252" y1="-2.565" x2="-10.109" y2="-2.565" stroke="#6b7280" stroke-width="0.100" stroke-linecap="round" opacity="0.8"/><line x1="-11.252" y1="-2.400" x2="-11.252" y2="-2.565" stroke="#6b7280" stroke-width="0.100" stroke-linecap="round" opacity="0.8"/><line x1="-10.604" y1="-3.048" x2="-10.604" y2="-3.175" stroke="#6b7280" stroke-width="0.100" stroke-linecap="round" opacity="0.8"/><line x1="-10.109" y1="-2.400" x2="-10.109" y2="-2.565" stroke="#6b7280" stroke-width="0.100" stroke-linecap="round" opacity="0.8"/><line x1="-8.954" y1="3.302" x2="-8.954" y2="2.781" stroke="#6b7280" stroke-width="0.100" stroke-linecap="round" opacity="0.8"/><line x1="-8.954" y1="3.302" x2="8.954" y2="3.302" stroke="#6b7280" stroke-width="0.100" stroke-linecap="round" opacity="0.8"/><line x1="-8.763" y1="-2.032" x2="8.763" y2="-2.032" stroke="#6b7280" stroke-width="0.100" stroke-linecap="round" opacity="0.8"/><line x1="-8.763" y1="-1.397" x2="-6.350" y2="-1.397" stroke="#6b7280" stroke-width="0.100" stroke-linecap="round" opacity="0.8"/><line x1="-8.763" y1="-1.308" x2="-5.935" y2="-1.308" stroke="#6b7280" stroke-width="0.100" stroke-linecap="round" opacity="0.8"/><line x1="-8.763" y1="1.689" x2="-5.935" y2="1.689" stroke="#6b7280" stroke-width="0.100" stroke-linecap="round" opacity="0.8"/><line x1="-8.763" y1="1.778" x2="-6.350" y2="1.778" stroke="#6b7280" stroke-width="0.100" stroke-linecap="round" opacity="0.8"/><line x1="-8.763" y1="2.286" x2="8.763" y2="2.286" stroke="#6b7280" stroke-width="0.100" stroke-linecap="round" opacity="0.8"/><line x1="-8.763" y1="2.781" x2="-8.763" y2="-2.400" stroke="#6b7280" stroke-width="0.100" stroke-linecap="round" opacity="0.8"/><line x1="-8.724" y1="-3.048" x2="-8.724" y2="-3.556" stroke="#6b7280" stroke-width="0.100" stroke-linecap="round" opacity="0.8"/><line x1="-6.350" y1="1.778" x2="-6.350" y2="-1.397" stroke="#6b7280" stroke-width="0.100" stroke-linecap="round" opacity="0.8"/><line x1="-5.935" y1="1.689" x2="-5.935" y2="-1.308" stroke="#6b7280" stroke-width="0.100" stroke-linecap="round" opacity="0.8"/><line x1="-5.842" y1="4.191" x2="-5.080" y2="3.302" stroke="#6b7280" stroke-width="0.100" stroke-linecap="round" opacity="0.8"/><line x1="-5.397" y1="-1.587" x2="-4.763" y2="-1.587" stroke="#6b7280" stroke-width="0.100" stroke-linecap="round" opacity="0.8"/><line x1="-5.397" y1="-0.953" x2="-5.397" y2="-1.587" stroke="#6b7280" stroke-width="0.100" stroke-linecap="round" opacity="0.8"/><line x1="-5.397" y1="-0.953" x2="-4.763" y2="-0.953" stroke="#6b7280" stroke-width="0.100" stroke-linecap="round" opacity="0.8"/><line x1="-5.397" y1="0.953" x2="-4.763" y2="0.953" stroke="#6b7280" stroke-width="0.100" stroke-linecap="round" opacity="0.8"/><line x1="-5.397" y1="1.587" x2="-5.397" y2="0.953" stroke="#6b7280" stroke-width="0.100" stroke-linecap="round" opacity="0.8"/><line x1="-5.397" y1="1.587" x2="-4.763" y2="1.587" stroke="#6b7280" stroke-width="0.100" stroke-linecap="round" opacity="0.8"/><line x1="-5.080" y1="3.302" x2="-4.318" y2="4.191" stroke="#6b7280" stroke-width="0.100" stroke-linecap="round" opacity="0.8"/><line x1="-4.763" y1="-0.953" x2="-4.763" y2="-1.587" stroke="#6b7280" stroke-width="0.100" stroke-linecap="round" opacity="0.8"/><line x1="-4.763" y1="1.587" x2="-4.763" y2="0.953" stroke="#6b7280" stroke-width="0.100" stroke-linecap="round" opacity="0.8"/><line x1="-2.857" y1="-1.587" x2="-2.223" y2="-1.587" stroke="#6b7280" stroke-width="0.100" stroke-linecap="round" opacity="0.8"/><line x1="-2.857" y1="-0.953" x2="-2.857" y2="-1.587" stroke="#6b7280" stroke-width="0.100" stroke-linecap="round" opacity="0.8"/><line x1="-2.857" y1="-0.953" x2="-2.223" y2="-0.953" stroke="#6b7280" stroke-width="0.100" stroke-linecap="round" opacity="0.8"/><line x1="-2.857" y1="0.953" x2="-2.223" y2="0.953" stroke="#6b7280" stroke-width="0.100" stroke-linecap="round" opacity="0.8"/><line x1="-2.857" y1="1.587" x2="-2.857" y2="0.953" stroke="#6b7280" stroke-width="0.100" stroke-linecap="round" opacity="0.8"/><line x1="-2.857" y1="1.587" x2="-2.223" y2="1.587" stroke="#6b7280" stroke-width="0.100" stroke-linecap="round" opacity="0.8"/><line x1="-2.223" y1="-0.953" x2="-2.223" y2="-1.587" stroke="#6b7280" stroke-width="0.100" stroke-linecap="round" opacity="0.8"/><line x1="-2.223" y1="1.587" x2="-2.223" y2="0.953" stroke="#6b7280" stroke-width="0.100" stroke-linecap="round" opacity="0.8"/><line x1="-2.032" y1="4.191" x2="-2.032" y2="3.302" stroke="#6b7280" stroke-width="0.100" stroke-linecap="round" opacity="0.8"/><line x1="-0.318" y1="-1.587" x2="0.318" y2="-1.587" stroke="#6b7280" stroke-width="0.100" stroke-linecap="round" opacity="0.8"/><line x1="-0.318" y1="-0.953" x2="-0.318" y2="-1.587" stroke="#6b7280" stroke-width="0.100" stroke-linecap="round" opacity="0.8"/><line x1="-0.318" y1="-0.953" x2="0.318" y2="-0.953" stroke="#6b7280" stroke-width="0.100" stroke-linecap="round" opacity="0.8"/><line x1="-0.318" y1="0.953" x2="0.318" y2="0.953" stroke="#6b7280" stroke-width="0.100" stroke-linecap="round" opacity="0.8"/><line x1="-0.318" y1="1.587" x2="-0.318" y2="0.953" stroke="#6b7280" stroke-width="0.100" stroke-linecap="round" opacity="0.8"/><line x1="-0.318" y1="1.587" x2="0.318" y2="1.587" stroke="#6b7280" stroke-width="0.100" stroke-linecap="round" opacity="0.8"/><line x1="0.318" y1="-0.953" x2="0.318" y2="-1.587" stroke="#6b7280" stroke-width="0.100" stroke-linecap="round" opacity="0.8"/><line x1="0.318" y1="1.587" x2="0.318" y2="0.953" stroke="#6b7280" stroke-width="0.100" stroke-linecap="round" opacity="0.8"/><line x1="2.032" y1="4.191" x2="2.032" y2="3.302" stroke="#6b7280" stroke-width="0.100" stroke-linecap="round" opacity="0.8"/><line x1="2.223" y1="-1.587" x2="2.857" y2="-1.587" stroke="#6b7280" stroke-width="0.100" stroke-linecap="round" opacity="0.8"/><line x1="2.223" y1="-0.953" x2="2.223" y2="-1.587" stroke="#6b7280" stroke-width="0.100" stroke-linecap="round" opacity="0.8"/><line x1="2.223" y1="-0.953" x2="2.857" y2="-0.953" stroke="#6b7280" stroke-width="0.100" stroke-linecap="round" opacity="0.8"/><line x1="2.223" y1="0.953" x2="2.857" y2="0.953" stroke="#6b7280" stroke-width="0.100" stroke-linecap="round" opacity="0.8"/><line x1="2.223" y1="1.587" x2="2.223" y2="0.953" stroke="#6b7280" stroke-width="0.100" stroke-linecap="round" opacity="0.8"/><line x1="2.223" y1="1.587" x2="2.857" y2="1.587" stroke="#6b7280" stroke-width="0.100" stroke-linecap="round" opacity="0.8"/><line x1="2.769" y1="4.191" x2="2.769" y2="3.302" stroke="#6b7280" stroke-width="0.100" stroke-linecap="round" opacity="0.8"/><line x1="2.857" y1="-0.953" x2="2.857" y2="-1.587" stroke="#6b7280" stroke-width="0.100" stroke-linecap="round" opacity="0.8"/><line x1="2.857" y1="1.587" x2="2.857" y2="0.953" stroke="#6b7280" stroke-width="0.100" stroke-linecap="round" opacity="0.8"/><line x1="4.763" y1="-1.587" x2="5.397" y2="-1.587" stroke="#6b7280" stroke-width="0.100" stroke-linecap="round" opacity="0.8"/><line x1="4.763" y1="-0.953" x2="4.763" y2="-1.587" stroke="#6b7280" stroke-width="0.100" stroke-linecap="round" opacity="0.8"/><line x1="4.763" y1="-0.953" x2="5.397" y2="-0.953" stroke="#6b7280" stroke-width="0.100" stroke-linecap="round" opacity="0.8"/><line x1="4.763" y1="0.953" x2="5.397" y2="0.953" stroke="#6b7280" stroke-width="0.100" stroke-linecap="round" opacity="0.8"/><line x1="4.763" y1="1.587" x2="4.763" y2="0.953" stroke="#6b7280" stroke-width="0.100" stroke-linecap="round" opacity="0.8"/><line x1="4.763" y1="1.587" x2="5.397" y2="1.587" stroke="#6b7280" stroke-width="0.100" stroke-linecap="round" opacity="0.8"/><line x1="4.851" y1="4.191" x2="4.851" y2="3.302" stroke="#6b7280" stroke-width="0.100" stroke-linecap="round" opacity="0.8"/><line x1="5.397" y1="-0.953" x2="5.397" y2="-1.587" stroke="#6b7280" stroke-width="0.100" stroke-linecap="round" opacity="0.8"/><line x1="5.397" y1="1.587" x2="5.397" y2="0.953" stroke="#6b7280" stroke-width="0.100" stroke-linecap="round" opacity="0.8"/><line x1="5.702" y1="1.778" x2="5.702" y2="-1.397" stroke="#6b7280" stroke-width="0.100" stroke-linecap="round" opacity="0.8"/><line x1="5.702" y1="1.778" x2="8.763" y2="1.778" stroke="#6b7280" stroke-width="0.100" stroke-linecap="round" opacity="0.8"/><line x1="5.702" y1="-1.397" x2="6.440" y2="-1.397" stroke="#6b7280" stroke-width="0.100" stroke-linecap="round" opacity="0.8"/><line x1="5.935" y1="1.689" x2="5.935" y2="-1.308" stroke="#6b7280" stroke-width="0.100" stroke-linecap="round" opacity="0.8"/><line x1="5.935" y1="1.689" x2="8.763" y2="1.689" stroke="#6b7280" stroke-width="0.100" stroke-linecap="round" opacity="0.8"/><line x1="5.935" y1="-1.308" x2="6.440" y2="-1.308" stroke="#6b7280" stroke-width="0.100" stroke-linecap="round" opacity="0.8"/><line x1="8.724" y1="-3.556" x2="13.247" y2="-3.556" stroke="#6b7280" stroke-width="0.100" stroke-linecap="round" opacity="0.8"/><line x1="8.724" y1="-3.048" x2="8.724" y2="-3.556" stroke="#6b7280" stroke-width="0.100" stroke-linecap="round" opacity="0.8"/><line x1="8.763" y1="-2.400" x2="11.989" y2="-2.400" stroke="#6b7280" stroke-width="0.100" stroke-linecap="round" opacity="0.8"/><line x1="8.763" y1="2.781" x2="8.763" y2="-2.400" stroke="#6b7280" stroke-width="0.100" stroke-linecap="round" opacity="0.8"/><line x1="8.763" y1="2.781" x2="11.989" y2="2.781" stroke="#6b7280" stroke-width="0.100" stroke-linecap="round" opacity="0.8"/><line x1="8.954" y1="-2.400" x2="8.954" y2="-3.048" stroke="#6b7280" stroke-width="0.100" stroke-linecap="round" opacity="0.8"/><line x1="8.954" y1="3.302" x2="8.954" y2="2.781" stroke="#6b7280" stroke-width="0.100" stroke-linecap="round" opacity="0.8"/><line x1="10.604" y1="-3.048" x2="10.604" y2="-3.175" stroke="#6b7280" stroke-width="0.100" stroke-linecap="round" opacity="0.8"/><line x1="11.367" y1="-3.048" x2="11.367" y2="-3.175" stroke="#6b7280" stroke-width="0.100" stroke-linecap="round" opacity="0.8"/><line x1="11.989" y1="-1.397" x2="12.365" y2="-1.397" stroke="#6b7280" stroke-width="0.100" stroke-linecap="round" opacity="0.8"/><line x1="11.989" y1="-1.308" x2="14.720" y2="-1.308" stroke="#6b7280" stroke-width="0.100" stroke-linecap="round" opacity="0.8"/><line x1="11.989" y1="1.689" x2="14.720" y2="1.689" stroke="#6b7280" stroke-width="0.100" stroke-linecap="round" opacity="0.8"/><line x1="11.989" y1="1.778" x2="12.365" y2="1.778" stroke="#6b7280" stroke-width="0.100" stroke-linecap="round" opacity="0.8"/><line x1="11.989" y1="2.781" x2="11.989" y2="-2.400" stroke="#6b7280" stroke-width="0.100" stroke-linecap="round" opacity="0.8"/><line x1="12.365" y1="-2.362" x2="16.066" y2="-2.362" stroke="#6b7280" stroke-width="0.100" stroke-linecap="round" opacity="0.8"/><line x1="12.365" y1="-1.308" x2="12.365" y2="-2.362" stroke="#6b7280" stroke-width="0.100" stroke-linecap="round" opacity="0.8"/><line x1="12.365" y1="3.404" x2="12.365" y2="1.689" stroke="#6b7280" stroke-width="0.100" stroke-linecap="round" opacity="0.8"/><line x1="12.365" y1="3.404" x2="16.066" y2="3.404" stroke="#6b7280" stroke-width="0.100" stroke-linecap="round" opacity="0.8"/><line x1="13.247" y1="-3.048" x2="13.247" y2="-3.556" stroke="#6b7280" stroke-width="0.100" stroke-linecap="round" opacity="0.8"/><line x1="13.344" y1="1.689" x2="14.034" y2="2.087" stroke="#6b7280" stroke-width="0.100" stroke-linecap="round" opacity="0.8"/><line x1="13.564" y1="-1.308" x2="14.034" y2="-1.579" stroke="#6b7280" stroke-width="0.100" stroke-linecap="round" opacity="0.8"/><line x1="14.034" y1="-1.579" x2="14.503" y2="-1.308" stroke="#6b7280" stroke-width="0.100" stroke-linecap="round" opacity="0.8"/><line x1="14.034" y1="2.087" x2="15.621" y2="1.171" stroke="#6b7280" stroke-width="0.100" stroke-linecap="round" opacity="0.8"/><line x1="14.720" y1="-1.183" x2="15.621" y2="-0.663" stroke="#6b7280" stroke-width="0.100" stroke-linecap="round" opacity="0.8"/><line x1="14.720" y1="1.689" x2="14.720" y2="-1.308" stroke="#6b7280" stroke-width="0.100" stroke-linecap="round" opacity="0.8"/><line x1="15.621" y1="1.171" x2="15.621" y2="-0.663" stroke="#6b7280" stroke-width="0.100" stroke-linecap="round" opacity="0.8"/><line x1="16.066" y1="4.191" x2="16.066" y2="-3.048" stroke="#6b7280" stroke-width="0.100" stroke-linecap="round" opacity="0.8"/><line x1="-16.570" y1="-3.810" x2="16.570" y2="-3.810" stroke="#d24d4d" stroke-width="0.080" stroke-linecap="round" opacity="0.7"/><line x1="16.570" y1="-3.810" x2="16.570" y2="4.440" stroke="#d24d4d" stroke-width="0.080" stroke-linecap="round" opacity="0.7"/><line x1="16.570" y1="4.440" x2="-16.570" y2="4.440" stroke="#d24d4d" stroke-width="0.080" stroke-linecap="round" opacity="0.7"/><line x1="-16.570" y1="4.440" x2="-16.570" y2="-3.810" stroke="#d24d4d" stroke-width="0.080" stroke-linecap="round" opacity="0.7"/><path d="M -11.367 -3.175 A 0.381 0.381 0 1 1 -10.604 -3.175" fill="none" stroke="#e6e9ef" stroke-width="0.12" opacity="1"/><path d="M 10.604 -3.175 A 0.381 0.381 0 1 1 11.367 -3.175" fill="none" stroke="#e6e9ef" stroke-width="0.12" opacity="1"/><path d="M -14.720 1.322 A 1.270 1.270 0 0 1 -14.720 -0.814" fill="none" stroke="#6b7280" stroke-width="0.12" opacity="0.8"/><path d="M -11.367 -3.175 A 0.381 0.381 0 1 1 -10.604 -3.175" fill="none" stroke="#6b7280" stroke-width="0.12" opacity="0.8"/><path d="M 10.604 -3.175 A 0.381 0.381 0 1 1 11.367 -3.175" fill="none" stroke="#6b7280" stroke-width="0.12" opacity="0.8"/><path d="M 14.720 -0.814 A 1.270 1.270 0 0 1 14.720 1.322" fill="none" stroke="#6b7280" stroke-width="0.12" opacity="0.8"/><circle cx="-5.153" cy="5.080" r="0.150" fill="none" stroke="#e6e9ef" stroke-width="0.12" opacity="1"/><rect x="-5.880" y="0.470" width="1.600" height="1.600" rx="0.800" fill="#c79b5c"/><circle cx="-5.080" cy="1.270" r="0.450" fill="#12151c"/><rect x="-5.880" y="-2.070" width="1.600" height="1.600" rx="0.800" fill="#c79b5c"/><circle cx="-5.080" cy="-1.270" r="0.450" fill="#12151c"/><rect x="-3.340" y="0.470" width="1.600" height="1.600" rx="0.800" fill="#c79b5c"/><circle cx="-2.540" cy="1.270" r="0.450" fill="#12151c"/><rect x="-3.340" y="-2.070" width="1.600" height="1.600" rx="0.800" fill="#c79b5c"/><circle cx="-2.540" cy="-1.270" r="0.450" fill="#12151c"/><rect x="-0.800" y="0.470" width="1.600" height="1.600" rx="0.800" fill="#c79b5c"/><circle cx="-0.000" cy="1.270" r="0.450" fill="#12151c"/><rect x="-0.800" y="-2.070" width="1.600" height="1.600" rx="0.800" fill="#c79b5c"/><circle cx="-0.000" cy="-1.270" r="0.450" fill="#12151c"/><rect x="1.740" y="0.470" width="1.600" height="1.600" rx="0.800" fill="#c79b5c"/><circle cx="2.540" cy="1.270" r="0.450" fill="#12151c"/><rect x="1.740" y="-2.070" width="1.600" height="1.600" rx="0.800" fill="#c79b5c"/><circle cx="2.540" cy="-1.270" r="0.450" fill="#12151c"/><rect x="4.280" y="0.470" width="1.600" height="1.600" rx="0.800" fill="#c79b5c"/><circle cx="5.080" cy="1.270" r="0.450" fill="#12151c"/><rect x="4.280" y="-2.070" width="1.600" height="1.600" rx="0.800" fill="#c79b5c"/><circle cx="5.080" cy="-1.270" r="0.450" fill="#12151c"/><rect x="-16.320" y="-2.050" width="4.600" height="4.600" rx="2.300" fill="#c79b5c"/><circle cx="-14.020" cy="0.250" r="1.400" fill="#12151c"/><rect x="11.720" y="-2.050" width="4.600" height="4.600" rx="2.300" fill="#c79b5c"/><circle cx="14.020" cy="0.250" r="1.400" fill="#12151c"/></svg>