<svg xmlns="http://www.w3.org/2000/svg" viewBox="-3.85 -4.05 7.70 8.10" preserveAspectRatio="xMidYMid meet" style="width:100%;height:100%"><rect x="-3.85" y="-4.05" width="7.70" height="8.10" fill="#12151c"/><line x1="-1.000" y1="-2.400" x2="1.000" y2="-2.400" stroke="#e6e9ef" stroke-width="0.200" stroke-linecap="round" opacity="1"/><line x1="-1.000" y1="2.400" x2="1.000" y2="2.400" stroke="#e6e9ef" stroke-width="0.200" stroke-linecap="round" opacity="1"/><line x1="-2.600" y1="-2.800" x2="-1.300" y2="-2.800" stroke="#4a5160" stroke-width="0.080" stroke-linecap="round" opacity="0.7"/><line x1="-2.600" y1="2.800" x2="-2.600" y2="-2.800" stroke="#4a5160" stroke-width="0.080" stroke-linecap="round" opacity="0.7"/><line x1="-2.600" y1="2.800" x2="-1.300" y2="2.800" stroke="#4a5160" stroke-width="0.080" stroke-linecap="round" opacity="0.7"/><line x1="-2.450" y1="0.000" x2="-1.950" y2="0.000" stroke="#4a5160" stroke-width="0.080" stroke-linecap="round" opacity="0.7"/><line x1="-1.950" y1="0.000" x2="-1.950" y2="-0.500" stroke="#4a5160" stroke-width="0.080" stroke-linecap="round" opacity="0.7"/><line x1="-1.950" y1="0.000" x2="-1.450" y2="0.000" stroke="#4a5160" stroke-width="0.080" stroke-linecap="round" opacity="0.7"/><line x1="-1.950" y1="0.500" x2="-1.950" y2="0.000" stroke="#4a5160" stroke-width="0.080" stroke-linecap="round" opacity="0.7"/><line x1="-1.300" y1="2.800" x2="-1.300" y2="-2.800" stroke="#4a5160" stroke-width="0.080" stroke-linecap="round" opacity="0.7"/><line x1="-0.500" y1="0.000" x2="0.000" y2="0.000" stroke="#4a5160" stroke-width="0.080" stroke-linecap="round" opacity="0.7"/><line x1="0.000" y1="0.000" x2="0.000" y2="-0.500" stroke="#4a5160" stroke-width="0.080" stroke-linecap="round" opacity="0.7"/><line x1="0.000" y1="0.000" x2="0.500" y2="0.000" stroke="#4a5160" stroke-width="0.080" stroke-linecap="round" opacity="0.7"/><line x1="0.000" y1="0.500" x2="0.000" y2="0.000" stroke="#4a5160" stroke-width="0.080" stroke-linecap="round" opacity="0.7"/><line x1="1.300" y1="-2.800" x2="2.600" y2="-2.800" stroke="#4a5160" stroke-width="0.080" stroke-linecap="round" opacity="0.7"/><line x1="1.300" y1="2.800" x2="1.300" y2="-2.800" stroke="#4a5160" stroke-width="0.080" stroke-linecap="round" opacity="0.7"/><line x1="1.300" y1="2.800" x2="2.600" y2="2.800" stroke="#4a5160" stroke-width="0.080" stroke-linecap="round" opacity="0.7"/><line x1="1.450" y1="0.000" x2="1.950" y2="0.000" stroke="#4a5160" stroke-width="0.080" stroke-linecap="round" opacity="0.7"/><line x1="1.950" y1="0.000" x2="1.950" y2="-0.500" stroke="#4a5160" stroke-width="0.080" stroke-linecap="round" opacity="0.7"/><line x1="1.950" y1="0.000" x2="2.450" y2="0.000" stroke="#4a5160" stroke-width="0.080" stroke-linecap="round" opacity="0.7"/><line x1="1.950" y1="0.500" x2="1.950" y2="0.000" stroke="#4a5160" stroke-width="0.080" stroke-linecap="round" opacity="0.7"/><line x1="2.600" y1="2.800" x2="2.600" y2="-2.800" stroke="#4a5160" stroke-width="0.080" stroke-linecap="round" opacity="0.7"/><line x1="-2.850" y1="-3.050" x2="2.850" y2="-3.050" stroke="#d24d4d" stroke-width="0.080" stroke-linecap="round" opacity="0.7"/><line x1="-2.850" y1="3.050" x2="-2.850" y2="-3.050" stroke="#d24d4d" stroke-width="0.080" stroke-linecap="round" opacity="0.7"/><line x1="-2.850" y1="3.050" x2="2.850" y2="3.050" stroke="#d24d4d" stroke-width="0.080" stroke-linecap="round" opacity="0.7"/><line x1="2.850" y1="3.050" x2="2.850" y2="-3.050" stroke="#d24d4d" stroke-width="0.080" stroke-linecap="round" opacity="0.7"/><line x1="-2.200" y1="-2.500" x2="-1.700" y2="-2.500" stroke="#6b7280" stroke-width="0.100" stroke-linecap="round" opacity="0.8"/><line x1="-2.200" y1="-1.658" x2="-1.700" y2="-1.658" stroke="#6b7280" stroke-width="0.100" stroke-linecap="round" opacity="0.8"/><line x1="-2.200" y1="0.000" x2="2.200" y2="0.000" stroke="#6b7280" stroke-width="0.100" stroke-linecap="round" opacity="0.8"/><line x1="-2.200" y1="1.658" x2="-1.700" y2="1.658" stroke="#6b7280" stroke-width="0.100" stroke-linecap="round" opacity="0.8"/><line x1="-2.200" y1="2.500" x2="-2.200" y2="-2.500" stroke="#6b7280" stroke-width="0.100" stroke-linecap="round" opacity="0.8"/><line x1="-2.200" y1="2.500" x2="-1.700" y2="2.500" stroke="#6b7280" stroke-width="0.100" stroke-linecap="round" opacity="0.8"/><line x1="-1.700" y1="-2.400" x2="1.700" y2="-2.400" stroke="#6b7280" stroke-width="0.100" stroke-linecap="round" opacity="0.8"/><line x1="-1.700" y1="2.400" x2="1.700" y2="2.400" stroke="#6b7280" stroke-width="0.100" stroke-linecap="round" opacity="0.8"/><line x1="-1.700" y1="2.500" x2="-1.700" y2="-2.500" stroke="#6b7280" stroke-width="0.100" stroke-linecap="round" opacity="0.8"/><line x1="-1.400" y1="2.400" x2="-1.400" y2="-2.400" stroke="#6b7280" stroke-width="0.100" stroke-linecap="round" opacity="0.8"/><line x1="1.700" y1="-2.500" x2="2.200" y2="-2.500" stroke="#6b7280" stroke-width="0.100" stroke-linecap="round" opacity="0.8"/><line x1="1.700" y1="2.500" x2="1.700" y2="-2.500" stroke="#6b7280" stroke-width="0.100" stroke-linecap="round" opacity="0.8"/><line x1="1.700" y1="2.500" x2="2.200" y2="2.500" stroke="#6b7280" stroke-width="0.100" stroke-linecap="round" opacity="0.8"/><line x1="2.200" y1="2.500" x2="2.200" y2="-2.500" stroke="#6b7280" stroke-width="0.100" stroke-linecap="round" opacity="0.8"/><rect x="-2.600" y="-2.800" width="1.300" height="5.600" rx="0.000" fill="#c79b5c"/><rect x="1.300" y="-2.800" width="1.300" height="5.600" rx="0.000" fill="#c79b5c"/><polygon points="-2.40,3.85 -1.50,3.85 -1.95,3.25" fill="#ffffff"/></svg>