<svg xmlns="http://www.w3.org/2000/svg" viewBox="-5.50 -5.75 10.50 11.50" preserveAspectRatio="xMidYMid meet" style="width:100%;height:100%"><rect x="-5.50" y="-5.75" width="10.50" height="11.50" fill="#12151c"/><line x1="-3.750" y1="-4.500" x2="-3.600" y2="-4.500" stroke="#e6e9ef" stroke-width="0.200" stroke-linecap="round" opacity="1"/><line x1="-3.750" y1="4.500" x2="-3.750" y2="-4.500" stroke="#e6e9ef" stroke-width="0.200" stroke-linecap="round" opacity="1"/><line x1="-3.750" y1="4.500" x2="-3.600" y2="4.500" stroke="#e6e9ef" stroke-width="0.200" stroke-linecap="round" opacity="1"/><line x1="-0.350" y1="-4.500" x2="0.350" y2="-4.500" stroke="#e6e9ef" stroke-width="0.200" stroke-linecap="round" opacity="1"/><line x1="-0.350" y1="4.500" x2="0.350" y2="4.500" stroke="#e6e9ef" stroke-width="0.200" stroke-linecap="round" opacity="1"/><line x1="3.600" y1="-4.500" x2="3.750" y2="-4.500" stroke="#e6e9ef" stroke-width="0.200" stroke-linecap="round" opacity="1"/><line x1="3.600" y1="4.500" x2="3.750" y2="4.500" stroke="#e6e9ef" stroke-width="0.200" stroke-linecap="round" opacity="1"/><line x1="3.750" y1="4.500" x2="3.750" y2="-4.500" stroke="#e6e9ef" stroke-width="0.200" stroke-linecap="round" opacity="1"/><line x1="-3.250" y1="-4.250" x2="-2.750" y2="-3.550" stroke="#4a5160" stroke-width="0.080" stroke-linecap="round" opacity="0.7"/><line x1="-3.250" y1="-4.250" x2="-2.250" y2="-4.250" stroke="#4a5160" stroke-width="0.080" stroke-linecap="round" opacity="0.7"/><line x1="-3.250" y1="-2.850" x2="-3.250" y2="-4.250" stroke="#4a5160" stroke-width="0.080" stroke-linecap="round" opacity="0.7"/><line x1="-3.250" y1="-2.850" x2="-2.250" y2="-2.850" stroke="#4a5160" stroke-width="0.080" stroke-linecap="round" opacity="0.7"/><line x1="-3.250" y1="-1.650" x2="-2.750" y2="-1.200" stroke="#4a5160" stroke-width="0.080" stroke-linecap="round" opacity="0.7"/><line x1="-3.250" y1="-1.650" x2="-2.250" y2="-1.650" stroke="#4a5160" stroke-width="0.080" stroke-linecap="round" opacity="0.7"/><line x1="-3.250" y1="-0.750" x2="-3.250" y2="-1.650" stroke="#4a5160" stroke-width="0.080" stroke-linecap="round" opacity="0.7"/><line x1="-3.250" y1="-0.750" x2="-2.750" y2="-1.200" stroke="#4a5160" stroke-width="0.080" stroke-linecap="round" opacity="0.7"/><line x1="-3.250" y1="-0.750" x2="-2.250" y2="-0.750" stroke="#4a5160" stroke-width="0.080" stroke-linecap="round" opacity="0.7"/><line x1="-3.250" y1="-0.450" x2="-2.750" y2="0.000" stroke="#4a5160" stroke-width="0.080" stroke-linecap="round" opacity="0.7"/><line x1="-3.250" y1="-0.450" x2="-2.250" y2="-0.450" stroke="#4a5160" stroke-width="0.080" stroke-linecap="round" opacity="0.7"/><line x1="-3.250" y1="0.450" x2="-3.250" y2="-0.450" stroke="#4a5160" stroke-width="0.080" stroke-linecap="round" opacity="0.7"/><line x1="-3.250" y1="0.450" x2="-2.750" y2="0.000" stroke="#4a5160" stroke-width="0.080" stroke-linecap="round" opacity="0.7"/><line x1="-3.250" y1="0.450" x2="-2.250" y2="0.450" stroke="#4a5160" stroke-width="0.080" stroke-linecap="round" opacity="0.7"/><line x1="-3.250" y1="0.750" x2="-2.750" y2="1.200" stroke="#4a5160" stroke-width="0.080" stroke-linecap="round" opacity="0.7"/><line x1="-3.250" y1="0.750" x2="-2.250" y2="0.750" stroke="#4a5160" stroke-width="0.080" stroke-linecap="round" opacity="0.7"/><line x1="-3.250" y1="1.650" x2="-3.250" y2="0.750" stroke="#4a5160" stroke-width="0.080" stroke-linecap="round" opacity="0.7"/><line x1="-3.250" y1="1.650" x2="-2.750" y2="1.200" stroke="#4a5160" stroke-width="0.080" stroke-linecap="round" opacity="0.7"/><line x1="-3.250" y1="1.650" x2="-2.250" y2="1.650" stroke="#4a5160" stroke-width="0.080" stroke-linecap="round" opacity="0.7"/><line x1="-3.250" y1="2.850" x2="-2.250" y2="2.850" stroke="#4a5160" stroke-width="0.080" stroke-linecap="round" opacity="0.7"/><line x1="-3.250" y1="4.250" x2="-3.250" y2="2.850" stroke="#4a5160" stroke-width="0.080" stroke-linecap="round" opacity="0.7"/><line x1="-3.250" y1="4.250" x2="-2.750" y2="3.550" stroke="#4a5160" stroke-width="0.080" stroke-linecap="round" opacity="0.7"/><line x1="-3.250" y1="4.250" x2="-2.250" y2="4.250" stroke="#4a5160" stroke-width="0.080" stroke-linecap="round" opacity="0.7"/><line x1="-2.750" y1="-3.550" x2="-2.250" y2="-4.250" stroke="#4a5160" stroke-width="0.080" stroke-linecap="round" opacity="0.7"/><line x1="-2.750" y1="3.550" x2="-2.250" y2="4.250" stroke="#4a5160" stroke-width="0.080" stroke-linecap="round" opacity="0.7"/><line x1="-2.250" y1="-2.850" x2="-2.250" y2="-4.250" stroke="#4a5160" stroke-width="0.080" stroke-linecap="round" opacity="0.7"/><line x1="-2.250" y1="-0.750" x2="-2.250" y2="-1.650" stroke="#4a5160" stroke-width="0.080" stroke-linecap="round" opacity="0.7"/><line x1="-2.250" y1="0.450" x2="-2.250" y2="-0.450" stroke="#4a5160" stroke-width="0.080" stroke-linecap="round" opacity="0.7"/><line x1="-2.250" y1="1.650" x2="-2.250" y2="0.750" stroke="#4a5160" stroke-width="0.080" stroke-linecap="round" opacity="0.7"/><line x1="-2.250" y1="4.250" x2="-2.250" y2="2.850" stroke="#4a5160" stroke-width="0.080" stroke-linecap="round" opacity="0.7"/><line x1="-1.700" y1="-4.250" x2="-1.200" y2="-3.550" stroke="#4a5160" stroke-width="0.080" stroke-linecap="round" opacity="0.7"/><line x1="-1.700" y1="-4.250" x2="-0.700" y2="-4.250" stroke="#4a5160" stroke-width="0.080" stroke-linecap="round" opacity="0.7"/><line x1="-1.700" y1="-2.850" x2="-1.700" y2="-4.250" stroke="#4a5160" stroke-width="0.080" stroke-linecap="round" opacity="0.7"/><line x1="-1.700" y1="-2.850" x2="-0.700" y2="-2.850" stroke="#4a5160" stroke-width="0.080" stroke-linecap="round" opacity="0.7"/><line x1="-1.700" y1="-1.650" x2="-1.200" y2="-1.200" stroke="#4a5160" stroke-width="0.080" stroke-linecap="round" opacity="0.7"/><line x1="-1.700" y1="-1.650" x2="-0.700" y2="-1.650" stroke="#4a5160" stroke-width="0.080" stroke-linecap="round" opacity="0.7"/><line x1="-1.700" y1="-0.750" x2="-1.700" y2="-1.650" stroke="#4a5160" stroke-width="0.080" stroke-linecap="round" opacity="0.7"/><line x1="-1.700" y1="-0.750" x2="-0.700" y2="-0.750" stroke="#4a5160" stroke-width="0.080" stroke-linecap="round" opacity="0.7"/><line x1="-1.700" y1="-0.450" x2="-1.200" y2="0.000" stroke="#4a5160" stroke-width="0.080" stroke-linecap="round" opacity="0.7"/><line x1="-1.700" y1="-0.450" x2="-0.700" y2="-0.450" stroke="#4a5160" stroke-width="0.080" stroke-linecap="round" opacity="0.7"/><line x1="-1.700" y1="0.450" x2="-1.700" y2="-0.450" stroke="#4a5160" stroke-width="0.080" stroke-linecap="round" opacity="0.7"/><line x1="-1.700" y1="0.450" x2="-1.200" y2="0.000" stroke="#4a5160" stroke-width="0.080" stroke-linecap="round" opacity="0.7"/><line x1="-1.700" y1="0.450" x2="-0.700" y2="0.450" stroke="#4a5160" stroke-width="0.080" stroke-linecap="round" opacity="0.7"/><line x1="-1.700" y1="0.750" x2="-0.700" y2="0.750" stroke="#4a5160" stroke-width="0.080" stroke-linecap="round" opacity="0.7"/><line x1="-1.700" y1="1.650" x2="-1.700" y2="0.750" stroke="#4a5160" stroke-width="0.080" stroke-linecap="round" opacity="0.7"/><line x1="-1.700" y1="1.650" x2="-1.200" y2="1.200" stroke="#4a5160" stroke-width="0.080" stroke-linecap="round" opacity="0.7"/><line x1="-1.700" y1="1.650" x2="-0.700" y2="1.650" stroke="#4a5160" stroke-width="0.080" stroke-linecap="round" opacity="0.7"/><line x1="-1.700" y1="2.850" x2="-0.700" y2="2.850" stroke="#4a5160" stroke-width="0.080" stroke-linecap="round" opacity="0.7"/><line x1="-1.700" y1="4.250" x2="-1.700" y2="2.850" stroke="#4a5160" stroke-width="0.080" stroke-linecap="round" opacity="0.7"/><line x1="-1.700" y1="4.250" x2="-1.200" y2="3.550" stroke="#4a5160" stroke-width="0.080" stroke-linecap="round" opacity="0.7"/><line x1="-1.700" y1="4.250" x2="-0.700" y2="4.250" stroke="#4a5160" stroke-width="0.080" stroke-linecap="round" opacity="0.7"/><line x1="-1.200" y1="-3.550" x2="-0.700" y2="-4.250" stroke="#4a5160" stroke-width="0.080" stroke-linecap="round" opacity="0.7"/><line x1="-1.200" y1="-1.200" x2="-0.700" y2="-1.650" stroke="#4a5160" stroke-width="0.080" stroke-linecap="round" opacity="0.7"/><line x1="-1.200" y1="1.200" x2="-0.700" y2="1.650" stroke="#4a5160" stroke-width="0.080" stroke-linecap="round" opacity="0.7"/><line x1="-1.200" y1="3.550" x2="-0.700" y2="4.250" stroke="#4a5160" stroke-width="0.080" stroke-linecap="round" opacity="0.7"/><line x1="-0.700" y1="-2.850" x2="-0.700" y2="-4.250" stroke="#4a5160" stroke-width="0.080" stroke-linecap="round" opacity="0.7"/><line x1="-0.700" y1="-0.750" x2="-0.700" y2="-1.650" stroke="#4a5160" stroke-width="0.080" stroke-linecap="round" opacity="0.7"/><line x1="-0.700" y1="0.450" x2="-0.700" y2="-0.450" stroke="#4a5160" stroke-width="0.080" stroke-linecap="round" opacity="0.7"/><line x1="-0.700" y1="1.650" x2="-0.700" y2="0.750" stroke="#4a5160" stroke-width="0.080" stroke-linecap="round" opacity="0.7"/><line x1="-0.700" y1="4.250" x2="-0.700" y2="2.850" stroke="#4a5160" stroke-width="0.080" stroke-linecap="round" opacity="0.7"/><line x1="-0.500" y1="-1.650" x2="0.000" y2="-1.200" stroke="#4a5160" stroke-width="0.080" stroke-linecap="round" opacity="0.7"/><line x1="-0.500" y1="-1.650" x2="0.500" y2="-1.650" stroke="#4a5160" stroke-width="0.080" stroke-linecap="round" opacity="0.7"/><line x1="-0.500" y1="-0.750" x2="-0.500" y2="-1.650" stroke="#4a5160" stroke-width="0.080" stroke-linecap="round" opacity="0.7"/><line x1="-0.500" y1="-0.750" x2="0.500" y2="-0.750" stroke="#4a5160" stroke-width="0.080" stroke-linecap="round" opacity="0.7"/><line x1="-0.500" y1="-0.450" x2="0.500" y2="-0.450" stroke="#4a5160" stroke-width="0.080" stroke-linecap="round" opacity="0.7"/><line x1="-0.500" y1="0.000" x2="0.000" y2="0.000" stroke="#4a5160" stroke-width="0.080" stroke-linecap="round" opacity="0.7"/><line x1="-0.500" y1="0.450" x2="-0.500" y2="-0.450" stroke="#4a5160" stroke-width="0.080" stroke-linecap="round" opacity="0.7"/><line x1="-0.500" y1="0.450" x2="0.500" y2="0.450" stroke="#4a5160" stroke-width="0.080" stroke-linecap="round" opacity="0.7"/><line x1="-0.500" y1="0.750" x2="0.500" y2="0.750" stroke="#4a5160" stroke-width="0.080" stroke-linecap="round" opacity="0.7"/><line x1="-0.500" y1="1.650" x2="-0.500" y2="0.750" stroke="#4a5160" stroke-width="0.080" stroke-linecap="round" opacity="0.7"/><line x1="-0.500" y1="1.650" x2="0.000" y2="1.200" stroke="#4a5160" stroke-width="0.080" stroke-linecap="round" opacity="0.7"/><line x1="-0.500" y1="1.650" x2="0.500" y2="1.650" stroke="#4a5160" stroke-width="0.080" stroke-linecap="round" opacity="0.7"/><line x1="0.000" y1="-1.200" x2="0.500" y2="-1.650" stroke="#4a5160" stroke-width="0.080" stroke-linecap="round" opacity="0.7"/><line x1="0.000" y1="0.000" x2="0.000" y2="-0.500" stroke="#4a5160" stroke-width="0.080" stroke-linecap="round" opacity="0.7"/><line x1="0.000" y1="0.000" x2="0.500" y2="0.000" stroke="#4a5160" stroke-width="0.080" stroke-linecap="round" opacity="0.7"/><line x1="0.000" y1="0.500" x2="0.000" y2="0.000" stroke="#4a5160" stroke-width="0.080" stroke-linecap="round" opacity="0.7"/><line x1="0.000" y1="1.200" x2="0.500" y2="1.650" stroke="#4a5160" stroke-width="0.080" stroke-linecap="round" opacity="0.7"/><line x1="0.500" y1="-0.750" x2="0.500" y2="-1.650" stroke="#4a5160" stroke-width="0.080" stroke-linecap="round" opacity="0.7"/><line x1="0.500" y1="0.450" x2="0.500" y2="-0.450" stroke="#4a5160" stroke-width="0.080" stroke-linecap="round" opacity="0.7"/><line x1="0.500" y1="1.650" x2="0.500" y2="0.750" stroke="#4a5160" stroke-width="0.080" stroke-linecap="round" opacity="0.7"/><line x1="0.700" y1="-4.250" x2="1.200" y2="-3.550" stroke="#4a5160" stroke-width="0.080" stroke-linecap="round" opacity="0.7"/><line x1="0.700" y1="-4.250" x2="1.700" y2="-4.250" stroke="#4a5160" stroke-width="0.080" stroke-linecap="round" opacity="0.7"/><line x1="0.700" y1="-2.850" x2="0.700" y2="-4.250" stroke="#4a5160" stroke-width="0.080" stroke-linecap="round" opacity="0.7"/><line x1="0.700" y1="-2.850" x2="1.700" y2="-2.850" stroke="#4a5160" stroke-width="0.080" stroke-linecap="round" opacity="0.7"/><line x1="0.700" y1="-1.650" x2="1.200" y2="-1.200" stroke="#4a5160" stroke-width="0.080" stroke-linecap="round" opacity="0.7"/><line x1="0.700" y1="-1.650" x2="1.700" y2="-1.650" stroke="#4a5160" stroke-width="0.080" stroke-linecap="round" opacity="0.7"/><line x1="0.700" y1="-0.750" x2="0.700" y2="-1.650" stroke="#4a5160" stroke-width="0.080" stroke-linecap="round" opacity="0.7"/><line x1="0.700" y1="-0.750" x2="1.700" y2="-0.750" stroke="#4a5160" stroke-width="0.080" stroke-linecap="round" opacity="0.7"/><line x1="0.700" y1="-0.450" x2="1.700" y2="-0.450" stroke="#4a5160" stroke-width="0.080" stroke-linecap="round" opacity="0.7"/><line x1="0.700" y1="0.450" x2="0.700" y2="-0.450" stroke="#4a5160" stroke-width="0.080" stroke-linecap="round" opacity="0.7"/><line x1="0.700" y1="0.450" x2="1.700" y2="0.450" stroke="#4a5160" stroke-width="0.080" stroke-linecap="round" opacity="0.7"/><line x1="0.700" y1="0.750" x2="1.700" y2="0.750" stroke="#4a5160" stroke-width="0.080" stroke-linecap="round" opacity="0.7"/><line x1="0.700" y1="1.650" x2="0.700" y2="0.750" stroke="#4a5160" stroke-width="0.080" stroke-linecap="round" opacity="0.7"/><line x1="0.700" y1="1.650" x2="1.200" y2="1.200" stroke="#4a5160" stroke-width="0.080" stroke-linecap="round" opacity="0.7"/><line x1="0.700" y1="1.650" x2="1.700" y2="1.650" stroke="#4a5160" stroke-width="0.080" stroke-linecap="round" opacity="0.7"/><line x1="0.700" y1="2.850" x2="1.700" y2="2.850" stroke="#4a5160" stroke-width="0.080" stroke-linecap="round" opacity="0.7"/><line x1="0.700" y1="4.250" x2="0.700" y2="2.850" stroke="#4a5160" stroke-width="0.080" stroke-linecap="round" opacity="0.7"/><line x1="0.700" y1="4.250" x2="1.200" y2="3.550" stroke="#4a5160" stroke-width="0.080" stroke-linecap="round" opacity="0.7"/><line x1="0.700" y1="4.250" x2="1.700" y2="4.250" stroke="#4a5160" stroke-width="0.080" stroke-linecap="round" opacity="0.7"/><line x1="1.200" y1="-3.550" x2="1.700" y2="-4.250" stroke="#4a5160" stroke-width="0.080" stroke-linecap="round" opacity="0.7"/><line x1="1.200" y1="-1.200" x2="1.700" y2="-1.650" stroke="#4a5160" stroke-width="0.080" stroke-linecap="round" opacity="0.7"/><line x1="1.200" y1="0.000" x2="1.700" y2="-0.450" stroke="#4a5160" stroke-width="0.080" stroke-linecap="round" opacity="0.7"/><line x1="1.200" y1="0.000" x2="1.700" y2="0.450" stroke="#4a5160" stroke-width="0.080" stroke-linecap="round" opacity="0.7"/><line x1="1.200" y1="1.200" x2="1.700" y2="1.650" stroke="#4a5160" stroke-width="0.080" stroke-linecap="round" opacity="0.7"/><line x1="1.200" y1="3.550" x2="1.700" y2="4.250" stroke="#4a5160" stroke-width="0.080" stroke-linecap="round" opacity="0.7"/><line x1="1.700" y1="-2.850" x2="1.700" y2="-4.250" stroke="#4a5160" stroke-width="0.080" stroke-linecap="round" opacity="0.7"/><line x1="1.700" y1="-0.750" x2="1.700" y2="-1.650" stroke="#4a5160" stroke-width="0.080" stroke-linecap="round" opacity="0.7"/><line x1="1.700" y1="0.450" x2="1.700" y2="-0.450" stroke="#4a5160" stroke-width="0.080" stroke-linecap="round" opacity="0.7"/><line x1="1.700" y1="1.650" x2="1.700" y2="0.750" stroke="#4a5160" stroke-width="0.080" stroke-linecap="round" opacity="0.7"/><line x1="1.700" y1="4.250" x2="1.700" y2="2.850" stroke="#4a5160" stroke-width="0.080" stroke-linecap="round" opacity="0.7"/><line x1="2.250" y1="-4.250" x2="2.750" y2="-3.550" stroke="#4a5160" stroke-width="0.080" stroke-linecap="round" opacity="0.7"/><line x1="2.250" y1="-4.250" x2="3.250" y2="-4.250" stroke="#4a5160" stroke-width="0.080" stroke-linecap="round" opacity="0.7"/><line x1="2.250" y1="-2.850" x2="2.250" y2="-4.250" stroke="#4a5160" stroke-width="0.080" stroke-linecap="round" opacity="0.7"/><line x1="2.250" y1="-2.850" x2="3.250" y2="-2.850" stroke="#4a5160" stroke-width="0.080" stroke-linecap="round" opacity="0.7"/><line x1="2.250" y1="-1.650" x2="3.250" y2="-1.650" stroke="#4a5160" stroke-width="0.080" stroke-linecap="round" opacity="0.7"/><line x1="2.250" y1="-0.750" x2="2.250" y2="-1.650" stroke="#4a5160" stroke-width="0.080" stroke-linecap="round" opacity="0.7"/><line x1="2.250" y1="-0.750" x2="3.250" y2="-0.750" stroke="#4a5160" stroke-width="0.080" stroke-linecap="round" opacity="0.7"/><line x1="2.250" y1="-0.450" x2="3.250" y2="-0.450" stroke="#4a5160" stroke-width="0.080" stroke-linecap="round" opacity="0.7"/><line x1="2.250" y1="0.450" x2="2.250" y2="-0.450" stroke="#4a5160" stroke-width="0.080" stroke-linecap="round" opacity="0.7"/><line x1="2.250" y1="0.450" x2="3.250" y2="0.450" stroke="#4a5160" stroke-width="0.080" stroke-linecap="round" opacity="0.7"/><line x1="2.250" y1="0.750" x2="3.250" y2="0.750" stroke="#4a5160" stroke-width="0.080" stroke-linecap="round" opacity="0.7"/><line x1="2.250" y1="1.650" x2="2.250" y2="0.750" stroke="#4a5160" stroke-width="0.080" stroke-linecap="round" opacity="0.7"/><line x1="2.250" y1="1.650" x2="3.250" y2="1.650" stroke="#4a5160" stroke-width="0.080" stroke-linecap="round" opacity="0.7"/><line x1="2.250" y1="2.850" x2="3.250" y2="2.850" stroke="#4a5160" stroke-width="0.080" stroke-linecap="round" opacity="0.7"/><line x1="2.250" y1="4.250" x2="2.250" y2="2.850" stroke="#4a5160" stroke-width="0.080" stroke-linecap="round" opacity="0.7"/><line x1="2.250" y1="4.250" x2="2.750" y2="3.550" stroke="#4a5160" stroke-width="0.080" stroke-linecap="round" opacity="0.7"/><line x1="2.250" y1="4.250" x2="3.250" y2="4.250" stroke="#4a5160" stroke-width="0.080" stroke-linecap="round" opacity="0.7"/><line x1="2.750" y1="-3.550" x2="3.250" y2="-4.250" stroke="#4a5160" stroke-width="0.080" stroke-linecap="round" opacity="0.7"/><line x1="2.750" y1="-1.200" x2="3.250" y2="-1.650" stroke="#4a5160" stroke-width="0.080" stroke-linecap="round" opacity="0.7"/><line x1="2.750" y1="-1.200" x2="3.250" y2="-0.750" stroke="#4a5160" stroke-width="0.080" stroke-linecap="round" opacity="0.7"/><line x1="2.750" y1="0.000" x2="3.250" y2="-0.450" stroke="#4a5160" stroke-width="0.080" stroke-linecap="round" opacity="0.7"/><line x1="2.750" y1="0.000" x2="3.250" y2="0.450" stroke="#4a5160" stroke-width="0.080" stroke-linecap="round" opacity="0.7"/><line x1="2.750" y1="1.200" x2="3.250" y2="0.750" stroke="#4a5160" stroke-width="0.080" stroke-linecap="round" opacity="0.7"/><line x1="2.750" y1="1.200" x2="3.250" y2="1.650" stroke="#4a5160" stroke-width="0.080" stroke-linecap="round" opacity="0.7"/><line x1="2.750" y1="3.550" x2="3.250" y2="4.250" stroke="#4a5160" stroke-width="0.080" stroke-linecap="round" opacity="0.7"/><line x1="3.250" y1="-2.850" x2="3.250" y2="-4.250" stroke="#4a5160" stroke-width="0.080" stroke-linecap="round" opacity="0.7"/><line x1="3.250" y1="-0.750" x2="3.250" y2="-1.650" stroke="#4a5160" stroke-width="0.080" stroke-linecap="round" opacity="0.7"/><line x1="3.250" y1="0.450" x2="3.250" y2="-0.450" stroke="#4a5160" stroke-width="0.080" stroke-linecap="round" opacity="0.7"/><line x1="3.250" y1="1.650" x2="3.250" y2="0.750" stroke="#4a5160" stroke-width="0.080" stroke-linecap="round" opacity="0.7"/><line x1="3.250" y1="4.250" x2="3.250" y2="2.850" stroke="#4a5160" stroke-width="0.080" stroke-linecap="round" opacity="0.7"/><line x1="-4.000" y1="-4.750" x2="4.000" y2="-4.750" stroke="#d24d4d" stroke-width="0.080" stroke-linecap="round" opacity="0.7"/><line x1="-4.000" y1="4.750" x2="-4.000" y2="-4.750" stroke="#d24d4d" stroke-width="0.080" stroke-linecap="round" opacity="0.7"/><line x1="-4.000" y1="4.750" x2="4.000" y2="4.750" stroke="#d24d4d" stroke-width="0.080" stroke-linecap="round" opacity="0.7"/><line x1="4.000" y1="4.750" x2="4.000" y2="-4.750" stroke="#d24d4d" stroke-width="0.080" stroke-linecap="round" opacity="0.7"/><line x1="-3.750" y1="-4.500" x2="3.750" y2="-4.500" stroke="#6b7280" stroke-width="0.100" stroke-linecap="round" opacity="0.8"/><line x1="-3.750" y1="4.500" x2="-3.750" y2="-4.500" stroke="#6b7280" stroke-width="0.100" stroke-linecap="round" opacity="0.8"/><line x1="-3.750" y1="4.500" x2="3.750" y2="4.500" stroke="#6b7280" stroke-width="0.100" stroke-linecap="round" opacity="0.8"/><line x1="3.750" y1="4.500" x2="3.750" y2="-4.500" stroke="#6b7280" stroke-width="0.100" stroke-linecap="round" opacity="0.8"/><circle cx="-4.300" cy="-3.700" r="0.150" fill="none" stroke="#e6e9ef" stroke-width="0.12" opacity="1"/><circle cx="-4.300" cy="-3.700" r="0.200" fill="none" stroke="#6b7280" stroke-width="0.12" opacity="0.8"/><circle cx="-2.750" cy="-3.500" r="0.500" fill="none" stroke="#6b7280" stroke-width="0.12" opacity="0.8"/><rect x="-3.250" y="-4.250" width="1.000" height="1.400" rx="0.000" fill="#c79b5c"/><rect x="-1.700" y="-4.250" width="1.000" height="1.400" rx="0.000" fill="#c79b5c"/><rect x="-3.250" y="-1.650" width="1.000" height="0.900" rx="0.000" fill="#c79b5c"/><rect x="-3.250" y="-0.450" width="1.000" height="0.900" rx="0.000" fill="#c79b5c"/><rect x="-3.250" y="0.750" width="1.000" height="0.900" rx="0.000" fill="#c79b5c"/><rect x="-3.250" y="2.850" width="1.000" height="1.400" rx="0.000" fill="#c79b5c"/><rect x="-1.700" y="2.850" width="1.000" height="1.400" rx="0.000" fill="#c79b5c"/><rect x="0.700" y="2.850" width="1.000" height="1.400" rx="0.000" fill="#c79b5c"/><rect x="2.250" y="2.850" width="1.000" height="1.400" rx="0.000" fill="#c79b5c"/><rect x="2.250" y="0.750" width="1.000" height="0.900" rx="0.000" fill="#c79b5c"/><rect x="2.250" y="-0.450" width="1.000" height="0.900" rx="0.000" fill="#c79b5c"/><rect x="2.250" y="-1.650" width="1.000" height="0.900" rx="0.000" fill="#c79b5c"/><rect x="2.250" y="-4.250" width="1.000" height="1.400" rx="0.000" fill="#c79b5c"/><rect x="0.700" y="-4.250" width="1.000" height="1.400" rx="0.000" fill="#c79b5c"/><rect x="-1.700" y="-1.650" width="1.000" height="0.900" rx="0.000" fill="#c79b5c"/><rect x="-1.700" y="-0.450" width="1.000" height="0.900" rx="0.000" fill="#c79b5c"/><rect x="-1.700" y="0.750" width="1.000" height="0.900" rx="0.000" fill="#c79b5c"/><rect x="-0.500" y="-1.650" width="1.000" height="0.900" rx="0.000" fill="#c79b5c"/><rect x="-0.500" y="-0.450" width="1.000" height="0.900" rx="0.000" fill="#c79b5c"/><rect x="-0.500" y="0.750" width="1.000" height="0.900" rx="0.000" fill="#c79b5c"/><rect x="0.700" y="-1.650" width="1.000" height="0.900" rx="0.000" fill="#c79b5c"/><rect x="0.700" y="-0.450" width="1.000" height="0.900" rx="0.000" fill="#c79b5c"/><rect x="0.700" y="0.750" width="1.000" height="0.900" rx="0.000" fill="#c79b5c"/></svg>