<svg xmlns="http://www.w3.org/2000/svg" viewBox="-6.83 -1.50 28.91 33.48" preserveAspectRatio="xMidYMid meet" style="width:100%;height:100%"><rect x="-6.83" y="-1.50" width="28.91" height="33.48" fill="#12151c"/><rect x="2.921" y="1.270" width="0.254" height="2.540" fill="#1e222b" stroke="#4ea1ff" stroke-width="0.25"/><rect x="2.921" y="24.130" width="0.254" height="2.540" fill="#1e222b" stroke="#4ea1ff" stroke-width="0.25"/><rect x="3.429" y="1.778" width="0.254" height="1.524" fill="#1e222b" stroke="#4ea1ff" stroke-width="0.25"/><rect x="3.429" y="24.638" width="0.254" height="1.524" fill="#1e222b" stroke="#4ea1ff" stroke-width="0.25"/><rect x="3.937" y="2.286" width="0.254" height="0.508" fill="#1e222b" stroke="#4ea1ff" stroke-width="0.25"/><rect x="3.937" y="25.146" width="0.254" height="0.508" fill="#1e222b" stroke="#4ea1ff" stroke-width="0.25"/><rect x="4.699" y="12.700" width="0.254" height="2.540" fill="#1e222b" stroke="#4ea1ff" stroke-width="0.25"/><rect x="5.207" y="12.700" width="0.254" height="2.540" fill="#1e222b" stroke="#4ea1ff" stroke-width="0.25"/><rect x="10.033" y="1.270" width="0.254" height="2.540" fill="#1e222b" stroke="#4ea1ff" stroke-width="0.25"/><rect x="10.033" y="24.130" width="0.254" height="2.540" fill="#1e222b" stroke="#4ea1ff" stroke-width="0.25"/><rect x="10.541" y="1.270" width="0.254" height="2.540" fill="#1e222b" stroke="#4ea1ff" stroke-width="0.25"/><rect x="10.541" y="24.130" width="0.254" height="2.540" fill="#1e222b" stroke="#4ea1ff" stroke-width="0.25"/><rect x="12.573" y="5.334" width="0.254" height="2.540" fill="#1e222b" stroke="#4ea1ff" stroke-width="0.25"/><rect x="12.573" y="12.700" width="0.254" height="2.540" fill="#1e222b" stroke="#4ea1ff" stroke-width="0.25"/><rect x="12.573" y="20.066" width="0.254" height="2.540" fill="#1e222b" stroke="#4ea1ff" stroke-width="0.25"/><rect x="13.081" y="5.842" width="0.254" height="1.524" fill="#1e222b" stroke="#4ea1ff" stroke-width="0.25"/><rect x="13.081" y="13.208" width="0.254" height="1.524" fill="#1e222b" stroke="#4ea1ff" stroke-width="0.25"/><rect x="13.081" y="20.574" width="0.254" height="1.524" fill="#1e222b" stroke="#4ea1ff" stroke-width="0.25"/><rect x="13.589" y="6.350" width="0.254" height="0.508" fill="#1e222b" stroke="#4ea1ff" stroke-width="0.25"/><rect x="13.589" y="13.716" width="0.254" height="0.508" fill="#1e222b" stroke="#4ea1ff" stroke-width="0.25"/><rect x="13.589" y="21.082" width="0.254" height="0.508" fill="#1e222b" stroke="#4ea1ff" stroke-width="0.25"/><rect x="0.000" y="-0.000" width="15.240" height="30.480" fill="#1e222b" stroke="#4ea1ff" stroke-width="0.25"/><polyline points="-2.286,16.510 -3.353,15.443" fill="none" stroke="#4ea1ff" stroke-width="0.25" stroke-linejoin="round"/><polyline points="-2.286,16.510 0.000,16.510" fill="none" stroke="#4ea1ff" stroke-width="0.25" stroke-linejoin="round"/><polyline points="2.540,7.620 -2.540,7.620" fill="none" stroke="#4ea1ff" stroke-width="0.25" stroke-linejoin="round"/><polyline points="2.540,10.160 2.540,7.620" fill="none" stroke="#4ea1ff" stroke-width="0.25" stroke-linejoin="round"/><polyline points="2.540,10.160 3.810,10.160" fill="none" stroke="#4ea1ff" stroke-width="0.25" stroke-linejoin="round"/><polyline points="2.540,17.780 3.810,17.780" fill="none" stroke="#4ea1ff" stroke-width="0.25" stroke-linejoin="round"/><polyline points="2.540,20.320 -2.540,20.320" fill="none" stroke="#4ea1ff" stroke-width="0.25" stroke-linejoin="round"/><polyline points="2.540,20.320 2.540,17.780" fill="none" stroke="#4ea1ff" stroke-width="0.25" stroke-linejoin="round"/><polyline points="3.048,2.540 -2.540,2.540" fill="none" stroke="#4ea1ff" stroke-width="0.25" stroke-linejoin="round"/><polyline points="3.048,25.400 -2.540,25.400" fill="none" stroke="#4ea1ff" stroke-width="0.25" stroke-linejoin="round"/><polyline points="3.810,9.652 3.810,10.668" fill="none" stroke="#4ea1ff" stroke-width="0.25" stroke-linejoin="round"/><polyline points="3.810,9.652 6.350,9.652" fill="none" stroke="#4ea1ff" stroke-width="0.25" stroke-linejoin="round"/><polyline points="3.810,10.668 6.350,10.668" fill="none" stroke="#4ea1ff" stroke-width="0.25" stroke-linejoin="round"/><polyline points="3.810,17.272 3.810,18.288" fill="none" stroke="#4ea1ff" stroke-width="0.25" stroke-linejoin="round"/><polyline points="3.810,17.272 6.350,17.272" fill="none" stroke="#4ea1ff" stroke-width="0.25" stroke-linejoin="round"/><polyline points="3.810,18.288 6.350,18.288" fill="none" stroke="#4ea1ff" stroke-width="0.25" stroke-linejoin="round"/><polyline points="4.826,13.970 -4.318,13.970" fill="none" stroke="#4ea1ff" stroke-width="0.25" stroke-linejoin="round"/><polyline points="6.350,9.652 6.350,10.668" fill="none" stroke="#4ea1ff" stroke-width="0.25" stroke-linejoin="round"/><polyline points="6.350,10.160 7.620,10.160" fill="none" stroke="#4ea1ff" stroke-width="0.25" stroke-linejoin="round"/><polyline points="6.350,17.272 6.350,18.288" fill="none" stroke="#4ea1ff" stroke-width="0.25" stroke-linejoin="round"/><polyline points="6.350,17.780 7.620,17.780" fill="none" stroke="#4ea1ff" stroke-width="0.25" stroke-linejoin="round"/><polyline points="6.731,8.001 6.731,7.747 8.509,7.747 8.509,8.001 6.731,8.001" fill="#1e222b" stroke="#4ea1ff" stroke-width="0.25" stroke-linejoin="round"/><polyline points="6.731,12.065 6.731,12.319 8.509,12.319 8.509,12.065 6.731,12.065" fill="#1e222b" stroke="#4ea1ff" stroke-width="0.25" stroke-linejoin="round"/><polyline points="6.731,15.621 6.731,15.367 8.509,15.367 8.509,15.621 6.731,15.621" fill="#1e222b" stroke="#4ea1ff" stroke-width="0.25" stroke-linejoin="round"/><polyline points="6.731,19.685 6.731,19.939 8.509,19.939 8.509,19.685 6.731,19.685" fill="#1e222b" stroke="#4ea1ff" stroke-width="0.25" stroke-linejoin="round"/><polyline points="7.620,2.540 7.620,25.400" fill="none" stroke="#4ea1ff" stroke-width="0.25" stroke-linejoin="round"/><polyline points="8.509,8.890 7.620,7.747 6.731,8.890 8.509,8.890" fill="#1e222b" stroke="#4ea1ff" stroke-width="0.25" stroke-linejoin="round"/><polyline points="8.509,11.176 7.620,12.319 6.731,11.176 8.509,11.176" fill="#1e222b" stroke="#4ea1ff" stroke-width="0.25" stroke-linejoin="round"/><polyline points="8.509,16.510 7.620,15.367 6.731,16.510 8.509,16.510" fill="#1e222b" stroke="#4ea1ff" stroke-width="0.25" stroke-linejoin="round"/><polyline points="8.509,18.796 7.620,19.939 6.731,18.796 8.509,18.796" fill="#1e222b" stroke="#4ea1ff" stroke-width="0.25" stroke-linejoin="round"/><polyline points="8.890,6.096 8.890,7.112" fill="none" stroke="#4ea1ff" stroke-width="0.25" stroke-linejoin="round"/><polyline points="8.890,6.604 7.620,6.604" fill="none" stroke="#4ea1ff" stroke-width="0.25" stroke-linejoin="round"/><polyline points="8.890,13.970 5.334,13.970" fill="none" stroke="#4ea1ff" stroke-width="0.25" stroke-linejoin="round"/><polyline points="8.890,14.478 8.890,13.462" fill="none" stroke="#4ea1ff" stroke-width="0.25" stroke-linejoin="round"/><polyline points="8.890,21.336 7.620,21.336" fill="none" stroke="#4ea1ff" stroke-width="0.25" stroke-linejoin="round"/><polyline points="8.890,21.844 8.890,20.828" fill="none" stroke="#4ea1ff" stroke-width="0.25" stroke-linejoin="round"/><polyline points="10.160,2.540 7.620,2.540" fill="none" stroke="#4ea1ff" stroke-width="0.25" stroke-linejoin="round"/><polyline points="10.160,25.400 7.620,25.400" fill="none" stroke="#4ea1ff" stroke-width="0.25" stroke-linejoin="round"/><polyline points="10.668,25.400 19.558,25.400" fill="none" stroke="#4ea1ff" stroke-width="0.25" stroke-linejoin="round"/><polyline points="11.430,6.096 8.890,6.096" fill="none" stroke="#4ea1ff" stroke-width="0.25" stroke-linejoin="round"/><polyline points="11.430,6.096 11.430,7.112" fill="none" stroke="#4ea1ff" stroke-width="0.25" stroke-linejoin="round"/><polyline points="11.430,7.112 8.890,7.112" fill="none" stroke="#4ea1ff" stroke-width="0.25" stroke-linejoin="round"/><polyline points="11.430,13.462 8.890,13.462" fill="none" stroke="#4ea1ff" stroke-width="0.25" stroke-linejoin="round"/><polyline points="11.430,14.478 8.890,14.478" fill="none" stroke="#4ea1ff" stroke-width="0.25" stroke-linejoin="round"/><polyline points="11.430,14.478 11.430,13.462" fill="none" stroke="#4ea1ff" stroke-width="0.25" stroke-linejoin="round"/><polyline points="11.430,20.828 8.890,20.828" fill="none" stroke="#4ea1ff" stroke-width="0.25" stroke-linejoin="round"/><polyline points="11.430,21.844 8.890,21.844" fill="none" stroke="#4ea1ff" stroke-width="0.25" stroke-linejoin="round"/><polyline points="11.430,21.844 11.430,20.828" fill="none" stroke="#4ea1ff" stroke-width="0.25" stroke-linejoin="round"/><polyline points="12.700,6.604 11.430,6.604" fill="none" stroke="#4ea1ff" stroke-width="0.25" stroke-linejoin="round"/><polyline points="12.700,13.970 11.430,13.970" fill="none" stroke="#4ea1ff" stroke-width="0.25" stroke-linejoin="round"/><polyline points="12.700,21.336 11.430,21.336" fill="none" stroke="#4ea1ff" stroke-width="0.25" stroke-linejoin="round"/><polyline points="17.526,5.080 15.240,5.080" fill="none" stroke="#4ea1ff" stroke-width="0.25" stroke-linejoin="round"/><polyline points="17.526,5.080 18.593,4.013" fill="none" stroke="#4ea1ff" stroke-width="0.25" stroke-linejoin="round"/><polyline points="17.526,27.940 15.240,27.940" fill="none" stroke="#4ea1ff" stroke-width="0.25" stroke-linejoin="round"/><polyline points="17.526,27.940 18.593,26.873" fill="none" stroke="#4ea1ff" stroke-width="0.25" stroke-linejoin="round"/><polyline points="19.558,2.540 10.668,2.540" fill="none" stroke="#4ea1ff" stroke-width="0.25" stroke-linejoin="round"/><circle cx="-2.540" cy="2.540" r="0.508" fill="none" stroke="#4ea1ff" stroke-width="0.25"/><circle cx="-2.540" cy="7.620" r="0.508" fill="none" stroke="#4ea1ff" stroke-width="0.25"/><circle cx="-2.540" cy="20.320" r="0.508" fill="none" stroke="#4ea1ff" stroke-width="0.25"/><circle cx="-2.540" cy="25.400" r="0.508" fill="none" stroke="#4ea1ff" stroke-width="0.25"/><circle cx="0.000" cy="16.510" r="0.254" fill="none" stroke="#4ea1ff" stroke-width="0.25"/><circle cx="0.000" cy="27.940" r="0.254" fill="none" stroke="#4ea1ff" stroke-width="0.25"/><circle cx="7.620" cy="6.604" r="0.254" fill="none" stroke="#4ea1ff" stroke-width="0.25"/><circle cx="7.620" cy="10.160" r="0.254" fill="none" stroke="#4ea1ff" stroke-width="0.25"/><circle cx="7.620" cy="13.970" r="0.254" fill="none" stroke="#4ea1ff" stroke-width="0.25"/><circle cx="7.620" cy="17.780" r="0.254" fill="none" stroke="#4ea1ff" stroke-width="0.25"/><circle cx="7.620" cy="21.336" r="0.254" fill="none" stroke="#4ea1ff" stroke-width="0.25"/><circle cx="15.240" cy="5.080" r="0.254" fill="none" stroke="#4ea1ff" stroke-width="0.25"/><circle cx="15.240" cy="27.940" r="0.254" fill="none" stroke="#4ea1ff" stroke-width="0.25"/><path d="M -5.080 11.430 A 2.590 2.590 0 0 1 -5.080 16.510" fill="none" stroke="#4ea1ff" stroke-width="0.25"/><path d="M -5.334 12.954 A 1.016 1.016 0 1 1 -5.334 14.986" fill="none" stroke="#4ea1ff" stroke-width="0.25"/><path d="M 20.574 3.556 A 1.016 1.016 0 1 1 20.574 1.524" fill="none" stroke="#4ea1ff" stroke-width="0.25"/><path d="M 20.574 26.416 A 1.016 1.016 0 1 1 20.574 24.384" fill="none" stroke="#4ea1ff" stroke-width="0.25"/><path d="M 20.320 5.080 A 2.590 2.590 0 0 1 20.320 0.000" fill="none" stroke="#4ea1ff" stroke-width="0.25"/><path d="M 20.320 27.940 A 2.590 2.590 0 0 1 20.320 22.860" fill="none" stroke="#4ea1ff" stroke-width="0.25"/><line x1="-2.540" y1="27.940" x2="0.000" y2="27.940" stroke="#e6e9ef" stroke-width="0.2"/><circle cx="-2.540" cy="27.940" r="0.4" fill="#4ea1ff"/></svg>