<svg xmlns="http://www.w3.org/2000/svg" viewBox="-7.60 -12.30 15.20 24.60" preserveAspectRatio="xMidYMid meet" style="width:100%;height:100%"><rect x="-7.60" y="-12.30" width="15.20" height="24.60" fill="#12151c"/><line x1="-6.600" y1="-11.300" x2="6.600" y2="-11.300" stroke="#d24d4d" stroke-width="0.080" stroke-linecap="round" opacity="0.7"/><line x1="6.600" y1="-11.300" x2="6.600" y2="11.300" stroke="#d24d4d" stroke-width="0.080" stroke-linecap="round" opacity="0.7"/><line x1="6.600" y1="11.300" x2="-6.600" y2="11.300" stroke="#d24d4d" stroke-width="0.080" stroke-linecap="round" opacity="0.7"/><line x1="-6.600" y1="11.300" x2="-6.600" y2="-11.300" stroke="#d24d4d" stroke-width="0.080" stroke-linecap="round" opacity="0.7"/><path d="M -5.350 -9.050 A 1.000 1.000 0 0 1 -4.350 -10.050" fill="none" stroke="#e6e9ef" stroke-width="0.12" opacity="1"/><path d="M -5.350 11.050 A 1.000 1.000 0 0 1 -6.350 10.050" fill="none" stroke="#e6e9ef" stroke-width="0.12" opacity="1"/><path d="M -4.350 10.050 A 1.000 1.000 0 0 1 -5.350 9.050" fill="none" stroke="#e6e9ef" stroke-width="0.12" opacity="1"/><path d="M 4.350 -10.050 A 1.000 1.000 0 0 1 5.350 -9.050" fill="none" stroke="#e6e9ef" stroke-width="0.12" opacity="1"/><path d="M 5.350 -11.050 A 1.000 1.000 0 0 1 6.350 -10.050" fill="none" stroke="#e6e9ef" stroke-width="0.12" opacity="1"/><path d="M 5.350 9.050 A 1.000 1.000 0 0 1 4.350 10.050" fill="none" stroke="#e6e9ef" stroke-width="0.12" opacity="1"/><path d="M 6.350 10.050 A 1.000 1.000 0 0 1 5.350 11.050" fill="none" stroke="#e6e9ef" stroke-width="0.12" opacity="1"/><path d="M -5.350 -9.050 A 1.000 1.000 0 0 1 -4.350 -10.050" fill="none" stroke="#6b7280" stroke-width="0.12" opacity="0.8"/><path d="M -5.350 11.050 A 1.000 1.000 0 0 1 -6.350 10.050" fill="none" stroke="#6b7280" stroke-width="0.12" opacity="0.8"/><path d="M -4.350 10.050 A 1.000 1.000 0 0 1 -5.350 9.050" fill="none" stroke="#6b7280" stroke-width="0.12" opacity="0.8"/><path d="M 4.350 -10.050 A 1.000 1.000 0 0 1 5.350 -9.050" fill="none" stroke="#6b7280" stroke-width="0.12" opacity="0.8"/><path d="M 5.350 -11.050 A 1.000 1.000 0 0 1 6.350 -10.050" fill="none" stroke="#6b7280" stroke-width="0.12" opacity="0.8"/><path d="M 5.350 9.050 A 1.000 1.000 0 0 1 4.350 10.050" fill="none" stroke="#6b7280" stroke-width="0.12" opacity="0.8"/><path d="M 6.350 10.050 A 1.000 1.000 0 0 1 5.350 11.050" fill="none" stroke="#6b7280" stroke-width="0.12" opacity="0.8"/><circle cx="-3.810" cy="-9.300" r="0.254" fill="none" stroke="#6b7280" stroke-width="0.12" opacity="0.8"/><rect x="-4.610" y="-8.420" width="1.600" height="1.600" rx="0.000" fill="#c79b5c"/><circle cx="-3.810" cy="-7.620" r="0.450" fill="#12151c"/><rect x="-4.610" y="-5.880" width="1.600" height="1.600" rx="0.800" fill="#c79b5c"/><circle cx="-3.810" cy="-5.080" r="0.450" fill="#12151c"/><rect x="-4.610" y="-3.340" width="1.600" height="1.600" rx="0.800" fill="#c79b5c"/><circle cx="-3.810" cy="-2.540" r="0.450" fill="#12151c"/><rect x="-4.610" y="-0.800" width="1.600" height="1.600" rx="0.800" fill="#c79b5c"/><circle cx="-3.810" cy="0.000" r="0.450" fill="#12151c"/><rect x="-4.610" y="1.740" width="1.600" height="1.600" rx="0.800" fill="#c79b5c"/><circle cx="-3.810" cy="2.540" r="0.450" fill="#12151c"/><rect x="-4.610" y="4.280" width="1.600" height="1.600" rx="0.800" fill="#c79b5c"/><circle cx="-3.810" cy="5.080" r="0.450" fill="#12151c"/><rect x="-4.610" y="6.820" width="1.600" height="1.600" rx="0.800" fill="#c79b5c"/><circle cx="-3.810" cy="7.620" r="0.450" fill="#12151c"/><rect x="3.010" y="6.820" width="1.600" height="1.600" rx="0.800" fill="#c79b5c"/><circle cx="3.810" cy="7.620" r="0.450" fill="#12151c"/><rect x="3.010" y="4.280" width="1.600" height="1.600" rx="0.800" fill="#c79b5c"/><circle cx="3.810" cy="5.080" r="0.450" fill="#12151c"/><rect x="3.010" y="1.740" width="1.600" height="1.600" rx="0.800" fill="#c79b5c"/><circle cx="3.810" cy="2.540" r="0.450" fill="#12151c"/><rect x="3.010" y="-0.800" width="1.600" height="1.600" rx="0.800" fill="#c79b5c"/><circle cx="3.810" cy="0.000" r="0.450" fill="#12151c"/><rect x="3.010" y="-3.340" width="1.600" height="1.600" rx="0.800" fill="#c79b5c"/><circle cx="3.810" cy="-2.540" r="0.450" fill="#12151c"/><rect x="3.010" y="-5.880" width="1.600" height="1.600" rx="0.800" fill="#c79b5c"/><circle cx="3.810" cy="-5.080" r="0.450" fill="#12151c"/><rect x="3.010" y="-8.420" width="1.600" height="1.600" rx="0.800" fill="#c79b5c"/><circle cx="3.810" cy="-7.620" r="0.450" fill="#12151c"/></svg>