<svg xmlns="http://www.w3.org/2000/svg" viewBox="-4.12 -3.75 7.88 7.50" preserveAspectRatio="xMidYMid meet" style="width:100%;height:100%"><rect x="-4.12" y="-3.75" width="7.88" height="7.50" fill="#12151c"/><line x1="-2.400" y1="-2.175" x2="-2.225" y2="-2.000" stroke="#4a5160" stroke-width="0.080" stroke-linecap="round" opacity="0.7"/><line x1="-2.400" y1="-2.175" x2="-2.050" y2="-2.175" stroke="#4a5160" stroke-width="0.080" stroke-linecap="round" opacity="0.7"/><line x1="-2.400" y1="-1.825" x2="-2.400" y2="-2.175" stroke="#4a5160" stroke-width="0.080" stroke-linecap="round" opacity="0.7"/><line x1="-2.400" y1="-1.825" x2="-2.225" y2="-2.000" stroke="#4a5160" stroke-width="0.080" stroke-linecap="round" opacity="0.7"/><line x1="-2.400" y1="-1.825" x2="-2.050" y2="-1.825" stroke="#4a5160" stroke-width="0.080" stroke-linecap="round" opacity="0.7"/><line x1="-2.400" y1="-1.375" x2="-2.225" y2="-1.200" stroke="#4a5160" stroke-width="0.080" stroke-linecap="round" opacity="0.7"/><line x1="-2.400" y1="-1.375" x2="-2.050" y2="-1.375" stroke="#4a5160" stroke-width="0.080" stroke-linecap="round" opacity="0.7"/><line x1="-2.400" y1="-1.025" x2="-2.400" y2="-1.375" stroke="#4a5160" stroke-width="0.080" stroke-linecap="round" opacity="0.7"/><line x1="-2.400" y1="-1.025" x2="-2.225" y2="-1.200" stroke="#4a5160" stroke-width="0.080" stroke-linecap="round" opacity="0.7"/><line x1="-2.400" y1="-1.025" x2="-2.050" y2="-1.025" stroke="#4a5160" stroke-width="0.080" stroke-linecap="round" opacity="0.7"/><line x1="-2.400" y1="-0.575" x2="-2.225" y2="-0.400" stroke="#4a5160" stroke-width="0.080" stroke-linecap="round" opacity="0.7"/><line x1="-2.400" y1="-0.575" x2="-2.050" y2="-0.575" stroke="#4a5160" stroke-width="0.080" stroke-linecap="round" opacity="0.7"/><line x1="-2.400" y1="-0.225" x2="-2.400" y2="-0.575" stroke="#4a5160" stroke-width="0.080" stroke-linecap="round" opacity="0.7"/><line x1="-2.400" y1="-0.225" x2="-2.225" y2="-0.400" stroke="#4a5160" stroke-width="0.080" stroke-linecap="round" opacity="0.7"/><line x1="-2.400" y1="-0.225" x2="-2.050" y2="-0.225" stroke="#4a5160" stroke-width="0.080" stroke-linecap="round" opacity="0.7"/><line x1="-2.400" y1="0.225" x2="-2.225" y2="0.400" stroke="#4a5160" stroke-width="0.080" stroke-linecap="round" opacity="0.7"/><line x1="-2.400" y1="0.225" x2="-2.050" y2="0.225" stroke="#4a5160" stroke-width="0.080" stroke-linecap="round" opacity="0.7"/><line x1="-2.400" y1="0.575" x2="-2.400" y2="0.225" stroke="#4a5160" stroke-width="0.080" stroke-linecap="round" opacity="0.7"/><line x1="-2.400" y1="0.575" x2="-2.225" y2="0.400" stroke="#4a5160" stroke-width="0.080" stroke-linecap="round" opacity="0.7"/><line x1="-2.400" y1="0.575" x2="-2.050" y2="0.575" stroke="#4a5160" stroke-width="0.080" stroke-linecap="round" opacity="0.7"/><line x1="-2.400" y1="1.025" x2="-2.225" y2="1.200" stroke="#4a5160" stroke-width="0.080" stroke-linecap="round" opacity="0.7"/><line x1="-2.400" y1="1.025" x2="-2.050" y2="1.025" stroke="#4a5160" stroke-width="0.080" stroke-linecap="round" opacity="0.7"/><line x1="-2.400" y1="1.375" x2="-2.400" y2="1.025" stroke="#4a5160" stroke-width="0.080" stroke-linecap="round" opacity="0.7"/><line x1="-2.400" y1="1.375" x2="-2.225" y2="1.200" stroke="#4a5160" stroke-width="0.080" stroke-linecap="round" opacity="0.7"/><line x1="-2.400" y1="1.375" x2="-2.050" y2="1.375" stroke="#4a5160" stroke-width="0.080" stroke-linecap="round" opacity="0.7"/><line x1="-2.400" y1="1.825" x2="-2.225" y2="2.000" stroke="#4a5160" stroke-width="0.080" stroke-linecap="round" opacity="0.7"/><line x1="-2.400" y1="1.825" x2="-2.050" y2="1.825" stroke="#4a5160" stroke-width="0.080" stroke-linecap="round" opacity="0.7"/><line x1="-2.400" y1="2.175" x2="-2.400" y2="1.825" stroke="#4a5160" stroke-width="0.080" stroke-linecap="round" opacity="0.7"/><line x1="-2.400" y1="2.175" x2="-2.225" y2="2.000" stroke="#4a5160" stroke-width="0.080" stroke-linecap="round" opacity="0.7"/><line x1="-2.400" y1="2.175" x2="-2.050" y2="2.175" stroke="#4a5160" stroke-width="0.080" stroke-linecap="round" opacity="0.7"/><line x1="-2.050" y1="-1.825" x2="-2.050" y2="-2.175" stroke="#4a5160" stroke-width="0.080" stroke-linecap="round" opacity="0.7"/><line x1="-2.050" y1="-1.025" x2="-2.050" y2="-1.375" stroke="#4a5160" stroke-width="0.080" stroke-linecap="round" opacity="0.7"/><line x1="-2.050" y1="-0.225" x2="-2.050" y2="-0.575" stroke="#4a5160" stroke-width="0.080" stroke-linecap="round" opacity="0.7"/><line x1="-2.050" y1="0.575" x2="-2.050" y2="0.225" stroke="#4a5160" stroke-width="0.080" stroke-linecap="round" opacity="0.7"/><line x1="-2.050" y1="1.375" x2="-2.050" y2="1.025" stroke="#4a5160" stroke-width="0.080" stroke-linecap="round" opacity="0.7"/><line x1="-2.050" y1="2.175" x2="-2.050" y2="1.825" stroke="#4a5160" stroke-width="0.080" stroke-linecap="round" opacity="0.7"/><line x1="-0.500" y1="0.000" x2="0.000" y2="0.000" stroke="#4a5160" stroke-width="0.080" stroke-linecap="round" opacity="0.7"/><line x1="0.000" y1="0.000" x2="0.000" y2="-0.500" stroke="#4a5160" stroke-width="0.080" stroke-linecap="round" opacity="0.7"/><line x1="0.000" y1="0.000" x2="0.500" y2="0.000" stroke="#4a5160" stroke-width="0.080" stroke-linecap="round" opacity="0.7"/><line x1="0.000" y1="0.500" x2="0.000" y2="0.000" stroke="#4a5160" stroke-width="0.080" stroke-linecap="round" opacity="0.7"/><line x1="2.050" y1="-2.175" x2="2.400" y2="-2.175" stroke="#4a5160" stroke-width="0.080" stroke-linecap="round" opacity="0.7"/><line x1="2.050" y1="-1.825" x2="2.050" y2="-2.175" stroke="#4a5160" stroke-width="0.080" stroke-linecap="round" opacity="0.7"/><line x1="2.050" y1="-1.825" x2="2.400" y2="-1.825" stroke="#4a5160" stroke-width="0.080" stroke-linecap="round" opacity="0.7"/><line x1="2.050" y1="-1.375" x2="2.400" y2="-1.375" stroke="#4a5160" stroke-width="0.080" stroke-linecap="round" opacity="0.7"/><line x1="2.050" y1="-1.025" x2="2.050" y2="-1.375" stroke="#4a5160" stroke-width="0.080" stroke-linecap="round" opacity="0.7"/><line x1="2.050" y1="-1.025" x2="2.400" y2="-1.025" stroke="#4a5160" stroke-width="0.080" stroke-linecap="round" opacity="0.7"/><line x1="2.050" y1="-0.575" x2="2.400" y2="-0.575" stroke="#4a5160" stroke-width="0.080" stroke-linecap="round" opacity="0.7"/><line x1="2.050" y1="-0.225" x2="2.050" y2="-0.575" stroke="#4a5160" stroke-width="0.080" stroke-linecap="round" opacity="0.7"/><line x1="2.050" y1="-0.225" x2="2.400" y2="-0.225" stroke="#4a5160" stroke-width="0.080" stroke-linecap="round" opacity="0.7"/><line x1="2.050" y1="0.225" x2="2.400" y2="0.225" stroke="#4a5160" stroke-width="0.080" stroke-linecap="round" opacity="0.7"/><line x1="2.050" y1="0.575" x2="2.050" y2="0.225" stroke="#4a5160" stroke-width="0.080" stroke-linecap="round" opacity="0.7"/><line x1="2.050" y1="0.575" x2="2.400" y2="0.575" stroke="#4a5160" stroke-width="0.080" stroke-linecap="round" opacity="0.7"/><line x1="2.050" y1="1.025" x2="2.400" y2="1.025" stroke="#4a5160" stroke-width="0.080" stroke-linecap="round" opacity="0.7"/><line x1="2.050" y1="1.375" x2="2.050" y2="1.025" stroke="#4a5160" stroke-width="0.080" stroke-linecap="round" opacity="0.7"/><line x1="2.050" y1="1.375" x2="2.400" y2="1.375" stroke="#4a5160" stroke-width="0.080" stroke-linecap="round" opacity="0.7"/><line x1="2.050" y1="1.825" x2="2.400" y2="1.825" stroke="#4a5160" stroke-width="0.080" stroke-linecap="round" opacity="0.7"/><line x1="2.050" y1="2.175" x2="2.050" y2="1.825" stroke="#4a5160" stroke-width="0.080" stroke-linecap="round" opacity="0.7"/><line x1="2.050" y1="2.175" x2="2.400" y2="2.175" stroke="#4a5160" stroke-width="0.080" stroke-linecap="round" opacity="0.7"/><line x1="2.225" y1="-2.000" x2="2.400" y2="-2.175" stroke="#4a5160" stroke-width="0.080" stroke-linecap="round" opacity="0.7"/><line x1="2.225" y1="-2.000" x2="2.400" y2="-1.825" stroke="#4a5160" stroke-width="0.080" stroke-linecap="round" opacity="0.7"/><line x1="2.225" y1="-1.200" x2="2.400" y2="-1.375" stroke="#4a5160" stroke-width="0.080" stroke-linecap="round" opacity="0.7"/><line x1="2.225" y1="-1.200" x2="2.400" y2="-1.025" stroke="#4a5160" stroke-width="0.080" stroke-linecap="round" opacity="0.7"/><line x1="2.225" y1="-0.400" x2="2.400" y2="-0.575" stroke="#4a5160" stroke-width="0.080" stroke-linecap="round" opacity="0.7"/><line x1="2.225" y1="-0.400" x2="2.400" y2="-0.225" stroke="#4a5160" stroke-width="0.080" stroke-linecap="round" opacity="0.7"/><line x1="2.225" y1="0.400" x2="2.400" y2="0.225" stroke="#4a5160" stroke-width="0.080" stroke-linecap="round" opacity="0.7"/><line x1="2.225" y1="0.400" x2="2.400" y2="0.575" stroke="#4a5160" stroke-width="0.080" stroke-linecap="round" opacity="0.7"/><line x1="2.225" y1="1.200" x2="2.400" y2="1.025" stroke="#4a5160" stroke-width="0.080" stroke-linecap="round" opacity="0.7"/><line x1="2.225" y1="1.200" x2="2.400" y2="1.375" stroke="#4a5160" stroke-width="0.080" stroke-linecap="round" opacity="0.7"/><line x1="2.225" y1="2.000" x2="2.400" y2="1.825" stroke="#4a5160" stroke-width="0.080" stroke-linecap="round" opacity="0.7"/><line x1="2.225" y1="2.000" x2="2.400" y2="2.175" stroke="#4a5160" stroke-width="0.080" stroke-linecap="round" opacity="0.7"/><line x1="2.400" y1="-1.825" x2="2.400" y2="-2.175" stroke="#4a5160" stroke-width="0.080" stroke-linecap="round" opacity="0.7"/><line x1="2.400" y1="-1.025" x2="2.400" y2="-1.375" stroke="#4a5160" stroke-width="0.080" stroke-linecap="round" opacity="0.7"/><line x1="2.400" y1="-0.225" x2="2.400" y2="-0.575" stroke="#4a5160" stroke-width="0.080" stroke-linecap="round" opacity="0.7"/><line x1="2.400" y1="0.575" x2="2.400" y2="0.225" stroke="#4a5160" stroke-width="0.080" stroke-linecap="round" opacity="0.7"/><line x1="2.400" y1="1.375" x2="2.400" y2="1.025" stroke="#4a5160" stroke-width="0.080" stroke-linecap="round" opacity="0.7"/><line x1="2.400" y1="2.175" x2="2.400" y2="1.825" stroke="#4a5160" stroke-width="0.080" stroke-linecap="round" opacity="0.7"/><line x1="-2.750" y1="-2.750" x2="2.750" y2="-2.750" stroke="#d24d4d" stroke-width="0.080" stroke-linecap="round" opacity="0.7"/><line x1="-2.750" y1="2.750" x2="-2.750" y2="-2.750" stroke="#d24d4d" stroke-width="0.080" stroke-linecap="round" opacity="0.7"/><line x1="-2.750" y1="2.750" x2="2.750" y2="2.750" stroke="#d24d4d" stroke-width="0.080" stroke-linecap="round" opacity="0.7"/><line x1="2.750" y1="2.750" x2="2.750" y2="-2.750" stroke="#d24d4d" stroke-width="0.080" stroke-linecap="round" opacity="0.7"/><line x1="-2.500" y1="-2.500" x2="2.500" y2="-2.500" stroke="#6b7280" stroke-width="0.100" stroke-linecap="round" opacity="0.8"/><line x1="-2.500" y1="2.500" x2="-2.500" y2="-2.500" stroke="#6b7280" stroke-width="0.100" stroke-linecap="round" opacity="0.8"/><line x1="-2.500" y1="2.500" x2="2.500" y2="2.500" stroke="#6b7280" stroke-width="0.100" stroke-linecap="round" opacity="0.8"/><line x1="2.500" y1="2.500" x2="2.500" y2="-2.500" stroke="#6b7280" stroke-width="0.100" stroke-linecap="round" opacity="0.8"/><circle cx="-3.000" cy="-2.000" r="0.125" fill="none" stroke="#e6e9ef" stroke-width="0.12" opacity="1"/><circle cx="-2.000" cy="-2.000" r="0.250" fill="none" stroke="#6b7280" stroke-width="0.12" opacity="0.8"/><rect x="-2.400" y="-2.175" width="0.350" height="0.350" rx="0.000" fill="#c79b5c"/><rect x="-2.400" y="-1.375" width="0.350" height="0.350" rx="0.000" fill="#c79b5c"/><rect x="-2.400" y="-0.575" width="0.350" height="0.350" rx="0.000" fill="#c79b5c"/><rect x="-2.400" y="0.225" width="0.350" height="0.350" rx="0.000" fill="#c79b5c"/><rect x="-2.400" y="1.025" width="0.350" height="0.350" rx="0.000" fill="#c79b5c"/><rect x="-2.400" y="1.825" width="0.350" height="0.350" rx="0.000" fill="#c79b5c"/><rect x="2.050" y="1.825" width="0.350" height="0.350" rx="0.000" fill="#c79b5c"/><rect x="2.050" y="1.025" width="0.350" height="0.350" rx="0.000" fill="#c79b5c"/><rect x="2.050" y="0.225" width="0.350" height="0.350" rx="0.000" fill="#c79b5c"/><rect x="2.050" y="-0.575" width="0.350" height="0.350" rx="0.000" fill="#c79b5c"/><rect x="2.050" y="-1.375" width="0.350" height="0.350" rx="0.000" fill="#c79b5c"/><rect x="2.050" y="-2.175" width="0.350" height="0.350" rx="0.000" fill="#c79b5c"/><rect x="-1.650" y="-2.175" width="3.300" height="4.350" rx="0.000" fill="#c79b5c"/></svg>