<svg xmlns="http://www.w3.org/2000/svg" viewBox="-8.07 -3.45 15.62 6.90" preserveAspectRatio="xMidYMid meet" style="width:100%;height:100%"><rect x="-8.07" y="-3.45" width="15.62" height="6.90" fill="#12151c"/><line x1="-4.200" y1="-2.105" x2="-3.750" y2="-2.105" stroke="#e6e9ef" stroke-width="0.200" stroke-linecap="round" opacity="1"/><line x1="-4.200" y1="-1.705" x2="-3.750" y2="-1.705" stroke="#e6e9ef" stroke-width="0.200" stroke-linecap="round" opacity="1"/><line x1="-4.200" y1="-0.835" x2="-3.750" y2="-0.835" stroke="#e6e9ef" stroke-width="0.200" stroke-linecap="round" opacity="1"/><line x1="-4.200" y1="-0.435" x2="-3.750" y2="-0.435" stroke="#e6e9ef" stroke-width="0.200" stroke-linecap="round" opacity="1"/><line x1="-4.200" y1="0.435" x2="-3.750" y2="0.435" stroke="#e6e9ef" stroke-width="0.200" stroke-linecap="round" opacity="1"/><line x1="-4.200" y1="0.835" x2="-3.750" y2="0.835" stroke="#e6e9ef" stroke-width="0.200" stroke-linecap="round" opacity="1"/><line x1="-4.200" y1="1.705" x2="-3.750" y2="1.705" stroke="#e6e9ef" stroke-width="0.200" stroke-linecap="round" opacity="1"/><line x1="-4.200" y1="2.105" x2="-3.750" y2="2.105" stroke="#e6e9ef" stroke-width="0.200" stroke-linecap="round" opacity="1"/><line x1="-3.750" y1="-2.249" x2="3.750" y2="-2.249" stroke="#e6e9ef" stroke-width="0.200" stroke-linecap="round" opacity="1"/><line x1="-3.750" y1="2.249" x2="-3.750" y2="-2.249" stroke="#e6e9ef" stroke-width="0.200" stroke-linecap="round" opacity="1"/><line x1="-3.750" y1="2.249" x2="3.750" y2="2.249" stroke="#e6e9ef" stroke-width="0.200" stroke-linecap="round" opacity="1"/><line x1="3.750" y1="-2.105" x2="4.200" y2="-2.105" stroke="#e6e9ef" stroke-width="0.200" stroke-linecap="round" opacity="1"/><line x1="3.750" y1="-1.705" x2="4.200" y2="-1.705" stroke="#e6e9ef" stroke-width="0.200" stroke-linecap="round" opacity="1"/><line x1="3.750" y1="-0.835" x2="4.200" y2="-0.835" stroke="#e6e9ef" stroke-width="0.200" stroke-linecap="round" opacity="1"/><line x1="3.750" y1="-0.435" x2="4.200" y2="-0.435" stroke="#e6e9ef" stroke-width="0.200" stroke-linecap="round" opacity="1"/><line x1="3.750" y1="0.435" x2="4.200" y2="0.435" stroke="#e6e9ef" stroke-width="0.200" stroke-linecap="round" opacity="1"/><line x1="3.750" y1="0.835" x2="4.200" y2="0.835" stroke="#e6e9ef" stroke-width="0.200" stroke-linecap="round" opacity="1"/><line x1="3.750" y1="1.705" x2="4.200" y2="1.705" stroke="#e6e9ef" stroke-width="0.200" stroke-linecap="round" opacity="1"/><line x1="3.750" y1="2.105" x2="4.200" y2="2.105" stroke="#e6e9ef" stroke-width="0.200" stroke-linecap="round" opacity="1"/><line x1="3.750" y1="2.249" x2="3.750" y2="-2.249" stroke="#e6e9ef" stroke-width="0.200" stroke-linecap="round" opacity="1"/><line x1="-6.350" y1="-2.205" x2="-5.450" y2="-1.905" stroke="#4a5160" stroke-width="0.080" stroke-linecap="round" opacity="0.7"/><line x1="-6.350" y1="-2.205" x2="-4.550" y2="-2.205" stroke="#4a5160" stroke-width="0.080" stroke-linecap="round" opacity="0.7"/><line x1="-6.350" y1="-1.605" x2="-6.350" y2="-2.205" stroke="#4a5160" stroke-width="0.080" stroke-linecap="round" opacity="0.7"/><line x1="-6.350" y1="-1.605" x2="-5.450" y2="-1.905" stroke="#4a5160" stroke-width="0.080" stroke-linecap="round" opacity="0.7"/><line x1="-6.350" y1="-1.605" x2="-4.550" y2="-1.605" stroke="#4a5160" stroke-width="0.080" stroke-linecap="round" opacity="0.7"/><line x1="-6.350" y1="-0.935" x2="-5.450" y2="-0.635" stroke="#4a5160" stroke-width="0.080" stroke-linecap="round" opacity="0.7"/><line x1="-6.350" y1="-0.935" x2="-4.550" y2="-0.935" stroke="#4a5160" stroke-width="0.080" stroke-linecap="round" opacity="0.7"/><line x1="-6.350" y1="-0.335" x2="-6.350" y2="-0.935" stroke="#4a5160" stroke-width="0.080" stroke-linecap="round" opacity="0.7"/><line x1="-6.350" y1="-0.335" x2="-5.450" y2="-0.635" stroke="#4a5160" stroke-width="0.080" stroke-linecap="round" opacity="0.7"/><line x1="-6.350" y1="-0.335" x2="-4.550" y2="-0.335" stroke="#4a5160" stroke-width="0.080" stroke-linecap="round" opacity="0.7"/><line x1="-6.350" y1="0.335" x2="-5.450" y2="0.635" stroke="#4a5160" stroke-width="0.080" stroke-linecap="round" opacity="0.7"/><line x1="-6.350" y1="0.335" x2="-4.550" y2="0.335" stroke="#4a5160" stroke-width="0.080" stroke-linecap="round" opacity="0.7"/><line x1="-6.350" y1="0.935" x2="-6.350" y2="0.335" stroke="#4a5160" stroke-width="0.080" stroke-linecap="round" opacity="0.7"/><line x1="-6.350" y1="0.935" x2="-5.450" y2="0.635" stroke="#4a5160" stroke-width="0.080" stroke-linecap="round" opacity="0.7"/><line x1="-6.350" y1="0.935" x2="-4.550" y2="0.935" stroke="#4a5160" stroke-width="0.080" stroke-linecap="round" opacity="0.7"/><line x1="-6.350" y1="1.605" x2="-5.450" y2="1.905" stroke="#4a5160" stroke-width="0.080" stroke-linecap="round" opacity="0.7"/><line x1="-6.350" y1="1.605" x2="-4.550" y2="1.605" stroke="#4a5160" stroke-width="0.080" stroke-linecap="round" opacity="0.7"/><line x1="-6.350" y1="2.205" x2="-6.350" y2="1.605" stroke="#4a5160" stroke-width="0.080" stroke-linecap="round" opacity="0.7"/><line x1="-6.350" y1="2.205" x2="-5.450" y2="1.905" stroke="#4a5160" stroke-width="0.080" stroke-linecap="round" opacity="0.7"/><line x1="-6.350" y1="2.205" x2="-4.550" y2="2.205" stroke="#4a5160" stroke-width="0.080" stroke-linecap="round" opacity="0.7"/><line x1="-4.550" y1="-1.605" x2="-4.550" y2="-2.205" stroke="#4a5160" stroke-width="0.080" stroke-linecap="round" opacity="0.7"/><line x1="-4.550" y1="-0.335" x2="-4.550" y2="-0.935" stroke="#4a5160" stroke-width="0.080" stroke-linecap="round" opacity="0.7"/><line x1="-4.550" y1="0.935" x2="-4.550" y2="0.335" stroke="#4a5160" stroke-width="0.080" stroke-linecap="round" opacity="0.7"/><line x1="-4.550" y1="2.205" x2="-4.550" y2="1.605" stroke="#4a5160" stroke-width="0.080" stroke-linecap="round" opacity="0.7"/><line x1="-0.500" y1="0.000" x2="0.000" y2="0.000" stroke="#4a5160" stroke-width="0.080" stroke-linecap="round" opacity="0.7"/><line x1="0.000" y1="0.000" x2="0.000" y2="-0.500" stroke="#4a5160" stroke-width="0.080" stroke-linecap="round" opacity="0.7"/><line x1="0.000" y1="0.000" x2="0.500" y2="0.000" stroke="#4a5160" stroke-width="0.080" stroke-linecap="round" opacity="0.7"/><line x1="0.000" y1="0.500" x2="0.000" y2="0.000" stroke="#4a5160" stroke-width="0.080" stroke-linecap="round" opacity="0.7"/><line x1="4.550" y1="-2.205" x2="6.350" y2="-2.205" stroke="#4a5160" stroke-width="0.080" stroke-linecap="round" opacity="0.7"/><line x1="4.550" y1="-1.605" x2="4.550" y2="-2.205" stroke="#4a5160" stroke-width="0.080" stroke-linecap="round" opacity="0.7"/><line x1="4.550" y1="-1.605" x2="6.350" y2="-1.605" stroke="#4a5160" stroke-width="0.080" stroke-linecap="round" opacity="0.7"/><line x1="4.550" y1="-0.935" x2="6.350" y2="-0.935" stroke="#4a5160" stroke-width="0.080" stroke-linecap="round" opacity="0.7"/><line x1="4.550" y1="-0.335" x2="4.550" y2="-0.935" stroke="#4a5160" stroke-width="0.080" stroke-linecap="round" opacity="0.7"/><line x1="4.550" y1="-0.335" x2="6.350" y2="-0.335" stroke="#4a5160" stroke-width="0.080" stroke-linecap="round" opacity="0.7"/><line x1="4.550" y1="0.335" x2="6.350" y2="0.335" stroke="#4a5160" stroke-width="0.080" stroke-linecap="round" opacity="0.7"/><line x1="4.550" y1="0.935" x2="4.550" y2="0.335" stroke="#4a5160" stroke-width="0.080" stroke-linecap="round" opacity="0.7"/><line x1="4.550" y1="0.935" x2="6.350" y2="0.935" stroke="#4a5160" stroke-width="0.080" stroke-linecap="round" opacity="0.7"/><line x1="4.550" y1="1.605" x2="6.350" y2="1.605" stroke="#4a5160" stroke-width="0.080" stroke-linecap="round" opacity="0.7"/><line x1="4.550" y1="2.205" x2="4.550" y2="1.605" stroke="#4a5160" stroke-width="0.080" stroke-linecap="round" opacity="0.7"/><line x1="4.550" y1="2.205" x2="6.350" y2="2.205" stroke="#4a5160" stroke-width="0.080" stroke-linecap="round" opacity="0.7"/><line x1="5.450" y1="-1.905" x2="6.350" y2="-2.205" stroke="#4a5160" stroke-width="0.080" stroke-linecap="round" opacity="0.7"/><line x1="5.450" y1="-1.905" x2="6.350" y2="-1.605" stroke="#4a5160" stroke-width="0.080" stroke-linecap="round" opacity="0.7"/><line x1="5.450" y1="-0.635" x2="6.350" y2="-0.935" stroke="#4a5160" stroke-width="0.080" stroke-linecap="round" opacity="0.7"/><line x1="5.450" y1="-0.635" x2="6.350" y2="-0.335" stroke="#4a5160" stroke-width="0.080" stroke-linecap="round" opacity="0.7"/><line x1="5.450" y1="0.635" x2="6.350" y2="0.335" stroke="#4a5160" stroke-width="0.080" stroke-linecap="round" opacity="0.7"/><line x1="5.450" y1="0.635" x2="6.350" y2="0.935" stroke="#4a5160" stroke-width="0.080" stroke-linecap="round" opacity="0.7"/><line x1="5.450" y1="1.905" x2="6.350" y2="1.605" stroke="#4a5160" stroke-width="0.080" stroke-linecap="round" opacity="0.7"/><line x1="5.450" y1="1.905" x2="6.350" y2="2.205" stroke="#4a5160" stroke-width="0.080" stroke-linecap="round" opacity="0.7"/><line x1="6.350" y1="-1.605" x2="6.350" y2="-2.205" stroke="#4a5160" stroke-width="0.080" stroke-linecap="round" opacity="0.7"/><line x1="6.350" y1="-0.335" x2="6.350" y2="-0.935" stroke="#4a5160" stroke-width="0.080" stroke-linecap="round" opacity="0.7"/><line x1="6.350" y1="0.935" x2="6.350" y2="0.335" stroke="#4a5160" stroke-width="0.080" stroke-linecap="round" opacity="0.7"/><line x1="6.350" y1="2.205" x2="6.350" y2="1.605" stroke="#4a5160" stroke-width="0.080" stroke-linecap="round" opacity="0.7"/><line x1="-6.550" y1="-2.449" x2="6.550" y2="-2.449" stroke="#d24d4d" stroke-width="0.080" stroke-linecap="round" opacity="0.7"/><line x1="-6.550" y1="2.449" x2="-6.550" y2="-2.449" stroke="#d24d4d" stroke-width="0.080" stroke-linecap="round" opacity="0.7"/><line x1="-6.550" y1="2.449" x2="6.550" y2="2.449" stroke="#d24d4d" stroke-width="0.080" stroke-linecap="round" opacity="0.7"/><line x1="6.550" y1="2.449" x2="6.550" y2="-2.449" stroke="#d24d4d" stroke-width="0.080" stroke-linecap="round" opacity="0.7"/><line x1="-5.850" y1="-2.105" x2="-3.750" y2="-2.105" stroke="#6b7280" stroke-width="0.100" stroke-linecap="round" opacity="0.8"/><line x1="-5.850" y1="-1.705" x2="-5.850" y2="-2.105" stroke="#6b7280" stroke-width="0.100" stroke-linecap="round" opacity="0.8"/><line x1="-5.850" y1="-1.705" x2="-3.750" y2="-1.705" stroke="#6b7280" stroke-width="0.100" stroke-linecap="round" opacity="0.8"/><line x1="-5.850" y1="-0.835" x2="-3.750" y2="-0.835" stroke="#6b7280" stroke-width="0.100" stroke-linecap="round" opacity="0.8"/><line x1="-5.850" y1="-0.435" x2="-5.850" y2="-0.835" stroke="#6b7280" stroke-width="0.100" stroke-linecap="round" opacity="0.8"/><line x1="-5.850" y1="-0.435" x2="-3.750" y2="-0.435" stroke="#6b7280" stroke-width="0.100" stroke-linecap="round" opacity="0.8"/><line x1="-5.850" y1="0.435" x2="-3.750" y2="0.435" stroke="#6b7280" stroke-width="0.100" stroke-linecap="round" opacity="0.8"/><line x1="-5.850" y1="0.835" x2="-5.850" y2="0.435" stroke="#6b7280" stroke-width="0.100" stroke-linecap="round" opacity="0.8"/><line x1="-5.850" y1="0.835" x2="-3.750" y2="0.835" stroke="#6b7280" stroke-width="0.100" stroke-linecap="round" opacity="0.8"/><line x1="-5.850" y1="1.705" x2="-3.750" y2="1.705" stroke="#6b7280" stroke-width="0.100" stroke-linecap="round" opacity="0.8"/><line x1="-5.850" y1="2.105" x2="-5.850" y2="1.705" stroke="#6b7280" stroke-width="0.100" stroke-linecap="round" opacity="0.8"/><line x1="-5.850" y1="2.105" x2="-3.750" y2="2.105" stroke="#6b7280" stroke-width="0.100" stroke-linecap="round" opacity="0.8"/><line x1="-3.750" y1="-2.249" x2="-3.664" y2="-2.163" stroke="#6b7280" stroke-width="0.100" stroke-linecap="round" opacity="0.8"/><line x1="-3.750" y1="-2.249" x2="3.750" y2="-2.249" stroke="#6b7280" stroke-width="0.100" stroke-linecap="round" opacity="0.8"/><line x1="-3.750" y1="2.249" x2="-3.750" y2="-2.249" stroke="#6b7280" stroke-width="0.100" stroke-linecap="round" opacity="0.8"/><line x1="-3.750" y1="2.249" x2="-3.664" y2="2.163" stroke="#6b7280" stroke-width="0.100" stroke-linecap="round" opacity="0.8"/><line x1="-3.750" y1="2.249" x2="3.750" y2="2.249" stroke="#6b7280" stroke-width="0.100" stroke-linecap="round" opacity="0.8"/><line x1="-3.664" y1="-2.163" x2="-3.175" y2="-2.099" stroke="#6b7280" stroke-width="0.100" stroke-linecap="round" opacity="0.8"/><line x1="-3.664" y1="2.163" x2="-3.664" y2="-2.163" stroke="#6b7280" stroke-width="0.100" stroke-linecap="round" opacity="0.8"/><line x1="-3.664" y1="2.163" x2="-3.175" y2="2.099" stroke="#6b7280" stroke-width="0.100" stroke-linecap="round" opacity="0.8"/><line x1="-3.175" y1="-2.099" x2="3.600" y2="-2.099" stroke="#6b7280" stroke-width="0.100" stroke-linecap="round" opacity="0.8"/><line x1="-3.175" y1="2.099" x2="-3.175" y2="-2.099" stroke="#6b7280" stroke-width="0.100" stroke-linecap="round" opacity="0.8"/><line x1="-3.175" y1="2.099" x2="3.600" y2="2.099" stroke="#6b7280" stroke-width="0.100" stroke-linecap="round" opacity="0.8"/><line x1="3.600" y1="-2.099" x2="3.750" y2="-2.249" stroke="#6b7280" stroke-width="0.100" stroke-linecap="round" opacity="0.8"/><line x1="3.600" y1="2.099" x2="3.600" y2="-2.099" stroke="#6b7280" stroke-width="0.100" stroke-linecap="round" opacity="0.8"/><line x1="3.600" y1="2.099" x2="3.750" y2="2.249" stroke="#6b7280" stroke-width="0.100" stroke-linecap="round" opacity="0.8"/><line x1="3.750" y1="-2.105" x2="5.850" y2="-2.105" stroke="#6b7280" stroke-width="0.100" stroke-linecap="round" opacity="0.8"/><line x1="3.750" y1="-1.705" x2="5.850" y2="-1.705" stroke="#6b7280" stroke-width="0.100" stroke-linecap="round" opacity="0.8"/><line x1="3.750" y1="-0.835" x2="5.850" y2="-0.835" stroke="#6b7280" stroke-width="0.100" stroke-linecap="round" opacity="0.8"/><line x1="3.750" y1="-0.435" x2="5.850" y2="-0.435" stroke="#6b7280" stroke-width="0.100" stroke-linecap="round" opacity="0.8"/><line x1="3.750" y1="0.435" x2="5.850" y2="0.435" stroke="#6b7280" stroke-width="0.100" stroke-linecap="round" opacity="0.8"/><line x1="3.750" y1="0.835" x2="5.850" y2="0.835" stroke="#6b7280" stroke-width="0.100" stroke-linecap="round" opacity="0.8"/><line x1="3.750" y1="1.705" x2="5.850" y2="1.705" stroke="#6b7280" stroke-width="0.100" stroke-linecap="round" opacity="0.8"/><line x1="3.750" y1="2.105" x2="5.850" y2="2.105" stroke="#6b7280" stroke-width="0.100" stroke-linecap="round" opacity="0.8"/><line x1="3.750" y1="2.249" x2="3.750" y2="-2.249" stroke="#6b7280" stroke-width="0.100" stroke-linecap="round" opacity="0.8"/><line x1="5.850" y1="-1.705" x2="5.850" y2="-2.105" stroke="#6b7280" stroke-width="0.100" stroke-linecap="round" opacity="0.8"/><line x1="5.850" y1="-0.435" x2="5.850" y2="-0.835" stroke="#6b7280" stroke-width="0.100" stroke-linecap="round" opacity="0.8"/><line x1="5.850" y1="0.835" x2="5.850" y2="0.435" stroke="#6b7280" stroke-width="0.100" stroke-linecap="round" opacity="0.8"/><line x1="5.850" y1="2.105" x2="5.850" y2="1.705" stroke="#6b7280" stroke-width="0.100" stroke-linecap="round" opacity="0.8"/><circle cx="-6.950" cy="-1.905" r="0.125" fill="none" stroke="#e6e9ef" stroke-width="0.12" opacity="1"/><circle cx="-2.675" cy="-1.599" r="0.250" fill="none" stroke="#e6e9ef" stroke-width="0.12" opacity="1"/><circle cx="-2.675" cy="-1.599" r="0.250" fill="none" stroke="#6b7280" stroke-width="0.12" opacity="0.8"/><rect x="-6.350" y="-2.205" width="1.800" height="0.600" rx="0.000" fill="#c79b5c"/><rect x="-6.350" y="-0.935" width="1.800" height="0.600" rx="0.000" fill="#c79b5c"/><rect x="-6.350" y="0.335" width="1.800" height="0.600" rx="0.000" fill="#c79b5c"/><rect x="-6.350" y="1.605" width="1.800" height="0.600" rx="0.000" fill="#c79b5c"/><rect x="4.550" y="1.605" width="1.800" height="0.600" rx="0.000" fill="#c79b5c"/><rect x="4.550" y="0.335" width="1.800" height="0.600" rx="0.000" fill="#c79b5c"/><rect x="4.550" y="-0.935" width="1.800" height="0.600" rx="0.000" fill="#c79b5c"/><rect x="4.550" y="-2.205" width="1.800" height="0.600" rx="0.000" fill="#c79b5c"/></svg>