<svg xmlns="http://www.w3.org/2000/svg" viewBox="-1.85 -2.02 3.70 3.67" preserveAspectRatio="xMidYMid meet" style="width:100%;height:100%"><rect x="-1.85" y="-2.02" width="3.70" height="3.67" fill="#12151c"/><line x1="-0.500" y1="-0.300" x2="-0.325" y2="0.000" stroke="#4a5160" stroke-width="0.080" stroke-linecap="round" opacity="0.7"/><line x1="-0.500" y1="-0.300" x2="-0.150" y2="-0.300" stroke="#4a5160" stroke-width="0.080" stroke-linecap="round" opacity="0.7"/><line x1="-0.500" y1="0.000" x2="0.000" y2="0.000" stroke="#4a5160" stroke-width="0.080" stroke-linecap="round" opacity="0.7"/><line x1="-0.500" y1="0.300" x2="-0.500" y2="-0.300" stroke="#4a5160" stroke-width="0.080" stroke-linecap="round" opacity="0.7"/><line x1="-0.500" y1="0.300" x2="-0.325" y2="0.000" stroke="#4a5160" stroke-width="0.080" stroke-linecap="round" opacity="0.7"/><line x1="-0.500" y1="0.300" x2="-0.150" y2="0.300" stroke="#4a5160" stroke-width="0.080" stroke-linecap="round" opacity="0.7"/><line x1="-0.150" y1="0.300" x2="-0.150" y2="-0.300" stroke="#4a5160" stroke-width="0.080" stroke-linecap="round" opacity="0.7"/><line x1="0.000" y1="0.000" x2="0.000" y2="-0.500" stroke="#4a5160" stroke-width="0.080" stroke-linecap="round" opacity="0.7"/><line x1="0.000" y1="0.000" x2="0.500" y2="0.000" stroke="#4a5160" stroke-width="0.080" stroke-linecap="round" opacity="0.7"/><line x1="0.000" y1="0.500" x2="0.000" y2="0.000" stroke="#4a5160" stroke-width="0.080" stroke-linecap="round" opacity="0.7"/><line x1="0.150" y1="-0.300" x2="0.500" y2="-0.300" stroke="#4a5160" stroke-width="0.080" stroke-linecap="round" opacity="0.7"/><line x1="0.150" y1="0.300" x2="0.150" y2="-0.300" stroke="#4a5160" stroke-width="0.080" stroke-linecap="round" opacity="0.7"/><line x1="0.150" y1="0.300" x2="0.500" y2="0.300" stroke="#4a5160" stroke-width="0.080" stroke-linecap="round" opacity="0.7"/><line x1="0.325" y1="0.000" x2="0.500" y2="-0.300" stroke="#4a5160" stroke-width="0.080" stroke-linecap="round" opacity="0.7"/><line x1="0.325" y1="0.000" x2="0.500" y2="0.300" stroke="#4a5160" stroke-width="0.080" stroke-linecap="round" opacity="0.7"/><line x1="0.500" y1="0.300" x2="0.500" y2="-0.300" stroke="#4a5160" stroke-width="0.080" stroke-linecap="round" opacity="0.7"/><line x1="-0.850" y1="-0.650" x2="0.850" y2="-0.650" stroke="#d24d4d" stroke-width="0.080" stroke-linecap="round" opacity="0.7"/><line x1="-0.850" y1="0.650" x2="-0.850" y2="-0.650" stroke="#d24d4d" stroke-width="0.080" stroke-linecap="round" opacity="0.7"/><line x1="-0.850" y1="0.650" x2="0.850" y2="0.650" stroke="#d24d4d" stroke-width="0.080" stroke-linecap="round" opacity="0.7"/><line x1="0.850" y1="0.650" x2="0.850" y2="-0.650" stroke="#d24d4d" stroke-width="0.080" stroke-linecap="round" opacity="0.7"/><line x1="-0.500" y1="-0.300" x2="0.500" y2="-0.300" stroke="#6b7280" stroke-width="0.100" stroke-linecap="round" opacity="0.8"/><line x1="-0.500" y1="0.300" x2="-0.500" y2="-0.300" stroke="#6b7280" stroke-width="0.100" stroke-linecap="round" opacity="0.8"/><line x1="-0.500" y1="0.300" x2="0.500" y2="0.300" stroke="#6b7280" stroke-width="0.100" stroke-linecap="round" opacity="0.8"/><line x1="-0.350" y1="0.300" x2="-0.350" y2="-0.300" stroke="#6b7280" stroke-width="0.100" stroke-linecap="round" opacity="0.8"/><line x1="-0.250" y1="0.300" x2="-0.250" y2="-0.300" stroke="#6b7280" stroke-width="0.100" stroke-linecap="round" opacity="0.8"/><line x1="0.500" y1="0.300" x2="0.500" y2="-0.300" stroke="#6b7280" stroke-width="0.100" stroke-linecap="round" opacity="0.8"/><circle cx="-0.500" cy="-0.900" r="0.150" fill="#e6e9ef" opacity="1"/><rect x="-0.625" y="-0.175" width="0.600" height="0.350" rx="0.000" fill="#c79b5c"/><rect x="0.025" y="-0.175" width="0.600" height="0.350" rx="0.000" fill="#c79b5c"/><polygon points="-0.78,1.23 0.12,1.23 -0.33,0.62" fill="#ffffff"/></svg>