<svg xmlns="http://www.w3.org/2000/svg" viewBox="-15.59 -17.30 31.18 25.11" preserveAspectRatio="xMidYMid meet" style="width:100%;height:100%"><rect x="-15.59" y="-17.30" width="31.18" height="25.11" fill="#12151c"/><line x1="-14.590" y1="-16.300" x2="14.590" y2="-16.300" stroke="#d24d4d" stroke-width="0.080" stroke-linecap="round" opacity="0.7"/><line x1="14.590" y1="-16.300" x2="14.590" y2="6.810" stroke="#d24d4d" stroke-width="0.080" stroke-linecap="round" opacity="0.7"/><line x1="14.590" y1="6.810" x2="-14.590" y2="6.810" stroke="#d24d4d" stroke-width="0.080" stroke-linecap="round" opacity="0.7"/><line x1="-14.590" y1="6.810" x2="-14.590" y2="-16.300" stroke="#d24d4d" stroke-width="0.080" stroke-linecap="round" opacity="0.7"/><rect x="-14.025" y="4.775" width="1.050" height="1.050" rx="0.525" fill="#c79b5c"/><circle cx="-13.500" cy="5.300" r="0.275" fill="#12151c"/><rect x="-6.825" y="4.775" width="1.050" height="1.050" rx="0.525" fill="#c79b5c"/><circle cx="-6.300" cy="5.300" r="0.275" fill="#12151c"/><rect x="0.375" y="4.775" width="1.050" height="1.050" rx="0.525" fill="#c79b5c"/><circle cx="0.900" cy="5.300" r="0.275" fill="#12151c"/><rect x="7.575" y="4.775" width="1.050" height="1.050" rx="0.525" fill="#c79b5c"/><circle cx="8.100" cy="5.300" r="0.275" fill="#12151c"/><rect x="-13.975" y="-4.525" width="0.950" height="0.950" rx="0.475" fill="#c79b5c"/><circle cx="-13.500" cy="-4.050" r="0.225" fill="#12151c"/><rect x="-12.175" y="-4.525" width="0.950" height="0.950" rx="0.475" fill="#c79b5c"/><circle cx="-11.700" cy="-4.050" r="0.225" fill="#12151c"/><rect x="-10.375" y="-4.525" width="0.950" height="0.950" rx="0.475" fill="#c79b5c"/><circle cx="-9.900" cy="-4.050" r="0.225" fill="#12151c"/><rect x="-8.575" y="-4.525" width="0.950" height="0.950" rx="0.475" fill="#c79b5c"/><circle cx="-8.100" cy="-4.050" r="0.225" fill="#12151c"/><rect x="-6.775" y="-4.525" width="0.950" height="0.950" rx="0.475" fill="#c79b5c"/><circle cx="-6.300" cy="-4.050" r="0.225" fill="#12151c"/><rect x="-4.975" y="-4.525" width="0.950" height="0.950" rx="0.475" fill="#c79b5c"/><circle cx="-4.500" cy="-4.050" r="0.225" fill="#12151c"/><rect x="-3.175" y="-4.525" width="0.950" height="0.950" rx="0.475" fill="#c79b5c"/><circle cx="-2.700" cy="-4.050" r="0.225" fill="#12151c"/><rect x="-1.375" y="-4.525" width="0.950" height="0.950" rx="0.475" fill="#c79b5c"/><circle cx="-0.900" cy="-4.050" r="0.225" fill="#12151c"/><rect x="0.425" y="-4.525" width="0.950" height="0.950" rx="0.475" fill="#c79b5c"/><circle cx="0.900" cy="-4.050" r="0.225" fill="#12151c"/><rect x="2.225" y="-4.525" width="0.950" height="0.950" rx="0.475" fill="#c79b5c"/><circle cx="2.700" cy="-4.050" r="0.225" fill="#12151c"/><rect x="4.025" y="-4.525" width="0.950" height="0.950" rx="0.475" fill="#c79b5c"/><circle cx="4.500" cy="-4.050" r="0.225" fill="#12151c"/><rect x="5.825" y="-4.525" width="0.950" height="0.950" rx="0.475" fill="#c79b5c"/><circle cx="6.300" cy="-4.050" r="0.225" fill="#12151c"/><rect x="7.625" y="-4.525" width="0.950" height="0.950" rx="0.475" fill="#c79b5c"/><circle cx="8.100" cy="-4.050" r="0.225" fill="#12151c"/><rect x="9.425" y="-4.525" width="0.950" height="0.950" rx="0.475" fill="#c79b5c"/><circle cx="9.900" cy="-4.050" r="0.225" fill="#12151c"/><rect x="11.225" y="-4.525" width="0.950" height="0.950" rx="0.475" fill="#c79b5c"/><circle cx="11.700" cy="-4.050" r="0.225" fill="#12151c"/><rect x="-13.975" y="-3.175" width="0.950" height="0.950" rx="0.475" fill="#c79b5c"/><circle cx="-13.500" cy="-2.700" r="0.225" fill="#12151c"/><rect x="-12.175" y="-3.175" width="0.950" height="0.950" rx="0.475" fill="#c79b5c"/><circle cx="-11.700" cy="-2.700" r="0.225" fill="#12151c"/><rect x="-10.375" y="-3.175" width="0.950" height="0.950" rx="0.475" fill="#c79b5c"/><circle cx="-9.900" cy="-2.700" r="0.225" fill="#12151c"/><rect x="-8.575" y="-3.175" width="0.950" height="0.950" rx="0.475" fill="#c79b5c"/><circle cx="-8.100" cy="-2.700" r="0.225" fill="#12151c"/><rect x="-6.775" y="-3.175" width="0.950" height="0.950" rx="0.475" fill="#c79b5c"/><circle cx="-6.300" cy="-2.700" r="0.225" fill="#12151c"/><rect x="-4.975" y="-3.175" width="0.950" height="0.950" rx="0.475" fill="#c79b5c"/><circle cx="-4.500" cy="-2.700" r="0.225" fill="#12151c"/><rect x="-3.175" y="-3.175" width="0.950" height="0.950" rx="0.475" fill="#c79b5c"/><circle cx="-2.700" cy="-2.700" r="0.225" fill="#12151c"/><rect x="-1.375" y="-3.175" width="0.950" height="0.950" rx="0.475" fill="#c79b5c"/><circle cx="-0.900" cy="-2.700" r="0.225" fill="#12151c"/><rect x="0.425" y="-3.175" width="0.950" height="0.950" rx="0.475" fill="#c79b5c"/><circle cx="0.900" cy="-2.700" r="0.225" fill="#12151c"/><rect x="2.225" y="-3.175" width="0.950" height="0.950" rx="0.475" fill="#c79b5c"/><circle cx="2.700" cy="-2.700" r="0.225" fill="#12151c"/><rect x="4.025" y="-3.175" width="0.950" height="0.950" rx="0.475" fill="#c79b5c"/><circle cx="4.500" cy="-2.700" r="0.225" fill="#12151c"/><rect x="5.825" y="-3.175" width="0.950" height="0.950" rx="0.475" fill="#c79b5c"/><circle cx="6.300" cy="-2.700" r="0.225" fill="#12151c"/><rect x="7.625" y="-3.175" width="0.950" height="0.950" rx="0.475" fill="#c79b5c"/><circle cx="8.100" cy="-2.700" r="0.225" fill="#12151c"/><rect x="9.425" y="-3.175" width="0.950" height="0.950" rx="0.475" fill="#c79b5c"/><circle cx="9.900" cy="-2.700" r="0.225" fill="#12151c"/><rect x="11.225" y="-3.175" width="0.950" height="0.950" rx="0.475" fill="#c79b5c"/><circle cx="11.700" cy="-2.700" r="0.225" fill="#12151c"/><rect x="-13.975" y="-1.825" width="0.950" height="0.950" rx="0.475" fill="#c79b5c"/><circle cx="-13.500" cy="-1.350" r="0.225" fill="#12151c"/><rect x="-12.175" y="-1.825" width="0.950" height="0.950" rx="0.475" fill="#c79b5c"/><circle cx="-11.700" cy="-1.350" r="0.225" fill="#12151c"/><rect x="-10.375" y="-1.825" width="0.950" height="0.950" rx="0.475" fill="#c79b5c"/><circle cx="-9.900" cy="-1.350" r="0.225" fill="#12151c"/><rect x="-8.575" y="-1.825" width="0.950" height="0.950" rx="0.475" fill="#c79b5c"/><circle cx="-8.100" cy="-1.350" r="0.225" fill="#12151c"/><rect x="-6.775" y="-1.825" width="0.950" height="0.950" rx="0.475" fill="#c79b5c"/><circle cx="-6.300" cy="-1.350" r="0.225" fill="#12151c"/><rect x="-4.975" y="-1.825" width="0.950" height="0.950" rx="0.475" fill="#c79b5c"/><circle cx="-4.500" cy="-1.350" r="0.225" fill="#12151c"/><rect x="-3.175" y="-1.825" width="0.950" height="0.950" rx="0.475" fill="#c79b5c"/><circle cx="-2.700" cy="-1.350" r="0.225" fill="#12151c"/><rect x="-1.375" y="-1.825" width="0.950" height="0.950" rx="0.475" fill="#c79b5c"/><circle cx="-0.900" cy="-1.350" r="0.225" fill="#12151c"/><rect x="0.425" y="-1.825" width="0.950" height="0.950" rx="0.475" fill="#c79b5c"/><circle cx="0.900" cy="-1.350" r="0.225" fill="#12151c"/><rect x="2.225" y="-1.825" width="0.950" height="0.950" rx="0.475" fill="#c79b5c"/><circle cx="2.700" cy="-1.350" r="0.225" fill="#12151c"/><rect x="4.025" y="-1.825" width="0.950" height="0.950" rx="0.475" fill="#c79b5c"/><circle cx="4.500" cy="-1.350" r="0.225" fill="#12151c"/><rect x="5.825" y="-1.825" width="0.950" height="0.950" rx="0.475" fill="#c79b5c"/><circle cx="6.300" cy="-1.350" r="0.225" fill="#12151c"/><rect x="7.625" y="-1.825" width="0.950" height="0.950" rx="0.475" fill="#c79b5c"/><circle cx="8.100" cy="-1.350" r="0.225" fill="#12151c"/><rect x="9.425" y="-1.825" width="0.950" height="0.950" rx="0.475" fill="#c79b5c"/><circle cx="9.900" cy="-1.350" r="0.225" fill="#12151c"/><rect x="11.225" y="-1.825" width="0.950" height="0.950" rx="0.475" fill="#c79b5c"/><circle cx="11.700" cy="-1.350" r="0.225" fill="#12151c"/><rect x="-13.975" y="-0.475" width="0.950" height="0.950" rx="0.475" fill="#c79b5c"/><circle cx="-13.500" cy="0.000" r="0.225" fill="#12151c"/><rect x="-12.175" y="-0.475" width="0.950" height="0.950" rx="0.475" fill="#c79b5c"/><circle cx="-11.700" cy="0.000" r="0.225" fill="#12151c"/><rect x="-10.375" y="-0.475" width="0.950" height="0.950" rx="0.475" fill="#c79b5c"/><circle cx="-9.900" cy="0.000" r="0.225" fill="#12151c"/><rect x="-8.575" y="-0.475" width="0.950" height="0.950" rx="0.475" fill="#c79b5c"/><circle cx="-8.100" cy="0.000" r="0.225" fill="#12151c"/><rect x="-6.775" y="-0.475" width="0.950" height="0.950" rx="0.475" fill="#c79b5c"/><circle cx="-6.300" cy="0.000" r="0.225" fill="#12151c"/><rect x="-4.975" y="-0.475" width="0.950" height="0.950" rx="0.475" fill="#c79b5c"/><circle cx="-4.500" cy="0.000" r="0.225" fill="#12151c"/><rect x="-3.175" y="-0.475" width="0.950" height="0.950" rx="0.475" fill="#c79b5c"/><circle cx="-2.700" cy="0.000" r="0.225" fill="#12151c"/><rect x="-1.375" y="-0.475" width="0.950" height="0.950" rx="0.475" fill="#c79b5c"/><circle cx="-0.900" cy="0.000" r="0.225" fill="#12151c"/><rect x="0.425" y="-0.475" width="0.950" height="0.950" rx="0.475" fill="#c79b5c"/><circle cx="0.900" cy="0.000" r="0.225" fill="#12151c"/><rect x="2.225" y="-0.475" width="0.950" height="0.950" rx="0.475" fill="#c79b5c"/><circle cx="2.700" cy="0.000" r="0.225" fill="#12151c"/><rect x="4.025" y="-0.475" width="0.950" height="0.950" rx="0.475" fill="#c79b5c"/><circle cx="4.500" cy="0.000" r="0.225" fill="#12151c"/><rect x="5.825" y="-0.475" width="0.950" height="0.950" rx="0.475" fill="#c79b5c"/><circle cx="6.300" cy="0.000" r="0.225" fill="#12151c"/><rect x="7.625" y="-0.475" width="0.950" height="0.950" rx="0.475" fill="#c79b5c"/><circle cx="8.100" cy="0.000" r="0.225" fill="#12151c"/><rect x="9.425" y="-0.475" width="0.950" height="0.950" rx="0.475" fill="#c79b5c"/><circle cx="9.900" cy="0.000" r="0.225" fill="#12151c"/><rect x="11.225" y="-0.475" width="0.950" height="0.950" rx="0.475" fill="#c79b5c"/><circle cx="11.700" cy="0.000" r="0.225" fill="#12151c"/><rect x="-13.975" y="0.875" width="0.950" height="0.950" rx="0.475" fill="#c79b5c"/><circle cx="-13.500" cy="1.350" r="0.225" fill="#12151c"/><rect x="-12.175" y="0.875" width="0.950" height="0.950" rx="0.475" fill="#c79b5c"/><circle cx="-11.700" cy="1.350" r="0.225" fill="#12151c"/><rect x="-10.375" y="0.875" width="0.950" height="0.950" rx="0.475" fill="#c79b5c"/><circle cx="-9.900" cy="1.350" r="0.225" fill="#12151c"/><rect x="-8.575" y="0.875" width="0.950" height="0.950" rx="0.475" fill="#c79b5c"/><circle cx="-8.100" cy="1.350" r="0.225" fill="#12151c"/><rect x="-6.775" y="0.875" width="0.950" height="0.950" rx="0.475" fill="#c79b5c"/><circle cx="-6.300" cy="1.350" r="0.225" fill="#12151c"/><rect x="-4.975" y="0.875" width="0.950" height="0.950" rx="0.475" fill="#c79b5c"/><circle cx="-4.500" cy="1.350" r="0.225" fill="#12151c"/><rect x="-3.175" y="0.875" width="0.950" height="0.950" rx="0.475" fill="#c79b5c"/><circle cx="-2.700" cy="1.350" r="0.225" fill="#12151c"/><rect x="-1.375" y="0.875" width="0.950" height="0.950" rx="0.475" fill="#c79b5c"/><circle cx="-0.900" cy="1.350" r="0.225" fill="#12151c"/><rect x="0.425" y="0.875" width="0.950" height="0.950" rx="0.475" fill="#c79b5c"/><circle cx="0.900" cy="1.350" r="0.225" fill="#12151c"/><rect x="2.225" y="0.875" width="0.950" height="0.950" rx="0.475" fill="#c79b5c"/><circle cx="2.700" cy="1.350" r="0.225" fill="#12151c"/><rect x="4.025" y="0.875" width="0.950" height="0.950" rx="0.475" fill="#c79b5c"/><circle cx="4.500" cy="1.350" r="0.225" fill="#12151c"/><rect x="5.825" y="0.875" width="0.950" height="0.950" rx="0.475" fill="#c79b5c"/><circle cx="6.300" cy="1.350" r="0.225" fill="#12151c"/><rect x="7.625" y="0.875" width="0.950" height="0.950" rx="0.475" fill="#c79b5c"/><circle cx="8.100" cy="1.350" r="0.225" fill="#12151c"/><rect x="9.425" y="0.875" width="0.950" height="0.950" rx="0.475" fill="#c79b5c"/><circle cx="9.900" cy="1.350" r="0.225" fill="#12151c"/><rect x="11.225" y="0.875" width="0.950" height="0.950" rx="0.475" fill="#c79b5c"/><circle cx="11.700" cy="1.350" r="0.225" fill="#12151c"/><rect x="-13.975" y="2.225" width="0.950" height="0.950" rx="0.475" fill="#c79b5c"/><circle cx="-13.500" cy="2.700" r="0.225" fill="#12151c"/><rect x="-12.175" y="2.225" width="0.950" height="0.950" rx="0.475" fill="#c79b5c"/><circle cx="-11.700" cy="2.700" r="0.225" fill="#12151c"/><rect x="-10.375" y="2.225" width="0.950" height="0.950" rx="0.475" fill="#c79b5c"/><circle cx="-9.900" cy="2.700" r="0.225" fill="#12151c"/><rect x="-8.575" y="2.225" width="0.950" height="0.950" rx="0.475" fill="#c79b5c"/><circle cx="-8.100" cy="2.700" r="0.225" fill="#12151c"/><rect x="-6.775" y="2.225" width="0.950" height="0.950" rx="0.475" fill="#c79b5c"/><circle cx="-6.300" cy="2.700" r="0.225" fill="#12151c"/><rect x="-4.975" y="2.225" width="0.950" height="0.950" rx="0.475" fill="#c79b5c"/><circle cx="-4.500" cy="2.700" r="0.225" fill="#12151c"/><rect x="-3.175" y="2.225" width="0.950" height="0.950" rx="0.475" fill="#c79b5c"/><circle cx="-2.700" cy="2.700" r="0.225" fill="#12151c"/><rect x="-1.375" y="2.225" width="0.950" height="0.950" rx="0.475" fill="#c79b5c"/><circle cx="-0.900" cy="2.700" r="0.225" fill="#12151c"/><rect x="0.425" y="2.225" width="0.950" height="0.950" rx="0.475" fill="#c79b5c"/><circle cx="0.900" cy="2.700" r="0.225" fill="#12151c"/><rect x="2.225" y="2.225" width="0.950" height="0.950" rx="0.475" fill="#c79b5c"/><circle cx="2.700" cy="2.700" r="0.225" fill="#12151c"/><rect x="4.025" y="2.225" width="0.950" height="0.950" rx="0.475" fill="#c79b5c"/><circle cx="4.500" cy="2.700" r="0.225" fill="#12151c"/><rect x="5.825" y="2.225" width="0.950" height="0.950" rx="0.475" fill="#c79b5c"/><circle cx="6.300" cy="2.700" r="0.225" fill="#12151c"/><rect x="7.625" y="2.225" width="0.950" height="0.950" rx="0.475" fill="#c79b5c"/><circle cx="8.100" cy="2.700" r="0.225" fill="#12151c"/><rect x="9.425" y="2.225" width="0.950" height="0.950" rx="0.475" fill="#c79b5c"/><circle cx="9.900" cy="2.700" r="0.225" fill="#12151c"/><rect x="11.225" y="2.225" width="0.950" height="0.950" rx="0.475" fill="#c79b5c"/><circle cx="11.700" cy="2.700" r="0.225" fill="#12151c"/><rect x="-13.975" y="3.575" width="0.950" height="0.950" rx="0.475" fill="#c79b5c"/><circle cx="-13.500" cy="4.050" r="0.225" fill="#12151c"/><rect x="-12.175" y="3.575" width="0.950" height="0.950" rx="0.475" fill="#c79b5c"/><circle cx="-11.700" cy="4.050" r="0.225" fill="#12151c"/><rect x="-10.375" y="3.575" width="0.950" height="0.950" rx="0.475" fill="#c79b5c"/><circle cx="-9.900" cy="4.050" r="0.225" fill="#12151c"/><rect x="-8.575" y="3.575" width="0.950" height="0.950" rx="0.475" fill="#c79b5c"/><circle cx="-8.100" cy="4.050" r="0.225" fill="#12151c"/><rect x="-6.775" y="3.575" width="0.950" height="0.950" rx="0.475" fill="#c79b5c"/><circle cx="-6.300" cy="4.050" r="0.225" fill="#12151c"/><rect x="-4.975" y="3.575" width="0.950" height="0.950" rx="0.475" fill="#c79b5c"/><circle cx="-4.500" cy="4.050" r="0.225" fill="#12151c"/><rect x="-3.175" y="3.575" width="0.950" height="0.950" rx="0.475" fill="#c79b5c"/><circle cx="-2.700" cy="4.050" r="0.225" fill="#12151c"/><rect x="-1.375" y="3.575" width="0.950" height="0.950" rx="0.475" fill="#c79b5c"/><circle cx="-0.900" cy="4.050" r="0.225" fill="#12151c"/><rect x="0.425" y="3.575" width="0.950" height="0.950" rx="0.475" fill="#c79b5c"/><circle cx="0.900" cy="4.050" r="0.225" fill="#12151c"/><rect x="2.225" y="3.575" width="0.950" height="0.950" rx="0.475" fill="#c79b5c"/><circle cx="2.700" cy="4.050" r="0.225" fill="#12151c"/><rect x="4.025" y="3.575" width="0.950" height="0.950" rx="0.475" fill="#c79b5c"/><circle cx="4.500" cy="4.050" r="0.225" fill="#12151c"/><rect x="5.825" y="3.575" width="0.950" height="0.950" rx="0.475" fill="#c79b5c"/><circle cx="6.300" cy="4.050" r="0.225" fill="#12151c"/><rect x="7.625" y="3.575" width="0.950" height="0.950" rx="0.475" fill="#c79b5c"/><circle cx="8.100" cy="4.050" r="0.225" fill="#12151c"/><rect x="9.425" y="3.575" width="0.950" height="0.950" rx="0.475" fill="#c79b5c"/><circle cx="9.900" cy="4.050" r="0.225" fill="#12151c"/><rect x="11.225" y="3.575" width="0.950" height="0.950" rx="0.475" fill="#c79b5c"/><circle cx="11.700" cy="4.050" r="0.225" fill="#12151c"/></svg>