<svg xmlns="http://www.w3.org/2000/svg" viewBox="-5.31 -10.42 10.62 20.84" preserveAspectRatio="xMidYMid meet" style="width:100%;height:100%"><rect x="-5.31" y="-10.42" width="10.62" height="20.84" fill="#12151c"/><line x1="-4.064" y1="-8.128" x2="-3.218" y2="-8.128" stroke="#e6e9ef" stroke-width="0.200" stroke-linecap="round" opacity="1"/><line x1="-4.064" y1="8.128" x2="-4.064" y2="-8.128" stroke="#e6e9ef" stroke-width="0.200" stroke-linecap="round" opacity="1"/><line x1="-4.064" y1="8.128" x2="-3.218" y2="8.128" stroke="#e6e9ef" stroke-width="0.200" stroke-linecap="round" opacity="1"/><line x1="-1.460" y1="2.480" x2="-1.277" y2="1.045" stroke="#e6e9ef" stroke-width="0.200" stroke-linecap="round" opacity="1"/><line x1="-0.508" y1="-2.591" x2="-0.508" y2="-3.129" stroke="#e6e9ef" stroke-width="0.200" stroke-linecap="round" opacity="1"/><line x1="-0.508" y1="-2.591" x2="0.508" y2="-2.591" stroke="#e6e9ef" stroke-width="0.200" stroke-linecap="round" opacity="1"/><line x1="0.508" y1="-2.591" x2="0.508" y2="-3.129" stroke="#e6e9ef" stroke-width="0.200" stroke-linecap="round" opacity="1"/><line x1="1.277" y1="1.045" x2="1.460" y2="2.480" stroke="#e6e9ef" stroke-width="0.200" stroke-linecap="round" opacity="1"/><line x1="3.218" y1="-8.128" x2="4.064" y2="-8.128" stroke="#e6e9ef" stroke-width="0.200" stroke-linecap="round" opacity="1"/><line x1="3.218" y1="8.128" x2="4.064" y2="8.128" stroke="#e6e9ef" stroke-width="0.200" stroke-linecap="round" opacity="1"/><line x1="4.064" y1="8.128" x2="4.064" y2="-8.128" stroke="#e6e9ef" stroke-width="0.200" stroke-linecap="round" opacity="1"/><line x1="-2.087" y1="-7.874" x2="-1.587" y2="-7.874" stroke="#4a5160" stroke-width="0.100" stroke-linecap="round" opacity="0.7"/><line x1="-2.087" y1="7.874" x2="-1.587" y2="7.874" stroke="#4a5160" stroke-width="0.100" stroke-linecap="round" opacity="0.7"/><line x1="-1.587" y1="-7.874" x2="-1.587" y2="-8.374" stroke="#4a5160" stroke-width="0.100" stroke-linecap="round" opacity="0.7"/><line x1="-1.587" y1="-7.874" x2="-1.087" y2="-7.874" stroke="#4a5160" stroke-width="0.100" stroke-linecap="round" opacity="0.7"/><line x1="-1.587" y1="-7.374" x2="-1.587" y2="-7.874" stroke="#4a5160" stroke-width="0.100" stroke-linecap="round" opacity="0.7"/><line x1="-1.587" y1="7.874" x2="-1.587" y2="7.374" stroke="#4a5160" stroke-width="0.100" stroke-linecap="round" opacity="0.7"/><line x1="-1.587" y1="7.874" x2="-1.087" y2="7.874" stroke="#4a5160" stroke-width="0.100" stroke-linecap="round" opacity="0.7"/><line x1="-1.587" y1="8.374" x2="-1.587" y2="7.874" stroke="#4a5160" stroke-width="0.100" stroke-linecap="round" opacity="0.7"/><line x1="-0.500" y1="-4.699" x2="0.000" y2="-4.699" stroke="#4a5160" stroke-width="0.100" stroke-linecap="round" opacity="0.7"/><line x1="-0.500" y1="0.000" x2="0.000" y2="0.000" stroke="#4a5160" stroke-width="0.100" stroke-linecap="round" opacity="0.7"/><line x1="-0.500" y1="4.699" x2="0.000" y2="4.699" stroke="#4a5160" stroke-width="0.100" stroke-linecap="round" opacity="0.7"/><line x1="0.000" y1="-4.699" x2="0.000" y2="-5.199" stroke="#4a5160" stroke-width="0.100" stroke-linecap="round" opacity="0.7"/><line x1="0.000" y1="-4.699" x2="0.500" y2="-4.699" stroke="#4a5160" stroke-width="0.100" stroke-linecap="round" opacity="0.7"/><line x1="0.000" y1="-4.199" x2="0.000" y2="-4.699" stroke="#4a5160" stroke-width="0.100" stroke-linecap="round" opacity="0.7"/><line x1="0.000" y1="0.000" x2="0.000" y2="-0.500" stroke="#4a5160" stroke-width="0.100" stroke-linecap="round" opacity="0.7"/><line x1="0.000" y1="0.000" x2="0.500" y2="0.000" stroke="#4a5160" stroke-width="0.100" stroke-linecap="round" opacity="0.7"/><line x1="0.000" y1="0.500" x2="0.000" y2="0.000" stroke="#4a5160" stroke-width="0.100" stroke-linecap="round" opacity="0.7"/><line x1="0.000" y1="4.699" x2="0.000" y2="4.199" stroke="#4a5160" stroke-width="0.100" stroke-linecap="round" opacity="0.7"/><line x1="0.000" y1="4.699" x2="0.500" y2="4.699" stroke="#4a5160" stroke-width="0.100" stroke-linecap="round" opacity="0.7"/><line x1="0.000" y1="5.199" x2="0.000" y2="4.699" stroke="#4a5160" stroke-width="0.100" stroke-linecap="round" opacity="0.7"/><line x1="1.087" y1="-7.874" x2="1.587" y2="-7.874" stroke="#4a5160" stroke-width="0.100" stroke-linecap="round" opacity="0.7"/><line x1="1.087" y1="7.874" x2="1.587" y2="7.874" stroke="#4a5160" stroke-width="0.100" stroke-linecap="round" opacity="0.7"/><line x1="1.587" y1="-7.874" x2="1.587" y2="-8.374" stroke="#4a5160" stroke-width="0.100" stroke-linecap="round" opacity="0.7"/><line x1="1.587" y1="-7.874" x2="2.087" y2="-7.874" stroke="#4a5160" stroke-width="0.100" stroke-linecap="round" opacity="0.7"/><line x1="1.587" y1="-7.374" x2="1.587" y2="-7.874" stroke="#4a5160" stroke-width="0.100" stroke-linecap="round" opacity="0.7"/><line x1="1.587" y1="7.874" x2="1.587" y2="7.374" stroke="#4a5160" stroke-width="0.100" stroke-linecap="round" opacity="0.7"/><line x1="1.587" y1="7.874" x2="2.087" y2="7.874" stroke="#4a5160" stroke-width="0.100" stroke-linecap="round" opacity="0.7"/><line x1="1.587" y1="8.374" x2="1.587" y2="7.874" stroke="#4a5160" stroke-width="0.100" stroke-linecap="round" opacity="0.7"/><line x1="-4.064" y1="-8.128" x2="4.064" y2="-8.128" stroke="#6b7280" stroke-width="0.100" stroke-linecap="round" opacity="0.8"/><line x1="-4.064" y1="8.128" x2="-4.064" y2="-8.128" stroke="#6b7280" stroke-width="0.100" stroke-linecap="round" opacity="0.8"/><line x1="-4.064" y1="8.128" x2="4.064" y2="8.128" stroke="#6b7280" stroke-width="0.100" stroke-linecap="round" opacity="0.8"/><line x1="-1.460" y1="2.480" x2="-1.143" y2="-0.000" stroke="#6b7280" stroke-width="0.100" stroke-linecap="round" opacity="0.8"/><line x1="-0.508" y1="-2.591" x2="-0.508" y2="-3.263" stroke="#6b7280" stroke-width="0.100" stroke-linecap="round" opacity="0.8"/><line x1="-0.508" y1="-2.591" x2="0.508" y2="-2.591" stroke="#6b7280" stroke-width="0.100" stroke-linecap="round" opacity="0.8"/><line x1="0.508" y1="-2.591" x2="0.508" y2="-3.263" stroke="#6b7280" stroke-width="0.100" stroke-linecap="round" opacity="0.8"/><line x1="1.144" y1="-0.000" x2="1.460" y2="2.480" stroke="#6b7280" stroke-width="0.100" stroke-linecap="round" opacity="0.8"/><line x1="4.064" y1="8.128" x2="4.064" y2="-8.128" stroke="#6b7280" stroke-width="0.100" stroke-linecap="round" opacity="0.8"/><line x1="-4.310" y1="-9.420" x2="4.310" y2="-9.420" stroke="#d24d4d" stroke-width="0.080" stroke-linecap="round" opacity="0.7"/><line x1="4.310" y1="-9.420" x2="4.310" y2="9.420" stroke="#d24d4d" stroke-width="0.080" stroke-linecap="round" opacity="0.7"/><line x1="4.310" y1="9.420" x2="-4.310" y2="9.420" stroke="#d24d4d" stroke-width="0.080" stroke-linecap="round" opacity="0.7"/><line x1="-4.310" y1="9.420" x2="-4.310" y2="-9.420" stroke="#d24d4d" stroke-width="0.080" stroke-linecap="round" opacity="0.7"/><path d="M -1.449 2.389 A 2.794 2.794 0 0 1 -0.508 -2.748" fill="none" stroke="#e6e9ef" stroke-width="0.12" opacity="1"/><path d="M -1.376 1.825 A 2.286 2.286 0 1 1 1.377 1.825" fill="none" stroke="#e6e9ef" stroke-width="0.12" opacity="1"/><path d="M -1.354 3.011 A 3.302 3.302 0 0 1 -0.731 -3.220" fill="none" stroke="#e6e9ef" stroke-width="0.12" opacity="1"/><path d="M -1.078 3.450 A 1.460 1.460 0 0 1 -1.460 2.480" fill="none" stroke="#e6e9ef" stroke-width="0.12" opacity="1"/><path d="M 0.508 -2.748 A 2.794 2.794 0 0 1 1.449 2.389" fill="none" stroke="#e6e9ef" stroke-width="0.12" opacity="1"/><path d="M 0.732 -3.220 A 3.302 3.302 0 0 1 1.355 3.011" fill="none" stroke="#e6e9ef" stroke-width="0.12" opacity="1"/><path d="M 1.460 2.480 A 1.460 1.460 0 0 1 1.079 3.450" fill="none" stroke="#e6e9ef" stroke-width="0.12" opacity="1"/><path d="M -1.449 2.389 A 2.794 2.794 0 0 1 -0.508 -2.748" fill="none" stroke="#6b7280" stroke-width="0.12" opacity="0.8"/><path d="M -1.376 1.825 A 2.286 2.286 0 1 1 1.377 1.825" fill="none" stroke="#6b7280" stroke-width="0.12" opacity="0.8"/><path d="M -1.354 3.011 A 3.302 3.302 0 0 1 -0.508 -3.263" fill="none" stroke="#6b7280" stroke-width="0.12" opacity="0.8"/><path d="M -1.143 -0.000 A 1.144 1.144 0 0 1 1.144 -0.000" fill="none" stroke="#6b7280" stroke-width="0.12" opacity="0.8"/><path d="M 0.508 -3.263 A 3.302 3.302 0 0 1 1.355 3.011" fill="none" stroke="#6b7280" stroke-width="0.12" opacity="0.8"/><path d="M 0.508 -2.748 A 2.794 2.794 0 0 1 1.449 2.389" fill="none" stroke="#6b7280" stroke-width="0.12" opacity="0.8"/><path d="M 1.460 2.480 A 1.460 1.460 0 0 1 -1.460 2.480" fill="none" stroke="#6b7280" stroke-width="0.12" opacity="0.8"/><circle cx="-1.587" cy="-7.874" r="1.300" fill="none" stroke="#4a5160" stroke-width="0.12" opacity="0.7"/><circle cx="-1.587" cy="-7.874" r="0.950" fill="none" stroke="#4a5160" stroke-width="0.12" opacity="0.7"/><circle cx="-1.587" cy="7.874" r="1.300" fill="none" stroke="#4a5160" stroke-width="0.12" opacity="0.7"/><circle cx="-1.587" cy="7.874" r="0.950" fill="none" stroke="#4a5160" stroke-width="0.12" opacity="0.7"/><circle cx="0.000" cy="-4.699" r="1.300" fill="none" stroke="#4a5160" stroke-width="0.12" opacity="0.7"/><circle cx="0.000" cy="-4.699" r="0.950" fill="none" stroke="#4a5160" stroke-width="0.12" opacity="0.7"/><circle cx="0.000" cy="0.000" r="1.300" fill="none" stroke="#4a5160" stroke-width="0.12" opacity="0.7"/><circle cx="0.000" cy="0.000" r="0.950" fill="none" stroke="#4a5160" stroke-width="0.12" opacity="0.7"/><circle cx="0.000" cy="4.699" r="1.300" fill="none" stroke="#4a5160" stroke-width="0.12" opacity="0.7"/><circle cx="0.000" cy="4.699" r="0.950" fill="none" stroke="#4a5160" stroke-width="0.12" opacity="0.7"/><circle cx="1.587" cy="-7.874" r="1.300" fill="none" stroke="#4a5160" stroke-width="0.12" opacity="0.7"/><circle cx="1.587" cy="-7.874" r="0.950" fill="none" stroke="#4a5160" stroke-width="0.12" opacity="0.7"/><circle cx="1.587" cy="7.874" r="1.300" fill="none" stroke="#4a5160" stroke-width="0.12" opacity="0.7"/><circle cx="1.587" cy="7.874" r="0.950" fill="none" stroke="#4a5160" stroke-width="0.12" opacity="0.7"/><rect x="-1.300" y="3.399" width="2.600" height="2.600" rx="1.300" fill="#c79b5c"/><circle cx="0.000" cy="4.699" r="0.950" fill="#12151c"/><rect x="-1.300" y="-1.300" width="2.600" height="2.600" rx="1.300" fill="#c79b5c"/><circle cx="0.000" cy="0.000" r="0.950" fill="#12151c"/><rect x="-1.300" y="-5.999" width="2.600" height="2.600" rx="1.300" fill="#c79b5c"/><circle cx="0.000" cy="-4.699" r="0.950" fill="#12151c"/><rect x="-2.888" y="-9.174" width="2.600" height="2.600" rx="1.300" fill="#c79b5c"/><circle cx="-1.587" cy="-7.874" r="0.950" fill="#12151c"/><rect x="0.287" y="-9.174" width="2.600" height="2.600" rx="1.300" fill="#c79b5c"/><circle cx="1.587" cy="-7.874" r="0.950" fill="#12151c"/><rect x="-2.888" y="6.574" width="2.600" height="2.600" rx="1.300" fill="#c79b5c"/><circle cx="-1.587" cy="7.874" r="0.950" fill="#12151c"/><rect x="0.287" y="6.574" width="2.600" height="2.600" rx="1.300" fill="#c79b5c"/><circle cx="1.587" cy="7.874" r="0.950" fill="#12151c"/></svg>