<svg xmlns="http://www.w3.org/2000/svg" viewBox="-5.86 -6.33 11.72 12.66" preserveAspectRatio="xMidYMid meet" style="width:100%;height:100%"><rect x="-5.86" y="-6.33" width="11.72" height="12.66" fill="#12151c"/><line x1="-3.175" y1="-5.080" x2="3.175" y2="-5.080" stroke="#e6e9ef" stroke-width="0.200" stroke-linecap="round" opacity="1"/><line x1="-3.175" y1="-2.229" x2="-3.175" y2="-5.080" stroke="#e6e9ef" stroke-width="0.200" stroke-linecap="round" opacity="1"/><line x1="-3.175" y1="0.311" x2="-3.175" y2="-0.311" stroke="#e6e9ef" stroke-width="0.200" stroke-linecap="round" opacity="1"/><line x1="-3.175" y1="5.080" x2="-3.175" y2="2.229" stroke="#e6e9ef" stroke-width="0.200" stroke-linecap="round" opacity="1"/><line x1="-3.175" y1="5.080" x2="3.175" y2="5.080" stroke="#e6e9ef" stroke-width="0.200" stroke-linecap="round" opacity="1"/><line x1="3.175" y1="-4.769" x2="3.175" y2="-5.080" stroke="#e6e9ef" stroke-width="0.200" stroke-linecap="round" opacity="1"/><line x1="3.175" y1="2.851" x2="3.175" y2="-2.851" stroke="#e6e9ef" stroke-width="0.200" stroke-linecap="round" opacity="1"/><line x1="3.175" y1="5.080" x2="3.175" y2="4.769" stroke="#e6e9ef" stroke-width="0.200" stroke-linecap="round" opacity="1"/><line x1="-4.010" y1="-1.270" x2="-3.810" y2="-1.270" stroke="#4a5160" stroke-width="0.080" stroke-linecap="round" opacity="0.7"/><line x1="-4.010" y1="1.270" x2="-3.810" y2="1.270" stroke="#4a5160" stroke-width="0.080" stroke-linecap="round" opacity="0.7"/><line x1="-3.810" y1="-1.270" x2="-3.810" y2="-1.470" stroke="#4a5160" stroke-width="0.080" stroke-linecap="round" opacity="0.7"/><line x1="-3.810" y1="-1.270" x2="-3.610" y2="-1.270" stroke="#4a5160" stroke-width="0.080" stroke-linecap="round" opacity="0.7"/><line x1="-3.810" y1="-1.070" x2="-3.810" y2="-1.270" stroke="#4a5160" stroke-width="0.080" stroke-linecap="round" opacity="0.7"/><line x1="-3.810" y1="1.270" x2="-3.810" y2="1.070" stroke="#4a5160" stroke-width="0.080" stroke-linecap="round" opacity="0.7"/><line x1="-3.810" y1="1.270" x2="-3.610" y2="1.270" stroke="#4a5160" stroke-width="0.080" stroke-linecap="round" opacity="0.7"/><line x1="-3.810" y1="1.470" x2="-3.810" y2="1.270" stroke="#4a5160" stroke-width="0.080" stroke-linecap="round" opacity="0.7"/><line x1="-0.500" y1="0.000" x2="0.000" y2="0.000" stroke="#4a5160" stroke-width="0.080" stroke-linecap="round" opacity="0.7"/><line x1="0.000" y1="0.000" x2="0.000" y2="-0.500" stroke="#4a5160" stroke-width="0.080" stroke-linecap="round" opacity="0.7"/><line x1="0.000" y1="0.000" x2="0.500" y2="0.000" stroke="#4a5160" stroke-width="0.080" stroke-linecap="round" opacity="0.7"/><line x1="0.000" y1="0.500" x2="0.000" y2="0.000" stroke="#4a5160" stroke-width="0.080" stroke-linecap="round" opacity="0.7"/><line x1="3.610" y1="-3.810" x2="3.810" y2="-3.810" stroke="#4a5160" stroke-width="0.080" stroke-linecap="round" opacity="0.7"/><line x1="3.610" y1="3.810" x2="3.810" y2="3.810" stroke="#4a5160" stroke-width="0.080" stroke-linecap="round" opacity="0.7"/><line x1="3.810" y1="-3.810" x2="3.810" y2="-4.010" stroke="#4a5160" stroke-width="0.080" stroke-linecap="round" opacity="0.7"/><line x1="3.810" y1="-3.810" x2="4.010" y2="-3.810" stroke="#4a5160" stroke-width="0.080" stroke-linecap="round" opacity="0.7"/><line x1="3.810" y1="-3.610" x2="3.810" y2="-3.810" stroke="#4a5160" stroke-width="0.080" stroke-linecap="round" opacity="0.7"/><line x1="3.810" y1="3.810" x2="3.810" y2="3.610" stroke="#4a5160" stroke-width="0.080" stroke-linecap="round" opacity="0.7"/><line x1="3.810" y1="3.810" x2="4.010" y2="3.810" stroke="#4a5160" stroke-width="0.080" stroke-linecap="round" opacity="0.7"/><line x1="3.810" y1="4.010" x2="3.810" y2="3.810" stroke="#4a5160" stroke-width="0.080" stroke-linecap="round" opacity="0.7"/><line x1="-4.860" y1="-5.330" x2="4.860" y2="-5.330" stroke="#d24d4d" stroke-width="0.080" stroke-linecap="round" opacity="0.7"/><line x1="-4.860" y1="5.330" x2="-4.860" y2="-5.330" stroke="#d24d4d" stroke-width="0.080" stroke-linecap="round" opacity="0.7"/><line x1="-4.860" y1="5.330" x2="4.860" y2="5.330" stroke="#d24d4d" stroke-width="0.080" stroke-linecap="round" opacity="0.7"/><line x1="4.860" y1="5.330" x2="4.860" y2="-5.330" stroke="#d24d4d" stroke-width="0.080" stroke-linecap="round" opacity="0.7"/><line x1="-3.935" y1="-2.160" x2="-3.185" y2="-2.160" stroke="#6b7280" stroke-width="0.100" stroke-linecap="round" opacity="0.8"/><line x1="-3.935" y1="-0.380" x2="-3.935" y2="-2.160" stroke="#6b7280" stroke-width="0.100" stroke-linecap="round" opacity="0.8"/><line x1="-3.935" y1="-0.380" x2="-3.185" y2="-0.380" stroke="#6b7280" stroke-width="0.100" stroke-linecap="round" opacity="0.8"/><line x1="-3.935" y1="0.380" x2="-3.185" y2="0.380" stroke="#6b7280" stroke-width="0.100" stroke-linecap="round" opacity="0.8"/><line x1="-3.935" y1="2.160" x2="-3.935" y2="0.380" stroke="#6b7280" stroke-width="0.100" stroke-linecap="round" opacity="0.8"/><line x1="-3.935" y1="2.160" x2="-3.185" y2="2.160" stroke="#6b7280" stroke-width="0.100" stroke-linecap="round" opacity="0.8"/><line x1="-3.185" y1="-2.160" x2="-3.175" y2="-2.160" stroke="#6b7280" stroke-width="0.100" stroke-linecap="round" opacity="0.8"/><line x1="-3.185" y1="-0.380" x2="-3.175" y2="-0.380" stroke="#6b7280" stroke-width="0.100" stroke-linecap="round" opacity="0.8"/><line x1="-3.185" y1="0.380" x2="-3.175" y2="0.380" stroke="#6b7280" stroke-width="0.100" stroke-linecap="round" opacity="0.8"/><line x1="-3.185" y1="2.160" x2="-3.175" y2="2.160" stroke="#6b7280" stroke-width="0.100" stroke-linecap="round" opacity="0.8"/><line x1="-3.175" y1="-5.080" x2="-2.836" y2="-4.741" stroke="#6b7280" stroke-width="0.100" stroke-linecap="round" opacity="0.8"/><line x1="-3.175" y1="-5.080" x2="3.175" y2="-5.080" stroke="#6b7280" stroke-width="0.100" stroke-linecap="round" opacity="0.8"/><line x1="-3.175" y1="5.080" x2="-3.175" y2="-5.080" stroke="#6b7280" stroke-width="0.100" stroke-linecap="round" opacity="0.8"/><line x1="-3.175" y1="5.080" x2="-2.836" y2="4.741" stroke="#6b7280" stroke-width="0.100" stroke-linecap="round" opacity="0.8"/><line x1="-3.175" y1="5.080" x2="3.175" y2="5.080" stroke="#6b7280" stroke-width="0.100" stroke-linecap="round" opacity="0.8"/><line x1="-2.836" y1="-4.741" x2="-0.635" y2="-4.741" stroke="#6b7280" stroke-width="0.100" stroke-linecap="round" opacity="0.8"/><line x1="-2.836" y1="4.741" x2="-2.836" y2="-4.741" stroke="#6b7280" stroke-width="0.100" stroke-linecap="round" opacity="0.8"/><line x1="-2.836" y1="4.741" x2="2.836" y2="4.741" stroke="#6b7280" stroke-width="0.100" stroke-linecap="round" opacity="0.8"/><line x1="-0.635" y1="-4.850" x2="0.635" y2="-4.850" stroke="#6b7280" stroke-width="0.100" stroke-linecap="round" opacity="0.8"/><line x1="-0.635" y1="-4.741" x2="-0.635" y2="-4.850" stroke="#6b7280" stroke-width="0.100" stroke-linecap="round" opacity="0.8"/><line x1="-0.635" y1="-4.572" x2="-0.635" y2="-4.741" stroke="#6b7280" stroke-width="0.100" stroke-linecap="round" opacity="0.8"/><line x1="0.635" y1="-4.741" x2="0.635" y2="-4.850" stroke="#6b7280" stroke-width="0.100" stroke-linecap="round" opacity="0.8"/><line x1="0.635" y1="-4.741" x2="2.836" y2="-4.741" stroke="#6b7280" stroke-width="0.100" stroke-linecap="round" opacity="0.8"/><line x1="0.635" y1="-4.572" x2="0.635" y2="-4.741" stroke="#6b7280" stroke-width="0.100" stroke-linecap="round" opacity="0.8"/><line x1="2.836" y1="-4.741" x2="3.175" y2="-5.080" stroke="#6b7280" stroke-width="0.100" stroke-linecap="round" opacity="0.8"/><line x1="2.836" y1="4.741" x2="2.836" y2="-4.741" stroke="#6b7280" stroke-width="0.100" stroke-linecap="round" opacity="0.8"/><line x1="2.836" y1="4.741" x2="3.175" y2="5.080" stroke="#6b7280" stroke-width="0.100" stroke-linecap="round" opacity="0.8"/><line x1="3.175" y1="-4.090" x2="3.185" y2="-4.090" stroke="#6b7280" stroke-width="0.100" stroke-linecap="round" opacity="0.8"/><line x1="3.175" y1="-2.920" x2="3.185" y2="-2.920" stroke="#6b7280" stroke-width="0.100" stroke-linecap="round" opacity="0.8"/><line x1="3.175" y1="2.920" x2="3.185" y2="2.920" stroke="#6b7280" stroke-width="0.100" stroke-linecap="round" opacity="0.8"/><line x1="3.175" y1="4.090" x2="3.185" y2="4.090" stroke="#6b7280" stroke-width="0.100" stroke-linecap="round" opacity="0.8"/><line x1="3.175" y1="5.080" x2="3.175" y2="-5.080" stroke="#6b7280" stroke-width="0.100" stroke-linecap="round" opacity="0.8"/><line x1="3.185" y1="-4.090" x2="3.935" y2="-4.090" stroke="#6b7280" stroke-width="0.100" stroke-linecap="round" opacity="0.8"/><line x1="3.185" y1="-2.920" x2="3.935" y2="-2.920" stroke="#6b7280" stroke-width="0.100" stroke-linecap="round" opacity="0.8"/><line x1="3.185" y1="2.920" x2="3.935" y2="2.920" stroke="#6b7280" stroke-width="0.100" stroke-linecap="round" opacity="0.8"/><line x1="3.185" y1="4.090" x2="3.935" y2="4.090" stroke="#6b7280" stroke-width="0.100" stroke-linecap="round" opacity="0.8"/><line x1="3.935" y1="-2.920" x2="3.935" y2="-4.090" stroke="#6b7280" stroke-width="0.100" stroke-linecap="round" opacity="0.8"/><line x1="3.935" y1="4.090" x2="3.935" y2="2.920" stroke="#6b7280" stroke-width="0.100" stroke-linecap="round" opacity="0.8"/><path d="M 0.635 -4.572 A 0.635 0.635 0 1 1 -0.635 -4.572" fill="none" stroke="#6b7280" stroke-width="0.12" opacity="0.8"/><circle cx="-2.159" cy="-3.810" r="0.254" fill="none" stroke="#e6e9ef" stroke-width="0.12" opacity="1"/><circle cx="-3.810" cy="-1.270" r="0.800" fill="none" stroke="#4a5160" stroke-width="0.12" opacity="0.7"/><circle cx="-3.810" cy="-1.270" r="0.450" fill="none" stroke="#4a5160" stroke-width="0.12" opacity="0.7"/><circle cx="-3.810" cy="1.270" r="0.800" fill="none" stroke="#4a5160" stroke-width="0.12" opacity="0.7"/><circle cx="-3.810" cy="1.270" r="0.450" fill="none" stroke="#4a5160" stroke-width="0.12" opacity="0.7"/><circle cx="3.810" cy="-3.810" r="0.800" fill="none" stroke="#4a5160" stroke-width="0.12" opacity="0.7"/><circle cx="3.810" cy="-3.810" r="0.450" fill="none" stroke="#4a5160" stroke-width="0.12" opacity="0.7"/><circle cx="3.810" cy="3.810" r="0.800" fill="none" stroke="#4a5160" stroke-width="0.12" opacity="0.7"/><circle cx="3.810" cy="3.810" r="0.450" fill="none" stroke="#4a5160" stroke-width="0.12" opacity="0.7"/><circle cx="-2.159" cy="-3.810" r="0.254" fill="none" stroke="#6b7280" stroke-width="0.12" opacity="0.8"/><rect x="-4.610" y="-2.070" width="1.600" height="1.600" rx="0.800" fill="#c79b5c"/><circle cx="-3.810" cy="-1.270" r="0.450" fill="#12151c"/><rect x="-4.610" y="0.470" width="1.600" height="1.600" rx="0.800" fill="#c79b5c"/><circle cx="-3.810" cy="1.270" r="0.450" fill="#12151c"/><rect x="3.010" y="3.010" width="1.600" height="1.600" rx="0.800" fill="#c79b5c"/><circle cx="3.810" cy="3.810" r="0.450" fill="#12151c"/><rect x="3.010" y="-4.610" width="1.600" height="1.600" rx="0.800" fill="#c79b5c"/><circle cx="3.810" cy="-3.810" r="0.450" fill="#12151c"/></svg>