<svg xmlns="http://www.w3.org/2000/svg" viewBox="-2.42 -3.48 4.78 6.35" preserveAspectRatio="xMidYMid meet" style="width:100%;height:100%"><rect x="-2.42" y="-3.48" width="4.78" height="6.35" fill="#12151c"/><circle cx="-1.300" cy="-2.350" r="0.125" fill="none" stroke="#e6e9ef" stroke-width="0.12" opacity="1"/><circle cx="-0.000" cy="0.000" r="0.350" fill="none" stroke="#d24d4d" stroke-width="0.12" opacity="0.7"/><circle cx="-0.400" cy="-0.650" r="0.500" fill="none" stroke="#6b7280" stroke-width="0.12" opacity="0.8"/><rect x="-0.400" y="-1.875" width="0.300" height="0.850" rx="0.150" fill="#c79b5c"/><rect x="-1.350" y="-1.425" width="0.300" height="0.850" rx="0.150" fill="#c79b5c"/><rect x="-1.350" y="-0.925" width="0.300" height="0.850" rx="0.150" fill="#c79b5c"/><rect x="-1.350" y="-0.425" width="0.300" height="0.850" rx="0.150" fill="#c79b5c"/><rect x="-1.350" y="0.075" width="0.300" height="0.850" rx="0.150" fill="#c79b5c"/><rect x="-1.350" y="0.575" width="0.300" height="0.850" rx="0.150" fill="#c79b5c"/><rect x="-0.400" y="1.025" width="0.300" height="0.850" rx="0.150" fill="#c79b5c"/><rect x="0.100" y="1.025" width="0.300" height="0.850" rx="0.150" fill="#c79b5c"/><rect x="1.050" y="0.575" width="0.300" height="0.850" rx="0.150" fill="#c79b5c"/><rect x="1.050" y="0.075" width="0.300" height="0.850" rx="0.150" fill="#c79b5c"/><rect x="1.050" y="-0.425" width="0.300" height="0.850" rx="0.150" fill="#c79b5c"/><rect x="1.050" y="-0.925" width="0.300" height="0.850" rx="0.150" fill="#c79b5c"/><rect x="1.050" y="-1.425" width="0.300" height="0.850" rx="0.150" fill="#c79b5c"/><rect x="0.100" y="-1.875" width="0.300" height="0.850" rx="0.150" fill="#c79b5c"/><rect x="-0.825" y="-0.575" width="1.650" height="1.150" rx="0.000" fill="#c79b5c"/></svg>