<svg xmlns="http://www.w3.org/2000/svg" viewBox="-4.35 -4.35 8.70 8.70" preserveAspectRatio="xMidYMid meet" style="width:100%;height:100%"><rect x="-4.35" y="-4.35" width="8.70" height="8.70" fill="#12151c"/><line x1="-0.500" y1="0.000" x2="0.000" y2="0.000" stroke="#4a5160" stroke-width="0.080" stroke-linecap="round" opacity="0.7"/><line x1="0.000" y1="0.000" x2="0.000" y2="-0.500" stroke="#4a5160" stroke-width="0.080" stroke-linecap="round" opacity="0.7"/><line x1="0.000" y1="0.000" x2="0.500" y2="0.000" stroke="#4a5160" stroke-width="0.080" stroke-linecap="round" opacity="0.7"/><line x1="0.000" y1="0.500" x2="0.000" y2="0.000" stroke="#4a5160" stroke-width="0.080" stroke-linecap="round" opacity="0.7"/><line x1="-2.988" y1="-0.199" x2="-2.673" y2="-0.017" stroke="#6b7280" stroke-width="0.100" stroke-linecap="round" opacity="0.8"/><line x1="-2.988" y1="0.199" x2="-2.673" y2="0.017" stroke="#6b7280" stroke-width="0.100" stroke-linecap="round" opacity="0.8"/><line x1="-2.673" y1="-0.017" x2="-1.830" y2="-0.034" stroke="#6b7280" stroke-width="0.100" stroke-linecap="round" opacity="0.8"/><line x1="-2.673" y1="0.017" x2="-1.830" y2="0.034" stroke="#6b7280" stroke-width="0.100" stroke-linecap="round" opacity="0.8"/><line x1="-1.667" y1="-2.488" x2="-1.351" y2="-2.306" stroke="#6b7280" stroke-width="0.100" stroke-linecap="round" opacity="0.8"/><line x1="-1.667" y1="2.488" x2="-1.351" y2="2.306" stroke="#6b7280" stroke-width="0.100" stroke-linecap="round" opacity="0.8"/><line x1="-1.351" y1="-2.306" x2="-0.944" y2="-1.568" stroke="#6b7280" stroke-width="0.100" stroke-linecap="round" opacity="0.8"/><line x1="-1.351" y1="2.306" x2="-0.944" y2="1.568" stroke="#6b7280" stroke-width="0.100" stroke-linecap="round" opacity="0.8"/><line x1="-1.322" y1="-2.688" x2="-1.322" y2="-2.323" stroke="#6b7280" stroke-width="0.100" stroke-linecap="round" opacity="0.8"/><line x1="-1.322" y1="2.688" x2="-1.322" y2="2.323" stroke="#6b7280" stroke-width="0.100" stroke-linecap="round" opacity="0.8"/><line x1="-1.322" y1="-2.323" x2="-0.885" y2="-1.602" stroke="#6b7280" stroke-width="0.100" stroke-linecap="round" opacity="0.8"/><line x1="-1.322" y1="2.323" x2="-0.885" y2="1.602" stroke="#6b7280" stroke-width="0.100" stroke-linecap="round" opacity="0.8"/><line x1="0.885" y1="-1.602" x2="1.322" y2="-2.323" stroke="#6b7280" stroke-width="0.100" stroke-linecap="round" opacity="0.8"/><line x1="0.885" y1="1.602" x2="1.322" y2="2.323" stroke="#6b7280" stroke-width="0.100" stroke-linecap="round" opacity="0.8"/><line x1="0.944" y1="-1.568" x2="1.351" y2="-2.306" stroke="#6b7280" stroke-width="0.100" stroke-linecap="round" opacity="0.8"/><line x1="0.944" y1="1.568" x2="1.351" y2="2.306" stroke="#6b7280" stroke-width="0.100" stroke-linecap="round" opacity="0.8"/><line x1="1.322" y1="-2.323" x2="1.322" y2="-2.688" stroke="#6b7280" stroke-width="0.100" stroke-linecap="round" opacity="0.8"/><line x1="1.322" y1="2.323" x2="1.322" y2="2.688" stroke="#6b7280" stroke-width="0.100" stroke-linecap="round" opacity="0.8"/><line x1="1.351" y1="-2.306" x2="1.667" y2="-2.488" stroke="#6b7280" stroke-width="0.100" stroke-linecap="round" opacity="0.8"/><line x1="1.351" y1="2.306" x2="1.667" y2="2.488" stroke="#6b7280" stroke-width="0.100" stroke-linecap="round" opacity="0.8"/><line x1="1.830" y1="-0.034" x2="2.673" y2="-0.017" stroke="#6b7280" stroke-width="0.100" stroke-linecap="round" opacity="0.8"/><line x1="1.830" y1="0.034" x2="2.673" y2="0.017" stroke="#6b7280" stroke-width="0.100" stroke-linecap="round" opacity="0.8"/><line x1="2.673" y1="-0.017" x2="2.988" y2="-0.199" stroke="#6b7280" stroke-width="0.100" stroke-linecap="round" opacity="0.8"/><line x1="2.673" y1="0.017" x2="2.988" y2="0.199" stroke="#6b7280" stroke-width="0.100" stroke-linecap="round" opacity="0.8"/><line x1="-3.350" y1="-3.350" x2="3.350" y2="-3.350" stroke="#d24d4d" stroke-width="0.080" stroke-linecap="round" opacity="0.7"/><line x1="3.350" y1="-3.350" x2="3.350" y2="3.350" stroke="#d24d4d" stroke-width="0.080" stroke-linecap="round" opacity="0.7"/><line x1="3.350" y1="3.350" x2="-3.350" y2="3.350" stroke="#d24d4d" stroke-width="0.080" stroke-linecap="round" opacity="0.7"/><line x1="-3.350" y1="3.350" x2="-3.350" y2="-3.350" stroke="#d24d4d" stroke-width="0.080" stroke-linecap="round" opacity="0.7"/><path d="M -2.673 -0.017 A 2.998 2.998 0 0 1 -1.351 -2.306" fill="none" stroke="#6b7280" stroke-width="0.12" opacity="0.8"/><path d="M -1.830 -0.034 A 2.127 2.127 0 0 1 -0.944 -1.568" fill="none" stroke="#6b7280" stroke-width="0.12" opacity="0.8"/><path d="M -1.351 2.306 A 2.998 2.998 0 0 1 -2.673 0.017" fill="none" stroke="#6b7280" stroke-width="0.12" opacity="0.8"/><path d="M -1.322 -2.323 A 2.998 2.998 0 0 1 1.322 -2.323" fill="none" stroke="#6b7280" stroke-width="0.12" opacity="0.8"/><path d="M -0.944 1.568 A 2.127 2.127 0 0 1 -1.830 0.034" fill="none" stroke="#6b7280" stroke-width="0.12" opacity="0.8"/><path d="M -0.885 -1.602 A 2.127 2.127 0 0 1 0.885 -1.602" fill="none" stroke="#6b7280" stroke-width="0.12" opacity="0.8"/><path d="M 0.885 1.602 A 2.127 2.127 0 0 1 -0.885 1.602" fill="none" stroke="#6b7280" stroke-width="0.12" opacity="0.8"/><path d="M 0.944 -1.568 A 2.127 2.127 0 0 1 1.830 -0.034" fill="none" stroke="#6b7280" stroke-width="0.12" opacity="0.8"/><path d="M 1.322 2.323 A 2.998 2.998 0 0 1 -1.322 2.323" fill="none" stroke="#6b7280" stroke-width="0.12" opacity="0.8"/><path d="M 1.351 -2.306 A 2.998 2.998 0 0 1 2.673 -0.017" fill="none" stroke="#6b7280" stroke-width="0.12" opacity="0.8"/><path d="M 1.830 0.034 A 2.127 2.127 0 0 1 0.944 1.568" fill="none" stroke="#6b7280" stroke-width="0.12" opacity="0.8"/><path d="M 2.673 0.017 A 2.998 2.998 0 0 1 1.351 2.306" fill="none" stroke="#6b7280" stroke-width="0.12" opacity="0.8"/><circle cx="0.000" cy="0.000" r="3.100" fill="none" stroke="#4a5160" stroke-width="0.12" opacity="0.7"/><circle cx="0.000" cy="0.000" r="1.600" fill="none" stroke="#4a5160" stroke-width="0.12" opacity="0.7"/><circle cx="0.000" cy="0.000" r="2.995" fill="none" stroke="#6b7280" stroke-width="0.12" opacity="0.8"/><rect x="-3.100" y="-3.100" width="6.200" height="6.200" rx="3.100" fill="#c79b5c"/><circle cx="0.000" cy="0.000" r="1.600" fill="#12151c"/><polygon points="-0.45,4.15 0.45,4.15 0.00,3.55" fill="#ffffff"/></svg>