<svg xmlns="http://www.w3.org/2000/svg" viewBox="-60.78 -10.78 121.56 21.56" preserveAspectRatio="xMidYMid meet" style="width:100%;height:100%"><rect x="-60.78" y="-10.78" width="121.56" height="21.56" fill="#12151c"/><line x1="7.000" y1="-7.000" x2="7.000" y2="-5.000" stroke="#6b7280" stroke-width="0.150" stroke-linecap="round" opacity="0.8"/><line x1="5.000" y1="-7.000" x2="7.000" y2="-7.000" stroke="#6b7280" stroke-width="0.150" stroke-linecap="round" opacity="0.8"/><line x1="-7.000" y1="7.000" x2="-5.000" y2="7.000" stroke="#6b7280" stroke-width="0.150" stroke-linecap="round" opacity="0.8"/><line x1="-7.000" y1="5.000" x2="-7.000" y2="7.000" stroke="#6b7280" stroke-width="0.150" stroke-linecap="round" opacity="0.8"/><line x1="-5.000" y1="-7.000" x2="-7.000" y2="-7.000" stroke="#6b7280" stroke-width="0.150" stroke-linecap="round" opacity="0.8"/><line x1="7.000" y1="7.000" x2="7.000" y2="5.000" stroke="#6b7280" stroke-width="0.150" stroke-linecap="round" opacity="0.8"/><line x1="-7.000" y1="-7.000" x2="-7.000" y2="-5.000" stroke="#6b7280" stroke-width="0.150" stroke-linecap="round" opacity="0.8"/><line x1="5.000" y1="7.000" x2="7.000" y2="7.000" stroke="#6b7280" stroke-width="0.150" stroke-linecap="round" opacity="0.8"/><line x1="59.531" y1="9.525" x2="-59.531" y2="9.525" stroke="#6b7280" stroke-width="0.150" stroke-linecap="round" opacity="0.8"/><line x1="59.531" y1="-9.525" x2="-59.531" y2="-9.525" stroke="#6b7280" stroke-width="0.150" stroke-linecap="round" opacity="0.8"/><line x1="59.531" y1="9.525" x2="59.531" y2="-9.525" stroke="#6b7280" stroke-width="0.150" stroke-linecap="round" opacity="0.8"/><line x1="-59.531" y1="9.525" x2="-59.531" y2="-9.525" stroke="#6b7280" stroke-width="0.150" stroke-linecap="round" opacity="0.8"/><line x1="-59.780" y1="-9.780" x2="59.780" y2="-9.780" stroke="#d24d4d" stroke-width="0.080" stroke-linecap="round" opacity="0.7"/><line x1="59.780" y1="-9.780" x2="59.780" y2="9.780" stroke="#d24d4d" stroke-width="0.080" stroke-linecap="round" opacity="0.7"/><line x1="59.780" y1="9.780" x2="-59.780" y2="9.780" stroke="#d24d4d" stroke-width="0.080" stroke-linecap="round" opacity="0.7"/><line x1="-59.780" y1="9.780" x2="-59.780" y2="-9.780" stroke="#d24d4d" stroke-width="0.080" stroke-linecap="round" opacity="0.7"/><circle cx="-2.500" cy="-5.750" r="0.200" fill="none" stroke="#e6e9ef" stroke-width="0.12" opacity="1"/><rect x="-3.650" y="-5.150" width="2.300" height="2.300" rx="1.150" fill="#c79b5c"/><circle cx="-2.500" cy="-4.000" r="0.762" fill="#12151c"/><rect x="1.350" y="-5.650" width="2.300" height="2.300" rx="1.150" fill="#c79b5c"/><circle cx="2.500" cy="-4.500" r="0.762" fill="#12151c"/></svg>