<svg xmlns="http://www.w3.org/2000/svg" viewBox="-7.08 -6.65 13.73 13.30" preserveAspectRatio="xMidYMid meet" style="width:100%;height:100%"><rect x="-7.08" y="-6.65" width="13.73" height="13.30" fill="#12151c"/><line x1="-5.000" y1="-4.600" x2="-4.600" y2="-5.000" stroke="#e6e9ef" stroke-width="0.200" stroke-linecap="round" opacity="1"/><line x1="-5.000" y1="-4.500" x2="-5.000" y2="-4.600" stroke="#e6e9ef" stroke-width="0.200" stroke-linecap="round" opacity="1"/><line x1="-5.000" y1="5.000" x2="-5.000" y2="4.500" stroke="#e6e9ef" stroke-width="0.200" stroke-linecap="round" opacity="1"/><line x1="-5.000" y1="5.000" x2="-4.500" y2="5.000" stroke="#e6e9ef" stroke-width="0.200" stroke-linecap="round" opacity="1"/><line x1="-4.600" y1="-5.000" x2="-4.500" y2="-5.000" stroke="#e6e9ef" stroke-width="0.200" stroke-linecap="round" opacity="1"/><line x1="4.500" y1="-5.000" x2="5.000" y2="-5.000" stroke="#e6e9ef" stroke-width="0.200" stroke-linecap="round" opacity="1"/><line x1="4.500" y1="5.000" x2="5.000" y2="5.000" stroke="#e6e9ef" stroke-width="0.200" stroke-linecap="round" opacity="1"/><line x1="5.000" y1="-4.500" x2="5.000" y2="-5.000" stroke="#e6e9ef" stroke-width="0.200" stroke-linecap="round" opacity="1"/><line x1="5.000" y1="5.000" x2="5.000" y2="4.500" stroke="#e6e9ef" stroke-width="0.200" stroke-linecap="round" opacity="1"/><line x1="-5.650" y1="-5.650" x2="5.650" y2="-5.650" stroke="#d24d4d" stroke-width="0.080" stroke-linecap="round" opacity="0.7"/><line x1="-5.650" y1="5.650" x2="-5.650" y2="-5.650" stroke="#d24d4d" stroke-width="0.080" stroke-linecap="round" opacity="0.7"/><line x1="-5.650" y1="5.650" x2="5.650" y2="5.650" stroke="#d24d4d" stroke-width="0.080" stroke-linecap="round" opacity="0.7"/><line x1="5.650" y1="5.650" x2="5.650" y2="-5.650" stroke="#d24d4d" stroke-width="0.080" stroke-linecap="round" opacity="0.7"/><line x1="-5.000" y1="-5.000" x2="5.000" y2="-5.000" stroke="#6b7280" stroke-width="0.100" stroke-linecap="round" opacity="0.8"/><line x1="-5.000" y1="5.000" x2="-5.000" y2="-5.000" stroke="#6b7280" stroke-width="0.100" stroke-linecap="round" opacity="0.8"/><line x1="-5.000" y1="5.000" x2="5.000" y2="5.000" stroke="#6b7280" stroke-width="0.100" stroke-linecap="round" opacity="0.8"/><line x1="5.000" y1="5.000" x2="5.000" y2="-5.000" stroke="#6b7280" stroke-width="0.100" stroke-linecap="round" opacity="0.8"/><circle cx="-5.950" cy="-4.000" r="0.150" fill="#e6e9ef" opacity="1"/><circle cx="-4.000" cy="-4.000" r="0.500" fill="none" stroke="#6b7280" stroke-width="0.12" opacity="0.8"/><rect x="-5.375" y="-4.150" width="1.050" height="0.300" rx="0.150" fill="#c79b5c"/><rect x="-5.375" y="-3.650" width="1.050" height="0.300" rx="0.150" fill="#c79b5c"/><rect x="-5.375" y="-3.150" width="1.050" height="0.300" rx="0.150" fill="#c79b5c"/><rect x="-5.375" y="-2.650" width="1.050" height="0.300" rx="0.150" fill="#c79b5c"/><rect x="-5.375" y="-2.150" width="1.050" height="0.300" rx="0.150" fill="#c79b5c"/><rect x="-5.375" y="-1.650" width="1.050" height="0.300" rx="0.150" fill="#c79b5c"/><rect x="-5.375" y="-1.150" width="1.050" height="0.300" rx="0.150" fill="#c79b5c"/><rect x="-5.375" y="-0.650" width="1.050" height="0.300" rx="0.150" fill="#c79b5c"/><rect x="-5.375" y="-0.150" width="1.050" height="0.300" rx="0.150" fill="#c79b5c"/><rect x="-5.375" y="0.350" width="1.050" height="0.300" rx="0.150" fill="#c79b5c"/><rect x="-5.375" y="0.850" width="1.050" height="0.300" rx="0.150" fill="#c79b5c"/><rect x="-5.375" y="1.350" width="1.050" height="0.300" rx="0.150" fill="#c79b5c"/><rect x="-5.375" y="1.850" width="1.050" height="0.300" rx="0.150" fill="#c79b5c"/><rect x="-5.375" y="2.350" width="1.050" height="0.300" rx="0.150" fill="#c79b5c"/><rect x="-5.375" y="2.850" width="1.050" height="0.300" rx="0.150" fill="#c79b5c"/><rect x="-5.375" y="3.350" width="1.050" height="0.300" rx="0.150" fill="#c79b5c"/><rect x="-5.375" y="3.850" width="1.050" height="0.300" rx="0.150" fill="#c79b5c"/><rect x="-4.525" y="4.700" width="1.050" height="0.300" rx="0.150" fill="#c79b5c"/><rect x="-4.025" y="4.700" width="1.050" height="0.300" rx="0.150" fill="#c79b5c"/><rect x="-3.525" y="4.700" width="1.050" height="0.300" rx="0.150" fill="#c79b5c"/><rect x="-3.025" y="4.700" width="1.050" height="0.300" rx="0.150" fill="#c79b5c"/><rect x="-2.525" y="4.700" width="1.050" height="0.300" rx="0.150" fill="#c79b5c"/><rect x="-2.025" y="4.700" width="1.050" height="0.300" rx="0.150" fill="#c79b5c"/><rect x="-1.525" y="4.700" width="1.050" height="0.300" rx="0.150" fill="#c79b5c"/><rect x="-1.025" y="4.700" width="1.050" height="0.300" rx="0.150" fill="#c79b5c"/><rect x="-0.525" y="4.700" width="1.050" height="0.300" rx="0.150" fill="#c79b5c"/><rect x="-0.025" y="4.700" width="1.050" height="0.300" rx="0.150" fill="#c79b5c"/><rect x="0.475" y="4.700" width="1.050" height="0.300" rx="0.150" fill="#c79b5c"/><rect x="0.975" y="4.700" width="1.050" height="0.300" rx="0.150" fill="#c79b5c"/><rect x="1.475" y="4.700" width="1.050" height="0.300" rx="0.150" fill="#c79b5c"/><rect x="1.975" y="4.700" width="1.050" height="0.300" rx="0.150" fill="#c79b5c"/><rect x="2.475" y="4.700" width="1.050" height="0.300" rx="0.150" fill="#c79b5c"/><rect x="2.975" y="4.700" width="1.050" height="0.300" rx="0.150" fill="#c79b5c"/><rect x="3.475" y="4.700" width="1.050" height="0.300" rx="0.150" fill="#c79b5c"/><rect x="4.325" y="3.850" width="1.050" height="0.300" rx="0.150" fill="#c79b5c"/><rect x="4.325" y="3.350" width="1.050" height="0.300" rx="0.150" fill="#c79b5c"/><rect x="4.325" y="2.850" width="1.050" height="0.300" rx="0.150" fill="#c79b5c"/><rect x="4.325" y="2.350" width="1.050" height="0.300" rx="0.150" fill="#c79b5c"/><rect x="4.325" y="1.850" width="1.050" height="0.300" rx="0.150" fill="#c79b5c"/><rect x="4.325" y="1.350" width="1.050" height="0.300" rx="0.150" fill="#c79b5c"/><rect x="4.325" y="0.850" width="1.050" height="0.300" rx="0.150" fill="#c79b5c"/><rect x="4.325" y="0.350" width="1.050" height="0.300" rx="0.150" fill="#c79b5c"/><rect x="4.325" y="-0.150" width="1.050" height="0.300" rx="0.150" fill="#c79b5c"/><rect x="4.325" y="-0.650" width="1.050" height="0.300" rx="0.150" fill="#c79b5c"/><rect x="4.325" y="-1.150" width="1.050" height="0.300" rx="0.150" fill="#c79b5c"/><rect x="4.325" y="-1.650" width="1.050" height="0.300" rx="0.150" fill="#c79b5c"/><rect x="4.325" y="-2.150" width="1.050" height="0.300" rx="0.150" fill="#c79b5c"/><rect x="4.325" y="-2.650" width="1.050" height="0.300" rx="0.150" fill="#c79b5c"/><rect x="4.325" y="-3.150" width="1.050" height="0.300" rx="0.150" fill="#c79b5c"/><rect x="4.325" y="-3.650" width="1.050" height="0.300" rx="0.150" fill="#c79b5c"/><rect x="4.325" y="-4.150" width="1.050" height="0.300" rx="0.150" fill="#c79b5c"/><rect x="3.475" y="-5.000" width="1.050" height="0.300" rx="0.150" fill="#c79b5c"/><rect x="2.975" y="-5.000" width="1.050" height="0.300" rx="0.150" fill="#c79b5c"/><rect x="2.475" y="-5.000" width="1.050" height="0.300" rx="0.150" fill="#c79b5c"/><rect x="1.975" y="-5.000" width="1.050" height="0.300" rx="0.150" fill="#c79b5c"/><rect x="1.475" y="-5.000" width="1.050" height="0.300" rx="0.150" fill="#c79b5c"/><rect x="0.975" y="-5.000" width="1.050" height="0.300" rx="0.150" fill="#c79b5c"/><rect x="0.475" y="-5.000" width="1.050" height="0.300" rx="0.150" fill="#c79b5c"/><rect x="-0.025" y="-5.000" width="1.050" height="0.300" rx="0.150" fill="#c79b5c"/><rect x="-0.525" y="-5.000" width="1.050" height="0.300" rx="0.150" fill="#c79b5c"/><rect x="-1.025" y="-5.000" width="1.050" height="0.300" rx="0.150" fill="#c79b5c"/><rect x="-1.525" y="-5.000" width="1.050" height="0.300" rx="0.150" fill="#c79b5c"/><rect x="-2.025" y="-5.000" width="1.050" height="0.300" rx="0.150" fill="#c79b5c"/><rect x="-2.525" y="-5.000" width="1.050" height="0.300" rx="0.150" fill="#c79b5c"/><rect x="-3.025" y="-5.000" width="1.050" height="0.300" rx="0.150" fill="#c79b5c"/><rect x="-3.525" y="-5.000" width="1.050" height="0.300" rx="0.150" fill="#c79b5c"/><rect x="-4.025" y="-5.000" width="1.050" height="0.300" rx="0.150" fill="#c79b5c"/><rect x="-4.525" y="-5.000" width="1.050" height="0.300" rx="0.150" fill="#c79b5c"/><rect x="-3.925" y="-3.925" width="7.850" height="7.850" rx="0.000" fill="#c79b5c"/></svg>