<svg xmlns="http://www.w3.org/2000/svg" viewBox="-6.22 -6.83 10.62 12.82" preserveAspectRatio="xMidYMid meet" style="width:100%;height:100%"><rect x="-6.22" y="-6.83" width="10.62" height="12.82" fill="#12151c"/><circle cx="-5.100" cy="-5.700" r="0.125" fill="none" stroke="#e6e9ef" stroke-width="0.12" opacity="1"/><rect x="-3.400" y="-5.000" width="0.400" height="0.400" rx="0.200" fill="#c79b5c"/><rect x="-2.600" y="-5.000" width="0.400" height="0.400" rx="0.200" fill="#c79b5c"/><rect x="-1.800" y="-5.000" width="0.400" height="0.400" rx="0.200" fill="#c79b5c"/><rect x="1.400" y="-5.000" width="0.400" height="0.400" rx="0.200" fill="#c79b5c"/><rect x="2.200" y="-5.000" width="0.400" height="0.400" rx="0.200" fill="#c79b5c"/><rect x="3.000" y="-5.000" width="0.400" height="0.400" rx="0.200" fill="#c79b5c"/><rect x="-3.400" y="-4.200" width="0.400" height="0.400" rx="0.200" fill="#c79b5c"/><rect x="-2.600" y="-4.200" width="0.400" height="0.400" rx="0.200" fill="#c79b5c"/><rect x="-1.800" y="-4.200" width="0.400" height="0.400" rx="0.200" fill="#c79b5c"/><rect x="1.400" y="-4.200" width="0.400" height="0.400" rx="0.200" fill="#c79b5c"/><rect x="2.200" y="-4.200" width="0.400" height="0.400" rx="0.200" fill="#c79b5c"/><rect x="3.000" y="-4.200" width="0.400" height="0.400" rx="0.200" fill="#c79b5c"/><rect x="-3.400" y="-3.400" width="0.400" height="0.400" rx="0.200" fill="#c79b5c"/><rect x="-2.600" y="-3.400" width="0.400" height="0.400" rx="0.200" fill="#c79b5c"/><rect x="-1.800" y="-3.400" width="0.400" height="0.400" rx="0.200" fill="#c79b5c"/><rect x="1.400" y="-3.400" width="0.400" height="0.400" rx="0.200" fill="#c79b5c"/><rect x="2.200" y="-3.400" width="0.400" height="0.400" rx="0.200" fill="#c79b5c"/><rect x="3.000" y="-3.400" width="0.400" height="0.400" rx="0.200" fill="#c79b5c"/><rect x="-3.400" y="-2.600" width="0.400" height="0.400" rx="0.200" fill="#c79b5c"/><rect x="-2.600" y="-2.600" width="0.400" height="0.400" rx="0.200" fill="#c79b5c"/><rect x="-1.800" y="-2.600" width="0.400" height="0.400" rx="0.200" fill="#c79b5c"/><rect x="1.400" y="-2.600" width="0.400" height="0.400" rx="0.200" fill="#c79b5c"/><rect x="2.200" y="-2.600" width="0.400" height="0.400" rx="0.200" fill="#c79b5c"/><rect x="3.000" y="-2.600" width="0.400" height="0.400" rx="0.200" fill="#c79b5c"/><rect x="-3.400" y="-1.800" width="0.400" height="0.400" rx="0.200" fill="#c79b5c"/><rect x="-2.600" y="-1.800" width="0.400" height="0.400" rx="0.200" fill="#c79b5c"/><rect x="-1.800" y="-1.800" width="0.400" height="0.400" rx="0.200" fill="#c79b5c"/><rect x="1.400" y="-1.800" width="0.400" height="0.400" rx="0.200" fill="#c79b5c"/><rect x="2.200" y="-1.800" width="0.400" height="0.400" rx="0.200" fill="#c79b5c"/><rect x="3.000" y="-1.800" width="0.400" height="0.400" rx="0.200" fill="#c79b5c"/><rect x="-3.400" y="-1.000" width="0.400" height="0.400" rx="0.200" fill="#c79b5c"/><rect x="-2.600" y="-1.000" width="0.400" height="0.400" rx="0.200" fill="#c79b5c"/><rect x="-1.800" y="-1.000" width="0.400" height="0.400" rx="0.200" fill="#c79b5c"/><rect x="1.400" y="-1.000" width="0.400" height="0.400" rx="0.200" fill="#c79b5c"/><rect x="2.200" y="-1.000" width="0.400" height="0.400" rx="0.200" fill="#c79b5c"/><rect x="3.000" y="-1.000" width="0.400" height="0.400" rx="0.200" fill="#c79b5c"/><rect x="-3.400" y="-0.200" width="0.400" height="0.400" rx="0.200" fill="#c79b5c"/><rect x="-2.600" y="-0.200" width="0.400" height="0.400" rx="0.200" fill="#c79b5c"/><rect x="-1.800" y="-0.200" width="0.400" height="0.400" rx="0.200" fill="#c79b5c"/><rect x="1.400" y="-0.200" width="0.400" height="0.400" rx="0.200" fill="#c79b5c"/><rect x="2.200" y="-0.200" width="0.400" height="0.400" rx="0.200" fill="#c79b5c"/><rect x="3.000" y="-0.200" width="0.400" height="0.400" rx="0.200" fill="#c79b5c"/><rect x="-3.400" y="0.600" width="0.400" height="0.400" rx="0.200" fill="#c79b5c"/><rect x="-2.600" y="0.600" width="0.400" height="0.400" rx="0.200" fill="#c79b5c"/><rect x="-1.800" y="0.600" width="0.400" height="0.400" rx="0.200" fill="#c79b5c"/><rect x="1.400" y="0.600" width="0.400" height="0.400" rx="0.200" fill="#c79b5c"/><rect x="2.200" y="0.600" width="0.400" height="0.400" rx="0.200" fill="#c79b5c"/><rect x="3.000" y="0.600" width="0.400" height="0.400" rx="0.200" fill="#c79b5c"/><rect x="-3.400" y="1.400" width="0.400" height="0.400" rx="0.200" fill="#c79b5c"/><rect x="-2.600" y="1.400" width="0.400" height="0.400" rx="0.200" fill="#c79b5c"/><rect x="-1.800" y="1.400" width="0.400" height="0.400" rx="0.200" fill="#c79b5c"/><rect x="1.400" y="1.400" width="0.400" height="0.400" rx="0.200" fill="#c79b5c"/><rect x="2.200" y="1.400" width="0.400" height="0.400" rx="0.200" fill="#c79b5c"/><rect x="3.000" y="1.400" width="0.400" height="0.400" rx="0.200" fill="#c79b5c"/><rect x="-3.400" y="2.200" width="0.400" height="0.400" rx="0.200" fill="#c79b5c"/><rect x="-2.600" y="2.200" width="0.400" height="0.400" rx="0.200" fill="#c79b5c"/><rect x="-1.800" y="2.200" width="0.400" height="0.400" rx="0.200" fill="#c79b5c"/><rect x="1.400" y="2.200" width="0.400" height="0.400" rx="0.200" fill="#c79b5c"/><rect x="2.200" y="2.200" width="0.400" height="0.400" rx="0.200" fill="#c79b5c"/><rect x="3.000" y="2.200" width="0.400" height="0.400" rx="0.200" fill="#c79b5c"/><rect x="-3.400" y="3.000" width="0.400" height="0.400" rx="0.200" fill="#c79b5c"/><rect x="-2.600" y="3.000" width="0.400" height="0.400" rx="0.200" fill="#c79b5c"/><rect x="-1.800" y="3.000" width="0.400" height="0.400" rx="0.200" fill="#c79b5c"/><rect x="1.400" y="3.000" width="0.400" height="0.400" rx="0.200" fill="#c79b5c"/><rect x="2.200" y="3.000" width="0.400" height="0.400" rx="0.200" fill="#c79b5c"/><rect x="3.000" y="3.000" width="0.400" height="0.400" rx="0.200" fill="#c79b5c"/><rect x="-3.400" y="3.800" width="0.400" height="0.400" rx="0.200" fill="#c79b5c"/><rect x="-2.600" y="3.800" width="0.400" height="0.400" rx="0.200" fill="#c79b5c"/><rect x="-1.800" y="3.800" width="0.400" height="0.400" rx="0.200" fill="#c79b5c"/><rect x="1.400" y="3.800" width="0.400" height="0.400" rx="0.200" fill="#c79b5c"/><rect x="2.200" y="3.800" width="0.400" height="0.400" rx="0.200" fill="#c79b5c"/><rect x="3.000" y="3.800" width="0.400" height="0.400" rx="0.200" fill="#c79b5c"/><rect x="-3.400" y="4.600" width="0.400" height="0.400" rx="0.200" fill="#c79b5c"/><rect x="-2.600" y="4.600" width="0.400" height="0.400" rx="0.200" fill="#c79b5c"/><rect x="-1.800" y="4.600" width="0.400" height="0.400" rx="0.200" fill="#c79b5c"/><rect x="1.400" y="4.600" width="0.400" height="0.400" rx="0.200" fill="#c79b5c"/><rect x="2.200" y="4.600" width="0.400" height="0.400" rx="0.200" fill="#c79b5c"/><rect x="3.000" y="4.600" width="0.400" height="0.400" rx="0.200" fill="#c79b5c"/></svg>