<svg xmlns="http://www.w3.org/2000/svg" viewBox="-1.50 -6.58 15.70 18.24" preserveAspectRatio="xMidYMid meet" style="width:100%;height:100%"><rect x="-1.50" y="-6.58" width="15.70" height="18.24" fill="#12151c"/><rect x="2.540" y="-5.080" width="7.620" height="15.240" fill="#1e222b" stroke="#4ea1ff" stroke-width="0.25"/><polyline points="2.540,-0.000 4.445,-0.000" fill="none" stroke="#4ea1ff" stroke-width="0.25" stroke-linejoin="round"/><polyline points="2.540,5.080 4.445,5.080" fill="none" stroke="#4ea1ff" stroke-width="0.25" stroke-linejoin="round"/><polyline points="4.445,1.905 4.445,-1.905" fill="none" stroke="#4ea1ff" stroke-width="0.25" stroke-linejoin="round"/><polyline points="4.445,6.985 4.445,3.175" fill="none" stroke="#4ea1ff" stroke-width="0.25" stroke-linejoin="round"/><polyline points="5.080,-1.905 5.080,-0.889" fill="none" stroke="#4ea1ff" stroke-width="0.25" stroke-linejoin="round"/><polyline points="5.080,-0.000 5.080,-0.508" fill="none" stroke="#4ea1ff" stroke-width="0.25" stroke-linejoin="round"/><polyline points="5.080,-0.000 5.080,0.508" fill="none" stroke="#4ea1ff" stroke-width="0.25" stroke-linejoin="round"/><polyline points="5.080,1.397 5.080,0.889" fill="none" stroke="#4ea1ff" stroke-width="0.25" stroke-linejoin="round"/><polyline points="5.080,1.397 5.080,1.905" fill="none" stroke="#4ea1ff" stroke-width="0.25" stroke-linejoin="round"/><polyline points="5.080,3.175 5.080,4.191" fill="none" stroke="#4ea1ff" stroke-width="0.25" stroke-linejoin="round"/><polyline points="5.080,5.080 5.080,4.572" fill="none" stroke="#4ea1ff" stroke-width="0.25" stroke-linejoin="round"/><polyline points="5.080,5.080 5.080,5.588" fill="none" stroke="#4ea1ff" stroke-width="0.25" stroke-linejoin="round"/><polyline points="5.080,6.477 5.080,5.969" fill="none" stroke="#4ea1ff" stroke-width="0.25" stroke-linejoin="round"/><polyline points="5.080,6.477 5.080,6.985" fill="none" stroke="#4ea1ff" stroke-width="0.25" stroke-linejoin="round"/><polyline points="5.715,-0.000 6.477,-0.508 6.477,0.508 5.715,-0.000" fill="#1e222b" stroke="#4ea1ff" stroke-width="0.25" stroke-linejoin="round"/><polyline points="5.715,5.080 6.477,4.572 6.477,5.588 5.715,5.080" fill="#1e222b" stroke="#4ea1ff" stroke-width="0.25" stroke-linejoin="round"/><polyline points="7.620,-2.540 7.620,-1.397 5.080,-1.397" fill="none" stroke="#4ea1ff" stroke-width="0.25" stroke-linejoin="round"/><polyline points="7.620,0.889 8.763,0.889 8.763,-1.270 8.763,-1.905 7.620,-1.905" fill="none" stroke="#4ea1ff" stroke-width="0.25" stroke-linejoin="round"/><polyline points="7.620,1.397 5.080,1.397" fill="none" stroke="#4ea1ff" stroke-width="0.25" stroke-linejoin="round"/><polyline points="7.620,2.540 7.620,2.540" fill="none" stroke="#4ea1ff" stroke-width="0.25" stroke-linejoin="round"/><polyline points="7.620,2.540 7.620,-0.000 5.080,-0.000" fill="none" stroke="#4ea1ff" stroke-width="0.25" stroke-linejoin="round"/><polyline points="7.620,2.540 7.620,3.683 5.080,3.683" fill="none" stroke="#4ea1ff" stroke-width="0.25" stroke-linejoin="round"/><polyline points="7.620,5.842 8.763,5.842 8.763,3.683 8.763,3.302 7.620,3.302" fill="none" stroke="#4ea1ff" stroke-width="0.25" stroke-linejoin="round"/><polyline points="7.620,6.477 5.080,6.477" fill="none" stroke="#4ea1ff" stroke-width="0.25" stroke-linejoin="round"/><polyline points="7.620,7.620 7.620,5.080 5.080,5.080" fill="none" stroke="#4ea1ff" stroke-width="0.25" stroke-linejoin="round"/><polyline points="8.763,-0.889 9.271,-0.127 8.255,-0.127 8.763,-0.889" fill="#1e222b" stroke="#4ea1ff" stroke-width="0.25" stroke-linejoin="round"/><polyline points="8.763,4.191 9.271,4.953 8.255,4.953 8.763,4.191" fill="#1e222b" stroke="#4ea1ff" stroke-width="0.25" stroke-linejoin="round"/><polyline points="9.271,-0.838 8.255,-0.838" fill="none" stroke="#4ea1ff" stroke-width="0.25" stroke-linejoin="round"/><polyline points="9.271,4.242 8.255,4.242" fill="none" stroke="#4ea1ff" stroke-width="0.25" stroke-linejoin="round"/><polyline points="10.160,-2.540 7.620,-2.540" fill="none" stroke="#4ea1ff" stroke-width="0.25" stroke-linejoin="round"/><polyline points="10.160,2.540 2.540,2.540" fill="none" stroke="#4ea1ff" stroke-width="0.25" stroke-linejoin="round"/><polyline points="10.160,7.620 7.620,7.620" fill="none" stroke="#4ea1ff" stroke-width="0.25" stroke-linejoin="round"/><circle cx="7.620" cy="-1.905" r="0.127" fill="none" stroke="#4ea1ff" stroke-width="0.25"/><circle cx="7.620" cy="0.889" r="0.127" fill="none" stroke="#4ea1ff" stroke-width="0.25"/><circle cx="7.620" cy="1.397" r="0.127" fill="none" stroke="#4ea1ff" stroke-width="0.25"/><circle cx="7.620" cy="2.540" r="0.254" fill="none" stroke="#4ea1ff" stroke-width="0.25"/><circle cx="7.620" cy="3.302" r="0.127" fill="none" stroke="#4ea1ff" stroke-width="0.25"/><circle cx="7.620" cy="5.842" r="0.127" fill="none" stroke="#4ea1ff" stroke-width="0.25"/><circle cx="7.620" cy="6.477" r="0.127" fill="none" stroke="#4ea1ff" stroke-width="0.25"/><line x1="12.700" y1="-2.540" x2="10.160" y2="-2.540" stroke="#e6e9ef" stroke-width="0.2"/><circle cx="12.700" cy="-2.540" r="0.4" fill="#4ea1ff"/><text x="10.460" y="-2.890" fill="#9aa3b2" font-size="0.9" text-anchor="start" font-family="sans-serif">1</text><line x1="0.000" y1="-0.000" x2="2.540" y2="-0.000" stroke="#e6e9ef" stroke-width="0.2"/><circle cx="0.000" cy="-0.000" r="0.4" fill="#4ea1ff"/><text x="2.240" y="-0.350" fill="#9aa3b2" font-size="0.9" text-anchor="end" font-family="sans-serif">3</text><line x1="0.000" y1="2.540" x2="2.540" y2="2.540" stroke="#e6e9ef" stroke-width="0.2"/><circle cx="0.000" cy="2.540" r="0.4" fill="#4ea1ff"/><text x="2.240" y="2.190" fill="#9aa3b2" font-size="0.9" text-anchor="end" font-family="sans-serif">4</text><line x1="0.000" y1="5.080" x2="2.540" y2="5.080" stroke="#e6e9ef" stroke-width="0.2"/><circle cx="0.000" cy="5.080" r="0.4" fill="#4ea1ff"/><text x="2.240" y="4.730" fill="#9aa3b2" font-size="0.9" text-anchor="end" font-family="sans-serif">5</text><line x1="12.700" y1="2.540" x2="10.160" y2="2.540" stroke="#e6e9ef" stroke-width="0.2"/><circle cx="12.700" cy="2.540" r="0.4" fill="#4ea1ff"/><text x="10.460" y="2.190" fill="#9aa3b2" font-size="0.9" text-anchor="start" font-family="sans-serif">6</text><line x1="12.700" y1="7.620" x2="10.160" y2="7.620" stroke="#e6e9ef" stroke-width="0.2"/><circle cx="12.700" cy="7.620" r="0.4" fill="#4ea1ff"/><text x="10.460" y="7.270" fill="#9aa3b2" font-size="0.9" text-anchor="start" font-family="sans-serif">9</text></svg>