<svg xmlns="http://www.w3.org/2000/svg" viewBox="-5.55 -5.55 11.10 11.10" preserveAspectRatio="xMidYMid meet" style="width:100%;height:100%"><rect x="-5.55" y="-5.55" width="11.10" height="11.10" fill="#12151c"/><line x1="-3.040" y1="-2.540" x2="-2.540" y2="-2.540" stroke="#4a5160" stroke-width="0.080" stroke-linecap="round" opacity="0.7"/><line x1="-3.040" y1="2.540" x2="-2.540" y2="2.540" stroke="#4a5160" stroke-width="0.080" stroke-linecap="round" opacity="0.7"/><line x1="-2.540" y1="-2.540" x2="-2.540" y2="-3.040" stroke="#4a5160" stroke-width="0.080" stroke-linecap="round" opacity="0.7"/><line x1="-2.540" y1="-2.540" x2="-2.040" y2="-2.540" stroke="#4a5160" stroke-width="0.080" stroke-linecap="round" opacity="0.7"/><line x1="-2.540" y1="-2.040" x2="-2.540" y2="-2.540" stroke="#4a5160" stroke-width="0.080" stroke-linecap="round" opacity="0.7"/><line x1="-2.540" y1="2.540" x2="-2.540" y2="2.040" stroke="#4a5160" stroke-width="0.080" stroke-linecap="round" opacity="0.7"/><line x1="-2.540" y1="2.540" x2="-2.040" y2="2.540" stroke="#4a5160" stroke-width="0.080" stroke-linecap="round" opacity="0.7"/><line x1="-2.540" y1="3.040" x2="-2.540" y2="2.540" stroke="#4a5160" stroke-width="0.080" stroke-linecap="round" opacity="0.7"/><line x1="-0.500" y1="0.000" x2="0.000" y2="0.000" stroke="#4a5160" stroke-width="0.080" stroke-linecap="round" opacity="0.7"/><line x1="0.000" y1="0.000" x2="0.000" y2="-0.500" stroke="#4a5160" stroke-width="0.080" stroke-linecap="round" opacity="0.7"/><line x1="0.000" y1="0.000" x2="0.500" y2="0.000" stroke="#4a5160" stroke-width="0.080" stroke-linecap="round" opacity="0.7"/><line x1="0.000" y1="0.500" x2="0.000" y2="0.000" stroke="#4a5160" stroke-width="0.080" stroke-linecap="round" opacity="0.7"/><line x1="2.040" y1="-2.540" x2="2.540" y2="-2.540" stroke="#4a5160" stroke-width="0.080" stroke-linecap="round" opacity="0.7"/><line x1="2.040" y1="2.540" x2="2.540" y2="2.540" stroke="#4a5160" stroke-width="0.080" stroke-linecap="round" opacity="0.7"/><line x1="2.540" y1="-2.540" x2="2.540" y2="-3.040" stroke="#4a5160" stroke-width="0.080" stroke-linecap="round" opacity="0.7"/><line x1="2.540" y1="-2.540" x2="3.040" y2="-2.540" stroke="#4a5160" stroke-width="0.080" stroke-linecap="round" opacity="0.7"/><line x1="2.540" y1="-2.040" x2="2.540" y2="-2.540" stroke="#4a5160" stroke-width="0.080" stroke-linecap="round" opacity="0.7"/><line x1="2.540" y1="2.540" x2="2.540" y2="2.040" stroke="#4a5160" stroke-width="0.080" stroke-linecap="round" opacity="0.7"/><line x1="2.540" y1="2.540" x2="3.040" y2="2.540" stroke="#4a5160" stroke-width="0.080" stroke-linecap="round" opacity="0.7"/><line x1="2.540" y1="3.040" x2="2.540" y2="2.540" stroke="#4a5160" stroke-width="0.080" stroke-linecap="round" opacity="0.7"/><line x1="-3.640" y1="-3.640" x2="3.640" y2="-3.640" stroke="#d24d4d" stroke-width="0.080" stroke-linecap="round" opacity="0.7"/><line x1="3.640" y1="-3.640" x2="3.640" y2="3.640" stroke="#d24d4d" stroke-width="0.080" stroke-linecap="round" opacity="0.7"/><line x1="3.640" y1="3.640" x2="-3.640" y2="3.640" stroke="#d24d4d" stroke-width="0.080" stroke-linecap="round" opacity="0.7"/><line x1="-3.640" y1="3.640" x2="-3.640" y2="-3.640" stroke="#d24d4d" stroke-width="0.080" stroke-linecap="round" opacity="0.7"/><path d="M -3.765 0.737 A 0.500 0.500 0 0 1 -2.990 0.805" fill="none" stroke="#e6e9ef" stroke-width="0.12" opacity="1"/><path d="M -3.739 2.593 A 4.550 4.550 0 0 1 -3.739 -2.593" fill="none" stroke="#e6e9ef" stroke-width="0.12" opacity="1"/><path d="M -2.593 -3.739 A 4.550 4.550 0 0 1 2.593 -3.739" fill="none" stroke="#e6e9ef" stroke-width="0.12" opacity="1"/><path d="M -2.155 0.759 A 0.500 0.500 0 0 1 -2.965 0.825" fill="none" stroke="#e6e9ef" stroke-width="0.12" opacity="1"/><path d="M 2.125 -0.828 A 0.500 0.500 0 0 1 2.900 -0.760" fill="none" stroke="#e6e9ef" stroke-width="0.12" opacity="1"/><path d="M 2.593 3.739 A 4.550 4.550 0 0 1 -2.593 3.739" fill="none" stroke="#e6e9ef" stroke-width="0.12" opacity="1"/><path d="M 3.735 -0.806 A 0.500 0.500 0 0 1 2.925 -0.740" fill="none" stroke="#e6e9ef" stroke-width="0.12" opacity="1"/><path d="M 3.739 -2.593 A 4.550 4.550 0 0 1 3.739 2.593" fill="none" stroke="#e6e9ef" stroke-width="0.12" opacity="1"/><path d="M -3.765 0.737 A 0.500 0.500 0 0 1 -2.990 0.805" fill="none" stroke="#6b7280" stroke-width="0.12" opacity="0.8"/><path d="M -2.155 0.759 A 0.500 0.500 0 0 1 -2.965 0.825" fill="none" stroke="#6b7280" stroke-width="0.12" opacity="0.8"/><path d="M 2.125 -0.828 A 0.500 0.500 0 0 1 2.900 -0.760" fill="none" stroke="#6b7280" stroke-width="0.12" opacity="0.8"/><path d="M 3.735 -0.806 A 0.500 0.500 0 0 1 2.925 -0.740" fill="none" stroke="#6b7280" stroke-width="0.12" opacity="0.8"/><circle cx="-2.540" cy="-2.540" r="0.850" fill="none" stroke="#4a5160" stroke-width="0.12" opacity="0.7"/><circle cx="-2.540" cy="-2.540" r="0.500" fill="none" stroke="#4a5160" stroke-width="0.12" opacity="0.7"/><circle cx="-2.540" cy="2.540" r="0.850" fill="none" stroke="#4a5160" stroke-width="0.12" opacity="0.7"/><circle cx="-2.540" cy="2.540" r="0.500" fill="none" stroke="#4a5160" stroke-width="0.12" opacity="0.7"/><circle cx="2.540" cy="-2.540" r="0.850" fill="none" stroke="#4a5160" stroke-width="0.12" opacity="0.7"/><circle cx="2.540" cy="-2.540" r="0.500" fill="none" stroke="#4a5160" stroke-width="0.12" opacity="0.7"/><circle cx="2.540" cy="2.540" r="0.850" fill="none" stroke="#4a5160" stroke-width="0.12" opacity="0.7"/><circle cx="2.540" cy="2.540" r="0.500" fill="none" stroke="#4a5160" stroke-width="0.12" opacity="0.7"/><circle cx="0.000" cy="0.000" r="4.550" fill="none" stroke="#6b7280" stroke-width="0.12" opacity="0.8"/><rect x="-3.390" y="-3.390" width="1.700" height="1.700" rx="0.850" fill="#c79b5c"/><circle cx="-2.540" cy="-2.540" r="0.500" fill="#12151c"/><rect x="-3.390" y="1.690" width="1.700" height="1.700" rx="0.850" fill="#c79b5c"/><circle cx="-2.540" cy="2.540" r="0.500" fill="#12151c"/><rect x="1.690" y="1.690" width="1.700" height="1.700" rx="0.850" fill="#c79b5c"/><circle cx="2.540" cy="2.540" r="0.500" fill="#12151c"/><rect x="1.690" y="-3.390" width="1.700" height="1.700" rx="0.850" fill="#c79b5c"/><circle cx="2.540" cy="-2.540" r="0.500" fill="#12151c"/></svg>