<svg xmlns="http://www.w3.org/2000/svg" viewBox="-4.20 -4.20 8.45 8.40" preserveAspectRatio="xMidYMid meet" style="width:100%;height:100%"><rect x="-4.20" y="-4.20" width="8.45" height="8.40" fill="#12151c"/><line x1="0.733" y1="-0.450" x2="3.000" y2="-0.450" stroke="#e6e9ef" stroke-width="0.200" stroke-linecap="round" opacity="1"/><line x1="0.733" y1="0.450" x2="3.000" y2="0.450" stroke="#e6e9ef" stroke-width="0.200" stroke-linecap="round" opacity="1"/><line x1="1.500" y1="0.450" x2="1.500" y2="-0.450" stroke="#e6e9ef" stroke-width="0.200" stroke-linecap="round" opacity="1"/><line x1="3.000" y1="0.450" x2="3.000" y2="-0.450" stroke="#e6e9ef" stroke-width="0.200" stroke-linecap="round" opacity="1"/><line x1="-1.624" y1="-0.354" x2="-1.270" y2="0.000" stroke="#4a5160" stroke-width="0.080" stroke-linecap="round" opacity="0.7"/><line x1="-1.624" y1="0.354" x2="-1.270" y2="0.000" stroke="#4a5160" stroke-width="0.080" stroke-linecap="round" opacity="0.7"/><line x1="-1.270" y1="0.000" x2="-0.916" y2="-0.354" stroke="#4a5160" stroke-width="0.080" stroke-linecap="round" opacity="0.7"/><line x1="-1.270" y1="0.000" x2="-0.916" y2="0.354" stroke="#4a5160" stroke-width="0.080" stroke-linecap="round" opacity="0.7"/><line x1="-0.500" y1="0.000" x2="0.000" y2="0.000" stroke="#4a5160" stroke-width="0.080" stroke-linecap="round" opacity="0.7"/><line x1="-0.354" y1="-1.624" x2="0.000" y2="-1.270" stroke="#4a5160" stroke-width="0.080" stroke-linecap="round" opacity="0.7"/><line x1="-0.354" y1="-0.916" x2="0.000" y2="-1.270" stroke="#4a5160" stroke-width="0.080" stroke-linecap="round" opacity="0.7"/><line x1="-0.354" y1="0.916" x2="0.000" y2="1.270" stroke="#4a5160" stroke-width="0.080" stroke-linecap="round" opacity="0.7"/><line x1="-0.354" y1="1.624" x2="0.000" y2="1.270" stroke="#4a5160" stroke-width="0.080" stroke-linecap="round" opacity="0.7"/><line x1="0.000" y1="-1.270" x2="0.354" y2="-1.624" stroke="#4a5160" stroke-width="0.080" stroke-linecap="round" opacity="0.7"/><line x1="0.000" y1="-1.270" x2="0.354" y2="-0.916" stroke="#4a5160" stroke-width="0.080" stroke-linecap="round" opacity="0.7"/><line x1="0.000" y1="0.000" x2="0.000" y2="-0.500" stroke="#4a5160" stroke-width="0.080" stroke-linecap="round" opacity="0.7"/><line x1="0.000" y1="0.000" x2="0.500" y2="0.000" stroke="#4a5160" stroke-width="0.080" stroke-linecap="round" opacity="0.7"/><line x1="0.000" y1="0.500" x2="0.000" y2="0.000" stroke="#4a5160" stroke-width="0.080" stroke-linecap="round" opacity="0.7"/><line x1="0.000" y1="1.270" x2="0.354" y2="0.916" stroke="#4a5160" stroke-width="0.080" stroke-linecap="round" opacity="0.7"/><line x1="0.000" y1="1.270" x2="0.354" y2="1.624" stroke="#4a5160" stroke-width="0.080" stroke-linecap="round" opacity="0.7"/><line x1="0.000" y1="-0.450" x2="3.000" y2="-0.450" stroke="#6b7280" stroke-width="0.100" stroke-linecap="round" opacity="0.8"/><line x1="0.000" y1="0.450" x2="3.000" y2="0.450" stroke="#6b7280" stroke-width="0.100" stroke-linecap="round" opacity="0.8"/><line x1="1.500" y1="0.450" x2="1.500" y2="-0.450" stroke="#6b7280" stroke-width="0.100" stroke-linecap="round" opacity="0.8"/><line x1="3.000" y1="0.450" x2="3.000" y2="-0.450" stroke="#6b7280" stroke-width="0.100" stroke-linecap="round" opacity="0.8"/><line x1="-2.220" y1="-2.220" x2="3.250" y2="-2.220" stroke="#d24d4d" stroke-width="0.080" stroke-linecap="round" opacity="0.7"/><line x1="3.250" y1="-2.220" x2="3.250" y2="2.220" stroke="#d24d4d" stroke-width="0.080" stroke-linecap="round" opacity="0.7"/><line x1="3.250" y1="2.220" x2="-2.220" y2="2.220" stroke="#d24d4d" stroke-width="0.080" stroke-linecap="round" opacity="0.7"/><line x1="-2.220" y1="2.220" x2="-2.220" y2="-2.220" stroke="#d24d4d" stroke-width="0.080" stroke-linecap="round" opacity="0.7"/><path d="M 0.834 -0.552 A 1.000 1.000 0 0 1 0.893 -0.450" fill="none" stroke="#e6e9ef" stroke-width="0.12" opacity="1"/><path d="M 0.893 0.450 A 1.000 1.000 0 0 1 0.834 0.552" fill="none" stroke="#e6e9ef" stroke-width="0.12" opacity="1"/><path d="M 0.000 0.450 A 0.450 0.450 0 0 1 0.000 -0.450" fill="none" stroke="#6b7280" stroke-width="0.12" opacity="0.8"/><path d="M 0.893 0.450 A 1.000 1.000 0 1 1 0.893 -0.450" fill="none" stroke="#6b7280" stroke-width="0.12" opacity="0.8"/><circle cx="0.000" cy="0.000" r="3.200" fill="none" stroke="#e6e9ef" stroke-width="0.12" opacity="1"/><circle cx="-1.270" cy="0.000" r="0.750" fill="none" stroke="#4a5160" stroke-width="0.12" opacity="0.7"/><circle cx="-1.270" cy="0.000" r="0.400" fill="none" stroke="#4a5160" stroke-width="0.12" opacity="0.7"/><circle cx="0.000" cy="-1.270" r="0.750" fill="none" stroke="#4a5160" stroke-width="0.12" opacity="0.7"/><circle cx="0.000" cy="-1.270" r="0.400" fill="none" stroke="#4a5160" stroke-width="0.12" opacity="0.7"/><circle cx="0.000" cy="1.270" r="0.750" fill="none" stroke="#4a5160" stroke-width="0.12" opacity="0.7"/><circle cx="0.000" cy="1.270" r="0.400" fill="none" stroke="#4a5160" stroke-width="0.12" opacity="0.7"/><circle cx="0.000" cy="0.000" r="3.200" fill="none" stroke="#6b7280" stroke-width="0.12" opacity="0.8"/><rect x="-0.700" y="-1.970" width="1.400" height="1.400" rx="0.700" fill="#c79b5c"/><circle cx="0.000" cy="-1.270" r="0.350" fill="#12151c"/><rect x="-1.970" y="-0.700" width="1.400" height="1.400" rx="0.700" fill="#c79b5c"/><circle cx="-1.270" cy="0.000" r="0.350" fill="#12151c"/><rect x="-0.700" y="0.570" width="1.400" height="1.400" rx="0.700" fill="#c79b5c"/><circle cx="0.000" cy="1.270" r="0.350" fill="#12151c"/></svg>