<svg xmlns="http://www.w3.org/2000/svg" viewBox="-6.58 -1.50 38.56 81.74" preserveAspectRatio="xMidYMid meet" style="width:100%;height:100%"><rect x="-6.58" y="-1.50" width="38.56" height="81.74" fill="#12151c"/><rect x="0.000" y="-0.000" width="25.400" height="78.740" fill="#1e222b" stroke="#4ea1ff" stroke-width="0.25"/><rect x="24.892" y="74.930" width="0.508" height="2.540" fill="#1e222b" stroke="#4ea1ff" stroke-width="0.25"/><polyline points="9.652,2.540 9.398,2.540 11.430,2.540" fill="none" stroke="#4ea1ff" stroke-width="0.25" stroke-linejoin="round"/><polyline points="9.652,10.160 9.398,10.160 11.430,10.160" fill="none" stroke="#4ea1ff" stroke-width="0.25" stroke-linejoin="round"/><polyline points="9.652,17.780 9.398,17.780 11.430,17.780" fill="none" stroke="#4ea1ff" stroke-width="0.25" stroke-linejoin="round"/><polyline points="9.652,25.400 9.398,25.400 11.430,25.400" fill="none" stroke="#4ea1ff" stroke-width="0.25" stroke-linejoin="round"/><polyline points="9.652,33.020 9.398,33.020 11.430,33.020" fill="none" stroke="#4ea1ff" stroke-width="0.25" stroke-linejoin="round"/><polyline points="9.652,40.640 9.398,40.640 11.430,40.640" fill="none" stroke="#4ea1ff" stroke-width="0.25" stroke-linejoin="round"/><polyline points="9.652,48.260 9.398,48.260 11.430,48.260" fill="none" stroke="#4ea1ff" stroke-width="0.25" stroke-linejoin="round"/><polyline points="9.652,55.880 9.398,55.880 11.430,55.880" fill="none" stroke="#4ea1ff" stroke-width="0.25" stroke-linejoin="round"/><polyline points="10.414,5.080 9.398,5.080" fill="none" stroke="#4ea1ff" stroke-width="0.25" stroke-linejoin="round"/><polyline points="10.414,12.700 9.398,12.700" fill="none" stroke="#4ea1ff" stroke-width="0.25" stroke-linejoin="round"/><polyline points="10.414,20.320 9.398,20.320" fill="none" stroke="#4ea1ff" stroke-width="0.25" stroke-linejoin="round"/><polyline points="10.414,27.940 9.398,27.940" fill="none" stroke="#4ea1ff" stroke-width="0.25" stroke-linejoin="round"/><polyline points="10.414,35.560 9.398,35.560" fill="none" stroke="#4ea1ff" stroke-width="0.25" stroke-linejoin="round"/><polyline points="10.414,43.180 9.398,43.180" fill="none" stroke="#4ea1ff" stroke-width="0.25" stroke-linejoin="round"/><polyline points="10.414,50.800 9.398,50.800" fill="none" stroke="#4ea1ff" stroke-width="0.25" stroke-linejoin="round"/><polyline points="10.414,58.420 9.398,58.420" fill="none" stroke="#4ea1ff" stroke-width="0.25" stroke-linejoin="round"/><polyline points="10.668,63.500 13.208,63.500 13.208,58.674" fill="none" stroke="#4ea1ff" stroke-width="0.25" stroke-linejoin="round"/><polyline points="13.208,8.890 13.208,5.334" fill="none" stroke="#4ea1ff" stroke-width="0.25" stroke-linejoin="round"/><polyline points="13.208,16.510 13.208,12.954" fill="none" stroke="#4ea1ff" stroke-width="0.25" stroke-linejoin="round"/><polyline points="13.208,24.130 13.208,20.574" fill="none" stroke="#4ea1ff" stroke-width="0.25" stroke-linejoin="round"/><polyline points="13.208,31.750 13.208,28.194" fill="none" stroke="#4ea1ff" stroke-width="0.25" stroke-linejoin="round"/><polyline points="13.208,39.370 13.208,35.814" fill="none" stroke="#4ea1ff" stroke-width="0.25" stroke-linejoin="round"/><polyline points="13.208,46.990 13.208,43.434" fill="none" stroke="#4ea1ff" stroke-width="0.25" stroke-linejoin="round"/><polyline points="13.208,54.610 13.208,51.054" fill="none" stroke="#4ea1ff" stroke-width="0.25" stroke-linejoin="round"/><polyline points="15.494,3.810 16.510,3.810" fill="none" stroke="#4ea1ff" stroke-width="0.25" stroke-linejoin="round"/><polyline points="15.494,3.810 11.430,6.350 11.430,1.270 15.494,3.810" fill="#1e222b" stroke="#4ea1ff" stroke-width="0.25" stroke-linejoin="round"/><polyline points="15.494,11.430 16.510,11.430" fill="none" stroke="#4ea1ff" stroke-width="0.25" stroke-linejoin="round"/><polyline points="15.494,11.430 11.430,13.970 11.430,8.890 15.494,11.430" fill="#1e222b" stroke="#4ea1ff" stroke-width="0.25" stroke-linejoin="round"/><polyline points="15.494,19.050 16.510,19.050" fill="none" stroke="#4ea1ff" stroke-width="0.25" stroke-linejoin="round"/><polyline points="15.494,19.050 11.430,21.590 11.430,16.510 15.494,19.050" fill="#1e222b" stroke="#4ea1ff" stroke-width="0.25" stroke-linejoin="round"/><polyline points="15.494,26.670 16.510,26.670" fill="none" stroke="#4ea1ff" stroke-width="0.25" stroke-linejoin="round"/><polyline points="15.494,26.670 11.430,29.210 11.430,24.130 15.494,26.670" fill="#1e222b" stroke="#4ea1ff" stroke-width="0.25" stroke-linejoin="round"/><polyline points="15.494,34.290 16.510,34.290" fill="none" stroke="#4ea1ff" stroke-width="0.25" stroke-linejoin="round"/><polyline points="15.494,34.290 11.430,36.830 11.430,31.750 15.494,34.290" fill="#1e222b" stroke="#4ea1ff" stroke-width="0.25" stroke-linejoin="round"/><polyline points="15.494,41.910 16.510,41.910" fill="none" stroke="#4ea1ff" stroke-width="0.25" stroke-linejoin="round"/><polyline points="15.494,41.910 11.430,44.450 11.430,39.370 15.494,41.910" fill="#1e222b" stroke="#4ea1ff" stroke-width="0.25" stroke-linejoin="round"/><polyline points="15.494,49.530 16.510,49.530" fill="none" stroke="#4ea1ff" stroke-width="0.25" stroke-linejoin="round"/><polyline points="15.494,49.530 11.430,52.070 11.430,46.990 15.494,49.530" fill="#1e222b" stroke="#4ea1ff" stroke-width="0.25" stroke-linejoin="round"/><polyline points="15.494,57.150 16.510,57.150" fill="none" stroke="#4ea1ff" stroke-width="0.25" stroke-linejoin="round"/><polyline points="15.494,57.150 11.430,59.690 11.430,54.610 15.494,57.150" fill="#1e222b" stroke="#4ea1ff" stroke-width="0.25" stroke-linejoin="round"/><circle cx="10.922" cy="5.080" r="0.457" fill="none" stroke="#4ea1ff" stroke-width="0.25"/><circle cx="10.922" cy="12.700" r="0.457" fill="none" stroke="#4ea1ff" stroke-width="0.25"/><circle cx="10.922" cy="20.320" r="0.457" fill="none" stroke="#4ea1ff" stroke-width="0.25"/><circle cx="10.922" cy="27.940" r="0.457" fill="none" stroke="#4ea1ff" stroke-width="0.25"/><circle cx="10.922" cy="35.560" r="0.457" fill="none" stroke="#4ea1ff" stroke-width="0.25"/><circle cx="10.922" cy="43.180" r="0.457" fill="none" stroke="#4ea1ff" stroke-width="0.25"/><circle cx="10.922" cy="50.800" r="0.457" fill="none" stroke="#4ea1ff" stroke-width="0.25"/><circle cx="10.922" cy="58.420" r="0.457" fill="none" stroke="#4ea1ff" stroke-width="0.25"/><line x1="-5.080" y1="2.540" x2="0.000" y2="2.540" stroke="#e6e9ef" stroke-width="0.2"/><circle cx="-5.080" cy="2.540" r="0.4" fill="#4ea1ff"/><text x="0.500" y="2.890" fill="#e6e9ef" font-size="1.1" text-anchor="start" font-family="sans-serif">IN1A</text><text x="-0.300" y="2.190" fill="#9aa3b2" font-size="0.9" text-anchor="end" font-family="sans-serif">27</text><line x1="-5.080" y1="5.080" x2="0.000" y2="5.080" stroke="#e6e9ef" stroke-width="0.2"/><circle cx="-5.080" cy="5.080" r="0.4" fill="#4ea1ff"/><text x="0.500" y="5.430" fill="#e6e9ef" font-size="1.1" text-anchor="start" font-family="sans-serif">IN1B</text><text x="-0.300" y="4.730" fill="#9aa3b2" font-size="0.9" text-anchor="end" font-family="sans-serif">28</text><line x1="-5.080" y1="10.160" x2="0.000" y2="10.160" stroke="#e6e9ef" stroke-width="0.2"/><circle cx="-5.080" cy="10.160" r="0.4" fill="#4ea1ff"/><text x="0.500" y="10.510" fill="#e6e9ef" font-size="1.1" text-anchor="start" font-family="sans-serif">IN2A</text><text x="-0.300" y="9.810" fill="#9aa3b2" font-size="0.9" text-anchor="end" font-family="sans-serif">29</text><line x1="-5.080" y1="12.700" x2="0.000" y2="12.700" stroke="#e6e9ef" stroke-width="0.2"/><circle cx="-5.080" cy="12.700" r="0.4" fill="#4ea1ff"/><text x="0.500" y="13.050" fill="#e6e9ef" font-size="1.1" text-anchor="start" font-family="sans-serif">IN2B</text><text x="-0.300" y="12.350" fill="#9aa3b2" font-size="0.9" text-anchor="end" font-family="sans-serif">30</text><line x1="-5.080" y1="17.780" x2="0.000" y2="17.780" stroke="#e6e9ef" stroke-width="0.2"/><circle cx="-5.080" cy="17.780" r="0.4" fill="#4ea1ff"/><text x="0.500" y="18.130" fill="#e6e9ef" font-size="1.1" text-anchor="start" font-family="sans-serif">IN3A</text><text x="-0.300" y="17.430" fill="#9aa3b2" font-size="0.9" text-anchor="end" font-family="sans-serif">31</text><line x1="-5.080" y1="20.320" x2="0.000" y2="20.320" stroke="#e6e9ef" stroke-width="0.2"/><circle cx="-5.080" cy="20.320" r="0.4" fill="#4ea1ff"/><text x="0.500" y="20.670" fill="#e6e9ef" font-size="1.1" text-anchor="start" font-family="sans-serif">IN3B</text><text x="-0.300" y="19.970" fill="#9aa3b2" font-size="0.9" text-anchor="end" font-family="sans-serif">32</text><line x1="-5.080" y1="25.400" x2="0.000" y2="25.400" stroke="#e6e9ef" stroke-width="0.2"/><circle cx="-5.080" cy="25.400" r="0.4" fill="#4ea1ff"/><text x="0.500" y="25.750" fill="#e6e9ef" font-size="1.1" text-anchor="start" font-family="sans-serif">IN4A</text><text x="-0.300" y="25.050" fill="#9aa3b2" font-size="0.9" text-anchor="end" font-family="sans-serif">1</text><line x1="-5.080" y1="27.940" x2="0.000" y2="27.940" stroke="#e6e9ef" stroke-width="0.2"/><circle cx="-5.080" cy="27.940" r="0.4" fill="#4ea1ff"/><text x="0.500" y="28.290" fill="#e6e9ef" font-size="1.1" text-anchor="start" font-family="sans-serif">IN4B</text><text x="-0.300" y="27.590" fill="#9aa3b2" font-size="0.9" text-anchor="end" font-family="sans-serif">2</text><line x1="-5.080" y1="33.020" x2="0.000" y2="33.020" stroke="#e6e9ef" stroke-width="0.2"/><circle cx="-5.080" cy="33.020" r="0.4" fill="#4ea1ff"/><text x="0.500" y="33.370" fill="#e6e9ef" font-size="1.1" text-anchor="start" font-family="sans-serif">IN5A</text><text x="-0.300" y="32.670" fill="#9aa3b2" font-size="0.9" text-anchor="end" font-family="sans-serif">7</text><line x1="-5.080" y1="35.560" x2="0.000" y2="35.560" stroke="#e6e9ef" stroke-width="0.2"/><circle cx="-5.080" cy="35.560" r="0.4" fill="#4ea1ff"/><text x="0.500" y="35.910" fill="#e6e9ef" font-size="1.1" text-anchor="start" font-family="sans-serif">IN5B</text><text x="-0.300" y="35.210" fill="#9aa3b2" font-size="0.9" text-anchor="end" font-family="sans-serif">8</text><line x1="-5.080" y1="40.640" x2="0.000" y2="40.640" stroke="#e6e9ef" stroke-width="0.2"/><circle cx="-5.080" cy="40.640" r="0.4" fill="#4ea1ff"/><text x="0.500" y="40.990" fill="#e6e9ef" font-size="1.1" text-anchor="start" font-family="sans-serif">IN6A</text><text x="-0.300" y="40.290" fill="#9aa3b2" font-size="0.9" text-anchor="end" font-family="sans-serif">9</text><line x1="-5.080" y1="43.180" x2="0.000" y2="43.180" stroke="#e6e9ef" stroke-width="0.2"/><circle cx="-5.080" cy="43.180" r="0.4" fill="#4ea1ff"/><text x="0.500" y="43.530" fill="#e6e9ef" font-size="1.1" text-anchor="start" font-family="sans-serif">IN6B</text><text x="-0.300" y="42.830" fill="#9aa3b2" font-size="0.9" text-anchor="end" font-family="sans-serif">10</text><line x1="-5.080" y1="48.260" x2="0.000" y2="48.260" stroke="#e6e9ef" stroke-width="0.2"/><circle cx="-5.080" cy="48.260" r="0.4" fill="#4ea1ff"/><text x="0.500" y="48.610" fill="#e6e9ef" font-size="1.1" text-anchor="start" font-family="sans-serif">IN7A</text><text x="-0.300" y="47.910" fill="#9aa3b2" font-size="0.9" text-anchor="end" font-family="sans-serif">11</text><line x1="-5.080" y1="50.800" x2="0.000" y2="50.800" stroke="#e6e9ef" stroke-width="0.2"/><circle cx="-5.080" cy="50.800" r="0.4" fill="#4ea1ff"/><text x="0.500" y="51.150" fill="#e6e9ef" font-size="1.1" text-anchor="start" font-family="sans-serif">IN7B</text><text x="-0.300" y="50.450" fill="#9aa3b2" font-size="0.9" text-anchor="end" font-family="sans-serif">12</text><line x1="-5.080" y1="55.880" x2="0.000" y2="55.880" stroke="#e6e9ef" stroke-width="0.2"/><circle cx="-5.080" cy="55.880" r="0.4" fill="#4ea1ff"/><text x="0.500" y="56.230" fill="#e6e9ef" font-size="1.1" text-anchor="start" font-family="sans-serif">IN8A</text><text x="-0.300" y="55.530" fill="#9aa3b2" font-size="0.9" text-anchor="end" font-family="sans-serif">13</text><line x1="-5.080" y1="58.420" x2="0.000" y2="58.420" stroke="#e6e9ef" stroke-width="0.2"/><circle cx="-5.080" cy="58.420" r="0.4" fill="#4ea1ff"/><text x="0.500" y="58.770" fill="#e6e9ef" font-size="1.1" text-anchor="start" font-family="sans-serif">IN8B</text><text x="-0.300" y="58.070" fill="#9aa3b2" font-size="0.9" text-anchor="end" font-family="sans-serif">14</text><line x1="-5.080" y1="63.500" x2="0.000" y2="63.500" stroke="#e6e9ef" stroke-width="0.2"/><circle cx="-5.080" cy="63.500" r="0.4" fill="#4ea1ff"/><text x="0.500" y="63.850" fill="#e6e9ef" font-size="1.1" text-anchor="start" font-family="sans-serif">EN8RX</text><text x="-0.300" y="63.150" fill="#9aa3b2" font-size="0.9" text-anchor="end" font-family="sans-serif">6</text><line x1="-5.080" y1="68.580" x2="0.000" y2="68.580" stroke="#e6e9ef" stroke-width="0.2"/><circle cx="-5.080" cy="68.580" r="0.4" fill="#4ea1ff"/><text x="0.500" y="68.930" fill="#e6e9ef" font-size="1.1" text-anchor="start" font-family="sans-serif">VDDA</text><text x="-0.300" y="68.230" fill="#9aa3b2" font-size="0.9" text-anchor="end" font-family="sans-serif">4</text><line x1="-5.080" y1="71.120" x2="0.000" y2="71.120" stroke="#e6e9ef" stroke-width="0.2"/><circle cx="-5.080" cy="71.120" r="0.4" fill="#4ea1ff"/><text x="0.500" y="71.470" fill="#e6e9ef" font-size="1.1" text-anchor="start" font-family="sans-serif">VDDA</text><text x="-0.300" y="70.770" fill="#9aa3b2" font-size="0.9" text-anchor="end" font-family="sans-serif">5</text><line x1="-5.080" y1="73.660" x2="0.000" y2="73.660" stroke="#e6e9ef" stroke-width="0.2"/><circle cx="-5.080" cy="73.660" r="0.4" fill="#4ea1ff"/><text x="0.500" y="74.010" fill="#e6e9ef" font-size="1.1" text-anchor="start" font-family="sans-serif">VDDB</text><text x="-0.300" y="73.310" fill="#9aa3b2" font-size="0.9" text-anchor="end" font-family="sans-serif">20</text><line x1="-5.080" y1="76.200" x2="0.000" y2="76.200" stroke="#e6e9ef" stroke-width="0.2"/><circle cx="-5.080" cy="76.200" r="0.4" fill="#4ea1ff"/><text x="0.500" y="76.550" fill="#e6e9ef" font-size="1.1" text-anchor="start" font-family="sans-serif">VDDB</text><text x="-0.300" y="75.850" fill="#9aa3b2" font-size="0.9" text-anchor="end" font-family="sans-serif">21</text><line x1="30.480" y1="2.540" x2="25.400" y2="2.540" stroke="#e6e9ef" stroke-width="0.2"/><circle cx="30.480" cy="2.540" r="0.4" fill="#4ea1ff"/><text x="24.900" y="2.890" fill="#e6e9ef" font-size="1.1" text-anchor="end" font-family="sans-serif">OUT1</text><text x="25.700" y="2.190" fill="#9aa3b2" font-size="0.9" text-anchor="start" font-family="sans-serif">26</text><line x1="30.480" y1="10.160" x2="25.400" y2="10.160" stroke="#e6e9ef" stroke-width="0.2"/><circle cx="30.480" cy="10.160" r="0.4" fill="#4ea1ff"/><text x="24.900" y="10.510" fill="#e6e9ef" font-size="1.1" text-anchor="end" font-family="sans-serif">OUT2</text><text x="25.700" y="9.810" fill="#9aa3b2" font-size="0.9" text-anchor="start" font-family="sans-serif">25</text><line x1="30.480" y1="17.780" x2="25.400" y2="17.780" stroke="#e6e9ef" stroke-width="0.2"/><circle cx="30.480" cy="17.780" r="0.4" fill="#4ea1ff"/><text x="24.900" y="18.130" fill="#e6e9ef" font-size="1.1" text-anchor="end" font-family="sans-serif">OUT3</text><text x="25.700" y="17.430" fill="#9aa3b2" font-size="0.9" text-anchor="start" font-family="sans-serif">24</text><line x1="30.480" y1="25.400" x2="25.400" y2="25.400" stroke="#e6e9ef" stroke-width="0.2"/><circle cx="30.480" cy="25.400" r="0.4" fill="#4ea1ff"/><text x="24.900" y="25.750" fill="#e6e9ef" font-size="1.1" text-anchor="end" font-family="sans-serif">OUT4</text><text x="25.700" y="25.050" fill="#9aa3b2" font-size="0.9" text-anchor="start" font-family="sans-serif">23</text><line x1="30.480" y1="33.020" x2="25.400" y2="33.020" stroke="#e6e9ef" stroke-width="0.2"/><circle cx="30.480" cy="33.020" r="0.4" fill="#4ea1ff"/><text x="24.900" y="33.370" fill="#e6e9ef" font-size="1.1" text-anchor="end" font-family="sans-serif">OUT6</text><text x="25.700" y="32.670" fill="#9aa3b2" font-size="0.9" text-anchor="start" font-family="sans-serif">17</text><line x1="30.480" y1="40.640" x2="25.400" y2="40.640" stroke="#e6e9ef" stroke-width="0.2"/><circle cx="30.480" cy="40.640" r="0.4" fill="#4ea1ff"/><text x="24.900" y="40.990" fill="#e6e9ef" font-size="1.1" text-anchor="end" font-family="sans-serif">OUT5</text><text x="25.700" y="40.290" fill="#9aa3b2" font-size="0.9" text-anchor="start" font-family="sans-serif">18</text><line x1="30.480" y1="48.260" x2="25.400" y2="48.260" stroke="#e6e9ef" stroke-width="0.2"/><circle cx="30.480" cy="48.260" r="0.4" fill="#4ea1ff"/><text x="24.900" y="48.610" fill="#e6e9ef" font-size="1.1" text-anchor="end" font-family="sans-serif">OUT7</text><text x="25.700" y="47.910" fill="#9aa3b2" font-size="0.9" text-anchor="start" font-family="sans-serif">16</text><line x1="30.480" y1="55.880" x2="25.400" y2="55.880" stroke="#e6e9ef" stroke-width="0.2"/><circle cx="30.480" cy="55.880" r="0.4" fill="#4ea1ff"/><text x="24.900" y="56.230" fill="#e6e9ef" font-size="1.1" text-anchor="end" font-family="sans-serif">OUT8</text><text x="25.700" y="55.530" fill="#9aa3b2" font-size="0.9" text-anchor="start" font-family="sans-serif">15</text><line x1="30.480" y1="68.580" x2="25.400" y2="68.580" stroke="#e6e9ef" stroke-width="0.2"/><circle cx="30.480" cy="68.580" r="0.4" fill="#4ea1ff"/><text x="24.900" y="68.930" fill="#e6e9ef" font-size="1.1" text-anchor="end" font-family="sans-serif">GND</text><text x="25.700" y="68.230" fill="#9aa3b2" font-size="0.9" text-anchor="start" font-family="sans-serif">22</text><line x1="30.480" y1="71.120" x2="25.400" y2="71.120" stroke="#e6e9ef" stroke-width="0.2"/><circle cx="30.480" cy="71.120" r="0.4" fill="#4ea1ff"/><text x="24.900" y="71.470" fill="#e6e9ef" font-size="1.1" text-anchor="end" font-family="sans-serif">GND</text><text x="25.700" y="70.770" fill="#9aa3b2" font-size="0.9" text-anchor="start" font-family="sans-serif">19</text><line x1="30.480" y1="73.660" x2="25.400" y2="73.660" stroke="#e6e9ef" stroke-width="0.2"/><circle cx="30.480" cy="73.660" r="0.4" fill="#4ea1ff"/><text x="24.900" y="74.010" fill="#e6e9ef" font-size="1.1" text-anchor="end" font-family="sans-serif">GND</text><text x="25.700" y="73.310" fill="#9aa3b2" font-size="0.9" text-anchor="start" font-family="sans-serif">3</text><line x1="30.480" y1="76.200" x2="25.400" y2="76.200" stroke="#e6e9ef" stroke-width="0.2"/><circle cx="30.480" cy="76.200" r="0.4" fill="#4ea1ff"/><text x="24.900" y="76.550" fill="#e6e9ef" font-size="1.1" text-anchor="end" font-family="sans-serif">EP</text><text x="25.700" y="75.850" fill="#9aa3b2" font-size="0.9" text-anchor="start" font-family="sans-serif">33</text></svg>