<svg xmlns="http://www.w3.org/2000/svg" viewBox="-3.30 -2.33 6.60 4.46" preserveAspectRatio="xMidYMid meet" style="width:100%;height:100%"><rect x="-3.30" y="-2.33" width="6.60" height="4.46" fill="#12151c"/><line x1="0.450" y1="-0.700" x2="0.850" y2="-0.700" stroke="#e6e9ef" stroke-width="0.200" stroke-linecap="round" opacity="1"/><line x1="0.450" y1="0.700" x2="0.450" y2="-0.700" stroke="#e6e9ef" stroke-width="0.200" stroke-linecap="round" opacity="1"/><line x1="0.450" y1="0.700" x2="0.850" y2="0.700" stroke="#e6e9ef" stroke-width="0.200" stroke-linecap="round" opacity="1"/><line x1="-2.050" y1="-0.700" x2="0.150" y2="-0.700" stroke="#4a5160" stroke-width="0.100" stroke-linecap="round" opacity="0.7"/><line x1="-2.050" y1="0.700" x2="-2.050" y2="-0.700" stroke="#4a5160" stroke-width="0.100" stroke-linecap="round" opacity="0.7"/><line x1="-2.050" y1="0.700" x2="0.150" y2="0.700" stroke="#4a5160" stroke-width="0.100" stroke-linecap="round" opacity="0.7"/><line x1="-1.450" y1="0.000" x2="-0.950" y2="0.000" stroke="#4a5160" stroke-width="0.100" stroke-linecap="round" opacity="0.7"/><line x1="-0.950" y1="0.000" x2="-0.950" y2="-0.500" stroke="#4a5160" stroke-width="0.100" stroke-linecap="round" opacity="0.7"/><line x1="-0.950" y1="0.000" x2="-0.450" y2="0.000" stroke="#4a5160" stroke-width="0.100" stroke-linecap="round" opacity="0.7"/><line x1="-0.950" y1="0.500" x2="-0.950" y2="0.000" stroke="#4a5160" stroke-width="0.100" stroke-linecap="round" opacity="0.7"/><line x1="-0.354" y1="-0.354" x2="0.000" y2="0.000" stroke="#4a5160" stroke-width="0.100" stroke-linecap="round" opacity="0.7"/><line x1="-0.354" y1="0.354" x2="0.000" y2="0.000" stroke="#4a5160" stroke-width="0.100" stroke-linecap="round" opacity="0.7"/><line x1="0.000" y1="0.000" x2="0.354" y2="-0.354" stroke="#4a5160" stroke-width="0.100" stroke-linecap="round" opacity="0.7"/><line x1="0.000" y1="0.000" x2="0.354" y2="0.354" stroke="#4a5160" stroke-width="0.100" stroke-linecap="round" opacity="0.7"/><line x1="0.150" y1="0.700" x2="0.150" y2="-0.700" stroke="#4a5160" stroke-width="0.100" stroke-linecap="round" opacity="0.7"/><line x1="1.100" y1="0.000" x2="1.600" y2="0.000" stroke="#4a5160" stroke-width="0.100" stroke-linecap="round" opacity="0.7"/><line x1="1.150" y1="-0.700" x2="2.050" y2="-0.700" stroke="#4a5160" stroke-width="0.100" stroke-linecap="round" opacity="0.7"/><line x1="1.150" y1="0.700" x2="1.150" y2="-0.700" stroke="#4a5160" stroke-width="0.100" stroke-linecap="round" opacity="0.7"/><line x1="1.150" y1="0.700" x2="2.050" y2="0.700" stroke="#4a5160" stroke-width="0.100" stroke-linecap="round" opacity="0.7"/><line x1="1.600" y1="0.000" x2="1.600" y2="-0.500" stroke="#4a5160" stroke-width="0.100" stroke-linecap="round" opacity="0.7"/><line x1="1.600" y1="0.000" x2="2.100" y2="0.000" stroke="#4a5160" stroke-width="0.100" stroke-linecap="round" opacity="0.7"/><line x1="1.600" y1="0.500" x2="1.600" y2="0.000" stroke="#4a5160" stroke-width="0.100" stroke-linecap="round" opacity="0.7"/><line x1="2.050" y1="0.700" x2="2.050" y2="-0.700" stroke="#4a5160" stroke-width="0.100" stroke-linecap="round" opacity="0.7"/><line x1="-2.300" y1="-1.140" x2="2.300" y2="-1.140" stroke="#d24d4d" stroke-width="0.080" stroke-linecap="round" opacity="0.7"/><line x1="-2.300" y1="1.140" x2="-2.300" y2="-1.140" stroke="#d24d4d" stroke-width="0.080" stroke-linecap="round" opacity="0.7"/><line x1="-2.300" y1="1.140" x2="2.300" y2="1.140" stroke="#d24d4d" stroke-width="0.080" stroke-linecap="round" opacity="0.7"/><line x1="2.300" y1="1.140" x2="2.300" y2="-1.140" stroke="#d24d4d" stroke-width="0.080" stroke-linecap="round" opacity="0.7"/><line x1="-1.400" y1="-0.890" x2="1.400" y2="-0.890" stroke="#6b7280" stroke-width="0.100" stroke-linecap="round" opacity="0.8"/><line x1="-1.400" y1="0.890" x2="-1.400" y2="-0.890" stroke="#6b7280" stroke-width="0.100" stroke-linecap="round" opacity="0.8"/><line x1="-1.400" y1="0.890" x2="1.400" y2="0.890" stroke="#6b7280" stroke-width="0.100" stroke-linecap="round" opacity="0.8"/><line x1="-1.300" y1="0.890" x2="-1.300" y2="-0.890" stroke="#6b7280" stroke-width="0.100" stroke-linecap="round" opacity="0.8"/><line x1="-1.200" y1="0.890" x2="-1.200" y2="-0.890" stroke="#6b7280" stroke-width="0.100" stroke-linecap="round" opacity="0.8"/><line x1="-1.100" y1="0.890" x2="-1.100" y2="-0.890" stroke="#6b7280" stroke-width="0.100" stroke-linecap="round" opacity="0.8"/><line x1="-1.000" y1="0.890" x2="-1.000" y2="-0.890" stroke="#6b7280" stroke-width="0.100" stroke-linecap="round" opacity="0.8"/><line x1="-0.900" y1="0.890" x2="-0.900" y2="-0.890" stroke="#6b7280" stroke-width="0.100" stroke-linecap="round" opacity="0.8"/><line x1="-0.800" y1="0.890" x2="-0.800" y2="-0.890" stroke="#6b7280" stroke-width="0.100" stroke-linecap="round" opacity="0.8"/><line x1="-0.700" y1="0.890" x2="-0.700" y2="-0.890" stroke="#6b7280" stroke-width="0.100" stroke-linecap="round" opacity="0.8"/><line x1="1.397" y1="0.887" x2="1.400" y2="-0.890" stroke="#6b7280" stroke-width="0.100" stroke-linecap="round" opacity="0.8"/><circle cx="-1.725" cy="-1.200" r="0.125" fill="none" stroke="#e6e9ef" stroke-width="0.12" opacity="1"/><rect x="-2.050" y="-0.700" width="2.200" height="1.400" rx="0.000" fill="#c79b5c"/><rect x="1.150" y="-0.700" width="0.900" height="1.400" rx="0.000" fill="#c79b5c"/><polygon points="-1.40,1.75 -0.50,1.75 -0.95,1.15" fill="#ffffff"/></svg>