<svg xmlns="http://www.w3.org/2000/svg" viewBox="-10.27 -11.67 20.54 23.46" preserveAspectRatio="xMidYMid meet" style="width:100%;height:100%"><rect x="-10.27" y="-11.67" width="20.54" height="23.46" fill="#12151c"/><line x1="-7.800" y1="-10.510" x2="7.800" y2="-10.510" stroke="#e6e9ef" stroke-width="0.152" stroke-linecap="round" opacity="1"/><line x1="-7.800" y1="-5.110" x2="-7.800" y2="-10.510" stroke="#e6e9ef" stroke-width="0.152" stroke-linecap="round" opacity="1"/><line x1="-7.800" y1="-1.110" x2="-7.800" y2="5.890" stroke="#e6e9ef" stroke-width="0.152" stroke-linecap="round" opacity="1"/><line x1="7.800" y1="-10.510" x2="7.800" y2="-5.110" stroke="#e6e9ef" stroke-width="0.152" stroke-linecap="round" opacity="1"/><line x1="7.800" y1="-1.110" x2="7.800" y2="5.890" stroke="#e6e9ef" stroke-width="0.152" stroke-linecap="round" opacity="1"/><line x1="-7.875" y1="-10.595" x2="7.875" y2="-10.595" stroke="#6b7280" stroke-width="0.080" stroke-linecap="round" opacity="0.8"/><line x1="-7.875" y1="10.655" x2="-7.875" y2="-10.595" stroke="#6b7280" stroke-width="0.080" stroke-linecap="round" opacity="0.8"/><line x1="7.875" y1="-10.595" x2="7.875" y2="10.655" stroke="#6b7280" stroke-width="0.080" stroke-linecap="round" opacity="0.8"/><line x1="7.875" y1="10.655" x2="-7.875" y2="10.655" stroke="#6b7280" stroke-width="0.080" stroke-linecap="round" opacity="0.8"/><polygon points="-8.001,-10.668 8.001,-10.668 8.001,-4.699 9.271,-3.810 9.271,-2.286 8.001,-1.397 8.001,10.795 -8.001,10.795 -8.001,-1.397 -9.271,-2.286 -9.271,-3.810 -8.001,-4.699" fill="#d24d4d" opacity="0.7" fill-opacity="0.35" stroke="#d24d4d" stroke-width="0.08"/><circle cx="-5.715" cy="0.000" r="1.625" fill="none" stroke="#6b7280" stroke-width="0.1"/><circle cx="5.715" cy="0.000" r="1.625" fill="none" stroke="#6b7280" stroke-width="0.1"/><rect x="-6.465" y="-9.640" width="1.500" height="1.500" rx="0.750" fill="#c79b5c"/><circle cx="-5.715" cy="-8.890" r="0.450" fill="#12151c"/><rect x="-5.195" y="-7.100" width="1.500" height="1.500" rx="0.750" fill="#c79b5c"/><circle cx="-4.445" cy="-6.350" r="0.450" fill="#12151c"/><rect x="-3.925" y="-9.640" width="1.500" height="1.500" rx="0.750" fill="#c79b5c"/><circle cx="-3.175" cy="-8.890" r="0.450" fill="#12151c"/><rect x="-2.655" y="-7.100" width="1.500" height="1.500" rx="0.750" fill="#c79b5c"/><circle cx="-1.905" cy="-6.350" r="0.450" fill="#12151c"/><rect x="-1.385" y="-9.640" width="1.500" height="1.500" rx="0.750" fill="#c79b5c"/><circle cx="-0.635" cy="-8.890" r="0.450" fill="#12151c"/><rect x="-0.115" y="-7.100" width="1.500" height="1.500" rx="0.750" fill="#c79b5c"/><circle cx="0.635" cy="-6.350" r="0.450" fill="#12151c"/><rect x="1.155" y="-9.640" width="1.500" height="1.500" rx="0.750" fill="#c79b5c"/><circle cx="1.905" cy="-8.890" r="0.450" fill="#12151c"/><rect x="2.425" y="-7.100" width="1.500" height="1.500" rx="0.750" fill="#c79b5c"/><circle cx="3.175" cy="-6.350" r="0.450" fill="#12151c"/><rect x="3.695" y="-9.640" width="1.500" height="1.500" rx="0.750" fill="#c79b5c"/><circle cx="4.445" cy="-8.890" r="0.450" fill="#12151c"/><rect x="4.965" y="-7.100" width="1.500" height="1.500" rx="0.750" fill="#c79b5c"/><circle cx="5.715" cy="-6.350" r="0.450" fill="#12151c"/><rect x="-7.380" y="3.310" width="1.500" height="1.500" rx="0.750" fill="#c79b5c"/><circle cx="-6.630" cy="4.060" r="0.450" fill="#12151c"/><rect x="-4.840" y="3.310" width="1.500" height="1.500" rx="0.750" fill="#c79b5c"/><circle cx="-4.090" cy="4.060" r="0.450" fill="#12151c"/><rect x="3.340" y="3.310" width="1.500" height="1.500" rx="0.750" fill="#c79b5c"/><circle cx="4.090" cy="4.060" r="0.450" fill="#12151c"/><rect x="5.880" y="3.310" width="1.500" height="1.500" rx="0.750" fill="#c79b5c"/><circle cx="6.630" cy="4.060" r="0.450" fill="#12151c"/><rect x="-9.075" y="-4.250" width="2.400" height="2.400" rx="1.200" fill="#c79b5c"/><circle cx="-7.875" cy="-3.050" r="0.850" fill="#12151c"/><rect x="6.675" y="-4.250" width="2.400" height="2.400" rx="1.200" fill="#c79b5c"/><circle cx="7.875" cy="-3.050" r="0.850" fill="#12151c"/></svg>