<svg xmlns="http://www.w3.org/2000/svg" viewBox="-11.00 -4.50 22.00 9.00" preserveAspectRatio="xMidYMid meet" style="width:100%;height:100%"><rect x="-11.00" y="-4.50" width="22.00" height="9.00" fill="#12151c"/><line x1="-10.000" y1="-3.500" x2="10.000" y2="-3.500" stroke="#d24d4d" stroke-width="0.080" stroke-linecap="round" opacity="0.7"/><line x1="10.000" y1="-3.500" x2="10.000" y2="3.500" stroke="#d24d4d" stroke-width="0.080" stroke-linecap="round" opacity="0.7"/><line x1="10.000" y1="3.500" x2="-10.000" y2="3.500" stroke="#d24d4d" stroke-width="0.080" stroke-linecap="round" opacity="0.7"/><line x1="-10.000" y1="3.500" x2="-10.000" y2="-3.500" stroke="#d24d4d" stroke-width="0.080" stroke-linecap="round" opacity="0.7"/><path d="M -0.800 0.912 A 0.500 0.500 0 0 1 -0.025 0.980" fill="none" stroke="#e6e9ef" stroke-width="0.12" opacity="1"/><path d="M 0.810 0.934 A 0.500 0.500 0 0 1 -0.000 1.000" fill="none" stroke="#e6e9ef" stroke-width="0.12" opacity="1"/><path d="M -0.800 0.912 A 0.500 0.500 0 0 1 -0.025 0.980" fill="none" stroke="#6b7280" stroke-width="0.12" opacity="0.8"/><path d="M 0.810 0.934 A 0.500 0.500 0 0 1 -0.000 1.000" fill="none" stroke="#6b7280" stroke-width="0.12" opacity="0.8"/><rect x="-8.770" y="-0.150" width="2.300" height="2.300" rx="1.150" fill="#c79b5c"/><circle cx="-7.620" cy="1.000" r="0.800" fill="#12151c"/><rect x="-3.690" y="-0.150" width="2.300" height="2.300" rx="1.150" fill="#c79b5c"/><circle cx="-2.540" cy="1.000" r="0.800" fill="#12151c"/><rect x="1.390" y="-0.150" width="2.300" height="2.300" rx="1.150" fill="#c79b5c"/><circle cx="2.540" cy="1.000" r="0.800" fill="#12151c"/><rect x="6.470" y="-0.150" width="2.300" height="2.300" rx="1.150" fill="#c79b5c"/><circle cx="7.620" cy="1.000" r="0.800" fill="#12151c"/><polygon points="-8.07,3.20 -7.17,3.20 -7.62,2.60" fill="#ffffff"/></svg>