<svg xmlns="http://www.w3.org/2000/svg" viewBox="-14.20 -14.20 28.40 28.40" preserveAspectRatio="xMidYMid meet" style="width:100%;height:100%"><rect x="-14.20" y="-14.20" width="28.40" height="28.40" fill="#12151c"/><line x1="-12.700" y1="-12.700" x2="12.700" y2="-12.700" stroke="#e6e9ef" stroke-width="0.200" stroke-linecap="round" opacity="1"/><line x1="-12.700" y1="12.700" x2="-12.700" y2="-12.700" stroke="#e6e9ef" stroke-width="0.200" stroke-linecap="round" opacity="1"/><line x1="-12.700" y1="12.700" x2="12.700" y2="12.700" stroke="#e6e9ef" stroke-width="0.200" stroke-linecap="round" opacity="1"/><line x1="-12.550" y1="11.750" x2="-12.550" y2="-11.750" stroke="#e6e9ef" stroke-width="0.200" stroke-linecap="round" opacity="1"/><line x1="-11.750" y1="-12.550" x2="11.750" y2="-12.550" stroke="#e6e9ef" stroke-width="0.200" stroke-linecap="round" opacity="1"/><line x1="-11.750" y1="12.550" x2="11.750" y2="12.550" stroke="#e6e9ef" stroke-width="0.200" stroke-linecap="round" opacity="1"/><line x1="-11.067" y1="10.270" x2="-11.066" y2="3.540" stroke="#e6e9ef" stroke-width="0.200" stroke-linecap="round" opacity="1"/><line x1="-11.066" y1="1.540" x2="-11.066" y2="-1.539" stroke="#e6e9ef" stroke-width="0.200" stroke-linecap="round" opacity="1"/><line x1="-11.066" y1="-3.541" x2="-11.066" y2="-9.159" stroke="#e6e9ef" stroke-width="0.200" stroke-linecap="round" opacity="1"/><line x1="-10.270" y1="11.066" x2="9.159" y2="11.066" stroke="#e6e9ef" stroke-width="0.200" stroke-linecap="round" opacity="1"/><line x1="-9.159" y1="-11.066" x2="9.159" y2="-11.066" stroke="#e6e9ef" stroke-width="0.200" stroke-linecap="round" opacity="1"/><line x1="11.066" y1="-1.001" x2="11.066" y2="-9.159" stroke="#e6e9ef" stroke-width="0.200" stroke-linecap="round" opacity="1"/><line x1="11.066" y1="9.159" x2="11.066" y2="1.001" stroke="#e6e9ef" stroke-width="0.200" stroke-linecap="round" opacity="1"/><line x1="12.550" y1="11.750" x2="12.550" y2="-11.750" stroke="#e6e9ef" stroke-width="0.200" stroke-linecap="round" opacity="1"/><line x1="12.700" y1="12.700" x2="12.700" y2="-12.700" stroke="#e6e9ef" stroke-width="0.200" stroke-linecap="round" opacity="1"/><line x1="-10.660" y1="-10.160" x2="-10.160" y2="-10.160" stroke="#4a5160" stroke-width="0.080" stroke-linecap="round" opacity="0.7"/><line x1="-10.660" y1="-2.540" x2="-10.160" y2="-2.540" stroke="#4a5160" stroke-width="0.080" stroke-linecap="round" opacity="0.7"/><line x1="-10.660" y1="2.540" x2="-10.160" y2="2.540" stroke="#4a5160" stroke-width="0.080" stroke-linecap="round" opacity="0.7"/><line x1="-10.160" y1="-10.160" x2="-10.160" y2="-10.660" stroke="#4a5160" stroke-width="0.080" stroke-linecap="round" opacity="0.7"/><line x1="-10.160" y1="-10.160" x2="-9.660" y2="-10.160" stroke="#4a5160" stroke-width="0.080" stroke-linecap="round" opacity="0.7"/><line x1="-10.160" y1="-9.660" x2="-10.160" y2="-10.160" stroke="#4a5160" stroke-width="0.080" stroke-linecap="round" opacity="0.7"/><line x1="-10.160" y1="-2.540" x2="-10.160" y2="-3.040" stroke="#4a5160" stroke-width="0.080" stroke-linecap="round" opacity="0.7"/><line x1="-10.160" y1="-2.540" x2="-9.660" y2="-2.540" stroke="#4a5160" stroke-width="0.080" stroke-linecap="round" opacity="0.7"/><line x1="-10.160" y1="-2.040" x2="-10.160" y2="-2.540" stroke="#4a5160" stroke-width="0.080" stroke-linecap="round" opacity="0.7"/><line x1="-10.160" y1="2.540" x2="-10.160" y2="2.040" stroke="#4a5160" stroke-width="0.080" stroke-linecap="round" opacity="0.7"/><line x1="-10.160" y1="2.540" x2="-9.660" y2="2.540" stroke="#4a5160" stroke-width="0.080" stroke-linecap="round" opacity="0.7"/><line x1="-10.160" y1="3.040" x2="-10.160" y2="2.540" stroke="#4a5160" stroke-width="0.080" stroke-linecap="round" opacity="0.7"/><line x1="-0.500" y1="0.000" x2="0.000" y2="0.000" stroke="#4a5160" stroke-width="0.080" stroke-linecap="round" opacity="0.7"/><line x1="0.000" y1="0.000" x2="0.000" y2="-0.500" stroke="#4a5160" stroke-width="0.080" stroke-linecap="round" opacity="0.7"/><line x1="0.000" y1="0.000" x2="0.500" y2="0.000" stroke="#4a5160" stroke-width="0.080" stroke-linecap="round" opacity="0.7"/><line x1="0.000" y1="0.500" x2="0.000" y2="0.000" stroke="#4a5160" stroke-width="0.080" stroke-linecap="round" opacity="0.7"/><line x1="9.660" y1="-10.160" x2="10.160" y2="-10.160" stroke="#4a5160" stroke-width="0.080" stroke-linecap="round" opacity="0.7"/><line x1="9.660" y1="0.000" x2="10.160" y2="0.000" stroke="#4a5160" stroke-width="0.080" stroke-linecap="round" opacity="0.7"/><line x1="9.660" y1="10.160" x2="10.160" y2="10.160" stroke="#4a5160" stroke-width="0.080" stroke-linecap="round" opacity="0.7"/><line x1="10.160" y1="-10.160" x2="10.160" y2="-10.660" stroke="#4a5160" stroke-width="0.080" stroke-linecap="round" opacity="0.7"/><line x1="10.160" y1="-10.160" x2="10.660" y2="-10.160" stroke="#4a5160" stroke-width="0.080" stroke-linecap="round" opacity="0.7"/><line x1="10.160" y1="-9.660" x2="10.160" y2="-10.160" stroke="#4a5160" stroke-width="0.080" stroke-linecap="round" opacity="0.7"/><line x1="10.160" y1="0.000" x2="10.160" y2="-0.500" stroke="#4a5160" stroke-width="0.080" stroke-linecap="round" opacity="0.7"/><line x1="10.160" y1="0.000" x2="10.660" y2="0.000" stroke="#4a5160" stroke-width="0.080" stroke-linecap="round" opacity="0.7"/><line x1="10.160" y1="0.500" x2="10.160" y2="0.000" stroke="#4a5160" stroke-width="0.080" stroke-linecap="round" opacity="0.7"/><line x1="10.160" y1="10.160" x2="10.160" y2="9.660" stroke="#4a5160" stroke-width="0.080" stroke-linecap="round" opacity="0.7"/><line x1="10.160" y1="10.160" x2="10.660" y2="10.160" stroke="#4a5160" stroke-width="0.080" stroke-linecap="round" opacity="0.7"/><line x1="10.160" y1="10.660" x2="10.160" y2="10.160" stroke="#4a5160" stroke-width="0.080" stroke-linecap="round" opacity="0.7"/><line x1="-13.200" y1="-13.200" x2="13.200" y2="-13.200" stroke="#d24d4d" stroke-width="0.080" stroke-linecap="round" opacity="0.7"/><line x1="-13.200" y1="13.200" x2="-13.200" y2="-13.200" stroke="#d24d4d" stroke-width="0.080" stroke-linecap="round" opacity="0.7"/><line x1="-13.200" y1="13.200" x2="13.200" y2="13.200" stroke="#d24d4d" stroke-width="0.080" stroke-linecap="round" opacity="0.7"/><line x1="13.200" y1="13.200" x2="13.200" y2="-13.200" stroke="#d24d4d" stroke-width="0.080" stroke-linecap="round" opacity="0.7"/><line x1="-12.700" y1="-12.700" x2="12.700" y2="-12.700" stroke="#6b7280" stroke-width="0.100" stroke-linecap="round" opacity="0.8"/><line x1="-12.700" y1="12.700" x2="-12.700" y2="-12.700" stroke="#6b7280" stroke-width="0.100" stroke-linecap="round" opacity="0.8"/><line x1="-12.700" y1="12.700" x2="12.700" y2="12.700" stroke="#6b7280" stroke-width="0.100" stroke-linecap="round" opacity="0.8"/><line x1="-12.550" y1="11.750" x2="-12.550" y2="-11.750" stroke="#6b7280" stroke-width="0.100" stroke-linecap="round" opacity="0.8"/><line x1="-11.750" y1="-12.550" x2="11.750" y2="-12.550" stroke="#6b7280" stroke-width="0.100" stroke-linecap="round" opacity="0.8"/><line x1="-11.750" y1="12.550" x2="11.750" y2="12.550" stroke="#6b7280" stroke-width="0.100" stroke-linecap="round" opacity="0.8"/><line x1="-11.067" y1="10.270" x2="-11.066" y2="-10.270" stroke="#6b7280" stroke-width="0.100" stroke-linecap="round" opacity="0.8"/><line x1="-10.270" y1="-11.066" x2="10.270" y2="-11.066" stroke="#6b7280" stroke-width="0.100" stroke-linecap="round" opacity="0.8"/><line x1="-10.270" y1="11.066" x2="10.270" y2="11.066" stroke="#6b7280" stroke-width="0.100" stroke-linecap="round" opacity="0.8"/><line x1="11.066" y1="10.270" x2="11.066" y2="-10.270" stroke="#6b7280" stroke-width="0.100" stroke-linecap="round" opacity="0.8"/><line x1="12.550" y1="11.750" x2="12.550" y2="-11.750" stroke="#6b7280" stroke-width="0.100" stroke-linecap="round" opacity="0.8"/><line x1="12.700" y1="12.700" x2="12.700" y2="-12.700" stroke="#6b7280" stroke-width="0.100" stroke-linecap="round" opacity="0.8"/><path d="M -12.550 -11.750 A 0.800 0.800 0 0 1 -11.750 -12.550" fill="none" stroke="#e6e9ef" stroke-width="0.12" opacity="1"/><path d="M -11.750 12.550 A 0.800 0.800 0 0 1 -12.550 11.750" fill="none" stroke="#e6e9ef" stroke-width="0.12" opacity="1"/><path d="M -10.270 11.066 A 0.797 0.797 0 0 1 -11.067 10.270" fill="none" stroke="#e6e9ef" stroke-width="0.12" opacity="1"/><path d="M 11.750 -12.550 A 0.800 0.800 0 0 1 12.550 -11.750" fill="none" stroke="#e6e9ef" stroke-width="0.12" opacity="1"/><path d="M 12.550 11.750 A 0.800 0.800 0 0 1 11.750 12.550" fill="none" stroke="#e6e9ef" stroke-width="0.12" opacity="1"/><path d="M -12.550 -11.750 A 0.800 0.800 0 0 1 -11.750 -12.550" fill="none" stroke="#6b7280" stroke-width="0.12" opacity="0.8"/><path d="M -11.750 12.550 A 0.800 0.800 0 0 1 -12.550 11.750" fill="none" stroke="#6b7280" stroke-width="0.12" opacity="0.8"/><path d="M -11.066 -10.270 A 0.796 0.796 0 0 1 -10.270 -11.066" fill="none" stroke="#6b7280" stroke-width="0.12" opacity="0.8"/><path d="M -10.270 11.066 A 0.797 0.797 0 0 1 -11.067 10.270" fill="none" stroke="#6b7280" stroke-width="0.12" opacity="0.8"/><path d="M 10.270 -11.066 A 0.796 0.796 0 0 1 11.066 -10.270" fill="none" stroke="#6b7280" stroke-width="0.12" opacity="0.8"/><path d="M 11.066 10.270 A 0.796 0.796 0 0 1 10.270 11.066" fill="none" stroke="#6b7280" stroke-width="0.12" opacity="0.8"/><path d="M 11.750 -12.550 A 0.800 0.800 0 0 1 12.550 -11.750" fill="none" stroke="#6b7280" stroke-width="0.12" opacity="0.8"/><path d="M 12.550 11.750 A 0.800 0.800 0 0 1 11.750 12.550" fill="none" stroke="#6b7280" stroke-width="0.12" opacity="0.8"/><circle cx="-10.160" cy="-10.160" r="1.000" fill="none" stroke="#4a5160" stroke-width="0.12" opacity="0.7"/><circle cx="-10.160" cy="-10.160" r="0.650" fill="none" stroke="#4a5160" stroke-width="0.12" opacity="0.7"/><circle cx="-10.160" cy="-2.540" r="1.000" fill="none" stroke="#4a5160" stroke-width="0.12" opacity="0.7"/><circle cx="-10.160" cy="-2.540" r="0.650" fill="none" stroke="#4a5160" stroke-width="0.12" opacity="0.7"/><circle cx="-10.160" cy="2.540" r="1.000" fill="none" stroke="#4a5160" stroke-width="0.12" opacity="0.7"/><circle cx="-10.160" cy="2.540" r="0.650" fill="none" stroke="#4a5160" stroke-width="0.12" opacity="0.7"/><circle cx="10.160" cy="-10.160" r="1.000" fill="none" stroke="#4a5160" stroke-width="0.12" opacity="0.7"/><circle cx="10.160" cy="-10.160" r="0.650" fill="none" stroke="#4a5160" stroke-width="0.12" opacity="0.7"/><circle cx="10.160" cy="0.000" r="1.000" fill="none" stroke="#4a5160" stroke-width="0.12" opacity="0.7"/><circle cx="10.160" cy="0.000" r="0.650" fill="none" stroke="#4a5160" stroke-width="0.12" opacity="0.7"/><circle cx="10.160" cy="10.160" r="1.000" fill="none" stroke="#4a5160" stroke-width="0.12" opacity="0.7"/><circle cx="10.160" cy="10.160" r="0.650" fill="none" stroke="#4a5160" stroke-width="0.12" opacity="0.7"/><circle cx="-11.900" cy="2.500" r="0.400" fill="none" stroke="#6b7280" stroke-width="0.12" opacity="0.8"/><rect x="-11.160" y="1.540" width="2.000" height="2.000" rx="1.000" fill="#c79b5c"/><circle cx="-10.160" cy="2.540" r="0.650" fill="#12151c"/><rect x="-11.160" y="-3.540" width="2.000" height="2.000" rx="1.000" fill="#c79b5c"/><circle cx="-10.160" cy="-2.540" r="0.650" fill="#12151c"/><rect x="-11.160" y="-11.160" width="2.000" height="2.000" rx="1.000" fill="#c79b5c"/><circle cx="-10.160" cy="-10.160" r="0.650" fill="#12151c"/><rect x="9.160" y="-11.160" width="2.000" height="2.000" rx="1.000" fill="#c79b5c"/><circle cx="10.160" cy="-10.160" r="0.650" fill="#12151c"/><rect x="9.160" y="-1.000" width="2.000" height="2.000" rx="1.000" fill="#c79b5c"/><circle cx="10.160" cy="0.000" r="0.650" fill="#12151c"/><rect x="9.160" y="9.160" width="2.000" height="2.000" rx="1.000" fill="#c79b5c"/><circle cx="10.160" cy="10.160" r="0.650" fill="#12151c"/></svg>