<svg xmlns="http://www.w3.org/2000/svg" viewBox="-1.50 -7.85 11.64 13.16" preserveAspectRatio="xMidYMid meet" style="width:100%;height:100%"><rect x="-1.50" y="-7.85" width="11.64" height="13.16" fill="#12151c"/><rect x="5.588" y="-3.048" width="0.254" height="1.016" fill="#1e222b" stroke="#4ea1ff" stroke-width="0.25"/><rect x="5.588" y="-1.778" width="0.254" height="1.016" fill="#1e222b" stroke="#4ea1ff" stroke-width="0.25"/><rect x="5.588" y="-0.508" width="0.254" height="1.016" fill="#1e222b" stroke="#4ea1ff" stroke-width="0.25"/><polyline points="3.810,-2.540 4.445,-2.540 4.445,-1.905" fill="none" stroke="#4ea1ff" stroke-width="0.25" stroke-linejoin="round"/><polyline points="4.445,-0.000 3.810,-0.000" fill="none" stroke="#4ea1ff" stroke-width="0.25" stroke-linejoin="round"/><polyline points="4.445,-0.000 4.445,-0.635" fill="none" stroke="#4ea1ff" stroke-width="0.25" stroke-linejoin="round"/><polyline points="4.826,0.508 5.334,0.508 5.334,-3.048 4.826,-3.048 4.826,0.508" fill="#1e222b" stroke="#4ea1ff" stroke-width="0.25" stroke-linejoin="round"/><polyline points="5.715,-1.270 7.620,-1.270" fill="none" stroke="#4ea1ff" stroke-width="0.25" stroke-linejoin="round"/><polyline points="5.842,-2.540 7.620,-2.540" fill="none" stroke="#4ea1ff" stroke-width="0.25" stroke-linejoin="round"/><polyline points="5.842,-1.270 6.350,-1.778 6.350,-0.762 5.842,-1.270" fill="#1e222b" stroke="#4ea1ff" stroke-width="0.25" stroke-linejoin="round"/><polyline points="5.842,-0.000 7.620,-0.000" fill="none" stroke="#4ea1ff" stroke-width="0.25" stroke-linejoin="round"/><polyline points="7.620,-3.302 7.620,-2.540" fill="none" stroke="#4ea1ff" stroke-width="0.25" stroke-linejoin="round"/><polyline points="7.620,-1.270 7.620,-0.000" fill="none" stroke="#4ea1ff" stroke-width="0.25" stroke-linejoin="round"/><polyline points="7.620,-0.000 7.620,0.762" fill="none" stroke="#4ea1ff" stroke-width="0.25" stroke-linejoin="round"/><circle cx="6.096" cy="-1.270" r="2.540" fill="none" stroke="#4ea1ff" stroke-width="0.25"/><line x1="0.000" y1="-2.540" x2="3.810" y2="-2.540" stroke="#e6e9ef" stroke-width="0.2"/><circle cx="0.000" cy="-2.540" r="0.4" fill="#4ea1ff"/><line x1="0.000" y1="-0.000" x2="3.810" y2="-0.000" stroke="#e6e9ef" stroke-width="0.2"/><circle cx="0.000" cy="-0.000" r="0.4" fill="#4ea1ff"/><line x1="7.620" y1="-6.350" x2="7.620" y2="-3.302" stroke="#e6e9ef" stroke-width="0.2"/><circle cx="7.620" cy="-6.350" r="0.4" fill="#4ea1ff"/><line x1="7.620" y1="3.810" x2="7.620" y2="0.762" stroke="#e6e9ef" stroke-width="0.2"/><circle cx="7.620" cy="3.810" r="0.4" fill="#4ea1ff"/></svg>