<svg xmlns="http://www.w3.org/2000/svg" viewBox="-7.45 -4.35 14.90 7.40" preserveAspectRatio="xMidYMid meet" style="width:100%;height:100%"><rect x="-7.45" y="-4.35" width="14.90" height="7.40" fill="#12151c"/><line x1="-6.450" y1="-3.350" x2="6.450" y2="-3.350" stroke="#d24d4d" stroke-width="0.080" stroke-linecap="round" opacity="0.7"/><line x1="6.450" y1="-3.350" x2="6.450" y2="2.050" stroke="#d24d4d" stroke-width="0.080" stroke-linecap="round" opacity="0.7"/><line x1="6.450" y1="2.050" x2="-6.450" y2="2.050" stroke="#d24d4d" stroke-width="0.080" stroke-linecap="round" opacity="0.7"/><line x1="-6.450" y1="2.050" x2="-6.450" y2="-3.350" stroke="#d24d4d" stroke-width="0.080" stroke-linecap="round" opacity="0.7"/><circle cx="-3.750" cy="0.000" r="0.300" fill="none" stroke="#6b7280" stroke-width="0.12" opacity="0.8"/><circle cx="-1.250" cy="0.000" r="0.300" fill="none" stroke="#6b7280" stroke-width="0.12" opacity="0.8"/><circle cx="1.250" cy="0.000" r="0.300" fill="none" stroke="#6b7280" stroke-width="0.12" opacity="0.8"/><circle cx="3.750" cy="0.000" r="0.300" fill="none" stroke="#6b7280" stroke-width="0.12" opacity="0.8"/><rect x="-4.535" y="-0.775" width="1.570" height="1.550" rx="0.000" fill="#c79b5c"/><circle cx="-3.750" cy="0.000" r="0.425" fill="#12151c"/><rect x="-2.025" y="-0.775" width="1.550" height="1.550" rx="0.775" fill="#c79b5c"/><circle cx="-1.250" cy="0.000" r="0.425" fill="#12151c"/><rect x="0.475" y="-0.775" width="1.550" height="1.550" rx="0.775" fill="#c79b5c"/><circle cx="1.250" cy="0.000" r="0.425" fill="#12151c"/><rect x="2.975" y="-0.775" width="1.550" height="1.550" rx="0.775" fill="#c79b5c"/><circle cx="3.750" cy="0.000" r="0.425" fill="#12151c"/><polygon points="-4.20,1.83 -3.30,1.83 -3.75,1.23" fill="#ffffff"/></svg>