<svg xmlns="http://www.w3.org/2000/svg" viewBox="-8.24 -6.08 16.48 12.33" preserveAspectRatio="xMidYMid meet" style="width:100%;height:100%"><rect x="-8.24" y="-6.08" width="16.48" height="12.33" fill="#12151c"/><line x1="-6.985" y1="-4.826" x2="-5.715" y2="-4.826" stroke="#e6e9ef" stroke-width="0.200" stroke-linecap="round" opacity="1"/><line x1="-6.985" y1="4.445" x2="-6.985" y2="-4.826" stroke="#e6e9ef" stroke-width="0.200" stroke-linecap="round" opacity="1"/><line x1="-6.985" y1="4.445" x2="6.985" y2="4.445" stroke="#e6e9ef" stroke-width="0.200" stroke-linecap="round" opacity="1"/><line x1="-6.160" y1="-3.620" x2="-5.715" y2="-3.175" stroke="#e6e9ef" stroke-width="0.200" stroke-linecap="round" opacity="1"/><line x1="-6.160" y1="-3.620" x2="6.160" y2="-3.620" stroke="#e6e9ef" stroke-width="0.200" stroke-linecap="round" opacity="1"/><line x1="-6.160" y1="3.620" x2="-6.160" y2="-3.620" stroke="#e6e9ef" stroke-width="0.200" stroke-linecap="round" opacity="1"/><line x1="-6.160" y1="3.620" x2="-5.715" y2="3.175" stroke="#e6e9ef" stroke-width="0.200" stroke-linecap="round" opacity="1"/><line x1="-6.160" y1="3.620" x2="-2.540" y2="3.620" stroke="#e6e9ef" stroke-width="0.200" stroke-linecap="round" opacity="1"/><line x1="-5.715" y1="-4.445" x2="-5.715" y2="-4.826" stroke="#e6e9ef" stroke-width="0.200" stroke-linecap="round" opacity="1"/><line x1="-5.715" y1="-4.445" x2="-1.270" y2="-4.445" stroke="#e6e9ef" stroke-width="0.200" stroke-linecap="round" opacity="1"/><line x1="-5.715" y1="-3.175" x2="5.715" y2="-3.175" stroke="#e6e9ef" stroke-width="0.200" stroke-linecap="round" opacity="1"/><line x1="-5.715" y1="3.175" x2="-5.715" y2="-3.175" stroke="#e6e9ef" stroke-width="0.200" stroke-linecap="round" opacity="1"/><line x1="-5.715" y1="3.175" x2="5.715" y2="3.175" stroke="#e6e9ef" stroke-width="0.200" stroke-linecap="round" opacity="1"/><line x1="-4.064" y1="4.445" x2="-3.810" y2="3.937" stroke="#e6e9ef" stroke-width="0.200" stroke-linecap="round" opacity="1"/><line x1="-3.810" y1="3.937" x2="-3.556" y2="4.445" stroke="#e6e9ef" stroke-width="0.200" stroke-linecap="round" opacity="1"/><line x1="-2.540" y1="4.445" x2="-2.540" y2="3.175" stroke="#e6e9ef" stroke-width="0.200" stroke-linecap="round" opacity="1"/><line x1="-1.270" y1="-4.826" x2="1.270" y2="-4.826" stroke="#e6e9ef" stroke-width="0.200" stroke-linecap="round" opacity="1"/><line x1="-1.270" y1="-4.445" x2="-1.270" y2="-4.826" stroke="#e6e9ef" stroke-width="0.200" stroke-linecap="round" opacity="1"/><line x1="1.270" y1="-4.445" x2="1.270" y2="-4.826" stroke="#e6e9ef" stroke-width="0.200" stroke-linecap="round" opacity="1"/><line x1="1.270" y1="-4.445" x2="5.715" y2="-4.445" stroke="#e6e9ef" stroke-width="0.200" stroke-linecap="round" opacity="1"/><line x1="2.540" y1="3.620" x2="6.160" y2="3.620" stroke="#e6e9ef" stroke-width="0.200" stroke-linecap="round" opacity="1"/><line x1="2.540" y1="4.445" x2="2.540" y2="3.175" stroke="#e6e9ef" stroke-width="0.200" stroke-linecap="round" opacity="1"/><line x1="5.715" y1="-4.826" x2="6.985" y2="-4.826" stroke="#e6e9ef" stroke-width="0.200" stroke-linecap="round" opacity="1"/><line x1="5.715" y1="-4.445" x2="5.715" y2="-4.826" stroke="#e6e9ef" stroke-width="0.200" stroke-linecap="round" opacity="1"/><line x1="5.715" y1="-3.175" x2="6.160" y2="-3.620" stroke="#e6e9ef" stroke-width="0.200" stroke-linecap="round" opacity="1"/><line x1="5.715" y1="3.175" x2="5.715" y2="-3.175" stroke="#e6e9ef" stroke-width="0.200" stroke-linecap="round" opacity="1"/><line x1="5.715" y1="3.175" x2="6.160" y2="3.620" stroke="#e6e9ef" stroke-width="0.200" stroke-linecap="round" opacity="1"/><line x1="6.160" y1="3.620" x2="6.160" y2="-3.620" stroke="#e6e9ef" stroke-width="0.200" stroke-linecap="round" opacity="1"/><line x1="6.985" y1="4.445" x2="6.985" y2="-4.826" stroke="#e6e9ef" stroke-width="0.200" stroke-linecap="round" opacity="1"/><line x1="-4.310" y1="-1.270" x2="-3.810" y2="-1.270" stroke="#4a5160" stroke-width="0.100" stroke-linecap="round" opacity="0.7"/><line x1="-4.310" y1="1.270" x2="-3.810" y2="1.270" stroke="#4a5160" stroke-width="0.100" stroke-linecap="round" opacity="0.7"/><line x1="-3.810" y1="-1.270" x2="-3.810" y2="-1.770" stroke="#4a5160" stroke-width="0.100" stroke-linecap="round" opacity="0.7"/><line x1="-3.810" y1="-1.270" x2="-3.310" y2="-1.270" stroke="#4a5160" stroke-width="0.100" stroke-linecap="round" opacity="0.7"/><line x1="-3.810" y1="-0.770" x2="-3.810" y2="-1.270" stroke="#4a5160" stroke-width="0.100" stroke-linecap="round" opacity="0.7"/><line x1="-3.810" y1="1.270" x2="-3.810" y2="0.770" stroke="#4a5160" stroke-width="0.100" stroke-linecap="round" opacity="0.7"/><line x1="-3.810" y1="1.270" x2="-3.310" y2="1.270" stroke="#4a5160" stroke-width="0.100" stroke-linecap="round" opacity="0.7"/><line x1="-3.810" y1="1.770" x2="-3.810" y2="1.270" stroke="#4a5160" stroke-width="0.100" stroke-linecap="round" opacity="0.7"/><line x1="-1.770" y1="-1.270" x2="-1.270" y2="-1.270" stroke="#4a5160" stroke-width="0.100" stroke-linecap="round" opacity="0.7"/><line x1="-1.770" y1="1.270" x2="-1.270" y2="1.270" stroke="#4a5160" stroke-width="0.100" stroke-linecap="round" opacity="0.7"/><line x1="-1.270" y1="-1.270" x2="-1.270" y2="-1.770" stroke="#4a5160" stroke-width="0.100" stroke-linecap="round" opacity="0.7"/><line x1="-1.270" y1="-1.270" x2="-0.770" y2="-1.270" stroke="#4a5160" stroke-width="0.100" stroke-linecap="round" opacity="0.7"/><line x1="-1.270" y1="-0.770" x2="-1.270" y2="-1.270" stroke="#4a5160" stroke-width="0.100" stroke-linecap="round" opacity="0.7"/><line x1="-1.270" y1="1.270" x2="-1.270" y2="0.770" stroke="#4a5160" stroke-width="0.100" stroke-linecap="round" opacity="0.7"/><line x1="-1.270" y1="1.270" x2="-0.770" y2="1.270" stroke="#4a5160" stroke-width="0.100" stroke-linecap="round" opacity="0.7"/><line x1="-1.270" y1="1.770" x2="-1.270" y2="1.270" stroke="#4a5160" stroke-width="0.100" stroke-linecap="round" opacity="0.7"/><line x1="-0.500" y1="0.000" x2="0.000" y2="0.000" stroke="#4a5160" stroke-width="0.100" stroke-linecap="round" opacity="0.7"/><line x1="0.000" y1="0.000" x2="0.000" y2="-0.500" stroke="#4a5160" stroke-width="0.100" stroke-linecap="round" opacity="0.7"/><line x1="0.000" y1="0.000" x2="0.500" y2="0.000" stroke="#4a5160" stroke-width="0.100" stroke-linecap="round" opacity="0.7"/><line x1="0.000" y1="0.500" x2="0.000" y2="0.000" stroke="#4a5160" stroke-width="0.100" stroke-linecap="round" opacity="0.7"/><line x1="0.770" y1="-1.270" x2="1.270" y2="-1.270" stroke="#4a5160" stroke-width="0.100" stroke-linecap="round" opacity="0.7"/><line x1="0.770" y1="1.270" x2="1.270" y2="1.270" stroke="#4a5160" stroke-width="0.100" stroke-linecap="round" opacity="0.7"/><line x1="1.270" y1="-1.270" x2="1.270" y2="-1.770" stroke="#4a5160" stroke-width="0.100" stroke-linecap="round" opacity="0.7"/><line x1="1.270" y1="-1.270" x2="1.770" y2="-1.270" stroke="#4a5160" stroke-width="0.100" stroke-linecap="round" opacity="0.7"/><line x1="1.270" y1="-0.770" x2="1.270" y2="-1.270" stroke="#4a5160" stroke-width="0.100" stroke-linecap="round" opacity="0.7"/><line x1="1.270" y1="1.270" x2="1.270" y2="0.770" stroke="#4a5160" stroke-width="0.100" stroke-linecap="round" opacity="0.7"/><line x1="1.270" y1="1.270" x2="1.770" y2="1.270" stroke="#4a5160" stroke-width="0.100" stroke-linecap="round" opacity="0.7"/><line x1="1.270" y1="1.770" x2="1.270" y2="1.270" stroke="#4a5160" stroke-width="0.100" stroke-linecap="round" opacity="0.7"/><line x1="3.310" y1="-1.270" x2="3.810" y2="-1.270" stroke="#4a5160" stroke-width="0.100" stroke-linecap="round" opacity="0.7"/><line x1="3.310" y1="1.270" x2="3.810" y2="1.270" stroke="#4a5160" stroke-width="0.100" stroke-linecap="round" opacity="0.7"/><line x1="3.810" y1="-1.270" x2="3.810" y2="-1.770" stroke="#4a5160" stroke-width="0.100" stroke-linecap="round" opacity="0.7"/><line x1="3.810" y1="-1.270" x2="4.310" y2="-1.270" stroke="#4a5160" stroke-width="0.100" stroke-linecap="round" opacity="0.7"/><line x1="3.810" y1="-0.770" x2="3.810" y2="-1.270" stroke="#4a5160" stroke-width="0.100" stroke-linecap="round" opacity="0.7"/><line x1="3.810" y1="1.270" x2="3.810" y2="0.770" stroke="#4a5160" stroke-width="0.100" stroke-linecap="round" opacity="0.7"/><line x1="3.810" y1="1.270" x2="4.310" y2="1.270" stroke="#4a5160" stroke-width="0.100" stroke-linecap="round" opacity="0.7"/><line x1="3.810" y1="1.770" x2="3.810" y2="1.270" stroke="#4a5160" stroke-width="0.100" stroke-linecap="round" opacity="0.7"/><line x1="-6.985" y1="-4.826" x2="-5.715" y2="-4.826" stroke="#6b7280" stroke-width="0.100" stroke-linecap="round" opacity="0.8"/><line x1="-6.985" y1="4.445" x2="-6.985" y2="-4.826" stroke="#6b7280" stroke-width="0.100" stroke-linecap="round" opacity="0.8"/><line x1="-6.985" y1="4.445" x2="6.985" y2="4.445" stroke="#6b7280" stroke-width="0.100" stroke-linecap="round" opacity="0.8"/><line x1="-6.160" y1="-3.620" x2="-5.715" y2="-3.175" stroke="#6b7280" stroke-width="0.100" stroke-linecap="round" opacity="0.8"/><line x1="-6.160" y1="-3.620" x2="6.160" y2="-3.620" stroke="#6b7280" stroke-width="0.100" stroke-linecap="round" opacity="0.8"/><line x1="-6.160" y1="3.620" x2="-6.160" y2="-3.620" stroke="#6b7280" stroke-width="0.100" stroke-linecap="round" opacity="0.8"/><line x1="-6.160" y1="3.620" x2="-5.715" y2="3.175" stroke="#6b7280" stroke-width="0.100" stroke-linecap="round" opacity="0.8"/><line x1="-6.160" y1="3.620" x2="-2.540" y2="3.620" stroke="#6b7280" stroke-width="0.100" stroke-linecap="round" opacity="0.8"/><line x1="-5.715" y1="-4.445" x2="-5.715" y2="-4.826" stroke="#6b7280" stroke-width="0.100" stroke-linecap="round" opacity="0.8"/><line x1="-5.715" y1="-4.445" x2="-1.270" y2="-4.445" stroke="#6b7280" stroke-width="0.100" stroke-linecap="round" opacity="0.8"/><line x1="-5.715" y1="-3.175" x2="5.715" y2="-3.175" stroke="#6b7280" stroke-width="0.100" stroke-linecap="round" opacity="0.8"/><line x1="-5.715" y1="3.175" x2="-5.715" y2="-3.175" stroke="#6b7280" stroke-width="0.100" stroke-linecap="round" opacity="0.8"/><line x1="-5.715" y1="3.175" x2="5.715" y2="3.175" stroke="#6b7280" stroke-width="0.100" stroke-linecap="round" opacity="0.8"/><line x1="-4.128" y1="-1.587" x2="-3.493" y2="-1.587" stroke="#6b7280" stroke-width="0.100" stroke-linecap="round" opacity="0.8"/><line x1="-4.128" y1="-0.953" x2="-4.128" y2="-1.587" stroke="#6b7280" stroke-width="0.100" stroke-linecap="round" opacity="0.8"/><line x1="-4.128" y1="-0.953" x2="-3.493" y2="-0.953" stroke="#6b7280" stroke-width="0.100" stroke-linecap="round" opacity="0.8"/><line x1="-4.128" y1="0.953" x2="-3.493" y2="0.953" stroke="#6b7280" stroke-width="0.100" stroke-linecap="round" opacity="0.8"/><line x1="-4.128" y1="1.587" x2="-4.128" y2="0.953" stroke="#6b7280" stroke-width="0.100" stroke-linecap="round" opacity="0.8"/><line x1="-4.128" y1="1.587" x2="-3.493" y2="1.587" stroke="#6b7280" stroke-width="0.100" stroke-linecap="round" opacity="0.8"/><line x1="-3.493" y1="-0.953" x2="-3.493" y2="-1.587" stroke="#6b7280" stroke-width="0.100" stroke-linecap="round" opacity="0.8"/><line x1="-3.493" y1="1.587" x2="-3.493" y2="0.953" stroke="#6b7280" stroke-width="0.100" stroke-linecap="round" opacity="0.8"/><line x1="-2.540" y1="4.445" x2="-2.540" y2="3.175" stroke="#6b7280" stroke-width="0.100" stroke-linecap="round" opacity="0.8"/><line x1="-1.587" y1="-1.587" x2="-0.953" y2="-1.587" stroke="#6b7280" stroke-width="0.100" stroke-linecap="round" opacity="0.8"/><line x1="-1.587" y1="-0.953" x2="-1.587" y2="-1.587" stroke="#6b7280" stroke-width="0.100" stroke-linecap="round" opacity="0.8"/><line x1="-1.587" y1="-0.953" x2="-0.953" y2="-0.953" stroke="#6b7280" stroke-width="0.100" stroke-linecap="round" opacity="0.8"/><line x1="-1.587" y1="0.953" x2="-0.953" y2="0.953" stroke="#6b7280" stroke-width="0.100" stroke-linecap="round" opacity="0.8"/><line x1="-1.587" y1="1.587" x2="-1.587" y2="0.953" stroke="#6b7280" stroke-width="0.100" stroke-linecap="round" opacity="0.8"/><line x1="-1.587" y1="1.587" x2="-0.953" y2="1.587" stroke="#6b7280" stroke-width="0.100" stroke-linecap="round" opacity="0.8"/><line x1="-1.270" y1="-4.826" x2="1.270" y2="-4.826" stroke="#6b7280" stroke-width="0.100" stroke-linecap="round" opacity="0.8"/><line x1="-1.270" y1="-4.445" x2="-1.270" y2="-4.826" stroke="#6b7280" stroke-width="0.100" stroke-linecap="round" opacity="0.8"/><line x1="-0.953" y1="-0.953" x2="-0.953" y2="-1.587" stroke="#6b7280" stroke-width="0.100" stroke-linecap="round" opacity="0.8"/><line x1="-0.953" y1="1.587" x2="-0.953" y2="0.953" stroke="#6b7280" stroke-width="0.100" stroke-linecap="round" opacity="0.8"/><line x1="0.953" y1="-1.587" x2="1.587" y2="-1.587" stroke="#6b7280" stroke-width="0.100" stroke-linecap="round" opacity="0.8"/><line x1="0.953" y1="-0.953" x2="0.953" y2="-1.587" stroke="#6b7280" stroke-width="0.100" stroke-linecap="round" opacity="0.8"/><line x1="0.953" y1="-0.953" x2="1.587" y2="-0.953" stroke="#6b7280" stroke-width="0.100" stroke-linecap="round" opacity="0.8"/><line x1="0.953" y1="0.953" x2="1.587" y2="0.953" stroke="#6b7280" stroke-width="0.100" stroke-linecap="round" opacity="0.8"/><line x1="0.953" y1="1.587" x2="0.953" y2="0.953" stroke="#6b7280" stroke-width="0.100" stroke-linecap="round" opacity="0.8"/><line x1="0.953" y1="1.587" x2="1.587" y2="1.587" stroke="#6b7280" stroke-width="0.100" stroke-linecap="round" opacity="0.8"/><line x1="1.270" y1="-4.445" x2="1.270" y2="-4.826" stroke="#6b7280" stroke-width="0.100" stroke-linecap="round" opacity="0.8"/><line x1="1.270" y1="-4.445" x2="5.715" y2="-4.445" stroke="#6b7280" stroke-width="0.100" stroke-linecap="round" opacity="0.8"/><line x1="1.587" y1="-0.953" x2="1.587" y2="-1.587" stroke="#6b7280" stroke-width="0.100" stroke-linecap="round" opacity="0.8"/><line x1="1.587" y1="1.587" x2="1.587" y2="0.953" stroke="#6b7280" stroke-width="0.100" stroke-linecap="round" opacity="0.8"/><line x1="2.540" y1="3.620" x2="6.160" y2="3.620" stroke="#6b7280" stroke-width="0.100" stroke-linecap="round" opacity="0.8"/><line x1="2.540" y1="4.445" x2="2.540" y2="3.175" stroke="#6b7280" stroke-width="0.100" stroke-linecap="round" opacity="0.8"/><line x1="3.493" y1="-1.587" x2="4.128" y2="-1.587" stroke="#6b7280" stroke-width="0.100" stroke-linecap="round" opacity="0.8"/><line x1="3.493" y1="-0.953" x2="3.493" y2="-1.587" stroke="#6b7280" stroke-width="0.100" stroke-linecap="round" opacity="0.8"/><line x1="3.493" y1="-0.953" x2="4.128" y2="-0.953" stroke="#6b7280" stroke-width="0.100" stroke-linecap="round" opacity="0.8"/><line x1="3.493" y1="0.953" x2="4.128" y2="0.953" stroke="#6b7280" stroke-width="0.100" stroke-linecap="round" opacity="0.8"/><line x1="3.493" y1="1.587" x2="3.493" y2="0.953" stroke="#6b7280" stroke-width="0.100" stroke-linecap="round" opacity="0.8"/><line x1="3.493" y1="1.587" x2="4.128" y2="1.587" stroke="#6b7280" stroke-width="0.100" stroke-linecap="round" opacity="0.8"/><line x1="4.128" y1="-0.953" x2="4.128" y2="-1.587" stroke="#6b7280" stroke-width="0.100" stroke-linecap="round" opacity="0.8"/><line x1="4.128" y1="1.587" x2="4.128" y2="0.953" stroke="#6b7280" stroke-width="0.100" stroke-linecap="round" opacity="0.8"/><line x1="5.715" y1="-4.826" x2="6.985" y2="-4.826" stroke="#6b7280" stroke-width="0.100" stroke-linecap="round" opacity="0.8"/><line x1="5.715" y1="-4.445" x2="5.715" y2="-4.826" stroke="#6b7280" stroke-width="0.100" stroke-linecap="round" opacity="0.8"/><line x1="5.715" y1="-3.175" x2="6.160" y2="-3.620" stroke="#6b7280" stroke-width="0.100" stroke-linecap="round" opacity="0.8"/><line x1="5.715" y1="3.175" x2="5.715" y2="-3.175" stroke="#6b7280" stroke-width="0.100" stroke-linecap="round" opacity="0.8"/><line x1="5.715" y1="3.175" x2="6.160" y2="3.620" stroke="#6b7280" stroke-width="0.100" stroke-linecap="round" opacity="0.8"/><line x1="6.160" y1="3.620" x2="6.160" y2="-3.620" stroke="#6b7280" stroke-width="0.100" stroke-linecap="round" opacity="0.8"/><line x1="6.985" y1="4.445" x2="6.985" y2="-4.826" stroke="#6b7280" stroke-width="0.100" stroke-linecap="round" opacity="0.8"/><line x1="-7.240" y1="-5.080" x2="7.240" y2="-5.080" stroke="#d24d4d" stroke-width="0.080" stroke-linecap="round" opacity="0.7"/><line x1="7.240" y1="-5.080" x2="7.240" y2="4.700" stroke="#d24d4d" stroke-width="0.080" stroke-linecap="round" opacity="0.7"/><line x1="7.240" y1="4.700" x2="-7.240" y2="4.700" stroke="#d24d4d" stroke-width="0.080" stroke-linecap="round" opacity="0.7"/><line x1="-7.240" y1="4.700" x2="-7.240" y2="-5.080" stroke="#d24d4d" stroke-width="0.080" stroke-linecap="round" opacity="0.7"/><circle cx="-3.775" cy="5.100" r="0.150" fill="none" stroke="#e6e9ef" stroke-width="0.12" opacity="1"/><circle cx="-3.775" cy="5.100" r="0.150" fill="none" stroke="#6b7280" stroke-width="0.12" opacity="0.8"/><rect x="-4.760" y="0.320" width="1.900" height="1.900" rx="0.950" fill="#c79b5c"/><circle cx="-3.810" cy="1.270" r="0.600" fill="#12151c"/><rect x="-4.760" y="-2.220" width="1.900" height="1.900" rx="0.950" fill="#c79b5c"/><circle cx="-3.810" cy="-1.270" r="0.600" fill="#12151c"/><rect x="-2.220" y="0.320" width="1.900" height="1.900" rx="0.950" fill="#c79b5c"/><circle cx="-1.270" cy="1.270" r="0.600" fill="#12151c"/><rect x="-2.220" y="-2.220" width="1.900" height="1.900" rx="0.950" fill="#c79b5c"/><circle cx="-1.270" cy="-1.270" r="0.600" fill="#12151c"/><rect x="0.320" y="0.320" width="1.900" height="1.900" rx="0.950" fill="#c79b5c"/><circle cx="1.270" cy="1.270" r="0.600" fill="#12151c"/><rect x="0.320" y="-2.220" width="1.900" height="1.900" rx="0.950" fill="#c79b5c"/><circle cx="1.270" cy="-1.270" r="0.600" fill="#12151c"/><rect x="2.860" y="0.320" width="1.900" height="1.900" rx="0.950" fill="#c79b5c"/><circle cx="3.810" cy="1.270" r="0.600" fill="#12151c"/><rect x="2.860" y="-2.220" width="1.900" height="1.900" rx="0.950" fill="#c79b5c"/><circle cx="3.810" cy="-1.270" r="0.600" fill="#12151c"/></svg>