<svg xmlns="http://www.w3.org/2000/svg" viewBox="-6.58 -1.50 33.48 89.36" preserveAspectRatio="xMidYMid meet" style="width:100%;height:100%"><rect x="-6.58" y="-1.50" width="33.48" height="89.36" fill="#12151c"/><rect x="0.000" y="-0.000" width="20.320" height="86.360" fill="#1e222b" stroke="#4ea1ff" stroke-width="0.25"/><polyline points="5.080,68.580 3.810,68.580" fill="none" stroke="#4ea1ff" stroke-width="0.25" stroke-linejoin="round"/><polyline points="6.096,66.040 3.810,66.040" fill="none" stroke="#4ea1ff" stroke-width="0.25" stroke-linejoin="round"/><polyline points="7.620,3.810 7.620,34.290" fill="none" stroke="#4ea1ff" stroke-width="0.25" stroke-linejoin="round"/><polyline points="7.620,34.290 7.620,63.500" fill="none" stroke="#4ea1ff" stroke-width="0.25" stroke-linejoin="round"/><polyline points="8.890,1.270 12.954,3.810 8.890,6.350 8.890,1.270" fill="#1e222b" stroke="#4ea1ff" stroke-width="0.25" stroke-linejoin="round"/><polyline points="8.890,3.810 7.620,3.810" fill="none" stroke="#4ea1ff" stroke-width="0.25" stroke-linejoin="round"/><polyline points="8.890,8.890 12.954,11.430 8.890,13.970 8.890,8.890" fill="#1e222b" stroke="#4ea1ff" stroke-width="0.25" stroke-linejoin="round"/><polyline points="8.890,11.430 7.620,11.430" fill="none" stroke="#4ea1ff" stroke-width="0.25" stroke-linejoin="round"/><polyline points="8.890,16.510 12.954,19.050 8.890,21.590 8.890,16.510" fill="#1e222b" stroke="#4ea1ff" stroke-width="0.25" stroke-linejoin="round"/><polyline points="8.890,19.050 7.620,19.050" fill="none" stroke="#4ea1ff" stroke-width="0.25" stroke-linejoin="round"/><polyline points="8.890,24.130 12.954,26.670 8.890,29.210 8.890,24.130" fill="#1e222b" stroke="#4ea1ff" stroke-width="0.25" stroke-linejoin="round"/><polyline points="8.890,26.670 7.620,26.670" fill="none" stroke="#4ea1ff" stroke-width="0.25" stroke-linejoin="round"/><polyline points="8.890,31.750 12.954,34.290 8.890,36.830 8.890,31.750" fill="#1e222b" stroke="#4ea1ff" stroke-width="0.25" stroke-linejoin="round"/><polyline points="8.890,34.290 7.620,34.290" fill="none" stroke="#4ea1ff" stroke-width="0.25" stroke-linejoin="round"/><polyline points="8.890,39.370 12.954,41.910 8.890,44.450 8.890,39.370" fill="#1e222b" stroke="#4ea1ff" stroke-width="0.25" stroke-linejoin="round"/><polyline points="8.890,41.910 7.620,41.910" fill="none" stroke="#4ea1ff" stroke-width="0.25" stroke-linejoin="round"/><polyline points="8.890,46.990 12.954,49.530 8.890,52.070 8.890,46.990" fill="#1e222b" stroke="#4ea1ff" stroke-width="0.25" stroke-linejoin="round"/><polyline points="8.890,49.530 7.620,49.530" fill="none" stroke="#4ea1ff" stroke-width="0.25" stroke-linejoin="round"/><polyline points="8.890,54.610 12.954,57.150 8.890,59.690 8.890,54.610" fill="#1e222b" stroke="#4ea1ff" stroke-width="0.25" stroke-linejoin="round"/><polyline points="8.890,57.150 7.620,57.150" fill="none" stroke="#4ea1ff" stroke-width="0.25" stroke-linejoin="round"/><polyline points="10.160,67.310 6.096,64.770 6.096,69.850 10.160,67.310" fill="#1e222b" stroke="#4ea1ff" stroke-width="0.25" stroke-linejoin="round"/><polyline points="10.922,5.080 10.922,7.620" fill="none" stroke="#4ea1ff" stroke-width="0.25" stroke-linejoin="round"/><polyline points="10.922,7.620 6.350,7.620" fill="none" stroke="#4ea1ff" stroke-width="0.25" stroke-linejoin="round"/><polyline points="10.922,12.700 10.922,15.240" fill="none" stroke="#4ea1ff" stroke-width="0.25" stroke-linejoin="round"/><polyline points="10.922,15.240 6.350,15.240" fill="none" stroke="#4ea1ff" stroke-width="0.25" stroke-linejoin="round"/><polyline points="10.922,20.320 10.922,22.860" fill="none" stroke="#4ea1ff" stroke-width="0.25" stroke-linejoin="round"/><polyline points="10.922,22.860 6.350,22.860" fill="none" stroke="#4ea1ff" stroke-width="0.25" stroke-linejoin="round"/><polyline points="10.922,27.940 10.922,30.480" fill="none" stroke="#4ea1ff" stroke-width="0.25" stroke-linejoin="round"/><polyline points="10.922,30.480 6.350,30.480" fill="none" stroke="#4ea1ff" stroke-width="0.25" stroke-linejoin="round"/><polyline points="10.922,35.560 10.922,38.100" fill="none" stroke="#4ea1ff" stroke-width="0.25" stroke-linejoin="round"/><polyline points="10.922,38.100 6.350,38.100" fill="none" stroke="#4ea1ff" stroke-width="0.25" stroke-linejoin="round"/><polyline points="10.922,43.180 10.922,45.720" fill="none" stroke="#4ea1ff" stroke-width="0.25" stroke-linejoin="round"/><polyline points="10.922,45.720 6.350,45.720" fill="none" stroke="#4ea1ff" stroke-width="0.25" stroke-linejoin="round"/><polyline points="10.922,50.800 10.922,53.340" fill="none" stroke="#4ea1ff" stroke-width="0.25" stroke-linejoin="round"/><polyline points="10.922,53.340 6.350,53.340" fill="none" stroke="#4ea1ff" stroke-width="0.25" stroke-linejoin="round"/><polyline points="10.922,58.420 10.922,60.960" fill="none" stroke="#4ea1ff" stroke-width="0.25" stroke-linejoin="round"/><polyline points="10.922,60.960 6.350,60.960" fill="none" stroke="#4ea1ff" stroke-width="0.25" stroke-linejoin="round"/><polyline points="11.430,63.500 7.620,63.500" fill="none" stroke="#4ea1ff" stroke-width="0.25" stroke-linejoin="round"/><polyline points="11.430,63.500 11.430,67.310" fill="none" stroke="#4ea1ff" stroke-width="0.25" stroke-linejoin="round"/><polyline points="11.430,67.310 10.160,67.310" fill="none" stroke="#4ea1ff" stroke-width="0.25" stroke-linejoin="round"/><polyline points="12.954,1.270 12.954,6.350" fill="none" stroke="#4ea1ff" stroke-width="0.25" stroke-linejoin="round"/><polyline points="12.954,2.540 15.240,2.540" fill="none" stroke="#4ea1ff" stroke-width="0.25" stroke-linejoin="round"/><polyline points="12.954,8.890 12.954,13.970" fill="none" stroke="#4ea1ff" stroke-width="0.25" stroke-linejoin="round"/><polyline points="12.954,10.160 15.240,10.160" fill="none" stroke="#4ea1ff" stroke-width="0.25" stroke-linejoin="round"/><polyline points="12.954,16.510 12.954,21.590" fill="none" stroke="#4ea1ff" stroke-width="0.25" stroke-linejoin="round"/><polyline points="12.954,17.780 15.240,17.780" fill="none" stroke="#4ea1ff" stroke-width="0.25" stroke-linejoin="round"/><polyline points="12.954,24.130 12.954,29.210" fill="none" stroke="#4ea1ff" stroke-width="0.25" stroke-linejoin="round"/><polyline points="12.954,25.400 15.240,25.400" fill="none" stroke="#4ea1ff" stroke-width="0.25" stroke-linejoin="round"/><polyline points="12.954,31.750 12.954,36.830" fill="none" stroke="#4ea1ff" stroke-width="0.25" stroke-linejoin="round"/><polyline points="12.954,33.020 15.240,33.020" fill="none" stroke="#4ea1ff" stroke-width="0.25" stroke-linejoin="round"/><polyline points="12.954,39.370 12.954,44.450" fill="none" stroke="#4ea1ff" stroke-width="0.25" stroke-linejoin="round"/><polyline points="12.954,40.640 15.240,40.640" fill="none" stroke="#4ea1ff" stroke-width="0.25" stroke-linejoin="round"/><polyline points="12.954,46.990 12.954,52.070" fill="none" stroke="#4ea1ff" stroke-width="0.25" stroke-linejoin="round"/><polyline points="12.954,48.260 15.240,48.260" fill="none" stroke="#4ea1ff" stroke-width="0.25" stroke-linejoin="round"/><polyline points="12.954,54.610 12.954,59.690" fill="none" stroke="#4ea1ff" stroke-width="0.25" stroke-linejoin="round"/><polyline points="12.954,55.880 15.240,55.880" fill="none" stroke="#4ea1ff" stroke-width="0.25" stroke-linejoin="round"/><polyline points="13.970,5.080 15.240,5.080" fill="none" stroke="#4ea1ff" stroke-width="0.25" stroke-linejoin="round"/><polyline points="13.970,12.700 15.240,12.700" fill="none" stroke="#4ea1ff" stroke-width="0.25" stroke-linejoin="round"/><polyline points="13.970,20.320 15.240,20.320" fill="none" stroke="#4ea1ff" stroke-width="0.25" stroke-linejoin="round"/><polyline points="13.970,27.940 15.240,27.940" fill="none" stroke="#4ea1ff" stroke-width="0.25" stroke-linejoin="round"/><polyline points="13.970,35.560 15.240,35.560" fill="none" stroke="#4ea1ff" stroke-width="0.25" stroke-linejoin="round"/><polyline points="13.970,43.180 15.240,43.180" fill="none" stroke="#4ea1ff" stroke-width="0.25" stroke-linejoin="round"/><polyline points="13.970,50.800 15.240,50.800" fill="none" stroke="#4ea1ff" stroke-width="0.25" stroke-linejoin="round"/><polyline points="13.970,58.420 15.240,58.420" fill="none" stroke="#4ea1ff" stroke-width="0.25" stroke-linejoin="round"/><circle cx="5.588" cy="68.580" r="0.457" fill="none" stroke="#4ea1ff" stroke-width="0.25"/><circle cx="7.620" cy="11.430" r="0.254" fill="none" stroke="#4ea1ff" stroke-width="0.25"/><circle cx="7.620" cy="19.050" r="0.254" fill="none" stroke="#4ea1ff" stroke-width="0.25"/><circle cx="7.620" cy="26.670" r="0.254" fill="none" stroke="#4ea1ff" stroke-width="0.25"/><circle cx="7.620" cy="34.290" r="0.254" fill="none" stroke="#4ea1ff" stroke-width="0.25"/><circle cx="7.620" cy="41.910" r="0.254" fill="none" stroke="#4ea1ff" stroke-width="0.25"/><circle cx="7.620" cy="49.530" r="0.254" fill="none" stroke="#4ea1ff" stroke-width="0.25"/><circle cx="7.620" cy="57.150" r="0.254" fill="none" stroke="#4ea1ff" stroke-width="0.25"/><circle cx="13.462" cy="5.080" r="0.457" fill="none" stroke="#4ea1ff" stroke-width="0.25"/><circle cx="13.462" cy="12.700" r="0.457" fill="none" stroke="#4ea1ff" stroke-width="0.25"/><circle cx="13.462" cy="20.320" r="0.457" fill="none" stroke="#4ea1ff" stroke-width="0.25"/><circle cx="13.462" cy="27.940" r="0.457" fill="none" stroke="#4ea1ff" stroke-width="0.25"/><circle cx="13.462" cy="35.560" r="0.457" fill="none" stroke="#4ea1ff" stroke-width="0.25"/><circle cx="13.462" cy="43.180" r="0.457" fill="none" stroke="#4ea1ff" stroke-width="0.25"/><circle cx="13.462" cy="50.800" r="0.457" fill="none" stroke="#4ea1ff" stroke-width="0.25"/><circle cx="13.462" cy="58.420" r="0.457" fill="none" stroke="#4ea1ff" stroke-width="0.25"/><line x1="-5.080" y1="2.540" x2="0.000" y2="2.540" stroke="#e6e9ef" stroke-width="0.2"/><circle cx="-5.080" cy="2.540" r="0.4" fill="#4ea1ff"/><text x="0.500" y="2.890" fill="#e6e9ef" font-size="1.1" text-anchor="start" font-family="sans-serif">ENM</text><text x="-0.300" y="2.190" fill="#9aa3b2" font-size="0.9" text-anchor="end" font-family="sans-serif">5</text><line x1="-5.080" y1="7.620" x2="0.000" y2="7.620" stroke="#e6e9ef" stroke-width="0.2"/><circle cx="-5.080" cy="7.620" r="0.4" fill="#4ea1ff"/><text x="0.500" y="7.970" fill="#e6e9ef" font-size="1.1" text-anchor="start" font-family="sans-serif">ENA</text><text x="-0.300" y="7.270" fill="#9aa3b2" font-size="0.9" text-anchor="end" font-family="sans-serif">6</text><line x1="-5.080" y1="15.240" x2="0.000" y2="15.240" stroke="#e6e9ef" stroke-width="0.2"/><circle cx="-5.080" cy="15.240" r="0.4" fill="#4ea1ff"/><text x="0.500" y="15.590" fill="#e6e9ef" font-size="1.1" text-anchor="start" font-family="sans-serif">ENB</text><text x="-0.300" y="14.890" fill="#9aa3b2" font-size="0.9" text-anchor="end" font-family="sans-serif">7</text><line x1="-5.080" y1="22.860" x2="0.000" y2="22.860" stroke="#e6e9ef" stroke-width="0.2"/><circle cx="-5.080" cy="22.860" r="0.4" fill="#4ea1ff"/><text x="0.500" y="23.210" fill="#e6e9ef" font-size="1.1" text-anchor="start" font-family="sans-serif">ENC</text><text x="-0.300" y="22.510" fill="#9aa3b2" font-size="0.9" text-anchor="end" font-family="sans-serif">8</text><line x1="-5.080" y1="30.480" x2="0.000" y2="30.480" stroke="#e6e9ef" stroke-width="0.2"/><circle cx="-5.080" cy="30.480" r="0.4" fill="#4ea1ff"/><text x="0.500" y="30.830" fill="#e6e9ef" font-size="1.1" text-anchor="start" font-family="sans-serif">END</text><text x="-0.300" y="30.130" fill="#9aa3b2" font-size="0.9" text-anchor="end" font-family="sans-serif">9</text><line x1="-5.080" y1="38.100" x2="0.000" y2="38.100" stroke="#e6e9ef" stroke-width="0.2"/><circle cx="-5.080" cy="38.100" r="0.4" fill="#4ea1ff"/><text x="0.500" y="38.450" fill="#e6e9ef" font-size="1.1" text-anchor="start" font-family="sans-serif">ENE</text><text x="-0.300" y="37.750" fill="#9aa3b2" font-size="0.9" text-anchor="end" font-family="sans-serif">12</text><line x1="-5.080" y1="45.720" x2="0.000" y2="45.720" stroke="#e6e9ef" stroke-width="0.2"/><circle cx="-5.080" cy="45.720" r="0.4" fill="#4ea1ff"/><text x="0.500" y="46.070" fill="#e6e9ef" font-size="1.1" text-anchor="start" font-family="sans-serif">ENF</text><text x="-0.300" y="45.370" fill="#9aa3b2" font-size="0.9" text-anchor="end" font-family="sans-serif">13</text><line x1="-5.080" y1="53.340" x2="0.000" y2="53.340" stroke="#e6e9ef" stroke-width="0.2"/><circle cx="-5.080" cy="53.340" r="0.4" fill="#4ea1ff"/><text x="0.500" y="53.690" fill="#e6e9ef" font-size="1.1" text-anchor="start" font-family="sans-serif">ENG</text><text x="-0.300" y="52.990" fill="#9aa3b2" font-size="0.9" text-anchor="end" font-family="sans-serif">14</text><line x1="-5.080" y1="60.960" x2="0.000" y2="60.960" stroke="#e6e9ef" stroke-width="0.2"/><circle cx="-5.080" cy="60.960" r="0.4" fill="#4ea1ff"/><text x="0.500" y="61.310" fill="#e6e9ef" font-size="1.1" text-anchor="start" font-family="sans-serif">ENH</text><text x="-0.300" y="60.610" fill="#9aa3b2" font-size="0.9" text-anchor="end" font-family="sans-serif">15</text><line x1="-5.080" y1="66.040" x2="0.000" y2="66.040" stroke="#e6e9ef" stroke-width="0.2"/><circle cx="-5.080" cy="66.040" r="0.4" fill="#4ea1ff"/><text x="0.500" y="66.390" fill="#e6e9ef" font-size="1.1" text-anchor="start" font-family="sans-serif">A</text><text x="-0.300" y="65.690" fill="#9aa3b2" font-size="0.9" text-anchor="end" font-family="sans-serif">10</text><line x1="-5.080" y1="68.580" x2="0.000" y2="68.580" stroke="#e6e9ef" stroke-width="0.2"/><circle cx="-5.080" cy="68.580" r="0.4" fill="#4ea1ff"/><text x="0.500" y="68.930" fill="#e6e9ef" font-size="1.1" text-anchor="start" font-family="sans-serif">B</text><text x="-0.300" y="68.230" fill="#9aa3b2" font-size="0.9" text-anchor="end" font-family="sans-serif">11</text><line x1="-5.080" y1="73.660" x2="0.000" y2="73.660" stroke="#e6e9ef" stroke-width="0.2"/><circle cx="-5.080" cy="73.660" r="0.4" fill="#4ea1ff"/><text x="0.500" y="74.010" fill="#e6e9ef" font-size="1.1" text-anchor="start" font-family="sans-serif">NC</text><text x="-0.300" y="73.310" fill="#9aa3b2" font-size="0.9" text-anchor="end" font-family="sans-serif">4</text><line x1="-5.080" y1="76.200" x2="0.000" y2="76.200" stroke="#e6e9ef" stroke-width="0.2"/><circle cx="-5.080" cy="76.200" r="0.4" fill="#4ea1ff"/><text x="0.500" y="76.550" fill="#e6e9ef" font-size="1.1" text-anchor="start" font-family="sans-serif">NC</text><text x="-0.300" y="75.850" fill="#9aa3b2" font-size="0.9" text-anchor="end" font-family="sans-serif">16</text><line x1="-5.080" y1="78.740" x2="0.000" y2="78.740" stroke="#e6e9ef" stroke-width="0.2"/><circle cx="-5.080" cy="78.740" r="0.4" fill="#4ea1ff"/><text x="0.500" y="79.090" fill="#e6e9ef" font-size="1.1" text-anchor="start" font-family="sans-serif">NC</text><text x="-0.300" y="78.390" fill="#9aa3b2" font-size="0.9" text-anchor="end" font-family="sans-serif">20</text><line x1="-5.080" y1="81.280" x2="0.000" y2="81.280" stroke="#e6e9ef" stroke-width="0.2"/><circle cx="-5.080" cy="81.280" r="0.4" fill="#4ea1ff"/><text x="0.500" y="81.630" fill="#e6e9ef" font-size="1.1" text-anchor="start" font-family="sans-serif">NC</text><text x="-0.300" y="80.930" fill="#9aa3b2" font-size="0.9" text-anchor="end" font-family="sans-serif">21</text><line x1="-5.080" y1="83.820" x2="0.000" y2="83.820" stroke="#e6e9ef" stroke-width="0.2"/><circle cx="-5.080" cy="83.820" r="0.4" fill="#4ea1ff"/><text x="0.500" y="84.170" fill="#e6e9ef" font-size="1.1" text-anchor="start" font-family="sans-serif">NC</text><text x="-0.300" y="83.470" fill="#9aa3b2" font-size="0.9" text-anchor="end" font-family="sans-serif">38</text><line x1="25.400" y1="2.540" x2="20.320" y2="2.540" stroke="#e6e9ef" stroke-width="0.2"/><circle cx="25.400" cy="2.540" r="0.4" fill="#4ea1ff"/><text x="19.820" y="2.890" fill="#e6e9ef" font-size="1.1" text-anchor="end" font-family="sans-serif">AY</text><text x="20.620" y="2.190" fill="#9aa3b2" font-size="0.9" text-anchor="start" font-family="sans-serif">37</text><line x1="25.400" y1="5.080" x2="20.320" y2="5.080" stroke="#e6e9ef" stroke-width="0.2"/><circle cx="25.400" cy="5.080" r="0.4" fill="#4ea1ff"/><text x="19.820" y="5.430" fill="#e6e9ef" font-size="1.1" text-anchor="end" font-family="sans-serif">AZ</text><text x="20.620" y="4.730" fill="#9aa3b2" font-size="0.9" text-anchor="start" font-family="sans-serif">36</text><line x1="25.400" y1="10.160" x2="20.320" y2="10.160" stroke="#e6e9ef" stroke-width="0.2"/><circle cx="25.400" cy="10.160" r="0.4" fill="#4ea1ff"/><text x="19.820" y="10.510" fill="#e6e9ef" font-size="1.1" text-anchor="end" font-family="sans-serif">BY</text><text x="20.620" y="9.810" fill="#9aa3b2" font-size="0.9" text-anchor="start" font-family="sans-serif">35</text><line x1="25.400" y1="12.700" x2="20.320" y2="12.700" stroke="#e6e9ef" stroke-width="0.2"/><circle cx="25.400" cy="12.700" r="0.4" fill="#4ea1ff"/><text x="19.820" y="13.050" fill="#e6e9ef" font-size="1.1" text-anchor="end" font-family="sans-serif">BZ</text><text x="20.620" y="12.350" fill="#9aa3b2" font-size="0.9" text-anchor="start" font-family="sans-serif">34</text><line x1="25.400" y1="17.780" x2="20.320" y2="17.780" stroke="#e6e9ef" stroke-width="0.2"/><circle cx="25.400" cy="17.780" r="0.4" fill="#4ea1ff"/><text x="19.820" y="18.130" fill="#e6e9ef" font-size="1.1" text-anchor="end" font-family="sans-serif">CY</text><text x="20.620" y="17.430" fill="#9aa3b2" font-size="0.9" text-anchor="start" font-family="sans-serif">33</text><line x1="25.400" y1="20.320" x2="20.320" y2="20.320" stroke="#e6e9ef" stroke-width="0.2"/><circle cx="25.400" cy="20.320" r="0.4" fill="#4ea1ff"/><text x="19.820" y="20.670" fill="#e6e9ef" font-size="1.1" text-anchor="end" font-family="sans-serif">CZ</text><text x="20.620" y="19.970" fill="#9aa3b2" font-size="0.9" text-anchor="start" font-family="sans-serif">32</text><line x1="25.400" y1="25.400" x2="20.320" y2="25.400" stroke="#e6e9ef" stroke-width="0.2"/><circle cx="25.400" cy="25.400" r="0.4" fill="#4ea1ff"/><text x="19.820" y="25.750" fill="#e6e9ef" font-size="1.1" text-anchor="end" font-family="sans-serif">DY</text><text x="20.620" y="25.050" fill="#9aa3b2" font-size="0.9" text-anchor="start" font-family="sans-serif">31</text><line x1="25.400" y1="27.940" x2="20.320" y2="27.940" stroke="#e6e9ef" stroke-width="0.2"/><circle cx="25.400" cy="27.940" r="0.4" fill="#4ea1ff"/><text x="19.820" y="28.290" fill="#e6e9ef" font-size="1.1" text-anchor="end" font-family="sans-serif">DZ</text><text x="20.620" y="27.590" fill="#9aa3b2" font-size="0.9" text-anchor="start" font-family="sans-serif">30</text><line x1="25.400" y1="33.020" x2="20.320" y2="33.020" stroke="#e6e9ef" stroke-width="0.2"/><circle cx="25.400" cy="33.020" r="0.4" fill="#4ea1ff"/><text x="19.820" y="33.370" fill="#e6e9ef" font-size="1.1" text-anchor="end" font-family="sans-serif">EY</text><text x="20.620" y="32.670" fill="#9aa3b2" font-size="0.9" text-anchor="start" font-family="sans-serif">29</text><line x1="25.400" y1="35.560" x2="20.320" y2="35.560" stroke="#e6e9ef" stroke-width="0.2"/><circle cx="25.400" cy="35.560" r="0.4" fill="#4ea1ff"/><text x="19.820" y="35.910" fill="#e6e9ef" font-size="1.1" text-anchor="end" font-family="sans-serif">EZ</text><text x="20.620" y="35.210" fill="#9aa3b2" font-size="0.9" text-anchor="start" font-family="sans-serif">28</text><line x1="25.400" y1="40.640" x2="20.320" y2="40.640" stroke="#e6e9ef" stroke-width="0.2"/><circle cx="25.400" cy="40.640" r="0.4" fill="#4ea1ff"/><text x="19.820" y="40.990" fill="#e6e9ef" font-size="1.1" text-anchor="end" font-family="sans-serif">FY</text><text x="20.620" y="40.290" fill="#9aa3b2" font-size="0.9" text-anchor="start" font-family="sans-serif">27</text><line x1="25.400" y1="43.180" x2="20.320" y2="43.180" stroke="#e6e9ef" stroke-width="0.2"/><circle cx="25.400" cy="43.180" r="0.4" fill="#4ea1ff"/><text x="19.820" y="43.530" fill="#e6e9ef" font-size="1.1" text-anchor="end" font-family="sans-serif">FZ</text><text x="20.620" y="42.830" fill="#9aa3b2" font-size="0.9" text-anchor="start" font-family="sans-serif">26</text><line x1="25.400" y1="48.260" x2="20.320" y2="48.260" stroke="#e6e9ef" stroke-width="0.2"/><circle cx="25.400" cy="48.260" r="0.4" fill="#4ea1ff"/><text x="19.820" y="48.610" fill="#e6e9ef" font-size="1.1" text-anchor="end" font-family="sans-serif">GY</text><text x="20.620" y="47.910" fill="#9aa3b2" font-size="0.9" text-anchor="start" font-family="sans-serif">25</text><line x1="25.400" y1="50.800" x2="20.320" y2="50.800" stroke="#e6e9ef" stroke-width="0.2"/><circle cx="25.400" cy="50.800" r="0.4" fill="#4ea1ff"/><text x="19.820" y="51.150" fill="#e6e9ef" font-size="1.1" text-anchor="end" font-family="sans-serif">GZ</text><text x="20.620" y="50.450" fill="#9aa3b2" font-size="0.9" text-anchor="start" font-family="sans-serif">24</text><line x1="25.400" y1="55.880" x2="20.320" y2="55.880" stroke="#e6e9ef" stroke-width="0.2"/><circle cx="25.400" cy="55.880" r="0.4" fill="#4ea1ff"/><text x="19.820" y="56.230" fill="#e6e9ef" font-size="1.1" text-anchor="end" font-family="sans-serif">HY</text><text x="20.620" y="55.530" fill="#9aa3b2" font-size="0.9" text-anchor="start" font-family="sans-serif">23</text><line x1="25.400" y1="58.420" x2="20.320" y2="58.420" stroke="#e6e9ef" stroke-width="0.2"/><circle cx="25.400" cy="58.420" r="0.4" fill="#4ea1ff"/><text x="19.820" y="58.770" fill="#e6e9ef" font-size="1.1" text-anchor="end" font-family="sans-serif">HZ</text><text x="20.620" y="58.070" fill="#9aa3b2" font-size="0.9" text-anchor="start" font-family="sans-serif">22</text><line x1="25.400" y1="68.580" x2="20.320" y2="68.580" stroke="#e6e9ef" stroke-width="0.2"/><circle cx="25.400" cy="68.580" r="0.4" fill="#4ea1ff"/><text x="19.820" y="68.930" fill="#e6e9ef" font-size="1.1" text-anchor="end" font-family="sans-serif">VCC</text><text x="20.620" y="68.230" fill="#9aa3b2" font-size="0.9" text-anchor="start" font-family="sans-serif">2</text><line x1="25.400" y1="71.120" x2="20.320" y2="71.120" stroke="#e6e9ef" stroke-width="0.2"/><circle cx="25.400" cy="71.120" r="0.4" fill="#4ea1ff"/><text x="19.820" y="71.470" fill="#e6e9ef" font-size="1.1" text-anchor="end" font-family="sans-serif">VCC</text><text x="20.620" y="70.770" fill="#9aa3b2" font-size="0.9" text-anchor="start" font-family="sans-serif">18</text><line x1="25.400" y1="76.200" x2="20.320" y2="76.200" stroke="#e6e9ef" stroke-width="0.2"/><circle cx="25.400" cy="76.200" r="0.4" fill="#4ea1ff"/><text x="19.820" y="76.550" fill="#e6e9ef" font-size="1.1" text-anchor="end" font-family="sans-serif">GND</text><text x="20.620" y="75.850" fill="#9aa3b2" font-size="0.9" text-anchor="start" font-family="sans-serif">1</text><line x1="25.400" y1="78.740" x2="20.320" y2="78.740" stroke="#e6e9ef" stroke-width="0.2"/><circle cx="25.400" cy="78.740" r="0.4" fill="#4ea1ff"/><text x="19.820" y="79.090" fill="#e6e9ef" font-size="1.1" text-anchor="end" font-family="sans-serif">GND</text><text x="20.620" y="78.390" fill="#9aa3b2" font-size="0.9" text-anchor="start" font-family="sans-serif">3</text><line x1="25.400" y1="81.280" x2="20.320" y2="81.280" stroke="#e6e9ef" stroke-width="0.2"/><circle cx="25.400" cy="81.280" r="0.4" fill="#4ea1ff"/><text x="19.820" y="81.630" fill="#e6e9ef" font-size="1.1" text-anchor="end" font-family="sans-serif">GND</text><text x="20.620" y="80.930" fill="#9aa3b2" font-size="0.9" text-anchor="start" font-family="sans-serif">17</text><line x1="25.400" y1="83.820" x2="20.320" y2="83.820" stroke="#e6e9ef" stroke-width="0.2"/><circle cx="25.400" cy="83.820" r="0.4" fill="#4ea1ff"/><text x="19.820" y="84.170" fill="#e6e9ef" font-size="1.1" text-anchor="end" font-family="sans-serif">GND</text><text x="20.620" y="83.470" fill="#9aa3b2" font-size="0.9" text-anchor="start" font-family="sans-serif">19</text></svg>