<svg xmlns="http://www.w3.org/2000/svg" viewBox="-4.62 -3.70 8.53 7.40" preserveAspectRatio="xMidYMid meet" style="width:100%;height:100%"><rect x="-4.62" y="-3.70" width="8.53" height="7.40" fill="#12151c"/><circle cx="-3.500" cy="-1.750" r="0.125" fill="none" stroke="#e6e9ef" stroke-width="0.12" opacity="1"/><circle cx="-1.500" cy="-1.500" r="0.500" fill="none" stroke="#6b7280" stroke-width="0.12" opacity="0.8"/><rect x="-2.900" y="-1.900" width="0.700" height="0.300" rx="0.150" fill="#c79b5c"/><rect x="-2.900" y="-1.400" width="0.700" height="0.300" rx="0.150" fill="#c79b5c"/><rect x="-2.900" y="-0.900" width="0.700" height="0.300" rx="0.150" fill="#c79b5c"/><rect x="-2.900" y="-0.400" width="0.700" height="0.300" rx="0.150" fill="#c79b5c"/><rect x="-2.900" y="0.100" width="0.700" height="0.300" rx="0.150" fill="#c79b5c"/><rect x="-2.900" y="0.600" width="0.700" height="0.300" rx="0.150" fill="#c79b5c"/><rect x="-2.900" y="1.100" width="0.700" height="0.300" rx="0.150" fill="#c79b5c"/><rect x="-2.900" y="1.600" width="0.700" height="0.300" rx="0.150" fill="#c79b5c"/><rect x="-2.100" y="2.400" width="0.700" height="0.300" rx="0.150" fill="#c79b5c"/><rect x="-1.600" y="2.400" width="0.700" height="0.300" rx="0.150" fill="#c79b5c"/><rect x="-1.100" y="2.400" width="0.700" height="0.300" rx="0.150" fill="#c79b5c"/><rect x="-0.600" y="2.400" width="0.700" height="0.300" rx="0.150" fill="#c79b5c"/><rect x="-0.100" y="2.400" width="0.700" height="0.300" rx="0.150" fill="#c79b5c"/><rect x="0.400" y="2.400" width="0.700" height="0.300" rx="0.150" fill="#c79b5c"/><rect x="0.900" y="2.400" width="0.700" height="0.300" rx="0.150" fill="#c79b5c"/><rect x="1.400" y="2.400" width="0.700" height="0.300" rx="0.150" fill="#c79b5c"/><rect x="2.200" y="1.600" width="0.700" height="0.300" rx="0.150" fill="#c79b5c"/><rect x="2.200" y="1.100" width="0.700" height="0.300" rx="0.150" fill="#c79b5c"/><rect x="2.200" y="0.600" width="0.700" height="0.300" rx="0.150" fill="#c79b5c"/><rect x="2.200" y="0.100" width="0.700" height="0.300" rx="0.150" fill="#c79b5c"/><rect x="2.200" y="-0.400" width="0.700" height="0.300" rx="0.150" fill="#c79b5c"/><rect x="2.200" y="-0.900" width="0.700" height="0.300" rx="0.150" fill="#c79b5c"/><rect x="2.200" y="-1.400" width="0.700" height="0.300" rx="0.150" fill="#c79b5c"/><rect x="2.200" y="-1.900" width="0.700" height="0.300" rx="0.150" fill="#c79b5c"/><rect x="1.400" y="-2.700" width="0.700" height="0.300" rx="0.150" fill="#c79b5c"/><rect x="0.900" y="-2.700" width="0.700" height="0.300" rx="0.150" fill="#c79b5c"/><rect x="0.400" y="-2.700" width="0.700" height="0.300" rx="0.150" fill="#c79b5c"/><rect x="-0.100" y="-2.700" width="0.700" height="0.300" rx="0.150" fill="#c79b5c"/><rect x="-0.600" y="-2.700" width="0.700" height="0.300" rx="0.150" fill="#c79b5c"/><rect x="-1.100" y="-2.700" width="0.700" height="0.300" rx="0.150" fill="#c79b5c"/><rect x="-1.600" y="-2.700" width="0.700" height="0.300" rx="0.150" fill="#c79b5c"/><rect x="-2.100" y="-2.700" width="0.700" height="0.300" rx="0.150" fill="#c79b5c"/><rect x="-1.975" y="-1.975" width="3.950" height="3.950" rx="0.000" fill="#c79b5c"/></svg>