<svg xmlns="http://www.w3.org/2000/svg" viewBox="-13.70 -9.35 27.40 18.70" preserveAspectRatio="xMidYMid meet" style="width:100%;height:100%"><rect x="-13.70" y="-9.35" width="27.40" height="18.70" fill="#12151c"/><line x1="-12.450" y1="2.200" x2="-5.450" y2="2.200" stroke="#e6e9ef" stroke-width="0.200" stroke-linecap="round" opacity="1"/><line x1="-12.450" y1="8.100" x2="-12.450" y2="2.200" stroke="#e6e9ef" stroke-width="0.200" stroke-linecap="round" opacity="1"/><line x1="-12.450" y1="8.100" x2="5.450" y2="8.100" stroke="#e6e9ef" stroke-width="0.200" stroke-linecap="round" opacity="1"/><line x1="-6.950" y1="-1.500" x2="-5.450" y2="-1.500" stroke="#e6e9ef" stroke-width="0.200" stroke-linecap="round" opacity="1"/><line x1="-6.950" y1="1.500" x2="-6.950" y2="-1.500" stroke="#e6e9ef" stroke-width="0.200" stroke-linecap="round" opacity="1"/><line x1="-6.950" y1="1.500" x2="-5.450" y2="1.500" stroke="#e6e9ef" stroke-width="0.200" stroke-linecap="round" opacity="1"/><line x1="-6.200" y1="1.500" x2="-6.200" y2="-1.500" stroke="#e6e9ef" stroke-width="0.200" stroke-linecap="round" opacity="1"/><line x1="-5.450" y1="-8.100" x2="12.450" y2="-8.100" stroke="#e6e9ef" stroke-width="0.200" stroke-linecap="round" opacity="1"/><line x1="-5.450" y1="-5.600" x2="-2.950" y2="-8.100" stroke="#e6e9ef" stroke-width="0.200" stroke-linecap="round" opacity="1"/><line x1="-5.450" y1="5.600" x2="-2.950" y2="8.100" stroke="#e6e9ef" stroke-width="0.200" stroke-linecap="round" opacity="1"/><line x1="-5.450" y1="8.100" x2="-5.450" y2="-8.100" stroke="#e6e9ef" stroke-width="0.200" stroke-linecap="round" opacity="1"/><line x1="5.450" y1="-2.200" x2="12.450" y2="-2.200" stroke="#e6e9ef" stroke-width="0.200" stroke-linecap="round" opacity="1"/><line x1="5.450" y1="-1.500" x2="6.950" y2="-1.500" stroke="#e6e9ef" stroke-width="0.200" stroke-linecap="round" opacity="1"/><line x1="5.450" y1="1.500" x2="6.950" y2="1.500" stroke="#e6e9ef" stroke-width="0.200" stroke-linecap="round" opacity="1"/><line x1="5.450" y1="8.100" x2="5.450" y2="-8.100" stroke="#e6e9ef" stroke-width="0.200" stroke-linecap="round" opacity="1"/><line x1="6.200" y1="1.500" x2="6.200" y2="-1.500" stroke="#e6e9ef" stroke-width="0.200" stroke-linecap="round" opacity="1"/><line x1="6.950" y1="1.500" x2="6.950" y2="-1.500" stroke="#e6e9ef" stroke-width="0.200" stroke-linecap="round" opacity="1"/><line x1="12.450" y1="-2.200" x2="12.450" y2="-8.100" stroke="#e6e9ef" stroke-width="0.200" stroke-linecap="round" opacity="1"/><line x1="-9.800" y1="5.100" x2="-9.600" y2="5.100" stroke="#4a5160" stroke-width="0.080" stroke-linecap="round" opacity="0.7"/><line x1="-9.600" y1="5.100" x2="-9.600" y2="4.900" stroke="#4a5160" stroke-width="0.080" stroke-linecap="round" opacity="0.7"/><line x1="-9.600" y1="5.100" x2="-9.400" y2="5.100" stroke="#4a5160" stroke-width="0.080" stroke-linecap="round" opacity="0.7"/><line x1="-9.600" y1="5.300" x2="-9.600" y2="5.100" stroke="#4a5160" stroke-width="0.080" stroke-linecap="round" opacity="0.7"/><line x1="-2.740" y1="-5.080" x2="-2.540" y2="-5.080" stroke="#4a5160" stroke-width="0.080" stroke-linecap="round" opacity="0.7"/><line x1="-2.740" y1="0.000" x2="-2.540" y2="0.000" stroke="#4a5160" stroke-width="0.080" stroke-linecap="round" opacity="0.7"/><line x1="-2.740" y1="5.080" x2="-2.540" y2="5.080" stroke="#4a5160" stroke-width="0.080" stroke-linecap="round" opacity="0.7"/><line x1="-2.540" y1="-5.080" x2="-2.540" y2="-5.280" stroke="#4a5160" stroke-width="0.080" stroke-linecap="round" opacity="0.7"/><line x1="-2.540" y1="-5.080" x2="-2.340" y2="-5.080" stroke="#4a5160" stroke-width="0.080" stroke-linecap="round" opacity="0.7"/><line x1="-2.540" y1="-4.880" x2="-2.540" y2="-5.080" stroke="#4a5160" stroke-width="0.080" stroke-linecap="round" opacity="0.7"/><line x1="-2.540" y1="0.000" x2="-2.540" y2="-0.200" stroke="#4a5160" stroke-width="0.080" stroke-linecap="round" opacity="0.7"/><line x1="-2.540" y1="0.000" x2="-2.340" y2="0.000" stroke="#4a5160" stroke-width="0.080" stroke-linecap="round" opacity="0.7"/><line x1="-2.540" y1="0.200" x2="-2.540" y2="0.000" stroke="#4a5160" stroke-width="0.080" stroke-linecap="round" opacity="0.7"/><line x1="-2.540" y1="5.080" x2="-2.540" y2="4.880" stroke="#4a5160" stroke-width="0.080" stroke-linecap="round" opacity="0.7"/><line x1="-2.540" y1="5.080" x2="-2.340" y2="5.080" stroke="#4a5160" stroke-width="0.080" stroke-linecap="round" opacity="0.7"/><line x1="-2.540" y1="5.280" x2="-2.540" y2="5.080" stroke="#4a5160" stroke-width="0.080" stroke-linecap="round" opacity="0.7"/><line x1="-0.500" y1="0.000" x2="0.000" y2="0.000" stroke="#4a5160" stroke-width="0.080" stroke-linecap="round" opacity="0.7"/><line x1="0.000" y1="0.000" x2="0.000" y2="-0.500" stroke="#4a5160" stroke-width="0.080" stroke-linecap="round" opacity="0.7"/><line x1="0.000" y1="0.000" x2="0.500" y2="0.000" stroke="#4a5160" stroke-width="0.080" stroke-linecap="round" opacity="0.7"/><line x1="0.000" y1="0.500" x2="0.000" y2="0.000" stroke="#4a5160" stroke-width="0.080" stroke-linecap="round" opacity="0.7"/><line x1="2.340" y1="-5.080" x2="2.540" y2="-5.080" stroke="#4a5160" stroke-width="0.080" stroke-linecap="round" opacity="0.7"/><line x1="2.340" y1="0.000" x2="2.540" y2="0.000" stroke="#4a5160" stroke-width="0.080" stroke-linecap="round" opacity="0.7"/><line x1="2.340" y1="5.080" x2="2.540" y2="5.080" stroke="#4a5160" stroke-width="0.080" stroke-linecap="round" opacity="0.7"/><line x1="2.540" y1="-5.080" x2="2.540" y2="-5.280" stroke="#4a5160" stroke-width="0.080" stroke-linecap="round" opacity="0.7"/><line x1="2.540" y1="-5.080" x2="2.740" y2="-5.080" stroke="#4a5160" stroke-width="0.080" stroke-linecap="round" opacity="0.7"/><line x1="2.540" y1="-4.880" x2="2.540" y2="-5.080" stroke="#4a5160" stroke-width="0.080" stroke-linecap="round" opacity="0.7"/><line x1="2.540" y1="0.000" x2="2.540" y2="-0.200" stroke="#4a5160" stroke-width="0.080" stroke-linecap="round" opacity="0.7"/><line x1="2.540" y1="0.000" x2="2.740" y2="0.000" stroke="#4a5160" stroke-width="0.080" stroke-linecap="round" opacity="0.7"/><line x1="2.540" y1="0.200" x2="2.540" y2="0.000" stroke="#4a5160" stroke-width="0.080" stroke-linecap="round" opacity="0.7"/><line x1="2.540" y1="5.080" x2="2.540" y2="4.880" stroke="#4a5160" stroke-width="0.080" stroke-linecap="round" opacity="0.7"/><line x1="2.540" y1="5.080" x2="2.740" y2="5.080" stroke="#4a5160" stroke-width="0.080" stroke-linecap="round" opacity="0.7"/><line x1="2.540" y1="5.280" x2="2.540" y2="5.080" stroke="#4a5160" stroke-width="0.080" stroke-linecap="round" opacity="0.7"/><line x1="9.400" y1="-5.100" x2="9.600" y2="-5.100" stroke="#4a5160" stroke-width="0.080" stroke-linecap="round" opacity="0.7"/><line x1="9.600" y1="-5.100" x2="9.600" y2="-5.300" stroke="#4a5160" stroke-width="0.080" stroke-linecap="round" opacity="0.7"/><line x1="9.600" y1="-5.100" x2="9.800" y2="-5.100" stroke="#4a5160" stroke-width="0.080" stroke-linecap="round" opacity="0.7"/><line x1="9.600" y1="-4.900" x2="9.600" y2="-5.100" stroke="#4a5160" stroke-width="0.080" stroke-linecap="round" opacity="0.7"/><line x1="-12.700" y1="1.950" x2="-7.200" y2="1.950" stroke="#d24d4d" stroke-width="0.080" stroke-linecap="round" opacity="0.7"/><line x1="-12.700" y1="8.350" x2="-12.700" y2="1.950" stroke="#d24d4d" stroke-width="0.080" stroke-linecap="round" opacity="0.7"/><line x1="-12.700" y1="8.350" x2="7.200" y2="8.350" stroke="#d24d4d" stroke-width="0.080" stroke-linecap="round" opacity="0.7"/><line x1="-7.200" y1="-8.350" x2="12.700" y2="-8.350" stroke="#d24d4d" stroke-width="0.080" stroke-linecap="round" opacity="0.7"/><line x1="-7.200" y1="1.950" x2="-7.200" y2="-8.350" stroke="#d24d4d" stroke-width="0.080" stroke-linecap="round" opacity="0.7"/><line x1="7.200" y1="-1.950" x2="12.700" y2="-1.950" stroke="#d24d4d" stroke-width="0.080" stroke-linecap="round" opacity="0.7"/><line x1="7.200" y1="8.350" x2="7.200" y2="-1.950" stroke="#d24d4d" stroke-width="0.080" stroke-linecap="round" opacity="0.7"/><line x1="12.700" y1="-1.950" x2="12.700" y2="-8.350" stroke="#d24d4d" stroke-width="0.080" stroke-linecap="round" opacity="0.7"/><line x1="-12.450" y1="2.200" x2="-5.450" y2="2.200" stroke="#6b7280" stroke-width="0.100" stroke-linecap="round" opacity="0.8"/><line x1="-12.450" y1="8.100" x2="-12.450" y2="2.200" stroke="#6b7280" stroke-width="0.100" stroke-linecap="round" opacity="0.8"/><line x1="-12.450" y1="8.100" x2="5.450" y2="8.100" stroke="#6b7280" stroke-width="0.100" stroke-linecap="round" opacity="0.8"/><line x1="-6.950" y1="-1.500" x2="-5.450" y2="-1.500" stroke="#6b7280" stroke-width="0.100" stroke-linecap="round" opacity="0.8"/><line x1="-6.950" y1="1.500" x2="-6.950" y2="-1.500" stroke="#6b7280" stroke-width="0.100" stroke-linecap="round" opacity="0.8"/><line x1="-6.950" y1="1.500" x2="-5.450" y2="1.500" stroke="#6b7280" stroke-width="0.100" stroke-linecap="round" opacity="0.8"/><line x1="-6.200" y1="1.500" x2="-6.200" y2="-1.500" stroke="#6b7280" stroke-width="0.100" stroke-linecap="round" opacity="0.8"/><line x1="-5.490" y1="5.600" x2="-2.990" y2="8.100" stroke="#6b7280" stroke-width="0.100" stroke-linecap="round" opacity="0.8"/><line x1="-5.450" y1="-8.100" x2="12.450" y2="-8.100" stroke="#6b7280" stroke-width="0.100" stroke-linecap="round" opacity="0.8"/><line x1="-5.450" y1="-5.600" x2="-2.950" y2="-8.100" stroke="#6b7280" stroke-width="0.100" stroke-linecap="round" opacity="0.8"/><line x1="-5.450" y1="8.100" x2="-5.450" y2="-8.100" stroke="#6b7280" stroke-width="0.100" stroke-linecap="round" opacity="0.8"/><line x1="5.450" y1="-2.200" x2="12.450" y2="-2.200" stroke="#6b7280" stroke-width="0.100" stroke-linecap="round" opacity="0.8"/><line x1="5.450" y1="-1.500" x2="6.950" y2="-1.500" stroke="#6b7280" stroke-width="0.100" stroke-linecap="round" opacity="0.8"/><line x1="5.450" y1="1.500" x2="6.950" y2="1.500" stroke="#6b7280" stroke-width="0.100" stroke-linecap="round" opacity="0.8"/><line x1="5.450" y1="8.100" x2="5.450" y2="-8.100" stroke="#6b7280" stroke-width="0.100" stroke-linecap="round" opacity="0.8"/><line x1="6.200" y1="1.500" x2="6.200" y2="-1.500" stroke="#6b7280" stroke-width="0.100" stroke-linecap="round" opacity="0.8"/><line x1="6.950" y1="1.500" x2="6.950" y2="-1.500" stroke="#6b7280" stroke-width="0.100" stroke-linecap="round" opacity="0.8"/><line x1="12.450" y1="-2.200" x2="12.450" y2="-8.100" stroke="#6b7280" stroke-width="0.100" stroke-linecap="round" opacity="0.8"/><circle cx="-9.600" cy="5.100" r="1.750" fill="none" stroke="#4a5160" stroke-width="0.12" opacity="0.7"/><circle cx="-2.540" cy="-5.080" r="0.850" fill="none" stroke="#4a5160" stroke-width="0.12" opacity="0.7"/><circle cx="-2.540" cy="-5.080" r="0.500" fill="none" stroke="#4a5160" stroke-width="0.12" opacity="0.7"/><circle cx="-2.540" cy="0.000" r="0.850" fill="none" stroke="#4a5160" stroke-width="0.12" opacity="0.7"/><circle cx="-2.540" cy="0.000" r="0.500" fill="none" stroke="#4a5160" stroke-width="0.12" opacity="0.7"/><circle cx="-2.540" cy="5.080" r="0.850" fill="none" stroke="#4a5160" stroke-width="0.12" opacity="0.7"/><circle cx="-2.540" cy="5.080" r="0.500" fill="none" stroke="#4a5160" stroke-width="0.12" opacity="0.7"/><circle cx="2.540" cy="-5.080" r="0.850" fill="none" stroke="#4a5160" stroke-width="0.12" opacity="0.7"/><circle cx="2.540" cy="-5.080" r="0.500" fill="none" stroke="#4a5160" stroke-width="0.12" opacity="0.7"/><circle cx="2.540" cy="0.000" r="0.850" fill="none" stroke="#4a5160" stroke-width="0.12" opacity="0.7"/><circle cx="2.540" cy="0.000" r="0.500" fill="none" stroke="#4a5160" stroke-width="0.12" opacity="0.7"/><circle cx="2.540" cy="5.080" r="0.850" fill="none" stroke="#4a5160" stroke-width="0.12" opacity="0.7"/><circle cx="2.540" cy="5.080" r="0.500" fill="none" stroke="#4a5160" stroke-width="0.12" opacity="0.7"/><circle cx="9.600" cy="-5.100" r="1.750" fill="none" stroke="#4a5160" stroke-width="0.12" opacity="0.7"/><circle cx="-9.600" cy="5.100" r="1.750" fill="none" stroke="#6b7280" stroke-width="0.12" opacity="0.8"/><circle cx="-2.540" cy="-5.080" r="1.000" fill="none" stroke="#6b7280" stroke-width="0.12" opacity="0.8"/><circle cx="-2.540" cy="-5.080" r="0.750" fill="none" stroke="#6b7280" stroke-width="0.12" opacity="0.8"/><circle cx="-2.540" cy="0.000" r="1.000" fill="none" stroke="#6b7280" stroke-width="0.12" opacity="0.8"/><circle cx="-2.540" cy="0.000" r="0.750" fill="none" stroke="#6b7280" stroke-width="0.12" opacity="0.8"/><circle cx="-2.540" cy="5.080" r="1.000" fill="none" stroke="#6b7280" stroke-width="0.12" opacity="0.8"/><circle cx="-2.540" cy="5.080" r="0.750" fill="none" stroke="#6b7280" stroke-width="0.12" opacity="0.8"/><circle cx="2.540" cy="-5.080" r="1.000" fill="none" stroke="#6b7280" stroke-width="0.12" opacity="0.8"/><circle cx="2.540" cy="-5.080" r="0.750" fill="none" stroke="#6b7280" stroke-width="0.12" opacity="0.8"/><circle cx="2.540" cy="0.000" r="1.000" fill="none" stroke="#6b7280" stroke-width="0.12" opacity="0.8"/><circle cx="2.540" cy="0.000" r="0.750" fill="none" stroke="#6b7280" stroke-width="0.12" opacity="0.8"/><circle cx="2.540" cy="5.080" r="1.000" fill="none" stroke="#6b7280" stroke-width="0.12" opacity="0.8"/><circle cx="2.540" cy="5.080" r="0.750" fill="none" stroke="#6b7280" stroke-width="0.12" opacity="0.8"/><circle cx="9.600" cy="-5.100" r="1.750" fill="none" stroke="#6b7280" stroke-width="0.12" opacity="0.8"/><circle cx="-9.600" cy="5.100" r="0.250" fill="none" stroke="#6b7280" stroke-width="0.1"/><circle cx="9.600" cy="-5.100" r="0.250" fill="none" stroke="#6b7280" stroke-width="0.1"/><rect x="-3.390" y="-5.930" width="1.700" height="1.700" rx="0.850" fill="#c79b5c"/><circle cx="-2.540" cy="-5.080" r="0.500" fill="#12151c"/><rect x="-3.390" y="-0.850" width="1.700" height="1.700" rx="0.850" fill="#c79b5c"/><circle cx="-2.540" cy="0.000" r="0.500" fill="#12151c"/><rect x="-3.390" y="4.230" width="1.700" height="1.700" rx="0.850" fill="#c79b5c"/><circle cx="-2.540" cy="5.080" r="0.500" fill="#12151c"/><rect x="1.690" y="-5.930" width="1.700" height="1.700" rx="0.850" fill="#c79b5c"/><circle cx="2.540" cy="-5.080" r="0.500" fill="#12151c"/><rect x="1.690" y="-0.850" width="1.700" height="1.700" rx="0.850" fill="#c79b5c"/><circle cx="2.540" cy="0.000" r="0.500" fill="#12151c"/><rect x="1.690" y="4.230" width="1.700" height="1.700" rx="0.850" fill="#c79b5c"/><circle cx="2.540" cy="5.080" r="0.500" fill="#12151c"/></svg>