<svg xmlns="http://www.w3.org/2000/svg" viewBox="-30.21 -19.67 60.42 39.34" preserveAspectRatio="xMidYMid meet" style="width:100%;height:100%"><rect x="-30.21" y="-19.67" width="60.42" height="39.34" fill="#12151c"/><line x1="-29.210" y1="-18.670" x2="29.210" y2="-18.670" stroke="#d24d4d" stroke-width="0.080" stroke-linecap="round" opacity="0.7"/><line x1="29.210" y1="-18.670" x2="29.210" y2="18.670" stroke="#d24d4d" stroke-width="0.080" stroke-linecap="round" opacity="0.7"/><line x1="29.210" y1="18.670" x2="-29.210" y2="18.670" stroke="#d24d4d" stroke-width="0.080" stroke-linecap="round" opacity="0.7"/><line x1="-29.210" y1="18.670" x2="-29.210" y2="-18.670" stroke="#d24d4d" stroke-width="0.080" stroke-linecap="round" opacity="0.7"/><path d="M -28.956 -13.553 A 2.540 2.540 0 0 1 -28.212 -15.349" fill="none" stroke="#e6e9ef" stroke-width="0.12" opacity="1"/><path d="M -28.000 -11.642 A 2.539 2.539 0 0 1 -27.000 -12.822" fill="none" stroke="#e6e9ef" stroke-width="0.12" opacity="1"/><path d="M -27.432 18.415 A 1.524 1.524 0 0 1 -28.956 16.891" fill="none" stroke="#e6e9ef" stroke-width="0.12" opacity="1"/><path d="M -27.000 12.822 A 2.539 2.539 0 0 1 -28.000 11.642" fill="none" stroke="#e6e9ef" stroke-width="0.12" opacity="1"/><path d="M 26.000 13.184 A 2.539 2.539 0 0 1 25.655 13.208" fill="none" stroke="#e6e9ef" stroke-width="0.12" opacity="1"/><path d="M 27.000 -12.822 A 2.539 2.539 0 0 1 28.000 -11.642" fill="none" stroke="#e6e9ef" stroke-width="0.12" opacity="1"/><path d="M 27.432 -18.415 A 1.524 1.524 0 0 1 28.956 -16.891" fill="none" stroke="#e6e9ef" stroke-width="0.12" opacity="1"/><path d="M 28.000 11.642 A 2.539 2.539 0 0 1 27.000 12.822" fill="none" stroke="#e6e9ef" stroke-width="0.12" opacity="1"/><path d="M 28.956 16.891 A 1.524 1.524 0 0 1 27.432 18.415" fill="none" stroke="#e6e9ef" stroke-width="0.12" opacity="1"/><path d="M -28.000 -11.642 A 2.539 2.539 0 0 1 -27.000 -12.822" fill="none" stroke="#6b7280" stroke-width="0.12" opacity="0.8"/><path d="M -27.000 12.822 A 2.539 2.539 0 0 1 -28.000 11.642" fill="none" stroke="#6b7280" stroke-width="0.12" opacity="0.8"/><path d="M -18.148 16.129 A 1.638 1.638 0 0 1 -14.872 16.129" fill="none" stroke="#6b7280" stroke-width="0.12" opacity="0.8"/><path d="M -14.872 -16.129 A 1.638 1.638 0 0 1 -18.148 -16.129" fill="none" stroke="#6b7280" stroke-width="0.12" opacity="0.8"/><path d="M -1.638 16.129 A 1.638 1.638 0 1 1 1.638 16.129" fill="none" stroke="#6b7280" stroke-width="0.12" opacity="0.8"/><path d="M 1.638 -16.129 A 1.638 1.638 0 1 1 -1.638 -16.129" fill="none" stroke="#6b7280" stroke-width="0.12" opacity="0.8"/><path d="M 14.872 16.129 A 1.638 1.638 0 0 1 18.148 16.129" fill="none" stroke="#6b7280" stroke-width="0.12" opacity="0.8"/><path d="M 18.148 -16.129 A 1.638 1.638 0 0 1 14.872 -16.129" fill="none" stroke="#6b7280" stroke-width="0.12" opacity="0.8"/><path d="M 26.000 13.184 A 2.539 2.539 0 0 1 25.655 13.208" fill="none" stroke="#6b7280" stroke-width="0.12" opacity="0.8"/><path d="M 27.000 -12.822 A 2.539 2.539 0 0 1 28.000 -11.642" fill="none" stroke="#6b7280" stroke-width="0.12" opacity="0.8"/><path d="M 28.000 11.642 A 2.539 2.539 0 0 1 27.000 12.822" fill="none" stroke="#6b7280" stroke-width="0.12" opacity="0.8"/><rect x="-26.950" y="-11.710" width="3.100" height="3.100" rx="1.550" fill="#c79b5c"/><circle cx="-25.400" cy="-10.160" r="1.200" fill="#12151c"/><rect x="-26.950" y="-4.725" width="3.100" height="3.100" rx="1.550" fill="#c79b5c"/><circle cx="-25.400" cy="-3.175" r="1.200" fill="#12151c"/><rect x="-26.950" y="1.625" width="3.100" height="3.100" rx="1.550" fill="#c79b5c"/><circle cx="-25.400" cy="3.175" r="1.200" fill="#12151c"/><rect x="-26.950" y="8.610" width="3.100" height="3.100" rx="1.550" fill="#c79b5c"/><circle cx="-25.400" cy="10.160" r="1.200" fill="#12151c"/><rect x="23.850" y="8.610" width="3.100" height="3.100" rx="1.550" fill="#c79b5c"/><circle cx="25.400" cy="10.160" r="1.200" fill="#12151c"/><rect x="23.850" y="-1.550" width="3.100" height="3.100" rx="1.550" fill="#c79b5c"/><circle cx="25.400" cy="0.000" r="1.200" fill="#12151c"/><rect x="23.850" y="-11.710" width="3.100" height="3.100" rx="1.550" fill="#c79b5c"/><circle cx="25.400" cy="-10.160" r="1.200" fill="#12151c"/></svg>