<svg xmlns="http://www.w3.org/2000/svg" viewBox="-9.45 -6.70 18.90 13.40" preserveAspectRatio="xMidYMid meet" style="width:100%;height:100%"><rect x="-9.45" y="-6.70" width="18.90" height="13.40" fill="#12151c"/><line x1="-4.550" y1="-5.050" x2="-1.050" y2="-5.050" stroke="#e6e9ef" stroke-width="0.200" stroke-linecap="round" opacity="1"/><line x1="-4.550" y1="5.050" x2="-4.550" y2="-5.050" stroke="#e6e9ef" stroke-width="0.200" stroke-linecap="round" opacity="1"/><line x1="-4.550" y1="5.050" x2="-1.050" y2="5.050" stroke="#e6e9ef" stroke-width="0.200" stroke-linecap="round" opacity="1"/><line x1="-8.450" y1="-5.700" x2="8.450" y2="-5.700" stroke="#d24d4d" stroke-width="0.080" stroke-linecap="round" opacity="0.7"/><line x1="-8.450" y1="5.700" x2="-8.450" y2="-5.700" stroke="#d24d4d" stroke-width="0.080" stroke-linecap="round" opacity="0.7"/><line x1="-8.450" y1="5.700" x2="8.450" y2="5.700" stroke="#d24d4d" stroke-width="0.080" stroke-linecap="round" opacity="0.7"/><line x1="8.450" y1="5.700" x2="8.450" y2="-5.700" stroke="#d24d4d" stroke-width="0.080" stroke-linecap="round" opacity="0.7"/><line x1="-2.400" y1="-5.050" x2="6.400" y2="-5.050" stroke="#6b7280" stroke-width="0.100" stroke-linecap="round" opacity="0.8"/><line x1="-2.400" y1="5.050" x2="-2.400" y2="-5.050" stroke="#6b7280" stroke-width="0.100" stroke-linecap="round" opacity="0.8"/><line x1="-2.400" y1="5.050" x2="6.400" y2="5.050" stroke="#6b7280" stroke-width="0.100" stroke-linecap="round" opacity="0.8"/><line x1="6.400" y1="-5.250" x2="6.829" y2="-5.250" stroke="#6b7280" stroke-width="0.100" stroke-linecap="round" opacity="0.8"/><line x1="6.400" y1="5.050" x2="6.400" y2="-5.050" stroke="#6b7280" stroke-width="0.100" stroke-linecap="round" opacity="0.8"/><line x1="6.400" y1="5.250" x2="6.829" y2="5.250" stroke="#6b7280" stroke-width="0.100" stroke-linecap="round" opacity="0.8"/><line x1="6.829" y1="-5.250" x2="7.700" y2="-4.285" stroke="#6b7280" stroke-width="0.100" stroke-linecap="round" opacity="0.8"/><line x1="6.829" y1="5.250" x2="7.700" y2="4.285" stroke="#6b7280" stroke-width="0.100" stroke-linecap="round" opacity="0.8"/><line x1="7.700" y1="4.285" x2="7.700" y2="-4.285" stroke="#6b7280" stroke-width="0.100" stroke-linecap="round" opacity="0.8"/><circle cx="-7.950" cy="-4.050" r="0.150" fill="#e6e9ef" opacity="1"/><rect x="-8.200" y="-3.540" width="3.300" height="2.000" rx="0.000" fill="#c79b5c"/><rect x="-8.200" y="1.540" width="3.300" height="2.000" rx="0.000" fill="#c79b5c"/><rect x="-0.700" y="-5.450" width="8.900" height="10.900" rx="0.000" fill="#c79b5c"/></svg>