<svg xmlns="http://www.w3.org/2000/svg" viewBox="-7.45 -7.45 14.90 14.90" preserveAspectRatio="xMidYMid meet" style="width:100%;height:100%"><rect x="-7.45" y="-7.45" width="14.90" height="14.90" fill="#12151c"/><line x1="-6.450" y1="-6.450" x2="6.450" y2="-6.450" stroke="#d24d4d" stroke-width="0.080" stroke-linecap="round" opacity="0.7"/><line x1="6.450" y1="-6.450" x2="6.450" y2="6.450" stroke="#d24d4d" stroke-width="0.080" stroke-linecap="round" opacity="0.7"/><line x1="6.450" y1="6.450" x2="-6.450" y2="6.450" stroke="#d24d4d" stroke-width="0.080" stroke-linecap="round" opacity="0.7"/><line x1="-6.450" y1="6.450" x2="-6.450" y2="-6.450" stroke="#d24d4d" stroke-width="0.080" stroke-linecap="round" opacity="0.7"/><rect x="-0.800" y="-2.200" width="1.600" height="1.600" rx="0.800" fill="#c79b5c"/><circle cx="0.000" cy="-1.400" r="0.450" fill="#12151c"/><rect x="-0.800" y="0.600" width="1.600" height="1.600" rx="0.800" fill="#c79b5c"/><circle cx="0.000" cy="1.400" r="0.450" fill="#12151c"/><rect x="-5.060" y="-5.060" width="2.500" height="2.500" rx="1.250" fill="#c79b5c"/><circle cx="-3.810" cy="-3.810" r="0.900" fill="#12151c"/><rect x="-5.060" y="2.560" width="2.500" height="2.500" rx="1.250" fill="#c79b5c"/><circle cx="-3.810" cy="3.810" r="0.900" fill="#12151c"/><rect x="-2.550" y="-2.550" width="0.000" height="0.000" rx="0.000" fill="#c79b5c"/><rect x="-2.550" y="2.550" width="0.000" height="0.000" rx="0.000" fill="#c79b5c"/><rect x="2.550" y="-2.550" width="0.000" height="0.000" rx="0.000" fill="#c79b5c"/><rect x="2.550" y="2.550" width="0.000" height="0.000" rx="0.000" fill="#c79b5c"/><rect x="2.560" y="-5.060" width="2.500" height="2.500" rx="1.250" fill="#c79b5c"/><circle cx="3.810" cy="-3.810" r="0.900" fill="#12151c"/><rect x="2.560" y="2.560" width="2.500" height="2.500" rx="1.250" fill="#c79b5c"/><circle cx="3.810" cy="3.810" r="0.900" fill="#12151c"/></svg>