<svg xmlns="http://www.w3.org/2000/svg" viewBox="-15.67 -3.94 31.34 7.43" preserveAspectRatio="xMidYMid meet" style="width:100%;height:100%"><rect x="-15.67" y="-3.94" width="31.34" height="7.43" fill="#12151c"/><path d="M -14.668 -0.127 A 0.508 0.508 0 0 1 -14.161 -0.635" fill="none" stroke="#6b7280" stroke-width="0.12" opacity="0.8"/><path d="M -14.161 0.635 A 0.508 0.508 0 0 1 -14.668 0.127" fill="none" stroke="#6b7280" stroke-width="0.12" opacity="0.8"/><path d="M 14.161 -0.635 A 0.508 0.508 0 0 1 14.668 -0.127" fill="none" stroke="#6b7280" stroke-width="0.12" opacity="0.8"/><path d="M 14.668 0.127 A 0.508 0.508 0 0 1 14.161 0.635" fill="none" stroke="#6b7280" stroke-width="0.12" opacity="0.8"/><circle cx="-12.891" cy="-2.840" r="0.100" fill="none" stroke="#e6e9ef" stroke-width="0.12" opacity="1"/><circle cx="-12.891" cy="-2.840" r="0.100" fill="none" stroke="#6b7280" stroke-width="0.12" opacity="0.8"/><circle cx="-13.655" cy="0.000" r="0.100" fill="none" stroke="#6b7280" stroke-width="0.1"/><circle cx="13.655" cy="0.000" r="0.100" fill="none" stroke="#6b7280" stroke-width="0.1"/><rect x="-12.435" y="-2.490" width="0.740" height="2.250" rx="0.000" fill="#c79b5c"/><rect x="-12.435" y="0.240" width="0.740" height="2.250" rx="0.000" fill="#c79b5c"/><rect x="-11.165" y="-2.490" width="0.740" height="2.250" rx="0.000" fill="#c79b5c"/><rect x="-11.165" y="0.240" width="0.740" height="2.250" rx="0.000" fill="#c79b5c"/><rect x="-9.895" y="-2.490" width="0.740" height="2.250" rx="0.000" fill="#c79b5c"/><rect x="-9.895" y="0.240" width="0.740" height="2.250" rx="0.000" fill="#c79b5c"/><rect x="-8.625" y="-2.490" width="0.740" height="2.250" rx="0.000" fill="#c79b5c"/><rect x="-8.625" y="0.240" width="0.740" height="2.250" rx="0.000" fill="#c79b5c"/><rect x="-7.355" y="-2.490" width="0.740" height="2.250" rx="0.000" fill="#c79b5c"/><rect x="-7.355" y="0.240" width="0.740" height="2.250" rx="0.000" fill="#c79b5c"/><rect x="-6.085" y="-2.490" width="0.740" height="2.250" rx="0.000" fill="#c79b5c"/><rect x="-6.085" y="0.240" width="0.740" height="2.250" rx="0.000" fill="#c79b5c"/><rect x="-4.815" y="-2.490" width="0.740" height="2.250" rx="0.000" fill="#c79b5c"/><rect x="-4.815" y="0.240" width="0.740" height="2.250" rx="0.000" fill="#c79b5c"/><rect x="-3.545" y="-2.490" width="0.740" height="2.250" rx="0.000" fill="#c79b5c"/><rect x="-3.545" y="0.240" width="0.740" height="2.250" rx="0.000" fill="#c79b5c"/><rect x="-2.275" y="-2.490" width="0.740" height="2.250" rx="0.000" fill="#c79b5c"/><rect x="-2.275" y="0.240" width="0.740" height="2.250" rx="0.000" fill="#c79b5c"/><rect x="-1.005" y="-2.490" width="0.740" height="2.250" rx="0.000" fill="#c79b5c"/><rect x="-1.005" y="0.240" width="0.740" height="2.250" rx="0.000" fill="#c79b5c"/><rect x="0.265" y="-2.490" width="0.740" height="2.250" rx="0.000" fill="#c79b5c"/><rect x="0.265" y="0.240" width="0.740" height="2.250" rx="0.000" fill="#c79b5c"/><rect x="1.535" y="-2.490" width="0.740" height="2.250" rx="0.000" fill="#c79b5c"/><rect x="1.535" y="0.240" width="0.740" height="2.250" rx="0.000" fill="#c79b5c"/><rect x="2.805" y="-2.490" width="0.740" height="2.250" rx="0.000" fill="#c79b5c"/><rect x="2.805" y="0.240" width="0.740" height="2.250" rx="0.000" fill="#c79b5c"/><rect x="4.075" y="-2.490" width="0.740" height="2.250" rx="0.000" fill="#c79b5c"/><rect x="4.075" y="0.240" width="0.740" height="2.250" rx="0.000" fill="#c79b5c"/><rect x="5.345" y="-2.490" width="0.740" height="2.250" rx="0.000" fill="#c79b5c"/><rect x="5.345" y="0.240" width="0.740" height="2.250" rx="0.000" fill="#c79b5c"/><rect x="6.615" y="-2.490" width="0.740" height="2.250" rx="0.000" fill="#c79b5c"/><rect x="6.615" y="0.240" width="0.740" height="2.250" rx="0.000" fill="#c79b5c"/><rect x="7.885" y="-2.490" width="0.740" height="2.250" rx="0.000" fill="#c79b5c"/><rect x="7.885" y="0.240" width="0.740" height="2.250" rx="0.000" fill="#c79b5c"/><rect x="9.155" y="-2.490" width="0.740" height="2.250" rx="0.000" fill="#c79b5c"/><rect x="9.155" y="0.240" width="0.740" height="2.250" rx="0.000" fill="#c79b5c"/><rect x="10.425" y="-2.490" width="0.740" height="2.250" rx="0.000" fill="#c79b5c"/><rect x="10.425" y="0.240" width="0.740" height="2.250" rx="0.000" fill="#c79b5c"/><rect x="11.695" y="-2.490" width="0.740" height="2.250" rx="0.000" fill="#c79b5c"/><rect x="11.695" y="0.240" width="0.740" height="2.250" rx="0.000" fill="#c79b5c"/></svg>