<svg xmlns="http://www.w3.org/2000/svg" viewBox="-21.26 -8.24 42.51 18.80" preserveAspectRatio="xMidYMid meet" style="width:100%;height:100%"><rect x="-21.26" y="-8.24" width="42.51" height="18.80" fill="#12151c"/><line x1="-20.260" y1="-7.240" x2="20.250" y2="-7.240" stroke="#d24d4d" stroke-width="0.080" stroke-linecap="round" opacity="0.7"/><line x1="20.250" y1="-7.240" x2="20.250" y2="9.560" stroke="#d24d4d" stroke-width="0.080" stroke-linecap="round" opacity="0.7"/><line x1="20.250" y1="9.560" x2="-20.260" y2="9.560" stroke="#d24d4d" stroke-width="0.080" stroke-linecap="round" opacity="0.7"/><line x1="-20.260" y1="9.560" x2="-20.260" y2="-7.240" stroke="#d24d4d" stroke-width="0.080" stroke-linecap="round" opacity="0.7"/><circle cx="-18.100" cy="-2.720" r="1.400" fill="none" stroke="#e6e9ef" stroke-width="0.12" opacity="1"/><circle cx="-16.190" cy="5.760" r="1.400" fill="none" stroke="#e6e9ef" stroke-width="0.12" opacity="1"/><circle cx="-14.290" cy="-2.720" r="1.400" fill="none" stroke="#e6e9ef" stroke-width="0.12" opacity="1"/><circle cx="-12.380" cy="5.760" r="1.400" fill="none" stroke="#e6e9ef" stroke-width="0.12" opacity="1"/><circle cx="-10.480" cy="-2.720" r="1.400" fill="none" stroke="#e6e9ef" stroke-width="0.12" opacity="1"/><circle cx="-8.570" cy="5.760" r="1.400" fill="none" stroke="#e6e9ef" stroke-width="0.12" opacity="1"/><circle cx="-6.670" cy="-2.720" r="1.400" fill="none" stroke="#e6e9ef" stroke-width="0.12" opacity="1"/><circle cx="-4.760" cy="5.760" r="1.400" fill="none" stroke="#e6e9ef" stroke-width="0.12" opacity="1"/><circle cx="-2.860" cy="-2.720" r="1.400" fill="none" stroke="#e6e9ef" stroke-width="0.12" opacity="1"/><circle cx="-0.950" cy="5.760" r="1.400" fill="none" stroke="#e6e9ef" stroke-width="0.12" opacity="1"/><circle cx="0.950" cy="-2.720" r="1.400" fill="none" stroke="#e6e9ef" stroke-width="0.12" opacity="1"/><circle cx="2.860" cy="5.760" r="1.400" fill="none" stroke="#e6e9ef" stroke-width="0.12" opacity="1"/><circle cx="4.760" cy="-2.720" r="1.400" fill="none" stroke="#e6e9ef" stroke-width="0.12" opacity="1"/><circle cx="6.670" cy="5.760" r="1.400" fill="none" stroke="#e6e9ef" stroke-width="0.12" opacity="1"/><circle cx="8.570" cy="-2.720" r="1.400" fill="none" stroke="#e6e9ef" stroke-width="0.12" opacity="1"/><circle cx="10.480" cy="5.760" r="1.400" fill="none" stroke="#e6e9ef" stroke-width="0.12" opacity="1"/><circle cx="12.380" cy="-2.720" r="1.400" fill="none" stroke="#e6e9ef" stroke-width="0.12" opacity="1"/><circle cx="14.290" cy="5.760" r="1.400" fill="none" stroke="#e6e9ef" stroke-width="0.12" opacity="1"/><circle cx="16.190" cy="-2.720" r="1.400" fill="none" stroke="#e6e9ef" stroke-width="0.12" opacity="1"/><circle cx="18.100" cy="5.760" r="1.400" fill="none" stroke="#e6e9ef" stroke-width="0.12" opacity="1"/><circle cx="-18.100" cy="-2.720" r="1.400" fill="none" stroke="#6b7280" stroke-width="0.12" opacity="0.8"/><circle cx="-16.190" cy="5.760" r="1.400" fill="none" stroke="#6b7280" stroke-width="0.12" opacity="0.8"/><circle cx="-14.290" cy="-2.720" r="1.400" fill="none" stroke="#6b7280" stroke-width="0.12" opacity="0.8"/><circle cx="-12.380" cy="5.760" r="1.400" fill="none" stroke="#6b7280" stroke-width="0.12" opacity="0.8"/><circle cx="-10.480" cy="-2.720" r="1.400" fill="none" stroke="#6b7280" stroke-width="0.12" opacity="0.8"/><circle cx="-8.570" cy="5.760" r="1.400" fill="none" stroke="#6b7280" stroke-width="0.12" opacity="0.8"/><circle cx="-6.670" cy="-2.720" r="1.400" fill="none" stroke="#6b7280" stroke-width="0.12" opacity="0.8"/><circle cx="-4.760" cy="5.760" r="1.400" fill="none" stroke="#6b7280" stroke-width="0.12" opacity="0.8"/><circle cx="-2.860" cy="-2.720" r="1.400" fill="none" stroke="#6b7280" stroke-width="0.12" opacity="0.8"/><circle cx="-0.950" cy="5.760" r="1.400" fill="none" stroke="#6b7280" stroke-width="0.12" opacity="0.8"/><circle cx="0.950" cy="-2.720" r="1.400" fill="none" stroke="#6b7280" stroke-width="0.12" opacity="0.8"/><circle cx="2.860" cy="5.760" r="1.400" fill="none" stroke="#6b7280" stroke-width="0.12" opacity="0.8"/><circle cx="4.760" cy="-2.720" r="1.400" fill="none" stroke="#6b7280" stroke-width="0.12" opacity="0.8"/><circle cx="6.670" cy="5.760" r="1.400" fill="none" stroke="#6b7280" stroke-width="0.12" opacity="0.8"/><circle cx="8.570" cy="-2.720" r="1.400" fill="none" stroke="#6b7280" stroke-width="0.12" opacity="0.8"/><circle cx="10.480" cy="5.760" r="1.400" fill="none" stroke="#6b7280" stroke-width="0.12" opacity="0.8"/><circle cx="12.380" cy="-2.720" r="1.400" fill="none" stroke="#6b7280" stroke-width="0.12" opacity="0.8"/><circle cx="14.290" cy="5.760" r="1.400" fill="none" stroke="#6b7280" stroke-width="0.12" opacity="0.8"/><circle cx="16.190" cy="-2.720" r="1.400" fill="none" stroke="#6b7280" stroke-width="0.12" opacity="0.8"/><circle cx="18.100" cy="5.760" r="1.400" fill="none" stroke="#6b7280" stroke-width="0.12" opacity="0.8"/><rect x="-18.997" y="-6.600" width="1.800" height="1.800" rx="0.900" fill="#c79b5c"/><circle cx="-18.098" cy="-5.700" r="0.550" fill="#12151c"/><rect x="-17.092" y="4.800" width="1.800" height="1.800" rx="0.900" fill="#c79b5c"/><circle cx="-16.192" cy="5.700" r="0.550" fill="#12151c"/><rect x="-15.188" y="-6.600" width="1.800" height="1.800" rx="0.900" fill="#c79b5c"/><circle cx="-14.287" cy="-5.700" r="0.550" fill="#12151c"/><rect x="-13.283" y="4.800" width="1.800" height="1.800" rx="0.900" fill="#c79b5c"/><circle cx="-12.383" cy="5.700" r="0.550" fill="#12151c"/><rect x="-11.377" y="-6.600" width="1.800" height="1.800" rx="0.900" fill="#c79b5c"/><circle cx="-10.477" cy="-5.700" r="0.550" fill="#12151c"/><rect x="-9.473" y="4.800" width="1.800" height="1.800" rx="0.900" fill="#c79b5c"/><circle cx="-8.572" cy="5.700" r="0.550" fill="#12151c"/><rect x="-7.568" y="-6.600" width="1.800" height="1.800" rx="0.900" fill="#c79b5c"/><circle cx="-6.668" cy="-5.700" r="0.550" fill="#12151c"/><rect x="-5.663" y="4.800" width="1.800" height="1.800" rx="0.900" fill="#c79b5c"/><circle cx="-4.763" cy="5.700" r="0.550" fill="#12151c"/><rect x="-3.757" y="-6.600" width="1.800" height="1.800" rx="0.900" fill="#c79b5c"/><circle cx="-2.857" cy="-5.700" r="0.550" fill="#12151c"/><rect x="-1.853" y="4.800" width="1.800" height="1.800" rx="0.900" fill="#c79b5c"/><circle cx="-0.953" cy="5.700" r="0.550" fill="#12151c"/><rect x="0.052" y="-6.600" width="1.800" height="1.800" rx="0.900" fill="#c79b5c"/><circle cx="0.953" cy="-5.700" r="0.550" fill="#12151c"/><rect x="1.958" y="4.800" width="1.800" height="1.800" rx="0.900" fill="#c79b5c"/><circle cx="2.857" cy="5.700" r="0.550" fill="#12151c"/><rect x="3.863" y="-6.600" width="1.800" height="1.800" rx="0.900" fill="#c79b5c"/><circle cx="4.763" cy="-5.700" r="0.550" fill="#12151c"/><rect x="5.768" y="4.800" width="1.800" height="1.800" rx="0.900" fill="#c79b5c"/><circle cx="6.668" cy="5.700" r="0.550" fill="#12151c"/><rect x="7.672" y="-6.600" width="1.800" height="1.800" rx="0.900" fill="#c79b5c"/><circle cx="8.572" cy="-5.700" r="0.550" fill="#12151c"/><rect x="9.577" y="4.800" width="1.800" height="1.800" rx="0.900" fill="#c79b5c"/><circle cx="10.477" cy="5.700" r="0.550" fill="#12151c"/><rect x="11.482" y="-6.600" width="1.800" height="1.800" rx="0.900" fill="#c79b5c"/><circle cx="12.383" cy="-5.700" r="0.550" fill="#12151c"/><rect x="13.387" y="4.800" width="1.800" height="1.800" rx="0.900" fill="#c79b5c"/><circle cx="14.287" cy="5.700" r="0.550" fill="#12151c"/><rect x="15.292" y="-6.600" width="1.800" height="1.800" rx="0.900" fill="#c79b5c"/><circle cx="16.192" cy="-5.700" r="0.550" fill="#12151c"/><rect x="17.198" y="4.800" width="1.800" height="1.800" rx="0.900" fill="#c79b5c"/><circle cx="18.098" cy="5.700" r="0.550" fill="#12151c"/></svg>