<svg xmlns="http://www.w3.org/2000/svg" viewBox="-5.50 -5.57 10.56 11.14" preserveAspectRatio="xMidYMid meet" style="width:100%;height:100%"><rect x="-5.50" y="-5.57" width="10.56" height="11.14" fill="#12151c"/><line x1="-3.546" y1="-4.318" x2="3.546" y2="-4.318" stroke="#e6e9ef" stroke-width="0.200" stroke-linecap="round" opacity="1"/><line x1="-3.546" y1="-3.715" x2="-3.546" y2="-4.318" stroke="#e6e9ef" stroke-width="0.200" stroke-linecap="round" opacity="1"/><line x1="-3.546" y1="-1.175" x2="-3.546" y2="-1.365" stroke="#e6e9ef" stroke-width="0.200" stroke-linecap="round" opacity="1"/><line x1="-3.546" y1="1.365" x2="-3.546" y2="1.175" stroke="#e6e9ef" stroke-width="0.200" stroke-linecap="round" opacity="1"/><line x1="-3.546" y1="3.715" x2="-3.546" y2="4.318" stroke="#e6e9ef" stroke-width="0.200" stroke-linecap="round" opacity="1"/><line x1="-3.546" y1="4.318" x2="3.546" y2="4.318" stroke="#e6e9ef" stroke-width="0.200" stroke-linecap="round" opacity="1"/><line x1="-3.247" y1="-3.715" x2="-3.247" y2="-4.318" stroke="#e6e9ef" stroke-width="0.200" stroke-linecap="round" opacity="1"/><line x1="-3.247" y1="-1.175" x2="-3.247" y2="-1.365" stroke="#e6e9ef" stroke-width="0.200" stroke-linecap="round" opacity="1"/><line x1="-3.247" y1="1.365" x2="-3.247" y2="1.175" stroke="#e6e9ef" stroke-width="0.200" stroke-linecap="round" opacity="1"/><line x1="-3.247" y1="4.318" x2="-3.247" y2="3.715" stroke="#e6e9ef" stroke-width="0.200" stroke-linecap="round" opacity="1"/><line x1="3.247" y1="-3.715" x2="3.247" y2="-4.318" stroke="#e6e9ef" stroke-width="0.200" stroke-linecap="round" opacity="1"/><line x1="3.247" y1="-1.175" x2="3.247" y2="-1.365" stroke="#e6e9ef" stroke-width="0.200" stroke-linecap="round" opacity="1"/><line x1="3.247" y1="1.365" x2="3.247" y2="1.175" stroke="#e6e9ef" stroke-width="0.200" stroke-linecap="round" opacity="1"/><line x1="3.247" y1="4.318" x2="3.247" y2="3.715" stroke="#e6e9ef" stroke-width="0.200" stroke-linecap="round" opacity="1"/><line x1="3.546" y1="-4.318" x2="3.546" y2="-3.715" stroke="#e6e9ef" stroke-width="0.200" stroke-linecap="round" opacity="1"/><line x1="3.546" y1="-1.175" x2="3.546" y2="-1.365" stroke="#e6e9ef" stroke-width="0.200" stroke-linecap="round" opacity="1"/><line x1="3.546" y1="1.365" x2="3.546" y2="1.175" stroke="#e6e9ef" stroke-width="0.200" stroke-linecap="round" opacity="1"/><line x1="3.546" y1="4.318" x2="3.546" y2="3.715" stroke="#e6e9ef" stroke-width="0.200" stroke-linecap="round" opacity="1"/><line x1="-3.810" y1="-3.365" x2="-1.270" y2="-3.365" stroke="#4a5160" stroke-width="0.080" stroke-linecap="round" opacity="0.7"/><line x1="-3.810" y1="-1.715" x2="-3.810" y2="-3.365" stroke="#4a5160" stroke-width="0.080" stroke-linecap="round" opacity="0.7"/><line x1="-3.810" y1="-1.715" x2="-1.270" y2="-1.715" stroke="#4a5160" stroke-width="0.080" stroke-linecap="round" opacity="0.7"/><line x1="-3.810" y1="-0.825" x2="-1.270" y2="-0.825" stroke="#4a5160" stroke-width="0.080" stroke-linecap="round" opacity="0.7"/><line x1="-3.810" y1="0.825" x2="-3.810" y2="-0.825" stroke="#4a5160" stroke-width="0.080" stroke-linecap="round" opacity="0.7"/><line x1="-3.810" y1="0.825" x2="-1.270" y2="0.825" stroke="#4a5160" stroke-width="0.080" stroke-linecap="round" opacity="0.7"/><line x1="-3.810" y1="1.715" x2="-1.270" y2="1.715" stroke="#4a5160" stroke-width="0.080" stroke-linecap="round" opacity="0.7"/><line x1="-3.810" y1="3.365" x2="-3.810" y2="1.715" stroke="#4a5160" stroke-width="0.080" stroke-linecap="round" opacity="0.7"/><line x1="-3.810" y1="3.365" x2="-1.270" y2="3.365" stroke="#4a5160" stroke-width="0.080" stroke-linecap="round" opacity="0.7"/><line x1="-3.040" y1="-2.540" x2="-2.540" y2="-2.540" stroke="#4a5160" stroke-width="0.080" stroke-linecap="round" opacity="0.7"/><line x1="-3.040" y1="0.000" x2="-2.540" y2="0.000" stroke="#4a5160" stroke-width="0.080" stroke-linecap="round" opacity="0.7"/><line x1="-3.040" y1="2.540" x2="-2.540" y2="2.540" stroke="#4a5160" stroke-width="0.080" stroke-linecap="round" opacity="0.7"/><line x1="-2.540" y1="-2.540" x2="-2.540" y2="-3.040" stroke="#4a5160" stroke-width="0.080" stroke-linecap="round" opacity="0.7"/><line x1="-2.540" y1="-2.540" x2="-2.040" y2="-2.540" stroke="#4a5160" stroke-width="0.080" stroke-linecap="round" opacity="0.7"/><line x1="-2.540" y1="-2.040" x2="-2.540" y2="-2.540" stroke="#4a5160" stroke-width="0.080" stroke-linecap="round" opacity="0.7"/><line x1="-2.540" y1="0.000" x2="-2.540" y2="-0.500" stroke="#4a5160" stroke-width="0.080" stroke-linecap="round" opacity="0.7"/><line x1="-2.540" y1="0.000" x2="-2.040" y2="0.000" stroke="#4a5160" stroke-width="0.080" stroke-linecap="round" opacity="0.7"/><line x1="-2.540" y1="0.500" x2="-2.540" y2="0.000" stroke="#4a5160" stroke-width="0.080" stroke-linecap="round" opacity="0.7"/><line x1="-2.540" y1="2.540" x2="-2.540" y2="2.040" stroke="#4a5160" stroke-width="0.080" stroke-linecap="round" opacity="0.7"/><line x1="-2.540" y1="2.540" x2="-2.040" y2="2.540" stroke="#4a5160" stroke-width="0.080" stroke-linecap="round" opacity="0.7"/><line x1="-2.540" y1="3.040" x2="-2.540" y2="2.540" stroke="#4a5160" stroke-width="0.080" stroke-linecap="round" opacity="0.7"/><line x1="-1.270" y1="-1.715" x2="-1.270" y2="-3.365" stroke="#4a5160" stroke-width="0.080" stroke-linecap="round" opacity="0.7"/><line x1="-1.270" y1="0.825" x2="-1.270" y2="-0.825" stroke="#4a5160" stroke-width="0.080" stroke-linecap="round" opacity="0.7"/><line x1="-1.270" y1="3.365" x2="-1.270" y2="1.715" stroke="#4a5160" stroke-width="0.080" stroke-linecap="round" opacity="0.7"/><line x1="-0.500" y1="0.000" x2="0.000" y2="0.000" stroke="#4a5160" stroke-width="0.080" stroke-linecap="round" opacity="0.7"/><line x1="0.000" y1="0.000" x2="0.000" y2="-0.500" stroke="#4a5160" stroke-width="0.080" stroke-linecap="round" opacity="0.7"/><line x1="0.000" y1="0.000" x2="0.500" y2="0.000" stroke="#4a5160" stroke-width="0.080" stroke-linecap="round" opacity="0.7"/><line x1="0.000" y1="0.500" x2="0.000" y2="0.000" stroke="#4a5160" stroke-width="0.080" stroke-linecap="round" opacity="0.7"/><line x1="1.270" y1="-3.365" x2="3.810" y2="-3.365" stroke="#4a5160" stroke-width="0.080" stroke-linecap="round" opacity="0.7"/><line x1="1.270" y1="-1.715" x2="1.270" y2="-3.365" stroke="#4a5160" stroke-width="0.080" stroke-linecap="round" opacity="0.7"/><line x1="1.270" y1="-1.715" x2="3.810" y2="-1.715" stroke="#4a5160" stroke-width="0.080" stroke-linecap="round" opacity="0.7"/><line x1="1.270" y1="-0.825" x2="3.810" y2="-0.825" stroke="#4a5160" stroke-width="0.080" stroke-linecap="round" opacity="0.7"/><line x1="1.270" y1="0.825" x2="1.270" y2="-0.825" stroke="#4a5160" stroke-width="0.080" stroke-linecap="round" opacity="0.7"/><line x1="1.270" y1="0.825" x2="3.810" y2="0.825" stroke="#4a5160" stroke-width="0.080" stroke-linecap="round" opacity="0.7"/><line x1="1.270" y1="1.715" x2="3.810" y2="1.715" stroke="#4a5160" stroke-width="0.080" stroke-linecap="round" opacity="0.7"/><line x1="1.270" y1="3.365" x2="1.270" y2="1.715" stroke="#4a5160" stroke-width="0.080" stroke-linecap="round" opacity="0.7"/><line x1="1.270" y1="3.365" x2="3.810" y2="3.365" stroke="#4a5160" stroke-width="0.080" stroke-linecap="round" opacity="0.7"/><line x1="2.040" y1="-2.540" x2="2.540" y2="-2.540" stroke="#4a5160" stroke-width="0.080" stroke-linecap="round" opacity="0.7"/><line x1="2.040" y1="0.000" x2="2.540" y2="0.000" stroke="#4a5160" stroke-width="0.080" stroke-linecap="round" opacity="0.7"/><line x1="2.040" y1="2.540" x2="2.540" y2="2.540" stroke="#4a5160" stroke-width="0.080" stroke-linecap="round" opacity="0.7"/><line x1="2.540" y1="-2.540" x2="2.540" y2="-3.040" stroke="#4a5160" stroke-width="0.080" stroke-linecap="round" opacity="0.7"/><line x1="2.540" y1="-2.540" x2="3.040" y2="-2.540" stroke="#4a5160" stroke-width="0.080" stroke-linecap="round" opacity="0.7"/><line x1="2.540" y1="-2.040" x2="2.540" y2="-2.540" stroke="#4a5160" stroke-width="0.080" stroke-linecap="round" opacity="0.7"/><line x1="2.540" y1="0.000" x2="2.540" y2="-0.500" stroke="#4a5160" stroke-width="0.080" stroke-linecap="round" opacity="0.7"/><line x1="2.540" y1="0.000" x2="3.040" y2="0.000" stroke="#4a5160" stroke-width="0.080" stroke-linecap="round" opacity="0.7"/><line x1="2.540" y1="0.500" x2="2.540" y2="0.000" stroke="#4a5160" stroke-width="0.080" stroke-linecap="round" opacity="0.7"/><line x1="2.540" y1="2.540" x2="2.540" y2="2.040" stroke="#4a5160" stroke-width="0.080" stroke-linecap="round" opacity="0.7"/><line x1="2.540" y1="2.540" x2="3.040" y2="2.540" stroke="#4a5160" stroke-width="0.080" stroke-linecap="round" opacity="0.7"/><line x1="2.540" y1="3.040" x2="2.540" y2="2.540" stroke="#4a5160" stroke-width="0.080" stroke-linecap="round" opacity="0.7"/><line x1="3.810" y1="-1.715" x2="3.810" y2="-3.365" stroke="#4a5160" stroke-width="0.080" stroke-linecap="round" opacity="0.7"/><line x1="3.810" y1="0.825" x2="3.810" y2="-0.825" stroke="#4a5160" stroke-width="0.080" stroke-linecap="round" opacity="0.7"/><line x1="3.810" y1="3.365" x2="3.810" y2="1.715" stroke="#4a5160" stroke-width="0.080" stroke-linecap="round" opacity="0.7"/><line x1="-4.060" y1="-4.568" x2="4.060" y2="-4.568" stroke="#d24d4d" stroke-width="0.080" stroke-linecap="round" opacity="0.7"/><line x1="-4.060" y1="4.568" x2="-4.060" y2="-4.568" stroke="#d24d4d" stroke-width="0.080" stroke-linecap="round" opacity="0.7"/><line x1="-4.060" y1="4.568" x2="4.060" y2="4.568" stroke="#d24d4d" stroke-width="0.080" stroke-linecap="round" opacity="0.7"/><line x1="4.060" y1="4.568" x2="4.060" y2="-4.568" stroke="#d24d4d" stroke-width="0.080" stroke-linecap="round" opacity="0.7"/><line x1="-3.747" y1="-3.135" x2="-3.247" y2="-3.135" stroke="#6b7280" stroke-width="0.100" stroke-linecap="round" opacity="0.8"/><line x1="-3.747" y1="-1.945" x2="-3.747" y2="-3.135" stroke="#6b7280" stroke-width="0.100" stroke-linecap="round" opacity="0.8"/><line x1="-3.747" y1="-1.945" x2="-3.247" y2="-1.945" stroke="#6b7280" stroke-width="0.100" stroke-linecap="round" opacity="0.8"/><line x1="-3.747" y1="-0.595" x2="-3.247" y2="-0.595" stroke="#6b7280" stroke-width="0.100" stroke-linecap="round" opacity="0.8"/><line x1="-3.747" y1="0.595" x2="-3.747" y2="-0.595" stroke="#6b7280" stroke-width="0.100" stroke-linecap="round" opacity="0.8"/><line x1="-3.747" y1="0.595" x2="-3.247" y2="0.595" stroke="#6b7280" stroke-width="0.100" stroke-linecap="round" opacity="0.8"/><line x1="-3.747" y1="1.945" x2="-3.247" y2="1.945" stroke="#6b7280" stroke-width="0.100" stroke-linecap="round" opacity="0.8"/><line x1="-3.747" y1="3.135" x2="-3.747" y2="1.945" stroke="#6b7280" stroke-width="0.100" stroke-linecap="round" opacity="0.8"/><line x1="-3.747" y1="3.135" x2="-3.247" y2="3.135" stroke="#6b7280" stroke-width="0.100" stroke-linecap="round" opacity="0.8"/><line x1="-3.546" y1="-4.318" x2="3.546" y2="-4.318" stroke="#6b7280" stroke-width="0.100" stroke-linecap="round" opacity="0.8"/><line x1="-3.546" y1="-3.135" x2="-3.546" y2="-4.318" stroke="#6b7280" stroke-width="0.100" stroke-linecap="round" opacity="0.8"/><line x1="-3.546" y1="-0.595" x2="-3.546" y2="-1.945" stroke="#6b7280" stroke-width="0.100" stroke-linecap="round" opacity="0.8"/><line x1="-3.546" y1="1.945" x2="-3.546" y2="0.595" stroke="#6b7280" stroke-width="0.100" stroke-linecap="round" opacity="0.8"/><line x1="-3.546" y1="3.135" x2="-3.546" y2="4.318" stroke="#6b7280" stroke-width="0.100" stroke-linecap="round" opacity="0.8"/><line x1="-3.546" y1="4.318" x2="3.546" y2="4.318" stroke="#6b7280" stroke-width="0.100" stroke-linecap="round" opacity="0.8"/><line x1="-3.247" y1="4.318" x2="-3.247" y2="-4.318" stroke="#6b7280" stroke-width="0.100" stroke-linecap="round" opacity="0.8"/><line x1="3.247" y1="-3.135" x2="3.747" y2="-3.135" stroke="#6b7280" stroke-width="0.100" stroke-linecap="round" opacity="0.8"/><line x1="3.247" y1="-1.945" x2="3.747" y2="-1.945" stroke="#6b7280" stroke-width="0.100" stroke-linecap="round" opacity="0.8"/><line x1="3.247" y1="-0.595" x2="3.747" y2="-0.595" stroke="#6b7280" stroke-width="0.100" stroke-linecap="round" opacity="0.8"/><line x1="3.247" y1="0.595" x2="3.747" y2="0.595" stroke="#6b7280" stroke-width="0.100" stroke-linecap="round" opacity="0.8"/><line x1="3.247" y1="1.945" x2="3.747" y2="1.945" stroke="#6b7280" stroke-width="0.100" stroke-linecap="round" opacity="0.8"/><line x1="3.247" y1="3.135" x2="3.747" y2="3.135" stroke="#6b7280" stroke-width="0.100" stroke-linecap="round" opacity="0.8"/><line x1="3.247" y1="4.318" x2="3.247" y2="-4.318" stroke="#6b7280" stroke-width="0.100" stroke-linecap="round" opacity="0.8"/><line x1="3.546" y1="-4.318" x2="3.546" y2="-3.135" stroke="#6b7280" stroke-width="0.100" stroke-linecap="round" opacity="0.8"/><line x1="3.546" y1="-0.595" x2="3.546" y2="-1.945" stroke="#6b7280" stroke-width="0.100" stroke-linecap="round" opacity="0.8"/><line x1="3.546" y1="1.945" x2="3.546" y2="0.595" stroke="#6b7280" stroke-width="0.100" stroke-linecap="round" opacity="0.8"/><line x1="3.546" y1="4.318" x2="3.546" y2="3.135" stroke="#6b7280" stroke-width="0.100" stroke-linecap="round" opacity="0.8"/><line x1="3.747" y1="-1.945" x2="3.747" y2="-3.135" stroke="#6b7280" stroke-width="0.100" stroke-linecap="round" opacity="0.8"/><line x1="3.747" y1="0.595" x2="3.747" y2="-0.595" stroke="#6b7280" stroke-width="0.100" stroke-linecap="round" opacity="0.8"/><line x1="3.747" y1="3.135" x2="3.747" y2="1.945" stroke="#6b7280" stroke-width="0.100" stroke-linecap="round" opacity="0.8"/><circle cx="-4.375" cy="-4.050" r="0.125" fill="none" stroke="#e6e9ef" stroke-width="0.12" opacity="1"/><circle cx="-2.247" cy="-2.540" r="0.250" fill="none" stroke="#6b7280" stroke-width="0.12" opacity="0.8"/><rect x="-3.810" y="-3.365" width="2.540" height="1.650" rx="0.000" fill="#c79b5c"/><rect x="-3.810" y="-0.825" width="2.540" height="1.650" rx="0.000" fill="#c79b5c"/><rect x="-3.810" y="1.715" width="2.540" height="1.650" rx="0.000" fill="#c79b5c"/><rect x="1.270" y="1.715" width="2.540" height="1.650" rx="0.000" fill="#c79b5c"/><rect x="1.270" y="-0.825" width="2.540" height="1.650" rx="0.000" fill="#c79b5c"/><rect x="1.270" y="-3.365" width="2.540" height="1.650" rx="0.000" fill="#c79b5c"/></svg>