<svg xmlns="http://www.w3.org/2000/svg" viewBox="-9.25 -6.75 18.50 13.50" preserveAspectRatio="xMidYMid meet" style="width:100%;height:100%"><rect x="-9.25" y="-6.75" width="18.50" height="13.50" fill="#12151c"/><line x1="-8.000" y1="-5.500" x2="8.000" y2="-5.500" stroke="#e6e9ef" stroke-width="0.200" stroke-linecap="round" opacity="1"/><line x1="-8.000" y1="5.500" x2="-8.000" y2="-5.500" stroke="#e6e9ef" stroke-width="0.200" stroke-linecap="round" opacity="1"/><line x1="-8.000" y1="5.500" x2="8.000" y2="5.500" stroke="#e6e9ef" stroke-width="0.200" stroke-linecap="round" opacity="1"/><line x1="-6.350" y1="0.000" x2="-5.350" y2="0.000" stroke="#e6e9ef" stroke-width="0.200" stroke-linecap="round" opacity="1"/><line x1="-6.350" y1="2.560" x2="-6.350" y2="-2.560" stroke="#e6e9ef" stroke-width="0.200" stroke-linecap="round" opacity="1"/><line x1="-5.350" y1="0.000" x2="-0.650" y2="-2.617" stroke="#e6e9ef" stroke-width="0.200" stroke-linecap="round" opacity="1"/><line x1="-1.650" y1="-5.200" x2="4.960" y2="-5.200" stroke="#e6e9ef" stroke-width="0.200" stroke-linecap="round" opacity="1"/><line x1="-1.650" y1="-2.060" x2="-1.650" y2="-5.200" stroke="#e6e9ef" stroke-width="0.200" stroke-linecap="round" opacity="1"/><line x1="-1.650" y1="5.200" x2="-1.650" y2="2.060" stroke="#e6e9ef" stroke-width="0.200" stroke-linecap="round" opacity="1"/><line x1="-1.650" y1="5.200" x2="4.960" y2="5.200" stroke="#e6e9ef" stroke-width="0.200" stroke-linecap="round" opacity="1"/><line x1="2.810" y1="-2.000" x2="4.810" y2="-2.000" stroke="#e6e9ef" stroke-width="0.200" stroke-linecap="round" opacity="1"/><line x1="2.810" y1="-1.000" x2="4.810" y2="1.000" stroke="#e6e9ef" stroke-width="0.200" stroke-linecap="round" opacity="1"/><line x1="2.810" y1="2.000" x2="2.810" y2="-2.000" stroke="#e6e9ef" stroke-width="0.200" stroke-linecap="round" opacity="1"/><line x1="2.810" y1="2.000" x2="4.810" y2="2.000" stroke="#e6e9ef" stroke-width="0.200" stroke-linecap="round" opacity="1"/><line x1="3.810" y1="-2.000" x2="3.810" y2="-2.560" stroke="#e6e9ef" stroke-width="0.200" stroke-linecap="round" opacity="1"/><line x1="3.810" y1="2.560" x2="3.810" y2="2.000" stroke="#e6e9ef" stroke-width="0.200" stroke-linecap="round" opacity="1"/><line x1="4.810" y1="2.000" x2="4.810" y2="-2.000" stroke="#e6e9ef" stroke-width="0.200" stroke-linecap="round" opacity="1"/><line x1="4.960" y1="-5.200" x2="5.537" y2="-4.623" stroke="#e6e9ef" stroke-width="0.200" stroke-linecap="round" opacity="1"/><line x1="4.960" y1="5.200" x2="5.537" y2="4.623" stroke="#e6e9ef" stroke-width="0.200" stroke-linecap="round" opacity="1"/><line x1="8.000" y1="5.500" x2="8.000" y2="-5.500" stroke="#e6e9ef" stroke-width="0.200" stroke-linecap="round" opacity="1"/><line x1="-6.850" y1="-3.810" x2="-6.350" y2="-3.810" stroke="#4a5160" stroke-width="0.100" stroke-linecap="round" opacity="0.7"/><line x1="-6.850" y1="3.810" x2="-6.350" y2="3.810" stroke="#4a5160" stroke-width="0.100" stroke-linecap="round" opacity="0.7"/><line x1="-6.350" y1="-3.810" x2="-6.350" y2="-4.310" stroke="#4a5160" stroke-width="0.100" stroke-linecap="round" opacity="0.7"/><line x1="-6.350" y1="-3.810" x2="-5.850" y2="-3.810" stroke="#4a5160" stroke-width="0.100" stroke-linecap="round" opacity="0.7"/><line x1="-6.350" y1="-3.310" x2="-6.350" y2="-3.810" stroke="#4a5160" stroke-width="0.100" stroke-linecap="round" opacity="0.7"/><line x1="-6.350" y1="3.810" x2="-6.350" y2="3.310" stroke="#4a5160" stroke-width="0.100" stroke-linecap="round" opacity="0.7"/><line x1="-6.350" y1="3.810" x2="-5.850" y2="3.810" stroke="#4a5160" stroke-width="0.100" stroke-linecap="round" opacity="0.7"/><line x1="-6.350" y1="4.310" x2="-6.350" y2="3.810" stroke="#4a5160" stroke-width="0.100" stroke-linecap="round" opacity="0.7"/><line x1="-0.500" y1="0.000" x2="0.000" y2="0.000" stroke="#4a5160" stroke-width="0.100" stroke-linecap="round" opacity="0.7"/><line x1="0.000" y1="0.000" x2="0.000" y2="-0.500" stroke="#4a5160" stroke-width="0.100" stroke-linecap="round" opacity="0.7"/><line x1="0.000" y1="0.000" x2="0.500" y2="0.000" stroke="#4a5160" stroke-width="0.100" stroke-linecap="round" opacity="0.7"/><line x1="0.000" y1="0.500" x2="0.000" y2="0.000" stroke="#4a5160" stroke-width="0.100" stroke-linecap="round" opacity="0.7"/><line x1="3.310" y1="-3.810" x2="3.810" y2="-3.810" stroke="#4a5160" stroke-width="0.100" stroke-linecap="round" opacity="0.7"/><line x1="3.310" y1="3.810" x2="3.810" y2="3.810" stroke="#4a5160" stroke-width="0.100" stroke-linecap="round" opacity="0.7"/><line x1="3.810" y1="-3.810" x2="3.810" y2="-4.310" stroke="#4a5160" stroke-width="0.100" stroke-linecap="round" opacity="0.7"/><line x1="3.810" y1="-3.810" x2="4.310" y2="-3.810" stroke="#4a5160" stroke-width="0.100" stroke-linecap="round" opacity="0.7"/><line x1="3.810" y1="-3.310" x2="3.810" y2="-3.810" stroke="#4a5160" stroke-width="0.100" stroke-linecap="round" opacity="0.7"/><line x1="3.810" y1="3.810" x2="3.810" y2="3.310" stroke="#4a5160" stroke-width="0.100" stroke-linecap="round" opacity="0.7"/><line x1="3.810" y1="3.810" x2="4.310" y2="3.810" stroke="#4a5160" stroke-width="0.100" stroke-linecap="round" opacity="0.7"/><line x1="3.810" y1="4.310" x2="3.810" y2="3.810" stroke="#4a5160" stroke-width="0.100" stroke-linecap="round" opacity="0.7"/><line x1="5.850" y1="-3.810" x2="6.350" y2="-3.810" stroke="#4a5160" stroke-width="0.100" stroke-linecap="round" opacity="0.7"/><line x1="5.850" y1="3.810" x2="6.350" y2="3.810" stroke="#4a5160" stroke-width="0.100" stroke-linecap="round" opacity="0.7"/><line x1="6.350" y1="-3.810" x2="6.350" y2="-4.310" stroke="#4a5160" stroke-width="0.100" stroke-linecap="round" opacity="0.7"/><line x1="6.350" y1="-3.810" x2="6.850" y2="-3.810" stroke="#4a5160" stroke-width="0.100" stroke-linecap="round" opacity="0.7"/><line x1="6.350" y1="-3.310" x2="6.350" y2="-3.810" stroke="#4a5160" stroke-width="0.100" stroke-linecap="round" opacity="0.7"/><line x1="6.350" y1="3.810" x2="6.350" y2="3.310" stroke="#4a5160" stroke-width="0.100" stroke-linecap="round" opacity="0.7"/><line x1="6.350" y1="3.810" x2="6.850" y2="3.810" stroke="#4a5160" stroke-width="0.100" stroke-linecap="round" opacity="0.7"/><line x1="6.350" y1="4.310" x2="6.350" y2="3.810" stroke="#4a5160" stroke-width="0.100" stroke-linecap="round" opacity="0.7"/><line x1="-8.000" y1="-5.500" x2="8.000" y2="-5.500" stroke="#6b7280" stroke-width="0.100" stroke-linecap="round" opacity="0.8"/><line x1="-8.000" y1="5.500" x2="-8.000" y2="-5.500" stroke="#6b7280" stroke-width="0.100" stroke-linecap="round" opacity="0.8"/><line x1="-8.000" y1="5.500" x2="8.000" y2="5.500" stroke="#6b7280" stroke-width="0.100" stroke-linecap="round" opacity="0.8"/><line x1="-6.350" y1="0.000" x2="-5.350" y2="0.000" stroke="#6b7280" stroke-width="0.100" stroke-linecap="round" opacity="0.8"/><line x1="-6.350" y1="2.560" x2="-6.350" y2="-2.560" stroke="#6b7280" stroke-width="0.100" stroke-linecap="round" opacity="0.8"/><line x1="-5.350" y1="0.000" x2="-0.650" y2="-2.617" stroke="#6b7280" stroke-width="0.100" stroke-linecap="round" opacity="0.8"/><line x1="-1.650" y1="-2.060" x2="-1.650" y2="-5.200" stroke="#6b7280" stroke-width="0.100" stroke-linecap="round" opacity="0.8"/><line x1="-1.650" y1="5.200" x2="-1.650" y2="2.060" stroke="#6b7280" stroke-width="0.100" stroke-linecap="round" opacity="0.8"/><line x1="-1.650" y1="5.200" x2="4.960" y2="5.200" stroke="#6b7280" stroke-width="0.100" stroke-linecap="round" opacity="0.8"/><line x1="2.810" y1="-2.000" x2="4.810" y2="-2.000" stroke="#6b7280" stroke-width="0.100" stroke-linecap="round" opacity="0.8"/><line x1="2.810" y1="-1.000" x2="4.810" y2="1.000" stroke="#6b7280" stroke-width="0.100" stroke-linecap="round" opacity="0.8"/><line x1="2.810" y1="2.000" x2="2.810" y2="-2.000" stroke="#6b7280" stroke-width="0.100" stroke-linecap="round" opacity="0.8"/><line x1="2.810" y1="2.000" x2="4.810" y2="2.000" stroke="#6b7280" stroke-width="0.100" stroke-linecap="round" opacity="0.8"/><line x1="3.810" y1="-2.000" x2="3.810" y2="-2.560" stroke="#6b7280" stroke-width="0.100" stroke-linecap="round" opacity="0.8"/><line x1="3.810" y1="2.560" x2="3.810" y2="2.000" stroke="#6b7280" stroke-width="0.100" stroke-linecap="round" opacity="0.8"/><line x1="4.810" y1="2.000" x2="4.810" y2="-2.000" stroke="#6b7280" stroke-width="0.100" stroke-linecap="round" opacity="0.8"/><line x1="4.960" y1="-5.200" x2="5.537" y2="-4.623" stroke="#6b7280" stroke-width="0.100" stroke-linecap="round" opacity="0.8"/><line x1="4.960" y1="5.200" x2="5.537" y2="4.623" stroke="#6b7280" stroke-width="0.100" stroke-linecap="round" opacity="0.8"/><line x1="8.000" y1="5.500" x2="8.000" y2="-5.500" stroke="#6b7280" stroke-width="0.100" stroke-linecap="round" opacity="0.8"/><line x1="-8.250" y1="-5.750" x2="8.250" y2="-5.750" stroke="#d24d4d" stroke-width="0.080" stroke-linecap="round" opacity="0.7"/><line x1="8.250" y1="-5.750" x2="8.250" y2="5.750" stroke="#d24d4d" stroke-width="0.080" stroke-linecap="round" opacity="0.7"/><line x1="8.250" y1="5.750" x2="-8.250" y2="5.750" stroke="#d24d4d" stroke-width="0.080" stroke-linecap="round" opacity="0.7"/><line x1="-8.250" y1="5.750" x2="-8.250" y2="-5.750" stroke="#d24d4d" stroke-width="0.080" stroke-linecap="round" opacity="0.7"/><rect x="-7.200" y="2.960" width="1.700" height="1.700" rx="0.000" fill="#c79b5c"/><circle cx="-6.350" cy="3.810" r="0.500" fill="#12151c"/><rect x="2.960" y="2.960" width="1.700" height="1.700" rx="0.850" fill="#c79b5c"/><circle cx="3.810" cy="3.810" r="0.500" fill="#12151c"/><rect x="5.500" y="2.960" width="1.700" height="1.700" rx="0.850" fill="#c79b5c"/><circle cx="6.350" cy="3.810" r="0.500" fill="#12151c"/><rect x="5.500" y="-4.660" width="1.700" height="1.700" rx="0.850" fill="#c79b5c"/><circle cx="6.350" cy="-3.810" r="0.500" fill="#12151c"/><rect x="2.960" y="-4.660" width="1.700" height="1.700" rx="0.850" fill="#c79b5c"/><circle cx="3.810" cy="-3.810" r="0.500" fill="#12151c"/><rect x="-7.200" y="-4.660" width="1.700" height="1.700" rx="0.850" fill="#c79b5c"/><circle cx="-6.350" cy="-3.810" r="0.500" fill="#12151c"/></svg>