<svg xmlns="http://www.w3.org/2000/svg" viewBox="-16.07 -7.60 31.50 15.20" preserveAspectRatio="xMidYMid meet" style="width:100%;height:100%"><rect x="-16.07" y="-7.60" width="31.50" height="15.20" fill="#12151c"/><line x1="-14.820" y1="-6.350" x2="14.180" y2="-6.350" stroke="#e6e9ef" stroke-width="0.200" stroke-linecap="round" opacity="1"/><line x1="-14.820" y1="6.350" x2="-14.820" y2="-6.350" stroke="#e6e9ef" stroke-width="0.200" stroke-linecap="round" opacity="1"/><line x1="-14.820" y1="6.350" x2="14.180" y2="6.350" stroke="#e6e9ef" stroke-width="0.200" stroke-linecap="round" opacity="1"/><line x1="-13.100" y1="-0.500" x2="-11.100" y2="-0.500" stroke="#e6e9ef" stroke-width="0.200" stroke-linecap="round" opacity="1"/><line x1="-13.100" y1="0.500" x2="-13.100" y2="-0.500" stroke="#e6e9ef" stroke-width="0.200" stroke-linecap="round" opacity="1"/><line x1="-13.100" y1="0.500" x2="-11.100" y2="0.500" stroke="#e6e9ef" stroke-width="0.200" stroke-linecap="round" opacity="1"/><line x1="-12.100" y1="-0.500" x2="-12.100" y2="-2.250" stroke="#e6e9ef" stroke-width="0.200" stroke-linecap="round" opacity="1"/><line x1="-12.100" y1="2.250" x2="-12.100" y2="0.500" stroke="#e6e9ef" stroke-width="0.200" stroke-linecap="round" opacity="1"/><line x1="-11.100" y1="0.500" x2="-11.100" y2="-0.500" stroke="#e6e9ef" stroke-width="0.200" stroke-linecap="round" opacity="1"/><line x1="2.900" y1="-0.700" x2="2.900" y2="-2.250" stroke="#e6e9ef" stroke-width="0.200" stroke-linecap="round" opacity="1"/><line x1="2.900" y1="-0.700" x2="7.300" y2="-0.700" stroke="#e6e9ef" stroke-width="0.200" stroke-linecap="round" opacity="1"/><line x1="2.900" y1="0.700" x2="7.300" y2="0.700" stroke="#e6e9ef" stroke-width="0.200" stroke-linecap="round" opacity="1"/><line x1="2.900" y1="2.250" x2="2.900" y2="0.700" stroke="#e6e9ef" stroke-width="0.200" stroke-linecap="round" opacity="1"/><line x1="7.300" y1="-0.800" x2="7.500" y2="-0.700" stroke="#e6e9ef" stroke-width="0.200" stroke-linecap="round" opacity="1"/><line x1="7.300" y1="-0.600" x2="7.300" y2="-0.800" stroke="#e6e9ef" stroke-width="0.200" stroke-linecap="round" opacity="1"/><line x1="7.300" y1="-0.600" x2="7.500" y2="-0.700" stroke="#e6e9ef" stroke-width="0.200" stroke-linecap="round" opacity="1"/><line x1="7.300" y1="0.600" x2="7.500" y2="0.700" stroke="#e6e9ef" stroke-width="0.200" stroke-linecap="round" opacity="1"/><line x1="7.300" y1="0.800" x2="7.300" y2="0.600" stroke="#e6e9ef" stroke-width="0.200" stroke-linecap="round" opacity="1"/><line x1="7.300" y1="0.800" x2="7.500" y2="0.700" stroke="#e6e9ef" stroke-width="0.200" stroke-linecap="round" opacity="1"/><line x1="7.500" y1="-0.500" x2="7.900" y2="-2.000" stroke="#e6e9ef" stroke-width="0.200" stroke-linecap="round" opacity="1"/><line x1="7.500" y1="0.500" x2="7.900" y2="2.000" stroke="#e6e9ef" stroke-width="0.200" stroke-linecap="round" opacity="1"/><line x1="7.900" y1="-2.000" x2="7.900" y2="-2.250" stroke="#e6e9ef" stroke-width="0.200" stroke-linecap="round" opacity="1"/><line x1="7.900" y1="2.250" x2="7.900" y2="2.000" stroke="#e6e9ef" stroke-width="0.200" stroke-linecap="round" opacity="1"/><line x1="8.300" y1="-0.700" x2="8.500" y2="-0.800" stroke="#e6e9ef" stroke-width="0.200" stroke-linecap="round" opacity="1"/><line x1="8.300" y1="-0.700" x2="8.500" y2="-0.600" stroke="#e6e9ef" stroke-width="0.200" stroke-linecap="round" opacity="1"/><line x1="8.300" y1="0.700" x2="8.500" y2="0.600" stroke="#e6e9ef" stroke-width="0.200" stroke-linecap="round" opacity="1"/><line x1="8.300" y1="0.700" x2="8.500" y2="0.800" stroke="#e6e9ef" stroke-width="0.200" stroke-linecap="round" opacity="1"/><line x1="8.500" y1="-0.700" x2="12.900" y2="-0.700" stroke="#e6e9ef" stroke-width="0.200" stroke-linecap="round" opacity="1"/><line x1="8.500" y1="-0.600" x2="8.500" y2="-0.800" stroke="#e6e9ef" stroke-width="0.200" stroke-linecap="round" opacity="1"/><line x1="8.500" y1="0.700" x2="12.900" y2="0.700" stroke="#e6e9ef" stroke-width="0.200" stroke-linecap="round" opacity="1"/><line x1="8.500" y1="0.800" x2="8.500" y2="0.600" stroke="#e6e9ef" stroke-width="0.200" stroke-linecap="round" opacity="1"/><line x1="12.900" y1="-0.700" x2="12.900" y2="-2.250" stroke="#e6e9ef" stroke-width="0.200" stroke-linecap="round" opacity="1"/><line x1="12.900" y1="2.250" x2="12.900" y2="0.700" stroke="#e6e9ef" stroke-width="0.200" stroke-linecap="round" opacity="1"/><line x1="14.180" y1="-4.179" x2="14.180" y2="-6.350" stroke="#e6e9ef" stroke-width="0.200" stroke-linecap="round" opacity="1"/><line x1="14.180" y1="3.321" x2="14.180" y2="-3.321" stroke="#e6e9ef" stroke-width="0.200" stroke-linecap="round" opacity="1"/><line x1="14.180" y1="6.350" x2="14.180" y2="4.179" stroke="#e6e9ef" stroke-width="0.200" stroke-linecap="round" opacity="1"/><line x1="-12.600" y1="-3.750" x2="-12.100" y2="-3.750" stroke="#4a5160" stroke-width="0.100" stroke-linecap="round" opacity="0.7"/><line x1="-12.600" y1="3.750" x2="-12.100" y2="3.750" stroke="#4a5160" stroke-width="0.100" stroke-linecap="round" opacity="0.7"/><line x1="-12.100" y1="-3.250" x2="-12.100" y2="-3.750" stroke="#4a5160" stroke-width="0.100" stroke-linecap="round" opacity="0.7"/><line x1="-12.100" y1="4.250" x2="-12.100" y2="3.750" stroke="#4a5160" stroke-width="0.100" stroke-linecap="round" opacity="0.7"/><line x1="-0.500" y1="0.000" x2="0.000" y2="0.000" stroke="#4a5160" stroke-width="0.100" stroke-linecap="round" opacity="0.7"/><line x1="0.000" y1="0.000" x2="0.000" y2="-0.500" stroke="#4a5160" stroke-width="0.100" stroke-linecap="round" opacity="0.7"/><line x1="0.000" y1="0.000" x2="0.500" y2="0.000" stroke="#4a5160" stroke-width="0.100" stroke-linecap="round" opacity="0.7"/><line x1="0.000" y1="0.500" x2="0.000" y2="0.000" stroke="#4a5160" stroke-width="0.100" stroke-linecap="round" opacity="0.7"/><line x1="2.400" y1="-3.750" x2="2.900" y2="-3.750" stroke="#4a5160" stroke-width="0.100" stroke-linecap="round" opacity="0.7"/><line x1="2.400" y1="3.750" x2="2.900" y2="3.750" stroke="#4a5160" stroke-width="0.100" stroke-linecap="round" opacity="0.7"/><line x1="2.900" y1="-3.250" x2="2.900" y2="-3.750" stroke="#4a5160" stroke-width="0.100" stroke-linecap="round" opacity="0.7"/><line x1="2.900" y1="4.250" x2="2.900" y2="3.750" stroke="#4a5160" stroke-width="0.100" stroke-linecap="round" opacity="0.7"/><line x1="7.400" y1="-3.750" x2="7.900" y2="-3.750" stroke="#4a5160" stroke-width="0.100" stroke-linecap="round" opacity="0.7"/><line x1="7.400" y1="3.750" x2="7.900" y2="3.750" stroke="#4a5160" stroke-width="0.100" stroke-linecap="round" opacity="0.7"/><line x1="7.900" y1="-3.250" x2="7.900" y2="-3.750" stroke="#4a5160" stroke-width="0.100" stroke-linecap="round" opacity="0.7"/><line x1="7.900" y1="4.250" x2="7.900" y2="3.750" stroke="#4a5160" stroke-width="0.100" stroke-linecap="round" opacity="0.7"/><line x1="12.400" y1="-3.750" x2="12.900" y2="-3.750" stroke="#4a5160" stroke-width="0.100" stroke-linecap="round" opacity="0.7"/><line x1="12.400" y1="3.750" x2="12.900" y2="3.750" stroke="#4a5160" stroke-width="0.100" stroke-linecap="round" opacity="0.7"/><line x1="12.900" y1="-3.250" x2="12.900" y2="-3.750" stroke="#4a5160" stroke-width="0.100" stroke-linecap="round" opacity="0.7"/><line x1="12.900" y1="4.250" x2="12.900" y2="3.750" stroke="#4a5160" stroke-width="0.100" stroke-linecap="round" opacity="0.7"/><line x1="-14.820" y1="-6.350" x2="14.180" y2="-6.350" stroke="#6b7280" stroke-width="0.100" stroke-linecap="round" opacity="0.8"/><line x1="-14.820" y1="6.350" x2="-14.820" y2="-6.350" stroke="#6b7280" stroke-width="0.100" stroke-linecap="round" opacity="0.8"/><line x1="-14.820" y1="6.350" x2="14.180" y2="6.350" stroke="#6b7280" stroke-width="0.100" stroke-linecap="round" opacity="0.8"/><line x1="-13.100" y1="-0.500" x2="-11.100" y2="-0.500" stroke="#6b7280" stroke-width="0.100" stroke-linecap="round" opacity="0.8"/><line x1="-13.100" y1="0.500" x2="-13.100" y2="-0.500" stroke="#6b7280" stroke-width="0.100" stroke-linecap="round" opacity="0.8"/><line x1="-13.100" y1="0.500" x2="-11.100" y2="0.500" stroke="#6b7280" stroke-width="0.100" stroke-linecap="round" opacity="0.8"/><line x1="-12.100" y1="-0.500" x2="-12.100" y2="-2.250" stroke="#6b7280" stroke-width="0.100" stroke-linecap="round" opacity="0.8"/><line x1="-12.100" y1="2.250" x2="-12.100" y2="0.500" stroke="#6b7280" stroke-width="0.100" stroke-linecap="round" opacity="0.8"/><line x1="-11.100" y1="0.500" x2="-11.100" y2="-0.500" stroke="#6b7280" stroke-width="0.100" stroke-linecap="round" opacity="0.8"/><line x1="2.900" y1="-0.700" x2="2.900" y2="-2.500" stroke="#6b7280" stroke-width="0.100" stroke-linecap="round" opacity="0.8"/><line x1="2.900" y1="-0.700" x2="7.300" y2="-0.700" stroke="#6b7280" stroke-width="0.100" stroke-linecap="round" opacity="0.8"/><line x1="2.900" y1="0.700" x2="7.300" y2="0.700" stroke="#6b7280" stroke-width="0.100" stroke-linecap="round" opacity="0.8"/><line x1="2.900" y1="2.500" x2="2.900" y2="0.700" stroke="#6b7280" stroke-width="0.100" stroke-linecap="round" opacity="0.8"/><line x1="7.300" y1="-0.800" x2="7.500" y2="-0.700" stroke="#6b7280" stroke-width="0.100" stroke-linecap="round" opacity="0.8"/><line x1="7.300" y1="-0.600" x2="7.300" y2="-0.800" stroke="#6b7280" stroke-width="0.100" stroke-linecap="round" opacity="0.8"/><line x1="7.300" y1="-0.600" x2="7.500" y2="-0.700" stroke="#6b7280" stroke-width="0.100" stroke-linecap="round" opacity="0.8"/><line x1="7.300" y1="0.600" x2="7.500" y2="0.700" stroke="#6b7280" stroke-width="0.100" stroke-linecap="round" opacity="0.8"/><line x1="7.300" y1="0.800" x2="7.300" y2="0.600" stroke="#6b7280" stroke-width="0.100" stroke-linecap="round" opacity="0.8"/><line x1="7.300" y1="0.800" x2="7.500" y2="0.700" stroke="#6b7280" stroke-width="0.100" stroke-linecap="round" opacity="0.8"/><line x1="7.500" y1="-0.500" x2="7.900" y2="-2.000" stroke="#6b7280" stroke-width="0.100" stroke-linecap="round" opacity="0.8"/><line x1="7.500" y1="0.500" x2="7.900" y2="2.000" stroke="#6b7280" stroke-width="0.100" stroke-linecap="round" opacity="0.8"/><line x1="7.900" y1="-2.000" x2="7.900" y2="-2.500" stroke="#6b7280" stroke-width="0.100" stroke-linecap="round" opacity="0.8"/><line x1="7.900" y1="2.500" x2="7.900" y2="2.000" stroke="#6b7280" stroke-width="0.100" stroke-linecap="round" opacity="0.8"/><line x1="8.300" y1="-0.700" x2="8.500" y2="-0.800" stroke="#6b7280" stroke-width="0.100" stroke-linecap="round" opacity="0.8"/><line x1="8.300" y1="-0.700" x2="8.500" y2="-0.600" stroke="#6b7280" stroke-width="0.100" stroke-linecap="round" opacity="0.8"/><line x1="8.300" y1="0.700" x2="8.500" y2="0.600" stroke="#6b7280" stroke-width="0.100" stroke-linecap="round" opacity="0.8"/><line x1="8.300" y1="0.700" x2="8.500" y2="0.800" stroke="#6b7280" stroke-width="0.100" stroke-linecap="round" opacity="0.8"/><line x1="8.500" y1="-0.700" x2="12.900" y2="-0.700" stroke="#6b7280" stroke-width="0.100" stroke-linecap="round" opacity="0.8"/><line x1="8.500" y1="-0.600" x2="8.500" y2="-0.800" stroke="#6b7280" stroke-width="0.100" stroke-linecap="round" opacity="0.8"/><line x1="8.500" y1="0.700" x2="12.900" y2="0.700" stroke="#6b7280" stroke-width="0.100" stroke-linecap="round" opacity="0.8"/><line x1="8.500" y1="0.800" x2="8.500" y2="0.600" stroke="#6b7280" stroke-width="0.100" stroke-linecap="round" opacity="0.8"/><line x1="12.900" y1="-0.700" x2="12.900" y2="-2.500" stroke="#6b7280" stroke-width="0.100" stroke-linecap="round" opacity="0.8"/><line x1="12.900" y1="2.500" x2="12.900" y2="0.700" stroke="#6b7280" stroke-width="0.100" stroke-linecap="round" opacity="0.8"/><line x1="14.180" y1="6.350" x2="14.180" y2="-6.350" stroke="#6b7280" stroke-width="0.100" stroke-linecap="round" opacity="0.8"/><line x1="-15.070" y1="-6.600" x2="14.430" y2="-6.600" stroke="#d24d4d" stroke-width="0.080" stroke-linecap="round" opacity="0.7"/><line x1="14.430" y1="-6.600" x2="14.430" y2="6.600" stroke="#d24d4d" stroke-width="0.080" stroke-linecap="round" opacity="0.7"/><line x1="14.430" y1="6.600" x2="-15.070" y2="6.600" stroke="#d24d4d" stroke-width="0.080" stroke-linecap="round" opacity="0.7"/><line x1="-15.070" y1="6.600" x2="-15.070" y2="-6.600" stroke="#d24d4d" stroke-width="0.080" stroke-linecap="round" opacity="0.7"/><circle cx="7.900" cy="-2.000" r="0.150" fill="#e6e9ef" opacity="1"/><circle cx="7.900" cy="2.000" r="0.150" fill="#e6e9ef" opacity="1"/><circle cx="7.900" cy="-2.000" r="0.150" fill="#6b7280" opacity="0.8"/><circle cx="7.900" cy="2.000" r="0.150" fill="#6b7280" opacity="0.8"/><rect x="-13.100" y="2.750" width="2.000" height="2.000" rx="0.000" fill="#c79b5c"/><circle cx="-12.100" cy="3.750" r="0.650" fill="#12151c"/><rect x="1.900" y="2.750" width="2.000" height="2.000" rx="1.000" fill="#c79b5c"/><circle cx="2.900" cy="3.750" r="0.650" fill="#12151c"/><rect x="6.900" y="2.750" width="2.000" height="2.000" rx="1.000" fill="#c79b5c"/><circle cx="7.900" cy="3.750" r="0.650" fill="#12151c"/><rect x="11.900" y="2.750" width="2.000" height="2.000" rx="1.000" fill="#c79b5c"/><circle cx="12.900" cy="3.750" r="0.650" fill="#12151c"/><rect x="11.900" y="-4.750" width="2.000" height="2.000" rx="1.000" fill="#c79b5c"/><circle cx="12.900" cy="-3.750" r="0.650" fill="#12151c"/><rect x="6.900" y="-4.750" width="2.000" height="2.000" rx="1.000" fill="#c79b5c"/><circle cx="7.900" cy="-3.750" r="0.650" fill="#12151c"/><rect x="1.900" y="-4.750" width="2.000" height="2.000" rx="1.000" fill="#c79b5c"/><circle cx="2.900" cy="-3.750" r="0.650" fill="#12151c"/><rect x="-13.100" y="-4.750" width="2.000" height="2.000" rx="1.000" fill="#c79b5c"/><circle cx="-12.100" cy="-3.750" r="0.650" fill="#12151c"/></svg>