<svg xmlns="http://www.w3.org/2000/svg" viewBox="-13.40 -8.45 26.80 17.40" preserveAspectRatio="xMidYMid meet" style="width:100%;height:100%"><rect x="-13.40" y="-8.45" width="26.80" height="17.40" fill="#12151c"/><path d="M -12.150 -7.000 A 0.200 0.200 0 0 1 -11.950 -7.200" fill="none" stroke="#e6e9ef" stroke-width="0.12" opacity="1"/><path d="M -11.950 7.200 A 0.200 0.200 0 0 1 -12.150 7.000" fill="none" stroke="#e6e9ef" stroke-width="0.12" opacity="1"/><path d="M 11.950 -7.200 A 0.200 0.200 0 0 1 12.150 -7.000" fill="none" stroke="#e6e9ef" stroke-width="0.12" opacity="1"/><path d="M 12.150 7.000 A 0.200 0.200 0 0 1 11.950 7.200" fill="none" stroke="#e6e9ef" stroke-width="0.12" opacity="1"/><path d="M -12.400 -7.000 A 0.450 0.450 0 0 1 -11.950 -7.450" fill="none" stroke="#d24d4d" stroke-width="0.12" opacity="0.7"/><path d="M -11.950 7.450 A 0.450 0.450 0 0 1 -12.400 7.000" fill="none" stroke="#d24d4d" stroke-width="0.12" opacity="0.7"/><path d="M 11.950 -7.450 A 0.450 0.450 0 0 1 12.400 -7.000" fill="none" stroke="#d24d4d" stroke-width="0.12" opacity="0.7"/><path d="M 12.400 7.000 A 0.450 0.450 0 0 1 11.950 7.450" fill="none" stroke="#d24d4d" stroke-width="0.12" opacity="0.7"/><path d="M -12.150 -7.000 A 0.200 0.200 0 0 1 -11.950 -7.200" fill="none" stroke="#6b7280" stroke-width="0.12" opacity="0.8"/><path d="M -11.950 7.200 A 0.200 0.200 0 0 1 -12.150 7.000" fill="none" stroke="#6b7280" stroke-width="0.12" opacity="0.8"/><path d="M 11.950 -7.200 A 0.200 0.200 0 0 1 12.150 -7.000" fill="none" stroke="#6b7280" stroke-width="0.12" opacity="0.8"/><path d="M 12.150 7.000 A 0.200 0.200 0 0 1 11.950 7.200" fill="none" stroke="#6b7280" stroke-width="0.12" opacity="0.8"/><circle cx="-8.890" cy="7.800" r="0.150" fill="none" stroke="#e6e9ef" stroke-width="0.12" opacity="1"/><rect x="-9.640" y="4.330" width="1.500" height="1.500" rx="0.750" fill="#c79b5c"/><circle cx="-8.890" cy="5.080" r="0.400" fill="#12151c"/><rect x="-7.100" y="4.330" width="1.500" height="1.500" rx="0.750" fill="#c79b5c"/><circle cx="-6.350" cy="5.080" r="0.400" fill="#12151c"/><rect x="5.600" y="4.330" width="1.500" height="1.500" rx="0.750" fill="#c79b5c"/><circle cx="6.350" cy="5.080" r="0.400" fill="#12151c"/><rect x="8.140" y="4.330" width="1.500" height="1.500" rx="0.750" fill="#c79b5c"/><circle cx="8.890" cy="5.080" r="0.400" fill="#12151c"/><rect x="8.140" y="-5.830" width="1.500" height="1.500" rx="0.750" fill="#c79b5c"/><circle cx="8.890" cy="-5.080" r="0.400" fill="#12151c"/><rect x="5.600" y="-5.830" width="1.500" height="1.500" rx="0.750" fill="#c79b5c"/><circle cx="6.350" cy="-5.080" r="0.400" fill="#12151c"/><rect x="-9.640" y="-5.830" width="1.500" height="1.500" rx="0.750" fill="#c79b5c"/><circle cx="-8.890" cy="-5.080" r="0.400" fill="#12151c"/></svg>