<svg xmlns="http://www.w3.org/2000/svg" viewBox="-4.54 -3.25 9.08 6.50" preserveAspectRatio="xMidYMid meet" style="width:100%;height:100%"><rect x="-4.54" y="-3.25" width="9.08" height="6.50" fill="#12151c"/><line x1="-1.400" y1="0.050" x2="-0.400" y2="0.050" stroke="#e6e9ef" stroke-width="0.200" stroke-linecap="round" opacity="1"/><line x1="-0.900" y1="0.550" x2="-0.900" y2="-0.450" stroke="#e6e9ef" stroke-width="0.200" stroke-linecap="round" opacity="1"/><line x1="-1.400" y1="0.050" x2="-0.400" y2="0.050" stroke="#6b7280" stroke-width="0.100" stroke-linecap="round" opacity="0.8"/><line x1="-0.900" y1="0.550" x2="-0.900" y2="-0.450" stroke="#6b7280" stroke-width="0.100" stroke-linecap="round" opacity="0.8"/><line x1="-3.540" y1="-1.000" x2="3.540" y2="-1.000" stroke="#d24d4d" stroke-width="0.080" stroke-linecap="round" opacity="0.7"/><line x1="3.540" y1="-1.000" x2="3.540" y2="1.000" stroke="#d24d4d" stroke-width="0.080" stroke-linecap="round" opacity="0.7"/><line x1="3.540" y1="1.000" x2="-3.540" y2="1.000" stroke="#d24d4d" stroke-width="0.080" stroke-linecap="round" opacity="0.7"/><line x1="-3.540" y1="1.000" x2="-3.540" y2="-1.000" stroke="#d24d4d" stroke-width="0.080" stroke-linecap="round" opacity="0.7"/><path d="M -1.976 -1.076 A 2.250 2.250 0 0 1 2.012 -1.006" fill="none" stroke="#e6e9ef" stroke-width="0.12" opacity="1"/><path d="M 2.012 1.006 A 2.250 2.250 0 0 1 -1.976 1.076" fill="none" stroke="#e6e9ef" stroke-width="0.12" opacity="1"/><circle cx="0.000" cy="0.000" r="2.250" fill="none" stroke="#6b7280" stroke-width="0.12" opacity="0.8"/><rect x="-3.290" y="-0.750" width="1.500" height="1.500" rx="0.000" fill="#c79b5c"/><circle cx="-2.540" cy="0.000" r="0.400" fill="#12151c"/><rect x="1.790" y="-0.750" width="1.500" height="1.500" rx="0.750" fill="#c79b5c"/><circle cx="2.540" cy="0.000" r="0.400" fill="#12151c"/><polygon points="-2.99,1.80 -2.09,1.80 -2.54,1.20" fill="#ffffff"/></svg>