<svg xmlns="http://www.w3.org/2000/svg" viewBox="-7.95 -3.97 9.45 28.27" preserveAspectRatio="xMidYMid meet" style="width:100%;height:100%"><rect x="-7.95" y="-3.97" width="9.45" height="28.27" fill="#12151c"/><polyline points="-3.302,1.270 -3.302,19.050" fill="none" stroke="#4ea1ff" stroke-width="0.25" stroke-linejoin="round"/><path d="M -6.365 -2.466 A 3.810 3.810 0 0 1 -3.302 1.270" fill="none" stroke="#4ea1ff" stroke-width="0.25"/><path d="M -3.302 19.050 A 3.810 3.810 0 0 1 -6.450 22.802" fill="none" stroke="#4ea1ff" stroke-width="0.25"/><path d="M -6.096 -1.016 A 1.016 1.016 0 0 1 -6.096 1.016" fill="none" stroke="#4ea1ff" stroke-width="0.25"/><path d="M -6.096 1.524 A 1.016 1.016 0 0 1 -6.096 3.556" fill="none" stroke="#4ea1ff" stroke-width="0.25"/><path d="M -6.096 4.064 A 1.016 1.016 0 0 1 -6.096 6.096" fill="none" stroke="#4ea1ff" stroke-width="0.25"/><path d="M -6.096 6.604 A 1.016 1.016 0 1 1 -6.096 8.636" fill="none" stroke="#4ea1ff" stroke-width="0.25"/><path d="M -6.096 9.144 A 1.016 1.016 0 0 1 -6.096 11.176" fill="none" stroke="#4ea1ff" stroke-width="0.25"/><path d="M -6.096 11.684 A 1.016 1.016 0 1 1 -6.096 13.716" fill="none" stroke="#4ea1ff" stroke-width="0.25"/><path d="M -6.096 14.224 A 1.016 1.016 0 0 1 -6.096 16.256" fill="none" stroke="#4ea1ff" stroke-width="0.25"/><path d="M -6.096 16.764 A 1.016 1.016 0 0 1 -6.096 18.796" fill="none" stroke="#4ea1ff" stroke-width="0.25"/><path d="M -6.096 19.304 A 1.016 1.016 0 0 1 -6.096 21.336" fill="none" stroke="#4ea1ff" stroke-width="0.25"/><line x1="0.000" y1="-0.000" x2="-5.080" y2="-0.000" stroke="#e6e9ef" stroke-width="0.2"/><circle cx="0.000" cy="-0.000" r="0.4" fill="#4ea1ff"/><line x1="0.000" y1="2.540" x2="-5.080" y2="2.540" stroke="#e6e9ef" stroke-width="0.2"/><circle cx="0.000" cy="2.540" r="0.4" fill="#4ea1ff"/><line x1="0.000" y1="5.080" x2="-5.080" y2="5.080" stroke="#e6e9ef" stroke-width="0.2"/><circle cx="0.000" cy="5.080" r="0.4" fill="#4ea1ff"/><line x1="0.000" y1="7.620" x2="-5.080" y2="7.620" stroke="#e6e9ef" stroke-width="0.2"/><circle cx="0.000" cy="7.620" r="0.4" fill="#4ea1ff"/><line x1="0.000" y1="10.160" x2="-5.080" y2="10.160" stroke="#e6e9ef" stroke-width="0.2"/><circle cx="0.000" cy="10.160" r="0.4" fill="#4ea1ff"/><line x1="0.000" y1="12.700" x2="-5.080" y2="12.700" stroke="#e6e9ef" stroke-width="0.2"/><circle cx="0.000" cy="12.700" r="0.4" fill="#4ea1ff"/><line x1="0.000" y1="15.240" x2="-5.080" y2="15.240" stroke="#e6e9ef" stroke-width="0.2"/><circle cx="0.000" cy="15.240" r="0.4" fill="#4ea1ff"/><line x1="0.000" y1="17.780" x2="-5.080" y2="17.780" stroke="#e6e9ef" stroke-width="0.2"/><circle cx="0.000" cy="17.780" r="0.4" fill="#4ea1ff"/><line x1="0.000" y1="20.320" x2="-5.080" y2="20.320" stroke="#e6e9ef" stroke-width="0.2"/><circle cx="0.000" cy="20.320" r="0.4" fill="#4ea1ff"/></svg>