<svg xmlns="http://www.w3.org/2000/svg" viewBox="-1.50 -1.50 23.32 20.78" preserveAspectRatio="xMidYMid meet" style="width:100%;height:100%"><rect x="-1.50" y="-1.50" width="23.32" height="20.78" fill="#12151c"/><rect x="8.636" y="2.413" width="0.254" height="5.334" fill="#1e222b" stroke="#4ea1ff" stroke-width="0.25"/><rect x="0.000" y="-0.000" width="15.240" height="17.780" fill="#1e222b" stroke="#4ea1ff" stroke-width="0.25"/><polyline points="0.762,2.540 0.000,2.540" fill="none" stroke="#4ea1ff" stroke-width="0.25" stroke-linejoin="round"/><polyline points="0.762,10.160 0.000,10.160" fill="none" stroke="#4ea1ff" stroke-width="0.25" stroke-linejoin="round"/><polyline points="2.286,2.540 1.524,2.540" fill="none" stroke="#4ea1ff" stroke-width="0.25" stroke-linejoin="round"/><polyline points="2.286,10.160 1.524,10.160" fill="none" stroke="#4ea1ff" stroke-width="0.25" stroke-linejoin="round"/><polyline points="3.810,2.540 3.048,2.540" fill="none" stroke="#4ea1ff" stroke-width="0.25" stroke-linejoin="round"/><polyline points="3.810,3.048 3.810,2.540" fill="none" stroke="#4ea1ff" stroke-width="0.25" stroke-linejoin="round"/><polyline points="3.810,3.810 3.810,5.842" fill="none" stroke="#4ea1ff" stroke-width="0.25" stroke-linejoin="round"/><polyline points="3.810,8.382 3.810,7.874" fill="none" stroke="#4ea1ff" stroke-width="0.25" stroke-linejoin="round"/><polyline points="3.810,9.652 3.810,10.160" fill="none" stroke="#4ea1ff" stroke-width="0.25" stroke-linejoin="round"/><polyline points="3.810,10.160 3.048,10.160" fill="none" stroke="#4ea1ff" stroke-width="0.25" stroke-linejoin="round"/><polyline points="4.445,3.810 3.175,3.810 3.810,5.080 4.445,3.810" fill="#1e222b" stroke="#4ea1ff" stroke-width="0.25" stroke-linejoin="round"/><polyline points="7.620,8.890 8.128,8.890" fill="none" stroke="#4ea1ff" stroke-width="0.25" stroke-linejoin="round"/><polyline points="8.128,8.255 9.398,9.525" fill="none" stroke="#4ea1ff" stroke-width="0.25" stroke-linejoin="round"/><polyline points="8.128,8.255 9.398,8.255 8.128,9.525 8.128,8.255" fill="#1e222b" stroke="#4ea1ff" stroke-width="0.25" stroke-linejoin="round"/><polyline points="8.763,9.525 8.763,12.700 10.033,12.700" fill="none" stroke="#4ea1ff" stroke-width="0.25" stroke-linejoin="round"/><polyline points="9.398,8.255 9.398,9.525 8.128,9.525" fill="none" stroke="#4ea1ff" stroke-width="0.25" stroke-linejoin="round"/><polyline points="9.398,8.890 9.906,8.890" fill="none" stroke="#4ea1ff" stroke-width="0.25" stroke-linejoin="round"/><polyline points="10.033,2.540 14.224,2.540" fill="none" stroke="#4ea1ff" stroke-width="0.25" stroke-linejoin="round"/><polyline points="11.176,11.938 11.176,5.080 13.716,5.080" fill="none" stroke="#4ea1ff" stroke-width="0.25" stroke-linejoin="round"/><polyline points="11.176,13.462 11.176,15.240 15.240,15.240" fill="none" stroke="#4ea1ff" stroke-width="0.25" stroke-linejoin="round"/><polyline points="12.573,12.700 10.033,11.430 10.033,13.970 12.573,12.700" fill="#1e222b" stroke="#4ea1ff" stroke-width="0.25" stroke-linejoin="round"/><polyline points="12.573,12.700 13.208,12.700 13.208,7.620 10.033,7.620" fill="none" stroke="#4ea1ff" stroke-width="0.25" stroke-linejoin="round"/><polyline points="14.224,10.160 14.224,2.540" fill="none" stroke="#4ea1ff" stroke-width="0.25" stroke-linejoin="round"/><polyline points="15.113,5.080 14.732,5.080" fill="none" stroke="#4ea1ff" stroke-width="0.25" stroke-linejoin="round"/><polyline points="15.113,10.160 14.224,10.160" fill="none" stroke="#4ea1ff" stroke-width="0.25" stroke-linejoin="round"/><path d="M 3.810 5.842 A 1.015 1.015 0 0 1 4.415 6.041" fill="none" stroke="#4ea1ff" stroke-width="0.25"/><path d="M 4.297 7.750 A 1.015 1.015 0 0 1 3.810 7.874" fill="none" stroke="#4ea1ff" stroke-width="0.25"/><path d="M 4.774 6.535 A 1.016 1.016 0 0 1 4.700 7.348" fill="none" stroke="#4ea1ff" stroke-width="0.25"/><path d="M 10.033 3.810 A 0.635 0.635 0 1 1 10.033 2.540" fill="none" stroke="#4ea1ff" stroke-width="0.25"/><path d="M 10.033 5.080 A 0.635 0.635 0 1 1 10.033 3.810" fill="none" stroke="#4ea1ff" stroke-width="0.25"/><path d="M 10.033 6.350 A 0.635 0.635 0 0 1 10.033 5.080" fill="none" stroke="#4ea1ff" stroke-width="0.25"/><path d="M 10.033 7.620 A 0.635 0.635 0 0 1 10.033 6.350" fill="none" stroke="#4ea1ff" stroke-width="0.25"/><line x1="20.320" y1="5.080" x2="15.240" y2="5.080" stroke="#e6e9ef" stroke-width="0.2"/><circle cx="20.320" cy="5.080" r="0.4" fill="#4ea1ff"/><text x="15.540" y="4.730" fill="#9aa3b2" font-size="0.9" text-anchor="start" font-family="sans-serif">3</text><line x1="20.320" y1="10.160" x2="15.240" y2="10.160" stroke="#e6e9ef" stroke-width="0.2"/><circle cx="20.320" cy="10.160" r="0.4" fill="#4ea1ff"/><text x="15.540" y="9.810" fill="#9aa3b2" font-size="0.9" text-anchor="start" font-family="sans-serif">2</text><line x1="20.320" y1="15.240" x2="15.240" y2="15.240" stroke="#e6e9ef" stroke-width="0.2"/><circle cx="20.320" cy="15.240" r="0.4" fill="#4ea1ff"/><text x="15.540" y="14.890" fill="#9aa3b2" font-size="0.9" text-anchor="start" font-family="sans-serif">1</text></svg>