<svg xmlns="http://www.w3.org/2000/svg" viewBox="-7.22 -3.41 14.45 6.83" preserveAspectRatio="xMidYMid meet" style="width:100%;height:100%"><rect x="-7.22" y="-3.41" width="14.45" height="6.83" fill="#12151c"/><path d="M -5.460 -0.380 A 0.380 0.380 0 0 1 -5.460 0.380" fill="none" stroke="#6b7280" stroke-width="0.12" opacity="0.8"/><path d="M -5.460 -0.634 A 0.634 0.634 0 0 1 -5.460 0.634" fill="none" stroke="#6b7280" stroke-width="0.12" opacity="0.8"/><path d="M 3.051 1.650 A 0.634 0.634 0 0 1 4.319 1.650" fill="none" stroke="#6b7280" stroke-width="0.12" opacity="0.8"/><path d="M 3.305 1.650 A 0.380 0.380 0 0 1 4.065 1.650" fill="none" stroke="#6b7280" stroke-width="0.12" opacity="0.8"/><path d="M 4.065 -1.650 A 0.380 0.380 0 0 1 3.305 -1.650" fill="none" stroke="#6b7280" stroke-width="0.12" opacity="0.8"/><path d="M 4.318 -1.651 A 0.635 0.635 0 0 1 3.048 -1.651" fill="none" stroke="#6b7280" stroke-width="0.12" opacity="0.8"/><circle cx="-5.461" cy="0.000" r="0.100" fill="none" stroke="#6b7280" stroke-width="0.12" opacity="0.8"/><circle cx="3.685" cy="-1.651" r="0.100" fill="none" stroke="#6b7280" stroke-width="0.12" opacity="0.8"/><circle cx="3.685" cy="1.651" r="0.100" fill="none" stroke="#6b7280" stroke-width="0.12" opacity="0.8"/><circle cx="5.540" cy="-1.600" r="0.100" fill="none" stroke="#6b7280" stroke-width="0.12" opacity="0.8"/><circle cx="5.540" cy="0.000" r="0.100" fill="none" stroke="#6b7280" stroke-width="0.12" opacity="0.8"/><circle cx="5.540" cy="1.600" r="0.100" fill="none" stroke="#6b7280" stroke-width="0.12" opacity="0.8"/><rect x="-5.842" y="-0.381" width="0.762" height="0.762" rx="0.381" fill="#c79b5c"/><rect x="3.304" y="-2.032" width="0.762" height="0.762" rx="0.381" fill="#c79b5c"/><rect x="3.304" y="1.270" width="0.762" height="0.762" rx="0.381" fill="#c79b5c"/><rect x="-6.223" y="0.634" width="0.000" height="0.000" rx="0.000" fill="#c79b5c"/><rect x="-6.142" y="-2.078" width="0.600" height="0.600" rx="0.300" fill="#c79b5c"/><circle cx="-5.842" cy="-1.778" r="0.175" fill="#12151c"/><rect x="-6.142" y="-1.316" width="0.600" height="0.600" rx="0.300" fill="#c79b5c"/><circle cx="-5.842" cy="-1.016" r="0.175" fill="#12151c"/><rect x="-6.142" y="0.716" width="0.600" height="0.600" rx="0.300" fill="#c79b5c"/><circle cx="-5.842" cy="1.016" r="0.175" fill="#12151c"/><rect x="-6.142" y="1.478" width="0.600" height="0.600" rx="0.300" fill="#c79b5c"/><circle cx="-5.842" cy="1.778" r="0.175" fill="#12151c"/><rect x="-6.223" y="-2.413" width="1.396" height="1.778" rx="0.000" fill="#c79b5c"/><rect x="-6.223" y="0.635" width="1.396" height="1.778" rx="0.000" fill="#c79b5c"/><rect x="-5.380" y="-1.316" width="0.600" height="0.600" rx="0.300" fill="#c79b5c"/><circle cx="-5.080" cy="-1.016" r="0.175" fill="#12151c"/><rect x="-5.380" y="0.716" width="0.600" height="0.600" rx="0.300" fill="#c79b5c"/><circle cx="-5.080" cy="1.016" r="0.175" fill="#12151c"/><rect x="-4.745" y="-1.062" width="0.600" height="0.600" rx="0.300" fill="#c79b5c"/><circle cx="-4.445" cy="-0.762" r="0.175" fill="#12151c"/><rect x="-4.745" y="-0.300" width="0.600" height="0.600" rx="0.300" fill="#c79b5c"/><circle cx="-4.445" cy="0.000" r="0.175" fill="#12151c"/><rect x="-4.745" y="0.462" width="0.600" height="0.600" rx="0.300" fill="#c79b5c"/><circle cx="-4.445" cy="0.762" r="0.175" fill="#12151c"/><rect x="-4.827" y="-2.413" width="7.875" height="4.826" rx="0.000" fill="#c79b5c"/><rect x="1.605" y="-2.332" width="0.600" height="0.600" rx="0.300" fill="#c79b5c"/><circle cx="1.905" cy="-2.032" r="0.175" fill="#12151c"/><rect x="1.605" y="1.732" width="0.600" height="0.600" rx="0.300" fill="#c79b5c"/><circle cx="1.905" cy="2.032" r="0.175" fill="#12151c"/><rect x="2.367" y="-2.332" width="0.600" height="0.600" rx="0.300" fill="#c79b5c"/><circle cx="2.667" cy="-2.032" r="0.175" fill="#12151c"/><rect x="2.367" y="-1.570" width="0.600" height="0.600" rx="0.300" fill="#c79b5c"/><circle cx="2.667" cy="-1.270" r="0.175" fill="#12151c"/><rect x="2.367" y="0.970" width="0.600" height="0.600" rx="0.300" fill="#c79b5c"/><circle cx="2.667" cy="1.270" r="0.175" fill="#12151c"/><rect x="2.367" y="1.732" width="0.600" height="0.600" rx="0.300" fill="#c79b5c"/><circle cx="2.667" cy="2.032" r="0.175" fill="#12151c"/><rect x="2.621" y="-0.935" width="0.600" height="0.600" rx="0.300" fill="#c79b5c"/><circle cx="2.921" cy="-0.635" r="0.175" fill="#12151c"/><rect x="2.621" y="0.335" width="0.600" height="0.600" rx="0.300" fill="#c79b5c"/><circle cx="2.921" cy="0.635" r="0.175" fill="#12151c"/><rect x="3.383" y="-0.935" width="0.600" height="0.600" rx="0.300" fill="#c79b5c"/><circle cx="3.683" cy="-0.635" r="0.175" fill="#12151c"/><rect x="3.048" y="-1.017" width="1.270" height="2.034" rx="0.000" fill="#c79b5c"/><rect x="3.383" y="0.335" width="0.600" height="0.600" rx="0.300" fill="#c79b5c"/><circle cx="3.683" cy="0.635" r="0.175" fill="#12151c"/><rect x="4.145" y="-0.935" width="0.600" height="0.600" rx="0.300" fill="#c79b5c"/><circle cx="4.445" cy="-0.635" r="0.175" fill="#12151c"/><rect x="4.145" y="0.335" width="0.600" height="0.600" rx="0.300" fill="#c79b5c"/><circle cx="4.445" cy="0.635" r="0.175" fill="#12151c"/><rect x="4.399" y="-2.332" width="0.600" height="0.600" rx="0.300" fill="#c79b5c"/><circle cx="4.699" cy="-2.032" r="0.175" fill="#12151c"/><rect x="4.399" y="-1.570" width="0.600" height="0.600" rx="0.300" fill="#c79b5c"/><circle cx="4.699" cy="-1.270" r="0.175" fill="#12151c"/><rect x="4.399" y="0.970" width="0.600" height="0.600" rx="0.300" fill="#c79b5c"/><circle cx="4.699" cy="1.270" r="0.175" fill="#12151c"/><rect x="4.399" y="1.732" width="0.600" height="0.600" rx="0.300" fill="#c79b5c"/><circle cx="4.699" cy="2.032" r="0.175" fill="#12151c"/><rect x="4.319" y="-2.412" width="1.904" height="4.826" rx="0.000" fill="#c79b5c"/><rect x="5.161" y="-2.332" width="0.600" height="0.600" rx="0.300" fill="#c79b5c"/><circle cx="5.461" cy="-2.032" r="0.175" fill="#12151c"/><rect x="5.161" y="1.732" width="0.600" height="0.600" rx="0.300" fill="#c79b5c"/><circle cx="5.461" cy="2.032" r="0.175" fill="#12151c"/><rect x="5.542" y="-1.062" width="0.600" height="0.600" rx="0.300" fill="#c79b5c"/><circle cx="5.842" cy="-0.762" r="0.175" fill="#12151c"/><rect x="5.542" y="-0.300" width="0.600" height="0.600" rx="0.300" fill="#c79b5c"/><circle cx="5.842" cy="0.000" r="0.175" fill="#12151c"/><rect x="5.542" y="0.462" width="0.600" height="0.600" rx="0.300" fill="#c79b5c"/><circle cx="5.842" cy="0.762" r="0.175" fill="#12151c"/></svg>