<svg xmlns="http://www.w3.org/2000/svg" viewBox="-32.40 -4.92 64.80 9.22" preserveAspectRatio="xMidYMid meet" style="width:100%;height:100%"><rect x="-32.40" y="-4.92" width="64.80" height="9.22" fill="#12151c"/><path d="M -30.600 3.100 A 0.300 0.300 0 0 1 -30.900 2.800" fill="none" stroke="#e6e9ef" stroke-width="0.12" opacity="1"/><path d="M 30.900 2.800 A 0.300 0.300 0 0 1 30.600 3.100" fill="none" stroke="#e6e9ef" stroke-width="0.12" opacity="1"/><path d="M -30.600 3.100 A 0.300 0.300 0 0 1 -30.900 2.800" fill="none" stroke="#6b7280" stroke-width="0.12" opacity="0.8"/><path d="M 30.900 2.800 A 0.300 0.300 0 0 1 30.600 3.100" fill="none" stroke="#6b7280" stroke-width="0.12" opacity="0.8"/><circle cx="27.325" cy="-3.675" r="0.125" fill="none" stroke="#e6e9ef" stroke-width="0.12" opacity="1"/><circle cx="27.325" cy="-3.675" r="0.125" fill="none" stroke="#e6e9ef" stroke-width="0.12" opacity="1"/><circle cx="27.325" cy="-3.675" r="0.250" fill="none" stroke="#6b7280" stroke-width="0.12" opacity="0.8"/><rect x="-31.400" y="1.650" width="0.000" height="0.000" rx="0.000" fill="#c79b5c"/><circle cx="-28.850" cy="0.000" r="0.250" fill="none" stroke="#6b7280" stroke-width="0.1"/><circle cx="28.850" cy="0.000" r="0.250" fill="none" stroke="#6b7280" stroke-width="0.1"/><rect x="31.400" y="-1.650" width="0.000" height="0.000" rx="0.000" fill="#c79b5c"/><rect x="27.100" y="-3.300" width="0.450" height="1.200" rx="0.000" fill="#c79b5c"/><rect x="27.100" y="2.100" width="0.450" height="1.200" rx="0.000" fill="#c79b5c"/><rect x="26.600" y="-3.300" width="0.300" height="1.200" rx="0.000" fill="#c79b5c"/><rect x="26.600" y="2.100" width="0.300" height="1.200" rx="0.000" fill="#c79b5c"/><rect x="26.100" y="-3.300" width="0.300" height="1.200" rx="0.000" fill="#c79b5c"/><rect x="26.100" y="2.100" width="0.300" height="1.200" rx="0.000" fill="#c79b5c"/><rect x="25.600" y="-3.300" width="0.300" height="1.200" rx="0.000" fill="#c79b5c"/><rect x="25.600" y="2.100" width="0.300" height="1.200" rx="0.000" fill="#c79b5c"/><rect x="25.100" y="-3.300" width="0.300" height="1.200" rx="0.000" fill="#c79b5c"/><rect x="25.100" y="2.100" width="0.300" height="1.200" rx="0.000" fill="#c79b5c"/><rect x="24.600" y="-3.300" width="0.300" height="1.200" rx="0.000" fill="#c79b5c"/><rect x="24.600" y="2.100" width="0.300" height="1.200" rx="0.000" fill="#c79b5c"/><rect x="24.100" y="-3.300" width="0.300" height="1.200" rx="0.000" fill="#c79b5c"/><rect x="24.100" y="2.100" width="0.300" height="1.200" rx="0.000" fill="#c79b5c"/><rect x="23.600" y="-3.300" width="0.300" height="1.200" rx="0.000" fill="#c79b5c"/><rect x="23.600" y="2.100" width="0.300" height="1.200" rx="0.000" fill="#c79b5c"/><rect x="23.100" y="-3.300" width="0.300" height="1.200" rx="0.000" fill="#c79b5c"/><rect x="23.100" y="2.100" width="0.300" height="1.200" rx="0.000" fill="#c79b5c"/><rect x="22.600" y="-3.300" width="0.300" height="1.200" rx="0.000" fill="#c79b5c"/><rect x="22.600" y="2.100" width="0.300" height="1.200" rx="0.000" fill="#c79b5c"/><rect x="22.100" y="-3.300" width="0.300" height="1.200" rx="0.000" fill="#c79b5c"/><rect x="22.100" y="2.100" width="0.300" height="1.200" rx="0.000" fill="#c79b5c"/><rect x="21.600" y="-3.300" width="0.300" height="1.200" rx="0.000" fill="#c79b5c"/><rect x="21.600" y="2.100" width="0.300" height="1.200" rx="0.000" fill="#c79b5c"/><rect x="21.100" y="-3.300" width="0.300" height="1.200" rx="0.000" fill="#c79b5c"/><rect x="21.100" y="2.100" width="0.300" height="1.200" rx="0.000" fill="#c79b5c"/><rect x="20.600" y="-3.300" width="0.300" height="1.200" rx="0.000" fill="#c79b5c"/><rect x="20.600" y="2.100" width="0.300" height="1.200" rx="0.000" fill="#c79b5c"/><rect x="20.100" y="-3.300" width="0.300" height="1.200" rx="0.000" fill="#c79b5c"/><rect x="20.100" y="2.100" width="0.300" height="1.200" rx="0.000" fill="#c79b5c"/><rect x="19.600" y="-3.300" width="0.300" height="1.200" rx="0.000" fill="#c79b5c"/><rect x="19.600" y="2.100" width="0.300" height="1.200" rx="0.000" fill="#c79b5c"/><rect x="19.100" y="-3.300" width="0.300" height="1.200" rx="0.000" fill="#c79b5c"/><rect x="19.100" y="2.100" width="0.300" height="1.200" rx="0.000" fill="#c79b5c"/><rect x="18.600" y="-3.300" width="0.300" height="1.200" rx="0.000" fill="#c79b5c"/><rect x="18.600" y="2.100" width="0.300" height="1.200" rx="0.000" fill="#c79b5c"/><rect x="18.100" y="-3.300" width="0.300" height="1.200" rx="0.000" fill="#c79b5c"/><rect x="18.100" y="2.100" width="0.300" height="1.200" rx="0.000" fill="#c79b5c"/><rect x="17.600" y="-3.300" width="0.300" height="1.200" rx="0.000" fill="#c79b5c"/><rect x="17.600" y="2.100" width="0.300" height="1.200" rx="0.000" fill="#c79b5c"/><rect x="17.100" y="-3.300" width="0.300" height="1.200" rx="0.000" fill="#c79b5c"/><rect x="17.100" y="2.100" width="0.300" height="1.200" rx="0.000" fill="#c79b5c"/><rect x="16.600" y="-3.300" width="0.300" height="1.200" rx="0.000" fill="#c79b5c"/><rect x="16.600" y="2.100" width="0.300" height="1.200" rx="0.000" fill="#c79b5c"/><rect x="16.100" y="-3.300" width="0.300" height="1.200" rx="0.000" fill="#c79b5c"/><rect x="16.100" y="2.100" width="0.300" height="1.200" rx="0.000" fill="#c79b5c"/><rect x="15.600" y="-3.300" width="0.300" height="1.200" rx="0.000" fill="#c79b5c"/><rect x="15.600" y="2.100" width="0.300" height="1.200" rx="0.000" fill="#c79b5c"/><rect x="15.100" y="-3.300" width="0.300" height="1.200" rx="0.000" fill="#c79b5c"/><rect x="15.100" y="2.100" width="0.300" height="1.200" rx="0.000" fill="#c79b5c"/><rect x="14.600" y="-3.300" width="0.300" height="1.200" rx="0.000" fill="#c79b5c"/><rect x="14.600" y="2.100" width="0.300" height="1.200" rx="0.000" fill="#c79b5c"/><rect x="14.100" y="-3.300" width="0.300" height="1.200" rx="0.000" fill="#c79b5c"/><rect x="14.100" y="2.100" width="0.300" height="1.200" rx="0.000" fill="#c79b5c"/><rect x="13.600" y="-3.300" width="0.300" height="1.200" rx="0.000" fill="#c79b5c"/><rect x="13.600" y="2.100" width="0.300" height="1.200" rx="0.000" fill="#c79b5c"/><rect x="13.100" y="-3.300" width="0.300" height="1.200" rx="0.000" fill="#c79b5c"/><rect x="13.100" y="2.100" width="0.300" height="1.200" rx="0.000" fill="#c79b5c"/><rect x="12.600" y="-3.300" width="0.300" height="1.200" rx="0.000" fill="#c79b5c"/><rect x="12.600" y="2.100" width="0.300" height="1.200" rx="0.000" fill="#c79b5c"/><rect x="12.100" y="-3.300" width="0.300" height="1.200" rx="0.000" fill="#c79b5c"/><rect x="12.100" y="2.100" width="0.300" height="1.200" rx="0.000" fill="#c79b5c"/><rect x="11.600" y="-3.300" width="0.300" height="1.200" rx="0.000" fill="#c79b5c"/><rect x="11.600" y="2.100" width="0.300" height="1.200" rx="0.000" fill="#c79b5c"/><rect x="11.100" y="-3.300" width="0.300" height="1.200" rx="0.000" fill="#c79b5c"/><rect x="11.100" y="2.100" width="0.300" height="1.200" rx="0.000" fill="#c79b5c"/><rect x="10.600" y="-3.300" width="0.300" height="1.200" rx="0.000" fill="#c79b5c"/><rect x="10.600" y="2.100" width="0.300" height="1.200" rx="0.000" fill="#c79b5c"/><rect x="10.100" y="-3.300" width="0.300" height="1.200" rx="0.000" fill="#c79b5c"/><rect x="10.100" y="2.100" width="0.300" height="1.200" rx="0.000" fill="#c79b5c"/><rect x="9.600" y="-3.300" width="0.300" height="1.200" rx="0.000" fill="#c79b5c"/><rect x="9.600" y="2.100" width="0.300" height="1.200" rx="0.000" fill="#c79b5c"/><rect x="9.100" y="-3.300" width="0.300" height="1.200" rx="0.000" fill="#c79b5c"/><rect x="9.100" y="2.100" width="0.300" height="1.200" rx="0.000" fill="#c79b5c"/><rect x="8.600" y="-3.300" width="0.300" height="1.200" rx="0.000" fill="#c79b5c"/><rect x="8.600" y="2.100" width="0.300" height="1.200" rx="0.000" fill="#c79b5c"/><rect x="8.100" y="-3.300" width="0.300" height="1.200" rx="0.000" fill="#c79b5c"/><rect x="8.100" y="2.100" width="0.300" height="1.200" rx="0.000" fill="#c79b5c"/><rect x="7.600" y="-3.300" width="0.300" height="1.200" rx="0.000" fill="#c79b5c"/><rect x="7.600" y="2.100" width="0.300" height="1.200" rx="0.000" fill="#c79b5c"/><rect x="7.100" y="-3.300" width="0.300" height="1.200" rx="0.000" fill="#c79b5c"/><rect x="7.100" y="2.100" width="0.300" height="1.200" rx="0.000" fill="#c79b5c"/><rect x="6.600" y="-3.300" width="0.300" height="1.200" rx="0.000" fill="#c79b5c"/><rect x="6.600" y="2.100" width="0.300" height="1.200" rx="0.000" fill="#c79b5c"/><rect x="6.100" y="-3.300" width="0.300" height="1.200" rx="0.000" fill="#c79b5c"/><rect x="6.100" y="2.100" width="0.300" height="1.200" rx="0.000" fill="#c79b5c"/><rect x="5.600" y="-3.300" width="0.300" height="1.200" rx="0.000" fill="#c79b5c"/><rect x="5.600" y="2.100" width="0.300" height="1.200" rx="0.000" fill="#c79b5c"/><rect x="5.100" y="-3.300" width="0.300" height="1.200" rx="0.000" fill="#c79b5c"/><rect x="5.100" y="2.100" width="0.300" height="1.200" rx="0.000" fill="#c79b5c"/><rect x="4.600" y="-3.300" width="0.300" height="1.200" rx="0.000" fill="#c79b5c"/><rect x="4.600" y="2.100" width="0.300" height="1.200" rx="0.000" fill="#c79b5c"/><rect x="4.100" y="-3.300" width="0.300" height="1.200" rx="0.000" fill="#c79b5c"/><rect x="4.100" y="2.100" width="0.300" height="1.200" rx="0.000" fill="#c79b5c"/><rect x="3.600" y="-3.300" width="0.300" height="1.200" rx="0.000" fill="#c79b5c"/><rect x="3.600" y="2.100" width="0.300" height="1.200" rx="0.000" fill="#c79b5c"/><rect x="3.100" y="-3.300" width="0.300" height="1.200" rx="0.000" fill="#c79b5c"/><rect x="3.100" y="2.100" width="0.300" height="1.200" rx="0.000" fill="#c79b5c"/><rect x="2.600" y="-3.300" width="0.300" height="1.200" rx="0.000" fill="#c79b5c"/><rect x="2.600" y="2.100" width="0.300" height="1.200" rx="0.000" fill="#c79b5c"/><rect x="2.100" y="-3.300" width="0.300" height="1.200" rx="0.000" fill="#c79b5c"/><rect x="2.100" y="2.100" width="0.300" height="1.200" rx="0.000" fill="#c79b5c"/><rect x="1.600" y="-3.300" width="0.300" height="1.200" rx="0.000" fill="#c79b5c"/><rect x="1.600" y="2.100" width="0.300" height="1.200" rx="0.000" fill="#c79b5c"/><rect x="1.100" y="-3.300" width="0.300" height="1.200" rx="0.000" fill="#c79b5c"/><rect x="1.100" y="2.100" width="0.300" height="1.200" rx="0.000" fill="#c79b5c"/><rect x="0.600" y="-3.300" width="0.300" height="1.200" rx="0.000" fill="#c79b5c"/><rect x="0.600" y="2.100" width="0.300" height="1.200" rx="0.000" fill="#c79b5c"/><rect x="0.100" y="-3.300" width="0.300" height="1.200" rx="0.000" fill="#c79b5c"/><rect x="0.100" y="2.100" width="0.300" height="1.200" rx="0.000" fill="#c79b5c"/><rect x="-0.400" y="-3.300" width="0.300" height="1.200" rx="0.000" fill="#c79b5c"/><rect x="-0.400" y="2.100" width="0.300" height="1.200" rx="0.000" fill="#c79b5c"/><rect x="-0.900" y="-3.300" width="0.300" height="1.200" rx="0.000" fill="#c79b5c"/><rect x="-0.900" y="2.100" width="0.300" height="1.200" rx="0.000" fill="#c79b5c"/><rect x="-1.400" y="-3.300" width="0.300" height="1.200" rx="0.000" fill="#c79b5c"/><rect x="-1.400" y="2.100" width="0.300" height="1.200" rx="0.000" fill="#c79b5c"/><rect x="-1.900" y="-3.300" width="0.300" height="1.200" rx="0.000" fill="#c79b5c"/><rect x="-1.900" y="2.100" width="0.300" height="1.200" rx="0.000" fill="#c79b5c"/><rect x="-2.400" y="-3.300" width="0.300" height="1.200" rx="0.000" fill="#c79b5c"/><rect x="-2.400" y="2.100" width="0.300" height="1.200" rx="0.000" fill="#c79b5c"/><rect x="-2.900" y="-3.300" width="0.300" height="1.200" rx="0.000" fill="#c79b5c"/><rect x="-2.900" y="2.100" width="0.300" height="1.200" rx="0.000" fill="#c79b5c"/><rect x="-3.400" y="-3.300" width="0.300" height="1.200" rx="0.000" fill="#c79b5c"/><rect x="-3.400" y="2.100" width="0.300" height="1.200" rx="0.000" fill="#c79b5c"/><rect x="-3.900" y="-3.300" width="0.300" height="1.200" rx="0.000" fill="#c79b5c"/><rect x="-3.900" y="2.100" width="0.300" height="1.200" rx="0.000" fill="#c79b5c"/><rect x="-4.400" y="-3.300" width="0.300" height="1.200" rx="0.000" fill="#c79b5c"/><rect x="-4.400" y="2.100" width="0.300" height="1.200" rx="0.000" fill="#c79b5c"/><rect x="-4.900" y="-3.300" width="0.300" height="1.200" rx="0.000" fill="#c79b5c"/><rect x="-4.900" y="2.100" width="0.300" height="1.200" rx="0.000" fill="#c79b5c"/><rect x="-5.400" y="-3.300" width="0.300" height="1.200" rx="0.000" fill="#c79b5c"/><rect x="-5.400" y="2.100" width="0.300" height="1.200" rx="0.000" fill="#c79b5c"/><rect x="-5.900" y="-3.300" width="0.300" height="1.200" rx="0.000" fill="#c79b5c"/><rect x="-5.900" y="2.100" width="0.300" height="1.200" rx="0.000" fill="#c79b5c"/><rect x="-6.400" y="-3.300" width="0.300" height="1.200" rx="0.000" fill="#c79b5c"/><rect x="-6.400" y="2.100" width="0.300" height="1.200" rx="0.000" fill="#c79b5c"/><rect x="-6.900" y="-3.300" width="0.300" height="1.200" rx="0.000" fill="#c79b5c"/><rect x="-6.900" y="2.100" width="0.300" height="1.200" rx="0.000" fill="#c79b5c"/><rect x="-7.400" y="-3.300" width="0.300" height="1.200" rx="0.000" fill="#c79b5c"/><rect x="-7.400" y="2.100" width="0.300" height="1.200" rx="0.000" fill="#c79b5c"/><rect x="-7.900" y="-3.300" width="0.300" height="1.200" rx="0.000" fill="#c79b5c"/><rect x="-7.900" y="2.100" width="0.300" height="1.200" rx="0.000" fill="#c79b5c"/><rect x="-8.400" y="-3.300" width="0.300" height="1.200" rx="0.000" fill="#c79b5c"/><rect x="-8.400" y="2.100" width="0.300" height="1.200" rx="0.000" fill="#c79b5c"/><rect x="-8.900" y="-3.300" width="0.300" height="1.200" rx="0.000" fill="#c79b5c"/><rect x="-8.900" y="2.100" width="0.300" height="1.200" rx="0.000" fill="#c79b5c"/><rect x="-9.400" y="-3.300" width="0.300" height="1.200" rx="0.000" fill="#c79b5c"/><rect x="-9.400" y="2.100" width="0.300" height="1.200" rx="0.000" fill="#c79b5c"/><rect x="-9.900" y="-3.300" width="0.300" height="1.200" rx="0.000" fill="#c79b5c"/><rect x="-9.900" y="2.100" width="0.300" height="1.200" rx="0.000" fill="#c79b5c"/><rect x="-10.400" y="-3.300" width="0.300" height="1.200" rx="0.000" fill="#c79b5c"/><rect x="-10.400" y="2.100" width="0.300" height="1.200" rx="0.000" fill="#c79b5c"/><rect x="-10.900" y="-3.300" width="0.300" height="1.200" rx="0.000" fill="#c79b5c"/><rect x="-10.900" y="2.100" width="0.300" height="1.200" rx="0.000" fill="#c79b5c"/><rect x="-11.400" y="-3.300" width="0.300" height="1.200" rx="0.000" fill="#c79b5c"/><rect x="-11.400" y="2.100" width="0.300" height="1.200" rx="0.000" fill="#c79b5c"/><rect x="-11.900" y="-3.300" width="0.300" height="1.200" rx="0.000" fill="#c79b5c"/><rect x="-11.900" y="2.100" width="0.300" height="1.200" rx="0.000" fill="#c79b5c"/><rect x="-12.400" y="-3.300" width="0.300" height="1.200" rx="0.000" fill="#c79b5c"/><rect x="-12.400" y="2.100" width="0.300" height="1.200" rx="0.000" fill="#c79b5c"/><rect x="-12.900" y="-3.300" width="0.300" height="1.200" rx="0.000" fill="#c79b5c"/><rect x="-12.900" y="2.100" width="0.300" height="1.200" rx="0.000" fill="#c79b5c"/><rect x="-13.400" y="-3.300" width="0.300" height="1.200" rx="0.000" fill="#c79b5c"/><rect x="-13.400" y="2.100" width="0.300" height="1.200" rx="0.000" fill="#c79b5c"/><rect x="-13.900" y="-3.300" width="0.300" height="1.200" rx="0.000" fill="#c79b5c"/><rect x="-13.900" y="2.100" width="0.300" height="1.200" rx="0.000" fill="#c79b5c"/><rect x="-14.400" y="-3.300" width="0.300" height="1.200" rx="0.000" fill="#c79b5c"/><rect x="-14.400" y="2.100" width="0.300" height="1.200" rx="0.000" fill="#c79b5c"/><rect x="-14.900" y="-3.300" width="0.300" height="1.200" rx="0.000" fill="#c79b5c"/><rect x="-14.900" y="2.100" width="0.300" height="1.200" rx="0.000" fill="#c79b5c"/><rect x="-15.400" y="-3.300" width="0.300" height="1.200" rx="0.000" fill="#c79b5c"/><rect x="-15.400" y="2.100" width="0.300" height="1.200" rx="0.000" fill="#c79b5c"/><rect x="-15.900" y="-3.300" width="0.300" height="1.200" rx="0.000" fill="#c79b5c"/><rect x="-15.900" y="2.100" width="0.300" height="1.200" rx="0.000" fill="#c79b5c"/><rect x="-16.400" y="-3.300" width="0.300" height="1.200" rx="0.000" fill="#c79b5c"/><rect x="-16.400" y="2.100" width="0.300" height="1.200" rx="0.000" fill="#c79b5c"/><rect x="-16.900" y="-3.300" width="0.300" height="1.200" rx="0.000" fill="#c79b5c"/><rect x="-16.900" y="2.100" width="0.300" height="1.200" rx="0.000" fill="#c79b5c"/><rect x="-17.400" y="-3.300" width="0.300" height="1.200" rx="0.000" fill="#c79b5c"/><rect x="-17.400" y="2.100" width="0.300" height="1.200" rx="0.000" fill="#c79b5c"/><rect x="-17.900" y="-3.300" width="0.300" height="1.200" rx="0.000" fill="#c79b5c"/><rect x="-17.900" y="2.100" width="0.300" height="1.200" rx="0.000" fill="#c79b5c"/><rect x="-18.400" y="-3.300" width="0.300" height="1.200" rx="0.000" fill="#c79b5c"/><rect x="-18.400" y="2.100" width="0.300" height="1.200" rx="0.000" fill="#c79b5c"/><rect x="-18.900" y="-3.300" width="0.300" height="1.200" rx="0.000" fill="#c79b5c"/><rect x="-18.900" y="2.100" width="0.300" height="1.200" rx="0.000" fill="#c79b5c"/><rect x="-19.400" y="-3.300" width="0.300" height="1.200" rx="0.000" fill="#c79b5c"/><rect x="-19.400" y="2.100" width="0.300" height="1.200" rx="0.000" fill="#c79b5c"/><rect x="-19.900" y="-3.300" width="0.300" height="1.200" rx="0.000" fill="#c79b5c"/><rect x="-19.900" y="2.100" width="0.300" height="1.200" rx="0.000" fill="#c79b5c"/><rect x="-20.400" y="-3.300" width="0.300" height="1.200" rx="0.000" fill="#c79b5c"/><rect x="-20.400" y="2.100" width="0.300" height="1.200" rx="0.000" fill="#c79b5c"/><rect x="-20.900" y="-3.300" width="0.300" height="1.200" rx="0.000" fill="#c79b5c"/><rect x="-20.900" y="2.100" width="0.300" height="1.200" rx="0.000" fill="#c79b5c"/><rect x="-21.400" y="-3.300" width="0.300" height="1.200" rx="0.000" fill="#c79b5c"/><rect x="-21.400" y="2.100" width="0.300" height="1.200" rx="0.000" fill="#c79b5c"/><rect x="-21.900" y="-3.300" width="0.300" height="1.200" rx="0.000" fill="#c79b5c"/><rect x="-21.900" y="2.100" width="0.300" height="1.200" rx="0.000" fill="#c79b5c"/><rect x="-22.400" y="-3.300" width="0.300" height="1.200" rx="0.000" fill="#c79b5c"/><rect x="-22.400" y="2.100" width="0.300" height="1.200" rx="0.000" fill="#c79b5c"/><rect x="-22.900" y="-3.300" width="0.300" height="1.200" rx="0.000" fill="#c79b5c"/><rect x="-22.900" y="2.100" width="0.300" height="1.200" rx="0.000" fill="#c79b5c"/><rect x="-23.400" y="-3.300" width="0.300" height="1.200" rx="0.000" fill="#c79b5c"/><rect x="-23.400" y="2.100" width="0.300" height="1.200" rx="0.000" fill="#c79b5c"/><rect x="-23.900" y="-3.300" width="0.300" height="1.200" rx="0.000" fill="#c79b5c"/><rect x="-23.900" y="2.100" width="0.300" height="1.200" rx="0.000" fill="#c79b5c"/><rect x="-24.400" y="-3.300" width="0.300" height="1.200" rx="0.000" fill="#c79b5c"/><rect x="-24.400" y="2.100" width="0.300" height="1.200" rx="0.000" fill="#c79b5c"/><rect x="-24.900" y="-3.300" width="0.300" height="1.200" rx="0.000" fill="#c79b5c"/><rect x="-24.900" y="2.100" width="0.300" height="1.200" rx="0.000" fill="#c79b5c"/><rect x="-25.400" y="-3.300" width="0.300" height="1.200" rx="0.000" fill="#c79b5c"/><rect x="-25.400" y="2.100" width="0.300" height="1.200" rx="0.000" fill="#c79b5c"/><rect x="-25.900" y="-3.300" width="0.300" height="1.200" rx="0.000" fill="#c79b5c"/><rect x="-25.900" y="2.100" width="0.300" height="1.200" rx="0.000" fill="#c79b5c"/><rect x="-26.400" y="-3.300" width="0.300" height="1.200" rx="0.000" fill="#c79b5c"/><rect x="-26.400" y="2.100" width="0.300" height="1.200" rx="0.000" fill="#c79b5c"/><rect x="-26.900" y="-3.300" width="0.300" height="1.200" rx="0.000" fill="#c79b5c"/><rect x="-26.900" y="2.100" width="0.300" height="1.200" rx="0.000" fill="#c79b5c"/><rect x="-27.550" y="-3.300" width="0.450" height="1.200" rx="0.000" fill="#c79b5c"/><rect x="-27.550" y="2.100" width="0.450" height="1.200" rx="0.000" fill="#c79b5c"/></svg>