<svg xmlns="http://www.w3.org/2000/svg" viewBox="-23.20 -48.75 46.40 59.20" preserveAspectRatio="xMidYMid meet" style="width:100%;height:100%"><rect x="-23.20" y="-48.75" width="46.40" height="59.20" fill="#12151c"/><line x1="-20.750" y1="-47.500" x2="20.750" y2="-47.500" stroke="#e6e9ef" stroke-width="0.200" stroke-linecap="round" opacity="1"/><line x1="-20.750" y1="-8.900" x2="-20.750" y2="-47.500" stroke="#e6e9ef" stroke-width="0.200" stroke-linecap="round" opacity="1"/><line x1="-2.700" y1="-7.500" x2="2.700" y2="-7.500" stroke="#e6e9ef" stroke-width="0.200" stroke-linecap="round" opacity="1"/><line x1="20.750" y1="-47.500" x2="20.750" y2="-8.900" stroke="#e6e9ef" stroke-width="0.200" stroke-linecap="round" opacity="1"/><line x1="-21.450" y1="-8.500" x2="-3.050" y2="-8.500" stroke="#4a5160" stroke-width="0.080" stroke-linecap="round" opacity="0.7"/><line x1="-21.450" y1="7.500" x2="-21.450" y2="-8.500" stroke="#4a5160" stroke-width="0.080" stroke-linecap="round" opacity="0.7"/><line x1="-21.450" y1="7.500" x2="-3.050" y2="7.500" stroke="#4a5160" stroke-width="0.080" stroke-linecap="round" opacity="0.7"/><line x1="-12.950" y1="0.000" x2="-12.750" y2="0.000" stroke="#4a5160" stroke-width="0.080" stroke-linecap="round" opacity="0.7"/><line x1="-12.750" y1="0.000" x2="-12.750" y2="-0.200" stroke="#4a5160" stroke-width="0.080" stroke-linecap="round" opacity="0.7"/><line x1="-12.750" y1="0.000" x2="-12.550" y2="0.000" stroke="#4a5160" stroke-width="0.080" stroke-linecap="round" opacity="0.7"/><line x1="-12.750" y1="0.200" x2="-12.750" y2="0.000" stroke="#4a5160" stroke-width="0.080" stroke-linecap="round" opacity="0.7"/><line x1="-3.050" y1="7.500" x2="-3.050" y2="-8.500" stroke="#4a5160" stroke-width="0.080" stroke-linecap="round" opacity="0.7"/><line x1="-0.500" y1="0.000" x2="0.000" y2="0.000" stroke="#4a5160" stroke-width="0.080" stroke-linecap="round" opacity="0.7"/><line x1="0.000" y1="0.000" x2="0.000" y2="-0.500" stroke="#4a5160" stroke-width="0.080" stroke-linecap="round" opacity="0.7"/><line x1="0.000" y1="0.000" x2="0.500" y2="0.000" stroke="#4a5160" stroke-width="0.080" stroke-linecap="round" opacity="0.7"/><line x1="0.000" y1="0.500" x2="0.000" y2="0.000" stroke="#4a5160" stroke-width="0.080" stroke-linecap="round" opacity="0.7"/><line x1="3.050" y1="-8.500" x2="21.450" y2="-8.500" stroke="#4a5160" stroke-width="0.080" stroke-linecap="round" opacity="0.7"/><line x1="3.050" y1="7.500" x2="3.050" y2="-8.500" stroke="#4a5160" stroke-width="0.080" stroke-linecap="round" opacity="0.7"/><line x1="3.050" y1="7.500" x2="21.450" y2="7.500" stroke="#4a5160" stroke-width="0.080" stroke-linecap="round" opacity="0.7"/><line x1="12.550" y1="0.000" x2="12.750" y2="0.000" stroke="#4a5160" stroke-width="0.080" stroke-linecap="round" opacity="0.7"/><line x1="12.750" y1="0.000" x2="12.750" y2="-0.200" stroke="#4a5160" stroke-width="0.080" stroke-linecap="round" opacity="0.7"/><line x1="12.750" y1="0.000" x2="12.950" y2="0.000" stroke="#4a5160" stroke-width="0.080" stroke-linecap="round" opacity="0.7"/><line x1="12.750" y1="0.200" x2="12.750" y2="0.000" stroke="#4a5160" stroke-width="0.080" stroke-linecap="round" opacity="0.7"/><line x1="21.450" y1="7.500" x2="21.450" y2="-8.500" stroke="#4a5160" stroke-width="0.080" stroke-linecap="round" opacity="0.7"/><line x1="-20.750" y1="-47.500" x2="20.750" y2="-47.500" stroke="#6b7280" stroke-width="0.100" stroke-linecap="round" opacity="0.8"/><line x1="-20.750" y1="-7.500" x2="-20.750" y2="-47.500" stroke="#6b7280" stroke-width="0.100" stroke-linecap="round" opacity="0.8"/><line x1="-20.750" y1="-7.500" x2="20.750" y2="-7.500" stroke="#6b7280" stroke-width="0.100" stroke-linecap="round" opacity="0.8"/><line x1="-19.250" y1="-6.700" x2="-5.250" y2="-6.700" stroke="#6b7280" stroke-width="0.100" stroke-linecap="round" opacity="0.8"/><line x1="-19.250" y1="6.500" x2="-19.250" y2="-7.500" stroke="#6b7280" stroke-width="0.100" stroke-linecap="round" opacity="0.8"/><line x1="-19.250" y1="6.500" x2="-5.250" y2="6.500" stroke="#6b7280" stroke-width="0.100" stroke-linecap="round" opacity="0.8"/><line x1="-17.326" y1="-3.100" x2="-8.174" y2="-3.100" stroke="#6b7280" stroke-width="0.100" stroke-linecap="round" opacity="0.8"/><line x1="-17.326" y1="3.100" x2="-8.174" y2="3.100" stroke="#6b7280" stroke-width="0.100" stroke-linecap="round" opacity="0.8"/><line x1="-5.250" y1="6.500" x2="-5.250" y2="-7.500" stroke="#6b7280" stroke-width="0.100" stroke-linecap="round" opacity="0.8"/><line x1="5.250" y1="-6.700" x2="19.250" y2="-6.700" stroke="#6b7280" stroke-width="0.100" stroke-linecap="round" opacity="0.8"/><line x1="5.250" y1="6.500" x2="5.250" y2="-7.500" stroke="#6b7280" stroke-width="0.100" stroke-linecap="round" opacity="0.8"/><line x1="5.250" y1="6.500" x2="19.250" y2="6.500" stroke="#6b7280" stroke-width="0.100" stroke-linecap="round" opacity="0.8"/><line x1="8.174" y1="-3.100" x2="17.326" y2="-3.100" stroke="#6b7280" stroke-width="0.100" stroke-linecap="round" opacity="0.8"/><line x1="8.174" y1="3.100" x2="17.326" y2="3.100" stroke="#6b7280" stroke-width="0.100" stroke-linecap="round" opacity="0.8"/><line x1="19.250" y1="6.500" x2="19.250" y2="-7.500" stroke="#6b7280" stroke-width="0.100" stroke-linecap="round" opacity="0.8"/><line x1="20.750" y1="-7.500" x2="20.750" y2="-47.500" stroke="#6b7280" stroke-width="0.100" stroke-linecap="round" opacity="0.8"/><line x1="-22.200" y1="-47.750" x2="22.200" y2="-47.750" stroke="#d24d4d" stroke-width="0.080" stroke-linecap="round" opacity="0.7"/><line x1="22.200" y1="-47.750" x2="22.200" y2="9.450" stroke="#d24d4d" stroke-width="0.080" stroke-linecap="round" opacity="0.7"/><line x1="22.200" y1="9.450" x2="-22.200" y2="9.450" stroke="#d24d4d" stroke-width="0.080" stroke-linecap="round" opacity="0.7"/><line x1="-22.200" y1="9.450" x2="-22.200" y2="-47.750" stroke="#d24d4d" stroke-width="0.080" stroke-linecap="round" opacity="0.7"/><path d="M -17.326 3.100 A 7.000 7.000 0 0 1 -17.326 -3.100" fill="none" stroke="#6b7280" stroke-width="0.12" opacity="0.8"/><path d="M -8.174 -3.100 A 7.000 7.000 0 0 1 -8.174 3.100" fill="none" stroke="#6b7280" stroke-width="0.12" opacity="0.8"/><path d="M 8.174 3.100 A 7.000 7.000 0 0 1 8.174 -3.100" fill="none" stroke="#6b7280" stroke-width="0.12" opacity="0.8"/><path d="M 17.326 -3.100 A 7.000 7.000 0 0 1 17.326 3.100" fill="none" stroke="#6b7280" stroke-width="0.12" opacity="0.8"/><circle cx="-12.750" cy="0.000" r="3.100" fill="none" stroke="#4a5160" stroke-width="0.12" opacity="0.7"/><circle cx="12.750" cy="0.000" r="3.100" fill="none" stroke="#4a5160" stroke-width="0.12" opacity="0.7"/><rect x="-17.147" y="-2.750" width="1.000" height="1.000" rx="0.500" fill="#c79b5c"/><circle cx="-16.647" cy="-2.250" r="0.250" fill="#12151c"/><rect x="-17.147" y="1.750" width="1.000" height="1.000" rx="0.500" fill="#c79b5c"/><circle cx="-16.647" cy="2.250" r="0.250" fill="#12151c"/><rect x="-13.250" y="-5.000" width="1.000" height="1.000" rx="0.500" fill="#c79b5c"/><circle cx="-12.750" cy="-4.500" r="0.250" fill="#12151c"/><rect x="-21.950" y="-8.000" width="18.400" height="16.000" rx="0.000" fill="#c79b5c"/><circle cx="-12.750" cy="0.000" r="3.100" fill="#12151c"/><rect x="-13.250" y="4.000" width="1.000" height="1.000" rx="0.500" fill="#c79b5c"/><circle cx="-12.750" cy="4.500" r="0.250" fill="#12151c"/><rect x="-9.353" y="-2.750" width="1.000" height="1.000" rx="0.500" fill="#c79b5c"/><circle cx="-8.853" cy="-2.250" r="0.250" fill="#12151c"/><rect x="-9.353" y="1.750" width="1.000" height="1.000" rx="0.500" fill="#c79b5c"/><circle cx="-8.853" cy="2.250" r="0.250" fill="#12151c"/><rect x="8.353" y="-2.750" width="1.000" height="1.000" rx="0.500" fill="#c79b5c"/><circle cx="8.853" cy="-2.250" r="0.250" fill="#12151c"/><rect x="8.353" y="1.750" width="1.000" height="1.000" rx="0.500" fill="#c79b5c"/><circle cx="8.853" cy="2.250" r="0.250" fill="#12151c"/><rect x="12.250" y="-5.000" width="1.000" height="1.000" rx="0.500" fill="#c79b5c"/><circle cx="12.750" cy="-4.500" r="0.250" fill="#12151c"/><rect x="3.550" y="-8.000" width="18.400" height="16.000" rx="0.000" fill="#c79b5c"/><circle cx="12.750" cy="0.000" r="3.100" fill="#12151c"/><rect x="12.250" y="4.000" width="1.000" height="1.000" rx="0.500" fill="#c79b5c"/><circle cx="12.750" cy="4.500" r="0.250" fill="#12151c"/><rect x="16.147" y="-2.750" width="1.000" height="1.000" rx="0.500" fill="#c79b5c"/><circle cx="16.647" cy="-2.250" r="0.250" fill="#12151c"/><rect x="16.147" y="1.750" width="1.000" height="1.000" rx="0.500" fill="#c79b5c"/><circle cx="16.647" cy="2.250" r="0.250" fill="#12151c"/></svg>