<svg xmlns="http://www.w3.org/2000/svg" viewBox="-1.50 -5.50 106.44 60.34" preserveAspectRatio="xMidYMid meet" style="width:100%;height:100%"><rect x="-1.50" y="-5.50" width="106.44" height="60.34" fill="#12151c"/><g transform="translate(5.08 0)"><rect x="0.000" y="-0.000" width="25.400" height="53.340" fill="#1e222b" stroke="#4ea1ff" stroke-width="0.25"/><line x1="-5.080" y1="2.540" x2="0.000" y2="2.540" stroke="#e6e9ef" stroke-width="0.2"/><circle cx="-5.080" cy="2.540" r="0.4" fill="#4ea1ff"/><text x="0.500" y="2.890" fill="#e6e9ef" font-size="1.1" text-anchor="start" font-family="sans-serif">SCLK</text><text x="-0.300" y="2.190" fill="#9aa3b2" font-size="0.9" text-anchor="end" font-family="sans-serif">3</text><line x1="-5.080" y1="5.080" x2="0.000" y2="5.080" stroke="#e6e9ef" stroke-width="0.2"/><circle cx="-5.080" cy="5.080" r="0.4" fill="#4ea1ff"/><text x="0.500" y="5.430" fill="#e6e9ef" font-size="1.1" text-anchor="start" font-family="sans-serif">SDI</text><text x="-0.300" y="4.730" fill="#9aa3b2" font-size="0.9" text-anchor="end" font-family="sans-serif">4</text><line x1="-5.080" y1="7.620" x2="0.000" y2="7.620" stroke="#e6e9ef" stroke-width="0.2"/><circle cx="-5.080" cy="7.620" r="0.4" fill="#4ea1ff"/><text x="0.500" y="7.970" fill="#e6e9ef" font-size="1.1" text-anchor="start" font-family="sans-serif">SDO</text><text x="-0.300" y="7.270" fill="#9aa3b2" font-size="0.9" text-anchor="end" font-family="sans-serif">5</text><line x1="-5.080" y1="10.160" x2="0.000" y2="10.160" stroke="#e6e9ef" stroke-width="0.2"/><circle cx="-5.080" cy="10.160" r="0.4" fill="#4ea1ff"/><text x="0.500" y="10.510" fill="#e6e9ef" font-size="1.1" text-anchor="start" font-family="sans-serif">~{CS}</text><text x="-0.300" y="9.810" fill="#9aa3b2" font-size="0.9" text-anchor="end" font-family="sans-serif">2</text><line x1="-5.080" y1="15.240" x2="0.000" y2="15.240" stroke="#e6e9ef" stroke-width="0.2"/><circle cx="-5.080" cy="15.240" r="0.4" fill="#4ea1ff"/><text x="0.500" y="15.590" fill="#e6e9ef" font-size="1.1" text-anchor="start" font-family="sans-serif">GPIO-0</text><text x="-0.300" y="14.890" fill="#9aa3b2" font-size="0.9" text-anchor="end" font-family="sans-serif">8</text><line x1="-5.080" y1="17.780" x2="0.000" y2="17.780" stroke="#e6e9ef" stroke-width="0.2"/><circle cx="-5.080" cy="17.780" r="0.4" fill="#4ea1ff"/><text x="0.500" y="18.130" fill="#e6e9ef" font-size="1.1" text-anchor="start" font-family="sans-serif">GPIO-1</text><text x="-0.300" y="17.430" fill="#9aa3b2" font-size="0.9" text-anchor="end" font-family="sans-serif">9</text><line x1="-5.080" y1="20.320" x2="0.000" y2="20.320" stroke="#e6e9ef" stroke-width="0.2"/><circle cx="-5.080" cy="20.320" r="0.4" fill="#4ea1ff"/><text x="0.500" y="20.670" fill="#e6e9ef" font-size="1.1" text-anchor="start" font-family="sans-serif">~{RST}</text><text x="-0.300" y="19.970" fill="#9aa3b2" font-size="0.9" text-anchor="end" font-family="sans-serif">7</text><line x1="-5.080" y1="22.860" x2="0.000" y2="22.860" stroke="#e6e9ef" stroke-width="0.2"/><circle cx="-5.080" cy="22.860" r="0.4" fill="#4ea1ff"/><text x="0.500" y="23.210" fill="#e6e9ef" font-size="1.1" text-anchor="start" font-family="sans-serif">UNI/BIP-A</text><text x="-0.300" y="22.510" fill="#9aa3b2" font-size="0.9" text-anchor="end" font-family="sans-serif">10</text><line x1="-5.080" y1="25.400" x2="0.000" y2="25.400" stroke="#e6e9ef" stroke-width="0.2"/><circle cx="-5.080" cy="25.400" r="0.4" fill="#4ea1ff"/><text x="0.500" y="25.750" fill="#e6e9ef" font-size="1.1" text-anchor="start" font-family="sans-serif">UNI/BIP-B</text><text x="-0.300" y="25.050" fill="#9aa3b2" font-size="0.9" text-anchor="end" font-family="sans-serif">48</text><line x1="-5.080" y1="27.940" x2="0.000" y2="27.940" stroke="#e6e9ef" stroke-width="0.2"/><circle cx="-5.080" cy="27.940" r="0.4" fill="#4ea1ff"/><text x="0.500" y="28.290" fill="#e6e9ef" font-size="1.1" text-anchor="start" font-family="sans-serif">~{LDAC}</text><text x="-0.300" y="27.590" fill="#9aa3b2" font-size="0.9" text-anchor="end" font-family="sans-serif">6</text><line x1="-5.080" y1="43.180" x2="0.000" y2="43.180" stroke="#e6e9ef" stroke-width="0.2"/><circle cx="-5.080" cy="43.180" r="0.4" fill="#4ea1ff"/><text x="0.500" y="43.530" fill="#e6e9ef" font-size="1.1" text-anchor="start" font-family="sans-serif">AIN</text><text x="-0.300" y="42.830" fill="#9aa3b2" font-size="0.9" text-anchor="end" font-family="sans-serif">47</text><line x1="30.480" y1="2.540" x2="25.400" y2="2.540" stroke="#e6e9ef" stroke-width="0.2"/><circle cx="30.480" cy="2.540" r="0.4" fill="#4ea1ff"/><text x="24.900" y="2.890" fill="#e6e9ef" font-size="1.1" text-anchor="end" font-family="sans-serif">VOUT-0</text><text x="25.700" y="2.190" fill="#9aa3b2" font-size="0.9" text-anchor="start" font-family="sans-serif">15</text><line x1="30.480" y1="5.080" x2="25.400" y2="5.080" stroke="#e6e9ef" stroke-width="0.2"/><circle cx="30.480" cy="5.080" r="0.4" fill="#4ea1ff"/><text x="24.900" y="5.430" fill="#e6e9ef" font-size="1.1" text-anchor="end" font-family="sans-serif">RFB1-0</text><text x="25.700" y="4.730" fill="#9aa3b2" font-size="0.9" text-anchor="start" font-family="sans-serif">17</text><line x1="30.480" y1="7.620" x2="25.400" y2="7.620" stroke="#e6e9ef" stroke-width="0.2"/><circle cx="30.480" cy="7.620" r="0.4" fill="#4ea1ff"/><text x="24.900" y="7.970" fill="#e6e9ef" font-size="1.1" text-anchor="end" font-family="sans-serif">RFB2-0</text><text x="25.700" y="7.270" fill="#9aa3b2" font-size="0.9" text-anchor="start" font-family="sans-serif">16</text><line x1="30.480" y1="12.700" x2="25.400" y2="12.700" stroke="#e6e9ef" stroke-width="0.2"/><circle cx="30.480" cy="12.700" r="0.4" fill="#4ea1ff"/><text x="24.900" y="13.050" fill="#e6e9ef" font-size="1.1" text-anchor="end" font-family="sans-serif">VOUT-1</text><text x="25.700" y="12.350" fill="#9aa3b2" font-size="0.9" text-anchor="start" font-family="sans-serif">23</text><line x1="30.480" y1="15.240" x2="25.400" y2="15.240" stroke="#e6e9ef" stroke-width="0.2"/><circle cx="30.480" cy="15.240" r="0.4" fill="#4ea1ff"/><text x="24.900" y="15.590" fill="#e6e9ef" font-size="1.1" text-anchor="end" font-family="sans-serif">RFB1-1</text><text x="25.700" y="14.890" fill="#9aa3b2" font-size="0.9" text-anchor="start" font-family="sans-serif">21</text><line x1="30.480" y1="17.780" x2="25.400" y2="17.780" stroke="#e6e9ef" stroke-width="0.2"/><circle cx="30.480" cy="17.780" r="0.4" fill="#4ea1ff"/><text x="24.900" y="18.130" fill="#e6e9ef" font-size="1.1" text-anchor="end" font-family="sans-serif">RFB2-1</text><text x="25.700" y="17.430" fill="#9aa3b2" font-size="0.9" text-anchor="start" font-family="sans-serif">22</text><line x1="30.480" y1="22.860" x2="25.400" y2="22.860" stroke="#e6e9ef" stroke-width="0.2"/><circle cx="30.480" cy="22.860" r="0.4" fill="#4ea1ff"/><text x="24.900" y="23.210" fill="#e6e9ef" font-size="1.1" text-anchor="end" font-family="sans-serif">VOUT-2</text><text x="25.700" y="22.510" fill="#9aa3b2" font-size="0.9" text-anchor="start" font-family="sans-serif">46</text><line x1="30.480" y1="25.400" x2="25.400" y2="25.400" stroke="#e6e9ef" stroke-width="0.2"/><circle cx="30.480" cy="25.400" r="0.4" fill="#4ea1ff"/><text x="24.900" y="25.750" fill="#e6e9ef" font-size="1.1" text-anchor="end" font-family="sans-serif">RFB1-2</text><text x="25.700" y="25.050" fill="#9aa3b2" font-size="0.9" text-anchor="start" font-family="sans-serif">44</text><line x1="30.480" y1="27.940" x2="25.400" y2="27.940" stroke="#e6e9ef" stroke-width="0.2"/><circle cx="30.480" cy="27.940" r="0.4" fill="#4ea1ff"/><text x="24.900" y="28.290" fill="#e6e9ef" font-size="1.1" text-anchor="end" font-family="sans-serif">RFB2-2</text><text x="25.700" y="27.590" fill="#9aa3b2" font-size="0.9" text-anchor="start" font-family="sans-serif">45</text><line x1="30.480" y1="33.020" x2="25.400" y2="33.020" stroke="#e6e9ef" stroke-width="0.2"/><circle cx="30.480" cy="33.020" r="0.4" fill="#4ea1ff"/><text x="24.900" y="33.370" fill="#e6e9ef" font-size="1.1" text-anchor="end" font-family="sans-serif">VOUT-3</text><text x="25.700" y="32.670" fill="#9aa3b2" font-size="0.9" text-anchor="start" font-family="sans-serif">38</text><line x1="30.480" y1="35.560" x2="25.400" y2="35.560" stroke="#e6e9ef" stroke-width="0.2"/><circle cx="30.480" cy="35.560" r="0.4" fill="#4ea1ff"/><text x="24.900" y="35.910" fill="#e6e9ef" font-size="1.1" text-anchor="end" font-family="sans-serif">RFB1-3</text><text x="25.700" y="35.210" fill="#9aa3b2" font-size="0.9" text-anchor="start" font-family="sans-serif">40</text><line x1="30.480" y1="38.100" x2="25.400" y2="38.100" stroke="#e6e9ef" stroke-width="0.2"/><circle cx="30.480" cy="38.100" r="0.4" fill="#4ea1ff"/><text x="24.900" y="38.450" fill="#e6e9ef" font-size="1.1" text-anchor="end" font-family="sans-serif">RFB2-3</text><text x="25.700" y="37.750" fill="#9aa3b2" font-size="0.9" text-anchor="start" font-family="sans-serif">39</text><line x1="30.480" y1="43.180" x2="25.400" y2="43.180" stroke="#e6e9ef" stroke-width="0.2"/><circle cx="30.480" cy="43.180" r="0.4" fill="#4ea1ff"/><text x="24.900" y="43.530" fill="#e6e9ef" font-size="1.1" text-anchor="end" font-family="sans-serif">VMON</text><text x="25.700" y="42.830" fill="#9aa3b2" font-size="0.9" text-anchor="start" font-family="sans-serif">34</text><line x1="30.480" y1="48.260" x2="25.400" y2="48.260" stroke="#e6e9ef" stroke-width="0.2"/><circle cx="30.480" cy="48.260" r="0.4" fill="#4ea1ff"/><text x="24.900" y="48.610" fill="#e6e9ef" font-size="1.1" text-anchor="end" font-family="sans-serif">REF-A</text><text x="25.700" y="47.910" fill="#9aa3b2" font-size="0.9" text-anchor="start" font-family="sans-serif">30</text><line x1="30.480" y1="50.800" x2="25.400" y2="50.800" stroke="#e6e9ef" stroke-width="0.2"/><circle cx="30.480" cy="50.800" r="0.4" fill="#4ea1ff"/><text x="24.900" y="51.150" fill="#e6e9ef" font-size="1.1" text-anchor="end" font-family="sans-serif">REF-B</text><text x="25.700" y="50.450" fill="#9aa3b2" font-size="0.9" text-anchor="start" font-family="sans-serif">31</text><text x="12.70" y="-2.00" fill="#9aa3b2" font-size="1.6" text-anchor="middle" font-family="sans-serif">A</text></g><g transform="translate(46.64 0)"><rect x="0.000" y="-0.000" width="20.320" height="30.480" fill="#1e222b" stroke="#4ea1ff" stroke-width="0.25"/><line x1="-5.080" y1="2.540" x2="0.000" y2="2.540" stroke="#e6e9ef" stroke-width="0.2"/><circle cx="-5.080" cy="2.540" r="0.4" fill="#4ea1ff"/><text x="0.500" y="2.890" fill="#e6e9ef" font-size="1.1" text-anchor="start" font-family="sans-serif">AVDD</text><text x="-0.300" y="2.190" fill="#9aa3b2" font-size="0.9" text-anchor="end" font-family="sans-serif">26</text><line x1="-5.080" y1="5.080" x2="0.000" y2="5.080" stroke="#e6e9ef" stroke-width="0.2"/><circle cx="-5.080" cy="5.080" r="0.4" fill="#4ea1ff"/><text x="0.500" y="5.430" fill="#e6e9ef" font-size="1.1" text-anchor="start" font-family="sans-serif">AVDD</text><text x="-0.300" y="4.730" fill="#9aa3b2" font-size="0.9" text-anchor="end" font-family="sans-serif">35</text><line x1="-5.080" y1="15.240" x2="0.000" y2="15.240" stroke="#e6e9ef" stroke-width="0.2"/><circle cx="-5.080" cy="15.240" r="0.4" fill="#4ea1ff"/><text x="0.500" y="15.590" fill="#e6e9ef" font-size="1.1" text-anchor="start" font-family="sans-serif">IOVDD</text><text x="-0.300" y="14.890" fill="#9aa3b2" font-size="0.9" text-anchor="end" font-family="sans-serif">13</text><line x1="-5.080" y1="27.940" x2="0.000" y2="27.940" stroke="#e6e9ef" stroke-width="0.2"/><circle cx="-5.080" cy="27.940" r="0.4" fill="#4ea1ff"/><text x="0.500" y="28.290" fill="#e6e9ef" font-size="1.1" text-anchor="start" font-family="sans-serif">DVDD</text><text x="-0.300" y="27.590" fill="#9aa3b2" font-size="0.9" text-anchor="end" font-family="sans-serif">14</text><line x1="25.400" y1="2.540" x2="20.320" y2="2.540" stroke="#e6e9ef" stroke-width="0.2"/><circle cx="25.400" cy="2.540" r="0.4" fill="#4ea1ff"/><text x="19.820" y="2.890" fill="#e6e9ef" font-size="1.1" text-anchor="end" font-family="sans-serif">AVSS</text><text x="20.620" y="2.190" fill="#9aa3b2" font-size="0.9" text-anchor="start" font-family="sans-serif">28</text><line x1="25.400" y1="5.080" x2="20.320" y2="5.080" stroke="#e6e9ef" stroke-width="0.2"/><circle cx="25.400" cy="5.080" r="0.4" fill="#4ea1ff"/><text x="19.820" y="5.430" fill="#e6e9ef" font-size="1.1" text-anchor="end" font-family="sans-serif">AVSS</text><text x="20.620" y="4.730" fill="#9aa3b2" font-size="0.9" text-anchor="start" font-family="sans-serif">33</text><line x1="25.400" y1="10.160" x2="20.320" y2="10.160" stroke="#e6e9ef" stroke-width="0.2"/><circle cx="25.400" cy="10.160" r="0.4" fill="#4ea1ff"/><text x="19.820" y="10.510" fill="#e6e9ef" font-size="1.1" text-anchor="end" font-family="sans-serif">REFGND-A</text><text x="20.620" y="9.810" fill="#9aa3b2" font-size="0.9" text-anchor="start" font-family="sans-serif">29</text><line x1="25.400" y1="12.700" x2="20.320" y2="12.700" stroke="#e6e9ef" stroke-width="0.2"/><circle cx="25.400" cy="12.700" r="0.4" fill="#4ea1ff"/><text x="19.820" y="13.050" fill="#e6e9ef" font-size="1.1" text-anchor="end" font-family="sans-serif">REFGND-B</text><text x="20.620" y="12.350" fill="#9aa3b2" font-size="0.9" text-anchor="start" font-family="sans-serif">32</text><line x1="25.400" y1="15.240" x2="20.320" y2="15.240" stroke="#e6e9ef" stroke-width="0.2"/><circle cx="25.400" cy="15.240" r="0.4" fill="#4ea1ff"/><text x="19.820" y="15.590" fill="#e6e9ef" font-size="1.1" text-anchor="end" font-family="sans-serif">SGND-0</text><text x="20.620" y="14.890" fill="#9aa3b2" font-size="0.9" text-anchor="start" font-family="sans-serif">18</text><line x1="25.400" y1="17.780" x2="20.320" y2="17.780" stroke="#e6e9ef" stroke-width="0.2"/><circle cx="25.400" cy="17.780" r="0.4" fill="#4ea1ff"/><text x="19.820" y="18.130" fill="#e6e9ef" font-size="1.1" text-anchor="end" font-family="sans-serif">SGND-1</text><text x="20.620" y="17.430" fill="#9aa3b2" font-size="0.9" text-anchor="start" font-family="sans-serif">20</text><line x1="25.400" y1="20.320" x2="20.320" y2="20.320" stroke="#e6e9ef" stroke-width="0.2"/><circle cx="25.400" cy="20.320" r="0.4" fill="#4ea1ff"/><text x="19.820" y="20.670" fill="#e6e9ef" font-size="1.1" text-anchor="end" font-family="sans-serif">SGND-2</text><text x="20.620" y="19.970" fill="#9aa3b2" font-size="0.9" text-anchor="start" font-family="sans-serif">43</text><line x1="25.400" y1="22.860" x2="20.320" y2="22.860" stroke="#e6e9ef" stroke-width="0.2"/><circle cx="25.400" cy="22.860" r="0.4" fill="#4ea1ff"/><text x="19.820" y="23.210" fill="#e6e9ef" font-size="1.1" text-anchor="end" font-family="sans-serif">SGND-3</text><text x="20.620" y="22.510" fill="#9aa3b2" font-size="0.9" text-anchor="start" font-family="sans-serif">41</text><line x1="25.400" y1="25.400" x2="20.320" y2="25.400" stroke="#e6e9ef" stroke-width="0.2"/><circle cx="25.400" cy="25.400" r="0.4" fill="#4ea1ff"/><text x="19.820" y="25.750" fill="#e6e9ef" font-size="1.1" text-anchor="end" font-family="sans-serif">AGND</text><text x="20.620" y="25.050" fill="#9aa3b2" font-size="0.9" text-anchor="start" font-family="sans-serif">27</text><line x1="25.400" y1="27.940" x2="20.320" y2="27.940" stroke="#e6e9ef" stroke-width="0.2"/><circle cx="25.400" cy="27.940" r="0.4" fill="#4ea1ff"/><text x="19.820" y="28.290" fill="#e6e9ef" font-size="1.1" text-anchor="end" font-family="sans-serif">DGND</text><text x="20.620" y="27.590" fill="#9aa3b2" font-size="0.9" text-anchor="start" font-family="sans-serif">11</text><text x="10.16" y="-2.00" fill="#9aa3b2" font-size="1.6" text-anchor="middle" font-family="sans-serif">B</text></g><g transform="translate(83.12 0)"><rect x="0.000" y="-0.000" width="15.240" height="12.700" fill="#1e222b" stroke="#4ea1ff" stroke-width="0.25"/><line x1="-5.080" y1="2.540" x2="0.000" y2="2.540" stroke="#e6e9ef" stroke-width="0.2"/><circle cx="-5.080" cy="2.540" r="0.4" fill="#4ea1ff"/><text x="0.500" y="2.890" fill="#e6e9ef" font-size="1.1" text-anchor="start" font-family="sans-serif">NC</text><text x="-0.300" y="2.190" fill="#9aa3b2" font-size="0.9" text-anchor="end" font-family="sans-serif">1</text><line x1="-5.080" y1="5.080" x2="0.000" y2="5.080" stroke="#e6e9ef" stroke-width="0.2"/><circle cx="-5.080" cy="5.080" r="0.4" fill="#4ea1ff"/><text x="0.500" y="5.430" fill="#e6e9ef" font-size="1.1" text-anchor="start" font-family="sans-serif">NC</text><text x="-0.300" y="4.730" fill="#9aa3b2" font-size="0.9" text-anchor="end" font-family="sans-serif">12</text><line x1="-5.080" y1="7.620" x2="0.000" y2="7.620" stroke="#e6e9ef" stroke-width="0.2"/><circle cx="-5.080" cy="7.620" r="0.4" fill="#4ea1ff"/><text x="0.500" y="7.970" fill="#e6e9ef" font-size="1.1" text-anchor="start" font-family="sans-serif">NC</text><text x="-0.300" y="7.270" fill="#9aa3b2" font-size="0.9" text-anchor="end" font-family="sans-serif">19</text><line x1="-5.080" y1="10.160" x2="0.000" y2="10.160" stroke="#e6e9ef" stroke-width="0.2"/><circle cx="-5.080" cy="10.160" r="0.4" fill="#4ea1ff"/><text x="0.500" y="10.510" fill="#e6e9ef" font-size="1.1" text-anchor="start" font-family="sans-serif">NC</text><text x="-0.300" y="9.810" fill="#9aa3b2" font-size="0.9" text-anchor="end" font-family="sans-serif">24</text><line x1="20.320" y1="2.540" x2="15.240" y2="2.540" stroke="#e6e9ef" stroke-width="0.2"/><circle cx="20.320" cy="2.540" r="0.4" fill="#4ea1ff"/><text x="14.740" y="2.890" fill="#e6e9ef" font-size="1.1" text-anchor="end" font-family="sans-serif">NC</text><text x="15.540" y="2.190" fill="#9aa3b2" font-size="0.9" text-anchor="start" font-family="sans-serif">25</text><line x1="20.320" y1="5.080" x2="15.240" y2="5.080" stroke="#e6e9ef" stroke-width="0.2"/><circle cx="20.320" cy="5.080" r="0.4" fill="#4ea1ff"/><text x="14.740" y="5.430" fill="#e6e9ef" font-size="1.1" text-anchor="end" font-family="sans-serif">NC</text><text x="15.540" y="4.730" fill="#9aa3b2" font-size="0.9" text-anchor="start" font-family="sans-serif">36</text><line x1="20.320" y1="7.620" x2="15.240" y2="7.620" stroke="#e6e9ef" stroke-width="0.2"/><circle cx="20.320" cy="7.620" r="0.4" fill="#4ea1ff"/><text x="14.740" y="7.970" fill="#e6e9ef" font-size="1.1" text-anchor="end" font-family="sans-serif">NC</text><text x="15.540" y="7.270" fill="#9aa3b2" font-size="0.9" text-anchor="start" font-family="sans-serif">37</text><line x1="20.320" y1="10.160" x2="15.240" y2="10.160" stroke="#e6e9ef" stroke-width="0.2"/><circle cx="20.320" cy="10.160" r="0.4" fill="#4ea1ff"/><text x="14.740" y="10.510" fill="#e6e9ef" font-size="1.1" text-anchor="end" font-family="sans-serif">NC</text><text x="15.540" y="9.810" fill="#9aa3b2" font-size="0.9" text-anchor="start" font-family="sans-serif">42</text><text x="7.62" y="-2.00" fill="#9aa3b2" font-size="1.6" text-anchor="middle" font-family="sans-serif">C</text></g></svg>