<svg xmlns="http://www.w3.org/2000/svg" viewBox="-31.25 -5.00 62.50 10.79" preserveAspectRatio="xMidYMid meet" style="width:100%;height:100%"><rect x="-31.25" y="-5.00" width="62.50" height="10.79" fill="#12151c"/><circle cx="-27.603" cy="4.540" r="0.125" fill="none" stroke="#e6e9ef" stroke-width="0.12" opacity="1"/><circle cx="-27.605" cy="4.540" r="0.250" fill="none" stroke="#6b7280" stroke-width="0.12" opacity="0.8"/><circle cx="-30.000" cy="-2.657" r="0.250" fill="none" stroke="#6b7280" stroke-width="0.1"/><circle cx="30.000" cy="-2.657" r="0.250" fill="none" stroke="#6b7280" stroke-width="0.1"/><rect x="-27.826" y="1.729" width="0.406" height="2.273" rx="0.000" fill="#c79b5c"/><rect x="-27.826" y="-4.002" width="0.406" height="2.273" rx="0.000" fill="#c79b5c"/><rect x="-27.191" y="1.729" width="0.406" height="2.273" rx="0.000" fill="#c79b5c"/><rect x="-27.191" y="-4.002" width="0.406" height="2.273" rx="0.000" fill="#c79b5c"/><rect x="-25.921" y="1.729" width="0.406" height="2.273" rx="0.000" fill="#c79b5c"/><rect x="-25.921" y="-4.002" width="0.406" height="2.273" rx="0.000" fill="#c79b5c"/><rect x="-25.286" y="1.729" width="0.406" height="2.273" rx="0.000" fill="#c79b5c"/><rect x="-25.286" y="-4.002" width="0.406" height="2.273" rx="0.000" fill="#c79b5c"/><rect x="-24.016" y="1.729" width="0.406" height="2.273" rx="0.000" fill="#c79b5c"/><rect x="-24.016" y="-4.002" width="0.406" height="2.273" rx="0.000" fill="#c79b5c"/><rect x="-23.381" y="1.729" width="0.406" height="2.273" rx="0.000" fill="#c79b5c"/><rect x="-23.381" y="-4.002" width="0.406" height="2.273" rx="0.000" fill="#c79b5c"/><rect x="-22.111" y="1.729" width="0.406" height="2.273" rx="0.000" fill="#c79b5c"/><rect x="-22.111" y="-4.002" width="0.406" height="2.273" rx="0.000" fill="#c79b5c"/><rect x="-21.476" y="1.729" width="0.406" height="2.273" rx="0.000" fill="#c79b5c"/><rect x="-21.476" y="-4.002" width="0.406" height="2.273" rx="0.000" fill="#c79b5c"/><rect x="-20.206" y="1.729" width="0.406" height="2.273" rx="0.000" fill="#c79b5c"/><rect x="-20.206" y="-4.002" width="0.406" height="2.273" rx="0.000" fill="#c79b5c"/><rect x="-19.571" y="1.729" width="0.406" height="2.273" rx="0.000" fill="#c79b5c"/><rect x="-19.571" y="-4.002" width="0.406" height="2.273" rx="0.000" fill="#c79b5c"/><rect x="-18.301" y="1.729" width="0.406" height="2.273" rx="0.000" fill="#c79b5c"/><rect x="-18.301" y="-4.002" width="0.406" height="2.273" rx="0.000" fill="#c79b5c"/><rect x="-17.666" y="1.729" width="0.406" height="2.273" rx="0.000" fill="#c79b5c"/><rect x="-17.666" y="-4.002" width="0.406" height="2.273" rx="0.000" fill="#c79b5c"/><rect x="-16.396" y="1.729" width="0.406" height="2.273" rx="0.000" fill="#c79b5c"/><rect x="-16.396" y="-4.002" width="0.406" height="2.273" rx="0.000" fill="#c79b5c"/><rect x="-15.761" y="1.729" width="0.406" height="2.273" rx="0.000" fill="#c79b5c"/><rect x="-15.761" y="-4.002" width="0.406" height="2.273" rx="0.000" fill="#c79b5c"/><rect x="-14.491" y="1.729" width="0.406" height="2.273" rx="0.000" fill="#c79b5c"/><rect x="-14.491" y="-4.002" width="0.406" height="2.273" rx="0.000" fill="#c79b5c"/><rect x="-13.856" y="1.729" width="0.406" height="2.273" rx="0.000" fill="#c79b5c"/><rect x="-13.856" y="-4.002" width="0.406" height="2.273" rx="0.000" fill="#c79b5c"/><rect x="-7.823" y="1.729" width="0.406" height="2.273" rx="0.000" fill="#c79b5c"/><rect x="-7.823" y="-4.002" width="0.406" height="2.273" rx="0.000" fill="#c79b5c"/><rect x="-7.188" y="1.729" width="0.406" height="2.273" rx="0.000" fill="#c79b5c"/><rect x="-7.188" y="-4.002" width="0.406" height="2.273" rx="0.000" fill="#c79b5c"/><rect x="-5.918" y="1.729" width="0.406" height="2.273" rx="0.000" fill="#c79b5c"/><rect x="-5.918" y="-4.002" width="0.406" height="2.273" rx="0.000" fill="#c79b5c"/><rect x="-5.283" y="1.729" width="0.406" height="2.273" rx="0.000" fill="#c79b5c"/><rect x="-5.283" y="-4.002" width="0.406" height="2.273" rx="0.000" fill="#c79b5c"/><rect x="-4.013" y="1.729" width="0.406" height="2.273" rx="0.000" fill="#c79b5c"/><rect x="-4.013" y="-4.002" width="0.406" height="2.273" rx="0.000" fill="#c79b5c"/><rect x="-3.378" y="1.729" width="0.406" height="2.273" rx="0.000" fill="#c79b5c"/><rect x="-3.378" y="-4.002" width="0.406" height="2.273" rx="0.000" fill="#c79b5c"/><rect x="-2.108" y="1.729" width="0.406" height="2.273" rx="0.000" fill="#c79b5c"/><rect x="-2.108" y="-4.002" width="0.406" height="2.273" rx="0.000" fill="#c79b5c"/><rect x="-1.473" y="1.729" width="0.406" height="2.273" rx="0.000" fill="#c79b5c"/><rect x="-1.473" y="-4.002" width="0.406" height="2.273" rx="0.000" fill="#c79b5c"/><rect x="-0.203" y="1.729" width="0.406" height="2.273" rx="0.000" fill="#c79b5c"/><rect x="-0.203" y="-4.002" width="0.406" height="2.273" rx="0.000" fill="#c79b5c"/><rect x="0.432" y="1.729" width="0.406" height="2.273" rx="0.000" fill="#c79b5c"/><rect x="0.432" y="-4.002" width="0.406" height="2.273" rx="0.000" fill="#c79b5c"/><rect x="1.702" y="1.729" width="0.406" height="2.273" rx="0.000" fill="#c79b5c"/><rect x="1.702" y="-4.002" width="0.406" height="2.273" rx="0.000" fill="#c79b5c"/><rect x="2.337" y="1.729" width="0.406" height="2.273" rx="0.000" fill="#c79b5c"/><rect x="2.337" y="-4.002" width="0.406" height="2.273" rx="0.000" fill="#c79b5c"/><rect x="3.607" y="1.729" width="0.406" height="2.273" rx="0.000" fill="#c79b5c"/><rect x="3.607" y="-4.002" width="0.406" height="2.273" rx="0.000" fill="#c79b5c"/><rect x="4.242" y="1.729" width="0.406" height="2.273" rx="0.000" fill="#c79b5c"/><rect x="4.242" y="-4.002" width="0.406" height="2.273" rx="0.000" fill="#c79b5c"/><rect x="5.512" y="1.729" width="0.406" height="2.273" rx="0.000" fill="#c79b5c"/><rect x="5.512" y="-4.002" width="0.406" height="2.273" rx="0.000" fill="#c79b5c"/><rect x="6.147" y="1.729" width="0.406" height="2.273" rx="0.000" fill="#c79b5c"/><rect x="6.147" y="-4.002" width="0.406" height="2.273" rx="0.000" fill="#c79b5c"/><rect x="12.180" y="1.729" width="0.406" height="2.273" rx="0.000" fill="#c79b5c"/><rect x="12.180" y="-4.002" width="0.406" height="2.273" rx="0.000" fill="#c79b5c"/><rect x="12.815" y="1.729" width="0.406" height="2.273" rx="0.000" fill="#c79b5c"/><rect x="12.815" y="-4.002" width="0.406" height="2.273" rx="0.000" fill="#c79b5c"/><rect x="14.085" y="1.729" width="0.406" height="2.273" rx="0.000" fill="#c79b5c"/><rect x="14.085" y="-4.002" width="0.406" height="2.273" rx="0.000" fill="#c79b5c"/><rect x="14.720" y="1.729" width="0.406" height="2.273" rx="0.000" fill="#c79b5c"/><rect x="14.720" y="-4.002" width="0.406" height="2.273" rx="0.000" fill="#c79b5c"/><rect x="15.990" y="1.729" width="0.406" height="2.273" rx="0.000" fill="#c79b5c"/><rect x="15.990" y="-4.002" width="0.406" height="2.273" rx="0.000" fill="#c79b5c"/><rect x="16.625" y="1.729" width="0.406" height="2.273" rx="0.000" fill="#c79b5c"/><rect x="16.625" y="-4.002" width="0.406" height="2.273" rx="0.000" fill="#c79b5c"/><rect x="17.895" y="1.729" width="0.406" height="2.273" rx="0.000" fill="#c79b5c"/><rect x="17.895" y="-4.002" width="0.406" height="2.273" rx="0.000" fill="#c79b5c"/><rect x="18.530" y="1.729" width="0.406" height="2.273" rx="0.000" fill="#c79b5c"/><rect x="18.530" y="-4.002" width="0.406" height="2.273" rx="0.000" fill="#c79b5c"/><rect x="19.800" y="1.729" width="0.406" height="2.273" rx="0.000" fill="#c79b5c"/><rect x="19.800" y="-4.002" width="0.406" height="2.273" rx="0.000" fill="#c79b5c"/><rect x="20.435" y="1.729" width="0.406" height="2.273" rx="0.000" fill="#c79b5c"/><rect x="20.435" y="-4.002" width="0.406" height="2.273" rx="0.000" fill="#c79b5c"/><rect x="21.705" y="1.729" width="0.406" height="2.273" rx="0.000" fill="#c79b5c"/><rect x="21.705" y="-4.002" width="0.406" height="2.273" rx="0.000" fill="#c79b5c"/><rect x="22.340" y="1.729" width="0.406" height="2.273" rx="0.000" fill="#c79b5c"/><rect x="22.340" y="-4.002" width="0.406" height="2.273" rx="0.000" fill="#c79b5c"/><rect x="23.610" y="1.729" width="0.406" height="2.273" rx="0.000" fill="#c79b5c"/><rect x="23.610" y="-4.002" width="0.406" height="2.273" rx="0.000" fill="#c79b5c"/><rect x="24.245" y="1.729" width="0.406" height="2.273" rx="0.000" fill="#c79b5c"/><rect x="24.245" y="-4.002" width="0.406" height="2.273" rx="0.000" fill="#c79b5c"/><rect x="25.515" y="1.729" width="0.406" height="2.273" rx="0.000" fill="#c79b5c"/><rect x="25.515" y="-4.002" width="0.406" height="2.273" rx="0.000" fill="#c79b5c"/><rect x="26.150" y="1.729" width="0.406" height="2.273" rx="0.000" fill="#c79b5c"/><rect x="26.150" y="-4.002" width="0.406" height="2.273" rx="0.000" fill="#c79b5c"/><rect x="-29.464" y="-0.216" width="2.794" height="0.432" rx="0.000" fill="#c79b5c"/><rect x="-25.527" y="-0.216" width="4.699" height="0.432" rx="0.000" fill="#c79b5c"/><rect x="-19.175" y="-0.216" width="4.699" height="0.432" rx="0.000" fill="#c79b5c"/><rect x="-13.335" y="-0.216" width="2.794" height="0.432" rx="0.000" fill="#c79b5c"/><rect x="-9.462" y="-0.216" width="2.794" height="0.432" rx="0.000" fill="#c79b5c"/><rect x="-5.524" y="-0.216" width="4.699" height="0.432" rx="0.000" fill="#c79b5c"/><rect x="0.825" y="-0.216" width="4.699" height="0.432" rx="0.000" fill="#c79b5c"/><rect x="6.668" y="-0.216" width="2.794" height="0.432" rx="0.000" fill="#c79b5c"/><rect x="10.541" y="-0.216" width="2.794" height="0.432" rx="0.000" fill="#c79b5c"/><rect x="14.478" y="-0.216" width="4.699" height="0.432" rx="0.000" fill="#c79b5c"/><rect x="20.828" y="-0.216" width="4.699" height="0.432" rx="0.000" fill="#c79b5c"/><rect x="26.670" y="-0.216" width="2.794" height="0.432" rx="0.000" fill="#c79b5c"/></svg>