<svg xmlns="http://www.w3.org/2000/svg" viewBox="-3.55 -2.85 6.25 5.70" preserveAspectRatio="xMidYMid meet" style="width:100%;height:100%"><rect x="-3.55" y="-2.85" width="6.25" height="5.70" fill="#12151c"/><path d="M -1.700 -0.200 A 0.200 0.200 0 0 1 -1.700 0.200" fill="none" stroke="#6b7280" stroke-width="0.12" opacity="0.8"/><path d="M -0.200 1.850 A 0.200 0.200 0 0 1 0.200 1.850" fill="none" stroke="#6b7280" stroke-width="0.12" opacity="0.8"/><path d="M 0.200 -1.850 A 0.200 0.200 0 0 1 -0.200 -1.850" fill="none" stroke="#6b7280" stroke-width="0.12" opacity="0.8"/><path d="M 1.700 0.200 A 0.200 0.200 0 0 1 1.700 -0.200" fill="none" stroke="#6b7280" stroke-width="0.12" opacity="0.8"/><circle cx="-2.350" cy="-1.200" r="0.150" fill="none" stroke="#e6e9ef" stroke-width="0.12" opacity="1"/><circle cx="-2.350" cy="-1.200" r="0.200" fill="none" stroke="#6b7280" stroke-width="0.12" opacity="0.8"/><rect x="-1.400" y="-1.550" width="0.700" height="0.800" rx="0.000" fill="#c79b5c"/><rect x="-1.400" y="-0.350" width="0.700" height="0.700" rx="0.000" fill="#c79b5c"/><rect x="-1.400" y="0.750" width="0.700" height="0.800" rx="0.000" fill="#c79b5c"/><rect x="-0.300" y="0.750" width="0.600" height="0.800" rx="0.000" fill="#c79b5c"/><rect x="0.700" y="0.750" width="0.700" height="0.800" rx="0.000" fill="#c79b5c"/><rect x="0.700" y="-0.350" width="0.700" height="0.700" rx="0.000" fill="#c79b5c"/><rect x="0.700" y="-1.550" width="0.700" height="0.800" rx="0.000" fill="#c79b5c"/><rect x="-0.300" y="-1.550" width="0.600" height="0.800" rx="0.000" fill="#c79b5c"/><rect x="-0.300" y="-0.350" width="0.600" height="0.700" rx="0.000" fill="#c79b5c"/></svg>