<svg xmlns="http://www.w3.org/2000/svg" viewBox="-6.33 -2.49 12.66 5.54" preserveAspectRatio="xMidYMid meet" style="width:100%;height:100%"><rect x="-6.33" y="-2.49" width="12.66" height="5.54" fill="#12151c"/><line x1="-5.330" y1="-1.490" x2="5.330" y2="-1.490" stroke="#d24d4d" stroke-width="0.080" stroke-linecap="round" opacity="0.7"/><line x1="5.330" y1="-1.490" x2="5.330" y2="1.490" stroke="#d24d4d" stroke-width="0.080" stroke-linecap="round" opacity="0.7"/><line x1="5.330" y1="1.490" x2="-5.330" y2="1.490" stroke="#d24d4d" stroke-width="0.080" stroke-linecap="round" opacity="0.7"/><line x1="-5.330" y1="1.490" x2="-5.330" y2="-1.490" stroke="#d24d4d" stroke-width="0.080" stroke-linecap="round" opacity="0.7"/><circle cx="-3.810" cy="1.905" r="0.150" fill="none" stroke="#e6e9ef" stroke-width="0.12" opacity="1"/><circle cx="-3.810" cy="1.905" r="0.150" fill="none" stroke="#6b7280" stroke-width="0.12" opacity="0.8"/><rect x="-4.660" y="-0.850" width="1.700" height="1.700" rx="0.850" fill="#c79b5c"/><circle cx="-3.810" cy="0.000" r="0.500" fill="#12151c"/><rect x="-2.120" y="-0.850" width="1.700" height="1.700" rx="0.850" fill="#c79b5c"/><circle cx="-1.270" cy="0.000" r="0.500" fill="#12151c"/><rect x="0.420" y="-0.850" width="1.700" height="1.700" rx="0.850" fill="#c79b5c"/><circle cx="1.270" cy="0.000" r="0.500" fill="#12151c"/><rect x="2.960" y="-0.850" width="1.700" height="1.700" rx="0.850" fill="#c79b5c"/><circle cx="3.810" cy="0.000" r="0.500" fill="#12151c"/><polygon points="-4.26,1.90 -3.36,1.90 -3.81,1.30" fill="#ffffff"/></svg>