<svg xmlns="http://www.w3.org/2000/svg" viewBox="-10.78 -25.19 43.71 48.30" preserveAspectRatio="xMidYMid meet" style="width:100%;height:100%"><rect x="-10.78" y="-25.19" width="43.71" height="48.30" fill="#12151c"/><line x1="-9.780" y1="-24.190" x2="31.930" y2="-24.190" stroke="#d24d4d" stroke-width="0.080" stroke-linecap="round" opacity="0.7"/><line x1="31.930" y1="-24.190" x2="31.930" y2="22.110" stroke="#d24d4d" stroke-width="0.080" stroke-linecap="round" opacity="0.7"/><line x1="31.930" y1="22.110" x2="-9.780" y2="22.110" stroke="#d24d4d" stroke-width="0.080" stroke-linecap="round" opacity="0.7"/><line x1="-9.780" y1="22.110" x2="-9.780" y2="-24.190" stroke="#d24d4d" stroke-width="0.080" stroke-linecap="round" opacity="0.7"/><rect x="-6.945" y="-22.888" width="1.700" height="1.700" rx="0.850" fill="#c79b5c"/><circle cx="-6.095" cy="-22.038" r="0.500" fill="#12151c"/><rect x="-4.245" y="-22.888" width="1.700" height="1.700" rx="0.850" fill="#c79b5c"/><circle cx="-3.395" cy="-22.038" r="0.500" fill="#12151c"/><rect x="3.555" y="-22.888" width="1.700" height="1.700" rx="0.850" fill="#c79b5c"/><circle cx="4.405" cy="-22.038" r="0.500" fill="#12151c"/><rect x="6.255" y="-22.888" width="1.700" height="1.700" rx="0.850" fill="#c79b5c"/><circle cx="7.105" cy="-22.038" r="0.500" fill="#12151c"/><rect x="-6.945" y="-20.188" width="1.700" height="1.700" rx="0.850" fill="#c79b5c"/><circle cx="-6.095" cy="-19.337" r="0.500" fill="#12151c"/><rect x="-4.245" y="-20.188" width="1.700" height="1.700" rx="0.850" fill="#c79b5c"/><circle cx="-3.395" cy="-19.337" r="0.500" fill="#12151c"/><rect x="3.555" y="-20.188" width="1.700" height="1.700" rx="0.850" fill="#c79b5c"/><circle cx="4.405" cy="-19.337" r="0.500" fill="#12151c"/><rect x="6.255" y="-20.188" width="1.700" height="1.700" rx="0.850" fill="#c79b5c"/><circle cx="7.105" cy="-19.337" r="0.500" fill="#12151c"/><rect x="-6.945" y="-17.488" width="1.700" height="1.700" rx="0.850" fill="#c79b5c"/><circle cx="-6.095" cy="-16.637" r="0.500" fill="#12151c"/><rect x="-4.245" y="-17.488" width="1.700" height="1.700" rx="0.850" fill="#c79b5c"/><circle cx="-3.395" cy="-16.637" r="0.500" fill="#12151c"/><rect x="3.555" y="-17.488" width="1.700" height="1.700" rx="0.850" fill="#c79b5c"/><circle cx="4.405" cy="-16.637" r="0.500" fill="#12151c"/><rect x="6.255" y="-17.488" width="1.700" height="1.700" rx="0.850" fill="#c79b5c"/><circle cx="7.105" cy="-16.637" r="0.500" fill="#12151c"/><rect x="-6.945" y="-14.787" width="1.700" height="1.700" rx="0.850" fill="#c79b5c"/><circle cx="-6.095" cy="-13.938" r="0.500" fill="#12151c"/><rect x="-4.245" y="-14.787" width="1.700" height="1.700" rx="0.850" fill="#c79b5c"/><circle cx="-3.395" cy="-13.938" r="0.500" fill="#12151c"/><rect x="3.555" y="-14.787" width="1.700" height="1.700" rx="0.850" fill="#c79b5c"/><circle cx="4.405" cy="-13.938" r="0.500" fill="#12151c"/><rect x="6.255" y="-14.787" width="1.700" height="1.700" rx="0.850" fill="#c79b5c"/><circle cx="7.105" cy="-13.938" r="0.500" fill="#12151c"/><rect x="-6.945" y="-9.987" width="1.700" height="1.700" rx="0.850" fill="#c79b5c"/><circle cx="-6.095" cy="-9.137" r="0.500" fill="#12151c"/><rect x="-2.545" y="-9.987" width="1.700" height="1.700" rx="0.850" fill="#c79b5c"/><circle cx="-1.695" cy="-9.137" r="0.500" fill="#12151c"/><rect x="1.855" y="-9.987" width="1.700" height="1.700" rx="0.850" fill="#c79b5c"/><circle cx="2.705" cy="-9.137" r="0.500" fill="#12151c"/><rect x="6.255" y="-9.987" width="1.700" height="1.700" rx="0.850" fill="#c79b5c"/><circle cx="7.105" cy="-9.137" r="0.500" fill="#12151c"/><rect x="-6.945" y="-5.688" width="1.700" height="1.700" rx="0.850" fill="#c79b5c"/><circle cx="-6.095" cy="-4.838" r="0.500" fill="#12151c"/><rect x="-2.545" y="-5.688" width="1.700" height="1.700" rx="0.850" fill="#c79b5c"/><circle cx="-1.695" cy="-4.838" r="0.500" fill="#12151c"/><rect x="1.855" y="-5.688" width="1.700" height="1.700" rx="0.850" fill="#c79b5c"/><circle cx="2.705" cy="-4.838" r="0.500" fill="#12151c"/><rect x="6.255" y="-5.688" width="1.700" height="1.700" rx="0.850" fill="#c79b5c"/><circle cx="7.105" cy="-4.838" r="0.500" fill="#12151c"/><rect x="-5.145" y="0.413" width="2.300" height="2.300" rx="1.150" fill="#c79b5c"/><circle cx="-3.995" cy="1.562" r="0.800" fill="#12151c"/><rect x="3.855" y="0.413" width="2.300" height="2.300" rx="1.150" fill="#c79b5c"/><circle cx="5.005" cy="1.562" r="0.800" fill="#12151c"/><rect x="-0.345" y="3.712" width="1.700" height="1.700" rx="0.850" fill="#c79b5c"/><circle cx="0.505" cy="4.562" r="0.500" fill="#12151c"/><rect x="-5.145" y="5.412" width="2.300" height="2.300" rx="1.150" fill="#c79b5c"/><circle cx="-3.995" cy="6.562" r="0.800" fill="#12151c"/><rect x="3.855" y="5.412" width="2.300" height="2.300" rx="1.150" fill="#c79b5c"/><circle cx="5.005" cy="6.562" r="0.800" fill="#12151c"/><rect x="-5.145" y="13.412" width="2.300" height="2.300" rx="1.150" fill="#c79b5c"/><circle cx="-3.995" cy="14.562" r="0.800" fill="#12151c"/><rect x="3.855" y="13.412" width="2.300" height="2.300" rx="1.150" fill="#c79b5c"/><circle cx="5.005" cy="14.562" r="0.800" fill="#12151c"/><rect x="-0.345" y="15.713" width="1.700" height="1.700" rx="0.850" fill="#c79b5c"/><circle cx="0.505" cy="16.562" r="0.500" fill="#12151c"/><rect x="-5.145" y="17.913" width="2.300" height="2.300" rx="1.150" fill="#c79b5c"/><circle cx="-3.995" cy="19.062" r="0.800" fill="#12151c"/><rect x="3.855" y="17.913" width="2.300" height="2.300" rx="1.150" fill="#c79b5c"/><circle cx="5.005" cy="19.062" r="0.800" fill="#12151c"/></svg>