<svg xmlns="http://www.w3.org/2000/svg" viewBox="-6.58 -8.13 23.32 26.14" preserveAspectRatio="xMidYMid meet" style="width:100%;height:100%"><rect x="-6.58" y="-8.13" width="23.32" height="26.14" fill="#12151c"/><polyline points="0.000,-6.350 0.000,16.510" fill="none" stroke="#4ea1ff" stroke-width="0.25" stroke-linejoin="round"/><polyline points="0.000,1.270 6.350,1.270" fill="none" stroke="#4ea1ff" stroke-width="0.25" stroke-linejoin="round"/><polyline points="0.000,8.890 6.350,8.890" fill="none" stroke="#4ea1ff" stroke-width="0.25" stroke-linejoin="round"/><polyline points="9.144,2.286 10.160,1.270" fill="none" stroke="#4ea1ff" stroke-width="0.25" stroke-linejoin="round"/><path d="M 6.350 8.890 C 8.454 8.890 10.160 7.184 10.160 5.080" fill="none" stroke="#4ea1ff" stroke-width="0.25"/><path d="M 10.160 5.080 C 10.160 2.976 8.454 1.270 6.350 1.270" fill="none" stroke="#4ea1ff" stroke-width="0.25"/><line x1="-5.080" y1="-5.080" x2="0.000" y2="-5.080" stroke="#e6e9ef" stroke-width="0.2"/><circle cx="-5.080" cy="-5.080" r="0.4" fill="#4ea1ff"/><text x="0.500" y="-4.730" fill="#e6e9ef" font-size="1.1" text-anchor="start" font-family="sans-serif">A</text><text x="-0.300" y="-5.430" fill="#9aa3b2" font-size="0.9" text-anchor="end" font-family="sans-serif">2</text><line x1="-5.080" y1="-2.540" x2="0.000" y2="-2.540" stroke="#e6e9ef" stroke-width="0.2"/><circle cx="-5.080" cy="-2.540" r="0.4" fill="#4ea1ff"/><text x="0.500" y="-2.190" fill="#e6e9ef" font-size="1.1" text-anchor="start" font-family="sans-serif">B</text><text x="-0.300" y="-2.890" fill="#9aa3b2" font-size="0.9" text-anchor="end" font-family="sans-serif">3</text><line x1="-5.080" y1="-0.000" x2="0.000" y2="-0.000" stroke="#e6e9ef" stroke-width="0.2"/><circle cx="-5.080" cy="-0.000" r="0.4" fill="#4ea1ff"/><text x="0.500" y="0.350" fill="#e6e9ef" font-size="1.1" text-anchor="start" font-family="sans-serif">C</text><text x="-0.300" y="-0.350" fill="#9aa3b2" font-size="0.9" text-anchor="end" font-family="sans-serif">4</text><line x1="-5.080" y1="2.540" x2="0.000" y2="2.540" stroke="#e6e9ef" stroke-width="0.2"/><circle cx="-5.080" cy="2.540" r="0.4" fill="#4ea1ff"/><text x="0.500" y="2.890" fill="#e6e9ef" font-size="1.1" text-anchor="start" font-family="sans-serif">D</text><text x="-0.300" y="2.190" fill="#9aa3b2" font-size="0.9" text-anchor="end" font-family="sans-serif">5</text><line x1="-5.080" y1="7.620" x2="0.000" y2="7.620" stroke="#e6e9ef" stroke-width="0.2"/><circle cx="-5.080" cy="7.620" r="0.4" fill="#4ea1ff"/><text x="0.500" y="7.970" fill="#e6e9ef" font-size="1.1" text-anchor="start" font-family="sans-serif">E</text><text x="-0.300" y="7.270" fill="#9aa3b2" font-size="0.9" text-anchor="end" font-family="sans-serif">9</text><line x1="-5.080" y1="10.160" x2="0.000" y2="10.160" stroke="#e6e9ef" stroke-width="0.2"/><circle cx="-5.080" cy="10.160" r="0.4" fill="#4ea1ff"/><text x="0.500" y="10.510" fill="#e6e9ef" font-size="1.1" text-anchor="start" font-family="sans-serif">F</text><text x="-0.300" y="9.810" fill="#9aa3b2" font-size="0.9" text-anchor="end" font-family="sans-serif">10</text><line x1="-5.080" y1="12.700" x2="0.000" y2="12.700" stroke="#e6e9ef" stroke-width="0.2"/><circle cx="-5.080" cy="12.700" r="0.4" fill="#4ea1ff"/><text x="0.500" y="13.050" fill="#e6e9ef" font-size="1.1" text-anchor="start" font-family="sans-serif">G</text><text x="-0.300" y="12.350" fill="#9aa3b2" font-size="0.9" text-anchor="end" font-family="sans-serif">11</text><line x1="-5.080" y1="15.240" x2="0.000" y2="15.240" stroke="#e6e9ef" stroke-width="0.2"/><circle cx="-5.080" cy="15.240" r="0.4" fill="#4ea1ff"/><text x="0.500" y="15.590" fill="#e6e9ef" font-size="1.1" text-anchor="start" font-family="sans-serif">H</text><text x="-0.300" y="14.890" fill="#9aa3b2" font-size="0.9" text-anchor="end" font-family="sans-serif">12</text><line x1="15.240" y1="1.270" x2="10.160" y2="1.270" stroke="#e6e9ef" stroke-width="0.2"/><circle cx="15.240" cy="1.270" r="0.4" fill="#4ea1ff"/><text x="9.660" y="1.620" fill="#e6e9ef" font-size="1.1" text-anchor="end" font-family="sans-serif">K</text><text x="10.460" y="0.920" fill="#9aa3b2" font-size="0.9" text-anchor="start" font-family="sans-serif">1</text><line x1="15.240" y1="5.080" x2="10.160" y2="5.080" stroke="#e6e9ef" stroke-width="0.2"/><circle cx="15.240" cy="5.080" r="0.4" fill="#4ea1ff"/><text x="9.660" y="5.430" fill="#e6e9ef" font-size="1.1" text-anchor="end" font-family="sans-serif">J</text><text x="10.460" y="4.730" fill="#9aa3b2" font-size="0.9" text-anchor="start" font-family="sans-serif">13</text></svg>