<svg xmlns="http://www.w3.org/2000/svg" viewBox="-6.58 -1.50 36.02 43.64" preserveAspectRatio="xMidYMid meet" style="width:100%;height:100%"><rect x="-6.58" y="-1.50" width="36.02" height="43.64" fill="#12151c"/><rect x="0.000" y="-0.000" width="22.860" height="40.640" fill="#1e222b" stroke="#4ea1ff" stroke-width="0.25"/><polyline points="11.176,0.254 11.176,1.270" fill="none" stroke="#4ea1ff" stroke-width="0.25" stroke-linejoin="round"/><polyline points="11.176,2.032 11.176,3.048" fill="none" stroke="#4ea1ff" stroke-width="0.25" stroke-linejoin="round"/><polyline points="11.176,2.032 11.176,3.048" fill="none" stroke="#4ea1ff" stroke-width="0.25" stroke-linejoin="round"/><polyline points="11.176,2.032 11.176,3.048" fill="none" stroke="#4ea1ff" stroke-width="0.25" stroke-linejoin="round"/><polyline points="11.176,3.810 11.176,4.826" fill="none" stroke="#4ea1ff" stroke-width="0.25" stroke-linejoin="round"/><polyline points="11.176,5.588 11.176,6.604" fill="none" stroke="#4ea1ff" stroke-width="0.25" stroke-linejoin="round"/><polyline points="11.176,7.366 11.176,8.382" fill="none" stroke="#4ea1ff" stroke-width="0.25" stroke-linejoin="round"/><polyline points="11.176,9.144 11.176,10.160" fill="none" stroke="#4ea1ff" stroke-width="0.25" stroke-linejoin="round"/><polyline points="11.176,10.922 11.176,11.938" fill="none" stroke="#4ea1ff" stroke-width="0.25" stroke-linejoin="round"/><polyline points="11.176,12.700 11.176,13.716" fill="none" stroke="#4ea1ff" stroke-width="0.25" stroke-linejoin="round"/><polyline points="11.176,14.478 11.176,15.494" fill="none" stroke="#4ea1ff" stroke-width="0.25" stroke-linejoin="round"/><polyline points="11.176,16.256 11.176,17.272" fill="none" stroke="#4ea1ff" stroke-width="0.25" stroke-linejoin="round"/><polyline points="11.176,18.034 11.176,19.050" fill="none" stroke="#4ea1ff" stroke-width="0.25" stroke-linejoin="round"/><polyline points="11.176,19.812 11.176,20.828" fill="none" stroke="#4ea1ff" stroke-width="0.25" stroke-linejoin="round"/><polyline points="11.176,21.590 11.176,22.606" fill="none" stroke="#4ea1ff" stroke-width="0.25" stroke-linejoin="round"/><polyline points="11.176,23.368 11.176,24.384" fill="none" stroke="#4ea1ff" stroke-width="0.25" stroke-linejoin="round"/><polyline points="11.176,25.146 11.176,26.162" fill="none" stroke="#4ea1ff" stroke-width="0.25" stroke-linejoin="round"/><polyline points="11.176,26.924 11.176,27.940" fill="none" stroke="#4ea1ff" stroke-width="0.25" stroke-linejoin="round"/><polyline points="11.176,28.702 11.176,29.718" fill="none" stroke="#4ea1ff" stroke-width="0.25" stroke-linejoin="round"/><polyline points="11.176,30.480 11.176,31.496" fill="none" stroke="#4ea1ff" stroke-width="0.25" stroke-linejoin="round"/><polyline points="11.176,32.258 11.176,33.274" fill="none" stroke="#4ea1ff" stroke-width="0.25" stroke-linejoin="round"/><polyline points="11.176,34.036 11.176,35.052" fill="none" stroke="#4ea1ff" stroke-width="0.25" stroke-linejoin="round"/><polyline points="11.176,35.814 11.176,36.830" fill="none" stroke="#4ea1ff" stroke-width="0.25" stroke-linejoin="round"/><polyline points="11.176,37.592 11.176,38.608" fill="none" stroke="#4ea1ff" stroke-width="0.25" stroke-linejoin="round"/><polyline points="11.176,39.370 11.176,40.386" fill="none" stroke="#4ea1ff" stroke-width="0.25" stroke-linejoin="round"/><polyline points="11.684,0.254 11.684,1.270" fill="none" stroke="#4ea1ff" stroke-width="0.25" stroke-linejoin="round"/><polyline points="11.684,2.032 11.684,3.048" fill="none" stroke="#4ea1ff" stroke-width="0.25" stroke-linejoin="round"/><polyline points="11.684,2.032 11.684,3.048" fill="none" stroke="#4ea1ff" stroke-width="0.25" stroke-linejoin="round"/><polyline points="11.684,2.032 11.684,3.048" fill="none" stroke="#4ea1ff" stroke-width="0.25" stroke-linejoin="round"/><polyline points="11.684,3.810 11.684,4.826" fill="none" stroke="#4ea1ff" stroke-width="0.25" stroke-linejoin="round"/><polyline points="11.684,5.588 11.684,6.604" fill="none" stroke="#4ea1ff" stroke-width="0.25" stroke-linejoin="round"/><polyline points="11.684,7.366 11.684,8.382" fill="none" stroke="#4ea1ff" stroke-width="0.25" stroke-linejoin="round"/><polyline points="11.684,9.144 11.684,10.160" fill="none" stroke="#4ea1ff" stroke-width="0.25" stroke-linejoin="round"/><polyline points="11.684,10.922 11.684,11.938" fill="none" stroke="#4ea1ff" stroke-width="0.25" stroke-linejoin="round"/><polyline points="11.684,12.700 11.684,13.716" fill="none" stroke="#4ea1ff" stroke-width="0.25" stroke-linejoin="round"/><polyline points="11.684,14.478 11.684,15.494" fill="none" stroke="#4ea1ff" stroke-width="0.25" stroke-linejoin="round"/><polyline points="11.684,16.256 11.684,17.272" fill="none" stroke="#4ea1ff" stroke-width="0.25" stroke-linejoin="round"/><polyline points="11.684,18.034 11.684,19.050" fill="none" stroke="#4ea1ff" stroke-width="0.25" stroke-linejoin="round"/><polyline points="11.684,19.812 11.684,20.828" fill="none" stroke="#4ea1ff" stroke-width="0.25" stroke-linejoin="round"/><polyline points="11.684,21.590 11.684,22.606" fill="none" stroke="#4ea1ff" stroke-width="0.25" stroke-linejoin="round"/><polyline points="11.684,23.368 11.684,24.384" fill="none" stroke="#4ea1ff" stroke-width="0.25" stroke-linejoin="round"/><polyline points="11.684,25.146 11.684,26.162" fill="none" stroke="#4ea1ff" stroke-width="0.25" stroke-linejoin="round"/><polyline points="11.684,26.924 11.684,27.940" fill="none" stroke="#4ea1ff" stroke-width="0.25" stroke-linejoin="round"/><polyline points="11.684,28.702 11.684,29.718" fill="none" stroke="#4ea1ff" stroke-width="0.25" stroke-linejoin="round"/><polyline points="11.684,30.480 11.684,31.496" fill="none" stroke="#4ea1ff" stroke-width="0.25" stroke-linejoin="round"/><polyline points="11.684,32.258 11.684,33.274" fill="none" stroke="#4ea1ff" stroke-width="0.25" stroke-linejoin="round"/><polyline points="11.684,34.036 11.684,35.052" fill="none" stroke="#4ea1ff" stroke-width="0.25" stroke-linejoin="round"/><polyline points="11.684,35.814 11.684,36.830" fill="none" stroke="#4ea1ff" stroke-width="0.25" stroke-linejoin="round"/><polyline points="11.684,37.592 11.684,38.608" fill="none" stroke="#4ea1ff" stroke-width="0.25" stroke-linejoin="round"/><polyline points="11.684,39.370 11.684,40.386" fill="none" stroke="#4ea1ff" stroke-width="0.25" stroke-linejoin="round"/><line x1="-5.080" y1="2.540" x2="0.000" y2="2.540" stroke="#e6e9ef" stroke-width="0.2"/><circle cx="-5.080" cy="2.540" r="0.4" fill="#4ea1ff"/><text x="0.500" y="2.890" fill="#e6e9ef" font-size="1.1" text-anchor="start" font-family="sans-serif">MCLK</text><text x="-0.300" y="2.190" fill="#9aa3b2" font-size="0.9" text-anchor="end" font-family="sans-serif">3</text><line x1="-5.080" y1="7.620" x2="0.000" y2="7.620" stroke="#e6e9ef" stroke-width="0.2"/><circle cx="-5.080" cy="7.620" r="0.4" fill="#4ea1ff"/><text x="0.500" y="7.970" fill="#e6e9ef" font-size="1.1" text-anchor="start" font-family="sans-serif">MO</text><text x="-0.300" y="7.270" fill="#9aa3b2" font-size="0.9" text-anchor="end" font-family="sans-serif">4</text><line x1="-5.080" y1="10.160" x2="0.000" y2="10.160" stroke="#e6e9ef" stroke-width="0.2"/><circle cx="-5.080" cy="10.160" r="0.4" fill="#4ea1ff"/><text x="0.500" y="10.510" fill="#e6e9ef" font-size="1.1" text-anchor="start" font-family="sans-serif">MI</text><text x="-0.300" y="9.810" fill="#9aa3b2" font-size="0.9" text-anchor="end" font-family="sans-serif">5</text><line x1="-5.080" y1="15.240" x2="0.000" y2="15.240" stroke="#e6e9ef" stroke-width="0.2"/><circle cx="-5.080" cy="15.240" r="0.4" fill="#4ea1ff"/><text x="0.500" y="15.590" fill="#e6e9ef" font-size="1.1" text-anchor="start" font-family="sans-serif">~{MSS}</text><text x="-0.300" y="14.890" fill="#9aa3b2" font-size="0.9" text-anchor="end" font-family="sans-serif">6</text><line x1="-5.080" y1="20.320" x2="0.000" y2="20.320" stroke="#e6e9ef" stroke-width="0.2"/><circle cx="-5.080" cy="20.320" r="0.4" fill="#4ea1ff"/><text x="0.500" y="20.670" fill="#e6e9ef" font-size="1.1" text-anchor="start" font-family="sans-serif">VIA</text><text x="-0.300" y="19.970" fill="#9aa3b2" font-size="0.9" text-anchor="end" font-family="sans-serif">7</text><line x1="-5.080" y1="22.860" x2="0.000" y2="22.860" stroke="#e6e9ef" stroke-width="0.2"/><circle cx="-5.080" cy="22.860" r="0.4" fill="#4ea1ff"/><text x="0.500" y="23.210" fill="#e6e9ef" font-size="1.1" text-anchor="start" font-family="sans-serif">VOB</text><text x="-0.300" y="22.510" fill="#9aa3b2" font-size="0.9" text-anchor="end" font-family="sans-serif">8</text><line x1="-5.080" y1="27.940" x2="0.000" y2="27.940" stroke="#e6e9ef" stroke-width="0.2"/><circle cx="-5.080" cy="27.940" r="0.4" fill="#4ea1ff"/><text x="0.500" y="28.290" fill="#e6e9ef" font-size="1.1" text-anchor="start" font-family="sans-serif">DCLK</text><text x="-0.300" y="27.590" fill="#9aa3b2" font-size="0.9" text-anchor="end" font-family="sans-serif">9</text><line x1="-5.080" y1="33.020" x2="0.000" y2="33.020" stroke="#e6e9ef" stroke-width="0.2"/><circle cx="-5.080" cy="33.020" r="0.4" fill="#4ea1ff"/><text x="0.500" y="33.370" fill="#e6e9ef" font-size="1.1" text-anchor="start" font-family="sans-serif">VDD1</text><text x="-0.300" y="32.670" fill="#9aa3b2" font-size="0.9" text-anchor="end" font-family="sans-serif">1</text><line x1="-5.080" y1="35.560" x2="0.000" y2="35.560" stroke="#e6e9ef" stroke-width="0.2"/><circle cx="-5.080" cy="35.560" r="0.4" fill="#4ea1ff"/><text x="0.500" y="35.910" fill="#e6e9ef" font-size="1.1" text-anchor="start" font-family="sans-serif">GND1</text><text x="-0.300" y="35.210" fill="#9aa3b2" font-size="0.9" text-anchor="end" font-family="sans-serif">2</text><line x1="-5.080" y1="38.100" x2="0.000" y2="38.100" stroke="#e6e9ef" stroke-width="0.2"/><circle cx="-5.080" cy="38.100" r="0.4" fill="#4ea1ff"/><text x="0.500" y="38.450" fill="#e6e9ef" font-size="1.1" text-anchor="start" font-family="sans-serif">GND1</text><text x="-0.300" y="37.750" fill="#9aa3b2" font-size="0.9" text-anchor="end" font-family="sans-serif">10</text><line x1="27.940" y1="2.540" x2="22.860" y2="2.540" stroke="#e6e9ef" stroke-width="0.2"/><circle cx="27.940" cy="2.540" r="0.4" fill="#4ea1ff"/><text x="22.360" y="2.890" fill="#e6e9ef" font-size="1.1" text-anchor="end" font-family="sans-serif">SCLK</text><text x="23.160" y="2.190" fill="#9aa3b2" font-size="0.9" text-anchor="start" font-family="sans-serif">18</text><line x1="27.940" y1="7.620" x2="22.860" y2="7.620" stroke="#e6e9ef" stroke-width="0.2"/><circle cx="27.940" cy="7.620" r="0.4" fill="#4ea1ff"/><text x="22.360" y="7.970" fill="#e6e9ef" font-size="1.1" text-anchor="end" font-family="sans-serif">SI</text><text x="23.160" y="7.270" fill="#9aa3b2" font-size="0.9" text-anchor="start" font-family="sans-serif">17</text><line x1="27.940" y1="10.160" x2="22.860" y2="10.160" stroke="#e6e9ef" stroke-width="0.2"/><circle cx="27.940" cy="10.160" r="0.4" fill="#4ea1ff"/><text x="22.360" y="10.510" fill="#e6e9ef" font-size="1.1" text-anchor="end" font-family="sans-serif">SO</text><text x="23.160" y="9.810" fill="#9aa3b2" font-size="0.9" text-anchor="start" font-family="sans-serif">16</text><line x1="27.940" y1="15.240" x2="22.860" y2="15.240" stroke="#e6e9ef" stroke-width="0.2"/><circle cx="27.940" cy="15.240" r="0.4" fill="#4ea1ff"/><text x="22.360" y="15.590" fill="#e6e9ef" font-size="1.1" text-anchor="end" font-family="sans-serif">~{SSS}</text><text x="23.160" y="14.890" fill="#9aa3b2" font-size="0.9" text-anchor="start" font-family="sans-serif">15</text><line x1="27.940" y1="20.320" x2="22.860" y2="20.320" stroke="#e6e9ef" stroke-width="0.2"/><circle cx="27.940" cy="20.320" r="0.4" fill="#4ea1ff"/><text x="22.360" y="20.670" fill="#e6e9ef" font-size="1.1" text-anchor="end" font-family="sans-serif">VOA</text><text x="23.160" y="19.970" fill="#9aa3b2" font-size="0.9" text-anchor="start" font-family="sans-serif">14</text><line x1="27.940" y1="22.860" x2="22.860" y2="22.860" stroke="#e6e9ef" stroke-width="0.2"/><circle cx="27.940" cy="22.860" r="0.4" fill="#4ea1ff"/><text x="22.360" y="23.210" fill="#e6e9ef" font-size="1.1" text-anchor="end" font-family="sans-serif">VIB</text><text x="23.160" y="22.510" fill="#9aa3b2" font-size="0.9" text-anchor="start" font-family="sans-serif">13</text><line x1="27.940" y1="27.940" x2="22.860" y2="27.940" stroke="#e6e9ef" stroke-width="0.2"/><circle cx="27.940" cy="27.940" r="0.4" fill="#4ea1ff"/><text x="22.360" y="28.290" fill="#e6e9ef" font-size="1.1" text-anchor="end" font-family="sans-serif">NIC</text><text x="23.160" y="27.590" fill="#9aa3b2" font-size="0.9" text-anchor="start" font-family="sans-serif">12</text><line x1="27.940" y1="33.020" x2="22.860" y2="33.020" stroke="#e6e9ef" stroke-width="0.2"/><circle cx="27.940" cy="33.020" r="0.4" fill="#4ea1ff"/><text x="22.360" y="33.370" fill="#e6e9ef" font-size="1.1" text-anchor="end" font-family="sans-serif">VDD2</text><text x="23.160" y="32.670" fill="#9aa3b2" font-size="0.9" text-anchor="start" font-family="sans-serif">20</text><line x1="27.940" y1="35.560" x2="22.860" y2="35.560" stroke="#e6e9ef" stroke-width="0.2"/><circle cx="27.940" cy="35.560" r="0.4" fill="#4ea1ff"/><text x="22.360" y="35.910" fill="#e6e9ef" font-size="1.1" text-anchor="end" font-family="sans-serif">GND2</text><text x="23.160" y="35.210" fill="#9aa3b2" font-size="0.9" text-anchor="start" font-family="sans-serif">19</text><line x1="27.940" y1="38.100" x2="22.860" y2="38.100" stroke="#e6e9ef" stroke-width="0.2"/><circle cx="27.940" cy="38.100" r="0.4" fill="#4ea1ff"/><text x="22.360" y="38.450" fill="#e6e9ef" font-size="1.1" text-anchor="end" font-family="sans-serif">GND2</text><text x="23.160" y="37.750" fill="#9aa3b2" font-size="0.9" text-anchor="start" font-family="sans-serif">11</text></svg>