<svg xmlns="http://www.w3.org/2000/svg" viewBox="-2.98 -2.90 5.53 5.80" preserveAspectRatio="xMidYMid meet" style="width:100%;height:100%"><rect x="-2.98" y="-2.90" width="5.53" height="5.80" fill="#12151c"/><line x1="-1.300" y1="0.100" x2="-1.300" y2="-0.100" stroke="#e6e9ef" stroke-width="0.200" stroke-linecap="round" opacity="1"/><line x1="-0.050" y1="-1.650" x2="0.050" y2="-1.650" stroke="#e6e9ef" stroke-width="0.200" stroke-linecap="round" opacity="1"/><line x1="-0.050" y1="1.650" x2="0.050" y2="1.650" stroke="#e6e9ef" stroke-width="0.200" stroke-linecap="round" opacity="1"/><line x1="1.300" y1="0.100" x2="1.300" y2="-0.100" stroke="#e6e9ef" stroke-width="0.200" stroke-linecap="round" opacity="1"/><line x1="-1.350" y1="-1.050" x2="-0.850" y2="-1.050" stroke="#4a5160" stroke-width="0.080" stroke-linecap="round" opacity="0.7"/><line x1="-1.350" y1="1.050" x2="-0.850" y2="1.050" stroke="#4a5160" stroke-width="0.080" stroke-linecap="round" opacity="0.7"/><line x1="-1.300" y1="-1.650" x2="-0.400" y2="-1.650" stroke="#4a5160" stroke-width="0.080" stroke-linecap="round" opacity="0.7"/><line x1="-1.300" y1="-0.450" x2="-1.300" y2="-1.650" stroke="#4a5160" stroke-width="0.080" stroke-linecap="round" opacity="0.7"/><line x1="-1.300" y1="-0.450" x2="-0.400" y2="-0.450" stroke="#4a5160" stroke-width="0.080" stroke-linecap="round" opacity="0.7"/><line x1="-1.300" y1="0.450" x2="-0.400" y2="0.450" stroke="#4a5160" stroke-width="0.080" stroke-linecap="round" opacity="0.7"/><line x1="-1.300" y1="1.650" x2="-1.300" y2="0.450" stroke="#4a5160" stroke-width="0.080" stroke-linecap="round" opacity="0.7"/><line x1="-1.300" y1="1.650" x2="-0.400" y2="1.650" stroke="#4a5160" stroke-width="0.080" stroke-linecap="round" opacity="0.7"/><line x1="-0.850" y1="-1.050" x2="-0.850" y2="-1.550" stroke="#4a5160" stroke-width="0.080" stroke-linecap="round" opacity="0.7"/><line x1="-0.850" y1="-1.050" x2="-0.350" y2="-1.050" stroke="#4a5160" stroke-width="0.080" stroke-linecap="round" opacity="0.7"/><line x1="-0.850" y1="-0.550" x2="-0.850" y2="-1.050" stroke="#4a5160" stroke-width="0.080" stroke-linecap="round" opacity="0.7"/><line x1="-0.850" y1="0.550" x2="-0.850" y2="1.050" stroke="#4a5160" stroke-width="0.080" stroke-linecap="round" opacity="0.7"/><line x1="-0.850" y1="1.050" x2="-0.350" y2="1.050" stroke="#4a5160" stroke-width="0.080" stroke-linecap="round" opacity="0.7"/><line x1="-0.850" y1="1.550" x2="-0.850" y2="1.050" stroke="#4a5160" stroke-width="0.080" stroke-linecap="round" opacity="0.7"/><line x1="-0.500" y1="0.000" x2="0.000" y2="0.000" stroke="#4a5160" stroke-width="0.080" stroke-linecap="round" opacity="0.7"/><line x1="-0.400" y1="-0.450" x2="-0.400" y2="-1.650" stroke="#4a5160" stroke-width="0.080" stroke-linecap="round" opacity="0.7"/><line x1="-0.400" y1="1.650" x2="-0.400" y2="0.450" stroke="#4a5160" stroke-width="0.080" stroke-linecap="round" opacity="0.7"/><line x1="0.000" y1="0.000" x2="0.000" y2="-0.500" stroke="#4a5160" stroke-width="0.080" stroke-linecap="round" opacity="0.7"/><line x1="0.000" y1="0.000" x2="0.500" y2="0.000" stroke="#4a5160" stroke-width="0.080" stroke-linecap="round" opacity="0.7"/><line x1="0.000" y1="0.500" x2="0.000" y2="0.000" stroke="#4a5160" stroke-width="0.080" stroke-linecap="round" opacity="0.7"/><line x1="0.350" y1="-1.050" x2="0.850" y2="-1.050" stroke="#4a5160" stroke-width="0.080" stroke-linecap="round" opacity="0.7"/><line x1="0.350" y1="1.050" x2="0.850" y2="1.050" stroke="#4a5160" stroke-width="0.080" stroke-linecap="round" opacity="0.7"/><line x1="0.400" y1="-1.650" x2="1.300" y2="-1.650" stroke="#4a5160" stroke-width="0.080" stroke-linecap="round" opacity="0.7"/><line x1="0.400" y1="-0.450" x2="0.400" y2="-1.650" stroke="#4a5160" stroke-width="0.080" stroke-linecap="round" opacity="0.7"/><line x1="0.400" y1="-0.450" x2="1.300" y2="-0.450" stroke="#4a5160" stroke-width="0.080" stroke-linecap="round" opacity="0.7"/><line x1="0.400" y1="0.450" x2="1.300" y2="0.450" stroke="#4a5160" stroke-width="0.080" stroke-linecap="round" opacity="0.7"/><line x1="0.400" y1="1.650" x2="0.400" y2="0.450" stroke="#4a5160" stroke-width="0.080" stroke-linecap="round" opacity="0.7"/><line x1="0.400" y1="1.650" x2="1.300" y2="1.650" stroke="#4a5160" stroke-width="0.080" stroke-linecap="round" opacity="0.7"/><line x1="0.850" y1="-1.050" x2="0.850" y2="-1.550" stroke="#4a5160" stroke-width="0.080" stroke-linecap="round" opacity="0.7"/><line x1="0.850" y1="-1.050" x2="0.850" y2="-0.550" stroke="#4a5160" stroke-width="0.080" stroke-linecap="round" opacity="0.7"/><line x1="0.850" y1="-1.050" x2="1.350" y2="-1.050" stroke="#4a5160" stroke-width="0.080" stroke-linecap="round" opacity="0.7"/><line x1="0.850" y1="1.050" x2="0.850" y2="0.550" stroke="#4a5160" stroke-width="0.080" stroke-linecap="round" opacity="0.7"/><line x1="0.850" y1="1.050" x2="1.350" y2="1.050" stroke="#4a5160" stroke-width="0.080" stroke-linecap="round" opacity="0.7"/><line x1="0.850" y1="1.550" x2="0.850" y2="1.050" stroke="#4a5160" stroke-width="0.080" stroke-linecap="round" opacity="0.7"/><line x1="1.300" y1="-0.450" x2="1.300" y2="-1.650" stroke="#4a5160" stroke-width="0.080" stroke-linecap="round" opacity="0.7"/><line x1="1.300" y1="1.650" x2="1.300" y2="0.450" stroke="#4a5160" stroke-width="0.080" stroke-linecap="round" opacity="0.7"/><line x1="-1.550" y1="-1.900" x2="1.550" y2="-1.900" stroke="#d24d4d" stroke-width="0.080" stroke-linecap="round" opacity="0.7"/><line x1="-1.550" y1="1.900" x2="-1.550" y2="-1.900" stroke="#d24d4d" stroke-width="0.080" stroke-linecap="round" opacity="0.7"/><line x1="-1.550" y1="1.900" x2="1.550" y2="1.900" stroke="#d24d4d" stroke-width="0.080" stroke-linecap="round" opacity="0.7"/><line x1="1.550" y1="1.900" x2="1.550" y2="-1.900" stroke="#d24d4d" stroke-width="0.080" stroke-linecap="round" opacity="0.7"/><line x1="-1.300" y1="-1.650" x2="1.300" y2="-1.650" stroke="#6b7280" stroke-width="0.100" stroke-linecap="round" opacity="0.8"/><line x1="-1.300" y1="1.650" x2="-1.300" y2="-1.650" stroke="#6b7280" stroke-width="0.100" stroke-linecap="round" opacity="0.8"/><line x1="-1.300" y1="1.650" x2="1.300" y2="1.650" stroke="#6b7280" stroke-width="0.100" stroke-linecap="round" opacity="0.8"/><line x1="1.300" y1="1.650" x2="1.300" y2="-1.650" stroke="#6b7280" stroke-width="0.100" stroke-linecap="round" opacity="0.8"/><circle cx="-1.854" cy="-1.016" r="0.150" fill="#e6e9ef" opacity="1"/><rect x="-1.300" y="-1.650" width="0.900" height="1.200" rx="0.000" fill="#c79b5c"/><rect x="-1.300" y="0.450" width="0.900" height="1.200" rx="0.000" fill="#c79b5c"/><rect x="0.400" y="0.450" width="0.900" height="1.200" rx="0.000" fill="#c79b5c"/><rect x="0.400" y="-1.650" width="0.900" height="1.200" rx="0.000" fill="#c79b5c"/></svg>