<svg xmlns="http://www.w3.org/2000/svg" viewBox="-7.78 -4.33 15.43 8.53" preserveAspectRatio="xMidYMid meet" style="width:100%;height:100%"><rect x="-7.78" y="-4.33" width="15.43" height="8.53" fill="#12151c"/><path d="M -6.650 -2.100 A 0.500 0.500 0 0 1 -6.450 -2.500" fill="none" stroke="#e6e9ef" stroke-width="0.12" opacity="1"/><path d="M -6.450 2.500 A 0.500 0.500 0 0 1 -6.650 2.100" fill="none" stroke="#e6e9ef" stroke-width="0.12" opacity="1"/><path d="M 6.450 -2.500 A 0.500 0.500 0 0 1 6.650 -2.100" fill="none" stroke="#e6e9ef" stroke-width="0.12" opacity="1"/><path d="M 6.650 2.100 A 0.500 0.500 0 0 1 6.450 2.500" fill="none" stroke="#e6e9ef" stroke-width="0.12" opacity="1"/><path d="M -6.650 -2.100 A 0.500 0.500 0 0 1 -6.150 -2.600" fill="none" stroke="#6b7280" stroke-width="0.12" opacity="0.8"/><path d="M -6.150 2.600 A 0.500 0.500 0 0 1 -6.650 2.100" fill="none" stroke="#6b7280" stroke-width="0.12" opacity="0.8"/><path d="M -4.050 1.600 A 1.600 1.600 0 0 1 -4.050 -1.600" fill="none" stroke="#6b7280" stroke-width="0.12" opacity="0.8"/><path d="M -4.050 2.100 A 2.100 2.100 0 0 1 -4.050 -2.100" fill="none" stroke="#6b7280" stroke-width="0.12" opacity="0.8"/><path d="M 4.050 -2.100 A 2.100 2.100 0 0 1 4.050 2.100" fill="none" stroke="#6b7280" stroke-width="0.12" opacity="0.8"/><path d="M 4.050 -1.600 A 1.600 1.600 0 0 1 4.050 1.600" fill="none" stroke="#6b7280" stroke-width="0.12" opacity="0.8"/><path d="M 6.150 -2.600 A 0.500 0.500 0 0 1 6.650 -2.100" fill="none" stroke="#6b7280" stroke-width="0.12" opacity="0.8"/><path d="M 6.650 2.100 A 0.500 0.500 0 0 1 6.150 2.600" fill="none" stroke="#6b7280" stroke-width="0.12" opacity="0.8"/><circle cx="-6.650" cy="-3.200" r="0.125" fill="none" stroke="#e6e9ef" stroke-width="0.12" opacity="1"/><circle cx="-4.375" cy="-0.650" r="0.500" fill="none" stroke="#6b7280" stroke-width="0.12" opacity="0.8"/><rect x="-6.050" y="-3.200" width="2.000" height="2.400" rx="0.000" fill="#c79b5c"/><rect x="2.650" y="-3.200" width="3.400" height="2.400" rx="0.000" fill="#c79b5c"/><rect x="2.650" y="0.800" width="3.400" height="2.400" rx="0.000" fill="#c79b5c"/><rect x="-6.050" y="0.800" width="2.000" height="2.400" rx="0.000" fill="#c79b5c"/></svg>