<svg xmlns="http://www.w3.org/2000/svg" viewBox="-4.95 -3.13 9.90 6.27" preserveAspectRatio="xMidYMid meet" style="width:100%;height:100%"><rect x="-4.95" y="-3.13" width="9.90" height="6.27" fill="#12151c"/><line x1="-2.250" y1="-1.885" x2="2.250" y2="-1.885" stroke="#e6e9ef" stroke-width="0.200" stroke-linecap="round" opacity="1"/><line x1="-2.250" y1="-1.415" x2="-2.250" y2="-1.885" stroke="#e6e9ef" stroke-width="0.200" stroke-linecap="round" opacity="1"/><line x1="-2.250" y1="1.885" x2="-2.250" y2="1.415" stroke="#e6e9ef" stroke-width="0.200" stroke-linecap="round" opacity="1"/><line x1="-2.250" y1="1.885" x2="2.250" y2="1.885" stroke="#e6e9ef" stroke-width="0.200" stroke-linecap="round" opacity="1"/><line x1="-1.050" y1="-1.135" x2="1.050" y2="-1.135" stroke="#e6e9ef" stroke-width="0.200" stroke-linecap="round" opacity="1"/><line x1="-1.050" y1="-0.135" x2="-1.050" y2="-1.135" stroke="#e6e9ef" stroke-width="0.200" stroke-linecap="round" opacity="1"/><line x1="-1.050" y1="-0.135" x2="1.050" y2="-0.135" stroke="#e6e9ef" stroke-width="0.200" stroke-linecap="round" opacity="1"/><line x1="-1.050" y1="0.135" x2="1.050" y2="0.135" stroke="#e6e9ef" stroke-width="0.200" stroke-linecap="round" opacity="1"/><line x1="-1.050" y1="1.135" x2="-1.050" y2="0.135" stroke="#e6e9ef" stroke-width="0.200" stroke-linecap="round" opacity="1"/><line x1="-1.050" y1="1.135" x2="1.050" y2="1.135" stroke="#e6e9ef" stroke-width="0.200" stroke-linecap="round" opacity="1"/><line x1="0.200" y1="-0.135" x2="0.200" y2="-1.135" stroke="#e6e9ef" stroke-width="0.200" stroke-linecap="round" opacity="1"/><line x1="0.200" y1="1.135" x2="0.200" y2="0.135" stroke="#e6e9ef" stroke-width="0.200" stroke-linecap="round" opacity="1"/><line x1="0.300" y1="-0.135" x2="0.300" y2="-1.135" stroke="#e6e9ef" stroke-width="0.200" stroke-linecap="round" opacity="1"/><line x1="0.300" y1="1.135" x2="0.300" y2="0.135" stroke="#e6e9ef" stroke-width="0.200" stroke-linecap="round" opacity="1"/><line x1="0.400" y1="-0.135" x2="0.400" y2="-1.135" stroke="#e6e9ef" stroke-width="0.200" stroke-linecap="round" opacity="1"/><line x1="0.400" y1="1.135" x2="0.400" y2="0.135" stroke="#e6e9ef" stroke-width="0.200" stroke-linecap="round" opacity="1"/><line x1="0.500" y1="-0.135" x2="0.500" y2="-1.135" stroke="#e6e9ef" stroke-width="0.200" stroke-linecap="round" opacity="1"/><line x1="0.500" y1="1.135" x2="0.500" y2="0.135" stroke="#e6e9ef" stroke-width="0.200" stroke-linecap="round" opacity="1"/><line x1="0.600" y1="-0.135" x2="0.600" y2="-1.135" stroke="#e6e9ef" stroke-width="0.200" stroke-linecap="round" opacity="1"/><line x1="0.600" y1="1.135" x2="0.600" y2="0.135" stroke="#e6e9ef" stroke-width="0.200" stroke-linecap="round" opacity="1"/><line x1="0.700" y1="-0.135" x2="0.700" y2="-1.135" stroke="#e6e9ef" stroke-width="0.200" stroke-linecap="round" opacity="1"/><line x1="0.700" y1="1.135" x2="0.700" y2="0.135" stroke="#e6e9ef" stroke-width="0.200" stroke-linecap="round" opacity="1"/><line x1="0.800" y1="-0.135" x2="0.800" y2="-1.135" stroke="#e6e9ef" stroke-width="0.200" stroke-linecap="round" opacity="1"/><line x1="0.800" y1="1.135" x2="0.800" y2="0.135" stroke="#e6e9ef" stroke-width="0.200" stroke-linecap="round" opacity="1"/><line x1="0.900" y1="-0.135" x2="0.900" y2="-1.135" stroke="#e6e9ef" stroke-width="0.200" stroke-linecap="round" opacity="1"/><line x1="0.900" y1="1.135" x2="0.900" y2="0.135" stroke="#e6e9ef" stroke-width="0.200" stroke-linecap="round" opacity="1"/><line x1="1.000" y1="-0.135" x2="1.000" y2="-1.135" stroke="#e6e9ef" stroke-width="0.200" stroke-linecap="round" opacity="1"/><line x1="1.000" y1="1.135" x2="1.000" y2="0.135" stroke="#e6e9ef" stroke-width="0.200" stroke-linecap="round" opacity="1"/><line x1="1.050" y1="-0.135" x2="1.050" y2="-1.135" stroke="#e6e9ef" stroke-width="0.200" stroke-linecap="round" opacity="1"/><line x1="1.050" y1="1.135" x2="1.050" y2="0.135" stroke="#e6e9ef" stroke-width="0.200" stroke-linecap="round" opacity="1"/><line x1="1.397" y1="-0.381" x2="2.032" y2="-0.381" stroke="#e6e9ef" stroke-width="0.200" stroke-linecap="round" opacity="1"/><line x1="1.397" y1="0.127" x2="2.032" y2="-0.381" stroke="#e6e9ef" stroke-width="0.200" stroke-linecap="round" opacity="1"/><line x1="1.397" y1="0.127" x2="2.032" y2="0.127" stroke="#e6e9ef" stroke-width="0.200" stroke-linecap="round" opacity="1"/><line x1="2.250" y1="-1.415" x2="2.250" y2="-1.885" stroke="#e6e9ef" stroke-width="0.200" stroke-linecap="round" opacity="1"/><line x1="2.250" y1="1.885" x2="2.250" y2="1.415" stroke="#e6e9ef" stroke-width="0.200" stroke-linecap="round" opacity="1"/><line x1="-3.700" y1="-1.015" x2="-2.450" y2="-1.015" stroke="#4a5160" stroke-width="0.080" stroke-linecap="round" opacity="0.7"/><line x1="-3.700" y1="-0.255" x2="-3.700" y2="-1.015" stroke="#4a5160" stroke-width="0.080" stroke-linecap="round" opacity="0.7"/><line x1="-3.700" y1="-0.255" x2="-2.450" y2="-0.255" stroke="#4a5160" stroke-width="0.080" stroke-linecap="round" opacity="0.7"/><line x1="-3.700" y1="0.255" x2="-2.450" y2="0.255" stroke="#4a5160" stroke-width="0.080" stroke-linecap="round" opacity="0.7"/><line x1="-3.700" y1="1.015" x2="-3.700" y2="0.255" stroke="#4a5160" stroke-width="0.080" stroke-linecap="round" opacity="0.7"/><line x1="-3.700" y1="1.015" x2="-2.450" y2="1.015" stroke="#4a5160" stroke-width="0.080" stroke-linecap="round" opacity="0.7"/><line x1="-3.575" y1="-0.635" x2="-3.075" y2="-0.635" stroke="#4a5160" stroke-width="0.080" stroke-linecap="round" opacity="0.7"/><line x1="-3.575" y1="0.635" x2="-3.075" y2="0.635" stroke="#4a5160" stroke-width="0.080" stroke-linecap="round" opacity="0.7"/><line x1="-3.075" y1="-0.635" x2="-3.075" y2="-1.135" stroke="#4a5160" stroke-width="0.080" stroke-linecap="round" opacity="0.7"/><line x1="-3.075" y1="-0.635" x2="-2.575" y2="-0.635" stroke="#4a5160" stroke-width="0.080" stroke-linecap="round" opacity="0.7"/><line x1="-3.075" y1="-0.135" x2="-3.075" y2="-0.635" stroke="#4a5160" stroke-width="0.080" stroke-linecap="round" opacity="0.7"/><line x1="-3.075" y1="0.635" x2="-3.075" y2="0.135" stroke="#4a5160" stroke-width="0.080" stroke-linecap="round" opacity="0.7"/><line x1="-3.075" y1="0.635" x2="-2.575" y2="0.635" stroke="#4a5160" stroke-width="0.080" stroke-linecap="round" opacity="0.7"/><line x1="-3.075" y1="1.135" x2="-3.075" y2="0.635" stroke="#4a5160" stroke-width="0.080" stroke-linecap="round" opacity="0.7"/><line x1="-2.450" y1="-0.255" x2="-2.450" y2="-1.015" stroke="#4a5160" stroke-width="0.080" stroke-linecap="round" opacity="0.7"/><line x1="-2.450" y1="1.015" x2="-2.450" y2="0.255" stroke="#4a5160" stroke-width="0.080" stroke-linecap="round" opacity="0.7"/><line x1="-0.500" y1="0.000" x2="0.000" y2="0.000" stroke="#4a5160" stroke-width="0.080" stroke-linecap="round" opacity="0.7"/><line x1="0.000" y1="0.000" x2="0.000" y2="-0.500" stroke="#4a5160" stroke-width="0.080" stroke-linecap="round" opacity="0.7"/><line x1="0.000" y1="0.000" x2="0.500" y2="0.000" stroke="#4a5160" stroke-width="0.080" stroke-linecap="round" opacity="0.7"/><line x1="0.000" y1="0.500" x2="0.000" y2="0.000" stroke="#4a5160" stroke-width="0.080" stroke-linecap="round" opacity="0.7"/><line x1="2.450" y1="-1.015" x2="3.700" y2="-1.015" stroke="#4a5160" stroke-width="0.080" stroke-linecap="round" opacity="0.7"/><line x1="2.450" y1="-0.255" x2="2.450" y2="-1.015" stroke="#4a5160" stroke-width="0.080" stroke-linecap="round" opacity="0.7"/><line x1="2.450" y1="-0.255" x2="3.700" y2="-0.255" stroke="#4a5160" stroke-width="0.080" stroke-linecap="round" opacity="0.7"/><line x1="2.450" y1="0.255" x2="3.700" y2="0.255" stroke="#4a5160" stroke-width="0.080" stroke-linecap="round" opacity="0.7"/><line x1="2.450" y1="1.015" x2="2.450" y2="0.255" stroke="#4a5160" stroke-width="0.080" stroke-linecap="round" opacity="0.7"/><line x1="2.450" y1="1.015" x2="3.700" y2="1.015" stroke="#4a5160" stroke-width="0.080" stroke-linecap="round" opacity="0.7"/><line x1="2.575" y1="-0.635" x2="3.075" y2="-0.635" stroke="#4a5160" stroke-width="0.080" stroke-linecap="round" opacity="0.7"/><line x1="2.575" y1="0.635" x2="3.075" y2="0.635" stroke="#4a5160" stroke-width="0.080" stroke-linecap="round" opacity="0.7"/><line x1="3.075" y1="-0.635" x2="3.075" y2="-1.135" stroke="#4a5160" stroke-width="0.080" stroke-linecap="round" opacity="0.7"/><line x1="3.075" y1="-0.635" x2="3.575" y2="-0.635" stroke="#4a5160" stroke-width="0.080" stroke-linecap="round" opacity="0.7"/><line x1="3.075" y1="-0.135" x2="3.075" y2="-0.635" stroke="#4a5160" stroke-width="0.080" stroke-linecap="round" opacity="0.7"/><line x1="3.075" y1="0.635" x2="3.075" y2="0.135" stroke="#4a5160" stroke-width="0.080" stroke-linecap="round" opacity="0.7"/><line x1="3.075" y1="0.635" x2="3.575" y2="0.635" stroke="#4a5160" stroke-width="0.080" stroke-linecap="round" opacity="0.7"/><line x1="3.075" y1="1.135" x2="3.075" y2="0.635" stroke="#4a5160" stroke-width="0.080" stroke-linecap="round" opacity="0.7"/><line x1="3.700" y1="-0.255" x2="3.700" y2="-1.015" stroke="#4a5160" stroke-width="0.080" stroke-linecap="round" opacity="0.7"/><line x1="3.700" y1="1.015" x2="3.700" y2="0.255" stroke="#4a5160" stroke-width="0.080" stroke-linecap="round" opacity="0.7"/><line x1="-3.950" y1="-2.135" x2="3.950" y2="-2.135" stroke="#d24d4d" stroke-width="0.080" stroke-linecap="round" opacity="0.7"/><line x1="-3.950" y1="2.135" x2="-3.950" y2="-2.135" stroke="#d24d4d" stroke-width="0.080" stroke-linecap="round" opacity="0.7"/><line x1="-3.950" y1="2.135" x2="3.950" y2="2.135" stroke="#d24d4d" stroke-width="0.080" stroke-linecap="round" opacity="0.7"/><line x1="3.950" y1="2.135" x2="3.950" y2="-2.135" stroke="#d24d4d" stroke-width="0.080" stroke-linecap="round" opacity="0.7"/><line x1="-3.350" y1="-0.835" x2="-2.870" y2="-0.835" stroke="#6b7280" stroke-width="0.100" stroke-linecap="round" opacity="0.8"/><line x1="-3.350" y1="-0.435" x2="-3.350" y2="-0.835" stroke="#6b7280" stroke-width="0.100" stroke-linecap="round" opacity="0.8"/><line x1="-3.350" y1="-0.435" x2="-2.870" y2="-0.435" stroke="#6b7280" stroke-width="0.100" stroke-linecap="round" opacity="0.8"/><line x1="-3.350" y1="0.435" x2="-2.870" y2="0.435" stroke="#6b7280" stroke-width="0.100" stroke-linecap="round" opacity="0.8"/><line x1="-3.350" y1="0.835" x2="-3.350" y2="0.435" stroke="#6b7280" stroke-width="0.100" stroke-linecap="round" opacity="0.8"/><line x1="-3.350" y1="0.835" x2="-2.870" y2="0.835" stroke="#6b7280" stroke-width="0.100" stroke-linecap="round" opacity="0.8"/><line x1="-2.870" y1="-0.835" x2="-2.250" y2="-0.835" stroke="#6b7280" stroke-width="0.100" stroke-linecap="round" opacity="0.8"/><line x1="-2.870" y1="-0.435" x2="-2.870" y2="-0.835" stroke="#6b7280" stroke-width="0.100" stroke-linecap="round" opacity="0.8"/><line x1="-2.870" y1="-0.435" x2="-2.250" y2="-0.435" stroke="#6b7280" stroke-width="0.100" stroke-linecap="round" opacity="0.8"/><line x1="-2.870" y1="0.435" x2="-2.250" y2="0.435" stroke="#6b7280" stroke-width="0.100" stroke-linecap="round" opacity="0.8"/><line x1="-2.870" y1="0.835" x2="-2.870" y2="0.435" stroke="#6b7280" stroke-width="0.100" stroke-linecap="round" opacity="0.8"/><line x1="-2.870" y1="0.835" x2="-2.250" y2="0.835" stroke="#6b7280" stroke-width="0.100" stroke-linecap="round" opacity="0.8"/><line x1="-2.250" y1="-1.885" x2="2.250" y2="-1.885" stroke="#6b7280" stroke-width="0.100" stroke-linecap="round" opacity="0.8"/><line x1="-2.250" y1="1.885" x2="-2.250" y2="-1.885" stroke="#6b7280" stroke-width="0.100" stroke-linecap="round" opacity="0.8"/><line x1="-2.250" y1="1.885" x2="2.250" y2="1.885" stroke="#6b7280" stroke-width="0.100" stroke-linecap="round" opacity="0.8"/><line x1="-1.050" y1="-1.135" x2="1.050" y2="-1.135" stroke="#6b7280" stroke-width="0.100" stroke-linecap="round" opacity="0.8"/><line x1="-1.050" y1="-0.135" x2="-1.050" y2="-1.135" stroke="#6b7280" stroke-width="0.100" stroke-linecap="round" opacity="0.8"/><line x1="-1.050" y1="-0.135" x2="1.050" y2="-0.135" stroke="#6b7280" stroke-width="0.100" stroke-linecap="round" opacity="0.8"/><line x1="-1.050" y1="0.135" x2="1.050" y2="0.135" stroke="#6b7280" stroke-width="0.100" stroke-linecap="round" opacity="0.8"/><line x1="-1.050" y1="1.135" x2="-1.050" y2="0.135" stroke="#6b7280" stroke-width="0.100" stroke-linecap="round" opacity="0.8"/><line x1="-1.050" y1="1.135" x2="1.050" y2="1.135" stroke="#6b7280" stroke-width="0.100" stroke-linecap="round" opacity="0.8"/><line x1="0.200" y1="-0.135" x2="0.200" y2="-1.135" stroke="#6b7280" stroke-width="0.100" stroke-linecap="round" opacity="0.8"/><line x1="0.200" y1="1.135" x2="0.200" y2="0.135" stroke="#6b7280" stroke-width="0.100" stroke-linecap="round" opacity="0.8"/><line x1="0.300" y1="-0.135" x2="0.300" y2="-1.135" stroke="#6b7280" stroke-width="0.100" stroke-linecap="round" opacity="0.8"/><line x1="0.300" y1="1.135" x2="0.300" y2="0.135" stroke="#6b7280" stroke-width="0.100" stroke-linecap="round" opacity="0.8"/><line x1="0.400" y1="-0.135" x2="0.400" y2="-1.135" stroke="#6b7280" stroke-width="0.100" stroke-linecap="round" opacity="0.8"/><line x1="0.400" y1="1.135" x2="0.400" y2="0.135" stroke="#6b7280" stroke-width="0.100" stroke-linecap="round" opacity="0.8"/><line x1="0.500" y1="-0.135" x2="0.500" y2="-1.135" stroke="#6b7280" stroke-width="0.100" stroke-linecap="round" opacity="0.8"/><line x1="0.500" y1="1.135" x2="0.500" y2="0.135" stroke="#6b7280" stroke-width="0.100" stroke-linecap="round" opacity="0.8"/><line x1="0.600" y1="-0.135" x2="0.600" y2="-1.135" stroke="#6b7280" stroke-width="0.100" stroke-linecap="round" opacity="0.8"/><line x1="0.600" y1="1.135" x2="0.600" y2="0.135" stroke="#6b7280" stroke-width="0.100" stroke-linecap="round" opacity="0.8"/><line x1="0.700" y1="-0.135" x2="0.700" y2="-1.135" stroke="#6b7280" stroke-width="0.100" stroke-linecap="round" opacity="0.8"/><line x1="0.700" y1="1.135" x2="0.700" y2="0.135" stroke="#6b7280" stroke-width="0.100" stroke-linecap="round" opacity="0.8"/><line x1="0.800" y1="-0.135" x2="0.800" y2="-1.135" stroke="#6b7280" stroke-width="0.100" stroke-linecap="round" opacity="0.8"/><line x1="0.800" y1="1.135" x2="0.800" y2="0.135" stroke="#6b7280" stroke-width="0.100" stroke-linecap="round" opacity="0.8"/><line x1="0.900" y1="-0.135" x2="0.900" y2="-1.135" stroke="#6b7280" stroke-width="0.100" stroke-linecap="round" opacity="0.8"/><line x1="0.900" y1="1.135" x2="0.900" y2="0.135" stroke="#6b7280" stroke-width="0.100" stroke-linecap="round" opacity="0.8"/><line x1="1.000" y1="-0.135" x2="1.000" y2="-1.135" stroke="#6b7280" stroke-width="0.100" stroke-linecap="round" opacity="0.8"/><line x1="1.000" y1="1.135" x2="1.000" y2="0.135" stroke="#6b7280" stroke-width="0.100" stroke-linecap="round" opacity="0.8"/><line x1="1.050" y1="-0.135" x2="1.050" y2="-1.135" stroke="#6b7280" stroke-width="0.100" stroke-linecap="round" opacity="0.8"/><line x1="1.050" y1="1.135" x2="1.050" y2="0.135" stroke="#6b7280" stroke-width="0.100" stroke-linecap="round" opacity="0.8"/><line x1="2.250" y1="-0.835" x2="2.870" y2="-0.835" stroke="#6b7280" stroke-width="0.100" stroke-linecap="round" opacity="0.8"/><line x1="2.250" y1="-0.435" x2="2.870" y2="-0.435" stroke="#6b7280" stroke-width="0.100" stroke-linecap="round" opacity="0.8"/><line x1="2.250" y1="0.435" x2="2.870" y2="0.435" stroke="#6b7280" stroke-width="0.100" stroke-linecap="round" opacity="0.8"/><line x1="2.250" y1="0.835" x2="2.870" y2="0.835" stroke="#6b7280" stroke-width="0.100" stroke-linecap="round" opacity="0.8"/><line x1="2.250" y1="1.885" x2="2.250" y2="-1.885" stroke="#6b7280" stroke-width="0.100" stroke-linecap="round" opacity="0.8"/><line x1="2.870" y1="-0.835" x2="3.350" y2="-0.835" stroke="#6b7280" stroke-width="0.100" stroke-linecap="round" opacity="0.8"/><line x1="2.870" y1="-0.435" x2="2.870" y2="-0.835" stroke="#6b7280" stroke-width="0.100" stroke-linecap="round" opacity="0.8"/><line x1="2.870" y1="-0.435" x2="3.350" y2="-0.435" stroke="#6b7280" stroke-width="0.100" stroke-linecap="round" opacity="0.8"/><line x1="2.870" y1="0.435" x2="3.350" y2="0.435" stroke="#6b7280" stroke-width="0.100" stroke-linecap="round" opacity="0.8"/><line x1="2.870" y1="0.835" x2="2.870" y2="0.435" stroke="#6b7280" stroke-width="0.100" stroke-linecap="round" opacity="0.8"/><line x1="2.870" y1="0.835" x2="3.350" y2="0.835" stroke="#6b7280" stroke-width="0.100" stroke-linecap="round" opacity="0.8"/><line x1="3.350" y1="-0.435" x2="3.350" y2="-0.835" stroke="#6b7280" stroke-width="0.100" stroke-linecap="round" opacity="0.8"/><line x1="3.350" y1="0.835" x2="3.350" y2="0.435" stroke="#6b7280" stroke-width="0.100" stroke-linecap="round" opacity="0.8"/><circle cx="1.755" cy="-1.016" r="0.300" fill="none" stroke="#e6e9ef" stroke-width="0.12" opacity="1"/><rect x="-3.700" y="-1.015" width="1.250" height="0.760" rx="0.000" fill="#c79b5c"/><rect x="-3.700" y="0.255" width="1.250" height="0.760" rx="0.000" fill="#c79b5c"/><rect x="2.450" y="0.255" width="1.250" height="0.760" rx="0.000" fill="#c79b5c"/><rect x="2.450" y="-1.015" width="1.250" height="0.760" rx="0.000" fill="#c79b5c"/></svg>