<svg xmlns="http://www.w3.org/2000/svg" viewBox="-1.50 -6.26 51.48 8.52" preserveAspectRatio="xMidYMid meet" style="width:100%;height:100%"><rect x="-1.50" y="-6.26" width="51.48" height="8.52" fill="#12151c"/><g transform="translate(0.00 0)"><polyline points="1.524,-0.762 1.524,0.762" fill="none" stroke="#4ea1ff" stroke-width="0.25" stroke-linejoin="round"/><polyline points="1.524,0.762 6.096,0.762" fill="none" stroke="#4ea1ff" stroke-width="0.25" stroke-linejoin="round"/><polyline points="6.096,-0.762 1.524,-0.762" fill="none" stroke="#4ea1ff" stroke-width="0.25" stroke-linejoin="round"/><polyline points="6.096,0.762 6.096,-0.762" fill="none" stroke="#4ea1ff" stroke-width="0.25" stroke-linejoin="round"/><line x1="0.000" y1="-0.000" x2="1.524" y2="-0.000" stroke="#e6e9ef" stroke-width="0.2"/><circle cx="0.000" cy="-0.000" r="0.4" fill="#4ea1ff"/><line x1="7.620" y1="-0.000" x2="6.096" y2="-0.000" stroke="#e6e9ef" stroke-width="0.2"/><circle cx="7.620" cy="-0.000" r="0.4" fill="#4ea1ff"/><text x="3.81" y="-2.76" fill="#9aa3b2" font-size="1.6" text-anchor="middle" font-family="sans-serif">A</text></g><g transform="translate(13.62 0)"><polyline points="1.524,-0.762 1.524,0.762" fill="none" stroke="#4ea1ff" stroke-width="0.25" stroke-linejoin="round"/><polyline points="1.524,0.762 6.096,0.762" fill="none" stroke="#4ea1ff" stroke-width="0.25" stroke-linejoin="round"/><polyline points="6.096,-0.762 1.524,-0.762" fill="none" stroke="#4ea1ff" stroke-width="0.25" stroke-linejoin="round"/><polyline points="6.096,0.762 6.096,-0.762" fill="none" stroke="#4ea1ff" stroke-width="0.25" stroke-linejoin="round"/><line x1="0.000" y1="-0.000" x2="1.524" y2="-0.000" stroke="#e6e9ef" stroke-width="0.2"/><circle cx="0.000" cy="-0.000" r="0.4" fill="#4ea1ff"/><line x1="7.620" y1="-0.000" x2="6.096" y2="-0.000" stroke="#e6e9ef" stroke-width="0.2"/><circle cx="7.620" cy="-0.000" r="0.4" fill="#4ea1ff"/><text x="3.81" y="-2.76" fill="#9aa3b2" font-size="1.6" text-anchor="middle" font-family="sans-serif">B</text></g><g transform="translate(27.24 0)"><polyline points="1.524,-0.762 1.524,0.762" fill="none" stroke="#4ea1ff" stroke-width="0.25" stroke-linejoin="round"/><polyline points="1.524,0.762 6.096,0.762" fill="none" stroke="#4ea1ff" stroke-width="0.25" stroke-linejoin="round"/><polyline points="6.096,-0.762 1.524,-0.762" fill="none" stroke="#4ea1ff" stroke-width="0.25" stroke-linejoin="round"/><polyline points="6.096,0.762 6.096,-0.762" fill="none" stroke="#4ea1ff" stroke-width="0.25" stroke-linejoin="round"/><line x1="0.000" y1="-0.000" x2="1.524" y2="-0.000" stroke="#e6e9ef" stroke-width="0.2"/><circle cx="0.000" cy="-0.000" r="0.4" fill="#4ea1ff"/><line x1="7.620" y1="-0.000" x2="6.096" y2="-0.000" stroke="#e6e9ef" stroke-width="0.2"/><circle cx="7.620" cy="-0.000" r="0.4" fill="#4ea1ff"/><text x="3.81" y="-2.76" fill="#9aa3b2" font-size="1.6" text-anchor="middle" font-family="sans-serif">C</text></g><g transform="translate(40.86 0)"><polyline points="1.524,-0.762 1.524,0.762" fill="none" stroke="#4ea1ff" stroke-width="0.25" stroke-linejoin="round"/><polyline points="1.524,0.762 6.096,0.762" fill="none" stroke="#4ea1ff" stroke-width="0.25" stroke-linejoin="round"/><polyline points="6.096,-0.762 1.524,-0.762" fill="none" stroke="#4ea1ff" stroke-width="0.25" stroke-linejoin="round"/><polyline points="6.096,0.762 6.096,-0.762" fill="none" stroke="#4ea1ff" stroke-width="0.25" stroke-linejoin="round"/><line x1="0.000" y1="-0.000" x2="1.524" y2="-0.000" stroke="#e6e9ef" stroke-width="0.2"/><circle cx="0.000" cy="-0.000" r="0.4" fill="#4ea1ff"/><line x1="7.620" y1="-0.000" x2="6.096" y2="-0.000" stroke="#e6e9ef" stroke-width="0.2"/><circle cx="7.620" cy="-0.000" r="0.4" fill="#4ea1ff"/><text x="3.81" y="-2.76" fill="#9aa3b2" font-size="1.6" text-anchor="middle" font-family="sans-serif">D</text></g></svg>