<svg xmlns="http://www.w3.org/2000/svg" viewBox="-4.75 -4.10 9.50 8.20" preserveAspectRatio="xMidYMid meet" style="width:100%;height:100%"><rect x="-4.75" y="-4.10" width="9.50" height="8.20" fill="#12151c"/><line x1="-3.500" y1="1.850" x2="-3.500" y2="-0.900" stroke="#e6e9ef" stroke-width="0.200" stroke-linecap="round" opacity="1"/><line x1="-2.500" y1="-2.850" x2="2.500" y2="-2.850" stroke="#e6e9ef" stroke-width="0.200" stroke-linecap="round" opacity="1"/><line x1="-2.500" y1="2.850" x2="2.500" y2="2.850" stroke="#e6e9ef" stroke-width="0.200" stroke-linecap="round" opacity="1"/><line x1="3.500" y1="0.900" x2="3.500" y2="-1.850" stroke="#e6e9ef" stroke-width="0.200" stroke-linecap="round" opacity="1"/><line x1="-3.500" y1="1.850" x2="-3.500" y2="-1.850" stroke="#6b7280" stroke-width="0.100" stroke-linecap="round" opacity="0.8"/><line x1="-2.500" y1="-2.850" x2="2.500" y2="-2.850" stroke="#6b7280" stroke-width="0.100" stroke-linecap="round" opacity="0.8"/><line x1="-2.500" y1="2.850" x2="2.500" y2="2.850" stroke="#6b7280" stroke-width="0.100" stroke-linecap="round" opacity="0.8"/><line x1="3.500" y1="1.850" x2="3.500" y2="-1.850" stroke="#6b7280" stroke-width="0.100" stroke-linecap="round" opacity="0.8"/><line x1="-3.750" y1="-3.100" x2="3.750" y2="-3.100" stroke="#d24d4d" stroke-width="0.080" stroke-linecap="round" opacity="0.7"/><line x1="3.750" y1="-3.100" x2="3.750" y2="3.100" stroke="#d24d4d" stroke-width="0.080" stroke-linecap="round" opacity="0.7"/><line x1="3.750" y1="3.100" x2="-3.750" y2="3.100" stroke="#d24d4d" stroke-width="0.080" stroke-linecap="round" opacity="0.7"/><line x1="-3.750" y1="3.100" x2="-3.750" y2="-3.100" stroke="#d24d4d" stroke-width="0.080" stroke-linecap="round" opacity="0.7"/><path d="M -3.266 -2.493 A 1.000 1.000 0 0 1 -2.500 -2.850" fill="none" stroke="#e6e9ef" stroke-width="0.12" opacity="1"/><path d="M -2.500 2.850 A 1.000 1.000 0 0 1 -3.500 1.850" fill="none" stroke="#e6e9ef" stroke-width="0.12" opacity="1"/><path d="M 2.500 -2.850 A 1.000 1.000 0 0 1 3.500 -1.850" fill="none" stroke="#e6e9ef" stroke-width="0.12" opacity="1"/><path d="M 3.266 2.493 A 1.000 1.000 0 0 1 2.500 2.850" fill="none" stroke="#e6e9ef" stroke-width="0.12" opacity="1"/><path d="M -3.500 -1.850 A 1.000 1.000 0 0 1 -2.500 -2.850" fill="none" stroke="#6b7280" stroke-width="0.12" opacity="0.8"/><path d="M -2.500 2.850 A 1.000 1.000 0 0 1 -3.500 1.850" fill="none" stroke="#6b7280" stroke-width="0.12" opacity="0.8"/><path d="M 2.500 -2.850 A 1.000 1.000 0 0 1 3.500 -1.850" fill="none" stroke="#6b7280" stroke-width="0.12" opacity="0.8"/><path d="M 3.500 1.850 A 1.000 1.000 0 0 1 2.500 2.850" fill="none" stroke="#6b7280" stroke-width="0.12" opacity="0.8"/><rect x="-3.240" y="-2.287" width="1.400" height="1.400" rx="0.700" fill="#c79b5c"/><circle cx="-2.540" cy="-1.587" r="0.450" fill="#12151c"/><rect x="1.840" y="0.887" width="1.400" height="1.400" rx="0.700" fill="#c79b5c"/><circle cx="2.540" cy="1.587" r="0.450" fill="#12151c"/></svg>