<svg xmlns="http://www.w3.org/2000/svg" viewBox="-34.35 -33.25 68.70 66.50" preserveAspectRatio="xMidYMid meet" style="width:100%;height:100%"><rect x="-34.35" y="-33.25" width="68.70" height="66.50" fill="#12151c"/><line x1="-33.100" y1="-32.000" x2="33.100" y2="-32.000" stroke="#e6e9ef" stroke-width="0.200" stroke-linecap="round" opacity="1"/><line x1="-33.100" y1="32.000" x2="-33.100" y2="-32.000" stroke="#e6e9ef" stroke-width="0.200" stroke-linecap="round" opacity="1"/><line x1="-33.100" y1="32.000" x2="33.100" y2="32.000" stroke="#e6e9ef" stroke-width="0.200" stroke-linecap="round" opacity="1"/><line x1="33.100" y1="32.000" x2="33.100" y2="-32.000" stroke="#e6e9ef" stroke-width="0.200" stroke-linecap="round" opacity="1"/><line x1="-28.440" y1="-17.780" x2="-27.940" y2="-17.780" stroke="#4a5160" stroke-width="0.100" stroke-linecap="round" opacity="0.7"/><line x1="-28.440" y1="-12.700" x2="-27.940" y2="-12.700" stroke="#4a5160" stroke-width="0.100" stroke-linecap="round" opacity="0.7"/><line x1="-28.440" y1="-7.620" x2="-27.940" y2="-7.620" stroke="#4a5160" stroke-width="0.100" stroke-linecap="round" opacity="0.7"/><line x1="-28.440" y1="-2.540" x2="-27.940" y2="-2.540" stroke="#4a5160" stroke-width="0.100" stroke-linecap="round" opacity="0.7"/><line x1="-28.440" y1="2.540" x2="-27.940" y2="2.540" stroke="#4a5160" stroke-width="0.100" stroke-linecap="round" opacity="0.7"/><line x1="-28.440" y1="7.620" x2="-27.940" y2="7.620" stroke="#4a5160" stroke-width="0.100" stroke-linecap="round" opacity="0.7"/><line x1="-28.440" y1="12.700" x2="-27.940" y2="12.700" stroke="#4a5160" stroke-width="0.100" stroke-linecap="round" opacity="0.7"/><line x1="-27.940" y1="-17.780" x2="-27.940" y2="-18.280" stroke="#4a5160" stroke-width="0.100" stroke-linecap="round" opacity="0.7"/><line x1="-27.940" y1="-17.780" x2="-27.440" y2="-17.780" stroke="#4a5160" stroke-width="0.100" stroke-linecap="round" opacity="0.7"/><line x1="-27.940" y1="-17.280" x2="-27.940" y2="-17.780" stroke="#4a5160" stroke-width="0.100" stroke-linecap="round" opacity="0.7"/><line x1="-27.940" y1="-12.700" x2="-27.940" y2="-13.200" stroke="#4a5160" stroke-width="0.100" stroke-linecap="round" opacity="0.7"/><line x1="-27.940" y1="-12.700" x2="-27.440" y2="-12.700" stroke="#4a5160" stroke-width="0.100" stroke-linecap="round" opacity="0.7"/><line x1="-27.940" y1="-12.200" x2="-27.940" y2="-12.700" stroke="#4a5160" stroke-width="0.100" stroke-linecap="round" opacity="0.7"/><line x1="-27.940" y1="-7.620" x2="-27.940" y2="-8.120" stroke="#4a5160" stroke-width="0.100" stroke-linecap="round" opacity="0.7"/><line x1="-27.940" y1="-7.620" x2="-27.440" y2="-7.620" stroke="#4a5160" stroke-width="0.100" stroke-linecap="round" opacity="0.7"/><line x1="-27.940" y1="-7.120" x2="-27.940" y2="-7.620" stroke="#4a5160" stroke-width="0.100" stroke-linecap="round" opacity="0.7"/><line x1="-27.940" y1="-2.540" x2="-27.940" y2="-3.040" stroke="#4a5160" stroke-width="0.100" stroke-linecap="round" opacity="0.7"/><line x1="-27.940" y1="-2.540" x2="-27.440" y2="-2.540" stroke="#4a5160" stroke-width="0.100" stroke-linecap="round" opacity="0.7"/><line x1="-27.940" y1="-2.040" x2="-27.940" y2="-2.540" stroke="#4a5160" stroke-width="0.100" stroke-linecap="round" opacity="0.7"/><line x1="-27.940" y1="2.540" x2="-27.940" y2="2.040" stroke="#4a5160" stroke-width="0.100" stroke-linecap="round" opacity="0.7"/><line x1="-27.940" y1="2.540" x2="-27.440" y2="2.540" stroke="#4a5160" stroke-width="0.100" stroke-linecap="round" opacity="0.7"/><line x1="-27.940" y1="3.040" x2="-27.940" y2="2.540" stroke="#4a5160" stroke-width="0.100" stroke-linecap="round" opacity="0.7"/><line x1="-27.940" y1="7.620" x2="-27.940" y2="7.120" stroke="#4a5160" stroke-width="0.100" stroke-linecap="round" opacity="0.7"/><line x1="-27.940" y1="7.620" x2="-27.440" y2="7.620" stroke="#4a5160" stroke-width="0.100" stroke-linecap="round" opacity="0.7"/><line x1="-27.940" y1="8.120" x2="-27.940" y2="7.620" stroke="#4a5160" stroke-width="0.100" stroke-linecap="round" opacity="0.7"/><line x1="-27.940" y1="12.700" x2="-27.940" y2="12.200" stroke="#4a5160" stroke-width="0.100" stroke-linecap="round" opacity="0.7"/><line x1="-27.940" y1="12.700" x2="-27.440" y2="12.700" stroke="#4a5160" stroke-width="0.100" stroke-linecap="round" opacity="0.7"/><line x1="-27.940" y1="13.200" x2="-27.940" y2="12.700" stroke="#4a5160" stroke-width="0.100" stroke-linecap="round" opacity="0.7"/><line x1="-2.500" y1="-20.500" x2="-2.000" y2="-20.500" stroke="#4a5160" stroke-width="0.100" stroke-linecap="round" opacity="0.7"/><line x1="-2.000" y1="-20.500" x2="-2.000" y2="-21.000" stroke="#4a5160" stroke-width="0.100" stroke-linecap="round" opacity="0.7"/><line x1="-2.000" y1="-20.500" x2="-1.500" y2="-20.500" stroke="#4a5160" stroke-width="0.100" stroke-linecap="round" opacity="0.7"/><line x1="-2.000" y1="-20.000" x2="-2.000" y2="-20.500" stroke="#4a5160" stroke-width="0.100" stroke-linecap="round" opacity="0.7"/><line x1="-0.500" y1="0.000" x2="0.000" y2="0.000" stroke="#4a5160" stroke-width="0.100" stroke-linecap="round" opacity="0.7"/><line x1="-0.300" y1="17.400" x2="0.200" y2="17.400" stroke="#4a5160" stroke-width="0.100" stroke-linecap="round" opacity="0.7"/><line x1="0.000" y1="0.000" x2="0.000" y2="-0.500" stroke="#4a5160" stroke-width="0.100" stroke-linecap="round" opacity="0.7"/><line x1="0.000" y1="0.000" x2="0.500" y2="0.000" stroke="#4a5160" stroke-width="0.100" stroke-linecap="round" opacity="0.7"/><line x1="0.000" y1="0.500" x2="0.000" y2="0.000" stroke="#4a5160" stroke-width="0.100" stroke-linecap="round" opacity="0.7"/><line x1="0.200" y1="17.400" x2="0.200" y2="16.900" stroke="#4a5160" stroke-width="0.100" stroke-linecap="round" opacity="0.7"/><line x1="0.200" y1="17.400" x2="0.700" y2="17.400" stroke="#4a5160" stroke-width="0.100" stroke-linecap="round" opacity="0.7"/><line x1="0.200" y1="17.900" x2="0.200" y2="17.400" stroke="#4a5160" stroke-width="0.100" stroke-linecap="round" opacity="0.7"/><line x1="27.365" y1="17.205" x2="28.515" y2="17.205" stroke="#4a5160" stroke-width="0.100" stroke-linecap="round" opacity="0.7"/><line x1="27.365" y1="18.355" x2="27.365" y2="17.205" stroke="#4a5160" stroke-width="0.100" stroke-linecap="round" opacity="0.7"/><line x1="27.365" y1="18.355" x2="28.515" y2="18.355" stroke="#4a5160" stroke-width="0.100" stroke-linecap="round" opacity="0.7"/><line x1="27.440" y1="-17.780" x2="27.940" y2="-17.780" stroke="#4a5160" stroke-width="0.100" stroke-linecap="round" opacity="0.7"/><line x1="27.440" y1="-12.700" x2="27.940" y2="-12.700" stroke="#4a5160" stroke-width="0.100" stroke-linecap="round" opacity="0.7"/><line x1="27.440" y1="-7.620" x2="27.940" y2="-7.620" stroke="#4a5160" stroke-width="0.100" stroke-linecap="round" opacity="0.7"/><line x1="27.440" y1="-2.540" x2="27.940" y2="-2.540" stroke="#4a5160" stroke-width="0.100" stroke-linecap="round" opacity="0.7"/><line x1="27.440" y1="2.540" x2="27.940" y2="2.540" stroke="#4a5160" stroke-width="0.100" stroke-linecap="round" opacity="0.7"/><line x1="27.440" y1="7.620" x2="27.940" y2="7.620" stroke="#4a5160" stroke-width="0.100" stroke-linecap="round" opacity="0.7"/><line x1="27.440" y1="12.700" x2="27.940" y2="12.700" stroke="#4a5160" stroke-width="0.100" stroke-linecap="round" opacity="0.7"/><line x1="27.440" y1="17.780" x2="27.940" y2="17.780" stroke="#4a5160" stroke-width="0.100" stroke-linecap="round" opacity="0.7"/><line x1="27.940" y1="-17.780" x2="27.940" y2="-18.280" stroke="#4a5160" stroke-width="0.100" stroke-linecap="round" opacity="0.7"/><line x1="27.940" y1="-17.780" x2="28.440" y2="-17.780" stroke="#4a5160" stroke-width="0.100" stroke-linecap="round" opacity="0.7"/><line x1="27.940" y1="-17.280" x2="27.940" y2="-17.780" stroke="#4a5160" stroke-width="0.100" stroke-linecap="round" opacity="0.7"/><line x1="27.940" y1="-12.700" x2="27.940" y2="-13.200" stroke="#4a5160" stroke-width="0.100" stroke-linecap="round" opacity="0.7"/><line x1="27.940" y1="-12.700" x2="28.440" y2="-12.700" stroke="#4a5160" stroke-width="0.100" stroke-linecap="round" opacity="0.7"/><line x1="27.940" y1="-12.200" x2="27.940" y2="-12.700" stroke="#4a5160" stroke-width="0.100" stroke-linecap="round" opacity="0.7"/><line x1="27.940" y1="-7.620" x2="27.940" y2="-8.120" stroke="#4a5160" stroke-width="0.100" stroke-linecap="round" opacity="0.7"/><line x1="27.940" y1="-7.620" x2="28.440" y2="-7.620" stroke="#4a5160" stroke-width="0.100" stroke-linecap="round" opacity="0.7"/><line x1="27.940" y1="-7.120" x2="27.940" y2="-7.620" stroke="#4a5160" stroke-width="0.100" stroke-linecap="round" opacity="0.7"/><line x1="27.940" y1="-2.540" x2="27.940" y2="-3.040" stroke="#4a5160" stroke-width="0.100" stroke-linecap="round" opacity="0.7"/><line x1="27.940" y1="-2.540" x2="28.440" y2="-2.540" stroke="#4a5160" stroke-width="0.100" stroke-linecap="round" opacity="0.7"/><line x1="27.940" y1="-2.040" x2="27.940" y2="-2.540" stroke="#4a5160" stroke-width="0.100" stroke-linecap="round" opacity="0.7"/><line x1="27.940" y1="2.540" x2="27.940" y2="2.040" stroke="#4a5160" stroke-width="0.100" stroke-linecap="round" opacity="0.7"/><line x1="27.940" y1="2.540" x2="28.440" y2="2.540" stroke="#4a5160" stroke-width="0.100" stroke-linecap="round" opacity="0.7"/><line x1="27.940" y1="3.040" x2="27.940" y2="2.540" stroke="#4a5160" stroke-width="0.100" stroke-linecap="round" opacity="0.7"/><line x1="27.940" y1="7.620" x2="27.940" y2="7.120" stroke="#4a5160" stroke-width="0.100" stroke-linecap="round" opacity="0.7"/><line x1="27.940" y1="7.620" x2="28.440" y2="7.620" stroke="#4a5160" stroke-width="0.100" stroke-linecap="round" opacity="0.7"/><line x1="27.940" y1="8.120" x2="27.940" y2="7.620" stroke="#4a5160" stroke-width="0.100" stroke-linecap="round" opacity="0.7"/><line x1="27.940" y1="12.700" x2="27.940" y2="12.200" stroke="#4a5160" stroke-width="0.100" stroke-linecap="round" opacity="0.7"/><line x1="27.940" y1="12.700" x2="28.440" y2="12.700" stroke="#4a5160" stroke-width="0.100" stroke-linecap="round" opacity="0.7"/><line x1="27.940" y1="13.200" x2="27.940" y2="12.700" stroke="#4a5160" stroke-width="0.100" stroke-linecap="round" opacity="0.7"/><line x1="27.940" y1="17.780" x2="27.940" y2="17.280" stroke="#4a5160" stroke-width="0.100" stroke-linecap="round" opacity="0.7"/><line x1="27.940" y1="17.780" x2="28.440" y2="17.780" stroke="#4a5160" stroke-width="0.100" stroke-linecap="round" opacity="0.7"/><line x1="27.940" y1="18.280" x2="27.940" y2="17.780" stroke="#4a5160" stroke-width="0.100" stroke-linecap="round" opacity="0.7"/><line x1="28.515" y1="18.355" x2="28.515" y2="17.205" stroke="#4a5160" stroke-width="0.100" stroke-linecap="round" opacity="0.7"/><line x1="-33.100" y1="-32.000" x2="33.100" y2="-32.000" stroke="#6b7280" stroke-width="0.100" stroke-linecap="round" opacity="0.8"/><line x1="-33.100" y1="32.000" x2="-33.100" y2="-32.000" stroke="#6b7280" stroke-width="0.100" stroke-linecap="round" opacity="0.8"/><line x1="-33.100" y1="32.000" x2="33.100" y2="32.000" stroke="#6b7280" stroke-width="0.100" stroke-linecap="round" opacity="0.8"/><line x1="33.100" y1="32.000" x2="33.100" y2="-32.000" stroke="#6b7280" stroke-width="0.100" stroke-linecap="round" opacity="0.8"/><line x1="-33.350" y1="-32.250" x2="33.350" y2="-32.250" stroke="#d24d4d" stroke-width="0.080" stroke-linecap="round" opacity="0.7"/><line x1="33.350" y1="-32.250" x2="33.350" y2="32.250" stroke="#d24d4d" stroke-width="0.080" stroke-linecap="round" opacity="0.7"/><line x1="33.350" y1="32.250" x2="-33.350" y2="32.250" stroke="#d24d4d" stroke-width="0.080" stroke-linecap="round" opacity="0.7"/><line x1="-33.350" y1="32.250" x2="-33.350" y2="-32.250" stroke="#d24d4d" stroke-width="0.080" stroke-linecap="round" opacity="0.7"/><circle cx="-2.000" cy="-20.500" r="2.500" fill="none" stroke="#4a5160" stroke-width="0.12" opacity="0.7"/><circle cx="0.200" cy="17.400" r="2.500" fill="none" stroke="#4a5160" stroke-width="0.12" opacity="0.7"/><circle cx="27.940" cy="17.780" r="1.800" fill="none" stroke="#4a5160" stroke-width="0.12" opacity="0.7"/><circle cx="27.940" cy="17.780" r="0.900" fill="none" stroke="#4a5160" stroke-width="0.12" opacity="0.7"/><circle cx="-2.000" cy="-20.500" r="0.500" fill="none" stroke="#6b7280" stroke-width="0.1"/><circle cx="0.200" cy="17.400" r="0.500" fill="none" stroke="#6b7280" stroke-width="0.1"/><rect x="-29.190" y="-19.030" width="2.500" height="2.500" rx="1.250" fill="#c79b5c"/><circle cx="-27.940" cy="-17.780" r="0.900" fill="#12151c"/><rect x="-29.190" y="-13.950" width="2.500" height="2.500" rx="1.250" fill="#c79b5c"/><circle cx="-27.940" cy="-12.700" r="0.900" fill="#12151c"/><rect x="-29.190" y="-8.870" width="2.500" height="2.500" rx="1.250" fill="#c79b5c"/><circle cx="-27.940" cy="-7.620" r="0.900" fill="#12151c"/><rect x="-29.190" y="-3.790" width="2.500" height="2.500" rx="1.250" fill="#c79b5c"/><circle cx="-27.940" cy="-2.540" r="0.900" fill="#12151c"/><rect x="-29.190" y="1.290" width="2.500" height="2.500" rx="1.250" fill="#c79b5c"/><circle cx="-27.940" cy="2.540" r="0.900" fill="#12151c"/><rect x="-29.190" y="6.370" width="2.500" height="2.500" rx="1.250" fill="#c79b5c"/><circle cx="-27.940" cy="7.620" r="0.900" fill="#12151c"/><rect x="-29.190" y="11.450" width="2.500" height="2.500" rx="1.250" fill="#c79b5c"/><circle cx="-27.940" cy="12.700" r="0.900" fill="#12151c"/><rect x="-29.190" y="16.530" width="2.500" height="2.500" rx="1.250" fill="#c79b5c"/><circle cx="-27.940" cy="17.780" r="0.900" fill="#12151c"/><rect x="26.690" y="16.530" width="2.500" height="2.500" rx="1.250" fill="#c79b5c"/><circle cx="27.940" cy="17.780" r="0.900" fill="#12151c"/><rect x="26.690" y="11.450" width="2.500" height="2.500" rx="1.250" fill="#c79b5c"/><circle cx="27.940" cy="12.700" r="0.900" fill="#12151c"/><rect x="26.690" y="6.370" width="2.500" height="2.500" rx="1.250" fill="#c79b5c"/><circle cx="27.940" cy="7.620" r="0.900" fill="#12151c"/><rect x="26.690" y="1.290" width="2.500" height="2.500" rx="1.250" fill="#c79b5c"/><circle cx="27.940" cy="2.540" r="0.900" fill="#12151c"/><rect x="26.690" y="-3.790" width="2.500" height="2.500" rx="1.250" fill="#c79b5c"/><circle cx="27.940" cy="-2.540" r="0.900" fill="#12151c"/><rect x="26.690" y="-8.870" width="2.500" height="2.500" rx="1.250" fill="#c79b5c"/><circle cx="27.940" cy="-7.620" r="0.900" fill="#12151c"/><rect x="26.690" y="-13.950" width="2.500" height="2.500" rx="1.250" fill="#c79b5c"/><circle cx="27.940" cy="-12.700" r="0.900" fill="#12151c"/><rect x="26.690" y="-19.030" width="2.500" height="2.500" rx="1.250" fill="#c79b5c"/><circle cx="27.940" cy="-17.780" r="0.900" fill="#12151c"/></svg>