<svg xmlns="http://www.w3.org/2000/svg" viewBox="-9.97 -4.92 19.94 19.96" preserveAspectRatio="xMidYMid meet" style="width:100%;height:100%"><rect x="-9.97" y="-4.92" width="19.94" height="19.96" fill="#12151c"/><line x1="-8.770" y1="-3.920" x2="8.770" y2="-3.920" stroke="#d24d4d" stroke-width="0.080" stroke-linecap="round" opacity="0.7"/><line x1="8.770" y1="-3.920" x2="8.770" y2="14.040" stroke="#d24d4d" stroke-width="0.080" stroke-linecap="round" opacity="0.7"/><line x1="8.770" y1="14.040" x2="-8.770" y2="14.040" stroke="#d24d4d" stroke-width="0.080" stroke-linecap="round" opacity="0.7"/><line x1="-8.770" y1="14.040" x2="-8.770" y2="-3.920" stroke="#d24d4d" stroke-width="0.080" stroke-linecap="round" opacity="0.7"/><path d="M -6.900 -3.180 A 0.500 0.500 0 0 1 -6.550 -3.652" fill="none" stroke="#e6e9ef" stroke-width="0.12" opacity="1"/><path d="M -6.550 13.185 A 0.300 0.300 0 0 1 -6.850 13.485" fill="none" stroke="#e6e9ef" stroke-width="0.12" opacity="1"/><path d="M -6.250 13.185 A 0.600 0.600 0 0 1 -6.850 13.785" fill="none" stroke="#e6e9ef" stroke-width="0.12" opacity="1"/><path d="M -4.750 7.127 A 0.250 0.250 0 1 1 -4.255 7.058" fill="none" stroke="#e6e9ef" stroke-width="0.12" opacity="1"/><path d="M -3.680 12.885 A 0.300 0.300 0 0 1 -3.977 12.627" fill="none" stroke="#e6e9ef" stroke-width="0.12" opacity="1"/><path d="M -2.441 11.799 A 0.606 0.606 0 0 1 -3.559 11.799" fill="none" stroke="#e6e9ef" stroke-width="0.12" opacity="1"/><path d="M -2.023 12.627 A 0.300 0.300 0 0 1 -2.320 12.885" fill="none" stroke="#e6e9ef" stroke-width="0.12" opacity="1"/><path d="M -1.745 7.058 A 0.250 0.250 0 1 1 -1.250 7.127" fill="none" stroke="#e6e9ef" stroke-width="0.12" opacity="1"/><path d="M -0.720 7.319 A 0.300 0.300 0 0 1 -0.420 7.035" fill="none" stroke="#e6e9ef" stroke-width="0.12" opacity="1"/><path d="M -0.451 11.742 A 0.250 0.250 0 0 1 -0.950 11.729" fill="none" stroke="#e6e9ef" stroke-width="0.12" opacity="1"/><path d="M -0.256 8.117 A 0.263 0.263 0 0 1 0.256 8.117" fill="none" stroke="#e6e9ef" stroke-width="0.12" opacity="1"/><path d="M 0.420 7.035 A 0.300 0.300 0 0 1 0.720 7.319" fill="none" stroke="#e6e9ef" stroke-width="0.12" opacity="1"/><path d="M 0.950 11.716 A 0.250 0.250 0 0 1 0.451 11.742" fill="none" stroke="#e6e9ef" stroke-width="0.12" opacity="1"/><path d="M 1.250 7.127 A 0.250 0.250 0 1 1 1.745 7.058" fill="none" stroke="#e6e9ef" stroke-width="0.12" opacity="1"/><path d="M 2.320 12.885 A 0.300 0.300 0 0 1 2.023 12.627" fill="none" stroke="#e6e9ef" stroke-width="0.12" opacity="1"/><path d="M 3.556 11.815 A 0.609 0.609 0 0 1 2.441 11.799" fill="none" stroke="#e6e9ef" stroke-width="0.12" opacity="1"/><path d="M 3.977 12.627 A 0.300 0.300 0 0 1 3.680 12.885" fill="none" stroke="#e6e9ef" stroke-width="0.12" opacity="1"/><path d="M 4.255 7.058 A 0.250 0.250 0 1 1 4.750 7.127" fill="none" stroke="#e6e9ef" stroke-width="0.12" opacity="1"/><path d="M 6.550 -3.652 A 0.500 0.500 0 0 1 6.900 -3.180" fill="none" stroke="#e6e9ef" stroke-width="0.12" opacity="1"/><path d="M 6.850 13.485 A 0.300 0.300 0 0 1 6.550 13.185" fill="none" stroke="#e6e9ef" stroke-width="0.12" opacity="1"/><path d="M 6.850 13.785 A 0.600 0.600 0 0 1 6.250 13.185" fill="none" stroke="#e6e9ef" stroke-width="0.12" opacity="1"/><path d="M -6.900 -3.175 A 0.500 0.500 0 0 1 -6.550 -3.652" fill="none" stroke="#6b7280" stroke-width="0.12" opacity="0.8"/><path d="M -6.550 13.185 A 0.300 0.300 0 0 1 -6.850 13.485" fill="none" stroke="#6b7280" stroke-width="0.12" opacity="0.8"/><path d="M -6.250 13.185 A 0.600 0.600 0 0 1 -6.850 13.785" fill="none" stroke="#6b7280" stroke-width="0.12" opacity="0.8"/><path d="M -4.750 7.127 A 0.250 0.250 0 1 1 -4.255 7.058" fill="none" stroke="#6b7280" stroke-width="0.12" opacity="0.8"/><path d="M -3.680 12.885 A 0.300 0.300 0 0 1 -3.977 12.627" fill="none" stroke="#6b7280" stroke-width="0.12" opacity="0.8"/><path d="M -2.441 11.799 A 0.606 0.606 0 0 1 -3.559 11.799" fill="none" stroke="#6b7280" stroke-width="0.12" opacity="0.8"/><path d="M -2.023 12.627 A 0.300 0.300 0 0 1 -2.320 12.885" fill="none" stroke="#6b7280" stroke-width="0.12" opacity="0.8"/><path d="M -1.745 7.058 A 0.250 0.250 0 1 1 -1.250 7.127" fill="none" stroke="#6b7280" stroke-width="0.12" opacity="0.8"/><path d="M -0.720 7.319 A 0.300 0.300 0 0 1 -0.420 7.035" fill="none" stroke="#6b7280" stroke-width="0.12" opacity="0.8"/><path d="M -0.451 11.742 A 0.250 0.250 0 0 1 -0.950 11.729" fill="none" stroke="#6b7280" stroke-width="0.12" opacity="0.8"/><path d="M -0.256 8.117 A 0.263 0.263 0 0 1 0.256 8.117" fill="none" stroke="#6b7280" stroke-width="0.12" opacity="0.8"/><path d="M 0.420 7.035 A 0.300 0.300 0 0 1 0.720 7.319" fill="none" stroke="#6b7280" stroke-width="0.12" opacity="0.8"/><path d="M 0.950 11.716 A 0.250 0.250 0 0 1 0.451 11.742" fill="none" stroke="#6b7280" stroke-width="0.12" opacity="0.8"/><path d="M 1.250 7.127 A 0.250 0.250 0 1 1 1.745 7.058" fill="none" stroke="#6b7280" stroke-width="0.12" opacity="0.8"/><path d="M 2.320 12.885 A 0.300 0.300 0 0 1 2.023 12.627" fill="none" stroke="#6b7280" stroke-width="0.12" opacity="0.8"/><path d="M 3.556 11.815 A 0.609 0.609 0 0 1 2.441 11.799" fill="none" stroke="#6b7280" stroke-width="0.12" opacity="0.8"/><path d="M 3.977 12.627 A 0.300 0.300 0 0 1 3.680 12.885" fill="none" stroke="#6b7280" stroke-width="0.12" opacity="0.8"/><path d="M 4.255 7.058 A 0.250 0.250 0 1 1 4.750 7.127" fill="none" stroke="#6b7280" stroke-width="0.12" opacity="0.8"/><path d="M 6.550 -3.652 A 0.500 0.500 0 0 1 6.900 -3.175" fill="none" stroke="#6b7280" stroke-width="0.12" opacity="0.8"/><path d="M 6.850 13.485 A 0.300 0.300 0 0 1 6.550 13.185" fill="none" stroke="#6b7280" stroke-width="0.12" opacity="0.8"/><path d="M 6.850 13.785 A 0.600 0.600 0 0 1 6.250 13.185" fill="none" stroke="#6b7280" stroke-width="0.12" opacity="0.8"/><rect x="-4.150" y="1.700" width="1.300" height="1.300" rx="0.650" fill="#c79b5c"/><circle cx="-3.500" cy="2.350" r="0.350" fill="#12151c"/><rect x="-1.650" y="1.700" width="1.300" height="1.300" rx="0.650" fill="#c79b5c"/><circle cx="-1.000" cy="2.350" r="0.350" fill="#12151c"/><rect x="0.350" y="1.700" width="1.300" height="1.300" rx="0.650" fill="#c79b5c"/><circle cx="1.000" cy="2.350" r="0.350" fill="#12151c"/><rect x="2.850" y="1.700" width="1.300" height="1.300" rx="0.650" fill="#c79b5c"/><circle cx="3.500" cy="2.350" r="0.350" fill="#12151c"/><rect x="3.350" y="0.200" width="1.300" height="1.300" rx="0.650" fill="#c79b5c"/><circle cx="4.000" cy="0.850" r="0.350" fill="#12151c"/><rect x="1.350" y="0.200" width="1.300" height="1.300" rx="0.650" fill="#c79b5c"/><circle cx="2.000" cy="0.850" r="0.350" fill="#12151c"/><rect x="-0.650" y="0.200" width="1.300" height="1.300" rx="0.650" fill="#c79b5c"/><circle cx="-0.000" cy="0.850" r="0.350" fill="#12151c"/><rect x="-2.650" y="0.200" width="1.300" height="1.300" rx="0.650" fill="#c79b5c"/><circle cx="-2.000" cy="0.850" r="0.350" fill="#12151c"/><rect x="-4.650" y="0.200" width="1.300" height="1.300" rx="0.650" fill="#c79b5c"/><circle cx="-4.000" cy="0.850" r="0.350" fill="#12151c"/><rect x="-4.150" y="-1.500" width="1.300" height="1.300" rx="0.650" fill="#c79b5c"/><circle cx="-3.500" cy="-0.850" r="0.350" fill="#12151c"/><rect x="-1.650" y="-1.500" width="1.300" height="1.300" rx="0.650" fill="#c79b5c"/><circle cx="-1.000" cy="-0.850" r="0.350" fill="#12151c"/><rect x="0.350" y="-1.500" width="1.300" height="1.300" rx="0.650" fill="#c79b5c"/><circle cx="1.000" cy="-0.850" r="0.350" fill="#12151c"/><rect x="2.850" y="-1.500" width="1.300" height="1.300" rx="0.650" fill="#c79b5c"/><circle cx="3.500" cy="-0.850" r="0.350" fill="#12151c"/><rect x="3.350" y="-3.000" width="1.300" height="1.300" rx="0.650" fill="#c79b5c"/><circle cx="4.000" cy="-2.350" r="0.350" fill="#12151c"/><rect x="1.350" y="-3.000" width="1.300" height="1.300" rx="0.650" fill="#c79b5c"/><circle cx="2.000" cy="-2.350" r="0.350" fill="#12151c"/><rect x="-0.650" y="-3.000" width="1.300" height="1.300" rx="0.650" fill="#c79b5c"/><circle cx="-0.000" cy="-2.350" r="0.350" fill="#12151c"/><rect x="-2.650" y="-3.000" width="1.300" height="1.300" rx="0.650" fill="#c79b5c"/><circle cx="-2.000" cy="-2.350" r="0.350" fill="#12151c"/><rect x="-4.650" y="-3.000" width="1.300" height="1.300" rx="0.650" fill="#c79b5c"/><circle cx="-4.000" cy="-2.350" r="0.350" fill="#12151c"/><rect x="-8.520" y="2.850" width="3.900" height="3.000" rx="1.500" fill="#c79b5c"/><circle cx="-6.570" cy="4.350" r="1.150" fill="#12151c"/><rect x="4.620" y="2.850" width="3.900" height="3.000" rx="1.500" fill="#c79b5c"/><circle cx="6.570" cy="4.350" r="1.150" fill="#12151c"/><rect x="-8.520" y="-2.830" width="3.900" height="3.000" rx="1.500" fill="#c79b5c"/><circle cx="-6.570" cy="-1.330" r="1.150" fill="#12151c"/><rect x="4.620" y="-2.830" width="3.900" height="3.000" rx="1.500" fill="#c79b5c"/><circle cx="6.570" cy="-1.330" r="1.150" fill="#12151c"/></svg>