<svg xmlns="http://www.w3.org/2000/svg" viewBox="-14.92 -6.80 24.53 13.10" preserveAspectRatio="xMidYMid meet" style="width:100%;height:100%"><rect x="-14.92" y="-6.80" width="24.53" height="13.10" fill="#12151c"/><line x1="-13.495" y1="-2.972" x2="-8.600" y2="-1.693" stroke="#e6e9ef" stroke-width="0.200" stroke-linecap="round" opacity="1"/><line x1="-13.192" y1="-4.133" x2="-8.600" y2="-2.934" stroke="#e6e9ef" stroke-width="0.200" stroke-linecap="round" opacity="1"/><line x1="-8.948" y1="-1.784" x2="-8.645" y2="-2.945" stroke="#e6e9ef" stroke-width="0.200" stroke-linecap="round" opacity="1"/><line x1="-8.600" y1="-3.500" x2="-8.200" y2="-3.900" stroke="#e6e9ef" stroke-width="0.200" stroke-linecap="round" opacity="1"/><line x1="-8.600" y1="3.500" x2="-8.600" y2="-3.500" stroke="#e6e9ef" stroke-width="0.200" stroke-linecap="round" opacity="1"/><line x1="-8.600" y1="3.500" x2="-8.200" y2="3.900" stroke="#e6e9ef" stroke-width="0.200" stroke-linecap="round" opacity="1"/><line x1="-8.200" y1="-3.900" x2="-6.840" y2="-3.891" stroke="#e6e9ef" stroke-width="0.200" stroke-linecap="round" opacity="1"/><line x1="-8.200" y1="3.900" x2="-8.200" y2="-3.900" stroke="#e6e9ef" stroke-width="0.200" stroke-linecap="round" opacity="1"/><line x1="-8.200" y1="3.900" x2="-6.840" y2="3.900" stroke="#e6e9ef" stroke-width="0.200" stroke-linecap="round" opacity="1"/><line x1="-6.840" y1="-5.050" x2="-0.500" y2="-5.050" stroke="#e6e9ef" stroke-width="0.200" stroke-linecap="round" opacity="1"/><line x1="-6.840" y1="5.050" x2="-6.840" y2="-5.050" stroke="#e6e9ef" stroke-width="0.200" stroke-linecap="round" opacity="1"/><line x1="-6.840" y1="5.050" x2="-0.525" y2="5.050" stroke="#e6e9ef" stroke-width="0.200" stroke-linecap="round" opacity="1"/><line x1="-0.525" y1="4.500" x2="0.525" y2="4.500" stroke="#e6e9ef" stroke-width="0.200" stroke-linecap="round" opacity="1"/><line x1="-0.525" y1="5.050" x2="-0.525" y2="4.500" stroke="#e6e9ef" stroke-width="0.200" stroke-linecap="round" opacity="1"/><line x1="-0.500" y1="-5.550" x2="0.500" y2="-5.550" stroke="#e6e9ef" stroke-width="0.200" stroke-linecap="round" opacity="1"/><line x1="-0.500" y1="-5.050" x2="-0.500" y2="-5.550" stroke="#e6e9ef" stroke-width="0.200" stroke-linecap="round" opacity="1"/><line x1="0.500" y1="-5.050" x2="0.500" y2="-5.550" stroke="#e6e9ef" stroke-width="0.200" stroke-linecap="round" opacity="1"/><line x1="0.500" y1="-5.050" x2="8.360" y2="-5.050" stroke="#e6e9ef" stroke-width="0.200" stroke-linecap="round" opacity="1"/><line x1="0.525" y1="5.050" x2="0.525" y2="4.500" stroke="#e6e9ef" stroke-width="0.200" stroke-linecap="round" opacity="1"/><line x1="0.525" y1="5.050" x2="8.360" y2="5.050" stroke="#e6e9ef" stroke-width="0.200" stroke-linecap="round" opacity="1"/><line x1="8.360" y1="-3.354" x2="8.360" y2="-5.050" stroke="#e6e9ef" stroke-width="0.200" stroke-linecap="round" opacity="1"/><line x1="8.360" y1="-0.814" x2="8.360" y2="-1.726" stroke="#e6e9ef" stroke-width="0.200" stroke-linecap="round" opacity="1"/><line x1="8.360" y1="1.726" x2="8.360" y2="0.814" stroke="#e6e9ef" stroke-width="0.200" stroke-linecap="round" opacity="1"/><line x1="8.360" y1="5.050" x2="8.360" y2="3.354" stroke="#e6e9ef" stroke-width="0.200" stroke-linecap="round" opacity="1"/><line x1="-0.500" y1="0.000" x2="0.000" y2="0.000" stroke="#4a5160" stroke-width="0.080" stroke-linecap="round" opacity="0.7"/><line x1="0.000" y1="0.000" x2="0.000" y2="-0.500" stroke="#4a5160" stroke-width="0.080" stroke-linecap="round" opacity="0.7"/><line x1="0.000" y1="0.000" x2="0.500" y2="0.000" stroke="#4a5160" stroke-width="0.080" stroke-linecap="round" opacity="0.7"/><line x1="0.000" y1="0.500" x2="0.000" y2="0.000" stroke="#4a5160" stroke-width="0.080" stroke-linecap="round" opacity="0.7"/><line x1="4.580" y1="-2.540" x2="5.080" y2="-2.540" stroke="#4a5160" stroke-width="0.080" stroke-linecap="round" opacity="0.7"/><line x1="4.580" y1="0.000" x2="5.080" y2="0.000" stroke="#4a5160" stroke-width="0.080" stroke-linecap="round" opacity="0.7"/><line x1="4.580" y1="2.540" x2="5.080" y2="2.540" stroke="#4a5160" stroke-width="0.080" stroke-linecap="round" opacity="0.7"/><line x1="5.080" y1="-2.540" x2="5.080" y2="-3.040" stroke="#4a5160" stroke-width="0.080" stroke-linecap="round" opacity="0.7"/><line x1="5.080" y1="-2.540" x2="5.580" y2="-2.540" stroke="#4a5160" stroke-width="0.080" stroke-linecap="round" opacity="0.7"/><line x1="5.080" y1="-2.040" x2="5.080" y2="-2.540" stroke="#4a5160" stroke-width="0.080" stroke-linecap="round" opacity="0.7"/><line x1="5.080" y1="0.000" x2="5.080" y2="-0.500" stroke="#4a5160" stroke-width="0.080" stroke-linecap="round" opacity="0.7"/><line x1="5.080" y1="0.000" x2="5.580" y2="0.000" stroke="#4a5160" stroke-width="0.080" stroke-linecap="round" opacity="0.7"/><line x1="5.080" y1="0.500" x2="5.080" y2="0.000" stroke="#4a5160" stroke-width="0.080" stroke-linecap="round" opacity="0.7"/><line x1="5.080" y1="2.540" x2="5.080" y2="2.040" stroke="#4a5160" stroke-width="0.080" stroke-linecap="round" opacity="0.7"/><line x1="5.080" y1="2.540" x2="5.580" y2="2.540" stroke="#4a5160" stroke-width="0.080" stroke-linecap="round" opacity="0.7"/><line x1="5.080" y1="3.040" x2="5.080" y2="2.540" stroke="#4a5160" stroke-width="0.080" stroke-linecap="round" opacity="0.7"/><line x1="7.120" y1="-2.540" x2="7.620" y2="-2.540" stroke="#4a5160" stroke-width="0.080" stroke-linecap="round" opacity="0.7"/><line x1="7.120" y1="0.000" x2="7.620" y2="0.000" stroke="#4a5160" stroke-width="0.080" stroke-linecap="round" opacity="0.7"/><line x1="7.120" y1="2.540" x2="7.620" y2="2.540" stroke="#4a5160" stroke-width="0.080" stroke-linecap="round" opacity="0.7"/><line x1="7.620" y1="-2.540" x2="7.620" y2="-3.040" stroke="#4a5160" stroke-width="0.080" stroke-linecap="round" opacity="0.7"/><line x1="7.620" y1="-2.540" x2="8.120" y2="-2.540" stroke="#4a5160" stroke-width="0.080" stroke-linecap="round" opacity="0.7"/><line x1="7.620" y1="-2.040" x2="7.620" y2="-2.540" stroke="#4a5160" stroke-width="0.080" stroke-linecap="round" opacity="0.7"/><line x1="7.620" y1="0.000" x2="7.620" y2="-0.500" stroke="#4a5160" stroke-width="0.080" stroke-linecap="round" opacity="0.7"/><line x1="7.620" y1="0.000" x2="8.120" y2="0.000" stroke="#4a5160" stroke-width="0.080" stroke-linecap="round" opacity="0.7"/><line x1="7.620" y1="0.500" x2="7.620" y2="0.000" stroke="#4a5160" stroke-width="0.080" stroke-linecap="round" opacity="0.7"/><line x1="7.620" y1="2.540" x2="7.620" y2="2.040" stroke="#4a5160" stroke-width="0.080" stroke-linecap="round" opacity="0.7"/><line x1="7.620" y1="2.540" x2="8.120" y2="2.540" stroke="#4a5160" stroke-width="0.080" stroke-linecap="round" opacity="0.7"/><line x1="7.620" y1="3.040" x2="7.620" y2="2.540" stroke="#4a5160" stroke-width="0.080" stroke-linecap="round" opacity="0.7"/><line x1="-13.495" y1="-2.972" x2="-8.600" y2="-1.693" stroke="#6b7280" stroke-width="0.100" stroke-linecap="round" opacity="0.8"/><line x1="-13.192" y1="-4.133" x2="-8.600" y2="-2.934" stroke="#6b7280" stroke-width="0.100" stroke-linecap="round" opacity="0.8"/><line x1="-8.948" y1="-1.784" x2="-8.645" y2="-2.945" stroke="#6b7280" stroke-width="0.100" stroke-linecap="round" opacity="0.8"/><line x1="-8.600" y1="-3.500" x2="-8.200" y2="-3.900" stroke="#6b7280" stroke-width="0.100" stroke-linecap="round" opacity="0.8"/><line x1="-8.600" y1="3.500" x2="-8.600" y2="-3.500" stroke="#6b7280" stroke-width="0.100" stroke-linecap="round" opacity="0.8"/><line x1="-8.600" y1="3.500" x2="-8.200" y2="3.900" stroke="#6b7280" stroke-width="0.100" stroke-linecap="round" opacity="0.8"/><line x1="-8.200" y1="-3.900" x2="-6.840" y2="-3.891" stroke="#6b7280" stroke-width="0.100" stroke-linecap="round" opacity="0.8"/><line x1="-8.200" y1="3.900" x2="-8.200" y2="-3.900" stroke="#6b7280" stroke-width="0.100" stroke-linecap="round" opacity="0.8"/><line x1="-8.200" y1="3.900" x2="-6.840" y2="3.900" stroke="#6b7280" stroke-width="0.100" stroke-linecap="round" opacity="0.8"/><line x1="-6.840" y1="-5.050" x2="-0.500" y2="-5.050" stroke="#6b7280" stroke-width="0.100" stroke-linecap="round" opacity="0.8"/><line x1="-6.840" y1="5.050" x2="-6.840" y2="-5.050" stroke="#6b7280" stroke-width="0.100" stroke-linecap="round" opacity="0.8"/><line x1="-6.840" y1="5.050" x2="-0.525" y2="5.050" stroke="#6b7280" stroke-width="0.100" stroke-linecap="round" opacity="0.8"/><line x1="-0.525" y1="4.500" x2="0.525" y2="4.500" stroke="#6b7280" stroke-width="0.100" stroke-linecap="round" opacity="0.8"/><line x1="-0.525" y1="5.050" x2="-0.525" y2="4.500" stroke="#6b7280" stroke-width="0.100" stroke-linecap="round" opacity="0.8"/><line x1="-0.500" y1="-5.550" x2="0.500" y2="-5.550" stroke="#6b7280" stroke-width="0.100" stroke-linecap="round" opacity="0.8"/><line x1="-0.500" y1="-5.050" x2="-0.500" y2="-5.550" stroke="#6b7280" stroke-width="0.100" stroke-linecap="round" opacity="0.8"/><line x1="0.500" y1="-5.050" x2="0.500" y2="-5.550" stroke="#6b7280" stroke-width="0.100" stroke-linecap="round" opacity="0.8"/><line x1="0.500" y1="-5.050" x2="8.360" y2="-5.050" stroke="#6b7280" stroke-width="0.100" stroke-linecap="round" opacity="0.8"/><line x1="0.525" y1="5.050" x2="0.525" y2="4.500" stroke="#6b7280" stroke-width="0.100" stroke-linecap="round" opacity="0.8"/><line x1="0.525" y1="5.050" x2="8.360" y2="5.050" stroke="#6b7280" stroke-width="0.100" stroke-linecap="round" opacity="0.8"/><line x1="8.360" y1="5.050" x2="8.360" y2="-5.050" stroke="#6b7280" stroke-width="0.100" stroke-linecap="round" opacity="0.8"/><line x1="-13.750" y1="-5.800" x2="8.610" y2="-5.800" stroke="#d24d4d" stroke-width="0.080" stroke-linecap="round" opacity="0.7"/><line x1="8.610" y1="-5.800" x2="8.610" y2="5.300" stroke="#d24d4d" stroke-width="0.080" stroke-linecap="round" opacity="0.7"/><line x1="8.610" y1="5.300" x2="-13.750" y2="5.300" stroke="#d24d4d" stroke-width="0.080" stroke-linecap="round" opacity="0.7"/><line x1="-13.750" y1="5.300" x2="-13.750" y2="-5.800" stroke="#d24d4d" stroke-width="0.080" stroke-linecap="round" opacity="0.7"/><path d="M -13.495 -2.972 A 0.600 0.600 0 0 1 -13.192 -4.133" fill="none" stroke="#e6e9ef" stroke-width="0.12" opacity="1"/><path d="M -13.495 -2.972 A 0.600 0.600 0 0 1 -13.192 -4.133" fill="none" stroke="#6b7280" stroke-width="0.12" opacity="0.8"/><circle cx="0.000" cy="0.000" r="0.600" fill="none" stroke="#4a5160" stroke-width="0.12" opacity="0.7"/><circle cx="5.080" cy="-2.540" r="0.750" fill="none" stroke="#4a5160" stroke-width="0.12" opacity="0.7"/><circle cx="5.080" cy="-2.540" r="0.400" fill="none" stroke="#4a5160" stroke-width="0.12" opacity="0.7"/><circle cx="5.080" cy="0.000" r="0.750" fill="none" stroke="#4a5160" stroke-width="0.12" opacity="0.7"/><circle cx="5.080" cy="0.000" r="0.400" fill="none" stroke="#4a5160" stroke-width="0.12" opacity="0.7"/><circle cx="5.080" cy="2.540" r="0.750" fill="none" stroke="#4a5160" stroke-width="0.12" opacity="0.7"/><circle cx="5.080" cy="2.540" r="0.400" fill="none" stroke="#4a5160" stroke-width="0.12" opacity="0.7"/><circle cx="7.620" cy="-2.540" r="0.750" fill="none" stroke="#4a5160" stroke-width="0.12" opacity="0.7"/><circle cx="7.620" cy="-2.540" r="0.400" fill="none" stroke="#4a5160" stroke-width="0.12" opacity="0.7"/><circle cx="7.620" cy="0.000" r="0.750" fill="none" stroke="#4a5160" stroke-width="0.12" opacity="0.7"/><circle cx="7.620" cy="0.000" r="0.400" fill="none" stroke="#4a5160" stroke-width="0.12" opacity="0.7"/><circle cx="7.620" cy="2.540" r="0.750" fill="none" stroke="#4a5160" stroke-width="0.12" opacity="0.7"/><circle cx="7.620" cy="2.540" r="0.400" fill="none" stroke="#4a5160" stroke-width="0.12" opacity="0.7"/><circle cx="0.000" cy="0.000" r="0.250" fill="none" stroke="#6b7280" stroke-width="0.1"/><rect x="4.405" y="-3.215" width="1.350" height="1.350" rx="0.675" fill="#c79b5c"/><circle cx="5.080" cy="-2.540" r="0.400" fill="#12151c"/><rect x="4.405" y="1.865" width="1.350" height="1.350" rx="0.675" fill="#c79b5c"/><circle cx="5.080" cy="2.540" r="0.400" fill="#12151c"/><rect x="4.405" y="-0.675" width="1.350" height="1.350" rx="0.675" fill="#c79b5c"/><circle cx="5.080" cy="0.000" r="0.400" fill="#12151c"/><rect x="6.945" y="-3.215" width="1.350" height="1.350" rx="0.675" fill="#c79b5c"/><circle cx="7.620" cy="-2.540" r="0.400" fill="#12151c"/><rect x="6.945" y="1.865" width="1.350" height="1.350" rx="0.675" fill="#c79b5c"/><circle cx="7.620" cy="2.540" r="0.400" fill="#12151c"/><rect x="6.945" y="-0.675" width="1.350" height="1.350" rx="0.675" fill="#c79b5c"/><circle cx="7.620" cy="0.000" r="0.400" fill="#12151c"/></svg>