<svg xmlns="http://www.w3.org/2000/svg" viewBox="-17.13 -5.06 34.26 11.39" preserveAspectRatio="xMidYMid meet" style="width:100%;height:100%"><rect x="-17.13" y="-5.06" width="34.26" height="11.39" fill="#12151c"/><line x1="-15.875" y1="-1.270" x2="-13.335" y2="-1.270" stroke="#e6e9ef" stroke-width="0.200" stroke-linecap="round" opacity="1"/><line x1="-15.875" y1="1.270" x2="-15.875" y2="-1.270" stroke="#e6e9ef" stroke-width="0.200" stroke-linecap="round" opacity="1"/><line x1="-15.875" y1="1.270" x2="-13.335" y2="1.270" stroke="#e6e9ef" stroke-width="0.200" stroke-linecap="round" opacity="1"/><line x1="-13.675" y1="1.270" x2="-13.675" y2="-1.270" stroke="#e6e9ef" stroke-width="0.200" stroke-linecap="round" opacity="1"/><line x1="-13.335" y1="-3.810" x2="13.335" y2="-3.810" stroke="#e6e9ef" stroke-width="0.200" stroke-linecap="round" opacity="1"/><line x1="-13.335" y1="-1.270" x2="-13.335" y2="-3.810" stroke="#e6e9ef" stroke-width="0.200" stroke-linecap="round" opacity="1"/><line x1="-13.335" y1="3.810" x2="-13.335" y2="1.270" stroke="#e6e9ef" stroke-width="0.200" stroke-linecap="round" opacity="1"/><line x1="-13.335" y1="3.810" x2="13.335" y2="3.810" stroke="#e6e9ef" stroke-width="0.200" stroke-linecap="round" opacity="1"/><line x1="-13.335" y1="5.080" x2="-13.335" y2="3.810" stroke="#e6e9ef" stroke-width="0.200" stroke-linecap="round" opacity="1"/><line x1="-13.335" y1="5.080" x2="-12.065" y2="5.080" stroke="#e6e9ef" stroke-width="0.200" stroke-linecap="round" opacity="1"/><line x1="-12.510" y1="2.985" x2="-12.509" y2="0.000" stroke="#e6e9ef" stroke-width="0.200" stroke-linecap="round" opacity="1"/><line x1="-12.510" y1="2.985" x2="-12.129" y2="2.603" stroke="#e6e9ef" stroke-width="0.200" stroke-linecap="round" opacity="1"/><line x1="-12.510" y1="2.985" x2="-6.541" y2="2.985" stroke="#e6e9ef" stroke-width="0.200" stroke-linecap="round" opacity="1"/><line x1="-12.129" y1="2.603" x2="-12.129" y2="0.000" stroke="#e6e9ef" stroke-width="0.200" stroke-linecap="round" opacity="1"/><line x1="-12.129" y1="2.603" x2="-6.921" y2="2.603" stroke="#e6e9ef" stroke-width="0.200" stroke-linecap="round" opacity="1"/><line x1="-12.065" y1="5.080" x2="-12.065" y2="3.810" stroke="#e6e9ef" stroke-width="0.200" stroke-linecap="round" opacity="1"/><line x1="-6.985" y1="5.080" x2="-6.985" y2="3.810" stroke="#e6e9ef" stroke-width="0.200" stroke-linecap="round" opacity="1"/><line x1="-6.985" y1="5.080" x2="-5.715" y2="5.080" stroke="#e6e9ef" stroke-width="0.200" stroke-linecap="round" opacity="1"/><line x1="-6.922" y1="2.603" x2="-6.541" y2="2.985" stroke="#e6e9ef" stroke-width="0.200" stroke-linecap="round" opacity="1"/><line x1="-6.921" y1="2.603" x2="-6.921" y2="0.000" stroke="#e6e9ef" stroke-width="0.200" stroke-linecap="round" opacity="1"/><line x1="-6.541" y1="0.000" x2="-6.541" y2="2.985" stroke="#e6e9ef" stroke-width="0.200" stroke-linecap="round" opacity="1"/><line x1="-5.715" y1="5.080" x2="-5.715" y2="3.810" stroke="#e6e9ef" stroke-width="0.200" stroke-linecap="round" opacity="1"/><line x1="-0.635" y1="5.080" x2="-0.635" y2="3.810" stroke="#e6e9ef" stroke-width="0.200" stroke-linecap="round" opacity="1"/><line x1="-0.635" y1="5.080" x2="0.635" y2="5.080" stroke="#e6e9ef" stroke-width="0.200" stroke-linecap="round" opacity="1"/><line x1="0.635" y1="5.080" x2="0.635" y2="3.810" stroke="#e6e9ef" stroke-width="0.200" stroke-linecap="round" opacity="1"/><line x1="5.715" y1="5.080" x2="5.715" y2="3.810" stroke="#e6e9ef" stroke-width="0.200" stroke-linecap="round" opacity="1"/><line x1="5.715" y1="5.080" x2="6.985" y2="5.080" stroke="#e6e9ef" stroke-width="0.200" stroke-linecap="round" opacity="1"/><line x1="6.540" y1="2.985" x2="6.541" y2="0.000" stroke="#e6e9ef" stroke-width="0.200" stroke-linecap="round" opacity="1"/><line x1="6.540" y1="2.985" x2="6.921" y2="2.603" stroke="#e6e9ef" stroke-width="0.200" stroke-linecap="round" opacity="1"/><line x1="6.540" y1="2.985" x2="12.510" y2="2.985" stroke="#e6e9ef" stroke-width="0.200" stroke-linecap="round" opacity="1"/><line x1="6.921" y1="2.603" x2="6.921" y2="0.000" stroke="#e6e9ef" stroke-width="0.200" stroke-linecap="round" opacity="1"/><line x1="6.921" y1="2.603" x2="12.129" y2="2.603" stroke="#e6e9ef" stroke-width="0.200" stroke-linecap="round" opacity="1"/><line x1="6.985" y1="5.080" x2="6.985" y2="3.810" stroke="#e6e9ef" stroke-width="0.200" stroke-linecap="round" opacity="1"/><line x1="12.065" y1="5.080" x2="12.065" y2="3.810" stroke="#e6e9ef" stroke-width="0.200" stroke-linecap="round" opacity="1"/><line x1="12.065" y1="5.080" x2="13.335" y2="5.080" stroke="#e6e9ef" stroke-width="0.200" stroke-linecap="round" opacity="1"/><line x1="12.129" y1="2.603" x2="12.129" y2="0.000" stroke="#e6e9ef" stroke-width="0.200" stroke-linecap="round" opacity="1"/><line x1="12.129" y1="2.603" x2="12.510" y2="2.985" stroke="#e6e9ef" stroke-width="0.200" stroke-linecap="round" opacity="1"/><line x1="12.509" y1="0.000" x2="12.510" y2="2.985" stroke="#e6e9ef" stroke-width="0.200" stroke-linecap="round" opacity="1"/><line x1="13.335" y1="-1.270" x2="13.335" y2="-3.810" stroke="#e6e9ef" stroke-width="0.200" stroke-linecap="round" opacity="1"/><line x1="13.335" y1="-1.270" x2="15.875" y2="-1.270" stroke="#e6e9ef" stroke-width="0.200" stroke-linecap="round" opacity="1"/><line x1="13.335" y1="1.270" x2="15.875" y2="1.270" stroke="#e6e9ef" stroke-width="0.200" stroke-linecap="round" opacity="1"/><line x1="13.335" y1="3.810" x2="13.335" y2="1.270" stroke="#e6e9ef" stroke-width="0.200" stroke-linecap="round" opacity="1"/><line x1="13.335" y1="5.080" x2="13.335" y2="3.810" stroke="#e6e9ef" stroke-width="0.200" stroke-linecap="round" opacity="1"/><line x1="13.675" y1="1.270" x2="13.675" y2="-1.270" stroke="#e6e9ef" stroke-width="0.200" stroke-linecap="round" opacity="1"/><line x1="15.875" y1="1.270" x2="15.875" y2="-1.270" stroke="#e6e9ef" stroke-width="0.200" stroke-linecap="round" opacity="1"/><line x1="-1.000" y1="0.000" x2="0.000" y2="0.000" stroke="#4a5160" stroke-width="0.100" stroke-linecap="round" opacity="0.7"/><line x1="0.000" y1="1.000" x2="0.000" y2="0.000" stroke="#4a5160" stroke-width="0.100" stroke-linecap="round" opacity="0.7"/><line x1="-15.875" y1="-1.270" x2="-13.335" y2="-1.270" stroke="#6b7280" stroke-width="0.100" stroke-linecap="round" opacity="0.8"/><line x1="-15.875" y1="1.270" x2="-15.875" y2="-1.270" stroke="#6b7280" stroke-width="0.100" stroke-linecap="round" opacity="0.8"/><line x1="-15.875" y1="1.270" x2="-13.335" y2="1.270" stroke="#6b7280" stroke-width="0.100" stroke-linecap="round" opacity="0.8"/><line x1="-13.675" y1="1.270" x2="-13.675" y2="-1.270" stroke="#6b7280" stroke-width="0.100" stroke-linecap="round" opacity="0.8"/><line x1="-13.335" y1="-3.810" x2="13.335" y2="-3.810" stroke="#6b7280" stroke-width="0.100" stroke-linecap="round" opacity="0.8"/><line x1="-13.335" y1="-1.270" x2="-13.335" y2="-3.810" stroke="#6b7280" stroke-width="0.100" stroke-linecap="round" opacity="0.8"/><line x1="-13.335" y1="3.810" x2="-13.335" y2="1.270" stroke="#6b7280" stroke-width="0.100" stroke-linecap="round" opacity="0.8"/><line x1="-13.335" y1="3.810" x2="13.335" y2="3.810" stroke="#6b7280" stroke-width="0.100" stroke-linecap="round" opacity="0.8"/><line x1="-13.335" y1="5.080" x2="-13.335" y2="3.810" stroke="#6b7280" stroke-width="0.100" stroke-linecap="round" opacity="0.8"/><line x1="-13.335" y1="5.080" x2="-12.065" y2="5.080" stroke="#6b7280" stroke-width="0.100" stroke-linecap="round" opacity="0.8"/><line x1="-12.510" y1="2.985" x2="-12.509" y2="0.000" stroke="#6b7280" stroke-width="0.100" stroke-linecap="round" opacity="0.8"/><line x1="-12.510" y1="2.985" x2="-12.129" y2="2.603" stroke="#6b7280" stroke-width="0.100" stroke-linecap="round" opacity="0.8"/><line x1="-12.510" y1="2.985" x2="-6.541" y2="2.985" stroke="#6b7280" stroke-width="0.100" stroke-linecap="round" opacity="0.8"/><line x1="-12.129" y1="2.603" x2="-12.129" y2="0.000" stroke="#6b7280" stroke-width="0.100" stroke-linecap="round" opacity="0.8"/><line x1="-12.129" y1="2.603" x2="-6.921" y2="2.603" stroke="#6b7280" stroke-width="0.100" stroke-linecap="round" opacity="0.8"/><line x1="-12.065" y1="5.080" x2="-12.065" y2="3.810" stroke="#6b7280" stroke-width="0.100" stroke-linecap="round" opacity="0.8"/><line x1="-6.985" y1="5.080" x2="-6.985" y2="3.810" stroke="#6b7280" stroke-width="0.100" stroke-linecap="round" opacity="0.8"/><line x1="-6.985" y1="5.080" x2="-5.715" y2="5.080" stroke="#6b7280" stroke-width="0.100" stroke-linecap="round" opacity="0.8"/><line x1="-6.922" y1="2.603" x2="-6.541" y2="2.985" stroke="#6b7280" stroke-width="0.100" stroke-linecap="round" opacity="0.8"/><line x1="-6.921" y1="2.603" x2="-6.921" y2="0.000" stroke="#6b7280" stroke-width="0.100" stroke-linecap="round" opacity="0.8"/><line x1="-6.541" y1="0.000" x2="-6.541" y2="2.985" stroke="#6b7280" stroke-width="0.100" stroke-linecap="round" opacity="0.8"/><line x1="-5.715" y1="5.080" x2="-5.715" y2="3.810" stroke="#6b7280" stroke-width="0.100" stroke-linecap="round" opacity="0.8"/><line x1="-0.635" y1="5.080" x2="-0.635" y2="3.810" stroke="#6b7280" stroke-width="0.100" stroke-linecap="round" opacity="0.8"/><line x1="-0.635" y1="5.080" x2="0.635" y2="5.080" stroke="#6b7280" stroke-width="0.100" stroke-linecap="round" opacity="0.8"/><line x1="0.635" y1="5.080" x2="0.635" y2="3.810" stroke="#6b7280" stroke-width="0.100" stroke-linecap="round" opacity="0.8"/><line x1="5.715" y1="5.080" x2="5.715" y2="3.810" stroke="#6b7280" stroke-width="0.100" stroke-linecap="round" opacity="0.8"/><line x1="5.715" y1="5.080" x2="6.985" y2="5.080" stroke="#6b7280" stroke-width="0.100" stroke-linecap="round" opacity="0.8"/><line x1="6.540" y1="2.985" x2="6.541" y2="0.000" stroke="#6b7280" stroke-width="0.100" stroke-linecap="round" opacity="0.8"/><line x1="6.540" y1="2.985" x2="6.921" y2="2.603" stroke="#6b7280" stroke-width="0.100" stroke-linecap="round" opacity="0.8"/><line x1="6.540" y1="2.985" x2="12.510" y2="2.985" stroke="#6b7280" stroke-width="0.100" stroke-linecap="round" opacity="0.8"/><line x1="6.921" y1="2.603" x2="6.921" y2="0.000" stroke="#6b7280" stroke-width="0.100" stroke-linecap="round" opacity="0.8"/><line x1="6.921" y1="2.603" x2="12.129" y2="2.603" stroke="#6b7280" stroke-width="0.100" stroke-linecap="round" opacity="0.8"/><line x1="6.985" y1="5.080" x2="6.985" y2="3.810" stroke="#6b7280" stroke-width="0.100" stroke-linecap="round" opacity="0.8"/><line x1="12.065" y1="5.080" x2="12.065" y2="3.810" stroke="#6b7280" stroke-width="0.100" stroke-linecap="round" opacity="0.8"/><line x1="12.065" y1="5.080" x2="13.335" y2="5.080" stroke="#6b7280" stroke-width="0.100" stroke-linecap="round" opacity="0.8"/><line x1="12.129" y1="2.603" x2="12.129" y2="0.000" stroke="#6b7280" stroke-width="0.100" stroke-linecap="round" opacity="0.8"/><line x1="12.129" y1="2.603" x2="12.510" y2="2.985" stroke="#6b7280" stroke-width="0.100" stroke-linecap="round" opacity="0.8"/><line x1="12.509" y1="0.000" x2="12.510" y2="2.985" stroke="#6b7280" stroke-width="0.100" stroke-linecap="round" opacity="0.8"/><line x1="13.335" y1="-1.270" x2="13.335" y2="-3.810" stroke="#6b7280" stroke-width="0.100" stroke-linecap="round" opacity="0.8"/><line x1="13.335" y1="-1.270" x2="15.875" y2="-1.270" stroke="#6b7280" stroke-width="0.100" stroke-linecap="round" opacity="0.8"/><line x1="13.335" y1="1.270" x2="15.875" y2="1.270" stroke="#6b7280" stroke-width="0.100" stroke-linecap="round" opacity="0.8"/><line x1="13.335" y1="3.810" x2="13.335" y2="1.270" stroke="#6b7280" stroke-width="0.100" stroke-linecap="round" opacity="0.8"/><line x1="13.335" y1="5.080" x2="13.335" y2="3.810" stroke="#6b7280" stroke-width="0.100" stroke-linecap="round" opacity="0.8"/><line x1="13.675" y1="1.270" x2="13.675" y2="-1.270" stroke="#6b7280" stroke-width="0.100" stroke-linecap="round" opacity="0.8"/><line x1="15.875" y1="1.270" x2="15.875" y2="-1.270" stroke="#6b7280" stroke-width="0.100" stroke-linecap="round" opacity="0.8"/><line x1="-16.130" y1="-4.060" x2="16.130" y2="-4.060" stroke="#d24d4d" stroke-width="0.080" stroke-linecap="round" opacity="0.7"/><line x1="16.130" y1="-4.060" x2="16.130" y2="5.330" stroke="#d24d4d" stroke-width="0.080" stroke-linecap="round" opacity="0.7"/><line x1="16.130" y1="5.330" x2="-16.130" y2="5.330" stroke="#d24d4d" stroke-width="0.080" stroke-linecap="round" opacity="0.7"/><line x1="-16.130" y1="5.330" x2="-16.130" y2="-4.060" stroke="#d24d4d" stroke-width="0.080" stroke-linecap="round" opacity="0.7"/><path d="M -12.509 0.000 A 2.984 2.984 0 0 1 -6.541 0.000" fill="none" stroke="#e6e9ef" stroke-width="0.12" opacity="1"/><path d="M -12.129 0.000 A 2.604 2.604 0 0 1 -6.922 0.000" fill="none" stroke="#e6e9ef" stroke-width="0.12" opacity="1"/><path d="M 6.541 0.000 A 2.984 2.984 0 0 1 12.509 0.000" fill="none" stroke="#e6e9ef" stroke-width="0.12" opacity="1"/><path d="M 6.922 0.000 A 2.603 2.603 0 0 1 12.129 0.000" fill="none" stroke="#e6e9ef" stroke-width="0.12" opacity="1"/><path d="M -12.509 0.000 A 2.984 2.984 0 0 1 -6.541 0.000" fill="none" stroke="#6b7280" stroke-width="0.12" opacity="0.8"/><path d="M -12.129 0.000 A 2.604 2.604 0 0 1 -6.922 0.000" fill="none" stroke="#6b7280" stroke-width="0.12" opacity="0.8"/><path d="M 6.541 0.000 A 2.984 2.984 0 0 1 12.509 0.000" fill="none" stroke="#6b7280" stroke-width="0.12" opacity="0.8"/><path d="M 6.922 0.000 A 2.603 2.603 0 0 1 12.129 0.000" fill="none" stroke="#6b7280" stroke-width="0.12" opacity="0.8"/><circle cx="-3.175" cy="0.000" r="2.984" fill="none" stroke="#e6e9ef" stroke-width="0.12" opacity="1"/><circle cx="-3.175" cy="0.000" r="2.603" fill="none" stroke="#e6e9ef" stroke-width="0.12" opacity="1"/><circle cx="3.175" cy="0.000" r="2.984" fill="none" stroke="#e6e9ef" stroke-width="0.12" opacity="1"/><circle cx="3.175" cy="0.000" r="2.603" fill="none" stroke="#e6e9ef" stroke-width="0.12" opacity="1"/><circle cx="-3.175" cy="0.000" r="2.984" fill="none" stroke="#6b7280" stroke-width="0.12" opacity="0.8"/><circle cx="-3.175" cy="0.000" r="2.603" fill="none" stroke="#6b7280" stroke-width="0.12" opacity="0.8"/><circle cx="3.175" cy="0.000" r="2.984" fill="none" stroke="#6b7280" stroke-width="0.12" opacity="0.8"/><circle cx="3.175" cy="0.000" r="2.603" fill="none" stroke="#6b7280" stroke-width="0.12" opacity="0.8"/><rect x="-10.775" y="-1.250" width="2.500" height="2.500" rx="1.250" fill="#c79b5c"/><circle cx="-9.525" cy="0.000" r="0.900" fill="#12151c"/><rect x="-4.425" y="-1.250" width="2.500" height="2.500" rx="1.250" fill="#c79b5c"/><circle cx="-3.175" cy="0.000" r="0.900" fill="#12151c"/><rect x="1.925" y="-1.250" width="2.500" height="2.500" rx="1.250" fill="#c79b5c"/><circle cx="3.175" cy="0.000" r="0.900" fill="#12151c"/><rect x="8.275" y="-1.250" width="2.500" height="2.500" rx="1.250" fill="#c79b5c"/><circle cx="9.525" cy="0.000" r="0.900" fill="#12151c"/><polygon points="-9.98,2.30 -9.08,2.30 -9.53,1.70" fill="#ffffff"/></svg>