<svg xmlns="http://www.w3.org/2000/svg" viewBox="-4.58 -4.15 8.72 8.30" preserveAspectRatio="xMidYMid meet" style="width:100%;height:100%"><rect x="-4.58" y="-4.15" width="8.72" height="8.30" fill="#12151c"/><line x1="-2.500" y1="-1.900" x2="-1.900" y2="-2.500" stroke="#e6e9ef" stroke-width="0.200" stroke-linecap="round" opacity="1"/><line x1="-2.500" y1="-1.750" x2="-2.500" y2="-1.900" stroke="#e6e9ef" stroke-width="0.200" stroke-linecap="round" opacity="1"/><line x1="-2.500" y1="2.500" x2="-2.500" y2="1.750" stroke="#e6e9ef" stroke-width="0.200" stroke-linecap="round" opacity="1"/><line x1="-2.500" y1="2.500" x2="-1.750" y2="2.500" stroke="#e6e9ef" stroke-width="0.200" stroke-linecap="round" opacity="1"/><line x1="-1.900" y1="-2.500" x2="-1.750" y2="-2.500" stroke="#e6e9ef" stroke-width="0.200" stroke-linecap="round" opacity="1"/><line x1="1.750" y1="-2.500" x2="2.500" y2="-2.500" stroke="#e6e9ef" stroke-width="0.200" stroke-linecap="round" opacity="1"/><line x1="1.750" y1="2.500" x2="2.500" y2="2.500" stroke="#e6e9ef" stroke-width="0.200" stroke-linecap="round" opacity="1"/><line x1="2.500" y1="-1.750" x2="2.500" y2="-2.500" stroke="#e6e9ef" stroke-width="0.200" stroke-linecap="round" opacity="1"/><line x1="2.500" y1="2.500" x2="2.500" y2="1.750" stroke="#e6e9ef" stroke-width="0.200" stroke-linecap="round" opacity="1"/><line x1="-3.150" y1="-3.150" x2="3.150" y2="-3.150" stroke="#d24d4d" stroke-width="0.080" stroke-linecap="round" opacity="0.7"/><line x1="-3.150" y1="3.150" x2="-3.150" y2="-3.150" stroke="#d24d4d" stroke-width="0.080" stroke-linecap="round" opacity="0.7"/><line x1="-3.150" y1="3.150" x2="3.150" y2="3.150" stroke="#d24d4d" stroke-width="0.080" stroke-linecap="round" opacity="0.7"/><line x1="3.150" y1="3.150" x2="3.150" y2="-3.150" stroke="#d24d4d" stroke-width="0.080" stroke-linecap="round" opacity="0.7"/><line x1="-2.500" y1="-2.500" x2="2.500" y2="-2.500" stroke="#6b7280" stroke-width="0.100" stroke-linecap="round" opacity="0.8"/><line x1="-2.500" y1="2.500" x2="-2.500" y2="-2.500" stroke="#6b7280" stroke-width="0.100" stroke-linecap="round" opacity="0.8"/><line x1="-2.500" y1="2.500" x2="2.500" y2="2.500" stroke="#6b7280" stroke-width="0.100" stroke-linecap="round" opacity="0.8"/><line x1="2.500" y1="2.500" x2="2.500" y2="-2.500" stroke="#6b7280" stroke-width="0.100" stroke-linecap="round" opacity="0.8"/><circle cx="-3.450" cy="-1.200" r="0.125" fill="none" stroke="#e6e9ef" stroke-width="0.12" opacity="1"/><circle cx="-1.500" cy="-1.500" r="0.500" fill="none" stroke="#6b7280" stroke-width="0.12" opacity="0.8"/><rect x="-2.875" y="-1.375" width="0.850" height="0.350" rx="0.175" fill="#c79b5c"/><rect x="-2.875" y="-0.575" width="0.850" height="0.350" rx="0.175" fill="#c79b5c"/><rect x="-2.875" y="0.225" width="0.850" height="0.350" rx="0.175" fill="#c79b5c"/><rect x="-2.875" y="1.025" width="0.850" height="0.350" rx="0.175" fill="#c79b5c"/><rect x="-1.625" y="2.275" width="0.850" height="0.350" rx="0.175" fill="#c79b5c"/><rect x="-0.825" y="2.275" width="0.850" height="0.350" rx="0.175" fill="#c79b5c"/><rect x="-0.025" y="2.275" width="0.850" height="0.350" rx="0.175" fill="#c79b5c"/><rect x="0.775" y="2.275" width="0.850" height="0.350" rx="0.175" fill="#c79b5c"/><rect x="2.025" y="1.025" width="0.850" height="0.350" rx="0.175" fill="#c79b5c"/><rect x="2.025" y="0.225" width="0.850" height="0.350" rx="0.175" fill="#c79b5c"/><rect x="2.025" y="-0.575" width="0.850" height="0.350" rx="0.175" fill="#c79b5c"/><rect x="2.025" y="-1.375" width="0.850" height="0.350" rx="0.175" fill="#c79b5c"/><rect x="0.775" y="-2.625" width="0.850" height="0.350" rx="0.175" fill="#c79b5c"/><rect x="-0.025" y="-2.625" width="0.850" height="0.350" rx="0.175" fill="#c79b5c"/><rect x="-0.825" y="-2.625" width="0.850" height="0.350" rx="0.175" fill="#c79b5c"/><rect x="-1.625" y="-2.625" width="0.850" height="0.350" rx="0.175" fill="#c79b5c"/><rect x="-1.600" y="-1.600" width="3.200" height="3.200" rx="0.000" fill="#c79b5c"/></svg>