<svg xmlns="http://www.w3.org/2000/svg" viewBox="-2.65 -2.93 129.63 5.45" preserveAspectRatio="xMidYMid meet" style="width:100%;height:100%"><rect x="-2.65" y="-2.93" width="129.63" height="5.45" fill="#12151c"/><line x1="-1.650" y1="-1.520" x2="125.980" y2="-1.520" stroke="#d24d4d" stroke-width="0.080" stroke-linecap="round" opacity="0.7"/><line x1="125.980" y1="-1.520" x2="125.980" y2="1.520" stroke="#d24d4d" stroke-width="0.080" stroke-linecap="round" opacity="0.7"/><line x1="125.980" y1="1.520" x2="-1.650" y2="1.520" stroke="#d24d4d" stroke-width="0.080" stroke-linecap="round" opacity="0.7"/><line x1="-1.650" y1="1.520" x2="-1.650" y2="-1.520" stroke="#d24d4d" stroke-width="0.080" stroke-linecap="round" opacity="0.7"/><circle cx="-0.508" cy="-1.778" r="0.150" fill="none" stroke="#e6e9ef" stroke-width="0.12" opacity="1"/><circle cx="-0.508" cy="-1.778" r="0.150" fill="none" stroke="#6b7280" stroke-width="0.12" opacity="0.8"/><rect x="-0.850" y="-0.850" width="1.700" height="1.700" rx="0.000" fill="#c79b5c"/><circle cx="0.000" cy="0.000" r="0.500" fill="#12151c"/><rect x="1.690" y="-0.850" width="1.700" height="1.700" rx="0.850" fill="#c79b5c"/><circle cx="2.540" cy="0.000" r="0.500" fill="#12151c"/><rect x="4.230" y="-0.850" width="1.700" height="1.700" rx="0.850" fill="#c79b5c"/><circle cx="5.080" cy="0.000" r="0.500" fill="#12151c"/><rect x="6.770" y="-0.850" width="1.700" height="1.700" rx="0.850" fill="#c79b5c"/><circle cx="7.620" cy="0.000" r="0.500" fill="#12151c"/><rect x="9.310" y="-0.850" width="1.700" height="1.700" rx="0.850" fill="#c79b5c"/><circle cx="10.160" cy="0.000" r="0.500" fill="#12151c"/><rect x="11.850" y="-0.850" width="1.700" height="1.700" rx="0.850" fill="#c79b5c"/><circle cx="12.700" cy="0.000" r="0.500" fill="#12151c"/><rect x="14.390" y="-0.850" width="1.700" height="1.700" rx="0.850" fill="#c79b5c"/><circle cx="15.240" cy="0.000" r="0.500" fill="#12151c"/><rect x="16.930" y="-0.850" width="1.700" height="1.700" rx="0.850" fill="#c79b5c"/><circle cx="17.780" cy="0.000" r="0.500" fill="#12151c"/><rect x="19.470" y="-0.850" width="1.700" height="1.700" rx="0.850" fill="#c79b5c"/><circle cx="20.320" cy="0.000" r="0.500" fill="#12151c"/><rect x="22.010" y="-0.850" width="1.700" height="1.700" rx="0.850" fill="#c79b5c"/><circle cx="22.860" cy="0.000" r="0.500" fill="#12151c"/><rect x="24.550" y="-0.850" width="1.700" height="1.700" rx="0.850" fill="#c79b5c"/><circle cx="25.400" cy="0.000" r="0.500" fill="#12151c"/><rect x="27.090" y="-0.850" width="1.700" height="1.700" rx="0.850" fill="#c79b5c"/><circle cx="27.940" cy="0.000" r="0.500" fill="#12151c"/><rect x="29.630" y="-0.850" width="1.700" height="1.700" rx="0.850" fill="#c79b5c"/><circle cx="30.480" cy="0.000" r="0.500" fill="#12151c"/><rect x="32.170" y="-0.850" width="1.700" height="1.700" rx="0.850" fill="#c79b5c"/><circle cx="33.020" cy="0.000" r="0.500" fill="#12151c"/><rect x="34.710" y="-0.850" width="1.700" height="1.700" rx="0.850" fill="#c79b5c"/><circle cx="35.560" cy="0.000" r="0.500" fill="#12151c"/><rect x="37.250" y="-0.850" width="1.700" height="1.700" rx="0.850" fill="#c79b5c"/><circle cx="38.100" cy="0.000" r="0.500" fill="#12151c"/><rect x="39.790" y="-0.850" width="1.700" height="1.700" rx="0.850" fill="#c79b5c"/><circle cx="40.640" cy="0.000" r="0.500" fill="#12151c"/><rect x="42.330" y="-0.850" width="1.700" height="1.700" rx="0.850" fill="#c79b5c"/><circle cx="43.180" cy="0.000" r="0.500" fill="#12151c"/><rect x="44.870" y="-0.850" width="1.700" height="1.700" rx="0.850" fill="#c79b5c"/><circle cx="45.720" cy="0.000" r="0.500" fill="#12151c"/><rect x="47.410" y="-0.850" width="1.700" height="1.700" rx="0.850" fill="#c79b5c"/><circle cx="48.260" cy="0.000" r="0.500" fill="#12151c"/><rect x="49.950" y="-0.850" width="1.700" height="1.700" rx="0.850" fill="#c79b5c"/><circle cx="50.800" cy="0.000" r="0.500" fill="#12151c"/><rect x="52.490" y="-0.850" width="1.700" height="1.700" rx="0.850" fill="#c79b5c"/><circle cx="53.340" cy="0.000" r="0.500" fill="#12151c"/><rect x="55.030" y="-0.850" width="1.700" height="1.700" rx="0.850" fill="#c79b5c"/><circle cx="55.880" cy="0.000" r="0.500" fill="#12151c"/><rect x="57.570" y="-0.850" width="1.700" height="1.700" rx="0.850" fill="#c79b5c"/><circle cx="58.420" cy="0.000" r="0.500" fill="#12151c"/><rect x="60.110" y="-0.850" width="1.700" height="1.700" rx="0.850" fill="#c79b5c"/><circle cx="60.960" cy="0.000" r="0.500" fill="#12151c"/><rect x="62.650" y="-0.850" width="1.700" height="1.700" rx="0.850" fill="#c79b5c"/><circle cx="63.500" cy="0.000" r="0.500" fill="#12151c"/><rect x="65.190" y="-0.850" width="1.700" height="1.700" rx="0.850" fill="#c79b5c"/><circle cx="66.040" cy="0.000" r="0.500" fill="#12151c"/><rect x="67.730" y="-0.850" width="1.700" height="1.700" rx="0.850" fill="#c79b5c"/><circle cx="68.580" cy="0.000" r="0.500" fill="#12151c"/><rect x="70.270" y="-0.850" width="1.700" height="1.700" rx="0.850" fill="#c79b5c"/><circle cx="71.120" cy="0.000" r="0.500" fill="#12151c"/><rect x="72.810" y="-0.850" width="1.700" height="1.700" rx="0.850" fill="#c79b5c"/><circle cx="73.660" cy="0.000" r="0.500" fill="#12151c"/><rect x="75.350" y="-0.850" width="1.700" height="1.700" rx="0.850" fill="#c79b5c"/><circle cx="76.200" cy="0.000" r="0.500" fill="#12151c"/><rect x="77.890" y="-0.850" width="1.700" height="1.700" rx="0.850" fill="#c79b5c"/><circle cx="78.740" cy="0.000" r="0.500" fill="#12151c"/><rect x="80.430" y="-0.850" width="1.700" height="1.700" rx="0.850" fill="#c79b5c"/><circle cx="81.280" cy="0.000" r="0.500" fill="#12151c"/><rect x="82.970" y="-0.850" width="1.700" height="1.700" rx="0.850" fill="#c79b5c"/><circle cx="83.820" cy="0.000" r="0.500" fill="#12151c"/><rect x="85.510" y="-0.850" width="1.700" height="1.700" rx="0.850" fill="#c79b5c"/><circle cx="86.360" cy="0.000" r="0.500" fill="#12151c"/><rect x="88.050" y="-0.850" width="1.700" height="1.700" rx="0.850" fill="#c79b5c"/><circle cx="88.900" cy="0.000" r="0.500" fill="#12151c"/><rect x="90.590" y="-0.850" width="1.700" height="1.700" rx="0.850" fill="#c79b5c"/><circle cx="91.440" cy="0.000" r="0.500" fill="#12151c"/><rect x="93.130" y="-0.850" width="1.700" height="1.700" rx="0.850" fill="#c79b5c"/><circle cx="93.980" cy="0.000" r="0.500" fill="#12151c"/><rect x="95.670" y="-0.850" width="1.700" height="1.700" rx="0.850" fill="#c79b5c"/><circle cx="96.520" cy="0.000" r="0.500" fill="#12151c"/><rect x="98.210" y="-0.850" width="1.700" height="1.700" rx="0.850" fill="#c79b5c"/><circle cx="99.060" cy="0.000" r="0.500" fill="#12151c"/><rect x="100.750" y="-0.850" width="1.700" height="1.700" rx="0.850" fill="#c79b5c"/><circle cx="101.600" cy="0.000" r="0.500" fill="#12151c"/><rect x="103.290" y="-0.850" width="1.700" height="1.700" rx="0.850" fill="#c79b5c"/><circle cx="104.140" cy="0.000" r="0.500" fill="#12151c"/><rect x="105.830" y="-0.850" width="1.700" height="1.700" rx="0.850" fill="#c79b5c"/><circle cx="106.680" cy="0.000" r="0.500" fill="#12151c"/><rect x="108.370" y="-0.850" width="1.700" height="1.700" rx="0.850" fill="#c79b5c"/><circle cx="109.220" cy="0.000" r="0.500" fill="#12151c"/><rect x="110.910" y="-0.850" width="1.700" height="1.700" rx="0.850" fill="#c79b5c"/><circle cx="111.760" cy="0.000" r="0.500" fill="#12151c"/><rect x="113.450" y="-0.850" width="1.700" height="1.700" rx="0.850" fill="#c79b5c"/><circle cx="114.300" cy="0.000" r="0.500" fill="#12151c"/><rect x="115.990" y="-0.850" width="1.700" height="1.700" rx="0.850" fill="#c79b5c"/><circle cx="116.840" cy="0.000" r="0.500" fill="#12151c"/><rect x="118.530" y="-0.850" width="1.700" height="1.700" rx="0.850" fill="#c79b5c"/><circle cx="119.380" cy="0.000" r="0.500" fill="#12151c"/><rect x="121.070" y="-0.850" width="1.700" height="1.700" rx="0.850" fill="#c79b5c"/><circle cx="121.920" cy="0.000" r="0.500" fill="#12151c"/><rect x="123.610" y="-0.850" width="1.700" height="1.700" rx="0.850" fill="#c79b5c"/><circle cx="124.460" cy="0.000" r="0.500" fill="#12151c"/><polygon points="-0.45,1.90 0.45,1.90 0.00,1.30" fill="#ffffff"/></svg>