<svg xmlns="http://www.w3.org/2000/svg" viewBox="-4.88 -3.50 8.75 7.00" preserveAspectRatio="xMidYMid meet" style="width:100%;height:100%"><rect x="-4.88" y="-3.50" width="8.75" height="7.00" fill="#12151c"/><path d="M -2.500 2.300 A 0.200 0.200 0 0 1 -2.300 2.500" fill="none" stroke="#e6e9ef" stroke-width="0.12" opacity="1"/><path d="M -2.300 -2.500 A 0.200 0.200 0 0 1 -2.500 -2.300" fill="none" stroke="#e6e9ef" stroke-width="0.12" opacity="1"/><path d="M -2.125 -1.970 A 0.300 0.300 0 0 1 -1.850 -2.150" fill="none" stroke="#e6e9ef" stroke-width="0.12" opacity="1"/><path d="M -1.850 2.150 A 0.300 0.300 0 0 1 -2.125 1.970" fill="none" stroke="#e6e9ef" stroke-width="0.12" opacity="1"/><path d="M 1.850 -2.150 A 0.300 0.300 0 0 1 2.125 -1.970" fill="none" stroke="#e6e9ef" stroke-width="0.12" opacity="1"/><path d="M 2.125 1.970 A 0.300 0.300 0 0 1 1.850 2.150" fill="none" stroke="#e6e9ef" stroke-width="0.12" opacity="1"/><path d="M 2.300 2.500 A 0.200 0.200 0 0 1 2.500 2.300" fill="none" stroke="#e6e9ef" stroke-width="0.12" opacity="1"/><path d="M 2.500 -2.300 A 0.200 0.200 0 0 1 2.300 -2.500" fill="none" stroke="#e6e9ef" stroke-width="0.12" opacity="1"/><path d="M -2.500 -1.470 A 0.200 0.200 0 0 1 -2.500 -1.070" fill="none" stroke="#6b7280" stroke-width="0.12" opacity="0.8"/><path d="M -2.500 -0.200 A 0.200 0.200 0 0 1 -2.500 0.200" fill="none" stroke="#6b7280" stroke-width="0.12" opacity="0.8"/><path d="M -2.500 1.070 A 0.200 0.200 0 0 1 -2.500 1.470" fill="none" stroke="#6b7280" stroke-width="0.12" opacity="0.8"/><path d="M -2.500 2.300 A 0.200 0.200 0 0 1 -2.300 2.500" fill="none" stroke="#6b7280" stroke-width="0.12" opacity="0.8"/><path d="M -2.300 -2.500 A 0.200 0.200 0 0 1 -2.500 -2.300" fill="none" stroke="#6b7280" stroke-width="0.12" opacity="0.8"/><path d="M -2.150 -1.850 A 0.300 0.300 0 0 1 -1.850 -2.150" fill="none" stroke="#6b7280" stroke-width="0.12" opacity="0.8"/><path d="M -1.850 2.150 A 0.300 0.300 0 0 1 -2.150 1.850" fill="none" stroke="#6b7280" stroke-width="0.12" opacity="0.8"/><path d="M -0.200 2.500 A 0.200 0.200 0 0 1 0.200 2.500" fill="none" stroke="#6b7280" stroke-width="0.12" opacity="0.8"/><path d="M 0.200 -2.500 A 0.200 0.200 0 0 1 -0.200 -2.500" fill="none" stroke="#6b7280" stroke-width="0.12" opacity="0.8"/><path d="M 1.850 -2.150 A 0.300 0.300 0 0 1 2.150 -1.850" fill="none" stroke="#6b7280" stroke-width="0.12" opacity="0.8"/><path d="M 2.150 1.850 A 0.300 0.300 0 0 1 1.850 2.150" fill="none" stroke="#6b7280" stroke-width="0.12" opacity="0.8"/><path d="M 2.300 2.500 A 0.200 0.200 0 0 1 2.500 2.300" fill="none" stroke="#6b7280" stroke-width="0.12" opacity="0.8"/><path d="M 2.500 -2.300 A 0.200 0.200 0 0 1 2.300 -2.500" fill="none" stroke="#6b7280" stroke-width="0.12" opacity="0.8"/><path d="M 2.500 -1.070 A 0.200 0.200 0 0 1 2.500 -1.470" fill="none" stroke="#6b7280" stroke-width="0.12" opacity="0.8"/><path d="M 2.500 0.200 A 0.200 0.200 0 0 1 2.500 -0.200" fill="none" stroke="#6b7280" stroke-width="0.12" opacity="0.8"/><path d="M 2.500 1.470 A 0.200 0.200 0 0 1 2.500 1.070" fill="none" stroke="#6b7280" stroke-width="0.12" opacity="0.8"/><circle cx="-3.750" cy="-1.270" r="0.125" fill="none" stroke="#e6e9ef" stroke-width="0.12" opacity="1"/><circle cx="-1.650" cy="-1.650" r="0.150" fill="none" stroke="#6b7280" stroke-width="0.12" opacity="0.8"/><circle cx="-1.650" cy="-1.650" r="0.150" fill="none" stroke="#6b7280" stroke-width="0.12" opacity="0.8"/><rect x="-2.880" y="-1.620" width="1.750" height="0.700" rx="0.000" fill="#c79b5c"/><rect x="-2.880" y="-0.350" width="1.750" height="0.700" rx="0.000" fill="#c79b5c"/><rect x="-2.880" y="0.920" width="1.750" height="0.700" rx="0.000" fill="#c79b5c"/><rect x="-0.875" y="1.652" width="1.750" height="0.700" rx="0.000" fill="#c79b5c"/><rect x="1.127" y="0.920" width="1.750" height="0.700" rx="0.000" fill="#c79b5c"/><rect x="1.127" y="-0.350" width="1.750" height="0.700" rx="0.000" fill="#c79b5c"/><rect x="1.127" y="-1.620" width="1.750" height="0.700" rx="0.000" fill="#c79b5c"/><rect x="-0.875" y="-2.355" width="1.750" height="0.700" rx="0.000" fill="#c79b5c"/></svg>