<svg xmlns="http://www.w3.org/2000/svg" viewBox="-33.06 -4.30 66.11 8.23" preserveAspectRatio="xMidYMid meet" style="width:100%;height:100%"><rect x="-33.06" y="-4.30" width="66.11" height="8.23" fill="#12151c"/><line x1="-31.807" y1="1.664" x2="-31.807" y2="-1.664" stroke="#e6e9ef" stroke-width="0.200" stroke-linecap="round" opacity="1"/><line x1="31.807" y1="1.664" x2="31.807" y2="-1.664" stroke="#e6e9ef" stroke-width="0.200" stroke-linecap="round" opacity="1"/><line x1="-31.485" y1="-1.843" x2="31.485" y2="-1.843" stroke="#4a5160" stroke-width="0.100" stroke-linecap="round" opacity="0.7"/><line x1="-31.485" y1="1.843" x2="31.485" y2="1.843" stroke="#4a5160" stroke-width="0.100" stroke-linecap="round" opacity="0.7"/><line x1="-31.115" y1="-1.843" x2="-31.115" y2="-2.842" stroke="#4a5160" stroke-width="0.100" stroke-linecap="round" opacity="0.7"/><line x1="-31.115" y1="-0.843" x2="-31.115" y2="-1.843" stroke="#4a5160" stroke-width="0.100" stroke-linecap="round" opacity="0.7"/><line x1="-31.115" y1="1.843" x2="-31.115" y2="0.843" stroke="#4a5160" stroke-width="0.100" stroke-linecap="round" opacity="0.7"/><line x1="-31.115" y1="2.842" x2="-31.115" y2="1.843" stroke="#4a5160" stroke-width="0.100" stroke-linecap="round" opacity="0.7"/><line x1="-29.845" y1="-1.843" x2="-29.845" y2="-2.842" stroke="#4a5160" stroke-width="0.100" stroke-linecap="round" opacity="0.7"/><line x1="-29.845" y1="-0.843" x2="-29.845" y2="-1.843" stroke="#4a5160" stroke-width="0.100" stroke-linecap="round" opacity="0.7"/><line x1="-29.845" y1="1.843" x2="-29.845" y2="0.843" stroke="#4a5160" stroke-width="0.100" stroke-linecap="round" opacity="0.7"/><line x1="-29.845" y1="2.842" x2="-29.845" y2="1.843" stroke="#4a5160" stroke-width="0.100" stroke-linecap="round" opacity="0.7"/><line x1="-28.575" y1="-1.843" x2="-28.575" y2="-2.842" stroke="#4a5160" stroke-width="0.100" stroke-linecap="round" opacity="0.7"/><line x1="-28.575" y1="-0.843" x2="-28.575" y2="-1.843" stroke="#4a5160" stroke-width="0.100" stroke-linecap="round" opacity="0.7"/><line x1="-28.575" y1="1.843" x2="-28.575" y2="0.843" stroke="#4a5160" stroke-width="0.100" stroke-linecap="round" opacity="0.7"/><line x1="-28.575" y1="2.842" x2="-28.575" y2="1.843" stroke="#4a5160" stroke-width="0.100" stroke-linecap="round" opacity="0.7"/><line x1="-27.305" y1="-1.843" x2="-27.305" y2="-2.842" stroke="#4a5160" stroke-width="0.100" stroke-linecap="round" opacity="0.7"/><line x1="-27.305" y1="-0.843" x2="-27.305" y2="-1.843" stroke="#4a5160" stroke-width="0.100" stroke-linecap="round" opacity="0.7"/><line x1="-27.305" y1="1.843" x2="-27.305" y2="0.843" stroke="#4a5160" stroke-width="0.100" stroke-linecap="round" opacity="0.7"/><line x1="-27.305" y1="2.842" x2="-27.305" y2="1.843" stroke="#4a5160" stroke-width="0.100" stroke-linecap="round" opacity="0.7"/><line x1="-26.035" y1="-1.843" x2="-26.035" y2="-2.842" stroke="#4a5160" stroke-width="0.100" stroke-linecap="round" opacity="0.7"/><line x1="-26.035" y1="-0.843" x2="-26.035" y2="-1.843" stroke="#4a5160" stroke-width="0.100" stroke-linecap="round" opacity="0.7"/><line x1="-26.035" y1="1.843" x2="-26.035" y2="0.843" stroke="#4a5160" stroke-width="0.100" stroke-linecap="round" opacity="0.7"/><line x1="-26.035" y1="2.842" x2="-26.035" y2="1.843" stroke="#4a5160" stroke-width="0.100" stroke-linecap="round" opacity="0.7"/><line x1="-24.765" y1="-1.843" x2="-24.765" y2="-2.842" stroke="#4a5160" stroke-width="0.100" stroke-linecap="round" opacity="0.7"/><line x1="-24.765" y1="-0.843" x2="-24.765" y2="-1.843" stroke="#4a5160" stroke-width="0.100" stroke-linecap="round" opacity="0.7"/><line x1="-24.765" y1="1.843" x2="-24.765" y2="0.843" stroke="#4a5160" stroke-width="0.100" stroke-linecap="round" opacity="0.7"/><line x1="-24.765" y1="2.842" x2="-24.765" y2="1.843" stroke="#4a5160" stroke-width="0.100" stroke-linecap="round" opacity="0.7"/><line x1="-23.495" y1="-1.843" x2="-23.495" y2="-2.842" stroke="#4a5160" stroke-width="0.100" stroke-linecap="round" opacity="0.7"/><line x1="-23.495" y1="-0.843" x2="-23.495" y2="-1.843" stroke="#4a5160" stroke-width="0.100" stroke-linecap="round" opacity="0.7"/><line x1="-23.495" y1="1.843" x2="-23.495" y2="0.843" stroke="#4a5160" stroke-width="0.100" stroke-linecap="round" opacity="0.7"/><line x1="-23.495" y1="2.842" x2="-23.495" y2="1.843" stroke="#4a5160" stroke-width="0.100" stroke-linecap="round" opacity="0.7"/><line x1="-22.225" y1="-1.843" x2="-22.225" y2="-2.842" stroke="#4a5160" stroke-width="0.100" stroke-linecap="round" opacity="0.7"/><line x1="-22.225" y1="-0.843" x2="-22.225" y2="-1.843" stroke="#4a5160" stroke-width="0.100" stroke-linecap="round" opacity="0.7"/><line x1="-22.225" y1="1.843" x2="-22.225" y2="0.843" stroke="#4a5160" stroke-width="0.100" stroke-linecap="round" opacity="0.7"/><line x1="-22.225" y1="2.842" x2="-22.225" y2="1.843" stroke="#4a5160" stroke-width="0.100" stroke-linecap="round" opacity="0.7"/><line x1="-20.955" y1="-1.843" x2="-20.955" y2="-2.842" stroke="#4a5160" stroke-width="0.100" stroke-linecap="round" opacity="0.7"/><line x1="-20.955" y1="-0.843" x2="-20.955" y2="-1.843" stroke="#4a5160" stroke-width="0.100" stroke-linecap="round" opacity="0.7"/><line x1="-20.955" y1="1.843" x2="-20.955" y2="0.843" stroke="#4a5160" stroke-width="0.100" stroke-linecap="round" opacity="0.7"/><line x1="-20.955" y1="2.842" x2="-20.955" y2="1.843" stroke="#4a5160" stroke-width="0.100" stroke-linecap="round" opacity="0.7"/><line x1="-19.685" y1="-1.843" x2="-19.685" y2="-2.842" stroke="#4a5160" stroke-width="0.100" stroke-linecap="round" opacity="0.7"/><line x1="-19.685" y1="-0.843" x2="-19.685" y2="-1.843" stroke="#4a5160" stroke-width="0.100" stroke-linecap="round" opacity="0.7"/><line x1="-19.685" y1="1.843" x2="-19.685" y2="0.843" stroke="#4a5160" stroke-width="0.100" stroke-linecap="round" opacity="0.7"/><line x1="-19.685" y1="2.842" x2="-19.685" y2="1.843" stroke="#4a5160" stroke-width="0.100" stroke-linecap="round" opacity="0.7"/><line x1="-18.415" y1="-1.843" x2="-18.415" y2="-2.842" stroke="#4a5160" stroke-width="0.100" stroke-linecap="round" opacity="0.7"/><line x1="-18.415" y1="-0.843" x2="-18.415" y2="-1.843" stroke="#4a5160" stroke-width="0.100" stroke-linecap="round" opacity="0.7"/><line x1="-18.415" y1="1.843" x2="-18.415" y2="0.843" stroke="#4a5160" stroke-width="0.100" stroke-linecap="round" opacity="0.7"/><line x1="-18.415" y1="2.842" x2="-18.415" y2="1.843" stroke="#4a5160" stroke-width="0.100" stroke-linecap="round" opacity="0.7"/><line x1="-17.145" y1="-1.843" x2="-17.145" y2="-2.842" stroke="#4a5160" stroke-width="0.100" stroke-linecap="round" opacity="0.7"/><line x1="-17.145" y1="-0.843" x2="-17.145" y2="-1.843" stroke="#4a5160" stroke-width="0.100" stroke-linecap="round" opacity="0.7"/><line x1="-17.145" y1="1.843" x2="-17.145" y2="0.843" stroke="#4a5160" stroke-width="0.100" stroke-linecap="round" opacity="0.7"/><line x1="-17.145" y1="2.842" x2="-17.145" y2="1.843" stroke="#4a5160" stroke-width="0.100" stroke-linecap="round" opacity="0.7"/><line x1="-15.875" y1="-1.843" x2="-15.875" y2="-2.842" stroke="#4a5160" stroke-width="0.100" stroke-linecap="round" opacity="0.7"/><line x1="-15.875" y1="-0.843" x2="-15.875" y2="-1.843" stroke="#4a5160" stroke-width="0.100" stroke-linecap="round" opacity="0.7"/><line x1="-15.875" y1="1.843" x2="-15.875" y2="0.843" stroke="#4a5160" stroke-width="0.100" stroke-linecap="round" opacity="0.7"/><line x1="-15.875" y1="2.842" x2="-15.875" y2="1.843" stroke="#4a5160" stroke-width="0.100" stroke-linecap="round" opacity="0.7"/><line x1="-14.605" y1="-1.843" x2="-14.605" y2="-2.842" stroke="#4a5160" stroke-width="0.100" stroke-linecap="round" opacity="0.7"/><line x1="-14.605" y1="-0.843" x2="-14.605" y2="-1.843" stroke="#4a5160" stroke-width="0.100" stroke-linecap="round" opacity="0.7"/><line x1="-14.605" y1="1.843" x2="-14.605" y2="0.843" stroke="#4a5160" stroke-width="0.100" stroke-linecap="round" opacity="0.7"/><line x1="-14.605" y1="2.842" x2="-14.605" y2="1.843" stroke="#4a5160" stroke-width="0.100" stroke-linecap="round" opacity="0.7"/><line x1="-13.335" y1="-1.843" x2="-13.335" y2="-2.842" stroke="#4a5160" stroke-width="0.100" stroke-linecap="round" opacity="0.7"/><line x1="-13.335" y1="-0.843" x2="-13.335" y2="-1.843" stroke="#4a5160" stroke-width="0.100" stroke-linecap="round" opacity="0.7"/><line x1="-13.335" y1="1.843" x2="-13.335" y2="0.843" stroke="#4a5160" stroke-width="0.100" stroke-linecap="round" opacity="0.7"/><line x1="-13.335" y1="2.842" x2="-13.335" y2="1.843" stroke="#4a5160" stroke-width="0.100" stroke-linecap="round" opacity="0.7"/><line x1="-12.065" y1="-1.843" x2="-12.065" y2="-2.842" stroke="#4a5160" stroke-width="0.100" stroke-linecap="round" opacity="0.7"/><line x1="-12.065" y1="-0.843" x2="-12.065" y2="-1.843" stroke="#4a5160" stroke-width="0.100" stroke-linecap="round" opacity="0.7"/><line x1="-12.065" y1="1.843" x2="-12.065" y2="0.843" stroke="#4a5160" stroke-width="0.100" stroke-linecap="round" opacity="0.7"/><line x1="-12.065" y1="2.842" x2="-12.065" y2="1.843" stroke="#4a5160" stroke-width="0.100" stroke-linecap="round" opacity="0.7"/><line x1="-10.795" y1="-1.843" x2="-10.795" y2="-2.842" stroke="#4a5160" stroke-width="0.100" stroke-linecap="round" opacity="0.7"/><line x1="-10.795" y1="-0.843" x2="-10.795" y2="-1.843" stroke="#4a5160" stroke-width="0.100" stroke-linecap="round" opacity="0.7"/><line x1="-10.795" y1="1.843" x2="-10.795" y2="0.843" stroke="#4a5160" stroke-width="0.100" stroke-linecap="round" opacity="0.7"/><line x1="-10.795" y1="2.842" x2="-10.795" y2="1.843" stroke="#4a5160" stroke-width="0.100" stroke-linecap="round" opacity="0.7"/><line x1="-9.525" y1="-1.843" x2="-9.525" y2="-2.842" stroke="#4a5160" stroke-width="0.100" stroke-linecap="round" opacity="0.7"/><line x1="-9.525" y1="-0.843" x2="-9.525" y2="-1.843" stroke="#4a5160" stroke-width="0.100" stroke-linecap="round" opacity="0.7"/><line x1="-9.525" y1="1.843" x2="-9.525" y2="0.843" stroke="#4a5160" stroke-width="0.100" stroke-linecap="round" opacity="0.7"/><line x1="-9.525" y1="2.842" x2="-9.525" y2="1.843" stroke="#4a5160" stroke-width="0.100" stroke-linecap="round" opacity="0.7"/><line x1="-8.255" y1="-1.843" x2="-8.255" y2="-2.842" stroke="#4a5160" stroke-width="0.100" stroke-linecap="round" opacity="0.7"/><line x1="-8.255" y1="-0.843" x2="-8.255" y2="-1.843" stroke="#4a5160" stroke-width="0.100" stroke-linecap="round" opacity="0.7"/><line x1="-8.255" y1="1.843" x2="-8.255" y2="0.843" stroke="#4a5160" stroke-width="0.100" stroke-linecap="round" opacity="0.7"/><line x1="-8.255" y1="2.842" x2="-8.255" y2="1.843" stroke="#4a5160" stroke-width="0.100" stroke-linecap="round" opacity="0.7"/><line x1="-6.985" y1="-1.843" x2="-6.985" y2="-2.842" stroke="#4a5160" stroke-width="0.100" stroke-linecap="round" opacity="0.7"/><line x1="-6.985" y1="-0.843" x2="-6.985" y2="-1.843" stroke="#4a5160" stroke-width="0.100" stroke-linecap="round" opacity="0.7"/><line x1="-6.985" y1="1.843" x2="-6.985" y2="0.843" stroke="#4a5160" stroke-width="0.100" stroke-linecap="round" opacity="0.7"/><line x1="-6.985" y1="2.842" x2="-6.985" y2="1.843" stroke="#4a5160" stroke-width="0.100" stroke-linecap="round" opacity="0.7"/><line x1="-5.715" y1="-1.843" x2="-5.715" y2="-2.842" stroke="#4a5160" stroke-width="0.100" stroke-linecap="round" opacity="0.7"/><line x1="-5.715" y1="-0.843" x2="-5.715" y2="-1.843" stroke="#4a5160" stroke-width="0.100" stroke-linecap="round" opacity="0.7"/><line x1="-5.715" y1="1.843" x2="-5.715" y2="0.843" stroke="#4a5160" stroke-width="0.100" stroke-linecap="round" opacity="0.7"/><line x1="-5.715" y1="2.842" x2="-5.715" y2="1.843" stroke="#4a5160" stroke-width="0.100" stroke-linecap="round" opacity="0.7"/><line x1="-4.445" y1="-1.843" x2="-4.445" y2="-2.842" stroke="#4a5160" stroke-width="0.100" stroke-linecap="round" opacity="0.7"/><line x1="-4.445" y1="-0.843" x2="-4.445" y2="-1.843" stroke="#4a5160" stroke-width="0.100" stroke-linecap="round" opacity="0.7"/><line x1="-4.445" y1="1.843" x2="-4.445" y2="0.843" stroke="#4a5160" stroke-width="0.100" stroke-linecap="round" opacity="0.7"/><line x1="-4.445" y1="2.842" x2="-4.445" y2="1.843" stroke="#4a5160" stroke-width="0.100" stroke-linecap="round" opacity="0.7"/><line x1="-3.175" y1="-1.843" x2="-3.175" y2="-2.842" stroke="#4a5160" stroke-width="0.100" stroke-linecap="round" opacity="0.7"/><line x1="-3.175" y1="-0.843" x2="-3.175" y2="-1.843" stroke="#4a5160" stroke-width="0.100" stroke-linecap="round" opacity="0.7"/><line x1="-3.175" y1="1.843" x2="-3.175" y2="0.843" stroke="#4a5160" stroke-width="0.100" stroke-linecap="round" opacity="0.7"/><line x1="-3.175" y1="2.842" x2="-3.175" y2="1.843" stroke="#4a5160" stroke-width="0.100" stroke-linecap="round" opacity="0.7"/><line x1="-1.905" y1="-1.843" x2="-1.905" y2="-2.842" stroke="#4a5160" stroke-width="0.100" stroke-linecap="round" opacity="0.7"/><line x1="-1.905" y1="-0.843" x2="-1.905" y2="-1.843" stroke="#4a5160" stroke-width="0.100" stroke-linecap="round" opacity="0.7"/><line x1="-1.905" y1="1.843" x2="-1.905" y2="0.843" stroke="#4a5160" stroke-width="0.100" stroke-linecap="round" opacity="0.7"/><line x1="-1.905" y1="2.842" x2="-1.905" y2="1.843" stroke="#4a5160" stroke-width="0.100" stroke-linecap="round" opacity="0.7"/><line x1="-1.000" y1="0.000" x2="0.000" y2="0.000" stroke="#4a5160" stroke-width="0.100" stroke-linecap="round" opacity="0.7"/><line x1="-0.635" y1="-1.843" x2="-0.635" y2="-2.842" stroke="#4a5160" stroke-width="0.100" stroke-linecap="round" opacity="0.7"/><line x1="-0.635" y1="-0.843" x2="-0.635" y2="-1.843" stroke="#4a5160" stroke-width="0.100" stroke-linecap="round" opacity="0.7"/><line x1="-0.635" y1="1.843" x2="-0.635" y2="0.843" stroke="#4a5160" stroke-width="0.100" stroke-linecap="round" opacity="0.7"/><line x1="-0.635" y1="2.842" x2="-0.635" y2="1.843" stroke="#4a5160" stroke-width="0.100" stroke-linecap="round" opacity="0.7"/><line x1="0.000" y1="0.000" x2="0.000" y2="-1.000" stroke="#4a5160" stroke-width="0.100" stroke-linecap="round" opacity="0.7"/><line x1="0.000" y1="0.000" x2="1.000" y2="0.000" stroke="#4a5160" stroke-width="0.100" stroke-linecap="round" opacity="0.7"/><line x1="0.000" y1="1.000" x2="0.000" y2="0.000" stroke="#4a5160" stroke-width="0.100" stroke-linecap="round" opacity="0.7"/><line x1="0.635" y1="-1.843" x2="0.635" y2="-2.842" stroke="#4a5160" stroke-width="0.100" stroke-linecap="round" opacity="0.7"/><line x1="0.635" y1="-0.843" x2="0.635" y2="-1.843" stroke="#4a5160" stroke-width="0.100" stroke-linecap="round" opacity="0.7"/><line x1="0.635" y1="1.843" x2="0.635" y2="0.843" stroke="#4a5160" stroke-width="0.100" stroke-linecap="round" opacity="0.7"/><line x1="0.635" y1="2.842" x2="0.635" y2="1.843" stroke="#4a5160" stroke-width="0.100" stroke-linecap="round" opacity="0.7"/><line x1="1.905" y1="-1.843" x2="1.905" y2="-2.842" stroke="#4a5160" stroke-width="0.100" stroke-linecap="round" opacity="0.7"/><line x1="1.905" y1="-0.843" x2="1.905" y2="-1.843" stroke="#4a5160" stroke-width="0.100" stroke-linecap="round" opacity="0.7"/><line x1="1.905" y1="1.843" x2="1.905" y2="0.843" stroke="#4a5160" stroke-width="0.100" stroke-linecap="round" opacity="0.7"/><line x1="1.905" y1="2.842" x2="1.905" y2="1.843" stroke="#4a5160" stroke-width="0.100" stroke-linecap="round" opacity="0.7"/><line x1="3.175" y1="-1.843" x2="3.175" y2="-2.842" stroke="#4a5160" stroke-width="0.100" stroke-linecap="round" opacity="0.7"/><line x1="3.175" y1="-0.843" x2="3.175" y2="-1.843" stroke="#4a5160" stroke-width="0.100" stroke-linecap="round" opacity="0.7"/><line x1="3.175" y1="1.843" x2="3.175" y2="0.843" stroke="#4a5160" stroke-width="0.100" stroke-linecap="round" opacity="0.7"/><line x1="3.175" y1="2.842" x2="3.175" y2="1.843" stroke="#4a5160" stroke-width="0.100" stroke-linecap="round" opacity="0.7"/><line x1="4.445" y1="-1.843" x2="4.445" y2="-2.842" stroke="#4a5160" stroke-width="0.100" stroke-linecap="round" opacity="0.7"/><line x1="4.445" y1="-0.843" x2="4.445" y2="-1.843" stroke="#4a5160" stroke-width="0.100" stroke-linecap="round" opacity="0.7"/><line x1="4.445" y1="1.843" x2="4.445" y2="0.843" stroke="#4a5160" stroke-width="0.100" stroke-linecap="round" opacity="0.7"/><line x1="4.445" y1="2.842" x2="4.445" y2="1.843" stroke="#4a5160" stroke-width="0.100" stroke-linecap="round" opacity="0.7"/><line x1="5.715" y1="-1.843" x2="5.715" y2="-2.842" stroke="#4a5160" stroke-width="0.100" stroke-linecap="round" opacity="0.7"/><line x1="5.715" y1="-0.843" x2="5.715" y2="-1.843" stroke="#4a5160" stroke-width="0.100" stroke-linecap="round" opacity="0.7"/><line x1="5.715" y1="1.843" x2="5.715" y2="0.843" stroke="#4a5160" stroke-width="0.100" stroke-linecap="round" opacity="0.7"/><line x1="5.715" y1="2.842" x2="5.715" y2="1.843" stroke="#4a5160" stroke-width="0.100" stroke-linecap="round" opacity="0.7"/><line x1="6.985" y1="-1.843" x2="6.985" y2="-2.842" stroke="#4a5160" stroke-width="0.100" stroke-linecap="round" opacity="0.7"/><line x1="6.985" y1="-0.843" x2="6.985" y2="-1.843" stroke="#4a5160" stroke-width="0.100" stroke-linecap="round" opacity="0.7"/><line x1="6.985" y1="1.843" x2="6.985" y2="0.843" stroke="#4a5160" stroke-width="0.100" stroke-linecap="round" opacity="0.7"/><line x1="6.985" y1="2.842" x2="6.985" y2="1.843" stroke="#4a5160" stroke-width="0.100" stroke-linecap="round" opacity="0.7"/><line x1="8.255" y1="-1.843" x2="8.255" y2="-2.842" stroke="#4a5160" stroke-width="0.100" stroke-linecap="round" opacity="0.7"/><line x1="8.255" y1="-0.843" x2="8.255" y2="-1.843" stroke="#4a5160" stroke-width="0.100" stroke-linecap="round" opacity="0.7"/><line x1="8.255" y1="1.843" x2="8.255" y2="0.843" stroke="#4a5160" stroke-width="0.100" stroke-linecap="round" opacity="0.7"/><line x1="8.255" y1="2.842" x2="8.255" y2="1.843" stroke="#4a5160" stroke-width="0.100" stroke-linecap="round" opacity="0.7"/><line x1="9.525" y1="-1.843" x2="9.525" y2="-2.842" stroke="#4a5160" stroke-width="0.100" stroke-linecap="round" opacity="0.7"/><line x1="9.525" y1="-0.843" x2="9.525" y2="-1.843" stroke="#4a5160" stroke-width="0.100" stroke-linecap="round" opacity="0.7"/><line x1="9.525" y1="1.843" x2="9.525" y2="0.843" stroke="#4a5160" stroke-width="0.100" stroke-linecap="round" opacity="0.7"/><line x1="9.525" y1="2.842" x2="9.525" y2="1.843" stroke="#4a5160" stroke-width="0.100" stroke-linecap="round" opacity="0.7"/><line x1="10.795" y1="-1.843" x2="10.795" y2="-2.842" stroke="#4a5160" stroke-width="0.100" stroke-linecap="round" opacity="0.7"/><line x1="10.795" y1="-0.843" x2="10.795" y2="-1.843" stroke="#4a5160" stroke-width="0.100" stroke-linecap="round" opacity="0.7"/><line x1="10.795" y1="1.843" x2="10.795" y2="0.843" stroke="#4a5160" stroke-width="0.100" stroke-linecap="round" opacity="0.7"/><line x1="10.795" y1="2.842" x2="10.795" y2="1.843" stroke="#4a5160" stroke-width="0.100" stroke-linecap="round" opacity="0.7"/><line x1="12.065" y1="-1.843" x2="12.065" y2="-2.842" stroke="#4a5160" stroke-width="0.100" stroke-linecap="round" opacity="0.7"/><line x1="12.065" y1="-0.843" x2="12.065" y2="-1.843" stroke="#4a5160" stroke-width="0.100" stroke-linecap="round" opacity="0.7"/><line x1="12.065" y1="1.843" x2="12.065" y2="0.843" stroke="#4a5160" stroke-width="0.100" stroke-linecap="round" opacity="0.7"/><line x1="12.065" y1="2.842" x2="12.065" y2="1.843" stroke="#4a5160" stroke-width="0.100" stroke-linecap="round" opacity="0.7"/><line x1="13.335" y1="-1.843" x2="13.335" y2="-2.842" stroke="#4a5160" stroke-width="0.100" stroke-linecap="round" opacity="0.7"/><line x1="13.335" y1="-0.843" x2="13.335" y2="-1.843" stroke="#4a5160" stroke-width="0.100" stroke-linecap="round" opacity="0.7"/><line x1="13.335" y1="1.843" x2="13.335" y2="0.843" stroke="#4a5160" stroke-width="0.100" stroke-linecap="round" opacity="0.7"/><line x1="13.335" y1="2.842" x2="13.335" y2="1.843" stroke="#4a5160" stroke-width="0.100" stroke-linecap="round" opacity="0.7"/><line x1="14.605" y1="-1.843" x2="14.605" y2="-2.842" stroke="#4a5160" stroke-width="0.100" stroke-linecap="round" opacity="0.7"/><line x1="14.605" y1="-0.843" x2="14.605" y2="-1.843" stroke="#4a5160" stroke-width="0.100" stroke-linecap="round" opacity="0.7"/><line x1="14.605" y1="1.843" x2="14.605" y2="0.843" stroke="#4a5160" stroke-width="0.100" stroke-linecap="round" opacity="0.7"/><line x1="14.605" y1="2.842" x2="14.605" y2="1.843" stroke="#4a5160" stroke-width="0.100" stroke-linecap="round" opacity="0.7"/><line x1="15.875" y1="-1.843" x2="15.875" y2="-2.842" stroke="#4a5160" stroke-width="0.100" stroke-linecap="round" opacity="0.7"/><line x1="15.875" y1="-0.843" x2="15.875" y2="-1.843" stroke="#4a5160" stroke-width="0.100" stroke-linecap="round" opacity="0.7"/><line x1="15.875" y1="1.843" x2="15.875" y2="0.843" stroke="#4a5160" stroke-width="0.100" stroke-linecap="round" opacity="0.7"/><line x1="15.875" y1="2.842" x2="15.875" y2="1.843" stroke="#4a5160" stroke-width="0.100" stroke-linecap="round" opacity="0.7"/><line x1="17.145" y1="-1.843" x2="17.145" y2="-2.842" stroke="#4a5160" stroke-width="0.100" stroke-linecap="round" opacity="0.7"/><line x1="17.145" y1="-0.843" x2="17.145" y2="-1.843" stroke="#4a5160" stroke-width="0.100" stroke-linecap="round" opacity="0.7"/><line x1="17.145" y1="1.843" x2="17.145" y2="0.843" stroke="#4a5160" stroke-width="0.100" stroke-linecap="round" opacity="0.7"/><line x1="17.145" y1="2.842" x2="17.145" y2="1.843" stroke="#4a5160" stroke-width="0.100" stroke-linecap="round" opacity="0.7"/><line x1="18.415" y1="-1.843" x2="18.415" y2="-2.842" stroke="#4a5160" stroke-width="0.100" stroke-linecap="round" opacity="0.7"/><line x1="18.415" y1="-0.843" x2="18.415" y2="-1.843" stroke="#4a5160" stroke-width="0.100" stroke-linecap="round" opacity="0.7"/><line x1="18.415" y1="1.843" x2="18.415" y2="0.843" stroke="#4a5160" stroke-width="0.100" stroke-linecap="round" opacity="0.7"/><line x1="18.415" y1="2.842" x2="18.415" y2="1.843" stroke="#4a5160" stroke-width="0.100" stroke-linecap="round" opacity="0.7"/><line x1="19.685" y1="-1.843" x2="19.685" y2="-2.842" stroke="#4a5160" stroke-width="0.100" stroke-linecap="round" opacity="0.7"/><line x1="19.685" y1="-0.843" x2="19.685" y2="-1.843" stroke="#4a5160" stroke-width="0.100" stroke-linecap="round" opacity="0.7"/><line x1="19.685" y1="1.843" x2="19.685" y2="0.843" stroke="#4a5160" stroke-width="0.100" stroke-linecap="round" opacity="0.7"/><line x1="19.685" y1="2.842" x2="19.685" y2="1.843" stroke="#4a5160" stroke-width="0.100" stroke-linecap="round" opacity="0.7"/><line x1="20.955" y1="-1.843" x2="20.955" y2="-2.842" stroke="#4a5160" stroke-width="0.100" stroke-linecap="round" opacity="0.7"/><line x1="20.955" y1="-0.843" x2="20.955" y2="-1.843" stroke="#4a5160" stroke-width="0.100" stroke-linecap="round" opacity="0.7"/><line x1="20.955" y1="1.843" x2="20.955" y2="0.843" stroke="#4a5160" stroke-width="0.100" stroke-linecap="round" opacity="0.7"/><line x1="20.955" y1="2.842" x2="20.955" y2="1.843" stroke="#4a5160" stroke-width="0.100" stroke-linecap="round" opacity="0.7"/><line x1="22.225" y1="-1.843" x2="22.225" y2="-2.842" stroke="#4a5160" stroke-width="0.100" stroke-linecap="round" opacity="0.7"/><line x1="22.225" y1="-0.843" x2="22.225" y2="-1.843" stroke="#4a5160" stroke-width="0.100" stroke-linecap="round" opacity="0.7"/><line x1="22.225" y1="1.843" x2="22.225" y2="0.843" stroke="#4a5160" stroke-width="0.100" stroke-linecap="round" opacity="0.7"/><line x1="22.225" y1="2.842" x2="22.225" y2="1.843" stroke="#4a5160" stroke-width="0.100" stroke-linecap="round" opacity="0.7"/><line x1="23.495" y1="-1.843" x2="23.495" y2="-2.842" stroke="#4a5160" stroke-width="0.100" stroke-linecap="round" opacity="0.7"/><line x1="23.495" y1="-0.843" x2="23.495" y2="-1.843" stroke="#4a5160" stroke-width="0.100" stroke-linecap="round" opacity="0.7"/><line x1="23.495" y1="1.843" x2="23.495" y2="0.843" stroke="#4a5160" stroke-width="0.100" stroke-linecap="round" opacity="0.7"/><line x1="23.495" y1="2.842" x2="23.495" y2="1.843" stroke="#4a5160" stroke-width="0.100" stroke-linecap="round" opacity="0.7"/><line x1="24.765" y1="-1.843" x2="24.765" y2="-2.842" stroke="#4a5160" stroke-width="0.100" stroke-linecap="round" opacity="0.7"/><line x1="24.765" y1="-0.843" x2="24.765" y2="-1.843" stroke="#4a5160" stroke-width="0.100" stroke-linecap="round" opacity="0.7"/><line x1="24.765" y1="1.843" x2="24.765" y2="0.843" stroke="#4a5160" stroke-width="0.100" stroke-linecap="round" opacity="0.7"/><line x1="24.765" y1="2.842" x2="24.765" y2="1.843" stroke="#4a5160" stroke-width="0.100" stroke-linecap="round" opacity="0.7"/><line x1="26.035" y1="-1.843" x2="26.035" y2="-2.842" stroke="#4a5160" stroke-width="0.100" stroke-linecap="round" opacity="0.7"/><line x1="26.035" y1="-0.843" x2="26.035" y2="-1.843" stroke="#4a5160" stroke-width="0.100" stroke-linecap="round" opacity="0.7"/><line x1="26.035" y1="1.843" x2="26.035" y2="0.843" stroke="#4a5160" stroke-width="0.100" stroke-linecap="round" opacity="0.7"/><line x1="26.035" y1="2.842" x2="26.035" y2="1.843" stroke="#4a5160" stroke-width="0.100" stroke-linecap="round" opacity="0.7"/><line x1="27.305" y1="-1.843" x2="27.305" y2="-2.842" stroke="#4a5160" stroke-width="0.100" stroke-linecap="round" opacity="0.7"/><line x1="27.305" y1="-0.843" x2="27.305" y2="-1.843" stroke="#4a5160" stroke-width="0.100" stroke-linecap="round" opacity="0.7"/><line x1="27.305" y1="1.843" x2="27.305" y2="0.843" stroke="#4a5160" stroke-width="0.100" stroke-linecap="round" opacity="0.7"/><line x1="27.305" y1="2.842" x2="27.305" y2="1.843" stroke="#4a5160" stroke-width="0.100" stroke-linecap="round" opacity="0.7"/><line x1="28.575" y1="-1.843" x2="28.575" y2="-2.842" stroke="#4a5160" stroke-width="0.100" stroke-linecap="round" opacity="0.7"/><line x1="28.575" y1="-0.843" x2="28.575" y2="-1.843" stroke="#4a5160" stroke-width="0.100" stroke-linecap="round" opacity="0.7"/><line x1="28.575" y1="1.843" x2="28.575" y2="0.843" stroke="#4a5160" stroke-width="0.100" stroke-linecap="round" opacity="0.7"/><line x1="28.575" y1="2.842" x2="28.575" y2="1.843" stroke="#4a5160" stroke-width="0.100" stroke-linecap="round" opacity="0.7"/><line x1="29.845" y1="-1.843" x2="29.845" y2="-2.842" stroke="#4a5160" stroke-width="0.100" stroke-linecap="round" opacity="0.7"/><line x1="29.845" y1="-0.843" x2="29.845" y2="-1.843" stroke="#4a5160" stroke-width="0.100" stroke-linecap="round" opacity="0.7"/><line x1="29.845" y1="1.843" x2="29.845" y2="0.843" stroke="#4a5160" stroke-width="0.100" stroke-linecap="round" opacity="0.7"/><line x1="29.845" y1="2.842" x2="29.845" y2="1.843" stroke="#4a5160" stroke-width="0.100" stroke-linecap="round" opacity="0.7"/><line x1="31.115" y1="-1.843" x2="31.115" y2="-2.842" stroke="#4a5160" stroke-width="0.100" stroke-linecap="round" opacity="0.7"/><line x1="31.115" y1="-0.843" x2="31.115" y2="-1.843" stroke="#4a5160" stroke-width="0.100" stroke-linecap="round" opacity="0.7"/><line x1="31.115" y1="1.843" x2="31.115" y2="0.843" stroke="#4a5160" stroke-width="0.100" stroke-linecap="round" opacity="0.7"/><line x1="31.115" y1="2.842" x2="31.115" y2="1.843" stroke="#4a5160" stroke-width="0.100" stroke-linecap="round" opacity="0.7"/><line x1="-32.057" y1="-2.930" x2="32.057" y2="-2.930" stroke="#d24d4d" stroke-width="0.100" stroke-linecap="round" opacity="0.7"/><line x1="-32.057" y1="2.930" x2="-32.057" y2="-2.930" stroke="#d24d4d" stroke-width="0.100" stroke-linecap="round" opacity="0.7"/><line x1="-32.057" y1="2.930" x2="32.057" y2="2.930" stroke="#d24d4d" stroke-width="0.100" stroke-linecap="round" opacity="0.7"/><line x1="32.057" y1="2.930" x2="32.057" y2="-2.930" stroke="#d24d4d" stroke-width="0.100" stroke-linecap="round" opacity="0.7"/><line x1="-31.807" y1="-1.664" x2="31.807" y2="-1.664" stroke="#6b7280" stroke-width="0.100" stroke-linecap="round" opacity="0.8"/><line x1="-31.807" y1="1.664" x2="-31.807" y2="-1.664" stroke="#6b7280" stroke-width="0.100" stroke-linecap="round" opacity="0.8"/><line x1="-31.807" y1="1.664" x2="31.807" y2="1.664" stroke="#6b7280" stroke-width="0.100" stroke-linecap="round" opacity="0.8"/><line x1="31.807" y1="1.664" x2="31.807" y2="-1.664" stroke="#6b7280" stroke-width="0.100" stroke-linecap="round" opacity="0.8"/><circle cx="-31.117" cy="-3.175" r="0.125" fill="none" stroke="#e6e9ef" stroke-width="0.12" opacity="1"/><circle cx="-31.117" cy="-3.175" r="0.125" fill="none" stroke="#6b7280" stroke-width="0.12" opacity="0.8"/><rect x="-31.485" y="-2.680" width="0.740" height="1.675" rx="0.000" fill="#c79b5c"/><rect x="-31.485" y="1.005" width="0.740" height="1.675" rx="0.000" fill="#c79b5c"/><rect x="-30.215" y="-2.680" width="0.740" height="1.675" rx="0.000" fill="#c79b5c"/><rect x="-30.215" y="1.005" width="0.740" height="1.675" rx="0.000" fill="#c79b5c"/><rect x="-28.945" y="-2.680" width="0.740" height="1.675" rx="0.000" fill="#c79b5c"/><rect x="-28.945" y="1.005" width="0.740" height="1.675" rx="0.000" fill="#c79b5c"/><rect x="-27.675" y="-2.680" width="0.740" height="1.675" rx="0.000" fill="#c79b5c"/><rect x="-27.675" y="1.005" width="0.740" height="1.675" rx="0.000" fill="#c79b5c"/><rect x="-26.405" y="-2.680" width="0.740" height="1.675" rx="0.000" fill="#c79b5c"/><rect x="-26.405" y="1.005" width="0.740" height="1.675" rx="0.000" fill="#c79b5c"/><rect x="-25.135" y="-2.680" width="0.740" height="1.675" rx="0.000" fill="#c79b5c"/><rect x="-25.135" y="1.005" width="0.740" height="1.675" rx="0.000" fill="#c79b5c"/><rect x="-23.865" y="-2.680" width="0.740" height="1.675" rx="0.000" fill="#c79b5c"/><rect x="-23.865" y="1.005" width="0.740" height="1.675" rx="0.000" fill="#c79b5c"/><rect x="-22.595" y="-2.680" width="0.740" height="1.675" rx="0.000" fill="#c79b5c"/><rect x="-22.595" y="1.005" width="0.740" height="1.675" rx="0.000" fill="#c79b5c"/><rect x="-21.325" y="-2.680" width="0.740" height="1.675" rx="0.000" fill="#c79b5c"/><rect x="-21.325" y="1.005" width="0.740" height="1.675" rx="0.000" fill="#c79b5c"/><rect x="-20.055" y="-2.680" width="0.740" height="1.675" rx="0.000" fill="#c79b5c"/><rect x="-20.055" y="1.005" width="0.740" height="1.675" rx="0.000" fill="#c79b5c"/><rect x="-18.785" y="-2.680" width="0.740" height="1.675" rx="0.000" fill="#c79b5c"/><rect x="-18.785" y="1.005" width="0.740" height="1.675" rx="0.000" fill="#c79b5c"/><rect x="-17.515" y="-2.680" width="0.740" height="1.675" rx="0.000" fill="#c79b5c"/><rect x="-17.515" y="1.005" width="0.740" height="1.675" rx="0.000" fill="#c79b5c"/><rect x="-16.245" y="-2.680" width="0.740" height="1.675" rx="0.000" fill="#c79b5c"/><rect x="-16.245" y="1.005" width="0.740" height="1.675" rx="0.000" fill="#c79b5c"/><rect x="-14.975" y="-2.680" width="0.740" height="1.675" rx="0.000" fill="#c79b5c"/><rect x="-14.975" y="1.005" width="0.740" height="1.675" rx="0.000" fill="#c79b5c"/><rect x="-13.705" y="-2.680" width="0.740" height="1.675" rx="0.000" fill="#c79b5c"/><rect x="-13.705" y="1.005" width="0.740" height="1.675" rx="0.000" fill="#c79b5c"/><rect x="-12.435" y="-2.680" width="0.740" height="1.675" rx="0.000" fill="#c79b5c"/><rect x="-12.435" y="1.005" width="0.740" height="1.675" rx="0.000" fill="#c79b5c"/><rect x="-11.165" y="-2.680" width="0.740" height="1.675" rx="0.000" fill="#c79b5c"/><rect x="-11.165" y="1.005" width="0.740" height="1.675" rx="0.000" fill="#c79b5c"/><rect x="-9.895" y="-2.680" width="0.740" height="1.675" rx="0.000" fill="#c79b5c"/><rect x="-9.895" y="1.005" width="0.740" height="1.675" rx="0.000" fill="#c79b5c"/><rect x="-8.625" y="-2.680" width="0.740" height="1.675" rx="0.000" fill="#c79b5c"/><rect x="-8.625" y="1.005" width="0.740" height="1.675" rx="0.000" fill="#c79b5c"/><rect x="-7.355" y="-2.680" width="0.740" height="1.675" rx="0.000" fill="#c79b5c"/><rect x="-7.355" y="1.005" width="0.740" height="1.675" rx="0.000" fill="#c79b5c"/><rect x="-6.085" y="-2.680" width="0.740" height="1.675" rx="0.000" fill="#c79b5c"/><rect x="-6.085" y="1.005" width="0.740" height="1.675" rx="0.000" fill="#c79b5c"/><rect x="-4.815" y="-2.680" width="0.740" height="1.675" rx="0.000" fill="#c79b5c"/><rect x="-4.815" y="1.005" width="0.740" height="1.675" rx="0.000" fill="#c79b5c"/><rect x="-3.545" y="-2.680" width="0.740" height="1.675" rx="0.000" fill="#c79b5c"/><rect x="-3.545" y="1.005" width="0.740" height="1.675" rx="0.000" fill="#c79b5c"/><rect x="-2.275" y="-2.680" width="0.740" height="1.675" rx="0.000" fill="#c79b5c"/><rect x="-2.275" y="1.005" width="0.740" height="1.675" rx="0.000" fill="#c79b5c"/><rect x="-1.005" y="-2.680" width="0.740" height="1.675" rx="0.000" fill="#c79b5c"/><rect x="-1.005" y="1.005" width="0.740" height="1.675" rx="0.000" fill="#c79b5c"/><rect x="0.265" y="-2.680" width="0.740" height="1.675" rx="0.000" fill="#c79b5c"/><rect x="0.265" y="1.005" width="0.740" height="1.675" rx="0.000" fill="#c79b5c"/><rect x="1.535" y="-2.680" width="0.740" height="1.675" rx="0.000" fill="#c79b5c"/><rect x="1.535" y="1.005" width="0.740" height="1.675" rx="0.000" fill="#c79b5c"/><rect x="2.805" y="-2.680" width="0.740" height="1.675" rx="0.000" fill="#c79b5c"/><rect x="2.805" y="1.005" width="0.740" height="1.675" rx="0.000" fill="#c79b5c"/><rect x="4.075" y="-2.680" width="0.740" height="1.675" rx="0.000" fill="#c79b5c"/><rect x="4.075" y="1.005" width="0.740" height="1.675" rx="0.000" fill="#c79b5c"/><rect x="5.345" y="-2.680" width="0.740" height="1.675" rx="0.000" fill="#c79b5c"/><rect x="5.345" y="1.005" width="0.740" height="1.675" rx="0.000" fill="#c79b5c"/><rect x="6.615" y="-2.680" width="0.740" height="1.675" rx="0.000" fill="#c79b5c"/><rect x="6.615" y="1.005" width="0.740" height="1.675" rx="0.000" fill="#c79b5c"/><rect x="7.885" y="-2.680" width="0.740" height="1.675" rx="0.000" fill="#c79b5c"/><rect x="7.885" y="1.005" width="0.740" height="1.675" rx="0.000" fill="#c79b5c"/><rect x="9.155" y="-2.680" width="0.740" height="1.675" rx="0.000" fill="#c79b5c"/><rect x="9.155" y="1.005" width="0.740" height="1.675" rx="0.000" fill="#c79b5c"/><rect x="10.425" y="-2.680" width="0.740" height="1.675" rx="0.000" fill="#c79b5c"/><rect x="10.425" y="1.005" width="0.740" height="1.675" rx="0.000" fill="#c79b5c"/><rect x="11.695" y="-2.680" width="0.740" height="1.675" rx="0.000" fill="#c79b5c"/><rect x="11.695" y="1.005" width="0.740" height="1.675" rx="0.000" fill="#c79b5c"/><rect x="12.965" y="-2.680" width="0.740" height="1.675" rx="0.000" fill="#c79b5c"/><rect x="12.965" y="1.005" width="0.740" height="1.675" rx="0.000" fill="#c79b5c"/><rect x="14.235" y="-2.680" width="0.740" height="1.675" rx="0.000" fill="#c79b5c"/><rect x="14.235" y="1.005" width="0.740" height="1.675" rx="0.000" fill="#c79b5c"/><rect x="15.505" y="-2.680" width="0.740" height="1.675" rx="0.000" fill="#c79b5c"/><rect x="15.505" y="1.005" width="0.740" height="1.675" rx="0.000" fill="#c79b5c"/><rect x="16.775" y="-2.680" width="0.740" height="1.675" rx="0.000" fill="#c79b5c"/><rect x="16.775" y="1.005" width="0.740" height="1.675" rx="0.000" fill="#c79b5c"/><rect x="18.045" y="-2.680" width="0.740" height="1.675" rx="0.000" fill="#c79b5c"/><rect x="18.045" y="1.005" width="0.740" height="1.675" rx="0.000" fill="#c79b5c"/><rect x="19.315" y="-2.680" width="0.740" height="1.675" rx="0.000" fill="#c79b5c"/><rect x="19.315" y="1.005" width="0.740" height="1.675" rx="0.000" fill="#c79b5c"/><rect x="20.585" y="-2.680" width="0.740" height="1.675" rx="0.000" fill="#c79b5c"/><rect x="20.585" y="1.005" width="0.740" height="1.675" rx="0.000" fill="#c79b5c"/><rect x="21.855" y="-2.680" width="0.740" height="1.675" rx="0.000" fill="#c79b5c"/><rect x="21.855" y="1.005" width="0.740" height="1.675" rx="0.000" fill="#c79b5c"/><rect x="23.125" y="-2.680" width="0.740" height="1.675" rx="0.000" fill="#c79b5c"/><rect x="23.125" y="1.005" width="0.740" height="1.675" rx="0.000" fill="#c79b5c"/><rect x="24.395" y="-2.680" width="0.740" height="1.675" rx="0.000" fill="#c79b5c"/><rect x="24.395" y="1.005" width="0.740" height="1.675" rx="0.000" fill="#c79b5c"/><rect x="25.665" y="-2.680" width="0.740" height="1.675" rx="0.000" fill="#c79b5c"/><rect x="25.665" y="1.005" width="0.740" height="1.675" rx="0.000" fill="#c79b5c"/><rect x="26.935" y="-2.680" width="0.740" height="1.675" rx="0.000" fill="#c79b5c"/><rect x="26.935" y="1.005" width="0.740" height="1.675" rx="0.000" fill="#c79b5c"/><rect x="28.205" y="-2.680" width="0.740" height="1.675" rx="0.000" fill="#c79b5c"/><rect x="28.205" y="1.005" width="0.740" height="1.675" rx="0.000" fill="#c79b5c"/><rect x="29.475" y="-2.680" width="0.740" height="1.675" rx="0.000" fill="#c79b5c"/><rect x="29.475" y="1.005" width="0.740" height="1.675" rx="0.000" fill="#c79b5c"/><rect x="30.745" y="-2.680" width="0.740" height="1.675" rx="0.000" fill="#c79b5c"/><rect x="30.745" y="1.005" width="0.740" height="1.675" rx="0.000" fill="#c79b5c"/></svg>