<svg xmlns="http://www.w3.org/2000/svg" viewBox="-5.43 -3.00 10.85 6.00" preserveAspectRatio="xMidYMid meet" style="width:100%;height:100%"><rect x="-5.43" y="-3.00" width="10.85" height="6.00" fill="#12151c"/><line x1="-1.400" y1="-1.600" x2="1.400" y2="-1.600" stroke="#e6e9ef" stroke-width="0.200" stroke-linecap="round" opacity="1"/><line x1="-1.400" y1="1.600" x2="1.400" y2="1.600" stroke="#e6e9ef" stroke-width="0.200" stroke-linecap="round" opacity="1"/><line x1="-3.900" y1="-2.000" x2="3.900" y2="-2.000" stroke="#d24d4d" stroke-width="0.080" stroke-linecap="round" opacity="0.7"/><line x1="-3.900" y1="2.000" x2="-3.900" y2="-2.000" stroke="#d24d4d" stroke-width="0.080" stroke-linecap="round" opacity="0.7"/><line x1="-3.900" y1="2.000" x2="3.900" y2="2.000" stroke="#d24d4d" stroke-width="0.080" stroke-linecap="round" opacity="0.7"/><line x1="3.900" y1="2.000" x2="3.900" y2="-2.000" stroke="#d24d4d" stroke-width="0.080" stroke-linecap="round" opacity="0.7"/><line x1="-3.175" y1="-1.590" x2="3.175" y2="-1.590" stroke="#6b7280" stroke-width="0.100" stroke-linecap="round" opacity="0.8"/><line x1="-3.175" y1="1.590" x2="-3.175" y2="-1.590" stroke="#6b7280" stroke-width="0.100" stroke-linecap="round" opacity="0.8"/><line x1="-3.175" y1="1.590" x2="3.175" y2="1.590" stroke="#6b7280" stroke-width="0.100" stroke-linecap="round" opacity="0.8"/><line x1="3.175" y1="1.590" x2="3.175" y2="-1.590" stroke="#6b7280" stroke-width="0.100" stroke-linecap="round" opacity="0.8"/><rect x="-4.425" y="-0.950" width="3.450" height="1.900" rx="0.000" fill="#c79b5c"/><rect x="0.975" y="-0.950" width="3.450" height="1.900" rx="0.000" fill="#c79b5c"/><polygon points="-3.15,2.00 -2.25,2.00 -2.70,1.40" fill="#ffffff"/></svg>