<svg xmlns="http://www.w3.org/2000/svg" viewBox="-13.40 -15.15 23.75 17.80" preserveAspectRatio="xMidYMid meet" style="width:100%;height:100%"><rect x="-13.40" y="-15.15" width="23.75" height="17.80" fill="#12151c"/><line x1="-12.150" y1="-5.900" x2="-12.150" y2="-10.900" stroke="#e6e9ef" stroke-width="0.200" stroke-linecap="round" opacity="1"/><line x1="-11.850" y1="-11.200" x2="-10.550" y2="-11.200" stroke="#e6e9ef" stroke-width="0.200" stroke-linecap="round" opacity="1"/><line x1="-11.850" y1="-5.600" x2="-8.650" y2="-5.600" stroke="#e6e9ef" stroke-width="0.200" stroke-linecap="round" opacity="1"/><line x1="-10.550" y1="-11.200" x2="-5.250" y2="-13.200" stroke="#e6e9ef" stroke-width="0.200" stroke-linecap="round" opacity="1"/><line x1="-9.850" y1="-4.300" x2="-9.330" y2="-4.600" stroke="#e6e9ef" stroke-width="0.200" stroke-linecap="round" opacity="1"/><line x1="-9.850" y1="-3.600" x2="-9.850" y2="-4.300" stroke="#e6e9ef" stroke-width="0.200" stroke-linecap="round" opacity="1"/><line x1="-9.850" y1="-3.600" x2="-9.100" y2="-3.600" stroke="#e6e9ef" stroke-width="0.200" stroke-linecap="round" opacity="1"/><line x1="-9.330" y1="-4.600" x2="-8.650" y2="-4.600" stroke="#e6e9ef" stroke-width="0.200" stroke-linecap="round" opacity="1"/><line x1="-9.100" y1="-3.600" x2="-8.000" y2="-3.600" stroke="#e6e9ef" stroke-width="0.200" stroke-linecap="round" opacity="1"/><line x1="-9.100" y1="-2.750" x2="-8.000" y2="-2.750" stroke="#e6e9ef" stroke-width="0.200" stroke-linecap="round" opacity="1"/><line x1="-9.100" y1="-2.500" x2="-8.000" y2="-2.500" stroke="#e6e9ef" stroke-width="0.200" stroke-linecap="round" opacity="1"/><line x1="-9.100" y1="1.400" x2="-9.100" y2="-3.600" stroke="#e6e9ef" stroke-width="0.200" stroke-linecap="round" opacity="1"/><line x1="-9.100" y1="1.400" x2="7.100" y2="1.400" stroke="#e6e9ef" stroke-width="0.200" stroke-linecap="round" opacity="1"/><line x1="-8.650" y1="-4.600" x2="-8.650" y2="-5.600" stroke="#e6e9ef" stroke-width="0.200" stroke-linecap="round" opacity="1"/><line x1="-8.000" y1="-4.100" x2="7.900" y2="-4.100" stroke="#e6e9ef" stroke-width="0.200" stroke-linecap="round" opacity="1"/><line x1="-8.000" y1="-2.500" x2="-8.000" y2="-4.100" stroke="#e6e9ef" stroke-width="0.200" stroke-linecap="round" opacity="1"/><line x1="-5.250" y1="-13.200" x2="-5.250" y2="-13.400" stroke="#e6e9ef" stroke-width="0.200" stroke-linecap="round" opacity="1"/><line x1="-4.750" y1="-13.900" x2="4.900" y2="-13.900" stroke="#e6e9ef" stroke-width="0.200" stroke-linecap="round" opacity="1"/><line x1="-2.831" y1="-3.300" x2="-2.831" y2="-4.100" stroke="#e6e9ef" stroke-width="0.200" stroke-linecap="round" opacity="1"/><line x1="-2.831" y1="-3.300" x2="7.100" y2="-3.300" stroke="#e6e9ef" stroke-width="0.200" stroke-linecap="round" opacity="1"/><line x1="3.334" y1="-8.200" x2="4.900" y2="-8.200" stroke="#e6e9ef" stroke-width="0.200" stroke-linecap="round" opacity="1"/><line x1="3.334" y1="-7.000" x2="3.334" y2="-8.200" stroke="#e6e9ef" stroke-width="0.200" stroke-linecap="round" opacity="1"/><line x1="3.334" y1="-7.000" x2="4.900" y2="-7.000" stroke="#e6e9ef" stroke-width="0.200" stroke-linecap="round" opacity="1"/><line x1="3.700" y1="-12.900" x2="4.467" y2="-12.900" stroke="#e6e9ef" stroke-width="0.200" stroke-linecap="round" opacity="1"/><line x1="3.700" y1="-11.900" x2="3.700" y2="-12.900" stroke="#e6e9ef" stroke-width="0.200" stroke-linecap="round" opacity="1"/><line x1="3.700" y1="-11.900" x2="5.900" y2="-11.900" stroke="#e6e9ef" stroke-width="0.200" stroke-linecap="round" opacity="1"/><line x1="4.200" y1="-7.000" x2="4.200" y2="-8.200" stroke="#e6e9ef" stroke-width="0.200" stroke-linecap="round" opacity="1"/><line x1="4.467" y1="-12.900" x2="4.900" y2="-13.150" stroke="#e6e9ef" stroke-width="0.200" stroke-linecap="round" opacity="1"/><line x1="4.900" y1="-13.150" x2="4.900" y2="-13.900" stroke="#e6e9ef" stroke-width="0.200" stroke-linecap="round" opacity="1"/><line x1="4.900" y1="-11.900" x2="4.900" y2="-5.000" stroke="#e6e9ef" stroke-width="0.200" stroke-linecap="round" opacity="1"/><line x1="4.900" y1="-11.000" x2="5.467" y2="-11.000" stroke="#e6e9ef" stroke-width="0.200" stroke-linecap="round" opacity="1"/><line x1="4.900" y1="-5.000" x2="8.300" y2="-5.000" stroke="#e6e9ef" stroke-width="0.200" stroke-linecap="round" opacity="1"/><line x1="5.467" y1="-11.000" x2="5.900" y2="-11.250" stroke="#e6e9ef" stroke-width="0.200" stroke-linecap="round" opacity="1"/><line x1="5.900" y1="-11.250" x2="5.900" y2="-11.900" stroke="#e6e9ef" stroke-width="0.200" stroke-linecap="round" opacity="1"/><line x1="7.100" y1="-1.342" x2="7.100" y2="-3.300" stroke="#e6e9ef" stroke-width="0.200" stroke-linecap="round" opacity="1"/><line x1="7.900" y1="-1.342" x2="7.900" y2="-4.100" stroke="#e6e9ef" stroke-width="0.200" stroke-linecap="round" opacity="1"/><line x1="7.900" y1="1.400" x2="9.100" y2="1.400" stroke="#e6e9ef" stroke-width="0.200" stroke-linecap="round" opacity="1"/><line x1="8.300" y1="-5.000" x2="9.100" y2="-4.200" stroke="#e6e9ef" stroke-width="0.200" stroke-linecap="round" opacity="1"/><line x1="9.100" y1="1.400" x2="9.100" y2="-4.200" stroke="#e6e9ef" stroke-width="0.200" stroke-linecap="round" opacity="1"/><line x1="-8.000" y1="0.000" x2="-7.500" y2="0.000" stroke="#4a5160" stroke-width="0.100" stroke-linecap="round" opacity="0.7"/><line x1="-7.500" y1="0.000" x2="-7.500" y2="-0.500" stroke="#4a5160" stroke-width="0.100" stroke-linecap="round" opacity="0.7"/><line x1="-7.500" y1="0.000" x2="-7.000" y2="0.000" stroke="#4a5160" stroke-width="0.100" stroke-linecap="round" opacity="0.7"/><line x1="-7.500" y1="0.500" x2="-7.500" y2="0.000" stroke="#4a5160" stroke-width="0.100" stroke-linecap="round" opacity="0.7"/><line x1="-3.000" y1="0.000" x2="-2.500" y2="0.000" stroke="#4a5160" stroke-width="0.100" stroke-linecap="round" opacity="0.7"/><line x1="-2.500" y1="0.000" x2="-2.500" y2="-0.500" stroke="#4a5160" stroke-width="0.100" stroke-linecap="round" opacity="0.7"/><line x1="-2.500" y1="0.000" x2="-2.000" y2="0.000" stroke="#4a5160" stroke-width="0.100" stroke-linecap="round" opacity="0.7"/><line x1="-2.500" y1="0.500" x2="-2.500" y2="0.000" stroke="#4a5160" stroke-width="0.100" stroke-linecap="round" opacity="0.7"/><line x1="-0.354" y1="0.354" x2="0.000" y2="0.000" stroke="#4a5160" stroke-width="0.100" stroke-linecap="round" opacity="0.7"/><line x1="-0.354" y1="-0.354" x2="0.000" y2="0.000" stroke="#4a5160" stroke-width="0.100" stroke-linecap="round" opacity="0.7"/><line x1="0.000" y1="0.000" x2="0.354" y2="-0.354" stroke="#4a5160" stroke-width="0.100" stroke-linecap="round" opacity="0.7"/><line x1="0.000" y1="0.000" x2="0.354" y2="0.354" stroke="#4a5160" stroke-width="0.100" stroke-linecap="round" opacity="0.7"/><line x1="2.000" y1="0.000" x2="2.500" y2="0.000" stroke="#4a5160" stroke-width="0.100" stroke-linecap="round" opacity="0.7"/><line x1="2.500" y1="0.000" x2="2.500" y2="-0.500" stroke="#4a5160" stroke-width="0.100" stroke-linecap="round" opacity="0.7"/><line x1="2.500" y1="0.000" x2="3.000" y2="0.000" stroke="#4a5160" stroke-width="0.100" stroke-linecap="round" opacity="0.7"/><line x1="2.500" y1="0.500" x2="2.500" y2="0.000" stroke="#4a5160" stroke-width="0.100" stroke-linecap="round" opacity="0.7"/><line x1="7.000" y1="0.000" x2="7.500" y2="0.000" stroke="#4a5160" stroke-width="0.100" stroke-linecap="round" opacity="0.7"/><line x1="7.500" y1="0.000" x2="7.500" y2="-0.500" stroke="#4a5160" stroke-width="0.100" stroke-linecap="round" opacity="0.7"/><line x1="7.500" y1="0.000" x2="8.000" y2="0.000" stroke="#4a5160" stroke-width="0.100" stroke-linecap="round" opacity="0.7"/><line x1="7.500" y1="0.500" x2="7.500" y2="0.000" stroke="#4a5160" stroke-width="0.100" stroke-linecap="round" opacity="0.7"/><line x1="-12.150" y1="-5.900" x2="-12.150" y2="-10.900" stroke="#6b7280" stroke-width="0.100" stroke-linecap="round" opacity="0.8"/><line x1="-11.850" y1="-11.200" x2="-10.550" y2="-11.200" stroke="#6b7280" stroke-width="0.100" stroke-linecap="round" opacity="0.8"/><line x1="-11.850" y1="-5.600" x2="-8.650" y2="-5.600" stroke="#6b7280" stroke-width="0.100" stroke-linecap="round" opacity="0.8"/><line x1="-10.550" y1="-11.200" x2="-5.250" y2="-13.200" stroke="#6b7280" stroke-width="0.100" stroke-linecap="round" opacity="0.8"/><line x1="-9.850" y1="-4.300" x2="-9.330" y2="-4.600" stroke="#6b7280" stroke-width="0.100" stroke-linecap="round" opacity="0.8"/><line x1="-9.850" y1="-3.600" x2="-9.850" y2="-4.300" stroke="#6b7280" stroke-width="0.100" stroke-linecap="round" opacity="0.8"/><line x1="-9.850" y1="-3.600" x2="-9.100" y2="-3.600" stroke="#6b7280" stroke-width="0.100" stroke-linecap="round" opacity="0.8"/><line x1="-9.330" y1="-4.600" x2="-8.650" y2="-4.600" stroke="#6b7280" stroke-width="0.100" stroke-linecap="round" opacity="0.8"/><line x1="-9.100" y1="-3.600" x2="-8.000" y2="-3.600" stroke="#6b7280" stroke-width="0.100" stroke-linecap="round" opacity="0.8"/><line x1="-9.100" y1="-2.750" x2="-8.000" y2="-2.750" stroke="#6b7280" stroke-width="0.100" stroke-linecap="round" opacity="0.8"/><line x1="-9.100" y1="-2.500" x2="-8.000" y2="-2.500" stroke="#6b7280" stroke-width="0.100" stroke-linecap="round" opacity="0.8"/><line x1="-9.100" y1="1.400" x2="-9.100" y2="-3.600" stroke="#6b7280" stroke-width="0.100" stroke-linecap="round" opacity="0.8"/><line x1="-9.100" y1="1.400" x2="7.100" y2="1.400" stroke="#6b7280" stroke-width="0.100" stroke-linecap="round" opacity="0.8"/><line x1="-8.650" y1="-4.600" x2="-8.650" y2="-5.600" stroke="#6b7280" stroke-width="0.100" stroke-linecap="round" opacity="0.8"/><line x1="-8.000" y1="-4.100" x2="7.900" y2="-4.100" stroke="#6b7280" stroke-width="0.100" stroke-linecap="round" opacity="0.8"/><line x1="-8.000" y1="-2.500" x2="-8.000" y2="-4.100" stroke="#6b7280" stroke-width="0.100" stroke-linecap="round" opacity="0.8"/><line x1="-5.250" y1="-13.200" x2="-5.250" y2="-13.400" stroke="#6b7280" stroke-width="0.100" stroke-linecap="round" opacity="0.8"/><line x1="-4.750" y1="-13.900" x2="4.900" y2="-13.900" stroke="#6b7280" stroke-width="0.100" stroke-linecap="round" opacity="0.8"/><line x1="-2.831" y1="-3.300" x2="-2.831" y2="-4.100" stroke="#6b7280" stroke-width="0.100" stroke-linecap="round" opacity="0.8"/><line x1="-2.831" y1="-3.300" x2="7.100" y2="-3.300" stroke="#6b7280" stroke-width="0.100" stroke-linecap="round" opacity="0.8"/><line x1="3.334" y1="-8.200" x2="4.900" y2="-8.200" stroke="#6b7280" stroke-width="0.100" stroke-linecap="round" opacity="0.8"/><line x1="3.334" y1="-7.000" x2="3.334" y2="-8.200" stroke="#6b7280" stroke-width="0.100" stroke-linecap="round" opacity="0.8"/><line x1="3.334" y1="-7.000" x2="4.900" y2="-7.000" stroke="#6b7280" stroke-width="0.100" stroke-linecap="round" opacity="0.8"/><line x1="3.700" y1="-12.900" x2="4.467" y2="-12.900" stroke="#6b7280" stroke-width="0.100" stroke-linecap="round" opacity="0.8"/><line x1="3.700" y1="-11.900" x2="3.700" y2="-12.900" stroke="#6b7280" stroke-width="0.100" stroke-linecap="round" opacity="0.8"/><line x1="3.700" y1="-11.900" x2="5.900" y2="-11.900" stroke="#6b7280" stroke-width="0.100" stroke-linecap="round" opacity="0.8"/><line x1="4.200" y1="-7.000" x2="4.200" y2="-8.200" stroke="#6b7280" stroke-width="0.100" stroke-linecap="round" opacity="0.8"/><line x1="4.467" y1="-12.900" x2="4.900" y2="-13.150" stroke="#6b7280" stroke-width="0.100" stroke-linecap="round" opacity="0.8"/><line x1="4.900" y1="-13.150" x2="4.900" y2="-13.900" stroke="#6b7280" stroke-width="0.100" stroke-linecap="round" opacity="0.8"/><line x1="4.900" y1="-11.900" x2="4.900" y2="-5.000" stroke="#6b7280" stroke-width="0.100" stroke-linecap="round" opacity="0.8"/><line x1="4.900" y1="-11.000" x2="5.467" y2="-11.000" stroke="#6b7280" stroke-width="0.100" stroke-linecap="round" opacity="0.8"/><line x1="4.900" y1="-5.000" x2="8.300" y2="-5.000" stroke="#6b7280" stroke-width="0.100" stroke-linecap="round" opacity="0.8"/><line x1="5.467" y1="-11.000" x2="5.900" y2="-11.250" stroke="#6b7280" stroke-width="0.100" stroke-linecap="round" opacity="0.8"/><line x1="5.900" y1="-11.250" x2="5.900" y2="-11.900" stroke="#6b7280" stroke-width="0.100" stroke-linecap="round" opacity="0.8"/><line x1="7.100" y1="0.500" x2="7.900" y2="0.500" stroke="#6b7280" stroke-width="0.100" stroke-linecap="round" opacity="0.8"/><line x1="7.100" y1="1.400" x2="7.100" y2="-3.300" stroke="#6b7280" stroke-width="0.100" stroke-linecap="round" opacity="0.8"/><line x1="7.900" y1="1.400" x2="7.900" y2="-4.100" stroke="#6b7280" stroke-width="0.100" stroke-linecap="round" opacity="0.8"/><line x1="7.900" y1="1.400" x2="9.100" y2="1.400" stroke="#6b7280" stroke-width="0.100" stroke-linecap="round" opacity="0.8"/><line x1="8.300" y1="-5.000" x2="9.100" y2="-4.200" stroke="#6b7280" stroke-width="0.100" stroke-linecap="round" opacity="0.8"/><line x1="9.100" y1="1.400" x2="9.100" y2="-4.200" stroke="#6b7280" stroke-width="0.100" stroke-linecap="round" opacity="0.8"/><line x1="-12.400" y1="-14.150" x2="9.350" y2="-14.150" stroke="#d24d4d" stroke-width="0.080" stroke-linecap="round" opacity="0.7"/><line x1="9.350" y1="-14.150" x2="9.350" y2="1.650" stroke="#d24d4d" stroke-width="0.080" stroke-linecap="round" opacity="0.7"/><line x1="9.350" y1="1.650" x2="-12.400" y2="1.650" stroke="#d24d4d" stroke-width="0.080" stroke-linecap="round" opacity="0.7"/><line x1="-12.400" y1="1.650" x2="-12.400" y2="-14.150" stroke="#d24d4d" stroke-width="0.080" stroke-linecap="round" opacity="0.7"/><path d="M -12.150 -10.900 A 0.300 0.300 0 0 1 -11.850 -11.200" fill="none" stroke="#e6e9ef" stroke-width="0.12" opacity="1"/><path d="M -11.850 -5.600 A 0.300 0.300 0 0 1 -12.150 -5.900" fill="none" stroke="#e6e9ef" stroke-width="0.12" opacity="1"/><path d="M -5.250 -13.400 A 0.500 0.500 0 0 1 -4.750 -13.900" fill="none" stroke="#e6e9ef" stroke-width="0.12" opacity="1"/><path d="M -12.150 -10.900 A 0.300 0.300 0 0 1 -11.850 -11.200" fill="none" stroke="#6b7280" stroke-width="0.12" opacity="0.8"/><path d="M -11.850 -5.600 A 0.300 0.300 0 0 1 -12.150 -5.900" fill="none" stroke="#6b7280" stroke-width="0.12" opacity="0.8"/><path d="M -5.250 -13.400 A 0.500 0.500 0 0 1 -4.750 -13.900" fill="none" stroke="#6b7280" stroke-width="0.12" opacity="0.8"/><rect x="-8.550" y="-1.050" width="2.100" height="2.100" rx="1.050" fill="#c79b5c"/><circle cx="-7.500" cy="0.000" r="0.700" fill="#12151c"/><rect x="-3.550" y="-1.050" width="2.100" height="2.100" rx="1.050" fill="#c79b5c"/><circle cx="-2.500" cy="0.000" r="0.700" fill="#12151c"/><rect x="1.450" y="-1.050" width="2.100" height="2.100" rx="1.050" fill="#c79b5c"/><circle cx="2.500" cy="0.000" r="0.700" fill="#12151c"/><rect x="6.450" y="-1.050" width="2.100" height="2.100" rx="1.050" fill="#c79b5c"/><circle cx="7.500" cy="0.000" r="0.700" fill="#12151c"/></svg>