<svg xmlns="http://www.w3.org/2000/svg" viewBox="-26.90 -14.20 53.80 28.40" preserveAspectRatio="xMidYMid meet" style="width:100%;height:100%"><rect x="-26.90" y="-14.20" width="53.80" height="28.40" fill="#12151c"/><line x1="-25.650" y1="-12.950" x2="25.650" y2="-12.950" stroke="#e6e9ef" stroke-width="0.200" stroke-linecap="round" opacity="1"/><line x1="-25.650" y1="12.950" x2="-25.650" y2="-12.950" stroke="#e6e9ef" stroke-width="0.200" stroke-linecap="round" opacity="1"/><line x1="-25.650" y1="12.950" x2="25.650" y2="12.950" stroke="#e6e9ef" stroke-width="0.200" stroke-linecap="round" opacity="1"/><line x1="25.650" y1="12.950" x2="25.650" y2="-12.950" stroke="#e6e9ef" stroke-width="0.200" stroke-linecap="round" opacity="1"/><line x1="-23.360" y1="2.540" x2="-22.860" y2="2.540" stroke="#4a5160" stroke-width="0.100" stroke-linecap="round" opacity="0.7"/><line x1="-23.360" y1="7.620" x2="-22.860" y2="7.620" stroke="#4a5160" stroke-width="0.100" stroke-linecap="round" opacity="0.7"/><line x1="-22.860" y1="2.540" x2="-22.860" y2="2.040" stroke="#4a5160" stroke-width="0.100" stroke-linecap="round" opacity="0.7"/><line x1="-22.860" y1="2.540" x2="-22.360" y2="2.540" stroke="#4a5160" stroke-width="0.100" stroke-linecap="round" opacity="0.7"/><line x1="-22.860" y1="3.040" x2="-22.860" y2="2.540" stroke="#4a5160" stroke-width="0.100" stroke-linecap="round" opacity="0.7"/><line x1="-22.860" y1="7.620" x2="-22.860" y2="7.120" stroke="#4a5160" stroke-width="0.100" stroke-linecap="round" opacity="0.7"/><line x1="-22.860" y1="7.620" x2="-22.360" y2="7.620" stroke="#4a5160" stroke-width="0.100" stroke-linecap="round" opacity="0.7"/><line x1="-22.860" y1="8.120" x2="-22.860" y2="7.620" stroke="#4a5160" stroke-width="0.100" stroke-linecap="round" opacity="0.7"/><line x1="-0.500" y1="0.000" x2="0.000" y2="0.000" stroke="#4a5160" stroke-width="0.100" stroke-linecap="round" opacity="0.7"/><line x1="0.000" y1="0.000" x2="0.000" y2="-0.500" stroke="#4a5160" stroke-width="0.100" stroke-linecap="round" opacity="0.7"/><line x1="0.000" y1="0.000" x2="0.500" y2="0.000" stroke="#4a5160" stroke-width="0.100" stroke-linecap="round" opacity="0.7"/><line x1="0.000" y1="0.500" x2="0.000" y2="0.000" stroke="#4a5160" stroke-width="0.100" stroke-linecap="round" opacity="0.7"/><line x1="22.360" y1="-10.160" x2="22.860" y2="-10.160" stroke="#4a5160" stroke-width="0.100" stroke-linecap="round" opacity="0.7"/><line x1="22.360" y1="0.000" x2="22.860" y2="0.000" stroke="#4a5160" stroke-width="0.100" stroke-linecap="round" opacity="0.7"/><line x1="22.360" y1="10.160" x2="22.860" y2="10.160" stroke="#4a5160" stroke-width="0.100" stroke-linecap="round" opacity="0.7"/><line x1="22.860" y1="-10.160" x2="22.860" y2="-10.660" stroke="#4a5160" stroke-width="0.100" stroke-linecap="round" opacity="0.7"/><line x1="22.860" y1="-10.160" x2="23.360" y2="-10.160" stroke="#4a5160" stroke-width="0.100" stroke-linecap="round" opacity="0.7"/><line x1="22.860" y1="-9.660" x2="22.860" y2="-10.160" stroke="#4a5160" stroke-width="0.100" stroke-linecap="round" opacity="0.7"/><line x1="22.860" y1="0.000" x2="22.860" y2="-0.500" stroke="#4a5160" stroke-width="0.100" stroke-linecap="round" opacity="0.7"/><line x1="22.860" y1="0.000" x2="23.360" y2="0.000" stroke="#4a5160" stroke-width="0.100" stroke-linecap="round" opacity="0.7"/><line x1="22.860" y1="0.500" x2="22.860" y2="0.000" stroke="#4a5160" stroke-width="0.100" stroke-linecap="round" opacity="0.7"/><line x1="22.860" y1="10.160" x2="22.860" y2="9.660" stroke="#4a5160" stroke-width="0.100" stroke-linecap="round" opacity="0.7"/><line x1="22.860" y1="10.160" x2="23.360" y2="10.160" stroke="#4a5160" stroke-width="0.100" stroke-linecap="round" opacity="0.7"/><line x1="22.860" y1="10.660" x2="22.860" y2="10.160" stroke="#4a5160" stroke-width="0.100" stroke-linecap="round" opacity="0.7"/><line x1="-25.650" y1="-12.950" x2="25.650" y2="-12.950" stroke="#6b7280" stroke-width="0.100" stroke-linecap="round" opacity="0.8"/><line x1="-25.650" y1="12.950" x2="-25.650" y2="-12.950" stroke="#6b7280" stroke-width="0.100" stroke-linecap="round" opacity="0.8"/><line x1="-25.650" y1="12.950" x2="25.650" y2="12.950" stroke="#6b7280" stroke-width="0.100" stroke-linecap="round" opacity="0.8"/><line x1="25.650" y1="12.950" x2="25.650" y2="-12.950" stroke="#6b7280" stroke-width="0.100" stroke-linecap="round" opacity="0.8"/><line x1="-25.900" y1="-13.200" x2="25.900" y2="-13.200" stroke="#d24d4d" stroke-width="0.080" stroke-linecap="round" opacity="0.7"/><line x1="25.900" y1="-13.200" x2="25.900" y2="13.200" stroke="#d24d4d" stroke-width="0.080" stroke-linecap="round" opacity="0.7"/><line x1="25.900" y1="13.200" x2="-25.900" y2="13.200" stroke="#d24d4d" stroke-width="0.080" stroke-linecap="round" opacity="0.7"/><line x1="-25.900" y1="13.200" x2="-25.900" y2="-13.200" stroke="#d24d4d" stroke-width="0.080" stroke-linecap="round" opacity="0.7"/><rect x="-23.860" y="6.620" width="2.000" height="2.000" rx="1.000" fill="#c79b5c"/><circle cx="-22.860" cy="7.620" r="0.650" fill="#12151c"/><rect x="-23.860" y="1.540" width="2.000" height="2.000" rx="1.000" fill="#c79b5c"/><circle cx="-22.860" cy="2.540" r="0.650" fill="#12151c"/><rect x="21.860" y="9.160" width="2.000" height="2.000" rx="1.000" fill="#c79b5c"/><circle cx="22.860" cy="10.160" r="0.650" fill="#12151c"/><rect x="21.860" y="-1.000" width="2.000" height="2.000" rx="1.000" fill="#c79b5c"/><circle cx="22.860" cy="0.000" r="0.650" fill="#12151c"/><rect x="21.860" y="-11.160" width="2.000" height="2.000" rx="1.000" fill="#c79b5c"/><circle cx="22.860" cy="-10.160" r="0.650" fill="#12151c"/></svg>