<svg xmlns="http://www.w3.org/2000/svg" viewBox="-7.28 -7.25 14.50 14.50" preserveAspectRatio="xMidYMid meet" style="width:100%;height:100%"><rect x="-7.28" y="-7.25" width="14.50" height="14.50" fill="#12151c"/><line x1="-5.978" y1="-0.750" x2="-5.221" y2="-0.750" stroke="#e6e9ef" stroke-width="0.200" stroke-linecap="round" opacity="1"/><line x1="-5.978" y1="0.750" x2="-5.221" y2="0.750" stroke="#e6e9ef" stroke-width="0.200" stroke-linecap="round" opacity="1"/><line x1="-4.125" y1="1.855" x2="-4.125" y2="-1.855" stroke="#e6e9ef" stroke-width="0.200" stroke-linecap="round" opacity="1"/><line x1="-0.785" y1="-3.723" x2="-0.785" y2="-4.029" stroke="#e6e9ef" stroke-width="0.200" stroke-linecap="round" opacity="1"/><line x1="-0.775" y1="-5.196" x2="-0.775" y2="-5.953" stroke="#e6e9ef" stroke-width="0.200" stroke-linecap="round" opacity="1"/><line x1="-0.775" y1="5.953" x2="-0.775" y2="5.196" stroke="#e6e9ef" stroke-width="0.200" stroke-linecap="round" opacity="1"/><line x1="-0.200" y1="-3.500" x2="0.000" y2="-3.700" stroke="#e6e9ef" stroke-width="0.200" stroke-linecap="round" opacity="1"/><line x1="0.000" y1="-2.700" x2="0.000" y2="-3.700" stroke="#e6e9ef" stroke-width="0.200" stroke-linecap="round" opacity="1"/><line x1="0.725" y1="-5.196" x2="0.725" y2="-5.953" stroke="#e6e9ef" stroke-width="0.200" stroke-linecap="round" opacity="1"/><line x1="0.725" y1="5.953" x2="0.725" y2="5.196" stroke="#e6e9ef" stroke-width="0.200" stroke-linecap="round" opacity="1"/><line x1="0.735" y1="-3.723" x2="0.735" y2="-4.029" stroke="#e6e9ef" stroke-width="0.200" stroke-linecap="round" opacity="1"/><line x1="4.075" y1="1.855" x2="4.075" y2="-1.855" stroke="#e6e9ef" stroke-width="0.200" stroke-linecap="round" opacity="1"/><line x1="5.171" y1="-0.750" x2="5.928" y2="-0.750" stroke="#e6e9ef" stroke-width="0.200" stroke-linecap="round" opacity="1"/><line x1="5.171" y1="0.750" x2="5.928" y2="0.750" stroke="#e6e9ef" stroke-width="0.200" stroke-linecap="round" opacity="1"/><line x1="-0.500" y1="-1.100" x2="0.000" y2="-1.100" stroke="#4a5160" stroke-width="0.100" stroke-linecap="round" opacity="0.7"/><line x1="-0.500" y1="0.000" x2="0.000" y2="0.000" stroke="#4a5160" stroke-width="0.100" stroke-linecap="round" opacity="0.7"/><line x1="-0.500" y1="1.100" x2="0.000" y2="1.100" stroke="#4a5160" stroke-width="0.100" stroke-linecap="round" opacity="0.7"/><line x1="0.000" y1="-1.100" x2="0.000" y2="-1.600" stroke="#4a5160" stroke-width="0.100" stroke-linecap="round" opacity="0.7"/><line x1="0.000" y1="-1.100" x2="0.500" y2="-1.100" stroke="#4a5160" stroke-width="0.100" stroke-linecap="round" opacity="0.7"/><line x1="0.000" y1="-0.600" x2="0.000" y2="-1.100" stroke="#4a5160" stroke-width="0.100" stroke-linecap="round" opacity="0.7"/><line x1="0.000" y1="0.000" x2="0.000" y2="-0.500" stroke="#4a5160" stroke-width="0.100" stroke-linecap="round" opacity="0.7"/><line x1="0.000" y1="0.000" x2="0.500" y2="0.000" stroke="#4a5160" stroke-width="0.100" stroke-linecap="round" opacity="0.7"/><line x1="0.000" y1="0.500" x2="0.000" y2="0.000" stroke="#4a5160" stroke-width="0.100" stroke-linecap="round" opacity="0.7"/><line x1="0.000" y1="1.100" x2="0.000" y2="0.600" stroke="#4a5160" stroke-width="0.100" stroke-linecap="round" opacity="0.7"/><line x1="0.000" y1="1.100" x2="0.500" y2="1.100" stroke="#4a5160" stroke-width="0.100" stroke-linecap="round" opacity="0.7"/><line x1="0.000" y1="1.600" x2="0.000" y2="1.100" stroke="#4a5160" stroke-width="0.100" stroke-linecap="round" opacity="0.7"/><line x1="-5.978" y1="-0.750" x2="-5.221" y2="-0.750" stroke="#6b7280" stroke-width="0.100" stroke-linecap="round" opacity="0.8"/><line x1="-5.978" y1="0.750" x2="-5.221" y2="0.750" stroke="#6b7280" stroke-width="0.100" stroke-linecap="round" opacity="0.8"/><line x1="-4.125" y1="1.855" x2="-4.125" y2="-1.855" stroke="#6b7280" stroke-width="0.100" stroke-linecap="round" opacity="0.8"/><line x1="-0.785" y1="-3.723" x2="-0.785" y2="-4.029" stroke="#6b7280" stroke-width="0.100" stroke-linecap="round" opacity="0.8"/><line x1="-0.775" y1="-5.196" x2="-0.775" y2="-5.953" stroke="#6b7280" stroke-width="0.100" stroke-linecap="round" opacity="0.8"/><line x1="-0.775" y1="5.953" x2="-0.775" y2="5.196" stroke="#6b7280" stroke-width="0.100" stroke-linecap="round" opacity="0.8"/><line x1="-0.200" y1="-3.500" x2="0.000" y2="-3.700" stroke="#6b7280" stroke-width="0.200" stroke-linecap="round" opacity="0.8"/><line x1="0.000" y1="-2.700" x2="0.000" y2="-3.700" stroke="#6b7280" stroke-width="0.200" stroke-linecap="round" opacity="0.8"/><line x1="0.725" y1="-5.196" x2="0.725" y2="-5.953" stroke="#6b7280" stroke-width="0.100" stroke-linecap="round" opacity="0.8"/><line x1="0.725" y1="5.953" x2="0.725" y2="5.196" stroke="#6b7280" stroke-width="0.100" stroke-linecap="round" opacity="0.8"/><line x1="0.735" y1="-3.723" x2="0.735" y2="-4.029" stroke="#6b7280" stroke-width="0.100" stroke-linecap="round" opacity="0.8"/><line x1="4.075" y1="1.855" x2="4.075" y2="-1.855" stroke="#6b7280" stroke-width="0.100" stroke-linecap="round" opacity="0.8"/><line x1="5.171" y1="-0.750" x2="5.928" y2="-0.750" stroke="#6b7280" stroke-width="0.100" stroke-linecap="round" opacity="0.8"/><line x1="5.171" y1="0.750" x2="5.928" y2="0.750" stroke="#6b7280" stroke-width="0.100" stroke-linecap="round" opacity="0.8"/><line x1="-6.230" y1="-6.200" x2="6.180" y2="-6.200" stroke="#d24d4d" stroke-width="0.080" stroke-linecap="round" opacity="0.7"/><line x1="6.180" y1="-6.200" x2="6.180" y2="6.200" stroke="#d24d4d" stroke-width="0.080" stroke-linecap="round" opacity="0.7"/><line x1="6.180" y1="6.200" x2="-6.230" y2="6.200" stroke="#d24d4d" stroke-width="0.080" stroke-linecap="round" opacity="0.7"/><line x1="-6.230" y1="6.200" x2="-6.230" y2="-6.200" stroke="#d24d4d" stroke-width="0.080" stroke-linecap="round" opacity="0.7"/><path d="M -5.978 -0.750 A 6.000 6.000 0 0 1 -0.775 -5.953" fill="none" stroke="#e6e9ef" stroke-width="0.12" opacity="1"/><path d="M -5.308 -0.750 A 5.336 5.336 0 0 1 -0.775 -5.283" fill="none" stroke="#e6e9ef" stroke-width="0.12" opacity="1"/><path d="M -5.221 0.750 A 5.250 5.250 0 0 1 -5.221 -0.750" fill="none" stroke="#e6e9ef" stroke-width="0.12" opacity="1"/><path d="M -4.125 -1.855 A 4.500 4.500 0 0 1 4.075 -1.855" fill="none" stroke="#e6e9ef" stroke-width="0.12" opacity="1"/><path d="M -0.785 -4.029 A 4.100 4.100 0 0 1 0.735 -4.029" fill="none" stroke="#e6e9ef" stroke-width="0.12" opacity="1"/><path d="M -0.775 -5.196 A 5.250 5.250 0 0 1 0.725 -5.196" fill="none" stroke="#e6e9ef" stroke-width="0.12" opacity="1"/><path d="M -0.775 5.283 A 5.336 5.336 0 0 1 -5.308 0.750" fill="none" stroke="#e6e9ef" stroke-width="0.12" opacity="1"/><path d="M -0.775 5.953 A 6.000 6.000 0 0 1 -5.978 0.750" fill="none" stroke="#e6e9ef" stroke-width="0.12" opacity="1"/><path d="M 0.725 -5.953 A 6.000 6.000 0 0 1 5.928 -0.750" fill="none" stroke="#e6e9ef" stroke-width="0.12" opacity="1"/><path d="M 0.725 5.196 A 5.250 5.250 0 0 1 -0.775 5.196" fill="none" stroke="#e6e9ef" stroke-width="0.12" opacity="1"/><path d="M 0.725 -5.283 A 5.273 5.273 0 0 1 5.258 -0.750" fill="none" stroke="#e6e9ef" stroke-width="0.12" opacity="1"/><path d="M 0.735 -3.723 A 3.800 3.800 0 1 1 -0.785 -3.723" fill="none" stroke="#e6e9ef" stroke-width="0.12" opacity="1"/><path d="M 4.075 1.855 A 4.500 4.500 0 0 1 -4.125 1.855" fill="none" stroke="#e6e9ef" stroke-width="0.12" opacity="1"/><path d="M 4.075 1.855 A 4.500 4.500 0 0 1 -4.125 1.855" fill="none" stroke="#e6e9ef" stroke-width="0.12" opacity="1"/><path d="M 5.171 -0.750 A 5.250 5.250 0 0 1 5.171 0.750" fill="none" stroke="#e6e9ef" stroke-width="0.12" opacity="1"/><path d="M 5.258 0.750 A 5.336 5.336 0 0 1 0.725 5.283" fill="none" stroke="#e6e9ef" stroke-width="0.12" opacity="1"/><path d="M 5.928 0.750 A 6.000 6.000 0 0 1 0.725 5.953" fill="none" stroke="#e6e9ef" stroke-width="0.12" opacity="1"/><path d="M -5.978 -0.750 A 6.000 6.000 0 0 1 -0.775 -5.953" fill="none" stroke="#6b7280" stroke-width="0.12" opacity="0.8"/><path d="M -5.308 -0.750 A 5.336 5.336 0 0 1 -0.775 -5.283" fill="none" stroke="#6b7280" stroke-width="0.12" opacity="0.8"/><path d="M -5.221 0.750 A 5.250 5.250 0 0 1 -5.221 -0.750" fill="none" stroke="#6b7280" stroke-width="0.12" opacity="0.8"/><path d="M -4.125 -1.855 A 4.500 4.500 0 0 1 4.075 -1.855" fill="none" stroke="#6b7280" stroke-width="0.12" opacity="0.8"/><path d="M -0.785 -4.029 A 4.100 4.100 0 0 1 0.735 -4.029" fill="none" stroke="#6b7280" stroke-width="0.12" opacity="0.8"/><path d="M -0.775 -5.196 A 5.250 5.250 0 0 1 0.725 -5.196" fill="none" stroke="#6b7280" stroke-width="0.12" opacity="0.8"/><path d="M -0.775 5.283 A 5.336 5.336 0 0 1 -5.308 0.750" fill="none" stroke="#6b7280" stroke-width="0.12" opacity="0.8"/><path d="M -0.775 5.953 A 6.000 6.000 0 0 1 -5.978 0.750" fill="none" stroke="#6b7280" stroke-width="0.12" opacity="0.8"/><path d="M 0.725 -5.953 A 6.000 6.000 0 0 1 5.928 -0.750" fill="none" stroke="#6b7280" stroke-width="0.12" opacity="0.8"/><path d="M 0.725 5.196 A 5.250 5.250 0 0 1 -0.775 5.196" fill="none" stroke="#6b7280" stroke-width="0.12" opacity="0.8"/><path d="M 0.725 -5.283 A 5.273 5.273 0 0 1 5.258 -0.750" fill="none" stroke="#6b7280" stroke-width="0.12" opacity="0.8"/><path d="M 0.735 -3.723 A 3.800 3.800 0 1 1 -0.785 -3.723" fill="none" stroke="#6b7280" stroke-width="0.12" opacity="0.8"/><path d="M 4.075 1.855 A 4.500 4.500 0 0 1 -4.125 1.855" fill="none" stroke="#6b7280" stroke-width="0.12" opacity="0.8"/><path d="M 4.075 1.855 A 4.500 4.500 0 0 1 -4.125 1.855" fill="none" stroke="#6b7280" stroke-width="0.12" opacity="0.8"/><path d="M 5.171 -0.750 A 5.250 5.250 0 0 1 5.171 0.750" fill="none" stroke="#6b7280" stroke-width="0.12" opacity="0.8"/><path d="M 5.258 0.750 A 5.336 5.336 0 0 1 0.725 5.283" fill="none" stroke="#6b7280" stroke-width="0.12" opacity="0.8"/><path d="M 5.928 0.750 A 6.000 6.000 0 0 1 0.725 5.953" fill="none" stroke="#6b7280" stroke-width="0.12" opacity="0.8"/><circle cx="-0.025" cy="0.000" r="6.250" fill="none" stroke="#e6e9ef" stroke-width="0.12" opacity="1"/><circle cx="-0.025" cy="0.000" r="4.600" fill="none" stroke="#e6e9ef" stroke-width="0.12" opacity="1"/><circle cx="-0.025" cy="0.000" r="2.250" fill="none" stroke="#e6e9ef" stroke-width="0.12" opacity="1"/><circle cx="-0.025" cy="0.000" r="6.250" fill="none" stroke="#6b7280" stroke-width="0.12" opacity="0.8"/><circle cx="-0.025" cy="0.000" r="4.600" fill="none" stroke="#6b7280" stroke-width="0.12" opacity="0.8"/><circle cx="-0.025" cy="0.000" r="2.250" fill="none" stroke="#6b7280" stroke-width="0.12" opacity="0.8"/><circle cx="0.000" cy="-1.100" r="0.750" fill="none" stroke="#6b7280" stroke-width="0.12" opacity="0.8"/><circle cx="0.000" cy="-1.100" r="0.550" fill="none" stroke="#6b7280" stroke-width="0.12" opacity="0.8"/><circle cx="0.000" cy="1.100" r="0.750" fill="none" stroke="#6b7280" stroke-width="0.12" opacity="0.8"/><circle cx="0.000" cy="1.100" r="0.550" fill="none" stroke="#6b7280" stroke-width="0.12" opacity="0.8"/><rect x="-0.800" y="-1.900" width="1.600" height="1.600" rx="0.800" fill="#c79b5c"/><circle cx="0.000" cy="-1.100" r="0.450" fill="#12151c"/><rect x="-0.800" y="0.300" width="1.600" height="1.600" rx="0.800" fill="#c79b5c"/><circle cx="0.000" cy="1.100" r="0.450" fill="#12151c"/></svg>