<svg xmlns="http://www.w3.org/2000/svg" viewBox="-6.96 -6.96 39.07 13.92" preserveAspectRatio="xMidYMid meet" style="width:100%;height:100%"><rect x="-6.96" y="-6.96" width="39.07" height="13.92" fill="#12151c"/><line x1="-5.960" y1="-5.960" x2="31.110" y2="-5.960" stroke="#d24d4d" stroke-width="0.080" stroke-linecap="round" opacity="0.7"/><line x1="31.110" y1="-5.960" x2="31.110" y2="5.960" stroke="#d24d4d" stroke-width="0.080" stroke-linecap="round" opacity="0.7"/><line x1="31.110" y1="5.960" x2="-5.960" y2="5.960" stroke="#d24d4d" stroke-width="0.080" stroke-linecap="round" opacity="0.7"/><line x1="-5.960" y1="5.960" x2="-5.960" y2="-5.960" stroke="#d24d4d" stroke-width="0.080" stroke-linecap="round" opacity="0.7"/><rect x="-0.850" y="-0.850" width="1.700" height="1.700" rx="0.850" fill="#c79b5c"/><circle cx="0.000" cy="0.000" r="0.500" fill="#12151c"/><rect x="-5.715" y="-5.715" width="3.200" height="3.200" rx="1.600" fill="#c79b5c"/><circle cx="-4.115" cy="-4.115" r="1.250" fill="#12151c"/><rect x="-5.715" y="2.515" width="3.200" height="3.200" rx="1.600" fill="#c79b5c"/><circle cx="-4.115" cy="4.115" r="1.250" fill="#12151c"/><rect x="2.515" y="-5.715" width="3.200" height="3.200" rx="1.600" fill="#c79b5c"/><circle cx="4.115" cy="-4.115" r="1.250" fill="#12151c"/><rect x="2.515" y="2.515" width="3.200" height="3.200" rx="1.600" fill="#c79b5c"/><circle cx="4.115" cy="4.115" r="1.250" fill="#12151c"/></svg>