<svg xmlns="http://www.w3.org/2000/svg" viewBox="-6.51 -5.03 13.02 10.90" preserveAspectRatio="xMidYMid meet" style="width:100%;height:100%"><rect x="-6.51" y="-5.03" width="13.02" height="10.90" fill="#12151c"/><circle cx="-5.000" cy="4.625" r="0.125" fill="none" stroke="#e6e9ef" stroke-width="0.12" opacity="1"/><circle cx="-5.000" cy="4.627" r="0.250" fill="none" stroke="#6b7280" stroke-width="0.12" opacity="0.8"/><rect x="-5.510" y="0.635" width="1.020" height="3.390" rx="0.000" fill="#c79b5c"/><rect x="-5.510" y="-4.025" width="1.020" height="3.390" rx="0.000" fill="#c79b5c"/><rect x="-3.510" y="0.635" width="1.020" height="3.390" rx="0.000" fill="#c79b5c"/><rect x="-3.510" y="-4.025" width="1.020" height="3.390" rx="0.000" fill="#c79b5c"/><rect x="-1.510" y="0.635" width="1.020" height="3.390" rx="0.000" fill="#c79b5c"/><rect x="-1.510" y="-4.025" width="1.020" height="3.390" rx="0.000" fill="#c79b5c"/><rect x="0.490" y="0.635" width="1.020" height="3.390" rx="0.000" fill="#c79b5c"/><rect x="0.490" y="-4.025" width="1.020" height="3.390" rx="0.000" fill="#c79b5c"/><rect x="2.490" y="0.635" width="1.020" height="3.390" rx="0.000" fill="#c79b5c"/><rect x="2.490" y="-4.025" width="1.020" height="3.390" rx="0.000" fill="#c79b5c"/><rect x="4.490" y="0.635" width="1.020" height="3.390" rx="0.000" fill="#c79b5c"/><rect x="4.490" y="-4.025" width="1.020" height="3.390" rx="0.000" fill="#c79b5c"/></svg>