<svg xmlns="http://www.w3.org/2000/svg" viewBox="-6.58 -1.50 38.56 51.26" preserveAspectRatio="xMidYMid meet" style="width:100%;height:100%"><rect x="-6.58" y="-1.50" width="38.56" height="51.26" fill="#12151c"/><rect x="0.000" y="-0.000" width="25.400" height="48.260" fill="#1e222b" stroke="#4ea1ff" stroke-width="0.25"/><polyline points="2.540,5.080 1.270,5.080" fill="none" stroke="#4ea1ff" stroke-width="0.25" stroke-linejoin="round"/><polyline points="2.540,7.620 5.080,5.080 2.540,2.540 2.540,7.620" fill="#1e222b" stroke="#4ea1ff" stroke-width="0.25" stroke-linejoin="round"/><polyline points="2.540,20.320 1.270,20.320" fill="none" stroke="#4ea1ff" stroke-width="0.25" stroke-linejoin="round"/><polyline points="2.540,22.860 5.080,20.320 2.540,17.780 2.540,22.860" fill="#1e222b" stroke="#4ea1ff" stroke-width="0.25" stroke-linejoin="round"/><polyline points="3.302,5.588 3.302,4.572 4.064,4.572" fill="none" stroke="#4ea1ff" stroke-width="0.25" stroke-linejoin="round"/><polyline points="3.302,20.828 3.302,19.812 4.064,19.812" fill="none" stroke="#4ea1ff" stroke-width="0.25" stroke-linejoin="round"/><polyline points="3.556,5.588 2.794,5.588" fill="none" stroke="#4ea1ff" stroke-width="0.25" stroke-linejoin="round"/><polyline points="3.556,5.588 3.556,4.572" fill="none" stroke="#4ea1ff" stroke-width="0.25" stroke-linejoin="round"/><polyline points="3.556,20.828 2.794,20.828" fill="none" stroke="#4ea1ff" stroke-width="0.25" stroke-linejoin="round"/><polyline points="3.556,20.828 3.556,19.812" fill="none" stroke="#4ea1ff" stroke-width="0.25" stroke-linejoin="round"/><polyline points="6.350,3.810 6.350,6.350 10.414,6.350 10.414,3.810 6.350,3.810" fill="#1e222b" stroke="#4ea1ff" stroke-width="0.25" stroke-linejoin="round"/><polyline points="6.350,5.080 5.080,5.080" fill="none" stroke="#4ea1ff" stroke-width="0.25" stroke-linejoin="round"/><polyline points="6.350,19.050 6.350,21.590 10.414,21.590 10.414,19.050 6.350,19.050" fill="#1e222b" stroke="#4ea1ff" stroke-width="0.25" stroke-linejoin="round"/><polyline points="6.350,20.320 5.080,20.320" fill="none" stroke="#4ea1ff" stroke-width="0.25" stroke-linejoin="round"/><polyline points="11.176,5.080 10.414,5.080" fill="none" stroke="#4ea1ff" stroke-width="0.25" stroke-linejoin="round"/><polyline points="11.176,7.874 11.176,2.286 14.732,2.286 14.732,7.874 11.176,7.874" fill="#1e222b" stroke="#4ea1ff" stroke-width="0.25" stroke-linejoin="round"/><polyline points="11.176,20.320 10.414,20.320" fill="none" stroke="#4ea1ff" stroke-width="0.25" stroke-linejoin="round"/><polyline points="11.176,23.114 11.176,17.526 14.732,17.526 14.732,23.114 11.176,23.114" fill="#1e222b" stroke="#4ea1ff" stroke-width="0.25" stroke-linejoin="round"/><polyline points="12.954,2.286 12.954,2.794" fill="none" stroke="#4ea1ff" stroke-width="0.25" stroke-linejoin="round"/><polyline points="12.954,3.556 12.954,4.064" fill="none" stroke="#4ea1ff" stroke-width="0.25" stroke-linejoin="round"/><polyline points="12.954,4.826 12.954,5.334" fill="none" stroke="#4ea1ff" stroke-width="0.25" stroke-linejoin="round"/><polyline points="12.954,6.096 12.954,6.604" fill="none" stroke="#4ea1ff" stroke-width="0.25" stroke-linejoin="round"/><polyline points="12.954,7.366 12.954,7.874" fill="none" stroke="#4ea1ff" stroke-width="0.25" stroke-linejoin="round"/><polyline points="12.954,17.526 12.954,18.034" fill="none" stroke="#4ea1ff" stroke-width="0.25" stroke-linejoin="round"/><polyline points="12.954,18.796 12.954,19.304" fill="none" stroke="#4ea1ff" stroke-width="0.25" stroke-linejoin="round"/><polyline points="12.954,20.066 12.954,20.574" fill="none" stroke="#4ea1ff" stroke-width="0.25" stroke-linejoin="round"/><polyline points="12.954,21.336 12.954,21.844" fill="none" stroke="#4ea1ff" stroke-width="0.25" stroke-linejoin="round"/><polyline points="12.954,22.606 12.954,23.114" fill="none" stroke="#4ea1ff" stroke-width="0.25" stroke-linejoin="round"/><polyline points="13.462,1.524 12.954,1.524" fill="none" stroke="#4ea1ff" stroke-width="0.25" stroke-linejoin="round"/><polyline points="13.462,8.636 12.954,8.636" fill="none" stroke="#4ea1ff" stroke-width="0.25" stroke-linejoin="round"/><polyline points="13.462,16.764 12.954,16.764" fill="none" stroke="#4ea1ff" stroke-width="0.25" stroke-linejoin="round"/><polyline points="13.462,23.876 12.954,23.876" fill="none" stroke="#4ea1ff" stroke-width="0.25" stroke-linejoin="round"/><polyline points="14.224,1.524 14.732,1.524" fill="none" stroke="#4ea1ff" stroke-width="0.25" stroke-linejoin="round"/><polyline points="14.224,8.636 14.732,8.636" fill="none" stroke="#4ea1ff" stroke-width="0.25" stroke-linejoin="round"/><polyline points="14.224,16.764 14.732,16.764" fill="none" stroke="#4ea1ff" stroke-width="0.25" stroke-linejoin="round"/><polyline points="14.224,23.876 14.732,23.876" fill="none" stroke="#4ea1ff" stroke-width="0.25" stroke-linejoin="round"/><polyline points="15.494,1.524 16.002,1.524" fill="none" stroke="#4ea1ff" stroke-width="0.25" stroke-linejoin="round"/><polyline points="15.494,8.636 16.002,8.636" fill="none" stroke="#4ea1ff" stroke-width="0.25" stroke-linejoin="round"/><polyline points="15.494,16.764 16.002,16.764" fill="none" stroke="#4ea1ff" stroke-width="0.25" stroke-linejoin="round"/><polyline points="15.494,23.876 16.002,23.876" fill="none" stroke="#4ea1ff" stroke-width="0.25" stroke-linejoin="round"/><polyline points="15.748,3.810 15.748,6.350 19.812,6.350 19.812,3.810 15.748,3.810" fill="#1e222b" stroke="#4ea1ff" stroke-width="0.25" stroke-linejoin="round"/><polyline points="15.748,5.080 14.732,5.080" fill="none" stroke="#4ea1ff" stroke-width="0.25" stroke-linejoin="round"/><polyline points="15.748,19.050 15.748,21.590 19.812,21.590 19.812,19.050 15.748,19.050" fill="#1e222b" stroke="#4ea1ff" stroke-width="0.25" stroke-linejoin="round"/><polyline points="15.748,20.320 14.732,20.320" fill="none" stroke="#4ea1ff" stroke-width="0.25" stroke-linejoin="round"/><polyline points="17.272,1.524 16.764,1.524" fill="none" stroke="#4ea1ff" stroke-width="0.25" stroke-linejoin="round"/><polyline points="17.272,8.636 16.764,8.636" fill="none" stroke="#4ea1ff" stroke-width="0.25" stroke-linejoin="round"/><polyline points="17.272,16.764 16.764,16.764" fill="none" stroke="#4ea1ff" stroke-width="0.25" stroke-linejoin="round"/><polyline points="17.272,23.876 16.764,23.876" fill="none" stroke="#4ea1ff" stroke-width="0.25" stroke-linejoin="round"/><polyline points="18.034,1.524 18.542,1.524" fill="none" stroke="#4ea1ff" stroke-width="0.25" stroke-linejoin="round"/><polyline points="18.034,8.636 18.542,8.636" fill="none" stroke="#4ea1ff" stroke-width="0.25" stroke-linejoin="round"/><polyline points="18.034,16.764 18.542,16.764" fill="none" stroke="#4ea1ff" stroke-width="0.25" stroke-linejoin="round"/><polyline points="18.034,23.876 18.542,23.876" fill="none" stroke="#4ea1ff" stroke-width="0.25" stroke-linejoin="round"/><polyline points="19.304,1.524 19.812,1.524" fill="none" stroke="#4ea1ff" stroke-width="0.25" stroke-linejoin="round"/><polyline points="19.304,8.636 19.812,8.636" fill="none" stroke="#4ea1ff" stroke-width="0.25" stroke-linejoin="round"/><polyline points="19.304,16.764 19.812,16.764" fill="none" stroke="#4ea1ff" stroke-width="0.25" stroke-linejoin="round"/><polyline points="19.304,23.876 19.812,23.876" fill="none" stroke="#4ea1ff" stroke-width="0.25" stroke-linejoin="round"/><polyline points="20.828,5.080 19.812,5.080" fill="none" stroke="#4ea1ff" stroke-width="0.25" stroke-linejoin="round"/><polyline points="20.828,7.620 20.828,2.540 23.368,5.080 20.828,7.620" fill="#1e222b" stroke="#4ea1ff" stroke-width="0.25" stroke-linejoin="round"/><polyline points="20.828,20.320 19.812,20.320" fill="none" stroke="#4ea1ff" stroke-width="0.25" stroke-linejoin="round"/><polyline points="20.828,22.860 20.828,17.780 23.368,20.320 20.828,22.860" fill="#1e222b" stroke="#4ea1ff" stroke-width="0.25" stroke-linejoin="round"/><polyline points="21.082,1.524 20.574,1.524" fill="none" stroke="#4ea1ff" stroke-width="0.25" stroke-linejoin="round"/><polyline points="21.082,8.636 20.574,8.636" fill="none" stroke="#4ea1ff" stroke-width="0.25" stroke-linejoin="round"/><polyline points="21.082,16.764 20.574,16.764" fill="none" stroke="#4ea1ff" stroke-width="0.25" stroke-linejoin="round"/><polyline points="21.082,23.876 20.574,23.876" fill="none" stroke="#4ea1ff" stroke-width="0.25" stroke-linejoin="round"/><polyline points="21.844,1.524 22.352,1.524" fill="none" stroke="#4ea1ff" stroke-width="0.25" stroke-linejoin="round"/><polyline points="21.844,8.636 22.352,8.636" fill="none" stroke="#4ea1ff" stroke-width="0.25" stroke-linejoin="round"/><polyline points="21.844,16.764 22.352,16.764" fill="none" stroke="#4ea1ff" stroke-width="0.25" stroke-linejoin="round"/><polyline points="21.844,23.876 22.352,23.876" fill="none" stroke="#4ea1ff" stroke-width="0.25" stroke-linejoin="round"/><polyline points="23.114,1.524 23.622,1.524" fill="none" stroke="#4ea1ff" stroke-width="0.25" stroke-linejoin="round"/><polyline points="23.114,8.636 23.622,8.636" fill="none" stroke="#4ea1ff" stroke-width="0.25" stroke-linejoin="round"/><polyline points="23.114,16.764 23.622,16.764" fill="none" stroke="#4ea1ff" stroke-width="0.25" stroke-linejoin="round"/><polyline points="23.114,23.876 23.622,23.876" fill="none" stroke="#4ea1ff" stroke-width="0.25" stroke-linejoin="round"/><polyline points="24.130,5.080 23.368,5.080" fill="none" stroke="#4ea1ff" stroke-width="0.25" stroke-linejoin="round"/><polyline points="24.130,20.320 23.368,20.320" fill="none" stroke="#4ea1ff" stroke-width="0.25" stroke-linejoin="round"/><polyline points="24.384,1.524 24.384,2.032" fill="none" stroke="#4ea1ff" stroke-width="0.25" stroke-linejoin="round"/><polyline points="24.384,2.794 24.384,3.302" fill="none" stroke="#4ea1ff" stroke-width="0.25" stroke-linejoin="round"/><polyline points="24.384,4.064 24.384,4.572" fill="none" stroke="#4ea1ff" stroke-width="0.25" stroke-linejoin="round"/><polyline points="24.384,5.588 24.384,6.096" fill="none" stroke="#4ea1ff" stroke-width="0.25" stroke-linejoin="round"/><polyline points="24.384,6.858 24.384,7.366" fill="none" stroke="#4ea1ff" stroke-width="0.25" stroke-linejoin="round"/><polyline points="24.384,8.128 24.384,8.636" fill="none" stroke="#4ea1ff" stroke-width="0.25" stroke-linejoin="round"/><polyline points="24.384,16.764 24.384,17.272" fill="none" stroke="#4ea1ff" stroke-width="0.25" stroke-linejoin="round"/><polyline points="24.384,18.034 24.384,18.542" fill="none" stroke="#4ea1ff" stroke-width="0.25" stroke-linejoin="round"/><polyline points="24.384,19.304 24.384,19.812" fill="none" stroke="#4ea1ff" stroke-width="0.25" stroke-linejoin="round"/><polyline points="24.384,20.828 24.384,21.336" fill="none" stroke="#4ea1ff" stroke-width="0.25" stroke-linejoin="round"/><polyline points="24.384,22.098 24.384,22.606" fill="none" stroke="#4ea1ff" stroke-width="0.25" stroke-linejoin="round"/><polyline points="24.384,23.368 24.384,23.876" fill="none" stroke="#4ea1ff" stroke-width="0.25" stroke-linejoin="round"/><path d="M 11.684 4.318 C 12.105 4.318 12.446 3.977 12.446 3.556" fill="none" stroke="#4ea1ff" stroke-width="0.25"/><path d="M 11.684 5.842 C 12.105 5.842 12.446 5.501 12.446 5.080" fill="none" stroke="#4ea1ff" stroke-width="0.25"/><path d="M 11.684 7.366 C 12.105 7.366 12.446 7.025 12.446 6.604" fill="none" stroke="#4ea1ff" stroke-width="0.25"/><path d="M 11.684 19.558 C 12.105 19.558 12.446 19.217 12.446 18.796" fill="none" stroke="#4ea1ff" stroke-width="0.25"/><path d="M 11.684 21.082 C 12.105 21.082 12.446 20.741 12.446 20.320" fill="none" stroke="#4ea1ff" stroke-width="0.25"/><path d="M 11.684 22.606 C 12.105 22.606 12.446 22.265 12.446 21.844" fill="none" stroke="#4ea1ff" stroke-width="0.25"/><path d="M 12.446 3.556 C 12.446 3.135 12.105 2.794 11.684 2.794" fill="none" stroke="#4ea1ff" stroke-width="0.25"/><path d="M 12.446 5.080 C 12.446 4.659 12.105 4.318 11.684 4.318" fill="none" stroke="#4ea1ff" stroke-width="0.25"/><path d="M 12.446 6.604 C 12.446 6.183 12.105 5.842 11.684 5.842" fill="none" stroke="#4ea1ff" stroke-width="0.25"/><path d="M 12.446 18.796 C 12.446 18.375 12.105 18.034 11.684 18.034" fill="none" stroke="#4ea1ff" stroke-width="0.25"/><path d="M 12.446 20.320 C 12.446 19.899 12.105 19.558 11.684 19.558" fill="none" stroke="#4ea1ff" stroke-width="0.25"/><path d="M 12.446 21.844 C 12.446 21.423 12.105 21.082 11.684 21.082" fill="none" stroke="#4ea1ff" stroke-width="0.25"/><path d="M 13.462 3.556 C 13.462 3.977 13.803 4.318 14.224 4.318" fill="none" stroke="#4ea1ff" stroke-width="0.25"/><path d="M 13.462 5.080 C 13.462 5.501 13.803 5.842 14.224 5.842" fill="none" stroke="#4ea1ff" stroke-width="0.25"/><path d="M 13.462 6.604 C 13.462 7.025 13.803 7.366 14.224 7.366" fill="none" stroke="#4ea1ff" stroke-width="0.25"/><path d="M 13.462 18.796 C 13.462 19.217 13.803 19.558 14.224 19.558" fill="none" stroke="#4ea1ff" stroke-width="0.25"/><path d="M 13.462 20.320 C 13.462 20.741 13.803 21.082 14.224 21.082" fill="none" stroke="#4ea1ff" stroke-width="0.25"/><path d="M 13.462 21.844 C 13.462 22.265 13.803 22.606 14.224 22.606" fill="none" stroke="#4ea1ff" stroke-width="0.25"/><path d="M 14.224 2.794 C 13.803 2.794 13.462 3.135 13.462 3.556" fill="none" stroke="#4ea1ff" stroke-width="0.25"/><path d="M 14.224 4.318 C 13.803 4.318 13.462 4.659 13.462 5.080" fill="none" stroke="#4ea1ff" stroke-width="0.25"/><path d="M 14.224 5.842 C 13.803 5.842 13.462 6.183 13.462 6.604" fill="none" stroke="#4ea1ff" stroke-width="0.25"/><path d="M 14.224 18.034 C 13.803 18.034 13.462 18.375 13.462 18.796" fill="none" stroke="#4ea1ff" stroke-width="0.25"/><path d="M 14.224 19.558 C 13.803 19.558 13.462 19.899 13.462 20.320" fill="none" stroke="#4ea1ff" stroke-width="0.25"/><path d="M 14.224 21.082 C 13.803 21.082 13.462 21.423 13.462 21.844" fill="none" stroke="#4ea1ff" stroke-width="0.25"/><line x1="-5.080" y1="5.080" x2="0.000" y2="5.080" stroke="#e6e9ef" stroke-width="0.2"/><circle cx="-5.080" cy="5.080" r="0.4" fill="#4ea1ff"/><text x="0.500" y="5.430" fill="#e6e9ef" font-size="1.1" text-anchor="start" font-family="sans-serif">VIA</text><text x="-0.300" y="4.730" fill="#9aa3b2" font-size="0.9" text-anchor="end" font-family="sans-serif">1</text><line x1="-5.080" y1="20.320" x2="0.000" y2="20.320" stroke="#e6e9ef" stroke-width="0.2"/><circle cx="-5.080" cy="20.320" r="0.4" fill="#4ea1ff"/><text x="0.500" y="20.670" fill="#e6e9ef" font-size="1.1" text-anchor="start" font-family="sans-serif">VIB</text><text x="-0.300" y="19.970" fill="#9aa3b2" font-size="0.9" text-anchor="end" font-family="sans-serif">2</text><line x1="-5.080" y1="27.940" x2="0.000" y2="27.940" stroke="#e6e9ef" stroke-width="0.2"/><circle cx="-5.080" cy="27.940" r="0.4" fill="#4ea1ff"/><text x="0.500" y="28.290" fill="#e6e9ef" font-size="1.1" text-anchor="start" font-family="sans-serif">DISABLE</text><text x="-0.300" y="27.590" fill="#9aa3b2" font-size="0.9" text-anchor="end" font-family="sans-serif">5</text><line x1="-5.080" y1="33.020" x2="0.000" y2="33.020" stroke="#e6e9ef" stroke-width="0.2"/><circle cx="-5.080" cy="33.020" r="0.4" fill="#4ea1ff"/><text x="0.500" y="33.370" fill="#e6e9ef" font-size="1.1" text-anchor="start" font-family="sans-serif">NC</text><text x="-0.300" y="32.670" fill="#9aa3b2" font-size="0.9" text-anchor="end" font-family="sans-serif">6</text><line x1="-5.080" y1="35.560" x2="0.000" y2="35.560" stroke="#e6e9ef" stroke-width="0.2"/><circle cx="-5.080" cy="35.560" r="0.4" fill="#4ea1ff"/><text x="0.500" y="35.910" fill="#e6e9ef" font-size="1.1" text-anchor="start" font-family="sans-serif">NC</text><text x="-0.300" y="35.210" fill="#9aa3b2" font-size="0.9" text-anchor="end" font-family="sans-serif">7</text><line x1="-5.080" y1="40.640" x2="0.000" y2="40.640" stroke="#e6e9ef" stroke-width="0.2"/><circle cx="-5.080" cy="40.640" r="0.4" fill="#4ea1ff"/><text x="0.500" y="40.990" fill="#e6e9ef" font-size="1.1" text-anchor="start" font-family="sans-serif">VDD1</text><text x="-0.300" y="40.290" fill="#9aa3b2" font-size="0.9" text-anchor="end" font-family="sans-serif">3</text><line x1="-5.080" y1="43.180" x2="0.000" y2="43.180" stroke="#e6e9ef" stroke-width="0.2"/><circle cx="-5.080" cy="43.180" r="0.4" fill="#4ea1ff"/><text x="0.500" y="43.530" fill="#e6e9ef" font-size="1.1" text-anchor="start" font-family="sans-serif">VDD1</text><text x="-0.300" y="42.830" fill="#9aa3b2" font-size="0.9" text-anchor="end" font-family="sans-serif">8</text><line x1="-5.080" y1="45.720" x2="0.000" y2="45.720" stroke="#e6e9ef" stroke-width="0.2"/><circle cx="-5.080" cy="45.720" r="0.4" fill="#4ea1ff"/><text x="0.500" y="46.070" fill="#e6e9ef" font-size="1.1" text-anchor="start" font-family="sans-serif">GND1</text><text x="-0.300" y="45.370" fill="#9aa3b2" font-size="0.9" text-anchor="end" font-family="sans-serif">4</text><line x1="30.480" y1="5.080" x2="25.400" y2="5.080" stroke="#e6e9ef" stroke-width="0.2"/><circle cx="30.480" cy="5.080" r="0.4" fill="#4ea1ff"/><text x="24.900" y="5.430" fill="#e6e9ef" font-size="1.1" text-anchor="end" font-family="sans-serif">VOA</text><text x="25.700" y="4.730" fill="#9aa3b2" font-size="0.9" text-anchor="start" font-family="sans-serif">15</text><line x1="30.480" y1="10.160" x2="25.400" y2="10.160" stroke="#e6e9ef" stroke-width="0.2"/><circle cx="30.480" cy="10.160" r="0.4" fill="#4ea1ff"/><text x="24.900" y="10.510" fill="#e6e9ef" font-size="1.1" text-anchor="end" font-family="sans-serif">VDDA</text><text x="25.700" y="9.810" fill="#9aa3b2" font-size="0.9" text-anchor="start" font-family="sans-serif">16</text><line x1="30.480" y1="12.700" x2="25.400" y2="12.700" stroke="#e6e9ef" stroke-width="0.2"/><circle cx="30.480" cy="12.700" r="0.4" fill="#4ea1ff"/><text x="24.900" y="13.050" fill="#e6e9ef" font-size="1.1" text-anchor="end" font-family="sans-serif">GNDA</text><text x="25.700" y="12.350" fill="#9aa3b2" font-size="0.9" text-anchor="start" font-family="sans-serif">14</text><line x1="30.480" y1="20.320" x2="25.400" y2="20.320" stroke="#e6e9ef" stroke-width="0.2"/><circle cx="30.480" cy="20.320" r="0.4" fill="#4ea1ff"/><text x="24.900" y="20.670" fill="#e6e9ef" font-size="1.1" text-anchor="end" font-family="sans-serif">VOB</text><text x="25.700" y="19.970" fill="#9aa3b2" font-size="0.9" text-anchor="start" font-family="sans-serif">10</text><line x1="30.480" y1="25.400" x2="25.400" y2="25.400" stroke="#e6e9ef" stroke-width="0.2"/><circle cx="30.480" cy="25.400" r="0.4" fill="#4ea1ff"/><text x="24.900" y="25.750" fill="#e6e9ef" font-size="1.1" text-anchor="end" font-family="sans-serif">VDDB</text><text x="25.700" y="25.050" fill="#9aa3b2" font-size="0.9" text-anchor="start" font-family="sans-serif">11</text><line x1="30.480" y1="27.940" x2="25.400" y2="27.940" stroke="#e6e9ef" stroke-width="0.2"/><circle cx="30.480" cy="27.940" r="0.4" fill="#4ea1ff"/><text x="24.900" y="28.290" fill="#e6e9ef" font-size="1.1" text-anchor="end" font-family="sans-serif">GNDB</text><text x="25.700" y="27.590" fill="#9aa3b2" font-size="0.9" text-anchor="start" font-family="sans-serif">9</text><line x1="30.480" y1="33.020" x2="25.400" y2="33.020" stroke="#e6e9ef" stroke-width="0.2"/><circle cx="30.480" cy="33.020" r="0.4" fill="#4ea1ff"/><text x="24.900" y="33.370" fill="#e6e9ef" font-size="1.1" text-anchor="end" font-family="sans-serif">NC</text><text x="25.700" y="32.670" fill="#9aa3b2" font-size="0.9" text-anchor="start" font-family="sans-serif">13</text><line x1="30.480" y1="35.560" x2="25.400" y2="35.560" stroke="#e6e9ef" stroke-width="0.2"/><circle cx="30.480" cy="35.560" r="0.4" fill="#4ea1ff"/><text x="24.900" y="35.910" fill="#e6e9ef" font-size="1.1" text-anchor="end" font-family="sans-serif">NC</text><text x="25.700" y="35.210" fill="#9aa3b2" font-size="0.9" text-anchor="start" font-family="sans-serif">12</text></svg>