<svg xmlns="http://www.w3.org/2000/svg" viewBox="-24.54 -8.77 49.08 16.79" preserveAspectRatio="xMidYMid meet" style="width:100%;height:100%"><rect x="-24.54" y="-8.77" width="49.08" height="16.79" fill="#12151c"/><line x1="-23.290" y1="6.270" x2="-23.290" y2="-5.530" stroke="#e6e9ef" stroke-width="0.200" stroke-linecap="round" opacity="1"/><line x1="-22.790" y1="-6.030" x2="-15.690" y2="-6.030" stroke="#e6e9ef" stroke-width="0.200" stroke-linecap="round" opacity="1"/><line x1="-22.790" y1="6.770" x2="22.790" y2="6.770" stroke="#e6e9ef" stroke-width="0.200" stroke-linecap="round" opacity="1"/><line x1="-18.200" y1="-1.630" x2="-16.290" y2="-1.630" stroke="#e6e9ef" stroke-width="0.200" stroke-linecap="round" opacity="1"/><line x1="-18.200" y1="2.370" x2="-16.290" y2="2.370" stroke="#e6e9ef" stroke-width="0.200" stroke-linecap="round" opacity="1"/><line x1="-16.790" y1="2.370" x2="-16.790" y2="-1.630" stroke="#e6e9ef" stroke-width="0.200" stroke-linecap="round" opacity="1"/><line x1="-16.290" y1="-3.157" x2="-15.690" y2="-3.157" stroke="#e6e9ef" stroke-width="0.200" stroke-linecap="round" opacity="1"/><line x1="-16.290" y1="-1.630" x2="-16.290" y2="-3.157" stroke="#e6e9ef" stroke-width="0.200" stroke-linecap="round" opacity="1"/><line x1="-16.290" y1="3.897" x2="-16.290" y2="2.370" stroke="#e6e9ef" stroke-width="0.200" stroke-linecap="round" opacity="1"/><line x1="-16.290" y1="3.897" x2="-15.690" y2="3.897" stroke="#e6e9ef" stroke-width="0.200" stroke-linecap="round" opacity="1"/><line x1="-15.690" y1="-6.770" x2="15.690" y2="-6.770" stroke="#e6e9ef" stroke-width="0.200" stroke-linecap="round" opacity="1"/><line x1="-15.690" y1="-6.030" x2="-15.690" y2="-6.770" stroke="#e6e9ef" stroke-width="0.200" stroke-linecap="round" opacity="1"/><line x1="-15.690" y1="3.897" x2="-15.690" y2="-3.157" stroke="#e6e9ef" stroke-width="0.200" stroke-linecap="round" opacity="1"/><line x1="-15.240" y1="-7.520" x2="15.240" y2="-7.520" stroke="#e6e9ef" stroke-width="0.200" stroke-linecap="round" opacity="1"/><line x1="-15.240" y1="-6.770" x2="-15.240" y2="-7.520" stroke="#e6e9ef" stroke-width="0.200" stroke-linecap="round" opacity="1"/><line x1="-14.280" y1="-4.945" x2="-12.880" y2="-4.945" stroke="#e6e9ef" stroke-width="0.200" stroke-linecap="round" opacity="1"/><line x1="-14.280" y1="4.220" x2="-14.280" y2="-4.945" stroke="#e6e9ef" stroke-width="0.200" stroke-linecap="round" opacity="1"/><line x1="-14.280" y1="4.220" x2="-12.833" y2="4.220" stroke="#e6e9ef" stroke-width="0.200" stroke-linecap="round" opacity="1"/><line x1="-13.234" y1="-5.548" x2="-12.994" y2="-5.263" stroke="#e6e9ef" stroke-width="0.200" stroke-linecap="round" opacity="1"/><line x1="-13.087" y1="-5.866" x2="-9.774" y2="-5.866" stroke="#e6e9ef" stroke-width="0.200" stroke-linecap="round" opacity="1"/><line x1="-12.949" y1="-4.945" x2="-12.949" y2="-5.138" stroke="#e6e9ef" stroke-width="0.200" stroke-linecap="round" opacity="1"/><line x1="-12.930" y1="-0.030" x2="-9.930" y2="-0.030" stroke="#e6e9ef" stroke-width="0.200" stroke-linecap="round" opacity="1"/><line x1="-12.930" y1="0.770" x2="-12.930" y2="-0.030" stroke="#e6e9ef" stroke-width="0.200" stroke-linecap="round" opacity="1"/><line x1="-12.930" y1="0.770" x2="-12.467" y2="0.770" stroke="#e6e9ef" stroke-width="0.200" stroke-linecap="round" opacity="1"/><line x1="-12.880" y1="-4.945" x2="-12.880" y2="-5.866" stroke="#e6e9ef" stroke-width="0.200" stroke-linecap="round" opacity="1"/><line x1="-12.230" y1="-0.030" x2="-12.230" y2="-1.016" stroke="#e6e9ef" stroke-width="0.200" stroke-linecap="round" opacity="1"/><line x1="-10.393" y1="0.770" x2="-9.930" y2="0.770" stroke="#e6e9ef" stroke-width="0.200" stroke-linecap="round" opacity="1"/><line x1="-10.033" y1="4.220" x2="-8.055" y2="4.220" stroke="#e6e9ef" stroke-width="0.200" stroke-linecap="round" opacity="1"/><line x1="-9.980" y1="-4.945" x2="-9.980" y2="-5.866" stroke="#e6e9ef" stroke-width="0.200" stroke-linecap="round" opacity="1"/><line x1="-9.980" y1="-4.945" x2="-8.055" y2="-4.945" stroke="#e6e9ef" stroke-width="0.200" stroke-linecap="round" opacity="1"/><line x1="-9.930" y1="0.770" x2="-9.930" y2="-0.030" stroke="#e6e9ef" stroke-width="0.200" stroke-linecap="round" opacity="1"/><line x1="-9.912" y1="-4.945" x2="-9.912" y2="-5.138" stroke="#e6e9ef" stroke-width="0.200" stroke-linecap="round" opacity="1"/><line x1="-9.866" y1="-5.263" x2="-9.626" y2="-5.548" stroke="#e6e9ef" stroke-width="0.200" stroke-linecap="round" opacity="1"/><line x1="-8.055" y1="4.220" x2="-8.055" y2="-4.945" stroke="#e6e9ef" stroke-width="0.200" stroke-linecap="round" opacity="1"/><line x1="-7.821" y1="-6.975" x2="-7.620" y2="-6.770" stroke="#e6e9ef" stroke-width="0.200" stroke-linecap="round" opacity="1"/><line x1="-7.821" y1="-6.975" x2="-7.419" y2="-6.975" stroke="#e6e9ef" stroke-width="0.200" stroke-linecap="round" opacity="1"/><line x1="-7.821" y1="-0.295" x2="-7.620" y2="0.455" stroke="#e6e9ef" stroke-width="0.200" stroke-linecap="round" opacity="1"/><line x1="-7.821" y1="-0.295" x2="-7.419" y2="-0.295" stroke="#e6e9ef" stroke-width="0.200" stroke-linecap="round" opacity="1"/><line x1="-7.620" y1="-6.770" x2="-7.419" y2="-6.975" stroke="#e6e9ef" stroke-width="0.200" stroke-linecap="round" opacity="1"/><line x1="-7.620" y1="0.455" x2="-7.419" y2="-0.295" stroke="#e6e9ef" stroke-width="0.200" stroke-linecap="round" opacity="1"/><line x1="-7.185" y1="-4.945" x2="-5.260" y2="-4.945" stroke="#e6e9ef" stroke-width="0.200" stroke-linecap="round" opacity="1"/><line x1="-7.185" y1="4.220" x2="-7.185" y2="-4.945" stroke="#e6e9ef" stroke-width="0.200" stroke-linecap="round" opacity="1"/><line x1="-7.185" y1="4.220" x2="-5.213" y2="4.220" stroke="#e6e9ef" stroke-width="0.200" stroke-linecap="round" opacity="1"/><line x1="-5.614" y1="-5.548" x2="-5.374" y2="-5.263" stroke="#e6e9ef" stroke-width="0.200" stroke-linecap="round" opacity="1"/><line x1="-5.466" y1="-5.866" x2="-2.154" y2="-5.866" stroke="#e6e9ef" stroke-width="0.200" stroke-linecap="round" opacity="1"/><line x1="-5.329" y1="-4.945" x2="-5.329" y2="-5.138" stroke="#e6e9ef" stroke-width="0.200" stroke-linecap="round" opacity="1"/><line x1="-5.310" y1="-0.030" x2="-2.310" y2="-0.030" stroke="#e6e9ef" stroke-width="0.200" stroke-linecap="round" opacity="1"/><line x1="-5.310" y1="0.770" x2="-5.310" y2="-0.030" stroke="#e6e9ef" stroke-width="0.200" stroke-linecap="round" opacity="1"/><line x1="-5.310" y1="0.770" x2="-4.848" y2="0.770" stroke="#e6e9ef" stroke-width="0.200" stroke-linecap="round" opacity="1"/><line x1="-5.260" y1="-4.945" x2="-5.260" y2="-5.866" stroke="#e6e9ef" stroke-width="0.200" stroke-linecap="round" opacity="1"/><line x1="-2.772" y1="0.770" x2="-2.310" y2="0.770" stroke="#e6e9ef" stroke-width="0.200" stroke-linecap="round" opacity="1"/><line x1="-2.413" y1="4.220" x2="-0.435" y2="4.220" stroke="#e6e9ef" stroke-width="0.200" stroke-linecap="round" opacity="1"/><line x1="-2.360" y1="-4.945" x2="-2.360" y2="-5.866" stroke="#e6e9ef" stroke-width="0.200" stroke-linecap="round" opacity="1"/><line x1="-2.360" y1="-4.945" x2="-0.435" y2="-4.945" stroke="#e6e9ef" stroke-width="0.200" stroke-linecap="round" opacity="1"/><line x1="-2.310" y1="0.770" x2="-2.310" y2="-0.030" stroke="#e6e9ef" stroke-width="0.200" stroke-linecap="round" opacity="1"/><line x1="-2.292" y1="-4.945" x2="-2.292" y2="-5.138" stroke="#e6e9ef" stroke-width="0.200" stroke-linecap="round" opacity="1"/><line x1="-2.246" y1="-5.263" x2="-2.006" y2="-5.548" stroke="#e6e9ef" stroke-width="0.200" stroke-linecap="round" opacity="1"/><line x1="-0.435" y1="4.220" x2="-0.435" y2="-4.945" stroke="#e6e9ef" stroke-width="0.200" stroke-linecap="round" opacity="1"/><line x1="-0.201" y1="-6.975" x2="0.000" y2="-6.770" stroke="#e6e9ef" stroke-width="0.200" stroke-linecap="round" opacity="1"/><line x1="-0.201" y1="-6.975" x2="0.201" y2="-6.975" stroke="#e6e9ef" stroke-width="0.200" stroke-linecap="round" opacity="1"/><line x1="-0.201" y1="-0.295" x2="0.000" y2="0.455" stroke="#e6e9ef" stroke-width="0.200" stroke-linecap="round" opacity="1"/><line x1="-0.201" y1="-0.295" x2="0.201" y2="-0.295" stroke="#e6e9ef" stroke-width="0.200" stroke-linecap="round" opacity="1"/><line x1="0.000" y1="-6.770" x2="0.201" y2="-6.975" stroke="#e6e9ef" stroke-width="0.200" stroke-linecap="round" opacity="1"/><line x1="0.000" y1="0.455" x2="0.201" y2="-0.295" stroke="#e6e9ef" stroke-width="0.200" stroke-linecap="round" opacity="1"/><line x1="0.438" y1="-4.945" x2="2.363" y2="-4.945" stroke="#e6e9ef" stroke-width="0.200" stroke-linecap="round" opacity="1"/><line x1="0.438" y1="4.220" x2="0.438" y2="-4.945" stroke="#e6e9ef" stroke-width="0.200" stroke-linecap="round" opacity="1"/><line x1="0.438" y1="4.220" x2="2.410" y2="4.220" stroke="#e6e9ef" stroke-width="0.200" stroke-linecap="round" opacity="1"/><line x1="2.008" y1="-5.548" x2="2.248" y2="-5.263" stroke="#e6e9ef" stroke-width="0.200" stroke-linecap="round" opacity="1"/><line x1="2.156" y1="-5.866" x2="5.469" y2="-5.866" stroke="#e6e9ef" stroke-width="0.200" stroke-linecap="round" opacity="1"/><line x1="2.294" y1="-4.945" x2="2.294" y2="-5.138" stroke="#e6e9ef" stroke-width="0.200" stroke-linecap="round" opacity="1"/><line x1="2.310" y1="-0.030" x2="5.310" y2="-0.030" stroke="#e6e9ef" stroke-width="0.200" stroke-linecap="round" opacity="1"/><line x1="2.310" y1="0.770" x2="2.310" y2="-0.030" stroke="#e6e9ef" stroke-width="0.200" stroke-linecap="round" opacity="1"/><line x1="2.310" y1="0.770" x2="2.772" y2="0.770" stroke="#e6e9ef" stroke-width="0.200" stroke-linecap="round" opacity="1"/><line x1="2.363" y1="-4.945" x2="2.363" y2="-5.866" stroke="#e6e9ef" stroke-width="0.200" stroke-linecap="round" opacity="1"/><line x1="4.848" y1="0.770" x2="5.310" y2="0.770" stroke="#e6e9ef" stroke-width="0.200" stroke-linecap="round" opacity="1"/><line x1="5.210" y1="4.220" x2="7.188" y2="4.220" stroke="#e6e9ef" stroke-width="0.200" stroke-linecap="round" opacity="1"/><line x1="5.263" y1="-4.945" x2="5.263" y2="-5.866" stroke="#e6e9ef" stroke-width="0.200" stroke-linecap="round" opacity="1"/><line x1="5.263" y1="-4.945" x2="7.188" y2="-4.945" stroke="#e6e9ef" stroke-width="0.200" stroke-linecap="round" opacity="1"/><line x1="5.310" y1="0.770" x2="5.310" y2="-0.030" stroke="#e6e9ef" stroke-width="0.200" stroke-linecap="round" opacity="1"/><line x1="5.331" y1="-4.945" x2="5.331" y2="-5.138" stroke="#e6e9ef" stroke-width="0.200" stroke-linecap="round" opacity="1"/><line x1="5.377" y1="-5.263" x2="5.617" y2="-5.548" stroke="#e6e9ef" stroke-width="0.200" stroke-linecap="round" opacity="1"/><line x1="7.188" y1="4.220" x2="7.188" y2="-4.945" stroke="#e6e9ef" stroke-width="0.200" stroke-linecap="round" opacity="1"/><line x1="7.419" y1="-6.975" x2="7.620" y2="-6.770" stroke="#e6e9ef" stroke-width="0.200" stroke-linecap="round" opacity="1"/><line x1="7.419" y1="-6.975" x2="7.821" y2="-6.975" stroke="#e6e9ef" stroke-width="0.200" stroke-linecap="round" opacity="1"/><line x1="7.419" y1="-0.295" x2="7.620" y2="0.455" stroke="#e6e9ef" stroke-width="0.200" stroke-linecap="round" opacity="1"/><line x1="7.419" y1="-0.295" x2="7.821" y2="-0.295" stroke="#e6e9ef" stroke-width="0.200" stroke-linecap="round" opacity="1"/><line x1="7.620" y1="-6.770" x2="7.821" y2="-6.975" stroke="#e6e9ef" stroke-width="0.200" stroke-linecap="round" opacity="1"/><line x1="7.620" y1="0.455" x2="7.821" y2="-0.295" stroke="#e6e9ef" stroke-width="0.200" stroke-linecap="round" opacity="1"/><line x1="8.058" y1="-4.945" x2="9.983" y2="-4.945" stroke="#e6e9ef" stroke-width="0.200" stroke-linecap="round" opacity="1"/><line x1="8.058" y1="4.220" x2="8.058" y2="-4.945" stroke="#e6e9ef" stroke-width="0.200" stroke-linecap="round" opacity="1"/><line x1="8.058" y1="4.220" x2="10.030" y2="4.220" stroke="#e6e9ef" stroke-width="0.200" stroke-linecap="round" opacity="1"/><line x1="9.628" y1="-5.548" x2="9.868" y2="-5.263" stroke="#e6e9ef" stroke-width="0.200" stroke-linecap="round" opacity="1"/><line x1="9.776" y1="-5.866" x2="13.089" y2="-5.866" stroke="#e6e9ef" stroke-width="0.200" stroke-linecap="round" opacity="1"/><line x1="9.914" y1="-4.945" x2="9.914" y2="-5.138" stroke="#e6e9ef" stroke-width="0.200" stroke-linecap="round" opacity="1"/><line x1="9.930" y1="-0.030" x2="12.930" y2="-0.030" stroke="#e6e9ef" stroke-width="0.200" stroke-linecap="round" opacity="1"/><line x1="9.930" y1="0.770" x2="9.930" y2="-0.030" stroke="#e6e9ef" stroke-width="0.200" stroke-linecap="round" opacity="1"/><line x1="9.930" y1="0.770" x2="10.393" y2="0.770" stroke="#e6e9ef" stroke-width="0.200" stroke-linecap="round" opacity="1"/><line x1="9.983" y1="-4.945" x2="9.983" y2="-5.866" stroke="#e6e9ef" stroke-width="0.200" stroke-linecap="round" opacity="1"/><line x1="12.467" y1="0.770" x2="12.930" y2="0.770" stroke="#e6e9ef" stroke-width="0.200" stroke-linecap="round" opacity="1"/><line x1="12.830" y1="4.220" x2="14.280" y2="4.220" stroke="#e6e9ef" stroke-width="0.200" stroke-linecap="round" opacity="1"/><line x1="12.883" y1="-4.945" x2="12.883" y2="-5.866" stroke="#e6e9ef" stroke-width="0.200" stroke-linecap="round" opacity="1"/><line x1="12.883" y1="-4.945" x2="14.280" y2="-4.945" stroke="#e6e9ef" stroke-width="0.200" stroke-linecap="round" opacity="1"/><line x1="12.930" y1="0.770" x2="12.930" y2="-0.030" stroke="#e6e9ef" stroke-width="0.200" stroke-linecap="round" opacity="1"/><line x1="12.951" y1="-4.945" x2="12.951" y2="-5.138" stroke="#e6e9ef" stroke-width="0.200" stroke-linecap="round" opacity="1"/><line x1="12.997" y1="-5.263" x2="13.237" y2="-5.548" stroke="#e6e9ef" stroke-width="0.200" stroke-linecap="round" opacity="1"/><line x1="14.280" y1="4.220" x2="14.280" y2="-4.945" stroke="#e6e9ef" stroke-width="0.200" stroke-linecap="round" opacity="1"/><line x1="15.240" y1="-6.770" x2="15.240" y2="-7.520" stroke="#e6e9ef" stroke-width="0.200" stroke-linecap="round" opacity="1"/><line x1="15.690" y1="-6.030" x2="15.690" y2="-6.770" stroke="#e6e9ef" stroke-width="0.200" stroke-linecap="round" opacity="1"/><line x1="15.690" y1="-6.030" x2="22.790" y2="-6.030" stroke="#e6e9ef" stroke-width="0.200" stroke-linecap="round" opacity="1"/><line x1="15.690" y1="-3.157" x2="16.290" y2="-3.157" stroke="#e6e9ef" stroke-width="0.200" stroke-linecap="round" opacity="1"/><line x1="15.690" y1="3.897" x2="15.690" y2="-3.157" stroke="#e6e9ef" stroke-width="0.200" stroke-linecap="round" opacity="1"/><line x1="15.690" y1="3.897" x2="16.290" y2="3.897" stroke="#e6e9ef" stroke-width="0.200" stroke-linecap="round" opacity="1"/><line x1="16.290" y1="-1.630" x2="16.290" y2="-3.157" stroke="#e6e9ef" stroke-width="0.200" stroke-linecap="round" opacity="1"/><line x1="16.290" y1="-1.630" x2="18.200" y2="-1.630" stroke="#e6e9ef" stroke-width="0.200" stroke-linecap="round" opacity="1"/><line x1="16.290" y1="2.370" x2="18.200" y2="2.370" stroke="#e6e9ef" stroke-width="0.200" stroke-linecap="round" opacity="1"/><line x1="16.290" y1="3.897" x2="16.290" y2="2.370" stroke="#e6e9ef" stroke-width="0.200" stroke-linecap="round" opacity="1"/><line x1="16.790" y1="2.370" x2="16.790" y2="-1.630" stroke="#e6e9ef" stroke-width="0.200" stroke-linecap="round" opacity="1"/><line x1="23.290" y1="6.270" x2="23.290" y2="-5.530" stroke="#e6e9ef" stroke-width="0.200" stroke-linecap="round" opacity="1"/><line x1="-19.990" y1="0.370" x2="-19.490" y2="0.370" stroke="#4a5160" stroke-width="0.100" stroke-linecap="round" opacity="0.7"/><line x1="-19.490" y1="0.370" x2="-19.490" y2="-0.130" stroke="#4a5160" stroke-width="0.100" stroke-linecap="round" opacity="0.7"/><line x1="-19.490" y1="0.370" x2="-18.990" y2="0.370" stroke="#4a5160" stroke-width="0.100" stroke-linecap="round" opacity="0.7"/><line x1="-19.490" y1="0.870" x2="-19.490" y2="0.370" stroke="#4a5160" stroke-width="0.100" stroke-linecap="round" opacity="0.7"/><line x1="-11.930" y1="-3.370" x2="-11.430" y2="-3.370" stroke="#4a5160" stroke-width="0.100" stroke-linecap="round" opacity="0.7"/><line x1="-11.930" y1="1.710" x2="-11.430" y2="1.710" stroke="#4a5160" stroke-width="0.100" stroke-linecap="round" opacity="0.7"/><line x1="-11.930" y1="4.250" x2="-11.430" y2="4.250" stroke="#4a5160" stroke-width="0.100" stroke-linecap="round" opacity="0.7"/><line x1="-11.430" y1="-3.370" x2="-11.430" y2="-3.870" stroke="#4a5160" stroke-width="0.100" stroke-linecap="round" opacity="0.7"/><line x1="-11.430" y1="-3.370" x2="-10.930" y2="-3.370" stroke="#4a5160" stroke-width="0.100" stroke-linecap="round" opacity="0.7"/><line x1="-11.430" y1="-2.870" x2="-11.430" y2="-3.370" stroke="#4a5160" stroke-width="0.100" stroke-linecap="round" opacity="0.7"/><line x1="-11.430" y1="1.710" x2="-11.430" y2="1.210" stroke="#4a5160" stroke-width="0.100" stroke-linecap="round" opacity="0.7"/><line x1="-11.430" y1="1.710" x2="-10.930" y2="1.710" stroke="#4a5160" stroke-width="0.100" stroke-linecap="round" opacity="0.7"/><line x1="-11.430" y1="2.210" x2="-11.430" y2="1.710" stroke="#4a5160" stroke-width="0.100" stroke-linecap="round" opacity="0.7"/><line x1="-11.430" y1="4.250" x2="-11.430" y2="3.750" stroke="#4a5160" stroke-width="0.100" stroke-linecap="round" opacity="0.7"/><line x1="-11.430" y1="4.250" x2="-10.930" y2="4.250" stroke="#4a5160" stroke-width="0.100" stroke-linecap="round" opacity="0.7"/><line x1="-11.430" y1="4.750" x2="-11.430" y2="4.250" stroke="#4a5160" stroke-width="0.100" stroke-linecap="round" opacity="0.7"/><line x1="-4.310" y1="-3.370" x2="-3.810" y2="-3.370" stroke="#4a5160" stroke-width="0.100" stroke-linecap="round" opacity="0.7"/><line x1="-4.310" y1="1.710" x2="-3.810" y2="1.710" stroke="#4a5160" stroke-width="0.100" stroke-linecap="round" opacity="0.7"/><line x1="-4.310" y1="4.250" x2="-3.810" y2="4.250" stroke="#4a5160" stroke-width="0.100" stroke-linecap="round" opacity="0.7"/><line x1="-3.810" y1="-3.370" x2="-3.810" y2="-3.870" stroke="#4a5160" stroke-width="0.100" stroke-linecap="round" opacity="0.7"/><line x1="-3.810" y1="-3.370" x2="-3.310" y2="-3.370" stroke="#4a5160" stroke-width="0.100" stroke-linecap="round" opacity="0.7"/><line x1="-3.810" y1="-2.870" x2="-3.810" y2="-3.370" stroke="#4a5160" stroke-width="0.100" stroke-linecap="round" opacity="0.7"/><line x1="-3.810" y1="1.710" x2="-3.810" y2="1.210" stroke="#4a5160" stroke-width="0.100" stroke-linecap="round" opacity="0.7"/><line x1="-3.810" y1="1.710" x2="-3.310" y2="1.710" stroke="#4a5160" stroke-width="0.100" stroke-linecap="round" opacity="0.7"/><line x1="-3.810" y1="2.210" x2="-3.810" y2="1.710" stroke="#4a5160" stroke-width="0.100" stroke-linecap="round" opacity="0.7"/><line x1="-3.810" y1="4.250" x2="-3.810" y2="3.750" stroke="#4a5160" stroke-width="0.100" stroke-linecap="round" opacity="0.7"/><line x1="-3.810" y1="4.250" x2="-3.310" y2="4.250" stroke="#4a5160" stroke-width="0.100" stroke-linecap="round" opacity="0.7"/><line x1="-3.810" y1="4.750" x2="-3.810" y2="4.250" stroke="#4a5160" stroke-width="0.100" stroke-linecap="round" opacity="0.7"/><line x1="-0.500" y1="0.000" x2="0.000" y2="0.000" stroke="#4a5160" stroke-width="0.100" stroke-linecap="round" opacity="0.7"/><line x1="0.000" y1="0.000" x2="0.000" y2="-0.500" stroke="#4a5160" stroke-width="0.100" stroke-linecap="round" opacity="0.7"/><line x1="0.000" y1="0.000" x2="0.500" y2="0.000" stroke="#4a5160" stroke-width="0.100" stroke-linecap="round" opacity="0.7"/><line x1="0.000" y1="0.500" x2="0.000" y2="0.000" stroke="#4a5160" stroke-width="0.100" stroke-linecap="round" opacity="0.7"/><line x1="3.310" y1="-3.370" x2="3.810" y2="-3.370" stroke="#4a5160" stroke-width="0.100" stroke-linecap="round" opacity="0.7"/><line x1="3.310" y1="1.710" x2="3.810" y2="1.710" stroke="#4a5160" stroke-width="0.100" stroke-linecap="round" opacity="0.7"/><line x1="3.310" y1="4.250" x2="3.810" y2="4.250" stroke="#4a5160" stroke-width="0.100" stroke-linecap="round" opacity="0.7"/><line x1="3.810" y1="-3.370" x2="3.810" y2="-3.870" stroke="#4a5160" stroke-width="0.100" stroke-linecap="round" opacity="0.7"/><line x1="3.810" y1="-3.370" x2="4.310" y2="-3.370" stroke="#4a5160" stroke-width="0.100" stroke-linecap="round" opacity="0.7"/><line x1="3.810" y1="-2.870" x2="3.810" y2="-3.370" stroke="#4a5160" stroke-width="0.100" stroke-linecap="round" opacity="0.7"/><line x1="3.810" y1="1.710" x2="3.810" y2="1.210" stroke="#4a5160" stroke-width="0.100" stroke-linecap="round" opacity="0.7"/><line x1="3.810" y1="1.710" x2="4.310" y2="1.710" stroke="#4a5160" stroke-width="0.100" stroke-linecap="round" opacity="0.7"/><line x1="3.810" y1="2.210" x2="3.810" y2="1.710" stroke="#4a5160" stroke-width="0.100" stroke-linecap="round" opacity="0.7"/><line x1="3.810" y1="4.250" x2="3.810" y2="3.750" stroke="#4a5160" stroke-width="0.100" stroke-linecap="round" opacity="0.7"/><line x1="3.810" y1="4.250" x2="4.310" y2="4.250" stroke="#4a5160" stroke-width="0.100" stroke-linecap="round" opacity="0.7"/><line x1="3.810" y1="4.750" x2="3.810" y2="4.250" stroke="#4a5160" stroke-width="0.100" stroke-linecap="round" opacity="0.7"/><line x1="10.930" y1="-3.370" x2="11.430" y2="-3.370" stroke="#4a5160" stroke-width="0.100" stroke-linecap="round" opacity="0.7"/><line x1="10.930" y1="1.710" x2="11.430" y2="1.710" stroke="#4a5160" stroke-width="0.100" stroke-linecap="round" opacity="0.7"/><line x1="10.930" y1="4.250" x2="11.430" y2="4.250" stroke="#4a5160" stroke-width="0.100" stroke-linecap="round" opacity="0.7"/><line x1="11.430" y1="-3.370" x2="11.430" y2="-3.870" stroke="#4a5160" stroke-width="0.100" stroke-linecap="round" opacity="0.7"/><line x1="11.430" y1="-3.370" x2="11.930" y2="-3.370" stroke="#4a5160" stroke-width="0.100" stroke-linecap="round" opacity="0.7"/><line x1="11.430" y1="-2.870" x2="11.430" y2="-3.370" stroke="#4a5160" stroke-width="0.100" stroke-linecap="round" opacity="0.7"/><line x1="11.430" y1="1.710" x2="11.430" y2="1.210" stroke="#4a5160" stroke-width="0.100" stroke-linecap="round" opacity="0.7"/><line x1="11.430" y1="1.710" x2="11.930" y2="1.710" stroke="#4a5160" stroke-width="0.100" stroke-linecap="round" opacity="0.7"/><line x1="11.430" y1="2.210" x2="11.430" y2="1.710" stroke="#4a5160" stroke-width="0.100" stroke-linecap="round" opacity="0.7"/><line x1="11.430" y1="4.250" x2="11.430" y2="3.750" stroke="#4a5160" stroke-width="0.100" stroke-linecap="round" opacity="0.7"/><line x1="11.430" y1="4.250" x2="11.930" y2="4.250" stroke="#4a5160" stroke-width="0.100" stroke-linecap="round" opacity="0.7"/><line x1="11.430" y1="4.750" x2="11.430" y2="4.250" stroke="#4a5160" stroke-width="0.100" stroke-linecap="round" opacity="0.7"/><line x1="18.990" y1="0.370" x2="19.490" y2="0.370" stroke="#4a5160" stroke-width="0.100" stroke-linecap="round" opacity="0.7"/><line x1="19.490" y1="0.370" x2="19.490" y2="-0.130" stroke="#4a5160" stroke-width="0.100" stroke-linecap="round" opacity="0.7"/><line x1="19.490" y1="0.370" x2="19.990" y2="0.370" stroke="#4a5160" stroke-width="0.100" stroke-linecap="round" opacity="0.7"/><line x1="19.490" y1="0.870" x2="19.490" y2="0.370" stroke="#4a5160" stroke-width="0.100" stroke-linecap="round" opacity="0.7"/><line x1="-23.290" y1="6.270" x2="-23.290" y2="-5.530" stroke="#6b7280" stroke-width="0.100" stroke-linecap="round" opacity="0.8"/><line x1="-22.790" y1="-6.030" x2="-15.690" y2="-6.030" stroke="#6b7280" stroke-width="0.100" stroke-linecap="round" opacity="0.8"/><line x1="-22.790" y1="6.770" x2="22.790" y2="6.770" stroke="#6b7280" stroke-width="0.100" stroke-linecap="round" opacity="0.8"/><line x1="-19.490" y1="-1.630" x2="-16.290" y2="-1.630" stroke="#6b7280" stroke-width="0.100" stroke-linecap="round" opacity="0.8"/><line x1="-19.490" y1="2.370" x2="-16.290" y2="2.370" stroke="#6b7280" stroke-width="0.100" stroke-linecap="round" opacity="0.8"/><line x1="-16.790" y1="2.370" x2="-16.790" y2="-1.630" stroke="#6b7280" stroke-width="0.100" stroke-linecap="round" opacity="0.8"/><line x1="-16.290" y1="-3.157" x2="-15.690" y2="-3.157" stroke="#6b7280" stroke-width="0.100" stroke-linecap="round" opacity="0.8"/><line x1="-16.290" y1="-1.630" x2="-16.290" y2="-3.157" stroke="#6b7280" stroke-width="0.100" stroke-linecap="round" opacity="0.8"/><line x1="-16.290" y1="3.897" x2="-16.290" y2="2.370" stroke="#6b7280" stroke-width="0.100" stroke-linecap="round" opacity="0.8"/><line x1="-16.290" y1="3.897" x2="-15.690" y2="3.897" stroke="#6b7280" stroke-width="0.100" stroke-linecap="round" opacity="0.8"/><line x1="-15.690" y1="-6.770" x2="15.690" y2="-6.770" stroke="#6b7280" stroke-width="0.100" stroke-linecap="round" opacity="0.8"/><line x1="-15.690" y1="-6.030" x2="-15.690" y2="-6.770" stroke="#6b7280" stroke-width="0.100" stroke-linecap="round" opacity="0.8"/><line x1="-15.690" y1="3.897" x2="-15.690" y2="-3.157" stroke="#6b7280" stroke-width="0.100" stroke-linecap="round" opacity="0.8"/><line x1="-15.240" y1="-7.520" x2="15.240" y2="-7.520" stroke="#6b7280" stroke-width="0.100" stroke-linecap="round" opacity="0.8"/><line x1="-15.240" y1="-6.770" x2="-15.240" y2="-7.520" stroke="#6b7280" stroke-width="0.100" stroke-linecap="round" opacity="0.8"/><line x1="-14.280" y1="-4.945" x2="-12.880" y2="-4.945" stroke="#6b7280" stroke-width="0.100" stroke-linecap="round" opacity="0.8"/><line x1="-14.280" y1="4.220" x2="-14.280" y2="-4.945" stroke="#6b7280" stroke-width="0.100" stroke-linecap="round" opacity="0.8"/><line x1="-14.280" y1="4.220" x2="-8.055" y2="4.220" stroke="#6b7280" stroke-width="0.100" stroke-linecap="round" opacity="0.8"/><line x1="-13.234" y1="-5.548" x2="-12.994" y2="-5.263" stroke="#6b7280" stroke-width="0.100" stroke-linecap="round" opacity="0.8"/><line x1="-13.087" y1="-5.866" x2="-9.774" y2="-5.866" stroke="#6b7280" stroke-width="0.100" stroke-linecap="round" opacity="0.8"/><line x1="-12.949" y1="-4.945" x2="-12.949" y2="-5.138" stroke="#6b7280" stroke-width="0.100" stroke-linecap="round" opacity="0.8"/><line x1="-12.930" y1="-0.030" x2="-9.930" y2="-0.030" stroke="#6b7280" stroke-width="0.100" stroke-linecap="round" opacity="0.8"/><line x1="-12.930" y1="0.770" x2="-12.930" y2="-0.030" stroke="#6b7280" stroke-width="0.100" stroke-linecap="round" opacity="0.8"/><line x1="-12.930" y1="0.770" x2="-9.930" y2="0.770" stroke="#6b7280" stroke-width="0.100" stroke-linecap="round" opacity="0.8"/><line x1="-12.880" y1="-4.945" x2="-12.880" y2="-5.866" stroke="#6b7280" stroke-width="0.100" stroke-linecap="round" opacity="0.8"/><line x1="-12.230" y1="-0.030" x2="-12.230" y2="-1.016" stroke="#6b7280" stroke-width="0.100" stroke-linecap="round" opacity="0.8"/><line x1="-12.230" y1="1.756" x2="-12.230" y2="0.770" stroke="#6b7280" stroke-width="0.100" stroke-linecap="round" opacity="0.8"/><line x1="-9.980" y1="-4.945" x2="-9.980" y2="-5.866" stroke="#6b7280" stroke-width="0.100" stroke-linecap="round" opacity="0.8"/><line x1="-9.980" y1="-4.945" x2="-8.055" y2="-4.945" stroke="#6b7280" stroke-width="0.100" stroke-linecap="round" opacity="0.8"/><line x1="-9.930" y1="0.770" x2="-9.930" y2="-0.030" stroke="#6b7280" stroke-width="0.100" stroke-linecap="round" opacity="0.8"/><line x1="-9.912" y1="-4.945" x2="-9.912" y2="-5.138" stroke="#6b7280" stroke-width="0.100" stroke-linecap="round" opacity="0.8"/><line x1="-9.866" y1="-5.263" x2="-9.626" y2="-5.548" stroke="#6b7280" stroke-width="0.100" stroke-linecap="round" opacity="0.8"/><line x1="-8.055" y1="4.220" x2="-8.055" y2="-4.945" stroke="#6b7280" stroke-width="0.100" stroke-linecap="round" opacity="0.8"/><line x1="-7.821" y1="-6.975" x2="-7.620" y2="-6.770" stroke="#6b7280" stroke-width="0.100" stroke-linecap="round" opacity="0.8"/><line x1="-7.821" y1="-6.975" x2="-7.419" y2="-6.975" stroke="#6b7280" stroke-width="0.100" stroke-linecap="round" opacity="0.8"/><line x1="-7.821" y1="-0.295" x2="-7.620" y2="0.455" stroke="#6b7280" stroke-width="0.100" stroke-linecap="round" opacity="0.8"/><line x1="-7.821" y1="-0.295" x2="-7.419" y2="-0.295" stroke="#6b7280" stroke-width="0.100" stroke-linecap="round" opacity="0.8"/><line x1="-7.620" y1="-6.770" x2="-7.419" y2="-6.975" stroke="#6b7280" stroke-width="0.100" stroke-linecap="round" opacity="0.8"/><line x1="-7.620" y1="0.455" x2="-7.419" y2="-0.295" stroke="#6b7280" stroke-width="0.100" stroke-linecap="round" opacity="0.8"/><line x1="-7.185" y1="-4.945" x2="-5.260" y2="-4.945" stroke="#6b7280" stroke-width="0.100" stroke-linecap="round" opacity="0.8"/><line x1="-7.185" y1="4.220" x2="-7.185" y2="-4.945" stroke="#6b7280" stroke-width="0.100" stroke-linecap="round" opacity="0.8"/><line x1="-7.185" y1="4.220" x2="-0.435" y2="4.220" stroke="#6b7280" stroke-width="0.100" stroke-linecap="round" opacity="0.8"/><line x1="-5.614" y1="-5.548" x2="-5.374" y2="-5.263" stroke="#6b7280" stroke-width="0.100" stroke-linecap="round" opacity="0.8"/><line x1="-5.466" y1="-5.866" x2="-2.154" y2="-5.866" stroke="#6b7280" stroke-width="0.100" stroke-linecap="round" opacity="0.8"/><line x1="-5.329" y1="-4.945" x2="-5.329" y2="-5.138" stroke="#6b7280" stroke-width="0.100" stroke-linecap="round" opacity="0.8"/><line x1="-5.310" y1="-0.030" x2="-2.310" y2="-0.030" stroke="#6b7280" stroke-width="0.100" stroke-linecap="round" opacity="0.8"/><line x1="-5.310" y1="0.770" x2="-5.310" y2="-0.030" stroke="#6b7280" stroke-width="0.100" stroke-linecap="round" opacity="0.8"/><line x1="-5.310" y1="0.770" x2="-2.310" y2="0.770" stroke="#6b7280" stroke-width="0.100" stroke-linecap="round" opacity="0.8"/><line x1="-5.260" y1="-4.945" x2="-5.260" y2="-5.866" stroke="#6b7280" stroke-width="0.100" stroke-linecap="round" opacity="0.8"/><line x1="-2.360" y1="-4.945" x2="-2.360" y2="-5.866" stroke="#6b7280" stroke-width="0.100" stroke-linecap="round" opacity="0.8"/><line x1="-2.360" y1="-4.945" x2="-0.435" y2="-4.945" stroke="#6b7280" stroke-width="0.100" stroke-linecap="round" opacity="0.8"/><line x1="-2.310" y1="0.770" x2="-2.310" y2="-0.030" stroke="#6b7280" stroke-width="0.100" stroke-linecap="round" opacity="0.8"/><line x1="-2.292" y1="-4.945" x2="-2.292" y2="-5.138" stroke="#6b7280" stroke-width="0.100" stroke-linecap="round" opacity="0.8"/><line x1="-2.246" y1="-5.263" x2="-2.006" y2="-5.548" stroke="#6b7280" stroke-width="0.100" stroke-linecap="round" opacity="0.8"/><line x1="-0.435" y1="4.220" x2="-0.435" y2="-4.945" stroke="#6b7280" stroke-width="0.100" stroke-linecap="round" opacity="0.8"/><line x1="-0.201" y1="-6.975" x2="0.000" y2="-6.770" stroke="#6b7280" stroke-width="0.100" stroke-linecap="round" opacity="0.8"/><line x1="-0.201" y1="-6.975" x2="0.201" y2="-6.975" stroke="#6b7280" stroke-width="0.100" stroke-linecap="round" opacity="0.8"/><line x1="-0.201" y1="-0.295" x2="0.000" y2="0.455" stroke="#6b7280" stroke-width="0.100" stroke-linecap="round" opacity="0.8"/><line x1="-0.201" y1="-0.295" x2="0.201" y2="-0.295" stroke="#6b7280" stroke-width="0.100" stroke-linecap="round" opacity="0.8"/><line x1="0.000" y1="-6.770" x2="0.201" y2="-6.975" stroke="#6b7280" stroke-width="0.100" stroke-linecap="round" opacity="0.8"/><line x1="0.000" y1="0.455" x2="0.201" y2="-0.295" stroke="#6b7280" stroke-width="0.100" stroke-linecap="round" opacity="0.8"/><line x1="0.438" y1="-4.945" x2="2.363" y2="-4.945" stroke="#6b7280" stroke-width="0.100" stroke-linecap="round" opacity="0.8"/><line x1="0.438" y1="4.220" x2="0.438" y2="-4.945" stroke="#6b7280" stroke-width="0.100" stroke-linecap="round" opacity="0.8"/><line x1="0.438" y1="4.220" x2="7.188" y2="4.220" stroke="#6b7280" stroke-width="0.100" stroke-linecap="round" opacity="0.8"/><line x1="2.008" y1="-5.548" x2="2.248" y2="-5.263" stroke="#6b7280" stroke-width="0.100" stroke-linecap="round" opacity="0.8"/><line x1="2.156" y1="-5.866" x2="5.469" y2="-5.866" stroke="#6b7280" stroke-width="0.100" stroke-linecap="round" opacity="0.8"/><line x1="2.294" y1="-4.945" x2="2.294" y2="-5.138" stroke="#6b7280" stroke-width="0.100" stroke-linecap="round" opacity="0.8"/><line x1="2.310" y1="-0.030" x2="5.310" y2="-0.030" stroke="#6b7280" stroke-width="0.100" stroke-linecap="round" opacity="0.8"/><line x1="2.310" y1="0.770" x2="2.310" y2="-0.030" stroke="#6b7280" stroke-width="0.100" stroke-linecap="round" opacity="0.8"/><line x1="2.310" y1="0.770" x2="5.310" y2="0.770" stroke="#6b7280" stroke-width="0.100" stroke-linecap="round" opacity="0.8"/><line x1="2.363" y1="-4.945" x2="2.363" y2="-5.866" stroke="#6b7280" stroke-width="0.100" stroke-linecap="round" opacity="0.8"/><line x1="5.263" y1="-4.945" x2="5.263" y2="-5.866" stroke="#6b7280" stroke-width="0.100" stroke-linecap="round" opacity="0.8"/><line x1="5.263" y1="-4.945" x2="7.188" y2="-4.945" stroke="#6b7280" stroke-width="0.100" stroke-linecap="round" opacity="0.8"/><line x1="5.310" y1="0.770" x2="5.310" y2="-0.030" stroke="#6b7280" stroke-width="0.100" stroke-linecap="round" opacity="0.8"/><line x1="5.331" y1="-4.945" x2="5.331" y2="-5.138" stroke="#6b7280" stroke-width="0.100" stroke-linecap="round" opacity="0.8"/><line x1="5.377" y1="-5.263" x2="5.617" y2="-5.548" stroke="#6b7280" stroke-width="0.100" stroke-linecap="round" opacity="0.8"/><line x1="7.188" y1="4.220" x2="7.188" y2="-4.945" stroke="#6b7280" stroke-width="0.100" stroke-linecap="round" opacity="0.8"/><line x1="7.419" y1="-6.975" x2="7.620" y2="-6.770" stroke="#6b7280" stroke-width="0.100" stroke-linecap="round" opacity="0.8"/><line x1="7.419" y1="-6.975" x2="7.821" y2="-6.975" stroke="#6b7280" stroke-width="0.100" stroke-linecap="round" opacity="0.8"/><line x1="7.419" y1="-0.295" x2="7.620" y2="0.455" stroke="#6b7280" stroke-width="0.100" stroke-linecap="round" opacity="0.8"/><line x1="7.419" y1="-0.295" x2="7.821" y2="-0.295" stroke="#6b7280" stroke-width="0.100" stroke-linecap="round" opacity="0.8"/><line x1="7.620" y1="-6.770" x2="7.821" y2="-6.975" stroke="#6b7280" stroke-width="0.100" stroke-linecap="round" opacity="0.8"/><line x1="7.620" y1="0.455" x2="7.821" y2="-0.295" stroke="#6b7280" stroke-width="0.100" stroke-linecap="round" opacity="0.8"/><line x1="8.058" y1="-4.945" x2="9.983" y2="-4.945" stroke="#6b7280" stroke-width="0.100" stroke-linecap="round" opacity="0.8"/><line x1="8.058" y1="4.220" x2="8.058" y2="-4.945" stroke="#6b7280" stroke-width="0.100" stroke-linecap="round" opacity="0.8"/><line x1="8.058" y1="4.220" x2="14.280" y2="4.220" stroke="#6b7280" stroke-width="0.100" stroke-linecap="round" opacity="0.8"/><line x1="9.628" y1="-5.548" x2="9.868" y2="-5.263" stroke="#6b7280" stroke-width="0.100" stroke-linecap="round" opacity="0.8"/><line x1="9.776" y1="-5.866" x2="13.089" y2="-5.866" stroke="#6b7280" stroke-width="0.100" stroke-linecap="round" opacity="0.8"/><line x1="9.914" y1="-4.945" x2="9.914" y2="-5.138" stroke="#6b7280" stroke-width="0.100" stroke-linecap="round" opacity="0.8"/><line x1="9.930" y1="-0.030" x2="12.930" y2="-0.030" stroke="#6b7280" stroke-width="0.100" stroke-linecap="round" opacity="0.8"/><line x1="9.930" y1="0.770" x2="9.930" y2="-0.030" stroke="#6b7280" stroke-width="0.100" stroke-linecap="round" opacity="0.8"/><line x1="9.930" y1="0.770" x2="12.930" y2="0.770" stroke="#6b7280" stroke-width="0.100" stroke-linecap="round" opacity="0.8"/><line x1="9.983" y1="-4.945" x2="9.983" y2="-5.866" stroke="#6b7280" stroke-width="0.100" stroke-linecap="round" opacity="0.8"/><line x1="12.883" y1="-4.945" x2="12.883" y2="-5.866" stroke="#6b7280" stroke-width="0.100" stroke-linecap="round" opacity="0.8"/><line x1="12.883" y1="-4.945" x2="14.280" y2="-4.945" stroke="#6b7280" stroke-width="0.100" stroke-linecap="round" opacity="0.8"/><line x1="12.930" y1="0.770" x2="12.930" y2="-0.030" stroke="#6b7280" stroke-width="0.100" stroke-linecap="round" opacity="0.8"/><line x1="12.951" y1="-4.945" x2="12.951" y2="-5.138" stroke="#6b7280" stroke-width="0.100" stroke-linecap="round" opacity="0.8"/><line x1="12.997" y1="-5.263" x2="13.237" y2="-5.548" stroke="#6b7280" stroke-width="0.100" stroke-linecap="round" opacity="0.8"/><line x1="14.280" y1="4.220" x2="14.280" y2="-4.945" stroke="#6b7280" stroke-width="0.100" stroke-linecap="round" opacity="0.8"/><line x1="15.240" y1="-6.770" x2="15.240" y2="-7.520" stroke="#6b7280" stroke-width="0.100" stroke-linecap="round" opacity="0.8"/><line x1="15.690" y1="-6.030" x2="15.690" y2="-6.770" stroke="#6b7280" stroke-width="0.100" stroke-linecap="round" opacity="0.8"/><line x1="15.690" y1="-6.030" x2="22.790" y2="-6.030" stroke="#6b7280" stroke-width="0.100" stroke-linecap="round" opacity="0.8"/><line x1="15.690" y1="-3.157" x2="16.290" y2="-3.157" stroke="#6b7280" stroke-width="0.100" stroke-linecap="round" opacity="0.8"/><line x1="15.690" y1="3.897" x2="15.690" y2="-3.157" stroke="#6b7280" stroke-width="0.100" stroke-linecap="round" opacity="0.8"/><line x1="15.690" y1="3.897" x2="16.290" y2="3.897" stroke="#6b7280" stroke-width="0.100" stroke-linecap="round" opacity="0.8"/><line x1="16.290" y1="-1.630" x2="16.290" y2="-3.157" stroke="#6b7280" stroke-width="0.100" stroke-linecap="round" opacity="0.8"/><line x1="16.290" y1="-1.630" x2="19.490" y2="-1.630" stroke="#6b7280" stroke-width="0.100" stroke-linecap="round" opacity="0.8"/><line x1="16.290" y1="2.370" x2="19.490" y2="2.370" stroke="#6b7280" stroke-width="0.100" stroke-linecap="round" opacity="0.8"/><line x1="16.290" y1="3.897" x2="16.290" y2="2.370" stroke="#6b7280" stroke-width="0.100" stroke-linecap="round" opacity="0.8"/><line x1="16.790" y1="2.370" x2="16.790" y2="-1.630" stroke="#6b7280" stroke-width="0.100" stroke-linecap="round" opacity="0.8"/><line x1="23.290" y1="6.270" x2="23.290" y2="-5.530" stroke="#6b7280" stroke-width="0.100" stroke-linecap="round" opacity="0.8"/><line x1="-23.540" y1="-7.770" x2="23.540" y2="-7.770" stroke="#d24d4d" stroke-width="0.080" stroke-linecap="round" opacity="0.7"/><line x1="23.540" y1="-7.770" x2="23.540" y2="7.020" stroke="#d24d4d" stroke-width="0.080" stroke-linecap="round" opacity="0.7"/><line x1="23.540" y1="7.020" x2="-23.540" y2="7.020" stroke="#d24d4d" stroke-width="0.080" stroke-linecap="round" opacity="0.7"/><line x1="-23.540" y1="7.020" x2="-23.540" y2="-7.770" stroke="#d24d4d" stroke-width="0.080" stroke-linecap="round" opacity="0.7"/><path d="M -23.290 -5.530 A 0.500 0.500 0 0 1 -22.790 -6.030" fill="none" stroke="#e6e9ef" stroke-width="0.12" opacity="1"/><path d="M -22.790 6.770 A 0.500 0.500 0 0 1 -23.290 6.270" fill="none" stroke="#e6e9ef" stroke-width="0.12" opacity="1"/><path d="M -13.280 -5.673 A 0.194 0.194 0 0 1 -13.087 -5.866" fill="none" stroke="#e6e9ef" stroke-width="0.12" opacity="1"/><path d="M -13.234 -5.548 A 0.194 0.194 0 0 1 -13.280 -5.673" fill="none" stroke="#e6e9ef" stroke-width="0.12" opacity="1"/><path d="M -12.994 -5.263 A 0.194 0.194 0 0 1 -12.949 -5.138" fill="none" stroke="#e6e9ef" stroke-width="0.12" opacity="1"/><path d="M -12.230 -1.016 A 1.600 1.600 0 0 1 -10.103 1.264" fill="none" stroke="#e6e9ef" stroke-width="0.12" opacity="1"/><path d="M -9.912 -5.138 A 0.193 0.193 0 0 1 -9.866 -5.263" fill="none" stroke="#e6e9ef" stroke-width="0.12" opacity="1"/><path d="M -9.774 -5.866 A 0.193 0.193 0 0 1 -9.626 -5.548" fill="none" stroke="#e6e9ef" stroke-width="0.12" opacity="1"/><path d="M -5.614 -5.548 A 0.193 0.193 0 0 1 -5.466 -5.866" fill="none" stroke="#e6e9ef" stroke-width="0.12" opacity="1"/><path d="M -5.374 -5.263 A 0.194 0.194 0 0 1 -5.329 -5.138" fill="none" stroke="#e6e9ef" stroke-width="0.12" opacity="1"/><path d="M -5.137 1.264 A 1.600 1.600 0 1 1 -2.483 1.264" fill="none" stroke="#e6e9ef" stroke-width="0.12" opacity="1"/><path d="M -2.292 -5.138 A 0.193 0.193 0 0 1 -2.246 -5.263" fill="none" stroke="#e6e9ef" stroke-width="0.12" opacity="1"/><path d="M -2.154 -5.866 A 0.193 0.193 0 0 1 -2.006 -5.548" fill="none" stroke="#e6e9ef" stroke-width="0.12" opacity="1"/><path d="M 2.008 -5.548 A 0.193 0.193 0 0 1 2.156 -5.866" fill="none" stroke="#e6e9ef" stroke-width="0.12" opacity="1"/><path d="M 2.248 -5.263 A 0.194 0.194 0 0 1 2.294 -5.138" fill="none" stroke="#e6e9ef" stroke-width="0.12" opacity="1"/><path d="M 2.483 1.264 A 1.600 1.600 0 1 1 5.137 1.264" fill="none" stroke="#e6e9ef" stroke-width="0.12" opacity="1"/><path d="M 5.331 -5.138 A 0.193 0.193 0 0 1 5.377 -5.263" fill="none" stroke="#e6e9ef" stroke-width="0.12" opacity="1"/><path d="M 5.469 -5.866 A 0.193 0.193 0 0 1 5.617 -5.548" fill="none" stroke="#e6e9ef" stroke-width="0.12" opacity="1"/><path d="M 9.628 -5.548 A 0.193 0.193 0 0 1 9.776 -5.866" fill="none" stroke="#e6e9ef" stroke-width="0.12" opacity="1"/><path d="M 9.868 -5.263 A 0.194 0.194 0 0 1 9.914 -5.138" fill="none" stroke="#e6e9ef" stroke-width="0.12" opacity="1"/><path d="M 10.103 1.264 A 1.600 1.600 0 1 1 12.757 1.264" fill="none" stroke="#e6e9ef" stroke-width="0.12" opacity="1"/><path d="M 12.951 -5.138 A 0.193 0.193 0 0 1 12.997 -5.263" fill="none" stroke="#e6e9ef" stroke-width="0.12" opacity="1"/><path d="M 13.089 -5.866 A 0.193 0.193 0 0 1 13.237 -5.548" fill="none" stroke="#e6e9ef" stroke-width="0.12" opacity="1"/><path d="M 22.790 -6.030 A 0.500 0.500 0 0 1 23.290 -5.530" fill="none" stroke="#e6e9ef" stroke-width="0.12" opacity="1"/><path d="M 23.290 6.270 A 0.500 0.500 0 0 1 22.790 6.770" fill="none" stroke="#e6e9ef" stroke-width="0.12" opacity="1"/><path d="M -23.290 -5.530 A 0.500 0.500 0 0 1 -22.790 -6.030" fill="none" stroke="#6b7280" stroke-width="0.12" opacity="0.8"/><path d="M -22.790 6.770 A 0.500 0.500 0 0 1 -23.290 6.270" fill="none" stroke="#6b7280" stroke-width="0.12" opacity="0.8"/><path d="M -19.490 2.370 A 2.000 2.000 0 1 1 -19.490 -1.630" fill="none" stroke="#6b7280" stroke-width="0.12" opacity="0.8"/><path d="M -13.280 -5.673 A 0.194 0.194 0 0 1 -13.087 -5.866" fill="none" stroke="#6b7280" stroke-width="0.12" opacity="0.8"/><path d="M -13.234 -5.548 A 0.194 0.194 0 0 1 -13.280 -5.673" fill="none" stroke="#6b7280" stroke-width="0.12" opacity="0.8"/><path d="M -12.994 -5.263 A 0.194 0.194 0 0 1 -12.949 -5.138" fill="none" stroke="#6b7280" stroke-width="0.12" opacity="0.8"/><path d="M -12.230 -1.016 A 1.600 1.600 0 1 1 -12.230 1.756" fill="none" stroke="#6b7280" stroke-width="0.12" opacity="0.8"/><path d="M -9.912 -5.138 A 0.193 0.193 0 0 1 -9.866 -5.263" fill="none" stroke="#6b7280" stroke-width="0.12" opacity="0.8"/><path d="M -9.774 -5.866 A 0.193 0.193 0 0 1 -9.626 -5.548" fill="none" stroke="#6b7280" stroke-width="0.12" opacity="0.8"/><path d="M -5.614 -5.548 A 0.193 0.193 0 0 1 -5.466 -5.866" fill="none" stroke="#6b7280" stroke-width="0.12" opacity="0.8"/><path d="M -5.374 -5.263 A 0.194 0.194 0 0 1 -5.329 -5.138" fill="none" stroke="#6b7280" stroke-width="0.12" opacity="0.8"/><path d="M -2.292 -5.138 A 0.193 0.193 0 0 1 -2.246 -5.263" fill="none" stroke="#6b7280" stroke-width="0.12" opacity="0.8"/><path d="M -2.154 -5.866 A 0.193 0.193 0 0 1 -2.006 -5.548" fill="none" stroke="#6b7280" stroke-width="0.12" opacity="0.8"/><path d="M 2.008 -5.548 A 0.193 0.193 0 0 1 2.156 -5.866" fill="none" stroke="#6b7280" stroke-width="0.12" opacity="0.8"/><path d="M 2.248 -5.263 A 0.194 0.194 0 0 1 2.294 -5.138" fill="none" stroke="#6b7280" stroke-width="0.12" opacity="0.8"/><path d="M 5.331 -5.138 A 0.193 0.193 0 0 1 5.377 -5.263" fill="none" stroke="#6b7280" stroke-width="0.12" opacity="0.8"/><path d="M 5.469 -5.866 A 0.193 0.193 0 0 1 5.617 -5.548" fill="none" stroke="#6b7280" stroke-width="0.12" opacity="0.8"/><path d="M 9.628 -5.548 A 0.193 0.193 0 0 1 9.776 -5.866" fill="none" stroke="#6b7280" stroke-width="0.12" opacity="0.8"/><path d="M 9.868 -5.263 A 0.194 0.194 0 0 1 9.914 -5.138" fill="none" stroke="#6b7280" stroke-width="0.12" opacity="0.8"/><path d="M 12.951 -5.138 A 0.193 0.193 0 0 1 12.997 -5.263" fill="none" stroke="#6b7280" stroke-width="0.12" opacity="0.8"/><path d="M 13.089 -5.866 A 0.193 0.193 0 0 1 13.237 -5.548" fill="none" stroke="#6b7280" stroke-width="0.12" opacity="0.8"/><path d="M 19.490 -1.630 A 2.000 2.000 0 1 1 19.490 2.370" fill="none" stroke="#6b7280" stroke-width="0.12" opacity="0.8"/><path d="M 22.790 -6.030 A 0.500 0.500 0 0 1 23.290 -5.530" fill="none" stroke="#6b7280" stroke-width="0.12" opacity="0.8"/><path d="M 23.290 6.270 A 0.500 0.500 0 0 1 22.790 6.770" fill="none" stroke="#6b7280" stroke-width="0.12" opacity="0.8"/><circle cx="-19.490" cy="0.370" r="1.200" fill="none" stroke="#6b7280" stroke-width="0.12" opacity="0.8"/><circle cx="-3.810" cy="0.370" r="1.600" fill="none" stroke="#6b7280" stroke-width="0.12" opacity="0.8"/><circle cx="3.810" cy="0.370" r="1.600" fill="none" stroke="#6b7280" stroke-width="0.12" opacity="0.8"/><circle cx="11.430" cy="0.370" r="1.600" fill="none" stroke="#6b7280" stroke-width="0.12" opacity="0.8"/><circle cx="19.490" cy="0.370" r="1.200" fill="none" stroke="#6b7280" stroke-width="0.12" opacity="0.8"/><circle cx="-19.490" cy="0.370" r="0.250" fill="none" stroke="#6b7280" stroke-width="0.1"/><circle cx="19.490" cy="0.370" r="0.250" fill="none" stroke="#6b7280" stroke-width="0.1"/><rect x="-12.430" y="-4.370" width="2.000" height="2.000" rx="1.000" fill="#c79b5c"/><circle cx="-11.430" cy="-3.370" r="0.650" fill="#12151c"/><rect x="-12.430" y="0.710" width="2.000" height="2.000" rx="1.000" fill="#c79b5c"/><circle cx="-11.430" cy="1.710" r="0.650" fill="#12151c"/><rect x="-12.430" y="3.250" width="2.000" height="2.000" rx="1.000" fill="#c79b5c"/><circle cx="-11.430" cy="4.250" r="0.650" fill="#12151c"/><rect x="-4.810" y="-4.370" width="2.000" height="2.000" rx="1.000" fill="#c79b5c"/><circle cx="-3.810" cy="-3.370" r="0.650" fill="#12151c"/><rect x="-4.810" y="0.710" width="2.000" height="2.000" rx="1.000" fill="#c79b5c"/><circle cx="-3.810" cy="1.710" r="0.650" fill="#12151c"/><rect x="-4.810" y="3.250" width="2.000" height="2.000" rx="1.000" fill="#c79b5c"/><circle cx="-3.810" cy="4.250" r="0.650" fill="#12151c"/><rect x="2.810" y="-4.370" width="2.000" height="2.000" rx="1.000" fill="#c79b5c"/><circle cx="3.810" cy="-3.370" r="0.650" fill="#12151c"/><rect x="2.810" y="0.710" width="2.000" height="2.000" rx="1.000" fill="#c79b5c"/><circle cx="3.810" cy="1.710" r="0.650" fill="#12151c"/><rect x="2.810" y="3.250" width="2.000" height="2.000" rx="1.000" fill="#c79b5c"/><circle cx="3.810" cy="4.250" r="0.650" fill="#12151c"/><rect x="10.430" y="-4.370" width="2.000" height="2.000" rx="1.000" fill="#c79b5c"/><circle cx="11.430" cy="-3.370" r="0.650" fill="#12151c"/><rect x="10.430" y="0.710" width="2.000" height="2.000" rx="1.000" fill="#c79b5c"/><circle cx="11.430" cy="1.710" r="0.650" fill="#12151c"/><rect x="10.430" y="3.250" width="2.000" height="2.000" rx="1.000" fill="#c79b5c"/><circle cx="11.430" cy="4.250" r="0.650" fill="#12151c"/></svg>