<svg xmlns="http://www.w3.org/2000/svg" viewBox="-10.14 -13.47 20.28 17.52" preserveAspectRatio="xMidYMid meet" style="width:100%;height:100%"><rect x="-10.14" y="-13.47" width="20.28" height="17.52" fill="#12151c"/><line x1="-9.140" y1="-12.470" x2="9.140" y2="-12.470" stroke="#d24d4d" stroke-width="0.080" stroke-linecap="round" opacity="0.7"/><line x1="9.140" y1="-12.470" x2="9.140" y2="2.370" stroke="#d24d4d" stroke-width="0.080" stroke-linecap="round" opacity="0.7"/><line x1="9.140" y1="2.370" x2="-9.140" y2="2.370" stroke="#d24d4d" stroke-width="0.080" stroke-linecap="round" opacity="0.7"/><line x1="-9.140" y1="2.370" x2="-9.140" y2="-12.470" stroke="#d24d4d" stroke-width="0.080" stroke-linecap="round" opacity="0.7"/><circle cx="-3.810" cy="2.900" r="0.150" fill="none" stroke="#e6e9ef" stroke-width="0.12" opacity="1"/><rect x="-4.660" y="0.420" width="1.700" height="1.700" rx="0.850" fill="#c79b5c"/><circle cx="-3.810" cy="1.270" r="0.500" fill="#12151c"/><rect x="-4.660" y="-2.120" width="1.700" height="1.700" rx="0.850" fill="#c79b5c"/><circle cx="-3.810" cy="-1.270" r="0.500" fill="#12151c"/><rect x="-2.120" y="0.420" width="1.700" height="1.700" rx="0.850" fill="#c79b5c"/><circle cx="-1.270" cy="1.270" r="0.500" fill="#12151c"/><rect x="-2.120" y="-2.120" width="1.700" height="1.700" rx="0.850" fill="#c79b5c"/><circle cx="-1.270" cy="-1.270" r="0.500" fill="#12151c"/><rect x="0.420" y="0.420" width="1.700" height="1.700" rx="0.850" fill="#c79b5c"/><circle cx="1.270" cy="1.270" r="0.500" fill="#12151c"/><rect x="0.420" y="-2.120" width="1.700" height="1.700" rx="0.850" fill="#c79b5c"/><circle cx="1.270" cy="-1.270" r="0.500" fill="#12151c"/><rect x="2.960" y="0.420" width="1.700" height="1.700" rx="0.850" fill="#c79b5c"/><circle cx="3.810" cy="1.270" r="0.500" fill="#12151c"/><rect x="2.960" y="-2.120" width="1.700" height="1.700" rx="0.850" fill="#c79b5c"/><circle cx="3.810" cy="-1.270" r="0.500" fill="#12151c"/></svg>