<svg xmlns="http://www.w3.org/2000/svg" viewBox="-34.51 -13.07 69.02 33.38" preserveAspectRatio="xMidYMid meet" style="width:100%;height:100%"><rect x="-34.51" y="-13.07" width="69.02" height="33.38" fill="#12151c"/><line x1="-32.605" y1="9.251" x2="-32.605" y2="-9.251" stroke="#e6e9ef" stroke-width="0.200" stroke-linecap="round" opacity="1"/><line x1="-32.605" y1="19.055" x2="-32.605" y2="12.079" stroke="#e6e9ef" stroke-width="0.200" stroke-linecap="round" opacity="1"/><line x1="-32.605" y1="19.055" x2="-31.605" y2="19.055" stroke="#e6e9ef" stroke-width="0.200" stroke-linecap="round" opacity="1"/><line x1="-31.605" y1="19.055" x2="-31.605" y2="14.735" stroke="#e6e9ef" stroke-width="0.200" stroke-linecap="round" opacity="1"/><line x1="-31.605" y1="14.735" x2="31.605" y2="14.735" stroke="#e6e9ef" stroke-width="0.200" stroke-linecap="round" opacity="1"/><line x1="-30.691" y1="-11.165" x2="30.691" y2="-11.165" stroke="#e6e9ef" stroke-width="0.200" stroke-linecap="round" opacity="1"/><line x1="31.605" y1="19.055" x2="31.605" y2="14.735" stroke="#e6e9ef" stroke-width="0.200" stroke-linecap="round" opacity="1"/><line x1="31.605" y1="19.055" x2="32.605" y2="19.055" stroke="#e6e9ef" stroke-width="0.200" stroke-linecap="round" opacity="1"/><line x1="32.605" y1="9.251" x2="32.605" y2="-9.251" stroke="#e6e9ef" stroke-width="0.200" stroke-linecap="round" opacity="1"/><line x1="32.605" y1="19.055" x2="32.605" y2="12.079" stroke="#e6e9ef" stroke-width="0.200" stroke-linecap="round" opacity="1"/><line x1="-33.105" y1="-10.665" x2="-32.105" y2="-10.665" stroke="#4a5160" stroke-width="0.100" stroke-linecap="round" opacity="0.7"/><line x1="-33.105" y1="10.665" x2="-32.105" y2="10.665" stroke="#4a5160" stroke-width="0.100" stroke-linecap="round" opacity="0.7"/><line x1="-32.105" y1="-10.665" x2="-32.105" y2="-11.665" stroke="#4a5160" stroke-width="0.100" stroke-linecap="round" opacity="0.7"/><line x1="-32.105" y1="-10.665" x2="-31.105" y2="-10.665" stroke="#4a5160" stroke-width="0.100" stroke-linecap="round" opacity="0.7"/><line x1="-32.105" y1="-9.665" x2="-32.105" y2="-10.665" stroke="#4a5160" stroke-width="0.100" stroke-linecap="round" opacity="0.7"/><line x1="-32.105" y1="10.665" x2="-32.105" y2="9.665" stroke="#4a5160" stroke-width="0.100" stroke-linecap="round" opacity="0.7"/><line x1="-32.105" y1="10.665" x2="-31.105" y2="10.665" stroke="#4a5160" stroke-width="0.100" stroke-linecap="round" opacity="0.7"/><line x1="-32.105" y1="11.665" x2="-32.105" y2="10.665" stroke="#4a5160" stroke-width="0.100" stroke-linecap="round" opacity="0.7"/><line x1="-28.939" y1="11.509" x2="-27.939" y2="11.509" stroke="#4a5160" stroke-width="0.100" stroke-linecap="round" opacity="0.7"/><line x1="-28.574" y1="9.414" x2="-27.304" y2="9.414" stroke="#4a5160" stroke-width="0.100" stroke-linecap="round" opacity="0.7"/><line x1="-28.574" y1="13.605" x2="-28.574" y2="9.414" stroke="#4a5160" stroke-width="0.100" stroke-linecap="round" opacity="0.7"/><line x1="-28.574" y1="13.605" x2="-27.304" y2="13.605" stroke="#4a5160" stroke-width="0.100" stroke-linecap="round" opacity="0.7"/><line x1="-27.939" y1="11.509" x2="-27.939" y2="10.509" stroke="#4a5160" stroke-width="0.100" stroke-linecap="round" opacity="0.7"/><line x1="-27.939" y1="11.509" x2="-26.939" y2="11.509" stroke="#4a5160" stroke-width="0.100" stroke-linecap="round" opacity="0.7"/><line x1="-27.939" y1="12.509" x2="-27.939" y2="11.509" stroke="#4a5160" stroke-width="0.100" stroke-linecap="round" opacity="0.7"/><line x1="-27.304" y1="13.605" x2="-27.304" y2="9.414" stroke="#4a5160" stroke-width="0.100" stroke-linecap="round" opacity="0.7"/><line x1="-26.399" y1="11.509" x2="-25.399" y2="11.509" stroke="#4a5160" stroke-width="0.100" stroke-linecap="round" opacity="0.7"/><line x1="-26.034" y1="9.414" x2="-24.764" y2="9.414" stroke="#4a5160" stroke-width="0.100" stroke-linecap="round" opacity="0.7"/><line x1="-26.034" y1="13.605" x2="-26.034" y2="9.414" stroke="#4a5160" stroke-width="0.100" stroke-linecap="round" opacity="0.7"/><line x1="-26.034" y1="13.605" x2="-24.764" y2="13.605" stroke="#4a5160" stroke-width="0.100" stroke-linecap="round" opacity="0.7"/><line x1="-25.399" y1="11.509" x2="-25.399" y2="10.509" stroke="#4a5160" stroke-width="0.100" stroke-linecap="round" opacity="0.7"/><line x1="-25.399" y1="11.509" x2="-24.399" y2="11.509" stroke="#4a5160" stroke-width="0.100" stroke-linecap="round" opacity="0.7"/><line x1="-25.399" y1="12.509" x2="-25.399" y2="11.509" stroke="#4a5160" stroke-width="0.100" stroke-linecap="round" opacity="0.7"/><line x1="-24.764" y1="13.605" x2="-24.764" y2="9.414" stroke="#4a5160" stroke-width="0.100" stroke-linecap="round" opacity="0.7"/><line x1="-23.859" y1="11.509" x2="-22.859" y2="11.509" stroke="#4a5160" stroke-width="0.100" stroke-linecap="round" opacity="0.7"/><line x1="-23.494" y1="9.414" x2="-22.224" y2="9.414" stroke="#4a5160" stroke-width="0.100" stroke-linecap="round" opacity="0.7"/><line x1="-23.494" y1="13.605" x2="-23.494" y2="9.414" stroke="#4a5160" stroke-width="0.100" stroke-linecap="round" opacity="0.7"/><line x1="-23.494" y1="13.605" x2="-22.224" y2="13.605" stroke="#4a5160" stroke-width="0.100" stroke-linecap="round" opacity="0.7"/><line x1="-22.859" y1="11.509" x2="-22.859" y2="10.509" stroke="#4a5160" stroke-width="0.100" stroke-linecap="round" opacity="0.7"/><line x1="-22.859" y1="11.509" x2="-21.859" y2="11.509" stroke="#4a5160" stroke-width="0.100" stroke-linecap="round" opacity="0.7"/><line x1="-22.859" y1="12.509" x2="-22.859" y2="11.509" stroke="#4a5160" stroke-width="0.100" stroke-linecap="round" opacity="0.7"/><line x1="-22.224" y1="13.605" x2="-22.224" y2="9.414" stroke="#4a5160" stroke-width="0.100" stroke-linecap="round" opacity="0.7"/><line x1="-21.319" y1="11.509" x2="-20.319" y2="11.509" stroke="#4a5160" stroke-width="0.100" stroke-linecap="round" opacity="0.7"/><line x1="-20.954" y1="9.414" x2="-19.684" y2="9.414" stroke="#4a5160" stroke-width="0.100" stroke-linecap="round" opacity="0.7"/><line x1="-20.954" y1="13.605" x2="-20.954" y2="9.414" stroke="#4a5160" stroke-width="0.100" stroke-linecap="round" opacity="0.7"/><line x1="-20.954" y1="13.605" x2="-19.684" y2="13.605" stroke="#4a5160" stroke-width="0.100" stroke-linecap="round" opacity="0.7"/><line x1="-20.319" y1="11.509" x2="-20.319" y2="10.509" stroke="#4a5160" stroke-width="0.100" stroke-linecap="round" opacity="0.7"/><line x1="-20.319" y1="11.509" x2="-19.319" y2="11.509" stroke="#4a5160" stroke-width="0.100" stroke-linecap="round" opacity="0.7"/><line x1="-20.319" y1="12.509" x2="-20.319" y2="11.509" stroke="#4a5160" stroke-width="0.100" stroke-linecap="round" opacity="0.7"/><line x1="-19.684" y1="13.605" x2="-19.684" y2="9.414" stroke="#4a5160" stroke-width="0.100" stroke-linecap="round" opacity="0.7"/><line x1="-18.779" y1="11.509" x2="-17.779" y2="11.509" stroke="#4a5160" stroke-width="0.100" stroke-linecap="round" opacity="0.7"/><line x1="-18.414" y1="9.414" x2="-17.144" y2="9.414" stroke="#4a5160" stroke-width="0.100" stroke-linecap="round" opacity="0.7"/><line x1="-18.414" y1="13.605" x2="-18.414" y2="9.414" stroke="#4a5160" stroke-width="0.100" stroke-linecap="round" opacity="0.7"/><line x1="-18.414" y1="13.605" x2="-17.144" y2="13.605" stroke="#4a5160" stroke-width="0.100" stroke-linecap="round" opacity="0.7"/><line x1="-17.779" y1="11.509" x2="-17.779" y2="10.509" stroke="#4a5160" stroke-width="0.100" stroke-linecap="round" opacity="0.7"/><line x1="-17.779" y1="11.509" x2="-16.779" y2="11.509" stroke="#4a5160" stroke-width="0.100" stroke-linecap="round" opacity="0.7"/><line x1="-17.779" y1="12.509" x2="-17.779" y2="11.509" stroke="#4a5160" stroke-width="0.100" stroke-linecap="round" opacity="0.7"/><line x1="-17.144" y1="13.605" x2="-17.144" y2="9.414" stroke="#4a5160" stroke-width="0.100" stroke-linecap="round" opacity="0.7"/><line x1="-16.239" y1="11.509" x2="-15.239" y2="11.509" stroke="#4a5160" stroke-width="0.100" stroke-linecap="round" opacity="0.7"/><line x1="-15.874" y1="9.414" x2="-14.604" y2="9.414" stroke="#4a5160" stroke-width="0.100" stroke-linecap="round" opacity="0.7"/><line x1="-15.874" y1="13.605" x2="-15.874" y2="9.414" stroke="#4a5160" stroke-width="0.100" stroke-linecap="round" opacity="0.7"/><line x1="-15.874" y1="13.605" x2="-14.604" y2="13.605" stroke="#4a5160" stroke-width="0.100" stroke-linecap="round" opacity="0.7"/><line x1="-15.239" y1="11.509" x2="-15.239" y2="10.509" stroke="#4a5160" stroke-width="0.100" stroke-linecap="round" opacity="0.7"/><line x1="-15.239" y1="11.509" x2="-14.239" y2="11.509" stroke="#4a5160" stroke-width="0.100" stroke-linecap="round" opacity="0.7"/><line x1="-15.239" y1="12.509" x2="-15.239" y2="11.509" stroke="#4a5160" stroke-width="0.100" stroke-linecap="round" opacity="0.7"/><line x1="-14.604" y1="13.605" x2="-14.604" y2="9.414" stroke="#4a5160" stroke-width="0.100" stroke-linecap="round" opacity="0.7"/><line x1="-13.699" y1="11.509" x2="-12.699" y2="11.509" stroke="#4a5160" stroke-width="0.100" stroke-linecap="round" opacity="0.7"/><line x1="-13.334" y1="9.414" x2="-12.064" y2="9.414" stroke="#4a5160" stroke-width="0.100" stroke-linecap="round" opacity="0.7"/><line x1="-13.334" y1="13.605" x2="-13.334" y2="9.414" stroke="#4a5160" stroke-width="0.100" stroke-linecap="round" opacity="0.7"/><line x1="-13.334" y1="13.605" x2="-12.064" y2="13.605" stroke="#4a5160" stroke-width="0.100" stroke-linecap="round" opacity="0.7"/><line x1="-12.699" y1="11.509" x2="-12.699" y2="10.509" stroke="#4a5160" stroke-width="0.100" stroke-linecap="round" opacity="0.7"/><line x1="-12.699" y1="11.509" x2="-11.699" y2="11.509" stroke="#4a5160" stroke-width="0.100" stroke-linecap="round" opacity="0.7"/><line x1="-12.699" y1="12.509" x2="-12.699" y2="11.509" stroke="#4a5160" stroke-width="0.100" stroke-linecap="round" opacity="0.7"/><line x1="-12.064" y1="13.605" x2="-12.064" y2="9.414" stroke="#4a5160" stroke-width="0.100" stroke-linecap="round" opacity="0.7"/><line x1="-11.159" y1="11.509" x2="-10.159" y2="11.509" stroke="#4a5160" stroke-width="0.100" stroke-linecap="round" opacity="0.7"/><line x1="-10.794" y1="9.414" x2="-9.524" y2="9.414" stroke="#4a5160" stroke-width="0.100" stroke-linecap="round" opacity="0.7"/><line x1="-10.794" y1="13.605" x2="-10.794" y2="9.414" stroke="#4a5160" stroke-width="0.100" stroke-linecap="round" opacity="0.7"/><line x1="-10.794" y1="13.605" x2="-9.524" y2="13.605" stroke="#4a5160" stroke-width="0.100" stroke-linecap="round" opacity="0.7"/><line x1="-10.159" y1="11.509" x2="-10.159" y2="10.509" stroke="#4a5160" stroke-width="0.100" stroke-linecap="round" opacity="0.7"/><line x1="-10.159" y1="11.509" x2="-9.159" y2="11.509" stroke="#4a5160" stroke-width="0.100" stroke-linecap="round" opacity="0.7"/><line x1="-10.159" y1="12.509" x2="-10.159" y2="11.509" stroke="#4a5160" stroke-width="0.100" stroke-linecap="round" opacity="0.7"/><line x1="-9.524" y1="13.605" x2="-9.524" y2="9.414" stroke="#4a5160" stroke-width="0.100" stroke-linecap="round" opacity="0.7"/><line x1="-8.619" y1="11.509" x2="-7.619" y2="11.509" stroke="#4a5160" stroke-width="0.100" stroke-linecap="round" opacity="0.7"/><line x1="-8.254" y1="9.414" x2="-6.984" y2="9.414" stroke="#4a5160" stroke-width="0.100" stroke-linecap="round" opacity="0.7"/><line x1="-8.254" y1="13.605" x2="-8.254" y2="9.414" stroke="#4a5160" stroke-width="0.100" stroke-linecap="round" opacity="0.7"/><line x1="-8.254" y1="13.605" x2="-6.984" y2="13.605" stroke="#4a5160" stroke-width="0.100" stroke-linecap="round" opacity="0.7"/><line x1="-7.619" y1="11.509" x2="-7.619" y2="10.509" stroke="#4a5160" stroke-width="0.100" stroke-linecap="round" opacity="0.7"/><line x1="-7.619" y1="11.509" x2="-6.619" y2="11.509" stroke="#4a5160" stroke-width="0.100" stroke-linecap="round" opacity="0.7"/><line x1="-7.619" y1="12.509" x2="-7.619" y2="11.509" stroke="#4a5160" stroke-width="0.100" stroke-linecap="round" opacity="0.7"/><line x1="-6.984" y1="13.605" x2="-6.984" y2="9.414" stroke="#4a5160" stroke-width="0.100" stroke-linecap="round" opacity="0.7"/><line x1="-6.079" y1="11.509" x2="-5.079" y2="11.509" stroke="#4a5160" stroke-width="0.100" stroke-linecap="round" opacity="0.7"/><line x1="-5.714" y1="9.414" x2="-4.444" y2="9.414" stroke="#4a5160" stroke-width="0.100" stroke-linecap="round" opacity="0.7"/><line x1="-5.714" y1="13.605" x2="-5.714" y2="9.414" stroke="#4a5160" stroke-width="0.100" stroke-linecap="round" opacity="0.7"/><line x1="-5.714" y1="13.605" x2="-4.444" y2="13.605" stroke="#4a5160" stroke-width="0.100" stroke-linecap="round" opacity="0.7"/><line x1="-5.079" y1="11.509" x2="-5.079" y2="10.509" stroke="#4a5160" stroke-width="0.100" stroke-linecap="round" opacity="0.7"/><line x1="-5.079" y1="11.509" x2="-4.079" y2="11.509" stroke="#4a5160" stroke-width="0.100" stroke-linecap="round" opacity="0.7"/><line x1="-5.079" y1="12.509" x2="-5.079" y2="11.509" stroke="#4a5160" stroke-width="0.100" stroke-linecap="round" opacity="0.7"/><line x1="-4.444" y1="13.605" x2="-4.444" y2="9.414" stroke="#4a5160" stroke-width="0.100" stroke-linecap="round" opacity="0.7"/><line x1="-3.539" y1="11.509" x2="-2.539" y2="11.509" stroke="#4a5160" stroke-width="0.100" stroke-linecap="round" opacity="0.7"/><line x1="-3.174" y1="9.414" x2="-1.904" y2="9.414" stroke="#4a5160" stroke-width="0.100" stroke-linecap="round" opacity="0.7"/><line x1="-3.174" y1="13.605" x2="-3.174" y2="9.414" stroke="#4a5160" stroke-width="0.100" stroke-linecap="round" opacity="0.7"/><line x1="-3.174" y1="13.605" x2="-1.904" y2="13.605" stroke="#4a5160" stroke-width="0.100" stroke-linecap="round" opacity="0.7"/><line x1="-2.539" y1="11.509" x2="-2.539" y2="10.509" stroke="#4a5160" stroke-width="0.100" stroke-linecap="round" opacity="0.7"/><line x1="-2.539" y1="11.509" x2="-1.539" y2="11.509" stroke="#4a5160" stroke-width="0.100" stroke-linecap="round" opacity="0.7"/><line x1="-2.539" y1="12.509" x2="-2.539" y2="11.509" stroke="#4a5160" stroke-width="0.100" stroke-linecap="round" opacity="0.7"/><line x1="-1.904" y1="13.605" x2="-1.904" y2="9.414" stroke="#4a5160" stroke-width="0.100" stroke-linecap="round" opacity="0.7"/><line x1="-1.000" y1="0.000" x2="0.000" y2="0.000" stroke="#4a5160" stroke-width="0.100" stroke-linecap="round" opacity="0.7"/><line x1="-0.999" y1="11.509" x2="0.001" y2="11.509" stroke="#4a5160" stroke-width="0.100" stroke-linecap="round" opacity="0.7"/><line x1="-0.634" y1="9.414" x2="0.636" y2="9.414" stroke="#4a5160" stroke-width="0.100" stroke-linecap="round" opacity="0.7"/><line x1="-0.634" y1="13.605" x2="-0.634" y2="9.414" stroke="#4a5160" stroke-width="0.100" stroke-linecap="round" opacity="0.7"/><line x1="-0.634" y1="13.605" x2="0.636" y2="13.605" stroke="#4a5160" stroke-width="0.100" stroke-linecap="round" opacity="0.7"/><line x1="0.000" y1="0.000" x2="0.000" y2="-1.000" stroke="#4a5160" stroke-width="0.100" stroke-linecap="round" opacity="0.7"/><line x1="0.000" y1="0.000" x2="1.000" y2="0.000" stroke="#4a5160" stroke-width="0.100" stroke-linecap="round" opacity="0.7"/><line x1="0.000" y1="1.000" x2="0.000" y2="0.000" stroke="#4a5160" stroke-width="0.100" stroke-linecap="round" opacity="0.7"/><line x1="0.001" y1="11.509" x2="0.001" y2="10.509" stroke="#4a5160" stroke-width="0.100" stroke-linecap="round" opacity="0.7"/><line x1="0.001" y1="11.509" x2="1.001" y2="11.509" stroke="#4a5160" stroke-width="0.100" stroke-linecap="round" opacity="0.7"/><line x1="0.001" y1="12.509" x2="0.001" y2="11.509" stroke="#4a5160" stroke-width="0.100" stroke-linecap="round" opacity="0.7"/><line x1="0.636" y1="13.605" x2="0.636" y2="9.414" stroke="#4a5160" stroke-width="0.100" stroke-linecap="round" opacity="0.7"/><line x1="1.541" y1="11.509" x2="2.541" y2="11.509" stroke="#4a5160" stroke-width="0.100" stroke-linecap="round" opacity="0.7"/><line x1="1.906" y1="9.414" x2="3.176" y2="9.414" stroke="#4a5160" stroke-width="0.100" stroke-linecap="round" opacity="0.7"/><line x1="1.906" y1="13.605" x2="1.906" y2="9.414" stroke="#4a5160" stroke-width="0.100" stroke-linecap="round" opacity="0.7"/><line x1="1.906" y1="13.605" x2="3.176" y2="13.605" stroke="#4a5160" stroke-width="0.100" stroke-linecap="round" opacity="0.7"/><line x1="2.541" y1="11.509" x2="2.541" y2="10.509" stroke="#4a5160" stroke-width="0.100" stroke-linecap="round" opacity="0.7"/><line x1="2.541" y1="11.509" x2="3.541" y2="11.509" stroke="#4a5160" stroke-width="0.100" stroke-linecap="round" opacity="0.7"/><line x1="2.541" y1="12.509" x2="2.541" y2="11.509" stroke="#4a5160" stroke-width="0.100" stroke-linecap="round" opacity="0.7"/><line x1="3.176" y1="13.605" x2="3.176" y2="9.414" stroke="#4a5160" stroke-width="0.100" stroke-linecap="round" opacity="0.7"/><line x1="4.081" y1="11.509" x2="5.081" y2="11.509" stroke="#4a5160" stroke-width="0.100" stroke-linecap="round" opacity="0.7"/><line x1="4.446" y1="9.414" x2="5.716" y2="9.414" stroke="#4a5160" stroke-width="0.100" stroke-linecap="round" opacity="0.7"/><line x1="4.446" y1="13.605" x2="4.446" y2="9.414" stroke="#4a5160" stroke-width="0.100" stroke-linecap="round" opacity="0.7"/><line x1="4.446" y1="13.605" x2="5.716" y2="13.605" stroke="#4a5160" stroke-width="0.100" stroke-linecap="round" opacity="0.7"/><line x1="5.081" y1="11.509" x2="5.081" y2="10.509" stroke="#4a5160" stroke-width="0.100" stroke-linecap="round" opacity="0.7"/><line x1="5.081" y1="11.509" x2="6.081" y2="11.509" stroke="#4a5160" stroke-width="0.100" stroke-linecap="round" opacity="0.7"/><line x1="5.081" y1="12.509" x2="5.081" y2="11.509" stroke="#4a5160" stroke-width="0.100" stroke-linecap="round" opacity="0.7"/><line x1="5.716" y1="13.605" x2="5.716" y2="9.414" stroke="#4a5160" stroke-width="0.100" stroke-linecap="round" opacity="0.7"/><line x1="6.621" y1="11.509" x2="7.621" y2="11.509" stroke="#4a5160" stroke-width="0.100" stroke-linecap="round" opacity="0.7"/><line x1="6.986" y1="9.414" x2="8.256" y2="9.414" stroke="#4a5160" stroke-width="0.100" stroke-linecap="round" opacity="0.7"/><line x1="6.986" y1="13.605" x2="6.986" y2="9.414" stroke="#4a5160" stroke-width="0.100" stroke-linecap="round" opacity="0.7"/><line x1="6.986" y1="13.605" x2="8.256" y2="13.605" stroke="#4a5160" stroke-width="0.100" stroke-linecap="round" opacity="0.7"/><line x1="7.621" y1="11.509" x2="7.621" y2="10.509" stroke="#4a5160" stroke-width="0.100" stroke-linecap="round" opacity="0.7"/><line x1="7.621" y1="11.509" x2="8.621" y2="11.509" stroke="#4a5160" stroke-width="0.100" stroke-linecap="round" opacity="0.7"/><line x1="7.621" y1="12.509" x2="7.621" y2="11.509" stroke="#4a5160" stroke-width="0.100" stroke-linecap="round" opacity="0.7"/><line x1="8.256" y1="13.605" x2="8.256" y2="9.414" stroke="#4a5160" stroke-width="0.100" stroke-linecap="round" opacity="0.7"/><line x1="9.161" y1="11.509" x2="10.161" y2="11.509" stroke="#4a5160" stroke-width="0.100" stroke-linecap="round" opacity="0.7"/><line x1="9.526" y1="9.414" x2="10.796" y2="9.414" stroke="#4a5160" stroke-width="0.100" stroke-linecap="round" opacity="0.7"/><line x1="9.526" y1="13.605" x2="9.526" y2="9.414" stroke="#4a5160" stroke-width="0.100" stroke-linecap="round" opacity="0.7"/><line x1="9.526" y1="13.605" x2="10.796" y2="13.605" stroke="#4a5160" stroke-width="0.100" stroke-linecap="round" opacity="0.7"/><line x1="10.161" y1="11.509" x2="10.161" y2="10.509" stroke="#4a5160" stroke-width="0.100" stroke-linecap="round" opacity="0.7"/><line x1="10.161" y1="11.509" x2="11.161" y2="11.509" stroke="#4a5160" stroke-width="0.100" stroke-linecap="round" opacity="0.7"/><line x1="10.161" y1="12.509" x2="10.161" y2="11.509" stroke="#4a5160" stroke-width="0.100" stroke-linecap="round" opacity="0.7"/><line x1="10.796" y1="13.605" x2="10.796" y2="9.414" stroke="#4a5160" stroke-width="0.100" stroke-linecap="round" opacity="0.7"/><line x1="11.701" y1="11.509" x2="12.701" y2="11.509" stroke="#4a5160" stroke-width="0.100" stroke-linecap="round" opacity="0.7"/><line x1="12.066" y1="9.414" x2="13.336" y2="9.414" stroke="#4a5160" stroke-width="0.100" stroke-linecap="round" opacity="0.7"/><line x1="12.066" y1="13.605" x2="12.066" y2="9.414" stroke="#4a5160" stroke-width="0.100" stroke-linecap="round" opacity="0.7"/><line x1="12.066" y1="13.605" x2="13.336" y2="13.605" stroke="#4a5160" stroke-width="0.100" stroke-linecap="round" opacity="0.7"/><line x1="12.701" y1="11.509" x2="12.701" y2="10.509" stroke="#4a5160" stroke-width="0.100" stroke-linecap="round" opacity="0.7"/><line x1="12.701" y1="11.509" x2="13.701" y2="11.509" stroke="#4a5160" stroke-width="0.100" stroke-linecap="round" opacity="0.7"/><line x1="12.701" y1="12.509" x2="12.701" y2="11.509" stroke="#4a5160" stroke-width="0.100" stroke-linecap="round" opacity="0.7"/><line x1="13.336" y1="13.605" x2="13.336" y2="9.414" stroke="#4a5160" stroke-width="0.100" stroke-linecap="round" opacity="0.7"/><line x1="14.241" y1="11.509" x2="15.241" y2="11.509" stroke="#4a5160" stroke-width="0.100" stroke-linecap="round" opacity="0.7"/><line x1="14.606" y1="9.414" x2="15.876" y2="9.414" stroke="#4a5160" stroke-width="0.100" stroke-linecap="round" opacity="0.7"/><line x1="14.606" y1="13.605" x2="14.606" y2="9.414" stroke="#4a5160" stroke-width="0.100" stroke-linecap="round" opacity="0.7"/><line x1="14.606" y1="13.605" x2="15.876" y2="13.605" stroke="#4a5160" stroke-width="0.100" stroke-linecap="round" opacity="0.7"/><line x1="15.241" y1="11.509" x2="15.241" y2="10.509" stroke="#4a5160" stroke-width="0.100" stroke-linecap="round" opacity="0.7"/><line x1="15.241" y1="11.509" x2="16.241" y2="11.509" stroke="#4a5160" stroke-width="0.100" stroke-linecap="round" opacity="0.7"/><line x1="15.241" y1="12.509" x2="15.241" y2="11.509" stroke="#4a5160" stroke-width="0.100" stroke-linecap="round" opacity="0.7"/><line x1="15.876" y1="13.605" x2="15.876" y2="9.414" stroke="#4a5160" stroke-width="0.100" stroke-linecap="round" opacity="0.7"/><line x1="16.781" y1="11.509" x2="17.781" y2="11.509" stroke="#4a5160" stroke-width="0.100" stroke-linecap="round" opacity="0.7"/><line x1="17.146" y1="9.414" x2="18.416" y2="9.414" stroke="#4a5160" stroke-width="0.100" stroke-linecap="round" opacity="0.7"/><line x1="17.146" y1="13.605" x2="17.146" y2="9.414" stroke="#4a5160" stroke-width="0.100" stroke-linecap="round" opacity="0.7"/><line x1="17.146" y1="13.605" x2="18.416" y2="13.605" stroke="#4a5160" stroke-width="0.100" stroke-linecap="round" opacity="0.7"/><line x1="17.781" y1="11.509" x2="17.781" y2="10.509" stroke="#4a5160" stroke-width="0.100" stroke-linecap="round" opacity="0.7"/><line x1="17.781" y1="11.509" x2="18.781" y2="11.509" stroke="#4a5160" stroke-width="0.100" stroke-linecap="round" opacity="0.7"/><line x1="17.781" y1="12.509" x2="17.781" y2="11.509" stroke="#4a5160" stroke-width="0.100" stroke-linecap="round" opacity="0.7"/><line x1="18.416" y1="13.605" x2="18.416" y2="9.414" stroke="#4a5160" stroke-width="0.100" stroke-linecap="round" opacity="0.7"/><line x1="19.321" y1="11.509" x2="20.321" y2="11.509" stroke="#4a5160" stroke-width="0.100" stroke-linecap="round" opacity="0.7"/><line x1="19.686" y1="9.414" x2="20.956" y2="9.414" stroke="#4a5160" stroke-width="0.100" stroke-linecap="round" opacity="0.7"/><line x1="19.686" y1="13.605" x2="19.686" y2="9.414" stroke="#4a5160" stroke-width="0.100" stroke-linecap="round" opacity="0.7"/><line x1="19.686" y1="13.605" x2="20.956" y2="13.605" stroke="#4a5160" stroke-width="0.100" stroke-linecap="round" opacity="0.7"/><line x1="20.321" y1="11.509" x2="20.321" y2="10.509" stroke="#4a5160" stroke-width="0.100" stroke-linecap="round" opacity="0.7"/><line x1="20.321" y1="11.509" x2="21.321" y2="11.509" stroke="#4a5160" stroke-width="0.100" stroke-linecap="round" opacity="0.7"/><line x1="20.321" y1="12.509" x2="20.321" y2="11.509" stroke="#4a5160" stroke-width="0.100" stroke-linecap="round" opacity="0.7"/><line x1="20.956" y1="13.605" x2="20.956" y2="9.414" stroke="#4a5160" stroke-width="0.100" stroke-linecap="round" opacity="0.7"/><line x1="21.861" y1="11.509" x2="22.861" y2="11.509" stroke="#4a5160" stroke-width="0.100" stroke-linecap="round" opacity="0.7"/><line x1="22.226" y1="9.414" x2="23.496" y2="9.414" stroke="#4a5160" stroke-width="0.100" stroke-linecap="round" opacity="0.7"/><line x1="22.226" y1="13.605" x2="22.226" y2="9.414" stroke="#4a5160" stroke-width="0.100" stroke-linecap="round" opacity="0.7"/><line x1="22.226" y1="13.605" x2="23.496" y2="13.605" stroke="#4a5160" stroke-width="0.100" stroke-linecap="round" opacity="0.7"/><line x1="22.861" y1="11.509" x2="22.861" y2="10.509" stroke="#4a5160" stroke-width="0.100" stroke-linecap="round" opacity="0.7"/><line x1="22.861" y1="11.509" x2="23.861" y2="11.509" stroke="#4a5160" stroke-width="0.100" stroke-linecap="round" opacity="0.7"/><line x1="22.861" y1="12.509" x2="22.861" y2="11.509" stroke="#4a5160" stroke-width="0.100" stroke-linecap="round" opacity="0.7"/><line x1="23.496" y1="13.605" x2="23.496" y2="9.414" stroke="#4a5160" stroke-width="0.100" stroke-linecap="round" opacity="0.7"/><line x1="24.401" y1="11.509" x2="25.401" y2="11.509" stroke="#4a5160" stroke-width="0.100" stroke-linecap="round" opacity="0.7"/><line x1="24.766" y1="9.414" x2="26.036" y2="9.414" stroke="#4a5160" stroke-width="0.100" stroke-linecap="round" opacity="0.7"/><line x1="24.766" y1="13.605" x2="24.766" y2="9.414" stroke="#4a5160" stroke-width="0.100" stroke-linecap="round" opacity="0.7"/><line x1="24.766" y1="13.605" x2="26.036" y2="13.605" stroke="#4a5160" stroke-width="0.100" stroke-linecap="round" opacity="0.7"/><line x1="25.401" y1="11.509" x2="25.401" y2="10.509" stroke="#4a5160" stroke-width="0.100" stroke-linecap="round" opacity="0.7"/><line x1="25.401" y1="11.509" x2="26.401" y2="11.509" stroke="#4a5160" stroke-width="0.100" stroke-linecap="round" opacity="0.7"/><line x1="25.401" y1="12.509" x2="25.401" y2="11.509" stroke="#4a5160" stroke-width="0.100" stroke-linecap="round" opacity="0.7"/><line x1="26.036" y1="13.605" x2="26.036" y2="9.414" stroke="#4a5160" stroke-width="0.100" stroke-linecap="round" opacity="0.7"/><line x1="26.941" y1="11.509" x2="27.941" y2="11.509" stroke="#4a5160" stroke-width="0.100" stroke-linecap="round" opacity="0.7"/><line x1="27.306" y1="9.414" x2="28.576" y2="9.414" stroke="#4a5160" stroke-width="0.100" stroke-linecap="round" opacity="0.7"/><line x1="27.306" y1="13.605" x2="27.306" y2="9.414" stroke="#4a5160" stroke-width="0.100" stroke-linecap="round" opacity="0.7"/><line x1="27.306" y1="13.605" x2="28.576" y2="13.605" stroke="#4a5160" stroke-width="0.100" stroke-linecap="round" opacity="0.7"/><line x1="27.941" y1="11.509" x2="27.941" y2="10.509" stroke="#4a5160" stroke-width="0.100" stroke-linecap="round" opacity="0.7"/><line x1="27.941" y1="11.509" x2="28.941" y2="11.509" stroke="#4a5160" stroke-width="0.100" stroke-linecap="round" opacity="0.7"/><line x1="27.941" y1="12.509" x2="27.941" y2="11.509" stroke="#4a5160" stroke-width="0.100" stroke-linecap="round" opacity="0.7"/><line x1="28.576" y1="13.605" x2="28.576" y2="9.414" stroke="#4a5160" stroke-width="0.100" stroke-linecap="round" opacity="0.7"/><line x1="31.105" y1="-10.665" x2="32.105" y2="-10.665" stroke="#4a5160" stroke-width="0.100" stroke-linecap="round" opacity="0.7"/><line x1="31.105" y1="10.665" x2="32.105" y2="10.665" stroke="#4a5160" stroke-width="0.100" stroke-linecap="round" opacity="0.7"/><line x1="32.105" y1="-10.665" x2="32.105" y2="-11.665" stroke="#4a5160" stroke-width="0.100" stroke-linecap="round" opacity="0.7"/><line x1="32.105" y1="-10.665" x2="33.105" y2="-10.665" stroke="#4a5160" stroke-width="0.100" stroke-linecap="round" opacity="0.7"/><line x1="32.105" y1="-9.665" x2="32.105" y2="-10.665" stroke="#4a5160" stroke-width="0.100" stroke-linecap="round" opacity="0.7"/><line x1="32.105" y1="10.665" x2="32.105" y2="9.665" stroke="#4a5160" stroke-width="0.100" stroke-linecap="round" opacity="0.7"/><line x1="32.105" y1="10.665" x2="33.105" y2="10.665" stroke="#4a5160" stroke-width="0.100" stroke-linecap="round" opacity="0.7"/><line x1="32.105" y1="11.665" x2="32.105" y2="10.665" stroke="#4a5160" stroke-width="0.100" stroke-linecap="round" opacity="0.7"/><line x1="-32.605" y1="-11.165" x2="32.605" y2="-11.165" stroke="#6b7280" stroke-width="0.100" stroke-linecap="round" opacity="0.8"/><line x1="-32.605" y1="19.055" x2="-32.605" y2="-11.165" stroke="#6b7280" stroke-width="0.100" stroke-linecap="round" opacity="0.8"/><line x1="-32.605" y1="19.055" x2="-31.605" y2="19.055" stroke="#6b7280" stroke-width="0.100" stroke-linecap="round" opacity="0.8"/><line x1="-31.605" y1="19.055" x2="-31.605" y2="14.735" stroke="#6b7280" stroke-width="0.100" stroke-linecap="round" opacity="0.8"/><line x1="-31.605" y1="14.735" x2="-28.440" y2="14.735" stroke="#6b7280" stroke-width="0.100" stroke-linecap="round" opacity="0.8"/><line x1="-29.105" y1="12.235" x2="29.105" y2="12.235" stroke="#6b7280" stroke-width="0.100" stroke-linecap="round" opacity="0.8"/><line x1="-29.105" y1="14.735" x2="-29.105" y2="12.235" stroke="#6b7280" stroke-width="0.100" stroke-linecap="round" opacity="0.8"/><line x1="-28.440" y1="13.331" x2="-27.440" y2="13.331" stroke="#6b7280" stroke-width="0.100" stroke-linecap="round" opacity="0.8"/><line x1="-28.440" y1="15.535" x2="-28.440" y2="13.331" stroke="#6b7280" stroke-width="0.100" stroke-linecap="round" opacity="0.8"/><line x1="-28.440" y1="15.535" x2="-27.440" y2="15.535" stroke="#6b7280" stroke-width="0.100" stroke-linecap="round" opacity="0.8"/><line x1="-27.440" y1="14.735" x2="-25.900" y2="14.735" stroke="#6b7280" stroke-width="0.100" stroke-linecap="round" opacity="0.8"/><line x1="-27.440" y1="15.535" x2="-27.440" y2="13.331" stroke="#6b7280" stroke-width="0.100" stroke-linecap="round" opacity="0.8"/><line x1="-25.900" y1="13.331" x2="-24.900" y2="13.331" stroke="#6b7280" stroke-width="0.100" stroke-linecap="round" opacity="0.8"/><line x1="-25.900" y1="15.535" x2="-25.900" y2="13.331" stroke="#6b7280" stroke-width="0.100" stroke-linecap="round" opacity="0.8"/><line x1="-25.900" y1="15.535" x2="-24.900" y2="15.535" stroke="#6b7280" stroke-width="0.100" stroke-linecap="round" opacity="0.8"/><line x1="-24.900" y1="14.735" x2="-23.360" y2="14.735" stroke="#6b7280" stroke-width="0.100" stroke-linecap="round" opacity="0.8"/><line x1="-24.900" y1="15.535" x2="-24.900" y2="13.331" stroke="#6b7280" stroke-width="0.100" stroke-linecap="round" opacity="0.8"/><line x1="-23.360" y1="13.331" x2="-22.360" y2="13.331" stroke="#6b7280" stroke-width="0.100" stroke-linecap="round" opacity="0.8"/><line x1="-23.360" y1="15.535" x2="-23.360" y2="13.331" stroke="#6b7280" stroke-width="0.100" stroke-linecap="round" opacity="0.8"/><line x1="-23.360" y1="15.535" x2="-22.360" y2="15.535" stroke="#6b7280" stroke-width="0.100" stroke-linecap="round" opacity="0.8"/><line x1="-22.360" y1="14.735" x2="-20.820" y2="14.735" stroke="#6b7280" stroke-width="0.100" stroke-linecap="round" opacity="0.8"/><line x1="-22.360" y1="15.535" x2="-22.360" y2="13.331" stroke="#6b7280" stroke-width="0.100" stroke-linecap="round" opacity="0.8"/><line x1="-20.820" y1="13.331" x2="-19.820" y2="13.331" stroke="#6b7280" stroke-width="0.100" stroke-linecap="round" opacity="0.8"/><line x1="-20.820" y1="15.535" x2="-20.820" y2="13.331" stroke="#6b7280" stroke-width="0.100" stroke-linecap="round" opacity="0.8"/><line x1="-20.820" y1="15.535" x2="-19.820" y2="15.535" stroke="#6b7280" stroke-width="0.100" stroke-linecap="round" opacity="0.8"/><line x1="-19.820" y1="14.735" x2="-18.280" y2="14.735" stroke="#6b7280" stroke-width="0.100" stroke-linecap="round" opacity="0.8"/><line x1="-19.820" y1="15.535" x2="-19.820" y2="13.331" stroke="#6b7280" stroke-width="0.100" stroke-linecap="round" opacity="0.8"/><line x1="-18.280" y1="13.331" x2="-17.280" y2="13.331" stroke="#6b7280" stroke-width="0.100" stroke-linecap="round" opacity="0.8"/><line x1="-18.280" y1="15.535" x2="-18.280" y2="13.331" stroke="#6b7280" stroke-width="0.100" stroke-linecap="round" opacity="0.8"/><line x1="-18.280" y1="15.535" x2="-17.280" y2="15.535" stroke="#6b7280" stroke-width="0.100" stroke-linecap="round" opacity="0.8"/><line x1="-17.280" y1="14.735" x2="-15.740" y2="14.735" stroke="#6b7280" stroke-width="0.100" stroke-linecap="round" opacity="0.8"/><line x1="-17.280" y1="15.535" x2="-17.280" y2="13.331" stroke="#6b7280" stroke-width="0.100" stroke-linecap="round" opacity="0.8"/><line x1="-15.740" y1="13.331" x2="-14.740" y2="13.331" stroke="#6b7280" stroke-width="0.100" stroke-linecap="round" opacity="0.8"/><line x1="-15.740" y1="15.535" x2="-15.740" y2="13.331" stroke="#6b7280" stroke-width="0.100" stroke-linecap="round" opacity="0.8"/><line x1="-15.740" y1="15.535" x2="-14.740" y2="15.535" stroke="#6b7280" stroke-width="0.100" stroke-linecap="round" opacity="0.8"/><line x1="-14.740" y1="14.735" x2="-13.200" y2="14.735" stroke="#6b7280" stroke-width="0.100" stroke-linecap="round" opacity="0.8"/><line x1="-14.740" y1="15.535" x2="-14.740" y2="13.331" stroke="#6b7280" stroke-width="0.100" stroke-linecap="round" opacity="0.8"/><line x1="-13.200" y1="13.331" x2="-12.200" y2="13.331" stroke="#6b7280" stroke-width="0.100" stroke-linecap="round" opacity="0.8"/><line x1="-13.200" y1="15.535" x2="-13.200" y2="13.331" stroke="#6b7280" stroke-width="0.100" stroke-linecap="round" opacity="0.8"/><line x1="-13.200" y1="15.535" x2="-12.200" y2="15.535" stroke="#6b7280" stroke-width="0.100" stroke-linecap="round" opacity="0.8"/><line x1="-12.200" y1="14.735" x2="-10.660" y2="14.735" stroke="#6b7280" stroke-width="0.100" stroke-linecap="round" opacity="0.8"/><line x1="-12.200" y1="15.535" x2="-12.200" y2="13.331" stroke="#6b7280" stroke-width="0.100" stroke-linecap="round" opacity="0.8"/><line x1="-10.660" y1="13.331" x2="-9.660" y2="13.331" stroke="#6b7280" stroke-width="0.100" stroke-linecap="round" opacity="0.8"/><line x1="-10.660" y1="15.535" x2="-10.660" y2="13.331" stroke="#6b7280" stroke-width="0.100" stroke-linecap="round" opacity="0.8"/><line x1="-10.660" y1="15.535" x2="-9.660" y2="15.535" stroke="#6b7280" stroke-width="0.100" stroke-linecap="round" opacity="0.8"/><line x1="-9.660" y1="14.735" x2="-8.120" y2="14.735" stroke="#6b7280" stroke-width="0.100" stroke-linecap="round" opacity="0.8"/><line x1="-9.660" y1="15.535" x2="-9.660" y2="13.331" stroke="#6b7280" stroke-width="0.100" stroke-linecap="round" opacity="0.8"/><line x1="-8.120" y1="13.331" x2="-7.120" y2="13.331" stroke="#6b7280" stroke-width="0.100" stroke-linecap="round" opacity="0.8"/><line x1="-8.120" y1="15.535" x2="-8.120" y2="13.331" stroke="#6b7280" stroke-width="0.100" stroke-linecap="round" opacity="0.8"/><line x1="-8.120" y1="15.535" x2="-7.120" y2="15.535" stroke="#6b7280" stroke-width="0.100" stroke-linecap="round" opacity="0.8"/><line x1="-7.120" y1="14.735" x2="-5.580" y2="14.735" stroke="#6b7280" stroke-width="0.100" stroke-linecap="round" opacity="0.8"/><line x1="-7.120" y1="15.535" x2="-7.120" y2="13.331" stroke="#6b7280" stroke-width="0.100" stroke-linecap="round" opacity="0.8"/><line x1="-5.580" y1="13.331" x2="-4.580" y2="13.331" stroke="#6b7280" stroke-width="0.100" stroke-linecap="round" opacity="0.8"/><line x1="-5.580" y1="15.535" x2="-5.580" y2="13.331" stroke="#6b7280" stroke-width="0.100" stroke-linecap="round" opacity="0.8"/><line x1="-5.580" y1="15.535" x2="-4.580" y2="15.535" stroke="#6b7280" stroke-width="0.100" stroke-linecap="round" opacity="0.8"/><line x1="-4.580" y1="14.735" x2="-3.040" y2="14.735" stroke="#6b7280" stroke-width="0.100" stroke-linecap="round" opacity="0.8"/><line x1="-4.580" y1="15.535" x2="-4.580" y2="13.331" stroke="#6b7280" stroke-width="0.100" stroke-linecap="round" opacity="0.8"/><line x1="-3.040" y1="13.331" x2="-2.040" y2="13.331" stroke="#6b7280" stroke-width="0.100" stroke-linecap="round" opacity="0.8"/><line x1="-3.040" y1="15.535" x2="-3.040" y2="13.331" stroke="#6b7280" stroke-width="0.100" stroke-linecap="round" opacity="0.8"/><line x1="-3.040" y1="15.535" x2="-2.040" y2="15.535" stroke="#6b7280" stroke-width="0.100" stroke-linecap="round" opacity="0.8"/><line x1="-2.040" y1="14.735" x2="-0.500" y2="14.735" stroke="#6b7280" stroke-width="0.100" stroke-linecap="round" opacity="0.8"/><line x1="-2.040" y1="15.535" x2="-2.040" y2="13.331" stroke="#6b7280" stroke-width="0.100" stroke-linecap="round" opacity="0.8"/><line x1="-0.500" y1="13.331" x2="0.500" y2="13.331" stroke="#6b7280" stroke-width="0.100" stroke-linecap="round" opacity="0.8"/><line x1="-0.500" y1="15.535" x2="-0.500" y2="13.331" stroke="#6b7280" stroke-width="0.100" stroke-linecap="round" opacity="0.8"/><line x1="-0.500" y1="15.535" x2="0.500" y2="15.535" stroke="#6b7280" stroke-width="0.100" stroke-linecap="round" opacity="0.8"/><line x1="0.500" y1="14.735" x2="2.040" y2="14.735" stroke="#6b7280" stroke-width="0.100" stroke-linecap="round" opacity="0.8"/><line x1="0.500" y1="15.535" x2="0.500" y2="13.331" stroke="#6b7280" stroke-width="0.100" stroke-linecap="round" opacity="0.8"/><line x1="2.040" y1="13.331" x2="3.040" y2="13.331" stroke="#6b7280" stroke-width="0.100" stroke-linecap="round" opacity="0.8"/><line x1="2.040" y1="15.535" x2="2.040" y2="13.331" stroke="#6b7280" stroke-width="0.100" stroke-linecap="round" opacity="0.8"/><line x1="2.040" y1="15.535" x2="3.040" y2="15.535" stroke="#6b7280" stroke-width="0.100" stroke-linecap="round" opacity="0.8"/><line x1="3.040" y1="14.735" x2="4.580" y2="14.735" stroke="#6b7280" stroke-width="0.100" stroke-linecap="round" opacity="0.8"/><line x1="3.040" y1="15.535" x2="3.040" y2="13.331" stroke="#6b7280" stroke-width="0.100" stroke-linecap="round" opacity="0.8"/><line x1="4.580" y1="13.331" x2="5.580" y2="13.331" stroke="#6b7280" stroke-width="0.100" stroke-linecap="round" opacity="0.8"/><line x1="4.580" y1="15.535" x2="4.580" y2="13.331" stroke="#6b7280" stroke-width="0.100" stroke-linecap="round" opacity="0.8"/><line x1="4.580" y1="15.535" x2="5.580" y2="15.535" stroke="#6b7280" stroke-width="0.100" stroke-linecap="round" opacity="0.8"/><line x1="5.580" y1="14.735" x2="7.120" y2="14.735" stroke="#6b7280" stroke-width="0.100" stroke-linecap="round" opacity="0.8"/><line x1="5.580" y1="15.535" x2="5.580" y2="13.331" stroke="#6b7280" stroke-width="0.100" stroke-linecap="round" opacity="0.8"/><line x1="7.120" y1="13.331" x2="8.120" y2="13.331" stroke="#6b7280" stroke-width="0.100" stroke-linecap="round" opacity="0.8"/><line x1="7.120" y1="15.535" x2="7.120" y2="13.331" stroke="#6b7280" stroke-width="0.100" stroke-linecap="round" opacity="0.8"/><line x1="7.120" y1="15.535" x2="8.120" y2="15.535" stroke="#6b7280" stroke-width="0.100" stroke-linecap="round" opacity="0.8"/><line x1="8.120" y1="14.735" x2="9.660" y2="14.735" stroke="#6b7280" stroke-width="0.100" stroke-linecap="round" opacity="0.8"/><line x1="8.120" y1="15.535" x2="8.120" y2="13.331" stroke="#6b7280" stroke-width="0.100" stroke-linecap="round" opacity="0.8"/><line x1="9.660" y1="13.331" x2="10.660" y2="13.331" stroke="#6b7280" stroke-width="0.100" stroke-linecap="round" opacity="0.8"/><line x1="9.660" y1="15.535" x2="9.660" y2="13.331" stroke="#6b7280" stroke-width="0.100" stroke-linecap="round" opacity="0.8"/><line x1="9.660" y1="15.535" x2="10.660" y2="15.535" stroke="#6b7280" stroke-width="0.100" stroke-linecap="round" opacity="0.8"/><line x1="10.660" y1="14.735" x2="12.200" y2="14.735" stroke="#6b7280" stroke-width="0.100" stroke-linecap="round" opacity="0.8"/><line x1="10.660" y1="15.535" x2="10.660" y2="13.331" stroke="#6b7280" stroke-width="0.100" stroke-linecap="round" opacity="0.8"/><line x1="12.200" y1="13.331" x2="13.200" y2="13.331" stroke="#6b7280" stroke-width="0.100" stroke-linecap="round" opacity="0.8"/><line x1="12.200" y1="15.535" x2="12.200" y2="13.331" stroke="#6b7280" stroke-width="0.100" stroke-linecap="round" opacity="0.8"/><line x1="12.200" y1="15.535" x2="13.200" y2="15.535" stroke="#6b7280" stroke-width="0.100" stroke-linecap="round" opacity="0.8"/><line x1="13.200" y1="14.735" x2="14.740" y2="14.735" stroke="#6b7280" stroke-width="0.100" stroke-linecap="round" opacity="0.8"/><line x1="13.200" y1="15.535" x2="13.200" y2="13.331" stroke="#6b7280" stroke-width="0.100" stroke-linecap="round" opacity="0.8"/><line x1="14.740" y1="13.331" x2="15.740" y2="13.331" stroke="#6b7280" stroke-width="0.100" stroke-linecap="round" opacity="0.8"/><line x1="14.740" y1="15.535" x2="14.740" y2="13.331" stroke="#6b7280" stroke-width="0.100" stroke-linecap="round" opacity="0.8"/><line x1="14.740" y1="15.535" x2="15.740" y2="15.535" stroke="#6b7280" stroke-width="0.100" stroke-linecap="round" opacity="0.8"/><line x1="15.740" y1="14.735" x2="17.280" y2="14.735" stroke="#6b7280" stroke-width="0.100" stroke-linecap="round" opacity="0.8"/><line x1="15.740" y1="15.535" x2="15.740" y2="13.331" stroke="#6b7280" stroke-width="0.100" stroke-linecap="round" opacity="0.8"/><line x1="17.280" y1="13.331" x2="18.280" y2="13.331" stroke="#6b7280" stroke-width="0.100" stroke-linecap="round" opacity="0.8"/><line x1="17.280" y1="15.535" x2="17.280" y2="13.331" stroke="#6b7280" stroke-width="0.100" stroke-linecap="round" opacity="0.8"/><line x1="17.280" y1="15.535" x2="18.280" y2="15.535" stroke="#6b7280" stroke-width="0.100" stroke-linecap="round" opacity="0.8"/><line x1="18.280" y1="14.735" x2="19.820" y2="14.735" stroke="#6b7280" stroke-width="0.100" stroke-linecap="round" opacity="0.8"/><line x1="18.280" y1="15.535" x2="18.280" y2="13.331" stroke="#6b7280" stroke-width="0.100" stroke-linecap="round" opacity="0.8"/><line x1="19.820" y1="13.331" x2="20.820" y2="13.331" stroke="#6b7280" stroke-width="0.100" stroke-linecap="round" opacity="0.8"/><line x1="19.820" y1="15.535" x2="19.820" y2="13.331" stroke="#6b7280" stroke-width="0.100" stroke-linecap="round" opacity="0.8"/><line x1="19.820" y1="15.535" x2="20.820" y2="15.535" stroke="#6b7280" stroke-width="0.100" stroke-linecap="round" opacity="0.8"/><line x1="20.820" y1="14.735" x2="22.360" y2="14.735" stroke="#6b7280" stroke-width="0.100" stroke-linecap="round" opacity="0.8"/><line x1="20.820" y1="15.535" x2="20.820" y2="13.331" stroke="#6b7280" stroke-width="0.100" stroke-linecap="round" opacity="0.8"/><line x1="22.360" y1="13.331" x2="23.360" y2="13.331" stroke="#6b7280" stroke-width="0.100" stroke-linecap="round" opacity="0.8"/><line x1="22.360" y1="15.535" x2="22.360" y2="13.331" stroke="#6b7280" stroke-width="0.100" stroke-linecap="round" opacity="0.8"/><line x1="22.360" y1="15.535" x2="23.360" y2="15.535" stroke="#6b7280" stroke-width="0.100" stroke-linecap="round" opacity="0.8"/><line x1="23.360" y1="14.735" x2="24.900" y2="14.735" stroke="#6b7280" stroke-width="0.100" stroke-linecap="round" opacity="0.8"/><line x1="23.360" y1="15.535" x2="23.360" y2="13.331" stroke="#6b7280" stroke-width="0.100" stroke-linecap="round" opacity="0.8"/><line x1="24.900" y1="13.331" x2="25.900" y2="13.331" stroke="#6b7280" stroke-width="0.100" stroke-linecap="round" opacity="0.8"/><line x1="24.900" y1="15.535" x2="24.900" y2="13.331" stroke="#6b7280" stroke-width="0.100" stroke-linecap="round" opacity="0.8"/><line x1="24.900" y1="15.535" x2="25.900" y2="15.535" stroke="#6b7280" stroke-width="0.100" stroke-linecap="round" opacity="0.8"/><line x1="25.900" y1="14.735" x2="27.440" y2="14.735" stroke="#6b7280" stroke-width="0.100" stroke-linecap="round" opacity="0.8"/><line x1="25.900" y1="15.535" x2="25.900" y2="13.331" stroke="#6b7280" stroke-width="0.100" stroke-linecap="round" opacity="0.8"/><line x1="27.440" y1="13.331" x2="28.440" y2="13.331" stroke="#6b7280" stroke-width="0.100" stroke-linecap="round" opacity="0.8"/><line x1="27.440" y1="15.535" x2="27.440" y2="13.331" stroke="#6b7280" stroke-width="0.100" stroke-linecap="round" opacity="0.8"/><line x1="27.440" y1="15.535" x2="28.440" y2="15.535" stroke="#6b7280" stroke-width="0.100" stroke-linecap="round" opacity="0.8"/><line x1="28.440" y1="14.735" x2="31.605" y2="14.735" stroke="#6b7280" stroke-width="0.100" stroke-linecap="round" opacity="0.8"/><line x1="28.440" y1="15.535" x2="28.440" y2="13.331" stroke="#6b7280" stroke-width="0.100" stroke-linecap="round" opacity="0.8"/><line x1="29.105" y1="12.235" x2="29.105" y2="14.735" stroke="#6b7280" stroke-width="0.100" stroke-linecap="round" opacity="0.8"/><line x1="31.605" y1="19.055" x2="31.605" y2="14.735" stroke="#6b7280" stroke-width="0.100" stroke-linecap="round" opacity="0.8"/><line x1="31.605" y1="19.055" x2="32.605" y2="19.055" stroke="#6b7280" stroke-width="0.100" stroke-linecap="round" opacity="0.8"/><line x1="32.605" y1="19.055" x2="32.605" y2="-11.165" stroke="#6b7280" stroke-width="0.100" stroke-linecap="round" opacity="0.8"/><line x1="-33.510" y1="-12.070" x2="33.510" y2="-12.070" stroke="#d24d4d" stroke-width="0.080" stroke-linecap="round" opacity="0.7"/><line x1="33.510" y1="-12.070" x2="33.510" y2="19.310" stroke="#d24d4d" stroke-width="0.080" stroke-linecap="round" opacity="0.7"/><line x1="33.510" y1="19.310" x2="-33.510" y2="19.310" stroke="#d24d4d" stroke-width="0.080" stroke-linecap="round" opacity="0.7"/><line x1="-33.510" y1="19.310" x2="-33.510" y2="-12.070" stroke="#d24d4d" stroke-width="0.080" stroke-linecap="round" opacity="0.7"/><rect x="27.306" y="9.414" width="1.270" height="4.190" rx="0.000" fill="#c79b5c"/><rect x="24.766" y="9.414" width="1.270" height="4.190" rx="0.000" fill="#c79b5c"/><rect x="22.226" y="9.414" width="1.270" height="4.190" rx="0.000" fill="#c79b5c"/><rect x="19.686" y="9.414" width="1.270" height="4.190" rx="0.000" fill="#c79b5c"/><rect x="17.146" y="9.414" width="1.270" height="4.190" rx="0.000" fill="#c79b5c"/><rect x="14.606" y="9.414" width="1.270" height="4.190" rx="0.000" fill="#c79b5c"/><rect x="12.066" y="9.414" width="1.270" height="4.190" rx="0.000" fill="#c79b5c"/><rect x="9.526" y="9.414" width="1.270" height="4.190" rx="0.000" fill="#c79b5c"/><rect x="6.986" y="9.414" width="1.270" height="4.190" rx="0.000" fill="#c79b5c"/><rect x="4.446" y="9.414" width="1.270" height="4.190" rx="0.000" fill="#c79b5c"/><rect x="1.906" y="9.414" width="1.270" height="4.190" rx="0.000" fill="#c79b5c"/><rect x="-0.634" y="9.414" width="1.270" height="4.190" rx="0.000" fill="#c79b5c"/><rect x="-3.174" y="9.414" width="1.270" height="4.190" rx="0.000" fill="#c79b5c"/><rect x="-5.714" y="9.414" width="1.270" height="4.190" rx="0.000" fill="#c79b5c"/><rect x="-8.254" y="9.414" width="1.270" height="4.190" rx="0.000" fill="#c79b5c"/><rect x="-10.794" y="9.414" width="1.270" height="4.190" rx="0.000" fill="#c79b5c"/><rect x="-13.334" y="9.414" width="1.270" height="4.190" rx="0.000" fill="#c79b5c"/><rect x="-15.874" y="9.414" width="1.270" height="4.190" rx="0.000" fill="#c79b5c"/><rect x="-18.414" y="9.414" width="1.270" height="4.190" rx="0.000" fill="#c79b5c"/><rect x="-20.954" y="9.414" width="1.270" height="4.190" rx="0.000" fill="#c79b5c"/><rect x="-23.494" y="9.414" width="1.270" height="4.190" rx="0.000" fill="#c79b5c"/><rect x="-26.034" y="9.414" width="1.270" height="4.190" rx="0.000" fill="#c79b5c"/><rect x="-28.574" y="9.414" width="1.270" height="4.190" rx="0.000" fill="#c79b5c"/><rect x="-33.255" y="9.515" width="2.300" height="2.300" rx="1.150" fill="#c79b5c"/><circle cx="-32.105" cy="10.665" r="0.900" fill="#12151c"/><rect x="-33.255" y="-11.815" width="2.300" height="2.300" rx="1.150" fill="#c79b5c"/><circle cx="-32.105" cy="-10.665" r="0.900" fill="#12151c"/><rect x="30.955" y="-11.815" width="2.300" height="2.300" rx="1.150" fill="#c79b5c"/><circle cx="32.105" cy="-10.665" r="0.900" fill="#12151c"/><rect x="30.955" y="9.515" width="2.300" height="2.300" rx="1.150" fill="#c79b5c"/><circle cx="32.105" cy="10.665" r="0.900" fill="#12151c"/></svg>