<svg xmlns="http://www.w3.org/2000/svg" viewBox="-8.80 -3.70 17.60 7.90" preserveAspectRatio="xMidYMid meet" style="width:100%;height:100%"><rect x="-8.80" y="-3.70" width="17.60" height="7.90" fill="#12151c"/><line x1="-5.800" y1="-2.450" x2="5.800" y2="-2.450" stroke="#e6e9ef" stroke-width="0.200" stroke-linecap="round" opacity="1"/><line x1="-5.800" y1="-1.450" x2="-5.800" y2="-2.450" stroke="#e6e9ef" stroke-width="0.200" stroke-linecap="round" opacity="1"/><line x1="-5.800" y1="2.450" x2="-5.800" y2="1.450" stroke="#e6e9ef" stroke-width="0.200" stroke-linecap="round" opacity="1"/><line x1="-5.800" y1="2.450" x2="-1.450" y2="2.450" stroke="#e6e9ef" stroke-width="0.200" stroke-linecap="round" opacity="1"/><line x1="-3.250" y1="-2.300" x2="3.250" y2="-2.300" stroke="#e6e9ef" stroke-width="0.200" stroke-linecap="round" opacity="1"/><line x1="-3.250" y1="2.300" x2="-1.450" y2="2.300" stroke="#e6e9ef" stroke-width="0.200" stroke-linecap="round" opacity="1"/><line x1="1.450" y1="2.300" x2="3.250" y2="2.300" stroke="#e6e9ef" stroke-width="0.200" stroke-linecap="round" opacity="1"/><line x1="1.450" y1="2.450" x2="5.800" y2="2.450" stroke="#e6e9ef" stroke-width="0.200" stroke-linecap="round" opacity="1"/><line x1="5.800" y1="-1.450" x2="5.800" y2="-2.450" stroke="#e6e9ef" stroke-width="0.200" stroke-linecap="round" opacity="1"/><line x1="5.800" y1="2.450" x2="5.800" y2="1.450" stroke="#e6e9ef" stroke-width="0.200" stroke-linecap="round" opacity="1"/><line x1="-7.550" y1="-1.050" x2="-1.950" y2="-1.050" stroke="#4a5160" stroke-width="0.080" stroke-linecap="round" opacity="0.7"/><line x1="-7.550" y1="1.050" x2="-7.550" y2="-1.050" stroke="#4a5160" stroke-width="0.080" stroke-linecap="round" opacity="0.7"/><line x1="-7.550" y1="1.050" x2="-1.950" y2="1.050" stroke="#4a5160" stroke-width="0.080" stroke-linecap="round" opacity="0.7"/><line x1="-5.750" y1="0.000" x2="-4.750" y2="0.000" stroke="#4a5160" stroke-width="0.080" stroke-linecap="round" opacity="0.7"/><line x1="-4.750" y1="0.000" x2="-4.750" y2="-1.000" stroke="#4a5160" stroke-width="0.080" stroke-linecap="round" opacity="0.7"/><line x1="-4.750" y1="0.000" x2="-3.750" y2="0.000" stroke="#4a5160" stroke-width="0.080" stroke-linecap="round" opacity="0.7"/><line x1="-4.750" y1="1.000" x2="-4.750" y2="0.000" stroke="#4a5160" stroke-width="0.080" stroke-linecap="round" opacity="0.7"/><line x1="-1.950" y1="1.050" x2="-1.950" y2="-1.050" stroke="#4a5160" stroke-width="0.080" stroke-linecap="round" opacity="0.7"/><line x1="-1.050" y1="-1.050" x2="1.050" y2="-1.050" stroke="#4a5160" stroke-width="0.080" stroke-linecap="round" opacity="0.7"/><line x1="-1.050" y1="2.950" x2="-1.050" y2="-1.050" stroke="#4a5160" stroke-width="0.080" stroke-linecap="round" opacity="0.7"/><line x1="-1.050" y1="2.950" x2="1.050" y2="2.950" stroke="#4a5160" stroke-width="0.080" stroke-linecap="round" opacity="0.7"/><line x1="-1.000" y1="0.000" x2="0.000" y2="0.000" stroke="#4a5160" stroke-width="0.080" stroke-linecap="round" opacity="0.7"/><line x1="-1.000" y1="0.950" x2="0.000" y2="0.950" stroke="#4a5160" stroke-width="0.080" stroke-linecap="round" opacity="0.7"/><line x1="0.000" y1="0.000" x2="0.000" y2="-1.000" stroke="#4a5160" stroke-width="0.080" stroke-linecap="round" opacity="0.7"/><line x1="0.000" y1="0.000" x2="1.000" y2="0.000" stroke="#4a5160" stroke-width="0.080" stroke-linecap="round" opacity="0.7"/><line x1="0.000" y1="0.950" x2="1.000" y2="0.950" stroke="#4a5160" stroke-width="0.080" stroke-linecap="round" opacity="0.7"/><line x1="0.000" y1="1.950" x2="0.000" y2="0.950" stroke="#4a5160" stroke-width="0.080" stroke-linecap="round" opacity="0.7"/><line x1="1.050" y1="2.950" x2="1.050" y2="-1.050" stroke="#4a5160" stroke-width="0.080" stroke-linecap="round" opacity="0.7"/><line x1="1.950" y1="-1.050" x2="7.550" y2="-1.050" stroke="#4a5160" stroke-width="0.080" stroke-linecap="round" opacity="0.7"/><line x1="1.950" y1="1.050" x2="1.950" y2="-1.050" stroke="#4a5160" stroke-width="0.080" stroke-linecap="round" opacity="0.7"/><line x1="1.950" y1="1.050" x2="7.550" y2="1.050" stroke="#4a5160" stroke-width="0.080" stroke-linecap="round" opacity="0.7"/><line x1="3.750" y1="0.000" x2="4.750" y2="0.000" stroke="#4a5160" stroke-width="0.080" stroke-linecap="round" opacity="0.7"/><line x1="4.750" y1="0.000" x2="4.750" y2="-1.000" stroke="#4a5160" stroke-width="0.080" stroke-linecap="round" opacity="0.7"/><line x1="4.750" y1="0.000" x2="5.750" y2="0.000" stroke="#4a5160" stroke-width="0.080" stroke-linecap="round" opacity="0.7"/><line x1="4.750" y1="1.000" x2="4.750" y2="0.000" stroke="#4a5160" stroke-width="0.080" stroke-linecap="round" opacity="0.7"/><line x1="7.550" y1="1.050" x2="7.550" y2="-1.050" stroke="#4a5160" stroke-width="0.080" stroke-linecap="round" opacity="0.7"/><line x1="-7.800" y1="-2.700" x2="7.800" y2="-2.700" stroke="#d24d4d" stroke-width="0.080" stroke-linecap="round" opacity="0.7"/><line x1="-7.800" y1="3.200" x2="-7.800" y2="-2.700" stroke="#d24d4d" stroke-width="0.080" stroke-linecap="round" opacity="0.7"/><line x1="-7.800" y1="3.200" x2="7.800" y2="3.200" stroke="#d24d4d" stroke-width="0.080" stroke-linecap="round" opacity="0.7"/><line x1="7.800" y1="3.200" x2="7.800" y2="-2.700" stroke="#d24d4d" stroke-width="0.080" stroke-linecap="round" opacity="0.7"/><line x1="-6.600" y1="-0.300" x2="-5.800" y2="-0.300" stroke="#6b7280" stroke-width="0.100" stroke-linecap="round" opacity="0.8"/><line x1="-6.600" y1="0.300" x2="-6.600" y2="-0.300" stroke="#6b7280" stroke-width="0.100" stroke-linecap="round" opacity="0.8"/><line x1="-6.600" y1="0.300" x2="-5.800" y2="0.300" stroke="#6b7280" stroke-width="0.100" stroke-linecap="round" opacity="0.8"/><line x1="-5.800" y1="-2.450" x2="5.800" y2="-2.450" stroke="#6b7280" stroke-width="0.100" stroke-linecap="round" opacity="0.8"/><line x1="-5.800" y1="2.450" x2="-5.800" y2="-2.450" stroke="#6b7280" stroke-width="0.100" stroke-linecap="round" opacity="0.8"/><line x1="-5.800" y1="2.450" x2="5.800" y2="2.450" stroke="#6b7280" stroke-width="0.100" stroke-linecap="round" opacity="0.8"/><line x1="-3.250" y1="-2.300" x2="3.250" y2="-2.300" stroke="#6b7280" stroke-width="0.100" stroke-linecap="round" opacity="0.8"/><line x1="-3.250" y1="2.300" x2="3.250" y2="2.300" stroke="#6b7280" stroke-width="0.100" stroke-linecap="round" opacity="0.8"/><line x1="-0.300" y1="2.900" x2="-0.300" y2="2.450" stroke="#6b7280" stroke-width="0.100" stroke-linecap="round" opacity="0.8"/><line x1="-0.300" y1="2.900" x2="0.300" y2="2.900" stroke="#6b7280" stroke-width="0.100" stroke-linecap="round" opacity="0.8"/><line x1="0.300" y1="2.900" x2="0.300" y2="2.450" stroke="#6b7280" stroke-width="0.100" stroke-linecap="round" opacity="0.8"/><line x1="5.800" y1="-0.300" x2="6.600" y2="-0.300" stroke="#6b7280" stroke-width="0.100" stroke-linecap="round" opacity="0.8"/><line x1="5.800" y1="0.300" x2="6.600" y2="0.300" stroke="#6b7280" stroke-width="0.100" stroke-linecap="round" opacity="0.8"/><line x1="5.800" y1="2.450" x2="5.800" y2="-2.450" stroke="#6b7280" stroke-width="0.100" stroke-linecap="round" opacity="0.8"/><line x1="6.600" y1="0.300" x2="6.600" y2="-0.300" stroke="#6b7280" stroke-width="0.100" stroke-linecap="round" opacity="0.8"/><path d="M -5.035 -1.450 A 2.300 2.300 0 0 1 -3.250 -2.299" fill="none" stroke="#e6e9ef" stroke-width="0.12" opacity="1"/><path d="M -3.250 2.300 A 2.300 2.300 0 0 1 -5.036 1.450" fill="none" stroke="#e6e9ef" stroke-width="0.12" opacity="1"/><path d="M 3.250 -2.300 A 2.300 2.300 0 0 1 5.035 -1.450" fill="none" stroke="#e6e9ef" stroke-width="0.12" opacity="1"/><path d="M 5.035 1.450 A 2.300 2.300 0 0 1 3.250 2.300" fill="none" stroke="#e6e9ef" stroke-width="0.12" opacity="1"/><path d="M -3.250 2.300 A 2.300 2.300 0 1 1 -3.250 -2.299" fill="none" stroke="#6b7280" stroke-width="0.12" opacity="0.8"/><path d="M 3.250 -2.300 A 2.300 2.300 0 1 1 3.250 2.300" fill="none" stroke="#6b7280" stroke-width="0.12" opacity="0.8"/><rect x="-7.550" y="-1.050" width="5.600" height="2.100" rx="0.000" fill="#c79b5c"/><rect x="1.950" y="-1.050" width="5.600" height="2.100" rx="0.000" fill="#c79b5c"/><rect x="-2.000" y="-0.100" width="4.000" height="2.100" rx="0.000" fill="#c79b5c"/></svg>