<svg xmlns="http://www.w3.org/2000/svg" viewBox="-23.44 -4.55 46.88 9.16" preserveAspectRatio="xMidYMid meet" style="width:100%;height:100%"><rect x="-23.44" y="-4.55" width="46.88" height="9.16" fill="#12151c"/><path d="M -22.441 -2.015 A 2.915 2.915 0 0 1 -21.720 -2.572" fill="none" stroke="#e6e9ef" stroke-width="0.12" opacity="1"/><path d="M -20.893 1.262 A 1.400 1.400 0 0 1 -20.925 -1.278" fill="none" stroke="#e6e9ef" stroke-width="0.12" opacity="1"/><path d="M -19.715 -1.278 A 1.400 1.400 0 0 1 -19.747 1.262" fill="none" stroke="#e6e9ef" stroke-width="0.12" opacity="1"/><path d="M -18.920 -2.572 A 2.915 2.915 0 0 1 -18.199 -2.015" fill="none" stroke="#e6e9ef" stroke-width="0.12" opacity="1"/><path d="M -17.361 -2.015 A 2.915 2.915 0 0 1 -16.640 -2.572" fill="none" stroke="#e6e9ef" stroke-width="0.12" opacity="1"/><path d="M -15.813 1.262 A 1.400 1.400 0 0 1 -15.845 -1.278" fill="none" stroke="#e6e9ef" stroke-width="0.12" opacity="1"/><path d="M -14.635 -1.278 A 1.400 1.400 0 0 1 -14.667 1.262" fill="none" stroke="#e6e9ef" stroke-width="0.12" opacity="1"/><path d="M -13.840 -2.572 A 2.915 2.915 0 0 1 -13.119 -2.015" fill="none" stroke="#e6e9ef" stroke-width="0.12" opacity="1"/><path d="M -12.281 -2.015 A 2.915 2.915 0 0 1 -11.560 -2.572" fill="none" stroke="#e6e9ef" stroke-width="0.12" opacity="1"/><path d="M -10.733 1.262 A 1.400 1.400 0 0 1 -10.765 -1.278" fill="none" stroke="#e6e9ef" stroke-width="0.12" opacity="1"/><path d="M -9.555 -1.278 A 1.400 1.400 0 0 1 -9.587 1.262" fill="none" stroke="#e6e9ef" stroke-width="0.12" opacity="1"/><path d="M -8.760 -2.572 A 2.915 2.915 0 0 1 -8.039 -2.015" fill="none" stroke="#e6e9ef" stroke-width="0.12" opacity="1"/><path d="M -7.201 -2.015 A 2.915 2.915 0 0 1 -6.480 -2.572" fill="none" stroke="#e6e9ef" stroke-width="0.12" opacity="1"/><path d="M -5.653 1.262 A 1.400 1.400 0 0 1 -5.685 -1.278" fill="none" stroke="#e6e9ef" stroke-width="0.12" opacity="1"/><path d="M -4.475 -1.278 A 1.400 1.400 0 0 1 -4.507 1.262" fill="none" stroke="#e6e9ef" stroke-width="0.12" opacity="1"/><path d="M -3.680 -2.572 A 2.915 2.915 0 0 1 -2.959 -2.015" fill="none" stroke="#e6e9ef" stroke-width="0.12" opacity="1"/><path d="M -2.121 -2.015 A 2.915 2.915 0 0 1 -1.400 -2.572" fill="none" stroke="#e6e9ef" stroke-width="0.12" opacity="1"/><path d="M -0.573 1.262 A 1.400 1.400 0 0 1 -0.605 -1.278" fill="none" stroke="#e6e9ef" stroke-width="0.12" opacity="1"/><path d="M 0.605 -1.278 A 1.400 1.400 0 0 1 0.573 1.262" fill="none" stroke="#e6e9ef" stroke-width="0.12" opacity="1"/><path d="M 1.400 -2.572 A 2.915 2.915 0 0 1 2.121 -2.015" fill="none" stroke="#e6e9ef" stroke-width="0.12" opacity="1"/><path d="M 2.959 -2.015 A 2.915 2.915 0 0 1 3.680 -2.572" fill="none" stroke="#e6e9ef" stroke-width="0.12" opacity="1"/><path d="M 4.507 1.262 A 1.400 1.400 0 0 1 4.475 -1.278" fill="none" stroke="#e6e9ef" stroke-width="0.12" opacity="1"/><path d="M 5.685 -1.278 A 1.400 1.400 0 0 1 5.653 1.262" fill="none" stroke="#e6e9ef" stroke-width="0.12" opacity="1"/><path d="M 6.480 -2.572 A 2.915 2.915 0 0 1 7.201 -2.015" fill="none" stroke="#e6e9ef" stroke-width="0.12" opacity="1"/><path d="M 8.039 -2.015 A 2.915 2.915 0 0 1 8.760 -2.572" fill="none" stroke="#e6e9ef" stroke-width="0.12" opacity="1"/><path d="M 9.587 1.262 A 1.400 1.400 0 0 1 9.555 -1.278" fill="none" stroke="#e6e9ef" stroke-width="0.12" opacity="1"/><path d="M 10.765 -1.278 A 1.400 1.400 0 0 1 10.733 1.262" fill="none" stroke="#e6e9ef" stroke-width="0.12" opacity="1"/><path d="M 11.560 -2.572 A 2.915 2.915 0 0 1 12.281 -2.015" fill="none" stroke="#e6e9ef" stroke-width="0.12" opacity="1"/><path d="M 13.119 -2.015 A 2.915 2.915 0 0 1 13.840 -2.572" fill="none" stroke="#e6e9ef" stroke-width="0.12" opacity="1"/><path d="M 14.667 1.262 A 1.400 1.400 0 0 1 14.635 -1.278" fill="none" stroke="#e6e9ef" stroke-width="0.12" opacity="1"/><path d="M 15.845 -1.278 A 1.400 1.400 0 0 1 15.813 1.262" fill="none" stroke="#e6e9ef" stroke-width="0.12" opacity="1"/><path d="M 16.640 -2.572 A 2.915 2.915 0 0 1 17.361 -2.015" fill="none" stroke="#e6e9ef" stroke-width="0.12" opacity="1"/><path d="M 18.199 -2.015 A 2.915 2.915 0 0 1 18.920 -2.572" fill="none" stroke="#e6e9ef" stroke-width="0.12" opacity="1"/><path d="M 19.747 1.262 A 1.400 1.400 0 0 1 19.715 -1.278" fill="none" stroke="#e6e9ef" stroke-width="0.12" opacity="1"/><path d="M 20.925 -1.278 A 1.400 1.400 0 0 1 20.893 1.262" fill="none" stroke="#e6e9ef" stroke-width="0.12" opacity="1"/><path d="M 21.720 -2.572 A 2.915 2.915 0 0 1 22.441 -2.015" fill="none" stroke="#e6e9ef" stroke-width="0.12" opacity="1"/><path d="M -22.441 -2.015 A 2.915 2.915 0 0 1 -18.199 -2.015" fill="none" stroke="#6b7280" stroke-width="0.12" opacity="0.8"/><path d="M -17.361 -2.015 A 2.915 2.915 0 0 1 -13.119 -2.015" fill="none" stroke="#6b7280" stroke-width="0.12" opacity="0.8"/><path d="M -12.281 -2.015 A 2.915 2.915 0 0 1 -8.039 -2.015" fill="none" stroke="#6b7280" stroke-width="0.12" opacity="0.8"/><path d="M -7.201 -2.015 A 2.915 2.915 0 0 1 -2.959 -2.015" fill="none" stroke="#6b7280" stroke-width="0.12" opacity="0.8"/><path d="M -2.121 -2.015 A 2.915 2.915 0 0 1 2.121 -2.015" fill="none" stroke="#6b7280" stroke-width="0.12" opacity="0.8"/><path d="M 2.959 -2.015 A 2.915 2.915 0 0 1 7.201 -2.015" fill="none" stroke="#6b7280" stroke-width="0.12" opacity="0.8"/><path d="M 8.039 -2.015 A 2.915 2.915 0 0 1 12.281 -2.015" fill="none" stroke="#6b7280" stroke-width="0.12" opacity="0.8"/><path d="M 13.119 -2.015 A 2.915 2.915 0 0 1 17.361 -2.015" fill="none" stroke="#6b7280" stroke-width="0.12" opacity="0.8"/><path d="M 18.199 -2.015 A 2.915 2.915 0 0 1 22.441 -2.015" fill="none" stroke="#6b7280" stroke-width="0.12" opacity="0.8"/><circle cx="-20.320" cy="-0.015" r="0.700" fill="none" stroke="#e6e9ef" stroke-width="0.12" opacity="1"/><circle cx="-15.240" cy="-0.015" r="0.700" fill="none" stroke="#e6e9ef" stroke-width="0.12" opacity="1"/><circle cx="-10.160" cy="-0.015" r="0.700" fill="none" stroke="#e6e9ef" stroke-width="0.12" opacity="1"/><circle cx="-5.080" cy="-0.015" r="0.700" fill="none" stroke="#e6e9ef" stroke-width="0.12" opacity="1"/><circle cx="0.000" cy="-0.015" r="0.700" fill="none" stroke="#e6e9ef" stroke-width="0.12" opacity="1"/><circle cx="5.080" cy="-0.015" r="0.700" fill="none" stroke="#e6e9ef" stroke-width="0.12" opacity="1"/><circle cx="10.160" cy="-0.015" r="0.700" fill="none" stroke="#e6e9ef" stroke-width="0.12" opacity="1"/><circle cx="15.240" cy="-0.015" r="0.700" fill="none" stroke="#e6e9ef" stroke-width="0.12" opacity="1"/><circle cx="20.320" cy="-0.015" r="0.700" fill="none" stroke="#e6e9ef" stroke-width="0.12" opacity="1"/><circle cx="-20.320" cy="-0.015" r="1.400" fill="none" stroke="#6b7280" stroke-width="0.12" opacity="0.8"/><circle cx="-20.320" cy="-0.015" r="0.700" fill="none" stroke="#6b7280" stroke-width="0.12" opacity="0.8"/><circle cx="-15.240" cy="-0.015" r="1.400" fill="none" stroke="#6b7280" stroke-width="0.12" opacity="0.8"/><circle cx="-15.240" cy="-0.015" r="0.700" fill="none" stroke="#6b7280" stroke-width="0.12" opacity="0.8"/><circle cx="-10.160" cy="-0.015" r="1.400" fill="none" stroke="#6b7280" stroke-width="0.12" opacity="0.8"/><circle cx="-10.160" cy="-0.015" r="0.700" fill="none" stroke="#6b7280" stroke-width="0.12" opacity="0.8"/><circle cx="-5.080" cy="-0.015" r="1.400" fill="none" stroke="#6b7280" stroke-width="0.12" opacity="0.8"/><circle cx="-5.080" cy="-0.015" r="0.700" fill="none" stroke="#6b7280" stroke-width="0.12" opacity="0.8"/><circle cx="0.000" cy="-0.015" r="1.400" fill="none" stroke="#6b7280" stroke-width="0.12" opacity="0.8"/><circle cx="0.000" cy="-0.015" r="0.700" fill="none" stroke="#6b7280" stroke-width="0.12" opacity="0.8"/><circle cx="5.080" cy="-0.015" r="1.400" fill="none" stroke="#6b7280" stroke-width="0.12" opacity="0.8"/><circle cx="5.080" cy="-0.015" r="0.700" fill="none" stroke="#6b7280" stroke-width="0.12" opacity="0.8"/><circle cx="10.160" cy="-0.015" r="1.400" fill="none" stroke="#6b7280" stroke-width="0.12" opacity="0.8"/><circle cx="10.160" cy="-0.015" r="0.700" fill="none" stroke="#6b7280" stroke-width="0.12" opacity="0.8"/><circle cx="15.240" cy="-0.015" r="1.400" fill="none" stroke="#6b7280" stroke-width="0.12" opacity="0.8"/><circle cx="15.240" cy="-0.015" r="0.700" fill="none" stroke="#6b7280" stroke-width="0.12" opacity="0.8"/><circle cx="20.320" cy="-0.015" r="1.400" fill="none" stroke="#6b7280" stroke-width="0.12" opacity="0.8"/><circle cx="20.320" cy="-0.015" r="0.700" fill="none" stroke="#6b7280" stroke-width="0.12" opacity="0.8"/><rect x="19.270" y="-3.535" width="2.100" height="2.100" rx="1.050" fill="#c79b5c"/><circle cx="20.320" cy="-2.485" r="0.700" fill="#12151c"/><rect x="19.270" y="1.505" width="2.100" height="2.100" rx="1.050" fill="#c79b5c"/><circle cx="20.320" cy="2.555" r="0.700" fill="#12151c"/><rect x="14.190" y="-3.535" width="2.100" height="2.100" rx="1.050" fill="#c79b5c"/><circle cx="15.240" cy="-2.485" r="0.700" fill="#12151c"/><rect x="14.190" y="1.505" width="2.100" height="2.100" rx="1.050" fill="#c79b5c"/><circle cx="15.240" cy="2.555" r="0.700" fill="#12151c"/><rect x="9.110" y="-3.535" width="2.100" height="2.100" rx="1.050" fill="#c79b5c"/><circle cx="10.160" cy="-2.485" r="0.700" fill="#12151c"/><rect x="9.110" y="1.505" width="2.100" height="2.100" rx="1.050" fill="#c79b5c"/><circle cx="10.160" cy="2.555" r="0.700" fill="#12151c"/><rect x="4.030" y="-3.535" width="2.100" height="2.100" rx="1.050" fill="#c79b5c"/><circle cx="5.080" cy="-2.485" r="0.700" fill="#12151c"/><rect x="4.030" y="1.505" width="2.100" height="2.100" rx="1.050" fill="#c79b5c"/><circle cx="5.080" cy="2.555" r="0.700" fill="#12151c"/><rect x="-1.050" y="-3.535" width="2.100" height="2.100" rx="1.050" fill="#c79b5c"/><circle cx="0.000" cy="-2.485" r="0.700" fill="#12151c"/><rect x="-1.050" y="1.505" width="2.100" height="2.100" rx="1.050" fill="#c79b5c"/><circle cx="0.000" cy="2.555" r="0.700" fill="#12151c"/><rect x="-6.130" y="1.505" width="2.100" height="2.100" rx="1.050" fill="#c79b5c"/><circle cx="-5.080" cy="2.555" r="0.700" fill="#12151c"/><rect x="-6.130" y="-3.535" width="2.100" height="2.100" rx="1.050" fill="#c79b5c"/><circle cx="-5.080" cy="-2.485" r="0.700" fill="#12151c"/><rect x="-11.210" y="1.505" width="2.100" height="2.100" rx="1.050" fill="#c79b5c"/><circle cx="-10.160" cy="2.555" r="0.700" fill="#12151c"/><rect x="-11.210" y="-3.535" width="2.100" height="2.100" rx="1.050" fill="#c79b5c"/><circle cx="-10.160" cy="-2.485" r="0.700" fill="#12151c"/><rect x="-16.290" y="1.505" width="2.100" height="2.100" rx="1.050" fill="#c79b5c"/><circle cx="-15.240" cy="2.555" r="0.700" fill="#12151c"/><rect x="-16.290" y="-3.535" width="2.100" height="2.100" rx="1.050" fill="#c79b5c"/><circle cx="-15.240" cy="-2.485" r="0.700" fill="#12151c"/><rect x="-21.370" y="1.505" width="2.100" height="2.100" rx="1.050" fill="#c79b5c"/><circle cx="-20.320" cy="2.555" r="0.700" fill="#12151c"/><rect x="-21.370" y="-3.535" width="2.100" height="2.100" rx="1.050" fill="#c79b5c"/><circle cx="-20.320" cy="-2.485" r="0.700" fill="#12151c"/></svg>