<svg xmlns="http://www.w3.org/2000/svg" viewBox="-6.58 -1.50 38.56 76.66" preserveAspectRatio="xMidYMid meet" style="width:100%;height:100%"><rect x="-6.58" y="-1.50" width="38.56" height="76.66" fill="#12151c"/><rect x="0.000" y="-0.000" width="25.400" height="73.660" fill="#1e222b" stroke="#4ea1ff" stroke-width="0.25"/><rect x="24.892" y="69.850" width="0.508" height="2.540" fill="#1e222b" stroke="#4ea1ff" stroke-width="0.25"/><polyline points="6.350,2.540 11.684,2.540" fill="none" stroke="#4ea1ff" stroke-width="0.25" stroke-linejoin="round"/><polyline points="6.350,5.080 11.684,5.080" fill="none" stroke="#4ea1ff" stroke-width="0.25" stroke-linejoin="round"/><polyline points="6.350,7.620 11.684,7.620" fill="none" stroke="#4ea1ff" stroke-width="0.25" stroke-linejoin="round"/><polyline points="6.350,10.160 11.684,10.160" fill="none" stroke="#4ea1ff" stroke-width="0.25" stroke-linejoin="round"/><polyline points="6.350,25.400 11.684,25.400" fill="none" stroke="#4ea1ff" stroke-width="0.25" stroke-linejoin="round"/><polyline points="6.350,27.940 11.684,27.940" fill="none" stroke="#4ea1ff" stroke-width="0.25" stroke-linejoin="round"/><polyline points="6.350,30.480 11.684,30.480" fill="none" stroke="#4ea1ff" stroke-width="0.25" stroke-linejoin="round"/><polyline points="6.350,33.020 11.684,33.020" fill="none" stroke="#4ea1ff" stroke-width="0.25" stroke-linejoin="round"/><polyline points="6.350,45.720 10.160,45.720" fill="none" stroke="#4ea1ff" stroke-width="0.25" stroke-linejoin="round"/><polyline points="7.620,20.320 7.620,10.160" fill="none" stroke="#4ea1ff" stroke-width="0.25" stroke-linejoin="round"/><polyline points="7.620,20.320 15.240,20.320" fill="none" stroke="#4ea1ff" stroke-width="0.25" stroke-linejoin="round"/><polyline points="7.620,43.180 7.620,33.020" fill="none" stroke="#4ea1ff" stroke-width="0.25" stroke-linejoin="round"/><polyline points="7.620,43.180 15.240,43.180" fill="none" stroke="#4ea1ff" stroke-width="0.25" stroke-linejoin="round"/><polyline points="8.636,17.780 8.636,7.620" fill="none" stroke="#4ea1ff" stroke-width="0.25" stroke-linejoin="round"/><polyline points="8.636,17.780 15.240,17.780" fill="none" stroke="#4ea1ff" stroke-width="0.25" stroke-linejoin="round"/><polyline points="8.636,40.640 8.636,30.480" fill="none" stroke="#4ea1ff" stroke-width="0.25" stroke-linejoin="round"/><polyline points="8.636,40.640 15.240,40.640" fill="none" stroke="#4ea1ff" stroke-width="0.25" stroke-linejoin="round"/><polyline points="9.652,15.240 9.652,5.080" fill="none" stroke="#4ea1ff" stroke-width="0.25" stroke-linejoin="round"/><polyline points="9.652,15.240 15.240,15.240" fill="none" stroke="#4ea1ff" stroke-width="0.25" stroke-linejoin="round"/><polyline points="9.652,38.100 9.652,27.940" fill="none" stroke="#4ea1ff" stroke-width="0.25" stroke-linejoin="round"/><polyline points="9.652,38.100 15.240,38.100" fill="none" stroke="#4ea1ff" stroke-width="0.25" stroke-linejoin="round"/><polyline points="10.160,44.958 10.160,46.482" fill="none" stroke="#4ea1ff" stroke-width="0.25" stroke-linejoin="round"/><polyline points="10.160,46.482 11.430,45.720" fill="none" stroke="#4ea1ff" stroke-width="0.25" stroke-linejoin="round"/><polyline points="10.668,12.700 10.668,2.540" fill="none" stroke="#4ea1ff" stroke-width="0.25" stroke-linejoin="round"/><polyline points="10.668,12.700 15.240,12.700" fill="none" stroke="#4ea1ff" stroke-width="0.25" stroke-linejoin="round"/><polyline points="10.668,35.560 10.668,25.400" fill="none" stroke="#4ea1ff" stroke-width="0.25" stroke-linejoin="round"/><polyline points="10.668,35.560 15.240,35.560" fill="none" stroke="#4ea1ff" stroke-width="0.25" stroke-linejoin="round"/><polyline points="11.430,45.720 10.160,44.958" fill="none" stroke="#4ea1ff" stroke-width="0.25" stroke-linejoin="round"/><polyline points="11.684,2.540 13.462,1.524" fill="none" stroke="#4ea1ff" stroke-width="0.25" stroke-linejoin="round"/><polyline points="11.684,5.080 13.462,4.064" fill="none" stroke="#4ea1ff" stroke-width="0.25" stroke-linejoin="round"/><polyline points="11.684,7.620 13.462,6.604" fill="none" stroke="#4ea1ff" stroke-width="0.25" stroke-linejoin="round"/><polyline points="11.684,10.160 13.462,9.144" fill="none" stroke="#4ea1ff" stroke-width="0.25" stroke-linejoin="round"/><polyline points="11.684,25.400 13.462,24.384" fill="none" stroke="#4ea1ff" stroke-width="0.25" stroke-linejoin="round"/><polyline points="11.684,27.940 13.462,26.924" fill="none" stroke="#4ea1ff" stroke-width="0.25" stroke-linejoin="round"/><polyline points="11.684,30.480 13.462,29.464" fill="none" stroke="#4ea1ff" stroke-width="0.25" stroke-linejoin="round"/><polyline points="11.684,33.020 13.462,32.004" fill="none" stroke="#4ea1ff" stroke-width="0.25" stroke-linejoin="round"/><polyline points="11.938,45.720 13.462,45.720" fill="none" stroke="#4ea1ff" stroke-width="0.25" stroke-linejoin="round"/><polyline points="12.700,2.032 12.700,45.720" fill="none" stroke="#4ea1ff" stroke-width="0.25" stroke-linejoin="round"/><polyline points="13.208,2.540 13.462,2.286" fill="none" stroke="#4ea1ff" stroke-width="0.25" stroke-linejoin="round"/><polyline points="13.208,5.080 13.462,4.826" fill="none" stroke="#4ea1ff" stroke-width="0.25" stroke-linejoin="round"/><polyline points="13.208,7.620 13.462,7.366" fill="none" stroke="#4ea1ff" stroke-width="0.25" stroke-linejoin="round"/><polyline points="13.208,10.160 13.462,9.906" fill="none" stroke="#4ea1ff" stroke-width="0.25" stroke-linejoin="round"/><polyline points="13.208,25.400 13.462,25.146" fill="none" stroke="#4ea1ff" stroke-width="0.25" stroke-linejoin="round"/><polyline points="13.208,27.940 13.462,27.686" fill="none" stroke="#4ea1ff" stroke-width="0.25" stroke-linejoin="round"/><polyline points="13.208,30.480 13.462,30.226" fill="none" stroke="#4ea1ff" stroke-width="0.25" stroke-linejoin="round"/><polyline points="13.208,33.020 13.462,32.766" fill="none" stroke="#4ea1ff" stroke-width="0.25" stroke-linejoin="round"/><polyline points="13.462,44.958 13.462,46.482" fill="none" stroke="#4ea1ff" stroke-width="0.25" stroke-linejoin="round"/><polyline points="13.462,46.482 14.732,45.720" fill="none" stroke="#4ea1ff" stroke-width="0.25" stroke-linejoin="round"/><polyline points="13.716,2.540 13.462,2.286" fill="none" stroke="#4ea1ff" stroke-width="0.25" stroke-linejoin="round"/><polyline points="13.716,5.080 13.462,4.826" fill="none" stroke="#4ea1ff" stroke-width="0.25" stroke-linejoin="round"/><polyline points="13.716,7.620 13.462,7.366" fill="none" stroke="#4ea1ff" stroke-width="0.25" stroke-linejoin="round"/><polyline points="13.716,10.160 13.462,9.906" fill="none" stroke="#4ea1ff" stroke-width="0.25" stroke-linejoin="round"/><polyline points="13.716,25.400 13.462,25.146" fill="none" stroke="#4ea1ff" stroke-width="0.25" stroke-linejoin="round"/><polyline points="13.716,27.940 13.462,27.686" fill="none" stroke="#4ea1ff" stroke-width="0.25" stroke-linejoin="round"/><polyline points="13.716,30.480 13.462,30.226" fill="none" stroke="#4ea1ff" stroke-width="0.25" stroke-linejoin="round"/><polyline points="13.716,33.020 13.462,32.766" fill="none" stroke="#4ea1ff" stroke-width="0.25" stroke-linejoin="round"/><polyline points="14.732,45.720 13.462,44.958" fill="none" stroke="#4ea1ff" stroke-width="0.25" stroke-linejoin="round"/><polyline points="15.240,12.700 17.018,11.684" fill="none" stroke="#4ea1ff" stroke-width="0.25" stroke-linejoin="round"/><polyline points="15.240,15.240 17.018,14.224" fill="none" stroke="#4ea1ff" stroke-width="0.25" stroke-linejoin="round"/><polyline points="15.240,17.780 17.018,16.764" fill="none" stroke="#4ea1ff" stroke-width="0.25" stroke-linejoin="round"/><polyline points="15.240,20.320 17.018,19.304" fill="none" stroke="#4ea1ff" stroke-width="0.25" stroke-linejoin="round"/><polyline points="15.240,35.560 17.018,34.544" fill="none" stroke="#4ea1ff" stroke-width="0.25" stroke-linejoin="round"/><polyline points="15.240,38.100 17.018,37.084" fill="none" stroke="#4ea1ff" stroke-width="0.25" stroke-linejoin="round"/><polyline points="15.240,40.640 17.018,39.624" fill="none" stroke="#4ea1ff" stroke-width="0.25" stroke-linejoin="round"/><polyline points="15.240,43.180 17.018,42.164" fill="none" stroke="#4ea1ff" stroke-width="0.25" stroke-linejoin="round"/><polyline points="15.240,45.720 16.002,45.720" fill="none" stroke="#4ea1ff" stroke-width="0.25" stroke-linejoin="round"/><polyline points="16.002,12.192 16.002,45.720" fill="none" stroke="#4ea1ff" stroke-width="0.25" stroke-linejoin="round"/><polyline points="16.764,12.700 17.018,12.446" fill="none" stroke="#4ea1ff" stroke-width="0.25" stroke-linejoin="round"/><polyline points="16.764,15.240 17.018,14.986" fill="none" stroke="#4ea1ff" stroke-width="0.25" stroke-linejoin="round"/><polyline points="16.764,17.780 17.018,17.526" fill="none" stroke="#4ea1ff" stroke-width="0.25" stroke-linejoin="round"/><polyline points="16.764,20.320 17.018,20.066" fill="none" stroke="#4ea1ff" stroke-width="0.25" stroke-linejoin="round"/><polyline points="16.764,35.560 17.018,35.306" fill="none" stroke="#4ea1ff" stroke-width="0.25" stroke-linejoin="round"/><polyline points="16.764,38.100 17.018,37.846" fill="none" stroke="#4ea1ff" stroke-width="0.25" stroke-linejoin="round"/><polyline points="16.764,40.640 17.018,40.386" fill="none" stroke="#4ea1ff" stroke-width="0.25" stroke-linejoin="round"/><polyline points="16.764,43.180 17.018,42.926" fill="none" stroke="#4ea1ff" stroke-width="0.25" stroke-linejoin="round"/><polyline points="17.272,12.700 17.018,12.446" fill="none" stroke="#4ea1ff" stroke-width="0.25" stroke-linejoin="round"/><polyline points="17.272,15.240 17.018,14.986" fill="none" stroke="#4ea1ff" stroke-width="0.25" stroke-linejoin="round"/><polyline points="17.272,17.780 17.018,17.526" fill="none" stroke="#4ea1ff" stroke-width="0.25" stroke-linejoin="round"/><polyline points="17.272,20.320 17.018,20.066" fill="none" stroke="#4ea1ff" stroke-width="0.25" stroke-linejoin="round"/><polyline points="17.272,35.560 17.018,35.306" fill="none" stroke="#4ea1ff" stroke-width="0.25" stroke-linejoin="round"/><polyline points="17.272,38.100 17.018,37.846" fill="none" stroke="#4ea1ff" stroke-width="0.25" stroke-linejoin="round"/><polyline points="17.272,40.640 17.018,40.386" fill="none" stroke="#4ea1ff" stroke-width="0.25" stroke-linejoin="round"/><polyline points="17.272,43.180 17.018,42.926" fill="none" stroke="#4ea1ff" stroke-width="0.25" stroke-linejoin="round"/><polyline points="19.050,2.540 13.208,2.540" fill="none" stroke="#4ea1ff" stroke-width="0.25" stroke-linejoin="round"/><polyline points="19.050,5.080 13.208,5.080" fill="none" stroke="#4ea1ff" stroke-width="0.25" stroke-linejoin="round"/><polyline points="19.050,7.620 13.208,7.620" fill="none" stroke="#4ea1ff" stroke-width="0.25" stroke-linejoin="round"/><polyline points="19.050,10.160 13.208,10.160" fill="none" stroke="#4ea1ff" stroke-width="0.25" stroke-linejoin="round"/><polyline points="19.050,12.700 16.764,12.700" fill="none" stroke="#4ea1ff" stroke-width="0.25" stroke-linejoin="round"/><polyline points="19.050,15.240 16.764,15.240" fill="none" stroke="#4ea1ff" stroke-width="0.25" stroke-linejoin="round"/><polyline points="19.050,17.780 16.764,17.780" fill="none" stroke="#4ea1ff" stroke-width="0.25" stroke-linejoin="round"/><polyline points="19.050,20.320 16.764,20.320" fill="none" stroke="#4ea1ff" stroke-width="0.25" stroke-linejoin="round"/><polyline points="19.050,25.400 13.208,25.400" fill="none" stroke="#4ea1ff" stroke-width="0.25" stroke-linejoin="round"/><polyline points="19.050,27.940 13.208,27.940" fill="none" stroke="#4ea1ff" stroke-width="0.25" stroke-linejoin="round"/><polyline points="19.050,30.480 13.208,30.480" fill="none" stroke="#4ea1ff" stroke-width="0.25" stroke-linejoin="round"/><polyline points="19.050,33.020 13.208,33.020" fill="none" stroke="#4ea1ff" stroke-width="0.25" stroke-linejoin="round"/><polyline points="19.050,35.560 16.764,35.560" fill="none" stroke="#4ea1ff" stroke-width="0.25" stroke-linejoin="round"/><polyline points="19.050,38.100 16.764,38.100" fill="none" stroke="#4ea1ff" stroke-width="0.25" stroke-linejoin="round"/><polyline points="19.050,40.640 16.764,40.640" fill="none" stroke="#4ea1ff" stroke-width="0.25" stroke-linejoin="round"/><polyline points="19.050,43.180 16.764,43.180" fill="none" stroke="#4ea1ff" stroke-width="0.25" stroke-linejoin="round"/><circle cx="7.620" cy="10.160" r="0.254" fill="none" stroke="#4ea1ff" stroke-width="0.25"/><circle cx="7.620" cy="33.020" r="0.254" fill="none" stroke="#4ea1ff" stroke-width="0.25"/><circle cx="8.636" cy="7.620" r="0.254" fill="none" stroke="#4ea1ff" stroke-width="0.25"/><circle cx="8.636" cy="30.480" r="0.254" fill="none" stroke="#4ea1ff" stroke-width="0.25"/><circle cx="9.652" cy="5.080" r="0.254" fill="none" stroke="#4ea1ff" stroke-width="0.25"/><circle cx="9.652" cy="27.940" r="0.254" fill="none" stroke="#4ea1ff" stroke-width="0.25"/><circle cx="10.668" cy="2.540" r="0.254" fill="none" stroke="#4ea1ff" stroke-width="0.25"/><circle cx="10.668" cy="25.400" r="0.254" fill="none" stroke="#4ea1ff" stroke-width="0.25"/><circle cx="11.684" cy="45.720" r="0.254" fill="none" stroke="#4ea1ff" stroke-width="0.25"/><circle cx="14.986" cy="45.720" r="0.254" fill="none" stroke="#4ea1ff" stroke-width="0.25"/><line x1="-5.080" y1="2.540" x2="0.000" y2="2.540" stroke="#e6e9ef" stroke-width="0.2"/><circle cx="-5.080" cy="2.540" r="0.4" fill="#4ea1ff"/><text x="0.500" y="2.890" fill="#e6e9ef" font-size="1.1" text-anchor="start" font-family="sans-serif">A0+</text><text x="-0.300" y="2.190" fill="#9aa3b2" font-size="0.9" text-anchor="end" font-family="sans-serif">2</text><line x1="-5.080" y1="5.080" x2="0.000" y2="5.080" stroke="#e6e9ef" stroke-width="0.2"/><circle cx="-5.080" cy="5.080" r="0.4" fill="#4ea1ff"/><text x="0.500" y="5.430" fill="#e6e9ef" font-size="1.1" text-anchor="start" font-family="sans-serif">A0-</text><text x="-0.300" y="4.730" fill="#9aa3b2" font-size="0.9" text-anchor="end" font-family="sans-serif">3</text><line x1="-5.080" y1="7.620" x2="0.000" y2="7.620" stroke="#e6e9ef" stroke-width="0.2"/><circle cx="-5.080" cy="7.620" r="0.4" fill="#4ea1ff"/><text x="0.500" y="7.970" fill="#e6e9ef" font-size="1.1" text-anchor="start" font-family="sans-serif">A1+</text><text x="-0.300" y="7.270" fill="#9aa3b2" font-size="0.9" text-anchor="end" font-family="sans-serif">6</text><line x1="-5.080" y1="10.160" x2="0.000" y2="10.160" stroke="#e6e9ef" stroke-width="0.2"/><circle cx="-5.080" cy="10.160" r="0.4" fill="#4ea1ff"/><text x="0.500" y="10.510" fill="#e6e9ef" font-size="1.1" text-anchor="start" font-family="sans-serif">A1-</text><text x="-0.300" y="9.810" fill="#9aa3b2" font-size="0.9" text-anchor="end" font-family="sans-serif">7</text><line x1="-5.080" y1="25.400" x2="0.000" y2="25.400" stroke="#e6e9ef" stroke-width="0.2"/><circle cx="-5.080" cy="25.400" r="0.4" fill="#4ea1ff"/><text x="0.500" y="25.750" fill="#e6e9ef" font-size="1.1" text-anchor="start" font-family="sans-serif">A2+</text><text x="-0.300" y="25.050" fill="#9aa3b2" font-size="0.9" text-anchor="end" font-family="sans-serif">11</text><line x1="-5.080" y1="27.940" x2="0.000" y2="27.940" stroke="#e6e9ef" stroke-width="0.2"/><circle cx="-5.080" cy="27.940" r="0.4" fill="#4ea1ff"/><text x="0.500" y="28.290" fill="#e6e9ef" font-size="1.1" text-anchor="start" font-family="sans-serif">A2-</text><text x="-0.300" y="27.590" fill="#9aa3b2" font-size="0.9" text-anchor="end" font-family="sans-serif">12</text><line x1="-5.080" y1="30.480" x2="0.000" y2="30.480" stroke="#e6e9ef" stroke-width="0.2"/><circle cx="-5.080" cy="30.480" r="0.4" fill="#4ea1ff"/><text x="0.500" y="30.830" fill="#e6e9ef" font-size="1.1" text-anchor="start" font-family="sans-serif">A3+</text><text x="-0.300" y="30.130" fill="#9aa3b2" font-size="0.9" text-anchor="end" font-family="sans-serif">15</text><line x1="-5.080" y1="33.020" x2="0.000" y2="33.020" stroke="#e6e9ef" stroke-width="0.2"/><circle cx="-5.080" cy="33.020" r="0.4" fill="#4ea1ff"/><text x="0.500" y="33.370" fill="#e6e9ef" font-size="1.1" text-anchor="start" font-family="sans-serif">A3-</text><text x="-0.300" y="32.670" fill="#9aa3b2" font-size="0.9" text-anchor="end" font-family="sans-serif">16</text><line x1="-5.080" y1="45.720" x2="0.000" y2="45.720" stroke="#e6e9ef" stroke-width="0.2"/><circle cx="-5.080" cy="45.720" r="0.4" fill="#4ea1ff"/><text x="0.500" y="46.070" fill="#e6e9ef" font-size="1.1" text-anchor="start" font-family="sans-serif">SEL</text><text x="-0.300" y="45.370" fill="#9aa3b2" font-size="0.9" text-anchor="end" font-family="sans-serif">9</text><line x1="-5.080" y1="53.340" x2="0.000" y2="53.340" stroke="#e6e9ef" stroke-width="0.2"/><circle cx="-5.080" cy="53.340" r="0.4" fill="#4ea1ff"/><text x="0.500" y="53.690" fill="#e6e9ef" font-size="1.1" text-anchor="start" font-family="sans-serif">VDD</text><text x="-0.300" y="52.990" fill="#9aa3b2" font-size="0.9" text-anchor="end" font-family="sans-serif">5</text><line x1="-5.080" y1="55.880" x2="0.000" y2="55.880" stroke="#e6e9ef" stroke-width="0.2"/><circle cx="-5.080" cy="55.880" r="0.4" fill="#4ea1ff"/><text x="0.500" y="56.230" fill="#e6e9ef" font-size="1.1" text-anchor="start" font-family="sans-serif">VDD</text><text x="-0.300" y="55.530" fill="#9aa3b2" font-size="0.9" text-anchor="end" font-family="sans-serif">8</text><line x1="-5.080" y1="58.420" x2="0.000" y2="58.420" stroke="#e6e9ef" stroke-width="0.2"/><circle cx="-5.080" cy="58.420" r="0.4" fill="#4ea1ff"/><text x="0.500" y="58.770" fill="#e6e9ef" font-size="1.1" text-anchor="start" font-family="sans-serif">VDD</text><text x="-0.300" y="58.070" fill="#9aa3b2" font-size="0.9" text-anchor="end" font-family="sans-serif">13</text><line x1="-5.080" y1="60.960" x2="0.000" y2="60.960" stroke="#e6e9ef" stroke-width="0.2"/><circle cx="-5.080" cy="60.960" r="0.4" fill="#4ea1ff"/><text x="0.500" y="61.310" fill="#e6e9ef" font-size="1.1" text-anchor="start" font-family="sans-serif">VDD</text><text x="-0.300" y="60.610" fill="#9aa3b2" font-size="0.9" text-anchor="end" font-family="sans-serif">18</text><line x1="-5.080" y1="63.500" x2="0.000" y2="63.500" stroke="#e6e9ef" stroke-width="0.2"/><circle cx="-5.080" cy="63.500" r="0.4" fill="#4ea1ff"/><text x="0.500" y="63.850" fill="#e6e9ef" font-size="1.1" text-anchor="start" font-family="sans-serif">VDD</text><text x="-0.300" y="63.150" fill="#9aa3b2" font-size="0.9" text-anchor="end" font-family="sans-serif">20</text><line x1="-5.080" y1="66.040" x2="0.000" y2="66.040" stroke="#e6e9ef" stroke-width="0.2"/><circle cx="-5.080" cy="66.040" r="0.4" fill="#4ea1ff"/><text x="0.500" y="66.390" fill="#e6e9ef" font-size="1.1" text-anchor="start" font-family="sans-serif">VDD</text><text x="-0.300" y="65.690" fill="#9aa3b2" font-size="0.9" text-anchor="end" font-family="sans-serif">30</text><line x1="-5.080" y1="68.580" x2="0.000" y2="68.580" stroke="#e6e9ef" stroke-width="0.2"/><circle cx="-5.080" cy="68.580" r="0.4" fill="#4ea1ff"/><text x="0.500" y="68.930" fill="#e6e9ef" font-size="1.1" text-anchor="start" font-family="sans-serif">VDD</text><text x="-0.300" y="68.230" fill="#9aa3b2" font-size="0.9" text-anchor="end" font-family="sans-serif">40</text><line x1="-5.080" y1="71.120" x2="0.000" y2="71.120" stroke="#e6e9ef" stroke-width="0.2"/><circle cx="-5.080" cy="71.120" r="0.4" fill="#4ea1ff"/><text x="0.500" y="71.470" fill="#e6e9ef" font-size="1.1" text-anchor="start" font-family="sans-serif">VDD</text><text x="-0.300" y="70.770" fill="#9aa3b2" font-size="0.9" text-anchor="end" font-family="sans-serif">42</text><line x1="30.480" y1="2.540" x2="25.400" y2="2.540" stroke="#e6e9ef" stroke-width="0.2"/><circle cx="30.480" cy="2.540" r="0.4" fill="#4ea1ff"/><text x="24.900" y="2.890" fill="#e6e9ef" font-size="1.1" text-anchor="end" font-family="sans-serif">B0+</text><text x="25.700" y="2.190" fill="#9aa3b2" font-size="0.9" text-anchor="start" font-family="sans-serif">38</text><line x1="30.480" y1="5.080" x2="25.400" y2="5.080" stroke="#e6e9ef" stroke-width="0.2"/><circle cx="30.480" cy="5.080" r="0.4" fill="#4ea1ff"/><text x="24.900" y="5.430" fill="#e6e9ef" font-size="1.1" text-anchor="end" font-family="sans-serif">B0-</text><text x="25.700" y="4.730" fill="#9aa3b2" font-size="0.9" text-anchor="start" font-family="sans-serif">37</text><line x1="30.480" y1="7.620" x2="25.400" y2="7.620" stroke="#e6e9ef" stroke-width="0.2"/><circle cx="30.480" cy="7.620" r="0.4" fill="#4ea1ff"/><text x="24.900" y="7.970" fill="#e6e9ef" font-size="1.1" text-anchor="end" font-family="sans-serif">B1+</text><text x="25.700" y="7.270" fill="#9aa3b2" font-size="0.9" text-anchor="start" font-family="sans-serif">36</text><line x1="30.480" y1="10.160" x2="25.400" y2="10.160" stroke="#e6e9ef" stroke-width="0.2"/><circle cx="30.480" cy="10.160" r="0.4" fill="#4ea1ff"/><text x="24.900" y="10.510" fill="#e6e9ef" font-size="1.1" text-anchor="end" font-family="sans-serif">B1-</text><text x="25.700" y="9.810" fill="#9aa3b2" font-size="0.9" text-anchor="start" font-family="sans-serif">35</text><line x1="30.480" y1="12.700" x2="25.400" y2="12.700" stroke="#e6e9ef" stroke-width="0.2"/><circle cx="30.480" cy="12.700" r="0.4" fill="#4ea1ff"/><text x="24.900" y="13.050" fill="#e6e9ef" font-size="1.1" text-anchor="end" font-family="sans-serif">C0+</text><text x="25.700" y="12.350" fill="#9aa3b2" font-size="0.9" text-anchor="start" font-family="sans-serif">34</text><line x1="30.480" y1="15.240" x2="25.400" y2="15.240" stroke="#e6e9ef" stroke-width="0.2"/><circle cx="30.480" cy="15.240" r="0.4" fill="#4ea1ff"/><text x="24.900" y="15.590" fill="#e6e9ef" font-size="1.1" text-anchor="end" font-family="sans-serif">C0-</text><text x="25.700" y="14.890" fill="#9aa3b2" font-size="0.9" text-anchor="start" font-family="sans-serif">33</text><line x1="30.480" y1="17.780" x2="25.400" y2="17.780" stroke="#e6e9ef" stroke-width="0.2"/><circle cx="30.480" cy="17.780" r="0.4" fill="#4ea1ff"/><text x="24.900" y="18.130" fill="#e6e9ef" font-size="1.1" text-anchor="end" font-family="sans-serif">C1+</text><text x="25.700" y="17.430" fill="#9aa3b2" font-size="0.9" text-anchor="start" font-family="sans-serif">32</text><line x1="30.480" y1="20.320" x2="25.400" y2="20.320" stroke="#e6e9ef" stroke-width="0.2"/><circle cx="30.480" cy="20.320" r="0.4" fill="#4ea1ff"/><text x="24.900" y="20.670" fill="#e6e9ef" font-size="1.1" text-anchor="end" font-family="sans-serif">C1-</text><text x="25.700" y="19.970" fill="#9aa3b2" font-size="0.9" text-anchor="start" font-family="sans-serif">31</text><line x1="30.480" y1="25.400" x2="25.400" y2="25.400" stroke="#e6e9ef" stroke-width="0.2"/><circle cx="30.480" cy="25.400" r="0.4" fill="#4ea1ff"/><text x="24.900" y="25.750" fill="#e6e9ef" font-size="1.1" text-anchor="end" font-family="sans-serif">B2+</text><text x="25.700" y="25.050" fill="#9aa3b2" font-size="0.9" text-anchor="start" font-family="sans-serif">29</text><line x1="30.480" y1="27.940" x2="25.400" y2="27.940" stroke="#e6e9ef" stroke-width="0.2"/><circle cx="30.480" cy="27.940" r="0.4" fill="#4ea1ff"/><text x="24.900" y="28.290" fill="#e6e9ef" font-size="1.1" text-anchor="end" font-family="sans-serif">B2-</text><text x="25.700" y="27.590" fill="#9aa3b2" font-size="0.9" text-anchor="start" font-family="sans-serif">28</text><line x1="30.480" y1="30.480" x2="25.400" y2="30.480" stroke="#e6e9ef" stroke-width="0.2"/><circle cx="30.480" cy="30.480" r="0.4" fill="#4ea1ff"/><text x="24.900" y="30.830" fill="#e6e9ef" font-size="1.1" text-anchor="end" font-family="sans-serif">B3+</text><text x="25.700" y="30.130" fill="#9aa3b2" font-size="0.9" text-anchor="start" font-family="sans-serif">27</text><line x1="30.480" y1="33.020" x2="25.400" y2="33.020" stroke="#e6e9ef" stroke-width="0.2"/><circle cx="30.480" cy="33.020" r="0.4" fill="#4ea1ff"/><text x="24.900" y="33.370" fill="#e6e9ef" font-size="1.1" text-anchor="end" font-family="sans-serif">B3-</text><text x="25.700" y="32.670" fill="#9aa3b2" font-size="0.9" text-anchor="start" font-family="sans-serif">26</text><line x1="30.480" y1="35.560" x2="25.400" y2="35.560" stroke="#e6e9ef" stroke-width="0.2"/><circle cx="30.480" cy="35.560" r="0.4" fill="#4ea1ff"/><text x="24.900" y="35.910" fill="#e6e9ef" font-size="1.1" text-anchor="end" font-family="sans-serif">C2+</text><text x="25.700" y="35.210" fill="#9aa3b2" font-size="0.9" text-anchor="start" font-family="sans-serif">25</text><line x1="30.480" y1="38.100" x2="25.400" y2="38.100" stroke="#e6e9ef" stroke-width="0.2"/><circle cx="30.480" cy="38.100" r="0.4" fill="#4ea1ff"/><text x="24.900" y="38.450" fill="#e6e9ef" font-size="1.1" text-anchor="end" font-family="sans-serif">C2-</text><text x="25.700" y="37.750" fill="#9aa3b2" font-size="0.9" text-anchor="start" font-family="sans-serif">24</text><line x1="30.480" y1="40.640" x2="25.400" y2="40.640" stroke="#e6e9ef" stroke-width="0.2"/><circle cx="30.480" cy="40.640" r="0.4" fill="#4ea1ff"/><text x="24.900" y="40.990" fill="#e6e9ef" font-size="1.1" text-anchor="end" font-family="sans-serif">C3+</text><text x="25.700" y="40.290" fill="#9aa3b2" font-size="0.9" text-anchor="start" font-family="sans-serif">23</text><line x1="30.480" y1="43.180" x2="25.400" y2="43.180" stroke="#e6e9ef" stroke-width="0.2"/><circle cx="30.480" cy="43.180" r="0.4" fill="#4ea1ff"/><text x="24.900" y="43.530" fill="#e6e9ef" font-size="1.1" text-anchor="end" font-family="sans-serif">C3-</text><text x="25.700" y="42.830" fill="#9aa3b2" font-size="0.9" text-anchor="start" font-family="sans-serif">22</text><line x1="30.480" y1="48.260" x2="25.400" y2="48.260" stroke="#e6e9ef" stroke-width="0.2"/><circle cx="30.480" cy="48.260" r="0.4" fill="#4ea1ff"/><text x="24.900" y="48.610" fill="#e6e9ef" font-size="1.1" text-anchor="end" font-family="sans-serif">GND</text><text x="25.700" y="47.910" fill="#9aa3b2" font-size="0.9" text-anchor="start" font-family="sans-serif">1</text><line x1="30.480" y1="50.800" x2="25.400" y2="50.800" stroke="#e6e9ef" stroke-width="0.2"/><circle cx="30.480" cy="50.800" r="0.4" fill="#4ea1ff"/><text x="24.900" y="51.150" fill="#e6e9ef" font-size="1.1" text-anchor="end" font-family="sans-serif">GND</text><text x="25.700" y="50.450" fill="#9aa3b2" font-size="0.9" text-anchor="start" font-family="sans-serif">4</text><line x1="30.480" y1="53.340" x2="25.400" y2="53.340" stroke="#e6e9ef" stroke-width="0.2"/><circle cx="30.480" cy="53.340" r="0.4" fill="#4ea1ff"/><text x="24.900" y="53.690" fill="#e6e9ef" font-size="1.1" text-anchor="end" font-family="sans-serif">GND</text><text x="25.700" y="52.990" fill="#9aa3b2" font-size="0.9" text-anchor="start" font-family="sans-serif">10</text><line x1="30.480" y1="55.880" x2="25.400" y2="55.880" stroke="#e6e9ef" stroke-width="0.2"/><circle cx="30.480" cy="55.880" r="0.4" fill="#4ea1ff"/><text x="24.900" y="56.230" fill="#e6e9ef" font-size="1.1" text-anchor="end" font-family="sans-serif">GND</text><text x="25.700" y="55.530" fill="#9aa3b2" font-size="0.9" text-anchor="start" font-family="sans-serif">14</text><line x1="30.480" y1="58.420" x2="25.400" y2="58.420" stroke="#e6e9ef" stroke-width="0.2"/><circle cx="30.480" cy="58.420" r="0.4" fill="#4ea1ff"/><text x="24.900" y="58.770" fill="#e6e9ef" font-size="1.1" text-anchor="end" font-family="sans-serif">GND</text><text x="25.700" y="58.070" fill="#9aa3b2" font-size="0.9" text-anchor="start" font-family="sans-serif">17</text><line x1="30.480" y1="60.960" x2="25.400" y2="60.960" stroke="#e6e9ef" stroke-width="0.2"/><circle cx="30.480" cy="60.960" r="0.4" fill="#4ea1ff"/><text x="24.900" y="61.310" fill="#e6e9ef" font-size="1.1" text-anchor="end" font-family="sans-serif">GND</text><text x="25.700" y="60.610" fill="#9aa3b2" font-size="0.9" text-anchor="start" font-family="sans-serif">19</text><line x1="30.480" y1="63.500" x2="25.400" y2="63.500" stroke="#e6e9ef" stroke-width="0.2"/><circle cx="30.480" cy="63.500" r="0.4" fill="#4ea1ff"/><text x="24.900" y="63.850" fill="#e6e9ef" font-size="1.1" text-anchor="end" font-family="sans-serif">GND</text><text x="25.700" y="63.150" fill="#9aa3b2" font-size="0.9" text-anchor="start" font-family="sans-serif">21</text><line x1="30.480" y1="66.040" x2="25.400" y2="66.040" stroke="#e6e9ef" stroke-width="0.2"/><circle cx="30.480" cy="66.040" r="0.4" fill="#4ea1ff"/><text x="24.900" y="66.390" fill="#e6e9ef" font-size="1.1" text-anchor="end" font-family="sans-serif">GND</text><text x="25.700" y="65.690" fill="#9aa3b2" font-size="0.9" text-anchor="start" font-family="sans-serif">39</text><line x1="30.480" y1="68.580" x2="25.400" y2="68.580" stroke="#e6e9ef" stroke-width="0.2"/><circle cx="30.480" cy="68.580" r="0.4" fill="#4ea1ff"/><text x="24.900" y="68.930" fill="#e6e9ef" font-size="1.1" text-anchor="end" font-family="sans-serif">GND</text><text x="25.700" y="68.230" fill="#9aa3b2" font-size="0.9" text-anchor="start" font-family="sans-serif">41</text><line x1="30.480" y1="71.120" x2="25.400" y2="71.120" stroke="#e6e9ef" stroke-width="0.2"/><circle cx="30.480" cy="71.120" r="0.4" fill="#4ea1ff"/><text x="24.900" y="71.470" fill="#e6e9ef" font-size="1.1" text-anchor="end" font-family="sans-serif">GND</text><text x="25.700" y="70.770" fill="#9aa3b2" font-size="0.9" text-anchor="start" font-family="sans-serif">43</text></svg>