<svg xmlns="http://www.w3.org/2000/svg" viewBox="-9.20 -6.55 18.60 13.10" preserveAspectRatio="xMidYMid meet" style="width:100%;height:100%"><rect x="-9.20" y="-6.55" width="18.60" height="13.10" fill="#12151c"/><line x1="-4.500" y1="-2.966" x2="-3.350" y2="-2.966" stroke="#e6e9ef" stroke-width="0.200" stroke-linecap="round" opacity="1"/><line x1="-4.500" y1="-2.116" x2="-3.350" y2="-2.116" stroke="#e6e9ef" stroke-width="0.200" stroke-linecap="round" opacity="1"/><line x1="-4.500" y1="-0.496" x2="-3.350" y2="-0.496" stroke="#e6e9ef" stroke-width="0.200" stroke-linecap="round" opacity="1"/><line x1="-4.500" y1="0.494" x2="-4.500" y2="-0.496" stroke="#e6e9ef" stroke-width="0.200" stroke-linecap="round" opacity="1"/><line x1="-4.500" y1="0.494" x2="-3.350" y2="0.494" stroke="#e6e9ef" stroke-width="0.200" stroke-linecap="round" opacity="1"/><line x1="-4.500" y1="2.114" x2="-3.350" y2="2.114" stroke="#e6e9ef" stroke-width="0.200" stroke-linecap="round" opacity="1"/><line x1="-4.500" y1="2.964" x2="-3.350" y2="2.964" stroke="#e6e9ef" stroke-width="0.200" stroke-linecap="round" opacity="1"/><line x1="-3.350" y1="-5.001" x2="-0.650" y2="-5.001" stroke="#e6e9ef" stroke-width="0.200" stroke-linecap="round" opacity="1"/><line x1="-3.350" y1="4.999" x2="-3.350" y2="-5.001" stroke="#e6e9ef" stroke-width="0.200" stroke-linecap="round" opacity="1"/><line x1="-3.350" y1="4.999" x2="-0.650" y2="4.999" stroke="#e6e9ef" stroke-width="0.200" stroke-linecap="round" opacity="1"/><line x1="-3.042" y1="4.999" x2="-3.042" y2="-5.001" stroke="#e6e9ef" stroke-width="0.200" stroke-linecap="round" opacity="1"/><line x1="-7.950" y1="-3.190" x2="-6.400" y2="-2.540" stroke="#4a5160" stroke-width="0.080" stroke-linecap="round" opacity="0.7"/><line x1="-7.950" y1="-3.190" x2="-4.850" y2="-3.190" stroke="#4a5160" stroke-width="0.080" stroke-linecap="round" opacity="0.7"/><line x1="-7.950" y1="-1.890" x2="-7.950" y2="-3.190" stroke="#4a5160" stroke-width="0.080" stroke-linecap="round" opacity="0.7"/><line x1="-7.950" y1="-1.890" x2="-6.400" y2="-2.540" stroke="#4a5160" stroke-width="0.080" stroke-linecap="round" opacity="0.7"/><line x1="-7.950" y1="-1.890" x2="-4.850" y2="-1.890" stroke="#4a5160" stroke-width="0.080" stroke-linecap="round" opacity="0.7"/><line x1="-7.950" y1="1.890" x2="-6.400" y2="2.540" stroke="#4a5160" stroke-width="0.080" stroke-linecap="round" opacity="0.7"/><line x1="-7.950" y1="1.890" x2="-4.850" y2="1.890" stroke="#4a5160" stroke-width="0.080" stroke-linecap="round" opacity="0.7"/><line x1="-7.950" y1="3.190" x2="-7.950" y2="1.890" stroke="#4a5160" stroke-width="0.080" stroke-linecap="round" opacity="0.7"/><line x1="-7.950" y1="3.190" x2="-6.400" y2="2.540" stroke="#4a5160" stroke-width="0.080" stroke-linecap="round" opacity="0.7"/><line x1="-7.950" y1="3.190" x2="-4.850" y2="3.190" stroke="#4a5160" stroke-width="0.080" stroke-linecap="round" opacity="0.7"/><line x1="-4.850" y1="-1.890" x2="-4.850" y2="-3.190" stroke="#4a5160" stroke-width="0.080" stroke-linecap="round" opacity="0.7"/><line x1="-4.850" y1="3.190" x2="-4.850" y2="1.890" stroke="#4a5160" stroke-width="0.080" stroke-linecap="round" opacity="0.7"/><line x1="-0.500" y1="0.000" x2="0.000" y2="0.000" stroke="#4a5160" stroke-width="0.080" stroke-linecap="round" opacity="0.7"/><line x1="-0.300" y1="-5.300" x2="8.150" y2="-5.300" stroke="#4a5160" stroke-width="0.080" stroke-linecap="round" opacity="0.7"/><line x1="-0.300" y1="5.300" x2="-0.300" y2="-5.300" stroke="#4a5160" stroke-width="0.080" stroke-linecap="round" opacity="0.7"/><line x1="-0.300" y1="5.300" x2="8.150" y2="5.300" stroke="#4a5160" stroke-width="0.080" stroke-linecap="round" opacity="0.7"/><line x1="0.000" y1="0.000" x2="0.000" y2="-0.500" stroke="#4a5160" stroke-width="0.080" stroke-linecap="round" opacity="0.7"/><line x1="0.000" y1="0.000" x2="0.500" y2="0.000" stroke="#4a5160" stroke-width="0.080" stroke-linecap="round" opacity="0.7"/><line x1="0.000" y1="0.500" x2="0.000" y2="0.000" stroke="#4a5160" stroke-width="0.080" stroke-linecap="round" opacity="0.7"/><line x1="3.925" y1="0.000" x2="8.150" y2="-5.300" stroke="#4a5160" stroke-width="0.080" stroke-linecap="round" opacity="0.7"/><line x1="3.925" y1="0.000" x2="8.150" y2="5.300" stroke="#4a5160" stroke-width="0.080" stroke-linecap="round" opacity="0.7"/><line x1="8.150" y1="5.300" x2="8.150" y2="-5.300" stroke="#4a5160" stroke-width="0.080" stroke-linecap="round" opacity="0.7"/><line x1="-8.200" y1="-5.550" x2="8.400" y2="-5.550" stroke="#d24d4d" stroke-width="0.080" stroke-linecap="round" opacity="0.7"/><line x1="-8.200" y1="5.550" x2="-8.200" y2="-5.550" stroke="#d24d4d" stroke-width="0.080" stroke-linecap="round" opacity="0.7"/><line x1="-8.200" y1="5.550" x2="8.400" y2="5.550" stroke="#d24d4d" stroke-width="0.080" stroke-linecap="round" opacity="0.7"/><line x1="8.400" y1="5.550" x2="8.400" y2="-5.550" stroke="#d24d4d" stroke-width="0.080" stroke-linecap="round" opacity="0.7"/><line x1="-7.650" y1="-2.966" x2="-3.350" y2="-2.966" stroke="#6b7280" stroke-width="0.100" stroke-linecap="round" opacity="0.8"/><line x1="-7.650" y1="-2.116" x2="-7.650" y2="-2.966" stroke="#6b7280" stroke-width="0.100" stroke-linecap="round" opacity="0.8"/><line x1="-7.650" y1="-2.116" x2="-3.350" y2="-2.116" stroke="#6b7280" stroke-width="0.100" stroke-linecap="round" opacity="0.8"/><line x1="-7.650" y1="2.114" x2="-3.350" y2="2.114" stroke="#6b7280" stroke-width="0.100" stroke-linecap="round" opacity="0.8"/><line x1="-7.650" y1="2.964" x2="-7.650" y2="2.114" stroke="#6b7280" stroke-width="0.100" stroke-linecap="round" opacity="0.8"/><line x1="-7.650" y1="2.964" x2="-3.350" y2="2.964" stroke="#6b7280" stroke-width="0.100" stroke-linecap="round" opacity="0.8"/><line x1="-4.500" y1="-0.496" x2="-3.350" y2="-0.496" stroke="#6b7280" stroke-width="0.100" stroke-linecap="round" opacity="0.8"/><line x1="-4.500" y1="0.494" x2="-4.500" y2="-0.496" stroke="#6b7280" stroke-width="0.100" stroke-linecap="round" opacity="0.8"/><line x1="-4.500" y1="0.494" x2="-3.350" y2="0.494" stroke="#6b7280" stroke-width="0.100" stroke-linecap="round" opacity="0.8"/><line x1="-3.350" y1="-5.001" x2="7.374" y2="-5.001" stroke="#6b7280" stroke-width="0.100" stroke-linecap="round" opacity="0.8"/><line x1="-3.350" y1="4.999" x2="-3.350" y2="-5.001" stroke="#6b7280" stroke-width="0.100" stroke-linecap="round" opacity="0.8"/><line x1="-3.350" y1="4.999" x2="7.374" y2="4.999" stroke="#6b7280" stroke-width="0.100" stroke-linecap="round" opacity="0.8"/><line x1="-3.042" y1="4.999" x2="-3.042" y2="-5.001" stroke="#6b7280" stroke-width="0.100" stroke-linecap="round" opacity="0.8"/><line x1="5.689" y1="4.999" x2="5.689" y2="-5.001" stroke="#6b7280" stroke-width="0.100" stroke-linecap="round" opacity="0.8"/><line x1="6.250" y1="4.999" x2="6.250" y2="-5.001" stroke="#6b7280" stroke-width="0.100" stroke-linecap="round" opacity="0.8"/><line x1="7.374" y1="-5.001" x2="7.650" y2="-4.243" stroke="#6b7280" stroke-width="0.100" stroke-linecap="round" opacity="0.8"/><line x1="7.374" y1="4.999" x2="7.650" y2="4.240" stroke="#6b7280" stroke-width="0.100" stroke-linecap="round" opacity="0.8"/><line x1="7.650" y1="4.240" x2="7.650" y2="-4.243" stroke="#6b7280" stroke-width="0.100" stroke-linecap="round" opacity="0.8"/><circle cx="-7.600" cy="-3.700" r="0.150" fill="#e6e9ef" opacity="1"/><rect x="-7.950" y="-3.190" width="3.100" height="1.300" rx="0.000" fill="#c79b5c"/><rect x="-7.950" y="1.890" width="3.100" height="1.300" rx="0.000" fill="#c79b5c"/><rect x="-0.300" y="-5.300" width="8.450" height="10.600" rx="0.000" fill="#c79b5c"/></svg>