<svg xmlns="http://www.w3.org/2000/svg" viewBox="-3.25 -2.65 6.50 5.30" preserveAspectRatio="xMidYMid meet" style="width:100%;height:100%"><rect x="-3.25" y="-2.65" width="6.50" height="5.30" fill="#12151c"/><line x1="-2.000" y1="-1.250" x2="-1.500" y2="0.000" stroke="#4a5160" stroke-width="0.080" stroke-linecap="round" opacity="0.7"/><line x1="-2.000" y1="-1.250" x2="-1.000" y2="-1.250" stroke="#4a5160" stroke-width="0.080" stroke-linecap="round" opacity="0.7"/><line x1="-2.000" y1="1.250" x2="-2.000" y2="-1.250" stroke="#4a5160" stroke-width="0.080" stroke-linecap="round" opacity="0.7"/><line x1="-2.000" y1="1.250" x2="-1.500" y2="0.000" stroke="#4a5160" stroke-width="0.080" stroke-linecap="round" opacity="0.7"/><line x1="-2.000" y1="1.250" x2="-1.000" y2="1.250" stroke="#4a5160" stroke-width="0.080" stroke-linecap="round" opacity="0.7"/><line x1="-1.000" y1="1.250" x2="-1.000" y2="-1.250" stroke="#4a5160" stroke-width="0.080" stroke-linecap="round" opacity="0.7"/><line x1="-0.800" y1="-1.400" x2="0.800" y2="-1.400" stroke="#4a5160" stroke-width="0.080" stroke-linecap="round" opacity="0.7"/><line x1="-0.800" y1="1.400" x2="-0.800" y2="-1.400" stroke="#4a5160" stroke-width="0.080" stroke-linecap="round" opacity="0.7"/><line x1="-0.800" y1="1.400" x2="0.800" y2="1.400" stroke="#4a5160" stroke-width="0.080" stroke-linecap="round" opacity="0.7"/><line x1="-0.500" y1="0.000" x2="0.000" y2="0.000" stroke="#4a5160" stroke-width="0.080" stroke-linecap="round" opacity="0.7"/><line x1="0.000" y1="0.000" x2="0.000" y2="-0.500" stroke="#4a5160" stroke-width="0.080" stroke-linecap="round" opacity="0.7"/><line x1="0.000" y1="0.000" x2="0.500" y2="0.000" stroke="#4a5160" stroke-width="0.080" stroke-linecap="round" opacity="0.7"/><line x1="0.000" y1="0.500" x2="0.000" y2="0.000" stroke="#4a5160" stroke-width="0.080" stroke-linecap="round" opacity="0.7"/><line x1="0.800" y1="1.400" x2="0.800" y2="-1.400" stroke="#4a5160" stroke-width="0.080" stroke-linecap="round" opacity="0.7"/><line x1="1.000" y1="-1.250" x2="2.000" y2="-1.250" stroke="#4a5160" stroke-width="0.080" stroke-linecap="round" opacity="0.7"/><line x1="1.000" y1="1.250" x2="1.000" y2="-1.250" stroke="#4a5160" stroke-width="0.080" stroke-linecap="round" opacity="0.7"/><line x1="1.000" y1="1.250" x2="2.000" y2="1.250" stroke="#4a5160" stroke-width="0.080" stroke-linecap="round" opacity="0.7"/><line x1="1.500" y1="0.000" x2="2.000" y2="-1.250" stroke="#4a5160" stroke-width="0.080" stroke-linecap="round" opacity="0.7"/><line x1="1.500" y1="0.000" x2="2.000" y2="1.250" stroke="#4a5160" stroke-width="0.080" stroke-linecap="round" opacity="0.7"/><line x1="2.000" y1="1.250" x2="2.000" y2="-1.250" stroke="#4a5160" stroke-width="0.080" stroke-linecap="round" opacity="0.7"/><line x1="-2.250" y1="-1.650" x2="2.250" y2="-1.650" stroke="#d24d4d" stroke-width="0.080" stroke-linecap="round" opacity="0.7"/><line x1="-2.250" y1="1.650" x2="-2.250" y2="-1.650" stroke="#d24d4d" stroke-width="0.080" stroke-linecap="round" opacity="0.7"/><line x1="-2.250" y1="1.650" x2="2.250" y2="1.650" stroke="#d24d4d" stroke-width="0.080" stroke-linecap="round" opacity="0.7"/><line x1="-0.500" y1="-0.000" x2="0.500" y2="-0.000" stroke="#d24d4d" stroke-width="0.080" stroke-linecap="round" opacity="0.7"/><line x1="0.000" y1="0.500" x2="0.000" y2="-0.500" stroke="#d24d4d" stroke-width="0.080" stroke-linecap="round" opacity="0.7"/><line x1="2.250" y1="1.650" x2="2.250" y2="-1.650" stroke="#d24d4d" stroke-width="0.080" stroke-linecap="round" opacity="0.7"/><line x1="-1.715" y1="-1.400" x2="1.715" y2="-1.400" stroke="#6b7280" stroke-width="0.100" stroke-linecap="round" opacity="0.8"/><line x1="-1.715" y1="1.400" x2="-1.715" y2="-1.400" stroke="#6b7280" stroke-width="0.100" stroke-linecap="round" opacity="0.8"/><line x1="-1.715" y1="1.400" x2="1.715" y2="1.400" stroke="#6b7280" stroke-width="0.100" stroke-linecap="round" opacity="0.8"/><line x1="-0.965" y1="1.400" x2="-0.965" y2="-1.400" stroke="#6b7280" stroke-width="0.100" stroke-linecap="round" opacity="0.8"/><line x1="0.965" y1="1.400" x2="0.965" y2="-1.400" stroke="#6b7280" stroke-width="0.100" stroke-linecap="round" opacity="0.8"/><line x1="1.715" y1="1.400" x2="1.715" y2="-1.400" stroke="#6b7280" stroke-width="0.100" stroke-linecap="round" opacity="0.8"/><circle cx="0.000" cy="-0.000" r="0.350" fill="none" stroke="#d24d4d" stroke-width="0.12" opacity="0.7"/><rect x="-2.000" y="-1.250" width="1.000" height="2.500" rx="0.000" fill="#c79b5c"/><rect x="1.000" y="-1.250" width="1.000" height="2.500" rx="0.000" fill="#c79b5c"/><polygon points="-1.95,2.30 -1.05,2.30 -1.50,1.70" fill="#ffffff"/></svg>