<svg xmlns="http://www.w3.org/2000/svg" viewBox="-18.01 -7.95 36.02 15.90" preserveAspectRatio="xMidYMid meet" style="width:100%;height:100%"><rect x="-18.01" y="-7.95" width="36.02" height="15.90" fill="#12151c"/><line x1="-16.760" y1="-5.000" x2="-16.160" y2="-5.000" stroke="#e6e9ef" stroke-width="0.200" stroke-linecap="round" opacity="1"/><line x1="-16.760" y1="5.000" x2="-16.760" y2="-5.000" stroke="#e6e9ef" stroke-width="0.200" stroke-linecap="round" opacity="1"/><line x1="-16.760" y1="5.000" x2="-16.160" y2="5.000" stroke="#e6e9ef" stroke-width="0.200" stroke-linecap="round" opacity="1"/><line x1="-16.160" y1="-6.700" x2="16.160" y2="-6.700" stroke="#e6e9ef" stroke-width="0.200" stroke-linecap="round" opacity="1"/><line x1="-16.160" y1="-5.000" x2="-16.160" y2="-6.700" stroke="#e6e9ef" stroke-width="0.200" stroke-linecap="round" opacity="1"/><line x1="-16.160" y1="6.700" x2="-16.160" y2="5.000" stroke="#e6e9ef" stroke-width="0.200" stroke-linecap="round" opacity="1"/><line x1="-16.160" y1="6.700" x2="16.160" y2="6.700" stroke="#e6e9ef" stroke-width="0.200" stroke-linecap="round" opacity="1"/><line x1="-15.460" y1="-4.900" x2="-15.160" y2="-4.600" stroke="#e6e9ef" stroke-width="0.200" stroke-linecap="round" opacity="1"/><line x1="-15.460" y1="-4.900" x2="-11.710" y2="-4.900" stroke="#e6e9ef" stroke-width="0.200" stroke-linecap="round" opacity="1"/><line x1="-15.460" y1="3.600" x2="-15.460" y2="-4.900" stroke="#e6e9ef" stroke-width="0.200" stroke-linecap="round" opacity="1"/><line x1="-15.460" y1="3.600" x2="-15.160" y2="3.300" stroke="#e6e9ef" stroke-width="0.200" stroke-linecap="round" opacity="1"/><line x1="-15.460" y1="3.600" x2="-14.050" y2="3.600" stroke="#e6e9ef" stroke-width="0.200" stroke-linecap="round" opacity="1"/><line x1="-15.160" y1="-4.600" x2="-11.634" y2="-4.600" stroke="#e6e9ef" stroke-width="0.200" stroke-linecap="round" opacity="1"/><line x1="-15.160" y1="3.300" x2="-15.160" y2="-4.600" stroke="#e6e9ef" stroke-width="0.200" stroke-linecap="round" opacity="1"/><line x1="-15.160" y1="3.300" x2="-13.916" y2="3.300" stroke="#e6e9ef" stroke-width="0.200" stroke-linecap="round" opacity="1"/><line x1="-14.050" y1="3.600" x2="-13.916" y2="3.300" stroke="#e6e9ef" stroke-width="0.200" stroke-linecap="round" opacity="1"/><line x1="-11.964" y1="-5.203" x2="-11.724" y2="-4.918" stroke="#e6e9ef" stroke-width="0.200" stroke-linecap="round" opacity="1"/><line x1="-11.816" y1="-5.521" x2="-11.646" y2="-5.521" stroke="#e6e9ef" stroke-width="0.200" stroke-linecap="round" opacity="1"/><line x1="-11.678" y1="-4.600" x2="-11.678" y2="-4.769" stroke="#e6e9ef" stroke-width="0.200" stroke-linecap="round" opacity="1"/><line x1="-8.686" y1="-4.600" x2="-5.660" y2="-4.600" stroke="#e6e9ef" stroke-width="0.200" stroke-linecap="round" opacity="1"/><line x1="-8.674" y1="-5.521" x2="-8.504" y2="-5.521" stroke="#e6e9ef" stroke-width="0.200" stroke-linecap="round" opacity="1"/><line x1="-8.642" y1="-4.600" x2="-8.642" y2="-4.769" stroke="#e6e9ef" stroke-width="0.200" stroke-linecap="round" opacity="1"/><line x1="-8.610" y1="-4.900" x2="-5.360" y2="-4.900" stroke="#e6e9ef" stroke-width="0.200" stroke-linecap="round" opacity="1"/><line x1="-8.596" y1="-4.918" x2="-8.356" y2="-5.203" stroke="#e6e9ef" stroke-width="0.200" stroke-linecap="round" opacity="1"/><line x1="-6.404" y1="3.300" x2="-6.270" y2="3.600" stroke="#e6e9ef" stroke-width="0.200" stroke-linecap="round" opacity="1"/><line x1="-6.404" y1="3.300" x2="-5.660" y2="3.300" stroke="#e6e9ef" stroke-width="0.200" stroke-linecap="round" opacity="1"/><line x1="-6.270" y1="3.600" x2="-5.360" y2="3.599" stroke="#e6e9ef" stroke-width="0.200" stroke-linecap="round" opacity="1"/><line x1="-5.660" y1="-4.600" x2="-5.360" y2="-4.900" stroke="#e6e9ef" stroke-width="0.200" stroke-linecap="round" opacity="1"/><line x1="-5.660" y1="3.300" x2="-5.660" y2="-4.600" stroke="#e6e9ef" stroke-width="0.200" stroke-linecap="round" opacity="1"/><line x1="-5.660" y1="3.300" x2="-5.360" y2="3.599" stroke="#e6e9ef" stroke-width="0.200" stroke-linecap="round" opacity="1"/><line x1="-5.360" y1="3.599" x2="-5.360" y2="-4.900" stroke="#e6e9ef" stroke-width="0.200" stroke-linecap="round" opacity="1"/><line x1="-4.800" y1="-4.900" x2="-4.500" y2="-4.600" stroke="#e6e9ef" stroke-width="0.200" stroke-linecap="round" opacity="1"/><line x1="-4.800" y1="-4.900" x2="-1.550" y2="-4.900" stroke="#e6e9ef" stroke-width="0.200" stroke-linecap="round" opacity="1"/><line x1="-4.800" y1="3.600" x2="-4.800" y2="-4.900" stroke="#e6e9ef" stroke-width="0.200" stroke-linecap="round" opacity="1"/><line x1="-4.800" y1="3.600" x2="-4.500" y2="3.300" stroke="#e6e9ef" stroke-width="0.200" stroke-linecap="round" opacity="1"/><line x1="-4.800" y1="3.600" x2="-3.890" y2="3.600" stroke="#e6e9ef" stroke-width="0.200" stroke-linecap="round" opacity="1"/><line x1="-4.500" y1="3.300" x2="-3.756" y2="3.300" stroke="#e6e9ef" stroke-width="0.200" stroke-linecap="round" opacity="1"/><line x1="-4.500" y1="-4.600" x2="-1.474" y2="-4.600" stroke="#e6e9ef" stroke-width="0.200" stroke-linecap="round" opacity="1"/><line x1="-4.500" y1="3.300" x2="-4.500" y2="-4.600" stroke="#e6e9ef" stroke-width="0.200" stroke-linecap="round" opacity="1"/><line x1="-3.890" y1="3.600" x2="-3.756" y2="3.300" stroke="#e6e9ef" stroke-width="0.200" stroke-linecap="round" opacity="1"/><line x1="-1.804" y1="-5.203" x2="-1.564" y2="-4.918" stroke="#e6e9ef" stroke-width="0.200" stroke-linecap="round" opacity="1"/><line x1="-1.657" y1="-5.521" x2="-1.486" y2="-5.521" stroke="#e6e9ef" stroke-width="0.200" stroke-linecap="round" opacity="1"/><line x1="-1.518" y1="-4.600" x2="-1.518" y2="-4.769" stroke="#e6e9ef" stroke-width="0.200" stroke-linecap="round" opacity="1"/><line x1="1.474" y1="-4.600" x2="4.500" y2="-4.600" stroke="#e6e9ef" stroke-width="0.200" stroke-linecap="round" opacity="1"/><line x1="1.486" y1="-5.521" x2="1.657" y2="-5.521" stroke="#e6e9ef" stroke-width="0.200" stroke-linecap="round" opacity="1"/><line x1="1.518" y1="-4.600" x2="1.518" y2="-4.769" stroke="#e6e9ef" stroke-width="0.200" stroke-linecap="round" opacity="1"/><line x1="1.550" y1="-4.900" x2="4.800" y2="-4.900" stroke="#e6e9ef" stroke-width="0.200" stroke-linecap="round" opacity="1"/><line x1="1.564" y1="-4.918" x2="1.804" y2="-5.203" stroke="#e6e9ef" stroke-width="0.200" stroke-linecap="round" opacity="1"/><line x1="3.756" y1="3.300" x2="3.890" y2="3.600" stroke="#e6e9ef" stroke-width="0.200" stroke-linecap="round" opacity="1"/><line x1="3.756" y1="3.300" x2="4.500" y2="3.300" stroke="#e6e9ef" stroke-width="0.200" stroke-linecap="round" opacity="1"/><line x1="3.890" y1="3.600" x2="4.800" y2="3.599" stroke="#e6e9ef" stroke-width="0.200" stroke-linecap="round" opacity="1"/><line x1="4.499" y1="-4.599" x2="4.500" y2="3.300" stroke="#e6e9ef" stroke-width="0.200" stroke-linecap="round" opacity="1"/><line x1="4.499" y1="-4.599" x2="4.800" y2="-4.900" stroke="#e6e9ef" stroke-width="0.200" stroke-linecap="round" opacity="1"/><line x1="4.500" y1="3.300" x2="4.800" y2="3.599" stroke="#e6e9ef" stroke-width="0.200" stroke-linecap="round" opacity="1"/><line x1="4.800" y1="3.599" x2="4.800" y2="-4.900" stroke="#e6e9ef" stroke-width="0.200" stroke-linecap="round" opacity="1"/><line x1="5.360" y1="-4.900" x2="5.660" y2="-4.600" stroke="#e6e9ef" stroke-width="0.200" stroke-linecap="round" opacity="1"/><line x1="5.360" y1="-4.900" x2="8.610" y2="-4.900" stroke="#e6e9ef" stroke-width="0.200" stroke-linecap="round" opacity="1"/><line x1="5.360" y1="3.600" x2="5.360" y2="-4.900" stroke="#e6e9ef" stroke-width="0.200" stroke-linecap="round" opacity="1"/><line x1="5.360" y1="3.600" x2="5.660" y2="3.300" stroke="#e6e9ef" stroke-width="0.200" stroke-linecap="round" opacity="1"/><line x1="5.360" y1="3.600" x2="6.270" y2="3.600" stroke="#e6e9ef" stroke-width="0.200" stroke-linecap="round" opacity="1"/><line x1="5.660" y1="-4.600" x2="8.686" y2="-4.600" stroke="#e6e9ef" stroke-width="0.200" stroke-linecap="round" opacity="1"/><line x1="5.660" y1="3.300" x2="5.660" y2="-4.600" stroke="#e6e9ef" stroke-width="0.200" stroke-linecap="round" opacity="1"/><line x1="5.660" y1="3.300" x2="6.404" y2="3.300" stroke="#e6e9ef" stroke-width="0.200" stroke-linecap="round" opacity="1"/><line x1="6.270" y1="3.600" x2="6.404" y2="3.300" stroke="#e6e9ef" stroke-width="0.200" stroke-linecap="round" opacity="1"/><line x1="8.356" y1="-5.203" x2="8.596" y2="-4.918" stroke="#e6e9ef" stroke-width="0.200" stroke-linecap="round" opacity="1"/><line x1="8.504" y1="-5.521" x2="8.674" y2="-5.521" stroke="#e6e9ef" stroke-width="0.200" stroke-linecap="round" opacity="1"/><line x1="8.642" y1="-4.600" x2="8.642" y2="-4.769" stroke="#e6e9ef" stroke-width="0.200" stroke-linecap="round" opacity="1"/><line x1="11.634" y1="-4.600" x2="15.160" y2="-4.600" stroke="#e6e9ef" stroke-width="0.200" stroke-linecap="round" opacity="1"/><line x1="11.646" y1="-5.521" x2="11.816" y2="-5.521" stroke="#e6e9ef" stroke-width="0.200" stroke-linecap="round" opacity="1"/><line x1="11.678" y1="-4.600" x2="11.678" y2="-4.769" stroke="#e6e9ef" stroke-width="0.200" stroke-linecap="round" opacity="1"/><line x1="11.710" y1="-4.900" x2="15.460" y2="-4.900" stroke="#e6e9ef" stroke-width="0.200" stroke-linecap="round" opacity="1"/><line x1="11.724" y1="-4.918" x2="11.964" y2="-5.203" stroke="#e6e9ef" stroke-width="0.200" stroke-linecap="round" opacity="1"/><line x1="13.916" y1="3.300" x2="14.050" y2="3.600" stroke="#e6e9ef" stroke-width="0.200" stroke-linecap="round" opacity="1"/><line x1="13.916" y1="3.300" x2="15.160" y2="3.300" stroke="#e6e9ef" stroke-width="0.200" stroke-linecap="round" opacity="1"/><line x1="14.050" y1="3.600" x2="15.460" y2="3.600" stroke="#e6e9ef" stroke-width="0.200" stroke-linecap="round" opacity="1"/><line x1="15.159" y1="-4.599" x2="15.160" y2="3.300" stroke="#e6e9ef" stroke-width="0.200" stroke-linecap="round" opacity="1"/><line x1="15.159" y1="-4.599" x2="15.460" y2="-4.900" stroke="#e6e9ef" stroke-width="0.200" stroke-linecap="round" opacity="1"/><line x1="15.160" y1="3.300" x2="15.460" y2="3.600" stroke="#e6e9ef" stroke-width="0.200" stroke-linecap="round" opacity="1"/><line x1="15.460" y1="3.600" x2="15.460" y2="-4.900" stroke="#e6e9ef" stroke-width="0.200" stroke-linecap="round" opacity="1"/><line x1="16.160" y1="-5.000" x2="16.160" y2="-6.700" stroke="#e6e9ef" stroke-width="0.200" stroke-linecap="round" opacity="1"/><line x1="16.160" y1="-5.000" x2="16.760" y2="-5.000" stroke="#e6e9ef" stroke-width="0.200" stroke-linecap="round" opacity="1"/><line x1="16.160" y1="5.000" x2="16.760" y2="5.000" stroke="#e6e9ef" stroke-width="0.200" stroke-linecap="round" opacity="1"/><line x1="16.160" y1="6.700" x2="16.160" y2="5.000" stroke="#e6e9ef" stroke-width="0.200" stroke-linecap="round" opacity="1"/><line x1="16.760" y1="5.000" x2="16.760" y2="-5.000" stroke="#e6e9ef" stroke-width="0.200" stroke-linecap="round" opacity="1"/><line x1="-10.660" y1="-5.080" x2="-10.160" y2="-5.080" stroke="#4a5160" stroke-width="0.080" stroke-linecap="round" opacity="0.7"/><line x1="-10.660" y1="0.000" x2="-10.160" y2="0.000" stroke="#4a5160" stroke-width="0.080" stroke-linecap="round" opacity="0.7"/><line x1="-10.660" y1="5.080" x2="-10.160" y2="5.080" stroke="#4a5160" stroke-width="0.080" stroke-linecap="round" opacity="0.7"/><line x1="-10.160" y1="-5.080" x2="-10.160" y2="-5.580" stroke="#4a5160" stroke-width="0.080" stroke-linecap="round" opacity="0.7"/><line x1="-10.160" y1="-5.080" x2="-9.660" y2="-5.080" stroke="#4a5160" stroke-width="0.080" stroke-linecap="round" opacity="0.7"/><line x1="-10.160" y1="-4.580" x2="-10.160" y2="-5.080" stroke="#4a5160" stroke-width="0.080" stroke-linecap="round" opacity="0.7"/><line x1="-10.160" y1="0.000" x2="-10.160" y2="-0.500" stroke="#4a5160" stroke-width="0.080" stroke-linecap="round" opacity="0.7"/><line x1="-10.160" y1="0.000" x2="-9.660" y2="0.000" stroke="#4a5160" stroke-width="0.080" stroke-linecap="round" opacity="0.7"/><line x1="-10.160" y1="0.500" x2="-10.160" y2="0.000" stroke="#4a5160" stroke-width="0.080" stroke-linecap="round" opacity="0.7"/><line x1="-10.160" y1="5.080" x2="-10.160" y2="4.580" stroke="#4a5160" stroke-width="0.080" stroke-linecap="round" opacity="0.7"/><line x1="-10.160" y1="5.080" x2="-9.660" y2="5.080" stroke="#4a5160" stroke-width="0.080" stroke-linecap="round" opacity="0.7"/><line x1="-10.160" y1="5.580" x2="-10.160" y2="5.080" stroke="#4a5160" stroke-width="0.080" stroke-linecap="round" opacity="0.7"/><line x1="-0.500" y1="-5.080" x2="0.000" y2="-5.080" stroke="#4a5160" stroke-width="0.080" stroke-linecap="round" opacity="0.7"/><line x1="-0.500" y1="0.000" x2="0.000" y2="0.000" stroke="#4a5160" stroke-width="0.080" stroke-linecap="round" opacity="0.7"/><line x1="-0.500" y1="5.080" x2="0.000" y2="5.080" stroke="#4a5160" stroke-width="0.080" stroke-linecap="round" opacity="0.7"/><line x1="0.000" y1="-5.080" x2="0.000" y2="-5.580" stroke="#4a5160" stroke-width="0.080" stroke-linecap="round" opacity="0.7"/><line x1="0.000" y1="-5.080" x2="0.500" y2="-5.080" stroke="#4a5160" stroke-width="0.080" stroke-linecap="round" opacity="0.7"/><line x1="0.000" y1="-4.580" x2="0.000" y2="-5.080" stroke="#4a5160" stroke-width="0.080" stroke-linecap="round" opacity="0.7"/><line x1="0.000" y1="0.000" x2="0.000" y2="-0.500" stroke="#4a5160" stroke-width="0.080" stroke-linecap="round" opacity="0.7"/><line x1="0.000" y1="0.000" x2="0.500" y2="0.000" stroke="#4a5160" stroke-width="0.080" stroke-linecap="round" opacity="0.7"/><line x1="0.000" y1="0.500" x2="0.000" y2="0.000" stroke="#4a5160" stroke-width="0.080" stroke-linecap="round" opacity="0.7"/><line x1="0.000" y1="5.080" x2="0.000" y2="4.580" stroke="#4a5160" stroke-width="0.080" stroke-linecap="round" opacity="0.7"/><line x1="0.000" y1="5.080" x2="0.500" y2="5.080" stroke="#4a5160" stroke-width="0.080" stroke-linecap="round" opacity="0.7"/><line x1="0.000" y1="5.580" x2="0.000" y2="5.080" stroke="#4a5160" stroke-width="0.080" stroke-linecap="round" opacity="0.7"/><line x1="9.660" y1="-5.080" x2="10.160" y2="-5.080" stroke="#4a5160" stroke-width="0.080" stroke-linecap="round" opacity="0.7"/><line x1="9.660" y1="0.000" x2="10.160" y2="0.000" stroke="#4a5160" stroke-width="0.080" stroke-linecap="round" opacity="0.7"/><line x1="9.660" y1="5.080" x2="10.160" y2="5.080" stroke="#4a5160" stroke-width="0.080" stroke-linecap="round" opacity="0.7"/><line x1="10.160" y1="-5.080" x2="10.160" y2="-5.580" stroke="#4a5160" stroke-width="0.080" stroke-linecap="round" opacity="0.7"/><line x1="10.160" y1="-5.080" x2="10.660" y2="-5.080" stroke="#4a5160" stroke-width="0.080" stroke-linecap="round" opacity="0.7"/><line x1="10.160" y1="-4.580" x2="10.160" y2="-5.080" stroke="#4a5160" stroke-width="0.080" stroke-linecap="round" opacity="0.7"/><line x1="10.160" y1="0.000" x2="10.160" y2="-0.500" stroke="#4a5160" stroke-width="0.080" stroke-linecap="round" opacity="0.7"/><line x1="10.160" y1="0.000" x2="10.660" y2="0.000" stroke="#4a5160" stroke-width="0.080" stroke-linecap="round" opacity="0.7"/><line x1="10.160" y1="0.500" x2="10.160" y2="0.000" stroke="#4a5160" stroke-width="0.080" stroke-linecap="round" opacity="0.7"/><line x1="10.160" y1="5.080" x2="10.160" y2="4.580" stroke="#4a5160" stroke-width="0.080" stroke-linecap="round" opacity="0.7"/><line x1="10.160" y1="5.080" x2="10.660" y2="5.080" stroke="#4a5160" stroke-width="0.080" stroke-linecap="round" opacity="0.7"/><line x1="10.160" y1="5.580" x2="10.160" y2="5.080" stroke="#4a5160" stroke-width="0.080" stroke-linecap="round" opacity="0.7"/><line x1="-16.760" y1="-5.000" x2="-16.160" y2="-5.000" stroke="#6b7280" stroke-width="0.100" stroke-linecap="round" opacity="0.8"/><line x1="-16.760" y1="5.000" x2="-16.760" y2="-5.000" stroke="#6b7280" stroke-width="0.100" stroke-linecap="round" opacity="0.8"/><line x1="-16.760" y1="5.000" x2="-16.160" y2="5.000" stroke="#6b7280" stroke-width="0.100" stroke-linecap="round" opacity="0.8"/><line x1="-16.160" y1="-6.700" x2="16.160" y2="-6.700" stroke="#6b7280" stroke-width="0.100" stroke-linecap="round" opacity="0.8"/><line x1="-16.160" y1="-5.000" x2="-16.160" y2="-6.700" stroke="#6b7280" stroke-width="0.100" stroke-linecap="round" opacity="0.8"/><line x1="-16.160" y1="6.700" x2="-16.160" y2="5.000" stroke="#6b7280" stroke-width="0.100" stroke-linecap="round" opacity="0.8"/><line x1="-16.160" y1="6.700" x2="16.160" y2="6.700" stroke="#6b7280" stroke-width="0.100" stroke-linecap="round" opacity="0.8"/><line x1="-15.460" y1="-4.900" x2="-15.160" y2="-4.600" stroke="#6b7280" stroke-width="0.100" stroke-linecap="round" opacity="0.8"/><line x1="-15.460" y1="-4.900" x2="-11.710" y2="-4.900" stroke="#6b7280" stroke-width="0.100" stroke-linecap="round" opacity="0.8"/><line x1="-15.460" y1="3.600" x2="-15.460" y2="-4.900" stroke="#6b7280" stroke-width="0.100" stroke-linecap="round" opacity="0.8"/><line x1="-15.460" y1="3.600" x2="-15.160" y2="3.300" stroke="#6b7280" stroke-width="0.100" stroke-linecap="round" opacity="0.8"/><line x1="-15.460" y1="3.600" x2="-14.050" y2="3.600" stroke="#6b7280" stroke-width="0.100" stroke-linecap="round" opacity="0.8"/><line x1="-15.160" y1="-4.600" x2="-11.610" y2="-4.600" stroke="#6b7280" stroke-width="0.100" stroke-linecap="round" opacity="0.8"/><line x1="-15.160" y1="3.300" x2="-15.160" y2="-4.600" stroke="#6b7280" stroke-width="0.100" stroke-linecap="round" opacity="0.8"/><line x1="-15.160" y1="3.300" x2="-13.916" y2="3.300" stroke="#6b7280" stroke-width="0.100" stroke-linecap="round" opacity="0.8"/><line x1="-14.050" y1="3.600" x2="-13.916" y2="3.300" stroke="#6b7280" stroke-width="0.100" stroke-linecap="round" opacity="0.8"/><line x1="-11.964" y1="-5.203" x2="-11.724" y2="-4.918" stroke="#6b7280" stroke-width="0.100" stroke-linecap="round" opacity="0.8"/><line x1="-11.816" y1="-5.521" x2="-8.504" y2="-5.521" stroke="#6b7280" stroke-width="0.100" stroke-linecap="round" opacity="0.8"/><line x1="-11.678" y1="-4.600" x2="-11.678" y2="-4.793" stroke="#6b7280" stroke-width="0.100" stroke-linecap="round" opacity="0.8"/><line x1="-11.610" y1="-4.600" x2="-11.610" y2="-5.521" stroke="#6b7280" stroke-width="0.100" stroke-linecap="round" opacity="0.8"/><line x1="-8.710" y1="-4.600" x2="-8.710" y2="-5.521" stroke="#6b7280" stroke-width="0.100" stroke-linecap="round" opacity="0.8"/><line x1="-8.710" y1="-4.600" x2="-5.660" y2="-4.600" stroke="#6b7280" stroke-width="0.100" stroke-linecap="round" opacity="0.8"/><line x1="-8.642" y1="-4.600" x2="-8.642" y2="-4.793" stroke="#6b7280" stroke-width="0.100" stroke-linecap="round" opacity="0.8"/><line x1="-8.610" y1="-4.900" x2="-5.360" y2="-4.900" stroke="#6b7280" stroke-width="0.100" stroke-linecap="round" opacity="0.8"/><line x1="-8.596" y1="-4.918" x2="-8.356" y2="-5.203" stroke="#6b7280" stroke-width="0.100" stroke-linecap="round" opacity="0.8"/><line x1="-6.404" y1="3.300" x2="-6.270" y2="3.600" stroke="#6b7280" stroke-width="0.100" stroke-linecap="round" opacity="0.8"/><line x1="-6.404" y1="3.300" x2="-5.660" y2="3.300" stroke="#6b7280" stroke-width="0.100" stroke-linecap="round" opacity="0.8"/><line x1="-6.270" y1="3.600" x2="-5.360" y2="3.599" stroke="#6b7280" stroke-width="0.100" stroke-linecap="round" opacity="0.8"/><line x1="-5.660" y1="-4.600" x2="-5.360" y2="-4.900" stroke="#6b7280" stroke-width="0.100" stroke-linecap="round" opacity="0.8"/><line x1="-5.660" y1="3.300" x2="-5.660" y2="-4.600" stroke="#6b7280" stroke-width="0.100" stroke-linecap="round" opacity="0.8"/><line x1="-5.660" y1="3.300" x2="-5.360" y2="3.599" stroke="#6b7280" stroke-width="0.100" stroke-linecap="round" opacity="0.8"/><line x1="-5.360" y1="3.599" x2="-5.360" y2="-4.900" stroke="#6b7280" stroke-width="0.100" stroke-linecap="round" opacity="0.8"/><line x1="-4.800" y1="-4.900" x2="-4.500" y2="-4.600" stroke="#6b7280" stroke-width="0.100" stroke-linecap="round" opacity="0.8"/><line x1="-4.800" y1="-4.900" x2="-1.550" y2="-4.900" stroke="#6b7280" stroke-width="0.100" stroke-linecap="round" opacity="0.8"/><line x1="-4.800" y1="3.600" x2="-4.800" y2="-4.900" stroke="#6b7280" stroke-width="0.100" stroke-linecap="round" opacity="0.8"/><line x1="-4.800" y1="3.600" x2="-4.500" y2="3.300" stroke="#6b7280" stroke-width="0.100" stroke-linecap="round" opacity="0.8"/><line x1="-4.800" y1="3.600" x2="-3.890" y2="3.600" stroke="#6b7280" stroke-width="0.100" stroke-linecap="round" opacity="0.8"/><line x1="-4.500" y1="3.300" x2="-3.756" y2="3.300" stroke="#6b7280" stroke-width="0.100" stroke-linecap="round" opacity="0.8"/><line x1="-4.500" y1="-4.600" x2="-1.450" y2="-4.600" stroke="#6b7280" stroke-width="0.100" stroke-linecap="round" opacity="0.8"/><line x1="-4.500" y1="3.300" x2="-4.500" y2="-4.600" stroke="#6b7280" stroke-width="0.100" stroke-linecap="round" opacity="0.8"/><line x1="-3.890" y1="3.600" x2="-3.756" y2="3.300" stroke="#6b7280" stroke-width="0.100" stroke-linecap="round" opacity="0.8"/><line x1="-1.804" y1="-5.203" x2="-1.564" y2="-4.918" stroke="#6b7280" stroke-width="0.100" stroke-linecap="round" opacity="0.8"/><line x1="-1.657" y1="-5.521" x2="1.657" y2="-5.521" stroke="#6b7280" stroke-width="0.100" stroke-linecap="round" opacity="0.8"/><line x1="-1.518" y1="-4.600" x2="-1.518" y2="-4.793" stroke="#6b7280" stroke-width="0.100" stroke-linecap="round" opacity="0.8"/><line x1="-1.450" y1="-4.600" x2="-1.450" y2="-5.521" stroke="#6b7280" stroke-width="0.100" stroke-linecap="round" opacity="0.8"/><line x1="1.450" y1="-4.600" x2="1.450" y2="-5.521" stroke="#6b7280" stroke-width="0.100" stroke-linecap="round" opacity="0.8"/><line x1="1.450" y1="-4.600" x2="4.500" y2="-4.600" stroke="#6b7280" stroke-width="0.100" stroke-linecap="round" opacity="0.8"/><line x1="1.518" y1="-4.600" x2="1.518" y2="-4.793" stroke="#6b7280" stroke-width="0.100" stroke-linecap="round" opacity="0.8"/><line x1="1.550" y1="-4.900" x2="4.800" y2="-4.900" stroke="#6b7280" stroke-width="0.100" stroke-linecap="round" opacity="0.8"/><line x1="1.564" y1="-4.918" x2="1.804" y2="-5.203" stroke="#6b7280" stroke-width="0.100" stroke-linecap="round" opacity="0.8"/><line x1="3.756" y1="3.300" x2="3.890" y2="3.600" stroke="#6b7280" stroke-width="0.100" stroke-linecap="round" opacity="0.8"/><line x1="3.756" y1="3.300" x2="4.500" y2="3.300" stroke="#6b7280" stroke-width="0.100" stroke-linecap="round" opacity="0.8"/><line x1="3.890" y1="3.600" x2="4.800" y2="3.599" stroke="#6b7280" stroke-width="0.100" stroke-linecap="round" opacity="0.8"/><line x1="4.500" y1="-4.600" x2="4.800" y2="-4.900" stroke="#6b7280" stroke-width="0.100" stroke-linecap="round" opacity="0.8"/><line x1="4.500" y1="3.300" x2="4.500" y2="-4.600" stroke="#6b7280" stroke-width="0.100" stroke-linecap="round" opacity="0.8"/><line x1="4.500" y1="3.300" x2="4.800" y2="3.599" stroke="#6b7280" stroke-width="0.100" stroke-linecap="round" opacity="0.8"/><line x1="4.800" y1="3.599" x2="4.800" y2="-4.900" stroke="#6b7280" stroke-width="0.100" stroke-linecap="round" opacity="0.8"/><line x1="5.360" y1="-4.900" x2="5.660" y2="-4.600" stroke="#6b7280" stroke-width="0.100" stroke-linecap="round" opacity="0.8"/><line x1="5.360" y1="-4.900" x2="8.610" y2="-4.900" stroke="#6b7280" stroke-width="0.100" stroke-linecap="round" opacity="0.8"/><line x1="5.360" y1="3.600" x2="5.360" y2="-4.900" stroke="#6b7280" stroke-width="0.100" stroke-linecap="round" opacity="0.8"/><line x1="5.360" y1="3.600" x2="5.660" y2="3.300" stroke="#6b7280" stroke-width="0.100" stroke-linecap="round" opacity="0.8"/><line x1="5.360" y1="3.600" x2="6.270" y2="3.600" stroke="#6b7280" stroke-width="0.100" stroke-linecap="round" opacity="0.8"/><line x1="5.660" y1="-4.600" x2="8.710" y2="-4.600" stroke="#6b7280" stroke-width="0.100" stroke-linecap="round" opacity="0.8"/><line x1="5.660" y1="3.300" x2="5.660" y2="-4.600" stroke="#6b7280" stroke-width="0.100" stroke-linecap="round" opacity="0.8"/><line x1="5.660" y1="3.300" x2="6.404" y2="3.300" stroke="#6b7280" stroke-width="0.100" stroke-linecap="round" opacity="0.8"/><line x1="6.270" y1="3.600" x2="6.404" y2="3.300" stroke="#6b7280" stroke-width="0.100" stroke-linecap="round" opacity="0.8"/><line x1="8.356" y1="-5.203" x2="8.596" y2="-4.918" stroke="#6b7280" stroke-width="0.100" stroke-linecap="round" opacity="0.8"/><line x1="8.504" y1="-5.521" x2="11.816" y2="-5.521" stroke="#6b7280" stroke-width="0.100" stroke-linecap="round" opacity="0.8"/><line x1="8.642" y1="-4.600" x2="8.642" y2="-4.793" stroke="#6b7280" stroke-width="0.100" stroke-linecap="round" opacity="0.8"/><line x1="8.710" y1="-4.600" x2="8.710" y2="-5.521" stroke="#6b7280" stroke-width="0.100" stroke-linecap="round" opacity="0.8"/><line x1="11.610" y1="-4.600" x2="11.610" y2="-5.521" stroke="#6b7280" stroke-width="0.100" stroke-linecap="round" opacity="0.8"/><line x1="11.610" y1="-4.600" x2="15.160" y2="-4.600" stroke="#6b7280" stroke-width="0.100" stroke-linecap="round" opacity="0.8"/><line x1="11.678" y1="-4.600" x2="11.678" y2="-4.793" stroke="#6b7280" stroke-width="0.100" stroke-linecap="round" opacity="0.8"/><line x1="11.710" y1="-4.900" x2="15.460" y2="-4.900" stroke="#6b7280" stroke-width="0.100" stroke-linecap="round" opacity="0.8"/><line x1="11.724" y1="-4.918" x2="11.964" y2="-5.203" stroke="#6b7280" stroke-width="0.100" stroke-linecap="round" opacity="0.8"/><line x1="13.916" y1="3.300" x2="14.050" y2="3.600" stroke="#6b7280" stroke-width="0.100" stroke-linecap="round" opacity="0.8"/><line x1="13.916" y1="3.300" x2="15.160" y2="3.300" stroke="#6b7280" stroke-width="0.100" stroke-linecap="round" opacity="0.8"/><line x1="14.050" y1="3.600" x2="15.460" y2="3.600" stroke="#6b7280" stroke-width="0.100" stroke-linecap="round" opacity="0.8"/><line x1="15.160" y1="-4.600" x2="15.460" y2="-4.900" stroke="#6b7280" stroke-width="0.100" stroke-linecap="round" opacity="0.8"/><line x1="15.160" y1="3.300" x2="15.160" y2="-4.600" stroke="#6b7280" stroke-width="0.100" stroke-linecap="round" opacity="0.8"/><line x1="15.160" y1="3.300" x2="15.460" y2="3.600" stroke="#6b7280" stroke-width="0.100" stroke-linecap="round" opacity="0.8"/><line x1="15.460" y1="3.600" x2="15.460" y2="-4.900" stroke="#6b7280" stroke-width="0.100" stroke-linecap="round" opacity="0.8"/><line x1="16.160" y1="-5.000" x2="16.160" y2="-6.700" stroke="#6b7280" stroke-width="0.100" stroke-linecap="round" opacity="0.8"/><line x1="16.160" y1="-5.000" x2="16.760" y2="-5.000" stroke="#6b7280" stroke-width="0.100" stroke-linecap="round" opacity="0.8"/><line x1="16.160" y1="5.000" x2="16.760" y2="5.000" stroke="#6b7280" stroke-width="0.100" stroke-linecap="round" opacity="0.8"/><line x1="16.160" y1="6.700" x2="16.160" y2="5.000" stroke="#6b7280" stroke-width="0.100" stroke-linecap="round" opacity="0.8"/><line x1="16.760" y1="5.000" x2="16.760" y2="-5.000" stroke="#6b7280" stroke-width="0.100" stroke-linecap="round" opacity="0.8"/><line x1="-17.010" y1="-6.950" x2="17.010" y2="-6.950" stroke="#d24d4d" stroke-width="0.080" stroke-linecap="round" opacity="0.7"/><line x1="17.010" y1="-6.950" x2="17.010" y2="6.950" stroke="#d24d4d" stroke-width="0.080" stroke-linecap="round" opacity="0.7"/><line x1="17.010" y1="6.950" x2="-17.010" y2="6.950" stroke="#d24d4d" stroke-width="0.080" stroke-linecap="round" opacity="0.7"/><line x1="-17.010" y1="6.950" x2="-17.010" y2="-6.950" stroke="#d24d4d" stroke-width="0.080" stroke-linecap="round" opacity="0.7"/><path d="M -12.010 -5.327 A 0.194 0.194 0 0 1 -11.816 -5.521" fill="none" stroke="#e6e9ef" stroke-width="0.12" opacity="1"/><path d="M -11.964 -5.203 A 0.194 0.194 0 0 1 -12.010 -5.327" fill="none" stroke="#e6e9ef" stroke-width="0.12" opacity="1"/><path d="M -11.724 -4.918 A 0.194 0.194 0 0 1 -11.696 -4.875" fill="none" stroke="#e6e9ef" stroke-width="0.12" opacity="1"/><path d="M -11.710 5.068 A 5.300 5.300 0 0 1 -14.050 3.600" fill="none" stroke="#e6e9ef" stroke-width="0.12" opacity="1"/><path d="M -11.677 4.764 A 5.000 5.000 0 0 1 -13.916 3.300" fill="none" stroke="#e6e9ef" stroke-width="0.12" opacity="1"/><path d="M -8.624 -4.875 A 0.194 0.194 0 0 1 -8.596 -4.918" fill="none" stroke="#e6e9ef" stroke-width="0.12" opacity="1"/><path d="M -8.504 -5.521 A 0.194 0.194 0 0 1 -8.310 -5.327" fill="none" stroke="#e6e9ef" stroke-width="0.12" opacity="1"/><path d="M -8.310 -5.327 A 0.193 0.193 0 0 1 -8.356 -5.203" fill="none" stroke="#e6e9ef" stroke-width="0.12" opacity="1"/><path d="M -6.404 3.300 A 5.000 5.000 0 0 1 -8.643 4.764" fill="none" stroke="#e6e9ef" stroke-width="0.12" opacity="1"/><path d="M -6.270 3.600 A 5.300 5.300 0 0 1 -8.610 5.068" fill="none" stroke="#e6e9ef" stroke-width="0.12" opacity="1"/><path d="M -1.850 -5.327 A 0.194 0.194 0 0 1 -1.657 -5.521" fill="none" stroke="#e6e9ef" stroke-width="0.12" opacity="1"/><path d="M -1.804 -5.203 A 0.194 0.194 0 0 1 -1.850 -5.327" fill="none" stroke="#e6e9ef" stroke-width="0.12" opacity="1"/><path d="M -1.564 -4.918 A 0.194 0.194 0 0 1 -1.536 -4.875" fill="none" stroke="#e6e9ef" stroke-width="0.12" opacity="1"/><path d="M -1.550 5.068 A 5.300 5.300 0 0 1 -3.890 3.600" fill="none" stroke="#e6e9ef" stroke-width="0.12" opacity="1"/><path d="M -1.517 4.764 A 5.000 5.000 0 0 1 -3.756 3.300" fill="none" stroke="#e6e9ef" stroke-width="0.12" opacity="1"/><path d="M 1.536 -4.875 A 0.194 0.194 0 0 1 1.564 -4.918" fill="none" stroke="#e6e9ef" stroke-width="0.12" opacity="1"/><path d="M 1.657 -5.521 A 0.194 0.194 0 0 1 1.850 -5.327" fill="none" stroke="#e6e9ef" stroke-width="0.12" opacity="1"/><path d="M 1.850 -5.327 A 0.193 0.193 0 0 1 1.804 -5.203" fill="none" stroke="#e6e9ef" stroke-width="0.12" opacity="1"/><path d="M 3.756 3.300 A 5.000 5.000 0 0 1 1.517 4.764" fill="none" stroke="#e6e9ef" stroke-width="0.12" opacity="1"/><path d="M 3.890 3.600 A 5.300 5.300 0 0 1 1.550 5.068" fill="none" stroke="#e6e9ef" stroke-width="0.12" opacity="1"/><path d="M 8.310 -5.327 A 0.194 0.194 0 0 1 8.504 -5.521" fill="none" stroke="#e6e9ef" stroke-width="0.12" opacity="1"/><path d="M 8.356 -5.203 A 0.194 0.194 0 0 1 8.310 -5.327" fill="none" stroke="#e6e9ef" stroke-width="0.12" opacity="1"/><path d="M 8.596 -4.918 A 0.194 0.194 0 0 1 8.624 -4.875" fill="none" stroke="#e6e9ef" stroke-width="0.12" opacity="1"/><path d="M 8.610 5.068 A 5.300 5.300 0 0 1 6.270 3.600" fill="none" stroke="#e6e9ef" stroke-width="0.12" opacity="1"/><path d="M 8.643 4.764 A 5.000 5.000 0 0 1 6.404 3.300" fill="none" stroke="#e6e9ef" stroke-width="0.12" opacity="1"/><path d="M 11.696 -4.875 A 0.194 0.194 0 0 1 11.724 -4.918" fill="none" stroke="#e6e9ef" stroke-width="0.12" opacity="1"/><path d="M 11.816 -5.521 A 0.194 0.194 0 0 1 12.010 -5.327" fill="none" stroke="#e6e9ef" stroke-width="0.12" opacity="1"/><path d="M 12.010 -5.327 A 0.193 0.193 0 0 1 11.964 -5.203" fill="none" stroke="#e6e9ef" stroke-width="0.12" opacity="1"/><path d="M 13.916 3.300 A 5.000 5.000 0 0 1 11.677 4.764" fill="none" stroke="#e6e9ef" stroke-width="0.12" opacity="1"/><path d="M 14.050 3.600 A 5.300 5.300 0 0 1 11.710 5.068" fill="none" stroke="#e6e9ef" stroke-width="0.12" opacity="1"/><path d="M -12.010 -5.327 A 0.194 0.194 0 0 1 -11.816 -5.521" fill="none" stroke="#6b7280" stroke-width="0.12" opacity="0.8"/><path d="M -11.964 -5.203 A 0.194 0.194 0 0 1 -12.010 -5.327" fill="none" stroke="#6b7280" stroke-width="0.12" opacity="0.8"/><path d="M -11.724 -4.918 A 0.194 0.194 0 0 1 -11.678 -4.793" fill="none" stroke="#6b7280" stroke-width="0.12" opacity="0.8"/><path d="M -8.642 -4.793 A 0.193 0.193 0 0 1 -8.596 -4.918" fill="none" stroke="#6b7280" stroke-width="0.12" opacity="0.8"/><path d="M -8.504 -5.521 A 0.194 0.194 0 0 1 -8.310 -5.327" fill="none" stroke="#6b7280" stroke-width="0.12" opacity="0.8"/><path d="M -8.310 -5.327 A 0.193 0.193 0 0 1 -8.356 -5.203" fill="none" stroke="#6b7280" stroke-width="0.12" opacity="0.8"/><path d="M -6.404 3.300 A 5.000 5.000 0 0 1 -13.916 3.300" fill="none" stroke="#6b7280" stroke-width="0.12" opacity="0.8"/><path d="M -6.270 3.600 A 5.300 5.300 0 0 1 -14.050 3.600" fill="none" stroke="#6b7280" stroke-width="0.12" opacity="0.8"/><path d="M -1.850 -5.327 A 0.194 0.194 0 0 1 -1.657 -5.521" fill="none" stroke="#6b7280" stroke-width="0.12" opacity="0.8"/><path d="M -1.804 -5.203 A 0.194 0.194 0 0 1 -1.850 -5.327" fill="none" stroke="#6b7280" stroke-width="0.12" opacity="0.8"/><path d="M -1.564 -4.918 A 0.194 0.194 0 0 1 -1.518 -4.793" fill="none" stroke="#6b7280" stroke-width="0.12" opacity="0.8"/><path d="M 1.518 -4.793 A 0.193 0.193 0 0 1 1.564 -4.918" fill="none" stroke="#6b7280" stroke-width="0.12" opacity="0.8"/><path d="M 1.657 -5.521 A 0.194 0.194 0 0 1 1.850 -5.327" fill="none" stroke="#6b7280" stroke-width="0.12" opacity="0.8"/><path d="M 1.850 -5.327 A 0.193 0.193 0 0 1 1.804 -5.203" fill="none" stroke="#6b7280" stroke-width="0.12" opacity="0.8"/><path d="M 3.756 3.300 A 5.000 5.000 0 0 1 -3.756 3.300" fill="none" stroke="#6b7280" stroke-width="0.12" opacity="0.8"/><path d="M 3.890 3.600 A 5.300 5.300 0 0 1 -3.890 3.600" fill="none" stroke="#6b7280" stroke-width="0.12" opacity="0.8"/><path d="M 8.310 -5.327 A 0.194 0.194 0 0 1 8.504 -5.521" fill="none" stroke="#6b7280" stroke-width="0.12" opacity="0.8"/><path d="M 8.356 -5.203 A 0.194 0.194 0 0 1 8.310 -5.327" fill="none" stroke="#6b7280" stroke-width="0.12" opacity="0.8"/><path d="M 8.596 -4.918 A 0.194 0.194 0 0 1 8.642 -4.793" fill="none" stroke="#6b7280" stroke-width="0.12" opacity="0.8"/><path d="M 11.678 -4.793 A 0.193 0.193 0 0 1 11.724 -4.918" fill="none" stroke="#6b7280" stroke-width="0.12" opacity="0.8"/><path d="M 11.816 -5.521 A 0.194 0.194 0 0 1 12.010 -5.327" fill="none" stroke="#6b7280" stroke-width="0.12" opacity="0.8"/><path d="M 12.010 -5.327 A 0.193 0.193 0 0 1 11.964 -5.203" fill="none" stroke="#6b7280" stroke-width="0.12" opacity="0.8"/><path d="M 13.916 3.300 A 5.000 5.000 0 0 1 6.404 3.300" fill="none" stroke="#6b7280" stroke-width="0.12" opacity="0.8"/><path d="M 14.050 3.600 A 5.300 5.300 0 0 1 6.270 3.600" fill="none" stroke="#6b7280" stroke-width="0.12" opacity="0.8"/><circle cx="-10.160" cy="0.000" r="2.726" fill="none" stroke="#e6e9ef" stroke-width="0.12" opacity="1"/><circle cx="-10.160" cy="0.000" r="1.675" fill="none" stroke="#e6e9ef" stroke-width="0.12" opacity="1"/><circle cx="0.000" cy="0.000" r="2.726" fill="none" stroke="#e6e9ef" stroke-width="0.12" opacity="1"/><circle cx="0.000" cy="0.000" r="1.675" fill="none" stroke="#e6e9ef" stroke-width="0.12" opacity="1"/><circle cx="10.160" cy="0.000" r="2.726" fill="none" stroke="#e6e9ef" stroke-width="0.12" opacity="1"/><circle cx="10.160" cy="0.000" r="1.675" fill="none" stroke="#e6e9ef" stroke-width="0.12" opacity="1"/><circle cx="-10.160" cy="-5.080" r="0.850" fill="none" stroke="#4a5160" stroke-width="0.12" opacity="0.7"/><circle cx="-10.160" cy="0.000" r="0.850" fill="none" stroke="#4a5160" stroke-width="0.12" opacity="0.7"/><circle cx="-10.160" cy="5.080" r="0.850" fill="none" stroke="#4a5160" stroke-width="0.12" opacity="0.7"/><circle cx="0.000" cy="-5.080" r="0.850" fill="none" stroke="#4a5160" stroke-width="0.12" opacity="0.7"/><circle cx="0.000" cy="0.000" r="0.850" fill="none" stroke="#4a5160" stroke-width="0.12" opacity="0.7"/><circle cx="0.000" cy="5.080" r="0.850" fill="none" stroke="#4a5160" stroke-width="0.12" opacity="0.7"/><circle cx="10.160" cy="-5.080" r="0.850" fill="none" stroke="#4a5160" stroke-width="0.12" opacity="0.7"/><circle cx="10.160" cy="0.000" r="0.850" fill="none" stroke="#4a5160" stroke-width="0.12" opacity="0.7"/><circle cx="10.160" cy="5.080" r="0.850" fill="none" stroke="#4a5160" stroke-width="0.12" opacity="0.7"/><circle cx="-10.160" cy="0.000" r="2.726" fill="none" stroke="#6b7280" stroke-width="0.12" opacity="0.8"/><circle cx="-10.160" cy="0.000" r="1.675" fill="none" stroke="#6b7280" stroke-width="0.12" opacity="0.8"/><circle cx="0.000" cy="0.000" r="2.726" fill="none" stroke="#6b7280" stroke-width="0.12" opacity="0.8"/><circle cx="0.000" cy="0.000" r="1.675" fill="none" stroke="#6b7280" stroke-width="0.12" opacity="0.8"/><circle cx="10.160" cy="0.000" r="2.726" fill="none" stroke="#6b7280" stroke-width="0.12" opacity="0.8"/><circle cx="10.160" cy="0.000" r="1.675" fill="none" stroke="#6b7280" stroke-width="0.12" opacity="0.8"/><rect x="-11.360" y="-6.280" width="2.400" height="2.400" rx="1.200" fill="#c79b5c"/><circle cx="-10.160" cy="-5.080" r="0.850" fill="#12151c"/><rect x="-11.360" y="-1.200" width="2.400" height="2.400" rx="1.200" fill="#c79b5c"/><circle cx="-10.160" cy="0.000" r="0.850" fill="#12151c"/><rect x="-11.360" y="3.880" width="2.400" height="2.400" rx="1.200" fill="#c79b5c"/><circle cx="-10.160" cy="5.080" r="0.850" fill="#12151c"/><rect x="-1.200" y="-6.280" width="2.400" height="2.400" rx="1.200" fill="#c79b5c"/><circle cx="0.000" cy="-5.080" r="0.850" fill="#12151c"/><rect x="-1.200" y="-1.200" width="2.400" height="2.400" rx="1.200" fill="#c79b5c"/><circle cx="0.000" cy="0.000" r="0.850" fill="#12151c"/><rect x="-1.200" y="3.900" width="2.400" height="2.400" rx="1.200" fill="#c79b5c"/><circle cx="0.000" cy="5.100" r="0.850" fill="#12151c"/><rect x="8.960" y="-6.280" width="2.400" height="2.400" rx="1.200" fill="#c79b5c"/><circle cx="10.160" cy="-5.080" r="0.850" fill="#12151c"/><rect x="8.960" y="-1.200" width="2.400" height="2.400" rx="1.200" fill="#c79b5c"/><circle cx="10.160" cy="0.000" r="0.850" fill="#12151c"/><rect x="8.960" y="3.880" width="2.400" height="2.400" rx="1.200" fill="#c79b5c"/><circle cx="10.160" cy="5.080" r="0.850" fill="#12151c"/></svg>