<svg xmlns="http://www.w3.org/2000/svg" viewBox="-6.58 -1.50 28.40 23.32" preserveAspectRatio="xMidYMid meet" style="width:100%;height:100%"><rect x="-6.58" y="-1.50" width="28.40" height="23.32" fill="#12151c"/><rect x="0.000" y="-0.000" width="15.240" height="20.320" fill="#1e222b" stroke="#4ea1ff" stroke-width="0.25"/><polyline points="0.000,7.620 2.032,7.620" fill="none" stroke="#4ea1ff" stroke-width="0.25" stroke-linejoin="round"/><polyline points="0.000,12.700 2.032,12.700" fill="none" stroke="#4ea1ff" stroke-width="0.25" stroke-linejoin="round"/><polyline points="1.016,9.398 2.032,10.922 3.048,9.398 1.016,9.398" fill="#1e222b" stroke="#4ea1ff" stroke-width="0.25" stroke-linejoin="round"/><polyline points="2.032,7.620 2.032,12.700" fill="none" stroke="#4ea1ff" stroke-width="0.25" stroke-linejoin="round"/><polyline points="3.048,10.922 1.016,10.922" fill="none" stroke="#4ea1ff" stroke-width="0.25" stroke-linejoin="round"/><polyline points="4.064,9.652 5.080,10.668" fill="none" stroke="#4ea1ff" stroke-width="0.25" stroke-linejoin="round"/><polyline points="4.064,10.668 5.080,11.684" fill="none" stroke="#4ea1ff" stroke-width="0.25" stroke-linejoin="round"/><polyline points="4.572,7.620 4.572,8.128" fill="none" stroke="#4ea1ff" stroke-width="0.25" stroke-linejoin="round"/><polyline points="4.572,8.636 4.572,9.144" fill="none" stroke="#4ea1ff" stroke-width="0.25" stroke-linejoin="round"/><polyline points="4.572,10.160 4.572,9.652" fill="none" stroke="#4ea1ff" stroke-width="0.25" stroke-linejoin="round"/><polyline points="4.572,11.176 4.572,10.668" fill="none" stroke="#4ea1ff" stroke-width="0.25" stroke-linejoin="round"/><polyline points="4.572,11.684 4.572,12.192" fill="none" stroke="#4ea1ff" stroke-width="0.25" stroke-linejoin="round"/><polyline points="4.572,12.192 4.572,11.684" fill="none" stroke="#4ea1ff" stroke-width="0.25" stroke-linejoin="round"/><polyline points="4.572,12.700 4.572,13.208" fill="none" stroke="#4ea1ff" stroke-width="0.25" stroke-linejoin="round"/><polyline points="4.572,13.716 4.572,14.224" fill="none" stroke="#4ea1ff" stroke-width="0.25" stroke-linejoin="round"/><polyline points="4.572,14.986 4.572,15.494" fill="none" stroke="#4ea1ff" stroke-width="0.25" stroke-linejoin="round"/><polyline points="4.572,16.256 4.572,16.764" fill="none" stroke="#4ea1ff" stroke-width="0.25" stroke-linejoin="round"/><polyline points="4.572,17.272 4.572,17.780" fill="none" stroke="#4ea1ff" stroke-width="0.25" stroke-linejoin="round"/><polyline points="4.572,17.780 9.144,17.780" fill="none" stroke="#4ea1ff" stroke-width="0.25" stroke-linejoin="round"/><polyline points="5.334,10.922 5.080,10.160 4.572,10.668 5.334,10.922" fill="#1e222b" stroke="#4ea1ff" stroke-width="0.25" stroke-linejoin="round"/><polyline points="5.334,11.938 5.080,11.176 4.572,11.684 5.334,11.938" fill="#1e222b" stroke="#4ea1ff" stroke-width="0.25" stroke-linejoin="round"/><polyline points="6.858,12.700 6.858,7.620" fill="none" stroke="#4ea1ff" stroke-width="0.25" stroke-linejoin="round"/><polyline points="8.382,10.922 8.382,14.478" fill="none" stroke="#4ea1ff" stroke-width="0.25" stroke-linejoin="round"/><polyline points="8.382,10.922 10.922,10.922" fill="none" stroke="#4ea1ff" stroke-width="0.25" stroke-linejoin="round"/><polyline points="8.382,12.700 6.858,12.700" fill="none" stroke="#4ea1ff" stroke-width="0.25" stroke-linejoin="round"/><polyline points="8.382,14.478 10.922,14.478" fill="none" stroke="#4ea1ff" stroke-width="0.25" stroke-linejoin="round"/><polyline points="10.668,7.620 6.858,7.620" fill="none" stroke="#4ea1ff" stroke-width="0.25" stroke-linejoin="round"/><polyline points="13.716,12.700 15.240,12.700" fill="none" stroke="#4ea1ff" stroke-width="0.25" stroke-linejoin="round"/><path d="M 10.922 14.478 C 11.904 14.478 12.700 13.682 12.700 12.700" fill="none" stroke="#4ea1ff" stroke-width="0.25"/><path d="M 12.700 12.700 C 12.700 11.718 11.904 10.922 10.922 10.922" fill="none" stroke="#4ea1ff" stroke-width="0.25"/><line x1="-5.080" y1="7.620" x2="0.000" y2="7.620" stroke="#e6e9ef" stroke-width="0.2"/><circle cx="-5.080" cy="7.620" r="0.4" fill="#4ea1ff"/><text x="-0.300" y="7.270" fill="#9aa3b2" font-size="0.9" text-anchor="end" font-family="sans-serif">2</text><line x1="-5.080" y1="12.700" x2="0.000" y2="12.700" stroke="#e6e9ef" stroke-width="0.2"/><circle cx="-5.080" cy="12.700" r="0.4" fill="#4ea1ff"/><text x="-0.300" y="12.350" fill="#9aa3b2" font-size="0.9" text-anchor="end" font-family="sans-serif">3</text><line x1="20.320" y1="2.540" x2="15.240" y2="2.540" stroke="#e6e9ef" stroke-width="0.2"/><circle cx="20.320" cy="2.540" r="0.4" fill="#4ea1ff"/><text x="15.540" y="2.190" fill="#9aa3b2" font-size="0.9" text-anchor="start" font-family="sans-serif">8</text><line x1="20.320" y1="7.620" x2="15.240" y2="7.620" stroke="#e6e9ef" stroke-width="0.2"/><circle cx="20.320" cy="7.620" r="0.4" fill="#4ea1ff"/><text x="15.540" y="7.270" fill="#9aa3b2" font-size="0.9" text-anchor="start" font-family="sans-serif">7</text><line x1="20.320" y1="12.700" x2="15.240" y2="12.700" stroke="#e6e9ef" stroke-width="0.2"/><circle cx="20.320" cy="12.700" r="0.4" fill="#4ea1ff"/><text x="15.540" y="12.350" fill="#9aa3b2" font-size="0.9" text-anchor="start" font-family="sans-serif">6</text><line x1="20.320" y1="17.780" x2="15.240" y2="17.780" stroke="#e6e9ef" stroke-width="0.2"/><circle cx="20.320" cy="17.780" r="0.4" fill="#4ea1ff"/><text x="15.540" y="17.430" fill="#9aa3b2" font-size="0.9" text-anchor="start" font-family="sans-serif">5</text></svg>